<svg xmlns="http://www.w3.org/2000/svg" viewBox="0 0 282.5 353.75" height="353.75" width="282.5"><g fill="#2a3282"><path d="M279.702 338.697L181.9 176.501c-4.303-6.9-11.201-6.9-15.401 0L68.7 338.697c-4.301 6.906-.904 12.003 7.7 12.003h195.601c8.598.899 11.997-5.097 7.7-12.003zM231.7 335.3h-42.9V309.6H206V292.4H145.9V309.6H163.1V335.3h-42.9V309.6h17.202V283.9h34.2V266.7H154.4v-25.703h42.9V266.7h-17.203V283.9H214.4V309.6h17.201V335.3h.098zM154.502.7h-137.3C7.798.7 0 8.4 0 17.902v334.6h47.998c0-3.403.903-7.7 3.403-11.202l13.697-23.198H25.6V300.9h49.8l10.299-17.203H25.6v-17.196h70.401L156.9 165.3c3.397-6.001 8.597-9.4 14.599-10.299V17C171.6 8.4 163.9.7 154.502.7zM145.9 69.299H25.8V52.1H145.9V69.3z"/></g></svg>