<svg xmlns="http://www.w3.org/2000/svg" viewBox="0 0 432.5 276.25" height="276.25" width="432.5"><g fill="#2a3282"><path d="M222.3 235.498c-54.101 0-97.9-43.8-97.9-97.895 0-54.102 43.799-97.9 97.9-97.9 23.999 0 45.498 8.597 62.7 22.298l27.5-27.5C288.501 12.998 256.699.2 222.403.2 155.4.2 99.703 48.3 87.597 111.801h-58.4C9.503 111.801 0 123.8 0 137.602c0 13.8 13.701 25.797 29.199 25.797h58.399C99.6 226.899 155.4 275 222.403 275c36.098 0 68.696-13.701 92.695-36.9l-27.5-27.5c-17.3 15.402-40.396 24.898-65.298 24.898z"/><path d="M431.699 139.301l-89.296-59.198v31.796H256.6c-1.698-1.699-3.402-4.296-5.2-6-18.002-18.898-48.1-18.898-66.103 0-17.998 18.002-17.998 48.1 0 66.103 18.003 17.998 48.1 17.998 66.103 0 2.598-2.603 5.2-5.2 6.9-8.603h84.102v35.2l89.296-59.298z"/></g></svg>