<svg xmlns="http://www.w3.org/2000/svg" viewBox="0 0 266.25 353.75" height="353.75" width="266.25"><g fill="#2a3282"><path d="M197.002 200.1c-26.505 0-53.902-5.099-68.5-16.3v137.901c0 17.099 30.8 30.8 68.5 30.8s68.495-13.701 68.495-30.8V183.9c-14.598 10.2-41.996 16.201-68.495 16.201z"/><path d="M265.498 165.001c0-13.701-30.795-24.799-68.495-24.799-37.702 0-68.502 11.098-68.502 24.8 0 13.695 30.8 24.8 68.501 24.8 37.7 0 68.495-11.105 68.495-24.8z"/><path d="M111.299 266.901v-101.9c0-23.1 27.402-36 59.902-40.2V17.8c0-9.4-7.7-17.1-17.1-17.1h-137C7.7.7 0 8.4 0 17.8v333.901h130.2c-12.001-8.598-18.799-18.799-18.799-30.801v-3.398h-85.6v-17.1h85.6v-17.105h-85.6v-17.1h85.6v.704h-.102zm-85.6-213.999H145.6v17.1H25.699v-17.1z"/></g></svg>