<svg xmlns="http://www.w3.org/2000/svg" viewBox="0 0 288.75 246.25" height="246.25" width="288.75"><path d="M266.973 18.202C237.773-12.7 178.47.2 144.073 49.1c-43.8-52.403-95.4-61.899-124.6-30.898-29.2 32.7-21.5 70.498-3.4 101.397l30.1-.899h15.502l29.199-61.001c.899-3.398 13.701-9.497 17.202-8.599 11.197 0 11.197 14.6 11.998 18.901l.897 90.202 10.304-30.103c.897-3.399 3.397-8.599 6.899-8.599l91.9-.899c4.301 0 5.2.9 5.2 5.195 0 4.303 6.001 19.805 1.699 19.805h-82.5L128.672 196c-2.6 4.301-13.698 5.2-16.3 5.2-13.7-1.699-14.6-18.901-15.498-23.199L95.971 105 83.076 139.3c-.904 2.598-4.301 3.398-6.904 4.301H30.576C70.074 196 119.072 237.3 142.275 245 176.773 231.297 347.774 105.8 266.973 18.202z" fill="#3276bc"/></svg>