<svg xmlns="http://www.w3.org/2000/svg" viewBox="0 0 38.75 40" height="40" width="38.75"><g fill="#dc5b26"><path d="M25.899 9.252v5.6h5.6c0-3.1-2.5-5.6-5.6-5.6zM12.1 14.95c-.601-.299-1.099-.201-1.7-.099-.302.1-.2.299-.2.5v3.598c.601.102 1.001.2 1.601.102.9-.302 1.196-1.098 1.3-2.002 0-.8-.104-1.699-1-2.099z"/><path d="M37.1 5.15H22.402V.55L0 4.45v30.4l22.402 3.898v-5.1h14.8c.595 0 .997-.502.997-1V6.25c-.099-.602-.499-1.1-1.099-1.1zM15.801 17.953c-.303 1.498-1.2 2.797-2.602 3.398-.996.4-1.9.298-2.902.2v5.098C9.6 26.55 9 26.55 8.4 26.449c-.2-.098-.699 0-.699-.2V12.85c0-.297-.102-.297.2-.297 1.299-.103 2.5-.202 3.701-.202 1.397 0 2.7.202 3.6 1.397.698 1.103.8 2.803.6 4.205zM36.9 32.45H22.402V29.35H33.1v-1.796H22.402v-2.3H33.1v-1.706H22.402V20.95a5.39 5.39 0 0 0 2.5.601 5.59 5.59 0 0 0 5.595-5.6h-5.595v-5.698c-.904 0-1.802.2-2.5.595v-4.4H36.9V32.45z"/></g></svg>