<svg xmlns="http://www.w3.org/2000/svg" viewBox="0 0 76.25 25" height="25" width="76.25"><g fill="#2a3282"><path d="M67.5 23.75h-65c-1.401 0-2.5-1.601-2.5-2.9V3.252C0 1.95 1.099.85 2.5.85h65c.497 0 1.401 0 7.5 11.499l.2.401-.2.4c-6.099 10.6-7.002 10.6-7.5 10.6zM2.402 2.451c-.502 0-.903.402-.903.802V20.85c0 .6.503 1.299.903 1.299h64.8c.795-.699 3.6-5.298 5.997-9.498C70.8 8.053 67.998 3.15 67.1 2.35H2.402v.102z"/><path d="M22.28 4.922H4.882c-.502 0-1 .4-1 1.002V18.92c0 .503.4 1.001 1 1.001H22.28c.504 0 1.001-.4 1.001-1V5.923c-.097-.602-.497-1.002-1.001-1.002zM20.78 6.924l-7.397 5.699-7.3-5.7h14.697zm-15 11V9.322l7.003 5.402c.2.102.4.2.6.2.2 0 .4-.098.596-.2l7.201-5.602v8.804h-15.4zM43.638 4.922H26.235a1 1 0 0 0-.996 1.002V18.92c0 .503.401 1.001.996 1.001h17.403c.498 0 1-.4 1-1V5.923c0-.602-.502-1.002-1-1.002zm-1.5 2.002l-7.402 5.699-7.3-5.7h14.703zm-15 11V9.322l6.998 5.402c.2.102.4.2.6.2.2 0 .4-.098.601-.2L42.54 9.12v8.804h-15.4zM64.995 4.922H47.592a1 1 0 0 0-.996 1.002V18.92a.998.998 0 0 0 .996 1.001h17.403c.499 0 1.001-.4 1.001-1V5.923c0-.602-.502-1.002-1-1.002zm-1.499 2.002l-7.402 5.699-7.3-5.7h14.702zm-14.902 11V9.322l7.002 5.402c.2.102.4.2.6.2.2 0 .4-.098.601-.2l7.197-5.602v8.804h-15.4z"/></g></svg>