<svg xmlns="http://www.w3.org/2000/svg" viewBox="0 0 42.5 42.5" height="42.5" width="42.5"><g fill="#2a3282"><path d="M40 29.6H1.601C.7 29.6 0 30.297 0 31.201V40.9C0 41.8.699 42.5 1.601 42.5H40a1.58 1.58 0 0 0 1.601-1.601V31.2a1.58 1.58 0 0 0-1.601-1.6zM3.501 40.9c-.8 0-1.499-.699-1.499-1.5 0-.8.698-1.5 1.5-1.5.8 0 1.498.7 1.498 1.5 0 .801-.699 1.5-1.499 1.5zm35-.602h-8.403c-.298 0-.498-.2-.498-.497 0-.298.2-.499.498-.499h8.404c.297 0 .496.201.496.499s-.2.497-.496.497zm0-1.596h-8.403c-.298 0-.498-.2-.498-.502 0-.3.2-.499.498-.499h8.404c.297 0 .496.2.496.499 0 .302-.2.502-.496.502zm0-1.6h-8.403c-.298 0-.498-.201-.498-.5 0-.302.2-.502.498-.502h8.404c.297 0 .496.2.496.502 0 .299-.2.5-.496.5zM40 14.8H1.601C.7 14.8 0 15.497 0 16.4V26.1c0 .904.699 1.601 1.601 1.601H40a1.58 1.58 0 0 0 1.601-1.601V16.4A1.58 1.58 0 0 0 40 14.8zM3.501 26.099c-.8 0-1.499-.7-1.499-1.499 0-.801.698-1.5 1.5-1.5.8 0 1.498.699 1.498 1.5 0 .8-.699 1.499-1.499 1.499zm35-.602h-8.403c-.298 0-.498-.2-.498-.497s.2-.497.498-.497h8.404c.297 0 .496.2.496.497s-.2.497-.496.497zm0-1.596h-8.403c-.298 0-.498-.2-.498-.502 0-.299.2-.5.498-.5h8.404c.297 0 .496.201.496.5 0 .302-.2.502-.496.502zm0-1.601h-8.403c-.298 0-.498-.2-.498-.499 0-.302.2-.502.498-.502h8.404c.297 0 .496.2.496.502 0 .3-.2.499-.496.499zM40 0H1.601C.7 0 0 .699 0 1.601V11.3c0 .904.699 1.6 1.601 1.6H40a1.58 1.58 0 0 0 1.601-1.6V1.6A1.58 1.58 0 0 0 40 0zM3.501 11.299c-.8 0-1.499-.699-1.499-1.5 0-.8.698-1.498 1.5-1.498.8 0 1.498.697 1.498 1.499 0 .8-.699 1.499-1.499 1.499zm35-.6h-8.403c-.298 0-.498-.202-.498-.499 0-.298.2-.497.498-.497h8.404c.297 0 .496.2.496.497s-.2.499-.496.499zm0-1.598h-8.403c-.298 0-.498-.2-.498-.502 0-.298.2-.499.498-.499h8.404c.297 0 .496.201.496.499 0 .302-.2.502-.496.502zm0-1.601h-8.403c-.298 0-.498-.2-.498-.498 0-.303.2-.504.498-.504h8.404c.297 0 .496.2.496.504 0 .2-.2.498-.496.498z"/></g></svg>