<svg xmlns="http://www.w3.org/2000/svg" viewBox="0 0 122.5 266.25" height="266.25" width="122.5"><path d="M122.203 68.499H83.7V107h13.4c.399 8.799.497 19.901-3.502 23.901-2.1 2.099-7.7 4.296-12.398 6-4.6 1.7-9.902 3.696-14.502 6.398V47.102H88.1L62.003.1 32.5 47.102h21.401V173c-3.002-1.899-6.2-3.5-8.999-5-4.302-1.699-7.7-3.398-9.804-5.6-5.196-4.8-7.1-12.7-7.198-30.4 8.701-2.701 14.897-10.699 14.897-20.401 0-11.997-9.398-21.402-21.396-21.402C9.4 90.197 0 99.602 0 111.6 0 121.3 6.201 129.4 15 132c.2 18.598 2.203 30.897 11.099 39.399 3.803 3.404 8.501 6 13.202 8.101 9 4.301 14.498 7.7 14.498 13.7V218.9c-9.8 2.802-17.1 12.002-17.1 22.603 0 12.797 10.703 23.5 23.501 23.5 12.797 0 23.501-10.703 23.501-23.5 0-10.6-7.3-19.703-17.1-22.603v-56.1c0-6.4 7.7-9.799 19.2-14.5 6.797-2.599 13.197-4.698 17.099-9 7.5-7.9 7.3-21.099 6.9-32.5h12.3v-38.3h.103z" fill="#00188f"/></svg>