<svg xmlns="http://www.w3.org/2000/svg" viewBox="0 0 181.25 186.25" height="186.25" width="181.25"><path d="M171.601.6v8.599H154.4V.6H25.801v8.599H8.6V.6H0V185h8.599v-8.599H25.8V185h128.701v-8.599H171.7V185h8.598V.6h-8.696zm-145.8 162.998H8.6v-12.9H25.8v12.9zm0-25.795H8.6V124.9H25.8v12.902zm0-25.704H8.6v-12.9H25.8v12.9zm0-25.698H8.6V73.5H25.8v12.901zm0-25.801H8.6V47.7H25.8v12.9zm0-25.699H8.6v-12.9H25.8v12.9zm120.098 137.3H34.3v-72.9h111.5v72.9h.098zm0-85.8H34.3V13.5h111.5v72.901h.098zm25.702 77.197H154.4v-12.9h17.201v12.9zm0-25.795H154.4V124.9h17.201v12.902zm0-25.704H154.4v-12.9h17.201v12.9zm0-25.698H154.4V73.5h17.201v12.901zm0-25.801H154.4V47.7h17.201v12.9zm0-25.699H154.4v-12.9h17.201v12.9z" fill="#00188f"/></svg>