<svg xmlns="http://www.w3.org/2000/svg" viewBox="0 0 41.25 42.5" height="42.5" width="41.25"><g fill="#0078d7"><path d="M40.297 24.951L20.2.851 0 24.848 20.098 41.25l20.2-16.299zm-22.7 8.301v-10.2c-1.898-1-3.095-3.003-3.095-5.4 0-3.3 2.5-6 5.596-6 3.1 0 5.6 2.7 5.6 6 0 2.3-1.298 4.4-3.1 5.298v2.001l-.098.098-1.9 2.002 1.998 2.1v.098L20.8 31.25l1.699 1.9-2.5 2.602-2.402-2.5z"/><path d="M22.212 16.035c0-1-1.2-1.796-2.1-1.796-1 0-2.002.699-2.002 1.699 0 1.001 1.001 2.1 2.002 2.1.9.097 2.1-.904 2.1-2.003z"/></g></svg>