<svg xmlns="http://www.w3.org/2000/svg" viewBox="0 0 50 43.75" height="43.75" width="50"><path d="M45.083 12.465c.035-.346.048-.713.048-1.079 0-5.821-4.78-10.552-10.649-10.552-3.48 0-6.685 1.664-8.647 4.4a8.126 8.126 0 0 0-4.268-1.216c-4.185 0-7.632 3.183-8.017 7.23.649-.082 1.299-.15 1.968-.15 3.08 0 6.05 1 8.467 2.768 1.816-4.185 6.43-6.865 11.548-7.016V3.266l6.25 5.352-6.25 5.317v-3.501c-2.935.117-5.782 1.216-7.433 3.881l.333-.029c5.967 0 10.898 4.462 11.6 10.18 1.417 1.07 2.536 2.349 3.33 3.82C47.232 27.25 50 23.914 50 19.832c0-3.282-1.768-5.898-4.918-7.368z" fill="#0072c6"/><path d="M4.917 26.332a11.486 11.486 0 0 1-.048-1.098c0-5.817 4.78-10.533 10.649-10.533 3.48 0 6.685 1.665 8.647 4.38a8.108 8.108 0 0 1 4.268-1.196c4.433 0 8.052 3.579 8.052 7.984l-.02.629c3.002 1.518 4.619 4.033 4.619 7.183 0 4.95-4.033 8.818-9.184 8.818H9.185C4.034 42.499 0 38.63 0 33.68c0-3.262 1.768-5.88 4.917-7.348z" fill="#59b4d9"/></svg>