<svg xmlns="http://www.w3.org/2000/svg" viewBox="0 0 37.5 42.5" height="42.5" width="37.5"><g fill="#0078d7"><path d="M4.902 5.07c0-1.401 4.498-2.5 10.098-2.5 5.6 0 10.098 1.099 10.098 2.5 0 1.397-4.498 2.5-10.098 2.5-5.6 0-10.098-1.103-10.098-2.5zm9 33.696V14.567c0-2.997 4.697-4.4 11.596-4.4 1.602 0 3.1.103 4.502.3V5.07C30 2.467 23.301.369 15 .369S0 2.467 0 5.069v31.197c0 2.603 6.699 4.703 15 4.703h1.002c-1.3-.699-2.1-1.402-2.1-2.203z"/><path d="M25.942 17.849c-3.998 0-7.3-.802-7.3-1.798 0-1 3.302-1.801 7.3-1.801 4.004 0 7.3.801 7.3 1.801 0 .996-3.198 1.798-7.3 1.798zm6.402 10.102L19.042 38.953l5.103-8.502h-4.502l13.3-11-5.102 8.5h4.503zm-6.402-15.904c-5.898 0-10.4 1.504-10.4 3.302V37.75c0 1.899 4.404 3.501 10.4 3.501 5.904 0 10.802-1.503 10.802-3.403V15.45c0-1.9-4.8-3.404-10.802-3.404z"/></g></svg>