<svg xmlns="http://www.w3.org/2000/svg" viewBox="0 0 45 38.75" height="38.75" width="45"><g fill="#0078d7"><path d="M21.753 20.219c2.3-1.197 3.296-4.097 2.1-6.397-1.202-2.3-4.101-3.203-6.402-2.1-2.3 1.197-3.301 4.097-2.1 6.397 1.202 2.403 4.102 3.3 6.402 2.1zM18.75 14.52c.899-.4 1.9-.098 2.402.801.4.9.098 1.9-.8 2.3-.9.4-1.9.098-2.3-.801-.503-.8-.103-1.899.698-2.3z"/><path d="M41.9 5.301H41.6c0-1.303-.902-2.298-2-2.298h-.602c0-1.104-.8-2.003-1.7-2.003H1.7C.8 1 0 1.899 0 3.002V30.6c0 1.099.801 2.001 1.699 2.001h.303v.299c0 1.299.898 2.299 1.997 2.299H4.3c0 1.299.9 2.3 1.998 2.3h35.6c1.099 0 2.002-1.001 2.002-2.3V7.6c.097-1.304-.904-2.3-2.001-2.3zm-31.998 7.1l1.797-2.9 2.5 1.002c.401-.304.801-.704 1.2-.904L15 6.8l3.301-.899 1.099 2.5c.6 0 1.299.098 1.899.196L23.1 6.4l2.901 1.803-1.099 2.597c.395.4.698.8.997 1.299l2.9-.298.801 3.3-2.598 1.1c0 .6-.102 1.098-.2 1.699l2.196 1.801-1.795 2.9-2.5-1a7.51 7.51 0 0 1-1.402 1.098l.298 2.803-3.302.795-.996-2.5c-.6 0-1.2-.097-1.801-.2L15.801 25.8 12.9 23.997 13.9 21.6c-.4-.4-.8-.897-1.104-1.499l-2.7.299-.796-3.301 2.398-1.001c0-.596.102-1.197.303-1.797l-2.1-1.9zM4.6 34.6H4c-.8 0-1.401-.7-1.401-1.7v-.298H37.3c.899 0 1.698-.902 1.698-2V3.597h.602c.8 0 1.401.703 1.401 1.703V32.9c0 .897-.601 1.699-1.4 1.699h-35zm38.701.6c0 .899-.6 1.7-1.401 1.7H6.299c-.801 0-1.397-.699-1.397-1.7H39.6c1.099 0 2.001-1 2.001-2.3V5.903h.299c.8 0 1.401.797 1.401 1.7v27.597z"/></g></svg>