<svg xmlns="http://www.w3.org/2000/svg" viewBox="0 0 50 50" height="50" width="50"><path d="M0 50h50V0H0v50z" fill="#009480"/><path d="M9.908 25.42v-4.234c.092-.605.233-1.235.302-1.836.395-2.861 2.324-5.766 5.835-6.372 5.976-1.05 11.952-1.07 17.93.02 3.257.605 5.049 2.725 5.697 5.864.607 2.906.563 5.835.074 8.766-.489 2.812-2.466 5.673-6.094 6.117-2.373.279-4.746.489-7.114.742-.327.05-.698.118-.957.303-1.324.86-2.07 1.837-3.974 2.603-1.558.673-4.86 1.396-5.118 1.328-.117-.186 2.33-2.886 2.535-4.512-.86-.142-1.509-.234-2.14-.328-3.72-.556-5.908-2.602-6.605-6.23-.138-.742-.23-1.488-.371-2.231z" fill="#fff"/><path d="M29.047 30.254c.607-.093 1.045-.136 1.51-.205 2.607-.377 4.14-1.699 4.628-4.024.094-.469.166-.951.259-1.445v-2.72c-.073-.395-.165-.791-.21-1.186-.278-1.837-1.625-3.721-4.091-4.116-4.19-.674-8.375-.698-12.559.025-2.28.395-3.535 1.767-3.999 3.788-.445 1.885-.395 3.77-.049 5.674.328 1.816 1.743 3.584 4.258 3.955 3.716.513 10.253.254 10.253.254z" fill="#414141"/><path d="M18.998 23.184a1.16 1.16 0 0 1 1.187-1.182c.65 0 1.188.532 1.188 1.182 0 .63-.538 1.166-1.188 1.166a1.162 1.162 0 0 1-1.187-1.166zM29.931 22.003a1.16 1.16 0 0 1 1.188 1.18c0 .654-.538 1.187-1.188 1.187-.63 0-1.166-.533-1.186-1.162 0-.674.532-1.205 1.186-1.205zM25.049 24.37a1.188 1.188 0 0 1-1.187-1.186c.02-.65.533-1.162 1.187-1.162.65 0 1.186.537 1.186 1.186a1.17 1.17 0 0 1-1.186 1.162z" fill="#fff"/></svg>