<svg xmlns="http://www.w3.org/2000/svg" viewBox="0 0 41.25 48.75" height="48.75" width="41.25"><g fill="#0078d7" fill-rule="evenodd"><path d="M32.529 1.186c-.37-.463-1.025-.561-1.025-.561H6.47c-3.75 0-3.75 3.086-3.75 3.086v4.414h2.91c1.499 0 2.812 1.211 2.812 2.813 0 1.498-1.226 2.812-2.812 2.812H2.72v4.038h2.91c1.499 0 2.812 1.21 2.812 2.798 0 1.504-1.226 2.827-2.812 2.827H2.72v4.023h2.91c1.499 0 2.812 1.216 2.812 2.813 0 1.499-1.226 2.812-2.812 2.812H2.72v3.189c0 .752.561 1.314 1.314 1.314h11.532V21.811c0-4.023 5.528-6.85 13.404-6.85V5.127c0-.752 0-.85-.753-.85H5.341c-.087-1.503 1.416-1.875 1.416-1.875H29.63c1.4 0 1.4 1.22 1.4 1.22v11.34c.562 0 1.04.102 1.5.102h.191V1.836c0-.186-.089-.459-.191-.65z"/><path d="M29.247 17.315c-6.66 0-11.25 2.147-11.25 4.496v21.275c.377 2.251 5.064 4.414 11.442 4.414 6.563 0 10.786-2.06 10.873-4.414V22.002c0-2.353-4.413-4.687-11.064-4.687zm.192 6.563c-4.79 0-8.629-1.13-8.629-2.443 0-1.41 3.839-2.436 8.629-2.436 4.785 0 7.963 1.129 7.963 2.525 0 1.313-3.276 2.354-7.963 2.354zM6.939 20.497c0 .753-.562 1.314-1.314 1.314H1.314C.561 21.811 0 21.25 0 20.497c0-.746.561-1.307 1.314-1.307h4.311c.752-.089 1.314.561 1.314 1.307zM6.939 10.845c0 .746-.562 1.314-1.314 1.314H1.314A1.284 1.284 0 0 1 0 10.845c0-.753.561-1.314 1.314-1.314h4.311c.752 0 1.314.65 1.314 1.314zM6.939 30.064c0 .746-.562 1.314-1.314 1.314H1.314A1.284 1.284 0 0 1 0 30.064c0-.753.561-1.314 1.314-1.314h4.311c.752 0 1.314.561 1.314 1.314z"/></g></svg>