<svg xmlns="http://www.w3.org/2000/svg" viewBox="0 0 100 101.25" height="101.25" width="100"><path d="M82.676 91.797H17.172c-5 0-9.096-4.096-9.096-9.096V17.197c0-5 4.096-9.096 9.096-9.096h65.504c5 0 9.096 4.096 9.096 9.096v65.504c0 5-4.096 9.096-9.096 9.096zM17.172 14.103c-1.698 0-2.997 1.396-2.997 2.997V82.6c0 1.698 1.401 3.002 2.997 3.002h65.504c1.699 0 2.998-1.4 2.998-3.002V17.1c0-1.699-1.402-2.997-2.998-2.997H17.172z" fill="#a0a1a2"/><path d="M41.074.899c-2.197-1-4.8-1.202-7.099-.298-2.3.801-4.2 2.5-5.2 4.8l-1.403 2.9h29.503L41.074.9zM99.375 34a8.795 8.795 0 0 0-4.8-5.2l-2.9-1.401v29.598l7.403-15.794c1.098-2.3 1.196-4.8.297-7.203zM.874 65.699c-1.001 2.202-1.202 4.8-.298 7.1a8.792 8.792 0 0 0 4.8 5.2l2.9 1.4V49.9l-7.402 15.8zM65.674 99.103a8.995 8.995 0 0 0 3.901.898c1.099 0 2.1-.2 3.199-.601 2.3-.8 4.199-2.5 5.2-4.8l1.401-2.9H49.872l15.802 7.403z" fill="#7a7a7a"/><path d="M17.172 14.103c-1.698 0-2.997 1.396-2.997 2.997V82.6c0 1.698 1.401 3.002 2.997 3.002h65.504c1.699 0 2.998-1.4 2.998-3.002V17.1c0-1.699-1.402-2.997-2.998-2.997H17.172z" fill="#fff"/><path d="M64.375 43.703h-12.7L56.973 26c.102-.503-.098-1-.498-1.2-.098-.104-.299-.104-.401-.104-.298 0-.6.202-.8.402L34.774 55c-.199.298-.199.698-.102 1 .2.299.504.499.904.499h12.3l-5.503 17.997c-.098.505.102 1.002.504 1.202.097.102.297.102.4.102.297 0 .6-.2.8-.4l21.1-30.2c.097-.2.2-.4.2-.6 0-.498-.505-.898-1.002-.898z" fill="#59b4d9"/></svg>