<svg xmlns="http://www.w3.org/2000/svg" viewBox="0 0 77.5 52.5" height="52.5" width="77.5"><g fill="#0078d7"><path d="M45.801 29.451c-2.002 0-3.7 1.201-4.502 2.9H12.7c-4.8 0-8.799-3.9-8.799-8.798 0-4.903 3.896-8.804 8.8-8.804h3.998a14.38 14.38 0 0 1 .899-2.9c.2-.3.302-.7.502-.996C20.098 7.35 23.901 5.05 28.2 5.05c3.901 0 7.299 1.9 9.399 4.698 1.2-.601 2.5-1.001 3.803-1.299C38.6 4.05 33.8 1.15 28.2 1.15c-6.5 0-12.1 3.999-14.4 9.703v.097-.097H12.7C5.7 10.95 0 16.648 0 23.65c0 7.002 5.699 12.7 12.7 12.7h28.701c.802 1.7 2.5 2.9 4.498 2.9 2.7 0 4.902-2.201 4.902-4.901-.102-2.701-2.3-4.898-5-4.898z"/><path d="M61.002 51.248c8.598 0 16-7.3 16-15.9 0-8.598-6.904-15.497-15.503-15.6-2.9-5.8-8.799-9.697-15.698-9.697-8.399 0-15.401 5.9-17.1 13.696-4.1.4-7.602 2.603-9.8 5.704H39.8c1.401-1.802 3.599-2.901 6.099-2.901 4.301 0 7.802 3.501 7.802 7.799 0 4.3-3.5 7.802-7.802 7.802-2.5 0-4.6-1.098-6.1-2.901H16.5c.903 6.603 6.201 11.998 13.101 11.998h31.402z"/></g></svg>