<svg xmlns="http://www.w3.org/2000/svg" viewBox="0 0 61.25 43.75" height="43.75" width="61.25"><g fill="#dc3c00"><path d="M26.109 29.975l-.704 2.797c-.097.504.2.802.704.704l2.797-.704c.503-.097.6-.497.2-.897l-2.197-2.203c-.302-.297-.703-.2-.8.303zM54.908 8.197c.297.3.898.3 1.298 0 .298-.302.899-1 1.202-1.298 0 0 1.796-2.403-.602-4.8-2.402-2.403-4.8-.503-4.8-.503-.4.303-1 .801-1.303 1.201-.4.298-.298.9 0 1.3l4.205 4.1zM28.379 26.245l4.199 4.199c.4.302.898.302 1.3 0l19.598-19.6c.299-.298.299-.898 0-1.3l-4.199-4.198c-.4-.4-.898-.4-1.298 0l-19.6 19.698c-.303.302-.303.898 0 1.201z"/><path d="M60.2 35.4c0-3.901-3.1-7.002-6.899-7.002-.304 0-.6 0-.899.102.395-1.601.698-3.197.698-4.901 0-2.599-.502-5-1.401-7.198l-16 15.898c-.601.6-1.099.898-1.9.898-1.299.802-3.4 1.705-4.199 1.906l-2.999.794c-.302.103-.502.103-.8.103-.899 0-1.802-.4-2.402-1.098-.602-.703-.801-1.705-.602-2.7l.704-2.803c.2-.899 1.202-3.6 2.198-4.898.2-.503.4-.902.8-1.201L42.796 7.099c-2.5-1.3-5.297-1.997-8.294-1.997-7.5 0-14.703 4.898-17.1 10.997V24.7l-7.106 1.9L1.801 23.3c-.502.801-.8 1.401-.8 1.401C.9 24.4 0 26.9 0 29.701 0 36.7 5.699 42.402 12.7 42.402l41.001.098c3.599-.401 6.5-3.399 6.5-7.1z"/><path d="M15.938 23.13V7.329l-5.7-1.602-10.2 3.8v11.4l3.502-1.4v-9.299l6.699-1.6v13.7l-10.2-1.4 10.2 3.798 5.698-1.596z"/></g></svg>