<svg xmlns="http://www.w3.org/2000/svg" viewBox="0 0 47.5 48.75" height="48.75" width="47.5"><g fill="#0078d7" fill-rule="evenodd"><path d="M12.1 35.414V19.612C5.215 20.526 0 26.4 0 33.54c0 7.764 6.201 13.96 13.975 13.96 7.124 0 12.998-5.21 13.911-12.085H12.1zm-7.5-5.625h3.75v3.75H4.6v-3.75zm7.5 15H8.35v-3.75h3.75v3.75zm11.25-3.75H19.6v-3.75h3.75v3.75z"/><path d="M30.381.819c-9.19 0-16.41 7.123-16.41 16.313v16.402h16.41c9.175 0 16.313-7.226 16.313-16.402C46.694 7.942 39.556.82 30.38.82zm-6.098 24.75h-3.277V14.785h3.277V25.57zm7.036 0h-3.286v-7.5h3.286v7.5zm7.026 0H35.07V11.035h3.276V25.57z"/></g></svg>