<svg xmlns="http://www.w3.org/2000/svg" viewBox="0 0 41.25 42.5" height="42.5" width="41.25"><g fill="#0078d7"><path d="M20.4 3.15c9.8 0 17.7 7.999 17.7 17.7 0 9.8-8.002 17.7-17.7 17.7-9.8 0-17.7-8.003-17.7-17.7 0-9.8 7.9-17.7 17.7-17.7m0-2.7A20.359 20.359 0 0 0 0 20.85a20.36 20.36 0 0 0 20.4 20.401 20.361 20.361 0 0 0 20.401-20.4A20.36 20.36 0 0 0 20.4.45z"/><path d="M12.402 32.453L20.4 24.35l-7.998-7.9-2.602 2.7 5.298 5.298L9.8 29.752l2.602 2.7zM28.399 9.351l-8 8 8 8.002 2.602-2.7L25.7 17.35 31 12.051l-2.602-2.7z"/></g></svg>