<svg xmlns="http://www.w3.org/2000/svg" viewBox="0 0 50 50" height="50" width="50"><path d="M.835 0C.333 0 0 .333 0 .835v10c0 .497.333.83.835.83h5c.498 0 .83-.332.83-.83v-4.17h36.67v4.17c0 .497.332.83.996.83h4.834c.502 0 .835-.332.835-.83v-10C50 .333 49.667 0 49.165 0H.835zM49.165 50c.502 0 .835-.333.835-.835v-9.829c0-.503-.333-.835-.835-.835h-4.829c-.504 0-.835.332-.835.835v3.999H6.666v-4.17c0-.498-.332-.83-.996-.83H.835c-.502 0-.835.332-.835 1.001v9.829c0 .502.333.835.835.835h48.33z" fill="#0072c6"/><path d="M18.447 22.779l2.158-2.159 1.598 1.601-2.154 2.154-1.602-1.596zM21.578 19.649l2.162-2.159 1.597 1.601-2.158 2.159-1.601-1.601zM26.309 18.11l-1.597-1.592 2.138-2.138 1.603 1.591-2.144 2.139zM24.707 32.813l1.602-1.602 2.138 2.144-1.597 1.596-2.143-2.138zM23.74 31.831l-2.157-2.163 1.596-1.587 2.162 2.158-1.6 1.592zM20.61 28.701l-2.157-2.163 1.596-1.587 2.154 2.15-1.593 1.6z" fill="#b8d432"/><path d="M36.132 15.248a2.775 2.775 0 0 1-1.977.817 2.772 2.772 0 0 1-1.972-.817l-3.784-3.783v7.69h11.518v-7.69l-3.785 3.784z" fill="#59b4d9"/><path d="M34.155 15.502c.596 0 1.157-.228 1.577-.653l4.18-4.18v-.22H28.4v.22l4.179 4.18a2.2 2.2 0 0 0 1.577.653zM36.132 34.971a2.785 2.785 0 0 1-3.95 0L28.4 31.186v7.691h11.518v-7.691l-3.785 3.785z" fill="#59b4d9"/><path d="M34.155 35.225c.596 0 1.157-.23 1.577-.65l4.18-4.185v-.219H28.4v.22l4.179 4.184c.42.42.982.65 1.577.65zM12.324 25.377a4.417 4.417 0 0 1-3.15 1.298 4.42 4.42 0 0 1-3.144-1.299L0 19.341v12.26h18.355v-12.26l-6.031 6.035z" fill="#59b4d9"/><path d="M9.175 25.781c.952 0 1.845-.37 2.515-1.04l6.665-6.665v-.35H0v.355l6.665 6.66a3.532 3.532 0 0 0 2.51 1.04z" fill="#59b4d9"/></svg>