<svg xmlns="http://www.w3.org/2000/svg" viewBox="0 0 42.5 45" height="45" width="42.5"><g fill="#0078d7"><path d="M13.502 22.352a.54.54 0 0 0 .496.298c.2.097.402.097.602.097.2 0 .4 0 .498-.097.2-.097.302-.2.502-.4l.299-.601c.103-.2.103-.498.103-.899 0-.303 0-.503-.103-.8-.098-.298-.098-.499-.299-.699-.102-.2-.303-.302-.4-.503-.2-.097-.4-.2-.6-.2-.299 0-.499.103-.699.2-.2.103-.302.303-.502.4l-.299.602c-.102.2-.102.497-.102.8 0 .401 0 .698.102.899.201.502.299.703.402.903z"/><path d="M19.301 30.15c.3 0 .699 0 .996.098 1.603-3.198 4.8-5.298 8.502-5.498V6.049c0-3-6.5-5.9-14.4-5.9C6.402.15 0 2.85 0 5.85V32.85c0 2.7 5.297 5.297 12.203 5.699-.103-.402-.103-.801-.103-1.196 0-3.902 3.197-7.203 7.201-7.203zm5.202-5.498h-5v-7.7H21.8v5.898h2.701v1.802zM14.4 2.25c5.698 0 10.303 1.401 10.303 3.1 0 1.7-4.605 3.101-10.303 3.101C8.7 8.451 4.1 7.05 4.1 5.351c0-1.7 4.6-3.101 10.299-3.101zm-4.302 20.6c0 .2-.098.4-.196.601-.102.2-.2.4-.4.498-.2.2-.4.302-.6.4-.2.102-.503.2-.904.303-.298.098-.698.098-1.197.098H6.1c-.2 0-.4 0-.601-.098-.2 0-.4-.102-.498-.102-.2 0-.297-.099-.4-.201V22.25c.103.102.302.2.498.303.2.097.302.194.502.297.201.097.401.097.601.2.2.097.4.097.6.097.201 0 .3 0 .402-.097.097 0 .2-.103.2-.103.097 0 .097-.097.097-.2v-.194c0-.103 0-.2-.098-.303-.102-.098-.102-.2-.2-.2-.102-.099-.2-.099-.4-.201-.2-.098-.303-.098-.503-.2-.298-.098-.6-.298-.9-.498-.199-.2-.399-.302-.6-.504-.199-.2-.297-.4-.297-.594-.102-.2-.102-.503-.102-.704 0-.4.102-.698.2-1 .2-.3.4-.602.6-.796.298-.2.601-.4 1.001-.503.4-.099.801-.201 1.299-.201h.699c.2 0 .4 0 .6.102.2 0 .302.099.502.099.099 0 .3.102.402.102v1.997c-.103-.098-.2-.098-.402-.2-.102-.098-.302-.098-.502-.2-.2-.098-.298-.098-.498-.098h-.6c-.299 0-.498 0-.6.097-.201.103-.201.2-.201.4 0 .103 0 .2.102.2 0 .103.098.103.2.202.098.102.2.102.298.2.098.102.297.102.498.2.303.103.6.297.903.4.298.2.499.297.7.499.199.2.301.4.497.6.102.2.2.502.2.903-.2.098-.2.298-.2.498zm.8-.4c-.2-.499-.298-1.001-.298-1.601 0-.601.099-1.197.299-1.7.2-.498.502-.899.8-1.299.303-.4.801-.6 1.2-.8a4.13 4.13 0 0 1 1.604-.299c.595 0 1.097.098 1.498.299.497.2.899.503 1.202.8.297.297.594.801.795 1.201.2.499.303 1.002.303 1.699 0 .401 0 .899-.2 1.201-.103.402-.304.699-.503.996-.196.303-.395.602-.698.802-.299.2-.499.4-.898.6l2.597 2.202H15.6l-1.699-1.801c-.502 0-1.001-.2-1.401-.299-.4-.2-.801-.502-1.099-.8 0-.302-.302-.704-.502-1.2z"/><path d="M41.401 40.053c0-1.906-1.499-3.502-3.404-3.702.103-.601.202-1.103.202-1.699 0-4.902-4-8.902-8.898-8.902-3.7 0-7.001 2.197-8.3 5.601-.503-.102-1.001-.2-1.601-.2a6.271 6.271 0 0 0-6.3 6.3c0 3.398 2.701 6.2 6.201 6.298H38.8v-.098c1.498-.401 2.602-1.9 2.602-3.598zm-3.404 2.695H19.4c-2.901 0-5.299-2.398-5.299-5.298s2.398-5.298 5.299-5.298c.6 0 1.2.098 1.699.298l.502.2.2-.498c1.099-3.203 4.098-5.4 7.5-5.4 4.4 0 7.902 3.598 7.902 7.9 0 .698-.103 1.397-.303 2.1l-.201.8.703-.102h.298a2.69 2.69 0 0 1 2.7 2.7c0 1.299-1 2.5-2.402 2.598z"/></g></svg>