<svg xmlns="http://www.w3.org/2000/svg" viewBox="0 0 51.25 45" height="45" width="51.25"><path d="M42.797 17.55h-3.294V2.149c0-.8-.704-1.5-1.505-1.5h-36.5C.699.65 0 1.35 0 2.15v30.704c0 .794.699 1.498 1.499 1.498h20.704l5.395 9.399H42.7l7.5-13.1-7.403-13.1zM29.301 9.449h7.3v4.4h-7.3v-4.4zm7.3 5.903v2.198h-7.3v-2.198h7.3zM20.498 9.45h7.3v4.4h-7.3v-4.4zm0 5.904h7.3v2.197h-.2l-1.3 2.201H20.4v-4.399h.098zm0 5.794h5l-2.5 4.406h-2.5v-4.406zm1.705 5.802l-1.705 2.9v-2.9h1.705zm-11.906 4.4h-7.3v-4.4h7.3v4.4zm0-5.796h-7.3v-4.406h7.3v4.406zm0-5.904h-7.3V15.25h7.3v4.399zm0-5.8h-7.3v-4.4h7.3v4.4zm8.804 17.5h-7.3v-4.4h7.3v4.4zm0-5.796h-7.3v-4.406h7.3v4.406zm0-5.904h-7.3V15.25h7.3v4.399zm0-5.8h-7.3v-4.4h7.3v4.4zm1.397 17.5v-.099.099z" fill="#0078d7"/></svg>