<svg xmlns="http://www.w3.org/2000/svg" viewBox="0 0 202.5 176.25" height="176.25" width="202.5"><g fill="#0078d7"><path d="M126.201 42.998H63.4c-3.199 0-5.299 2.7-5.299 5.302v78.198c0 3.203 2.701 5.904 5.299 5.904h74.004c3.197 0 5.297-2.7 5.297-5.903V60.498h-17.001V42.9l.502.098zm-2.1 67.602H76.7v-8.999H124.1v9zm0-16.499H76.7v-8.998H124.1V94.1zm0-17.002H76.7V68.1H124.1V77.1z"/><path d="M151.201.4h-100.6L0 87.7 50.6 175h100.601l50.6-87.3-50.6-87.3zM137.9 140.898H63.901a14.335 14.335 0 0 1-14.399-14.4V48.3a14.338 14.338 0 0 1 14.4-14.399h67.1l21.298 21.3v71.298a14.338 14.338 0 0 1-14.4 14.399z"/></g></svg>