<svg xmlns="http://www.w3.org/2000/svg" viewBox="0 0 30 38.75" height="38.75" width="30"><g fill="#0078d7"><path d="M16.299 15.795c0 .942-.761 1.705-1.699 1.705a1.7 1.7 0 1 1 0-3.404 1.7 1.7 0 0 1 1.699 1.699zM15.151 18.804a.6.6 0 1 1-1.2-.001.6.6 0 0 1 1.2 0zM12.216 15.84a.6.6 0 1 1-1.2 0 .6.6 0 1 1 1.2 0zM12.006 17.451c-.2.2-.2.6 0 .903.099.097.3.2.402.2.097 0 .297-.103.4-.2.097-.102.2-.303.2-.4 0-.2-.103-.303-.2-.4-.103-.304-.503-.304-.802-.103zM12.51 14.335c.195 0 .298-.098.395-.2.102-.097.2-.298.2-.4 0-.2-.098-.297-.2-.4-.2-.196-.595-.196-.899 0-.2.2-.2.6 0 .902.202 0 .304.098.504.098zM6.529 32.357a1.503 1.503 0 0 1-3.004 0 1.5 1.5 0 0 1 1.504-1.498 1.5 1.5 0 0 1 1.5 1.498zM16.69 14.335c.2 0 .303-.098.4-.2.102-.097.2-.298.2-.4 0-.2-.098-.297-.2-.4-.2-.196-.601-.196-.899 0-.2.2-.2.6 0 .902.2 0 .298.098.499.098zM15.151 12.788a.6.6 0 1 1-1.2 0 .6.6 0 0 1 1.2 0z"/><path d="M28.301.4H.9C.399.4 0 .8 0 1.4V36.5C0 37 .4 37.5.899 37.5H28.3c.498 0 1-.401 1-1.001V1.4C29.2.897 28.8.4 28.301.4zM1.1 2.2c0-.502.4-.8.8-.8s.801.4.801.8c0 .5-.4.796-.8.796-.401 0-.801-.395-.801-.796zm6.8 31.7C7.3 35 6.202 35.697 5 35.697c-1.801 0-3.301-1.498-3.301-3.397A3.48 3.48 0 0 1 2.7 29.902L9.8 22.7c.298-.298.698-.499 1.201-.499.899 0 1.7.796 1.7 1.7 0 .298-.103.498-.201.8l-4.6 9.2c.098 0 .098 0 0 0zm6.603-6.401c-.703 0-1.402-.098-2.1-.2l1.1-2.1c0-.097 0-.097.097-.2.2-.401.2-.699.2-1.099 0-1.499-1.201-2.802-2.7-2.802-.7 0-1.396.302-1.998.8L6.7 24.3a11.702 11.702 0 0 1-3.8-8.604C2.9 9.2 8.1 4 14.504 4c6.396 0 11.596 5.2 11.596 11.698 0 6.603-5.2 11.803-11.597 11.803zM27.1 36.299a.792.792 0 0 1-.801-.801c0-.498.4-.797.801-.797.498 0 .8.402.8.797 0 .4-.302.8-.8.8zm0-33.301A.787.787 0 0 1 26.3 2.2c0-.502.4-.8.801-.8.498 0 .8.4.8.8a.786.786 0 0 1-.8.797z"/><path d="M16.191 17.451c-.2.2-.2.6 0 .903.098.097.298.2.4.2.099 0 .3-.103.402-.2.097-.102.2-.303.2-.4 0-.2-.103-.303-.2-.4-.103-.304-.504-.304-.802-.103z"/><path d="M14.536 10.331c-2.998 0-5.4 2.5-5.4 5.5 0 3.001 2.402 5.501 5.4 5.501 3.003 0 5.503-2.5 5.503-5.502-.103-3.096-2.5-5.499-5.503-5.499zm0 9.903c-2.397 0-4.4-2.002-4.4-4.404 0-2.397 1.9-4.4 4.4-4.4 2.403 0 4.399 2.003 4.399 4.4 0 2.402-1.996 4.404-4.399 4.404z"/><path d="M18.081 15.844a.6.6 0 0 1-.596.6.6.6 0 0 1 0-1.2.6.6 0 0 1 .596.6z"/></g></svg>