<svg xmlns="http://www.w3.org/2000/svg" viewBox="0 0 47.5 48.75" height="48.75" width="47.5"><path d="M29.462 27.026c.04 0 .064-.015.09-.024l6.234-3.604c.064-.024.103-.083.103-.162 0-.062-.039-.12-.103-.16l-6.275-3.614a.163.163 0 0 0-.185 0l-6.24 3.59a.183.183 0 0 0-.088.16c0 .073.03.137.088.161l6.274 3.628c.04.01.064.025.102.025zm-.897 8.789c.024 0 .058 0 .087-.015a.21.21 0 0 0 .098-.175v-7.236a.192.192 0 0 0-.098-.162l-6.25-3.604a.205.205 0 0 0-.2 0c-.053.024-.088.088-.088.167v7.236c0 .063.035.121.089.161l6.26 3.598c.023.03.062.03.102.03zm1.763 0c.033 0 .072 0 .097-.015l6.25-3.613c.064-.04.102-.098.102-.16v-7.188a.197.197 0 0 0-.102-.176.25.25 0 0 0-.186 0l-6.25 3.613c-.063.039-.103.097-.103.161v7.188c0 .072.04.136.103.16.025.03.058.03.089.03zM27.7 14.639l-3.838-2.213c-.063-.038-.137-.038-.186 0l-3.852 2.213H12.9c-1.064 0-1.924.961-1.924 2.026v14.224H8.301V10.35l30.224-.039v4.327H27.7zm6.387 26.01h10.375c1.065 0 2.15-.948 2.15-2.011V16.665c0-1.065-1.085-2.026-2.15-2.026h-3.227v-5c0-1.075-1.084-2.028-2.148-2.028H35.64V2.626C35.65 1.553 34.56.6 33.486.6H1.94C.864.6 0 1.563 0 2.627v21.972c0 1.065.864 2.012 1.939 2.012H5.6v5c0 1.064.865 2.017 1.939 2.017h3.437v5.01c0 1.063.86 2.01 1.924 2.01h11.49c1.161 4.112-.401 4.703-7.251 4.703V47.5H40.44v-2.149c-6.851 0-7.53-.591-6.353-4.702zm10.103-2.734H13.95V17.388l30.24-.05v20.577zM22.075 7.611l-3.814-2.196a.2.2 0 0 0-.185 0l-3.813 2.196H7.539c-1.074 0-1.939.953-1.939 2.028v14.238H2.7V3.338l30.24-.04v4.312H22.075z" fill="#0078d7" fill-rule="evenodd"/></svg>