<svg xmlns="http://www.w3.org/2000/svg" viewBox="0 0 38.75 42.5" height="42.5" width="38.75"><g fill="#006fd4"><path d="M19.326 32.752c-.097-.102-.2-.102-.297-.102V31.35c0-.2-.201-.4-.504-.503-.297 0-.498.2-.498.503v1.899c0 .098 0 .098.103.098 0 .102.098.2.195.303l1.905 1.7c.2.199.595.199.795 0l.103-.099c.2-.2.2-.6 0-.8l-1.802-1.7zM14.726 33.05c-.097 0-.2.097-.2.2 0 .098.103.2.2.2.103 0 .2-.102.2-.2.103-.103 0-.303-.2-.2zM18.628 29.651c.097 0 .2-.102.2-.2 0-.102-.103-.2-.2-.2a.21.21 0 0 0-.2.2c0 .098.097.2.2.2zM22.529 33.05c0 .097.098.2.201.2.098 0 .2-.103.2-.2 0-.103-.102-.2-.2-.2-.102-.098-.201.097-.201.2zM18.428 37.151c-.103 0-.2.099-.2.202 0 .097.097.2.2.2.097 0 .2-.103.2-.2 0-.103-.103-.202-.2-.202z"/><path d="M25.029 33.147v-.497l1.5-.899c-.103-.502-.201-1.001-.402-1.499l-1.698.098c-.103-.2-.2-.4-.4-.6l-.103-.099.903-1.503-.4-.395c-.2-.2-.503-.4-.704-.602l-1.499.796a2.97 2.97 0 0 0-.8-.394v-1.705c-.498-.2-.996-.298-1.5-.4l-.8 1.503h-.899l-.898-1.504c-.503.103-1.001.2-1.504.4l.103 1.706c-.298.097-.498.297-.8.497l-1.5-.899c-.2.201-.498.402-.698.7l-.401.399.498.899.4.601c-.2.303-.297.502-.4.8h-1.802c-.2.499-.297 1.001-.4 1.499l1.601.801v1.001l-1.498.899c.097.502.2 1 .4 1.499h1.7c.102.302.297.502.497.8l-.898 1.5c.303.302.503.6.8.8.098.102.2.102.298.2l.904-.498.601-.4c.297.2.497.298.795.4v1.797c.504.2 1.001.303 1.504.4l.796-1.498h1.001l.4.6.504.899c.497-.098.995-.2 1.498-.401v-1.7c.2-.097.498-.2.698-.4h.103l1.5.903c.2-.102.297-.302.497-.502l.601-.6-.899-1.5v-.098c.098-.2.298-.502.4-.702h1.7c.2-.499.299-.997.4-1.499l-1.6-.801c-.1-.499-.1-.699-.1-.802zm-5.4 4.8c-.303.103-.503.103-.801.103-1.098 0-2.201-.298-3.003-1.001a4.74 4.74 0 0 1-1.899-3.799c0-1.099.4-2.201 1-2.998.9-1.2 2.203-1.904 3.8-1.904 1.801 0 3.3.904 4.204 2.3.498.703.697 1.602.697 2.5 0 2.402-1.698 4.405-3.998 4.8z"/><path d="M35.928 31.151l-1.1-.704-.102-.898 1.002-1.201-.6-1.098h-.202l-1.401.4-.697-.499-.098-1.503-1.201-.395-.103.194-.698 1.104-.9.098-1.2-1.002-1 .602v.2l.302 1.303-.504.698-1.498.099-.4 1.201.2.102 1.098.698.103.899-.904 1.104c.102.2.102.394.2.594l.304.602h.2l1.298-.299.698.499.103 1.498 1.2.303.1-.2.697-1.099.903-.102 1.202 1.001.996-.6v-.201l-.299-1.299.5-.697 1.6-.103.298-1.201-.097-.098zm-3.502-.2c-.2.898-1.2 1.402-2.098 1.2-.9-.2-1.402-1.2-1.201-2.098.2-.904 1.2-1.504 2.098-1.202a1.787 1.787 0 0 1 1.201 2.1z"/><path d="M35.328 26.951l.6.996c1.298-2.695 1.298-4.096 1.498-4.8 1.099-5.2 0-10.897-3.5-15.395-3.696-4.902-9.4-7.402-15-7.402-4 0-8.1 1.299-11.5 3.901-8.3 6.396-9.897 18.2-3.5 26.499 1.9 2.5 4.4 4.4 7.201 5.699l-.6-1.998 1.002-.502c-1.002-.499-2.003-1.197-3.004-1.9-.097-1.797 0-4.496 1.104-7.5.801.102 1.498-.098 2.3-.4.4.4.899.801 1.298 1.103.4.298 1.602 1.1 2.403 1.597v-1.3l2.3-.697c-1.401-.903-2.7-1.802-2.901-1.905-.303-.194-.6-.497-.903-.697a5.211 5.211 0 0 0 .2-5l.6-.601c1.5-1.397 2.902-2.598 4.302-3.502l6.3 5.303c-.5 1.201-.5 2.599.4 3.599 1.2 1.602 3.398 1.802 5 .704l.2-.2c1.298.897 2.597 1.796 3.3 2.3l-.8 2.298.298.201m-28.496 1.3C1.426 22.946 1.53 15.446 5.328 9.95c-.402 1.601-.5 3.901.697 6.601-1.299 1.699-1.396 4.199 0 6.002.102.097.2.297.401.394a25.176 25.176 0 0 0-.996 5.704zm10.698-18.6c-1.5.997-2.998 2.3-4.6 4l-.6.6c-.9-.2-1.802-.103-2.7.2-1.5-3.203-1.402-5.703-1.202-7.1.601-.6 1.104-1.103 1.802-1.6.898-.705 1.802-1.202 2.798-1.7 1.202 1.9 2.803 3.798 4.502 5.6zm2.3-1.4c-1.5-1.603-2.998-3.205-4.6-5 1.602-.504 3.3-.802 5-.802 3.8 0 7.5 1.299 10.498 3.799-2.397-.498-6.396-.4-10.898 2.002zm16.4 14.798c-.702-.503-1.6-1.2-2.802-2.201.4-1.1.303-2.398-.497-3.399-1.099-1.401-3.004-1.801-4.6-.899a126.595 126.595 0 0 1-5.503-5.2c5.8-3.1 9.902-2.802 10.303-2.802.097.102.097.2.2.2 3.301 4.301 4.199 9.502 2.9 14.301z"/></g></svg>