<svg xmlns="http://www.w3.org/2000/svg" viewBox="0 0 46.25 20" height="20" width="46.25"><path d="M.756 7.661l9.62-7.11h35.131l-6.992 7.11H.756" fill="#087bbb"/><path d="M.756 7.661l9.62-7.11h35.131l-6.992 7.11H.756z" fill="none" stroke="#fff" stroke-width=".5"/><path d="M38.515 19.893l6.992-7.085V.576l-6.992 7.085v12.232" fill="#087bbb"/><path d="M38.515 19.893l6.992-7.085V.576l-6.992 7.085v12.232z" fill="none" stroke="#fff" stroke-width=".5"/><path d="M.81 19.902h37.705V7.662H.81v12.24z" fill="#087bbb"/><path d="M.81 19.902h37.705V7.662H.81v12.24z" fill="none" stroke="#fff" stroke-width=".5"/><path d="M35.518 13.877s-2.447 6.289-5.39-.02c-2.936-6.303-5.387-.015-5.387-.015s-2.446 6.294-5.386-.01c-2.934-6.307-5.37.04-5.37.04s-2.443 6.294-5.381-.015c-2.94-6.303-5.376-.02-5.376-.02" fill="none" stroke="#fff" stroke-width=".5625" stroke-linecap="round" stroke-miterlimit="1"/><path d="M3.228 13.877s2.446 6.289 5.386-.02c2.939-6.303 5.39-.015 5.39-.015s2.44 6.294 5.38-.01c2.94-6.307 5.377.04 5.377.04s2.436 6.294 5.38-.015c2.935-6.303 5.377-.02 5.377-.02" fill="none" stroke="#fff" stroke-width="1.125" stroke-linecap="round" stroke-miterlimit="1"/><path d="M36.084 13.877s-2.446 6.289-5.39-.02c-2.935-6.303-5.386-.015-5.386-.015s-2.447 6.294-5.386-.01c-2.935-6.307-5.37.04-5.37.04s-2.442 6.294-5.382-.015c-2.94-6.303-5.376-.02-5.376-.02" fill="none" stroke="#231f20" stroke-width=".5625" stroke-linecap="round" stroke-miterlimit="1"/><path d="M3.794 13.877s2.446 6.289 5.386-.02c2.939-6.303 5.39-.015 5.39-.015s2.441 6.294 5.381-.01c2.94-6.307 5.377.04 5.377.04s2.436 6.294 5.38-.015c2.935-6.303 5.376-.02 5.376-.02" fill="none" stroke="#231f20" stroke-width="1.125" stroke-linecap="round" stroke-miterlimit="1"/><path d="M35.518 13.877s-2.447 6.289-5.39-.02c-2.936-6.303-5.387-.015-5.387-.015s-2.446 6.294-5.386-.01c-2.934-6.307-5.37.04-5.37.04s-2.443 6.294-5.381-.015c-2.94-6.303-5.376-.02-5.376-.02" fill="none" stroke="#fff" stroke-width=".5625" stroke-linecap="round" stroke-miterlimit="1"/><path d="M3.228 13.877s2.446 6.289 5.386-.02c2.939-6.303 5.39-.015 5.39-.015s2.44 6.294 5.38-.01c2.94-6.307 5.377.04 5.377.04s2.436 6.294 5.38-.015c2.935-6.303 5.377-.02 5.377-.02" fill="none" stroke="#fff" stroke-width="1.125" stroke-linecap="round" stroke-miterlimit="1"/><path d="M36.084 13.877s-2.446 6.289-5.39-.02c-2.935-6.303-5.386-.015-5.386-.015s-2.447 6.294-5.386-.01c-2.935-6.307-5.37.04-5.37.04s-2.442 6.294-5.382-.015c-2.94-6.303-5.376-.02-5.376-.02" fill="none" stroke="#231f20" stroke-width=".5625" stroke-linecap="round" stroke-miterlimit="1"/><path d="M3.794 13.877s2.446 6.289 5.386-.02c2.939-6.303 5.39-.015 5.39-.015s2.441 6.294 5.381-.01c2.94-6.307 5.377.04 5.377.04s2.436 6.294 5.38-.015c2.935-6.303 5.376-.02 5.376-.02" fill="none" stroke="#231f20" stroke-width="1.125" stroke-linecap="round" stroke-miterlimit="1"/><path d="M35.518 13.877s-2.447 6.289-5.39-.02c-2.936-6.303-5.387-.015-5.387-.015s-2.446 6.294-5.386-.01c-2.934-6.307-5.37.04-5.37.04s-2.443 6.294-5.381-.015c-2.94-6.303-5.376-.02-5.376-.02" fill="none" stroke="#fff" stroke-width=".5625" stroke-linecap="round" stroke-miterlimit="1"/><path d="M3.228 13.877s2.446 6.289 5.386-.02c2.939-6.303 5.39-.015 5.39-.015s2.44 6.294 5.38-.01c2.94-6.307 5.377.04 5.377.04s2.436 6.294 5.38-.015c2.935-6.303 5.377-.02 5.377-.02" fill="none" stroke="#fff" stroke-width="1.125" stroke-linecap="round" stroke-miterlimit="1"/></svg>