<svg xmlns="http://www.w3.org/2000/svg" viewBox="0 0 55 41.25" height="41.25" width="55"><path d="M.708 39.19h47.685V7.862H.708V39.19z" fill="#087bbb"/><path d="M.708 39.19h47.685V7.862H.708V39.19z" fill="none" stroke="#fff" stroke-width=".5"/><path d="M53.877 31.167l-5.484 8.023V7.862l5.484-6.65v29.955" fill="#087bbb"/><path d="M53.877 31.167l-5.484 8.023V7.862l5.484-6.65v29.955z" fill="none" stroke="#fff" stroke-width=".5"/><path d="M8.935 1.212h44.942l-5.484 6.65H.708l8.227-6.65" fill="#087bbb"/><path d="M8.935 1.212h44.942l-5.484 6.65H.708l8.227-6.65z" fill="none" stroke="#fff" stroke-width=".5"/><path d="M41.841 24.039l-7.988.005v-1.27l7.988-.004v-1.982l4.624 2.617-4.624 2.617v-1.983M9.888 24.039l-7.988.005v-1.27l7.988-.004v-1.982l4.623 2.617-4.623 2.617v-1.983M40.459 15.611l-6.689 4.351-.694-1.065 6.694-4.35-1.079-1.665 5.307-.322-2.455 4.711-1.084-1.66M40.459 31.27l-6.689-4.355-.694 1.065 6.694 4.355-1.079 1.66 5.307.327-2.456-4.717-1.083 1.665" fill="#fff"/><path d="M32.139 23.244a7.874 7.874 0 0 1-7.876 7.875 7.875 7.875 0 1 1 0-15.751 7.874 7.874 0 0 1 7.876 7.876" fill="#087bbb"/><path d="M32.139 23.244a7.874 7.874 0 0 1-7.876 7.875 7.875 7.875 0 1 1 0-15.751 7.874 7.874 0 0 1 7.876 7.876z" fill="none" stroke="#fff" stroke-width="1"/></svg>