<svg xmlns="http://www.w3.org/2000/svg" viewBox="0 0 46.25 33.75" height="33.75" width="46.25"><path d="M.728 4.586L5.894.55H45.19l-5.302 4.037H.728" fill="#087bbb"/><path d="M.728 4.587L5.894.547H45.19l-5.302 4.04H.728z" fill="none" stroke="#fff" stroke-width=".5"/><path d="M39.888 32.146H.728" fill="none" stroke="#fff" stroke-width=".5" stroke-linecap="round" stroke-linejoin="round"/><path d="M40.034 4.366v27.789H.576V4.312l39.458.054" fill="#087bbb"/><path d="M40.034 4.367v27.787H.576V4.313l39.458.054z" fill="none" stroke="#fff" stroke-width=".5"/><path d="M45 27.901V.646L39.936 4.47v27.51L45 27.9" fill="#087bbb"/><path d="M45 27.902V.645L39.936 4.47v27.51L45 27.902z" fill="none" stroke="#fff" stroke-width=".5"/><path d="M36.67 21.549h-5.225v-.781l-2.573 1.562 2.573 1.608v-.782h5.225V21.55M11.045 12.696H5.82v-.781l-2.572 1.563L5.82 15.08V14.3h5.225v-1.603M29.849 14.406h5.01v.781l2.572-1.562-2.572-1.607v.78h-5.01v1.608M3.599 23.2h5.01v.776l2.572-1.557-2.572-1.606v.78h-5.01V23.2M8.384 29.635a.959.959 0 0 1 .888-1.02.955.955 0 0 1 1.016.894.956.956 0 0 1-.888 1.02.96.96 0 0 1-1.016-.894" fill="#fff"/><path d="M8.384 29.636a.961.961 0 0 1 .888-1.022.956.956 0 0 1 1.016.894.957.957 0 0 1-.888 1.021.96.96 0 0 1-1.016-.893z" fill="none" stroke="#231f20" stroke-width=".25"/><path d="M10.41 30.319l-1.948-1.743 5.044-5.63 1.948 1.743-5.044 5.63" fill="#fff"/><path d="M10.41 30.32l-1.948-1.744 5.044-5.63 1.948 1.743-5.044 5.63z" fill="none" stroke="#231f20" stroke-width=".25"/><path d="M13.379 15.954c.478-4.175 4.257-7.178 8.427-6.7 4.17.478 7.179 4.264 6.7 8.433-.479 4.17-4.259 7.173-8.432 6.694-4.165-.479-7.174-4.258-6.695-8.427zm-1.23-.142c-.558 4.848 2.934 9.243 7.787 9.8 4.85.557 9.244-2.94 9.8-7.788.552-4.849-2.939-9.244-7.787-9.8-4.849-.557-9.249 2.94-9.8 7.789" fill="#fff"/><path d="M13.379 15.953c.478-4.174 4.257-7.178 8.427-6.699 4.17.479 7.179 4.263 6.7 8.433-.479 4.17-4.258 7.172-8.432 6.695-4.165-.48-7.174-4.259-6.695-8.429zm-1.23-.141c-.558 4.849 2.934 9.244 7.787 9.8 4.85.556 9.244-2.94 9.8-7.788.552-4.848-2.939-9.243-7.787-9.8-4.849-.557-9.249 2.939-9.8 7.788z" fill="none" stroke="#231f20" stroke-width=".25"/><path d="M12.29 16.344c.479-4.174 4.257-7.178 8.427-6.699 4.17.478 7.173 4.257 6.7 8.427-.478 4.17-4.263 7.178-8.432 6.7-4.166-.478-7.174-4.258-6.695-8.428zm-1.23-.141c-.558 4.848 2.938 9.243 7.782 9.8 4.854.556 9.25-2.94 9.806-7.79.55-4.847-2.94-9.242-7.788-9.798-4.849-.558-9.249 2.939-9.8 7.788" fill="#fff"/><path d="M12.29 16.344c.479-4.175 4.257-7.177 8.427-6.699 4.17.478 7.173 4.258 6.7 8.428-.478 4.17-4.263 7.177-8.432 6.699-4.166-.479-7.174-4.258-6.695-8.428zm-1.23-.14c-.558 4.848 2.939 9.241 7.782 9.799 4.854.556 9.25-2.94 9.806-7.789.55-4.848-2.94-9.243-7.788-9.8-4.849-.556-9.249 2.94-9.8 7.79z" fill="none" stroke="#231f20" stroke-width=".25"/><path d="M23.399 22.033a.36.36 0 0 0 .356-.362v-4.408a.358.358 0 0 0-.356-.357h-6.841c-.2 0-.362.16-.362.357v4.408c0 .2.161.362.362.362h6.84" fill="#087bbb"/><path d="M23.399 22.033a.36.36 0 0 0 .356-.361v-4.41a.358.358 0 0 0-.356-.356h-6.841a.36.36 0 0 0-.362.356v4.41c0 .2.161.361.362.361h6.84z" fill="none" stroke="#fff" stroke-width=".375" stroke-linecap="round" stroke-linejoin="round"/><path d="M23.755 16.896l1.44-1.44h-7.559l-1.44 1.44h7.559" fill="#087bbb"/><path d="M23.755 16.895l1.44-1.44h-7.559l-1.44 1.44h7.559z" fill="none" stroke="#fff" stroke-width=".375" stroke-linecap="round" stroke-linejoin="round"/><path d="M25.195 20.582v-5.127l-1.44 1.441v5.126l1.44-1.44" fill="#087bbb"/><path d="M25.195 20.583v-5.127l-1.44 1.44v5.127l1.44-1.44z" fill="none" stroke="#fff" stroke-width=".375" stroke-linecap="round" stroke-linejoin="round"/><path d="M20.743 12.286a1.968 1.968 0 0 0-1.968 1.968l.004 1.753c.015.136-.127.283-.337.303-.21.025-.435-.078-.448-.22v-1.738a2.704 2.704 0 1 1 5.405 0v1.894c-.015.143-.167.236-.377.225-.19-.005-.366-.254-.35-.395l.01-1.822c0-1.089-.851-1.968-1.94-1.968" fill="#087bbb"/><path d="M20.743 12.287a1.968 1.968 0 0 0-1.968 1.967l.004 1.753c.015.137-.127.283-.337.303-.21.025-.435-.078-.448-.22v-1.738a2.704 2.704 0 0 1 2.705-2.705c1.488 0 2.7 1.21 2.7 2.705v1.895c-.015.141-.167.234-.377.224-.19-.004-.366-.254-.35-.395l.01-1.822c0-1.088-.851-1.967-1.94-1.967z" fill="none" stroke="#fff" stroke-width=".375" stroke-linecap="round" stroke-linejoin="round"/><path d="M19.966 19.919c.342 0 .62-.356.62-.801 0-.44-.278-.797-.62-.797-.343 0-.616.358-.616.797 0 .445.273.801.616.801" fill="#fff"/><path d="M20.151 20.739v-1.573l-.386.284v1.573l.386-.284" fill="#fff"/></svg>