<svg xmlns="http://www.w3.org/2000/svg" viewBox="0 0 41.25 47.5" height="47.5" width="41.25"><path d="M15.351 5.699a5.524 5.524 0 1 1-11.05 0 5.524 5.524 0 1 1 11.05 0" fill="#02709f"/><path d="M15.351 5.699a5.524 5.524 0 1 1-11.05 0 5.524 5.524 0 1 1 11.05 0z" fill="none" stroke="#fff" stroke-width=".5"/><path d="M18.389 47.5h22.979V23.32h-22.98V47.5z" fill="#02709f"/><path d="M18.389 47.749h22.979v-24.43h-22.98v24.43z" fill="none" stroke="#fff" stroke-width=".5"/><path d="M26.431 23.247h13.374v-3.042H26.431v3.043z" fill="#02709f"/><path d="M26.431 23.247h13.374v-3.042H26.431v3.043z" fill="none" stroke="#fff" stroke-width=".5"/><path d="M37.095 12.426v7.78h-10.41V9.794l9.189 1.196s1.245.123 1.221 1.435" fill="#02709f"/><path d="M37.095 12.426v7.78h-10.41V9.794l9.189 1.196s1.245.123 1.221 1.435z" fill="none" stroke="#fff" stroke-width=".5"/><path d="M17.021 44.595h-6.347v-7.51H7.49v7.51H1.24a.992.992 0 0 0-.991.991v1.162c0 .547.445.99.991.99h15.782a.991.991 0 0 0 .99-.99v-1.162a.991.991 0 0 0-.99-.99" fill="#02709f"/><path d="M17.021 44.595h-6.347v-7.51H7.49v7.51H1.24a.992.992 0 0 0-.991.991v1.162c0 .547.445.99.991.99h15.782a.991.991 0 0 0 .99-.99v-1.162a.991.991 0 0 0-.99-.99z" fill="none" stroke="#fff" stroke-width=".5"/><path d="M17.3 33.579H4.219V14.99c0-.6-.494-1.093-1.094-1.093H1.841c-.606 0-1.093.493-1.093 1.093v20.963c0 .605.487 1.093 1.093 1.093H17.3c.605 0 1.093-.488 1.093-1.093v-1.28c0-.6-.488-1.094-1.093-1.094" fill="#02709f"/><path d="M17.3 33.579H4.219V14.99c0-.6-.494-1.093-1.094-1.093H1.841c-.606 0-1.093.493-1.093 1.093v20.963c0 .605.487 1.093 1.093 1.093H17.3c.605 0 1.093-.488 1.093-1.093v-1.28c0-.6-.488-1.094-1.093-1.094z" fill="none" stroke="#fff" stroke-width=".5"/><path d="M14.229 12.413l10.039 7.284c.43.367.698.913.698 1.524a2.017 2.017 0 0 1-2.017 2.016c-.337 0-.786-.117-1.143-.312l-8.402-5.195v9.429l4.746.024v6.07l-13.429-.02v-20.03s.09-1.587 2.692-1.587h4.833s.918.049 1.983.797" fill="#02709f"/><path d="M14.229 12.413l10.039 7.284c.43.367.698.913.698 1.524a2.017 2.017 0 0 1-2.017 2.016c-.337 0-.786-.117-1.143-.312l-8.402-5.195v9.429l4.746.024v6.07l-13.429-.02v-20.03s.09-1.587 2.692-1.587h4.833s.918.049 1.983.797z" fill="none" stroke="#fff" stroke-width=".5"/></svg>