<svg xmlns="http://www.w3.org/2000/svg" viewBox="0 0 32.5 47.5" height="47.5" width="32.5"><path d="M31.319 35.699V.79l-8.394 8.413V45.57l8.394-9.872" fill="#02709f"/><path d="M31.319 35.698V.79l-8.394 8.414v36.368l8.394-9.874z" fill="none" stroke="#fff" stroke-width=".5"/><path d="M.728 45.571h22.197V9.204H.728V45.57z" fill="#02709f"/><path d="M.728 45.572h22.197V9.204H.728v36.368z" fill="none" stroke="#fff" stroke-width=".5"/><path d="M22.925 9.204L31.319.79H11.542L.728 9.204h22.197" fill="#02709f"/><path d="M22.925 9.204L31.319.79H11.542L.728 9.204h22.197z" fill="none" stroke="#fff" stroke-width=".5"/><path d="M7.3 34.317v3.174h3.174M6.967 37.49h3.512M2.871 34.317v3.174h3.174M2.539 37.49h3.506M7.3 28.892v3.173h3.174M6.967 32.065h3.512M2.871 28.892v3.173h3.174M2.539 32.065h3.506M7.3 22.798v3.179h3.174M6.967 25.977h3.512M2.871 22.798v3.179h3.174M2.539 25.977h3.506M7.3 16.71v3.173h3.174M6.967 19.883h3.512M2.871 16.71v3.173h3.174M2.539 19.883h3.506M7.3 10.616v3.178h3.174M6.967 13.794h3.512M2.871 10.616v3.178h3.174M2.539 13.794h3.506M17.143 34.317v3.174h3.18M16.811 37.49h3.511M12.715 34.317v3.174h3.174M12.382 37.49h3.507M17.143 28.892v3.173h3.18M16.811 32.065h3.511M12.715 28.892v3.173h3.174M12.382 32.065h3.507M17.143 22.798v3.179h3.18M16.811 25.977h3.511M12.715 22.798v3.179h3.174M12.382 25.977h3.507M17.143 16.71v3.173h3.18M16.811 19.883h3.511M12.715 16.71v3.173h3.174M12.382 19.883h3.507M17.143 10.616v3.178h3.18M16.811 13.794h3.511M12.715 10.616v3.178h3.174M12.382 13.794h3.507" fill="none" stroke="#fff" stroke-width=".45"/></svg>