<svg xmlns="http://www.w3.org/2000/svg" viewBox="0 0 46.25 41.25" height="41.25" width="46.25"><path d="M45.591 9.271c0 4.868-10.147 8.814-22.671 8.814C10.4 18.085.249 14.139.249 9.272v21.664c0 4.868 10.15 8.814 22.67 8.814 12.525 0 22.672-3.946 22.672-8.814V9.271" fill="#1582ba"/><path d="M45.591 9.271c0 4.868-10.147 8.814-22.671 8.814C10.4 18.085.249 14.139.249 9.271v21.665c0 4.868 10.15 8.814 22.67 8.814 12.525 0 22.672-3.946 22.672-8.814V9.271z" fill="none" stroke="#fff" stroke-width=".5"/><path d="M22.92 18.085c12.524 0 22.671-3.946 22.671-8.813 0-4.874-10.147-8.82-22.671-8.82C10.4.453.249 4.399.249 9.273c0 4.867 10.15 8.813 22.67 8.813" fill="#1582ba"/><path d="M22.92 18.085c12.524 0 22.671-3.946 22.671-8.814 0-4.873-10.147-8.818-22.671-8.818C10.4.453.249 4.398.249 9.27c0 4.868 10.15 8.814 22.67 8.814z" fill="none" stroke="#fff" stroke-width=".5"/><path d="M17.959 5.736l1.9 2.851-7.183 1.66 1.572-1.308L3.154 7.045l2.784-2.09L16.64 6.772l1.319-1.036M28.056 12.645L26.763 9.71l6.474-1.299-1.123 1.011 10.79 1.842-2.587 2.07-10.727-2.013-1.534 1.324M24.516 4.184L31.768 2.2l.087 3.105-1.811-.346-3.54 2.939-3.379-.493 3.652-2.87-2.26-.352M21.411 15.321l-6.905 1.294-.262-3.194 1.986.43 3.804-3.248 3.365.572-4.058 3.54 2.07.606M41.904 33.91v-7.759l-4.673 3.725 4.673 4.034" fill="#fff"/><path d="M41.904 33.91V26.15l-4.673 3.725 4.673 4.034z" fill="none" stroke="#000" stroke-width=".375"/><path d="M4.087 33.939v-7.754l4.668 3.726-4.668 4.028" fill="#fff"/><path d="M4.087 33.938v-7.753l4.668 3.726-4.668 4.027z" fill="none" stroke="#000" stroke-width=".375"/><path d="M7.216 18.539v7.764l-4.672-3.727 4.672-4.037" fill="#fff"/><path d="M7.216 18.539v7.763l-4.672-3.726 4.672-4.037z" fill="none" stroke="#000" stroke-width=".375"/><path d="M38.417 18.509v7.759l4.674-3.726-4.674-4.033" fill="#fff"/><path d="M38.417 18.51v7.758l4.674-3.726-4.674-4.032z" fill="none" stroke="#000" stroke-width=".375"/><path d="M39.429 22.289H36.61M40.415 29.813h3.53M5.337 29.847H1.572M5.498 22.558h3.526" fill="none" stroke="#fff" stroke-width=".95"/><path d="M32.949 24.676l-.019 13.945H12.598l-.02-13.945h20.37" fill="#fff"/><path d="M32.949 24.676l-.019 13.945H12.598l-.02-13.945h20.37z" fill="none" stroke="#000" stroke-width=".375"/><path d="M28.169 20.804s.801-.093.98.709l.177 2.572 5.333.889.531-1.153-1.337-3.197c-6.837-1.685-13.41-1.153-13.41-1.153h.264s-2.397-.532-9.237 1.153l-1.334 3.197.533 1.153L16 24.085l.175-2.572c.177-.802.978-.71.978-.71h11.015" fill="#fff"/><path d="M28.169 20.804s.801-.093.98.708l.177 2.573 5.333.889.531-1.152-1.337-3.198c-6.837-1.685-13.41-1.153-13.41-1.153h.264s-2.397-.532-9.237 1.153l-1.334 3.198.533 1.152L16 24.085l.175-2.573c.177-.801.978-.708.978-.708h11.015z" fill="none" stroke="#000" stroke-width=".375"/><path d="M31.962 25.467l-.018 2.51H13.648l-.02-2.51h18.334" fill="#fff"/><path d="M31.962 25.467l-.018 2.51H13.648l-.02-2.51h18.334z" fill="none" stroke="#000" stroke-width=".375"/><path d="M31.788 29.056l-.02 8.676H13.725l-.014-8.676h18.077" fill="#fff"/><path d="M31.788 29.056l-.02 8.676H13.725l-.014-8.676h18.077z" fill="none" stroke="#020202" stroke-width=".375"/><path d="M15.064 37.04h15.405v-7.554H15.064v7.554z" fill="none" stroke="#030303" stroke-width=".315125"/><path d="M13.711 29.056l9.375 4.747 8.702-4.747H13.71" fill="#fff"/><path d="M13.711 29.056l9.375 4.746 8.702-4.746H13.71z" fill="none" stroke="#020202" stroke-width=".315125"/></svg>