<svg xmlns="http://www.w3.org/2000/svg" viewBox="0 0 41.25 53.75" height="53.75" width="41.25"><path d="M32.178 9.17L40.982.464l-.113.058H10.59L.664 9.234h31.514V9.17" fill="#087bbb"/><path d="M32.178 9.17L40.982.464l-.113.058H10.59L.664 9.234h31.514V9.17z" fill="none" stroke="#fff" stroke-width=".5"/><path d="M.664 53.365h31.514V9.234H.664v44.131z" fill="#087bbb"/><path d="M.664 53.365h31.514V9.234H.664v44.131zM32.178 29.839H.664M4.614 40.225h9.781M4.614 42.329h9.781M4.614 44.434h9.781M4.614 46.538h9.781M4.614 48.643h9.781" fill="none" stroke="#fff" stroke-width=".5"/><path d="M40.917 43.96V.547l-8.74 8.638v44.179l8.74-9.404" fill="#087bbb"/><path d="M40.917 43.96V.547l-8.74 8.638v44.179l8.74-9.404zM32.178 30.284H.664" fill="none" stroke="#fff" stroke-width=".5"/></svg>