<svg xmlns="http://www.w3.org/2000/svg" viewBox="0 0 47.5 35" height="35" width="47.5"><path d="M.894 33.219H38.56V7.033H.894v26.186z" fill="#087bbb"/><path d="M.894 33.218H38.56V7.032H.894v26.186z" fill="none" stroke="#fff" stroke-width=".5"/><path d="M38.56 7.033l7.183-5.918H10.61L.894 7.033H38.56" fill="#087bbb"/><path d="M38.56 7.032l7.183-5.917H10.61L.894 7.032H38.56z" fill="none" stroke="#fff" stroke-width=".5"/><path d="M45.743 27.306V1.116L38.56 7.032v26.186l7.183-5.913" fill="#087bbb"/><path d="M45.743 27.306V1.115L38.56 7.032v26.186l7.183-5.912z" fill="none" stroke="#fff" stroke-width=".5"/><path d="M3.335 22.652h11.25l5.625-11.25 7.813 15.938 2.812-4.688h5.625" fill="none" stroke="#fff" stroke-width="1.25" stroke-linecap="round" stroke-linejoin="round"/><path d="M6.89 31.915a1.193 1.193 0 1 0-.005-2.387 1.193 1.193 0 0 0 .005 2.387" fill="#fff"/><path d="M6.89 31.915a1.193 1.193 0 1 0-.005-2.387 1.193 1.193 0 0 0 .005 2.387z" fill="none" stroke="#000" stroke-width=".4625"/><path d="M5.864 29.45l2.335 2.275 6.586-6.744-2.329-2.275-6.592 6.744" fill="#fff"/><path d="M5.864 29.45l2.335 2.275 6.586-6.743-2.329-2.276-6.592 6.744z" fill="none" stroke="#000" stroke-width=".4625"/><path d="M11.524 17.74c0 4.927 4.009 8.941 8.94 8.941 4.926 0 8.94-4.014 8.94-8.94 0-4.932-4.014-8.941-8.94-8.941-4.931 0-8.94 4.009-8.94 8.94zm1.25 0c0-4.242 3.447-7.69 7.69-7.69 4.239 0 7.69 3.447 7.69 7.69 0 4.239-3.451 7.691-7.69 7.691-4.243 0-7.69-3.453-7.69-7.69" fill="#fff"/><path d="M11.524 17.74c0 4.927 4.009 8.94 8.94 8.94 4.926 0 8.94-4.013 8.94-8.94 0-4.931-4.014-8.94-8.94-8.94-4.931 0-8.94 4.009-8.94 8.94zm1.25 0c0-4.243 3.447-7.69 7.69-7.69 4.239 0 7.69 3.447 7.69 7.69 0 4.239-3.451 7.69-7.69 7.69-4.243 0-7.69-3.452-7.69-7.69z" fill="none" stroke="#000" stroke-width=".4625"/><path d="M10.474 18.254c0 4.931 4.013 8.94 8.94 8.94s8.941-4.009 8.941-8.94c0-4.928-4.014-8.942-8.941-8.942-4.927 0-8.94 4.014-8.94 8.942zm1.25 0c0-4.239 3.452-7.692 7.69-7.692s7.691 3.453 7.691 7.692c0 4.242-3.453 7.69-7.691 7.69-4.238 0-7.69-3.448-7.69-7.69" fill="#fff"/><path d="M10.474 18.253c0 4.932 4.013 8.94 8.94 8.94s8.941-4.008 8.941-8.94c0-4.927-4.014-8.941-8.941-8.941-4.927 0-8.94 4.014-8.94 8.941zm1.25 0c0-4.238 3.452-7.691 7.69-7.691s7.691 3.453 7.691 7.691c0 4.243-3.453 7.69-7.691 7.69-4.238 0-7.69-3.447-7.69-7.69z" fill="none" stroke="#000" stroke-width=".4625"/></svg>