<svg xmlns="http://www.w3.org/2000/svg" viewBox="0 0 22.5 5" height="5" width="22.5"><g fill="#02709f"><path d="M1.275 3.751A1.266 1.266 0 0 1 0 2.478c0-.704.561-1.28 1.275-1.28a1.276 1.276 0 1 1 0 2.554M7.661 3.751c-.703 0-1.27-.561-1.27-1.273 0-.704.558-1.28 1.27-1.28.708 0 1.279.576 1.279 1.28 0 .707-.571 1.273-1.279 1.273M14.053 3.751a1.266 1.266 0 0 1-1.274-1.273c0-.704.56-1.28 1.274-1.28a1.276 1.276 0 1 1 0 2.554M20.801 3.751c-.703 0-1.27-.561-1.27-1.273 0-.704.556-1.28 1.27-1.28.708 0 1.28.576 1.28 1.28 0 .707-.572 1.273-1.28 1.273"/></g></svg>