<svg xmlns="http://www.w3.org/2000/svg" viewBox="0 0 30 42.5" height="42.5" width="30"><path d="M13.047 12.123L6.562 2.114 8.296.378l6.694 10.01-1.943 1.736" fill="#087fbf"/><path d="M13.047 12.123L6.562 2.114 8.296.378l6.694 10.01-1.943 1.736z" fill="none" stroke="#fff" stroke-width=".5"/><path d="M6.563 42.154l6.484-10.01v-20.02L6.562 2.114v40.04" fill="#087fbf"/><path d="M6.563 42.154l6.484-10.01v-20.02L6.562 2.114v40.04zM13.047 32.144v-20.02M13.047 32.144v-20.02" fill="none" stroke="#fff" stroke-width=".5"/><path d="M23.007 32.114V12.095l1.73-1.738v20.02l-1.73 1.737" fill="#087fbf"/><path d="M23.007 32.114V12.095l1.73-1.738v20.02l-1.73 1.737z" fill="none" stroke="#fff" stroke-width=".5"/><path d="M23.007 12.095h-9.94l1.943-1.739h9.726l-1.729 1.74" fill="#087fbf"/><path d="M23.007 12.095h-9.94l1.943-1.739h9.726l-1.729 1.74z" fill="none" stroke="#fff" stroke-width=".5"/><path d="M13.066 32.115h9.941v-20.02h-9.94v20.02z" fill="#087fbf"/><path d="M13.066 32.115h9.941v-20.02h-9.94v20.02z" fill="none" stroke="#fff" stroke-width=".5"/><path d="M13.066 32.114h9.941" fill="none" stroke="#fff" stroke-width=".425" stroke-linecap="round" stroke-linejoin="round" stroke-miterlimit="1"/><path d="M23.007 32.114V12.095M23.007 12.095h-9.94" fill="none" stroke="#fff" stroke-width=".5"/><path d="M13.066 32.114h9.941" fill="none" stroke="#fff" stroke-width=".425" stroke-linecap="round" stroke-linejoin="round" stroke-miterlimit="1"/><path d="M23.007 32.114V12.095M23.007 12.095h-9.94" fill="none" stroke="#fff" stroke-width=".5"/><path d="M12.989 20.904L6.729 10.38M12.989 20.904l-6.26-3.985M12.989 21.275l-6.26 10.522M12.989 21.275l-6.26 3.984M12.989 20.904h-6.26" fill="none" stroke="#fff" stroke-width=".425" stroke-linecap="round" stroke-linejoin="round"/><path d="M6.567 10.459H.312M6.567 16.997H.312M6.567 21.122H.312M6.567 25.102H.312M6.567 31.788H.312" fill="none" stroke="#087fbf" stroke-width=".625" stroke-linecap="round" stroke-linejoin="round"/><path d="M30.332 21.342H23.79" fill="none" stroke="#087fbf" stroke-width="2.125" stroke-linejoin="round"/></svg>