<svg xmlns="http://www.w3.org/2000/svg" viewBox="0 0 35 50" height="50" width="35"><path d="M4.882 15.507L.605 19.77v29.82h29.942l4.277-4.257V15.507H4.882" fill="#087fbf"/><path d="M4.882 15.507L.605 19.77v29.82h29.942l4.277-4.257V15.507H4.882z" fill="none" stroke="#fff" stroke-width=".5"/><path d="M.605 19.77h29.942l4.277-4.263H4.882L.605 19.77" fill="#087fbf"/><path d="M.605 19.77h29.942l4.277-4.263H4.882L.605 19.77z" fill="none" stroke="#fff" stroke-width=".5"/><path d="M30.547 19.77l4.277-4.263v29.826l-4.277 4.257V19.77" fill="#087fbf"/><path d="M30.547 19.77l4.277-4.263v29.826l-4.277 4.257V19.77z" fill="none" stroke="#fff" stroke-width=".5"/><path d="M4.882 15.507L.605 19.77v29.82h29.942l4.277-4.257V15.507H4.882" fill="#087fbf"/><path d="M4.882 15.507L.605 19.77v29.82h29.942l4.277-4.257V15.507H4.882z" fill="none" stroke="#fff" stroke-width=".5"/><path d="M.605 19.77h29.942l4.277-4.263" fill="#087fbf"/><path d="M.605 19.77h29.942l4.277-4.263M30.547 19.77v29.82" fill="none" stroke="#fff" stroke-width=".5"/><path d="M4.882.6L.605 4.864V19.77h29.942l4.277-4.263V.6H4.882" fill="#087fbf"/><path d="M4.882.6L.605 4.864V19.77h29.942l4.277-4.263V.6H4.882z" fill="none" stroke="#fff" stroke-width=".5"/><path d="M30.547 4.864L34.824.6v14.907l-4.277 4.263V4.864" fill="#087fbf"/><path d="M30.547 4.864L34.824.6v14.907l-4.277 4.263V4.864z" fill="none" stroke="#fff" stroke-width=".5"/><path d="M4.882.6L.605 4.864V19.77h29.942l4.277-4.263V.6H4.882" fill="#087fbf"/><path d="M4.882.6L.605 4.864V19.77h29.942l4.277-4.263V.6H4.882z" fill="none" stroke="#fff" stroke-width=".5"/><path d="M30.547 19.77V4.864H.605" fill="#087fbf"/><path d="M30.547 19.77V4.864H.605" fill="none" stroke="#fff" stroke-width=".5"/><path d="M2.744 11.25h8.555V6.993H2.744v4.257zM4.882 45.333H26.27v-21.3H4.882v21.3z" fill="#fff"/><path d="M4.882 45.333H26.27v-21.3H4.882v21.3z" fill="none" stroke="#fff" stroke-width=".5" stroke-miterlimit="1"/><path d="M19.854 11.25h8.555V6.993h-8.555v4.257zM2.744 17.641h8.555V13.38H2.744v4.262zM19.854 17.641h8.555V13.38h-8.555v4.262z" fill="#fff"/><path d="M11.299 9.121h8.555M11.299 15.507h8.555" fill="none" stroke="#fff" stroke-width=".5" stroke-miterlimit="1"/><path d="M11.299 13.384l8.555-2.134" fill="#231f20"/><path d="M11.299 13.384l8.555-2.134" fill="none" stroke="#fff" stroke-width=".5" stroke-miterlimit="1"/><path d="M11.299 11.25l8.555 2.134" fill="#231f20"/><path d="M11.299 11.25l8.555 2.134" fill="none" stroke="#fff" stroke-width=".5" stroke-miterlimit="1"/><path d="M15.576 28.291c3.477 0 6.417 2.662 6.417 6.387 0 3.462-2.94 6.39-6.417 6.39-3.745 0-6.416-2.928-6.416-6.39 0-3.725 2.671-6.387 6.416-6.387" fill="#087fbf"/><path d="M15.576 28.291c3.477 0 6.417 2.662 6.417 6.387 0 3.462-2.94 6.39-6.417 6.39-3.745 0-6.416-2.928-6.416-6.39 0-3.725 2.671-6.387 6.416-6.387" fill="none" stroke="#fff" stroke-width=".5"/><path d="M15.576 32.549c1.069 0 2.139.801 2.139 2.129 0 1.07-1.07 2.133-2.139 2.133-1.337 0-2.139-1.064-2.139-2.133 0-1.328.802-2.13 2.14-2.13" fill="#fff"/><path d="M15.576 32.549c1.069 0 2.139.801 2.139 2.129 0 1.07-1.07 2.133-2.139 2.133-1.337 0-2.139-1.064-2.139-2.133 0-1.328.802-2.13 2.14-2.13" fill="none" stroke="#fff" stroke-width=".5" stroke-miterlimit="1"/></svg>