<svg xmlns="http://www.w3.org/2000/svg" viewBox="0 0 46.25 51.25" height="51.25" width="46.25"><path d="M36.158 49.256l-.044-40.55L.933 8.68.909 49.266l35.249-.01" fill="#2c6aa2"/><path d="M36.158 49.257l-.044-40.552L.933 8.68.909 49.267l35.249-.01z" fill="none" stroke="#fff" stroke-width=".629625"/><path d="M36.114 8.705L.933 8.68 11.489.624h33.243V40.94l-8.574 8.315-.044-40.55" fill="#2c6aa2"/><path d="M36.114 8.705L.933 8.68 11.489.624h33.243V40.94l-8.574 8.316-.044-40.552z" fill="none" stroke="#fff" stroke-width=".629625"/><path d="M36.114 8.705L44.81.511" fill="#2c6aa2"/><path d="M36.114 8.705L44.81.512" fill="none" stroke="#fff" stroke-width=".629625"/><path d="M3.394 41.333h6.02V31.38h-6.02v9.952z" fill="#2c6aa2"/><path d="M9.414 31.38h-6.02v9.952h6.02" fill="none" stroke="#fff" stroke-width=".465125" stroke-linecap="round" stroke-linejoin="round"/><path d="M9.414 41.333l3.33-1.847V29.54H6.719l-3.325 1.841h6.02v9.952" fill="#2c6aa2"/><path d="M9.414 41.332l3.33-1.846V29.54H6.719l-3.325 1.84h6.02v9.952z" fill="none" stroke="#fff" stroke-width=".465125" stroke-linecap="round" stroke-linejoin="round"/><path d="M9.414 31.381l3.33-1.841" fill="#2c6aa2"/><path d="M9.414 31.38l3.33-1.84" fill="none" stroke="#fff" stroke-width=".465125" stroke-linecap="round" stroke-linejoin="round"/><path d="M9.414 41.331h12.28V19.056H9.414v22.275z" fill="#2c6aa2"/><path d="M21.694 19.057H9.414v22.275h12.28" fill="none" stroke="#fff" stroke-width=".465125" stroke-linecap="round" stroke-linejoin="round"/><path d="M21.694 41.333l5-2.764V16.293H14.409l-4.995 2.763h12.28v22.277" fill="#2c6aa2"/><path d="M21.694 41.332l5-2.764V16.294H14.409l-4.995 2.763h12.28v22.275z" fill="none" stroke="#fff" stroke-width=".465125" stroke-linecap="round" stroke-linejoin="round"/><path d="M21.694 19.056l5-2.763" fill="#2c6aa2"/><path d="M21.694 19.057l5-2.763" fill="none" stroke="#fff" stroke-width=".465125" stroke-linecap="round" stroke-linejoin="round"/><path d="M21.801 41.333h6.655v-18.77h-6.655v18.77z" fill="#2c6aa2"/><path d="M28.457 22.562h-6.656v18.77h6.657" fill="none" stroke="#fff" stroke-width=".465125" stroke-linecap="round" stroke-linejoin="round"/><path d="M28.457 41.333l4.888-2.702V19.862H26.69l-4.889 2.7h6.657v18.77" fill="#2c6aa2"/><path d="M28.457 41.332l4.888-2.7v-18.77H26.69l-4.889 2.7h6.657v18.77z" fill="none" stroke="#fff" stroke-width=".465125" stroke-linecap="round" stroke-linejoin="round"/><path d="M28.457 22.563l4.888-2.7" fill="#2c6aa2"/><path d="M28.457 22.562l4.888-2.7" fill="none" stroke="#fff" stroke-width=".465125" stroke-linecap="round" stroke-linejoin="round"/><path d="M15.81 28.203v1.04h1.88" fill="#2c6aa2"/><path d="M15.81 28.202v1.04h1.88" fill="none" stroke="#fff" stroke-width=".465125" stroke-linecap="round" stroke-linejoin="round"/><path d="M18.433 28.203v1.04h1.875" fill="#2c6aa2"/><path d="M18.433 28.202v1.04h1.875" fill="none" stroke="#fff" stroke-width=".465125" stroke-linecap="round" stroke-linejoin="round"/><path d="M10.547 28.226v1.04h1.88" fill="#2c6aa2"/><path d="M10.547 28.226v1.041h1.88" fill="none" stroke="#fff" stroke-width=".465125" stroke-linecap="round" stroke-linejoin="round"/><path d="M13.169 28.226v1.04h1.875" fill="#2c6aa2"/><path d="M13.169 28.226v1.041h1.875" fill="none" stroke="#fff" stroke-width=".465125" stroke-linecap="round" stroke-linejoin="round"/><path d="M15.791 30.365V31.4h1.88" fill="#2c6aa2"/><path d="M15.791 30.365V31.4h1.88" fill="none" stroke="#fff" stroke-width=".465125" stroke-linecap="round" stroke-linejoin="round"/><path d="M18.409 30.365V31.4h1.875" fill="#2c6aa2"/><path d="M18.409 30.365V31.4h1.875" fill="none" stroke="#fff" stroke-width=".465125" stroke-linecap="round" stroke-linejoin="round"/><path d="M10.527 30.39v1.04h1.875" fill="#2c6aa2"/><path d="M10.527 30.39v1.04h1.875" fill="none" stroke="#fff" stroke-width=".465125" stroke-linecap="round" stroke-linejoin="round"/><path d="M13.14 30.39v1.04h1.885" fill="#2c6aa2"/><path d="M13.14 30.39v1.04h1.885" fill="none" stroke="#fff" stroke-width=".465125" stroke-linecap="round" stroke-linejoin="round"/><path d="M15.791 32.435v1.04h1.88" fill="#2c6aa2"/><path d="M15.791 32.436v1.04h1.88" fill="none" stroke="#fff" stroke-width=".465125" stroke-linecap="round" stroke-linejoin="round"/><path d="M18.409 32.435v1.04h1.875" fill="#2c6aa2"/><path d="M18.409 32.436v1.04h1.875" fill="none" stroke="#fff" stroke-width=".465125" stroke-linecap="round" stroke-linejoin="round"/><path d="M10.527 32.465v1.04h1.875" fill="#2c6aa2"/><path d="M10.527 32.464v1.04h1.875" fill="none" stroke="#fff" stroke-width=".465125" stroke-linecap="round" stroke-linejoin="round"/><path d="M13.14 32.465v1.04h1.885" fill="#2c6aa2"/><path d="M13.14 32.464v1.04h1.885" fill="none" stroke="#fff" stroke-width=".465125" stroke-linecap="round" stroke-linejoin="round"/><path d="M15.791 34.353v1.042h1.88" fill="#2c6aa2"/><path d="M15.791 34.355v1.04h1.88" fill="none" stroke="#fff" stroke-width=".465125" stroke-linecap="round" stroke-linejoin="round"/><path d="M18.409 34.353v1.042h1.875" fill="#2c6aa2"/><path d="M18.409 34.355v1.04h1.875" fill="none" stroke="#fff" stroke-width=".465125" stroke-linecap="round" stroke-linejoin="round"/><path d="M10.527 34.379v1.04h1.875" fill="#2c6aa2"/><path d="M10.527 34.378v1.04h1.875" fill="none" stroke="#fff" stroke-width=".465125" stroke-linecap="round" stroke-linejoin="round"/><path d="M13.14 34.379v1.04h1.885" fill="#2c6aa2"/><path d="M13.14 34.378v1.04h1.885" fill="none" stroke="#fff" stroke-width=".465125" stroke-linecap="round" stroke-linejoin="round"/><path d="M23.043 23.436v1.046h1.875" fill="#2c6aa2"/><path d="M23.043 23.436v1.045h1.875" fill="none" stroke="#fff" stroke-width=".465125" stroke-linecap="round" stroke-linejoin="round"/><path d="M25.659 23.436v1.046h1.88" fill="#2c6aa2"/><path d="M25.659 23.436v1.045h1.88" fill="none" stroke="#fff" stroke-width=".465125" stroke-linecap="round" stroke-linejoin="round"/><path d="M23.013 25.395v1.04h1.875" fill="#2c6aa2"/><path d="M23.013 25.395v1.04h1.875" fill="none" stroke="#fff" stroke-width=".465125" stroke-linecap="round" stroke-linejoin="round"/><path d="M25.63 25.395v1.04h1.875" fill="#2c6aa2"/><path d="M25.63 25.395v1.04h1.875" fill="none" stroke="#fff" stroke-width=".465125" stroke-linecap="round" stroke-linejoin="round"/><path d="M23.013 27.152v1.04h1.875" fill="#2c6aa2"/><path d="M23.013 27.152v1.04h1.875" fill="none" stroke="#fff" stroke-width=".465125" stroke-linecap="round" stroke-linejoin="round"/><path d="M25.63 27.152v1.04h1.875" fill="#2c6aa2"/><path d="M25.63 27.152v1.04h1.875" fill="none" stroke="#fff" stroke-width=".465125" stroke-linecap="round" stroke-linejoin="round"/><path d="M4.263 32.225v1.04h1.875" fill="#2c6aa2"/><path d="M4.263 32.226v1.04h1.875" fill="none" stroke="#fff" stroke-width=".465125" stroke-linecap="round" stroke-linejoin="round"/><path d="M6.88 32.225v1.04h1.88" fill="#2c6aa2"/><path d="M6.88 32.226v1.04h1.88" fill="none" stroke="#fff" stroke-width=".465125" stroke-linecap="round" stroke-linejoin="round"/><path d="M4.404 34.179v1.045h1.88" fill="#2c6aa2"/><path d="M4.404 34.178v1.045h1.88" fill="none" stroke="#fff" stroke-width=".465125" stroke-linecap="round" stroke-linejoin="round"/><path d="M7.021 34.179v1.045h1.88" fill="#2c6aa2"/><path d="M7.021 34.178v1.045h1.88" fill="none" stroke="#fff" stroke-width=".465125" stroke-linecap="round" stroke-linejoin="round"/><path d="M4.404 35.941v1.035h1.88" fill="#2c6aa2"/><path d="M4.404 35.94v1.036h1.88" fill="none" stroke="#fff" stroke-width=".465125" stroke-linecap="round" stroke-linejoin="round"/><path d="M7.021 35.941v1.035h1.88" fill="#2c6aa2"/><path d="M7.021 35.94v1.036h1.88" fill="none" stroke="#fff" stroke-width=".465125" stroke-linecap="round" stroke-linejoin="round"/><path d="M15.864 20.165v1.04h1.88" fill="#2c6aa2"/><path d="M15.864 20.165v1.04h1.88" fill="none" stroke="#fff" stroke-width=".465125" stroke-linecap="round" stroke-linejoin="round"/><path d="M18.486 20.165v1.04h1.875" fill="#2c6aa2"/><path d="M18.486 20.165v1.04h1.875" fill="none" stroke="#fff" stroke-width=".465125" stroke-linecap="round" stroke-linejoin="round"/><path d="M10.6 20.194v1.04h1.875" fill="#2c6aa2"/><path d="M10.6 20.195v1.04h1.875" fill="none" stroke="#fff" stroke-width=".465125" stroke-linecap="round" stroke-linejoin="round"/><path d="M13.212 20.194v1.04h1.88" fill="#2c6aa2"/><path d="M13.212 20.195v1.04h1.88" fill="none" stroke="#fff" stroke-width=".465125" stroke-linecap="round" stroke-linejoin="round"/><path d="M15.84 22.328v1.045h1.88" fill="#2c6aa2"/><path d="M15.84 22.328v1.046h1.88" fill="none" stroke="#fff" stroke-width=".465125" stroke-linecap="round" stroke-linejoin="round"/><path d="M18.462 22.328v1.045h1.875" fill="#2c6aa2"/><path d="M18.462 22.328v1.046h1.875" fill="none" stroke="#fff" stroke-width=".465125" stroke-linecap="round" stroke-linejoin="round"/><path d="M10.576 22.357v1.04h1.88" fill="#2c6aa2"/><path d="M10.576 22.357v1.04h1.88" fill="none" stroke="#fff" stroke-width=".465125" stroke-linecap="round" stroke-linejoin="round"/><path d="M13.199 22.357v1.04h1.875" fill="#2c6aa2"/><path d="M13.199 22.357v1.04h1.875" fill="none" stroke="#fff" stroke-width=".465125" stroke-linecap="round" stroke-linejoin="round"/><path d="M15.84 24.399v1.045h1.88" fill="#2c6aa2"/><path d="M15.84 24.398v1.045h1.88" fill="none" stroke="#fff" stroke-width=".465125" stroke-linecap="round" stroke-linejoin="round"/><path d="M18.462 24.399v1.045h1.875" fill="#2c6aa2"/><path d="M18.462 24.398v1.045h1.875" fill="none" stroke="#fff" stroke-width=".465125" stroke-linecap="round" stroke-linejoin="round"/><path d="M10.576 24.428v1.04h1.88" fill="#2c6aa2"/><path d="M10.576 24.427v1.04h1.88" fill="none" stroke="#fff" stroke-width=".465125" stroke-linecap="round" stroke-linejoin="round"/><path d="M13.199 24.428v1.04h1.875" fill="#2c6aa2"/><path d="M13.199 24.427v1.04h1.875" fill="none" stroke="#fff" stroke-width=".465125" stroke-linecap="round" stroke-linejoin="round"/><path d="M15.84 26.317v1.04h1.88" fill="#2c6aa2"/><path d="M15.84 26.317v1.04h1.88" fill="none" stroke="#fff" stroke-width=".465125" stroke-linecap="round" stroke-linejoin="round"/><path d="M18.462 26.317v1.04h1.875" fill="#2c6aa2"/><path d="M18.462 26.317v1.04h1.875" fill="none" stroke="#fff" stroke-width=".465125" stroke-linecap="round" stroke-linejoin="round"/><path d="M10.576 26.341v1.045h1.88" fill="#2c6aa2"/><path d="M10.576 26.342v1.045h1.88" fill="none" stroke="#fff" stroke-width=".465125" stroke-linecap="round" stroke-linejoin="round"/><path d="M13.199 26.341v1.045h1.875" fill="#2c6aa2"/><path d="M13.199 26.342v1.045h1.875M22.984 28.998v1.04M22.984 30.039h1.88" fill="none" stroke="#fff" stroke-width=".465125" stroke-linecap="round" stroke-linejoin="round"/><path d="M25.6 28.997v1.04h1.88" fill="#2c6aa2"/><path d="M25.6 28.998v1.04h1.88M22.984 30.785v1.04M22.984 31.825h1.88" fill="none" stroke="#fff" stroke-width=".465125" stroke-linecap="round" stroke-linejoin="round"/><path d="M25.6 30.785v1.04h1.88" fill="#2c6aa2"/><path d="M25.6 30.785v1.04h1.88" fill="none" stroke="#fff" stroke-width=".465125" stroke-linecap="round" stroke-linejoin="round"/><path d="M20.015 18.339v-.513l.01-.35.029-.333.049-.318.063-.298.078-.278.093-.264.107-.249.112-.23.128-.218.141-.202.141-.19.153-.176.156-.16.156-.152.165-.132.161-.127.162-.111.166-.103.156-.094.157-.082.15-.074.147-.062.138-.059.126-.049.22-.074.093-.025.078-.023.112-.025.04-.01h-3.624l-.034.01-.113.025-.077.023-.094.025-.107.034-.117.04-.127.049-.137.059-.14.062-.153.074-.157.082-.16.094-.16.103-.162.11-.166.128-.161.132-.162.152-.156.16-.146.177-.146.19-.138.2-.126.215-.118.234-.107.249-.093.264-.078.278-.063.298-.045.318-.034.151-.004.351v.845l3.618-.151" fill="#fff" fill-rule="evenodd"/><path d="M20.259 17.826h-.489v.513h.489v-.543l-.005-.024-.029-.073-.015-.019-.01-.015-.019-.02-.02-.014-.014-.01-.024-.01-.02-.01-.02-.005-.024-.005-.02-.005h-.049l-.019.005-.025.005-.02.005-.018.01-.026.01-.013.01-.02.014-.015.02-.015.015-.014.019-.03.073v.024l-.005.03h.489" fill="#181817"/><path d="M23.502 13.598l-.04-.475-.053.01-.118.03-.084.02-.097.028-.113.035-.12.044-.133.054-.22.087-.078.035-.156.078-.249.132-.166.107-.087.053-.084.059-.088.059-.087.064-.089.068-.165.146-.089.078-.083.079-.083.082-.083.089-.156.185-.078.097-.073.103-.079.102-.136.225-.069.118-.062.121-.118.254-.054.132-.053.137-.044.142-.044.146-.04.152-.034.151-.033.156-.03.166-.019.167-.01.087-.01.083-.01.176-.005.093-.005.087-.005.094v.092h.489v-.254l.01-.166.01-.078.005-.083.008-.074.01-.077.01-.074.016-.078.01-.073.028-.146.034-.137.035-.132.039-.132.044-.127.043-.123.049-.12.049-.113.053-.113.06-.107.117-.205.064-.098.067-.092.064-.09.074-.087.067-.087.069-.079.224-.223.073-.07.156-.127.074-.062.079-.054.077-.059.08-.054.077-.048.073-.044.078-.045.074-.044.077-.044.215-.107.137-.059.132-.053.118-.05.112-.033.102-.034.088-.025.073-.02.102-.024.03-.004-.044-.48.044.48.024-.01.03-.006.023-.01.06-.043.03-.039.01-.02.003-.019.01-.02.005-.023v-.09l-.005-.023-.01-.02-.004-.019-.01-.02-.03-.039-.029-.03-.02-.013-.018-.01-.025-.01-.02-.01-.024-.005h-.059l-.024.005.04.474" fill="#181817"/><path d="M19.839 13.123l.039.475h3.624v-.48h-3.624l-.04.006.04-.005h-.024l-.03.005-.024.005-.025.01-.019.015-.025.009-.015.015-.013.02-.02.013-.03.059-.004.02-.01.049v.043l.004.026.006.018.005.025.018.04.01.014.02.019.014.02.015.01.025.015.019.009.025.01.024.004.03.006h.024l-.04-.474" fill="#181817"/><path d="M16.636 17.645v-.17l.009-.166.005.097.005-.078.01-.083.01-.079.01-.072.009-.079.01-.073.043-.22.016-.068.014-.063.034-.142.04-.132.088-.245.054-.12.048-.118.054-.108.059-.112.058-.098.058-.102.064-.098.063-.092.205-.264.146-.156.147-.146.079-.07.077-.063.074-.064.078-.062.078-.06.074-.053.082-.054.074-.048.078-.044.074-.049.072-.04.079-.044.072-.033.074-.039.074-.035.062-.029.069-.03.132-.053.122-.05.112-.033.098-.034.087-.024.074-.02.108-.024.024-.005-.083-.474-.049.01-.118.029-.087.02-.098.028-.107.035-.127.044-.132.049-.141.059-.079.033-.073.035-.083.039-.077.039-.08.043-.166.09-.082.052-.087.05-.09.057-.082.059-.087.059-.084.064-.088.068-.083.068-.175.156-.084.079-.078.082-.083.089-.083.092-.077.093-.074.097-.079.103-.072.102-.074.113-.067.113-.064.117-.128.244-.058.131-.05.133-.053.136-.049.142-.038.146-.044.147-.015.077-.02.079-.014.078-.015.083-.015.078-.014.083-.02.167-.01.087-.01.083-.008.089-.005.087-.005-.087-.006.087v.215l.006.029.005.025.01.024.013.02.01.023.03.03.04.029.038.02.024.005.02.005h.092l.02-.005.025-.005.039-.02.019-.014.015-.015.02-.015.013-.015.01-.023.015-.02.01-.024.005-.025.005-.03v-.029" fill="#181817"/><path d="M16.416 18.728l.22-.238v-.845h-.484v.845l.264.238-.264-.238v.034l.01.048.01.026.014.02.01.023.03.03.04.03.038.02.024.004.02.003.024.006h.044l.024-.006.02-.003.025-.005.039-.02.019-.015.015-.014.02-.015.013-.015.01-.023.015-.02.01-.026.01-.048v-.034l-.22.238" fill="#181817"/><path d="M20.259 18.339l-.264-.239-3.623.156.044.473 3.618-.151.225-.24-.225.24.058-.01.05-.02.04-.028.013-.015.015-.02.01-.015.015-.024.004-.015.01-.023.005-.02v-.024l.005-.02-.005-.025v-.024l-.006-.02-.01-.019-.008-.025-.02-.039-.015-.014-.014-.02-.02-.015-.059-.03-.028-.01-.025-.003h-.054l.264.239" fill="#181817"/><path d="M19.77 18.339h.489v-.513h-.489v.513zM19.878 13.598H23.5v-.48h-3.622v.48zM16.152 18.49h.484v-.845h-.484v.845z" fill="#100f0d"/><path d="M19.678 13.359h4.292l.464.062.43.113.404.156.372.195.351.23.318.269.297.297.269.323.248.351.226.371.205.386.185.406.166.415.146.424.128.426.117.433.103.43.082.425.074-.366.059.405.053.391.039.38.029.353.025.331.019-1.381.01.273.01.24.005.204v.288l-.005.099h3.755l-5.9 5.863-5.902-5.863h3.754v-.602l-.004-.244-.015-.278-.02 1.377-.023-.332-.03-.361-.039-.382-.054-.395-.058.371-.073-.42-.084-.43-.102-.434-.118-.434-.126-.43-.146-.43-.167-.415-.186-.405-.205-.386-.224-.37-.25-.348-.267-.322-.299-.293-.317-.259-.347-.225-.376-.185-.4-.146-.435-.097-.463-.054" fill="#fff" fill-rule="evenodd"/><path d="M23.989 13.119h-4.311v.479h4.292l.019-.48-.019.48H24l.03-.006.024-.005.048-.018.015-.015.02-.01.019-.02.015-.02.01-.014.01-.02.004-.019.01-.025.005-.018v-.026l.005-.023-.005-.02v-.025l-.005-.024-.01-.02-.004-.018-.02-.04-.034-.034-.02-.015-.015-.01-.023-.014-.025-.01-.024-.005-.03-.005h-.029.019" fill="#181817"/><path d="M28.799 20.047l.239.244.004-.102v-.288l-.004-.21-.004-.244-.016-.278-.014 1.382-.01-.166-.019-.171-.015-.176-.015-.18-.039-.382-.025-.195-.029-.205-.028-.2-.03-.21-.04.571-.033-.21-.045-.215-.044-.22-.053-.214-.05-.22-.053-.219-.126-.44-.069-.215-.034-.113-.156-.428-.044-.108-.04-.108-.048-.102-.044-.108-.049-.102-.044-.103-.048-.102-.054-.102-.049-.103-.053-.097-.06-.105-.053-.092-.117-.195-.19-.278-.064-.088-.069-.093-.068-.083-.068-.088-.22-.248-.156-.157-.083-.074-.079-.072-.087-.074-.083-.068-.089-.068-.175-.128-.097-.063-.094-.058-.195-.107-.205-.099-.102-.044-.108-.044-.215-.077-.117-.03-.112-.034-.117-.03-.118-.024-.117-.02-.121-.018-.123-.015-.127-.015-.039.479.112.01.113.014.102.014.113.025.103.02.097.024.205.059.279.102.097.039.175.088.089.048.083.05.082.054.084.049.156.116.082.059.074.059.073.063.078.069.074.063.068.073.068.07.07.071.067.079.191.234.062.084.06.077.053.088.064.083.107.176.161.278.098.187.044.097.054.097.043.093.044.097.045.103.039.102.039.098.038.103.045.102.034.103.039.102.068.206.064.214.063.205.058.215.054.21.098.42.044.215.044.205.034.21.034-.576.058.401.03.195.02.19.024.186.02.185.03.351.014.167.009.156.02-1.381.01.267.01.24v.576l.239.25-.239-.25v.06l.009.023.005.025.01.019.015.025.015.015.013.018.02.015.016.01.023.01.04.02.02.004.024.005h.067l.02-.005.024-.01.02-.005.02-.009.024-.01.015-.014.015-.02.019-.014.01-.02.014-.02.01-.024.006-.025.004-.029v-.03l-.24-.244" fill="#181817"/><path d="M29.067 20.526v-.479H28.8v.48h.297l.025-.005.029-.006.025-.01.019-.008.04-.03.013-.015.016-.02.01-.02.015-.018.005-.02.008-.02.005-.024v-.02l.005-.023-.005-.02v-.025l-.005-.024-.008-.02-.005-.019-.015-.02-.01-.02-.016-.019-.013-.014-.04-.03-.02-.01-.024-.01-.029-.004-.025-.006h-.029v.48" fill="#181817"/><path d="M32.725 20.457l-.171-.41h-3.487v.48h3.487l.171-.07-.171.07h.028l.03-.006.02-.005.03-.01.02-.009.023-.015.01-.015.02-.014.014-.02.01-.02.015-.018.01-.02.004-.02v-.024l.005-.02v-.043l-.005-.025v-.024l-.004-.02-.01-.019-.015-.02-.01-.02-.014-.019-.02-.014-.01-.016-.024-.013-.02-.01-.03-.01-.019-.005-.03-.006h-.028l.171.41" fill="#181817"/><path d="M26.48 26.322h.346l5.9-5.864-.344-.342-5.902 5.864v.342-.342l-.02.02-.029.049-.01.023-.005.02-.005.026-.005.018v.025l.005.024.005.02.005.024.01.015.009.025.015.019.01.015.015.02.038.028.02.01.015.01.025.01.038.01.029.004h.02l.025-.005.019-.005.025-.004.023-.01.02-.014.024-.016.025-.019h-.346" fill="#181817"/><path d="M20.753 20.047l-.172.406 5.899 5.87.346-.343-5.904-5.864-.17-.069.17.07-.018-.016-.025-.019-.02-.015-.024-.01-.025-.004-.019-.006-.025-.005h-.023l-.02.005-.024.006-.02.005-.025.01-.039.018-.015.015-.019.015-.015.019-.015.015-.038.078-.006.024v.07l.006.023.01.02.01.025.01.019.018.025.02.019.172-.406" fill="#181817"/><path d="M24.746 20.291l-.24-.244h-3.754v.48h3.754l.24-.236-.24.235h.03l.029-.005.025-.005.024-.01.02-.009.025-.015.013-.015.02-.014.015-.02.03-.058.004-.02.005-.024v-.02l.005-.023-.005-.02v-.025l-.005-.024-.005-.02-.029-.059-.015-.019-.02-.014-.013-.016-.025-.013-.02-.01-.024-.01-.025-.005-.029-.006h-.03l.24.244" fill="#181817"/><path d="M19.678 13.119l-.01.479.112.01.108.01.214.028.206.039.097.03.097.024.098.03.094.034.097.033.093.04.176.078.083.049.087.043.084.054.082.049.08.054.233.176.22.19.136.137.138.147.19.233.058.084.064.083.116.166.054.087.059.09.048.092.054.087.049.093.054.093.048.093.05.097.132.293.048.097.118.31.039.096.038.108.04.103.068.204.064.216.064.21.117.428.044.21.053.215.04.21.043.21.034.21.04-.576.024.205.034.205.024.196.02.195.024.19.02.186.015.18.014.177.015.166.01.16.018-1.381.01.279.01.238v.586l.48.014.004-.106v-.294l-.005-.21-.005-.248-.015 1.406-.014-.313-.01-.166-.015-.171-.02-.18-.008-.181-.025-.19-.02-.196-.024-.2-.025-.204-.029-.206-.034.572-.035-.21-.038-.216-.088-.44-.049-.22-.107-.438-.127-.44-.07-.22-.033-.111-.039-.108-.035-.108-.044-.107-.077-.215-.044-.107-.049-.108-.045-.108-.243-.512-.054-.097-.059-.098-.054-.097-.058-.099-.058-.093-.063-.097-.06-.093-.068-.087-.064-.094-.136-.175-.069-.084-.146-.165-.073-.078-.156-.156-.083-.074-.078-.073-.089-.069-.082-.068-.088-.068-.089-.063-.185-.118-.097-.059-.093-.053-.102-.05-.099-.048-.102-.049-.322-.117-.107-.034-.112-.034-.352-.074-.117-.014-.123-.02-.122-.01-.127-.01-.014.48.014-.48h-.03l-.028.005-.049.01-.02.016-.024.009-.02.014-.028.03-.016.02-.02.038-.004.02-.01.025-.004.019v.069l.005.023.005.02.008.025.01.014.01.025.016.015.013.019.015.015.02.015.024.008.02.01.029.005.025.01h.029l.01-.478" fill="#181817"/><path d="M15.947 43.671h-4.292l-.464-.064-.43-.112-.4-.156-.376-.195-.346-.23-.323-.269-.292-.297-.274-.323-.249-.351-.225-.371-.205-.387-.185-.405-.16-.415-.152-.425-.128-.423-.117-.435-.098-.43-.087-.425-.074-.415-.059-.405-.053-.39-.039-.382-.029 2.183-.025-.328-.015-.307-.014-.274-.005-.239-.005-.205v-.386H3.071l5.904-5.864 5.898 5.864h-3.754v.601l.008.244.01.279.02.307.024.337.03-2.178.039.381.054.395.058.41.073.42.089.43.097.435.118.434.126.43.151.43.162.415.186.405.205.386.223.372.25.346.268.322.299.293.322.258.342.225.376.186.405.147.43.098.463.053" fill="#fff" fill-rule="evenodd"/><path d="M15.947 43.67h-4.292l-.464-.063-.43-.112-.4-.157-.376-.194-.346-.23-.323-.268-.292-.299-.274-.321-.249-.353-.225-.37-.205-.386-.185-.405-.16-.415-.152-.425-.128-.425-.117-.435-.098-.43-.087-.424-.074-.415-.059-.406-.053-.39-.039-.381-.029 2.182-.025-.326-.015-.308-.014-.273-.005-.24-.005-.205v-.385H3.071l5.904-5.865 5.898 5.865h-3.754v.6l.008.244.01.278.02.308.024.337.03-2.177.039.38.054.396.058.41.073.42.089.429.097.435.118.435.126.428.151.43.162.416.186.404.205.387.223.371.25.346.268.323.299.294.322.258.342.224.376.187.405.146.43.097.463.054z" fill="none" stroke="#211c1d" stroke-width=".75"/><path d="M18.256 42.05c-.571 1.142-2.446 1.719-2.446 1.719-.835-.054-1.821-.782-1.821-.782l.83-.937" fill="#fff"/><path d="M18.256 42.05c-.571 1.142-2.446 1.719-2.446 1.719-.835-.055-1.821-.782-1.821-.782l.83-.937" fill="none" stroke="#211c1d" stroke-width=".75"/></svg>