<svg xmlns="http://www.w3.org/2000/svg" viewBox="0 0 40 53.75" height="53.75" width="40"><path d="M.81 51.899h33.53V18.397H.81V51.9z" fill="#087bbb"/><path d="M.81 51.898h33.53V18.397H.81v33.501z" fill="none" stroke="#fff" stroke-width=".5"/><path d="M38.579 47.704V14.203l-4.238 4.194V51.9l4.238-4.195" fill="#087bbb"/><path d="M38.579 47.705V14.204l-4.238 4.193v33.501l4.238-4.193z" fill="none" stroke="#fff" stroke-width=".5"/><path d="M6.939.623L.81 4.82h33.531L38.58.623H6.939" fill="#087bbb"/><path d="M6.939.623L.81 4.819h33.531L38.58.624H6.939z" fill="none" stroke="#fff" stroke-width=".5"/><path d="M.81 18.398h33.53V4.818H.81v13.58z" fill="#087bbb"/><path d="M.81 18.397h33.53V4.818H.81v13.579z" fill="none" stroke="#fff" stroke-width=".5"/><path d="M38.579 14.203V.623L34.34 4.82v13.578l4.238-4.194" fill="#087bbb"/><path d="M38.579 14.204V.624L34.34 4.818v13.579l4.238-4.193zM34.341 18.397H.811" fill="none" stroke="#fff" stroke-width=".5"/><path d="M34.341 18.398l4.238-4.195" fill="#087bbb"/><path d="M34.341 18.397l4.238-4.193" fill="none" stroke="#fff" stroke-width=".5"/><path d="M6.279 9.458h5.41V6.64h-5.41v2.818zM24.053 9.458h5.405V6.64h-5.405v2.818zM6.279 16.493h5.41V13.68h-5.41v2.813zM24.053 16.493h5.405V13.68h-5.405v2.813z" fill="#fff"/><path d="M9.951 8.05h16.611M9.951 15.087h16.611" fill="none" stroke="#fff" stroke-width=".5"/><path d="M8.985 15.086l17.578-7.035"/><path d="M8.985 15.087L26.563 8.05" fill="none" stroke="#fff" stroke-width=".5"/><path d="M8.985 8.051l17.578 7.035"/><path d="M8.985 8.05l17.578 7.037" fill="none" stroke="#fff" stroke-width=".5"/><path d="M19.293 27.578h2.318v.395l.874-.582-.874-.581v.396h-2.319v.372M18.955 26.395l1.641-1.64.277.279.211-1.032-1.03.21.278.28-1.64 1.64.263.263M17.881 25.795v-2.32h.395l-.581-.874-.581.874h.39v2.32h.377M16.699 26.131l-1.64-1.64.278-.279-1.03-.21.21 1.032.278-.28 1.64 1.641.264-.264M16.099 27.206h-2.32v-.396l-.874.581.874.582v-.395h2.32v-.372M18.691 28.651l1.642 1.642-.28.277 1.031.21-.21-1.03-.278.279-1.64-1.641-.265.263" fill="#fff"/><path d="M15.752 28.813a2.401 2.401 0 0 0 3.93-2.759 2.398 2.398 0 0 0-3.34-.587 2.4 2.4 0 0 0-.59 3.346" fill="#fff"/><path d="M16.435 28.602l-1.64 1.64-.279-.277-.21 1.03 1.031-.21-.278-.279 1.64-1.64-.264-.264" fill="#fff"/><path d="M17.666 28.763v15.27" fill="none" stroke="#fff" stroke-width="1"/><path d="M16.64 45.038h-1.62v-.273l-.616.405.616.405v-.274h1.62v-.263M16.875 45.868l-1.147 1.147-.195-.195-.143.718.719-.142-.196-.195 1.147-1.147-.185-.186M17.628 46.288v1.62h-.274l.405.616.41-.615h-.279v-1.621h-.262M18.457 46.054l1.148 1.147-.196.195.722.142-.146-.718-.195.195-1.147-1.147-.185.186M18.878 45.301h1.625v.274l.61-.405-.61-.405v.273h-1.625v.263M17.06 44.286l-1.147-1.147.196-.195-.719-.148.143.724.194-.196 1.148 1.147.185-.185" fill="#fff"/><path d="M19.121 44.174a1.68 1.68 0 1 0-2.753 1.929 1.678 1.678 0 0 0 2.338.415 1.684 1.684 0 0 0 .415-2.344" fill="#fff"/><path d="M18.643 44.32l1.147-1.148.195.196.146-.718-.722.142.196.195-1.148 1.153.186.18" fill="#fff"/></svg>