<svg xmlns="http://www.w3.org/2000/svg" viewBox="0 0 46.25 31.25" height="31.25" width="46.25"><path d="M.689 6.997L8.345.605H45.22l-6.093 6.392H.688" fill="#026c9b"/><path d="M.689 6.997L8.345.605H45.22l-6.093 6.392H.688z" fill="none" stroke="#fff" stroke-width=".5"/><path d="M45.22.605l-6.093 6.393V30.63l6.093-8.071V.605" fill="#026c9b"/><path d="M45.22.605l-6.093 6.393V30.63l6.093-8.071V.605z" fill="none" stroke="#fff" stroke-width=".5"/><path d="M.689 30.63h38.437V7.002H.69V30.63z" fill="#026c9b"/><path d="M.689 30.63h38.437V7.002H.69V30.63z" fill="none" stroke="#fff" stroke-width=".5"/><path d="M19.623 28.711c5.533 0 10.016-4.487 10.016-10.02 0-5.532-4.483-10.019-10.016-10.019-5.536 0-10.018 4.487-10.018 10.02 0 5.532 4.482 10.02 10.018 10.02z" fill="none" stroke="#fff" stroke-width="1.25"/><path d="M3.965 13.384h28.399v-1.255l2.529 1.841-2.53 1.845V14.57H3.966M34.395 24.429H5.996v1.255l-2.53-1.847 2.53-1.84v1.24h28.399" fill="#fff"/></svg>