<svg xmlns="http://www.w3.org/2000/svg" viewBox="0 0 42.5 36.25" height="36.25" width="42.5"><path d="M31.895 28.453c0-4.8-4.8-8.4-10.801-8.4-5.4 0-10.2 3.6-10.2 8.4 0 4.198 4.8 7.802 10.2 7.802 6.001 0 10.801-3.604 10.801-7.802" fill="#02709f"/><path d="M31.895 28.453c0-4.8-4.8-8.4-10.801-8.4-5.4 0-10.2 3.6-10.2 8.4 0 4.198 4.8 7.802 10.2 7.802 6.001 0 10.801-3.604 10.801-7.802z" fill="none" stroke="#fff" stroke-width=".5"/><path d="M28.291 28.189h4.204l2.999.6h4.198l1.201-.6.6-1.202.602-1.196-.601-1.802-3.599-3.599-2.401-3.002-2.999-2.998-1.801-2.403L28.89 8.99l-1.796-2.402-1.803-2.998-.6-2.403-2.397-1.201h-1.801L18.09 1.186l-.596 1.803-1.201 2.397-1.801 2.402-1.197 2.397-3.604 4.8-2.397 3.004-6.001 6-.6 1.2v.602l1.201 2.398h1.201l1.196.6h2.402l2.397-.6h19.2" fill="#02709f" fill-rule="evenodd"/><path d="M32.495 17.989c0-4.8-5.4-8.404-11.401-8.404-6.002 0-10.802 3.604-10.802 8.404 0 4.799 4.8 8.402 10.802 8.402 6.001 0 11.401-3.603 11.401-8.402" fill="#02709f"/><path d="M32.495 17.989c0-4.8-5.4-8.404-11.401-8.404-6.002 0-10.802 3.604-10.802 8.404 0 4.799 4.8 8.402 10.802 8.402 6.001 0 11.401-3.603 11.401-8.402z" fill="none" stroke="#fff" stroke-width=".5"/><path d="M22.295 4.189h.6V-.015h-.6v4.204zM21.094 4.189h.6V-.015h-.6v4.204zM19.893 4.189h.6V-.015h-.6v4.204zM1.386 28.389l.348.488L5.16 26.45l-.346-.492-3.429 2.43M.694 27.408l.346.492 3.427-2.431-.346-.489-3.427 2.428M0 26.431l.346.488 3.429-2.426-.347-.494L0 26.43M41.734 28.389l-.348.488-3.427-2.427.347-.492 3.428 2.43M42.426 27.408l-.346.492-3.428-2.431.346-.489 3.428 2.428M43.12 26.431l-.346.488-3.428-2.426.346-.494 3.428 2.432" fill="#fff"/><path d="M17.94 29.922h1.836v-.996H17.94v.996z" fill-rule="evenodd"/><path d="M17.94 29.922h1.836v-.996H17.94v.996z" fill="none" stroke="#fff" stroke-width=".4"/><path d="M20.274 29.922h1.836v-.996h-1.836v.996z" fill-rule="evenodd"/><path d="M20.274 29.922h1.836v-.996h-1.836v.996z" fill="none" stroke="#fff" stroke-width=".4"/><path d="M22.607 29.922h1.837v-.996h-1.837v.996z" fill-rule="evenodd"/><path d="M22.607 29.922h1.837v-.996h-1.837v.996z" fill="none" stroke="#fff" stroke-width=".4"/><path d="M17.94 31.592h1.836v-1H17.94v1z" fill-rule="evenodd"/><path d="M17.94 31.592h1.836v-1H17.94v1z" fill="none" stroke="#fff" stroke-width=".4"/><path d="M20.274 31.592h1.836v-1h-1.836v1z" fill-rule="evenodd"/><path d="M20.274 31.592h1.836v-1h-1.836v1z" fill="none" stroke="#fff" stroke-width=".4"/><path d="M22.607 31.592h1.837v-1h-1.837v1z" fill-rule="evenodd"/><path d="M22.607 31.592h1.837v-1h-1.837v1z" fill="none" stroke="#fff" stroke-width=".4"/><path d="M17.94 33.257h1.836v-1H17.94v1z" fill-rule="evenodd"/><path d="M17.94 33.257h1.836v-1H17.94v1z" fill="none" stroke="#fff" stroke-width=".4"/><path d="M20.274 33.257h1.836v-1h-1.836v1z" fill-rule="evenodd"/><path d="M20.274 33.257h1.836v-1h-1.836v1z" fill="none" stroke="#fff" stroke-width=".4"/><path d="M22.607 33.257h1.837v-1h-1.837v1z" fill-rule="evenodd"/><path d="M22.607 33.257h1.837v-1h-1.837v1z" fill="none" stroke="#fff" stroke-width=".4"/></svg>