<svg xmlns="http://www.w3.org/2000/svg" viewBox="0 0 35 33.75" height="33.75" width="35"><defs><clipPath id="a"><path d="M0 10v257h280V10H0z"/></clipPath></defs><g clip-path="url(#a)" transform="matrix(.13 0 0 -.13 0 33.75)"><path d="M231.02 14.809l49.14 49.14V265.48H53.98L4.84 216.34h226.18V14.809" fill="#02709f"/><path d="M231.02 14.809l49.14 49.14V265.48H53.98L4.84 216.34h226.18V14.809z" fill="none" stroke="#fff" stroke-width="4"/><path d="M231.02 216.34l49.14 49.14" fill="#02709f"/><path d="M231.02 216.34l49.14 49.14" fill="none" stroke="#fff" stroke-width="4"/><path d="M4.84 14.82h226.172v201.52H4.84V14.82z" fill="#02709f"/><path d="M4.84 14.82h226.172v201.52H4.84V14.82zM231.02 115.59H4.84M27.11 88.95H82.3M27.11 77.078H82.3M27.11 65.2H82.3M27.11 53.328H82.3M27.11 41.45H82.3" fill="none" stroke="#fff" stroke-width="4"/></g></svg>