<svg xmlns="http://www.w3.org/2000/svg" viewBox="0 0 53.75 22.5" height="22.5" width="53.75"><defs><clipPath id="a"><path d="M0 10v169h430V10H0z"/></clipPath></defs><g clip-path="url(#a)" transform="matrix(.13 0 0 -.13 0 22.5)"><path d="M5 15.25h277.461V141.5H5V15.25z" fill="#02709f"/><path d="M5 15.25h277.461V141.5H5V15.25z" fill="none" stroke="#fff" stroke-width="4"/><path d="M282.461 14.86V141.5H4.84l35.75 35.738h277.34V50.602l-35.469-35.743" fill="#02709f"/><path d="M282.461 14.86V141.5H4.84l35.75 35.738h277.34V50.602l-35.469-35.743z" fill="none" stroke="#fff" stroke-width="4"/><path d="M282.461 141.5l35.469 35.738" fill="#02709f"/><path d="M282.461 141.5l35.469 35.738M282.461 48.73H5" fill="none" stroke="#fff" stroke-width="4"/><path d="M317.93 84.04L282.461 48.3" fill="#02709f"/><path d="M317.93 84.04L282.461 48.3" fill="none" stroke="#fff" stroke-width="4"/><path d="M431.289 150.762L395.82 115.02 282.461 75.09l35.469 35.75 113.359 39.922" fill="#02709f"/><path d="M431.289 150.762L395.82 115.02 282.461 75.09l35.469 35.75 113.359 39.922z" fill="none" stroke="#fff" stroke-width="4"/></g></svg>