<svg xmlns="http://www.w3.org/2000/svg" viewBox="0 0 35 37.5" height="37.5" width="35"><defs><clipPath id="a"><path d="M0 10v286h280V10H0z"/></clipPath></defs><g clip-path="url(#a)" transform="matrix(.13 0 0 -.13 0 37.5)"><path d="M5.43 14.578h226.719v230.7H5.429v-230.7z" fill="#026c9b"/><path d="M5.43 14.578h226.719v230.7H5.429v-230.7z" fill="none" stroke="#fff" stroke-width="4"/><path d="M278.09 291.25l-45.942-45.902H5.16l49.02 45.902h223.91" fill="#026c9b"/><path d="M278.09 291.25l-45.942-45.902H5.16l49.02 45.902h223.91z" fill="none" stroke="#fff" stroke-width="4"/><path d="M278.359 70.16v220.938l-46.211-45.938V15.469l46.211 54.691" fill="#026c9b"/><path d="M278.359 70.16v220.938l-46.211-45.938V15.469l46.211 54.691z" fill="none" stroke="#fff" stroke-width="4"/><path d="M7.11 18.559l219.261 219.25" fill="none" stroke="#fff" stroke-width="14.25" stroke-linecap="round" stroke-miterlimit="3.86"/><text style="-inkscape-font-specification:Helvetica" transform="matrix(10 0 0 -10 108.832 29.36)" font-weight="400" font-size="6" font-family="Helvetica" fill="#fff"><tspan y="0" x="0 4.0019999 7.6680002">STP</tspan></text></g></svg>