<svg xmlns="http://www.w3.org/2000/svg" viewBox="0 0 83.75 120" height="120" width="83.75"><text style="-inkscape-font-specification:Helvetica" transform="matrix(1.25 0 0 1.25 29.859 91.454)" font-weight="400" font-size="9" font-family="Helvetica"><tspan y="0" x="0 6.0029998 12.006">SVX</tspan><tspan y="10" x="-24.511299 -21.514299 -19.5163 -14.5123 -12.0103 -7.0063 -4.0093002 0.49070001 5.4947 10.4987 15.5027 20.506701 25.5107 30.5147 35.5187 37.516701">(interchangeable</tspan><tspan y="20" x="-21.757 -15.259 -13.261 -10.759 -5.7550001 -3.253 2.75 7.7540002 12.758 15.26 20.264 22.766001 25.268 27.266001 31.766001 36.77">with End office)</tspan></text><path d="M24.239 34.06H51.24V6.589H24.24V34.06z" fill="#036998"/><path d="M24.239 34.06H51.24V6.588H24.24V34.06zM38.364 15.778h8.301M38.364 25.333h8.301M35.815 20.592v-8.3" fill="none" stroke="#fff" stroke-width=".5"/><path d="M43.15 20.53v8.3" fill="none" stroke="#fff" stroke-width="1.25"/><path d="M33.686 20.53v8.3M38.481 15.798h-8.305" fill="none" stroke="#fff" stroke-width=".5"/><path d="M56.768 1.12v27.295l-5.562 5.625V6.715l5.562-5.595" fill="#036998"/><path d="M56.768 1.12v27.294l-5.562 5.625V6.716l5.562-5.597z" fill="none" stroke="#fff" stroke-width=".5"/><path d="M51.206 6.715l-.063-.156H24.268l6.816-5.439h25.684l-5.562 5.595" fill="#036998"/><path d="M51.206 6.716l-.063-.156H24.268l6.816-5.44h25.684l-5.562 5.596z" fill="none" stroke="#fff" stroke-width=".5"/><path d="M37.984 15.504h8.768" fill="none" stroke="#fff" stroke-width="1.25"/><path d="M46.591 13.014v4.805l2.902-2.31-2.902-2.495" fill="#fff"/><path d="M46.591 13.014v4.805l2.902-2.31-2.902-2.495z" fill="none" stroke="#fff" stroke-width=".5"/><path d="M37.984 25.06h9.237" fill="none" stroke="#fff" stroke-width="1.25"/><path d="M46.591 22.531v4.809l2.902-2.309-2.902-2.5" fill="#fff"/><path d="M46.591 22.53v4.81l2.902-2.31-2.902-2.5z" fill="none" stroke="#fff" stroke-width=".5"/><path d="M35.435 20.32v-7.848M40.415 20.592v-8.3" fill="none" stroke="#fff" stroke-width="1.25"/><path d="M40.039 20.32v-7.848M42.774 20.26v8.927" fill="none" stroke="#fff" stroke-width=".5"/><path d="M45.185 28.83h-4.804l2.329 2.895 2.475-2.895" fill="#fff"/><path d="M45.185 28.83h-4.804l2.329 2.896 2.475-2.896z" fill="none" stroke="#fff" stroke-width=".5"/><path d="M33.306 20.26v8.927" fill="none" stroke="#fff" stroke-width="1.25"/><path d="M35.772 28.83h-4.81l2.334 2.895 2.476-2.895" fill="#fff"/><path d="M35.772 28.83h-4.81l2.334 2.896 2.476-2.896z" fill="none" stroke="#fff" stroke-width=".5"/><path d="M38.1 25.06h-8.925" fill="none" stroke="#fff" stroke-width="1.25"/><path d="M29.462 27.585V22.78l-2.895 2.31 2.895 2.495" fill="#fff"/><path d="M29.462 27.585v-4.806l-2.895 2.31 2.895 2.496z" fill="none" stroke="#fff" stroke-width=".5"/><path d="M38.1 15.53h-8.925" fill="none" stroke="#fff" stroke-width="1.25"/><path d="M29.462 18.054v-4.806l-2.895 2.31 2.895 2.496" fill="#fff"/><path d="M29.462 18.053V13.25l-2.895 2.308 2.895 2.495z" fill="none" stroke="#fff" stroke-width=".5"/><path d="M37.989 26.076a5.736 5.736 0 0 0 5.736-5.737A5.736 5.736 0 0 0 37.99 14.6a5.732 5.732 0 0 0-5.733 5.738 5.732 5.732 0 0 0 5.733 5.737" fill="#036998"/><path d="M37.989 26.076a5.736 5.736 0 0 0 5.736-5.738 5.735 5.735 0 1 0-11.469 0 5.732 5.732 0 0 0 5.733 5.738z" fill="none" stroke="#fff" stroke-width=".5"/><path d="M45.806 12.321a.305.305 0 0 0 .303-.302V9.148a.304.304 0 0 0-.303-.303H30.513a.3.3 0 0 0-.303.303v2.87c0 .166.131.303.303.303h2.847V11.32h9.101v1.001h3.345" fill="#fff"/><path d="M45.806 12.32a.304.304 0 0 0 .303-.302V9.147a.305.305 0 0 0-.303-.303H30.513a.3.3 0 0 0-.303.303v2.871a.3.3 0 0 0 .303.303h2.847v-1h9.101v1h3.345z" fill="none" stroke="#fff" stroke-width=".5"/><path d="M35.341 18.37h.703v-.703h-.703v.703z"/><path d="M35.341 18.37h.703v-.702h-.703v.703z" fill="none" stroke="#fff" stroke-width=".5"/><path d="M35.341 19.933h.703v-.703h-.703v.703z"/><path d="M35.341 19.933h.703v-.703h-.703v.703z" fill="none" stroke="#fff" stroke-width=".5"/><path d="M35.341 21.495h.703v-.703h-.703v.703z"/><path d="M35.341 21.496h.703v-.703h-.703v.703z" fill="none" stroke="#fff" stroke-width=".5"/><path d="M35.341 23.058h.703v-.703h-.703v.703z"/><path d="M35.341 23.058h.703v-.703h-.703v.703z" fill="none" stroke="#fff" stroke-width=".5"/><path d="M36.904 18.37h.702v-.703h-.702v.703z"/><path d="M36.904 18.37h.702v-.702h-.702v.703z" fill="none" stroke="#fff" stroke-width=".5"/><path d="M36.904 19.933h.702v-.703h-.702v.703z"/><path d="M36.904 19.933h.702v-.703h-.702v.703z" fill="none" stroke="#fff" stroke-width=".5"/><path d="M36.904 21.495h.702v-.703h-.702v.703z"/><path d="M36.904 21.496h.702v-.703h-.702v.703z" fill="none" stroke="#fff" stroke-width=".5"/><path d="M36.904 23.058h.702v-.703h-.702v.703z"/><path d="M36.904 23.058h.702v-.703h-.702v.703z" fill="none" stroke="#fff" stroke-width=".5"/><path d="M38.466 18.37h.703v-.703h-.703v.703z"/><path d="M38.466 18.37h.703v-.702h-.703v.703z" fill="none" stroke="#fff" stroke-width=".5"/><path d="M38.466 19.933h.703v-.703h-.703v.703z"/><path d="M38.466 19.933h.703v-.703h-.703v.703z" fill="none" stroke="#fff" stroke-width=".5"/><path d="M38.466 21.495h.703v-.703h-.703v.703z"/><path d="M38.466 21.496h.703v-.703h-.703v.703z" fill="none" stroke="#fff" stroke-width=".5"/><path d="M38.466 23.058h.703v-.703h-.703v.703z"/><path d="M38.466 23.058h.703v-.703h-.703v.703z" fill="none" stroke="#fff" stroke-width=".5"/><path d="M40.029 18.37h.702v-.703h-.702v.703z"/><path d="M40.029 18.37h.702v-.702h-.702v.703z" fill="none" stroke="#fff" stroke-width=".5"/><path d="M40.029 19.933h.702v-.703h-.702v.703z"/><path d="M40.029 19.933h.702v-.703h-.702v.703z" fill="none" stroke="#fff" stroke-width=".5"/><path d="M40.029 21.495h.702v-.703h-.702v.703z"/><path d="M40.029 21.496h.702v-.703h-.702v.703z" fill="none" stroke="#fff" stroke-width=".5"/><path d="M40.029 23.058h.702v-.703h-.702v.703z"/><path d="M40.029 23.058h.702v-.703h-.702v.703z" fill="none" stroke="#fff" stroke-width=".5"/></svg>