<svg xmlns="http://www.w3.org/2000/svg" viewBox="0 0 36.25 32.5" height="32.5" width="36.25"><defs><clipPath id="a"><path d="M0 10v250h290V10H0z"/></clipPath></defs><g clip-path="url(#a)" fill="#036998" transform="matrix(.13 0 0 -.13 0 32.5)"><path d="M159.18 219.727L90 222.148l-33.871-36.089 20.941-17.032 18.16 19.719 41.918-1.437-45.777-59.539 16.359-15.153-26.28-35.16-43.009 1.492-31.37-14.031 21.718-45.04 26.172-.89-.23 9.918-13.36.434.7 19.797 63.949-2.219 35.859 43.55L228.75 9.997l44.219 49.691-10.699 10.27-18.75-20.27-70.43 67.071 29.84 38.551 26.761-18.391 61.559-2.148.859 24.41-44.14 1.558-88.789 58.989"/><path d="M188.672 259.648l51.168-1.761-1.91-54.688-51.168 1.758 1.91 54.691M34.02 194.449l58.402-49.019-34.063-40.551L0 153.867l34.02 40.582"/></g></svg>