<svg xmlns="http://www.w3.org/2000/svg" viewBox="0 0 43.75 53.75" height="53.75" width="43.75"><path d="M6.045 13.211H.249v4.786l5.102-.01h.607" fill="#fff"/><path d="M6.045 13.212H.249v4.785l5.102-.01h.607" fill="none" stroke="#231f20" stroke-width=".5"/><path d="M36.02 18.172h.679c5.112 0 5.929 4.596 5.929 4.596v-4.775s-.817-4.595-5.93-4.595h-1.122" fill="#fff"/><path d="M36.02 18.173h.679c5.112 0 5.929 4.594 5.929 4.594v-4.775s-.817-4.595-5.93-4.595h-1.122" fill="none" stroke="#231f20" stroke-width=".5"/><path d="M5.244 51.796h26.895V4.906H5.244v46.89z" fill="#0881c1"/><path d="M5.244 51.796h26.895V4.906H5.244v46.89z" fill="none" stroke="#fff" stroke-width=".5"/><path d="M5.244 4.906L10.386.731h25.928l-4.175 4.175H5.244" fill="#0881c1"/><path d="M5.244 4.906L10.386.73h25.928l-4.175 4.175H5.244z" fill="none" stroke="#fff" stroke-width=".5"/><path d="M32.139 51.796l4.175-5.137V.73l-4.175 4.175v46.89" fill="#0881c1"/><path d="M32.139 51.796l4.175-5.136V.73l-4.175 4.175v46.89z" fill="none" stroke="#fff" stroke-width=".5"/><path d="M42.627 19.502v5.653c-.552 6.718-12.461 6.367-12.461 6.367v4.947l-7.778-7.779 7.778-7.777v4.95s12.109.357 12.461-6.361" fill="#fff"/><path d="M42.627 19.501v5.654c-.552 6.718-12.461 6.367-12.461 6.367v4.946l-7.778-7.777 7.778-7.779v4.951s12.109.357 12.461-6.362" fill="none" stroke="#231f20" stroke-width=".5"/><path d="M9.121 12.567l-1.309 1.27.005-6.006h6.007l-1.329 1.363-.254.267 8.94 8.921-2.92 2.92-8.93-8.93-.21.195M9.672 44.154l-1.308-1.27.005 6.006h6.006l-1.328-1.361-.255-.27 8.942-8.925-2.92-2.915-8.932 8.931-.21-.196M13.599 27.377v6.039H7.192v-6.04c3.203-1.919 6.407 0 6.407 0" fill="#fff"/><path d="M12.377 24.755a1.92 1.92 0 1 1-1.918-1.924 1.92 1.92 0 0 1 1.918 1.924M21.411 27.377v6.039h-6.406v-6.04c3.202-1.919 6.406 0 6.406 0" fill="#fff"/><path d="M20.19 24.755a1.92 1.92 0 0 1-3.842 0 1.92 1.92 0 1 1 3.842 0" fill="#fff"/></svg>