<svg xmlns="http://www.w3.org/2000/svg" viewBox="0 0 40 53.75" height="53.75" width="40"><path d="M.81 51.899h33.53V18.397H.81V51.9z" fill="#087bbb"/><path d="M.81 51.899h33.53V18.398H.81v33.5z" fill="none" stroke="#fff" stroke-width=".5"/><path d="M38.574 47.704V14.203l-4.233 4.194V51.9l4.233-4.195" fill="#087bbb"/><path d="M38.574 47.704V14.203l-4.233 4.195v33.5l4.233-4.194z" fill="none" stroke="#fff" stroke-width=".5"/><path d="M6.939.654L.81 4.848h33.531L38.574.654H6.939" fill="#087bbb"/><path d="M6.939.653L.81 4.848h33.531L38.574.653H6.939z" fill="none" stroke="#fff" stroke-width=".5"/><path d="M.81 18.398h33.53V4.848H.81v13.55z" fill="#087bbb"/><path d="M.81 18.398h33.53V4.848H.81v13.55z" fill="none" stroke="#fff" stroke-width=".5"/><path d="M38.574 14.203V.653L34.34 4.849v13.55l4.233-4.195" fill="#087bbb"/><path d="M38.574 14.203V.653L34.34 4.848v13.55l4.233-4.195z" fill="none" stroke="#fff" stroke-width=".5"/><path d="M34.341 18.398l4.233-4.195" fill="#087bbb"/><path d="M34.341 18.398l4.233-4.195" fill="none" stroke="#fff" stroke-width=".5"/><path d="M6.279 9.461h5.41V6.664h-5.41V9.46zM24.047 9.461h5.41V6.664h-5.41V9.46zM6.279 16.494h5.41V13.68h-5.41v2.813zM24.047 16.494h5.41V13.68h-5.41v2.813z" fill="#fff"/><path d="M9.951 8.06h16.607M9.951 15.086h16.607" fill="none" stroke="#fff" stroke-width=".5"/><path d="M8.985 15.087L26.558 8.06" fill="#231f20"/><path d="M8.985 15.086L26.558 8.06" fill="none" stroke="#fff" stroke-width=".5"/><path d="M8.985 8.06l17.573 7.027" fill="#231f20"/><path d="M8.985 8.06l17.573 7.026" fill="none" stroke="#fff" stroke-width=".5"/><path d="M11.314 33.475v-2.821h.478l-.703-1.06-.708 1.06h.479v2.821h.454M9.877 33.886l-1.996-1.992.336-.343-1.255-.254.254 1.25.343-.336 1.997 1.997.321-.322M9.145 35.19H6.324v-.479l-1.065.708 1.065.709v-.48h2.821v-.458M9.556 36.635L7.56 38.627l-.343-.337-.254 1.255 1.255-.254-.336-.342 1.996-1.992-.32-.322M10.86 37.362v2.823h-.479l.708 1.063.703-1.063h-.478v-2.823h-.454M12.623 34.207l1.996-1.996.337.336.254-1.25-1.255.254.342.342-1.997 1.993.322.321" fill="#fff"/><path d="M12.813 37.783a2.916 2.916 0 0 0 .717-4.068 2.914 2.914 0 0 0-4.068-.718 2.918 2.918 0 0 0-.717 4.068 2.917 2.917 0 0 0 4.067.718" fill="#fff"/><path d="M12.559 36.957l1.997 1.992-.337.342 1.25.254-.254-1.255-.338.338-1.996-1.993-.322.322M23.77 33.475v-2.821h-.484l.708-1.06.709 1.06h-.48v2.821h-.453M25.205 33.886l1.998-1.992-.343-.343 1.255-.254-.254 1.25-.336-.336-1.998 1.997-.322-.322M25.933 35.19h2.827v-.479l1.059.708-1.06.709v-.48h-2.826v-.458M25.527 36.635l1.998 1.992.336-.337.254 1.255-1.255-.254.343-.342-1.998-1.992.322-.322M24.224 37.362v2.823h.479l-.71 1.063-.707-1.063h.484v-2.823h.454M22.461 34.207l-1.997-1.996-.336.336-.255-1.25 1.255.254-.342.342 1.998 1.993-.323.321" fill="#fff"/><path d="M22.265 37.783a2.917 2.917 0 0 1-.718-4.068 2.922 2.922 0 0 1 4.073-.718 2.92 2.92 0 0 1 .717 4.068 2.924 2.924 0 0 1-4.072.718" fill="#fff"/><path d="M22.52 36.957l-1.993 1.992.337.342-1.254.254.254-1.255.341.338 1.992-1.993.323.322" fill="#fff"/><path d="M12.759 35.457h9.56" fill="none" stroke="#fff" stroke-width="1.21675"/><path d="M18.232 35.43c0 2.049-.35 3.714-.786 3.714-.435 0-.791-1.665-.791-3.715 0-2.051.356-3.711.791-3.711.435 0 .786 1.66.786 3.711z" fill="none" stroke="#fff" stroke-width=".5"/><path d="M4.042 45.703h26.855V24.609H4.042v21.094z" fill="none" stroke="#fff" stroke-width=".5" stroke-dasharray="18,18"/></svg>