<?xml version="1.0" encoding="iso-8859-1"?>
<!-- Generator: Adobe Illustrator 19.0.0, SVG Export Plug-In . SVG Version: 6.00 Build 0)  -->
<svg version="1.1" id="Layer_1" xmlns="http://www.w3.org/2000/svg" xmlns:xlink="http://www.w3.org/1999/xlink" x="0px" y="0px"
	 viewBox="0 0 512 512" style="enable-background:new 0 0 512 512;" xml:space="preserve">
<path style="fill:#FFCA4F;" d="M255.999,512C397,512,512,397,512,255.999C512,115,397,0,255.999,0C115,0,0,115,0,255.999
	C0,397,115,512,255.999,512z"/>
<path style="fill:#FF5B61;" d="M369.746,430.029l-19.941-85.459c0,0,68.235-65.651,60.584-149.807
	c-7.651-84.154-92.451-137.072-178.519-114.129c-86.072,22.941-100.329,91.895-100.732,103.206
	c-0.406,11.313,10.2,40.24,2.544,60.007c-7.651,19.766-35.061,50.687-32.512,59.93c2.553,9.24,26.141,10.837,26.141,10.837
	s0.276,8.941-2.857,10.839c-3.137,1.896-1.369,9.329,3.792,13.461c5.157,4.136,13.736,6.941,13.736,6.941s-9.886,2.231-8.608,9.245
	c1.279,7.016,4.782,10.524,12.116,10.837c7.331,0.32,9.247-3.177,10.517,0.648c1.274,3.821,2.077,4.138,2.077,4.138
	s-7.327,18.968-0.948,32.993c6.381,14.027,16.256,14.038,27.735,11.163c11.481-2.875,33.794-9.249,33.794-9.249l6.107,31.108
	c6.385,45.274-24.443,68.548-25.095,69.033c18.126,4.068,36.968,6.229,56.322,6.229c57.013,0,109.664-18.644,152.211-50.16
	c-4.105-1.976-36.999-30.347-38.461-31.809H369.746z"/>
<g>
	<path style="fill:#EC4B53;" d="M159.24,407.647c6.35,10.063,15.348,9.805,25.631,7.23c11.481-2.875,33.794-9.249,33.794-9.249
		l6.107,31.108c2.178,15.449,0.022,28.334-3.788,38.629l0.007-0.007c21.312-30.409,5.594-53.65,8.398-65.19
		c2.807-11.54,47.406-22.456,56.763-29.631c9.357-7.175,16.06-26.976,16.06-26.976s-9.357,14.347-19.336,23.08
		c-9.979,8.731-87.483,31.496-102.298,36.486C166.511,417.865,159.873,408.593,159.24,407.647z"/>
	<path style="fill:#EC4B53;" d="M210.705,87.728c53.604-19.641,117.094-9.046,155.606,30.339
		c45.889,46.934,56.583,132.334-23.554,222.699l26.989,89.265l-19.941-85.459c0,0,68.235-65.651,60.584-149.807
		c-7.651-84.154-92.451-137.072-178.519-114.129c-7.607,2.028-14.642,4.421-21.166,7.095V87.728z"/>
</g>
<path style="fill:#FFFFFF;" d="M271.638,122.34c27.889,0,50.5,23.107,50.5,51.609c0,19.288-10.352,36.102-25.686,44.959v23.66
	c0,2.822-2.256,5.128-5.018,5.128h-37.017c-2.769,0-5.018-2.304-5.018-5.128v-22.278c-16.737-8.405-28.255-25.997-28.255-46.341
	c0-28.502,22.611-51.609,50.5-51.609H271.638z"/>
<g>
	<path style="fill:#FBB429;" d="M256.202,247.021h30.872c2.225,0,4.044,1.415,4.044,3.146c0,1.731-1.819,3.144-4.044,3.144
		c2.225,0,4.044,1.418,4.044,3.146c0,1.729-1.819,3.146-4.044,3.146c2.225,0,4.044,1.413,4.044,3.144v0.002
		c0,1.731-1.819,3.144-4.044,3.144h-30.872c-2.222,0-4.041-1.413-4.041-3.144v-0.002c0-1.731,1.819-3.144,4.041-3.144
		c-2.222,0-4.041-1.418-4.041-3.146c0-1.731,1.819-3.146,4.041-3.146c-2.222,0-4.041-1.415-4.041-3.144
		C252.16,248.436,253.979,247.021,256.202,247.021z"/>
	<path style="fill:#FBB429;" d="M257.741,172.665l8.021,65.305h5.876h5.874l8.023-65.305l2.917,0.456l-8.198,66.743l-0.179,1.438
		h-1.281h-7.157h-7.157H263.2l-0.176-1.438l-8.198-66.743l2.917-0.456H257.741z"/>
	<path style="fill:#FBB429;" d="M276.427,164.353l-1.067,7.307l27.43-4.099l-37.18,15.518l1.369-10.05l-24.39,4.626l33.84-13.302
		H276.427z"/>
</g>
<path style="fill:#FFFFFF;" d="M269.25,279.103v0.926h-3.058v-0.926h-1.175c-1.166,0-2.183-0.736-2.657-1.795h-0.093
	c-1.623,0-2.941-1.422-2.941-3.164c0-1.111,0.534-2.086,1.341-2.648h-4.516c-1.623,0-2.941-1.42-2.941-3.164
	c0-1.74,1.318-3.16,2.941-3.16h30.971c1.623,0,2.941,1.42,2.941,3.16c0,1.746-1.319,3.164-2.941,3.164h-4.518
	c0.807,0.56,1.343,1.537,1.343,2.648c0,1.742-1.321,3.164-2.937,3.164h-0.093c-0.478,1.061-1.49,1.795-2.659,1.795h-1.233v0.926
	h-3.056v-0.926h-4.725H269.25z"/>
<g>
</g>
<g>
</g>
<g>
</g>
<g>
</g>
<g>
</g>
<g>
</g>
<g>
</g>
<g>
</g>
<g>
</g>
<g>
</g>
<g>
</g>
<g>
</g>
<g>
</g>
<g>
</g>
<g>
</g>
</svg>
