<svg xmlns="http://www.w3.org/2000/svg" viewBox="0 0 50 51.25" height="51.25" width="50"><path d="M40.19 44.849A24.89 24.89 0 0 1 25.025 50c-7.52 0-14.956-3.374-19.869-9.805C-3.243 29.234-1.167 13.56 9.815 5.156A24.785 24.785 0 0 1 24.98.01c7.52 0 14.956 3.374 19.869 9.81 8.399 10.956 6.303 26.64-4.659 35.029" fill="#59b4d9"/><path d="M35.6 29.39a5.385 5.385 0 0 0 7.54 1.001c.121-.094.22-.205.331-.307 2.408 1.693 4.083 2.816 5.025 3.456.279-.723.474-1.416.669-2.139a125.239 125.239 0 0 1-4.287-3.358c.635-1.68.434-3.638-.733-5.172a5.363 5.363 0 0 0-6.933-1.377 218.23 218.23 0 0 1-8.296-7.831c9.165-4.928 15.68-4.204 15.68-4.204-1.09-1.388-2.306-2.602-3.61-3.702-3.863-.596-9.867-.527-16.729 3.12h-.005a208.09 208.09 0 0 1-6.982-7.714 22.82 22.82 0 0 0-3.31 1.347c1.747 2.861 4.101 5.747 6.752 8.565l.02.019c-2.212 1.544-4.672 3.614-6.943 6.011-.293.313-.572.62-.845.933a7.55 7.55 0 0 0-4.116.282c-2.266-4.887-2.08-8.807-1.723-10.835-.982 1.031-1.9 2.115-2.691 3.272-.59 2.412-.762 5.893.981 10.093a7.545 7.545 0 0 0-.005 9.155c.176.225.366.44.563.645a37.635 37.635 0 0 0-1.46 8.76c.233.321.233.58.468.893 1.202 1.538 2.705 2.837 4.16 4.008-.181-2.749.015-6.806 1.714-11.371a7.485 7.485 0 0 0 3.486-.567c.64.567 1.309 1.133 2.021 1.714a42.358 42.358 0 0 0 7.285 4.644 4.971 4.971 0 0 0 .973 3.515 4.993 4.993 0 0 0 6.982.918c.454-.347.81-.767 1.108-1.215 3.888.868 7.285 1.02 9.805 1.02.386 0 2.177-2.436 3.204-3.945-1.534.322-6.085.947-12.3-.84A5.012 5.012 0 0 0 32.5 36.2c-1.578-2.07-4.467-2.515-6.616-1.132-2.163-1.173-4.424-2.641-6.758-4.488a54.535 54.535 0 0 1-1.362-1.119 7.574 7.574 0 0 0 .317-7.548c.288-.288.566-.577.874-.859 2.31-2.159 4.482-3.886 6.519-5.274-.084-.077-.157-.156-.235-.234.078.078.156.152.235.23 3.12 2.886 6.43 5.62 9.565 8.065-.83 1.76-.698 3.898.561 5.548z" fill="#fff"/></svg>