<svg xmlns="http://www.w3.org/2000/svg" viewBox="0 0 37.5 43.75" height="43.75" width="37.5"><path d="M35.6.9H1.801C.801.9 0 1.7 0 2.7v27.3c0 .996.801 1.798 1.801 1.798h8.697C11.2 34 13.3 35.5 15.8 35.5c2.998 0 5.498-2.5 5.498-5.498 0-3.003-2.5-5.503-5.498-5.503-2.5 0-4.6 1.499-5.303 3.701h-6.9V8.697h30.2V28.2H28.1c-.8-6.001-6.097-10.698-12.299-10.698-2.1 0-4.2.6-6.001 1.498l1.699 3.199C12.7 21.5 14.3 21.1 15.699 21.1c4.799 0 8.901 3.999 8.901 8.902 0 4.897-4 8.895-8.901 8.895-1.5 0-2.902-.4-4.2-1.097l-1.7 3.198c1.802 1 3.902 1.503 6.002 1.503 6.201 0 11.499-4.701 12.3-10.702h7.5a1.794 1.794 0 0 0 1.801-1.797v-27.3c0-.903-.8-1.802-1.802-1.802z" fill="#3276bc"/></svg>