<svg xmlns="http://www.w3.org/2000/svg" viewBox="0 0 42.5 43.75" height="43.75" width="42.5"><g fill="#0078d7"><path d="M7.5 42.499l7.402-2.9L17.5 42.2h12.3V24.998l.899-.698C37.598 18.402 41.4 10.8 41.4 2.699V1.2h-1.499c-8.203 0-15.8 3.798-21.6 10.699l-.9 1H.4v12.3L2.998 27.8 0 35.2l7.5 7.3zm-3.799-7.9l1.699-4.4 7.198 7.202-4.4 1.7-4.497-4.502zm23.1 4.7H18.6L17.1 37.802l9.701-9.8V39.3zM34 16.6L26.2 8.797a22.544 22.544 0 0 1 12.3-4.697c-.302 4.502-1.9 8.701-4.502 12.5zM20.6 13.797c1.001-1.196 2.1-2.3 3.199-3.398l8.203 8.203c-1 1.197-2.202 2.3-3.403 3.4L15 35.8 6.801 27.6l13.8-13.804zM3.301 15.902h11.402l-9.8 9.698-1.504-1.5c-.098-.103-.098-8.198-.098-8.198z"/><path d="M25.297 20.199a2.897 2.897 0 1 1-5.795 0 2.9 2.9 0 0 1 2.9-2.9 2.896 2.896 0 0 1 2.895 2.9z"/></g></svg>