<svg xmlns="http://www.w3.org/2000/svg" viewBox="0 0 40 33.75" height="33.75" width="40"><g fill="#0078d7"><path d="M17.31 12.457c-2.3 1.202-3.301 4.102-2.1 6.402s4.096 3.199 6.396 2.1c2.305-1.202 3.302-4.102 2.105-6.401-1.201-2.403-4.101-3.302-6.401-2.1zm2.998 5.802c-.9.4-1.9.097-2.3-.802-.4-.898-.098-1.898.703-2.3.899-.4 1.899-.102 2.398.802.4.8 0 1.796-.801 2.3z"/><path d="M37.3.9H1.699C.8.9 0 1.799 0 2.902V30.5c0 1.099.801 2.001 1.699 2.001h35.6c.9 0 1.7-.902 1.7-2.001V2.902c0-1.103-.8-2.002-1.7-2.002zM29.1 20.3L27.3 23.2 24.8 22.2c-.4.4-.899.801-1.401 1.104L23.7 26.1l-3.301.801-1-2.5c-.601 0-1.201-.102-1.802-.2l-1.7 2.196-2.9-1.796 1-2.402c-.4-.4-.8-.9-1.098-1.499l-2.7.297-.8-3.296 2.401-1c0-.6.099-1.201.3-1.802L9.901 13.2l1.797-2.9 2.5 1c.401-.4.801-.698 1.2-1L15 7.5l3.301-.902 1.099 2.5a5.82 5.82 0 0 1 1.899.302L23.1 7.2 26.001 9l-1.099 2.599c.395.4.698.902.997 1.401l2.9-.299.801 3.296-2.598 1.104c0 .6-.102 1.1-.2 1.699l2.3 1.5z"/></g></svg>