<svg xmlns="http://www.w3.org/2000/svg" viewBox="0 0 50 50" height="50" width="50"><path d="M0 50h50V0H0v50z" fill="#009480"/><path d="M37.441 21.04c0-6.27-5.088-11.348-11.362-11.348S14.72 14.762 14.72 21.04c0 4.644 2.789 8.623 6.783 10.381-.372.62-1.29 1.479-2.188 2.055-1.747 1.114-3.809 1.69-5.717 2.535-.318.136-.811.351-.84.585-.141 1.07-.147 2.164-.2 3.223.234.078.346.132.459.152 5.4 1 10.297-.268 14.72-3.091 4.596-2.935 9.703-7.7 9.703-15.84z" fill="#fff"/><path d="M26.181 13.373c-4.096 0-7.47 3.254-7.513 7.31-.05 4.058 3.246 7.54 7.362 7.57 4.111.028 7.51-3.302 7.525-7.433a7.415 7.415 0 0 0-7.374-7.447z" fill="#414142"/><path d="M28.043 18.413v-1.63h.517v-1.066h-4.522v1.066h.518v1.63l-2.676 5.342.81 1.357h7.236l.801-1.342-2.685-5.357zm-2.115 1.313L23.784 24h-.528l-.282-.274 2.676-5.073v-1.85h1.307v1.856l.518 1.063h-1.553l.006.005z" fill="#fff"/></svg>