<svg xmlns="http://www.w3.org/2000/svg" viewBox="0 0 81.25 82.5" height="82.5" width="81.25"><path d="M33.189 1.185C31.411.39 29.311.224 27.451.951c-1.865.65-3.404 2.027-4.203 3.871l-1.05 2.188h-8.325c-4.034 0-7.35 3.316-7.35 7.354v26.763L.714 53.549c-.816 1.777-.977 3.877-.25 5.727.65 1.86 2.022 3.399 3.873 4.2l2.188 1.064v2.734c0 4.038 3.315 7.349 7.349 7.349h26.59l12.598 5.903c.963.49 2.1.723 3.15.723.89 0 1.7-.162 2.588-.474a7.134 7.134 0 0 0 4.198-3.886l1.09-2.266h2.7c4.048 0 7.363-3.31 7.363-7.35V46.337l5.889-12.587c.898-1.86.972-3.872.249-5.81a7.085 7.085 0 0 0-3.877-4.2l-2.261-1.104v-8.271c0-4.038-3.315-7.354-7.362-7.354H45.6L33.19 1.185zm18.822 34.59H41.748l4.277-14.301c.089-.41-.078-.811-.4-.972-.074-.078-.239-.078-.328-.078-.233 0-.487.151-.634.312L28.1 44.901c-.165.234-.165.561-.087.81.16.24.4.401.722.401h9.941L34.24 60.65c-.09.415.072.815.4.976.087.072.249.072.322.072.24 0 .488-.16.649-.32l17.041-24.39c.088-.162.161-.323.161-.49 0-.41-.4-.722-.8-.722zM13.872 11.85h52.916a2.428 2.428 0 0 1 2.426 2.426v52.925c0 1.284-1.05 2.422-2.426 2.422H13.873c-1.286 0-2.423-1.05-2.423-2.422V14.276c0-1.289 1.05-2.426 2.423-2.426z" fill="#0078d7" fill-rule="evenodd"/></svg>