<svg xmlns="http://www.w3.org/2000/svg" viewBox="0 0 45 51.25" height="51.25" width="45"><g fill="#0078d7"><path d="M44.8 27.697c0-7.3-3.501-13.695-8.798-17.797v.698c0 2.202-.602 4.302-1.5 6.103 2.598 2.902 4.2 6.7 4.2 10.9 0 8.998-7.3 16.298-16.3 16.298C13.4 43.899 6.1 36.599 6.1 27.6c0-4.502 1.8-8.501 4.702-11.499-.801-1.7-1.299-3.599-1.299-5.601 0-.4 0-.898.098-1.299-5.801 4-9.6 10.801-9.6 18.4 0 12.401 10 22.401 22.402 22.401C34.8 50.002 44.8 40.1 44.8 27.697z"/><path d="M22.7.1c-5.697 0-10.298 4.6-10.298 10.297 0 4.703 3.096 8.604 7.398 9.903v10.2H15v5.2h4.8v3.8h5.697V20.3c4.303-1.201 7.403-5.2 7.403-9.903C32.998 4.7 28.399.1 22.7.1zm0 5.4c2.7 0 4.898 2.197 4.898 4.897S25.4 15.3 22.7 15.3a4.912 4.912 0 0 1-4.903-4.903C17.797 7.697 20 5.5 22.7 5.5z"/></g></svg>