<svg xmlns="http://www.w3.org/2000/svg" viewBox="0 0 47.5 48.75" height="48.75" width="47.5"><path d="M38.276 25.112c.884 0 1.724-.35 2.349-.976l6.25-6.25v-.322H29.663v.322l6.25 6.25c.634.625 1.46.976 2.363.976zm2.95-.386a4.148 4.148 0 0 1-2.95 1.227 4.15 4.15 0 0 1-2.948-1.227l-5.665-5.648V30.56h17.212V19.078l-5.65 5.648zm-17.027.474h2.89v-2.29H24.2v2.29zm-4.473 0h3.062v-2.29h-3.062v2.29zM.776.625C.312.625 0 .938 0 1.401v9.375c0 .474.313.787.776.787h4.688c.473 0 .786-.313.786-.787V6.875h34.375v3.911c0 .464.313.777.938.777h4.526c.474 0 .786-.313.786-.777V1.411c0-.473-.313-.786-.776-.786H.776zM8.6 25.112c.903 0 1.729-.35 2.363-.976l6.25-6.25v-.322H0v.322l6.25 6.25a3.314 3.314 0 0 0 2.349.976zm2.948-.386A4.15 4.15 0 0 1 8.6 25.953a4.148 4.148 0 0 1-2.95-1.227L0 19.078V30.56h17.212V19.078l-5.665 5.648zM46.1 47.5c.464 0 .776-.313.776-.776V37.5c0-.464-.313-.776-.776-.776h-4.536c-.464 0-.777.312-.777.776v3.75H6.25v-3.901c0-.474-.313-.786-.938-.786H.777c-.464 0-.776.312-.776.937v9.224c0 .464.313.776.776.776H46.1z" fill="#0072c6" fill-rule="evenodd"/></svg>