<svg xmlns="http://www.w3.org/2000/svg" viewBox="0 0 50 43.75" height="43.75" width="50"><path d="M28.399 14.299c6 0 10.902 4.5 11.601 10.2a13.212 13.212 0 0 1 3.301 3.798c3.902-.996 6.601-4.398 6.601-8.496 0-3.3-1.802-5.902-4.902-7.402v-1.1C45 5.5 40.2.7 34.4.7c-3.501 0-6.7 1.699-8.701 4.4C24.399 4.3 22.998 3.9 21.4 3.9 17.203 3.899 13.8 7.1 13.4 11.1c.6-.103 1.304-.103 2-.103 3.103 0 6.604.504 9.503 3.604L28.4 14.3z" fill="#59b4d9"/><path d="M36.498 26.502V25.9c0-4.398-3.598-7.998-7.996-7.998-1.402 0-2.7.395-3.902.997v.103-.103c-.098.103-.299.103-.401.2l-.098-.097c-2.3 1.698-3.3 4.295-3.402 7.098h3.5L18.9 32.4l-5.4-6.299h3.6c.102-3.799 1.6-7.403 4.198-9.701a10.651 10.651 0 0 0-5.801-1.7C9.6 14.699 4.8 19.4 4.8 25.203V26.3C1.8 27.8 0 30.402 0 33.697c0 5 3.999 8.804 9.199 8.804h22.7c5.201 0 9.2-3.9 9.2-8.804 0-3.197-1.596-5.697-4.6-7.196z" fill="#0072c6"/></svg>