<svg xmlns="http://www.w3.org/2000/svg" viewBox="0 0 51.25 30" height="30" width="51.25"><path d="M49.736 15.11c.503-.499.4-1.299 0-1.797L47.34 10.91 36.538.413c-.498-.503-1.2-.503-1.7 0-.497.497-.6 1.298 0 1.796l11.3 11.104a1.26 1.26 0 0 1 0 1.797l-11.5 11.504a1.266 1.266 0 0 0 0 1.796c.498.504 1.3.401 1.7 0l10.698-10.6.103-.098 2.597-2.602zM.337 15.11c-.498-.499-.401-1.299 0-1.797L2.74 10.91 13.54.413c.498-.503 1.196-.503 1.699 0 .498.497.6 1.298 0 1.796L4.14 13.313a1.26 1.26 0 0 0 0 1.797l11.3 11.504a1.268 1.268 0 0 1 0 1.796c-.504.504-1.3.401-1.7 0L2.837 17.913l-.098-.103-2.402-2.7z" fill="#3999c6"/><path d="M18.237 14.211c0 1.9-1.597 3.302-3.301 3.302-1.699 0-3.496-1.603-3.496-3.302 0-1.698 1.397-3.3 3.496-3.3 2.003 0 3.301 1.602 3.301 3.3zM28.34 14.211c0 1.9-1.601 3.302-3.301 3.302-1.7 0-3.501-1.603-3.501-3.302 0-1.698 1.602-3.3 3.5-3.3 1.901 0 3.302 1.602 3.302 3.3zM38.54 14.211a3.304 3.304 0 0 1-3.301 3.302 3.302 3.302 0 0 1 0-6.603 3.304 3.304 0 0 1 3.301 3.301z" fill="#7fba00"/></svg>