<svg xmlns="http://www.w3.org/2000/svg" viewBox="0 0 40 23.75" height="23.75" width="40"><g fill="#0078d7"><path d="M39.502 11.828L28.828 1.154 27.43 2.55l9.375 9.278-9.375 9.277 1.397 1.396 10.674-10.673zM0 11.828l2.495-2.393 8.179-8.281L12.07 2.55l-9.375 9.278 9.375 9.277-1.396 1.396-8.179-8.28L0 11.827z"/><path d="M14.961 11.828c0 1.293-1.093 2.392-2.392 2.392-1.397 0-2.393-1.099-2.393-2.392 0-1.3 1.094-2.393 2.393-2.393 1.396 0 2.392 1.094 2.392 2.393zM19.752 9.435c1.293 0 2.392 1.094 2.392 2.393 0 1.293-1.1 2.392-2.392 2.392-1.3 0-2.393-1.099-2.393-2.392 0-1.3 1.094-2.393 2.392-2.393zM26.934 9.435c1.293 0 2.392 1.094 2.392 2.393 0 1.293-1.099 2.392-2.392 2.392-1.396 0-2.398-1.099-2.398-2.392 0-1.3 1.002-2.393 2.398-2.393z"/></g></svg>