<svg xmlns="http://www.w3.org/2000/svg" viewBox="0 0 41.25 42.5" height="42.5" width="41.25"><path d="M39.752 19.3l-17.7-17.798c-1.002-1-2.603-1-3.502 0l-3.901 3.8L19.248 9.9c.303-.103.703-.2 1.103-.2 1.7 0 3.102 1.401 3.102 3.101 0 .4-.103.8-.2 1.099l4.496 4.501c.302-.102.704-.2 1.099-.2a3.112 3.112 0 0 1 3.1 3.1c0 1.7-1.397 3.101-3.1 3.101-1.7 0-3.095-1.4-3.095-3.1 0-.4.097-.8.2-1.103l-4.205-4.2V27c1 .497 1.705 1.601 1.705 2.7 0 1.7-1.402 3.101-3.102 3.101a3.117 3.117 0 0 1-3.1-3.1c0-1.3.8-2.404 1.997-2.901V15.599c-1.197-.4-1.996-1.596-1.996-2.9 0-.402.097-.797.2-1.099l-4.6-4.6-12.1 12.3c-1 1.001-1 2.602 0 3.501l17.7 17.7c.997 1.001 2.598 1.001 3.497 0l17.7-17.7c1.103-1.001 1.103-2.602.102-3.501z" fill="#0078d7"/></svg>