<svg xmlns="http://www.w3.org/2000/svg" viewBox="0 0 38.75 40" height="40" width="38.75"><path d="M18.998.75C8.502.75 0 9.252 0 19.748c0 10.504 8.501 19 18.998 19 10.505 0 19-8.496 19-19 0-10.497-8.495-18.998-19-18.998zm5 35.498V33.05c0-1.299-.697-2.398-1.698-3.101h.2c1.801-.2 3.399-.8 3.399-.8s2.3-.699 3.603-2.198c1.3-1.6 1.7-3.901 1.7-3.901s.4-2.5 0-4.503c-.4-1.898-1.9-3.295-1.9-3.295s.498-1.303.4-2.602c0-1.3-.6-2.599-.6-2.599s-1.105-.102-2.3.402c-1.402.594-3.003 1.698-3.003 1.698s-1.099-.4-2.398-.502c-1.2-.2-2.602-.2-2.602-.2s-1.397 0-2.598.2c-1.299.2-2.402.502-2.402.502s-1.596-1.104-2.998-1.698c-1.2-.504-2.3-.402-2.3-.402s-.601 1.3-.601 2.599c0 1.299.401 2.602.401 2.602s-1.401 1.3-1.9 3.295c-.502 2.003 0 4.503 0 4.503s.298 2.3 1.7 3.901c1.299 1.5 3.598 2.198 3.598 2.198s1.602.6 3.399.8h.302c-.697.703-1.402 1.802-1.402 3.1v3.199c-7.098-2.1-12.197-8.697-12.197-16.5C1.801 10.252 9.502 2.552 19 2.552c9.503 0 17.3 7.701 17.3 17.197 0 7.803-5.2 14.4-12.3 16.5z" fill="#0078d7"/></svg>