<svg xmlns="http://www.w3.org/2000/svg" viewBox="0 0 45 50" height="50" width="45"><path d="M39.502 18.502v-2.203c0-4.4-1.602-8.502-4.404-11.397C32.5 1.9 26.698 0 22.402 0 18.1 0 12.3 1.9 9.702 4.902 7.003 7.797 5.298 11.9 5.298 16.3V18.5C1.401 18.501 0 20.801 0 23.8v20.904C0 47.3 1.601 50 4.6 50h35.6c3.399 0 4.6-2.7 4.6-5.297V23.799c0-2.7-1.099-5.297-5.298-5.297zm-26.303-1.1c0-2.602.902-5.904 2.401-7.602 1.5-1.7 4.697-2.5 6.802-2.597 2.1 0 5.298.897 6.797 2.597 1.5 1.698 2.402 3.901 2.402 6.401V18.4H13.2v-.997zM16.4 27.1l5.802-5.801 5.794 5.801h-4.096V31.3H20.4V27.1H16.4zM5.7 35.9V32.5h6v-3.998l5.6 5.6-5.6 5.6v-3.9l-6 .097zm16.504 11.304l-5.904-5.904h4.1v-4.096h3.502v4.096h4.2l-5.898 5.904zM38.7 35.899h-6v4.003L27.001 34.2 32.7 28.5V32.5h6.001v3.399z" fill="#0078d7"/></svg>