<svg xmlns="http://www.w3.org/2000/svg" viewBox="0 0 33.75 33.75" height="33.75" width="33.75"><path d="M22.183 25.721c.263.348.473.684.737.973 1.274 1.362 3.452 1.44 4.815.166 1.425-1.329 1.484-3.54.146-4.918-1.309-1.347-3.56-1.475-4.785-.048-.737.863-1.5.976-2.476.952-2.524-.04-5.049-.015-7.564-.015.167 3.55-1.171 5.752-3.837 6.274-2.598.514-4.985-.81-5.835-3.236-.962-2.75.225-4.947 3.647-6.7-.259-.923-.512-1.875-.771-2.813-3.74.816-6.529 4.439-6.24 8.512.249 3.603 3.149 6.79 6.699 7.362 1.928.312 3.74-.009 5.415-.961 2.163-1.227 3.413-3.16 3.998-5.548h6.05zM19.819 11.46c.152-.39.304-.703.416-1.025.385-1.177.146-2.242-.601-3.189-.913-1.163-2.524-1.586-3.886-1.064a3.452 3.452 0 0 0-2.203 3.374c.064 1.528 1.074 2.876 2.651 3.154.938.161 1.402.596 1.827 1.372 1.234 2.29 2.533 4.537 3.823 6.812 3.085-2.047 5.634-1.988 7.539.151 1.66 1.865 1.684 4.687.088 6.587-1.89 2.226-4.429 2.314-7.33.439-.795.665-1.547 1.299-2.3 1.924 2.94 2.925 7.13 3.311 10.44 1.04 3.237-2.226 4.35-6.49 2.71-10.088-1.362-2.988-5.147-5.776-10.185-4.214-.987-1.747-2.002-3.524-2.99-5.273zm-4.013 2.798c-3.262-1.65-4.458-3.823-3.672-6.49.699-2.348 3.047-3.872 5.435-3.524 1.201.19 2.241.678 3.066 1.6 1.235 1.412 1.509 3.062 1.138 4.903.996.274 1.908.522 2.822.761 1.201-3.3-.21-7.147-3.286-9.125a8.08 8.08 0 0 0-10.088 1.05c-1.426 1.4-2.202 3.115-2.388 5.102-.249 2.783.898 5.048 2.852 6.987-1.08 1.798-2.1 3.512-3.101 5.171-.278.03-.45.03-.625.054-2.026.288-3.461 2.1-3.125 3.935.386 2.09 2.285 3.365 4.224 2.853 2.06-.538 3.163-2.525 2.387-4.576-.287-.737-.112-1.215.249-1.787 1.362-2.276 2.715-4.566 4.112-6.914z" fill="#0078d7" fill-rule="evenodd"/></svg>