<svg xmlns="http://www.w3.org/2000/svg" viewBox="0 0 395 267.5" height="267.5" width="395"><g fill="#2a3282"><path d="M0 .15v266.099h394.8V.15H0zm375.098 244.702H14.6v-188.9h360.498v188.9z"/><path d="M145.899 144.451h-8.896v-8.701h-.202c-3.901 6.7-9.598 10.099-17.2 10.099-5.402 0-9.699-1.5-12.902-4.4-3.197-2.9-4.8-6.899-4.8-11.797 0-10.4 6.099-16.505 18.398-18.203l16.706-2.3c0-9.399-3.804-14.199-11.505-14.199-6.7 0-12.798 2.3-18.198 6.801v-9.199c1.601-1.2 4.399-2.402 8.399-3.603 4.004-1.099 7.5-1.699 10.6-1.699C139.4 87.25 146 94.251 146 108.147v36.304h-.102zm-8.896-28.202l-13.501 1.898c-4.6.704-7.803 1.803-9.703 3.302-1.9 1.498-2.798 3.998-2.798 7.5 0 2.802 1.001 5 2.997 6.698 2.003 1.705 4.6 2.5 7.7 2.5 4.4 0 8.102-1.596 11.002-4.696 2.9-3.101 4.303-7.002 4.303-11.7v-5.502zM214.101 114.852c0 9.4-2.3 16.997-6.899 22.598-4.605 5.6-10.8 8.399-18.5 8.399-7.3 0-12.9-3.101-16.7-9.4h-.2v33.7H162.9V88.652h8.901v9.8h.202c4.398-7.402 10.795-11.201 19.296-11.201 7.002 0 12.5 2.5 16.698 7.402 4.005 5 6.104 11.7 6.104 20.2zm-9.199-.102c0-6.001-1.4-10.801-4.302-14.4-2.803-3.599-6.699-5.4-11.699-5.4-5.102 0-9.301 1.801-12.5 5.297-3.202 3.604-4.8 8.102-4.8 13.604v7.798c0 4.702 1.499 8.598 4.6 11.802 3.1 3.198 6.899 4.696 11.396 4.696 5.4 0 9.605-2.098 12.7-6.196 3.102-4.101 4.605-9.901 4.605-17.201zM279.199 114.852c0 9.4-2.299 16.997-6.899 22.598-4.6 5.6-10.801 8.399-18.501 8.399-7.3 0-12.9-3.101-16.699-9.4h-.2v33.7h-8.902V88.652h8.902v9.8h.2c4.399-7.402 10.8-11.201 19.301-11.201 6.998 0 12.5 2.5 16.699 7.402 4.103 5 6.099 11.7 6.099 20.2zm-9.101-.102c0-6.001-1.397-10.801-4.297-14.4-2.803-3.599-6.7-5.4-11.7-5.4-5.102 0-9.301 1.801-12.5 5.297-3.202 3.604-4.8 8.102-4.8 13.604v7.798c0 4.702 1.5 8.598 4.6 11.802 3.102 3.198 6.9 4.696 11.397 4.696 5.4 0 9.605-2.098 12.7-6.196 3.1-4.101 4.6-9.901 4.6-17.201z"/></g></svg>