<svg xmlns="http://www.w3.org/2000/svg" viewBox="0 0 541.25 327.5" height="327.5" width="541.25"><path d="M495.2 168.352c27.5 12.895 45.499 42.1 45.499 75.498 0 38.599-24 71.201-56.7 79.8l-11.201 2.598H82.401C36.9 326.248 0 285.05 0 235.252c0-49.8 36.9-91 82.402-91 3.4 0 5.997 0 9.4.897 13.696-23.999 36.9-37.798 62.7-37.798 6.9 0 13.697.899 20.595 3.399v-3.399c0-59.198 42.9-106.401 96.104-106.401 36.899 0 71.201 24.903 86.699 61.801 13.701-8.602 29.2-13.701 45.499-13.701 51.504 0 92.7 46.403 92.7 102.999.801 5.2 0 10.302-.899 16.304z" fill="#00188f"/></svg>