<svg xmlns="http://www.w3.org/2000/svg" viewBox="0 0 361.25 448.75" height="448.75" width="361.25"><g fill="#2a3282"><path d="M248.901 95.5h-137.3c-9.398 0-17.201 7.7-17.201 17.201v334.8h171.699v-334.8c0-9.501-7.7-17.201-17.198-17.201zm-8.604 317.603H120.2V395.9h120.2v17.203h-.102zm0-34.406H120.2V361.5h120.2v17.197h-.102zm0-214.497H120.2v-17.201h120.2V164.2h-.102z"/><path d="M343.301 1.1h-137.3c-9.4 0-17.202 7.7-17.202 17.203V78.4H248.9c18.896 0 34.298 15.498 34.298 34.301V267.2h51.503V284.4H283.2v17.196h51.504V318.8h-51.504v34.303h77.299V18.2c0-9.4-7.7-17.1-17.197-17.1zm-8.599 68.599H214.6V52.5h120.2V69.7h-.098zM77.203 318.697H25.699V301.5h51.504v-17.201H25.699V267.1h51.504v-154.4C77.203 93.8 92.7 78.4 111.498 78.4h60.103V18.302c0-9.405-7.7-17.202-17.201-17.202H17.203C7.797 1.1 0 8.8 0 18.302v334.8h77.3v-34.405h-.097zM25.699 52.6h120.2V69.8h-120.2V52.6z"/></g></svg>