<svg xmlns="http://www.w3.org/2000/svg" viewBox="0 0 258.75 270" height="270" width="258.75"><g fill="#2a3282"><path d="M204.4 1.05H35.899C16.2 1.05 0 17.349 0 36.949V232.85c0 19.698 16.299 35.899 35.899 35.899h186.504c19.697 0 35.898-16.299 35.898-35.899V54.047L204.4 1.05zm31.699 231.801c0 7.702-6.001 13.696-13.696 13.696H35.899c-7.7 0-13.696-5.994-13.696-13.696V36.95c0-7.7 5.996-13.697 13.696-13.697H193.3V66.05H236.1v166.801z"/><path d="M57.402 118.053c-1.303-.504-2.5-.802-3.7-.802-3.205 0-4.8 1.699-4.8 5.2v3.399h7.3v7.3h-7.3v24.701h-9.8V133.15h-5.4v-7.3h5.4v-3.999c0-3.598 1.195-6.602 3.598-8.798 2.398-2.203 5.601-3.302 9.702-3.302 1.998 0 3.697.2 5 .6v7.702zM91.499 157.851h-9.8v-4.9h-.2c-2.398 3.797-5.698 5.696-9.8 5.696-7.398 0-11.099-4.497-11.099-13.496V125.85h9.8v18.399c0 4.501 1.803 6.8 5.401 6.8 1.797 0 3.198-.599 4.297-1.9 1.103-1.199 1.6-2.899 1.6-4.999v-18.3h9.8v32.001zM130.699 157.851h-9.8V140.05c0-5-1.798-7.398-5.299-7.398-1.699 0-3.1.699-4.199 1.998-1.104 1.303-1.698 3.002-1.698 5v18.301H99.8v-31.998h9.903v5.098h.097c2.403-3.901 5.8-5.801 10.298-5.801 7.104 0 10.6 4.4 10.6 13.203v19.4zM162.798 156.65c-2.198 1.3-5.395 1.9-9.698 1.9-4.901 0-8.901-1.499-11.899-4.503-3.002-2.997-4.6-6.795-4.6-11.498 0-5.4 1.598-9.698 4.898-12.9 3.301-3.101 7.602-4.698 13.101-4.698 3.799 0 6.499.499 8.198 1.499v8.399c-2.1-1.499-4.4-2.3-6.9-2.3-2.798 0-5.097.801-6.7 2.5-1.6 1.7-2.5 3.901-2.5 6.9 0 2.802.802 5.102 2.403 6.698 1.598 1.601 3.799 2.403 6.499 2.403 2.5 0 4.898-.802 7.198-2.3v7.9zM188.199 168.053h-8.102C173.4 160.65 170 151.547 170 140.753c0-10.402 3.399-19.703 10.098-27.7h8.002c-6.299 8.397-9.501 17.597-9.501 27.7 0 10.097 3.202 19.096 9.6 27.3zM214.903 168.053H206.9c6.401-8.102 9.599-17.203 9.599-27.3 0-10-3.198-19.205-9.599-27.7h8.1c6.801 7.997 10.098 17.196 10.098 27.7 0 10.595-3.4 19.8-10.196 27.3z"/></g></svg>