<svg xmlns="http://www.w3.org/2000/svg" viewBox="0 0 275 353.75" height="353.75" width="275"><g fill="#2a3282"><path d="M105.699 318.098H25V300.9h73.799c-1.699-5.2-3.4-11.201-3.4-17.201H25.9v-17.197H94.6c1.699-45.504 34.301-82.403 77.3-92.7v-156.1C171.9 8.299 164.199.5 154.702.5h-137.5C7.798.5 0 8.2 0 17.703v334.8h138.199c-14.498-8.702-24.8-20.704-32.5-34.405zM25 51.998h120.097v17.203H25V52z"/><path d="M191.499 319.801c-16.299 0-29.199-6.899-37.798-18.901v24L140 311.199V275.1h36.099l13.701 13.701h-26.601c6 9.4 16.304 13.701 29.204 13.701 16.298 0 30-12.002 33.496-27.5H243.1c-4.399 25.898-25.898 44.8-51.601 44.8zm50.601-55.8h-34.303L193.2 250.3h25.8c-6.001-9.4-16.299-12.9-28.3-12.9-16.299 0-30 12.001-33.497 26.601H140c3.399-24.902 24.902-43.799 50.6-43.799 16.3 0 28.301 5.997 37.799 17.998v-23.198l13.701 14.6v34.4zM192.403 189.3c-44.605 0-81.504 36.9-81.504 81.498 0 44.605 36.899 81.504 81.504 81.504 44.6 0 81.498-36.899 81.498-81.504 0-44.598-36.899-81.498-81.499-81.498z"/></g></svg>