<svg xmlns="http://www.w3.org/2000/svg" viewBox="0 0 258.75 352.5" height="352.5" width="258.75"><g fill="#2a3282"><path d="M101.001 351.251c-6.001 0-8.599-4.302-6.001-9.4l74.502-123.3c3.398-5.102 8.598-5.102 11.997 0L256 341.851c3.399 5.098.899 9.4-6.001 9.4H101.001zM154.101.25h-137C7.7.25 0 7.95 0 17.35v333.901h77.9c-1.699-6.001 0-12.002 2.597-18.003l9.405-16.3H25.7V299.85H100.2l10.297-17.1H25.7v-17.1h94.203l30.797-53.901c3.402-5.098 7.7-9.399 12.001-11.996 2.598-1.705 5.098-2.603 8.599-2.603V16.549C171.2 7.95 163.5.25 154.1.25zm-8.604 68.501H25.7v-17.1H145.6v17.1h-.102z"/></g></svg>