<svg xmlns="http://www.w3.org/2000/svg" viewBox="0 0 378.75 380" height="380" width="378.75"><path d="M188.799 1.15C84.1 1.15 0 86.15 0 189.949c0 103.798 84.101 188.799 188.799 188.799 104.702 0 188.901-84.898 188.901-188.8C377.7 86.053 293.599 1.15 188.799 1.15zm-17.1 85.801V26.85H206V86.95H223.2L188.9 156.447 154.6 86.951h17.099zm-77.3 137.299l-69.497-34.301L94.4 155.652v17.197h60.102v34.302H94.4v17.099zm111.602 60.099v60.102H171.7V284.35h-17.197L188.8 214.85 223.1 284.35h-17.099zm77.3-60.099v-17.201H223.2V172.75H283.3V155.55l69.496 34.301-69.496 34.399z" fill="#2a3282"/></svg>