<svg xmlns="http://www.w3.org/2000/svg" viewBox="0 0 441.25 276.25" height="276.25" width="441.25"><path d="M403.413 215.8V26.103c0-9.405-8.598-24.903-18.902-24.903H55.81c-10.297 0-20.6 15.498-20.6 24.903V215.8C-1.69 255.3.01 255.3.01 255.3.01 266.498 10.313 275 23.212 275h394c12.9 0 23.198-9.399 23.198-19.698L403.412 215.8zM250.61 258.7h-68.696c-3.403 0-6.904-1.698-6.904-3.399l7.7-12.9c0-1.698 2.602-2.602 6.001-2.602h54.903c2.597 0 5.2.904 5.2 2.602l8.599 12.9c.097 2.5-3.4 3.4-6.803 3.4zm136.504-43.799h-335.6v-187.1c0-4.301 4.296-10.302 9.399-10.302H378.51c5.2 0 8.603 6.001 8.603 10.302v187.1z" fill="#2a3282"/></svg>