<svg xmlns="http://www.w3.org/2000/svg" viewBox="0 0 318.75 431.25" height="431.25" width="318.75"><path d="M304.702 204.299c-6.905 0-12.9 6.001-12.9 12.9V265.3l-121-121.9V80.7c16.298-5.2 28.3-20.601 28.3-38.599C199.101 19.801 181.098.9 157.9.9c-22.3 0-41.201 17.997-41.201 41.201C116.699 60.1 128.7 75.603 145 80.7v62.7L25.801 261.799v-44.6c0-6.899-6.001-12.9-12.901-12.9C6 204.299 0 210.3 0 217.199V306.5h89.301c6.9 0 12.902-6 12.902-12.9 0-6.899-6.002-12.9-12.902-12.9H43.8l101.298-101.299v201.7L112.5 348.497c-5.2-5.195-12.9-5.195-17.997 0-2.603 2.602-3.404 6-3.404 9.404 0 3.398.903 6.9 3.403 9.4l62.7 62.7 62.7-62.7c5.196-5.2 5.196-12.9 0-18.003-5.2-5.098-12.9-5.2-18.002 0l-31.099 31V179.402l100.4 100.4h-42.1c-6.898 0-12.9 6.002-12.9 12.9 0 6.9 6.002 12.902 12.9 12.902H318.4v-88.404c-.801-7.7-6.798-12.9-13.696-12.9z" fill="#2a3282"/></svg>