<svg xmlns="http://www.w3.org/2000/svg" viewBox="0 0 63.75 67.5" height="67.5" width="63.75"><g fill="#00188f"><path d="M51.509 20.551h-4.6c0 8.496-6.9 15.402-15.4 15.402-8.502 0-15.4-6.906-15.4-15.402h-4.6c0 7.599 4.198 14.098 10.4 17.5L23.91 50.25c-6 2.802-10.102 8.9-10.102 16.001h4.902c0-7.002 5.698-12.7 12.7-12.7 6.998 0 12.7 5.698 12.7 12.7h5c0-7.1-4.203-13.199-10.102-16.002l2.002-12.197c6.299-3.402 10.498-10 10.498-17.5z"/><path d="M37.364 28.261a5.799 5.799 0 0 1-5.801 5.801 5.799 5.799 0 1 1 0-11.596 5.798 5.798 0 0 1 5.8 5.795z"/><path d="M62.002 15.63v-7.7H58.2v7.7h-.9v-7.7h-3.798v7.7H9.703v-7.7H5.899v7.7H5v-7.7H1.201v7.7H0v3.1h1.201v8.096H5V18.73h.899v8.096h3.804V18.73H53.5v8.096H57.3V18.73h.899v8.096h3.803V18.73H63.2v-3.1h-1.197z"/><path d="M30.454 8.34h2.3V.44h-2.3v7.9zM31.558 12.075c.4 0 .8-.098 1.098-.4.303-.298.4-.596.4-.899 0-.4-.2-.697-.4-.899-.297-.2-.6-.4-1.098-.4-.498 0-.802.098-1.002.4-.297.3-.4.5-.4.9s.2.698.4.898c.2.2.602.4 1.002.4z"/></g></svg>