<svg xmlns="http://www.w3.org/2000/svg" viewBox="0 0 327.5 473.75" height="473.75" width="327.5"><g fill="#2a3282"><path d="M297.9 21c-6.899-6.899-13.701-12.001-22.3-16.299L266.201 9V87.2c-4.301 13.697-18.901 24-34.301 24.898-15.499 0-29.2-10.298-34.303-23.999v-80L188.2 4.701C180.497 9 172.7 14.101 165.899 21c-37.799 37.799-37.799 97.901 0 135.601 6.001 6.001 11.201 11.201 18.002 15.498 0 0 3.399 1.7 5.2 3.399v254.004c0 23.198 20.601 42.9 43.799 42.9 23.199 0 42.1-19.702 42.1-42.9V174.598c9.4-4.297 16.299-10.298 23.199-17.998 37.5-37.802 37.5-97.9-.299-135.601zm-66.099 425.699c-9.398 0-17.201-7.7-17.201-17.197 0-9.502 7.7-17.202 17.201-17.202 9.4 0 17.198 7.7 17.198 17.202 0 9.497-7.7 17.197-17.198 17.197zM.098 459.599c0 6.9 6 12.901 12.9 12.901h51.505c6.898 0 12.9-6.001 12.9-12.901V343.7H.097V459.6zM64.4 275H51.498V103.398l8.6-42.9V.4H17.203v60.098l8.598 42.9v171.705H12.9C6 275.103 0 282 0 288.799v37.7h77.3V288.7C77.3 281.9 71.299 275 64.4 275z"/></g></svg>