<svg xmlns="http://www.w3.org/2000/svg" viewBox="0 0 27.5 40" height="40" width="27.5"><g fill="#0078d7"><path d="M6.87 36.249c0 .2 0 .4-.102.502-.098.098-.196.098-.395.098-.2 0-.304 0-.402-.098-.102-.102-.102-.2-.102-.502 0-.2 0-.401.102-.499.098-.103.201-.103.402-.103.2 0 .297 0 .395.103 0 .098.102.2.102.499zM11.069 32.353v.4h-.698c-.102 0-.2 0-.2.097-.102 0-.2.097-.302.2l-.3.298c-.102.102-.199.303-.301.503v3.1H8.47V32.25l.098-.098h.6l.099.098c.102.104 0 0 0 .104v.697a.8.8 0 0 1 .4-.4l.303-.297c.098-.104.2-.104.298-.104h.8s.103 0 .103.104v.2c-.103-.304-.103-.2-.103-.2zM15.771 36.649c0 .102 0 .102-.102.102h-.698v-.702a1.852 1.852 0 0 1-.703.6c-.298.102-.498.2-.797.2-.302 0-.6-.098-.902-.2-.299-.098-.402-.298-.602-.498-.2-.2-.297-.504-.297-.8-.098-.298-.098-.602-.098-.9 0-.4 0-.702.098-1.103.098-.298.2-.596.4-.795.2-.2.401-.402.601-.504.2-.098.498-.2.8-.2.299 0 .5.102.699.2.2.102.4.304.699.504v-2.7l.102-.104c.098-.098.098 0 .098 0h.502s.098 0 .098.104v6.796h.103zm-.902-3.199c-.202-.303-.402-.503-.7-.6-.199-.098-.399-.2-.698-.2-.2 0-.4.102-.502.2-.098.097-.298.2-.4.4-.098.2-.2.401-.2.601 0 .2-.099.4-.099.6 0 .2 0 .5.099.699 0 .2.102.4.2.6.102.2.2.299.302.401.098.098.298.2.498.2h.303c.098 0 .2-.102.298-.2l.298-.303c.102-.098.2-.298.4-.4V33.45h.2zM21.47 34.251c0 .4 0 .802-.097 1.1-.103.296-.2.6-.402.8-.2.2-.4.4-.6.498-.2.102-.502.2-.801.2h-.4c-.098 0-.2-.098-.298-.098-.102-.102-.2-.102-.303-.2l-.297-.302v2.402l-.103.098h-.6s-.098 0-.098-.098V32.05h.8v.703l.401-.4c.098-.103.298-.2.4-.303.098-.098.298-.098.395-.2.103-.098.303-.098.402-.098.302 0 .6.098.8.2.2.098.4.298.601.5.103.199.302.496.302.799 0 .299-.102.699-.102 1.001zm-.899.098c0-.2 0-.498-.102-.698 0-.2-.098-.401-.2-.601-.098-.2-.2-.298-.298-.4a.795.795 0 0 0-.504-.2h-.297c-.098 0-.2.103-.298.2l-.303.297c-.098.103-.2.303-.4.4v1.803c.2.297.4.497.704.6.2.098.395.2.697.2.2 0 .401-.102.499-.2.2-.103.302-.2.4-.4.102-.2.2-.4.2-.601 0-.2-.098-.2-.098-.4zM17.925 8.748l-4.698 4.698 4.698 4.701 1.601-1.498-3.198-3.203 3.198-3.198-1.601-1.5zM6.993 13.388l3.197 3.202-3.197 3.199 1.596 1.499 4.702-4.698-4.702-4.702-1.596 1.5z"/><path d="M21.099.14h-17.5A3.586 3.586 0 0 0 0 3.74v20.4a3.583 3.583 0 0 0 3.599 3.598h19.398a3.584 3.584 0 0 0 3.604-3.598V5.638L21.1.14zm3.604 23.999c0 .903-.705 1.601-1.603 1.601H3.701a1.577 1.577 0 0 1-1.6-1.601v-20.4c0-.9.696-1.596 1.6-1.596h16.596v4.496h4.406v17.5z"/></g></svg>