<svg xmlns="http://www.w3.org/2000/svg" viewBox="0 0 42.5 15" height="15" width="42.5"><path d="M40 .85H1.601C.7.85 0 1.55 0 2.451v9.698c0 .904.699 1.601 1.601 1.601H40a1.58 1.58 0 0 0 1.601-1.601V2.45A1.58 1.58 0 0 0 40 .851zM3.501 12.15c-.8 0-1.499-.699-1.499-1.5 0-.8.698-1.498 1.5-1.498.8 0 1.498.698 1.498 1.499 0 .899-.699 1.499-1.499 1.499zm35-.498h-8.403c-.298 0-.498-.2-.498-.504 0-.297.2-.497.498-.497h8.404c.297 0 .496.2.496.497 0 .2-.2.504-.496.504zm0-1.7h-8.403c-.298 0-.498-.2-.498-.502 0-.298.2-.499.498-.499h8.404c.297 0 .496.201.496.499 0 .302-.2.502-.496.502zm0-1.6h-8.403c-.298 0-.498-.201-.498-.498 0-.304.2-.504.498-.504h8.404c.297 0 .496.2.496.504 0 .297-.2.497-.496.497z" fill="#2a3282"/></svg>