<svg xmlns="http://www.w3.org/2000/svg" viewBox="0 0 41.25 42.5" height="42.5" width="41.25"><path d="M39.277 25.575l-3.3-1.401c-.503-.2-1.002-.498-.903-.6 0-.099.102-.699.102-1.3v-2.7c0-.6-.102-1.202-.102-1.3 0-.102.4-.399.902-.6l3.301-1.297c.498-.2.797-.802.595-1.402l-1.596-3.901c-.2-.499-.8-.797-1.401-.601l-3.301 1.303c-.498.2-1 .298-1.099.2-.103-.102-.4-.502-.8-1l-1.9-1.7c-.4-.4-.898-.702-1-.8-.099-.103 0-.601.2-1.098l1.401-3.302c.2-.502 0-1.201-.601-1.401l-3.901-1.601c-.497-.201-1.202 0-1.401.6l-1.397 3.301c-.2.498-.502 1-.6.898-.103 0-.699-.098-1.3-.2 0 0-.6-.098-1.401-.098-.8 0-1.299.097-1.299.097-.6.103-1.103.103-1.304.2-.097 0-.395-.4-.594-.897l-1.304-3.301c-.2-.498-.801-.801-1.396-.6l-3.903 1.6c-.502.201-.8.801-.6 1.402l1.299 3.302c.2.497.302.995.2 1.097-.098.099-.498.402-1.001.801l-1.597 1.9c-.4.4-.702.898-.8 1-.103.099-.601 0-1.099-.2l-3.3-1.4c-.503-.201-1.202 0-1.402.6L.074 15.078c-.201.497 0 1.196.6 1.396l3.301 1.401c.498.2 1 .498.898.6 0 .099-.098.699-.098 1.3v2.7c0 .6.098 1.099.098 1.299 0 .103-.4.4-.898.6L.674 25.672c-.498.2-.801.802-.6 1.402l1.6 3.901c.201.499.801.801 1.402.601l3.301-1.299c.498-.2.996-.302 1.098-.2.099.098.401.498.801.997l1.9 1.899c.4.4.898.703 1 .8.099.103 0 .6-.2 1.104l-1.4 3.295c-.201.504 0 1.202.6 1.402l3.902 1.602c.497.2 1.196 0 1.396-.6l1.401-3.301c.2-.499.497-1.001.6-.899.099 0 .699.098 1.3.2 0 0 .6.098 1.401.098.8 0 1.3-.098 1.3-.098.6-.102 1.098-.102 1.298-.2.102 0 .4.4.6.899l1.298 3.3c.2.499.802.801 1.402.601l3.901-1.602c.499-.2.801-.8.601-1.402l-1.299-3.295c-.2-.503-.302-1-.2-1.103.098-.098.498-.401.997-.801l1.899-1.9c.4-.4.703-.898.8-.995.103-.103.6 0 1.104.2l3.295 1.396c.504.2 1.201 0 1.402-.6l1.602-3.898c-.102-.8-.304-1.401-.899-1.6zm-19.302 6.001c-5.897 0-10.6-4.8-10.6-10.6 0-5.898 4.703-10.601 10.6-10.601a10.545 10.545 0 0 1 10.601 10.6c0 5.898-4.8 10.601-10.6 10.601z" fill="#2a3282"/></svg>