<svg xmlns="http://www.w3.org/2000/svg" viewBox="0 0 13.75 16.25" height="16.25" width="13.75"><path d="M2.5 1.801l-.6-.6C1.4.9.899.697.899.697L.2.497C.098.698 0 .8 0 1.1c0 .903.297 1.104.297 1.104H2.7c-.102-.103-.2-.201-.2-.402z" fill="#0078d7"/><path d="M2.9 14.199c.2-.2.299-.498.299-.9v-.502H11V12.3c0-2.597 2.3-6.401 2.3-9.4 0-2.403-2.3-2.7-2.3-2.7h-10S2.797.6 3.2 2.203c.102.2.102.4.102.697 0 2.999-2.3 6.803-2.3 9.4 0 .303 0 .698.098 1 .102.299.2.499.4.699.102.102.2.2.4.302.103.098.304.2.4.2.201 0 .401-.102.6-.302z" fill="#0078d7"/><path d="M3.701 13.399c0 .502-.2 1-.4 1.201-.303.302-.899.4-.899.4H12.5c.297 0 .6-.2.801-.499.2-.302.298-.702.298-1.201h-2.5l-7.398.099z" fill="#0078d7"/><path d="M7.998 6.801S7.9 6.7 7.798 6.7l-.2.102h-.196l-.102-.2s-.097-.102 0-.2l.102-.2c0-.102 0-.102-.102-.102l-.499-.2c-.102 0-.102 0-.102.102l-.2.2c0 .098-.098.098-.098.098h-.2c-.102 0-.2-.098-.2-.098l-.2-.2C5.801 5.9 5.7 5.9 5.7 5.9s-.099 0-.201.102c-.2 0-.298.098-.298.098s-.102.102-.102.2l.102.2v.2l-.102.2S5 7 4.902 6.899L4.6 6.8c-.098 0-.098 0-.098.098l-.2.503c0 .098 0 .098.098.098l.2.103c.103 0 .103.097.103.097v.2c0 .098 0 .098-.103.2l-.2.2c-.099 0-.099.099-.099.099s0 .102.099.2c.102.102.102.2.102.2s.098.102.2.102l.2-.102h.196l.2.2s.102.102 0 .2V9.5c0 .1 0 .1.102.1l.499.199C6 9.8 6 9.8 6 9.703L6.1 9.5c0-.102.102-.102.102-.102h.2c.098 0 .098 0 .2.102l.098.202c0 .097.102.097.102.097s.099 0 .201-.097A.42.42 0 0 0 7.3 9.6s.102-.099.102-.201l-.102-.2v-.2l.2-.2s.098-.098.2 0l.2.102c.098 0 .098 0 .098-.102l.2-.5c0-.102 0-.102-.098-.102L7.998 8.1c-.098 0-.098-.102-.098-.102v-.2c0-.098 0-.098.098-.195l.2-.103c.103 0 .103-.098.103-.098s0-.102-.102-.2c-.099-.303-.201-.4-.201-.4zM6.498 8.3c-.297.099-.6 0-.697-.302-.102-.298 0-.596.298-.698.302-.097.6 0 .702.303.099.297 0 .594-.302.697z" fill="#fff"/><path d="M10.6 5l-.102-.098h-.2c-.098 0-.098 0-.098-.102l-.2-.2v-.099l.098-.2V4.2L9.8 3.9h-.097l-.2.098H9.4L9.199 3.9 9.1 3.8v-.2c0-.098 0-.098-.102-.098h-.4L8.5 3.6v.2c0 .102 0 .102-.102.102l-.2.098H8.1l-.2-.2h-.103l-.395.4V4.3l.098.2V4.8l-.098.102h-.2c-.102 0-.102 0-.102.098v.4l.103.098h.2c.097 0 .097 0 .097.102l.098.2v.099l-.196.302V6.3L7.7 6.6h.097l.2-.102H8.1l.201.102.098.098v.2c0 .102 0 .102.102.102h.4L9 6.9v-.2c0-.098 0-.098.102-.098l.2-.102H9.4l.4.102h.102L10.2 6.3V6.2l-.102-.2v-.4l.102-.103h.2c.098 0 .098 0 .098-.098v-.2c.102-.097.102-.2.102-.2zM8.8 5.697c-.298 0-.498-.2-.498-.497 0-.298.2-.497.498-.497.302 0 .502.2.502.497 0 .298-.2.497-.502.497z" fill="#fff"/></svg>