<svg xmlns="http://www.w3.org/2000/svg" viewBox="0 0 45 43.75" height="43.75" width="45"><path d="M22.139 24.199l2.5 2.402 2.802-2.7c-.2-1.298.298-2.7 1.3-3.7 1-1.002 2.5-1.5 3.798-1.3l12.3-11.9L37.94.4 25.743 12.3c.097 1.299-.303 2.7-1.304 3.7-.997 1.001-2.5 1.402-3.799 1.3L17.74 20l2.5 2.402-12.099 11.7-.499-.4-2.3 1.796-3.901 6L2.44 42.5l6.202-3.799 1.9-2.3L10.14 36 22.14 24.199zM29.14 23.1c-.098.4-.098.801-.098 1.201l.098.499-.4.302-2.798 2.7-1 .997-2.5-2.398-1.3 1.3L34.84 41c.904.899 2.002 1.3 3.204 1.3 1.196 0 2.298-.401 3.197-1.3a4.23 4.23 0 0 0 0-6.2l-12.1-11.7zM12.54 19.501L16.64 23.5l1.3-1.299-1.7-1.703-.8-.698 4.301-4.103.498.103h.401c.302 0 .503 0 .8-.103l-2.5-2.397-.2-.103c.899-3.094.102-6.596-2.398-8.998C13.842 1.8 10.24 1 7.041 1.8l5.4 5.2-1.401 5.2L5.743 13.5.34 8.197c-.902 3.102 0 6.504 2.5 9.004 2.599 2.599 6.398 3.296 9.698 2.3z" fill="#2a3282" fill-rule="evenodd"/></svg>