<svg xmlns="http://www.w3.org/2000/svg" viewBox="0 0 115 98.75" height="98.75" width="115"><path d="M105.743 7.399C94.439-5.101 70.84.299 57.339 19.6 40.039-1.098 19.639-5.1 8.339 7.4-23.36 41.998 44.64 91.797 57.042 97.5c12.398-5.601 80.4-55.504 48.702-90.102zM81.337 67.5c1.705 1.7 1.705 4.296 0 5.899-.897.897-1.996 1.097-3.094 1.097-1.104 0-2.3-.297-3.102-1.097L56.74 55 38.243 73.4c-.904.897-2.003 1.097-3.102 1.097-1.103 0-2.3-.297-3.1-1.097-1.7-1.7-1.7-4.302 0-5.899L50.44 49.098l-18.399-18.4c-1.7-1.698-1.7-4.296 0-5.897 1.7-1.7 4.296-1.7 5.899 0L56.337 43.2 74.741 24.8c1.699-1.7 4.297-1.7 5.9 0 1.698 1.699 1.698 4.297 0 5.898l-18.4 18.399L81.337 67.5z" fill="#2a3282"/></svg>