<svg xmlns="http://www.w3.org/2000/svg" viewBox="0 0 15 16.25" height="16.25" width="15"><path d="M10.743 14.249a.211.211 0 0 1-.2-.2V9.55c0-.102.097-.2.2-.2.097 0 .2.098.2.2v4.6c0 .098-.103.098-.2.098zM12.041 6.349a.6.6 0 1 1-1.2 0 .6.6 0 0 1 1.2 0z" fill="#fff"/><path d="M6.806.279c-2.098.498-3.3 2.802-2.7 5.102.602 2.3 2.7 3.8 4.8 3.297 2.1-.5 3.302-2.798 2.7-5.098-.497-2.402-2.7-3.901-4.8-3.301zM11.299 9.303c-.4 0-.801.697-1.397.996-.6.302-1.2.8-2.9 0-1.705-.801-1.904-1.5-3.3-1.5C2.3 8.799 0 11.299 0 15h14.199s-.2-2.5-1-3.799c-.996-1.898-1.5-1.898-1.9-1.898z" fill="#0078d7"/><path d="M12.641 4.849H8.842c-.302 0-.6.298-.6.601v2.597c0 .303.298.6.698.6h.704v4.703c0 .601.395 1.001.898 1.001.498 0 .898-.4.898-.904h.2v-.6c0-.2.304-.298.304-.298v-.298c-.304-.102-.504-.302-.504-.4v-.302l.2-.2c.104-.099.304-.499.304-.499s-.304-.4-.304-.502c-.098-.098-.098-.3-.2-.397v-.2c.102-.502.704-1.001.704-1.001h.497c.299 0 .602-.303.602-.6v-2.7c0-.303-.2-.601-.602-.601zm-2.201 8.7c0 .201 0 .3-.201.3-.2 0-.2-.202-.2-.3V9.152c0-.2.102-.302.2-.302.2 0 .2.2.2.302v4.399zm.303-7.098c-.303 0-.602-.304-.602-.6 0-.304.299-.601.602-.601.297 0 .6.297.6.6 0 .297-.2.601-.6.601z" fill="#0078d7"/><path d="M12.641 4.85H8.842c-.302 0-.6.297-.6.6v2.597c0 .303.298.601.698.601h.704v4.702c0 .6.395 1 .898 1 .498 0 .898-.4.898-.902h.2v-.6c0-.201.304-.299.304-.299v-.297c-.304-.103-.504-.304-.504-.401v-.303l.2-.2c.104-.097.304-.498.304-.498s-.304-.4-.304-.503c-.098-.097-.098-.298-.2-.395v-.2c.102-.504.704-1.001.704-1.001h.497c.299 0 .602-.303.602-.602v-2.7c0-.302-.2-.6-.602-.6zm-2.201 8.7c0 .201 0 .298-.201.298-.2 0-.2-.2-.2-.297v-4.4c0-.2.102-.303.2-.303.2 0 .2.2.2.303v4.4zm.303-7.1c-.303 0-.602-.302-.602-.6 0-.303.299-.6.602-.6.297 0 .6.297.6.6 0 .298-.2.6-.6.6z" fill="none" stroke="#fff" stroke-width=".2" stroke-miterlimit="10"/></svg>