<svg xmlns="http://www.w3.org/2000/svg" viewBox="0 0 338.75 340" height="340" width="338.75"><path d="M169.301.15C75.601.15 0 75.75 0 169.451 0 263.148 75.6 338.75 169.301 338.75c93.697 0 169.298-75.602 169.298-169.298C338.599 75.75 262.998.15 169.3.15zM314.2 157.65h-33.1c-1.596-26.001-7.1-50.4-16.499-71.699 5.497-3.204 11-6.299 15.8-10.201 18.901 21.997 31.5 50.401 33.799 81.9zm-47.196-96.099c-3.204 2.398-7.1 4.698-11.002 7.1-6.299-11.001-14.2-21.299-22.1-29.902C245.7 45.052 256.7 52.05 267.002 61.55zM181.099 30.85c22.802 4.701 43.301 21.303 57.5 45.702-17.3 7.1-36.998 11.798-57.5 13.399V30.849zm0 78.701c23.604-1.603 46.499-6.3 66.201-15.801 7.9 18.901 12.602 40.2 14.199 63.002H181.2l-.102-47.201zm80.4 71.699c-1.597 23.603-6.299 45.702-15 63.804-19.698-8.702-41.699-15-65.4-16.504V180.55H261.4v.699h.098zm-184.296 0H157.5v48.002c-23.599 1.598-46.499 6.299-66.201 15.802C83.5 226.15 78.7 204.149 77.203 181.249zm0-23.599c1.596-23.599 6.298-45.699 15-63.799 19.697 8.701 41.698 15 65.394 16.499v47.999H77.3v-.699h-.097zM157.5 30.849V89.95c-20.498-1.601-39.4-6.299-56.699-14.2C115 52.05 135.4 35.55 157.5 30.849zm-52.797 7.9c-7.902 7.9-15 17.3-21.304 28.403-3.896-2.402-7.1-4.702-10.2-7.1C82.7 52.05 93.7 44.252 104.703 38.75zm-45.705 35.4c4.703 3.901 10.2 7.1 15 10.2-9.496 21.299-15.8 46.5-17.3 73.301h-33.1c3.1-31.499 15.703-60.699 35.4-83.501zm-1.498 107.1c1.601 26.001 7.1 50.4 16.499 71.698-5.498 3.204-11.001 6.304-15.8 10.2C39.3 240.35 26.699 211.951 24.3 181.25H57.5zm14.101 96.103c3.199-2.402 7.1-4.702 10.997-7.105 6.303 11.001 14.203 21.304 22.105 29.903C92.9 293.949 81.9 286.049 71.6 277.352zM100 261.65c17.3-7.1 37.002-11.797 57.5-13.399v59.102C134.6 303.35 115 286.85 100 261.65zm81.099 46.4v-59.1c20.502 1.6 39.399 6.298 56.699 14.198-14.097 23.702-34.6 40.202-56.7 44.903zm74.101-36.2c3.901 2.402 7.1 4.702 10.2 7.1-9.501 8.7-20.497 15.703-31.499 21.298 7.9-7.895 15-18.197 21.299-28.398zm24.4-7.099c-4.697-3.901-10.2-7.1-15-10.2 9.501-21.3 15.8-46.5 17.3-73.301h33.901c-3.901 31.498-16.5 60.702-36.201 83.501z" fill="#00188f"/></svg>