<svg xmlns="http://www.w3.org/2000/svg" viewBox="0 0 322.5 326.25" height="326.25" width="322.5"><g fill="#00188f"><path d="M315.2 119.399H93.901c-3.901 0-7.9 3.202-7.9 7.9v140.2c0 3.9 3.198 10.2 7.9 10.2H188.4v15c0 4.702-7.1 13.404-12.598 13.404H160c-17.3 0-29.902 4.697-29.902 14.198 0 4.698-.797 4.698 16.503 4.698h8.696c13.404 0 15.802-7.9 29.103-7.9h33.901c13.398 0 23.599 7.9 32.299 7.9h8.701c17.3 0 17.3-.802 17.3-4.698 0-8.7-13.402-14.198-30.702-14.198h-15.801c-4.698 0-10.997-8.702-10.997-13.404v-15H313.6c3.901 0 7.9-5.498 7.9-10.2V127.2c1.601-3.901-1.597-7.802-6.299-7.802zm-15.697 133.9H110.498V143.002h189.005V253.3z"/><path d="M71.001 245.399V127.2c0-12.602 10.2-23.598 23.6-23.598h62.996V17c0-8.701-7.1-15.801-15.796-15.801h-126C7.101 1.2 0 8.3 0 17.001v307.196h115.801v-5.594c0-5.503 1.601-19.703 22.099-26.803H24.6V276H74.2c-1.601-3.199-2.398-7.1-2.398-10.2V260.3H24.503V244.6h46.499v.8zM23.8 40.6H134.1v23.598H23.8V40.6z"/></g></svg>