<svg xmlns="http://www.w3.org/2000/svg" width="64" height="64" viewBox="0 0 64 64"><title>Icon-Architecture/48/Arch_Amazon-Elastic-Inference_48</title><g fill="none" fill-rule="evenodd"><path fill="#01a88d" d="M0 0h64v64H0z"/><path fill="#fff" d="M48.185 33.637a1.51 1.51 0 0 0-1.5-1.516c-.827 0-1.5.68-1.5 1.516a1.51 1.51 0 0 0 1.5 1.515c.827 0 1.5-.68 1.5-1.515M43 20.777a1.51 1.51 0 0 0-1.5-1.516c-.827 0-1.5.68-1.5 1.516s.673 1.515 1.5 1.515c.828 0 1.5-.679 1.5-1.515m-5.906 8.665a1.51 1.51 0 0 0 1.5 1.515c.827 0 1.5-.68 1.5-1.515a1.51 1.51 0 0 0-1.5-1.516c-.827 0-1.5.68-1.5 1.516m-21.322-4.459L12 27.559v2.748l3.332-2.036 1.036 1.728L12 32.67l.001 3.896 4.05 2.665 4.186-2.833 1.113 1.68-4.35 2.94v4.967l3.957 2.525 4.307-2.752 1.068 1.708-3.503 2.239 3.245 2.073L30 49.043v-10.29l-8.898 5.294-1.016-1.741 5.217-3.104v-3.288l-4.17-2.737-4.718 2.67-.976-1.764 4.624-2.616v-4.025zM54 27.344v10.737c0 .365-.194.702-.507.88a.99.99 0 0 1-1.008-.014l-3.876-2.358a3.45 3.45 0 0 1-1.924.584c-1.93 0-3.5-1.586-3.5-3.536s1.57-3.536 3.5-3.536 3.5 1.586 3.5 3.536c0 .49-.1.958-.279 1.383L52 36.294v-8.408l-5.554-3.743a1.01 1.01 0 0 1-.446-.84v-1.516h-1.145c-.432 1.46-1.772 2.526-3.355 2.526-1.929 0-3.5-1.586-3.5-3.536s1.571-3.537 3.5-3.537c1.583 0 2.923 1.067 3.355 2.526H46v-1.95l-9.379-5.638-4.62 2.622v8.935l4.658 2.762a3.46 3.46 0 0 1 1.935-.592c1.93 0 3.5 1.587 3.5 3.537s-1.57 3.536-3.5 3.536-3.5-1.586-3.5-3.536c0-.485.097-.947.273-1.368l-4.871-2.889a1.01 1.01 0 0 1-.495-.872v-9.575l-3.536-2.48L22 14.952v5.319h-2V16.16l-3 1.812v5.392l4.066 2.33L26 22.728V19.26h2v4.042c0 .356-.185.687-.49.869l-5.447 3.274v3.932l4.785 3.14c.284.187.455.506.455.848v2.646L30 36.407v-3.525l-4.625-3.738 1.25-1.578 5 4.042c.238.191.375.482.375.788v7.073h2v2.02h-2v8.084c0 .332-.161.643-.432.832l-4.904 3.416a.985.985 0 0 1-1.101.022l-10.097-6.447a1.01 1.01 0 0 1-.466-.855v-5.59l-4.545-2.992a1.01 1.01 0 0 1-.455-.846v-5.014l.001-5.076c0-.336.165-.649.44-.837l4.56-3.116V17.4c0-.357.185-.686.488-.869l10.505-6.343a.99.99 0 0 1 1.083.037l3.98 2.794 5.088-2.889a.99.99 0 0 1 1.002.013l10.365 6.23c.303.181.488.512.488.867v5.522l5.555 3.742c.278.188.445.503.445.84m-2.462 15.174-.752-.663-6.648 6.716c-.073-.008-.145-.022-.22-.022a2.02 2.02 0 0 0-2.007 2.028c0 1.117.9 2.027 2.006 2.027a2.02 2.02 0 0 0 2.007-2.027 2 2 0 0 0-.067-.494zm-5.012.902.711-1.888a9.2 9.2 0 0 0-3.32-.62c-5.465 0-10.083 4.892-10.083 10.681h2c0-4.613 3.778-8.66 8.083-8.66a7.2 7.2 0 0 1 2.61.487m5.737 2.297A10.9 10.9 0 0 1 54 51.593h-2a8.87 8.87 0 0 0-1.419-4.78z"/></g></svg>