<svg xmlns="http://www.w3.org/2000/svg" width="64" height="64" viewBox="0 0 64 64"><title>Icon-Architecture/48/Arch_AWS-CodeArtifact_48</title><g fill="none" fill-rule="evenodd"><path fill="#c925d1" d="M0 0h64v64H0z"/><path fill="#fff" d="m29.063 36.891 4.652-10.39 1.826.817-4.651 10.39zm6.583-3.25 2.593-1.892-2.286-2.318 1.423-1.405 3.1 3.145a1 1 0 0 1-.121 1.51l-3.53 2.575zm-6.687-4.12-2.631 1.921 2.293 2.32-1.422 1.405-3.112-3.144a1 1 0 0 1 .122-1.51l3.572-2.608zm-1.244-17.799-15.714 9.292v17.862h-2V20.443a1 1 0 0 1 .49-.86L26.7 10zm26.286 13.154v19.017c0 .358-.192.688-.501.867l-16.194 9.324-.998-1.733L52 43.315V24.876zM44 38.81l-11.56 6.573L21 38.68V25.397l11.43-6.57L44 25.532zm2 .582V24.957a1 1 0 0 0-.5-.865l-12.567-7.286a1 1 0 0 0-1-.002L19.5 23.952a1 1 0 0 0-.5.867v14.434c0 .355.188.683.494.863l12.43 7.285a1.01 1.01 0 0 0 1 .006l12.57-7.147c.312-.178.506-.51.506-.869"/></g></svg>