<svg xmlns="http://www.w3.org/2000/svg" viewBox="0 0 82.650002 83.849998" height="83.85" width="82.65"><path d="M71.246 2.746H27.807c-6.3 0-11.406 5.107-11.406 11.406v20.63c7.004-.195 13.774 3.74 16.861 10.517a17.852 17.852 0 0 1 1.546 9.028c-.07.773-1.653 3.333-1.653 3.333v2.75c5.752-2.023 12.198.64 14.775 6.296.342.75.599 1.517.776 2.29h22.54c6.299 0 11.405-5.106 11.405-11.405V14.152c0-6.3-5.106-11.405-11.405-11.405" fill="#99441f"/><path d="M71.246-.004H27.807c-6.3 0-11.406 5.107-11.406 11.406v20.63c7.004-.196 13.774 3.74 16.861 10.516 2.28 5.003 2.065 10.5-.107 15.112 5.752-2.023 12.198.64 14.775 6.295.342.75.599 1.518.776 2.292h22.54c6.299 0 11.405-5.108 11.405-11.406V11.4c0-6.298-5.106-11.405-11.405-11.405" fill="#f47227"/><path d="M31.056 50.351v-3.125l-4.832-.712a13.088 13.088 0 0 0-3.497-3.246l.987-5.764-5.147 1.199-.99 2.647a13.088 13.088 0 0 0-4.76.161l-6.17-3.413v3.124l1.169 2.565a13.08 13.08 0 0 0-3.25 3.487L0 48.308v3.125l2.632.984c-.098.65-.149 1.308-.15 1.97 0 .933-2.24.84-2.24.84v3.125l2.278 5L5.053 62.2c.74 1.005 1.61 1.88 2.574 2.617l-.044.135v3.124l5.147 1.924.973-2.6c1.57.237 3.195.196 4.798-.16l1.148 2.52 5-2.279v-3.124l-.113-.25a13.175 13.175 0 0 0 2.23-2.663l2.606.974 1.924-5.147v-3.124l-2.615 2.146c.232-1.567.19-3.186-.167-4.783l2.542-1.158" fill="#99441f"/><path d="M43.976 73.148l2.414-.755v-3.125l-3.802-.536a8.081 8.081 0 0 0-2.783-2.561l.555-2.475v-3.124l-5.071 4.585a8.103 8.103 0 0 0-2.82.706c-.276.126-.54.268-.795.42l-4.997-1.432v3.124l1.86 1.712c-.162.333-.418 1.027-.418 1.027l-2.823.302v3.125l1.382 4.417 2.42-.756a8.07 8.07 0 0 0 2.23 2.224l-.002 2.812 4.517 1.012.554-2.473a8.11 8.11 0 0 0 2.82-.706c.276-.127.54-.268.795-.42l1.861 1.713 3.135-3.406v-3.124l-1.15-.78c.084-.495.124-.999.118-1.506" fill="#99441f"/><path d="M31.055 47.226l-2.278-5-2.554 1.163a13.09 13.09 0 0 0-3.496-3.245l.987-2.64-5.147-1.925-.99 2.646c-1.56-.232-3.17-.19-4.76.162l-1.17-2.567-5 2.278 1.168 2.565c-1.31.969-2.399 2.157-3.249 3.486l-2.641-.988L0 48.308l2.632.985a13.104 13.104 0 0 0 .154 4.775L.24 55.228l2.279 5 2.533-1.154a13.085 13.085 0 0 0 3.505 3.27l-.975 2.607 5.147 1.924.972-2.6a13.08 13.08 0 0 0 4.799-.16l1.148 2.52 5-2.28-1.148-2.521a13.088 13.088 0 0 0 3.265-3.516l2.606.975 1.924-5.147-2.615-.979a13.08 13.08 0 0 0-.168-4.782l2.542-1.159M43.975 70.024l2.415-.756-1.382-4.417-2.42.757a8.079 8.079 0 0 0-2.783-2.562l.554-2.474-4.516-1.013-.555 2.474a8.114 8.114 0 0 0-2.819.706c-.276.126-.54.268-.796.42l-1.86-1.713-3.136 3.405 1.86 1.712a8.156 8.156 0 0 0-.827 3.698l-2.414.755 1.382 4.418 2.42-.757a8.078 8.078 0 0 0 2.783 2.562l-.555 2.474 4.517 1.012.554-2.473a8.108 8.108 0 0 0 2.819-.706 8.16 8.16 0 0 0 .796-.42l1.861 1.713 3.135-3.405-1.86-1.712a8.164 8.164 0 0 0 .827-3.698" fill="#f47327"/><path d="M14.232 48.117a3.442 3.442 0 1 0 2.853 6.265 3.442 3.442 0 0 0-2.853-6.265M34.919 68.114a2.229 2.229 0 1 0 1.847 4.057 2.229 2.229 0 0 0-1.847-4.057M60.346 31.81l13.793-13.794-3.764-3.763-10.03-10.03V9.21H44.764v17.54h15.583v5.06M39.95 14.253V9.21H22.702v17.54h17.25V14.253M78.951 47.525l-3.763-3.764-10.03-10.03v4.987H49.576V56.26h15.582v5.06L78.95 47.524M33.262 42.548c.187.41.33.826.484 1.241a17.875 17.875 0 0 1-.03 12.498h11.047v-17.54h-13.85a17.969 17.969 0 0 1 2.35 3.801" fill="#fff"/></svg>