<svg xmlns="http://www.w3.org/2000/svg" viewBox="0 0 125 125" height="125" width="125"><path d="M19.878 44.411l.016 48.237 42.602 21.305L105.1 92.655v-12.06l-36.225-4.509.03-27.17 36.22-4.497.003-12.056-42.624-21.316-42.626 21.307v12.057" fill="#7f631e"/><path d="M19.895 80.586L62.498 93.37l-.002 20.582-42.602-21.305V80.586" fill="#7f631e"/><path d="M25.319 95.359l-5.447-2.722.006-60.283 5.446-2.721-.005 65.726" fill="#7f631e"/><path d="M68.905 76.086L25.32 82.213l.002-39.435 43.584 6.139v27.17M105.125 44.42L62.504 31.627V11.047l42.624 21.316-.003 12.056M105.1 80.595L62.499 93.37l-.003 20.582L105.1 92.655v-12.06" fill="#d5a22c"/><path d="M46.802 73.538l15.696 1.957.004-26.098-15.697 1.996-.003 22.145M30.99 71.58l10.19 1.266V52.108l-10.19 1.297v18.176" fill="#7f631e"/><path d="M25.321 42.778l37.183-11.15 42.621 12.791-36.22 4.498-43.584-6.14" fill="#5b431a"/><path d="M25.319 82.213l37.18 11.158 42.6-12.776-36.194-4.509-43.586 6.127" fill="#f8d57b"/><path d="M105.103 70.118l-42.604 5.377.003-26.098 42.6 5.426v15.295" fill="#d5a22c"/></svg>