<svg xmlns="http://www.w3.org/2000/svg" viewBox="0 0 125 125" height="125" width="125"><path d="M56.446 85.078l43.235 10.286 5.444-2.724V32.36l-5.444-2.722L56.446 39.78v45.298" fill="#7f631e"/><path d="M56.446 31.57v61.94l28.742 9.098 7.967-3.98V26.374l-7.967-3.983-28.742 9.178" fill="#7f631e"/><path d="M93.155 98.627l-7.967 3.981V22.392l7.967 3.983v72.252M105.125 92.64l-5.444 2.724V29.638l5.444 2.722v60.28" fill="#d5a22c"/><path d="M49.75 83.518l-12.674-2.954V44.439l12.673-2.955v42.034zm12.748-72.471L19.876 32.36l.023 60.29 42.6 21.303 12.753-6.376V17.423l-12.753-6.376" fill="#7f631e"/><path d="M25.321 82.22l24.42 7.325.007-6.028-12.672-2.953-11.755 1.655" fill="#f8d57b"/><path d="M37.076 80.564l-11.755 1.655V42.781l11.755 1.658v36.125" fill="#d5a22c"/><path d="M49.75 41.484L37.075 44.44l-11.755-1.658 24.429-7.329v6.032" fill="#5b431a"/><path d="M75.25 107.577L62.5 113.953V11.047l12.751 6.376v90.154" fill="#d5a22c"/></svg>