<svg xmlns="http://www.w3.org/2000/svg" viewBox="0 0 125 125" height="125" width="125"><defs><clipPath id="a"><path d="M860 413.203V229.285H228.691v183.918H860z"/></clipPath><clipPath id="b"><path d="M299.043 665.945c0-2.144-.02-4.312-.02-6.519v-23.633c0 2.187.02 4.375.02 6.52v23.632z"/></clipPath><clipPath id="c"><path d="M269.18 637.512v-23.633V637.512z"/></clipPath></defs><path d="M107.5 73.35v22.99H28.586V73.35H107.5" fill="#7f631e"/><g clip-path="url(#a)" transform="matrix(.13 0 0 -.13 0 125)"><path d="M860 413.203V229.285H228.691v183.918H860" fill="#7f631e"/></g><path d="M107.5 43.546v49.839H28.586v-30.62c1.214.242 2.471.366 3.743.366 5.786 0 10.952-2.59 14.404-6.655 4.402 2.86 10.97 7.121 20.804 13.518L107.5 43.546" fill="#d5a22c"/><path d="M48.145 51.18v2.952C67.37 66.4 67.519 66.501 67.522 66.501l36.897-24.41v-2.954L48.145 51.18" fill="#7f631e"/><path d="M51.045 39.137h53.374L67.522 63.541c-.003 0-.151-.092-19.378-12.36 1.888-2.925 3.008-6.382 3.008-10.113 0-.654-.031-1.309-.107-1.93M37.38 41.757l-.002.815v2.954l.002-.815v-2.954" fill="#d5a22c"/><g clip-path="url(#b)" transform="matrix(.13 0 0 -.13 0 125)"><path d="M299.043 665.945v-23.632c0-2.145-.02-4.333-.02-6.52v23.633c0 2.207.02 4.375.02 6.519" fill="#d5a22c"/></g><path d="M33.648 45.311V48.1v-2.952.163" fill="#d5a22c"/><g clip-path="url(#c)" transform="matrix(.13 0 0 -.13 0 125)"><path d="M269.18 637.512v-23.633V637.512" fill="#d5a22c"/></g><path d="M33.142 47.948c.52-.913.505-1.768.505-2.8v-.567c-1.928 0-3.96.398-3.96 2.65 0 1.144.586 1.918 1.614 1.918.752 0 1.426-.454 1.841-1.201m12.476-12.471c2.055 3.868 1.96 8.145.598 12.076-.752 1.96-2.09 3.971-4.407 5.082-.676.384-1.445.552-2.226.552-1.97 0-4.021-1.074-4.922-2.575-.154-.228-.29-.443-.491-.716-1.458 1.475-2.485 1.919-4.387 1.919-2.241 0-3.987-1.37-3.987-4.125 0-2.135 1.177-3.592 2.84-4.313 1.452-.622 3.464-.744 5.012-.912v-.352c0-.622.048-1.365-.32-1.914-.34-.491-.955-.689-1.507-.689-1.01 0-1.916.518-2.134 1.59-.044.236-.214.469-.456.48l-2.59-.273c-.22-.049-.46-.226-.4-.547.597-3.107 3.417-4.048 5.966-4.048 1.287 0 2.976.35 4.004 1.327 1.286 1.183 1.167 2.797 1.167 4.533V46.7c0 1.218.505 1.765.979 2.41.31.23.661.344 1.028.344 1.233 0 2.675-1.234 3.452-3.226 1.077-2.831 1.194-6.521-.23-9.138-1.806-3.374-6.1-5.278-10.305-5.278-2.434 0-4.839.642-6.706 2.004-5.415 3.716-7.027 12.102-3.164 17.586 2.353 3.704 6.609 5.673 10.935 5.673 2.42 0 4.86-.615 7.004-1.894a1.132 1.132 0 0 1 1.577.408c.308.537.11 1.22-.444 1.523-2.483 1.577-5.415 2.342-8.362 2.342-5.007 0-10.054-2.22-12.9-6.573-4.77-6.612-3.147-16.66 3.572-21.504 2.436-1.887 5.6-2.717 8.64-2.717 1.037 0 2.063.097 3.034.283 3.897.594 8.042 2.683 10.13 6.533" fill="#d5a22c"/></svg>