<svg xmlns="http://www.w3.org/2000/svg" viewBox="0 0 125 125" height="125" width="125"><path d="M84.225 97.175h-43.45c-6.296 0-11.4-5.104-11.4-11.4v-43.45c0-6.296 5.104-11.4 11.4-11.4h43.45c6.296 0 11.4 5.104 11.4 11.4v43.45c0 6.296-5.104 11.4-11.4 11.4" fill="#99441f"/><path d="M84.225 94.075h-43.45c-6.296 0-11.4-5.104-11.4-11.4v-43.45c0-6.296 5.104-11.4 11.4-11.4h43.45c6.296 0 11.4 5.104 11.4 11.4v43.45c0 6.296-5.104 11.4-11.4 11.4" fill="#f47327"/><path d="M41.434 57.584h42.085V37.749H41.434v19.835z" fill="#fff"/><path d="M44.647 54.31h9.982V41.026h-9.982V54.31zM57.481 54.31h9.988V41.026H57.48V54.31zM70.32 54.31h9.988V41.026H70.32V54.31z" fill="#f47327"/><path d="M41.434 84.151h42.085V64.315H41.434v19.836z" fill="#fff"/><path d="M44.647 80.875h9.982V67.591h-9.982v13.284zM57.481 80.875h9.988V67.591H57.48v13.284zM70.32 80.875h9.988V67.591H70.32v13.284z" fill="#f47327"/></svg>