<svg xmlns="http://www.w3.org/2000/svg" viewBox="0 0 125 125" height="125" width="125"><path d="M73.788 86.977V73.892l-5.572-5.572-3.682-3.682 3.682-3.682 5.572-5.571V41.992h6.543v-4.277L62.5 25.473 44.67 37.715v4.277h6.542v13.393l5.572 5.572 3.682 3.681-3.682 3.682-5.572 5.572v13.085l-6.543-3.969v4.277l17.831 17.83 17.83-17.83v-4.277l-6.542 3.969" fill="#99441f"/><path d="M52.137 64.638v-4.276l-17.83-5.019H18.06v18.59h16.246v8.536l17.83-17.83M106.94 55.343H90.694l-17.83 5.019v4.276l17.83 17.83v-8.534h16.246v-18.59" fill="#99441f"/><path d="M73.788 82.7V69.617l-5.572-5.572-3.682-3.682 3.682-3.682 5.572-5.572V37.715h6.543L62.5 19.885l-17.83 17.83h6.542v13.393l5.572 5.572 3.682 3.682-3.682 3.681-5.572 5.573v13.392h-6.543l17.831 17.83 17.83-17.83h-6.542v-.307" fill="#f47227"/><path d="M52.137 60.362l-17.83-17.83v8.534H18.06v18.59h16.246v8.536l17.83-17.83M106.94 51.066H90.694v-8.535l-17.83 17.83 17.83 17.83v-8.534h16.246v-18.59" fill="#f47227"/></svg>