<svg xmlns="http://www.w3.org/2000/svg" viewBox="0 0 125 125" height="125" width="125"><path d="M84.225 97.175h-43.45c-6.296 0-11.4-5.104-11.4-11.4v-43.45c0-6.296 5.104-11.4 11.4-11.4h43.45c6.296 0 11.4 5.104 11.4 11.4v43.45c0 6.296-5.104 11.4-11.4 11.4" fill="#23446f"/><path d="M84.225 94.075h-43.45c-6.296 0-11.4-5.104-11.4-11.4v-43.45c0-6.296 5.104-11.4 11.4-11.4h43.45c6.296 0 11.4 5.104 11.4 11.4v43.45c0 6.296-5.104 11.4-11.4 11.4" fill="#3e6fbe"/><path d="M37.873 35.103h3.876l1.848 9.131h.037l1.867-9.131h3.86V48.04h-2.393V37.71h-.035L44.63 48.04h-2.028L40.3 37.71h-.036v10.33h-2.391V35.103M50.745 49.363c.217.035.434.054.652.054.923 0 1.267-.508 1.34-1.377l-2.736-9.749h2.61l1.449 6.74h.037l1.268-6.74h2.5l-2.355 9.097c-.87 3.37-1.431 3.84-3.751 3.84h-1.014v-1.865M64.41 43.999v.38c0 1.214.343 1.993 1.72 1.993.798 0 1.56-.506 1.56-1.594 0-1.178-.599-1.613-2.32-2.211-2.32-.797-3.389-1.757-3.389-3.913 0-2.519 1.541-3.805 4.004-3.805 2.32 0 4.005.996 4.005 3.479v.362H67.49c0-1.214-.416-1.921-1.412-1.921-1.178 0-1.486.743-1.486 1.504 0 .797.235 1.287 1.34 1.757l2.012.87c1.957.852 2.464 1.849 2.464 3.425 0 2.735-1.667 3.968-4.494 3.968-2.952 0-4.113-1.377-4.113-3.77V44h2.61M75.46 46.372c1.54 0 1.793-1.322 1.793-4.801 0-3.46-.254-4.803-1.793-4.803-1.54 0-1.794 1.342-1.794 4.803 0 3.479.253 4.801 1.794 4.801zm3.26 3.262l-1.539-1.595c-.235.09-.507.164-.797.2-.272.036-.58.054-.924.054-3.915 0-4.403-2.79-4.403-6.722 0-3.932.488-6.722 4.403-6.722 3.914 0 4.403 2.79 4.403 6.722 0 2.192-.145 4.022-.997 5.254l1.395 1.413-1.54 1.396M81.001 48.04V35.103h2.61V45.9h4.62v2.139h-7.23" fill="#fff"/></svg>