<svg xmlns="http://www.w3.org/2000/svg" viewBox="0 0 125 125" height="125" width="125"><path d="M40.78 30.009h43.44c6.298 0 11.405 5.106 11.405 11.406v19.118c-2.248-1.164-7.169-2.4-14.468-2.4-3.27 0-6.047.256-8.343.623-4.918.818-7.52 2.214-7.52 3.076v32.48c0 .539.74 1.253 2.14 1.947H40.78c-6.3 0-11.406-5.107-11.406-11.406V41.415c0-6.3 5.106-11.406 11.406-11.406" fill="#23446f"/><path d="M40.78 27.258h43.44c6.298 0 11.405 5.107 11.405 11.406v19.118c-2.248-1.163-7.169-2.4-14.468-2.4-3.27 0-6.047.257-8.343.623-4.918.818-7.52 2.215-7.52 3.076v32.481c0 .538.74 1.252 2.14 1.946H40.78c-6.3 0-11.406-5.106-11.406-11.405V38.663c0-6.3 5.106-11.406 11.406-11.406" fill="#3e6fbe"/><path d="M82.312 64.119c-2.744 0-5.073.215-7 .522-2.393.398-6.308-.544-6.308-.544v3.125c0 .722 2.182 1.897 6.308 2.563 1.927.325 4.256.525 7 .525 8.62 0 13.313-2.041 13.313-3.088v-3.125s-7.304.022-13.313.022M68.767 73.286l.02 21.372c0 1.082 3.708 3.084 12.653 3.084 4.89 0 8.584-.577 10.984-1.282 1.78-.576 3.037-1.226 3.179-1.712V73.486c-2.6 1.607-7.961 2.454-13.291 2.454h-.344c-.562-.017-1.092-.017-1.636-.037l-.22-.017c-.47-.02-.908-.036-1.362-.073a40.836 40.836 0 0 1-.674-.054c-.361-.036-.705-.053-1.052-.09-.203-.037-.383-.054-.567-.09-.38-.037-.744-.088-1.125-.144-2.91-.47-5.166-1.245-6.565-2.149" fill="#23446f"/><path d="M82.312 60.994c-2.744 0-5.073.215-7 .523-4.125.685-6.308 1.857-6.308 2.58 0 .723 2.182 1.897 6.308 2.563 1.927.325 4.256.525 7 .525 8.62 0 13.313-2.041 13.313-3.088 0-1.047-4.692-3.103-13.313-3.103M68.767 70.161l.02 21.373c0 1.081 3.708 3.083 12.653 3.083 4.89 0 8.584-.577 10.984-1.282 1.78-.576 3.037-1.226 3.179-1.711V70.361c-2.6 1.606-7.961 2.453-13.291 2.453h-.344c-.562-.017-1.092-.017-1.636-.036l-.22-.017c-.47-.02-.908-.037-1.362-.073a40.705 40.705 0 0 1-.674-.055c-.361-.036-.705-.053-1.052-.09-.203-.036-.383-.053-.567-.09a22.05 22.05 0 0 1-1.125-.144c-2.91-.469-5.166-1.245-6.565-2.149" fill="#3e6fbe"/><path d="M40.78 93.508h26.653v2.75H40.78c-6.3 0-11.406-5.106-11.406-11.405v-2.75c0 6.299 5.106 11.405 11.406 11.405" fill="#23446f"/><path d="M78.774 86.018c0 2.183 1.701 3.033 3.632 3.033 1.263 0 3.195-.367 3.195-2.045 0-1.77-2.46-2.068-4.873-2.712-2.437-.644-4.895-1.586-4.895-4.665 0-3.356 3.17-4.965 6.136-4.965 3.424 0 6.574 1.493 6.574 5.286h-3.494c-.115-1.976-1.517-2.482-3.24-2.482-1.15 0-2.483.482-2.483 1.862 0 1.263.781 1.424 4.895 2.481 1.195.3 4.873 1.058 4.873 4.78 0 3.012-2.368 5.264-6.826 5.264-3.631 0-7.034-1.793-6.987-5.837h3.493" fill="#fff"/></svg>