<svg xmlns="http://www.w3.org/2000/svg" viewBox="0 0 125 125" height="125" width="125"><path d="M14.702 36.71h95.596v-3.134L62.5 21.094 14.702 33.576v3.134" fill="#99451f"/><path d="M14.702 33.576h95.596V16.532H14.702v17.044z" fill="#f47326"/><path d="M14.702 60.63h95.596v-3.135L62.5 45.013 14.702 57.495v3.135" fill="#99451f"/><path d="M14.702 57.495h95.596V40.452H14.702v17.043z" fill="#f47326"/><path d="M14.702 84.55h95.596v-3.135L62.5 68.933 14.702 81.414v3.135" fill="#99451f"/><path d="M14.702 81.415h95.596V64.37H14.702v17.044z" fill="#f47326"/><path d="M14.702 108.468h95.596v-3.135L62.5 92.852l-47.798 12.481v3.135" fill="#99451f"/><path d="M14.702 105.333h95.596V88.289H14.702v17.044z" fill="#f47326"/><path d="M33.112 29.967h73.57V20.12h-73.57v9.846zM18.318 53.887h73.57V44.04h-73.57v9.846zM33.112 77.805h73.57V67.96h-73.57v9.846zM18.318 101.725h73.57v-9.847h-73.57v9.847z" fill="#fff"/></svg>