<svg xmlns="http://www.w3.org/2000/svg" viewBox="0 0 125 125" height="125" width="125"><path d="M84.225 98.735h-43.45c-6.296 0-11.4-5.104-11.4-11.4v-43.45c0-6.296 5.104-11.4 11.4-11.4h43.45c6.296 0 11.4 5.104 11.4 11.4v43.45c0 6.296-5.104 11.4-11.4 11.4" fill="#23446f"/><path d="M84.225 95.635h-43.45c-6.296 0-11.4-5.103-11.4-11.4v-43.45c0-6.296 5.104-11.4 11.4-11.4h43.45c6.296 0 11.4 5.104 11.4 11.4v43.45c0 6.297-5.104 11.4-11.4 11.4" fill="#3e6fbe"/><path d="M75 35.063h5V17.994h-5v17.067zM45 35.063h5V17.994h-5v17.067zM67.5 35.063h5V17.994h-5v17.067zM52.5 35.063h5V17.994h-5v17.067zM60 35.063h5V17.994h-5v17.067zM17.995 80h22.63v-5h-22.63v5zM17.995 57.5h22.63v-5h-22.63v5zM17.995 72.5h22.63v-5h-22.63v5zM17.995 65h22.63v-5h-22.63v5zM17.995 50h22.63v-5h-22.63v5zM45 107.005h5V87.354h-5v19.65zM75 107.005h5V87.354h-5v19.65zM52.5 107.005h5V87.354h-5v19.65zM67.5 107.005h5V87.354h-5v19.65zM60 107.005h5V87.354h-5v19.65zM87.084 72.5h19.921v-5H87.084v5zM87.084 50h19.921v-5H87.084v5zM87.084 65h19.921v-5H87.084v5zM87.084 57.5h19.921v-5H87.084v5zM87.084 80h19.921v-5H87.084v5z" fill="#3e6fbe"/><path d="M35.566 72.637h-.82a1.876 1.876 0 0 1 0-3.75h.82a1.875 1.875 0 0 1 0 3.75M91.862 73h-.821a1.876 1.876 0 0 1 0-3.75h.82a1.876 1.876 0 0 1 0 3.75" fill="#fff"/><path d="M84.22 72.506h4.79v-4.245c0-8.802-10.469-8.802-10.469-8.802l-3.957-9.27H54.895l-2.708 8.957-14.895 4.167v9.193h3.568" fill="#3e6fbe"/><path d="M89.01 74.381h-4.791a1.876 1.876 0 0 1 0-3.75h2.916v-2.37c0-6.686-7.719-6.922-8.598-6.927a1.884 1.884 0 0 1-1.72-1.139l-3.47-8.132H56.287l-2.306 7.627a1.874 1.874 0 0 1-1.29 1.262l-13.526 3.783v5.896h1.695a1.876 1.876 0 0 1 0 3.75h-3.57a1.876 1.876 0 0 1-1.875-1.875v-9.193c0-.841.56-1.58 1.37-1.805l13.905-3.89 2.41-7.974a1.875 1.875 0 0 1 1.795-1.331h19.688c.75 0 1.43.448 1.725 1.139l3.496 8.192c4.421.403 11.08 2.948 11.08 10.618v4.244c0 1.035-.84 1.875-1.875 1.875" fill="#fff"/><path d="M84.22 72.506h4.79v-4.245c0-8.802-10.469-8.802-10.469-8.802l-3.957-9.27H54.895l-2.708 8.957-14.895 4.167v9.193h3.568" fill="#3e6fbe"/><path d="M89.01 74.381h-4.791a1.876 1.876 0 0 1 0-3.75h2.916v-2.37c0-6.686-7.719-6.922-8.598-6.927a1.884 1.884 0 0 1-1.72-1.139l-3.47-8.132H56.287l-2.306 7.627a1.874 1.874 0 0 1-1.29 1.262l-13.526 3.783v5.896h1.695a1.876 1.876 0 0 1 0 3.75h-3.57a1.876 1.876 0 0 1-1.875-1.875v-9.193c0-.841.56-1.58 1.37-1.805l13.905-3.89 2.41-7.974a1.875 1.875 0 0 1 1.795-1.331h19.688c.75 0 1.43.448 1.725 1.139l3.496 8.192c4.421.403 11.08 2.948 11.08 10.618v4.244c0 1.035-.84 1.875-1.875 1.875" fill="#fff"/><path d="M51.145 72.506a4.922 4.922 0 1 1-9.843 0 4.922 4.922 0 0 1 9.843 0" fill="#3e6fbe"/><path d="M46.225 69.46a3.05 3.05 0 0 0-3.047 3.046 3.05 3.05 0 0 0 3.047 3.047 3.052 3.052 0 0 0 3.047-3.047 3.05 3.05 0 0 0-3.047-3.047zm0 9.843a6.805 6.805 0 0 1-6.797-6.797 6.804 6.804 0 0 1 6.797-6.797 6.805 6.805 0 0 1 6.797 6.797 6.806 6.806 0 0 1-6.797 6.797" fill="#fff"/><path d="M83.463 72.506a4.922 4.922 0 1 1-9.843 0 4.922 4.922 0 0 1 9.843 0" fill="#3e6fbe"/><path d="M78.541 69.46a3.05 3.05 0 0 0-3.047 3.046 3.052 3.052 0 0 0 3.047 3.047 3.05 3.05 0 0 0 3.047-3.047 3.05 3.05 0 0 0-3.047-3.047zm0 9.843a6.806 6.806 0 0 1-6.797-6.797 6.805 6.805 0 0 1 6.797-6.797 6.804 6.804 0 0 1 6.797 6.797 6.805 6.805 0 0 1-6.797 6.797" fill="#fff"/><path d="M72.813 74.381H52.03a1.876 1.876 0 0 1 0-3.75h20.782a1.876 1.876 0 0 1 0 3.75" fill="#fff"/></svg>