<svg xmlns="http://www.w3.org/2000/svg" viewBox="0 0 125 125" height="125" width="125"><path d="M89.185 54.618c-1.598 1.503-5.771 3.314-12.284 4.473-3.965.7-8.788 1.167-14.43 1.167-14.929 0-24.127-3.224-26.684-5.64h-.756v2.227c0 2.336 9.688 6.9 27.44 6.9 5.642 0 10.465-.472 14.43-1.173 8.495-1.506 13.027-4.13 13.027-5.727v-2.227h-.743M89.96 107.685c-.015.085-.036.17-.067.256-.042.12-.1.242-.176.371-1.468 2.461-9.273 6.023-25.619 6.023-10.001 0-18.36-1.892-23.266-3.455l.067.343c-3.258-1.219-5.555-2.516-5.827-3.536v3.484c.292 1.099 2.909 2.515 6.561 3.81 4.905 1.566 12.464 2.84 22.465 2.84 16.346 0 24.151-3.567 25.619-6.027.075-.125.134-.247.176-.367a1.62 1.62 0 0 0 .067-.258c.01-.064.016-.127.016-.193v-3.487c0 .064-.005.13-.016.196" fill="#23446f"/><path d="M76.568 65.944c-.755.144-1.512.251-2.267.364-.39.048-.778.124-1.183.158-.699.09-1.416.161-2.137.232-.464.04-.93.09-1.396.11-.912.07-1.842.125-2.776.159l-.465.017c-1.084.058-2.19.076-3.336.093h-.716c-10.905 0-21.885-1.87-27.22-5.442v47.302c.292 1.096 2.89 2.515 6.517 3.809 4.91 1.562 12.476 2.839 22.488 2.839 18.294 0 25.899-4.456 25.899-6.846l.04-47.536c-2.853 1.994-7.47 3.698-13.448 4.74" fill="#3e6fbe"/><path d="M35.03 54.608c0 1.5 4.016 3.914 11.576 5.453V49.17c-7.56 1.534-11.575 3.94-11.575 5.438M89.928 54.608c0-1.497-3.972-3.874-11.446-5.408v10.837c7.474-1.54 11.446-3.935 11.446-5.429" fill="#23446f"/><path d="M46.606 44.486l5.365 3.84 10.573 7.567 10.563-7.56 5.374-3.847H46.608" fill="#3e6fbe"/><path d="M76.463 48.824l-13.919 9.962L48.591 48.8l-1.985-1.42V60.06c4.213.858 9.513 1.447 15.865 1.447 5.642 0 10.465-.466 14.43-1.167.543-.097 1.07-.198 1.58-.304V47.38l-2.018 1.444M62.48 42.174a1.876 1.876 0 0 1-1.875-1.875v-4.848l-16.93-16.929a1.875 1.875 0 0 1 2.652-2.651l17.478 17.477c.352.352.55.83.55 1.326V40.3c0 1.035-.84 1.875-1.876 1.875" fill="#3e6fbe"/><path d="M62.48 36.55a1.874 1.874 0 0 1-1.326-3.201L78.632 15.87a1.874 1.874 0 1 1 2.651 2.651L63.805 36c-.366.366-.846.55-1.326.55M45.002 27.213L34.983 17.196 45 7.18 55.02 17.196 45.002 27.213" fill="#3e6fbe"/><path d="M88.105 17.196a8.147 8.147 0 1 1-16.294 0 8.147 8.147 0 0 1 16.293 0" fill="#3e6fbe"/></svg>