<svg xmlns="http://www.w3.org/2000/svg" viewBox="0 0 89.012497 89.012497" height="89.012" width="89.012"><path d="M66.23 80.743H22.78c-6.296 0-11.4-5.104-11.4-11.4v-43.45c0-6.296 5.104-11.4 11.4-11.4h43.45c6.296 0 11.4 5.104 11.4 11.4v43.45c0 6.296-5.104 11.4-11.4 11.4" fill="#23446f"/><path d="M66.23 77.643H22.78c-6.296 0-11.4-5.104-11.4-11.4v-43.45c0-6.296 5.104-11.4 11.4-11.4h43.45c6.296 0 11.4 5.104 11.4 11.4v43.45c0 6.296-5.104 11.4-11.4 11.4" fill="#3e6fbe"/><path d="M57.005 17.07h5V.002h-5V17.07zM27.005 17.07h5V.002h-5V17.07zM49.505 17.07h5V.002h-5V17.07zM34.505 17.07h5V.002h-5V17.07zM42.005 17.07h5V.002h-5V17.07zM0 62.008h22.63v-5H0v5zM0 39.508h22.63v-5H0v5zM0 54.508h22.63v-5H0v5zM0 47.008h22.63v-5H0v5zM0 32.008h22.63v-5H0v5zM27.005 89.013h5V69.362h-5v19.65zM57.005 89.013h5V69.362h-5v19.65zM34.505 89.013h5V69.362h-5v19.65zM49.505 89.013h5V69.362h-5v19.65zM42.005 89.013h5V69.362h-5v19.65zM69.088 54.508H89.01v-5H69.088v5zM69.088 32.008H89.01v-5H69.088v5zM69.088 47.008H89.01v-5H69.088v5zM69.088 39.508H89.01v-5H69.088v5zM69.088 62.008H89.01v-5H69.088v5z" fill="#3e6fbe"/><path d="M32.567 57.576c-2.895-2.895 12.801-18.59 14.393-20.184l13.566-13.565c4.22-4.219 8.996-6.39 10.588-4.798 1.592 1.592-.579 6.37-4.797 10.588L52.75 43.183c-1.592 1.592-17.289 17.289-20.184 14.393" fill="#fff"/><path d="M29.84 60.303l-13.718-3.62 4.245-4.245 15.51 1.83-6.036 6.035" fill="#fff"/><path d="M29.84 60.303l3.621 13.718 4.244-4.244-1.829-15.51-6.035 6.036M46.972 43.171L18.92 29.203l2.71-2.709 35.837 6.184L46.972 43.17" fill="#fff"/><path d="M46.972 43.171L60.94 71.224l2.71-2.709-6.184-35.837L46.972 43.17M27.852 29.865l-1.985-1.985 4.798-4.798 1.985 1.986-4.797 4.797M39.516 31.602l-1.985-1.985 4.797-4.798 1.986 1.986-4.798 4.797" fill="#fff"/><path d="M60.28 62.292l1.985 1.985 4.797-4.798-1.985-1.985-4.798 4.798M58.542 50.629l1.985 1.985 4.798-4.798-1.985-1.985-4.798 4.798" fill="#fff"/></svg>