<svg xmlns="http://www.w3.org/2000/svg" viewBox="0 0 125 125" height="125" width="125"><path d="M84.225 98.735h-43.45c-6.296 0-11.4-5.104-11.4-11.4v-43.45c0-6.296 5.104-11.4 11.4-11.4h43.45c6.296 0 11.4 5.104 11.4 11.4v43.45c0 6.296-5.104 11.4-11.4 11.4" fill="#23446f"/><path d="M84.225 95.635h-43.45c-6.296 0-11.4-5.103-11.4-11.4v-43.45c0-6.296 5.104-11.4 11.4-11.4h43.45c6.296 0 11.4 5.104 11.4 11.4v43.45c0 6.297-5.104 11.4-11.4 11.4" fill="#3e6fbe"/><path d="M75 35.063h5V17.994h-5v17.067zM45 35.063h5V17.994h-5v17.067zM67.5 35.063h5V17.994h-5v17.067zM52.5 35.063h5V17.994h-5v17.067zM60 35.063h5V17.994h-5v17.067zM17.995 80h22.63v-5h-22.63v5zM17.995 57.5h22.63v-5h-22.63v5zM17.995 72.5h22.63v-5h-22.63v5zM17.995 65h22.63v-5h-22.63v5zM17.995 50h22.63v-5h-22.63v5zM45 107.005h5V87.354h-5v19.65zM75 107.005h5V87.354h-5v19.65zM52.5 107.005h5V87.354h-5v19.65zM67.5 107.005h5V87.354h-5v19.65zM60 107.005h5V87.354h-5v19.65zM87.084 72.5h19.921v-5H87.084v5zM87.084 50h19.921v-5H87.084v5zM87.084 65h19.921v-5H87.084v5zM87.084 57.5h19.921v-5H87.084v5zM87.084 80h19.921v-5H87.084v5z" fill="#3e6fbe"/><path d="M78.971 54.957l-.328-20.143a.626.626 0 0 0-.625-.615h-4.801c-.341 0-.62.274-.625.615l-.286 17.524L41.916 40.4a1.25 1.25 0 0 0-1.708 1.163v47.455c0 .69.56 1.25 1.25 1.25h42.084c.69 0 1.25-.56 1.25-1.25V58.096a1.25 1.25 0 0 0-.793-1.164l-5.028-1.975" fill="#fff"/><path d="M64.895 73.2h-4.647a.625.625 0 0 0-.626.624v13.944c0 .344.28.625.625.625h4.648c.345 0 .625-.28.625-.625V73.824a.625.625 0 0 0-.625-.625M53.02 73.2H48.23a.625.625 0 0 0-.625.624v5.646c0 .345.28.625.625.625h4.792c.345 0 .624-.28.624-.625v-5.646a.625.625 0 0 0-.625-.625M76.953 73.2h-4.792a.625.625 0 0 0-.625.624v5.646c0 .345.28.625.625.625h4.792c.345 0 .625-.28.625-.625v-5.646a.625.625 0 0 0-.625-.625M53.02 61.35H48.23a.625.625 0 0 0-.625.625v5.646c0 .345.28.625.625.625h4.792c.345 0 .624-.28.624-.625v-5.646a.625.625 0 0 0-.625-.625M64.895 61.35h-4.792a.625.625 0 0 0-.625.625v5.646c0 .345.28.625.625.625h4.792c.345 0 .625-.28.625-.625v-5.646a.625.625 0 0 0-.625-.625M76.953 61.35h-4.792a.625.625 0 0 0-.625.625v5.646c0 .345.28.625.625.625h4.792c.345 0 .625-.28.625-.625v-5.646a.625.625 0 0 0-.625-.625" fill="#3e6fbe"/></svg>