<svg xmlns="http://www.w3.org/2000/svg" viewBox="0 0 125 125" height="125" width="125"><path d="M84.225 98.735h-43.45c-6.296 0-11.4-5.104-11.4-11.4v-43.45c0-6.296 5.104-11.4 11.4-11.4h43.45c6.296 0 11.4 5.104 11.4 11.4v43.45c0 6.296-5.104 11.4-11.4 11.4" fill="#23446f"/><path d="M84.225 95.635h-43.45c-6.296 0-11.4-5.103-11.4-11.4v-43.45c0-6.296 5.104-11.4 11.4-11.4h43.45c6.296 0 11.4 5.104 11.4 11.4v43.45c0 6.297-5.104 11.4-11.4 11.4" fill="#3e6fbe"/><path d="M75 35.063h5V17.994h-5v17.067zM45 35.063h5V17.994h-5v17.067zM67.5 35.063h5V17.994h-5v17.067zM52.5 35.063h5V17.994h-5v17.067zM60 35.063h5V17.994h-5v17.067zM17.995 80h22.63v-5h-22.63v5zM17.995 57.5h22.63v-5h-22.63v5zM17.995 72.5h22.63v-5h-22.63v5zM17.995 65h22.63v-5h-22.63v5zM17.995 50h22.63v-5h-22.63v5zM45 107.005h5V87.354h-5v19.65zM75 107.005h5V87.354h-5v19.65zM52.5 107.005h5V87.354h-5v19.65zM67.5 107.005h5V87.354h-5v19.65zM60 107.005h5V87.354h-5v19.65zM87.084 72.5h19.921v-5H87.084v5zM87.084 50h19.921v-5H87.084v5zM87.084 65h19.921v-5H87.084v5zM87.084 57.5h19.921v-5H87.084v5zM87.084 80h19.921v-5H87.084v5z" fill="#3e6fbe"/><path d="M63.75 88.314h-2.5a4.167 4.167 0 0 1-4.167-4.167V77.48h10.834v6.667a4.167 4.167 0 0 1-4.167 4.166M67.916 77.064H57.084a1.876 1.876 0 0 1 0-3.75h10.832a1.876 1.876 0 0 1 0 3.75M56.159 66.855a1.875 1.875 0 0 1-.963-3.485l17.49-10.428a1.875 1.875 0 0 1 1.92 3.22L57.119 66.59a1.87 1.87 0 0 1-.96.264M51.408 54.21a1.875 1.875 0 0 1-.962-3.485l17.489-10.43a1.876 1.876 0 0 1 1.921 3.22l-17.489 10.43c-.302.179-.632.265-.96.265M51.408 61.949a1.875 1.875 0 0 1-.962-3.485l22.24-13.261a1.876 1.876 0 0 1 1.92 3.22l-22.239 13.26c-.302.18-.632.266-.96.266" fill="#fff"/><path d="M62.502 77.064a1.876 1.876 0 0 1-1.876-1.875v-6.252c0-.66.348-1.272.915-1.61l11.145-6.646a1.875 1.875 0 0 1 1.92 3.22l-10.23 6.1v5.188c0 1.034-.84 1.875-1.874 1.875M51.408 46.47a1.875 1.875 0 0 1-.962-3.485l9.259-5.522a1.876 1.876 0 0 1 1.921 3.221l-9.259 5.521c-.302.18-.632.265-.96.265" fill="#fff"/></svg>