<svg xmlns="http://www.w3.org/2000/svg" viewBox="0 0 125 125" height="125" width="125"><defs><clipPath id="a"><path d="M417.5 668.508l-141.562-4.602c0 17.481-3.497 34.141-9.688 49.551v24.883c3.094-7.684 130.625-32.332 130.625-32.332l20.625-37.5z"/></clipPath></defs><path d="M16.184 97.51h102.361V80.043H16.185V97.51zM16.184 75.823h102.361V59.939H16.185v15.884zM118.545 51.492v3.112h-89.92v-3.112l51.791-16.97 38.129 16.97M52.188 41.436l-17.696.576c0-2.185-.437-4.268-1.21-6.194v-3.11c.386.96 16.327 4.041 16.327 4.041l2.578 4.687" fill="#622652"/><g clip-path="url(#a)" transform="matrix(.13 0 0 -.13 0 125)"><path d="M275.938 688.848v-24.942c0 17.481-3.497 34.141-9.688 49.551v24.883c6.191-15.371 9.688-32.051 9.688-49.492" fill="#622652"/></g><path d="M118.545 32.707v18.785h-89.92c3.59-3.033 5.867-7.542 5.867-12.598 0-2.18-.437-4.265-1.21-6.186h85.263M16.184 72.71h102.361V57.056H16.185V72.71zM16.184 94.397h102.361V78.743H16.185v15.654z" fill="#ab548b"/><path d="M61.477 35.444v2.097h-4.578v2.996h4.31v2.105h-4.31v3.422h4.759v2.102h-7.344V35.444h7.163M62.88 38.577h2.369v.981h.04c.622-.871 1.393-1.225 2.438-1.225 1.13 0 1.956.546 2.224 1.528h.034c.381-1.013 1.275-1.528 2.442-1.528 1.638 0 2.404 1.01 2.404 2.86v6.974h-2.475v-6.702c0-.801-.271-1.248-.97-1.248-.788 0-1.29.535-1.29 1.643v6.307h-2.479v-6.702c0-.801-.268-1.248-.969-1.248-.789 0-1.29.535-1.29 1.643v6.307h-2.477v-9.59M80.996 43.372a3.187 3.187 0 0 1-1.06.483c-1.003.212-1.398.693-1.398 1.55 0 .733.268 1.338.932 1.338s1.526-.427 1.526-1.48v-1.891zm-4.521-1.854v-.229c0-2.214 1.52-2.957 3.39-2.957 2.943 0 3.502 1.214 3.502 2.937v5.047c0 .889.051 1.301.305 1.85h-2.368c-.164-.302-.235-.676-.308-.998h-.036c-.572.998-1.275 1.25-2.459 1.25-1.719 0-2.33-1.465-2.33-2.747 0-1.799.733-2.529 2.437-2.995l1.402-.371c.735-.2.986-.479.986-1.123 0-.73-.325-1.175-1.147-1.175-.755 0-1.148.498-1.148 1.245v.266h-2.226M85.22 38.577h2.473v9.59H85.22v-9.59zm0-3.28h2.473v2.1H85.22v-2.1M89.526 48.166h2.478V35.444h-2.478v12.722z" fill="#fff"/><path d="M29.531 42.129c0 6.372-5.165 11.538-11.538 11.538-6.372 0-11.538-5.166-11.538-11.538v-3.1l11.538-8.438 11.538 8.437v3.1" fill="#8a181d"/><path d="M29.531 39.028c0 6.372-5.165 11.538-11.538 11.538-6.372 0-11.538-5.166-11.538-11.538S11.621 27.49 17.993 27.49c6.373 0 11.538 5.166 11.538 11.538" fill="#ea1f28"/><path d="M19.512 69.41h95.718v-9.046H19.511v9.045zM19.512 91.092h95.718v-9.045H19.511v9.045z" fill="#fff"/></svg>