<svg xmlns="http://www.w3.org/2000/svg" viewBox="0 0 125 125" height="125" width="125"><path d="M70.906 41.364l22.143-14.972 12.005 14.972-20.7 3.008-13.448-3.008M54.094 41.364L31.952 26.323l-12.006 15.04 20.7 3.009 13.448-3.008" fill="#364426"/><path d="M105.125 71.453L62.5 68.83l-42.625 2.622 42.625 42.5 42.625-42.5" fill="#b2ce8f"/><path d="M54.094 41.364l-22.146-4.205V26.323l22.146 6.003v9.038" fill="#689f2e"/><path d="M19.946 41.364l12.002-4.204V26.323l-12.002 6.001v9.04M70.906 41.364l22.146-4.205V26.323l-22.146 6.003v9.038" fill="#435e24"/><path d="M105.054 41.364L93.052 37.16V26.323l12.002 6.001v9.04" fill="#689f2e"/><path d="M19.875 62.5H62.5l42.625-6.406L62.5 41.919l-42.625 8.525V62.5M62.5 113.953L19.875 92.641V71.453l42.625 6.33v36.17" fill="#435e24"/><path d="M105.125 92.64L62.5 113.954v-36.17l42.625-6.33V92.64M105.125 62.5H62.5V41.919l42.625 8.525V62.5" fill="#689f2e"/><path d="M85.189 34.407L62.5 39.482l-22.689-5.075L62.5 11.047l22.689 23.36" fill="#364426"/><path d="M39.811 34.407L62.5 26.46V11.047L39.811 22.392v12.015" fill="#435e24"/><path d="M85.189 34.407L62.5 26.46V11.047l22.689 11.345v12.015" fill="#689f2e"/></svg>