<svg xmlns="http://www.w3.org/2000/svg" viewBox="0 0 125 125" height="125" width="125"><path d="M105.17 87.685V62.553H79.325v32.345l13.915 3.657 11.928-10.87" fill="#435e24"/><path d="M62.502 83.478l30.513 6.199V26.332l-30.514 8.28L32.754 54.75 62.5 83.478" fill="#435e24"/><path d="M105.17 62.553v30.035l-11.93 5.967 11.93-36.002M19.83 87.685V62.553h25.846v32.345L31.76 98.556l-11.93-10.871" fill="#689f2e"/><path d="M62.502 83.478l-30.516 6.199V26.336l30.515 8.275v48.867" fill="#689f2e"/><path d="M62.502 62.553l15.256-38.136-15.256-13.342-22.498 11.248 22.498 40.23M19.83 62.553v30.035l11.931 5.968-11.93-36.003" fill="#435e24"/><path d="M62.502 62.553V11.075l22.495 11.248L62.5 62.553" fill="#689f2e"/><path d="M19.83 44.628V32.41l12.156-6.074 30.515 57.142L80.75 96.25 62.5 113.925l-22.582-11.29-20.087-58.007" fill="#435e24"/><path d="M105.17 44.628v-12.22l-12.155-6.076-30.514 57.146-.002 30.447 22.586-11.292 20.084-58.005" fill="#689f2e"/></svg>