<svg xmlns="http://www.w3.org/2000/svg" viewBox="0 0 125 125" height="125" width="125"><path d="M100.538 64.063c0 21.007-17.03 38.037-38.038 38.037-21.007 0-38.038-17.03-38.038-38.038 0-21.007 17.03-38.037 38.038-38.037 21.007 0 38.038 17.03 38.038 38.038" fill="#99441f"/><path d="M100.538 60.937c0 21.008-17.03 38.038-38.038 38.038-21.007 0-38.038-17.03-38.038-38.038C24.462 39.93 41.492 22.9 62.5 22.9c21.007 0 38.038 17.03 38.038 38.037" fill="#f47327"/><path d="M59.374 83.855h6.25v-45.58h-6.25v45.58z" fill="#fff"/><path d="M54.709 40.555l7.79-13.493 7.791 13.493H54.708M54.709 81.575l7.79 13.493 7.791-13.493H54.708M39.71 64.19h45.58v-6.25H39.71v6.25z" fill="#fff"/><path d="M41.99 68.856l-13.493-7.791 13.492-7.791v15.582M83.01 68.856l13.492-7.791-13.492-7.791v15.582" fill="#fff"/></svg>