<svg xmlns="http://www.w3.org/2000/svg" viewBox="0 0 125 125" height="125" width="125"><path d="M100.538 64.063c0 21.007-17.03 38.037-38.038 38.037-21.007 0-38.038-17.03-38.038-38.038 0-21.007 17.03-38.037 38.038-38.037 21.007 0 38.038 17.03 38.038 38.038" fill="#99441f"/><path d="M100.538 60.937c0 21.008-17.03 38.038-38.038 38.038-21.007 0-38.038-17.03-38.038-38.038C24.462 39.93 41.492 22.9 62.5 22.9c21.007 0 38.038 17.03 38.038 38.037" fill="#f47327"/><path d="M98.782 61.065l-13.493-7.791v4.665H65.624V38.275h4.667l-7.792-13.492-7.79 13.492h4.665v19.664H39.71v-4.665l-13.492 7.791 13.492 7.792v-4.668h19.665v19.666h-4.666L62.5 97.348l7.79-13.493h-4.666V64.189H85.29v4.667l13.493-7.791" fill="#fff"/><path d="M52.086 70.106c-3.864 0-6.751-2.925-6.751-5.54v-.588c0-2.147 1.84-5.077 4.302-5.782l.231-.068-.01-.402c0-2.342.898-4.51 2.53-6.135a8.54 8.54 0 0 1 6.086-2.519 8.635 8.635 0 0 1 7.857 5.064l.161.357.326-.223a4.15 4.15 0 0 1 2.377-.739 4.18 4.18 0 0 1 4.201 4.054l.01.279.285.024c3.365.286 5.973 3.508 5.973 6.09v.587c0 2.616-2.887 5.541-6.75 5.541H52.086" fill="#f47327"/><path d="M58.474 47.823a9.789 9.789 0 0 0-6.973 2.886 9.79 9.79 0 0 0-2.882 6.525c-2.702 1.159-4.534 4.342-4.534 6.744v.587c0 3.618 3.739 6.792 8.001 6.792h20.828c4.262 0 8-3.174 8-6.792v-.586c0-2.976-2.669-6.508-6.352-7.23a5.424 5.424 0 0 0-5.367-4.468c-.76 0-1.499.156-2.18.454a9.895 9.895 0 0 0-8.541-4.912zm0 2.5a7.382 7.382 0 0 1 6.718 4.328l.774 1.719 1.559-1.07c.491-.34 1.07-.519 1.67-.519 1.602 0 2.9 1.253 2.952 2.844l.045 1.393 1.395.115c2.601.222 4.827 2.849 4.827 4.846v.586c0 1.984-2.403 4.292-5.5 4.292H52.086c-3.098 0-5.501-2.308-5.501-4.292v-.586c0-1.633 1.516-4.042 3.397-4.582l1.158-.334-.032-1.366c0-1.97.766-3.83 2.162-5.22a7.301 7.301 0 0 1 5.204-2.154" fill="#fff"/></svg>