<svg xmlns="http://www.w3.org/2000/svg" viewBox="0 0 125 125" height="125" width="125"><path d="M100.538 64.063c0 21.007-17.03 38.037-38.038 38.037-21.007 0-38.038-17.03-38.038-38.038 0-21.007 17.03-38.037 38.038-38.037 21.007 0 38.038 17.03 38.038 38.038" fill="#99441f"/><path d="M24.462 64.063h76.076v-3.126H24.462v3.126z" fill="#99441f"/><path d="M100.538 60.937c0 21.008-17.03 38.038-38.038 38.038-21.007 0-38.038-17.03-38.038-38.038C24.462 39.93 41.492 22.9 62.5 22.9c21.007 0 38.038 17.03 38.038 38.037" fill="#f47327"/><path d="M33.825 64.716v-.913c0-3.728 2.844-8.665 7.044-10.484.327-8.134 7.097-14.65 15.368-14.65a15.424 15.424 0 0 1 13.303 7.629 8.488 8.488 0 0 1 3.374-.694c4.197 0 7.667 2.969 8.38 6.958 5.732 1.128 9.88 6.619 9.88 11.24v.914c0 5.627-5.83 10.563-12.473 10.563H46.3c-6.646 0-12.476-4.936-12.476-10.563" fill="#fff"/><path d="M70.317 50.304l-2.424 1.662-1.204-2.673a11.484 11.484 0 0 0-10.452-6.733 11.36 11.36 0 0 0-8.095 3.35 11.403 11.403 0 0 0-3.362 8.122l.049 2.124-1.802.52c-2.925.84-5.283 4.587-5.283 7.127v.913c0 3.085 3.737 6.674 8.557 6.674h32.4c4.817 0 8.554-3.589 8.554-6.674v-.913c0-3.106-3.461-7.193-7.507-7.537l-2.17-.18-.071-2.167a4.57 4.57 0 0 0-4.592-4.423c-.933 0-1.834.278-2.598.808" fill="#f47327"/></svg>