<svg xmlns="http://www.w3.org/2000/svg" viewBox="0 0 125 125" height="125" width="125"><path d="M84.228 30.711c2.078 0 3.75 1.664 3.75 3.708v59.244c0 2.048-1.672 3.727-3.75 3.727H40.774c-2.08 0-3.753-1.68-3.753-3.727V34.418c0-2.044 1.673-3.708 3.753-3.708h43.454v.001" fill="#777779"/><path d="M84.228 27.611c2.078 0 3.75 1.664 3.75 3.708v59.243c0 2.05-1.672 3.728-3.75 3.728H40.774c-2.08 0-3.753-1.68-3.753-3.728V31.318c0-2.043 1.673-3.707 3.753-3.707h43.454v.001" fill="#d4d4d2"/><path d="M47.991 42.09L44.5 38.295l-3.859 3.86 7.273 7.274 12.29-12.29-2.808-2.855-9.404 7.806M47.991 59.52L44.5 55.725l-3.859 3.86 7.273 7.274 12.29-12.29-2.808-2.855-9.404 7.806" fill="#689f2e"/><path d="M48.397 76.966l-7.526-6.75h3.651l5.7 5.427 5.957-5.428h3.394l-7.558 6.75 8.039 7.14h-3.715l-6.149-5.74-6.34 5.74h-3.427l7.974-7.14" fill="#e13d3b"/></svg>