<svg xmlns="http://www.w3.org/2000/svg" viewBox="0 0 125 125" height="125" width="125"><path d="M100.538 64.063c0 21.007-17.03 38.037-38.038 38.037-21.007 0-38.038-17.03-38.038-38.038 0-21.007 17.03-38.037 38.038-38.037 21.007 0 38.038 17.03 38.038 38.038" fill="#892822"/><path d="M100.538 60.937c0 21.008-17.03 38.038-38.038 38.038-21.007 0-38.038-17.03-38.038-38.038C24.462 39.93 41.492 22.9 62.5 22.9c21.007 0 38.038 17.03 38.038 38.037" fill="#e13d3b"/><path d="M78.185 71.272l-15.691 15.4-15.659-15.298h9.202V37.34h12.94l-.01 33.933h9.218zm-6.748-36.377H53.575v34.033H40.823l21.675 21.177 21.68-21.28H71.43l.006-33.93" fill="#fff"/></svg>