<svg xmlns="http://www.w3.org/2000/svg" viewBox="0 0 46.25 21.25" height="21.25" width="46.25"><path d="M.756 19.309h37.226V7.502H.756V19.31z" fill="#087bbb"/><path d="M.756 19.308h37.226V7.501H.756v11.807z" fill="none" stroke="#fff" stroke-width=".5"/><path d="M45.776.482v10.292l-7.792 8.579V7.503H.743L9.946.482h35.83" fill="#087bbb"/><path d="M45.776.48v10.294l-7.792 8.579V7.501H.743L9.946.481h35.83z" fill="none" stroke="#fff" stroke-width=".5"/><path d="M38.061 7.487l7.3-6.86" fill="#231f20"/><path d="M38.061 7.488l7.3-6.862" fill="none" stroke="#fff" stroke-width=".5"/><path d="M4.301 16.096h8.438v-1.875H4.3v1.875z" fill="#087bbb"/><path d="M4.301 16.095h8.438V14.22H4.3v1.875zM24.614 11.33h9.531M24.614 15.393h9.531" fill="none" stroke="#fff" stroke-width=".5"/></svg>