<svg xmlns="http://www.w3.org/2000/svg" viewBox="0 0 46.25 46.25" height="46.25" width="46.25"><path d="M46.23 9.19c0 4.936-10.293 8.94-22.987 8.94-12.7 0-22.994-4.004-22.994-8.94v28.1c0 4.936 10.293 8.94 22.994 8.94 12.695 0 22.987-4.004 22.987-8.94V9.19" fill="#087bbb"/><path d="M46.23 9.19c0 4.936-10.293 8.94-22.987 8.94-12.7 0-22.994-4.004-22.994-8.94v28.1c0 4.936 10.293 8.94 22.994 8.94 12.695 0 22.987-4.004 22.987-8.94V9.19z" fill="none" stroke="#fff" stroke-width=".5"/><path d="M23.243 18.13c12.695 0 22.987-4.004 22.987-8.94 0-4.943-10.292-8.942-22.987-8.942-12.7 0-22.994 4-22.994 8.942 0 4.936 10.293 8.94 22.994 8.94" fill="#087bbb"/><path d="M23.243 18.13c12.695 0 22.987-4.004 22.987-8.94 0-4.943-10.292-8.942-22.987-8.942-12.7 0-22.994 4-22.994 8.942 0 4.936 10.293 8.94 22.994 8.94z" fill="none" stroke="#fff" stroke-width=".5"/><path d="M17.994 5.694l1.894 2.846-7.178 1.66 1.567-1.309L3.184 6.997l2.782-2.084 10.709 1.81 1.319-1.03M28.091 12.598l-1.294-2.935 6.474-1.294-1.122 1.006 10.791 1.841-2.589 2.075-10.728-2.016-1.532 1.323M21.445 15.274l-6.909 1.298-.259-3.193 1.988.43 3.799-3.248 3.364.571-4.058 3.535 2.075.607" fill="#fff"/><path d="M42.618 17.139v21.25M40.118 18.515v21.25M37.564 19.516v21.255M34.61 20.341v21.25M31.757 20.966v21.25M28.935 21.342v21.25M25.889 21.783v21.255M3.086 17.139v21.25M5.586 18.515v21.25M8.14 19.516v21.255M11.094 20.341v21.25M13.94 20.966v21.25M16.768 21.342v21.25M19.815 21.783v21.255M22.841 21.86v21.255" fill="none" stroke="#fff" stroke-width=".625"/><path d="M24.082 3.994l7.25-1.988.09 3.112-1.817-.348-3.54 2.935-3.375-.489 3.652-2.875-2.26-.347" fill="#fff"/></svg>