<svg xmlns="http://www.w3.org/2000/svg" viewBox="0 0 38.75 40" height="40" width="38.75"><defs><clipPath id="a"><path d="M0 10v307h310V10H0z"/></clipPath></defs><g clip-path="url(#a)" transform="matrix(.13 0 0 -.13 0 40)"><path d="M5.82 14.629h226.758v230.699H5.82v-230.7z" fill="#087bbb"/><path d="M5.82 14.629h226.758v230.699H5.82v-230.7z" fill="none" stroke="#fff" stroke-width="4"/><path d="M46.602 65.762h47.886L160.59 200.91h45.699" fill="none" stroke="#231f20" stroke-width="14.25"/><path d="M192.891 225.129V177.16l28.871 23.051-28.871 24.918M54.84 41.07v47.97L25.98 65.987 54.84 41.07" fill="#231f20"/><path d="M48.281 36.54v47.972L19.38 61.46 48.28 36.539M187.539 221.23v-47.968l28.871 23.047-28.871 24.921" fill="#fff"/><path d="M54.84 176.07v47.969l-28.86-23.051 28.86-24.918" fill="#231f20"/><path d="M48.281 171.539v47.973L19.38 196.461l28.902-24.922" fill="#fff"/><path d="M207.23 65.25h-47.109L92.809 201.07h-40.11" fill="none" stroke="#231f20" stroke-width="14.25"/><path d="M206.09 61.031h-49.61l-67.3 135.821H37.809" fill="none" stroke="#fff" stroke-width="14.25"/><path d="M305.59 312.551l-73.012-67.141H5.551l81.129 67.141h218.91" fill="#087bbb"/><path d="M305.59 312.551l-73.012-67.141H5.551l81.129 67.141h218.91z" fill="none" stroke="#fff" stroke-width="4"/><path d="M305.859 103.102v209.296l-73.281-67.187V15.52l73.281 87.582" fill="#087bbb"/><path d="M305.859 103.102v209.296l-73.281-67.187V15.52l73.281 87.582z" fill="none" stroke="#fff" stroke-width="4"/><path d="M38.121 61.23h47.93L152.73 196.38h51.961" fill="none" stroke="#fff" stroke-width="14.25"/><path d="M192.891 89.512V41.539l28.871 23.05-28.871 24.923" fill="#231f20"/><path d="M187.539 85.602V37.629l28.871 23.05-28.871 24.923" fill="#fff"/><path d="M232.73 300.91l9.571 7.192 29.929-9.84-52.46-11.332 11.402 11.41H179.18l3.398 2.57h50.152" fill="#231f20"/><path d="M191.48 271.5l9.571 7.191 26.179-8.441-52.46-11.328 8.781 8.629h-51.992l7.89 3.949h52.031M165.859 290.949l-4.339-4.609h-43.04l-8.679-5.149-26.012 8.508 52.34 11.25-13.32-10h43.05M128.672 261.34l-6.094-4.61H79.531l-6.87-5.152-26.06 8.512 52.348 11.25-13.289-10h43.012M232.73 298.41l9.571 7.231 26.14-8.481-52.461-11.281 9.719 7.961h-52.027l7.027 4.57h52.031" fill="#fff"/></g></svg>