<svg xmlns="http://www.w3.org/2000/svg" viewBox="0 0 38.75 51.25" height="51.25" width="38.75"><defs><clipPath id="a"><path d="M0 9v397h310V9H0z"/></clipPath></defs><g clip-path="url(#a)" transform="matrix(.13 0 0 -.13 0 51.25)"><path d="M6.45 14.785h268.28v244.262H6.45V14.785z" fill="#087bbb"/><path d="M6.45 14.785h268.28v244.262H6.45V14.785z" fill="none" stroke="#fff" stroke-width="4"/><path d="M308.59 48.336v244.262l-33.86-33.551V14.785l33.86 33.55" fill="#087bbb"/><path d="M308.59 48.336v244.262l-33.86-33.551V14.785l33.86 33.55z" fill="none" stroke="#fff" stroke-width="4"/><path d="M55.512 401.266L6.449 367.719H274.73l33.86 33.547H55.512" fill="#087bbb"/><path d="M55.512 401.266L6.449 367.719H274.73l33.86 33.547H55.512z" fill="none" stroke="#fff" stroke-width="4"/><path d="M6.45 259.047h268.28v108.672H6.45V259.047z" fill="#087bbb"/><path d="M6.45 259.047h268.28v108.672H6.45V259.047z" fill="none" stroke="#fff" stroke-width="4"/><path d="M308.59 292.598v108.668l-33.86-33.547V259.047l33.86 33.551" fill="#087bbb"/><path d="M308.59 292.598v108.668l-33.86-33.547V259.047l33.86 33.551zM274.73 259.047H6.45" fill="none" stroke="#fff" stroke-width="4"/><path d="M274.73 259.047l33.86 33.551" fill="#231f20"/><path d="M274.73 259.047l33.86 33.551" fill="none" stroke="#fff" stroke-width="4"/><path d="M56.05 336.387h43.24v22.5H56.05v-22.5zM198.199 336.387h43.281v22.5H198.2v-22.5zM56.05 280.098h43.24v22.5H56.05v-22.5zM198.199 280.098h43.281v22.5H198.2v-22.5z" fill="#231f20"/><path d="M85.39 345.488h132.891M85.39 289.156h132.891M77.7 289.156l140.581 56.332M77.7 345.488l140.581-56.332" fill="none" stroke="#231f20" stroke-width="4"/><path d="M50.23 330.605h43.282v22.5H50.23v-22.5zM192.379 330.605h43.281v22.5H192.38v-22.5zM50.23 274.277h43.282v22.54H50.23v-22.54zM192.379 274.277h43.281v22.54H192.38v-22.54z" fill="#fff"/><path d="M79.57 341.855h132.891M79.57 285.566h132.891M71.879 285.566l140.582 56.289M71.879 341.855l140.582-56.289" fill="none" stroke="#fff" stroke-width="4"/><path d="M69.57 75.566h47.891l66.09 135.161h45.668" fill="none" stroke="#231f20" stroke-width="14.25"/><path d="M215.859 234.945v-47.968l28.871 23.039-28.871 24.929M77.809 50.875v47.934l-28.86-23.012 28.86-24.922" fill="#231f20"/><path d="M71.25 46.348v47.93L42.34 71.265l28.91-24.918M210.469 231.035v-47.969l28.941 23.051-28.941 24.918" fill="#fff"/><path d="M77.809 185.875v47.934l-28.86-23.012 28.86-24.922" fill="#231f20"/><path d="M71.25 181.348v47.929l-28.91-23.011 28.91-24.918" fill="#fff"/><path d="M230.199 75.059H183.09l-67.309 135.777h-40.12" fill="none" stroke="#231f20" stroke-width="14.25"/><path d="M229.059 70.797h-49.61l-67.301 135.82H60.781" fill="none" stroke="#fff" stroke-width="14.25"/><path d="M61.09 71.035h47.93l66.679 135.16h51.961" fill="none" stroke="#fff" stroke-width="14.25"/><path d="M215.859 99.316V51.348l28.871 23.05-28.871 24.918" fill="#231f20"/><path d="M210.469 95.406v-47.96l28.941 23.042-28.941 24.918" fill="#fff"/></g></svg>