<svg xmlns="http://www.w3.org/2000/svg" viewBox="0 0 61.25 30" height="30" width="61.25"><path d="M.708 15.118L18.74.543h41.641L45.454 15.117H.708" fill="#087bbb"/><path d="M.708 15.118L18.74.543h41.641L45.454 15.117H.708z" fill="none" stroke="#fff" stroke-width=".5"/><path d="M45.454 29.61L60.38 13.496V.542L45.454 15.118V29.61" fill="#087bbb"/><path d="M45.454 29.61L60.38 13.496V.542L45.454 15.118V29.61z" fill="none" stroke="#fff" stroke-width=".5"/><path d="M.766 29.624h44.688V15.118H.766v14.506z" fill="#087bbb"/><path d="M.766 29.624h44.688V15.118H.766v14.506z" fill="none" stroke="#fff" stroke-width=".5"/><path d="M38.862 2.748c-10.44-.424-22.353 1.68-26.62 4.703-4.263 3.023.742 5.815 11.18 6.245 10.44.425 22.354-1.68 26.617-4.702 4.267-3.023-.738-5.82-11.177-6.245" fill="#087bbb"/><path d="M38.862 2.748c-10.44-.424-22.353 1.68-26.62 4.703-4.263 3.023.742 5.815 11.18 6.245 10.44.425 22.354-1.68 26.617-4.702 4.267-3.023-.738-5.82-11.177-6.245z" fill="none" stroke="#fff" stroke-width=".5"/><path d="M36.993 5.044c-8.56-.27-18.145.962-21.412 2.753-3.266 1.793 1.02 3.468 9.58 3.737 8.56.272 18.149-.963 21.417-2.755 3.266-1.792-1.027-3.466-9.585-3.735" fill="#087bbb"/><path d="M36.993 5.044c-8.56-.27-18.145.962-21.412 2.753-3.266 1.793 1.02 3.468 9.58 3.737 8.56.272 18.149-.963 21.417-2.755 3.266-1.792-1.027-3.466-9.585-3.735z" fill="none" stroke="#fff" stroke-width=".5"/></svg>