<svg xmlns="http://www.w3.org/2000/svg" viewBox="0 0 20 36.25" height="36.25" width="20"><path d="M17.681 15.444c.288-1.06 1.513-6.353 1.563-7.09.053-.738-.215-1.66-.612-1.845l.03-.415c-.097-.04-.196-.074-.293-.113l.03.01s.282-1.182.443-2.002c.313-1.573.343-2.364.343-2.364-.005-.219-.064-.41-.259-.464l-.919-.253c-.2-.055-.33.073-.458.263 0 0-.357.733-.859 2.222-.269.79-.527 1.787-.527 1.787l.013.005a36.828 36.828 0 0 0-1.66-.502 38.127 38.127 0 0 0-4.281-.915s-.069.133-.186.367c-.435-.039-1.143.615-1.475 1.275-.331.659-1.996 5.83-2.29 6.889-.293 1.06-.86 3.755-1.108 5.099-.25 1.337-.473 3.676-1.339 6.8-.507 1.842-1.327 4.586-1.757 5.728-.113.298-1.015 1.822.293 2.334 1.285.512 3.198 1.06 4.165 1.329.967.264 2.89.776 4.258 1 1.387.225 1.396-1.543 1.45-1.86.22-1.202.918-3.974 1.426-5.815.864-3.125 1.87-5.249 2.343-6.53.474-1.278 1.373-3.88 1.666-4.94" fill="#02709f"/><path d="M17.754 1.655s-.425-.128-.787-.23c-.327-.088-.776-.205-.776-.205" fill="#02709f"/><path d="M16.26 15.585c.287-1.059 1.514-6.353 1.562-7.089.055-.737-.22-1.661-.61-1.846.02-.264.024-.41.024-.41-.092-.039-.19-.079-.287-.117l.029.01s.283-1.182.444-2.003c.308-1.571.342-2.362.342-2.362-.005-.22-.064-.407-.264-.464l-.913-.25c-.2-.058-.332.069-.46.259 0 0-.355.732-.858 2.227-.269.79-.528 1.781-.528 1.781l.015.005a32.181 32.181 0 0 0-1.66-.497 37.196 37.196 0 0 0-4.282-.918s-.069.132-.187.366c-.433-.04-1.142.616-1.473 1.274-.333.659-2.003 5.83-2.29 6.89-.294 1.059-.86 3.755-1.11 5.098-.248 1.338-.473 3.676-1.337 6.8C1.91 26.182 1.09 28.926.66 30.068c-.117.3-1.015 1.822.294 2.34 1.288.508 3.197 1.054 4.165 1.323.966.269 2.89.776 4.257 1.001 1.386.224 1.396-1.543 1.45-1.856.22-1.201.919-3.979 1.426-5.82.864-3.125 1.87-5.249 2.344-6.528.474-1.28 1.371-3.882 1.665-4.942" fill="#02709f"/><path d="M6.265 23.007a1.027 1.027 0 0 1-1.255.713 1.02 1.02 0 1 1 1.255-.713M8.833 24.096a1.018 1.018 0 0 1-1.962-.542 1.018 1.018 0 1 1 1.962.542M11.606 24.482a1.017 1.017 0 1 1-1.962-.542 1.02 1.02 0 0 1 1.963.542M5.645 25.249a1.023 1.023 0 0 1-1.255.712 1.026 1.026 0 0 1-.714-1.255 1.022 1.022 0 0 1 1.969.542M8.217 26.337a1.02 1.02 0 1 1-1.967-.543 1.02 1.02 0 0 1 1.967.543M10.991 26.724a1.022 1.022 0 0 1-1.967-.543 1.02 1.02 0 0 1 1.967.543M5.025 27.49a1.019 1.019 0 1 1-1.964-.543 1.019 1.019 0 1 1 1.964.543M7.598 28.579a1.021 1.021 0 0 1-1.256.712 1.026 1.026 0 0 1-.712-1.255 1.026 1.026 0 0 1 1.255-.712c.541.151.864.712.713 1.255M10.371 28.965c-.15.541-.712.864-1.255.713a1.02 1.02 0 1 1 1.255-.713M4.409 29.731a1.022 1.022 0 0 1-1.255.713 1.018 1.018 0 0 1-.713-1.255c.151-.542.713-.864 1.255-.713.543.151.86.713.713 1.255zm2.569 1.089a1.02 1.02 0 0 1-1.962-.542 1.022 1.022 0 0 1 1.254-.713c.541.151.859.712.708 1.255M9.751 31.205a1.02 1.02 0 0 1-1.964-.541 1.019 1.019 0 1 1 1.964.542M5.689 32.339c-.015.049-.103.067-.2.043-.094-.03-.156-.087-.148-.14.015-.05.108-.07.201-.046.093.025.157.09.147.143zm-.348-.098l-.316 1.167m.375-1.07l-.302 1.095m.591-1.094l-.323 1.166m.225-1.112l-.303 1.088M7.65 15.444l-.22.81m.313-.785l-.229.82m4.804.443l-.219.812m.131-.835l-.229.82M16.977 6.132s.284-1.18.445-2.002c.308-1.571.342-2.362.342-2.362-.005-.22-.064-.407-.264-.464l-.913-.25c-.2-.058-.332.069-.46.259 0 0-.356.732-.859 2.227-.268.79-.527 1.781-.527 1.781m-.356 11.593a.373.373 0 0 1-.464.258L6.05 15.005a.375.375 0 0 1-.259-.465l1.372-4.975c.053-.2.26-.318.46-.259l7.87 2.173c.2.054.317.258.263.459l-1.371 4.976zm2.7-11.207a34.588 34.588 0 0 0-2.236-.791M8.994 3.94s-1.875 3.828-2.95 7.715c-1.274 4.624-1.459 6.166-1.27 8.31.04.445.48.986.974 1.124.194.054.42.112.512.141.097.025.459.112.761.346.298.235.372.299.553.397.175.097.2.156.707.297.503.141.561.098.761.108.202.004.3-.01.68-.054.376-.05.732.064.825.087.098.025.322.089.518.143.488.136 1.143-.103 1.406-.464 1.264-1.744 1.894-3.165 3.174-7.789 1.069-3.881 1.425-8.13 1.425-8.13m-9.18-.307a38.372 38.372 0 0 1 9.141 2.52" fill="#02709f"/><path d="M11.27 19.995a2.278 2.278 0 0 1-2.799 1.586 2.275 2.275 0 0 1 1.211-4.385 2.281 2.281 0 0 1 1.588 2.8zm-4.19-3.731c.302.084.538.21.65.289.116.072.151.174.054.238a4.222 4.222 0 0 0-.391.294c-.118.102-.205.131-.382.034-.302-.177-.946-.645-1.107-.864-.084-.107-.005-.152.156-.161.234-.01.684.077 1.02.17zm-1.616 2.392c.166.054.576.264.699.353.116.087.302.272.287.502-.019.264-.005.815.108 1.002.151.238.132.34-.083.302a4.7 4.7 0 0 1-.738-.254c-.127-.059-.307-.17-.366-.342-.122-.357-.146-1.084-.083-1.44.025-.157.088-.152.176-.123M12.393 17.729a2.5 2.5 0 0 0-.708-.088c-.132.01-.215.078-.166.18.053.113.146.328.185.455.048.146.102.22.307.22.353.004 1.143-.063 1.398-.166.126-.054.077-.133-.054-.22-.196-.133-.63-.289-.962-.382zm.16 2.88a4.397 4.397 0 0 0-.78-.053c-.147.015-.4.078-.503.284-.123.239-.415.702-.611.805-.249.128-.288.23-.083.302.161.06.625.152.761.162.143.01.357.014.494-.108.288-.244.679-.858.81-1.191.06-.146.006-.176-.087-.2M12.172 7.495l.753-2.715M12.422 7.563l.752-2.714" fill="#02709f"/><path d="M17.681 15.444c.288-1.06 1.513-6.353 1.563-7.09.053-.738-.215-1.66-.612-1.845l.03-.415c-.097-.04-.196-.074-.293-.113l.03.01s.282-1.182.443-2.002c.313-1.573.343-2.364.343-2.364-.005-.219-.064-.41-.259-.464l-.919-.253c-.2-.055-.33.073-.458.263 0 0-.357.733-.859 2.222-.269.79-.527 1.787-.527 1.787l.013.005a36.828 36.828 0 0 0-1.66-.502 38.127 38.127 0 0 0-4.281-.915s-.069.133-.186.367c-.435-.039-1.143.615-1.475 1.275-.331.659-1.996 5.83-2.29 6.889-.293 1.06-.86 3.755-1.108 5.099-.25 1.337-.473 3.676-1.339 6.8-.507 1.842-1.327 4.586-1.757 5.728-.113.298-1.015 1.822.293 2.334 1.285.512 3.198 1.06 4.165 1.329.967.264 2.89.776 4.258 1 1.387.225 1.396-1.543 1.45-1.86.22-1.202.918-3.974 1.426-5.815.864-3.125 1.87-5.249 2.343-6.53.474-1.278 1.373-3.88 1.666-4.94" fill="#02709f"/><path d="M17.754 1.655s-.425-.128-.787-.23c-.327-.088-.776-.205-.776-.205" fill="#02709f"/><path d="M17.754 1.655s-.425-.127-.787-.23l-.776-.205" fill="none" stroke="#fff" stroke-width=".5"/><path d="M16.26 15.585c.287-1.059 1.514-6.353 1.562-7.089.055-.737-.22-1.661-.61-1.846.02-.264.024-.41.024-.41-.092-.039-.19-.079-.287-.117l.029.01s.283-1.182.444-2.003c.308-1.571.342-2.362.342-2.362-.005-.22-.064-.407-.264-.464l-.913-.25c-.2-.058-.332.069-.46.259 0 0-.355.732-.858 2.227-.269.79-.528 1.781-.528 1.781l.015.005a32.181 32.181 0 0 0-1.66-.497 37.196 37.196 0 0 0-4.282-.918s-.069.132-.187.366c-.433-.04-1.142.616-1.473 1.274-.333.659-2.003 5.83-2.29 6.89-.294 1.059-.86 3.755-1.11 5.098-.248 1.338-.473 3.676-1.337 6.8C1.91 26.182 1.09 28.926.66 30.068c-.117.3-1.015 1.822.294 2.34 1.288.508 3.197 1.054 4.165 1.323.966.269 2.89.776 4.257 1.001 1.386.224 1.396-1.543 1.45-1.856.22-1.201.919-3.979 1.426-5.82.864-3.125 1.87-5.249 2.344-6.528.474-1.28 1.371-3.882 1.665-4.942" fill="#02709f"/><path d="M16.26 15.585c.287-1.059 1.514-6.352 1.562-7.09.055-.736-.22-1.66-.61-1.845.02-.264.024-.41.024-.41-.092-.04-.19-.078-.287-.117l.029.01s.283-1.183.444-2.003c.308-1.572.342-2.362.342-2.362-.005-.22-.064-.407-.264-.465l-.913-.25c-.2-.058-.332.07-.46.26 0 0-.355.732-.858 2.226-.269.791-.528 1.782-.528 1.782l.015.006a31.22 31.22 0 0 0-1.66-.498 37.204 37.204 0 0 0-4.282-.919s-.069.132-.187.366c-.433-.038-1.142.617-1.473 1.275-.333.659-2.003 5.83-2.29 6.89-.294 1.059-.86 3.755-1.11 5.098-.248 1.337-.473 3.676-1.337 6.801C1.91 26.182 1.09 28.925.66 30.068c-.117.297-1.015 1.821.294 2.338 1.288.508 3.197 1.055 4.165 1.324.966.269 2.89.776 4.257 1.001 1.386.224 1.396-1.543 1.45-1.856.22-1.201.919-3.979 1.426-5.82.864-3.125 1.87-5.248 2.344-6.529.474-1.279 1.371-3.881 1.665-4.94z" fill="none" stroke="#fff" stroke-width=".5"/><path d="M6.265 23.007a1.027 1.027 0 0 1-1.255.713 1.02 1.02 0 1 1 1.255-.713" fill="#02709f"/><path d="M6.265 23.008a1.02 1.02 0 1 1-1.969-.542 1.02 1.02 0 0 1 1.97.542z" fill="none" stroke="#fff" stroke-width=".5"/><path d="M8.833 24.096a1.018 1.018 0 0 1-1.962-.542 1.018 1.018 0 1 1 1.962.542" fill="#02709f"/><path d="M8.833 24.097a1.019 1.019 0 0 1-1.962-.543 1.018 1.018 0 1 1 1.962.543z" fill="none" stroke="#fff" stroke-width=".5"/><path d="M11.606 24.482a1.017 1.017 0 1 1-1.962-.542 1.02 1.02 0 0 1 1.963.542" fill="#02709f"/><path d="M11.606 24.481a1.018 1.018 0 1 1-1.962-.54 1.017 1.017 0 1 1 1.962.54z" fill="none" stroke="#fff" stroke-width=".5"/><path d="M5.645 25.249a1.023 1.023 0 0 1-1.255.712 1.026 1.026 0 0 1-.714-1.255 1.022 1.022 0 0 1 1.969.542" fill="#02709f"/><path d="M5.645 25.249a1.023 1.023 0 0 1-1.255.712 1.026 1.026 0 0 1-.714-1.254 1.021 1.021 0 0 1 1.969.542z" fill="none" stroke="#fff" stroke-width=".5"/><path d="M8.217 26.337a1.02 1.02 0 1 1-1.967-.543 1.02 1.02 0 0 1 1.967.543" fill="#02709f"/><path d="M8.217 26.338c-.15.54-.712.864-1.255.712a1.022 1.022 0 0 1-.712-1.255 1.022 1.022 0 0 1 1.255-.712c.542.15.859.712.712 1.255z" fill="none" stroke="#fff" stroke-width=".5"/><path d="M10.991 26.724a1.022 1.022 0 0 1-1.967-.543 1.02 1.02 0 0 1 1.967.543" fill="#02709f"/><path d="M10.991 26.723a1.022 1.022 0 0 1-1.255.714 1.021 1.021 0 0 1 .543-1.97c.54.153.859.715.712 1.256z" fill="none" stroke="#fff" stroke-width=".5"/><path d="M5.025 27.49a1.019 1.019 0 1 1-1.964-.543 1.019 1.019 0 1 1 1.964.543" fill="#02709f"/><path d="M5.025 27.49a1.018 1.018 0 1 1-1.964-.542 1.018 1.018 0 1 1 1.964.542z" fill="none" stroke="#fff" stroke-width=".5"/><path d="M7.598 28.579a1.021 1.021 0 0 1-1.256.712 1.026 1.026 0 0 1-.712-1.255 1.026 1.026 0 0 1 1.255-.712c.541.151.864.712.713 1.255" fill="#02709f"/><path d="M7.598 28.58a1.022 1.022 0 0 1-1.256.712 1.026 1.026 0 0 1-.712-1.255 1.026 1.026 0 0 1 1.255-.713c.541.151.864.713.713 1.255z" fill="none" stroke="#fff" stroke-width=".5"/><path d="M10.371 28.965c-.15.541-.712.864-1.255.713a1.02 1.02 0 1 1 1.255-.713" fill="#02709f"/><path d="M10.371 28.964c-.15.542-.712.865-1.255.714a1.022 1.022 0 0 1 .542-1.969c.542.152.864.714.713 1.255z" fill="none" stroke="#fff" stroke-width=".5"/><path d="M4.409 29.731a1.022 1.022 0 0 1-1.255.713 1.018 1.018 0 0 1-.713-1.255c.151-.542.713-.864 1.255-.713.543.151.86.713.713 1.255zm2.569 1.089a1.02 1.02 0 0 1-1.962-.542 1.022 1.022 0 0 1 1.254-.713c.541.151.859.712.708 1.255" fill="#02709f"/><path d="M4.409 29.731a1.022 1.022 0 0 1-1.255.713 1.02 1.02 0 1 1 1.255-.712zm2.569 1.09a1.019 1.019 0 0 1-1.962-.542 1.019 1.019 0 0 1 1.962.542z" fill="none" stroke="#fff" stroke-width=".5"/><path d="M9.751 31.205a1.02 1.02 0 0 1-1.964-.541 1.019 1.019 0 1 1 1.964.542" fill="#02709f"/><path d="M9.751 31.205a1.02 1.02 0 0 1-1.964-.541c.148-.542.71-.86 1.255-.714.543.152.86.714.71 1.255z" fill="none" stroke="#fff" stroke-width=".5"/><path d="M5.689 32.339c-.015.049-.103.067-.2.043-.094-.03-.156-.087-.148-.14.015-.05.108-.07.201-.046.093.025.157.09.147.143zm-.348-.098l-.316 1.167m.375-1.07l-.302 1.095m.591-1.094l-.323 1.166m.225-1.112l-.303 1.088M7.65 15.444l-.22.81m.313-.785l-.229.82m4.804.443l-.219.812m.131-.835l-.229.82" fill="#02709f"/><path d="M5.689 32.339c-.015.049-.103.067-.2.044-.094-.03-.156-.09-.148-.143.015-.049.108-.067.201-.044.093.026.157.09.147.143zm-.348-.099l-.316 1.168m.375-1.07l-.302 1.095m.591-1.094l-.323 1.166m.225-1.112l-.303 1.088M7.65 15.444l-.22.81m.313-.786l-.229.821m4.804.444l-.219.811m.131-.835l-.229.82" fill="none" stroke="#fff" stroke-width=".5"/><path d="M16.977 6.132s.284-1.18.445-2.002c.308-1.571.342-2.362.342-2.362-.005-.22-.064-.407-.264-.464l-.913-.25c-.2-.058-.332.069-.46.259 0 0-.356.732-.859 2.227-.268.79-.527 1.781-.527 1.781m-.356 11.593a.373.373 0 0 1-.464.258L6.05 15.005a.375.375 0 0 1-.259-.465l1.372-4.975c.053-.2.26-.318.46-.259l7.87 2.173c.2.054.317.258.263.459l-1.371 4.976zm2.7-11.207a34.588 34.588 0 0 0-2.236-.791M8.994 3.94s-1.875 3.828-2.95 7.715c-1.274 4.624-1.459 6.166-1.27 8.31.04.445.48.986.974 1.124.194.054.42.112.512.141.097.025.459.112.761.346.298.235.372.299.553.397.175.097.2.156.707.297.503.141.561.098.761.108.202.004.3-.01.68-.054.376-.05.732.064.825.087.098.025.322.089.518.143.488.136 1.143-.103 1.406-.464 1.264-1.744 1.894-3.165 3.174-7.789 1.069-3.881 1.425-8.13 1.425-8.13m-9.18-.307a38.372 38.372 0 0 1 9.141 2.52" fill="#02709f"/><path d="M11.27 19.995a2.278 2.278 0 0 1-2.799 1.586 2.275 2.275 0 0 1 1.211-4.385 2.281 2.281 0 0 1 1.588 2.8zm-4.19-3.731c.302.084.538.21.65.289.116.072.151.174.054.238a4.222 4.222 0 0 0-.391.294c-.118.102-.205.131-.382.034-.302-.177-.946-.645-1.107-.864-.084-.107-.005-.152.156-.161.234-.01.684.077 1.02.17zm-1.616 2.392c.166.054.576.264.699.353.116.087.302.272.287.502-.019.264-.005.815.108 1.002.151.238.132.34-.083.302a4.7 4.7 0 0 1-.738-.254c-.127-.059-.307-.17-.366-.342-.122-.357-.146-1.084-.083-1.44.025-.157.088-.152.176-.123" fill="#02709f"/><path d="M11.27 19.995a2.278 2.278 0 0 1-2.799 1.587 2.276 2.276 0 0 1 1.211-4.385 2.281 2.281 0 0 1 1.588 2.798zm-4.19-3.73c.302.083.538.21.65.288.116.072.151.174.054.238a4.486 4.486 0 0 0-.391.293c-.118.102-.205.132-.382.035-.302-.176-.946-.645-1.107-.865-.084-.108-.005-.152.156-.161.234-.009.684.078 1.02.171zm-1.616 2.391c.166.055.576.264.699.353.116.088.302.272.287.502-.019.264-.005.816.108 1.002.151.238.132.341-.083.302a5.013 5.013 0 0 1-.738-.254c-.127-.058-.307-.17-.366-.342-.122-.356-.146-1.084-.083-1.44.025-.157.088-.151.176-.123z" fill="none" stroke="#fff" stroke-width=".5"/><path d="M12.393 17.729a2.5 2.5 0 0 0-.708-.088c-.132.01-.215.078-.166.18.053.113.146.328.185.455.048.146.102.22.307.22.353.004 1.143-.063 1.398-.166.126-.054.077-.133-.054-.22-.196-.133-.63-.289-.962-.382zm.16 2.88a4.397 4.397 0 0 0-.78-.053c-.147.015-.4.078-.503.284-.123.239-.415.702-.611.805-.249.128-.288.23-.083.302.161.06.625.152.761.162.143.01.357.014.494-.108.288-.244.679-.858.81-1.191.06-.146.006-.176-.087-.2" fill="#02709f"/><path d="M12.393 17.729a2.462 2.462 0 0 0-.708-.087c-.132.01-.215.077-.166.18.053.112.146.327.185.454.048.147.102.22.307.22.353.004 1.143-.063 1.398-.166.126-.054.077-.132-.054-.22-.196-.133-.63-.289-.962-.381zm.16 2.881a4.305 4.305 0 0 0-.78-.053c-.147.014-.4.077-.503.282-.123.24-.415.703-.611.806-.249.127-.288.229-.083.303.161.058.625.151.761.16.143.011.357.016.494-.107.288-.243.679-.858.81-1.191.06-.146.006-.176-.087-.2z" fill="none" stroke="#fff" stroke-width=".5"/><path d="M12.172 7.495l.753-2.715" fill="#02709f"/><path d="M12.172 7.495l.753-2.715" fill="none" stroke="#fff" stroke-width=".5"/><path d="M12.422 7.563l.752-2.714" fill="#02709f"/><path d="M12.422 7.563l.752-2.715M17.681 15.444c.288-1.06 1.513-6.353 1.563-7.09.053-.738-.215-1.66-.612-1.845l.03-.416c-.097-.04-.196-.073-.293-.112l.03.01s.282-1.182.443-2.002c.313-1.573.343-2.364.343-2.364-.005-.22-.064-.41-.259-.463l-.919-.254c-.2-.054-.33.073-.458.263 0 0-.357.733-.859 2.222-.269.791-.527 1.787-.527 1.787l.013.005a35.578 35.578 0 0 0-1.66-.502 38.124 38.124 0 0 0-4.281-.914s-.069.132-.186.366c-.435-.038-1.143.615-1.475 1.275-.331.659-1.996 5.83-2.29 6.889-.293 1.06-.86 3.755-1.108 5.097-.25 1.34-.473 3.678-1.339 6.803-.507 1.84-1.327 4.585-1.757 5.727-.113.298-1.015 1.822.293 2.334 1.285.512 3.198 1.06 4.165 1.329.967.263 2.89.776 4.258 1 1.387.225 1.396-1.543 1.45-1.86.22-1.201.918-3.975 1.426-5.815.864-3.125 1.87-5.25 2.343-6.529.474-1.278 1.373-3.881 1.666-4.941z" fill="none" stroke="#fff" stroke-width=".5"/><path d="M17.754 1.655s-.425-.127-.787-.23l-.776-.205" fill="none" stroke="#fff" stroke-width=".5"/><path d="M16.26 15.585c.287-1.059 1.514-6.352 1.562-7.09.055-.736-.22-1.66-.61-1.845.02-.264.024-.41.024-.41-.092-.04-.19-.078-.287-.117l.029.01s.283-1.183.444-2.003c.308-1.572.342-2.362.342-2.362-.005-.22-.064-.407-.264-.465l-.913-.25c-.2-.058-.332.07-.46.26 0 0-.355.732-.858 2.226-.269.791-.528 1.782-.528 1.782l.015.006a31.22 31.22 0 0 0-1.66-.498 37.204 37.204 0 0 0-4.282-.919s-.069.132-.187.366c-.433-.038-1.142.617-1.473 1.275-.333.659-2.003 5.83-2.29 6.89-.294 1.059-.86 3.755-1.11 5.098-.248 1.337-.473 3.676-1.337 6.801C1.91 26.182 1.09 28.925.66 30.068c-.117.297-1.015 1.821.294 2.338 1.288.508 3.197 1.055 4.165 1.324.966.269 2.89.776 4.257 1.001 1.386.224 1.396-1.543 1.45-1.856.22-1.201.919-3.979 1.426-5.82.864-3.125 1.87-5.248 2.344-6.529.474-1.279 1.371-3.881 1.665-4.94z" fill="none" stroke="#fff" stroke-width=".5"/><path d="M6.265 23.008a1.02 1.02 0 1 1-1.969-.542 1.02 1.02 0 0 1 1.97.542zM8.833 24.097a1.019 1.019 0 0 1-1.962-.543 1.018 1.018 0 1 1 1.962.543zM11.606 24.481a1.018 1.018 0 1 1-1.962-.54 1.017 1.017 0 1 1 1.962.54zM5.645 25.249a1.023 1.023 0 0 1-1.255.712 1.026 1.026 0 0 1-.714-1.254 1.021 1.021 0 0 1 1.969.542zM8.217 26.338c-.15.54-.712.864-1.255.712a1.022 1.022 0 0 1-.712-1.255 1.022 1.022 0 0 1 1.255-.712c.542.15.859.712.712 1.255zM10.991 26.723a1.022 1.022 0 0 1-1.255.714 1.021 1.021 0 0 1 .543-1.97c.54.153.859.715.712 1.256zM5.025 27.49a1.018 1.018 0 1 1-1.964-.542 1.018 1.018 0 1 1 1.964.542zM7.598 28.58a1.022 1.022 0 0 1-1.256.712 1.026 1.026 0 0 1-.712-1.255 1.026 1.026 0 0 1 1.255-.713c.541.151.864.713.713 1.255zM10.371 28.964c-.15.542-.712.865-1.255.714a1.022 1.022 0 0 1 .542-1.969c.542.152.864.714.713 1.255zM4.409 29.731a1.022 1.022 0 0 1-1.255.713 1.02 1.02 0 1 1 1.255-.712zm2.569 1.09a1.019 1.019 0 0 1-1.962-.542 1.019 1.019 0 0 1 1.962.542zM9.751 31.205a1.02 1.02 0 0 1-1.964-.541c.148-.542.71-.86 1.255-.714.543.152.86.714.71 1.255zM5.689 32.339c-.015.049-.103.067-.2.044-.094-.03-.156-.09-.148-.143.015-.049.108-.067.201-.044.093.026.157.09.147.143zm-.348-.099l-.316 1.168m.375-1.07l-.302 1.095m.591-1.094l-.323 1.166m.225-1.112l-.303 1.088M7.65 15.444l-.22.81m.313-.786l-.229.821m4.804.444l-.219.811m.131-.835l-.229.82M16.977 6.133s.284-1.183.445-2.003c.308-1.572.342-2.362.342-2.362-.005-.22-.064-.407-.264-.465l-.913-.25c-.2-.058-.332.07-.46.26 0 0-.356.732-.859 2.226-.268.791-.527 1.782-.527 1.782m-.356 11.593a.374.374 0 0 1-.464.259l-7.871-2.17a.374.374 0 0 1-.259-.463l1.372-4.975c.053-.2.26-.317.46-.258l7.87 2.172c.2.054.317.259.263.459l-1.371 4.976zm2.7-11.207a33.214 33.214 0 0 0-2.236-.79M8.994 3.94s-1.875 3.828-2.95 7.715c-1.274 4.624-1.459 6.166-1.27 8.31.04.445.48.987.974 1.124.194.054.42.111.512.141.097.024.459.113.761.347.298.234.372.297.553.396.175.097.2.156.707.297.503.142.561.098.761.108.202.005.3-.01.68-.054.376-.049.732.064.825.088.098.025.322.087.518.14.488.138 1.143-.102 1.406-.463 1.264-1.742 1.894-3.164 3.174-7.788 1.069-3.882 1.425-8.13 1.425-8.13m-9.18-.307c1.51.215 3.14.561 4.649.976 1.508.42 3.086.958 4.492 1.544" fill="none" stroke="#fff" stroke-width=".5"/><path d="M11.27 19.995a2.278 2.278 0 0 1-2.799 1.587 2.276 2.276 0 0 1 1.211-4.385 2.281 2.281 0 0 1 1.588 2.798zm-4.19-3.73c.302.083.538.21.65.288.116.072.151.174.054.238a4.486 4.486 0 0 0-.391.293c-.118.102-.205.132-.382.035-.302-.176-.946-.645-1.107-.865-.084-.108-.005-.152.156-.161.234-.009.684.078 1.02.171zm-1.616 2.391c.166.055.576.264.699.353.116.088.302.272.287.502-.019.264-.005.816.108 1.002.151.238.132.341-.083.302a5.013 5.013 0 0 1-.738-.254c-.127-.058-.307-.17-.366-.342-.122-.356-.146-1.084-.083-1.44.025-.157.088-.151.176-.123zM12.393 17.729a2.462 2.462 0 0 0-.708-.087c-.132.01-.215.077-.166.18.053.112.146.327.185.454.048.147.102.22.307.22.353.004 1.143-.063 1.398-.166.126-.054.077-.132-.054-.22-.196-.133-.63-.289-.962-.381zm.16 2.881a4.305 4.305 0 0 0-.78-.053c-.147.014-.4.077-.503.282-.123.24-.415.703-.611.806-.249.127-.288.229-.083.303.161.058.625.151.761.16.143.011.357.016.494-.107.288-.243.679-.858.81-1.191.06-.146.006-.176-.087-.2zM12.172 7.495l.753-2.715M12.422 7.563l.752-2.715" fill="none" stroke="#fff" stroke-width=".5"/></svg>