<svg xmlns="http://www.w3.org/2000/svg" viewBox="0 0 47.5 42.5" height="42.5" width="47.5"><defs><clipPath id="a"><path d="M0 9v329h380V9H0z"/></clipPath></defs><g clip-path="url(#a)" transform="matrix(.13 0 0 -.13 0 42.5)"><path d="M312.301 151.871l-28.781-38.402H44.879l39.101 39.062 228.321-.66" fill="#231f20"/><path d="M312.301 151.871l-28.781-38.402H44.879l39.101 39.062 228.321-.66z" fill="none" stroke="#fff" stroke-width="4"/><path d="M44.3 70.262h229.02v42.699H44.3v-42.7z" fill="#087bbb"/><path d="M44.3 70.262h229.02v42.699H44.3v-42.7z" fill="none" stroke="#fff" stroke-width="4"/><path d="M43.55 122.57h228.2v172.07H43.55V122.57z" fill="#087bbb"/><path d="M43.55 122.57h228.2v172.07H43.55V122.57z" fill="none" stroke="#fff" stroke-width="4"/><path d="M271.762 122.57l38.937 38.95v172.07l-38.937-38.949V122.57" fill="#087bbb"/><path d="M271.762 122.57l38.937 38.95v172.07l-38.937-38.949V122.57z" fill="none" stroke="#fff" stroke-width="4"/><path d="M357.969 32.73l17.461 34.918h-39.918l-17.461-34.917h39.918" fill="#087bbb"/><path d="M357.969 32.73l17.461 34.918h-39.918l-17.461-34.917h39.918z" fill="none" stroke="#fff" stroke-width="4"/><path d="M318.051 21.48h39.918v11.25h-39.918V21.48z" fill="#087bbb"/><path d="M318.051 21.48h39.918v11.25h-39.918V21.48z" fill="none" stroke="#fff" stroke-width="4"/><path d="M357.66 21.16l.11 11.57 17.46 34.918-.07-24.027-17.5-22.46" fill="#231f20"/><path d="M357.66 21.16l.11 11.57 17.46 34.918-.07-24.027-17.5-22.46z" fill="none" stroke="#fff" stroke-width="4"/><path d="M273.121 70.148v42.731l38.68 38.711v-42.731l-38.68-38.71" fill="#087bbb"/><path d="M273.121 70.148v42.731l38.68 38.711v-42.731l-38.68-38.71z" fill="none" stroke="#fff" stroke-width="4"/><path d="M81.45 274.801h152.499c9.922 0 17.961-8.051 17.961-17.973V160.5c0-9.922-8.039-17.969-17.961-17.969h-152.5c-9.93 0-17.968 8.047-17.968 17.969v96.328c0 9.922 8.039 17.973 17.968 17.973" fill="#087bbb"/><path d="M81.45 274.801h152.499c9.922 0 17.961-8.051 17.961-17.973V160.5c0-9.922-8.039-17.969-17.961-17.969h-152.5c-9.93 0-17.968 8.047-17.968 17.969v96.328c0 9.922 8.039 17.973 17.968 17.973z" fill="none" stroke="#fff" stroke-width="4"/><path d="M310.699 333.59H88.75l-45.2-38.949h228.212l38.937 38.949" fill="#087bbb"/><path d="M310.699 333.59H88.75l-45.2-38.949h228.212l38.937 38.949z" fill="none" stroke="#fff" stroke-width="4"/><path d="M266.52 14.84v13.82l29.89 41.371V44.72l-29.89-29.88" fill="#087bbb"/><path d="M266.52 14.84v13.82l29.89 41.371V44.72l-29.89-29.88z" fill="none" stroke="#fff" stroke-width="4"/><path d="M266.52 28.469H3.91L33.79 70.03h262.62L266.52 28.47" fill="#087bbb"/><path d="M266.52 28.469H3.91L33.79 70.03h262.62L266.52 28.47z" fill="none" stroke="#fff" stroke-width="4"/><path d="M3.75 14.84h262.77v13.629H3.75v-13.63z" fill="#087bbb"/><path d="M3.75 14.84h262.77v13.629H3.75v-13.63z" fill="none" stroke="#fff" stroke-width="4"/><path d="M365.469 66.398c31.211 15 6.25 78.633-55.938 46.762" fill="none" stroke="#087bbb" stroke-width="5"/><path d="M153.051 217.301h8.32l1.91-1.922h6.41l7.11 5.242h7.73l6.559-7.312 7.308.043 7.973 7.308 6.68.039 5.738-6.289h6.602l2.5 4.762 19.3-11.723-13.519-11.398-80.582-.16v-2.621h-12.578c-3.172 0-5.864-1.872-7.114-4.571-5.976-9.41-16.41-15.66-28.32-15.699-18.558-.039-33.629 15.121-33.629 33.789 0 18.672 15.07 33.871 33.629 33.871 11.762.039 22.113-6.019 28.082-15.238a7.904 7.904 0 0 1 7.352-4.961h12.539v-3.16" fill="#fff"/><path d="M239.648 201.52l-86.558-.122c-3.399-.039-8.168-.937-12.539-2.777 4.371-1.832 9.14-2.73 12.539-2.73M243.398 209.41l-86.558-.121c-3.871-.039-11.918.742-13.719 1.481" fill="none" stroke="#231f20" stroke-width="3.5" stroke-linejoin="round"/><path d="M105.078 176.629c16.563.043 30 13.601 30 30.281s-13.437 30.149-30 30.149c-16.558-.039-30-13.59-30-30.27s13.442-30.199 30-30.16" fill="#fff"/><path d="M105.078 176.629c16.563.043 30 13.601 30 30.281s-13.437 30.149-30 30.149c-16.558-.039-30-13.59-30-30.27s13.442-30.199 30-30.16z" fill="none" stroke="#231f20" stroke-width="2.5" stroke-linejoin="round"/><path d="M87.89 198.898c4.34 0 7.848 3.551 7.848 7.93 0 4.371-3.507 7.934-7.847 7.934-4.34-.043-7.891-3.602-7.891-7.973 0-4.379 3.55-7.891 7.89-7.891" fill="#fff"/><path d="M87.89 198.898c4.34 0 7.848 3.551 7.848 7.93 0 4.371-3.507 7.934-7.847 7.934-4.34-.043-7.891-3.602-7.891-7.973 0-4.379 3.55-7.891 7.89-7.891z" fill="none" stroke="#231f20" stroke-width="3.5" stroke-linejoin="round"/></g></svg>