<svg xmlns="http://www.w3.org/2000/svg" viewBox="0 0 55 41.25" height="41.25" width="55"><path d="M.708 39.19h47.685V7.862H.708V39.19z" fill="#087fbf"/><path d="M.708 39.19h47.685V7.863H.708V39.19z" fill="none" stroke="#fff" stroke-width=".5"/><path d="M53.877 31.169l-5.484 8.022V7.862l5.484-6.65V31.17" fill="#087fbf"/><path d="M53.877 31.168l-5.484 8.022V7.863l5.484-6.65v29.955z" fill="none" stroke="#fff" stroke-width=".5"/><path d="M8.935 1.212h44.942l-5.484 6.65H.708l8.227-6.65" fill="#087fbf"/><path d="M8.935 1.213h44.942l-5.484 6.65H.708l8.227-6.65z" fill="none" stroke="#fff" stroke-width=".5"/><path d="M15.381 24.845l-7.984.01v-1.27l7.984-.004.005-1.982 4.624 2.616-4.624 2.617-.005-1.987M31.997 24.845l-7.988.01v-1.27l7.988-.004v-1.982l4.624 2.616-4.624 2.617v-1.987M30.615 18.449l-6.694 4.355-.689-1.064 6.694-4.356-1.078-1.66 5.307-.327-2.456 4.717-1.084-1.665M30.615 29.899l-6.694-4.355-.689 1.068 6.694 4.352-1.078 1.665 5.307.322-2.456-4.712-1.084 1.66" fill="#fff"/><path d="M17.744 13.893c-7.695-1.538-11.758 2.402-11.113 5.811l.05.185c-5.997 1.02-4.425 8.096-1.55 8.096l.284-.01c-.723 3.325 6.284 6.71 10.19 5.02l.255-.273c1.392 2.987 6.343 3.49 11.235 3.612 4.242.108 6.719-.224 8.535-2.085l.283.084c6.787.546 9.883-4.146 8.398-7.515l.367-.103c2.315-.61 2.578-5.952-1.392-6.743l.078-.21c1.723-3.476-2.344-6.753-7.987-6.138l-.392-.205c-4.038-3.657-15.664-3.061-17.011.557l-.23-.083z" fill="none" stroke="#fff" stroke-width=".5"/></svg>