<svg xmlns="http://www.w3.org/2000/svg" viewBox="0 0 30 46.25" height="46.25" width="30"><defs><clipPath id="a"><path d="M0 10h240v360H0V10z"/></clipPath></defs><g clip-path="url(#a)" transform="matrix(.13 0 0 -.13 0 46.25)"><path d="M6.48 10.465h185.23v317.3H6.48v-317.3z" fill="#087fbf"/><path d="M6.48 10.465h185.23v317.3H6.48v-317.3z" fill="none" stroke="#fff" stroke-width="4"/><path d="M62.031 365.734l-55.55-37.968h185.238l46.051 37.968H62.031" fill="#087fbf"/><path d="M62.031 365.734l-55.55-37.968h185.238l46.051 37.968H62.031z" fill="none" stroke="#fff" stroke-width="4"/><path d="M237.77 61.016v304.718l-46.051-37.968V10.465l46.051 50.55" fill="#087fbf"/><path d="M237.77 61.016v304.718l-46.051-37.968V10.465l46.051 50.55z" fill="none" stroke="#fff" stroke-width="4"/><path d="M78.441 271.445l83.547.071v-10.578l-83.547-.043-.043-16.489-37.93 21.801 37.93 21.797.043-16.559M131.91 184.336l-83.55-.082v10.582l83.55.039.039 16.531 37.93-21.84-37.93-21.8-.039 16.57" fill="#fff"/></g></svg>