<svg xmlns="http://www.w3.org/2000/svg" viewBox="0 0 38.75 31.25" height="31.25" width="38.75"><path d="M.502 29.271h26.23v-6.157H.502v6.157z" fill="#02709f"/><path d="M.502 29.272h26.23v-6.158H.502v6.158z" fill="none" stroke="#fff" stroke-width=".5"/><path d="M26.734 23.114H.474l12.48-18.11H38.05l-11.317 18.11" fill="#02709f"/><path d="M26.734 23.114H.474l12.48-18.11H38.05l-11.317 18.11z" fill="none" stroke="#fff" stroke-width=".5"/><path d="M38.051 5.273V16.58L26.734 29.34v-5.952L38.05 5.272" fill="#02709f"/><path d="M38.051 5.273v11.308L26.734 29.339v-5.95L38.05 5.272z" fill="none" stroke="#fff" stroke-width=".5"/><path d="M17.969 8.3c-1.617 1.85-3.604 4.009-4.878 6.109l.108 1.899-3.975 6.137-.459-4.536c.756-3.023 10.141-14.906 12.3-16.308l.732 3.994-3.73 4.516-.098-1.811" fill="#02709f"/><path d="M17.969 8.3c-1.617 1.85-3.604 4.008-4.878 6.108l.108 1.9-3.975 6.138-.459-4.537c.756-3.022 10.141-14.907 12.3-16.308l.732 3.993-3.73 4.518-.098-1.813z" fill="none" stroke="#fff" stroke-width=".5"/><path d="M4.067 17.909l-.458 4.536h5.615l-.459-4.536H4.067" fill="#02709f"/><path d="M4.067 17.91l-.458 4.536h5.615l-.459-4.537H4.067z" fill="none" stroke="#fff" stroke-width=".5"/><path d="M21.065 1.601C18.906 3.003 9.521 14.886 8.765 17.91H4.067C4.824 14.886 14.21 3.003 16.367 1.6h4.698" fill="#02709f"/><path d="M21.065 1.6c-2.159 1.402-11.544 13.287-12.3 16.31H4.067c.757-3.023 10.142-14.908 12.3-16.31h4.698z" fill="none" stroke="#fff" stroke-width=".5"/><path d="M14.029 21.297h-1.69l.81-.937h1.69l-.81.937" fill="#02709f"/><path d="M14.029 21.298h-1.69l.81-.937h1.69l-.81.937z" fill="none" stroke="#fff" stroke-width=".5"/><path d="M17.779 21.297h-1.69l.81-.937h1.69l-.81.937" fill="#02709f"/><path d="M17.779 21.298h-1.69l.81-.937h1.69l-.81.937z" fill="none" stroke="#fff" stroke-width=".5"/><path d="M21.529 21.297h-1.69l.81-.937h1.69l-.81.937" fill="#02709f"/><path d="M21.529 21.298h-1.69l.81-.937h1.69l-.81.937z" fill="none" stroke="#fff" stroke-width=".5"/><path d="M25.279 21.297h-1.69l.81-.937h1.69l-.81.937" fill="#02709f"/><path d="M25.279 21.298h-1.69l.81-.937h1.69l-.81.937z" fill="none" stroke="#fff" stroke-width=".5"/></svg>