<svg xmlns="http://www.w3.org/2000/svg" viewBox="0 0 30 43.75" height="43.75" width="30"><defs><clipPath id="a"><path d="M0 9v339h240V9H0z"/></clipPath></defs><g clip-path="url(#a)" transform="matrix(.13 0 0 -.13 0 43.75)"><path d="M184.34 289.52H95.121l.469-266.989h88.75V289.52" fill="#02709f"/><path d="M184.34 289.52H95.121l.469-266.989h88.75V289.52z" fill="none" stroke="#fff" stroke-width="4"/><path d="M107.77 192.219h62.969v60.43H107.77v-60.43z" fill="#02709f"/><path d="M107.77 192.219h62.969v60.43H107.77v-60.43z" fill="none" stroke="#fff" stroke-width="4"/><path d="M237.27 343.309l-52.821-54.879V22.488l52.781 62.543.04 258.278" fill="#02709f"/><path d="M237.27 343.309l-52.821-54.879V22.488l52.781 62.543.04 258.278zM17.621 291.09H90.7" fill="none" stroke="#fff" stroke-width="4"/><path d="M105.59 299.91l33.551 36.762" fill="#02709f"/><path d="M105.59 299.91l33.551 36.762" fill="none" stroke="#fff" stroke-width="4"/><path d="M92.23 285.539s-.43-17.699-32.582-17.309L2.7 276.949v3.391l80.07 63.871 154.071-.16-51.918-54.492H95.66" fill="#02709f"/><path d="M92.23 285.539s-.43-17.699-32.582-17.309L2.7 276.949v3.391l80.07 63.871 154.071-.16-51.918-54.492H95.66" fill="none" stroke="#fff" stroke-width="4"/><path d="M94.96 288.59s-25.858-15.199-55.55-11.762l-37.422 3.16V13.59l37.422-1.61C77.34 8.7 95.121 22.34 95.121 22.34l-.16 266.25" fill="#02709f"/><path d="M94.96 288.59s-25.858-15.199-55.55-11.762l-37.422 3.16V13.59l37.422-1.61C77.34 8.7 95.121 22.34 95.121 22.34l-.16 266.25zM18.32 292.301h73.09" fill="none" stroke="#fff" stroke-width="4"/><path d="M112.891 301.121l40.078 36.957" fill="#02709f"/><path d="M112.891 301.121l40.078 36.957" fill="none" stroke="#fff" stroke-width="4"/></g></svg>