<svg xmlns="http://www.w3.org/2000/svg" viewBox="0 0 56.25 30" height="30" width="56.25"><path d="M.81 27.732h40.185V14.69H.81v13.042z" fill="#087bbb"/><path d="M.81 27.733h40.185V14.691H.81v13.042z" fill="none" stroke="#fff" stroke-width=".5"/><path d="M.703 14.754L16.939 1.6h37.495L40.958 14.754H.702" fill="#087bbb"/><path d="M.703 14.753L16.939 1.6h37.495L40.958 14.753H.702z" fill="none" stroke="#fff" stroke-width=".5"/><path d="M40.971 28.147L54.395 14.69l.009-13.066-13.433 13.11v13.413" fill="#087bbb"/><path d="M40.971 28.147l13.424-13.456.009-13.066-13.433 13.11v13.412z" fill="none" stroke="#fff" stroke-width=".5"/><path d="M24.257 11.331l-.776.64H13.458l-.996 1-2.72-1.186 5.464-1.562-.966 1.108h10.018M32.134 6.409l-.777.64H21.332l-.995 1-2.72-1.185L23.082 5.3l-.967 1.108h10.02M26.03 9.592l.776-.64h10.025l1.002-1 2.714 1.187-5.464 1.562.967-1.109H26.03M31.23 4.671l.781-.64h10.025l.997-1.001 2.72 1.186-5.465 1.563.967-1.108H31.23M20.889 21.931h7.231v1.143l2.73-1.684-2.73-1.69v1.142H20.89v1.09M20.723 20.056l6.797-2.305.42 1.075 1.942-2.456-3.183-.718.42 1.074-6.797 2.31.4 1.02M20.723 22.674l6.797 2.31.42-1.08 1.942 2.461-3.183.713.42-1.074-6.797-2.305.4-1.025M9.672 21.931h6.973v1.143l2.73-1.684-2.73-1.69v1.142H9.672v1.09" fill="#fff"/></svg>