<svg xmlns="http://www.w3.org/2000/svg" viewBox="0 0 46.25 42.5" height="42.5" width="46.25"><defs><clipPath id="a"><path d="M0 10v327h370V10H0z"/></clipPath></defs><g clip-path="url(#a)" transform="matrix(.13 0 0 -.13 0 42.5)"><path d="M369.84 263.285c0-39.531-82.34-71.519-183.899-71.519-101.601 0-183.953 31.988-183.953 71.519V83.523c0-39.488 82.352-71.52 183.953-71.52 101.559 0 183.899 32.032 183.899 71.52v179.762" fill="#087fbf"/><path d="M369.84 263.285c0-39.531-82.34-71.519-183.899-71.519-101.601 0-183.953 31.988-183.953 71.519V83.523c0-39.488 82.352-71.52 183.953-71.52 101.559 0 183.899 32.032 183.899 71.52v179.762z" fill="none" stroke="#fff" stroke-width="4"/><path d="M185.941 191.766c101.559 0 183.899 31.988 183.899 71.519 0 39.5-82.34 71.531-183.899 71.531-101.601 0-183.953-32.031-183.953-71.531 0-39.531 82.352-71.519 183.953-71.519" fill="#087fbf"/><path d="M185.941 191.766c101.559 0 183.899 31.988 183.899 71.519 0 39.5-82.34 71.531-183.899 71.531-101.601 0-183.953-32.031-183.953-71.531 0-39.531 82.352-71.519 183.953-71.519z" fill="none" stroke="#fff" stroke-width="4"/><path d="M143.91 291.254l15.192-22.77-57.422-13.281 12.539 10.434-88.75 15.187 22.262 16.68 85.667-14.488 10.512 8.238M224.73 236.023l-10.351 23.481 51.793 10.351-8.981-8.05 86.329-14.77-20.75-16.558-85.782 16.128-12.258-10.582M196.41 303.684l58 15.89.711-24.879-14.531 2.77-28.289-23.469-27.031 3.938 29.218 22.972-18.078 2.778M171.52 214.574l-55.231-10.347-2.07 25.589 15.902-3.48 30.391 25.98 26.91-4.57-32.461-28.32 16.559-4.852M278.672 64.965v45.941l-27.692-22.07 27.692-23.871" fill="#fff"/><path d="M278.672 64.965v45.941l-27.692-22.07 27.692-23.871z" fill="none" stroke="#fff" stroke-width=".76"/><path d="M83.012 64.965v45.941l27.648-22.07-27.648-23.871" fill="#fff"/><path d="M83.012 64.965v45.941l27.648-22.07-27.648-23.871z" fill="none" stroke="#fff" stroke-width=".76"/><path d="M101.559 156.184v-45.938l-27.688 22.07 27.688 23.868" fill="#fff"/><path d="M101.559 156.184v-45.938l-27.688 22.07 27.688 23.868z" fill="none" stroke="#fff" stroke-width=".76"/><path d="M258.012 156.184v-45.938l27.687 22.07-27.687 23.868" fill="#fff"/><path d="M258.012 156.184v-45.938l27.687 22.07-27.687 23.868z" fill="none" stroke="#fff" stroke-width=".76"/><path d="M264.02 133.797h-16.719M269.84 89.227h20.941M90.39 89.227H68.122M91.371 132.395h20.899" fill="none" stroke="#fff" stroke-width="7.6"/><path d="M228.98 131.453l-.152-83.476h-96.719l-.121 83.476h96.992" fill="#fff"/><path d="M228.98 131.453l-.152-83.476h-96.719l-.121 83.476h96.992z" fill="none" stroke="#087fbf" stroke-width="3.5"/><path d="M142.621 107.516h76.02v15.23h-76.02v-15.23zM142.621 55.984h76.02v37.97h-76.02v-37.97z" fill="none" stroke="#087fbf" stroke-width="3.5"/><path d="M200.352 161.105s4.769.54 5.859-4.261l1.059-15.43 31.91-5.309 3.199 6.911-8 19.179c-40.938 10.121-55.32 6.91-55.32 6.91h1.601s-14.371 3.211-55.351-6.91l-7.969-19.179 3.211-6.911 31.91 5.309 1.059 15.43c1.05 4.801 5.859 4.261 5.859 4.261h40.973" fill="#fff"/><path d="M218.629 100.863h-76.008" fill="none" stroke="#087fbf" stroke-width="3.5"/></g></svg>