<svg xmlns="http://www.w3.org/2000/svg" viewBox="0 0 47.5 32.5" height="32.5" width="47.5"><defs><clipPath id="a"><path d="M0 10h380v250H0V10z"/></clipPath></defs><g clip-path="url(#a)" transform="matrix(.13 0 0 -.13 0 32.5)"><path d="M5.66 11.52h333.16v194.526H5.66V11.52z" fill="#087fbf"/><path d="M5.66 11.52h333.16v194.526H5.66V11.52z" fill="none" stroke="#fff" stroke-width="4"/><path d="M378.711 69.879l-39.883-58.36v194.528l39.883 48.363V69.879" fill="#087fbf"/><path d="M378.711 69.879l-39.883-58.36v194.528l39.883 48.363V69.879z" fill="none" stroke="#fff" stroke-width="4"/><path d="M65.512 254.41H378.71l-39.883-48.363H5.66l59.852 48.363" fill="#087fbf"/><path d="M65.512 254.41H378.71l-39.883-48.363H5.66l59.852 48.363z" fill="none" stroke="#fff" stroke-width="4"/><path d="M120.59 104.488l-71.488-.039v11.371l71.488.039.031 17.731 41.41-23.43-41.41-23.441-.031 17.769M269.34 104.488l-71.488-.039v11.371l71.488.039.039 17.731 41.402-23.43-41.402-23.441-.039 17.769M256.988 161.797l-59.918-38.988-6.211 9.531 59.961 38.949-9.648 14.918 47.5 2.891-21.992-42.219-9.692 14.918M256.988 59.258l-59.918 38.98-6.211-9.531 59.961-38.98-9.648-14.887 47.5-2.89-21.992 42.187-9.692-14.88" fill="#fff"/></g></svg>