<svg xmlns="http://www.w3.org/2000/svg" viewBox="0 0 37.5 37.5" height="37.5" width="37.5"><defs><clipPath id="a"><path d="M0 10v287h300V10H0z"/></clipPath></defs><g clip-path="url(#a)" transform="matrix(.13 0 0 -.13 0 37.5)"><path d="M8.71 14.063h237.302v241.762H8.71V14.063z" fill="#087fbf"/><path d="M8.71 14.063h237.302v241.762H8.71V14.063z" fill="none" stroke="#fff" stroke-width="4"/><path d="M298.16 54.063l.121 238.98-51.91-37.219V14.062l51.789 40" fill="#087fbf"/><path d="M298.16 54.063l.121 238.98-51.91-37.219V14.062l51.789 40z" fill="none" stroke="#fff" stroke-width="4"/><path d="M243.871 255.234l54.41 37.809-235.043.281-56.68-38.09h237.313" fill="#087fbf"/><path d="M243.871 255.234l54.41 37.809-235.043.281-56.68-38.09h237.313z" fill="none" stroke="#fff" stroke-width="4"/><path d="M44.922 53.004h156.637v36.68H44.922v-36.68zM44.922 100.824h156.637v24.059H44.922v-24.059zM44.922 136.793h156.637v21.64H44.922v-21.64zM44.922 168.391h156.637v17.543H44.922v-17.543zM44.922 196.293h156.637v10.348H44.922v-10.348z" fill="#fff"/></g></svg>