<svg xmlns="http://www.w3.org/2000/svg" viewBox="0 0 251.25 126.25" height="126.25" width="251.25"><path d="M.297 124.703h57.047V87.51H.297v37.193z" fill="#20a3e4" fill-rule="evenodd"/><path d="M.297 124.702h57.047V87.509H.297v37.193z" fill="none" stroke="#afdff4" stroke-width=".596375" stroke-linecap="square" stroke-linejoin="bevel" stroke-miterlimit="10"/><path d="M.297 87.51l4.6-4.766h57.047l-4.6 4.766H.297" fill="#43b6ea" fill-rule="evenodd"/><path d="M.297 87.51l4.6-4.766h57.047l-4.6 4.765H.297z" fill="none" stroke="#afdff4" stroke-width=".596375" stroke-linecap="square" stroke-linejoin="bevel" stroke-miterlimit="10"/><path d="M57.344 87.51l4.6-4.766v37.192l-4.6 4.765V87.51" fill="#1d76a0" fill-rule="evenodd"/><path d="M57.344 87.51l4.6-4.766v37.192l-4.6 4.766V87.509z" fill="none" stroke="#afdff4" stroke-width=".596375" stroke-linecap="square" stroke-linejoin="bevel" stroke-miterlimit="10"/><path d="M46.119 95.571v-2.198l5.151 3.663-5.151 3.667V98.5h-6.992v-2.929h6.992M17.485 114.13v-2.196l5.151 3.661-5.151 3.668v-2.203H4.165v-2.93h13.32M46.119 114.257v-2.197l5.151 3.663-5.151 3.666v-2.197h-6.992v-2.935h6.992" fill="#242021" fill-rule="evenodd"/><path d="M45.381 94.839v-2.017l5.157 3.482-5.157 3.666v-2.202H38.39v-2.93h6.992M16.747 113.398V111.2l5.153 3.661-5.153 3.668v-2.202H3.614v-2.93h13.133" fill="#fff" fill-rule="evenodd"/><path d="M50.723 104.916v-2.201l5.332 3.666-5.332 3.663v-2.198H38.945v-2.93h11.778" fill="#242021" fill-rule="evenodd"/><path d="M50.166 104.184v-2.202l5.151 3.667-5.151 3.662v-2.197H38.207v-2.93h11.959M45.381 113.525v-2.197l5.157 3.662-5.157 3.666v-2.2H38.39v-2.931h6.992" fill="#fff" fill-rule="evenodd"/><path d="M22.93 121.587H36.54V90.625H22.93v30.962z" fill="#1c7ba7" fill-rule="evenodd"/><path d="M22.93 121.587H36.54V90.625H22.93v30.962z" fill="none" stroke="#8ed0f2" stroke-width=".894625" stroke-linecap="square" stroke-miterlimit="10"/><path d="M26.977 118.656h5.89v-4.214h-5.89v4.214z" fill="#fff" fill-rule="evenodd"/><path d="M26.977 118.657h5.89v-4.214h-5.89v4.214z" fill="none" stroke="#fff" stroke-width=".29825" stroke-linecap="square" stroke-miterlimit="10"/><path d="M34.522 119.935h1.098v-1.279h-1.098v1.28z" fill="#fff" fill-rule="evenodd"/><path d="M34.522 119.936h1.098v-1.28h-1.098v1.28z" fill="none" stroke="#fff" stroke-width=".29825" stroke-linecap="square" stroke-miterlimit="10"/><path d="M34.522 117.373h1.098v-1.284h-1.098v1.284z" fill="#fff" fill-rule="evenodd"/><path d="M34.522 117.372h1.098v-1.284h-1.098v1.284z" fill="none" stroke="#fff" stroke-width=".29825" stroke-linecap="square" stroke-miterlimit="10"/><path d="M34.522 114.809h1.098v-1.284h-1.098v1.284z" fill="#fff" fill-rule="evenodd"/><path d="M34.522 114.808h1.098v-1.284h-1.098v1.284z" fill="none" stroke="#fff" stroke-width=".29825" stroke-linecap="square" stroke-miterlimit="10"/><path d="M34.522 112.241h1.098v-1.098h-1.098v1.098z" fill="#fff" fill-rule="evenodd"/><path d="M34.522 112.24h1.098v-1.098h-1.098v1.099z" fill="none" stroke="#fff" stroke-width=".29825" stroke-linecap="square" stroke-miterlimit="10"/><path d="M34.522 109.678h1.098v-1.1h-1.098v1.1z" fill="#fff" fill-rule="evenodd"/><path d="M34.522 109.677h1.098v-1.099h-1.098v1.099z" fill="none" stroke="#fff" stroke-width=".29825" stroke-linecap="square" stroke-miterlimit="10"/><path d="M34.522 107.294h1.098v-1.279h-1.098v1.279z" fill="#fff" fill-rule="evenodd"/><path d="M34.522 107.294h1.098v-1.278h-1.098v1.278z" fill="none" stroke="#fff" stroke-width=".29825" stroke-linecap="square" stroke-miterlimit="10"/><path d="M34.522 104.731h1.098v-1.284h-1.098v1.284z" fill="#fff" fill-rule="evenodd"/><path d="M34.522 104.73h1.098v-1.283h-1.098v1.284z" fill="none" stroke="#fff" stroke-width=".29825" stroke-linecap="square" stroke-miterlimit="10"/><path d="M34.522 102.168h1.098v-1.284h-1.098v1.284z" fill="#fff" fill-rule="evenodd"/><path d="M34.522 102.167h1.098v-1.284h-1.098v1.284z" fill="none" stroke="#fff" stroke-width=".29825" stroke-linecap="square" stroke-miterlimit="10"/><path d="M34.522 99.603h1.098V98.32h-1.098v1.284z" fill="#fff" fill-rule="evenodd"/><path d="M34.522 99.603h1.098v-1.284h-1.098v1.284z" fill="none" stroke="#fff" stroke-width=".29825" stroke-linecap="square" stroke-miterlimit="10"/><path d="M34.522 97.036h1.098v-1.099h-1.098v1.1z" fill="#fff" fill-rule="evenodd"/><path d="M34.522 97.036h1.098v-1.099h-1.098v1.099z" fill="none" stroke="#fff" stroke-width=".29825" stroke-linecap="square" stroke-miterlimit="10"/><path d="M35.62 93.374v1.099l-1.098.18v-1.28h1.098" fill="#fff" fill-rule="evenodd"/><path d="M35.62 93.373v1.099l-1.098.181v-1.28h1.098z" fill="none" stroke="#fff" stroke-width=".29825" stroke-linecap="square" stroke-miterlimit="10"/><path d="M24.219 119.935h1.103v-1.279H24.22v1.28z" fill="#fff" fill-rule="evenodd"/><path d="M24.219 119.936h1.103v-1.28H24.22v1.28z" fill="none" stroke="#fff" stroke-width=".29825" stroke-linecap="square" stroke-miterlimit="10"/><path d="M24.219 117.373h1.103v-1.284H24.22v1.284z" fill="#fff" fill-rule="evenodd"/><path d="M24.219 117.372h1.103v-1.284H24.22v1.284z" fill="none" stroke="#fff" stroke-width=".29825" stroke-linecap="square" stroke-miterlimit="10"/><path d="M24.219 114.809h1.103v-1.284H24.22v1.284z" fill="#fff" fill-rule="evenodd"/><path d="M24.219 114.808h1.103v-1.284H24.22v1.284z" fill="none" stroke="#fff" stroke-width=".29825" stroke-linecap="square" stroke-miterlimit="10"/><path d="M24.219 112.241h1.103v-1.098H24.22v1.098z" fill="#fff" fill-rule="evenodd"/><path d="M24.219 112.24h1.103v-1.098H24.22v1.099z" fill="none" stroke="#fff" stroke-width=".29825" stroke-linecap="square" stroke-miterlimit="10"/><path d="M24.219 109.678h1.103v-1.1H24.22v1.1z" fill="#fff" fill-rule="evenodd"/><path d="M24.219 109.677h1.103v-1.099H24.22v1.099z" fill="none" stroke="#fff" stroke-width=".29825" stroke-linecap="square" stroke-miterlimit="10"/><path d="M24.219 107.294h1.103v-1.279H24.22v1.279z" fill="#fff" fill-rule="evenodd"/><path d="M24.219 107.294h1.103v-1.278H24.22v1.278z" fill="none" stroke="#fff" stroke-width=".29825" stroke-linecap="square" stroke-miterlimit="10"/><path d="M24.219 104.731h1.103v-1.284H24.22v1.284z" fill="#fff" fill-rule="evenodd"/><path d="M24.219 104.73h1.103v-1.283H24.22v1.284z" fill="none" stroke="#fff" stroke-width=".29825" stroke-linecap="square" stroke-miterlimit="10"/><path d="M24.219 102.168h1.103v-1.284H24.22v1.284z" fill="#fff" fill-rule="evenodd"/><path d="M24.219 102.167h1.103v-1.284H24.22v1.284z" fill="none" stroke="#fff" stroke-width=".29825" stroke-linecap="square" stroke-miterlimit="10"/><path d="M24.219 99.603h1.103V98.32H24.22v1.284z" fill="#fff" fill-rule="evenodd"/><path d="M24.219 99.603h1.103v-1.284H24.22v1.284z" fill="none" stroke="#fff" stroke-width=".29825" stroke-linecap="square" stroke-miterlimit="10"/><path d="M24.219 97.036h1.103v-1.099H24.22v1.1z" fill="#fff" fill-rule="evenodd"/><path d="M24.219 97.036h1.103v-1.099H24.22v1.099z" fill="none" stroke="#fff" stroke-width=".29825" stroke-linecap="square" stroke-miterlimit="10"/><path d="M24.219 94.652h1.103v-1.278H24.22v1.278z" fill="#fff" fill-rule="evenodd"/><path d="M24.219 94.652h1.103v-1.279H24.22v1.279z" fill="none" stroke="#fff" stroke-width=".29825" stroke-linecap="square" stroke-miterlimit="10"/><path d="M26.977 111.875h5.89v-4.214h-5.89v4.214z" fill="#fff" fill-rule="evenodd"/><path d="M26.977 111.874h5.89v-4.213h-5.89v4.213z" fill="none" stroke="#fff" stroke-width=".29825" stroke-linecap="square" stroke-miterlimit="10"/><path d="M26.977 105.098h5.89v-4.214h-5.89v4.214z" fill="#fff" fill-rule="evenodd"/><path d="M26.977 105.097h5.89v-4.214h-5.89v4.214z" fill="none" stroke="#fff" stroke-width=".29825" stroke-linecap="square" stroke-miterlimit="10"/><path d="M26.977 98.32h5.89v-4.034h-5.89v4.034z" fill="#fff" fill-rule="evenodd"/><path d="M26.977 98.32h5.89v-4.033h-5.89v4.034z" fill="none" stroke="#fff" stroke-width=".29825" stroke-linecap="square" stroke-miterlimit="10"/><path d="M17.324 98.852c.176-.65.932-3.906.962-4.356.034-.454-.132-1.02-.376-1.137.015-.162.015-.25.015-.25l-.177-.073.02.005s.172-.722.274-1.225c.185-.967.205-1.455.205-1.455 0-.133-.035-.249-.16-.283l-.558-.157c-.127-.033-.205.044-.283.161 0 0-.22.45-.532 1.368a21.709 21.709 0 0 0-.323 1.094l.01.005a22.977 22.977 0 0 0-3.647-.87s-.044.078-.118.225c-.267-.024-.702.376-.907.781-.205.405-1.227 3.583-1.407 4.234-.18.653-.527 2.31-.678 3.13-.157.824-.294 2.265-.82 4.18-.318 1.132-.822 2.816-1.085 3.52-.068.185-.625 1.117.18 1.435.792.312 1.969.65 2.56.816.595.166 1.777.478 2.617.615.849.136.86-.948.893-1.142.132-.738.562-2.442.875-3.576.526-1.919 1.147-3.222 1.44-4.008.287-.786.84-2.388 1.02-3.037" fill="#1089c2"/><path d="M17.372 90.38s-.262-.077-.487-.141l-.474-.127" fill="#1089c2"/><path d="M16.45 98.94c.181-.654.932-3.906.963-4.355.033-.455-.133-1.021-.377-1.138.015-.16.015-.25.015-.25l-.176-.072.02.005s.17-.724.273-1.226c.186-.966.21-1.455.21-1.455-.005-.132-.04-.249-.162-.283l-.561-.156c-.126-.035-.205.044-.282.16 0 0-.22.45-.528 1.368-.166.484-.327 1.093-.327 1.093l.01.005c-.338-.107-.674-.21-1.022-.307a21.774 21.774 0 0 0-2.631-.561l-.112.223c-.27-.024-.703.377-.908.781-.201.407-1.226 3.585-1.406 4.234-.181.65-.528 2.31-.679 3.13-.156.825-.294 2.261-.821 4.185-.313 1.128-.82 2.813-1.084 3.515-.068.186-.62 1.12.181 1.436.791.313 1.968.65 2.564.815.59.161 1.771.474 2.611.616.855.137.86-.948.894-1.143.133-.738.561-2.441.874-3.574.533-1.919 1.147-3.222 1.441-4.008.287-.787.84-2.388 1.02-3.038" fill="#1089c2"/><path d="M10.313 103.5a.628.628 0 0 1-.772.435.625.625 0 1 1 .332-1.207.627.627 0 0 1 .44.772M11.89 104.17a.624.624 0 0 1-.771.434.62.62 0 0 1-.435-.767.625.625 0 1 1 1.206.333M13.594 104.409a.626.626 0 1 1-1.206-.337.63.63 0 0 1 .77-.44.63.63 0 0 1 .436.777M9.931 104.877a.627.627 0 0 1-1.21-.336.627.627 0 0 1 1.21.337M11.509 105.546a.62.62 0 0 1-.766.435.627.627 0 1 1 .766-.435M13.212 105.781a.621.621 0 0 1-.766.44.627.627 0 1 1 .333-1.211.627.627 0 0 1 .433.771M9.551 106.255a.627.627 0 0 1-.772.434.616.616 0 0 1-.434-.767.626.626 0 0 1 1.206.332M11.127 106.924a.625.625 0 1 1-1.205-.333.626.626 0 1 1 1.205.333M12.832 107.163a.622.622 0 0 1-.767.435.627.627 0 1 1 .768-.435M9.17 107.631a.634.634 0 0 1-.771.44.63.63 0 0 1-.435-.771.621.621 0 0 1 .766-.44.624.624 0 0 1 .44.771m1.578.669a.625.625 0 1 1-1.207-.331.626.626 0 1 1 1.207.33M12.456 108.54a.627.627 0 0 1-.77.434.627.627 0 0 1-.44-.771.63.63 0 0 1 1.21.337M9.956 109.228c-.01.035-.063.045-.122.03-.054-.015-.098-.054-.088-.083.01-.035.064-.045.123-.03.057.015.097.054.087.084m-.21-.054l-.2.713m.234-.656l-.185.67m.361-.674l-.2.718m.141-.683l-.185.673m1.45-11.084l-.137.498m.196-.484l-.142.504m2.955.273l-.138.498m.08-.512l-.139.502M16.895 93.13s.17-.724.273-1.226c.186-.966.21-1.455.21-1.455-.005-.132-.04-.249-.162-.283l-.561-.156c-.126-.035-.205.044-.282.16 0 0-.22.45-.528 1.368-.166.484-.327 1.093-.327 1.093m-.22 7.124a.23.23 0 0 1-.283.161l-4.834-1.332a.233.233 0 0 1-.161-.284l.844-3.061a.236.236 0 0 1 .283-.161l4.835 1.338a.23.23 0 0 1 .16.283l-.845 3.056m1.66-6.884a21.106 21.106 0 0 0-1.37-.483m-3.6-.602s-1.152 2.354-1.81 4.736c-.782 2.843-.9 3.79-.782 5.108.029.274.297.606.6.689.117.034.254.069.313.087.058.015.283.07.468.215.182.143.23.182.338.24.111.059.126.098.433.185.313.089.348.059.47.064.127.005.186-.005.414-.029.235-.03.455.04.513.054.058.014.196.052.312.088.304.082.709-.064.87-.29.776-1.068 1.162-1.942 1.948-4.78.66-2.387.875-5 .875-5m-5.64-.19a23.71 23.71 0 0 1 2.856.606 23.51 23.51 0 0 1 2.764.947" fill="#1089c2"/><path d="M13.384 101.65a1.394 1.394 0 0 1-1.719.971 1.39 1.39 0 0 1-.971-1.719 1.396 1.396 0 1 1 2.69.748m-2.574-2.295c.186.054.333.132.401.176.073.05.093.108.034.147-.064.043-.18.126-.239.184-.073.064-.127.08-.235.02-.185-.107-.581-.395-.684-.532-.048-.069 0-.093.098-.098.148-.01.42.05.625.103m-.991 1.47a2.8 2.8 0 0 1 .43.215c.073.059.186.17.176.308-.01.166 0 .502.069.62.092.146.077.21-.054.184a2.777 2.777 0 0 1-.455-.156c-.077-.034-.19-.102-.224-.21-.074-.219-.089-.668-.053-.884.018-.097.057-.092.11-.077M14.078 100.259c-.192-.054-.353-.059-.435-.054-.083 0-.137.043-.103.107.034.068.087.2.112.278.03.094.064.138.19.138.216.004.704-.04.855-.103.078-.035.05-.079-.03-.138a2.55 2.55 0 0 0-.59-.228m.098 1.767a2.345 2.345 0 0 0-.479-.03c-.092.006-.249.045-.312.172-.074.146-.254.43-.371.493-.156.083-.18.142-.054.185.102.039.386.093.469.103.087.005.22.005.302-.07.176-.15.42-.526.498-.732.035-.087.006-.106-.053-.12M13.94 93.969l.464-1.67M14.096 94.009l.46-1.665" fill="#1089c2"/><path d="M17.324 98.852c.176-.65.932-3.906.962-4.356.034-.454-.132-1.02-.376-1.137.015-.162.015-.25.015-.25l-.177-.073.02.005s.172-.722.274-1.225c.185-.967.205-1.455.205-1.455 0-.133-.035-.249-.16-.283l-.558-.157c-.127-.033-.205.044-.283.161 0 0-.22.45-.532 1.368a21.709 21.709 0 0 0-.323 1.094l.01.005a22.977 22.977 0 0 0-3.647-.87s-.044.078-.118.225c-.267-.024-.702.376-.907.781-.205.405-1.227 3.583-1.407 4.234-.18.653-.527 2.31-.678 3.13-.157.824-.294 2.265-.82 4.18-.318 1.132-.822 2.816-1.085 3.52-.068.185-.625 1.117.18 1.435.792.312 1.969.65 2.56.816.595.166 1.777.478 2.617.615.849.136.86-.948.893-1.142.132-.738.562-2.442.875-3.576.526-1.919 1.147-3.222 1.44-4.008.287-.786.84-2.388 1.02-3.037" fill="#1089c2"/><path d="M17.372 90.38s-.262-.077-.487-.141l-.474-.127" fill="#1089c2"/><path d="M17.372 90.38s-.262-.078-.487-.14l-.474-.128" fill="none" stroke="#fff" stroke-width=".5"/><path d="M16.45 98.94c.181-.654.932-3.906.963-4.355.033-.455-.133-1.021-.377-1.138.015-.16.015-.25.015-.25l-.176-.072.02.005s.17-.724.273-1.226c.186-.966.21-1.455.21-1.455-.005-.132-.04-.249-.162-.283l-.561-.156c-.126-.035-.205.044-.282.16 0 0-.22.45-.528 1.368-.166.484-.327 1.093-.327 1.093l.01.005c-.338-.107-.674-.21-1.022-.307a21.774 21.774 0 0 0-2.631-.561l-.112.223c-.27-.024-.703.377-.908.781-.201.407-1.226 3.585-1.406 4.234-.181.65-.528 2.31-.679 3.13-.156.825-.294 2.261-.821 4.185-.313 1.128-.82 2.813-1.084 3.515-.068.186-.62 1.12.181 1.436.791.313 1.968.65 2.564.815.59.161 1.771.474 2.611.616.855.137.86-.948.894-1.143.133-.738.561-2.441.874-3.574.533-1.919 1.147-3.222 1.441-4.008.287-.787.84-2.388 1.02-3.038" fill="#1089c2"/><path d="M16.45 98.94c.181-.654.932-3.906.963-4.355.033-.454-.133-1.02-.377-1.138.015-.161.015-.249.015-.249l-.176-.073.02.004s.17-.722.273-1.225c.186-.967.21-1.455.21-1.455-.005-.132-.04-.25-.162-.284l-.561-.156c-.126-.033-.205.044-.282.161 0 0-.22.45-.528 1.368-.166.482-.327 1.094-.327 1.094l.01.005a21.967 21.967 0 0 0-3.652-.87l-.113.225c-.27-.025-.703.376-.908.781-.201.405-1.226 3.584-1.406 4.234-.181.649-.528 2.308-.679 3.13-.156.825-.294 2.26-.821 4.184-.313 1.128-.82 2.812-1.084 3.516-.068.185-.62 1.118.181 1.435.791.312 1.968.65 2.564.815.59.161 1.771.473 2.611.616.855.136.86-.947.894-1.143.133-.737.561-2.44.874-3.574.533-1.92 1.147-3.223 1.441-4.009.287-.787.84-2.388 1.02-3.037z" fill="none" stroke="#fff" stroke-width=".5"/><path d="M10.313 103.5a.628.628 0 0 1-.772.435.625.625 0 1 1 .332-1.207.627.627 0 0 1 .44.772" fill="#1089c2"/><path d="M10.313 103.5a.627.627 0 0 1-.772.436.626.626 0 1 1 .332-1.207.625.625 0 0 1 .44.772z" fill="none" stroke="#fff" stroke-width=".5"/><path d="M11.89 104.17a.624.624 0 0 1-.771.434.62.62 0 0 1-.435-.767.625.625 0 1 1 1.206.333" fill="#1089c2"/><path d="M11.89 104.17a.626.626 0 1 1-1.206-.336.626.626 0 0 1 1.206.335z" fill="none" stroke="#fff" stroke-width=".5"/><path d="M13.594 104.409a.626.626 0 1 1-1.206-.337.63.63 0 0 1 .77-.44.63.63 0 0 1 .436.777" fill="#1089c2"/><path d="M13.594 104.41a.626.626 0 1 1-1.206-.338.63.63 0 0 1 .77-.44c.333.094.528.44.436.777z" fill="none" stroke="#fff" stroke-width=".5"/><path d="M9.931 104.877a.627.627 0 0 1-1.21-.336.627.627 0 0 1 1.21.337" fill="#1089c2"/><path d="M9.931 104.878a.627.627 0 1 1-.438-.773.633.633 0 0 1 .438.773z" fill="none" stroke="#fff" stroke-width=".5"/><path d="M11.509 105.546a.62.62 0 0 1-.766.435.627.627 0 1 1 .766-.435" fill="#1089c2"/><path d="M11.509 105.547a.62.62 0 0 1-.766.434.618.618 0 0 1-.44-.767.627.627 0 0 1 .77-.44.627.627 0 0 1 .436.773z" fill="none" stroke="#fff" stroke-width=".5"/><path d="M13.212 105.781a.621.621 0 0 1-.766.44.627.627 0 1 1 .333-1.211.627.627 0 0 1 .433.771" fill="#1089c2"/><path d="M13.212 105.78a.62.62 0 0 1-.766.44.627.627 0 0 1-.44-.77.636.636 0 0 1 .773-.44c.33.092.527.44.433.77z" fill="none" stroke="#fff" stroke-width=".5"/><path d="M9.551 106.255a.627.627 0 0 1-.772.434.616.616 0 0 1-.434-.767.626.626 0 0 1 1.206.332" fill="#1089c2"/><path d="M9.551 106.254a.627.627 0 0 1-.772.435.618.618 0 0 1-.434-.767.619.619 0 0 1 .766-.44.625.625 0 0 1 .44.772z" fill="none" stroke="#fff" stroke-width=".5"/><path d="M11.127 106.924a.625.625 0 1 1-1.205-.333.626.626 0 1 1 1.205.333" fill="#1089c2"/><path d="M11.127 106.923a.626.626 0 0 1-1.205-.332.627.627 0 0 1 .772-.44c.33.093.527.44.433.772z" fill="none" stroke="#fff" stroke-width=".5"/><path d="M12.832 107.163a.622.622 0 0 1-.767.435.627.627 0 1 1 .768-.435" fill="#1089c2"/><path d="M12.832 107.163a.62.62 0 0 1-.767.434.623.623 0 0 1-.439-.771.628.628 0 0 1 .771-.435.625.625 0 0 1 .435.772z" fill="none" stroke="#fff" stroke-width=".5"/><path d="M9.17 107.631a.634.634 0 0 1-.771.44.63.63 0 0 1-.435-.771.621.621 0 0 1 .766-.44.624.624 0 0 1 .44.771m1.578.669a.625.625 0 1 1-1.207-.331.626.626 0 1 1 1.207.33" fill="#1089c2"/><path d="M9.17 107.632a.634.634 0 0 1-.771.439.63.63 0 0 1-.435-.772.626.626 0 1 1 1.206.332m1.578.67a.624.624 0 0 1-.768.438.63.63 0 0 1-.439-.77.626.626 0 1 1 1.207.332z" fill="none" stroke="#fff" stroke-width=".5"/><path d="M12.456 108.54a.627.627 0 0 1-.77.434.627.627 0 0 1-.44-.771.63.63 0 0 1 1.21.337" fill="#1089c2"/><path d="M12.456 108.54a.627.627 0 0 1-1.21-.337.627.627 0 0 1 1.21.337z" fill="none" stroke="#fff" stroke-width=".5"/><path d="M9.956 109.228c-.01.035-.063.045-.122.03-.054-.015-.098-.054-.088-.083.01-.035.064-.045.123-.03.057.015.097.054.087.084m-.21-.054l-.2.713m.234-.656l-.185.67m.361-.674l-.2.718m.141-.683l-.185.673m1.45-11.084l-.137.498m.196-.484l-.142.504m2.955.273l-.138.498m.08-.512l-.139.502" fill="#1089c2"/><path d="M9.956 109.228c-.01.034-.063.044-.122.029-.054-.014-.098-.054-.088-.083.01-.033.064-.043.123-.028.057.013.097.053.087.082m-.21-.054l-.2.713m.234-.654l-.185.669m.361-.674l-.2.718m.141-.684l-.185.674m1.45-11.084l-.137.499m.196-.484l-.142.502m2.955.274l-.138.498m.08-.513l-.139.504" fill="none" stroke="#fff" stroke-width=".5"/><path d="M16.895 93.13s.17-.724.273-1.226c.186-.966.21-1.455.21-1.455-.005-.132-.04-.249-.162-.283l-.561-.156c-.126-.035-.205.044-.282.16 0 0-.22.45-.528 1.368-.166.484-.327 1.093-.327 1.093m-.22 7.124a.23.23 0 0 1-.283.161l-4.834-1.332a.233.233 0 0 1-.161-.284l.844-3.061a.236.236 0 0 1 .283-.161l4.835 1.338a.23.23 0 0 1 .16.283l-.845 3.056m1.66-6.884a21.106 21.106 0 0 0-1.37-.483m-3.6-.602s-1.152 2.354-1.81 4.736c-.782 2.843-.9 3.79-.782 5.108.029.274.297.606.6.689.117.034.254.069.313.087.058.015.283.07.468.215.182.143.23.182.338.24.111.059.126.098.433.185.313.089.348.059.47.064.127.005.186-.005.414-.029.235-.03.455.04.513.054.058.014.196.052.312.088.304.082.709-.064.87-.29.776-1.068 1.162-1.942 1.948-4.78.66-2.387.875-5 .875-5m-5.64-.19a23.71 23.71 0 0 1 2.856.606 23.51 23.51 0 0 1 2.764.947" fill="#1089c2"/><path d="M13.384 101.65a1.394 1.394 0 0 1-1.719.971 1.39 1.39 0 0 1-.971-1.719 1.396 1.396 0 1 1 2.69.748m-2.574-2.295c.186.054.333.132.401.176.073.05.093.108.034.147-.064.043-.18.126-.239.184-.073.064-.127.08-.235.02-.185-.107-.581-.395-.684-.532-.048-.069 0-.093.098-.098.148-.01.42.05.625.103m-.991 1.47a2.8 2.8 0 0 1 .43.215c.073.059.186.17.176.308-.01.166 0 .502.069.62.092.146.077.21-.054.184a2.777 2.777 0 0 1-.455-.156c-.077-.034-.19-.102-.224-.21-.074-.219-.089-.668-.053-.884.018-.097.057-.092.11-.077" fill="#1089c2"/><path d="M13.384 101.65a1.396 1.396 0 1 1-2.69-.745 1.396 1.396 0 0 1 2.69.744m-2.574-2.294c.186.054.333.132.401.176.073.049.093.107.034.146-.064.045-.18.127-.239.186-.073.064-.127.077-.235.019-.185-.108-.581-.395-.684-.531-.048-.07 0-.094.098-.098.148-.01.42.049.625.102m-.991 1.47c.103.034.357.166.43.214.073.06.186.171.176.308-.01.166 0 .504.069.62.092.147.077.21-.054.186a3.09 3.09 0 0 1-.455-.156c-.077-.035-.19-.103-.224-.21-.074-.22-.089-.669-.053-.884.018-.097.057-.093.11-.079z" fill="none" stroke="#fff" stroke-width=".5"/><path d="M14.078 100.259c-.192-.054-.353-.059-.435-.054-.083 0-.137.043-.103.107.034.068.087.2.112.278.03.094.064.138.19.138.216.004.704-.04.855-.103.078-.035.05-.079-.03-.138a2.55 2.55 0 0 0-.59-.228m.098 1.767a2.345 2.345 0 0 0-.479-.03c-.092.006-.249.045-.312.172-.074.146-.254.43-.371.493-.156.083-.18.142-.054.185.102.039.386.093.469.103.087.005.22.005.302-.07.176-.15.42-.526.498-.732.035-.087.006-.106-.053-.12" fill="#1089c2"/><path d="M14.078 100.258c-.192-.053-.353-.059-.435-.053-.083 0-.137.043-.103.107.034.069.087.2.112.279.03.092.064.136.19.136.216.005.704-.039.855-.102.078-.034.05-.078-.03-.137-.12-.079-.384-.176-.59-.23m.098 1.767a2.348 2.348 0 0 0-.479-.028c-.092.005-.249.043-.312.171-.074.146-.254.429-.371.493-.156.083-.18.14-.054.186.102.039.386.093.469.102.087.004.22.004.302-.068.176-.151.42-.528.498-.733.035-.087.006-.107-.053-.123z" fill="none" stroke="#fff" stroke-width=".5"/><path d="M13.94 93.969l.464-1.67" fill="#1089c2"/><path d="M13.94 93.97l.464-1.67" fill="none" stroke="#fff" stroke-width=".5"/><path d="M14.096 94.009l.46-1.665" fill="#1089c2"/><path d="M14.096 94.008l.46-1.665M17.324 98.852c.176-.649.932-3.906.962-4.355.034-.454-.132-1.021-.376-1.138.015-.16.015-.25.015-.25l-.177-.072.02.005s.172-.723.274-1.227c.185-.965.205-1.454.205-1.454 0-.131-.035-.25-.16-.283l-.558-.156c-.127-.035-.205.044-.283.161 0 0-.22.449-.532 1.366-.161.484-.323 1.094-.323 1.094l.01.005a22.971 22.971 0 0 0-3.647-.87c0 .001-.044.079-.118.226-.267-.025-.702.375-.907.782-.205.405-1.227 3.584-1.407 4.232-.18.655-.527 2.31-.678 3.13-.157.825-.294 2.267-.82 4.18-.318 1.133-.822 2.817-1.085 3.52-.068.187-.625 1.119.18 1.437.792.312 1.969.648 2.56.815.595.166 1.777.478 2.617.614.849.138.86-.946.893-1.142.132-.738.562-2.441.875-3.574.526-1.918 1.147-3.222 1.44-4.009.287-.786.84-2.387 1.02-3.037z" fill="none" stroke="#fff" stroke-width=".5"/><path d="M17.372 90.38s-.262-.078-.487-.14l-.474-.128" fill="none" stroke="#fff" stroke-width=".5"/><path d="M16.45 98.94c.181-.654.932-3.906.963-4.355.033-.454-.133-1.02-.377-1.138.015-.161.015-.249.015-.249l-.176-.073.02.004s.17-.722.273-1.225c.186-.967.21-1.455.21-1.455-.005-.132-.04-.25-.162-.284l-.561-.156c-.126-.033-.205.044-.282.161 0 0-.22.45-.528 1.368-.166.482-.327 1.094-.327 1.094l.01.005a21.967 21.967 0 0 0-3.652-.87l-.113.225c-.27-.025-.703.376-.908.781-.201.405-1.226 3.584-1.406 4.234-.181.649-.528 2.308-.679 3.13-.156.825-.294 2.26-.821 4.184-.313 1.128-.82 2.812-1.084 3.516-.068.185-.62 1.118.181 1.435.791.312 1.968.65 2.564.815.59.161 1.771.473 2.611.616.855.136.86-.947.894-1.143.133-.737.561-2.44.874-3.574.533-1.92 1.147-3.223 1.441-4.009.287-.787.84-2.388 1.02-3.037z" fill="none" stroke="#fff" stroke-width=".5"/><path d="M10.313 103.5a.627.627 0 0 1-.772.436.626.626 0 1 1 .332-1.207.625.625 0 0 1 .44.772zM11.89 104.17a.626.626 0 1 1-1.206-.336.626.626 0 0 1 1.206.335zM13.594 104.41a.626.626 0 1 1-1.206-.338.63.63 0 0 1 .77-.44c.333.094.528.44.436.777zM9.931 104.878a.627.627 0 1 1-.438-.773.633.633 0 0 1 .438.773zM11.509 105.547a.62.62 0 0 1-.766.434.618.618 0 0 1-.44-.767.627.627 0 0 1 .77-.44.627.627 0 0 1 .436.773zM13.212 105.78a.62.62 0 0 1-.766.44.627.627 0 0 1-.44-.77.636.636 0 0 1 .773-.44c.33.092.527.44.433.77zM9.551 106.254a.627.627 0 0 1-.772.435.618.618 0 0 1-.434-.767.619.619 0 0 1 .766-.44.625.625 0 0 1 .44.772zM11.127 106.923a.626.626 0 0 1-1.205-.332.627.627 0 0 1 .772-.44c.33.093.527.44.433.772zM12.832 107.163a.62.62 0 0 1-.767.434.623.623 0 0 1-.439-.771.628.628 0 0 1 .771-.435.625.625 0 0 1 .435.772zM9.17 107.632a.634.634 0 0 1-.771.439.63.63 0 0 1-.435-.772.626.626 0 1 1 1.206.332m1.578.67a.624.624 0 0 1-.768.438.63.63 0 0 1-.439-.77.626.626 0 1 1 1.207.332zM12.456 108.54a.627.627 0 0 1-1.21-.337.627.627 0 0 1 1.21.337zM9.956 109.228c-.01.034-.063.044-.122.029-.054-.014-.098-.054-.088-.083.01-.033.064-.043.123-.028.057.013.097.053.087.082m-.21-.054l-.2.713m.234-.654l-.185.669m.361-.674l-.2.718m.141-.684l-.185.674m1.45-11.084l-.137.499m.196-.484l-.142.502m2.955.274l-.138.498m.08-.513l-.139.504M16.895 93.13s.17-.723.273-1.226c.186-.967.21-1.455.21-1.455-.005-.132-.04-.25-.162-.283l-.561-.157c-.126-.033-.205.044-.282.161 0 0-.22.45-.528 1.368-.166.483-.327 1.094-.327 1.094m-.22 7.124a.232.232 0 0 1-.283.161l-4.834-1.334c-.122-.039-.196-.161-.161-.282l.844-3.062a.235.235 0 0 1 .283-.16l4.835 1.337a.23.23 0 0 1 .16.283l-.845 3.057m1.66-6.885a21.962 21.962 0 0 0-1.37-.484m-3.6-.6s-1.152 2.354-1.81 4.736c-.782 2.841-.9 3.789-.782 5.108.029.273.297.605.6.688.117.034.254.068.313.088.058.015.283.069.468.215.182.141.23.18.338.239.111.058.126.097.433.186.313.087.348.059.47.062.127.005.186-.003.414-.028.235-.03.455.038.513.053.058.015.196.054.312.088.304.084.709-.063.87-.287.776-1.07 1.162-1.944 1.948-4.78.66-2.39.875-5 .875-5m-5.64-.192c.927.138 1.928.347 2.856.606.927.254 1.895.585 2.764.947" fill="none" stroke="#fff" stroke-width=".5"/><path d="M13.384 101.65a1.396 1.396 0 1 1-2.69-.745 1.396 1.396 0 0 1 2.69.744m-2.574-2.294c.186.054.333.132.401.176.073.049.093.107.034.146-.064.045-.18.127-.239.186-.073.064-.127.077-.235.019-.185-.108-.581-.395-.684-.531-.048-.07 0-.094.098-.098.148-.01.42.049.625.102m-.991 1.47c.103.034.357.166.43.214.073.06.186.171.176.308-.01.166 0 .504.069.62.092.147.077.21-.054.186a3.09 3.09 0 0 1-.455-.156c-.077-.035-.19-.103-.224-.21-.074-.22-.089-.669-.053-.884.018-.097.057-.093.11-.079zM14.078 100.258c-.192-.053-.353-.059-.435-.053-.083 0-.137.043-.103.107.034.069.087.2.112.279.03.092.064.136.19.136.216.005.704-.039.855-.102.078-.034.05-.078-.03-.137-.12-.079-.384-.176-.59-.23m.098 1.767a2.348 2.348 0 0 0-.479-.028c-.092.005-.249.043-.312.171-.074.146-.254.429-.371.493-.156.083-.18.14-.054.186.102.039.386.093.469.102.087.004.22.004.302-.068.176-.151.42-.528.498-.733.035-.087.006-.107-.053-.123zM13.94 93.97l.464-1.67M14.096 94.008l.46-1.665" fill="none" stroke="#fff" stroke-width=".5"/><path d="M95.596 121.777h142.618V28.794H95.596v92.983z" fill="#20a3e4" fill-rule="evenodd"/><path d="M95.596 121.777h142.618V28.793H95.596v92.984z" fill="none" stroke="#afdff4" stroke-width="1.490875" stroke-linecap="square" stroke-linejoin="bevel" stroke-miterlimit="10"/><path d="M95.596 28.794l11.5-11.91h142.617l-11.5 11.91H95.596" fill="#43b6ea" fill-rule="evenodd"/><path d="M95.596 28.793l11.5-11.909h142.617l-11.5 11.909H95.596z" fill="none" stroke="#afdff4" stroke-width="1.490875" stroke-linecap="square" stroke-linejoin="bevel" stroke-miterlimit="10"/><path d="M238.213 28.794l11.5-11.91v92.984l-11.5 11.91V28.793" fill="#1d76a0" fill-rule="evenodd"/><path d="M238.213 28.793l11.5-11.909v92.984l-11.5 11.909V28.793z" fill="none" stroke="#afdff4" stroke-width="1.490875" stroke-linecap="square" stroke-linejoin="bevel" stroke-miterlimit="10"/><path d="M210.146 48.95v-5.499l12.882 9.161-12.882 9.16v-5.498h-17.48V48.95h17.48M138.56 95.346v-5.493l12.88 9.16-12.88 9.16v-5.498h-33.306v-7.329h33.306M210.146 95.669v-5.5l12.882 9.162-12.882 9.165v-5.499h-17.48V95.67h17.48" fill="#242021" fill-rule="evenodd"/><path d="M208.306 47.119V42.08l12.885 8.701-12.885 9.16v-5.499h-17.481V47.12h17.481M136.719 93.515v-5.493l12.876 9.16-12.876 9.16v-5.498h-32.841v-7.329h32.84" fill="#fff" fill-rule="evenodd"/><path d="M221.645 72.309V66.81l13.345 9.165-13.345 9.155V79.64h-29.438v-7.33h29.438" fill="#242021" fill-rule="evenodd"/><path d="M220.269 70.478V64.98l12.876 9.16-12.876 9.16v-5.497h-29.903v-7.325h29.903M208.306 93.837V88.34l12.885 9.16-12.885 9.16v-5.494h-17.481v-7.329h17.481" fill="#fff" fill-rule="evenodd"/><path d="M152.173 113.989h34.019V36.58h-34.02v77.408z" fill="#1c7ba7" fill-rule="evenodd"/><path d="M152.173 113.99h34.019V36.581h-34.02v77.407z" fill="none" stroke="#8ed0f2" stroke-width="2.2365" stroke-linecap="square" stroke-miterlimit="10"/><path d="M162.29 106.66h14.721V96.127H162.29v10.533z" fill="#fff" fill-rule="evenodd"/><path d="M162.29 106.66h14.721V96.129H162.29v10.533z" fill="none" stroke="#fff" stroke-width=".745625" stroke-linecap="square" stroke-miterlimit="10"/><path d="M181.153 109.868h2.744v-3.208h-2.744v3.208z" fill="#fff" fill-rule="evenodd"/><path d="M181.153 109.867h2.744v-3.208h-2.744v3.208z" fill="none" stroke="#fff" stroke-width=".745625" stroke-linecap="square" stroke-miterlimit="10"/><path d="M181.153 103.456h2.744v-3.208h-2.744v3.208z" fill="#fff" fill-rule="evenodd"/><path d="M181.153 103.456h2.744v-3.208h-2.744v3.208z" fill="none" stroke="#fff" stroke-width=".745625" stroke-linecap="square" stroke-miterlimit="10"/><path d="M181.153 97.04h2.744v-3.203h-2.744v3.203z" fill="#fff" fill-rule="evenodd"/><path d="M181.153 97.04h2.744v-3.203h-2.744v3.203z" fill="none" stroke="#fff" stroke-width=".745625" stroke-linecap="square" stroke-miterlimit="10"/><path d="M181.153 90.629h2.744v-2.75h-2.744v2.75z" fill="#fff" fill-rule="evenodd"/><path d="M181.153 90.63h2.744v-2.75h-2.744v2.75z" fill="none" stroke="#fff" stroke-width=".745625" stroke-linecap="square" stroke-miterlimit="10"/><path d="M181.153 84.217h2.744V81.47h-2.744v2.748z" fill="#fff" fill-rule="evenodd"/><path d="M181.153 84.218h2.744V81.47h-2.744v2.75z" fill="none" stroke="#fff" stroke-width=".745625" stroke-linecap="square" stroke-miterlimit="10"/><path d="M181.153 78.261h2.744V75.06h-2.744v3.202z" fill="#fff" fill-rule="evenodd"/><path d="M181.153 78.26h2.744v-3.202h-2.744v3.203z" fill="none" stroke="#fff" stroke-width=".745625" stroke-linecap="square" stroke-miterlimit="10"/><path d="M181.153 71.85h2.744v-3.203h-2.744v3.203z" fill="#fff" fill-rule="evenodd"/><path d="M181.153 71.85h2.744v-3.203h-2.744v3.203z" fill="none" stroke="#fff" stroke-width=".745625" stroke-linecap="square" stroke-miterlimit="10"/><path d="M181.153 65.439h2.744v-3.208h-2.744v3.208z" fill="#fff" fill-rule="evenodd"/><path d="M181.153 65.438h2.744V62.23h-2.744v3.208z" fill="none" stroke="#fff" stroke-width=".745625" stroke-linecap="square" stroke-miterlimit="10"/><path d="M181.153 59.027h2.744V55.82h-2.744v3.207z" fill="#fff" fill-rule="evenodd"/><path d="M181.153 59.027h2.744v-3.208h-2.744v3.208z" fill="none" stroke="#fff" stroke-width=".745625" stroke-linecap="square" stroke-miterlimit="10"/><path d="M181.153 52.611h2.744v-2.743h-2.744v2.743z" fill="#fff" fill-rule="evenodd"/><path d="M181.153 52.612h2.744v-2.744h-2.744v2.744z" fill="none" stroke="#fff" stroke-width=".745625" stroke-linecap="square" stroke-miterlimit="10"/><path d="M183.896 43.451v2.75l-2.743.46v-3.21h2.743" fill="#fff" fill-rule="evenodd"/><path d="M183.896 43.452V46.2l-2.743.458v-3.207h2.743z" fill="none" stroke="#fff" stroke-width=".745625" stroke-linecap="square" stroke-miterlimit="10"/><path d="M155.39 109.868h2.764v-3.208h-2.764v3.208z" fill="#fff" fill-rule="evenodd"/><path d="M155.39 109.867h2.764v-3.208h-2.764v3.208z" fill="none" stroke="#fff" stroke-width=".745625" stroke-linecap="square" stroke-miterlimit="10"/><path d="M155.39 103.456h2.764v-3.208h-2.764v3.208z" fill="#fff" fill-rule="evenodd"/><path d="M155.39 103.456h2.764v-3.208h-2.764v3.208z" fill="none" stroke="#fff" stroke-width=".745625" stroke-linecap="square" stroke-miterlimit="10"/><path d="M155.39 97.04h2.764v-3.203h-2.764v3.203z" fill="#fff" fill-rule="evenodd"/><path d="M155.39 97.04h2.764v-3.203h-2.764v3.203z" fill="none" stroke="#fff" stroke-width=".745625" stroke-linecap="square" stroke-miterlimit="10"/><path d="M155.39 90.629h2.764v-2.75h-2.764v2.75z" fill="#fff" fill-rule="evenodd"/><path d="M155.39 90.63h2.764v-2.75h-2.764v2.75z" fill="none" stroke="#fff" stroke-width=".745625" stroke-linecap="square" stroke-miterlimit="10"/><path d="M155.39 84.217h2.764V81.47h-2.764v2.748z" fill="#fff" fill-rule="evenodd"/><path d="M155.39 84.218h2.764V81.47h-2.764v2.75z" fill="none" stroke="#fff" stroke-width=".745625" stroke-linecap="square" stroke-miterlimit="10"/><path d="M155.39 78.261h2.764V75.06h-2.764v3.202z" fill="#fff" fill-rule="evenodd"/><path d="M155.39 78.26h2.764v-3.202h-2.764v3.203z" fill="none" stroke="#fff" stroke-width=".745625" stroke-linecap="square" stroke-miterlimit="10"/><path d="M155.39 71.85h2.764v-3.203h-2.764v3.203z" fill="#fff" fill-rule="evenodd"/><path d="M155.39 71.85h2.764v-3.203h-2.764v3.203z" fill="none" stroke="#fff" stroke-width=".745625" stroke-linecap="square" stroke-miterlimit="10"/><path d="M155.39 65.439h2.764v-3.208h-2.764v3.208z" fill="#fff" fill-rule="evenodd"/><path d="M155.39 65.438h2.764V62.23h-2.764v3.208z" fill="none" stroke="#fff" stroke-width=".745625" stroke-linecap="square" stroke-miterlimit="10"/><path d="M155.39 59.027h2.764V55.82h-2.764v3.207z" fill="#fff" fill-rule="evenodd"/><path d="M155.39 59.027h2.764v-3.208h-2.764v3.208z" fill="none" stroke="#fff" stroke-width=".745625" stroke-linecap="square" stroke-miterlimit="10"/><path d="M155.39 52.611h2.764v-2.743h-2.764v2.743z" fill="#fff" fill-rule="evenodd"/><path d="M155.39 52.612h2.764v-2.744h-2.764v2.744z" fill="none" stroke="#fff" stroke-width=".745625" stroke-linecap="square" stroke-miterlimit="10"/><path d="M155.39 46.659h2.764V43.45h-2.764v3.208z" fill="#fff" fill-rule="evenodd"/><path d="M155.39 46.66h2.764v-3.208h-2.764v3.207z" fill="none" stroke="#fff" stroke-width=".745625" stroke-linecap="square" stroke-miterlimit="10"/><path d="M162.29 89.716h14.721V79.18H162.29v10.537z" fill="#fff" fill-rule="evenodd"/><path d="M162.29 89.717h14.721V79.179H162.29v10.538z" fill="none" stroke="#fff" stroke-width=".745625" stroke-linecap="square" stroke-miterlimit="10"/><path d="M162.29 72.769h14.721V62.23H162.29V72.77z" fill="#fff" fill-rule="evenodd"/><path d="M162.29 72.768h14.721V62.231H162.29v10.537z" fill="none" stroke="#fff" stroke-width=".745625" stroke-linecap="square" stroke-miterlimit="10"/><path d="M162.29 55.819h14.721V45.74H162.29V55.82z" fill="#fff" fill-rule="evenodd"/><path d="M162.29 55.82h14.721V45.741H162.29v10.077z" fill="none" stroke="#fff" stroke-width=".745625" stroke-linecap="square" stroke-miterlimit="10"/><path d="M138.159 57.152c.445-1.63 2.325-9.76 2.402-10.888.084-1.133-.331-2.554-.937-2.842.03-.404.039-.63.039-.63-.147-.058-.298-.117-.444-.176l.049.015s.435-1.811.678-3.076c.474-2.416.523-3.633.523-3.633-.005-.332-.093-.625-.4-.707l-1.401-.391c-.308-.083-.518.107-.71.404 0 0-.545 1.124-1.322 3.42-.415 1.21-.806 2.738-.806 2.738l.02.005a57.04 57.04 0 0 0-2.554-.766 55.804 55.804 0 0 0-6.572-1.401s-.108.195-.289.561c-.664-.064-1.752.942-2.26 1.952-.512 1.011-3.071 8.955-3.521 10.582-.449 1.631-1.313 5.77-1.699 7.832-.386 2.055-.732 5.654-2.055 10.45-.781 2.827-2.041 7.04-2.706 8.792-.17.46-1.558 2.8.45 3.59 1.977.785 4.916 1.63 6.406 2.04 1.484.406 4.439 1.192 6.538 1.535 2.128.346 2.138-2.369 2.227-2.852.336-1.846 1.41-6.108 2.191-8.936 1.324-4.8 2.866-8.061 3.594-10.029.733-1.964 2.11-5.962 2.559-7.589" fill="#1089c2"/><path d="M138.276 35.966s-.654-.19-1.211-.346c-.502-.138-1.191-.312-1.191-.312" fill="#1089c2"/><path d="M135.976 57.373c.445-1.632 2.325-9.76 2.408-10.894.079-1.128-.341-2.549-.943-2.836.034-.406.039-.63.039-.63-.146-.06-.292-.118-.449-.177l.054.015s.43-1.816.679-3.076c.474-2.418.522-3.632.522-3.632-.005-.333-.092-.625-.4-.71l-1.401-.384c-.309-.089-.519.102-.709.4 0 0-.546 1.123-1.324 3.413-.41 1.216-.804 2.745-.804 2.745l.015.004a60.082 60.082 0 0 0-2.544-.767 57.662 57.662 0 0 0-6.578-1.407s-.107.202-.288.568c-.664-.064-1.753.942-2.266 1.952-.507 1.012-3.071 8.956-3.516 10.582-.448 1.63-1.317 5.766-1.698 7.827-.387 2.06-.728 5.654-2.057 10.454-.776 2.828-2.04 7.041-2.7 8.794-.18.458-1.562 2.797.45 3.593 1.978.777 4.916 1.622 6.396 2.032 1.49.41 4.444 1.191 6.543 1.538 2.129.346 2.144-2.368 2.231-2.852.333-1.845 1.407-6.108 2.188-8.935 1.324-4.8 2.866-8.061 3.599-10.03.722-1.962 2.105-5.962 2.553-7.588" fill="#1089c2"/><path d="M120.62 68.769a1.56 1.56 0 0 1-1.924 1.093 1.567 1.567 0 1 1 .835-3.022 1.56 1.56 0 0 1 1.09 1.929M124.575 70.444a1.567 1.567 0 0 1-1.929 1.094 1.56 1.56 0 0 1-1.088-1.93 1.562 1.562 0 0 1 1.918-1.093 1.567 1.567 0 0 1 1.1 1.929M128.833 71.04a1.57 1.57 0 0 1-1.93 1.089 1.563 1.563 0 0 1-1.088-1.929 1.56 1.56 0 0 1 1.924-1.094 1.568 1.568 0 0 1 1.094 1.934M119.678 72.211a1.568 1.568 0 0 1-3.023-.834 1.563 1.563 0 0 1 1.924-1.09 1.57 1.57 0 0 1 1.099 1.924M123.623 73.886a1.565 1.565 0 1 1-3.017-.835 1.566 1.566 0 0 1 3.017.835M127.886 74.477a1.576 1.576 0 0 1-1.928 1.1 1.575 1.575 0 0 1-1.094-1.934 1.563 1.563 0 0 1 1.924-1.09 1.562 1.562 0 0 1 1.098 1.924M118.725 75.659a1.564 1.564 0 0 1-1.928 1.088 1.566 1.566 0 1 1 .834-3.017 1.569 1.569 0 0 1 1.094 1.929M122.671 77.329a1.565 1.565 0 1 1-3.017-.83 1.567 1.567 0 0 1 1.924-1.1 1.563 1.563 0 0 1 1.093 1.93M126.934 77.925a1.566 1.566 0 0 1-1.929 1.089 1.562 1.562 0 0 1-1.089-1.929 1.56 1.56 0 0 1 1.924-1.089 1.566 1.566 0 0 1 1.094 1.929M117.774 79.096a1.57 1.57 0 0 1-1.929 1.099 1.573 1.573 0 0 1-1.093-1.929 1.565 1.565 0 0 1 1.928-1.094 1.566 1.566 0 0 1 1.094 1.924m3.95 1.675a1.574 1.574 0 0 1-1.93 1.1 1.576 1.576 0 0 1-1.093-1.93 1.562 1.562 0 0 1 1.924-1.093 1.564 1.564 0 0 1 1.099 1.924M125.981 81.366a1.565 1.565 0 1 1-3.017-.835 1.564 1.564 0 1 1 3.017.835M119.736 83.1c-.02.079-.156.107-.302.069-.142-.044-.24-.138-.22-.215.02-.079.156-.108.302-.07.147.04.24.138.22.216m-.522-.146l-.498 1.792m.581-1.641l-.465 1.675m.904-1.68l-.492 1.793m.346-1.71l-.464 1.674m3.633-27.705l-.342 1.241m.483-1.2l-.351 1.258m7.382.679l-.346 1.241m.205-1.275l-.351 1.26M137.085 42.851s.43-1.816.679-3.076c.474-2.418.522-3.632.522-3.632-.005-.333-.092-.625-.4-.71l-1.401-.384c-.309-.089-.519.102-.709.4 0 0-.546 1.123-1.324 3.413-.41 1.216-.804 2.744-.804 2.744m-.552 17.803a.574.574 0 0 1-.709.4l-12.09-3.335a.574.574 0 0 1-.4-.708l2.11-7.641a.576.576 0 0 1 .708-.406l12.09 3.34a.572.572 0 0 1 .4.709l-2.109 7.64m4.15-17.216a55.966 55.966 0 0 0-3.437-1.206m-8.99-1.504s-2.88 5.884-4.526 11.85c-1.963 7.106-2.25 9.468-1.953 12.77.064.683.738 1.513 1.489 1.718.302.082.645.176.791.22.146.039.704.175 1.168.532.458.362.57.454.848.606.269.15.313.243 1.085.458.777.215.864.152 1.172.167.312.01.453-.015 1.04-.084.58-.072 1.127.098 1.275.138.14.038.487.136.786.22.756.204 1.762-.162 2.162-.715 1.944-2.68 2.915-4.862 4.878-11.962 1.646-5.966 2.187-12.495 2.187-12.495m-14.096-.474c2.319.337 4.819.869 7.134 1.509a58.891 58.891 0 0 1 6.904 2.369" fill="#1089c2"/><path d="M128.31 64.14a3.49 3.49 0 0 1-4.296 2.436 3.491 3.491 0 1 1 1.86-6.732 3.494 3.494 0 0 1 2.436 4.296m-6.435-5.727c.469.127.83.322 1.002.44.174.112.228.268.082.366-.156.107-.45.317-.6.453-.181.162-.313.206-.587.05-.463-.27-1.455-.987-1.698-1.324-.128-.166-.015-.234.238-.25.362-.018 1.05.124 1.563.265m-2.48 3.672c.259.087.889.41 1.069.542.186.137.474.424.445.77-.03.412-.005 1.255.17 1.539.23.372.2.528-.126.464-.264-.049-.943-.293-1.138-.386-.196-.093-.474-.264-.563-.523-.185-.556-.223-1.669-.13-2.216.043-.239.14-.234.273-.19M130.039 60.664a3.565 3.565 0 0 0-1.084-.137c-.21.014-.336.116-.259.273.083.176.22.504.289.704.067.224.155.331.467.336.538.01 1.76-.093 2.144-.259.196-.077.123-.2-.082-.336-.298-.2-.963-.44-1.475-.581m.245 4.423c-.264-.058-.968-.097-1.196-.077-.225.019-.617.116-.778.429-.18.371-.634 1.08-.932 1.236-.386.2-.444.351-.127.464.249.092.956.233 1.171.249.215.018.543.018.748-.162.444-.376 1.05-1.318 1.25-1.831.087-.225.005-.274-.136-.308M129.702 44.941l1.153-4.17M130.083 45.044l1.152-4.17" fill="#1089c2"/><path d="M138.159 57.152c.445-1.63 2.325-9.76 2.402-10.888.084-1.133-.331-2.554-.937-2.842.03-.404.039-.63.039-.63-.147-.058-.298-.117-.444-.176l.049.015s.435-1.811.678-3.076c.474-2.416.523-3.633.523-3.633-.005-.332-.093-.625-.4-.707l-1.401-.391c-.308-.083-.518.107-.71.404 0 0-.545 1.124-1.322 3.42-.415 1.21-.806 2.738-.806 2.738l.02.005a57.04 57.04 0 0 0-2.554-.766 55.804 55.804 0 0 0-6.572-1.401s-.108.195-.289.561c-.664-.064-1.752.942-2.26 1.952-.512 1.011-3.071 8.955-3.521 10.582-.449 1.631-1.313 5.77-1.699 7.832-.386 2.055-.732 5.654-2.055 10.45-.781 2.827-2.041 7.04-2.706 8.792-.17.46-1.558 2.8.45 3.59 1.977.785 4.916 1.63 6.406 2.04 1.484.406 4.439 1.192 6.538 1.535 2.128.346 2.138-2.369 2.227-2.852.336-1.846 1.41-6.108 2.191-8.936 1.324-4.8 2.866-8.061 3.594-10.029.733-1.964 2.11-5.962 2.559-7.589" fill="#1089c2"/><path d="M138.276 35.966s-.654-.19-1.211-.346c-.502-.138-1.191-.312-1.191-.312" fill="#1089c2"/><path d="M138.276 35.967s-.654-.192-1.211-.348c-.502-.136-1.191-.312-1.191-.312" fill="none" stroke="#fff" stroke-width="1.25"/><path d="M135.976 57.373c.445-1.632 2.325-9.76 2.408-10.894.079-1.128-.341-2.549-.943-2.836.034-.406.039-.63.039-.63-.146-.06-.292-.118-.449-.177l.054.015s.43-1.816.679-3.076c.474-2.418.522-3.632.522-3.632-.005-.333-.092-.625-.4-.71l-1.401-.384c-.309-.089-.519.102-.709.4 0 0-.546 1.123-1.324 3.413-.41 1.216-.804 2.745-.804 2.745l.015.004a60.082 60.082 0 0 0-2.544-.767 57.662 57.662 0 0 0-6.578-1.407s-.107.202-.288.568c-.664-.064-1.753.942-2.266 1.952-.507 1.012-3.071 8.956-3.516 10.582-.448 1.63-1.317 5.766-1.698 7.827-.387 2.06-.728 5.654-2.057 10.454-.776 2.828-2.04 7.041-2.7 8.794-.18.458-1.562 2.797.45 3.593 1.978.777 4.916 1.622 6.396 2.032 1.49.41 4.444 1.191 6.543 1.538 2.129.346 2.144-2.368 2.231-2.852.333-1.845 1.407-6.108 2.188-8.935 1.324-4.8 2.866-8.061 3.599-10.03.722-1.962 2.105-5.962 2.553-7.588" fill="#1089c2"/><path d="M135.976 57.373c.445-1.631 2.325-9.761 2.408-10.893.079-1.13-.341-2.55-.943-2.838.034-.405.039-.63.039-.63a21.29 21.29 0 0 0-.449-.175l.054.014s.43-1.817.679-3.077c.474-2.416.522-3.632.522-3.632-.005-.332-.092-.625-.4-.707l-1.401-.387c-.309-.088-.519.102-.709.401 0 0-.546 1.123-1.324 3.413-.41 1.216-.804 2.743-.804 2.743l.015.006a57.447 57.447 0 0 0-9.121-2.173c-.001 0-.108.2-.29.566-.663-.064-1.752.943-2.265 1.954-.507 1.01-3.071 8.955-3.516 10.58-.448 1.631-1.317 5.768-1.698 7.828-.387 2.06-.728 5.655-2.057 10.453-.776 2.828-2.04 7.042-2.7 8.795-.18.46-1.562 2.798.45 3.594 1.978.776 4.916 1.62 6.396 2.031 1.49.41 4.444 1.192 6.543 1.538 2.129.346 2.144-2.368 2.231-2.851.333-1.846 1.407-6.11 2.188-8.937 1.324-4.799 2.866-8.06 3.599-10.028.722-1.963 2.105-5.963 2.553-7.588z" fill="none" stroke="#fff" stroke-width="1.25"/><path d="M120.62 68.769a1.56 1.56 0 0 1-1.924 1.093 1.567 1.567 0 1 1 .835-3.022 1.56 1.56 0 0 1 1.09 1.929" fill="#1089c2"/><path d="M120.62 68.77a1.562 1.562 0 0 1-1.924 1.093 1.568 1.568 0 1 1 .835-3.022 1.56 1.56 0 0 1 1.09 1.929z" fill="none" stroke="#fff" stroke-width="1.25"/><path d="M124.575 70.444a1.567 1.567 0 0 1-1.929 1.094 1.56 1.56 0 0 1-1.088-1.93 1.562 1.562 0 0 1 1.918-1.093 1.567 1.567 0 0 1 1.1 1.929" fill="#1089c2"/><path d="M124.575 70.444a1.568 1.568 0 0 1-1.929 1.094 1.561 1.561 0 0 1-1.088-1.929 1.566 1.566 0 0 1 3.018.835z" fill="none" stroke="#fff" stroke-width="1.25"/><path d="M128.833 71.04a1.57 1.57 0 0 1-1.93 1.089 1.563 1.563 0 0 1-1.088-1.929 1.56 1.56 0 0 1 1.924-1.094 1.568 1.568 0 0 1 1.094 1.934" fill="#1089c2"/><path d="M128.833 71.04a1.568 1.568 0 0 1-1.93 1.088 1.562 1.562 0 0 1-1.088-1.929 1.561 1.561 0 0 1 1.924-1.093 1.57 1.57 0 0 1 1.094 1.934z" fill="none" stroke="#fff" stroke-width="1.25"/><path d="M119.678 72.211a1.568 1.568 0 0 1-3.023-.834 1.563 1.563 0 0 1 1.924-1.09 1.57 1.57 0 0 1 1.099 1.924" fill="#1089c2"/><path d="M119.678 72.212a1.569 1.569 0 0 1-3.023-.835 1.562 1.562 0 0 1 1.924-1.089 1.57 1.57 0 0 1 1.099 1.924z" fill="none" stroke="#fff" stroke-width="1.25"/><path d="M123.623 73.886a1.565 1.565 0 1 1-3.017-.835 1.566 1.566 0 0 1 3.017.835" fill="#1089c2"/><path d="M123.623 73.887a1.565 1.565 0 1 1-3.018-.835 1.566 1.566 0 0 1 3.017.835z" fill="none" stroke="#fff" stroke-width="1.25"/><path d="M127.886 74.477a1.576 1.576 0 0 1-1.928 1.1 1.575 1.575 0 0 1-1.094-1.934 1.563 1.563 0 0 1 1.924-1.09 1.562 1.562 0 0 1 1.098 1.924" fill="#1089c2"/><path d="M127.886 74.477a1.575 1.575 0 0 1-1.928 1.099 1.574 1.574 0 0 1-1.094-1.934 1.564 1.564 0 0 1 1.924-1.089 1.562 1.562 0 0 1 1.098 1.924z" fill="none" stroke="#fff" stroke-width="1.25"/><path d="M118.725 75.659a1.564 1.564 0 0 1-1.928 1.088 1.566 1.566 0 1 1 .834-3.017 1.569 1.569 0 0 1 1.094 1.929" fill="#1089c2"/><path d="M118.725 75.66a1.564 1.564 0 0 1-1.928 1.088 1.564 1.564 0 1 1 .834-3.017 1.568 1.568 0 0 1 1.094 1.928z" fill="none" stroke="#fff" stroke-width="1.25"/><path d="M122.671 77.329a1.565 1.565 0 1 1-3.017-.83 1.567 1.567 0 0 1 1.924-1.1 1.563 1.563 0 0 1 1.093 1.93" fill="#1089c2"/><path d="M122.671 77.328a1.565 1.565 0 1 1-3.017-.83 1.568 1.568 0 0 1 1.924-1.099 1.563 1.563 0 0 1 1.093 1.93z" fill="none" stroke="#fff" stroke-width="1.25"/><path d="M126.934 77.925a1.566 1.566 0 0 1-1.929 1.089 1.562 1.562 0 0 1-1.089-1.929 1.56 1.56 0 0 1 1.924-1.089 1.566 1.566 0 0 1 1.094 1.929" fill="#1089c2"/><path d="M126.934 77.924a1.565 1.565 0 0 1-1.929 1.09 1.562 1.562 0 0 1-1.089-1.93 1.56 1.56 0 0 1 1.924-1.088 1.566 1.566 0 0 1 1.094 1.928z" fill="none" stroke="#fff" stroke-width="1.25"/><path d="M117.774 79.096a1.57 1.57 0 0 1-1.929 1.099 1.573 1.573 0 0 1-1.093-1.929 1.565 1.565 0 0 1 1.928-1.094 1.566 1.566 0 0 1 1.094 1.924m3.95 1.675a1.574 1.574 0 0 1-1.93 1.1 1.576 1.576 0 0 1-1.093-1.93 1.562 1.562 0 0 1 1.924-1.093 1.564 1.564 0 0 1 1.099 1.924" fill="#1089c2"/><path d="M117.774 79.097a1.57 1.57 0 0 1-1.929 1.097 1.567 1.567 0 1 1 1.929-1.098m3.95 1.675a1.572 1.572 0 0 1-1.93 1.098 1.575 1.575 0 0 1-1.093-1.929 1.564 1.564 0 0 1 1.924-1.093 1.565 1.565 0 0 1 1.099 1.924z" fill="none" stroke="#fff" stroke-width="1.25"/><path d="M125.981 81.366a1.565 1.565 0 1 1-3.017-.835 1.564 1.564 0 1 1 3.017.835" fill="#1089c2"/><path d="M125.981 81.367a1.566 1.566 0 1 1-1.093-1.929 1.565 1.565 0 0 1 1.093 1.929z" fill="none" stroke="#fff" stroke-width="1.25"/><path d="M119.736 83.1c-.02.079-.156.107-.302.069-.142-.044-.24-.138-.22-.215.02-.079.156-.108.302-.07.147.04.24.138.22.216m-.522-.146l-.498 1.792m.581-1.641l-.465 1.675m.904-1.68l-.492 1.793m.346-1.71l-.464 1.674m3.633-27.705l-.342 1.241m.483-1.2l-.351 1.258m7.382.679l-.346 1.241m.205-1.275l-.351 1.26" fill="#1089c2"/><path d="M119.736 83.1c-.02.078-.156.108-.302.068-.142-.043-.24-.136-.22-.215.02-.078.156-.106.302-.067.147.038.24.136.22.215m-.522-.148l-.498 1.793m.581-1.64l-.465 1.673m.904-1.678l-.492 1.791m.346-1.709l-.464 1.675m3.633-27.705l-.342 1.24m.483-1.201l-.351 1.26m7.382.679l-.346 1.24m.205-1.274l-.351 1.259" fill="none" stroke="#fff" stroke-width="1.25"/><path d="M137.085 42.851s.43-1.816.679-3.076c.474-2.418.522-3.632.522-3.632-.005-.333-.092-.625-.4-.71l-1.401-.384c-.309-.089-.519.102-.709.4 0 0-.546 1.123-1.324 3.413-.41 1.216-.804 2.744-.804 2.744m-.552 17.803a.574.574 0 0 1-.709.4l-12.09-3.335a.574.574 0 0 1-.4-.708l2.11-7.641a.576.576 0 0 1 .708-.406l12.09 3.34a.572.572 0 0 1 .4.709l-2.109 7.64m4.15-17.216a55.966 55.966 0 0 0-3.437-1.206m-8.99-1.504s-2.88 5.884-4.526 11.85c-1.963 7.106-2.25 9.468-1.953 12.77.064.683.738 1.513 1.489 1.718.302.082.645.176.791.22.146.039.704.175 1.168.532.458.362.57.454.848.606.269.15.313.243 1.085.458.777.215.864.152 1.172.167.312.01.453-.015 1.04-.084.58-.072 1.127.098 1.275.138.14.038.487.136.786.22.756.204 1.762-.162 2.162-.715 1.944-2.68 2.915-4.862 4.878-11.962 1.646-5.966 2.187-12.495 2.187-12.495m-14.096-.474c2.319.337 4.819.869 7.134 1.509a58.891 58.891 0 0 1 6.904 2.369" fill="#1089c2"/><path d="M128.31 64.14a3.49 3.49 0 0 1-4.296 2.436 3.491 3.491 0 1 1 1.86-6.732 3.494 3.494 0 0 1 2.436 4.296m-6.435-5.727c.469.127.83.322 1.002.44.174.112.228.268.082.366-.156.107-.45.317-.6.453-.181.162-.313.206-.587.05-.463-.27-1.455-.987-1.698-1.324-.128-.166-.015-.234.238-.25.362-.018 1.05.124 1.563.265m-2.48 3.672c.259.087.889.41 1.069.542.186.137.474.424.445.77-.03.412-.005 1.255.17 1.539.23.372.2.528-.126.464-.264-.049-.943-.293-1.138-.386-.196-.093-.474-.264-.563-.523-.185-.556-.223-1.669-.13-2.216.043-.239.14-.234.273-.19" fill="#1089c2"/><path d="M128.31 64.14a3.492 3.492 0 1 1-2.436-4.297 3.494 3.494 0 0 1 2.436 4.298m-6.435-5.728c.469.126.83.321 1.002.439.174.112.228.269.082.366-.156.108-.45.318-.6.454-.181.161-.313.206-.587.05-.463-.269-1.455-.988-1.698-1.324-.128-.166-.015-.235.238-.249.362-.02 1.05.122 1.563.264m-2.48 3.672c.259.087.889.41 1.069.542.186.136.473.425.445.771-.03.41-.005 1.255.17 1.538.23.37.2.527-.126.463-.264-.048-.943-.292-1.138-.385-.196-.092-.474-.263-.563-.522-.185-.556-.223-1.67-.13-2.218.043-.238.14-.233.273-.19z" fill="none" stroke="#fff" stroke-width="1.25"/><path d="M130.039 60.664a3.565 3.565 0 0 0-1.084-.137c-.21.014-.336.116-.259.273.083.176.22.504.289.704.067.224.155.331.467.336.538.01 1.76-.093 2.144-.259.196-.077.123-.2-.082-.336-.298-.2-.963-.44-1.475-.581m.245 4.423c-.264-.058-.968-.097-1.196-.077-.225.019-.617.116-.778.429-.18.371-.634 1.08-.932 1.236-.386.2-.444.351-.127.464.249.092.956.233 1.171.249.215.018.543.018.748-.162.444-.376 1.05-1.318 1.25-1.831.087-.225.005-.274-.136-.308" fill="#1089c2"/><path d="M130.039 60.663a3.598 3.598 0 0 0-1.084-.136c-.21.015-.336.117-.259.274.083.175.22.502.289.702.067.225.155.332.467.338.538.01 1.76-.093 2.144-.259.196-.08.123-.2-.082-.338-.298-.2-.963-.438-1.475-.58m.245 4.423a6.38 6.38 0 0 0-1.196-.078c-.225.02-.617.118-.778.43-.18.372-.634 1.08-.932 1.235-.386.2-.444.351-.127.464.249.092.956.235 1.171.249.215.02.543.02.748-.161.444-.375 1.05-1.318 1.25-1.83.087-.226.005-.274-.136-.31z" fill="none" stroke="#fff" stroke-width="1.25"/><path d="M129.702 44.941l1.153-4.17" fill="#1089c2"/><path d="M129.702 44.94l1.153-4.17" fill="none" stroke="#fff" stroke-width="1.25"/><path d="M130.083 45.044l1.152-4.17" fill="#1089c2"/><path d="M130.083 45.043l1.152-4.17M138.159 57.153c.445-1.631 2.325-9.76 2.402-10.889.084-1.132-.331-2.554-.937-2.842.03-.405.039-.629.039-.629-.147-.059-.298-.117-.444-.176l.049.015s.435-1.813.678-3.076c.474-2.418.523-3.634.523-3.634-.005-.331-.093-.625-.4-.708l-1.401-.39c-.308-.083-.518.108-.71.405 0 0-.545 1.123-1.322 3.418-.415 1.21-.806 2.74-.806 2.74l.02.004a59.797 59.797 0 0 0-2.554-.767 56.313 56.313 0 0 0-6.572-1.4s-.108.194-.289.56c-.664-.062-1.752.943-2.26 1.954-.512 1.01-3.071 8.955-3.521 10.581-.449 1.63-1.313 5.772-1.699 7.831-.386 2.057-.732 5.656-2.055 10.45-.781 2.827-2.041 7.04-2.706 8.794-.17.459-1.558 2.798.45 3.589 1.977.786 4.916 1.631 6.406 2.041 1.484.405 4.439 1.192 6.538 1.533 2.128.347 2.138-2.368 2.227-2.851.336-1.847 1.41-6.11 2.191-8.936 1.324-4.8 2.866-8.062 3.594-10.03.733-1.962 2.11-5.96 2.559-7.587z" fill="none" stroke="#fff" stroke-width="1.25"/><path d="M138.276 35.967s-.654-.192-1.211-.348c-.502-.136-1.191-.312-1.191-.312" fill="none" stroke="#fff" stroke-width="1.25"/><path d="M135.976 57.373c.445-1.631 2.325-9.761 2.408-10.893.079-1.13-.341-2.55-.943-2.838.034-.405.039-.63.039-.63a21.29 21.29 0 0 0-.449-.175l.054.014s.43-1.817.679-3.077c.474-2.416.522-3.632.522-3.632-.005-.332-.092-.625-.4-.707l-1.401-.387c-.309-.088-.519.102-.709.401 0 0-.546 1.123-1.324 3.413-.41 1.216-.804 2.743-.804 2.743l.015.006a57.447 57.447 0 0 0-9.121-2.173c-.001 0-.108.2-.29.566-.663-.064-1.752.943-2.265 1.954-.507 1.01-3.071 8.955-3.516 10.58-.448 1.631-1.317 5.768-1.698 7.828-.387 2.06-.728 5.655-2.057 10.453-.776 2.828-2.04 7.042-2.7 8.795-.18.46-1.562 2.798.45 3.594 1.978.776 4.916 1.62 6.396 2.031 1.49.41 4.444 1.192 6.543 1.538 2.129.346 2.144-2.368 2.231-2.851.333-1.846 1.407-6.11 2.188-8.937 1.324-4.799 2.866-8.06 3.599-10.028.722-1.963 2.105-5.963 2.553-7.588z" fill="none" stroke="#fff" stroke-width="1.25"/><path d="M120.62 68.77a1.562 1.562 0 0 1-1.924 1.093 1.568 1.568 0 1 1 .835-3.022 1.56 1.56 0 0 1 1.09 1.929zM124.575 70.444a1.568 1.568 0 0 1-1.929 1.094 1.561 1.561 0 0 1-1.088-1.929 1.566 1.566 0 0 1 3.018.835zM128.833 71.04a1.568 1.568 0 0 1-1.93 1.088 1.562 1.562 0 0 1-1.088-1.929 1.561 1.561 0 0 1 1.924-1.093 1.57 1.57 0 0 1 1.094 1.934zM119.678 72.212a1.569 1.569 0 0 1-3.023-.835 1.562 1.562 0 0 1 1.924-1.089 1.57 1.57 0 0 1 1.099 1.924zM123.623 73.887a1.565 1.565 0 1 1-3.018-.835 1.566 1.566 0 0 1 3.017.835zM127.886 74.477a1.575 1.575 0 0 1-1.928 1.099 1.574 1.574 0 0 1-1.094-1.934 1.564 1.564 0 0 1 1.924-1.089 1.562 1.562 0 0 1 1.098 1.924zM118.725 75.66a1.564 1.564 0 0 1-1.928 1.088 1.564 1.564 0 1 1 .834-3.017 1.568 1.568 0 0 1 1.094 1.928zM122.671 77.328a1.565 1.565 0 1 1-3.017-.83 1.568 1.568 0 0 1 1.924-1.099 1.563 1.563 0 0 1 1.093 1.93zM126.934 77.924a1.565 1.565 0 0 1-1.929 1.09 1.562 1.562 0 0 1-1.089-1.93 1.56 1.56 0 0 1 1.924-1.088 1.566 1.566 0 0 1 1.094 1.928zM117.774 79.097a1.57 1.57 0 0 1-1.929 1.097 1.567 1.567 0 1 1 1.929-1.098m3.95 1.675a1.572 1.572 0 0 1-1.93 1.098 1.575 1.575 0 0 1-1.093-1.929 1.564 1.564 0 0 1 1.924-1.093 1.565 1.565 0 0 1 1.099 1.924zM125.981 81.367a1.566 1.566 0 1 1-1.093-1.929 1.565 1.565 0 0 1 1.093 1.929zM119.736 83.1c-.02.078-.156.108-.302.068-.142-.043-.24-.136-.22-.215.02-.078.156-.106.302-.067.147.038.24.136.22.215m-.522-.148l-.498 1.793m.581-1.64l-.465 1.673m.904-1.678l-.492 1.791m.346-1.709l-.464 1.675m3.633-27.705l-.342 1.24m.483-1.201l-.351 1.26m7.382.679l-.346 1.24m.205-1.274l-.351 1.259M137.085 42.85s.43-1.816.679-3.076c.474-2.416.522-3.632.522-3.632-.005-.332-.092-.625-.4-.707l-1.401-.387c-.309-.088-.519.102-.709.401 0 0-.546 1.123-1.324 3.413-.41 1.216-.804 2.743-.804 2.743m-.552 17.804a.576.576 0 0 1-.709.4l-12.09-3.334a.575.575 0 0 1-.4-.71l2.11-7.64a.576.576 0 0 1 .708-.406l12.09 3.34a.57.57 0 0 1 .4.708l-2.109 7.642m4.15-17.217a55.966 55.966 0 0 0-3.437-1.206m-8.99-1.504s-2.88 5.884-4.526 11.851c-1.963 7.104-2.25 9.468-1.953 12.768.064.683.738 1.513 1.489 1.718.302.084.645.177.791.22.146.04.704.177 1.168.533.458.361.57.453.848.605.269.151.313.245 1.085.46.777.214.864.151 1.172.165.312.01.453-.014 1.04-.083.58-.074 1.127.098 1.275.136.14.04.487.138.786.22.756.206 1.762-.16 2.162-.712 1.944-2.681 2.915-4.864 4.878-11.964 1.646-5.966 2.187-12.495 2.187-12.495m-14.096-.472c2.319.336 4.819.869 7.134 1.508a58.727 58.727 0 0 1 6.904 2.368" fill="none" stroke="#fff" stroke-width="1.25"/><path d="M128.31 64.14a3.492 3.492 0 1 1-2.436-4.297 3.494 3.494 0 0 1 2.436 4.298m-6.435-5.728c.469.126.83.321 1.002.439.174.112.228.269.082.366-.156.108-.45.318-.6.454-.181.161-.313.206-.587.05-.463-.269-1.455-.988-1.698-1.324-.128-.166-.015-.235.238-.249.362-.02 1.05.122 1.563.264m-2.48 3.672c.259.087.889.41 1.069.542.186.136.473.425.445.771-.03.41-.005 1.255.17 1.538.23.37.2.527-.126.463-.264-.048-.943-.292-1.138-.385-.196-.092-.474-.263-.563-.522-.185-.556-.223-1.67-.13-2.218.043-.238.14-.233.273-.19zM130.039 60.663a3.598 3.598 0 0 0-1.084-.136c-.21.015-.336.117-.259.274.083.175.22.502.289.702.067.225.155.332.467.338.538.01 1.76-.093 2.144-.259.196-.08.123-.2-.082-.338-.298-.2-.963-.438-1.475-.58m.245 4.423a6.38 6.38 0 0 0-1.196-.078c-.225.02-.617.118-.778.43-.18.372-.634 1.08-.932 1.235-.386.2-.444.351-.127.464.249.092.956.235 1.171.249.215.02.543.02.748-.161.444-.375 1.05-1.318 1.25-1.83.087-.226.005-.274-.136-.31zM129.702 44.94l1.153-4.17M130.083 45.043l1.152-4.17" fill="none" stroke="#fff" stroke-width="1.25"/><text style="-inkscape-font-specification:Helvetica" transform="matrix(1.25 0 0 1.25 155.162 7.903)" font-weight="400" font-size="9" font-family="Helvetica" fill="#231f20"><tspan y="0" x="0 5.0040002 10.008 15.012">250%</tspan><tspan y="50.333" x="-121.516 -115.513 -111.013 -108.511 -103.507 -98.502998 -96.504997 -94.002998 -89.502998 -87.504997 -83.14016">Actual size</tspan></text></svg>