<svg xmlns="http://www.w3.org/2000/svg" viewBox="0 0 52.5 42.5" height="42.5" width="52.5"><path d="M52.105 20.377L17.114.37v40.005l34.991-20" fill="#02709f"/><path d="M52.105 20.377L17.114.37v40.005l34.991-20z" fill="none" stroke="#fff" stroke-width=".5"/><path d="M15.43 9.228v2.203H.005L0 9.228h15.43" fill="#02709f"/><path d="M14.57 11.337l2.695-2.86"/><path d="M14.57 11.337l2.695-2.86" fill="none" stroke="#fff" stroke-width=".5"/><path d="M15.43 16.104v2.202H.005L0 16.103h15.43" fill="#02709f"/><path d="M14.57 18.212l2.695-2.86"/><path d="M14.57 18.212l2.695-2.86" fill="none" stroke="#fff" stroke-width=".5"/><path d="M15.43 22.979v2.202H.005L0 22.978h15.43" fill="#02709f"/><path d="M14.57 25.087l2.695-2.86"/><path d="M14.57 25.087l2.695-2.86" fill="none" stroke="#fff" stroke-width=".5"/><path d="M15.43 29.854v2.202H.005L0 29.854h15.43" fill="#02709f"/><path d="M14.57 31.962l2.695-2.86"/><path d="M14.57 31.962l2.695-2.86" fill="none" stroke="#fff" stroke-width=".5"/><path d="M16.967 3.97l-3.783-1.9L16.993.55l-.026 3.42"/><path d="M17.123 1.045v2.89" fill="none" stroke="#000" stroke-width=".75" stroke-linecap="round" stroke-linejoin="round"/><path d="M48.296 22.188l-34.995-20v40.004l34.995-20.005" fill="#02709f"/><path d="M48.296 22.188l-34.995-20v40.004l34.995-20.005z" fill="none" stroke="#fff" stroke-width=".5"/><text style="-inkscape-font-specification:Helvetica-Bold" transform="matrix(1.25 0 0 1.25 16.74 24.694)" font-weight="700" font-size="8" font-family="Helvetica" fill="#fff"><tspan y="0" x="0 4.5359998 10.312">PAD</tspan></text></svg>