<svg xmlns="http://www.w3.org/2000/svg" viewBox="0 0 63.75 31.25" height="31.25" width="63.75"><path d="M.502 29.275h51.373v-6.157H.502v6.157z" fill="#02709f"/><path d="M.502 29.275h51.373v-6.157H.502v6.157z" fill="none" stroke="#fff" stroke-width=".5"/><path d="M51.875 23.118H.474l12.48-18.116h50.24L51.875 23.118" fill="#02709f"/><path d="M51.875 23.118H.474l12.48-18.116h50.24L51.875 23.117z" fill="none" stroke="#fff" stroke-width=".5"/><path d="M63.194 5.003v11.581L51.875 29.342v-6.224L63.194 5.003" fill="#02709f"/><path d="M63.194 5.002v11.582L51.875 29.343v-6.225L63.194 5.002z" fill="none" stroke="#fff" stroke-width=".5"/><path d="M3.989 21.022l3.598-5.268h26.714L30.7 21.022H3.989" fill="#02709f"/><path d="M3.989 21.023l3.598-5.269h26.714L30.7 21.023H3.989z" fill="none" stroke="#fff" stroke-width=".5"/><path d="M7.587 15.754l3.599-5.272" fill="#02709f"/><path d="M7.587 15.754l3.599-5.274" fill="none" stroke="#fff" stroke-width=".5"/><path d="M34.301 15.754l3.599-5.272" fill="#02709f"/><path d="M34.301 15.754L37.9 10.48" fill="none" stroke="#fff" stroke-width=".5"/><path d="M51.875 23.118L63.194 5.002" fill="#02709f"/><path d="M51.875 23.118L63.194 5.002" fill="none" stroke="#fff" stroke-width=".5"/><path d="M46.391 8.297c-1.611 1.852-3.599 4.01-4.877 6.11l.112 1.357-3.98 6.142-.458-3.993c.756-3.028 10.14-14.908 12.3-16.314l.463 3.993-3.457 3.98-.103-1.275" fill="#02709f"/><path d="M46.391 8.298c-1.611 1.851-3.598 4.009-4.877 6.109l.113 1.357-3.98 6.143-.46-3.994c.757-3.028 10.142-14.908 12.3-16.314l.464 3.994-3.457 3.98-.103-1.275z" fill="none" stroke="#fff" stroke-width=".5"/><path d="M32.49 17.913l-.459 3.993h5.616l-.46-3.993H32.49" fill="#02709f"/><path d="M32.49 17.913l-.459 3.994h5.616l-.46-3.994H32.49z" fill="none" stroke="#fff" stroke-width=".5"/><path d="M49.487 1.599c-2.158 1.406-11.543 13.286-12.3 16.314H32.49c.758-3.028 10.141-14.908 12.3-16.314h4.697" fill="#02709f"/><path d="M49.487 1.6c-2.158 1.405-11.543 13.285-12.3 16.313H32.49c.758-3.028 10.141-14.908 12.3-16.314h4.697z" fill="none" stroke="#fff" stroke-width=".5"/><path d="M41.377 21.033l5.547-7.91h8.344l-4.956 7.91h-8.935" fill="#02709f"/><path d="M41.377 21.033l5.547-7.911h8.344l-4.956 7.91h-8.935z" fill="none" stroke="#fff" stroke-width=".5"/><path d="M47.334 21.033l5.15-7.91" fill="#02709f"/><path d="M47.334 21.033l5.15-7.911" fill="none" stroke="#fff" stroke-width=".5"/><path d="M44.355 21.033l5.353-7.91" fill="#02709f"/><path d="M44.355 21.033l5.353-7.911M51.553 19.056h-8.79M52.792 17.078H44.15M54.029 15.1h-8.491" fill="none" stroke="#fff" stroke-width=".5"/></svg>