<svg xmlns="http://www.w3.org/2000/svg" viewBox="0 0 38.75 31.25" height="31.25" width="38.75"><path d="M39.15 7.446c0 3.98-8.706 7.203-19.447 7.203C8.96 14.649.249 11.426.249 7.446v16.601c0 3.98 8.711 7.203 19.454 7.203 10.74 0 19.447-3.223 19.447-7.203v-16.6" fill="#026c9b"/><path d="M39.15 7.446c0 3.98-8.706 7.203-19.447 7.203C8.96 14.649.249 11.426.249 7.446v16.601c0 3.98 8.711 7.203 19.454 7.203 10.74 0 19.447-3.223 19.447-7.203v-16.6z" fill="none" stroke="#fff" stroke-width=".5"/><path d="M19.703 14.649c10.74 0 19.447-3.223 19.447-7.203 0-3.98-8.706-7.202-19.447-7.202C8.96.244.249 3.466.249 7.446S8.96 14.65 19.703 14.65" fill="#026c9b"/><path d="M19.703 14.649c10.74 0 19.447-3.223 19.447-7.203 0-3.98-8.706-7.202-19.447-7.202C8.96.244.249 3.466.249 7.446S8.96 14.65 19.703 14.65z" fill="none" stroke="#fff" stroke-width=".5"/></svg>