<svg xmlns="http://www.w3.org/2000/svg" viewBox="0 0 48.75 47.5" height="47.5" width="48.75"><path d="M16.065 18.803h25.727L45.45 1.294H20.97l-4.906 17.509" fill="#036998"/><path d="M16.065 18.803h25.727l3.657-17.51H20.97l-4.906 17.51z" fill="none" stroke="#fff" stroke-width=".5"/><path d="M16.065 18.803l2.631 5h25.728l-2.631-5H16.065" fill="#036998"/><path d="M16.065 18.803l2.631 5h25.728l-2.631-5H16.065z" fill="none" stroke="#fff" stroke-width=".5"/><path d="M45.449 1.294l2.466 4.687-3.491 17.822-2.631-5 3.656-17.509" fill="#036998"/><path d="M45.449 1.294l2.466 4.687-3.491 17.822-2.631-5 3.656-17.51z" fill="none" stroke="#fff" stroke-width=".5"/><path d="M.571 40.805h19.721l18.653-21.514H20.484L.57 40.805" fill="#036998"/><path d="M.571 40.805h19.721L38.945 19.29H20.484L.57 40.805z" fill="none" stroke="#fff" stroke-width=".5"/><path d="M.571 40.805l2.632 5h19.722l-2.632-5H.57" fill="#036998"/><path d="M.571 40.805l2.632 5h19.722l-2.632-5H.57z" fill="none" stroke="#fff" stroke-width=".5"/><path d="M38.945 19.291l2.471 4.693-18.491 21.821-2.632-5 18.652-21.514" fill="#036998"/><path d="M38.945 19.291l2.471 4.692-18.491 21.822-2.632-5L38.945 19.29z" fill="none" stroke="#fff" stroke-width=".5"/><path d="M19.746 21.195h2.007l-1.367 1.5H18.38l1.367-1.5M16.67 25.893l2.417-.562-1.367 1.5-1.314-.806M23.256 21.195h2.008l-1.363 1.5h-2.006l1.361-1.5M26.773 21.195h2.006l-1.113 1.5H25.41l1.363-1.5M30.288 21.195H32.3l-1.119 1.5h-2.006l1.113-1.5M15.84 29.862h2.011l-1.42 1.5h-2.007l1.416-1.5M19.355 29.862h2.007l-1.167 1.5h-2.26l1.42-1.5M22.871 29.862h2.007l-1.167 1.5h-2.007l1.167-1.5M11.841 33.861h2.007l-1.274 1.504h-2.008l1.275-1.504M15.351 33.861h2.013l-1.027 1.504h-2.255l1.27-1.504M18.868 33.861h2.01l-1.024 1.504h-2.008l1.022-1.504M34.053 21.195h2.012l-1.368 1.5H32.69l1.363-1.5M29.121 25.595l1.417.699-.27.13-2.514.675 1.367-1.504M25.756 26.059c-.385.645-1.888 1.167-3.363 1.167-1.476 0-2.354-.522-1.968-1.167.385-.645 1.894-1.166 3.369-1.166 1.47 0 2.349.52 1.962 1.166" fill="#fff"/><path d="M37.803 14.921c-.216.791-1.03 1.435-1.827 1.435H22.525c-.796 0-1.27-.644-1.06-1.435l2.613-9.79c.21-.796 1.03-1.44 1.82-1.44h13.457c.796 0 1.27.644 1.055 1.44l-2.607 9.79" fill="#036998"/><path d="M37.803 14.92c-.216.792-1.03 1.437-1.827 1.437H22.525c-.796 0-1.27-.645-1.06-1.436l2.613-9.79c.21-.795 1.03-1.44 1.82-1.44h13.457c.796 0 1.27.645 1.055 1.44l-2.607 9.79z" fill="none" stroke="#fff" stroke-width=".5"/></svg>