<svg xmlns="http://www.w3.org/2000/svg" viewBox="0 0 56.25 42.5" height="42.5" width="56.25"><path d="M53.658 1.416L54.956 3.1l-4.458 22.418-1.607-.997 4.767-23.105" fill="#1089c2"/><path d="M53.658 1.416L54.956 3.1l-4.458 22.418-1.607-.997 4.767-23.105z" fill="none" stroke="#fff" stroke-width=".5"/><path d="M49.199 26.089v3.409l-.884.766s-2.065.61-1.606 1.836l-9.224 8.579v-3.755l11.714-10.835" fill="#1089c2"/><path d="M49.199 26.089v3.409l-.884.766s-2.065.61-1.606 1.836l-9.224 8.579v-3.755l11.714-10.835z" fill="none" stroke="#fff" stroke-width=".5"/><path d="M.771 40.679h36.714v-3.755H.77v3.755z" fill="#1089c2"/><path d="M.771 40.679h36.714v-3.755H.77v3.755z" fill="none" stroke="#fff" stroke-width=".5"/><path d="M15.435 26.319l33.764-.23-11.714 10.835H.77l14.664-10.605" fill="#1089c2"/><path d="M15.435 26.319l33.764-.23-11.714 10.835H.77l14.664-10.605z" fill="none" stroke="#fff" stroke-width=".5"/><path d="M48.891 24.521l4.767-23.105H20.35L15.05 24.521H48.89" fill="#1089c2"/><path d="M48.891 24.521l4.767-23.105H20.35L15.05 24.521H48.89z" fill="none" stroke="#fff" stroke-width=".5"/><path d="M46.065 22.285l3.886-18.13h-27.08l-3.886 18.13h27.08" fill="#fff"/><path d="M46.065 22.285l3.886-18.13h-27.08l-3.886 18.13h27.08z" fill="none" stroke="#fff" stroke-width=".5"/><path d="M16.225 26.558l-8.515 6.88M18.96 26.558l-8.516 6.88M21.694 26.558l-8.515 6.88M24.429 26.558l-8.516 6.88M27.163 26.558l-8.515 6.88M29.898 26.558l-8.517 6.88M32.631 26.558l-8.515 6.88M35.366 26.558l-8.516 6.88M38.1 26.558l-8.515 6.88M40.835 26.558l-8.516 6.88M43.569 26.558l-8.515 6.88M46.304 26.558l-8.516 6.88M8.663 32.71H38.98M10.703 31.137h29.844M12.817 29.56h29.766M14.697 27.984h30.006" fill="none" stroke="#fff" stroke-linejoin="round" stroke-width=".125"/><text style="-inkscape-font-specification:Helvetica-Bold" transform="matrix(1.25 0 0 1.25 25.999 16.678)" font-weight="700" font-size="6" font-family="Helvetica" fill="#231f20"><tspan y="0" x="0 4.0019999 8.0039997">SSC</tspan></text></svg>