<svg xmlns="http://www.w3.org/2000/svg" viewBox="0 0 61.25 30" height="30" width="61.25"><path d="M.708 15.112L18.74.532h41.641l-14.927 14.58H.708" fill="#026c9b"/><path d="M.708 15.112L18.74.532h41.641l-14.927 14.58H.708z" fill="none" stroke="#fff" stroke-width=".5"/><path d="M45.454 29.61L60.38 13.496V.556L45.454 15.112V29.61" fill="#026c9b"/><path d="M45.454 29.61L60.38 13.496V.556L45.454 15.112V29.61z" fill="none" stroke="#fff" stroke-width=".5"/><path d="M.766 29.624h44.688V15.112H.766v14.512z" fill="#026c9b"/><path d="M.766 29.624h44.688V15.112H.766v14.512z" fill="none" stroke="#fff" stroke-width=".5"/><path d="M27.329 21.035l-.005-3.325-7.764 4.395 7.764 4.394.005-3.335v-2.129" fill="#fff"/><path d="M27.329 21.035l-.005-3.325-7.764 4.395 7.764 4.394.005-3.335v-2.129z" fill="none" stroke="#fff" stroke-width=".497875"/><path d="M25.669 6.69l2.46-2.33L17.27 7.974l4.351 2.539 2.47-2.334" fill="#fff"/><path d="M37.71 8.174l-15.293.005 1.577-1.494 15.294-.005 2.465-2.33 4.35 3.076-10.86 3.076 2.467-2.328" fill="#fff"/></svg>