<svg xmlns="http://www.w3.org/2000/svg" viewBox="0 0 102.5 61.25" height="61.25" width="102.5"><defs><clipPath id="a"><path d="M0 10v479h820V10H0z"/></clipPath></defs><g clip-path="url(#a)" transform="matrix(.13 0 0 -.13 0 61.25)"><path d="M511.371 142.609l-18.519-26.398H332.191l26.559 26.398h152.621" fill="#036998"/><path d="M511.371 142.609l-18.519-26.398H332.191l26.559 26.398h152.621z" fill="none" stroke="#fff" stroke-width="4"/><path d="M332.191 87.5h153.398v28.71H332.191V87.5z" fill="#036998"/><path d="M332.191 87.5h153.398v28.71H332.191V87.5z" fill="none" stroke="#fff" stroke-width="4"/><path d="M481.02 50.352v9.18L501.051 87.3V70.35l-20.031-20" fill="#036998"/><path d="M481.02 50.352v9.18L501.051 87.3V70.35l-20.031-20z" fill="none" stroke="#fff" stroke-width="4"/><path d="M304.73 50.352h176.289v9.18H304.73v-9.18z" fill="#036998"/><path d="M304.73 50.352h176.289v9.18H304.73v-9.18z" fill="none" stroke="#fff" stroke-width="4"/><path d="M332.191 122.539h152.34v115.27h-152.34v-115.27z" fill="#036998"/><path d="M332.191 122.539h152.34v115.27h-152.34v-115.27z" fill="none" stroke="#fff" stroke-width="4"/><path d="M484.531 122.531l26.09 26.098v115.23l-26.09-26.05V122.531" fill="#036998"/><path d="M484.531 122.531l26.09 26.098v115.23l-26.09-26.05V122.531z" fill="none" stroke="#fff" stroke-width="4"/><path d="M481.02 59.531H304.73l20.391 27.77h175.93L481.02 59.53" fill="#036998"/><path d="M481.02 59.531H304.73l20.391 27.77h175.93L481.02 59.53z" fill="none" stroke="#fff" stroke-width="4"/><path d="M485.43 87.418v28.793l25.941 25.738V113.32L485.43 87.418" fill="#036998"/><path d="M485.43 87.418v28.793l25.941 25.738V113.32L485.43 87.418z" fill="none" stroke="#fff" stroke-width="4"/><path d="M357.031 224.531H459.18c6.679 0 12.07-5.39 12.07-12.031v-64.57c0-6.649-5.391-12.039-12.07-12.039H357.031c-6.64 0-12.031 5.39-12.031 12.039v64.57c0 6.641 5.391 12.031 12.031 12.031" fill="#036998"/><path d="M357.031 224.531H459.18c6.679 0 12.07-5.39 12.07-12.031v-64.57c0-6.649-5.391-12.039-12.07-12.039H357.031c-6.64 0-12.031 5.39-12.031 12.039v64.57c0 6.641 5.391 12.031 12.031 12.031z" fill="none" stroke="#fff" stroke-width="4"/><path d="M510.621 263.859H361.949l-29.758-26.05h152.34l26.09 26.05" fill="#036998"/><path d="M510.621 263.859H361.949l-29.758-26.05h152.34l26.09 26.05z" fill="none" stroke="#fff" stroke-width="4"/><path d="M395.309 203.781c-18.668 3.719-28.547-5.851-26.989-14.101l.121-.469c-14.531-2.461-10.711-19.641-3.75-19.641l.7.032c-1.641-11.872 15.859-18.864 24.73-12.184l.617.66c2.782-11.289 40.391-12.148 47.973-3.707l.699-.191c16.488-1.328 23.988 10.031 20.36 18.199l.89.269c5.629 1.493 6.289 14.454-3.359 16.372l.199.511c4.18 8.43-5.699 16.399-19.41 14.879l-.942.508c-9.808 8.863-38.007 7.422-41.289-1.367l-.55.23" fill="#fff"/><path d="M741.371 272.609l-18.519-26.398H562.191l26.559 26.398h152.621" fill="#036998"/><path d="M741.371 272.609l-18.519-26.398H562.191l26.559 26.398h152.621z" fill="none" stroke="#fff" stroke-width="4"/><path d="M562.191 217.5h153.398v28.71H562.191V217.5z" fill="#036998"/><path d="M562.191 217.5h153.398v28.71H562.191V217.5z" fill="none" stroke="#fff" stroke-width="4"/><path d="M711.02 180.352v9.179l20.031 27.77v-16.949l-20.031-20" fill="#036998"/><path d="M711.02 180.352v9.179l20.031 27.77v-16.949l-20.031-20z" fill="none" stroke="#fff" stroke-width="4"/><path d="M534.73 180.352h176.289v9.18H534.73v-9.18z" fill="#036998"/><path d="M534.73 180.352h176.289v9.18H534.73v-9.18z" fill="none" stroke="#fff" stroke-width="4"/><path d="M562.191 252.539h152.34v115.27h-152.34v-115.27z" fill="#036998"/><path d="M562.191 252.539h152.34v115.27h-152.34v-115.27z" fill="none" stroke="#fff" stroke-width="4"/><path d="M714.531 252.531l26.09 26.098v115.23l-26.09-26.05V252.531" fill="#036998"/><path d="M714.531 252.531l26.09 26.098v115.23l-26.09-26.05V252.531z" fill="none" stroke="#fff" stroke-width="4"/><path d="M711.02 189.531H534.73l20.391 27.77h175.93l-20.031-27.77" fill="#036998"/><path d="M711.02 189.531H534.73l20.391 27.77h175.93l-20.031-27.77z" fill="none" stroke="#fff" stroke-width="4"/><path d="M715.43 217.418v28.793l25.941 25.738V243.32l-25.941-25.902" fill="#036998"/><path d="M715.43 217.418v28.793l25.941 25.738V243.32l-25.941-25.902z" fill="none" stroke="#fff" stroke-width="4"/><path d="M587.031 354.531H689.18c6.679 0 12.07-5.39 12.07-12.031v-64.57c0-6.649-5.391-12.039-12.07-12.039H587.031c-6.64 0-12.031 5.39-12.031 12.039v64.57c0 6.641 5.391 12.031 12.031 12.031" fill="#036998"/><path d="M587.031 354.531H689.18c6.679 0 12.07-5.39 12.07-12.031v-64.57c0-6.649-5.391-12.039-12.07-12.039H587.031c-6.64 0-12.031 5.39-12.031 12.039v64.57c0 6.641 5.391 12.031 12.031 12.031z" fill="none" stroke="#fff" stroke-width="4"/><path d="M740.621 393.859H591.949l-29.758-26.05h152.34l26.09 26.05" fill="#036998"/><path d="M740.621 393.859H591.949l-29.758-26.05h152.34l26.09 26.05z" fill="none" stroke="#fff" stroke-width="4"/><path d="M625.309 333.781c-18.668 3.719-28.547-5.851-26.989-14.101l.121-.469c-14.531-2.461-10.711-19.641-3.75-19.641l.7.032c-1.641-11.872 15.859-18.864 24.73-12.184l.617.66c2.782-11.289 40.391-12.148 47.973-3.707l.699-.191c16.488-1.328 23.988 10.031 20.36 18.199l.89.269c5.629 1.493 6.289 14.454-3.359 16.372l.199.511c4.18 8.43-5.699 16.399-19.41 14.879l-.942.508c-9.808 8.863-38.007 7.422-41.289-1.367l-.55.23" fill="#fff"/><path d="M296.371 282.609l-18.519-26.398H117.191l26.559 26.398h152.621" fill="#036998"/><path d="M296.371 282.609l-18.519-26.398H117.191l26.559 26.398h152.621z" fill="none" stroke="#fff" stroke-width="4"/><path d="M117.191 227.5h153.398v28.71H117.191V227.5z" fill="#036998"/><path d="M117.191 227.5h153.398v28.71H117.191V227.5z" fill="none" stroke="#fff" stroke-width="4"/><path d="M266.02 190.352v9.179l20.031 27.77v-16.949l-20.031-20" fill="#036998"/><path d="M266.02 190.352v9.179l20.031 27.77v-16.949l-20.031-20z" fill="none" stroke="#fff" stroke-width="4"/><path d="M89.73 190.352h176.29v9.18H89.73v-9.18z" fill="#036998"/><path d="M89.73 190.352h176.29v9.18H89.73v-9.18z" fill="none" stroke="#fff" stroke-width="4"/><path d="M117.191 262.539h152.34v115.27h-152.34v-115.27z" fill="#036998"/><path d="M117.191 262.539h152.34v115.27h-152.34v-115.27z" fill="none" stroke="#fff" stroke-width="4"/><path d="M269.531 262.531l26.09 26.098v115.23l-26.09-26.05V262.531" fill="#036998"/><path d="M269.531 262.531l26.09 26.098v115.23l-26.09-26.05V262.531z" fill="none" stroke="#fff" stroke-width="4"/><path d="M266.02 199.531H89.73l20.391 27.77h175.93l-20.031-27.77" fill="#036998"/><path d="M266.02 199.531H89.73l20.391 27.77h175.93l-20.031-27.77z" fill="none" stroke="#fff" stroke-width="4"/><path d="M270.43 227.418v28.793l25.941 25.738V253.32l-25.941-25.902" fill="#036998"/><path d="M270.43 227.418v28.793l25.941 25.738V253.32l-25.941-25.902z" fill="none" stroke="#fff" stroke-width="4"/><path d="M142.031 364.531H244.18c6.679 0 12.07-5.39 12.07-12.031v-64.57c0-6.649-5.391-12.039-12.07-12.039H142.031c-6.64 0-12.031 5.39-12.031 12.039v64.57c0 6.641 5.391 12.031 12.031 12.031" fill="#036998"/><path d="M142.031 364.531H244.18c6.679 0 12.07-5.39 12.07-12.031v-64.57c0-6.649-5.391-12.039-12.07-12.039H142.031c-6.64 0-12.031 5.39-12.031 12.039v64.57c0 6.641 5.391 12.031 12.031 12.031z" fill="none" stroke="#fff" stroke-width="4"/><path d="M295.621 403.859H146.949l-29.758-26.05h152.34l26.09 26.05" fill="#036998"/><path d="M295.621 403.859H146.949l-29.758-26.05h152.34l26.09 26.05z" fill="none" stroke="#fff" stroke-width="4"/><path d="M175.309 343.781c-18.668 3.719-28.547-5.851-26.989-14.101l.121-.469c-14.531-2.461-10.711-19.641-3.75-19.641l.7.032c-1.641-11.872 15.859-18.864 24.73-12.184l.617.66c2.782-11.289 40.391-12.148 47.973-3.707l.699-.191c16.488-1.328 23.988 10.031 20.36 18.199l.89.269c5.629 1.493 6.289 14.454-3.359 16.372l.199.511c4.18 8.43-5.699 16.399-19.41 14.879l-.942.508c-9.808 8.863-38.007 7.422-41.289-1.367l-.55.23" fill="#fff"/><path d="M285.781 431.988c-144.019 28.75-220.043-45-208.012-108.75l.981-3.476C-33.48 300.66-4.059 168.238 49.77 168.238l5.308.153C41.48 106.211 172.66 42.851 245.781 74.488l4.688 5.153c26.051-55.973 118.672-65.313 210.312-67.653C540.16 9.961 586.48 16.25 620.512 51.051l5.269-1.563C752.809 39.29 810.699 127.07 782.93 190.07l6.84 1.918c43.32 11.442 48.32 111.442-26.02 126.25l1.449 3.864c32.262 65.078-43.828 126.41-149.418 114.886l-7.34 3.832c-75.589 68.43-293.132 57.258-318.32-10.39l-4.34 1.558zM343.121 129.602l-95 63.359M496.449 144.602l60 40M284.801 339.602h283.32" fill="none" stroke="#036998" stroke-width="4"/></g></svg>