<svg xmlns="http://www.w3.org/2000/svg" viewBox="0 0 47.5 48.75" height="48.75" width="47.5"><path d="M37.754 22.619V2.169" fill="none" stroke="#1286be" stroke-width=".5"/><path d="M37.754 22.286V8.258" fill="none" stroke="#1286be" stroke-width="2.5"/><path d="M37.095 4.132h1.25v-2.5h-1.25v2.5z"/><path d="M37.095 4.132h1.25v-2.5h-1.25v2.5z" fill="none" stroke="#1286be" stroke-width="1.25"/><path d="M7.436 22.619V2.169" fill="none" stroke="#1286be" stroke-width=".5"/><path d="M7.436 22.286V8.258" fill="none" stroke="#1286be" stroke-width="2.5"/><path d="M6.783 4.132h1.25v-2.5h-1.25v2.5z"/><path d="M6.783 4.132h1.25v-2.5h-1.25v2.5z" fill="none" stroke="#1286be" stroke-width="1.25"/><path d="M46.23 25.216c0 4.936-10.293 8.94-22.987 8.94-12.7 0-22.994-4.004-22.994-8.94v13.097c0 4.936 10.293 8.94 22.994 8.94 12.695 0 22.987-4.004 22.987-8.94V25.215" fill="#1286be"/><path d="M46.23 25.216c0 4.936-10.293 8.941-22.987 8.941-12.7 0-22.994-4.005-22.994-8.941v13.097c0 4.936 10.293 8.94 22.994 8.94 12.695 0 22.987-4.004 22.987-8.94V25.215z" fill="none" stroke="#fff" stroke-width=".5"/><path d="M23.243 34.156c12.695 0 22.987-4.004 22.987-8.94 0-4.941-10.292-8.94-22.987-8.94-12.7 0-22.994 3.999-22.994 8.94 0 4.936 10.293 8.94 22.994 8.94" fill="#1286be"/><path d="M23.243 34.157c12.695 0 22.987-4.005 22.987-8.941 0-4.941-10.292-8.94-22.987-8.94-12.7 0-22.994 3.999-22.994 8.94 0 4.936 10.293 8.941 22.994 8.941z" fill="none" stroke="#fff" stroke-width=".5"/><path d="M17.989 21.72l1.899 2.846-7.178 1.662 1.567-1.309-11.093-1.895 2.782-2.085 10.709 1.811 1.314-1.03M28.091 28.625l-1.299-2.935 6.474-1.294-1.117 1.005 10.786 1.842-2.584 2.07L29.624 27.3l-1.533 1.324M24.551 20.163l7.25-1.983.09 3.105-1.817-.346-3.54 2.94-3.375-.494 3.652-2.871-2.26-.351M21.44 31.3l-6.904 1.294-.259-3.193 1.988.43 3.799-3.242 3.364.566-4.058 3.54 2.07.605" fill="#fff"/></svg>