<svg xmlns="http://www.w3.org/2000/svg" viewBox="0 0 45 37.5" height="37.5" width="45"><path d="M40.781 31.89c.508-.611-2.27-1.441.86-1.954 1.997-.331 8.046-3.886-6.144-4.072" fill="none" stroke="#000" stroke-width=".5" stroke-linecap="round" stroke-linejoin="round"/><path d="M8.32 30.849h22.94v-3.467H8.32v3.467z" fill="#036998"/><path d="M8.32 30.849h22.94v-3.467H8.32v3.467z" fill="none" stroke="#fff" stroke-width=".5"/><path d="M31.235 30.86v-3.478l4.629-4.71v3.563l-4.63 4.625" fill="#036998"/><path d="M31.235 30.86v-3.478l4.629-4.71v3.563l-4.63 4.625z" fill="none" stroke="#fff" stroke-width=".5"/><path d="M8.32 31.474h22.94v-4.092H8.32v4.092z" fill="#036998"/><path d="M8.32 31.474h22.94v-4.092H8.32v4.092z" fill="none" stroke="#fff" stroke-width=".5"/><path d="M31.235 31.485v-4.103l4.629-4.71v4.188l-4.63 4.625" fill="#036998"/><path d="M31.235 31.485v-4.103l4.629-4.71v4.188l-4.63 4.625z" fill="none" stroke="#fff" stroke-width=".5"/><path d="M37.471 22.046l-3.242 4.711H5.678l4.595-4.71H37.47" fill="#036998"/><path d="M37.471 22.046l-3.242 4.711H5.678l4.595-4.71H37.47z" fill="none" stroke="#fff" stroke-width=".5"/><path d="M5.61 28.349h27.315v-1.592H5.61v1.592z" fill="#036998"/><path d="M5.61 28.349h27.315v-1.592H5.61v1.592z" fill="none" stroke="#fff" stroke-width=".5"/><path d="M32.9 28.36v-1.603l4.629-4.71v1.688l-4.63 4.625" fill="#036998"/><path d="M32.9 28.36v-1.603l4.629-4.71v1.688l-4.63 4.625z" fill="none" stroke="#fff" stroke-width=".5"/><path d="M37.471 22.046l-3.242 4.711H5.678l4.595-4.71H37.47" fill="#036998"/><path d="M37.471 22.046l-3.242 4.711H5.678l4.595-4.71H37.47z" fill="none" stroke="#fff" stroke-width=".5"/><path d="M5.61 28.349h27.315v-1.592H5.61v1.592z" fill="#036998"/><path d="M5.61 28.349h27.315v-1.592H5.61v1.592z" fill="none" stroke="#fff" stroke-width=".5"/><path d="M32.9 28.36v-1.603l4.629-4.71v1.688l-4.63 4.625" fill="#036998"/><path d="M32.9 28.36v-1.603l4.629-4.71v1.688l-4.63 4.625z" fill="none" stroke="#fff" stroke-width=".5"/><path d="M37.618.386h-24.67L5.733 2.085h28.574L37.618.386" fill="#036998"/><path d="M37.618.386h-24.67L5.733 2.085h28.574L37.618.386z" fill="none" stroke="#fff" stroke-width=".5"/><path d="M33.071 24.761l-1.265-1.045H8.632l1.222 1.045H33.07" fill="#036998"/><path d="M33.071 24.761l-1.265-1.045H8.632l1.222 1.045H33.07z" fill="none" stroke="#fff" stroke-width=".5"/><path d="M33.212 24.575l-1.596-1.064 5.909-3.125-3.804 3.759-.509.43" fill="#036998"/><path d="M33.212 24.575l-1.596-1.064 5.909-3.125-3.804 3.759-.509.43z" fill="none" stroke="#fff" stroke-width=".5"/><path d="M34.306 2.085v21.308l3.312-3.08V.386l-3.312 1.699" fill="#036998"/><path d="M34.306 2.085v21.308l3.312-3.08V.386l-3.312 1.699z" fill="none" stroke="#fff" stroke-width=".5"/><path d="M5.732 23.627h28.574V2.085H5.732v21.542z" fill="#036998"/><path d="M5.732 23.627h28.574V2.085H5.732v21.542z" fill="none" stroke="#fff" stroke-width=".5"/><path d="M31.904 37.065v-1.66l3.574-4.941v3.027l-3.574 3.574" fill="#036998"/><path d="M31.904 37.065v-1.66l3.574-4.941v3.027l-3.574 3.574z" fill="none" stroke="#fff" stroke-width=".5"/><path d="M.386 37.066h31.519V35.43H.386v1.636z" fill="#036998"/><path d="M.386 37.066h31.519V35.43H.386v1.636z" fill="none" stroke="#fff" stroke-width=".5"/><path d="M40.864 35.756l2.095-4.178h-4.78l-2.09 4.178h4.775" fill="#036998"/><path d="M40.864 35.756l2.095-4.178h-4.78l-2.09 4.178h4.775z" fill="none" stroke="#fff" stroke-width=".5"/><path d="M36.089 37.099h4.775v-1.343h-4.775V37.1z" fill="#036998"/><path d="M36.089 37.099h4.775v-1.343h-4.775V37.1z" fill="none" stroke="#fff" stroke-width=".5"/><path d="M40.83 37.139l.01-1.383 2.09-4.178-.01 2.87-2.09 2.69" fill="#036998"/><path d="M40.83 37.139l.01-1.383 2.09-4.178-.01 2.87-2.09 2.69z" fill="none" stroke="#fff" stroke-width=".5"/><path d="M31.904 35.43H.489l3.573-4.966h31.416l-3.574 4.966" fill="#036998"/><path d="M31.904 35.43H.489l3.573-4.966h31.416l-3.574 4.966z" fill="none" stroke="#fff" stroke-width=".5"/><path d="M9.882 4.331h20.07a2.366 2.366 0 0 1 2.363 2.368v12.676a2.366 2.366 0 0 1-2.364 2.364H9.882a2.362 2.362 0 0 1-2.362-2.364V6.699A2.362 2.362 0 0 1 9.882 4.33" fill="#036998"/><path d="M9.882 4.331h20.07a2.366 2.366 0 0 1 2.363 2.368v12.676a2.366 2.366 0 0 1-2.364 2.364H9.882a2.362 2.362 0 0 1-2.362-2.364V6.699A2.362 2.362 0 0 1 9.882 4.33z" fill="none" stroke="#fff" stroke-width=".5"/></svg>