<svg xmlns="http://www.w3.org/2000/svg" width="65.973" height="34.347" viewBox="0 0 65.973 34.347"><path d="M448.594 4.746v207.09H5.464V4.746z" style="fill:#087bbb;fill-opacity:1;fill-rule:nonzero;stroke:none" transform="matrix(.13333 0 0 -.13333 0 34.347)"/><path d="M448.594 4.746v207.09H5.464V4.746Z" style="fill:none;stroke:#fff;stroke-width:4;stroke-linecap:butt;stroke-linejoin:miter;stroke-miterlimit:4;stroke-dasharray:none;stroke-opacity:1" transform="matrix(.13333 0 0 -.13333 0 34.347)"/><path d="M343.34 57.871c21.125 0 38.242 17.129 38.242 38.242 0 21.114-17.117 38.235-38.242 38.235-21.113 0-38.223-17.121-38.223-38.235 0-21.113 17.11-38.242 38.223-38.242zm0 76.477h66.418" style="fill:none;stroke:#fff;stroke-width:15;stroke-linecap:butt;stroke-linejoin:miter;stroke-miterlimit:4;stroke-dasharray:none;stroke-opacity:1" transform="matrix(.13333 0 0 -.13333 0 34.347)"/><path d="M410.43 159.254v-48.07l28.965 23.089z" style="fill:#fff;fill-opacity:1;fill-rule:nonzero;stroke:#fff;stroke-width:2;stroke-linecap:butt;stroke-linejoin:miter;stroke-miterlimit:4;stroke-dasharray:none;stroke-opacity:1" transform="matrix(.13333 0 0 -.13333 0 34.347)"/><path d="M305.156 95.84v66.41" style="fill:none;stroke:#fff;stroke-width:15;stroke-linecap:butt;stroke-linejoin:miter;stroke-miterlimit:4;stroke-dasharray:none;stroke-opacity:1" transform="matrix(.13333 0 0 -.13333 0 34.347)"/><path d="M280.742 162.543h48.067l-23.086 28.961z" style="fill:#fff;fill-opacity:1;fill-rule:nonzero;stroke:#fff;stroke-width:2;stroke-linecap:butt;stroke-linejoin:miter;stroke-miterlimit:4;stroke-dasharray:none;stroke-opacity:1" transform="matrix(.13333 0 0 -.13333 0 34.347)"/><path d="M344.297 57.93h-66.426" style="fill:none;stroke:#fff;stroke-width:15;stroke-linecap:butt;stroke-linejoin:miter;stroke-miterlimit:4;stroke-dasharray:none;stroke-opacity:1" transform="matrix(.13333 0 0 -.13333 0 34.347)"/><path d="M276.934 32.89v48.067l-28.965-23.086Z" style="fill:#fff;fill-opacity:1;fill-rule:nonzero;stroke:#fff;stroke-width:2;stroke-linecap:butt;stroke-linejoin:miter;stroke-miterlimit:4;stroke-dasharray:none;stroke-opacity:1" transform="matrix(.13333 0 0 -.13333 0 34.347)"/><path d="M108.551 57.871c-21.125 0-38.242 17.129-38.242 38.242 0 21.114 17.117 38.235 38.242 38.235 21.113 0 38.222-17.121 38.222-38.235 0-21.113-17.109-38.242-38.222-38.242zm0 76.477H42.133" style="fill:none;stroke:#fff;stroke-width:15;stroke-linecap:butt;stroke-linejoin:miter;stroke-miterlimit:4;stroke-dasharray:none;stroke-opacity:1" transform="matrix(.13333 0 0 -.13333 0 34.347)"/><path d="M41.46 159.254v-48.07l-28.964 23.089z" style="fill:#fff;fill-opacity:1;fill-rule:nonzero;stroke:#fff;stroke-width:2;stroke-linecap:butt;stroke-linejoin:miter;stroke-miterlimit:4;stroke-dasharray:none;stroke-opacity:1" transform="matrix(.13333 0 0 -.13333 0 34.347)"/><path d="M146.734 95.84v66.41" style="fill:none;stroke:#fff;stroke-width:15;stroke-linecap:butt;stroke-linejoin:miter;stroke-miterlimit:4;stroke-dasharray:none;stroke-opacity:1" transform="matrix(.13333 0 0 -.13333 0 34.347)"/><path d="M171.148 162.543h-48.066l23.086 28.961z" style="fill:#fff;fill-opacity:1;fill-rule:nonzero;stroke:#fff;stroke-width:2;stroke-linecap:butt;stroke-linejoin:miter;stroke-miterlimit:4;stroke-dasharray:none;stroke-opacity:1" transform="matrix(.13333 0 0 -.13333 0 34.347)"/><path d="M107.594 57.93h66.426" style="fill:none;stroke:#fff;stroke-width:15;stroke-linecap:butt;stroke-linejoin:miter;stroke-miterlimit:4;stroke-dasharray:none;stroke-opacity:1" transform="matrix(.13333 0 0 -.13333 0 34.347)"/><path d="M174.957 32.89v48.067l28.969-23.086z" style="fill:#fff;fill-opacity:1;fill-rule:nonzero;stroke:#fff;stroke-width:2;stroke-linecap:butt;stroke-linejoin:miter;stroke-miterlimit:4;stroke-dasharray:none;stroke-opacity:1" transform="matrix(.13333 0 0 -.13333 0 34.347)"/><path d="M447.844 212.086H5.711l54.504 43.496h432.629V49.863l-44.504-45v205.973z" style="fill:#087bbb;fill-opacity:1;fill-rule:nonzero;stroke:none" transform="matrix(.13333 0 0 -.13333 0 34.347)"/><path d="M447.844 212.086H5.711l54.504 43.496h432.629V49.863l-44.504-45v205.973Zm.379.359 45 43.75" style="fill:none;stroke:#fff;stroke-width:4;stroke-linecap:butt;stroke-linejoin:miter;stroke-miterlimit:4;stroke-dasharray:none;stroke-opacity:1" transform="matrix(.13333 0 0 -.13333 0 34.347)"/><path d="M225.852 163.863V43.867" style="fill:none;stroke:#fff;stroke-width:10;stroke-linecap:butt;stroke-linejoin:miter;stroke-miterlimit:4;stroke-dasharray:none;stroke-opacity:1" transform="matrix(.13333 0 0 -.13333 0 34.347)"/></svg>