<svg xmlns="http://www.w3.org/2000/svg" width="50.827" height="36.48" viewBox="0 0 50.827 36.48"><path d="M132.641 246.391c-66.348 13.25-101.348-20.735-95.82-50.114l.449-1.597c-51.715-8.805-38.165-69.825-13.36-69.825l2.442.079c-6.239-28.672 54.16-57.864 87.851-43.278l2.168 2.375c12.012-25.793 54.699-30.101 96.906-31.18 36.582-.937 57.93 1.965 73.621 17.993l2.415-.707c58.554-4.711 85.222 35.738 72.421 64.777l3.145.883c19.961 5.277 22.266 51.363-11.973 58.18l.645 1.777c14.871 29.984-20.188 58.25-68.84 52.945l-3.379 1.758c-34.832 31.535-135.086 26.395-146.687-4.797z" style="fill:#fff;fill-opacity:1;fill-rule:nonzero;stroke:none" transform="matrix(.13333 0 0 -.13333 0 36.48)"/><path d="M132.641 246.391c-66.348 13.25-101.348-20.735-95.82-50.114l.449-1.597c-51.715-8.805-38.165-69.825-13.36-69.825l2.442.079c-6.239-28.672 54.16-57.864 87.851-43.278l2.168 2.375c12.012-25.793 54.699-30.101 96.906-31.18 36.582-.937 57.93 1.965 73.621 17.993l2.415-.707c58.554-4.711 85.222 35.738 72.421 64.777l3.145.883c19.961 5.277 22.266 51.363-11.973 58.18l.645 1.777c14.871 29.984-20.188 58.25-68.84 52.945l-3.379 1.758c-34.832 31.535-135.086 26.395-146.687-4.797Z" style="fill:none;stroke:#026c9b;stroke-width:4;stroke-linecap:butt;stroke-linejoin:miter;stroke-miterlimit:4;stroke-dasharray:none;stroke-opacity:1" transform="matrix(.13333 0 0 -.13333 0 36.48)"/><path d="M160.953 198.168V29.02h161.055v170.855Zm0 0L322.008 29.02m-161.055 0 161.055 170.855" style="fill:none;stroke:#026c9b;stroke-width:20;stroke-linecap:butt;stroke-linejoin:miter;stroke-miterlimit:4;stroke-dasharray:none;stroke-opacity:1" transform="matrix(.13333 0 0 -.13333 0 36.48)"/><path d="M187.738 174v52.75h-51.777V174z" style="fill:#fff;fill-opacity:1;fill-rule:nonzero;stroke:none" transform="matrix(.13333 0 0 -.13333 0 36.48)"/><path d="M187.738 174v52.75h-51.777V174Z" style="fill:none;stroke:#026c9b;stroke-width:4;stroke-linecap:butt;stroke-linejoin:miter;stroke-miterlimit:4;stroke-dasharray:none;stroke-opacity:1" transform="matrix(.13333 0 0 -.13333 0 36.48)"/><path d="M347.738 174v52.75h-51.777V174z" style="fill:#fff;fill-opacity:1;fill-rule:nonzero;stroke:none" transform="matrix(.13333 0 0 -.13333 0 36.48)"/><path d="M347.738 174v52.75h-51.777V174Z" style="fill:none;stroke:#026c9b;stroke-width:4;stroke-linecap:butt;stroke-linejoin:miter;stroke-miterlimit:4;stroke-dasharray:none;stroke-opacity:1" transform="matrix(.13333 0 0 -.13333 0 36.48)"/><path d="M187.738 2.004v52.742h-51.777V2.004z" style="fill:#fff;fill-opacity:1;fill-rule:nonzero;stroke:none" transform="matrix(.13333 0 0 -.13333 0 36.48)"/><path d="M187.738 2.004v52.742h-51.777V2.004Z" style="fill:none;stroke:#026c9b;stroke-width:4;stroke-linecap:butt;stroke-linejoin:miter;stroke-miterlimit:4;stroke-dasharray:none;stroke-opacity:1" transform="matrix(.13333 0 0 -.13333 0 36.48)"/><path d="M347.738 2.004v52.742h-51.777V2.004z" style="fill:#fff;fill-opacity:1;fill-rule:nonzero;stroke:none" transform="matrix(.13333 0 0 -.13333 0 36.48)"/><path d="M347.738 2.004v52.742h-51.777V2.004Z" style="fill:none;stroke:#026c9b;stroke-width:4;stroke-linecap:butt;stroke-linejoin:miter;stroke-miterlimit:4;stroke-dasharray:none;stroke-opacity:1" transform="matrix(.13333 0 0 -.13333 0 36.48)"/><path d="M266.363 88.004v52.746h-51.777V88.004z" style="fill:#fff;fill-opacity:1;fill-rule:nonzero;stroke:none" transform="matrix(.13333 0 0 -.13333 0 36.48)"/><path d="M266.363 88.004v52.746h-51.777V88.004Z" style="fill:none;stroke:#026c9b;stroke-width:4;stroke-linecap:butt;stroke-linejoin:miter;stroke-miterlimit:4;stroke-dasharray:none;stroke-opacity:1" transform="matrix(.13333 0 0 -.13333 0 36.48)"/></svg>