<svg xmlns="http://www.w3.org/2000/svg" width="57.627" height="31.627" viewBox="0 0 57.627 31.627"><path d="M206.27 215.313h-96.387L3.809 61.641c92.93 0 92.93.097 93.554 0 116.289-17.051 143.926-9.22 252.617 0l78.653 126.172h-27.52l18.125 27.5h-190l-20.625-27.5H185.02z" style="fill:#087fbf;fill-opacity:1;fill-rule:nonzero;stroke:none" transform="matrix(.13333 0 0 -.13333 0 31.627)"/><path d="M206.27 215.313h-96.387L3.809 61.641c92.93 0 92.93.097 93.554 0 116.289-17.051 143.926-9.22 252.617 0l78.653 126.172h-27.52l18.125 27.5h-190l-20.625-27.5H185.02Z" style="fill:none;stroke:#fff;stroke-width:4;stroke-linecap:butt;stroke-linejoin:miter;stroke-miterlimit:4;stroke-dasharray:none;stroke-opacity:1" transform="matrix(.13333 0 0 -.13333 0 31.627)"/><path d="M205.43 69.727h-67.754l37.754 49.843h65.41z" style="fill:#087fbf;fill-opacity:1;fill-rule:nonzero;stroke:none" transform="matrix(.13333 0 0 -.13333 0 31.627)"/><path d="M205.43 69.727h-67.754l37.754 49.843h65.41z" style="fill:none;stroke:#fff;stroke-width:4;stroke-linecap:butt;stroke-linejoin:miter;stroke-miterlimit:4;stroke-dasharray:none;stroke-opacity:1" transform="matrix(.13333 0 0 -.13333 0 31.627)"/><path d="M428.633 187.813V95.156l-78.653-83.32V61.64z" style="fill:#087fbf;fill-opacity:1;fill-rule:nonzero;stroke:none" transform="matrix(.13333 0 0 -.13333 0 31.627)"/><path d="M428.633 187.813V95.156l-78.653-83.32V61.64z" style="fill:none;stroke:#fff;stroke-width:4;stroke-linecap:butt;stroke-linejoin:miter;stroke-miterlimit:4;stroke-dasharray:none;stroke-opacity:1" transform="matrix(.13333 0 0 -.13333 0 31.627)"/><path d="m349.98 61.64 78.653 126.173" style="fill:#231f20;fill-opacity:1;fill-rule:nonzero;stroke:#fff;stroke-width:4;stroke-linecap:butt;stroke-linejoin:miter;stroke-miterlimit:4;stroke-dasharray:none;stroke-opacity:1" transform="matrix(.13333 0 0 -.13333 0 31.627)"/><path d="M155.605 180.215c-12.89-14.824-28.789-32.11-38.984-48.887l.859-10.879-31.796-49.14-3.692 31.972c6.055 24.199 81.113 119.278 98.399 130.508l3.691-31.973L156.426 170z" style="fill:#087fbf;fill-opacity:1;fill-rule:nonzero;stroke:none" transform="matrix(.13333 0 0 -.13333 0 31.627)"/><path d="M155.605 180.215c-12.89-14.824-28.789-32.11-38.984-48.887l.859-10.879-31.796-49.14-3.692 31.972c6.055 24.199 81.113 119.278 98.399 130.508l3.691-31.973L156.426 170Z" style="fill:none;stroke:#fff;stroke-width:4;stroke-linecap:butt;stroke-linejoin:miter;stroke-miterlimit:4;stroke-dasharray:none;stroke-opacity:1" transform="matrix(.13333 0 0 -.13333 0 31.627)"/><path d="M22.813 103.281 19.12 71.309h66.563l-3.692 31.972z" style="fill:#087fbf;fill-opacity:1;fill-rule:nonzero;stroke:none" transform="matrix(.13333 0 0 -.13333 0 31.627)"/><path d="M22.813 103.281 19.12 71.309h66.563l-3.692 31.972z" style="fill:none;stroke:#fff;stroke-width:4;stroke-linecap:butt;stroke-linejoin:miter;stroke-miterlimit:4;stroke-dasharray:none;stroke-opacity:1" transform="matrix(.13333 0 0 -.13333 0 31.627)"/><path d="M180.391 233.789c-17.286-11.23-92.344-106.309-98.399-130.508h-59.18c6.055 24.199 81.114 119.278 98.399 130.508z" style="fill:#087fbf;fill-opacity:1;fill-rule:nonzero;stroke:none" transform="matrix(.13333 0 0 -.13333 0 31.627)"/><path d="M180.391 233.789c-17.286-11.23-92.344-106.309-98.399-130.508h-59.18c6.055 24.199 81.114 119.278 98.399 130.508z" style="fill:none;stroke:#fff;stroke-width:4;stroke-linecap:butt;stroke-linejoin:miter;stroke-miterlimit:4;stroke-dasharray:none;stroke-opacity:1" transform="matrix(.13333 0 0 -.13333 0 31.627)"/><path d="m200.488 152.031 38.985 51.524h152.226l-34.98-51.524z" style="fill:#fff;fill-opacity:1;fill-rule:nonzero;stroke:none" transform="matrix(.13333 0 0 -.13333 0 31.627)"/><path d="m200.488 152.031 38.985 51.524h152.226l-34.98-51.524z" style="fill:none;stroke:#fff;stroke-width:3.5;stroke-linecap:butt;stroke-linejoin:miter;stroke-miterlimit:4;stroke-dasharray:none;stroke-opacity:1" transform="matrix(.13333 0 0 -.13333 0 31.627)"/><path d="m217.07 161.582 26.211 34.648h102.364l-23.536-34.648z" style="fill:#087fbf;fill-opacity:1;fill-rule:nonzero;stroke:none" transform="matrix(.13333 0 0 -.13333 0 31.627)"/><path d="m217.07 161.582 26.211 34.648h102.364l-23.536-34.648z" style="fill:none;stroke:#fff;stroke-width:4;stroke-linecap:butt;stroke-linejoin:miter;stroke-miterlimit:4;stroke-dasharray:none;stroke-opacity:1" transform="matrix(.13333 0 0 -.13333 0 31.627)"/><path d="m217.676 119.57-35.41-49.843m13.945 49.843-35.41-49.843m6.094 37.871h65.058m-74.941-12.715h66.367m-76.856-13.477h67.286" style="fill:#087fbf;fill-opacity:1;fill-rule:nonzero;stroke:#fff;stroke-width:4;stroke-linecap:butt;stroke-linejoin:miter;stroke-miterlimit:4;stroke-dasharray:none;stroke-opacity:1" transform="matrix(.13333 0 0 -.13333 0 31.627)"/><path d="M349.98 11.836c-108.691-9.219-136.328-17.05-252.617 0H3.81V61.64c92.93 0 92.93.097 93.554 0 116.289-17.051 143.926-9.22 252.617 0z" style="fill:#087fbf;fill-opacity:1;fill-rule:nonzero;stroke:none" transform="matrix(.13333 0 0 -.13333 0 31.627)"/><path d="M349.98 11.836c-108.691-9.219-136.328-17.05-252.617 0H3.81V61.64c92.93 0 92.93.097 93.554 0 116.289-17.051 143.926-9.22 252.617 0z" style="fill:none;stroke:#fff;stroke-width:4;stroke-linecap:butt;stroke-linejoin:miter;stroke-miterlimit:4;stroke-dasharray:none;stroke-opacity:1" transform="matrix(.13333 0 0 -.13333 0 31.627)"/><path d="M206.27 215.313v-27.5h-21.25z" style="fill:#087fbf;fill-opacity:1;fill-rule:nonzero;stroke:none" transform="matrix(.13333 0 0 -.13333 0 31.627)"/><path d="M206.27 215.313v-27.5h-21.25z" style="fill:none;stroke:#fff;stroke-width:4;stroke-linecap:butt;stroke-linejoin:miter;stroke-miterlimit:4;stroke-dasharray:none;stroke-opacity:1" transform="matrix(.13333 0 0 -.13333 0 31.627)"/><path d="M419.238 215.313v-27.5h-18.125z" style="fill:#231f20;fill-opacity:1;fill-rule:nonzero;stroke:none" transform="matrix(.13333 0 0 -.13333 0 31.627)"/><path d="M419.238 215.313v-27.5h-18.125z" style="fill:none;stroke:#fff;stroke-width:4;stroke-linecap:butt;stroke-linejoin:miter;stroke-miterlimit:4;stroke-dasharray:none;stroke-opacity:1" transform="matrix(.13333 0 0 -.13333 0 31.627)"/><path d="M1.923-6.562H.563V.001h1.36Zm2.62 4.219h1.675c1.207 0 1.98-.856 1.98-2.18 0-1.312-.75-2.039-2.109-2.039H3.183V.001h1.36zm0-1.125v-1.969h1.253c.727 0 1.055.317 1.055.985s-.328.984-1.055.984zm0 0" aria-label="IP" style="fill:#fff;fill-opacity:1;fill-rule:nonzero;stroke:none" transform="translate(34.885 22.413)scale(1.33333)"/></svg>