<svg xmlns="http://www.w3.org/2000/svg" width="63.093" height="35.573" viewBox="0 0 63.093 35.573"><path d="M5.656 149.18 145.47 262.246h322.789L352.535 149.18z" style="fill:#087bbb;fill-opacity:1;fill-rule:nonzero;stroke:none" transform="matrix(.13333 0 0 -.13333 0 35.573)"/><path d="M5.656 149.18 145.47 262.246h322.789L352.535 149.18Z" style="fill:none;stroke:#fff;stroke-width:4;stroke-linecap:butt;stroke-linejoin:miter;stroke-miterlimit:4;stroke-dasharray:none;stroke-opacity:1" transform="matrix(.13333 0 0 -.13333 0 35.573)"/><path d="m352.535 4.89 115.723 117.911v139.23L352.535 149.18z" style="fill:#087bbb;fill-opacity:1;fill-rule:nonzero;stroke:none" transform="matrix(.13333 0 0 -.13333 0 35.573)"/><path d="m352.535 4.89 115.723 117.911v139.23L352.535 149.18Z" style="fill:none;stroke:#fff;stroke-width:4;stroke-linecap:butt;stroke-linejoin:miter;stroke-miterlimit:4;stroke-dasharray:none;stroke-opacity:1" transform="matrix(.13333 0 0 -.13333 0 35.573)"/><path d="M352.535 4.773V149.18H6.133V4.773z" style="fill:#087bbb;fill-opacity:1;fill-rule:nonzero;stroke:none" transform="matrix(.13333 0 0 -.13333 0 35.573)"/><path d="M352.535 4.773V149.18H6.133V4.773Z" style="fill:none;stroke:#fff;stroke-width:4;stroke-linecap:butt;stroke-linejoin:miter;stroke-miterlimit:4;stroke-dasharray:none;stroke-opacity:1" transform="matrix(.13333 0 0 -.13333 0 35.573)"/><path d="M217.605 169.188c20.833 16.074 47.45 23.898 47.45 23.898 31.367 11.406 43.535 24.805 43.535 24.805 29.805 33.339-26.895 34.101-26.895 34.101s-59.484.254-89.703-29.961c0 0-15.269-14.668-7.156-27.011 0 0 10.391-8.723-.527-25.032" style="fill:none;stroke:#fff;stroke-width:8;stroke-linecap:butt;stroke-linejoin:miter;stroke-miterlimit:1;stroke-dasharray:none;stroke-opacity:1" transform="matrix(.13333 0 0 -.13333 0 35.573)"/><path d="M218.313 168.613c-.872-.89-2.825-1.582-4.372-1.543l-30.211.723c-1.535.039-2.058.801-1.187 1.687.879.891 2.824 1.583 4.355 1.555l30.219-.722c1.535-.04 2.071-.801 1.196-1.7zm-3.887-3.945c-.875-.898-2.821-1.594-4.36-1.563l-30.211.723c-1.531.039-2.062.801-1.195 1.699.875.879 2.832 1.582 4.367 1.543l30.219-.722c1.52-.039 2.067-.793 1.18-1.68zm-3.863-3.965c-.875-.898-2.836-1.582-4.368-1.555l-30.218.723c-1.528.031-2.063.801-1.188 1.692.879.898 2.832 1.589 4.367 1.55l30.215-.73c1.531-.031 2.059-.781 1.192-1.68z" style="fill:none;stroke:#fff;stroke-width:2.5;stroke-linecap:butt;stroke-linejoin:miter;stroke-miterlimit:1;stroke-dasharray:none;stroke-opacity:1" transform="matrix(.13333 0 0 -.13333 0 35.573)"/><path d="m302.965 186.648 12.851-29.246-43.359 15.926" style="fill:#fff;fill-opacity:1;fill-rule:nonzero;stroke:none" transform="matrix(.13333 0 0 -.13333 0 35.573)"/><path d="m299.703 173.172-21.484 13.281" style="fill:none;stroke:#fff;stroke-width:4;stroke-linecap:round;stroke-linejoin:miter;stroke-miterlimit:1;stroke-dasharray:none;stroke-opacity:1" transform="matrix(.13333 0 0 -.13333 0 35.573)"/><path d="m192.777 245.645-44.32 9.082 14.363-22.844" style="fill:#fff;fill-opacity:1;fill-rule:nonzero;stroke:none" transform="matrix(.13333 0 0 -.13333 0 35.573)"/><path d="m190.199 234.734-20.574 8.809" style="fill:none;stroke:#fff;stroke-width:4;stroke-linecap:round;stroke-linejoin:miter;stroke-miterlimit:1;stroke-dasharray:none;stroke-opacity:1" transform="matrix(.13333 0 0 -.13333 0 35.573)"/><path d="m162.387 173.406-62.942-5.476 42.43 22.566" style="fill:#fff;fill-opacity:1;fill-rule:nonzero;stroke:none" transform="matrix(.13333 0 0 -.13333 0 35.573)"/><path d="m141.719 178.887 25.996 7.527" style="fill:none;stroke:#fff;stroke-width:4;stroke-linecap:round;stroke-linejoin:miter;stroke-miterlimit:1;stroke-dasharray:none;stroke-opacity:1" transform="matrix(.13333 0 0 -.13333 0 35.573)"/><path d="m338.766 245.703 51.179-4.894-47.371-15.379" style="fill:#fff;fill-opacity:1;fill-rule:nonzero;stroke:none" transform="matrix(.13333 0 0 -.13333 0 35.573)"/><path d="m355.836 236.531-27.305-5.136" style="fill:none;stroke:#fff;stroke-width:4;stroke-linecap:round;stroke-linejoin:miter;stroke-miterlimit:1;stroke-dasharray:none;stroke-opacity:1" transform="matrix(.13333 0 0 -.13333 0 35.573)"/><path d="m120.313 202.031 52.828 11.746-37.379 7.422" style="fill:#fff;fill-opacity:1;fill-rule:nonzero;stroke:none" transform="matrix(.13333 0 0 -.13333 0 35.573)"/><path d="m103.434 212.234 29.812-.156m209.348-10.672 29.824-.156" style="fill:none;stroke:#fff;stroke-width:4;stroke-linecap:round;stroke-linejoin:miter;stroke-miterlimit:1;stroke-dasharray:none;stroke-opacity:1" transform="matrix(.13333 0 0 -.13333 0 35.573)"/><path d="m356.031 213.066-46.66-9.171 45-14.168" style="fill:#fff;fill-opacity:1;fill-rule:nonzero;stroke:none" transform="matrix(.13333 0 0 -.13333 0 35.573)"/><path d="M181.379 157.234c7.5-5.625 18.125-.437 18.125-.437" style="fill:none;stroke:#fff;stroke-width:2.5;stroke-linecap:butt;stroke-linejoin:miter;stroke-miterlimit:1;stroke-dasharray:none;stroke-opacity:1" transform="matrix(.13333 0 0 -.13333 0 35.573)"/><path d="M6.117-5.743H4.383L3.363-1.22H3.34L2.309-5.743H.55v5.742h1.125v-4.805h.012L2.742-.001h1.172l1.078-4.805h.012v4.805h1.113zm.864 3.972c0 .715.352 1.922 2.45 1.922.504 0 2.273-.152 2.273-1.887 0-1.03-.726-1.347-1.512-1.535l-1.394-.351c-.246-.047-.61-.153-.61-.598 0-.516.54-.691.997-.691 1.054 0 1.148.609 1.183.867h1.149c-.012-.703-.48-1.852-2.239-1.852-1.863 0-2.214 1.125-2.214 1.77 0 1.254.902 1.465 1.828 1.687l.609.14c.61.141 1.043.27 1.043.716 0 .61-.633.738-1.195.738-1.055 0-1.207-.61-1.22-.926zm9.859-3.972h-4.23v5.742h4.359v-1.02H13.78v-1.488h2.801v-1.02h-2.8v-1.207h3.058zm0 0" aria-label="MSE" style="fill:#fff;fill-opacity:1;fill-rule:nonzero;stroke:none" transform="translate(13.36 29.498)scale(1.33333)"/></svg>