<svg xmlns="http://www.w3.org/2000/svg" width="37.427" height="38.12" viewBox="0 0 37.427 38.12"><path d="M5.45 4.688h226.796V235.43H5.45Z" style="fill:#02709f;fill-opacity:1;fill-rule:nonzero;stroke:none" transform="matrix(.13333 0 0 -.13333 0 38.12)"/><path d="M232.246 4.688V235.43H5.449V4.688Z" style="fill:none;stroke:#fff;stroke-width:3.99994;stroke-linecap:butt;stroke-linejoin:miter;stroke-miterlimit:4;stroke-dasharray:none;stroke-opacity:1" transform="matrix(.13333 0 0 -.13333 0 38.12)"/><path d="M194.539 153.516v-50.481l30.41 24.25zm-93.68 42.207h50.481l-24.25 30.41zm51.387-145.887H101.77l24.48-30.402zM52.852 97.078v50.481l-30.41-24.246z" style="fill:#000;fill-opacity:1;fill-rule:nonzero;stroke:none" transform="matrix(.13333 0 0 -.13333 0 38.12)"/><path d="M189.285 148.262V97.793l30.41 24.238z" style="fill:#fff;fill-opacity:1;fill-rule:nonzero;stroke:none" transform="matrix(.13333 0 0 -.13333 0 38.12)"/><path d="M189.285 148.262V97.793l30.41 24.238z" style="fill:none;stroke:#fff;stroke-width:1.99997;stroke-linecap:butt;stroke-linejoin:miter;stroke-miterlimit:4;stroke-dasharray:none;stroke-opacity:1" transform="matrix(.13333 0 0 -.13333 0 38.12)"/><path d="M95.613 190.469h50.473l-24.25 30.41z" style="fill:#fff;fill-opacity:1;fill-rule:nonzero;stroke:none" transform="matrix(.13333 0 0 -.13333 0 38.12)"/><path d="M95.613 190.469h50.473l-24.25 30.41z" style="fill:none;stroke:#fff;stroke-width:1.99997;stroke-linecap:butt;stroke-linejoin:miter;stroke-miterlimit:4;stroke-dasharray:none;stroke-opacity:1" transform="matrix(.13333 0 0 -.13333 0 38.12)"/><path d="M146.992 44.59H96.523l24.485-30.41z" style="fill:#fff;fill-opacity:1;fill-rule:nonzero;stroke:none" transform="matrix(.13333 0 0 -.13333 0 38.12)"/><path d="M146.992 44.59H96.523l24.485-30.41Z" style="fill:none;stroke:#fff;stroke-width:1.99997;stroke-linecap:butt;stroke-linejoin:miter;stroke-miterlimit:4;stroke-dasharray:none;stroke-opacity:1" transform="matrix(.13333 0 0 -.13333 0 38.12)"/><path d="M46.945 91.836v50.469l-30.414-24.239z" style="fill:#fff;fill-opacity:1;fill-rule:nonzero;stroke:none" transform="matrix(.13333 0 0 -.13333 0 38.12)"/><path d="M46.945 91.836v50.469l-30.414-24.239Z" style="fill:none;stroke:#fff;stroke-width:1.99997;stroke-linecap:butt;stroke-linejoin:miter;stroke-miterlimit:4;stroke-dasharray:none;stroke-opacity:1" transform="matrix(.13333 0 0 -.13333 0 38.12)"/><path d="M231.465 235.695H5.711l57.23 45.672h215.77v-.262h-.652l-46.067-45.285v-1.445z" style="fill:#02709f;fill-opacity:1;fill-rule:nonzero;stroke:none" transform="matrix(.13333 0 0 -.13333 0 38.12)"/><path d="M231.465 235.695H5.711l57.23 45.672h215.77v-.262h-.652l-46.067-45.285v-1.445z" style="fill:none;stroke:#fff;stroke-width:3.99994;stroke-linecap:butt;stroke-linejoin:miter;stroke-miterlimit:4;stroke-dasharray:none;stroke-opacity:1" transform="matrix(.13333 0 0 -.13333 0 38.12)"/><path d="M278.191 50.762v230.343l-45.945-45.929V4.824z" style="fill:#02709f;fill-opacity:1;fill-rule:nonzero;stroke:none" transform="matrix(.13333 0 0 -.13333 0 38.12)"/><path d="M278.191 50.762v230.343l-45.945-45.929V4.824Z" style="fill:none;stroke:#fff;stroke-width:3.99994;stroke-linecap:butt;stroke-linejoin:miter;stroke-miterlimit:4;stroke-dasharray:none;stroke-opacity:1" transform="matrix(.13333 0 0 -.13333 0 38.12)"/><path d="M157.383 151.875v-19.199h24.621v13.195c0 21.563-27.277 33.035-60.918 33.035h.965c-33.64 0-60.918-11.472-60.918-33.035v-13.195h24.62v19.199c32.509 42.539 71.63 0 71.63 0" style="fill:#000;fill-opacity:1;fill-rule:nonzero;stroke:none" transform="matrix(.13333 0 0 -.13333 0 38.12)"/><path d="M125.82 158.469h21.297v-23.996l23.723-19.805v-47.39H72.098v47.39l23.722 19.805v23.996z" style="fill:#000;fill-opacity:1;fill-rule:nonzero;stroke:none" transform="matrix(.13333 0 0 -.13333 0 38.12)"/><path d="M157.258 146.477v-19.2h24.617v13.192c0 21.562-27.273 33.039-60.918 33.039h.969c-33.645 0-60.918-11.477-60.918-33.039v-13.192h24.617v19.2c32.512 42.539 71.633 0 71.633 0" style="fill:#fff;fill-opacity:1;fill-rule:nonzero;stroke:none" transform="matrix(.13333 0 0 -.13333 0 38.12)"/><path d="M125.703 153.078h21.289v-24.004l23.723-19.804V61.875H71.973v47.395l23.722 19.804v24.004z" style="fill:#fff;fill-opacity:1;fill-rule:nonzero;stroke:none" transform="matrix(.13333 0 0 -.13333 0 38.12)"/></svg>