<svg xmlns="http://www.w3.org/2000/svg" viewBox="0 0 305 353.75" height="353.75" width="305"><g fill="#2a3282"><path d="M154.502.5h-137.3C7.798.5 0 8.2 0 17.702v334.8h94.4V318.2H25.699v-17.203h68.7v-17.196H25.7V266.6h68.7V206.5h77.3V17.702C171.699 8.2 163.9.5 154.502.5zM145.9 69.201h-120.2V52h120.2V69.2z"/><path d="M106.401 219.401V352.4H303.8V219.4H106.4zm187.999 122.7H114.199v-94.398h180.303V342.1h-.102z"/><path d="M131.299 325.002H191.4V264.9H131.3v60.102zM212.9 325.002h64.301V316.4H212.9v8.603zM212.9 307.8h64.301V299.2H212.9v8.599zM212.9 290.598h64.301v-8.6H212.9v8.6zM212.9 273.499h64.301v-8.6H212.9v8.6z"/></g></svg>