<svg xmlns="http://www.w3.org/2000/svg" viewBox="0 0 335 172.5" height="172.5" width="335"><g fill="#2a3282"><path d="M318.399 86.351h-302.1C7.7 86.351 0 91.551 0 98.348v60.904c0 6.898 6.9 11.997 16.299 11.997h302.1c8.604 0 16.304-5.202 16.304-11.997V98.347c0-6.797-6.803-11.997-16.304-11.997zm-266.9 60.098c-9.399 0-17.198-7.7-17.198-17.197 0-9.503 7.701-17.203 17.197-17.203 9.503 0 17.203 7.7 17.203 17.203 0 9.497-7.802 17.197-17.203 17.197zm77.202 0c-9.4 0-17.203-7.7-17.203-17.197 0-9.503 7.7-17.203 17.203-17.203 9.399 0 17.198 7.7 17.198 17.203 0 9.497-7.7 17.197-17.198 17.197zm77.3 0c-9.4 0-17.202-7.7-17.202-17.197 0-9.503 7.7-17.203 17.202-17.203 9.496 0 17.198 7.7 17.198 17.203 0 9.497-7.799 17.197-17.198 17.197zm77.198 0c-9.4 0-17.198-7.7-17.198-17.197 0-9.503 7.7-17.203 17.198-17.203 9.398 0 17.201 7.7 17.201 17.203 0 9.497-7.7 17.197-17.201 17.197zM272.9.55H61.801L0 60.647h334.702L272.9.55z"/></g></svg>