<svg xmlns="http://www.w3.org/2000/svg" viewBox="0 0 258.75 270" height="270" width="258.75"><g fill="#2a3282"><path d="M204.4 1.05H35.899C16.2 1.05 0 17.349 0 36.949V232.85c0 19.698 16.299 35.899 35.899 35.899h186.504c19.697 0 35.898-16.299 35.898-35.899V54.047L204.4 1.05zm31.699 231.801c0 7.702-6.001 13.696-13.696 13.696H35.899c-7.7 0-13.696-5.994-13.696-13.696V36.95c0-7.7 5.996-13.697 13.696-13.697H193.3V66.05H236.1v166.801z"/><path d="M77.797 93.452v17.998c0 10.299-4.295 15.401-11.996 15.401v14.496c8.599 0 11.996 5.103 11.996 14.503v19.703c0 10.297 2.603 17.098 6.803 21.396 5.103 6.001 13.701 8.604 26.499 8.604V190.15c-4.298 0-7.7-.903-10.298-3.403-1.7-2.598-3.399-5.995-3.399-11.098V159.35c.9-12.804-3.403-21.401-11.103-24.8 8.603-3.403 12.002-11.098 12.002-23.998v-17.1c0-9.405 4.297-13.702 12.798-13.702v-15.4c-12.798 0-21.396 2.598-26.499 7.7-4.2 3.399-6.803 11.099-6.803 21.402zM171.9 111.347V92.55c0-10.298-2.599-17.099-6.803-22.198C160 66.05 151.401 63.55 138.6 63.55v15.4c8.604 0 12.802 4.303 12.802 13.701v16.299c0 13.701 4.298 22.198 11.998 25.699-8.599 3.404-11.998 11.104-11.998 23.999v17.105c0 5.097-.904 8.598-2.602 11.098-2.598 2.598-5.098 3.397-10.298 3.397v15.402c12.798 0 21.402-2.597 26.499-7.7 4.301-4.302 6.801-11.997 6.801-22.197v-18.804c0-10.3 4.298-15.402 11.998-15.402v-14.496c-7.598-.302-11.899-5.401-11.899-15.704z"/></g></svg>