<svg xmlns="http://www.w3.org/2000/svg" viewBox="0 0 255 406.25" height="406.25" width="255"><path d="M0 405h130V.4H0V405zm107.797-233.599H72.7v-35h35.097v35zm-87.3-52.1V84.2H55.6V119.3H20.498zm53.005 0V84.2h35.097V119.3H73.5zm-.802-87.3h35.097V67.1H72.7V32zm-52.203 0H55.6V67.1H20.497V32zm0 104.4H55.6V171.5H20.497V136.4zm87.3 192.398H72.7V293.7h35.097V328.8zm-87.3-52.1V241.6H55.6V276.7H20.497zm53.004 0V241.6H108.6V276.7H73.5zm-.8-87.3h35.096V224.5H72.7V189.4zm-52.203 0H55.6V224.5H20.497V189.4zm0 104.4H55.6V328.9H20.497V293.8zm218.1-161.7V90.2H219.8V50h-13.701V12.402H195V50h-13.701v40.2H162.5v41.899h-15.4V405h107.803V132.099h-16.304zm-39.297 164.2H164.2V261.2H199.3V296.3zm0-106.9H164.2V154.3H199.3V189.4zm40.996 53.004H205.2v-35h35.097v35z" fill="#2a3282"/></svg>