<svg xmlns="http://www.w3.org/2000/svg" viewBox="0 0 42.5 43.75" height="43.75" width="42.5"><g fill="#2a3282"><path d="M21.002 7.301c-7.803 0-14.2 6.398-14.2 14.2 0 7.798 6.397 14.2 14.2 14.2 7.797 0 14.198-6.402 14.198-14.2 0-7.802-6.299-14.2-14.199-14.2zm4.598 13.8c0 2.5-2.001 4.6-4.599 4.6-2.602 0-4.6-2.002-4.6-4.6 0-2.5 1.998-4.6 4.6-4.6 1.401 0 2.598.6 3.399 1.597l8.7-3.4.601 1.402-8.301 4.6c.2.2.2.298.2.4z"/><path d="M21.002.5C9.4.5 0 9.9 0 21.502c0 11.596 9.4 21 21.002 21 11.596 0 21-9.404 21-21C42.002 9.9 32.599.5 21.002.5zm0 38.399c-9.6 0-17.3-7.799-17.3-17.3 0-9.6 7.797-17.3 17.3-17.3 9.598 0 17.3 7.802 17.3 17.3.097 9.501-7.702 17.3-17.3 17.3z"/></g></svg>