<svg xmlns="http://www.w3.org/2000/svg" viewBox="0 0 36.25 43.75" height="43.75" width="36.25"><g fill="#2a3282"><path d="M0 39.5h12.002v-1.998H0V39.5zM23.998 39.5h12.003v-1.998H24V39.5zM17.003 33.498H19V30.9h-1.997v2.598z" fill-rule="evenodd"/><path d="M21.099 34.499h-6.3c-1 0-1.9 1.001-1.9 2.002V40.5c0 1.001.802 2.002 1.9 2.002h6.3c1.001 0 1.898-1 1.898-2.002v-3.999c0-1.001-.897-2.002-1.898-2.002zM21 40.5H15v-3.999h6.002V40.5zM22.5.5c-1.498 0-2.402.497-3.199 1.299L16.3 5.203c-.2.2-.6.395-.802.395H2.9a2.904 2.904 0 0 0-2.9 2.9V28.6a2.9 2.9 0 0 0 2.9 2.901h30.299a2.9 2.9 0 0 0 2.9-2.9V6.9c0-1.104-.601-2.403-1.3-3.202l-2.002-1.9C32.003.997 31.002.5 29.6.5h-7.1z"/></g></svg>