<svg xmlns="http://www.w3.org/2000/svg" viewBox="0 0 75 82.637497" height="82.637" width="75"><path d="M56.486 37.442l16.22-.084h2.291L75 63.88l-2.292 1.146-16.22-3.567-.002-24.017" fill="#99441f"/><path d="M37.491 61.815l26.975 7.333 4.347-2.174-.004-41.463-4.347-.869-26.974 2.921.003 34.252" fill="#99441f"/><path d="M14.082 61.04L53.34 74.712l6.298-3.15-.006-68.407L53.333.006 14.078 13.791l.004 47.249" fill="#99441f"/><path d="M.002 63.896l37.491 18.742 8.51-4.256-.004-41.021L0 37.364l.002 26.532" fill="#99441f"/><path d="M46.003 78.382l-8.51 4.255-.004-45.276H46l.004 41.02M59.632 3.155L53.333.006l.007 74.706 6.298-3.15-.006-68.407M68.813 66.974l-4.347 2.174-.004-44.506 4.347.869.004 41.463M75 63.88l-2.292 1.146-.002-27.668h2.291L75 63.88" fill="#f47227"/></svg>