<svg xmlns="http://www.w3.org/2000/svg" viewBox="0 0 74.512497 89.9375" height="89.938" width="74.512"><path d="M0 71.37l4.763 2.452 1.931-.454.362-34.005-2.293-.107L0 39.732V71.37" fill="#99441f"/><path d="M13.347 71.803l-8.584 2.019V39.256l8.584.403v32.144" fill="#f47227"/><path d="M9.256 75.998l8.183 4.154 5.292-1.693v-53.49l-5.292-1.014-8.183 2.455v49.588" fill="#99441f"/><path d="M31.444 75.671l-14.005 4.48V23.956l14.005 2.683v49.033" fill="#f47227"/><path d="M62.395 25.632V64.46l9.39 1.475v-41.98l-9.39 1.677" fill="#99441f"/><path d="M40.65 23.389l1.917-11.829 27.19 9.983v6.28l-7.225 1.01L40.65 23.39" fill="#653319"/><path d="M38.12 67.324l7.884 9.392 23.752-8.066v-6.398l-7.286-1.028-24.35 6.1" fill="#fab581"/><path d="M23.986 83.363l13.27 6.574 7.85-3.925 2.586-80.796L37.255-.002l-13.27 6.637v76.728" fill="#99441f"/><path d="M69.756 62.252L48.428 68.65V21.476l21.328 6.347v34.428zM37.256-.004v89.94L74.508 71.31V18.626L37.255-.002" fill="#f47227"/></svg>