<svg xmlns="http://www.w3.org/2000/svg" viewBox="0 0 74.662498 90" height="90" width="74.662"><path d="M53.1 55.003l9.166.871 12.392-2.068V40.554l-12.392-1.03-9.166.432v15.047" fill="#99441f"/><path d="M74.658 31.902l-37.329 3.82L0 31.901 37.33 0l37.328 31.902" fill="#653219"/><path d="M55.994 58.17l12.344 16.225 6.32-16.297-11.728-1.211-6.936 1.284" fill="#fab582"/><path d="M55.994 58.17l12.545 1.527v14.698L55.994 71.35V58.17" fill="#99441f"/><path d="M42.556 60.512l13.542 20.156 8.703-20.114-13.038-1.731-9.207 1.689" fill="#fab582"/><path d="M42.556 60.512l13.438 2.194v17.962l-13.438-4.414V60.512" fill="#99441f"/><path d="M74.658 31.902L37.33 22.6V0l37.33 18.665v13.237" fill="#f47327"/><path d="M18.665 58.17L6.319 74.396 0 58.098l11.728-1.211 6.937 1.284" fill="#fab582"/><path d="M18.665 58.17L6.119 59.698v14.698l12.546-3.045V58.17" fill="#f47327"/><path d="M32.102 60.512L18.56 80.668 9.857 60.554l13.038-1.731 9.207 1.689" fill="#fab582"/><path d="M32.102 60.512l-13.438 2.194v17.962l13.438-4.414V60.512" fill="#f47327"/><path d="M50.908 64.007l-13.579-2.496-13.579 2.496L37.33 90l13.578-25.993" fill="#fab582"/><path d="M50.908 64.007L37.329 67.39V90l13.579-6.79V64.007" fill="#f47327"/><path d="M6.119 59.623L0 58.098v13.238l6.119 3.059V59.623M9.857 60.554l8.808 2.195v17.919l-8.808-4.404v-15.71" fill="#99441f"/><path d="M68.54 59.623l6.118-1.525v13.238l-6.119 3.059V59.622M64.801 60.554l-8.807 2.195v17.919l8.807-4.404v-15.71" fill="#f47327"/><path d="M0 31.902L37.33 22.6V0L0 18.665v13.237M23.75 64.007l13.58 3.383V90l-13.58-6.79V64.007" fill="#99441f"/><path d="M74.658 40.554l-12.392-1.03v16.363l12.392-2.081V40.554" fill="#f47327"/><path d="M0 40.554l12.392-1.03 9.166.432v15.047l-9.166.884L0 53.806V40.554" fill="#99441f"/><path d="M21.558 55.003l-9.166.871v-16.35l9.166.432v15.047" fill="#f47327"/><path d="M18.665 39.022l18.664-1.546 18.665 1.546V56.94l-18.665 3.135-18.664-3.135V39.022" fill="#99441f"/><path d="M55.994 39.022l-18.665-1.546v22.599l18.665-3.135V39.022" fill="#f47327"/></svg>