<svg xmlns="http://www.w3.org/2000/svg" viewBox="0 0 68.150002 69.887497" height="69.887" width="68.15"><path d="M59.533 41.656h-.136l-2.53-5.198 2.538-5.227h.128v10.425zm-9.921 2.587l-25.295-6.297 25.677-8.466 3.398 6.98-3.78 7.783zm6.346-2.512a2.505 2.505 0 0 0-1.92 2.425v1.19l-1.327-.331 2.42-4.983.828 1.7zM44.013 55.774h-6.247c-.012 0-.023.003-.035.004L23.555 40.976l24.661 6.14-4.204 8.658zm10.027-34.92v4l-2.432.802-4.148-8.521c.358-.087.683-.253.963-.475l5.617 4.194zM38.41 17.21h5.608l4.594 9.433-25.165 8.297L38.41 17.21zm9.988 39.096a2.476 2.476 0 0 0-.948-.459l3.865-7.959 2.723.678v3.498l-5.64 4.242zm6.728-23.42l-2.139-4.393 1.05-.347v.585c0 1.178.828 2.166 1.928 2.427l-.838 1.728zm10.525-1.655c1.375 0 2.5-1.125 2.5-2.5v-9.113c0-1.375-1.125-2.5-2.5-2.5h-9.113c-.585 0-1.117.21-1.543.55l-5.617-4.195V5.597c0-1.375-1.125-2.5-2.5-2.5h-9.114a2.507 2.507 0 0 0-2.5 2.5v9.113c0 .388.097.75.256 1.078L21.645 32.23v-1.535c0 1.379-4.845 2.498-10.822 2.498C4.846 33.193 0 32.074 0 30.695v17.07c0 1.38 4.846 2.497 10.823 2.497s10.822-1.118 10.822-2.497V43.5l13.67 14.275c-.032.162-.05.329-.05.5v9.114c0 1.374 1.125 2.5 2.5 2.5h9.114c1.375 0 2.5-1.126 2.5-2.5v-7.91l5.64-4.24c.422.328.946.531 1.52.531h9.113c1.375 0 2.5-1.124 2.5-2.5v-9.113c0-1.375-1.125-2.5-2.5-2.5h-2.994V31.231h2.994" fill="#99441f"/><path d="M10.823 27.27c5.977 0 10.822-1.118 10.822-2.498v-3.1s-7.902.603-10.822.603C8.56 22.275 0 21.672 0 21.672v3.1c0 1.38 4.846 2.498 10.823 2.498" fill="#99441f"/><path d="M59.533 38.556h-.136l-2.53-5.198 2.538-5.227h.128v10.425zm-9.921 2.587l-25.295-6.298 25.677-8.465 3.398 6.98-3.78 7.783zm6.346-2.511a2.505 2.505 0 0 0-1.92 2.425v1.188l-1.327-.33 2.42-4.983.828 1.7zM44.013 52.674h-6.247c-.012 0-.023.004-.035.004L23.555 37.876l24.661 6.14-4.204 8.658zm10.027-34.92v4.001l-2.432.802-4.148-8.522c.358-.086.683-.252.963-.475l5.617 4.195zM38.41 14.11h5.608l4.594 9.434-25.165 8.297L38.41 14.11zm9.988 39.096a2.477 2.477 0 0 0-.948-.46l3.865-7.958 2.723.678v3.499l-5.64 4.24zm6.728-23.42l-2.139-4.393 1.05-.346v.584c0 1.178.828 2.166 1.928 2.427l-.838 1.728zm10.525-1.655c1.375 0 2.5-1.125 2.5-2.5v-9.113c0-1.375-1.125-2.5-2.5-2.5h-9.113c-.585 0-1.117.211-1.543.55l-5.617-4.195V2.497c0-1.375-1.125-2.5-2.5-2.5h-9.114a2.507 2.507 0 0 0-2.5 2.5v9.113c0 .388.097.75.256 1.079L21.645 29.13v-1.535c0 1.38-4.845 2.498-10.822 2.498C4.846 30.093 0 28.974 0 27.595v17.07c0 1.38 4.846 2.498 10.823 2.498s10.822-1.118 10.822-2.498V40.4l13.67 14.275c-.032.161-.05.328-.05.5v9.113c0 1.375 1.125 2.5 2.5 2.5h9.114c1.375 0 2.5-1.125 2.5-2.5v-7.909l5.64-4.24c.422.327.946.53 1.52.53h9.113c1.375 0 2.5-1.124 2.5-2.5v-9.112c0-1.375-1.125-2.5-2.5-2.5h-2.994V28.13h2.994" fill="#f47327"/><path d="M10.823 24.17c5.977 0 10.822-1.118 10.822-2.498 0-1.38-4.845-2.497-10.822-2.497C4.846 19.175 0 20.293 0 21.672c0 1.38 4.846 2.498 10.823 2.498" fill="#f47327"/></svg>