<svg xmlns="http://www.w3.org/2000/svg" viewBox="0 0 125 125" height="125" width="125"><path d="M85.188 70.522l-5.045-.323-4.763.43 5.13 17.34 4.678-17.447" fill="#f8d57b"/><path d="M105.125 44.416L62.5 49.712l-42.625-5.296L62.5 11.047l42.625 33.37" fill="#5b431a"/><path d="M89.38 92.91L62.5 86.614 35.62 92.91l26.88 21.042 26.88-21.042" fill="#f8d57b"/><path d="M105.125 44.416L62.5 31.63V11.047l42.625 21.313v12.057M89.38 100.513l-26.88 13.44v-10.29L89.38 92.91v7.602" fill="#d5a22c"/><path d="M62.5 113.953l-26.88-13.44v-7.602l26.88 10.751v10.291M19.875 44.416L62.5 31.63V11.047L19.875 32.36v12.057" fill="#7f631e"/><path d="M85.188 86.565l-4.679 1.405V70.989l4.679-.467v16.043" fill="#d5a22c"/><path d="M55.704 91.334L62.5 93.37l6.796-2.037V52.889l-6.796-.68-6.796.68v38.444" fill="#7f631e"/><path d="M69.296 91.334L62.5 93.37V52.21l6.796.68v38.445" fill="#d5a22c"/><path d="M44.49 70.989l-4.678-.467V54.477l4.679-.466 5.259.368v16.242l-5.26.368M75.38 86.89l5.13 1.08V70.989l-5.13-.36v16.26" fill="#7f631e"/><path d="M49.75 70.62l-5.26.369V54.01l5.26.368v16.242" fill="#d5a22c"/></svg>