<svg xmlns="http://www.w3.org/2000/svg" viewBox="0 0 125 125" height="125" width="125"><path d="M38.75 90h12.5V35h-12.5v55zM56.239 90h12.5V35h-12.5v55zM73.75 90h12.5V35h-12.5v55z" fill="#7f631e"/><path d="M38.75 90h12.5V35h-12.5v55zM56.239 90h12.5V35h-12.5v55zM73.75 90h12.5V35h-12.5v55z" fill="#7f631e"/><path d="M38.75 86.9h12.5V35h-12.5v51.9zM56.239 86.9h12.5V35h-12.5v51.9zM73.75 86.9h12.5V35h-12.5v51.9z" fill="#d5a22c"/><path d="M58.739 84.4h7.5V37.5h-7.5v46.9zM76.25 84.4h7.5V37.5h-7.5v46.9z" fill="#fff"/></svg>