<svg xmlns="http://www.w3.org/2000/svg" viewBox="0 0 125 125" height="125" width="125"><path d="M96.977 64.212c0 19.041-15.437 34.477-34.477 34.477S28.023 83.253 28.023 64.212v-3.1S50.838 29.736 62.5 29.736c13.62 0 34.477 31.376 34.477 31.376v3.1" fill="#7f631e"/><path d="M96.977 61.112c0 19.04-15.437 34.476-34.477 34.476S28.023 80.153 28.023 61.112c0-19.04 15.436-34.476 34.477-34.476 19.04 0 34.477 15.435 34.477 34.476" fill="#d5a22c"/><path d="M49.994 55.422h1.858V39.836h-1.858v15.586zM49.994 78.37h1.858V62.782h-1.858V78.37zM75.985 79.668h-1.86V60.242H50.643v-1.848h25.342v21.274" fill="#fff"/><path d="M50.728 67.661l11.144-8.176-11.144-8.176-10.656 7.693 10.656 8.66" fill="#d5a22c"/><path d="M41.593 59.045l9.165 7.45 9.546-7.01-9.577-7.036-9.134 6.596zm9.109 9.786L38.55 58.96l12.185-8.801 12.695 9.326-12.73 9.346" fill="#fff"/><path d="M67.81 83.406h15.074v-8.894H67.81v8.894z" fill="#d5a22c"/><path d="M68.739 75.432v7.05h13.213v-7.05H68.739zm15.073 8.894H66.878V73.59h16.934v10.737" fill="#fff"/><path d="M43.532 45.137h15.075V36.24H43.532v8.897z" fill="#d5a22c"/><path d="M44.46 44.211h13.214v-7.043H44.46v7.043zm15.078 1.849H42.602V35.322h16.936V46.06" fill="#fff"/><path d="M43.388 83.406H58.46v-8.894H43.388v8.894z" fill="#d5a22c"/><path d="M44.315 82.483h13.218v-7.05H44.315v7.05zm15.073 1.843H42.455V73.59h16.933v10.737" fill="#fff"/></svg>