<svg xmlns="http://www.w3.org/2000/svg" viewBox="0 0 125 125" height="125" width="125"><path d="M49.748 17.421V62.5H44.49v42.448l18.011 9.005L73.334 62.5 62.5 11.047 49.748 17.42" fill="#99441f"/><path d="M62.5 11.047v102.906l12.749-6.374V62.5h5.259V20.052L62.5 11.047" fill="#f47327"/><path d="M99.68 49.355l-22.798 2.14-7.487-.931 23.758-24.19 6.527 22.981" fill="#653219"/><path d="M93.153 26.374l6.527 3.263v19.718l-6.527-1.305V26.374" fill="#f47327"/><path d="M69.395 50.564l23.758-2.514V26.374L69.395 32.8v17.763" fill="#99441f"/><path d="M25.32 75.645l22.795-2.14 7.49.932-23.758 24.189-6.527-22.981" fill="#fab582"/><path d="M31.847 98.626l-6.527-3.263V75.645l6.527 1.375v21.606" fill="#99441f"/><path d="M55.605 74.436L31.847 77.02v21.606l23.758-6.427V74.437" fill="#f47327"/></svg>