<svg xmlns="http://www.w3.org/2000/svg" viewBox="0 0 125 125" height="125" width="125"><path d="M77.015 53.66l20.31 7.558.31.107 7.305-.394v3.1l-6.992 2.59-.332.153-.29.105-20.31 7.561v-7.56H38.491a9.388 9.388 0 0 1-8.977 6.538c-5.23 0-9.455-4.202-9.455-9.388v-3.1l18.432.288h38.523v-7.559" fill="#99441f"/><path d="M77.015 50.56l20.31 7.558.31.108.313.112 6.992 2.593-6.992 2.59-.332.154-.29.105-20.31 7.56v-7.56H38.491a9.39 9.39 0 0 1-8.977 6.538c-5.23 0-9.455-4.202-9.455-9.387 0-5.186 4.226-9.35 9.455-9.35a9.392 9.392 0 0 1 8.977 6.537h38.523V50.56" fill="#f47327"/></svg>