<svg xmlns="http://www.w3.org/2000/svg" viewBox="0 0 125 125" height="125" width="125"><path d="M49.125 59.975c.729-.208 14.718-5.097 26.09-17.624 1.82-2.004 6.41-11.601 6.41-11.601v3.1c-.75 7.5-2.375 18.125-6 21.625C72.25 58.725 63.5 60.6 54 61.35v36.625H43.375v-36.5C44.125 53.1 44.75 46.35 52 39.85c4.38-3.952 27.875-12.975 27.875-12.975v3.1c-11 17.75-31.75 25.25-32 25.375-.625.25-1.25 2.625-1 3.25.125.5 1.25 1.5 1.75 1.5.25-.125.375-.125.5-.125" fill="#653219"/><path d="M49.125 56.875c.875-.25 20.875-7.25 32.5-26.125-.75 7.5-2.375 18.125-6 21.625C72.25 55.625 63.5 57.5 54 58.25v36.625H43.375v-36.5C44.125 50 44.75 43.25 52 36.75c5.125-4.625 19.125-8.75 27.875-9.875-11 17.75-31.75 25.25-32 25.375-.625.25-1.25 2.625-1 3.25.125.5 1.25 1.5 1.75 1.5.25-.125.375-.125.5-.125" fill="#f47327"/></svg>