<svg xmlns="http://www.w3.org/2000/svg" viewBox="0 0 125 125" height="125" width="125"><path d="M100.538 64.063c0 21.007-17.03 38.037-38.038 38.037-21.007 0-38.038-17.03-38.038-38.038 0-21.007 17.03-38.037 38.038-38.037 21.007 0 38.038 17.03 38.038 38.038" fill="#99441f"/><path d="M24.462 64.063h76.076v-3.126H24.462v3.126z" fill="#99441f"/><path d="M100.538 60.937c0 21.008-17.03 38.038-38.038 38.038-21.007 0-38.038-17.03-38.038-38.038C24.462 39.93 41.492 22.9 62.5 22.9c21.007 0 38.038 17.03 38.038 38.037" fill="#f47327"/><path d="M64.962 56.81h-4.916l-2.632-22.656h10.18L64.963 56.81" fill="#fff"/><path d="M84.502 73.501l1.957-1.631-7.11-10.619-15.577-5.441-1.272 8.6 14.041 1.316 7.962 7.776" fill="#fff"/><path d="M40.502 73.501l-1.957-1.631 7.11-10.619L61.23 55.81l1.273 8.6-14.042 1.316-7.96 7.776M69.566 34.154a7.062 7.062 0 1 1-14.124 0 7.062 7.062 0 0 1 14.124 0" fill="#fff"/><path d="M62.503 27.717a6.444 6.444 0 0 0-6.436 6.437 6.444 6.444 0 0 0 6.436 6.437 6.444 6.444 0 0 0 6.437-6.437 6.444 6.444 0 0 0-6.437-6.437zm0 14.124c-4.238 0-7.686-3.448-7.686-7.687 0-4.238 3.448-7.687 7.686-7.687 4.24 0 7.687 3.449 7.687 7.687 0 4.239-3.448 7.687-7.687 7.687" fill="#f47327"/><path d="M64.818 34.154a2.314 2.314 0 1 1-4.628 0 2.314 2.314 0 0 1 4.628 0" fill="#f47327"/><path d="M67.595 60.028a5.09 5.09 0 1 1-10.18 0 5.09 5.09 0 0 1 10.18 0" fill="#fff"/><path d="M62.503 55.562a4.47 4.47 0 0 0-4.464 4.465 4.47 4.47 0 0 0 4.464 4.466 4.47 4.47 0 0 0 4.467-4.466 4.471 4.471 0 0 0-4.467-4.465zm0 10.181a5.721 5.721 0 0 1-5.714-5.716 5.722 5.722 0 0 1 5.714-5.715 5.723 5.723 0 0 1 5.717 5.715 5.723 5.723 0 0 1-5.717 5.716" fill="#f47327"/><path d="M64.072 60.028a1.568 1.568 0 1 1-3.136 0 1.568 1.568 0 0 1 3.136 0" fill="#f47327"/><path d="M46.084 89.883h32.831V71.75h-32.83v18.133z" fill="#fff"/><path d="M47.734 88.42h2.5V73.211h-2.5v15.21zM52.24 88.42h2.5V73.211h-2.5v15.21zM56.744 88.42h2.5V73.211h-2.5v15.21zM61.25 88.42h2.5V73.211h-2.5v15.21zM65.756 88.42h2.5V73.211h-2.5v15.21zM70.26 88.42h2.5V73.211h-2.5v15.21zM74.766 88.42h2.5V73.211h-2.5v15.21z" fill="#fab582"/></svg>