<svg xmlns="http://www.w3.org/2000/svg" viewBox="0 0 125 125" height="125" width="125"><path d="M63.688 40.163c0 8.905-7.22 16.125-16.126 16.125-8.905 0-16.124-7.22-16.124-16.125v-3.1l16.125-13.025 16.124 13.025v3.1" fill="#653219"/><path d="M60.813 64.725c-.126.125-.25.125-.376.125-.5 0-1.624-1-1.75-1.5-.25-.625.376-3 1-3.25.25-.125 21-7.625 32-25.375v-3.1s-20.308 8.193-25.25 11.1v1.125c0 6.75-4.374 12.625-10.374 14.875-.5 2.375.25 4.875-1 7.625v36.75h11.25v-37c8.75-.75 18-2.5 21.25-5.875 3.624-3.625 5.124-14.25 5.874-21.625v-3.1s-3.331 7.964-3.758 8.507C78.031 58.81 61.711 64.388 60.812 64.725" fill="#653219"/><path d="M63.688 37.063c0 8.905-7.22 16.124-16.126 16.124-8.905 0-16.124-7.219-16.124-16.124 0-8.906 7.219-16.126 16.125-16.126 8.905 0 16.124 7.22 16.124 16.125" fill="#f47327"/><path d="M40.313 33l7.25-7.125L54.813 33h-4.25v15.75h-6V33h-4.25zm3.124 16.875h8.25v-15.75h5.876l-10-9.875-10 9.875h5.874v15.75" fill="#fff"/><path d="M60.813 61.625c-.126.125-.25.125-.376.125-.5 0-1.624-1-1.75-1.5-.25-.625.376-3 1-3.25.25-.125 21-7.625 32-25.375-7.5 1-18.874 4.25-25.25 8v1.125c0 6.75-4.374 12.625-10.374 14.875-.5 2.375.25 4.875-1 7.625V100h11.25V63c8.75-.75 18-2.5 21.25-5.875 3.624-3.625 5.124-14.25 5.874-21.625-11.5 18.875-31.624 25.75-32.624 26.125" fill="#f47327"/></svg>