<svg xmlns="http://www.w3.org/2000/svg" viewBox="0 0 125 125" height="125" width="125"><path d="M87.734 56.208c6.797 0 11.536 4.272 11.536 10.369v13.242H93.3v-8.975h-1.635v8.975h-9.216c-.603-6.697-6.028-11.262-13.636-11.262h-5.22v-3.635c5.828-.525 10.472-2.757 10.987-8.685.188-.012.359-.029.547-.029h12.607M49.873 56.225c.19 0 .376.012.562.012.517 5.928 5.158 8.16 10.976 8.685v3.635H56.19c-7.605 0-13.044 4.565-13.638 11.262h-8.93V70.86h-1.624v8.958H25.73V66.59c0-6.11 4.741-10.366 11.538-10.366h12.605" fill="#777779"/><path d="M68.814 74.138c6.796 0 11.535 4.272 11.535 10.366v13.232h-5.986v-8.96h-1.621v8.96H52.556v-8.96H50.92v8.96h-6.264V84.504c0-6.094 4.736-10.366 11.533-10.366h12.625M43.565 30.466l9.975 7.087v3.091c0 5.632-4.475 10.195-9.975 10.195-5.489 0-9.944-4.563-9.944-10.663v-2.728l9.944-6.982M81.422 30.466l9.976 7.087v3.091c0 5.632-4.475 10.195-9.976 10.195-5.488 0-9.944-4.563-9.944-10.663v-2.728l9.944-6.982M62.486 44.4l8.842 6.28v2.741c0 4.993-3.967 9.037-8.842 9.037-4.865 0-8.814-4.044-8.814-9.452v-2.418l8.814-6.189" fill="#777779"/><path d="M81.438 27.366c5.486 0 9.959 4.563 9.959 10.178 0 5.632-4.473 10.195-9.959 10.195s-9.959-4.563-9.959-10.195c0-5.615 4.473-10.178 9.959-10.178M62.5 41.289c4.88 0 8.835 4.055 8.835 9.033 0 4.986-3.955 9.036-8.835 9.036-4.863 0-8.82-4.05-8.82-9.036 0-4.978 3.957-9.033 8.82-9.033M87.734 53.108c6.797 0 11.536 4.272 11.536 10.369v13.242H93.3v-8.975h-1.635v8.975h-9.216c-.603-6.697-6.028-11.262-13.636-11.262h-5.22v-1.133c5.828-.525 10.472-5.259 10.987-11.187.188-.012.359-.03.547-.03h12.607M49.873 53.125c.19 0 .376.012.562.012.517 5.928 5.158 10.662 10.976 11.187v1.133H56.19c-7.605 0-13.044 4.565-13.638 11.262h-8.93V67.76h-1.624v8.958H25.73V63.49c0-6.11 4.741-10.366 11.538-10.366h12.605" fill="#d4d4d2"/><path d="M68.814 71.038c6.796 0 11.535 4.272 11.535 10.366v13.232h-5.986v-8.96h-1.621v8.96H52.556v-8.96H50.92v8.96h-6.264V81.404c0-6.094 4.736-10.366 11.533-10.366h12.625M43.565 27.366c5.5 0 9.975 4.58 9.975 10.178 0 5.632-4.475 10.195-9.975 10.195-5.489 0-9.944-4.563-9.944-10.195 0-5.598 4.455-10.178 9.944-10.178" fill="#d4d4d2"/></svg>