<svg xmlns="http://www.w3.org/2000/svg" viewBox="0 0 66.25 69.349998" height="69.35" width="66.25"><path d="M54.85 69.35H11.4C5.104 69.35 0 64.246 0 57.95V14.5C0 8.204 5.104 3.1 11.4 3.1h43.45c6.296 0 11.4 5.104 11.4 11.4v43.45c0 6.296-5.104 11.4-11.4 11.4" fill="#23446f"/><path d="M54.85 66.25H11.4C5.104 66.25 0 61.146 0 54.85V11.4C0 5.104 5.104 0 11.4 0h43.45c6.296 0 11.4 5.104 11.4 11.4v43.45c0 6.296-5.104 11.4-11.4 11.4" fill="#3e6fbe"/><path d="M8.125 57.82H23.75v-25H8.125v25zM25.312 57.82h15.625v-50H25.312v50zM42.5 57.82h15.624v-37.5H42.5v37.5z" fill="#fff"/><path d="M15.937 55.02a5.625 5.625 0 1 1 0-11.25 5.625 5.625 0 1 1 0 11.25M44.687 55.02h11.25V43.77h-11.25v11.25zM38.75 55.02H27.5l5.625-11.25 5.625 11.25" fill="#3e6fbe"/></svg>