<svg xmlns="http://www.w3.org/2000/svg" viewBox="0 0 125 125" height="125" width="125"><path d="M84.225 97.175h-43.45c-6.296 0-11.4-5.104-11.4-11.4v-43.45c0-6.296 5.104-11.4 11.4-11.4h43.45c6.296 0 11.4 5.104 11.4 11.4v43.45c0 6.296-5.104 11.4-11.4 11.4" fill="#23446f"/><path d="M84.225 94.075h-43.45c-6.296 0-11.4-5.104-11.4-11.4v-43.45c0-6.296 5.104-11.4 11.4-11.4h43.45c6.296 0 11.4 5.104 11.4 11.4v43.45c0 6.296-5.104 11.4-11.4 11.4" fill="#3e6fbe"/><path d="M88.75 89.395h-52.5a2.5 2.5 0 0 1-2.5-2.5v-52.5a2.5 2.5 0 0 1 2.5-2.5h52.5a2.5 2.5 0 0 1 2.5 2.5v52.5a2.5 2.5 0 0 1-2.5 2.5" fill="#fff"/><path d="M37.5 85.645h15.624v-25H37.5v25zM54.687 85.645h15.625v-50H54.687v50zM71.874 85.645H87.5v-37.5H71.873v37.5z" fill="#3e6fbe"/><path d="M45.312 82.846a5.625 5.625 0 1 1 0-11.25 5.625 5.625 0 0 1 0 11.25M74.062 82.846h11.25v-11.25h-11.25v11.25zM68.125 82.846h-11.25l5.625-11.25 5.625 11.25" fill="#fff"/></svg>