<svg xmlns="http://www.w3.org/2000/svg" viewBox="0 0 125 125" height="125" width="125"><path d="M84.225 98.735h-43.45c-6.296 0-11.4-5.104-11.4-11.4v-43.45c0-6.296 5.104-11.4 11.4-11.4h43.45c6.296 0 11.4 5.104 11.4 11.4v43.45c0 6.296-5.104 11.4-11.4 11.4" fill="#23446f"/><path d="M84.225 95.635h-43.45c-6.296 0-11.4-5.103-11.4-11.4v-43.45c0-6.296 5.104-11.4 11.4-11.4h43.45c6.296 0 11.4 5.104 11.4 11.4v43.45c0 6.297-5.104 11.4-11.4 11.4" fill="#3e6fbe"/><path d="M75 35.063h5V17.994h-5v17.067zM45 35.063h5V17.994h-5v17.067zM67.5 35.063h5V17.994h-5v17.067zM52.5 35.063h5V17.994h-5v17.067zM60 35.063h5V17.994h-5v17.067zM17.995 80h22.63v-5h-22.63v5zM17.995 57.5h22.63v-5h-22.63v5zM17.995 72.5h22.63v-5h-22.63v5zM17.995 65h22.63v-5h-22.63v5zM17.995 50h22.63v-5h-22.63v5zM45 107.005h5V87.354h-5v19.65zM75 107.005h5V87.354h-5v19.65zM52.5 107.005h5V87.354h-5v19.65zM67.5 107.005h5V87.354h-5v19.65zM60 107.005h5V87.354h-5v19.65zM87.084 72.5h19.921v-5H87.084v5zM87.084 50h19.921v-5H87.084v5zM87.084 65h19.921v-5H87.084v5zM87.084 57.5h19.921v-5H87.084v5zM87.084 80h19.921v-5H87.084v5z" fill="#3e6fbe"/><path d="M82.277 57.069H42.722c-.71 0-1.285.576-1.285 1.286V81.54c0 .71.575 1.286 1.285 1.286h39.555c.71 0 1.287-.575 1.287-1.286V58.354c0-.71-.576-1.285-1.287-1.285" fill="#fff"/><path d="M65.334 66.522h-5.525a.938.938 0 0 0-.938.937v13.318c0 .518.42.937.938.937h5.525c.518 0 .938-.42.938-.937V67.459a.937.937 0 0 0-.938-.938M53.333 66.522h-4.167a.938.938 0 0 0-.937.937v5.021c0 .517.42.938.938.938h4.166c.518 0 .938-.42.938-.938v-5.021a.937.937 0 0 0-.938-.938M75.907 66.522H71.74a.938.938 0 0 0-.937.937v5.021c0 .517.42.938.937.938h4.167c.518 0 .938-.42.938-.938v-5.021a.938.938 0 0 0-.938-.938" fill="#3e6fbe"/><path d="M62.5 40.122L34.145 56.47v2.652c0 .691.56 1.25 1.25 1.25h54.21c.69 0 1.25-.559 1.25-1.25V56.47L62.5 40.122" fill="#fff"/></svg>