<svg xmlns="http://www.w3.org/2000/svg" viewBox="0 0 125 125" height="125" width="125"><path d="M84.225 98.735h-43.45c-6.296 0-11.4-5.104-11.4-11.4v-43.45c0-6.296 5.104-11.4 11.4-11.4h43.45c6.296 0 11.4 5.104 11.4 11.4v43.45c0 6.296-5.104 11.4-11.4 11.4" fill="#23446f"/><path d="M84.225 95.635h-43.45c-6.296 0-11.4-5.103-11.4-11.4v-43.45c0-6.296 5.104-11.4 11.4-11.4h43.45c6.296 0 11.4 5.104 11.4 11.4v43.45c0 6.297-5.104 11.4-11.4 11.4" fill="#3e6fbe"/><path d="M75 35.063h5V17.994h-5v17.067zM45 35.063h5V17.994h-5v17.067zM67.5 35.063h5V17.994h-5v17.067zM52.5 35.063h5V17.994h-5v17.067zM60 35.063h5V17.994h-5v17.067zM17.995 80h22.63v-5h-22.63v5zM17.995 57.5h22.63v-5h-22.63v5zM17.995 72.5h22.63v-5h-22.63v5zM17.995 65h22.63v-5h-22.63v5zM17.995 50h22.63v-5h-22.63v5zM45 107.005h5V87.354h-5v19.65zM75 107.005h5V87.354h-5v19.65zM52.5 107.005h5V87.354h-5v19.65zM67.5 107.005h5V87.354h-5v19.65zM60 107.005h5V87.354h-5v19.65zM87.084 72.5h19.921v-5H87.084v5zM87.084 50h19.921v-5H87.084v5zM87.084 65h19.921v-5H87.084v5zM87.084 57.5h19.921v-5H87.084v5zM87.084 80h19.921v-5H87.084v5z" fill="#3e6fbe"/><path d="M80.746 67.964c-.031-.32-.058-.64-.104-.964-.028-.2-.07-.403-.103-.605-.05-.3-.095-.6-.156-.904-.044-.218-.102-.436-.152-.654-.066-.291-.128-.582-.205-.874-.058-.222-.13-.445-.194-.668-.083-.288-.162-.575-.254-.863-.073-.226-.159-.451-.237-.677-.1-.283-.193-.568-.301-.85-.088-.23-.187-.458-.28-.687-.113-.274-.22-.55-.341-.822-.103-.233-.217-.461-.326-.692-.114-.243-.222-.488-.342-.728-.828-1.649-.869-3.581-.03-5.225l3.134-6.144-1.71-1.71-.041-.04c-1.592.959-3.289 1.504-4.97 1.746-5.006.55-10.298-1.582-11.632-3.618l-.001.002-.001-.002c-1.334 2.036-6.627 4.169-11.632 3.618-1.682-.242-3.379-.787-4.971-1.747l-.04.041-1.711 1.71 3.134 6.144c.838 1.644.798 3.576-.03 5.225-.12.24-.228.485-.342.728-.109.23-.223.46-.326.692-.12.272-.228.548-.34.822-.093.23-.193.456-.281.686-.108.283-.202.568-.3.851-.08.226-.165.45-.238.677-.092.288-.17.575-.254.863-.064.223-.136.446-.194.668-.077.292-.139.583-.205.874-.05.218-.108.436-.152.654-.061.303-.106.603-.156.904-.033.202-.075.405-.103.606-.045.324-.072.643-.104.963-.017.173-.043.349-.055.52-.035.49-.054.972-.054 1.446 0 8.832 6.238 11.926 14.549 12.576 1.227.097 3.806 1.58 3.806 2.802 0-1.223 2.578-2.706 3.805-2.802 8.31-.65 14.549-3.744 14.549-12.576a19.9 19.9 0 0 0-.054-1.446c-.012-.171-.039-.347-.055-.52" fill="#fff"/></svg>