<svg xmlns="http://www.w3.org/2000/svg" viewBox="0 0 125 125" height="125" width="125"><path d="M84.225 98.735h-43.45c-6.296 0-11.4-5.104-11.4-11.4v-43.45c0-6.296 5.104-11.4 11.4-11.4h43.45c6.296 0 11.4 5.104 11.4 11.4v43.45c0 6.296-5.104 11.4-11.4 11.4" fill="#23446f"/><path d="M84.225 95.635h-43.45c-6.296 0-11.4-5.103-11.4-11.4v-43.45c0-6.296 5.104-11.4 11.4-11.4h43.45c6.296 0 11.4 5.104 11.4 11.4v43.45c0 6.297-5.104 11.4-11.4 11.4" fill="#3e6fbe"/><path d="M75 35.063h5V17.994h-5v17.067zM45 35.063h5V17.994h-5v17.067zM67.5 35.063h5V17.994h-5v17.067zM52.5 35.063h5V17.994h-5v17.067zM60 35.063h5V17.994h-5v17.067zM17.995 80h22.63v-5h-22.63v5zM17.995 57.5h22.63v-5h-22.63v5zM17.995 72.5h22.63v-5h-22.63v5zM17.995 65h22.63v-5h-22.63v5zM17.995 50h22.63v-5h-22.63v5zM45 107.005h5V87.354h-5v19.65zM75 107.005h5V87.354h-5v19.65zM52.5 107.005h5V87.354h-5v19.65zM67.5 107.005h5V87.354h-5v19.65zM60 107.005h5V87.354h-5v19.65zM87.084 72.5h19.921v-5H87.084v5zM87.084 50h19.921v-5H87.084v5zM87.084 65h19.921v-5H87.084v5zM87.084 57.5h19.921v-5H87.084v5zM87.084 80h19.921v-5H87.084v5z" fill="#3e6fbe"/><path d="M84.043 79.98H40.514a3.08 3.08 0 0 1-3.08-3.08V52.747a3.08 3.08 0 0 1 3.08-3.08h43.529a3.08 3.08 0 0 1 3.08 3.08V76.9a3.08 3.08 0 0 1-3.08 3.08" fill="#fff"/><path d="M66.25 56.074c-4.824 0-8.75 3.926-8.75 8.75s3.926 8.75 8.75 8.75S75 69.648 75 64.824s-3.926-8.75-8.75-8.75zm0 21.25c-6.892 0-12.5-5.608-12.5-12.5s5.608-12.5 12.5-12.5 12.5 5.608 12.5 12.5-5.608 12.5-12.5 12.5" fill="#3e6fbe"/><path d="M72.813 64.824a6.563 6.563 0 1 1-13.126 0 6.563 6.563 0 0 1 13.126 0M41.406 57.48h7.969v-3.75h-7.969v3.75z" fill="#3e6fbe"/><path d="M76.875 48.314h-21.25l2.819-5.834h15.612l2.819 5.834" fill="#fff"/></svg>