<svg xmlns="http://www.w3.org/2000/svg" viewBox="0 0 125 125" height="125" width="125"><path d="M100.538 64.063c0 21.007-17.03 38.037-38.038 38.037-21.007 0-38.038-17.03-38.038-38.038 0-21.007 17.03-38.037 38.038-38.037 21.007 0 38.038 17.03 38.038 38.038" fill="#99441f"/><path d="M100.538 60.937c0 21.008-17.03 38.038-38.038 38.038-21.007 0-38.038-17.03-38.038-38.038C24.462 39.93 41.492 22.9 62.5 22.9c21.007 0 38.038 17.03 38.038 38.037" fill="#f47327"/><path d="M67.75 60.76H57.33l.035-7.675s-.005-4.705 5.21-4.688c4.987.015 5.21 4.688 5.21 4.688l-.034 7.675zm4.951 0v-7.675c-.537-5.057-4.897-8.985-10.126-8.985-5.244 0-9.61 3.909-10.128 8.984v7.676H47.21v17.014h30.583V60.76h-5.09" fill="#fff"/></svg>