<svg xmlns="http://www.w3.org/2000/svg" viewBox="0 0 125 125" height="125" width="125"><path d="M100.538 64.063c0 21.007-17.03 38.037-38.038 38.037-21.007 0-38.038-17.03-38.038-38.038 0-21.007 17.03-38.037 38.038-38.037 21.007 0 38.038 17.03 38.038 38.038" fill="#99441f"/><path d="M100.538 60.938c0 21.007-17.03 38.037-38.038 38.037-21.007 0-38.038-17.03-38.038-38.038C24.462 39.93 41.492 22.9 62.5 22.9c21.007 0 38.038 17.03 38.038 38.037" fill="#f47327"/><path d="M47.71 77.204h24.263v-3.509H47.71v3.51zM47.71 69.948h24.263v-3.509H47.71v3.509zM47.71 55.436h24.263v-3.51H47.71v3.51zM30.43 62.943h55.424v-4.011H30.429v4.01zM47.71 48.18h24.263v-3.51H47.71v3.51z" fill="#fff"/><path d="M77.57 57.27h-3.51V41.332H45.62v15.88H42.11V37.823h35.46V57.27M77.57 84.051H42.11V64.755h3.509v15.788H74.06V64.989h3.51V84.05M84.072 52.389l10.499 8.549-10.499 8.907V52.39" fill="#fff"/></svg>