<svg xmlns="http://www.w3.org/2000/svg" viewBox="0 0 125 125" height="125" width="125"><path d="M78.242 47.65L62.49 49.862 46.74 47.65 62.49 17.5l15.752 30.15" fill="#323131"/><path d="M77.402 62.5h14.886l6.462 8.125-6.462 9.935-14.886-2.244V62.5" fill="#484849"/><path d="M47.605 62.5H32.718l-6.571 8.021 6.57 10.046 14.89-2.246V62.5M78.242 47.65L62.49 44.5V17.5l15.752 7.874V47.65" fill="#aaa9a8"/><path d="M46.74 47.65L62.49 44.5V17.5l-15.75 7.874V47.65" fill="#484849"/><path d="M85.999 62.5h-23.51L42.605 76.666 62.49 107.5l23.508-11.754V62.5" fill="#aaa9a8"/><path d="M38.981 62.5H62.49v45L38.98 95.746V62.5" fill="#484849"/><path d="M92.288 80.56l7.483-2.244V62.5h-7.483v18.06" fill="#aaa9a8"/><path d="M32.717 80.567l-7.487-2.246V62.5h7.487v18.067" fill="#484849"/></svg>