<svg xmlns="http://www.w3.org/2000/svg" viewBox="0 0 125 125" height="125" width="125"><path d="M19.875 68.528l6.484-.269 5.739.495-6.778 24.618-5.445-24.844" fill="#b2ce8f"/><path d="M44.49 87.969l18.01 5.403L77.11 55.39 62.5 11.047l-18.01 9.005v67.917" fill="#435e24"/><path d="M80.51 87.969L62.5 93.372V11.047l18.01 9.005v67.917" fill="#689f2e"/><path d="M92.902 80.719l6.778.926V69.073l-6.778-.319V80.72" fill="#435e24"/><path d="M32.098 80.719l-6.778.926V69.073l6.778-.319V80.72" fill="#689f2e"/><path d="M61.775 80.209l-29.682-5.204-6.773.64 35.227 25.058 1.228-20.495" fill="#b2ce8f"/><path d="M99.68 69.073l5.445-.545v24.113l-5.445-3.852V69.073" fill="#689f2e"/><path d="M105.125 68.528l-6.484-.269-5.739.495 6.778.319 5.445-.545" fill="#b2ce8f"/><path d="M19.875 74.556L62.5 83.081v30.872L19.875 92.641V74.556" fill="#435e24"/><path d="M25.32 69.073l-5.445-.545v24.113l5.445-2.094V69.073" fill="#435e24"/><path d="M62.5 80.378v27.903l37.18-32.636-6.773-.635L62.5 80.378" fill="#b2ce8f"/><path d="M75.25 71.516l-12.75-.994-12.75.994 12.75 42.437 12.75-42.437" fill="#b2ce8f"/><path d="M105.125 74.556L62.5 83.081v30.872l42.625-21.312V74.556" fill="#689f2e"/><path d="M75.25 106.584l-12.75 6.375V72.791l12.75-1.283v35.076" fill="#689f2e"/><path d="M49.75 101.953l12.75 12V72.79l-12.75-1.274v30.437" fill="#435e24"/></svg>