<svg xmlns="http://www.w3.org/2000/svg" viewBox="0 0 125 125" height="125" width="125"><path d="M62.5 29.375c18.294 0 33.125 14.83 33.125 33.125 0 18.294-14.83 33.125-33.125 33.125-18.294 0-33.125-14.83-33.125-33.125 0-18.294 14.83-33.125 33.125-33.125" fill="#d4d4d2"/><path d="M62.5 30.625c-17.576 0-31.875 14.3-31.875 31.875 0 17.576 14.3 31.875 31.875 31.875 17.576 0 31.875-14.3 31.875-31.875 0-17.576-14.3-31.875-31.875-31.875zm0 66.25c-18.955 0-34.375-15.42-34.375-34.375 0-18.954 15.42-34.375 34.375-34.375S96.875 43.545 96.875 62.5c0 18.954-15.42 34.375-34.375 34.375" fill="#777779"/><path d="M39.56 53.923h3.013l5.214 13.906 5.237-13.906h3.013V70.47h-2.086V56.704h-.046L48.737 70.47H46.86l-5.168-13.766h-.046V70.47h-2.085V53.923M58.82 53.923h10.868v1.855h-8.667v5.26h7.601v1.854h-7.601v7.578H58.82V53.923M74.558 63.634h5.608l-2.757-7.718h-.047l-2.804 7.718zm1.646-9.71h2.433l6.466 16.546h-2.434l-1.808-4.983h-6.998l-1.854 4.983h-2.272l6.467-16.547" fill="#323131"/></svg>