<svg xmlns="http://www.w3.org/2000/svg" viewBox="0 0 125 125" height="125" width="125"><path d="M61.972 64.05c0 7.432-6.025 13.455-13.456 13.455-7.431 0-13.456-6.023-13.456-13.455s6.024-13.456 13.456-13.456c7.431 0 13.456 6.024 13.456 13.456" fill="#435e24"/><path d="M53.065 58.332h15.567l1.409 2.455 5.263-.493 2.02 2.073 1.847.402 10.769-1.395v3.1l-3.28 5.293H53.064V58.332M35.06 64.463h12.953V60.95H35.06v3.513z" fill="#435e24"/><path d="M61.972 60.95c0 7.431-6.024 13.456-13.455 13.456-7.432 0-13.457-6.025-13.457-13.456 0-7.432 6.025-13.455 13.457-13.455 7.43 0 13.455 6.024 13.455 13.455" fill="#689f2e"/><path d="M46.138 60.95a3.513 3.513 0 1 1-7.026 0 3.513 3.513 0 0 1 7.026 0" fill="#fff"/><path d="M53.065 55.233h15.567l1.409 2.455 5.264-.494 2.019 2.073 1.848.403 4.802-2.876 5.966 4.58-3.28 5.293H53.065V55.234" fill="#689f2e"/></svg>