<?xml version="1.0" encoding="UTF-8" standalone="no"?>
<svg
   xmlns:dc="http://purl.org/dc/elements/1.1/"
   xmlns:cc="http://creativecommons.org/ns#"
   xmlns:rdf="http://www.w3.org/1999/02/22-rdf-syntax-ns#"
   xmlns:svg="http://www.w3.org/2000/svg"
   xmlns="http://www.w3.org/2000/svg"
   viewBox="0 0 35 45"
   height="45"
   width="35"
   xml:space="preserve"
   version="1.1"
   id="svg2"><metadata
     id="metadata8"><rdf:RDF><cc:Work
         rdf:about=""><dc:format>image/svg+xml</dc:format><dc:type
           rdf:resource="http://purl.org/dc/dcmitype/StillImage" /></cc:Work></rdf:RDF></metadata><defs
     id="defs6" /><g
     transform="matrix(1.25,0,0,-1.25,0,45)"
     id="g10"><g
       transform="scale(0.1,0.1)"
       id="g12"><path
         id="path14"
         style="fill:#00188f;fill-opacity:1;fill-rule:nonzero;stroke:none"
         d="m 128.012,46.8008 -94.4222,0 0,14.4101 95.1992,0 0,28.7891 -95.1992,0 0,14.41 93.6012,0 -31.9918,33.602 49.6018,51.988 26.41,0 0,14.41 -34.41,0 c -8.012,0 -15.199,3.988 -18.403,9.57 -3.988,6.411 -3.199,14.418 0.821,21.598 l 51.172,93.641 c -2.379,7.179 -9.61,12.769 -17.582,12.769 l -133.5902,0 C 8.78906,341.988 0,333.199 0,322.809 L 0,10 l 170.391,0 0,37.6211 -42.379,0 0,-0.8203 z m -94.4222,251.9882 104.0312,0 0,-14.379 -104.0312,0 0,14.379 z" /><path
         id="path16"
         style="fill:#00188f;fill-opacity:1;fill-rule:nonzero;stroke:none"
         d="m 146.41,146.801 28,28 -23.199,0 -36.801,-37.61 36.801,-37.5816 23.199,0 -28,28.0116 86.399,0 0,19.18 -86.399,0 z" /><path
         id="path18"
         style="fill:#00188f;fill-opacity:1;fill-rule:nonzero;stroke:none"
         d="m 222.379,108.398 -23.981,0 28.012,-28.0074 -84.031,0 0,-19.1797 84.031,0 -28.012,-28.0117 23.981,0 36.019,37.6211 -36.019,37.5777 z" /><path
         id="path20"
         style="fill:#00188f;fill-opacity:1;fill-rule:nonzero;stroke:none"
         d="m 210.391,352.379 c -3.2,5.633 -8.012,5.633 -11.172,0 L 131.211,227.621 c -3.199,-5.633 -0.82,-9.609 5.59,-9.609 l 136.008,0 c 6.41,0 8.793,3.976 5.589,9.609 l -68.007,124.758 z m -5.59,-32.77 c 7.187,0 13.597,-6.41 13.597,-13.597 0,-7.223 -6.41,-13.633 -13.597,-13.633 -7.18,0 -13.59,6.41 -13.59,13.633 0,7.968 6.41,13.597 13.59,13.597 z m 28.008,-57.621 c -3.2,-0.777 -5.618,-1.597 -7.219,-3.199 L 208.789,290 c 2.422,0.82 4.801,1.602 6.41,3.98 l 17.61,-31.992 z m -40,31.211 c 1.601,-1.597 3.992,-3.199 6.41,-3.98 l -16.84,-31.207 c -1.598,1.597 -3.981,3.199 -7.18,3.199 l 17.61,31.988 z m -20,-61.597 c -7.219,0 -13.59,6.41 -13.59,13.589 0,7.188 6.371,13.598 13.59,13.598 7.191,0 13.601,-6.41 13.601,-13.598 -0.82,-8 -6.41,-13.589 -13.601,-13.589 z m 46.41,9.609 -29.61,0 c 0.782,1.598 0.782,2.379 0.782,3.98 0,1.61 0,2.43 -0.782,4.028 l 29.61,0 c -0.821,-1.598 -0.821,-2.418 -0.821,-4.028 0,-1.601 0,-3.203 0.821,-3.98 z m 16.801,-9.609 c -7.231,0 -13.641,6.41 -13.641,13.589 0,7.188 6.41,13.598 13.641,13.598 7.179,0 13.589,-6.41 13.589,-13.598 -0.82,-8 -6.41,-13.589 -13.589,-13.589 z" /></g></g></svg>