<?xml version="1.0" encoding="UTF-8" standalone="no"?>
<svg
   xmlns:dc="http://purl.org/dc/elements/1.1/"
   xmlns:cc="http://creativecommons.org/ns#"
   xmlns:rdf="http://www.w3.org/1999/02/22-rdf-syntax-ns#"
   xmlns:svg="http://www.w3.org/2000/svg"
   xmlns="http://www.w3.org/2000/svg"
   viewBox="0 0 282.5 353.75"
   height="353.75"
   width="282.5"
   xml:space="preserve"
   version="1.1"
   id="svg2"><metadata
     id="metadata8"><rdf:RDF><cc:Work
         rdf:about=""><dc:format>image/svg+xml</dc:format><dc:type
           rdf:resource="http://purl.org/dc/dcmitype/StillImage" /></cc:Work></rdf:RDF></metadata><defs
     id="defs6" /><g
     transform="matrix(1.25,0,0,-1.25,0,353.75)"
     id="g10"><g
       transform="scale(0.1,0.1)"
       id="g12"><path
         id="path14"
         style="fill:#2a3282;fill-opacity:1;fill-rule:nonzero;stroke:none"
         d="M 2237.62,120.422 1455.2,1417.99 c -34.42,55.2 -89.61,55.2 -123.21,0 L 549.609,120.422 c -34.41,-55.2423 -7.23,-96.0236 61.602,-96.0236 l 1564.809,0 c 68.78,-7.1875 95.97,40.7813 61.6,96.0236 z m -384.03,27.18 -343.2,0 0,205.589 137.62,0 0,137.618 -480.82,0 0,-137.618 137.61,0 0,-205.589 -343.198,0 0,205.589 137.618,0 0,205.618 273.59,0 0,137.582 -137.61,0 0,205.629 343.2,0 0,-205.629 -137.62,0 0,-137.582 274.42,0 0,-205.618 137.61,0 0,-205.589 0.78,0 z" /><path
         id="path16"
         style="fill:#2a3282;fill-opacity:1;fill-rule:nonzero;stroke:none"
         d="m 1236.02,2824.4 -1098.399,0 C 62.3789,2824.4 0,2762.8 0,2686.78 L 0,9.98828 l 383.98,0 c 0,27.22262 7.231,61.60152 27.231,89.61332 l 109.57,185.5784 -315.98,0 0,137.621 398.398,0 82.391,137.621 -480.789,0 0,137.566 563.211,0 487.188,809.612 c 27.18,48.01 68.78,75.2 116.79,82.39 l 0,1104.02 c 0.82,68.79 -60.78,130.39 -135.97,130.39 z m -68.83,-548.79 -960.78,0 0,137.58 960.78,0 0,-137.58 z" /></g></g></svg>