<?xml version="1.0" encoding="UTF-8" standalone="no"?>
<svg
   xmlns:dc="http://purl.org/dc/elements/1.1/"
   xmlns:cc="http://creativecommons.org/ns#"
   xmlns:rdf="http://www.w3.org/1999/02/22-rdf-syntax-ns#"
   xmlns:svg="http://www.w3.org/2000/svg"
   xmlns="http://www.w3.org/2000/svg"
   viewBox="0 0 27.5 47.5"
   height="47.5"
   width="27.5"
   xml:space="preserve"
   version="1.1"
   id="svg2"><metadata
     id="metadata8"><rdf:RDF><cc:Work
         rdf:about=""><dc:format>image/svg+xml</dc:format><dc:type
           rdf:resource="http://purl.org/dc/dcmitype/StillImage" /></cc:Work></rdf:RDF></metadata><defs
     id="defs6" /><g
     transform="matrix(1.25,0,0,-1.25,0,47.5)"
     id="g10"><g
       transform="scale(0.1,0.1)"
       id="g12"><path
         id="path14"
         style="fill:#00188f;fill-opacity:1;fill-rule:nonzero;stroke:none"
         d="m 63.1992,165.68 c 0,-3.981 -3.1992,-7.969 -8,-7.969 -4.8086,0 -8.0078,3.988 -8.0078,7.969 l 0,40.82 c 0,3.988 3.1992,8.012 8.0078,8.012 4.8008,0 8,-4.024 8,-8.012 l 0,-40.82 z" /><path
         id="path16"
         style="fill:#00188f;fill-opacity:1;fill-rule:nonzero;stroke:none"
         d="m 172.809,165.68 c 0,-3.981 -3.2,-7.969 -8.008,-7.969 -4.801,0 -8,3.988 -8,7.969 l 0,40.82 c 0,3.988 3.199,8.012 8,8.012 4.808,0 8.008,-4.024 8.008,-8.012 l 0,-40.82 z" /><path
         id="path18"
         style="fill:#00188f;fill-opacity:1;fill-rule:nonzero;stroke:none"
         d="m 70.7813,214.391 0,-60 c 0,-7.18 4.8085,-11.993 11.207,-11.993 l 4.8125,0 0,-20.777 c 0,-4.019 3.1992,-8.012 7.1797,-8.012 4.0312,0 7.2305,3.993 7.2305,8.012 l 0,20.777 15.98,0 0,-20.777 c 0,-4.019 3.2,-8.012 7.219,-8.012 3.988,0 7.192,3.993 7.192,8.012 l 0,20.777 7.187,0 c 6.41,0 8.832,5.633 8.832,11.993 l 0,60 -76.8397,0 z" /><path
         id="path20"
         style="fill:#00188f;fill-opacity:1;fill-rule:nonzero;stroke:none"
         d="m 133.59,256.391 6.41,11.211 c 0.781,0.82 0,2.418 -0.781,3.199 -0.821,0.777 -2.418,0 -2.418,-0.781 l -6.41,-12.032 c -5.59,3.203 -12.77,4.801 -20,4.801 -7.192,0 -14.3715,-1.598 -20.0004,-4.801 l -6.4101,12.032 c -0.7813,0.781 -1.6016,1.558 -2.3789,0.781 C 80.7813,270.02 80,269.199 80.7813,267.602 l 6.4101,-11.211 c -11.1719,-7.192 -19.1797,-18.403 -19.1797,-32 l 0,-1.602 84.7973,0 0,1.602 c 0,13.597 -7.219,25.629 -19.219,32 z M 90.3906,238.809 c -2.3789,0 -3.9804,1.601 -3.9804,3.98 0,2.422 1.6015,4.031 3.9804,4.031 2.418,0 4.0196,-1.609 4.0196,-4.031 0,-2.379 -1.6016,-3.98 -4.0196,-3.98 z m 39.2184,0 c -2.418,0 -4.019,1.601 -4.019,3.98 0,2.422 1.601,4.031 4.019,4.031 2.379,0 3.981,-1.609 3.981,-4.031 0,-2.379 -1.602,-3.98 -3.981,-3.98 z" /><path
         id="path22"
         style="fill:#00188f;fill-opacity:1;fill-rule:nonzero;stroke:none"
         d="m 209.609,370.801 -199.2184,0 C 4.80078,370.801 0,366.82 0,361.191 L 0,21.1914 C 0,15.6016 4.80078,10.0195 10.3906,10.0195 l 199.2184,0 c 5.59,0 10.391,5.5821 10.391,11.1719 l 0,339.2186 c -0.781,5.59 -5.59,10.391 -10.391,10.391 z m -121.5973,-14.41 47.1873,0 0,-7.969 -47.1873,0 0,7.969 z M 110.391,17.2109 c -8.789,0 -15.9808,7.1797 -15.9808,15.9688 0,8.832 7.1918,16.0195 15.9808,16.0195 8.828,0 16.019,-7.1875 16.019,-16.0195 0,-8.7891 -7.191,-15.9688 -16.019,-15.9688 z m 85.629,39.1797 -172.8208,0 0,274.4104 172.8208,0 0,-274.4104 z" /></g></g></svg>