<?xml version="1.0" encoding="UTF-8" standalone="no"?>
<svg
   xmlns:dc="http://purl.org/dc/elements/1.1/"
   xmlns:cc="http://creativecommons.org/ns#"
   xmlns:rdf="http://www.w3.org/1999/02/22-rdf-syntax-ns#"
   xmlns:svg="http://www.w3.org/2000/svg"
   xmlns="http://www.w3.org/2000/svg"
   viewBox="0 0 395 267.5"
   height="267.5"
   width="395"
   xml:space="preserve"
   version="1.1"
   id="svg2"><metadata
     id="metadata8"><rdf:RDF><cc:Work
         rdf:about=""><dc:format>image/svg+xml</dc:format><dc:type
           rdf:resource="http://purl.org/dc/dcmitype/StillImage" /></cc:Work></rdf:RDF></metadata><defs
     id="defs6" /><g
     transform="matrix(1.25,0,0,-1.25,0,267.5)"
     id="g10"><g
       transform="scale(0.1,0.1)"
       id="g12"><path
         id="path14"
         style="fill:#2a3282;fill-opacity:1;fill-rule:nonzero;stroke:none"
         d="M 0,2138.8 0,10.0117 l 3158.4,0 0,2128.7883 -3158.4,0 z m 3000.78,-1957.62 -2883.979,0 0,1511.21 2883.979,0 0,-1511.21 z" /><path
         id="path16"
         style="fill:#2a3282;fill-opacity:1;fill-rule:nonzero;stroke:none"
         d="m 1167.19,984.391 -71.17,0 0,69.609 -1.61,0 c -31.21,-53.6 -76.79,-80.789 -137.609,-80.789 -43.211,0 -77.582,12 -103.211,35.199 -25.578,23.2 -38.391,55.19 -38.391,94.37 0,83.21 48.781,132.04 147.18,145.63 l 133.641,18.4 c 0,75.19 -30.43,113.59 -92.04,113.59 -53.589,0 -102.378,-18.4 -145.582,-54.41 l 0,73.59 c 12.813,9.61 35.192,19.22 67.192,28.83 32.031,8.79 60,13.59 84.8,13.59 104.81,0 157.62,-56.01 157.62,-167.18 l 0,-290.429 -0.82,0 z m -71.17,225.619 -108.008,-15.19 c -36.801,-5.63 -62.422,-14.42 -77.621,-26.41 -15.192,-11.99 -22.379,-31.99 -22.379,-60 0,-22.42 8.008,-40 23.976,-53.59 16.024,-13.64 36.801,-20 61.602,-20 35.2,0 64.81,12.77 88.01,37.57 23.2,24.81 34.42,56.02 34.42,93.6 l 0,44.02 z" /><path
         id="path18"
         style="fill:#2a3282;fill-opacity:1;fill-rule:nonzero;stroke:none"
         d="m 1712.81,1221.18 c 0,-75.19 -18.4,-135.97 -55.19,-180.78 -36.84,-44.798 -86.41,-67.189 -148.01,-67.189 -58.4,0 -103.2,24.809 -133.59,75.199 l -1.61,0 0,-269.609 -71.21,0 0,651.989 71.21,0 0,-78.4 1.61,0 c 35.19,59.22 86.36,89.61 154.37,89.61 56.02,0 100,-20 133.59,-59.22 32.04,-40 48.83,-93.59 48.83,-161.6 z m -73.59,0.82 c 0,48.01 -11.21,86.41 -34.42,115.2 -22.42,28.79 -53.59,43.2 -93.59,43.2 -40.82,0 -74.41,-14.41 -100,-42.38 -25.62,-28.83 -38.4,-64.81 -38.4,-108.83 l 0,-62.38 c 0,-37.62 11.99,-68.79 36.8,-94.42 24.8,-25.58 55.19,-37.57 91.17,-37.57 43.2,0 76.84,16.79 101.6,49.57 24.81,32.81 36.84,79.21 36.84,137.61 z" /><path
         id="path20"
         style="fill:#2a3282;fill-opacity:1;fill-rule:nonzero;stroke:none"
         d="m 2233.59,1221.18 c 0,-75.19 -18.39,-135.97 -55.19,-180.78 -36.8,-44.798 -86.41,-67.189 -148.01,-67.189 -58.4,0 -103.2,24.809 -133.59,75.199 l -1.6,0 0,-269.609 -71.22,0 0,651.989 71.22,0 0,-78.4 1.6,0 c 35.19,59.22 86.4,89.61 154.41,89.61 55.98,0 100,-20 133.59,-59.22 32.82,-40 48.79,-93.59 48.79,-161.6 z m -72.81,0.82 c 0,48.01 -11.17,86.41 -34.37,115.2 -22.43,28.79 -53.6,43.2 -93.6,43.2 -40.82,0 -74.41,-14.41 -100,-42.38 -25.62,-28.83 -38.4,-64.81 -38.4,-108.83 l 0,-62.38 c 0,-37.62 12,-68.79 36.8,-94.42 24.81,-25.58 55.2,-37.57 91.17,-37.57 43.21,0 76.84,16.79 101.6,49.57 24.81,32.81 36.8,79.21 36.8,137.61 z" /></g></g></svg>