<?xml version="1.0" encoding="UTF-8" standalone="no"?>
<svg
   xmlns:dc="http://purl.org/dc/elements/1.1/"
   xmlns:cc="http://creativecommons.org/ns#"
   xmlns:rdf="http://www.w3.org/1999/02/22-rdf-syntax-ns#"
   xmlns:svg="http://www.w3.org/2000/svg"
   xmlns="http://www.w3.org/2000/svg"
   viewBox="0 0 305 353.75"
   height="353.75"
   width="305"
   xml:space="preserve"
   version="1.1"
   id="svg2"><metadata
     id="metadata8"><rdf:RDF><cc:Work
         rdf:about=""><dc:format>image/svg+xml</dc:format><dc:type
           rdf:resource="http://purl.org/dc/dcmitype/StillImage" /></cc:Work></rdf:RDF></metadata><defs
     id="defs6" /><g
     transform="matrix(1.25,0,0,-1.25,0,353.75)"
     id="g10"><g
       transform="scale(0.1,0.1)"
       id="g12"><path
         id="path14"
         style="fill:#2a3282;fill-opacity:1;fill-rule:nonzero;stroke:none"
         d="m 1236.02,2826 -1098.399,0 C 62.3789,2826 0,2764.4 0,2688.38 L 0,9.98047 l 755.199,0 0,274.41753 -549.609,0 0,137.622 549.609,0 0,137.57 -549.609,0 0,137.621 549.609,0 0,480.779 618.391,0 0,1510.39 c 0,76.02 -62.38,137.62 -137.57,137.62 z m -68.83,-549.61 -961.6,0 0,137.62 961.6,0 0,-137.62 z" /><path
         id="path16"
         style="fill:#2a3282;fill-opacity:1;fill-rule:nonzero;stroke:none"
         d="m 851.211,1074.79 0,-1063.9892 1579.179,0 0,1063.9892 -1579.179,0 z M 2355.2,93.1914 l -1441.61,0 0,755.1876 1442.43,0 0,-755.1876 -0.82,0 z" /><path
         id="path18"
         style="fill:#2a3282;fill-opacity:1;fill-rule:nonzero;stroke:none"
         d="m 1050.39,229.98 480.82,0 0,480.82 -480.82,0 0,-480.82 z" /><path
         id="path20"
         style="fill:#2a3282;fill-opacity:1;fill-rule:nonzero;stroke:none"
         d="m 1703.2,229.98 514.41,0 0,68.8281 -514.41,0 0,-68.8281 z" /><path
         id="path22"
         style="fill:#2a3282;fill-opacity:1;fill-rule:nonzero;stroke:none"
         d="m 1703.2,367.602 514.41,0 0,68.7891 -514.41,0 0,-68.7891 z" /><path
         id="path24"
         style="fill:#2a3282;fill-opacity:1;fill-rule:nonzero;stroke:none"
         d="m 1703.2,505.219 514.41,0 0,68.793 -514.41,0 0,-68.793 z" /><path
         id="path26"
         style="fill:#2a3282;fill-opacity:1;fill-rule:nonzero;stroke:none"
         d="m 1703.2,642.012 514.41,0 0,68.7891 -514.41,0 0,-68.7891 z" /></g></g></svg>