<?xml version="1.0" encoding="UTF-8" standalone="no"?>
<svg
   xmlns:dc="http://purl.org/dc/elements/1.1/"
   xmlns:cc="http://creativecommons.org/ns#"
   xmlns:rdf="http://www.w3.org/1999/02/22-rdf-syntax-ns#"
   xmlns:svg="http://www.w3.org/2000/svg"
   xmlns="http://www.w3.org/2000/svg"
   viewBox="0 0 532.5 440"
   height="440"
   width="532.5"
   xml:space="preserve"
   version="1.1"
   id="svg2"><metadata
     id="metadata8"><rdf:RDF><cc:Work
         rdf:about=""><dc:format>image/svg+xml</dc:format><dc:type
           rdf:resource="http://purl.org/dc/dcmitype/StillImage" /></cc:Work></rdf:RDF></metadata><defs
     id="defs6" /><g
     transform="matrix(1.25,0,0,-1.25,0,440)"
     id="g10"><g
       transform="scale(0.1,0.1)"
       id="g12"><path
         id="path14"
         style="fill:#2a3282;fill-opacity:1;fill-rule:nonzero;stroke:none"
         d="m 2262.38,973.18 412.03,-412.77 0,343.981 L 2124.8,1454 1574.41,904.391 l 0,-343.981 412.78,412.77 0,-963.1605 275.19,0 0,963.1605 z" /><path
         id="path16"
         style="fill:#2a3282;fill-opacity:1;fill-rule:nonzero;stroke:none"
         d="m 3899.22,2238.81 c 7.19,41.6 13.59,82.38 13.59,130.39 0,433.59 -330.43,776.8 -736.01,776.8 -123.99,0 -248.01,-34.42 -357.58,-103.21 -124.02,281.6 -392.03,468.01 -680.82,468.01 -419.18,0 -763.2,-364.8 -763.2,-811.21 l 0,-27.19 c -55.2,20.78 -110.4,27.19 -164.81,27.19 -199.18,0 -384.8,-110.39 -488.011,-288.79 -27.18,7.19 -47.969,7.19 -75.969,7.19 C 288.789,2417.99 0,2108.42 0,1730.02 0,1351.58 288.789,1042.01 646.41,1042.01 l 860,0 611.99,611.99 611.99,-611.99 989.61,0 89.61,20.78 c 261.6,68.79 447.19,316.02 447.19,605.63 0,253.59 -144.81,473.59 -357.58,570.39 z" /></g></g></svg>