<?xml version="1.0" encoding="UTF-8" standalone="no"?>
<svg
   xmlns:dc="http://purl.org/dc/elements/1.1/"
   xmlns:cc="http://creativecommons.org/ns#"
   xmlns:rdf="http://www.w3.org/1999/02/22-rdf-syntax-ns#"
   xmlns:svg="http://www.w3.org/2000/svg"
   xmlns="http://www.w3.org/2000/svg"
   viewBox="0 0 403.75 413.75"
   height="413.75"
   width="403.75"
   xml:space="preserve"
   version="1.1"
   id="svg2"><metadata
     id="metadata8"><rdf:RDF><cc:Work
         rdf:about=""><dc:format>image/svg+xml</dc:format><dc:type
           rdf:resource="http://purl.org/dc/dcmitype/StillImage" /></cc:Work></rdf:RDF></metadata><defs
     id="defs6" /><g
     transform="matrix(1.25,0,0,-1.25,0,413.75)"
     id="g10"><g
       transform="scale(0.1,0.1)"
       id="g12"><path
         id="path14"
         style="fill:#2a3282;fill-opacity:1;fill-rule:nonzero;stroke:none"
         d="M 212.809,896.41 C 103.199,896.41 0,793.211 0,690 l 0,-680 3227.19,0 0,680 c 0,103.211 -109.57,206.41 -212.78,206.41 l -2801.601,0 z M 2952.81,518.789 c -61.6,0 -109.61,48.012 -109.61,103.211 0,55.191 48.01,103.199 109.61,103.199 61.6,0 109.57,-48.008 109.57,-103.199 0,-55.199 -47.97,-103.211 -109.57,-103.211 z" /><path
         id="path16"
         style="fill:#2a3282;fill-opacity:1;fill-rule:nonzero;stroke:none"
         d="m 1442.38,2146.02 -480.778,480.78 0,-398.4 651.988,-645.58 652.82,645.58 0,398.4 -480.82,-480.78 0,1160.78 -343.21,0 0,-1160.78 z" /><path
         id="path18"
         style="fill:#2a3282;fill-opacity:1;fill-rule:nonzero;stroke:none"
         d="m 2609.61,1658.79 -720.82,0 -179.18,-171.99 -96.02,-96.02 -95.97,96.02 -178.4,171.99 -720.822,0 -453.597,-618.4 2904.809,0 -460,618.4 z" /></g></g></svg>