<?xml version="1.0" encoding="UTF-8" standalone="no"?>
<svg
   xmlns:dc="http://purl.org/dc/elements/1.1/"
   xmlns:cc="http://creativecommons.org/ns#"
   xmlns:rdf="http://www.w3.org/1999/02/22-rdf-syntax-ns#"
   xmlns:svg="http://www.w3.org/2000/svg"
   xmlns="http://www.w3.org/2000/svg"
   viewBox="0 0 412.5 336.25"
   height="336.25"
   width="412.5"
   xml:space="preserve"
   version="1.1"
   id="svg2"><metadata
     id="metadata8"><rdf:RDF><cc:Work
         rdf:about=""><dc:format>image/svg+xml</dc:format><dc:type
           rdf:resource="http://purl.org/dc/dcmitype/StillImage" /></cc:Work></rdf:RDF></metadata><defs
     id="defs6" /><g
     transform="matrix(1.25,0,0,-1.25,0,336.25)"
     id="g10"><g
       transform="scale(0.1,0.1)"
       id="g12"><path
         id="path14"
         style="fill:#2a3282;fill-opacity:1;fill-rule:nonzero;stroke:none"
         d="M 0,2688.4 0,10 l 3296.02,0 0,2678.4 -3296.02,0 z m 3158.4,-2540.779 -3020.779,0 0,2059.999 3021.599,0 0,-2059.999 -0.82,0 z" /><path
         id="path16"
         style="fill:#2a3282;fill-opacity:1;fill-rule:nonzero;stroke:none"
         d="m 274.41,285.199 343.199,0 0,343.199 -343.199,0 0,-343.199 z" /><path
         id="path18"
         style="fill:#2a3282;fill-opacity:1;fill-rule:nonzero;stroke:none"
         d="m 274.41,766.02 343.199,0 0,343.16 -343.199,0 0,-343.16 z" /><path
         id="path20"
         style="fill:#2a3282;fill-opacity:1;fill-rule:nonzero;stroke:none"
         d="m 274.41,1246.02 343.199,0 0,343.16 -343.199,0 0,-343.16 z" /><path
         id="path22"
         style="fill:#2a3282;fill-opacity:1;fill-rule:nonzero;stroke:none"
         d="m 755.199,285.199 343.199,0 0,343.199 -343.199,0 0,-343.199 z" /><path
         id="path24"
         style="fill:#2a3282;fill-opacity:1;fill-rule:nonzero;stroke:none"
         d="m 755.199,766.02 343.199,0 0,343.16 -343.199,0 0,-343.16 z" /><path
         id="path26"
         style="fill:#2a3282;fill-opacity:1;fill-rule:nonzero;stroke:none"
         d="m 755.199,1246.02 343.199,0 0,343.16 -343.199,0 0,-343.16 z" /><path
         id="path28"
         style="fill:#2a3282;fill-opacity:1;fill-rule:nonzero;stroke:none"
         d="m 755.199,1726.8 343.199,0 0,343.199 -343.199,0 0,-343.199 z" /><path
         id="path30"
         style="fill:#2a3282;fill-opacity:1;fill-rule:nonzero;stroke:none"
         d="m 1236.02,285.199 343.199,0 0,343.199 -343.199,0 0,-343.199 z" /><path
         id="path32"
         style="fill:#2a3282;fill-opacity:1;fill-rule:nonzero;stroke:none"
         d="m 1236.02,766.02 343.199,0 0,343.16 -343.199,0 0,-343.16 z" /><path
         id="path34"
         style="fill:#2a3282;fill-opacity:1;fill-rule:nonzero;stroke:none"
         d="m 1236.02,1246.02 343.199,0 0,343.16 -343.199,0 0,-343.16 z" /><path
         id="path36"
         style="fill:#2a3282;fill-opacity:1;fill-rule:nonzero;stroke:none"
         d="m 1236.02,1726.8 343.199,0 0,343.199 -343.199,0 0,-343.199 z" /><path
         id="path38"
         style="fill:#2a3282;fill-opacity:1;fill-rule:nonzero;stroke:none"
         d="m 1716.8,285.199 343.199,0 0,343.199 -343.199,0 0,-343.199 z" /><path
         id="path40"
         style="fill:#2a3282;fill-opacity:1;fill-rule:nonzero;stroke:none"
         d="m 1716.8,766.02 343.199,0 0,343.16 -343.199,0 0,-343.16 z" /><path
         id="path42"
         style="fill:#2a3282;fill-opacity:1;fill-rule:nonzero;stroke:none"
         d="m 1716.8,1246.02 343.199,0 0,343.16 -343.199,0 0,-343.16 z" /><path
         id="path44"
         style="fill:#2a3282;fill-opacity:1;fill-rule:nonzero;stroke:none"
         d="m 1716.8,1726.8 343.199,0 0,343.199 -343.199,0 0,-343.199 z" /><path
         id="path46"
         style="fill:#2a3282;fill-opacity:1;fill-rule:nonzero;stroke:none"
         d="m 2197.62,285.199 343.16,0 0,343.199 -343.16,0 0,-343.199 z" /><path
         id="path48"
         style="fill:#2a3282;fill-opacity:1;fill-rule:nonzero;stroke:none"
         d="m 2197.62,766.02 343.16,0 0,343.16 -343.16,0 0,-343.16 z" /><path
         id="path50"
         style="fill:#2a3282;fill-opacity:1;fill-rule:nonzero;stroke:none"
         d="m 2197.62,1246.02 343.16,0 0,343.16 -343.16,0 0,-343.16 z" /><path
         id="path52"
         style="fill:#2a3282;fill-opacity:1;fill-rule:nonzero;stroke:none"
         d="m 2197.62,1726.8 343.16,0 0,343.199 -343.16,0 0,-343.199 z" /><path
         id="path54"
         style="fill:#2a3282;fill-opacity:1;fill-rule:nonzero;stroke:none"
         d="m 2677.62,766.02 343.16,0 0,343.16 -343.16,0 0,-343.16 z" /><path
         id="path56"
         style="fill:#2a3282;fill-opacity:1;fill-rule:nonzero;stroke:none"
         d="m 2677.62,1246.02 343.16,0 0,343.16 -343.16,0 0,-343.16 z" /><path
         id="path58"
         style="fill:#2a3282;fill-opacity:1;fill-rule:nonzero;stroke:none"
         d="m 2677.62,1726.8 343.16,0 0,343.199 -343.16,0 0,-343.199 z" /></g></g></svg>