<?xml version="1.0" encoding="UTF-8" standalone="no"?>
<svg
   xmlns:dc="http://purl.org/dc/elements/1.1/"
   xmlns:cc="http://creativecommons.org/ns#"
   xmlns:rdf="http://www.w3.org/1999/02/22-rdf-syntax-ns#"
   xmlns:svg="http://www.w3.org/2000/svg"
   xmlns="http://www.w3.org/2000/svg"
   viewBox="0 0 438.75 373.75"
   height="373.75"
   width="438.75"
   xml:space="preserve"
   version="1.1"
   id="svg2"><metadata
     id="metadata8"><rdf:RDF><cc:Work
         rdf:about=""><dc:format>image/svg+xml</dc:format><dc:type
           rdf:resource="http://purl.org/dc/dcmitype/StillImage" /></cc:Work></rdf:RDF></metadata><defs
     id="defs6" /><g
     transform="matrix(1.25,0,0,-1.25,0,373.75)"
     id="g10"><g
       transform="scale(0.1,0.1)"
       id="g12"><path
         id="path14"
         style="fill:#2a3282;fill-opacity:1;fill-rule:nonzero;stroke:none"
         d="m 1460,1132.63 -1186.41,0 c -61.602,0 -109.61,48.01 -109.61,109.61 l 0,1227.19 342.43,0 0,336.01 2200.78,0 c 61.6,0 109.61,-48.01 109.61,-109.61 l 0,-13.59 c 55.19,-13.6 116.79,-40.78 171.21,-61.6 l 0,82.42 c 0,151.17 -123.21,280.78 -280.82,280.78 l -2295.979,0 L 0,2565.44 0,1242.24 C 0,1091.03 123.199,961.461 280.781,961.461 l 1288.829,0 C 1521.6,1015.83 1487.19,1070.25 1460,1132.63 Z" /><path
         id="path16"
         style="fill:#2a3282;fill-opacity:1;fill-rule:nonzero;stroke:none"
         d="M 2946.17,832.391 3357.38,215.602 2973.4,318.801 2863.79,10.0117 2452.58,558.801 2143.79,10.0117 1999.8,338.801 1615.78,235.602 l 376.8,651.207 c 0,0 103.2,-178.399 472.81,-178.399 377.58,0.781 480.78,123.981 480.78,123.981 z" /><path
         id="path18"
         style="fill:#2a3282;fill-opacity:1;fill-rule:nonzero;stroke:none"
         d="m 2497.07,946.34 c -363.2,0 -658.4,294.41 -658.4,651.21 0,356.8 294.42,651.21 658.4,651.21 363.98,0 658.4,-294.41 658.4,-651.21 -6.41,-356.8 -294.42,-651.21 -658.4,-651.21 z m 0,1158.4 c -280.82,0 -514.41,-226.37 -514.41,-507.19 0,-280.78 232.81,-507.19 514.41,-507.19 281.6,0 514.41,226.41 514.41,507.19 0,280.82 -232.81,507.19 -514.41,507.19 z" /><path
         id="path20"
         style="fill:#2a3282;fill-opacity:1;fill-rule:nonzero;stroke:none"
         d="m 2494.3,600.32 c -555.2,0 -1008.01,445.59 -1008.01,994.38 0,548.83 452.81,994.41 1008.01,994.41 555.19,0 1008,-445.58 1008,-994.41 0,-541.6 -452.81,-994.38 -1008,-994.38 z m 0,1843.99 c -472.82,0 -864.03,-383.99 -864.03,-850.39 0,-466.41 384.03,-850.389 864.03,-850.389 480,0 863.98,383.979 863.98,850.389 0,473.59 -383.98,850.39 -863.98,850.39 z" /></g></g></svg>