<?xml version="1.0" encoding="UTF-8" standalone="no"?>
<svg
   xmlns:dc="http://purl.org/dc/elements/1.1/"
   xmlns:cc="http://creativecommons.org/ns#"
   xmlns:rdf="http://www.w3.org/1999/02/22-rdf-syntax-ns#"
   xmlns:svg="http://www.w3.org/2000/svg"
   xmlns="http://www.w3.org/2000/svg"
   viewBox="0 0 541.25 327.5"
   height="327.5"
   width="541.25"
   xml:space="preserve"
   version="1.1"
   id="svg2"><metadata
     id="metadata8"><rdf:RDF><cc:Work
         rdf:about=""><dc:format>image/svg+xml</dc:format><dc:type
           rdf:resource="http://purl.org/dc/dcmitype/StillImage" /></cc:Work></rdf:RDF></metadata><defs
     id="defs6" /><g
     transform="matrix(1.25,0,0,-1.25,0,327.5)"
     id="g10"><g
       transform="scale(0.1,0.1)"
       id="g12"><path
         id="path14"
         style="fill:#00188f;fill-opacity:1;fill-rule:nonzero;stroke:none"
         d="m 3961.6,1273.18 c 220,-103.16 363.99,-336.801 363.99,-603.981 0,-308.789 -192,-569.6092 -453.6,-638.3982 l -89.61,-20.7813 -3123.161,0 C 295.199,10.0195 0,339.59 0,737.988 c 0,398.392 295.199,728.002 659.219,728.002 27.191,0 47.972,0 75.191,-7.18 109.57,191.99 295.2,302.38 501.61,302.38 55.19,0 109.57,-7.19 164.76,-27.19 l 0,27.19 c 0,473.59 343.2,851.21 768.83,851.21 295.19,0 569.61,-199.22 693.59,-494.41 109.61,68.82 233.6,109.61 363.99,109.61 412.03,0 741.6,-371.22 741.6,-823.99 6.41,-41.6 0,-82.42 -7.19,-130.43 z" /></g></g></svg>