<?xml version="1.0" encoding="UTF-8" standalone="no"?>
<svg
   xmlns:dc="http://purl.org/dc/elements/1.1/"
   xmlns:cc="http://creativecommons.org/ns#"
   xmlns:rdf="http://www.w3.org/1999/02/22-rdf-syntax-ns#"
   xmlns:svg="http://www.w3.org/2000/svg"
   xmlns="http://www.w3.org/2000/svg"
   viewBox="0 0 361.25 448.75"
   height="448.75"
   width="361.25"
   xml:space="preserve"
   version="1.1"
   id="svg2"><metadata
     id="metadata8"><rdf:RDF><cc:Work
         rdf:about=""><dc:format>image/svg+xml</dc:format><dc:type
           rdf:resource="http://purl.org/dc/dcmitype/StillImage" /></cc:Work></rdf:RDF></metadata><defs
     id="defs6" /><g
     transform="matrix(1.25,0,0,-1.25,0,448.75)"
     id="g10"><g
       transform="scale(0.1,0.1)"
       id="g12"><path
         id="path14"
         style="fill:#2a3282;fill-opacity:1;fill-rule:nonzero;stroke:none"
         d="m 1991.21,2826 -1098.401,0 c -75.188,0 -137.61,-61.6 -137.61,-137.61 l 0,-2678.40172 1373.591,0 0,2678.40172 c 0,76.01 -61.6,137.61 -137.58,137.61 z m -68.83,-2540.82 -960.778,0 0,137.621 961.598,0 0,-137.621 -0.82,0 z m 0,275.242 -960.778,0 0,137.578 961.598,0 0,-137.578 -0.82,0 z m 0,1715.978 -960.778,0 0,137.61 961.598,0 0,-137.61 -0.82,0 z" /><path
         id="path16"
         style="fill:#2a3282;fill-opacity:1;fill-rule:nonzero;stroke:none"
         d="m 2746.41,3581.2 -1098.4,0 c -75.2,0 -137.62,-61.6 -137.62,-137.62 l 0,-480.78 480.82,0 c 151.17,0 274.38,-123.98 274.38,-274.41 l 0,-1235.98 412.03,0 0,-137.62 -412.03,0 0,-137.57 412.03,0 0,-137.62 -412.03,0 0,-274.42 618.39,0 0,2679.22 c 0,75.2 -61.6,136.8 -137.57,136.8 z m -68.79,-548.79 -960.82,0 0,137.58 961.6,0 0,-137.58 -0.78,0 z" /><path
         id="path18"
         style="fill:#2a3282;fill-opacity:1;fill-rule:nonzero;stroke:none"
         d="m 617.621,1040.42 -412.031,0 0,137.58 412.031,0 0,137.61 -412.031,0 0,137.58 412.031,0 0,1235.2 c 0,151.21 123.981,274.41 274.367,274.41 l 480.822,0 0,480.78 c 0,75.24 -61.6,137.62 -137.61,137.62 l -1097.579,0 C 62.3789,3581.2 0,3519.6 0,3443.58 l 0,-2678.4 618.398,0 0,275.24 -0.777,0 z m -412.031,2128.79 961.6,0 0,-137.62 -961.6,0 0,137.62 z" /></g></g></svg>