<?xml version="1.0" encoding="UTF-8" standalone="no"?>
<svg
   xmlns:dc="http://purl.org/dc/elements/1.1/"
   xmlns:cc="http://creativecommons.org/ns#"
   xmlns:rdf="http://www.w3.org/1999/02/22-rdf-syntax-ns#"
   xmlns:svg="http://www.w3.org/2000/svg"
   xmlns="http://www.w3.org/2000/svg"
   viewBox="0 0 258.75 270"
   height="270"
   width="258.75"
   xml:space="preserve"
   version="1.1"
   id="svg2"><metadata
     id="metadata8"><rdf:RDF><cc:Work
         rdf:about=""><dc:format>image/svg+xml</dc:format><dc:type
           rdf:resource="http://purl.org/dc/dcmitype/StillImage" /></cc:Work></rdf:RDF></metadata><defs
     id="defs6" /><g
     transform="matrix(1.25,0,0,-1.25,0,270)"
     id="g10"><g
       transform="scale(0.1,0.1)"
       id="g12"><path
         id="path14"
         style="fill:#2a3282;fill-opacity:1;fill-rule:nonzero;stroke:none"
         d="m 1635.2,2151.6 -1348.009,0 C 129.609,2151.6 0,2021.21 0,1864.41 L 0,297.191 C 0,139.609 130.391,10 287.191,10 l 1492.029,0 c 157.58,0 287.19,130.391 287.19,287.191 l 0,1430.429 -431.21,423.98 z M 1888.79,297.191 c 0,-61.613 -48.01,-109.57 -109.57,-109.57 l -1492.029,0 c -61.601,0 -109.57,47.957 -109.57,109.57 l 0,1567.219 c 0,61.6 47.969,109.57 109.57,109.57 l 1259.219,0 0,-342.38 342.38,0 0,-1334.409 z" /><path
         id="path16"
         style="fill:#2a3282;fill-opacity:1;fill-rule:nonzero;stroke:none"
         d="m 459.219,1215.58 c -10.43,4.03 -20,6.41 -29.61,6.41 -25.629,0 -38.398,-13.59 -38.398,-41.6 l 0,-27.19 58.398,0 0,-58.4 -58.398,0 0,-197.609 -78.402,0 0,197.609 -43.2,0 0,58.4 43.2,0 0,31.99 c 0,28.79 9.57,52.82 28.793,70.39 19.179,17.62 44.808,26.41 77.617,26.41 15.98,0 29.57,-1.6 40,-4.8 l 0,-61.61 z" /><path
         id="path18"
         style="fill:#2a3282;fill-opacity:1;fill-rule:nonzero;stroke:none"
         d="m 731.988,897.191 -78.398,0 0,39.207 -1.602,0 C 632.809,906.012 606.41,890.82 573.59,890.82 c -59.18,0 -88.789,35.981 -88.789,107.969 l 0,154.411 78.398,0 0,-147.19 c 0,-36.01 14.422,-54.408 43.211,-54.408 14.371,0 25.578,4.796 34.371,15.199 8.828,9.597 12.809,23.199 12.809,39.999 l 0,146.4 78.398,0 0,-256.009 z" /><path
         id="path20"
         style="fill:#2a3282;fill-opacity:1;fill-rule:nonzero;stroke:none"
         d="m 1045.59,897.191 -78.399,0 0,142.419 c 0,40 -14.382,59.18 -42.39,59.18 -13.59,0 -24.801,-5.59 -33.59,-15.98 -8.832,-10.43 -13.59,-24.02 -13.59,-40 l 0,-146.412 -79.223,0 0,255.982 79.223,0 0,-40.78 0.777,0 c 19.223,31.21 46.403,46.41 82.383,46.41 56.839,0 84.809,-35.2 84.809,-105.63 l 0,-155.189 z" /><path
         id="path22"
         style="fill:#2a3282;fill-opacity:1;fill-rule:nonzero;stroke:none"
         d="m 1302.38,906.801 c -17.58,-10.403 -43.16,-15.199 -77.58,-15.199 -39.21,0 -71.21,11.988 -95.19,36.019 -24.02,23.981 -36.8,54.367 -36.8,91.989 0,43.2 12.78,77.58 39.18,103.2 26.41,24.81 60.82,37.58 104.81,37.58 30.39,0 51.99,-3.99 65.58,-11.99 l 0,-67.19 c -16.79,11.99 -35.19,18.4 -55.19,18.4 -22.39,0 -40.78,-6.41 -53.6,-20 -12.81,-13.6 -20,-31.21 -20,-55.2 0,-22.42 6.41,-40.82 19.22,-53.59 12.78,-12.808 30.39,-19.218 51.99,-19.218 20,0 39.18,6.41 57.58,18.398 l 0,-63.199 z" /><path
         id="path24"
         style="fill:#2a3282;fill-opacity:1;fill-rule:nonzero;stroke:none"
         d="m 1505.59,815.578 -64.81,0 c -53.59,59.223 -80.78,132.043 -80.78,218.402 0,83.21 27.19,157.62 80.78,221.6 l 64.02,0 c -50.39,-67.18 -76.01,-140.78 -76.01,-221.6 0,-80.781 25.62,-152.769 76.8,-218.402 z" /><path
         id="path26"
         style="fill:#2a3282;fill-opacity:1;fill-rule:nonzero;stroke:none"
         d="m 1719.22,815.578 -64.02,0 c 51.21,64.813 76.79,137.621 76.79,218.402 0,80 -25.58,153.64 -76.79,221.6 l 64.8,0 c 54.41,-63.98 80.78,-137.57 80.78,-221.6 0,-84.761 -27.19,-158.402 -81.56,-218.402 z" /></g></g></svg>