<?xml version="1.0" encoding="UTF-8" standalone="no"?>
<svg
   xmlns:dc="http://purl.org/dc/elements/1.1/"
   xmlns:cc="http://creativecommons.org/ns#"
   xmlns:rdf="http://www.w3.org/1999/02/22-rdf-syntax-ns#"
   xmlns:svg="http://www.w3.org/2000/svg"
   xmlns="http://www.w3.org/2000/svg"
   viewBox="0 0 432.5 276.25"
   height="276.25"
   width="432.5"
   xml:space="preserve"
   version="1.1"
   id="svg2"><metadata
     id="metadata8"><rdf:RDF><cc:Work
         rdf:about=""><dc:format>image/svg+xml</dc:format><dc:type
           rdf:resource="http://purl.org/dc/dcmitype/StillImage" /></cc:Work></rdf:RDF></metadata><defs
     id="defs6" /><g
     transform="matrix(1.25,0,0,-1.25,0,276.25)"
     id="g10"><g
       transform="scale(0.1,0.1)"
       id="g12"><path
         id="path14"
         style="fill:#2a3282;fill-opacity:1;fill-rule:nonzero;stroke:none"
         d="m 1778.4,326.02 c -432.81,0 -783.201,350.39 -783.201,783.16 0,432.81 350.391,783.2 783.201,783.2 191.99,0 363.98,-68.78 501.6,-178.39 l 220,220 c -191.99,172.03 -446.41,274.41 -720.78,274.41 -536.02,0 -981.599,-384.8 -1078.439,-892.81 l -467.191,0 C 76.0195,1315.59 0,1219.61 0,1109.18 0,998.789 109.609,902.809 233.59,902.809 l 467.191,0 C 796.801,394.809 1243.2,10 1779.22,10 c 288.79,0 549.57,109.609 741.56,295.199 l -220,220 C 2162.38,401.988 1977.62,326.02 1778.4,326.02 Z" /><path
         id="path16"
         style="fill:#2a3282;fill-opacity:1;fill-rule:nonzero;stroke:none"
         d="m 3453.59,1095.59 -714.37,473.59 0,-254.37 -686.41,0 c -13.59,13.59 -27.22,34.37 -41.6,48 -144.02,151.18 -384.8,151.18 -528.83,0 -143.98,-144.02 -143.98,-384.798 0,-528.822 144.03,-143.988 384.81,-143.988 528.83,0 20.78,20.821 41.6,41.602 55.2,68.821 l 672.81,0 0,-281.598 714.37,474.379 z" /></g></g></svg>