<?xml version="1.0" encoding="UTF-8" standalone="no"?>
<svg
   xmlns:dc="http://purl.org/dc/elements/1.1/"
   xmlns:cc="http://creativecommons.org/ns#"
   xmlns:rdf="http://www.w3.org/1999/02/22-rdf-syntax-ns#"
   xmlns:svg="http://www.w3.org/2000/svg"
   xmlns="http://www.w3.org/2000/svg"
   viewBox="0 0 255 335"
   height="335"
   width="255"
   xml:space="preserve"
   version="1.1"
   id="svg2"><metadata
     id="metadata8"><rdf:RDF><cc:Work
         rdf:about=""><dc:format>image/svg+xml</dc:format><dc:type
           rdf:resource="http://purl.org/dc/dcmitype/StillImage" /></cc:Work></rdf:RDF></metadata><defs
     id="defs6" /><g
     transform="matrix(1.25,0,0,-1.25,0,335)"
     id="g10"><g
       transform="scale(0.1,0.1)"
       id="g12"><path
         id="path14"
         style="fill:#2a3282;fill-opacity:1;fill-rule:nonzero;stroke:none"
         d="m 1014.41,2092.4 c -397.609,0 -726.398,96.01 -726.398,219.22 0,123.16 321.597,219.18 726.398,219.18 397.58,0 719.18,-96.02 719.18,-219.18 0,-123.21 -315.19,-219.22 -719.18,-219.22 z M 0.78125,832.398 l 0,-397.617 C 0.78125,250.02 370.391,44.3906 856.801,10.0195 l 321.599,0 C 1664.8,44.3906 2034.41,208.41 2034.41,400.41 l 0,1869.61 C 2034.41,2475.6 1575.2,2674 1013.59,2674 451.988,2674 0,2489.2 0,2276.38 L 0,1441.19 0.78125,832.398 Z" /></g></g></svg>