<?xml version="1.0" encoding="UTF-8" standalone="no"?>
<svg
   xmlns:dc="http://purl.org/dc/elements/1.1/"
   xmlns:cc="http://creativecommons.org/ns#"
   xmlns:rdf="http://www.w3.org/1999/02/22-rdf-syntax-ns#"
   xmlns:svg="http://www.w3.org/2000/svg"
   xmlns="http://www.w3.org/2000/svg"
   viewBox="0 0 275 353.75"
   height="353.75"
   width="275"
   xml:space="preserve"
   version="1.1"
   id="svg2"><metadata
     id="metadata8"><rdf:RDF><cc:Work
         rdf:about=""><dc:format>image/svg+xml</dc:format><dc:type
           rdf:resource="http://purl.org/dc/dcmitype/StillImage" /></cc:Work></rdf:RDF></metadata><defs
     id="defs6" /><g
     transform="matrix(1.25,0,0,-1.25,0,353.75)"
     id="g10"><g
       transform="scale(0.1,0.1)"
       id="g12"><path
         id="path14"
         style="fill:#2a3282;fill-opacity:1;fill-rule:nonzero;stroke:none"
         d="m 845.59,285.219 -645.59,0 0,137.582 590.391,0 c -13.59,41.597 -27.192,89.609 -27.192,137.609 l -556.008,0 0,137.578 549.61,0 c 13.59,364.032 274.409,659.222 618.399,741.602 l 0,1248.79 c 0,75.24 -61.61,137.62 -137.58,137.62 l -1099.999,0 C 62.3789,2826 0,2764.4 0,2688.38 L 0,9.98047 l 1105.59,0 C 989.609,79.5898 907.191,175.609 845.59,285.219 Z M 200,2414.01 l 960.78,0 0,-137.62 -960.78,0 0,137.62 z" /><path
         id="path16"
         style="fill:#2a3282;fill-opacity:1;fill-rule:nonzero;stroke:none"
         d="m 1531.99,271.59 c -130.39,0 -233.59,55.191 -302.38,151.211 l 0,-192 -109.61,109.609 0,288.789 288.79,0 109.61,-109.609 -212.81,0 c 48,-75.192 130.43,-109.61 233.63,-109.61 130.39,0 240,96.02 267.97,220 l 137.61,0 C 1909.61,422.801 1737.62,271.59 1531.99,271.59 Z m 404.81,446.398 -274.42,0 -116.79,109.614 206.4,0 c -48.01,75.199 -130.39,103.199 -226.4,103.199 -130.39,0 -240,-96.012 -267.97,-212.813 l -137.62,0 c 27.19,199.223 199.22,350.392 404.8,350.392 130.4,0 226.41,-47.97 302.39,-143.982 l 0,185.582 109.61,-116.789 0,-275.203 z m -397.58,597.622 c -356.84,0 -652.029,-295.2 -652.029,-651.989 0,-356.84 295.189,-652.0312 652.029,-652.0312 356.8,0 651.99,295.1912 651.99,652.0312 0,356.789 -295.19,651.989 -651.99,651.989 z" /></g></g></svg>