<?xml version="1.0" encoding="UTF-8" standalone="no"?>
<svg
   xmlns:dc="http://purl.org/dc/elements/1.1/"
   xmlns:cc="http://creativecommons.org/ns#"
   xmlns:rdf="http://www.w3.org/1999/02/22-rdf-syntax-ns#"
   xmlns:svg="http://www.w3.org/2000/svg"
   xmlns="http://www.w3.org/2000/svg"
   viewBox="0 0 266.25 353.75"
   height="353.75"
   width="266.25"
   xml:space="preserve"
   version="1.1"
   id="svg2"><metadata
     id="metadata8"><rdf:RDF><cc:Work
         rdf:about=""><dc:format>image/svg+xml</dc:format><dc:type
           rdf:resource="http://purl.org/dc/dcmitype/StillImage" /></cc:Work></rdf:RDF></metadata><defs
     id="defs6" /><g
     transform="matrix(1.25,0,0,-1.25,0,353.75)"
     id="g10"><g
       transform="scale(0.1,0.1)"
       id="g12"><path
         id="path14"
         style="fill:#2a3282;fill-opacity:1;fill-rule:nonzero;stroke:none"
         d="m 1576.02,1229.2 c -212.04,0 -431.22,40.79 -548.01,130.4 l 0,-1103.209 c 0,-136.789 246.4,-246.40272 548.01,-246.40272 301.6,0 547.96,109.61372 547.96,246.40272 l 0,1102.419 c -116.79,-81.6 -335.97,-129.61 -547.96,-129.61 z" /><path
         id="path16"
         style="fill:#2a3282;fill-opacity:1;fill-rule:nonzero;stroke:none"
         d="m 2123.98,1509.99 c 0,109.61 -246.36,198.39 -547.96,198.39 -301.61,0 -548.01,-88.78 -548.01,-198.39 0,-109.57 246.4,-198.4 548.01,-198.4 301.6,0 547.96,88.83 547.96,198.4 z" /><path
         id="path18"
         style="fill:#2a3282;fill-opacity:1;fill-rule:nonzero;stroke:none"
         d="m 890.391,694.789 0,815.201 c 0,184.8 219.219,288 479.219,321.6 l 0,856.01 c 0,75.2 -61.6,136.8 -136.8,136.8 l -1096.009,0 C 61.6016,2824.4 0,2762.8 0,2687.6 L 0,16.3906 l 1041.6,0 C 945.59,85.1797 891.211,166.781 891.211,262.801 l 0,27.187 -684.801,0 0,136.793 684.801,0 0,136.84 -684.801,0 0,136.801 684.801,0 0,-5.633 -0.82,0 z M 205.59,2406.78 l 959.21,0 0,-136.79 -959.21,0 0,136.79 z" /></g></g></svg>