<?xml version="1.0" encoding="UTF-8" standalone="no"?>
<svg
   xmlns:dc="http://purl.org/dc/elements/1.1/"
   xmlns:cc="http://creativecommons.org/ns#"
   xmlns:rdf="http://www.w3.org/1999/02/22-rdf-syntax-ns#"
   xmlns:svg="http://www.w3.org/2000/svg"
   xmlns="http://www.w3.org/2000/svg"
   viewBox="0 0 335 172.5"
   height="172.5"
   width="335"
   xml:space="preserve"
   version="1.1"
   id="svg2"><metadata
     id="metadata8"><rdf:RDF><cc:Work
         rdf:about=""><dc:format>image/svg+xml</dc:format><dc:type
           rdf:resource="http://purl.org/dc/dcmitype/StillImage" /></cc:Work></rdf:RDF></metadata><defs
     id="defs6" /><g
     transform="matrix(1.25,0,0,-1.25,0,172.5)"
     id="g10"><g
       transform="scale(0.1,0.1)"
       id="g12"><path
         id="path14"
         style="fill:#2a3282;fill-opacity:1;fill-rule:nonzero;stroke:none"
         d="m 2547.19,689.191 -2416.799,0 C 61.6016,689.191 0,647.59 0,593.219 L 0,105.988 C 0,50.8008 55.1992,10.0117 130.391,10.0117 l 2416.799,0 c 68.83,0 130.43,41.6094 130.43,95.9763 l 0,487.231 c 0,54.371 -54.42,95.972 -130.43,95.972 z M 411.988,208.41 c -75.187,0 -137.578,61.602 -137.578,137.578 0,76.024 61.61,137.621 137.578,137.621 76.024,0 137.621,-61.597 137.621,-137.621 0,-75.976 -62.418,-137.578 -137.621,-137.578 z m 617.622,0 c -75.2,0 -137.622,61.602 -137.622,137.578 0,76.024 61.602,137.621 137.622,137.621 75.19,0 137.58,-61.597 137.58,-137.621 0,-75.976 -61.6,-137.578 -137.58,-137.578 z m 618.4,0 c -75.2,0 -137.62,61.602 -137.62,137.578 0,76.024 61.6,137.621 137.62,137.621 75.97,0 137.58,-61.597 137.58,-137.621 0,-75.976 -62.39,-137.578 -137.58,-137.578 z m 617.58,0 c -75.2,0 -137.58,61.602 -137.58,137.578 0,76.024 61.6,137.621 137.58,137.621 75.19,0 137.61,-61.597 137.61,-137.621 0,-75.976 -61.6,-137.578 -137.61,-137.578 z" /><path
         id="path16"
         style="fill:#2a3282;fill-opacity:1;fill-rule:nonzero;stroke:none"
         d="m 2183.2,1375.6 -1688.79,0 L 0,894.82 l 2677.62,0 -494.42,480.78 z" /></g></g></svg>