<?xml version="1.0" encoding="UTF-8" standalone="no"?>
<svg
   xmlns:dc="http://purl.org/dc/elements/1.1/"
   xmlns:cc="http://creativecommons.org/ns#"
   xmlns:rdf="http://www.w3.org/1999/02/22-rdf-syntax-ns#"
   xmlns:svg="http://www.w3.org/2000/svg"
   xmlns="http://www.w3.org/2000/svg"
   viewBox="0 0 413.75 371.25"
   height="371.25"
   width="413.75"
   xml:space="preserve"
   version="1.1"
   id="svg2"><metadata
     id="metadata8"><rdf:RDF><cc:Work
         rdf:about=""><dc:format>image/svg+xml</dc:format><dc:type
           rdf:resource="http://purl.org/dc/dcmitype/StillImage" /></cc:Work></rdf:RDF></metadata><defs
     id="defs6" /><g
     transform="matrix(1.25,0,0,-1.25,0,371.25)"
     id="g10"><g
       transform="scale(0.1,0.1)"
       id="g12"><path
         id="path14"
         style="fill:#2a3282;fill-opacity:1;fill-rule:nonzero;stroke:none"
         d="M 2326.95,51.6094 2093.32,450.012 c -13.59,20.777 -41.6,41.597 -68.79,41.597 l -1716.8,0 c -27.179,0 -61.601,-20.82 -68.781,-41.597 L 5.35156,51.6094 c -13.63281,-20.8203 0,-41.5977 27.18754,-41.5977 l 2266.4109,0 c 28,0.7774 34.37,20.7774 28,41.5977 z m -1764.802,89.6096 89.571,143.98 996.011,0 89.61,-143.98 -1175.192,0 z" /><path
         id="path16"
         style="fill:#2a3282;fill-opacity:1;fill-rule:nonzero;stroke:none"
         d="m 1866.95,1795.59 -1387.22,0 c -109.609,0 -199.179,-89.61 -199.179,-191.99 l 0,-783.202 c 0,-109.609 89.57,-192 199.179,-192 l 1387.22,0 c 109.57,0 199.18,89.614 199.18,192 l 0,783.202 c 0,103.2 -89.61,191.99 -199.18,191.99 z m -7.22,-960.781 -1373.601,0 0,755.201 1373.601,0 0,-755.201 z" /><path
         id="path18"
         style="fill:#2a3282;fill-opacity:1;fill-rule:nonzero;stroke:none"
         d="m 3302.15,2825.98 c 0,75.24 -61.6,137.62 -137.62,137.62 l -1098.4,0 c -75.19,0 -137.58,-61.6 -137.58,-137.62 l 0,-900 c 157.58,-27.18 274.38,-164.76 274.38,-322.38 l 0,-768.791 824.02,0 0,-137.618 -824.02,0 0,-137.57 824.02,0 0,-137.621 -762.42,0 157.62,-274.422 871.99,0 0,2678.402 8.01,0 z m -275.2,-411.99 -824.02,0 0,137.62 824.02,0 0,-137.62 z" /><path
         id="path20"
         style="fill:#2a3282;fill-opacity:1;fill-rule:nonzero;stroke:none"
         d="m 1543.75,1356.41 -226.41,0 95.98,95.98 308.83,0 0,-308.79 -96.02,-96.02 0,233.64 -274.41,-268.01 -75.2,75.19 267.23,268.01 z" /></g></g></svg>