<?xml version="1.0" encoding="UTF-8" standalone="no"?>
<svg
   xmlns:dc="http://purl.org/dc/elements/1.1/"
   xmlns:cc="http://creativecommons.org/ns#"
   xmlns:rdf="http://www.w3.org/1999/02/22-rdf-syntax-ns#"
   xmlns:svg="http://www.w3.org/2000/svg"
   xmlns="http://www.w3.org/2000/svg"
   viewBox="0 0 258.75 270"
   height="270"
   width="258.75"
   xml:space="preserve"
   version="1.1"
   id="svg2"><metadata
     id="metadata8"><rdf:RDF><cc:Work
         rdf:about=""><dc:format>image/svg+xml</dc:format><dc:type
           rdf:resource="http://purl.org/dc/dcmitype/StillImage" /></cc:Work></rdf:RDF></metadata><defs
     id="defs6" /><g
     transform="matrix(1.25,0,0,-1.25,0,270)"
     id="g10"><g
       transform="scale(0.1,0.1)"
       id="g12"><path
         id="path14"
         style="fill:#2a3282;fill-opacity:1;fill-rule:nonzero;stroke:none"
         d="m 1635.2,2151.6 -1348.009,0 C 129.609,2151.6 0,2021.21 0,1864.41 L 0,297.191 C 0,139.609 130.391,10 287.191,10 l 1492.029,0 c 157.58,0 287.19,130.391 287.19,287.191 l 0,1430.429 -431.21,423.98 z M 1888.79,297.191 c 0,-61.613 -48.01,-109.57 -109.57,-109.57 l -1492.029,0 c -61.601,0 -109.57,47.957 -109.57,109.57 l 0,1567.219 c 0,61.6 47.969,109.57 109.57,109.57 l 1259.219,0 0,-342.38 342.38,0 0,-1334.409 z" /><path
         id="path16"
         style="fill:#2a3282;fill-opacity:1;fill-rule:nonzero;stroke:none"
         d="m 622.379,1412.38 0,-143.98 c 0,-82.39 -34.367,-123.21 -95.969,-123.21 l 0,-115.97 c 68.789,0 95.969,-40.822 95.969,-116.021 l 0,-157.621 c 0,-82.379 20.82,-136.789 54.422,-171.168 40.82,-48.012 109.609,-68.832 211.988,-68.832 l 0,123.211 c -34.379,0 -61.598,7.223 -82.379,27.223 -13.601,20.789 -27.191,47.968 -27.191,88.789 l 0,130.39 c 7.191,102.43 -27.231,171.209 -88.828,198.399 68.828,27.23 96.019,88.79 96.019,191.99 l 0,136.8 c 0,75.24 34.371,109.61 102.379,109.61 l 0,123.2 c -102.379,0 -171.168,-20.78 -211.988,-61.6 -33.602,-27.19 -54.422,-88.79 -54.422,-171.21 z" /><path
         id="path18"
         style="fill:#2a3282;fill-opacity:1;fill-rule:nonzero;stroke:none"
         d="m 1375.2,1269.22 0,150.39 c 0,82.38 -20.79,136.79 -54.42,177.58 -40.78,34.41 -109.57,54.41 -211.99,54.41 l 0,-123.2 c 68.83,0 102.42,-34.42 102.42,-109.61 l 0,-130.39 c 0,-109.61 34.38,-177.58 95.98,-205.59 -68.79,-27.23 -95.98,-88.83 -95.98,-191.99 l 0,-136.84 c 0,-40.781 -7.23,-68.789 -20.82,-88.789 -20.78,-20.781 -40.78,-27.179 -82.38,-27.179 l 0,-123.211 c 102.38,0 171.21,20.777 211.99,61.597 34.41,34.422 54.41,95.981 54.41,177.582 l 0,150.43 c 0,82.391 34.38,123.21 95.98,123.21 l 0,115.97 c -60.78,2.42 -95.19,43.21 -95.19,125.63 z" /></g></g></svg>