<?xml version="1.0" encoding="UTF-8" standalone="no"?>
<svg
   xmlns:dc="http://purl.org/dc/elements/1.1/"
   xmlns:cc="http://creativecommons.org/ns#"
   xmlns:rdf="http://www.w3.org/1999/02/22-rdf-syntax-ns#"
   xmlns:svg="http://www.w3.org/2000/svg"
   xmlns="http://www.w3.org/2000/svg"
   viewBox="0 0 275 345"
   height="345"
   width="275"
   xml:space="preserve"
   version="1.1"
   id="svg2"><metadata
     id="metadata8"><rdf:RDF><cc:Work
         rdf:about=""><dc:format>image/svg+xml</dc:format><dc:type
           rdf:resource="http://purl.org/dc/dcmitype/StillImage" /></cc:Work></rdf:RDF></metadata><defs
     id="defs6" /><g
     transform="matrix(1.25,0,0,-1.25,0,345)"
     id="g10"><g
       transform="scale(0.1,0.1)"
       id="g12"><path
         id="path14"
         style="fill:#2a3282;fill-opacity:1;fill-rule:nonzero;stroke:none"
         d="M 1510.39,2757.2 0,2757.2 0,10.7891 l 2197.62,0 0,2059.2209 -687.23,687.19 z M 2060,147.59 l -1922.379,0 0,2471.99 1304.759,0 0,-618.4 618.4,0 0,-1853.59 -0.78,0 z" /><path
         id="path16"
         style="fill:#2a3282;fill-opacity:1;fill-rule:nonzero;stroke:none"
         d="m 480.781,1521.18 1236.02,0 0,136.801 -1236.02,0 0,-136.801 z" /><path
         id="path18"
         style="fill:#2a3282;fill-opacity:1;fill-rule:nonzero;stroke:none"
         d="m 480.781,1177.98 1236.02,0 0,136.84 -1236.02,0 0,-136.84 z" /><path
         id="path20"
         style="fill:#2a3282;fill-opacity:1;fill-rule:nonzero;stroke:none"
         d="m 480.781,833.988 1236.02,0 0,137.621 -1236.02,0 0,-137.621 z" /><path
         id="path22"
         style="fill:#2a3282;fill-opacity:1;fill-rule:nonzero;stroke:none"
         d="m 480.781,490.789 1236.02,0 0,137.621 -1236.02,0 0,-137.621 z" /></g></g></svg>