<?xml version="1.0" encoding="UTF-8" standalone="no"?>
<svg
   xmlns:dc="http://purl.org/dc/elements/1.1/"
   xmlns:cc="http://creativecommons.org/ns#"
   xmlns:rdf="http://www.w3.org/1999/02/22-rdf-syntax-ns#"
   xmlns:svg="http://www.w3.org/2000/svg"
   xmlns="http://www.w3.org/2000/svg"
   viewBox="0 0 258.75 352.5"
   height="352.5"
   width="258.75"
   xml:space="preserve"
   version="1.1"
   id="svg2"><metadata
     id="metadata8"><rdf:RDF><cc:Work
         rdf:about=""><dc:format>image/svg+xml</dc:format><dc:type
           rdf:resource="http://purl.org/dc/dcmitype/StillImage" /></cc:Work></rdf:RDF></metadata><defs
     id="defs6" /><g
     transform="matrix(1.25,0,0,-1.25,0,352.5)"
     id="g10"><g
       transform="scale(0.1,0.1)"
       id="g12"><path
         id="path14"
         style="fill:#2a3282;fill-opacity:1;fill-rule:nonzero;stroke:none"
         d="M 808.012,9.98828 C 760,9.98828 739.219,44.4102 760,85.1914 l 596.02,986.3986 c 27.18,40.82 68.78,40.82 95.97,0 L 2048.01,85.1914 C 2075.2,44.4102 2055.2,9.98828 2000,9.98828 l -1191.988,0 z" /><path
         id="path16"
         style="fill:#2a3282;fill-opacity:1;fill-rule:nonzero;stroke:none"
         d="m 1232.81,2818 -1096.009,0 C 61.6016,2818 0,2756.4 0,2681.2 L 0,9.98828 l 623.199,0 C 609.609,58 623.199,106.012 643.98,154.02 l 75.239,130.39 -513.629,0 0,136.789 596.012,0 82.378,136.801 -678.39,0 0,136.801 753.629,0 246.371,431.209 c 27.22,40.78 61.6,75.19 96.01,95.97 20.78,13.64 40.78,20.82 68.79,20.82 l 0,1444.81 c -0.78,68.79 -62.38,130.39 -137.58,130.39 z m -68.83,-548.01 -958.39,0 0,136.8 959.21,0 0,-136.8 -0.82,0 z" /></g></g></svg>