<?xml version="1.0" encoding="UTF-8" standalone="no"?>
<svg
   xmlns:dc="http://purl.org/dc/elements/1.1/"
   xmlns:cc="http://creativecommons.org/ns#"
   xmlns:rdf="http://www.w3.org/1999/02/22-rdf-syntax-ns#"
   xmlns:svg="http://www.w3.org/2000/svg"
   xmlns="http://www.w3.org/2000/svg"
   viewBox="0 0 255 406.25"
   height="406.25"
   width="255"
   xml:space="preserve"
   version="1.1"
   id="svg2"><metadata
     id="metadata8"><rdf:RDF><cc:Work
         rdf:about=""><dc:format>image/svg+xml</dc:format><dc:type
           rdf:resource="http://purl.org/dc/dcmitype/StillImage" /></cc:Work></rdf:RDF></metadata><defs
     id="defs6" /><g
     transform="matrix(1.25,0,0,-1.25,0,406.25)"
     id="g10"><g
       transform="scale(0.1,0.1)"
       id="g12"><path
         id="path14"
         style="fill:#2a3282;fill-opacity:1;fill-rule:nonzero;stroke:none"
         d="m 0,10 1040,0 0,3236.8 -1040,0 L 0,10 Z m 862.379,1868.79 -280.777,0 0,280 280.777,0 0,-280 z m -698.399,416.8 0,280.82 280.821,0 0,-280.82 -280.821,0 z m 424.032,0 0,280.82 280.777,0 0,-280.82 -280.777,0 z m -6.41,698.4 280.777,0 0,-280.78 -280.777,0 0,280.78 z m -417.622,0 280.821,0 0,-280.78 -280.821,0 0,280.78 z m 0,-835.2 280.821,0 0,-280.78 -280.821,0 0,280.78 z m 698.399,-1539.181 -280.777,0 0,280.782 280.777,0 0,-280.782 z m -698.399,416.801 0,280.78 280.821,0 0,-280.78 -280.821,0 z m 424.032,0 0,280.78 280.777,0 0,-280.78 -280.777,0 z m -6.41,698.4 280.777,0 0,-280.82 -280.777,0 0,280.82 z m -417.622,0 280.821,0 0,-280.82 -280.821,0 0,280.82 z m 0,-835.201 280.821,0 0,-280.82 -280.821,0 0,280.82 z m 1744.81,1293.601 0,335.19 -150.39,0 0,321.6 -109.61,0 0,300.78 -88.79,0 0,-300.78 -109.61,0 0,-321.6 -150.39,0 0,-335.19 -123.2,0 0,-2183.21 862.42,0 0,2183.21 -130.43,0 z m -314.38,-1313.601 -280.82,0 0,280.781 280.82,0 0,-280.781 z m 0,855.201 -280.82,0 0,280.78 280.82,0 0,-280.78 z m 327.97,-424.03 -280.78,0 0,280 280.78,0 0,-280 z" /></g></g></svg>