<?xml version="1.0" encoding="UTF-8" standalone="no"?>
<svg
   xmlns:dc="http://purl.org/dc/elements/1.1/"
   xmlns:cc="http://creativecommons.org/ns#"
   xmlns:rdf="http://www.w3.org/1999/02/22-rdf-syntax-ns#"
   xmlns:svg="http://www.w3.org/2000/svg"
   xmlns="http://www.w3.org/2000/svg"
   viewBox="0 0 291.25 303.75"
   height="303.75"
   width="291.25"
   xml:space="preserve"
   version="1.1"
   id="svg2"><metadata
     id="metadata8"><rdf:RDF><cc:Work
         rdf:about=""><dc:format>image/svg+xml</dc:format><dc:type
           rdf:resource="http://purl.org/dc/dcmitype/StillImage" /></cc:Work></rdf:RDF></metadata><defs
     id="defs6" /><g
     transform="matrix(1.25,0,0,-1.25,0,303.75)"
     id="g10"><g
       transform="scale(0.1,0.1)"
       id="g12"><path
         id="path14"
         style="fill:#2a3282;fill-opacity:1;fill-rule:nonzero;stroke:none"
         d="m 614.02,1453.4 1078.4,0 0,199.18 -1078.4,0 0,-199.18 z" /><path
         id="path16"
         style="fill:#2a3282;fill-opacity:1;fill-rule:nonzero;stroke:none"
         d="m 614.02,1069.49 1078.4,0 0,199.223 -1078.4,0 0,-199.223 z" /><path
         id="path18"
         style="fill:#2a3282;fill-opacity:1;fill-rule:nonzero;stroke:none"
         d="m 614.02,692.781 1078.4,0 0,199.219 -1078.4,0 0,-199.219 z" /><path
         id="path20"
         style="fill:#2a3282;fill-opacity:1;fill-rule:nonzero;stroke:none"
         d="m 1840,2426.8 -1517.621,0 C 143.98,2426.8 0,2282.82 0,2104.42 L 0,332.391 C 0,153.988 143.98,10 322.379,10 L 2004.8,10 c 178.4,0 322.39,143.988 322.39,322.391 l 0,1613.629 L 1840,2426.8 Z M 2004.8,202 322.379,202 c -68.789,0 -123.981,55.191 -123.981,130.391 l 0,1772.029 c 0,68.79 55.192,123.98 123.981,123.98 l 1414.421,0 0,-398.4 391.21,0 0,-1503.98 C 2128.01,257.191 2073.59,202 2004.8,202 Z" /></g></g></svg>