<?xml version="1.0" encoding="UTF-8" standalone="no"?>
<svg
   xmlns:dc="http://purl.org/dc/elements/1.1/"
   xmlns:cc="http://creativecommons.org/ns#"
   xmlns:rdf="http://www.w3.org/1999/02/22-rdf-syntax-ns#"
   xmlns:svg="http://www.w3.org/2000/svg"
   xmlns="http://www.w3.org/2000/svg"
   viewBox="0 0 361.25 311.25"
   height="311.25"
   width="361.25"
   xml:space="preserve"
   version="1.1"
   id="svg2"><metadata
     id="metadata8"><rdf:RDF><cc:Work
         rdf:about=""><dc:format>image/svg+xml</dc:format><dc:type
           rdf:resource="http://purl.org/dc/dcmitype/StillImage" /></cc:Work></rdf:RDF></metadata><defs
     id="defs6" /><g
     transform="matrix(1.25,0,0,-1.25,0,311.25)"
     id="g10"><g
       transform="scale(0.1,0.1)"
       id="g12"><path
         id="path14"
         style="fill:#2a3282;fill-opacity:1;fill-rule:nonzero;stroke:none"
         d="m 1073.59,2481.2 -571.211,0 c -89.57,0 -192.77,-41.6 -254.367,-103.2 L 103.199,2233.19 C 41.6016,2171.59 0,2068.39 0,1978.82 L 0,237.219 C 0,113.191 103.199,9.98828 227.191,9.98828 l 2429.609,0 c 123.98,0 227.18,103.20272 227.18,227.23072 l 0,1603.981 c 0,123.98 -103.2,227.19 -227.18,227.19 l -1025.59,0 c -13.59,0 -48.01,20.82 -61.6,34.41 l -234.41,268.79 c -68.79,68.83 -172,109.61 -261.61,109.61 z" /></g></g></svg>