<?xml version="1.0" encoding="UTF-8" standalone="no"?>
<svg
   xmlns:dc="http://purl.org/dc/elements/1.1/"
   xmlns:cc="http://creativecommons.org/ns#"
   xmlns:rdf="http://www.w3.org/1999/02/22-rdf-syntax-ns#"
   xmlns:svg="http://www.w3.org/2000/svg"
   xmlns="http://www.w3.org/2000/svg"
   viewBox="0 0 378.75 380"
   height="380"
   width="378.75"
   xml:space="preserve"
   version="1.1"
   id="svg2"><metadata
     id="metadata8"><rdf:RDF><cc:Work
         rdf:about=""><dc:format>image/svg+xml</dc:format><dc:type
           rdf:resource="http://purl.org/dc/dcmitype/StillImage" /></cc:Work></rdf:RDF></metadata><defs
     id="defs6" /><g
     transform="matrix(1.25,0,0,-1.25,0,380)"
     id="g10"><g
       transform="scale(0.1,0.1)"
       id="g12"><path
         id="path14"
         style="fill:#2a3282;fill-opacity:1;fill-rule:nonzero;stroke:none"
         d="M 1510.39,3030.8 C 672.809,3030.8 0,2350.8 0,1520.41 0,690.02 672.809,10.0195 1510.39,10.0195 c 837.62,0 1511.21,679.1795 1511.21,1510.3905 0,831.17 -672.81,1510.39 -1511.21,1510.39 z m -136.8,-686.41 0,480.82 274.42,0 0,-480.82 137.58,0 -274.38,-555.97 -274.41,555.97 136.79,0 z M 755.199,1246 l -555.98,274.41 555.98,274.37 0,-137.57 480.821,0 0,-274.42 -480.821,0 0,-136.79 z m 892.811,-480.789 0,-480.82 -274.42,0 0,480.82 -137.57,0 274.37,555.979 274.41,-555.979 -136.79,0 z m 618.4,480.789 0,137.61 -480.82,0 0,274.38 480.82,0 0,137.61 555.97,-274.41 L 2266.41,1246 Z" /></g></g></svg>