<?xml version="1.0" encoding="UTF-8" standalone="no"?>
<svg
   xmlns:dc="http://purl.org/dc/elements/1.1/"
   xmlns:cc="http://creativecommons.org/ns#"
   xmlns:rdf="http://www.w3.org/1999/02/22-rdf-syntax-ns#"
   xmlns:svg="http://www.w3.org/2000/svg"
   xmlns="http://www.w3.org/2000/svg"
   viewBox="0 0 260 271.25"
   height="271.25"
   width="260"
   xml:space="preserve"
   version="1.1"
   id="svg2"><metadata
     id="metadata8"><rdf:RDF><cc:Work
         rdf:about=""><dc:format>image/svg+xml</dc:format><dc:type
           rdf:resource="http://purl.org/dc/dcmitype/StillImage" /></cc:Work></rdf:RDF></metadata><defs
     id="defs6" /><g
     transform="matrix(1.25,0,0,-1.25,0,271.25)"
     id="g10"><g
       transform="scale(0.1,0.1)"
       id="g12"><path
         id="path14"
         style="fill:#2a3282;fill-opacity:1;fill-rule:nonzero;stroke:none"
         d="m 1641.6,2160.4 -1352.811,0 C 131.211,2160.4 0,2030.01 0,1871.61 L 0,298.801 C 0,141.18 130.391,10.0117 288.789,10.0117 l 1496.801,0 c 157.61,0 288.82,130.3863 288.82,288.7893 l 0,1436.009 -432.81,425.59 z M 1896.02,299.621 c 0,-61.601 -48.01,-109.609 -109.61,-109.609 l -1497.621,0 c -61.598,0 -109.57,48.008 -109.57,109.609 l 0,1579.179 c 0,61.6 47.972,109.61 109.57,109.61 l 1263.201,0 0,-349.61 343.21,0 0,-1339.179 0.82,0 z" /><path
         id="path16"
         style="fill:#2a3282;fill-opacity:1;fill-rule:nonzero;stroke:none"
         d="m 625.59,1418.8 0,-143.99 c 0,-82.42 -34.379,-124.02 -95.981,-124.02 l 0,-123.98 c 68.789,0 95.981,-41.611 95.981,-116.798 l 0,-157.621 c 0,-82.379 20.82,-137.582 55.191,-171.993 41.598,-41.597 109.61,-61.597 212.809,-61.597 l 0,123.98 c -34.371,0 -61.602,7.231 -82.379,27.231 -13.59,13.59 -20.82,48.008 -20.82,89.609 l 0,130.391 c 0,103.199 -34.371,171.988 -95.981,199.178 68.789,27.23 95.981,89.61 95.981,191.99 l 0,137.62 c 0,75.19 34.41,109.61 103.199,109.61 l 0,123.98 c -103.199,0 -171.988,-20.78 -212.809,-61.6 -34.371,-28.01 -55.191,-89.61 -55.191,-171.99 z" /><path
         id="path18"
         style="fill:#2a3282;fill-opacity:1;fill-rule:nonzero;stroke:none"
         d="m 1380.78,1274.81 0,151.18 c 0,82.42 -20.78,137.61 -55.19,178.39 -41.61,41.61 -109.57,61.61 -212.78,61.61 l 0,-123.21 c 68.79,0 103.21,-34.37 103.21,-109.57 l 0,-130.43 c 0,-109.57 34.37,-171.99 95.97,-199.18 -68.79,-27.18 -95.97,-89.61 -95.97,-191.991 l 0,-137.621 c 0,-41.597 -7.23,-68.789 -20.82,-89.609 -13.6,-20.777 -41.61,-27.18 -82.39,-27.18 l 0,-123.988 c 103.21,0 171.99,20.777 212.78,61.598 34.41,34.382 55.19,95.98 55.19,178.402 l 0,151.168 c 0,82.431 34.42,124.031 96.02,124.031 l 0,116.79 c -61.6,-14.41 -96.02,27.19 -96.02,109.61 z" /></g></g></svg>