<?xml version="1.0" encoding="UTF-8" standalone="no"?>
<svg
   xmlns:dc="http://purl.org/dc/elements/1.1/"
   xmlns:cc="http://creativecommons.org/ns#"
   xmlns:rdf="http://www.w3.org/1999/02/22-rdf-syntax-ns#"
   xmlns:svg="http://www.w3.org/2000/svg"
   xmlns="http://www.w3.org/2000/svg"
   viewBox="0 0 421.25 413.75"
   height="413.75"
   width="421.25"
   xml:space="preserve"
   version="1.1"
   id="svg2"><metadata
     id="metadata8"><rdf:RDF><cc:Work
         rdf:about=""><dc:format>image/svg+xml</dc:format><dc:type
           rdf:resource="http://purl.org/dc/dcmitype/StillImage" /></cc:Work></rdf:RDF></metadata><defs
     id="defs6" /><g
     transform="matrix(1.25,0,0,-1.25,0,413.75)"
     id="g10"><g
       transform="scale(0.1,0.1)"
       id="g12"><path
         id="path14"
         style="fill:#2a3282;fill-opacity:1;fill-rule:nonzero;stroke:none"
         d="M 2560.78,1754.81 1613.59,559.609 830.391,1246.02 l -535.192,-460 -20.789,20.781 0,-521.602 3089.57,0 0,1009.611 -803.2,460 z" /><path
         id="path16"
         style="fill:#2a3282;fill-opacity:1;fill-rule:nonzero;stroke:none"
         d="M 2499.22,3169.18 1386.41,1871.6 l -864.808,240 -247.192,-356.79 0,-666.41 555.981,473.6 700.819,-611.219 926.41,1153.639 906.36,-521.6 0,1394.37 -864.76,191.99 z" /><path
         id="path18"
         style="fill:#2a3282;fill-opacity:1;fill-rule:nonzero;stroke:none"
         d="m 136.801,147.578 0,3159.222 L 0,3306.8 0,10 l 3363.98,0 0,137.578 -3227.179,0 z" /></g></g></svg>