<?xml version="1.0" encoding="UTF-8" standalone="no"?>
<svg
   xmlns:dc="http://purl.org/dc/elements/1.1/"
   xmlns:cc="http://creativecommons.org/ns#"
   xmlns:rdf="http://www.w3.org/1999/02/22-rdf-syntax-ns#"
   xmlns:svg="http://www.w3.org/2000/svg"
   xmlns="http://www.w3.org/2000/svg"
   viewBox="0 0 41.25 36.25"
   height="36.25"
   width="41.25"
   xml:space="preserve"
   version="1.1"
   id="svg2"><metadata
     id="metadata8"><rdf:RDF><cc:Work
         rdf:about=""><dc:format>image/svg+xml</dc:format><dc:type
           rdf:resource="http://purl.org/dc/dcmitype/StillImage" /></cc:Work></rdf:RDF></metadata><defs
     id="defs6" /><g
     transform="matrix(1.25,0,0,-1.25,0,36.25)"
     id="g10"><g
       transform="scale(0.1,0.1)"
       id="g12"><path
         id="path14"
         style="fill:#0078d7;fill-opacity:1;fill-rule:nonzero;stroke:none"
         d="m 299.102,264.379 c -32.032,35.242 -98.403,20 -136.801,-34.367 C 113.48,288.41 55.8984,299.621 23.9102,264.379 -66.5195,166.809 126.289,25.9883 161.48,10.0117 196.68,25.9883 389.488,166.809 299.102,264.379 Z m -67.223,-65.578 -76.801,-98.403 -48.789,52.813 -3.988,4.809 c -0.821,1.601 -0.821,3.16 0,3.98 l 12.777,11.988 c 0.82,0.821 1.602,0.821 2.422,0.821 0.781,0 1.602,0 2.379,-0.821 l 34.422,-37.566 60,76.789 c 0.777,0.777 1.597,0.777 2.379,0.777 0.82,0 1.601,0 1.601,-0.777 l 13.598,-10.43 c 0.82,-0.781 0.82,-1.601 0.82,-2.383 0,0 0,-0.777 -0.82,-1.597 z" /></g></g></svg>