<?xml version="1.0" encoding="UTF-8" standalone="no"?>
<svg
   xmlns:dc="http://purl.org/dc/elements/1.1/"
   xmlns:cc="http://creativecommons.org/ns#"
   xmlns:rdf="http://www.w3.org/1999/02/22-rdf-syntax-ns#"
   xmlns:svg="http://www.w3.org/2000/svg"
   xmlns="http://www.w3.org/2000/svg"
   viewBox="0 0 288.75 246.25"
   height="246.25"
   width="288.75"
   xml:space="preserve"
   version="1.1"
   id="svg2"><metadata
     id="metadata8"><rdf:RDF><cc:Work
         rdf:about=""><dc:format>image/svg+xml</dc:format><dc:type
           rdf:resource="http://purl.org/dc/dcmitype/StillImage" /></cc:Work></rdf:RDF></metadata><defs
     id="defs6" /><g
     transform="matrix(1.25,0,0,-1.25,0,246.25)"
     id="g10"><g
       transform="scale(0.1,0.1)"
       id="g12"><path
         id="path14"
         style="fill:#3276bc;fill-opacity:1;fill-rule:nonzero;stroke:none"
         d="M 2135.78,1824.38 C 1902.19,2071.61 1427.77,1968.41 1152.58,1577.2 802.191,1996.42 389.379,2072.39 155.781,1824.38 -77.8086,1562.78 -16.2109,1260.4 128.59,1013.21 l 240.789,7.19 124.019,0 233.59,488.01 c 7.192,27.18 109.614,75.97 137.621,68.79 89.571,0 89.571,-116.8 95.981,-151.21 l 7.18,-721.611 82.43,240.82 c 7.18,27.192 27.18,68.791 55.19,68.791 l 735.2,7.19 c 34.41,0 41.6,-7.19 41.6,-41.559 0,-34.422 48.01,-158.441 13.59,-158.441 l -660,0 L 1029.38,402 C 1008.59,367.59 919.801,360.398 898.98,360.398 789.379,373.988 782.191,511.609 775,545.988 L 767.77,1130.01 664.609,855.59 c -7.23,-20.781 -34.41,-27.18 -55.23,-34.41 l -364.77,0 C 560.59,402 952.578,71.6094 1138.2,10.0117 1414.18,119.621 2782.19,1123.6 2135.78,1824.38 Z" /></g></g></svg>