<?xml version="1.0" encoding="UTF-8" standalone="no"?>
<svg
   xmlns:dc="http://purl.org/dc/elements/1.1/"
   xmlns:cc="http://creativecommons.org/ns#"
   xmlns:rdf="http://www.w3.org/1999/02/22-rdf-syntax-ns#"
   xmlns:svg="http://www.w3.org/2000/svg"
   xmlns="http://www.w3.org/2000/svg"
   viewBox="0 0 41.25 36.25"
   height="36.25"
   width="41.25"
   xml:space="preserve"
   version="1.1"
   id="svg2"><metadata
     id="metadata8"><rdf:RDF><cc:Work
         rdf:about=""><dc:format>image/svg+xml</dc:format><dc:type
           rdf:resource="http://purl.org/dc/dcmitype/StillImage" /></cc:Work></rdf:RDF></metadata><defs
     id="defs6" /><g
     transform="matrix(1.25,0,0,-1.25,0,36.25)"
     id="g10"><g
       transform="scale(0.1,0.1)"
       id="g12"><path
         id="path14"
         style="fill:#00188f;fill-opacity:1;fill-rule:nonzero;stroke:none"
         d="m 298.711,264.379 c -31.992,35.242 -98.402,20 -136.801,-34.367 C 113.121,288.41 55.5117,299.621 23.5195,264.379 -66.0898,166.809 126.719,25.9883 161.129,10.0117 195.512,25.9883 388.32,166.809 298.711,264.379 Z m -67.191,-65.578 -76.79,-98.403 -48.789,52.813 -4.031,4.809 c -0.781,1.601 -0.781,3.16 0,3.98 l 12.82,11.988 c 0.782,0.821 1.598,0.821 2.379,0.821 0.821,0 1.602,0 2.422,-0.821 l 34.379,-37.566 60,76.789 c 0.82,0.777 1.602,0.777 2.418,0.777 0.781,0 1.602,0 1.602,-0.777 l 13.59,-10.43 c 0.781,-0.781 0.781,-1.601 0.781,-2.383 0,0 -0.781,-0.777 -0.781,-1.597 z" /></g></g></svg>