<?xml version="1.0" encoding="UTF-8" standalone="no"?>
<svg
   xmlns:dc="http://purl.org/dc/elements/1.1/"
   xmlns:cc="http://creativecommons.org/ns#"
   xmlns:rdf="http://www.w3.org/1999/02/22-rdf-syntax-ns#"
   xmlns:svg="http://www.w3.org/2000/svg"
   xmlns="http://www.w3.org/2000/svg"
   viewBox="0 0 30 38.75"
   height="38.75"
   width="30"
   xml:space="preserve"
   version="1.1"
   id="svg2"><metadata
     id="metadata8"><rdf:RDF><cc:Work
         rdf:about=""><dc:format>image/svg+xml</dc:format><dc:type
           rdf:resource="http://purl.org/dc/dcmitype/StillImage" /></cc:Work></rdf:RDF></metadata><defs
     id="defs6" /><g
     transform="matrix(1.25,0,0,-1.25,0,38.75)"
     id="g10"><g
       transform="scale(0.1,0.1)"
       id="g12"><path
         id="path14"
         style="fill:#00188f;fill-opacity:1;fill-rule:nonzero;stroke:none"
         d="m 183.98,300.398 -151.9917,0 C 14.4102,300.398 0,285.988 0,268.41 L 0,42 C 0,24.3789 14.4102,10.0117 31.9883,10.0117 l 168.0117,0 c 17.621,0 31.988,14.3672 31.988,31.9883 l 0,211.211 -48.008,47.187 z M 212.809,42 c 0,-7.1914 -5.618,-12.8086 -12.809,-12.8086 l -168.0117,0 c -7.1875,0 -12.7695,5.6172 -12.7695,12.8086 l 0,76.801 81.5622,0 0,-28.0119 75.239,56.0199 -75.239,55.972 0,-32.769 -81.5622,0 0,98.398 c 0,7.192 5.582,12.77 12.7695,12.77 l 141.6017,0 0,-40 39.219,0 0,-199.18 z" /></g></g></svg>