<?xml version="1.0" encoding="UTF-8" standalone="no"?>
<svg
   xmlns:dc="http://purl.org/dc/elements/1.1/"
   xmlns:cc="http://creativecommons.org/ns#"
   xmlns:rdf="http://www.w3.org/1999/02/22-rdf-syntax-ns#"
   xmlns:svg="http://www.w3.org/2000/svg"
   xmlns="http://www.w3.org/2000/svg"
   viewBox="0 0 65 41.25"
   height="41.25"
   width="65"
   xml:space="preserve"
   version="1.1"
   id="svg2"><metadata
     id="metadata8"><rdf:RDF><cc:Work
         rdf:about=""><dc:format>image/svg+xml</dc:format><dc:type
           rdf:resource="http://purl.org/dc/dcmitype/StillImage" /></cc:Work></rdf:RDF></metadata><defs
     id="defs6" /><g
     transform="matrix(1.25,0,0,-1.25,0,41.25)"
     id="g10"><g
       transform="scale(0.1,0.1)"
       id="g12"><path
         id="path14"
         style="fill:none;stroke:#00188f;stroke-width:8;stroke-linecap:butt;stroke-linejoin:miter;stroke-miterlimit:10;stroke-dasharray:none;stroke-opacity:1"
         d="m 444.801,13.9883 -364.0197,0 c -42.3829,0 -76.80083,38.4023 -76.80083,84.8125 0,46.3982 34.41793,84.8012 76.80083,84.8012 3.1992,0 5.6289,0 8.8281,-0.821 12.7696,22.418 34.3706,36.02 58.4026,36.02 6.398,0 12.769,-0.781 19.179,-3.211 l 0,3.211 c 0,55.187 40,99.219 89.61,99.219 34.41,0 66.398,-22.43 80.82,-57.622 12.77,8.012 27.18,12.813 42.379,12.813 48.012,0 86.41,-43.199 86.41,-96.012 0,-5.59 -0.82,-10.398 -1.609,-15.98 25.59,-12.028 42.39,-39.219 42.39,-70.4299 0,-35.9805 -22.39,-66.4102 -52.781,-74.3789 l -9.609,-2.4219 z" /></g></g></svg>