<?xml version="1.0" encoding="UTF-8" standalone="no"?>
<svg
   xmlns:dc="http://purl.org/dc/elements/1.1/"
   xmlns:cc="http://creativecommons.org/ns#"
   xmlns:rdf="http://www.w3.org/1999/02/22-rdf-syntax-ns#"
   xmlns:svg="http://www.w3.org/2000/svg"
   xmlns="http://www.w3.org/2000/svg"
   viewBox="0 0 28.75 45"
   height="45"
   width="28.75"
   xml:space="preserve"
   version="1.1"
   id="svg2"><metadata
     id="metadata8"><rdf:RDF><cc:Work
         rdf:about=""><dc:format>image/svg+xml</dc:format><dc:type
           rdf:resource="http://purl.org/dc/dcmitype/StillImage" /></cc:Work></rdf:RDF></metadata><defs
     id="defs6" /><g
     transform="matrix(1.25,0,0,-1.25,0,45)"
     id="g10"><g
       transform="scale(0.1,0.1)"
       id="g12"><path
         id="path14"
         style="fill:#00188f;fill-opacity:1;fill-rule:nonzero;stroke:none"
         d="m 171.211,157.621 c -11.992,6.359 -18.402,15.969 -18.402,29.57 0,11.207 4.812,20.821 13.601,27.219 l 0.781,0 c -5.589,7.192 -13.601,14.379 -25.589,14.379 -8.793,0 -15.192,-8.789 -27.192,-8.789 -9.609,0 -12.808,8.012 -23.1991,8.012 -20.8203,0 -41.6015,-18.403 -41.6015,-43.211 0,-12.813 3.9804,-32.813 13.5898,-50.391 7.1914,-12.808 15.1992,-20.82 24.8125,-20.82 7.1875,0 15.1873,7.191 24.7973,7.191 8.793,0 15.98,-6.371 23.992,-6.371 18.398,0 35.187,23.988 35.187,40 l 0,3.211 -0.777,0 z" /><path
         id="path16"
         style="fill:#00188f;fill-opacity:1;fill-rule:nonzero;stroke:none"
         d="M 199.219,360 21.6016,360 C 9.60938,360 0,349.609 0,337.621 L 0,22.3789 C 0,10.3906 12.8086,0 24.8008,0 L 196.801,0 c 11.988,0 24.801,8.01172 24.801,22.3789 l 0,315.2421 C 220.781,349.609 211.211,360 199.219,360 Z m -109.6096,-24.801 40.7816,0 0,-8.008 -40.7816,0 0,8.008 z M 110.391,16.0195 c -8.012,0 -14.3715,6.3594 -14.3715,14.3711 0,8.0078 6.3595,14.4102 14.3715,14.4102 8.007,0 14.41,-6.4024 14.41,-14.4102 0,-8.0117 -6.403,-14.3711 -14.41,-14.3711 z m 85.629,41.6016 -172.0395,0 0,261.5979 172.0395,0 0,-261.5979 z" /><path
         id="path18"
         style="fill:#00188f;fill-opacity:1;fill-rule:nonzero;stroke:none"
         d="m 140.199,268.238 c -13.597,-4.019 -26.41,-14.41 -26.41,-31.988 0,-1.602 0.82,-3.199 0.82,-5.629 l 0,-0.781 c 13.59,3.988 25.59,14.379 25.59,32.781 l 0,5.617 z" /></g></g></svg>