<?xml version="1.0" encoding="UTF-8" standalone="no"?>
<svg
   xmlns:dc="http://purl.org/dc/elements/1.1/"
   xmlns:cc="http://creativecommons.org/ns#"
   xmlns:rdf="http://www.w3.org/1999/02/22-rdf-syntax-ns#"
   xmlns:svg="http://www.w3.org/2000/svg"
   xmlns="http://www.w3.org/2000/svg"
   viewBox="0 0 412.5 251.25"
   height="251.25"
   width="412.5"
   xml:space="preserve"
   version="1.1"
   id="svg2"><metadata
     id="metadata8"><rdf:RDF><cc:Work
         rdf:about=""><dc:format>image/svg+xml</dc:format><dc:type
           rdf:resource="http://purl.org/dc/dcmitype/StillImage" /></cc:Work></rdf:RDF></metadata><defs
     id="defs6" /><g
     transform="matrix(1.25,0,0,-1.25,0,251.25)"
     id="g10"><g
       transform="scale(0.1,0.1)"
       id="g12"><path
         id="path14"
         style="fill:#2a3282;fill-opacity:1;fill-rule:nonzero;stroke:none"
         d="m 3145.59,2000.4 -2994.379,0 C 68.7891,2000.4 0,1931.61 0,1842.78 L 0,167.59 C 0,78.0195 68.7891,10.0117 151.211,10.0117 l 2993.589,0 c 82.39,0 151.22,68.7891 151.22,157.5783 l 0,1674.41 c 0,89.61 -68.01,158.4 -150.43,158.4 z m -116.8,-1716.798 -2760.778,0 0,1441.598 2760.778,0 0,-1441.598 z" /><path
         id="path16"
         style="fill:#2a3282;fill-opacity:1;fill-rule:nonzero;stroke:none"
         d="m 480.781,1313.21 275.23,0 0,275.199 -275.23,0 0,-275.199 z" /><path
         id="path18"
         style="fill:#2a3282;fill-opacity:1;fill-rule:nonzero;stroke:none"
         d="m 892.809,1313.21 275.203,0 0,275.199 -275.203,0 0,-275.199 z" /><path
         id="path20"
         style="fill:#2a3282;fill-opacity:1;fill-rule:nonzero;stroke:none"
         d="m 1304.8,1313.21 275.199,0 0,275.199 -275.199,0 0,-275.199 z" /><path
         id="path22"
         style="fill:#2a3282;fill-opacity:1;fill-rule:nonzero;stroke:none"
         d="m 1716.8,1313.21 275.199,0 0,275.199 -275.199,0 0,-275.199 z" /><path
         id="path24"
         style="fill:#2a3282;fill-opacity:1;fill-rule:nonzero;stroke:none"
         d="m 2128.79,1313.21 275.199,0 0,275.199 -275.199,0 0,-275.199 z" /><path
         id="path26"
         style="fill:#2a3282;fill-opacity:1;fill-rule:nonzero;stroke:none"
         d="m 2540.78,1313.21 275.23,0 0,275.199 -275.23,0 0,-275.199 z" /><path
         id="path28"
         style="fill:#2a3282;fill-opacity:1;fill-rule:nonzero;stroke:none"
         d="m 480.781,901.191 275.23,0 0,275.23 -275.23,0 0,-275.23 z" /><path
         id="path30"
         style="fill:#2a3282;fill-opacity:1;fill-rule:nonzero;stroke:none"
         d="m 892.809,901.191 275.203,0 0,275.23 -275.203,0 0,-275.23 z" /><path
         id="path32"
         style="fill:#2a3282;fill-opacity:1;fill-rule:nonzero;stroke:none"
         d="m 1304.8,901.191 275.199,0 0,275.23 -275.199,0 0,-275.23 z" /><path
         id="path34"
         style="fill:#2a3282;fill-opacity:1;fill-rule:nonzero;stroke:none"
         d="m 1716.8,901.191 275.199,0 0,275.23 -275.199,0 0,-275.23 z" /><path
         id="path36"
         style="fill:#2a3282;fill-opacity:1;fill-rule:nonzero;stroke:none"
         d="m 2128.79,901.191 275.199,0 0,275.23 -275.199,0 0,-275.23 z" /><path
         id="path38"
         style="fill:#2a3282;fill-opacity:1;fill-rule:nonzero;stroke:none"
         d="m 2540.78,901.191 275.23,0 0,275.23 -275.23,0 0,-275.23 z" /><path
         id="path40"
         style="fill:#2a3282;fill-opacity:1;fill-rule:nonzero;stroke:none"
         d="m 480.781,420.398 412.027,0 0,343.98 -412.027,0 0,-343.98 z" /><path
         id="path42"
         style="fill:#2a3282;fill-opacity:1;fill-rule:nonzero;stroke:none"
         d="m 2403.98,420.398 412.031,0 0,343.98 -412.031,0 0,-343.98 z" /><path
         id="path44"
         style="fill:#2a3282;fill-opacity:1;fill-rule:nonzero;stroke:none"
         d="m 1030.39,420.398 1236.02,0 0,343.98 -1236.02,0 0,-343.98 z" /></g></g></svg>