<?xml version="1.0" encoding="UTF-8" standalone="no"?>
<svg
   xmlns:dc="http://purl.org/dc/elements/1.1/"
   xmlns:cc="http://creativecommons.org/ns#"
   xmlns:rdf="http://www.w3.org/1999/02/22-rdf-syntax-ns#"
   xmlns:svg="http://www.w3.org/2000/svg"
   xmlns="http://www.w3.org/2000/svg"
   viewBox="0 0 162.5 311.25"
   height="311.25"
   width="162.5"
   xml:space="preserve"
   version="1.1"
   id="svg2"><metadata
     id="metadata8"><rdf:RDF><cc:Work
         rdf:about=""><dc:format>image/svg+xml</dc:format><dc:type
           rdf:resource="http://purl.org/dc/dcmitype/StillImage" /></cc:Work></rdf:RDF></metadata><defs
     id="defs6" /><g
     transform="matrix(1.25,0,0,-1.25,0,311.25)"
     id="g10"><g
       transform="scale(0.1,0.1)"
       id="g12"><path
         id="path14"
         style="fill:#2a3282;fill-opacity:1;fill-rule:nonzero;stroke:none"
         d="m 1133.59,2482 -969.61,0 C 75.1992,2482 0,2406.8 0,2318.02 L 0,1642 c 0,-88.79 75.1992,-156.8 170.391,-156.8 l 191.211,0 0,-1208.79 c 0,-156.789 96.019,-266.3983 231.988,-266.3983 123.211,0 218.398,95.9683 232,225.5783 34.41,7.191 61.601,7.191 61.601,7.191 0,0 7.219,123.199 0,164.02 -7.191,40.789 75.188,88.789 75.188,88.789 0,0 7.23,68.012 0,75.199 -75.188,34.41 -115.969,68.012 -136.789,96.012 l 0,81.609 c 20.82,27.18 48,48 61.601,61.602 27.219,34.367 88.829,129.609 88.829,129.609 0,0 -68.008,95.969 -88.829,115.969 -34.382,40.82 -54.382,81.61 -61.601,116.02 l 0,61.6 c 20.82,136.8 177.61,252.77 177.61,252.77 l -177.61,0 314.41,0 c 81.6,0 156.8,68.01 156.8,156.8 l 0,676.02 c -6.41,88.79 -74.42,163.2 -163.21,163.2 z m -560,-2240 c 0,-40.781 -7.18,-88.789 -54.371,-88.789 -48.008,0 -54.418,48.008 -54.418,88.789 l 0,1120 c 0,40.78 13.597,88.79 54.418,88.79 40.781,0 54.371,-48.01 54.371,-88.79 l 0,-1120 z m 75.199,1830.39 c -81.598,0 -150.391,68.01 -150.391,150.39 0,81.6 68.012,150.43 150.391,150.43 81.602,0 150.43,-68.01 150.43,-150.43 0,-81.56 -68.828,-150.39 -150.43,-150.39 z" /></g></g></svg>