<?xml version="1.0" encoding="UTF-8" standalone="no"?>
<svg
   xmlns:dc="http://purl.org/dc/elements/1.1/"
   xmlns:cc="http://creativecommons.org/ns#"
   xmlns:rdf="http://www.w3.org/1999/02/22-rdf-syntax-ns#"
   xmlns:svg="http://www.w3.org/2000/svg"
   xmlns="http://www.w3.org/2000/svg"
   viewBox="0 0 441.25 276.25"
   height="276.25"
   width="441.25"
   xml:space="preserve"
   version="1.1"
   id="svg2"><metadata
     id="metadata8"><rdf:RDF><cc:Work
         rdf:about=""><dc:format>image/svg+xml</dc:format><dc:type
           rdf:resource="http://purl.org/dc/dcmitype/StillImage" /></cc:Work></rdf:RDF></metadata><defs
     id="defs6" /><g
     transform="matrix(1.25,0,0,-1.25,0,276.25)"
     id="g10"><g
       transform="scale(0.1,0.1)"
       id="g12"><path
         id="path14"
         style="fill:#2a3282;fill-opacity:1;fill-rule:nonzero;stroke:none"
         d="m 3227.3,483.602 0,1517.578 c 0,75.24 -68.78,199.22 -151.21,199.22 l -2629.61,0 c -82.378,0 -164.8,-123.98 -164.8,-199.22 l 0,-1517.578 C -13.5195,167.59 0.078125,167.59 0.078125,167.59 0.078125,78.0195 82.5,10.0117 185.699,10.0117 l 3152.001,0 c 103.2,0 185.58,75.1875 185.58,157.5783 L 3227.3,483.602 Z m -1222.42,-343.204 -549.57,0 c -27.22,0 -55.23,13.59 -55.23,27.192 l 61.6,103.199 c 0,13.59 20.82,20.82 48.01,20.82 l 439.22,0 c 20.78,0 41.6,-7.23 41.6,-20.82 L 2059.3,167.59 c 0.78,-20 -27.19,-27.192 -54.42,-27.192 z m 1092.03,350.391 -2684.801,0 0,1496.801 c 0,34.41 34.371,82.42 75.192,82.42 l 2540.789,0 c 41.6,0 68.82,-48.01 68.82,-82.42 l 0,-1496.801 z" /></g></g></svg>