<?xml version="1.0" encoding="UTF-8" standalone="no"?>
<svg
   xmlns:dc="http://purl.org/dc/elements/1.1/"
   xmlns:cc="http://creativecommons.org/ns#"
   xmlns:rdf="http://www.w3.org/1999/02/22-rdf-syntax-ns#"
   xmlns:svg="http://www.w3.org/2000/svg"
   xmlns="http://www.w3.org/2000/svg"
   viewBox="0 0 63.75 67.5"
   height="67.5"
   width="63.75"
   xml:space="preserve"
   version="1.1"
   id="svg2"><metadata
     id="metadata8"><rdf:RDF><cc:Work
         rdf:about=""><dc:format>image/svg+xml</dc:format><dc:type
           rdf:resource="http://purl.org/dc/dcmitype/StillImage" /></cc:Work></rdf:RDF></metadata><defs
     id="defs6" /><g
     transform="matrix(1.25,0,0,-1.25,0,67.5)"
     id="g10"><g
       transform="scale(0.1,0.1)"
       id="g12"><path
         id="path14"
         style="fill:#00188f;fill-opacity:1;fill-rule:nonzero;stroke:none"
         d="m 412.07,375.59 -36.8,0 c 0,-67.969 -55.192,-123.211 -123.2,-123.211 -68.011,0 -123.199,55.242 -123.199,123.211 l -36.8007,0 c 0,-60.789 33.5897,-112.781 83.1997,-140 l 16.019,-97.578 C 143.281,115.59 110.469,66.8008 110.469,10 l 39.222,0 c 0,56.0195 45.579,101.602 101.598,101.602 55.981,0 101.602,-45.5825 101.602,-101.602 l 40,0 c 0,56.8008 -33.629,105.59 -80.821,128.012 l 16.02,97.578 c 50.39,27.219 83.98,80 83.98,140 z" /><path
         id="path16"
         style="fill:#00188f;fill-opacity:1;fill-rule:nonzero;stroke:none"
         d="m 298.91,313.91 c 0,-25.672 -20.789,-46.41 -46.41,-46.41 -25.621,0 -46.41,20.738 -46.41,46.41 0,25.621 20.789,46.36 46.41,46.36 25.621,0 46.41,-20.739 46.41,-46.36 z" /><path
         id="path18"
         style="fill:#00188f;fill-opacity:1;fill-rule:nonzero;stroke:none"
         d="m 496.02,414.961 0,61.598 -30.43,0 0,-61.598 -7.192,0 0,61.598 -30.386,0 0,-61.598 -350.3909,0 0,61.598 -30.4297,0 0,-61.598 -7.1914,0 0,61.598 -30.39062,0 0,-61.598 -9.60938,0 0,-24.801 9.60938,0 0,-64.769 30.39062,0 0,64.769 7.1914,0 0,-64.769 30.4297,0 0,64.769 350.3909,0 0,-64.769 30.386,0 0,64.769 7.192,0 0,-64.769 30.43,0 0,64.769 9.57,0 0,24.801 -9.57,0 z" /><path
         id="path20"
         style="fill:#00188f;fill-opacity:1;fill-rule:nonzero;stroke:none"
         d="m 243.629,473.281 18.4023,0 0,63.1992 -18.4023,0 0,-63.1992 z" /><path
         id="path22"
         style="fill:#00188f;fill-opacity:1;fill-rule:nonzero;stroke:none"
         d="m 252.461,443.398 c 3.199,0 6.41,0.782 8.789,3.204 2.422,2.378 3.199,4.769 3.199,7.187 0,3.199 -1.597,5.582 -3.199,7.191 -2.379,1.598 -4.801,3.2 -8.789,3.2 -3.981,0 -6.41,-0.782 -8.012,-3.2 -2.379,-2.39 -3.199,-3.992 -3.199,-7.191 0,-3.199 1.602,-5.59 3.199,-7.187 1.602,-1.602 4.813,-3.204 8.012,-3.204 z" /></g></g></svg>