<?xml version="1.0" encoding="UTF-8" standalone="no"?>
<svg
   xmlns:dc="http://purl.org/dc/elements/1.1/"
   xmlns:cc="http://creativecommons.org/ns#"
   xmlns:rdf="http://www.w3.org/1999/02/22-rdf-syntax-ns#"
   xmlns:svg="http://www.w3.org/2000/svg"
   xmlns="http://www.w3.org/2000/svg"
   viewBox="0 0 318.75 431.25"
   height="431.25"
   width="318.75"
   xml:space="preserve"
   version="1.1"
   id="svg2"><metadata
     id="metadata8"><rdf:RDF><cc:Work
         rdf:about=""><dc:format>image/svg+xml</dc:format><dc:type
           rdf:resource="http://purl.org/dc/dcmitype/StillImage" /></cc:Work></rdf:RDF></metadata><defs
     id="defs6" /><g
     transform="matrix(1.25,0,0,-1.25,0,431.25)"
     id="g10"><g
       transform="scale(0.1,0.1)"
       id="g12"><path
         id="path14"
         style="fill:#2a3282;fill-opacity:1;fill-rule:nonzero;stroke:none"
         d="m 2437.62,1815.61 c -55.24,0 -103.21,-48.01 -103.21,-103.2 l 0,-384.81 -968,975.2 0,501.6 c 130.39,41.6 226.4,164.81 226.4,308.79 0,178.4 -144.02,329.61 -329.61,329.61 -178.4,0 -329.61,-143.98 -329.61,-329.61 0,-143.98 96.02,-268.01 226.41,-308.79 l 0,-501.6 -953.59,-947.19 0,356.8 c 0,55.19 -48.012,103.2 -103.211,103.2 C 48.0117,1815.61 0,1767.6 0,1712.41 L 0,998 l 714.41,0 c 55.199,0 103.211,48 103.211,103.2 0,55.19 -48.012,103.2 -103.211,103.2 l -364.019,0 810.389,810.39 0,-1613.591 L 900,662.02 c -41.602,41.558 -103.199,41.558 -143.98,0 -20.821,-20.821 -27.231,-48.008 -27.231,-75.239 0,-27.179 7.231,-55.191 27.231,-75.191 L 1257.62,9.98828 1759.22,511.59 c 41.56,41.601 41.56,103.199 0,144.019 -41.6,40.782 -103.2,41.602 -144.02,0 l -248.79,-248.007 0,1607.188 803.2,-803.2 -336.8,0 c -55.19,0 -103.2,-48.01 -103.2,-103.2 0,-55.2 48.01,-103.21 103.2,-103.21 l 714.38,0 0,707.23 c -6.41,61.6 -54.38,103.2 -109.57,103.2 z" /></g></g></svg>