<?xml version="1.0" encoding="UTF-8" standalone="no"?>
<svg
   xmlns:dc="http://purl.org/dc/elements/1.1/"
   xmlns:cc="http://creativecommons.org/ns#"
   xmlns:rdf="http://www.w3.org/1999/02/22-rdf-syntax-ns#"
   xmlns:svg="http://www.w3.org/2000/svg"
   xmlns="http://www.w3.org/2000/svg"
   viewBox="0 0 248.75 335"
   height="335"
   width="248.75"
   xml:space="preserve"
   version="1.1"
   id="svg2"><metadata
     id="metadata8"><rdf:RDF><cc:Work
         rdf:about=""><dc:format>image/svg+xml</dc:format><dc:type
           rdf:resource="http://purl.org/dc/dcmitype/StillImage" /></cc:Work></rdf:RDF></metadata><defs
     id="defs6" /><g
     transform="matrix(1.25,0,0,-1.25,0,335)"
     id="g10"><g
       transform="scale(0.1,0.1)"
       id="g12"><path
         id="path14"
         style="fill:#2a3282;fill-opacity:1;fill-rule:nonzero;stroke:none"
         d="m 1860.78,1554.78 -130.39,0 0,350.43 c 0,508.01 -322.38,768.79 -700.78,768.79 l -61.598,0 c -384.813,0 -700.821,-254.41 -700.821,-768.79 l 0,-20.82 247.219,0 0,20.82 c 0,322.38 172,542.38 460,542.38 l 61.61,0 c 295.19,0 460,-220 460,-542.38 l 0,-343.2 -1365.629,0 C 75.1992,1562.01 0,1486.81 0,1431.62 L 0,140.41 C 0,85.2109 75.1992,10.0195 130.391,10.0195 l 1723.199,0 c 55.2,0 130.39,75.1914 130.39,130.3905 l 0,1290.39 c 0,55.19 -75.19,123.98 -123.2,123.98 z m -769.57,-755.19 0,-535.981 -191.991,0 0,535.981 C 823.98,834 768.789,909.199 768.789,998.801 c 0,123.989 103.199,226.409 226.41,226.409 124.021,0 226.401,-103.2 226.401,-226.409 0.78,-89.602 -54.41,-165.582 -130.39,-199.211 z" /></g></g></svg>