<?xml version="1.0" encoding="UTF-8" standalone="no"?>
<svg
   xmlns:dc="http://purl.org/dc/elements/1.1/"
   xmlns:cc="http://creativecommons.org/ns#"
   xmlns:rdf="http://www.w3.org/1999/02/22-rdf-syntax-ns#"
   xmlns:svg="http://www.w3.org/2000/svg"
   xmlns="http://www.w3.org/2000/svg"
   viewBox="0 0 248.75 322.5"
   height="322.5"
   width="248.75"
   xml:space="preserve"
   version="1.1"
   id="svg2"><metadata
     id="metadata8"><rdf:RDF><cc:Work
         rdf:about=""><dc:format>image/svg+xml</dc:format><dc:type
           rdf:resource="http://purl.org/dc/dcmitype/StillImage" /></cc:Work></rdf:RDF></metadata><defs
     id="defs6" /><g
     transform="matrix(1.25,0,0,-1.25,0,322.5)"
     id="g10"><g
       transform="scale(0.1,0.1)"
       id="g12"><path
         id="path14"
         style="fill:#2a3282;fill-opacity:1;fill-rule:nonzero;stroke:none"
         d="m 1854.41,1562.01 -130.43,0 0,240 c 0,508.01 -322.38,768.79 -700.78,768.79 l -61.598,0 c -384.801,0 -700.821,-254.41 -700.821,-768.79 l 0,-240 -130.39,0 C 75.1992,1562.01 0,1486.82 0,1431.58 L 0,140.41 C 0,85.2109 75.1992,10.0195 130.391,10.0195 l 1723.199,0 c 55.2,0 130.39,75.1914 130.39,130.3905 l 0,1291.17 c -6.36,55.24 -81.6,130.43 -129.57,130.43 z m -769.61,-762.42 0,-535.981 -191.991,0 0,535.981 c -75.188,34.41 -130.43,109.609 -130.43,199.219 0,123.981 103.211,226.401 226.41,226.401 124.021,0 226.411,-103.2 226.411,-226.401 0,-82.418 -54.42,-157.618 -130.4,-199.219 z m 398.4,762.42 -981.598,0 0,240 c 0,322.38 171.988,542.38 460,542.38 l 61.598,0 c 295.2,0 460,-220 460,-542.38 l 0,-240 z" /></g></g></svg>