<?xml version="1.0" encoding="UTF-8" standalone="no"?>
<svg
   xmlns:dc="http://purl.org/dc/elements/1.1/"
   xmlns:cc="http://creativecommons.org/ns#"
   xmlns:rdf="http://www.w3.org/1999/02/22-rdf-syntax-ns#"
   xmlns:svg="http://www.w3.org/2000/svg"
   xmlns="http://www.w3.org/2000/svg"
   viewBox="0 0 327.5 473.75"
   height="473.75"
   width="327.5"
   xml:space="preserve"
   version="1.1"
   id="svg2"><metadata
     id="metadata8"><rdf:RDF><cc:Work
         rdf:about=""><dc:format>image/svg+xml</dc:format><dc:type
           rdf:resource="http://purl.org/dc/dcmitype/StillImage" /></cc:Work></rdf:RDF></metadata><defs
     id="defs6" /><g
     transform="matrix(1.25,0,0,-1.25,0,473.75)"
     id="g10"><g
       transform="scale(0.1,0.1)"
       id="g12"><path
         id="path14"
         style="fill:#2a3282;fill-opacity:1;fill-rule:nonzero;stroke:none"
         d="m 2383.2,3622 c -55.19,55.19 -109.61,96.01 -178.4,130.39 l -75.19,-34.38 0,-625.62 c -34.41,-109.57 -151.21,-192 -274.41,-199.18 -123.99,0 -233.6,82.38 -274.42,191.99 l 0,640 -75.19,27.19 c -61.61,-34.38 -123.99,-75.2 -178.4,-130.39 -302.39,-302.39 -302.39,-783.21 0,-1084.81 48.01,-48.01 89.61,-89.61 144.02,-123.98 0,0 27.19,-13.6 41.6,-27.19 l 0,-2032.032 c 0,-185.59 164.81,-343.2067 350.39,-343.2067 185.59,0 336.8,157.6167 336.8,343.2067 l 0,2039.222 c 75.2,34.37 130.39,82.38 185.59,143.98 300,302.42 300,783.2 -2.39,1084.81 z M 1854.41,216.41 c -75.19,0 -137.61,61.602 -137.61,137.578 0,76.012 61.6,137.614 137.61,137.614 75.2,0 137.58,-61.602 137.58,-137.614 0,-75.976 -61.6,-137.578 -137.58,-137.578 z" /><path
         id="path16"
         style="fill:#2a3282;fill-opacity:1;fill-rule:nonzero;stroke:none"
         d="M 0.78125,113.211 C 0.78125,58.0117 48.7891,10 103.98,10 l 412.04,0 c 55.191,0 103.199,48.0117 103.199,103.211 l 0,927.179 -618.43775,0 0,-927.179 z" /><path
         id="path18"
         style="fill:#2a3282;fill-opacity:1;fill-rule:nonzero;stroke:none"
         d="m 515.199,1590 -103.211,0 0,1372.82 68.793,343.2 0,480.78 -343.16,0 0,-480.78 68.789,-343.2 0,-1373.64 -103.211,0 C 48.0117,1589.18 0,1533.99 0,1479.61 l 0,-301.6 618.398,0 0,302.38 c 0,54.42 -48.007,109.61 -103.199,109.61 z" /></g></g></svg>