<?xml version="1.0" encoding="UTF-8" standalone="no"?>
<svg
   xmlns:dc="http://purl.org/dc/elements/1.1/"
   xmlns:cc="http://creativecommons.org/ns#"
   xmlns:rdf="http://www.w3.org/1999/02/22-rdf-syntax-ns#"
   xmlns:svg="http://www.w3.org/2000/svg"
   xmlns="http://www.w3.org/2000/svg"
   viewBox="0 0 395 267.5"
   height="267.5"
   width="395"
   xml:space="preserve"
   version="1.1"
   id="svg2"><metadata
     id="metadata8"><rdf:RDF><cc:Work
         rdf:about=""><dc:format>image/svg+xml</dc:format><dc:type
           rdf:resource="http://purl.org/dc/dcmitype/StillImage" /></cc:Work></rdf:RDF></metadata><defs
     id="defs6" /><g
     transform="matrix(1.25,0,0,-1.25,0,267.5)"
     id="g10"><g
       transform="scale(0.1,0.1)"
       id="g12"><path
         id="path14"
         style="fill:#2a3282;fill-opacity:1;fill-rule:nonzero;stroke:none"
         d="M 0,2138.8 0,10.0117 l 3158.4,0 0,2128.7883 -3158.4,0 z m 3021.6,-1991.21 -2883.979,0 0,1511.21 2883.979,0 0,-1511.21 z" /><path
         id="path16"
         style="fill:#2a3282;fill-opacity:1;fill-rule:nonzero;stroke:none"
         d="m 480.781,354 480.82,0 0,480.82 -480.82,0 0,-480.82 z" /><path
         id="path18"
         style="fill:#2a3282;fill-opacity:1;fill-rule:nonzero;stroke:none"
         d="m 996.02,937.199 -549.61,0 0,549.611 549.61,0 0,-549.611 z m -480.821,68.791 411.992,0 0,412.03 -411.992,0 0,-412.03 z" /><path
         id="path20"
         style="fill:#2a3282;fill-opacity:1;fill-rule:nonzero;stroke:none"
         d="m 1820,319.578 -549.61,0 0,549.613 549.61,0 0,-549.613 z m -480.78,68.832 411.99,0 0,411.988 -411.99,0 0,-411.988 z" /><path
         id="path22"
         style="fill:#2a3282;fill-opacity:1;fill-rule:nonzero;stroke:none"
         d="m 1304.8,971.609 480.777,0 0,480.781 -480.777,0 0,-480.781 z" /><path
         id="path24"
         style="fill:#2a3282;fill-opacity:1;fill-rule:nonzero;stroke:none"
         d="m 2128.79,354 480.82,0 0,480.82 -480.82,0 0,-480.82 z" /><path
         id="path26"
         style="fill:#2a3282;fill-opacity:1;fill-rule:nonzero;stroke:none"
         d="m 2643.98,937.199 -549.57,0 0,549.611 549.57,0 0,-549.611 z m -480.78,68.791 412,0 0,412.03 -412,0 0,-412.03 z" /></g></g></svg>