<?xml version="1.0" encoding="UTF-8" standalone="no"?>
<svg
   xmlns:dc="http://purl.org/dc/elements/1.1/"
   xmlns:cc="http://creativecommons.org/ns#"
   xmlns:rdf="http://www.w3.org/1999/02/22-rdf-syntax-ns#"
   xmlns:svg="http://www.w3.org/2000/svg"
   xmlns="http://www.w3.org/2000/svg"
   viewBox="0 0 33.75 27.5"
   height="27.5"
   width="33.75"
   xml:space="preserve"
   version="1.1"
   id="svg2"><metadata
     id="metadata8"><rdf:RDF><cc:Work
         rdf:about=""><dc:format>image/svg+xml</dc:format><dc:type
           rdf:resource="http://purl.org/dc/dcmitype/StillImage" /></cc:Work></rdf:RDF></metadata><defs
     id="defs6" /><g
     transform="matrix(1.25,0,0,-1.25,0,27.5)"
     id="g10"><g
       transform="scale(0.1,0.1)"
       id="g12"><path
         id="path14"
         style="fill:#2a3282;fill-opacity:1;fill-rule:nonzero;stroke:none"
         d="m 253.59,215.602 -240.0002,0 C 6.41016,215.602 0,209.191 0,202.012 L 0,23.6094 C 0,16.3789 6.41016,10.0117 13.5898,10.0117 l 240.0002,0 c 7.191,0 13.601,6.3672 13.601,13.5977 l 0,178.4026 c 0,8 -6.41,13.59 -13.601,13.59 z m -20,-27.192 -101.602,-78.398 -100.7771,79.179 202.3791,0 0,-0.781 z M 28.0117,37.1992 l 0,119.1798 95.9683,-74.3673 c 2.43,-2.4336 5.629,-3.2109 8.829,-3.2109 3.211,0 5.589,0.7773 8.793,3.2109 l 100,77.5663 0,-121.5975 -213.5903,0 0,-0.7813 z" /></g></g></svg>