<?xml version="1.0" encoding="UTF-8" standalone="no"?>
<svg
   xmlns:dc="http://purl.org/dc/elements/1.1/"
   xmlns:cc="http://creativecommons.org/ns#"
   xmlns:rdf="http://www.w3.org/1999/02/22-rdf-syntax-ns#"
   xmlns:svg="http://www.w3.org/2000/svg"
   xmlns="http://www.w3.org/2000/svg"
   viewBox="0 0 62.5 51.25"
   height="51.25"
   width="62.5"
   xml:space="preserve"
   version="1.1"
   id="svg2"><metadata
     id="metadata8"><rdf:RDF><cc:Work
         rdf:about=""><dc:format>image/svg+xml</dc:format><dc:type
           rdf:resource="http://purl.org/dc/dcmitype/StillImage" /></cc:Work></rdf:RDF></metadata><defs
     id="defs6" /><g
     transform="matrix(1.25,0,0,-1.25,0,51.25)"
     id="g10"><g
       transform="scale(0.1,0.1)"
       id="g12"><path
         id="path14"
         style="fill:#2a3282;fill-opacity:1;fill-rule:evenodd;stroke:none"
         d="m 191.602,329.609 c -70.391,0 -127.1918,-56.8 -127.1918,-127.23 0,-70.391 56.8008,-127.1876 127.1918,-127.1876 70.386,0 127.187,56.7966 127.187,127.1876 0,70.43 -56.801,127.23 -127.187,127.23 z m 0,-230.3902 c -56.801,0 -102.3832,46.3592 -102.3832,103.9802 0,56.801 46.3712,103.199 103.1602,103.199 56.84,0 103.211,-46.398 103.211,-103.199 C 294.801,145.578 248.398,99.2188 191.602,99.2188 Z" /><path
         id="path16"
         style="fill:#2a3282;fill-opacity:1;fill-rule:evenodd;stroke:none"
         d="m 480.391,401.602 -340.782,0 c -7.23,-0.782 -12.808,-6.411 -12.808,-14.411 l 0,-57.582 c 10.39,4.801 20.82,8.789 31.988,11.993 l 0,28.007 304.02,0 0,-200 -132.028,0 c -2.383,-11.211 -6.371,-21.597 -11.992,-31.988 l 161.602,0 c 8.007,0 14.41,6.359 14.41,14.367 l 0,235.203 c 0,8 -6.403,14.411 -14.41,14.411 z" /><path
         id="path18"
         style="fill:#2a3282;fill-opacity:1;fill-rule:evenodd;stroke:none"
         d="m 106.801,117.621 c -4.813,4.758 -12.0002,4.758 -16.801,0 l -8.7891,-8.832 c -6.4101,0.82 -11.9921,-0.777 -16.8007,-5.59 L 6.01953,44.8008 c -8.00781,-8 -8.00781,-20.8203 0,-28.7891 7.96097,-7.99998 20.78127,-7.99998 28.78127,0 l 58.3984,58.3985 c 4.8125,4.8086 6.4102,11.1679 5.5899,16.8007 L 107.621,100 c 3.981,4.801 3.981,12.809 -0.82,17.621 z" /><path
         id="path20"
         style="fill:#2a3282;fill-opacity:1;fill-rule:nonzero;stroke:none"
         d="m 425.199,256.801 -20.789,42.418 -37.609,-37.617 -38.403,76.796 -31.207,-47.187 c 3.2,-3.199 5.618,-7.231 8.829,-10.391 l 20.781,31.168 36.789,-72.769 37.621,37.582 16.801,-32.821 23.199,0 0,12.821 -16.012,0 z" /><path
         id="path22"
         style="fill:#2a3282;fill-opacity:1;fill-rule:nonzero;stroke:none"
         d="m 264.41,259.219 -47.219,-75.239 -51.171,70.43 -38.399,-58.398 -28.0116,0 c 0,-8 3.1996,-15.192 5.5896,-22.422 l 33.59,0 28.012,42.422 50.39,-72.032 59.219,93.641 c -2.43,7.18 -6.41,15.188 -12,21.598 z" /></g></g></svg>