<?xml version="1.0" encoding="UTF-8" standalone="no"?>
<svg
   xmlns:dc="http://purl.org/dc/elements/1.1/"
   xmlns:cc="http://creativecommons.org/ns#"
   xmlns:rdf="http://www.w3.org/1999/02/22-rdf-syntax-ns#"
   xmlns:svg="http://www.w3.org/2000/svg"
   xmlns="http://www.w3.org/2000/svg"
   viewBox="0 0 40 38.75"
   height="38.75"
   width="40"
   xml:space="preserve"
   version="1.1"
   id="svg2"><metadata
     id="metadata8"><rdf:RDF><cc:Work
         rdf:about=""><dc:format>image/svg+xml</dc:format><dc:type
           rdf:resource="http://purl.org/dc/dcmitype/StillImage" /></cc:Work></rdf:RDF></metadata><defs
     id="defs6" /><g
     transform="matrix(1.25,0,0,-1.25,0,38.75)"
     id="g10"><g
       transform="scale(0.1,0.1)"
       id="g12"><path
         id="path14"
         style="fill:#2a3282;fill-opacity:1;fill-rule:nonzero;stroke:none"
         d="m 300.781,306.801 -283.1599,0 C 8.01172,306.801 0,298.012 0,288.398 L 0,90 C 0,80.3906 8.01172,73.9883 17.6211,73.9883 l 96.7889,0 C 124.801,37.1914 110.391,29.1797 49.6094,29.1797 l 0,-19.1797 222.3786,0 0,19.1797 c -61.597,0 -80.777,8.0117 -70.386,44.8086 l 99.179,0 C 310.391,73.9883 320,80.3906 320,90 l 0,198.398 c 0,9.614 -9.609,18.403 -19.219,18.403 z m -4.761,-23.981 0,-184.0309 -272.0395,0 0,184.0309 272.0395,0 z" /></g></g></svg>