<?xml version="1.0" encoding="UTF-8" standalone="no"?>
<svg
   xmlns:dc="http://purl.org/dc/elements/1.1/"
   xmlns:cc="http://creativecommons.org/ns#"
   xmlns:rdf="http://www.w3.org/1999/02/22-rdf-syntax-ns#"
   xmlns:svg="http://www.w3.org/2000/svg"
   xmlns="http://www.w3.org/2000/svg"
   viewBox="0 0 26.25 43.75"
   height="43.75"
   width="26.25"
   xml:space="preserve"
   version="1.1"
   id="svg2"><metadata
     id="metadata8"><rdf:RDF><cc:Work
         rdf:about=""><dc:format>image/svg+xml</dc:format><dc:type
           rdf:resource="http://purl.org/dc/dcmitype/StillImage" /></cc:Work></rdf:RDF></metadata><defs
     id="defs6" /><g
     transform="matrix(1.25,0,0,-1.25,0,43.75)"
     id="g10"><g
       transform="scale(0.1,0.1)"
       id="g12"><path
         id="path14"
         style="fill:#2a3282;fill-opacity:1;fill-rule:nonzero;stroke:none"
         d="m 106.41,310.801 c 12.809,0 23.199,-10.391 23.199,-23.199 l 0,-46.403 c 0,-12.82 -10.39,-23.211 -23.199,-23.211 l 0,-32.769 94.371,0 0,55.98 c 0,51.211 -23.16,104.02 -94.371,104.02 l 0,-34.418 z" /><path
         id="path16"
         style="fill:#2a3282;fill-opacity:1;fill-rule:nonzero;stroke:none"
         d="m 82.3789,287.602 0,-46.403 c 0,-6.41 5.6328,-11.219 12.0313,-11.219 l 11.9998,0 c 6.399,0 11.988,5.629 11.988,11.219 l 0,46.403 c 0,6.41 -5.589,11.207 -11.988,11.207 l -11.9998,0 c -6.3985,0.781 -12.0313,-4.797 -12.0313,-11.207 z" /><path
         id="path18"
         style="fill:#2a3282;fill-opacity:1;fill-rule:nonzero;stroke:none"
         d="M 0,169.98 0,102.801 C 0,50.8008 35.1992,9.98047 94.4102,9.98047 l 11.9998,0 c 59.18,0 94.371,40.82033 94.371,92.82053 l 0,67.179 -200.781,0 z" /><path
         id="path20"
         style="fill:#2a3282;fill-opacity:1;fill-rule:nonzero;stroke:none"
         d="m 94.4102,186 0,32.809 c -12.8086,0 -23.1993,10.39 -23.1993,23.211 l 0,46.359 c 0,12.82 10.3907,23.211 23.1993,23.211 l 0,34.41 C 23.9805,346 0,294.012 0,242.02 L 0,186 l 94.4102,0 z" /></g></g></svg>