<?xml version="1.0" encoding="UTF-8" standalone="no"?>
<svg
   xmlns:dc="http://purl.org/dc/elements/1.1/"
   xmlns:cc="http://creativecommons.org/ns#"
   xmlns:rdf="http://www.w3.org/1999/02/22-rdf-syntax-ns#"
   xmlns:svg="http://www.w3.org/2000/svg"
   xmlns="http://www.w3.org/2000/svg"
   viewBox="0 0 52.5 38.75"
   height="38.75"
   width="52.5"
   xml:space="preserve"
   version="1.1"
   id="svg2"><metadata
     id="metadata8"><rdf:RDF><cc:Work
         rdf:about=""><dc:format>image/svg+xml</dc:format><dc:type
           rdf:resource="http://purl.org/dc/dcmitype/StillImage" /></cc:Work></rdf:RDF></metadata><defs
     id="defs6" /><g
     transform="matrix(1.25,0,0,-1.25,0,38.75)"
     id="g10"><g
       transform="scale(0.1,0.1)"
       id="g12"><path
         id="path14"
         style="fill:#2a3282;fill-opacity:1;fill-rule:evenodd;stroke:none"
         d="m 23.9805,282.02 0,23.98 L 0,306 0,9.98047 l 23.9805,0 0,64.03123 16.0195,0 0,-31.9922 88.012,0 0,-24.0312 135.968,0 0,24.0312 40,0 0,-24.0312 80,0 0,24.0312 32.04,0 0,240.0005 -392.0395,0 z M 383.98,74.0117 l -135.968,0 0,23.9766 -144.032,0 0,64.0317 -63.1987,0 0,-64.0317 -16.8008,0 0,119.9997 16.8008,0 0,-15.968 95.2387,0 0,40 103.98,0 0,-88.008 -103.98,0 0,40 -95.2387,0 0,-24.032 71.2067,0 0,-63.98 136.024,0 0,23.98 135.968,0 0,-55.9683 z" /></g></g></svg>