<?xml version="1.0" encoding="UTF-8" standalone="no"?>
<svg
   xmlns:dc="http://purl.org/dc/elements/1.1/"
   xmlns:cc="http://creativecommons.org/ns#"
   xmlns:rdf="http://www.w3.org/1999/02/22-rdf-syntax-ns#"
   xmlns:svg="http://www.w3.org/2000/svg"
   xmlns="http://www.w3.org/2000/svg"
   viewBox="0 0 35 35"
   height="35"
   width="35"
   xml:space="preserve"
   version="1.1"
   id="svg2"><metadata
     id="metadata8"><rdf:RDF><cc:Work
         rdf:about=""><dc:format>image/svg+xml</dc:format><dc:type
           rdf:resource="http://purl.org/dc/dcmitype/StillImage" /></cc:Work></rdf:RDF></metadata><defs
     id="defs6" /><g
     transform="matrix(1.25,0,0,-1.25,0,35)"
     id="g10"><g
       transform="scale(0.1,0.1)"
       id="g12"><path
         id="path14"
         style="fill:#e91c24;fill-opacity:1;fill-rule:nonzero;stroke:none"
         d="M 140,280 C 62.3789,280 0,216.801 0,140 0,62.3789 62.3789,0 140,0 c 76.801,0 140,62.3789 140,140 0,76.801 -62.379,140 -140,140 z M 32.8086,140 c 0,23.199 7.9727,45.59 20.7812,63.199 L 203.199,53.5898 C 185.59,40 163.98,32.8086 140,32.8086 80.7813,32.8086 32.8086,80.7813 32.8086,140 Z M 226.41,76.8008 76.8008,226.41 c 17.6094,12.809 39.2192,20.781 63.1992,20.781 59.219,0 107.191,-47.972 107.191,-107.191 0,-23.98 -7.972,-45.5898 -20.781,-63.1992 z" /></g></g></svg>