<?xml version="1.0" encoding="UTF-8" standalone="no"?>
<svg
   xmlns:dc="http://purl.org/dc/elements/1.1/"
   xmlns:cc="http://creativecommons.org/ns#"
   xmlns:rdf="http://www.w3.org/1999/02/22-rdf-syntax-ns#"
   xmlns:svg="http://www.w3.org/2000/svg"
   xmlns="http://www.w3.org/2000/svg"
   viewBox="0 0 81.25 73.75"
   height="73.75"
   width="81.25"
   xml:space="preserve"
   version="1.1"
   id="svg2"><metadata
     id="metadata8"><rdf:RDF><cc:Work
         rdf:about=""><dc:format>image/svg+xml</dc:format><dc:type
           rdf:resource="http://purl.org/dc/dcmitype/StillImage" /></cc:Work></rdf:RDF></metadata><defs
     id="defs6" /><g
     transform="matrix(1.25,0,0,-1.25,0,73.75)"
     id="g10"><g
       transform="scale(0.1,0.1)"
       id="g12"><path
         id="path14"
         style="fill:#00188f;fill-opacity:1;fill-rule:evenodd;stroke:none"
         d="m 398.98,177.012 c -21.992,-16.992 -47.96,-25 -73.98,-25 -28.012,0 -55,10 -78.012,28.008 -0.968,12.96 0,33.98 8.012,55 6.02,0 11.02,0 18.012,2.96 3.008,-2.96 5.968,-5.968 10.968,-7.96 12.04,-9.032 25,-17.04 35,-23.008 -0.968,-6.024 1.02,-11.992 5,-16.992 8.008,-11.02 24.032,-13.008 34.032,-4.032 1.988,1.992 3.976,4.032 5,6.024 18.976,-4.032 35,-5 46.988,-5 -3.98,-4.032 -6.02,-6.992 -11.02,-10 z M 225,342.98 c -3.012,-11.992 -3.98,-28.98 5,-48.98 -11.02,-13.012 -11.02,-31.02 0,-43.98 l 3.012,-3.008 c -4.032,-15 -6.024,-30 -6.992,-41.992 C 195,247.012 196.988,302.012 225,342.98 Z m 26.02,27.04 c 5.968,5 12.96,8.98 20,12.96 8.98,-13.98 20,-27.96 32.96,-40.968 C 293.012,334 281.988,325.02 270,312.98 c -1.02,-1.992 -3.012,-2.96 -3.98,-5 -7.04,1.02 -13.008,1.02 -20,-0.968 C 235,330.02 235,349 236.988,360.02 c 5,2.96 8.012,5.968 14.032,10 z m 152.96,-3.008 c -18.98,3.976 -47.96,3.008 -80.968,-15 -11.024,11.988 -21.992,25 -34.032,36.988 12.04,3.98 25,6.02 38.008,6.02 26.024,0 53.012,-10 76.992,-28.008 z M 366.02,209 c -1.02,3.012 -2.04,6.988 -4.032,10 -8.008,10 -21.988,11.988 -31.988,6.02 -11.02,5.968 -21.988,12.96 -33.012,21.992 -1.988,1.988 -3.976,3.976 -6.988,5.968 6.988,11.02 8.012,25 1.02,37.04 L 295,294 c 11.02,11.02 21.988,18.98 31.988,26.02 15,-14.032 31.992,-27.04 46.992,-39.032 -3.98,-8.976 -2.96,-18.976 3.008,-26.988 9.032,-11.988 25,-13.98 38.012,-5 1.02,0 1.02,1.02 1.988,1.02 11.024,-8.008 20,-14.032 25,-17.04 -3.008,-8.98 -8.008,-17.96 -13.976,-26.992 -10,-3.008 -31.024,-5.968 -61.992,3.012 z m 76.992,33.012 c -5,3.976 -11.992,8.976 -21.024,15.968 3.012,8.008 1.992,18.008 -3.976,25 -8.012,11.02 -24.032,13.008 -34.032,7.04 -11.992,10.968 -25.968,25 -40,38.98 42.04,23.012 74.032,21.02 77.04,21.02 0,-1.02 0.968,-1.02 1.992,-2.04 23.008,-30.968 28.976,-70.968 20,-105.968 z M 436.02,357.98 c -27.04,36.02 -70,55 -111.02,55 -31.02,0 -60,-8.98 -85,-28.98 -61.02,-46.988 -73.98,-135 -26.02,-196.02 28.008,-35.968 70,-55 111.02,-55 31.02,0 60,9.032 85,29.032 C 471.02,209 483.012,297.98 436.02,357.98 Z M 86.0195,137.012 128.98,110.988 l 0,53.012 -42.9605,25 0,-51.988 z M 501.02,164 l 0,-53.012 42.96,26.024 0,51.988 -42.96,-25 z M 315,539 270,515.988 315,487.98 360,515.988 315,539 Z M 472.699,188.879 495,175.02 l 45,27.96 -45,22.04 -8.09,-4.032 c -3.629,-11.168 -8.39,-21.91 -14.211,-32.109 z m -26.679,-35.27 0,-16.597 42.96,-26.024 0,53.012 -23.281,13.59 C 459.879,169 453.281,160.988 446.02,153.609 Z M 360,106.621 360,80.9883 c 0,-8.9766 6.988,-15.9688 15,-15.9688 l 85,0 C 470,32.0117 456.988,27.0117 401.988,27.0117 l 0,-16.9922 186.024,0 0,17.961 c -54.032,0 -60,5 -51.024,37.039 l 86.024,0 c 8.976,0 16.988,7.961 16.988,15.9688 l 0,174.0317 c 1.02,7.96 -8.012,15.968 -16.02,15.968 l -128.98,0 c -0.078,-7.687 -0.66,-15.386 -1.801,-23.008 l 125.781,0 0,-161.9917 -236.992,0 0,26.8007 C 374.801,110.25 367.461,108.18 360,106.621 Z M 178.711,186.5 140,164 l 0,-53.012 43.012,26.024 0,42.5 c -1.492,2.297 -2.934,4.609 -4.301,6.988 z M 167.5,209.121 135,225.02 88.9805,202.98 135,175.02 l 37.301,23.199 c -1.711,3.551 -3.321,7.191 -4.801,10.902 z m -12.5,61.867 -140,0 C 6.98828,270.988 0,264 0,255.02 L 0,80.9883 C 0,72.0117 6.98828,65.0195 15,65.0195 l 85,0 C 110,32.0117 96.9883,27.0117 41.9883,27.0117 l 0,-16.9922 186.0237,0 0,17.961 c -54.032,0 -60,5 -51.024,37.039 l 86.024,0 c 8.976,0 16.988,7.961 16.988,15.9688 l 0,28.1327 c -7.148,1.91 -14.18,4.328 -21.02,7.18 l 0,-30.3127 -236.9917,0 0,161.9917 134.8127,0 c -1.141,7.622 -1.723,15.321 -1.801,23.008 z m 153.98,171.211 0,35.781 -42.96,25 0,-52.96 19.878,-11.61 c 7.622,1.801 15.313,3.051 23.082,3.789 z m 39.219,-0.82 14.813,8.641 0,51.992 L 320,477.98 l 0,-35.07 c 9.41,0.27 18.871,-0.238 28.199,-1.531 z M 453.789,384 c 3.711,3.09 6.211,7.5 6.211,11.988 l 0,174.032 c 1.02,6.992 -8.012,13.98 -16.02,13.98 L 195,584 c -8.012,0 -15,-6.988 -15,-16.02 L 180,394 c 0,-7.699 5.121,-13.91 11.602,-15.59 6.168,7.781 12.968,15 20.386,21.61 l -10,0 0,161.992 236.992,0 0,-161.992 -0.968,0 c 5.617,-5 10.898,-10.36 15.777,-16.02 z" /></g></g></svg>