<?xml version="1.0" encoding="UTF-8" standalone="no"?>
<svg
   xmlns:dc="http://purl.org/dc/elements/1.1/"
   xmlns:cc="http://creativecommons.org/ns#"
   xmlns:rdf="http://www.w3.org/1999/02/22-rdf-syntax-ns#"
   xmlns:svg="http://www.w3.org/2000/svg"
   xmlns="http://www.w3.org/2000/svg"
   viewBox="0 0 42.5 43.75"
   height="43.75"
   width="42.5"
   xml:space="preserve"
   version="1.1"
   id="svg2"><metadata
     id="metadata8"><rdf:RDF><cc:Work
         rdf:about=""><dc:format>image/svg+xml</dc:format><dc:type
           rdf:resource="http://purl.org/dc/dcmitype/StillImage" /></cc:Work></rdf:RDF></metadata><defs
     id="defs6" /><g
     transform="matrix(1.25,0,0,-1.25,0,43.75)"
     id="g10"><g
       transform="scale(0.1,0.1)"
       id="g12"><path
         id="path14"
         style="fill:#2a3282;fill-opacity:1;fill-rule:nonzero;stroke:none"
         d="m 168.012,291.59 c -62.422,0 -113.6018,-51.18 -113.6018,-113.602 0,-62.379 51.1798,-113.5896 113.6018,-113.5896 62.379,0 113.59,51.2106 113.59,113.5896 0,62.422 -50.391,113.602 -113.59,113.602 z m 36.789,-110.391 c 0,-20 -16.012,-36.801 -36.789,-36.801 -20.821,0 -36.801,16.012 -36.801,36.801 0,20 15.98,36.789 36.801,36.789 11.207,0 20.777,-4.797 27.187,-12.769 l 69.602,27.191 4.808,-11.211 -66.41,-36.801 c 1.602,-1.597 1.602,-2.378 1.602,-3.199 z" /><path
         id="path16"
         style="fill:#2a3282;fill-opacity:1;fill-rule:nonzero;stroke:none"
         d="M 168.012,346 C 75.1992,346 0,270.801 0,177.988 0,85.2188 75.1992,9.98047 168.012,9.98047 260.781,9.98047 336.02,85.2188 336.02,177.988 336.02,270.801 260.781,346 168.012,346 Z m 0,-307.1914 c -76.8011,0 -138.4026,62.3904 -138.4026,138.4024 0,76.801 62.3789,138.398 138.4026,138.398 76.789,0 138.398,-62.418 138.398,-138.398 C 307.191,101.199 244.801,38.8086 168.012,38.8086 Z" /></g></g></svg>