<?xml version="1.0" encoding="UTF-8" standalone="no"?>
<svg
   xmlns:dc="http://purl.org/dc/elements/1.1/"
   xmlns:cc="http://creativecommons.org/ns#"
   xmlns:rdf="http://www.w3.org/1999/02/22-rdf-syntax-ns#"
   xmlns:svg="http://www.w3.org/2000/svg"
   xmlns="http://www.w3.org/2000/svg"
   viewBox="0 0 62.5 51.25"
   height="51.25"
   width="62.5"
   xml:space="preserve"
   version="1.1"
   id="svg2"><metadata
     id="metadata8"><rdf:RDF><cc:Work
         rdf:about=""><dc:format>image/svg+xml</dc:format><dc:type
           rdf:resource="http://purl.org/dc/dcmitype/StillImage" /></cc:Work></rdf:RDF></metadata><defs
     id="defs6" /><g
     transform="matrix(1.25,0,0,-1.25,0,51.25)"
     id="g10"><g
       transform="scale(0.1,0.1)"
       id="g12"><path
         id="path14"
         style="fill:#2a3282;fill-opacity:1;fill-rule:evenodd;stroke:none"
         d="m 192.379,329.609 c -70.391,0 -127.1798,-56.8 -127.1798,-127.23 0,-70.391 56.7888,-127.1876 127.1798,-127.1876 70.43,0 127.23,56.7966 127.23,127.1876 0,70.43 -56.8,127.23 -127.23,127.23 z M 191.602,99.2188 C 134.801,99.2188 89.2188,145.578 89.2188,203.199 89.2188,260 135.59,306.398 192.379,306.398 249.219,305.578 295.59,260 295.59,202.379 295.59,145.578 249.219,99.2188 191.602,99.2188 Z" /><path
         id="path16"
         style="fill:#2a3282;fill-opacity:1;fill-rule:evenodd;stroke:none"
         d="m 481.211,401.602 -341.602,0 c -7.23,-0.782 -12.808,-6.411 -12.808,-14.411 l 0,-57.582 c 10.39,4.801 20.82,8.789 31.988,11.993 l 0,28.007 304.02,0 0,-200 -131.207,0 c -2.383,-11.211 -6.403,-21.597 -11.993,-31.988 l 161.602,0 c 8.008,0 14.379,6.359 14.379,14.367 l 0,235.203 c 0,8 -6.371,14.411 -14.379,14.411 z" /><path
         id="path18"
         style="fill:#2a3282;fill-opacity:1;fill-rule:evenodd;stroke:none"
         d="m 106.801,117.621 c -4.813,4.758 -12.0002,4.758 -16.801,0 l -8.7891,-8.832 c -6.4101,0.82 -11.9921,-0.777 -16.8007,-5.59 L 6.01953,44.8008 c -8.00781,-8 -8.00781,-20.8203 0,-28.7891 7.96097,-7.99998 20.78127,-7.99998 28.78127,0 l 58.3984,58.3985 c 4.8125,4.8086 6.4102,11.1679 5.5899,16.8007 L 107.621,100 c 3.981,4.801 3.981,12.809 -0.82,17.621 z" /><path
         id="path20"
         style="fill:#2a3282;fill-opacity:1;fill-rule:nonzero;stroke:none"
         d="m 425.199,256.801 -20.789,42.418 -37.609,-37.617 -38.403,76.796 -31.207,-47.187 c 3.2,-3.199 6.399,-6.41 8.829,-10.391 l 20.781,31.168 36.789,-72.769 37.621,37.582 16.801,-32.821 23.199,0 0,12.821 -16.012,0 z" /><path
         id="path22"
         style="fill:#2a3282;fill-opacity:1;fill-rule:nonzero;stroke:none"
         d="m 265.199,259.219 -47.187,-75.239 -50.391,70.43 -38.402,-58.398 -28.008,0 c 0,-8 3.199,-15.192 5.59,-22.422 l 33.59,0 28.007,42.422 50.391,-72.032 59.223,92.821 c -3.211,8 -8.012,16.008 -12.813,22.418 z" /></g></g></svg>