<?xml version="1.0" encoding="UTF-8" standalone="no"?>
<svg
   xmlns:dc="http://purl.org/dc/elements/1.1/"
   xmlns:cc="http://creativecommons.org/ns#"
   xmlns:rdf="http://www.w3.org/1999/02/22-rdf-syntax-ns#"
   xmlns:svg="http://www.w3.org/2000/svg"
   xmlns="http://www.w3.org/2000/svg"
   viewBox="0 0 28.75 43.75"
   height="43.75"
   width="28.75"
   xml:space="preserve"
   version="1.1"
   id="svg2"><metadata
     id="metadata8"><rdf:RDF><cc:Work
         rdf:about=""><dc:format>image/svg+xml</dc:format><dc:type
           rdf:resource="http://purl.org/dc/dcmitype/StillImage" /></cc:Work></rdf:RDF></metadata><defs
     id="defs6" /><g
     transform="matrix(1.25,0,0,-1.25,0,43.75)"
     id="g10"><g
       transform="scale(0.1,0.1)"
       id="g12"><path
         id="path14"
         style="fill:#2a3282;fill-opacity:1;fill-rule:nonzero;stroke:none"
         d="m 202.379,346.801 -180.7774,0 C 9.60938,346.801 0,336.41 0,323.602 L 0,33.2109 C 0,20.3906 9.60938,10 21.6016,10 l 180.7774,0 c 12.031,0 21.601,10.3906 21.601,23.2109 l 0,290.3911 c 0,12.808 -9.57,23.199 -21.601,23.199 z m -123.9806,-15.199 68.0116,0 c 5.578,0 9.61,-0.821 9.61,-4.801 0,-4.801 -4.032,-4.801 -9.61,-4.801 l -68.0116,0 c -5.5898,0 -9.6093,0 -9.6093,4.801 0,3.98 4.8007,4.801 9.6093,4.801 z m 53.5896,-296.7934 -38.3982,0 c -3.9804,0 -7.1796,3.2031 -7.1796,8.0117 0,3.9805 3.1992,7.961 7.1796,7.961 l 38.3982,0 c 4.032,0 7.231,-3.9805 7.231,-7.961 0,-4.0312 -3.199,-8.0117 -7.231,-8.0117 z M 200,66.8008 l -176.0195,0 0,240.0002 176.0195,0 0,-240.0002 z" /></g></g></svg>