<?xml version="1.0" encoding="UTF-8" standalone="no"?>
<svg
   xmlns:dc="http://purl.org/dc/elements/1.1/"
   xmlns:cc="http://creativecommons.org/ns#"
   xmlns:rdf="http://www.w3.org/1999/02/22-rdf-syntax-ns#"
   xmlns:svg="http://www.w3.org/2000/svg"
   xmlns="http://www.w3.org/2000/svg"
   viewBox="0 0 51.25 66.25"
   height="66.25"
   width="51.25"
   xml:space="preserve"
   version="1.1"
   id="svg2"><metadata
     id="metadata8"><rdf:RDF><cc:Work
         rdf:about=""><dc:format>image/svg+xml</dc:format><dc:type
           rdf:resource="http://purl.org/dc/dcmitype/StillImage" /></cc:Work></rdf:RDF></metadata><defs
     id="defs6" /><g
     transform="matrix(1.25,0,0,-1.25,0,66.25)"
     id="g10"><g
       transform="scale(0.1,0.1)"
       id="g12"><path
         id="path14"
         style="fill:#2a3282;fill-opacity:1;fill-rule:nonzero;stroke:none"
         d="m 0,522 0,-240 40,0 0,16.02 C 40,311.609 52.8086,322 68.0117,322 l 75.9683,0 0,16.02 16.02,0 0,-32.04 71.988,0 0,-20 -71.988,0 0,-40 71.988,0 0,-20 -71.988,0 0,-31.992 -16.02,0 0,16.024 -75.9683,0 C 51.9883,210.012 40,221.219 40,233.988 l 0,16.024 -40,0 L 0,10.0117 408.012,265.98 0,522 Z" /></g></g></svg>