<?xml version="1.0" encoding="UTF-8" standalone="no"?>
<svg
   xmlns:dc="http://purl.org/dc/elements/1.1/"
   xmlns:cc="http://creativecommons.org/ns#"
   xmlns:rdf="http://www.w3.org/1999/02/22-rdf-syntax-ns#"
   xmlns:svg="http://www.w3.org/2000/svg"
   xmlns="http://www.w3.org/2000/svg"
   viewBox="0 0 31.25 33.75"
   height="33.75"
   width="31.25"
   xml:space="preserve"
   version="1.1"
   id="svg2"><metadata
     id="metadata8"><rdf:RDF><cc:Work
         rdf:about=""><dc:format>image/svg+xml</dc:format><dc:type
           rdf:resource="http://purl.org/dc/dcmitype/StillImage" /></cc:Work></rdf:RDF></metadata><defs
     id="defs6" /><g
     transform="matrix(1.25,0,0,-1.25,0,33.75)"
     id="g10"><g
       transform="scale(0.1,0.1)"
       id="g12"><path
         id="path14"
         style="fill:#2a3282;fill-opacity:1;fill-rule:nonzero;stroke:none"
         d="m 191.211,260.398 -157.6212,0 C 15.1992,260.398 0,245.199 0,226.809 L 0,43.6016 C 0,25.1992 15.1992,10.0117 33.5898,10.0117 l 174.4222,0 c 18.398,0 33.59,15.1875 33.59,33.5899 l 0,167.1874 -50.391,49.609 z m 29.57,-216.7964 c 0,-7.1797 -5.582,-12.8125 -12.769,-12.8125 l -174.4222,0 c -7.1796,0 -12.8085,5.6328 -12.8085,12.8125 l 0,183.2074 c 0,7.179 5.6289,12.812 12.8085,12.812 l 147.1912,0 0,-40.82 40,0 0,-155.1994 z" /><path
         id="path16"
         style="fill:#2a3282;fill-opacity:1;fill-rule:evenodd;stroke:none"
         d="m 175.199,78.8008 0,-0.7813 c -0.789,-4.8086 -6.41,-9.6093 -11.219,-9.6093 l -41.601,0 c -4.758,0 -7.969,4.8007 -7.18,9.6093 l 0,0.7813 c 1.602,4.8008 6.403,8.789 11.211,8.789 l 41.602,0 c 5.578,0.8204 8.789,-3.2109 7.187,-8.789 z M 63.9805,72.3906 C 60.7813,76.4219 62.3789,82 67.1914,85.1992 L 140.781,136.422 93.5898,188.41 c -3.1992,3.199 -1.6015,8.789 3.211,12.77 l 0.8203,0 c 2.3789,1.601 7.1799,2.422 10.3909,-1.559 L 153.59,148.41 160,142 c 3.199,-3.199 3.98,-10.391 0.781,-13.59 l -7.972,-5.629 -73.5902,-51.1716 c -5.629,-3.1992 -12.0274,-3.1992 -15.2383,0.7812 z" /></g></g></svg>