<?xml version="1.0" encoding="UTF-8" standalone="no"?>
<svg
   xmlns:dc="http://purl.org/dc/elements/1.1/"
   xmlns:cc="http://creativecommons.org/ns#"
   xmlns:rdf="http://www.w3.org/1999/02/22-rdf-syntax-ns#"
   xmlns:svg="http://www.w3.org/2000/svg"
   xmlns="http://www.w3.org/2000/svg"
   viewBox="0 0 38.75 40"
   height="40"
   width="38.75"
   xml:space="preserve"
   version="1.1"
   id="svg2"><metadata
     id="metadata8"><rdf:RDF><cc:Work
         rdf:about=""><dc:format>image/svg+xml</dc:format><dc:type
           rdf:resource="http://purl.org/dc/dcmitype/StillImage" /></cc:Work></rdf:RDF></metadata><defs
     id="defs6" /><g
     transform="matrix(1.25,0,0,-1.25,0,40)"
     id="g10"><g
       transform="scale(0.1,0.1)"
       id="g12"><path
         id="path14"
         style="fill:#dc5b26;fill-opacity:1;fill-rule:nonzero;stroke:none"
         d="m 207.191,245.988 0,-44.797 44.797,0 c 0,24.797 -20,44.797 -44.797,44.797 z" /><path
         id="path16"
         style="fill:#dc5b26;fill-opacity:1;fill-rule:nonzero;stroke:none"
         d="m 96.8008,200.398 c -4.8125,2.391 -8.7891,1.614 -13.6016,0.793 -2.4179,-0.793 -1.5976,-2.39 -1.5976,-3.992 l 0,-28.789 c 4.8086,-0.82 8.0078,-1.601 12.8086,-0.82 7.1918,2.422 9.5698,8.789 10.3908,16.019 0,6.403 -0.821,13.59 -8.0002,16.789 z" /><path
         id="path18"
         style="fill:#dc5b26;fill-opacity:1;fill-rule:nonzero;stroke:none"
         d="m 296.801,278.801 -117.582,0 0,36.801 L 0,284.391 0,41.1914 179.219,10.0117 l 0,40.7891 118.402,0 c 4.758,0 7.969,4.0195 7.969,8 l 0,211.2112 c -0.789,4.808 -3.988,8.789 -8.789,8.789 z M 126.41,176.379 C 123.98,164.391 116.801,154 105.59,149.191 97.6211,145.988 90.3906,146.809 82.3789,147.59 l 0,-40.781 c -5.5781,0.781 -10.3906,0.781 -15.1875,1.601 -1.6016,0.781 -5.5898,0 -5.5898,1.602 l 0,107.187 c 0,2.379 -0.8203,2.379 1.5976,2.379 10.3906,0.82 20,1.613 29.6094,1.613 11.1714,0 21.6014,-1.613 28.7934,-11.179 5.589,-8.821 6.41,-22.422 4.808,-33.633 z m 168.789,-115.9806 -115.98,0 0,24.8125 85.582,0 0,14.3672 -85.582,0 0,18.4019 85.582,0 0,13.641 -85.582,0 0,20.777 c 6.371,-3.207 12.769,-4.808 20,-4.808 24.761,0 44.761,20 44.761,44.808 l -44.761,0 0,45.582 c -7.231,0 -14.418,-1.601 -20,-4.761 l 0,35.191 115.98,0 0,-208.0116 z" /></g></g></svg>