<?xml version="1.0" encoding="UTF-8" standalone="no"?>
<svg
   xmlns:dc="http://purl.org/dc/elements/1.1/"
   xmlns:cc="http://creativecommons.org/ns#"
   xmlns:rdf="http://www.w3.org/1999/02/22-rdf-syntax-ns#"
   xmlns:svg="http://www.w3.org/2000/svg"
   xmlns="http://www.w3.org/2000/svg"
   viewBox="0 0 51.25 35"
   height="35"
   width="51.25"
   xml:space="preserve"
   version="1.1"
   id="svg2"><metadata
     id="metadata8"><rdf:RDF><cc:Work
         rdf:about=""><dc:format>image/svg+xml</dc:format><dc:type
           rdf:resource="http://purl.org/dc/dcmitype/StillImage" /></cc:Work></rdf:RDF></metadata><defs
     id="defs6" /><g
     transform="matrix(1.25,0,0,-1.25,0,35)"
     id="g10"><g
       transform="scale(0.1,0.1)"
       id="g12"><path
         id="path14"
         style="fill:#2a3282;fill-opacity:1;fill-rule:nonzero;stroke:none"
         d="M 393.59,280 14.4102,280 C 6.41016,280 0,274.41 0,268.012 L 0,220 c 0,-6.41 6.41016,-11.988 14.4102,-11.988 l 146.3708,0 31.207,34.367 11.992,13.641 12.04,-13.641 31.171,-34.367 146.399,0 c 8.012,0 14.422,5.578 14.422,11.988 l 0,48.012 c 0,6.398 -6.41,11.988 -14.422,11.988 z" /><path
         id="path16"
         style="fill:#2a3282;fill-opacity:1;fill-rule:nonzero;stroke:none"
         d="m 393.59,176.02 -177.57,0 0,15.968 23.98,0 -36.02,40 -35.968,-40 23.976,0 0,-15.968 -177.5778,0 C 6.41016,176.02 0,170.391 0,163.98 l 0,-47.96 c 0,-6.411 6.41016,-12.04 14.4102,-12.04 l 146.3708,0 31.207,34.418 11.992,13.59 12.04,-13.59 31.171,-34.418 146.399,0 c 8.012,0 14.422,5.629 14.422,12.04 l 0,47.96 c 0,6.411 -6.41,12.04 -14.422,12.04 z" /><path
         id="path18"
         style="fill:#2a3282;fill-opacity:1;fill-rule:nonzero;stroke:none"
         d="m 393.59,71.9883 -177.57,0 0,16.0234 23.98,0 -36.02,40.0003 -35.968,-40.0003 23.976,0 0,-16.0234 -177.5778,0 C 6.41016,71.9883 0,66.4102 0,60 L 0,11.9883 C 0,5.58984 6.41016,0 14.4102,0 L 393.59,0 c 8.012,0 14.422,5.58984 14.422,11.9883 l 0,48.0117 c 0,6.4102 -6.41,11.9883 -14.422,11.9883 z" /></g></g></svg>