<?xml version="1.0" encoding="UTF-8" standalone="no"?>
<svg
   xmlns:dc="http://purl.org/dc/elements/1.1/"
   xmlns:cc="http://creativecommons.org/ns#"
   xmlns:rdf="http://www.w3.org/1999/02/22-rdf-syntax-ns#"
   xmlns:svg="http://www.w3.org/2000/svg"
   xmlns="http://www.w3.org/2000/svg"
   viewBox="0 0 76.25 25"
   height="25"
   width="76.25"
   xml:space="preserve"
   version="1.1"
   id="svg2"><metadata
     id="metadata8"><rdf:RDF><cc:Work
         rdf:about=""><dc:format>image/svg+xml</dc:format><dc:type
           rdf:resource="http://purl.org/dc/dcmitype/StillImage" /></cc:Work></rdf:RDF></metadata><defs
     id="defs6" /><g
     transform="matrix(1.25,0,0,-1.25,0,25)"
     id="g10"><g
       transform="scale(0.1,0.1)"
       id="g12"><path
         id="path14"
         style="fill:#2a3282;fill-opacity:1;fill-rule:nonzero;stroke:none"
         d="M 540,10 20,10 C 8.78906,10 0,22.8086 0,33.1992 L 0,173.98 c 0,10.43 8.78906,19.219 20,19.219 l 520,0 c 3.98,0 11.211,0 60,-91.988 L 601.602,98 600,94.8008 C 551.211,10 543.98,10 540,10 Z M 19.2188,180.391 c -4.0196,0 -7.2305,-3.211 -7.2305,-6.411 l 0,-140.7808 c 0,-4.8008 4.0312,-10.3906 7.2305,-10.3906 l 518.4022,0 c 6.359,5.5898 28.789,42.3828 47.969,75.9805 -19.18,36.7889 -41.61,76.0119 -48.789,82.4219 l -517.5822,0 0,-0.82 z" /><path
         id="path16"
         style="fill:#2a3282;fill-opacity:1;fill-rule:nonzero;stroke:none"
         d="m 178.238,160.621 -139.1794,0 c -4.0195,0 -8.0078,-3.199 -8.0078,-8.012 l 0,-103.9801 c 0,-4.0195 3.2109,-8.0078 8.0078,-8.0078 l 139.1794,0 c 4.032,0 8.012,3.1992 8.012,8.0078 l 0,103.9801 c -0.781,4.813 -3.98,8.012 -8.012,8.012 z M 166.25,144.609 107.07,99.0195 48.6719,144.609 l 117.5781,0 z m -120,-88.0074 0,68.8284 56.02,-43.2112 c 1.601,-0.8204 3.199,-1.5977 4.8,-1.5977 1.602,0 3.2,0.7773 4.77,1.5977 l 57.609,44.8122 0,-70.4294 -123.199,0 z" /><path
         id="path18"
         style="fill:#2a3282;fill-opacity:1;fill-rule:nonzero;stroke:none"
         d="m 349.102,160.621 -139.223,0 c -3.981,0 -7.969,-3.199 -7.969,-8.012 l 0,-103.9801 c 0,-4.0195 3.211,-8.0078 7.969,-8.0078 l 139.223,0 c 3.988,0 8.007,3.1992 8.007,8.0078 l 0,103.9801 c 0,4.813 -4.019,8.012 -8.007,8.012 z m -11.993,-16.012 -59.218,-45.5895 -58.403,45.5895 117.621,0 z m -120,-88.0074 0,68.8284 55.981,-43.2112 c 1.601,-0.8204 3.199,-1.5977 4.801,-1.5977 1.597,0 3.199,0.7773 4.808,1.5977 l 57.61,44.8122 0,-70.4294 -123.2,0 z" /><path
         id="path20"
         style="fill:#2a3282;fill-opacity:1;fill-rule:nonzero;stroke:none"
         d="m 519.961,160.621 -139.223,0 c -3.976,0 -7.968,-3.199 -7.968,-8.012 l 0,-103.9801 c 0,-4.0195 3.171,-8.0078 7.968,-8.0078 l 139.223,0 c 3.988,0 8.008,3.1992 8.008,8.0078 l 0,103.9801 c 0,4.813 -4.02,8.012 -8.008,8.012 z m -11.992,-16.012 -59.219,-45.5895 -58.398,45.5895 117.617,0 z M 388.75,56.6016 l 0,68.8284 56.02,-43.2112 c 1.601,-0.8204 3.199,-1.5977 4.8,-1.5977 1.602,0 3.2,0.7773 4.809,1.5977 l 57.57,44.8122 0,-70.4294 -123.199,0 z" /></g></g></svg>