<?xml version="1.0" encoding="UTF-8" standalone="no"?>
<svg
   xmlns:dc="http://purl.org/dc/elements/1.1/"
   xmlns:cc="http://creativecommons.org/ns#"
   xmlns:rdf="http://www.w3.org/1999/02/22-rdf-syntax-ns#"
   xmlns:svg="http://www.w3.org/2000/svg"
   xmlns="http://www.w3.org/2000/svg"
   viewBox="0 0 32.5 43.75"
   height="43.75"
   width="32.5"
   xml:space="preserve"
   version="1.1"
   id="svg2"><metadata
     id="metadata8"><rdf:RDF><cc:Work
         rdf:about=""><dc:format>image/svg+xml</dc:format><dc:type
           rdf:resource="http://purl.org/dc/dcmitype/StillImage" /></cc:Work></rdf:RDF></metadata><defs
     id="defs6" /><g
     transform="matrix(1.25,0,0,-1.25,0,43.75)"
     id="g10"><g
       transform="scale(0.1,0.1)"
       id="g12"><path
         id="path14"
         style="fill:#2a3282;fill-opacity:1;fill-rule:nonzero;stroke:none"
         d="m 71.9883,49.9805 -48.0078,0 0,16.0195 79.9995,0 0,16.0195 -79.9995,0 0,15.9688 79.9995,0 0,57.6207 c 0,6.411 6.411,12.77 12.04,12.77 l 3.199,0 0,11.211 c 0,34.422 19.179,51.211 40.781,54.422 l 0,95.968 c 0,8.829 -7.191,16.02 -16.02,16.02 L 16.0195,346 C 7.19141,346 0,338.809 0,329.98 l 0,-311.9917 71.9883,0 0,31.9922 z m -48.0078,248.0075 112.0395,0 0,-15.968 -112.0395,0 0,15.968 z" /><path
         id="path16"
         style="fill:#2a3282;fill-opacity:1;fill-rule:evenodd;stroke:none"
         d="m 216.801,161.199 -6.41,0 0,13.59 c 0,28.832 -16.801,43.199 -36.801,43.199 l -3.199,0 c -20,0 -36.801,-14.367 -36.801,-43.199 l 0,-13.59 -6.399,0 c -2.39,0 -6.41,-3.988 -6.41,-7.187 l 0,-72.8128 c 0,-3.2109 5.629,-7.1875 8.008,-7.1875 l 88.012,0 c 2.418,0 8,3.9766 8,7.1875 l 0,72.8128 c -0.821,3.199 -4.801,7.187 -8,7.187 z m -40,-43.211 0,-30.3864 -10.391,0 0,30.3864 c -4.031,2.422 -7.191,6.41 -7.191,11.211 0,7.192 5.582,12.821 11.992,12.821 6.41,0 11.988,-5.629 11.988,-12.821 0.781,-4.801 -2.418,-8.789 -6.398,-11.211 z m 20.82,43.211 -51.211,0 0,13.59 c 0,18.402 8.789,30.43 23.981,30.43 l 3.199,0 c 15.199,0 24.031,-12.809 24.031,-30.43 l 0,-13.59 z" /><path
         id="path18"
         style="fill:#2a3282;fill-opacity:1;fill-rule:evenodd;stroke:none"
         d="m 198.398,42.0195 c 0,3.9805 -2.378,7.961 -6.41,7.961 l -8.789,0 -0.82,32.039 -7.18,0 0,-32.039 -8.008,0 0,32.039 -7.972,0 0,-32.039 -9.61,0 c -3.199,0 -6.41,-3.9805 -6.41,-7.961 l 0,-24.0312 c 0,-3.9766 2.391,-8.00783 6.41,-8.00783 l 42.379,0 c 3.211,0 6.41,4.03123 6.41,8.00783 l 0,24.0312 z m -6.41,-24.0312 -40,0 0,24.0312 40,0 0,-24.0312 z" /><path
         id="path20"
         style="fill:#2a3282;fill-opacity:1;fill-rule:evenodd;stroke:none"
         d="m 88.0117,18 63.9766,0 0,24.0195 -63.9766,0 0,-24.0195 z" /><path
         id="path22"
         style="fill:#2a3282;fill-opacity:1;fill-rule:evenodd;stroke:none"
         d="m 191.988,18 64.0234,0 0,24.0195 -64.0234,0 0,-24.0195 z" /></g></g></svg>