<?xml version="1.0" encoding="UTF-8" standalone="no"?>
<svg
   xmlns:dc="http://purl.org/dc/elements/1.1/"
   xmlns:cc="http://creativecommons.org/ns#"
   xmlns:rdf="http://www.w3.org/1999/02/22-rdf-syntax-ns#"
   xmlns:svg="http://www.w3.org/2000/svg"
   xmlns="http://www.w3.org/2000/svg"
   viewBox="0 0 53.75 42.5"
   height="42.5"
   width="53.75"
   xml:space="preserve"
   version="1.1"
   id="svg2"><metadata
     id="metadata8"><rdf:RDF><cc:Work
         rdf:about=""><dc:format>image/svg+xml</dc:format><dc:type
           rdf:resource="http://purl.org/dc/dcmitype/StillImage" /></cc:Work></rdf:RDF></metadata><defs
     id="defs6" /><g
     transform="matrix(1.25,0,0,-1.25,0,42.5)"
     id="g10"><g
       transform="scale(0.1,0.1)"
       id="g12"><path
         id="path14"
         style="fill:#2a3282;fill-opacity:1;fill-rule:evenodd;stroke:none"
         d="m 352.809,186.012 -281.5981,0 c -8.0117,0 -15.1914,-4.813 -15.1914,-11.211 l 0,-56.801 c 0,-6.41 6.3594,-11.211 15.1914,-11.211 l 281.5981,0 c 7.972,0 15.203,4.801 15.203,11.211 l 0,56.801 c 0,5.578 -7.231,11.211 -15.203,11.211 z M 103.98,129.988 c -8.7808,0 -15.9683,7.231 -15.9683,16.024 0,8.789 7.1875,15.968 15.9683,15.968 8.829,0 16.02,-7.179 16.02,-15.968 0,-8.793 -7.191,-16.024 -16.02,-16.024 z m 72.04,0 c -8.829,0 -16.02,7.231 -16.02,16.024 0,8.789 7.191,15.968 16.02,15.968 8.781,0 15.968,-7.179 15.968,-15.968 0,-8.793 -7.187,-16.024 -15.968,-16.024 z m 71.992,0 c -8.793,0 -16.024,7.231 -16.024,16.024 0,8.789 7.231,15.968 16.024,15.968 8.789,0 15.968,-7.179 15.968,-15.968 0,-8.793 -7.179,-16.024 -15.968,-16.024 z m 71.988,0 c -8.789,0 -16.02,7.231 -16.02,16.024 0,8.789 7.231,15.968 16.02,15.968 8.789,0 16.02,-7.179 16.02,-15.968 0,-8.793 -7.231,-16.024 -16.02,-16.024 z" /><path
         id="path16"
         style="fill:#2a3282;fill-opacity:1;fill-rule:evenodd;stroke:none"
         d="m 310.391,266.012 -196.801,0 -57.5705,-56.024 311.9925,0 -57.621,56.024 z" /><path
         id="path18"
         style="fill:#2a3282;fill-opacity:1;fill-rule:nonzero;stroke:none"
         d="m 409.609,312.41 0,-44.801 14.371,13.59 0,56.801 -56.789,0 -14.382,-14.41 45.589,0 -48.007,-47.969 11.211,-11.211 48.007,48 z" /><path
         id="path20"
         style="fill:#2a3282;fill-opacity:1;fill-rule:nonzero;stroke:none"
         d="m 409.609,35.6211 0,44.7578 14.371,-13.5898 0,-56.80082 -56.789,0 -14.382,14.42192 45.589,0 -48.007,48 11.211,11.1796 48.007,-47.9687 z" /><path
         id="path22"
         style="fill:#2a3282;fill-opacity:1;fill-rule:nonzero;stroke:none"
         d="m 22.3789,312.41 0,-44.801 -14.36718,13.59 0,56.801 56.78908,0 13.5976,-14.41 -44.8086,0 48.0118,-47.969 -11.211,-11.211 -48.0117,48 z" /><path
         id="path24"
         style="fill:#2a3282;fill-opacity:1;fill-rule:nonzero;stroke:none"
         d="m 14.4102,35.6211 0,44.7578 L 0,66.7891 0,9.98828 l 56.8008,0 13.5898,14.42192 -44.8008,0 48,48 L 62.3789,83.5898 14.4102,35.6211 Z" /></g></g></svg>