<?xml version="1.0" encoding="UTF-8" standalone="no"?>
<svg
   xmlns:dc="http://purl.org/dc/elements/1.1/"
   xmlns:cc="http://creativecommons.org/ns#"
   xmlns:rdf="http://www.w3.org/1999/02/22-rdf-syntax-ns#"
   xmlns:svg="http://www.w3.org/2000/svg"
   xmlns="http://www.w3.org/2000/svg"
   viewBox="0 0 27.5 40"
   height="40"
   width="27.5"
   xml:space="preserve"
   version="1.1"
   id="svg2"><metadata
     id="metadata8"><rdf:RDF><cc:Work
         rdf:about=""><dc:format>image/svg+xml</dc:format><dc:type
           rdf:resource="http://purl.org/dc/dcmitype/StillImage" /></cc:Work></rdf:RDF></metadata><defs
     id="defs6" /><g
     transform="matrix(1.25,0,0,-1.25,0,40)"
     id="g10"><g
       transform="scale(0.1,0.1)"
       id="g12"><path
         id="path14"
         style="fill:#0078d7;fill-opacity:1;fill-rule:nonzero;stroke:none"
         d="m 54.9609,30.0117 c 0,-1.6015 0,-3.2031 -0.8203,-4.0234 -0.7812,-0.7774 -1.5625,-0.7774 -3.1601,-0.7774 -1.6016,0 -2.4297,0 -3.211,0.7774 -0.8203,0.8203 -0.8203,1.6015 -0.8203,4.0234 0,1.5977 0,3.2071 0.8203,3.9883 0.7813,0.8203 1.6094,0.8203 3.211,0.8203 1.5976,0 2.3789,0 3.1601,-0.8203 0,-0.7812 0.8203,-1.6016 0.8203,-3.9883 z" /><path
         id="path16"
         style="fill:#0078d7;fill-opacity:1;fill-rule:nonzero;stroke:none"
         d="m 88.5508,61.1797 0,-3.1992 -5.582,0 c -0.8204,0 -1.5977,0 -1.5977,-0.7813 -0.8203,0 -1.6016,-0.7773 -2.4219,-1.5976 l -2.3906,-2.3828 c -0.8203,-0.8204 -1.5977,-2.4297 -2.418,-4.0274 l 0,-24.8008 -6.3711,0 0,37.6211 0.7813,0.7774 4.8086,0 0.7812,-0.7774 c 0.8203,-0.832 0,0 0,-0.832 l 0,-5.5781 c 0.8203,1.5976 1.5977,2.3789 3.1992,3.1992 l 2.4297,2.3789 c 0.7813,0.832 1.6016,0.832 2.3789,0.832 l 6.4024,0 c 0,0 0.8281,0 0.8281,-0.832 l 0,-1.6016 c -0.8281,2.4336 -0.8281,1.6016 -0.8281,1.6016 z" /><path
         id="path18"
         style="fill:#0078d7;fill-opacity:1;fill-rule:nonzero;stroke:none"
         d="m 126.172,26.8086 c 0,-0.8203 0,-0.8203 -0.82,-0.8203 l -5.582,0 0,5.6211 c -1.61,-2.418 -4.032,-4.0196 -5.629,-4.8008 -2.379,-0.8203 -3.981,-1.5977 -6.371,-1.5977 -2.418,0 -4.801,0.7774 -7.219,1.5977 -2.3908,0.7812 -3.2112,2.3828 -4.8127,3.9805 -1.5977,1.6093 -2.3789,4.0312 -2.3789,6.4101 -0.7813,2.3789 -0.7813,4.8125 -0.7813,7.1914 0,3.1992 0,5.6211 0.7813,8.8282 0.7812,2.3828 1.6015,4.7617 3.1992,6.3593 1.6016,1.6016 3.2109,3.211 4.8124,4.0313 1.598,0.7812 3.981,1.6015 6.399,1.6015 2.39,0 3.992,-0.8203 5.589,-1.6015 1.602,-0.8203 3.2,-2.4297 5.59,-4.0313 l 0,21.6016 0.821,0.832 c 0.781,0.7774 0.781,0 0.781,0 l 4.019,0 c 0,0 0.782,0 0.782,-0.832 l 0,-54.3711 0.82,0 z m -7.223,25.5898 c -1.609,2.4219 -3.211,4.0235 -5.59,4.8008 -1.597,0.7813 -3.199,1.6016 -5.589,1.6016 -1.598,0 -3.2,-0.8203 -4.02,-1.6016 -0.781,-0.7773 -2.379,-1.5976 -3.199,-3.1992 -0.7815,-1.6016 -1.6018,-3.2109 -1.6018,-4.8086 0,-1.6016 -0.789,-3.2031 -0.789,-4.8008 0,-1.6015 0,-3.9922 0.789,-5.5898 0,-1.6016 0.8203,-3.1992 1.6018,-4.8008 0.82,-1.6016 1.597,-2.3906 2.418,-3.2109 0.781,-0.7774 2.383,-1.5977 3.98,-1.5977 l 2.43,0 c 0.781,0 1.601,0.8203 2.383,1.5977 l 2.379,2.4297 c 0.82,0.7812 1.597,2.3828 3.199,3.2031 l 0,15.9765 1.609,0 z" /><path
         id="path20"
         style="fill:#0078d7;fill-opacity:1;fill-rule:nonzero;stroke:none"
         d="m 171.762,45.9883 c 0,-3.1992 0,-6.4102 -0.782,-8.7891 -0.82,-2.3789 -1.601,-4.8008 -3.21,-6.4101 -1.598,-1.5977 -3.2,-3.1993 -4.801,-3.9805 -1.598,-0.8203 -4.02,-1.5977 -6.41,-1.5977 l -3.2,0 c -0.781,0 -1.597,0.7774 -2.379,0.7774 -0.82,0.8203 -1.601,0.8203 -2.429,1.6015 l -2.379,2.4219 0,-19.2226 -0.82,-0.7774 -4.801,0 c 0,0 -0.781,0 -0.781,0.7774 l 0,52.8203 6.402,0 0,-5.6289 3.207,3.1992 c 0.781,0.832 2.383,1.6094 3.199,2.4297 0.781,0.7812 2.383,0.7812 3.16,1.6015 0.821,0.7774 2.422,0.7774 3.211,0.7774 2.422,0 4.801,-0.7774 6.403,-1.5977 1.597,-0.7812 3.199,-2.3789 4.808,-3.9922 0.82,-1.5976 2.418,-3.9765 2.418,-6.3984 0,-2.3906 -0.816,-5.5898 -0.816,-8.0117 z m -7.192,-0.7774 c 0,1.5977 0,3.9805 -0.82,5.5782 0,1.6093 -0.781,3.2109 -1.602,4.8125 -0.777,1.5976 -1.597,2.3789 -2.378,3.1992 -0.821,0.7773 -2.43,1.5976 -4.032,1.5976 l -2.379,0 c -0.781,0 -1.597,-0.8203 -2.379,-1.5976 l -2.429,-2.3789 C 147.77,55.6016 146.949,54 145.352,53.2188 l 0,-14.418 c 1.597,-2.3789 3.199,-3.9805 5.628,-4.8008 1.598,-0.7812 3.161,-1.6016 5.579,-1.6016 1.601,0 3.211,0.8204 3.992,1.6016 1.597,0.8203 2.418,1.6016 3.199,3.1992 0.82,1.6016 1.602,3.1992 1.602,4.8125 0,1.5977 -0.782,1.5977 -0.782,3.1992 z" /><path
         id="path22"
         style="fill:#0078d7;fill-opacity:1;fill-rule:nonzero;stroke:none"
         d="m 143.398,250.012 -37.578,-37.582 37.578,-37.61 12.813,11.989 -25.59,25.621 25.59,25.59 -12.813,11.992 z" /><path
         id="path24"
         style="fill:#0078d7;fill-opacity:1;fill-rule:nonzero;stroke:none"
         d="m 55.9414,212.898 25.5781,-25.617 -25.5781,-25.59 12.7695,-11.992 37.6171,37.582 -37.6171,37.617 -12.7695,-12 z" /><path
         id="path26"
         style="fill:#0078d7;fill-opacity:1;fill-rule:nonzero;stroke:none"
         d="m 168.789,318.879 -139.9999,0 C 12.8086,318.879 0,306.07 0,290.09 L 0,126.891 C 0,110.871 12.8086,98.1016 28.7891,98.1016 l 155.1909,0 c 16.02,0 28.829,12.7694 28.829,28.7894 l 0,148.007 -44.02,43.981 z m 28.832,-191.988 c 0,-7.231 -5.633,-12.813 -12.82,-12.813 l -155.1916,0 c -7.2305,0 -12.8086,5.582 -12.8086,12.813 l 0,163.199 c 0,7.191 5.5781,12.769 12.8086,12.769 l 132.7696,0 0,-35.968 35.242,0 0,-140 z" /></g></g></svg>