<?xml version="1.0" encoding="UTF-8" standalone="no"?>
<svg
   xmlns:dc="http://purl.org/dc/elements/1.1/"
   xmlns:cc="http://creativecommons.org/ns#"
   xmlns:rdf="http://www.w3.org/1999/02/22-rdf-syntax-ns#"
   xmlns:svg="http://www.w3.org/2000/svg"
   xmlns="http://www.w3.org/2000/svg"
   viewBox="0 0 31.25 33.75"
   height="33.75"
   width="31.25"
   xml:space="preserve"
   version="1.1"
   id="svg2"><metadata
     id="metadata8"><rdf:RDF><cc:Work
         rdf:about=""><dc:format>image/svg+xml</dc:format><dc:type
           rdf:resource="http://purl.org/dc/dcmitype/StillImage" /></cc:Work></rdf:RDF></metadata><defs
     id="defs6" /><g
     transform="matrix(1.25,0,0,-1.25,0,33.75)"
     id="g10"><g
       transform="scale(0.1,0.1)"
       id="g12"><path
         id="path14"
         style="fill:#2a3282;fill-opacity:1;fill-rule:nonzero;stroke:none"
         d="m 191.211,260.398 -157.6212,0 C 15.1992,260.398 0,245.199 0,226.809 L 0,43.6016 C 0,25.1992 15.1992,10.0117 33.5898,10.0117 l 174.4222,0 c 18.398,0 33.59,15.1875 33.59,33.5899 l 0,167.1874 -50.391,49.609 z m 29.57,-216.7964 c 0,-7.1797 -5.582,-12.8125 -12.769,-12.8125 l -174.4222,0 c -7.1796,0 -12.8085,5.6328 -12.8085,12.8125 l 0,183.9884 c 0,7.219 5.6289,12.808 12.8085,12.808 l 147.1912,0 0,-40.777 40,0 0,-156.0194 z" /><path
         id="path16"
         style="fill:#2a3282;fill-opacity:1;fill-rule:nonzero;stroke:none"
         d="m 36.8008,122.781 45.5781,-29.5701 0,16.8011 -31.9883,18.398 31.9883,20 0,16.789 -45.5781,-31.211 0,-11.207 z" /><path
         id="path18"
         style="fill:#2a3282;fill-opacity:1;fill-rule:nonzero;stroke:none"
         d="m 92.8086,72.3906 13.6014,0 34.371,116.0194 -14.371,0 L 92.8086,72.3906 Z" /><path
         id="path20"
         style="fill:#2a3282;fill-opacity:1;fill-rule:nonzero;stroke:none"
         d="m 151.988,149.191 32.813,-20 -32.813,-18.402 0,-16.8007 45.633,29.6137 0,11.207 -45.633,31.179 0,-16.797 z" /></g></g></svg>