<?xml version="1.0" encoding="UTF-8" standalone="no"?>
<svg
   xmlns:dc="http://purl.org/dc/elements/1.1/"
   xmlns:cc="http://creativecommons.org/ns#"
   xmlns:rdf="http://www.w3.org/1999/02/22-rdf-syntax-ns#"
   xmlns:svg="http://www.w3.org/2000/svg"
   xmlns="http://www.w3.org/2000/svg"
   viewBox="0 0 46.25 37.5"
   height="37.5"
   width="46.25"
   xml:space="preserve"
   version="1.1"
   id="svg2"><metadata
     id="metadata8"><rdf:RDF><cc:Work
         rdf:about=""><dc:format>image/svg+xml</dc:format><dc:type
           rdf:resource="http://purl.org/dc/dcmitype/StillImage" /></cc:Work></rdf:RDF></metadata><defs
     id="defs6" /><g
     transform="matrix(1.25,0,0,-1.25,0,37.5)"
     id="g10"><g
       transform="scale(0.1,0.1)"
       id="g12"><path
         id="path14"
         style="fill:#2a3282;fill-opacity:1;fill-rule:evenodd;stroke:none"
         d="m 195.199,214.781 -47.187,27.231 -46.41,-27.231 0,-0.781 46.41,-27.18 47.187,27.18 0,0.781 z" /><path
         id="path16"
         style="fill:#2a3282;fill-opacity:1;fill-rule:evenodd;stroke:none"
         d="m 152.809,176.391 0,-53.602 47.191,27.231 0,53.589 -47.191,-27.218 z" /><path
         id="path18"
         style="fill:#2a3282;fill-opacity:1;fill-rule:evenodd;stroke:none"
         d="m 143.98,176.391 -47.1792,27.218 0,-53.589 47.1792,-27.231 0,53.602 z" /><path
         id="path20"
         style="fill:#2a3282;fill-opacity:1;fill-rule:nonzero;stroke:none"
         d="m 349.609,140.41 c -36.8,-16.801 -44.019,16.801 -60,16.801 -16.019,0 -23.199,-33.602 -60,-16.801 -8.007,3.981 -13.589,-3.199 -13.589,-10.39 0,-100.0005 73.589,-120.0005 73.589,-120.0005 0,0 73.59,20 73.59,120.0005 0,7.191 -4.801,15.191 -13.59,10.39 z" /><path
         id="path22"
         style="fill:#2a3282;fill-opacity:1;fill-rule:evenodd;stroke:none"
         d="M 235.199,28.4219 C 188.789,29.1992 182.379,34 191.211,66.8203 l 20.777,0 C 208.789,74 206.41,82.0117 204.801,90.8008 l -181.6018,0 L 23.9805,267.602 280,266.82 l 0,-95.242 c 3.199,0.82 5.59,1.602 9.609,1.602 5.59,0 10.391,-1.602 14.371,-3.981 l 0,105.582 c 0,8.828 -9.57,16.02 -18.39,16.02 l -268.7892,0 C 8.01172,290.801 0,283.609 0,274 L 0,83.6094 C 0,74.7813 7.19141,66 16.8008,66 l 91.9882,0 C 118.398,30.8008 114.41,27.6016 56.0195,27.6016 l 0,-17.5821 191.9925,0 0,5.5821 c -4.032,3.9882 -8.793,8.0078 -12.813,12.8203 z" /></g></g></svg>