<?xml version="1.0" encoding="UTF-8" standalone="no"?>
<svg
   xmlns:dc="http://purl.org/dc/elements/1.1/"
   xmlns:cc="http://creativecommons.org/ns#"
   xmlns:rdf="http://www.w3.org/1999/02/22-rdf-syntax-ns#"
   xmlns:svg="http://www.w3.org/2000/svg"
   xmlns="http://www.w3.org/2000/svg"
   viewBox="0 0 55 37.5"
   height="37.5"
   width="55"
   xml:space="preserve"
   version="1.1"
   id="svg2"><metadata
     id="metadata8"><rdf:RDF><cc:Work
         rdf:about=""><dc:format>image/svg+xml</dc:format><dc:type
           rdf:resource="http://purl.org/dc/dcmitype/StillImage" /></cc:Work></rdf:RDF></metadata><defs
     id="defs6" /><g
     transform="matrix(1.25,0,0,-1.25,0,37.5)"
     id="g10"><g
       transform="scale(0.1,0.1)"
       id="g12"><path
         id="path14"
         style="fill:#2a3282;fill-opacity:1;fill-rule:nonzero;stroke:none"
         d="m 122.379,290.02 -108.7892,0 C 6.41016,290.02 0,284.391 0,276.391 l 0,-266.3715 136.02,0 0,266.3715 c 0,7.218 -6.411,13.629 -13.641,13.629 z M 111.988,34 l -88.0075,0 0,16.0195 88.0075,0 0,-16.0195 z m 0,32 -88.0075,0 0,16.0117 88.0075,0 0,-16.0117 z m 0,168 -88.0075,0 0,16.02 88.0075,0 0,-16.02 z" /><path
         id="path16"
         style="fill:#2a3282;fill-opacity:1;fill-rule:nonzero;stroke:none"
         d="m 274.41,290.801 -108.82,0 c -7.192,0 -13.602,-5.59 -13.602,-13.59 l 0,-266.4102 136.024,0 0,266.4102 c 0,7.18 -6.41,13.59 -13.602,13.59 z m -10.43,-256.0197 -87.96,0 0,16.0195 87.96,0 0,-16.0195 z m 0,32.039 -87.96,0 0,15.9688 87.96,0 0,-15.9688 z m 0,167.9607 -87.96,0 0,16.02 87.96,0 0,-16.02 z" /><path
         id="path18"
         style="fill:#2a3282;fill-opacity:1;fill-rule:nonzero;stroke:none"
         d="m 426.41,290.02 -108.789,0 c -7.23,0 -13.641,-5.629 -13.641,-13.629 l 0,-266.3715 136.02,0 0,266.3715 c 0,7.218 -6.41,13.629 -13.59,13.629 z M 416.02,34 l -88.008,0 0,16.0195 88.008,0 0,-16.0195 z m 0,32 -88.008,0 0,16.0117 88.008,0 0,-16.0117 z m 0,168 -88.008,0 0,16.02 88.008,0 0,-16.02 z" /></g></g></svg>