<?xml version="1.0" encoding="UTF-8" standalone="no"?>
<svg
   xmlns:dc="http://purl.org/dc/elements/1.1/"
   xmlns:cc="http://creativecommons.org/ns#"
   xmlns:rdf="http://www.w3.org/1999/02/22-rdf-syntax-ns#"
   xmlns:svg="http://www.w3.org/2000/svg"
   xmlns="http://www.w3.org/2000/svg"
   viewBox="0 0 42.5 42.5"
   height="42.5"
   width="42.5"
   xml:space="preserve"
   version="1.1"
   id="svg2"><metadata
     id="metadata8"><rdf:RDF><cc:Work
         rdf:about=""><dc:format>image/svg+xml</dc:format><dc:type
           rdf:resource="http://purl.org/dc/dcmitype/StillImage" /></cc:Work></rdf:RDF></metadata><defs
     id="defs6" /><g
     transform="matrix(1.25,0,0,-1.25,0,42.5)"
     id="g10"><g
       transform="scale(0.1,0.1)"
       id="g12"><path
         id="path14"
         style="fill:#2a3282;fill-opacity:1;fill-rule:nonzero;stroke:none"
         d="m 320,103.199 -307.1914,0 C 5.58984,103.199 0,97.6211 0,90.3906 L 0,12.8086 C 0,5.58984 5.58984,0 12.8086,0 L 320,0 c 7.191,0 12.809,5.58984 12.809,12.8086 l 0,77.582 c 0,7.2305 -5.618,12.8084 -12.809,12.8084 z M 28.0117,12.8086 c -6.4101,0 -11.9922,5.5898 -11.9922,11.9922 0,6.4101 5.5821,12 11.9922,12 6.3985,0 11.9883,-5.5899 11.9883,-12 0,-6.4024 -5.5898,-11.9922 -11.9883,-11.9922 z m 280.0003,4.8125 -67.231,0 c -2.383,0 -3.98,1.5977 -3.98,3.9805 0,2.3789 1.597,3.9882 3.98,3.9882 l 67.231,0 c 2.379,0 3.976,-1.6093 3.976,-3.9882 0,-2.3828 -1.597,-3.9805 -3.976,-3.9805 z m 0,12.7695 -67.231,0 c -2.383,0 -3.98,1.5977 -3.98,4.0196 0,2.3906 1.597,3.9882 3.98,3.9882 l 67.231,0 c 2.379,0 3.976,-1.5976 3.976,-3.9882 0,-2.4219 -1.597,-4.0196 -3.976,-4.0196 z m 0,12.8086 -67.231,0 c -2.383,0 -3.98,1.6016 -3.98,3.9922 0,2.418 1.597,4.0195 3.98,4.0195 l 67.231,0 c 2.379,0 3.976,-1.6015 3.976,-4.0195 0,-2.3906 -1.597,-3.9922 -3.976,-3.9922 z" /><path
         id="path16"
         style="fill:#2a3282;fill-opacity:1;fill-rule:nonzero;stroke:none"
         d="m 320,221.602 -307.1914,0 C 5.58984,221.602 0,216.02 0,208.789 l 0,-77.578 c 0,-7.231 5.58984,-12.813 12.8086,-12.813 l 307.1914,0 c 7.191,0 12.809,5.582 12.809,12.813 l 0,77.578 c 0,7.231 -5.618,12.813 -12.809,12.813 z M 28.0117,131.211 c -6.4101,0 -11.9922,5.59 -11.9922,11.988 0,6.41 5.5821,12 11.9922,12 6.3985,0 11.9883,-5.59 11.9883,-12 0,-6.398 -5.5898,-11.988 -11.9883,-11.988 z m 280.0003,4.809 -67.231,0 c -2.383,0 -3.98,1.601 -3.98,3.98 0,2.379 1.597,3.98 3.98,3.98 l 67.231,0 c 2.379,0 3.976,-1.601 3.976,-3.98 0,-2.379 -1.597,-3.98 -3.976,-3.98 z m 0,12.769 -67.231,0 c -2.383,0 -3.98,1.602 -3.98,4.02 0,2.39 1.597,3.992 3.98,3.992 l 67.231,0 c 2.379,0 3.976,-1.602 3.976,-3.992 0,-2.418 -1.597,-4.02 -3.976,-4.02 z m 0,12.813 -67.231,0 c -2.383,0 -3.98,1.597 -3.98,3.988 0,2.422 1.597,4.019 3.98,4.019 l 67.231,0 c 2.379,0 3.976,-1.597 3.976,-4.019 0,-2.391 -1.597,-3.988 -3.976,-3.988 z" /><path
         id="path18"
         style="fill:#2a3282;fill-opacity:1;fill-rule:nonzero;stroke:none"
         d="M 320,340 12.8086,340 C 5.58984,340 0,334.41 0,327.191 l 0,-77.582 c 0,-7.23 5.58984,-12.808 12.8086,-12.808 l 307.1914,0 c 7.191,0 12.809,5.578 12.809,12.808 l 0,77.582 C 332.809,334.41 327.191,340 320,340 Z M 28.0117,249.609 c -6.4101,0 -11.9922,5.59 -11.9922,11.993 0,6.41 5.5821,11.988 11.9922,11.988 6.3985,0 11.9883,-5.578 11.9883,-11.988 0,-6.403 -5.5898,-11.993 -11.9883,-11.993 z m 280.0003,4.801 -67.231,0 c -2.383,0 -3.98,1.61 -3.98,3.988 0,2.383 1.597,3.981 3.98,3.981 l 67.231,0 c 2.379,0 3.976,-1.598 3.976,-3.981 0,-2.378 -1.597,-3.988 -3.976,-3.988 z m 0,12.781 -67.231,0 c -2.383,0 -3.98,1.598 -3.98,4.02 0,2.379 1.597,3.988 3.98,3.988 l 67.231,0 c 2.379,0 3.976,-1.609 3.976,-3.988 0,-2.422 -1.597,-4.02 -3.976,-4.02 z m 0,12.809 -67.231,0 c -2.383,0 -3.98,1.602 -3.98,3.98 0,2.43 1.597,4.032 3.98,4.032 l 67.231,0 c 2.379,0 3.976,-1.602 3.976,-4.032 0,-1.601 -1.597,-3.98 -3.976,-3.98 z" /></g></g></svg>