<?xml version="1.0" encoding="UTF-8" standalone="no"?>
<svg
   xmlns:dc="http://purl.org/dc/elements/1.1/"
   xmlns:cc="http://creativecommons.org/ns#"
   xmlns:rdf="http://www.w3.org/1999/02/22-rdf-syntax-ns#"
   xmlns:svg="http://www.w3.org/2000/svg"
   xmlns="http://www.w3.org/2000/svg"
   viewBox="0 0 20 42.5"
   height="42.5"
   width="20"
   xml:space="preserve"
   version="1.1"
   id="svg2"><metadata
     id="metadata8"><rdf:RDF><cc:Work
         rdf:about=""><dc:format>image/svg+xml</dc:format><dc:type
           rdf:resource="http://purl.org/dc/dcmitype/StillImage" /></cc:Work></rdf:RDF></metadata><defs
     id="defs6" /><g
     transform="matrix(1.25,0,0,-1.25,0,42.5)"
     id="g10"><g
       transform="scale(0.1,0.1)"
       id="g12"><path
         id="path14"
         style="fill:#2a3282;fill-opacity:1;fill-rule:nonzero;stroke:none"
         d="M 143.98,338 16.0195,338 C 7.19141,338 0,330.809 0,321.98 L 0,9.98828 l 160,0 0,311.99172 c 0,8.829 -7.191,16.02 -16.02,16.02 z m -7.96,-296.0195 -112.0395,0 0,16.0195 112.0395,0 0,-16.0195 z m 0,32.039 -112.0395,0 0,15.9688 112.0395,0 0,-15.9688 z m 0,200.0005 -112.0395,0 0,15.968 112.0395,0 0,-15.968 z" /></g></g></svg>