<?xml version="1.0" encoding="UTF-8" standalone="no"?>
<svg
   xmlns:dc="http://purl.org/dc/elements/1.1/"
   xmlns:cc="http://creativecommons.org/ns#"
   xmlns:rdf="http://www.w3.org/1999/02/22-rdf-syntax-ns#"
   xmlns:svg="http://www.w3.org/2000/svg"
   xmlns="http://www.w3.org/2000/svg"
   viewBox="0 0 42.5 15"
   height="15"
   width="42.5"
   xml:space="preserve"
   version="1.1"
   id="svg2"><metadata
     id="metadata8"><rdf:RDF><cc:Work
         rdf:about=""><dc:format>image/svg+xml</dc:format><dc:type
           rdf:resource="http://purl.org/dc/dcmitype/StillImage" /></cc:Work></rdf:RDF></metadata><defs
     id="defs6" /><g
     transform="matrix(1.25,0,0,-1.25,0,15)"
     id="g10"><g
       transform="scale(0.1,0.1)"
       id="g12"><path
         id="path14"
         style="fill:#2a3282;fill-opacity:1;fill-rule:nonzero;stroke:none"
         d="m 320,113.199 -307.1914,0 C 5.58984,113.199 0,107.609 0,100.391 L 0,22.8086 C 0,15.5781 5.58984,10 12.8086,10 L 320,10 c 7.191,0 12.809,5.5781 12.809,12.8086 l 0,77.5824 c 0,7.218 -5.618,12.808 -12.809,12.808 z M 28.0117,22.8086 c -6.4101,0 -11.9922,5.5898 -11.9922,11.9922 0,6.4101 5.5821,11.9883 11.9922,11.9883 C 34.4102,46.7891 40,41.2109 40,34.8008 40,27.6094 34.4102,22.8086 28.0117,22.8086 Z m 280.0003,3.9805 -67.231,0 c -2.383,0 -3.98,1.6093 -3.98,4.0312 0,2.3789 1.597,3.9805 3.98,3.9805 l 67.231,0 c 2.379,0 3.976,-1.6016 3.976,-3.9805 0,-1.6015 -1.597,-4.0312 -3.976,-4.0312 z m 0,13.6015 -67.231,0 c -2.383,0 -3.98,1.5977 -3.98,4.0196 0,2.3789 1.597,3.9882 3.98,3.9882 l 67.231,0 c 2.379,0 3.976,-1.6093 3.976,-3.9882 0,-2.4219 -1.597,-4.0196 -3.976,-4.0196 z m 0,12.8086 -67.231,0 c -2.383,0 -3.98,1.6016 -3.98,3.9805 0,2.4297 1.597,4.0312 3.98,4.0312 l 67.231,0 c 2.379,0 3.976,-1.6015 3.976,-4.0312 0,-2.3789 -1.597,-3.9805 -3.976,-3.9805 z" /></g></g></svg>