<?xml version="1.0" encoding="UTF-8" standalone="no"?>
<svg
   xmlns:dc="http://purl.org/dc/elements/1.1/"
   xmlns:cc="http://creativecommons.org/ns#"
   xmlns:rdf="http://www.w3.org/1999/02/22-rdf-syntax-ns#"
   xmlns:svg="http://www.w3.org/2000/svg"
   xmlns="http://www.w3.org/2000/svg"
   viewBox="0 0 32.5 42.5"
   height="42.5"
   width="32.5"
   xml:space="preserve"
   version="1.1"
   id="svg2"><metadata
     id="metadata8"><rdf:RDF><cc:Work
         rdf:about=""><dc:format>image/svg+xml</dc:format><dc:type
           rdf:resource="http://purl.org/dc/dcmitype/StillImage" /></cc:Work></rdf:RDF></metadata><defs
     id="defs6" /><g
     transform="matrix(1.25,0,0,-1.25,0,42.5)"
     id="g10"><g
       transform="scale(0.1,0.1)"
       id="g12"><path
         id="path14"
         style="fill:#2a3282;fill-opacity:1;fill-rule:nonzero;stroke:none"
         d="M 143.98,338 16.0195,338 C 7.19141,338 0,330.809 0,321.98 L 0,9.98828 l 88.0117,0 0,31.99222 -64.0312,0 0,16.0195 64.0312,0 0,16.0195 -64.0312,0 0,15.9688 64.0312,0 0,48.0117 8.0078,0 0,8.012 63.9805,0 0,175.968 c 0,8.829 -7.191,16.02 -16.02,16.02 z m -7.96,-63.98 -112.0395,0 0,15.968 112.0395,0 0,-15.968 z" /><path
         id="path16"
         style="fill:#2a3282;fill-opacity:1;fill-rule:evenodd;stroke:none"
         d="m 148.012,106.789 c 5.578,0 10.386,-4.809 10.386,-9.5702 0,-5.629 -4.808,-9.6094 -10.386,-9.6094 -5.633,0 -10.391,4.8008 -10.391,9.6094 0.777,5.5822 4.758,9.5702 10.391,9.5702 z" /><path
         id="path18"
         style="fill:#2a3282;fill-opacity:1;fill-rule:evenodd;stroke:none"
         d="m 166.41,72.4102 c -1.609,7.9687 -2.43,8.789 -10.39,10.3906 l -2.43,0 c -0.781,-2.4219 -4.801,-8 -5.578,-9.6016 -1.602,2.4219 -5.633,8 -6.41,10.3906 l -2.383,0 c -8.008,-1.6093 -8.828,-2.3906 -10.43,-10.3906 l 0,-3.2109 c 0,-3.1992 8.832,-4.7969 18.402,-4.7969 10.43,0 18.399,2.418 18.399,4.7969 1.601,0 1.601,0.8203 0.82,2.4219 z" /><path
         id="path20"
         style="fill:#2a3282;fill-opacity:1;fill-rule:evenodd;stroke:none"
         d="m 211.211,107.609 c 5.59,0 10.391,-4.019 10.391,-9.609 0,-5.5898 -4.801,-9.6094 -10.391,-9.6094 -5.621,0 -10.43,4.0196 -10.43,9.6094 0.821,4.801 4.809,9.609 10.43,9.609 z" /><path
         id="path22"
         style="fill:#2a3282;fill-opacity:1;fill-rule:evenodd;stroke:none"
         d="m 230.391,72.4102 c -1.602,7.9687 -2.379,8.789 -10.391,10.3906 l -2.379,0 c -0.82,-2.4219 -4.812,-8 -6.41,-9.6016 -0.82,2.4219 -5.621,8 -6.41,10.3906 l -2.422,0 C 194.41,81.9805 193.59,81.1992 191.988,73.1992 l 0,-2.3906 c 0,-3.1992 8.793,-4.7969 19.223,-4.7969 10.391,0 18.398,2.3789 19.18,4.7969 l 0,1.6016 z" /><path
         id="path24"
         style="fill:#2a3282;fill-opacity:1;fill-rule:evenodd;stroke:none"
         d="m 191.988,43.5781 40,0 0,8.01172 -40,0 0,-8.01172 z" /><path
         id="path26"
         style="fill:#2a3282;fill-opacity:1;fill-rule:evenodd;stroke:none"
         d="m 191.988,27.6094 40,0 0,8.01172 -40,0 0,-8.01172 z" /><path
         id="path28"
         style="fill:#2a3282;fill-opacity:1;fill-rule:evenodd;stroke:none"
         d="m 128.012,43.5781 40,0 0,8.01172 -40,0 0,-8.01172 z" /><path
         id="path30"
         style="fill:#2a3282;fill-opacity:1;fill-rule:evenodd;stroke:none"
         d="m 128.012,27.6094 40,0 0,8.01172 -40,0 0,-8.01172 z" /><path
         id="path32"
         style="fill:#2a3282;fill-opacity:1;fill-rule:evenodd;stroke:none"
         d="m 256.02,98 0,23.98 -8.008,0 0,8.008 -38.403,0 c -9.609,0 -20,-3.199 -28.007,-7.187 l -3.204,0 c -8.789,3.988 -18.398,7.187 -28.007,7.187 l -38.403,0 0,-8.008 -8.008,0 0,-111.99172 147.231,0 0,17.62112 -4.02,0 0,6.4101 8.008,0 0,23.9805 -8.008,0 0,8.0117 8.008,0 0,23.1992 -8.008,0 0,8.7891 8.829,0 z m -104.032,-79.2187 -34.367,0 0,105.6287 34.367,0 c 8.793,0 18.403,-3.211 26.41,-7.191 l 0,-104.8088 c -8.789,3.9882 -17.617,6.3711 -26.41,6.3711 z m 89.614,0 -34.411,0 c -8.793,0 -18.402,-1.5625 -26.41,-5.5821 l 0,104.0198 c 8.008,3.98 16.84,7.191 26.41,7.191 l 34.411,0 0,-105.6287 z" /></g></g></svg>