<?xml version="1.0" encoding="UTF-8" standalone="no"?>
<svg
   xmlns:dc="http://purl.org/dc/elements/1.1/"
   xmlns:cc="http://creativecommons.org/ns#"
   xmlns:rdf="http://www.w3.org/1999/02/22-rdf-syntax-ns#"
   xmlns:svg="http://www.w3.org/2000/svg"
   xmlns="http://www.w3.org/2000/svg"
   viewBox="0 0 41.25 42.5"
   height="42.5"
   width="41.25"
   xml:space="preserve"
   version="1.1"
   id="svg2"><metadata
     id="metadata8"><rdf:RDF><cc:Work
         rdf:about=""><dc:format>image/svg+xml</dc:format><dc:type
           rdf:resource="http://purl.org/dc/dcmitype/StillImage" /></cc:Work></rdf:RDF></metadata><defs
     id="defs6" /><g
     transform="matrix(1.25,0,0,-1.25,0,42.5)"
     id="g10"><g
       transform="scale(0.1,0.1)"
       id="g12"><path
         id="path14"
         style="fill:#2a3282;fill-opacity:1;fill-rule:nonzero;stroke:none"
         d="m 314.219,135.398 -26.41,11.211 c -4.02,1.602 -8.008,3.981 -7.219,4.801 0,0.789 0.82,5.59 0.82,10.391 l 0,21.609 c 0,4.801 -0.82,9.61 -0.82,10.391 0,0.82 3.199,3.199 7.219,4.801 l 26.41,10.386 c 3.98,1.602 6.371,6.41 4.761,11.211 l -12.769,31.211 c -1.602,3.988 -6.41,6.371 -11.211,4.809 l -26.41,-10.43 c -3.981,-1.598 -8,-2.379 -8.789,-1.598 -0.821,0.821 -3.199,4.02 -6.403,8.008 l -15.199,13.59 c -3.199,3.199 -7.179,5.621 -8,6.41 -0.789,0.821 0,4.801 1.602,8.781 l 11.211,26.411 c 1.597,4.019 0,9.609 -4.813,11.211 l -31.211,12.808 c -3.976,1.61 -9.609,0 -11.207,-4.801 l -11.172,-26.41 c -1.597,-3.98 -4.019,-8 -4.808,-7.179 -0.821,0 -5.582,0.781 -10.391,1.601 0,0 -4.801,0.777 -11.211,0.777 -6.398,0 -10.39,-0.777 -10.39,-0.777 -4.797,-0.82 -8.829,-0.82 -10.43,-1.601 -0.777,0 -3.16,3.199 -4.758,7.179 l -10.43,26.41 c -1.601,3.981 -6.41,6.411 -11.171,4.801 L 79.8008,318.602 C 75.7813,317 73.3984,312.199 75,307.391 L 85.3906,280.98 c 1.5977,-3.98 2.418,-7.96 1.5977,-8.781 -0.7774,-0.789 -3.9766,-3.211 -8.0078,-6.41 L 66.2109,250.59 c -3.1992,-3.199 -5.6211,-7.18 -6.4101,-8 -0.8203,-0.789 -4.8008,0 -8.7813,1.601 L 24.6094,255.398 C 20.5898,257 15,255.398 13.3984,250.59 L 0.589844,219.379 c -1.609374,-3.981 0,-9.57 4.800786,-11.168 L 31.8008,197 c 3.9805,-1.602 8,-3.98 7.1797,-4.801 0,-0.789 -0.7813,-5.59 -0.7813,-10.398 l 0,-21.602 c 0,-4.801 0.7813,-8.789 0.7813,-10.39 0,-0.821 -3.1992,-3.2 -7.1797,-4.797 L 5.39063,134.621 C 1.41016,133.02 -1.01953,128.211 0.589844,123.41 L 13.3984,92.1992 C 15,88.2109 19.8008,85.7891 24.6094,87.3906 l 26.4101,10.3907 c 3.9805,1.5976 7.961,2.4177 8.7813,1.5976 0.789,-0.7773 3.2109,-3.9805 6.4101,-7.9687 L 81.4102,76.2188 c 3.1992,-3.1993 7.1796,-5.629 8,-6.4102 0.789,-0.8203 0,-4.7969 -1.6016,-8.8281 L 76.6016,34.6211 c -1.6016,-4.0313 0,-9.6094 4.8086,-11.2109 L 112.621,10.5898 c 3.981,-1.60152 9.57,0 11.168,4.8086 L 135,41.8008 c 1.602,3.9883 3.98,8.0078 4.801,7.1875 0.789,0 5.59,-0.7774 10.398,-1.5977 0,0 4.801,-0.7812 11.211,-0.7812 6.399,0 10.391,0.7812 10.391,0.7812 4.801,0.8203 8.789,0.8203 10.39,1.5977 0.821,0 3.2,-3.1992 4.797,-7.1875 l 10.391,-26.4024 c 1.601,-3.9882 6.41,-6.41012 11.211,-4.8086 l 31.211,12.8204 c 3.988,1.6015 6.41,6.3984 4.808,11.2109 l -10.39,26.3594 c -1.598,4.0312 -2.418,8.0078 -1.598,8.8281 0.777,0.7812 3.981,3.2109 7.969,6.4102 l 15.191,15.1914 c 3.199,3.2109 5.629,7.1914 6.41,7.9687 0.821,0.8201 4.797,0 8.829,-1.5976 l 26.359,-11.1719 c 4.031,-1.5977 9.609,0 11.211,4.8008 l 12.82,31.1798 c -0.82,6.398 -2.43,11.211 -7.191,12.808 z M 159.801,87.3906 C 112.621,87.3906 75,125.789 75,172.199 75,219.379 112.621,257 159.801,257 c 47.187,0 84.808,-37.621 84.808,-84.801 0,-47.187 -38.398,-84.8084 -84.808,-84.8084 z" /></g></g></svg>