<?xml version="1.0" encoding="UTF-8" standalone="no"?>
<svg
   xmlns:dc="http://purl.org/dc/elements/1.1/"
   xmlns:cc="http://creativecommons.org/ns#"
   xmlns:rdf="http://www.w3.org/1999/02/22-rdf-syntax-ns#"
   xmlns:svg="http://www.w3.org/2000/svg"
   xmlns="http://www.w3.org/2000/svg"
   viewBox="0 0 36.25 43.75"
   height="43.75"
   width="36.25"
   xml:space="preserve"
   version="1.1"
   id="svg2"><metadata
     id="metadata8"><rdf:RDF><cc:Work
         rdf:about=""><dc:format>image/svg+xml</dc:format><dc:type
           rdf:resource="http://purl.org/dc/dcmitype/StillImage" /></cc:Work></rdf:RDF></metadata><defs
     id="defs6" /><g
     transform="matrix(1.25,0,0,-1.25,0,43.75)"
     id="g10"><g
       transform="scale(0.1,0.1)"
       id="g12"><path
         id="path14"
         style="fill:#2a3282;fill-opacity:1;fill-rule:evenodd;stroke:none"
         d="m 0,34 96.0195,0 0,15.9805 L 0,49.9805 0,34 Z" /><path
         id="path16"
         style="fill:#2a3282;fill-opacity:1;fill-rule:evenodd;stroke:none"
         d="m 191.988,34 96.0234,0 0,15.9805 -96.0234,0 0,-15.9805 z" /><path
         id="path18"
         style="fill:#2a3282;fill-opacity:1;fill-rule:evenodd;stroke:none"
         d="m 136.02,82.0195 15.9805,0 0,20.7813 -15.9805,0 0,-20.7813 z" /><path
         id="path20"
         style="fill:#2a3282;fill-opacity:1;fill-rule:nonzero;stroke:none"
         d="m 168.789,74.0117 -50.391,0 c -8.007,0 -15.199,-8.0117 -15.199,-16.0234 l 0,-31.9883 c 0,-8.0117 6.41,-16.01953 15.199,-16.01953 l 50.391,0 c 8.012,0 15.191,8.00783 15.191,16.01953 l 0,31.9883 c 0,8.0117 -7.179,16.0234 -15.191,16.0234 z M 168.012,26 120,26 l 0,31.9883 48.012,0 0,-31.9883 z" /><path
         id="path22"
         style="fill:#2a3282;fill-opacity:1;fill-rule:nonzero;stroke:none"
         d="m 180,346 c -11.988,0 -19.219,-3.98 -25.59,-10.391 l -24.019,-27.23 c -1.602,-1.598 -4.801,-3.16 -6.411,-3.16 l -100.7808,0 C 10.3906,305.219 0,294.789 0,282.02 L 0,121.199 C 0,108.379 10.3906,97.9883 23.1992,97.9883 l 242.3908,0 c 12.808,0 23.199,10.3907 23.199,23.2107 l 0,173.59 c 0,8.832 -4.809,19.223 -10.391,25.621 l -16.019,15.199 C 256.02,342.02 248.012,346 236.801,346 L 180,346 Z" /></g></g></svg>