<?xml version="1.0" encoding="UTF-8" standalone="no"?>
<svg
   xmlns:dc="http://purl.org/dc/elements/1.1/"
   xmlns:cc="http://creativecommons.org/ns#"
   xmlns:rdf="http://www.w3.org/1999/02/22-rdf-syntax-ns#"
   xmlns:svg="http://www.w3.org/2000/svg"
   xmlns="http://www.w3.org/2000/svg"
   viewBox="0 0 65 42.5"
   height="42.5"
   width="65"
   xml:space="preserve"
   version="1.1"
   id="svg2"><metadata
     id="metadata8"><rdf:RDF><cc:Work
         rdf:about=""><dc:format>image/svg+xml</dc:format><dc:type
           rdf:resource="http://purl.org/dc/dcmitype/StillImage" /></cc:Work></rdf:RDF></metadata><defs
     id="defs6" /><g
     transform="matrix(1.25,0,0,-1.25,0,42.5)"
     id="g10"><g
       transform="scale(0.1,0.1)"
       id="g12"><path
         id="path14"
         style="fill:#2a3282;fill-opacity:1;fill-rule:nonzero;stroke:none"
         d="M 0,336.398 0,9.98828 l 512.809,0 0,326.40972 -512.809,0 z m 456.801,-256.7964 -183.992,0 0,188.7894 184.812,0 0,-188.7894 -0.82,0 z" /><path
         id="path16"
         style="fill:#2a3282;fill-opacity:1;fill-rule:nonzero;stroke:none"
         d="m 283.98,214.801 41.5977,0 0,43.9805 -41.5977,0 0,-43.9805 z" /><path
         id="path18"
         style="fill:#2a3282;fill-opacity:1;fill-rule:nonzero;stroke:none"
         d="m 343.199,214.801 41.6016,0 0,43.9805 -41.6016,0 0,-43.9805 z" /><path
         id="path20"
         style="fill:#2a3282;fill-opacity:1;fill-rule:nonzero;stroke:none"
         d="m 403.199,214.801 41.6016,0 0,43.9805 -41.6016,0 0,-43.9805 z" /><path
         id="path22"
         style="fill:#2a3282;fill-opacity:1;fill-rule:nonzero;stroke:none"
         d="m 283.98,88.3984 41.5977,0 0,44.0234 -41.5977,0 0,-44.0234 z" /><path
         id="path24"
         style="fill:#2a3282;fill-opacity:1;fill-rule:nonzero;stroke:none"
         d="m 283.98,148.391 160.82,0 0,51.2109 -160.82,0 0,-51.2109 z" /><path
         id="path26"
         style="fill:#2a3282;fill-opacity:1;fill-rule:nonzero;stroke:none"
         d="m 343.98,88.3984 41.5977,0 0,44.0234 -41.5977,0 0,-44.0234 z" /><path
         id="path28"
         style="fill:#2a3282;fill-opacity:1;fill-rule:nonzero;stroke:none"
         d="m 403.199,88.3984 41.6016,0 0,44.0234 -41.6016,0 0,-44.0234 z" /></g></g></svg>