<?xml version="1.0" encoding="UTF-8" standalone="no"?>
<svg
   xmlns:dc="http://purl.org/dc/elements/1.1/"
   xmlns:cc="http://creativecommons.org/ns#"
   xmlns:rdf="http://www.w3.org/1999/02/22-rdf-syntax-ns#"
   xmlns:svg="http://www.w3.org/2000/svg"
   xmlns="http://www.w3.org/2000/svg"
   viewBox="0 0 27.5 30"
   height="30"
   width="27.5"
   xml:space="preserve"
   version="1.1"
   id="svg2"><metadata
     id="metadata8"><rdf:RDF><cc:Work
         rdf:about=""><dc:format>image/svg+xml</dc:format><dc:type
           rdf:resource="http://purl.org/dc/dcmitype/StillImage" /></cc:Work></rdf:RDF></metadata><defs
     id="defs6" /><g
     transform="matrix(1.25,0,0,-1.25,0,30)"
     id="g10"><g
       transform="scale(0.1,0.1)"
       id="g12"><path
         id="path14"
         style="fill:#0078d7;fill-opacity:1;fill-rule:nonzero;stroke:none"
         d="m 112.031,88.4688 -3.203,12.0002 -11.1678,-0.7776 c -0.8204,1.5976 -2.4297,3.1606 -4.0313,4.7576 l 4.0313,9.61 -11.211,6.41 -6.4101,-8.008 c -2.3789,0.82 -4.8086,0.82 -7.1875,0.82 l -4.0235,9.571 -11.9883,-3.161 1.6016,-10.429 c -1.6016,-0.793 -3.2109,-2.391 -4.8125,-3.211 l -9.5703,4.027 -6.3984,-11.2069 8,-6.4102 c -0.8204,-2.3828 -0.8204,-4.8125 -0.8204,-6.4101 l -8.789,-3.9805 3.2109,-11.9922 10.3867,0.7813 c 0.7813,-2.3906 2.3829,-3.9883 3.9805,-5.5899 l -3.9805,-8.789 11.211,-6.4024 6.3711,8 c 2.4179,-0.8164 4.0195,-0.8164 6.3984,-0.8164 l 4.0313,-8.7929 11.9882,3.2109 -0.8203,10.3906 c 1.6016,1.6016 4.0235,2.3789 5.6211,3.9805 l 9.6098,-3.9805 6.371,10.3906 -7.969,6.4102 c 0.777,2.418 0.777,3.9805 0.777,6.3984 l 8.793,3.1993 z M 81.6406,69.2617 c -8.789,-4.8125 -19.1797,-0.7929 -23.9804,8 -4.8086,8.7891 -0.8204,19.2188 8,24.0273 8.789,3.981 19.1796,0.781 23.9882,-8.0077 3.9805,-8.8321 0.7813,-20 -8.0078,-24.0196 z" /><path
         id="path16"
         style="fill:#0078d7;fill-opacity:1;fill-rule:nonzero;stroke:none"
         d="m 146.48,150.391 c -2.421,0.781 -4.8,0.781 -7.179,0.781 l -4.031,9.609 -11.989,-3.203 1.598,-10.387 c -1.598,-0.82 -3.199,-2.429 -4.801,-3.211 l -9.609,3.989 -6.41,-11.207 8.011,-6.371 c -0.781,-2.422 -0.781,-4.813 -0.781,-6.411 l -8.789,-4.019 3.16,-11.992 10.43,0.82 c 0.789,-2.418 2.39,-4.027 3.988,-5.629 l -3.988,-8.7889 11.18,-6.4023 6.402,8 c 2.418,-0.8204 4.027,-0.8204 6.406,-0.8204 l 3.981,-8.7773 12.031,3.1992 -0.82,10.3906 c 1.609,0.8201 4.031,2.4181 5.628,4.0191 l 9.571,-4.0191 6.41,10.4301 -8.008,6.371 c 0.82,2.418 0.82,4.019 0.82,6.398 l 9.61,4.031 -3.211,11.989 -11.211,-0.821 c -0.82,1.602 -2.379,3.2 -3.981,4.801 l 3.981,9.61 -11.207,6.41 -7.192,-8.789 z m 0.79,-43.2 c -8.79,-4.812 -19.18,-0.82 -23.989,7.957 -4.801,8.832 -0.781,19.223 8.008,24.032 8.789,4.8 19.18,0.781 23.981,-8.008 4.031,-8.793 0.82,-20 -8,-23.981 z" /><path
         id="path18"
         style="fill:#0078d7;fill-opacity:1;fill-rule:nonzero;stroke:none"
         d="m 168.789,231.602 -139.9999,0 C 12.8086,231.602 0,218.789 0,202.809 L 0,38.7891 C 0,22.8086 12.8086,10 28.7891,10 L 183.98,10 c 16.02,0 28.829,12.8086 28.829,28.7891 l 0,148.8319 -44.02,43.981 z M 197.621,38.7891 c 0,-7.1875 -5.633,-12.7774 -12.82,-12.7774 l -155.1916,0 c -7.2305,0 -12.8086,5.5899 -12.8086,12.7774 l 0,164.0199 c 0,7.191 5.5781,12.769 12.8086,12.769 l 132.7696,0 0,-35.969 35.242,0 0,-140.8199 z" /></g></g></svg>