<?xml version="1.0" encoding="UTF-8" standalone="no"?>
<svg
   xmlns:dc="http://purl.org/dc/elements/1.1/"
   xmlns:cc="http://creativecommons.org/ns#"
   xmlns:rdf="http://www.w3.org/1999/02/22-rdf-syntax-ns#"
   xmlns:svg="http://www.w3.org/2000/svg"
   xmlns="http://www.w3.org/2000/svg"
   viewBox="0 0 13.75 16.25"
   height="16.25"
   width="13.75"
   xml:space="preserve"
   version="1.1"
   id="svg2"><metadata
     id="metadata8"><rdf:RDF><cc:Work
         rdf:about=""><dc:format>image/svg+xml</dc:format><dc:type
           rdf:resource="http://purl.org/dc/dcmitype/StillImage" /></cc:Work></rdf:RDF></metadata><defs
     id="defs6" /><g
     transform="matrix(1.25,0,0,-1.25,0,16.25)"
     id="g10"><g
       transform="scale(0.1,0.1)"
       id="g12"><path
         id="path14"
         style="fill:#0078d7;fill-opacity:1;fill-rule:nonzero;stroke:none"
         d="m 20,115.59 -4.8008,4.801 c -3.9883,2.418 -8.00779,4.031 -8.00779,4.031 L 1.60156,126.02 C 0.78125,124.422 0,123.602 0,121.211 c 0,-7.223 2.37891,-8.832 2.37891,-8.832 l 19.22269,0 C 20.7813,113.199 20,113.988 20,115.59 Z" /><path
         id="path16"
         style="fill:#0078d7;fill-opacity:1;fill-rule:nonzero;stroke:none"
         d="m 23.1992,16.4102 c 1.6016,1.6015 2.3906,3.9804 2.3906,7.1914 l 0,4.0195 62.4219,0 0,3.9805 c 0,20.7773 18.3983,51.207 18.3983,75.1994 0,19.219 -18.3983,21.597 -18.3983,21.597 l -79.99998,0 c 0,0 14.36718,-3.199 17.57808,-16.019 0.8204,-1.598 0.8204,-3.199 0.8204,-5.578 0,-23.9924 -18.39848,-54.4221 -18.39848,-75.1994 0,-2.4219 0,-5.5821 0.77734,-8 0.82032,-2.3907 1.60154,-3.9922 3.19924,-5.5899 0.8203,-0.8203 1.6015,-1.6015 3.2109,-2.4219 0.8203,-0.7812 2.4219,-1.6015 3.1992,-1.6015 1.6016,0 3.2032,0.8203 4.8008,2.4219 z" /><path
         id="path18"
         style="fill:#0078d7;fill-opacity:1;fill-rule:nonzero;stroke:none"
         d="m 29.6094,22.8086 c 0,-4.0195 -1.5977,-8 -3.1992,-9.6094 C 23.9805,10.7813 19.2188,10 19.2188,10 L 100,10 c 2.379,0 4.801,1.6016 6.41,3.9883 1.602,2.4219 2.379,5.6211 2.379,9.6133 l -19.9999,0 -59.1797,-0.793 z" /><path
         id="path20"
         style="fill:#ffffff;fill-opacity:1;fill-rule:nonzero;stroke:none"
         d="m 63.9805,75.5898 c 0,0 -0.7813,0.8204 -1.6016,0.8204 l -1.5976,-0.8204 -1.5625,0 -0.8204,1.6016 c 0,0 -0.7773,0.8203 0,1.5977 l 0.8204,1.6015 c 0,0.8203 0,0.8203 -0.8204,0.8203 l -3.9882,1.5977 c -0.8204,0 -0.8204,0 -0.8204,-0.8203 l -1.6015,-1.5977 c 0,-0.7812 -0.7774,-0.7812 -0.7774,-0.7812 l -1.6015,0 c -0.8203,0 -1.5977,0.7812 -1.5977,0.7812 l -1.6015,1.5977 c 0,0.8203 -0.8204,0.8203 -0.8204,0.8203 0,0 -0.789,0 -1.6093,-0.8203 -1.6016,0 -2.3789,-0.7774 -2.3789,-0.7774 0,0 -0.8203,-0.8203 -0.8203,-1.6015 l 0.8203,-1.5977 0,-1.6015 -0.8203,-1.6016 c 0,0 -0.7813,-0.8203 -1.5625,0 l -2.418,0.7812 c -0.7813,0 -0.7813,0 -0.7813,-0.7812 L 34.4102,70.7813 C 34.4102,70 34.4102,70 35.1992,70 l 1.6016,-0.8203 c 0.8203,0 0.8203,-0.7813 0.8203,-0.7813 l 0,-1.5976 c 0,-0.7813 0,-0.7813 -0.8203,-1.6016 l -1.6016,-1.5976 c -0.789,0 -0.789,-0.793 -0.789,-0.793 0,0 0,-0.8203 0.789,-1.5977 0.8203,-0.8203 0.8203,-1.6015 0.8203,-1.6015 0,0 0.7813,-0.8203 1.6016,-0.8203 l 1.5977,0.8203 1.5625,0 1.5976,-1.5977 c 0,0 0.8203,-0.8203 0,-1.6015 l 0,-2.4219 c 0,-0.7891 0,-0.7891 0.8203,-0.7891 l 3.9922,-1.5976 c 0.8203,0 0.8203,0 0.8203,0.7773 l 0.7774,1.6094 c 0,0.8203 0.8203,0.8203 0.8203,0.8203 l 1.6015,0 c 0.7774,0 0.7774,0 1.5977,-0.8203 l 0.7812,-1.6094 c 0,-0.7773 0.8204,-0.7773 0.8204,-0.7773 0,0 0.789,0 1.6093,0.7773 1.6016,0 2.3789,0.8203 2.3789,0.8203 0,0 0.8204,0.7891 0.8204,1.6094 l -0.8204,1.6016 0,1.6015 L 60,59.6094 c 0,0 0.7813,0.7812 1.6016,0 l 1.5976,-0.8203 c 0.7813,0 0.7813,0 0.7813,0.8203 l 1.6093,3.9922 c 0,0.8203 0,0.8203 -0.789,0.8203 l -0.8203,0.7773 c -0.7813,0 -0.7813,0.8203 -0.7813,0.8203 l 0,1.6016 c 0,0.7773 0,0.7773 0.7813,1.5586 L 65.5898,70 c 0.8204,0 0.8204,0.7813 0.8204,0.7813 0,0 0,0.8203 -0.8204,1.5976 -0.789,2.4297 -1.6093,3.2109 -1.6093,3.2109 z M 51.9883,63.6016 c -2.3789,-0.793 -4.7969,0 -5.5781,2.4179 -0.8204,2.3789 0,4.7618 2.3789,5.5821 2.4218,0.7773 4.8007,0 5.6211,-2.4219 0.789,-2.3789 0,-4.7578 -2.4219,-5.5781 z" /><path
         id="path22"
         style="fill:#ffffff;fill-opacity:1;fill-rule:nonzero;stroke:none"
         d="m 84.8008,90 -0.8203,0.7813 -1.6016,0 c -0.7773,0 -0.7773,0 -0.7773,0.8203 L 80,93.1992 l 0,0.7891 0.7813,1.6015 0,0.8204 -2.3829,2.3789 -0.7773,0 -1.6016,-0.7774 -0.8203,0 -1.6094,0.7774 -0.7812,0.8203 0,1.6016 c 0,0.777 0,0.777 -0.8203,0.777 l -3.1992,0 -0.7774,-0.777 0,-1.6016 c 0,-0.8203 0,-0.8203 -0.8203,-0.8203 l -1.6016,-0.7774 -0.789,0 -1.6016,1.5977 -0.8203,0 -3.1601,-3.1992 0,-0.8204 0.7812,-1.6015 0,-2.3867 -0.7812,-0.8203 -1.5977,0 c -0.8203,0 -0.8203,0 -0.8203,-0.7813 l 0,-3.1992 0.8203,-0.7813 1.5977,0 c 0.7812,0 0.7812,0 0.7812,-0.8203 l 0.7813,-1.5976 0,-0.793 -1.5625,-2.418 0,-0.7812 2.3828,-2.418 0.7773,0 1.6016,0.8203 0.8203,0 1.6094,-0.8203 0.7812,-0.7812 0,-1.6016 c 0,-0.8203 0,-0.8203 0.8203,-0.8203 l 3.1992,0 0.7774,0.8203 0,1.6016 c 0,0.7812 0,0.7812 0.8203,0.7812 l 1.6016,0.8203 0.789,0 3.1992,-0.8203 0.8204,0 2.3828,2.418 0,0.7812 -0.8203,1.5977 0,3.2109 0.8203,0.8203 1.5976,0 c 0.7813,0 0.7813,0 0.7813,0.7813 l 0,1.5976 C 84.8008,89.1797 84.8008,90 84.8008,90 Z M 70.3906,84.4219 c -2.3789,0 -3.9804,1.5976 -3.9804,3.9765 0,2.3829 1.6015,3.9805 3.9804,3.9805 2.418,0 4.0196,-1.5976 4.0196,-3.9805 0,-2.3789 -1.6016,-3.9765 -4.0196,-3.9765 z" /></g></g></svg>