<?xml version="1.0" encoding="UTF-8" standalone="no"?>
<svg
   xmlns:dc="http://purl.org/dc/elements/1.1/"
   xmlns:cc="http://creativecommons.org/ns#"
   xmlns:rdf="http://www.w3.org/1999/02/22-rdf-syntax-ns#"
   xmlns:svg="http://www.w3.org/2000/svg"
   xmlns="http://www.w3.org/2000/svg"
   viewBox="0 0 38.75 30"
   height="30"
   width="38.75"
   xml:space="preserve"
   version="1.1"
   id="svg2"><metadata
     id="metadata8"><rdf:RDF><cc:Work
         rdf:about=""><dc:format>image/svg+xml</dc:format><dc:type
           rdf:resource="http://purl.org/dc/dcmitype/StillImage" /></cc:Work></rdf:RDF></metadata><defs
     id="defs6" /><g
     transform="matrix(1.25,0,0,-1.25,0,30)"
     id="g10"><g
       transform="scale(0.1,0.1)"
       id="g12"><path
         id="path14"
         style="fill:#2a3282;fill-opacity:1;fill-rule:nonzero;stroke:none"
         d="m 285.59,234.801 -268.7892,0 C 8.01172,234.801 0,226.789 0,217.18 L 0,27.6094 C 0,18.7813 7.19141,10 16.8008,10 L 285.59,10 c 8.82,0 18.39,8 18.39,17.6094 l 0,189.5706 c 0,9.609 -9.57,17.621 -18.39,17.621 z M 170.391,18 132.809,18 c -4.02,0 -7.219,2.3906 -7.219,4.8086 0,2.3828 3.199,4.8008 7.219,4.8008 l 37.582,0 c 4.019,0 7.23,-2.418 7.23,-4.8008 0,-3.207 -3.211,-4.8086 -7.23,-4.8086 z M 280,210.82 l 0,-176.0192 -256.0195,0 0,176.0192 256.0195,0 z" /></g></g></svg>