<?xml version="1.0" encoding="UTF-8" standalone="no"?>
<svg
   xmlns:dc="http://purl.org/dc/elements/1.1/"
   xmlns:cc="http://creativecommons.org/ns#"
   xmlns:rdf="http://www.w3.org/1999/02/22-rdf-syntax-ns#"
   xmlns:svg="http://www.w3.org/2000/svg"
   xmlns="http://www.w3.org/2000/svg"
   viewBox="0 0 45 43.75"
   height="43.75"
   width="45"
   xml:space="preserve"
   version="1.1"
   id="svg2"><metadata
     id="metadata8"><rdf:RDF><cc:Work
         rdf:about=""><dc:format>image/svg+xml</dc:format><dc:type
           rdf:resource="http://purl.org/dc/dcmitype/StillImage" /></cc:Work></rdf:RDF></metadata><defs
     id="defs6" /><g
     transform="matrix(1.25,0,0,-1.25,0,43.75)"
     id="g10"><g
       transform="scale(0.1,0.1)"
       id="g12"><path
         id="path14"
         style="fill:#2a3282;fill-opacity:1;fill-rule:evenodd;stroke:none"
         d="m 177.109,156.41 20,-19.219 22.422,21.598 c -1.601,10.391 2.379,21.602 10.391,29.609 8.008,8.012 20,11.993 30.387,10.391 l 98.402,95.199 -55.191,52.813 -97.579,-95.199 C 206.719,241.211 203.52,230 195.512,222 c -7.973,-8.012 -20,-11.219 -30.391,-10.398 L 141.91,190 161.91,170.781 65.1211,77.1914 61.1289,80.3906 42.7305,66.0195 11.5195,18.0117 19.5313,10 69.1406,40.3906 84.3398,58.7891 81.1289,62 177.109,156.41 Z m 56.012,8.789 C 232.34,162 232.34,158.789 232.34,155.59 l 0.781,-3.988 -3.199,-2.422 -22.383,-21.602 -8.008,-7.969 -20,19.18 -10.39,-10.391 L 278.711,22 c 7.23,-7.1914 16.019,-10.3984 25.629,-10.3984 9.57,0 18.39,3.207 25.582,10.3984 14.418,13.5898 14.418,36.0117 0,49.6016 L 233.121,165.199 Z M 100.309,193.988 133.121,162 l 10.399,10.391 -13.598,13.629 -6.402,5.582 34.41,32.82 3.98,-0.82 3.211,0 c 2.418,0 4.02,0 6.399,0.82 l -20,19.18 -1.598,0.82 c 7.187,24.758 0.816,52.769 -19.184,71.988 -20,19.18 -48.8278,25.59 -74.4099,19.18 L 99.5313,293.988 88.3203,252.391 45.9414,242 2.73047,284.422 c -7.21875,-24.813 0,-52.031 20.00003,-72.031 20.789,-20.789 51.1797,-26.371 77.5785,-18.403 z" /></g></g></svg>