<?xml version="1.0" encoding="UTF-8" standalone="no"?>
<svg
   xmlns:dc="http://purl.org/dc/elements/1.1/"
   xmlns:cc="http://creativecommons.org/ns#"
   xmlns:rdf="http://www.w3.org/1999/02/22-rdf-syntax-ns#"
   xmlns:svg="http://www.w3.org/2000/svg"
   xmlns="http://www.w3.org/2000/svg"
   viewBox="0 0 70 15"
   height="15"
   width="70"
   xml:space="preserve"
   version="1.1"
   id="svg2"><metadata
     id="metadata8"><rdf:RDF><cc:Work
         rdf:about=""><dc:format>image/svg+xml</dc:format><dc:type
           rdf:resource="http://purl.org/dc/dcmitype/StillImage" /></cc:Work></rdf:RDF></metadata><defs
     id="defs6" /><g
     transform="matrix(1.25,0,0,-1.25,0,15)"
     id="g10"><g
       transform="scale(0.1,0.1)"
       id="g12"><path
         id="path14"
         style="fill:#2a3282;fill-opacity:1;fill-rule:nonzero;stroke:none"
         d="m 514.02,110.801 -440.7817,0 c 11.9922,-11.9924 20,-30.3908 20,-50.3908 0,-20 -8.0078,-38.3985 -20,-50.3907 l 441.5627,0 c 21.609,0 40,22.3789 40,50.3907 0,28.0117 -18.391,50.3908 -40.781,50.3908 z" /><path
         id="path16"
         style="fill:#2a3282;fill-opacity:1;fill-rule:nonzero;stroke:none"
         d="M 78.3984,60.4102 C 78.3984,32.5586 60.8594,10.0195 39.2188,10.0195 17.5391,10.0195 0,32.5586 0,60.4102 c 0,27.8086 17.5391,50.3908 39.2188,50.3908 21.6406,0 39.1796,-22.5822 39.1796,-50.3908 z" /></g></g></svg>