<?xml version="1.0" encoding="UTF-8" standalone="no"?>
<svg
   xmlns:dc="http://purl.org/dc/elements/1.1/"
   xmlns:cc="http://creativecommons.org/ns#"
   xmlns:rdf="http://www.w3.org/1999/02/22-rdf-syntax-ns#"
   xmlns:svg="http://www.w3.org/2000/svg"
   xmlns="http://www.w3.org/2000/svg"
   viewBox="0 0 13.75 16.25"
   height="16.25"
   width="13.75"
   xml:space="preserve"
   version="1.1"
   id="svg2"><metadata
     id="metadata8"><rdf:RDF><cc:Work
         rdf:about=""><dc:format>image/svg+xml</dc:format><dc:type
           rdf:resource="http://purl.org/dc/dcmitype/StillImage" /></cc:Work></rdf:RDF></metadata><defs
     id="defs6" /><g
     transform="matrix(1.25,0,0,-1.25,0,16.25)"
     id="g10"><g
       transform="scale(0.1,0.1)"
       id="g12"><path
         id="path14"
         style="fill:#0078d7;fill-opacity:1;fill-rule:nonzero;stroke:none"
         d="m 20,114.809 c -1.6016,2.382 -3.1992,3.98 -4.8008,5.582 -3.9883,2.418 -8.00779,4.031 -8.00779,4.031 L 1.60156,126.02 C 0.78125,124.422 0,122.809 0,121.211 c 0,-7.223 2.37891,-8.832 2.37891,-8.832 l 19.22269,0 c -0.8203,0.82 -0.8203,1.609 -1.6016,2.43 z" /><path
         id="path16"
         style="fill:#0078d7;fill-opacity:1;fill-rule:nonzero;stroke:none"
         d="m 23.1992,16.4102 c 1.6016,1.6015 2.3906,3.9804 2.3906,7.1914 l 0,4.0195 62.4219,0 0,3.9805 c 0,20.7773 18.3983,51.207 18.3983,75.1994 0,19.219 -18.3983,21.597 -18.3983,21.597 l -79.99998,0 c 0,0 14.36718,-3.199 17.57808,-16.019 0.8204,-1.598 0.8204,-3.199 0.8204,-5.578 0,-23.9924 -18.39848,-54.4221 -18.39848,-75.1994 0,-2.4219 0,-5.5821 0.77734,-8 0.82032,-2.3907 1.60154,-3.9922 3.19924,-5.5899 0.8203,-0.8203 1.6015,-1.6015 3.2109,-2.4219 0.8203,-0.7812 2.4219,-1.6015 3.1992,-1.6015 1.6016,0 3.2032,0.8203 4.8008,2.4219 z" /><path
         id="path18"
         style="fill:#0078d7;fill-opacity:1;fill-rule:nonzero;stroke:none"
         d="m 29.6094,22.8086 c 0,-4.0195 -1.5977,-8 -3.1992,-9.6094 C 23.9805,10.7813 19.2188,10 19.2188,10 L 100,10 c 2.379,0 4.801,1.6016 6.41,3.9883 1.602,2.4219 2.379,5.6211 2.379,9.6133 l -19.9999,0 -59.1797,-0.793 z" /><g
         transform="scale(10,10)"
         id="g20"><text
           id="text22"
           style="font-variant:normal;font-weight:normal;font-size:3.20000005px;font-family:'Bitstream Vera Sans';-inkscape-font-specification:BitstreamVeraSans-Roman;writing-mode:lr-tb;fill:#ffffff;fill-opacity:1;fill-rule:nonzero;stroke:none"
           transform="matrix(1,0,0,-1,3.44375,6.84453)"><tspan
             id="tspan24"
             y="0"
             x="0 1.1264 2.3743999 4.4129658">f(n)</tspan></text>
</g></g></g></svg>