<?xml version="1.0" encoding="UTF-8" standalone="no"?>
<svg
   xmlns:dc="http://purl.org/dc/elements/1.1/"
   xmlns:cc="http://creativecommons.org/ns#"
   xmlns:rdf="http://www.w3.org/1999/02/22-rdf-syntax-ns#"
   xmlns:svg="http://www.w3.org/2000/svg"
   xmlns="http://www.w3.org/2000/svg"
   viewBox="0 0 115 98.75"
   height="98.75"
   width="115"
   xml:space="preserve"
   version="1.1"
   id="svg2"><metadata
     id="metadata8"><rdf:RDF><cc:Work
         rdf:about=""><dc:format>image/svg+xml</dc:format><dc:type
           rdf:resource="http://purl.org/dc/dcmitype/StillImage" /></cc:Work></rdf:RDF></metadata><defs
     id="defs6" /><g
     transform="matrix(1.25,0,0,-1.25,0,98.75)"
     id="g10"><g
       transform="scale(0.1,0.1)"
       id="g12"><path
         id="path14"
         style="fill:#2a3282;fill-opacity:1;fill-rule:nonzero;stroke:none"
         d="m 845.941,730.809 c -90.429,100 -279.222,56.8 -387.23,-97.61 C 320.309,798.781 157.109,830.809 66.7188,730.809 -186.879,454.02 357.109,55.6211 456.328,9.98828 555.512,54.8008 1099.53,454.02 845.941,730.809 Z M 650.699,249.988 c 13.641,-13.59 13.641,-34.367 0,-47.187 -7.179,-7.18 -15.969,-8.781 -24.758,-8.781 -8.832,0 -18.402,2.378 -24.812,8.781 L 453.91,349.988 305.941,202.801 c -7.23,-7.18 -16.019,-8.781 -24.812,-8.781 -8.828,0 -18.399,2.378 -24.801,8.781 -13.598,13.597 -13.598,34.418 0,47.187 L 403.52,397.219 256.328,544.41 c -13.598,13.59 -13.598,34.371 0,47.18 13.594,13.601 34.371,13.601 47.192,0 L 450.699,444.41 597.93,591.59 c 13.59,13.601 34.371,13.601 47.191,0 13.59,-13.59 13.59,-34.371 0,-47.18 L 497.93,397.219 650.699,249.988 Z" /></g></g></svg>