<?xml version="1.0" encoding="UTF-8" standalone="no"?>
<svg
   xmlns:dc="http://purl.org/dc/elements/1.1/"
   xmlns:cc="http://creativecommons.org/ns#"
   xmlns:rdf="http://www.w3.org/1999/02/22-rdf-syntax-ns#"
   xmlns:svg="http://www.w3.org/2000/svg"
   xmlns="http://www.w3.org/2000/svg"
   viewBox="0 0 122.5 266.25"
   height="266.25"
   width="122.5"
   xml:space="preserve"
   version="1.1"
   id="svg2"><metadata
     id="metadata8"><rdf:RDF><cc:Work
         rdf:about=""><dc:format>image/svg+xml</dc:format><dc:type
           rdf:resource="http://purl.org/dc/dcmitype/StillImage" /></cc:Work></rdf:RDF></metadata><defs
     id="defs6" /><g
     transform="matrix(1.25,0,0,-1.25,0,266.25)"
     id="g10"><g
       transform="scale(0.1,0.1)"
       id="g12"><path
         id="path14"
         style="fill:#00188f;fill-opacity:1;fill-rule:nonzero;stroke:none"
         d="m 977.621,1582.01 -308.012,0 0,-308.01 107.192,0 c 3.199,-70.39 3.98,-159.21 -28.012,-191.21 -16.801,-16.79 -61.598,-34.37 -99.18,-48 -36.8,-13.6 -79.218,-29.57 -116.019,-51.181 l 0,769.571 171.211,0 L 496.02,2129.2 260,1753.18 l 171.211,0 0,-1007.18 c -24.02,15.191 -49.609,28 -71.992,40 -34.418,13.59 -61.598,27.18 -78.438,44.801 -41.562,38.398 -56.801,101.597 -57.582,243.199 69.61,21.61 119.18,85.59 119.18,163.21 0,95.97 -75.188,171.21 -171.168,171.21 C 75.1992,1408.42 0,1333.18 0,1237.21 0,1159.59 49.6094,1094.79 120,1074 121.602,925.219 137.621,826.82 208.789,758.809 239.219,731.578 276.801,710.801 314.41,694 c 72,-34.41 115.981,-61.602 115.981,-109.602 l 0,-205.589 C 351.988,356.391 293.59,282.789 293.59,197.988 293.59,95.6094 379.219,9.98047 481.602,9.98047 c 102.378,0 188.007,85.62893 188.007,188.00753 0,84.801 -58.398,157.621 -136.8,180.821 l 0,448.793 c 0,51.207 61.601,78.398 153.601,116.007 54.371,20.789 105.578,37.582 136.789,72.001 60,63.2 58.403,168.79 55.199,260 l 98.403,0 0,306.4 0.82,0 z" /></g></g></svg>