<?xml version="1.0" encoding="UTF-8" standalone="no"?>
<svg
   xmlns:dc="http://purl.org/dc/elements/1.1/"
   xmlns:cc="http://creativecommons.org/ns#"
   xmlns:rdf="http://www.w3.org/1999/02/22-rdf-syntax-ns#"
   xmlns:svg="http://www.w3.org/2000/svg"
   xmlns="http://www.w3.org/2000/svg"
   viewBox="0 0 146.25 153.75"
   height="153.75"
   width="146.25"
   xml:space="preserve"
   version="1.1"
   id="svg2"><metadata
     id="metadata8"><rdf:RDF><cc:Work
         rdf:about=""><dc:format>image/svg+xml</dc:format><dc:type
           rdf:resource="http://purl.org/dc/dcmitype/StillImage" /></cc:Work></rdf:RDF></metadata><defs
     id="defs6" /><g
     transform="matrix(1.25,0,0,-1.25,0,153.75)"
     id="g10"><g
       transform="scale(0.1,0.1)"
       id="g12"><path
         id="path14"
         style="fill:#00188f;fill-opacity:1;fill-rule:nonzero;stroke:none"
         d="M 567.27,1218.16 C 396.051,1177.38 296.051,988.551 344.059,795.781 392.07,603.781 567.27,486.949 738.48,527.77 909.648,568.551 1009.65,757.379 961.68,950.148 913.672,1138.98 735.27,1258.98 567.27,1218.16 Z" /><path
         id="path16"
         style="fill:#00188f;fill-opacity:1;fill-rule:nonzero;stroke:none"
         d="M 933.59,476.398 C 902.379,479.609 864.801,418 816.801,394.02 c -48.012,-20.821 -99.18,-64.809 -236.801,0 -137.621,64.761 -157.621,120 -274.41,120 C 188.789,514.02 3.98047,308.391 0,10 l 1166.41,0 c -3.21,0 -13.6,205.578 -79.22,316.012 -77.58,147.187 -122.389,150.386 -153.6,150.386 z" /></g></g></svg>