<?xml version="1.0" encoding="UTF-8" standalone="no"?>
<svg
   xmlns:dc="http://purl.org/dc/elements/1.1/"
   xmlns:cc="http://creativecommons.org/ns#"
   xmlns:rdf="http://www.w3.org/1999/02/22-rdf-syntax-ns#"
   xmlns:svg="http://www.w3.org/2000/svg"
   xmlns="http://www.w3.org/2000/svg"
   viewBox="0 0 15 16.25"
   height="16.25"
   width="15"
   xml:space="preserve"
   version="1.1"
   id="svg2"><metadata
     id="metadata8"><rdf:RDF><cc:Work
         rdf:about=""><dc:format>image/svg+xml</dc:format><dc:type
           rdf:resource="http://purl.org/dc/dcmitype/StillImage" /></cc:Work></rdf:RDF></metadata><defs
     id="defs6" /><g
     transform="matrix(1.25,0,0,-1.25,0,16.25)"
     id="g10"><g
       transform="scale(0.1,0.1)"
       id="g12"><path
         id="path14"
         style="fill:#ffffff;fill-opacity:1;fill-rule:nonzero;stroke:none"
         d="m 85.9414,16.0117 c -0.8203,0 -1.6016,0.7774 -1.6016,1.5977 l 0,35.9804 c 0,0.8204 0.7813,1.6016 1.6016,1.6016 0.7774,0 1.5977,-0.7812 1.5977,-1.6016 l 0,-36.8007 c 0,-0.7774 -0.8203,-0.7774 -1.5977,-0.7774 z" /><path
         id="path16"
         style="fill:#ffffff;fill-opacity:1;fill-rule:nonzero;stroke:none"
         d="m 96.3281,79.2109 c 0,-2.6523 -2.1484,-4.8007 -4.8086,-4.8007 -2.6484,0 -4.8007,2.1484 -4.8007,4.8007 0,2.6172 2.1523,4.8086 4.8007,4.8086 2.6602,0 4.8086,-2.1914 4.8086,-4.8086 z" /><path
         id="path18"
         style="fill:#0078d7;fill-opacity:1;fill-rule:nonzero;stroke:none"
         d="M 54.4492,127.77 C 37.6602,123.781 28.0508,105.352 32.8516,86.9492 37.6602,68.5508 54.4492,56.5586 71.25,60.5781 88.0508,64.5703 97.6602,82.9609 92.8516,101.359 88.8711,120.578 71.25,132.57 54.4492,127.77 Z" /><path
         id="path20"
         style="fill:#0078d7;fill-opacity:1;fill-rule:nonzero;stroke:none"
         d="m 90.3906,55.5781 c -3.1992,0 -6.4101,-5.5781 -11.1718,-7.9687 -4.8086,-2.418 -9.6094,-6.3985 -23.1993,0 -13.6406,6.4101 -15.2382,12 -26.4101,12 C 18.3984,59.6094 0,39.6094 0,10 l 113.59,0 c 0,0 -1.602,20 -8,30.3906 -7.9689,15.1875 -12.0002,15.1875 -15.1994,15.1875 z" /><path
         id="path22"
         style="fill:#0078d7;fill-opacity:1;fill-rule:nonzero;stroke:none"
         d="m 101.129,91.2109 -30.3907,0 c -2.418,0 -4.7969,-2.3906 -4.7969,-4.8125 l 0,-20.7773 c 0,-2.4219 2.3789,-4.8008 5.5781,-4.8008 l 5.6289,0 0,-37.6211 c 0,-4.8086 3.1602,-8.0078 7.1914,-8.0078 3.9805,0 7.1797,3.1992 7.1797,7.2305 l 1.6016,0 0,4.7969 c 0,1.6015 2.4297,2.3906 2.4297,2.3906 l 0,2.3789 c -2.4297,0.8203 -4.0313,2.4219 -4.0313,3.2031 l 0,2.418 1.6016,1.6015 c 0.8281,0.7891 2.4297,3.9883 2.4297,3.9883 0,0 -2.4297,3.1992 -2.4297,4.0196 -0.7813,0.7812 -0.7813,2.3906 -1.6016,3.1718 l 0,1.5977 C 92.3398,56.0117 97.1484,60 97.1484,60 l 3.9806,0 c 2.391,0 4.812,2.4219 4.812,4.8008 l 0,21.5976 c 0,2.4219 -1.601,4.8125 -4.812,4.8125 z M 83.5195,21.6016 c 0,-1.6016 0,-2.3907 -1.6093,-2.3907 -1.6016,0 -1.6016,1.6094 -1.6016,2.3907 l 0,35.1875 c 0,1.6015 0.8203,2.4218 1.6016,2.4218 1.6093,0 1.6093,-1.6015 1.6093,-2.4218 l 0,-35.1875 z m 2.4219,56.789 c -2.4219,0 -4.8125,2.4297 -4.8125,4.8086 0,2.4219 2.3906,4.8008 4.8125,4.8008 2.3789,0 4.7969,-2.3789 4.7969,-4.8008 0,-2.3789 -1.5977,-4.8086 -4.7969,-4.8086 z" /><path
         id="path24"
         style="fill:none;stroke:#ffffff;stroke-width:1.60000002;stroke-linecap:butt;stroke-linejoin:miter;stroke-miterlimit:10;stroke-dasharray:none;stroke-opacity:1"
         d="m 101.129,91.2031 -30.3907,0 c -2.418,0 -4.7969,-2.3789 -4.7969,-4.8008 l 0,-20.7773 c 0,-2.4219 2.3789,-4.8125 5.5781,-4.8125 l 5.6289,0 0,-37.6094 c 0,-4.8086 3.1602,-8.0078 7.1914,-8.0078 3.9805,0 7.1797,3.1992 7.1797,7.2188 l 1.6016,0 0,4.8086 c 0,1.6015 2.4297,2.3828 2.4297,2.3828 l 0,2.3789 c -2.4297,0.8203 -4.0313,2.4297 -4.0313,3.2109 l 0,2.418 1.6016,1.6015 c 0.8281,0.7774 2.4297,3.9883 2.4297,3.9883 0,0 -2.4297,3.1992 -2.4297,4.0196 -0.7813,0.7812 -0.7813,2.3828 -1.6016,3.1601 l 0,1.6016 c 0.8203,4.0312 5.6289,8.0078 5.6289,8.0078 l 3.9806,0 c 2.391,0 4.812,2.4219 4.812,4.8125 l 0,21.5976 c 0,2.4219 -1.601,4.8008 -4.812,4.8008 z M 83.5195,21.5938 c 0,-1.6016 0,-2.379 -1.6093,-2.379 -1.6016,0 -1.6016,1.5977 -1.6016,2.379 l 0,35.1992 c 0,1.6015 0.8203,2.4218 1.6016,2.4218 1.6093,0 1.6093,-1.6015 1.6093,-2.4218 l 0,-35.1992 z m 2.4219,56.8007 c -2.4219,0 -4.8125,2.418 -4.8125,4.8086 0,2.4219 2.3906,4.8008 4.8125,4.8008 2.3789,0 4.7969,-2.3789 4.7969,-4.8008 0,-2.3906 -1.5977,-4.8086 -4.7969,-4.8086 z" /></g></g></svg>