<?xml version="1.0" encoding="UTF-8" standalone="no"?>
<svg
   xmlns:dc="http://purl.org/dc/elements/1.1/"
   xmlns:cc="http://creativecommons.org/ns#"
   xmlns:rdf="http://www.w3.org/1999/02/22-rdf-syntax-ns#"
   xmlns:svg="http://www.w3.org/2000/svg"
   xmlns="http://www.w3.org/2000/svg"
   viewBox="0 0 181.25 186.25"
   height="186.25"
   width="181.25"
   xml:space="preserve"
   version="1.1"
   id="svg2"><metadata
     id="metadata8"><rdf:RDF><cc:Work
         rdf:about=""><dc:format>image/svg+xml</dc:format><dc:type
           rdf:resource="http://purl.org/dc/dcmitype/StillImage" /></cc:Work></rdf:RDF></metadata><defs
     id="defs6" /><g
     transform="matrix(1.25,0,0,-1.25,0,186.25)"
     id="g10"><g
       transform="scale(0.1,0.1)"
       id="g12"><path
         id="path14"
         style="fill:#00188f;fill-opacity:1;fill-rule:nonzero;stroke:none"
         d="m 1372.81,1485.2 0,-68.79 -137.61,0 0,68.79 -1028.79,0 0,-68.79 -137.6209,0 0,68.79 L 0,1485.2 0,10 l 68.7891,0 0,68.7891 137.6209,0 0,-68.7891 1029.61,0 0,68.7891 137.57,0 0,-68.7891 68.79,0 0,1475.2 -69.57,0 z M 206.41,181.219 l -137.6209,0 0,103.203 137.6209,0 0,-103.203 z m 0,206.359 -137.6209,0 0,103.211 137.6209,0 0,-103.211 z m 0,205.633 -137.6209,0 0,103.199 137.6209,0 0,-103.199 z m 0,205.578 -137.6209,0 0,103.211 137.6209,0 0,-103.211 z m 0,206.411 -137.6209,0 0,103.2 137.6209,0 0,-103.2 z m 0,205.59 -137.6209,0 0,103.2 137.6209,0 0,-103.2 z m 960.78,-1098.399 -892.78,0 0,583.199 892,0 0,-583.199 0.78,0 z m 0,686.398 -892.78,0 0,583.211 892,0 0,-583.211 0.78,0 z m 205.62,-617.57 -137.61,0 0,103.203 137.61,0 0,-103.203 z m 0,206.359 -137.61,0 0,103.211 137.61,0 0,-103.211 z m 0,205.633 -137.61,0 0,103.199 137.61,0 0,-103.199 z m 0,205.578 -137.61,0 0,103.211 137.61,0 0,-103.211 z m 0,206.411 -137.61,0 0,103.2 137.61,0 0,-103.2 z m 0,205.59 -137.61,0 0,103.2 137.61,0 0,-103.2 z" /></g></g></svg>