<?xml version="1.0" encoding="UTF-8" standalone="no"?>
<svg
   xmlns:dc="http://purl.org/dc/elements/1.1/"
   xmlns:cc="http://creativecommons.org/ns#"
   xmlns:rdf="http://www.w3.org/1999/02/22-rdf-syntax-ns#"
   xmlns:svg="http://www.w3.org/2000/svg"
   xmlns="http://www.w3.org/2000/svg"
   viewBox="0 0 300 278.75"
   height="278.75"
   width="300"
   xml:space="preserve"
   version="1.1"
   id="svg2"><metadata
     id="metadata8"><rdf:RDF><cc:Work
         rdf:about=""><dc:format>image/svg+xml</dc:format><dc:type
           rdf:resource="http://purl.org/dc/dcmitype/StillImage" /></cc:Work></rdf:RDF></metadata><defs
     id="defs6" /><g
     transform="matrix(1.25,0,0,-1.25,0,278.75)"
     id="g10"><g
       transform="scale(0.1,0.1)"
       id="g12"><path
         id="path14"
         style="fill:#00188f;fill-opacity:1;fill-rule:nonzero;stroke:none"
         d="m 2248.79,2221.2 -2116.802,0 C 62.3789,2221.2 0,2164.4 0,2089.21 L 0,589.211 C 0,519.602 56.8008,450.809 131.988,450.809 l 724.813,0 c 76.008,-277.618 43.98,-302.418 -416.02,-302.418 l 0,-138.40272 1512.029,0 0,138.40272 c -460,0 -523.2,25.621 -447.22,302.418 l 743.2,0 c 69.61,0 144.8,63.203 144.8,126.41 l 0,1511.991 c 0.82,75.19 -75.19,131.99 -144.8,131.99 z M 2204.8,646 176.02,646 188.789,2038.82 2204.8,2032.41 2204.8,646 Z" /><path
         id="path16"
         style="fill:#00188f;fill-opacity:1;fill-rule:nonzero;stroke:none"
         d="M 1536.8,1615.61 1165.59,1829.99 800,1615.61 l 0,-5.62 365.59,-214.38 371.21,214.38 0,5.62 z" /><path
         id="path18"
         style="fill:#00188f;fill-opacity:1;fill-rule:nonzero;stroke:none"
         d="m 1196.8,1313.19 0,-421.6 378.4,213.59 0,422.43 -378.4,-214.42 z" /><path
         id="path20"
         style="fill:#00188f;fill-opacity:1;fill-rule:nonzero;stroke:none"
         d="m 1133.59,1313.19 -377.57,214.42 0,-422.43 377.57,-213.59 0,421.6 z" /></g></g></svg>