<?xml version="1.0" encoding="UTF-8" standalone="no"?>
<svg
   xmlns:dc="http://purl.org/dc/elements/1.1/"
   xmlns:cc="http://creativecommons.org/ns#"
   xmlns:rdf="http://www.w3.org/1999/02/22-rdf-syntax-ns#"
   xmlns:svg="http://www.w3.org/2000/svg"
   xmlns="http://www.w3.org/2000/svg"
   viewBox="0 0 338.75 340"
   height="340"
   width="338.75"
   xml:space="preserve"
   version="1.1"
   id="svg2"><metadata
     id="metadata8"><rdf:RDF><cc:Work
         rdf:about=""><dc:format>image/svg+xml</dc:format><dc:type
           rdf:resource="http://purl.org/dc/dcmitype/StillImage" /></cc:Work></rdf:RDF></metadata><defs
     id="defs6" /><g
     transform="matrix(1.25,0,0,-1.25,0,340)"
     id="g10"><g
       transform="scale(0.1,0.1)"
       id="g12"><path
         id="path14"
         style="fill:#00188f;fill-opacity:1;fill-rule:nonzero;stroke:none"
         d="M 1354.41,2718.8 C 604.801,2718.8 0,2114 0,1364.39 0,614.82 604.801,10.0117 1354.41,10.0117 c 749.57,0 1354.38,604.8083 1354.38,1354.3783 0,749.61 -604.81,1354.41 -1354.38,1354.41 z m 1159.18,-1260 -264.8,0 c -12.77,208.01 -56.8,403.2 -131.99,573.59 43.98,25.63 88,50.39 126.4,81.61 151.21,-175.98 252,-403.21 270.39,-655.2 z m -377.57,768.79 c -25.63,-19.18 -56.8,-37.58 -88.01,-56.8 -50.39,88.01 -113.6,170.39 -176.8,239.22 94.38,-50.43 182.38,-106.41 264.81,-182.42 z m -687.23,245.62 c 182.42,-37.61 346.41,-170.43 460,-365.62 -138.4,-56.8 -295.98,-94.38 -460,-107.19 l 0,472.81 z m 0,-629.61 c 188.83,12.82 371.99,50.4 529.61,126.41 63.2,-151.21 100.82,-321.6 113.59,-504.02 l -642.38,0 -0.82,377.61 z m 643.2,-573.59 c -12.77,-188.83 -50.39,-365.619 -120,-510.432 -157.58,69.613 -333.59,120 -523.2,132.031 l 0,383.991 642.42,0 0,-5.59 0.78,0 z m -1474.369,0 642.379,0 0,-384.022 C 1071.21,873.211 888.012,835.602 730.391,759.578 668.012,910.789 629.609,1086.81 617.621,1270.01 Z m 0,188.79 c 12.77,188.79 50.391,365.59 120,510.39 157.578,-69.61 333.589,-120 523.159,-131.99 l 0,-383.99 -642.382,0 0,5.59 -0.777,0 z M 1260,2473.21 1260,2000.4 C 1096.02,2013.21 944.801,2050.79 806.41,2114 920,2303.6 1083.2,2435.6 1260,2473.21 Z m -422.379,-63.2 c -63.211,-63.2 -120,-138.4 -170.43,-227.23 -31.171,19.22 -56.8,37.62 -81.601,56.8 76.012,64.02 164.019,126.41 252.031,170.43 z m -365.633,-283.2 c 37.621,-31.21 81.602,-56.8 120,-81.6 C 516.02,1874.82 465.59,1673.21 453.59,1458.8 l -264.801,0 c 24.801,251.99 125.621,485.59 283.199,668.01 z M 460,1270.01 C 472.809,1062 516.801,866.809 591.988,696.422 548.012,670.789 503.98,645.988 465.59,614.82 c -151.18,182.379 -252,409.57 -271.18,655.19 l 265.59,0 z M 572.809,501.18 c 25.589,19.218 56.8,37.621 87.972,56.84 C 711.211,470.012 774.41,387.59 837.621,318.801 743.199,368.41 655.199,431.609 572.809,501.18 Z M 800,626.809 C 938.398,683.602 1096.02,721.18 1260,734 l 0,-472.82 C 1076.8,293.211 920,425.211 800,626.809 Z m 648.79,-371.207 0,472.808 C 1612.81,715.602 1763.98,678.02 1902.38,614.82 1789.61,425.211 1625.59,293.211 1448.79,255.602 Z m 592.81,289.609 c 31.21,-19.223 56.8,-37.621 81.6,-56.801 -76.01,-69.609 -163.98,-125.629 -251.99,-170.39 63.2,63.16 120,145.582 170.39,227.191 z M 2236.8,602 c -37.58,31.211 -81.6,56.801 -120,81.602 76.01,170.398 126.4,371.998 138.4,586.408 l 271.21,0 C 2495.2,1018.02 2394.41,784.391 2236.8,602 Z" /></g></g></svg>