<?xml version="1.0" encoding="UTF-8" standalone="no"?>
<svg
   xmlns:dc="http://purl.org/dc/elements/1.1/"
   xmlns:cc="http://creativecommons.org/ns#"
   xmlns:rdf="http://www.w3.org/1999/02/22-rdf-syntax-ns#"
   xmlns:svg="http://www.w3.org/2000/svg"
   xmlns="http://www.w3.org/2000/svg"
   viewBox="0 0 52.5 58.75"
   height="58.75"
   width="52.5"
   xml:space="preserve"
   version="1.1"
   id="svg2"><metadata
     id="metadata8"><rdf:RDF><cc:Work
         rdf:about=""><dc:format>image/svg+xml</dc:format><dc:type
           rdf:resource="http://purl.org/dc/dcmitype/StillImage" /></cc:Work></rdf:RDF></metadata><defs
     id="defs6" /><g
     transform="matrix(1.25,0,0,-1.25,0,58.75)"
     id="g10"><g
       transform="scale(0.1,0.1)"
       id="g12"><path
         id="path14"
         style="fill:#ffffff;fill-opacity:1;fill-rule:evenodd;stroke:none"
         d="m 0,172.18 348.012,0 0,297.582 L 0,469.762 0,172.18 Z" /><path
         id="path16"
         style="fill:#7f7f7f;fill-opacity:1;fill-rule:evenodd;stroke:none"
         d="m 10.0781,182.262 327.852,0 0,277.418 -327.852,0 0,-277.418 z" /><path
         id="path18"
         style="fill:#ffffff;fill-opacity:1;fill-rule:evenodd;stroke:none"
         d="m 20.1602,192.379 307.699,0 0,201.723 -307.699,0 0,-201.723 z" /><path
         id="path20"
         style="fill:#7f7f7f;fill-opacity:1;fill-rule:evenodd;stroke:none"
         d="m 136.172,318.469 80.6992,0 0,55.4727 -80.6992,0 0,-55.4727 z" /><path
         id="path22"
         style="fill:#7f7f7f;fill-opacity:1;fill-rule:evenodd;stroke:none"
         d="m 55.4688,212.539 60.5508,0 0,45.3906 -60.5508,0 0,-45.3906 z" /><path
         id="path24"
         style="fill:#7f7f7f;fill-opacity:1;fill-rule:evenodd;stroke:none"
         d="m 146.25,212.539 60.5508,0 0,45.3906 -60.5508,0 0,-45.3906 z" /><path
         id="path26"
         style="fill:#7f7f7f;fill-opacity:1;fill-rule:evenodd;stroke:none"
         d="m 237.07,212.539 60.5078,0 0,45.3906 -60.5078,0 0,-45.3906 z" /><path
         id="path28"
         style="fill:#7f7f7f;fill-opacity:1;fill-rule:evenodd;stroke:none"
         d="m 171.48,252.891 10.0781,0 0,75.6602 -10.0781,0 0,-75.6602 z" /><path
         id="path30"
         style="fill:#7f7f7f;fill-opacity:1;fill-rule:evenodd;stroke:none"
         d="m 80.6992,257.93 10.082,0 0,30.2695 -10.082,0 0,-30.2695 z" /><path
         id="path32"
         style="fill:#7f7f7f;fill-opacity:1;fill-rule:evenodd;stroke:none"
         d="m 80.6992,283.16 191.641,0 0,10.0781 -191.641,0 0,-10.0781 z" /><path
         id="path34"
         style="fill:#7f7f7f;fill-opacity:1;fill-rule:evenodd;stroke:none"
         d="m 262.27,257.93 10.082,0 0,30.2695 -10.082,0 0,-30.2695 z" /><path
         id="path36"
         style="fill:#ffffff;fill-opacity:1;fill-rule:evenodd;stroke:none"
         d="m 413.59,220.109 c 0,-62.687 -50.82,-113.468 -113.512,-113.468 -62.656,0 -113.476,50.781 -113.476,113.468 0,62.661 50.82,113.481 113.476,113.481 62.692,0 113.512,-50.82 113.512,-113.481 z" /><path
         id="path38"
         style="fill:#7f7f7f;fill-opacity:1;fill-rule:evenodd;stroke:none"
         d="m 300.43,322.93 c -56.91,0 -103.09,-46.328 -103.09,-103.129 0,-56.871 46.18,-103.082 103.09,-103.082 56.8,0 103.09,46.211 103.09,103.082 0,56.801 -46.29,103.129 -103.09,103.129 z m 0,-196.328 c -11.481,0 -23.711,17.109 -30.7,44.726 10,1.481 20.391,2.262 30.7,2.262 10.308,0 20.699,-0.781 30.59,-2.262 -6.879,-27.617 -19.18,-44.726 -30.59,-44.726 z m 0,56.91 c -11.02,0 -22.192,-0.903 -32.809,-2.5 -2,10.508 -3.211,23.789 -3.402,36.597 l 72.422,0 c -0.192,-12.687 -1.411,-26.007 -3.403,-36.597 -10.699,1.597 -21.789,2.5 -32.808,2.5 z m 0,129.418 c 11.019,0 22.808,-15.942 29.922,-41.84 -9.731,-1.481 -19.801,-2.262 -29.922,-2.262 -10.078,0 -20.2,0.781 -29.879,2.262 6.988,25.898 18.789,41.84 29.879,41.84 z m 0,-54.032 c 11.019,0 21.8,0.903 32.191,2.5 2.219,-10.578 3.629,-20.777 3.899,-33.707 l -72.301,0 c 0.429,12.93 1.801,23.129 4.019,33.707 10.282,-1.597 21.172,-2.5 32.192,-2.5 z m -46.09,-31.207 -47.5,0 c 1.211,18.008 8.281,32.93 18.281,46.719 9.609,-4.801 20.899,-8.59 33.32,-11.211 -2.312,-11.41 -3.711,-22.187 -4.101,-35.508 z m 0,-10.082 c 0.191,-13.121 1.281,-27.097 3.512,-38.39 -13.204,-2.699 -25.231,-6.528 -34.801,-11.289 -9.301,13.859 -14.93,31.871 -15.629,49.679 l 46.918,0 z m 92.18,0 46.8,0 c -0.699,-17.687 -6.172,-35.699 -15.468,-49.597 -9.614,4.797 -21.602,8.59 -34.801,11.277 2.07,11.332 3.277,25.199 3.469,38.32 z m -0.071,10.082 c -0.32,13.321 -1.719,24.098 -4.027,35.508 12.308,2.621 23.598,6.41 33.199,11.211 10.117,-13.789 16.41,-28.711 17.617,-46.719 l -46.789,0 z m 22.77,54.731 c -8.481,-4.024 -18.278,-7.231 -29.098,-9.492 -4.101,15.582 -10,28.398 -17.07,37.07 18.078,-4.488 33.98,-14.301 46.168,-27.578 z M 277.852,310 c -7.231,-8.672 -13.012,-21.488 -17.231,-37.07 -10.699,2.261 -20.582,5.468 -28.98,9.492 12.109,13.277 28.089,23.09 46.211,27.578 z M 229.219,159.922 c 8.633,3.976 19.101,7.297 30.703,9.687 4.098,-16.918 10.308,-30.781 17.93,-40.121 -19.332,4.922 -36.211,15.621 -48.633,30.434 z m 93.832,-30.434 c 7.57,9.34 13.789,23.203 17.89,40.121 11.598,-2.39 22.11,-5.711 30.778,-9.687 -12.5,-14.731 -29.379,-25.512 -48.668,-30.434 z" /><g
         transform="scale(10,10)"
         id="g40"><text
           id="text42"
           style="font-variant:normal;font-weight:normal;font-size:9px;font-family:'Bitstream Vera Sans';-inkscape-font-specification:BitstreamVeraSans-Roman;writing-mode:lr-tb;fill:#7f7f7f;fill-opacity:1;fill-rule:nonzero;stroke:none"
           transform="matrix(1,0,0,-1,2.08008,2.87188)"><tspan
             id="tspan44"
             y="0"
             x="0 7.362 12.897 18.612 23.301001 25.802999 29.330999 -2.2226601 1.28734 7.0023398 12.53734 18.24334 23.778339 27.477341 29.97934 34.902191">website(generic)</tspan></text>
</g></g></g></svg>