<?xml version="1.0" encoding="UTF-8" standalone="no"?>
<svg
   xmlns:dc="http://purl.org/dc/elements/1.1/"
   xmlns:cc="http://creativecommons.org/ns#"
   xmlns:rdf="http://www.w3.org/1999/02/22-rdf-syntax-ns#"
   xmlns:svg="http://www.w3.org/2000/svg"
   xmlns="http://www.w3.org/2000/svg"
   viewBox="0 0 246.25 328.75"
   height="328.75"
   width="246.25"
   xml:space="preserve"
   version="1.1"
   id="svg2"><metadata
     id="metadata8"><rdf:RDF><cc:Work
         rdf:about=""><dc:format>image/svg+xml</dc:format><dc:type
           rdf:resource="http://purl.org/dc/dcmitype/StillImage" /></cc:Work></rdf:RDF></metadata><defs
     id="defs6" /><g
     transform="matrix(1.25,0,0,-1.25,0,328.75)"
     id="g10"><g
       transform="scale(0.1,0.1)"
       id="g12"><path
         id="path14"
         style="fill:#00188f;fill-opacity:1;fill-rule:nonzero;stroke:none"
         d="m 1348.79,10 c -340,0 -617.579,277.578 -617.579,617.578 0,340 277.579,617.622 617.579,617.622 340,0 617.62,-277.622 617.62,-617.622 C 1966.41,286.801 1688.79,10 1348.79,10 Z m -151.17,320.789 c 43.98,-151.18 107.18,-227.187 151.17,-227.187 44.02,0 113.59,69.609 151.21,227.187 -50.39,6.402 -100.78,12.813 -151.21,12.813 -50.39,0 -100.78,-6.411 -151.17,-12.813 z M 970.391,273.988 C 1027.19,210.789 1096.8,166.801 1171.99,142 c -31.21,50.391 -50.39,107.18 -69.61,176.789 -49.57,-12.809 -93.59,-25.578 -131.989,-44.801 z m 630.389,44.024 c -19.18,-69.614 -43.98,-126.403 -69.57,-176.793 75.98,25.582 144.81,75.972 201.6,138.39 -37.61,13.602 -81.6,26.371 -132.03,38.403 z M 831.988,582.82 c 6.41,-81.601 31.211,-151.211 76.024,-227.23 50.386,25.629 107.188,44.019 170.388,56.801 -12.81,56.789 -12.81,113.589 -19.18,170.429 l -227.232,0 z M 1620,406.801 c 63.2,-12.813 126.41,-31.211 170.39,-56.801 44.02,75.98 69.61,144.809 76.02,227.191 l -232.82,0 c 4.81,-56.793 -1.6,-108.011 -13.59,-170.39 z M 1160,582.82 c 0,-50.429 6.41,-100.82 12.81,-151.211 56.8,6.403 120,12.813 176.8,12.813 56.8,0 113.59,-6.41 176.8,-12.813 6.4,50.391 12.81,100.782 12.81,151.211 l -379.22,0 z m 711.99,100.782 c -6.4,88.007 -37.58,170.386 -88.01,245.578 -50.39,-25.578 -107.18,-43.981 -163.98,-56.789 12.81,-56.801 19.22,-120 19.22,-188.789 l 232.77,0 z m -328.01,0 c 0,56.796 -6.36,120 -19.18,170.386 -56.79,-6.41 -113.59,-12.769 -170.39,-12.769 -56.79,0 -113.63,6.359 -170.43,12.769 -12.77,-50.386 -19.18,-113.59 -19.18,-170.386 l 379.18,0 z m -479.18,0 c 0,63.199 6.41,126.398 19.18,188.789 C 1020.78,885.199 970.391,903.602 920,929.18 869.609,853.211 838.398,771.609 825.59,683.602 l 239.21,0 z M 1203.98,942 c 50.43,-6.41 100.82,-12.82 151.22,-12.82 50.39,0 100.82,6.41 151.21,12.82 -44.03,144.8 -107.19,208 -151.21,208 -50.4,0 -113.6,-63.2 -151.22,-208 z m -220.781,56.789 c 37.581,-12.809 81.601,-31.211 126.411,-37.57 19.18,63.201 37.58,113.591 69.61,157.571 -76.02,-25.58 -139.22,-63.2 -196.021,-120.001 z m 548.011,120.001 c 25.59,-43.98 50.39,-100.78 69.57,-157.571 44.02,12.769 88.01,25.582 126.41,37.57 -63.21,56.801 -126.41,94.421 -195.98,120.001 z" /><path
         id="path16"
         style="fill:#00188f;fill-opacity:1;fill-rule:nonzero;stroke:none"
         d="m 1348.79,1232.39 c -328.01,0 -598.399,-271.171 -598.399,-598.402 0,-327.187 271.209,-598.3982 598.399,-598.3982 327.23,0 598.4,271.2112 598.4,598.3982 0,327.231 -264.81,598.402 -598.4,598.402 z m 0,-1140.7806 c -69.57,0 -138.4,100.7816 -176.8,258.3906 56.8,6.41 120,12.82 176.8,12.82 56.8,0 120,-6.41 176.8,-12.82 -38.4,-164.02 -107.97,-258.3906 -176.8,-258.3906 z m 0,327.1796 c -63.2,0 -126.41,-6.398 -188.79,-12.809 -12.81,63.2 -19.22,120 -19.22,195.239 l 422.42,0 c 0,-76.02 -6.4,-132.039 -19.22,-195.239 -63.2,7.231 -126.36,12.809 -195.19,12.809 z m 0,750.391 c 63.2,0 131.99,-94.37 176.8,-245.578 -56.8,-6.411 -113.6,-12.813 -176.8,-12.813 -56.8,0 -120,6.402 -176.8,12.813 44.03,157.618 113.6,245.578 176.8,245.578 z m 0,-308.782 c 63.2,0 126.41,6.403 188.83,12.813 12.77,-63.211 19.18,-131.992 25.58,-208.012 l -422.42,0 c 0,76.02 12.81,151.211 25.63,208.012 55.97,-12.813 119.18,-12.813 182.38,-12.813 z m -264.81,-195.199 -277.57,0 c 6.399,107.192 50.391,208.012 107.18,283.199 56.801,-25.578 120,-50.386 195.2,-63.199 C 1096.02,822 1089.61,753.211 1083.2,677.191 l 0.78,-11.992 z m 0,-63.199 c 0,-76.02 6.41,-138.398 19.22,-201.602 -76.01,-12.82 -144.802,-37.578 -201.598,-63.207 -56.801,81.598 -88.012,170.387 -88.012,271.207 l 271.21,0 0,-6.398 -0.82,0 z m 536.02,0 271.21,0 c -6.41,-100.781 -37.62,-188.789 -88.01,-271.211 -56.79,25.621 -126.4,50.43 -201.6,63.199 11.99,69.614 18.4,126.41 18.4,208.012 z m 0,63.199 c 0,76.02 -12.81,157.621 -25.59,220.781 69.57,12.809 138.4,37.622 195.2,63.2 56.8,-81.602 94.37,-182.379 100.78,-283.2 l -270.39,0 0,12.809 0,-13.59 z m 131.99,327.192 c -50.39,-25.59 -107.19,-43.993 -170.39,-56.801 -25.58,88.01 -56.8,164.02 -100.82,214.41 107.23,-24.8 201.6,-81.6 271.21,-157.609 z M 1222.38,1156.41 C 1178.4,1105.98 1146.41,1030 1121.6,942 c -63.2,12.809 -120,31.211 -170.389,56.789 69.569,69.611 163.989,126.411 271.169,157.621 z M 939.219,280.398 c 50.39,25.582 113.591,44.024 176.801,56.793 25.58,-100.781 63.2,-176.793 100.78,-232.769 -107.19,31.168 -208.01,94.367 -277.581,175.976 z M 1480.78,104.422 c 44.02,56.797 81.6,131.988 107.23,232.769 69.61,-12.769 126.4,-31.211 176.79,-56.793 -69.6,-81.609 -170.39,-144.808 -284.02,-175.976 z" /><path
         id="path18"
         style="fill:#00188f;fill-opacity:1;fill-rule:nonzero;stroke:none"
         d="m 630.391,665.199 c 12.808,352.811 283.199,642.381 630.389,687.191 l 0,1146.4 c 0,69.61 -56.8,126.41 -126.37,126.41 l -1008,0 C 56.8008,2625.2 0,2568.4 0,2498.79 L 0,41.2188 l 944.801,0 C 850.391,104.422 774.41,192.391 717.621,293.211 l -529.609,0 0,126.398 472.769,0 c -12.769,37.582 -19.179,81.61 -25.582,126.371 l -447.187,0 0,126.411 440.777,0 0,-7.192 1.602,0 z M 189.609,2240.4 l 881.601,0 0,-126.41 -881.601,0 0,126.41 z" /></g></g></svg>