<?xml version="1.0" encoding="UTF-8" standalone="no"?>
<svg
   xmlns:dc="http://purl.org/dc/elements/1.1/"
   xmlns:cc="http://creativecommons.org/ns#"
   xmlns:rdf="http://www.w3.org/1999/02/22-rdf-syntax-ns#"
   xmlns:svg="http://www.w3.org/2000/svg"
   xmlns="http://www.w3.org/2000/svg"
   viewBox="0 0 252.5 326.25"
   height="326.25"
   width="252.5"
   xml:space="preserve"
   version="1.1"
   id="svg2"><metadata
     id="metadata8"><rdf:RDF><cc:Work
         rdf:about=""><dc:format>image/svg+xml</dc:format><dc:type
           rdf:resource="http://purl.org/dc/dcmitype/StillImage" /></cc:Work></rdf:RDF></metadata><defs
     id="defs6" /><g
     transform="matrix(1.25,0,0,-1.25,0,326.25)"
     id="g10"><g
       transform="scale(0.1,0.1)"
       id="g12"><path
         id="path14"
         style="fill:#00188f;fill-opacity:1;fill-rule:nonzero;stroke:none"
         d="m 568.012,653.211 0,636.789 692.768,107.19 0,1083.2 c 0,69.61 -56.8,126.41 -126.37,126.41 l -1008,0 C 56.8008,2606.8 0,2550 0,2480.39 L 0,22.8203 l 1045.59,0 -479.18,69.5703 0,182.4184 -378.398,0 0,126.402 378.398,0 0,126.367 -378.398,0 0,126.41 380,-0.777 z M 189.609,2228.4 l 882.381,0 0,-126.4 -882.381,0 0,126.4 z" /><path
         id="path16"
         style="fill:#00188f;fill-opacity:1;fill-rule:nonzero;stroke:none"
         d="m 1260.78,722 756.84,0 0,643.2 -756.84,-100.78 0,-542.42 z" /><path
         id="path18"
         style="fill:#00188f;fill-opacity:1;fill-rule:nonzero;stroke:none"
         d="m 1198.4,722 0,536.01 -503.99,-69.61 0,-466.4 503.99,0 z" /><path
         id="path20"
         style="fill:#00188f;fill-opacity:1;fill-rule:nonzero;stroke:none"
         d="m 1198.4,653.211 -503.99,0 0,-453.602 503.99,-76.007 0,529.609 z" /><path
         id="path22"
         style="fill:#00188f;fill-opacity:1;fill-rule:nonzero;stroke:none"
         d="m 1260.78,653.211 0,-536.02 L 2017.62,10 l 0,643.211 -756.84,0 z" /></g></g></svg>