<?xml version="1.0" encoding="UTF-8" standalone="no"?>
<svg
   xmlns:dc="http://purl.org/dc/elements/1.1/"
   xmlns:cc="http://creativecommons.org/ns#"
   xmlns:rdf="http://www.w3.org/1999/02/22-rdf-syntax-ns#"
   xmlns:svg="http://www.w3.org/2000/svg"
   xmlns="http://www.w3.org/2000/svg"
   viewBox="0 0 262.5 341.25"
   height="341.25"
   width="262.5"
   xml:space="preserve"
   version="1.1"
   id="svg2"><metadata
     id="metadata8"><rdf:RDF><cc:Work
         rdf:about=""><dc:format>image/svg+xml</dc:format><dc:type
           rdf:resource="http://purl.org/dc/dcmitype/StillImage" /></cc:Work></rdf:RDF></metadata><defs
     id="defs6" /><g
     transform="matrix(1.25,0,0,-1.25,0,341.25)"
     id="g10"><g
       transform="scale(0.1,0.1)"
       id="g12"><path
         id="path14"
         style="fill:#00188f;fill-opacity:1;fill-rule:nonzero;stroke:none"
         d="m 762.379,1370.79 c 0,-163.99 -69.57,-315.2 -176.789,-428.79 L 774.41,753.211 c 157.578,157.578 252,371.989 252,611.209 0,239.18 -94.422,453.59 -252,604.76 L 585.59,1780.4 c 107.219,-94.42 176.789,-245.59 176.789,-409.61 z" /><path
         id="path16"
         style="fill:#00188f;fill-opacity:1;fill-rule:nonzero;stroke:none"
         d="m 1291.99,1370.79 c 0,-308.79 -126.4,-592.001 -333.592,-800.001 L 1147.19,382 c 252.03,251.988 409.61,598.398 409.61,983.2 0,384.8 -152,730.39 -403.99,982.38 L 963.98,2158.79 c 201.61,-195.97 328.01,-479.18 328.01,-788 z" /><path
         id="path18"
         style="fill:#00188f;fill-opacity:1;fill-rule:nonzero;stroke:none"
         d="m 1827.19,1370.79 c 0,-460.001 -188.79,-875.981 -484.81,-1172.001 L 1531.21,10 c 346.41,346.41 560.78,832 560.78,1360.79 0,528.82 -214.37,1008 -560.78,1354.41 l -188.83,-188.79 c 302.42,-296.01 484.81,-711.99 484.81,-1165.62 z" /><path
         id="path20"
         style="fill:#00188f;fill-opacity:1;fill-rule:nonzero;stroke:none"
         d="m 503.98,1364.42 c 0,-138.44 -113.589,-252.03 -251.992,-252.03 C 113.59,1112.39 0,1225.98 0,1364.42 c 0,138.4 113.59,251.99 251.988,251.99 138.403,0 251.992,-113.59 251.992,-251.99 z" /></g></g></svg>