<?xml version="1.0" encoding="UTF-8" standalone="no"?>
<svg
   xmlns:dc="http://purl.org/dc/elements/1.1/"
   xmlns:cc="http://creativecommons.org/ns#"
   xmlns:rdf="http://www.w3.org/1999/02/22-rdf-syntax-ns#"
   xmlns:svg="http://www.w3.org/2000/svg"
   xmlns="http://www.w3.org/2000/svg"
   viewBox="0 0 322.5 326.25"
   height="326.25"
   width="322.5"
   xml:space="preserve"
   version="1.1"
   id="svg2"><metadata
     id="metadata8"><rdf:RDF><cc:Work
         rdf:about=""><dc:format>image/svg+xml</dc:format><dc:type
           rdf:resource="http://purl.org/dc/dcmitype/StillImage" /></cc:Work></rdf:RDF></metadata><defs
     id="defs6" /><g
     transform="matrix(1.25,0,0,-1.25,0,326.25)"
     id="g10"><g
       transform="scale(0.1,0.1)"
       id="g12"><path
         id="path14"
         style="fill:#00188f;fill-opacity:1;fill-rule:nonzero;stroke:none"
         d="m 2521.6,1654.81 -1770.389,0 c -31.211,0 -63.199,-25.62 -63.199,-63.2 l 0,-1121.598 c 0,-31.211 25.578,-81.602 63.199,-81.602 l 755.979,0 0,-120 c 0,-37.621 -56.8,-107.23 -100.78,-107.23 l -126.41,0 c -138.4,0 -239.22,-37.578 -239.22,-113.5902 0,-37.5781 -6.37,-37.5781 132.03,-37.5781 l 69.57,0 c 107.23,0 126.41,63.1992 232.82,63.1992 l 271.21,0 c 107.18,0 188.79,-63.1992 258.39,-63.1992 l 69.61,0 c 138.4,0 138.4,6.4102 138.4,37.5781 0,69.6092 -107.22,113.5902 -245.62,113.5902 l -126.41,0 c -37.58,0 -87.97,69.609 -87.97,107.23 l 0,120 755.98,0 c 31.21,0 63.2,43.981 63.2,81.602 l 0,1122.378 c 12.81,31.21 -12.77,62.42 -50.39,62.42 z m -125.58,-1071.208 -1512.04,0 0,882.388 1512.04,0 0,-882.388 z" /><path
         id="path16"
         style="fill:#00188f;fill-opacity:1;fill-rule:nonzero;stroke:none"
         d="m 568.012,646.809 0,945.581 c 0,100.82 81.597,188.79 188.789,188.79 l 503.979,0 0,692.81 c 0,69.61 -56.8,126.41 -126.37,126.41 l -1008,0 C 56.8008,2600.4 0,2543.6 0,2473.99 L 0,16.4219 l 926.41,0 0,44.7578 c 0,44.0193 12.809,157.6213 176.79,214.4223 l -906.399,0 0,126.398 396.789,0 c -12.809,25.59 -19.18,56.801 -19.18,81.602 l 0,43.988 -378.39,0 0,125.621 371.992,0 0,-6.402 z M 190.391,2285.2 l 882.419,0 0,-188.78 -882.419,0 0,188.78 z" /></g></g></svg>