<?xml version="1.0" encoding="UTF-8" standalone="no"?>
<svg
   xmlns:dc="http://purl.org/dc/elements/1.1/"
   xmlns:cc="http://creativecommons.org/ns#"
   xmlns:rdf="http://www.w3.org/1999/02/22-rdf-syntax-ns#"
   xmlns:svg="http://www.w3.org/2000/svg"
   xmlns="http://www.w3.org/2000/svg"
   viewBox="0 0 347.5 346.25"
   height="346.25"
   width="347.5"
   xml:space="preserve"
   version="1.1"
   id="svg2"><metadata
     id="metadata8"><rdf:RDF><cc:Work
         rdf:about=""><dc:format>image/svg+xml</dc:format><dc:type
           rdf:resource="http://purl.org/dc/dcmitype/StillImage" /></cc:Work></rdf:RDF></metadata><defs
     id="defs6" /><g
     transform="matrix(1.25,0,0,-1.25,0,346.25)"
     id="g10"><g
       transform="scale(0.1,0.1)"
       id="g12"><path
         id="path14"
         style="fill:#00188f;fill-opacity:1;fill-rule:nonzero;stroke:none"
         d="m 1197.62,10 378.398,0 0,315.199 -378.398,0 0,-315.199 z" /><path
         id="path16"
         style="fill:#00188f;fill-opacity:1;fill-rule:nonzero;stroke:none"
         d="m 0,1585.2 0,-377.62 296.02,0 220.781,377.62 -516.801,0 z" /><path
         id="path18"
         style="fill:#00188f;fill-opacity:1;fill-rule:nonzero;stroke:none"
         d="m 2772.81,1207.58 0,377.62 -497.61,0 226.4,-377.62 271.21,0 z" /><path
         id="path20"
         style="fill:#00188f;fill-opacity:1;fill-rule:nonzero;stroke:none"
         d="m 2772.81,450.789 -2747.2202,0 L 1392.81,2763.6 2772.81,450.789 Z M 623.98,765.98 l 1544.03,0 -775.2,1323.21 L 623.98,765.98 Z" /><path
         id="path22"
         style="fill:#00188f;fill-opacity:1;fill-rule:nonzero;stroke:none"
         d="m 963.98,1459.62 863.21,0 -421.6,-687.229 -441.61,687.229 z" /></g></g></svg>