<svg xmlns="http://www.w3.org/2000/svg" viewBox="0 0 72.3125 75.537498" height="75.537" width="72.313"><path d="M72.309 57.816c0 11.98-6.814 17.721-15.222 17.721-8.407 0-15.22-5.325-15.22-16.782 0-8.408 6.813-12.41 15.22-12.41 8.408 0 15.222 3.064 15.222 11.471" fill="#99441f"/><path d="M57.087 42.595c8.407 0 15.222 6.815 15.222 15.221 0 8.407-6.815 15.221-15.222 15.221-8.406 0-15.22-6.814-15.22-15.22 0-8.407 6.814-15.222 15.22-15.222" fill="#f47327"/><path d="M52.225 50.313h2.139v8.012l8.147-8.012h2.768l-6.775 6.482 7.045 9.588h-2.7l-5.807-8.125-2.678 2.499v5.626h-2.139v-16.07" fill="#fff"/><path d="M56.459 3.546L6.391.004C2.92.004 0 2.912 0 6.36v58.435c0 .526.088 1.035.216 1.532.438 2.446 2.377 4.354 4.848 4.772.323.072.658.1.995.118l.014.036h36.454a21.471 21.471 0 0 1-2.678-4.084l-22.858-.364c9.144-4.02 20.888-9.704 20.902-12.396.022-4.408 10.441-20.656 28.357-11.815V6.044c0-3.449-6.32-2.498-9.791-2.498" fill="#99441f"/><path d="M37.614 57.826c0-11.446 9.08-20.729 20.529-20.729 2.953 0 5.607.624 8.107 1.74V6.043c0-3.277-2.272-6.04-5.57-6.04H6.073C2.775.004 0 2.767 0 6.044v55.522c0 3.277 2.775 5.938 6.073 5.938h33.94c-1.527-2.5-2.4-6.184-2.4-9.678" fill="#f47327"/></svg>