<svg xmlns="http://www.w3.org/2000/svg" viewBox="0 0 66.25 70.487503" height="70.488" width="66.25"><path d="M11.406 2.755h43.438c6.3 0 11.406 5.106 11.406 11.405v19.118c-2.248-1.163-7.169-2.399-14.468-2.399-3.27 0-6.047.256-8.343.623-4.918.817-7.52 2.214-7.52 3.076v32.48c0 .538.74 1.252 2.14 1.947H11.405C5.106 69.005 0 63.898 0 57.599V14.16C0 7.861 5.106 2.755 11.406 2.755" fill="#99441f"/><path d="M11.406.004h43.438c6.3 0 11.406 5.107 11.406 11.406v19.118c-2.248-1.163-7.169-2.4-14.468-2.4-3.27 0-6.047.256-8.343.623-4.918.818-7.52 2.214-7.52 3.076v32.48c0 .539.74 1.253 2.14 1.947H11.405C5.106 66.254 0 61.148 0 54.85v-43.44C0 5.11 5.106.005 11.406.005" fill="#f47227"/><path d="M52.937 36.864c-2.744 0-5.073.215-7 .523-2.393.398-6.308-.544-6.308-.544v3.124c0 .723 2.183 1.897 6.309 2.564 1.926.325 4.255.525 6.999.525 8.62 0 13.313-2.041 13.313-3.089v-3.124s-7.304.021-13.313.021M39.392 46.032l.02 21.372c0 1.082 3.708 3.084 12.653 3.084 4.89 0 8.584-.577 10.984-1.282 1.78-.576 3.037-1.226 3.179-1.712V46.232c-2.6 1.607-7.961 2.454-13.291 2.454h-.344c-.562-.017-1.092-.017-1.636-.037l-.22-.017c-.47-.02-.908-.037-1.362-.073a39.546 39.546 0 0 1-.674-.054c-.361-.037-.705-.054-1.052-.09-.203-.037-.383-.054-.567-.09-.38-.037-.744-.089-1.125-.145-2.91-.468-5.166-1.245-6.565-2.148" fill="#99441f"/><path d="M52.937 33.74c-2.744 0-5.073.215-7 .522-4.125.686-6.308 1.858-6.308 2.581 0 .723 2.183 1.897 6.309 2.563 1.926.325 4.255.525 6.999.525 8.62 0 13.313-2.04 13.313-3.088 0-1.047-4.692-3.103-13.313-3.103M39.392 42.907l.02 21.372c0 1.082 3.708 3.084 12.653 3.084 4.89 0 8.584-.576 10.984-1.282 1.78-.576 3.037-1.225 3.179-1.711V43.108c-2.6 1.606-7.961 2.453-13.291 2.453h-.344c-.562-.017-1.092-.017-1.636-.036l-.22-.018c-.47-.019-.908-.036-1.362-.073a40.869 40.869 0 0 1-.674-.053c-.361-.037-.705-.054-1.052-.09-.203-.037-.383-.055-.567-.091-.38-.037-.744-.088-1.125-.144-2.91-.469-5.166-1.245-6.565-2.149" fill="#f47327"/><path d="M11.406 66.254h26.652v2.75H11.406C5.106 69.005 0 63.899 0 57.6v-2.75c0 6.299 5.106 11.405 11.406 11.405" fill="#99441f"/><path d="M53.974 14.26L43.944 4.232v4.987H28.362v17.54h15.582v1.923a48.89 48.89 0 0 1 3.53-.392l10.264-10.264-3.764-3.764M6.3 14.26v12.498h17.25V9.218H6.3v5.043M11.112 43.797v12.498h17.25v-17.54h-17.25v5.042" fill="#fff"/></svg>