<svg xmlns="http://www.w3.org/2000/svg" viewBox="0 0 61.787498 69.887497" height="69.887" width="61.787"><path d="M53.167 41.66h-.136l-2.532-5.198 2.54-5.227h.128V41.66zm-9.93 2.6L24.65 39.652v-3.878l18.98-6.279 3.393 6.968-3.788 7.795zm6.355-2.525a2.496 2.496 0 0 0-1.919 2.425v1.199l-1.336-.331 2.426-4.993.829 1.7zM24.65 46.782v-3.91l17.19 4.26-4.2 8.642h-6.248c-.015 0-.03.004-.044.005L24.27 48.4a3.71 3.71 0 0 0 .38-1.618zM47.673 20.86v4.007l-2.43.804-4.155-8.531c.36-.087.685-.253.965-.476l5.62 4.196zM32.05 17.214h5.6l4.601 9.447-17.6 5.823v-2.852a3.72 3.72 0 0 0-.963-2.489l8.362-9.929zm9.947 39.063a2.482 2.482 0 0 0-.915-.43l3.86-7.947 2.732.678v3.411a2078.56 2078.56 0 0 0-5.677 4.288zM48.76 32.89l-2.136-4.385 1.05-.347v.576c0 1.183.823 2.168 1.926 2.428l-.84 1.728zm10.527-1.656a2.5 2.5 0 0 0 2.5-2.5v-9.113a2.5 2.5 0 0 0-2.5-2.5h-9.114c-.587 0-1.12.21-1.547.55l-5.62-4.196V5.601a2.5 2.5 0 0 0-2.5-2.5h-9.113a2.5 2.5 0 0 0-2.5 2.5v9.113c0 .393.098.758.259 1.089l-8.489 10.079H3.75A3.75 3.75 0 0 0 0 29.632v17.15a3.75 3.75 0 0 0 3.75 3.75H20.9c.332 0 .647-.057.953-.137l7.089 7.389c-.031.159-.05.322-.05.49v9.113a2.5 2.5 0 0 0 2.5 2.5h9.114a2.5 2.5 0 0 0 2.5-2.5v-7.952c1.923-1.457 3.846-2.912 5.596-4.231.43.351.973.57 1.571.57h9.114a2.5 2.5 0 0 0 2.5-2.5V44.16a2.5 2.5 0 0 0-2.5-2.5h-2.995V31.235h2.995" fill="#99441f"/><path d="M53.167 38.56h-.136l-2.532-5.198 2.54-5.226h.128V38.56zm-9.93 2.599L24.65 36.553v-3.878l18.98-6.279 3.393 6.968-3.788 7.795zm6.355-2.524a2.496 2.496 0 0 0-1.919 2.425v1.2l-1.336-.332 2.426-4.994.829 1.701zM24.65 43.682v-3.91l17.19 4.26-4.2 8.642h-6.248c-.015 0-.03.004-.044.004L24.27 45.3c.237-.491.38-1.035.38-1.618zM47.673 17.76v4.007l-2.43.804-4.155-8.532c.36-.086.685-.252.965-.475l5.62 4.196zM32.05 14.115h5.6l4.601 9.446-17.6 5.823v-2.852c0-.96-.37-1.826-.963-2.49l8.362-9.927zm9.947 39.062a2.484 2.484 0 0 0-.915-.43l3.86-7.946 2.732.676v3.413a2049.37 2049.37 0 0 0-5.677 4.287zM48.76 29.79l-2.136-4.385 1.05-.347v.577c0 1.182.823 2.167 1.926 2.427l-.84 1.728zm10.527-1.655a2.5 2.5 0 0 0 2.5-2.5v-9.114a2.5 2.5 0 0 0-2.5-2.5h-9.114c-.587 0-1.12.21-1.547.55l-5.62-4.196V2.501a2.5 2.5 0 0 0-2.5-2.5h-9.113a2.5 2.5 0 0 0-2.5 2.5v9.114c0 .392.098.757.259 1.088l-8.489 10.079H3.75A3.75 3.75 0 0 0 0 26.532v17.15a3.75 3.75 0 0 0 3.75 3.75H20.9c.332 0 .647-.057.953-.137l7.089 7.389c-.031.159-.05.322-.05.49v9.113a2.5 2.5 0 0 0 2.5 2.5h9.114a2.5 2.5 0 0 0 2.5-2.5v-7.952a3206.76 3206.76 0 0 1 5.596-4.231c.43.35.973.57 1.571.57h9.114a2.5 2.5 0 0 0 2.5-2.5V41.06a2.5 2.5 0 0 0-2.5-2.5h-2.995V28.136h2.995" fill="#f47327"/></svg>