<svg xmlns="http://www.w3.org/2000/svg" viewBox="0 0 66.25 69.375" height="69.375" width="66.25"><path d="M54.844 69.375H11.406C5.106 69.375 0 64.269 0 57.969V14.531C0 8.23 5.106 3.125 11.406 3.125h43.438c6.3 0 11.406 5.106 11.406 11.406v43.438c0 6.3-5.106 11.406-11.406 11.406" fill="#99441f"/><path d="M54.844 66.25H11.406C5.106 66.25 0 61.143 0 54.844V11.405C0 5.106 5.106 0 11.406 0h43.438c6.3 0 11.406 5.107 11.406 11.406v43.44c0 6.298-5.106 11.405-11.406 11.405" fill="#f47227"/><path d="M11.112 43.793v12.498h17.25V38.75h-17.25v5.043M43.944 31.813L57.738 18.02l-3.764-3.764-10.03-10.03v4.987H28.362v17.54h15.582v5.06M23.55 14.256V9.213H6.3v17.54h17.25V14.257M48.757 33.735v4.987H33.174v17.54h15.583v5.06L62.55 47.528l-3.764-3.763-10.03-10.03" fill="#fff"/></svg>