<svg xmlns="http://www.w3.org/2000/svg" viewBox="0 0 74.75 90" height="90" width="74.75"><path d="M74.605 50.247L37.302 48.7 0 50.247l37.302 17.172 37.303-17.172" fill="#fab582"/><path d="M.017 44.97h44.846V3.724L37.417 0 .017 18.652v26.319" fill="#99441f"/><path d="M74.749 63.524l-37.39-5.44-37.342 5.44L37.44 90l37.31-26.476" fill="#fab582"/><path d="M37.417 44.97h19.732V16.888l-5.762-2.304-13.97 4.074v26.314" fill="#99441f"/><path d="M51.387 44.97h15.251V26.756l-4.363-1.308-10.888 1.848V44.97" fill="#99441f"/><path d="M62.275 44.97h12.33l.143-21.044-3.745-1.497-8.728 1.59V44.97" fill="#99441f"/><path d="M44.863 3.723L37.417 0v44.97h7.446V3.724M57.148 16.887l-5.761-2.305v30.389h5.761V16.887M66.638 26.755l-4.363-1.308V44.97h4.363V26.755M71.003 22.43l3.746 1.496V44.97h-3.746V22.429M74.605 58.12L37.302 67.42V53.976l37.303-3.73v7.873M74.749 63.524L37.302 76.728V90L74.75 71.278v-7.754" fill="#f47327"/><path d="M.017 63.524l37.285 13.107V90L.017 71.358v-7.834M0 50.247l37.302 3.73v13.442L0 58.12v-7.873" fill="#99441f"/></svg>