<svg xmlns="http://www.w3.org/2000/svg" viewBox="0 0 74.525002 90" height="90" width="74.525"><path d="M19.291 44.975L15 70.68 3.755 73.25.02 71.381V44.975h19.271" fill="#99441f"/><path d="M74.52 35.92L37.259 38.57 0 35.92 37.259 0 74.52 35.92" fill="#653219"/><path d="M44.684 44.975H3.754V73.25l40.93-9.357V44.976" fill="#f47327"/><path d="M24.22 44.975l1.337 28.91-13.098 3.718-4.58-2.29V44.975h16.34" fill="#99441f"/><path d="M56.939 44.975h-44.48v32.628l44.48-12.628v-20" fill="#f47327"/><path d="M33.542 44.974v34.32l-10.22 3.739-5.75-2.874V44.975l15.97-.001" fill="#99441f"/><path d="M66.632 44.975h-43.31v38.058l43.31-15.845V44.974" fill="#f47327"/><path d="M29.829 86.286v-41.31H58.04l13.53 27.867L37.255 90l-7.425-3.714" fill="#99441f"/><path d="M37.255 90V44.974h37.258v26.399L37.255 90M74.52 35.92l-37.261-6.404V0L74.52 18.628V35.92" fill="#f47327"/><path d="M0 35.92l37.26-6.404V0L0 18.627V35.92" fill="#99441f"/></svg>