<svg xmlns="http://www.w3.org/2000/svg" viewBox="0 0 92.5 66.849998" height="66.85" width="92.5"><path d="M87.658 20.6h-3.39c-2.51 0-4.573 1.389-4.817 3.75h-5.569c-.612-4.721-2.45-8.75-4.623-8.75H60v-1.527c0-2.674-1.14-4.723-3.814-4.723H50v-2.5h7.518C58.386 6.85 60 5.622 60 4.752v-.24V1.41H28.75v3.341c0 .87 1.026 2.098 1.896 2.098h8.104v2.5h-6.772c-2.677 0-5.728 2.05-5.728 4.723V15.6H15.998c-2.674 0-4.748 2.578-4.748 5.252V35.6H5V19.158c0-.935-1.301-1.694-2.5-1.694S0 18.223 0 19.158v38.734c0 .936 1.301 1.694 2.5 1.694S5 58.828 5 57.892V41.85h6.25v13.864c0 2.675 2.074 4.886 4.748 4.886h21.45c.83 3.75 2.405 6.25 4.212 6.25H69.26c2.375 0 4.35-5 4.763-10H80v.801c0 2.674 1.594 4.199 4.269 4.199h3.389c2.674 0 4.842-1.526 4.842-4.199V25.21c0-2.673-2.168-4.609-4.842-4.609" fill="#99441f"/><path d="M87.658 17.5H84.27c-2.51 0-4.573 1.389-4.817 3.75h-5.569c-.613-4.721-2.451-8.75-4.624-8.75H60v-1.528C60 8.3 58.86 6.25 56.187 6.25h-6.186v-2.5h7.517C58.387 3.75 60 2.522 60 1.653V1.41C60 .542 58.387 0 57.518 0H30.647c-.869 0-1.897.542-1.897 1.411v.242c0 .868 1.027 2.097 1.897 2.097h8.104v2.5h-6.773c-2.676 0-5.728 2.05-5.728 4.722V12.5H16c-2.676 0-4.75 2.577-4.75 5.251V32.5H5V16.057c0-.935-1.3-1.693-2.5-1.693-1.198 0-2.5.758-2.5 1.693v38.735c0 .935 1.302 1.694 2.5 1.694 1.2 0 2.5-.759 2.5-1.694V38.75h6.25v13.864c0 2.675 2.074 4.886 4.75 4.886h21.448c.831 3.75 2.407 6.25 4.213 6.25h27.598c2.375 0 4.35-5 4.763-10h5.979v.801c0 2.674 1.593 4.199 4.268 4.199h3.39c2.674 0 4.842-1.526 4.842-4.199V22.11c0-2.674-2.168-4.61-4.843-4.61" fill="#f47327"/><path d="M18.892 29.25h2.018l3.493 9.314 3.51-9.315h2.017v11.085h-1.397v-9.222h-.03l-3.464 9.222h-1.257l-3.462-9.222h-.031v9.222h-1.397V29.25M37.141 36.189c-.512.372-1.506.388-2.39.543-.87.155-1.616.467-1.616 1.444 0 .87.746 1.18 1.553 1.18 1.739 0 2.453-1.087 2.453-1.816V36.19zm2.143 4.115c-.233.14-.529.217-.947.217-.684 0-1.118-.373-1.118-1.242-.73.854-1.708 1.242-2.826 1.242-1.46 0-2.655-.653-2.655-2.252 0-1.817 1.35-2.205 2.717-2.468 1.46-.28 2.701-.186 2.701-1.18 0-1.15-.946-1.335-1.785-1.335-1.118 0-1.94.342-2.002 1.521h-1.32c.078-1.987 1.615-2.686 3.4-2.686 1.444 0 3.012.327 3.012 2.205v4.13c0 .621 0 .9.419.9.109 0 .233-.015.404-.077v1.025M44.287 33.286c-1.77 0-2.453 1.521-2.453 3.027 0 1.584.714 3.044 2.53 3.044 1.802 0 2.408-1.537 2.408-3.106 0-1.506-.777-2.965-2.485-2.965zm-3.726-.979h1.32v1.088h.03c.436-.885 1.46-1.274 2.563-1.274 2.468 0 3.695 1.956 3.695 4.223s-1.211 4.177-3.665 4.177c-.822 0-2.002-.311-2.592-1.258h-.032v4.145h-1.319V32.307M54.492 34.357c1.382 0 2.562-.357 2.562-1.972 0-1.086-.59-1.894-1.972-1.894H51.42v3.866h3.073zm-4.549-5.108h5.217c2.08 0 3.369 1.133 3.369 2.903 0 1.336-.59 2.438-1.925 2.81v.032c1.289.248 1.553 1.195 1.661 2.281.093 1.088.031 2.3.652 3.06h-1.645c-.42-.45-.187-1.646-.404-2.732-.156-1.088-.42-2.004-1.848-2.004h-3.602v4.735h-1.475V29.25M64.934 29.25h2.018l3.493 9.314 3.51-9.315h2.017v11.085h-1.397v-9.222h-.031l-3.462 9.222h-1.258l-3.462-9.222h-.031v9.222h-1.397V29.25M80.606 34.047c.202.015.388.015.574.015 1.118 0 2.096-.605 2.096-1.801 0-1.149-.839-1.77-1.956-1.77-1.444 0-2.065 1.102-2.08 2.391h-1.32c.078-2.096 1.195-3.556 3.4-3.556 1.91 0 3.353.917 3.353 2.95 0 .964-.683 1.801-1.52 2.19v.031c1.334.294 1.987 1.35 1.987 2.67 0 2.204-1.724 3.354-3.79 3.354-2.235 0-3.71-1.32-3.664-3.586h1.32c.047 1.428.84 2.422 2.345 2.422 1.289 0 2.391-.793 2.391-2.128 0-1.382-1.04-2.112-2.345-2.112-.264 0-.543.016-.791.048v-1.118" fill="#fff"/></svg>