<svg xmlns="http://www.w3.org/2000/svg" viewBox="0 0 92.5 66.849998" height="66.85" width="92.5"><path d="M87.658 20.6h-3.39c-2.51 0-4.573 1.389-4.817 3.75h-5.569c-.612-4.721-2.45-8.75-4.623-8.75H60v-1.527c0-2.674-1.14-4.723-3.814-4.723H50v-2.5h7.518C58.386 6.85 60 5.622 60 4.752v-.24V1.41H28.75v3.341c0 .87 1.026 2.098 1.896 2.098h8.104v2.5h-6.772c-2.677 0-5.728 2.05-5.728 4.723V15.6H15.998c-2.674 0-4.748 2.578-4.748 5.252V35.6H5V19.158c0-.935-1.301-1.694-2.5-1.694S0 18.223 0 19.158v38.734c0 .936 1.301 1.694 2.5 1.694S5 58.828 5 57.892V41.85h6.25v13.864c0 2.675 2.074 4.886 4.748 4.886h21.45c.83 3.75 2.405 6.25 4.212 6.25H69.26c2.375 0 4.35-5 4.763-10H80v.801c0 2.674 1.594 4.199 4.269 4.199h3.389c2.674 0 4.842-1.526 4.842-4.199V25.21c0-2.673-2.168-4.609-4.842-4.609" fill="#99441f"/><path d="M87.658 17.5h-3.39c-2.51 0-4.573 1.389-4.817 3.75h-5.569c-.612-4.721-2.45-8.75-4.623-8.75H60v-1.528C60 8.3 58.86 6.25 56.186 6.25H50v-2.5h7.518C58.386 3.75 60 2.522 60 1.653V1.41C60 .542 58.386 0 57.518 0H30.646c-.869 0-1.896.542-1.896 1.411v.242c0 .868 1.026 2.097 1.896 2.097h8.104v2.5h-6.772c-2.677 0-5.728 2.05-5.728 4.722V12.5H15.998c-2.674 0-4.748 2.577-4.748 5.251V32.5H5V16.057c0-.935-1.301-1.693-2.5-1.693S0 15.122 0 16.057v38.735c0 .935 1.301 1.694 2.5 1.694S5 55.727 5 54.792V38.75h6.25v13.864c0 2.675 2.074 4.886 4.748 4.886h21.45c.83 3.75 2.405 6.25 4.212 6.25H69.26c2.375 0 4.35-5 4.762-10H80v.801c0 2.674 1.594 4.199 4.269 4.199h3.389c2.675 0 4.842-1.526 4.842-4.199V22.11c0-2.673-2.167-4.61-4.842-4.61" fill="#f47327"/></svg>