<svg xmlns="http://www.w3.org/2000/svg" viewBox="0 0 125 125" height="125" width="125"><path d="M82.343 86.8L62.5 82.41 42.657 86.8 62.5 107.5l19.843-20.7" fill="#fab582"/><path d="M25.221 46.96L62.5 17.5l37.279 29.46L62.5 51.511l-37.279-4.55" fill="#653219"/><path d="M62.5 35.973L99.779 46.96V36.14L62.5 17.5v18.473M92.299 59.55L62.5 58.09v18l29.799-4.5V59.55" fill="#f47327"/><path d="M32.702 59.55L62.5 58.09v18l-29.798-4.5V59.55M62.5 35.973L25.221 46.96V36.14L62.5 17.5v18.473" fill="#99441f"/><path d="M82.343 86.8L62.5 93.673V107.5l19.843-9.922V86.8" fill="#f47327"/><path d="M42.657 86.8L62.5 93.673V107.5l-19.843-9.922V86.8" fill="#99441f"/></svg>