<svg xmlns="http://www.w3.org/2000/svg" viewBox="0 0 92.5 66.849998" height="66.85" width="92.5"><path d="M87.658 20.6h-3.39c-2.51 0-4.573 1.389-4.817 3.75h-5.569c-.612-4.721-2.45-8.75-4.623-8.75H60v-1.527c0-2.674-1.14-4.723-3.814-4.723H50v-2.5h7.518C58.386 6.85 60 5.622 60 4.752v-.24V1.41H28.75v3.341c0 .87 1.026 2.098 1.896 2.098h8.104v2.5h-6.772c-2.677 0-5.728 2.05-5.728 4.723V15.6H15.998c-2.674 0-4.748 2.578-4.748 5.252V35.6H5V19.158c0-.935-1.301-1.694-2.5-1.694S0 18.223 0 19.158v38.734c0 .936 1.301 1.694 2.5 1.694S5 58.828 5 57.892V41.85h6.25v13.864c0 2.675 2.074 4.886 4.748 4.886h21.45c.83 3.75 2.405 6.25 4.212 6.25H69.26c2.375 0 4.35-5 4.763-10H80v.801c0 2.674 1.594 4.199 4.269 4.199h3.389c2.674 0 4.842-1.526 4.842-4.199V25.21c0-2.673-2.168-4.609-4.842-4.609" fill="#99441f"/><path d="M87.658 17.5h-3.39c-2.51 0-4.573 1.389-4.817 3.75h-5.569c-.612-4.721-2.45-8.75-4.623-8.75H60v-1.528C60 8.3 58.86 6.25 56.186 6.25H50v-2.5h7.518C58.386 3.75 60 2.522 60 1.653V1.41C60 .542 58.386 0 57.518 0H30.646c-.869 0-1.896.542-1.896 1.411v.242c0 .868 1.026 2.097 1.896 2.097h8.104v2.5h-6.772c-2.677 0-5.728 2.05-5.728 4.722V12.5H15.998c-2.674 0-4.748 2.577-4.748 5.251V32.5H5V16.057c0-.935-1.301-1.693-2.5-1.693S0 15.122 0 16.057v38.735c0 .935 1.301 1.694 2.5 1.694S5 55.727 5 54.792V38.75h6.25v13.864c0 2.675 2.074 4.886 4.748 4.886h21.45c.83 3.75 2.405 6.25 4.212 6.25H69.26c2.375 0 4.35-5 4.762-10H80v.801c0 2.674 1.594 4.199 4.269 4.199h3.389c2.675 0 4.842-1.526 4.842-4.199V22.11c0-2.673-2.167-4.61-4.842-4.61" fill="#f47327"/><path d="M18.891 29.25h2.018l3.493 9.314 3.51-9.315h2.018v11.085h-1.397v-9.222H28.5l-3.462 9.222h-1.257l-3.463-9.222h-.03v9.222H18.89V29.25M37.14 36.189c-.512.372-1.505.388-2.39.543-.87.155-1.615.467-1.615 1.444 0 .87.745 1.18 1.552 1.18 1.74 0 2.454-1.087 2.454-1.816V36.19zm2.143 4.115c-.233.14-.528.217-.947.217-.683 0-1.118-.373-1.118-1.242-.73.854-1.708 1.242-2.825 1.242-1.46 0-2.655-.653-2.655-2.252 0-1.817 1.35-2.205 2.717-2.468 1.459-.28 2.7-.186 2.7-1.18 0-1.15-.946-1.335-1.784-1.335-1.118 0-1.941.342-2.003 1.521h-1.32c.078-1.987 1.615-2.686 3.4-2.686 1.444 0 3.012.327 3.012 2.205v4.13c0 .621 0 .9.42.9.108 0 .232-.015.403-.077v1.025M44.287 33.286c-1.77 0-2.453 1.521-2.453 3.027 0 1.584.714 3.044 2.53 3.044 1.801 0 2.407-1.537 2.407-3.106 0-1.506-.777-2.965-2.484-2.965zm-3.727-.979h1.32v1.088h.031c.435-.885 1.46-1.274 2.562-1.274 2.468 0 3.696 1.956 3.696 4.223s-1.211 4.177-3.665 4.177c-.823 0-2.002-.311-2.593-1.258h-.031v4.145h-1.32V32.307M54.492 34.357c1.382 0 2.561-.357 2.561-1.972 0-1.086-.59-1.894-1.971-1.894h-3.664v3.866h3.074zm-4.55-5.108h5.217c2.081 0 3.37 1.133 3.37 2.903 0 1.336-.59 2.438-1.925 2.81v.032c1.288.248 1.552 1.195 1.66 2.281.093 1.088.032 2.3.652 3.06h-1.645c-.42-.45-.186-1.646-.404-2.732-.155-1.088-.42-2.004-1.847-2.004h-3.602v4.735h-1.475V29.25M64.933 29.25h2.018l3.493 9.314 3.51-9.315h2.018v11.085h-1.397v-9.222h-.031l-3.463 9.222h-1.257l-3.463-9.222h-.03v9.222h-1.398V29.25M84.518 30.678h-4.441l-.59 3.167.031.03c.481-.543 1.305-.792 2.05-.792 1.956 0 3.555 1.26 3.555 3.774 0 1.863-1.289 3.664-3.85 3.664-1.91 0-3.463-1.164-3.51-3.152h1.32c.079 1.133.994 1.988 2.313 1.988 1.259 0 2.33-.855 2.33-2.609 0-1.46-1.01-2.5-2.484-2.5-.84 0-1.537.42-2.05 1.04l-1.133-.061 1.024-5.714h5.435v1.165" fill="#fff"/></svg>