<svg xmlns="http://www.w3.org/2000/svg" viewBox="0 0 125 125" height="125" width="125"><path d="M19.912 47.596l8.962.937 7.495-1.506-9.4-18.215-7.057 18.784M105.087 47.596l-8.96.937-7.496-1.506 9.4-18.215 7.056 18.784" fill="#5b431a"/><path d="M19.932 71.475L62.5 77.87l42.568-6.395V53.752L62.5 47.612l-42.568 6.14v17.723" fill="#7f631e"/><path d="M105.156 77.387l-9.03-.92-7.495 1.506 9.4 18.215 7.125-18.8M19.844 77.387l9.03-.92 7.495 1.506-9.4 18.215-7.125-18.8" fill="#f8d57b"/><path d="M98.03 28.812l-9.399 2.285v15.93l9.4-1.17V28.812" fill="#7f631e"/><path d="M93.885 44.835l-9.778 1.282L73.582 44l10.153-22.336 10.15 23.171" fill="#5b431a"/><path d="M73.582 44l10.153-1.667V21.665l-10.153 3.337v18.999" fill="#7f631e"/><path d="M26.97 28.812l9.399 2.285v15.93l-9.4-1.17V28.812M105.087 47.596l-7.057-1.74V28.813l7.057 3.528v15.256" fill="#d5a22c"/><path d="M31.114 44.835l9.778 1.282L51.417 44 41.266 21.664 31.114 44.835" fill="#5b431a"/><path d="M51.417 44l-10.151-1.667V21.665l10.151 3.337v18.999M105.068 71.475L62.5 77.87V47.613l42.568 6.139v17.723M93.885 44.835l-10.15-2.503V21.664l10.15 5.075v18.096" fill="#d5a22c"/><path d="M78.121 40.95L62.5 43.783 46.879 40.95 62.5 11.047 78.121 40.95" fill="#5b431a"/><path d="M78.121 40.95L62.5 37.097v-26.05l15.621 7.81V40.95" fill="#d5a22c"/><path d="M19.912 47.596l7.058-1.74V28.813l-7.058 3.528v15.256M31.114 44.835l10.152-2.503V21.664L31.114 26.74v18.096M46.879 40.95L62.5 37.097v-26.05l-15.621 7.81V40.95M98.03 96.188l-9.399-2.285v-15.93l9.4 1.17v17.045" fill="#7f631e"/><path d="M105.087 77.404l-7.057 1.74v17.044l7.057-3.528V77.404" fill="#d5a22c"/><path d="M93.885 80.165l-9.778-1.283-10.525 2.116 10.153 22.337 10.15-23.17" fill="#f8d57b"/><path d="M93.885 80.165l-10.15 2.502v20.669l10.15-5.075V80.165" fill="#d5a22c"/><path d="M73.582 80.998l10.153 1.669v20.668l-10.153-3.337v-19" fill="#7f631e"/><path d="M26.97 96.188l9.399-2.285v-15.93l-9.4 1.17v17.045" fill="#d5a22c"/><path d="M31.114 80.165l9.778-1.283 10.525 2.116-10.151 22.337-10.152-23.17" fill="#f8d57b"/><path d="M51.417 80.998l-10.151 1.644v20.693l10.151-3.337v-19" fill="#d5a22c"/><path d="M78.121 84.052L62.5 81.217l-15.621 2.835L62.5 113.953l15.621-29.901" fill="#f8d57b"/><path d="M78.121 84.052L62.5 87.902v26.051l15.621-7.81V84.052" fill="#d5a22c"/><path d="M19.912 77.404l7.058 1.74v17.044l-7.058-3.528V77.404M31.114 80.165l10.152 2.502v20.669L31.114 98.26V80.165M46.879 84.052l15.621 3.85v26.051l-15.621-7.81V84.052" fill="#7f631e"/></svg>