<svg xmlns="http://www.w3.org/2000/svg" viewBox="0 0 125 125" height="125" width="125"><path d="M34.976 96.25h55v-70h-55v70z" fill="#7f631e"/><path d="M34.976 93.316h55V26.25h-55v67.066z" fill="#d5a22c"/><path d="M30 43.667l8.438 9.364L30 62.395V43.667" fill="#d5a22c"/><path d="M31.25 46.921v12.22l5.505-6.11-5.505-6.11zm-2.5 18.728V40.413L40.12 53.03 28.75 65.649" fill="#fff"/><path d="M95 62.395l-8.438-9.364L95 43.667v18.728" fill="#d5a22c"/><path d="M88.245 53.03l5.505 6.11V46.922l-5.505 6.11zm8.005 12.62L84.88 53.03l11.37-12.617v25.236M41.25 39.158h42.5v-6.25h-42.5v6.25zM41.25 48.658h42.5v-6.25h-42.5v6.25zM41.25 58.158h42.5v-6.25h-42.5v6.25zM41.25 67.658h42.5v-6.25h-42.5v6.25zM41.25 77.158h42.5v-6.25h-42.5v6.25zM41.25 86.658h42.5v-6.25h-42.5v6.25z" fill="#fff"/></svg>