<svg xmlns="http://www.w3.org/2000/svg" viewBox="0 0 125 125" height="125" width="125"><path d="M28.901 97.63H96.1V27.37H28.9v70.26z" fill="#7f631e"/><path d="M28.901 94.477H96.1V27.368H28.9v67.108z" fill="#d5a22c"/><path d="M78.111 68.8a17.547 17.547 0 0 1-7.734 7.734 17.447 17.447 0 0 1-7.877 1.889 17.447 17.447 0 0 1-7.877-1.889 17.548 17.548 0 0 1-7.734-7.734A17.45 17.45 0 0 1 45 60.923a17.45 17.45 0 0 1 1.889-7.878 17.548 17.548 0 0 1 7.734-7.733 17.45 17.45 0 0 1 7.877-1.889 17.45 17.45 0 0 1 7.877 1.889 17.548 17.548 0 0 1 7.734 7.733A17.45 17.45 0 0 1 80 60.922a17.45 17.45 0 0 1-1.889 7.878zm8.832-13.346a24.877 24.877 0 0 0-3.298-7.942l3.157-3.156-7.734-7.735-3.157 3.157a24.877 24.877 0 0 0-7.942-3.298v-4.456H57.03v4.456a24.878 24.878 0 0 0-7.942 3.298l-3.157-3.157-7.734 7.735 3.158 3.156a24.877 24.877 0 0 0-3.299 7.942h-4.456v10.938h4.456a24.878 24.878 0 0 0 3.298 7.942l-3.157 3.156 7.734 7.735 3.157-3.158a24.881 24.881 0 0 0 7.942 3.299v4.456H67.97v-4.456a24.88 24.88 0 0 0 7.942-3.299l3.157 3.158 7.734-7.735-3.158-3.156a24.878 24.878 0 0 0 3.299-7.942h4.456V55.454h-4.456" fill="#fff"/><path d="M70.635 55.454a9.849 9.849 0 0 0-2.666-2.666 9.745 9.745 0 0 0-3.586-1.482 9.85 9.85 0 0 0-1.883-.185 9.85 9.85 0 0 0-1.883.185 9.745 9.745 0 0 0-3.586 1.482 9.849 9.849 0 0 0-2.666 2.666 9.746 9.746 0 0 0-1.482 3.586 9.842 9.842 0 0 0-.185 1.883c0 .644.066 1.273.185 1.883a9.748 9.748 0 0 0 1.482 3.586 9.842 9.842 0 0 0 2.666 2.666 9.747 9.747 0 0 0 3.586 1.482 9.84 9.84 0 0 0 1.883.185 9.84 9.84 0 0 0 1.883-.185 9.747 9.747 0 0 0 3.586-1.482 9.842 9.842 0 0 0 2.666-2.666 9.75 9.75 0 0 0 1.482-3.586 9.85 9.85 0 0 0 .185-1.883c0-.645-.066-1.274-.185-1.883a9.748 9.748 0 0 0-1.482-3.586" fill="#fff"/></svg>