<svg xmlns="http://www.w3.org/2000/svg" viewBox="0 0 125 125" height="125" width="125"><path d="M39.255 27.455L18.38 60.685 39.254 93.92l16.673-4.273.828-57.709-17.5-4.483" fill="#7f631e"/><path d="M62.565 87.947L39.254 93.92V27.455l23.31 5.97v54.522" fill="#d5a22c"/><path d="M59.791 38.854l2.774 75.098 44.055-22.044-.007-56.09-11.237 1.86-35.585 1.176" fill="#7f631e"/><path d="M76.603 53.681l13.748-.805 13.586-24.65L69.58 11.047l-12.825 5.615L76.603 53.68" fill="#7f631e"/><path d="M69.58 11.048l34.357 17.177-13.586 24.652-20.771-41.83" fill="#d5a22c"/><path d="M62.559 18.176L90.35 68.599l4.78 29.058-32.566 16.295-13.195-6.601V23.446l13.183-5.27h.006" fill="#7f631e"/><path d="M106.611 35.818l.009 56.09-44.056 22.044-.005-95.776L90.35 68.599l16.26-32.781" fill="#d5a22c"/></svg>