<svg xmlns="http://www.w3.org/2000/svg" viewBox="0 0 125 125" height="125" width="125"><path d="M34.885 34.297l-14.908-1.988V83.78l14.908-3.415v-46.07" fill="#d5a22c"/><path d="M19.977 40.469l14.908 2.268L62.5 35.51l27.615 7.227v36.091l14.908 4.953V32.309L62.5 11.047 19.977 32.309v8.16" fill="#7f631e"/><path d="M55.588 33.702l6.998-2.097 33.903 10.17-6.374.962-34.527-9.035" fill="#5b431a"/><path d="M55.502 97.89V77.293l34.613-4.707 6.376.499-.002 12.25-40.987 12.557" fill="#f8d57b"/><path d="M69.412 33.702l-6.998-2.097-33.903 10.17 6.374.962 34.527-9.035" fill="#5b431a"/><path d="M69.499 95V77.292l-34.614-4.707-6.376.499v11.76L69.5 95" fill="#f8d57b"/><path d="M105.023 44.337L62.5 31.58V11.047l42.523 21.262v12.028M105.023 83.78L62.5 98.916V78.382l42.523-6.63v12.029" fill="#d5a22c"/><path d="M96.49 28.231l8.533 4.244V83.78l-8.534 3.036V28.232M75.22 80.366L62.5 82.909v31.044l12.72-6.402V80.366" fill="#d5a22c"/><path d="M90.115 42.737l6.374-.961v31.308l-6.374-.5V42.738M19.977 83.78L62.5 98.916V78.382l-42.523-6.63v12.029" fill="#7f631e"/><path d="M28.51 28.231l-8.533 4.244V83.78l8.534 3.036V28.232M49.78 80.366l12.72 2.543v31.044l-12.72-6.402V80.366" fill="#7f631e"/></svg>