<svg xmlns="http://www.w3.org/2000/svg" viewBox="0 0 125 125" height="125" width="125"><path d="M105.124 68.94l-20.696-.857-13.417.856 22.144 30.099 11.97-30.098" fill="#f8d57b"/><path d="M105.124 56.471l-20.696.858-13.417-.856 22.144-30.099 11.97 30.097M19.875 56.436l20.697.893 13.417-.856-22.144-29.95-11.97 29.913" fill="#5b431a"/><path d="M19.875 68.94l20.697-.857 13.417.856-22.144 30.12-11.97-30.119" fill="#f8d57b"/><path d="M93.155 55.275l11.97 1.196V32.36l-11.97-5.986v28.9" fill="#d5a22c"/><path d="M71.011 32.346l22.144-5.972v28.9L71.01 56.474V32.346" fill="#7f631e"/><path d="M62.5 28.85l23.977 7.84v11.917L62.5 44.387V28.85" fill="#d5a22c"/><path d="M51.695 46.344l10.978-1.926 23.804 4.19-10.645 1.165-24.137-3.43" fill="#5b431a"/><path d="M31.845 55.275l-11.97 1.16V32.251l11.97-5.898v28.922" fill="#7f631e"/><path d="M53.989 32.346l-22.144-5.993v28.922l22.144 1.198V32.346" fill="#d5a22c"/><path d="M62.5 28.85l-23.977 7.84v11.917l23.977-4.22V28.85" fill="#7f631e"/><path d="M73.305 46.344l-10.978-1.926-23.804 4.19 10.645 1.165 24.137-3.43" fill="#5b431a"/><path d="M93.155 70.137l11.97-1.197v24.112l-11.97 5.986V70.137" fill="#d5a22c"/><path d="M71.011 93.066l22.144 5.972V70.137L71.01 68.939v24.127" fill="#7f631e"/><path d="M62.5 96.562l23.977-7.84V76.803L62.5 81.024v15.538" fill="#d5a22c"/><path d="M51.695 79.068l10.978 1.925 23.804-4.189-10.645-1.165-24.137 3.429" fill="#f8d57b"/><path d="M31.845 70.137l-11.97-1.197v24.112l11.97 6.007V70.137" fill="#7f631e"/><path d="M53.989 93.066l-22.144 5.993V70.137l22.144-1.198v24.127" fill="#d5a22c"/><path d="M62.5 96.562l-23.977-7.84V76.803l23.977 4.22v15.538" fill="#7f631e"/><path d="M73.305 79.068l-10.978 1.925-23.804-4.189 10.645-1.165 24.137 3.429" fill="#f8d57b"/><path d="M49.75 107.579l12.75 6.374 7.082-3.54L75.25 17.42 62.5 11.047 49.75 17.42v90.158" fill="#7f631e"/><path d="M75.25 107.579l-12.75 6.374V11.047l12.75 6.374v90.158" fill="#d5a22c"/></svg>