<svg xmlns="http://www.w3.org/2000/svg" viewBox="0 0 125 125" height="125" width="125"><path d="M24.159 30.212l-4.274 2.137v60.303l4.274 2.137 17.3-30.726-17.3-33.851" fill="#99441f"/><path d="M34.119 92.446l-9.96 2.343V30.212l9.96 2.277v59.957" fill="#f47327"/><path d="M28.879 27.852l5.24-2.62L59.063 65.21 34.118 99.767l-5.24-2.62V27.852" fill="#99441f"/><path d="M46.546 96.253L34.12 99.767V25.233l12.427 3.527v67.493" fill="#f47327"/><path d="M39.97 22.307l6.576-3.289 36.788 50.566-36.788 36.398-6.576-3.289V22.307" fill="#99441f"/><path d="M62.489 100.165l-15.943 5.817V19.019l15.943 5.833v75.313" fill="#f47327"/><path d="M53.992 15.296l8.497-4.25 39.803 54.37-39.803 48.537-8.497-4.248v-94.41" fill="#99441f"/><path d="M105.115 92.64L62.49 113.953V11.047l42.626 21.313v60.28" fill="#f47327"/></svg>