<svg xmlns="http://www.w3.org/2000/svg" viewBox="0 0 125 125" height="125" width="125"><path d="M84.225 97.175h-43.45c-6.296 0-11.4-5.104-11.4-11.4v-43.45c0-6.296 5.104-11.4 11.4-11.4h43.45c6.296 0 11.4 5.104 11.4 11.4v43.45c0 6.296-5.104 11.4-11.4 11.4" fill="#99441f"/><path d="M84.225 94.075h-43.45c-6.296 0-11.4-5.104-11.4-11.4v-43.45c0-6.296 5.104-11.4 11.4-11.4h43.45c6.296 0 11.4 5.104 11.4 11.4v43.45c0 6.296-5.104 11.4-11.4 11.4" fill="#f47327"/><path d="M63.88 82.776h7.102V68.669h-7.101v14.107zM72.59 82.776h7.106V61.428h-7.107v21.348zM81.295 82.776h7.107v-9.29h-7.107v9.29zM87.89 83.828H63.304v3.826h25.613v-3.826h-1.029" fill="#fff"/></svg>