<svg xmlns="http://www.w3.org/2000/svg" viewBox="0 0 125 125" height="125" width="125"><path d="M19.886 92.651l5.423 2.712 9.587-32.812-9.587-32.915-5.423 2.711v60.304" fill="#99441f"/><path d="M35.818 32.143l-10.51-2.463v65.683l10.51-2.465V32.143" fill="#f47327"/><path d="M31.835 26.373l7.965-3.982 9.939 40.16-9.94 40.056-7.964-3.981V26.373" fill="#99441f"/><path d="M56.115 97.268L39.8 102.46V22.391l16.315 5.21v69.667" fill="#f47327"/><path d="M93.155 36.459h6.515v49.944l-6.515-.361V36.459" fill="#99441f"/><path d="M67.84 37.185l7.318-3.773 24.008 3.047.71 6.397-6.57.922-25.466-6.593" fill="#653219"/><path d="M68.046 87.815l7.318 3.772 24.718-9.445-6.57-.922-25.466 6.595" fill="#fab582"/><path d="M69.898 77.214l13.07 1.744V46.035l-13.07 1.744v29.435" fill="#99441f"/><path d="M49.739 107.577l12.75 6.376 10.949-51.528-10.949-51.378-12.75 6.374v90.156" fill="#99441f"/><path d="M99.67 82.216l-24.43 7.33V35.453l24.43 7.33v39.433zm-37.18-71.17v102.907l42.624-21.313V32.358L62.489 11.047" fill="#f47327"/><path d="M82.968 46.035v33.033L96.55 62.55 82.968 46.035" fill="#f47327"/></svg>