<svg xmlns="http://www.w3.org/2000/svg" viewBox="0 0 125 125" height="125" width="125"><path d="M91.954 97.175H61.93a3.75 3.75 0 0 1-3.75-3.75V63.4a3.75 3.75 0 0 1 3.75-3.75h30.024a3.75 3.75 0 0 1 3.75 3.75v30.025a3.75 3.75 0 0 1-3.75 3.75M63.07 30.925H33.045a3.75 3.75 0 0 0-3.75 3.75v30.024a3.75 3.75 0 0 0 3.75 3.75h6.942V49.04a7.5 7.5 0 0 1 7.5-7.5H66.82v-6.864a3.75 3.75 0 0 0-3.75-3.75" fill="#99441f"/><path d="M77.512 45.288H47.487a3.75 3.75 0 0 0-3.75 3.75v30.024a3.75 3.75 0 0 0 3.75 3.75h6.943V63.4a7.5 7.5 0 0 1 7.5-7.5h19.332v-6.862a3.75 3.75 0 0 0-3.75-3.75" fill="#99441f"/><path d="M91.955 94.075H61.93a3.75 3.75 0 0 1-3.75-3.75V60.301a3.75 3.75 0 0 1 3.75-3.75h30.025a3.75 3.75 0 0 1 3.75 3.75v30.024a3.75 3.75 0 0 1-3.75 3.75M63.07 27.825H33.046a3.75 3.75 0 0 0-3.75 3.75V61.6a3.75 3.75 0 0 0 3.75 3.75h6.942V45.939a7.5 7.5 0 0 1 7.5-7.5H66.82v-6.864a3.75 3.75 0 0 0-3.75-3.75" fill="#f47327"/><path d="M77.513 42.188H47.488a3.75 3.75 0 0 0-3.75 3.75v30.024a3.75 3.75 0 0 0 3.75 3.75h6.942V60.3a7.5 7.5 0 0 1 7.5-7.5h19.333v-6.864a3.75 3.75 0 0 0-3.75-3.75" fill="#f47327"/></svg>