<svg xmlns="http://www.w3.org/2000/svg" viewBox="0 0 125 125" height="125" width="125"><path d="M26.964 30.318l-4.26 2.13v60.105l4.26 2.128L43.75 63.75 26.964 30.318M39.938 41.175l6.272-8.883 28.113 12.495-6.552 1.04-27.833-4.652M35.067 84.464l6.904 9.494 32.352-13.956-6.247-.97-33.009 5.432" fill="#99441f"/><path d="M36.891 92.348l-9.927 2.333V30.318l9.927 2.27v59.76" fill="#f47327"/><path d="M31.669 27.966l5.222-2.611 9.828 41.311-9.828 32.979-5.222-2.61v-69.07M67.723 78.976l6.6 1.026 6.042-16.825-6.042-18.39-6.6 1.047v33.142" fill="#99441f"/><path d="M47.051 96.773l-10.16 2.872v-74.29l10.16 2.884v68.534" fill="#f47327"/><path d="M81.238 78.702L36.89 86.94v12.705L81.238 87.11v-8.408M81.316 46.115l-44.425-8.436V25.355l44.425 12.611v8.149" fill="#f47327"/><path d="M74.323 35.981l7.12 1.963V87.11l-7.12 1.955V35.981" fill="#f47327"/><path d="M102.296 56.007l-19.074.895-6.744-.451L95.77 40.904l6.527 15.103" fill="#653219"/><path d="M76.478 56.45l19.292-1.096v-14.45l-19.292 3.13v12.417" fill="#99441f"/><path d="M58.32 55.235l19.546-19.702 9.939 19.025-20.263 1.294-9.222-.617" fill="#653219"/><path d="M58.32 55.235l19.546-1.671v-18.03l-19.546 4.57v15.13M76.478 68.811l25.818.444-6.527 15.103-19.29-3.13V68.81" fill="#99441f"/><path d="M58.32 70.028l29.485.677-9.94 19.024-19.545-4.57V70.028" fill="#99441f"/><path d="M58.32 70.028l19.546 1.67 9.939-.993-20.263-1.295-9.222.618M102.296 69.255l-19.074-.895-6.744.452 19.291 1.096 6.527-.653" fill="#fab582"/><path d="M95.77 55.355l6.526.652V42.862l-6.527-1.958v14.45M87.805 54.558l-9.94-.994v-18.03l9.94 2.98v16.044M95.77 69.908l6.526-.653V82.4l-6.527 1.958v-14.45M87.805 70.705l-9.94.993V89.73l9.94-2.981V70.705" fill="#f47327"/></svg>