<svg xmlns="http://www.w3.org/2000/svg" viewBox="0 0 125 125" height="125" width="125"><path d="M84.225 99.092h-43.45c-6.296 0-11.4-5.104-11.4-11.4v-43.45c0-6.296 5.104-11.4 11.4-11.4h43.45c6.296 0 11.4 5.104 11.4 11.4v43.45c0 6.296-5.104 11.4-11.4 11.4" fill="#99441f"/><path d="M84.225 95.992h-43.45c-6.296 0-11.4-5.104-11.4-11.4v-43.45c0-6.296 5.104-11.4 11.4-11.4h43.45c6.296 0 11.4 5.104 11.4 11.4v43.45c0 6.296-5.104 11.4-11.4 11.4" fill="#f47327"/><path d="M61.848 51.34c-5.754.522-7.65 6.865-7.65 12.29 0 5.232 2.157 10.724 7.65 11.574V51.34zm0 29.749c-9.48 0-15.104-7.977-15.104-17.459 0-10.984 6.278-18.176 15.104-18.176V39.57h2.811v5.885c7.257 0 13.339 4.643 13.927 12.227h-7.453c-.458-3.727-3.008-6.342-6.474-6.342v23.865c3.988-.653 6.212-3.4 6.735-7.715h7.454c-1.504 8.238-6.08 13.6-14.189 13.6v5.884h-2.81v-5.884" fill="#fff"/></svg>