<svg xmlns="http://www.w3.org/2000/svg" viewBox="0 0 125 125" height="125" width="125"><path d="M24.159 30.212l-4.274 2.137v60.303l4.274 2.136L41.094 62.5 24.159 30.212" fill="#99441f"/><path d="M34.119 92.446l-9.96 2.342V30.212l9.96 2.276v59.958" fill="#f47327"/><path d="M28.879 27.852l5.24-2.62L46.546 62.5 34.12 99.768l-5.24-2.621V27.852" fill="#99441f"/><path d="M46.546 96.253L34.12 99.768V25.232l12.427 3.528v67.493" fill="#f47327"/><path d="M39.97 22.307l6.576-3.289L87.606 62.5l-41.06 43.482-6.576-3.289V22.307" fill="#99441f"/><path d="M90.932 89.545l-44.386 16.437V19.018l44.386 16.22v54.307" fill="#f47327"/><path d="M85.192 54.391l-8.293.53-22.907-1.938 8.497-41.936L85.192 54.39" fill="#653219"/><path d="M62.489 52.121V11.047l-8.497 4.248v37.688l8.497-.862" fill="#99441f"/><path d="M85.192 54.391V22.398L62.489 11.047V52.12l22.703 2.27" fill="#f47327"/><path d="M85.192 70.334l-7.86-.497-23.34 1.975 8.497 42.141 22.703-43.619" fill="#fab582"/><path d="M53.992 71.813v37.893l8.497 4.247V72.586l-8.497-.774" fill="#99441f"/><path d="M62.489 72.585v41.368l22.703-11.352V70.334l-22.703 2.251" fill="#f47327"/><path d="M105.115 68.36l-4.88-.202-12.628 1.12 5.34 29.446 12.168-30.365" fill="#fab582"/><path d="M92.947 69.565v29.159l12.168-6.084V68.36l-12.168 1.205" fill="#f47327"/><path d="M105.115 56.384l-4.88.202-12.628-1.129 5.34-29.181 12.168 30.108" fill="#653219"/><path d="M105.115 56.384V32.36l-12.168-6.084v28.892l12.168 1.216" fill="#f47327"/><path d="M87.607 97.315l5.34 1.409V69.565l-5.34-.287v28.037M87.607 27.685l5.34-1.41v28.892l-5.34.29V27.685" fill="#99441f"/></svg>