<svg xmlns="http://www.w3.org/2000/svg" viewBox="0 0 125 125" height="125" width="125"><path d="M84.225 97.175h-43.45c-6.296 0-11.4-5.104-11.4-11.4v-43.45c0-6.296 5.104-11.4 11.4-11.4h43.45c6.296 0 11.4 5.104 11.4 11.4v43.45c0 6.296-5.104 11.4-11.4 11.4" fill="#99441f"/><path d="M84.225 94.075h-43.45c-6.296 0-11.4-5.104-11.4-11.4v-43.45c0-6.296 5.104-11.4 11.4-11.4h43.45c6.296 0 11.4 5.104 11.4 11.4v43.45c0 6.296-5.104 11.4-11.4 11.4" fill="#f47327"/><path d="M75.445 77.947c0-2.34-.472-3.354-1.934-3.354-1.643 0-2.027 1.644-2.027 6.19 0 4.862.675 5.74 2.072 5.74 1.17 0 2.025-.609 2.025-4.074h3.24c0 3.465-.855 6.459-5.108 6.459-4.862 0-5.47-3.466-5.47-8.35 0-4.884.608-8.35 5.47-8.35 4.637 0 4.974 3.399 4.974 5.739h-3.242M83.095 83.933c.045 1.846.36 2.859 1.778 2.859 1.575 0 1.777-1.17 1.777-2.566 0-1.417-.314-2.724-2.092-2.724h-1.08v-2.115h1.057c1.35 0 1.846-1.216 1.846-2.52 0-1.486-.496-2.094-1.553-2.094-1.395 0-1.643 1.08-1.643 2.589h-2.971c0-3.129 1.664-4.704 4.681-4.704 2.88 0 4.59 1.282 4.59 4.096 0 1.913-.921 3.174-2.43 3.51v.046c2.049.315 2.837 1.755 2.837 3.759 0 2.138-.878 4.839-5.29 4.839-3.083 0-4.613-1.869-4.613-4.907v-.068h3.106" fill="#fff"/></svg>