<svg xmlns="http://www.w3.org/2000/svg" viewBox="0 0 125 125" height="125" width="125"><defs><clipPath id="a"><path d="M392.746 801.305v-5.567c0-8.812-7.172-15.957-16.051-15.957v5.571c8.879 0 16.051 7.14 16.051 15.953z"/></clipPath><clipPath id="b"><path d="M315.258 785.352v-5.571c-8.879 0-16.078 7.145-16.078 15.957v5.567c0-8.813 7.199-15.953 16.078-15.953z"/></clipPath></defs><path d="M94.813 104.44H30.186a9.627 9.627 0 0 1-9.627-9.627V30.186c0-5.316 4.31-9.627 9.628-9.627h64.624c5.317 0 9.628 4.31 9.628 9.628v64.624a9.627 9.627 0 0 1-9.627 9.628z" fill="none" stroke="#77797a" stroke-width="1.25" stroke-miterlimit="10" stroke-dasharray="21.2466,21.2466"/><path d="M47.087 14.989a2 2 0 0 1 2.006 1.994v7.854a1.999 1.999 0 0 1-2.006 1.994h-7.68c-1.11 0-2.01-.893-2.01-1.994v-7.854c0-1.1.9-1.994 2.01-1.994h7.68" fill="#f47327"/><path d="M49.093 24.837v.696a2 2 0 0 1-2.006 1.994v-.696c1.11 0 2.006-.892 2.006-1.994" fill="#99441f"/><g clip-path="url(#a)" fill="#99441f" transform="matrix(.13 0 0 -.13 0 125)"><path d="M392.746 801.305v-5.567c0-.773-.058-1.539-.164-2.285v5.567c.106.746.164 1.511.164 2.285M392.582 799.02v-5.567a16.623 16.623 0 0 0-.598-2.582v5.57c.266.832.465 1.696.598 2.579M391.984 796.441v-5.57a15.443 15.443 0 0 0-1.214-2.805v5.571c.492.883.902 1.82 1.214 2.804M390.77 793.637v-5.571a16.04 16.04 0 0 0-14.075-8.285v5.571a16.038 16.038 0 0 1 14.075 8.285"/></g><path d="M39.324 27.527h7.777v-.696h-7.777v.696z" fill="#99441f"/><path d="M39.407 26.831v.696c-1.11 0-2.01-.893-2.01-1.994v-.696c0 1.102.9 1.994 2.01 1.994" fill="#99441f"/><g clip-path="url(#b)" transform="matrix(.13 0 0 -.13 0 125)"><path d="M315.922 785.352v-5.571c-8.879 0-16.742 7.145-16.742 15.957v5.567c0-8.813 7.199-15.953 16.078-15.953" fill="#99441f"/></g><text style="-inkscape-font-specification:HelveticaNeueLTStd-Md" transform="matrix(1.25 0 0 1.25 40.027 24.046)" font-size="9.261" font-family="Helvetica Neue" fill="#fff"><tspan y="0" x="0">¢</tspan></text></svg>