<svg xmlns="http://www.w3.org/2000/svg" viewBox="0 0 70 73.099998" height="73.1" width="70"><path d="M31.25 73.1H0V70l15.625-8.775L31.25 70v3.1M70 73.1H38.75V70l15.625-8.775L70 70v3.1M31.25 47.266H0v-3.1l15.625-8.775 15.625 8.775v3.1M70 47.266H38.75v-3.1l15.625-8.775L70 44.166v3.1M31.25 21.433H0v-3.1l15.625-8.775 15.625 8.775v3.1M70 21.433H38.75v-3.1l15.625-8.775L70 18.333v3.1" fill="#23446f"/><path d="M0 18.333h31.25V0H0v18.333zM0 44.166h31.25V25.833H0v18.333zM0 70h31.25V51.666H0V70zM38.75 18.333H70V0H38.75v18.333zM38.75 44.166H70V25.833H38.75v18.333zM38.75 70H70V51.666H38.75V70z" fill="#3e6fbe"/><path d="M60.625 9.167a6.25 6.25 0 1 1-12.5 0 6.25 6.25 0 0 1 12.5 0M60.625 35a6.25 6.25 0 1 1-12.5 0 6.25 6.25 0 0 1 12.5 0M60.625 60.833a6.25 6.25 0 1 1-12.5 0 6.25 6.25 0 0 1 12.5 0" fill="#fff"/></svg>