<svg xmlns="http://www.w3.org/2000/svg" viewBox="0 0 70 73.099998" height="73.1" width="70"><path d="M31.25 21.354H0v-3.1l15.625-8.775 15.625 8.775v3.1M70 21.354H38.75v-3.1l15.625-8.775L70 18.254v3.1M31.25 47.267H0v-3.1l15.625-8.775 15.625 8.775v3.1M70 47.267H38.75v-3.1l15.625-8.775L70 44.167v3.1M31.25 73.1H0V70l15.625-8.775L31.25 70v3.1M70 73.1H38.75V70l15.625-8.775L70 70v3.1" fill="#23446f"/><path d="M38.75 70H70V51.665H38.75V70zM38.75 44.166H70V25.833H38.75v18.333zM38.75 18.333H70V-.001H38.75v18.334zM0 70h31.25V51.665H0V70zM0 44.166h31.25V25.833H0v18.333zM0 18.333h31.25V-.001H0v18.334z" fill="#3e6fbe"/><path d="M9.375 60.833a6.25 6.25 0 1 1 12.5 0 6.25 6.25 0 0 1-12.5 0M9.375 35a6.25 6.25 0 1 1 12.5 0 6.25 6.25 0 0 1-12.5 0M9.375 9.166a6.25 6.25 0 1 1 12.5 0 6.25 6.25 0 0 1-12.5 0" fill="#fff"/></svg>