<svg xmlns="http://www.w3.org/2000/svg" viewBox="0 0 70 73.099998" height="73.1" width="70"><path d="M31.25 73.1H0V70l15.625-8.775L31.25 70v3.1M70 73.1H38.75V70l15.625-8.775L70 70v3.1M31.25 34.35H0v-3.1l15.625-8.775L31.25 31.25v3.1M70 34.35H38.75v-3.1l15.625-8.775L70 31.25v3.1" fill="#23446f"/><path d="M0 31.25h31.25V0H0v31.25zM38.75 31.25H70V0H38.75v31.25zM0 70h31.25V38.75H0V70zM38.75 70H70V38.75H38.75V70z" fill="#3e6fbe"/><path d="M26.459 15.625c0 5.983-4.851 10.833-10.834 10.833S4.791 21.608 4.791 15.625c0-5.983 4.851-10.833 10.834-10.833s10.834 4.85 10.834 10.833" fill="#fff"/></svg>