<svg xmlns="http://www.w3.org/2000/svg" viewBox="0 0 75 73.099998" height="73.1" width="75"><path d="M11.875 14.975H0v-3.1L5.938 3.1l5.937 8.775v3.1M28.75 14.975H16.875v-3.1L22.813 3.1l5.937 8.775v3.1M75 14.975H33.75v-3.1L54.375 3.1 75 11.875v3.1M11.875 34.35H0v-3.1l5.938-8.775 5.937 8.775v3.1M28.75 34.35H16.875v-3.1l5.938-8.775 5.937 8.775v3.1M75 34.35H33.75v-3.1l20.625-8.775L75 31.25v3.1M11.875 53.725H0v-3.1l5.938-8.775 5.937 8.775v3.1M28.75 53.725H16.875v-3.1l5.938-8.775 5.937 8.775v3.1M75 53.725H33.75v-3.1l20.625-8.775L75 50.625v3.1M11.875 73.1H0V70l5.938-8.775L11.875 70v3.1M28.75 73.1H16.875V70l5.938-8.775L28.75 70v3.1M75 73.1H33.75V70l20.625-8.775L75 70v3.1" fill="#23446f"/><path d="M0 11.875h11.875V0H0v11.875zM0 31.25h11.875V19.375H0V31.25zM0 50.625h11.875V38.75H0v11.875zM0 70h11.875V58.125H0V70zM33.75 11.875H75V0H33.75v11.875zM33.75 31.25H75V19.375H33.75V31.25zM33.75 50.625H75V38.75H33.75v11.875zM33.75 70H75V58.125H33.75V70zM16.875 11.875H28.75V0H16.875v11.875zM16.875 31.25H28.75V19.375H16.875V31.25zM16.875 50.625H28.75V38.75H16.875v11.875zM16.875 70H28.75V58.125H16.875V70z" fill="#3e6fbe"/></svg>