<svg xmlns="http://www.w3.org/2000/svg" viewBox="0 0 125 125" height="125" width="125"><path d="M93.148 70.088l-17.988-.906-.075-.003v-.429h.01-25.19.01v.429l-.075.003-17.95.906-9.39 2.927 9.362 11.06 18.053 2.175h-.01 25.19-.01l18.027-2.175 9.388-11.06-9.351-2.927" fill="#9fbde7"/><path d="M93.148 54.91l-17.988.906-.075.003v.569h.01-25.19.01v-.569l-.075-.003-17.95-.905-9.39-2.928 9.362-11.059 18.053-2.036h-.01 25.19-.01l18.027 2.036 9.388 11.06-9.352 2.927" fill="#23446f"/><path d="M102.5 51.985l-10-4.492-10.156-10.618L92.5 26.372l10 10.913v14.7M102.5 73.015l-10 4.492L79.219 90 92.5 98.628l10-10.915V73.015" fill="#3e6fbe"/><path d="M75 43.84L54.375 30.661 75 17.5l17.5 8.872v21.12L75 43.84M75 81.25L57.344 94.375 75 107.5l17.5-8.872v-21.12L75 81.25M83.75 73.984l-12.5 2.266-12.344-13.801L71.25 48.647l12.5 1.784v23.553" fill="#5c93d4"/><path d="M75 43.824V17.5H50L35.781 35.156 50 43.824h25M75 81.25v26.25H50L35.781 89.531 50 81.25h25M71.25 76.25h-17.5L43.125 62.5 53.75 48.648h17.5V76.25" fill="#3e6fbe"/><path d="M50 43.84V17.5l-17.5 8.872-7.188 15.816 7.188 5.305L50 43.839M50 81.25v26.25l-17.5-8.872-7.709-17.378 7.709-3.743L50 81.25M41.25 73.984l12.5 2.266V48.648l-12.5 1.783v23.553" fill="#2f569f"/><path d="M22.5 51.985l10-4.492v-21.12l-10 10.912v14.7M22.5 73.015l10 4.492v21.12l-10-10.914V73.015" fill="#23446f"/></svg>