<svg xmlns="http://www.w3.org/2000/svg" viewBox="0 0 66.25 69.349998" height="69.35" width="66.25"><path d="M54.85 69.35H11.4C5.104 69.35 0 64.246 0 57.95V14.5C0 8.204 5.104 3.1 11.4 3.1h43.45c6.296 0 11.4 5.104 11.4 11.4v43.45c0 6.296-5.104 11.4-11.4 11.4" fill="#23446f"/><path d="M54.85 66.25H11.4C5.104 66.25 0 61.146 0 54.85V11.4C0 5.104 5.104 0 11.4 0h43.45c6.296 0 11.4 5.104 11.4 11.4v43.45c0 6.296-5.104 11.4-11.4 11.4" fill="#3e6fbe"/><path d="M56.875 20.625v-5h-6.25v-6.25h-5v6.25h-2.5v-6.25h-5v6.25h-2.5v-6.25h-5v6.25h-2.5v-6.25h-5v6.25h-2.5v-6.25h-5v6.25h-6.25v5h6.25v2.5h-6.25v5h6.25v2.5h-6.25v5h6.25v2.5h-6.25v5h6.25v2.5h-6.25v5h6.25v6.25h5v-6.25h2.5v6.25h5v-6.25h2.5v6.25h5v-6.25h2.5v6.25h5v-6.25h2.5v6.25h5v-6.25h6.25v-5h-6.25v-2.5h6.25v-5h-6.25v-2.5h6.25v-5h-6.25v-2.5h6.25v-5h-6.25v-2.5h6.25" fill="#fff"/><path d="M21.875 23.125h6.53l4.817 13.75h.059l4.56-13.75h6.534v20h-5v-13.75h.543l-5.051 13.75h-3.492l-5.05-13.75h.55v13.75h-5v-20" fill="#3e6fbe"/></svg>