<svg xmlns="http://www.w3.org/2000/svg" viewBox="0 0 66.25 69.349998" height="69.35" width="66.25"><path d="M54.85 69.35H11.4C5.104 69.35 0 64.246 0 57.95V14.5C0 8.204 5.104 3.1 11.4 3.1h43.45c6.296 0 11.4 5.104 11.4 11.4v43.45c0 6.296-5.104 11.4-11.4 11.4" fill="#23446f"/><path d="M54.85 66.25H11.4C5.104 66.25 0 61.146 0 54.85V11.4C0 5.104 5.104 0 11.4 0h43.45c6.296 0 11.4 5.104 11.4 11.4v43.45c0 6.296-5.104 11.4-11.4 11.4" fill="#3e6fbe"/><path d="M17.478 17.165v.293c0 2.526-1.018 4.99-4.305 4.99-3.523 0-4.62-2.269-4.62-7.26 0-4.99 1.097-7.26 4.639-7.26 3.972 0 4.207 2.936 4.207 4.384v.255h-2.23v-.236c0-1.291-.392-2.778-1.996-2.72-1.645 0-2.388 1.019-2.388 5.52 0 4.5.743 5.635 2.388 5.635 1.859 0 2.074-2.075 2.074-3.366v-.235h2.231M24.664 16.97l-1.605-6.889h-.039l-1.663 6.89h3.307zM21.69 8.203h2.858l3.678 13.972h-2.328l-.862-3.424h-4.09l-.9 3.424h-2.328L21.69 8.203M37.8 17.165v.293c0 2.526-1.018 4.99-4.305 4.99-3.523 0-4.619-2.269-4.619-7.26 0-4.99 1.096-7.26 4.638-7.26 3.973 0 4.207 2.936 4.207 4.384v.255h-2.23v-.236c0-1.291-.392-2.778-1.996-2.72-1.644 0-2.388 1.019-2.388 5.52 0 4.5.744 5.635 2.388 5.635 1.859 0 2.074-2.075 2.074-3.366v-.235H37.8M39.369 8.203h2.23V13.8h4.11V8.203h2.231v13.972h-2.23V15.68H41.6v6.496h-2.231V8.203M50.255 8.203h7.554v1.878h-5.324v3.875h5.01v1.879h-5.01v4.461h5.48v1.88h-7.71V8.202" fill="#fff"/></svg>