<svg xmlns="http://www.w3.org/2000/svg" viewBox="0 0 66.25 69.349998" height="69.35" width="66.25"><path d="M54.85 69.35H11.4C5.104 69.35 0 64.246 0 57.95V14.5C0 8.204 5.104 3.1 11.4 3.1h43.45c6.296 0 11.4 5.104 11.4 11.4v43.45c0 6.296-5.104 11.4-11.4 11.4" fill="#23446f"/><path d="M54.85 66.25H11.4C5.104 66.25 0 61.146 0 54.85V11.4C0 5.104 5.104 0 11.4 0h43.45c6.296 0 11.4 5.104 11.4 11.4v43.45c0 6.296-5.104 11.4-11.4 11.4" fill="#3e6fbe"/><path d="M56.875 20.925v-5h-6.25v-6.25h-5v6.25h-2.5v-6.25h-5v6.25h-2.5v-6.25h-5v6.25h-2.5v-6.25h-5v6.25h-2.5v-6.25h-5v6.25h-6.25v5h6.25v2.5h-6.25v5h6.25v2.5h-6.25v5h6.25v2.5h-6.25v5h6.25v2.5h-6.25v5h6.25v6.25h5v-6.25h2.5v6.25h5v-6.25h2.5v6.25h5v-6.25h2.5v6.25h5v-6.25h2.5v6.25h5v-6.25h6.25v-5h-6.25v-2.5h6.25v-5h-6.25v-2.5h6.25v-5h-6.25v-2.5h6.25v-5h-6.25v-2.5h6.25" fill="#fff"/><path d="M28.125 32.175h5.668c2.175 0 3.36-.946 3.36-3.173 0-2.128-1.185-3.077-3.36-3.077h-5.668v6.25zm-5-10h12.408c3.984 0 6.304 2.711 6.304 6.048 0 2.594-1.212 4.5-3.712 5.49v.064c2.5.615 3.277 3.194 3.436 5.418.088 1.39.256 4.23 1.127 5.48h-4.882c-.593-1.25-.53-3.584-.78-5.347-.339-2.316-1.242-3.403-3.7-3.403h-5.201v8.75h-5v-22.5" fill="#3e6fbe"/></svg>