<svg xmlns="http://www.w3.org/2000/svg" viewBox="0 0 75 90" height="90" width="75"><path d="M74.76 60.821L37.497 56.19.242 60.821 37.5 90l37.26-29.179" fill="#9fbde7"/><path d="M75 29.179l-37.742 4.63L0 29.178 37.5 0 75 29.179" fill="#23446f"/><path d="M37.5 0L0 18.63V29.18L37.5 18V0M37.5 72L0 60.822V71.37L37.5 90V72M37.5 58.61l-16.25-2.381V33.953l16.25-2.344 15.313 13.5L37.5 58.61" fill="#2f569f"/><path d="M37.5 0L75 18.63V29.18L37.5 18V0M37.5 72L75 60.822V71.37L37.5 90V72M37.5 58.61l16.25-2.381V33.953L37.5 31.609v27" fill="#5c93d4"/></svg>