<svg xmlns="http://www.w3.org/2000/svg" viewBox="0 0 125 125" height="125" width="125"><path d="M84.225 97.175h-43.45c-6.296 0-11.4-5.104-11.4-11.4v-43.45c0-6.296 5.104-11.4 11.4-11.4h43.45c6.296 0 11.4 5.104 11.4 11.4v43.45c0 6.296-5.104 11.4-11.4 11.4" fill="#23446f"/><path d="M84.225 94.075h-43.45c-6.296 0-11.4-5.104-11.4-11.4v-43.45c0-6.296 5.104-11.4 11.4-11.4h43.45c6.296 0 11.4 5.104 11.4 11.4v43.45c0 6.296-5.104 11.4-11.4 11.4" fill="#3e6fbe"/><path d="M34.097 42.8h1.113c.84 0 1.57-.454 1.57-1.692 0-1.058-.427-1.705-1.68-1.705h-1.003V42.8zm-1.567-4.58h3.108c1.883 0 2.709 1.183 2.709 2.862 0 1.76-1.032 2.9-2.874 2.9h-1.376v4.058H32.53v-9.82M41.817 47.131c1.086 0 1.28-.906 1.28-2.79 0-1.637-.194-2.792-1.28-2.792-1.072 0-1.265 1.155-1.265 2.792 0 1.884.193 2.79 1.265 2.79zm0-6.683c2.16 0 2.765 1.596 2.765 3.893 0 2.296-.702 3.891-2.765 3.891-2.048 0-2.75-1.595-2.75-3.891 0-2.297.605-3.893 2.75-3.893M48.95 42.8v-.193c0-.59-.205-1.14-.974-1.14-.593 0-1.06.274-1.06.962 0 .578.261.81 1.045 1.087l.95.33c1.1.37 1.609.963 1.609 2.13 0 1.583-1.157 2.256-2.656 2.256-1.87 0-2.434-.866-2.434-2.297v-.275h1.321v.235c0 .852.303 1.32 1.155 1.32.812 0 1.21-.413 1.21-1.087 0-.55-.288-.907-.81-1.086l-1.21-.426c-1.115-.386-1.583-.949-1.583-2.132 0-1.389 1.004-2.036 2.531-2.036 1.883 0 2.31 1.101 2.31 2.022v.33h-1.403M51.098 40.64h1.018v-2.104h1.485v2.105h1.21v1.1h-1.21v4.415c0 .577.166.784.673.784.221 0 .4-.015.537-.042v1.1c-.316.083-.728.124-1.196.124-1.005 0-1.499-.275-1.499-1.788v-4.593h-1.018v-1.1M58.083 46.802c1.155 0 1.278-1.458 1.278-2.627 0-1.21-.151-2.544-1.182-2.544-1.072 0-1.252 1.1-1.252 2.475 0 1.265.055 2.696 1.156 2.696zm-1.045 1.87c0 .454.411.88 1.072.88.77 0 1.25-.536 1.25-1.389v-1.197h-.026c-.274.647-.963 1.018-1.678 1.018-1.733 0-2.214-1.705-2.214-3.726 0-1.623.247-3.81 2.352-3.81.866 0 1.485.564 1.622 1.101h.028v-.908h1.403v7.04c0 1.802-.77 2.89-2.764 2.89-2.201 0-2.449-1.294-2.449-1.9h1.404M62.208 40.64h1.485v1.155h.027c.33-.824.88-1.347 1.719-1.347.165 0 .261.028.357.055v1.514a2.735 2.735 0 0 0-.618-.083c-.674 0-1.485.302-1.485 1.677v4.429h-1.485v-7.4M70.249 43.516v-.4c0-.935-.302-1.65-1.142-1.65-.948 0-1.236.935-1.236 1.898v.152h2.378zm-2.378 1.017v.425c0 .992.123 2.256 1.236 2.256 1.06 0 1.183-1.21 1.183-1.65h1.402c0 1.637-.99 2.668-2.598 2.668-1.21 0-2.71-.357-2.71-3.781 0-1.94.413-4.003 2.738-4.003 2.063 0 2.612 1.237 2.612 3.3v.785H67.87M74.316 45v.247c0 1.197.522 1.802 1.609 1.802.99 0 1.485-.701 1.485-1.43 0-1.032-.522-1.485-1.402-1.746l-1.073-.372c-1.431-.55-2.05-1.293-2.05-2.695 0-1.787 1.211-2.777 3.053-2.777 2.517 0 2.778 1.567 2.778 2.585v.22H77.15v-.206c0-.894-.399-1.417-1.375-1.417-.674 0-1.32.372-1.32 1.417 0 .838.426 1.264 1.47 1.663l1.06.385c1.388.495 1.994 1.252 1.994 2.6 0 2.09-1.265 2.956-3.246 2.956-2.434 0-2.983-1.623-2.983-2.998V45h1.567M84.046 45.33l.646.646c.22-.59.316-1.512.316-2.888 0-3.299-.742-3.878-1.677-3.878-.936 0-1.679.579-1.679 3.878 0 3.384.743 3.961 1.679 3.961.206 0 .384-.028.563-.096l-.743-.728.895-.894zm.825 2.572c-.399.234-.921.33-1.54.33-2.256 0-3.246-1.595-3.246-5.102 0-3.508.99-5.101 3.246-5.101 2.254 0 3.246 1.593 3.246 5.1 0 1.816-.331 3.178-.77 3.893l1.003 1.059-.936.838-1.003-1.017M87.955 38.22h1.568v8.499h3.795v1.32h-5.363V38.22" fill="#fff"/></svg>