<svg xmlns="http://www.w3.org/2000/svg" viewBox="0 0 54.549999 70.800003" height="70.8" width="54.55"><path d="M54.556 9.976c0 3.8-12.213 6.881-27.278 6.881S0 13.777 0 9.976v-3.1l27.278-3.781 27.278 3.781v3.1M27.278 22.35L0 60.82v3.1c0 3.8 12.213 6.881 27.278 6.881s27.278-3.081 27.278-6.881v-3.1L27.278 22.351" fill="#23446f"/><path d="M54.556 6.876c0 3.801-12.213 6.881-27.278 6.881S0 10.677 0 6.877C0 3.075 12.213-.006 27.278-.006s27.278 3.08 27.278 6.881" fill="#3e6fbe"/><path d="M27.278 19.251C12.213 19.251 0 16.171 0 12.371v48.448c0 3.8 12.213 6.881 27.278 6.881s27.278-3.08 27.278-6.881V12.37c0 3.8-12.213 6.881-27.278 6.881" fill="#3e6fbe"/><path d="M9.845 27.961H21.85l5.388 20.855h.088l5.389-20.855h12.004v31.282h-7.667V35.496h-.088l-6.57 23.747H24.17L17.6 35.496h-.089v23.747H9.845V27.96" fill="#fff"/></svg>