<svg xmlns="http://www.w3.org/2000/svg" viewBox="0 0 125 125" height="125" width="125"><path d="M84.769 69.301h-.136L82.1 64.103l2.54-5.226h.128V69.3zM74.838 71.9l-18.585-4.606v-3.878l18.98-6.279 3.393 6.968-3.788 7.795zm6.355-2.524a2.496 2.496 0 0 0-1.918 2.425V73l-1.336-.331 2.426-4.994.828 1.701zm-24.94 5.047v-3.91l17.189 4.26-4.199 8.642h-6.249c-.014 0-.029.004-.043.004l-7.08-7.378a3.71 3.71 0 0 0 .381-1.618zm23.022-25.922v4.007l-2.43.804-4.155-8.532c.36-.086.685-.252.965-.475l5.62 4.196zM63.65 44.856h5.6l4.6 9.446-17.599 5.823v-2.852c0-.96-.37-1.826-.963-2.49l8.362-9.927zm9.947 39.062a2.474 2.474 0 0 0-.916-.43l3.861-7.947 2.732.677v3.412c-1.504 1.131-3.363 2.535-5.677 4.288zm6.763-23.386l-2.135-4.385 1.049-.347v.577c0 1.182.823 2.166 1.926 2.427l-.84 1.728zm10.528-1.655a2.5 2.5 0 0 0 2.5-2.5v-9.114a2.5 2.5 0 0 0-2.5-2.5h-9.114c-.587 0-1.12.21-1.547.55l-5.62-4.196v-7.875a2.5 2.5 0 0 0-2.5-2.5h-9.114a2.5 2.5 0 0 0-2.5 2.5v9.114c0 .392.099.757.26 1.088l-8.49 10.079H35.353a3.75 3.75 0 0 0-3.75 3.75v17.15a3.75 3.75 0 0 0 3.75 3.75h17.15a3.7 3.7 0 0 0 .953-.137l7.089 7.389c-.032.159-.05.322-.05.49v9.113a2.5 2.5 0 0 0 2.5 2.5h9.114a2.5 2.5 0 0 0 2.5-2.5v-7.952c1.922-1.457 3.846-2.912 5.596-4.231.43.35.972.57 1.57.57h9.115a2.5 2.5 0 0 0 2.5-2.5V71.8a2.5 2.5 0 0 0-2.5-2.5h-2.995V58.877h2.995" fill="#23446f"/><path d="M84.769 66.201h-.136L82.1 61.003l2.54-5.227h.128v10.425zM74.838 68.8l-18.585-4.607v-3.877l18.98-6.279 3.393 6.967-3.788 7.796zm6.355-2.524a2.496 2.496 0 0 0-1.918 2.425V69.9l-1.336-.33 2.426-4.994.828 1.7zm-24.94 5.047v-3.91l17.189 4.26-4.199 8.642h-6.249c-.014 0-.029.004-.043.004l-7.08-7.378a3.71 3.71 0 0 0 .381-1.618zm23.022-25.922v4.007l-2.43.804-4.155-8.532c.36-.086.685-.252.965-.475l5.62 4.196zM63.65 41.755h5.6l4.6 9.447-17.598 5.823v-2.853a3.72 3.72 0 0 0-.964-2.488l8.362-9.929zm9.947 39.062a2.481 2.481 0 0 0-.916-.43l3.861-7.946 2.732.677v3.412c-1.504 1.131-3.363 2.534-5.677 4.287zm6.763-23.385l-2.135-4.385 1.049-.347v.576c0 1.182.823 2.168 1.926 2.428l-.84 1.728zm10.528-1.656a2.5 2.5 0 0 0 2.5-2.5v-9.113a2.5 2.5 0 0 0-2.5-2.5h-9.114c-.587 0-1.12.21-1.547.55l-5.62-4.196v-7.875a2.5 2.5 0 0 0-2.5-2.5h-9.114a2.5 2.5 0 0 0-2.5 2.5v9.113c0 .392.099.758.26 1.089l-8.49 10.078H35.353a3.75 3.75 0 0 0-3.75 3.75v17.151a3.75 3.75 0 0 0 3.75 3.75h17.15a3.7 3.7 0 0 0 .953-.138l7.089 7.39c-.032.158-.05.322-.05.49v9.113a2.5 2.5 0 0 0 2.5 2.5h9.114a2.5 2.5 0 0 0 2.5-2.5v-7.952c1.922-1.457 3.846-2.912 5.596-4.231.43.35.972.57 1.57.57h9.115a2.5 2.5 0 0 0 2.5-2.5v-9.114a2.5 2.5 0 0 0-2.5-2.5h-2.995V55.776h2.995" fill="#3e6fbe"/><path d="M69.375 67.158a5 5 0 0 1-5 5h-22.5a5 5 0 0 1-5-5v-7.5a5 5 0 0 1 5-5h22.5a5 5 0 0 1 5 5v7.5" fill="#fff"/><path d="M41.875 55.283a4.38 4.38 0 0 0-4.375 4.375v7.5a4.38 4.38 0 0 0 4.375 4.375h22.5a4.38 4.38 0 0 0 4.375-4.375v-7.5a4.38 4.38 0 0 0-4.375-4.375h-22.5zm22.5 17.5h-22.5a5.632 5.632 0 0 1-5.625-5.625v-7.5a5.631 5.631 0 0 1 5.625-5.625h22.5A5.631 5.631 0 0 1 70 59.658v7.5a5.631 5.631 0 0 1-5.625 5.625" fill="#23446f"/><path d="M47.62 67.213h.97c1.516 0 1.819-.956 1.819-3.896 0-2.457-.197-3.715-1.865-3.715h-.924v7.61zm-2.184-9.218h3.578c3.032 0 3.578 2.078 3.578 5.261 0 3.836-.818 5.564-3.714 5.564h-3.442V57.995M55.796 65.439v.318c0 1.016.288 1.668 1.44 1.668.667 0 1.304-.425 1.304-1.334 0-.985-.5-1.35-1.94-1.85-1.941-.666-2.836-1.47-2.836-3.275 0-2.107 1.289-3.183 3.35-3.183 1.941 0 3.35.834 3.35 2.91v.304h-2.092c0-1.016-.348-1.607-1.181-1.607-.986 0-1.243.622-1.243 1.258 0 .668.196 1.077 1.12 1.471l1.685.728c1.636.712 2.061 1.546 2.061 2.865 0 2.29-1.395 3.32-3.76 3.32-2.472 0-3.442-1.151-3.442-3.154v-.439h2.184" fill="#3e6fbe"/></svg>