<svg xmlns="http://www.w3.org/2000/svg" viewBox="0 0 66.25 70.487503" height="70.488" width="66.25"><path d="M11.406 2.755h43.438c6.3 0 11.406 5.106 11.406 11.405v19.118c-2.248-1.163-7.169-2.399-14.468-2.399-3.27 0-6.047.256-8.343.623-4.918.817-7.52 2.214-7.52 3.076v32.48c0 .538.74 1.252 2.14 1.947H11.405C5.106 69.005 0 63.898 0 57.599V14.16C0 7.861 5.106 2.755 11.406 2.755" fill="#23446f"/><path d="M11.406.004h43.438c6.3 0 11.406 5.107 11.406 11.406v19.118c-2.248-1.163-7.169-2.4-14.468-2.4-3.27 0-6.047.256-8.343.623-4.918.818-7.52 2.214-7.52 3.076v32.48c0 .539.74 1.253 2.14 1.947H11.405C5.106 66.254 0 61.148 0 54.85v-43.44C0 5.11 5.106.005 11.406.005" fill="#3e6fbe"/><path d="M52.937 36.864c-2.744 0-5.073.215-7 .523-2.393.398-6.308-.544-6.308-.544v3.124c0 .723 2.183 1.897 6.309 2.564 1.926.325 4.255.525 6.999.525 8.62 0 13.313-2.041 13.313-3.089v-3.124s-7.304.021-13.313.021M39.392 46.032l.02 21.372c0 1.082 3.708 3.084 12.653 3.084 4.89 0 8.584-.577 10.984-1.282 1.78-.576 3.037-1.226 3.179-1.712V46.232c-2.6 1.607-7.961 2.454-13.291 2.454h-.344c-.562-.017-1.092-.017-1.636-.037l-.22-.017c-.47-.02-.908-.037-1.362-.073a39.546 39.546 0 0 1-.674-.054c-.361-.037-.705-.054-1.052-.09-.203-.037-.383-.054-.567-.09-.38-.037-.744-.089-1.125-.145-2.91-.468-5.166-1.245-6.565-2.148" fill="#23446f"/><path d="M52.937 33.74c-2.744 0-5.073.215-7 .522-4.125.686-6.308 1.858-6.308 2.581 0 .723 2.183 1.897 6.309 2.563 1.926.325 4.255.525 6.999.525 8.62 0 13.313-2.04 13.313-3.088 0-1.047-4.692-3.103-13.313-3.103M39.392 42.907l.02 21.372c0 1.082 3.708 3.084 12.653 3.084 4.89 0 8.584-.576 10.984-1.282 1.78-.576 3.037-1.225 3.179-1.711V43.108c-2.6 1.606-7.961 2.453-13.291 2.453h-.344c-.562-.017-1.092-.017-1.636-.036l-.22-.018c-.47-.019-.908-.036-1.362-.073a40.869 40.869 0 0 1-.674-.053c-.361-.037-.705-.054-1.052-.09-.203-.037-.383-.055-.567-.091-.38-.037-.744-.088-1.125-.144-2.91-.469-5.166-1.245-6.565-2.149" fill="#3e6fbe"/><path d="M11.406 66.254h26.652v2.75H11.406C5.106 69.005 0 63.899 0 57.6v-2.75c0 6.299 5.106 11.405 11.406 11.405" fill="#23446f"/><path d="M7.847 7.848h3.877l1.848 9.133h.036l1.867-9.133h3.86v12.937h-2.393V10.457h-.035l-2.303 10.328h-2.028l-2.301-10.328h-.037v10.328H7.847V7.848M22.833 16.745v.38c0 1.214.345 1.993 1.722 1.993.797 0 1.558-.507 1.558-1.594 0-1.178-.598-1.613-2.319-2.21-2.32-.798-3.389-1.759-3.389-3.914 0-2.519 1.54-3.806 4.004-3.806 2.32 0 4.005.997 4.005 3.48v.362h-2.5c0-1.215-.417-1.921-1.413-1.921-1.178 0-1.487.743-1.487 1.504 0 .797.235 1.286 1.341 1.758l2.012.87c1.957.85 2.464 1.848 2.464 3.424 0 2.735-1.667 3.968-4.494 3.968-2.953 0-4.112-1.377-4.112-3.77v-.524h2.608M35.684 16.745v.38c0 1.214.344 1.993 1.72 1.993.798 0 1.56-.507 1.56-1.594 0-1.178-.598-1.613-2.32-2.21-2.319-.798-3.388-1.759-3.388-3.914 0-2.519 1.54-3.806 4.003-3.806 2.32 0 4.006.997 4.006 3.48v.362h-2.502c0-1.215-.416-1.921-1.412-1.921-1.178 0-1.485.743-1.485 1.504 0 .797.234 1.286 1.34 1.758l2.011.87c1.957.85 2.464 1.848 2.464 3.424 0 2.735-1.666 3.968-4.493 3.968-2.953 0-4.113-1.377-4.113-3.77v-.524h2.609M46.735 19.118c1.539 0 1.793-1.322 1.793-4.8 0-3.462-.254-4.803-1.793-4.803-1.54 0-1.795 1.341-1.795 4.802 0 3.48.254 4.8 1.795 4.8zm3.26 3.262l-1.54-1.595c-.235.09-.507.164-.796.2-.272.036-.58.054-.924.054-3.915 0-4.403-2.79-4.403-6.722 0-3.932.488-6.723 4.403-6.723 3.914 0 4.403 2.791 4.403 6.723 0 2.192-.146 4.022-.998 5.254l1.396 1.414-1.54 1.395M52.275 20.785V7.848h2.61v10.799h4.62v2.138h-7.23M45.679 47.801h4.09l2.897 12.158h.045l2.85-12.158h4v16.41h-2.482V50.558h-.046l-3.31 13.653h-2.207l-3.31-13.653h-.046v13.653H45.68V47.8" fill="#fff"/></svg>