<svg xmlns="http://www.w3.org/2000/svg" viewBox="0 0 125 125" height="125" width="125"><path d="M40.78 30.009h43.44c6.298 0 11.405 5.106 11.405 11.406v19.118c-2.248-1.164-7.169-2.4-14.468-2.4-3.27 0-6.047.256-8.343.623-4.918.818-7.52 2.214-7.52 3.076v32.48c0 .539.74 1.253 2.14 1.947H40.78c-6.3 0-11.406-5.107-11.406-11.406V41.415c0-6.3 5.106-11.406 11.406-11.406" fill="#23446f"/><path d="M40.78 27.258h43.44c6.298 0 11.405 5.107 11.405 11.406v19.118c-2.248-1.163-7.169-2.4-14.468-2.4-3.27 0-6.047.257-8.343.623-4.918.818-7.52 2.215-7.52 3.076v32.481c0 .538.74 1.252 2.14 1.946H40.78c-6.3 0-11.406-5.106-11.406-11.405V38.663c0-6.3 5.106-11.406 11.406-11.406" fill="#3e6fbe"/><path d="M82.312 64.119c-2.744 0-5.073.215-7 .522-2.393.398-6.308-.544-6.308-.544v3.125c0 .722 2.182 1.897 6.308 2.563 1.927.325 4.256.525 7 .525 8.62 0 13.313-2.041 13.313-3.088v-3.125s-7.304.022-13.313.022M68.767 73.286l.02 21.372c0 1.082 3.708 3.084 12.653 3.084 4.89 0 8.584-.577 10.984-1.282 1.78-.576 3.037-1.226 3.179-1.712V73.486c-2.6 1.607-7.961 2.454-13.291 2.454h-.344c-.562-.017-1.092-.017-1.636-.037l-.22-.017c-.47-.02-.908-.036-1.362-.073a40.836 40.836 0 0 1-.674-.054c-.361-.036-.705-.053-1.052-.09-.203-.037-.383-.054-.567-.09-.38-.037-.744-.088-1.125-.144-2.91-.47-5.166-1.245-6.565-2.149" fill="#23446f"/><path d="M82.312 60.994c-2.744 0-5.073.215-7 .523-4.125.685-6.308 1.857-6.308 2.58 0 .723 2.182 1.897 6.308 2.563 1.927.325 4.256.525 7 .525 8.62 0 13.313-2.041 13.313-3.088 0-1.047-4.692-3.103-13.313-3.103M68.767 70.161l.02 21.373c0 1.081 3.708 3.083 12.653 3.083 4.89 0 8.584-.577 10.984-1.282 1.78-.576 3.037-1.226 3.179-1.711V70.361c-2.6 1.606-7.961 2.453-13.291 2.453h-.344c-.562-.017-1.092-.017-1.636-.036l-.22-.017c-.47-.02-.908-.037-1.362-.073a40.705 40.705 0 0 1-.674-.055c-.361-.036-.705-.053-1.052-.09-.203-.036-.383-.053-.567-.09a22.05 22.05 0 0 1-1.125-.144c-2.91-.469-5.166-1.245-6.565-2.149" fill="#3e6fbe"/><path d="M40.78 93.508h26.653v2.75H40.78c-6.3 0-11.406-5.106-11.406-11.405v-2.75c0 6.299 5.106 11.405 11.406 11.405" fill="#23446f"/><path d="M39.067 35.103h3.877l1.848 9.131h.037l1.866-9.131h3.86V48.04h-2.392V37.71h-.035l-2.303 10.33h-2.029l-2.3-10.33h-.037v10.33h-2.392V35.103M51.94 49.363c.217.035.434.054.651.054.925 0 1.269-.508 1.342-1.377l-2.737-9.749h2.61l1.45 6.74h.036l1.268-6.74h2.5l-2.354 9.097c-.871 3.37-1.432 3.84-3.752 3.84H51.94v-1.865M63.066 43.999v.38c0 1.214.345 1.993 1.722 1.993.797 0 1.558-.506 1.558-1.594 0-1.178-.598-1.613-2.319-2.211-2.32-.797-3.389-1.757-3.389-3.913 0-2.519 1.541-3.805 4.005-3.805 2.318 0 4.005.996 4.005 3.479v.362h-2.501c0-1.214-.417-1.921-1.413-1.921-1.178 0-1.486.743-1.486 1.504 0 .797.234 1.287 1.34 1.757l2.013.87c1.956.852 2.463 1.849 2.463 3.425 0 2.735-1.666 3.968-4.494 3.968-2.953 0-4.112-1.377-4.112-3.77V44h2.608M74.117 46.372c1.54 0 1.794-1.322 1.794-4.801 0-3.46-.254-4.803-1.794-4.803s-1.794 1.342-1.794 4.803c0 3.479.254 4.801 1.794 4.801zm3.26 3.262l-1.538-1.595c-.236.09-.508.164-.797.2-.273.036-.58.054-.925.054-3.914 0-4.403-2.79-4.403-6.722 0-3.932.489-6.722 4.403-6.722 3.914 0 4.403 2.79 4.403 6.722 0 2.192-.144 4.022-.996 5.254l1.394 1.413-1.54 1.396M79.66 48.04V35.103h2.609V45.9h4.62v2.139h-7.23M75.054 75.055h4.09l2.897 12.158h.045l2.85-12.158h4v16.41h-2.482V77.813h-.046l-3.31 13.652h-2.207l-3.31-13.652h-.046v13.652h-2.481v-16.41" fill="#fff"/></svg>