<svg xmlns="http://www.w3.org/2000/svg" viewBox="0 0 125 125" height="125" width="125"><path d="M84.225 97.175h-43.45c-6.296 0-11.4-5.104-11.4-11.4v-43.45c0-6.296 5.104-11.4 11.4-11.4h43.45c6.296 0 11.4 5.104 11.4 11.4v43.45c0 6.296-5.104 11.4-11.4 11.4" fill="#23446f"/><path d="M84.225 94.075h-43.45c-6.296 0-11.4-5.104-11.4-11.4v-43.45c0-6.296 5.104-11.4 11.4-11.4h43.45c6.296 0 11.4 5.104 11.4 11.4v43.45c0 6.296-5.104 11.4-11.4 11.4" fill="#3e6fbe"/><path d="M90.625 84.334a5 5 0 0 1-5 5h-23.75a5 5 0 0 1-5-5v-7.5a5 5 0 0 1 5-5h23.75a5 5 0 0 1 5 5v7.5" fill="#fff"/><path d="M61.875 72.459a4.38 4.38 0 0 0-4.375 4.375v7.5a4.38 4.38 0 0 0 4.375 4.375h23.75A4.38 4.38 0 0 0 90 84.334v-7.5a4.38 4.38 0 0 0-4.375-4.375h-23.75zm23.75 17.5h-23.75a5.632 5.632 0 0 1-5.625-5.625v-7.5a5.631 5.631 0 0 1 5.625-5.625h23.75a5.631 5.631 0 0 1 5.625 5.625v7.5a5.631 5.631 0 0 1-5.625 5.625" fill="#23446f"/><path d="M63.914 80.252h.88c.785 0 1.322-.468 1.322-1.471 0-.963-.386-1.514-1.376-1.514h-.826v2.985zm-1.979-4.442H65.4c2.009 0 2.696 1.472 2.696 2.943 0 2.035-1.251 2.957-3.121 2.957h-1.06v3.919h-1.98v-9.82M69.168 85.629h1.98v-9.82h-1.98v9.82zM75.754 84.364c1.169 0 1.362-1.004 1.362-3.645 0-2.627-.193-3.643-1.362-3.643s-1.362 1.016-1.362 3.643c0 2.64.193 3.645 1.362 3.645zm0-8.746c2.97 0 3.342 2.118 3.342 5.101 0 2.985-.371 5.103-3.342 5.103-2.97 0-3.342-2.118-3.342-5.103 0-2.983.371-5.1 3.342-5.1M82.244 80.252h.88c.784 0 1.32-.468 1.32-1.471 0-.963-.385-1.514-1.375-1.514h-.825v2.985zm-1.98-4.442h3.465c2.008 0 2.695 1.472 2.695 2.943 0 2.035-1.25 2.957-3.12 2.957h-1.06v3.919h-1.98v-9.82" fill="#3e6fbe"/></svg>