<svg xmlns="http://www.w3.org/2000/svg" viewBox="0 0 54.549999 70.800003" height="70.8" width="54.55"><path d="M54.556 9.976c0 3.8-12.213 6.881-27.278 6.881S0 13.777 0 9.976v-3.1l27.278-3.781 27.278 3.781v3.1M27.278 22.35L0 60.82v3.1c0 3.8 12.213 6.881 27.278 6.881s27.278-3.081 27.278-6.881v-3.1L27.278 22.351" fill="#23446f"/><path d="M54.556 6.876c0 3.801-12.213 6.881-27.278 6.881S0 10.677 0 6.877C0 3.075 12.213-.006 27.278-.006s27.278 3.08 27.278 6.881" fill="#3e6fbe"/><path d="M27.278 19.251C12.213 19.251 0 16.171 0 12.371v48.448c0 3.8 12.213 6.881 27.278 6.881s27.278-3.08 27.278-6.881V12.37c0 3.8-12.213 6.881-27.278 6.881" fill="#3e6fbe"/><path d="M22.38 41.858h6.883c2.47 0 3.794-1.324 3.794-3.706 0-2.338-1.853-3.396-4.147-3.396h-6.53v7.102zm-8.205-13.676h16.058c5.56 0 11.03 2.514 11.03 8.867 0 3.397-1.633 6.618-4.941 7.897v.088c3.352.794 4.322 4.544 4.588 7.544.089 1.324.22 5.955 1.323 7.103h-8.117c-.706-1.058-.838-4.147-.926-5.03-.221-3.176-.751-6.44-4.589-6.44h-6.22v11.47h-8.206v-31.5" fill="#fff"/></svg>