<svg xmlns="http://www.w3.org/2000/svg" viewBox="0 0 125 125" height="125" width="125"><path d="M93.75 32.88l6.25 3.023v53.033l-6.25 3.02-9.896-29.457 9.896-29.618" fill="#5c93d4"/><path d="M31.25 32.88L25 35.904v53.033l6.25 3.02 15.625-29.457L31.25 32.882M62.5 84.327l31.25 7.613V32.88L62.5 40.498v43.83" fill="#2f569f"/><path d="M62.5 84.327L31.25 91.94V32.88l31.25 7.617v43.83" fill="#5c93d4"/><path d="M70 103.75l11.944-5.96V27.21L70 21.25 58.127 60.483 70 103.75" fill="#5c93d4"/><path d="M55 103.75l-11.943-5.96V27.21L55 21.25 65.625 62.5 55 103.75" fill="#2f569f"/><path d="M55 103.75h15v-82.5H55v82.5z" fill="#3e6fbe"/></svg>