<svg xmlns="http://www.w3.org/2000/svg" viewBox="0 0 125 125" height="125" width="125"><path d="M40.78 30.009h43.44c6.298 0 11.405 5.106 11.405 11.406v19.118c-2.248-1.164-7.169-2.4-14.468-2.4-3.27 0-6.047.256-8.343.623-4.918.818-7.52 2.214-7.52 3.076v32.48c0 .539.74 1.253 2.14 1.947H40.78c-6.3 0-11.406-5.107-11.406-11.406V41.415c0-6.3 5.106-11.406 11.406-11.406" fill="#23446f"/><path d="M40.78 27.258h43.44c6.298 0 11.405 5.107 11.405 11.406v19.118c-2.248-1.163-7.169-2.4-14.468-2.4-3.27 0-6.047.257-8.343.623-4.918.818-7.52 2.215-7.52 3.076v32.481c0 .538.74 1.252 2.14 1.946H40.78c-6.3 0-11.406-5.106-11.406-11.405V38.663c0-6.3 5.106-11.406 11.406-11.406" fill="#3e6fbe"/><path d="M82.312 64.119c-2.744 0-5.073.215-7 .522-2.393.398-6.308-.544-6.308-.544v3.125c0 .722 2.182 1.897 6.308 2.563 1.927.325 4.256.525 7 .525 8.62 0 13.313-2.041 13.313-3.088v-3.125s-7.304.022-13.313.022M68.767 73.286l.02 21.372c0 1.082 3.708 3.084 12.653 3.084 4.89 0 8.584-.577 10.984-1.282 1.78-.576 3.037-1.226 3.179-1.712V73.486c-2.6 1.607-7.961 2.454-13.291 2.454h-.344c-.562-.017-1.092-.017-1.636-.037l-.22-.017c-.47-.02-.908-.036-1.362-.073a40.836 40.836 0 0 1-.674-.054c-.361-.036-.705-.053-1.052-.09-.203-.037-.383-.054-.567-.09-.38-.037-.744-.088-1.125-.144-2.91-.47-5.166-1.245-6.565-2.149" fill="#23446f"/><path d="M82.312 60.994c-2.744 0-5.073.215-7 .523-4.125.685-6.308 1.857-6.308 2.58 0 .723 2.182 1.897 6.308 2.563 1.927.325 4.256.525 7 .525 8.62 0 13.313-2.041 13.313-3.088 0-1.047-4.692-3.103-13.313-3.103M68.767 70.161l.02 21.373c0 1.081 3.708 3.083 12.653 3.083 4.89 0 8.584-.577 10.984-1.282 1.78-.576 3.037-1.226 3.179-1.711V70.361c-2.6 1.606-7.961 2.453-13.291 2.453h-.344c-.562-.017-1.092-.017-1.636-.036l-.22-.017c-.47-.02-.908-.037-1.362-.073a40.705 40.705 0 0 1-.674-.055c-.361-.036-.705-.053-1.052-.09-.203-.036-.383-.053-.567-.09a22.05 22.05 0 0 1-1.125-.144c-2.91-.469-5.166-1.245-6.565-2.149" fill="#3e6fbe"/><path d="M40.78 93.508h26.653v2.75H40.78c-6.3 0-11.406-5.106-11.406-11.405v-2.75c0 6.299 5.106 11.405 11.406 11.405" fill="#23446f"/><path d="M40.24 46.372c1.54 0 1.794-1.322 1.794-4.801 0-3.46-.254-4.803-1.793-4.803-1.54 0-1.795 1.342-1.795 4.803 0 3.479.254 4.801 1.795 4.801zm0-11.523c3.914 0 4.403 2.79 4.403 6.722 0 3.932-.49 6.722-4.402 6.722-3.915 0-4.404-2.79-4.404-6.722 0-3.932.489-6.722 4.404-6.722M48.324 40.756h1.086c1.252 0 1.957-.544 1.957-1.94 0-1.195-.634-1.793-1.811-1.793h-1.232v3.733zm-2.61-5.653h4.82c2.138 0 3.443 1.123 3.443 3.333 0 1.722-.688 2.88-2.156 3.189v.036c1.775.236 2.047 1.215 2.084 3.95.017 1.36.09 2.066.58 2.32v.109h-2.827c-.254-.363-.308-.852-.327-1.36l-.073-2.482c-.035-1.014-.488-1.631-1.539-1.631h-1.395v5.473h-2.61V35.103M58.624 43.165h2.538l-1.251-5.816h-.035l-1.252 5.816zm-.344-8.062h3.226L64.93 48.04h-2.717l-.598-2.736h-3.444l-.596 2.736h-2.719l3.424-12.937M70.745 39.469c0-1.885-.381-2.7-1.56-2.7-1.323 0-1.63 1.323-1.63 4.983 0 3.913.543 4.62 1.667 4.62.943 0 1.631-.488 1.631-3.279h2.609c0 2.79-.688 5.2-4.112 5.2-3.915 0-4.404-2.79-4.404-6.722 0-3.932.489-6.722 4.404-6.722 3.731 0 4.003 2.736 4.003 4.62h-2.608M74.404 48.04V35.103h2.61V45.9h4.62v2.139h-7.23M89.613 35.103v2.137h-4.62v3.044h4.348v2.138h-4.348V45.9h4.801v2.138h-7.411V35.102h7.23M75.054 75.055h4.09l2.897 12.158h.045l2.85-12.158h4v16.41h-2.482V77.813h-.046l-3.31 13.652h-2.207l-3.31-13.652h-.046v13.652h-2.481v-16.41" fill="#fff"/></svg>