<svg xmlns="http://www.w3.org/2000/svg" viewBox="0 0 125 125" height="125" width="125"><path d="M84.225 97.175h-43.45c-6.296 0-11.4-5.104-11.4-11.4v-43.45c0-6.296 5.104-11.4 11.4-11.4h43.45c6.296 0 11.4 5.104 11.4 11.4v43.45c0 6.296-5.104 11.4-11.4 11.4" fill="#23446f"/><path d="M84.225 94.075h-43.45c-6.296 0-11.4-5.104-11.4-11.4v-43.45c0-6.296 5.104-11.4 11.4-11.4h43.45c6.296 0 11.4 5.104 11.4 11.4v43.45c0 6.296-5.104 11.4-11.4 11.4" fill="#3e6fbe"/><path d="M40.241 46.372c1.54 0 1.793-1.322 1.793-4.801 0-3.46-.254-4.803-1.793-4.803-1.54 0-1.794 1.342-1.794 4.803 0 3.479.254 4.801 1.794 4.801zm0-11.523c3.914 0 4.403 2.79 4.403 6.722 0 3.932-.49 6.722-4.403 6.722-3.915 0-4.403-2.79-4.403-6.722 0-3.932.488-6.722 4.403-6.722M48.325 40.756h1.086c1.251 0 1.957-.544 1.957-1.94 0-1.195-.634-1.793-1.812-1.793h-1.231v3.733zm-2.61-5.653h4.82c2.138 0 3.443 1.123 3.443 3.333 0 1.722-.689 2.88-2.156 3.189v.036c1.775.236 2.047 1.215 2.084 3.95.017 1.36.09 2.066.58 2.32v.109h-2.828c-.254-.363-.307-.852-.325-1.36l-.074-2.482c-.035-1.014-.488-1.631-1.54-1.631h-1.394v5.473h-2.61V35.103M58.625 43.165h2.538l-1.251-5.816h-.036l-1.251 5.816zm-.344-8.062h3.226L64.93 48.04h-2.717l-.598-2.736h-3.444l-.597 2.736h-2.719l3.425-12.937M70.745 39.469c0-1.885-.38-2.7-1.559-2.7-1.323 0-1.63 1.323-1.63 4.983 0 3.913.543 4.62 1.667 4.62.942 0 1.631-.488 1.631-3.279h2.608c0 2.79-.688 5.2-4.112 5.2-3.915 0-4.403-2.79-4.403-6.722 0-3.932.488-6.722 4.403-6.722 3.731 0 4.004 2.736 4.004 4.62h-2.609M74.405 48.04V35.103h2.61V45.9h4.62v2.139h-7.23M89.614 35.103v2.137h-4.62v3.044h4.347v2.138h-4.348V45.9h4.801v2.138h-7.41V35.102h7.23" fill="#fff"/></svg>