<svg xmlns="http://www.w3.org/2000/svg" viewBox="0 0 54.549999 70.800003" height="70.8" width="54.55"><path d="M54.556 9.976c0 3.8-12.213 6.881-27.278 6.881S0 13.777 0 9.976v-3.1l27.278-3.781 27.278 3.781v3.1M27.278 22.35L0 60.82v3.1c0 3.8 12.213 6.881 27.278 6.881s27.278-3.081 27.278-6.881v-3.1L27.278 22.351" fill="#23446f"/><path d="M54.556 6.876c0 3.801-12.213 6.881-27.278 6.881S0 10.677 0 6.877C0 3.075 12.213-.006 27.278-.006s27.278 3.08 27.278 6.881" fill="#3e6fbe"/><path d="M27.278 19.251C12.213 19.251 0 16.171 0 12.371v48.448c0 3.8 12.213 6.881 27.278 6.881s27.278-3.08 27.278-6.881V12.37c0 3.8-12.213 6.881-27.278 6.881" fill="#3e6fbe"/><path d="M21.154 49.041c.198 4.134 2.756 5.463 6.644 5.463 2.755 0 5.61-.985 5.61-3.593 0-3.1-5.02-3.691-10.089-5.118-5.02-1.427-10.284-3.69-10.284-10.136 0-7.678 7.726-10.68 14.32-10.68 6.987 0 14.024 3.397 14.073 11.32h-9.153c.148-3.2-2.854-4.233-5.659-4.233-1.968 0-4.429.69-4.429 3.002 0 2.706 5.069 3.199 10.187 4.626 5.068 1.427 10.186 3.79 10.186 10.137 0 8.907-7.578 11.761-15.304 11.761-8.07 0-15.205-3.543-15.255-12.549h9.153" fill="#fff"/></svg>