<svg xmlns="http://www.w3.org/2000/svg" viewBox="0 0 125 125" height="125" width="125"><path d="M31.75 98.518l-11.875-5.956v-60.25l11.875-5.92 16.375 37.045-16.375 35.08" fill="#435e24"/><path d="M71 36.938L31.75 26.392v72.125L71 87.563V36.938" fill="#689f2e"/><path d="M89.125 82.188l9.125 3.072 5.76-19.867-5.76-19.868-9.125 1.325v35.337" fill="#435e24"/><path d="M98.25 46.04l-9.125 1.147-5.375-1.125 9.375-19.588L98.25 46.04" fill="#364426"/><path d="M83.75 46.063l9.375-1.25V26.418l-9.375 2.52v17.125" fill="#435e24"/><path d="M53.875 39.438l8.625-9.022 22.625 12.396-8.375 1.376-22.875-4.75" fill="#364426"/><path d="M98.25 78.96l-9.125-1.023-5.375 1 9.375 19.725 5.125-19.703" fill="#b2ce8f"/><path d="M83.75 78.938l9.375 1.25v18.474l-9.375-2.6V78.939" fill="#435e24"/><path d="M85.125 42.813l-22.625-5.5v-26.25l22.625 11.374v20.375M105.125 32.438l-12-6.02v18.395l12 2.874v-15.25" fill="#689f2e"/><path d="M53.875 85.563L62.5 102.76l22.625-20.573-8.375-1.374-22.875 4.75" fill="#b2ce8f"/><path d="M85.125 82.188l-22.625 5.5v26.25l22.625-11.28v-20.47M105.125 92.688l-12 5.974V80.187l12-2.874v15.374" fill="#689f2e"/><path d="M39.75 102.53l22.75 11.408 10.469-51.251L62.5 11.063 39.75 22.404v80.125" fill="#435e24"/><path d="M75.25 107.563l-12.75 6.374v-102.5l12.75 6.376v89.75M98.25 96.063l6.875-3.376v-60.25L98.25 30.86v65.203" fill="#689f2e"/></svg>