<svg xmlns="http://www.w3.org/2000/svg" viewBox="0 0 125 125" height="125" width="125"><path d="M61.656 74.253L24.38 78.885l10.467 15.783L73.6 75.74l-11.944-1.487" fill="#b2ce8f"/><path d="M61.656 51.889l37.278-4.634-10.469-15.779-38.752 18.927 11.943 1.486" fill="#364426"/><path d="M49.713 50.403l38.752-6.289V31.476l-38.752 10.48v8.447M24.378 68.342l37.278 3.728 36.573-8.998-36.573-9-37.278 3.725v10.545" fill="#435e24"/><path d="M98.934 68.342L61.656 72.07V54.073l37.278 3.724v10.545" fill="#689f2e"/><path d="M24.378 47.255L61.656 18.07 81.5 42.024l-39.032 7.48-18.09-2.25" fill="#364426"/><path d="M24.378 36.711l37.278-18.64V36.07L24.378 47.255V36.71" fill="#435e24"/><path d="M88.465 31.476l10.47 5.235v10.544l-10.47-3.14V31.475M73.6 75.74l-38.753 6.288v12.64L73.6 84.185V75.74M81.5 42.024L61.656 36.07v-18L81.5 27.993v14.031" fill="#689f2e"/><path d="M98.934 78.89l-37.278 29.18-19.841-23.955 39.03-7.475 18.09 2.25" fill="#b2ce8f"/><path d="M98.934 89.43l-37.278 18.64v-18l37.278-11.18v10.54" fill="#689f2e"/><path d="M41.815 84.115l19.841 5.956v18l-19.841-9.924V84.115M34.847 94.668L24.378 89.43V78.885l10.47 3.143v12.64" fill="#435e24"/></svg>