<svg xmlns="http://www.w3.org/2000/svg" viewBox="0 0 74.474998 90" height="90" width="74.475"><path d="M49.04 65.89L10.441 76.55V13.392l38.597 10.44v42.056" fill="#689f2e"/><path d="M10.442 76.55L0 71.305V18.613l10.442-5.22V76.55M17.402 36.148l19.826-2.493V56.17L17.402 53.7V36.147" fill="#435e24"/><path d="M74.474 31.831L56.4 33.697 17.402 27.49 37.228 0l37.246 31.831" fill="#364426"/><path d="M17.402 9.913L37.228 0v22.549l-19.826 4.94V9.914" fill="#435e24"/><path d="M74.474 58.135L56.4 56.262l-38.997 6.23 19.825 27.254 37.247-31.611" fill="#b2ce8f"/><path d="M17.402 80.044L37.228 90V67.451l-19.826-4.958v17.551" fill="#435e24"/><path d="M74.474 31.831L37.228 22.55V0l37.246 18.623v13.209M74.474 51.526l-37.246 4.643V33.621l37.246 4.697v13.208M74.474 71.344L37.228 90V67.451l37.246-9.316v13.21" fill="#689f2e"/></svg>