<svg xmlns="http://www.w3.org/2000/svg" viewBox="0 0 125 125" height="125" width="125"><defs><clipPath id="a"><path d="M130 710.957L500 921.93l370-210.973V289.035L500 78.07 130 289.035v421.922z"/></clipPath><linearGradient id="b" gradientTransform="matrix(0 -838.273 -838.273 0 500 917.531)" gradientUnits="userSpaceOnUse" x2="1"><stop offset="0" stop-color="#f47226"/><stop offset="1" stop-color="#d35c1d"/></linearGradient></defs><g clip-path="url(#a)" transform="matrix(.13 0 0 -.13 0 125)"><path d="M130 710.957L500 921.93l370-210.973V289.035L500 78.07 130 289.035v421.922" fill="url(#b)"/></g><path d="M47.92 62.484h18.852v-4.869H47.92v4.869zM47.92 72.22h18.852v-4.868H47.92v4.869zM47.92 81.958h18.852v-4.87H47.92v4.87z" fill="#fff"/><path d="M71.636 50.816V79.02h4.868V45.947H52.793v4.869h18.843" fill="#fff"/><path d="M81.373 79.02h-4.87V45.947h-23.71V41.08h28.58V79.02zm-9.737 9.737h-28.58V50.816h28.58v37.94zM86.24 36.21H47.924v9.736h-9.737v47.679h38.317v-9.737h9.737V36.21" fill="#fff"/></svg>