<svg xmlns="http://www.w3.org/2000/svg" viewBox="0 0 125 125" height="125" width="125"><defs><clipPath id="a"><path d="M130 711l370 211 370-211V289L500 78 130 289v422z"/></clipPath><linearGradient id="b" gradientTransform="matrix(0 -838.274 -838.274 0 500 917.309)" gradientUnits="userSpaceOnUse" x2="1"><stop offset="0" stop-color="#f47227"/><stop offset="1" stop-color="#d25c1e"/></linearGradient></defs><g clip-path="url(#a)" transform="matrix(.13 0 0 -.13 0 125)"><path d="M130 711l370 211 370-211V289L500 78 130 289v422" fill="url(#b)"/></g><path d="M89.25 81.25H34.125V61.5L61.75 73.75 89.375 61.5v19.75h-.125zm0-36.5V56L61.625 68.25 34 56V44.75h-4.875V86H94V44.75h-4.75" fill="#fff"/><path d="M61.625 27.125l-32.375 14.5V48h4.875v-3.125l27.5-12.375L89.25 44.875V48h4.875v-6.375l-32.5-14.5" fill="#fff"/><path d="M43.875 60.5v-7.875h35.5V60.5l5-2.25V47.625H39V58.25l4.875 2.25" fill="#fff"/></svg>