<svg xmlns="http://www.w3.org/2000/svg" viewBox="0 0 125 125" height="125" width="125"><defs><clipPath id="a"><path d="M130 713l370 212 370-212V288L500 75 130 288v425z"/></clipPath><linearGradient id="b" gradientTransform="matrix(0 -844.16 -844.16 0 500 920.598)" gradientUnits="userSpaceOnUse" x2="1"><stop offset="0" stop-color="#f47425"/><stop offset="1" stop-color="#d25b1e"/></linearGradient></defs><g clip-path="url(#a)" transform="matrix(.13 0 0 -.13 0 125)"><path d="M130 713l370 212 370-212V288L500 75 130 288v425" fill="url(#b)"/></g><path d="M88.75 67.625H59V52.75c0-1.375-1.125-2.375-2.375-2.375H51.75V43h37.125v24.625h-.125zm-22 8.625c-3 .125-5.625.375-7.875.75v-4.625h7.875v3.875zm-12.625 5.5H35.25v-26.5h18.875v26.5zm-9.5 5.125c-1.125 0-2-.875-2-2s.875-2 2-2 2 .875 2 2-.875 2-2 2zM46.75 38v12.375h-14c-1.375 0-2.375 1.125-2.375 2.375v32.875C30.375 87 31.5 88 32.75 88H56.5c1.375 0 2.375-1.125 2.375-2.375v-3.5h28v-2.5c0-1.625-5.75-3-13.5-3.375V72.5H93.5V38H46.75" fill="#fff"/></svg>