<svg xmlns="http://www.w3.org/2000/svg" viewBox="0 0 77.574997 93.75" height="93.75" width="77.575"><path d="M45.645 30.866l13.886-2.214V10.338l-13.886 4.44v16.088" fill="#622652"/><path d="M77.578 55.248l-38.854 5.904V32.767l38.854 5.853v16.628M52.91 27.148l-14.186-3.521V0L52.91 7.09v20.058M53.034 66.602l-14.18 3.521V93.75l14.18-7.09V66.602M68.255 30.82l-8.847-2.213V10.338l8.847 4.428V30.82" fill="#ab548b"/><path d="M68.385 30.82l-13.47 1.758-9.27-1.712 14.01-2.233 8.73 2.187" fill="#4a223d"/><path d="M31.934 30.866l-13.887-2.214V10.338l13.887 4.44v16.088" fill="#ab548b"/><path d="M0 55.248l38.854 5.904V32.767L0 38.62v16.628M24.674 27.148l14.18-3.521V0l-14.18 7.09v20.058M24.674 66.602l14.18 3.521V93.75l-14.18-7.09V66.602M9.323 30.82l8.847-2.213V10.338l-8.847 4.428V30.82" fill="#622652"/><path d="M9.323 30.82l13.464 1.758 9.27-1.712-14.004-2.233-8.73 2.187M53.034 27.148l-14.18 2.592-14.18-2.592 14.18-3.522 14.18 3.522" fill="#4a223d"/><path d="M53.034 66.602l-14.18-2.585-14.18 2.584 14.18 3.51 14.18-3.51" fill="#cfaac2"/></svg>