<svg xmlns="http://www.w3.org/2000/svg" viewBox="0 0 125 125" height="125" width="125"><path d="M106.533 72.5v3.987c0 7.314-7.976 14.729-17.822 14.729H36.27c-9.827 0-17.803-7.415-17.803-14.729V72.5h88.066" fill="#99451f"/><path d="M52.358 33.62a22.525 22.525 0 0 1 20.535 13.207 11.451 11.451 0 0 1 6.45-1.987c6.194 0 11.201 4.866 11.406 10.965 8.875.74 15.784 9.298 15.784 16.103v1.48c0 7.314-7.976 14.729-17.822 14.729H36.27c-9.827 0-17.803-7.415-17.803-14.73v-1.479c0-5.64 4.734-13.389 11.406-15.31 0-.203-.032-.423-.032-.64 0-12.349 10.08-22.339 22.517-22.339" fill="#f47326"/><path d="M40.033 72.667L42.5 62.528h.054l2.377 10.14h-4.897zm.49-12.903l-5.883 20.56h3.45l1.33-5.037h6.06l1.279 5.037h3.447l-5.449-20.56h-4.233M64.994 75.83h-.059l-2.783-16.066h-3.479l-2.722 15.98h-.061l-2.72-15.98h-3.335l3.996 20.56h3.829l2.64-15.488h.06l2.666 15.488h3.824l4.113-20.56h-3.277L64.994 75.83M81.603 69.096l-2.231-.811c-2.203-.833-3.101-1.726-3.101-3.48 0-2.192 1.362-2.968 2.778-2.968 2.058 0 2.9 1.094 2.9 2.969v.432h3.309v-.466c0-2.127-.552-5.41-5.855-5.41-3.884 0-6.436 2.075-6.436 5.823 0 2.932 1.302 4.486 4.317 5.634l2.26.784c1.86.542 2.96 1.497 2.96 3.652 0 1.526-1.048 2.998-3.132 2.998-2.286 0-3.39-1.27-3.39-3.771v-.523h-3.308v.49c0 2.882 1.162 6.275 6.29 6.275 4.174 0 6.846-1.811 6.846-6.184 0-2.825-1.28-4.412-4.207-5.444" fill="#fff"/></svg>