<svg xmlns="http://www.w3.org/2000/svg" viewBox="0 0 125 125" height="125" width="125"><defs><clipPath id="a"><path d="M775.051 512.16v-24.648c0-150.664-123.149-272.832-275.051-272.832S224.949 336.848 224.949 487.512v24.648h550.102z"/></clipPath></defs><path d="M96.881 60.98v3.081c0 18.833-15.393 34.104-34.381 34.104S28.119 82.894 28.119 64.061V60.98H96.88" fill="#484849"/><g clip-path="url(#a)" fill="#484849" transform="matrix(.13 0 0 -.13 0 125)"><path d="M775.051 512.16v-24.648a272.45 272.45 0 0 0-3.031-40.664v24.609a273.576 273.576 0 0 1 3.031 40.703M772.02 471.457v-24.609a264.838 264.838 0 0 0-10.875-45.274v24.727c4.902 14.492 8.55 29.668 10.875 45.156M761.145 426.301v-24.727c-5.707-17.07-13.125-33.476-21.973-48.906v24.609c8.848 15.45 16.266 31.856 21.973 49.024M739.172 377.277v-24.609C691.836 270.266 602.473 214.68 500 214.68c-151.902 0-275.051 122.168-275.051 272.832v24.648c0-150.683 123.149-272.832 275.051-272.832 102.473 0 191.836 55.567 239.172 137.949"/></g><path d="M62.5 26.854c18.988 0 34.381 15.276 34.381 34.107 0 18.835-15.393 34.104-34.381 34.104s-34.381-15.27-34.381-34.104c0-18.831 15.393-34.107 34.381-34.107" fill="#777779"/><path d="M73.124 60.939c0 5.868-4.756 10.623-10.624 10.623S51.877 66.808 51.877 60.94c0-5.868 4.755-10.624 10.623-10.624 5.868 0 10.624 4.756 10.624 10.624z" fill="none" stroke="#fff" stroke-width="1.25" stroke-miterlimit="10"/><path d="M69.055 60.939a6.554 6.554 0 0 1-6.555 6.555 6.555 6.555 0 1 1 6.555-6.555" fill="#fff"/></svg>