<svg xmlns="http://www.w3.org/2000/svg" viewBox="0 0 125 125" height="125" width="125"><path d="M69.712 30.426c2.078 0 3.78 1.677 3.78 3.758l14.692 56.208v3.474c0 2.08-1.702 3.753-3.78 3.753H40.596a3.756 3.756 0 0 1-3.78-3.753v-3.1L53.39 34.184a3.76 3.76 0 0 1 3.779-3.758h12.544" fill="#484849"/><path d="M84.404 27.327c2.078 0 3.78 1.677 3.78 3.757v59.683c0 2.08-1.702 3.752-3.78 3.752H40.596a3.756 3.756 0 0 1-3.78-3.752V31.084a3.76 3.76 0 0 1 3.78-3.757h43.808" fill="#777779"/><path d="M80.137 41.388H44.856v-4.143h35.28v4.143zm0 7.344H44.856v-4.144h35.28v4.144zm0 7.014H44.856v-4.14h35.28v4.14" fill="#fff"/></svg>