<svg xmlns="http://www.w3.org/2000/svg" viewBox="0 0 125 125" height="125" width="125"><path d="M69.712 30.426c2.078 0 3.78 1.677 3.78 3.758l14.692 56.208v3.474c0 2.08-1.702 3.753-3.78 3.753H40.596a3.756 3.756 0 0 1-3.78-3.753v-3.1L53.39 34.184a3.76 3.76 0 0 1 3.779-3.758h12.544" fill="#484849"/><path d="M84.404 27.327c2.078 0 3.78 1.677 3.78 3.757v59.683c0 2.08-1.702 3.752-3.78 3.752H40.596a3.756 3.756 0 0 1-3.78-3.752V31.084a3.76 3.76 0 0 1 3.78-3.757h43.808" fill="#777779"/><path d="M81.985 75.984H71.602v-4.175h10.383v4.175zm-10.447-11.37h10.379v4.175H71.538v-4.175zm10.379-7.195v4.178H71.538v-4.178h10.379zm-10.4-7.197h10.378v4.18H71.516v-4.18zm-.067-7.187h10.376v4.175H71.45v-4.175zm-3.689 32.949H57.388v-4.175H67.76v4.175zm-10.446-11.37h10.38v4.175h-10.38v-4.175zm10.38-7.195v4.178h-10.38v-4.178h10.38zm-10.398-7.197h10.376v4.18H57.297v-4.18zm-.068-7.187h10.38v4.175H57.23v-4.175zm-3.686 32.949H43.162v-4.175h10.38v4.175zM43.1 64.614h10.376v4.175H43.1v-4.175zm10.376-7.195v4.178H43.1v-4.178h10.376zm-10.4-7.197h10.378v4.18H43.076v-4.18zm-.067-7.187H53.39v4.175H43.01v-4.175zm0-7.195H53.39v4.175H43.01V35.84zm14.219 0h10.38v4.175H57.23V35.84zm14.221 0h10.376v4.175H71.45V35.84" fill="#fff"/></svg>