<svg xmlns="http://www.w3.org/2000/svg" viewBox="0 0 125 125" height="125" width="125"><path d="M106.533 72.5v3.987c0 7.314-7.976 14.729-17.822 14.729H36.27c-9.827 0-17.803-7.415-17.803-14.729V72.5h88.066" fill="#99451f"/><path d="M52.358 33.62a22.525 22.525 0 0 1 20.535 13.207 11.451 11.451 0 0 1 6.45-1.987c6.194 0 11.201 4.866 11.406 10.965 8.875.74 15.784 9.298 15.784 16.103v1.48c0 7.314-7.976 14.729-17.822 14.729H36.27c-9.827 0-17.803-7.415-17.803-14.73v-1.479c0-5.64 4.734-13.389 11.406-15.31 0-.203-.032-.423-.032-.64 0-12.349 10.08-22.339 22.517-22.339" fill="#f47326"/><path d="M39.806 59.76h3.492l3.491 16.447h.056l3.694-16.448h3.492l-5.193 20.602h-4.186L39.806 59.76M59.425 69.368h2.338c1.759 0 3.288-.951 3.288-3.55 0-2.223-.892-3.577-3.519-3.577h-2.107v7.127zm-3.288-9.609h6.52c3.954 0 5.685 2.482 5.685 6.001 0 3.695-2.165 6.088-6.028 6.088h-2.89v8.513h-3.287V59.76M83.806 72.974v.433c0 3.723-1.497 7.357-6.346 7.357-5.194 0-6.811-3.345-6.811-10.704 0-7.356 1.617-10.706 6.841-10.706 5.856 0 6.203 4.33 6.203 6.464v.378h-3.291v-.348c0-1.905-.576-4.1-2.942-4.012-2.425 0-3.52 1.502-3.52 8.139 0 6.635 1.095 8.31 3.52 8.31 2.74 0 3.059-3.06 3.059-4.964v-.347h3.287" fill="#fff"/></svg>