<svg xmlns="http://www.w3.org/2000/svg" viewBox="0 0 125 125" height="125" width="125"><path d="M94.05 30.436c2.719 0 4.933 2.195 4.933 4.898v57.392c0 2.703-2.215 4.88-4.934 4.88H30.936c-2.704 0-4.919-2.177-4.919-4.88V35.334c0-2.703 2.215-4.898 4.919-4.898h63.113" fill="#777779"/><path d="M94.05 27.336c2.719 0 4.933 2.195 4.933 4.898v57.393c0 2.702-2.215 4.88-4.934 4.88H30.936c-2.704 0-4.919-2.178-4.919-4.88V32.234c0-2.703 2.215-4.898 4.919-4.898h63.113" fill="#d4d4d2"/><path d="M94 43.37H31.015a1.09 1.09 0 0 1-1.098-1.09c0-.603.486-1.084 1.098-1.084h62.987c.605 0 1.09.481 1.09 1.084 0 .6-.485 1.09-1.09 1.09zM74.716 61.991h1.877c-.534 6.829-6.013 12.27-12.888 12.796V72.92c5.85-.525 10.48-5.12 11.01-10.928zm-2.256 0c-.508 4.575-4.148 8.184-8.755 8.692v-8.692h8.755zM63.705 48.89v-1.87c6.875.527 12.354 5.97 12.888 12.796h-1.877c-.53-5.801-5.161-10.403-11.01-10.926zm8.755 10.925h-8.755V51.13c4.607.506 8.247 4.114 8.755 8.684zm-21.948 2.178c.529 5.806 5.156 10.4 11.006 10.928v1.868c-6.88-.528-12.356-5.967-12.89-12.796h1.884zm0-2.178h-1.883c.533-6.823 6.009-12.263 12.889-12.795v1.87c-5.85.535-10.477 5.125-11.006 10.925zm11.006 2.178v8.692c-4.608-.516-8.24-4.119-8.75-8.692h8.75zm-8.75-2.178c.51-4.567 4.142-8.173 8.75-8.684v8.684h-8.75zM94 80.281H31.014a1.09 1.09 0 0 1 0-2.18H94a1.09 1.09 0 0 1 0 2.18zm1.025 8.557c0 1.125-.91 2.036-2.045 2.036h-7.857a2.038 2.038 0 0 1-2.041-2.036v-3.25c0-1.125.914-2.03 2.041-2.03h7.857c1.135 0 2.045.905 2.045 2.03v3.25zm-17.632 0a2.038 2.038 0 0 1-2.045 2.036h-7.854a2.035 2.035 0 0 1-2.038-2.036v-3.25c0-1.125.91-2.03 2.038-2.03h7.854c1.133 0 2.045.905 2.045 2.03v3.25zm-17.629 0a2.04 2.04 0 0 1-2.046 2.036h-7.85c-1.131 0-2.04-.91-2.04-2.036v-3.25a2.03 2.03 0 0 1 2.04-2.03h7.85c1.131 0 2.046.905 2.046 2.03v3.25zm-17.624 0a2.043 2.043 0 0 1-2.05 2.036h-7.853a2.04 2.04 0 0 1-2.043-2.036v-3.25c0-1.125.916-2.03 2.043-2.03h7.852c1.133 0 2.05.905 2.05 2.03v3.25zM30.194 33.013c0-1.126.916-2.032 2.043-2.032h7.852c1.133 0 2.05.906 2.05 2.032v3.254a2.041 2.041 0 0 1-2.05 2.029h-7.852a2.038 2.038 0 0 1-2.043-2.029v-3.254zm17.635 0a2.03 2.03 0 0 1 2.038-2.032h7.851c1.131 0 2.046.906 2.046 2.032v3.254a2.038 2.038 0 0 1-2.046 2.029h-7.85c-1.131 0-2.04-.91-2.04-2.029v-3.254zm17.627 0c0-1.126.91-2.032 2.038-2.032h7.854c1.133 0 2.045.906 2.045 2.032v3.254a2.037 2.037 0 0 1-2.045 2.029h-7.854a2.034 2.034 0 0 1-2.038-2.029v-3.254zm17.626 0c0-1.126.914-2.032 2.041-2.032h7.857c1.135 0 2.045.906 2.045 2.032v3.254c0 1.118-.91 2.029-2.045 2.029h-7.857a2.036 2.036 0 0 1-2.041-2.029v-3.254" fill="#fff"/></svg>