<svg xmlns="http://www.w3.org/2000/svg" viewBox="0 0 125 125" height="125" width="125"><path d="M72.489 30.419c2.173 0 3.914 1.748 3.914 3.89l8.93 59.42c0 2.14-1.74 3.885-3.914 3.885H43.581c-2.154 0-3.914-1.746-3.914-3.885l11.107-59.42c0-2.142 1.76-3.89 3.913-3.89H72.49" fill="#777779"/><path d="M81.42 27.32c2.172 0 3.914 1.747 3.914 3.888V90.63c0 2.139-1.742 3.884-3.915 3.884H43.581c-2.154 0-3.914-1.746-3.914-3.884V31.209c0-2.142 1.76-3.89 3.914-3.89h37.838" fill="#d4d4d2"/><path d="M80.893 78.572c0 1.286-1.167 2.329-2.613 2.329H46.652c-1.438 0-2.608-1.043-2.608-2.33V43.226c0-1.282 1.17-2.32 2.608-2.32H78.28c1.446 0 2.613 1.038 2.613 2.32v35.347zM62.467 92.747c-2.46 0-4.453-1.985-4.453-4.432 0-2.443 1.992-4.426 4.453-4.426 2.461 0 4.456 1.983 4.456 4.426 0 2.447-1.995 4.432-4.456 4.432zM51.09 31.633h22.76a2.546 2.546 0 0 1 2.553 2.535 2.546 2.546 0 0 1-2.554 2.536H51.09c-1.41 0-2.558-1.135-2.558-2.536 0-1.4 1.147-2.535 2.558-2.535" fill="#fff"/></svg>