<svg xmlns="http://www.w3.org/2000/svg" viewBox="0 0 125 125" height="125" width="125"><defs><clipPath id="a"><path d="M719.238 733.422v-27.891c0-12.773-36.25-33.769-104.218-45.82-31.719-5.606-70.301-9.375-115.45-9.375-142 0-219.511 36.504-219.511 55.195v27.891c0-18.692 77.511-55.195 219.511-55.195 45.149 0 83.731 3.73 115.45 9.336 67.968 12.089 104.218 33.085 104.218 45.859z"/></clipPath></defs><path d="M89.905 33.322v3.487c0 1.596-4.531 4.22-13.027 5.727-3.965.7-8.788 1.172-14.432 1.172-17.75 0-27.439-4.563-27.439-6.9v-3.486c0 2.337 9.69 6.9 27.44 6.9 5.643 0 10.466-.467 14.43-1.167 8.497-1.512 13.028-4.136 13.028-5.733" fill="#484849"/><g clip-path="url(#a)" fill="#484849" transform="matrix(.13 0 0 -.13 0 125)"><path d="M719.238 733.422v-27.891a7.72 7.72 0 0 0-.097-1.152v27.871c.058.391.097.762.097 1.172M719.141 732.25v-27.871a10.024 10.024 0 0 0-.411-1.582v27.91a8.64 8.64 0 0 1 .411 1.543M718.73 730.707v-27.91a12.625 12.625 0 0 0-1.132-2.324v27.89c.488.801.859 1.582 1.132 2.344M717.598 728.363v-27.89c-7.754-12.754-42.969-30.196-102.578-40.762-31.719-5.606-70.301-9.375-115.45-9.375-142 0-219.511 36.504-219.511 55.195v27.891c0-18.692 77.511-55.195 219.511-55.195 45.149 0 83.731 3.73 115.45 9.336 59.609 10.585 94.824 28.046 102.578 40.8"/></g><path d="M89.863 85.771c.059-.163.09-.317.09-.465v5.634c0 .065-.005.129-.017.192a1.924 1.924 0 0 1-.065.26l-.008.012c-.003.012-.012.025-.017.036-.04.104-.086.208-.152.317-.016.027-.043.055-.061.083a3.383 3.383 0 0 1-.165.221 4.32 4.32 0 0 1-.242.286 5.616 5.616 0 0 1-.58.526 7.49 7.49 0 0 1-.76.54c-.127.084-.254.166-.394.249-.175.102-.369.204-.563.305-.15.079-.29.157-.452.235-.235.115-.498.227-.76.34-.148.065-.282.129-.439.192-.423.171-.876.341-1.362.506-.159.054-.34.105-.506.158-.35.112-.7.223-1.079.33-.225.065-.47.125-.708.187-.351.092-.703.183-1.077.271-.268.062-.55.12-.83.18-.376.08-.759.16-1.159.235-.303.057-.616.11-.933.165a69.348 69.348 0 0 1-2.285.345c-.461.059-.937.114-1.423.167-.352.04-.703.079-1.07.113-.522.05-1.066.091-1.614.133-.363.027-.717.056-1.091.079-.624.038-1.279.066-1.935.092-.331.013-.647.032-.988.042-1.012.03-2.055.048-3.143.048-10.003 0-17.559-1.274-22.465-2.84-3.652-1.296-6.268-2.712-6.561-3.81v-5.632c.272 1.02 2.57 2.319 5.827 3.537l-.066-.343c4.905 1.562 13.262 3.455 23.265 3.455 1.089 0 2.133-.019 3.147-.048.33-.011.64-.028.962-.041.666-.027 1.33-.056 1.964-.093.362-.024.706-.051 1.058-.078a58.796 58.796 0 0 0 2.68-.243 68.294 68.294 0 0 0 2.429-.308c.466-.068.919-.14 1.36-.216l6.207-1.505c.511-.174.988-.35 1.43-.531l1.203-.536c.101-.05.191-.1.29-.15.255-.13.501-.263.724-.395.102-.06.192-.12.286-.179.195-.122.38-.244.547-.366.085-.063.166-.125.244-.188a6.121 6.121 0 0 0 .6-.537c.108-.114.2-.225.285-.336.047-.06.094-.12.133-.18l.24-.451" fill="#484849"/><path d="M62.446 26.829c5.644 0 10.467.449 14.432 1.169 8.495 1.506 13.027 4.111 13.027 5.71 0 1.597-4.532 4.222-13.028 5.733-3.964.7-8.787 1.167-14.43 1.167-17.751 0-27.44-4.563-27.44-6.9 0-2.333 9.689-6.88 27.44-6.88" fill="#777779"/><path d="M76.545 45.044c-.756.144-1.51.251-2.268.364-.389.048-.778.124-1.184.158a70.91 70.91 0 0 1-2.133.232c-.467.04-.933.09-1.398.11-.912.071-1.842.125-2.776.159l-.465.017c-1.084.059-2.19.076-3.338.093h-.715c-10.905 0-21.885-1.87-27.22-5.442v47.302c.291 1.096 2.889 2.515 6.52 3.809 4.907 1.562 12.473 2.839 22.485 2.839 18.293 0 25.9-4.455 25.9-6.846l.04-47.536c-2.853 1.994-7.471 3.699-13.448 4.741" fill="#777779"/></svg>