<svg xmlns="http://www.w3.org/2000/svg" viewBox="0 0 125 125" height="125" width="125"><path d="M106.533 72.5v3.987c0 7.314-7.976 14.729-17.822 14.729H36.27c-9.827 0-17.803-7.415-17.803-14.729V72.5h88.066" fill="#777779"/><path d="M52.358 33.62a22.525 22.525 0 0 1 20.535 13.207 11.451 11.451 0 0 1 6.45-1.987c6.194 0 11.201 4.866 11.406 10.965 8.875.74 15.784 9.298 15.784 16.103v1.48c0 7.314-7.976 14.729-17.822 14.729H36.27c-9.827 0-17.803-7.415-17.803-14.73v-1.479c0-5.64 4.734-13.389 11.406-15.31 0-.203-.032-.423-.032-.64 0-12.349 10.08-22.339 22.517-22.339" fill="#d4d4d2"/></svg>