<svg xmlns="http://www.w3.org/2000/svg" viewBox="0 0 125 125" height="125" width="125"><path d="M62.502 30.638l14.72 11.5v3.1c0 8.066-6.592 14.611-14.72 14.611-8.132 0-14.709-6.545-14.709-14.612v-3.1l14.71-11.5M70.908 64.024c9.295 0 16.819 5.637 16.819 14.839V97.41h-9.685V84.402h-1.65V97.41H48.984V84.402H47.32V97.41H37.273V78.863c0-9.202 7.522-14.84 16.821-14.84h16.814" fill="#777779"/><path d="M62.502 27.538c8.128 0 14.72 6.545 14.72 14.6 0 8.066-6.592 14.611-14.72 14.611-8.132 0-14.709-6.545-14.709-14.611 0-8.055 6.577-14.6 14.71-14.6M70.908 60.924c9.295 0 16.819 5.637 16.819 14.84V94.31h-9.685V81.303h-1.65V94.31H48.984V81.303H47.32V94.31H37.273V75.763c0-9.202 7.522-14.839 16.821-14.839h16.814" fill="#d4d4d2"/></svg>