<svg xmlns="http://www.w3.org/2000/svg" viewBox="0 0 125 125" height="125" width="125"><path d="M91.717 89.99a2.112 2.112 0 0 1-2.119 2.11H67.582a2.124 2.124 0 0 1-2.133-2.11H27.755v2.11a5.293 5.293 0 0 0 5.293 5.286h58.889c2.937 0 5.308-2.368 5.308-5.286v-2.11h-5.528M94.922 64.844l-3.41 3.748a2.408 2.408 0 0 1-2.416 2.402H35.829a2.407 2.407 0 0 1-2.403-2.402l-2.88-3.748h-2.742v3.748c0 4.397 3.596 7.983 8.025 7.983h53.267c4.428 0 8.042-3.586 8.042-7.983v-3.748h-2.216" fill="#99451f"/><path d="M89.598 89a2.112 2.112 0 1 0 0-4.226H67.581c-1.178 0-2.133.955-2.133 2.107 0 1.172.955 2.12 2.133 2.12h22.017m2.339-9.508c2.937 0 5.308 2.352 5.308 5.27V89c0 2.917-2.371 5.285-5.308 5.285H33.048A5.292 5.292 0 0 1 27.755 89v-4.238c0-2.917 2.373-5.269 5.293-5.269h58.889M91.513 65.492V35.67a2.405 2.405 0 0 0-2.417-2.397H35.829a2.404 2.404 0 0 0-2.403 2.397v29.822a2.407 2.407 0 0 0 2.403 2.402h53.267a2.408 2.408 0 0 0 2.417-2.402M89.096 27.69c4.428 0 8.042 3.586 8.042 7.98v29.823c0 4.397-3.614 7.984-8.042 7.984H35.829c-4.43 0-8.025-3.587-8.025-7.984V35.67c0-4.395 3.596-7.98 8.025-7.98h53.267" fill="#f47326"/></svg>