<svg xmlns="http://www.w3.org/2000/svg" viewBox="0 0 125 125" height="125" width="125"><path d="M21.036 62.103h38.761v-3.82h-38.76v3.82zM65.194 63.439h38.761v-4.495h-38.76v4.495z" fill="#484849"/><path d="M92.864 46.029c-9.676-4.579-21.232-.447-25.81 9.232-3.099 6.548-2.197 13.95 1.702 19.475-4.503 1.135-8.938 1.233-14.276 1.202.904-.88 1.172-1.206 1.892-2.248a19.261 19.261 0 0 0 3.43-10.996c0-10.706-8.679-19.382-19.382-19.382-10.706 0-19.384 8.676-19.384 19.382 0 10.705 8.678 19.382 19.384 19.382 3.437 0 6.66-.904 9.46-2.474a47.44 47.44 0 0 0 3.455.232s9.154 1.077 18.99-1.287a19.373 19.373 0 0 0 3.96 2.525c9.676 4.576 21.232.443 25.811-9.235 4.579-9.675.444-21.23-9.232-25.808" fill="#484849"/><path d="M92.864 43.529c-9.676-4.579-21.232-.447-25.81 9.232-3.099 6.548-2.197 13.95 1.702 19.475-4.503 1.135-9.49 1.874-14.828 1.843 3.618-3.52 5.874-8.437 5.874-13.885 0-10.706-8.679-19.382-19.382-19.382-10.706 0-19.384 8.676-19.384 19.382 0 10.705 8.678 19.382 19.384 19.382 3.437 0 6.66-.904 9.46-2.474a47.44 47.44 0 0 0 3.455.232s9.154 1.077 18.99-1.287a19.373 19.373 0 0 0 3.96 2.525c9.676 4.576 21.232.443 25.811-9.235 4.579-9.675.444-21.23-9.232-25.808" fill="#777779"/><path d="M36.068 64.822a3.528 3.528 0 0 0-4.96-.5l-2.73 2.233a3.522 3.522 0 0 0-.495 4.958l.247.303a3.52 3.52 0 0 0 4.957.498l2.73-2.231a3.523 3.523 0 0 0 .498-4.958l-.247-.303M57.553 61.147a3.524 3.524 0 0 0-3.48-3.572l-3.52-.05a3.528 3.528 0 0 0-3.571 3.478l-.007.391a3.529 3.529 0 0 0 3.476 3.573l3.524.046a3.523 3.523 0 0 0 3.571-3.474l.007-.393M38.664 53.394a3.521 3.521 0 0 0 2.219-4.46l-1.117-3.342a3.528 3.528 0 0 0-4.465-2.22l-.37.124a3.525 3.525 0 0 0-2.221 4.461l1.12 3.342a3.524 3.524 0 0 0 4.462 2.221l.372-.126M43.16 60.194a2.742 2.742 0 1 0-5.483.002 2.742 2.742 0 0 0 5.483-.002M86.894 66.963a3.523 3.523 0 0 0-2.568 4.269l.852 3.421a3.519 3.519 0 0 0 4.268 2.571l.38-.095a3.524 3.524 0 0 0 2.569-4.269l-.85-3.42a3.525 3.525 0 0 0-4.27-2.57l-.38.093M92.763 45.972a3.522 3.522 0 0 0-4.715 1.614L86.5 50.75a3.523 3.523 0 0 0 1.613 4.715l.352.172a3.527 3.527 0 0 0 4.716-1.614l1.55-3.164a3.524 3.524 0 0 0-1.615-4.716l-.352-.171M77.68 59.731a3.525 3.525 0 0 0-3.084-3.916l-3.5-.418a3.528 3.528 0 0 0-3.916 3.087l-.046.386a3.527 3.527 0 0 0 3.083 3.917l3.498.414a3.52 3.52 0 0 0 3.918-3.081l.047-.389M85.747 58.57a2.741 2.741 0 1 0-2.345 4.958 2.741 2.741 0 0 0 2.345-4.958" fill="#fff"/></svg>