<svg xmlns="http://www.w3.org/2000/svg" viewBox="0 0 125 125" height="125" width="125"><path d="M94.024 75.625H40.977V72.5l26.524-19.584L94.023 72.5v3.125M97.305 98.62H54.75v-3.1l21.622-16.405L97.305 95.52v3.1" fill="#23446f"/><path d="M54.75 95.52h42.555V75.625H54.75V95.52z" fill="#3e6fbe"/><path d="M56.99 78.82h2.137v5.362h3.938V78.82h2.138v13.387h-2.138v-6.225h-3.938v6.225H56.99V78.82M70.378 80.62H67.19v-1.8h8.456v1.8h-3.131v11.587h-2.137V80.62M79.828 80.62h-3.189v-1.8h8.456v1.8h-3.13v11.587h-2.137V80.62M89.221 85.064h1.519c1.143 0 2.138-.62 2.138-2.306 0-1.444-.582-2.326-2.288-2.326H89.22v4.631zm-2.137-6.244h4.237c2.568 0 3.694 1.612 3.694 3.9 0 2.4-1.407 3.956-3.919 3.956h-1.875v5.531h-2.137V78.82" fill="#fff"/><path d="M94.024 72.5V40.27c0-6.296-5.104-11.4-11.4-11.4h-43.45c-6.296 0-11.4 5.104-11.4 11.4v43.45c0 6.296 5.104 11.4 11.4 11.4h12.555V72.5h42.295" fill="#23446f"/><path d="M94.024 72.5V37.17c0-6.296-5.104-11.4-11.4-11.4h-43.45c-6.296 0-11.4 5.104-11.4 11.4v43.45c0 6.296 5.104 11.4 11.4 11.4h12.555V72.5h42.295" fill="#3e6fbe"/></svg>