<svg xmlns="http://www.w3.org/2000/svg" viewBox="0 0 125 125" height="125" width="125"><path d="M81.228 89.991l-8.104-4.062-4.171 8.05-6.453-6.367-6.454 6.367-4.169-8.05-8.106 4.062-1.478-8.945-3.186.483v29.28L62.5 94.71l23.393 16.1V81.53l-3.187-.484-1.478 8.945" fill="#23446f"/><path d="M39.107 68.097v38.962L62.5 90.96l23.393 16.1V68.096H39.107" fill="#3e6fbe"/><path d="M92.277 53.234l5.517-5.59v-3.75l-6.974.138 3.519-7.02v-3.75l-7.75 2.47 1.178-7.765v-3.75l-7.764 4.927-1.281-7.748-7.02 3.519-3.613-6.974-5.589 5.516-5.59-5.516-3.612 6.974-7.02-3.52-1.28 7.749-7.765-4.927v3.75l1.176 7.765-7.748-2.47v3.75l3.52 7.02-6.974-.137v3.75l5.516 5.59-5.516 1.84v3.75l6.973 3.611-3.518 3.27v3.75l7.747 1.281-1.176 4.015V78.5l1.874-.284 5.89-.893 1.28 7.75 7.02-3.52 3.613 6.974 5.59-5.516 5.59 5.516 3.612-6.973 7.02 3.518 1.28-7.749 5.891.893 1.874.284v-3.75l-1.177-4.014 7.749-1.281v-3.75l-3.519-3.27 6.974-3.612v-3.75l-5.517-1.84" fill="#23446f"/><path d="M92.277 49.484l5.517-5.59-6.974-3.612 3.519-7.02-7.75-1.28 1.178-7.765-7.764 1.177-1.281-7.748-7.02 3.518-3.613-6.973-5.589 5.516-5.59-5.516-3.612 6.974-7.02-3.52-1.28 7.749-7.765-1.177 1.176 7.765-7.748 1.28 3.52 7.02-6.974 3.613 5.516 5.59-5.516 5.59 6.973 3.611-3.518 7.02 7.747 1.281-1.176 7.764 1.874-.284 5.89-.893 1.28 7.75 7.02-3.52 3.613 6.974 5.59-5.516 5.59 5.516 3.612-6.973 7.02 3.518 1.28-7.749 5.891.893 1.874.284-1.177-7.764 7.749-1.281-3.519-7.02 6.974-3.612-5.517-5.59" fill="#3e6fbe"/><path d="M89.787 49.484c0 15.07-12.217 27.287-27.287 27.287-15.07 0-27.287-12.217-27.287-27.287 0-15.07 12.217-27.286 27.287-27.286 15.07 0 27.287 12.216 27.287 27.286" fill="#3e6fbe"/><path d="M62.5 24.072c-14.013 0-25.411 11.4-25.411 25.413 0 14.012 11.398 25.411 25.411 25.411 14.013 0 25.412-11.399 25.412-25.411 0-14.013-11.4-25.413-25.412-25.413zm0 54.575c-16.08 0-29.161-13.083-29.161-29.162 0-16.08 13.082-29.163 29.161-29.163 16.08 0 29.162 13.082 29.162 29.163 0 16.079-13.083 29.162-29.162 29.162" fill="#fff"/><path d="M47.806 53.222h-.05c-1.56 0-2.828-1.25-2.84-2.79-.03-1.57 1.242-2.855 2.807-2.88.01-.005.018-.005.026-.005 1.571 0 2.852 1.244 2.877 2.805a2.846 2.846 0 0 1-2.82 2.87zm33.189-6.009l-3.859 2.311-1.485-.323-1.622-1.666-4.23.397-1.757-3.062-4.992.068-1.144-.053c-.05-.086-1.008-1.667-2.493-2.76a10.921 10.921 0 0 0-6.83-2.383c-2.43 0-4.87.8-6.89 2.448a10.742 10.742 0 0 0-1.528 15.214c.273.326.561.638.86.918a10.921 10.921 0 0 0 7.575 3.039c2.427 0 4.861-.802 6.88-2.444a8.777 8.777 0 0 0 1.47-1.457 8.346 8.346 0 0 0 1.12-1.668c.368-.663.583-1.16.626-1.299h20.196l2.046-3.6-3.943-3.68" fill="#fff"/></svg>