<svg xmlns="http://www.w3.org/2000/svg" viewBox="0 0 125 125" height="125" width="125"><path d="M75.393 16.563H41.098c-4.94 0-8.946 2.942-8.946 7.084v52.5c0 4.14 4.006 7.915 8.946 7.915h19.565v-3.75h-.157c.568-9.181 8.173-16.458 17.497-16.458 2.355 0 4.597.471 6.649 1.312v-41.52c0-4.141-4.319-7.084-9.259-7.084" fill="#23446f"/><path d="M75.393 12.813H41.098c-4.94 0-8.946 2.942-8.946 7.083v52.5c0 4.142 4.006 7.917 8.946 7.917h19.565a17.556 17.556 0 0 1-.213-2.656c0-9.694 7.86-17.553 17.553-17.553 2.355 0 4.597.471 6.649 1.312v-41.52c0-4.141-4.319-7.083-9.259-7.083" fill="#3e6fbe"/><path d="M43.893 63.046L40.4 59.251l-3.859 3.86 7.273 7.274 12.29-12.29-2.808-2.855-9.403 7.806" fill="#fff"/><path d="M36.759 39.508h4.288l4.664 4.411 4.863-4.411h4.029l-6.792 6.023 7.282 6.478h-4.375l-5.123-4.78-5.21 4.78H36.27l7.28-6.478-6.791-6.023M36.759 21.383h4.288l4.664 4.411 4.863-4.411h4.029l-6.792 6.023 7.282 6.478h-4.375l-5.123-4.78-5.21 4.78H36.27l7.28-6.478-6.791-6.023" fill="#9fbde7"/><path d="M78.003 98.504c-4.69 0-8.87-2.178-11.59-5.576v19.26l11.59-7.978 11.592 7.978v-19.26c-2.72 3.398-6.9 5.576-11.592 5.576" fill="#23446f"/><path d="M78.003 65.695c-8.198 0-14.844 6.646-14.844 14.845 0 3.507 1.219 6.728 3.253 9.27 2.72 3.397 6.9 5.575 11.591 5.575 4.691 0 8.872-2.178 11.592-5.576a14.78 14.78 0 0 0 3.253-9.27c0-8.198-6.646-14.844-14.845-14.844" fill="#23446f"/><path d="M78.003 95.622c-4.69 0-8.87-2.179-11.59-5.576v19.26l11.59-7.978 11.592 7.977v-19.26c-2.72 3.398-6.9 5.577-11.592 5.577" fill="#3e6fbe"/><path d="M78.003 62.813c-8.198 0-14.844 6.646-14.844 14.844 0 3.508 1.219 6.73 3.253 9.27 2.72 3.397 6.9 5.576 11.591 5.576 4.691 0 8.872-2.179 11.592-5.577a14.776 14.776 0 0 0 3.253-9.269c0-8.198-6.646-14.844-14.845-14.844" fill="#3e6fbe"/><path d="M70.723 79.51h-.025c-.774 0-1.401-.62-1.408-1.382a1.41 1.41 0 0 1 1.392-1.429c.004-.002.008-.002.012-.002.779 0 1.413.617 1.426 1.39a1.41 1.41 0 0 1-1.397 1.422zm16.444-2.978l-1.911 1.145-.736-.16-.804-.826-2.095.197-.871-1.517-2.474.034-.566-.027c-.025-.042-.5-.826-1.236-1.367a5.414 5.414 0 0 0-3.385-1.18 5.382 5.382 0 0 0-3.413 1.212 5.322 5.322 0 0 0-.332 7.994 5.414 5.414 0 0 0 3.754 1.505 5.384 5.384 0 0 0 3.409-1.211c.282-.22.526-.467.729-.722.223-.255.405-.538.555-.826a4.86 4.86 0 0 0 .31-.644h10.006l1.015-1.784-1.955-1.823" fill="#fff"/></svg>