<svg xmlns="http://www.w3.org/2000/svg" viewBox="0 0 125 125" height="125" width="125"><path d="M90.734 44.175a13.5 13.5 0 0 0-2.837.306c.053-.399.09-.802.09-1.215a9.161 9.161 0 0 0-9.162-9.161c-3.337 0-6.248 1.789-7.85 4.455-1.563-9.103-9.473-16.036-19.022-16.036-10.672 0-19.323 8.651-19.323 19.323 0 1.167.121 2.303.32 3.413-6.779.413-12.152 6.024-12.152 12.905 0 7.15 5.796 12.945 12.946 12.945h56.99c7.438 0 13.468-6.03 13.468-13.467 0-7.438-6.03-13.468-13.468-13.468" fill="#23446f"/><path d="M90.734 40.425a13.5 13.5 0 0 0-2.837.306c.053-.399.09-.802.09-1.215a9.161 9.161 0 0 0-9.162-9.161c-3.337 0-6.248 1.789-7.85 4.455-1.563-9.103-9.473-16.036-19.022-16.036-10.672 0-19.323 8.651-19.323 19.323 0 1.167.121 2.303.32 3.413-6.779.413-12.152 6.024-12.152 12.905 0 7.15 5.796 12.945 12.946 12.945h56.99c7.438 0 13.468-6.03 13.468-13.467 0-7.438-6.03-13.468-13.468-13.468" fill="#3e6fbe"/><path d="M62.779 52.528h-3.68a.5.5 0 0 0-.5.5v8.608a.5.5 0 0 0 .5.5h3.68a.5.5 0 0 0 .5-.5v-8.608a.5.5 0 0 0-.5-.5M55.19 52.528h-2.821a.5.5 0 0 0-.5.5v3.361a.5.5 0 0 0 .5.5h2.82a.5.5 0 0 0 .5-.5v-3.361a.5.5 0 0 0-.5-.5M69.465 52.528h-2.821a.5.5 0 0 0-.5.5v3.361a.5.5 0 0 0 .5.5h2.82a.5.5 0 0 0 .5-.5v-3.361a.5.5 0 0 0-.5-.5" fill="#3e6fbe"/><path d="M72.873 64.251H52.128a2.913 2.913 0 0 1-2.914-2.913V40.592a2.913 2.913 0 0 1 2.914-2.913h20.745a2.913 2.913 0 0 1 2.914 2.913v20.746a2.914 2.914 0 0 1-2.914 2.913" fill="#fff"/><path d="M79.34 46.625H56.003a1.876 1.876 0 0 1 0-3.75H79.34a1.876 1.876 0 0 1 0 3.75M68.998 59.055H45.66a1.875 1.875 0 0 1 0-3.75h23.338a1.875 1.875 0 0 1 0 3.75" fill="#3e6fbe"/><path d="M60.521 44.75a4.518 4.518 0 1 0-9.036 0 4.518 4.518 0 0 0 9.036 0M73.516 57.18a4.518 4.518 0 1 0-9.037 0 4.518 4.518 0 0 0 9.037 0M62.779 92.003h-3.68a.5.5 0 0 0-.5.5v8.608a.5.5 0 0 0 .5.5h3.68a.5.5 0 0 0 .5-.5v-8.608a.5.5 0 0 0-.5-.5M55.19 92.003h-2.821a.5.5 0 0 0-.5.5v3.36a.5.5 0 0 0 .5.5h2.82a.5.5 0 0 0 .5-.5v-3.36a.5.5 0 0 0-.5-.5M69.465 92.003h-2.821a.5.5 0 0 0-.5.5v3.36a.5.5 0 0 0 .5.5h2.82a.5.5 0 0 0 .5-.5v-3.36a.5.5 0 0 0-.5-.5" fill="#3e6fbe"/><path d="M72.873 106.226H52.128a2.913 2.913 0 0 1-2.914-2.913V82.567a2.913 2.913 0 0 1 2.914-2.913h20.745a2.914 2.914 0 0 1 2.914 2.913v20.746a2.914 2.914 0 0 1-2.914 2.913" fill="#23446f"/><path d="M72.873 103.726H52.128a2.913 2.913 0 0 1-2.914-2.913V80.067a2.913 2.913 0 0 1 2.914-2.913h20.745a2.914 2.914 0 0 1 2.914 2.913v20.746a2.914 2.914 0 0 1-2.914 2.913" fill="#3e6fbe"/><path d="M75.787 86.1H56.003a1.876 1.876 0 0 1 0-3.75h19.784v3.75M68.998 98.53H49.214v-3.75h19.784a1.875 1.875 0 0 1 0 3.75" fill="#fff"/><path d="M60.521 84.225a4.518 4.518 0 1 0-9.036 0 4.518 4.518 0 0 0 9.036 0M73.516 96.655a4.518 4.518 0 1 0-9.037 0 4.518 4.518 0 0 0 9.037 0" fill="#fff"/></svg>