<svg xmlns="http://www.w3.org/2000/svg" viewBox="0 0 125 125" height="125" width="125"><path d="M15.625 95.824h93.75V68.116h-93.75v27.708z" fill="#23446f"/><path d="M15.625 91.891h93.75V29.55h-93.75V91.89z" fill="#3e6fbe"/><path d="M109.375 77.895H93.613a1.876 1.876 0 0 1-1.875-1.874V64.766a1.875 1.875 0 0 1 3.75 0v9.378h13.887v3.75" fill="#fff"/><path d="M109.375 87.467H80.209a1.875 1.875 0 0 1-1.875-1.875V64.767a1.875 1.875 0 0 1 3.75 0v18.95h27.291v3.75M98.184 64.767a4.57 4.57 0 1 1-9.14 0 4.57 4.57 0 0 1 9.14 0" fill="#fff"/><path d="M84.779 64.767a4.57 4.57 0 1 1-9.141 0 4.57 4.57 0 0 1 9.14 0M71.893 77.652a4.57 4.57 0 1 1-9.141 0 4.57 4.57 0 0 1 9.141 0M62.752 45.31a4.57 4.57 0 1 1-9.14 0 4.57 4.57 0 0 1 9.14 0M69.343 59.697a4.57 4.57 0 1 1-9.14 0 4.57 4.57 0 0 1 9.14 0M40.642 45.31a4.57 4.57 0 1 1-9.14 0 4.57 4.57 0 0 1 9.14 0M28.164 77.774a4.57 4.57 0 1 1-9.14 0 4.57 4.57 0 0 1 9.14 0M103.475 57.192H83.753a2.02 2.02 0 0 1-2.021-2.02V35.448a2.02 2.02 0 0 1 2.02-2.02h19.723a2.02 2.02 0 0 1 2.02 2.02V55.17a2.02 2.02 0 0 1-2.02 2.02" fill="#fff"/><path d="M67.323 79.528c-.48 0-.96-.183-1.325-.55L46.89 59.872a1.876 1.876 0 0 1-.55-1.326V29.549h3.75v28.22L68.65 76.327a1.874 1.874 0 0 1-1.326 3.2M31.25 59.777a4.57 4.57 0 1 1 9.14 0 4.57 4.57 0 0 1-9.14 0M34.11 77.774a4.57 4.57 0 1 1 9.14 0 4.57 4.57 0 0 1-9.14 0" fill="#fff"/><path d="M55.487 91.891h-3.75V78.345l-16.99-16.991 2.65-2.652 18.09 18.09v15.1M93.613 47.185H57.77a1.876 1.876 0 0 1 0-3.75h35.844a1.875 1.875 0 0 1 0 3.75" fill="#fff"/><path d="M71.893 47.185a1.875 1.875 0 0 1-1.875-1.875V29.55h3.75v15.76c0 1.035-.84 1.875-1.875 1.875M38.557 79.65c-.48 0-.96-.184-1.326-.55L22.268 64.137a1.876 1.876 0 0 1-.55-1.326V29.55h3.75v32.484l14.415 14.415a1.874 1.874 0 0 1-1.326 3.2" fill="#fff"/><path d="M38.68 47.185H23.594a1.875 1.875 0 0 1 0-3.75H38.68a1.875 1.875 0 0 1 0 3.75M21.719 91.891h3.75V77.774h-3.75v14.117zM58.396 68.726l-2.651-2.652 9.553-9.553 2.651 2.651-9.553 9.554" fill="#fff"/><path d="M71.056 24.877a2.49 2.49 0 0 1-1.767-.733c-3.744-3.742-9.834-3.742-13.578 0a2.5 2.5 0 0 1-3.535-3.535c5.691-5.694 14.957-5.694 20.648 0a2.5 2.5 0 0 1-1.768 4.268" fill="#3e6fbe"/><path d="M77.843 18.09c-.64 0-1.279-.243-1.767-.732-7.486-7.485-19.666-7.485-27.152 0a2.5 2.5 0 1 1-3.535-3.535c9.434-9.436 24.788-9.436 34.222 0a2.5 2.5 0 0 1-1.768 4.268M62.5 108.66a14.554 14.554 0 0 1-10.324-4.269 2.5 2.5 0 0 1 3.535-3.535c3.744 3.742 9.834 3.742 13.578 0a2.5 2.5 0 0 1 3.535 3.535 14.554 14.554 0 0 1-10.324 4.27" fill="#3e6fbe"/><path d="M62.5 118.253c-6.196 0-12.393-2.358-17.11-7.076a2.5 2.5 0 0 1 3.534-3.535c7.486 7.485 19.666 7.485 27.152 0a2.5 2.5 0 1 1 3.535 3.535c-4.718 4.718-10.915 7.076-17.111 7.076" fill="#3e6fbe"/></svg>