<svg xmlns="http://www.w3.org/2000/svg" viewBox="0 0 125 125" height="125" width="125"><path d="M84.225 98.735h-43.45c-6.296 0-11.4-5.104-11.4-11.4v-43.45c0-6.296 5.104-11.4 11.4-11.4h43.45c6.296 0 11.4 5.104 11.4 11.4v43.45c0 6.296-5.104 11.4-11.4 11.4" fill="#23446f"/><path d="M84.225 95.635h-43.45c-6.296 0-11.4-5.103-11.4-11.4v-43.45c0-6.296 5.104-11.4 11.4-11.4h43.45c6.296 0 11.4 5.104 11.4 11.4v43.45c0 6.297-5.104 11.4-11.4 11.4" fill="#3e6fbe"/><path d="M75 35.063h5V17.994h-5v17.067zM45 35.063h5V17.994h-5v17.067zM67.5 35.063h5V17.994h-5v17.067zM52.5 35.063h5V17.994h-5v17.067zM60 35.063h5V17.994h-5v17.067zM17.995 80h22.63v-5h-22.63v5zM17.995 57.5h22.63v-5h-22.63v5zM17.995 72.5h22.63v-5h-22.63v5zM17.995 65h22.63v-5h-22.63v5zM17.995 50h22.63v-5h-22.63v5zM45 107.005h5V87.354h-5v19.65zM75 107.005h5V87.354h-5v19.65zM52.5 107.005h5V87.354h-5v19.65zM67.5 107.005h5V87.354h-5v19.65zM60 107.005h5V87.354h-5v19.65zM87.084 72.5h19.921v-5H87.084v5zM87.084 50h19.921v-5H87.084v5zM87.084 65h19.921v-5H87.084v5zM87.084 57.5h19.921v-5H87.084v5zM87.084 80h19.921v-5H87.084v5z" fill="#3e6fbe"/><path d="M69.856 47.523l3.809 26.481c1.205 8.385.179 16.162-10.957 16.162h-8.155c-10.539 0-12.162-7.777-10.957-16.162l3.808-26.48h22.453M47.404 45.023c.747-5.192 5.002-8.979 9.823-8.979h2.807c4.82 0 9.076 3.787 9.822 8.98H47.404" fill="#fff"/><path d="M52.401 69.362l-8.314 4.023-9.504-23.367 5.395-2.61 12.423 21.954M73.516 75.866h-2.02v-3.75h2.02a5.24 5.24 0 0 0 5.234-5.235v-5.468a5.24 5.24 0 0 0-5.234-5.235H69.74v-3.75h3.775c4.953 0 8.984 4.031 8.984 8.985v5.468c0 4.954-4.03 8.985-8.984 8.985M63.15 86.856h17.475v-3.75H63.15v3.75z" fill="#fff"/><path d="M87.466 90.243H84.57a5.195 5.195 0 0 1-5.195-5.195v-.136a5.195 5.195 0 0 1 5.195-5.195h2.896v10.526" fill="#fff"/><path d="M90.903 84.25h-6.875a1.875 1.875 0 0 1 0-3.75h6.875a1.876 1.876 0 0 1 0 3.75M90.903 89.46h-6.875a1.876 1.876 0 0 1 0-3.75h6.875a1.876 1.876 0 0 1 0 3.75" fill="#fff"/></svg>