<svg xmlns="http://www.w3.org/2000/svg" viewBox="0 0 125 125" height="125" width="125"><path d="M97.305 98.62H37.253v-3.1l30.511-16.405L97.305 95.52v3.1" fill="#23446f"/><path d="M37.253 95.52h60.052V75.625H37.253V95.52z" fill="#3e6fbe"/><path d="M40.456 78.82h2.137v5.364h3.938V78.82h2.137v13.387h-2.137v-6.224h-3.938v6.224h-2.137V78.821M53.844 80.622h-3.189V78.82h8.456v1.8h-3.13v11.587h-2.137V80.622M63.294 80.622h-3.189V78.82h8.456v1.8H65.43v11.587h-2.137V80.622M72.686 85.065h1.52c1.143 0 2.137-.62 2.137-2.306 0-1.444-.581-2.325-2.288-2.325h-1.369v4.631zm-2.137-6.244h4.238c2.568 0 3.693 1.613 3.693 3.9 0 2.4-1.406 3.956-3.918 3.956h-1.875v5.531h-2.138V78.821M83.655 78.559h1.669L81.068 92.47H79.4l4.256-13.912M94.286 92.208h-7.762c0-5.775 5.568-5.643 5.568-9.768 0-1.087-.469-2.006-1.649-2.006-1.594 0-1.857 1.425-1.857 2.775h-2.025c0-2.644 1.088-4.274 3.919-4.274 2.72 0 3.75 1.61 3.75 3.541 0 4.407-4.312 4.688-5.325 7.933h5.38v1.799" fill="#fff"/><path d="M82.624 28.87h-43.45c-6.296 0-11.4 5.104-11.4 11.4v43.45c0 4.697 2.843 8.73 6.9 10.474V72.5h59.35V40.27c0-6.296-5.104-11.4-11.4-11.4" fill="#23446f"/><path d="M94.024 75.625H33.837v-3.1l30.58-16.405 29.607 16.405v3.1" fill="#23446f"/><path d="M82.624 25.77h-43.45c-6.296 0-11.4 5.104-11.4 11.4v43.45c0 4.698 2.843 8.73 6.9 10.474V72.5h59.35V37.17c0-6.296-5.104-11.4-11.4-11.4" fill="#3e6fbe"/></svg>