<svg xmlns="http://www.w3.org/2000/svg" viewBox="0 0 125 125" height="125" width="125"><path d="M84.225 98.735h-43.45c-6.296 0-11.4-5.104-11.4-11.4v-43.45c0-6.296 5.104-11.4 11.4-11.4h43.45c6.296 0 11.4 5.104 11.4 11.4v43.45c0 6.296-5.104 11.4-11.4 11.4" fill="#23446f"/><path d="M84.225 95.635h-43.45c-6.296 0-11.4-5.103-11.4-11.4v-43.45c0-6.296 5.104-11.4 11.4-11.4h43.45c6.296 0 11.4 5.104 11.4 11.4v43.45c0 6.297-5.104 11.4-11.4 11.4" fill="#3e6fbe"/><path d="M75 35.063h5V17.994h-5v17.067zM45 35.063h5V17.994h-5v17.067zM67.5 35.063h5V17.994h-5v17.067zM52.5 35.063h5V17.994h-5v17.067zM60 35.063h5V17.994h-5v17.067zM17.995 80h22.63v-5h-22.63v5zM17.995 57.5h22.63v-5h-22.63v5zM17.995 72.5h22.63v-5h-22.63v5zM17.995 65h22.63v-5h-22.63v5zM17.995 50h22.63v-5h-22.63v5zM45 107.005h5V87.354h-5v19.65zM75 107.005h5V87.354h-5v19.65zM52.5 107.005h5V87.354h-5v19.65zM67.5 107.005h5V87.354h-5v19.65zM60 107.005h5V87.354h-5v19.65zM87.084 72.5h19.921v-5H87.084v5zM87.084 50h19.921v-5H87.084v5zM87.084 65h19.921v-5H87.084v5zM87.084 57.5h19.921v-5H87.084v5zM87.084 80h19.921v-5H87.084v5z" fill="#3e6fbe"/><path d="M60.625 92.897h3.75V52.272h-3.75v40.625z" fill="#fff"/><path d="M84.13 52.07c-15.067-1.413-18.638-1.746-20.149-.946.038-1.71-1.858-4.746-9.86-17.555l-1.042-1.668-3.295 1.776.814 1.772c6.301 13.737 7.797 16.995 9.245 17.903-1.5.821-3.18 3.98-10.275 17.32l-.921 1.733 3.184 1.965 1.122-1.582c8.75-12.33 10.824-15.255 10.889-16.965.76.461 2.093.648 5.32.648 2.978 0 7.569-.16 14.807-.411l1.97-.069.11-3.74-1.92-.18" fill="#fff"/><path d="M62.5 49.147a4.38 4.38 0 0 0-4.375 4.375 4.38 4.38 0 0 0 4.375 4.375 4.38 4.38 0 0 0 4.375-4.375 4.38 4.38 0 0 0-4.375-4.375" fill="#fff"/><path d="M62.5 52.272c-.689 0-1.25.56-1.25 1.25 0 .689.561 1.25 1.25 1.25.69 0 1.25-.561 1.25-1.25 0-.69-.56-1.25-1.25-1.25" fill="#3e6fbe"/></svg>