<svg xmlns="http://www.w3.org/2000/svg" viewBox="0 0 125 125" height="125" width="125"><path d="M84.225 98.735h-43.45c-6.296 0-11.4-5.104-11.4-11.4v-43.45c0-6.296 5.104-11.4 11.4-11.4h43.45c6.296 0 11.4 5.104 11.4 11.4v43.45c0 6.296-5.104 11.4-11.4 11.4" fill="#23446f"/><path d="M84.225 95.635h-43.45c-6.296 0-11.4-5.103-11.4-11.4v-43.45c0-6.296 5.104-11.4 11.4-11.4h43.45c6.296 0 11.4 5.104 11.4 11.4v43.45c0 6.297-5.104 11.4-11.4 11.4" fill="#3e6fbe"/><path d="M75 35.063h5V17.994h-5v17.067zM45 35.063h5V17.994h-5v17.067zM67.5 35.063h5V17.994h-5v17.067zM52.5 35.063h5V17.994h-5v17.067zM60 35.063h5V17.994h-5v17.067zM17.995 80h22.63v-5h-22.63v5zM17.995 57.5h22.63v-5h-22.63v5zM17.995 72.5h22.63v-5h-22.63v5zM17.995 65h22.63v-5h-22.63v5zM17.995 50h22.63v-5h-22.63v5zM45 107.005h5V87.354h-5v19.65zM75 107.005h5V87.354h-5v19.65zM52.5 107.005h5V87.354h-5v19.65zM67.5 107.005h5V87.354h-5v19.65zM60 107.005h5V87.354h-5v19.65zM87.084 72.5h19.921v-5H87.084v5zM87.084 50h19.921v-5H87.084v5zM87.084 65h19.921v-5H87.084v5zM87.084 57.5h19.921v-5H87.084v5zM87.084 80h19.921v-5H87.084v5z" fill="#3e6fbe"/><path d="M74.216 77.128h-23.43a2.913 2.913 0 0 1-2.914-2.913v-23.43a2.913 2.913 0 0 1 2.913-2.913h23.43a2.913 2.913 0 0 1 2.914 2.913v23.43a2.913 2.913 0 0 1-2.913 2.913" fill="#fff"/><path d="M81.041 57.532H55.347a1.876 1.876 0 0 1 0-3.75H81.04a1.876 1.876 0 0 1 0 3.75M69.654 71.218H43.96a1.876 1.876 0 0 1 0-3.75h25.695a1.875 1.875 0 0 1 0 3.75" fill="#3e6fbe"/><path d="M60.321 55.657a4.975 4.975 0 1 0-9.95 0 4.975 4.975 0 0 0 9.95 0M74.629 69.343a4.975 4.975 0 1 0-9.95 0 4.975 4.975 0 0 0 9.95 0" fill="#3e6fbe"/></svg>