<svg xmlns="http://www.w3.org/2000/svg" viewBox="0 0 125 125" height="125" width="125"><path d="M84.225 98.735h-43.45c-6.296 0-11.4-5.104-11.4-11.4v-43.45c0-6.296 5.104-11.4 11.4-11.4h43.45c6.296 0 11.4 5.104 11.4 11.4v43.45c0 6.296-5.104 11.4-11.4 11.4" fill="#23446f"/><path d="M84.225 95.635h-43.45c-6.296 0-11.4-5.103-11.4-11.4v-43.45c0-6.296 5.104-11.4 11.4-11.4h43.45c6.296 0 11.4 5.104 11.4 11.4v43.45c0 6.297-5.104 11.4-11.4 11.4" fill="#3e6fbe"/><path d="M75 35.063h5V17.994h-5v17.067zM45 35.063h5V17.994h-5v17.067zM67.5 35.063h5V17.994h-5v17.067zM52.5 35.063h5V17.994h-5v17.067zM60 35.063h5V17.994h-5v17.067zM17.995 80h22.63v-5h-22.63v5zM17.995 57.5h22.63v-5h-22.63v5zM17.995 72.5h22.63v-5h-22.63v5zM17.995 65h22.63v-5h-22.63v5zM17.995 50h22.63v-5h-22.63v5zM45 107.005h5V87.354h-5v19.65zM75 107.005h5V87.354h-5v19.65zM52.5 107.005h5V87.354h-5v19.65zM67.5 107.005h5V87.354h-5v19.65zM60 107.005h5V87.354h-5v19.65zM87.084 72.5h19.921v-5H87.084v5zM87.084 50h19.921v-5H87.084v5zM87.084 65h19.921v-5H87.084v5zM87.084 57.5h19.921v-5H87.084v5zM87.084 80h19.921v-5H87.084v5z" fill="#3e6fbe"/><path d="M39.375 84.481h46.25V51.466h-46.25V84.48z" fill="#fff"/><path d="M36.274 53.105h52.451v-3.104h-52.45v3.104zM36.274 85.967h52.451v-3.279h-52.45v3.279zM62.5 34.959L36.274 50.001h52.451L62.5 34.959" fill="#fff"/><path d="M63.637 73.565c1.833-.125 3.957-.875 3.957-2.875 0-1.625-1.583-2.416-3.957-3.083v5.958zm-1.958-18.996c-1.625.042-3.583.667-3.583 2.708 0 1.332 1.459 2.04 3.583 2.624v-5.332zm1.958-5.957c5.54.333 10.705 3.25 10.746 9.706h-7.747c.083-2.124-1.25-3.165-3-3.582v5.666c.959.248 2.042.499 3.083.79 4.29 1.208 8.623 3.207 8.623 8.581 0 6.957-5.624 9.54-11.705 9.79v3.749h-1.958v-3.749c-6.581-.209-12.164-3.125-12.205-10.456h7.748c.166 3 1.832 4.208 4.457 4.499v-6.54c-.75-.208-1.667-.459-2.625-.709-4.248-1.207-8.706-3.124-8.706-8.58 0-6.416 5.915-8.998 11.33-9.207v-3.748h1.959v3.79" fill="#3e6fbe"/></svg>