<svg xmlns="http://www.w3.org/2000/svg" viewBox="0 0 125 125" height="125" width="125"><path d="M97.07 61.014v2.979c0 18.94-15.48 34.3-34.578 34.3-19.083 0-34.561-15.36-34.561-34.3v-2.979h69.138" fill="#23446f"/><path d="M62.492 26.707c19.099 0 34.577 15.348 34.577 34.307 0 18.938-15.478 34.297-34.577 34.297-19.083 0-34.561-15.359-34.561-34.297 0-18.96 15.478-34.307 34.56-34.307" fill="#3e6fbe"/><path d="M69.928 55.67L56.22 38.75l-6.681 5.412L64.393 62.5 49.54 80.838l6.682 5.412 13.707-16.92 5.532-6.83-5.532-6.83" fill="#fff"/></svg>