<svg xmlns="http://www.w3.org/2000/svg" viewBox="0 0 125 125" height="125" width="125"><path d="M84.875 46.625L95 33.75l4.75 12.875-9.75 1.25-5.125-1.25" fill="#23446f"/><path d="M68.125 81.5L95 86.875l4.271-17.938L95 51l-26.875 2.5v28" fill="#2e569e"/><path d="M62.5 68.875v20.552L95 68.25l-24.625-1.125-7.875 1.75" fill="#9fbde7"/><path d="M68.75 62.5h9.5l12.688-12.291L78.25 32.75l-9.5 2.75v27" fill="#2e569e"/><path d="M84.875 46.625L95 45.25v-11.5l-10.125 2.375v10.5" fill="#2e569e"/><path d="M99.75 67.75L62.5 71.5v36l37.25-18.625V67.75" fill="#5c93d4"/><path d="M62.5 107.5l11.125-16.041V46.75L62.5 44.5 50.885 73.959 62.5 107.5M95 80.573l4.75 8.302V52L95 51v29.573M99.75 36.125L95 33.75v11.5l4.75 1.375v-10.5M92.25 38.375l-14-5.625V62.5h14V38.375" fill="#5c93d4"/><path d="M40.125 46.625L30 33.75l-4.75 12.875 9.75 1.25 5.125-1.25" fill="#23446f"/><path d="M56.875 81.5L30 86.875V51l26.875 2.5v28" fill="#5c93d4"/><path d="M62.5 68.875v22.844L30 68.25l24.625-1.125 7.875 1.75" fill="#9fbde7"/><path d="M56.25 62.5h-9.5L35.062 48.49 46.75 32.75l9.5 2.75v27" fill="#5c93d4"/><path d="M40.125 46.625L30 45.25v-11.5l10.125 2.375v10.5" fill="#5c93d4"/><path d="M25.25 67.75L62.5 71.5v36L25.25 88.875V67.75" fill="#2e569e"/><path d="M62.5 107.5L51.375 92.604V46.75L62.5 44.5v63M30 88.021l-4.75.854V52L30 51v37.021M25.25 36.125L30 33.75v11.5l-4.75 1.375v-10.5M32.75 38.375l14-5.625V62.5h-14V38.375" fill="#2e569e"/><path d="M73.625 38.875L62.5 41.5l-11.125-2.625L62.5 17.5l11.125 21.375" fill="#23446f"/><path d="M62.5 17.5l11.125 5.625v15.75L62.5 35.5v-18" fill="#5c93d4"/><path d="M62.5 17.5l-11.125 5.625v15.75L62.5 35.5v-18" fill="#2e569e"/></svg>