<svg xmlns="http://www.w3.org/2000/svg" viewBox="0 0 125 125" height="125" width="125"><path d="M89.162 35.964c-1.599 1.503-5.772 3.314-12.285 4.473-3.964.7-8.787 1.167-14.43 1.167-14.928 0-24.127-3.224-26.683-5.64h-.757v2.227c0 2.336 9.689 6.9 27.44 6.9 5.643 0 10.466-.472 14.43-1.172 8.496-1.507 13.028-4.131 13.028-5.728v-2.227h-.743M89.936 89.03c-.014.086-.035.172-.067.257-.041.12-.1.242-.175.371-1.467 2.461-9.273 6.023-25.62 6.023-10 0-18.359-1.892-23.264-3.454l.066.342c-3.258-1.218-5.556-2.516-5.827-3.536v3.484c.292 1.099 2.909 2.515 6.561 3.811 4.905 1.565 12.464 2.84 22.465 2.84 16.346 0 24.152-3.567 25.619-6.028.075-.125.134-.247.175-.367.032-.09.053-.175.068-.258.01-.064.015-.127.015-.193v-3.486c0 .063-.005.129-.015.195" fill="#23446f"/><path d="M76.544 47.29c-.754.144-1.51.252-2.267.364-.389.049-.777.124-1.182.159a70.33 70.33 0 0 1-2.136.231c-.466.04-.93.09-1.398.11-.911.071-1.841.125-2.775.159l-.465.017c-1.084.059-2.19.076-3.336.093h-.716c-10.906 0-21.886-1.87-27.22-5.442v47.302c.292 1.096 2.89 2.515 6.517 3.809 4.91 1.562 12.476 2.84 22.488 2.84 18.293 0 25.898-4.456 25.898-6.846l.04-47.537c-2.852 1.995-7.47 3.699-13.448 4.741" fill="#3e6fbe"/><path d="M35.007 35.955c0 1.5 4.016 3.913 11.577 5.452v-10.89c-7.561 1.533-11.577 3.939-11.577 5.438M89.905 35.955c0-1.497-3.972-3.875-11.446-5.409v10.837c7.474-1.539 11.446-3.934 11.446-5.428" fill="#23446f"/><path d="M46.584 25.832l5.363 3.84 10.574 7.567 10.562-7.56 5.375-3.847H46.585" fill="#3e6fbe"/><path d="M76.44 30.17l-13.919 9.962-13.954-9.985-1.984-1.42v12.68c4.213.858 9.513 1.447 15.864 1.447 5.643 0 10.466-.466 14.43-1.167.544-.097 1.07-.198 1.582-.304V28.726L76.44 30.17" fill="#3e6fbe"/></svg>