<svg xmlns="http://www.w3.org/2000/svg" viewBox="0 0 125 125" height="125" width="125"><path d="M15.625 95.638h93.75V67.929h-93.75v27.709z" fill="#23446f"/><path d="M15.625 91.705h93.75V29.362h-93.75v62.343z" fill="#3e6fbe"/><path d="M41.041 66.263a6.042 6.042 0 0 1 0-12.084 6.042 6.042 0 0 1 0 12.084M70.209 66.263H54.583l7.813-12.084 7.813 12.084M77.709 66.263h12.083V54.179H77.708v12.084zM63.48 29.362l.275 1.99c.045.323.344.55.668.505l2.223-.308a13.347 13.347 0 0 0 2.007 3.822l-1.495 1.654c-.22.243-.201.617.042.837l2.827 2.556c.242.219.617.2.836-.042l1.482-1.64a13.451 13.451 0 0 0 4.017 1.641l-.082 2.2a.592.592 0 0 0 .57.613l3.81.141a.592.592 0 0 0 .613-.57l.081-2.193a13.47 13.47 0 0 0 2.127-.485c.705-.227 1.37-.521 2.01-.85l1.346 1.732a.593.593 0 0 0 .832.104l3.008-2.34a.592.592 0 0 0 .104-.831l-1.352-1.738a13.442 13.442 0 0 0 2.3-3.679l2.16.464a.593.593 0 0 0 .704-.455l.671-3.128H63.48M58.211 89.63l1.983-1.05c.29-.153.4-.511.247-.8l-1.782-3.369a.592.592 0 0 0-.801-.247l-2.008 1.063a13.39 13.39 0 0 0-3.187-2.874l.858-2.11a.592.592 0 0 0-.326-.772l-3.53-1.435a.592.592 0 0 0-.772.326l-.865 2.127a13.294 13.294 0 0 0-4.271-.15l-.708-2.192a.593.593 0 0 0-.746-.383l-3.627 1.17a.593.593 0 0 0-.382.746l.708 2.194a13.308 13.308 0 0 0-3.378 2.618L33.68 83.27a.593.593 0 0 0-.817.187l-2.026 3.228a.593.593 0 0 0 .186.817l1.93 1.21a13.214 13.214 0 0 0-.784 2.992h26.51c-.099-.693-.252-1.386-.468-2.075" fill="#fff"/></svg>