<svg xmlns="http://www.w3.org/2000/svg" viewBox="0 0 125 125" height="125" width="125"><path d="M75.956 29.658l-4.173 2.861-2.072-4.6c-3.185-7.044-10.245-11.59-17.99-11.59-5.274 0-10.22 2.046-13.934 5.765C34.05 25.817 32 30.8 32 36.074l.084 3.657-3.101.895c-5.034 1.445-9.094 7.896-9.094 12.267v1.571c0 5.312 6.434 11.49 14.729 11.49h55.769c8.29 0 14.724-6.178 14.724-11.49v-1.571c0-5.346-5.959-12.38-12.921-12.973l-3.737-.311-.121-3.728c-.14-4.26-3.615-7.614-7.905-7.614a7.817 7.817 0 0 0-4.471 1.391" fill="#23446f"/><path d="M75.956 25.96l-4.173 2.862-2.072-4.601c-3.185-7.043-10.245-11.59-17.99-11.59-5.274 0-10.22 2.046-13.934 5.765C34.05 22.12 32 27.103 32 32.377l.084 3.656-3.101.895c-5.034 1.446-9.094 7.896-9.094 12.267v1.572c0 5.311 6.434 11.488 14.729 11.488h55.769c8.29 0 14.724-6.177 14.724-11.488v-1.572c0-5.345-5.959-12.38-12.921-12.973l-3.737-.31-.121-3.728c-.14-4.261-3.615-7.615-7.905-7.615a7.817 7.817 0 0 0-4.471 1.392" fill="#3e6fbe"/><path d="M25.087 112.37h72.5V84.66h-72.5v27.71z" fill="#23446f"/><path d="M25.087 108.62h72.5V80.91h-72.5v27.71z" fill="#3e6fbe"/><path d="M59.461 94.765h3.75V62.256h-3.75v32.509z" fill="#3e6fbe"/><path d="M59.461 62.256h3.75V49.661h-3.75v12.595z" fill="#fff"/><path d="M61.337 42.577l-5.625 8.228h11.25l-5.625-8.228M39.878 100.494a6.042 6.042 0 0 1 0-12.084 6.042 6.042 0 0 1 0 12.084M69.045 100.494H53.42l7.813-12.083 7.812 12.083M76.545 100.494h12.083V88.411H76.545v12.083z" fill="#fff"/></svg>