<svg xmlns="http://www.w3.org/2000/svg" viewBox="0 0 125 125" height="125" width="125"><path d="M84.225 98.735h-43.45c-6.296 0-11.4-5.104-11.4-11.4v-43.45c0-6.296 5.104-11.4 11.4-11.4h43.45c6.296 0 11.4 5.104 11.4 11.4v43.45c0 6.296-5.104 11.4-11.4 11.4" fill="#23446f"/><path d="M84.225 95.635h-43.45c-6.296 0-11.4-5.103-11.4-11.4v-43.45c0-6.296 5.104-11.4 11.4-11.4h43.45c6.296 0 11.4 5.104 11.4 11.4v43.45c0 6.297-5.104 11.4-11.4 11.4" fill="#3e6fbe"/><path d="M75 35.063h5V17.994h-5v17.067zM45 35.063h5V17.994h-5v17.067zM67.5 35.063h5V17.994h-5v17.067zM52.5 35.063h5V17.994h-5v17.067zM60 35.063h5V17.994h-5v17.067zM17.995 80h22.63v-5h-22.63v5zM17.995 57.5h22.63v-5h-22.63v5zM17.995 72.5h22.63v-5h-22.63v5zM17.995 65h22.63v-5h-22.63v5zM17.995 50h22.63v-5h-22.63v5zM45 107.005h5V87.354h-5v19.65zM75 107.005h5V87.354h-5v19.65zM52.5 107.005h5V87.354h-5v19.65zM67.5 107.005h5V87.354h-5v19.65zM60 107.005h5V87.354h-5v19.65zM87.084 72.5h19.921v-5H87.084v5zM87.084 50h19.921v-5H87.084v5zM87.084 65h19.921v-5H87.084v5zM87.084 57.5h19.921v-5H87.084v5zM87.084 80h19.921v-5H87.084v5zM48.333 62.688l3.542-10 19.375 2.083 7.5 16.042-24.167 5.626-6.25-13.75" fill="#3e6fbe"/><path d="M55.587 71.995c0 5.33-4.32 9.651-9.652 9.651a9.651 9.651 0 0 1-9.65-9.65 9.652 9.652 0 0 1 19.303 0" fill="#3e6fbe"/><path d="M45.935 64.219c-4.287 0-7.776 3.489-7.776 7.776 0 4.288 3.489 7.777 7.776 7.777 4.288 0 7.777-3.489 7.777-7.777s-3.489-7.776-7.777-7.776zm0 19.303c-6.355 0-11.526-5.17-11.526-11.527 0-6.355 5.171-11.526 11.526-11.526 6.356 0 11.527 5.17 11.527 11.526S52.29 83.522 45.935 83.522" fill="#fff"/><path d="M69.413 71.995c0-5.33 4.32-9.652 9.651-9.652 5.33 0 9.652 4.321 9.652 9.652 0 5.33-4.321 9.651-9.652 9.651a9.651 9.651 0 0 1-9.651-9.65" fill="#3e6fbe"/><path d="M79.064 64.219c-4.287 0-7.776 3.489-7.776 7.776 0 4.288 3.489 7.777 7.776 7.777 4.288 0 7.777-3.489 7.777-7.777s-3.489-7.776-7.777-7.776zm0 19.303c-6.355 0-11.526-5.17-11.526-11.527 0-6.355 5.171-11.526 11.526-11.526 6.356 0 11.527 5.17 11.527 11.526S85.42 83.522 79.064 83.522" fill="#fff"/><path d="M65.555 70.12h10.599l-5-11.02-5.599 11.02zm-19.619 3.75a1.875 1.875 0 0 1-1.793-2.427l5.94-19.307a1.876 1.876 0 0 1 3.435-.352l8.916 16.202 7.145-14.064c.326-.642.965-1.06 1.713-1.025.72.016 1.368.444 1.665 1.1l7.815 17.223a1.877 1.877 0 0 1-1.708 2.65H62.537a1.993 1.993 0 0 1-.904-.213 1.863 1.863 0 0 1-.787-.78l-8.48-15.409-4.639 15.078a1.875 1.875 0 0 1-1.791 1.324" fill="#fff"/><path d="M65.555 70.12h10.599l-5-11.02-5.599 11.02zm16.42 3.75h-22.53l11.9-23.426 10.63 23.426" fill="#fff"/><path d="M71.252 56.647a1.88 1.88 0 0 1-.202-.011l-19.32-2.078c-.617-.034-3.715-.306-5.432-2.404-.633-.772-1.318-2.1-1.029-4.052.047-.553.32-2.469 1.879-3.765.79-.657 2.202-1.37 4.42-1.057a1.877 1.877 0 0 1 1.591 2.122 1.885 1.885 0 0 1-2.121 1.591c-.684-.098-1.18-.024-1.482.219-.4.323-.533.995-.548 1.205a4.321 4.321 0 0 1-.022.196c-.108.665.056.971.21 1.16.578.715 2.109 1.01 2.76 1.042l19.494 2.093a1.875 1.875 0 1 1-.198 3.74" fill="#fff"/><path d="M71.094 58.835a1.876 1.876 0 0 1-1.875-1.875v-6.016a1.876 1.876 0 0 1 3.75 0v6.016c0 1.034-.84 1.875-1.875 1.875" fill="#fff"/><path d="M65.23 71.995a2.73 2.73 0 1 1-5.46 0 2.73 2.73 0 0 1 5.46 0" fill="#3e6fbe"/><path d="M62.5 71.14a.855.855 0 1 0 .002 1.71.855.855 0 0 0-.002-1.71zm0 5.46a4.61 4.61 0 0 1-4.604-4.605A4.61 4.61 0 0 1 62.5 67.39a4.61 4.61 0 0 1 4.604 4.605 4.61 4.61 0 0 1-4.604 4.604M72.99 51.802h-6.065a1.876 1.876 0 0 1 0-3.75h6.065c.398-.022.398-.154.398-.415a1.875 1.875 0 0 1 3.75 0c0 3.034-2.545 4.165-4.148 4.165" fill="#fff"/></svg>