<svg xmlns="http://www.w3.org/2000/svg" viewBox="0 0 125 125" height="125" width="125"><path d="M84.225 98.735h-43.45c-6.296 0-11.4-5.104-11.4-11.4v-43.45c0-6.296 5.104-11.4 11.4-11.4h43.45c6.296 0 11.4 5.104 11.4 11.4v43.45c0 6.296-5.104 11.4-11.4 11.4" fill="#23446f"/><path d="M84.225 95.635h-43.45c-6.296 0-11.4-5.103-11.4-11.4v-43.45c0-6.296 5.104-11.4 11.4-11.4h43.45c6.296 0 11.4 5.104 11.4 11.4v43.45c0 6.297-5.104 11.4-11.4 11.4" fill="#3e6fbe"/><path d="M75 35.063h5V17.994h-5v17.067zM45 35.063h5V17.994h-5v17.067zM67.5 35.063h5V17.994h-5v17.067zM52.5 35.063h5V17.994h-5v17.067zM60 35.063h5V17.994h-5v17.067zM17.995 80h22.63v-5h-22.63v5zM17.995 57.5h22.63v-5h-22.63v5zM17.995 72.5h22.63v-5h-22.63v5zM17.995 65h22.63v-5h-22.63v5zM17.995 50h22.63v-5h-22.63v5zM45 107.005h5V87.354h-5v19.65zM75 107.005h5V87.354h-5v19.65zM52.5 107.005h5V87.354h-5v19.65zM67.5 107.005h5V87.354h-5v19.65zM60 107.005h5V87.354h-5v19.65zM87.084 72.5h19.921v-5H87.084v5zM87.084 50h19.921v-5H87.084v5zM87.084 65h19.921v-5H87.084v5zM87.084 57.5h19.921v-5H87.084v5zM87.084 80h19.921v-5H87.084v5z" fill="#3e6fbe"/><path d="M73.564 88.417H51.437a2.5 2.5 0 0 1-2.5-2.5V42.688a2.5 2.5 0 0 1 2.5-2.5h22.127a2.5 2.5 0 0 1 2.5 2.5v43.23a2.5 2.5 0 0 1-2.5 2.5" fill="#fff"/><path d="M71.862 54.147a9.362 9.362 0 1 1-18.725 0 9.362 9.362 0 0 1 18.725 0" fill="#fff"/><path d="M62.5 46.035c-4.473 0-8.112 3.64-8.112 8.112 0 4.472 3.64 8.111 8.112 8.111 4.473 0 8.112-3.639 8.112-8.111 0-4.473-3.64-8.112-8.112-8.112zm0 18.723c-5.851 0-10.612-4.76-10.612-10.611 0-5.851 4.76-10.612 10.612-10.612 5.851 0 10.612 4.76 10.612 10.612 0 5.85-4.76 10.611-10.612 10.611M66.112 71.784a3.612 3.612 0 1 1-7.224 0 3.612 3.612 0 0 1 7.224 0" fill="#3e6fbe"/><path d="M66.112 83.678h-7.225L61.88 70.95h1.242l2.991 12.727" fill="#3e6fbe"/></svg>