<svg xmlns="http://www.w3.org/2000/svg" viewBox="0 0 125 125" height="125" width="125"><path d="M77.395 31.137l-4.619 3.168-2.293-5.094c-3.526-7.797-11.341-12.83-19.915-12.83-5.838 0-11.314 2.266-15.426 6.382-4.135 4.122-6.406 9.639-6.406 15.477l.094 4.047-3.433.99c-5.573 1.601-10.067 8.742-10.067 13.58v1.74c0 5.88 7.122 12.718 16.305 12.718H93.37c9.178 0 16.3-6.838 16.3-12.718v-1.74c0-5.917-6.596-13.705-14.304-14.36l-4.136-.345-.135-4.126c-.154-4.717-4-8.43-8.75-8.43-1.777 0-3.493.531-4.95 1.54" fill="#23446f"/><path d="M77.395 27.387l-4.619 3.168-2.293-5.094c-3.526-7.797-11.341-12.83-19.915-12.83-5.838 0-11.314 2.266-15.426 6.382-4.135 4.122-6.406 9.639-6.406 15.477l.094 4.047-3.433.99c-5.573 1.601-10.067 8.742-10.067 13.58v1.74c0 5.88 7.122 12.718 16.305 12.718H93.37c9.178 0 16.3-6.838 16.3-12.718v-1.74c0-5.917-6.596-13.705-14.304-14.36l-4.136-.345-.135-4.126c-.154-4.717-4-8.43-8.75-8.43-1.777 0-3.493.531-4.95 1.54" fill="#3e6fbe"/><path d="M25.087 112.37h72.5V84.66h-72.5v27.71z" fill="#23446f"/><path d="M25.087 108.62h72.5V80.91h-72.5v27.71z" fill="#3e6fbe"/><path d="M39.878 100.494a6.042 6.042 0 0 1 0-12.084 6.042 6.042 0 0 1 0 12.084M69.045 100.494H53.42l7.813-12.083 7.812 12.083M76.545 100.494h12.083V88.411H76.545v12.083zM29.878 61.483h62.5V41.796h-62.5v19.687z" fill="#fff"/><path d="M39.878 57.577a6.042 6.042 0 0 1 0-12.083 6.042 6.042 0 0 1 0 12.083M69.045 57.577H53.42l7.813-12.083 7.812 12.083M76.545 57.577h12.083V45.494H76.545v12.083z" fill="#3e6fbe"/></svg>