<svg xmlns="http://www.w3.org/2000/svg" viewBox="0 0 125 125" height="125" width="125"><path d="M94.024 75.625H40.977V72.5l26.524-19.584L94.023 72.5v3.125M97.305 98.62h-46.93v-3.1l23.844-16.405L97.305 95.52v3.1" fill="#23446f"/><path d="M50.374 95.52h46.931V75.625h-46.93V95.52z" fill="#3e6fbe"/><path d="M52.67 78.82h3.338l2.364 9.919h.036l2.325-9.92h3.264v13.388H61.97V81.07h-.037l-2.7 11.137h-1.8l-2.7-11.137h-.038v11.137H52.67V78.82M72.058 88.513l.881.881c.3-.805.433-2.061.433-3.936 0-4.501-1.014-5.289-2.288-5.289-1.275 0-2.288.788-2.288 5.289 0 4.612 1.013 5.399 2.288 5.399.28 0 .525-.038.768-.13l-1.012-.995 1.218-1.219zm1.126 3.506c-.545.32-1.256.45-2.1.45-3.075 0-4.425-2.175-4.425-6.955 0-4.782 1.35-6.957 4.425-6.957 3.075 0 4.424 2.175 4.424 6.957 0 2.474-.45 4.331-1.05 5.305l1.37 1.444-1.276 1.144-1.368-1.388M80.365 80.62h-3.189v-1.8h8.456v1.8h-3.13v11.587h-2.137V80.62M89.814 80.62h-3.186v-1.8h8.455v1.8h-3.131v11.587h-2.138V80.62" fill="#fff"/><path d="M94.024 72.5V40.27c0-6.296-5.104-11.4-11.4-11.4h-43.45c-6.296 0-11.4 5.104-11.4 11.4v43.45c0 6.296 5.104 11.4 11.4 11.4h8.779V72.5h46.07" fill="#23446f"/><path d="M94.024 72.5V37.17c0-6.296-5.104-11.4-11.4-11.4h-43.45c-6.296 0-11.4 5.104-11.4 11.4v43.45c0 6.296 5.104 11.4 11.4 11.4h8.779V72.5h46.07" fill="#3e6fbe"/></svg>