<svg xmlns="http://www.w3.org/2000/svg" viewBox="0 0 125 125" height="125" width="125"><path d="M84.225 98.735h-43.45c-6.296 0-11.4-5.104-11.4-11.4v-43.45c0-6.296 5.104-11.4 11.4-11.4h43.45c6.296 0 11.4 5.104 11.4 11.4v43.45c0 6.296-5.104 11.4-11.4 11.4" fill="#23446f"/><path d="M84.225 95.635h-43.45c-6.296 0-11.4-5.103-11.4-11.4v-43.45c0-6.296 5.104-11.4 11.4-11.4h43.45c6.296 0 11.4 5.104 11.4 11.4v43.45c0 6.297-5.104 11.4-11.4 11.4" fill="#3e6fbe"/><path d="M75 35.063h5V17.994h-5v17.067zM45 35.063h5V17.994h-5v17.067zM67.5 35.063h5V17.994h-5v17.067zM52.5 35.063h5V17.994h-5v17.067zM60 35.063h5V17.994h-5v17.067zM17.995 80h22.63v-5h-22.63v5zM17.995 57.5h22.63v-5h-22.63v5zM17.995 72.5h22.63v-5h-22.63v5zM17.995 65h22.63v-5h-22.63v5zM17.995 50h22.63v-5h-22.63v5zM45 107.005h5V87.354h-5v19.65zM75 107.005h5V87.354h-5v19.65zM52.5 107.005h5V87.354h-5v19.65zM67.5 107.005h5V87.354h-5v19.65zM60 107.005h5V87.354h-5v19.65zM87.084 72.5h19.921v-5H87.084v5zM87.084 50h19.921v-5H87.084v5zM87.084 65h19.921v-5H87.084v5zM87.084 57.5h19.921v-5H87.084v5zM87.084 80h19.921v-5H87.084v5z" fill="#3e6fbe"/><path d="M88.522 55.924c3.85 14.371-4.678 29.144-19.05 32.995-14.37 3.85-29.143-4.678-32.994-19.05-3.851-14.371 4.678-29.143 19.05-32.995 14.37-3.85 29.143 4.679 32.994 19.05" fill="#fff"/><path d="M57.43 45.852a1.876 1.876 0 0 1-1.811-1.39l-.47-1.751a1.876 1.876 0 0 1 1.328-2.296 1.883 1.883 0 0 1 2.297 1.327l.468 1.75a1.877 1.877 0 0 1-1.813 2.36M67.57 45.852a1.876 1.876 0 0 1-1.813-2.36l.47-1.75a1.886 1.886 0 0 1 2.296-1.327 1.876 1.876 0 0 1 1.327 2.296l-.469 1.75a1.876 1.876 0 0 1-1.81 1.391M76.35 50.921a1.877 1.877 0 0 1-1.326-3.202l1.282-1.28a1.878 1.878 0 0 1 2.653.001c.731.734.731 1.92-.002 2.653l-1.281 1.28a1.873 1.873 0 0 1-1.326.548M48.65 50.92c-.48 0-.96-.183-1.326-.549l-1.28-1.28a1.873 1.873 0 0 1 0-2.651 1.873 1.873 0 0 1 2.651 0l1.28 1.28a1.874 1.874 0 0 1-1.325 3.2M68.386 78.939a5.885 5.885 0 1 1-11.77 0 5.885 5.885 0 0 1 11.77 0" fill="#3e6fbe"/><path d="M62.5 80.813a1.876 1.876 0 0 1-1.875-1.875V51.543a1.875 1.875 0 0 1 3.75 0v27.395c0 1.035-.84 1.875-1.875 1.875M59.079 52.793H56.96a.625.625 0 0 1 0-1.25h2.118a.625.625 0 1 1 0 1.25M59.079 56.139h-3.907a.624.624 0 1 1 0-1.25h3.907a.625.625 0 1 1 0 1.25M59.079 59.485H56.96a.625.625 0 1 1 0-1.25h2.118a.625.625 0 1 1 0 1.25M59.079 62.832h-3.907a.624.624 0 1 1 0-1.25h3.907a.625.625 0 1 1 0 1.25M59.079 66.178H56.96a.625.625 0 0 1 0-1.25h2.118a.625.625 0 1 1 0 1.25M59.079 69.524h-3.907a.625.625 0 1 1 0-1.25h3.907a.625.625 0 1 1 0 1.25M59.079 72.871H56.96a.625.625 0 0 1 0-1.25h2.118a.625.625 0 1 1 0 1.25" fill="#3e6fbe"/></svg>