<svg xmlns="http://www.w3.org/2000/svg" viewBox="0 0 125 125" height="125" width="125"><path d="M84.225 98.735h-43.45c-6.296 0-11.4-5.104-11.4-11.4v-43.45c0-6.296 5.104-11.4 11.4-11.4h43.45c6.296 0 11.4 5.104 11.4 11.4v43.45c0 6.296-5.104 11.4-11.4 11.4" fill="#23446f"/><path d="M84.225 95.635h-43.45c-6.296 0-11.4-5.103-11.4-11.4v-43.45c0-6.296 5.104-11.4 11.4-11.4h43.45c6.296 0 11.4 5.104 11.4 11.4v43.45c0 6.297-5.104 11.4-11.4 11.4" fill="#3e6fbe"/><path d="M75 35.063h5V17.994h-5v17.067zM45 35.063h5V17.994h-5v17.067zM67.5 35.063h5V17.994h-5v17.067zM52.5 35.063h5V17.994h-5v17.067zM60 35.063h5V17.994h-5v17.067zM17.995 80h22.63v-5h-22.63v5zM17.995 57.5h22.63v-5h-22.63v5zM17.995 72.5h22.63v-5h-22.63v5zM17.995 65h22.63v-5h-22.63v5zM17.995 50h22.63v-5h-22.63v5zM45 107.005h5V87.354h-5v19.65zM75 107.005h5V87.354h-5v19.65zM52.5 107.005h5V87.354h-5v19.65zM67.5 107.005h5V87.354h-5v19.65zM60 107.005h5V87.354h-5v19.65zM87.084 72.5h19.921v-5H87.084v5zM87.084 50h19.921v-5H87.084v5zM87.084 65h19.921v-5H87.084v5zM87.084 57.5h19.921v-5H87.084v5zM87.084 80h19.921v-5H87.084v5z" fill="#3e6fbe"/><path d="M73.09 73.283l-29.567-2.58a1.494 1.494 0 0 1-1.341-1.225L39.414 54.04a1.496 1.496 0 0 1 1.317-1.75l36.873-3.838a1.495 1.495 0 0 1 1.618 1.79l-4.538 21.855a1.495 1.495 0 0 1-1.593 1.185M48.821 86.314a3.874 3.874 0 1 1-7.749 0 3.874 3.874 0 0 1 7.75 0M81.644 86.314a3.874 3.874 0 1 1-7.749 0 3.874 3.874 0 0 1 7.749 0" fill="#fff"/><path d="M44.767 76.807a.624.624 0 0 1-.625-.625V48.445a.625.625 0 1 1 1.25 0v27.737c0 .345-.28.625-.625.625M51.076 76.807a.624.624 0 0 1-.625-.625V48.445a.625.625 0 1 1 1.25 0v27.737c0 .345-.28.625-.625.625M57.384 76.807a.625.625 0 0 1-.625-.625V48.445a.625.625 0 1 1 1.25 0v27.737c0 .345-.28.625-.625.625" fill="#3e6fbe"/><path d="M89.688 55.944H35.755a.625.625 0 1 1 0-1.25h53.931a.624.624 0 1 1 0 1.25M89.688 61.79H35.755a.625.625 0 1 1 0-1.25h53.931a.625.625 0 1 1 0 1.25M89.688 67.637H35.755a.625.625 0 1 1 0-1.25h53.931a.624.624 0 1 1 0 1.25" fill="#3e6fbe"/><path d="M63.691 76.807a.625.625 0 0 1-.625-.625V48.445a.625.625 0 1 1 1.25 0v27.737c0 .345-.279.625-.625.625M70 76.074a.625.625 0 0 1-.625-.625V48.498a.624.624 0 1 1 1.25 0v26.951c0 .345-.28.625-.625.625" fill="#3e6fbe"/><path d="M79.061 81.282H43.434a1.875 1.875 0 0 1 0-3.75h31.877l-3.862-5.15a1.877 1.877 0 0 1-.336-1.506l6.389-30.765c.13-.626.57-1.143 1.167-1.37l7.225-2.759a1.876 1.876 0 0 1 1.338 3.504l-6.268 2.392-6.007 28.932 5.605 7.471a1.876 1.876 0 1 1-1.5 3" fill="#fff"/><path d="M73.783 74.39l-30.372-1.815c-1.561-.136-2.806-1.271-3.075-2.765l-2.768-15.438a3.384 3.384 0 0 1 .627-2.623 3.38 3.38 0 0 1 2.344-1.323l36.87-3.838.389 3.73-36.466 3.796 2.643 14.738 30.033 1.795-.225 3.743" fill="#fff"/></svg>