<svg xmlns="http://www.w3.org/2000/svg" viewBox="0 0 125 125" height="125" width="125"><path d="M62.154 67.298l-5.714-.279-36.452 1.51 5.45 26.74 36.716-27.971M104.78 68.616l-6.972-.303-12.722 1.092 7.525 29.369 12.17-30.158" fill="#cfaac2"/><path d="M104.78 56.453l-42.187 1.763-42.422-1.763L62.5 11.047l42.28 45.406" fill="#4a223d"/><path d="M62.154 67.298l-36.716 1.778V95.27l36.716-8.567V67.298" fill="#ab548b"/><path d="M84.855 67.637l-8.037-.34-44.88 2.43 7.732 32.718 45.185-34.808" fill="#cfaac2"/><path d="M104.78 56.453L62.5 52.21V11.047l42.28 21.21v24.196" fill="#ab548b"/><path d="M20.171 56.453L62.5 52.21V11.047l-42.329 21.21v24.196M25.438 69.076l-5.45-.546v23.985l5.45 2.754V69.076" fill="#622652"/><path d="M84.855 88.433L39.67 102.445V70.52l45.185-2.884v20.796" fill="#ab548b"/><path d="M31.939 69.726l7.731.795v31.924l-7.732-3.898v-28.82" fill="#622652"/><path d="M104.78 68.616V92.64l-12.169 6.134V69.832l12.17-1.216" fill="#ab548b"/><path d="M85.086 96.459l7.525 2.315V69.832l-7.525-.427v27.054" fill="#622652"/><path d="M84.855 70.61l-12.673-.837-22.34 1.743L62.5 113.953 84.855 70.61" fill="#cfaac2"/><path d="M84.855 70.61v32.074L62.5 113.954V72.878l22.355-2.27" fill="#ab548b"/><path d="M49.841 71.516L62.5 72.879v41.074l-12.659-6.381V71.516" fill="#622652"/></svg>