<svg xmlns="http://www.w3.org/2000/svg" viewBox="0 0 125 125" height="125" width="125"><path d="M52.744 97.267l-8.855-2.482-8.374-9.55 9.337.774 7.892 11.258" fill="#824077"/><path d="M52.744 97.267l6.343-13.28-5.927-.834-8.308 2.856 7.892 11.258" fill="#ab548b"/><path d="M32.268 90.97l-4.983-1.397L21.8 83.31l5.821.916 4.648 6.744" fill="#824077"/><path d="M32.268 90.97l3.564-7.468-3.333-.472-4.879 1.195 4.648 6.744" fill="#ab548b"/><path d="M19.622 83.527l5.094 1.035 24.918-21.671-24.918-24.283-5.094 2.572v42.347" fill="#622652"/><path d="M44.389 42.891v39.843l-19.672 1.829V38.608l19.672 4.283" fill="#ab548b"/><path d="M30.998 85.911l8.73 1.758 24.1-27.903-24.1-28.737-8.73 4.407V85.91" fill="#622652"/><path d="M89.544 46.847V81.26l-49.816 6.41V31.03l49.816 15.817" fill="#ab548b"/><path d="M80.533 105.46l-12.584-3.526-11.895-13.567L69.32 89.47l11.213 15.991" fill="#824077"/><path d="M80.533 105.46l9.011-18.862-8.422-1.192-11.802 4.063 11.213 15.991" fill="#ab548b"/><path d="M49.634 89.534l12.84 2.484L79.882 55.78 62.473 19.54l-12.84 6.484v63.51" fill="#622652"/><path d="M62.475 92.019l42.902-8.595V40.99L62.475 19.54v72.479" fill="#ab548b"/></svg>