<svg xmlns="http://www.w3.org/2000/svg" viewBox="0 0 125 125" height="125" width="125"><path d="M12.327 46.265L93.864 26.91l-.035 17.255-71.487 4.317-10.015-2.217" fill="#4a223d"/><path d="M53.357 69.7l51.225 23.212 8.061-18.28-49.569-6.15-9.717 1.217" fill="#cfaac2"/><path d="M53.357 69.7l51.225 7.464v15.748L53.357 80.501V69.699" fill="#622652"/><path d="M36.223 71.846l52.024 29.246 11.234-22.518-51.482-8.203-11.776 1.475" fill="#cfaac2"/><path d="M99.481 78.574l-11.234 3.4v19.118l11.234-5.627v-16.89M112.643 74.633l-8.061 2.531v15.748l8.061-4.037V74.633" fill="#ab548b"/><path d="M36.223 71.846l52.024 10.128v19.118l-52.024-16.91V71.846" fill="#622652"/><path d="M12.327 74.633L62.5 113.982l18.02-29.754-52.225-11.577-15.968 1.982" fill="#cfaac2"/><path d="M12.327 32.28l65.265-15.589-.065-5.644-63.585 19.77-1.615 1.463M89.546 27.606l23.127-4.021v-5.7l-23.127 4.79v4.93" fill="#824077"/><path d="M112.673 53.373H62.5l-44.688 6.002L62.5 77.282l50.173-9.892V53.372" fill="#ab548b"/><path d="M12.327 53.373H62.5v23.909l-50.173-9.91v-14M12.327 46.265L62.5 41.418l20.898-16.965L62.5 17.347 12.327 32.28v13.985" fill="#622652"/><path d="M80.52 84.257L62.5 89.652v24.33l18.02-9.016V84.257" fill="#ab548b"/><path d="M12.327 74.633L62.5 89.653v24.329l-50.173-25.11v-14.24" fill="#622652"/><path d="M62.5 41.418v-24.07l15.027-6.301 16.302 15.185 18.844-8.347V32.21L93.83 44.165l-16.464-12.44L62.5 41.418" fill="#ab548b"/></svg>