<svg xmlns="http://www.w3.org/2000/svg" viewBox="0 0 125 125" height="125" width="125"><defs><clipPath id="a"><path d="M417.5 668.508l-141.562-4.602c0 17.481-3.497 34.141-9.688 49.551v24.883c3.094-7.684 130.625-32.332 130.625-32.332l20.625-37.5z"/></clipPath></defs><path d="M16.184 97.51h102.361V80.043H16.185V97.51zM16.184 75.823h102.361V59.939H16.185v15.884zM118.545 51.492v3.112h-89.92v-3.112l51.791-16.97 38.129 16.97M52.188 41.436l-17.696.576c0-2.185-.437-4.268-1.21-6.194v-3.11c.386.96 16.327 4.041 16.327 4.041l2.578 4.687" fill="#622652"/><g clip-path="url(#a)" transform="matrix(.13 0 0 -.13 0 125)"><path d="M275.938 688.848v-24.942c0 17.481-3.497 34.141-9.688 49.551v24.883c6.191-15.371 9.688-32.051 9.688-49.492" fill="#622652"/></g><path d="M118.545 32.707v18.785h-89.92c3.59-3.033 5.867-7.542 5.867-12.598 0-2.18-.437-4.265-1.21-6.186h85.263M16.184 72.71h102.361V57.056H16.185V72.71zM16.184 94.397h102.361V78.743H16.185v15.654z" fill="#ab548b"/><path d="M29.531 42.129c0 6.372-5.165 11.538-11.538 11.538-6.372 0-11.538-5.166-11.538-11.538v-3.1l11.538-8.438 11.538 8.437v3.1" fill="#8a181d"/><path d="M29.531 39.028c0 6.372-5.165 11.538-11.538 11.538-6.372 0-11.538-5.166-11.538-11.538S11.621 27.49 17.993 27.49c6.373 0 11.538 5.166 11.538 11.538" fill="#ea1f28"/><path d="M19.512 69.41h95.718v-9.046H19.511v9.045zM19.512 91.092h95.718v-9.045H19.511v9.045zM54.456 36.49h2.607v4.916h3.05V36.49h2.61v12.854h-2.61v-5.705h-3.05v5.705h-2.607V36.49M72.112 36.49v2.123h-2.827v10.73h-2.61v-10.73h-2.827V36.49h8.264M80.818 36.49v2.123h-2.83v10.73h-2.607v-10.73h-2.83V36.49h8.267M84.556 42.305h1.16c1.035 0 1.74-.615 1.74-1.927 0-1.26-.505-1.977-1.812-1.977h-1.088v3.904zm-2.608-5.816h4.568c2.644 0 3.55 1.929 3.55 3.855 0 2.664-1.648 3.87-4.114 3.87h-1.396v5.13h-2.608V36.488" fill="#fff"/></svg>