<svg xmlns="http://www.w3.org/2000/svg" viewBox="0 0 125 125" height="125" width="125"><path d="M47.273 73.263L62.5 75.13l14.063-11.537L62.5 49.856l-15.227 1.872v21.535M89.374 31.028l8.642-2.202 6.359 26.947-6.359 35.53-8.642-1.263V31.028" fill="#622652"/><path d="M98.016 88.802l7.1 3.843V32.376l-7.1-3.55v59.976" fill="#ab548b"/><path d="M89.374 81.46l8.642 1.261L62.5 113.953l-9.498-23.427 36.372-9.066" fill="#cfaac2"/><path d="M35.626 93.972l-8.642 2.202-4.9-61.33 13.542 2.135v56.993" fill="#ab548b"/><path d="M35.626 43.54l-8.642-1.261L62.5 11.047l9.499 23.427-36.373 9.066" fill="#4a223d"/><path d="M71.999 90.526l-23.003-5.733-9.18 1.757 22.73 26.419 9.453-22.443" fill="#cfaac2"/><path d="M53.002 34.474l9.459-23.406L85.184 38.45l-9.186 1.76-22.997-5.736" fill="#4a223d"/><path d="M77.727 73.263L62.5 75.13V49.856l15.227 1.873v21.534M105.116 92.645L62.5 113.953V93.376l37.86-11.358 2.572.757 2.184 9.87" fill="#ab548b"/><path d="M39.816 86.55L62.5 93.355v20.577L39.816 102.59V86.55" fill="#622652"/><path d="M85.184 38.45L62.5 31.645V11.068L85.184 22.41v16.04" fill="#ab548b"/><path d="M19.884 32.355L62.5 11.047v20.577L19.884 44.409V32.355" fill="#622652"/><path d="M26.984 36.927l-7.1-4.572v60.269l7.1 3.55V36.927" fill="#622652"/></svg>