<svg xmlns="http://www.w3.org/2000/svg" viewBox="0 0 125 125" height="125" width="125"><path d="M37.438 91.274l-14.313-3.54V38.23l14.313-2.774v55.82" fill="#689f2e"/><path d="M25.68 82.216l37.178 27.576v-22.85l-25.42-6.379-11.757 1.653" fill="#b2ce8f"/><path d="M87.563 86.942l14.078.792.39-46.64-14.468-4.61v50.458" fill="#435e24"/><path d="M62.858 38.509l-25.42 5.925-11.757-1.651 37.177-26.845v22.57" fill="#364426"/><path d="M99.32 82.216l-37.176 25.909V86.942l25.418-6.379 11.759 1.653" fill="#b2ce8f"/><path d="M62.144 38.509l25.419 5.925 11.758-1.651L62.5 14.843l-.356 23.666" fill="#364426"/><path d="M50.106 89.546l-24.425-7.33V42.783l24.425-7.328v54.09zM62.45 11.048L20.234 32.356l.02 60.3 42.196 21.296 10.753-50.748L62.45 11.048" fill="#435e24"/><path d="M74.895 35.455l24.426 7.328v39.433l-24.426 7.33v-54.09zM62.45 113.952l42.297-21.296.019-60.3L62.45 11.048v102.904" fill="#689f2e"/></svg>