<svg xmlns="http://www.w3.org/2000/svg" viewBox="0 0 90 90" height="90" width="90"><path d="M0 22.5h22.5v-5H0v5zM33.75 22.5h22.5v-5h-22.5v5z" fill="#435e24"/><path d="M0 19.4h22.5V0H0v19.4z" fill="#689f2e"/><path d="M67.5 22.5H90v-5H67.5v5zM0 56.25h22.5v-5H0v5zM33.75 56.25h22.5v-5h-22.5v5zM67.5 56.25H90v-5H67.5v5zM0 90h22.5v-5H0v5zM33.75 90h22.5v-5h-22.5v5zM67.5 90H90v-5H67.5v5z" fill="#435e24"/><path d="M33.75 19.4h22.5V0h-22.5v19.4zM67.5 19.4H90V0H67.5v19.4zM0 53.15h22.5v-19.4H0v19.4zM33.75 53.15h22.5v-19.4h-22.5v19.4zM67.5 53.15H90v-19.4H67.5v19.4zM0 86.9h22.5V67.5H0v19.4zM33.75 86.9h22.5V67.5h-22.5v19.4zM67.5 86.9H90V67.5H67.5v19.4z" fill="#689f2e"/></svg>