<svg xmlns="http://www.w3.org/2000/svg" viewBox="0 0 125 125" height="125" width="125"><path d="M32.013 56.706l-2.784.222-9.343-.383 2.582-12.911 9.545 13.072" fill="#364426"/><path d="M32.013 68.706l-2.784-.224-9.343.383 2.582 12.912 9.545-13.071" fill="#b2ce8f"/><path d="M22.468 69.12l-2.582-.255v12.137l2.582.775V69.12" fill="#435e24"/><path d="M32.013 80.529l-9.545 1.248V69.133l9.545-.427v11.823" fill="#689f2e"/><path d="M49.523 69.7l-7.676-.58-13.43.675 7.192 23.103 13.913-23.199" fill="#b2ce8f"/><path d="M22.468 56.291l-2.582.254V44.41l2.582-.776V56.29" fill="#435e24"/><path d="M32.013 44.883l-9.545-1.25V56.28l9.545.426V44.883" fill="#689f2e"/><path d="M49.523 55.712l-7.676.58-13.43-.676 7.192-23.065 13.913 23.161" fill="#364426"/><path d="M28.417 35l7.19-2.449.002 22.346-7.192.72V34.998" fill="#435e24"/><path d="M49.523 35.575L35.608 32.55l.001 22.346 13.913.815V35.575" fill="#689f2e"/><path d="M28.417 90.23l7.19 2.668V70.514l-7.19-.719V90.23" fill="#435e24"/><path d="M49.523 90.016l-13.915 2.882V70.514l13.915-.815v20.317" fill="#689f2e"/><path d="M44.48 104.948l18.007 9.005 42.2-51.453-42.2-51.453L44.48 20.05v84.897" fill="#435e24"/><path d="M105.114 92.64l-42.627 21.313V11.047l42.627 21.311V92.64" fill="#689f2e"/></svg>