<svg xmlns="http://www.w3.org/2000/svg" viewBox="0 0 125 125" height="125" width="125"><path d="M25.25 57.25l7.5-.783 9.334 9.679-9.334 8.229-7.5-1.5V57.25" fill="#435e24"/><path d="M78.25 47.625L62.5 49.75l-15.75-2.125L62.5 17.5l15.75 30.125" fill="#364426"/><path d="M82.25 73.375l10 1 5.875-8.955-5.875-8.954-10 .409v16.5" fill="#435e24"/><path d="M78.25 47.625l-15.75-3.25V17.5l15.75 7.875v22.25M99.75 57.25l-7.5-.784v17.909l7.5-1.5V57.25M42.75 73.375l-10 1V56.467l10 .408v16.5" fill="#689f2e"/><path d="M46.75 47.625l15.75-3.25V17.5l-15.75 7.875v22.25M38.875 95.75L62.5 107.5l20.938-27.916L62.5 53.374l-23.625 2.457V95.75" fill="#435e24"/><path d="M86.125 95.75L62.5 107.5V53.375l23.625 2.457V95.75" fill="#689f2e"/></svg>