<svg xmlns="http://www.w3.org/2000/svg" viewBox="0 0 125 125" height="125" width="125"><path d="M34.656 86.588h13.386v-33.05H34.656v33.05zM55.807 86.588h13.386V59.972H55.807v26.616zM32.222 98.905h60.556V91.83H32.222v7.075zM76.958 49.557v37.03h13.386v-37.03a13.919 13.919 0 0 1-6.693 1.704 13.92 13.92 0 0 1-6.693-1.704" fill="#435e24"/><path d="M34.656 83.488h13.386v-33.05H34.656v33.05zM55.807 83.488h13.386V56.872H55.807v26.616zM32.222 95.805h60.556v-7.076H32.222v7.076zM76.958 46.457v37.03h13.386v-37.03a13.924 13.924 0 0 1-6.693 1.704c-2.425 0-4.705-.618-6.693-1.703" fill="#689f2e"/><path d="M91.73 37.273a8.079 8.079 0 1 1-16.158 0v-3.1l8.08-4.978 8.078 4.979v3.1" fill="#8a181d"/><path d="M91.73 34.174a8.079 8.079 0 1 1-16.157 0 8.079 8.079 0 0 1 16.157 0" fill="#ea1f28"/></svg>