<svg xmlns="http://www.w3.org/2000/svg" viewBox="0 0 125 125" height="125" width="125"><path d="M107.978 81.859L62.515 75.18l-45.493 6.687 45.465 32.085 45.49-32.094" fill="#b2ce8f"/><path d="M26.125 81.08l7.685 2.306L51.875 55.69 33.81 27.994l-7.684 2.94V81.08" fill="#435e24"/><path d="M61.019 78.703l-27.209 4.78V27.995l27.209 6.118v44.59" fill="#689f2e"/><path d="M48.887 88.02l-10.605-3.183V16.351l10.605-5.303 31.425 40.514L48.888 88.02" fill="#435e24"/><path d="M85.227 79.581l-36.34 8.525v-77.06l36.34 14.165v54.37" fill="#689f2e"/><path d="M62.487 97.993L17.022 81.868v9.352l45.465 22.733v-15.96" fill="#435e24"/><path d="M107.978 91.21l-45.49 22.743v-15.96l45.49-16.134v9.35" fill="#689f2e"/><path d="M95.201 66.363H84.178l-31.425 2.141 9.743 23.597L95.2 66.363" fill="#b2ce8f"/><path d="M52.753 89.178l9.743 2.923-.009-22.545-9.734-1.052v20.674" fill="#435e24"/><path d="M95.201 66.363l-32.714 3.191.009 22.547L95.2 82.255V66.363" fill="#689f2e"/></svg>