<svg xmlns="http://www.w3.org/2000/svg" viewBox="0 0 125 125" height="125" width="125"><path d="M88.584 50.494l11.273-15.65 5.268 15.65-10.826.893-5.715-.893" fill="#364426"/><path d="M87.708 74.506l12.214 4.478 5.203-4.478-11.355-.937-6.062.937" fill="#b2ce8f"/><path d="M72.784 76.76l12.06 2.406 9.75-2.406-12.797-1.367-9.013 1.367" fill="#b2ce8f"/><path d="M80.56 49.278l12.594-1.376v29.02L80.56 75.415V49.278" fill="#435e24"/><path d="M74.043 47.841l12.889-1.674 8.286 1.674-12.46 1.362-8.715-1.362" fill="#364426"/><path d="M99.68 42.782l-6.526-1.958v43.352l6.526-1.958V42.782" fill="#689f2e"/><path d="M36.416 50.494l-8.27-9.205-8.271 9.205 10.826.893 5.715-.893" fill="#364426"/><path d="M37.292 74.506l-11.844 8.267-5.573-8.267 11.355-.937 6.062.937" fill="#b2ce8f"/><path d="M52.216 76.76l-11.552 4.373-10.259-4.373 12.798-1.367 9.013 1.367" fill="#b2ce8f"/><path d="M44.44 49.278L29.9 47.902l1.946 29.034 12.594-1.521V49.278" fill="#689f2e"/><path d="M51.075 47.902l-12.889-1.674-8.286 1.674 12.46 1.362 8.715-1.362" fill="#364426"/><path d="M62.57 88.541l-15.982-3.15.678-46.589 15.305.443v49.297" fill="#689f2e"/><path d="M39.811 86.565l9.939 2.982V35.453l-9.939 2.982v48.13M62.5 83.926l14.785-.938-.469-39.687-14.316.879v39.746M25.32 42.782l6.526-1.958v43.352l-6.526-1.958V42.782" fill="#435e24"/><path d="M62.5 11.047L19.875 32.359v18.135L62.5 41.84V11.047" fill="#435e24"/><path d="M75.25 44.429L62.5 46.398l-12.75-1.97L62.5 41.84l12.75 2.589" fill="#364426"/><path d="M75.348 80.552L62.5 78.398 49.75 80.571l12.75 33.382 12.848-33.401" fill="#b2ce8f"/><path d="M19.875 74.506l42.626 8.654-.001 30.793-42.625-21.312V74.506" fill="#435e24"/><path d="M105.125 74.506L62.501 83.16l-.001 30.793 42.625-21.312V74.506" fill="#689f2e"/><path d="M85.287 86.565l-9.94 2.982V35.453l9.94 2.982v48.13" fill="#689f2e"/><path d="M62.5 11.047l42.625 21.312v18.135L62.5 41.84V11.047" fill="#689f2e"/></svg>