<svg xmlns="http://www.w3.org/2000/svg" viewBox="0 0 125 125" height="125" width="125"><path d="M21.875 50.3h81.25V32.8h-81.25v17.5zM21.875 72.8H60V55.3H21.875v17.5zM64.832 72.8h38.125V55.3H64.832v17.5zM21.875 95.3h23.75V77.8h-23.75v17.5zM50.625 95.3h23.75V77.8h-23.75v17.5zM79.375 95.3h23.75V77.8h-23.75v17.5z" fill="#435e24"/><path d="M21.875 47.2h81.25V29.7h-81.25v17.5zM21.875 69.7H60V52.2H21.875v17.5zM64.832 69.7h38.125V52.2H64.832v17.5zM21.875 92.2h23.75V74.7h-23.75v17.5zM50.625 92.2h23.75V74.7h-23.75v17.5zM79.375 92.2h23.75V74.7h-23.75v17.5z" fill="#689f2e"/></svg>