<svg xmlns="http://www.w3.org/2000/svg" viewBox="0 0 75 88.8125" height="88.813" width="75"><path d="M53.571 40.598H21.43V23.461c0-5.328 4.32-9.647 9.648-9.647h12.846c5.327 0 9.647 4.32 9.647 9.647v17.137h.001zm10.715 0V19.17c0-8.877-7.194-16.07-16.072-16.07H26.786c-8.878 0-16.072 7.193-16.072 16.07V40.6H0v48.214h75V40.597H64.286" fill="#435e24"/><path d="M53.571 37.498H21.43V20.361c0-5.327 4.32-9.647 9.648-9.647h12.846c5.327 0 9.647 4.321 9.647 9.647v17.137h.001zm10.715 0V16.07c0-8.878-7.194-16.072-16.072-16.072H26.786c-8.878 0-16.072 7.194-16.072 16.072v21.428H0v48.215h75V37.498H64.286" fill="#689f2e"/></svg>