<svg xmlns="http://www.w3.org/2000/svg" viewBox="0 0 125 125" height="125" width="125"><path d="M74.363 68.769l-11.824-.73-37.268 2.391 10.513 23.743 38.58-25.404" fill="#fab582"/><path d="M35.64 30.88l-10.369 5.235v26.36h10.37l14.672-13.309L35.64 30.88" fill="#99441f"/><path d="M74.363 68.769l-38.579 3.21v22.194l38.58-10.503V68.769M54.441 62.475h-18.8V30.88l18.8 5.086v26.51" fill="#f47327"/><path d="M81.467 62.459l13.502.016V36.562l-13.502 2.234v23.662" fill="#99441f"/><path d="M55.032 41.415L67.188 29.22l27.78 16.011-13.501 1.9-26.435-5.715" fill="#653219"/><path d="M42.608 62.475h19.844l10.413-20.809-10.413-24.19-19.844 9.92v35.08" fill="#99441f"/><path d="M62.452 17.475v45h11.15V38.821l21.367 6.41v17.244h4.76V36.114L62.453 17.475" fill="#f47327"/><path d="M25.271 70.43l10.513 1.55v22.193L25.272 88.93v-18.5" fill="#99441f"/><path d="M99.73 70.335l-17.925-1.107-39.197 3.797 19.844 34.45 37.278-37.14" fill="#fab582"/><path d="M99.73 70.335l-37.278 5.584v31.556l37.278-18.64v-18.5" fill="#f47327"/><path d="M42.608 73.025l19.844 2.893v31.557l-19.844-9.898V73.025" fill="#99441f"/></svg>