<svg xmlns="http://www.w3.org/2000/svg" viewBox="0 0 125 125" height="125" width="125"><path d="M100.538 64.063c0 21.007-17.03 38.037-38.038 38.037-21.007 0-38.038-17.03-38.038-38.038 0-21.007 17.03-38.037 38.038-38.037 21.007 0 38.038 17.03 38.038 38.038" fill="#99441f"/><path d="M100.538 60.937c0 21.008-17.03 38.038-38.038 38.038-21.007 0-38.038-17.03-38.038-38.038C24.462 39.93 41.492 22.9 62.5 22.9c21.007 0 38.038 17.03 38.038 38.037" fill="#f47327"/><path d="M42.759 46.849c.281 12.853 3.785 23.534 10.176 30.97C56.944 82.481 61 84.6 62.5 85.274c1.501-.675 5.558-2.796 9.564-7.466 6.397-7.456 9.901-18.174 10.179-31.074-1.92-.26-4.88-.919-6.53-2.568-1.862-1.862-2.619-4.466-2.916-5.992-1.933-.61-6.297-1.83-10.296-1.83-4.185 0-8.416 1.205-10.291 1.815-.292 1.534-1.042 4.17-2.891 6.02-1.766 1.765-4.662 2.424-6.56 2.67zM62.5 89.203l-.6-.207c-.239-.083-5.926-2.1-11.582-8.59-3.284-3.768-5.896-8.285-7.765-13.428-2.312-6.362-3.485-13.704-3.485-21.82v-1.803l1.804-.032c1.62-.034 4.645-.537 5.849-1.74 1.717-1.718 2-4.9 2.003-4.932l.087-1.162 1.088-.416c.257-.097 6.356-2.402 12.601-2.402 5.968 0 12.31 2.295 12.576 2.393l1.112.407.088 1.18c.003.026.276 3.161 2.034 4.919 1.123 1.123 4.432 1.603 5.858 1.66l1.764.07v1.764c0 8.138-1.173 15.496-3.485 21.873-1.868 5.154-4.48 9.681-7.764 13.456-5.656 6.502-11.344 8.52-11.583 8.603l-.6.207" fill="#fff"/><path d="M73.836 59.19c-2.25 2.257-9.107 7.039-11.726 9.666v-7.518H31.827v-4.476h30.225V49.48c2.48 2.483 9.35 7.275 11.784 9.712" fill="#fff"/></svg>