<svg xmlns="http://www.w3.org/2000/svg" viewBox="0 0 125 125" height="125" width="125"><path d="M20.665 46.976h83.67V26.42h-83.67v20.556z" fill="#99441f"/><path d="M20.665 43.877h83.67V23.882h-83.67v19.995z" fill="#f47327"/><path d="M20.665 74.543h83.67V53.096h-83.67v21.447z" fill="#99441f"/><path d="M20.665 71.453h83.67V51.457h-83.67v19.996z" fill="#f47327"/><path d="M20.665 100.946h83.67V80.172h-83.67v20.774z" fill="#99441f"/><path d="M20.665 97.85h83.67V77.853h-83.67v19.995z" fill="#f47327"/><path d="M94.846 40.107c-2.296 0-3.575-1.48-3.575-6.215 0-4.732 1.279-6.214 3.575-6.214 2.294 0 3.575 1.482 3.575 6.214 0 4.736-1.281 6.215-3.575 6.215zm-5.614-.241H87.31v-2.27h1.92v2.27zm-7.531.241c-2.296 0-3.577-1.48-3.577-6.215 0-4.732 1.281-6.214 3.577-6.214 2.292 0 3.573 1.482 3.573 6.214 0 4.736-1.281 6.215-3.573 6.215zm-5.614-.241h-1.922v-2.27h1.922v2.27zm-7.57.241c-3.019 0-3.593-2.34-3.593-5.834 0-3.65.66-6.595 3.813-6.595 2.094 0 3.221.965 3.221 2.962h-1.923c0-.705-.32-1.582-1.282-1.582-1.803 0-1.905 2.425-1.905 4.199l.052.034C67.37 32.415 68.18 32 69.225 32c1.637 0 2.951 1.206 2.951 3.631 0 2.807-1.129 4.476-3.659 4.476zm-7.196-.241h-1.922v-8.848h-2.48v-1.276h.187c1.147 0 2.478-.27 2.817-1.824v-.24h1.398v12.188zm-6.98 0h-1.92v-2.27h1.92v2.27zm-4.04 0H43.32c0-5.301 5.009-5.181 5.009-8.968 0-1-.423-1.84-1.486-1.84-1.434 0-1.668 1.307-1.668 2.548h-1.823c0-2.429.98-3.928 3.525-3.928 2.446 0 3.374 1.482 3.374 3.253 0 4.047-3.882 4.306-4.79 7.282h4.841v1.653zM41.755 29.47c-1.871 2.493-3.49 6.73-3.76 10.395H35.97c.27-3.633 2.023-7.693 3.928-10.19H34.67v-1.758h7.085v1.553zM30.98 39.866h-1.92v-8.848h-2.48v-1.276h.187c1.147 0 2.48-.27 2.816-1.824v-.24h1.398v12.188M26.58 57.339h.187c1.147 0 2.48-.276 2.816-1.825v-.24h1.398V67.46h-1.922v-8.85h-2.48V57.34zm8.09-1.825h7.085v1.549c-1.871 2.495-3.49 6.732-3.76 10.398H35.97c.27-3.633 2.023-7.695 3.928-10.193H34.67v-1.754zm12.172 1.135c-1.434 0-1.668 1.309-1.668 2.55h-1.823c0-2.427.98-3.926 3.525-3.926 2.446 0 3.374 1.48 3.374 3.252 0 4.046-3.882 4.305-4.79 7.28h4.841v1.656H43.32c0-5.303 5.009-5.18 5.009-8.97 0-.998-.423-1.842-1.486-1.842zm5.578 8.539h1.922v2.273H52.42v-2.273zm4.5-7.85h.186c1.147 0 2.478-.275 2.817-1.824v-.24h1.398V67.46h-1.923v-8.85H56.92V57.34zm11.817-2.065c2.094 0 3.221.965 3.221 2.962h-1.923c0-.706-.32-1.586-1.282-1.586-1.803 0-1.905 2.428-1.905 4.2l.052.037c.47-.879 1.279-1.291 2.325-1.291 1.637 0 2.951 1.203 2.951 3.632 0 2.806-1.129 4.476-3.659 4.476-3.019 0-3.593-2.343-3.593-5.836 0-3.65.66-6.594 3.813-6.594zm5.428 9.915h1.922v2.273h-1.922v-2.273zm4.499-7.85h.186c1.147 0 2.48-.275 2.819-1.824v-.24h1.396V67.46h-1.922v-8.85h-2.48V57.34zm8.646 7.85h1.922v2.273H87.31v-2.273zm7.536-9.915c2.294 0 3.575 1.48 3.575 6.216 0 4.732-1.281 6.214-3.575 6.214-2.296 0-3.575-1.482-3.575-6.214 0-4.736 1.279-6.216 3.575-6.216M26.58 83.748h.187c1.147 0 2.48-.275 2.816-1.824v-.242h1.398V93.87h-1.922v-8.85h-2.48v-1.272zm8.09-1.824h7.085v1.549c-1.871 2.494-3.49 6.73-3.76 10.397H35.97c.27-3.632 2.023-7.695 3.928-10.192H34.67v-1.754zm12.172 1.135c-1.434 0-1.668 1.309-1.668 2.548h-1.823c0-2.428.98-3.925 3.525-3.925 2.446 0 3.374 1.481 3.374 3.254 0 4.043-3.882 4.302-4.79 7.28h4.841v1.654H43.32c0-5.302 5.009-5.184 5.009-8.97 0-.996-.423-1.84-1.486-1.84zm5.578 8.538h1.922v2.273H52.42v-2.273zm4.5-7.85h.186c1.147 0 2.478-.274 2.817-1.823v-.242h1.398V93.87h-1.923v-8.85H56.92v-1.273zm11.817-2.065c2.094 0 3.221.964 3.221 2.96h-1.923c0-.707-.32-1.583-1.282-1.583-1.803 0-1.905 2.427-1.905 4.2l.052.036c.47-.879 1.279-1.293 2.325-1.293 1.637 0 2.951 1.207 2.951 3.632 0 2.807-1.129 4.477-3.659 4.477-3.019 0-3.593-2.343-3.593-5.837 0-3.649.66-6.592 3.813-6.592zm5.428 9.915h1.922v2.273h-1.922v-2.273zm7.567-8.538c-1.432 0-1.667 1.309-1.667 2.548h-1.822c0-2.428.977-3.925 3.524-3.925 2.443 0 3.372 1.481 3.372 3.254 0 4.043-3.878 4.302-4.791 7.28h4.843v1.654h-6.983c0-5.302 5.008-5.184 5.008-8.97 0-.996-.42-1.84-1.484-1.84zm5.578 8.538h1.922v2.273H87.31v-2.273zm7.536-9.915c2.294 0 3.575 1.481 3.575 6.213 0 4.734-1.281 6.216-3.575 6.216-2.296 0-3.575-1.482-3.575-6.216 0-4.732 1.279-6.213 3.575-6.213" fill="#fff"/><path d="M81.7 29.236c-1.317 0-1.652 1.291-1.652 4.836 0 3.546.335 4.837 1.653 4.837 1.316 0 1.65-1.29 1.65-4.837 0-3.545-.334-4.836-1.65-4.836M94.846 29.236c-1.316 0-1.654 1.291-1.654 4.836 0 3.546.338 4.837 1.654 4.837 1.315 0 1.653-1.29 1.653-4.837 0-3.545-.338-4.836-1.653-4.836M94.846 66.504c1.315 0 1.653-1.292 1.653-4.837 0-3.547-.338-4.837-1.653-4.837-1.316 0-1.654 1.29-1.654 4.837 0 3.545.338 4.837 1.654 4.837M68.67 66.504c1.18 0 1.583-1.189 1.583-2.619 0-1.685-.489-2.633-1.583-2.633-1.401 0-1.655 1.258-1.655 2.723 0 1.408.525 2.529 1.655 2.529M94.846 92.913c1.315 0 1.653-1.29 1.653-4.837 0-3.547-.338-4.839-1.653-4.839-1.316 0-1.654 1.292-1.654 4.84 0 3.545.338 4.836 1.654 4.836M68.67 92.913c1.18 0 1.583-1.188 1.583-2.618 0-1.685-.489-2.634-1.583-2.634-1.401 0-1.655 1.258-1.655 2.72 0 1.411.525 2.532 1.655 2.532M68.67 38.909c1.18 0 1.583-1.188 1.583-2.618 0-1.685-.489-2.631-1.583-2.631-1.401 0-1.655 1.256-1.655 2.72 0 1.41.525 2.529 1.655 2.529" fill="#f47327"/></svg>