<svg xmlns="http://www.w3.org/2000/svg" viewBox="0 0 125 125" height="125" width="125"><path d="M100.538 64.063c0 21.007-17.03 38.037-38.038 38.037-21.007 0-38.038-17.03-38.038-38.038 0-21.007 17.03-38.037 38.038-38.037 21.007 0 38.038 17.03 38.038 38.038" fill="#99441f"/><path d="M100.538 60.938c0 21.007-17.03 38.037-38.038 38.037-21.007 0-38.038-17.03-38.038-38.038C24.462 39.93 41.492 22.9 62.5 22.9c21.007 0 38.038 17.03 38.038 38.037" fill="#f47327"/><path d="M72.803 78.594h4.011V43.28h-4.01v35.313zM84.072 52.209l10.499 8.549-10.499 8.907V52.21" fill="#fff"/><path d="M46.964 58.932l2.286 1.861-2.533 2.15h39.137v-4.011h-38.89M46.717 45.286h30.097v-4.01h-29.85l2.286 1.861-2.533 2.15M49.25 78.45l-2.533 2.149h30.097v-4.011h-29.85l2.286 1.862M38.351 53.955l8.399 6.838-8.399 7.127V53.955M38.351 36.298l8.399 6.84-8.399 7.126V36.298M38.351 71.61l8.399 6.84-8.399 7.126V71.611" fill="#fff"/></svg>