<svg xmlns="http://www.w3.org/2000/svg" viewBox="0 0 125 125" height="125" width="125"><path d="M54.844 52.611c-.012-1.225.31-6.614 7.02-6.614h.055c6.529.015 7.042 5.428 7.088 6.614H54.844zm14.163 14.89H54.888v-8.193h14.119v8.193zm26.125-11.44v-3.1l-11.064-.35h-6.865v-.676c0-7.869-7.06-12.21-14.707-12.21-7.608 0-13.943 4.925-14.827 12.886h-6.704l-11.096.35v3.1l11.096 7.607v-4.36h6.719v8.193h-4.876v21.133h39.297V67.501h-4.902v-8.193h6.865v4.343l11.064-7.59" fill="#99441f"/><path d="M54.844 49.512c-.012-1.226.31-6.614 7.02-6.614h.055c6.529.015 7.042 5.427 7.088 6.614H54.844zm14.163 14.89H54.888v-8.193h14.119v8.193zm26.125-11.44l-11.064-7.605v4.155h-6.865v-.676c0-7.87-7.06-12.21-14.707-12.21-7.608 0-13.943 4.924-14.827 12.886h-6.704v-4.155L29.869 52.96l11.096 7.608v-4.36h6.719v8.193h-4.876v21.133h39.297V64.402h-4.902v-8.193h6.865v4.343l11.064-7.59" fill="#f47327"/></svg>