<svg xmlns="http://www.w3.org/2000/svg" viewBox="0 0 125 125" height="125" width="125"><path d="M63.132 30.028c.396 0 .782.17.867.272 3.691 4.175 7.402 5.567 10.715 5.567 6.646 0 21.553 4.683 21.804 4.404v3.1c-.266.314-5.346 6.26-5.063 13.246.168 4.162 2.223 6.979 3.961 9.958.691 1.184 2.45 4.599 2.45 4.599v3.072c.002.887-.09 1.836-.298 2.862-3.415 16.77-19.805 9.993-33.074 20.906-.256.206-.464.275-.632.275-.334 0-.484-.263-.493-.275-8.044-9.71-32.878-1.61-35.95-20.906a21.045 21.045 0 0 1-.285-3.41v-3.022s1.8-4.038 2.357-5.033c1.35-2.41 2.81-4.661 2.977-8.34.28-6.125-4.783-12.483-5.049-12.817v-3.1c.26.26 16.955-5.955 23.85-5.955 3.45 0 7.332-1.292 11.216-5.175.18-.172.413-.228.647-.228" fill="#99441f"/><path d="M63.132 26.928c.396 0 .782.17.867.272 3.691 4.175 7.402 5.566 10.715 5.566 6.646 0 11.426-5.331 11.678-5.61L96.518 40.27c-.266.314-5.346 6.26-5.063 13.246.332 8.208 8 11.184 6.113 20.49C94.153 90.778 77.763 84 64.494 94.915c-.256.206-.464.275-.632.275-.334 0-.484-.264-.493-.275-8.044-9.71-32.878-1.61-35.95-20.906-1.694-10.572 4.687-11.865 5.049-19.805.28-6.126-4.783-12.483-5.049-12.818l11.787-14.23c.26.26 5.168 5.176 12.063 5.176 3.45 0 7.332-1.292 11.216-5.175.18-.173.413-.228.647-.228" fill="#f47327"/></svg>