<svg xmlns="http://www.w3.org/2000/svg" viewBox="0 0 125 125" height="125" width="125"><path d="M78.111 71.927a17.544 17.544 0 0 1-7.734 7.734A17.45 17.45 0 0 1 62.5 81.55a17.45 17.45 0 0 1-7.877-1.889 17.545 17.545 0 0 1-7.734-7.734A17.45 17.45 0 0 1 45 64.05a17.45 17.45 0 0 1 1.889-7.878 17.548 17.548 0 0 1 7.734-7.733c.773-.391 1.575-.731 2.408-1.005a17.461 17.461 0 0 1 5.469-.884 17.461 17.461 0 0 1 7.877 1.889 17.547 17.547 0 0 1 7.734 7.733A17.45 17.45 0 0 1 80 64.05a17.45 17.45 0 0 1-1.889 7.878zm8.832-13.346a24.884 24.884 0 0 0-3.298-7.942l3.157-3.157v-3.1L75.91 42.905a24.88 24.88 0 0 0-7.942-3.298v-1.489H57.03v1.489a24.881 24.881 0 0 0-7.942 3.298L38.2 44.382v3.1l3.157 3.157a24.884 24.884 0 0 0-3.299 7.942h-4.456v10.938h4.456a24.879 24.879 0 0 0 3.298 7.941l-3.157.058v3.1l7.734 7.733 3.157-3.156a24.904 24.904 0 0 0 7.942 3.298v4.456H67.97v-4.456a24.902 24.902 0 0 0 7.942-3.298l3.157 3.156 7.734-7.733v-3.1l-3.158-.058a24.879 24.879 0 0 0 3.299-7.941h4.456V58.58h-4.456" fill="#484849"/><path d="M78.111 68.828a17.547 17.547 0 0 1-7.734 7.733 17.413 17.413 0 0 1-7.877 1.89 17.465 17.465 0 0 1-7.877-1.89 17.548 17.548 0 0 1-7.734-7.733A17.45 17.45 0 0 1 45 60.95a17.448 17.448 0 0 1 1.889-7.878 17.545 17.545 0 0 1 7.734-7.734A17.354 17.354 0 0 1 62.5 43.45a17.354 17.354 0 0 1 7.877 1.889 17.544 17.544 0 0 1 7.734 7.734A17.448 17.448 0 0 1 80 60.95a17.45 17.45 0 0 1-1.889 7.878zm8.832-13.347a24.874 24.874 0 0 0-3.298-7.942l3.157-3.157-7.734-7.734-3.157 3.157a24.891 24.891 0 0 0-7.942-3.298V32.05H57.03v4.456a24.892 24.892 0 0 0-7.942 3.298l-3.157-3.157-7.734 7.734 3.158 3.157a24.874 24.874 0 0 0-3.299 7.942h-4.456V66.42h4.456a24.884 24.884 0 0 0 3.299 7.942l-3.158 3.157 7.734 7.733 3.157-3.156a24.881 24.881 0 0 0 7.942 3.298v4.456H67.97v-4.456a24.88 24.88 0 0 0 7.942-3.298l3.157 3.157 7.734-7.734-3.158-3.157a24.884 24.884 0 0 0 3.299-7.942h4.456V55.482h-4.456" fill="#aaa9a8"/></svg>