<svg xmlns="http://www.w3.org/2000/svg" viewBox="0 0 125 125" height="125" width="125"><path d="M68.274 93.484l33.312-18.917V36.824L68.273 55.69v37.793" fill="#6c6d6f"/><path d="M34.993 74.561l33.293 18.905V55.697L34.993 36.841v37.72M101.531 36.799l-33.246-18.83-33.247 18.83 33.247 18.88 33.246-18.88" fill="#6c6d6f"/><path d="M68.286 54.242l30.752-17.418-.04-.023-30.713 17.44M37.57 36.8l-.04.024 30.754 17.418L37.572 36.8M68.286 54.242h-.001" fill="#fff"/><path d="M37.57 36.8l30.715-17.395 30.713 17.396.04.023-30.752 17.418h-.001L37.53 36.824l.04-.023zm29.465 54.54L36.244 73.854V38.968l30.79 17.44v34.931zm33.29-17.485l-30.79 17.484V56.408l30.79-17.44v34.887zm1.206-38.493l-33.246-18.83-33.247 18.83-1.294.733V75.31l33.29 18.904 1.25.71 1.25-.71 33.29-18.904V36.095l-1.293-.733" fill="#fff"/><path d="M42.321 105.274l19.137-10.866V72.732L42.32 83.572v21.702M23.097 94.43l19.216 10.911V83.55L23.097 72.665V94.43M61.347 72.664l-19.05-10.789-19.05 10.789 19.05 10.816 19.05-10.816" fill="#fff"/><path d="M42.297 82.466l17.283-9.79-.022-.012-17.26 9.802M25.037 72.665l-.022.012 17.282 9.789-17.26-9.801M42.297 82.466z" fill="#fff"/><path d="M25.037 72.665l17.26-9.775 17.261 9.775.022.012-17.283 9.789-17.282-9.79.022-.012zM41.36 103.72l-17.31-9.83V74.286l17.31 9.805v19.63zm19.184-9.83l-17.31 9.83V84.09l17.31-9.806v19.607zm.914-22.305l-19.16-10.853-19.16 10.853-.963.545v22.852l19.185 10.894.937.532.938-.532 19.184-10.894V72.13l-.961-.545" fill="#3e3d3f"/><path d="M62.776 107.078l11.004-6.248V88.38l-11.004 6.233v12.464M51.426 100.83l11.003 6.248V94.614L51.426 88.38v12.449M73.528 88.063l-10.926-6.188-10.924 6.188 10.925 6.204 10.925-6.204" fill="#274e98"/><path d="M62.602 93.421l9.45-5.35-.013-.007-9.437 5.357M53.167 88.064l-.013.007 9.448 5.35-9.434-5.357M62.602 93.421z" fill="#fff"/><path d="M53.167 88.064l9.435-5.344 9.437 5.344.013.007-9.45 5.35-9.448-5.35.013-.007zm-.977 1.616l9.475 5.366v10.734l-9.475-5.38V89.68zm20.827 10.72l-9.477 5.38V95.046l9.477-5.366v10.72zm.922-13.415l-11.336-6.421-11.335 6.421-.953.54v13.966l11.35 6.444.938.533.937-.533 11.352-6.444V87.525l-.953-.54" fill="#fff"/></svg>