<svg xmlns="http://www.w3.org/2000/svg" viewBox="0 0 125 125" height="125" width="125"><path d="M62.472 107.474l39.685-22.535V39.97L62.472 62.444v45.029" fill="#fff"/><path d="M22.871 84.924L62.5 107.426V62.461L22.871 40.016v44.908M101.875 39.968L62.5 17.667 23.125 39.968 62.5 62.327l39.375-22.359" fill="#fff"/><path d="M62.5 61.005l37.092-21.008-.048-.027L62.5 61.005M25.456 39.97l-.048.027 37.091 21.008h.001L25.456 39.97M62.5 61.005" fill="#fff"/><path d="M25.456 39.97L62.5 18.99 99.544 39.97l.048.027-37.091 21.008H62.5L25.408 39.997l.048-.027zM61.25 105.3L24.121 84.217V42.142L61.25 63.171V105.3zm39.629-21.083L63.75 105.3V63.17l37.129-21.028v42.075zm1.199-45.686L62.5 16.115 22.922 38.531l-1.3.738v46.403l39.628 22.503 1.25.71 1.25-.71 39.629-22.503V39.27l-1.301-.738" fill="#3e3d3f"/><path d="M62.669 86.744l21.31-12.1v-24.13L62.67 62.582v24.161M41.021 74.643l21.31 12.101V62.583l-21.31-12.07v24.13M83.75 50.177L62.5 38.142 41.25 50.177 62.5 62.244l21.25-12.067" fill="#80cd3a"/><path d="M62.5 61.03l19.111-10.823-.025-.014L62.5 61.03M43.414 50.193l-.025.014 19.11 10.824h.001L43.414 50.193M62.5 61.03v.001" fill="#88c527"/><path d="M43.414 50.193L62.5 39.383l19.086 10.81.025.014-19.11 10.824H62.5L43.388 50.207l.025-.014zM61.25 84.906L42.102 74.033V52.35L61.25 63.197v21.709zm21.648-10.873L63.75 84.906v-21.71l19.148-10.845v21.682zm1.221-25.279L62.5 36.51 40.88 48.754l-1.278.724v26.01L61.25 87.78l1.25.71 1.25-.71 21.648-12.292v-26.01l-1.279-.724" fill="#fff"/></svg>