<svg xmlns="http://www.w3.org/2000/svg" viewBox="0 0 81.762497 92.775002" height="92.775" width="81.762"><path d="M40.851 91.364L80.536 68.83V23.86L40.85 46.335v45.029" fill="#fff"/><path d="M1.25 68.814l39.629 22.503V46.35L1.25 23.906v44.908M80.254 23.859L40.879 1.558 1.504 23.859l39.375 22.358 39.375-22.358" fill="#fff"/><path d="M40.88 44.896L77.97 23.888l-.048-.027L40.88 44.896M3.834 23.86l-.047.028 37.091 21.008L3.835 23.86M40.88 44.896h-.002.001" fill="#fff"/><path d="M3.834 23.86L40.88 2.88l37.044 20.98.048.028L40.88 44.896 3.786 23.888l.047-.028zM39.63 89.19L2.5 68.109V26.032l37.129 21.03V89.19zm39.629-21.082L42.128 89.19V47.06l37.13-21.029v42.076zm1.199-45.686L40.879.006 1.3 22.422 0 23.159v46.404l39.629 22.502 1.25.71 1.25-.71 39.629-22.502V23.159l-1.301-.737" fill="#3e3d3f"/><path d="M41.048 70.634l21.31-12.1v-24.13l-21.31 12.07v24.16M19.4 58.534l21.31 12.1v-24.16L19.4 34.404v24.13M62.129 34.082l-21.25-12.035-21.25 12.035 21.25 12.066 21.25-12.066" fill="#538ed2"/><path d="M40.88 44.922l19.11-10.825-.025-.014-19.086 10.838M21.793 34.083l-.025.014 19.11 10.825v-.001L21.794 34.083M40.88 44.922l-.001-.001" fill="#88c527"/><path d="M21.793 34.083l19.086-10.81 19.086 10.81.025.014-19.11 10.825h-.002l-19.11-10.825.025-.014zm17.836 34.713L20.48 57.923v-21.68l19.148 10.844v21.709zm21.648-10.873L42.129 68.796V47.087l19.148-10.845v21.681zm1.221-25.278L40.878 20.4 19.26 32.645l-1.279.724v26.009l21.648 12.293 1.25.71 1.25-.71 21.648-12.293v-26.01l-1.279-.723" fill="#fff"/></svg>