<svg xmlns="http://www.w3.org/2000/svg" viewBox="0 0 81.375 69.875" height="69.875" width="81.375"><path d="M77.5 69.875H3.75c-2 0-3.75-1.625-3.75-3.75V8.75C0 6.75 1.625 5 3.75 5h73.875c2 0 3.75 1.625 3.75 3.75v57.5a3.85 3.85 0 0 1-3.875 3.625" fill="#445f24"/><path d="M77.5 64.875H3.75c-2 0-3.75-1.625-3.75-3.75V3.75C0 1.75 1.625 0 3.75 0h73.875c2 0 3.75 1.625 3.75 3.75v57.5a3.85 3.85 0 0 1-3.875 3.625" fill="#689f2e"/><path d="M16 10.625h60.875v-5.5H16v5.5zM7.875 3.5a4.375 4.375 0 1 1 0 8.75 4.375 4.375 0 0 1 0-8.75M4.375 59.875h72.5V16h-72.5v43.875z" fill="#fff"/><path d="M47.5 42.625l-.25.75-.625 1.75-1.625-.75-.75-.375-.375.625-1.125 1.5L41.375 45l-.625-.5-.5.5-1.5 1.125-1-1.5-.375-.625-.75.375-1.625.75-.625-1.75-.25-.75-1.25.25h-1v13.75l8.75-7.375 8.75 7.375v-13.75H48.5l-1-.25" fill="#689f2e"/><path d="M52 31l1.5-1.625-1.875-1.25 1-2-2.125-.75.5-2.125-2.25-.25-.125-2.125-2.25.375-.625-2-2 .875-1.25-1.75-1.75 1.375-1.625-1.375-1.25 1.75-2-.875-.75 2L33 20.875 32.875 23l-2.25.25.375 2.125-2 .75.875 2-1.75 1.25L29.5 31l-1.375 1.625 1.75 1.25-.875 2 2 .75-.625 2.125 1.75.25h.375l.375 2.125 2.25-.375.75 2.125 2-1 1.25 1.875 1.625-1.5 1.75 1.5 1.25-1.875 2 1 .625-2.125 2.25.375.25-2.125H49l2-.25-.5-2.125 2.125-.75-1-2 1.875-1.25L52 31" fill="#689f2e"/><path d="M38.625 32.25L35.5 28.875l-3.5 3.5 6.5 6.5 11-11L47 25.25l-8.375 7" fill="#fff"/></svg>