<svg xmlns="http://www.w3.org/2000/svg" viewBox="0 0 125 125" height="125" width="125"><path d="M84.228 27.611c2.078 0 3.75 1.664 3.75 3.708v59.243c0 2.05-1.672 3.728-3.75 3.728H40.774c-2.08 0-3.753-1.68-3.753-3.728V31.318c0-2.043 1.673-3.707 3.753-3.707h43.454v.001" fill="#689f2e"/><path d="M55.205 79.892c-.18-1.676-1.297-2.398-2.906-2.398-1.315 0-2.628.476-2.628 2.003 0 1.445 1.872 1.659 3.76 2.086 1.872.427 3.745 1.085 3.745 3.383 0 2.496-2.447 3.498-4.582 3.498-2.628 0-4.844-1.281-4.844-4.138h1.477c0 1.97 1.643 2.823 3.417 2.823 1.412 0 2.972-.442 2.972-2.133 0-1.61-1.873-1.89-3.744-2.3-1.872-.41-3.762-.952-3.762-3.104 0-2.38 2.119-3.432 4.254-3.432 2.397 0 4.22 1.134 4.32 3.712h-1.479M61.727 77.773h-3.908V76.46h9.376v1.314h-3.907v10.412h-1.561V77.773M75.278 79.892c-.18-1.676-1.298-2.398-2.907-2.398-1.314 0-2.627.476-2.627 2.003 0 1.445 1.872 1.659 3.76 2.086 1.872.427 3.744 1.085 3.744 3.383 0 2.496-2.446 3.498-4.582 3.498-2.627 0-4.844-1.281-4.844-4.138H69.3c0 1.97 1.642 2.823 3.416 2.823 1.412 0 2.973-.442 2.973-2.133 0-1.61-1.873-1.89-3.745-2.3-1.872-.41-3.76-.952-3.76-3.104 0-2.38 2.117-3.432 4.253-3.432 2.398 0 4.22 1.134 4.319 3.712h-1.478M62.5 33.39c8.974 0 16.25 7.275 16.25 16.25S71.474 65.89 62.5 65.89c-8.975 0-16.25-7.275-16.25-16.25s7.275-16.25 16.25-16.25" fill="#fff"/><path d="M62.5 35.265c-7.927 0-14.376 6.449-14.376 14.375s6.45 14.375 14.375 14.375c7.927 0 14.376-6.45 14.376-14.375 0-7.926-6.449-14.375-14.376-14.375zm0 32.5c-9.994 0-18.126-8.131-18.126-18.125S52.506 31.515 62.5 31.515c9.995 0 18.126 8.131 18.126 18.125S72.494 67.765 62.5 67.765" fill="#484849"/><path d="M54.984 52.765h8.765v-3.75h-8.765v3.75z" fill="#484849"/><path d="M61.874 52.765h3.751V38.312h-3.75v14.453z" fill="#484849"/></svg>