<svg xmlns="http://www.w3.org/2000/svg" viewBox="0 0 125 125" height="125" width="125"><path d="M84.228 29.161c2.078 0 3.75 1.664 3.75 3.708v59.243c0 2.05-1.672 3.728-3.75 3.728H40.774c-2.08 0-3.753-1.68-3.753-3.728V32.868c0-2.044 1.673-3.708 3.753-3.708h43.454v.001" fill="#d4d4d2"/><path d="M74.109 74.69h-10.42l.034-7.676s-.006-4.705 5.21-4.688c4.987.015 5.21 4.688 5.21 4.688l-.034 7.676zm4.951 0v-7.676c-.537-5.057-4.897-8.985-10.127-8.985-5.244 0-9.61 3.908-10.128 8.985v7.676h-5.239v17.014H84.15V74.69h-5.09" fill="#323131"/><path d="M50.884 40.57a2.723 2.723 0 1 1 .001-5.446 2.723 2.723 0 0 1 0 5.446zm0-8.587c-5.76 0-10.43 4.67-10.43 10.43s4.67 10.43 10.43 10.43c5.761 0 10.43-4.67 10.43-10.43s-4.669-10.43-10.43-10.43" fill="#777779"/><path d="M55.316 45.94v12.066l-1.902 1.092.382 4.08-1.607 1.565-.312 1.433 2.23 3.722-3.55 4.624-4.104-2.542V45.94h8.863" fill="#777779"/></svg>