<svg xmlns="http://www.w3.org/2000/svg" viewBox="0 0 125 125" height="125" width="125"><path d="M111.463 64.86c-.412-.46-.735-1.013-1.04-1.556-1.764-3.14-2.564-6.528-3.323-10.063-2.601-12.074-9.372-21.304-19.942-27.851-7.447-4.616-15.107-7.616-24.134-6.455-11.943 1.535-22.044 5.987-29 16.318-3.926 5.828-6.86 12.09-9.203 18.693-2.137 6.026-1.878 12.624-4.584 18.484-.543 1.176-1.277 2.272-1.99 3.361-1.88 2.866-4.264 5.507-5.605 8.604-3.294 7.59-1.483 11.975 5.864 15.752.752.388 1.528.731 2.31 1.048 8.577 3.48 28.593 7.78 41.03 2.989 2.883-.807 5.663-2.15 8.324-3.564 9.884-5.25 19.71-10.61 29.533-15.97 4.412-2.41 8.582-5.175 11.899-9.026 3.18-3.69 3.095-7.13-.14-10.763" fill="#435e24"/><path d="M76.56 23.197c5.42 1.745 10.032 4.865 14.37 8.454 3.167 2.518 11.57 11.162 13.517 22.036.201 1.618.321 3.25.643 4.843.138.683 1.058 1.921 1.058 1.921l1.015 2.523s1.853 2.944 2.86 4.357c1.265 1.772 1.75 3.604.335 5.446-3.14 4.092-7.275 6.93-12.351 9.563.202-2.102.36-3.72.516-5.339l-3.33-.954c-1.23 2.854-.491 5.049 2.663 6.555-2.97 1.57-5.572 2.933-8.16 4.318-7.944 4.255-15.837 8.619-23.845 12.75-5.902 3.045-12.293 4.583-18.924 4.36-7.607-.255-15.058-1.728-22.25-4.289-3.253-1.159-5.838-6.269-4.837-9.465.525-1.679 1.963-2.441 3.658-2.264 5.571.585 11.134 1.26 16.696 1.931 6.186.746 12.367 2.088 18.557 2.137 7.01.056 13.764-2.14 20.295-4.858-1.988.133-3.977.254-5.963.402-5.529.41-11.087.587-16.574 1.315-6.815.904-13.265-.585-19.74-2.202-5.25-1.31-9.579-4.068-12.616-8.59-1.168-1.74-1.871-3.726-.978-5.628.724.645 1.523 1.868 2.156 1.788.77-.097 1.706-1.176 2.037-2.038.85-2.215 1.424-4.538 2.072-6.83 1.162-4.102 1.944-8.353 3.518-12.288 2.902-7.246 5.96-14.484 10.8-20.726 1.8-2.321 3.736-4.62 5.961-6.515 2.904-2.475 6.668-3.353 10.343-3.7 4.368-.412 8.797-.204 13.2-.24.25-.003.5.217.75.335l2.547.892" fill="#689f2e"/><path d="M104.445 53.687c-.961-1.853-1.736-3.833-2.91-5.543-5.59-8.133-17.546-8.054-23.36.07-3.656 5.11-5.344 10.947-6.324 17.044-.294 1.83-.513 3.673-.837 6.015-2.131-3.54-2.675-6.984-2.835-10.373-.345-7.364.703-14.482 5.297-20.616 3.282-4.387 7.18-7.963 12.867-8.785 1.488-.214 3.053.088 4.585.152 1.743 1.497 3.815 2.747 5.166 4.541 3.438 4.563 6.479 9.41 8.003 15.018.218.796.237 1.65.348 2.477" fill="#b2ce8f"/><path d="M76.56 23.197c-6.337 1.758-10.023 6.446-13.022 11.853-4.321 7.79-7.448 15.961-7.33 25.037.067 5.185 1.092 10.202 3.215 14.967.223.5.391 1.027.702 1.852-2.606.054-4.306-1.06-5.626-2.889-2.455-3.4-3.374-7.405-3.282-11.398.266-11.664 2.537-22.824 10.12-32.216 1.63-2.018 3.53-3.846 5.465-5.587 2.005-1.808 4.468-2.634 7.206-2.514.85.3 1.701.598 2.551.895" fill="#b2ce8f"/><path d="M107.158 62.971c.06 2.87-1.987 4.384-3.908 5.919-9.65 7.718-20.882 11.794-32.87 14.007-5.314.983-10.657 1.851-16.02 2.496-6.532.786-12.645-1.484-18.825-3.096-2.546-.664-5.055-1.47-7.58-2.214.028-.27.057-.538.083-.807 1.127 0 2.281-.16 3.375.028 4.98.858 9.912 2.146 14.923 2.638 4.58.451 9.287.504 13.852-.015 8.6-.975 17.102-2.765 25.19-5.904 4.703-1.822 9.234-4.173 13.641-6.642 3.48-1.949 6.687-4.416 7.124-8.932l1.015 2.522M95.189 76.046c2.394-1.44 4.731-2.991 7.214-4.262.941-.483 2.212-.318 3.334-.448l.232.586c-2.482 1.693-4.966 3.387-7.45 5.078l-3.33-.954" fill="#b2ce8f"/></svg>