<svg xmlns="http://www.w3.org/2000/svg" viewBox="0 0 125 125" height="125" width="125"><path d="M47.2 48.966l-5.481-5.04-2.727 5.276 4.194.489 4.014-.725M42.656 55.482l19.844 1.27 19.844-1.27L62.5 44.498 42.656 55.482M75.908 48.966l4.83.852 5.27-.616L81.3 39.27l-5.392 9.695" fill="#364426"/><path d="M55.991 84.885l11.353-2.666 10.95 2.561-11.35 10.793L55.99 84.885" fill="#b2ce8f"/><path d="M57.248 47.967l-5.9-1.016-6.076-7.576 6.076-12.231 5.9 1.84v18.983" fill="#689f2e"/><path d="M42.656 34.437V27.42L62.5 17.5l5.249 11.099-10.5 4.2-5.901-1.841V46.73L62.5 44.498l5.942 26.127L62.5 107.5l-5.945-2.971v-8.406l-5.207-2.083V54.614l-8.692.869v-7.014l-3.664.734v-13.3l3.664-1.465" fill="#435e24"/><path d="M72.771 22.635l4.182 2.091 5.388 2.694v7.017l3.667 1.465v13.299l-3.667-.733v7.014l-4.672-.466-4.02-.403v7.885h8.695v7.216l-4.04.362v7.275l-9.862 1.96v8.406l9.84-2.92.021 7.417-9.86 3.909v8.406L62.5 107.5V44.498l5.247 1.05V32.8L62.5 30.961V17.5l10.271 5.135" fill="#689f2e"/><path d="M68.442 28.876L62.5 26.501l-11.152 4.457 5.9 1.841 11.194-3.923" fill="#364426"/><path d="M67.749 30.96h5.9v15.771l-5.9-1.183V30.961" fill="#435e24"/><path d="M51.348 30.958L62.5 26.501l2.346.938 3.596 1.437 5.208 2.085-5.901 1.838-5.249-1.841-5.252 1.841-5.9-1.841" fill="#364426"/></svg>