<svg xmlns="http://www.w3.org/2000/svg" viewBox="0 0 125 125" height="125" width="125"><path d="M46.138 64.05a3.513 3.513 0 1 1-7.026 0 3.513 3.513 0 0 1 7.026 0" fill="#435e24"/><path d="M39.112 64.05h7.026v-3.1h-7.026v3.1z" fill="#435e24"/><path d="M86.66 69.768H60.684c-2.151 4.568-6.784 7.738-12.167 7.738-7.432 0-13.456-6.024-13.456-13.456 0-7.431 6.024-13.456 13.456-13.456 5.383 0 10.016 3.17 12.167 7.739h7.948l1.409 2.454 5.264-.493 2.019 2.073 1.848.402 4.802-2.876 5.966 4.58-3.28 5.295zM28.75 46.85v35h67.5v-35h-67.5" fill="#435e24"/><path d="M46.138 60.95a3.513 3.513 0 1 1-7.026 0 3.513 3.513 0 0 1 7.026 0" fill="#689f2e"/><path d="M86.66 66.667H60.684c-2.151 4.569-6.784 7.739-12.167 7.739-7.432 0-13.456-6.024-13.456-13.456 0-7.432 6.024-13.456 13.456-13.456 5.383 0 10.016 3.17 12.167 7.739h7.948l1.409 2.454 5.264-.493 2.019 2.073 1.848.402 4.802-2.876 5.966 4.581-3.28 5.293zM28.75 43.75v35h67.5v-35h-67.5" fill="#689f2e"/></svg>