<svg xmlns="http://www.w3.org/2000/svg" viewBox="0 0 125 125" height="125" width="125"><path d="M99.763 82.086l-37.32-6.996-37.206 6.996L62.445 107.5l37.318-25.414" fill="#b2ce8f"/><path d="M25.273 82.085v6.792l4.74 2.369 32.51 16.254V96.165" fill="#435e24"/><path d="M99.728 82.085v6.792l-4.741 2.369-32.51 16.254V96.165" fill="#689f2e"/><path d="M62.523 72.093l15.746 1.665-15.746 15.606-15.746-15.606 15.746-1.665" fill="#b2ce8f"/><path d="M46.777 84.78l15.746 4.725V76.028l-15.746-2.27V84.78" fill="#435e24"/><path d="M78.269 84.78l-15.746 4.727v-13.48l15.746-2.269V84.78" fill="#689f2e"/><path d="M46.777 25.418L62.523 17.5l15.065 28.646-15.065 22.103-15.746-1.26V25.42" fill="#435e24"/><path d="M78.269 66.99l-15.746 1.259V17.5l15.746 7.918V66.99" fill="#689f2e"/></svg>