<svg xmlns="http://www.w3.org/2000/svg" viewBox="0 0 125 125" height="125" width="125"><path d="M87.865 39.103h-50.73a7.76 7.76 0 0 0-7.76 7.76v34.374a7.76 7.76 0 0 0 7.76 7.76h50.73a7.76 7.76 0 0 0 7.76-7.76V46.862a7.76 7.76 0 0 0-7.76-7.76" fill="#777779"/><path d="M87.865 36.002h-50.73a7.76 7.76 0 0 0-7.76 7.76v34.376a7.76 7.76 0 0 0 7.76 7.76h50.73a7.76 7.76 0 0 0 7.76-7.76V43.763a7.76 7.76 0 0 0-7.76-7.76" fill="#fff"/><path d="M67.144 51.905c0-6.579 5.334-11.913 11.914-11.913S90.97 45.326 90.97 51.905c0 6.58-5.334 11.914-11.913 11.914-6.58 0-11.914-5.334-11.914-11.914" fill="#689f2e"/><path d="M81.163 51.905a3.11 3.11 0 1 1 6.22.001 3.11 3.11 0 0 1-6.22 0" fill="#fff"/><path d="M75.03 56.967H61.249L60 54.794l-4.66.437-1.787-1.835-1.637-.357-4.251 2.547-5.282-4.056 2.904-4.686h29.744v10.123" fill="#689f2e"/><path d="M57.855 70.234c0 6.58-5.333 11.913-11.913 11.913S34.03 76.813 34.03 70.234c0-6.58 5.334-11.914 11.913-11.914 6.58 0 11.913 5.334 11.913 11.914" fill="#777779"/><path d="M43.837 70.234a3.11 3.11 0 1 1-6.22 0 3.11 3.11 0 0 1 6.22 0" fill="#fff"/><path d="M49.97 65.172h13.782L65 67.345l4.66-.437 1.787 1.835 1.636.357 4.253-2.546 5.281 4.055-2.904 4.686H49.969V65.172" fill="#777779"/></svg>