<svg xmlns="http://www.w3.org/2000/svg" viewBox="0 0 125 125" height="125" width="125"><path d="M25.25 36.125L30 33.75l9.125 18.438L30 68.23l-4.75-.48V36.125" fill="#435e24"/><path d="M39.125 35.875L30 33.75v34.48l9.125-.355v-32" fill="#689f2e"/><path d="M35.75 30.875l6.875-3.438 10.291 22.146L42.626 69.5l-6.875-.693V30.875" fill="#435e24"/><path d="M99.75 78.375l-37.25-4.75-37.25 4.75L62.5 107.5l37.25-29.125" fill="#b2ce8f"/><path d="M71.625 58.848l13.824-1.094L82.375 69.5l-10.75-.625V58.848M87.625 59.238h10.754L95 68.25l-7.375-.375v-8.637" fill="#435e24"/><path d="M56 31.75l-13.375-4.313V69.5L56 68.625V31.75M99.75 78.375L62.5 89.5v18l37.25-18.625v-10.5" fill="#689f2e"/><path d="M51.375 23.063L62.5 17.5l24.688 20.313L62.5 71.5l-11.125-1.125V23.062M25.25 78.375L62.5 89.5v18L25.25 88.875v-10.5" fill="#435e24"/><path d="M73.625 23.125L62.5 17.5v54l11.125-1.125v-47.25M95 42.25l4.75 1.625V67.75l-4.75.5v-26M89.25 56.125l-6.875-.625v14l6.875-.625v-12.75" fill="#689f2e"/><path d="M62.5 17.5l37.25 18.625V62.5H62.5v-45" fill="#689f2e"/></svg>