<svg xmlns="http://www.w3.org/2000/svg" viewBox="0 0 125 125" height="125" width="125"><path d="M83.677 32.195h-50.73a7.76 7.76 0 0 0-7.76 7.76V74.33a7.76 7.76 0 0 0 7.76 7.76h50.73a7.76 7.76 0 0 0 7.76-7.76V39.955a7.76 7.76 0 0 0-7.76-7.76" fill="#777779"/><path d="M83.677 29.095h-50.73a7.76 7.76 0 0 0-7.76 7.76V71.23a7.76 7.76 0 0 0 7.76 7.76h50.73a7.76 7.76 0 0 0 7.76-7.76V36.855a7.76 7.76 0 0 0-7.76-7.76" fill="#fff"/><path d="M62.957 44.998c0-6.58 5.333-11.913 11.913-11.913s11.913 5.334 11.913 11.913c0 6.58-5.333 11.913-11.913 11.913s-11.913-5.333-11.913-11.913" fill="#689f2e"/><path d="M76.976 44.998a3.11 3.11 0 1 1 6.22 0 3.11 3.11 0 0 1-6.22 0" fill="#fff"/><path d="M70.843 50.06H57.06l-1.247-2.173-4.66.437-1.788-1.836-1.637-.356-4.251 2.546-5.282-4.055 2.904-4.687h29.744V50.06" fill="#689f2e"/><path d="M53.668 63.326c0 6.58-5.334 11.913-11.914 11.913-6.579 0-11.913-5.333-11.913-11.913s5.334-11.913 11.913-11.913c6.58 0 11.914 5.334 11.914 11.913" fill="#777779"/><path d="M39.649 63.326a3.11 3.11 0 1 1-6.22.001 3.11 3.11 0 0 1 6.22 0" fill="#fff"/><path d="M45.782 58.265h13.783l1.247 2.172 4.66-.436 1.788 1.835 1.636.356 4.252-2.546 5.282 4.055-2.905 4.687H45.782V58.265" fill="#777779"/><path d="M81.688 61.53c8.974 0 16.25 7.275 16.25 16.25 0 8.974-7.276 16.25-16.25 16.25-8.975 0-16.25-7.276-16.25-16.25 0-8.975 7.275-16.25 16.25-16.25" fill="#fff"/><path d="M81.688 63.405c-7.927 0-14.376 6.449-14.376 14.375s6.45 14.375 14.376 14.375c7.926 0 14.374-6.449 14.374-14.375s-6.448-14.375-14.374-14.375zm0 32.5c-9.994 0-18.126-8.131-18.126-18.125s8.132-18.125 18.126-18.125c9.994 0 18.124 8.131 18.124 18.125s-8.13 18.125-18.124 18.125" fill="#484849"/><path d="M74.172 80.905h8.766v-3.75h-8.766v3.75z" fill="#484849"/><path d="M81.063 80.905h3.75V66.452h-3.75v14.453z" fill="#484849"/></svg>