<svg xmlns="http://www.w3.org/2000/svg" viewBox="0 0 125 125" height="125" width="125"><path d="M32.595 87.188L25 89.032V35.967l7.595-3.797 11.468 16.928-11.468 38.09" fill="#435e24"/><path d="M42.387 48.852l-9.792-1.208V32.17l9.792 2.465v14.217" fill="#689f2e"/><path d="M82.473 46.562l15.808 2.29-5.895-16.683-9.913 2.496v11.897M46.649 87.656l15.841 20.122 10.166-64.34L62.49 17.221l-15.841 7.92v62.514" fill="#435e24"/><path d="M25 89.033l37.49 18.745 12.197-36.041L62.49 35.695 25 46.793v42.24" fill="#435e24"/><path d="M69.375 49.098l28.906 10.277-5.895 33.455-13.764-3.466-9.247-40.266" fill="#435e24"/><path d="M78.622 99.712l-16.132 8.066V17.222l16.132 8.066v74.424M92.386 92.83L100 89.023V35.977l-7.614-3.808V92.83" fill="#689f2e"/><path d="M100 62.5H62.49V35.695L100 46.798V62.5" fill="#689f2e"/></svg>