<svg xmlns="http://www.w3.org/2000/svg" viewBox="0 0 125 125" height="125" width="125"><path d="M62.5 57.631l26.81-18.829 10.47 18.426-25.337 1.05L62.5 57.63M62.5 57.631L35.69 42.135 25.22 57.228l25.337 1.05L62.5 57.63" fill="#581c1b"/><path d="M62.5 67.369L35.69 88.28 25.22 67.772l25.337-1.05 11.943.647M62.5 67.369L89.31 88.28l10.47-20.509-25.337-1.05-11.943.647" fill="#f3a2a3"/><path d="M89.31 56.181l10.47 1.047V36.14l-10.47 2.662v17.38" fill="#e13d3b"/><path d="M51.367 39.948l37.943-.365v16.598l-26.81 1.45-11.133-17.683" fill="#892822"/><path d="M89.31 68.819l10.47-1.047V88.86l-10.47-.944V68.82" fill="#e13d3b"/><path d="M53.034 84.74L89.31 81.5V68.819l-26.81-1.45-9.466 17.37" fill="#892822"/><path d="M62.5 39.584l-31.289.207 4.48 16.39 26.809 1.45V39.584" fill="#e13d3b"/><path d="M35.69 56.181l-10.47 1.047V36.14l10.47.683V56.18M35.69 68.819l-10.47-1.047V88.86l10.47-1.1V68.82" fill="#892822"/><path d="M62.5 86.25l-26.81-4.749V68.819l26.81-1.45V86.25" fill="#e13d3b"/><path d="M78.25 51.425l-15.75-2.35-14.883 13.998L62.5 76.076 78.25 73.7V51.425" fill="#e13d3b"/><path d="M46.75 51.425l15.75-2.35v27L46.75 73.7V51.425" fill="#892822"/><path d="M89.31 43.499l-26.81 4.36-26.81-4.36L62.5 17.5l26.81 25.999" fill="#581c1b"/><path d="M89.31 81.501l-26.81-4.36-26.81 4.36L62.5 107.5l26.81-25.999" fill="#f3a2a3"/><path d="M99.78 78.316L62.5 89.5v18l37.28-18.64V78.316" fill="#e13d3b"/><path d="M25.22 78.316L62.5 89.5v18L25.22 88.86V78.316" fill="#892822"/><path d="M99.78 46.684L62.5 35.5v-18l37.28 18.64v10.544" fill="#e13d3b"/><path d="M25.22 46.684L62.5 35.5v-18L25.22 36.14v10.544" fill="#892822"/></svg>