<svg xmlns="http://www.w3.org/2000/svg" viewBox="0 0 125 125" height="125" width="125"><path d="M49.613 71.288L30 97.619 19.726 71.336l18.74-1.136 11.147 1.088M75.185 71.288L95 97.773l10.072-26.407L86.535 70.2l-11.35 1.088" fill="#f3a2a3"/><path d="M49.613 53.71l-19.61-26.413-10.277 26.437 18.9 1.13 10.987-1.153M75.185 53.71L95 27.298l10.274 26.437-18.74 1.137-11.35-1.16" fill="#581c1b"/><path d="M75.185 53.71L95 52.245V27.297l-19.815 5.126v21.288" fill="#892822"/><path d="M105.274 53.733L95 52.243V27.298l10.274 5.138v21.298" fill="#e13d3b"/><path d="M75.185 71.288L95 72.826v24.947l-19.815-5.198V71.288" fill="#892822"/><path d="M105.072 71.366L95 72.826v24.947l10.072-5.036V71.366M49.613 53.71l-19.61-1.466L30 27.297l19.613 5.126v21.288" fill="#e13d3b"/><path d="M19.726 53.733l10.276-1.49V27.297l-10.276 5.138v21.298" fill="#892822"/><path d="M49.613 71.288L30 72.826v24.947l19.613-5.198V71.288" fill="#e13d3b"/><path d="M19.726 71.336L30 72.826v24.947l-10.274-5.137v-21.3" fill="#892822"/><path d="M82.92 74.578l-20.42-2.02-20.622 1.993L62.5 114.023l20.42-39.445" fill="#f3a2a3"/><path d="M82.92 50.493l-20.42 2.02-20.622-1.991L62.5 11.047l20.42 39.446" fill="#581c1b"/><path d="M82.92 50.493L62.5 47.532V11.047l20.42 10.21v29.236" fill="#e13d3b"/><path d="M41.878 50.522l20.622-2.99V11.047l-20.622 10.31v29.165" fill="#892822"/><path d="M82.92 74.578l-20.42 2.96v36.485l20.42-10.21V74.578" fill="#e13d3b"/><path d="M41.878 74.55L62.5 77.54v36.484l-20.622-10.311V74.55" fill="#892822"/></svg>