<svg xmlns="http://www.w3.org/2000/svg" viewBox="0 0 125 125" height="125" width="125"><path d="M61.338 30.048l34.941 4.142v3.099c0 4.009-15.635 7.244-34.941 7.244-19.282 0-34.94-3.235-34.94-7.244v-3.1l34.94-4.141" fill="#892822"/><path d="M96.08 42.865l-4.996 18.816-16.465-11.135v9.2H55.78l-12.815-8.678v9.197H31.235l-4.636-17.4v-3.1l1.735 3.422 33.004 6.128 34.014-6.846.727-2.703v3.1" fill="#892822"/><path d="M79.8 59.391L98.6 69.026v3.1L79.8 84.708v-6.435l-15.518-.066 8.401-5.593-9.35-6.873 16.467.069V59.39" fill="#892822"/><path d="M45.964 59.914l8.223 5.559L64.202 69.6v3.1l-7.962 5.658-10.276 6.873v-6.436h-16.34V66.332h16.34v-6.418" fill="#892822"/><path d="M78.225 83.749v9.165l5.127-3.384 2.346-4.647v3.1l-1.15 4.787c0 2.664-10.332 5.112-23.21 5.112-12.874 0-23.294-2.156-23.294-4.834L35.87 84.86v-3.1l7.095 3.1v6.958l14.468-7.478 20.793-.591" fill="#892822"/><path d="M61.338 26.948c19.306 0 34.941 3.233 34.941 7.242 0 4.008-15.635 7.243-34.941 7.243-19.282 0-34.94-3.235-34.94-7.243 0-4.01 15.658-7.242 34.94-7.242" fill="#e13d3b"/><path d="M96.08 39.766l-4.996 18.816-16.465-11.136v9.2H55.78l-12.815-8.677v9.196H31.235l-4.636-17.4c1.895 3.64 16.726 6.45 34.739 6.45 18.015 0 32.847-2.81 34.741-6.45" fill="#e13d3b"/><path d="M79.8 56.291L98.6 69.026 79.8 81.609v-6.436l-15.518-.066 8.401-5.593-9.35-6.872 16.467.068v-6.419" fill="#e13d3b"/><path d="M45.964 56.814l8.223 5.559L64.202 69.6l-7.962 5.659-10.276 6.872v-6.435h-16.34V63.232h16.34v-6.418" fill="#e13d3b"/><path d="M78.225 80.65v9.164l7.473-4.931-1.15 4.787c0 2.664-10.332 5.113-23.21 5.113-12.874 0-23.294-2.156-23.294-4.834L35.87 81.76h7.095v9.182l14.468-9.702 20.793-.59" fill="#e13d3b"/></svg>