<svg xmlns="http://www.w3.org/2000/svg" viewBox="0 0 125 125" height="125" width="125"><path d="M85.956 64.05c0 12.954-10.502 23.455-23.456 23.455-12.954 0-23.456-10.501-23.456-23.455 0-12.954 10.502-23.456 23.456-23.456 12.954 0 23.456 10.502 23.456 23.456" fill="#892822"/><path d="M39.044 64.05h46.912v-3.1H39.044v3.1z" fill="#892822"/><path d="M85.956 60.95c0 12.954-10.502 23.456-23.456 23.456-12.954 0-23.456-10.502-23.456-23.456 0-12.954 10.502-23.455 23.456-23.455 12.954 0 23.456 10.501 23.456 23.455" fill="#e13d3b"/></svg>