<svg xmlns="http://www.w3.org/2000/svg" viewBox="0 0 125 125" height="125" width="125"><path d="M62.494 31.321l33.133 4.883-.001 2.896c0 4.314-14.833 7.787-33.132 7.787-18.29 0-33.12-3.473-33.12-7.787v-3.101l33.12-4.678" fill="#892822"/><path d="M62.494 52.255c13.84 0 25.693-1.985 30.65-4.814l1.619-2.751.656-2.443v3.098L84.586 91.597c0 2.873-9.888 5.182-22.092 5.182-12.193 0-22.078-2.31-22.078-5.182L29.58 45.345v-3.1l2.446 5.29c5.054 2.78 16.793 4.72 30.468 4.72" fill="#892822"/><path d="M62.494 28.22c18.3 0 33.133 3.485 33.133 7.779 0 4.314-14.833 7.787-33.133 7.787-18.29 0-33.12-3.473-33.12-7.787 0-4.294 14.83-7.778 33.12-7.778" fill="#e13d3b"/><path d="M62.494 49.155c17.058 0 31.097-3.015 32.926-6.91L84.586 88.496c0 2.872-9.887 5.182-22.092 5.182-12.192 0-22.078-2.31-22.078-5.182L29.581 42.244c1.83 3.896 15.867 6.91 32.913 6.91" fill="#e13d3b"/><path d="M54.702 67.816h14.346V53.568H54.702v14.248zM43.286 79.876c0 3.879 3.167 7.024 7.075 7.024 3.904 0 7.07-3.145 7.07-7.025 0-3.88-3.166-7.024-7.07-7.024-3.908 0-7.075 3.144-7.075 7.025M80.112 86.57H65.935l7.09-13.09 7.087 13.09" fill="#fff" fill-rule="evenodd"/></svg>