<svg xmlns="http://www.w3.org/2000/svg" viewBox="0 0 125 125" height="125" width="125"><path d="M90.408 29.27v3.113H34.01V29.27l28.198-7.609 28.199 7.609M33.256 103.752h58.488V39.265H33.256v64.487z" fill="#892822"/><path d="M33.256 100.64h58.488V36.424H33.256v64.214zM82.449 21.248H42.586l-8.575 8.022h56.397l-7.96-8.022" fill="#e13d3b"/><path d="M57.74 63.433a7.964 7.964 0 0 1 4.758-1.568c2.208 0 4.256.882 5.761 2.448l4.407-2.113v-2.5s-6.686-2.607-10.168-2.607c-2.82 0-8.723.983-8.723.983v2.5l3.966 2.857M70.444 68.81c.05.36.076.72.076 1.077 0 3.886-3.196 9.352-6.915 10.068v2.5c6.5-.562 11.843-6.317 11.843-12.963 0-1.067-.386-4.287-.633-5.278l-4.37 4.596M59.059 77.13v-2.5s-1.039.372-1.658-.04c-1.354-.901-3.626-2.88-3.626-4.387 0-.812-.24-2.043 0-2.813l1.066-2.382-3.957-2.85c-1.295 3.623-1.198 5.52-1.198 7.354 0 5.67 3.818 10.76 8.947 12.396l.426-4.778" fill="#892822"/><path d="M82.623 58.94l-1.081-2.253-13.715 6.576a6.752 6.752 0 0 0-10.13-.84l-11.721-8.447-1.463 2.028 11.735 8.459a6.753 6.753 0 0 0-.625 2.83 6.771 6.771 0 0 0 4.66 6.43l-1.247 13.995 2.49.222 1.238-13.895c3.567-.192 6.402-3.137 6.402-6.752 0-.618-.09-1.214-.245-1.783l13.702-6.57" fill="#fff"/><path d="M57.74 60.933a7.964 7.964 0 0 1 4.758-1.568c2.208 0 4.256.882 5.761 2.448l4.407-2.113c-2.318-3.095-6.003-5.107-10.168-5.107-3.38 0-6.444 1.33-8.723 3.483l3.966 2.857M70.444 66.31c.05.36.076.72.076 1.077a8.017 8.017 0 0 1-6.497 7.868l-.418 4.7c6.5-.562 11.602-6.007 11.602-12.653 0-1.067-.145-2.097-.392-3.088l-4.37 2.096M59.059 74.63a8 8 0 0 1-4.218-9.622l-3.957-2.85a12.647 12.647 0 0 0-1.094 5.144c0 5.67 3.714 10.47 8.843 12.106l.426-4.778" fill="#fff"/></svg>