<svg xmlns="http://www.w3.org/2000/svg" viewBox="0 0 125 125" height="125" width="125"><path d="M31.835 98.626l-11.95-5.976V32.348l11.95-5.975 21.29 38.21-21.29 34.044" fill="#892822"/><path d="M39.8 96.253l-7.964 2.374V26.373l7.963 2.156 15.826 35.43-15.826 32.294" fill="#e13d3b"/><path d="M62.489 86.58l37.18 8.783 3.665-58.28-47.709 1.458 6.864 48.039" fill="#892822"/><path d="M64.711 45.116l8.25 1.425 26.708-3.759L73.959 25l-9.014 11.858-.234 8.258" fill="#581c1b"/><path d="M39.8 102.608l22.7 11.346 7.233-49.579L62.5 11.046 39.8 22.392v80.216" fill="#892822"/><path d="M105.115 32.358l-.024-.01-5.422-2.71L62.5 11.047v102.906l12.748-6.376V35.453l24.421 7.33v52.58l5.422-2.711V44.409l.024.007V32.358" fill="#e13d3b"/></svg>