<svg xmlns="http://www.w3.org/2000/svg" viewBox="0 0 125 125" height="125" width="125"><defs><clipPath id="a"><path d="M761.023 670.879V485.676c-45.878 20.933-108.085 40.601-187.285 47.461v185.222c79.2-6.875 141.407-26.543 187.285-47.48z"/></clipPath><clipPath id="b"><path d="M418.977 665.879V528.074c-74.731-12.281-136.118-37.168-180-60.269v234.324c43.882 23.105 105.269-48.574 180-36.25z"/></clipPath></defs><path d="M29.872 98.007h65.256v-22.96H29.872v22.96zM45.261 51.991h33.567V35.906H45.261V51.99z" fill="#892822"/><path d="M95.128 41.14v23.15c-5.735-2.616-13.51-5.075-23.41-5.932V35.205c9.9.86 17.675 3.318 23.41 5.935" fill="#892822"/><g clip-path="url(#a)" transform="matrix(.13 0 0 -.13 0 125)"><path d="M761.023 517.449v-31.773c-45.878 20.933-108.085 40.601-187.285 47.461v31.797c79.2-6.875 141.407-26.543 187.285-47.485" fill="#892822"/></g><path d="M52.372 41.765v17.226a74.563 74.563 0 0 0-22.5 7.533v-29.29c5.485-2.888 13.159 6.072 22.5 4.531" fill="#892822"/><g clip-path="url(#b)" transform="matrix(.13 0 0 -.13 0 125)"><path d="M418.977 559.875v-31.801c-74.731-12.281-136.118-37.168-180-60.269v31.773c43.882 23.11 105.269 47.973 180 60.297" fill="#892822"/></g><path d="M95.128 26.993v35.579-2.253c-5.735-2.618-13.51-5.076-23.41-5.936v-6.366H52.371v6.999a74.675 74.675 0 0 0-22.5 7.537v-35.56h65.256" fill="#e13d3b"/><path d="M71.717 61.095c9.817.881 17.635 3.362 23.41 6.006v26.933H29.873V69.02c5.402-2.844 13.012-5.893 22.5-7.392v7.864h19.345v-8.396" fill="#e13d3b"/></svg>