<svg xmlns="http://www.w3.org/2000/svg" viewBox="0 0 125 125" height="125" width="125"><path d="M100.538 64.063c0 21.007-17.03 38.037-38.038 38.037-21.007 0-38.038-17.03-38.038-38.038 0-21.007 17.03-38.037 38.038-38.037 21.007 0 38.038 17.03 38.038 38.038" fill="#892822"/><path d="M100.538 60.937c0 21.008-17.03 38.038-38.038 38.038-21.007 0-38.038-17.03-38.038-38.038C24.462 39.93 41.492 22.9 62.5 22.9c21.007 0 38.038 17.03 38.038 38.037" fill="#e13d3b"/><path d="M82.613 71.566l-1.362-1.37h-.217v-.22l-.157-.153.157-.156v-1.924h5.473l-3.894 3.823zm-7.201 7.068l-1.737-1.743 4.117-4.04 1.735 1.747-4.115 4.036zm-1.789-8.438h-3.704v-3.678h2.47v1.225h1.234v2.453zm-5.413 15.51l-1.737-1.747 4.117-4.039 1.735 1.746-4.115 4.04zm-5.709 5.599l-2.628-2.566 1.732-1.748.894.869.89-.874 1.734 1.746-2.622 2.573zm-5.71-5.579l-4.111-4.019 1.73-1.75 4.112 4.019-1.731 1.75zm-5.405-17.883h1.235v-1.228h2.47v3.681h-3.705v-2.453zm-1.79 10.854l-4.111-4.018 1.73-1.75 4.113 4.015-1.732 1.753zm-5.617-8.62v.22h-.223l-1.354 1.369-3.91-3.823h5.486v1.921l.155.154-.155.159zm2.222-2.234h2.964v2.453h-2.964v-2.453zm6.42-9.754h2.47v4.876h-2.47V58.09zm0-8.53h2.47v4.876h-2.47v-4.876zm0-8.53h2.47v4.875h-2.47V41.03zm0-7.334h3.704v2.456H55.09v1.223h-2.47v-3.68zm7.416 0h4.946v2.456h-4.946v-2.456zm9.886 12.176l.002-4.857 2.47.003-.001 4.854h-2.471zm2.467 12.15v4.856l-2.47-.003v-4.858l2.47.005zm-2.47-3.65l.003-4.851h2.47l-.001 4.853-2.471-.002zm-1.23-20.676h3.707l-.002 3.679h-2.47v-1.223H68.69v-2.456zm7.156 34.048h2.963v2.453h-2.963v-2.453" fill="#fff"/></svg>