<svg xmlns="http://www.w3.org/2000/svg" viewBox="0 0 125 125" height="125" width="125"><path d="M95.584 24.624v78.853H72.172V90.848H52.828v12.629H29.416V24.624h66.168" fill="#892822"/><path d="M95.584 21.523v78.853H72.172V87.747H52.828v12.63H29.416V21.522h66.168" fill="#e13d3b"/><path d="M46.909 40.856v.29c0 2.503-1.016 4.947-4.3 4.947-3.514 0-4.609-2.25-4.609-7.198 0-4.946 1.094-7.197 4.631-7.197 3.965 0 4.197 2.91 4.197 4.346v.251h-2.225v-.232c0-1.279-.392-2.754-1.994-2.695-1.639 0-2.38 1.009-2.38 5.468 0 4.463.742 5.59 2.38 5.59 1.857 0 2.075-2.058 2.075-3.338v-.232h2.225M54.072 40.662l-1.6-6.826h-.04l-1.66 6.826h3.3zm-2.966-8.69h2.851l3.67 13.85h-2.322l-.861-3.397h-4.08l-.902 3.396h-2.32l3.964-13.85M67.175 40.856v.29c0 2.503-1.015 4.947-4.297 4.947-3.516 0-4.61-2.25-4.61-7.198 0-4.946 1.093-7.197 4.63-7.197 3.966 0 4.2 2.91 4.2 4.346v.251h-2.23v-.232c0-1.279-.39-2.754-1.99-2.695-1.643 0-2.383 1.009-2.383 5.468 0 4.463.74 5.59 2.383 5.59 1.857 0 2.07-2.058 2.07-3.338v-.232h2.227M68.732 31.972h2.23v5.547h4.1v-5.547h2.224v13.85h-2.224v-6.44h-4.1v6.44h-2.23v-13.85M79.59 31.972h7.541v1.862H81.82v3.84h4.997v1.863H81.82v4.42h5.466v1.863H79.59V31.972" fill="#fff"/></svg>