<svg xmlns="http://www.w3.org/2000/svg" viewBox="0 0 125 125" height="125" width="125"><path d="M44.433 42.835H80.63v-9.572H44.433v9.572z" fill="#892822" fill-rule="evenodd"/><path d="M76.281 24.973h-27.5l-3.75.65v3.1h35v-3.1l-3.75-.65M62.525 37.952l33.133 4.883v2.895c0 4.314-14.833 7.787-33.133 7.787-18.29 0-33.12-3.473-33.12-7.787v-3.1l33.12-4.678" fill="#892822"/><path d="M62.525 58.885c13.84 0 25.694-1.985 30.65-4.814l1.619-2.75.657-2.445v3.1L84.617 98.226c0 2.873-9.887 5.182-22.092 5.182-12.193 0-22.078-2.31-22.078-5.182L29.611 51.975v-3.1l2.447 5.291c5.053 2.779 16.792 4.72 30.467 4.72" fill="#892822"/><path d="M44.434 39.734H80.63v-9.571H44.434v9.57z" fill="#e13d3b" fill-rule="evenodd"/><path d="M76.282 21.873h-27.5l-3.75 3.75h35l-3.75-3.75M62.525 34.851c18.3 0 33.133 3.484 33.133 7.778 0 4.314-14.833 7.787-33.133 7.787-18.29 0-33.12-3.473-33.12-7.787 0-4.294 14.83-7.778 33.12-7.778" fill="#e13d3b"/><path d="M62.525 55.785c17.059 0 31.098-3.015 32.927-6.91L84.618 95.127c0 2.872-9.887 5.182-22.093 5.182-12.191 0-22.077-2.31-22.077-5.182L29.612 48.875c1.83 3.895 15.868 6.91 32.913 6.91" fill="#e13d3b"/></svg>