<svg xmlns="http://www.w3.org/2000/svg" viewBox="0 0 125 125" height="125" width="125"><path d="M26.79 28.9l-6.86 3.431v60.202l6.86 3.428 16.804-33.54-16.805-33.52" fill="#892822"/><path d="M62.498 87.302L26.79 95.943V28.902l35.71 8.645L79.374 62.53 62.498 87.302" fill="#e13d3b"/><path d="M62.498 87.302l35.708 8.641 6.169-32.662-6.169-34.38-35.708 8.646v49.755" fill="#892822"/><path d="M98.207 28.9l6.862 3.431v60.202l-6.862 3.428v-67.06" fill="#e13d3b"/><path d="M46.928 73.525l15.57 1.982L74.845 62.53 62.499 49.552l-15.571 1.952v22.02" fill="#892822"/><path d="M78.072 40.856l-15.574 2.838-15.57-2.838 15.57-29.809 15.574 29.809" fill="#581c1b"/><path d="M78.072 84.145l-15.574-2.857-15.57 2.857 15.57 29.808 15.574-29.808" fill="#f3a2a3"/><path d="M78.072 40.856l-15.574-3.853V11.047l15.574 7.787v22.022" fill="#e13d3b"/><path d="M46.928 40.856l15.57-3.853V11.047l-15.57 7.787v22.022" fill="#892822"/><path d="M62.498 113.953l15.573-7.785V84.145L62.499 88v25.954" fill="#e13d3b"/><path d="M62.498 113.953l-15.572-7.785V84.145L62.498 88v25.954" fill="#892822"/><path d="M78.072 73.525l-15.574 1.982V49.552l15.574 1.952v22.02" fill="#e13d3b"/></svg>