<svg xmlns="http://www.w3.org/2000/svg" viewBox="0 0 125 125" height="125" width="125"><path d="M95.584 24.624v78.853H72.172V90.848H52.828v12.629H29.416V24.624h66.168" fill="#892822"/><path d="M95.584 21.523v78.853H72.172V87.747H52.828v12.63H29.416V21.522h66.168" fill="#e13d3b"/><path d="M84.733 62.372l-1.125 2.25c-.625 1.25-2 1.75-3.25 1.125l-.25-.125c-1.25-.625-1.75-2-1.125-3.25l1.125-2.25c.625-1.25 2-1.75 3.25-1.125l.25.125c1.25.625 1.75 2 1.125 3.25zm-6.5 16.5l-.625-2.375c-.375-1.375.5-2.625 1.75-3h.25c1.375-.375 2.625.5 3 1.75l.625 2.25c.038.14-4.625 2.625-5 1.375zm-2.038-8.558a1.842 1.842 0 0 1-.087-1.817c.375-.875 1.5-1.375 2.5-.875.437.25.75.656.906 1.11.156.453-3.13 1.884-3.319 1.582zm-3.212-1.817v.25c-.25 1.375-1.375 2.25-2.75 2.125l-2.375-.25c-1.375-.25-2.25-1.375-2.125-2.75v-.25c.25-1.375 1.375-2.25 2.75-2.125l2.375.25c1.375.25 2.25 1.375 2.125 2.75zm-19 3.625c-1.375 0-2.375-1.125-2.375-2.5v-.25c0-1.375 1.125-2.375 2.5-2.375h2.5c1.375 0 2.375 1.125 2.375 2.5v.25c0 1.375-1.125 2.375-2.5 2.375h-2.5zm-6.875-1.5a1.875 1.875 0 1 1 0-3.75 1.875 1.875 0 0 1 0 3.75zm-4.625-7.875l-.75-2.375c-.5-1.25.25-2.75 1.5-3.125l.25-.125c1.25-.5 2.75.25 3.125 1.5l.75 2.375c.5 1.25-.25 2.75-1.5 3.125l-.25.125c-1.25.5-2.75-.25-3.125-1.5zm1.25 13l-1.875 1.5c-1 .875-4.18-2.406-3.729-3.244.15-.28.354-.537.604-.756l1.875-1.625c1.125-.875 2.625-.625 3.5.375v.25c.875 1.125.625 2.625-.375 3.5zM84.53 55.63c-1.395-.646-3.24-1.21-4.687-1.363-.933-.099-2.517 1.693-3.434 1.786-4.551.457-8.74 3.196-10.802 7.57-1.817 3.848-1.624 8.152.111 11.741.295.61-8.145 1.828-7.676 1.176 1.594-2.22 2.565-4.894 2.565-7.792 0-7.142-5.626-12.994-12.68-13.357-.23-.012-1.718-1.945-1.951-1.945-2.328 0-3.327.396-5.235 1.446-.393.216-.71 2.581-1.079 2.835-3.504 2.414-5.805 6.454-5.805 11.021 0 7.375 6 13.375 13.375 13.375 2.375 0 4.625-.625 6.5-1.75.75.125 1.5.125 2.375.125 0 0 6.375.75 13.125-.875.875.625 1.75 1.25 2.75 1.75 6.75 3.125 14.75.25 17.875-6.375 2.765-5.861.93-12.8-4.204-16.485-.669-.48-.345-2.523-1.123-2.883" fill="#892822"/><path d="M84.733 59.273l-1.125 2.25c-.625 1.25-2 1.75-3.25 1.125l-.25-.125c-1.25-.625-1.75-2-1.125-3.25l1.125-2.25c.625-1.25 2-1.75 3.25-1.125l.25.125c1.25.625 1.75 2 1.125 3.25zm-3.25 18.125l-.25.125c-1.375.375-2.625-.5-3-1.75l-.625-2.375c-.375-1.375.5-2.625 1.75-3h.25c1.375-.375 2.625.5 3 1.75l.625 2.25c.375 1.375-.5 2.625-1.75 3zm-4.5-9.5c-.875-.375-1.375-1.5-.875-2.5.375-.875 1.5-1.375 2.5-.875.875.5 1.25 1.625.875 2.5s-1.5 1.375-2.5.875zm-4-2.5v.25c-.25 1.375-1.375 2.25-2.75 2.125l-2.375-.25c-1.375-.25-2.25-1.375-2.125-2.75v-.25c.25-1.375 1.375-2.25 2.75-2.125l2.375.25c1.375.25 2.25 1.375 2.125 2.75zm-19 3.625c-1.375 0-2.375-1.125-2.375-2.5v-.25c0-1.375 1.125-2.375 2.5-2.375h2.5c1.375 0 2.375 1.125 2.375 2.5v.25c0 1.375-1.125 2.375-2.5 2.375h-2.5zm-6.875-1.5a1.875 1.875 0 1 1 0-3.75 1.875 1.875 0 0 1 0 3.75zm-4.625-7.875l-.75-2.375c-.5-1.25.25-2.75 1.5-3.125l.25-.125c1.25-.5 2.75.25 3.125 1.5l.75 2.375c.5 1.25-.25 2.75-1.5 3.125l-.25.125c-1.25.5-2.75-.25-3.125-1.5zm1.25 13l-1.875 1.5c-1 .875-2.5.625-3.375-.375l-.125-.25c-.875-1-.625-2.5.375-3.375l1.875-1.625c1.125-.875 2.625-.625 3.5.375v.25c.875 1.125.625 2.625-.375 3.5zm39.75-18.5c-6.75-3.125-14.75-.25-17.875 6.375-2.125 4.5-1.5 9.625 1.125 13.5-3.125.75-6.625 1.25-10.25 1.25 2.5-2.5 4.125-5.875 4.125-9.625 0-7.375-6-13.375-13.375-13.375s-13.375 6-13.375 13.375 6 13.375 13.375 13.375c2.375 0 4.625-.625 6.5-1.75.75.125 1.5.125 2.375.125 0 0 6.375.75 13.125-.875.875.625 1.75 1.25 2.75 1.75 6.75 3.125 14.75.25 17.875-6.375s.375-14.625-6.375-17.75M51.116 42.093h-2.16l-5.042-14.286h2.06l4.082 12.385h.04l4.121-12.385H56.2l-5.083 14.286M62.255 29.407h-4.762v-1.6h11.425v1.6h-4.762v12.686h-1.9V29.407M71.624 27.807h1.9v12.685h7.562v1.6h-9.462V27.808" fill="#fff"/></svg>