<svg xmlns="http://www.w3.org/2000/svg" viewBox="0 0 125 125" height="125" width="125"><path d="M30.07 48.42l9.641-1.934L51.18 57.593 39.71 66.342l-9.64-.465V48.42" fill="#892822"/><path d="M71.894 71.567l21.422 26.992 11.928-27.048-20.005-1.23-13.345 1.286M53.105 71.567L31.684 98.559 19.756 71.51l20.005-1.23 13.344 1.286" fill="#f3a2a3"/><path d="M105.244 71.511l-11.928 1.774V98.56l11.928-5.96V71.512M54.749 48.467l-15.038-1.98v19.855l15.038-.454v-17.42" fill="#e13d3b"/><path d="M70.103 48.467l15.038-2.01 8.175 10.662-8.175 9.23-15.039-.46V48.466" fill="#892822"/><path d="M94.782 48.39l-9.641-1.933v19.892l9.64-.463V48.39" fill="#e13d3b"/><path d="M47.072 45.011L62.5 41.92l11.32 14.484L62.5 67.44l-15.428-.743V45.011" fill="#892822"/><path d="M75.176 35.453l-12.75 2.982-12.75-2.982L62.5 11.047l12.676 24.406" fill="#581c1b"/><path d="M71.894 71.567l21.422 1.718V98.56l-21.422-5.772v-21.22M19.756 71.511l11.928 1.774V98.56l-11.928-5.96V71.512" fill="#892822"/><path d="M53.105 71.567l-21.421 1.718V98.56l21.421-5.772v-21.22" fill="#e13d3b"/><path d="M85.14 74.501l-22.642-2.153L39.859 74.5 62.5 113.953l22.64-39.452" fill="#f3a2a3"/><path d="M85.14 74.501L62.5 77.878v36.075l22.64-11.31V74.5" fill="#e13d3b"/><path d="M39.86 74.501l22.64 3.377v36.075l-22.64-11.31V74.5" fill="#892822"/><path d="M77.78 44.99L62.5 41.918v25.52l15.28-.736V44.989M75.176 17.422L62.5 11.047v20.58l12.676 3.826V17.422" fill="#e13d3b"/><path d="M49.676 17.422L62.5 11.047v20.58l-12.824 3.826V17.422" fill="#892822"/></svg>