<svg xmlns="http://www.w3.org/2000/svg" viewBox="0 0 40 53.75" height="53.75" width="40"><path d="M38.286 22.276L31.87 28.37H.748l8.06-6.094h29.478" fill="#087bbb"/><path d="M38.286 22.276L31.87 28.37H.748l8.06-6.094h29.478z" fill="none" stroke="#fff" stroke-width=".5"/><path d="M.748 51.91H31.87V28.37H.748v23.54z" fill="#78b3da"/><path d="M.748 51.91H31.87V28.37H.748v23.54z" fill="none" stroke="#fff" stroke-width=".5"/><path d="M37.651 46.129V22.594l-5.966 5.776v23.54l5.966-5.781" fill="#328fc7"/><path d="M37.651 46.129V22.594l-5.966 5.776v23.54l5.966-5.781z" fill="none" stroke="#fff" stroke-width=".5"/><path d="M38.286.48L31.87 6.574H.748L8.808.48h29.478" fill="#087bbb"/><path d="M38.286.48L31.87 6.574H.748L8.808.48h29.478z" fill="none" stroke="#fff" stroke-width=".5"/><path d="M.748 28.59H31.87V6.574H.748V28.59z" fill="#087bbb"/><path d="M.748 28.59H31.87V6.574H.748V28.59z" fill="none" stroke="#fff" stroke-width=".5"/><path d="M37.651 22.809V.792l-5.966 5.782V28.59l5.966-5.781" fill="#087bbb"/><path d="M37.651 22.81V.792l-5.966 5.781V28.59l5.966-5.78z" fill="none" stroke="#fff" stroke-width=".5"/><path d="M13.418 17.081H8.755V15.88l-1.753 1.772 1.753 1.773v-1.201h4.662V17.08M16.05 20.856v4.662h-1.201l1.772 1.753 1.773-1.753h-1.202v-4.662H16.05M16.05 14.581V9.924h-1.201l1.772-1.759 1.773 1.759h-1.202v4.657H16.05M19.824 18.224h4.658v1.2l1.763-1.772-1.763-1.772v1.201h-4.658v1.143" fill="#fff"/><path d="M24.116 25.133c-.873.924-4.892-1.616-8.97-5.67-4.081-4.051-6.68-8.085-5.805-9.008.88-.927 4.893 1.611 8.974 5.669 4.078 4.049 6.675 8.087 5.801 9.009z" fill="none" stroke="#fff" stroke-width=".434625"/><path d="M23.886 10.387c.924.875-1.616 4.888-5.669 8.97-4.057 4.077-8.09 6.675-9.013 5.8-.923-.873 1.616-4.892 5.668-8.97 4.054-4.082 8.087-6.68 9.014-5.8z" fill="none" stroke="#fff" stroke-width=".434625"/><path d="M18.53 20.362a3.394 3.394 0 0 0 .835-4.735 3.4 3.4 0 0 0-4.736-.836 3.394 3.394 0 0 0-.83 4.732 3.398 3.398 0 0 0 4.73.84" fill="#bfbebe"/><path d="M15.264 36.364H7.44M18.203 33.82h8.657" fill="none" stroke="#fff" stroke-width="1.78125"/><path d="M24.819 30.861v5.708l3.442-2.739-3.442-2.969" fill="#fff"/><path d="M24.819 30.86v5.709l3.442-2.74-3.442-2.969z" fill="none" stroke="#fff" stroke-width=".2375"/><path d="M8.243 39.274v-5.708L4.8 36.31l3.443 2.964" fill="#fff"/><path d="M8.243 39.274v-5.709L4.8 36.31l3.443 2.964z" fill="none" stroke="#fff" stroke-width=".2375"/><path d="M15.264 46.676H7.44M18.203 44.133h8.657" fill="none" stroke="#fff" stroke-width="1.78125"/><path d="M24.819 41.174v5.707l3.442-2.738-3.442-2.97" fill="#fff"/><path d="M24.819 41.173v5.708l3.442-2.74-3.442-2.968z" fill="none" stroke="#fff" stroke-width=".2375"/><path d="M8.243 49.586V43.88L4.8 46.623l3.443 2.963" fill="#fff"/><path d="M8.243 49.586v-5.708L4.8 46.623l3.443 2.963z" fill="none" stroke="#fff" stroke-width=".2375"/></svg>