<svg xmlns="http://www.w3.org/2000/svg" viewBox="0 0 61.25 32.5" height="32.5" width="61.25"><defs><clipPath id="a"><path d="M0 10v241h489V10H0z"/></clipPath></defs><g clip-path="url(#a)" transform="matrix(.13 0 0 -.13 0 32.5)"><path d="M5.66 126.73l144.301 116.68h333.09L363.629 126.73H5.66" fill="#087bbb"/><path d="M5.66 126.73l144.301 116.68h333.09L363.629 126.73H5.66z" fill="none" stroke="#fff" stroke-width="4"/><path d="M363.629 10.79l119.422 117.39v117.89L363.629 126.73V10.79" fill="#087bbb"/><path d="M363.629 10.79l119.422 117.39v117.89L363.629 126.73V10.79z" fill="none" stroke="#fff" stroke-width="4"/><path d="M6.129 10.68h357.5v116.05H6.129V10.68z" fill="#087bbb"/><path d="M6.129 10.68h357.5v116.05H6.129V10.68z" fill="none" stroke="#fff" stroke-width="4"/><path d="M217.969 108.719s4.801.511 5.859-4.262l1.051-18.316 31.961-5.313L260 87.75l-7.969 22.027c-40.98 10.114-68.281 6.911-68.281 6.911h1.559s-21.559 3.203-62.539-6.911l-7.969-22.027 3.211-6.922 31.91 5.313 1.058 18.316c1.051 4.773 5.86 4.262 5.86 4.262h61.129" fill="#fff"/><path d="M153.91 21.918h66.95V90.32h-66.95V21.918z" fill="#231f20"/><path d="M153.91 21.918h66.95V90.32h-66.95V21.918z" fill="none" stroke="#fff" stroke-width="4" stroke-miterlimit="1"/><text style="-inkscape-font-specification:Helvetica-Bold" transform="matrix(10 0 0 -10 163.906 26.602)" font-weight="700" font-size="8.145" font-family="Helvetica" fill="#fff"><tspan y="0" x="0">V</tspan></text><path d="M139.73 154.309c0-6.918-14.57-12.5-32.5-12.5-17.968 0-32.5 5.582-32.5 12.5 0 6.871 14.532 12.5 32.5 12.5 17.93 0 32.5-5.629 32.5-12.5" fill="#a7a5a6"/><path d="M139.73 162.238c0-6.918-14.57-12.5-32.5-12.5-17.968 0-32.5 5.582-32.5 12.5 0 6.91 14.532 12.5 32.5 12.5 17.93 0 32.5-5.59 32.5-12.5" fill="#fff"/></g></svg>