<svg xmlns="http://www.w3.org/2000/svg" viewBox="0 0 55 41.25" height="41.25" width="55"><path d="M.708 39.19h47.685V7.862H.708V39.19z" fill="#087bbb"/><path d="M.708 39.19h47.685V7.863H.708V39.19z" fill="none" stroke="#fff" stroke-width=".5"/><path d="M53.877 31.169l-5.484 8.022V7.862l5.484-6.65V31.17" fill="#087bbb"/><path d="M53.877 31.168l-5.484 8.022V7.863l5.484-6.65v29.955z" fill="none" stroke="#fff" stroke-width=".5"/><path d="M8.935 1.212h44.942l-5.484 6.65H.708l8.227-6.65" fill="#087bbb"/><path d="M8.935 1.213h44.942l-5.484 6.65H.708l8.227-6.65z" fill="none" stroke="#fff" stroke-width=".5"/><path d="M7.676 16.095l-4.239.01v-1.27l4.24-.004v-1.982l4.623 2.616-4.624 2.618v-1.988M7.676 24.015l-4.239.005v-1.27l4.24-.004v-1.982L12.3 23.38l-4.624 2.617v-1.982M7.676 31.93l-4.239.005v-1.27l4.24-.004V28.68l4.623 2.62-4.624 2.618V31.93M43.36 24.094l-5.552.008v-1.268l5.552-.005.004-1.983 4.625 2.618-4.625 2.617-.004-1.987M16.148 23.951a9.162 9.162 0 0 0 9.165 9.165v-9.165h-9.165M25.313 14.781c5.064 0 9.165 4.108 9.165 9.17h-9.166v-9.17" fill="#fff"/></svg>