<svg xmlns="http://www.w3.org/2000/svg" viewBox="0 0 61.25 27.5" height="27.5" width="61.25"><path d="M.82 25.194h44.654V15.56H.82v9.634z" fill="#087bbb"/><path d="M.82 25.193h44.654V15.56H.82v9.633z" fill="none" stroke="#fff" stroke-width=".5"/><path d="M.703 15.632L18.74 1.014h41.665L45.43 15.632H.703" fill="#087bbb"/><path d="M.703 15.632L18.74 1.013h41.665L45.43 15.633H.703z" fill="none" stroke="#fff" stroke-width=".5"/><path d="M45.449 25.647L60.36 10.794l.01-9.752L45.45 15.614v10.033" fill="#087bbb"/><path d="M45.449 25.647L60.36 10.794l.01-9.75-14.922 14.57v10.033z" fill="none" stroke="#fff" stroke-width=".5"/><path d="M29.634 4.808l1.006 3.32-6.851-.854 1.918-.699-6.996-3.803 2.7-1.026 6.655 3.589 1.568-.527M33.007 11.775l-1.152-3.197 6.788.878-1.23.587 7.602 3.568-2.812 1.119-7.525-3.706-1.67.75M47.295 2.141l7.495.571-.966 2.955-1.588-.937-15.415 3.602-3.017-1.596L49.306 3.23l-2.011-1.089M14.678 14.68l-6.94-1.102.836-3.096 1.723 1.073L25.91 8.373l2.972 1.67-15.946 3.373 1.743 1.264M3.921 22.23h9.532v-3.906H3.92v3.906zM32.011 22.23h9.531v-3.906h-9.53v3.906z" fill="#fff"/></svg>