<svg xmlns="http://www.w3.org/2000/svg" viewBox="0 0 27.5 47.5" height="47.5" width="27.5"><defs><clipPath id="a"><path d="M0 10v361h215V10H0z"/></clipPath></defs><g clip-path="url(#a)" transform="matrix(.13 0 0 -.13 0 47.5)"><path d="M210.391 50.05l-38.243-37.3v315.738l38.243 37.301V50.051" fill="#02709f"/><path d="M210.391 50.05l-38.243-37.3v315.738l38.243 37.301V50.051z" fill="none" stroke="#fff" stroke-width="4"/><path d="M4.922 12.75h167.227v315.738H4.922V12.75z" fill="#02709f"/><path d="M4.922 12.75h167.227v315.738H4.922V12.75z" fill="none" stroke="#fff" stroke-width="4"/><path d="M43.16 365.789h167.231l-38.243-37.301H4.922l38.238 37.301" fill="#02709f"/><path d="M43.16 365.789h167.231l-38.243-37.301H4.922l38.238 37.301z" fill="none" stroke="#fff" stroke-width="4"/><path d="M50.27 251.301h72.269v42.5h-72.27v-42.5zM36.48 203.609c5.79 0 10.508 4.68 10.508 10.5 0 5.821-4.719 10.508-10.508 10.508-5.82 0-10.539-4.687-10.539-10.508 0-5.82 4.72-10.5 10.54-10.5M36.48 165.359c5.79 0 10.508 4.692 10.508 10.508 0 5.821-4.719 10.512-10.508 10.512-5.82 0-10.539-4.691-10.539-10.512 0-5.816 4.72-10.508 10.54-10.508M36.48 127.078c5.79 0 10.508 4.731 10.508 10.551 0 5.781-4.719 10.512-10.508 10.512-5.82 0-10.539-4.731-10.539-10.512 0-5.82 4.72-10.551 10.54-10.551M36.48 88.84c5.79 0 10.508 4.73 10.508 10.55 0 5.778-4.719 10.508-10.508 10.508-5.82 0-10.539-4.73-10.539-10.507 0-5.82 4.72-10.551 10.54-10.551M36.48 50.598c5.79 0 10.508 4.722 10.508 10.511 0 5.82-4.719 10.54-10.508 10.54-5.82 0-10.539-4.72-10.539-10.54 0-5.789 4.72-10.511 10.54-10.511" fill="#fff"/><path d="M50.27 217.32h68.011M50.27 179.07h68.011M50.27 140.789h68.011M50.27 102.551h68.011M50.27 64.309h68.011" fill="none" stroke="#fff" stroke-width="4"/><path d="M134.219 203.609c5.82 0 10.511 4.68 10.511 10.5a10.489 10.489 0 0 1-10.511 10.508 10.486 10.486 0 0 1-10.508-10.508c0-5.82 4.687-10.5 10.508-10.5M134.219 165.359c5.82 0 10.511 4.692 10.511 10.508a10.492 10.492 0 0 1-10.511 10.512 10.489 10.489 0 0 1-10.508-10.512 10.489 10.489 0 0 1 10.508-10.508M134.219 127.078c5.82 0 10.511 4.731 10.511 10.551 0 5.781-4.691 10.512-10.511 10.512-5.821 0-10.508-4.731-10.508-10.512 0-5.82 4.687-10.551 10.508-10.551M134.219 88.84c5.82 0 10.511 4.73 10.511 10.55 0 5.778-4.691 10.508-10.511 10.508-5.821 0-10.508-4.73-10.508-10.507 0-5.82 4.687-10.551 10.508-10.551M134.219 50.598c5.82 0 10.511 4.722 10.511 10.511 0 5.82-4.691 10.54-10.511 10.54-5.821 0-10.508-4.72-10.508-10.54 0-5.789 4.687-10.511 10.508-10.511" fill="#fff"/></g></svg>