<svg xmlns="http://www.w3.org/2000/svg" viewBox="0 0 42.5 25" height="25" width="42.5"><path d="M41.621 21.442V1.486L39.62 3.244V23.2l2.002-1.758" fill="#02709f"/><path d="M41.621 21.442V1.485l-2.002 1.76v19.954l2.002-1.757z" fill="none" stroke="#fff" stroke-width=".5"/><path d="M.664 23.165h38.911V3.283H.664v19.882z" fill="#02709f"/><path d="M.664 23.166h38.911V3.283H.664v19.883z" fill="none" stroke="#fff" stroke-width=".5"/><path d="M41.621 1.496H2.71L.664 3.283h38.911l2.046-1.787" fill="#02709f"/><path d="M41.621 1.496H2.71L.664 3.283h38.911l2.046-1.787z" fill="none" stroke="#fff" stroke-width=".5"/><path d="M41.621 1.496l-2.046 1.787" fill="#02709f"/><path d="M41.621 1.496l-2.046 1.787M23.457 6.833l2.045-1.788c7.228 8.443 1.666 15.01 1.666 15.01h9.585M7.998 6.613L5.953 4.826l.384 15.23H1.924" fill="none" stroke="#fff" stroke-width=".5"/><path d="M7.998 8.902c0-1.996 2.07-2.29 2.07-2.29h12.227c2.51 0 2.436 2.364 2.436 2.364v9.903c0 1.4-1.919 1.992-1.919 1.992h-12.45c-1.773 0-2.364-1.846-2.364-1.846V8.902" fill="#02709f"/><path d="M7.998 8.903c0-1.998 2.07-2.29 2.07-2.29h12.227c2.51 0 2.436 2.364 2.436 2.364v9.9c0 1.403-1.919 1.994-1.919 1.994h-12.45c-1.773 0-2.364-1.846-2.364-1.846V8.903zM36.752 7.556h-9.585M6.337 7.556H1.924M5.953 4.826h18.652" fill="none" stroke="#fff" stroke-width=".5"/></svg>