<svg xmlns="http://www.w3.org/2000/svg" viewBox="0 0 47.5 48.75" height="48.75" width="47.5"><path d="M.317 9.926c0 4.943 10.298 8.942 22.993 8.942 12.696 0 22.989-4 22.989-8.942V38.31c0 4.938-10.293 8.941-22.989 8.941-12.695 0-22.993-4.003-22.993-8.94V9.925"/><path d="M.317 9.927c0 4.942 10.298 8.94 22.993 8.94 12.696 0 22.989-3.998 22.989-8.94v28.384c0 4.936-10.293 8.94-22.989 8.94-12.695 0-22.993-4.004-22.993-8.94V9.927z" fill="none" stroke="#fff" stroke-width=".5"/><path d="M46.23 9.926c0 4.943-10.293 8.942-22.987 8.942-12.7 0-22.994-4-22.994-8.942V38.31c0 4.938 10.293 8.941 22.994 8.941 12.694 0 22.987-4.003 22.987-8.94V9.925" fill="#087bbb"/><path d="M46.23 9.927c0 4.942-10.293 8.94-22.987 8.94-12.7 0-22.994-3.998-22.994-8.94v28.384c0 4.936 10.293 8.94 22.994 8.94 12.694 0 22.987-4.004 22.987-8.94V9.927z" fill="none" stroke="#fff" stroke-width=".5"/><path d="M23.243 18.868c12.695 0 22.987-4 22.987-8.942 0-4.936-10.292-8.94-22.987-8.94C10.543.986.249 4.99.249 9.926c0 4.943 10.293 8.942 22.994 8.942" fill="#087bbb"/><path d="M23.243 18.867c12.695 0 22.987-3.998 22.987-8.94C46.23 4.99 35.938.986 23.243.986 10.543.986.249 4.99.249 9.927c0 4.942 10.293 8.94 22.994 8.94z" fill="none" stroke="#fff" stroke-width=".5"/><path d="M18.315 6.123l1.9 2.847-7.177 1.66 1.567-1.309L3.511 7.426l2.783-2.085 10.704 1.813 1.317-1.031M28.418 13.027l-1.3-2.935L33.595 8.8l-1.119 1.006 10.791 1.845-2.592 2.071-10.728-2.017-1.528 1.323M24.878 4.57l7.25-1.987.088 3.106-1.816-.343-3.54 2.935-3.374-.493 3.653-2.87-2.261-.348M21.768 15.703l-6.904 1.294-.259-3.193 1.986.435 3.8-3.248 3.364.571-4.058 3.54 2.07.6M18.632 35.709h8.61V27.1h-8.61v8.609z" fill="#fff"/><path d="M18.632 35.709h8.61v-8.61h-8.61v8.61z" fill="none" stroke="#000" stroke-width=".5"/><path d="M12.857 20.996l.004 3.574-6.48.005-.004-3.569 6.48-.01" fill="#fff"/><path d="M12.857 20.996l.004 3.574-6.48.005-.004-3.57 6.48-.009z" fill="none" stroke="#000" stroke-width=".5"/><path d="M12.857 29.921l.004 3.575-6.48.005-.004-3.57 6.48-.01" fill="#fff"/><path d="M12.857 29.922l.004 3.574-6.48.005-.004-3.57 6.48-.009z" fill="none" stroke="#000" stroke-width=".5"/><path d="M12.857 38.335l.004 3.569-6.48.005-.004-3.57 6.48-.004" fill="#fff"/><path d="M12.857 38.335l.004 3.57-6.48.005-.004-3.57 6.48-.005z" fill="none" stroke="#000" stroke-width=".5"/><path d="M26.191 38.335v3.569l-6.479.005v-3.57l6.48-.004" fill="#fff"/><path d="M26.191 38.335v3.57l-6.479.005v-3.57l6.48-.005z" fill="none" stroke="#000" stroke-width=".5"/><path d="M39.941 20.996v3.574l-6.479.005v-3.569l6.48-.01" fill="#fff"/><path d="M39.941 20.996v3.574l-6.479.005v-3.57l6.48-.009z" fill="none" stroke="#000" stroke-width=".5"/><path d="M26.191 20.996v3.574l-6.479.005v-3.569l6.48-.01" fill="#fff"/><path d="M26.191 20.996v3.574l-6.479.005v-3.57l6.48-.009z" fill="none" stroke="#000" stroke-width=".5"/><path d="M39.941 29.921v3.575l-6.479.005v-3.57l6.48-.01" fill="#fff"/><path d="M39.941 29.922v3.574l-6.479.005v-3.57l6.48-.009z" fill="none" stroke="#000" stroke-width=".5"/><path d="M39.941 38.335v3.569l-6.479.005v-3.57l6.48-.004" fill="#fff"/><path d="M39.941 38.335v3.57l-6.479.005v-3.57l6.48-.005z" fill="none" stroke="#000" stroke-width=".5"/><path d="M9.77 31.508h26.875M22.895 23.383v16.875M10.864 40.258l24.844-17.344M35.239 40.258L10.395 22.914" fill="none" stroke="#fff" stroke-width="1"/></svg>