<svg xmlns="http://www.w3.org/2000/svg" viewBox="0 0 33.75 42.5" height="42.5" width="33.75"><path d="M.884 40.691h20.2V5.461H.884v35.23z" fill="#2b659d"/><path d="M.884 40.69h20.2V5.46H.884v35.23zM.874 38.288h20.112" fill="none" stroke="#fff" stroke-width=".5"/><path d="M20.107 32.565a3.882 3.882 0 0 1-3.882 3.882 3.883 3.883 0 1 1 0-7.768 3.886 3.886 0 0 1 3.882 3.886z" fill="none" stroke="#fff" stroke-width=".75"/><path d="M17.31 32.565c0 .596-.489 1.085-1.085 1.085-.6 0-1.084-.489-1.084-1.085a1.085 1.085 0 0 1 2.169 0" fill="#fff"/><path d="M17.31 32.565a1.085 1.085 0 1 1-2.168-.001 1.085 1.085 0 0 1 2.168.001z" fill="none" stroke="#fff" stroke-width=".5"/><path d="M9.736 32.57a3.883 3.883 0 1 1-7.763 0 3.883 3.883 0 0 1 7.763 0z" fill="none" stroke="#fff" stroke-width=".75"/><path d="M4.288 34.143l3.134-3.14M4.288 31.003l3.134 3.14" fill="none" stroke="#fff" stroke-width="1" stroke-linecap="round"/><path d="M14.824 24.04a3.884 3.884 0 1 1-7.768 0 3.883 3.883 0 1 1 7.768 0z" fill="none" stroke="#fff" stroke-width=".75"/><path d="M10.19 25.749l-1.269-1.27M13.066 22.873l-2.876 2.876" fill="none" stroke="#fff" stroke-width="1" stroke-linecap="round"/><path d="M.884 5.461l7.118-4.39h19.483l-6.401 4.39H.884" fill="#2b659d"/><path d="M.884 5.46l7.118-4.388h19.483L21.084 5.46H.884z" fill="none" stroke="#fff" stroke-width=".5"/><path d="M21.094 40.725l6.275-5.113V1.105L21.094 5.31v35.415" fill="#2b659d"/><path d="M21.094 40.724l6.275-5.112V1.105L21.094 5.31v35.415z" fill="none" stroke="#fff" stroke-width=".5"/><path d="M.874 18.762h20.112" fill="none" stroke="#fff" stroke-width=".375"/><path d="M2.485 11.809h9.375V7.956H2.485v3.853z" fill="#2b659d"/><path d="M2.485 11.808h9.375V7.956H2.485v3.852zM3.422 10.012h7.608" fill="none" stroke="#fff" stroke-width=".5"/><path d="M27.29 17.145h.6c4.523 0 5.24 4.063 5.24 4.063v-4.22s-.717-4.062-5.24-4.062h-.723" fill="#fff"/><path d="M27.29 17.145h.6c4.523 0 5.24 4.063 5.24 4.063v-4.219s-.717-4.062-5.24-4.062h-.723" fill="none" stroke="#231f20" stroke-width=".5"/><path d="M33.13 16.755v5c-.494 5.937-11.02 5.625-11.02 5.625v4.375l-6.875-6.875 6.875-6.875v4.375s10.707.312 11.02-5.625" fill="#fff"/><path d="M33.13 16.755v5c-.494 5.938-11.02 5.625-11.02 5.625v4.375l-6.875-6.875 6.875-6.875v4.375s10.707.313 11.02-5.625" fill="none" stroke="#000" stroke-width=".5"/></svg>