<svg xmlns="http://www.w3.org/2000/svg" viewBox="0 0 31.25 30" height="30" width="31.25"><defs><clipPath id="a"><path d="M0 10v227h250V10H0z"/></clipPath></defs><g clip-path="url(#a)" transform="matrix(.13 0 0 -.13 0 30)"><path d="M161.559 170.828l58.953-112.312" fill="#706d6e"/><path d="M192.66 233.906H90.7l-31.13-18.16H161.56l31.101 18.16" fill="#087bbb"/><path d="M192.66 233.906H90.7l-31.13-18.16H161.56l31.101 18.16z" fill="none" stroke="#fff" stroke-width="4"/><path d="M220.621 58.516V13.598l29.418 18.129v44.918L192.66 188.988v44.918l-31.101-18.16v-44.918" fill="#087bbb"/><path d="M220.621 58.516V13.598l29.418 18.129v44.918L192.66 188.988v44.918l-31.101-18.16v-44.918" fill="none" stroke="#fff" stroke-width="4"/><path d="M220.512 58.637l-58.953 112.308v-.117 44.918H59.57v-44.918.117L2.54 58.637l.19-.121V13.598h218.008v44.918l-.226.12" fill="#087bbb"/><path d="M220.512 58.637l-58.953 112.308v-.117 44.918H59.57v-44.918.117L2.54 58.637l.19-.121V13.598h218.008v44.918l-.226.12z" fill="none" stroke="#fff" stroke-width="4"/><path d="M109.801 115.945h6.058V71.687h30.039L112.73 32.078l-32.96 39.61H109.8v44.257M115.859 116.055h-6.058v44.3H79.769l33.161 39.571 32.968-39.571h-30.039v-44.3" fill="#fff"/></g></svg>