<svg xmlns="http://www.w3.org/2000/svg" viewBox="0 0 55 41.25" height="41.25" width="55"><path d="M.708 39.19h47.685V7.862H.708V39.19z" fill="#087bbb"/><path d="M.708 39.19h47.685V7.863H.708V39.19z" fill="none" stroke="#fff" stroke-width=".5"/><path d="M53.877 31.169l-5.484 8.022V7.862l5.484-6.65V31.17" fill="#087bbb"/><path d="M53.877 31.168l-5.484 8.022V7.863l5.484-6.65v29.955z" fill="none" stroke="#fff" stroke-width=".5"/><path d="M8.935 1.212h44.942l-5.484 6.65H.708l8.227-6.65" fill="#087bbb"/><path d="M8.935 1.213h44.942l-5.484 6.65H.708l8.227-6.65z" fill="none" stroke="#fff" stroke-width=".5"/><path d="M7.676 16.095l-4.239.01v-1.269l4.24-.005v-1.982l4.623 2.616-4.624 2.617v-1.987M7.676 24.015l-4.239.005v-1.268l4.24-.006v-1.982L12.3 23.38l-4.624 2.617v-1.982M7.676 31.93l-4.239.005v-1.269l4.24-.005V28.68l4.623 2.62-4.624 2.618V31.93M40.039 22.975l5.552-.01v1.27l-5.552.005v1.983l-4.629-2.618 4.629-2.618v1.988" fill="#fff"/><path d="M43.36 24.094l-5.552.01v-1.27l5.552-.005.004-1.983 4.625 2.618-4.625 2.617-.004-1.987" fill="#fff"/><path d="M16.757 26.413h17.495v-9.937c-.058-.732-1.352-.679-1.352-.679H24.11v-1.806h-5.868v1.358h-1.48l-.006 11.064" fill="#087bbb"/><path d="M16.757 26.413h17.495v-9.936c-.058-.733-1.352-.679-1.352-.679H24.11v-1.807h-5.868v1.357h-1.48l-.006 11.065z" fill="none" stroke="#fff" stroke-width=".5"/><path d="M15.341 27.975h17.496V18.04c-.058-.733-1.348-.674-1.348-.674h-8.794V15.56h-5.869v1.352h-1.48l-.005 11.064" fill="#087bbb"/><path d="M15.341 27.976h17.496V18.04c-.058-.733-1.348-.676-1.348-.676h-8.794v-1.806h-5.869v1.353h-1.48l-.005 11.065z" fill="none" stroke="#fff" stroke-width=".5"/><path d="M13.658 29.626h17.5v-9.932c-.055-.738-1.343-.679-1.343-.679h-8.804V17.21h-5.87v1.357h-1.478l-.005 11.06" fill="#087bbb"/><path d="M13.658 29.625h17.5v-9.93c-.055-.738-1.343-.68-1.343-.68h-8.804v-1.807h-5.87v1.357h-1.478l-.005 11.06z" fill="none" stroke="#fff" stroke-width=".5"/></svg>