<svg xmlns="http://www.w3.org/2000/svg" viewBox="0 0 40 35" height="35" width="40"><path d="M.591 34.888h34.57V4.668H.591v30.22z" fill="#087bbb"/><path d="M.591 34.888h34.57V4.668H.591v30.22z" fill="none" stroke="#fff" stroke-width=".5"/><path d="M4.575.586L.591 4.668h34.57L39.145.586H4.575" fill="#087bbb"/><path d="M4.575.586L.591 4.668h34.57L39.145.586H4.575z" fill="none" stroke="#fff" stroke-width=".5"/><path d="M39.145 30.801V.586l-3.984 4.082v30.22l3.984-4.087" fill="#087bbb"/><path d="M39.145 30.801V.586l-3.984 4.082v30.22l3.984-4.087z" fill="none" stroke="#fff" stroke-width=".5"/><path d="M3.833 32.485h28.535V7.45H3.833v25.034z" fill="#087bbb"/><path d="M3.833 32.485h28.535V7.45H3.833v25.034z" fill="none" stroke="#fff" stroke-width=".5"/><path d="M30.717 16.607c0 2.69-5.605 4.873-12.523 4.873-6.915 0-12.525-2.183-12.525-4.873v7.133c0 2.691 5.61 4.874 12.525 4.874 6.918 0 12.523-2.183 12.523-4.874v-7.133" fill="#087bbb"/><path d="M30.717 16.607c0 2.69-5.605 4.873-12.523 4.873-6.915 0-12.525-2.183-12.525-4.873v7.133c0 2.691 5.61 4.874 12.525 4.874 6.918 0 12.523-2.183 12.523-4.874v-7.133z" fill="none" stroke="#fff" stroke-width=".5"/><path d="M18.194 21.48c6.918 0 12.523-2.183 12.523-4.873 0-2.691-5.605-4.868-12.523-4.868-6.915 0-12.525 2.177-12.525 4.867 0 2.691 5.61 4.874 12.525 4.874" fill="#087bbb"/><path d="M18.194 21.48c6.918 0 12.523-2.183 12.523-4.873 0-2.691-5.605-4.868-12.523-4.868-6.915 0-12.525 2.177-12.525 4.867 0 2.691 5.61 4.874 12.525 4.874z" fill="none" stroke="#fff" stroke-width=".5"/><path d="M15.332 14.703l1.036 1.552-3.912.904.854-.714-6.04-1.03 1.514-1.138 5.83.987.719-.561M20.835 18.466l-.704-1.6 3.527-.703-.61.546 5.878 1.006-1.41 1.127-5.846-1.098-.835.722M18.906 13.857l3.95-1.083.049 1.693-.986-.19-1.929 1.602-1.84-.27 1.991-1.562-1.235-.19M17.216 19.922l-3.763.708-.143-1.744 1.085.235 2.07-1.767 1.831.312-2.212 1.93 1.132.326" fill="#fff"/></svg>