<svg xmlns="http://www.w3.org/2000/svg" viewBox="0 0 102.5 61.25" height="61.25" width="102.5"><defs><clipPath id="a"><path d="M0 9v480h820V9H0z"/></clipPath></defs><g clip-path="url(#a)" transform="matrix(.13 0 0 -.13 0 61.25)"><path d="M285.781 431.984c-144.019 28.75-220.043-45-208.012-108.75l.981-3.48c-112.23-19.102-82.809-151.52-28.98-151.52l5.308.149C41.48 106.164 172.66 42.843 245.781 74.484l4.688 5.149c26.051-55.969 118.672-65.309 210.312-67.649 79.379-2.03 125.699 4.258 159.731 39.059l5.269-1.559c127.028-10.199 184.918 77.579 157.149 140.579l6.84 1.921c43.32 11.438 48.32 111.442-26.02 126.25l1.449 3.86c32.262 65.082-43.828 126.41-149.418 114.89l-7.34 3.829c-75.589 68.429-293.132 57.261-318.32-10.43l-4.34 1.601" fill="#fff"/><path d="M285.781 431.984c-144.019 28.75-220.043-45-208.012-108.75l.981-3.48c-112.23-19.102-82.809-151.52-28.98-151.52l5.308.149C41.48 106.164 172.66 42.843 245.781 74.484l4.688 5.149c26.051-55.969 118.672-65.309 210.312-67.649 79.379-2.03 125.699 4.258 159.731 39.059l5.269-1.559c127.028-10.199 184.918 77.579 157.149 140.579l6.84 1.921c43.32 11.442 48.32 111.442-26.02 126.25l1.449 3.86c32.262 65.082-43.828 126.41-149.418 114.89l-7.34 3.829c-75.589 68.429-293.132 57.261-318.32-10.43l-4.34 1.601z" fill="none" stroke="#02709f" stroke-width="4"/></g></svg>