<svg xmlns="http://www.w3.org/2000/svg" viewBox="0 0 56.25 38.75" height="38.75" width="56.25"><path d="M.855 37.881h44.654V10.89H.855V37.88z" fill="#087bbb"/><path d="M.855 37.881h44.654V10.89H.855V37.88z" fill="none" stroke="#fff" stroke-width=".5"/><path d="M.737 10.962L14.4.512h41.66l-10.596 10.45H.737" fill="#087bbb"/><path d="M.737 10.962L14.4.512h41.66l-10.596 10.45H.737z" fill="none" stroke="#fff" stroke-width=".5"/><path d="M45.478 38.34L56.02 26.39 56.03.538 45.478 10.942V38.34" fill="#087bbb"/><path d="M45.478 38.34L56.02 26.39 56.03.538 45.478 10.942V38.34z" fill="none" stroke="#fff" stroke-width=".5"/><path d="M18.135 20.645c1.035-4.146-1.621-6.334-3.916-5.991l-.128.029c-.682-3.233-5.453-2.383-5.453-.835l.01.15c-2.242-.39-4.522 3.39-3.384 5.495l.185.136c-2.011.752-2.349 3.418-2.436 6.055-.073 2.285.156 3.622 1.406 4.6l-.054.151c-.371 3.661 2.794 5.326 5.059 4.526l.074.2c.41 1.245 4.008 1.392 4.54-.752l.142.044c2.339.928 4.55-1.264 4.135-4.307l.138-.21c2.465-2.172 2.06-8.442-.377-9.164l.059-.127M40.806 20.645c1.035-4.146-1.616-6.334-3.916-5.991l-.122.029c-.69-3.233-5.454-2.383-5.454-.835l.005.15c-2.241-.39-4.522 3.39-3.379 5.495l.18.136c-2.011.752-2.348 3.418-2.436 6.055-.074 2.285.156 3.622 1.406 4.6l-.054.151c-.371 3.661 2.793 5.326 5.064 4.526l.068.2c.41 1.245 4.013 1.392 4.546-.752l.136.044c2.344.928 4.551-1.264 4.136-4.307l.136-.21c2.467-2.172 2.067-8.442-.37-9.165l.054-.126" fill="#fff"/><path d="M12.774 20.996l-2.569-2.568-1.26 1.26-.273-3.882 3.94.219-1.367 1.363 2.569 2.573-1.04 1.035M12.774 28.584l-2.569 2.574-1.26-1.26-.273 3.88 3.94-.218-1.367-1.363 2.569-2.573-1.04-1.04M10.274 25.586H6.64v1.783l-2.939-2.554 2.94-2.632v1.933h3.633v1.47M33.476 20.996l2.574-2.568 1.255 1.26.273-3.882-3.935.219 1.367 1.363-2.569 2.573 1.035 1.035M33.476 28.584l2.574 2.574 1.255-1.26.273 3.88-3.935-.218 1.367-1.363-2.569-2.573 1.035-1.04M35.561 25.586h3.633v1.783l2.94-2.554-2.94-2.632v1.933H35.56v1.47" fill="#087bbb"/><path d="M19.288 25.63h7.207v-1.47h-7.207v1.47z" fill="#fff"/><path d="M25.561 25.586h3.633v1.783l2.94-2.554-2.94-2.632v1.933H25.56v1.47M19.98 25.586h-3.632v1.783l-2.94-2.554 2.94-2.632v1.933h3.632v1.47" fill="#087bbb"/></svg>