<svg xmlns="http://www.w3.org/2000/svg" viewBox="0 0 46.25 31.25" height="31.25" width="46.25"><path d="M46.23 9.19c0 4.941-10.293 8.94-22.987 8.94-12.7 0-22.994-3.999-22.994-8.94v13.1c0 4.936 10.293 8.94 22.994 8.94 12.695 0 22.987-4.004 22.987-8.94V9.19" fill="#087fbf"/><path d="M46.23 9.19c0 4.941-10.293 8.94-22.987 8.94-12.7 0-22.994-3.999-22.994-8.94v13.1c0 4.936 10.293 8.94 22.994 8.94 12.695 0 22.987-4.004 22.987-8.94V9.19z" fill="none" stroke="#fff" stroke-width=".5"/><path d="M23.243 18.13c12.695 0 22.987-3.999 22.987-8.94 0-4.938-10.292-8.942-22.987-8.942C10.543.248.249 4.252.249 9.19c0 4.941 10.293 8.94 22.994 8.94" fill="#087fbf"/><path d="M23.243 18.13c12.695 0 22.987-3.999 22.987-8.94 0-4.938-10.292-8.942-22.987-8.942C10.543.248.249 4.252.249 9.19c0 4.941 10.293 8.94 22.994 8.94z" fill="none" stroke="#fff" stroke-width=".5"/><path d="M17.994 5.694l1.894 2.846-7.178 1.66 1.567-1.304L3.19 6.997l2.777-2.084 10.709 1.81 1.319-1.03M28.091 12.598l-1.299-2.935 6.474-1.294-1.117 1.006 10.791 1.846-2.594 2.07-10.722-2.016-1.533 1.323M24.551 4.14l7.25-1.986.09 3.11-1.817-.346-3.54 2.933-3.375-.492 3.652-2.872-2.26-.347M21.445 15.279l-6.909 1.288-.259-3.193 1.988.435 3.799-3.248 3.364.571-4.058 3.54 2.075.607M22.095 24.688h6.699v1.132l2.525-1.67-2.525-1.679v1.133h-6.699v1.084M21.939 22.828l6.293-2.29.39 1.063 1.803-2.436-2.95-.712.391 1.068-6.294 2.29.367 1.017M21.939 25.425l6.293 2.29.39-1.065 1.803 2.437-2.95.713.391-1.07-6.294-2.29.367-1.015M11.709 24.688h6.46v1.132l2.525-1.67-2.525-1.679v1.133h-6.46v1.084" fill="#fff"/></svg>