<svg xmlns="http://www.w3.org/2000/svg" viewBox="0 0 55 41.25" height="41.25" width="55"><path d="M.708 39.19h47.685V7.862H.708V39.19z" fill="#087bbb"/><path d="M.708 39.19h47.685V7.863H.708V39.19z" fill="none" stroke="#fff" stroke-width=".5"/><path d="M53.877 31.169l-5.484 8.022V7.862l5.484-6.65V31.17" fill="#087bbb"/><path d="M53.877 31.168l-5.484 8.022V7.863l5.484-6.65v29.955z" fill="none" stroke="#fff" stroke-width=".5"/><path d="M8.935 1.212h44.942l-5.484 6.65H.708l8.227-6.65" fill="#087bbb"/><path d="M8.935 1.213h44.942l-5.484 6.65H.708l8.227-6.65z" fill="none" stroke="#fff" stroke-width=".5"/><path d="M11.426 16.095l-7.989.01v-1.27l7.99-.004v-1.982l4.623 2.616-4.624 2.618v-1.988M11.426 24.015l-7.989.005v-1.27l7.99-.004v-1.982l4.623 2.616-4.624 2.617v-1.982M11.426 31.93l-7.989.005v-1.269l7.99-.005V28.68l4.623 2.62-4.624 2.618V31.93M38.061 22.975l7.984-.01v1.27l-7.984.005-.005 1.983-4.623-2.618 4.623-2.618.005 1.988M31.645 19.025c0 1.074-2.87 1.944-6.415 1.944s-6.421-.87-6.421-1.944v8.047c0 1.075 2.876 1.943 6.421 1.943 3.545 0 6.415-.868 6.415-1.943v-8.047" fill="#fff"/><path d="M25.22 20.969c3.545 0 6.42-.87 6.42-1.944 0-1.074-2.875-1.944-6.42-1.944s-6.421.87-6.421 1.944c0 1.074 2.876 1.944 6.421 1.944" fill="#087bbb"/><path d="M25.22 20.968c3.545 0 6.42-.869 6.42-1.943s-2.875-1.943-6.42-1.943-6.421.869-6.421 1.943 2.876 1.943 6.421 1.943z" fill="none" stroke="#fff" stroke-width="1"/><path d="M25.23 29.973c3.545 0 6.415-.874 6.415-1.95 0-1.073-2.87-1.942-6.415-1.942s-6.421.87-6.421 1.943c0 1.075 2.876 1.949 6.421 1.949" fill="#fff"/><path d="M25.23 29.972c3.545 0 6.415-.874 6.415-1.948 0-1.075-2.87-1.943-6.415-1.943s-6.421.868-6.421 1.943c0 1.074 2.876 1.948 6.421 1.948z" fill="none" stroke="#fff" stroke-width="1"/></svg>