<svg xmlns="http://www.w3.org/2000/svg" viewBox="0 0 46.25 32.5" height="32.5" width="46.25"><path d="M.708 30.442h39.565v-23.1H.708v23.1z" fill="#087bbb"/><path d="M.708 30.442h39.565v-23.1H.708v23.1z" fill="none" stroke="#fff" stroke-width=".5"/><path d="M45.01 23.51l-4.736 6.934V7.342l4.736-5.74V23.51" fill="#087bbb"/><path d="M45.01 23.51l-4.736 6.934V7.342l4.736-5.74V23.51z" fill="none" stroke="#fff" stroke-width=".5"/><path d="M7.817 1.601H45.01l-4.736 5.741H.708l7.11-5.74" fill="#087bbb"/><path d="M7.817 1.601H45.01l-4.736 5.741H.708l7.11-5.74z" fill="none" stroke="#fff" stroke-width=".5"/><path d="M30.239 18.739h5.478l.044 1.226 2.799-1.782-2.799-1.875-.044 1.328H30.19l.049 1.103M34.917 28.007a1.024 1.024 0 0 1-1.211-.777 1.007 1.007 0 0 1 .776-1.205 1.008 1.008 0 0 1 1.207.771 1.018 1.018 0 0 1-.771 1.211" fill="#fff"/><path d="M34.917 28.007a1.024 1.024 0 0 1-1.211-.777 1.007 1.007 0 0 1 .776-1.205 1.008 1.008 0 0 1 1.207.771 1.018 1.018 0 0 1-.771 1.211z" fill="none" stroke="#000" stroke-width=".475"/><path d="M36.66 27.967c0 .817-.664 1.486-1.484 1.486a1.487 1.487 0 0 1-1.485-1.486c0-.82.664-1.483 1.485-1.483.82 0 1.484.663 1.484 1.483" fill="#fff"/><path d="M36.66 27.967c0 .817-.664 1.486-1.484 1.486a1.487 1.487 0 0 1-1.485-1.486c0-.82.664-1.483 1.485-1.483.82 0 1.484.663 1.484 1.483z" fill="none" stroke="#000" stroke-width=".475"/><path d="M36.337 26.737l-1.898 2.9-8.39-5.497 1.9-2.901 8.388 5.498" fill="#fff"/><path d="M36.337 26.737l-1.898 2.9-8.39-5.497 1.9-2.9 8.388 5.497z" fill="none" stroke="#000" stroke-width=".475"/><path d="M17.651 8.92c-5.122 1.127-8.368 6.216-7.24 11.337 1.127 5.123 6.216 8.37 11.336 7.242 5.118-1.128 8.37-6.215 7.238-11.338-1.129-5.122-6.211-8.368-11.334-7.241" fill="#fff"/><path d="M17.651 8.92c-5.122 1.127-8.368 6.216-7.24 11.337 1.127 5.123 6.216 8.37 11.336 7.242 5.118-1.128 8.37-6.215 7.238-11.338-1.129-5.122-6.211-8.368-11.334-7.241z" fill="none" stroke="#000" stroke-width=".475"/><path d="M10.083 17.826H7.27l.049 1.104h3.057M12.226 23.73l-4.009 2.603.645.902 4.117-2.68M12.09 12.065L8.574 9.784l-.561.948 3.427 2.226M21.46 26.2c-4.404.972-8.779-1.821-9.751-6.23-.972-4.405 1.82-8.78 6.226-9.751 4.409-.971 8.784 1.821 9.75 6.23.973 4.405-1.821 8.78-6.225 9.751" fill="#fff"/><path d="M21.46 26.2c-4.404.972-8.779-1.822-9.751-6.23-.972-4.405 1.82-8.78 6.226-9.751 4.409-.971 8.784 1.821 9.75 6.23.973 4.405-1.821 8.78-6.225 9.75z" fill="none" stroke="#000" stroke-width=".475"/><path d="M16.514 11.957V24.56l7.695-5.396h3.3v-1.807h-3.3l-7.695-5.4" fill="#0b0b0b"/><path d="M10.205 18.93h3.335l.044 1.23 2.797-1.782-2.797-1.875-.044 1.323h-3.457M12.979 24.555l1.099-.714.707 1.007 1.373-3.018-3.366-.049.684 1.138-1.25.811M11.68 12.957l1.791 1.168-.63 1.05 3.317.029-1.324-3.095-.762 1.088-1.743-1.132"/></svg>