<svg xmlns="http://www.w3.org/2000/svg" viewBox="0 0 40 53.75" height="53.75" width="40"><path d="M38.286 45.824V1.136L31.87 7.23v44.687l6.416-6.093" fill="#087bbb"/><path d="M38.286 45.824V1.136L31.87 7.23v44.687l6.416-6.093z" fill="none" stroke="#fff" stroke-width=".5"/><path d="M38.286 1.136L31.87 7.23H.748l8.06-6.094h29.478" fill="#087bbb"/><path d="M38.286 1.136L31.87 7.23H.748l8.06-6.094h29.478z" fill="none" stroke="#fff" stroke-width=".5"/><path d="M.748 38.011H31.87V7.23H.748v30.781z" fill="#087bbb"/><path d="M.748 38.011H31.87V7.23H.748v30.781z" fill="none" stroke="#fff" stroke-width=".5"/><path d="M.748 51.917H31.87V38.324H.748v13.593z" fill="#087bbb"/><path d="M.748 51.917H31.87V38.324H.748v13.593z" fill="none" stroke="#fff" stroke-width=".5"/><path d="M13.53 18.973l-4.731-4.737.801-.805-2.974-.6.6 2.973.807-.805 4.736 4.736.76-.762M11.801 22.074H5.103v-1.138l-2.53 1.675 2.53 1.679v-1.138H11.8v-1.078M12.768 25.486l-4.735 4.737-.807-.8-.6 2.974L9.6 31.79l-.801-.8 4.73-4.736-.76-.768M15.869 27.22v6.699h-1.137l1.674 2.525 1.68-2.525H16.95V27.22h-1.08M15.869 18.196v-6.699h-1.137l1.674-2.524 1.68 2.524H16.95v6.7h-1.08M19.283 26.254l4.735 4.736-.8.8 2.973.607-.605-2.975-.8.8-4.737-4.736-.766.768M21.015 23.152h6.7v1.138l2.524-1.679-2.524-1.675v1.138h-6.7v1.078M20.049 19.735l4.736-4.736.801.805.605-2.974-2.974.601.802.805-4.736 4.737.766.762" fill="#fff"/><path d="M20.518 28.28c3.158-2.213 3.93-6.568 1.713-9.726a6.984 6.984 0 1 0-1.713 9.726M20.576 45.629h6.699v1.137l2.53-1.675-2.53-1.68v1.138h-6.699v1.08M20.425 43.768l6.289-2.29.391 1.07 1.801-2.441-2.948-.71.39 1.065-6.294 2.29.37 1.016M20.425 46.366l6.289 2.29.391-1.065 1.801 2.436-2.948.714.39-1.07-6.294-2.29.37-1.015M10.195 45.629h6.455v1.137l2.53-1.675-2.53-1.68v1.138h-6.455v1.08" fill="#fff"/><path d="M7.324 40.101a2.3 2.3 0 0 0-2.3 2.3l.005 2.04c.015.162-.147.333-.39.358-.244.023-.508-.094-.523-.259v-2.027a3.152 3.152 0 1 1 6.304 0v2.212c-.015.161-.19.274-.435.264-.224-.01-.429-.298-.41-.464L9.58 42.4c0-1.27-.986-2.3-2.256-2.3"/><path d="M7.324 40.102a2.3 2.3 0 0 0-2.3 2.3l.005 2.04c.015.16-.147.332-.39.357-.244.024-.508-.094-.523-.259v-2.027a3.152 3.152 0 1 1 6.304 0v2.212c-.015.161-.19.274-.435.264-.224-.01-.429-.298-.41-.464L9.58 42.4c0-1.27-.986-2.3-2.256-2.3z" fill="none" stroke="#fff" stroke-width=".5"/><path d="M11.201 50.214a.42.42 0 0 0 .42-.42V44.65a.42.42 0 0 0-.42-.42H3.223a.417.417 0 0 0-.42.42v5.143c0 .233.186.42.42.42H11.2"/><path d="M11.201 50.214a.42.42 0 0 0 .42-.42V44.65a.42.42 0 0 0-.42-.42H3.223a.417.417 0 0 0-.42.42v5.143c0 .234.186.42.42.42H11.2z" fill="none" stroke="#fff" stroke-width=".5"/></svg>