<svg xmlns="http://www.w3.org/2000/svg" viewBox="0 0 33.75 33.75" height="33.75" width="33.75"><path d="M.684 33.531H27.68V6.065H.684v27.466z" fill="#02709f"/><path d="M.684 33.531H27.68V6.065H.684v27.466zM14.805 15.254h8.305M14.805 24.81h8.305M12.261 20.069v-8.306" fill="none" stroke="#fff" stroke-width=".5"/><path d="M19.595 20.005v8.301" fill="none" stroke="#fff" stroke-width="1.25"/><path d="M10.131 20.005v8.301M14.926 15.274h-8.3" fill="none" stroke="#fff" stroke-width=".5"/><path d="M33.212.596V27.89l-5.56 5.625V6.186l5.56-5.59" fill="#02709f"/><path d="M33.212.596V27.89l-5.56 5.625V6.186l5.56-5.59z" fill="none" stroke="#fff" stroke-width=".5"/><path d="M27.651 6.186l-.064-.156H.712L7.525.596h25.687l-5.56 5.59" fill="#02709f"/><path d="M27.651 6.186l-.064-.156H.712L7.525.596h25.687l-5.56 5.59z" fill="none" stroke="#fff" stroke-width=".5"/><path d="M14.429 14.98h8.77" fill="none" stroke="#fff" stroke-width="1.25"/><path d="M23.038 12.485v4.81l2.9-2.31-2.9-2.5" fill="#fff"/><path d="M23.038 12.485v4.81l2.9-2.31-2.9-2.5z" fill="none" stroke="#fff" stroke-width=".5"/><path d="M14.429 24.536h9.239" fill="none" stroke="#fff" stroke-width="1.25"/><path d="M23.038 22.006v4.81l2.9-2.31-2.9-2.5" fill="#fff"/><path d="M23.038 22.006v4.81l2.9-2.31-2.9-2.5z" fill="none" stroke="#fff" stroke-width=".5"/><path d="M11.885 19.795v-7.846M16.86 20.069v-8.306" fill="none" stroke="#fff" stroke-width="1.25"/><path d="M16.485 19.795v-7.846M19.219 19.732v8.93" fill="none" stroke="#fff" stroke-width=".5"/><path d="M21.631 28.306h-4.805l2.334 2.895 2.471-2.895" fill="#fff"/><path d="M21.631 28.306h-4.805l2.334 2.895 2.471-2.895z" fill="none" stroke="#fff" stroke-width=".5"/><path d="M9.751 19.732v8.93" fill="none" stroke="#fff" stroke-width="1.25"/><path d="M12.216 28.306H7.408l2.333 2.895 2.475-2.895" fill="#fff"/><path d="M12.216 28.306H7.408l2.333 2.895 2.475-2.895z" fill="none" stroke="#fff" stroke-width=".5"/><path d="M14.551 24.536h-8.93" fill="none" stroke="#fff" stroke-width="1.25"/><path d="M5.909 27.06v-4.804L3.013 24.56l2.896 2.5" fill="#fff"/><path d="M5.909 27.06v-4.804L3.013 24.56l2.896 2.5z" fill="none" stroke="#fff" stroke-width=".5"/><path d="M14.551 15.005h-8.93" fill="none" stroke="#fff" stroke-width="1.25"/><path d="M5.909 17.529v-4.804L3.013 15.03l2.896 2.5" fill="#fff"/><path d="M5.909 17.529v-4.804L3.013 15.03l2.896 2.5z" fill="none" stroke="#fff" stroke-width=".5"/><path d="M14.434 25.547a5.733 5.733 0 0 0 5.737-5.732 5.737 5.737 0 0 0-5.737-5.737 5.737 5.737 0 0 0-5.738 5.737 5.733 5.733 0 0 0 5.738 5.732" fill="#02709f"/><path d="M14.434 25.547a5.733 5.733 0 0 0 5.737-5.732 5.737 5.737 0 0 0-5.737-5.737 5.737 5.737 0 0 0-5.738 5.737 5.733 5.733 0 0 0 5.738 5.732z" fill="none" stroke="#fff" stroke-width=".5"/><path d="M22.252 11.797a.304.304 0 0 0 .302-.303V8.622a.304.304 0 0 0-.302-.302H6.957a.302.302 0 0 0-.303.302v2.872c0 .166.133.303.303.303h2.847v-1h9.101v1h3.346" fill="#fff"/><path d="M22.252 11.797a.304.304 0 0 0 .302-.303V8.622a.304.304 0 0 0-.302-.302H6.957a.302.302 0 0 0-.303.302v2.872c0 .166.133.303.303.303h2.847v-1h9.101v1h3.346z" fill="none" stroke="#fff" stroke-width=".5"/><path d="M11.788 17.846h.702v-.702h-.702v.702z"/><path d="M11.788 17.846h.702v-.702h-.702v.702z" fill="none" stroke="#fff" stroke-width=".5"/><path d="M11.788 19.409h.702v-.703h-.702v.703z"/><path d="M11.788 19.409h.702v-.703h-.702v.703z" fill="none" stroke="#fff" stroke-width=".5"/><path d="M11.788 20.971h.702v-.702h-.702v.702z"/><path d="M11.788 20.971h.702v-.702h-.702v.702z" fill="none" stroke="#fff" stroke-width=".5"/><path d="M11.788 22.534h.702v-.703h-.702v.703z"/><path d="M11.788 22.534h.702v-.703h-.702v.703z" fill="none" stroke="#fff" stroke-width=".5"/><path d="M13.35 17.846h.703v-.702h-.703v.702z"/><path d="M13.35 17.846h.703v-.702h-.703v.702z" fill="none" stroke="#fff" stroke-width=".5"/><path d="M13.35 19.409h.703v-.703h-.703v.703z"/><path d="M13.35 19.409h.703v-.703h-.703v.703z" fill="none" stroke="#fff" stroke-width=".5"/><path d="M13.35 20.971h.703v-.702h-.703v.702z"/><path d="M13.35 20.971h.703v-.702h-.703v.702z" fill="none" stroke="#fff" stroke-width=".5"/><path d="M13.35 22.534h.703v-.703h-.703v.703z"/><path d="M13.35 22.534h.703v-.703h-.703v.703z" fill="none" stroke="#fff" stroke-width=".5"/><path d="M14.913 17.846h.702v-.702h-.702v.702z"/><path d="M14.913 17.846h.702v-.702h-.702v.702z" fill="none" stroke="#fff" stroke-width=".5"/><path d="M14.913 19.409h.702v-.703h-.702v.703z"/><path d="M14.913 19.409h.702v-.703h-.702v.703z" fill="none" stroke="#fff" stroke-width=".5"/><path d="M14.913 20.971h.702v-.702h-.702v.702z"/><path d="M14.913 20.971h.702v-.702h-.702v.702z" fill="none" stroke="#fff" stroke-width=".5"/><path d="M14.913 22.534h.702v-.703h-.702v.703z"/><path d="M14.913 22.534h.702v-.703h-.702v.703z" fill="none" stroke="#fff" stroke-width=".5"/><path d="M16.475 17.846h.703v-.702h-.703v.702z"/><path d="M16.475 17.846h.703v-.702h-.703v.702z" fill="none" stroke="#fff" stroke-width=".5"/><path d="M16.475 19.409h.703v-.703h-.703v.703z"/><path d="M16.475 19.409h.703v-.703h-.703v.703z" fill="none" stroke="#fff" stroke-width=".5"/><path d="M16.475 20.971h.703v-.702h-.703v.702z"/><path d="M16.475 20.971h.703v-.702h-.703v.702z" fill="none" stroke="#fff" stroke-width=".5"/><path d="M16.475 22.534h.703v-.703h-.703v.703z"/><path d="M16.475 22.534h.703v-.703h-.703v.703z" fill="none" stroke="#fff" stroke-width=".5"/></svg>