<svg xmlns="http://www.w3.org/2000/svg" viewBox="0 0 60 73.75" height="73.75" width="60"><path d="M25.703 31.513h8.682V42.8s-8.838 2.745-8.682 2.745c.152 0 0-14.033 0-14.033" fill="#2b669e"/><path d="M29.419 22.724c16.108 0 29.165-2.472 29.165-5.523 0-3.052-13.057-5.522-29.165-5.522-16.109 0-29.17 2.47-29.17 5.522 0 3.051 13.061 5.523 29.17 5.523" fill="#fff"/><path d="M29.419 22.724c16.108 0 29.165-2.472 29.165-5.523 0-3.051-13.057-5.522-29.165-5.522-16.109 0-29.17 2.47-29.17 5.522 0 3.051 13.061 5.523 29.17 5.523z" fill="none" stroke="#231f20" stroke-width=".1875"/><path d="M29.575 32.416c16.109 0 29.009-12.164 29.009-15.215 0-3.052-13.057-5.522-29.165-5.522-16.109 0-29.17 2.47-29.17 5.522s13.217 15.215 29.326 15.215" fill="#2b669e"/><path d="M29.419 22.724c16.108 0 29.165-2.472 29.165-5.523 0-3.052-13.057-5.522-29.165-5.522-16.109 0-29.17 2.47-29.17 5.522 0 3.051 13.061 5.523 29.17 5.523" fill="#fff"/><path d="M29.419 22.724c16.108 0 29.165-2.472 29.165-5.523 0-3.051-13.057-5.522-29.165-5.522-16.109 0-29.17 2.47-29.17 5.522 0 3.051 13.061 5.523 29.17 5.523z" fill="none" stroke="#2b669e" stroke-width=".5"/><path d="M21.836 13.065c-4.604.279-8.686.816-11.875 1.529M22.143 14.222c-4.462.323-8.373.92-11.328 1.7M22.461 15.458c-4.37.38-8.135 1.05-10.855 1.91M23.091 16.904c-4.267.415-7.901 1.132-10.435 2.055M23.399 18.251c-4.053.464-7.437 1.245-9.688 2.221M23.945 19.842c-3.208.44-5.932 1.099-7.895 1.91M24.131 21.322a33.944 33.944 0 0 0-3.545.825" fill="none" stroke="#2b669e" stroke-width=".46875"/><path d="M.171 17.728L29.575 2.982l29.009 14.22" fill="none" stroke="#2b669e" stroke-width=".5"/><path d="M29.732 6.712c1.098 0 1.987-.444 1.987-.996 0-.546-.889-.995-1.988-.995s-1.987.449-1.987.995c0 .552.888.996 1.988.996" fill="#2b669e"/><path d="M29.732.951l-.625 20.469h1.406L29.73.95M22.246 39.316H36.31V33.73H22.246v5.586z" fill="#2b669e"/><path d="M24.404 37.382h4.326v-1.255h-4.326v1.255zM30.102 37.382h4.327v-1.255h-4.327v1.255z" fill="#fff"/><path d="M52.402 50.214c0 4.936-10.292 8.94-22.988 8.94-12.7 0-22.993-4.004-22.993-8.94V63.31c0 4.936 10.293 8.94 22.993 8.94 12.696 0 22.988-4.004 22.988-8.94V50.214" fill="#2b669e"/><path d="M52.402 50.213c0 4.937-10.292 8.94-22.988 8.94-12.7 0-22.993-4.003-22.993-8.94V63.31c0 4.936 10.293 8.94 22.993 8.94 12.696 0 22.988-4.004 22.988-8.94V50.213z" fill="none" stroke="#fff" stroke-width=".5"/><path d="M29.414 59.154c12.696 0 22.988-4.004 22.988-8.94 0-4.937-10.292-8.94-22.988-8.94-12.7 0-22.993 4.003-22.993 8.94 0 4.936 10.293 8.94 22.993 8.94" fill="#2b669e"/><path d="M29.414 59.154c12.696 0 22.988-4.004 22.988-8.94 0-4.937-10.292-8.94-22.988-8.94-12.7 0-22.993 4.003-22.993 8.94 0 4.936 10.293 8.94 22.993 8.94z" fill="none" stroke="#fff" stroke-width=".5"/><path d="M24.165 46.717l1.895 2.848-7.179 1.66 1.568-1.304-11.09-1.9 2.78-2.085 10.707 1.811 1.319-1.03M34.263 53.623l-1.294-2.935 6.475-1.295L38.32 50.4 49.11 52.24l-2.587 2.075-10.728-2.016-1.533 1.324M30.723 45.165l7.25-1.987.088 3.11-1.816-.347-3.535 2.935-3.379-.494 3.653-2.87-2.261-.347M27.618 56.303l-6.91 1.293-.26-3.192 1.988.428 3.799-3.246 3.365.572-4.058 3.54 2.076.605" fill="#fff"/></svg>