<svg xmlns="http://www.w3.org/2000/svg" viewBox="0 0 26.25 37.5" height="37.5" width="26.25"><path d="M.728 37.021H19.96V6.381H.728v30.64z" fill="#02709f"/><path d="M19.961 6.381H.728v30.64H19.96" fill="none" stroke="#fff" stroke-width=".5"/><path d="M19.961 37.021l6.143-6.142V.239H8.588L.728 6.38H19.96v30.64" fill="#02709f"/><path d="M19.961 37.021l6.143-6.142V.239H8.588L.728 6.38H19.96v30.64z" fill="none" stroke="#fff" stroke-width=".5"/><path d="M19.961 6.381L26.104.24" fill="#02709f"/><path d="M19.961 6.381L26.104.24M1.035 8.862h18.75" fill="none" stroke="#fff" stroke-width=".5"/><path d="M19.941 9.058l6.017-6.094" fill="#02709f"/><path d="M19.941 9.058l6.017-6.094" fill="none" stroke="#fff" stroke-width=".5"/><path d="M2.436 16.362h6.64V14.8h-6.64v1.562z" fill="#02709f"/><path d="M2.436 16.362h6.64V14.8h-6.64v1.562z" fill="none" stroke="#fff" stroke-width=".5"/><path d="M11.421 16.362h6.64V14.8h-6.64v1.562z" fill="#02709f"/><path d="M11.421 16.362h6.64V14.8h-6.64v1.562z" fill="none" stroke="#fff" stroke-width=".5"/></svg>