<svg xmlns="http://www.w3.org/2000/svg" viewBox="0 0 25 41.25" height="41.25" width="25"><path d="M.703 39.297h20.205v-21.84H.703v21.84z" fill="#087fbf"/><path d="M.703 39.297h20.205v-21.84H.703v21.84z" fill="none" stroke="#fff" stroke-width=".5"/><path d="M.703 17.416h20.205V4.214H.703v13.202z" fill="#087fbf"/><path d="M.703 17.416h20.205V4.213H.703v13.203z" fill="none" stroke="#fff" stroke-width=".5"/><path d="M.703 4.063L4.565.928h19.477L20.91 4.063H.703" fill="#087fbf"/><path d="M.703 4.062L4.565.927h19.477L20.91 4.062H.703z" fill="none" stroke="#fff" stroke-width=".5"/><path d="M20.909 39.296l3.134-3.86V14.046l-3.134 3.228v22.021" fill="#087fbf"/><path d="M20.909 39.297l3.134-3.862V14.047l-3.134 3.229v22.021z" fill="none" stroke="#fff" stroke-width=".5"/><path d="M20.909 17.388l3.134-3.413V1.138l-3.134 3.135v13.115" fill="#087fbf"/><path d="M20.909 17.387l3.134-3.412V1.137l-3.134 3.135v13.115zM.712 36.562H20.83M.712 17.349H20.83" fill="none" stroke="#fff" stroke-width=".5"/><path d="M9.272 29.111v2.891H8.145l2.26 2.89 2.325-2.89h-1.129v-2.89H9.272M9.272 26.816v-2.89H8.145l2.26-2.89 2.325 2.89h-1.129v2.89H9.272M3.384 26.949h2.89v-1.13l2.891 2.262-2.89 2.324v-1.128H3.384V26.95M17.413 26.949H14.52v-1.13l-2.89 2.262 2.89 2.324v-1.128h2.892V26.95" fill="#fff"/><path d="M20.909 8.496H.703M22.784 2.45H2.578M20.909 13.047H.703" fill="none" stroke="#fff" stroke-width=".5"/><path d="M23.94 5.879l-2.7 2.681" fill="#087fbf"/><path d="M23.94 5.878l-2.7 2.682" fill="none" stroke="#fff" stroke-width=".5"/><path d="M23.94 10.435l-2.7 2.68" fill="#087fbf"/><path d="M23.94 10.435l-2.7 2.68M22.628 2.579v12.666M6.69 4.32v4.132M14.502 4.32v4.132M6.69 13.271v4.136M14.502 13.271v4.136M10.752 8.696v4.131M2.94 8.696v4.131M18.565 8.696v4.131" fill="none" stroke="#fff" stroke-width=".5"/><path d="M10.591.884L6.69 4.243" fill="#087fbf"/><path d="M10.591.883L6.69 4.243" fill="none" stroke="#fff" stroke-width=".5"/><path d="M18.404.884l-3.902 3.359" fill="#087fbf"/><path d="M18.404.883l-3.902 3.36M24.043 13.975l-3.233 3.573H.699" fill="none" stroke="#fff" stroke-width=".5"/><path d="M24.043 33.145l-3.233 3.569" fill="#087fbf"/><path d="M24.043 33.145l-3.233 3.568" fill="none" stroke="#fff" stroke-width=".5"/></svg>