<svg xmlns="http://www.w3.org/2000/svg" viewBox="0 0 81.25 46.25" height="46.25" width="81.25"><path d="M48.891 24.336l4.365-22.954h-33.3l-4.907 22.954H48.89" fill="#087fbf"/><path d="M48.891 24.337l4.365-22.954h-33.3l-4.907 22.954H48.89z" fill="none" stroke="#fff" stroke-width=".5"/><path d="M53.256 1.382l1.304 1.685-4.063 22.26-1.606-.99 4.365-22.955" fill="#087fbf"/><path d="M53.256 1.383l1.304 1.684-4.063 22.261-1.606-.991 4.365-22.954z" fill="none" stroke="#fff" stroke-width=".5"/><path d="M15.049 24.336l1.455.992h33.993l-1.606-.992H15.05" fill="#087fbf"/><path d="M15.049 24.337l1.455.991h33.993l-1.606-.991H15.05z" fill="none" stroke="#fff" stroke-width=".5"/><path d="M49.199 25.904v3.408l-.884.767s-2.065.61-1.606 1.836l-9.224 8.574v-3.75l11.714-10.835" fill="#087fbf"/><path d="M49.199 25.904v3.408l-.884.767s-2.065.61-1.606 1.835l-9.224 8.575v-3.75l11.714-10.835z" fill="none" stroke="#fff" stroke-width=".5"/><path d="M.771 40.489h36.714v-3.75H.77v3.75z" fill="#087fbf"/><path d="M.771 40.49h36.714v-3.75H.77v3.75z" fill="none" stroke="#fff" stroke-width=".5"/><path d="M15.435 26.134l33.764-.23-11.714 10.835H.77l14.664-10.605" fill="#087fbf"/><path d="M15.435 26.133l33.764-.229L37.485 36.74H.77l14.664-10.606z" fill="none" stroke="#fff" stroke-width=".5"/><path d="M46.065 22.1l3.486-17.974h-27.08L18.985 22.1h27.08" fill="#087fbf"/><path d="M46.065 22.1l3.486-17.973h-27.08l-3.486 17.974h27.08z" fill="none" stroke="#fff" stroke-width=".5"/><path d="M16.225 26.373L7.71 33.248M18.96 26.373l-8.516 6.875M21.694 26.373l-8.515 6.875M24.429 26.373l-8.516 6.875M27.163 26.373l-8.516 6.875M29.898 26.373l-8.517 6.875M32.631 26.373l-8.515 6.875M35.366 26.373l-8.516 6.875M38.1 26.373l-8.515 6.875M40.835 26.373l-8.516 6.875M43.569 26.373l-8.515 6.875M46.304 26.373l-8.516 6.875M8.663 32.525H38.98M10.703 30.948h29.844M12.817 29.375h29.766M14.697 27.798h30.006" fill="none" stroke="#fff" stroke-linejoin="round" stroke-width=".125"/><path d="M33.159 9.953h4.892c1.188.361 1.07 1.312 1.07 1.312 0 .947-.83 1.191-.83 1.191h-8.916c-1.66-.126-1.06-1.547-1.06-1.547l3.78-4.345c.6-.607 1.977 0 1.977 0 .87.864.484 1.635.484 1.635L33.16 9.953M36.67 16.817h-4.887c-1.192-.361-1.07-1.308-1.07-1.308 0-.953.83-1.197.83-1.197h8.916c1.66.127 1.06 1.548 1.06 1.548l-3.78 4.351c-.605.6-1.978 0-1.978 0-.868-.87-.482-1.641-.482-1.641l1.39-1.753" fill="#fff"/><path d="M46.895 39.756c0 .768-.62 1.388-1.393 1.388a1.39 1.39 0 1 1 0-2.779c.773 0 1.393.625 1.393 1.391" fill="#231f20"/><path d="M71.309 42.07c-4.24 1.466-12.032 1.827-18.379.768-4.19-.699-6.807-1.861-7.423-3.081" fill="none" stroke="#000" stroke-width=".5" stroke-linejoin="round"/><path d="M54.917 34.996c.943-2.242 2.652-4.517 5.039-6.48 5.923-4.883 13.779-6.03 17.544-2.563 3.765 3.466 2.022 10.234-3.901 15.112-.561.464-1.143.894-1.734 1.284" fill="none" stroke="#000" stroke-width="1.25" stroke-linejoin="round"/><path d="M74.268 42.35a2.4 2.4 0 1 1-4.8.003 2.4 2.4 0 0 1 4.8-.003" fill="#231f20"/><path d="M74.268 42.35a2.4 2.4 0 1 1-4.8.005 2.4 2.4 0 0 1 4.8-.006z" fill="none" stroke="#fff" stroke-width=".5"/><path d="M56.284 34.981a1.39 1.39 0 0 1-2.778 0c0-.766.62-1.391 1.387-1.391.766 0 1.39.625 1.39 1.391" fill="#231f20"/></svg>