<svg xmlns="http://www.w3.org/2000/svg" viewBox="0 0 53.75 31.25" height="31.25" width="53.75"><defs><clipPath id="a"><path d="M0 10v237h430V10H0z"/></clipPath></defs><g clip-path="url(#a)" transform="matrix(.13 0 0 -.13 0 31.25)"><path d="M206.289 225.32h-96.41L3.789 71.648c92.973 0 92.973.082 93.59 0 116.25-17.07 143.91-9.218 252.582 0l78.668 126.172H401.09l18.129 27.5h-190l-20.629-27.5h-23.551l21.25 27.5" fill="#087fbf"/><path d="M206.289 225.32h-96.41L3.789 71.648c92.973 0 92.973.082 93.59 0 116.25-17.07 143.91-9.218 252.582 0l78.668 126.172H401.09l18.129 27.5h-190l-20.629-27.5h-23.551l21.25 27.5z" fill="none" stroke="#fff" stroke-width="4"/><path d="M205.43 79.73h-67.731l37.731 49.848h65.429L205.43 79.731" fill="#087fbf"/><path d="M205.43 79.73h-67.731l37.731 49.848h65.429L205.43 79.731z" fill="none" stroke="#fff" stroke-width="4"/><path d="M428.629 197.82v-92.66l-78.668-83.32v49.808l78.668 126.172" fill="#087fbf"/><path d="M428.629 197.82v-92.66l-78.668-83.32v49.808l78.668 126.172z" fill="none" stroke="#fff" stroke-width="4"/><path d="M349.961 71.648l78.668 126.172" fill="#231f20"/><path d="M349.961 71.648l78.668 126.172" fill="none" stroke="#fff" stroke-width="4"/><path d="M155.59 190.199c-12.86-14.801-28.789-32.109-38.988-48.859l.859-10.899-31.762-49.14-3.71 31.988c6.062 24.18 81.101 119.262 98.402 130.512l3.668-32-27.61-31.789-.859 10.187" fill="#087fbf"/><path d="M155.59 190.199c-12.86-14.801-28.789-32.109-38.988-48.859l.859-10.899-31.762-49.14-3.71 31.988c6.062 24.18 81.101 119.262 98.402 130.512l3.668-32-27.61-31.789-.859 10.187z" fill="none" stroke="#fff" stroke-width="4"/><path d="M22.809 113.289L19.14 81.301h66.558l-3.71 31.988h-59.18" fill="#087fbf"/><path d="M22.809 113.289L19.14 81.301h66.558l-3.71 31.988h-59.18z" fill="none" stroke="#fff" stroke-width="4"/><path d="M180.391 243.801c-17.301-11.25-92.34-106.332-98.403-130.512h-59.18c6.063 24.18 81.141 119.262 98.403 130.512h59.18" fill="#087fbf"/><path d="M180.391 243.801c-17.301-11.25-92.34-106.332-98.403-130.512h-59.18c6.063 24.18 81.141 119.262 98.403 130.512h59.18z" fill="none" stroke="#fff" stroke-width="4"/><path d="M200.469 162.039l39.019 51.52H391.68l-34.961-51.52h-156.25" fill="#fff"/><path d="M200.469 162.039l39.019 51.52H391.68l-34.961-51.52h-156.25z" fill="none" stroke="#fff" stroke-width="3.5"/><path d="M217.07 171.57l26.211 34.649H345.66l-23.551-34.649H217.07" fill="#087fbf"/><path d="M217.07 171.57l26.211 34.649H345.66l-23.551-34.649H217.07z" fill="none" stroke="#fff" stroke-width="4"/><path d="M217.699 129.578L182.27 79.731" fill="#087fbf"/><path d="M217.699 129.578L182.27 79.731" fill="none" stroke="#fff" stroke-width="4"/><path d="M196.211 129.578L160.82 79.731" fill="#087fbf"/><path d="M196.211 129.578L160.82 79.731M166.91 117.59h65.039M157.031 104.891h66.367M146.52 91.41h67.308" fill="none" stroke="#fff" stroke-width="4"/><path d="M349.961 21.84c-108.672-9.219-136.332-17.07-252.582 0H3.789v49.808c92.973 0 92.973.082 93.59 0 116.25-17.07 143.91-9.218 252.582 0V21.84" fill="#087fbf"/><path d="M349.961 21.84c-108.672-9.219-136.332-17.07-252.582 0H3.789v49.808c92.973 0 92.973.082 93.59 0 116.25-17.07 143.91-9.218 252.582 0V21.84z" fill="none" stroke="#fff" stroke-width="4"/><path d="M206.289 225.32v-27.5h-21.25l21.25 27.5" fill="#087fbf"/><path d="M206.289 225.32v-27.5h-21.25l21.25 27.5z" fill="none" stroke="#fff" stroke-width="4"/><path d="M419.219 225.32v-27.5H401.09l18.129 27.5" fill="#231f20"/><path d="M419.219 225.32v-27.5H401.09l18.129 27.5z" fill="none" stroke="#fff" stroke-width="4"/><text style="-inkscape-font-specification:Helvetica-Bold" transform="matrix(10 0 0 -10 261.637 79.102)" font-weight="700" font-size="9" font-family="Helvetica" fill="#fff"><tspan y="0" x="0 2.5020001">IP</tspan></text></g></svg>