<svg xmlns="http://www.w3.org/2000/svg" viewBox="0 0 61.25 36.25" height="36.25" width="61.25"><path d="M.708 15.774L18.74 1.19h41.641L45.454 15.774H.708" fill="#087fbf"/><path d="M.708 15.774L18.74 1.19h41.641L45.454 15.774H.708z" fill="none" stroke="#fff" stroke-width=".5"/><path d="M45.454 34.388l14.927-15.21V1.214l-14.927 14.56v18.614" fill="#087fbf"/><path d="M45.454 34.388l14.927-15.21V1.214l-14.927 14.56v18.614z" fill="none" stroke="#fff" stroke-width=".5"/><path d="M.766 34.401h44.688V15.774H.766V34.4z" fill="#087fbf"/><path d="M.766 34.402h44.688V15.774H.766v18.628z" fill="none" stroke="#fff" stroke-width=".5"/><path d="M8.364 22.707h6.762v-3.52H8.364v3.52zM30.581 22.707h6.758v-3.52H30.58v3.52zM8.364 31.506h6.762v-3.52H8.364v3.52zM30.581 31.506h6.758v-3.52H30.58v3.52z" fill="#fff"/><path d="M12.954 20.95H33.72M12.954 29.7H33.72M11.748 29.744l21.973-8.793M11.748 20.95l21.973 8.794" fill="none" stroke="#fff" stroke-width=".5"/><path d="M26.309 4.031l9.287-.908L33.81 6.09l-2.374-.453-13.901 5.248-2.485-.683 13.609-5.18-2.35-.992M37.06 7.322l9.288-.903-1.788 2.969-2.377-.46-13.897 5.25-2.485-.684L39.41 8.319l-2.349-.997" fill="#fff"/></svg>