<svg xmlns="http://www.w3.org/2000/svg" viewBox="0 0 61.25 47.5" height="47.5" width="61.25"><path d="M.82 29.846h44.649V15.35H.819v14.497z" fill="#087fbf"/><path d="M.82 29.846h44.649V15.348H.819v14.498z" fill="none" stroke="#fff" stroke-width=".5"/><path d="M.703 15.421L18.74.808h41.665L45.43 15.42H.703" fill="#087fbf"/><path d="M.703 15.42L18.74.808h41.665L45.43 15.421H.703z" fill="none" stroke="#fff" stroke-width=".5"/><path d="M45.444 30.299L60.36 15.085l.01-14.254-14.927 14.571V30.3" fill="#087fbf"/><path d="M45.444 30.3L60.36 15.084l.01-14.252-14.927 14.57V30.3z" fill="none" stroke="#fff" stroke-width=".5"/><path d="M.82 45.183h44.649v-15.67H.819v15.67z" fill="#78b5dd"/><path d="M.82 45.182h44.649V29.513H.819v15.67z" fill="none" stroke="#fff" stroke-width=".5"/><path d="M45.444 45.636L60.36 30.421l.01-15.425-14.927 14.571v16.07" fill="#78b5dd"/><path d="M45.444 45.636L60.36 30.42l.01-15.424-14.927 14.57v16.069z" fill="none" stroke="#fff" stroke-width=".5"/><path d="M32.841 7.004l2.755.692 7.563-2.08 2.754.694-1.377-2.08h-8.94l4.125.694-6.88 2.08M17.016 4.924l2.754-.694 7.569 2.08 2.748-.694-1.376 2.08H19.77l4.127-.692-6.88-2.08M45.225 11.861l-2.75.694-6.879-2.085-3.442.699 1.376-2.085h8.945l-3.441.697 6.191 2.08M29.4 9.781l-2.75-.697-6.88 2.085-3.442-.699 1.377 2.11 8.945.088-4.13-.807 6.88-2.08M23.266 27.824c3.013 0 5.455-.743 5.455-1.655 0-.914-2.442-1.651-5.455-1.651-3.012 0-5.453.737-5.453 1.651 0 .912 2.44 1.655 5.453 1.655" fill="#fff"/><path d="M23.266 27.823c3.013 0 5.455-.741 5.455-1.654 0-.913-2.442-1.65-5.455-1.65-3.012 0-5.453.737-5.453 1.65 0 .913 2.44 1.654 5.453 1.654z" fill="none" stroke="#231f20" stroke-width=".375" stroke-linecap="round" stroke-linejoin="round"/><path d="M28.721 18.523c0 .912-2.442 1.65-5.455 1.65-3.012 0-5.453-.738-5.453-1.65v6.834c0 .915 2.44 1.657 5.453 1.657 3.013 0 5.455-.742 5.455-1.657v-6.834" fill="#fff"/><path d="M28.721 18.522c0 .913-2.442 1.65-5.455 1.65-3.012 0-5.453-.737-5.453-1.65v6.836c0 .913 2.44 1.655 5.453 1.655 3.013 0 5.455-.742 5.455-1.655v-6.836z" fill="none" stroke="#231f20" stroke-width=".375" stroke-linecap="round" stroke-linejoin="round"/><path d="M23.261 20.172c3.014 0 5.455-.737 5.455-1.65 0-.913-2.441-1.656-5.455-1.656-3.012 0-5.458.743-5.458 1.656 0 .913 2.446 1.65 5.458 1.65" fill="#fff"/><path d="M23.261 20.172c3.014 0 5.455-.737 5.455-1.65 0-.914-2.441-1.655-5.455-1.655-3.012 0-5.458.741-5.458 1.655 0 .913 2.446 1.65 5.458 1.65z" fill="none" stroke="#231f20" stroke-width=".375" stroke-linecap="round" stroke-linejoin="round"/><path d="M.82 29.767h44.654" fill="none" stroke="#fff" stroke-width=".5" stroke-linecap="round" stroke-linejoin="round"/><path d="M17.93 37.081H9.58v-.761l-3.154 1.127 3.154 1.13v-.768h8.35v-.728M22.656 39.484v2.958h-2.158l3.178 1.119 3.179-1.119h-2.152v-2.958h-2.047M22.656 35.495v-2.959h-2.158l3.178-1.119 3.179 1.12h-2.152v2.958h-2.047M29.424 37.809h8.355v.767l3.149-1.129-3.15-1.127v.761h-8.354v.728" fill="#fff"/><path d="M37.119 42.198c-1.568.592-8.774-1.025-16.09-3.598-7.313-2.578-11.971-5.142-10.404-5.728 1.567-.59 8.775 1.026 16.089 3.599 7.315 2.579 11.972 5.142 10.405 5.727z" fill="none" stroke="#fff" stroke-width=".5"/><path d="M36.699 32.823c1.656.558-2.895 3.112-10.161 5.704-7.27 2.593-14.502 4.247-16.157 3.691-1.656-.556 2.89-3.11 10.161-5.703 7.266-2.593 14.502-4.243 16.157-3.692z" fill="none" stroke="#fff" stroke-width=".5"/><path d="M27.105 39.166c2.759-.684 3.428-2.031 1.498-3.007-1.933-.981-5.737-1.217-8.496-.533-2.758.684-3.427 2.032-1.493 3.008 1.928.982 5.732 1.216 8.491.532" fill="#acd0ea"/><path d="M27.105 39.167c2.759-.684 3.428-2.031 1.498-3.009-1.933-.98-5.737-1.215-8.496-.532-2.758.684-3.427 2.032-1.493 3.009 1.928.98 5.732 1.215 8.491.532z" fill="none" stroke="#fff" stroke-width=".5"/></svg>