<svg xmlns="http://www.w3.org/2000/svg" viewBox="0 0 47.5 33.75" height="33.75" width="47.5"><path d="M14.57 18.498C6.172 17.165.249 13.956.249 10.21v13.097c0 3.706 6.06 6.88 14.311 8.237l.01-13.047" fill="#1286be"/><path d="M14.57 18.497C6.172 17.165.249 13.957.249 10.212v13.095c0 3.706 6.06 6.88 14.311 8.237l.01-13.047z" fill="none" stroke="#fff" stroke-width=".5"/><path d="M14.56 31.545a52.09 52.09 0 0 0 8.683.703c12.695 0 22.987-4 22.987-8.94V10.21c0 4.941-10.292 8.941-22.987 8.941-3.072 0-5.997-.235-8.673-.655l-.01 13.048" fill="#54a2ce"/><path d="M14.56 31.544a52.09 52.09 0 0 0 8.683.703c12.695 0 22.987-3.999 22.987-8.94V10.212c0 4.941-10.292 8.94-22.987 8.94a56.26 56.26 0 0 1-8.673-.655l-.01 13.047z" fill="none" stroke="#fff" stroke-width=".5"/><path d="M32.188 1.974c-2.749-.454-5.772-.703-8.945-.703-12.7 0-22.994 4.004-22.994 8.94 0 3.678 5.698 6.832 13.847 8.204L32.188 1.974" fill="#1286be"/><path d="M32.188 1.975c-2.749-.456-5.772-.704-8.945-.704-12.7 0-22.994 4.003-22.994 8.94 0 3.677 5.698 6.831 13.847 8.203l18.091-16.44z" fill="none" stroke="#fff" stroke-width=".5"/><path d="M14.096 18.415c2.804.474 5.894.737 9.147.737 12.695 0 22.987-4 22.987-8.94 0-3.702-5.79-6.881-14.042-8.238L14.096 18.415" fill="#54a2ce"/><path d="M14.096 18.415c2.804.473 5.894.737 9.147.737 12.695 0 22.987-3.999 22.987-8.94 0-3.701-5.79-6.88-14.042-8.237l-18.092 16.44z" fill="none" stroke="#fff" stroke-width=".5"/><path d="M17.681 6.857l1.9 2.847-7.179 1.66 1.568-1.309L2.876 8.161 5.66 6.076l10.703 1.812 1.32-1.03M27.784 13.761l-1.3-2.935 6.475-1.293-1.123 1.006 10.792 1.84-2.59 2.071-10.727-2.012-1.527 1.323M24.244 5.299l7.25-1.982.084 3.105-1.813-.346-3.54 2.94-3.374-.494 3.653-2.87-2.26-.353M21.132 16.438l-6.904 1.294-.258-3.194 1.983.43 3.803-3.243 3.364.566-4.058 3.54 2.07.607" fill="#fff"/><text style="-inkscape-font-specification:Helvetica-Bold" transform="matrix(1.25 0 0 1.25 15.484 29.044)" font-weight="700" font-size="8" font-family="Helvetica" fill="#fff"><tspan y="0" x="0 2.224 7.112">ITP</tspan></text></svg>