<svg xmlns="http://www.w3.org/2000/svg" viewBox="0 0 18.75 40" height="40" width="18.75"><defs><clipPath id="a"><path d="M0 8v304h149V8H0z"/></clipPath></defs><g clip-path="url(#a)" transform="matrix(.13 0 0 -.13 0 40)"><path d="M4.84 14.809h91.37v245.117H4.84V14.809z" fill="#087fbf"/><path d="M96.21 14.809l49.142 49.18v245.077H53.981L4.84 259.926h91.37V14.809M96.21 259.926l49.142 49.14" fill="#087fbf"/><path d="M4.84 14.809h91.37v245.117H4.84V14.809z" fill="#087fbf"/><path d="M96.21 259.926H4.84V14.809h91.37" fill="none" stroke="#fff" stroke-width="4"/><path d="M96.21 14.809l49.142 49.18v245.077H53.981L4.84 259.926h91.37V14.809" fill="#087fbf"/><path d="M96.21 14.809l49.142 49.18v245.077H53.981L4.84 259.926h91.37V14.809z" fill="none" stroke="#fff" stroke-width="4"/><path d="M96.21 259.926l49.142 49.14" fill="#231f20"/><path d="M96.21 259.926l49.142 49.14" fill="none" stroke="#fff" stroke-width="4" stroke-linecap="round" stroke-linejoin="round"/><path d="M96.21 259.926H4.84V14.809h91.37" fill="none" stroke="#fff" stroke-width="4"/><path d="M96.21 14.809l49.142 49.18v245.077H53.981L4.84 259.926h91.37V14.809zM96.21 259.926l49.142 49.14" fill="none" stroke="#fff" stroke-width="4"/><path d="M80.309 74.066c0-6.09-13.04-11.02-29.137-11.02-16.133 0-29.184 4.93-29.184 11.02s13.051 10.98 29.184 10.98c16.097 0 29.137-4.89 29.137-10.98" fill="#fff"/><path d="M80.309 74.066c0-6.09-13.04-11.02-29.137-11.02-16.133 0-29.184 4.93-29.184 11.02s13.051 10.98 29.184 10.98c16.097 0 29.137-4.89 29.137-10.98z" fill="none" stroke="#231f20" stroke-width="3.5" stroke-linecap="round" stroke-linejoin="round"/><path d="M59.77 74.648c0-1.793-3.91-3.32-8.75-3.32-4.848 0-8.75 1.527-8.75 3.32 0 1.84 3.902 3.29 8.75 3.29 4.84 0 8.75-1.45 8.75-3.29" fill="#231f20"/><path d="M59.77 80.629c0-1.8-3.91-3.281-8.75-3.281-4.848 0-8.75 1.48-8.75 3.28 0 1.84 3.902 3.321 8.75 3.321 4.84 0 8.75-1.48 8.75-3.32" fill="#231f20"/><path d="M80.309 86.059c0-6.09-13.04-11.012-29.137-11.012-16.133 0-29.184 4.922-29.184 11.012 0 6.09 13.051 11.02 29.184 11.02 16.097 0 29.137-4.93 29.137-11.02" fill="#fff"/><path d="M80.309 86.059c0-6.09-13.04-11.012-29.137-11.012-16.133 0-29.184 4.922-29.184 11.012 0 6.09 13.051 11.02 29.184 11.02 16.097 0 29.137-4.93 29.137-11.02z" fill="none" stroke="#231f20" stroke-width="3.5" stroke-linecap="round" stroke-linejoin="round"/><path d="M59.77 86.648c0-1.84-3.91-3.28-8.75-3.28-4.848 0-8.75 1.44-8.75 3.28 0 1.829 3.902 3.32 8.75 3.32 4.84 0 8.75-1.491 8.75-3.32" fill="#231f20"/><path d="M59.77 92.656c0-1.789-3.91-3.32-8.75-3.32-4.848 0-8.75 1.531-8.75 3.32 0 1.801 3.902 3.32 8.75 3.32 4.84 0 8.75-1.519 8.75-3.32" fill="#231f20"/><path d="M80.309 98.047c0-6.09-13.04-10.969-29.137-10.969-16.133 0-29.184 4.879-29.184 10.969 0 6.101 13.051 11.019 29.184 11.019 16.097 0 29.137-4.918 29.137-11.02" fill="#fff"/><path d="M80.309 98.047c0-6.09-13.04-10.969-29.137-10.969-16.133 0-29.184 4.879-29.184 10.969 0 6.101 13.051 11.019 29.184 11.019 16.097 0 29.137-4.918 29.137-11.02z" fill="none" stroke="#231f20" stroke-width="3.5" stroke-linecap="round" stroke-linejoin="round"/><path d="M59.77 98.637c0-1.801-3.91-3.281-8.75-3.281-4.848 0-8.75 1.48-8.75 3.28 0 1.841 3.902 3.321 8.75 3.321 4.84 0 8.75-1.48 8.75-3.32" fill="#231f20"/><path d="M80.309 122.078c0-6.101-13.04-11.019-29.137-11.019-16.133 0-29.184 4.918-29.184 11.019 0 6.051 13.051 10.969 29.184 10.969 16.097 0 29.137-4.918 29.137-10.969" fill="#fff"/><path d="M80.309 122.078c0-6.101-13.04-11.019-29.137-11.019-16.133 0-29.184 4.918-29.184 11.019 0 6.051 13.051 10.969 29.184 10.969 16.097 0 29.137-4.918 29.137-10.969z" fill="none" stroke="#231f20" stroke-width="3.5" stroke-linecap="round" stroke-linejoin="round"/><path d="M59.77 122.656c0-1.789-3.91-3.32-8.75-3.32-4.848 0-8.75 1.531-8.75 3.32 0 1.801 3.902 3.321 8.75 3.321 4.84 0 8.75-1.52 8.75-3.321" fill="#231f20"/><path d="M59.77 128.637c0-1.801-3.91-3.282-8.75-3.282-4.848 0-8.75 1.481-8.75 3.282 0 1.84 3.902 3.32 8.75 3.32 4.84 0 8.75-1.48 8.75-3.32" fill="#231f20"/><path d="M80.309 134.066c0-6.089-13.04-11.019-29.137-11.019-16.133 0-29.184 4.93-29.184 11.019 0 6.09 13.051 10.981 29.184 10.981 16.097 0 29.137-4.891 29.137-10.981" fill="#fff"/><path d="M80.309 134.066c0-6.089-13.04-11.019-29.137-11.019-16.133 0-29.184 4.93-29.184 11.019 0 6.09 13.051 10.981 29.184 10.981 16.097 0 29.137-4.891 29.137-10.981z" fill="none" stroke="#231f20" stroke-width="3.5" stroke-linecap="round" stroke-linejoin="round"/><path d="M59.77 134.648c0-1.793-3.91-3.32-8.75-3.32-4.848 0-8.75 1.527-8.75 3.32 0 1.84 3.902 3.29 8.75 3.29 4.84 0 8.75-1.45 8.75-3.29" fill="#231f20"/><path d="M59.77 140.668c0-1.84-3.91-3.32-8.75-3.32-4.848 0-8.75 1.48-8.75 3.32 0 1.801 3.902 3.281 8.75 3.281 4.84 0 8.75-1.48 8.75-3.281" fill="#231f20"/><path d="M80.309 146.059c0-6.09-13.04-11.012-29.137-11.012-16.133 0-29.184 4.922-29.184 11.012 0 6.089 13.051 11.019 29.184 11.019 16.097 0 29.137-4.93 29.137-11.019" fill="#fff"/><path d="M80.309 146.059c0-6.09-13.04-11.012-29.137-11.012-16.133 0-29.184 4.922-29.184 11.012 0 6.089 13.051 11.019 29.184 11.019 16.097 0 29.137-4.93 29.137-11.019z" fill="none" stroke="#231f20" stroke-width="3.5" stroke-linecap="round" stroke-linejoin="round"/><path d="M59.77 146.648c0-1.839-3.91-3.281-8.75-3.281-4.848 0-8.75 1.442-8.75 3.281 0 1.829 3.902 3.321 8.75 3.321 4.84 0 8.75-1.492 8.75-3.321" fill="#231f20"/><path d="M80.309 170.047c0-6.059-13.04-10.981-29.137-10.981-16.133 0-29.184 4.922-29.184 10.981 0 6.09 13.051 11.012 29.184 11.012 16.097 0 29.137-4.922 29.137-11.012" fill="#fff"/><path d="M80.309 170.047c0-6.059-13.04-10.981-29.137-10.981-16.133 0-29.184 4.922-29.184 10.981 0 6.09 13.051 11.012 29.184 11.012 16.097 0 29.137-4.922 29.137-11.012z" fill="none" stroke="#231f20" stroke-width="3.5" stroke-linecap="round" stroke-linejoin="round"/><path d="M59.77 170.668c0-1.84-3.91-3.32-8.75-3.32-4.848 0-8.75 1.48-8.75 3.32 0 1.801 3.902 3.281 8.75 3.281 4.84 0 8.75-1.48 8.75-3.281" fill="#231f20"/><path d="M59.77 176.648c0-1.839-3.91-3.281-8.75-3.281-4.848 0-8.75 1.442-8.75 3.281 0 1.829 3.902 3.321 8.75 3.321 4.84 0 8.75-1.492 8.75-3.321" fill="#231f20"/><path d="M80.309 182.078c0-6.101-13.04-11.019-29.137-11.019-16.133 0-29.184 4.918-29.184 11.019 0 6.051 13.051 10.969 29.184 10.969 16.097 0 29.137-4.918 29.137-10.969" fill="#fff"/><path d="M80.309 182.078c0-6.101-13.04-11.019-29.137-11.019-16.133 0-29.184 4.918-29.184 11.019 0 6.051 13.051 10.969 29.184 10.969 16.097 0 29.137-4.918 29.137-10.969z" fill="none" stroke="#231f20" stroke-width="3.5" stroke-linecap="round" stroke-linejoin="round"/><path d="M59.77 182.656c0-1.789-3.91-3.32-8.75-3.32-4.848 0-8.75 1.531-8.75 3.32 0 1.84 3.902 3.282 8.75 3.282 4.84 0 8.75-1.442 8.75-3.282" fill="#231f20"/><path d="M59.77 188.637c0-1.801-3.91-3.282-8.75-3.282-4.848 0-8.75 1.481-8.75 3.282 0 1.84 3.902 3.32 8.75 3.32 4.84 0 8.75-1.48 8.75-3.32" fill="#231f20"/><path d="M80.309 194.066c0-6.089-13.04-11.019-29.137-11.019-16.133 0-29.184 4.93-29.184 11.019 0 6.051 13.051 10.981 29.184 10.981 16.097 0 29.137-4.93 29.137-10.981" fill="#fff"/><path d="M80.309 194.066c0-6.089-13.04-11.019-29.137-11.019-16.133 0-29.184 4.93-29.184 11.019 0 6.051 13.051 10.981 29.184 10.981 16.097 0 29.137-4.93 29.137-10.981z" fill="none" stroke="#231f20" stroke-width="3.5" stroke-linecap="round" stroke-linejoin="round"/><path d="M59.77 194.648c0-1.832-3.91-3.281-8.75-3.281-4.848 0-8.75 1.449-8.75 3.281 0 1.84 3.902 3.329 8.75 3.329 4.84 0 8.75-1.489 8.75-3.329" fill="#231f20"/></g></svg>