<svg xmlns="http://www.w3.org/2000/svg" viewBox="0 0 45 61.25" height="61.25" width="45"><g fill-rule="evenodd"><path d="M44.053 11.456l-.068-1.137-.132-1.134-.333-1.132-.331-1.002-.528-1-.532-.933-.659-.933-.727-.8-.792-.733-.927-.668-.928-.533-.991-.532-.991-.336L34.99.25 33.862.118 32.74.05l-1.192.068-1.122.132-1.06.333-1.055.336-.995.532-.924.533-.864.668-.79.733-.728.8-.659.933-.533.933-.527 1-.333 1.002-.33 1.132-.133 1.134-.063 1.137.063 1.064.068 1.002.195.932.333.932-.728-.33-.527-.27-.395-.132-.401-.2h-.332l-.263.132-.197.2-5.16 5.538-.132.2-.069.2-.062.263.062.27.138.4.395 1 .396 1.133.331.933-.264.337-.594.595-.133.138-.068.2-.063.13v.47l.063.663v1.334l-.263.269-.464.531-.729.801-.927.933-1.054 1.132-1.192 1.27-1.192 1.333-1.322 1.402-1.255 1.333-1.191 1.332-1.192 1.27-.991 1.065-.86.938-.664.731-.458.465-.138.136-.131.2-.064.264v.269l.064.2 1.455 3.998.13.27.201.2.264.063.268.069 5.29-.133.2-.067.194-.064.137-.068.127-.132L9.59 47.2l.131-.138.064-.13.069-.201v-1.333l-.069-.6h.596l.595-.07h.728l.2-.063.132-.068.131-.132 1.324-1.401.2-.269.064-.4-.133-.333-.194-.264-.2-.268-.132-.332v-.4l.264-.4.262-.2.333-.137h.395l.396.268.332.2.332.068.333-.067.33-.201 1.256-1.402.132-.131.068-.2.063-.133v-.8l-.063-.532v-.606l.591-.063h1.324l.131-.068.2-.132.133-.069.13-.132.265-.332.332-.337.264-.331h.795l.327-.069.332.337.4.464.397.4.263.332-.132 3.536-.2 7.001-.264 6.87-.132 3.071.069.264.063.2.132.201.2.2 3.706 2.002.264.132h.263l.333-.132.195-.132 3.906-3.672.128-.131.067-.133.07-.2v-.136l.062-1.934V53.2l-.132-.2-.067-.131-.128-.138-.269-.264-.395-.4-.396-.468.465-.4.395-.402.264-.262.131-.138.133-.13.068-.134.063-.2.069-.2.064-1.87-.064-.4-.2-.263-.264-.201-.395-.068-.333-.064-.263-.205-.264-.264-.069-.468.069-.333.195-.33.264-.201.463-.069.397-.063.268-.205.196-.264.13-.4.07-1.865v-.206l-.07-.132-.13-.2-.064-.132-.132-.132-.268-.337-.397-.4-.395-.395.464-.401.395-.4.264-.27.133-.13.13-.138.138-.2.063-.13V36.86l.464-.4.596-.468.464-.464.195-.201.068-.132.133-.205.067-.132v-.2l.064-1.733.659-.67.533-.732.527-.732.464-.8.332-.865.264-.933.195-.938.069-1v-1.134l-.197-1.063-.267-1.07-.328-1 1.519-.733 1.322-1.001 1.192-1.133 1.055-1.333.796-1.401.595-1.533.396-1.665.137-1.734zM2.646 46.197l.597-.6.722-.8.864-.933.99-1.07 1.056-1.133 1.191-1.264 1.128-1.27 1.187-1.265 1.191-1.2 1.06-1.202 1.06-1.132.927-1.002.791-.801.596-.668.464-.464.195-.27.132.138.137.063.064.137.13.131-.194.2-.464.464-.596.67-.727.8-.928 1.001-.991 1.066-1.123 1.132-1.129 1.269-1.19 1.27-1.123 1.265-1.192 1.264-1.123 1.2-.992 1.135-.99 1-.797.87-.659.732-.069-.133-.062-.2-.069-.2-.064-.2zm16.202-11.606h-.264l-.331.068h-1.72l-.196.069-.136.068-.195.063-.132.132-.068.137-.063.132-.07.2v.469l.07.663v1.334l-.133.137-.4.4-.464-.2-.458-.07-.464.07-.396.063-.4.136-.397.2-.331.197-.264.268-.596.87-.2.863.069.801.331.733-.2.205-.131.064-.069.131-.126.136H9.785l-.327.064h-.795l-.197.069-.136.13-.127.07-.137.132-.064.2-.067.136v.464l.067.669v1.397l-.2.205-.13.195-.2.205-.197.195h-.927l-.464.069h-.991l-.528.069h-.464l13.892-15.005 1.718 1.665-.2.2-.13.2-.196.2-.137.132zm4.697-2.266l-.195.2-.401.401-.195.2h-.464l-.268.068h-1.65l-.07.063h-.063l-1.786-1.733-.397-.332-1.455-1.401L2.246 45.265l-.063-.269-.07-.2-.062-.2-.069-.201.264-.264.533-.6.727-.801.923-1 1.06-1.134 1.122-1.268 1.26-1.266 1.255-1.4 1.191-1.334 1.192-1.27 1.122-1.196.992-1.07.86-.932.664-.669.396-.464.13-.136.133-.132.068-.2.064-.132V27.99l-.064-.733v-.6l.327-.332.333-.4.263-.27.137-.13.131-.2.064-.264v-.205l-.064-.264-.131-.401-.4-1.064-.396-1.137-.332-.866.332-.33.527-.538.596-.664.664-.738.659-.732.664-.668.527-.533.332-.4.264.136.332.132.79.401.93.4.463.263.464.206h.126l.27.395.326.4.332.337.332.401.395.331.333.333.396.331.4.269.064.268.131.265.132.268.2.2.332.2.327.2.333.07h.727l.331-.137.333-.2.264-.264.395-.602.132-.732-.196-.668-.4-.6-.331-.27-.328-.2-.396-.063h-.4l-.263-.137-.2-.2-.264-.195-.264-.206.333-.13.326-.133.332-.069h.4l.396.069.395.2.397.269.463.332.068.063.063.068.464.533.333.937v1.132l-.797 1.334-.13.2-.07.332v.268l.07.264.067.138.264.463.332.6.395.802.465.8.395.732.332.67.263.468-.331.396-.528.537-.663.664-.66.738-.664.732-.595.664-.528.6-.332.337-.395-.137-.464-.131-.596-.2-.528-.2-.595-.133-.465-.136-.262-.069-.133-.064-.263-.067-.264.067-.2.064-.2.205-.064.064-.131.069-.07.131zm2.119-15.869l-.595-1.132-.533-1.27-.263-1.265-.133-1.333.201-1.739.464-1.596.791-1.47 1.059-1.265 1.255-1.069 1.455-.8 1.655-.464 1.719-.2 1.719.2 1.587.463 1.455.801 1.26 1.07 1.055 1.264.795 1.47.464 1.596.196 1.739-.132 1.397-.264 1.27-.528 1.263-.663 1.134-.86 1-.99.87-1.124.733-1.26.53-.459-.463-.464-.469-.532-.4-.595-.4-.528-.332-.659-.333-.596-.267-.663-.201-.728-.532-.727-.337-.728-.195h-.66l-.728.064-.594.131-.597.2-.527.337zm1.191 41.343l-.136-.132-.132-.068-.196-.133-.131-.067.195-4.669.2-6.733.264-6.2.063-3.067.2.063h.465l-.132 2.934-.2 6.138-.264 6.802-.196 5.132zm4.034-19.873l-.4.4-.596.533-.46.469-.332.33-.067.138-.064.2v.533l.131.131.069.136.195.201.464.464.528.6.4.469v.264l-.068.2v.269l-.464.132-.396.268-.331.332-.264.333-.2.336-.197.401-.067.4-.064.4.131 1.001.397.797.595.536.66.401v.733l-.397.4-.594.463-.464.469-.197.2-.131.133-.132.2-.068.13v.338l.068.2.064.2.332.333.464.469.527.6.396.4-.064.263v.87l-.132.131-.268.2-.264.27-.328.332-.4.331-.327.338-.4.332-.328.331.728-20.474 2.379.133v.536l-.064.264v.201zm5.156-11.734l-.132.997-.196.938-.33.932-.465.863-.396.607-.464.531-.527.464-.532.469-.063.732v1.534h-.069l-.463.4-.528.537-.464.395-.195.202-.069.067v.069l-.068.064-2.51-.133h-.464l-1.988-.067-.79 21.142-.2-.138-.196-.131-.2-.063-.2-.137.131-3.598.269-6.94.195-6.67.133-2.997v-.201l-.064-.2-.069-.132-.131-.137-.064-.131-.269-.264-.326-.337-.332-.4.2-.131.195-.2.132-.202.2-.2.395.133.465.136.595.195.597.138.527.2.464.13.33.07.134.068h.463l.264-.137.2-.132 5.093-5.537.194-.2.07-.333v-.263l-.07-.268-.062-.2-.264-.4-.332-.67-.464-.801-.464-.795-.396-.801-.332-.67-.263-.399.528-.934.33-.932.065-.869-.127-.801.723.6.732.601.528.732.526.802.401.932.264.869.131 1.001.064 1.001zm.533-5.005l-.133-.2-.136-.194-.128-.207-.136-.195 1.324-.605 1.191-.796 1.059-1.001.86-1.07.727-1.264.528-1.333.331-1.4.132-1.466-.194-1.938-.533-1.797-.86-1.602-1.191-1.402-1.386-1.2-1.588-.865-1.786-.532-1.92-.2-1.92.2-1.785.532-1.588.864-1.455 1.201L24.87 6.12l-.924 1.602-.532 1.797-.2 1.938.068 1.397.333 1.332.458 1.27.664 1.132.333.464.33.469.397.469.395.401.133.132.2.132.195.2.2.136.2.133.196.13.2.2.2.138.131.063.064.069.133.063.13.069.07.067v.133l.067.068v.268l-.067.064-.133.131-.264.138-.131-.138-.2-.062-.2-.133-.132-.067-.2-.138-.195-.13-.2-.134-.197-.136-.268-.264-.527-.4-.263-.269-.333-.332-.264-.331-.263-.338-.264-.4-.264-.332-.2-.4-.2-.332-.195-.4-.464-1.066-.332-1.137-.2-1.133-.064-1.196.2-2.07.591-2.002.991-1.734 1.26-1.596 1.587-1.27 1.787-1 1.919-.601 2.114-.2 2.051.2 1.983.6 1.723 1 1.587 1.27 1.254 1.597.992 1.734.596 2.002.2 2.07-.131 1.597-.333 1.47-.596 1.464-.728 1.333-.99 1.201-1.128 1.07-1.255.864-1.386.733" fill="#231f20"/><path d="M24.736 31.793l.133.064.262.068.465.136.595.133.528.2.596.2.464.131.395.137.332-.337.528-.6.595-.664.663-.732.66-.738.664-.664.527-.537.332-.396-.263-.469-.332-.669-.395-.732-.465-.8-.395-.801-.332-.6-.264-.464-.068-.138-.068-.264v-.268l.068-.331.131-.2.797-1.335v-1.132l-.333-.937-.464-.533-.063-.068-.068-.063-.463-.332-.397-.27-.395-.2-.396-.068h-.4l-.332.069-.326.132-.333.131.264.206.263.194.2.2.264.138h.4l.396.064.328.2.331.268.4.6.196.67-.132.731-.395.602-.264.264-.333.2-.33.136h-.728l-.333-.069-.327-.2-.331-.2-.2-.2-.133-.268-.131-.265-.064-.268-.4-.269-.396-.331-.333-.333-.395-.33-.332-.402-.332-.337-.327-.4-.269-.395h-.126l-.464-.206-.464-.263-.928-.4-.791-.401-.332-.132-.264-.136-.332.4-.527.533-.664.668-.66.732-.663.738-.596.664-.527.537-.332.331.332.866.396 1.137.4 1.064.131.401.064.264v.205l-.064.264-.131.2-.137.13-.263.27-.333.4-.327.332v.6l.064.733v1.138l-.064.132-.068.2-.132.132-.131.136-.396.464-.665.669-.86.933-.99 1.07-1.123 1.196-1.192 1.269-1.19 1.333-1.256 1.401-1.26 1.266-1.122 1.268-1.06 1.134-.923 1-.727.801-.533.6-.264.264.07.201.062.2.069.2.063.27L16.601 29.79l1.455 1.401.397.332 1.786 1.733h.064l.068-.063h1.65l.269-.068h.464l.195-.2.401-.401.195-.2.069-.131.131-.069.064-.064.2-.205.2-.064.264-.067.263.067" fill="#c1def5"/><path d="M3.901 47.199h.464l.528-.07h.99l.465-.068h.927l.196-.195.2-.205.132-.195.2-.205v-1.397l-.068-.67v-.462l.067-.137.064-.2.137-.132.127-.07.136-.13.197-.07h.795l.327-.063h1.329l.126-.136.069-.131.13-.064.201-.205-.331-.733-.069-.801.2-.864.596-.868.264-.27.331-.195.396-.2.4-.137.397-.063.464-.07.458.07.464.2.4-.4.133-.137v-1.334l-.07-.663v-.469l.07-.2.063-.132.068-.137.132-.132.195-.063.136-.068.197-.07h1.719l.331-.067h.264l.137-.132.195-.2.131-.2.2-.2-1.718-1.665L3.9 47.199" fill="#c1def5"/><path d="M16.665 31.123l-.195.27-.464.463-.596.669-.791.801-.928 1.002-1.06 1.132-1.059 1.201-1.19 1.201-1.188 1.266-1.128 1.268-1.191 1.265-1.055 1.133-.991 1.07-.864.932-.722.8-.597.601.064.2.069.2.062.2.07.133.658-.733.796-.87.991-1 .992-1.133 1.123-1.201 1.192-1.265 1.122-1.264 1.191-1.27 1.129-1.27 1.122-1.132.992-1.065.927-1 .727-.8.597-.67.464-.465.195-.2-.132-.13-.063-.138-.137-.063-.132-.138" fill="#3ca7e4"/><path d="M27.846 57.266l.328-.33.4-.333.327-.338.4-.331.328-.333.264-.268.268-.2.132-.132v-.87l.064-.263-.396-.4-.527-.6-.464-.47-.332-.332-.064-.2-.068-.2v-.337l.068-.132.132-.2.131-.132.197-.2.464-.469.594-.464.397-.4V48.6l-.66-.401-.595-.536-.397-.797-.131-1 .064-.401.067-.4.197-.401.2-.336.264-.333.33-.332.397-.268.464-.132v-.27l.067-.199v-.264l-.4-.469-.527-.6-.464-.463-.195-.202-.069-.136-.13-.131v-.533l.063-.2.067-.137.333-.331.459-.47.596-.532.4-.4v-.2l.064-.265v-.536l-2.38-.132-.727 20.473" fill="#c1def5"/><path d="M32.739.982l-2.114.2-1.919.602-1.787 1-1.586 1.27-1.26 1.596-.992 1.734-.59 2.002-.201 2.07.064 1.196.2 1.133.332 1.137.464 1.065.195.4.2.333.2.4.264.333.264.4.263.337.264.331.333.332.263.27.527.4.268.263.196.136.2.133.195.131.2.138.133.067.2.133.2.062.131.138.264-.138.133-.13.067-.065v-.269l-.067-.067v-.133l-.07-.067-.13-.069-.133-.063-.064-.07-.131-.062-.2-.137-.2-.2-.196-.132-.2-.132-.2-.136-.195-.2-.2-.133-.133-.13-.395-.402-.396-.469-.331-.469-.333-.464-.664-1.132-.458-1.27-.333-1.333-.069-1.396.2-1.938.533-1.797.924-1.602 1.122-1.402 1.455-1.2 1.588-.865 1.786-.532 1.919-.2 1.92.2 1.786.532 1.588.864 1.386 1.201 1.19 1.402.861 1.602.533 1.797.194 1.938-.132 1.465-.331 1.401-.528 1.333-.728 1.265-.86 1.069-1.058 1.001-1.191.796-1.324.605.136.195.128.207.136.194.133.2 1.386-.732 1.255-.864 1.127-1.07.991-1.201.728-1.333.596-1.465.333-1.47.131-1.596-.2-2.07-.596-2.002-.992-1.734-1.255-1.596-1.586-1.27-1.724-1-1.982-.601-2.051-.2M26.26 57.399l.131.067.196.133.132.068.136.132.196-5.132.264-6.802.2-6.137.131-2.935h-.463l-.2-.063-.064 3.066-.264 6.202-.2 6.732-.195 4.669" fill="#3ca7e4"/><path d="M32.676 19.654l.127.801-.064.869-.331.932-.528.934.263.4.332.669.396.801.464.795.464.801.332.67.264.4.063.2.068.268v.264l-.069.332-.194.2-5.093 5.537-.2.132-.264.137h-.463l-.133-.068-.331-.07-.464-.13-.527-.2-.597-.138-.595-.195-.465-.136-.395-.133-.2.2-.132.202-.195.2-.2.131.332.4.327.337.268.264.064.131.131.138.07.13.063.201v.201l-.133 2.998-.195 6.67-.268 6.939-.132 3.598.2.137.2.063.195.131.202.138.79-21.142 1.987.067h.464l2.51.133.068-.064v-.07l.07-.066.194-.202.464-.395.528-.537.463-.4h.069v-1.534l.063-.732.532-.47.528-.463.463-.531.396-.607.464-.863.331-.932.196-.938.132-.997-.063-1-.132-1.002-.264-.869-.401-.932-.526-.802-.528-.732-.732-.6-.723-.601" fill="#c1def5"/><path d="M18.32 24.991l-1.255-3.603 4.098-4.4-.328-.131-.269-.137-.263-.064-.196-.136-.332.4-.527.533-.664.668-.66.733-.663.737-.596.664-.527.538-.332.33.332.866.396 1.137.4 1.064.131.401.064.264v.205l-.064.264-.131.2-.137.13-.263.27-.333.4-.327.332v.6l.064.733v1.139l-.064.13-.068.201-.132.132-.131.137-.396.463-.665.669-.86.933-.99 1.07-1.123 1.196-1.192 1.269-1.19 1.333-1.256 1.401-1.26 1.266-1.122 1.268-1.06 1.134-.923 1-.727.801-.533.6-.264.264.07.201.062.2.069.2.063.27 14.355-15.407v-2.803l1.719-2.065M24.009 34.459l.332.4.326.337.269.264.064.131.131.138.07.13.063.201v.201l-.133 2.998-.195 6.67-.269 6.939-.13 3.598.2.137.199.063.195.131.202.138.79-21.142-1.587-1.798-.263.264-.133.069-.131.131" fill="#fff"/></g></svg>