<svg xmlns="http://www.w3.org/2000/svg" viewBox="0 0 36.25 36.25" height="36.25" width="36.25"><path d="M.249 36.25h31.885V4.096H.249V36.25z" fill="#026b9a"/><path d="M.249 36.406h31.885V4.096H.249v32.31z" fill="none" stroke="#fff" stroke-width=".19"/><path d="M18.872 8.98h7.657" fill="none" stroke="#fff" stroke-width="1.9"/><path d="M26.572 7.382v3.082l3.228-1.48-3.228-1.602" fill="#fff"/><path d="M26.572 7.382v3.082l3.228-1.48-3.228-1.602z" fill="none" stroke="#fff" stroke-width=".475"/><path d="M18.872 22.754h7.657" fill="none" stroke="#fff" stroke-width="1.9"/><path d="M26.572 21.158v3.08l3.228-1.48-3.228-1.6" fill="#fff"/><path d="M26.572 21.158v3.08l3.228-1.48-3.228-1.6z" fill="none" stroke="#fff" stroke-width=".475"/><path d="M30.034 29.975h-7.652" fill="none" stroke="#fff" stroke-width="1.9"/><path d="M22.339 31.578V28.49l-3.228 1.484 3.228 1.603" fill="#fff"/><path d="M22.339 31.578V28.49l-3.228 1.484 3.228 1.603z" fill="none" stroke="#fff" stroke-width=".475"/><path d="M30.034 16.201h-7.652" fill="none" stroke="#fff" stroke-width="1.9"/><path d="M22.339 17.797v-3.076l-3.228 1.48 3.228 1.596" fill="#fff"/><path d="M22.339 17.797v-3.076l-3.228 1.48 3.228 1.596z" fill="none" stroke="#fff" stroke-width=".475"/><path d="M14.439 16.553H5.171" fill="none" stroke="#fff" stroke-width=".95"/><path d="M5.538 17.607v-1.972l-2.188.948 2.188 1.024" fill="#fff"/><path d="M5.538 17.607v-1.972l-2.188.948 2.188 1.024z" fill="none" stroke="#fff" stroke-width=".475"/><path d="M14.439 30.092H5.171" fill="none" stroke="#fff" stroke-width=".95"/><path d="M5.538 31.143V29.17l-2.188.948 2.188 1.025" fill="#fff"/><path d="M5.538 31.143V29.17l-2.188.948 2.188 1.025z" fill="none" stroke="#fff" stroke-width=".475"/><path d="M2.564 22.871h8.955" fill="none" stroke="#fff" stroke-width=".95"/><path d="M11.47 21.821v1.968l2.188-.943-2.188-1.025" fill="#fff"/><path d="M11.47 21.821v1.968l2.188-.943-2.188-1.025z" fill="none" stroke="#fff" stroke-width=".475"/><path d="M2.564 9.331h8.955" fill="none" stroke="#fff" stroke-width=".95"/><path d="M11.47 8.281v1.973l2.188-.948-2.188-1.025" fill="#fff"/><path d="M11.47 8.281v1.973l2.188-.948-2.188-1.025z" fill="none" stroke="#fff" stroke-width=".475"/><path d="M32.065 4.078H.274L5.264.092h30.922v32.183L32.11 36.39V4.19l-.045-.112" fill="#026b9a"/><path d="M32.065 4.078H.274L5.264.092h30.922v32.183L32.11 36.39V4.19l-.045-.112z" fill="none" stroke="#fff" stroke-width=".19"/><path d="M32.1 4.042L36.221.034" fill="#026b9a"/><path d="M32.1 4.042L36.221.034M16.435 36.391V4.19" fill="none" stroke="#fff" stroke-width=".19"/></svg>