<svg xmlns="http://www.w3.org/2000/svg" viewBox="0 0 61.25 32.5" height="32.5" width="61.25"><path d="M.708 16.116L18.745 1.531h41.636L45.454 16.116H.708" fill="#087bbb"/><path d="M.708 16.117L18.745 1.532h41.636L45.454 16.117H.708z" fill="none" stroke="#fff" stroke-width=".5"/><path d="M41.616 9.236l1.11-1.107 3.465 1.576-6.079 1.749 1.377-1.816H30.41l.396-.402h10.81M34.956 5.521l-.396.395H23.261l-1.714 1.33-2.91-1.427 6.676-1.953-1.655 1.655h11.298M28.725 11.805l-.4.4H16.973l-1.714 1.275-3.018-1.426 6.837-1.9-1.544 1.651h11.191M48.013 3.987L49.12 2.88l3.471 1.517-6.083 1.75 1.323-1.763H36.7l.396-.397h10.918"/><path d="M41.67 9.618l1.109-1.11 3.031 1.305-6.084 1.748 1.544-1.543H30.136l.397-.4H41.67M34.575 5.902l-.395.395H23.042l-1.108 1.114-3.023-1.319L24.98 4.36l-1.543 1.543h11.138" fill="#fff"/><path d="M45.454 30.614L60.38 14.496V1.556l-14.927 14.56v14.498" fill="#087bbb"/><path d="M45.454 30.614L60.38 14.496V1.556l-14.927 14.56v14.498z" fill="none" stroke="#fff" stroke-width=".5"/><path d="M28.286 12.191l-.396.395H16.752L15.645 13.7l-3.023-1.319 6.07-1.734-1.543 1.544h11.137M48.013 4.369l1.108-1.11 3.033 1.305-6.08 1.749 1.544-1.544H36.48l.395-.4h11.138" fill="#fff"/><path d="M47.29 4.833L45.922 6.2" fill="none" stroke="#000" stroke-width=".35" stroke-linecap="round"/><path d="M40.62 10.414l-.82.82M30.591 9.539l-.396.328" fill="none" stroke="#000" stroke-width=".21" stroke-linecap="round"/><path d="M37.119 4.124l-.6.547" fill="none" stroke="#000" stroke-width=".35" stroke-linecap="round"/><path d="M.771 30.623h44.683V16.116H.77v14.507z" fill="#087bbb"/><path d="M.771 30.623h44.683V16.117H.77v14.506z" fill="none" stroke="#fff" stroke-width=".5"/><path d="M12.646 21.625v-2.901h.494l-.723-1.094-.727 1.094h.493v2.901h.463M11.172 22.04l-2.05-2.051.345-.346-1.288-.26.263 1.29.347-.352 2.05 2.05.333-.331M10.42 23.382h-2.9v-.488l-1.094.722 1.094.728v-.493h2.9v-.469M10.84 24.861l-2.051 2.052-.347-.347-.263 1.289 1.288-.264-.346-.346 2.051-2.051-.332-.333M12.183 25.614v2.9h-.493l.727 1.093.723-1.093h-.494v-2.9h-.463M13.989 22.371l2.051-2.05.346.351.264-1.288-1.289.259.347.346-2.045 2.051.326.331" fill="#fff"/><path d="M14.19 26.049a3 3 0 0 0 .736-4.18 2.994 2.994 0 0 0-4.178-.738 2.995 2.995 0 0 0-.738 4.18 3 3 0 0 0 4.18.738" fill="#fff"/><path d="M13.926 25.194l2.05 2.051-.346.346 1.289.264-.264-1.289-.346.347-2.052-2.052-.33.333" fill="#fff"/><path d="M14.131 23.655h19.081" fill="none" stroke="#fff" stroke-width="1.25"/><path d="M34.473 24.93v2.031h-.346l.512.767.507-.767H34.8v-2.03h-.327M35.507 24.638l1.437 1.434-.245.245.904.18-.185-.898-.24.245-1.435-1.436-.236.23M36.035 23.7h2.026v.341l.767-.507-.767-.508v.347h-2.026v.327M35.743 22.665l1.435-1.436.24.245.184-.904-.903.18.245.245-1.437 1.435.236.235M34.8 22.138V20.11h.347l-.508-.767-.512.767h.346v2.027h.327M33.535 24.408L32.1 25.844l-.245-.245-.18.899.899-.18-.245-.246 1.436-1.434-.23-.23" fill="#fff"/><path d="M33.394 21.835a2.098 2.098 0 0 0-.513 2.924 2.099 2.099 0 0 0 2.925.518 2.102 2.102 0 1 0-2.412-3.442" fill="#fff"/><path d="M33.579 22.43l-1.435-1.435.244-.245-.903-.18.185.904.239-.245 1.436 1.436.234-.235" fill="#fff"/></svg>