<svg xmlns="http://www.w3.org/2000/svg" viewBox="0 0 40 65" height="65" width="40"><defs><clipPath id="a"><path d="M0 9v507h320V9H0z"/></clipPath></defs><g clip-path="url(#a)" transform="matrix(.13 0 0 -.13 0 65)"><path d="M287.621 335.563c14.609 7.039-.32 36.878-44.891 12.621" fill="#02709f"/><path d="M287.621 335.563c14.609 7.039-.32 36.878-44.891 12.621" fill="none" stroke="#fff" stroke-width="4"/><path d="M117.301 340.563H251.68v101.332H117.301V340.563z" fill="#02709f"/><path d="M251.68 340.563v101.332H117.301V340.563" fill="none" stroke="#fff" stroke-width="4"/><path d="M251.68 441.895V340.172l15.59 27.742v88.828l-15.59-14.847" fill="#02709f"/><path d="M251.68 441.895V340.172l15.59 27.742v88.828l-15.59-14.847z" fill="none" stroke="#fff" stroke-width="4"/><path d="M267.27 456.742h-98.36l-51.609-14.847H251.68l15.59 14.847" fill="#02709f"/><path d="M267.27 456.742h-98.36l-51.609-14.847H251.68l15.59 14.847z" fill="none" stroke="#fff" stroke-width="4"/><path d="M129.02 352.293h110.941v77.852H129.02v-77.852z" fill="#02709f"/><path d="M129.02 352.293h110.941v77.852H129.02v-77.852z" fill="none" stroke="#fff" stroke-width="4"/><path d="M230.391 328.383l5.507-12.891 15.43 16.91-1.84 6.25" fill="#02709f"/><path d="M230.391 328.383l5.507-12.891 15.43 16.91-1.84 6.25" fill="none" stroke="#fff" stroke-width="4"/><path d="M230.391 328.383l21.328 11.762H117.23l29.758-11.762h83.403" fill="#02709f"/><path d="M230.391 328.383l21.328 11.762H117.23l29.758-11.762h83.403z" fill="none" stroke="#fff" stroke-width="4"/><path d="M236.289 315.145l-5.898 13.238h-83.403l-7.726-13.238h97.027" fill="#02709f"/><path d="M236.289 315.145l-5.898 13.238h-83.403l-7.726-13.238h97.027z" fill="none" stroke="#fff" stroke-width="4"/><path d="M60.352 275.602H59.18l.351-154.098c-.351-.231-12.5.469-12.691-.231-.078-13.519.11-17.308.43-29.261-.668-.078-14.418-.078-14.418-.23.117 44.96-.551 138.902-1.012 189.37" fill="#02709f"/><path d="M60.352 275.602H59.18l.351-154.098c-.351-.231-12.5.469-12.691-.231-.078-13.519.11-17.308.43-29.261-.668-.078-14.418-.078-14.418-.23.117 44.96-.551 138.902-1.012 189.37" fill="none" stroke="#fff" stroke-width="4"/><path d="M312.148 286.813c.192 19.539 8.051 20.941 8.981 23.789 0 3.089.473 7.543.043 10.16-7.5.23-8.832-.231-18.981 0l-215.55 1.91c0-.738-34.41-9.641-35.04-9.918-10.472.59-14.331-3.402-24.37-3.871-1.25-2.77.148-1.711.468-5.11 1.992-1.679 4.922-2.46 6.95-4.769 1.21-7.109 1.25-10 1.21-16.051 0-3.871-.039-7.699-.039-11.57" fill="#02709f"/><path d="M312.148 286.813c.192 19.539 8.051 20.941 8.981 23.789 0 3.089.473 7.543.043 10.16-7.5.23-8.832-.231-18.981 0l-215.55 1.91c0-.738-34.41-9.641-35.04-9.918-10.472.59-14.331-3.402-24.37-3.871-1.25-2.77.148-1.711.468-5.11 1.992-1.679 4.922-2.46 6.95-4.769 1.21-7.109 1.25-10 1.21-16.051 0-3.871-.039-7.699-.039-11.57" fill="none" stroke="#fff" stroke-width="4"/><path d="M311.289 279.742h-1.211l.391-154.14c-.391-.227-12.5.472-12.739-.227-.07-13.48.161-17.273.469-29.223-.699-.078-14.41-.078-14.41-.23.082 44.961-.551 138.902-1.059 189.371" fill="#02709f"/><path d="M311.289 279.742h-1.211l.391-154.14c-.391-.227-12.5.472-12.739-.227-.07-13.48.161-17.273.469-29.223-.699-.078-14.41-.078-14.41-.23.082 44.961-.551 138.902-1.059 189.371" fill="none" stroke="#fff" stroke-width="4"/><path d="M306.328 265.172v30.121L35.43 299.164v-27.781l270.898-6.211" fill="#02709f"/><path d="M306.328 265.172v30.121L35.43 299.164v-27.781l270.898-6.211z" fill="none" stroke="#fff" stroke-width="4"/><path d="M319.059 278.613v30.352l-12.731-13.434v-30.117l12.731 13.199" fill="#02709f"/><path d="M319.059 278.613v30.352l-12.731-13.434v-30.117l12.731 13.199z" fill="none" stroke="#fff" stroke-width="4"/><path d="M319.648 320.762l-14.878-15.43-277.82 3.871 60.98 14.649 231.718-3.09" fill="#02709f"/><path d="M319.648 320.762l-14.878-15.43-277.82 3.871 60.98 14.649 231.718-3.09z" fill="none" stroke="#fff" stroke-width="4"/><path d="M283.949 314.352l.031 5.429 8.211 16.371-.043-11.25-8.199-10.55" fill="#02709f"/><path d="M283.949 314.352l.031 5.429 8.211 16.371-.043-11.25-8.199-10.55z" fill="none" stroke="#fff" stroke-width="4"/><path d="M284.102 319.781l8.199 16.371h-18.75l-8.199-16.371h18.75" fill="#02709f"/><path d="M284.102 319.781l8.199 16.371h-18.75l-8.199-16.371h18.75z" fill="none" stroke="#fff" stroke-width="4"/><path d="M265.352 314.512h18.75v5.27h-18.75v-5.27z" fill="#02709f"/><path d="M265.352 314.512h18.75v5.27h-18.75v-5.27z" fill="none" stroke="#fff" stroke-width="4"/><path d="M241.211 311.383v6.492l14.019 19.406v-11.867l-14.019-14.031" fill="#02709f"/><path d="M241.211 311.383v6.492l14.019 19.406v-11.867l-14.019-14.031z" fill="none" stroke="#fff" stroke-width="4"/><path d="M241.211 317.793h-123.16l14.019 19.488h123.16l-14.019-19.488" fill="#02709f"/><path d="M241.211 317.793h-123.16l14.019 19.488h123.16l-14.019-19.488z" fill="none" stroke="#fff" stroke-width="4"/><path d="M117.969 311.383h123.242v6.41H117.969v-6.41z" fill="#02709f"/><path d="M117.969 311.383h123.242v6.41H117.969v-6.41z" fill="none" stroke="#fff" stroke-width="4"/><path d="M205.98 97.363c-2.07-13.941-4.808-17.148 11.25-19.57v-.781s1.75 3.832 2.5-3.13c0 0 3.079-10.82-40.121.75 0 0-2.461 7.97-7.847 3.36l.738-.777c1.48 5.777 6.02 7.566 3.59 16.52l.16-.86 29.73 4.488" fill="#02709f"/><path d="M205.98 97.363c-2.07-13.941-4.808-17.148 11.25-19.57v-.781s1.75 3.832 2.5-3.13c0 0 3.079-10.82-40.121.75 0 0-2.461 7.97-7.847 3.36l.738-.777c1.48 5.777 6.02 7.566 3.59 16.52l.16-.86 29.73 4.488z" fill="none" stroke="#fff" stroke-width="4"/><path d="M231.02 313.145c2.691 3.089.582 1.796 3.468 4.886 4.262 4.641 8.364 8.782 11.992 13.821 2.192 3.011 4.11 5.98 6.45 8.832 2.3 2.847 7.5 2.968 10.66 1.449 2.699-1.371 4.031-2.07 6.84-2.82 1.679-.461 3.05-4.211 1.09-4.489 1.601-.66 3.05-1.64 3.679-3.242.11-.348-.32-1.168-.238-1.437.937-2.821 6.289-5.59 3.32-7.743-1.562-1.129-4.301.7-6.48 0-1.879-.55-2.891-2.339-4.301-3.789-1.449-1.441-3.199-1.8-4.961-2.34a175.707 175.707 0 0 1-7.379-2.46c-1.922-.711-3.32-2.11-5.121-3.051-4.809-2.418-3.75-2.5-8.238-5.387-3.602 1.797-8.172 4.727-10.781 7.77" fill="#02709f"/><path d="M231.02 313.145c2.691 3.089.582 1.796 3.468 4.886 4.262 4.641 8.364 8.782 11.992 13.821 2.192 3.011 4.11 5.98 6.45 8.832 2.3 2.847 7.5 2.968 10.66 1.449 2.699-1.371 4.031-2.07 6.84-2.82 1.679-.461 3.05-4.211 1.09-4.489 1.601-.66 3.05-1.64 3.679-3.242.11-.348-.32-1.168-.238-1.437.937-2.821 6.289-5.59 3.32-7.743-1.562-1.129-4.301.7-6.48 0-1.879-.55-2.891-2.339-4.301-3.789-1.449-1.441-3.199-1.8-4.961-2.34a175.707 175.707 0 0 1-7.379-2.46c-1.922-.711-3.32-2.11-5.121-3.051-4.809-2.418-3.75-2.5-8.238-5.387-3.602 1.797-8.172 4.727-10.781 7.77z" fill="none" stroke="#fff" stroke-width="4"/><path d="M217.23 77.012c8.2-1.25 17.071 2.582 14.61-3.399-.942-9.218-.078-9.922-5.121-16.09-1.797-1.84-1.641.04-4.379-1.878-13.039-2.262-33.32 10.898-35.07.898.539.512-6.45-8.32-6.61-9.84-.859-.512-2.73.352-3.551 0-8.949 13.469-9.648 22.77-7.699 30.512 5.43 4.598 10.199-2.582 10.199-2.582 46.289-10.781 40.121-.75 40.121-.75-.75 6.96-2.5 3.129-2.5 3.129" fill="#02709f"/><path d="M217.23 77.012c8.2-1.25 17.071 2.582 14.61-3.399-.942-9.218-.078-9.922-5.121-16.09-1.797-1.84-1.641.04-4.379-1.878-13.039-2.262-33.32 10.898-35.07.898.539.512-6.45-8.32-6.61-9.84-.859-.512-2.73.352-3.551 0-8.949 13.469-9.648 22.77-7.699 30.512 5.43 4.598 10.199-2.582 10.199-2.582 46.289-10.781 40.121-.75 40.121-.75-.75 6.96-2.5 3.129-2.5 3.129z" fill="none" stroke="#fff" stroke-width="4"/><path d="M58.52 268.613c-6.45-29.058-7.5-57.582 1.832-85.082 1.718-2.027 4.136-2.886 7.187-4.25 16.95 1.211 16.25 1.051 36.051.543l23.601-2.07c1.68-.512 3.75 0 5.27-1.172 9.141-14.098 61.598 7.813 63.16-7.301.899 4.453-20.742-4.929-21.91-15.789 4.219-17.301-.082-51.09-.941-67.379 3.679-2.73-5.192-3.32 3.48-7.89 12.34-3.078 29.73 4.492 29.73 4.492 4.719 2.887 6.29-1.75 11.211.937 1.168 46.02-1.57 75.821 4.719 119.45.668 8.992-1.988 8.402-2.531 14.031-.32 3.711-4.578 4.762-6.801 8.32-9.18 2.149-21.129 2.77-27.656 3.469l-24.453 5.391c2.582 5.902.781 38.75 1.91 45.16 3.281 2.769 4.101 24.379 6.57 27.699l1.75 17.769c.43-3.91-1.129-9.488 6.289-13.398 4.184-.66 2.461-2.031 6.602-2.93.512-.468.98-.968 1.488-1.441 1.25-.391 2.5-.82 3.633-1.488 4.18-3.442 9.809-2.422 13.949-5.86 6.32-1.011 11.442-5.082 17.809-3.199 2.261.656 4.531.977 6.871.699 6.25 4.61 11.84 1.25 16.211 7.539 1.289 1.559 7 1.559 8.679 2.461 1.989 2.821 1.559-.043 2.5 3.598 2.809 1.359 4.141.269 7.54.269.5.622 4.839 10.661 5.109 11.762 0 0-6.641 15.578-19.57 13.43l-15.821 1.68c-9.918-.309-20.347.402-28.75 10.16l-2.418 4.961 1.25 8.129c2.77 5.699-3.199 18.902-4.84 25.929-8.789 6.449-3.601 1.801-12.539 8.832l-119.57 11.367c-1.21-.66-3.36-.777-4.18-.66-9.53-.277-17.152 1.481-25.672-4.218-2.03-4.848-6.007-12.622-5.538-18.36 2.18-8.051-12.54-7.191-8.442-15.551 2.031-2.621 1.012-5.55 2.031-8.05-2.03-11.438.47-1.008-2.03-10.86l-.821-.07c-13.2-34.809-18.36-71.289-18.36-71.289.942-1.059 1.993-2 2.621-3.09 7.73-9.262 49.61-21.68 49.61-21.68l.148.469" fill="#02709f"/><path d="M58.52 268.613c-6.45-29.058-7.5-57.582 1.832-85.082 1.718-2.027 4.136-2.886 7.187-4.25 16.95 1.211 16.25 1.051 36.051.543l23.601-2.07c1.68-.512 3.75 0 5.27-1.172 9.141-14.098 61.598 7.813 63.16-7.301.899 4.453-20.742-4.929-21.91-15.789 4.219-17.301-.082-51.09-.941-67.379 3.679-2.73-5.192-3.32 3.48-7.89 12.34-3.078 29.73 4.492 29.73 4.492 4.719 2.887 6.29-1.75 11.211.937 1.168 46.02-1.57 75.821 4.719 119.45.668 8.992-1.988 8.402-2.531 14.031-.32 3.711-4.578 4.762-6.801 8.32-9.18 2.149-21.129 2.77-27.656 3.469l-24.453 5.391c2.582 5.902.781 38.75 1.91 45.16 3.281 2.769 4.101 24.379 6.57 27.699l1.75 17.769c.43-3.91-1.129-9.488 6.289-13.398 4.184-.66 2.461-2.031 6.602-2.93.512-.468.98-.968 1.488-1.441 1.25-.391 2.5-.82 3.633-1.488 4.18-3.442 9.809-2.422 13.949-5.86 6.32-1.011 11.442-5.082 17.809-3.199 2.261.656 4.531.977 6.871.699 6.25 4.61 11.84 1.25 16.211 7.539 1.289 1.559 7 1.559 8.679 2.461 1.989 2.821 1.559-.043 2.5 3.598 2.809 1.359 4.141.269 7.54.269.5.622 4.839 10.661 5.109 11.762 0 0-6.641 15.578-19.57 13.43l-15.821 1.68c-9.918-.309-20.347.402-28.75 10.16l-2.418 4.961 1.25 8.129c2.77 5.699-3.199 18.902-4.84 25.929-8.789 6.449-3.601 1.801-12.539 8.832l-119.57 11.367c-1.21-.66-3.36-.777-4.18-.66-9.53-.277-17.152 1.481-25.672-4.218-2.03-4.848-6.007-12.622-5.538-18.36 2.18-8.051-12.54-7.191-8.442-15.551 2.031-2.621 1.012-5.55 2.031-8.05-2.03-11.438.47-1.008-2.03-10.86l-.821-.07c-13.2-34.809-18.36-71.289-18.36-71.289.942-1.059 1.993-2 2.621-3.09 7.73-9.262 49.61-21.68 49.61-21.68l.148.469" fill="none" stroke="#fff" stroke-width="4"/><path d="M106.84 89.082c-4.93-5-7.781-9.02-9.07-12.93 5.39 7.7 11.64-.82 11.64-.82 15.43-6.168 22.391-9.258 22.391-9.258 20.469 1.68 13.508 13.207 13.508 13.207-10.309 4.41-13.239 7.301-12.61 9.184" fill="#02709f"/><path d="M99.3 143.223l-6.21-44.22-3.75-13.01 35.23-5.43 1.168.199c.633 1.883 8.602-1.13 12.383-.82 5.117 2.933.75.902 6.02 3.671-.551.782-1.411 16.45-1.211 60.309" fill="#02709f"/><path d="M99.3 143.223l-6.21-44.22-3.75-13.01 35.23-5.43 1.168.199c.633 1.883 8.602-1.13 12.383-.82 5.117 2.933.75.902 6.02 3.671-.551.782-1.411 16.45-1.211 60.309" fill="none" stroke="#fff" stroke-width="4"/><path d="M114.922 41.781l5.039 34.332M105.512 171.582c2.418.43 4.058 2.731 3.629 5.16l-9.57 54.332c-.43 2.418-2.731 4.028-5.122 3.598l-13.32-2.348c-2.418-.429-4.02-2.73-3.59-5.109l9.531-54.34c.43-2.422 2.73-4.062 5.16-3.633l13.282 2.34" fill="#02709f"/><path d="M105.512 171.582c2.418.43 4.058 2.731 3.629 5.16l-9.57 54.332c-.43 2.418-2.731 4.028-5.122 3.598l-13.32-2.348c-2.418-.429-4.02-2.73-3.59-5.109l9.531-54.34c.43-2.422 2.73-4.062 5.16-3.633l13.282 2.34z" fill="none" stroke="#fff" stroke-width="4"/><path d="M106.449 90.172c-8.949-2.028-19.539-.457-20.32-6.008-.738-5.59 3.32-6.723 7.351-6.95" fill="#02709f"/><path d="M106.449 90.172c-8.949-2.028-19.539-.457-20.32-6.008-.738-5.59 3.32-6.723 7.351-6.95" fill="none" stroke="#fff" stroke-width="4"/><path d="M203.711 171.973c2.461 2.5 2.769 3.32 2.769 5.781v29.461a4.45 4.45 0 0 1-4.449 4.449l-32.5-31.371a4.447 4.447 0 0 1-4.453-4.449v-32.781a4.448 4.448 0 0 1 4.453-4.45l34.18 33.36" fill="#02709f"/><path d="M203.711 171.973c2.461 2.5 2.769 3.32 2.769 5.781v29.461a4.45 4.45 0 0 1-4.449 4.449l-32.5-31.371a4.447 4.447 0 0 1-4.453-4.449v-32.781a4.448 4.448 0 0 1 4.453-4.45l34.18 33.36z" fill="none" stroke="#fff" stroke-width="4"/><path d="M42.46 293.531c-.698 6.614 7.419 24.5 7.74 29.934-1.49-5.981-2.7-33.723-1.141-37.781l-6.598 7.847" fill="#02709f"/><path d="M42.46 293.531c-.698 6.614 7.419 24.5 7.74 29.934-1.49-5.981-2.7-33.723-1.141-37.781l-6.598 7.847z" fill="none" stroke="#fff" stroke-width="4"/><path d="M36.762 233.063l-.633 1.878c2.191 19.692-8.36 47.661 13.402 60.942 92.578.43 20.27-2.192 112.809-1.961l5.469-4.141c11.531 1.641 8.64-57.886 8.64-57.886l-8.289-5.27" fill="#02709f"/><path d="M36.762 233.063l-.633 1.878c2.191 19.692-8.36 47.661 13.402 60.942 92.578.43 20.27-2.192 112.809-1.961l5.469-4.141c11.531 1.641 8.64-57.886 8.64-57.886l-8.289-5.27" fill="none" stroke="#fff" stroke-width="4"/><path d="M27.27 227.645c2.18 19.679-9.5 55.699 12.218 69.019 92.5.391 26.133-.672 118.633-.43l1.957-1.019c11.524 1.637 7.891-68.363 7.891-68.363l-140.7.793" fill="#02709f"/><path d="M27.27 227.645c2.18 19.679-9.5 55.699 12.218 69.019 92.5.391 26.133-.672 118.633-.43l1.957-1.019c11.524 1.637 7.891-68.363 7.891-68.363l-140.7.793z" fill="none" stroke="#fff" stroke-width="4"/><path d="M165.078 457.242s.352-1.558.82-2.379c-.117-4.218 2.34-7.851 2.582-11.988-1.41-2.07-3.128-3.953-4.261-6.25-3.278-1.723-7.149-1.332-10.547-2.703-3.281-2.609-5.231-6.559-8.902-8.777-4.258-.942-8.719-.551-12.739-2.5-2.383-2.27-5.429-3.832-7.23-6.723-4.02-2.777-8.86-2.309-13.391-1.719-2.031 1.328-4.379 2.07-6.332 3.512-4.769 5.078-9.687 10-14.848 14.609-4.18.078-8.351-.312-12.5.43-2.77 1.328-4.53 4.219-7.609 5.121-1.723 4.059-3.871 8.008-3.95 12.457-.433.551-2.112 1.481-1.093 2.5 15.192 5.231 7.192 16.133 9.57 25.781 7.192 4.809.153 8.442 3.012 14.059 5.66 21.57 31.25 17.5 48.668 21.062 5.082-.902 10.742-.121 12.152-5.671-.242-.848 5.661-1.641 4.68-2.571 3.559-4.609 4.5-1.719 8.442-6.64 3.628-5.2 2.418-7.071 3.398-9.028 4.879-6.051 9.922-9.293 10.621-17.73.32-4.379-2.383-8.211-3.43-8.563 2.188-5.187 5.039-.539 2.887-6.289" fill="#02709f"/><path d="M165.078 457.242s.352-1.558.82-2.379c-.117-4.218 2.34-7.851 2.582-11.988-1.41-2.07-3.128-3.953-4.261-6.25-3.278-1.723-7.149-1.332-10.547-2.703-3.281-2.609-5.231-6.559-8.902-8.777-4.258-.942-8.719-.551-12.739-2.5-2.383-2.27-5.429-3.832-7.23-6.723-4.02-2.777-8.86-2.309-13.391-1.719-2.031 1.328-4.379 2.07-6.332 3.512-4.769 5.078-9.687 10-14.848 14.609-4.18.078-8.351-.312-12.5.43-2.77 1.328-4.53 4.219-7.609 5.121-1.723 4.059-3.871 8.008-3.95 12.457-.433.551-2.112 1.481-1.093 2.5 15.192 5.231 7.192 16.133 9.57 25.781 7.192 4.809.153 8.442 3.012 14.059 5.66 21.57 31.25 17.5 48.668 21.062 5.082-.902 10.742-.121 12.152-5.671-.242-.848 5.661-1.641 4.68-2.571 3.559-4.609 4.5-1.719 8.442-6.64 3.628-5.2 2.418-7.071 3.398-9.028 4.879-6.051 9.922-9.293 10.621-17.73.32-4.379-2.383-8.211-3.43-8.563 2.188-5.187 5.039-.539 2.887-6.289" fill="none" stroke="#fff" stroke-width="4"/><path d="M170.078 409.004c-.308-1.09-.937-1.992-1.719-2.77-4.449.348-2.968-10.55-6.879-8.992-2.3-1.211-4.531 1.102-6.679 1.449-1.68-.859-3.59-1.046-5.313-1.718-2.297-2.379-5.386-3.36-8.508-4.371-11.531 2.929-21.8-3.75-32.929-5.821-2.66.071-9.89-1.609-10.711 1.364-5.461 3.359-6.36 10.078-11.442 13.91-7.308.66-14.609 1.328-21.917 1.988-1.25.469-2.032 1.84-3.512 1.801-.04 2.648-.668 3.281-1.41 5.347-.309.743-2.258 2.301-.938 2.891 1.258.512 1.57 1.641-1.32 3.75-2 7.109 2.027 29.18 7.219 34.449-1.008-1.008 1.718.672 2.19.16.04-4.488 1.52-8.707 3.24-12.808 3.09-.86 4.85-3.789 7.62-5.121 4.14-.739 8.32-.309 12.5-.387 5.16-4.652 10.078-9.57 14.84-14.613 1.961-1.481 4.301-2.231 6.328-3.547 4.532-.59 9.383-1.063 13.403 1.75 1.8 2.848 4.839 4.418 7.23 6.68 4.02 1.957 8.469 1.57 12.731 2.539 3.668 2.191 5.628 6.129 8.91 8.75 3.398 1.41 7.258.98 10.539 2.699 1.14 2.301 2.859 4.18 4.258 6.25-.231 4.14-2.688 7.808-2.579 12.031-.46.777-1.25 1.211-2.378 2.027l1.558.313c17.039-14.84-1.789-31.481 6.762-46.441l-1.094-3.559" fill="#02709f"/><path d="M170.078 409.004c-.308-1.09-.937-1.992-1.719-2.77-4.449.348-2.968-10.55-6.879-8.992-2.3-1.211-4.531 1.102-6.679 1.449-1.68-.859-3.59-1.046-5.313-1.718-2.297-2.379-5.386-3.36-8.508-4.371-11.531 2.929-21.8-3.75-32.929-5.821-2.66.071-9.89-1.609-10.711 1.364-5.461 3.359-6.36 10.078-11.442 13.91-7.308.66-14.609 1.328-21.917 1.988-1.25.469-2.032 1.84-3.512 1.801-.04 2.648-.668 3.281-1.41 5.347-.309.743-2.258 2.301-.938 2.891 1.258.512 1.57 1.641-1.32 3.75-2 7.109 2.027 29.18 7.219 34.449-1.008-1.008 1.718.672 2.19.16.04-4.488 1.52-8.707 3.24-12.808 3.09-.86 4.85-3.789 7.62-5.121 4.14-.739 8.32-.309 12.5-.387 5.16-4.652 10.078-9.57 14.84-14.613 1.961-1.481 4.301-2.231 6.328-3.547 4.532-.59 9.383-1.063 13.403 1.75 1.8 2.848 4.839 4.418 7.23 6.68 4.02 1.957 8.469 1.57 12.731 2.539 3.668 2.191 5.628 6.129 8.91 8.75 3.398 1.41 7.258.98 10.539 2.699 1.14 2.301 2.859 4.18 4.258 6.25-.231 4.14-2.688 7.808-2.579 12.031-.46.777-1.25 1.211-2.378 2.027l1.558.313c17.039-14.84-1.789-31.481 6.762-46.441l-1.094-3.559z" fill="none" stroke="#fff" stroke-width="4"/><path d="M145.512 58.492c-2.5-.89-9.461-1.949-12.742-2.46-11.79 3.91.902 1.8-16.641 4.343-4.649-3.992-3.199-11.64-4.84-17.73-.898-.512-2.578.347-3.48.027-7.848 16.68-12.887 24.77-10.04 33.48 5.391 7.7 11.641-.82 11.641-.82 15.43-6.168 22.391-9.258 22.391-9.258 20.469 4.098 13.508 13.207 13.508 13.207 10.043-1.566 9.652-.86 9.652-.86 5.391-3.089-9.449-19.929-9.449-19.929" fill="#02709f"/><path d="M98.95 142.172c.46-40.43.78-7.859.312-47.86.617-1.21-1.063-3.238-2.621-4.14-8.942-2.028-19.762 2.23-20.313-6.008-.738-5.59 3.32-6.723 7.344-6.95-9.883-8.05-19.293-18.089-28.871-25.472-6.95-8.21-3.082-15.43-3.711-24.848 2.66-3.242 5.43-1.562 9.3-.472-.94 7.11.9 12.043.739 18.21C73.32 55.454 85.55 66.075 97.89 76.895c.898.32 1.37-.472 2.148-.78-3.558-18.2-11.129-44.923-8.16-61.13.422-1.062-.16-3.09 1.832-3.992 2.93-.46 7.578-2.77 9.258.59 1.172 10.781-2.578 19.262 2.929 31.52-.628-.309-.308.28 0 0 1.723-5.43.942-8.508.782-14.84 3.398-.469 8.011-2.297 10.039 1.882 1.371 11.399-2.34 24.06-3.399 38.86.469 1.558-.781 2.93 1.211 4.488 11.598-7.57 22.539-20.07 33.989-28.55 4.601-4.649 2.929-20.548 2.929-20.548 6.949-1.519 8.473-.742 8.473-.742h1.168s3.09 16.95-3.86 28.16l-30.859 25.551c.391.39 6.399.239 7.77.59 4.488 1.871 5.429 6.211 2.929 10.04-4.449.78-7.621 1.25-13.629 1.401-3.242-.23-3.32 1.958-3.32 8.95.469 37.5-.941 4.019.309 41.988" fill="#02709f"/><path d="M98.95 142.172c.46-40.43.78-7.859.312-47.86.617-1.21-1.063-3.238-2.621-4.14-8.942-2.028-19.762 2.23-20.313-6.008-.738-5.59 3.32-6.723 7.344-6.95-9.883-8.05-19.293-18.089-28.871-25.472-6.95-8.21-3.082-15.43-3.711-24.848 2.66-3.242 5.43-1.562 9.3-.472-.94 7.11.9 12.043.739 18.21C73.32 55.454 85.55 66.075 97.89 76.895c.898.32 1.37-.472 2.148-.78-3.558-18.2-11.129-44.923-8.16-61.13.422-1.062-.16-3.09 1.832-3.992 2.93-.46 7.578-2.77 9.258.59 1.172 10.781-2.578 19.262 2.929 31.52-.628-.309-.308.28 0 0 1.723-5.43.942-8.508.782-14.84 3.398-.469 8.011-2.297 10.039 1.882 1.371 11.399-2.34 24.06-3.399 38.86.469 1.558-.781 2.93 1.211 4.488 11.598-7.57 22.539-20.07 33.989-28.55 4.601-4.649 2.929-20.548 2.929-20.548 6.949-1.519 8.473-.742 8.473-.742h1.168s3.09 16.95-3.86 28.16l-30.859 25.551c.391.39 6.399.239 7.77.59 4.488 1.871 5.429 6.211 2.929 10.04-4.449.78-7.621 1.25-13.629 1.401-3.242-.23-3.32 1.958-3.32 8.95.469 37.5-.941 4.019.309 41.988" fill="none" stroke="#fff" stroke-width="2"/><path d="M133.48 88.852c2.461 0 4.45-2 4.45-4.457v-2.301c0-2.422-1.989-4.422-4.45-4.422h-.941s-25.269-6.168-51.129 0c-2.46 0-4.46 2-4.46 4.422v2.3c0 2.458 2 4.458 4.46 4.458 23.16-7.739 52.07 0 52.07 0" fill="#02709f"/><path d="M133.48 88.852c2.461 0 4.45-2 4.45-4.457v-2.301c0-2.422-1.989-4.422-4.45-4.422h-.941s-25.269-6.168-51.129 0c-2.46 0-4.46 2-4.46 4.422v2.3c0 2.458 2 4.458 4.46 4.458 23.16-7.739 52.07 0 52.07 0z" fill="none" stroke="#fff" stroke-width="4"/><path d="M87.54 247.324c5.741 0 10.35 4.891 10.35 10.938 0 6.019-4.609 10.902-10.35 10.902-5.74 0-10.392-4.883-10.392-10.902 0-6.047 4.653-10.938 10.391-10.938" fill="#02709f"/><path d="M87.54 247.324c5.741 0 10.35 4.891 10.35 10.938 0 6.019-4.609 10.902-10.35 10.902-5.74 0-10.392-4.883-10.392-10.902 0-6.047 4.653-10.938 10.391-10.938z" fill="none" stroke="#fff" stroke-width="4"/><path d="M83.672 246.543c5.738 0 10.387 4.922 10.387 10.941 0 6.008-4.649 10.899-10.387 10.899-5.703 0-10.352-4.891-10.352-10.899 0-6.019 4.649-10.941 10.352-10.941" fill="#02709f"/><path d="M83.672 246.543c5.738 0 10.387 4.922 10.387 10.941 0 6.008-4.649 10.899-10.387 10.899-5.703 0-10.352-4.891-10.352-10.899 0-6.019 4.649-10.941 10.352-10.941z" fill="none" stroke="#fff" stroke-width="4"/><path d="M86.371 179.164l22.77-.391" fill="#02709f"/><path d="M86.371 179.164l22.77-.391" fill="none" stroke="#fff" stroke-width="4"/><path d="M167.578 138.613c2.461 0 4.453 1.989.781 5.668v32.813c3.672 1.211 1.68 3.199-.781 3.199H65.551l-5.59 3.09c-2.461 0-30.7-2.391-30.7-4.809v-35.511a4.445 4.445 0 0 1 4.45-4.45h133.867" fill="#02709f"/><path d="M167.578 138.613c2.461 0 4.453 1.989.781 5.668v32.813c3.672 1.211 1.68 3.199-.781 3.199H65.551l-5.59 3.09c-2.461 0-30.7-2.391-30.7-4.809v-35.511a4.445 4.445 0 0 1 4.45-4.45h133.867z" fill="none" stroke="#fff" stroke-width="4"/><path d="M37.969 140.684c-2.23 0-4.02 1.8-4.02 3.988v29.492c0 2.219 1.79 4.02 4.02 4.02H158.44a4.022 4.022 0 0 0 4.02-4.02v-29.492c0-2.188-1.801-3.988-4.02-3.988H37.969" fill="#02709f"/><path d="M37.969 140.684c-2.23 0-4.02 1.8-4.02 3.988v29.492c0 2.219 1.79 4.02 4.02 4.02H158.44a4.022 4.022 0 0 0 4.02-4.02v-29.492c0-2.188-1.801-3.988-4.02-3.988H37.969z" fill="none" stroke="#fff" stroke-width="4"/><path d="M201.211 173.344c2.848 2.578 2.269 6.801 2.269 3.871v26.207c0 2.223-1.8 4.019-3.601 2.851l-27.609-26.601c-2.309-1.957-3.719-4.379-3.719-6.609v-24.598c0-2.192 1.801-3.992 4.027-3.992l28.633 28.871" fill="#02709f"/><path d="M201.211 173.344c2.848 2.578 2.269 6.801 2.269 3.871v26.207c0 2.223-1.8 4.019-3.601 2.851l-27.609-26.601c-2.309-1.957-3.719-4.379-3.719-6.609v-24.598c0-2.192 1.801-3.992 4.027-3.992l28.633 28.871z" fill="none" stroke="#fff" stroke-width="4"/><path d="M33.98 230.965c2 17.687-8.55 50.148 11.02 62.098 83.238.402 23.52-.54 106.762-.348l1.758-.934c10.39 1.481 7.101-61.527 7.101-61.527l-126.64.711" fill="#02709f"/><path d="M33.98 230.965c2 17.687-8.55 50.148 11.02 62.098 83.238.402 23.52-.54 106.762-.348l1.758-.934c10.39 1.481 7.101-61.527 7.101-61.527l-126.64.711z" fill="none" stroke="#fff" stroke-width="4"/><path d="M61.64 186.813l9.81-6.09H33.48l22.032 13.48 6.129-7.39" fill="#02709f"/><path d="M61.64 186.813l9.81-6.09H33.48l22.032 13.48 6.129-7.39z" fill="none" stroke="#fff" stroke-width="4"/></g></svg>