<svg xmlns="http://www.w3.org/2000/svg" viewBox="0 0 62.5 92.5" height="92.5" width="62.5"><path d="M37.27 80.78l-1.323 2.91s0 1.25 1.748.625l1.499-.625 1.626-1.875.264-.112c.038-.562.083-1.128.205-1.696.21-.99-.122-2.054.191-2.943a357.16 357.16 0 0 1 2.388-6.714c.643-1.749-.3-3.799.38-5.522L39.4 63.265c-.333 5.195-.402 10.336-.66 15.507-.464.713-.976 1.373-1.484 2.027l.014-.02M50.489 80.399l.062.561 1.378 1.749 2.246 1.875 1.504-.123c.37-1.001.868-1.255.868-1.255-.907-.855-2.044-1.465-2.553-2.685-.318-.767-.547-1.61-.518-2.369.172-4.93.669-9.79 1.183-14.75l-5.172 1.245c-.44.214-.253.713-.283 1.01-.113 1.153-.293 2.31-.03 3.477.24 1.05.665 1.987.85 3.027.489 2.79.693 5.484.465 8.238M13.873 3.334c.19.229.267.546.292.761.103 1.001-.264 2.026-.625 2.964-.087.238-.078.879-.366.689-.333-.215-.61-.71-.962-.83-.44-.157-.908.292-1.348.541.81 1.094 1.802 2.202 1.377 3.628-1.03-1.523-2.114-3.032-2.881-4.682-.42-.899-.259-2.213.289-2.955.84-1.147 2.103-2.114 3.5-2.47 1.89-.478 3.77-.87 5.713-.894C17.11.965 15.45 1.81 13.76 2.991c-.088.064.024.235.113.343" fill="#02709f"/><path d="M20.503 3.47c-.439.859-.864 1.694-1.387 2.49.034-.121-.029-.215-.127-.234-.249-.043-.58.068-.708-.059-.127-.127-.127-.527 0-.669.147-.16.605.083.635.044.859-1.382-.722-2.5-1.304-3.706 1.274-.025 2.29.82 3.502 1.001-.25.352-.411.747-.612 1.133" fill="#02709f"/><path d="M15.737 5.848c-.21-.04-.542.024-.556-.03-.366-1.216 1.308-.644 2.06-.98-.181.794-.654 1.17-1.504 1.01M17.866 7.835h-.879a4.832 4.832 0 0 1 1.128-.751c-.044.267.035.512.122.751h-.37M17.612 9.334h-1.748c.215-.2.547-.273.757-.298.562-.063 1.294-.458 1.743.298h-.752M17.475 9.866c.425.176-.175.187-.111.343-.328.077-.43-.225-.625-.372.248 0 .526-.063.736.03"/><path d="M22.241 86.708c1.65 1.093 3.257 2.24 4.873 3.378-.239.19-.161.68-.375.68-1.329.009-2.657.058-3.985-.147-1.22-.186-2.241-.968-3.413-1.329-.191-.059-.21.558-.366.591-.986.195-2.041-.136-2.764-.678-.557-.415.005-1.486-.371-2.232l6.401-.263" fill="#02709f"/><path d="M15.84 86.971c-.015-.035-.195-.01-.195-.015-.371-11.26-.171-22.495-.533-33.745-1.806 10.992-3.227 21.646-5.347 32.979-.039.205-.766.087-.825.41l-5.454-.087c.2-.362-.18-1.07-.117-1.676.655-5.99 1.421-11.816 1.718-17.758.308-6.045.46-12.066.748-18.115.054-1.075.527-2.174.435-3.243-.03-.342-.591-.537-1.031-.635.42-1.01.537-2.095.88-3.125C4.283 40 2.354 38.26.743 35.995c-.518-.723-.787-1.787-.738-2.653C.308 28.1 1.509 22.976 1.489 17.71c2.558-1.611 5.6-1.998 8.321-3.243 1.01-.463 2.06-1.07 2.431-2.256 1.387.973 2.515 2.29 4.034 3.056.141.069.249-.326.341-.556.044.044.083.084.123.127.14-.404.136-.698.502-1-.087-.06-.19-.157-.112-.236.235-.228.268-.546.483-.766.23.44.644.757 1.036.933 2.158.99 4.346 1.777 6.567 2.637.786.303 1.665.859 2.001 1.509.245.474-.073 1.318-.239 2.045-.194.86-.386 1.695-.39 2.5-.02 3.692.995 7.31 1.28 11.001-1.597 2.013-2.79 4.277-4.253 6.377.317 1.773 1.156 3.502 1.102 5.244-.004.146-.97.333-.976.63-.054 2.026.347 4.068.23 6.123-.669 11.664-.689 23.272-1.729 34.874l-6.401.263" fill="#02709f"/><path d="M8.94 86.6c-.126.728.323 1.606-.063 2.154-.527.73-1.504 1.049-2.358 1.509-.303.16-.133.838-.533.883-1.67.185-3.33.063-4.995.063.039-.79-.166-1.694.234-2.304.611-.924 1.744-1.47 2.261-2.392l5.454.087M7.208 31.961c-.03-1.465-.215-2.925-.464-4.375a10.968 10.968 0 0 0-.835 4.37c.008.602.751 1.255 1.205 1.88.308-.61.102-1.255.094-1.875M40.366 16.712c-.395-.424-1.127-.43-1.127-1.128.433.005.873.04 1.25-.249-.733-.269-1.104-.938-1.178-1.631-.01-.088.162-.454.299-.439.303.024.316.538.634.689.113.053.21-.02.235-.123.092-.386-.044-.747-.113-1.122.41.13 1.163.292 1.158-.123-.01-.615-.87-1.298-.338-1.8.151-.143.758.628.812.159.053-.444-.597-.971-.553-1.479.03-.356.718-.445.855-.781.225-.566-.24-1.289-.079-1.816.469-1.563 1.402-2.945 2.144-4.41 1.919-.058 2.641-1.933 5.742-.293.083.04-.307-.025-.23.162.045.102.152.225.24.233.513.04 1.1-.054 1.318.425.156.348-.356.762-.249 1.075.162.474 1.1.259 1.196.674.196.81-.742 1.596-.62 2.324.074.41.997.586 1.28 1.07.322.561-.098 1.371.45 1.957.21-.254.473-.445.747-.625.077.493.272.938.502 1.373.318-.425.699-.807.996-1.25.303.258.167.712.064.81-.532.512-1.04 1.186-1.792 1.386a.34.34 0 0 0-.2.181l-.879-.497c-.108.214.62.536.307.62l.127.502c.455.49.986.157 1.5 0 .264.874-.914.986-1.027 1.64-.062.338.563.24.904.108-.112.62-.65.932-1 1.377" fill="#02709f"/><path d="M56.547 83.084c.826.776 1.373 1.929 2.105 2.764.157.18-.38.616-.658.596-1.427-.084-2.672.176-3.96-.298-1.114-.411-1.144-2.012-2.672-2.75-.507.504-.18 1.193-.41 1.734-.014.049-.288.039-.298.005-.483-1.606-1.743-3.56-.165-4.864l.062.563 1.378 1.752 2.246 1.875 1.504-.127c.37-1 .868-1.25.868-1.25"/><path d="M44.248 65.511c.263-.674 1.372-.776 2.105-.698.327.03.576.766.893.796.61.049 1.1-.761 1.752-.835.192-.02.352.327.49.561l2.065-.625 1.748.938 1.064-1.563.294.005c.013-.131.385-.22.39-.264.704-6.063.962-11.913 1.699-17.987.107-.904-.2-1.75-.132-2.628.269.083.484-.166.748-.127-.07-1.353-.587-2.637-.625-3.999 1.835-2.216 3.75-4.291 5.267-6.816.274-.454.392-1.186.202-1.796-.612-1.92-1.286-3.75-1.973-5.636-1.026-2.798-1.836-5.61-2.871-8.378-1.178-.396-2.446-.348-3.624-.748l-5.689-.688-7.685 1.69c-1.743.556-3.442 1.166-5 2.123-.307 2.657.02 5.26-.547 7.99-.322 1.562-.493 2.977-.757 4.52-.112.659-.39 1.328-.165 1.978.273.796.283 1.752.81 2.3 1.456 1.517 3.443 2.329 5.034 3.71-.151 1.088-.527 2.085-.868 3.13-.133.401.443.337.42.483-.128.704-.617 1.368-.684 2.027-.674 6.323-.415 12.564-.107 18.852.004.138.922-.234.898.128l1.215 1.191 2.061-.625 1.563 1.128" fill="#02709f"/><path d="M51.987 13.334c-.312-.396-.776-.63-1.123-.997-.127.122-.337.25-.331.372.01.459-.157 1.273.327 1.25.308-.015.053-.709.131-1.124.141.308.254.66.523.835.225.146.269-.264.473-.336"/><path d="M50.62 18.567c-.077-.033-.131-.14-.254-.107 0-.166-.058-.385.029-.474.084-.082.304-.024.469-.024-.034.122.04.19.127.25.284-.875.024-1.758-.097-2.613-.044-.333-.753-.318-.953-.572-.39-.507-.61-2.318-.088-2.28 1.333.098 1.402-2.504 1.787-3.96.157-.596-.146-.81-.4-1.45-.175.078-.077.308-.141.337-.289.146-.713.327-.943.117-.127-.117-.127-.546 0-.659.225-.2 1.201-.352 1.192-.322.235-.684-.157-1.231-.61-1.851-.225.352-.454.44-.874.376.267-.229.254-.966-.07-.776-.526.312-.458 1.275-1.303 1.275.02-.361.02-.719-.254-.997-.268.395-.576.835-.985.786-.27-.034-.182-.834-.577-.473-.459.42.336.991.166 1.553-.332 1.122-.322 2.21-.947 3.275-.093.162-.084.42-.005.597.126.273.39.464.727.385-.02.484-.537.21-.732.513a.376.376 0 0 0 0 .352c.235.4.683.429 1.103.385-.112.752-.967.869-1.498.499-.123.771.277 1.44 1 1.625-.337.469-.869.083-1.196.322-.424.313.102.928-.054 1.431-.078-.18-.298-.166-.341-.102-.372.541.097 1.26.214 1.85.083-.175.25-.146.372-.108.228.08.102.313.131.484-.126 0-.264-.033-.366.015-.356.162.128.4-.01.61 1.187.68 2.535 1.074 3.862.904.352-.045.801-.255 1.138-.528-.317-.235-.962-.03-.728-.62.103-.258.43-.166.587-.094.19.094-.024.382.03.582.028.103.126.191.229.117.327-.23.708-.394.849-.752.015-.044-.132-.205-.22-.21-.171-.004-.087.435-.366.332" fill="#fff"/><path d="M49.101 7.796c-.048.097-.161.234-.233.22-.538-.074-1.09-.035-1.378-.591.669-.205 1.358-.489 1.959-.064.16.113-.24.24-.348.435M50.796 9.559c-.142.391-.625.059-.996.151.229-.385.41-.551.879-.625.005.215.156.366.117.474M50.333 10.785c-.42.049-.835.16-1.26.029.648-.395 1.406-.205 2.095-.381-.08.068-.143.146-.094.258-.249.035-.498.064-.741.094M49.096 19.433c-.259.165-.722-.09-.58-.466.063-.174.244-.346.469-.243.272.127.405.522.111.709M47.989 19.334c-.161.079-.21-.195-.377-.122.03-.171-.097-.42.132-.478.16-.04.401-.123.484.107.073.21-.02.395-.24.493"/><path d="M46.987 19.075c-.137.02-.327.074-.356-.116-.024-.167-.117-.412.117-.479.327-.098.62.166.473.474-.029.067-.146.107-.234.121" fill="#02709f"/><path d="M46.23 18.563c-.107.053-.297.078-.361-.103-.122-.346.303-.487.468-.341.094.082.06.361-.107.444M50.269 11.311c-.249.015-.454-.067-.65-.184.41-.055.825-.103 1.24-.152-.127.229-.316.322-.59.336"/><path d="M10.928 14.149l1.875 5.625 3.998 9.498 1.875-9.874-.375-5.498-.747-.752-1.25 2.314-4.126-2.94c0 .812-1.25 1.627-1.25 1.627" fill="#fff"/><path d="M15.864 15.584l.498.313.313-.375.503.687-.625.875.937 8.75-.689 3.69-1.81-4.189.873-8.31-.498-.625.498-.816" fill="#02709f"/><path d="M45.303 18.836l.434 1.998 4.814 8.876 1.69-8.251-1.127-2.935c-2.061 2.623-5.811.312-5.811.312" fill="#fff"/><path d="M40.801 81.708l-1.626 1.875-1.499.625c-1.748.625-1.748-.625-1.748-.625l1.328-2.91c-.703.897-1.406 1.786-2.012 2.802-.512.859-1.181 1.791-1.161 2.797 0 .172.404.474.78.362 1.128-.337 2.325-.337 3.33-.835.894-.444 1.28-1.568 2.046-2.275.294.371-.009.864.25 1.25.487-1.025.526-2.1.595-3.194l-.283.128"/><path d="M57.178 25.272c-1.25-1.748-2.5-.063-2.5-.063-.69 1 .186 1.875.186 1.875l.126-.186c-.751-1.064.186-1.812.186-1.812.938 1.001 2.002.186 2.002.186" fill="#fff"/><path d="M56.714 22.962c.005-.596-.718-.302-.977 0-.083-.2.172-.332.113-.498-.084-.224-.332-.152-.479-.103-.259.093-.087.391-.132.601-.449-.293-.966-.57-1.084.132-.073.44.601.24.709.615-.21.045-.504-.127-.601.137-.05.141-.123.41.107.464.308.083.605-.034.869-.225-.034.381-.234.933.366.727.353-.12.259-.527.259-.853.122.272.46.184.625.375.122-.147.186-.318.264-.493.22-.479-.41-.279-.513-.507.303.062.469-.138.474-.372" fill="#fff"/></svg>