<svg xmlns="http://www.w3.org/2000/svg" viewBox="0 0 33.75 41.25" height="41.25" width="33.75"><path d="M5.371 10.036H.25v4.23l4.507-.011h.536" fill="#fff"/><path d="M5.371 10.037H.25v4.228l4.507-.01h.536" fill="none" stroke="#0881c1" stroke-width=".5"/><path d="M27.168 14.255h.606c4.516 0 5.233 4.062 5.233 4.062V14.1s-.717-4.063-5.233-4.063h-.997" fill="#fff"/><path d="M27.168 14.256h.606c4.516 0 5.233 4.062 5.233 4.062V14.1s-.717-4.063-5.233-4.063h-.997" fill="none" stroke="#0881c1" stroke-width=".5"/><path d="M4.565 39.295H24.77V4.065H4.565v35.23z" fill="#0881c1"/><path d="M4.565 39.294H24.77V4.064H4.565v35.23z" fill="none" stroke="#fff" stroke-width=".5"/><path d="M4.565 4.065L8.422.93h19.483L24.77 4.065H4.565" fill="#0881c1"/><path d="M4.565 4.065L8.422.93h19.483L24.77 4.065H4.565z" fill="none" stroke="#fff" stroke-width=".5"/><path d="M24.77 39.294l3.135-3.858V.93L24.77 4.065v35.229" fill="#0881c1"/><path d="M24.77 39.294l3.135-3.857V.93L24.77 4.065v35.23z" fill="none" stroke="#fff" stroke-width=".5"/><path d="M33.007 13.865v5c-.487 5.938-11.014 5.625-11.014 5.625v4.375l-6.875-6.875 6.875-6.875v4.375s10.702.313 11.014-5.625" fill="#fff"/><path d="M33.007 13.865v5c-.487 5.937-11.014 5.625-11.014 5.625v4.375l-6.875-6.875 6.875-6.875v4.375s10.702.312 11.014-5.625" fill="none" stroke="#0881c1" stroke-width=".5"/><path d="M8.091 10.896l-1.157 1.122.005-5.307h5.307l-1.172 1.202-.224.238 7.9 7.887-2.578 2.582-7.896-7.895-.185.171M8.091 33.079l-1.157-1.124.005 5.313h5.307l-1.172-1.207-.224-.239 7.9-7.886-2.578-2.577-7.896 7.89-.185-.17" fill="#fff"/></svg>