<svg xmlns="http://www.w3.org/2000/svg" viewBox="0 0 47.5 57.5" height="57.5" width="47.5"><path d="M12.28 8.01l10.225 18.296a5.314 5.314 0 0 1-9.277 5.18L3.183 13.513" fill="#02709f"/><path d="M12.28 8.01l10.225 18.296a5.313 5.313 0 0 1-9.277 5.18L3.183 13.512" fill="none" stroke="#fff" stroke-width=".5"/><path d="M12.28 8.01l10.225 18.296a5.314 5.314 0 0 1-9.277 5.18L3.183 13.513" fill="#02709f"/><path d="M12.28 8.01l10.225 18.296a5.313 5.313 0 0 1-9.277 5.18L3.183 13.512" fill="none" stroke="#fff" stroke-width=".5"/><path d="M15.479 55.998c-7.813 0-14.142-1.978-14.142-4.42 0-2.44 6.329-4.418 14.142-4.418 7.812 0 14.14 1.978 14.14 4.419s-6.328 4.419-14.14 4.419" fill="#02709f"/><path d="M15.479 55.999c-7.813 0-14.142-1.978-14.142-4.42s6.329-4.42 14.142-4.42c7.812 0 14.14 1.978 14.14 4.42S23.29 56 15.479 56z" fill="none" stroke="#fff" stroke-width=".5"/><path d="M15.479 50.51c-3.907 0-7.07-.991-7.07-2.213 0-1.22 3.163-2.206 7.07-2.206 3.906 0 7.07.987 7.07 2.206 0 1.222-3.164 2.213-7.07 2.213" fill="#02709f"/><path d="M15.479 50.51c-3.907 0-7.07-.991-7.07-2.212 0-1.22 3.163-2.207 7.07-2.207 3.906 0 7.07.986 7.07 2.207 0 1.22-3.164 2.212-7.07 2.212z" fill="none" stroke="#fff" stroke-width=".5"/><path d="M12.422 8.185c1.435 2.563-.107 4.546-2.67 5.978-2.56 1.435-5.172 1.767-6.602-.797l-1.841-3.29-.28-.728C-.4 6.788.128 2.614 2.69 1.184c2.56-1.431 5.954.263 7.385 2.827l.33.561 2.018 3.613"/><path d="M12.422 8.186c1.435 2.563-.107 4.545-2.67 5.976-2.56 1.435-5.172 1.768-6.602-.796l-1.841-3.291-.28-.728C-.4 6.79.128 2.615 2.69 1.184c2.56-1.43 5.954.263 7.385 2.827l.33.561 2.018 3.614z" fill="none" stroke="#fff" stroke-width=".5"/><path d="M12.422 8.185c1.435 2.563-.107 4.546-2.67 5.978-2.56 1.435-5.172 1.767-6.602-.797l-1.841-3.29-.28-.728C-.4 6.788.128 2.614 2.69 1.184c2.56-1.431 5.954.263 7.385 2.827l.33.561 2.018 3.613" fill="#02709f"/><path d="M12.422 8.186c1.435 2.563-.107 4.545-2.67 5.976-2.56 1.435-5.172 1.768-6.602-.796l-1.841-3.291-.28-.728C-.4 6.79.128 2.615 2.69 1.184c2.56-1.43 5.954.263 7.385 2.827l.33.561 2.018 3.614z" fill="none" stroke="#fff" stroke-width=".5"/><path d="M15.479 49.235a1.56 1.56 0 0 1-1.563-1.563V22.516c0-.858.698-1.562 1.563-1.562.863 0 1.562.704 1.562 1.562v25.156a1.56 1.56 0 0 1-1.563 1.563" fill="#02709f"/><path d="M15.479 49.236a1.56 1.56 0 0 1-1.563-1.563V22.517a1.563 1.563 0 0 1 3.125 0v25.156c0 .864-.699 1.563-1.563 1.563z" fill="none" stroke="#fff" stroke-width=".5"/><path d="M15.869 25.349a1.658 1.658 0 0 0 0-3.315 1.657 1.657 0 0 0 0 3.315" fill="#02709f"/><path d="M15.869 25.349a1.658 1.658 0 0 0 0-3.316 1.657 1.657 0 0 0 0 3.316zM12.578 8.342c1.436 2.564-.107 4.545-2.67 5.976-2.56 1.435-5.172 1.768-6.602-.796" fill="none" stroke="#fff" stroke-width=".5"/><path d="M11.797 6.936c1.435 2.563-.107 4.545-2.67 5.976-2.56 1.435-5.172 1.768-6.602-.796" fill="none" stroke="#fff" stroke-width=".375"/><path d="M10.991 6.081c1.378 2.456-.102 4.365-2.563 5.737-2.457 1.378-4.966 1.694-6.338-.76" fill="none" stroke="#fff" stroke-width=".375"/><path d="M10.288 4.91c1.377 2.455-.103 4.365-2.563 5.737-2.456 1.376-4.966 1.694-6.339-.762" fill="none" stroke="#fff" stroke-width=".375"/><path d="M9.663 3.66C11.04 6.115 9.56 8.025 7.1 9.397c-2.456 1.376-4.966 1.694-6.339-.762" fill="none" stroke="#fff" stroke-width=".375"/><path d="M8.935 2.639c1.319 2.363-.102 4.195-2.46 5.512C4.111 9.47 1.704 9.777.386 7.419" fill="none" stroke="#fff" stroke-width=".375"/><path d="M7.792 2.028c1.134 2.027-.082 3.594-2.108 4.727-2.021 1.132-4.088 1.396-5.22-.63" fill="none" stroke="#fff" stroke-width=".375"/><path d="M6.645 1.34c.962 1.723-.073 3.057-1.791 4.018-1.724.963-3.477 1.187-4.439-.537" fill="none" stroke="#fff" stroke-width=".375"/><path d="M20.635 32.53c.956 4.337.966 10.982 5.659 12.877 1.357.548 2.934.293 4.311.791 3.252 1.187 4.639 4.566 7.285 6.704 2.394 1.934 5.635 1.7 8.37.709" fill="none" stroke="#02709f" stroke-width=".5"/></svg>