<svg xmlns="http://www.w3.org/2000/svg" viewBox="0 0 60 37.5" height="37.5" width="60"><path d="M48.862 35.313H14.268l9.672-5.835 34.902-.05-9.98 5.884" fill="#fff"/><path d="M48.862 35.313H14.268l9.672-5.835 34.902-.05-9.98 5.884zM23.94 29.478l-9.672 5.834-.005-28.66L23.94 1.04v28.438z" fill="none" stroke="#1286be" stroke-width="1" stroke-linecap="round" stroke-linejoin="round"/><path d="M.507 21.841H16.87M16.86 18.931H1.982M19.257 25.205H4.995M17.788 16.431H7.183" fill="none" stroke="#1286be" stroke-width="1" stroke-linecap="round"/><path d="M53.55 14.268c0 3.803-7.925 6.884-17.7 6.884-9.781 0-17.705-3.08-17.705-6.884V24.35c0 3.804 7.924 6.885 17.705 6.885 9.775 0 17.7-3.081 17.7-6.885V14.268" fill="#1286be"/><path d="M53.55 14.268c0 3.803-7.925 6.885-17.7 6.885-9.781 0-17.705-3.082-17.705-6.885V24.35c0 3.804 7.924 6.885 17.705 6.885 9.775 0 17.7-3.08 17.7-6.885V14.269z" fill="none" stroke="#fff" stroke-width=".385"/><path d="M35.85 21.152c9.775 0 17.7-3.08 17.7-6.884 0-3.804-7.925-6.884-17.7-6.884-9.781 0-17.705 3.08-17.705 6.884 0 3.803 7.924 6.884 17.705 6.884" fill="#1286be"/><path d="M35.85 21.153c9.775 0 17.7-3.082 17.7-6.885 0-3.804-7.925-6.884-17.7-6.884-9.781 0-17.705 3.08-17.705 6.884 0 3.803 7.924 6.885 17.705 6.885z" fill="none" stroke="#fff" stroke-width=".385"/><path d="M31.806 11.578l1.46 2.192-5.527 1.275 1.206-1.006-8.54-1.46 2.144-1.601 8.242 1.39 1.015-.79M39.58 16.895l-.996-2.261 4.985-.995-.864.771 8.31 1.42-1.996 1.598-8.258-1.553-1.18 1.02M36.855 10.377l5.586-1.528.064 2.392-1.396-.263-2.725 2.26-2.598-.38L38.6 10.65l-1.744-.273M34.462 18.955l-5.317.996-.2-2.46 1.529.331 2.93-2.5 2.587.44-3.125 2.724 1.596.47" fill="#fff"/><path d="M58.842 29.429l-9.98 5.884-.005-28.662 9.976-5.67.01 28.448z" fill="none" stroke="#1286be" stroke-width="1" stroke-linecap="round" stroke-linejoin="round"/><path d="M48.857 6.651H14.263L23.94 1.04 58.832.982l-9.975 5.67z" fill="none" stroke="#1286be" stroke-width="1" stroke-linecap="round" stroke-linejoin="round"/><text style="-inkscape-font-specification:Helvetica-Bold" transform="matrix(1.25 0 0 1.25 21.007 26.658)" font-weight="700" font-size="6" font-family="Helvetica" fill="#fff"><tspan y="0" x="0">8</tspan><tspan y="1.281" x="3.677">0</tspan><tspan y="2.038" x="7.5 10.836">2.</tspan><tspan y="2.072" x="13">1</tspan><tspan y="1.501" x="16.533">1</tspan></text><path d="M48.862 35.313H14.268L14.263 6.65h34.594l.005 28.662z" fill="none" stroke="#fff" stroke-width="1.875" stroke-linecap="round" stroke-linejoin="round"/><path d="M48.862 35.313H14.268L14.263 6.65h34.594l.005 28.662z" fill="none" stroke="#1286be" stroke-width="1" stroke-linecap="round" stroke-linejoin="round"/></svg>