<svg xmlns="http://www.w3.org/2000/svg" viewBox="0 0 60 35" height="35" width="60"><path d="M.708 15.1L18.184.97H58.53L44.067 15.1H.707" fill="#087bbb"/><path d="M.708 15.1L18.184.97H58.53L44.067 15.1H.707z" fill="none" stroke="#fff" stroke-width=".5"/><path d="M44.067 33.138L58.53 18.4V.994L44.067 15.1v18.038" fill="#087bbb"/><path d="M44.067 33.138L58.53 18.4V.994L44.067 15.1v18.038z" fill="none" stroke="#fff" stroke-width=".5"/><path d="M.766 33.151h43.301v-18.05H.767v18.05z" fill="#087bbb"/><path d="M.766 33.151h43.301v-18.05H.767v18.05z" fill="none" stroke="#fff" stroke-width=".5"/><path d="M27.203 12.6c2.602-2.007 5.927-2.988 5.927-2.988 3.921-1.426 5.444-3.1 5.444-3.1C42.3 2.347 35.21 2.249 35.21 2.249s-7.431-.03-11.212 3.745c0 0-1.908 1.835-.893 3.379 0 0 1.299 1.088-.067 3.13" fill="none" stroke="#fff" stroke-width="1" stroke-miterlimit="1"/><path d="M27.29 12.673c-.112.112-.356.196-.546.191l-3.78-.089c-.19-.003-.254-.102-.147-.21.113-.11.352-.2.547-.195l3.775.089c.19.004.259.103.151.214zM26.801 13.166c-.107.113-.35.2-.541.196l-3.78-.093c-.19-.005-.259-.098-.146-.21.107-.112.351-.2.542-.195l3.779.092c.191.005.259.098.146.21zM26.319 13.66c-.108.111-.353.2-.543.195l-3.779-.088c-.19-.004-.258-.103-.147-.214.107-.113.353-.197.543-.191l3.78.088c.19.004.258.098.146.21z" fill="none" stroke="#fff" stroke-width=".3125" stroke-miterlimit="1"/><path d="M37.871 10.418l1.606 3.657-5.42-1.992" fill="#fff"/><path d="M37.461 12.102l-2.686-1.66" fill="none" stroke="#fff" stroke-width=".5" stroke-linecap="round" stroke-miterlimit="1"/><path d="M24.096 3.045l-5.54-1.139 1.795 2.858" fill="#fff"/><path d="M23.775 4.407l-2.574-1.1" fill="none" stroke="#fff" stroke-width=".5" stroke-linecap="round" stroke-miterlimit="1"/><path d="M20.297 12.072l-7.866.684 5.304-2.817" fill="#fff"/><path d="M17.715 11.39l3.247-.943" fill="none" stroke="#fff" stroke-width=".5" stroke-linecap="round" stroke-miterlimit="1"/><path d="M42.344 3.035l6.401.615-5.923 1.919" fill="#fff"/><path d="M44.477 4.182l-3.412.645" fill="none" stroke="#fff" stroke-width=".5" stroke-linecap="round" stroke-miterlimit="1"/><path d="M15.039 8.494l6.601-1.465-4.673-.928" fill="#fff"/><path d="M12.93 7.22l3.725.02M42.822 8.572l3.73.02" fill="none" stroke="#fff" stroke-width=".5" stroke-linecap="round" stroke-miterlimit="1"/><path d="M44.502 7.116l-5.83 1.148 5.625 1.767" fill="#fff"/><path d="M22.671 14.094c.938.704 2.265.054 2.265.054" fill="none" stroke="#fff" stroke-width=".3125" stroke-miterlimit="1"/><text style="-inkscape-font-specification:Helvetica-Bold" transform="matrix(1.25 0 0 1.25 12.524 28.054)" font-weight="700" font-size="8" font-family="Helvetica" fill="#fff"><tspan y="0" x="0 6.664 12">MSE</tspan></text></svg>