<svg xmlns="http://www.w3.org/2000/svg" viewBox="0 0 35 47.5" height="47.5" width="35"><path d="M.679 46.001h26.967V18.53H.68V46z" fill="#1582ba"/><path d="M.679 46h26.967V18.53H.68V46z" fill="none" stroke="#fff" stroke-width=".5"/><path d="M27.646 18.53l5.577-5.479" fill="#1582ba"/><path d="M27.646 18.53l5.577-5.478M16.982 18.53V46" fill="none" stroke="#fff" stroke-width=".5"/><path d="M.679 34.336h26.967V6.866H.68v27.47z" fill="#1582ba"/><path d="M.679 34.335h26.967V6.865H.68v27.47z" fill="none" stroke="#fff" stroke-width=".5"/><path d="M33.223 1.386v38.56l-5.576 5.625V6.865l5.576-5.479" fill="#1582ba"/><path d="M33.223 1.387v38.558l-5.576 5.625V6.864l5.576-5.477z" fill="none" stroke="#fff" stroke-width=".5"/><path d="M27.646 6.865H.709L7.52 1.386h25.703l-5.576 5.48" fill="#1582ba"/><path d="M27.646 6.864H.709L7.52 1.387h25.703l-5.576 5.477z" fill="none" stroke="#fff" stroke-width=".5"/><path d="M27.646 6.865l5.577-5.479" fill="#1582ba"/><path d="M27.646 6.864l5.577-5.477M4.424 13.959H26.2M3.399 20.614h21.923M2.431 26.938h21.783" fill="none" stroke="#fff" stroke-width=".5"/><path d="M5.415 30.659L9.908 9.96" fill="#1582ba"/><path d="M5.415 30.66l4.493-20.7" fill="none" stroke="#fff" stroke-width=".5"/><path d="M19.39 30.659L23.881 9.96" fill="#1582ba"/><path d="M19.39 30.66l4.491-20.7" fill="none" stroke="#fff" stroke-width=".5"/><path d="M12.402 30.497L16.895 9.8" fill="#1582ba"/><path d="M12.402 30.498l4.493-20.699" fill="none" stroke="#fff" stroke-width=".5"/><path d="M10.717 13.901c0 .625-.761 1.133-1.703 1.133-.943 0-1.704-.508-1.704-1.133 0-.63.761-1.138 1.704-1.138.942 0 1.703.509 1.703 1.138M17.779 13.618c0 .625-.763 1.132-1.705 1.132-.943 0-1.704-.507-1.704-1.132 0-.63.761-1.138 1.704-1.138.942 0 1.705.507 1.705 1.138M24.859 14.115c0 .63-.763 1.139-1.705 1.139-.942 0-1.704-.509-1.704-1.139 0-.625.762-1.137 1.704-1.137s1.705.512 1.705 1.137M9.111 20.649c0 .625-.76 1.137-1.703 1.137-.943 0-1.705-.512-1.705-1.137 0-.63.762-1.138 1.705-1.138.942 0 1.703.508 1.703 1.138M16.172 20.864c0 .63-.762 1.137-1.705 1.137-.937 0-1.703-.507-1.703-1.137 0-.625.766-1.138 1.703-1.138.943 0 1.705.513 1.705 1.138M23.253 20.531c0 .63-.768 1.134-1.706 1.134-.942 0-1.708-.504-1.708-1.134 0-.63.766-1.137 1.708-1.137.938 0 1.706.507 1.706 1.137M7.705 27.055c0 .63-.766 1.137-1.704 1.137-.942 0-1.709-.507-1.709-1.137 0-.625.767-1.133 1.71-1.133.937 0 1.703.508 1.703 1.133M14.765 27.109c0 .625-.761 1.132-1.704 1.132-.942 0-1.704-.507-1.704-1.132 0-.63.762-1.138 1.704-1.138.943 0 1.704.508 1.704 1.138M21.841 27.109c0 .625-.762 1.132-1.705 1.132-.942 0-1.703-.507-1.703-1.132 0-.63.76-1.138 1.703-1.138.943 0 1.705.508 1.705 1.138" fill="#fff"/><path d="M25.855 37.388c0 .668-1.475 1.215-3.291 1.215-1.812 0-3.287-.547-3.287-1.215v6.005c0 .673 1.475 1.22 3.287 1.22 1.816 0 3.291-.547 3.291-1.22v-6.005" fill="#1582ba"/><path d="M25.855 37.387c0 .668-1.475 1.216-3.291 1.216-1.812 0-3.287-.548-3.287-1.216v6.006c0 .673 1.475 1.221 3.287 1.221 1.816 0 3.291-.548 3.291-1.22v-6.007z" fill="none" stroke="#fff" stroke-width=".5"/><path d="M22.564 38.603c1.816 0 3.291-.547 3.291-1.215 0-.674-1.475-1.222-3.291-1.222-1.812 0-3.287.548-3.287 1.222 0 .668 1.475 1.215 3.287 1.215" fill="#1582ba"/><path d="M22.564 38.603c1.816 0 3.291-.548 3.291-1.216 0-.674-1.475-1.22-3.291-1.22-1.812 0-3.287.546-3.287 1.22 0 .668 1.475 1.216 3.287 1.216z" fill="none" stroke="#fff" stroke-width=".5"/><path d="M4.272 43.374h6.51l-.03 1.357 2.983-1.915-2.983-2.04.03 1.42h-6.51M13.315 37.7H6.806l.03-1.363-2.979 1.92 2.98 2.035-.03-1.42h6.508" fill="#fff"/></svg>