<svg xmlns="http://www.w3.org/2000/svg" viewBox="0 0 55 41.25" height="41.25" width="55"><path d="M.708 39.19h47.685V7.862H.708V39.19z" fill="#2c6aa2"/><path d="M.708 39.19h47.685V7.863H.708V39.19z" fill="none" stroke="#fff" stroke-width=".5"/><path d="M53.877 31.169l-5.484 8.022V7.862l5.484-6.65V31.17" fill="#2c6aa2"/><path d="M53.877 31.168l-5.484 8.022V7.863l5.484-6.65v29.955z" fill="none" stroke="#fff" stroke-width=".5"/><path d="M8.935 1.212h44.942l-5.484 6.65H.708l8.227-6.65" fill="#2c6aa2"/><path d="M8.935 1.213h44.942l-5.484 6.65H.708l8.227-6.65z" fill="none" stroke="#fff" stroke-width=".5"/><path d="M9.058 16.857l-.005 2.002-4.658-2.642 4.663-2.636v2.002l-.04-.093h8.047l.005-1.997 4.664 2.642-4.669 2.636v-2.003H9.019l.039.09M9.058 31.389l-.005 2.001-4.658-2.646 4.663-2.637v2.002l-.04-.088 8.047-.005.005-1.997 4.664 2.642-4.669 2.636v-2.002H9.019l.039.094M9.058 24.284l-.005 2.002-4.658-2.642 4.663-2.637v2.003l-.04-.094h5.61V20.92l4.664 2.641-4.663 2.636-.006-2H9.02l.039.087M45.23 29.342c-.791-.005-1.416-2.28-1.393-5.078.025-2.793.684-5.054 1.475-5.054l-5.932-.044c-.791-.01-1.45 2.251-1.475 5.054-.019 2.794.601 5.069 1.392 5.074l5.933.048" fill="#fff"/><path d="M43.837 24.268c-.018 2.613.602 4.737 1.398 4.742.79.005 1.45-2.109 1.469-4.716.025-2.618-.6-4.741-1.391-4.747-.797-.01-1.45 2.105-1.476 4.722" fill="#2c6aa2"/><path d="M43.837 24.27c-.018 2.612.602 4.735 1.398 4.74.79.006 1.45-2.11 1.469-4.717.025-2.616-.6-4.741-1.391-4.745-.797-.01-1.45 2.104-1.476 4.721z" fill="none" stroke="#fff" stroke-width=".5"/><path d="M40.674 23.898c-.044 5.542-4.57 9.996-10.118 9.95-5.536-.048-9.99-4.574-9.94-10.116.043-5.537 4.569-9.995 10.107-9.95 5.547.048 10 4.58 9.95 10.116" fill="#fff"/><path d="M35.538 24.04a4.814 4.814 0 1 1-9.629-.079 4.81 4.81 0 0 1 4.852-4.775 4.81 4.81 0 0 1 4.777 4.854" fill="#2c6aa2"/></svg>