<svg xmlns="http://www.w3.org/2000/svg" viewBox="0 0 47.5 33.75" height="33.75" width="47.5"><path d="M46.23 10.214c0 4.936-10.293 8.94-22.987 8.94-12.7 0-22.994-4.004-22.994-8.94v13.095c0 4.936 10.293 8.941 22.994 8.941 12.695 0 22.987-4.005 22.987-8.941V10.214" fill="#2c6aa2"/><path d="M46.23 10.214c0 4.936-10.293 8.94-22.987 8.94-12.7 0-22.994-4.004-22.994-8.94v13.095c0 4.936 10.293 8.94 22.994 8.94 12.694 0 22.987-4.004 22.987-8.94V10.214z" fill="none" stroke="#fff" stroke-width=".5"/><path d="M23.243 19.154c12.695 0 22.987-4.004 22.987-8.94 0-4.938-10.292-8.941-22.987-8.941-12.7 0-22.994 4.003-22.994 8.94 0 4.937 10.293 8.94 22.994 8.94" fill="#2c6aa2"/><path d="M23.243 19.154c12.695 0 22.987-4.004 22.987-8.94 0-4.938-10.292-8.941-22.987-8.941-12.7 0-22.994 4.003-22.994 8.94 0 4.937 10.293 8.94 22.994 8.94z" fill="none" stroke="#fff" stroke-width=".5"/><path d="M17.994 6.717l1.894 2.847-7.178 1.66 1.567-1.304L3.19 8.022l2.777-2.086 10.709 1.812 1.319-1.03M28.091 13.621l-1.294-2.934 6.474-1.294-1.122 1.006 10.791 1.846-2.589 2.07-10.728-2.016-1.532 1.322M24.551 5.165l7.25-1.987.09 3.11-1.817-.347-3.536 2.934-3.38-.493 3.653-2.87-2.26-.347M21.445 16.303l-6.909 1.293-.259-3.194 1.988.43 3.799-3.247 3.364.571-4.058 3.54 2.075.607M14.477 21.546v1.114l-2.587-1.47 2.587-1.465v1.114l-.02-.054h4.474v-1.109l2.588 1.465-2.588 1.465-.005-1.108h-4.468l.02.048M14.477 29.618v1.113l-2.587-1.47 2.587-1.465v1.114l-.02-.054h4.474v-1.108l2.588 1.464-2.588 1.466-.005-1.11h-4.468l.02.05M14.477 25.672v1.113l-2.587-1.469 2.587-1.465v1.113l-.02-.054h3.117v-1.107l2.592 1.465-2.592 1.463v-1.107h-3.117l.02.048M34.575 28.48c-.439 0-.786-1.265-.776-2.817.015-1.553.381-2.813.824-2.808l-3.3-.03c-.44 0-.805 1.255-.816 2.809-.013 1.557.333 2.816.772 2.821l3.296.025" fill="#fff"/><path d="M33.799 25.663c-.01 1.45.337 2.63.776 2.636.44 0 .806-1.172.82-2.621.01-1.455-.336-2.633-.776-2.638-.439-.005-.805 1.168-.82 2.623" fill="#2c6aa2"/><path d="M33.799 25.663c-.01 1.45.337 2.63.776 2.636.44 0 .806-1.172.82-2.621.01-1.455-.336-2.633-.776-2.638-.439-.005-.805 1.168-.82 2.623z" fill="none" stroke="#fff" stroke-width=".5"/><path d="M32.046 25.458a5.58 5.58 0 0 1-5.62 5.527 5.57 5.57 0 0 1-5.527-5.62 5.572 5.572 0 0 1 5.62-5.528 5.58 5.58 0 0 1 5.527 5.62" fill="#fff"/><path d="M29.19 25.535a2.673 2.673 0 1 1-5.348-.044 2.67 2.67 0 0 1 2.696-2.651 2.671 2.671 0 0 1 2.652 2.695" fill="#2c6aa2"/></svg>