<svg xmlns="http://www.w3.org/2000/svg" viewBox="0 0 45 30" height="30" width="45"><defs><clipPath id="a"><path d="M230.078 216.801l64.531-.242-8.75-28.789-12.929 7.152-61.719-30.512-26.949 15.238 61.476 29.454-15.66 7.699"/></clipPath><clipPath id="b"><path d="M180 220h120v-60H180v60z"/></clipPath><clipPath id="c"><path d="M205.309 130.391l-8.668 28.089 66.558-.511-15.859-7.071 63.281-25.668-27.812-13.941-62.731 25.512-14.769-6.41"/></clipPath><clipPath id="d"><path d="M190 160h130v-50H190v50z"/></clipPath></defs><path d="M22.764 17.715c12.43 0 22.51-3.921 22.51-8.755 0-4.833-10.08-8.755-22.51-8.755C10.328.205.249 4.127.249 8.96c0 4.834 10.079 8.755 22.515 8.755" fill="#026c9b"/><path d="M22.764 17.715c12.43 0 22.51-3.921 22.51-8.755 0-4.833-10.08-8.755-22.51-8.755C10.328.205.249 4.127.249 8.96c0 4.834 10.079 8.755 22.515 8.755z" fill="none" stroke="#fff" stroke-width=".5"/><path d="M44.765 7.139c-6.758-1.934-8.779 1.919-12.705 1.919-5.195 0-3.285-2.32-9.257-2.34-7.08-.024-4.204 2.27-9.34 2.29-3.722.02-5.177-3.037-12.715-1.87C.356 7.92.22 8.405.288 9.596c7.012-1.582 8.964 2.006 13.165 1.826 5.81-.253 2.768-2.476 9.34-2.294 6.142.17 3.067 2.343 9.258 2.343 5.357 0 6-3.76 13.13-2.056 0 0 .321-1.084-.416-2.275" fill="#026c9b"/><path d="M44.765 7.139c-6.758-1.934-8.779 1.919-12.705 1.919-5.195 0-3.285-2.32-9.257-2.34-7.08-.024-4.204 2.27-9.34 2.29-3.722.02-5.177-3.037-12.715-1.87C.356 7.92.22 8.405.288 9.596c7.012-1.582 8.964 2.006 13.165 1.826 5.81-.253 2.768-2.476 9.34-2.294 6.142.17 3.067 2.343 9.258 2.343 5.357 0 6-3.76 13.13-2.056 0 0 .321-1.084-.416-2.275z" fill="none" stroke="#fff" stroke-width=".4375"/><path d="M39.14 2.94c-3.691-.675-2.744 1.709-7.08 1.709-5.195 0-3.105-2.325-9.076-2.344-7.08-.025-4.713 2.549-9.85 2.577-3.398.02-4.409-1.606-7.538-1.562-.918.323-2.437 1.29-3.399 2.07 5.377-1.289 7.432 1.592 11.07 1.616 5.815.035 3.14-2.475 9.707-2.29 6.147.166 2.886 2.34 9.077 2.34 4.345 0 4.424-3.614 10.6-2.174 0 0-1.577-1.16-3.51-1.942" fill="#026c9b"/><path d="M39.14 2.94c-3.691-.675-2.744 1.709-7.08 1.709-5.195 0-3.105-2.325-9.076-2.344-7.08-.025-4.713 2.549-9.85 2.577-3.398.02-4.409-1.606-7.538-1.562-.918.323-2.437 1.29-3.399 2.07 5.377-1.289 7.432 1.592 11.07 1.616 5.815.035 3.14-2.475 9.707-2.29 6.147.166 2.886 2.34 9.077 2.34 4.345 0 4.424-3.614 10.6-2.174 0 0-1.577-1.16-3.51-1.942z" fill="none" stroke="#fff" stroke-width=".4375"/><path d="M44.336 11.489c-6.851-1.655-6.88 1.982-11.724 1.982-5.195 0-3.106-2.411-9.077-2.431-7.08-.025-4.57 2.266-9.703 2.29-3.402.02-7.728-3.433-12.508-1.734C2.026 12.7 4.38 14.01 4.38 14.01c2.783-.894 4.897 1.734 9.439 1.734 5.815 0 3.138-2.477 9.706-2.296 6.147.172 2.886 2.203 9.077 2.344 4.517.102 5.654-3.257 9.59-2.402 0 0 1.304-.738 2.144-1.9" fill="#026c9b"/><path d="M44.336 11.489c-6.851-1.655-6.88 1.982-11.724 1.982-5.195 0-3.106-2.411-9.077-2.431-7.08-.025-4.57 2.266-9.703 2.29-3.402.02-7.728-3.433-12.508-1.734C2.026 12.7 4.38 14.01 4.38 14.01c2.783-.894 4.897 1.734 9.439 1.734 5.815 0 3.138-2.477 9.706-2.296 6.147.172 2.886 2.203 9.077 2.344 4.517.102 5.654-3.257 9.59-2.402 0 0 1.304-.738 2.144-1.9z" fill="none" stroke="#fff" stroke-width=".4375"/><path d="M17.969 15.732l-8.11.337 1.137-3.964 1.611.892 7.73-3.763 3.364 1.904-7.69 3.632 1.958.962" fill="#fff"/><g clip-path="url(#a)" transform="matrix(.13 0 0 -.13 0 30)"><g clip-path="url(#b)"><path d="M230.309 219.18l64.57-.231-8.789-28.789-12.891 7.18-61.75-30.539-26.918 16.719 61.449 29.449-15.671 6.211" fill="#fff"/></g></g><path d="M19.619 5.274l2.271 2.88-10.186.522 1.977-.888L6.3 4.658l3.842-2.09 7.647 3.497 1.83-.791" fill="#fff"/><g clip-path="url(#c)" transform="matrix(.13 0 0 -.13 0 30)"><g clip-path="url(#d)" fill="#fff"><path d="M206.02 130.699l-8.68 28.051 66.57-.469-15.859-7.109 63.277-25.66-27.808-13.91-62.739 25.507-14.761-6.41M150.43 114.141l-64.88-2.692 9.06 31.711 12.929-7.14 61.801 30.109 26.949-15.231-61.519-29.058 15.66-7.699"/></g></g><path d="M45.274 8.422c0 4.834-10.08 8.756-22.51 8.756-12.436 0-22.515-3.922-22.515-8.756v12.823C.249 26.08 10.328 30 22.764 30c12.43 0 22.51-3.921 22.51-8.755V8.422" fill="#026c9b"/><path d="M45.274 8.422c0 4.834-10.08 8.756-22.51 8.756-12.436 0-22.515-3.922-22.515-8.756v12.823C.249 26.08 10.328 30 22.764 30c12.43 0 22.51-3.921 22.51-8.755V8.422z" fill="none" stroke="#fff" stroke-width=".5"/></svg>