<svg xmlns="http://www.w3.org/2000/svg" viewBox="0 0 32.5 43.75" height="43.75" width="32.5"><path d="M30.781 12.413l-5.136 4.872H.748l6.45-4.872H30.78" fill="#231f20"/><path d="M30.781 12.413l-5.136 4.872H.748l6.45-4.872H30.78z" fill="none" stroke="#fff" stroke-width=".5" stroke-linecap="round" stroke-linejoin="round"/><path d="M.748 41.909h24.897V17.285H.748V41.91z" fill="#087bbb"/><path d="M.748 41.909h24.897V17.285H.748V41.91z" fill="none" stroke="#fff" stroke-width=".5"/><path d="M30.268 37.285V12.661l-4.77 4.624V41.91l4.77-4.625" fill="#087bbb"/><path d="M30.268 37.285V12.662l-4.77 4.623V41.91l4.77-4.625z" fill="none" stroke="#fff" stroke-width=".5"/><path d="M9.59 28.936H4.234v-1.382L2.212 29.59l2.022 2.041v-1.383H9.59v-1.312M12.623 33.276v5.362h-1.388l2.041 2.022 2.041-2.022h-1.382v-5.362h-1.313M12.623 26.06v-5.356h-1.388l2.041-2.021 2.041 2.02h-1.382v5.357h-1.313M16.962 30.248h5.357v1.383l2.027-2.041-2.027-2.036v1.382h-5.357v1.313" fill="#fff"/><path d="M21.9 38.194c-1.006 1.064-5.63-1.856-10.322-6.519-4.693-4.662-7.682-9.301-6.676-10.366 1.007-1.06 5.63 1.86 10.323 6.523 4.693 4.658 7.68 9.302 6.675 10.362z" fill="none" stroke="#fff" stroke-width=".5"/><path d="M21.631 21.232c1.059 1.004-1.861 5.625-6.519 10.316-4.663 4.692-9.306 7.681-10.366 6.675-1.065-1.005 1.855-5.625 6.52-10.318 4.662-4.692 9.3-7.68 10.365-6.673z" fill="none" stroke="#fff" stroke-width=".5"/><path d="M15.474 32.705a3.903 3.903 0 0 0 .961-5.444 3.91 3.91 0 1 0-6.406 4.483 3.904 3.904 0 0 0 5.445.961" fill="#bfbebe"/><path d="M30.781.768L25.645 5.64H.748L7.198.768H30.78" fill="#087bbb"/><path d="M30.781.767L25.645 5.64H.748L7.198.767H30.78z" fill="none" stroke="#fff" stroke-width=".5"/><path d="M.748 17.461h24.897V5.641H.748v11.82z" fill="#087bbb"/><path d="M.748 17.461h24.897V5.641H.748v11.82z" fill="none" stroke="#fff" stroke-width=".5"/><path d="M30.268 12.837V1.017l-4.77 4.623v11.821l4.77-4.624" fill="#087bbb"/><path d="M30.268 12.838V1.017l-4.77 4.623v11.821l4.77-4.623z" fill="none" stroke="#fff" stroke-width=".5"/><path d="M2.979 10h4.869V7.461h-4.87V10zM18.975 10h4.864V7.461h-4.864V10zM2.979 16.332h4.869V13.8h-4.87v2.534zM18.975 16.332h4.864V13.8h-4.864v2.534z" fill="#fff"/><path d="M6.284 8.731H21.23M6.284 15.249H21.23" fill="none" stroke="#fff" stroke-width=".5"/><path d="M5.415 15.069L21.23 8.73" fill="#231f20"/><path d="M5.415 15.069L21.23 8.73" fill="none" stroke="#fff" stroke-width=".5"/><path d="M5.415 8.731L21.23 15.07" fill="#231f20"/><path d="M5.415 8.731L21.23 15.07" fill="none" stroke="#fff" stroke-width=".5"/></svg>