<svg xmlns="http://www.w3.org/2000/svg" viewBox="0 0 61.25 31.25" height="31.25" width="61.25"><path d="M.708 15.166L18.74.581h41.641L45.454 15.166H.708" fill="#087bbb"/><path d="M.708 15.166L18.74.581h41.641L45.454 15.166H.708z" fill="none" stroke="#fff" stroke-width=".5"/><path d="M41.611 8.286l1.11-1.108 3.47 1.577-6.084 1.749 1.382-1.818H30.405l.401-.4h10.805M34.956 4.57l-.396.396H23.256l-1.709 1.328-2.91-1.425 6.67-1.954-1.65 1.655h11.299M28.721 10.855l-.396.4H16.967L15.26 12.53l-3.018-1.426 6.831-1.9-1.543 1.651H28.72M48.013 3.038l1.108-1.11 3.466 1.52-6.078 1.747 1.323-1.762H36.694l.401-.395h10.918" fill="#231f20"/><path d="M41.665 8.668l1.114-1.11 3.027 1.304-6.08 1.748 1.544-1.543H30.131l.402-.4h11.132M34.575 4.951l-.4.397H23.042L21.93 6.46 18.91 5.141 24.98 3.41 23.437 4.95h11.138" fill="#fff"/><path d="M45.454 29.395L60.38 14.357V.607L45.454 15.165v14.229" fill="#087bbb"/><path d="M45.454 29.395L60.38 14.356V.606l-14.927 14.56v14.229z" fill="none" stroke="#fff" stroke-width=".5"/><path d="M28.286 11.24l-.4.396H16.752L15.64 12.75l-3.018-1.318 6.07-1.734-1.543 1.543h11.137M48.013 3.419L49.12 2.31l3.033 1.304-6.085 1.747 1.543-1.542H36.475l.4-.4h11.138" fill="#fff"/><path d="M47.29 3.882L45.922 5.25M40.894 9.19l-1.368 1.367M30.717 8.477l-.653.546M37.119 3.174l-.6.547" fill="none" stroke="#231f20" stroke-width=".35" stroke-linecap="round" stroke-linejoin="round"/><path d="M45.454 29.585V15.166H.766v14.506l44.688-.087" fill="#087bbb"/><path d="M45.454 29.585V15.166H.766v14.508l44.688-.089z" fill="none" stroke="#fff" stroke-width=".5"/><path d="M17.29 22.525H8.935v-.768l-3.149 1.13 3.15 1.127v-.766h8.354v-.723M22.011 24.922v2.96h-2.157l3.179 1.117 3.183-1.118h-2.158v-2.959H22.01M22.011 20.933v-2.96h-2.157l3.179-1.117 3.183 1.118h-2.158v2.959H22.01M28.779 23.248h8.355v.766l3.154-1.128-3.154-1.129v.768h-8.355v.723" fill="#fff"/><path d="M36.475 27.643c-1.567.585-8.775-1.032-16.085-3.604-7.319-2.579-11.973-5.143-10.405-5.728 1.568-.586 8.77 1.025 16.084 3.604 7.315 2.572 11.973 5.136 10.406 5.728z" fill="none" stroke="#fff" stroke-width=".5"/><path d="M36.06 18.268c1.655.556-2.901 3.11-10.167 5.702-7.27 2.593-14.502 4.243-16.157 3.686-1.655-.556 2.895-3.11 10.166-5.702C27.167 19.36 34.4 17.71 36.06 18.268z" fill="none" stroke="#fff" stroke-width=".5"/><path d="M26.46 24.605c2.759-.684 3.428-2.031 1.499-3.007-1.934-.978-5.733-1.217-8.492-.533-2.758.684-3.432 2.031-1.498 3.013 1.933.976 5.732 1.216 8.491.527" fill="#bfbebe"/></svg>