<svg xmlns="http://www.w3.org/2000/svg" viewBox="0 0 47.5 43.75" height="43.75" width="47.5"><path d="M.63 35.882H39.97V28.5H.63v7.382z" fill="#02709f"/><path d="M.63 35.883H39.97V28.5H.63v7.383zM27.92 32.68h9.926M27.92 32.324h9.926" fill="none" stroke="#fff" stroke-width=".5"/><path d="M46.578 28.881v-6.606l-6.612 6.255v7.354l6.612-7.003" fill="#02709f"/><path d="M46.578 28.881v-6.606l-6.612 6.255v7.354l6.612-7.003z" fill="none" stroke="#fff" stroke-width=".5"/><path d="M32.984 41.899v-1.64l3.574-4.962v3.023l-3.574 3.579" fill="#02709f"/><path d="M32.984 41.899v-1.64l3.574-4.961v3.022L32.984 41.9z" fill="none" stroke="#fff" stroke-width=".5"/><path d="M1.499 41.9h31.485v-1.636H1.499V41.9z" fill="#02709f"/><path d="M1.499 41.899h31.485v-1.636H1.499v1.636z" fill="none" stroke="#fff" stroke-width=".5"/><path d="M32.984 40.259H1.499l3.642-4.962h31.417l-3.574 4.962" fill="#02709f"/><path d="M32.984 40.259H1.499l3.642-4.961h31.417l-3.574 4.96z" fill="none" stroke="#fff" stroke-width=".5"/><path d="M46.578 22.275H7.22L.63 28.495H39.97l6.607-6.22" fill="#02709f"/><path d="M46.578 22.275H7.22L.63 28.495H39.97l6.607-6.22z" fill="none" stroke="#fff" stroke-width=".5"/><path d="M7.666 24.854H34.79V4.95H7.666v19.902z" fill="#02709f"/><path d="M7.666 24.852H34.79V4.95H7.666v19.902z" fill="none" stroke="#fff" stroke-width=".5"/><path d="M9.956 9.321c0-1.997 2.07-2.295 2.07-2.295h17.887c2.513 0 2.44 2.367 2.44 2.367v11.163c0 1.402-1.923 1.993-1.923 1.993H12.324c-1.777 0-2.368-1.852-2.368-1.852V9.321" fill="#02709f"/><path d="M9.956 9.321c0-1.997 2.07-2.295 2.07-2.295h17.887c2.513 0 2.44 2.368 2.44 2.368v11.162c0 1.401-1.923 1.993-1.923 1.993H12.324c-1.777 0-2.368-1.851-2.368-1.851V9.32z" fill="none" stroke="#fff" stroke-width=".5"/><path d="M39.336.669H12.212L7.666 4.951H34.79L39.336.67" fill="#02709f"/><path d="M39.336.669H12.212L7.666 4.95H34.79L39.336.67z" fill="none" stroke="#fff" stroke-width=".5"/><path d="M39.341 20.615V.664L34.84 4.95v19.902l4.502-4.238" fill="#02709f"/><path d="M39.341 20.615V.664L34.84 4.95v19.902l4.502-4.237z" fill="none" stroke="#fff" stroke-width=".5"/></svg>