<svg xmlns="http://www.w3.org/2000/svg" viewBox="0 0 38.75 31.25" height="31.25" width="38.75"><path d="M.502 29.275h26.235v-6.157H.502v6.157z" fill="#02709f"/><path d="M.502 29.275h26.235v-6.157H.502v6.157z" fill="none" stroke="#fff" stroke-width=".5"/><path d="M26.739 23.118H.474l12.48-18.116H38.05L26.74 23.118" fill="#02709f"/><path d="M26.739 23.118H.474l12.48-18.116H38.05L26.74 23.117z" fill="none" stroke="#fff" stroke-width=".5"/><path d="M38.051 5.003v11.581L26.74 29.342v-6.224L38.05 5.003" fill="#02709f"/><path d="M38.051 5.002v11.582L26.74 29.343v-6.225L38.05 5.002z" fill="none" stroke="#fff" stroke-width=".5"/><path d="M26.739 23.118L38.05 5.002" fill="#02709f"/><path d="M26.739 23.118L38.05 5.002" fill="none" stroke="#fff" stroke-width=".5"/><path d="M21.25 8.297c-1.611 1.852-3.599 4.014-4.872 6.11l.107 1.357-3.975 6.142-.459-3.993c.752-3.028 10.137-14.908 12.3-16.314l.459 3.999-3.457 3.974-.103-1.275" fill="#02709f"/><path d="M21.25 8.298c-1.611 1.85-3.599 4.014-4.872 6.109l.107 1.357-3.975 6.143-.459-3.994c.752-3.028 10.137-14.908 12.3-16.314l.459 3.999-3.457 3.975-.103-1.275z" fill="none" stroke="#fff" stroke-width=".5"/><path d="M7.354 17.913l-.459 3.993h5.615l-.459-3.993H7.354" fill="#02709f"/><path d="M7.354 17.913l-.459 3.994h5.615l-.459-3.994H7.354z" fill="none" stroke="#fff" stroke-width=".5"/><path d="M24.35 1.599c-2.163 1.406-11.547 13.286-12.299 16.314H7.354c.756-3.028 10.136-14.908 12.3-16.314h4.696" fill="#02709f"/><path d="M24.35 1.6c-2.163 1.405-11.547 13.285-12.299 16.313H7.354c.756-3.028 10.136-14.908 12.3-16.314h4.696z" fill="none" stroke="#fff" stroke-width=".5"/><path d="M16.24 21.033l5.543-7.91h8.344l-4.95 7.91H16.24" fill="#02709f"/><path d="M16.24 21.033l5.543-7.911h8.344l-4.95 7.91H16.24z" fill="none" stroke="#fff" stroke-width=".5"/><path d="M22.197 21.033l5.152-7.91" fill="#02709f"/><path d="M22.197 21.033l5.152-7.911" fill="none" stroke="#fff" stroke-width=".5"/><path d="M19.219 21.033l5.346-7.91" fill="#02709f"/><path d="M19.219 21.033l5.346-7.911M26.416 19.055h-8.789M27.651 17.078h-8.637M28.891 15.1h-8.496" fill="none" stroke="#fff" stroke-width=".5"/></svg>