<svg xmlns="http://www.w3.org/2000/svg" viewBox="0 0 45 32.5" height="32.5" width="45"><defs><clipPath id="a"><path d="M0 10v247h360V10H0z"/></clipPath></defs><g clip-path="url(#a)" transform="matrix(.13 0 0 -.13 0 32.5)"><path d="M363.199 185.09c0-38.789-80.859-70.238-180.578-70.238-99.77 0-180.633 31.449-180.633 70.238V82.23C1.988 43.45 82.852 12 182.621 12c99.719 0 180.578 31.45 180.578 70.23v102.86" fill="#026c9b"/><path d="M363.199 185.09c0-38.789-80.859-70.238-180.578-70.238-99.77 0-180.633 31.449-180.633 70.238V82.23C1.988 43.45 82.852 12 182.621 12c99.719 0 180.578 31.45 180.578 70.23v102.86z" fill="none" stroke="#fff" stroke-width="4"/><path d="M363.199 185.09c0-38.789-80.859-70.238-180.578-70.238-99.77 0-180.633 31.449-180.633 70.238V82.23C1.988 43.45 82.852 12 182.621 12c99.719 0 180.578 31.45 180.578 70.23v102.86" fill="#026c9b"/><path d="M363.199 185.09c0-38.789-80.859-70.238-180.578-70.238-99.77 0-180.633 31.449-180.633 70.238V82.23C1.988 43.45 82.852 12 182.621 12c99.719 0 180.578 31.45 180.578 70.23v102.86z" fill="none" stroke="#fff" stroke-width="4"/><path d="M182.621 114.852c99.719 0 180.578 31.449 180.578 70.238s-80.859 70.23-180.578 70.23c-99.77 0-180.633-31.441-180.633-70.23s80.864-70.238 180.633-70.238" fill="#026c9b"/><path d="M182.621 114.852c99.719 0 180.578 31.449 180.578 70.238s-80.859 70.23-180.578 70.23c-99.77 0-180.633-31.441-180.633-70.23s80.864-70.238 180.633-70.238z" fill="none" stroke="#fff" stroke-width="4"/><path d="M129.301 146.141v91.129l86.988-44.059-86.988-47.07M217.73 150.281h27.031v84.379H217.73V150.28z" fill="#fff"/></g></svg>