<svg xmlns="http://www.w3.org/2000/svg" viewBox="0 0 38.75 53.75" height="53.75" width="38.75"><defs><clipPath id="a"><path d="M0 10v420h310V10H0z"/></clipPath></defs><g clip-path="url(#a)" transform="matrix(.13 0 0 -.13 0 53.75)"><path d="M6.45 14.805h268.28v268.008H6.45V14.805z" fill="#026c9b"/><path d="M6.45 14.805h268.28v268.008H6.45V14.805z" fill="none" stroke="#fff" stroke-width="4"/><path d="M308.59 48.324v268.039l-33.86-33.55V14.805l33.86 33.52" fill="#026c9b"/><path d="M308.59 48.324v268.039l-33.86-33.55V14.805l33.86 33.52z" fill="none" stroke="#fff" stroke-width="4"/><path d="M55.512 425.004L6.449 391.445H274.73l33.86 33.559H55.512" fill="#026c9b"/><path d="M55.512 425.004L6.449 391.445H274.73l33.86 33.559H55.512z" fill="none" stroke="#fff" stroke-width="4"/><path d="M6.45 282.813h268.28v108.633H6.45V282.813z" fill="#026c9b"/><path d="M6.45 282.813h268.28v108.633H6.45V282.813z" fill="none" stroke="#fff" stroke-width="4"/><path d="M308.59 316.363v108.641l-33.86-33.559V282.813l33.86 33.55" fill="#026c9b"/><path d="M308.59 316.363v108.641l-33.86-33.559V282.813l33.86 33.55zM274.73 282.813H6.45" fill="none" stroke="#fff" stroke-width="4"/><path d="M274.73 282.813l33.86 33.55" fill="#026c9b"/><path d="M274.73 282.813l33.86 33.55" fill="none" stroke="#fff" stroke-width="4"/><path d="M50.23 354.336h43.282v22.54H50.23v-22.54zM192.379 354.336h43.281v22.54H192.38v-22.54zM50.23 298.043h43.282v22.5H50.23v-22.5zM192.379 298.043h43.281v22.5H192.38v-22.5z" fill="#fff"/><path d="M79.61 365.586H212.46M79.61 309.293H212.46" fill="none" stroke="#fff" stroke-width="4"/><path d="M71.879 309.293l140.582 56.293"/><path d="M71.879 309.293l140.582 56.293" fill="none" stroke="#fff" stroke-width="4"/><path d="M71.879 365.586l140.582-56.293"/><path d="M71.879 365.586l140.582-56.293" fill="none" stroke="#fff" stroke-width="4"/><path d="M146.41 187.773v57.969h9.84l-14.531 21.91-14.528-21.91h9.879v-57.969h9.34M116.801 179.375l-40.98 41.02 6.949 6.949-25.739 5.23 5.239-25.738 6.91 6.949 41.019-41.012 6.602 6.602M101.84 152.535H43.828v9.848L21.95 147.855l21.88-14.5v9.848h58.011v9.332M110.199 122.965l-41.02-41.012-6.91 6.95-5.238-25.739 25.738 5.23-6.949 6.962 40.981 40.968-6.602 6.641M137.07 107.965v-58h-9.879l14.528-21.88 14.531 21.88h-9.84v58h-9.34M166.641 116.324l41.019-40.968-6.961-6.961 25.75-5.23-5.238 25.737-6.949-6.949-41.024 41.012-6.597-6.641M181.641 143.203h57.968v-9.848l21.911 14.5-21.911 14.528v-9.848h-57.968v-9.332M173.238 172.773l41.024 41.012 6.949-6.949 5.238 25.738-25.75-5.23 6.961-6.949-41.019-41.02 6.597-6.602" fill="#fff"/><path d="M177.191 99.254c27.188 19.031 33.789 56.488 14.758 83.641-19.019 27.14-56.48 33.75-83.629 14.718-27.148-19.019-33.75-56.437-14.73-83.59 19.031-27.187 56.449-33.789 83.601-14.77" fill="#fff"/></g></svg>