<svg xmlns="http://www.w3.org/2000/svg" viewBox="0 0 46.25 31.25" height="31.25" width="46.25"><path d="M46.23 9.19c0 4.937-10.293 8.94-22.987 8.94-12.7 0-22.994-4.003-22.994-8.94v13.095c0 4.936 10.293 8.94 22.994 8.94 12.695 0 22.987-4.004 22.987-8.94V9.19" fill="#026c9b"/><path d="M46.23 9.19c0 4.937-10.293 8.94-22.987 8.94-12.7 0-22.994-4.003-22.994-8.94v13.095c0 4.936 10.293 8.94 22.994 8.94 12.695 0 22.987-4.004 22.987-8.94V9.19z" fill="none" stroke="#fff" stroke-width=".5"/><path d="M23.243 18.13c12.695 0 22.987-4.004 22.987-8.94 0-4.943-10.292-8.942-22.987-8.942-12.7 0-22.994 4-22.994 8.942 0 4.936 10.293 8.94 22.994 8.94" fill="#026c9b"/><path d="M23.243 18.13c12.695 0 22.987-4.004 22.987-8.94 0-4.943-10.292-8.942-22.987-8.942-12.7 0-22.994 4-22.994 8.942 0 4.936 10.293 8.94 22.994 8.94z" fill="none" stroke="#fff" stroke-width=".5"/><path d="M17.994 5.694l1.894 2.846-7.178 1.66 1.567-1.309L3.19 6.997l2.777-2.084 10.709 1.81 1.319-1.03M28.091 12.598l-1.294-2.935 6.474-1.294-1.122 1.006 10.791 1.841-2.589 2.075-10.728-2.016-1.532 1.323M24.551 4.14l7.25-1.986.09 3.11-1.817-.346-3.536 2.933-3.38-.492 3.653-2.872-2.26-.347M21.445 15.274l-6.909 1.298-.259-3.193 1.988.43 3.799-3.248 3.364.567-4.058 3.54 2.075.606" fill="#fff"/></svg>