<svg xmlns="http://www.w3.org/2000/svg" viewBox="0 0 80 28.75" height="28.75" width="80"><path d="M79.493 2.91v1.665L62.71 10.723l-7.641-1.32-4.59-.888-3.145-.655-.078-2.108" fill="#036998"/><path d="M79.493 2.91v1.664L62.71 10.722l-7.641-1.32-4.59-.886-3.145-.656-.078-2.108" fill="none" stroke="#fff" stroke-width=".5"/><path d="M40.308 27.25c2.128 0 3.857-.756 3.857-1.689 0-.932-1.729-1.69-3.857-1.69-2.134 0-3.863.758-3.863 1.69 0 .933 1.729 1.689 3.863 1.689" fill="#036998"/><path d="M40.308 27.25c2.128 0 3.857-.757 3.857-1.69 0-.932-1.729-1.688-3.857-1.688-2.134 0-3.863.756-3.863 1.689 0 .932 1.729 1.69 3.863 1.69z" fill="none" stroke="#fff" stroke-width=".5"/><path d="M55.533 7.396l7.226 1.153L79.493 2.91 64.869.62 47.256 5.751l5.063.864" fill="#036998"/><path d="M55.533 7.396l7.226 1.153 16.734-5.64L64.869.62 47.256 5.752l5.063.863" fill="none" stroke="#fff" stroke-width=".5"/><path d="M54.316 7.695c5.195-1.319 6.334-2.608 6.334-2.608-1.753-.844-8.038 1.43-8.038 1.43L51.5 6.9l2.817.796" fill="#036998"/><path d="M54.316 7.694c5.195-1.317 6.334-2.607 6.334-2.607-1.753-.844-8.038 1.431-8.038 1.431L51.5 6.9l2.817.795z" fill="none" stroke="#fff" stroke-width=".5"/><path d="M52.319 6.615l-5.063-.884L64.87.621l14.624 2.29-16.734 5.638-7.305-1.123C59.639 6.415 60.6 5.087 60.6 5.087c-1.752-.844-7.245 1.181-7.245 1.181l-.02.04-5.083 1.548v2.798l6.63-2.257.074-.024s.308-.708.308-.947" fill="#036998"/><path d="M52.319 6.615l-5.063-.883L64.87.619l14.624 2.29-16.734 5.64-7.305-1.124c4.185-1.01 5.146-2.338 5.146-2.338-1.752-.844-7.245 1.182-7.245 1.182l-.02.04-5.083 1.546v2.798l6.63-2.255.074-.025s.308-.708.308-.948" fill="none" stroke="#fff" stroke-width=".5"/><path d="M54.898 7.406c.053.005.107-.053.122-.136.014-.084-.015-.156-.069-.167-.053-.01-.107.055-.122.132-.014.084.02.161.069.171" fill="#036998"/><path d="M54.898 7.407c.053.005.107-.054.122-.138.014-.083-.015-.156-.069-.165-.053-.01-.107.054-.122.131-.014.083.02.161.069.172z" fill="none" stroke="#fff" stroke-width=".5"/><path d="M32.31 1.01v20.786c0 1.924 3.569 3.487 7.969 3.487 4.404 0 7.973-1.563 7.973-3.487V.834" fill="#036998"/><path d="M32.31 1.01v20.787c0 1.924 3.569 3.486 7.969 3.486 4.404 0 7.973-1.562 7.973-3.486V.834" fill="none" stroke="#fff" stroke-width=".5"/><path d="M33.223 17.445v1.895l-17.53 6.206L.28 21.976l-.03-2.241" fill="#036998"/><path d="M33.223 17.445v1.895l-17.53 6.207L.28 21.977l-.03-2.242" fill="none" stroke="#fff" stroke-width=".5"/><path d="M27.582 16.65l5.64.795-17.528 5.811L.279 19.691l18.369-5.151 4.218.717" fill="#036998"/><path d="M27.582 16.65l5.64.795-17.528 5.81L.279 19.692l18.369-5.152 4.218.718" fill="none" stroke="#fff" stroke-width=".5"/><path d="M22.779 15.219c-3.878.967-5.289 2.905-5.289 2.905 5.85.176 10.035-1.509 10.035-1.509" fill="#036998"/><path d="M22.779 15.22c-3.878.966-5.289 2.904-5.289 2.904 5.85.176 10.035-1.509 10.035-1.509" fill="none" stroke="#fff" stroke-width=".5"/><path d="M22.471 15.316l12.895-3.758c1.85.087 1.612 1.586 1.612 1.586.087.971-1.382 1.391-1.382 1.391l-8.424 2.193" fill="#036998"/><path d="M22.471 15.317l12.895-3.76c1.85.087 1.612 1.587 1.612 1.587.087.971-1.382 1.392-1.382 1.392l-8.424 2.192" fill="none" stroke="#fff" stroke-width=".5"/><path d="M26.973 16.743c.107 0 .19-.04.19-.093 0-.054-.083-.097-.19-.097-.108 0-.196.043-.196.097 0 .054.088.093.196.093" fill="#036998"/><path d="M26.973 16.743c.107 0 .19-.04.19-.094 0-.053-.083-.097-.19-.097-.108 0-.196.044-.196.097 0 .054.088.094.196.094z" fill="none" stroke="#fff" stroke-width=".5"/></svg>