<svg xmlns="http://www.w3.org/2000/svg" viewBox="0 0 33.75 35" height="35" width="33.75"><path d="M29.449 4.063H.249l3.516-2.808h29.199l-3.515 2.808" fill="#5db2e6"/><path d="M32.998 30.44L29.4 33.237V4.04l3.598-2.799v29.2" fill="#1d446d"/><path d="M32.998 30.44L29.4 33.238v-29.2l3.598-2.798v29.2z" fill="none" stroke="#fff" stroke-width=".5"/><path d="M.249 33.237h29.198V4.04H.25v29.198z" fill="#4296d8"/><path d="M.249 33.237h29.198V4.038H.25v29.199z" fill="none" stroke="#fff" stroke-width=".5"/><path d="M14.931 17.979c0 .107-.092.2-.2.2h-4.106a.204.204 0 0 1-.2-.2v-4.106a.2.2 0 0 1 .2-.2h4.106a.2.2 0 0 1 .2.2v4.106M20.248 17.95a.144.144 0 0 1-.146.146H17.12a.144.144 0 0 1-.146-.146v-2.989c0-.077.063-.146.146-.146h2.983c.083 0 .146.069.146.146v2.99M13.877 22.715a.147.147 0 0 1-.147.146h-2.987a.146.146 0 0 1-.147-.146v-2.987c0-.08.068-.143.147-.143h2.987c.079 0 .147.064.147.143v2.987M19.839 23.491a.18.18 0 0 1-.18.176h-3.657a.176.176 0 0 1-.177-.176v-3.657a.18.18 0 0 1 .177-.18h3.657c.097 0 .18.082.18.18v3.657" fill="#100f0d"/><path d="M11.406 9.239H5.674v12.807H8.35V11.915h3.056V9.239M15.23 9.239v2.676h7.075v7.646h2.675V9.239h-9.75M22.305 23.384v2.486H5.674v2.675H24.98v-5.161h-2.675" fill="#100f0d"/><path d="M14.531 17.579c0 .107-.092.2-.2.2h-4.106a.204.204 0 0 1-.2-.2v-4.106c0-.113.093-.202.2-.202h4.106c.108 0 .2.089.2.202v4.106M19.849 17.549a.143.143 0 0 1-.142.147h-2.993a.144.144 0 0 1-.142-.147V14.56c0-.079.064-.142.142-.142h2.993c.078 0 .142.063.142.142v2.988M13.476 22.32a.145.145 0 0 1-.146.141h-2.989a.143.143 0 0 1-.146-.141V19.33c0-.083.064-.146.146-.146h2.99c.078 0 .145.064.145.146v2.989M19.439 23.091a.18.18 0 0 1-.182.177H15.6a.175.175 0 0 1-.175-.177v-3.657c0-.098.077-.18.175-.18h3.657c.098 0 .182.082.182.18v3.657" fill="#fff"/><path d="M17.91 20.933c0 .122-.102.22-.225.22h-4.526a.218.218 0 0 1-.219-.22v-4.527a.22.22 0 0 1 .219-.22h4.526c.123 0 .225.1.225.22v4.527" fill="#100f0d"/><path d="M17.51 20.533c0 .122-.102.22-.225.22H12.76a.219.219 0 0 1-.22-.22v-4.527c0-.122.097-.22.22-.22h4.526c.123 0 .225.098.225.22v4.527" fill="#fff"/><path d="M17.51 20.533c0 .121-.102.22-.225.22H12.76a.22.22 0 0 1-.22-.22v-4.526c0-.123.097-.22.22-.22h4.526c.123 0 .225.097.225.22v4.526z" fill="none" stroke="#100f0d" stroke-width=".3125"/><path d="M11.006 8.839H5.274v12.808h2.675V11.514h3.057V8.839M14.829 8.839v2.675h7.075v7.646h2.676V8.84H14.83M21.904 22.984v2.485H5.274v2.676H24.58v-5.161h-2.676" fill="#fff"/></svg>