<svg xmlns="http://www.w3.org/2000/svg" viewBox="0 0 32.5 41.25" height="41.25" width="32.5"><path d="M31.265.681l-3.437 3.886H.664L5.118.681h26.147" fill="#087bbb"/><path d="M31.265.68l-3.437 3.888H.664L5.118.68h26.147z" fill="none" stroke="#fff" stroke-width=".5"/><path d="M27.828 4.567V18.07l3.432-3.614V.95l-3.432 3.618" fill="#087bbb"/><path d="M27.828 4.568v13.5l3.432-3.612V.949l-3.432 3.619z" fill="none" stroke="#fff" stroke-width=".5"/><path d="M.664 39.373h27.162v-21.52H.664v21.52z" fill="#087bbb"/><path d="M27.828 39.372V17.853H.664v21.519" fill="none" stroke="#fff" stroke-width=".5"/><path d="M.664 17.902h27.162V4.567H.664v13.335z" fill="#087bbb"/><path d="M.664 17.903h27.162V4.568H.664v13.335z" fill="none" stroke="#fff" stroke-width=".5"/><path d="M31.26 35.759v-21.44l-3.432 3.612v21.442l3.432-3.614" fill="#087bbb"/><path d="M31.26 35.76V14.317l-3.432 3.614v21.44l3.432-3.613z" fill="none" stroke="#fff" stroke-width=".5"/><path d="M14.692 31.125v4.697h.797l-1.173 1.773-1.176-1.773h.795v-4.697h.757M12.3 30.446l-3.325 3.325.566.562-2.085.42.42-2.086.566.567 3.32-3.325.538.537M11.084 28.274H6.386v.795l-1.772-1.176 1.772-1.177v.8h4.698v.758M11.763 25.877l-3.32-3.32-.567.56-.42-2.084 2.085.424-.566.561 3.325 3.32-.537.538M13.935 26.306V17.24h-.795l1.176-1.773 1.173 1.773h-.797v9.067h-.757M16.332 25.339l3.322-3.32-.563-.561 2.085-.425-.423 2.085-.563-.562-3.32 3.32-.537-.537M17.549 27.516h4.697v-.8l1.773 1.177-1.773 1.176v-.795H17.55v-.758M16.87 29.909l3.32 3.325.563-.567.423 2.085-2.085-.42.563-.56-3.322-3.326.538-.537" fill="#fff"/><path d="M17.188 23.957a4.863 4.863 0 0 1 1.196 6.773 4.86 4.86 0 0 1-6.773 1.196 4.863 4.863 0 0 1 5.576-7.969M14.024 8.869h7.152V8.16l2.34 1.422-2.34 1.455v-.71h-7.152v-1.46M14.024 13.317h7.152v-.708l2.34 1.42-2.34 1.456v-.708h-7.152v-1.46M14.185 6.745H7.031v-.712l-2.339 1.42 2.34 1.456V8.2h7.153V6.745M14.185 11.189H7.031v-.709l-2.339 1.421 2.34 1.456v-.708h7.153v-1.46" fill="#fff"/><path d="M27.695 39.328H.8M31.337.744L27.915 4.49M27.695 17.922H.8M31.158 14.49l-3.155 3.3" fill="none" stroke="#fff" stroke-width=".5" stroke-linecap="round" stroke-linejoin="round"/></svg>