<svg xmlns="http://www.w3.org/2000/svg" viewBox="0 0 68.75 27.5" height="27.5" width="68.75"><path d="M.82 25.194h52.154V15.56H.82v9.634z" fill="#0881c1"/><path d="M1.85 24.749h49.854v-7.856H1.85v7.856z" fill="#0881c1"/><path d="M1.85 24.749h49.854v-7.857H1.85v7.857z" fill="none" stroke="#fff" stroke-width=".5"/><path d="M.703 15.632L18.74 1.014h49.165L52.93 15.632H.703" fill="#0881c1"/><path d="M.703 15.632L18.74 1.014h49.165L52.93 15.632H.703z" fill="none" stroke="#fff" stroke-width=".5"/><path d="M52.949 25.647L67.86 10.794l.01-9.752L52.95 15.614v10.033" fill="#0881c1"/><path d="M52.949 25.647L67.86 10.794l.01-9.75-14.922 14.57v10.033z" fill="none" stroke="#fff" stroke-width=".5"/><path d="M3.98 21.941h3.091v-2.343H3.98v2.343zM23.98 21.941h3.091v-2.343H23.98v2.343zM47.315 21.941h3.086v-2.343h-3.086v2.343z" fill="#fff"/><path d="M39.908 16.78c1.85.806 3.076 2.198 3.076 3.78 0 2.49-3.033 4.506-6.773 4.506-3.736 0-6.767-2.016-6.767-4.506 0-2.491 3.031-4.507 6.767-4.507 1.363 0 2.631.268 3.697.727" fill="#0881c1"/><path d="M39.908 16.78c1.85.806 3.076 2.197 3.076 3.78 0 2.49-3.033 4.506-6.773 4.506-3.736 0-6.767-2.016-6.767-4.506s3.031-4.508 6.767-4.508c1.363 0 2.631.269 3.697.728" fill="none" stroke="#fff" stroke-width=".466375"/><path d="M41.342 20.535c0 1.87-2.275 3.384-5.077 3.384-2.803 0-5.079-1.514-5.079-3.384 0-1.865 2.276-3.379 5.08-3.379 2.801 0 5.076 1.514 5.076 3.38" fill="#fff"/><path d="M41.342 20.535c0 1.87-2.275 3.383-5.077 3.383-2.803 0-5.079-1.513-5.079-3.383 0-1.865 2.276-3.38 5.08-3.38 2.801 0 5.076 1.515 5.076 3.38z" fill="none" stroke="#fff" stroke-width=".34975"/></svg>