<svg xmlns="http://www.w3.org/2000/svg" viewBox="0 0 57.5 33.75" height="33.75" width="57.5"><defs><clipPath id="a"><path d="M0 10h460v260H0V10z"/></clipPath></defs><g clip-path="url(#a)" transform="matrix(.13 0 0 -.13 0 33.75)"><path d="M18.91 35.98h425.738v232.031H18.91V35.982z" fill="#036998"/><path d="M18.91 35.98h425.738v232.031H18.91V35.982z" fill="none" stroke="#fff" stroke-width="4"/><path d="M191.051 40.04h41.371v138.71h-41.371V40.04z" fill="#036998"/><path d="M191.051 40.04h41.371v138.71h-41.371V40.04z" fill="none" stroke="#fff" stroke-width="4"/><path d="M232.422 40.04h41.29v138.71h-41.29V40.04z" fill="#036998"/><path d="M232.422 40.04h41.29v138.71h-41.29V40.04z" fill="none" stroke="#fff" stroke-width="4"/><path d="M178.789 30.16h107.27v9.88h-107.27v-9.88z" fill="#036998"/><path d="M178.789 30.16h107.27v9.88h-107.27v-9.88z" fill="none" stroke="#fff" stroke-width="4"/><path d="M173.32 20.16h118.199v10H173.32v-10z" fill="#036998"/><path d="M173.32 20.16h118.199v10H173.32v-10z" fill="none" stroke="#fff" stroke-width="4"/><path d="M168.281 10.2h128.277v9.96H168.281V10.2z" fill="#036998"/><path d="M168.281 10.2h128.277v9.96H168.281V10.2zM211.051 117.5h11.219M253.75 117.5h-11.211" fill="none" stroke="#fff" stroke-width="4"/><path d="M450.121 248.32l10.5-22.3H3.161l10.51 22.3h436.45" fill="#036998"/><path d="M450.121 248.32l10.5-22.3H3.161l10.51 22.3h436.45z" fill="none" stroke="#fff" stroke-width="4"/><path d="M62.621 90.781h82.77v114.527H62.62V90.781z" fill="#036998"/><path d="M62.621 90.781h82.77v114.527H62.62V90.781z" fill="none" stroke="#fff" stroke-width="4"/><path d="M318.09 90.738h82.77V205.27h-82.77V90.74z" fill="#036998"/><path d="M318.09 90.738h82.77V205.27h-82.77V90.74z" fill="none" stroke="#fff" stroke-width="4"/></g></svg>