<svg xmlns="http://www.w3.org/2000/svg" viewBox="0 0 40 47.5" height="47.5" width="40"><path d="M.605 45.649h19.234V15.004H.605v30.645z" fill="#036998"/><path d="M19.839 15.003H.605v30.645h19.234" fill="none" stroke="#fff" stroke-width=".5"/><path d="M19.839 45.649l6.143-6.143V8.861H6.747L.605 15.004h19.234v30.645" fill="#036998"/><path d="M19.839 45.648l6.143-6.142V8.86H6.747L.605 15.003h19.234v30.645z" fill="none" stroke="#fff" stroke-width=".5"/><path d="M19.839 15.004l6.143-6.143"/><path d="M19.839 15.003l6.143-6.142M.913 26.942h18.75M.913 41.005h18.75M5.288 19.755h5.468" fill="none" stroke="#fff" stroke-width=".5"/><path d="M3.1 21.63h9.688v-3.906H3.1v3.906z" fill="#036998"/><path d="M3.1 21.63h9.688v-3.906H3.1v3.906z" fill="none" stroke="#fff" stroke-width=".5"/><path d="M39.824.214l-.625.371h-24.33l.62-.386 24.335.015M39.829 24.335L39.824.214l-.625.478v24.224l.63-.581" fill="#036998"/><path d="M15.971 24.916H39.2V.585h-24.33v23.227l1.102 1.104" fill="#036998"/><path d="M15.971 24.916H39.2V.585h-24.33v23.227l1.102 1.104z" fill="none" stroke="#fff" stroke-width=".5"/><path d="M37.353.585v14.039c0 1.015-.83.825-.83.825H17.447s-.737.092-.737-.738V.585M15.244 3.075h1.104v-1.11h-1.104v1.11zM37.73 3.075h1.109v-1.11H37.73v1.11z" fill="none" stroke="#fff" stroke-width=".5"/><path d="M33.417 17.821v6.831H18.95v-6.924c0-.737.83-.644.83-.644H32.68c.83 0 .736.737.736.737" fill="#fff"/><path d="M33.417 17.82v6.832H18.95v-6.924c0-.737.83-.645.83-.645H32.68c.83 0 .736.738.736.738z" fill="none" stroke="#036998" stroke-width=".5"/><path d="M37.353 24.916v-7.095s.093-.738-.737-.738H19.8s-.83-.092-.83.646v6.737" fill="none" stroke="#fff" stroke-width=".5"/><path d="M21.734 24.179h2.856v-6.636h-2.856v6.636z" fill="#036998"/><path d="M21.734 24.179h2.856v-6.636h-2.856v6.636z" fill="none" stroke="#fff" stroke-width=".5"/><path d="M31.793 12.801a6.642 6.642 0 0 0 0-9.399 6.644 6.644 0 0 0-9.4 0 6.642 6.642 0 0 0 0 9.4 6.643 6.643 0 0 0 9.4 0" fill="#fff"/><path d="M39.199.677l.645-.458" fill="none" stroke="#fff" stroke-width=".5"/><path d="M26.24 6.958l-3.179-3.112" fill="none" stroke="#036998" stroke-width=".625"/><path d="M27.646 10.629l2.003-2.002-2.169-.25.167 2.252M24.526 7.44l2.008-2.006.243 2.172-2.25-.166" fill="#036998"/><path d="M31.342 12.235L28.217 9.11M27.628 7.406l2.343-2.27" fill="none" stroke="#036998" stroke-width=".625"/><path d="M28.96 4.066l2.006 2.006.245-2.172-2.251.166M23.081 9.94l2.002 2.002-2.168.244.166-2.246" fill="#036998"/><path d="M23.955 11.141l2.632-2.621" fill="none" stroke="#036998" stroke-width=".625"/></svg>