<svg xmlns="http://www.w3.org/2000/svg" viewBox="0 0 36.25 35" height="35" width="36.25"><defs><clipPath id="a"><path d="M0 10v269h290V10H0z"/></clipPath></defs><g clip-path="url(#a)" transform="matrix(.13 0 0 -.13 0 35)"><path d="M46.68 43.484h209.57v39.22H46.68v-39.22z" fill="#036998"/><path d="M46.68 43.484h209.57v39.22H46.68v-39.22z" fill="none" stroke="#fff" stroke-width="4"/><path d="M291.719 118.445V78.832L256.25 43.094v39.61H46.52" fill="#036998"/><path d="M291.719 118.445V78.832L256.25 43.094v39.61H46.52M48.16 118.445H291.72" fill="none" stroke="#fff" stroke-width="4"/><path d="M256.25 82.703l35.469 35.742" fill="#036998"/><path d="M256.25 82.703l35.469 35.742" fill="none" stroke="#fff" stroke-width="4"/><path d="M46.52 83.484h209.449v157.93H46.519V83.484z" fill="#036998"/><path d="M46.52 83.484h209.449v157.93H46.519V83.484z" fill="none" stroke="#fff" stroke-width="4"/><path d="M255.98 83.484l35.739 35.739v157.929H82.269l-35.75-35.738H255.98V83.484" fill="#036998"/><path d="M255.98 83.484l35.739 35.739v157.929H82.269l-35.75-35.738H255.98V83.484z" fill="none" stroke="#fff" stroke-width="4"/><path d="M64.8 101.762h172.892v121.371H64.8V101.762z" fill="#036998"/><path d="M64.8 101.762h172.892v121.371H64.8V101.762z" fill="none" stroke="#fff" stroke-width="4"/><path d="M255.98 241.414l35.739 35.738" fill="#036998"/><path d="M255.98 241.414l35.739 35.738" fill="none" stroke="#fff" stroke-width="4"/><path d="M245.898 14.813v23.242H4.84l27.43 27.418h241.05v-23.2l-27.422-27.46" fill="#036998"/><path d="M245.898 14.813v23.242H4.84l27.43 27.418h241.05v-23.2l-27.422-27.46z" fill="none" stroke="#fff" stroke-width="4"/><path d="M4.84 14.813h241.05v23.242H4.84V14.812z" fill="#036998"/><path d="M4.84 14.813h241.05v23.242H4.84V14.812z" fill="none" stroke="#fff" stroke-width="4"/><path d="M245.898 38.055l27.422 27.418" fill="#036998"/><path d="M245.898 38.055l27.422 27.418" fill="none" stroke="#fff" stroke-width="4"/><path d="M145.078 186.652s18.902 11.051 33.012 7.61l2.93-9.219 8.82-16.25 37.308 20.32-9.527 17.5-12.699 4.961s-32.852 2.149-68.281-15.511l-5.661-3.051c-34.03-20.188-50.082-48.938-50.082-48.938l-2.738-13.359 9.54-17.5 37.3 20.269-8.828 16.25-6.172 7.461c4.801 13.75 24.301 23.598 24.301 23.598l10.777 5.859" fill="#036998"/><path d="M145.078 186.652s18.902 11.051 33.012 7.61l2.93-9.219 8.82-16.25 37.308 20.32-9.527 17.5-12.699 4.961s-32.852 2.149-68.281-15.511l-5.661-3.051c-34.03-20.188-50.082-48.938-50.082-48.938l-2.738-13.359 9.54-17.5 37.3 20.269-8.828 16.25-6.172 7.461c4.801 13.75 24.301 23.598 24.301 23.598l10.777 5.859z" fill="none" stroke="#fff" stroke-width="4"/><path d="M116.801 150.363l-39.57-21.531" fill="#036998"/><path d="M116.801 150.363l-39.57-21.531" fill="none" stroke="#fff" stroke-width="4"/><path d="M218.238 205.594l-39.527-21.52" fill="#036998"/><path d="M218.238 205.594l-39.527-21.52" fill="none" stroke="#fff" stroke-width="4"/></g></svg>