<svg xmlns="http://www.w3.org/2000/svg" viewBox="0 0 13.75 38.75" height="38.75" width="13.75"><path d="M0 20.381h3.022l-2.3 8.512h2.472L2.969 37.5h1.275l1.972-8.623H7.34l2.27 8.574 1.099-.014-.23-8.584h2.27l-2.09-8.559c.357 0 2.423.067 3.043-.02l-.532-4.292c0-.888-.908-4.78-1.176-5.67-.23-.771-1.773-1.952-2.574-2.22-.8-.264-2.403-.177-3.287-.177-.888 0-1.875.225-2.758.445-.708.176-1.509 1.332-1.773 2.041-.268.713-.625 2.934-.889 3.999L0 20.38" fill="#087dbd"/><path d="M8.501 7.945c-.327-.03-.86 0-1.362-.03a13.88 13.88 0 0 0-1.601.03c-.357.029-1.217.234-1.304.234-.089 0-.147-.058-.147-.058l2.553 4.58 2.657-4.58c-.014-.215-.255-.079-.4-.161" fill="#fff"/><path d="M8.501 7.945c-.327-.029-.86 0-1.362-.029a13.9 13.9 0 0 0-1.601.029c-.357.029-1.217.235-1.304.235-.089 0-.147-.059-.147-.059l2.553 4.58 2.657-4.58c-.014-.215-.255-.079-.4-.161" fill="none" stroke="#fff" stroke-width=".125"/><path d="M6.68 7.735a3.674 3.674 0 0 0 3.671-3.676 3.675 3.675 0 1 0-7.349 0A3.676 3.676 0 0 0 6.68 7.735z" fill="none" stroke="#087dbd" stroke-width=".5"/><path d="M2.91 3.555S2.15 6.172.712 6.09c0 0 1.744 1.196 3.21.434" fill="#087dbd"/><path d="M2.91 3.555S2.15 6.172.712 6.09c0 0 1.744 1.196 3.21.433" fill="none" stroke="#087dbd" stroke-width=".5" stroke-linecap="round" stroke-linejoin="round"/><path d="M10.435 3.555s.761 2.617 2.196 2.535c0 0-1.742 1.196-3.207.434" fill="#087dbd"/><path d="M10.435 3.555s.761 2.617 2.196 2.535c0 0-1.742 1.196-3.207.433" fill="none" stroke="#087dbd" stroke-width=".5" stroke-linecap="round" stroke-linejoin="round"/><path d="M9.301 1.524c-.585.625-1.596 1.04-2.748 1.04-1.074 0-2.017-.361-2.618-.918" fill="#087dbd"/><path d="M9.301 1.523c-.585.625-1.596 1.04-2.748 1.04-1.074 0-2.017-.36-2.618-.917" fill="none" stroke="#087dbd" stroke-width=".5" stroke-linecap="round" stroke-linejoin="round"/><path d="M9.301 1.524a3.643 3.643 0 0 0-5.366.123c.601.556 1.544.917 2.618.917 1.152 0 2.163-.415 2.748-1.04" fill="#087dbd"/><path d="M9.301 1.523a3.644 3.644 0 0 0-5.366.123c.601.556 1.544.918 2.618.918 1.152 0 2.163-.416 2.748-1.04z" fill="none" stroke="#087dbd" stroke-width=".5" stroke-linecap="round" stroke-linejoin="round"/></svg>