<svg xmlns="http://www.w3.org/2000/svg" viewBox="0 0 15 38.75" height="38.75" width="15"><path d="M.176 21.329H3.2L0 37.5h4.35l2.637-11.816S8.35 34.922 8.97 37.413h4.624c-.269-1.07-2.666-14.752-2.759-16.172.356 0 2.315.18 2.935.088 0-.708-.533-4.351-.533-5.24 0-.888-.801-4.888-1.07-5.776-.228-.772-1.772-1.953-2.572-2.222-.801-.263-2.398-.176-3.286-.176-.89 0-1.875.225-2.754.445-.714.176-1.514 1.332-1.778 2.041-.268.713-.625 2.934-.888 3.999C.62 15.465.533 19.464.35 20.089c-.175.62-.175 1.24-.175 1.24" fill="#036998"/><path d="M8.676 7.945c-.326-.03-.859 0-1.361-.03a13.79 13.79 0 0 0-1.598.03c-.356.029-1.215.234-1.303.234-.093 0-.151-.058-.151-.058l2.133 7.583L9.478 8.12c-.02-.215-.26-.079-.4-.161" fill="#fff"/><path d="M8.676 7.945c-.326-.029-.859 0-1.361-.029-.504-.03-1.246 0-1.598.029-.356.029-1.215.235-1.303.235-.093 0-.151-.059-.151-.059l2.133 7.583L9.478 8.12c-.02-.215-.26-.079-.4-.161" fill="none" stroke="#fff" stroke-width=".236875"/><path d="M6.855 7.735a3.675 3.675 0 0 0 3.672-3.676A3.676 3.676 0 0 0 6.855.38 3.676 3.676 0 0 0 3.179 4.06a3.675 3.675 0 0 0 3.676 3.676" fill="#fff"/><path d="M6.855 7.735a3.675 3.675 0 0 0 3.672-3.676A3.676 3.676 0 0 0 6.855.38 3.676 3.676 0 0 0 3.179 4.06a3.675 3.675 0 0 0 3.676 3.676z" fill="none" stroke="#036998" stroke-width=".5"/></svg>