<svg xmlns="http://www.w3.org/2000/svg" viewBox="0 0 51.25 22.5" height="22.5" width="51.25"><path d="M43.998 21.709l7.5-10.474V3.853A3.603 3.603 0 0 0 47.9.249H10.098c-1.988 0-2.764 1.46-4.014 2.71L.669 8.794" fill="#036998"/><path d="M43.998 21.709l7.5-10.474V3.853A3.603 3.603 0 0 0 47.9.249H10.098c-1.988 0-2.764 1.46-4.014 2.71L.669 8.794" fill="none" stroke="#fff" stroke-width=".5"/><path d="M45.248 18.735c0 1.988-1.61 3.599-3.598 3.599H3.848a3.6 3.6 0 0 1-3.6-3.6v-7.381a3.604 3.604 0 0 1 3.6-3.605H41.65a3.603 3.603 0 0 1 3.599 3.605v7.382" fill="#036998"/><path d="M45.248 18.735c0 1.988-1.61 3.599-3.598 3.599H3.848a3.6 3.6 0 0 1-3.6-3.6v-7.381a3.604 3.604 0 0 1 3.6-3.605H41.65a3.603 3.603 0 0 1 3.599 3.605v7.382z" fill="none" stroke="#fff" stroke-width=".5"/><path d="M13.804 15.025h18.96V9.019h-18.96v6.006z" fill="#036998"/><path d="M13.804 15.025h18.96V9.019h-18.96v6.006z" fill="none" stroke="#fff" stroke-width=".5"/><path d="M37.172 11.304a1.167 1.167 0 1 1-2.333 0 1.167 1.167 0 0 1 2.333 0" fill="#036998"/><path d="M37.172 11.304a1.167 1.167 0 1 1-2.333 0 1.167 1.167 0 0 1 2.333 0z" fill="none" stroke="#fff" stroke-width=".5"/><path d="M37.172 14.634a1.167 1.167 0 1 1-2.333.001 1.167 1.167 0 0 1 2.333-.001" fill="#036998"/><path d="M37.172 14.634a1.167 1.167 0 1 1-2.333.001 1.167 1.167 0 0 1 2.333-.001z" fill="none" stroke="#fff" stroke-width=".5"/><path d="M37.172 17.969a1.167 1.167 0 1 1-2.333 0 1.167 1.167 0 0 1 2.333 0" fill="#036998"/><path d="M37.172 17.969a1.167 1.167 0 1 1-2.333 0 1.167 1.167 0 0 1 2.333 0z" fill="none" stroke="#fff" stroke-width=".5"/><path d="M29.244 19.019c0 .922-2.423 1.67-5.416 1.67-2.988 0-5.415-.748-5.415-1.67 0-.919 2.427-1.665 5.415-1.665 2.993 0 5.416.746 5.416 1.665" fill="#036998"/><path d="M29.244 19.019c0 .922-2.423 1.67-5.416 1.67-2.988 0-5.415-.748-5.415-1.67 0-.919 2.427-1.665 5.415-1.665 2.993 0 5.416.746 5.416 1.665z" fill="none" stroke="#fff" stroke-width=".5"/></svg>