<?xml version="1.0" encoding="UTF-8" standalone="no"?>
<svg
   xmlns:dc="http://purl.org/dc/elements/1.1/"
   xmlns:cc="http://creativecommons.org/ns#"
   xmlns:rdf="http://www.w3.org/1999/02/22-rdf-syntax-ns#"
   xmlns:svg="http://www.w3.org/2000/svg"
   xmlns="http://www.w3.org/2000/svg"
   viewBox="0 0 53.75 30"
   height="30"
   width="53.75"
   xml:space="preserve"
   version="1.1"
   id="svg2"><metadata
     id="metadata8"><rdf:RDF><cc:Work
         rdf:about=""><dc:format>image/svg+xml</dc:format><dc:type
           rdf:resource="http://purl.org/dc/dcmitype/StillImage" /></cc:Work></rdf:RDF></metadata><defs
     id="defs6" /><g
     transform="matrix(1.25,0,0,-1.25,0,30)"
     id="g10"><g
       transform="scale(0.1,0.1)"
       id="g12"><path
         id="path14"
         style="fill:#036998;fill-opacity:1;fill-rule:nonzero;stroke:none"
         d="M 396.172,235.391 406.48,222.031 367.73,2.26953 354.961,10.1602 396.172,235.391" /><path
         id="path16"
         style="fill:none;stroke:#ffffff;stroke-width:3.99993992;stroke-linecap:butt;stroke-linejoin:miter;stroke-miterlimit:4;stroke-dasharray:none;stroke-opacity:1"
         d="M 396.172,235.391 406.48,222.031 367.73,2.26953 354.961,10.1602 396.172,235.391 Z" /><path
         id="path18"
         style="fill:#000000;fill-opacity:1;fill-rule:nonzero;stroke:none"
         d="m 6.44922,10.1602 11.56248,-7.89067 349.7183,0 -12.769,7.89067 -348.51178,0" /><path
         id="path20"
         style="fill:none;stroke:#ffffff;stroke-width:3.99993992;stroke-linecap:butt;stroke-linejoin:miter;stroke-miterlimit:4;stroke-dasharray:none;stroke-opacity:1"
         d="m 6.44922,10.1602 11.56248,-7.89067 349.7183,0 -12.769,7.89067 -348.51178,0 z" /><path
         id="path22"
         style="fill:#036998;fill-opacity:1;fill-rule:nonzero;stroke:none"
         d="m 354.961,10.1602 41.211,225.2308 -344.2618,0 -45.46098,-225.2308 348.51178,0" /><path
         id="path24"
         style="fill:none;stroke:#ffffff;stroke-width:3.99993992;stroke-linecap:butt;stroke-linejoin:miter;stroke-miterlimit:4;stroke-dasharray:none;stroke-opacity:1"
         d="m 354.961,10.1602 41.211,225.2308 -344.2618,0 -45.46098,-225.2308 348.51178,0 z" /><path
         id="path26"
         style="fill:#036998;fill-opacity:1;fill-rule:nonzero;stroke:none"
         d="m 328.629,50.7383 26.293,140.2027 -193.402,0 -26.29,-140.2027 193.399,0" /><path
         id="path28"
         style="fill:none;stroke:#ffffff;stroke-width:3.99993992;stroke-linecap:butt;stroke-linejoin:miter;stroke-miterlimit:4;stroke-dasharray:none;stroke-opacity:1"
         d="m 328.629,50.7383 26.293,140.2027 -193.402,0 -26.29,-140.2027 193.399,0 z" /><path
         id="path30"
         style="fill:#036998;fill-opacity:1;fill-rule:nonzero;stroke:none"
         d="M 131.91,235.391 86.4492,10.1602" /><path
         id="path32"
         style="fill:none;stroke:#ffffff;stroke-width:3.99993992;stroke-linecap:butt;stroke-linejoin:miter;stroke-miterlimit:4;stroke-dasharray:none;stroke-opacity:1"
         d="M 131.91,235.391 86.4492,10.1602" /><path
         id="path34"
         style="fill:#036998;fill-opacity:1;fill-rule:nonzero;stroke:none"
         d="m 38.5508,57.4219 c 21.8789,-5.4336 48.3984,25.6992 59.2187,69.4881 10.8205,43.789 1.8789,83.68 -20.039,89.07 L 38.5508,57.4219" /><path
         id="path36"
         style="fill:none;stroke:#ffffff;stroke-width:3.99993992;stroke-linecap:butt;stroke-linejoin:miter;stroke-miterlimit:4;stroke-dasharray:none;stroke-opacity:1"
         d="m 38.5508,57.4219 c 21.8789,-5.4336 48.3984,25.6992 59.2187,69.4881 10.8205,43.789 1.8789,83.68 -20.039,89.07 L 38.5508,57.4219 Z" /><path
         id="path38"
         style="fill:#036998;fill-opacity:1;fill-rule:nonzero;stroke:none"
         d="m 165.738,211.48 62.5,0 0,7.5 -62.5,0 0,-7.5 z" /><path
         id="path40"
         style="fill:none;stroke:#ffffff;stroke-width:3.99993992;stroke-linecap:butt;stroke-linejoin:miter;stroke-miterlimit:4;stroke-dasharray:none;stroke-opacity:1"
         d="m 165.738,211.48 62.5,0 0,7.5 -62.5,0 0,-7.5 z" /><path
         id="path42"
         style="fill:#036998;fill-opacity:1;fill-rule:nonzero;stroke:none"
         d="m 290.738,211.48 62.5,0 0,7.5 -62.5,0 0,-7.5 z" /><path
         id="path44"
         style="fill:none;stroke:#ffffff;stroke-width:3.99993992;stroke-linecap:butt;stroke-linejoin:miter;stroke-miterlimit:4;stroke-dasharray:none;stroke-opacity:1"
         d="m 290.738,211.48 62.5,0 0,7.5 -62.5,0 0,-7.5 z" /><path
         id="path46"
         style="fill:#036998;fill-opacity:1;fill-rule:nonzero;stroke:none"
         d="m 412.191,46.8398 c -0.312,-2.7382 -2.812,-4.7304 -5.55,-4.3789 -2.731,0.3086 -4.692,2.8086 -4.371,5.5508 l 21.32,178.7503 c 0.359,2.726 2.82,4.687 5.59,4.367 2.73,-0.348 4.691,-2.809 4.371,-5.578 L 412.191,46.8398" /></g></g></svg>