<svg xmlns="http://www.w3.org/2000/svg" viewBox="0 0 62.5 55" height="55" width="62.5"><defs><clipPath id="a"><path d="M0 10v421h495V10H0z"/></clipPath></defs><g clip-path="url(#a)" transform="matrix(.13 0 0 -.13 0 55)"><path d="M206.988 396.922l45 31.441h25l-2.5-23.941-32.5-30-35 22.5" fill="#036998"/><path d="M206.988 396.922l45 31.441h25l-2.5-23.941-32.5-30-35 22.5z" fill="none" stroke="#fff" stroke-width="4"/><path d="M39.488 11.922h317.5v172.5h-317.5v-172.5z" fill="#036998"/><path d="M39.488 11.922h317.5v172.5h-317.5v-172.5z" fill="none" stroke="#fff" stroke-width="4"/><path d="M356.988 184.422l112.5 107.5v-165l-112.5-115v172.5" fill="#036998"/><path d="M356.988 184.422l112.5 107.5v-165l-112.5-115v172.5z" fill="none" stroke="#fff" stroke-width="4"/><path d="M415.738 46.492h-23.75l-1.25 155.43 18.75 7.5 11.25-10 2.5-131.25-7.5-21.68" fill="#036998"/><path d="M415.738 46.492h-23.75l-1.25 155.43 18.75 7.5 11.25-10 2.5-131.25-7.5-21.68z" fill="none" stroke="#fff" stroke-width="4"/><path d="M409.488 209.422l6.25-162.5 42.5 48.75-18.75 150-30-36.25" fill="#036998"/><path d="M409.488 209.422l6.25-162.5 42.5 48.75-18.75 150-30-36.25z" fill="none" stroke="#fff" stroke-width="4"/><path d="M381.988 171.922l-162.5 212.5 56.25 43.75 216.25-136.25-110-120" fill="#036998"/><path d="M381.988 171.922l-162.5 212.5 56.25 43.75 216.25-136.25-110-120z" fill="none" stroke="#fff" stroke-width="4"/><path d="M406.988 261.922l25 25-12.5 100-22.5-10v-90l10-25" fill="#036998"/><path d="M406.988 261.922l25 25-12.5 100-22.5-10v-90l10-25z" fill="none" stroke="#fff" stroke-width="4"/><path d="M369.488 296.922l37.5-33.75-2.5 118.75-20 2.5-15-87.5" fill="#036998"/><path d="M369.488 296.922l37.5-33.75-2.5 118.75-20 2.5-15-87.5z" fill="none" stroke="#fff" stroke-width="4"/><path d="M384.488 384.422l18.75-11.25 16.25 13.75-18.75 6.558-16.25-9.058" fill="#036998"/><path d="M384.488 384.422l18.75-11.25 16.25 13.75-18.75 6.558-16.25-9.058z" fill="none" stroke="#fff" stroke-width="4"/><path d="M234.488 396.922l150-225h-380l202.5 225h27.5" fill="#036998"/><path d="M234.488 396.922l150-225h-380l202.5 225h27.5z" fill="none" stroke="#fff" stroke-width="4"/><path d="M105.898 87.582H282.89v33.281H105.898V87.582z" fill="#036998"/><path d="M105.898 87.582H282.89v33.281H105.898V87.582zM228.672 102.043h44.648M228.672 103.641h44.648" fill="none" stroke="#fff" stroke-width="4"/><path d="M313.48 119.973v29.757l-30.589-28.98V87.781l30.589 32.192" fill="#036998"/><path d="M313.48 119.973v29.757l-30.589-28.98V87.781l30.589 32.192z" fill="none" stroke="#fff" stroke-width="4"/><path d="M251.449 60.594v7.457l16.09 22.23v-13.64l-16.09-16.047" fill="#036998"/><path d="M251.449 60.594v7.457l16.09 22.23v-13.64l-16.09-16.047z" fill="none" stroke="#fff" stroke-width="4"/><path d="M109.648 60.594h141.801v7.34H109.648v-7.34z" fill="#036998"/><path d="M109.648 60.594h141.801v7.34H109.648v-7.34z" fill="none" stroke="#fff" stroke-width="4"/><path d="M251.449 67.934H110.121l16.09 22.347h141.328l-16.09-22.347" fill="#036998"/><path d="M251.449 67.934H110.121l16.09 22.347h141.328l-16.09-22.347z" fill="none" stroke="#fff" stroke-width="4"/><path d="M312.539 148.832H135.551l-29.653-27.969h176.993l29.648 27.969" fill="#036998"/><path d="M312.539 148.832H135.551l-29.653-27.969h176.993l29.648 27.969z" fill="none" stroke="#fff" stroke-width="4"/><path d="M279.262 148.711H160.781L140.898 130H259.41l19.852 18.711" fill="#036998"/><path d="M279.262 148.711H160.781L140.898 130H259.41l19.852 18.711z" fill="none" stroke="#fff" stroke-width="4"/><path d="M137.539 137.313h122.07v89.45h-122.07v-89.45z" fill="#036998"/><path d="M137.539 137.313h122.07v89.45h-122.07v-89.45z" fill="none" stroke="#fff" stroke-width="4"/><path d="M147.852 207.152c0 8.989 9.296 10.321 9.296 10.321h80.512c11.289 0 10.969-10.629 10.969-10.629v-50.231c0-6.332-8.668-8.992-8.668-8.992H158.48c-7.968 0-10.628 8.32-10.628 8.32v51.211" fill="#036998"/><path d="M147.852 207.152c0 8.989 9.296 10.321 9.296 10.321h80.512c11.289 0 10.969-10.629 10.969-10.629v-50.231c0-6.332-8.668-8.992-8.668-8.992H158.48c-7.968 0-10.628 8.32-10.628 8.32v51.211z" fill="none" stroke="#fff" stroke-width="4"/><path d="M280.039 246.063H158.012l-20.473-19.301h122.07l20.43 19.301" fill="#036998"/><path d="M280.039 246.063H158.012l-20.473-19.301h122.07l20.43 19.301z" fill="none" stroke="#fff" stroke-width="4"/><path d="M280.039 156.332v89.77l-20.238-19.141v-89.809l20.238 19.18" fill="#036998"/><path d="M280.039 156.332v89.77l-20.238-19.141v-89.809l20.238 19.18z" fill="none" stroke="#fff" stroke-width="4"/></g></svg>