<svg xmlns="http://www.w3.org/2000/svg" viewBox="0 0 36.25 35" height="35" width="36.25"><defs><clipPath id="a"><path d="M0 10v269h290V10H0z"/></clipPath></defs><g clip-path="url(#a)" transform="matrix(.13 0 0 -.13 0 35)"><path d="M46.68 43.488h209.57v39.184H46.68V43.488z" fill="#036998"/><path d="M46.68 43.488h209.57v39.184H46.68V43.488z" fill="none" stroke="#fff" stroke-width="4"/><path d="M291.719 118.41V78.84L256.25 43.102v39.57H46.48" fill="#036998"/><path d="M291.719 118.41V78.84L256.25 43.102v39.57H46.48M48.16 118.41H291.72" fill="none" stroke="#fff" stroke-width="4"/><path d="M256.25 82.672l35.469 35.738" fill="#036998"/><path d="M256.25 82.672l35.469 35.738" fill="none" stroke="#fff" stroke-width="4"/><path d="M46.48 83.488h209.488v157.934H46.482V83.488z" fill="#036998"/><path d="M46.48 83.488h209.488v157.934H46.482V83.488z" fill="none" stroke="#fff" stroke-width="4"/><path d="M255.98 83.488l35.739 35.742v157.93H82.231l-35.75-35.738H255.98V83.488" fill="#036998"/><path d="M255.98 83.488l35.739 35.742v157.93H82.231l-35.75-35.738H255.98V83.488z" fill="none" stroke="#fff" stroke-width="4"/><path d="M64.8 101.77h172.892v121.371H64.8V101.77z" fill="#036998"/><path d="M64.8 101.77h172.892v121.371H64.8V101.77z" fill="none" stroke="#fff" stroke-width="4"/><path d="M255.98 241.422l35.739 35.738" fill="#036998"/><path d="M255.98 241.422l35.739 35.738" fill="none" stroke="#fff" stroke-width="4"/><path d="M245.898 14.82V38.06H4.84L32.27 65.48h241.05V42.238L245.898 14.82" fill="#036998"/><path d="M245.898 14.82V38.06H4.84L32.27 65.48h241.05V42.238L245.898 14.82z" fill="none" stroke="#fff" stroke-width="4"/><path d="M4.84 14.82h241.05V38.06H4.84V14.82z" fill="#036998"/><path d="M4.84 14.82h241.05V38.06H4.84V14.82z" fill="none" stroke="#fff" stroke-width="4"/><path d="M245.898 38.059L273.32 65.48" fill="#036998"/><path d="M245.898 38.059L273.32 65.48" fill="none" stroke="#fff" stroke-width="4"/></g></svg>