<svg xmlns="http://www.w3.org/2000/svg" viewBox="0 0 81.25 33.75" height="33.75" width="81.25"><defs><clipPath id="a"><path d="M0 10v257h650V10H0z"/></clipPath></defs><g clip-path="url(#a)" transform="matrix(.13 0 0 -.13 0 33.75)"><path d="M403.551 28.48v159.61l-16.012-14.059V14.421l16.012 14.06" fill="#036998"/><path d="M403.551 28.48v159.61l-16.012-14.059V14.421l16.012 14.06z" fill="none" stroke="#fff" stroke-width="4"/><path d="M5.309 14.7h381.883v159.062H5.309V14.7z" fill="#036998"/><path d="M5.309 14.7h381.883v159.062H5.309V14.7z" fill="none" stroke="#fff" stroke-width="4"/><path d="M403.551 188.051H21.68L5.309 173.762H387.19l16.36 14.289" fill="#036998"/><path d="M403.551 188.051H21.68L5.309 173.762H387.19l16.36 14.289z" fill="none" stroke="#fff" stroke-width="4"/><path d="M403.551 188.051l-16.36-14.289" fill="#036998"/><path d="M403.551 188.051l-16.36-14.289M84.45 14.7v159.062M157.852 14.7v159.062M231.25 14.7v159.062M304.648 14.7v159.062" fill="none" stroke="#fff" stroke-width="4"/><path d="M435.27 157.59l15-22.149-46.719-25.671v30.082l31.719 17.738" fill="#036998"/><path d="M435.27 157.59l15-22.149-46.719-25.671v30.082l31.719 17.738z" fill="none" stroke="#fff" stroke-width="4"/><path d="M457.379 119.301l13.75-23.782-67.578-38.25v30.083l53.828 31.949" fill="#036998"/><path d="M457.379 119.301l13.75-23.782-67.578-38.25v30.083l53.828 31.949z" fill="none" stroke="#fff" stroke-width="4"/><path d="M606.09 117.43l-79.801 138.281-6.84-20.191 79.813-138.25 6.828 20.16" fill="#036998"/><path d="M606.09 117.43l-79.801 138.281-6.84-20.191 79.813-138.25 6.828 20.16z" fill="none" stroke="#fff" stroke-width="4"/><path d="M598.789 97.309L519.301 235.09l-96.602-55.75L502.27 41.57l96.519 55.739" fill="#036998"/><path d="M598.789 97.309L519.301 235.09l-96.602-55.75L502.27 41.57l96.519 55.739z" fill="none" stroke="#fff" stroke-width="4"/><path d="M526.289 255.629l-96.559-55.738-7.031-20.551 96.602 55.75 6.988 20.539" fill="#036998"/><path d="M526.289 255.629l-96.559-55.738-7.031-20.551 96.602 55.75 6.988 20.539z" fill="none" stroke="#fff" stroke-width="4"/><path d="M526.289 255.629l-6.988-20.539" fill="#036998"/><path d="M526.289 255.629l-6.988-20.539" fill="none" stroke="#fff" stroke-width="4"/><path d="M652.621 192.199l-39.18 70.11-4.812-14.137 39.223-70.082 4.769 14.109" fill="#036998"/><path d="M652.621 192.199l-39.18 70.11-4.812-14.137 39.223-70.082 4.769 14.109z" fill="none" stroke="#fff" stroke-width="4"/><path d="M647.539 178.129l-39.019 69.769-72.579-24.019 55.661-96.449 55.937 50.699" fill="#036998"/><path d="M647.539 178.129l-39.019 69.769-72.579-24.019 55.661-96.449 55.937 50.699z" fill="none" stroke="#fff" stroke-width="4"/><path d="M613.441 262.27l-72.582-24.02-4.918-14.371 72.579 24.019 4.921 14.372" fill="#036998"/><path d="M613.441 262.27l-72.582-24.02-4.918-14.371 72.579 24.019 4.921 14.372z" fill="none" stroke="#fff" stroke-width="4"/><path d="M613.441 262.27l-4.921-14.372" fill="#036998"/><path d="M613.441 262.27l-4.921-14.372" fill="none" stroke="#fff" stroke-width="4"/></g></svg>