<svg xmlns="http://www.w3.org/2000/svg" viewBox="0 0 96.25 38.75" height="38.75" width="96.25"><path d="M85.981 30.986a.81.81 0 0 1-.81.811H8.57a.81.81 0 0 1-.81-.81L12.01 5.321c0-.445.362-.806.811-.806h75.254c.449 0 .81.361.81.806l-2.904 25.664" fill="#036998"/><path d="M85.981 30.986a.81.81 0 0 1-.81.811H8.57a.81.81 0 0 1-.81-.81L12.01 5.321c0-.445.362-.806.811-.806h75.254c.449 0 .81.361.81.806l-2.904 25.664z" fill="none" stroke="#fff" stroke-width=".5"/><path d="M96.342 27.329c0 .445-.36.806-.81.806l-10.614 3.662a.809.809 0 0 1-.812-.81l2.905-25.665c0-.445.362-.806.811-.806h7.754c.449 0 .81.361.81.806l-.044 22.007" fill="#036998"/><path d="M96.342 27.329c0 .445-.36.806-.81.806l-10.614 3.662a.809.809 0 0 1-.812-.81l2.905-25.665c0-.445.362-.806.811-.806h7.754c.449 0 .81.361.81.806l-.044 22.007z" fill="none" stroke="#fff" stroke-width=".5"/><path d="M78.574 35.366H52.203l7.44-9.638h24.942l-6.011 9.638" fill="#036998"/><path d="M78.574 35.366H52.203l7.44-9.638h24.942l-6.011 9.638z" fill="none" stroke="#fff" stroke-width=".5"/><path d="M78.574 38.491H52.203l.297-2.997h26.074v2.997" fill="#036998"/><path d="M78.574 38.491H52.203l.297-2.997h26.074v2.997z" fill="none" stroke="#fff" stroke-width=".5"/><path d="M84.746 25.748v6.156L78.41 38.68v-3.54l6.337-9.393" fill="#036998"/><path d="M84.746 25.748v6.156L78.41 38.68v-3.54l6.337-9.393z" fill="none" stroke="#fff" stroke-width=".5"/><path d="M34.741 4.913l-3.935 26.79" fill="#036998"/><path d="M34.741 4.913l-3.935 26.79" fill="none" stroke="#fff" stroke-width=".5"/><path d="M62.1 4.726l-2.725 21.27" fill="#036998"/><path d="M62.1 4.726l-2.725 21.27" fill="none" stroke="#fff" stroke-width=".5"/><path d="M84.824 14.204a3.124 3.124 0 1 1-6.25 0 3.125 3.125 0 1 1 6.25 0" fill="#036998"/><path d="M84.824 14.204a3.124 3.124 0 1 1-6.25 0 3.125 3.125 0 1 1 6.25 0z" fill="none" stroke="#fff" stroke-width=".5"/><path d="M25.136 10.454a3.124 3.124 0 1 1-6.25 0 3.125 3.125 0 1 1 6.25 0" fill="#036998"/><path d="M25.136 10.454a3.124 3.124 0 1 1-6.25 0 3.125 3.125 0 1 1 6.25 0z" fill="none" stroke="#fff" stroke-width=".5"/><path d="M66.685 30.781c-.723 1.435-2.935 2.51-4.951 2.393-2.013-.113-3.062-1.373-2.344-2.813.717-1.435 2.934-2.51 4.946-2.392 2.017.112 3.066 1.372 2.349 2.812" fill="#036998"/><path d="M66.685 30.781c-.723 1.435-2.935 2.51-4.951 2.393-2.013-.113-3.062-1.373-2.344-2.813.717-1.435 2.934-2.51 4.946-2.392 2.017.112 3.066 1.372 2.349 2.812z" fill="none" stroke="#fff" stroke-width=".5"/><path d="M44.78 21.279c-.449 2.822-2.744 3.467-5.449 3.482-2.704.014-4.8-.611-4.346-3.429l1.329-8.3c.454-2.822 2.748-3.467 5.454-3.48 2.705-.016 4.795.61 4.346 3.426l-1.334 8.3" fill="#036998"/><path d="M44.78 21.279c-.449 2.822-2.744 3.467-5.449 3.482-2.704.014-4.8-.611-4.346-3.429l1.329-8.3c.454-2.822 2.748-3.467 5.454-3.48 2.705-.016 4.795.61 4.346 3.426l-1.334 8.3z" fill="none" stroke="#fff" stroke-width=".5"/><path d="M55.717 21.279c-.448 2.822-2.743 3.467-5.448 3.482-2.705.014-4.8-.611-4.347-3.429l1.33-8.3c.453-2.822 2.748-3.467 5.453-3.48 2.705-.016 4.795.61 4.346 3.426l-1.334 8.3" fill="#036998"/><path d="M55.717 21.279c-.448 2.822-2.743 3.467-5.448 3.482-2.705.014-4.8-.611-4.347-3.429l1.33-8.3c.453-2.822 2.748-3.467 5.453-3.48 2.705-.016 4.795.61 4.346 3.426l-1.334 8.3z" fill="none" stroke="#fff" stroke-width=".5"/><path d="M74.922 20.781c-.552 2.398-3.36 2.944-6.67 2.96-3.31.009-5.874-.518-5.317-2.916l1.083-7.055c.557-2.397 3.364-2.945 6.676-2.96 3.31-.009 5.873.518 5.317 2.915l-1.089 7.056" fill="#036998"/><path d="M74.922 20.781c-.552 2.398-3.36 2.944-6.67 2.96-3.31.009-5.874-.518-5.317-2.916l1.083-7.055c.557-2.397 3.364-2.945 6.676-2.96 3.31-.009 5.873.518 5.317 2.915l-1.089 7.056z" fill="none" stroke="#fff" stroke-width=".5"/><path d="M29.457 18.574h-15.42l.42-2.5h15.415l-.415 2.5" fill="#036998"/><path d="M29.457 18.574h-15.42l.42-2.5h15.415l-.415 2.5z" fill="none" stroke="#fff" stroke-width=".5"/><path d="M28.622 22.324H13.207l.415-2.5h15.416l-.416 2.5" fill="#036998"/><path d="M28.622 22.324H13.207l.415-2.5h15.416l-.416 2.5z" fill="none" stroke="#fff" stroke-width=".5"/><path d="M27.788 26.074H12.373l.415-2.5h15.42l-.42 2.5" fill="#036998"/><path d="M27.788 26.074H12.373l.415-2.5h15.42l-.42 2.5z" fill="none" stroke="#fff" stroke-width=".5"/><path d="M26.957 29.824h-15.42l.42-2.5h15.415l-.415 2.5" fill="#036998"/><path d="M26.957 29.824h-15.42l.42-2.5h15.415l-.415 2.5z" fill="none" stroke="#fff" stroke-width=".5"/><path d="M76.957 33.159h-8.334l2.92-4.165h8.33l-2.916 4.165" fill="#036998"/><path d="M76.957 33.159h-8.334l2.92-4.165h8.33l-2.916 4.165z" fill="none" stroke="#fff" stroke-width=".5"/><path d="M23.159 8.994c6.25-8.75 18.33-6.665 18.33-6.665" fill="#036998"/><path d="M23.159 8.994c6.25-8.75 18.33-6.665 18.33-6.665" fill="none" stroke="#fff" stroke-width=".5"/><path d="M44.409 1.909c0 .923-1.309 1.67-2.92 1.67-1.612 0-2.915-.747-2.915-1.67 0-.918 1.303-1.665 2.915-1.665 1.611 0 2.92.747 2.92 1.665" fill="#036998"/><path d="M44.409 1.909c0 .923-1.309 1.67-2.92 1.67-1.612 0-2.915-.747-2.915-1.67 0-.918 1.303-1.665 2.915-1.665 1.611 0 2.92.747 2.92 1.665z" fill="none" stroke="#fff" stroke-width=".5"/><path d="M17.618 14.829l-3.33 16.25M27.398 14.829l-3.335 16.25M22.324 14.829l-3.335 16.25" fill="none" stroke="#036998" stroke-width="1"/><path d="M1.04 21.993l.958-5.714" fill="#036998"/><path d="M1.04 21.993l.958-5.714" fill="none" stroke="#fff" stroke-width=".5"/><path d="M8.873 13.828c-.66 2.012-1.53 4.361-1.763 6.626l.712 1.465-.913 6.65-2.226-4.292c-.66-3.262 2.67-16.152 4.038-17.69l2.226 4.292-1.406 4.316-.668-1.367" fill="#036998"/><path d="M8.873 13.828c-.66 2.012-1.53 4.361-1.763 6.626l.712 1.465-.913 6.65-2.226-4.292c-.66-3.262 2.67-16.152 4.038-17.69l2.226 4.292-1.406 4.316-.668-1.367z" fill="none" stroke="#fff" stroke-width=".5"/><path d="M.341 24.336l1.373 4.302 5.195-.07-2.226-4.29-4.342.058" fill="#036998"/><path d="M.341 24.336l1.373 4.302 5.195-.07-2.226-4.29-4.342.058z" fill="none" stroke="#fff" stroke-width=".5"/><path d="M8.721 6.587c-1.367 1.538-4.697 14.428-4.038 17.69l-4.342.06C-.322 21.073 3.007 8.183 4.375 6.644l4.346-.058" fill="#036998"/><path d="M8.721 6.587c-1.367 1.538-4.697 14.428-4.038 17.69l-4.342.06C-.322 21.073 3.007 8.183 4.375 6.644l4.346-.058z" fill="none" stroke="#fff" stroke-width=".5"/></svg>