<svg xmlns="http://www.w3.org/2000/svg" viewBox="0 0 78.75 31.25" height="31.25" width="78.75"><path d="M2.31 29.321h73.853V5.454H2.31V29.32z" fill="#036998"/><path d="M2.31 29.321h73.853V5.454H2.31V29.32z" fill="none" stroke="#fff" stroke-width=".5"/><path d="M2.359 2.7H76.24V.244H2.36V2.7z" fill="#036998"/><path d="M2.359 2.7H76.24V.244H2.36V2.7z" fill="none" stroke="#fff" stroke-width=".5"/><path d="M4.98 11.957h2.129V7.373H4.98v4.584z" fill="#036998"/><path d="M4.98 11.957h2.129V7.373H4.98v4.584z" fill="none" stroke="#fff" stroke-width=".5"/><path d="M4.98 18.678h2.129v-4.59H4.98v4.59z" fill="#036998"/><path d="M4.98 18.678h2.129v-4.59H4.98v4.59z" fill="none" stroke="#fff" stroke-width=".5"/><path d="M4.98 25.391h2.129v-4.585H4.98v4.585z" fill="#036998"/><path d="M4.98 25.391h2.129v-4.585H4.98v4.585z" fill="none" stroke="#fff" stroke-width=".5"/><path d="M31.055 26.094h8.325V14.047h-8.325v12.047z" fill="#036998"/><path d="M31.055 26.094h8.325V14.047h-8.325v12.047z" fill="none" stroke="#fff" stroke-width=".5"/><path d="M39.38 26.094h8.33V14.047h-8.33v12.047z" fill="#036998"/><path d="M39.38 26.094h8.33V14.047h-8.33v12.047z" fill="none" stroke="#fff" stroke-width=".5"/><path d="M76.895 2.7l1.313 2.789H.394L1.704 2.7h75.191" fill="#036998"/><path d="M76.895 2.7l1.313 2.789H.394L1.704 2.7h75.191z" fill="none" stroke="#fff" stroke-width=".5"/><path d="M28.931 27.364h20.904V25.44H28.93v1.924z" fill="#036998"/><path d="M28.931 27.364h20.904V25.44H28.93v1.924z" fill="none" stroke="#fff" stroke-width=".5"/><path d="M27.866 29.321H50.9v-1.957H27.866v1.957z" fill="#036998"/><path d="M27.866 29.321H50.9v-1.957H27.866v1.957z" fill="none" stroke="#fff" stroke-width=".5"/><path d="M11.86 11.957h2.129V7.373h-2.13v4.584z" fill="#036998"/><path d="M11.86 11.957h2.129V7.373h-2.13v4.584z" fill="none" stroke="#fff" stroke-width=".5"/><path d="M11.86 18.678h2.129v-4.59h-2.13v4.59z" fill="#036998"/><path d="M11.86 18.678h2.129v-4.59h-2.13v4.59z" fill="none" stroke="#fff" stroke-width=".5"/><path d="M11.86 25.391h2.129v-4.585h-2.13v4.585z" fill="#036998"/><path d="M11.86 25.391h2.129v-4.585h-2.13v4.585z" fill="none" stroke="#fff" stroke-width=".5"/><path d="M18.74 11.957h2.129V7.373H18.74v4.584z" fill="#036998"/><path d="M18.74 11.957h2.129V7.373H18.74v4.584z" fill="none" stroke="#fff" stroke-width=".5"/><path d="M18.74 18.678h2.129v-4.59H18.74v4.59z" fill="#036998"/><path d="M18.74 18.678h2.129v-4.59H18.74v4.59z" fill="none" stroke="#fff" stroke-width=".5"/><path d="M18.74 25.391h2.129v-4.585H18.74v4.585z" fill="#036998"/><path d="M18.74 25.391h2.129v-4.585H18.74v4.585z" fill="none" stroke="#fff" stroke-width=".5"/><path d="M25.62 11.957h2.129V7.373H25.62v4.584z" fill="#036998"/><path d="M25.62 11.957h2.129V7.373H25.62v4.584z" fill="none" stroke="#fff" stroke-width=".5"/><path d="M25.62 18.678h2.129v-4.59H25.62v4.59z" fill="#036998"/><path d="M25.62 18.678h2.129v-4.59H25.62v4.59z" fill="none" stroke="#fff" stroke-width=".5"/><path d="M25.62 25.391h2.129v-4.585H25.62v4.585z" fill="#036998"/><path d="M25.62 25.391h2.129v-4.585H25.62v4.585z" fill="none" stroke="#fff" stroke-width=".5"/><path d="M71.655 11.957h2.129V7.373h-2.13v4.584z" fill="#036998"/><path d="M71.655 11.957h2.129V7.373h-2.13v4.584z" fill="none" stroke="#fff" stroke-width=".5"/><path d="M71.655 18.678h2.129v-4.59h-2.13v4.59z" fill="#036998"/><path d="M71.655 18.678h2.129v-4.59h-2.13v4.59z" fill="none" stroke="#fff" stroke-width=".5"/><path d="M71.655 25.391h2.129v-4.585h-2.13v4.585z" fill="#036998"/><path d="M71.655 25.391h2.129v-4.585h-2.13v4.585z" fill="none" stroke="#fff" stroke-width=".5"/><path d="M64.775 11.957h2.129V7.373h-2.13v4.584z" fill="#036998"/><path d="M64.775 11.957h2.129V7.373h-2.13v4.584z" fill="none" stroke="#fff" stroke-width=".5"/><path d="M64.775 18.678h2.129v-4.59h-2.13v4.59z" fill="#036998"/><path d="M64.775 18.678h2.129v-4.59h-2.13v4.59z" fill="none" stroke="#fff" stroke-width=".5"/><path d="M64.775 25.391h2.129v-4.585h-2.13v4.585z" fill="#036998"/><path d="M64.775 25.391h2.129v-4.585h-2.13v4.585z" fill="none" stroke="#fff" stroke-width=".5"/><path d="M57.89 11.957h2.134V7.373H57.89v4.584z" fill="#036998"/><path d="M57.89 11.957h2.134V7.373H57.89v4.584z" fill="none" stroke="#fff" stroke-width=".5"/><path d="M57.89 18.678h2.134v-4.59H57.89v4.59z" fill="#036998"/><path d="M57.89 18.678h2.134v-4.59H57.89v4.59z" fill="none" stroke="#fff" stroke-width=".5"/><path d="M57.89 25.391h2.134v-4.585H57.89v4.585z" fill="#036998"/><path d="M57.89 25.391h2.134v-4.585H57.89v4.585z" fill="none" stroke="#fff" stroke-width=".5"/><path d="M51.011 11.957h2.134V7.373h-2.134v4.584z" fill="#036998"/><path d="M51.011 11.957h2.134V7.373h-2.134v4.584z" fill="none" stroke="#fff" stroke-width=".5"/><path d="M51.011 18.678h2.134v-4.59h-2.134v4.59z" fill="#036998"/><path d="M51.011 18.678h2.134v-4.59h-2.134v4.59z" fill="none" stroke="#fff" stroke-width=".5"/><path d="M51.011 25.391h2.134v-4.585h-2.134v4.585z" fill="#036998"/><path d="M51.011 25.391h2.134v-4.585h-2.134v4.585z" fill="none" stroke="#fff" stroke-width=".5"/><path d="M44.623 11.957h2.13V7.373h-2.13v4.584z" fill="#036998"/><path d="M44.623 11.957h2.13V7.373h-2.13v4.584z" fill="none" stroke="#fff" stroke-width=".5"/><path d="M38.399 11.957h2.128V7.373H38.4v4.584z" fill="#036998"/><path d="M38.399 11.957h2.128V7.373H38.4v4.584z" fill="none" stroke="#fff" stroke-width=".5"/><path d="M32.172 11.957h2.13V7.373h-2.13v4.584z" fill="#036998"/><path d="M32.172 11.957h2.13V7.373h-2.13v4.584z" fill="none" stroke="#fff" stroke-width=".5"/><path d="M32.5 19.234h1.885v-3.77H32.5v3.77z" fill="#036998"/><path d="M32.5 19.234h1.885v-3.77H32.5v3.77z" fill="none" stroke="#fff" stroke-width=".5"/><path d="M35.776 19.234h1.885v-3.77h-1.885v3.77z" fill="#036998"/><path d="M35.776 19.234h1.885v-3.77h-1.885v3.77z" fill="none" stroke="#fff" stroke-width=".5"/><path d="M44.38 19.234h1.885v-3.77H44.38v3.77z" fill="#036998"/><path d="M44.38 19.234h1.885v-3.77H44.38v3.77z" fill="none" stroke="#fff" stroke-width=".5"/><path d="M41.103 19.234h1.886v-3.77h-1.886v3.77z" fill="#036998"/><path d="M41.103 19.234h1.886v-3.77h-1.886v3.77z" fill="none" stroke="#fff" stroke-width=".5"/><path d="M26.885 31.25H51.88v-1.929H26.885v1.929z" fill="#036998"/><path d="M26.885 31.25H51.88v-1.929H26.885v1.929z" fill="none" stroke="#fff" stroke-width=".5"/></svg>