<svg xmlns="http://www.w3.org/2000/svg" viewBox="0 0 55 53.75" height="53.75" width="55"><path d="M48.891 35.772l4.365-23.765h-33.3l-4.907 23.765H48.89" fill="#087fbf"/><path d="M48.891 35.772l4.365-23.765h-33.3l-4.907 23.765H48.89z" fill="none" stroke="#fff" stroke-width=".5"/><path d="M53.256 12.007l1.304 1.684-4.063 23.077-1.606-.996 4.365-23.765" fill="#087fbf"/><path d="M53.256 12.007l1.304 1.685-4.063 23.076-1.606-.996 4.365-23.765z" fill="none" stroke="#fff" stroke-width=".5"/><path d="M15.049 35.772l1.455.996h33.993l-1.606-.996H15.05" fill="#087fbf"/><path d="M15.049 35.772l1.455.996h33.993l-1.606-.996H15.05z" fill="none" stroke="#fff" stroke-width=".5"/><path d="M49.199 37.339v3.409l-.884.766s-2.065.61-1.606 1.836l-9.224 8.574v-3.75l11.714-10.835" fill="#087fbf"/><path d="M49.199 37.34v3.407l-.884.766s-2.065.612-1.606 1.837l-9.224 8.574v-3.75L49.199 37.34z" fill="none" stroke="#fff" stroke-width=".5"/><path d="M.771 51.924h36.714v-3.75H.77v3.75z" fill="#087fbf"/><path d="M.771 51.924h36.714v-3.75H.77v3.75z" fill="none" stroke="#fff" stroke-width=".5"/><path d="M15.435 37.569l33.764-.23-11.714 10.835H.77l14.664-10.605" fill="#087fbf"/><path d="M15.435 37.568l33.764-.229-11.714 10.835H.77l14.664-10.606z" fill="none" stroke="#fff" stroke-width=".5"/><path d="M46.065 33.535l3.486-18.789h-27.08l-3.486 18.79h27.08" fill="#087fbf"/><path d="M46.065 33.536l3.486-18.79h-27.08l-3.486 18.79h27.08z" fill="none" stroke="#fff" stroke-width=".5"/><path d="M16.225 37.808L7.71 44.687M18.96 37.808l-8.516 6.879M21.694 37.808l-8.515 6.879M24.429 37.808l-8.516 6.879M27.163 37.808l-8.515 6.879M29.898 37.808l-8.517 6.879M32.631 37.808l-8.515 6.879M35.366 37.808l-8.516 6.879M38.1 37.808l-8.515 6.879M40.835 37.808l-8.516 6.879M43.569 37.808l-8.515 6.879M46.304 37.808l-8.516 6.879M8.663 43.96H38.98M10.703 42.383h29.844M12.817 40.81h29.766M14.697 39.233h30.006" fill="none" stroke="#fff" stroke-linejoin="round" stroke-width=".125"/><path d="M37.569 8.95a4.205 4.205 0 0 0 4.203-4.209A4.2 4.2 0 0 0 37.57.538a4.205 4.205 0 0 0-4.21 4.203 4.21 4.21 0 0 0 4.21 4.21" fill="#087fbf"/><path d="M37.569 8.95a4.205 4.205 0 0 0 4.203-4.21A4.2 4.2 0 0 0 37.57.538a4.205 4.205 0 0 0-4.21 4.204 4.209 4.209 0 0 0 4.21 4.21z" fill="none" stroke="#fff" stroke-width=".4"/><path d="M31.475 11.127l1.089-6.513a5.047 5.047 0 0 0 10.092 0l1.03 6.518-12.21-.005" fill="#087fbf"/><path d="M34.683 5.84h5.737V3.926h-5.737V5.84zM33.897 17.353h4.668c-2.335.6-3.268 3.198-3.268 3.198l1.935 1.07-4.136 2.73-2.066-5.996 1.665.815c.264-.996 1.202-1.816 1.202-1.816M37.764 32.022c.707-2.305-1.114-4.248-1.114-4.248l-1.919 1.094-.175-4.952 6.2 1.368-1.566.99c1.64 2.212 1.191 4.858 1.191 4.858-.884 1.153-2.617.89-2.617.89M26.465 25.082c1.499.791 3.184.43 3.184.43l.054-2.206 4.33 2.402-4.366 4.61-.044-1.856c-1.273.122-2.402-.19-3.237-.557l.079-2.823" fill="#fff"/></svg>