<svg xmlns="http://www.w3.org/2000/svg" viewBox="0 0 40 53.75" height="53.75" width="40"><path d="M.81 51.904h33.53V18.397H.81v33.507z" fill="#087bbb"/><path d="M.81 51.903h33.53V18.397H.81v33.506z" fill="none" stroke="#fff" stroke-width=".5"/><path d="M38.579 47.709V14.203l-4.238 4.194v33.505l4.238-4.193" fill="#087bbb"/><path d="M38.579 47.708V14.203l-4.238 4.194v33.506l4.238-4.195z" fill="none" stroke="#fff" stroke-width=".5"/><path d="M6.939.623L.81 4.817h33.531L38.58.623H6.939" fill="#087bbb"/><path d="M6.939.623L.81 4.818h33.531L38.58.623H6.939z" fill="none" stroke="#fff" stroke-width=".5"/><path d="M.81 18.397h33.53V4.817H.81v13.58z" fill="#087bbb"/><path d="M.81 18.397h33.53V4.817H.81v13.58z" fill="none" stroke="#fff" stroke-width=".5"/><path d="M38.579 14.203V.623L34.34 4.817v13.58l4.238-4.194" fill="#087bbb"/><path d="M38.579 14.203V.623L34.34 4.818v13.579l4.238-4.194zM34.341 18.397H.811" fill="none" stroke="#fff" stroke-width=".5"/><path d="M34.341 18.398l4.238-4.195" fill="#087bbb"/><path d="M34.341 18.397l4.238-4.194" fill="none" stroke="#fff" stroke-width=".5"/><path d="M6.279 9.456h5.41V6.639h-5.41v2.817zM24.053 9.456h5.405V6.639h-5.405v2.817zM6.279 16.493h5.41V13.68h-5.41v2.813zM24.053 16.493h5.405V13.68h-5.405v2.813z" fill="#fff"/><path d="M9.951 8.05h16.611M9.951 15.087h16.611" fill="none" stroke="#fff" stroke-width=".5"/><path d="M8.985 15.086L26.563 8.05"/><path d="M8.985 15.087L26.563 8.05" fill="none" stroke="#fff" stroke-width=".5"/><path d="M8.985 8.05l17.578 7.036"/><path d="M8.985 8.05l17.578 7.037" fill="none" stroke="#fff" stroke-width=".5"/><path d="M9.971 26v-2.897h.493l-.728-1.098-.727 1.099h.493V26h.47M8.491 26.42L6.44 24.369l.348-.346-1.286-.26.26 1.284.347-.346 2.05 2.05.332-.331M7.739 27.763h-2.9v-.495l-1.094.728 1.094.728v-.493h2.9v-.468M8.159 29.241l-2.05 2.052-.348-.347-.259 1.284 1.286-.259-.348-.346 2.051-2.051-.332-.333M9.502 29.989v2.9H9.01l.727 1.093.728-1.093H9.97v-2.9h-.469M11.734 28.232h2.895v.492l1.094-.728-1.094-.727v.494h-2.895v.469M11.314 26.752l2.05-2.05.347.345.26-1.283-1.286.259.348.346-2.052 2.05.333.333" fill="#fff"/><path d="M11.509 30.429a3.004 3.004 0 0 0-3.442-4.922 3.007 3.007 0 0 0-.738 4.184 3.005 3.005 0 0 0 4.18.738M9.971 41.835v-2.901h.493l-.728-1.094-.727 1.094h.493v2.901h.47M8.491 42.255L6.44 40.204l.348-.347-1.286-.263.26 1.288.347-.346 2.05 2.05.332-.331M7.739 43.598h-2.9v-.494l-1.094.727 1.094.723v-.488h2.9v-.468M8.159 45.076l-2.05 2.051-.348-.35-.259 1.288 1.286-.259-.348-.35 2.051-2.052-.332-.328M9.502 45.824v2.9H9.01l.727 1.093.728-1.093H9.97v-2.9h-.469M10.981 45.404l2.052 2.051-.348.351 1.285.259-.259-1.289-.347.351-2.05-2.05-.333.327M11.734 44.066h2.895v.488l1.094-.723-1.094-.727v.494h-2.895v.468" fill="#fff"/><path d="M11.509 46.259a3 3 0 0 0 .737-4.18 3.002 3.002 0 1 0-.737 4.18M25.806 26v-2.897h.488l-.723-1.098-.727 1.099h.493V26h.47M24.326 26.42l-2.051-2.051.348-.346-1.29-.26.263 1.284.348-.346 2.05 2.05.332-.331M23.574 27.763h-2.9v-.495l-1.094.728 1.094.728v-.493h2.9v-.468M25.337 29.989v2.9h-.493l.727 1.093.723-1.093h-.488v-2.9h-.469M26.816 29.574l2.052 2.051-.353.346 1.29.259-.259-1.284-.352.347-2.05-2.052-.328.333M27.564 28.232h2.9v.492l1.094-.728-1.094-.727v.494h-2.9v.469M27.143 26.752l2.05-2.05.353.345.26-1.283-1.29.259.352.346-2.052 2.05.327.333" fill="#fff"/><path d="M27.344 30.429a3.004 3.004 0 0 0-3.442-4.922 3.004 3.004 0 0 0 3.442 4.922M25.806 41.835v-2.901h.488l-.723-1.094-.727 1.094h.493v2.901h.47M23.574 43.598h-2.9v-.494l-1.094.727 1.094.723v-.488h2.9v-.468M23.994 45.076l-2.05 2.051-.348-.35-.263 1.288 1.29-.259-.348-.35 2.051-2.052-.332-.328M25.337 45.824v2.9h-.493l.727 1.093.723-1.093h-.488v-2.9h-.469M26.816 45.404l2.052 2.051-.353.351 1.29.259-.259-1.289-.352.351-2.05-2.05-.328.327M27.564 44.066h2.9v.488l1.094-.723-1.094-.727v.494h-2.9v.468M27.143 42.586l2.05-2.05.353.346.26-1.288-1.29.263.352.347-2.052 2.05.327.332" fill="#fff"/><path d="M27.344 46.259a3 3 0 0 0 .737-4.18 3 3 0 0 0-4.18-.738 3.001 3.001 0 1 0 3.442 4.917" fill="#fff"/><path d="M11.284 29.583l12.92 12.915M11.05 42.498l13.33-13.335" fill="none" stroke="#fff" stroke-width="1.25"/></svg>