<svg xmlns="http://www.w3.org/2000/svg" viewBox="0 0 28.75 57.5" height="57.5" width="28.75"><path d="M.249 56.001H22.89v-50H.25v50z" fill="#036998"/><path d="M.249 56.001H22.89v-50H.25v50z" fill="none" stroke="#fff" stroke-width=".5"/><path d="M.249 6.002l5.195-4.937h22.642l-5.191 4.937H.249" fill="#036998"/><path d="M.249 6.001l5.195-4.936h22.642l-5.191 4.936H.249" fill="none" stroke="#fff" stroke-width=".5"/><path d="M22.895 56.001l5.191-4.931V1.065l-5.191 4.937v50" fill="#036998"/><path d="M22.895 56.001l5.191-4.931V1.065l-5.191 4.936v50" fill="none" stroke="#fff" stroke-width=".5"/><path d="M8.565 41.647c0-.148.058-1.12 1.084-2.702.215-.331.474-.6.741-.84l-2.709 2.442a4.558 4.558 0 0 0-.737.84c-1.035 1.553-.982 2.324-1.04 2.568l2.66-2.308" fill="#fff"/><path d="M8.565 41.646c0-.147.058-1.119 1.084-2.7.215-.332.474-.601.741-.84l-2.709 2.441a4.52 4.52 0 0 0-.737.84c-1.035 1.553-.982 2.324-1.04 2.568l2.66-2.309z" fill="none" stroke="#036998" stroke-width=".17625"/><path d="M17.021 40.102c-1.201-1.357-2.758-3.037-6.26-2.3-.126.094-.254.192-.37.303l-2.71 2.442c1.284-1.157 4.56-2.105 7.109 1.602l-1.724 1.47 4.034.361 1.42-5.161-1.498 1.283" fill="#fff"/><path d="M17.021 40.102c-1.201-1.357-2.758-3.036-6.26-2.3a3.782 3.782 0 0 0-.37.304l-2.71 2.441c1.284-1.157 4.56-2.105 7.109 1.601l-1.724 1.47 4.034.362 1.42-5.162-1.498 1.284z" fill="none" stroke="#036998" stroke-width=".17625"/><path d="M18.54 43.266l-2.705 2.482c-.049.17.479 1.87-.864 4.413-2.012.596-4.556-.386-6.143-4.449l1.543-1.37-3.247-.948-1.93 5.561 1.652-1.591c.615 1.122 1.308 2.075 2.04 2.817H6.275l1.069-.982-6.011 1.826 2.392 1.582.635-.634h8.017l-.008-.02c.472.01.941-.078 1.401-.273a3 3 0 0 0 .239-.21c-.034.029-.064.064-.093.092 0 0 2.529-1.87 2.881-2.24 1.074-1.123 1.973-2.642 1.743-6.056" fill="#fff"/><path d="M18.54 43.267l-2.705 2.48c-.049.171.479 1.87-.864 4.414-2.012.596-4.556-.385-6.143-4.448l1.543-1.372-3.247-.948-1.93 5.562 1.652-1.591c.615 1.122 1.308 2.074 2.04 2.817H6.275l1.069-.981-6.011 1.826 2.392 1.581.635-.635h8.017l-.008-.018c.472.01.941-.079 1.401-.274a3 3 0 0 0 .239-.21c-.034.029-.064.064-.093.092 0 0 2.529-1.87 2.881-2.241 1.074-1.122 1.973-2.641 1.743-6.054z" fill="none" stroke="#036998" stroke-width=".17625"/><path d="M10.62 34.331l2.154-1.949a38.973 38.973 0 0 0-4.595.172c-.674 2.533-1.25 4.033-1.929 5.727l2.256-2.036c1.606 1.49 3.584 1.86 5.264 1.089.049-.04.098-.078.146-.122l2.705-2.44c-1.728 1.557-4.165 1.41-6-.441" fill="#fff"/><path d="M10.62 34.331l2.154-1.948a39.03 39.03 0 0 0-4.595.17c-.674 2.535-1.25 4.034-1.929 5.728l2.256-2.036c1.606 1.49 3.584 1.861 5.264 1.089.049-.04.098-.078.146-.122l2.705-2.441c-1.728 1.558-4.165 1.411-6-.44z" fill="none" stroke="#036998" stroke-width=".17625"/><path d="M8.711 30.865c-.557-2.179-.258-4.576.938-6.27.224-.322.474-.601.741-.84L7.681 26.2a4.905 4.905 0 0 0-.737.84c-1.192 1.68-1.49 4.048-.953 6.212l2.72-2.388" fill="#fff"/><path d="M8.711 30.865c-.557-2.179-.258-4.575.938-6.27.224-.322.474-.6.741-.84L7.681 26.2c-.264.24-.514.518-.737.84-1.192 1.68-1.49 4.047-.953 6.211l2.72-2.387z" fill="none" stroke="#036998" stroke-width=".17625"/><path d="M14.053 23.691c-1.084-.502-2.232-.586-3.292-.238a4.345 4.345 0 0 0-.37.302L7.68 26.2c1.24-1.122 2.852-1.357 4.335-.722l-1.489 1.304 4.6-.118.79-4.609-1.864 1.635" fill="#fff"/><path d="M14.053 23.69c-1.084-.502-2.232-.584-3.292-.238a4.45 4.45 0 0 0-.37.303L7.68 26.2c1.24-1.122 2.852-1.357 4.335-.723l-1.489 1.304 4.6-.118.79-4.608-1.864 1.635z" fill="none" stroke="#036998" stroke-width=".17625"/><path d="M17.505 25.333c1.704 3.417 1.069 6.82-.141 8.598-.23.318-.474.595-.743.84l-2.705 2.441c.264-.24.513-.517.738-.84 2.206-3.242.912-6.48.224-8.608l2.627-2.431" fill="#fff"/><path d="M17.505 25.333c1.704 3.417 1.069 6.82-.141 8.598-.23.318-.474.595-.743.84l-2.705 2.441c.264-.24.513-.517.738-.84 2.206-3.242.912-6.48.224-8.608l2.627-2.431z" fill="none" stroke="#036998" stroke-width=".17625"/><path d="M13.77 22.861c.049-.039.098-.077.146-.12l2.705-2.444c-1.782 1.608-4.326 1.402-6.177-.614L8.32 21.6c1.641 1.636 3.706 2.062 5.45 1.26" fill="#fff"/><path d="M13.77 22.86c.049-.038.098-.076.146-.12l2.705-2.442c-1.782 1.607-4.326 1.402-6.177-.616l-2.124 1.92c1.641 1.635 3.706 2.06 5.45 1.259z" fill="none" stroke="#036998" stroke-width=".17625"/><path d="M10.625 14.672l-1.909 1.725c-.562-2.178-.269-4.58.933-6.274.224-.323.474-.601.741-.84l-2.709 2.445a4.886 4.886 0 0 0-.737.84c-1.201 1.695-1.495 4.097-.938 6.274l-1.905 1.724c1.33.02 2.593.02 4.58-.156.513-1.899.978-3.374 1.944-5.738" fill="#fff"/><path d="M10.625 14.673l-1.909 1.723c-.562-2.177-.269-4.58.933-6.274.224-.322.474-.601.741-.84L7.681 11.73c-.264.24-.514.517-.737.84-1.201 1.693-1.495 4.095-.938 6.275l-1.905 1.722c1.33.02 2.593.02 4.58-.156.513-1.899.978-3.374 1.944-5.737" fill="none" stroke="#036998" stroke-width=".17625"/><path d="M20.195 11.416l-1.904 1.729c.571 2.188.278 4.604-.927 6.314-.23.316-.474.6-.743.838l-2.705 2.443a5.04 5.04 0 0 0 .738-.84c1.21-1.705 1.498-4.121.927-6.309l-1.909 1.724c.678-1.695 1.254-3.194 1.928-5.728a38.86 38.86 0 0 1 4.595-.171" fill="#fff"/><path d="M20.195 11.416l-1.904 1.729c.571 2.188.278 4.604-.927 6.314-.23.317-.474.6-.743.84l-2.705 2.44c.264-.239.513-.517.738-.84 1.21-1.703 1.498-4.12.927-6.308l-1.909 1.724c.678-1.695 1.254-3.194 1.928-5.728 1.398-.122 2.476-.2 4.595-.171" fill="none" stroke="#036998" stroke-width=".17625"/><path d="M21.793 8.814H12.7a4.275 4.275 0 0 0-1.939.166 4.235 4.235 0 0 0-.37.303l-2.71 2.445c1.792-1.616 4.35-1.4 6.2.645l1.846-1.67h4.078l1.988-1.889" fill="#fff"/><path d="M21.793 8.813H12.7a4.282 4.282 0 0 0-1.939.167 4.322 4.322 0 0 0-.37.302l-2.71 2.446c1.792-1.616 4.35-1.4 6.2.645l1.846-1.67h4.078l1.988-1.89z" fill="none" stroke="#036998" stroke-width=".17625"/></svg>