<svg xmlns="http://www.w3.org/2000/svg" viewBox="0 0 38.75 36.25" height="36.25" width="38.75"><defs><clipPath id="a"><path d="M0 10h310v280H0V10z"/></clipPath></defs><g clip-path="url(#a)" transform="matrix(.13 0 0 -.13 0 36.25)"><path d="M1.988 8.52l76.64 34.8H308.48l-76.64-34.8H1.988" fill="#036998"/><path d="M1.988 8.52l76.64 34.8H308.48l-76.64-34.8H1.988z" fill="none" stroke="#fff" stroke-width="4"/><path d="M1.988 252.109l76.64 34.801V43.32L1.989 8.52v243.589" fill="#036998"/><path d="M1.988 252.109l76.64 34.801V43.32L1.989 8.52v243.589z" fill="none" stroke="#fff" stroke-width="4"/><path d="M78.629 43.32h229.84v243.59H78.629V43.32z" fill="#036998"/><path d="M78.629 43.32h229.84v243.59H78.629V43.32z" fill="none" stroke="#fff" stroke-width="4"/><path d="M1.988 252.109l76.64 34.801H308.48l-76.64-34.801H1.988" fill="#036998"/><path d="M1.988 252.109l76.64 34.801H308.48l-76.64-34.801H1.988z" fill="none" stroke="#fff" stroke-width="4"/><path d="M43.79 217.297c7.85 0 13.94-13.039 13.94-31.317 0-17.39-6.09-31.292-13.94-31.292-8.712 0-13.95 13.902-13.95 31.292 0 18.278 5.238 31.317 13.95 31.317" fill="#036998"/><path d="M43.79 217.297c7.85 0 13.94-13.039 13.94-31.317 0-17.39-6.09-31.292-13.94-31.292-8.712 0-13.95 13.902-13.95 31.292 0 18.278 5.238 31.317 13.95 31.317" fill="none" stroke="#fff" stroke-width="4"/><path d="M43.79 154.68h188.09v62.617H43.79V154.68z" fill="#036998"/><path d="M43.79 217.297h188.05v-62.609H43.79" fill="none" stroke="#fff" stroke-width="4"/><path d="M43.79 126.84c7.85 0 13.94-13.051 13.94-31.332 0-17.39-6.09-31.29-13.94-31.29-8.712 0-13.95 13.9-13.95 31.29 0 18.281 5.238 31.332 13.95 31.332" fill="#036998"/><path d="M43.79 126.84c7.85 0 13.94-13.051 13.94-31.332 0-17.39-6.09-31.29-13.94-31.29-8.712 0-13.95 13.9-13.95 31.29 0 18.281 5.238 31.332 13.95 31.332" fill="none" stroke="#fff" stroke-width="4"/><path d="M43.79 64.219h188.09v62.62H43.79V64.22z" fill="#036998"/><path d="M43.79 126.84h188.05V64.219H43.79" fill="none" stroke="#fff" stroke-width="4"/><path d="M43.79 217.297h195.038M43.79 154.688h195.038M43.79 126.84h195.038M43.79 64.219h195.038" fill="none" stroke="#fff" stroke-width="3.2" stroke-miterlimit="1"/><path d="M55.738 184.77H174.18" fill="none" stroke="#fff" stroke-width="8" stroke-miterlimit="1"/><path d="M172.422 169.449l50.508 15.668-50.508 14.762v-30.43"/><path d="M172.422 169.449l50.508 15.668-50.508 14.762v-30.43z" fill="none" stroke="#fff" stroke-width="3.2"/><path d="M54.219 185.617H172.66" fill="none" stroke="#fff" stroke-width="3.2" stroke-miterlimit="1"/><path d="M170.898 170.309l50.512 15.671-50.512 14.797v-30.468" fill="#fff"/><path d="M170.898 170.309l50.512 15.671-50.512 14.797v-30.468z" fill="none" stroke="#fff" stroke-width="3.2"/><path d="M221.719 93.95H103.32" fill="none" stroke="#fff" stroke-width="8" stroke-linecap="round"/><path d="M105.391 109.688L54.879 94.019l50.512-14.761v30.43" fill="#fff"/><path d="M105.391 109.688L54.879 94.019l50.512-14.761v30.43z" fill="none" stroke="#fff" stroke-width="4"/><path d="M231.84 252.109l76.64 34.801V43.32l-76.64-34.8v243.589" fill="#036998"/><path d="M231.84 252.109l76.64 34.801V43.32l-76.64-34.8v243.589z" fill="none" stroke="#fff" stroke-width="4"/><path d="M273.629 217.297c7.851 0 13.949-13.039 13.949-31.317 0-17.39-6.098-31.292-13.949-31.292-8.707 0-13.899 13.902-13.899 31.292 0 18.278 5.192 31.317 13.899 31.317" fill="#036998"/><path d="M273.629 217.297c7.851 0 13.949-13.039 13.949-31.317 0-17.39-6.098-31.292-13.949-31.292-8.707 0-13.899 13.902-13.899 31.292 0 18.278 5.192 31.317 13.899 31.317" fill="none" stroke="#fff" stroke-width="4"/><path d="M273.629 126.84c7.851 0 13.949-13.051 13.949-31.332 0-17.39-6.098-31.29-13.949-31.29-8.707 0-13.899 13.9-13.899 31.29 0 18.281 5.192 31.332 13.899 31.332" fill="#036998"/><path d="M273.629 126.84c7.851 0 13.949-13.051 13.949-31.332 0-17.39-6.098-31.29-13.949-31.29-8.707 0-13.899 13.9-13.899 31.29 0 18.281 5.192 31.332 13.899 31.332" fill="none" stroke="#fff" stroke-width="4"/></g></svg>