<svg xmlns="http://www.w3.org/2000/svg" viewBox="0 0 55 31.25" height="31.25" width="55"><defs><clipPath id="a"><path d="M0 10v237h440V10H0z"/></clipPath></defs><g clip-path="url(#a)" transform="matrix(.13 0 0 -.13 0 31.25)"><path d="M6.09 15.2h357.34v159.34H6.09V15.2z" fill="#036998"/><path d="M6.09 15.2h357.34v159.34H6.09V15.2z" fill="none" stroke="#fff" stroke-width="4"/><path d="M363.441 174.539H5.941l88.36 67.391 343.668.269-74.528-67.66" fill="#036998"/><path d="M363.441 174.539H5.941l88.36 67.391 343.668.269-74.528-67.66z" fill="none" stroke="#fff" stroke-width="4"/><path d="M437.969 242.199l-1.168-155.082-73.36-72.34V174.54l74.528 67.66" fill="#036998"/><path d="M437.969 242.199l-1.168-155.082-73.36-72.34V174.54l74.528 67.66z" fill="none" stroke="#fff" stroke-width="4"/><path d="M194.57 112.859h12.11l2.808-2.812h9.422l10.43 7.66h11.281l9.649-10.668 10.671.039 11.637 10.699h9.801l8.402-9.14h9.688l3.633 6.961 28.238-17.192-19.762-16.68-117.969-.199v-3.82l-18.437-.039c-4.57-.04-8.551-2.738-10.434-6.719-8.707-13.75-23.976-22.93-41.437-22.93-27.192-.082-49.223 22.07-49.223 49.45 0 27.347 22.031 49.57 49.223 49.609 17.219.039 32.34-8.871 41.129-22.301 1.718-4.3 5.859-7.308 10.742-7.308l18.398.039v-4.649" fill="#fff"/><path d="M194.57 112.859h12.11l2.808-2.812h9.422l10.43 7.66h11.281l9.649-10.668 10.671.039 11.637 10.699h9.801l8.402-9.14h9.688l3.633 6.961 28.238-17.192-19.762-16.68-117.969-.199v-3.82l-18.437-.039c-4.57-.04-8.551-2.738-10.434-6.719-8.707-13.75-23.976-22.93-41.437-22.93-27.192-.082-49.223 22.07-49.223 49.45 0 27.347 22.031 49.57 49.223 49.609 17.219.039 32.34-8.871 41.129-22.301 1.718-4.3 5.859-7.308 10.742-7.308l18.398.039v-4.649" fill="none" stroke="#036998" stroke-width="3.5"/><path d="M321.371 89.738l-126.762-.199c-5 0-11.949-1.332-18.359-4.062 6.41-2.66 13.359-3.95 18.359-3.95M326.84 101.297l-126.762-.188c-5.629 0-17.418 1.129-20.078 2.18" fill="none" stroke="#036998" stroke-width="3.5" stroke-linejoin="round"/><path d="M124.301 53.328c24.289.04 43.937 19.879 43.937 44.3 0 24.411-19.648 44.181-43.937 44.142-24.262-.043-43.91-19.84-43.91-44.301 0-24.41 19.648-44.18 43.91-44.14" fill="#fff"/><path d="M124.301 53.328c24.289.04 43.937 19.879 43.937 44.3 0 24.411-19.648 44.181-43.937 44.142-24.262-.043-43.91-19.84-43.91-44.301 0-24.41 19.648-44.18 43.91-44.14z" fill="none" stroke="#036998" stroke-width="3.5" stroke-linejoin="round"/><path d="M99.14 85.906c6.372 0 11.52 5.203 11.52 11.602 0 6.41-5.148 11.601-11.52 11.601-6.37-.043-11.519-5.23-11.519-11.64 0-6.403 5.149-11.563 11.52-11.563" fill="#fff"/><path d="M99.14 85.906c6.372 0 11.52 5.203 11.52 11.602 0 6.41-5.148 11.601-11.52 11.601-6.37-.043-11.519-5.23-11.519-11.64 0-6.403 5.149-11.563 11.52-11.563z" fill="none" stroke="#036998" stroke-width="3.5" stroke-linejoin="round"/></g></svg>