<svg xmlns="http://www.w3.org/2000/svg" viewBox="0 0 37.5 40" height="40" width="37.5"><defs><clipPath id="a"><path d="M0 10h300v310H0V10z"/></clipPath></defs><g clip-path="url(#a)" transform="matrix(.13 0 0 -.13 0 40)"><path d="M41.762 67.5l3.75 44.801h219.097l-3.75-44.801H41.762" fill="#036998"/><path d="M41.762 67.5l3.75 44.801h219.097l-3.75-44.801H41.762z" fill="none" stroke="#fff" stroke-width="4"/><path d="M255.82 10.121V23.2l28.59 39.73V38.712l-28.59-28.59" fill="#036998"/><path d="M255.82 10.121V23.2l28.59 39.73V38.712l-28.59-28.59z" fill="none" stroke="#fff" stroke-width="4"/><path d="M3.95 10.11h251.878V23.2H3.95V10.11z" fill="#036998"/><path d="M3.95 10.11h251.878V23.2H3.95V10.11z" fill="none" stroke="#fff" stroke-width="4"/><path d="M43.2 113.238h217.62v164.691H43.2V113.238z" fill="#036998"/><path d="M43.2 113.238h217.62v164.691H43.2V113.238z" fill="none" stroke="#fff" stroke-width="4"/><path d="M260.82 113.238l37.27 37.27V315.16l-37.27-37.23V113.238" fill="#036998"/><path d="M260.82 113.238l37.27 37.27V315.16l-37.27-37.23V113.238z" fill="none" stroke="#fff" stroke-width="4"/><path d="M255.82 23.2H3.95l29.14 39.73h251.32L255.82 23.2" fill="#036998"/><path d="M255.82 23.2H3.95l29.14 39.73h251.32L255.82 23.2z" fill="none" stroke="#fff" stroke-width="4"/><path d="M262.148 62.7v51.519l36.993 36.801V99.73L262.148 62.7" fill="#036998"/><path d="M262.148 62.7v51.519l36.993 36.801V99.73L262.148 62.7z" fill="none" stroke="#fff" stroke-width="4"/><path d="M78.672 258.949h145.976c9.493 0 17.192-7.699 17.192-17.191v-92.227c0-9.492-7.699-17.191-17.192-17.191H78.672c-9.492 0-17.192 7.699-17.192 17.191v92.227c0 9.492 7.7 17.191 17.192 17.191" fill="#fff"/><path d="M298.09 315.16H85.66L43.2 277.93h217.62l37.27 37.23" fill="#036998"/><path d="M298.09 315.16H85.66L43.2 277.93h217.62l37.27 37.23z" fill="none" stroke="#fff" stroke-width="4"/><path d="M126.211 229.301c-26.68 5.347-40.781-8.321-38.55-20.16l.19-.621c-20.78-3.559-15.351-28.09-5.351-28.09l.98.039c-2.351-16.918 22.649-26.918 35.309-17.379l.902.93c3.938-16.09 57.688-17.34 68.547-5.309l.981-.273c23.511-1.879 34.261 14.371 29.101 26.05l1.289.352c8.012 2.109 8.942 20.668-4.839 23.398l.269.711c5.981 12.071-8.129 23.43-27.699 21.281l-1.36.708c-13.992 12.691-54.3 10.621-58.949-1.918l-.82.281" fill="#036998"/><path d="M126.211 229.301c-26.68 5.347-40.781-8.321-38.55-20.16l.19-.621c-20.78-3.559-15.351-28.09-5.351-28.09l.98.039c-2.351-16.918 22.649-26.918 35.309-17.379l.902.93c3.938-16.09 57.688-17.34 68.547-5.309l.981-.273c23.511-1.879 34.261 14.371 29.101 26.05l1.289.352c8.012 2.109 8.942 20.668-4.839 23.398l.269.711c5.981 12.071-8.129 23.43-27.699 21.281l-1.36.708c-13.992 12.691-54.3 10.621-58.949-1.918l-.82.281z" fill="none" stroke="#fff" stroke-width="4"/></g></svg>