<svg xmlns="http://www.w3.org/2000/svg" viewBox="0 0 60 35" height="35" width="60"><path d="M.708 15.1L18.184.97H58.53L44.067 15.1H.707" fill="#087bbb"/><path d="M.708 15.1L18.184.97H58.53L44.067 15.1H.707z" fill="none" stroke="#fff" stroke-width=".5"/><path d="M44.067 33.138L58.53 18.4V.994L44.067 15.1v18.038" fill="#087bbb"/><path d="M44.067 33.138L58.53 18.4V.994L44.067 15.1v18.038z" fill="none" stroke="#fff" stroke-width=".5"/><path d="M.766 33.151h43.301v-18.05H.767v18.05z" fill="#087bbb"/><path d="M.766 33.151h43.301v-18.05H.767v18.05z" fill="none" stroke="#fff" stroke-width=".5"/><g font-weight="700" font-size="6.822" font-family="Helvetica" fill="#fff"><text style="-inkscape-font-specification:Helvetica-Bold" transform="matrix(.93148 0 -.83358 .71693 10.592 9.834)"><tspan y="0" x="0">W</tspan></text><text style="-inkscape-font-specification:Helvetica-Bold" transform="matrix(.93145 0 -.8336 .71695 41.183 10.339)"><tspan y="0" x="0">E</tspan></text><text style="-inkscape-font-specification:Helvetica-Bold" transform="matrix(.93148 0 -.83358 .71693 20.906 14.607)"><tspan y="0" x="0">S</tspan><tspan y="-13.344" x="-.384">N</tspan></text></g><path d="M32.495 8.04c-.439.385-1.665.697-2.73.697-1.064 0-1.571-.312-1.127-.697.44-.386 1.665-.699 2.73-.699 1.063 0 1.572.313 1.127.699" fill="#fff"/><path d="M30.185 7.727l4.146-2.96-2.579 2.96M29.654 8.196l-2.613 2.959 4.175-2.959M29.404 8.308l-7.832-.278 8.482-.294" fill="#fff"/><path d="M30.689 8.308l8.466-.278-7.818-.294M30.015 8.45l-4.224.815 3.574-1.216" fill="#fff"/><path d="M31.299 8.118l4.111-1.363-4.76.962M31.655 8.074l.914 1.308-2.477-.908" fill="#fff"/><path d="M31.122 7.741l-2.533-.927.971 1.329" fill="#fff"/><path d="M37.315 7.043c.41 1.295-2.359 2.871-6.183 3.531-3.822.659-7.25.146-7.66-1.147-.411-1.29 2.358-2.872 6.182-3.53 3.822-.66 7.255-.148 7.661 1.146z" fill="none" stroke="#fff" stroke-width=".5" stroke-miterlimit="1"/></svg>