<svg xmlns="http://www.w3.org/2000/svg" viewBox="0 0 61.25 36.25" height="36.25" width="61.25"><path d="M.708 15.774L18.74 1.189h41.641L45.454 15.774H.708" fill="#0881c1"/><path d="M.708 15.774L18.74 1.189h41.641L45.454 15.774H.708z" fill="none" stroke="#fff" stroke-width=".5"/><path d="M45.454 34.388l14.927-15.21V1.214l-14.927 14.56v18.614" fill="#0881c1"/><path d="M45.454 34.388l14.927-15.21V1.213l-14.927 14.56v18.614z" fill="none" stroke="#fff" stroke-width=".5"/><path d="M.766 34.401h44.688V15.774H.766V34.4z" fill="#0881c1"/><path d="M.766 34.401h44.688V15.774H.766V34.4z" fill="none" stroke="#fff" stroke-width=".5"/><path d="M14.273 10.476l5.57-.547-.805 2.325-1.694-.817-6.104 2.618-1.489-.41 5.928-2.574-1.407-.595M38.1 10.564l-4.853-.83.23 2.549 1.615-.787 4.39 2.218 1.446-.392-4.248-2.157 1.42-.601" fill="#fff"/><path d="M42.935 25.612s-2.974 7.642-6.549-.023c-3.569-7.662-6.552-.015-6.552-.015s-2.969 7.646-6.543-.015c-3.57-7.666-6.528.048-6.528.048s-2.969 7.647-6.543-.018c-3.57-7.662-6.534-.02-6.534-.02" fill="none" stroke="#fff" stroke-width=".5625" stroke-linecap="round" stroke-miterlimit="1"/><path d="M3.686 25.612s2.974 7.642 6.549-.023c3.569-7.662 6.553-.015 6.553-.015s2.968 7.646 6.537-.015c3.575-7.666 6.534.048 6.534.048s2.969 7.647 6.542-.018c3.57-7.662 6.534-.02 6.534-.02" fill="none" stroke="#fff" stroke-width="1.125" stroke-linecap="round" stroke-miterlimit="1"/><path d="M43.623 25.612s-2.973 7.642-6.548-.023c-3.569-7.662-6.552-.015-6.552-.015s-2.97 7.651-6.538-.015c-3.575-7.666-6.534.048-6.534.048s-2.969 7.647-6.542-.018c-3.57-7.662-6.534-.02-6.534-.02" fill="none" stroke="#231f20" stroke-width=".5625" stroke-linecap="round" stroke-miterlimit="1"/><path d="M4.375 25.612s2.974 7.642 6.547-.023c3.57-7.662 6.55-.015 6.55-.015s2.972 7.651 6.542-.015c3.573-7.666 6.533.048 6.533.048s2.968 7.647 6.543-.018c3.569-7.662 6.533-.02 6.533-.02" fill="none" stroke="#231f20" stroke-width="1.125" stroke-linecap="round" stroke-miterlimit="1"/><path d="M42.935 25.612s-2.974 7.642-6.549-.023c-3.569-7.662-6.552-.015-6.552-.015s-2.969 7.646-6.543-.015c-3.57-7.666-6.528.048-6.528.048s-2.969 7.647-6.543-.018c-3.57-7.662-6.534-.02-6.534-.02" fill="none" stroke="#fff" stroke-width=".5625" stroke-linecap="round" stroke-miterlimit="1"/><path d="M3.686 25.612s2.974 7.642 6.549-.023c3.569-7.662 6.553-.015 6.553-.015s2.968 7.646 6.537-.015c3.575-7.666 6.534.048 6.534.048s2.969 7.647 6.542-.018c3.57-7.662 6.534-.02 6.534-.02" fill="none" stroke="#fff" stroke-width="1.125" stroke-linecap="round" stroke-miterlimit="1"/><path d="M43.623 25.612s-2.973 7.642-6.548-.023c-3.569-7.662-6.552-.015-6.552-.015s-2.97 7.651-6.538-.015c-3.575-7.666-6.534.048-6.534.048s-2.969 7.647-6.542-.018c-3.57-7.662-6.534-.02-6.534-.02" fill="none" stroke="#231f20" stroke-width=".5625" stroke-linecap="round" stroke-miterlimit="1"/><path d="M4.375 25.612s2.974 7.642 6.547-.023c3.57-7.662 6.55-.015 6.55-.015s2.972 7.651 6.542-.015c3.573-7.666 6.533.048 6.533.048s2.968 7.647 6.543-.018c3.569-7.662 6.533-.02 6.533-.02" fill="none" stroke="#231f20" stroke-width="1.125" stroke-linecap="round" stroke-miterlimit="1"/><path d="M42.935 25.612s-2.974 7.642-6.549-.023c-3.569-7.662-6.552-.015-6.552-.015s-2.969 7.646-6.543-.015c-3.57-7.666-6.528.048-6.528.048s-2.969 7.647-6.543-.018c-3.57-7.662-6.534-.02-6.534-.02" fill="none" stroke="#fff" stroke-width=".5625" stroke-linecap="round" stroke-miterlimit="1"/><path d="M3.686 25.612s2.974 7.642 6.549-.023c3.569-7.662 6.553-.015 6.553-.015s2.968 7.646 6.537-.015c3.575-7.666 6.534.048 6.534.048s2.969 7.647 6.542-.018c3.57-7.662 6.534-.02 6.534-.02" fill="none" stroke="#fff" stroke-width="1.125" stroke-linecap="round" stroke-miterlimit="1"/><path d="M29.649 4.836L27.23 4.68l7.887-2.026 3.442 2.695-2.545-.137-.502-.024-4.248 3.027-5.771.039 4.53-3.388-.375-.03M24.736 12.136l-1.675-.03 4.4-2.738.278 2.768-1.777.01.278.01-2.236 2.431-1.64-.01 2.246-2.43.126-.01" fill="#fff"/></svg>