<svg xmlns="http://www.w3.org/2000/svg" viewBox="0 0 61.25 32.5" height="32.5" width="61.25"><path d="M.82 30.154h44.649V15.66H.819v14.493z" fill="#036998"/><path d="M.82 30.154h44.649V15.66H.819v14.493z" fill="none" stroke="#fff" stroke-width=".5"/><path d="M.703 15.734L18.74 1.115H60.4L45.43 15.734H.703" fill="#036998"/><path d="M.703 15.734L18.74 1.115H60.4L45.43 15.734H.703z" fill="none" stroke="#fff" stroke-width=".5"/><path d="M45.444 30.612L60.36 14.5l.01-13.354-14.927 14.57v14.897" fill="#036998"/><path d="M45.444 30.612L60.36 14.5l.01-13.354-14.927 14.57v14.897z" fill="none" stroke="#fff" stroke-width=".5"/><path d="M26.875 11.93l-.864.714H14.873l-1.108 1.108-3.017-1.313 6.068-1.739-1.073 1.23h11.132M35.625 6.461l-.864.714H23.622l-1.107 1.109-3.018-1.314 6.07-1.738-1.074 1.23h11.132M28.842 9.997l.866-.708h11.137l1.108-1.109 3.018 1.314-6.07 1.733 1.074-1.23H28.842M34.623 4.529l.866-.71h11.138l1.108-1.108 3.018 1.314-6.07 1.734 1.073-1.23H34.624" fill="#fff"/></svg>