<svg xmlns="http://www.w3.org/2000/svg" viewBox="0 0 40 42.5" height="42.5" width="40"><path d="M39.038 23.52l-3.598 4.8H5.61l4.884-4.889 28.544.089" fill="#036998"/><path d="M39.038 23.519l-3.598 4.8H5.61l4.884-4.887 28.544.087z" fill="none" stroke="#fff" stroke-width=".5"/><path d="M5.538 33.715H34.16v-5.338H5.538v5.338z" fill="#036998"/><path d="M5.538 33.715H34.16v-5.337H5.538v5.337z" fill="none" stroke="#fff" stroke-width=".5"/><path d="M5.444 27.176h28.525V5.668H5.444v21.508z" fill="#036998"/><path d="M5.444 27.177h28.525V5.668H5.444v21.509z" fill="none" stroke="#fff" stroke-width=".5"/><path d="M33.97 27.176l4.867-4.867V.805L33.97 5.668v21.508" fill="#036998"/><path d="M33.97 27.177l4.867-4.868V.804L33.97 5.668v21.509z" fill="none" stroke="#fff" stroke-width=".5"/><path d="M34.136 33.73v-5.342l4.84-4.834v5.341l-4.84 4.835" fill="#036998"/><path d="M34.136 33.73v-5.342l4.84-4.834v5.342l-4.84 4.833z" fill="none" stroke="#fff" stroke-width=".5"/><path d="M10.181 8.149H29.24a2.246 2.246 0 0 1 2.246 2.246v12.04a2.246 2.246 0 0 1-2.246 2.246H10.18a2.245 2.245 0 0 1-2.246-2.246v-12.04a2.245 2.245 0 0 1 2.246-2.246" fill="#036998"/><path d="M10.181 8.148H29.24a2.247 2.247 0 0 1 2.246 2.246v12.042a2.247 2.247 0 0 1-2.246 2.246H10.18a2.246 2.246 0 0 1-2.246-2.246V10.394a2.246 2.246 0 0 1 2.246-2.246z" fill="none" stroke="#fff" stroke-width=".5"/><path d="M38.837.805H11.094l-5.65 4.862H33.97L38.837.805" fill="#036998"/><path d="M38.837.804H11.094l-5.65 4.864H33.97L38.837.804z" fill="none" stroke="#fff" stroke-width=".5"/><path d="M33.31 40.649v-1.734l3.736-5.166v3.165l-3.736 3.735" fill="#036998"/><path d="M33.31 40.648v-1.732l3.736-5.166v3.163l-3.736 3.735z" fill="none" stroke="#fff" stroke-width=".5"/><path d="M33.31 38.94H.489l3.735-5.191h32.822l-3.736 5.19" fill="#036998"/><path d="M33.31 38.94H.489l3.735-5.19h32.822l-3.736 5.19z" fill="none" stroke="#fff" stroke-width=".5"/><path d="M.469 40.649H33.31v-1.71H.469v1.71z" fill="#036998"/><path d="M.469 40.648H33.31v-1.709H.469v1.709z" fill="none" stroke="#fff" stroke-width=".5"/><path d="M16.763 11.86c-3.335-.67-5.093 1.04-4.814 2.513l.018.085c-2.597.438-1.913 3.51-.668 3.51l.122-.006c-.294 2.116 2.832 3.366 4.419 2.174l.107-.117c.493 2.01 7.212 2.167 8.57.659l.122.038c2.943.235 4.282-1.796 3.637-3.256l.161-.044c1.002-.264 1.12-2.584-.6-2.925l.03-.087c.747-1.509-1.017-2.93-3.458-2.661l-.17-.09c-1.754-1.586-6.788-1.327-7.374.24l-.102-.033" fill="#036998"/><path d="M16.763 11.86c-3.335-.67-5.093 1.04-4.814 2.515l.018.081c-2.597.441-1.913 3.512-.668 3.512l.122-.005c-.294 2.114 2.832 3.364 4.419 2.173l.107-.118c.493 2.013 7.212 2.169 8.57.66l.122.039c2.944.235 4.282-1.797 3.637-3.257l.162-.045c1.001-.263 1.118-2.582-.6-2.923l.028-.09c.748-1.508-1.016-2.928-3.457-2.66l-.17-.088c-1.754-1.586-6.788-1.327-7.374.24l-.102-.035z" fill="none" stroke="#fff" stroke-width=".5"/></svg>