<?xml version="1.0" encoding="UTF-8" standalone="no"?>
<svg
   xmlns:dc="http://purl.org/dc/elements/1.1/"
   xmlns:cc="http://creativecommons.org/ns#"
   xmlns:rdf="http://www.w3.org/1999/02/22-rdf-syntax-ns#"
   xmlns:svg="http://www.w3.org/2000/svg"
   xmlns="http://www.w3.org/2000/svg"
   viewBox="0 0 46.25 31.25"
   height="31.25"
   width="46.25"
   xml:space="preserve"
   version="1.1"
   id="svg2"><metadata
     id="metadata8"><rdf:RDF><cc:Work
         rdf:about=""><dc:format>image/svg+xml</dc:format><dc:type
           rdf:resource="http://purl.org/dc/dcmitype/StillImage" /></cc:Work></rdf:RDF></metadata><defs
     id="defs6" /><g
     transform="matrix(1.25,0,0,-1.25,0,31.25)"
     id="g10"><g
       transform="scale(0.1,0.1)"
       id="g12"><path
         id="path14"
         style="fill:#087bbb;fill-opacity:1;fill-rule:nonzero;stroke:none"
         d="m 369.801,176.48 c 0,-39.492 -82.34,-71.519 -183.86,-71.519 -101.6012,0 -183.95272,32.027 -183.95272,71.519 l 0,-104.7612 c 0,-39.4883 82.35152,-71.519581 183.95272,-71.519581 101.52,0 183.86,32.031281 183.86,71.519581 l 0,104.7612" /><path
         id="path16"
         style="fill:none;stroke:#ffffff;stroke-width:3.99993992;stroke-linecap:butt;stroke-linejoin:miter;stroke-miterlimit:4;stroke-dasharray:none;stroke-opacity:1"
         d="m 369.801,176.48 c 0,-39.492 -82.34,-71.519 -183.86,-71.519 -101.6012,0 -183.95272,32.027 -183.95272,71.519 l 0,-104.7612 c 0,-39.4883 82.35152,-71.519581 183.95272,-71.519581 101.52,0 183.86,32.031281 183.86,71.519581 l 0,104.7612 z" /><path
         id="path18"
         style="fill:#087bbb;fill-opacity:1;fill-rule:nonzero;stroke:none"
         d="m 185.941,104.961 c 101.52,0 183.86,32.027 183.86,71.519 0,39.5 -82.34,71.532 -183.86,71.532 -101.6012,0 -183.95272,-32.032 -183.95272,-71.532 0,-39.492 82.35152,-71.519 183.95272,-71.519" /><path
         id="path20"
         style="fill:none;stroke:#ffffff;stroke-width:3.99993992;stroke-linecap:butt;stroke-linejoin:miter;stroke-miterlimit:4;stroke-dasharray:none;stroke-opacity:1"
         d="m 185.941,104.961 c 101.52,0 183.86,32.027 183.86,71.519 0,39.5 -82.34,71.532 -183.86,71.532 -101.6012,0 -183.95272,-32.032 -183.95272,-71.532 0,-39.492 82.35152,-71.519 183.95272,-71.519 z" /><path
         id="path22"
         style="fill:#ffffff;fill-opacity:1;fill-rule:nonzero;stroke:none"
         d="m 143.949,204.449 15.153,-22.769 -57.422,-13.282 12.539,10.43 -88.7502,15.192 22.2617,16.679 85.6675,-14.488 10.551,8.238" /><path
         id="path24"
         style="fill:#ffffff;fill-opacity:1;fill-rule:nonzero;stroke:none"
         d="m 224.691,149.219 -10.351,23.48 51.789,10.352 -8.981,-8.051 86.332,-14.73 -20.71,-16.598 -85.821,16.129 -12.258,-10.582" /><path
         id="path26"
         style="fill:#ffffff;fill-opacity:1;fill-rule:nonzero;stroke:none"
         d="m 196.41,216.879 57.969,15.891 0.699,-24.879 -14.488,2.769 -28.32,-23.469 -27,3.938 29.179,22.973 -18.039,2.777" /><path
         id="path28"
         style="fill:#ffffff;fill-opacity:1;fill-rule:nonzero;stroke:none"
         d="m 171.559,127.809 -55.27,-10.387 -2.07,25.547 15.902,-3.438 30.391,25.981 26.91,-4.571 -32.461,-28.32 16.598,-4.812" /><path
         id="path30"
         style="fill:#ffffff;fill-opacity:1;fill-rule:nonzero;stroke:none"
         d="m 268.871,52.1484 c 0,-22.6601 -35.75,-41.0586 -79.769,-41.0586 -44.063,0 -79.801,18.3985 -79.801,41.0586 0,22.6524 35.738,41.0508 79.801,41.0508 44.019,0 79.769,-18.3984 79.769,-41.0508" /><path
         id="path32"
         style="fill:#087bbb;fill-opacity:1;fill-rule:nonzero;stroke:none"
         d="m 140.199,45.5508 24.68,24.6797 -12.07,12.0703 37.269,2.6211 -2.109,-37.8125 -13.129,13.1211 -24.641,-24.6407 -10,9.961" /><path
         id="path34"
         style="fill:none;stroke:#ffffff;stroke-width:3.99993992;stroke-linecap:butt;stroke-linejoin:miter;stroke-miterlimit:4;stroke-dasharray:none;stroke-opacity:1"
         d="m 140.199,45.5508 24.68,24.6797 -12.07,12.0703 37.269,2.6211 -2.109,-37.8125 -13.129,13.1211 -24.641,-24.6407 -10,9.961 z" /><path
         id="path36"
         style="fill:#087bbb;fill-opacity:1;fill-rule:nonzero;stroke:none"
         d="m 184.531,25.6211 24.688,24.6875 -12.071,12.0703 37.231,2.6211 -2.078,-37.8086 -13.16,13.1172 -24.61,-24.6484 -10,9.9609" /><path
         id="path38"
         style="fill:none;stroke:#ffffff;stroke-width:3.99993992;stroke-linecap:butt;stroke-linejoin:miter;stroke-miterlimit:4;stroke-dasharray:none;stroke-opacity:1"
         d="m 184.531,25.6211 24.688,24.6875 -12.071,12.0703 37.231,2.6211 -2.078,-37.8086 -13.16,13.1172 -24.61,-24.6484 -10,9.9609 z" /></g></g></svg>