<svg xmlns="http://www.w3.org/2000/svg" viewBox="0 0 46.25 31.25" height="31.25" width="46.25"><path d="M46.225 9.19c0 4.937-10.292 8.94-22.982 8.94-12.7 0-22.994-4.003-22.994-8.94v13.095c0 4.936 10.293 8.94 22.994 8.94 12.69 0 22.982-4.004 22.982-8.94V9.19" fill="#087bbb"/><path d="M46.225 9.19c0 4.937-10.292 8.94-22.982 8.94-12.7 0-22.994-4.003-22.994-8.94v13.095c0 4.936 10.293 8.94 22.994 8.94 12.69 0 22.982-4.004 22.982-8.94V9.19z" fill="none" stroke="#fff" stroke-width=".5"/><path d="M23.243 18.13c12.69 0 22.982-4.004 22.982-8.94 0-4.938-10.292-8.942-22.982-8.942C10.543.248.249 4.252.249 9.19c0 4.936 10.293 8.94 22.994 8.94" fill="#087bbb"/><path d="M23.243 18.13c12.69 0 22.982-4.004 22.982-8.94 0-4.938-10.292-8.942-22.982-8.942C10.543.248.249 4.252.249 9.19c0 4.936 10.293 8.94 22.994 8.94z" fill="none" stroke="#fff" stroke-width=".5"/><path d="M17.994 5.694l1.894 2.846-7.178 1.66 1.567-1.304L3.184 6.997l2.782-2.084 10.709 1.81 1.319-1.03M28.086 12.598l-1.293-2.935 6.473-1.294-1.122 1.006 10.791 1.841-2.589 2.075-10.727-2.016-1.533 1.323M24.551 4.14l7.246-1.986.088 3.11-1.811-.346-3.54 2.933-3.375-.492 3.647-2.872-2.255-.347M21.445 15.274l-6.909 1.298-.259-3.193 1.988.43 3.799-3.248 3.364.571-4.058 3.54 2.075.602M33.609 24.731c0 2.833-4.469 5.133-9.971 5.133-5.508 0-9.975-2.3-9.975-5.133 0-2.831 4.467-5.13 9.975-5.13 5.502 0 9.97 2.299 9.97 5.13" fill="#fff"/><path d="M17.525 25.556l3.085-3.085-1.509-1.509 4.659-.327-.264 4.726-1.641-1.64-3.08 3.08-1.25-1.245" fill="#087bbb"/><path d="M17.525 25.556l3.085-3.085-1.509-1.509 4.659-.327-.264 4.726-1.641-1.64-3.08 3.08-1.25-1.245z" fill="none" stroke="#fff" stroke-width=".5"/><path d="M23.066 28.047l3.086-3.086-1.509-1.508 4.654-.328-.26 4.726-1.644-1.64-3.077 3.081-1.25-1.245" fill="#087bbb"/><path d="M23.066 28.047l3.086-3.086-1.509-1.508 4.654-.328-.26 4.726-1.644-1.64-3.077 3.081-1.25-1.245z" fill="none" stroke="#fff" stroke-width=".5"/></svg>