<?xml version="1.0" encoding="UTF-8" standalone="no"?>
<svg
   xmlns:dc="http://purl.org/dc/elements/1.1/"
   xmlns:cc="http://creativecommons.org/ns#"
   xmlns:rdf="http://www.w3.org/1999/02/22-rdf-syntax-ns#"
   xmlns:svg="http://www.w3.org/2000/svg"
   xmlns="http://www.w3.org/2000/svg"
   viewBox="0 0 46.450001 31.475"
   height="31.475"
   width="46.450001"
   xml:space="preserve"
   version="1.1"
   id="svg2"><metadata
     id="metadata8"><rdf:RDF><cc:Work
         rdf:about=""><dc:format>image/svg+xml</dc:format><dc:type
           rdf:resource="http://purl.org/dc/dcmitype/StillImage" /></cc:Work></rdf:RDF></metadata><defs
     id="defs6"><clipPath
       id="clipPath18"
       clipPathUnits="userSpaceOnUse"><path
         id="path20"
         d="m 0,1.80078 370,0 0,250 -370,0 0,-250 z" /></clipPath></defs><g
     transform="matrix(1.25,0,0,-1.25,0,31.475)"
     id="g10"><g
       transform="scale(0.1,0.1)"
       id="g12"><g
         id="g14"><g
           clip-path="url(#clipPath18)"
           id="g16"><path
             id="path22"
             style="fill:#087bbb;fill-opacity:1;fill-rule:nonzero;stroke:none"
             d="m 369.813,178.285 c 0,-39.504 -82.34,-71.527 -183.883,-71.527 C 84.3477,106.758 2,138.781 2,178.285 L 2,73.5156 C 2,34.0195 84.3477,1.99219 185.93,1.99219 c 101.543,0 183.883,32.02731 183.883,71.52341 l 0,104.7694" /><path
             id="path24"
             style="fill:none;stroke:#ffffff;stroke-width:3.99993992;stroke-linecap:butt;stroke-linejoin:miter;stroke-miterlimit:4;stroke-dasharray:none;stroke-opacity:1"
             d="m 369.813,178.285 c 0,-39.504 -82.34,-71.527 -183.883,-71.527 C 84.3477,106.758 2,138.781 2,178.285 L 2,73.5156 C 2,34.0195 84.3477,1.99219 185.93,1.99219 c 101.543,0 183.883,32.02731 183.883,71.52341 l 0,104.7694 z" /><path
             id="path26"
             style="fill:#087bbb;fill-opacity:1;fill-rule:nonzero;stroke:none"
             d="m 185.93,106.758 c 101.543,0 183.883,32.023 183.883,71.527 0,39.504 -82.34,71.524 -183.883,71.524 C 84.3477,249.809 2,217.789 2,178.285 2,138.781 84.3477,106.758 185.93,106.758" /><path
             id="path28"
             style="fill:none;stroke:#ffffff;stroke-width:3.99993992;stroke-linecap:butt;stroke-linejoin:miter;stroke-miterlimit:4;stroke-dasharray:none;stroke-opacity:1"
             d="m 185.93,106.758 c 101.543,0 183.883,32.023 183.883,71.527 0,39.504 -82.34,71.524 -183.883,71.524 C 84.3477,249.809 2,217.789 2,178.285 2,138.781 84.3477,106.758 185.93,106.758 Z" /><path
             id="path30"
             style="fill:#ffffff;fill-opacity:1;fill-rule:nonzero;stroke:none"
             d="m 143.926,206.254 15.183,-22.785 -57.421,-13.274 12.55,10.453 -88.7497,15.165 22.2656,16.691 85.6371,-14.504 10.535,8.254" /><path
             id="path32"
             style="fill:#ffffff;fill-opacity:1;fill-rule:nonzero;stroke:none"
             d="m 224.695,151.008 -10.371,23.48 51.797,10.356 -8.98,-8.051 86.328,-14.738 -20.703,-16.575 -85.825,16.114 -12.246,-10.586" /><path
             id="path34"
             style="fill:#ffffff;fill-opacity:1;fill-rule:nonzero;stroke:none"
             d="m 196.406,218.688 57.981,15.882 0.679,-24.863 -14.492,2.766 -28.301,-23.485 -27,3.938 29.192,22.976 -18.059,2.786" /><path
             id="path36"
             style="fill:#ffffff;fill-opacity:1;fill-rule:nonzero;stroke:none"
             d="m 171.543,129.594 -55.242,-10.356 -2.071,25.551 15.875,-3.449 30.415,25.965 26.914,-4.555 -32.461,-28.316 16.57,-4.84" /><path
             id="path38"
             style="fill:#ffffff;fill-opacity:1;fill-rule:nonzero;stroke:none"
             d="m 268.879,53.9492 c 0,-22.664 -35.742,-41.039 -79.777,-41.039 -44.075,0 -79.793,18.375 -79.793,41.039 0,22.668 35.718,41.0469 79.793,41.0469 44.035,0 79.777,-18.3789 79.777,-41.0469" /><path
             id="path40"
             style="fill:#087bbb;fill-opacity:1;fill-rule:nonzero;stroke:none"
             d="m 140.203,47.3594 24.668,24.6719 -12.066,12.0742 37.261,2.6172 -2.086,-37.8008 -13.125,13.1289 -24.679,-24.6719 -9.973,9.9805" /><path
             id="path42"
             style="fill:none;stroke:#ffffff;stroke-width:3.99993992;stroke-linecap:butt;stroke-linejoin:miter;stroke-miterlimit:4;stroke-dasharray:none;stroke-opacity:1"
             d="m 140.203,47.3594 24.668,24.6719 -12.066,12.0742 37.261,2.6172 -2.086,-37.8008 -13.125,13.1289 -24.679,-24.6719 -9.973,9.9805 z" /><path
             id="path44"
             style="fill:#087bbb;fill-opacity:1;fill-rule:nonzero;stroke:none"
             d="m 184.539,27.4375 24.672,24.6758 -12.07,12.0781 37.246,2.6172 -2.09,-37.8008 -13.149,13.125 -24.628,-24.6758 -9.981,9.9805" /><path
             id="path46"
             style="fill:none;stroke:#ffffff;stroke-width:3.99993992;stroke-linecap:butt;stroke-linejoin:miter;stroke-miterlimit:4;stroke-dasharray:none;stroke-opacity:1"
             d="m 184.539,27.4375 24.672,24.6758 -12.07,12.0781 37.246,2.6172 -2.09,-37.8008 -13.149,13.125 -24.628,-24.6758 -9.981,9.9805 z" /></g></g></g></g></svg>