<?xml version="1.0" encoding="UTF-8" standalone="no"?>
<svg
   xmlns:dc="http://purl.org/dc/elements/1.1/"
   xmlns:cc="http://creativecommons.org/ns#"
   xmlns:rdf="http://www.w3.org/1999/02/22-rdf-syntax-ns#"
   xmlns:svg="http://www.w3.org/2000/svg"
   xmlns="http://www.w3.org/2000/svg"
   viewBox="0 0 38.912498 52.299999"
   height="52.299999"
   width="38.912498"
   xml:space="preserve"
   version="1.1"
   id="svg2"><metadata
     id="metadata8"><rdf:RDF><cc:Work
         rdf:about=""><dc:format>image/svg+xml</dc:format><dc:type
           rdf:resource="http://purl.org/dc/dcmitype/StillImage" /></cc:Work></rdf:RDF></metadata><defs
     id="defs6" /><g
     transform="matrix(1.25,0,0,-1.25,0,52.3)"
     id="g10"><g
       transform="scale(0.1,0.1)"
       id="g12"><path
         id="path14"
         style="fill:#087bbb;fill-opacity:1;fill-rule:nonzero;stroke:none"
         d="m 306.305,241.777 -51.34,-48.75 -249.00406,0 64.50386,48.75 235.8402,0" /><path
         id="path16"
         style="fill:none;stroke:#ffffff;stroke-width:4;stroke-linecap:butt;stroke-linejoin:miter;stroke-miterlimit:4;stroke-dasharray:none;stroke-opacity:1"
         d="m 306.305,241.777 -51.34,-48.75 -249.00406,0 64.50386,48.75 235.8402,0 z" /><path
         id="path18"
         style="fill:#78b3da;fill-opacity:1;fill-rule:nonzero;stroke:none"
         d="m 5.96094,4.71875 249.004,0 0,188.309 -249.004,0 0,-188.309 z" /><path
         id="path20"
         style="fill:none;stroke:#ffffff;stroke-width:4;stroke-linecap:butt;stroke-linejoin:miter;stroke-miterlimit:4;stroke-dasharray:none;stroke-opacity:1"
         d="m 5.96094,4.71875 249.004,0 0,188.309 -249.004,0 0,-188.309 z" /><path
         id="path22"
         style="fill:#328fc7;fill-opacity:1;fill-rule:nonzero;stroke:none"
         d="m 301.215,50.957 0,188.305 -47.742,-46.235 0,-188.30825 47.742,46.23825" /><path
         id="path24"
         style="fill:none;stroke:#ffffff;stroke-width:4;stroke-linecap:butt;stroke-linejoin:miter;stroke-miterlimit:4;stroke-dasharray:none;stroke-opacity:1"
         d="m 301.215,50.957 0,188.305 -47.742,-46.235 0,-188.30825 47.742,46.23825 z" /><path
         id="path26"
         style="fill:#087bbb;fill-opacity:1;fill-rule:nonzero;stroke:none"
         d="m 306.305,416.168 -51.34,-48.746 -249.00406,0 64.50386,48.746 235.8402,0" /><path
         id="path28"
         style="fill:none;stroke:#ffffff;stroke-width:4;stroke-linecap:butt;stroke-linejoin:miter;stroke-miterlimit:4;stroke-dasharray:none;stroke-opacity:1"
         d="m 306.305,416.168 -51.34,-48.746 -249.00406,0 64.50386,48.746 235.8402,0 z" /><path
         id="path30"
         style="fill:#087bbb;fill-opacity:1;fill-rule:nonzero;stroke:none"
         d="m 5.96094,191.289 249.004,0 0,176.133 -249.004,0 0,-176.133 z" /><path
         id="path32"
         style="fill:none;stroke:#ffffff;stroke-width:4;stroke-linecap:butt;stroke-linejoin:miter;stroke-miterlimit:4;stroke-dasharray:none;stroke-opacity:1"
         d="m 5.96094,191.289 249.004,0 0,176.133 -249.004,0 0,-176.133 z" /><path
         id="path34"
         style="fill:#087bbb;fill-opacity:1;fill-rule:nonzero;stroke:none"
         d="m 301.215,237.531 0,176.133 -47.742,-46.242 0,-176.133 47.742,46.242" /><path
         id="path36"
         style="fill:none;stroke:#ffffff;stroke-width:4;stroke-linecap:butt;stroke-linejoin:miter;stroke-miterlimit:4;stroke-dasharray:none;stroke-opacity:1"
         d="m 301.215,237.531 0,176.133 -47.742,-46.242 0,-176.133 47.742,46.242 z" /><path
         id="path38"
         style="fill:#ffffff;fill-opacity:1;fill-rule:nonzero;stroke:none"
         d="m 107.34,283.34 -37.2853,0 0,9.613 L 56,278.773 l 14.0547,-14.195 0,9.617 37.2853,0 0,9.145" /><path
         id="path40"
         style="fill:#ffffff;fill-opacity:1;fill-rule:nonzero;stroke:none"
         d="m 128.402,253.141 0,-37.278 -9.617,0 14.18,-14.05 14.199,14.05 -9.621,0 0,37.278 -9.141,0" /><path
         id="path42"
         style="fill:#ffffff;fill-opacity:1;fill-rule:nonzero;stroke:none"
         d="m 128.402,303.328 0,37.274 -9.617,0 14.18,14.058 14.199,-14.058 -9.621,0 0,-37.274 -9.141,0" /><path
         id="path44"
         style="fill:#ffffff;fill-opacity:1;fill-rule:nonzero;stroke:none"
         d="m 158.609,274.195 37.254,0 0,-9.617 14.094,14.195 -14.094,14.18 0,-9.613 -37.254,0 0,-9.145" /><path
         id="path46"
         style="fill:none;stroke:#ffffff;stroke-width:3.47749996;stroke-linecap:butt;stroke-linejoin:miter;stroke-miterlimit:4;stroke-dasharray:none;stroke-opacity:1"
         d="m 192.934,218.945 c -7,-7.39 -39.149,12.907 -71.778,45.332 -32.6443,32.434 -53.406,64.707 -46.4138,72.094 7,7.391 39.1408,-12.922 71.7658,-45.351 32.637,-32.411 53.43,-64.707 46.426,-72.075 z" /><path
         id="path48"
         style="fill:none;stroke:#ffffff;stroke-width:3.47749996;stroke-linecap:butt;stroke-linejoin:miter;stroke-miterlimit:4;stroke-dasharray:none;stroke-opacity:1"
         d="m 191.078,336.914 c 7.383,-6.996 -12.93,-39.121 -45.351,-71.758 -32.43,-32.625 -64.7075,-53.418 -72.0903,-46.418 -7.3906,7 12.9102,39.137 45.3433,71.774 32.422,32.633 64.696,53.414 72.098,46.402 z" /><path
         id="path50"
         style="fill:#bfbebe;fill-opacity:1;fill-rule:nonzero;stroke:none"
         d="m 148.258,257.109 c 12.312,8.625 15.301,25.571 6.68,37.879 -8.625,12.313 -25.579,15.305 -37.903,6.692 -12.293,-8.61 -15.281,-25.586 -6.66,-37.879 8.605,-12.309 25.566,-15.309 37.883,-6.692" /><path
         id="path52"
         style="fill:none;stroke:#ffffff;stroke-width:14.25;stroke-linecap:butt;stroke-linejoin:miter;stroke-miterlimit:4;stroke-dasharray:none;stroke-opacity:1"
         d="m 122.113,129.082 -62.5778,0" /><path
         id="path54"
         style="fill:none;stroke:#ffffff;stroke-width:14.25;stroke-linecap:butt;stroke-linejoin:miter;stroke-miterlimit:4;stroke-dasharray:none;stroke-opacity:1"
         d="m 145.641,149.445 69.246,0" /><path
         id="path56"
         style="fill:#ffffff;fill-opacity:1;fill-rule:nonzero;stroke:none"
         d="m 198.559,173.105 0,-45.664 27.519,21.934 -27.519,23.73" /><path
         id="path58"
         style="fill:none;stroke:#ffffff;stroke-width:1.89999998;stroke-linecap:butt;stroke-linejoin:miter;stroke-miterlimit:4;stroke-dasharray:none;stroke-opacity:1"
         d="m 198.559,173.105 0,-45.664 27.519,21.934 -27.519,23.73 z" /><path
         id="path60"
         style="fill:#ffffff;fill-opacity:1;fill-rule:nonzero;stroke:none"
         d="m 65.9219,105.801 0,45.664 -27.5196,-21.934 27.5196,-23.73" /><path
         id="path62"
         style="fill:none;stroke:#ffffff;stroke-width:1.89999998;stroke-linecap:butt;stroke-linejoin:miter;stroke-miterlimit:4;stroke-dasharray:none;stroke-opacity:1"
         d="m 65.9219,105.801 0,45.664 -27.5196,-21.934 27.5196,-23.73 z" /><path
         id="path64"
         style="fill:none;stroke:#ffffff;stroke-width:14.25;stroke-linecap:butt;stroke-linejoin:miter;stroke-miterlimit:4;stroke-dasharray:none;stroke-opacity:1"
         d="m 122.113,46.582 -62.5778,0" /><path
         id="path66"
         style="fill:none;stroke:#ffffff;stroke-width:14.25;stroke-linecap:butt;stroke-linejoin:miter;stroke-miterlimit:4;stroke-dasharray:none;stroke-opacity:1"
         d="m 145.641,66.9453 69.246,0" /><path
         id="path68"
         style="fill:#ffffff;fill-opacity:1;fill-rule:nonzero;stroke:none"
         d="m 198.559,90.6055 0,-45.6719 27.519,21.9414 -27.519,23.7305" /><path
         id="path70"
         style="fill:none;stroke:#ffffff;stroke-width:1.89999998;stroke-linecap:butt;stroke-linejoin:miter;stroke-miterlimit:4;stroke-dasharray:none;stroke-opacity:1"
         d="m 198.559,90.6055 0,-45.6719 27.519,21.9414 -27.519,23.7305 z" /><path
         id="path72"
         style="fill:#ffffff;fill-opacity:1;fill-rule:nonzero;stroke:none"
         d="m 65.9219,23.3008 0,45.664 L 38.4023,47.0313 65.9219,23.3008" /><path
         id="path74"
         style="fill:none;stroke:#ffffff;stroke-width:1.89999998;stroke-linecap:butt;stroke-linejoin:miter;stroke-miterlimit:4;stroke-dasharray:none;stroke-opacity:1"
         d="m 65.9219,23.3008 0,45.664 L 38.4023,47.0313 65.9219,23.3008 Z" /></g></g></svg>