<?xml version="1.0" encoding="UTF-8" standalone="no"?>
<svg
   xmlns:dc="http://purl.org/dc/elements/1.1/"
   xmlns:cc="http://creativecommons.org/ns#"
   xmlns:rdf="http://www.w3.org/1999/02/22-rdf-syntax-ns#"
   xmlns:svg="http://www.w3.org/2000/svg"
   xmlns="http://www.w3.org/2000/svg"
   viewBox="0 0 40 53.75"
   height="53.75"
   width="40"
   xml:space="preserve"
   version="1.1"
   id="svg2"><metadata
     id="metadata8"><rdf:RDF><cc:Work
         rdf:about=""><dc:format>image/svg+xml</dc:format><dc:type
           rdf:resource="http://purl.org/dc/dcmitype/StillImage" /></cc:Work></rdf:RDF></metadata><defs
     id="defs6" /><g
     transform="matrix(1.25,0,0,-1.25,0,53.75)"
     id="g10"><g
       transform="scale(0.1,0.1)"
       id="g12"><path
         id="path14"
         style="fill:#087bbb;fill-opacity:1;fill-rule:nonzero;stroke:none"
         d="m 306.289,251.789 -51.328,-48.75 -248.98053,0 64.48833,48.75 235.8202,0" /><path
         id="path16"
         style="fill:none;stroke:#ffffff;stroke-width:4;stroke-linecap:butt;stroke-linejoin:miter;stroke-miterlimit:4;stroke-dasharray:none;stroke-opacity:1"
         d="m 306.289,251.789 -51.328,-48.75 -248.98053,0 64.48833,48.75 235.8202,0 z" /><path
         id="path18"
         style="fill:#78b3da;fill-opacity:1;fill-rule:nonzero;stroke:none"
         d="m 5.98047,14.7188 248.98,0 0,188.32 -248.98,0 0,-188.32 z" /><path
         id="path20"
         style="fill:none;stroke:#ffffff;stroke-width:4;stroke-linecap:butt;stroke-linejoin:miter;stroke-miterlimit:4;stroke-dasharray:none;stroke-opacity:1"
         d="m 5.98047,14.7188 248.98,0 0,188.32 -248.98,0 0,-188.32 z" /><path
         id="path22"
         style="fill:#328fc7;fill-opacity:1;fill-rule:nonzero;stroke:none"
         d="m 301.211,60.9688 0,188.2812 -47.731,-46.211 0,-188.3202 47.731,46.25" /><path
         id="path24"
         style="fill:none;stroke:#ffffff;stroke-width:4;stroke-linecap:butt;stroke-linejoin:miter;stroke-miterlimit:4;stroke-dasharray:none;stroke-opacity:1"
         d="m 301.211,60.9688 0,188.2772 -47.731,-46.207 0,-188.3202 47.731,46.25 z" /><path
         id="path26"
         style="fill:#087bbb;fill-opacity:1;fill-rule:nonzero;stroke:none"
         d="m 306.289,426.16 -51.328,-48.75 -248.98053,0 64.48833,48.75 235.8202,0" /><path
         id="path28"
         style="fill:none;stroke:#ffffff;stroke-width:4;stroke-linecap:butt;stroke-linejoin:miter;stroke-miterlimit:4;stroke-dasharray:none;stroke-opacity:1"
         d="m 306.289,426.156 -51.328,-48.75 -248.98053,0 64.48833,48.75 235.8202,0 z" /><path
         id="path30"
         style="fill:#087bbb;fill-opacity:1;fill-rule:nonzero;stroke:none"
         d="m 5.98047,201.281 248.98,0 0,176.129 -248.98,0 0,-176.129 z" /><path
         id="path32"
         style="fill:none;stroke:#ffffff;stroke-width:4;stroke-linecap:butt;stroke-linejoin:miter;stroke-miterlimit:4;stroke-dasharray:none;stroke-opacity:1"
         d="m 5.98047,201.277 248.98,0 0,176.129 -248.98,0 0,-176.129 z" /><path
         id="path34"
         style="fill:#087bbb;fill-opacity:1;fill-rule:nonzero;stroke:none"
         d="m 301.211,247.531 0,176.129 -47.731,-46.25 0,-176.129 47.731,46.25" /><path
         id="path36"
         style="fill:none;stroke:#ffffff;stroke-width:4;stroke-linecap:butt;stroke-linejoin:miter;stroke-miterlimit:4;stroke-dasharray:none;stroke-opacity:1"
         d="m 301.211,247.527 0,176.129 -47.731,-46.25 0,-176.129 47.731,46.25 z" /><path
         id="path38"
         style="fill:#ffffff;fill-opacity:1;fill-rule:nonzero;stroke:none"
         d="m 107.34,293.352 -37.3009,0 0,9.609 -14.0196,-14.18 14.0196,-14.179 0,9.609 37.3009,0 0,9.141" /><path
         id="path40"
         style="fill:#ffffff;fill-opacity:1;fill-rule:nonzero;stroke:none"
         d="m 128.398,263.148 0,-37.296 -9.609,0 14.18,-14.024 14.179,14.024 -9.609,0 0,37.296 -9.141,0" /><path
         id="path42"
         style="fill:#ffffff;fill-opacity:1;fill-rule:nonzero;stroke:none"
         d="m 128.398,313.352 0,37.257 -9.609,0 14.18,14.071 14.179,-14.071 -9.609,0 0,-37.257 -9.141,0" /><path
         id="path44"
         style="fill:#ffffff;fill-opacity:1;fill-rule:nonzero;stroke:none"
         d="m 158.59,284.211 37.269,0 0,-9.609 14.102,14.179 -14.102,14.18 0,-9.609 -37.269,0 0,-9.141" /><path
         id="path46"
         style="fill:none;stroke:#ffffff;stroke-width:3.47749996;stroke-linecap:butt;stroke-linejoin:miter;stroke-miterlimit:4;stroke-dasharray:none;stroke-opacity:1"
         d="m 192.93,228.938 c -6.989,-7.391 -39.141,12.929 -71.758,45.351 -32.6525,32.418 -53.4415,64.688 -46.4415,72.07 7.0312,7.418 39.1405,-12.89 71.7895,-45.351 32.621,-32.391 53.402,-64.692 46.41,-72.07 z" /><path
         id="path48"
         style="fill:none;stroke:#ffffff;stroke-width:3.47749996;stroke-linecap:butt;stroke-linejoin:miter;stroke-miterlimit:4;stroke-dasharray:none;stroke-opacity:1"
         d="m 191.09,346.906 c 7.39,-7 -12.93,-39.109 -45.352,-71.758 -32.457,-32.621 -64.7185,-53.402 -72.1091,-46.41 -7.3789,6.989 12.9297,39.141 45.3511,71.762 32.43,32.656 64.692,53.438 72.11,46.406 z" /><path
         id="path50"
         style="fill:#bfbebe;fill-opacity:1;fill-rule:nonzero;stroke:none"
         d="m 148.238,267.102 c 12.352,8.628 15.313,25.578 6.684,37.886 -8.594,12.301 -25.543,15.313 -37.891,6.684 -12.301,-8.594 -15.269,-25.594 -6.64,-37.852 8.589,-12.308 25.55,-15.308 37.847,-6.718" /><path
         id="path52"
         style="fill:none;stroke:#ffffff;stroke-width:14.25;stroke-linecap:butt;stroke-linejoin:miter;stroke-miterlimit:4;stroke-dasharray:none;stroke-opacity:1"
         d="m 122.109,139.09 -62.5777,0" /><path
         id="path54"
         style="fill:none;stroke:#ffffff;stroke-width:14.25;stroke-linecap:butt;stroke-linejoin:miter;stroke-miterlimit:4;stroke-dasharray:none;stroke-opacity:1"
         d="m 145.621,159.438 69.258,0" /><path
         id="path56"
         style="fill:#ffffff;fill-opacity:1;fill-rule:nonzero;stroke:none"
         d="m 198.551,183.109 0,-45.66 27.539,21.91 -27.539,23.75" /><path
         id="path58"
         style="fill:none;stroke:#ffffff;stroke-width:1.89999998;stroke-linecap:butt;stroke-linejoin:miter;stroke-miterlimit:4;stroke-dasharray:none;stroke-opacity:1"
         d="m 198.551,183.117 0,-45.668 27.539,21.918 -27.539,23.75 z" /><path
         id="path60"
         style="fill:#ffffff;fill-opacity:1;fill-rule:nonzero;stroke:none"
         d="m 65.9414,115.809 0,45.66 -27.543,-21.949 27.543,-23.711" /><path
         id="path62"
         style="fill:none;stroke:#ffffff;stroke-width:1.89999998;stroke-linecap:butt;stroke-linejoin:miter;stroke-miterlimit:4;stroke-dasharray:none;stroke-opacity:1"
         d="m 65.9414,115.809 0,45.668 -27.543,-21.957 27.543,-23.711 z" /><path
         id="path64"
         style="fill:none;stroke:#ffffff;stroke-width:14.25;stroke-linecap:butt;stroke-linejoin:miter;stroke-miterlimit:4;stroke-dasharray:none;stroke-opacity:1"
         d="m 122.109,56.5898 -62.5777,0" /><path
         id="path66"
         style="fill:none;stroke:#ffffff;stroke-width:14.25;stroke-linecap:butt;stroke-linejoin:miter;stroke-miterlimit:4;stroke-dasharray:none;stroke-opacity:1"
         d="m 145.621,76.9375 69.258,0" /><path
         id="path68"
         style="fill:#ffffff;fill-opacity:1;fill-rule:nonzero;stroke:none"
         d="m 198.551,100.609 0,-45.6598 27.539,21.9102 -27.539,23.7496" /><path
         id="path70"
         style="fill:none;stroke:#ffffff;stroke-width:1.89999998;stroke-linecap:butt;stroke-linejoin:miter;stroke-miterlimit:4;stroke-dasharray:none;stroke-opacity:1"
         d="m 198.551,100.617 0,-45.6678 27.539,21.918 -27.539,23.7498 z" /><path
         id="path72"
         style="fill:#ffffff;fill-opacity:1;fill-rule:nonzero;stroke:none"
         d="m 65.9414,33.3086 0,45.6602 -27.543,-21.9493 27.543,-23.7109" /><path
         id="path74"
         style="fill:none;stroke:#ffffff;stroke-width:1.89999998;stroke-linecap:butt;stroke-linejoin:miter;stroke-miterlimit:4;stroke-dasharray:none;stroke-opacity:1"
         d="m 65.9414,33.3086 0,45.668 -27.543,-21.9571 27.543,-23.7109 z" /></g></g></svg>