<?xml version="1.0" encoding="UTF-8" standalone="no"?>
<svg
   xmlns:dc="http://purl.org/dc/elements/1.1/"
   xmlns:cc="http://creativecommons.org/ns#"
   xmlns:rdf="http://www.w3.org/1999/02/22-rdf-syntax-ns#"
   xmlns:svg="http://www.w3.org/2000/svg"
   xmlns="http://www.w3.org/2000/svg"
   viewBox="0 0 57.5 36.25"
   height="36.25"
   width="57.5"
   xml:space="preserve"
   version="1.1"
   id="svg2"><metadata
     id="metadata8"><rdf:RDF><cc:Work
         rdf:about=""><dc:format>image/svg+xml</dc:format><dc:type
           rdf:resource="http://purl.org/dc/dcmitype/StillImage" /></cc:Work></rdf:RDF></metadata><defs
     id="defs6" /><g
     transform="matrix(1.25,0,0,-1.25,0,36.25)"
     id="g10"><g
       transform="scale(0.1,0.1)"
       id="g12"><path
         id="path14"
         style="fill:#087bbb;fill-opacity:1;fill-rule:nonzero;stroke:none"
         d="m 36.3281,233.109 328.3199,0 37.34,-34.328 0,-154.9997 -37.34,-31.7618 -329.9996,0 -32.66012,31.7618 0,154.9997 34.33982,34.328" /><path
         id="path16"
         style="fill:none;stroke:#ffffff;stroke-width:3.99993992;stroke-linecap:butt;stroke-linejoin:miter;stroke-miterlimit:4;stroke-dasharray:none;stroke-opacity:1"
         d="m 36.3281,233.113 328.3199,0 37.34,-34.34 0,-154.9996 -37.34,-31.7578 -329.9996,0 -32.66012,31.7578 0,154.9996 34.33982,34.34 z" /><path
         id="path18"
         style="fill:#087bbb;fill-opacity:1;fill-rule:nonzero;stroke:none"
         d="m 36.3281,233.621 328.3199,0 56.68,50.469 -328.3592,0 -56.6407,-50.469" /><path
         id="path20"
         style="fill:none;stroke:#ffffff;stroke-width:3.99993992;stroke-linecap:butt;stroke-linejoin:miter;stroke-miterlimit:4;stroke-dasharray:none;stroke-opacity:1"
         d="m 36.3281,233.613 328.3199,0 56.68,50.473 -328.3592,0 -56.6407,-50.473 z" /><path
         id="path22"
         style="fill:#087bbb;fill-opacity:1;fill-rule:nonzero;stroke:none"
         d="m 362.969,233.109 37.34,-34.328 56.679,50.457 -37.34,34.383 -56.679,-50.512" /><path
         id="path24"
         style="fill:none;stroke:#ffffff;stroke-width:3.99993992;stroke-linecap:butt;stroke-linejoin:miter;stroke-miterlimit:4;stroke-dasharray:none;stroke-opacity:1"
         d="m 362.969,233.113 37.34,-34.34 56.679,50.473 -37.34,34.367 -56.679,-50.5 z" /><path
         id="path26"
         style="fill:#ffffff;fill-opacity:1;fill-rule:nonzero;stroke:none"
         d="m 15.7813,103.852 374.02,0 0,38.3984 -374.02,0 0,-38.3984 z" /><path
         id="path28"
         style="fill:none;stroke:#ffffff;stroke-width:12;stroke-linecap:round;stroke-linejoin:miter;stroke-miterlimit:1;stroke-dasharray:none;stroke-opacity:1"
         d="m 239.691,123.227 c -53.48,0 -95.043,39.5 -95.043,90.32" /><path
         id="path30"
         style="fill:none;stroke:#ffffff;stroke-width:12;stroke-linecap:round;stroke-linejoin:miter;stroke-miterlimit:1;stroke-dasharray:none;stroke-opacity:1"
         d="m 239.691,129.125 c -53.48,0 -95.043,33.602 -95.043,84.422" /><path
         id="path32"
         style="fill:none;stroke:#ffffff;stroke-width:12;stroke-linecap:round;stroke-linejoin:miter;stroke-miterlimit:1;stroke-dasharray:none;stroke-opacity:1"
         d="m 25.7813,129.125 c 53.4804,0 95.0777,33.602 95.0777,84.422" /><path
         id="path34"
         style="fill:none;stroke:#ffffff;stroke-width:12;stroke-linecap:round;stroke-linejoin:miter;stroke-miterlimit:1;stroke-dasharray:none;stroke-opacity:1"
         d="m 382.301,129.125 c -53.473,0 -95.071,33.602 -95.071,84.422" /><path
         id="path36"
         style="fill:none;stroke:#ffffff;stroke-width:12;stroke-linecap:round;stroke-linejoin:miter;stroke-miterlimit:1;stroke-dasharray:none;stroke-opacity:1"
         d="m 168.398,129.125 c 53.481,0 95.082,33.602 95.082,84.422" /><path
         id="path38"
         style="fill:none;stroke:#ffffff;stroke-width:12;stroke-linecap:round;stroke-linejoin:miter;stroke-miterlimit:1;stroke-dasharray:none;stroke-opacity:1"
         d="m 239.691,116.746 c -53.48,0 -95.043,-33.0507 -95.043,-83.8319" /><path
         id="path40"
         style="fill:none;stroke:#ffffff;stroke-width:12;stroke-linecap:round;stroke-linejoin:miter;stroke-miterlimit:1;stroke-dasharray:none;stroke-opacity:1"
         d="m 25.7813,116.746 c 53.4804,0 95.0777,-33.0507 95.0777,-83.8319" /><path
         id="path42"
         style="fill:none;stroke:#ffffff;stroke-width:12;stroke-linecap:round;stroke-linejoin:miter;stroke-miterlimit:1;stroke-dasharray:none;stroke-opacity:1"
         d="m 382.301,116.746 c -53.473,0 -95.071,-33.0507 -95.071,-83.8319" /><path
         id="path44"
         style="fill:none;stroke:#ffffff;stroke-width:12;stroke-linecap:round;stroke-linejoin:miter;stroke-miterlimit:1;stroke-dasharray:none;stroke-opacity:1"
         d="m 168.398,116.746 c 53.481,0 95.082,-33.0507 95.082,-83.8319" /><path
         id="path46"
         style="fill:#087bbb;fill-opacity:1;fill-rule:nonzero;stroke:none"
         d="m 400.352,198.781 0,-154.9997 56.636,50.457 0,154.9997 -56.636,-50.457" /><path
         id="path48"
         style="fill:none;stroke:#ffffff;stroke-width:3.99993992;stroke-linecap:butt;stroke-linejoin:miter;stroke-miterlimit:4;stroke-dasharray:none;stroke-opacity:1"
         d="m 400.352,198.773 0,-154.9996 56.636,50.4727 0,154.9999 -56.636,-50.473 z" /></g></g></svg>