<?xml version="1.0" encoding="UTF-8" standalone="no"?>
<svg
   xmlns:dc="http://purl.org/dc/elements/1.1/"
   xmlns:cc="http://creativecommons.org/ns#"
   xmlns:rdf="http://www.w3.org/1999/02/22-rdf-syntax-ns#"
   xmlns:svg="http://www.w3.org/2000/svg"
   xmlns="http://www.w3.org/2000/svg"
   viewBox="0 0 57.5 34.537498"
   height="34.537498"
   width="57.5"
   xml:space="preserve"
   version="1.1"
   id="svg2"><metadata
     id="metadata8"><rdf:RDF><cc:Work
         rdf:about=""><dc:format>image/svg+xml</dc:format><dc:type
           rdf:resource="http://purl.org/dc/dcmitype/StillImage" /></cc:Work></rdf:RDF></metadata><defs
     id="defs6" /><g
     transform="matrix(1.25,0,0,-1.25,0,34.5375)"
     id="g10"><g
       transform="scale(0.1,0.1)"
       id="g12"><path
         id="path14"
         style="fill:#087bbb;fill-opacity:1;fill-rule:nonzero;stroke:none"
         d="m 36.3203,223.133 328.3357,0 37.348,-34.363 0,-155.0005 -37.348,-31.76559 -329.9997,0 L 2,33.7695 2,188.77 36.3203,223.133" /><path
         id="path16"
         style="fill:none;stroke:#ffffff;stroke-width:3.99993992;stroke-linecap:butt;stroke-linejoin:miter;stroke-miterlimit:4;stroke-dasharray:none;stroke-opacity:1"
         d="m 36.3203,223.133 328.3357,0 37.348,-34.363 0,-155.0005 -37.348,-31.76559 -329.9997,0 L 2,33.7695 2,188.77 36.3203,223.133 Z" /><path
         id="path18"
         style="fill:#087bbb;fill-opacity:1;fill-rule:nonzero;stroke:none"
         d="m 36.3203,223.621 328.3357,0 56.66,50.488 -328.3394,0 -56.6563,-50.488" /><path
         id="path20"
         style="fill:none;stroke:#ffffff;stroke-width:3.99993992;stroke-linecap:butt;stroke-linejoin:miter;stroke-miterlimit:4;stroke-dasharray:none;stroke-opacity:1"
         d="m 36.3203,223.621 328.3357,0 56.66,50.488 -328.3394,0 -56.6563,-50.488 z" /><path
         id="path22"
         style="fill:#087bbb;fill-opacity:1;fill-rule:nonzero;stroke:none"
         d="m 362.988,223.133 37.344,-34.363 56.66,50.488 -37.344,34.363 -56.66,-50.488" /><path
         id="path24"
         style="fill:none;stroke:#ffffff;stroke-width:3.99993992;stroke-linecap:butt;stroke-linejoin:miter;stroke-miterlimit:4;stroke-dasharray:none;stroke-opacity:1"
         d="m 362.988,223.133 37.344,-34.363 56.66,50.488 -37.344,34.363 -56.66,-50.488 z" /><path
         id="path26"
         style="fill:#ffffff;fill-opacity:1;fill-rule:nonzero;stroke:none"
         d="m 15.7813,93.8672 374.016,0 0,38.3906 -374.016,0 0,-38.3906 z" /><path
         id="path28"
         style="fill:none;stroke:#ffffff;stroke-width:12;stroke-linecap:round;stroke-linejoin:miter;stroke-miterlimit:1;stroke-dasharray:none;stroke-opacity:1"
         d="m 239.695,113.23 c -53.484,0 -95.066,39.512 -95.066,90.313" /><path
         id="path30"
         style="fill:none;stroke:#ffffff;stroke-width:12;stroke-linecap:round;stroke-linejoin:miter;stroke-miterlimit:1;stroke-dasharray:none;stroke-opacity:1"
         d="m 239.695,119.141 c -53.484,0 -95.066,33.601 -95.066,84.402" /><path
         id="path32"
         style="fill:none;stroke:#ffffff;stroke-width:12;stroke-linecap:round;stroke-linejoin:miter;stroke-miterlimit:1;stroke-dasharray:none;stroke-opacity:1"
         d="m 25.7813,119.141 c 53.4765,0 95.0777,33.601 95.0777,84.402" /><path
         id="path34"
         style="fill:none;stroke:#ffffff;stroke-width:12;stroke-linecap:round;stroke-linejoin:miter;stroke-miterlimit:1;stroke-dasharray:none;stroke-opacity:1"
         d="m 382.297,119.141 c -53.481,0 -95.063,33.601 -95.063,84.402" /><path
         id="path36"
         style="fill:none;stroke:#ffffff;stroke-width:12;stroke-linecap:round;stroke-linejoin:miter;stroke-miterlimit:1;stroke-dasharray:none;stroke-opacity:1"
         d="m 168.391,119.141 c 53.472,0 95.078,33.601 95.078,84.402" /><path
         id="path38"
         style="fill:none;stroke:#ffffff;stroke-width:12;stroke-linecap:round;stroke-linejoin:miter;stroke-miterlimit:1;stroke-dasharray:none;stroke-opacity:1"
         d="m 239.695,106.758 c -53.484,0 -95.066,-33.0392 -95.066,-83.8361" /><path
         id="path40"
         style="fill:none;stroke:#ffffff;stroke-width:12;stroke-linecap:round;stroke-linejoin:miter;stroke-miterlimit:1;stroke-dasharray:none;stroke-opacity:1"
         d="m 25.7813,106.758 c 53.4765,0 95.0777,-33.0392 95.0777,-83.8361" /><path
         id="path42"
         style="fill:none;stroke:#ffffff;stroke-width:12;stroke-linecap:round;stroke-linejoin:miter;stroke-miterlimit:1;stroke-dasharray:none;stroke-opacity:1"
         d="m 382.297,106.758 c -53.481,0 -95.063,-33.0392 -95.063,-83.8361" /><path
         id="path44"
         style="fill:none;stroke:#ffffff;stroke-width:12;stroke-linecap:round;stroke-linejoin:miter;stroke-miterlimit:1;stroke-dasharray:none;stroke-opacity:1"
         d="m 168.391,106.758 c 53.472,0 95.078,-33.0392 95.078,-83.8361" /><path
         id="path46"
         style="fill:#087bbb;fill-opacity:1;fill-rule:nonzero;stroke:none"
         d="m 400.344,188.77 0,-155.0005 56.66,50.4883 0,155.0002 -56.66,-50.488" /><path
         id="path48"
         style="fill:none;stroke:#ffffff;stroke-width:3.99993992;stroke-linecap:butt;stroke-linejoin:miter;stroke-miterlimit:4;stroke-dasharray:none;stroke-opacity:1"
         d="m 400.344,188.77 0,-155.0005 56.66,50.4883 0,155.0002 -56.66,-50.488 z" /></g></g></svg>