<svg xmlns="http://www.w3.org/2000/svg" viewBox="0 0 57.5 36.25" height="36.25" width="57.5"><path d="M4.541 7.111h41.04l4.668 4.291v19.375l-4.668 3.97H4.331L.25 30.778V11.402l4.292-4.29" fill="#087bbb"/><path d="M4.541 7.11h41.04l4.668 4.293v19.375l-4.668 3.97H4.331L.25 30.778V11.403L4.54 7.111z" fill="none" stroke="#fff" stroke-width=".5"/><path d="M4.541 7.047h41.04L52.666.74H11.621l-7.08 6.308" fill="#087bbb"/><path d="M4.541 7.048h41.04L52.666.74H11.621l-7.08 6.31z" fill="none" stroke="#fff" stroke-width=".5"/><path d="M45.371 7.111l4.668 4.291 7.084-6.307L52.456.797l-7.085 6.314" fill="#087bbb"/><path d="M45.371 7.11l4.668 4.293 7.084-6.309L52.456.798l-7.085 6.313z" fill="none" stroke="#fff" stroke-width=".5"/><path d="M1.973 23.268h46.752v-4.8H1.973v4.8z" fill="#fff"/><path d="M29.961 20.847c-6.685 0-11.88-4.938-11.88-11.29M29.961 20.11c-6.685 0-11.88-4.2-11.88-10.553M3.223 20.11c6.685 0 11.884-4.2 11.884-10.553M47.788 20.11c-6.684 0-11.884-4.2-11.884-10.553M21.05 20.11c6.685 0 11.885-4.2 11.885-10.553M29.961 21.657c-6.685 0-11.88 4.131-11.88 10.479M3.223 21.657c6.685 0 11.884 4.131 11.884 10.479M47.788 21.657c-6.684 0-11.884 4.131-11.884 10.479M21.05 21.657c6.685 0 11.885 4.131 11.885 10.479" fill="none" stroke="#fff" stroke-width="1.5" stroke-linecap="round" stroke-miterlimit="1"/><path d="M50.044 11.402v19.375l7.08-6.307V5.095l-7.08 6.307" fill="#087bbb"/><path d="M50.044 11.403v19.375l7.08-6.309V5.094l-7.08 6.31z" fill="none" stroke="#fff" stroke-width=".5"/></svg>