<?xml version="1.0" encoding="UTF-8" standalone="no"?>
<svg
   xmlns:dc="http://purl.org/dc/elements/1.1/"
   xmlns:cc="http://creativecommons.org/ns#"
   xmlns:rdf="http://www.w3.org/1999/02/22-rdf-syntax-ns#"
   xmlns:svg="http://www.w3.org/2000/svg"
   xmlns="http://www.w3.org/2000/svg"
   viewBox="0 0 63.512501 35.362499"
   height="35.362499"
   width="63.512501"
   xml:space="preserve"
   version="1.1"
   id="svg2"><metadata
     id="metadata8"><rdf:RDF><cc:Work
         rdf:about=""><dc:format>image/svg+xml</dc:format><dc:type
           rdf:resource="http://purl.org/dc/dcmitype/StillImage" /></cc:Work></rdf:RDF></metadata><defs
     id="defs6"><clipPath
       id="clipPath18"
       clipPathUnits="userSpaceOnUse"><path
         id="path20"
         d="M 0,2 0,283 508,283 508,2 0,2 Z" /></clipPath></defs><g
     transform="matrix(1.25,0,0,-1.25,0,35.3625)"
     id="g10"><g
       transform="scale(0.1,0.1)"
       id="g12"><g
         id="g14"><g
           clip-path="url(#clipPath18)"
           id="g16"><path
             id="path22"
             style="fill:none;stroke:#026c9b;stroke-width:8;stroke-linecap:round;stroke-linejoin:round;stroke-miterlimit:4;stroke-dasharray:none;stroke-opacity:1"
             d="M 424.273,4 147.516,4 224.879,50.668 504.117,51.0469 424.273,4 Z" /><path
             id="path24"
             style="fill:none;stroke:#026c9b;stroke-width:8;stroke-linecap:round;stroke-linejoin:round;stroke-miterlimit:4;stroke-dasharray:none;stroke-opacity:1"
             d="M 224.879,50.668 147.516,4 l -0.039,229.297 77.421,44.879 -0.019,-227.508 z" /><path
             id="path26"
             style="fill:#000000;fill-opacity:1;fill-rule:nonzero;stroke:none"
             d="m 456.637,167.652 c 0,-28.636 -59.688,-51.855 -133.301,-51.855 -73.633,0 -133.34,23.219 -133.34,51.855 l 0,-75.9489 c 0,-28.6367 59.707,-51.8437 133.34,-51.8437 73.613,0 133.301,23.207 133.301,51.8437 l 0,75.9489" /><path
             id="path28"
             style="fill:none;stroke:#ffffff;stroke-width:4.19999981;stroke-linecap:butt;stroke-linejoin:miter;stroke-miterlimit:4;stroke-dasharray:none;stroke-opacity:1"
             d="m 456.637,167.652 c 0,-28.636 -59.688,-51.855 -133.301,-51.855 -73.633,0 -133.34,23.219 -133.34,51.855 l 0,-75.9489 c 0,-28.6367 59.707,-51.8437 133.34,-51.8437 73.613,0 133.301,23.207 133.301,51.8437 l 0,75.9489 z" /><path
             id="path30"
             style="fill:#026c9b;fill-opacity:1;fill-rule:nonzero;stroke:none"
             d="m 456.637,167.652 c 0,-28.636 -59.688,-51.855 -133.301,-51.855 -73.633,0 -133.34,23.219 -133.34,51.855 l 0,-75.9489 c 0,-28.6367 59.707,-51.8437 133.34,-51.8437 73.613,0 133.301,23.207 133.301,51.8437 l 0,75.9489" /><path
             id="path32"
             style="fill:none;stroke:#ffffff;stroke-width:4;stroke-linecap:butt;stroke-linejoin:miter;stroke-miterlimit:4;stroke-dasharray:none;stroke-opacity:1"
             d="m 456.637,167.652 c 0,-28.636 -59.688,-51.855 -133.301,-51.855 -73.633,0 -133.34,23.219 -133.34,51.855 l 0,-75.9489 c 0,-28.6367 59.707,-51.8437 133.34,-51.8437 73.613,0 133.301,23.207 133.301,51.8437 l 0,75.9489 z" /><path
             id="path34"
             style="fill:#026c9b;fill-opacity:1;fill-rule:nonzero;stroke:none"
             d="m 323.336,115.797 c 73.613,0 133.301,23.219 133.301,51.855 0,28.633 -59.688,51.84 -133.301,51.84 -73.633,0 -133.34,-23.207 -133.34,-51.84 0,-28.636 59.707,-51.855 133.34,-51.855" /><path
             id="path36"
             style="fill:none;stroke:#ffffff;stroke-width:4;stroke-linecap:butt;stroke-linejoin:miter;stroke-miterlimit:4;stroke-dasharray:none;stroke-opacity:1"
             d="m 323.336,115.797 c 73.613,0 133.301,23.219 133.301,51.855 0,28.633 -59.688,51.84 -133.301,51.84 -73.633,0 -133.34,-23.207 -133.34,-51.84 0,-28.636 59.707,-51.855 133.34,-51.855 z" /><path
             id="path38"
             style="fill:#ffffff;fill-opacity:1;fill-rule:nonzero;stroke:none"
             d="m 294.137,188.414 11.172,-16.75 -42.207,-9.762 9.218,7.692 -65.254,11.148 16.368,12.27 62.949,-10.657 7.754,6.059" /><path
             id="path40"
             style="fill:#ffffff;fill-opacity:1;fill-rule:nonzero;stroke:none"
             d="m 353.531,147.805 -7.617,17.261 38.086,7.622 -6.602,-5.93 63.457,-10.828 -15.234,-12.18 -63.066,11.836 -9.024,-7.781" /><path
             id="path42"
             style="fill:#ffffff;fill-opacity:1;fill-rule:nonzero;stroke:none"
             d="m 332.73,197.555 42.637,11.675 0.508,-18.281 -10.664,2.035 -20.82,-17.261 -19.864,2.894 21.485,16.895 -13.282,2.043" /><path
             id="path44"
             style="fill:#ffffff;fill-opacity:1;fill-rule:nonzero;stroke:none"
             d="m 314.449,132.066 -40.625,-7.617 -1.504,18.781 11.66,-2.539 22.364,19.098 19.765,-3.348 -23.847,-20.828 12.187,-3.547" /><path
             id="path46"
             style="fill:none;stroke:#026c9b;stroke-width:8;stroke-linecap:round;stroke-linejoin:round;stroke-miterlimit:4;stroke-dasharray:none;stroke-opacity:1"
             d="m 424.273,4 -276.757,0 -0.039,229.297 276.757,0 L 424.273,4 Z" /><path
             id="path48"
             style="fill:none;stroke:#026c9b;stroke-width:8;stroke-linecap:round;stroke-linejoin:round;stroke-miterlimit:4;stroke-dasharray:none;stroke-opacity:1"
             d="M 504.117,51.0469 424.273,4 l -0.039,229.297 79.786,45.625 0.097,-227.8751 z" /><path
             id="path50"
             style="fill:none;stroke:#026c9b;stroke-width:8;stroke-linecap:round;stroke-linejoin:round;stroke-miterlimit:4;stroke-dasharray:none;stroke-opacity:1"
             d="m 424.234,233.297 -276.757,0 77.421,44.879 279.122,0.746 -79.786,-45.625 z" /><path
             id="path52"
             style="fill:none;stroke:#026c9b;stroke-width:8;stroke-linecap:round;stroke-linejoin:round;stroke-miterlimit:4;stroke-dasharray:none;stroke-opacity:1"
             d="m 4,132.773 130,0" /><path
             id="path54"
             style="fill:none;stroke:#026c9b;stroke-width:8;stroke-linecap:round;stroke-linejoin:round;stroke-miterlimit:4;stroke-dasharray:none;stroke-opacity:1"
             d="m 45.6602,94.6953 86.6798,0" /><path
             id="path56"
             style="fill:none;stroke:#026c9b;stroke-width:8;stroke-linecap:round;stroke-linejoin:round;stroke-miterlimit:4;stroke-dasharray:none;stroke-opacity:1"
             d="m 134,185.824 -71.6797,0" /><path
             id="path58"
             style="fill:none;stroke:#026c9b;stroke-width:8;stroke-linecap:round;stroke-linejoin:round;stroke-miterlimit:4;stroke-dasharray:none;stroke-opacity:1"
             d="m 29,151.797 103.34,0" /></g></g></g></g></svg>