<?xml version="1.0" encoding="UTF-8" standalone="no"?>
<svg
   xmlns:dc="http://purl.org/dc/elements/1.1/"
   xmlns:cc="http://creativecommons.org/ns#"
   xmlns:rdf="http://www.w3.org/1999/02/22-rdf-syntax-ns#"
   xmlns:svg="http://www.w3.org/2000/svg"
   xmlns="http://www.w3.org/2000/svg"
   viewBox="0 0 63.75 37.5"
   height="37.5"
   width="63.75"
   xml:space="preserve"
   version="1.1"
   id="svg2"><metadata
     id="metadata8"><rdf:RDF><cc:Work
         rdf:about=""><dc:format>image/svg+xml</dc:format><dc:type
           rdf:resource="http://purl.org/dc/dcmitype/StillImage" /></cc:Work></rdf:RDF></metadata><defs
     id="defs6"><clipPath
       id="clipPath18"
       clipPathUnits="userSpaceOnUse"><path
         id="path20"
         d="M 0,9 0,291 509,291 509,9 0,9 Z" /></clipPath></defs><g
     transform="matrix(1.25,0,0,-1.25,0,37.5)"
     id="g10"><g
       transform="scale(0.1,0.1)"
       id="g12"><g
         id="g14"><g
           clip-path="url(#clipPath18)"
           id="g16"><path
             id="path22"
             style="fill:none;stroke:#026c9b;stroke-width:8;stroke-linecap:round;stroke-linejoin:round;stroke-miterlimit:4;stroke-dasharray:none;stroke-opacity:1"
             d="m 424.262,12.0117 -276.762,0 77.379,46.6406 279.223,0.3907 -79.84,-47.0313 z" /><path
             id="path24"
             style="fill:none;stroke:#026c9b;stroke-width:8;stroke-linecap:round;stroke-linejoin:round;stroke-miterlimit:4;stroke-dasharray:none;stroke-opacity:1"
             d="M 224.879,58.6523 147.5,12.0117 l -0.039,229.3013 77.418,44.878 0,-227.5387 z" /><path
             id="path26"
             style="fill:#000000;fill-opacity:1;fill-rule:nonzero;stroke:none"
             d="m 456.641,175.652 c 0,-28.64 -59.692,-51.839 -133.321,-51.839 -73.629,0 -133.32,23.199 -133.32,51.839 l 0,-75.9411 c 0,-28.6289 59.691,-51.8398 133.32,-51.8398 73.629,0 133.321,23.2109 133.321,51.8398 l 0,75.9411" /><path
             id="path28"
             style="fill:none;stroke:#ffffff;stroke-width:4.19999981;stroke-linecap:butt;stroke-linejoin:miter;stroke-miterlimit:4;stroke-dasharray:none;stroke-opacity:1"
             d="m 456.641,175.652 c 0,-28.64 -59.692,-51.839 -133.321,-51.839 -73.629,0 -133.32,23.199 -133.32,51.839 l 0,-75.9411 c 0,-28.6289 59.691,-51.8398 133.32,-51.8398 73.629,0 133.321,23.2109 133.321,51.8398 l 0,75.9411 z" /><path
             id="path30"
             style="fill:#026c9b;fill-opacity:1;fill-rule:nonzero;stroke:none"
             d="m 456.641,175.652 c 0,-28.64 -59.692,-51.839 -133.321,-51.839 -73.629,0 -133.32,23.199 -133.32,51.839 l 0,-75.9411 c 0,-28.6289 59.691,-51.8398 133.32,-51.8398 73.629,0 133.321,23.2109 133.321,51.8398 l 0,75.9411" /><path
             id="path32"
             style="fill:none;stroke:#ffffff;stroke-width:4;stroke-linecap:butt;stroke-linejoin:miter;stroke-miterlimit:4;stroke-dasharray:none;stroke-opacity:1"
             d="m 456.641,175.652 c 0,-28.64 -59.692,-51.839 -133.321,-51.839 -73.629,0 -133.32,23.199 -133.32,51.839 l 0,-75.9411 c 0,-28.6289 59.691,-51.8398 133.32,-51.8398 73.629,0 133.321,23.2109 133.321,51.8398 l 0,75.9411 z" /><path
             id="path34"
             style="fill:#026c9b;fill-opacity:1;fill-rule:nonzero;stroke:none"
             d="m 323.32,123.813 c 73.629,0 133.321,23.199 133.321,51.839 0,28.629 -59.692,51.828 -133.321,51.828 -73.629,0 -133.32,-23.199 -133.32,-51.828 0,-28.64 59.691,-51.839 133.32,-51.839" /><path
             id="path36"
             style="fill:none;stroke:#ffffff;stroke-width:4;stroke-linecap:butt;stroke-linejoin:miter;stroke-miterlimit:4;stroke-dasharray:none;stroke-opacity:1"
             d="m 323.32,123.813 c 73.629,0 133.321,23.199 133.321,51.839 0,28.629 -59.692,51.828 -133.321,51.828 -73.629,0 -133.32,-23.199 -133.32,-51.828 0,-28.64 59.691,-51.839 133.32,-51.839 z" /><path
             id="path38"
             style="fill:#ffffff;fill-opacity:1;fill-rule:nonzero;stroke:none"
             d="m 294.141,196.434 11.168,-16.762 -42.219,-9.77 9.211,7.7 -65.231,11.128 16.371,12.274 62.93,-10.672 7.77,6.102" /><path
             id="path40"
             style="fill:#ffffff;fill-opacity:1;fill-rule:nonzero;stroke:none"
             d="m 353.52,155.801 -7.622,17.269 38.082,7.621 -6.601,-5.937 63.48,-10.82 -15.238,-12.192 -63.082,11.84 -9.019,-7.781" /><path
             id="path42"
             style="fill:#ffffff;fill-opacity:1;fill-rule:nonzero;stroke:none"
             d="m 332.73,205.57 42.622,11.641 0.507,-18.277 -10.66,2.07 -20.82,-17.274 -19.848,2.891 21.489,16.883 -13.29,2.066" /><path
             id="path44"
             style="fill:#ffffff;fill-opacity:1;fill-rule:nonzero;stroke:none"
             d="m 314.449,140.063 -40.621,-7.622 -1.527,18.789 11.679,-2.539 22.348,19.11 19.762,-3.36 -23.82,-20.82 12.179,-3.558" /><path
             id="path46"
             style="fill:none;stroke:#026c9b;stroke-width:8;stroke-linecap:round;stroke-linejoin:round;stroke-miterlimit:4;stroke-dasharray:none;stroke-opacity:1"
             d="m 424.262,12.0117 -276.762,0 -0.039,229.3013 276.758,0 0.043,-229.3013 z" /><path
             id="path48"
             style="fill:none;stroke:#026c9b;stroke-width:8;stroke-linecap:round;stroke-linejoin:round;stroke-miterlimit:4;stroke-dasharray:none;stroke-opacity:1"
             d="m 504.102,59.043 -79.84,-47.0313 -0.043,229.3013 79.801,45.628 0.082,-227.898 z" /><path
             id="path50"
             style="fill:none;stroke:#026c9b;stroke-width:8;stroke-linecap:round;stroke-linejoin:round;stroke-miterlimit:4;stroke-dasharray:none;stroke-opacity:1"
             d="m 424.219,241.313 -276.758,0 77.418,44.878 279.141,0.75 -79.801,-45.628 z" /><path
             id="path52"
             style="fill:none;stroke:#026c9b;stroke-width:8;stroke-linecap:round;stroke-linejoin:round;stroke-miterlimit:4;stroke-dasharray:none;stroke-opacity:1"
             d="m 3.98047,140.762 129.99953,0" /><path
             id="path54"
             style="fill:none;stroke:#026c9b;stroke-width:8;stroke-linecap:round;stroke-linejoin:round;stroke-miterlimit:4;stroke-dasharray:none;stroke-opacity:1"
             d="m 45.6602,102.684 86.6798,0" /><path
             id="path56"
             style="fill:none;stroke:#026c9b;stroke-width:8;stroke-linecap:round;stroke-linejoin:round;stroke-miterlimit:4;stroke-dasharray:none;stroke-opacity:1"
             d="m 133.98,193.813 -71.6792,0" /><path
             id="path58"
             style="fill:none;stroke:#026c9b;stroke-width:8;stroke-linecap:round;stroke-linejoin:round;stroke-miterlimit:4;stroke-dasharray:none;stroke-opacity:1"
             d="m 28.9805,159.793 103.3595,0" /></g></g></g></g></svg>