<svg xmlns="http://www.w3.org/2000/svg" viewBox="0 0 63.75 37.5" height="37.5" width="63.75"><defs><clipPath id="a"><path d="M0 9v282h509V9H0z"/></clipPath></defs><g clip-path="url(#a)" transform="matrix(.13 0 0 -.13 0 37.5)"><path d="M424.262 12.012H147.5l77.379 46.64 279.223.391-79.84-47.031z" fill="none" stroke="#026c9b" stroke-width="8" stroke-linecap="round" stroke-linejoin="round"/><path d="M224.879 58.652L147.5 12.012l-.039 229.301 77.418 44.878V58.652z" fill="none" stroke="#026c9b" stroke-width="8" stroke-linecap="round" stroke-linejoin="round"/><path d="M456.641 175.652c0-28.64-59.692-51.839-133.321-51.839-73.629 0-133.32 23.199-133.32 51.839V99.711c0-28.629 59.691-51.84 133.32-51.84 73.629 0 133.321 23.211 133.321 51.84v75.941"/><path d="M456.641 175.652c0-28.64-59.692-51.839-133.321-51.839-73.629 0-133.32 23.199-133.32 51.839V99.711c0-28.629 59.691-51.84 133.32-51.84 73.629 0 133.321 23.211 133.321 51.84v75.941z" fill="none" stroke="#fff" stroke-width="4.2"/><path d="M456.641 175.652c0-28.64-59.692-51.839-133.321-51.839-73.629 0-133.32 23.199-133.32 51.839V99.711c0-28.629 59.691-51.84 133.32-51.84 73.629 0 133.321 23.211 133.321 51.84v75.941" fill="#026c9b"/><path d="M456.641 175.652c0-28.64-59.692-51.839-133.321-51.839-73.629 0-133.32 23.199-133.32 51.839V99.711c0-28.629 59.691-51.84 133.32-51.84 73.629 0 133.321 23.211 133.321 51.84v75.941z" fill="none" stroke="#fff" stroke-width="4"/><path d="M323.32 123.813c73.629 0 133.321 23.199 133.321 51.839 0 28.629-59.692 51.828-133.321 51.828-73.629 0-133.32-23.199-133.32-51.828 0-28.64 59.691-51.839 133.32-51.839" fill="#026c9b"/><path d="M323.32 123.813c73.629 0 133.321 23.199 133.321 51.839 0 28.629-59.692 51.828-133.321 51.828-73.629 0-133.32-23.199-133.32-51.828 0-28.64 59.691-51.839 133.32-51.839z" fill="none" stroke="#fff" stroke-width="4"/><path d="M294.141 196.434l11.168-16.762-42.219-9.77 9.211 7.7-65.231 11.128 16.371 12.274 62.93-10.672 7.77 6.102M353.52 155.801l-7.622 17.269 38.082 7.621-6.601-5.937 63.48-10.82-15.238-12.192-63.082 11.84-9.019-7.781M332.73 205.57l42.622 11.641.507-18.277-10.66 2.07-20.82-17.274-19.848 2.891 21.489 16.883-13.29 2.066M314.449 140.063l-40.621-7.622-1.527 18.789 11.679-2.539 22.348 19.11 19.762-3.36-23.82-20.82 12.179-3.558" fill="#fff"/><path d="M424.262 12.012H147.5l-.039 229.301h276.758l.043-229.301z" fill="none" stroke="#026c9b" stroke-width="8" stroke-linecap="round" stroke-linejoin="round"/><path d="M504.102 59.043l-79.84-47.031-.043 229.301 79.801 45.628.082-227.898z" fill="none" stroke="#026c9b" stroke-width="8" stroke-linecap="round" stroke-linejoin="round"/><path d="M424.219 241.313H147.461l77.418 44.878 279.141.75-79.801-45.628zM3.98 140.762h130M45.66 102.684h86.68M133.98 193.813H62.3M28.98 159.793h103.36" fill="none" stroke="#026c9b" stroke-width="8" stroke-linecap="round" stroke-linejoin="round"/></g></svg>