<svg xmlns="http://www.w3.org/2000/svg" viewBox="0 0 46.25 41.25" height="41.25" width="46.25"><defs><clipPath id="a"><path d="M0 9v319h370V9H0z"/></clipPath></defs><g clip-path="url(#a)" transform="matrix(.13 0 0 -.13 0 41.25)"><path d="M71.09 31.465h248.87v245.16H71.09V31.465z" fill="#087bbb"/><path d="M319.961 276.625H71.09V31.465H319.96" fill="none" stroke="#fff" stroke-width="4"/><path d="M319.961 31.465l49.141 49.14v245.161H53.981L4.84 276.625H319.96V31.465" fill="#087bbb"/><path d="M319.961 31.465l49.141 49.14v245.161H53.981L4.84 276.625H319.96V31.465z" fill="none" stroke="#fff" stroke-width="4"/><path d="M319.961 276.625l49.141 49.141" fill="#231f20"/><path d="M319.961 276.625l49.141 49.141M216.051 238.613h43.75M78.55 218.613h202.5v48.75H78.55v-48.75zM250.078 156.113h30v40h-30v-40z" fill="none" stroke="#fff" stroke-width="4"/><path d="M8.828 35.484h62.5v237.5h-62.5v-237.5zM20.078 261.113h40M20.078 248.613h40M20.078 236.113h40M20.078 223.613h40M20.078 211.113h40M20.078 198.613h40M20.078 186.113h40M20.078 173.613h40M20.078 161.113h40M20.078 148.613h40M20.078 136.113h40M20.078 123.613h40M20.078 111.113h40M20.078 98.613h40M20.078 86.113h40M20.078 73.613h40M20.078 61.113h40M20.078 48.613h40" fill="none" stroke="#231f20" stroke-width="4"/><path d="M50.078 31.113l-12.5-17.5h262.5l-7.5 17.5h-242.5" fill="#087bbb"/><path d="M50.078 31.113l-12.5-17.5h262.5l-7.5 17.5h-242.5z" fill="none" stroke="#fff" stroke-width="4"/><path d="M300.078 13.613l16.25 17.5h-23.75l7.5-17.5" fill="#087bbb"/><path d="M300.078 13.613l16.25 17.5h-23.75l7.5-17.5z" fill="none" stroke="#fff" stroke-width="4"/></g></svg>