<?xml version="1.0" encoding="UTF-8" standalone="no"?>
<svg
   xmlns:dc="http://purl.org/dc/elements/1.1/"
   xmlns:cc="http://creativecommons.org/ns#"
   xmlns:rdf="http://www.w3.org/1999/02/22-rdf-syntax-ns#"
   xmlns:svg="http://www.w3.org/2000/svg"
   xmlns="http://www.w3.org/2000/svg"
   viewBox="0 0 46.450001 46.474998"
   height="46.474998"
   width="46.450001"
   xml:space="preserve"
   version="1.1"
   id="svg2"><metadata
     id="metadata8"><rdf:RDF><cc:Work
         rdf:about=""><dc:format>image/svg+xml</dc:format><dc:type
           rdf:resource="http://purl.org/dc/dcmitype/StillImage" /></cc:Work></rdf:RDF></metadata><defs
     id="defs6"><clipPath
       id="clipPath18"
       clipPathUnits="userSpaceOnUse"><path
         id="path20"
         d="m 0,1.83984 370,0 0,370 -370,0 0,-370 z" /></clipPath></defs><g
     transform="matrix(1.25,0,0,-1.25,0,46.475)"
     id="g10"><g
       transform="scale(0.1,0.1)"
       id="g12"><g
         id="g14"><g
           clip-path="url(#clipPath18)"
           id="g16"><path
             id="path22"
             style="fill:#087bbb;fill-opacity:1;fill-rule:nonzero;stroke:none"
             d="m 369.855,298.324 c 0,-39.5 -82.343,-71.523 -183.925,-71.523 C 84.3477,226.801 2,258.824 2,298.324 L 2,73.5313 C 2,34.0234 84.3477,1.99219 185.93,1.99219 c 101.582,0 183.925,32.03121 183.925,71.53911 l 0,224.7927" /><path
             id="path24"
             style="fill:none;stroke:#ffffff;stroke-width:3.99993992;stroke-linecap:butt;stroke-linejoin:miter;stroke-miterlimit:4;stroke-dasharray:none;stroke-opacity:1"
             d="m 369.855,298.324 c 0,-39.5 -82.343,-71.523 -183.925,-71.523 C 84.3477,226.801 2,258.824 2,298.324 L 2,73.5313 C 2,34.0234 84.3477,1.99219 185.93,1.99219 c 101.582,0 183.925,32.03121 183.925,71.53911 l 0,224.7927 z" /><path
             id="path26"
             style="fill:#087bbb;fill-opacity:1;fill-rule:nonzero;stroke:none"
             d="m 185.93,226.801 c 101.582,0 183.925,32.023 183.925,71.523 0,39.512 -82.343,71.524 -183.925,71.524 C 84.3477,369.848 2,337.836 2,298.324 c 0,-39.5 82.3477,-71.523 183.93,-71.523" /><path
             id="path28"
             style="fill:none;stroke:#ffffff;stroke-width:3.99993992;stroke-linecap:butt;stroke-linejoin:miter;stroke-miterlimit:4;stroke-dasharray:none;stroke-opacity:1"
             d="m 185.93,226.801 c 101.582,0 183.925,32.023 183.925,71.523 0,39.512 -82.343,71.524 -183.925,71.524 C 84.3477,369.848 2,337.836 2,298.324 c 0,-39.5 82.3477,-71.523 183.93,-71.523 z" /><path
             id="path30"
             style="fill:#ffffff;fill-opacity:1;fill-rule:nonzero;stroke:none"
             d="m 143.926,326.293 15.183,-22.781 -57.421,-13.274 12.55,10.45 -88.7497,15.167 22.2656,16.688 85.6371,-14.5 10.535,8.25" /><path
             id="path32"
             style="fill:#ffffff;fill-opacity:1;fill-rule:nonzero;stroke:none"
             d="m 224.727,271.051 -10.364,23.476 51.797,10.36 -8.98,-8.055 86.328,-14.738 -20.715,-16.571 -85.813,16.114 -12.253,-10.586" /><path
             id="path34"
             style="fill:#ffffff;fill-opacity:1;fill-rule:nonzero;stroke:none"
             d="m 171.543,249.645 -55.242,-10.364 -2.071,25.547 15.875,-3.445 30.415,25.965 26.914,-4.559 -32.461,-28.312 16.57,-4.832" /><path
             id="path36"
             style="fill:none;stroke:#ffffff;stroke-width:5;stroke-linecap:butt;stroke-linejoin:miter;stroke-miterlimit:4;stroke-dasharray:none;stroke-opacity:1"
             d="m 340.93,234.73 0,-169.9995" /><path
             id="path38"
             style="fill:none;stroke:#ffffff;stroke-width:5;stroke-linecap:butt;stroke-linejoin:miter;stroke-miterlimit:4;stroke-dasharray:none;stroke-opacity:1"
             d="m 320.93,223.707 0,-170" /><path
             id="path40"
             style="fill:none;stroke:#ffffff;stroke-width:5;stroke-linecap:butt;stroke-linejoin:miter;stroke-miterlimit:4;stroke-dasharray:none;stroke-opacity:1"
             d="m 300.496,215.688 0,-170.0044" /><path
             id="path42"
             style="fill:none;stroke:#ffffff;stroke-width:5;stroke-linecap:butt;stroke-linejoin:miter;stroke-miterlimit:4;stroke-dasharray:none;stroke-opacity:1"
             d="m 276.875,209.105 0,-170.0034" /><path
             id="path44"
             style="fill:none;stroke:#ffffff;stroke-width:5;stroke-linecap:butt;stroke-linejoin:miter;stroke-miterlimit:4;stroke-dasharray:none;stroke-opacity:1"
             d="m 254.07,204.105 0,-170.0034" /><path
             id="path46"
             style="fill:none;stroke:#ffffff;stroke-width:5;stroke-linecap:butt;stroke-linejoin:miter;stroke-miterlimit:4;stroke-dasharray:none;stroke-opacity:1"
             d="m 231.477,201.09 0,-169.9962" /><path
             id="path48"
             style="fill:none;stroke:#ffffff;stroke-width:5;stroke-linecap:butt;stroke-linejoin:miter;stroke-miterlimit:4;stroke-dasharray:none;stroke-opacity:1"
             d="m 207.102,197.563 0,-170.0044" /><path
             id="path50"
             style="fill:none;stroke:#ffffff;stroke-width:5;stroke-linecap:butt;stroke-linejoin:miter;stroke-miterlimit:4;stroke-dasharray:none;stroke-opacity:1"
             d="m 24.6758,234.73 0,-169.9995" /><path
             id="path52"
             style="fill:none;stroke:#ffffff;stroke-width:5;stroke-linecap:butt;stroke-linejoin:miter;stroke-miterlimit:4;stroke-dasharray:none;stroke-opacity:1"
             d="m 44.6758,223.707 0,-170" /><path
             id="path54"
             style="fill:none;stroke:#ffffff;stroke-width:5;stroke-linecap:butt;stroke-linejoin:miter;stroke-miterlimit:4;stroke-dasharray:none;stroke-opacity:1"
             d="m 65.1172,215.688 0,-170.0044" /><path
             id="path56"
             style="fill:none;stroke:#ffffff;stroke-width:5;stroke-linecap:butt;stroke-linejoin:miter;stroke-miterlimit:4;stroke-dasharray:none;stroke-opacity:1"
             d="m 88.7383,209.105 0,-170.0034" /><path
             id="path58"
             style="fill:none;stroke:#ffffff;stroke-width:5;stroke-linecap:butt;stroke-linejoin:miter;stroke-miterlimit:4;stroke-dasharray:none;stroke-opacity:1"
             d="m 111.531,204.105 0,-170.0034" /><path
             id="path60"
             style="fill:none;stroke:#ffffff;stroke-width:5;stroke-linecap:butt;stroke-linejoin:miter;stroke-miterlimit:4;stroke-dasharray:none;stroke-opacity:1"
             d="m 134.141,201.09 0,-169.9962" /><path
             id="path62"
             style="fill:none;stroke:#ffffff;stroke-width:5;stroke-linecap:butt;stroke-linejoin:miter;stroke-miterlimit:4;stroke-dasharray:none;stroke-opacity:1"
             d="m 158.516,197.563 0,-170.0044" /><path
             id="path64"
             style="fill:none;stroke:#ffffff;stroke-width:5;stroke-linecap:butt;stroke-linejoin:miter;stroke-miterlimit:4;stroke-dasharray:none;stroke-opacity:1"
             d="m 182.727,196.938 0,-170.0044" /><path
             id="path66"
             style="fill:#ffffff;fill-opacity:1;fill-rule:nonzero;stroke:none"
             d="m 192.656,339.895 58.008,15.878 0.684,-24.863 -14.493,2.762 -28.32,-23.484 -27.012,3.933 29.219,22.981 -18.086,2.793" /></g></g></g></g></svg>