<?xml version="1.0" encoding="UTF-8" standalone="no"?>
<svg
   xmlns:dc="http://purl.org/dc/elements/1.1/"
   xmlns:cc="http://creativecommons.org/ns#"
   xmlns:rdf="http://www.w3.org/1999/02/22-rdf-syntax-ns#"
   xmlns:svg="http://www.w3.org/2000/svg"
   xmlns="http://www.w3.org/2000/svg"
   viewBox="0 0 46.25 46.25"
   height="46.25"
   width="46.25"
   xml:space="preserve"
   version="1.1"
   id="svg2"><metadata
     id="metadata8"><rdf:RDF><cc:Work
         rdf:about=""><dc:format>image/svg+xml</dc:format><dc:type
           rdf:resource="http://purl.org/dc/dcmitype/StillImage" /></cc:Work></rdf:RDF></metadata><defs
     id="defs6" /><g
     transform="matrix(1.25,0,0,-1.25,0,46.25)"
     id="g10"><g
       transform="scale(0.1,0.1)"
       id="g12"><path
         id="path14"
         style="fill:#087bbb;fill-opacity:1;fill-rule:nonzero;stroke:none"
         d="m 369.84,296.48 c 0,-39.492 -82.34,-71.519 -183.899,-71.519 -101.6012,0 -183.95272,32.027 -183.95272,71.519 l 0,-224.8003 C 1.98828,32.1914 84.3398,0.160156 185.941,0.160156 287.5,0.160156 369.84,32.1914 369.84,71.6797 l 0,224.8003" /><path
         id="path16"
         style="fill:none;stroke:#ffffff;stroke-width:3.99993992;stroke-linecap:butt;stroke-linejoin:miter;stroke-miterlimit:4;stroke-dasharray:none;stroke-opacity:1"
         d="m 369.84,296.48 c 0,-39.492 -82.34,-71.519 -183.899,-71.519 -101.6012,0 -183.95272,32.027 -183.95272,71.519 l 0,-224.8003 C 1.98828,32.1914 84.3398,0.160156 185.941,0.160156 287.5,0.160156 369.84,32.1914 369.84,71.6797 l 0,224.8003 z" /><path
         id="path18"
         style="fill:#087bbb;fill-opacity:1;fill-rule:nonzero;stroke:none"
         d="m 185.941,224.961 c 101.559,0 183.899,32.027 183.899,71.519 0,39.54 -82.34,71.532 -183.899,71.532 -101.6012,0 -183.95272,-31.992 -183.95272,-71.532 0,-39.492 82.35152,-71.519 183.95272,-71.519" /><path
         id="path20"
         style="fill:none;stroke:#ffffff;stroke-width:3.99993992;stroke-linecap:butt;stroke-linejoin:miter;stroke-miterlimit:4;stroke-dasharray:none;stroke-opacity:1"
         d="m 185.941,224.961 c 101.559,0 183.899,32.027 183.899,71.519 0,39.54 -82.34,71.532 -183.899,71.532 -101.6012,0 -183.95272,-31.992 -183.95272,-71.532 0,-39.492 82.35152,-71.519 183.95272,-71.519 z" /><path
         id="path22"
         style="fill:#ffffff;fill-opacity:1;fill-rule:nonzero;stroke:none"
         d="m 143.949,324.449 15.153,-22.769 -57.422,-13.282 12.539,10.473 -88.7502,15.149 22.2617,16.679 85.6675,-14.488 10.551,8.238" /><path
         id="path24"
         style="fill:#ffffff;fill-opacity:1;fill-rule:nonzero;stroke:none"
         d="m 224.73,269.219 -10.351,23.48 51.793,10.352 -8.981,-8.051 86.329,-14.73 -20.711,-16.598 -85.821,16.129 -12.258,-10.582" /><path
         id="path26"
         style="fill:#ffffff;fill-opacity:1;fill-rule:nonzero;stroke:none"
         d="m 171.559,247.809 -55.27,-10.387 -2.07,25.547 15.902,-3.438 30.391,25.981 26.91,-4.571 -32.461,-28.281 16.598,-4.851" /><path
         id="path28"
         style="fill:none;stroke:#ffffff;stroke-width:5;stroke-linecap:butt;stroke-linejoin:miter;stroke-miterlimit:4;stroke-dasharray:none;stroke-opacity:1"
         d="m 340.941,232.891 0,-170.0004" /><path
         id="path30"
         style="fill:none;stroke:#ffffff;stroke-width:5;stroke-linecap:butt;stroke-linejoin:miter;stroke-miterlimit:4;stroke-dasharray:none;stroke-opacity:1"
         d="m 320.941,221.879 0,-170.0001" /><path
         id="path32"
         style="fill:none;stroke:#ffffff;stroke-width:5;stroke-linecap:butt;stroke-linejoin:miter;stroke-miterlimit:4;stroke-dasharray:none;stroke-opacity:1"
         d="m 300.512,213.871 0,-170.0429" /><path
         id="path34"
         style="fill:none;stroke:#ffffff;stroke-width:5;stroke-linecap:butt;stroke-linejoin:miter;stroke-miterlimit:4;stroke-dasharray:none;stroke-opacity:1"
         d="m 276.879,207.27 0,-170.0005" /><path
         id="path36"
         style="fill:none;stroke:#ffffff;stroke-width:5;stroke-linecap:butt;stroke-linejoin:miter;stroke-miterlimit:4;stroke-dasharray:none;stroke-opacity:1"
         d="m 254.059,202.27 0,-170.0005" /><path
         id="path38"
         style="fill:none;stroke:#ffffff;stroke-width:5;stroke-linecap:butt;stroke-linejoin:miter;stroke-miterlimit:4;stroke-dasharray:none;stroke-opacity:1"
         d="m 231.48,199.262 0,-170.0003" /><path
         id="path40"
         style="fill:none;stroke:#ffffff;stroke-width:5;stroke-linecap:butt;stroke-linejoin:miter;stroke-miterlimit:4;stroke-dasharray:none;stroke-opacity:1"
         d="m 207.109,195.738 0,-170.0388" /><path
         id="path42"
         style="fill:none;stroke:#ffffff;stroke-width:5;stroke-linecap:butt;stroke-linejoin:miter;stroke-miterlimit:4;stroke-dasharray:none;stroke-opacity:1"
         d="m 24.6914,232.891 0,-170.0004" /><path
         id="path44"
         style="fill:none;stroke:#ffffff;stroke-width:5;stroke-linecap:butt;stroke-linejoin:miter;stroke-miterlimit:4;stroke-dasharray:none;stroke-opacity:1"
         d="m 44.6914,221.879 0,-170.0001" /><path
         id="path46"
         style="fill:none;stroke:#ffffff;stroke-width:5;stroke-linecap:butt;stroke-linejoin:miter;stroke-miterlimit:4;stroke-dasharray:none;stroke-opacity:1"
         d="m 65.1211,213.871 0,-170.0429" /><path
         id="path48"
         style="fill:none;stroke:#ffffff;stroke-width:5;stroke-linecap:butt;stroke-linejoin:miter;stroke-miterlimit:4;stroke-dasharray:none;stroke-opacity:1"
         d="m 88.75,207.27 0,-170.0005" /><path
         id="path50"
         style="fill:none;stroke:#ffffff;stroke-width:5;stroke-linecap:butt;stroke-linejoin:miter;stroke-miterlimit:4;stroke-dasharray:none;stroke-opacity:1"
         d="m 111.52,202.27 0,-170.0005" /><path
         id="path52"
         style="fill:none;stroke:#ffffff;stroke-width:5;stroke-linecap:butt;stroke-linejoin:miter;stroke-miterlimit:4;stroke-dasharray:none;stroke-opacity:1"
         d="m 134.141,199.262 0,-170.0003" /><path
         id="path54"
         style="fill:none;stroke:#ffffff;stroke-width:5;stroke-linecap:butt;stroke-linejoin:miter;stroke-miterlimit:4;stroke-dasharray:none;stroke-opacity:1"
         d="m 158.52,195.738 0,-170.0388" /><path
         id="path56"
         style="fill:none;stroke:#ffffff;stroke-width:5;stroke-linecap:butt;stroke-linejoin:miter;stroke-miterlimit:4;stroke-dasharray:none;stroke-opacity:1"
         d="m 182.73,195.121 0,-170.0429" /><path
         id="path58"
         style="fill:#ffffff;fill-opacity:1;fill-rule:nonzero;stroke:none"
         d="m 192.66,338.051 58,15.898 0.711,-24.89 -14.531,2.781 -28.32,-23.481 -27,3.911 29.218,23 -18.078,2.781" /></g></g></svg>