<?xml version="1.0" encoding="UTF-8" standalone="no"?>
<svg
   xmlns:dc="http://purl.org/dc/elements/1.1/"
   xmlns:cc="http://creativecommons.org/ns#"
   xmlns:rdf="http://www.w3.org/1999/02/22-rdf-syntax-ns#"
   xmlns:svg="http://www.w3.org/2000/svg"
   xmlns="http://www.w3.org/2000/svg"
   viewBox="0 0 46.099998 20.5375"
   height="20.5375"
   width="46.099998"
   xml:space="preserve"
   version="1.1"
   id="svg2"><metadata
     id="metadata8"><rdf:RDF><cc:Work
         rdf:about=""><dc:format>image/svg+xml</dc:format><dc:type
           rdf:resource="http://purl.org/dc/dcmitype/StillImage" /></cc:Work></rdf:RDF></metadata><defs
     id="defs6"><clipPath
       id="clipPath18"
       clipPathUnits="userSpaceOnUse"><path
         id="path20"
         d="M 0,4 0,164 369,164 369,4 0,4 Z" /></clipPath></defs><g
     transform="matrix(1.25,0,0,-1.25,0,20.5375)"
     id="g10"><g
       transform="scale(0.1,0.1)"
       id="g12"><g
         id="g14"><g
           clip-path="url(#clipPath18)"
           id="g16"><path
             id="path22"
             style="fill:#087bbb;fill-opacity:1;fill-rule:nonzero;stroke:none"
             d="m 6.07031,102.715 76.93359,56.863 281.0551,0 -55.938,-56.863 -302.05069,0" /><path
             id="path24"
             style="fill:none;stroke:#ffffff;stroke-width:3.99993992;stroke-linecap:butt;stroke-linejoin:miter;stroke-miterlimit:4;stroke-dasharray:none;stroke-opacity:1"
             d="m 6.07031,102.715 76.93359,56.863 281.0551,0 -55.938,-56.863 -302.05069,0 z" /><path
             id="path26"
             style="fill:#087bbb;fill-opacity:1;fill-rule:nonzero;stroke:none"
             d="m 308.121,4.87109 55.938,56.67191 0,97.859 -55.938,-56.687 0,-97.84391" /><path
             id="path28"
             style="fill:none;stroke:#ffffff;stroke-width:3.99993992;stroke-linecap:butt;stroke-linejoin:miter;stroke-miterlimit:4;stroke-dasharray:none;stroke-opacity:1"
             d="m 308.121,4.87109 55.938,56.67191 0,97.859 -55.938,-56.687 0,-97.84391 z" /><path
             id="path30"
             style="fill:#087bbb;fill-opacity:1;fill-rule:nonzero;stroke:none"
             d="m 6.5,4.77344 301.621,0 0,97.9414 -301.621,0 0,-97.9414 z" /><path
             id="path32"
             style="fill:none;stroke:#ffffff;stroke-width:3.99993992;stroke-linecap:butt;stroke-linejoin:miter;stroke-miterlimit:4;stroke-dasharray:none;stroke-opacity:1"
             d="m 6.5,4.77344 301.621,0 0,97.9414 -301.621,0 0,-97.9414 z" /><path
             id="path34"
             style="fill:none;stroke:#ffffff;stroke-width:4.49996996;stroke-linecap:round;stroke-linejoin:miter;stroke-miterlimit:1;stroke-dasharray:none;stroke-opacity:1"
             d="m 284.137,52.9961 c 0,0 -19.571,-50.31251 -43.106,0.1484 -23.496,50.4295 -43.105,0.1094 -43.105,0.1094 0,0 -19.551,-50.34374 -43.067,0.0938 -23.496,50.4413 -42.988,-0.3125 -42.988,-0.3125 0,0 -19.5233,-50.35161 -43.0468,0.1093 -23.5078,50.4295 -43.0078,0.1446 -43.0078,0.1446" /><path
             id="path36"
             style="fill:none;stroke:#ffffff;stroke-width:8.99993992;stroke-linecap:round;stroke-linejoin:miter;stroke-miterlimit:1;stroke-dasharray:none;stroke-opacity:1"
             d="m 25.8164,52.9961 c 0,0 19.5703,-50.31251 43.0938,0.1484 23.5078,50.4295 43.1168,0.1094 43.1168,0.1094 0,0 19.551,-50.34374 43.047,0.0938 23.516,50.4413 43.008,-0.3125 43.008,-0.3125 0,0 19.512,-50.35161 43.047,0.1093 23.496,50.4295 43.008,0.1446 43.008,0.1446" /><path
             id="path38"
             style="fill:none;stroke:#231f20;stroke-width:4.49996996;stroke-linecap:round;stroke-linejoin:miter;stroke-miterlimit:1;stroke-dasharray:none;stroke-opacity:1"
             d="m 288.668,52.9961 c 0,0 -19.57,-50.31251 -43.105,0.1484 -23.497,50.4295 -43.106,0.1094 -43.106,0.1094 0,0 -19.551,-50.35546 -43.066,0.0938 -23.496,50.4413 -42.989,-0.3125 -42.989,-0.3125 0,0 -19.5231,-50.35161 -43.0465,0.1093 -23.5078,50.4295 -43.0078,0.1368 -43.0078,0.1368" /><path
             id="path40"
             style="fill:none;stroke:#231f20;stroke-width:8.99993992;stroke-linecap:round;stroke-linejoin:miter;stroke-miterlimit:1;stroke-dasharray:none;stroke-opacity:1"
             d="m 30.3477,52.9961 c 0,0 19.5703,-50.31251 43.0937,0.1484 23.5078,50.4295 43.1176,0.1094 43.1176,0.1094 0,0 19.55,-50.35546 43.046,0.0938 23.516,50.4413 43.008,-0.3125 43.008,-0.3125 0,0 19.512,-50.35161 43.047,0.1093 23.496,50.4295 43.008,0.1368 43.008,0.1368" /><path
             id="path42"
             style="fill:none;stroke:#ffffff;stroke-width:4.49996996;stroke-linecap:round;stroke-linejoin:miter;stroke-miterlimit:1;stroke-dasharray:none;stroke-opacity:1"
             d="m 284.137,52.9961 c 0,0 -19.571,-50.31251 -43.106,0.1484 -23.496,50.4295 -43.105,0.1094 -43.105,0.1094 0,0 -19.551,-50.34374 -43.067,0.0938 -23.496,50.4413 -42.988,-0.3125 -42.988,-0.3125 0,0 -19.5233,-50.35161 -43.0468,0.1093 -23.5078,50.4295 -43.0078,0.1446 -43.0078,0.1446" /><path
             id="path44"
             style="fill:none;stroke:#ffffff;stroke-width:8.99993992;stroke-linecap:round;stroke-linejoin:miter;stroke-miterlimit:1;stroke-dasharray:none;stroke-opacity:1"
             d="m 25.8164,52.9961 c 0,0 19.5703,-50.31251 43.0938,0.1484 23.5078,50.4295 43.1168,0.1094 43.1168,0.1094 0,0 19.551,-50.34374 43.047,0.0938 23.516,50.4413 43.008,-0.3125 43.008,-0.3125 0,0 19.512,-50.35161 43.047,0.1093 23.496,50.4295 43.008,0.1446 43.008,0.1446" /><path
             id="path46"
             style="fill:none;stroke:#231f20;stroke-width:4.49996996;stroke-linecap:round;stroke-linejoin:miter;stroke-miterlimit:1;stroke-dasharray:none;stroke-opacity:1"
             d="m 288.668,52.9961 c 0,0 -19.57,-50.31251 -43.105,0.1484 -23.497,50.4295 -43.106,0.1094 -43.106,0.1094 0,0 -19.551,-50.35546 -43.066,0.0938 -23.496,50.4413 -42.989,-0.3125 -42.989,-0.3125 0,0 -19.5231,-50.35161 -43.0465,0.1093 -23.5078,50.4295 -43.0078,0.1368 -43.0078,0.1368" /><path
             id="path48"
             style="fill:none;stroke:#231f20;stroke-width:8.99993992;stroke-linecap:round;stroke-linejoin:miter;stroke-miterlimit:1;stroke-dasharray:none;stroke-opacity:1"
             d="m 30.3477,52.9961 c 0,0 19.5703,-50.31251 43.0937,0.1484 23.5078,50.4295 43.1176,0.1094 43.1176,0.1094 0,0 19.55,-50.35546 43.046,0.0938 23.516,50.4413 43.008,-0.3125 43.008,-0.3125 0,0 19.512,-50.35161 43.047,0.1093 23.496,50.4295 43.008,0.1368 43.008,0.1368" /><path
             id="path50"
             style="fill:none;stroke:#ffffff;stroke-width:4.49996996;stroke-linecap:round;stroke-linejoin:miter;stroke-miterlimit:1;stroke-dasharray:none;stroke-opacity:1"
             d="m 284.137,52.9961 c 0,0 -19.571,-50.31251 -43.106,0.1484 -23.496,50.4295 -43.105,0.1094 -43.105,0.1094 0,0 -19.551,-50.34374 -43.067,0.0938 -23.496,50.4413 -42.988,-0.3125 -42.988,-0.3125 0,0 -19.5233,-50.35161 -43.0468,0.1093 -23.5078,50.4295 -43.0078,0.1446 -43.0078,0.1446" /><path
             id="path52"
             style="fill:none;stroke:#ffffff;stroke-width:8.99993992;stroke-linecap:round;stroke-linejoin:miter;stroke-miterlimit:1;stroke-dasharray:none;stroke-opacity:1"
             d="m 25.8164,52.9961 c 0,0 19.5703,-50.31251 43.0938,0.1484 23.5078,50.4295 43.1168,0.1094 43.1168,0.1094 0,0 19.551,-50.34374 43.047,0.0938 23.516,50.4413 43.008,-0.3125 43.008,-0.3125 0,0 19.512,-50.35161 43.047,0.1093 23.496,50.4295 43.008,0.1446 43.008,0.1446" /></g></g></g></g></svg>