<?xml version="1.0" encoding="UTF-8" standalone="no"?>
<svg
   xmlns:dc="http://purl.org/dc/elements/1.1/"
   xmlns:cc="http://creativecommons.org/ns#"
   xmlns:rdf="http://www.w3.org/1999/02/22-rdf-syntax-ns#"
   xmlns:svg="http://www.w3.org/2000/svg"
   xmlns="http://www.w3.org/2000/svg"
   viewBox="0 0 61.25 31.25"
   height="31.25"
   width="61.25"
   xml:space="preserve"
   version="1.1"
   id="svg2"><metadata
     id="metadata8"><rdf:RDF><cc:Work
         rdf:about=""><dc:format>image/svg+xml</dc:format><dc:type
           rdf:resource="http://purl.org/dc/dcmitype/StillImage" /></cc:Work></rdf:RDF></metadata><defs
     id="defs6" /><g
     transform="matrix(1.25,0,0,-1.25,0,31.25)"
     id="g10"><g
       transform="scale(0.1,0.1)"
       id="g12"><path
         id="path14"
         style="fill:#087bbb;fill-opacity:1;fill-rule:nonzero;stroke:none"
         d="m 6.55859,5.78125 357.23,0 0,123.438 -357.23,0 0,-123.438 z" /><path
         id="path16"
         style="fill:none;stroke:#ffffff;stroke-width:3.99993992;stroke-linecap:butt;stroke-linejoin:miter;stroke-miterlimit:4;stroke-dasharray:none;stroke-opacity:1"
         d="m 6.55859,5.78125 357.23,0 0,123.438 -357.23,0 0,-123.438 z" /><path
         id="path18"
         style="fill:#087bbb;fill-opacity:1;fill-rule:nonzero;stroke:none"
         d="M 5.62109,128.629 149.922,245.59 l 333.316,0 -119.797,-116.961 -357.81991,0" /><path
         id="path20"
         style="fill:none;stroke:#ffffff;stroke-width:3.99993992;stroke-linecap:butt;stroke-linejoin:miter;stroke-miterlimit:4;stroke-dasharray:none;stroke-opacity:1"
         d="M 5.62109,128.629 149.922,245.59 l 333.316,0 -119.797,-116.961 -357.81991,0 z" /><path
         id="path22"
         style="fill:#087bbb;fill-opacity:1;fill-rule:nonzero;stroke:none"
         d="M 363.59,2.10938 482.891,131.02 482.969,245.352 363.59,128.789 l 0,-126.67962" /><path
         id="path24"
         style="fill:none;stroke:#ffffff;stroke-width:3.99993992;stroke-linecap:butt;stroke-linejoin:miter;stroke-miterlimit:4;stroke-dasharray:none;stroke-opacity:1"
         d="M 363.59,2.10938 482.891,131.02 482.969,245.352 363.59,128.789 l 0,-126.67962 z" /><path
         id="path26"
         style="fill:#ffffff;fill-opacity:1;fill-rule:nonzero;stroke:none"
         d="m 215.039,159.059 -6.949,-5.7 -89.11,0 -8.859,-8.871 -24.1405,10.512 48.5505,13.91 -8.59,-9.851 89.098,0" /><path
         id="path28"
         style="fill:#ffffff;fill-opacity:1;fill-rule:nonzero;stroke:none"
         d="m 285.039,202.809 -6.949,-5.7 -89.11,0 -8.859,-8.871 -24.141,10.512 48.551,13.91 -8.59,-9.851 89.098,0" /><path
         id="path30"
         style="fill:#ffffff;fill-opacity:1;fill-rule:nonzero;stroke:none"
         d="m 230.738,174.531 6.922,5.668 89.102,0 8.898,8.86 24.141,-10.508 -48.551,-13.86 8.59,9.84 -89.102,0" /><path
         id="path32"
         style="fill:#ffffff;fill-opacity:1;fill-rule:nonzero;stroke:none"
         d="m 276.988,218.281 6.922,5.668 89.102,0 8.898,8.86 24.141,-10.508 -48.551,-13.86 8.59,9.84 -89.102,0" /><path
         id="path34"
         style="fill:#087bbb;fill-opacity:1;fill-rule:nonzero;stroke:none"
         d="m 261.449,27.2305 83.9805,0 0,84.0195 -83.9805,0 0,-84.0195 z" /><path
         id="path36"
         style="fill:none;stroke:#ffffff;stroke-width:3.99993992;stroke-linecap:butt;stroke-linejoin:miter;stroke-miterlimit:4;stroke-dasharray:none;stroke-opacity:1"
         d="m 261.449,27.2305 83.9805,0 0,84.0195 -83.9805,0 0,-84.0195 z" /><g
         transform="scale(10,10)"
         id="g38"><text
           id="text40"
           style="font-variant:normal;font-weight:normal;font-size:8px;font-family:Helvetica;-inkscape-font-specification:Helvetica;writing-mode:lr-tb;fill:#ffffff;fill-opacity:1;fill-rule:nonzero;stroke:none"
           transform="matrix(1,0,0,-1,27.7527,4.01133)"><tspan
             id="tspan42"
             y="0"
             x="0">V</tspan></text>
</g><path
         id="path44"
         style="fill:#087bbb;fill-opacity:1;fill-rule:nonzero;stroke:none"
         d="m 126.879,30.8203 c 50.66,3.3203 90.699,21.9883 89.41,41.6797 -1.25,19.7305 -43.398,33.012 -94.059,29.73 C 71.5195,98.9102 31.4805,80.2305 32.7695,60.5508 34.0586,40.8203 76.1719,27.5391 126.879,30.8203" /><path
         id="path46"
         style="fill:none;stroke:#ffffff;stroke-width:3.99993992;stroke-linecap:butt;stroke-linejoin:miter;stroke-miterlimit:4;stroke-dasharray:none;stroke-opacity:1"
         d="m 126.879,30.8203 c 50.66,3.3203 90.699,21.9883 89.41,41.6797 -1.25,19.7305 -43.398,33.012 -94.059,29.73 C 71.5195,98.9102 31.4805,80.2305 32.7695,60.5508 34.0586,40.8203 76.1719,27.5391 126.879,30.8203 Z" /><path
         id="path48"
         style="fill:#ffffff;fill-opacity:1;fill-rule:nonzero;stroke:none"
         d="m 102.66,79.1016 8.32,-10.8633 -28.2105,-8.5078 5.9024,5.6211 -44.7617,4.6875 10.5781,9.0625 43.2109,-4.4532 4.9608,4.4532" /><path
         id="path50"
         style="fill:#ffffff;fill-opacity:1;fill-rule:nonzero;stroke:none"
         d="m 144.77,54.1797 -5.942,11.3711 25.512,6.8711 -4.219,-4.3321 43.551,-4.539 -9.762,-8.9414 -43.359,5.2304 -5.781,-5.6601" /><path
         id="path52"
         style="fill:#ffffff;fill-opacity:1;fill-rule:nonzero;stroke:none"
         d="m 128.441,87.0313 28.438,9.8085 1.133,-12.3906 -7.313,0.9024 -13.359,-12.6211 -13.629,1.0586 13.867,12.4218 -9.137,0.8204" /><path
         id="path54"
         style="fill:#ffffff;fill-opacity:1;fill-rule:nonzero;stroke:none"
         d="M 118.949,41.7617 91.7188,34.8008 89.8398,47.4609 97.8906,46.25 112.23,60.1992 125.781,58.8281 110.512,43.6289 118.949,41.7617" /></g></g></svg>