<?xml version="1.0" encoding="UTF-8" standalone="no"?>
<svg
   xmlns:dc="http://purl.org/dc/elements/1.1/"
   xmlns:cc="http://creativecommons.org/ns#"
   xmlns:rdf="http://www.w3.org/1999/02/22-rdf-syntax-ns#"
   xmlns:svg="http://www.w3.org/2000/svg"
   xmlns="http://www.w3.org/2000/svg"
   viewBox="0 0 61.012501 31.637501"
   height="31.637501"
   width="61.012501"
   xml:space="preserve"
   version="1.1"
   id="svg2"><metadata
     id="metadata8"><rdf:RDF><cc:Work
         rdf:about=""><dc:format>image/svg+xml</dc:format><dc:type
           rdf:resource="http://purl.org/dc/dcmitype/StillImage" /></cc:Work></rdf:RDF></metadata><defs
     id="defs6"><clipPath
       id="clipPath18"
       clipPathUnits="userSpaceOnUse"><path
         id="path20"
         d="M 0,3 0,253 488,253 488,3 0,3 Z" /></clipPath></defs><g
     transform="matrix(1.25,0,0,-1.25,0,31.6375)"
     id="g10"><g
       transform="scale(0.1,0.1)"
       id="g12"><g
         id="g14"><g
           clip-path="url(#clipPath18)"
           id="g16"><path
             id="path22"
             style="fill:#087bbb;fill-opacity:1;fill-rule:nonzero;stroke:none"
             d="m 6.58203,8.76953 357.195,0 0,123.445 -357.195,0 0,-123.445 z" /><path
             id="path24"
             style="fill:none;stroke:#ffffff;stroke-width:3.99993992;stroke-linecap:butt;stroke-linejoin:miter;stroke-miterlimit:4;stroke-dasharray:none;stroke-opacity:1"
             d="m 6.58203,8.76953 357.195,0 0,123.445 -357.195,0 0,-123.445 z" /><path
             id="path26"
             style="fill:#087bbb;fill-opacity:1;fill-rule:nonzero;stroke:none"
             d="m 5.64453,131.633 144.28947,116.941 333.296,0 -119.785,-116.941 -357.80047,0" /><path
             id="path28"
             style="fill:none;stroke:#ffffff;stroke-width:3.99993992;stroke-linecap:butt;stroke-linejoin:miter;stroke-miterlimit:4;stroke-dasharray:none;stroke-opacity:1"
             d="m 5.64453,131.633 144.28947,116.941 333.296,0 -119.785,-116.941 -357.80047,0 z" /><path
             id="path30"
             style="fill:#087bbb;fill-opacity:1;fill-rule:nonzero;stroke:none"
             d="M 363.586,5.10547 482.898,134.031 482.98,248.359 363.586,131.797 l 0,-126.69153" /><path
             id="path32"
             style="fill:none;stroke:#ffffff;stroke-width:3.99993992;stroke-linecap:butt;stroke-linejoin:miter;stroke-miterlimit:4;stroke-dasharray:none;stroke-opacity:1"
             d="M 363.586,5.10547 482.898,134.031 482.98,248.359 363.586,131.797 l 0,-126.69153 z" /><path
             id="path34"
             style="fill:#ffffff;fill-opacity:1;fill-rule:nonzero;stroke:none"
             d="m 215.027,162.059 -6.929,-5.684 -89.094,0 -8.875,-8.887 -24.1524,10.528 48.5544,13.879 -8.593,-9.836 89.089,0" /><path
             id="path36"
             style="fill:#ffffff;fill-opacity:1;fill-rule:nonzero;stroke:none"
             d="m 285.027,205.809 -6.929,-5.684 -89.094,0 -8.875,-8.887 -24.152,10.528 48.554,13.879 -8.593,-9.836 89.089,0" /><path
             id="path38"
             style="fill:#ffffff;fill-opacity:1;fill-rule:nonzero;stroke:none"
             d="m 230.742,177.52 6.922,5.671 89.106,0 8.875,8.887 24.16,-10.527 -48.567,-13.875 8.598,9.844 -89.094,0" /><path
             id="path40"
             style="fill:#ffffff;fill-opacity:1;fill-rule:nonzero;stroke:none"
             d="m 276.992,221.27 6.922,5.671 89.106,0 8.875,8.887 24.16,-10.527 -48.567,-13.875 8.598,9.844 -89.094,0" /><path
             id="path42"
             style="fill:#087bbb;fill-opacity:1;fill-rule:nonzero;stroke:none"
             d="m 261.438,30.2422 84,0 0,84.0039 -84,0 0,-84.0039 z" /><path
             id="path44"
             style="fill:none;stroke:#ffffff;stroke-width:3.99993992;stroke-linecap:butt;stroke-linejoin:miter;stroke-miterlimit:4;stroke-dasharray:none;stroke-opacity:1"
             d="m 261.438,30.2422 84,0 0,84.0039 -84,0 0,-84.0039 z" /><g
             transform="scale(10,10)"
             id="g46"><text
               id="text48"
               style="font-variant:normal;font-weight:normal;font-size:8px;font-family:Helvetica;-inkscape-font-specification:Helvetica;writing-mode:lr-tb;fill:#ffffff;fill-opacity:1;fill-rule:nonzero;stroke:none"
               transform="matrix(1,0,0,-1,27.7527,4.31133)"><tspan
                 id="tspan50"
                 y="0"
                 x="0">V</tspan></text>
</g><path
             id="path52"
             style="fill:#087bbb;fill-opacity:1;fill-rule:nonzero;stroke:none"
             d="m 126.863,33.8281 c 50.688,3.3086 90.727,21.9727 89.446,41.6797 -1.289,19.707 -43.411,33.0082 -94.09,29.7072 C 71.5234,101.902 31.4844,83.2539 32.7734,63.5352 34.0625,43.8281 76.1797,30.5273 126.863,33.8281" /><path
             id="path54"
             style="fill:none;stroke:#ffffff;stroke-width:3.99993992;stroke-linecap:butt;stroke-linejoin:miter;stroke-miterlimit:4;stroke-dasharray:none;stroke-opacity:1"
             d="m 126.863,33.8281 c 50.688,3.3086 90.727,21.9727 89.446,41.6797 -1.289,19.707 -43.411,33.0082 -94.09,29.7072 C 71.5234,101.902 31.4844,83.2539 32.7734,63.5352 34.0625,43.8281 76.1797,30.5273 126.863,33.8281 Z" /><path
             id="path56"
             style="fill:#ffffff;fill-opacity:1;fill-rule:nonzero;stroke:none"
             d="m 102.664,82.1094 8.32,-10.8789 -28.2106,-8.4883 5.918,5.6172 -44.7773,4.6875 10.5781,9.0508 43.1914,-4.4532 4.9804,4.4649" /><path
             id="path58"
             style="fill:#ffffff;fill-opacity:1;fill-rule:nonzero;stroke:none"
             d="m 144.785,57.168 -5.937,11.3789 25.507,6.8633 -4.218,-4.3164 43.554,-4.543 -9.796,-8.9453 -43.348,5.2461 -5.762,-5.6836" /><path
             id="path60"
             style="fill:#ffffff;fill-opacity:1;fill-rule:nonzero;stroke:none"
             d="m 128.445,90.0195 28.442,9.8164 1.14,-12.3867 -7.324,0.8985 -13.359,-12.625 -13.614,1.082 13.848,12.4141 -9.133,0.8007" /><path
             id="path62"
             style="fill:#ffffff;fill-opacity:1;fill-rule:nonzero;stroke:none"
             d="m 118.945,44.7656 -27.2262,-6.9726 -1.8672,12.6836 8.039,-1.211 14.3284,13.9492 13.57,-1.3984 -15.269,-15.1758 8.425,-1.875" /></g></g></g></g></svg>