<?xml version="1.0" encoding="UTF-8" standalone="no"?>
<svg
   xmlns:dc="http://purl.org/dc/elements/1.1/"
   xmlns:cc="http://creativecommons.org/ns#"
   xmlns:rdf="http://www.w3.org/1999/02/22-rdf-syntax-ns#"
   xmlns:svg="http://www.w3.org/2000/svg"
   xmlns="http://www.w3.org/2000/svg"
   viewBox="0 0 46.25 20"
   height="20"
   width="46.25"
   xml:space="preserve"
   version="1.1"
   id="svg2"><metadata
     id="metadata8"><rdf:RDF><cc:Work
         rdf:about=""><dc:format>image/svg+xml</dc:format><dc:type
           rdf:resource="http://purl.org/dc/dcmitype/StillImage" /></cc:Work></rdf:RDF></metadata><defs
     id="defs6" /><g
     transform="matrix(1.25,0,0,-1.25,0,20)"
     id="g10"><g
       transform="scale(0.1,0.1)"
       id="g12"><path
         id="path14"
         style="fill:#087bbb;fill-opacity:1;fill-rule:nonzero;stroke:none"
         d="m 6.05078,98.7109 76.96092,56.8791 281.0473,0 -55.938,-56.8791 -302.07022,0" /><path
         id="path16"
         style="fill:none;stroke:#ffffff;stroke-width:3.99993992;stroke-linecap:butt;stroke-linejoin:miter;stroke-miterlimit:4;stroke-dasharray:none;stroke-opacity:1"
         d="m 6.05078,98.7109 76.96092,56.8791 281.0473,0 -55.938,-56.8791 -302.07022,0 z" /><path
         id="path18"
         style="fill:#087bbb;fill-opacity:1;fill-rule:nonzero;stroke:none"
         d="m 308.121,0.859375 55.938,56.679725 0,97.8519 -55.938,-56.6801 0,-97.851525" /><path
         id="path20"
         style="fill:none;stroke:#ffffff;stroke-width:3.99993992;stroke-linecap:butt;stroke-linejoin:miter;stroke-miterlimit:4;stroke-dasharray:none;stroke-opacity:1"
         d="m 308.121,0.859375 55.938,56.679725 0,97.8519 -55.938,-56.6801 0,-97.851525 z" /><path
         id="path22"
         style="fill:#087bbb;fill-opacity:1;fill-rule:nonzero;stroke:none"
         d="m 6.48047,0.78125 301.641,0 0,97.9297 -301.641,0 0,-97.9297 z" /><path
         id="path24"
         style="fill:none;stroke:#ffffff;stroke-width:3.99993992;stroke-linecap:butt;stroke-linejoin:miter;stroke-miterlimit:4;stroke-dasharray:none;stroke-opacity:1"
         d="m 6.48047,0.78125 301.641,0 0,97.9297 -301.641,0 0,-97.9297 z" /><path
         id="path26"
         style="fill:none;stroke:#ffffff;stroke-width:4.49996996;stroke-linecap:round;stroke-linejoin:miter;stroke-miterlimit:1;stroke-dasharray:none;stroke-opacity:1"
         d="m 284.141,48.9805 c 0,0 -19.571,-50.30863 -43.121,0.1601 -23.481,50.4297 -43.09,0.1211 -43.09,0.1211 0,0 -19.571,-50.35154 -43.09,0.0781 -23.469,50.461 -42.961,-0.3203 -42.961,-0.3203 0,0 -19.5392,-50.34763 -43.0509,0.1211 -23.5195,50.4297 -43.0078,0.1602 -43.0078,0.1602" /><path
         id="path28"
         style="fill:none;stroke:#ffffff;stroke-width:8.99993992;stroke-linecap:round;stroke-linejoin:miter;stroke-miterlimit:1;stroke-dasharray:none;stroke-opacity:1"
         d="m 25.8203,48.9805 c 0,0 19.5703,-50.30863 43.0899,0.1601 23.5117,50.4297 43.1208,0.1211 43.1208,0.1211 0,0 19.528,-50.35154 43.047,0.0781 23.512,50.461 43.012,-0.3203 43.012,-0.3203 0,0 19.488,-50.34763 43.039,0.1211 23.48,50.4297 43.012,0.1602 43.012,0.1602" /><path
         id="path30"
         style="fill:none;stroke:#231f20;stroke-width:4.49996996;stroke-linecap:round;stroke-linejoin:miter;stroke-miterlimit:1;stroke-dasharray:none;stroke-opacity:1"
         d="m 288.672,48.9805 c 0,0 -19.57,-50.30863 -43.121,0.1601 -23.481,50.4297 -43.09,0.1211 -43.09,0.1211 0,0 -19.57,-50.35154 -43.082,0.0781 -23.481,50.461 -42.969,-0.3203 -42.969,-0.3203 0,0 -19.5311,-50.34763 -43.0506,0.1211 -23.5196,50.4297 -43.0078,0.1602 -43.0078,0.1602" /><path
         id="path32"
         style="fill:none;stroke:#231f20;stroke-width:8.99993992;stroke-linecap:round;stroke-linejoin:miter;stroke-miterlimit:1;stroke-dasharray:none;stroke-opacity:1"
         d="m 30.3516,48.9805 c 0,0 19.5703,-50.30863 43.0898,0.1601 23.5078,50.4297 43.1176,0.1211 43.1176,0.1211 0,0 19.531,-50.35154 43.05,0.0781 23.512,50.461 43.012,-0.3203 43.012,-0.3203 0,0 19.488,-50.34763 43.039,0.1211 23.481,50.4297 43.012,0.1602 43.012,0.1602" /><path
         id="path34"
         style="fill:none;stroke:#ffffff;stroke-width:4.49996996;stroke-linecap:round;stroke-linejoin:miter;stroke-miterlimit:1;stroke-dasharray:none;stroke-opacity:1"
         d="m 284.141,48.9805 c 0,0 -19.571,-50.30863 -43.121,0.1601 -23.481,50.4297 -43.09,0.1211 -43.09,0.1211 0,0 -19.571,-50.35154 -43.09,0.0781 -23.469,50.461 -42.961,-0.3203 -42.961,-0.3203 0,0 -19.5392,-50.34763 -43.0509,0.1211 -23.5195,50.4297 -43.0078,0.1602 -43.0078,0.1602" /><path
         id="path36"
         style="fill:none;stroke:#ffffff;stroke-width:8.99993992;stroke-linecap:round;stroke-linejoin:miter;stroke-miterlimit:1;stroke-dasharray:none;stroke-opacity:1"
         d="m 25.8203,48.9805 c 0,0 19.5703,-50.30863 43.0899,0.1601 23.5117,50.4297 43.1208,0.1211 43.1208,0.1211 0,0 19.528,-50.35154 43.047,0.0781 23.512,50.461 43.012,-0.3203 43.012,-0.3203 0,0 19.488,-50.34763 43.039,0.1211 23.48,50.4297 43.012,0.1602 43.012,0.1602" /><path
         id="path38"
         style="fill:none;stroke:#231f20;stroke-width:4.49996996;stroke-linecap:round;stroke-linejoin:miter;stroke-miterlimit:1;stroke-dasharray:none;stroke-opacity:1"
         d="m 288.672,48.9805 c 0,0 -19.57,-50.30863 -43.121,0.1601 -23.481,50.4297 -43.09,0.1211 -43.09,0.1211 0,0 -19.57,-50.35154 -43.082,0.0781 -23.481,50.461 -42.969,-0.3203 -42.969,-0.3203 0,0 -19.5311,-50.34763 -43.0506,0.1211 -23.5196,50.4297 -43.0078,0.1602 -43.0078,0.1602" /><path
         id="path40"
         style="fill:none;stroke:#231f20;stroke-width:8.99993992;stroke-linecap:round;stroke-linejoin:miter;stroke-miterlimit:1;stroke-dasharray:none;stroke-opacity:1"
         d="m 30.3516,48.9805 c 0,0 19.5703,-50.30863 43.0898,0.1601 23.5078,50.4297 43.1176,0.1211 43.1176,0.1211 0,0 19.531,-50.35154 43.05,0.0781 23.512,50.461 43.012,-0.3203 43.012,-0.3203 0,0 19.488,-50.34763 43.039,0.1211 23.481,50.4297 43.012,0.1602 43.012,0.1602" /><path
         id="path42"
         style="fill:none;stroke:#ffffff;stroke-width:4.49996996;stroke-linecap:round;stroke-linejoin:miter;stroke-miterlimit:1;stroke-dasharray:none;stroke-opacity:1"
         d="m 284.141,48.9805 c 0,0 -19.571,-50.30863 -43.121,0.1601 -23.481,50.4297 -43.09,0.1211 -43.09,0.1211 0,0 -19.571,-50.35154 -43.09,0.0781 -23.469,50.461 -42.961,-0.3203 -42.961,-0.3203 0,0 -19.5392,-50.34763 -43.0509,0.1211 -23.5195,50.4297 -43.0078,0.1602 -43.0078,0.1602" /><path
         id="path44"
         style="fill:none;stroke:#ffffff;stroke-width:8.99993992;stroke-linecap:round;stroke-linejoin:miter;stroke-miterlimit:1;stroke-dasharray:none;stroke-opacity:1"
         d="m 25.8203,48.9805 c 0,0 19.5703,-50.30863 43.0899,0.1601 23.5117,50.4297 43.1208,0.1211 43.1208,0.1211 0,0 19.528,-50.35154 43.047,0.0781 23.512,50.461 43.012,-0.3203 43.012,-0.3203 0,0 19.488,-50.34763 43.039,0.1211 23.48,50.4297 43.012,0.1602 43.012,0.1602" /></g></g></svg>