<svg xmlns="http://www.w3.org/2000/svg" viewBox="0 0 61.25 31.25" height="31.25" width="61.25"><path d="M.82 30.527h44.654v-15.43H.82v15.43z" fill="#087bbb"/><path d="M.82 30.527h44.654v-15.43H.82v15.43z" fill="none" stroke="#fff" stroke-width=".5"/><path d="M.703 15.171L18.74.551h41.665L45.43 15.171H.703" fill="#087bbb"/><path d="M.703 15.171L18.74.551h41.665L45.43 15.171H.703z" fill="none" stroke="#fff" stroke-width=".5"/><path d="M45.449 30.986L60.36 14.872l.01-14.291-14.922 14.57v15.835" fill="#087bbb"/><path d="M45.449 30.986L60.36 14.872l.01-14.291-14.922 14.57v15.835z" fill="none" stroke="#fff" stroke-width=".5"/><path d="M26.88 11.368l-.869.712H14.872l-1.107 1.109-3.017-1.314 6.068-1.739-1.073 1.232H26.88M35.63 5.899l-.869.712H23.622l-1.107 1.11-3.018-1.315 6.07-1.738-1.074 1.23H35.63M28.842 9.434l.866-.709h11.137l1.113-1.107 3.017 1.313-6.069 1.733 1.074-1.23H28.842M34.623 3.965l.866-.709h11.138l1.112-1.107 3.017 1.313-6.068 1.733 1.073-1.23H34.624" fill="#fff"/><path d="M32.681 27.846H43.18V17.344H32.68v10.502z" fill="#087bbb"/><path d="M32.681 27.846H43.18V17.344H32.68v10.502z" fill="none" stroke="#fff" stroke-width=".5"/><text style="-inkscape-font-specification:Helvetica" transform="matrix(1.25 0 0 1.25 34.69 26.236)" font-weight="400" font-size="8" font-family="Helvetica" fill="#fff"><tspan y="0" x="0">V</tspan></text><path d="M15.86 27.397c6.332-.415 11.337-2.748 11.176-5.21-.156-2.466-5.425-4.126-11.757-3.716-6.34.415-11.344 2.75-11.183 5.21.161 2.466 5.425 4.127 11.764 3.716" fill="#087bbb"/><path d="M15.86 27.397c6.332-.415 11.337-2.748 11.176-5.21-.156-2.466-5.425-4.126-11.757-3.716-6.34.415-11.344 2.75-11.183 5.21.161 2.466 5.425 4.127 11.764 3.716z" fill="none" stroke="#fff" stroke-width=".5"/><path d="M12.832 21.362l1.04 1.358-3.526 1.064.738-.703-5.595-.586 1.322-1.133 5.401.557.62-.557M18.096 24.478l-.742-1.422 3.189-.859-.528.542 5.444.567-1.22 1.118-5.42-.654-.723.708M16.055 20.371l3.555-1.226.141 1.549-.914-.113-1.67 1.578-1.703-.133 1.733-1.552-1.142-.103M14.869 26.03l-3.404.87-.235-1.583 1.006.152 1.793-1.744 1.694.171-1.909 1.9 1.055.234" fill="#fff"/></svg>