<?xml version="1.0" encoding="UTF-8" standalone="no"?>
<svg
   xmlns:dc="http://purl.org/dc/elements/1.1/"
   xmlns:cc="http://creativecommons.org/ns#"
   xmlns:rdf="http://www.w3.org/1999/02/22-rdf-syntax-ns#"
   xmlns:svg="http://www.w3.org/2000/svg"
   xmlns="http://www.w3.org/2000/svg"
   xmlns:sodipodi="http://sodipodi.sourceforge.net/DTD/sodipodi-0.dtd"
   xmlns:inkscape="http://www.inkscape.org/namespaces/inkscape"
   viewBox="0 0 54.40847 39.486217"
   height="39.486217"
   width="54.40847"
   xml:space="preserve"
   version="1.1"
   id="svg2"
   inkscape:version="0.91 r13725"
   sodipodi:docname="ace.svg"><sodipodi:namedview
     pagecolor="#ffffff"
     bordercolor="#666666"
     borderopacity="1"
     objecttolerance="10"
     gridtolerance="10"
     guidetolerance="10"
     inkscape:pageopacity="0"
     inkscape:pageshadow="2"
     inkscape:window-width="448"
     inkscape:window-height="438"
     id="namedview19"
     showgrid="false"
     inkscape:zoom="5.6972205"
     inkscape:cx="27.206142"
     inkscape:cy="19.744361"
     inkscape:window-x="0"
     inkscape:window-y="23"
     inkscape:window-maximized="0"
     inkscape:current-layer="svg2" /><metadata
     id="metadata8"><rdf:RDF><cc:Work
         rdf:about=""><dc:format>image/svg+xml</dc:format><dc:type
           rdf:resource="http://purl.org/dc/dcmitype/StillImage" /></cc:Work></rdf:RDF></metadata><defs
     id="defs6" /><g
     transform="matrix(1.25,0,0,-1.25,-1.0706839e-4,39.485606)"
     id="g10"><g
       transform="scale(0.1,0.1)"
       id="g12"><path
         id="path14"
         style="fill:#087bbb;fill-opacity:1;fill-rule:nonzero;stroke:none"
         d="m 5.65625,6.46484 381.484,0 0,250.633 -381.484,0 0,-250.633 z"
         inkscape:connector-curvature="0" /><path
         id="path16"
         style="fill:none;stroke:#ffffff;stroke-width:4;stroke-linecap:butt;stroke-linejoin:miter;stroke-miterlimit:4;stroke-dasharray:none;stroke-opacity:1"
         d="m 5.65625,6.46484 381.484,0 0,250.633 -381.484,0 0,-250.633 z"
         inkscape:connector-curvature="0" /><path
         id="path18"
         style="fill:#087bbb;fill-opacity:1;fill-rule:nonzero;stroke:none"
         d="m 431.027,70.6641 -43.886,-64.19926 0,250.63316 43.886,53.218 0,-239.6519"
         inkscape:connector-curvature="0" /><path
         id="path20"
         style="fill:none;stroke:#ffffff;stroke-width:4;stroke-linecap:butt;stroke-linejoin:miter;stroke-miterlimit:4;stroke-dasharray:none;stroke-opacity:1"
         d="m 431.027,70.6641 -43.886,-64.19926 0,250.63316 43.886,53.218 0,-239.6519 z"
         inkscape:connector-curvature="0" /><path
         id="path22"
         style="fill:#087bbb;fill-opacity:1;fill-rule:nonzero;stroke:none"
         d="m 71.4883,310.316 359.5387,0 -43.886,-53.218 -381.48475,0 65.83205,53.218"
         inkscape:connector-curvature="0" /><path
         id="path24"
         style="fill:none;stroke:#ffffff;stroke-width:4;stroke-linecap:butt;stroke-linejoin:miter;stroke-miterlimit:4;stroke-dasharray:none;stroke-opacity:1"
         d="m 71.4883,310.316 359.5387,0 -43.886,-53.218 -381.48475,0 65.83205,53.218 z"
         inkscape:connector-curvature="0" /><path
         id="path26"
         style="fill:#ffffff;fill-opacity:1;fill-rule:nonzero;stroke:none"
         d="m 334.719,127.695 -63.887,-0.05 0,10.156 63.887,0.039 0.019,15.855 37,-20.933 -37,-20.946 -0.019,15.879"
         inkscape:connector-curvature="0" /><path
         id="path28"
         style="fill:#ffffff;fill-opacity:1;fill-rule:nonzero;stroke:none"
         d="m 79.0938,127.695 -63.8868,-0.05 0,10.156 63.8868,0.039 0.0195,15.855 36.9997,-20.933 -36.9997,-20.946 -0.0195,15.879"
         inkscape:connector-curvature="0" /><path
         id="path30"
         style="fill:#ffffff;fill-opacity:1;fill-rule:nonzero;stroke:none"
         d="m 323.691,195.121 -53.543,-34.828 -5.539,8.516 53.555,34.828 -8.613,13.312 42.433,2.582 -19.621,-37.715 -8.672,13.305"
         inkscape:connector-curvature="0" /><path
         id="path32"
         style="fill:#ffffff;fill-opacity:1;fill-rule:nonzero;stroke:none"
         d="m 323.691,69.832 -53.543,34.836 -5.539,-8.5274 53.555,-34.8242 -8.613,-13.3008 42.433,-2.5976 -19.621,37.7148 -8.672,-13.3008"
         inkscape:connector-curvature="0" /><path
         id="path34"
         style="fill:#087bbb;fill-opacity:1;fill-rule:nonzero;stroke:none"
         d="m 257.102,134.051 c 0,-34.7932 -28.204,-62.9963 -63,-62.9963 -34.793,0 -62.997,28.2031 -62.997,62.9963 0,34.82 28.204,63.023 62.997,63.023 34.796,0 63,-28.203 63,-63.023"
         inkscape:connector-curvature="0" /><path
         id="path36"
         style="fill:none;stroke:#ffffff;stroke-width:8;stroke-linecap:butt;stroke-linejoin:miter;stroke-miterlimit:4;stroke-dasharray:none;stroke-opacity:1"
         d="m 257.102,134.051 c 0,-34.7932 -28.204,-62.9963 -63,-62.9963 -34.793,0 -62.997,28.2031 -62.997,62.9963 0,34.82 28.204,63.023 62.997,63.023 34.796,0 63,-28.203 63,-63.023 z"
         inkscape:connector-curvature="0" /></g></g></svg>