<?xml version="1.0" encoding="UTF-8" standalone="no"?>
<svg
   xmlns:dc="http://purl.org/dc/elements/1.1/"
   xmlns:cc="http://creativecommons.org/ns#"
   xmlns:rdf="http://www.w3.org/1999/02/22-rdf-syntax-ns#"
   xmlns:svg="http://www.w3.org/2000/svg"
   xmlns="http://www.w3.org/2000/svg"
   viewBox="0 0 46.25 33.75"
   height="33.75"
   width="46.25"
   xml:space="preserve"
   version="1.1"
   id="svg2"><metadata
     id="metadata8"><rdf:RDF><cc:Work
         rdf:about=""><dc:format>image/svg+xml</dc:format><dc:type
           rdf:resource="http://purl.org/dc/dcmitype/StillImage" /></cc:Work></rdf:RDF></metadata><defs
     id="defs6" /><g
     transform="matrix(1.25,0,0,-1.25,0,33.75)"
     id="g10"><g
       transform="scale(0.1,0.1)"
       id="g12"><path
         id="path14"
         style="fill:#087bbb;fill-opacity:1;fill-rule:nonzero;stroke:none"
         d="m 5.82031,233.309 41.32809,32.3 314.3716,0 -42.418,-32.3 -313.28169,0" /><path
         id="path16"
         style="fill:none;stroke:#ffffff;stroke-width:4;stroke-linecap:butt;stroke-linejoin:miter;stroke-miterlimit:4;stroke-dasharray:none;stroke-opacity:1"
         d="m 5.82031,233.305 41.32809,32.312 314.3716,0 -42.418,-32.312 -313.28169,0 z" /><path
         id="path18"
         style="fill:none;stroke:#ffffff;stroke-width:4;stroke-linecap:round;stroke-linejoin:round;stroke-miterlimit:4;stroke-dasharray:none;stroke-opacity:1"
         d="m 319.102,12.8359 -313.28169,0" /><path
         id="path20"
         style="fill:#087bbb;fill-opacity:1;fill-rule:nonzero;stroke:none"
         d="m 320.27,235.07 0,-222.3083 -315.66062,0 0,222.7383 315.66062,-0.43" /><path
         id="path22"
         style="fill:none;stroke:#ffffff;stroke-width:4;stroke-linecap:butt;stroke-linejoin:miter;stroke-miterlimit:4;stroke-dasharray:none;stroke-opacity:1"
         d="m 320.27,235.066 0,-222.3004 -315.66062,0 0,222.7304 315.66062,-0.43 z" /><path
         id="path24"
         style="fill:#087bbb;fill-opacity:1;fill-rule:nonzero;stroke:none"
         d="m 360,46.7891 0,218.0389 -40.512,-30.578 0,-220.0781 L 360,46.7891" /><path
         id="path26"
         style="fill:none;stroke:#ffffff;stroke-width:4;stroke-linecap:butt;stroke-linejoin:miter;stroke-miterlimit:4;stroke-dasharray:none;stroke-opacity:1"
         d="m 360,46.7852 0,218.0508 -40.512,-30.59 0,-220.0819 L 360,46.7852 Z" /><path
         id="path28"
         style="fill:#ffffff;fill-opacity:1;fill-rule:nonzero;stroke:none"
         d="m 293.359,97.6094 -41.8,0 0,6.2496 L 230.98,91.3594 251.559,78.5 l 0,6.25 41.8,0 0,12.8594" /><path
         id="path30"
         style="fill:#ffffff;fill-opacity:1;fill-rule:nonzero;stroke:none"
         d="m 88.3594,168.43 -41.8008,0 0,6.25 -20.5781,-12.5 20.5781,-12.821 0,6.25 41.8008,0 0,12.821" /><path
         id="path32"
         style="fill:#ffffff;fill-opacity:1;fill-rule:nonzero;stroke:none"
         d="m 238.789,154.75 40.082,0 0,-6.25 20.578,12.5 -20.578,12.859 0,-6.25 -40.082,0 0,-12.859" /><path
         id="path34"
         style="fill:#ffffff;fill-opacity:1;fill-rule:nonzero;stroke:none"
         d="m 28.7891,84.3984 40.082,0 0,-6.207 20.5781,12.457 -20.5781,12.8516 0,-6.25 -40.082,0 0,-12.8516" /><path
         id="path36"
         style="fill:#ffffff;fill-opacity:1;fill-rule:nonzero;stroke:none"
         d="m 67.0703,32.9219 c -0.2695,4.2187 2.8906,7.8476 7.1094,8.1562 4.2187,0.2813 7.8516,-2.9297 8.1211,-7.1484 0.3203,-4.2109 -2.8906,-7.8516 -7.1016,-8.1602 -4.1797,-0.2695 -7.8594,2.9297 -8.1289,7.1524" /><path
         id="path38"
         style="fill:none;stroke:#231f20;stroke-width:2;stroke-linecap:butt;stroke-linejoin:miter;stroke-miterlimit:4;stroke-dasharray:none;stroke-opacity:1"
         d="m 67.0703,32.9141 c -0.2695,4.2226 2.8906,7.8515 7.1094,8.1718 4.2187,0.2696 7.8516,-2.9296 8.1211,-7.1484 0.3203,-4.2227 -2.8906,-7.8516 -7.1016,-8.1719 -4.1797,-0.2695 -7.8594,2.9297 -8.1289,7.1485 z" /><path
         id="path40"
         style="fill:#ffffff;fill-opacity:1;fill-rule:nonzero;stroke:none"
         d="M 83.2813,27.4492 67.6992,41.3906 108.051,86.4297 123.629,72.4883 83.2813,27.4492" /><path
         id="path42"
         style="fill:none;stroke:#231f20;stroke-width:2;stroke-linecap:butt;stroke-linejoin:miter;stroke-miterlimit:4;stroke-dasharray:none;stroke-opacity:1"
         d="M 83.2813,27.4453 67.6992,41.3945 108.051,86.4375 123.629,72.4844 83.2813,27.4453 Z" /><path
         id="path44"
         style="fill:#ffffff;fill-opacity:1;fill-rule:nonzero;stroke:none"
         d="m 107.031,142.371 c 3.828,33.399 34.059,57.418 67.418,53.598 33.36,-3.828 57.43,-34.11 53.602,-67.469 C 224.219,95.1406 193.98,71.1211 160.59,74.9492 127.27,78.7813 103.199,109.012 107.031,142.371 Z M 97.1914,143.5 C 92.7305,104.719 120.66,69.5586 159.488,65.1094 c 38.793,-4.461 73.953,23.5117 78.403,62.3006 4.41,38.789 -23.512,73.949 -62.301,78.399 -38.789,4.453 -73.988,-23.52 -78.3986,-62.309" /><path
         id="path46"
         style="fill:none;stroke:#231f20;stroke-width:2;stroke-linecap:butt;stroke-linejoin:miter;stroke-miterlimit:4;stroke-dasharray:none;stroke-opacity:1"
         d="m 107.031,142.375 c 3.828,33.391 34.059,57.422 67.418,53.59 33.36,-3.828 57.43,-34.098 53.602,-67.461 -3.832,-33.3595 -34.071,-57.379 -67.461,-53.5587 -33.32,3.832 -57.391,34.0707 -53.559,67.4297 z m -9.8396,1.129 C 92.7305,104.715 120.66,69.5547 159.488,65.1055 c 38.793,-4.4492 73.953,23.5195 78.403,62.3005 4.41,38.789 -23.512,73.949 -62.301,78.399 -38.789,4.461 -73.988,-23.508 -78.3986,-62.301 z" /><path
         id="path48"
         style="fill:#ffffff;fill-opacity:1;fill-rule:nonzero;stroke:none"
         d="m 98.3203,139.25 c 3.8277,33.391 34.0587,57.422 67.4177,53.59 33.364,-3.828 57.383,-34.059 53.602,-67.418 C 215.512,92.0586 185.23,68 151.879,71.8203 118.551,75.6484 94.4883,105.891 98.3203,139.25 Z m -9.8398,1.129 C 84.0195,101.59 111.988,66.4297 150.738,61.9805 189.57,57.5313 224.73,85.5 229.18,124.289 233.59,163.07 205.66,198.23 166.879,202.68 128.09,207.141 92.8906,179.172 88.4805,140.379" /><path
         id="path50"
         style="fill:none;stroke:#231f20;stroke-width:2;stroke-linecap:butt;stroke-linejoin:miter;stroke-miterlimit:4;stroke-dasharray:none;stroke-opacity:1"
         d="m 98.3203,139.246 c 3.8277,33.399 34.0587,57.418 67.4177,53.59 33.364,-3.82 57.383,-34.059 53.602,-67.422 C 215.512,92.0547 185.23,67.9961 151.879,71.8242 118.551,75.6563 94.4883,105.887 98.3203,139.246 Z m -9.8398,1.129 c -4.461,-38.789 23.5075,-73.9375 62.2575,-78.3984 38.832,-4.4493 73.992,23.5195 78.442,62.3084 4.41,38.789 -23.52,73.949 -62.301,78.403 -38.789,4.449 -73.9884,-23.524 -78.3985,-62.313 z" /><path
         id="path52"
         style="fill:#087bbb;fill-opacity:1;fill-rule:nonzero;stroke:none"
         d="m 187.191,93.7383 c 1.559,0 2.848,1.293 2.848,2.8906 l 0,35.2691 c 0,1.571 -1.289,2.852 -2.848,2.852 l -54.73,0 c -1.602,0 -2.891,-1.281 -2.891,-2.852 l 0,-35.2691 c 0,-1.5976 1.289,-2.8906 2.891,-2.8906 l 54.73,0" /><path
         id="path54"
         style="fill:none;stroke:#ffffff;stroke-width:3;stroke-linecap:round;stroke-linejoin:round;stroke-miterlimit:4;stroke-dasharray:none;stroke-opacity:1"
         d="m 187.191,93.7344 c 1.559,0 2.848,1.2929 2.848,2.8906 l 0,35.281 c 0,1.559 -1.289,2.848 -2.848,2.848 l -54.73,0 c -1.602,0 -2.891,-1.289 -2.891,-2.848 l 0,-35.281 c 0,-1.5977 1.289,-2.8906 2.891,-2.8906 l 54.73,0 z" /><path
         id="path56"
         style="fill:#087bbb;fill-opacity:1;fill-rule:nonzero;stroke:none"
         d="m 190.039,134.828 11.52,11.531 -60.469,0 -11.52,-11.531 60.469,0" /><path
         id="path58"
         style="fill:none;stroke:#ffffff;stroke-width:3;stroke-linecap:round;stroke-linejoin:round;stroke-miterlimit:4;stroke-dasharray:none;stroke-opacity:1"
         d="m 190.039,134.836 11.52,11.519 -60.469,0 -11.52,-11.519 60.469,0 z" /><path
         id="path60"
         style="fill:#087bbb;fill-opacity:1;fill-rule:nonzero;stroke:none"
         d="m 201.559,105.34 0,41.019 -11.52,-11.531 0,-41.0077 11.52,11.5197" /><path
         id="path62"
         style="fill:none;stroke:#ffffff;stroke-width:3;stroke-linecap:round;stroke-linejoin:round;stroke-miterlimit:4;stroke-dasharray:none;stroke-opacity:1"
         d="m 201.559,105.336 0,41.019 -11.52,-11.519 0,-41.0196 11.52,11.5196 z" /><path
         id="path64"
         style="fill:#087bbb;fill-opacity:1;fill-rule:nonzero;stroke:none"
         d="m 165.941,171.711 c -8.671,0 -15.742,-7.031 -15.742,-15.742 l 0.031,-14.028 c 0.122,-1.089 -1.011,-2.261 -2.691,-2.421 -1.68,-0.2 -3.48,0.621 -3.59,1.761 l 0,13.899 c 0,11.961 9.68,21.64 21.641,21.64 11.91,0 21.601,-9.679 21.601,-21.64 l 0,-15.149 c -0.121,-1.14 -1.332,-1.883 -3.011,-1.801 -1.52,0.04 -2.93,2.032 -2.809,3.161 l 0.078,14.578 c 0,8.711 -6.801,15.742 -15.508,15.742" /><path
         id="path66"
         style="fill:none;stroke:#ffffff;stroke-width:3;stroke-linecap:round;stroke-linejoin:round;stroke-miterlimit:4;stroke-dasharray:none;stroke-opacity:1"
         d="m 165.941,171.707 c -8.671,0 -15.742,-7.031 -15.742,-15.742 l 0.031,-14.02 c 0.122,-1.097 -1.011,-2.269 -2.691,-2.429 -1.68,-0.192 -3.48,0.629 -3.59,1.761 l 0,13.911 c 0,11.949 9.68,21.636 21.641,21.636 11.91,0 21.601,-9.687 21.601,-21.636 l 0,-15.161 c -0.121,-1.132 -1.332,-1.871 -3.011,-1.793 -1.52,0.032 -2.93,2.032 -2.809,3.161 l 0.078,14.57 c 0,8.711 -6.801,15.742 -15.508,15.742 z" /><path
         id="path68"
         style="fill:#ffffff;fill-opacity:1;fill-rule:nonzero;stroke:none"
         d="m 159.73,110.648 c 2.731,0 4.961,2.852 4.961,6.411 0,3.511 -2.23,6.371 -4.961,6.371 -2.742,0 -4.929,-2.86 -4.929,-6.371 0,-3.559 2.187,-6.411 4.929,-6.411" /><path
         id="path70"
         style="fill:#ffffff;fill-opacity:1;fill-rule:nonzero;stroke:none"
         d="m 161.211,104.09 0,12.582 -3.09,-2.274 0,-12.578 3.09,2.27" /></g></g></svg>