<?xml version="1.0" encoding="UTF-8" standalone="no"?>
<svg
   xmlns:dc="http://purl.org/dc/elements/1.1/"
   xmlns:cc="http://creativecommons.org/ns#"
   xmlns:rdf="http://www.w3.org/1999/02/22-rdf-syntax-ns#"
   xmlns:svg="http://www.w3.org/2000/svg"
   xmlns="http://www.w3.org/2000/svg"
   viewBox="0 0 45.9375 32.362499"
   height="32.362499"
   width="45.9375"
   xml:space="preserve"
   version="1.1"
   id="svg2"><metadata
     id="metadata8"><rdf:RDF><cc:Work
         rdf:about=""><dc:format>image/svg+xml</dc:format><dc:type
           rdf:resource="http://purl.org/dc/dcmitype/StillImage" /></cc:Work></rdf:RDF></metadata><defs
     id="defs6" /><g
     transform="matrix(1.25,0,0,-1.25,0,32.3625)"
     id="g10"><g
       transform="scale(0.1,0.1)"
       id="g12"><path
         id="path14"
         style="fill:#087bbb;fill-opacity:1;fill-rule:nonzero;stroke:none"
         d="m 5.80469,223.32 41.33981,32.305 314.3715,0 -42.407,-32.305 -313.30431,0" /><path
         id="path16"
         style="fill:none;stroke:#ffffff;stroke-width:4;stroke-linecap:butt;stroke-linejoin:miter;stroke-miterlimit:4;stroke-dasharray:none;stroke-opacity:1"
         d="m 5.80469,223.32 41.33981,32.305 314.3715,0 -42.407,-32.305 -313.30431,0 z" /><path
         id="path18"
         style="fill:none;stroke:#ffffff;stroke-width:4;stroke-linecap:round;stroke-linejoin:round;stroke-miterlimit:4;stroke-dasharray:none;stroke-opacity:1"
         d="m 319.109,2.83203 -313.30431,0" /><path
         id="path20"
         style="fill:#087bbb;fill-opacity:1;fill-rule:nonzero;stroke:none"
         d="m 320.266,225.059 0,-222.30509 -315.66053,0 0,222.75409 315.66053,-0.449" /><path
         id="path22"
         style="fill:none;stroke:#ffffff;stroke-width:4;stroke-linecap:butt;stroke-linejoin:miter;stroke-miterlimit:4;stroke-dasharray:none;stroke-opacity:1"
         d="m 320.266,225.059 0,-222.30509 -315.66053,0 0,222.75409 315.66053,-0.449 z" /><path
         id="path24"
         style="fill:#087bbb;fill-opacity:1;fill-rule:nonzero;stroke:none"
         d="m 360.012,36.7969 0,218.0471 -40.532,-30.586 0,-220.07831 40.532,32.61721" /><path
         id="path26"
         style="fill:none;stroke:#ffffff;stroke-width:4;stroke-linecap:butt;stroke-linejoin:miter;stroke-miterlimit:4;stroke-dasharray:none;stroke-opacity:1"
         d="m 360.012,36.7969 0,218.0471 -40.532,-30.586 0,-220.07831 40.532,32.61721 z" /><path
         id="path28"
         style="fill:#ffffff;fill-opacity:1;fill-rule:nonzero;stroke:none"
         d="m 293.352,87.5977 -41.782,0 0,6.25 -20.586,-12.5 20.586,-12.8321 0,6.25 41.782,0 0,12.8321" /><path
         id="path30"
         style="fill:#ffffff;fill-opacity:1;fill-rule:nonzero;stroke:none"
         d="m 88.3438,158.438 -41.7657,0 0,6.23 -20.5859,-12.48 20.5859,-12.833 0,6.25 41.7657,0 0,12.833" /><path
         id="path32"
         style="fill:#ffffff;fill-opacity:1;fill-rule:nonzero;stroke:none"
         d="m 238.777,144.766 40.102,0 0,-6.25 20.586,12.5 -20.586,12.832 0,-6.25 -40.102,0 0,-12.832" /><path
         id="path34"
         style="fill:#ffffff;fill-opacity:1;fill-rule:nonzero;stroke:none"
         d="m 28.7813,74.4141 40.0976,0 0,-6.2305 20.5859,12.4805 -20.5859,12.832 0,-6.25 -40.0976,0 0,-12.832" /><path
         id="path36"
         style="fill:#ffffff;fill-opacity:1;fill-rule:nonzero;stroke:none"
         d="m 67.0547,22.9102 c -0.2695,4.2382 2.9141,7.8711 7.1367,8.164 4.2109,0.2735 7.8555,-2.9297 8.1289,-7.1289 0.2852,-4.2187 -2.8984,-7.8711 -7.1133,-8.164 -4.1992,-0.2735 -7.8711,2.9296 -8.1523,7.1289" /><path
         id="path38"
         style="fill:none;stroke:#231f20;stroke-width:2;stroke-linecap:butt;stroke-linejoin:miter;stroke-miterlimit:4;stroke-dasharray:none;stroke-opacity:1"
         d="m 67.0547,22.9102 c -0.2695,4.2382 2.9141,7.8711 7.1367,8.164 4.2109,0.2735 7.8555,-2.9297 8.1289,-7.1289 0.2852,-4.2187 -2.8984,-7.8711 -7.1133,-8.164 -4.1992,-0.2735 -7.8711,2.9296 -8.1523,7.1289 z" /><path
         id="path40"
         style="fill:#ffffff;fill-opacity:1;fill-rule:nonzero;stroke:none"
         d="M 83.2813,17.4414 67.6992,31.3789 108.051,76.4453 123.645,62.5 83.2813,17.4414" /><path
         id="path42"
         style="fill:none;stroke:#231f20;stroke-width:2;stroke-linecap:butt;stroke-linejoin:miter;stroke-miterlimit:4;stroke-dasharray:none;stroke-opacity:1"
         d="M 83.2813,17.4414 67.6992,31.3789 108.051,76.4453 123.645,62.5 83.2813,17.4414 Z" /><path
         id="path44"
         style="fill:#ffffff;fill-opacity:1;fill-rule:nonzero;stroke:none"
         d="m 107.027,132.383 c 3.828,33.379 34.071,57.402 67.442,53.594 33.351,-3.848 57.394,-34.102 53.566,-67.461 -3.805,-33.3597 -34.058,-57.3832 -67.433,-53.5746 -33.352,3.8281 -57.403,34.082 -53.575,67.4416 z m -9.8434,1.113 C 92.7305,94.707 120.68,59.5508 159.477,55.1172 c 38.793,-4.4531 73.968,23.4961 78.406,62.2848 4.43,38.789 -23.52,73.965 -62.293,78.399 -38.797,4.453 -73.973,-23.516 -78.4064,-62.305" /><path
         id="path46"
         style="fill:none;stroke:#231f20;stroke-width:2;stroke-linecap:butt;stroke-linejoin:miter;stroke-miterlimit:4;stroke-dasharray:none;stroke-opacity:1"
         d="m 107.027,132.383 c 3.828,33.379 34.071,57.402 67.442,53.594 33.351,-3.848 57.394,-34.102 53.566,-67.461 -3.805,-33.3597 -34.058,-57.3832 -67.433,-53.5746 -33.352,3.8281 -57.403,34.082 -53.575,67.4416 z m -9.8434,1.113 C 92.7305,94.707 120.68,59.5508 159.477,55.1172 c 38.793,-4.4531 73.968,23.4961 78.406,62.2848 4.43,38.789 -23.52,73.965 -62.293,78.399 -38.797,4.453 -73.973,-23.516 -78.4064,-62.305 z" /><path
         id="path48"
         style="fill:#ffffff;fill-opacity:1;fill-rule:nonzero;stroke:none"
         d="m 98.3164,129.258 c 3.8166,33.379 34.0706,57.422 67.4416,53.594 33.351,-3.829 57.379,-34.082 53.566,-67.442 C 215.496,82.0508 185.25,58.0078 151.891,61.8359 118.539,65.6445 94.4961,95.8984 98.3164,129.258 Z m -9.8437,1.133 C 84.0391,91.6016 111.977,56.4258 150.758,51.9922 c 38.797,-4.4531 73.961,23.4961 78.414,62.2848 4.433,38.809 -23.52,73.965 -62.301,78.418 -38.781,4.434 -73.9647,-23.535 -78.3983,-62.304" /><path
         id="path50"
         style="fill:none;stroke:#231f20;stroke-width:2;stroke-linecap:butt;stroke-linejoin:miter;stroke-miterlimit:4;stroke-dasharray:none;stroke-opacity:1"
         d="m 98.3164,129.258 c 3.8166,33.379 34.0706,57.422 67.4416,53.594 33.351,-3.829 57.379,-34.082 53.566,-67.442 C 215.496,82.0508 185.25,58.0078 151.891,61.8359 118.539,65.6445 94.4961,95.8984 98.3164,129.258 Z m -9.8437,1.133 C 84.0391,91.6016 111.977,56.4258 150.758,51.9922 c 38.797,-4.4531 73.961,23.4961 78.414,62.2848 4.433,38.809 -23.52,73.965 -62.301,78.418 -38.781,4.434 -73.9647,-23.535 -78.3983,-62.304 z" /><path
         id="path52"
         style="fill:#087bbb;fill-opacity:1;fill-rule:nonzero;stroke:none"
         d="m 187.172,83.7305 c 1.582,0 2.883,1.289 2.883,2.8906 l 0,35.2739 c 0,1.589 -1.301,2.878 -2.883,2.878 l -54.715,0 c -1.598,0 -2.887,-1.289 -2.887,-2.878 l 0,-35.2739 c 0,-1.6016 1.289,-2.8906 2.887,-2.8906 l 54.715,0" /><path
         id="path54"
         style="fill:none;stroke:#ffffff;stroke-width:3;stroke-linecap:round;stroke-linejoin:round;stroke-miterlimit:4;stroke-dasharray:none;stroke-opacity:1"
         d="m 187.172,83.7305 c 1.582,0 2.883,1.289 2.883,2.8906 l 0,35.2739 c 0,1.589 -1.301,2.878 -2.883,2.878 l -54.715,0 c -1.598,0 -2.887,-1.289 -2.887,-2.878 l 0,-35.2739 c 0,-1.6016 1.289,-2.8906 2.887,-2.8906 l 54.715,0 z" /><path
         id="path56"
         style="fill:#087bbb;fill-opacity:1;fill-rule:nonzero;stroke:none"
         d="m 190.055,124.852 11.515,11.515 -60.48,0 -11.52,-11.515 60.485,0" /><path
         id="path58"
         style="fill:none;stroke:#ffffff;stroke-width:3;stroke-linecap:round;stroke-linejoin:round;stroke-miterlimit:4;stroke-dasharray:none;stroke-opacity:1"
         d="m 190.055,124.852 11.515,11.515 -60.48,0 -11.52,-11.515 60.485,0 z" /><path
         id="path60"
         style="fill:#087bbb;fill-opacity:1;fill-rule:nonzero;stroke:none"
         d="m 201.57,95.332 0,41.035 -11.515,-11.515 0,-41.0434 11.515,11.5234" /><path
         id="path62"
         style="fill:none;stroke:#ffffff;stroke-width:3;stroke-linecap:round;stroke-linejoin:round;stroke-miterlimit:4;stroke-dasharray:none;stroke-opacity:1"
         d="m 201.57,95.332 0,41.035 -11.515,-11.515 0,-41.0434 11.515,11.5234 z" /><path
         id="path64"
         style="fill:#087bbb;fill-opacity:1;fill-rule:nonzero;stroke:none"
         d="m 165.953,161.727 c -8.703,0 -15.762,-7.059 -15.762,-15.77 l 0.024,-14.004 c 0.117,-1.113 -1,-2.265 -2.672,-2.441 -1.668,-0.176 -3.48,0.652 -3.598,1.777 l 0,13.906 c 0,11.934 9.684,21.621 21.625,21.621 11.934,0 21.621,-9.687 21.621,-21.621 l 0,-15.175 c -0.117,-1.114 -1.316,-1.856 -3.007,-1.797 -1.532,0.039 -2.93,2.05 -2.813,3.164 l 0.07,14.57 c 0,8.711 -6.777,15.77 -15.488,15.77" /><path
         id="path66"
         style="fill:none;stroke:#ffffff;stroke-width:3;stroke-linecap:round;stroke-linejoin:round;stroke-miterlimit:4;stroke-dasharray:none;stroke-opacity:1"
         d="m 165.953,161.727 c -8.703,0 -15.762,-7.059 -15.762,-15.77 l 0.024,-14.004 c 0.117,-1.113 -1,-2.265 -2.672,-2.441 -1.668,-0.176 -3.48,0.652 -3.598,1.777 l 0,13.906 c 0,11.934 9.684,21.621 21.625,21.621 11.934,0 21.621,-9.687 21.621,-21.621 l 0,-15.175 c -0.117,-1.114 -1.316,-1.856 -3.007,-1.797 -1.532,0.039 -2.93,2.05 -2.813,3.164 l 0.07,14.57 c 0,8.711 -6.777,15.77 -15.488,15.77 z" /><path
         id="path68"
         style="fill:#ffffff;fill-opacity:1;fill-rule:nonzero;stroke:none"
         d="m 159.742,100.664 c 2.735,0 4.949,2.852 4.949,6.387 0,3.535 -2.214,6.387 -4.949,6.387 -2.734,0 -4.953,-2.852 -4.953,-6.387 0,-3.535 2.219,-6.387 4.953,-6.387" /><path
         id="path70"
         style="fill:#ffffff;fill-opacity:1;fill-rule:nonzero;stroke:none"
         d="m 161.215,94.1016 0,12.5584 -3.094,-2.265 0,-12.5591 3.094,2.2657" /></g></g></svg>