<?xml version="1.0" encoding="UTF-8" standalone="no"?>
<svg
   xmlns:dc="http://purl.org/dc/elements/1.1/"
   xmlns:cc="http://creativecommons.org/ns#"
   xmlns:rdf="http://www.w3.org/1999/02/22-rdf-syntax-ns#"
   xmlns:svg="http://www.w3.org/2000/svg"
   xmlns="http://www.w3.org/2000/svg"
   viewBox="0 0 47.5 31.25"
   height="31.25"
   width="47.5"
   xml:space="preserve"
   version="1.1"
   id="svg2"><metadata
     id="metadata8"><rdf:RDF><cc:Work
         rdf:about=""><dc:format>image/svg+xml</dc:format><dc:type
           rdf:resource="http://purl.org/dc/dcmitype/StillImage" /></cc:Work></rdf:RDF></metadata><defs
     id="defs6" /><g
     transform="matrix(1.25,0,0,-1.25,0,31.25)"
     id="g10"><g
       transform="scale(0.1,0.1)"
       id="g12"><path
         id="path14"
         style="fill:#087bbb;fill-opacity:1;fill-rule:nonzero;stroke:none"
         d="m 5.66016,1.51953 333.16,0 0,194.531 -333.16,0 0,-194.531 z" /><path
         id="path16"
         style="fill:none;stroke:#ffffff;stroke-width:3.99993992;stroke-linecap:butt;stroke-linejoin:miter;stroke-miterlimit:4;stroke-dasharray:none;stroke-opacity:1"
         d="m 5.66016,1.51953 333.16,0 0,194.531 -333.16,0 0,-194.531 z" /><path
         id="path18"
         style="fill:#087bbb;fill-opacity:1;fill-rule:nonzero;stroke:none"
         d="m 378.711,59.8789 -39.883,-58.35937 0,194.53147 39.883,48.359 0,-184.5311" /><path
         id="path20"
         style="fill:none;stroke:#ffffff;stroke-width:3.99993992;stroke-linecap:butt;stroke-linejoin:miter;stroke-miterlimit:4;stroke-dasharray:none;stroke-opacity:1"
         d="m 378.711,59.8789 -39.883,-58.35937 0,194.53147 39.883,48.359 0,-184.5311 z" /><path
         id="path22"
         style="fill:#087bbb;fill-opacity:1;fill-rule:nonzero;stroke:none"
         d="m 65.5117,244.41 313.1993,0 -39.883,-48.359 -333.16784,0 59.85154,48.359" /><path
         id="path24"
         style="fill:none;stroke:#ffffff;stroke-width:3.99993992;stroke-linecap:butt;stroke-linejoin:miter;stroke-miterlimit:4;stroke-dasharray:none;stroke-opacity:1"
         d="m 65.5117,244.41 313.1993,0 -39.883,-48.359 -333.16784,0 59.85154,48.359 z" /><path
         id="path26"
         style="fill:#ffffff;fill-opacity:1;fill-rule:nonzero;stroke:none"
         d="m 165.199,79.4492 0,-26.0078 -19.418,0.3867 27.418,-42.539 29.102,42.539 -20.313,-0.3867 0,26.0078" /><path
         id="path28"
         style="fill:#ffffff;fill-opacity:1;fill-rule:nonzero;stroke:none"
         d="m 218.238,95.1992 -144.2575,0 -0.6602,18.6718 -42.582,-27.1522 42.582,-29.379 0.6602,21.0586 89.3785,0" /><path
         id="path30"
         style="fill:#ffffff;fill-opacity:1;fill-rule:nonzero;stroke:none"
         d="m 184.379,78.4414 94.801,0 0.66,-18.6719 42.582,27.1407 -42.582,28.5588 -0.66,-20.2385 -147.071,0" /><g
         transform="scale(10,10)"
         id="g32"><text
           id="text34"
           style="font-variant:normal;font-weight:bold;font-size:7px;font-family:Helvetica;-inkscape-font-specification:Helvetica-Bold;writing-mode:lr-tb;fill:#ffffff;fill-opacity:1;fill-rule:nonzero;stroke:none"
           transform="matrix(1,0,0,-1,9.31289,11.9816)"><tspan
             id="tspan36"
             y="0"
             x="0 5.0539999 10.108">ADM</tspan></text>
</g></g></g></svg>