<?xml version="1.0" encoding="UTF-8" standalone="no"?>
<svg
   xmlns:dc="http://purl.org/dc/elements/1.1/"
   xmlns:cc="http://creativecommons.org/ns#"
   xmlns:rdf="http://www.w3.org/1999/02/22-rdf-syntax-ns#"
   xmlns:svg="http://www.w3.org/2000/svg"
   xmlns="http://www.w3.org/2000/svg"
   viewBox="0 0 47.875 31.862499"
   height="31.862499"
   width="47.875"
   xml:space="preserve"
   version="1.1"
   id="svg2"><metadata
     id="metadata8"><rdf:RDF><cc:Work
         rdf:about=""><dc:format>image/svg+xml</dc:format><dc:type
           rdf:resource="http://purl.org/dc/dcmitype/StillImage" /></cc:Work></rdf:RDF></metadata><defs
     id="defs6"><clipPath
       id="clipPath18"
       clipPathUnits="userSpaceOnUse"><path
         id="path20"
         d="m 0,4.92578 380,0 0,250 -380,0 0,-250 z" /></clipPath></defs><g
     transform="matrix(1.25,0,0,-1.25,0,31.8625)"
     id="g10"><g
       transform="scale(0.1,0.1)"
       id="g12"><g
         id="g14"><g
           clip-path="url(#clipPath18)"
           id="g16"><path
             id="path22"
             style="fill:#087bbb;fill-opacity:1;fill-rule:nonzero;stroke:none"
             d="m 5.65625,6.46484 333.16,0 0,194.516 -333.16,0 0,-194.516 z" /><path
             id="path24"
             style="fill:none;stroke:#ffffff;stroke-width:3.99993992;stroke-linecap:butt;stroke-linejoin:miter;stroke-miterlimit:4;stroke-dasharray:none;stroke-opacity:1"
             d="m 5.65625,6.46484 333.16,0 0,194.516 -333.16,0 0,-194.516 z" /><path
             id="path26"
             style="fill:#087bbb;fill-opacity:1;fill-rule:nonzero;stroke:none"
             d="m 378.723,64.8281 -39.907,-58.36326 0,194.51516 39.907,48.379 0,-184.5309" /><path
             id="path28"
             style="fill:none;stroke:#ffffff;stroke-width:3.99993992;stroke-linecap:butt;stroke-linejoin:miter;stroke-miterlimit:4;stroke-dasharray:none;stroke-opacity:1"
             d="m 378.723,64.8281 -39.907,-58.36326 0,194.51516 39.907,48.379 0,-184.5309 z" /><path
             id="path30"
             style="fill:#087bbb;fill-opacity:1;fill-rule:nonzero;stroke:none"
             d="m 65.4961,249.359 313.2269,0 -39.907,-48.379 -333.15975,0 59.83985,48.379" /><path
             id="path32"
             style="fill:none;stroke:#ffffff;stroke-width:3.99993992;stroke-linecap:butt;stroke-linejoin:miter;stroke-miterlimit:4;stroke-dasharray:none;stroke-opacity:1"
             d="m 65.4961,249.359 313.2269,0 -39.907,-48.379 -333.15975,0 59.83985,48.379 z" /><path
             id="path34"
             style="fill:#ffffff;fill-opacity:1;fill-rule:nonzero;stroke:none"
             d="m 165.203,84.3789 0,-26.0156 -19.433,0.4101 27.421,-42.5625 29.106,42.5625 -20.293,-0.4101 0,26.0156" /><path
             id="path36"
             style="fill:#ffffff;fill-opacity:1;fill-rule:nonzero;stroke:none"
             d="m 218.254,100.102 -144.2618,0 L 73.332,118.793 30.7539,91.6367 73.332,62.25 l 0.6602,21.0547 89.3748,0" /><path
             id="path38"
             style="fill:#ffffff;fill-opacity:1;fill-rule:nonzero;stroke:none"
             d="m 184.363,83.3633 94.809,0 0.683,-18.6914 42.579,27.1601 -42.579,28.563 -0.683,-20.235 -147.055,0" /><g
             transform="scale(10,10)"
             id="g40"><text
               id="text42"
               style="font-variant:normal;font-weight:bold;font-size:7px;font-family:Helvetica;-inkscape-font-specification:Helvetica-Bold;writing-mode:lr-tb;fill:#ffffff;fill-opacity:1;fill-rule:nonzero;stroke:none"
               transform="matrix(1,0,0,-1,9.31289,12.4742)"><tspan
                 id="tspan44"
                 y="0"
                 x="0 5.0539999 10.108">ADM</tspan></text>
</g></g></g></g></g></svg>