<?xml version="1.0" encoding="UTF-8" standalone="no"?>
<svg
   xmlns:dc="http://purl.org/dc/elements/1.1/"
   xmlns:cc="http://creativecommons.org/ns#"
   xmlns:rdf="http://www.w3.org/1999/02/22-rdf-syntax-ns#"
   xmlns:svg="http://www.w3.org/2000/svg"
   xmlns="http://www.w3.org/2000/svg"
   viewBox="0 0 41.625 48.0625"
   height="48.0625"
   width="41.625"
   xml:space="preserve"
   version="1.1"
   id="svg2"><metadata
     id="metadata8"><rdf:RDF><cc:Work
         rdf:about=""><dc:format>image/svg+xml</dc:format><dc:type
           rdf:resource="http://purl.org/dc/dcmitype/StillImage" /></cc:Work></rdf:RDF></metadata><defs
     id="defs6"><clipPath
       id="clipPath18"
       clipPathUnits="userSpaceOnUse"><path
         id="path20"
         d="M 0,4 0,384 330,384 330,4 0,4 Z" /></clipPath></defs><g
     transform="matrix(1.25,0,0,-1.25,0,48.0625)"
     id="g10"><g
       transform="scale(0.1,0.1)"
       id="g12"><g
         id="g14"><g
           clip-path="url(#clipPath18)"
           id="g16"><path
             id="path22"
             style="fill:#02709f;fill-opacity:1;fill-rule:nonzero;stroke:none"
             d="m 122.82,338.414 c 0,-24.414 -19.785,-44.211 -44.2067,-44.211 -24.4219,0 -44.207,19.797 -44.207,44.211 0,24.422 19.7851,44.219 44.207,44.219 24.4217,0 44.2067,-19.797 44.2067,-44.219" /><path
             id="path24"
             style="fill:none;stroke:#ffffff;stroke-width:3.99993992;stroke-linecap:butt;stroke-linejoin:miter;stroke-miterlimit:4;stroke-dasharray:none;stroke-opacity:1"
             d="m 122.82,338.414 c 0,-24.414 -19.785,-44.211 -44.2067,-44.211 -24.4219,0 -44.207,19.797 -44.207,44.211 0,24.422 19.7851,44.219 44.207,44.219 24.4217,0 44.2067,-19.797 44.2067,-44.219 z" /><path
             id="path26"
             style="fill:#02709f;fill-opacity:1;fill-rule:nonzero;stroke:none"
             d="m 147.102,2.00391 183.855,0 0,195.441 -183.855,0 0,-195.441 z" /><path
             id="path28"
             style="fill:none;stroke:#ffffff;stroke-width:3.99993992;stroke-linecap:butt;stroke-linejoin:miter;stroke-miterlimit:4;stroke-dasharray:none;stroke-opacity:1"
             d="m 147.102,2.00391 183.855,0 0,195.441 -183.855,0 0,-195.441 z" /><path
             id="path30"
             style="fill:#02709f;fill-opacity:1;fill-rule:nonzero;stroke:none"
             d="m 211.453,198.004 106.965,0 0,24.3633 -106.965,0 0,-24.3633 z" /><path
             id="path32"
             style="fill:none;stroke:#ffffff;stroke-width:3.99993992;stroke-linecap:butt;stroke-linejoin:miter;stroke-miterlimit:4;stroke-dasharray:none;stroke-opacity:1"
             d="m 211.453,198.004 106.965,0 0,24.3633 -106.965,0 0,-24.3633 z" /><path
             id="path34"
             style="fill:#02709f;fill-opacity:1;fill-rule:nonzero;stroke:none"
             d="m 296.758,284.574 0,-62.207 -83.281,0 0,83.274 73.527,-9.571 c 0,0 9.949,-0.988 9.754,-11.496" /><path
             id="path36"
             style="fill:none;stroke:#ffffff;stroke-width:3.99993992;stroke-linecap:butt;stroke-linejoin:miter;stroke-miterlimit:4;stroke-dasharray:none;stroke-opacity:1"
             d="m 296.758,284.574 0,-62.207 -83.281,0 0,83.274 73.527,-9.571 c 0,0 9.949,-0.988 9.754,-11.496 z" /><path
             id="path38"
             style="fill:#02709f;fill-opacity:1;fill-rule:nonzero;stroke:none"
             d="m 136.172,27.2578 -50.7814,0 0,60.043 -25.4687,0 0,-60.043 -49.98049,0 C 5.55469,27.2578 2,23.7031 2,19.3086 L 2,10.0313 C 2,5.63672 5.55469,2.08203 9.94141,2.08203 l 126.23059,0 c 4.387,0 7.937,3.55469 7.937,7.94927 l 0,9.2773 c 0,4.3945 -3.55,7.9492 -7.937,7.9492" /><path
             id="path40"
             style="fill:none;stroke:#ffffff;stroke-width:3.99993992;stroke-linecap:butt;stroke-linejoin:miter;stroke-miterlimit:4;stroke-dasharray:none;stroke-opacity:1"
             d="m 136.172,27.2578 -50.7814,0 0,60.043 -25.4687,0 0,-60.043 -49.98049,0 C 5.55469,27.2578 2,23.7031 2,19.3086 L 2,10.0313 C 2,5.63672 5.55469,2.08203 9.94141,2.08203 l 126.23059,0 c 4.387,0 7.937,3.55469 7.937,7.94927 l 0,9.2773 c 0,4.3945 -3.55,7.9492 -7.937,7.9492 z" /><path
             id="path42"
             style="fill:#02709f;fill-opacity:1;fill-rule:nonzero;stroke:none"
             d="m 138.398,115.367 -104.6675,0 0,148.692 c 0,4.843 -3.9141,8.757 -8.75,8.757 l -10.2461,0 c -4.83206,0 -8.74612,-3.914 -8.74612,-8.757 l 0,-167.6957 c 0,-4.8242 3.91406,-8.75 8.74612,-8.75 l 123.6636,0 c 4.832,0 8.75,3.9258 8.75,8.75 l 0,10.2537 c 0,4.824 -3.918,8.75 -8.75,8.75" /><path
             id="path44"
             style="fill:none;stroke:#ffffff;stroke-width:3.99993992;stroke-linecap:butt;stroke-linejoin:miter;stroke-miterlimit:4;stroke-dasharray:none;stroke-opacity:1"
             d="m 138.398,115.367 -104.6675,0 0,148.692 c 0,4.843 -3.9141,8.757 -8.75,8.757 l -10.2461,0 c -4.83206,0 -8.74612,-3.914 -8.74612,-8.757 l 0,-167.6957 c 0,-4.8242 3.91406,-8.75 8.74612,-8.75 l 123.6636,0 c 4.832,0 8.75,3.9258 8.75,8.75 l 0,10.2537 c 0,4.824 -3.918,8.75 -8.75,8.75 z" /><path
             id="path46"
             style="fill:#02709f;fill-opacity:1;fill-rule:nonzero;stroke:none"
             d="m 113.809,284.691 80.351,-58.25 c 3.406,-2.949 5.567,-7.324 5.567,-12.199 0,-8.906 -7.215,-16.121 -16.122,-16.121 -2.714,0 -6.3,0.906 -9.14,2.5 l -67.231,41.551 0,-75.449 37.942,-0.196 0,-48.562 -107.4104,0.195 0,160.215 c 0,0 0.7032,12.695 21.5313,12.695 l 38.6797,0 c 0,0 7.3554,-0.371 15.8324,-6.379" /><path
             id="path48"
             style="fill:none;stroke:#ffffff;stroke-width:3.99993992;stroke-linecap:butt;stroke-linejoin:miter;stroke-miterlimit:4;stroke-dasharray:none;stroke-opacity:1"
             d="m 113.809,284.691 80.351,-58.25 c 3.406,-2.949 5.567,-7.324 5.567,-12.199 0,-8.906 -7.215,-16.121 -16.122,-16.121 -2.714,0 -6.3,0.906 -9.14,2.5 l -67.231,41.551 0,-75.449 37.942,-0.196 0,-48.562 -107.4104,0.195 0,160.215 c 0,0 0.7032,12.695 21.5313,12.695 l 38.6797,0 c 0,0 7.3554,-0.371 15.8324,-6.379 z" /></g></g></g></g></svg>