<?xml version="1.0" encoding="UTF-8" standalone="no"?>
<svg
   xmlns:dc="http://purl.org/dc/elements/1.1/"
   xmlns:cc="http://creativecommons.org/ns#"
   xmlns:rdf="http://www.w3.org/1999/02/22-rdf-syntax-ns#"
   xmlns:svg="http://www.w3.org/2000/svg"
   xmlns="http://www.w3.org/2000/svg"
   viewBox="0 0 41.25 47.5"
   height="47.5"
   width="41.25"
   xml:space="preserve"
   version="1.1"
   id="svg2"><metadata
     id="metadata8"><rdf:RDF><cc:Work
         rdf:about=""><dc:format>image/svg+xml</dc:format><dc:type
           rdf:resource="http://purl.org/dc/dcmitype/StillImage" /></cc:Work></rdf:RDF></metadata><defs
     id="defs6" /><g
     transform="matrix(1.25,0,0,-1.25,0,47.5)"
     id="g10"><g
       transform="scale(0.1,0.1)"
       id="g12"><path
         id="path14"
         style="fill:#02709f;fill-opacity:1;fill-rule:nonzero;stroke:none"
         d="m 122.809,334.41 c 0,-24.41 -19.758,-44.211 -44.2192,-44.211 -24.4101,0 -44.1796,19.801 -44.1796,44.211 0,24.418 19.7695,44.219 44.1796,44.219 24.4612,0 44.2192,-19.801 44.2192,-44.219" /><path
         id="path16"
         style="fill:none;stroke:#ffffff;stroke-width:3.99993992;stroke-linecap:butt;stroke-linejoin:miter;stroke-miterlimit:4;stroke-dasharray:none;stroke-opacity:1"
         d="m 122.809,334.41 c 0,-24.41 -19.758,-44.211 -44.2192,-44.211 -24.4101,0 -44.1796,19.801 -44.1796,44.211 0,24.418 19.7695,44.219 44.1796,44.219 24.4612,0 44.2192,-19.801 44.2192,-44.219 z" /><path
         id="path18"
         style="fill:#02709f;fill-opacity:1;fill-rule:nonzero;stroke:none"
         d="m 147.109,0 183.832,0 0,193.441 -183.832,0 0,-193.441 z" /><path
         id="path20"
         style="fill:none;stroke:#ffffff;stroke-width:3.99993992;stroke-linecap:butt;stroke-linejoin:miter;stroke-miterlimit:4;stroke-dasharray:none;stroke-opacity:1"
         d="m 147.109,-1.98828 183.832,0 0,195.43 -183.832,0 0,-195.43 z" /><path
         id="path22"
         style="fill:#02709f;fill-opacity:1;fill-rule:nonzero;stroke:none"
         d="m 211.449,194.02 106.992,0 0,24.3398 -106.992,0 0,-24.3398 z" /><path
         id="path24"
         style="fill:none;stroke:#ffffff;stroke-width:3.99993992;stroke-linecap:butt;stroke-linejoin:miter;stroke-miterlimit:4;stroke-dasharray:none;stroke-opacity:1"
         d="m 211.449,194.02 106.992,0 0,24.3398 -106.992,0 0,-24.3398 z" /><path
         id="path26"
         style="fill:#02709f;fill-opacity:1;fill-rule:nonzero;stroke:none"
         d="m 296.762,280.59 0,-62.231 -83.282,0 0,83.282 73.508,-9.571 c 0,0 9.961,-0.98 9.774,-11.48" /><path
         id="path28"
         style="fill:none;stroke:#ffffff;stroke-width:3.99993992;stroke-linecap:butt;stroke-linejoin:miter;stroke-miterlimit:4;stroke-dasharray:none;stroke-opacity:1"
         d="m 296.762,280.59 0,-62.231 -83.282,0 0,83.282 73.508,-9.571 c 0,0 9.961,-0.98 9.774,-11.48 z" /><path
         id="path30"
         style="fill:#02709f;fill-opacity:1;fill-rule:nonzero;stroke:none"
         d="m 136.172,23.2383 -50.7814,0 0,60.082 -25.4687,0 0,-60.082 -50.00002,0 c -4.3711,0 -7.9336,-3.5469 -7.9336,-7.9297 l 0,-9.28907 c 0,-4.3789 3.5625,-7.92969 7.9336,-7.92969 l 126.25012,0 c 4.379,0 7.93,3.55079 7.93,7.92969 l 0,9.28907 c 0,4.3828 -3.551,7.9297 -7.93,7.9297" /><path
         id="path32"
         style="fill:none;stroke:#ffffff;stroke-width:3.99993992;stroke-linecap:butt;stroke-linejoin:miter;stroke-miterlimit:4;stroke-dasharray:none;stroke-opacity:1"
         d="m 136.172,23.2383 -50.7814,0 0,60.082 -25.4687,0 0,-60.082 -50.00002,0 c -4.3711,0 -7.9336,-3.5469 -7.9336,-7.9297 l 0,-9.28907 c 0,-4.3789 3.5625,-7.92969 7.9336,-7.92969 l 126.25012,0 c 4.379,0 7.93,3.55079 7.93,7.92969 l 0,9.28907 c 0,4.3828 -3.551,7.9297 -7.93,7.9297 z" /><path
         id="path34"
         style="fill:#02709f;fill-opacity:1;fill-rule:nonzero;stroke:none"
         d="m 138.398,111.371 -104.648,0 0,148.707 c 0,4.801 -3.9492,8.75 -8.75,8.75 l -10.2695,0 c -4.85159,0 -8.75003,-3.949 -8.75003,-8.75 l 0,-167.6991 c 0,-4.8398 3.89844,-8.75 8.75003,-8.75 l 123.6675,0 c 4.84,0 8.75,3.9102 8.75,8.75 l 0,10.2421 c 0,4.801 -3.91,8.75 -8.75,8.75" /><path
         id="path36"
         style="fill:none;stroke:#ffffff;stroke-width:3.99993992;stroke-linecap:butt;stroke-linejoin:miter;stroke-miterlimit:4;stroke-dasharray:none;stroke-opacity:1"
         d="m 138.398,111.371 -104.648,0 0,148.707 c 0,4.801 -3.9492,8.75 -8.75,8.75 l -10.2695,0 c -4.85159,0 -8.75003,-3.949 -8.75003,-8.75 l 0,-167.6991 c 0,-4.8398 3.89844,-8.75 8.75003,-8.75 l 123.6675,0 c 4.84,0 8.75,3.9102 8.75,8.75 l 0,10.2421 c 0,4.801 -3.91,8.75 -8.75,8.75 z" /><path
         id="path38"
         style="fill:#02709f;fill-opacity:1;fill-rule:nonzero;stroke:none"
         d="m 113.828,280.699 80.313,-58.277 c 3.437,-2.934 5.589,-7.301 5.589,-12.192 0,-8.902 -7.23,-16.128 -16.14,-16.128 -2.692,0 -6.289,0.937 -9.141,2.5 l -67.219,41.558 0,-75.43 37.969,-0.191 0,-48.559 -107.4295,0.161 0,160.238 c 0,0 0.711,12.691 21.5313,12.691 l 38.668,0 c 0,0 7.3402,-0.39 15.8592,-6.371" /><path
         id="path40"
         style="fill:none;stroke:#ffffff;stroke-width:3.99993992;stroke-linecap:butt;stroke-linejoin:miter;stroke-miterlimit:4;stroke-dasharray:none;stroke-opacity:1"
         d="m 113.828,280.699 80.313,-58.277 c 3.437,-2.934 5.589,-7.301 5.589,-12.192 0,-8.902 -7.23,-16.128 -16.14,-16.128 -2.692,0 -6.289,0.937 -9.141,2.5 l -67.219,41.558 0,-75.43 37.969,-0.191 0,-48.559 -107.4295,0.161 0,160.238 c 0,0 0.711,12.691 21.5313,12.691 l 38.668,0 c 0,0 7.3402,-0.39 15.8592,-6.371 z" /></g></g></svg>