<svg xmlns="http://www.w3.org/2000/svg" viewBox="0 0 35 51.25" height="51.25" width="35"><defs><clipPath id="a"><path d="M0 10h280v400H0V10z"/></clipPath></defs><g clip-path="url(#a)" transform="matrix(.13 0 0 -.13 0 51.25)"><path d="M39.059 285.898L4.839 251.84V13.281h239.61l34.223 34.059v238.558H39.059" fill="#231f20"/><path d="M39.059 285.898L4.839 251.84V13.281h239.61l34.223 34.059v238.558H39.059z" fill="none" stroke="#fff" stroke-width="4"/><path d="M4.84 251.84h239.609l34.223 34.058H39.059L4.839 251.84" fill="#231f20"/><path d="M4.84 251.84h239.609l34.223 34.058H39.059L4.839 251.84z" fill="none" stroke="#fff" stroke-width="4"/><path d="M244.449 251.84l34.223 34.058V47.34L244.449 13.28V251.84" fill="#231f20"/><path d="M244.449 251.84l34.223 34.058V47.34L244.449 13.28V251.84z" fill="none" stroke="#fff" stroke-width="4"/><path d="M39.059 285.898L4.839 251.84V13.281h239.61l34.223 34.059v238.558H39.059" fill="#087bbb"/><path d="M39.059 285.898L4.839 251.84V13.281h239.61l34.223 34.059v238.558H39.059z" fill="none" stroke="#fff" stroke-width="4"/><path d="M4.84 251.84h239.609l34.223 34.058" fill="#231f20"/><path d="M4.84 251.84h239.609l34.223 34.058M244.449 251.84V13.281" fill="none" stroke="#fff" stroke-width="4" stroke-miterlimit="1"/><path d="M39.059 405.199L4.839 371.09V251.84h239.61l34.223 34.058v119.301H39.059" fill="#231f20"/><path d="M39.059 405.199L4.839 371.09V251.84h239.61l34.223 34.058v119.301H39.059z" fill="none" stroke="#fff" stroke-width="4"/><path d="M4.84 371.09h239.609l34.223 34.109H39.059L4.839 371.09" fill="#231f20"/><path d="M4.84 371.09h239.609l34.223 34.109H39.059L4.839 371.09z" fill="none" stroke="#fff" stroke-width="4"/><path d="M244.449 371.09l34.223 34.109V285.898l-34.223-34.058v119.25" fill="#231f20"/><path d="M244.449 371.09l34.223 34.109V285.898l-34.223-34.058v119.25z" fill="none" stroke="#fff" stroke-width="4"/><path d="M39.059 405.199L4.839 371.09V251.84h239.61l34.223 34.058v119.301H39.059" fill="#087bbb"/><path d="M39.059 405.199L4.839 371.09V251.84h239.61l34.223 34.058v119.301H39.059z" fill="none" stroke="#fff" stroke-width="4"/><path d="M4.84 371.09h239.609l34.223 34.109M244.449 371.09V251.84" fill="none" stroke="#fff" stroke-width="4" stroke-miterlimit="1"/><path d="M21.95 320h68.44v34.059H21.95V320z" fill="#fff"/><path d="M39.059 47.34H210.23v170.39H39.059V47.34z" fill="#231f20"/><path d="M39.059 47.34H210.23v170.39H39.059V47.34z" fill="none" stroke="#fff" stroke-width="4" stroke-miterlimit="1"/><path d="M73.281 81.441h102.7v102.227H73.28V81.441zM158.871 320h68.48v34.059h-68.48V320zM21.95 268.871h68.44v34.059H21.95V268.87zM158.871 268.871h68.48v34.059h-68.48V268.87z" fill="#fff"/><path d="M90.39 337.031h68.481M90.39 285.898h68.481" fill="none" stroke="#fff" stroke-width="4" stroke-miterlimit="1"/><path d="M90.39 302.93L158.872 320" fill="#231f20"/><path d="M90.39 302.93L158.872 320" fill="none" stroke="#fff" stroke-width="4" stroke-miterlimit="1"/><path d="M90.39 320l68.481-17.07" fill="#231f20"/><path d="M90.39 320l68.481-17.07" fill="none" stroke="#fff" stroke-width="4" stroke-miterlimit="1"/></g></svg>