<svg xmlns="http://www.w3.org/2000/svg" viewBox="0 0 53.75 52.5" height="52.5" width="53.75"><path d="M52.265 16.926v23.999L39.672 50.998h-26.17L.414 40.925V16.926" fill="#087bbb"/><path d="M52.265 16.926v23.998L39.672 50.998h-26.17L.414 40.924V16.926M13.271 50.837V27.004M39.623 50.837V27.004" fill="none" stroke="#fff" stroke-width=".5"/><path d="M52.265 10.236v6.954L39.672 27.268h-26.17L.414 17.19v-6.954" fill="#087bbb"/><path d="M52.265 10.236v6.953L39.672 27.267h-26.17L.414 17.19v-6.954" fill="none" stroke="#fff" stroke-width=".5"/><path d="M39.424.353H13.745L.415 10.236l13.087 10.079h26.17l12.593-10.079L39.424.353" fill="#087bbb"/><path d="M39.424.353H13.745L.415 10.236l13.087 10.079h26.17l12.593-10.08L39.424.354zM13.271 27.107v-6.793M39.623 27.107v-6.793" fill="none" stroke="#fff" stroke-width=".5"/><path d="M21.524 6.486l1.679 2.984-7.28 1.117 1.66-1.186L6.66 6.681l2.935-1.87 10.536 2.603 1.393-.928M31.079 14.123L30.005 11.1l6.553-.805-1.192.917 10.625 2.647-2.738 1.871-10.543-2.809-1.631 1.202M28.179 5.426l7.382-1.44-.146 3.105-1.783-.477-3.75 2.66-3.33-.741L30.41 5.94l-2.231-.514M24.253 16.301l-6.988.777-.019-3.204 1.948.576 4.034-2.954 3.31.815-4.306 3.228 2.02.762" fill="#fff"/><path d="M21.235 10.812l6.137.865M8.276 9.016l6.314.883M5.825 5.978l5.079.825M11.48 6.623l-7.623 5.385M17.71 7.853L7.373 15.251M24.58 8.678l-12.792 9.698M11.127 12.536l6.348.888M38.701 15.28l6.314.88M25.918 13.498l6.314.879M28.868 10.924l-12.237 9.17M35.65 12.018L24.966 19.9M41.909 12.888l-9.068 6.86M49.067 12.633l-6.352 5.323M15.743 15.202l6.347.884M28.711 17.013l6.343.884M19.268.578l-8.2 6.265M27.754.27L17.612 8.117M42.231 7.19l5.494 1.03M34.898.852L21.772 10.72M41.006 2.282L27.98 11.608M44.756 5.095l-9.854 7.456M48.931 7.751l-7.46 5.717M19.273 7.11l6.342.885M32.241 8.919l6.343.883M45.083 10.71l4.986.791" fill="none" stroke="#fff" stroke-width=".375"/><text style="-inkscape-font-specification:Helvetica-Bold" transform="matrix(1.25 0 0 1.25 15.359 42.872)" font-weight="700" font-size="9" font-family="Helvetica" fill="#fff"><tspan y="0" x="0 7.0019999 12.501">QFP</tspan></text></svg>