<?xml version="1.0" encoding="UTF-8" standalone="no"?>
<svg
   xmlns:dc="http://purl.org/dc/elements/1.1/"
   xmlns:cc="http://creativecommons.org/ns#"
   xmlns:rdf="http://www.w3.org/1999/02/22-rdf-syntax-ns#"
   xmlns:svg="http://www.w3.org/2000/svg"
   xmlns="http://www.w3.org/2000/svg"
   viewBox="0 0 60.987499 30.612499"
   height="30.612499"
   width="60.987499"
   xml:space="preserve"
   version="1.1"
   id="svg2"><metadata
     id="metadata8"><rdf:RDF><cc:Work
         rdf:about=""><dc:format>image/svg+xml</dc:format><dc:type
           rdf:resource="http://purl.org/dc/dcmitype/StillImage" /></cc:Work></rdf:RDF></metadata><defs
     id="defs6"><clipPath
       id="clipPath18"
       clipPathUnits="userSpaceOnUse"><path
         id="path20"
         d="M 0,4 0,245 488,245 488,4 0,4 Z" /></clipPath></defs><g
     transform="matrix(1.25,0,0,-1.25,0,30.6125)"
     id="g10"><g
       transform="scale(0.1,0.1)"
       id="g12"><g
         id="g14"><g
           clip-path="url(#clipPath18)"
           id="g16"><path
             id="path22"
             style="fill:#087bbb;fill-opacity:1;fill-rule:nonzero;stroke:none"
             d="m 5.65625,120.738 144.29275,116.68 333.082,0 -119.394,-116.68 -357.98075,0" /><path
             id="path24"
             style="fill:none;stroke:#ffffff;stroke-width:3.99993992;stroke-linecap:butt;stroke-linejoin:miter;stroke-miterlimit:4;stroke-dasharray:none;stroke-opacity:1"
             d="m 5.65625,120.738 144.29275,116.68 333.082,0 -119.394,-116.68 -357.98075,0 z" /><path
             id="path26"
             style="fill:#087bbb;fill-opacity:1;fill-rule:nonzero;stroke:none"
             d="m 363.637,4.77344 119.394,117.41056 0,117.898 -119.394,-119.344 0,-115.96456" /><path
             id="path28"
             style="fill:none;stroke:#ffffff;stroke-width:3.99993992;stroke-linecap:butt;stroke-linejoin:miter;stroke-miterlimit:4;stroke-dasharray:none;stroke-opacity:1"
             d="m 363.637,4.77344 119.394,117.41056 0,117.898 -119.394,-119.344 0,-115.96456 z" /><path
             id="path30"
             style="fill:#087bbb;fill-opacity:1;fill-rule:nonzero;stroke:none"
             d="m 6.14453,4.67969 357.492,0 0,116.059 -357.492,0 0,-116.059 z" /><path
             id="path32"
             style="fill:none;stroke:#ffffff;stroke-width:3.99993992;stroke-linecap:butt;stroke-linejoin:miter;stroke-miterlimit:4;stroke-dasharray:none;stroke-opacity:1"
             d="m 6.14453,4.67969 357.492,0 0,116.059 -357.492,0 0,-116.059 z" /><path
             id="path34"
             style="fill:#ffffff;fill-opacity:1;fill-rule:nonzero;stroke:none"
             d="m 217.98,102.711 c 0,0 4.786,0.535 5.86,-4.2579 l 1.055,-18.3125 31.925,-5.3203 3.184,6.9141 -7.988,22.0386 c -40.953,10.11 -68.278,6.915 -68.278,6.915 l 1.582,0 c 0,0 -21.558,3.195 -62.539,-6.915 l -7.968,-22.0386 3.183,-6.9141 31.938,5.3203 1.05,18.3125 c 1.055,4.7929 5.864,4.2579 5.864,4.2579 l 61.132,0" /><path
             id="path36"
             style="fill:#231f20;fill-opacity:1;fill-rule:nonzero;stroke:none"
             d="m 153.895,15.9141 66.9727,0 0,68.4258 -66.9727,0 0,-68.4258 z" /><path
             id="path38"
             style="fill:none;stroke:#ffffff;stroke-width:3.99993992;stroke-linecap:butt;stroke-linejoin:miter;stroke-miterlimit:1;stroke-dasharray:none;stroke-opacity:1"
             d="m 153.895,15.9141 66.9727,0 0,68.4258 -66.9727,0 0,-68.4258 z" /><g
             transform="scale(10,10)"
             id="g40"><text
               id="text42"
               style="font-variant:normal;font-weight:bold;font-size:8.14509964px;font-family:Helvetica;-inkscape-font-specification:Helvetica-Bold;writing-mode:lr-tb;fill:#ffffff;fill-opacity:1;fill-rule:nonzero;stroke:none"
               transform="matrix(1,0,0,-1,16.391,2.06016)"><tspan
                 id="tspan44"
                 y="0"
                 x="0">V</tspan></text>
</g><path
             id="path46"
             style="fill:#a7a5a6;fill-opacity:1;fill-rule:nonzero;stroke:none"
             d="m 139.719,148.297 c 0,-6.906 -14.555,-12.5 -32.5,-12.5 -17.9495,0 -32.5002,5.594 -32.5002,12.5 0,6.902 14.5507,12.5 32.5002,12.5 17.945,0 32.5,-5.598 32.5,-12.5" /><path
             id="path48"
             style="fill:#ffffff;fill-opacity:1;fill-rule:nonzero;stroke:none"
             d="m 139.719,156.246 c 0,-6.906 -14.555,-12.5 -32.5,-12.5 -17.9495,0 -32.5002,5.594 -32.5002,12.5 0,6.902 14.5507,12.5 32.5002,12.5 17.945,0 32.5,-5.598 32.5,-12.5" /></g></g></g></g></svg>