<?xml version="1.0" encoding="UTF-8" standalone="no"?>
<svg
   xmlns:dc="http://purl.org/dc/elements/1.1/"
   xmlns:cc="http://creativecommons.org/ns#"
   xmlns:rdf="http://www.w3.org/1999/02/22-rdf-syntax-ns#"
   xmlns:svg="http://www.w3.org/2000/svg"
   xmlns="http://www.w3.org/2000/svg"
   viewBox="0 0 41.25 45"
   height="45"
   width="41.25"
   xml:space="preserve"
   version="1.1"
   id="svg2"><metadata
     id="metadata8"><rdf:RDF><cc:Work
         rdf:about=""><dc:format>image/svg+xml</dc:format><dc:type
           rdf:resource="http://purl.org/dc/dcmitype/StillImage" /></cc:Work></rdf:RDF></metadata><defs
     id="defs6" /><g
     transform="matrix(1.25,0,0,-1.25,0,45)"
     id="g10"><g
       transform="scale(0.1,0.1)"
       id="g12"><path
         id="path14"
         style="fill:#231f20;fill-opacity:1;fill-rule:nonzero;stroke:none"
         d="M 12.1914,246.289 33.75,269.219" /><path
         id="path16"
         style="fill:none;stroke:#ffffff;stroke-width:3.99993992;stroke-linecap:butt;stroke-linejoin:miter;stroke-miterlimit:4;stroke-dasharray:none;stroke-opacity:1"
         d="M 12.1914,246.289 33.75,269.219" /><path
         id="path18"
         style="fill:#087bbb;fill-opacity:1;fill-rule:nonzero;stroke:none"
         d="M 281.988,159.488 2.03125,319.531 2.03125,-0.550781 281.988,159.488" /><path
         id="path20"
         style="fill:none;stroke:#ffffff;stroke-width:3.99993992;stroke-linecap:butt;stroke-linejoin:miter;stroke-miterlimit:4;stroke-dasharray:none;stroke-opacity:1"
         d="M 281.988,159.488 2.03125,319.531 2.03125,-0.550781 281.988,159.488 Z" /><path
         id="path22"
         style="fill:#087bbb;fill-opacity:1;fill-rule:nonzero;stroke:none"
         d="M 276.91,157.73 3.28125,312.73 48.2813,357.77 321.91,202.73 l -45,-45" /><path
         id="path24"
         style="fill:none;stroke:#ffffff;stroke-width:3.99993992;stroke-linecap:butt;stroke-linejoin:miter;stroke-miterlimit:4;stroke-dasharray:none;stroke-opacity:1"
         d="M 276.91,157.73 3.28125,312.73 48.2813,357.77 321.91,202.73 l -45,-45 z" /><path
         id="path26"
         style="fill:#ffffff;fill-opacity:1;fill-rule:nonzero;stroke:none"
         d="M 70.8203,236.211 32.5,207.422 78.3594,187.73 70.8203,236.211" /><path
         id="path28"
         style="fill:none;stroke:#ffffff;stroke-width:8.00002956;stroke-linecap:butt;stroke-linejoin:miter;stroke-miterlimit:3.8599999;stroke-dasharray:none;stroke-opacity:1"
         d="M 22.6992,257.27 54.4883,217.852" /><path
         id="path30"
         style="fill:#ffffff;fill-opacity:1;fill-rule:nonzero;stroke:none"
         d="M 70.8203,74.3008 32.5,103.09 78.3594,122.73 70.8203,74.3008" /><path
         id="path32"
         style="fill:none;stroke:#ffffff;stroke-width:8.00002956;stroke-linecap:butt;stroke-linejoin:miter;stroke-miterlimit:3.8599999;stroke-dasharray:none;stroke-opacity:1"
         d="M 22.6992,53.2383 54.4883,92.6602" /><path
         id="path34"
         style="fill:#ffffff;fill-opacity:1;fill-rule:nonzero;stroke:none"
         d="m 194.34,179.922 -1.371,-47.934 43.941,23.633 -42.57,24.301" /><path
         id="path36"
         style="fill:none;stroke:#ffffff;stroke-width:8.00002956;stroke-linecap:butt;stroke-linejoin:miter;stroke-miterlimit:3.8599999;stroke-dasharray:none;stroke-opacity:1"
         d="m 147.891,155.391 50.629,0.347" /></g></g></svg>