<?xml version="1.0" encoding="UTF-8" standalone="no"?>
<svg
   xmlns:dc="http://purl.org/dc/elements/1.1/"
   xmlns:cc="http://creativecommons.org/ns#"
   xmlns:rdf="http://www.w3.org/1999/02/22-rdf-syntax-ns#"
   xmlns:svg="http://www.w3.org/2000/svg"
   xmlns="http://www.w3.org/2000/svg"
   viewBox="0 0 38.75 40"
   height="40"
   width="38.75"
   xml:space="preserve"
   version="1.1"
   id="svg2"><metadata
     id="metadata8"><rdf:RDF><cc:Work
         rdf:about=""><dc:format>image/svg+xml</dc:format><dc:type
           rdf:resource="http://purl.org/dc/dcmitype/StillImage" /></cc:Work></rdf:RDF></metadata><defs
     id="defs6"><clipPath
       id="clipPath18"
       clipPathUnits="userSpaceOnUse"><path
         id="path20"
         d="M 0,10 0,317 310,317 310,10 0,10 Z" /></clipPath></defs><g
     transform="matrix(1.25,0,0,-1.25,0,40)"
     id="g10"><g
       transform="scale(0.1,0.1)"
       id="g12"><g
         id="g14"><g
           clip-path="url(#clipPath18)"
           id="g16"><path
             id="path22"
             style="fill:#087bbb;fill-opacity:1;fill-rule:nonzero;stroke:none"
             d="m 5.82031,14.6289 226.758,0 0,230.699 -226.758,0 0,-230.699 z" /><path
             id="path24"
             style="fill:none;stroke:#ffffff;stroke-width:3.99993992;stroke-linecap:butt;stroke-linejoin:miter;stroke-miterlimit:4;stroke-dasharray:none;stroke-opacity:1"
             d="m 5.82031,14.6289 226.758,0 0,230.699 -226.758,0 0,-230.699 z" /><path
             id="path26"
             style="fill:none;stroke:#231f20;stroke-width:14.25;stroke-linecap:butt;stroke-linejoin:miter;stroke-miterlimit:4;stroke-dasharray:none;stroke-opacity:1"
             d="m 46.6016,65.7617 47.8867,0 66.1017,135.1483 45.699,0" /><path
             id="path28"
             style="fill:#231f20;fill-opacity:1;fill-rule:nonzero;stroke:none"
             d="m 192.891,225.129 0,-47.969 28.871,23.051 -28.871,24.918" /><path
             id="path30"
             style="fill:#231f20;fill-opacity:1;fill-rule:nonzero;stroke:none"
             d="m 54.8398,41.0703 0,47.9688 -28.8593,-23.0508 28.8593,-24.918" /><path
             id="path32"
             style="fill:#ffffff;fill-opacity:1;fill-rule:nonzero;stroke:none"
             d="m 48.2813,36.5391 0,47.9726 L 19.3789,61.4609 48.2813,36.5391" /><path
             id="path34"
             style="fill:#ffffff;fill-opacity:1;fill-rule:nonzero;stroke:none"
             d="m 187.539,221.23 0,-47.968 28.871,23.047 -28.871,24.921" /><path
             id="path36"
             style="fill:#231f20;fill-opacity:1;fill-rule:nonzero;stroke:none"
             d="m 54.8398,176.07 0,47.969 -28.8593,-23.051 28.8593,-24.918" /><path
             id="path38"
             style="fill:#ffffff;fill-opacity:1;fill-rule:nonzero;stroke:none"
             d="m 48.2813,171.539 0,47.973 -28.9024,-23.051 28.9024,-24.922" /><path
             id="path40"
             style="fill:none;stroke:#231f20;stroke-width:14.25;stroke-linecap:butt;stroke-linejoin:miter;stroke-miterlimit:4;stroke-dasharray:none;stroke-opacity:1"
             d="m 207.23,65.25 -47.109,0 -67.3124,135.82 -40.1094,0" /><path
             id="path42"
             style="fill:none;stroke:#ffffff;stroke-width:14.25;stroke-linecap:butt;stroke-linejoin:miter;stroke-miterlimit:4;stroke-dasharray:none;stroke-opacity:1"
             d="m 206.09,61.0313 -49.61,0 -67.3003,135.8207 -51.3711,0" /><path
             id="path44"
             style="fill:#087bbb;fill-opacity:1;fill-rule:nonzero;stroke:none"
             d="m 305.59,312.551 -73.012,-67.141 -227.02722,0 81.12892,67.141 218.9103,0" /><path
             id="path46"
             style="fill:none;stroke:#ffffff;stroke-width:3.99993992;stroke-linecap:butt;stroke-linejoin:miter;stroke-miterlimit:4;stroke-dasharray:none;stroke-opacity:1"
             d="m 305.59,312.551 -73.012,-67.141 -227.02722,0 81.12892,67.141 218.9103,0 z" /><path
             id="path48"
             style="fill:#087bbb;fill-opacity:1;fill-rule:nonzero;stroke:none"
             d="m 305.859,103.102 0,209.296 -73.281,-67.187 0,-229.6915 73.281,87.5825" /><path
             id="path50"
             style="fill:none;stroke:#ffffff;stroke-width:3.99993992;stroke-linecap:butt;stroke-linejoin:miter;stroke-miterlimit:4;stroke-dasharray:none;stroke-opacity:1"
             d="m 305.859,103.102 0,209.296 -73.281,-67.187 0,-229.6915 73.281,87.5825 z" /><path
             id="path52"
             style="fill:none;stroke:#ffffff;stroke-width:14.25;stroke-linecap:butt;stroke-linejoin:miter;stroke-miterlimit:4;stroke-dasharray:none;stroke-opacity:1"
             d="m 38.1211,61.2305 47.9297,0 66.6792,135.1485 51.961,0" /><path
             id="path54"
             style="fill:#231f20;fill-opacity:1;fill-rule:nonzero;stroke:none"
             d="m 192.891,89.5117 0,-47.9726 28.871,23.0507 -28.871,24.9219" /><path
             id="path56"
             style="fill:#ffffff;fill-opacity:1;fill-rule:nonzero;stroke:none"
             d="m 187.539,85.6016 0,-47.9727 28.871,23.0508 -28.871,24.9219" /><path
             id="path58"
             style="fill:#231f20;fill-opacity:1;fill-rule:nonzero;stroke:none"
             d="m 232.73,300.91 9.571,7.192 29.929,-9.84 -52.46,-11.332 11.402,11.41 -51.992,0 3.398,2.57 50.152,0" /><path
             id="path60"
             style="fill:#ffffff;fill-opacity:1;fill-rule:nonzero;stroke:none"
             d="m 191.48,271.5 9.571,7.191 26.179,-8.441 -52.46,-11.328 8.781,8.629 -51.992,0 7.89,3.949 52.031,0" /><path
             id="path62"
             style="fill:#ffffff;fill-opacity:1;fill-rule:nonzero;stroke:none"
             d="m 165.859,290.949 -4.339,-4.609 -43.04,0 -8.679,-5.149 -26.0119,8.508 52.3399,11.25 -13.32,-10 43.05,0" /><path
             id="path64"
             style="fill:#ffffff;fill-opacity:1;fill-rule:nonzero;stroke:none"
             d="m 128.672,261.34 -6.094,-4.61 -43.0467,0 -6.8711,-5.152 -26.0586,8.512 52.3476,11.25 -13.289,-10 43.0118,0" /><path
             id="path66"
             style="fill:#ffffff;fill-opacity:1;fill-rule:nonzero;stroke:none"
             d="m 232.73,298.41 9.571,7.231 26.14,-8.481 -52.461,-11.281 9.719,7.961 -52.027,0 7.027,4.57 52.031,0" /></g></g></g></g></svg>