<?xml version="1.0" encoding="UTF-8" standalone="no"?>
<svg
   xmlns:dc="http://purl.org/dc/elements/1.1/"
   xmlns:cc="http://creativecommons.org/ns#"
   xmlns:rdf="http://www.w3.org/1999/02/22-rdf-syntax-ns#"
   xmlns:svg="http://www.w3.org/2000/svg"
   xmlns="http://www.w3.org/2000/svg"
   viewBox="0 0 38.837502 38.362499"
   height="38.362499"
   width="38.837502"
   xml:space="preserve"
   version="1.1"
   id="svg2"><metadata
     id="metadata8"><rdf:RDF><cc:Work
         rdf:about=""><dc:format>image/svg+xml</dc:format><dc:type
           rdf:resource="http://purl.org/dc/dcmitype/StillImage" /></cc:Work></rdf:RDF></metadata><defs
     id="defs6"><clipPath
       id="clipPath18"
       clipPathUnits="userSpaceOnUse"><path
         id="path20"
         d="M 0,0 0,307 310,307 310,0 0,0 Z" /></clipPath></defs><g
     transform="matrix(1.25,0,0,-1.25,0,38.3625)"
     id="g10"><g
       transform="scale(0.1,0.1)"
       id="g12"><g
         id="g14"><g
           clip-path="url(#clipPath18)"
           id="g16"><path
             id="path22"
             style="fill:#087bbb;fill-opacity:1;fill-rule:nonzero;stroke:none"
             d="m 5.81641,4.60938 226.746,0 0,230.734 -226.746,0 0,-230.734 z" /><path
             id="path24"
             style="fill:none;stroke:#ffffff;stroke-width:3.99993992;stroke-linecap:butt;stroke-linejoin:miter;stroke-miterlimit:4;stroke-dasharray:none;stroke-opacity:1"
             d="m 5.81641,4.60938 226.746,0 0,230.734 -226.746,0 0,-230.734 z" /><path
             id="path26"
             style="fill:none;stroke:#231f20;stroke-width:14.25;stroke-linecap:butt;stroke-linejoin:miter;stroke-miterlimit:4;stroke-dasharray:none;stroke-opacity:1"
             d="m 46.5977,55.7617 47.9101,0 66.0822,135.1443 45.683,0" /><path
             id="path28"
             style="fill:#231f20;fill-opacity:1;fill-rule:nonzero;stroke:none"
             d="m 192.875,215.129 0,-47.949 28.887,23.035 -28.887,24.914" /><path
             id="path30"
             style="fill:#231f20;fill-opacity:1;fill-rule:nonzero;stroke:none"
             d="m 54.8594,31.0742 0,47.9492 L 25.9727,55.9883 54.8594,31.0742" /><path
             id="path32"
             style="fill:#ffffff;fill-opacity:1;fill-rule:nonzero;stroke:none"
             d="m 48.2656,26.543 0,47.9492 L 19.3789,51.4531 48.2656,26.543" /><path
             id="path34"
             style="fill:#ffffff;fill-opacity:1;fill-rule:nonzero;stroke:none"
             d="m 187.535,211.223 0,-47.95 28.887,23.036 -28.887,24.914" /><path
             id="path36"
             style="fill:#231f20;fill-opacity:1;fill-rule:nonzero;stroke:none"
             d="m 54.8594,166.074 0,47.949 -28.8867,-23.035 28.8867,-24.914" /><path
             id="path38"
             style="fill:#ffffff;fill-opacity:1;fill-rule:nonzero;stroke:none"
             d="m 48.2656,161.543 0,47.949 -28.8867,-23.039 28.8867,-24.91" /><path
             id="path40"
             style="fill:none;stroke:#231f20;stroke-width:14.25;stroke-linecap:butt;stroke-linejoin:miter;stroke-miterlimit:4;stroke-dasharray:none;stroke-opacity:1"
             d="m 207.23,55.2539 -47.097,0 -67.3361,135.8121 -40.0977,0" /><path
             id="path42"
             style="fill:none;stroke:#ffffff;stroke-width:14.25;stroke-linecap:butt;stroke-linejoin:miter;stroke-miterlimit:4;stroke-dasharray:none;stroke-opacity:1"
             d="m 206.09,51.0156 -49.602,0 -67.3239,135.8204 -51.3555,0" /><path
             id="path44"
             style="fill:#087bbb;fill-opacity:1;fill-rule:nonzero;stroke:none"
             d="m 305.57,302.539 -73.007,-67.117 -227.01222,0 81.11332,67.117 218.9059,0" /><path
             id="path46"
             style="fill:none;stroke:#ffffff;stroke-width:3.99993992;stroke-linecap:butt;stroke-linejoin:miter;stroke-miterlimit:4;stroke-dasharray:none;stroke-opacity:1"
             d="m 305.57,302.539 -73.007,-67.117 -227.01222,0 81.11332,67.117 218.9059,0 z" /><path
             id="path48"
             style="fill:#087bbb;fill-opacity:1;fill-rule:nonzero;stroke:none"
             d="m 305.844,93.1172 0,209.2658 -73.281,-67.188 0,-229.68719 73.281,87.60939" /><path
             id="path50"
             style="fill:none;stroke:#ffffff;stroke-width:3.99993992;stroke-linecap:butt;stroke-linejoin:miter;stroke-miterlimit:4;stroke-dasharray:none;stroke-opacity:1"
             d="m 305.844,93.1172 0,209.2658 -73.281,-67.188 0,-229.68719 73.281,87.60939 z" /><path
             id="path52"
             style="fill:none;stroke:#ffffff;stroke-width:14.25;stroke-linecap:butt;stroke-linejoin:miter;stroke-miterlimit:4;stroke-dasharray:none;stroke-opacity:1"
             d="m 38.1211,51.2305 47.918,0 66.7109,135.1485 51.922,0" /><path
             id="path54"
             style="fill:#231f20;fill-opacity:1;fill-rule:nonzero;stroke:none"
             d="m 192.875,79.5039 0,-47.9492 28.887,23.0351 -28.887,24.9141" /><path
             id="path56"
             style="fill:#ffffff;fill-opacity:1;fill-rule:nonzero;stroke:none"
             d="m 187.535,75.5977 0,-47.9493 28.887,23.0352 -28.887,24.9141" /><path
             id="path58"
             style="fill:#231f20;fill-opacity:1;fill-rule:nonzero;stroke:none"
             d="m 232.73,290.91 9.571,7.195 29.922,-9.863 -52.453,-11.328 11.418,11.418 -52.024,0 3.43,2.578 50.136,0" /><path
             id="path60"
             style="fill:#ffffff;fill-opacity:1;fill-rule:nonzero;stroke:none"
             d="m 191.488,261.496 9.582,7.195 26.141,-8.437 -52.449,-11.328 8.808,8.644 -52.023,0 7.922,3.926 52.019,0" /><path
             id="path62"
             style="fill:#ffffff;fill-opacity:1;fill-rule:nonzero;stroke:none"
             d="m 165.863,280.957 -4.324,-4.609 -43.047,0 -8.672,-5.157 -26.0466,8.516 52.3556,11.25 -13.313,-10 43.047,0" /><path
             id="path64"
             style="fill:#ffffff;fill-opacity:1;fill-rule:nonzero;stroke:none"
             d="m 128.688,251.348 -6.114,-4.61 -43.0467,0 -6.8867,-5.164 -26.0351,8.524 52.3554,11.242 -13.3125,-9.992 43.0396,0" /><path
             id="path66"
             style="fill:#ffffff;fill-opacity:1;fill-rule:nonzero;stroke:none"
             d="m 232.73,288.43 9.571,7.195 26.14,-8.445 -52.449,-11.321 9.715,7.969 -52.031,0 7.023,4.602 52.031,0" /></g></g></g></g></svg>