<?xml version="1.0" encoding="UTF-8" standalone="no"?>
<svg
   xmlns:dc="http://purl.org/dc/elements/1.1/"
   xmlns:cc="http://creativecommons.org/ns#"
   xmlns:rdf="http://www.w3.org/1999/02/22-rdf-syntax-ns#"
   xmlns:svg="http://www.w3.org/2000/svg"
   xmlns="http://www.w3.org/2000/svg"
   viewBox="0 0 46.450001 31.475"
   height="31.475"
   width="46.450001"
   xml:space="preserve"
   version="1.1"
   id="svg2"><metadata
     id="metadata8"><rdf:RDF><cc:Work
         rdf:about=""><dc:format>image/svg+xml</dc:format><dc:type
           rdf:resource="http://purl.org/dc/dcmitype/StillImage" /></cc:Work></rdf:RDF></metadata><defs
     id="defs6"><clipPath
       id="clipPath18"
       clipPathUnits="userSpaceOnUse"><path
         id="path20"
         d="m 0,1.79688 370,0 0,250 -370,0 0,-250 z" /></clipPath></defs><g
     transform="matrix(1.25,0,0,-1.25,0,31.475)"
     id="g10"><g
       transform="scale(0.1,0.1)"
       id="g12"><g
         id="g14"><g
           clip-path="url(#clipPath18)"
           id="g16"><path
             id="path22"
             style="fill:#087bbb;fill-opacity:1;fill-rule:nonzero;stroke:none"
             d="m 369.848,178.281 c 0,-39.504 -82.344,-71.523 -183.926,-71.523 C 84.3477,106.758 2,138.777 2,178.281 L 2,73.5156 c 0,-39.5 82.3477,-71.52341 183.922,-71.52341 101.582,0 183.926,32.02341 183.926,71.52341 l 0,104.7654" /><path
             id="path24"
             style="fill:none;stroke:#ffffff;stroke-width:3.99993992;stroke-linecap:butt;stroke-linejoin:miter;stroke-miterlimit:4;stroke-dasharray:none;stroke-opacity:1"
             d="m 369.848,178.281 c 0,-39.504 -82.344,-71.523 -183.926,-71.523 C 84.3477,106.758 2,138.777 2,178.281 L 2,73.5156 c 0,-39.5 82.3477,-71.52341 183.922,-71.52341 101.582,0 183.926,32.02341 183.926,71.52341 l 0,104.7654 z" /><path
             id="path26"
             style="fill:#087bbb;fill-opacity:1;fill-rule:nonzero;stroke:none"
             d="m 185.922,106.758 c 101.582,0 183.926,32.019 183.926,71.523 0,39.512 -82.344,71.524 -183.926,71.524 C 84.3477,249.805 2,217.793 2,178.281 2,138.777 84.3477,106.758 185.922,106.758" /><path
             id="path28"
             style="fill:none;stroke:#ffffff;stroke-width:3.99993992;stroke-linecap:butt;stroke-linejoin:miter;stroke-miterlimit:4;stroke-dasharray:none;stroke-opacity:1"
             d="m 185.922,106.758 c 101.582,0 183.926,32.019 183.926,71.523 0,39.512 -82.344,71.524 -183.926,71.524 C 84.3477,249.805 2,217.793 2,178.281 2,138.777 84.3477,106.758 185.922,106.758 Z" /><path
             id="path30"
             style="fill:#ffffff;fill-opacity:1;fill-rule:nonzero;stroke:none"
             d="m 143.926,206.25 15.183,-22.781 -57.421,-13.274 12.55,10.45 -88.7497,15.168 22.2656,16.687 85.6371,-14.5 10.535,8.25" /><path
             id="path32"
             style="fill:#ffffff;fill-opacity:1;fill-rule:nonzero;stroke:none"
             d="m 224.73,151.008 -10.371,23.484 51.797,10.352 -8.984,-8.055 86.328,-14.738 -20.703,-16.571 -85.82,16.114 -12.247,-10.586" /><path
             id="path34"
             style="fill:#ffffff;fill-opacity:1;fill-rule:nonzero;stroke:none"
             d="m 196.41,218.691 58.008,15.879 0.684,-24.863 -14.493,2.766 -28.32,-23.489 -27.012,3.938 29.219,22.976 -18.086,2.793" /><path
             id="path36"
             style="fill:#ffffff;fill-opacity:1;fill-rule:nonzero;stroke:none"
             d="m 171.543,129.59 -55.242,-10.352 -2.071,25.547 15.875,-3.445 30.415,25.965 26.906,-4.559 -32.453,-28.312 16.57,-4.844" /><path
             id="path38"
             style="fill:#ffffff;fill-opacity:1;fill-rule:nonzero;stroke:none"
             d="m 188.832,58.0078 31.426,-24.6484 14.629,0.0586 0.019,6.4765 33.321,-11.8086 -33.321,-11.8164 -0.019,6.6602 -18.965,0.0195 -35.902,28.125 -35.911,-28.125 -18.964,-0.0195 -0.016,-6.6602 -33.3126,11.8164 33.3126,11.8086 0.016,-6.4765 14.628,-0.0586 31.418,24.6484 -31.418,24.6289 -14.628,-0.0586 -0.016,-6.4648 -33.3126,11.8086 33.3126,11.8047 0.016,-6.6524 18.964,-0.0273 35.911,-28.1133 35.902,28.1133 18.965,0.0273 0.019,6.6524 33.321,-11.8047 -33.321,-11.8086 -0.019,6.4648 -14.629,0.0586 -31.426,-24.6289" /></g></g></g></g></svg>