<?xml version="1.0" encoding="UTF-8" standalone="no"?>
<svg
   xmlns:dc="http://purl.org/dc/elements/1.1/"
   xmlns:cc="http://creativecommons.org/ns#"
   xmlns:rdf="http://www.w3.org/1999/02/22-rdf-syntax-ns#"
   xmlns:svg="http://www.w3.org/2000/svg"
   xmlns="http://www.w3.org/2000/svg"
   viewBox="0 0 46.25 31.25"
   height="31.25"
   width="46.25"
   xml:space="preserve"
   version="1.1"
   id="svg2"><metadata
     id="metadata8"><rdf:RDF><cc:Work
         rdf:about=""><dc:format>image/svg+xml</dc:format><dc:type
           rdf:resource="http://purl.org/dc/dcmitype/StillImage" /></cc:Work></rdf:RDF></metadata><defs
     id="defs6" /><g
     transform="matrix(1.25,0,0,-1.25,0,31.25)"
     id="g10"><g
       transform="scale(0.1,0.1)"
       id="g12"><path
         id="path14"
         style="fill:#087bbb;fill-opacity:1;fill-rule:nonzero;stroke:none"
         d="m 369.84,176.48 c 0,-39.492 -82.34,-71.519 -183.899,-71.519 -101.6012,0 -183.95272,32.027 -183.95272,71.519 l 0,-104.7612 C 1.98828,32.2305 84.3398,0.199219 185.941,0.199219 287.5,0.199219 369.84,32.2305 369.84,71.7188 l 0,104.7612" /><path
         id="path16"
         style="fill:none;stroke:#ffffff;stroke-width:3.99993992;stroke-linecap:butt;stroke-linejoin:miter;stroke-miterlimit:4;stroke-dasharray:none;stroke-opacity:1"
         d="m 369.84,176.48 c 0,-39.492 -82.34,-71.519 -183.899,-71.519 -101.6012,0 -183.95272,32.027 -183.95272,71.519 l 0,-104.7612 C 1.98828,32.2305 84.3398,0.199219 185.941,0.199219 287.5,0.199219 369.84,32.2305 369.84,71.7188 l 0,104.7612 z" /><path
         id="path18"
         style="fill:#087bbb;fill-opacity:1;fill-rule:nonzero;stroke:none"
         d="m 185.941,104.961 c 101.559,0 183.899,32.027 183.899,71.519 0,39.54 -82.34,71.532 -183.899,71.532 -101.6012,0 -183.95272,-31.992 -183.95272,-71.532 0,-39.492 82.35152,-71.519 183.95272,-71.519" /><path
         id="path20"
         style="fill:none;stroke:#ffffff;stroke-width:3.99993992;stroke-linecap:butt;stroke-linejoin:miter;stroke-miterlimit:4;stroke-dasharray:none;stroke-opacity:1"
         d="m 185.941,104.961 c 101.559,0 183.899,32.027 183.899,71.519 0,39.54 -82.34,71.532 -183.899,71.532 -101.6012,0 -183.95272,-31.992 -183.95272,-71.532 0,-39.492 82.35152,-71.519 183.95272,-71.519 z" /><path
         id="path22"
         style="fill:#ffffff;fill-opacity:1;fill-rule:nonzero;stroke:none"
         d="m 143.949,204.449 15.153,-22.769 -57.422,-13.282 12.539,10.473 -88.7502,15.149 22.2617,16.679 85.6675,-14.488 10.551,8.238" /><path
         id="path24"
         style="fill:#ffffff;fill-opacity:1;fill-rule:nonzero;stroke:none"
         d="m 224.73,149.219 -10.351,23.48 51.793,10.352 -8.981,-8.051 86.329,-14.73 -20.711,-16.598 -85.821,16.129 -12.258,-10.582" /><path
         id="path26"
         style="fill:#ffffff;fill-opacity:1;fill-rule:nonzero;stroke:none"
         d="m 196.41,216.879 58,15.891 0.711,-24.879 -14.5,2.769 -28.32,-23.469 -27.031,3.938 29.218,22.973 -18.078,2.777" /><path
         id="path28"
         style="fill:#ffffff;fill-opacity:1;fill-rule:nonzero;stroke:none"
         d="m 171.559,127.809 -55.27,-10.387 -2.07,25.547 15.902,-3.438 30.391,25.981 26.91,-4.571 -32.461,-28.281 16.598,-4.851" /><path
         id="path30"
         style="fill:#ffffff;fill-opacity:1;fill-rule:nonzero;stroke:none"
         d="m 188.828,56.2109 31.442,-24.6523 14.609,0.082 0.043,6.4492 33.316,-11.8007 -33.316,-11.8399 -0.043,6.6797 -18.938,0 -35.902,28.1328 -35.937,-28.1328 -18.942,0 -0.039,-6.6797 -33.3202,11.8399 33.3202,11.8007 0.039,-6.4492 14.61,-0.082 31.402,24.6523 -31.402,24.6094 -14.61,-0.039 -0.039,-6.4415 -33.3202,11.7891 33.3202,11.8008 0.039,-6.6406 18.942,-0.0391 35.937,-28.1289 35.902,28.1289 18.938,0.0391 0.043,6.6406 33.316,-11.8008 -33.316,-11.7891 -0.043,6.4415 -14.609,0.039 -31.442,-24.6094" /></g></g></svg>