<?xml version="1.0" encoding="UTF-8" standalone="no"?>
<svg
   xmlns:dc="http://purl.org/dc/elements/1.1/"
   xmlns:cc="http://creativecommons.org/ns#"
   xmlns:rdf="http://www.w3.org/1999/02/22-rdf-syntax-ns#"
   xmlns:svg="http://www.w3.org/2000/svg"
   xmlns="http://www.w3.org/2000/svg"
   viewBox="0 0 33.75 36.25"
   height="36.25"
   width="33.75"
   xml:space="preserve"
   version="1.1"
   id="svg2"><metadata
     id="metadata8"><rdf:RDF><cc:Work
         rdf:about=""><dc:format>image/svg+xml</dc:format><dc:type
           rdf:resource="http://purl.org/dc/dcmitype/StillImage" /></cc:Work></rdf:RDF></metadata><defs
     id="defs6" /><g
     transform="matrix(1.25,0,0,-1.25,0,36.25)"
     id="g10"><g
       transform="scale(0.1,0.1)"
       id="g12"><path
         id="path14"
         style="fill:#087bbb;fill-opacity:1;fill-rule:nonzero;stroke:none"
         d="m 5.42969,14.7383 215.742,0 0,219.773 -215.742,0 0,-219.773 z" /><path
         id="path16"
         style="fill:none;stroke:#ffffff;stroke-width:3.99993992;stroke-linecap:butt;stroke-linejoin:miter;stroke-miterlimit:4;stroke-dasharray:none;stroke-opacity:1"
         d="m 5.42969,14.7383 215.742,0 0,219.77 -215.742,0 0,-219.77 z" /><path
         id="path18"
         style="fill:#087bbb;fill-opacity:1;fill-rule:nonzero;stroke:none"
         d="m 221.172,234.512 -215.51184,0 54.50004,43.816 205.6208,0 0,-218.4686 -44.609,-45 0,219.6526" /><path
         id="path20"
         style="fill:none;stroke:#ffffff;stroke-width:3.99993992;stroke-linecap:butt;stroke-linejoin:miter;stroke-miterlimit:4;stroke-dasharray:none;stroke-opacity:1"
         d="m 221.172,234.508 -215.51184,0 54.50004,43.828 205.6208,0 0,-218.4805 -44.609,-45 0,219.6525 z" /><path
         id="path22"
         style="fill:none;stroke:#ffffff;stroke-width:3.99993992;stroke-linecap:butt;stroke-linejoin:miter;stroke-miterlimit:4;stroke-dasharray:none;stroke-opacity:1"
         d="m 221.172,234.508 44.609,43.828" /><path
         id="path24"
         style="fill:none;stroke:#ffffff;stroke-width:14.25;stroke-linecap:butt;stroke-linejoin:miter;stroke-miterlimit:4;stroke-dasharray:none;stroke-opacity:1"
         d="m 193.199,58.918 -47.258,0 -64.1012,129.379 -42.3906,0" /><path
         id="path26"
         style="fill:none;stroke:#ffffff;stroke-width:14.25;stroke-linecap:butt;stroke-linejoin:miter;stroke-miterlimit:4;stroke-dasharray:none;stroke-opacity:1"
         d="m 36.2109,59.1172 45.6289,0 63.5122,128.7498 49.449,0" /><path
         id="path28"
         style="fill:#ffffff;fill-opacity:1;fill-rule:nonzero;stroke:none"
         d="m 178.48,211.5 0,-45.672 27.54,21.961 -27.54,23.711" /><path
         id="path30"
         style="fill:none;stroke:#ffffff;stroke-width:1.90002;stroke-linecap:butt;stroke-linejoin:miter;stroke-miterlimit:4;stroke-dasharray:none;stroke-opacity:1"
         d="m 178.48,211.496 0,-45.66 27.54,21.949 -27.54,23.711 z" /><path
         id="path32"
         style="fill:#ffffff;fill-opacity:1;fill-rule:nonzero;stroke:none"
         d="m 178.48,82.7891 0,-45.668 27.54,21.957 -27.54,23.711" /><path
         id="path34"
         style="fill:none;stroke:#ffffff;stroke-width:1.90002;stroke-linecap:butt;stroke-linejoin:miter;stroke-miterlimit:4;stroke-dasharray:none;stroke-opacity:1"
         d="m 178.48,82.7852 0,-45.6602 27.54,21.9531 -27.54,23.7071 z" /><path
         id="path36"
         style="fill:#ffffff;fill-opacity:1;fill-rule:nonzero;stroke:none"
         d="m 45.8594,165.012 0,45.668 -27.5,-21.95 27.5,-23.718" /><path
         id="path38"
         style="fill:none;stroke:#ffffff;stroke-width:1.90002;stroke-linecap:butt;stroke-linejoin:miter;stroke-miterlimit:4;stroke-dasharray:none;stroke-opacity:1"
         d="m 45.8594,165.016 0,45.66 -27.5,-21.949 27.5,-23.711 z" /><path
         id="path40"
         style="fill:#ffffff;fill-opacity:1;fill-rule:nonzero;stroke:none"
         d="m 45.8594,35.6406 0,45.6602 -27.5,-21.9492 27.5,-23.711" /><path
         id="path42"
         style="fill:none;stroke:#ffffff;stroke-width:1.90002;stroke-linecap:butt;stroke-linejoin:miter;stroke-miterlimit:4;stroke-dasharray:none;stroke-opacity:1"
         d="m 45.8594,35.6367 0,45.668 -27.5,-21.957 27.5,-23.711 z" /></g></g></svg>