<?xml version="1.0" encoding="UTF-8" standalone="no"?>
<svg
   xmlns:dc="http://purl.org/dc/elements/1.1/"
   xmlns:cc="http://creativecommons.org/ns#"
   xmlns:rdf="http://www.w3.org/1999/02/22-rdf-syntax-ns#"
   xmlns:svg="http://www.w3.org/2000/svg"
   xmlns="http://www.w3.org/2000/svg"
   viewBox="0 0 33.474998 33.787498"
   height="33.787498"
   width="33.474998"
   xml:space="preserve"
   version="1.1"
   id="svg2"><metadata
     id="metadata8"><rdf:RDF><cc:Work
         rdf:about=""><dc:format>image/svg+xml</dc:format><dc:type
           rdf:resource="http://purl.org/dc/dcmitype/StillImage" /></cc:Work></rdf:RDF></metadata><defs
     id="defs6" /><g
     transform="matrix(1.25,0,0,-1.25,0,33.7875)"
     id="g10"><g
       transform="scale(0.1,0.1)"
       id="g12"><path
         id="path14"
         style="fill:#087bbb;fill-opacity:1;fill-rule:nonzero;stroke:none"
         d="m 5.42578,4.72656 215.734,0 0,219.766 -215.734,0 0,-219.766 z" /><path
         id="path16"
         style="fill:none;stroke:#ffffff;stroke-width:3.99993992;stroke-linecap:butt;stroke-linejoin:miter;stroke-miterlimit:4;stroke-dasharray:none;stroke-opacity:1"
         d="m 5.42578,4.72656 215.734,0 0,219.766 -215.734,0 0,-219.766 z" /><path
         id="path18"
         style="fill:#087bbb;fill-opacity:1;fill-rule:nonzero;stroke:none"
         d="m 221.16,224.492 -215.48031,0 54.49221,43.828 205.5981,0 0,-218.4684 -44.61,-45.00004 0,219.64044" /><path
         id="path20"
         style="fill:none;stroke:#ffffff;stroke-width:3.99993992;stroke-linecap:butt;stroke-linejoin:miter;stroke-miterlimit:4;stroke-dasharray:none;stroke-opacity:1"
         d="m 221.16,224.492 -215.48031,0 54.49221,43.828 205.5981,0 0,-218.4684 -44.61,-45.00004 0,219.64044 z" /><path
         id="path22"
         style="fill:none;stroke:#ffffff;stroke-width:3.99993992;stroke-linecap:butt;stroke-linejoin:miter;stroke-miterlimit:4;stroke-dasharray:none;stroke-opacity:1"
         d="m 221.16,224.492 44.61,43.828" /><path
         id="path24"
         style="fill:none;stroke:#ffffff;stroke-width:14.25;stroke-linecap:butt;stroke-linejoin:miter;stroke-miterlimit:4;stroke-dasharray:none;stroke-opacity:1"
         d="m 193.191,48.9258 -47.238,0 -64.121,129.3552 -42.3632,0" /><path
         id="path26"
         style="fill:none;stroke:#ffffff;stroke-width:14.25;stroke-linecap:butt;stroke-linejoin:miter;stroke-miterlimit:4;stroke-dasharray:none;stroke-opacity:1"
         d="m 36.207,49.1211 45.625,0 63.535,128.7309 49.446,0" /><path
         id="path28"
         style="fill:#ffffff;fill-opacity:1;fill-rule:nonzero;stroke:none"
         d="m 178.484,201.504 0,-45.664 27.524,21.933 -27.524,23.731" /><path
         id="path30"
         style="fill:none;stroke:#ffffff;stroke-width:1.90002;stroke-linecap:butt;stroke-linejoin:miter;stroke-miterlimit:4;stroke-dasharray:none;stroke-opacity:1"
         d="m 178.484,201.504 0,-45.664 27.524,21.933 -27.524,23.731 z" /><path
         id="path32"
         style="fill:#ffffff;fill-opacity:1;fill-rule:nonzero;stroke:none"
         d="m 178.484,72.793 0,-45.6758 27.524,21.9453 -27.524,23.7305" /><path
         id="path34"
         style="fill:none;stroke:#ffffff;stroke-width:1.90002;stroke-linecap:butt;stroke-linejoin:miter;stroke-miterlimit:4;stroke-dasharray:none;stroke-opacity:1"
         d="m 178.484,72.793 0,-45.6758 27.524,21.9453 -27.524,23.7305 z" /><path
         id="path36"
         style="fill:#ffffff;fill-opacity:1;fill-rule:nonzero;stroke:none"
         d="m 45.8555,155 0,45.664 L 18.3438,178.73 45.8555,155" /><path
         id="path38"
         style="fill:none;stroke:#ffffff;stroke-width:1.90002;stroke-linecap:butt;stroke-linejoin:miter;stroke-miterlimit:4;stroke-dasharray:none;stroke-opacity:1"
         d="m 45.8555,155 0,45.664 L 18.3438,178.73 45.8555,155 Z" /><path
         id="path40"
         style="fill:#ffffff;fill-opacity:1;fill-rule:nonzero;stroke:none"
         d="m 45.8555,25.625 0,45.6641 L 18.3438,49.3555 45.8555,25.625" /><path
         id="path42"
         style="fill:none;stroke:#ffffff;stroke-width:1.90002;stroke-linecap:butt;stroke-linejoin:miter;stroke-miterlimit:4;stroke-dasharray:none;stroke-opacity:1"
         d="m 45.8555,25.625 0,45.6641 L 18.3438,49.3555 45.8555,25.625 Z" /></g></g></svg>