<?xml version="1.0" encoding="UTF-8" standalone="no"?>
<svg
   xmlns:dc="http://purl.org/dc/elements/1.1/"
   xmlns:cc="http://creativecommons.org/ns#"
   xmlns:rdf="http://www.w3.org/1999/02/22-rdf-syntax-ns#"
   xmlns:svg="http://www.w3.org/2000/svg"
   xmlns="http://www.w3.org/2000/svg"
   xmlns:sodipodi="http://sodipodi.sourceforge.net/DTD/sodipodi-0.dtd"
   xmlns:inkscape="http://www.inkscape.org/namespaces/inkscape"
   viewBox="0 0 54.408588 39.485771"
   height="39.485771"
   width="54.408588"
   xml:space="preserve"
   version="1.1"
   id="svg2"
   inkscape:version="0.91 r13725"
   sodipodi:docname="avs.svg"><sodipodi:namedview
     pagecolor="#ffffff"
     bordercolor="#666666"
     borderopacity="1"
     objecttolerance="10"
     gridtolerance="10"
     guidetolerance="10"
     inkscape:pageopacity="0"
     inkscape:pageshadow="2"
     inkscape:window-width="640"
     inkscape:window-height="480"
     id="namedview19"
     showgrid="false"
     inkscape:zoom="5.6972205"
     inkscape:cx="27.206214"
     inkscape:cy="19.744361"
     inkscape:window-x="0"
     inkscape:window-y="23"
     inkscape:window-maximized="0"
     inkscape:current-layer="svg2" /><metadata
     id="metadata8"><rdf:RDF><cc:Work
         rdf:about=""><dc:format>image/svg+xml</dc:format><dc:type
           rdf:resource="http://purl.org/dc/dcmitype/StillImage" /></cc:Work></rdf:RDF></metadata><defs
     id="defs6" /><g
     transform="matrix(1.25,0,0,-1.25,-3.4745972e-5,39.48516)"
     id="g10"><g
       transform="scale(0.1,0.1)"
       id="g12"><path
         id="path14"
         style="fill:#087bbb;fill-opacity:1;fill-rule:nonzero;stroke:none"
         d="m 5.65625,6.46484 381.484,0 0,250.637 -381.484,0 0,-250.637 z"
         inkscape:connector-curvature="0" /><path
         id="path16"
         style="fill:none;stroke:#ffffff;stroke-width:4;stroke-linecap:butt;stroke-linejoin:miter;stroke-miterlimit:4;stroke-dasharray:none;stroke-opacity:1"
         d="m 5.65625,6.46484 381.484,0 0,250.637 -381.484,0 0,-250.637 z"
         inkscape:connector-curvature="0" /><path
         id="path18"
         style="fill:#087bbb;fill-opacity:1;fill-rule:nonzero;stroke:none"
         d="m 431.027,70.6641 -43.886,-64.19926 0,250.63716 43.886,53.211 0,-239.6489"
         inkscape:connector-curvature="0" /><path
         id="path20"
         style="fill:none;stroke:#ffffff;stroke-width:4;stroke-linecap:butt;stroke-linejoin:miter;stroke-miterlimit:4;stroke-dasharray:none;stroke-opacity:1"
         d="m 431.027,70.6641 -43.886,-64.19926 0,250.63716 43.886,53.211 0,-239.6489 z"
         inkscape:connector-curvature="0" /><path
         id="path22"
         style="fill:#087bbb;fill-opacity:1;fill-rule:nonzero;stroke:none"
         d="m 71.4883,310.313 359.5387,0 -43.886,-53.211 -381.48475,0 65.83205,53.211"
         inkscape:connector-curvature="0" /><path
         id="path24"
         style="fill:none;stroke:#ffffff;stroke-width:4;stroke-linecap:butt;stroke-linejoin:miter;stroke-miterlimit:4;stroke-dasharray:none;stroke-opacity:1"
         d="m 71.4883,310.313 359.5387,0 -43.886,-53.211 -381.48475,0 65.83205,53.211 z"
         inkscape:connector-curvature="0" /><path
         id="path26"
         style="fill:#ffffff;fill-opacity:1;fill-rule:nonzero;stroke:none"
         d="m 61.3984,191.223 -33.8867,-0.051 0,10.156 33.8867,0.039 0.0235,15.86 36.9961,-20.938 -36.9961,-20.945 -0.0235,15.879"
         inkscape:connector-curvature="0" /><path
         id="path28"
         style="fill:#ffffff;fill-opacity:1;fill-rule:nonzero;stroke:none"
         d="m 61.3984,127.891 -33.8867,-0.039 0,10.156 33.8867,0.039 0.0235,15.84 36.9961,-20.938 -36.9961,-20.937 -0.0235,15.879"
         inkscape:connector-curvature="0" /><path
         id="path30"
         style="fill:#ffffff;fill-opacity:1;fill-rule:nonzero;stroke:none"
         d="m 61.3984,64.5508 -33.8867,-0.0391 0,10.1563 33.8867,0.039 0.0235,15.8594 L 98.418,69.6094 61.4219,48.6719 61.3984,64.5508"
         inkscape:connector-curvature="0" /><path
         id="path32"
         style="fill:#ffffff;fill-opacity:1;fill-rule:nonzero;stroke:none"
         d="m 346.875,127.246 -44.422,-0.058 0,10.156 44.422,0.039 0.02,15.859 37.003,-20.937 -37.003,-20.938 -0.02,15.879"
         inkscape:connector-curvature="0" /><path
         id="path34"
         style="fill:#ffffff;fill-opacity:1;fill-rule:nonzero;stroke:none"
         d="m 129.164,128.398 c 0,-40.5074 32.832,-73.3394 73.34,-73.3394 l 0,73.3394 -73.34,0"
         inkscape:connector-curvature="0" /><path
         id="path36"
         style="fill:#ffffff;fill-opacity:1;fill-rule:nonzero;stroke:none"
         d="m 202.504,201.738 c 40.504,0 73.336,-32.832 73.336,-73.34 l -73.336,0 0,73.34"
         inkscape:connector-curvature="0" /></g></g></svg>