<?xml version="1.0" encoding="UTF-8" standalone="no"?>
<svg
   xmlns:dc="http://purl.org/dc/elements/1.1/"
   xmlns:cc="http://creativecommons.org/ns#"
   xmlns:rdf="http://www.w3.org/1999/02/22-rdf-syntax-ns#"
   xmlns:svg="http://www.w3.org/2000/svg"
   xmlns="http://www.w3.org/2000/svg"
   viewBox="0 0 47.5 46.25"
   height="46.25"
   width="47.5"
   xml:space="preserve"
   version="1.1"
   id="svg2"><metadata
     id="metadata8"><rdf:RDF><cc:Work
         rdf:about=""><dc:format>image/svg+xml</dc:format><dc:type
           rdf:resource="http://purl.org/dc/dcmitype/StillImage" /></cc:Work></rdf:RDF></metadata><defs
     id="defs6" /><g
     transform="matrix(1.25,0,0,-1.25,0,46.25)"
     id="g10"><g
       transform="scale(0.1,0.1)"
       id="g12"><path
         id="path14"
         style="fill:#918f90;fill-opacity:1;fill-rule:nonzero;stroke:none"
         d="m 369.84,291.629 c 0,-39.527 -82.34,-71.52 -183.899,-71.52 -101.6012,0 -183.95272,31.993 -183.95272,71.52 l 0,-83.551 c 0,-39.527 82.35152,-71.527 183.95272,-71.527 101.559,0 183.899,32 183.899,71.527 l 0,83.551" /><path
         id="path16"
         style="fill:none;stroke:#ffffff;stroke-width:4;stroke-linecap:butt;stroke-linejoin:miter;stroke-miterlimit:4;stroke-dasharray:none;stroke-opacity:1"
         d="m 369.84,291.629 c 0,-39.531 -82.34,-71.52 -183.899,-71.52 -101.6012,0 -183.95272,31.989 -183.95272,71.52 l 0,-83.551 c 0,-39.531 82.35152,-71.519 183.95272,-71.519 101.559,0 183.899,31.988 183.899,71.519 l 0,83.551 z" /><path
         id="path18"
         style="fill:#087bbb;fill-opacity:1;fill-rule:nonzero;stroke:none"
         d="m 369.84,209.48 c 0,-39.492 -82.34,-71.519 -183.899,-71.519 -101.6012,0 -183.95272,32.027 -183.95272,71.519 l 0,-125.9683 c 0,-39.4922 82.35152,-71.5312 183.95272,-71.5312 101.559,0 183.899,32.039 183.899,71.5312 l 0,125.9683" /><path
         id="path20"
         style="fill:none;stroke:#ffffff;stroke-width:4;stroke-linecap:butt;stroke-linejoin:miter;stroke-miterlimit:4;stroke-dasharray:none;stroke-opacity:1"
         d="m 369.84,209.488 c 0,-39.5 -82.34,-71.531 -183.899,-71.531 -101.6012,0 -183.95272,32.031 -183.95272,71.531 l 0,-125.9802 c 0,-39.4883 82.35152,-71.5195 183.95272,-71.5195 101.559,0 183.899,32.0312 183.899,71.5195 l 0,125.9802 z" /><path
         id="path22"
         style="fill:#918f90;fill-opacity:1;fill-rule:nonzero;stroke:none"
         d="m 185.941,220.109 c 101.559,0 183.899,31.993 183.899,71.52 0,39.492 -82.34,71.531 -183.899,71.531 -101.6012,0 -183.95272,-32.039 -183.95272,-71.531 0,-39.527 82.35152,-71.52 183.95272,-71.52" /><path
         id="path24"
         style="fill:none;stroke:#ffffff;stroke-width:4;stroke-linecap:butt;stroke-linejoin:miter;stroke-miterlimit:4;stroke-dasharray:none;stroke-opacity:1"
         d="m 185.941,220.109 c 101.559,0 183.899,31.989 183.899,71.52 0,39.5 -82.34,71.527 -183.899,71.527 -101.6012,0 -183.95272,-32.027 -183.95272,-71.527 0,-39.531 82.35152,-71.52 183.95272,-71.52 z" /><path
         id="path26"
         style="fill:#ffffff;fill-opacity:1;fill-rule:nonzero;stroke:none"
         d="m 143.949,319.602 15.153,-22.813 -57.422,-13.238 12.539,10.429 -88.7073,15.149 22.2188,16.723 85.6675,-14.532 10.551,8.282" /><path
         id="path28"
         style="fill:#ffffff;fill-opacity:1;fill-rule:nonzero;stroke:none"
         d="m 224.73,264.328 -10.351,23.512 51.793,10.351 -8.981,-8.043 86.329,-14.769 -20.711,-16.559 -85.821,16.09 -12.258,-10.582" /><path
         id="path30"
         style="fill:#ffffff;fill-opacity:1;fill-rule:nonzero;stroke:none"
         d="m 196.41,332.02 58,15.902 0.711,-24.883 -14.5,2.77 -28.32,-23.469 -27.031,3.941 29.218,22.969 -18.078,2.77" /><path
         id="path32"
         style="fill:#ffffff;fill-opacity:1;fill-rule:nonzero;stroke:none"
         d="m 171.559,242.922 -55.27,-10.352 -2.07,25.551 15.902,-3.441 30.391,25.98 26.91,-4.57 -32.461,-28.32 16.598,-4.848" /><path
         id="path34"
         style="fill:#087bbb;fill-opacity:1;fill-rule:nonzero;stroke:none"
         d="M 6.21094,186.75 C 25.3086,154.719 92.6602,133 182.191,133 c 87.149,0 162.649,24.18 183.789,54.801 l -0.16,21.019 C 365.82,173.941 279.059,143 182.191,143 85.3086,143 10.2305,172.961 5.35156,206.32 l 0.85938,-19.57" /><path
         id="path36"
         style="fill:#918f90;fill-opacity:1;fill-rule:nonzero;stroke:none"
         d="m 167.93,156.238 0,-9.019 -31.45,0 46.45,-60.3088 46.449,60.3088 -31.488,0 0,9.019 -29.961,0" /><path
         id="path38"
         style="fill:#ffffff;fill-opacity:1;fill-rule:nonzero;stroke:none"
         d="m 138.828,35.4609 110,110.0001 -9.957,5.551 -110,-109.9612 9.957,-5.5899" /><path
         id="path40"
         style="fill:#ffffff;fill-opacity:1;fill-rule:nonzero;stroke:none"
         d="M 227.109,36.9805 118.16,145.66 l 9.809,5.66 108.98,-108.6716 -9.84,-5.6679" /><path
         id="path42"
         style="fill:#ffffff;fill-opacity:1;fill-rule:nonzero;stroke:none"
         d="m 198.281,42.7305 -0.16,-10 c 29.688,1.6797 72.738,6.1679 97.109,13.039 l 0.161,9.6524 C 271.719,48.7383 227.27,44.3281 198.281,42.7305" /><path
         id="path44"
         style="fill:#ffffff;fill-opacity:1;fill-rule:nonzero;stroke:none"
         d="M 77.1914,45.6211 C 100.621,39.0508 139.609,34.6406 168.012,32.8789 l 0.617,9.3008 C 138.59,44.0195 97.9297,49.5586 77.7305,55.2695 l -0.5391,-9.6484" /><path
         id="path46"
         style="fill:#ffffff;fill-opacity:1;fill-rule:nonzero;stroke:none"
         d="m 74.3008,151.199 c 23.5078,-6.828 62.7692,-11.48 91.5582,-13.398 l -0.039,9.969 c -30.468,2.031 -71.3317,7.14 -91.6012,13.039 l 0.082,-9.61" /><path
         id="path48"
         style="fill:#ffffff;fill-opacity:1;fill-rule:nonzero;stroke:none"
         d="m 198.91,147.488 -0.898,-10 c 30.578,1.723 74.367,6.41 99.289,13.672 l 0.121,9.61 C 273.238,153.738 228.75,149.129 198.91,147.488" /><path
         id="path50"
         style="fill:#ffffff;fill-opacity:1;fill-rule:nonzero;stroke:none"
         d="m 103.551,88.4688 14.687,-2.5782 -7.148,23.9804 -0.149,0 -7.39,-21.4022 z M 96.3711,67.9609 83.75,70.1484 l 20.469,53.8716 13.832,-2.43 20.269,-60.9689 -13.05,2.3008 -3.711,12.457 -21.168,3.7109 -4.0199,-11.1289" /><path
         id="path52"
         style="fill:#ffffff;fill-opacity:1;fill-rule:nonzero;stroke:none"
         d="m 262.27,95.2305 c 8.941,1.25 8.941,7.6485 8.941,10.1915 0,5.629 -3.121,7.5 -10.551,6.449 l -9.531,-1.332 0,-16.8788 11.141,1.5703 z M 251.129,63 l -11.988,-1.6797 0,57.4177 26.25,3.711 c 11.089,1.571 17.808,-4.609 17.808,-15.859 0,-5.231 -2.89,-18.7502 -18.32,-20.9298 l -13.75,-1.9219 0,-20.7383" /></g></g></svg>