<svg xmlns="http://www.w3.org/2000/svg" viewBox="0 0 47.5 46.25" height="46.25" width="47.5"><path d="M46.23 9.796c0 4.941-10.293 8.94-22.987 8.94-12.7 0-22.994-3.999-22.994-8.94V20.24c0 4.941 10.293 8.941 22.994 8.941 12.694 0 22.987-4 22.987-8.94V9.795" fill="#918f90"/><path d="M46.23 9.796c0 4.942-10.293 8.94-22.987 8.94-12.7 0-22.994-3.998-22.994-8.94V20.24c0 4.942 10.293 8.94 22.994 8.94 12.694 0 22.987-3.998 22.987-8.94V9.796z" fill="none" stroke="#fff" stroke-width=".5"/><path d="M46.23 20.065c0 4.936-10.293 8.94-22.987 8.94-12.7 0-22.994-4.003-22.994-8.94v15.746c0 4.937 10.293 8.941 22.994 8.941 12.694 0 22.987-4.004 22.987-8.941V20.065" fill="#087bbb"/><path d="M46.23 20.064c0 4.938-10.293 8.941-22.987 8.941-12.7 0-22.994-4.003-22.994-8.941v15.748c0 4.936 10.293 8.94 22.994 8.94 12.694 0 22.987-4.004 22.987-8.94V20.064z" fill="none" stroke="#fff" stroke-width=".5"/><path d="M23.243 18.736c12.695 0 22.987-3.999 22.987-8.94C46.23 4.86 35.938.855 23.243.855 10.543.855.249 4.86.249 9.796c0 4.941 10.293 8.94 22.994 8.94" fill="#918f90"/><path d="M23.243 18.736c12.695 0 22.987-3.998 22.987-8.94 0-4.937-10.292-8.94-22.987-8.94C10.543.855.249 4.858.249 9.795c0 4.942 10.293 8.94 22.994 8.94z" fill="none" stroke="#fff" stroke-width=".5"/><path d="M17.994 6.3l1.894 2.851-7.178 1.655 1.567-1.303L3.19 7.609l2.777-2.09 10.709 1.816L17.994 6.3M28.091 13.209l-1.294-2.939 6.474-1.294-1.122 1.006 10.791 1.846-2.589 2.07-10.728-2.012-1.532 1.323M24.551 4.748l7.25-1.988.09 3.11-1.813-.346-3.54 2.934-3.38-.493 3.653-2.871-2.26-.346M21.445 15.885l-6.909 1.294-.259-3.194 1.988.43 3.799-3.247 3.364.57-4.058 3.54 2.075.607" fill="#fff"/><path d="M.776 22.906c2.388 4.004 10.807 6.719 21.998 6.719 10.893 0 20.331-3.022 22.973-6.85l-.02-2.627c0 4.36-10.845 8.227-22.953 8.227-12.11 0-21.495-3.745-22.105-7.915l.107 2.446" fill="#087bbb"/><path d="M20.991 26.72v1.128H17.06l5.806 7.538 5.806-7.538h-3.936V26.72h-3.745" fill="#918f90"/><path d="M17.354 41.817l13.75-13.75-1.245-.693-13.75 13.745 1.244.698" fill="#fff"/><path d="M28.389 41.627L14.77 28.042l1.226-.707L29.62 40.919l-1.23.708" fill="#fff"/><path d="M24.785 40.909l-.02 1.25c3.711-.21 9.092-.771 12.139-1.63l.02-1.207c-2.96.836-8.515 1.387-12.139 1.587M9.649 40.547c2.929.822 7.802 1.373 11.353 1.593l.077-1.162c-3.755-.23-8.838-.923-11.363-1.637l-.067 1.206M9.288 27.35c2.938.854 7.846 1.435 11.444 1.675l-.005-1.246c-3.808-.254-8.916-.893-11.45-1.63l.01 1.201M24.864 27.814l-.113 1.25c3.823-.215 9.296-.801 12.412-1.709l.015-1.201c-3.023.879-8.584 1.455-12.314 1.66M12.944 35.191l1.836.323-.894-2.998h-.018l-.924 2.675zm-.898 2.564l-1.577-.274 2.558-6.733 1.73.303 2.533 7.621-1.631-.287-.464-1.557-2.646-.464-.503 1.39M32.784 34.346c1.117-.156 1.117-.956 1.117-1.274 0-.703-.39-.937-1.319-.806l-1.19.167v2.11l1.392-.197zm-1.393 4.029l-1.498.21v-7.177l3.28-.464c1.387-.196 2.227.576 2.227 1.982 0 .654-.361 2.344-2.29 2.616l-1.719.24v2.593" fill="#fff"/></svg>