<?xml version="1.0" encoding="UTF-8" standalone="no"?>
<svg
   xmlns:dc="http://purl.org/dc/elements/1.1/"
   xmlns:cc="http://creativecommons.org/ns#"
   xmlns:rdf="http://www.w3.org/1999/02/22-rdf-syntax-ns#"
   xmlns:svg="http://www.w3.org/2000/svg"
   xmlns="http://www.w3.org/2000/svg"
   viewBox="0 0 46.487499 44.400002"
   height="44.400002"
   width="46.487499"
   xml:space="preserve"
   version="1.1"
   id="svg2"><metadata
     id="metadata8"><rdf:RDF><cc:Work
         rdf:about=""><dc:format>image/svg+xml</dc:format><dc:type
           rdf:resource="http://purl.org/dc/dcmitype/StillImage" /></cc:Work></rdf:RDF></metadata><defs
     id="defs6" /><g
     transform="matrix(1.25,0,0,-1.25,0,44.4)"
     id="g10"><g
       transform="scale(0.1,0.1)"
       id="g12"><path
         id="path14"
         style="fill:#918f90;fill-opacity:1;fill-rule:nonzero;stroke:none"
         d="m 369.855,281.629 c 0,-39.512 -82.343,-71.524 -183.925,-71.524 C 84.3477,210.105 2,242.117 2,281.629 l 0,-83.555 c 0,-39.511 82.3477,-71.531 183.93,-71.531 101.582,0 183.925,32.02 183.925,71.531 l 0,83.555" /><path
         id="path16"
         style="fill:none;stroke:#ffffff;stroke-width:4;stroke-linecap:butt;stroke-linejoin:miter;stroke-miterlimit:4;stroke-dasharray:none;stroke-opacity:1"
         d="m 369.855,281.629 c 0,-39.512 -82.343,-71.524 -183.925,-71.524 C 84.3477,210.105 2,242.117 2,281.629 l 0,-83.555 c 0,-39.511 82.3477,-71.531 183.93,-71.531 101.582,0 183.925,32.02 183.925,71.531 l 0,83.555 z" /><path
         id="path18"
         style="fill:#087bbb;fill-opacity:1;fill-rule:nonzero;stroke:none"
         d="M 369.855,199.504 C 369.855,160 287.512,127.977 185.93,127.977 84.3477,127.977 2,160 2,199.504 L 2,73.5234 c 0,-39.5 82.3477,-71.51949 183.93,-71.51949 101.582,0 183.925,32.01949 183.925,71.51949 l 0,125.9806" /><path
         id="path20"
         style="fill:none;stroke:#ffffff;stroke-width:4;stroke-linecap:butt;stroke-linejoin:miter;stroke-miterlimit:4;stroke-dasharray:none;stroke-opacity:1"
         d="M 369.855,199.504 C 369.855,160 287.512,127.977 185.93,127.977 84.3477,127.977 2,160 2,199.504 L 2,73.5234 c 0,-39.5 82.3477,-71.51949 183.93,-71.51949 101.582,0 183.925,32.01949 183.925,71.51949 l 0,125.9806 z" /><path
         id="path22"
         style="fill:#918f90;fill-opacity:1;fill-rule:nonzero;stroke:none"
         d="m 185.93,210.105 c 101.582,0 183.925,32.012 183.925,71.524 0,39.504 -82.343,71.523 -183.925,71.523 C 84.3477,353.152 2,321.133 2,281.629 2,242.117 84.3477,210.105 185.93,210.105" /><path
         id="path24"
         style="fill:none;stroke:#ffffff;stroke-width:4;stroke-linecap:butt;stroke-linejoin:miter;stroke-miterlimit:4;stroke-dasharray:none;stroke-opacity:1"
         d="m 185.93,210.105 c 101.582,0 183.925,32.012 183.925,71.524 0,39.504 -82.343,71.523 -183.925,71.523 C 84.3477,353.152 2,321.133 2,281.629 2,242.117 84.3477,210.105 185.93,210.105 Z" /><path
         id="path26"
         style="fill:#ffffff;fill-opacity:1;fill-rule:nonzero;stroke:none"
         d="m 143.926,309.598 15.183,-22.793 -57.421,-13.262 12.55,10.449 -88.7419,15.156 22.2578,16.7 85.6371,-14.512 10.535,8.262" /><path
         id="path28"
         style="fill:#ffffff;fill-opacity:1;fill-rule:nonzero;stroke:none"
         d="m 224.727,254.344 -10.364,23.488 51.797,10.359 -8.98,-8.054 86.328,-14.739 -20.715,-16.582 -85.813,16.114 -12.253,-10.586" /><path
         id="path30"
         style="fill:#ffffff;fill-opacity:1;fill-rule:nonzero;stroke:none"
         d="m 196.414,322.031 58.012,15.887 0.679,-24.863 -14.492,2.754 -28.316,-23.477 -27.016,3.938 29.223,22.976 -18.09,2.785" /><path
         id="path32"
         style="fill:#ffffff;fill-opacity:1;fill-rule:nonzero;stroke:none"
         d="m 171.555,232.938 -55.254,-10.348 -2.071,25.547 15.875,-3.461 30.415,25.976 26.914,-4.558 -32.461,-28.313 16.582,-4.843" /><path
         id="path34"
         style="fill:#087bbb;fill-opacity:1;fill-rule:nonzero;stroke:none"
         d="m 6.21875,176.746 c 19.09375,-32.012 86.43755,-53.73 175.97625,-53.73 87.16,0 162.649,24.172 183.801,54.785 l -0.176,21.015 c 0,-34.882 -86.757,-65.8 -183.625,-65.8 -96.863,0 -171.9411,29.961 -176.83172,63.3 l 0.85547,-19.57" /><path
         id="path36"
         style="fill:#918f90;fill-opacity:1;fill-rule:nonzero;stroke:none"
         d="m 167.938,146.238 0,-9.031 -31.446,0 46.446,-60.3047 46.437,60.3047 -31.477,0 0,9.031 -29.96,0" /><path
         id="path38"
         style="fill:#ffffff;fill-opacity:1;fill-rule:nonzero;stroke:none"
         d="m 138.809,25.4766 110,110.0004 -9.93,5.546 -110.024,-109.9878 9.954,-5.5586" /><path
         id="path40"
         style="fill:#ffffff;fill-opacity:1;fill-rule:nonzero;stroke:none"
         d="M 227.09,26.9922 118.145,135.652 127.98,141.316 236.934,32.6563 227.09,26.9922" /><path
         id="path42"
         style="fill:#ffffff;fill-opacity:1;fill-rule:nonzero;stroke:none"
         d="m 198.289,32.7227 -0.152,-9.9805 c 29.676,1.6523 72.703,6.1719 97.078,13.0469 l 0.176,9.6328 C 271.711,38.7305 227.258,34.3438 198.289,32.7227" /><path
         id="path44"
         style="fill:#ffffff;fill-opacity:1;fill-rule:nonzero;stroke:none"
         d="m 77.207,35.6367 c 23.43,-6.5742 62.395,-10.9804 90.789,-12.7383 l 0.625,9.2696 c -30.027,1.8633 -70.6718,7.4101 -90.8866,13.0937 l -0.5274,-9.625" /><path
         id="path46"
         style="fill:#ffffff;fill-opacity:1;fill-rule:nonzero;stroke:none"
         d="m 74.3164,141.219 c 23.5156,-6.856 62.7346,-11.492 91.5426,-13.418 l -0.058,9.98 c -30.442,2.032 -71.2893,7.129 -91.5822,13.047 l 0.0976,-9.609" /><path
         id="path48"
         style="fill:#ffffff;fill-opacity:1;fill-rule:nonzero;stroke:none"
         d="m 198.906,137.488 -0.898,-9.976 c 30.605,1.687 74.394,6.402 99.305,13.648 l 0.097,9.602 c -24.187,-7.032 -68.648,-11.621 -98.504,-13.274" /><path
         id="path50"
         style="fill:#ffffff;fill-opacity:1;fill-rule:nonzero;stroke:none"
         d="m 103.574,78.4688 14.649,-2.5625 -7.129,23.9648 -0.156,0.0195 -7.364,-21.4218 z m -7.1951,-20.5079 -12.6406,2.2032 20.4807,53.8669 13.84,-2.422 20.242,-60.9723 -13.047,2.2852 -3.672,12.4765 -21.199,3.7032 -4.0041,-11.1407" /><path
         id="path52"
         style="fill:#ffffff;fill-opacity:1;fill-rule:nonzero;stroke:none"
         d="m 262.258,85.2227 c 8.965,1.2617 8.965,7.6601 8.965,10.2148 0,5.6095 -3.125,7.4845 -10.571,6.4375 l -9.519,-1.34 0,-16.8827 11.125,1.5704 z m -11.125,-32.2071 -11.992,-1.6992 0,57.4456 26.242,3.699 c 11.109,1.57 17.832,-4.602 17.832,-15.879 0,-5.2031 -2.883,-18.7304 -18.32,-20.9062 l -13.762,-1.9453 0,-20.7149" /></g></g></svg>