<?xml version="1.0" encoding="UTF-8" standalone="no"?>
<svg
   xmlns:dc="http://purl.org/dc/elements/1.1/"
   xmlns:cc="http://creativecommons.org/ns#"
   xmlns:rdf="http://www.w3.org/1999/02/22-rdf-syntax-ns#"
   xmlns:svg="http://www.w3.org/2000/svg"
   xmlns="http://www.w3.org/2000/svg"
   viewBox="0 0 11.8375 9.8125"
   height="9.8125"
   width="11.8375"
   xml:space="preserve"
   version="1.1"
   id="svg2"><metadata
     id="metadata8"><rdf:RDF><cc:Work
         rdf:about=""><dc:format>image/svg+xml</dc:format><dc:type
           rdf:resource="http://purl.org/dc/dcmitype/StillImage" /></cc:Work></rdf:RDF></metadata><defs
     id="defs6"><clipPath
       id="clipPath18"
       clipPathUnits="userSpaceOnUse"><path
         id="path20"
         d="M 0,0 0,78 90,78 90,0 0,0 Z" /></clipPath></defs><g
     transform="matrix(1.25,0,0,-1.25,0,9.8125)"
     id="g10"><g
       transform="scale(0.1,0.1)"
       id="g12"><g
         id="g14"><g
           clip-path="url(#clipPath18)"
           id="g16"><path
             id="path22"
             style="fill:none;stroke:#02709f;stroke-width:5;stroke-linecap:round;stroke-linejoin:round;stroke-miterlimit:1;stroke-dasharray:none;stroke-opacity:1"
             d="M 18.4375,2.5 C 8.83594,10.1836 2.5,23.5039 2.5,38.6523 2.5,54.5898 9.51172,68.5039 19.9609,75.957" /><path
             id="path24"
             style="fill:none;stroke:#02709f;stroke-width:5;stroke-linecap:round;stroke-linejoin:round;stroke-miterlimit:1;stroke-dasharray:none;stroke-opacity:1"
             d="m 32.8828,2.5 c -9.6015,7.6836 -15.9297,21.0039 -15.9297,36.1523 0,15.9375 7.0117,29.8516 17.4532,37.3047" /><path
             id="path26"
             style="fill:none;stroke:#02709f;stroke-width:5;stroke-linecap:round;stroke-linejoin:round;stroke-miterlimit:1;stroke-dasharray:none;stroke-opacity:1"
             d="m 47.3359,2.5 c -9.6015,7.6836 -15.9375,21.0039 -15.9375,36.1523 0,15.9375 7.0196,29.8516 17.4571,37.3047" /><path
             id="path28"
             style="fill:none;stroke:#02709f;stroke-width:5;stroke-linecap:round;stroke-linejoin:round;stroke-miterlimit:1;stroke-dasharray:none;stroke-opacity:1"
             d="m 61.7773,2.5 c -9.5898,7.6836 -15.9296,21.0039 -15.9296,36.1523 0,15.9375 7.0117,29.8516 17.4609,37.3047" /><path
             id="path30"
             style="fill:none;stroke:#02709f;stroke-width:5;stroke-linecap:round;stroke-linejoin:round;stroke-miterlimit:1;stroke-dasharray:none;stroke-opacity:1"
             d="m 76.2305,2.5 c -9.5899,7.6836 -15.9297,21.0039 -15.9297,36.1523 0,15.9375 7.0156,29.8516 17.4531,37.3047" /><path
             id="path32"
             style="fill:none;stroke:#02709f;stroke-width:5;stroke-linecap:round;stroke-linejoin:round;stroke-miterlimit:1;stroke-dasharray:none;stroke-opacity:1"
             d="m 90.6797,2.5 c -9.5899,7.6836 -15.9336,21.0039 -15.9336,36.1523 0,15.9375 7.0273,29.8516 17.457,37.3047" /><path
             id="path34"
             style="fill:none;stroke:#02709f;stroke-width:5;stroke-linecap:round;stroke-linejoin:round;stroke-miterlimit:1;stroke-dasharray:none;stroke-opacity:1"
             d="M 18.4375,2.5 C 8.83594,10.1836 2.5,23.5039 2.5,38.6523 2.5,54.5898 9.51172,68.5039 19.9609,75.957" /><path
             id="path36"
             style="fill:none;stroke:#02709f;stroke-width:5;stroke-linecap:round;stroke-linejoin:round;stroke-miterlimit:1;stroke-dasharray:none;stroke-opacity:1"
             d="m 32.8828,2.5 c -9.6015,7.6836 -15.9297,21.0039 -15.9297,36.1523 0,15.9375 7.0117,29.8516 17.4532,37.3047" /><path
             id="path38"
             style="fill:none;stroke:#02709f;stroke-width:5;stroke-linecap:round;stroke-linejoin:round;stroke-miterlimit:1;stroke-dasharray:none;stroke-opacity:1"
             d="m 47.3359,2.5 c -9.6015,7.6836 -15.9375,21.0039 -15.9375,36.1523 0,15.9375 7.0196,29.8516 17.4571,37.3047" /><path
             id="path40"
             style="fill:none;stroke:#02709f;stroke-width:5;stroke-linecap:round;stroke-linejoin:round;stroke-miterlimit:1;stroke-dasharray:none;stroke-opacity:1"
             d="m 61.7773,2.5 c -9.5898,7.6836 -15.9296,21.0039 -15.9296,36.1523 0,15.9375 7.0117,29.8516 17.4609,37.3047" /><path
             id="path42"
             style="fill:none;stroke:#02709f;stroke-width:5;stroke-linecap:round;stroke-linejoin:round;stroke-miterlimit:1;stroke-dasharray:none;stroke-opacity:1"
             d="m 76.2305,2.5 c -9.5899,7.6836 -15.9297,21.0039 -15.9297,36.1523 0,15.9375 7.0156,29.8516 17.4531,37.3047" /><path
             id="path44"
             style="fill:none;stroke:#02709f;stroke-width:5;stroke-linecap:round;stroke-linejoin:round;stroke-miterlimit:1;stroke-dasharray:none;stroke-opacity:1"
             d="m 90.6797,2.5 c -9.5899,7.6836 -15.9336,21.0039 -15.9336,36.1523 0,15.9375 7.0273,29.8516 17.457,37.3047" /></g></g></g></g></svg>