<svg xmlns="http://www.w3.org/2000/svg" viewBox="0 0 11.25 11.25" height="11.25" width="11.25"><defs><clipPath id="a"><path d="M0 9v79h90V9H0z"/></clipPath></defs><g clip-path="url(#a)" fill="none" stroke="#02709f" stroke-width="5" stroke-linecap="round" stroke-linejoin="round" stroke-miterlimit="1" transform="matrix(.13 0 0 -.13 0 11.25)"><path d="M18.441 12.488C8.828 20.191 2.5 33.512 2.5 48.66c0 15.942 7.031 29.852 17.46 37.309"/><path d="M32.89 12.488c-9.609 7.703-15.94 21.024-15.94 36.172 0 15.942 7 29.852 17.46 37.309"/><path d="M47.34 12.488c-9.61 7.703-15.93 21.024-15.93 36.172 0 15.942 7.031 29.852 17.461 37.309"/><path d="M61.762 12.488c-9.57 7.703-15.903 21.024-15.903 36.172 0 15.942 6.993 29.852 17.461 37.309"/><path d="M76.25 12.488c-9.61 7.703-15.941 21.024-15.941 36.172 0 15.942 6.992 29.852 17.422 37.309"/><path d="M90.66 12.488c-9.57 7.703-15.89 21.024-15.89 36.172 0 15.942 6.992 29.852 17.421 37.309M18.441 12.488C8.828 20.191 2.5 33.512 2.5 48.66c0 15.942 7.031 29.852 17.46 37.309"/><path d="M32.89 12.488c-9.609 7.703-15.94 21.024-15.94 36.172 0 15.942 7 29.852 17.46 37.309"/><path d="M47.34 12.488c-9.61 7.703-15.93 21.024-15.93 36.172 0 15.942 7.031 29.852 17.461 37.309"/><path d="M61.762 12.488c-9.57 7.703-15.903 21.024-15.903 36.172 0 15.942 6.993 29.852 17.461 37.309"/><path d="M76.25 12.488c-9.61 7.703-15.941 21.024-15.941 36.172 0 15.942 6.992 29.852 17.422 37.309"/><path d="M90.66 12.488c-9.57 7.703-15.89 21.024-15.89 36.172 0 15.942 6.992 29.852 17.421 37.309"/></g></svg>