<?xml version="1.0" encoding="UTF-8" standalone="no"?>
<svg
   xmlns:dc="http://purl.org/dc/elements/1.1/"
   xmlns:cc="http://creativecommons.org/ns#"
   xmlns:rdf="http://www.w3.org/1999/02/22-rdf-syntax-ns#"
   xmlns:svg="http://www.w3.org/2000/svg"
   xmlns="http://www.w3.org/2000/svg"
   viewBox="0 0 11.25 11.25"
   height="11.25"
   width="11.25"
   xml:space="preserve"
   version="1.1"
   id="svg2"><metadata
     id="metadata8"><rdf:RDF><cc:Work
         rdf:about=""><dc:format>image/svg+xml</dc:format><dc:type
           rdf:resource="http://purl.org/dc/dcmitype/StillImage" /></cc:Work></rdf:RDF></metadata><defs
     id="defs6"><clipPath
       id="clipPath18"
       clipPathUnits="userSpaceOnUse"><path
         id="path20"
         d="M 0,9 0,88 90,88 90,9 0,9 Z" /></clipPath></defs><g
     transform="matrix(1.25,0,0,-1.25,0,11.25)"
     id="g10"><g
       transform="scale(0.1,0.1)"
       id="g12"><g
         id="g14"><g
           clip-path="url(#clipPath18)"
           id="g16"><path
             id="path22"
             style="fill:none;stroke:#02709f;stroke-width:5;stroke-linecap:round;stroke-linejoin:round;stroke-miterlimit:1;stroke-dasharray:none;stroke-opacity:1"
             d="M 18.4414,12.4883 C 8.82813,20.1914 2.5,33.5117 2.5,48.6602 c 0,15.9414 7.03125,29.8515 17.4609,37.3086" /><path
             id="path24"
             style="fill:none;stroke:#02709f;stroke-width:5;stroke-linecap:round;stroke-linejoin:round;stroke-miterlimit:1;stroke-dasharray:none;stroke-opacity:1"
             d="m 32.8906,12.4883 c -9.6093,7.7031 -15.9414,21.0234 -15.9414,36.1719 0,15.9414 7,29.8515 17.461,37.3086" /><path
             id="path26"
             style="fill:none;stroke:#02709f;stroke-width:5;stroke-linecap:round;stroke-linejoin:round;stroke-miterlimit:1;stroke-dasharray:none;stroke-opacity:1"
             d="m 47.3398,12.4883 c -9.6093,7.7031 -15.9296,21.0234 -15.9296,36.1719 0,15.9414 7.0312,29.8515 17.4609,37.3086" /><path
             id="path28"
             style="fill:none;stroke:#02709f;stroke-width:5;stroke-linecap:round;stroke-linejoin:round;stroke-miterlimit:1;stroke-dasharray:none;stroke-opacity:1"
             d="m 61.7617,12.4883 c -9.5703,7.7031 -15.9023,21.0234 -15.9023,36.1719 0,15.9414 6.9922,29.8515 17.4609,37.3086" /><path
             id="path30"
             style="fill:none;stroke:#02709f;stroke-width:5;stroke-linecap:round;stroke-linejoin:round;stroke-miterlimit:1;stroke-dasharray:none;stroke-opacity:1"
             d="m 76.25,12.4883 c -9.6094,7.7031 -15.9414,21.0234 -15.9414,36.1719 0,15.9414 6.9922,29.8515 17.4219,37.3086" /><path
             id="path32"
             style="fill:none;stroke:#02709f;stroke-width:5;stroke-linecap:round;stroke-linejoin:round;stroke-miterlimit:1;stroke-dasharray:none;stroke-opacity:1"
             d="m 90.6602,12.4883 c -9.5704,7.7031 -15.8907,21.0234 -15.8907,36.1719 0,15.9414 6.9922,29.8515 17.4219,37.3086" /><path
             id="path34"
             style="fill:none;stroke:#02709f;stroke-width:5;stroke-linecap:round;stroke-linejoin:round;stroke-miterlimit:1;stroke-dasharray:none;stroke-opacity:1"
             d="M 18.4414,12.4883 C 8.82813,20.1914 2.5,33.5117 2.5,48.6602 c 0,15.9414 7.03125,29.8515 17.4609,37.3086" /><path
             id="path36"
             style="fill:none;stroke:#02709f;stroke-width:5;stroke-linecap:round;stroke-linejoin:round;stroke-miterlimit:1;stroke-dasharray:none;stroke-opacity:1"
             d="m 32.8906,12.4883 c -9.6093,7.7031 -15.9414,21.0234 -15.9414,36.1719 0,15.9414 7,29.8515 17.461,37.3086" /><path
             id="path38"
             style="fill:none;stroke:#02709f;stroke-width:5;stroke-linecap:round;stroke-linejoin:round;stroke-miterlimit:1;stroke-dasharray:none;stroke-opacity:1"
             d="m 47.3398,12.4883 c -9.6093,7.7031 -15.9296,21.0234 -15.9296,36.1719 0,15.9414 7.0312,29.8515 17.4609,37.3086" /><path
             id="path40"
             style="fill:none;stroke:#02709f;stroke-width:5;stroke-linecap:round;stroke-linejoin:round;stroke-miterlimit:1;stroke-dasharray:none;stroke-opacity:1"
             d="m 61.7617,12.4883 c -9.5703,7.7031 -15.9023,21.0234 -15.9023,36.1719 0,15.9414 6.9922,29.8515 17.4609,37.3086" /><path
             id="path42"
             style="fill:none;stroke:#02709f;stroke-width:5;stroke-linecap:round;stroke-linejoin:round;stroke-miterlimit:1;stroke-dasharray:none;stroke-opacity:1"
             d="m 76.25,12.4883 c -9.6094,7.7031 -15.9414,21.0234 -15.9414,36.1719 0,15.9414 6.9922,29.8515 17.4219,37.3086" /><path
             id="path44"
             style="fill:none;stroke:#02709f;stroke-width:5;stroke-linecap:round;stroke-linejoin:round;stroke-miterlimit:1;stroke-dasharray:none;stroke-opacity:1"
             d="m 90.6602,12.4883 c -9.5704,7.7031 -15.8907,21.0234 -15.8907,36.1719 0,15.9414 6.9922,29.8515 17.4219,37.3086" /></g></g></g></g></svg>