<?xml version="1.0" encoding="UTF-8" standalone="no"?>
<svg
   xmlns:dc="http://purl.org/dc/elements/1.1/"
   xmlns:cc="http://creativecommons.org/ns#"
   xmlns:rdf="http://www.w3.org/1999/02/22-rdf-syntax-ns#"
   xmlns:svg="http://www.w3.org/2000/svg"
   xmlns="http://www.w3.org/2000/svg"
   viewBox="0 0 7.5 18.75"
   height="18.75"
   width="7.5"
   xml:space="preserve"
   version="1.1"
   id="svg2"><metadata
     id="metadata8"><rdf:RDF><cc:Work
         rdf:about=""><dc:format>image/svg+xml</dc:format><dc:type
           rdf:resource="http://purl.org/dc/dcmitype/StillImage" /></cc:Work></rdf:RDF></metadata><defs
     id="defs6" /><g
     transform="matrix(1.25,0,0,-1.25,0,18.75)"
     id="g10"><g
       transform="scale(0.1,0.1)"
       id="g12"><path
         id="path14"
         style="fill:#02709f;fill-opacity:1;fill-rule:nonzero;stroke:none"
         d="m 57.2305,11.9805 -22.1094,0 C 23.2813,25.4219 24.8398,53.0391 24.8398,53.0391 l -22.85152,0 0,44.1406 22.85152,0 c 0,0 -1.5585,27.6213 10.2813,41.0113 l 22.1094,0 0,-126.2105" /><path
         id="path16"
         style="fill:none;stroke:#02709f;stroke-width:3.99993992;stroke-linecap:butt;stroke-linejoin:miter;stroke-miterlimit:4;stroke-dasharray:none;stroke-opacity:1"
         d="m 57.2305,11.9883 -22.1094,0 C 23.2813,25.418 24.8398,53.0352 24.8398,53.0352 l -22.85152,0 0,44.1406 22.85152,0 c 0,0 -1.5585,27.6212 10.2813,41.0192 l 22.1094,0 0,-126.2067 z" /></g></g></svg>