<?xml version="1.0" encoding="UTF-8" standalone="no"?>
<svg
   xmlns:dc="http://purl.org/dc/elements/1.1/"
   xmlns:cc="http://creativecommons.org/ns#"
   xmlns:rdf="http://www.w3.org/1999/02/22-rdf-syntax-ns#"
   xmlns:svg="http://www.w3.org/2000/svg"
   xmlns="http://www.w3.org/2000/svg"
   viewBox="0 0 61.25 27.5"
   height="27.5"
   width="61.25"
   xml:space="preserve"
   version="1.1"
   id="svg2"><metadata
     id="metadata8"><rdf:RDF><cc:Work
         rdf:about=""><dc:format>image/svg+xml</dc:format><dc:type
           rdf:resource="http://purl.org/dc/dcmitype/StillImage" /></cc:Work></rdf:RDF></metadata><defs
     id="defs6" /><g
     transform="matrix(1.25,0,0,-1.25,0,27.5)"
     id="g10"><g
       transform="scale(0.1,0.1)"
       id="g12"><path
         id="path14"
         style="fill:#087bbb;fill-opacity:1;fill-rule:nonzero;stroke:none"
         d="m 6.55859,18.4492 357.23,0 0,77.0703 -357.23,0 0,-77.0703 z" /><path
         id="path16"
         style="fill:none;stroke:#ffffff;stroke-width:3.99993992;stroke-linecap:butt;stroke-linejoin:miter;stroke-miterlimit:4;stroke-dasharray:none;stroke-opacity:1"
         d="m 6.55859,18.4531 357.23,0 0,77.0703 -357.23,0 0,-77.0703 z" /><path
         id="path18"
         style="fill:#087bbb;fill-opacity:1;fill-rule:nonzero;stroke:none"
         d="M 5.62109,94.9414 149.922,211.891 l 333.316,0 -119.797,-116.9496 -357.81991,0" /><path
         id="path20"
         style="fill:none;stroke:#ffffff;stroke-width:3.99993992;stroke-linecap:butt;stroke-linejoin:miter;stroke-miterlimit:4;stroke-dasharray:none;stroke-opacity:1"
         d="M 5.62109,94.9414 149.922,211.895 l 333.316,0 -119.797,-116.9536 -357.81991,0 z" /><path
         id="path22"
         style="fill:#087bbb;fill-opacity:1;fill-rule:nonzero;stroke:none"
         d="M 363.59,14.8203 482.891,133.648 482.969,211.66 363.59,95.0898 l 0,-80.2695" /><path
         id="path24"
         style="fill:none;stroke:#ffffff;stroke-width:3.99993992;stroke-linecap:butt;stroke-linejoin:miter;stroke-miterlimit:4;stroke-dasharray:none;stroke-opacity:1"
         d="m 363.59,14.8242 119.301,118.8278 0.078,78 -119.379,-116.5582 0,-80.2696 z" /><path
         id="path26"
         style="fill:#ffffff;fill-opacity:1;fill-rule:nonzero;stroke:none"
         d="m 237.07,181.539 8.051,-26.559 -54.812,6.829 15.351,5.589 -55.969,30.43 21.598,8.203 53.242,-28.711 12.539,4.219" /><path
         id="path28"
         style="fill:#ffffff;fill-opacity:1;fill-rule:nonzero;stroke:none"
         d="m 264.059,125.801 -9.219,25.578 54.301,-7.027 -9.84,-4.692 60.82,-28.551 -22.5,-8.949 -60.199,29.649 -13.363,-6.008" /><path
         id="path30"
         style="fill:#ffffff;fill-opacity:1;fill-rule:nonzero;stroke:none"
         d="m 378.359,202.871 59.961,-4.57 -7.73,-23.641 -12.699,7.5 -123.321,-28.82 -24.14,12.769 124.019,28.051 -16.09,8.711" /><path
         id="path32"
         style="fill:#ffffff;fill-opacity:1;fill-rule:nonzero;stroke:none"
         d="m 117.422,102.559 -55.5118,8.82 6.6796,24.769 13.7891,-8.589 124.8911,25.461 23.781,-13.36 -127.571,-26.988 13.942,-10.113" /><path
         id="path34"
         style="fill:#ffffff;fill-opacity:1;fill-rule:nonzero;stroke:none"
         d="m 31.3711,42.1602 76.25,0 0,31.25 -76.25,0 0,-31.25 z" /><path
         id="path36"
         style="fill:#ffffff;fill-opacity:1;fill-rule:nonzero;stroke:none"
         d="m 256.09,42.1602 76.25,0 0,31.25 -76.25,0 0,-31.25 z" /></g></g></svg>