<?xml version="1.0" encoding="UTF-8" standalone="no"?>
<svg
   xmlns:dc="http://purl.org/dc/elements/1.1/"
   xmlns:cc="http://creativecommons.org/ns#"
   xmlns:rdf="http://www.w3.org/1999/02/22-rdf-syntax-ns#"
   xmlns:svg="http://www.w3.org/2000/svg"
   xmlns="http://www.w3.org/2000/svg"
   viewBox="0 0 26.9125 45.3125"
   height="45.3125"
   width="26.9125"
   xml:space="preserve"
   version="1.1"
   id="svg2"><metadata
     id="metadata8"><rdf:RDF><cc:Work
         rdf:about=""><dc:format>image/svg+xml</dc:format><dc:type
           rdf:resource="http://purl.org/dc/dcmitype/StillImage" /></cc:Work></rdf:RDF></metadata><defs
     id="defs6"><clipPath
       id="clipPath18"
       clipPathUnits="userSpaceOnUse"><path
         id="path20"
         d="M 0,2 0,363 215,363 215,2 0,2 Z" /></clipPath></defs><g
     transform="matrix(1.25,0,0,-1.25,0,45.3125)"
     id="g10"><g
       transform="scale(0.1,0.1)"
       id="g12"><g
         id="g14"><g
           clip-path="url(#clipPath18)"
           id="g16"><path
             id="path22"
             style="fill:#02709f;fill-opacity:1;fill-rule:nonzero;stroke:none"
             d="m 210.41,42.0391 -38.254,-37.29301 0,315.74591 38.254,37.285 0,-315.7379" /><path
             id="path24"
             style="fill:none;stroke:#ffffff;stroke-width:3.99993992;stroke-linecap:butt;stroke-linejoin:miter;stroke-miterlimit:4;stroke-dasharray:none;stroke-opacity:1"
             d="m 210.41,42.0391 -38.254,-37.29301 0,315.74591 38.254,37.285 0,-315.7379 z" /><path
             id="path26"
             style="fill:#02709f;fill-opacity:1;fill-rule:nonzero;stroke:none"
             d="m 4.91797,4.74609 167.238,0 0,315.746 -167.238,0 0,-315.746 z" /><path
             id="path28"
             style="fill:none;stroke:#ffffff;stroke-width:3.99993992;stroke-linecap:butt;stroke-linejoin:miter;stroke-miterlimit:4;stroke-dasharray:none;stroke-opacity:1"
             d="m 4.91797,4.74609 167.238,0 0,315.746 -167.238,0 0,-315.746 z" /><path
             id="path30"
             style="fill:#02709f;fill-opacity:1;fill-rule:nonzero;stroke:none"
             d="m 43.1641,357.777 167.2459,0 -38.254,-37.285 -167.23803,0 38.24613,37.285" /><path
             id="path32"
             style="fill:none;stroke:#ffffff;stroke-width:3.99993992;stroke-linecap:butt;stroke-linejoin:miter;stroke-miterlimit:4;stroke-dasharray:none;stroke-opacity:1"
             d="m 43.1641,357.777 167.2459,0 -38.254,-37.285 -167.23803,0 38.24613,37.285 z" /><path
             id="path34"
             style="fill:#ffffff;fill-opacity:1;fill-rule:nonzero;stroke:none"
             d="m 50.2891,243.301 72.25,0 0,42.5 -72.25,0 0,-42.5 z" /><path
             id="path36"
             style="fill:#ffffff;fill-opacity:1;fill-rule:nonzero;stroke:none"
             d="m 36.4727,195.602 c 5.8125,0 10.5195,4.703 10.5195,10.511 0,5.813 -4.707,10.52 -10.5195,10.52 -5.8086,0 -10.5157,-4.707 -10.5157,-10.52 0,-5.808 4.7071,-10.511 10.5157,-10.511" /><path
             id="path38"
             style="fill:#ffffff;fill-opacity:1;fill-rule:nonzero;stroke:none"
             d="m 36.4727,157.348 c 5.8125,0 10.5195,4.707 10.5195,10.519 0,5.809 -4.707,10.516 -10.5195,10.516 -5.8086,0 -10.5157,-4.707 -10.5157,-10.516 0,-5.812 4.7071,-10.519 10.5157,-10.519" /><path
             id="path40"
             style="fill:#ffffff;fill-opacity:1;fill-rule:nonzero;stroke:none"
             d="m 36.4727,119.098 c 5.8125,0 10.5195,4.707 10.5195,10.515 0,5.813 -4.707,10.52 -10.5195,10.52 -5.8086,0 -10.5157,-4.707 -10.5157,-10.52 0,-5.808 4.7071,-10.515 10.5157,-10.515" /><path
             id="path42"
             style="fill:#ffffff;fill-opacity:1;fill-rule:nonzero;stroke:none"
             d="m 36.4727,80.8516 c 5.8125,0 10.5195,4.707 10.5195,10.5156 0,5.8125 -4.707,10.5198 -10.5195,10.5198 -5.8086,0 -10.5157,-4.7073 -10.5157,-10.5198 0,-5.8086 4.7071,-10.5156 10.5157,-10.5156" /><path
             id="path44"
             style="fill:#ffffff;fill-opacity:1;fill-rule:nonzero;stroke:none"
             d="m 36.4727,42.5977 c 5.8125,0 10.5195,4.707 10.5195,10.5195 0,5.8086 -4.707,10.5156 -10.5195,10.5156 -5.8086,0 -10.5157,-4.707 -10.5157,-10.5156 0,-5.8125 4.7071,-10.5195 10.5157,-10.5195" /><path
             id="path46"
             style="fill:none;stroke:#ffffff;stroke-width:3.99993992;stroke-linecap:butt;stroke-linejoin:miter;stroke-miterlimit:4;stroke-dasharray:none;stroke-opacity:1"
             d="m 50.2891,209.301 67.9959,0" /><path
             id="path48"
             style="fill:none;stroke:#ffffff;stroke-width:3.99993992;stroke-linecap:butt;stroke-linejoin:miter;stroke-miterlimit:4;stroke-dasharray:none;stroke-opacity:1"
             d="m 50.2891,171.055 67.9959,0" /><path
             id="path50"
             style="fill:none;stroke:#ffffff;stroke-width:3.99993992;stroke-linecap:butt;stroke-linejoin:miter;stroke-miterlimit:4;stroke-dasharray:none;stroke-opacity:1"
             d="m 50.2891,132.805 67.9959,0" /><path
             id="path52"
             style="fill:none;stroke:#ffffff;stroke-width:3.99993992;stroke-linecap:butt;stroke-linejoin:miter;stroke-miterlimit:4;stroke-dasharray:none;stroke-opacity:1"
             d="m 50.2891,94.5508 67.9959,0" /><path
             id="path54"
             style="fill:none;stroke:#ffffff;stroke-width:3.99993992;stroke-linecap:butt;stroke-linejoin:miter;stroke-miterlimit:4;stroke-dasharray:none;stroke-opacity:1"
             d="m 50.2891,56.3047 67.9959,0" /><path
             id="path56"
             style="fill:#ffffff;fill-opacity:1;fill-rule:nonzero;stroke:none"
             d="m 134.23,195.602 c 5.797,0 10.504,4.703 10.504,10.511 0,5.813 -4.707,10.52 -10.504,10.52 -5.824,0 -10.531,-4.707 -10.531,-10.52 0,-5.808 4.707,-10.511 10.531,-10.511" /><path
             id="path58"
             style="fill:#ffffff;fill-opacity:1;fill-rule:nonzero;stroke:none"
             d="m 134.23,157.348 c 5.797,0 10.504,4.707 10.504,10.519 0,5.809 -4.707,10.516 -10.504,10.516 -5.824,0 -10.531,-4.707 -10.531,-10.516 0,-5.812 4.707,-10.519 10.531,-10.519" /><path
             id="path60"
             style="fill:#ffffff;fill-opacity:1;fill-rule:nonzero;stroke:none"
             d="m 134.23,119.098 c 5.797,0 10.504,4.707 10.504,10.515 0,5.813 -4.707,10.52 -10.504,10.52 -5.824,0 -10.531,-4.707 -10.531,-10.52 0,-5.808 4.707,-10.515 10.531,-10.515" /><path
             id="path62"
             style="fill:#ffffff;fill-opacity:1;fill-rule:nonzero;stroke:none"
             d="m 134.23,80.8516 c 5.797,0 10.504,4.707 10.504,10.5156 0,5.8125 -4.707,10.5198 -10.504,10.5198 -5.824,0 -10.531,-4.7073 -10.531,-10.5198 0,-5.8086 4.707,-10.5156 10.531,-10.5156" /><path
             id="path64"
             style="fill:#ffffff;fill-opacity:1;fill-rule:nonzero;stroke:none"
             d="m 134.23,42.5977 c 5.797,0 10.504,4.707 10.504,10.5195 0,5.8086 -4.707,10.5156 -10.504,10.5156 -5.824,0 -10.531,-4.707 -10.531,-10.5156 0,-5.8125 4.707,-10.5195 10.531,-10.5195" /></g></g></g></g></svg>