<?xml version="1.0" encoding="UTF-8" standalone="no"?>
<svg
   xmlns:dc="http://purl.org/dc/elements/1.1/"
   xmlns:cc="http://creativecommons.org/ns#"
   xmlns:rdf="http://www.w3.org/1999/02/22-rdf-syntax-ns#"
   xmlns:svg="http://www.w3.org/2000/svg"
   xmlns="http://www.w3.org/2000/svg"
   viewBox="0 0 27.5 47.5"
   height="47.5"
   width="27.5"
   xml:space="preserve"
   version="1.1"
   id="svg2"><metadata
     id="metadata8"><rdf:RDF><cc:Work
         rdf:about=""><dc:format>image/svg+xml</dc:format><dc:type
           rdf:resource="http://purl.org/dc/dcmitype/StillImage" /></cc:Work></rdf:RDF></metadata><defs
     id="defs6"><clipPath
       id="clipPath18"
       clipPathUnits="userSpaceOnUse"><path
         id="path20"
         d="M 0,10 0,371 215,371 215,10 0,10 Z" /></clipPath></defs><g
     transform="matrix(1.25,0,0,-1.25,0,47.5)"
     id="g10"><g
       transform="scale(0.1,0.1)"
       id="g12"><g
         id="g14"><g
           clip-path="url(#clipPath18)"
           id="g16"><path
             id="path22"
             style="fill:#02709f;fill-opacity:1;fill-rule:nonzero;stroke:none"
             d="M 210.391,50.0508 172.148,12.75 l 0,315.738 38.243,37.301 0,-315.7382" /><path
             id="path24"
             style="fill:none;stroke:#ffffff;stroke-width:3.99993992;stroke-linecap:butt;stroke-linejoin:miter;stroke-miterlimit:4;stroke-dasharray:none;stroke-opacity:1"
             d="M 210.391,50.0508 172.148,12.75 l 0,315.738 38.243,37.301 0,-315.7382 z" /><path
             id="path26"
             style="fill:#02709f;fill-opacity:1;fill-rule:nonzero;stroke:none"
             d="m 4.92188,12.75 167.227,0 0,315.738 -167.227,0 0,-315.738 z" /><path
             id="path28"
             style="fill:none;stroke:#ffffff;stroke-width:3.99993992;stroke-linecap:butt;stroke-linejoin:miter;stroke-miterlimit:4;stroke-dasharray:none;stroke-opacity:1"
             d="m 4.92188,12.75 167.227,0 0,315.738 -167.227,0 0,-315.738 z" /><path
             id="path30"
             style="fill:#02709f;fill-opacity:1;fill-rule:nonzero;stroke:none"
             d="m 43.1602,365.789 167.2308,0 -38.243,-37.301 -167.22612,0 38.23832,37.301" /><path
             id="path32"
             style="fill:none;stroke:#ffffff;stroke-width:3.99993992;stroke-linecap:butt;stroke-linejoin:miter;stroke-miterlimit:4;stroke-dasharray:none;stroke-opacity:1"
             d="m 43.1602,365.789 167.2308,0 -38.243,-37.301 -167.22612,0 38.23832,37.301 z" /><path
             id="path34"
             style="fill:#ffffff;fill-opacity:1;fill-rule:nonzero;stroke:none"
             d="m 50.2695,251.301 72.2695,0 0,42.5 -72.2695,0 0,-42.5 z" /><path
             id="path36"
             style="fill:#ffffff;fill-opacity:1;fill-rule:nonzero;stroke:none"
             d="m 36.4805,203.609 c 5.789,0 10.5078,4.68 10.5078,10.5 0,5.821 -4.7188,10.508 -10.5078,10.508 -5.8203,0 -10.5391,-4.687 -10.5391,-10.508 0,-5.82 4.7188,-10.5 10.5391,-10.5" /><path
             id="path38"
             style="fill:#ffffff;fill-opacity:1;fill-rule:nonzero;stroke:none"
             d="m 36.4805,165.359 c 5.789,0 10.5078,4.692 10.5078,10.508 0,5.821 -4.7188,10.512 -10.5078,10.512 -5.8203,0 -10.5391,-4.691 -10.5391,-10.512 0,-5.816 4.7188,-10.508 10.5391,-10.508" /><path
             id="path40"
             style="fill:#ffffff;fill-opacity:1;fill-rule:nonzero;stroke:none"
             d="m 36.4805,127.078 c 5.789,0 10.5078,4.731 10.5078,10.551 0,5.781 -4.7188,10.512 -10.5078,10.512 -5.8203,0 -10.5391,-4.731 -10.5391,-10.512 0,-5.82 4.7188,-10.551 10.5391,-10.551" /><path
             id="path42"
             style="fill:#ffffff;fill-opacity:1;fill-rule:nonzero;stroke:none"
             d="m 36.4805,88.8398 c 5.789,0 10.5078,4.7305 10.5078,10.5508 0,5.7774 -4.7188,10.5074 -10.5078,10.5074 -5.8203,0 -10.5391,-4.73 -10.5391,-10.5074 0,-5.8203 4.7188,-10.5508 10.5391,-10.5508" /><path
             id="path44"
             style="fill:#ffffff;fill-opacity:1;fill-rule:nonzero;stroke:none"
             d="m 36.4805,50.5977 c 5.789,0 10.5078,4.7226 10.5078,10.5117 0,5.8203 -4.7188,10.539 -10.5078,10.539 -5.8203,0 -10.5391,-4.7187 -10.5391,-10.539 0,-5.7891 4.7188,-10.5117 10.5391,-10.5117" /><path
             id="path46"
             style="fill:none;stroke:#ffffff;stroke-width:3.99993992;stroke-linecap:butt;stroke-linejoin:miter;stroke-miterlimit:4;stroke-dasharray:none;stroke-opacity:1"
             d="m 50.2695,217.32 68.0115,0" /><path
             id="path48"
             style="fill:none;stroke:#ffffff;stroke-width:3.99993992;stroke-linecap:butt;stroke-linejoin:miter;stroke-miterlimit:4;stroke-dasharray:none;stroke-opacity:1"
             d="m 50.2695,179.07 68.0115,0" /><path
             id="path50"
             style="fill:none;stroke:#ffffff;stroke-width:3.99993992;stroke-linecap:butt;stroke-linejoin:miter;stroke-miterlimit:4;stroke-dasharray:none;stroke-opacity:1"
             d="m 50.2695,140.789 68.0115,0" /><path
             id="path52"
             style="fill:none;stroke:#ffffff;stroke-width:3.99993992;stroke-linecap:butt;stroke-linejoin:miter;stroke-miterlimit:4;stroke-dasharray:none;stroke-opacity:1"
             d="m 50.2695,102.551 68.0115,0" /><path
             id="path54"
             style="fill:none;stroke:#ffffff;stroke-width:3.99993992;stroke-linecap:butt;stroke-linejoin:miter;stroke-miterlimit:4;stroke-dasharray:none;stroke-opacity:1"
             d="m 50.2695,64.3086 68.0115,0" /><path
             id="path56"
             style="fill:#ffffff;fill-opacity:1;fill-rule:nonzero;stroke:none"
             d="m 134.219,203.609 c 5.82,0 10.511,4.68 10.511,10.5 0,5.821 -4.691,10.508 -10.511,10.508 -5.821,0 -10.508,-4.687 -10.508,-10.508 0,-5.82 4.687,-10.5 10.508,-10.5" /><path
             id="path58"
             style="fill:#ffffff;fill-opacity:1;fill-rule:nonzero;stroke:none"
             d="m 134.219,165.359 c 5.82,0 10.511,4.692 10.511,10.508 0,5.821 -4.691,10.512 -10.511,10.512 -5.821,0 -10.508,-4.691 -10.508,-10.512 0,-5.816 4.687,-10.508 10.508,-10.508" /><path
             id="path60"
             style="fill:#ffffff;fill-opacity:1;fill-rule:nonzero;stroke:none"
             d="m 134.219,127.078 c 5.82,0 10.511,4.731 10.511,10.551 0,5.781 -4.691,10.512 -10.511,10.512 -5.821,0 -10.508,-4.731 -10.508,-10.512 0,-5.82 4.687,-10.551 10.508,-10.551" /><path
             id="path62"
             style="fill:#ffffff;fill-opacity:1;fill-rule:nonzero;stroke:none"
             d="m 134.219,88.8398 c 5.82,0 10.511,4.7305 10.511,10.5508 0,5.7774 -4.691,10.5074 -10.511,10.5074 -5.821,0 -10.508,-4.73 -10.508,-10.5074 0,-5.8203 4.687,-10.5508 10.508,-10.5508" /><path
             id="path64"
             style="fill:#ffffff;fill-opacity:1;fill-rule:nonzero;stroke:none"
             d="m 134.219,50.5977 c 5.82,0 10.511,4.7226 10.511,10.5117 0,5.8203 -4.691,10.539 -10.511,10.539 -5.821,0 -10.508,-4.7187 -10.508,-10.539 0,-5.7891 4.687,-10.5117 10.508,-10.5117" /></g></g></g></g></svg>