<svg xmlns="http://www.w3.org/2000/svg" viewBox="0 0 46.25 46.25" height="46.25" width="46.25"><path d="M46.23 9.18c0 4.936-10.293 8.94-22.987 8.94-12.7 0-22.994-4.004-22.994-8.94V37.56c0 4.941 10.293 8.94 22.994 8.94 12.695 0 22.987-3.999 22.987-8.94V9.18" fill="#087bbb"/><path d="M46.23 9.18c0 4.936-10.293 8.94-22.987 8.94-12.7 0-22.994-4.004-22.994-8.94V37.56c0 4.941 10.293 8.94 22.994 8.94 12.695 0 22.987-3.999 22.987-8.94V9.18z" fill="none" stroke="#fff" stroke-width=".5"/><path d="M23.243 18.12c12.695 0 22.987-4.004 22.987-8.94C46.23 4.24 35.938.235 23.243.235 10.543.235.249 4.239.249 9.18c0 4.936 10.293 8.94 22.994 8.94" fill="#087bbb"/><path d="M23.243 18.12c12.695 0 22.987-4.004 22.987-8.94C46.23 4.24 35.938.235 23.243.235 10.543.235.249 4.239.249 9.18c0 4.936 10.293 8.94 22.994 8.94z" fill="none" stroke="#fff" stroke-width=".5"/><path d="M20.743 22.828v17.085l19.974-8.263-19.974-8.822M18.589 22.666v3.574l-6.48.005v-3.569l6.48-.01" fill="#fff"/><path d="M18.589 22.666v3.574l-6.48.005v-3.569l6.48-.01z" fill="none" stroke="#231f20" stroke-width=".5"/><path d="M18.589 27.324v3.57l-6.48.005v-3.57l6.48-.005" fill="#fff"/><path d="M18.589 27.324v3.57l-6.48.005v-3.57l6.48-.005z" fill="none" stroke="#231f20" stroke-width=".5"/><path d="M18.589 32.075v3.57l-6.48.005v-3.57l6.48-.005" fill="#fff"/><path d="M18.589 32.075v3.57l-6.48.005v-3.57l6.48-.005z" fill="none" stroke="#231f20" stroke-width=".5"/><path d="M18.589 36.821v3.574l-6.48.005V36.83l6.48-.01" fill="#fff"/><path d="M18.589 36.821v3.574l-6.48.005V36.83l6.48-.01z" fill="none" stroke="#231f20" stroke-width=".5"/><path d="M18.315 5.371l1.9 2.852-7.177 1.654 1.567-1.303L3.515 6.68l2.779-2.09 10.709 1.816 1.312-1.035M28.418 12.28l-1.294-2.934 6.475-1.299-1.124 1.01L43.266 10.9l-2.592 2.07-10.723-2.012-1.533 1.323M24.878 3.819l7.25-1.988.088 3.11-1.811-.346-3.54 2.934-3.379-.488 3.653-2.876-2.261-.346M21.768 14.956l-6.904 1.294-.259-3.194 1.986.43 3.8-3.247 3.364.571-4.058 3.54 2.07.606" fill="#fff"/></svg>