<?xml version="1.0" encoding="UTF-8" standalone="no"?>
<svg
   xmlns:dc="http://purl.org/dc/elements/1.1/"
   xmlns:cc="http://creativecommons.org/ns#"
   xmlns:rdf="http://www.w3.org/1999/02/22-rdf-syntax-ns#"
   xmlns:svg="http://www.w3.org/2000/svg"
   xmlns="http://www.w3.org/2000/svg"
   viewBox="0 0 46.450001 46.762501"
   height="46.762501"
   width="46.450001"
   xml:space="preserve"
   version="1.1"
   id="svg2"><metadata
     id="metadata8"><rdf:RDF><cc:Work
         rdf:about=""><dc:format>image/svg+xml</dc:format><dc:type
           rdf:resource="http://purl.org/dc/dcmitype/StillImage" /></cc:Work></rdf:RDF></metadata><defs
     id="defs6"><clipPath
       id="clipPath18"
       clipPathUnits="userSpaceOnUse"><path
         id="path20"
         d="M 0,4 0,374 370,374 370,4 0,4 Z" /></clipPath></defs><g
     transform="matrix(1.25,0,0,-1.25,0,46.7625)"
     id="g10"><g
       transform="scale(0.1,0.1)"
       id="g12"><g
         id="g14"><g
           clip-path="url(#clipPath18)"
           id="g16"><path
             id="path22"
             style="fill:#087bbb;fill-opacity:1;fill-rule:nonzero;stroke:none"
             d="m 369.855,300.578 c 0,-39.504 -82.343,-71.523 -183.925,-71.523 C 84.3477,229.055 2,261.074 2,300.578 L 2,73.5273 C 2,34.0156 84.3477,1.99219 185.93,1.99219 c 101.582,0 183.925,32.02341 183.925,71.53511 l 0,227.0507" /><path
             id="path24"
             style="fill:none;stroke:#ffffff;stroke-width:3.99993992;stroke-linecap:butt;stroke-linejoin:miter;stroke-miterlimit:4;stroke-dasharray:none;stroke-opacity:1"
             d="m 369.855,300.578 c 0,-39.504 -82.343,-71.523 -183.925,-71.523 C 84.3477,229.055 2,261.074 2,300.578 L 2,73.5273 C 2,34.0156 84.3477,1.99219 185.93,1.99219 c 101.582,0 183.925,32.02341 183.925,71.53511 l 0,227.0507 z" /><path
             id="path26"
             style="fill:#087bbb;fill-opacity:1;fill-rule:nonzero;stroke:none"
             d="m 185.93,229.055 c 101.582,0 183.925,32.019 183.925,71.523 0,39.512 -82.343,71.531 -183.925,71.531 C 84.3477,372.109 2,340.09 2,300.578 2,261.074 84.3477,229.055 185.93,229.055" /><path
             id="path28"
             style="fill:none;stroke:#ffffff;stroke-width:3.99993992;stroke-linecap:butt;stroke-linejoin:miter;stroke-miterlimit:4;stroke-dasharray:none;stroke-opacity:1"
             d="m 185.93,229.055 c 101.582,0 183.925,32.019 183.925,71.523 0,39.512 -82.343,71.531 -183.925,71.531 C 84.3477,372.109 2,340.09 2,300.578 2,261.074 84.3477,229.055 185.93,229.055 Z" /><path
             id="path30"
             style="fill:#ffffff;fill-opacity:1;fill-rule:nonzero;stroke:none"
             d="m 165.945,191.379 0,-136.672 159.797,66.074 -159.797,70.598" /><path
             id="path32"
             style="fill:#ffffff;fill-opacity:1;fill-rule:nonzero;stroke:none"
             d="m 148.699,192.656 0.024,-28.562 -51.8363,-0.039 -0.0234,28.543 51.8357,0.058" /><path
             id="path34"
             style="fill:none;stroke:#231f20;stroke-width:3.99993992;stroke-linecap:butt;stroke-linejoin:miter;stroke-miterlimit:4;stroke-dasharray:none;stroke-opacity:1"
             d="m 148.699,192.656 0.024,-28.562 -51.8363,-0.039 -0.0234,28.543 51.8357,0.058 z" /><path
             id="path36"
             style="fill:#ffffff;fill-opacity:1;fill-rule:nonzero;stroke:none"
             d="m 148.699,155.41 0.024,-28.562 -51.8363,-0.039 -0.0234,28.543 51.8357,0.058" /><path
             id="path38"
             style="fill:none;stroke:#231f20;stroke-width:3.99993992;stroke-linecap:butt;stroke-linejoin:miter;stroke-miterlimit:4;stroke-dasharray:none;stroke-opacity:1"
             d="m 148.699,155.41 0.024,-28.562 -51.8363,-0.039 -0.0234,28.543 51.8357,0.058 z" /><path
             id="path40"
             style="fill:#ffffff;fill-opacity:1;fill-rule:nonzero;stroke:none"
             d="m 148.699,117.414 0.024,-28.5742 -51.8363,-0.0312 -0.0234,28.5464 51.8357,0.059" /><path
             id="path42"
             style="fill:none;stroke:#231f20;stroke-width:3.99993992;stroke-linecap:butt;stroke-linejoin:miter;stroke-miterlimit:4;stroke-dasharray:none;stroke-opacity:1"
             d="m 148.699,117.414 0.024,-28.5742 -51.8363,-0.0312 -0.0234,28.5464 51.8357,0.059 z" /><path
             id="path44"
             style="fill:#ffffff;fill-opacity:1;fill-rule:nonzero;stroke:none"
             d="m 148.699,79.4141 0.024,-28.5743 -51.8363,-0.0273 -0.0234,28.5352 51.8357,0.0664" /><path
             id="path46"
             style="fill:none;stroke:#231f20;stroke-width:3.99993992;stroke-linecap:butt;stroke-linejoin:miter;stroke-miterlimit:4;stroke-dasharray:none;stroke-opacity:1"
             d="m 148.699,79.4141 0.024,-28.5743 -51.8363,-0.0273 -0.0234,28.5352 51.8357,0.0664 z" /><path
             id="path48"
             style="fill:#ffffff;fill-opacity:1;fill-rule:nonzero;stroke:none"
             d="m 146.531,331.016 15.199,-22.782 -57.421,-13.273 12.539,10.461 -88.7425,15.156 22.2539,16.688 85.6486,-14.5 10.523,8.25" /><path
             id="path50"
             style="fill:#ffffff;fill-opacity:1;fill-rule:nonzero;stroke:none"
             d="m 227.336,275.773 -10.356,23.477 51.797,10.359 -8.98,-8.054 86.324,-14.739 -20.723,-16.57 -85.796,16.113 -12.266,-10.586" /><path
             id="path52"
             style="fill:#ffffff;fill-opacity:1;fill-rule:nonzero;stroke:none"
             d="m 199.023,343.449 58.016,15.887 0.688,-24.863 -14.504,2.765 -28.313,-23.476 -27.019,3.926 29.226,22.988 -18.094,2.773" /><path
             id="path54"
             style="fill:#ffffff;fill-opacity:1;fill-rule:nonzero;stroke:none"
             d="m 174.16,254.367 -55.246,-10.363 -2.066,25.547 15.879,-3.446 30.41,25.965 26.914,-4.558 -32.461,-28.313 16.57,-4.832" /></g></g></g></g></svg>