<?xml version="1.0" encoding="UTF-8" standalone="no"?>
<svg
   xmlns:dc="http://purl.org/dc/elements/1.1/"
   xmlns:cc="http://creativecommons.org/ns#"
   xmlns:rdf="http://www.w3.org/1999/02/22-rdf-syntax-ns#"
   xmlns:svg="http://www.w3.org/2000/svg"
   xmlns="http://www.w3.org/2000/svg"
   viewBox="0 0 46.25 46.25"
   height="46.25"
   width="46.25"
   xml:space="preserve"
   version="1.1"
   id="svg2"><metadata
     id="metadata8"><rdf:RDF><cc:Work
         rdf:about=""><dc:format>image/svg+xml</dc:format><dc:type
           rdf:resource="http://purl.org/dc/dcmitype/StillImage" /></cc:Work></rdf:RDF></metadata><defs
     id="defs6" /><g
     transform="matrix(1.25,0,0,-1.25,0,46.25)"
     id="g10"><g
       transform="scale(0.1,0.1)"
       id="g12"><path
         id="path14"
         style="fill:#087bbb;fill-opacity:1;fill-rule:nonzero;stroke:none"
         d="m 369.84,296.559 c 0,-39.489 -82.34,-71.52 -183.899,-71.52 -101.6012,0 -183.95272,32.031 -183.95272,71.52 l 0,-227.0277 C 1.98828,30 84.3398,-1.98828 185.941,-1.98828 287.5,-1.98828 369.84,30 369.84,69.5313 l 0,227.0277" /><path
         id="path16"
         style="fill:none;stroke:#ffffff;stroke-width:3.99993992;stroke-linecap:butt;stroke-linejoin:miter;stroke-miterlimit:4;stroke-dasharray:none;stroke-opacity:1"
         d="m 369.84,296.559 c 0,-39.489 -82.34,-71.52 -183.899,-71.52 -101.6012,0 -183.95272,32.031 -183.95272,71.52 l 0,-227.0277 C 1.98828,30 84.3398,-1.98828 185.941,-1.98828 287.5,-1.98828 369.84,30 369.84,69.5313 l 0,227.0277 z" /><path
         id="path18"
         style="fill:#087bbb;fill-opacity:1;fill-rule:nonzero;stroke:none"
         d="m 185.941,225.039 c 101.559,0 183.899,32.031 183.899,71.52 0,39.531 -82.34,71.562 -183.899,71.562 -101.6012,0 -183.95272,-32.031 -183.95272,-71.562 0,-39.489 82.35152,-71.52 183.95272,-71.52" /><path
         id="path20"
         style="fill:none;stroke:#ffffff;stroke-width:3.99993992;stroke-linecap:butt;stroke-linejoin:miter;stroke-miterlimit:4;stroke-dasharray:none;stroke-opacity:1"
         d="m 185.941,225.039 c 101.559,0 183.899,32.031 183.899,71.52 0,39.531 -82.34,71.562 -183.899,71.562 -101.6012,0 -183.95272,-32.031 -183.95272,-71.562 0,-39.489 82.35152,-71.52 183.95272,-71.52 z" /><path
         id="path22"
         style="fill:#ffffff;fill-opacity:1;fill-rule:nonzero;stroke:none"
         d="m 165.941,187.379 0,-136.6798 159.797,66.1018 -159.797,70.578" /><path
         id="path24"
         style="fill:#ffffff;fill-opacity:1;fill-rule:nonzero;stroke:none"
         d="m 148.711,188.672 0,-28.594 -51.8321,-0.039 0,28.551 51.8321,0.082" /><path
         id="path26"
         style="fill:none;stroke:#231f20;stroke-width:3.99993992;stroke-linecap:butt;stroke-linejoin:miter;stroke-miterlimit:4;stroke-dasharray:none;stroke-opacity:1"
         d="m 148.711,188.672 0,-28.594 -51.8321,-0.039 0,28.551 51.8321,0.082 z" /><path
         id="path28"
         style="fill:#ffffff;fill-opacity:1;fill-rule:nonzero;stroke:none"
         d="m 148.711,151.41 0,-28.558 -51.8321,-0.043 0,28.562 51.8321,0.039" /><path
         id="path30"
         style="fill:none;stroke:#231f20;stroke-width:3.99993992;stroke-linecap:butt;stroke-linejoin:miter;stroke-miterlimit:4;stroke-dasharray:none;stroke-opacity:1"
         d="m 148.711,151.41 0,-28.558 -51.8321,-0.043 0,28.562 51.8321,0.039 z" /><path
         id="path32"
         style="fill:#ffffff;fill-opacity:1;fill-rule:nonzero;stroke:none"
         d="m 148.711,113.398 0,-28.5582 -51.8321,-0.039 0,28.5582 51.8321,0.039" /><path
         id="path34"
         style="fill:none;stroke:#231f20;stroke-width:3.99993992;stroke-linecap:butt;stroke-linejoin:miter;stroke-miterlimit:4;stroke-dasharray:none;stroke-opacity:1"
         d="m 148.711,113.398 0,-28.5582 -51.8321,-0.039 0,28.5582 51.8321,0.039 z" /><path
         id="path36"
         style="fill:#ffffff;fill-opacity:1;fill-rule:nonzero;stroke:none"
         d="m 148.711,75.4297 0,-28.5899 -51.8321,-0.039 0,28.5508 51.8321,0.0781" /><path
         id="path38"
         style="fill:none;stroke:#231f20;stroke-width:3.99993992;stroke-linecap:butt;stroke-linejoin:miter;stroke-miterlimit:4;stroke-dasharray:none;stroke-opacity:1"
         d="m 148.711,75.4297 0,-28.5899 -51.8321,-0.039 0,28.5508 51.8321,0.0781 z" /><path
         id="path40"
         style="fill:#ffffff;fill-opacity:1;fill-rule:nonzero;stroke:none"
         d="m 146.52,327.031 15.199,-22.812 -57.418,-13.239 12.539,10.43 -88.7189,15.149 22.2305,16.722 85.6684,-14.531 10.5,8.281" /><path
         id="path42"
         style="fill:#ffffff;fill-opacity:1;fill-rule:nonzero;stroke:none"
         d="m 227.34,271.762 -10.352,23.468 51.801,10.391 -8.988,-8.082 86.328,-14.73 -20.738,-16.559 -85.782,16.09 -12.269,-10.578" /><path
         id="path44"
         style="fill:#ffffff;fill-opacity:1;fill-rule:nonzero;stroke:none"
         d="m 199.02,339.449 58.011,15.903 0.699,-24.883 -14.492,2.769 -28.316,-23.468 -27.031,3.902 29.218,23.008 -18.089,2.769" /><path
         id="path46"
         style="fill:#ffffff;fill-opacity:1;fill-rule:nonzero;stroke:none"
         d="M 174.141,250.352 118.91,240 l -2.07,25.551 15.89,-3.442 30.391,25.981 26.918,-4.57 -32.461,-28.321 16.563,-4.847" /></g></g></svg>