<?xml version="1.0" encoding="UTF-8" standalone="no"?>
<svg
   xmlns:dc="http://purl.org/dc/elements/1.1/"
   xmlns:cc="http://creativecommons.org/ns#"
   xmlns:rdf="http://www.w3.org/1999/02/22-rdf-syntax-ns#"
   xmlns:svg="http://www.w3.org/2000/svg"
   xmlns="http://www.w3.org/2000/svg"
   viewBox="0 0 30.424999 45.662498"
   height="45.662498"
   width="30.424999"
   xml:space="preserve"
   version="1.1"
   id="svg2"><metadata
     id="metadata8"><rdf:RDF><cc:Work
         rdf:about=""><dc:format>image/svg+xml</dc:format><dc:type
           rdf:resource="http://purl.org/dc/dcmitype/StillImage" /></cc:Work></rdf:RDF></metadata><defs
     id="defs6"><clipPath
       id="clipPath18"
       clipPathUnits="userSpaceOnUse"><path
         id="path20"
         d="M 0,0 0,365 240,365 240,0 0,0 Z" /></clipPath></defs><g
     transform="matrix(1.25,0,0,-1.25,0,45.6625)"
     id="g10"><g
       transform="scale(0.1,0.1)"
       id="g12"><g
         id="g14"><g
           clip-path="url(#clipPath18)"
           id="g16"><path
             id="path22"
             style="fill:#087bbb;fill-opacity:1;fill-rule:nonzero;stroke:none"
             d="m 6.46875,5.65234 185.254,0 0,317.309 -185.254,0 0,-317.309 z" /><path
             id="path24"
             style="fill:none;stroke:#ffffff;stroke-width:3.99993992;stroke-linecap:butt;stroke-linejoin:miter;stroke-miterlimit:4;stroke-dasharray:none;stroke-opacity:1"
             d="m 6.46875,5.65234 185.254,0 0,317.309 -185.254,0 0,-317.309 z" /><path
             id="path26"
             style="fill:#087bbb;fill-opacity:1;fill-rule:nonzero;stroke:none"
             d="m 62.0469,360.949 -55.57815,-37.988 185.25425,0 46.074,37.988 -175.7501,0" /><path
             id="path28"
             style="fill:none;stroke:#ffffff;stroke-width:3.99993992;stroke-linecap:butt;stroke-linejoin:miter;stroke-miterlimit:4;stroke-dasharray:none;stroke-opacity:1"
             d="m 62.0469,360.949 -55.57815,-37.988 185.25425,0 46.074,37.988 -175.7501,0 z" /><path
             id="path30"
             style="fill:#087bbb;fill-opacity:1;fill-rule:nonzero;stroke:none"
             d="m 237.797,62.6641 0,298.2849 -46.074,-40.148 0,-315.14866 46.074,57.01176" /><path
             id="path32"
             style="fill:none;stroke:#ffffff;stroke-width:3.99993992;stroke-linecap:butt;stroke-linejoin:miter;stroke-miterlimit:4;stroke-dasharray:none;stroke-opacity:1"
             d="m 237.797,62.6641 0,298.2849 -46.074,-40.148 0,-315.14866 46.074,57.01176 z" /><path
             id="path34"
             style="fill:#ffffff;fill-opacity:1;fill-rule:nonzero;stroke:none"
             d="m 101.559,318.566 -88.7621,-152.14 177.5311,0 -88.769,152.14" /><path
             id="path36"
             style="fill:#ffffff;fill-opacity:1;fill-rule:nonzero;stroke:none"
             d="m 101.559,14.2852 -88.7621,152.1408 177.5311,0 -88.769,-152.1408" /><path
             id="path38"
             style="fill:#087bbb;fill-opacity:1;fill-rule:nonzero;stroke:none"
             d="m 90.2969,134.141 20.1681,18.222 c -19.8556,0.266 -29.9337,-0.437 -43.0197,-1.582 -6.2969,-23.73 -11.668,-37.754 -18.0469,-53.613 l 21.0938,19.062 c 15.0586,-13.964 33.5938,-17.4097 49.2968,-10.214 0.449,0.382 0.93,0.754 1.367,1.14 l 25.313,22.871 c -16.172,-14.597 -39.004,-13.203 -56.1721,4.114" /><path
             id="path40"
             style="fill:#087bbb;fill-opacity:1;fill-rule:nonzero;stroke:none"
             d="m 72.4648,166.594 c -5.2343,20.359 -2.4804,42.801 8.75,58.679 2.1211,3 4.4532,5.625 6.9141,7.864 L 62.8164,210.234 c -2.4883,-2.238 -4.8047,-4.863 -6.9219,-7.863 -11.164,-15.719 -13.9179,-37.898 -8.8984,-58.125 l 25.4687,22.348" /><path
             id="path42"
             style="fill:#087bbb;fill-opacity:1;fill-rule:nonzero;stroke:none"
             d="m 122.426,233.711 c -10.137,4.695 -20.879,5.488 -30.801,2.234 -1.1914,-0.867 -2.3437,-1.804 -3.4961,-2.808 L 62.8164,210.234 c 11.6016,10.5 26.6406,12.707 40.5666,6.77 l -13.926,-12.227 43.008,1.102 7.453,43.164 -17.492,-15.332" /><path
             id="path44"
             style="fill:#087bbb;fill-opacity:1;fill-rule:nonzero;stroke:none"
             d="m 154.75,218.352 c 15.93,-31.973 10,-63.821 -1.348,-80.461 -2.129,-2.996 -4.433,-5.594 -6.933,-7.864 l -25.313,-22.871 c 2.492,2.239 4.797,4.867 6.926,7.856 20.633,30.379 8.523,60.652 2.078,80.593 l 24.59,22.747" /></g></g></g></g></svg>