<?xml version="1.0" encoding="UTF-8" standalone="no"?>
<svg
   xmlns:dc="http://purl.org/dc/elements/1.1/"
   xmlns:cc="http://creativecommons.org/ns#"
   xmlns:rdf="http://www.w3.org/1999/02/22-rdf-syntax-ns#"
   xmlns:svg="http://www.w3.org/2000/svg"
   xmlns="http://www.w3.org/2000/svg"
   viewBox="0 0 30 47.5"
   height="47.5"
   width="30"
   xml:space="preserve"
   version="1.1"
   id="svg2"><metadata
     id="metadata8"><rdf:RDF><cc:Work
         rdf:about=""><dc:format>image/svg+xml</dc:format><dc:type
           rdf:resource="http://purl.org/dc/dcmitype/StillImage" /></cc:Work></rdf:RDF></metadata><defs
     id="defs6"><clipPath
       id="clipPath18"
       clipPathUnits="userSpaceOnUse"><path
         id="path20"
         d="M 0,10 0,375 240,375 240,10 0,10 Z" /></clipPath></defs><g
     transform="matrix(1.25,0,0,-1.25,0,47.5)"
     id="g10"><g
       transform="scale(0.1,0.1)"
       id="g12"><g
         id="g14"><g
           clip-path="url(#clipPath18)"
           id="g16"><path
             id="path22"
             style="fill:#087bbb;fill-opacity:1;fill-rule:nonzero;stroke:none"
             d="m 6.48047,15.6719 185.23,0 0,317.297 -185.23,0 0,-317.297 z" /><path
             id="path24"
             style="fill:none;stroke:#ffffff;stroke-width:3.99993992;stroke-linecap:butt;stroke-linejoin:miter;stroke-miterlimit:4;stroke-dasharray:none;stroke-opacity:1"
             d="m 6.48047,15.6719 185.23,0 0,317.297 -185.23,0 0,-317.297 z" /><path
             id="path26"
             style="fill:#087bbb;fill-opacity:1;fill-rule:nonzero;stroke:none"
             d="m 62.0313,370.941 -55.55083,-37.972 185.23853,0 46.09,37.972 -175.7777,0" /><path
             id="path28"
             style="fill:none;stroke:#ffffff;stroke-width:3.99993992;stroke-linecap:butt;stroke-linejoin:miter;stroke-miterlimit:4;stroke-dasharray:none;stroke-opacity:1"
             d="m 62.0313,370.941 -55.55083,-37.972 185.23853,0 46.09,37.972 -175.7777,0 z" /><path
             id="path30"
             style="fill:#087bbb;fill-opacity:1;fill-rule:nonzero;stroke:none"
             d="m 237.809,72.6602 0,298.2808 -46.09,-40.121 0,-315.1598 46.09,57" /><path
             id="path32"
             style="fill:none;stroke:#ffffff;stroke-width:3.99993992;stroke-linecap:butt;stroke-linejoin:miter;stroke-miterlimit:4;stroke-dasharray:none;stroke-opacity:1"
             d="m 237.809,72.6602 0,298.2808 -46.09,-40.121 0,-315.1598 46.09,57 z" /><path
             id="path34"
             style="fill:#ffffff;fill-opacity:1;fill-rule:nonzero;stroke:none"
             d="m 101.559,328.551 -88.7504,-152.102 177.5004,0 -88.75,152.102" /><path
             id="path36"
             style="fill:#ffffff;fill-opacity:1;fill-rule:nonzero;stroke:none"
             d="m 101.559,24.3008 -88.7504,152.1482 177.5004,0 -88.75,-152.1482" /><path
             id="path38"
             style="fill:#087bbb;fill-opacity:1;fill-rule:nonzero;stroke:none"
             d="m 90.3086,144.141 20.1604,18.199 c -19.8479,0.281 -29.9182,-0.43 -43.0081,-1.559 -6.332,-23.711 -11.6796,-37.769 -18.0507,-53.59 l 21.1015,19.02 c 15.0391,-13.941 33.5903,-17.383 49.2893,-10.191 0.429,0.39 0.898,0.742 1.371,1.128 l 25.308,22.891 C 130.309,125.43 107.461,126.84 90.3086,144.141" /><path
             id="path40"
             style="fill:#087bbb;fill-opacity:1;fill-rule:nonzero;stroke:none"
             d="m 72.4609,176.602 c -5.2304,20.347 -2.4609,42.808 8.75,58.668 2.1094,3.011 4.4493,5.628 6.9102,7.851 L 62.8086,220.23 c -2.5,-2.218 -4.7969,-4.878 -6.9102,-7.851 -11.1679,-15.738 -13.9101,-37.891 -8.9101,-58.117 l 25.4726,22.34" /><path
             id="path42"
             style="fill:#087bbb;fill-opacity:1;fill-rule:nonzero;stroke:none"
             d="m 122.422,243.711 c -10.121,4.687 -20.863,5.469 -30.7814,2.23 -1.2109,-0.863 -2.3398,-1.8 -3.5195,-2.82 L 62.8086,220.23 c 11.6016,10.508 26.6406,12.7 40.5894,6.758 l -13.9488,-12.218 43.0118,1.128 7.461,43.161 -17.5,-15.348" /><path
             id="path44"
             style="fill:#087bbb;fill-opacity:1;fill-rule:nonzero;stroke:none"
             d="m 154.77,228.359 c 15.89,-31.988 10,-63.828 -1.372,-80.468 -2.109,-3.012 -4.418,-5.59 -6.918,-7.852 l -25.308,-22.891 c 2.457,2.262 4.769,4.883 6.918,7.852 20.621,30.391 8.512,60.66 2.07,80.59 l 24.61,22.769" /></g></g></g></g></svg>