<svg xmlns="http://www.w3.org/2000/svg" viewBox="0 0 30 47.5" height="47.5" width="30"><defs><clipPath id="a"><path d="M0 10v365h240V10H0z"/></clipPath></defs><g clip-path="url(#a)" transform="matrix(.13 0 0 -.13 0 47.5)"><path d="M6.48 15.672h185.23v317.297H6.48V15.672z" fill="#087bbb"/><path d="M6.48 15.672h185.23v317.297H6.48V15.672z" fill="none" stroke="#fff" stroke-width="4"/><path d="M62.031 370.941l-55.55-37.972h185.238l46.09 37.972H62.031" fill="#087bbb"/><path d="M62.031 370.941l-55.55-37.972h185.238l46.09 37.972H62.031z" fill="none" stroke="#fff" stroke-width="4"/><path d="M237.809 72.66v298.281l-46.09-40.121V15.66l46.09 57" fill="#087bbb"/><path d="M237.809 72.66v298.281l-46.09-40.121V15.66l46.09 57z" fill="none" stroke="#fff" stroke-width="4"/><path d="M101.559 328.551l-88.75-152.102h177.5l-88.75 152.102" fill="#fff"/><path d="M101.559 24.3L12.809 176.45h177.5l-88.75-152.148" fill="#fff"/><path d="M90.309 144.141l20.16 18.199c-19.848.281-29.918-.43-43.008-1.559-6.332-23.711-11.68-37.769-18.05-53.59l21.1 19.02c15.04-13.941 33.591-17.383 49.29-10.191.429.39.898.742 1.371 1.128l25.308 22.891c-16.171-14.609-39.019-13.199-56.171 4.102M72.46 176.602c-5.23 20.347-2.46 42.808 8.75 58.668a46.597 46.597 0 0 0 6.911 7.851L62.81 220.23c-2.5-2.218-4.797-4.878-6.91-7.851-11.169-15.738-13.91-37.891-8.91-58.117l25.472 22.34" fill="#087bbb"/><path d="M122.422 243.711c-10.121 4.687-20.863 5.469-30.781 2.23-1.211-.863-2.34-1.8-3.52-2.82L62.81 220.23c11.601 10.508 26.64 12.7 40.589 6.758L89.449 214.77l43.012 1.128 7.461 43.161-17.5-15.348M154.77 228.359c15.89-31.988 10-63.828-1.372-80.468a46.382 46.382 0 0 0-6.918-7.852l-25.308-22.891c2.457 2.262 4.769 4.883 6.918 7.852 20.621 30.391 8.512 60.66 2.07 80.59l24.61 22.769" fill="#087bbb"/></g></svg>