<svg xmlns="http://www.w3.org/2000/svg" viewBox="0 0 45 23.75" height="23.75" width="45"><path d="M.708 11.399L13.725.877h30.05L33.003 11.399H.707" fill="#087bbb"/><path d="M.708 11.398L13.725.876h30.05L33.003 11.398H.707z" fill="none" stroke="#fff" stroke-width=".5"/><path d="M33.002 21.862l10.773-11.63V.892L33.002 11.398v10.463" fill="#087bbb"/><path d="M33.002 21.862l10.773-11.631V.891L33.002 11.398v10.464z" fill="none" stroke="#fff" stroke-width=".5"/><path d="M.752 21.873h32.252V11.399H.752v10.474z" fill="#087bbb"/><path d="M.752 21.873h32.252V11.398H.752v10.475z" fill="none" stroke="#fff" stroke-width=".5"/><path d="M18.32 17.204l-12.608.005v-1.538l12.608-.005.005-2.402 5.601 3.174-5.6 3.168-.006-2.402" fill="#fff"/><path d="M18.32 17.204l-12.608.004v-1.537l12.608-.005.005-2.402 5.601 3.173-5.6 3.169-.006-2.402z" fill="none" stroke="#fff" stroke-width=".497875"/><path d="M7.095 15.671l-.005-2.397-5.601 3.168 5.6 3.174.006-2.407" fill="#fff"/><path d="M7.095 15.671l-.005-2.398-5.601 3.17 5.6 3.173.006-2.407" fill="none" stroke="#fff" stroke-width=".497875"/><path d="M31.607 15.671l-.006-2.397-5.605 3.168 5.605 3.174.006-2.407v-1.538" fill="#fff"/><path d="M31.607 15.671l-.006-2.398-5.605 3.17 5.605 3.173.006-2.408v-1.537z" fill="none" stroke="#fff" stroke-width=".497875"/></svg>