<?xml version="1.0" encoding="UTF-8" standalone="no"?>
<svg
   xmlns:dc="http://purl.org/dc/elements/1.1/"
   xmlns:cc="http://creativecommons.org/ns#"
   xmlns:rdf="http://www.w3.org/1999/02/22-rdf-syntax-ns#"
   xmlns:svg="http://www.w3.org/2000/svg"
   xmlns="http://www.w3.org/2000/svg"
   viewBox="0 0 45 23.75"
   height="23.75"
   width="45"
   xml:space="preserve"
   version="1.1"
   id="svg2"><metadata
     id="metadata8"><rdf:RDF><cc:Work
         rdf:about=""><dc:format>image/svg+xml</dc:format><dc:type
           rdf:resource="http://purl.org/dc/dcmitype/StillImage" /></cc:Work></rdf:RDF></metadata><defs
     id="defs6" /><g
     transform="matrix(1.25,0,0,-1.25,0,23.75)"
     id="g10"><g
       transform="scale(0.1,0.1)"
       id="g12"><path
         id="path14"
         style="fill:#087bbb;fill-opacity:1;fill-rule:nonzero;stroke:none"
         d="m 5.66016,98.8086 104.14084,84.1794 240.398,0 -86.179,-84.1794 -258.35984,0" /><path
         id="path16"
         style="fill:none;stroke:#ffffff;stroke-width:3.99993992;stroke-linecap:butt;stroke-linejoin:miter;stroke-miterlimit:4;stroke-dasharray:none;stroke-opacity:1"
         d="m 5.66016,98.8125 104.14084,84.1795 240.398,0 -86.179,-84.1795 -258.35984,0 z" /><path
         id="path18"
         style="fill:#087bbb;fill-opacity:1;fill-rule:nonzero;stroke:none"
         d="m 264.02,15.1016 86.179,93.0464 0,74.723 -86.179,-84.0624 0,-83.707" /><path
         id="path20"
         style="fill:none;stroke:#ffffff;stroke-width:3.99993992;stroke-linecap:butt;stroke-linejoin:miter;stroke-miterlimit:4;stroke-dasharray:none;stroke-opacity:1"
         d="m 264.02,15.1016 86.179,93.0504 0,74.719 -86.179,-84.0585 0,-83.7109 z" /><path
         id="path22"
         style="fill:#087bbb;fill-opacity:1;fill-rule:nonzero;stroke:none"
         d="m 6.01953,15.0195 258.012,0 0,83.7891 -258.012,0 0,-83.7891 z" /><path
         id="path24"
         style="fill:none;stroke:#ffffff;stroke-width:3.99993992;stroke-linecap:butt;stroke-linejoin:miter;stroke-miterlimit:4;stroke-dasharray:none;stroke-opacity:1"
         d="m 6.01953,15.0195 258.012,0 0,83.793 -258.012,0 0,-83.793 z" /><path
         id="path26"
         style="fill:#ffffff;fill-opacity:1;fill-rule:nonzero;stroke:none"
         d="m 146.559,52.3711 -100.8598,-0.043 0,12.3008 100.8598,0.043 0.043,19.2187 L 191.41,58.5 146.602,33.1484 146.559,52.3711" /><path
         id="path28"
         style="fill:none;stroke:#ffffff;stroke-width:3.98300004;stroke-linecap:butt;stroke-linejoin:miter;stroke-miterlimit:4;stroke-dasharray:none;stroke-opacity:1"
         d="M 146.559,52.3711 45.6992,52.332 l 0,12.2969 100.8598,0.043 0.043,19.2187 L 191.41,58.5 146.602,33.1523 146.559,52.3711 Z" /><path
         id="path30"
         style="fill:#ffffff;fill-opacity:1;fill-rule:nonzero;stroke:none"
         d="M 56.7617,64.6289 56.7188,83.8086 11.9102,58.4609 56.7188,33.0703 56.7617,52.3281" /><path
         id="path32"
         style="fill:none;stroke:#ffffff;stroke-width:3.98300004;stroke-linecap:butt;stroke-linejoin:miter;stroke-miterlimit:4;stroke-dasharray:none;stroke-opacity:1"
         d="M 56.7617,64.6289 56.7188,83.8125 11.9102,58.4609 56.7188,33.0703 56.7617,52.332" /><path
         id="path34"
         style="fill:#ffffff;fill-opacity:1;fill-rule:nonzero;stroke:none"
         d="m 252.852,64.6289 -0.043,19.1797 -44.84,-25.3477 44.84,-25.3906 0.043,19.2578 0,12.3008" /><path
         id="path36"
         style="fill:none;stroke:#ffffff;stroke-width:3.98300004;stroke-linecap:butt;stroke-linejoin:miter;stroke-miterlimit:4;stroke-dasharray:none;stroke-opacity:1"
         d="m 252.852,64.6289 -0.043,19.1836 -44.84,-25.3516 44.84,-25.3906 0.043,19.2617 0,12.2969 z" /></g></g></svg>