<?xml version="1.0" encoding="UTF-8" standalone="no"?>
<svg
   xmlns:dc="http://purl.org/dc/elements/1.1/"
   xmlns:cc="http://creativecommons.org/ns#"
   xmlns:rdf="http://www.w3.org/1999/02/22-rdf-syntax-ns#"
   xmlns:svg="http://www.w3.org/2000/svg"
   xmlns="http://www.w3.org/2000/svg"
   viewBox="0 0 44.387501 22.200001"
   height="22.200001"
   width="44.387501"
   xml:space="preserve"
   version="1.1"
   id="svg2"><metadata
     id="metadata8"><rdf:RDF><cc:Work
         rdf:about=""><dc:format>image/svg+xml</dc:format><dc:type
           rdf:resource="http://purl.org/dc/dcmitype/StillImage" /></cc:Work></rdf:RDF></metadata><defs
     id="defs6" /><g
     transform="matrix(1.25,0,0,-1.25,0,22.2)"
     id="g10"><g
       transform="scale(0.1,0.1)"
       id="g12"><path
         id="path14"
         style="fill:#087bbb;fill-opacity:1;fill-rule:nonzero;stroke:none"
         d="m 5.65625,88.8047 104.14075,84.1993 240.414,0 -86.172,-84.1993 -258.38275,0" /><path
         id="path16"
         style="fill:none;stroke:#ffffff;stroke-width:3.99993992;stroke-linecap:butt;stroke-linejoin:miter;stroke-miterlimit:4;stroke-dasharray:none;stroke-opacity:1"
         d="m 5.65625,88.8047 104.14075,84.1993 240.414,0 -86.172,-84.1993 -258.38275,0 z" /><path
         id="path18"
         style="fill:#087bbb;fill-opacity:1;fill-rule:nonzero;stroke:none"
         d="m 264.039,5.10156 86.172,93.04684 0,74.7066 -86.172,-84.0503 0,-83.70314" /><path
         id="path20"
         style="fill:none;stroke:#ffffff;stroke-width:3.99993992;stroke-linecap:butt;stroke-linejoin:miter;stroke-miterlimit:4;stroke-dasharray:none;stroke-opacity:1"
         d="m 264.039,5.10156 86.172,93.04684 0,74.7066 -86.172,-84.0503 0,-83.70314 z" /><path
         id="path22"
         style="fill:#087bbb;fill-opacity:1;fill-rule:nonzero;stroke:none"
         d="m 6.01563,5.02344 258.023,0 0,83.7813 -258.023,0 0,-83.7813 z" /><path
         id="path24"
         style="fill:none;stroke:#ffffff;stroke-width:3.99993992;stroke-linecap:butt;stroke-linejoin:miter;stroke-miterlimit:4;stroke-dasharray:none;stroke-opacity:1"
         d="m 6.01563,5.02344 258.023,0 0,83.7813 -258.023,0 0,-83.7813 z" /><path
         id="path26"
         style="fill:#ffffff;fill-opacity:1;fill-rule:nonzero;stroke:none"
         d="m 146.559,42.3672 -100.8637,-0.0586 0,12.3242 100.8637,0.0391 0.039,19.1992 L 191.422,48.5 146.598,23.1289 146.559,42.3672" /><path
         id="path28"
         style="fill:none;stroke:#ffffff;stroke-width:3.98300004;stroke-linecap:butt;stroke-linejoin:miter;stroke-miterlimit:4;stroke-dasharray:none;stroke-opacity:1"
         d="m 146.559,42.3672 -100.8637,-0.0586 0,12.3242 100.8637,0.0391 0.039,19.1992 L 191.422,48.5 146.598,23.1289 146.559,42.3672 Z" /><path
         id="path30"
         style="fill:#ffffff;fill-opacity:1;fill-rule:nonzero;stroke:none"
         d="M 56.7773,54.6133 56.7383,73.8125 11.9141,48.4414 56.7383,23.0703 56.7773,42.3086" /><path
         id="path32"
         style="fill:none;stroke:#ffffff;stroke-width:3.98300004;stroke-linecap:butt;stroke-linejoin:miter;stroke-miterlimit:4;stroke-dasharray:none;stroke-opacity:1"
         d="M 56.7773,54.6133 56.7383,73.8125 11.9141,48.4414 56.7383,23.0703 56.7773,42.3086" /><path
         id="path34"
         style="fill:#ffffff;fill-opacity:1;fill-rule:nonzero;stroke:none"
         d="m 252.848,54.6133 -0.039,19.1992 -44.825,-25.3711 44.825,-25.3711 0.039,19.2383 0,12.3047" /><path
         id="path36"
         style="fill:none;stroke:#ffffff;stroke-width:3.98300004;stroke-linecap:butt;stroke-linejoin:miter;stroke-miterlimit:4;stroke-dasharray:none;stroke-opacity:1"
         d="m 252.848,54.6133 -0.039,19.1992 -44.825,-25.3711 44.825,-25.3711 0.039,19.2383 0,12.3047 z" /></g></g></svg>