<?xml version="1.0" encoding="UTF-8" standalone="no"?>
<svg
   xmlns:dc="http://purl.org/dc/elements/1.1/"
   xmlns:cc="http://creativecommons.org/ns#"
   xmlns:rdf="http://www.w3.org/1999/02/22-rdf-syntax-ns#"
   xmlns:svg="http://www.w3.org/2000/svg"
   xmlns="http://www.w3.org/2000/svg"
   viewBox="0 0 765 990"
   height="990"
   width="765"
   xml:space="preserve"
   version="1.1"
   id="svg2"><metadata
     id="metadata8"><rdf:RDF><cc:Work
         rdf:about=""><dc:format>image/svg+xml</dc:format><dc:type
           rdf:resource="http://purl.org/dc/dcmitype/StillImage" /></cc:Work></rdf:RDF></metadata><defs
     id="defs6" /><g
     transform="matrix(1.25,0,0,-1.25,0,990)"
     id="g10"><g
       transform="scale(0.1,0.1)"
       id="g12"><path
         id="path14"
         style="fill:#02709f;fill-opacity:1;fill-rule:nonzero;stroke:none"
         d="m 3233.65,3973.88 0,159.63 -16.01,-14.06 0,-159.63 16.01,14.06" /><path
         id="path16"
         style="fill:none;stroke:#ffffff;stroke-width:3.9999001;stroke-linecap:butt;stroke-linejoin:miter;stroke-miterlimit:4;stroke-dasharray:none;stroke-opacity:1"
         d="m 3233.65,3973.88 0,159.63 -16.01,-14.06 0,-159.63 16.01,14.06 z" /><path
         id="path18"
         style="fill:#02709f;fill-opacity:1;fill-rule:nonzero;stroke:none"
         d="m 2906,3960.09 311.289,0 0,159.063 -311.289,0 0,-159.063 z" /><path
         id="path20"
         style="fill:none;stroke:#ffffff;stroke-width:3.9999001;stroke-linecap:butt;stroke-linejoin:miter;stroke-miterlimit:4;stroke-dasharray:none;stroke-opacity:1"
         d="m 2906,3960.09 311.289,0 0,159.063 -311.289,0 0,-159.063 z" /><path
         id="path22"
         style="fill:#02709f;fill-opacity:1;fill-rule:nonzero;stroke:none"
         d="m 3233.65,4133.45 -311.29,0 -16.36,-14.3 311.29,0 16.36,14.3" /><path
         id="path24"
         style="fill:none;stroke:#ffffff;stroke-width:3.9999001;stroke-linecap:butt;stroke-linejoin:miter;stroke-miterlimit:4;stroke-dasharray:none;stroke-opacity:1"
         d="m 3233.65,4133.45 -311.29,0 -16.36,-14.3 311.29,0 16.36,14.3 z" /><path
         id="path26"
         style="fill:#02709f;fill-opacity:1;fill-rule:nonzero;stroke:none"
         d="m 3233.65,4133.45 -16.36,-14.3" /><path
         id="path28"
         style="fill:none;stroke:#ffffff;stroke-width:3.9999001;stroke-linecap:butt;stroke-linejoin:miter;stroke-miterlimit:4;stroke-dasharray:none;stroke-opacity:1"
         d="m 3233.65,4133.45 -16.36,-14.3" /><path
         id="path30"
         style="fill:none;stroke:#ffffff;stroke-width:3.9999001;stroke-linecap:butt;stroke-linejoin:miter;stroke-miterlimit:4;stroke-dasharray:none;stroke-opacity:1"
         d="m 3088.34,4090.75 16.37,14.3 c 57.79,-67.55 13.32,-120.1 13.32,-120.1 l 76.66,0" /><path
         id="path32"
         style="fill:none;stroke:#ffffff;stroke-width:3.9999001;stroke-linecap:butt;stroke-linejoin:miter;stroke-miterlimit:4;stroke-dasharray:none;stroke-opacity:1"
         d="m 2964.65,4092.51 -16.37,14.3 3.09,-121.86 -35.3,0" /><path
         id="path34"
         style="fill:#02709f;fill-opacity:1;fill-rule:nonzero;stroke:none"
         d="m 2964.65,4074.19 c 0,15.96 16.56,18.32 16.56,18.32 0,0 82.46,0 97.83,0 20.08,0 19.5,-18.92 19.5,-18.92 0,0 0,-67.97 0,-79.2 0,-11.23 -15.38,-15.96 -15.38,-15.96 0,0 -85.41,0 -99.59,0 -14.19,0 -18.92,14.77 -18.92,14.77 l 0,80.99" /><path
         id="path36"
         style="fill:none;stroke:#ffffff;stroke-width:3.9999001;stroke-linecap:butt;stroke-linejoin:miter;stroke-miterlimit:4;stroke-dasharray:none;stroke-opacity:1"
         d="m 2964.65,4074.19 c 0,15.96 16.56,18.32 16.56,18.32 0,0 82.46,0 97.83,0 20.08,0 19.5,-18.92 19.5,-18.92 0,0 0,-67.97 0,-79.2 0,-11.23 -15.38,-15.96 -15.38,-15.96 0,0 -85.41,0 -99.59,0 -14.19,0 -18.92,14.77 -18.92,14.77 l 0,80.99 z" /><path
         id="path38"
         style="fill:#02709f;fill-opacity:1;fill-rule:nonzero;stroke:none"
         d="m 3194.69,4084.95 -76.66,0" /><path
         id="path40"
         style="fill:none;stroke:#ffffff;stroke-width:3.9999001;stroke-linecap:butt;stroke-linejoin:miter;stroke-miterlimit:4;stroke-dasharray:none;stroke-opacity:1"
         d="m 3194.69,4084.95 -76.66,0" /><path
         id="path42"
         style="fill:#02709f;fill-opacity:1;fill-rule:nonzero;stroke:none"
         d="m 2951.37,4084.95 -35.3,0" /><path
         id="path44"
         style="fill:none;stroke:#ffffff;stroke-width:3.9999001;stroke-linecap:butt;stroke-linejoin:miter;stroke-miterlimit:4;stroke-dasharray:none;stroke-opacity:1"
         d="m 2951.37,4084.95 -35.3,0" /><path
         id="path46"
         style="fill:none;stroke:#ffffff;stroke-width:3.9999001;stroke-linecap:butt;stroke-linejoin:miter;stroke-miterlimit:4;stroke-dasharray:none;stroke-opacity:1"
         d="m 2948.28,4106.81 149.22,0" /></g></g></svg>