<?xml version="1.0" encoding="UTF-8" standalone="no"?>
<svg
   xmlns:dc="http://purl.org/dc/elements/1.1/"
   xmlns:cc="http://creativecommons.org/ns#"
   xmlns:rdf="http://www.w3.org/1999/02/22-rdf-syntax-ns#"
   xmlns:svg="http://www.w3.org/2000/svg"
   xmlns="http://www.w3.org/2000/svg"
   viewBox="0 0 42.5 25"
   height="25"
   width="42.5"
   xml:space="preserve"
   version="1.1"
   id="svg2"><metadata
     id="metadata8"><rdf:RDF><cc:Work
         rdf:about=""><dc:format>image/svg+xml</dc:format><dc:type
           rdf:resource="http://purl.org/dc/dcmitype/StillImage" /></cc:Work></rdf:RDF></metadata><defs
     id="defs6" /><g
     transform="matrix(1.25,0,0,-1.25,0,25)"
     id="g10"><g
       transform="scale(0.1,0.1)"
       id="g12"><path
         id="path14"
         style="fill:#02709f;fill-opacity:1;fill-rule:nonzero;stroke:none"
         d="m 332.969,28.4609 0,159.6481 -16.02,-14.058 0,-159.6526 16.02,14.0625" /><path
         id="path16"
         style="fill:none;stroke:#ffffff;stroke-width:3.9999001;stroke-linecap:butt;stroke-linejoin:miter;stroke-miterlimit:4;stroke-dasharray:none;stroke-opacity:1"
         d="m 332.969,28.4648 0,159.6522 -16.02,-14.07 0,-159.6407 16.02,14.0585 z" /><path
         id="path18"
         style="fill:#02709f;fill-opacity:1;fill-rule:nonzero;stroke:none"
         d="m 5.30859,14.6797 311.293,0 0,159.059 -311.293,0 0,-159.059 z" /><path
         id="path20"
         style="fill:none;stroke:#ffffff;stroke-width:3.9999001;stroke-linecap:butt;stroke-linejoin:miter;stroke-miterlimit:4;stroke-dasharray:none;stroke-opacity:1"
         d="m 5.30859,14.6758 311.293,0 0,159.059 -311.293,0 0,-159.059 z" /><path
         id="path22"
         style="fill:#02709f;fill-opacity:1;fill-rule:nonzero;stroke:none"
         d="m 332.969,188.031 -311.2893,0 -16.37111,-14.293 311.29341,0 16.367,14.293" /><path
         id="path24"
         style="fill:none;stroke:#ffffff;stroke-width:3.9999001;stroke-linecap:butt;stroke-linejoin:miter;stroke-miterlimit:4;stroke-dasharray:none;stroke-opacity:1"
         d="m 332.969,188.035 -311.2893,0 -16.37111,-14.301 311.29341,0 16.367,14.301 z" /><path
         id="path26"
         style="fill:#02709f;fill-opacity:1;fill-rule:nonzero;stroke:none"
         d="M 332.969,188.031 316.602,173.738" /><path
         id="path28"
         style="fill:none;stroke:#ffffff;stroke-width:3.9999001;stroke-linecap:butt;stroke-linejoin:miter;stroke-miterlimit:4;stroke-dasharray:none;stroke-opacity:1"
         d="M 332.969,188.035 316.602,173.734" /><path
         id="path30"
         style="fill:none;stroke:#ffffff;stroke-width:3.9999001;stroke-linecap:butt;stroke-linejoin:miter;stroke-miterlimit:4;stroke-dasharray:none;stroke-opacity:1"
         d="m 187.66,145.336 16.36,14.301 C 261.84,92.0977 217.34,39.5547 217.34,39.5547 l 76.68,0" /><path
         id="path32"
         style="fill:none;stroke:#ffffff;stroke-width:3.9999001;stroke-linecap:butt;stroke-linejoin:miter;stroke-miterlimit:4;stroke-dasharray:none;stroke-opacity:1"
         d="m 63.9805,147.098 -16.3594,14.297 3.0781,-121.8403 -35.3086,0" /><path
         id="path34"
         style="fill:#02709f;fill-opacity:1;fill-rule:nonzero;stroke:none"
         d="m 63.9805,128.781 c 0,15.969 16.5703,18.321 16.5703,18.321 l 97.8082,0 c 20.082,0 19.493,-18.911 19.493,-18.911 l 0,-79.2222 C 197.852,37.7617 182.5,33.0313 182.5,33.0313 l -99.6094,0 c -14.1797,0 -18.9101,14.7695 -18.9101,14.7695 l 0,80.9802" /><path
         id="path36"
         style="fill:none;stroke:#ffffff;stroke-width:3.9999001;stroke-linecap:butt;stroke-linejoin:miter;stroke-miterlimit:4;stroke-dasharray:none;stroke-opacity:1"
         d="m 63.9805,128.777 c 0,15.981 16.5703,18.321 16.5703,18.321 l 97.8082,0 c 20.082,0 19.493,-18.91 19.493,-18.91 l 0,-79.2114 C 197.852,37.7578 182.5,33.0352 182.5,33.0352 l -99.6094,0 c -14.1797,0 -18.9101,14.7617 -18.9101,14.7617 l 0,80.9801 z" /><path
         id="path38"
         style="fill:none;stroke:#ffffff;stroke-width:3.9999001;stroke-linecap:butt;stroke-linejoin:miter;stroke-miterlimit:4;stroke-dasharray:none;stroke-opacity:1"
         d="m 294.02,139.555 -76.68,0" /><path
         id="path40"
         style="fill:none;stroke:#ffffff;stroke-width:3.9999001;stroke-linecap:butt;stroke-linejoin:miter;stroke-miterlimit:4;stroke-dasharray:none;stroke-opacity:1"
         d="m 50.6992,139.555 -35.3086,0" /><path
         id="path42"
         style="fill:none;stroke:#ffffff;stroke-width:3.9999001;stroke-linecap:butt;stroke-linejoin:miter;stroke-miterlimit:4;stroke-dasharray:none;stroke-opacity:1"
         d="m 47.6211,161.395 149.2189,0" /></g></g></svg>