<?xml version="1.0" encoding="UTF-8" standalone="no"?>
<svg
   xmlns:dc="http://purl.org/dc/elements/1.1/"
   xmlns:cc="http://creativecommons.org/ns#"
   xmlns:rdf="http://www.w3.org/1999/02/22-rdf-syntax-ns#"
   xmlns:svg="http://www.w3.org/2000/svg"
   xmlns="http://www.w3.org/2000/svg"
   viewBox="0 0 42.287498 22.8125"
   height="22.8125"
   width="42.287498"
   xml:space="preserve"
   version="1.1"
   id="svg2"><metadata
     id="metadata8"><rdf:RDF><cc:Work
         rdf:about=""><dc:format>image/svg+xml</dc:format><dc:type
           rdf:resource="http://purl.org/dc/dcmitype/StillImage" /></cc:Work></rdf:RDF></metadata><defs
     id="defs6" /><g
     transform="matrix(1.25,0,0,-1.25,0,22.8125)"
     id="g10"><g
       transform="scale(0.1,0.1)"
       id="g12"><path
         id="path14"
         style="fill:#02709f;fill-opacity:1;fill-rule:nonzero;stroke:none"
         d="m 332.988,18.4805 0,159.6285 -16.015,-14.062 0,-159.62903 16.015,14.06253" /><path
         id="path16"
         style="fill:none;stroke:#ffffff;stroke-width:4;stroke-linecap:butt;stroke-linejoin:miter;stroke-miterlimit:4;stroke-dasharray:none;stroke-opacity:1"
         d="m 332.988,18.4805 0,159.6285 -16.015,-14.062 0,-159.62903 16.015,14.06253 z" /><path
         id="path18"
         style="fill:#02709f;fill-opacity:1;fill-rule:nonzero;stroke:none"
         d="m 5.33203,4.69141 311.289,0 0,159.063 -311.289,0 0,-159.063 z" /><path
         id="path20"
         style="fill:none;stroke:#ffffff;stroke-width:4;stroke-linecap:butt;stroke-linejoin:miter;stroke-miterlimit:4;stroke-dasharray:none;stroke-opacity:1"
         d="m 5.33203,4.69141 311.289,0 0,159.063 -311.289,0 0,-159.063 z" /><path
         id="path22"
         style="fill:#02709f;fill-opacity:1;fill-rule:nonzero;stroke:none"
         d="m 332.988,178.051 -311.2888,0 -16.36717,-14.297 311.28897,0 16.367,14.297" /><path
         id="path24"
         style="fill:none;stroke:#ffffff;stroke-width:4;stroke-linecap:butt;stroke-linejoin:miter;stroke-miterlimit:4;stroke-dasharray:none;stroke-opacity:1"
         d="m 332.988,178.051 -311.2888,0 -16.36717,-14.297 311.28897,0 16.367,14.297 z" /><path
         id="path26"
         style="fill:#02709f;fill-opacity:1;fill-rule:nonzero;stroke:none"
         d="M 332.988,178.051 316.621,163.754" /><path
         id="path28"
         style="fill:none;stroke:#ffffff;stroke-width:4;stroke-linecap:butt;stroke-linejoin:miter;stroke-miterlimit:4;stroke-dasharray:none;stroke-opacity:1"
         d="M 332.988,178.051 316.621,163.754" /><path
         id="path30"
         style="fill:none;stroke:#ffffff;stroke-width:4;stroke-linecap:butt;stroke-linejoin:miter;stroke-miterlimit:4;stroke-dasharray:none;stroke-opacity:1"
         d="m 187.676,135.355 16.367,14.297 c 57.793,-67.5465 13.32,-120.0973 13.32,-120.0973 l 76.66,0" /><path
         id="path32"
         style="fill:none;stroke:#ffffff;stroke-width:4;stroke-linecap:butt;stroke-linejoin:miter;stroke-miterlimit:4;stroke-dasharray:none;stroke-opacity:1"
         d="m 63.9844,137.113 -16.3672,14.297 3.0859,-121.8553 -35.2929,0" /><path
         id="path34"
         style="fill:#02709f;fill-opacity:1;fill-rule:nonzero;stroke:none"
         d="m 63.9844,118.793 c 0,15.957 16.5625,18.32 16.5625,18.32 0,0 82.4611,0 97.8321,0 20.078,0 19.492,-18.925 19.492,-18.925 0,0 0,-67.9692 0,-79.1997 0,-11.2305 -15.371,-15.957 -15.371,-15.957 0,0 -85.4102,0 -99.5898,0 -14.1993,0 -18.9258,14.7656 -18.9258,14.7656 l 0,80.9961" /><path
         id="path36"
         style="fill:none;stroke:#ffffff;stroke-width:4;stroke-linecap:butt;stroke-linejoin:miter;stroke-miterlimit:4;stroke-dasharray:none;stroke-opacity:1"
         d="m 63.9844,118.793 c 0,15.957 16.5625,18.32 16.5625,18.32 0,0 82.4611,0 97.8321,0 20.078,0 19.492,-18.925 19.492,-18.925 0,0 0,-67.9692 0,-79.1997 0,-11.2305 -15.371,-15.957 -15.371,-15.957 0,0 -85.4102,0 -99.5898,0 -14.1993,0 -18.9258,14.7656 -18.9258,14.7656 l 0,80.9961 z" /><path
         id="path38"
         style="fill:#02709f;fill-opacity:1;fill-rule:nonzero;stroke:none"
         d="m 294.023,129.555 -76.66,0" /><path
         id="path40"
         style="fill:none;stroke:#ffffff;stroke-width:4;stroke-linecap:butt;stroke-linejoin:miter;stroke-miterlimit:4;stroke-dasharray:none;stroke-opacity:1"
         d="m 294.023,129.555 -76.66,0" /><path
         id="path42"
         style="fill:#02709f;fill-opacity:1;fill-rule:nonzero;stroke:none"
         d="m 50.7031,129.555 -35.2929,0" /><path
         id="path44"
         style="fill:none;stroke:#ffffff;stroke-width:4;stroke-linecap:butt;stroke-linejoin:miter;stroke-miterlimit:4;stroke-dasharray:none;stroke-opacity:1"
         d="m 50.7031,129.555 -35.2929,0" /><path
         id="path46"
         style="fill:none;stroke:#ffffff;stroke-width:4;stroke-linecap:butt;stroke-linejoin:miter;stroke-miterlimit:4;stroke-dasharray:none;stroke-opacity:1"
         d="m 47.6172,151.41 149.2188,0" /></g></g></svg>