<?xml version="1.0" encoding="UTF-8" standalone="no"?>
<svg
   xmlns:dc="http://purl.org/dc/elements/1.1/"
   xmlns:cc="http://creativecommons.org/ns#"
   xmlns:rdf="http://www.w3.org/1999/02/22-rdf-syntax-ns#"
   xmlns:svg="http://www.w3.org/2000/svg"
   xmlns="http://www.w3.org/2000/svg"
   viewBox="0 0 47.5 48.75"
   height="48.75"
   width="47.5"
   xml:space="preserve"
   version="1.1"
   id="svg2"><metadata
     id="metadata8"><rdf:RDF><cc:Work
         rdf:about=""><dc:format>image/svg+xml</dc:format><dc:type
           rdf:resource="http://purl.org/dc/dcmitype/StillImage" /></cc:Work></rdf:RDF></metadata><defs
     id="defs6" /><g
     transform="matrix(1.25,0,0,-1.25,0,48.75)"
     id="g10"><g
       transform="scale(0.1,0.1)"
       id="g12"><path
         id="path14"
         style="fill:#000000;fill-opacity:1;fill-rule:nonzero;stroke:none"
         d="m 2.53906,310.59 c 0,-39.539 82.38284,-71.531 183.94094,-71.531 101.571,0 183.911,31.992 183.911,71.531 l 0,-227.0705 c 0,-39.5 -82.34,-71.5312 -183.911,-71.5312 -101.5581,0 -183.94094,32.0312 -183.94094,71.5312 l 0,227.0705" /><path
         id="path16"
         style="fill:none;stroke:#ffffff;stroke-width:4;stroke-linecap:butt;stroke-linejoin:miter;stroke-miterlimit:4;stroke-dasharray:none;stroke-opacity:1"
         d="m 2.53906,310.582 c 0,-39.531 82.38284,-71.519 183.94094,-71.519 101.571,0 183.911,31.988 183.911,71.519 l 0,-227.0703 c 0,-39.4883 -82.34,-71.5195 -183.911,-71.5195 -101.5581,0 -183.94094,32.0312 -183.94094,71.5195 l 0,227.0703 z" /><path
         id="path18"
         style="fill:#087bbb;fill-opacity:1;fill-rule:nonzero;stroke:none"
         d="m 369.84,310.59 c 0,-39.539 -82.34,-71.531 -183.899,-71.531 -101.6012,0 -183.95272,31.992 -183.95272,71.531 l 0,-227.0705 c 0,-39.5 82.35152,-71.5312 183.95272,-71.5312 101.559,0 183.899,32.0312 183.899,71.5312 l 0,227.0705" /><path
         id="path20"
         style="fill:none;stroke:#ffffff;stroke-width:4;stroke-linecap:butt;stroke-linejoin:miter;stroke-miterlimit:4;stroke-dasharray:none;stroke-opacity:1"
         d="m 369.84,310.582 c 0,-39.531 -82.34,-71.519 -183.899,-71.519 -101.6012,0 -183.95272,31.988 -183.95272,71.519 l 0,-227.0703 c 0,-39.4883 82.35152,-71.5195 183.95272,-71.5195 101.559,0 183.899,32.0312 183.899,71.5195 l 0,227.0703 z" /><path
         id="path22"
         style="fill:#087bbb;fill-opacity:1;fill-rule:nonzero;stroke:none"
         d="m 185.941,239.059 c 101.559,0 183.899,31.992 183.899,71.531 0,39.488 -82.34,71.519 -183.899,71.519 -101.6012,0 -183.95272,-32.031 -183.95272,-71.519 0,-39.539 82.35152,-71.531 183.95272,-71.531" /><path
         id="path24"
         style="fill:none;stroke:#ffffff;stroke-width:4;stroke-linecap:butt;stroke-linejoin:miter;stroke-miterlimit:4;stroke-dasharray:none;stroke-opacity:1"
         d="m 185.941,239.063 c 101.559,0 183.899,31.988 183.899,71.519 0,39.5 -82.34,71.531 -183.899,71.531 -101.6012,0 -183.95272,-32.031 -183.95272,-71.531 0,-39.531 82.35152,-71.519 183.95272,-71.519 z" /><path
         id="path26"
         style="fill:#ffffff;fill-opacity:1;fill-rule:nonzero;stroke:none"
         d="m 146.52,341.02 15.199,-22.782 -57.418,-13.277 12.539,10.469 -88.7502,15.16 22.2618,16.68 85.6284,-14.5 10.54,8.25" /><path
         id="path28"
         style="fill:#ffffff;fill-opacity:1;fill-rule:nonzero;stroke:none"
         d="m 227.34,285.781 -10.391,23.481 51.801,10.347 -8.949,-8.05 86.328,-14.758 -20.738,-16.571 -85.821,16.141 -12.23,-10.59" /><path
         id="path30"
         style="fill:#ffffff;fill-opacity:1;fill-rule:nonzero;stroke:none"
         d="m 199.02,353.441 58.011,15.899 0.699,-24.852 -14.531,2.742 -28.32,-23.48 -26.988,3.949 29.218,22.961 -18.089,2.781" /><path
         id="path32"
         style="fill:#ffffff;fill-opacity:1;fill-rule:nonzero;stroke:none"
         d="m 174.141,264.379 -55.231,-10.359 -2.07,25.55 15.89,-3.48 30.391,25.98 26.918,-4.57 -32.461,-28.32 16.563,-4.801" /><path
         id="path34"
         style="fill:#ffffff;fill-opacity:1;fill-rule:nonzero;stroke:none"
         d="m 149.059,104.328 68.8711,0 0,68.8711 -68.8711,0 0,-68.8711 z" /><path
         id="path36"
         style="fill:none;stroke:#000000;stroke-width:4;stroke-linecap:butt;stroke-linejoin:miter;stroke-miterlimit:4;stroke-dasharray:none;stroke-opacity:1"
         d="m 149.059,104.332 68.8711,0 0,68.8711 -68.8711,0 0,-68.8711 z" /><path
         id="path38"
         style="fill:#ffffff;fill-opacity:1;fill-rule:nonzero;stroke:none"
         d="m 102.852,222.031 0.039,-28.59 -51.8402,-0.043 -0.0313,28.551 51.8325,0.082" /><path
         id="path40"
         style="fill:none;stroke:#000000;stroke-width:4;stroke-linecap:butt;stroke-linejoin:miter;stroke-miterlimit:4;stroke-dasharray:none;stroke-opacity:1"
         d="m 102.852,222.031 0.039,-28.59 -51.8402,-0.039 -0.0313,28.551 51.8325,0.078 z" /><path
         id="path42"
         style="fill:#ffffff;fill-opacity:1;fill-rule:nonzero;stroke:none"
         d="m 102.852,150.629 0.039,-28.598 -51.8402,-0.043 -0.0313,28.563 51.8325,0.078" /><path
         id="path44"
         style="fill:none;stroke:#000000;stroke-width:4;stroke-linecap:butt;stroke-linejoin:miter;stroke-miterlimit:4;stroke-dasharray:none;stroke-opacity:1"
         d="m 102.852,150.621 0.039,-28.59 -51.8402,-0.039 -0.0313,28.559 51.8325,0.07 z" /><path
         id="path46"
         style="fill:#ffffff;fill-opacity:1;fill-rule:nonzero;stroke:none"
         d="m 102.852,83.3203 0.039,-28.5508 -51.8402,-0.039 -0.0313,28.5508 51.8325,0.039" /><path
         id="path48"
         style="fill:none;stroke:#000000;stroke-width:4;stroke-linecap:butt;stroke-linejoin:miter;stroke-miterlimit:4;stroke-dasharray:none;stroke-opacity:1"
         d="m 102.852,83.3203 0.039,-28.5586 -51.8402,-0.039 -0.0313,28.5586 51.8325,0.039 z" /><path
         id="path50"
         style="fill:#ffffff;fill-opacity:1;fill-rule:nonzero;stroke:none"
         d="m 209.531,83.3203 0,-28.5508 -51.832,-0.039 0,28.5508 51.832,0.039" /><path
         id="path52"
         style="fill:none;stroke:#000000;stroke-width:4;stroke-linecap:butt;stroke-linejoin:miter;stroke-miterlimit:4;stroke-dasharray:none;stroke-opacity:1"
         d="m 209.531,83.3203 0,-28.5586 -51.832,-0.039 0,28.5586 51.832,0.039 z" /><path
         id="path54"
         style="fill:#ffffff;fill-opacity:1;fill-rule:nonzero;stroke:none"
         d="m 319.531,222.031 0,-28.59 -51.832,-0.043 0,28.551 51.832,0.082" /><path
         id="path56"
         style="fill:none;stroke:#000000;stroke-width:4;stroke-linecap:butt;stroke-linejoin:miter;stroke-miterlimit:4;stroke-dasharray:none;stroke-opacity:1"
         d="m 319.531,222.031 0,-28.59 -51.832,-0.039 0,28.551 51.832,0.078 z" /><path
         id="path58"
         style="fill:#ffffff;fill-opacity:1;fill-rule:nonzero;stroke:none"
         d="m 209.531,222.031 0,-28.59 -51.832,-0.043 0,28.551 51.832,0.082" /><path
         id="path60"
         style="fill:none;stroke:#000000;stroke-width:4;stroke-linecap:butt;stroke-linejoin:miter;stroke-miterlimit:4;stroke-dasharray:none;stroke-opacity:1"
         d="m 209.531,222.031 0,-28.59 -51.832,-0.039 0,28.551 51.832,0.078 z" /><path
         id="path62"
         style="fill:#ffffff;fill-opacity:1;fill-rule:nonzero;stroke:none"
         d="m 319.531,150.629 0,-28.598 -51.832,-0.043 0,28.563 51.832,0.078" /><path
         id="path64"
         style="fill:none;stroke:#000000;stroke-width:4;stroke-linecap:butt;stroke-linejoin:miter;stroke-miterlimit:4;stroke-dasharray:none;stroke-opacity:1"
         d="m 319.531,150.621 0,-28.59 -51.832,-0.039 0,28.559 51.832,0.07 z" /><path
         id="path66"
         style="fill:#ffffff;fill-opacity:1;fill-rule:nonzero;stroke:none"
         d="m 319.531,83.3203 0,-28.5508 -51.832,-0.039 0,28.5508 51.832,0.039" /><path
         id="path68"
         style="fill:none;stroke:#000000;stroke-width:4;stroke-linecap:butt;stroke-linejoin:miter;stroke-miterlimit:4;stroke-dasharray:none;stroke-opacity:1"
         d="m 319.531,83.3203 0,-28.5586 -51.832,-0.039 0,28.5586 51.832,0.039 z" /><path
         id="path70"
         style="fill:none;stroke:#ffffff;stroke-width:8;stroke-linecap:butt;stroke-linejoin:miter;stroke-miterlimit:4;stroke-dasharray:none;stroke-opacity:1"
         d="m 78.1602,137.934 214.9998,0" /><path
         id="path72"
         style="fill:none;stroke:#ffffff;stroke-width:8;stroke-linecap:butt;stroke-linejoin:miter;stroke-miterlimit:4;stroke-dasharray:none;stroke-opacity:1"
         d="m 183.16,202.934 0,-135.0004" /><path
         id="path74"
         style="fill:none;stroke:#ffffff;stroke-width:8;stroke-linecap:butt;stroke-linejoin:miter;stroke-miterlimit:4;stroke-dasharray:none;stroke-opacity:1"
         d="M 86.9102,67.9336 285.66,206.684" /><path
         id="path76"
         style="fill:none;stroke:#ffffff;stroke-width:8;stroke-linecap:butt;stroke-linejoin:miter;stroke-miterlimit:4;stroke-dasharray:none;stroke-opacity:1"
         d="M 281.91,67.9336 83.1602,206.684" /></g></g></svg>