<?xml version="1.0" encoding="UTF-8" standalone="no"?>
<svg
   xmlns:dc="http://purl.org/dc/elements/1.1/"
   xmlns:cc="http://creativecommons.org/ns#"
   xmlns:rdf="http://www.w3.org/1999/02/22-rdf-syntax-ns#"
   xmlns:svg="http://www.w3.org/2000/svg"
   xmlns="http://www.w3.org/2000/svg"
   viewBox="0 0 46.549999 46.762501"
   height="46.762501"
   width="46.549999"
   xml:space="preserve"
   version="1.1"
   id="svg2"><metadata
     id="metadata8"><rdf:RDF><cc:Work
         rdf:about=""><dc:format>image/svg+xml</dc:format><dc:type
           rdf:resource="http://purl.org/dc/dcmitype/StillImage" /></cc:Work></rdf:RDF></metadata><defs
     id="defs6" /><g
     transform="matrix(1.25,0,0,-1.25,0,46.7625)"
     id="g10"><g
       transform="scale(0.1,0.1)"
       id="g12"><path
         id="path14"
         style="fill:#000000;fill-opacity:1;fill-rule:nonzero;stroke:none"
         d="m 2.55859,300.563 c 0,-39.504 82.35551,-71.516 183.92541,-71.516 101.575,0 183.918,32.012 183.918,71.516 l 0,-227.0474 C 370.402,34.0039 288.059,1.99219 186.484,1.99219 84.9141,1.99219 2.55859,34.0039 2.55859,73.5156 l 0,227.0474" /><path
         id="path16"
         style="fill:none;stroke:#ffffff;stroke-width:4;stroke-linecap:butt;stroke-linejoin:miter;stroke-miterlimit:4;stroke-dasharray:none;stroke-opacity:1"
         d="m 2.55859,300.563 c 0,-39.504 82.35551,-71.516 183.92541,-71.516 101.575,0 183.918,32.012 183.918,71.516 l 0,-227.0474 C 370.402,34.0039 288.059,1.99219 186.484,1.99219 84.9141,1.99219 2.55859,34.0039 2.55859,73.5156 l 0,227.0474 z" /><path
         id="path18"
         style="fill:#087bbb;fill-opacity:1;fill-rule:nonzero;stroke:none"
         d="m 369.855,300.563 c 0,-39.504 -82.363,-71.516 -183.925,-71.516 -101.5823,0 -183.92609,32.012 -183.92609,71.516 l 0,-227.0474 C 2.00391,34.0039 84.3477,1.99219 185.93,1.99219 c 101.562,0 183.925,32.01171 183.925,71.52341 l 0,227.0474" /><path
         id="path20"
         style="fill:none;stroke:#ffffff;stroke-width:4;stroke-linecap:butt;stroke-linejoin:miter;stroke-miterlimit:4;stroke-dasharray:none;stroke-opacity:1"
         d="m 369.855,300.563 c 0,-39.504 -82.363,-71.516 -183.925,-71.516 -101.5823,0 -183.92609,32.012 -183.92609,71.516 l 0,-227.0474 C 2.00391,34.0039 84.3477,1.99219 185.93,1.99219 c 101.562,0 183.925,32.01171 183.925,71.52341 l 0,227.0474 z" /><path
         id="path22"
         style="fill:#087bbb;fill-opacity:1;fill-rule:nonzero;stroke:none"
         d="m 185.93,229.047 c 101.562,0 183.925,32.012 183.925,71.516 0,39.511 -82.363,71.531 -183.925,71.531 -101.5823,0 -183.92609,-32.02 -183.92609,-71.531 0,-39.504 82.34379,-71.516 183.92609,-71.516" /><path
         id="path24"
         style="fill:none;stroke:#ffffff;stroke-width:4;stroke-linecap:butt;stroke-linejoin:miter;stroke-miterlimit:4;stroke-dasharray:none;stroke-opacity:1"
         d="m 185.93,229.047 c 101.562,0 183.925,32.012 183.925,71.516 0,39.511 -82.363,71.531 -183.925,71.531 -101.5823,0 -183.92609,-32.02 -183.92609,-71.531 0,-39.504 82.34379,-71.516 183.92609,-71.516 z" /><path
         id="path26"
         style="fill:#ffffff;fill-opacity:1;fill-rule:nonzero;stroke:none"
         d="m 146.535,331.012 15.195,-22.793 -57.433,-13.274 12.551,10.461 -88.7503,15.157 22.2656,16.699 85.6327,-14.504 10.539,8.254" /><path
         id="path28"
         style="fill:#ffffff;fill-opacity:1;fill-rule:nonzero;stroke:none"
         d="m 227.336,275.758 -10.371,23.476 51.797,10.36 -8.965,-8.047 86.328,-14.746 -20.723,-16.571 -85.82,16.114 -12.246,-10.586" /><path
         id="path30"
         style="fill:#ffffff;fill-opacity:1;fill-rule:nonzero;stroke:none"
         d="m 199.016,343.434 58.007,15.886 0.704,-24.851 -14.512,2.754 -28.32,-23.477 -27.012,3.934 29.219,22.98 -18.086,2.774" /><path
         id="path32"
         style="fill:#ffffff;fill-opacity:1;fill-rule:nonzero;stroke:none"
         d="M 174.152,254.352 118.906,244 l -2.07,25.547 15.891,-3.457 30.398,25.965 26.914,-4.551 -32.449,-28.32 16.562,-4.832" /><path
         id="path34"
         style="fill:#ffffff;fill-opacity:1;fill-rule:nonzero;stroke:none"
         d="m 149.074,94.3359 68.8477,0 0,68.8672 -68.8477,0 0,-68.8672 z" /><path
         id="path36"
         style="fill:none;stroke:#000000;stroke-width:4;stroke-linecap:butt;stroke-linejoin:miter;stroke-miterlimit:4;stroke-dasharray:none;stroke-opacity:1"
         d="m 149.074,94.3359 68.8477,0 0,68.8672 -68.8477,0 0,-68.8672 z" /><path
         id="path38"
         style="fill:#ffffff;fill-opacity:1;fill-rule:nonzero;stroke:none"
         d="m 102.863,212.008 0.02,-28.57 -51.8361,-0.04 -0.0196,28.551 51.8357,0.059" /><path
         id="path40"
         style="fill:none;stroke:#000000;stroke-width:4;stroke-linecap:butt;stroke-linejoin:miter;stroke-miterlimit:4;stroke-dasharray:none;stroke-opacity:1"
         d="m 102.863,212.008 0.02,-28.57 -51.8361,-0.04 -0.0196,28.551 51.8357,0.059 z" /><path
         id="path42"
         style="fill:#ffffff;fill-opacity:1;fill-rule:nonzero;stroke:none"
         d="m 102.863,140.605 0.02,-28.574 -51.8361,-0.039 -0.0196,28.555 51.8357,0.058" /><path
         id="path44"
         style="fill:none;stroke:#000000;stroke-width:4;stroke-linecap:butt;stroke-linejoin:miter;stroke-miterlimit:4;stroke-dasharray:none;stroke-opacity:1"
         d="m 102.863,140.605 0.02,-28.574 -51.8361,-0.039 -0.0196,28.555 51.8357,0.058 z" /><path
         id="path46"
         style="fill:#ffffff;fill-opacity:1;fill-rule:nonzero;stroke:none"
         d="m 102.863,73.3203 0.02,-28.5742 -51.8361,-0.0195 -0.0196,28.5351 51.8357,0.0586" /><path
         id="path48"
         style="fill:none;stroke:#000000;stroke-width:4;stroke-linecap:butt;stroke-linejoin:miter;stroke-miterlimit:4;stroke-dasharray:none;stroke-opacity:1"
         d="m 102.863,73.3203 0.02,-28.5742 -51.8361,-0.0195 -0.0196,28.5351 51.8357,0.0586 z" /><path
         id="path50"
         style="fill:#ffffff;fill-opacity:1;fill-rule:nonzero;stroke:none"
         d="m 209.523,73.3203 0.02,-28.5742 -51.836,-0.0195 -0.019,28.5351 51.835,0.0586" /><path
         id="path52"
         style="fill:none;stroke:#000000;stroke-width:4;stroke-linecap:butt;stroke-linejoin:miter;stroke-miterlimit:4;stroke-dasharray:none;stroke-opacity:1"
         d="m 209.523,73.3203 0.02,-28.5742 -51.836,-0.0195 -0.019,28.5351 51.835,0.0586 z" /><path
         id="path54"
         style="fill:#ffffff;fill-opacity:1;fill-rule:nonzero;stroke:none"
         d="m 319.523,212.008 0.02,-28.57 -51.836,-0.04 -0.019,28.551 51.835,0.059" /><path
         id="path56"
         style="fill:none;stroke:#000000;stroke-width:4;stroke-linecap:butt;stroke-linejoin:miter;stroke-miterlimit:4;stroke-dasharray:none;stroke-opacity:1"
         d="m 319.523,212.008 0.02,-28.57 -51.836,-0.04 -0.019,28.551 51.835,0.059 z" /><path
         id="path58"
         style="fill:#ffffff;fill-opacity:1;fill-rule:nonzero;stroke:none"
         d="m 209.523,212.008 0.02,-28.57 -51.836,-0.04 -0.019,28.551 51.835,0.059" /><path
         id="path60"
         style="fill:none;stroke:#000000;stroke-width:4;stroke-linecap:butt;stroke-linejoin:miter;stroke-miterlimit:4;stroke-dasharray:none;stroke-opacity:1"
         d="m 209.523,212.008 0.02,-28.57 -51.836,-0.04 -0.019,28.551 51.835,0.059 z" /><path
         id="path62"
         style="fill:#ffffff;fill-opacity:1;fill-rule:nonzero;stroke:none"
         d="m 319.523,140.605 0.02,-28.574 -51.836,-0.039 -0.019,28.555 51.835,0.058" /><path
         id="path64"
         style="fill:none;stroke:#000000;stroke-width:4;stroke-linecap:butt;stroke-linejoin:miter;stroke-miterlimit:4;stroke-dasharray:none;stroke-opacity:1"
         d="m 319.523,140.605 0.02,-28.574 -51.836,-0.039 -0.019,28.555 51.835,0.058 z" /><path
         id="path66"
         style="fill:#ffffff;fill-opacity:1;fill-rule:nonzero;stroke:none"
         d="m 319.523,73.3203 0.02,-28.5742 -51.836,-0.0195 -0.019,28.5351 51.835,0.0586" /><path
         id="path68"
         style="fill:none;stroke:#000000;stroke-width:4;stroke-linecap:butt;stroke-linejoin:miter;stroke-miterlimit:4;stroke-dasharray:none;stroke-opacity:1"
         d="m 319.523,73.3203 0.02,-28.5742 -51.836,-0.0195 -0.019,28.5351 51.835,0.0586 z" /><path
         id="path70"
         style="fill:none;stroke:#ffffff;stroke-width:8;stroke-linecap:butt;stroke-linejoin:miter;stroke-miterlimit:4;stroke-dasharray:none;stroke-opacity:1"
         d="m 78.1836,127.91 214.9924,0" /><path
         id="path72"
         style="fill:none;stroke:#ffffff;stroke-width:8;stroke-linecap:butt;stroke-linejoin:miter;stroke-miterlimit:4;stroke-dasharray:none;stroke-opacity:1"
         d="m 183.184,192.906 0,-134.9958" /><path
         id="path74"
         style="fill:none;stroke:#ffffff;stroke-width:8;stroke-linecap:butt;stroke-linejoin:miter;stroke-miterlimit:4;stroke-dasharray:none;stroke-opacity:1"
         d="M 86.9336,57.9102 285.676,196.656" /><path
         id="path76"
         style="fill:none;stroke:#ffffff;stroke-width:8;stroke-linecap:butt;stroke-linejoin:miter;stroke-miterlimit:4;stroke-dasharray:none;stroke-opacity:1"
         d="M 281.926,57.9102 83.1836,196.656" /></g></g></svg>