<?xml version="1.0" encoding="UTF-8" standalone="no"?>
<svg
   xmlns:dc="http://purl.org/dc/elements/1.1/"
   xmlns:cc="http://creativecommons.org/ns#"
   xmlns:rdf="http://www.w3.org/1999/02/22-rdf-syntax-ns#"
   xmlns:svg="http://www.w3.org/2000/svg"
   xmlns="http://www.w3.org/2000/svg"
   viewBox="0 0 61.25 30"
   height="30"
   width="61.25"
   xml:space="preserve"
   version="1.1"
   id="svg2"><metadata
     id="metadata8"><rdf:RDF><cc:Work
         rdf:about=""><dc:format>image/svg+xml</dc:format><dc:type
           rdf:resource="http://purl.org/dc/dcmitype/StillImage" /></cc:Work></rdf:RDF></metadata><defs
     id="defs6" /><g
     transform="matrix(1.25,0,0,-1.25,0,30)"
     id="g10"><g
       transform="scale(0.1,0.1)"
       id="g12"><path
         id="path14"
         style="fill:#087bbb;fill-opacity:1;fill-rule:nonzero;stroke:none"
         d="M 5.66016,119.059 149.922,235.66 l 333.129,0 -119.422,-116.601 -357.96884,0" /><path
         id="path16"
         style="fill:none;stroke:#ffffff;stroke-width:3.99993992;stroke-linecap:butt;stroke-linejoin:miter;stroke-miterlimit:4;stroke-dasharray:none;stroke-opacity:1"
         d="M 5.66016,119.059 149.922,235.66 l 333.129,0 -119.422,-116.601 -357.96884,0 z" /><path
         id="path18"
         style="fill:#087bbb;fill-opacity:1;fill-rule:nonzero;stroke:none"
         d="m 363.629,3.12109 119.422,128.90991 0,103.629 -119.422,-116.601 0,-115.93791" /><path
         id="path20"
         style="fill:none;stroke:#ffffff;stroke-width:3.99993992;stroke-linecap:butt;stroke-linejoin:miter;stroke-miterlimit:4;stroke-dasharray:none;stroke-opacity:1"
         d="m 363.629,3.12109 119.422,128.90991 0,103.629 -119.422,-116.601 0,-115.93791 z" /><path
         id="path22"
         style="fill:#087bbb;fill-opacity:1;fill-rule:nonzero;stroke:none"
         d="m 6.12891,3.01172 357.5,0 0,116.047 -357.5,0 0,-116.047 z" /><path
         id="path24"
         style="fill:none;stroke:#ffffff;stroke-width:3.99993992;stroke-linecap:butt;stroke-linejoin:miter;stroke-miterlimit:4;stroke-dasharray:none;stroke-opacity:1"
         d="m 6.12891,3.01172 357.5,0 0,116.047 -357.5,0 0,-116.047 z" /><path
         id="path26"
         style="fill:#087bbb;fill-opacity:1;fill-rule:nonzero;stroke:none"
         d="M 310.898,218.012 C 227.379,221.41 132.07,204.57 97.9297,180.391 c -34.1016,-24.18 5.9413,-46.52 89.4493,-49.961 83.519,-3.399 178.832,13.441 212.93,37.621 34.14,24.179 -5.899,46.558 -89.411,49.961" /><path
         id="path28"
         style="fill:none;stroke:#ffffff;stroke-width:3.99993992;stroke-linecap:butt;stroke-linejoin:miter;stroke-miterlimit:4;stroke-dasharray:none;stroke-opacity:1"
         d="M 310.898,218.012 C 227.379,221.41 132.07,204.57 97.9297,180.391 c -34.1016,-24.18 5.9413,-46.52 89.4493,-49.961 83.519,-3.399 178.832,13.441 212.93,37.621 34.14,24.179 -5.899,46.558 -89.411,49.961 z" /><path
         id="path30"
         style="fill:#087bbb;fill-opacity:1;fill-rule:nonzero;stroke:none"
         d="m 295.941,199.648 c -68.48,2.153 -145.16,-7.699 -171.293,-22.027 -26.1285,-14.34 8.161,-27.742 76.641,-29.891 68.481,-2.179 145.191,7.7 171.332,22.04 26.129,14.332 -8.211,27.73 -76.68,29.878" /><path
         id="path32"
         style="fill:none;stroke:#ffffff;stroke-width:3.99993992;stroke-linecap:butt;stroke-linejoin:miter;stroke-miterlimit:4;stroke-dasharray:none;stroke-opacity:1"
         d="m 295.941,199.648 c -68.48,2.153 -145.16,-7.699 -171.293,-22.027 -26.1285,-14.34 8.161,-27.742 76.641,-29.891 68.481,-2.179 145.191,7.7 171.332,22.04 26.129,14.332 -8.211,27.73 -76.68,29.878 z" /></g></g></svg>