<?xml version="1.0" encoding="UTF-8" standalone="no"?>
<svg
   xmlns:dc="http://purl.org/dc/elements/1.1/"
   xmlns:cc="http://creativecommons.org/ns#"
   xmlns:rdf="http://www.w3.org/1999/02/22-rdf-syntax-ns#"
   xmlns:svg="http://www.w3.org/2000/svg"
   xmlns="http://www.w3.org/2000/svg"
   xmlns:sodipodi="http://sodipodi.sourceforge.net/DTD/sodipodi-0.dtd"
   xmlns:inkscape="http://www.inkscape.org/namespaces/inkscape"
   viewBox="0 0 60.993118 30"
   height="30"
   width="60.993118"
   xml:space="preserve"
   version="1.1"
   id="svg2"
   inkscape:version="0.91 r13725"
   sodipodi:docname="cddifddi.svg"><sodipodi:namedview
     pagecolor="#ffffff"
     bordercolor="#666666"
     borderopacity="1"
     objecttolerance="10"
     gridtolerance="10"
     guidetolerance="10"
     inkscape:pageopacity="0"
     inkscape:pageshadow="2"
     inkscape:window-width="640"
     inkscape:window-height="480"
     id="namedview21"
     showgrid="false"
     inkscape:zoom="5.0830089"
     inkscape:cx="30.49375"
     inkscape:cy="14.9"
     inkscape:window-x="0"
     inkscape:window-y="23"
     inkscape:window-maximized="0"
     inkscape:current-layer="svg2" /><metadata
     id="metadata8"><rdf:RDF><cc:Work
         rdf:about=""><dc:format>image/svg+xml</dc:format><dc:type
           rdf:resource="http://purl.org/dc/dcmitype/StillImage" /></cc:Work></rdf:RDF></metadata><defs
     id="defs6"><clipPath
       id="clipPath18"
       clipPathUnits="userSpaceOnUse"><path
         id="path20"
         d="M 0,2 0,242 488,242 488,2 0,2 Z"
         inkscape:connector-curvature="0" /></clipPath></defs><g
     transform="matrix(1.25,0,0,-1.25,0,30.25)"
     id="g10"><g
       transform="scale(0.1,0.1)"
       id="g12"><g
         id="g14"><g
           clip-path="url(#clipPath18)"
           id="g16"><path
             id="path22"
             style="fill:#087bbb;fill-opacity:1;fill-rule:nonzero;stroke:none"
             d="m 5.65625,121.066 144.28475,116.61 333.094,0 -119.39,-116.61 -357.98875,0"
             inkscape:connector-curvature="0" /><path
             id="path24"
             style="fill:none;stroke:#ffffff;stroke-width:3.99993992;stroke-linecap:butt;stroke-linejoin:miter;stroke-miterlimit:4;stroke-dasharray:none;stroke-opacity:1"
             d="m 5.65625,121.066 144.28475,116.61 333.094,0 -119.39,-116.61 -357.98875,0 z"
             inkscape:connector-curvature="0" /><path
             id="path26"
             style="fill:#087bbb;fill-opacity:1;fill-rule:nonzero;stroke:none"
             d="m 363.645,5.10938 119.39,128.92162 0,103.645 -119.39,-116.61 0,-115.95662"
             inkscape:connector-curvature="0" /><path
             id="path28"
             style="fill:none;stroke:#ffffff;stroke-width:3.99993992;stroke-linecap:butt;stroke-linejoin:miter;stroke-miterlimit:4;stroke-dasharray:none;stroke-opacity:1"
             d="m 363.645,5.10938 119.39,128.92162 0,103.645 -119.39,-116.61 0,-115.95662 z"
             inkscape:connector-curvature="0" /><path
             id="path30"
             style="fill:#087bbb;fill-opacity:1;fill-rule:nonzero;stroke:none"
             d="m 6.14453,5 357.5,0 0,116.066 -357.5,0 0,-116.066 z"
             inkscape:connector-curvature="0" /><path
             id="path32"
             style="fill:none;stroke:#ffffff;stroke-width:3.99993992;stroke-linecap:butt;stroke-linejoin:miter;stroke-miterlimit:4;stroke-dasharray:none;stroke-opacity:1"
             d="m 6.14453,5 357.5,0 0,116.066 -357.5,0 0,-116.066 z"
             inkscape:connector-curvature="0" /><path
             id="path34"
             style="fill:#087bbb;fill-opacity:1;fill-rule:nonzero;stroke:none"
             d="m 310.898,219.992 c -83.503,3.418 -178.847,-13.418 -212.9566,-37.597 -34.1016,-24.18 5.9376,-46.543 89.4416,-49.946 83.496,-3.418 178.84,13.422 212.949,37.602 34.109,24.179 -5.937,46.543 -89.434,49.941"
             inkscape:connector-curvature="0" /><path
             id="path36"
             style="fill:none;stroke:#ffffff;stroke-width:3.99993992;stroke-linecap:butt;stroke-linejoin:miter;stroke-miterlimit:4;stroke-dasharray:none;stroke-opacity:1"
             d="m 310.898,219.992 c -83.503,3.418 -178.847,-13.418 -212.9566,-37.597 -34.1016,-24.18 5.9376,-46.543 89.4416,-49.946 83.496,-3.418 178.84,13.422 212.949,37.602 34.109,24.179 -5.937,46.543 -89.434,49.941 z"
             inkscape:connector-curvature="0" /><path
             id="path38"
             style="fill:#087bbb;fill-opacity:1;fill-rule:nonzero;stroke:none"
             d="m 295.945,201.652 c -68.465,2.157 -145.175,-7.714 -171.304,-22.05 -26.1449,-14.336 8.172,-27.715 76.648,-29.883 68.477,-2.16 145.176,7.715 171.309,22.051 26.14,14.335 -8.172,27.714 -76.653,29.882"
             inkscape:connector-curvature="0" /><path
             id="path40"
             style="fill:none;stroke:#ffffff;stroke-width:3.99993992;stroke-linecap:butt;stroke-linejoin:miter;stroke-miterlimit:4;stroke-dasharray:none;stroke-opacity:1"
             d="m 295.945,201.652 c -68.465,2.157 -145.175,-7.714 -171.304,-22.05 -26.1449,-14.336 8.172,-27.715 76.648,-29.883 68.477,-2.16 145.176,7.715 171.309,22.051 26.14,14.335 -8.172,27.714 -76.653,29.882 z"
             inkscape:connector-curvature="0" /></g></g></g></g></svg>