<?xml version="1.0" encoding="UTF-8" standalone="no"?>
<svg
   xmlns:dc="http://purl.org/dc/elements/1.1/"
   xmlns:cc="http://creativecommons.org/ns#"
   xmlns:rdf="http://www.w3.org/1999/02/22-rdf-syntax-ns#"
   xmlns:svg="http://www.w3.org/2000/svg"
   xmlns="http://www.w3.org/2000/svg"
   viewBox="0 0 55 37.5"
   height="37.5"
   width="55"
   xml:space="preserve"
   version="1.1"
   id="svg2"><metadata
     id="metadata8"><rdf:RDF><cc:Work
         rdf:about=""><dc:format>image/svg+xml</dc:format><dc:type
           rdf:resource="http://purl.org/dc/dcmitype/StillImage" /></cc:Work></rdf:RDF></metadata><defs
     id="defs6"><clipPath
       id="clipPath18"
       clipPathUnits="userSpaceOnUse"><path
         id="path20"
         d="M 0,10 0,299 440,299 440,10 0,10 Z" /></clipPath></defs><g
     transform="matrix(1.25,0,0,-1.25,0,37.5)"
     id="g10"><g
       transform="scale(0.1,0.1)"
       id="g12"><g
         id="g14"><g
           clip-path="url(#clipPath18)"
           id="g16"><path
             id="path22"
             style="fill:#087bbb;fill-opacity:1;fill-rule:nonzero;stroke:none"
             d="m 6.05078,17.3594 332.188,0 0,180.82 -332.188,0 0,-180.82 z" /><path
             id="path24"
             style="fill:none;stroke:#ffffff;stroke-width:3.99993992;stroke-linecap:butt;stroke-linejoin:miter;stroke-miterlimit:4;stroke-dasharray:none;stroke-opacity:1"
             d="m 6.05078,198.18 0,-180.8206 332.18722,0 0,180.8206" /><path
             id="path26"
             style="fill:#ffffff;fill-opacity:1;fill-rule:nonzero;stroke:none"
             d="m 213.828,118.77 c 0,-6.219 -16.598,-11.25 -37.109,-11.25 -20.508,0 -37.11,5.031 -37.11,11.25 l 0,-46.4927 c 0,-6.207 16.602,-11.25 37.11,-11.25 20.511,0 37.109,5.043 37.109,11.25 l 0,46.4927" /><path
             id="path28"
             style="fill:#087bbb;fill-opacity:1;fill-rule:nonzero;stroke:none"
             d="m 176.68,107.52 c 20.468,0 37.07,5.031 37.07,11.25 0,6.21 -16.602,11.25 -37.07,11.25 -20.508,0 -37.11,-5.04 -37.11,-11.25 0,-6.219 16.602,-11.25 37.11,-11.25" /><path
             id="path30"
             style="fill:none;stroke:#ffffff;stroke-width:8.00002956;stroke-linecap:butt;stroke-linejoin:miter;stroke-miterlimit:4;stroke-dasharray:none;stroke-opacity:1"
             d="m 176.68,107.52 c 20.468,0 37.07,5.031 37.07,11.25 0,6.21 -16.602,11.25 -37.07,11.25 -20.508,0 -37.11,-5.04 -37.11,-11.25 0,-6.219 16.602,-11.25 37.11,-11.25 z" /><path
             id="path32"
             style="fill:#ffffff;fill-opacity:1;fill-rule:nonzero;stroke:none"
             d="m 176.719,55.4805 c 20.511,0 37.109,5.039 37.109,11.25 0,6.2187 -16.598,11.25 -37.109,11.25 -20.508,0 -37.11,-5.0313 -37.11,-11.25 0,-6.211 16.602,-11.25 37.11,-11.25" /><path
             id="path34"
             style="fill:none;stroke:#ffffff;stroke-width:8.00002956;stroke-linecap:butt;stroke-linejoin:miter;stroke-miterlimit:4;stroke-dasharray:none;stroke-opacity:1"
             d="m 176.719,55.4805 c 20.511,0 37.109,5.039 37.109,11.25 0,6.2187 -16.598,11.25 -37.109,11.25 -20.508,0 -37.11,-5.0313 -37.11,-11.25 0,-6.211 16.602,-11.25 37.11,-11.25 z" /><path
             id="path36"
             style="fill:#087bbb;fill-opacity:1;fill-rule:nonzero;stroke:none"
             d="m 5.66016,198.18 122.62084,99.179 311.489,0 -101.532,-99.179 -332.57784,0" /><path
             id="path38"
             style="fill:none;stroke:#ffffff;stroke-width:3.99993992;stroke-linecap:butt;stroke-linejoin:miter;stroke-miterlimit:4;stroke-dasharray:none;stroke-opacity:1"
             d="m 5.66016,198.18 122.62084,99.179 311.489,0 -101.532,-99.179 -332.57784,0 z" /><path
             id="path40"
             style="fill:#087bbb;fill-opacity:1;fill-rule:nonzero;stroke:none"
             d="m 338.238,195.758 0,-180.7385 101.532,106.5195 0,173.199 -101.532,-98.98" /><path
             id="path42"
             style="fill:none;stroke:#ffffff;stroke-width:3.99993992;stroke-linecap:butt;stroke-linejoin:miter;stroke-miterlimit:4;stroke-dasharray:none;stroke-opacity:1"
             d="m 338.238,195.758 0,-180.7385 101.532,106.5195 0,173.199 -101.532,-98.98 z" /><path
             id="path44"
             style="fill:#ffffff;fill-opacity:1;fill-rule:nonzero;stroke:none"
             d="m 294.488,99.9805 -60.777,-0.043 0,9.6525 60.777,0.027 0.043,15.082 35.199,-19.922 -35.199,-19.9176 -0.043,15.1211" /><path
             id="path46"
             style="fill:#ffffff;fill-opacity:1;fill-rule:nonzero;stroke:none"
             d="m 284.02,148.648 -50.969,-33.128 -5.242,8.089 50.941,33.161 -8.199,12.66 40.39,2.461 -18.671,-35.903 -8.25,12.66" /><path
             id="path48"
             style="fill:#ffffff;fill-opacity:1;fill-rule:nonzero;stroke:none"
             d="m 284.02,61.5 -50.969,33.1602 -5.242,-8.1211 50.941,-33.1289 -8.199,-12.6524 40.39,-2.457 L 292.27,74.1602 284.02,61.5" /><path
             id="path50"
             style="fill:#ffffff;fill-opacity:1;fill-rule:nonzero;stroke:none"
             d="m 51.9492,99.9805 60.7498,-0.043 0,9.6525 -60.7498,0.027 -0.039,15.082 -35.1914,-19.922 35.1914,-19.9176 0.039,15.1211" /><path
             id="path52"
             style="fill:#ffffff;fill-opacity:1;fill-rule:nonzero;stroke:none"
             d="m 180.469,176.23 0.043,21.829 -9.653,0 -0.039,-21.829 -15.082,0 19.922,-35.203 19.93,35.203 -15.121,0" /><path
             id="path54"
             style="fill:#ffffff;fill-opacity:1;fill-rule:nonzero;stroke:none"
             d="m 62.4219,148.648 50.9371,-33.128 5.27,8.089 -50.9298,33.161 8.1992,12.66 -40.3867,2.461 18.668,-35.903 8.2422,12.66" /><path
             id="path56"
             style="fill:#ffffff;fill-opacity:1;fill-rule:nonzero;stroke:none"
             d="m 62.4219,61.5 50.9371,33.1602 5.27,-8.1211 L 67.6992,53.4102 75.8984,40.7578 35.5117,38.3008 54.1797,74.1602 62.4219,61.5" /></g></g></g></g></svg>