<svg xmlns="http://www.w3.org/2000/svg" viewBox="0 0 55 37.5" height="37.5" width="55"><defs><clipPath id="a"><path d="M0 10v289h440V10H0z"/></clipPath></defs><g clip-path="url(#a)" transform="matrix(.13 0 0 -.13 0 37.5)"><path d="M6.05 17.36H338.24v180.82H6.05V17.36z" fill="#087bbb"/><path d="M6.05 198.18V17.36h332.188v180.82" fill="none" stroke="#fff" stroke-width="4"/><path d="M213.828 118.77c0-6.219-16.598-11.25-37.109-11.25-20.508 0-37.11 5.031-37.11 11.25V72.277c0-6.207 16.602-11.25 37.11-11.25 20.511 0 37.109 5.043 37.109 11.25v46.493" fill="#fff"/><path d="M176.68 107.52c20.468 0 37.07 5.031 37.07 11.25 0 6.21-16.602 11.25-37.07 11.25-20.508 0-37.11-5.04-37.11-11.25 0-6.219 16.602-11.25 37.11-11.25" fill="#087bbb"/><path d="M176.68 107.52c20.468 0 37.07 5.031 37.07 11.25 0 6.21-16.602 11.25-37.07 11.25-20.508 0-37.11-5.04-37.11-11.25 0-6.219 16.602-11.25 37.11-11.25z" fill="none" stroke="#fff" stroke-width="8"/><path d="M176.719 55.48c20.511 0 37.109 5.04 37.109 11.25 0 6.22-16.598 11.25-37.109 11.25-20.508 0-37.11-5.03-37.11-11.25 0-6.21 16.602-11.25 37.11-11.25" fill="#fff"/><path d="M176.719 55.48c20.511 0 37.109 5.04 37.109 11.25 0 6.22-16.598 11.25-37.109 11.25-20.508 0-37.11-5.03-37.11-11.25 0-6.21 16.602-11.25 37.11-11.25z" fill="none" stroke="#fff" stroke-width="8"/><path d="M5.66 198.18l122.621 99.179H439.77L338.238 198.18H5.66" fill="#087bbb"/><path d="M5.66 198.18l122.621 99.179H439.77L338.238 198.18H5.66z" fill="none" stroke="#fff" stroke-width="4"/><path d="M338.238 195.758V15.02L439.77 121.539v173.199l-101.532-98.98" fill="#087bbb"/><path d="M338.238 195.758V15.02L439.77 121.539v173.199l-101.532-98.98z" fill="none" stroke="#fff" stroke-width="4"/><path d="M294.488 99.98l-60.777-.042v9.652l60.777.027.043 15.082 35.199-19.922-35.199-19.918-.043 15.122M284.02 148.648l-50.969-33.128-5.242 8.089 50.941 33.161-8.199 12.66 40.39 2.461-18.671-35.903-8.25 12.66M284.02 61.5l-50.969 33.16-5.242-8.12 50.941-33.13-8.199-12.652 40.39-2.457-18.671 35.86-8.25-12.661M51.95 99.98l60.749-.042v9.652l-60.75.027-.039 15.082-35.191-19.922L51.91 84.859l.04 15.122M180.469 176.23l.043 21.829h-9.653l-.039-21.829h-15.082l19.922-35.203 19.93 35.203h-15.121M62.422 148.648l50.937-33.128 5.27 8.089-50.93 33.161 8.2 12.66-40.387 2.461 18.668-35.903 8.242 12.66M62.422 61.5l50.937 33.16 5.27-8.12-50.93-33.13 8.2-12.652L35.511 38.3 54.18 74.16 62.422 61.5" fill="#fff"/></g></svg>