<?xml version="1.0" encoding="UTF-8" standalone="no"?>
<svg
   xmlns:dc="http://purl.org/dc/elements/1.1/"
   xmlns:cc="http://creativecommons.org/ns#"
   xmlns:rdf="http://www.w3.org/1999/02/22-rdf-syntax-ns#"
   xmlns:svg="http://www.w3.org/2000/svg"
   xmlns="http://www.w3.org/2000/svg"
   viewBox="0 0 55.587502 36.1875"
   height="36.1875"
   width="55.587502"
   xml:space="preserve"
   version="1.1"
   id="svg2"><metadata
     id="metadata8"><rdf:RDF><cc:Work
         rdf:about=""><dc:format>image/svg+xml</dc:format><dc:type
           rdf:resource="http://purl.org/dc/dcmitype/StillImage" /></cc:Work></rdf:RDF></metadata><defs
     id="defs6"><clipPath
       id="clipPath18"
       clipPathUnits="userSpaceOnUse"><path
         id="path20"
         d="M 0,0 0,289 440,289 440,0 0,0 Z" /></clipPath></defs><g
     transform="matrix(1.25,0,0,-1.25,0,36.1875)"
     id="g10"><g
       transform="scale(0.1,0.1)"
       id="g12"><g
         id="g14"><g
           clip-path="url(#clipPath18)"
           id="g16"><path
             id="path22"
             style="fill:#087bbb;fill-opacity:1;fill-rule:nonzero;stroke:none"
             d="m 6.0625,7.36328 332.199,0 0,180.82 -332.199,0 0,-180.82 z" /><path
             id="path24"
             style="fill:none;stroke:#ffffff;stroke-width:3.99993992;stroke-linecap:butt;stroke-linejoin:miter;stroke-miterlimit:4;stroke-dasharray:none;stroke-opacity:1"
             d="m 6.0625,188.184 0,-180.82072 332.1995,0 0,180.82072" /><path
             id="path26"
             style="fill:#ffffff;fill-opacity:1;fill-rule:nonzero;stroke:none"
             d="m 213.816,108.75 c 0,-6.203 -16.597,-11.2422 -37.086,-11.2422 -20.5,0 -37.101,5.0392 -37.101,11.2422 l 0,-46.4844 c 0,-6.2109 16.601,-11.25 37.101,-11.25 20.489,0 37.086,5.0391 37.086,11.25 l 0,46.4844" /><path
             id="path28"
             style="fill:#087bbb;fill-opacity:1;fill-rule:nonzero;stroke:none"
             d="m 176.68,97.5078 c 20.488,0 37.09,5.0392 37.09,11.2422 0,6.219 -16.602,11.25 -37.09,11.25 -20.496,0 -37.102,-5.031 -37.102,-11.25 0,-6.203 16.606,-11.2422 37.102,-11.2422" /><path
             id="path30"
             style="fill:none;stroke:#ffffff;stroke-width:8.00002956;stroke-linecap:butt;stroke-linejoin:miter;stroke-miterlimit:4;stroke-dasharray:none;stroke-opacity:1"
             d="m 176.68,97.5078 c 20.488,0 37.09,5.0392 37.09,11.2422 0,6.219 -16.602,11.25 -37.09,11.25 -20.496,0 -37.102,-5.031 -37.102,-11.25 0,-6.203 16.606,-11.2422 37.102,-11.2422 z" /><path
             id="path32"
             style="fill:#ffffff;fill-opacity:1;fill-rule:nonzero;stroke:none"
             d="m 176.73,45.4961 c 20.489,0 37.086,5.0312 37.086,11.2422 0,6.2109 -16.597,11.2383 -37.086,11.2383 -20.5,0 -37.101,-5.0274 -37.101,-11.2383 0,-6.211 16.601,-11.2422 37.101,-11.2422" /><path
             id="path34"
             style="fill:none;stroke:#ffffff;stroke-width:8.00002956;stroke-linecap:butt;stroke-linejoin:miter;stroke-miterlimit:4;stroke-dasharray:none;stroke-opacity:1"
             d="m 176.73,45.4961 c 20.489,0 37.086,5.0312 37.086,11.2422 0,6.2109 -16.597,11.2383 -37.086,11.2383 -20.5,0 -37.101,-5.0274 -37.101,-11.2383 0,-6.211 16.601,-11.2422 37.101,-11.2422 z" /><path
             id="path36"
             style="fill:#087bbb;fill-opacity:1;fill-rule:nonzero;stroke:none"
             d="m 5.65625,188.184 122.63275,99.179 311.469,0 -101.496,-99.179 -332.60575,0" /><path
             id="path38"
             style="fill:none;stroke:#ffffff;stroke-width:3.99993992;stroke-linecap:butt;stroke-linejoin:miter;stroke-miterlimit:4;stroke-dasharray:none;stroke-opacity:1"
             d="m 5.65625,188.184 122.63275,99.179 311.469,0 -101.496,-99.179 -332.60575,0 z" /><path
             id="path40"
             style="fill:#087bbb;fill-opacity:1;fill-rule:nonzero;stroke:none"
             d="m 338.262,185.742 0,-180.742 101.496,106.543 0,173.191 -101.496,-98.992" /><path
             id="path42"
             style="fill:none;stroke:#ffffff;stroke-width:3.99993992;stroke-linecap:butt;stroke-linejoin:miter;stroke-miterlimit:4;stroke-dasharray:none;stroke-opacity:1"
             d="m 338.262,185.742 0,-180.742 101.496,106.543 0,173.191 -101.496,-98.992 z" /><path
             id="path44"
             style="fill:#ffffff;fill-opacity:1;fill-rule:nonzero;stroke:none"
             d="m 294.504,89.9609 -60.774,-0.0312 0,9.6601 60.774,0.0274 0.016,15.0898 35.199,-19.9218 -35.199,-19.9336 -0.016,15.1093" /><path
             id="path46"
             style="fill:#ffffff;fill-opacity:1;fill-rule:nonzero;stroke:none"
             d="m 284.016,138.652 -50.95,-33.136 -5.261,8.097 50.945,33.145 -8.203,12.656 40.383,2.461 -18.664,-35.879 -8.25,12.656" /><path
             id="path48"
             style="fill:#ffffff;fill-opacity:1;fill-rule:nonzero;stroke:none"
             d="M 284.016,51.5117 233.066,84.6484 227.805,76.543 278.75,43.4063 270.547,30.7539 310.93,28.2813 292.266,64.168 284.016,51.5117" /><path
             id="path50"
             style="fill:#ffffff;fill-opacity:1;fill-rule:nonzero;stroke:none"
             d="m 51.9531,89.9609 60.7619,-0.0312 0,9.6601 -60.7619,0.0274 -0.0312,15.0898 -35.1953,-19.9218 35.1953,-19.9336 0.0312,15.1093" /><path
             id="path52"
             style="fill:#ffffff;fill-opacity:1;fill-rule:nonzero;stroke:none"
             d="m 180.488,166.238 0.032,21.817 -9.661,0 -0.039,-21.817 -15.09,-0.019 19.922,-35.196 19.946,35.196 -15.11,0.019" /><path
             id="path54"
             style="fill:#ffffff;fill-opacity:1;fill-rule:nonzero;stroke:none"
             d="m 62.4297,138.652 50.9493,-33.136 5.242,8.097 -50.9257,33.145 8.2031,12.656 -40.3789,2.461 18.6797,-35.879 8.2305,12.656" /><path
             id="path56"
             style="fill:#ffffff;fill-opacity:1;fill-rule:nonzero;stroke:none"
             d="M 62.4297,51.5117 113.379,84.6484 118.621,76.543 67.6953,43.4063 75.8984,30.7539 35.5195,28.2813 54.1992,64.168 62.4297,51.5117" /></g></g></g></g></svg>