<?xml version="1.0" encoding="UTF-8" standalone="no"?>
<svg
   xmlns:dc="http://purl.org/dc/elements/1.1/"
   xmlns:cc="http://creativecommons.org/ns#"
   xmlns:rdf="http://www.w3.org/1999/02/22-rdf-syntax-ns#"
   xmlns:svg="http://www.w3.org/2000/svg"
   xmlns="http://www.w3.org/2000/svg"
   viewBox="0 0 19.7125 34.5625"
   height="34.5625"
   width="19.7125"
   xml:space="preserve"
   version="1.1"
   id="svg2"><metadata
     id="metadata8"><rdf:RDF><cc:Work
         rdf:about=""><dc:format>image/svg+xml</dc:format><dc:type
           rdf:resource="http://purl.org/dc/dcmitype/StillImage" /></cc:Work></rdf:RDF></metadata><defs
     id="defs6" /><g
     transform="matrix(1.25,0,0,-1.25,0,34.5625)"
     id="g10"><g
       transform="scale(0.1,0.1)"
       id="g12"><path
         id="path14"
         style="fill:#02709f;fill-opacity:1;fill-rule:nonzero;stroke:none"
         d="m 143.145,158.242 c 2.335,8.477 12.121,50.832 12.531,56.719 0.429,5.883 -1.75,13.285 -4.895,14.781 0.164,2.113 0.215,3.285 0.215,3.285 -0.769,0.317 -1.555,0.621 -2.324,0.93 l 0.242,-0.086 c 0,0 2.258,9.445 3.559,16.008 2.468,12.582 2.722,18.926 2.722,18.926 -0.05,1.726 -0.5,3.25 -2.09,3.691 l -7.316,2.02 c -1.601,0.441 -2.676,-0.555 -3.687,-2.094 0,0 -2.832,-5.863 -6.875,-17.793 -2.153,-6.324 -4.204,-14.266 -4.204,-14.266 l 0.098,-0.047 c -4.363,1.426 -8.785,2.77 -13.277,4.004 -11.406,3.153 -22.8323,5.575 -34.2424,7.305 0,0 -0.5664,-1.027 -1.5118,-2.93 -3.457,0.332 -9.1289,-4.902 -11.789,-10.175 C 67.6563,233.254 54.3164,191.879 51.9727,183.402 49.6406,174.922 45.1289,153.359 43.125,142.633 41.1211,131.895 39.3281,113.184 32.4297,88.2031 28.3594,73.4766 21.7852,51.5234 18.3398,42.3945 17.4414,40 10.2344,27.8242 20.6953,23.6914 30.9844,19.6211 46.2969,15.2266 54.0313,13.0859 61.7695,10.957 77.1563,6.875 88.0859,5.08984 99.1797,3.28125 99.2461,17.4219 99.6992,19.9414 c 1.7388,9.6094 7.3398,31.8164 11.4058,46.543 6.891,24.9922 14.942,41.9726 18.731,52.2186 3.785,10.235 10.977,31.059 13.309,39.539" /><path
         id="path16"
         style="fill:#02709f;fill-opacity:1;fill-rule:nonzero;stroke:none"
         d="m 143.762,268.57 c 0,0 -3.403,0.996 -6.321,1.801 -2.605,0.723 -6.179,1.645 -6.179,1.645" /><path
         id="path18"
         style="fill:#02709f;fill-opacity:1;fill-rule:nonzero;stroke:none"
         d="m 131.777,157.105 c 2.332,8.473 12.11,50.829 12.532,56.719 0.425,5.883 -1.758,13.285 -4.895,14.774 0.164,2.121 0.203,3.293 0.203,3.293 -0.769,0.312 -1.543,0.613 -2.312,0.922 l 0.234,-0.079 c 0,0 2.258,9.434 3.555,16 2.469,12.59 2.722,18.934 2.722,18.934 -0.039,1.727 -0.488,3.242 -2.086,3.684 l -7.304,2.019 c -1.606,0.438 -2.68,-0.555 -3.696,-2.09 0,0 -2.832,-5.859 -6.875,-17.789 -2.144,-6.328 -4.207,-14.277 -4.207,-14.277 l 0.11,-0.035 c -4.367,1.425 -8.789,2.765 -13.281,4 -11.4067,3.148 -22.8325,5.574 -34.2426,7.308 0,0 -0.5664,-1.035 -1.5117,-2.929 -3.4571,0.328 -9.1289,-4.907 -11.7891,-10.18 -2.6523,-5.27 -15.9922,-46.641 -18.3281,-55.117 -2.3321,-8.481 -6.8438,-30.039 -8.8477,-40.774 -2,-10.726 -3.7969,-29.437 -10.7031,-54.4372 C 16.9922,72.3242 10.4102,50.3906 6.97266,41.25 6.0625,38.8594 -1.13281,26.6797 9.32422,22.5391 19.6289,18.4766 34.9297,14.082 42.6641,11.9531 50.4023,9.81641 65.7813,5.74219 76.7188,3.94531 87.8125,2.12891 87.8828,16.2813 88.332,18.8008 c 1.7383,9.5976 7.3399,31.8242 11.4024,46.543 6.8986,24.9882 14.9456,41.9802 18.7346,52.2152 3.789,10.234 10.965,31.062 13.308,39.546" /><path
         id="path20"
         style="fill:#02709f;fill-opacity:1;fill-rule:nonzero;stroke:none"
         d="m 51.8281,97.7266 c -1.1914,-4.3477 -5.707,-6.8868 -10.0429,-5.6953 -4.3438,1.2031 -6.8907,5.6953 -5.6993,10.0387 1.2071,4.356 5.6993,6.895 10.0352,5.703 4.3555,-1.199 6.9062,-5.703 5.707,-10.0464" /><path
         id="path22"
         style="fill:#02709f;fill-opacity:1;fill-rule:nonzero;stroke:none"
         d="m 72.3945,89.0156 c -1.1914,-4.3476 -5.6836,-6.8867 -10.0429,-5.6953 -4.3321,1.1914 -6.8828,5.6953 -5.6836,10.0391 1.1914,4.3359 5.6836,6.8946 10.0312,5.6953 4.3438,-1.2031 6.9024,-5.6953 5.6953,-10.0391" /><path
         id="path24"
         style="fill:#02709f;fill-opacity:1;fill-rule:nonzero;stroke:none"
         d="m 94.582,85.918 c -1.1914,-4.336 -5.6836,-6.8828 -10.0429,-5.6836 -4.3321,1.2031 -6.8907,5.6836 -5.6914,10.039 1.1992,4.3477 5.6914,6.8946 10.039,5.6954 4.3438,-1.2032 6.9024,-5.6954 5.6953,-10.0508" /><path
         id="path26"
         style="fill:#02709f;fill-opacity:1;fill-rule:nonzero;stroke:none"
         d="m 46.8867,79.7969 c -1.2148,-4.3477 -5.707,-6.8946 -10.0508,-5.6953 -4.3476,1.1914 -6.8828,5.6953 -5.6914,10.039 1.1914,4.336 5.6914,6.8946 10.0352,5.6914 4.3398,-1.1992 6.8984,-5.6914 5.707,-10.0351" /><path
         id="path28"
         style="fill:#02709f;fill-opacity:1;fill-rule:nonzero;stroke:none"
         d="m 67.4531,71.0742 c -1.1914,-4.3359 -5.707,-6.8828 -10.0429,-5.6836 -4.3438,1.1914 -6.8907,5.6836 -5.6993,10.0313 1.2071,4.3437 5.6993,6.9023 10.0352,5.6914 4.3555,-1.1914 6.8984,-5.6836 5.707,-10.0391" /><path
         id="path30"
         style="fill:#02709f;fill-opacity:1;fill-rule:nonzero;stroke:none"
         d="m 89.6406,67.9961 c -1.2031,-4.3438 -5.707,-6.9023 -10.0429,-5.6992 -4.3438,1.1992 -6.8907,5.6992 -5.6993,10.0469 1.2071,4.3359 5.6993,6.8945 10.0352,5.6835 4.3555,-1.1914 6.8984,-5.6835 5.707,-10.0312" /><path
         id="path32"
         style="fill:#02709f;fill-opacity:1;fill-rule:nonzero;stroke:none"
         d="m 41.9219,61.8555 c -1.1914,-4.336 -5.6836,-6.8828 -10.0352,-5.6836 -4.3398,1.1914 -6.8984,5.6836 -5.6836,10.0312 1.1914,4.3438 5.6836,6.9024 10.0274,5.7032 4.3476,-1.2032 6.8945,-5.6954 5.6914,-10.0508" /><path
         id="path34"
         style="fill:#02709f;fill-opacity:1;fill-rule:nonzero;stroke:none"
         d="M 62.5,53.1445 C 61.2969,48.8086 56.8047,46.25 52.4609,47.4531 c -4.3476,1.1992 -6.8828,5.6914 -5.6914,10.0391 1.1914,4.3437 5.6914,6.8828 10.0352,5.6914 4.3398,-1.1914 6.8984,-5.6914 5.6953,-10.0391" /><path
         id="path36"
         style="fill:#02709f;fill-opacity:1;fill-rule:nonzero;stroke:none"
         d="m 84.6875,50.0586 c -1.2031,-4.3359 -5.6953,-6.8945 -10.0391,-5.6836 -4.3476,1.1914 -6.8945,5.6836 -5.6914,10.0391 1.1914,4.3359 5.6914,6.8945 10.0352,5.6836 4.3398,-1.1914 6.8984,-5.6836 5.6953,-10.0391" /><path
         id="path38"
         style="fill:#02709f;fill-opacity:1;fill-rule:nonzero;stroke:none"
         d="m 36.9805,43.9375 c -1.2071,-4.3477 -5.6992,-6.9062 -10.0352,-5.7031 -4.3555,1.1992 -6.8984,5.6914 -5.707,10.039 1.2148,4.3438 5.707,6.9024 10.043,5.6914 4.3437,-1.1914 6.8906,-5.6835 5.6992,-10.0273 z m 20.5664,-8.7227 c -1.1914,-4.3437 -5.6914,-6.8945 -10.0352,-5.7031 -4.3398,1.211 -6.8984,5.7031 -5.6953,10.0391 1.2031,4.3555 5.6953,6.8945 10.0391,5.7031 4.3476,-1.1992 6.8945,-5.7031 5.6914,-10.0391" /><path
         id="path40"
         style="fill:#02709f;fill-opacity:1;fill-rule:nonzero;stroke:none"
         d="M 79.7344,32.1289 C 78.543,27.7852 74.043,25.2344 69.6992,26.4375 c -4.3398,1.1992 -6.8984,5.6914 -5.6953,10.0391 1.2031,4.3437 5.6953,6.8828 10.0391,5.6914 4.3476,-1.1992 6.8828,-5.6836 5.6914,-10.0391" /><path
         id="path42"
         style="fill:#02709f;fill-opacity:1;fill-rule:nonzero;stroke:none"
         d="m 47.207,23.0977 c -0.1093,-0.4024 -0.8086,-0.5664 -1.5703,-0.3633 -0.7539,0.2148 -1.2734,0.7148 -1.1719,1.1133 0.1172,0.4101 0.8282,0.5664 1.5782,0.3515 0.7617,-0.1953 1.2734,-0.7031 1.164,-1.1015 z m -2.7422,0.75 -2.5703,-9.336 M 44.9102,23.0781 42.5,14.3477 m 4.707,8.75 -2.5781,-9.3477 m 1.8047,8.9063 -2.4023,-8.7305 M 62.9414,158.238 61.1602,151.77 m 2.5,6.269 -1.8164,-6.562 m 38.4372,-3.547 -1.7849,-6.469 m 1.0625,6.664 -1.8164,-6.559" /><path
         id="path44"
         style="fill:#02709f;fill-opacity:1;fill-rule:nonzero;stroke:none"
         d="m 137.539,232.734 c 0,0 2.266,9.434 3.555,16 2.469,12.59 2.722,18.934 2.722,18.934 -0.039,1.727 -0.488,3.242 -2.086,3.684 l -7.304,2.019 c -1.606,0.438 -2.68,-0.555 -3.696,-2.09 0,0 -2.832,-5.859 -6.875,-17.789 -2.144,-6.328 -4.207,-14.277 -4.207,-14.277 m -2.863,-92.735 c -0.445,-1.597 -2.09,-2.523 -3.687,-2.085 L 50.1289,161.77 c -1.6016,0.441 -2.5391,2.089 -2.0937,3.683 l 10.9804,39.817 c 0.4492,1.597 2.086,2.523 3.6914,2.085 l 62.969,-17.378 c 1.597,-0.446 2.539,-2.086 2.09,-3.684 L 116.785,146.48 Z m 21.613,89.668 c -5.847,2.274 -11.816,4.379 -17.878,6.293 m -46.8481,7.825 c 0,0 -15.0117,-30.637 -23.5821,-61.715 -10.2187,-36.996 -11.6992,-49.317 -10.1601,-66.5 0.3125,-3.555 3.832,-7.879 7.7656,-8.965 1.5508,-0.43 3.3594,-0.918 4.1094,-1.133 0.7656,-0.215 3.6562,-0.918 6.0664,-2.793 2.4102,-1.875 2.9961,-2.363 4.4219,-3.133 1.4258,-0.781 1.6211,-1.281 5.6679,-2.394 4.043,-1.121 4.4805,-0.801 6.0899,-0.86 1.6211,-0.058 2.3828,0.059 5.4219,0.43 3.0273,0.371 5.8711,-0.508 6.6289,-0.711 0.7539,-0.207 2.5586,-0.715 4.1132,-1.144 3.9375,-1.082 9.1719,0.84 11.2692,3.722 10.125,13.953 15.164,25.301 25.379,62.293 8.575,31.071 11.407,65.075 11.407,65.075 m -73.4262,2.46 c 12.0781,-1.738 25.1093,-4.515 37.1762,-7.847 12.082,-3.336 24.691,-7.633 35.949,-12.332" /><path
         id="path46"
         style="fill:#02709f;fill-opacity:1;fill-rule:nonzero;stroke:none"
         d="M 91.8633,121.836 C 89.1914,112.16 79.168,106.477 69.4805,109.141 c -9.6758,2.675 -15.3711,12.695 -12.6953,22.382 2.6796,9.684 12.6953,15.364 22.3828,12.692 9.6718,-2.672 15.3554,-12.692 12.6953,-22.379 z M 58.3477,151.68 c 2.4414,-0.672 4.3164,-1.688 5.2187,-2.293 0.9063,-0.602 1.1914,-1.407 0.4258,-1.922 -0.8359,-0.547 -2.3399,-1.641 -3.1445,-2.356 -0.9375,-0.832 -1.6211,-1.066 -3.0235,-0.25 -2.4219,1.395 -7.6015,5.121 -8.8906,6.879 -0.6602,0.883 -0.0352,1.223 1.2734,1.293 1.875,0.106 5.4649,-0.617 8.1407,-1.351 z m -12.918,-19.141 c 1.3398,-0.449 4.6094,-2.129 5.5664,-2.82 0.957,-0.696 2.4531,-2.188 2.3125,-4.004 -0.1523,-2.141 -0.0195,-6.535 0.8828,-8.02 1.1914,-1.933 1.0313,-2.754 -0.6641,-2.422 -1.371,0.254 -4.9062,1.524 -5.9218,2.012 -1.0039,0.488 -2.4688,1.367 -2.9297,2.735 -0.957,2.882 -1.1485,8.691 -0.6602,11.543 0.1953,1.23 0.7032,1.21 1.4141,0.976" /><path
         id="path48"
         style="fill:#02709f;fill-opacity:1;fill-rule:nonzero;stroke:none"
         d="m 100.867,139.945 c -2.449,0.68 -4.5857,0.77 -5.66,0.711 -1.0859,-0.058 -1.75,-0.601 -1.3515,-1.426 0.4414,-0.91 1.164,-2.613 1.4961,-3.644 0.3789,-1.191 0.8281,-1.746 2.4726,-1.777 2.7808,-0.039 9.1408,0.507 11.1528,1.355 1.011,0.422 0.64,1.039 -0.43,1.766 -1.555,1.043 -5.024,2.281 -7.68,3.015 z m 1.274,-23.05 c -1.387,0.312 -5.0512,0.527 -6.2308,0.429 -1.1758,-0.105 -3.2266,-0.625 -4.0469,-2.246 -0.9531,-1.922 -3.3203,-5.625 -4.8594,-6.433 -2.0156,-1.047 -2.3047,-1.836 -0.6641,-2.434 1.2891,-0.469 4.9805,-1.199 6.0899,-1.289 1.1367,-0.098 2.8359,-0.106 3.9258,0.84 2.3047,1.972 5.4535,6.875 6.4965,9.551 0.461,1.164 0.031,1.406 -0.711,1.582" /><path
         id="path50"
         style="fill:#02709f;fill-opacity:1;fill-rule:nonzero;stroke:none"
         d="m 99.1094,221.84 5.9956,21.719" /><path
         id="path52"
         style="fill:#02709f;fill-opacity:1;fill-rule:nonzero;stroke:none"
         d="m 101.105,221.293 5.997,21.719" /><path
         id="path54"
         style="fill:#02709f;fill-opacity:1;fill-rule:nonzero;stroke:none"
         d="m 143.145,158.242 c 2.335,8.477 12.121,50.832 12.531,56.719 0.429,5.883 -1.75,13.285 -4.895,14.781 0.164,2.113 0.215,3.285 0.215,3.285 -0.769,0.317 -1.555,0.621 -2.324,0.93 l 0.242,-0.086 c 0,0 2.258,9.445 3.559,16.008 2.468,12.582 2.722,18.926 2.722,18.926 -0.05,1.726 -0.5,3.25 -2.09,3.691 l -7.316,2.02 c -1.601,0.441 -2.676,-0.555 -3.687,-2.094 0,0 -2.832,-5.863 -6.875,-17.793 -2.153,-6.324 -4.204,-14.266 -4.204,-14.266 l 0.098,-0.047 c -4.363,1.426 -8.785,2.77 -13.277,4.004 -11.406,3.153 -22.8323,5.575 -34.2424,7.305 0,0 -0.5664,-1.027 -1.5118,-2.93 -3.457,0.332 -9.1289,-4.902 -11.789,-10.175 C 67.6563,233.254 54.3164,191.879 51.9727,183.402 49.6406,174.922 45.1289,153.359 43.125,142.633 41.1211,131.895 39.3281,113.184 32.4297,88.2031 28.3594,73.4766 21.7852,51.5234 18.3398,42.3945 17.4414,40 10.2344,27.8242 20.6953,23.6914 30.9844,19.6211 46.2969,15.2266 54.0313,13.0859 61.7695,10.957 77.1563,6.875 88.0859,5.08984 99.1797,3.28125 99.2461,17.4219 99.6992,19.9414 c 1.7388,9.6094 7.3398,31.8164 11.4058,46.543 6.891,24.9922 14.942,41.9726 18.731,52.2186 3.785,10.235 10.977,31.059 13.309,39.539" /><path
         id="path56"
         style="fill:#02709f;fill-opacity:1;fill-rule:nonzero;stroke:none"
         d="m 143.762,268.57 c 0,0 -3.403,0.996 -6.321,1.801 -2.605,0.723 -6.179,1.645 -6.179,1.645" /><path
         id="path58"
         style="fill:none;stroke:#ffffff;stroke-width:4;stroke-linecap:butt;stroke-linejoin:miter;stroke-miterlimit:4;stroke-dasharray:none;stroke-opacity:1"
         d="m 143.762,268.57 c 0,0 -3.403,0.996 -6.321,1.801 -2.605,0.723 -6.179,1.645 -6.179,1.645" /><path
         id="path60"
         style="fill:#02709f;fill-opacity:1;fill-rule:nonzero;stroke:none"
         d="m 131.777,157.105 c 2.332,8.473 12.11,50.829 12.532,56.719 0.425,5.883 -1.758,13.285 -4.895,14.774 0.164,2.121 0.203,3.293 0.203,3.293 -0.769,0.312 -1.543,0.613 -2.312,0.922 l 0.234,-0.079 c 0,0 2.258,9.434 3.555,16 2.469,12.59 2.722,18.934 2.722,18.934 -0.039,1.727 -0.488,3.242 -2.086,3.684 l -7.304,2.019 c -1.606,0.438 -2.68,-0.555 -3.696,-2.09 0,0 -2.832,-5.859 -6.875,-17.789 -2.144,-6.328 -4.207,-14.277 -4.207,-14.277 l 0.11,-0.035 c -4.367,1.425 -8.789,2.765 -13.281,4 -11.4067,3.148 -22.8325,5.574 -34.2426,7.308 0,0 -0.5664,-1.035 -1.5117,-2.929 -3.4571,0.328 -9.1289,-4.907 -11.7891,-10.18 -2.6523,-5.27 -15.9922,-46.641 -18.3281,-55.117 -2.3321,-8.481 -6.8438,-30.039 -8.8477,-40.774 -2,-10.726 -3.7969,-29.437 -10.7031,-54.4372 C 16.9922,72.3242 10.4102,50.3906 6.97266,41.25 6.0625,38.8594 -1.13281,26.6797 9.32422,22.5391 19.6289,18.4766 34.9297,14.082 42.6641,11.9531 50.4023,9.81641 65.7813,5.74219 76.7188,3.94531 87.8125,2.12891 87.8828,16.2813 88.332,18.8008 c 1.7383,9.5976 7.3399,31.8242 11.4024,46.543 6.8986,24.9882 14.9456,41.9802 18.7346,52.2152 3.789,10.234 10.965,31.062 13.308,39.546" /><path
         id="path62"
         style="fill:none;stroke:#ffffff;stroke-width:4;stroke-linecap:butt;stroke-linejoin:miter;stroke-miterlimit:4;stroke-dasharray:none;stroke-opacity:1"
         d="m 131.777,157.105 c 2.332,8.473 12.11,50.829 12.532,56.719 0.425,5.883 -1.758,13.285 -4.895,14.774 0.164,2.121 0.203,3.293 0.203,3.293 -0.769,0.312 -1.543,0.613 -2.312,0.922 l 0.234,-0.079 c 0,0 2.258,9.434 3.555,16 2.469,12.59 2.722,18.934 2.722,18.934 -0.039,1.727 -0.488,3.242 -2.086,3.684 l -7.304,2.019 c -1.606,0.438 -2.68,-0.555 -3.696,-2.09 0,0 -2.832,-5.859 -6.875,-17.789 -2.144,-6.328 -4.207,-14.277 -4.207,-14.277 l 0.11,-0.035 c -4.367,1.425 -8.789,2.765 -13.281,4 -11.4067,3.148 -22.8325,5.574 -34.2426,7.308 0,0 -0.5664,-1.035 -1.5117,-2.929 -3.4571,0.328 -9.1289,-4.907 -11.7891,-10.18 -2.6523,-5.27 -15.9922,-46.641 -18.3281,-55.117 -2.3321,-8.481 -6.8438,-30.039 -8.8477,-40.774 -2,-10.726 -3.7969,-29.437 -10.7031,-54.4372 C 16.9922,72.3242 10.4102,50.3906 6.97266,41.25 6.0625,38.8594 -1.13281,26.6797 9.32422,22.5391 19.6289,18.4766 34.9297,14.082 42.6641,11.9531 50.4023,9.81641 65.7813,5.74219 76.7188,3.94531 87.8125,2.12891 87.8828,16.2813 88.332,18.8008 c 1.7383,9.5976 7.3399,31.8242 11.4024,46.543 6.8986,24.9882 14.9456,41.9802 18.7346,52.2152 3.789,10.234 10.965,31.062 13.308,39.546 z" /><path
         id="path64"
         style="fill:#02709f;fill-opacity:1;fill-rule:nonzero;stroke:none"
         d="m 51.8281,97.7266 c -1.1914,-4.3477 -5.707,-6.8868 -10.0429,-5.6953 -4.3438,1.2031 -6.8907,5.6953 -5.6993,10.0387 1.2071,4.356 5.6993,6.895 10.0352,5.703 4.3555,-1.199 6.9062,-5.703 5.707,-10.0464" /><path
         id="path66"
         style="fill:none;stroke:#ffffff;stroke-width:4;stroke-linecap:butt;stroke-linejoin:miter;stroke-miterlimit:4;stroke-dasharray:none;stroke-opacity:1"
         d="m 51.8281,97.7266 c -1.1914,-4.3477 -5.707,-6.8868 -10.0429,-5.6953 -4.3438,1.2031 -6.8907,5.6953 -5.6993,10.0387 1.2071,4.356 5.6993,6.895 10.0352,5.703 4.3555,-1.199 6.9062,-5.703 5.707,-10.0464 z" /><path
         id="path68"
         style="fill:#02709f;fill-opacity:1;fill-rule:nonzero;stroke:none"
         d="m 72.3945,89.0156 c -1.1914,-4.3476 -5.6836,-6.8867 -10.0429,-5.6953 -4.3321,1.1914 -6.8828,5.6953 -5.6836,10.0391 1.1914,4.3359 5.6836,6.8946 10.0312,5.6953 4.3438,-1.2031 6.9024,-5.6953 5.6953,-10.0391" /><path
         id="path70"
         style="fill:none;stroke:#ffffff;stroke-width:4;stroke-linecap:butt;stroke-linejoin:miter;stroke-miterlimit:4;stroke-dasharray:none;stroke-opacity:1"
         d="m 72.3945,89.0156 c -1.1914,-4.3476 -5.6836,-6.8867 -10.0429,-5.6953 -4.3321,1.1914 -6.8828,5.6953 -5.6836,10.0391 1.1914,4.3359 5.6836,6.8946 10.0312,5.6953 4.3438,-1.2031 6.9024,-5.6953 5.6953,-10.0391 z" /><path
         id="path72"
         style="fill:#02709f;fill-opacity:1;fill-rule:nonzero;stroke:none"
         d="m 94.582,85.918 c -1.1914,-4.336 -5.6836,-6.8828 -10.0429,-5.6836 -4.3321,1.2031 -6.8907,5.6836 -5.6914,10.039 1.1992,4.3477 5.6914,6.8946 10.039,5.6954 4.3438,-1.2032 6.9024,-5.6954 5.6953,-10.0508" /><path
         id="path74"
         style="fill:none;stroke:#ffffff;stroke-width:4;stroke-linecap:butt;stroke-linejoin:miter;stroke-miterlimit:4;stroke-dasharray:none;stroke-opacity:1"
         d="m 94.582,85.918 c -1.1914,-4.336 -5.6836,-6.8828 -10.0429,-5.6836 -4.3321,1.2031 -6.8907,5.6836 -5.6914,10.039 1.1992,4.3477 5.6914,6.8946 10.039,5.6954 4.3438,-1.2032 6.9024,-5.6954 5.6953,-10.0508 z" /><path
         id="path76"
         style="fill:#02709f;fill-opacity:1;fill-rule:nonzero;stroke:none"
         d="m 46.8867,79.7969 c -1.2148,-4.3477 -5.707,-6.8946 -10.0508,-5.6953 -4.3476,1.1914 -6.8828,5.6953 -5.6914,10.039 1.1914,4.336 5.6914,6.8946 10.0352,5.6914 4.3398,-1.1992 6.8984,-5.6914 5.707,-10.0351" /><path
         id="path78"
         style="fill:none;stroke:#ffffff;stroke-width:4;stroke-linecap:butt;stroke-linejoin:miter;stroke-miterlimit:4;stroke-dasharray:none;stroke-opacity:1"
         d="m 46.8867,79.7969 c -1.2148,-4.3477 -5.707,-6.8946 -10.0508,-5.6953 -4.3476,1.1914 -6.8828,5.6953 -5.6914,10.039 1.1914,4.336 5.6914,6.8946 10.0352,5.6914 4.3398,-1.1992 6.8984,-5.6914 5.707,-10.0351 z" /><path
         id="path80"
         style="fill:#02709f;fill-opacity:1;fill-rule:nonzero;stroke:none"
         d="m 67.4531,71.0742 c -1.1914,-4.3359 -5.707,-6.8828 -10.0429,-5.6836 -4.3438,1.1914 -6.8907,5.6836 -5.6993,10.0313 1.2071,4.3437 5.6993,6.9023 10.0352,5.6914 4.3555,-1.1914 6.8984,-5.6836 5.707,-10.0391" /><path
         id="path82"
         style="fill:none;stroke:#ffffff;stroke-width:4;stroke-linecap:butt;stroke-linejoin:miter;stroke-miterlimit:4;stroke-dasharray:none;stroke-opacity:1"
         d="m 67.4531,71.0742 c -1.1914,-4.3359 -5.707,-6.8828 -10.0429,-5.6836 -4.3438,1.1914 -6.8907,5.6836 -5.6993,10.0313 1.2071,4.3437 5.6993,6.9023 10.0352,5.6914 4.3555,-1.1914 6.8984,-5.6836 5.707,-10.0391 z" /><path
         id="path84"
         style="fill:#02709f;fill-opacity:1;fill-rule:nonzero;stroke:none"
         d="m 89.6406,67.9961 c -1.2031,-4.3438 -5.707,-6.9023 -10.0429,-5.6992 -4.3438,1.1992 -6.8907,5.6992 -5.6993,10.0469 1.2071,4.3359 5.6993,6.8945 10.0352,5.6835 4.3555,-1.1914 6.8984,-5.6835 5.707,-10.0312" /><path
         id="path86"
         style="fill:none;stroke:#ffffff;stroke-width:4;stroke-linecap:butt;stroke-linejoin:miter;stroke-miterlimit:4;stroke-dasharray:none;stroke-opacity:1"
         d="m 89.6406,67.9961 c -1.2031,-4.3438 -5.707,-6.9023 -10.0429,-5.6992 -4.3438,1.1992 -6.8907,5.6992 -5.6993,10.0469 1.2071,4.3359 5.6993,6.8945 10.0352,5.6835 4.3555,-1.1914 6.8984,-5.6835 5.707,-10.0312 z" /><path
         id="path88"
         style="fill:#02709f;fill-opacity:1;fill-rule:nonzero;stroke:none"
         d="m 41.9219,61.8555 c -1.1914,-4.336 -5.6836,-6.8828 -10.0352,-5.6836 -4.3398,1.1914 -6.8984,5.6836 -5.6836,10.0312 1.1914,4.3438 5.6836,6.9024 10.0274,5.7032 4.3476,-1.2032 6.8945,-5.6954 5.6914,-10.0508" /><path
         id="path90"
         style="fill:none;stroke:#ffffff;stroke-width:4;stroke-linecap:butt;stroke-linejoin:miter;stroke-miterlimit:4;stroke-dasharray:none;stroke-opacity:1"
         d="m 41.9219,61.8555 c -1.1914,-4.336 -5.6836,-6.8828 -10.0352,-5.6836 -4.3398,1.1914 -6.8984,5.6836 -5.6836,10.0312 1.1914,4.3438 5.6836,6.9024 10.0274,5.7032 4.3476,-1.2032 6.8945,-5.6954 5.6914,-10.0508 z" /><path
         id="path92"
         style="fill:#02709f;fill-opacity:1;fill-rule:nonzero;stroke:none"
         d="M 62.5,53.1445 C 61.2969,48.8086 56.8047,46.25 52.4609,47.4531 c -4.3476,1.1992 -6.8828,5.6914 -5.6914,10.0391 1.1914,4.3437 5.6914,6.8828 10.0352,5.6914 4.3398,-1.1914 6.8984,-5.6914 5.6953,-10.0391" /><path
         id="path94"
         style="fill:none;stroke:#ffffff;stroke-width:4;stroke-linecap:butt;stroke-linejoin:miter;stroke-miterlimit:4;stroke-dasharray:none;stroke-opacity:1"
         d="M 62.5,53.1445 C 61.2969,48.8086 56.8047,46.25 52.4609,47.4531 c -4.3476,1.1992 -6.8828,5.6914 -5.6914,10.0391 1.1914,4.3437 5.6914,6.8828 10.0352,5.6914 4.3398,-1.1914 6.8984,-5.6914 5.6953,-10.0391 z" /><path
         id="path96"
         style="fill:#02709f;fill-opacity:1;fill-rule:nonzero;stroke:none"
         d="m 84.6875,50.0586 c -1.2031,-4.3359 -5.6953,-6.8945 -10.0391,-5.6836 -4.3476,1.1914 -6.8945,5.6836 -5.6914,10.0391 1.1914,4.3359 5.6914,6.8945 10.0352,5.6836 4.3398,-1.1914 6.8984,-5.6836 5.6953,-10.0391" /><path
         id="path98"
         style="fill:none;stroke:#ffffff;stroke-width:4;stroke-linecap:butt;stroke-linejoin:miter;stroke-miterlimit:4;stroke-dasharray:none;stroke-opacity:1"
         d="m 84.6875,50.0586 c -1.2031,-4.3359 -5.6953,-6.8945 -10.0391,-5.6836 -4.3476,1.1914 -6.8945,5.6836 -5.6914,10.0391 1.1914,4.3359 5.6914,6.8945 10.0352,5.6836 4.3398,-1.1914 6.8984,-5.6836 5.6953,-10.0391 z" /><path
         id="path100"
         style="fill:#02709f;fill-opacity:1;fill-rule:nonzero;stroke:none"
         d="m 36.9805,43.9375 c -1.2071,-4.3477 -5.6992,-6.9062 -10.0352,-5.7031 -4.3555,1.1992 -6.8984,5.6914 -5.707,10.039 1.2148,4.3438 5.707,6.9024 10.043,5.6914 4.3437,-1.1914 6.8906,-5.6835 5.6992,-10.0273 z m 20.5664,-8.7227 c -1.1914,-4.3437 -5.6914,-6.8945 -10.0352,-5.7031 -4.3398,1.211 -6.8984,5.7031 -5.6953,10.0391 1.2031,4.3555 5.6953,6.8945 10.0391,5.7031 4.3476,-1.1992 6.8945,-5.7031 5.6914,-10.0391" /><path
         id="path102"
         style="fill:none;stroke:#ffffff;stroke-width:4;stroke-linecap:butt;stroke-linejoin:miter;stroke-miterlimit:4;stroke-dasharray:none;stroke-opacity:1"
         d="m 36.9805,43.9375 c -1.2071,-4.3477 -5.6992,-6.9062 -10.0352,-5.7031 -4.3555,1.1992 -6.8984,5.6914 -5.707,10.039 1.2148,4.3438 5.707,6.9024 10.043,5.6914 4.3437,-1.1914 6.8906,-5.6835 5.6992,-10.0273 z m 20.5664,-8.7227 c -1.1914,-4.3437 -5.6914,-6.8945 -10.0352,-5.7031 -4.3398,1.211 -6.8984,5.7031 -5.6953,10.0391 1.2031,4.3555 5.6953,6.8945 10.0391,5.7031 4.3476,-1.1992 6.8945,-5.7031 5.6914,-10.0391 z" /><path
         id="path104"
         style="fill:#02709f;fill-opacity:1;fill-rule:nonzero;stroke:none"
         d="M 79.7344,32.1289 C 78.543,27.7852 74.043,25.2344 69.6992,26.4375 c -4.3398,1.1992 -6.8984,5.6914 -5.6953,10.0391 1.2031,4.3437 5.6953,6.8828 10.0391,5.6914 4.3476,-1.1992 6.8828,-5.6836 5.6914,-10.0391" /><path
         id="path106"
         style="fill:none;stroke:#ffffff;stroke-width:4;stroke-linecap:butt;stroke-linejoin:miter;stroke-miterlimit:4;stroke-dasharray:none;stroke-opacity:1"
         d="M 79.7344,32.1289 C 78.543,27.7852 74.043,25.2344 69.6992,26.4375 c -4.3398,1.1992 -6.8984,5.6914 -5.6953,10.0391 1.2031,4.3437 5.6953,6.8828 10.0391,5.6914 4.3476,-1.1992 6.8828,-5.6836 5.6914,-10.0391 z" /><path
         id="path108"
         style="fill:#02709f;fill-opacity:1;fill-rule:nonzero;stroke:none"
         d="m 47.207,23.0977 c -0.1093,-0.4024 -0.8086,-0.5664 -1.5703,-0.3633 -0.7539,0.2148 -1.2734,0.7148 -1.1719,1.1133 0.1172,0.4101 0.8282,0.5664 1.5782,0.3515 0.7617,-0.1953 1.2734,-0.7031 1.164,-1.1015 z m -2.7422,0.75 -2.5703,-9.336 M 44.9102,23.0781 42.5,14.3477 m 4.707,8.75 -2.5781,-9.3477 m 1.8047,8.9063 -2.4023,-8.7305 M 62.9414,158.238 61.1602,151.77 m 2.5,6.269 -1.8164,-6.562 m 38.4372,-3.547 -1.7849,-6.469 m 1.0625,6.664 -1.8164,-6.559" /><path
         id="path110"
         style="fill:none;stroke:#ffffff;stroke-width:4;stroke-linecap:butt;stroke-linejoin:miter;stroke-miterlimit:4;stroke-dasharray:none;stroke-opacity:1"
         d="m 47.207,23.0977 c -0.1093,-0.4024 -0.8086,-0.5664 -1.5703,-0.3633 -0.7539,0.2148 -1.2734,0.7148 -1.1719,1.1133 0.1172,0.4101 0.8282,0.5664 1.5782,0.3515 0.7617,-0.1953 1.2734,-0.7031 1.164,-1.1015 z m -2.7422,0.75 -2.5703,-9.336 M 44.9102,23.0781 42.5,14.3477 m 4.707,8.75 -2.5781,-9.3477 m 1.8047,8.9063 -2.4023,-8.7305 M 62.9414,158.238 61.1602,151.77 m 2.5,6.269 -1.8164,-6.562 m 38.4372,-3.547 -1.7849,-6.469 m 1.0625,6.664 -1.8164,-6.559" /><path
         id="path112"
         style="fill:#02709f;fill-opacity:1;fill-rule:nonzero;stroke:none"
         d="m 137.539,232.734 c 0,0 2.266,9.434 3.555,16 2.469,12.59 2.722,18.934 2.722,18.934 -0.039,1.727 -0.488,3.242 -2.086,3.684 l -7.304,2.019 c -1.606,0.438 -2.68,-0.555 -3.696,-2.09 0,0 -2.832,-5.859 -6.875,-17.789 -2.144,-6.328 -4.207,-14.277 -4.207,-14.277 m -2.863,-92.735 c -0.445,-1.597 -2.09,-2.523 -3.687,-2.085 L 50.1289,161.77 c -1.6016,0.441 -2.5391,2.089 -2.0937,3.683 l 10.9804,39.817 c 0.4492,1.597 2.086,2.523 3.6914,2.085 l 62.969,-17.378 c 1.597,-0.446 2.539,-2.086 2.09,-3.684 L 116.785,146.48 Z m 21.613,89.668 c -5.847,2.274 -11.816,4.379 -17.878,6.293 m -46.8481,7.825 c 0,0 -15.0117,-30.637 -23.5821,-61.715 -10.2187,-36.996 -11.6992,-49.317 -10.1601,-66.5 0.3125,-3.555 3.832,-7.879 7.7656,-8.965 1.5508,-0.43 3.3594,-0.918 4.1094,-1.133 0.7656,-0.215 3.6562,-0.918 6.0664,-2.793 2.4102,-1.875 2.9961,-2.363 4.4219,-3.133 1.4258,-0.781 1.6211,-1.281 5.6679,-2.394 4.043,-1.121 4.4805,-0.801 6.0899,-0.86 1.6211,-0.058 2.3828,0.059 5.4219,0.43 3.0273,0.371 5.8711,-0.508 6.6289,-0.711 0.7539,-0.207 2.5586,-0.715 4.1132,-1.144 3.9375,-1.082 9.1719,0.84 11.2692,3.722 10.125,13.953 15.164,25.301 25.379,62.293 8.575,31.071 11.407,65.075 11.407,65.075 m -73.4262,2.46 c 12.0781,-1.738 25.1093,-4.515 37.1762,-7.847 12.082,-3.336 24.691,-7.633 35.949,-12.332" /><path
         id="path114"
         style="fill:#02709f;fill-opacity:1;fill-rule:nonzero;stroke:none"
         d="M 91.8633,121.836 C 89.1914,112.16 79.168,106.477 69.4805,109.141 c -9.6758,2.675 -15.3711,12.695 -12.6953,22.382 2.6796,9.684 12.6953,15.364 22.3828,12.692 9.6718,-2.672 15.3554,-12.692 12.6953,-22.379 z M 58.3477,151.68 c 2.4414,-0.672 4.3164,-1.688 5.2187,-2.293 0.9063,-0.602 1.1914,-1.407 0.4258,-1.922 -0.8359,-0.547 -2.3399,-1.641 -3.1445,-2.356 -0.9375,-0.832 -1.6211,-1.066 -3.0235,-0.25 -2.4219,1.395 -7.6015,5.121 -8.8906,6.879 -0.6602,0.883 -0.0352,1.223 1.2734,1.293 1.875,0.106 5.4649,-0.617 8.1407,-1.351 z m -12.918,-19.141 c 1.3398,-0.449 4.6094,-2.129 5.5664,-2.82 0.957,-0.696 2.4531,-2.188 2.3125,-4.004 -0.1523,-2.141 -0.0195,-6.535 0.8828,-8.02 1.1914,-1.933 1.0313,-2.754 -0.6641,-2.422 -1.371,0.254 -4.9062,1.524 -5.9218,2.012 -1.0039,0.488 -2.4688,1.367 -2.9297,2.735 -0.957,2.882 -1.1485,8.691 -0.6602,11.543 0.1953,1.23 0.7032,1.21 1.4141,0.976" /><path
         id="path116"
         style="fill:none;stroke:#ffffff;stroke-width:4;stroke-linecap:butt;stroke-linejoin:miter;stroke-miterlimit:4;stroke-dasharray:none;stroke-opacity:1"
         d="M 91.8633,121.836 C 89.1914,112.16 79.168,106.477 69.4805,109.141 c -9.6758,2.675 -15.3711,12.695 -12.6953,22.382 2.6796,9.684 12.6953,15.364 22.3828,12.692 9.6718,-2.672 15.3554,-12.692 12.6953,-22.379 z M 58.3477,151.68 c 2.4414,-0.672 4.3164,-1.688 5.2187,-2.293 0.9063,-0.602 1.1914,-1.407 0.4258,-1.922 -0.8359,-0.547 -2.3399,-1.641 -3.1445,-2.356 -0.9375,-0.832 -1.6211,-1.066 -3.0235,-0.25 -2.4219,1.395 -7.6015,5.121 -8.8906,6.879 -0.6602,0.883 -0.0352,1.223 1.2734,1.293 1.875,0.106 5.4649,-0.617 8.1407,-1.351 z m -12.918,-19.141 c 1.3398,-0.449 4.6094,-2.129 5.5664,-2.82 0.957,-0.696 2.4531,-2.188 2.3125,-4.004 -0.1523,-2.141 -0.0195,-6.535 0.8828,-8.02 1.1914,-1.933 1.0313,-2.754 -0.6641,-2.422 -1.371,0.254 -4.9062,1.524 -5.9218,2.012 -1.0039,0.488 -2.4688,1.367 -2.9297,2.735 -0.957,2.882 -1.1485,8.691 -0.6602,11.543 0.1953,1.23 0.7032,1.21 1.4141,0.976 z" /><path
         id="path118"
         style="fill:#02709f;fill-opacity:1;fill-rule:nonzero;stroke:none"
         d="m 100.867,139.945 c -2.449,0.68 -4.5857,0.77 -5.66,0.711 -1.0859,-0.058 -1.75,-0.601 -1.3515,-1.426 0.4414,-0.91 1.164,-2.613 1.4961,-3.644 0.3789,-1.191 0.8281,-1.746 2.4726,-1.777 2.7808,-0.039 9.1408,0.507 11.1528,1.355 1.011,0.422 0.64,1.039 -0.43,1.766 -1.555,1.043 -5.024,2.281 -7.68,3.015 z m 1.274,-23.05 c -1.387,0.312 -5.0512,0.527 -6.2308,0.429 -1.1758,-0.105 -3.2266,-0.625 -4.0469,-2.246 -0.9531,-1.922 -3.3203,-5.625 -4.8594,-6.433 -2.0156,-1.047 -2.3047,-1.836 -0.6641,-2.434 1.2891,-0.469 4.9805,-1.199 6.0899,-1.289 1.1367,-0.098 2.8359,-0.106 3.9258,0.84 2.3047,1.972 5.4535,6.875 6.4965,9.551 0.461,1.164 0.031,1.406 -0.711,1.582" /><path
         id="path120"
         style="fill:none;stroke:#ffffff;stroke-width:4;stroke-linecap:butt;stroke-linejoin:miter;stroke-miterlimit:4;stroke-dasharray:none;stroke-opacity:1"
         d="m 100.867,139.945 c -2.449,0.68 -4.5857,0.77 -5.66,0.711 -1.0859,-0.058 -1.75,-0.601 -1.3515,-1.426 0.4414,-0.91 1.164,-2.613 1.4961,-3.644 0.3789,-1.191 0.8281,-1.746 2.4726,-1.777 2.7808,-0.039 9.1408,0.507 11.1528,1.355 1.011,0.422 0.64,1.039 -0.43,1.766 -1.555,1.043 -5.024,2.281 -7.68,3.015 z m 1.274,-23.05 c -1.387,0.312 -5.0512,0.527 -6.2308,0.429 -1.1758,-0.105 -3.2266,-0.625 -4.0469,-2.246 -0.9531,-1.922 -3.3203,-5.625 -4.8594,-6.433 -2.0156,-1.047 -2.3047,-1.836 -0.6641,-2.434 1.2891,-0.469 4.9805,-1.199 6.0899,-1.289 1.1367,-0.098 2.8359,-0.106 3.9258,0.84 2.3047,1.972 5.4535,6.875 6.4965,9.551 0.461,1.164 0.031,1.406 -0.711,1.582 z" /><path
         id="path122"
         style="fill:#02709f;fill-opacity:1;fill-rule:nonzero;stroke:none"
         d="m 99.1094,221.84 5.9956,21.719" /><path
         id="path124"
         style="fill:none;stroke:#ffffff;stroke-width:4;stroke-linecap:butt;stroke-linejoin:miter;stroke-miterlimit:4;stroke-dasharray:none;stroke-opacity:1"
         d="m 99.1094,221.84 5.9956,21.719" /><path
         id="path126"
         style="fill:#02709f;fill-opacity:1;fill-rule:nonzero;stroke:none"
         d="m 101.105,221.293 5.997,21.719" /><path
         id="path128"
         style="fill:none;stroke:#ffffff;stroke-width:4;stroke-linecap:butt;stroke-linejoin:miter;stroke-miterlimit:4;stroke-dasharray:none;stroke-opacity:1"
         d="m 101.105,221.293 5.997,21.719" /><path
         id="path130"
         style="fill:none;stroke:#ffffff;stroke-width:4;stroke-linecap:butt;stroke-linejoin:miter;stroke-miterlimit:4;stroke-dasharray:none;stroke-opacity:1"
         d="m 143.145,158.242 c 2.335,8.477 12.121,50.832 12.531,56.719 0.429,5.883 -1.75,13.285 -4.895,14.781 0.164,2.113 0.215,3.285 0.215,3.285 -0.769,0.317 -1.555,0.621 -2.324,0.93 l 0.242,-0.086 c 0,0 2.258,9.445 3.559,16.008 2.468,12.582 2.722,18.926 2.722,18.926 -0.05,1.726 -0.5,3.25 -2.09,3.691 l -7.316,2.02 c -1.601,0.441 -2.676,-0.555 -3.687,-2.094 0,0 -2.832,-5.863 -6.875,-17.793 -2.153,-6.324 -4.204,-14.266 -4.204,-14.266 l 0.098,-0.047 c -4.363,1.426 -8.785,2.77 -13.277,4.004 -11.406,3.153 -22.8323,5.575 -34.2424,7.305 0,0 -0.5664,-1.027 -1.5118,-2.93 -3.457,0.332 -9.1289,-4.902 -11.789,-10.175 C 67.6563,233.254 54.3164,191.879 51.9727,183.402 49.6406,174.922 45.1289,153.359 43.125,142.633 41.1211,131.895 39.3281,113.184 32.4297,88.2031 28.3594,73.4766 21.7852,51.5234 18.3398,42.3945 17.4414,40 10.2344,27.8242 20.6953,23.6914 30.9844,19.6211 46.2969,15.2266 54.0313,13.0859 61.7695,10.957 77.1563,6.875 88.0859,5.08984 99.1797,3.28125 99.2461,17.4219 99.6992,19.9414 c 1.7388,9.6094 7.3398,31.8164 11.4058,46.543 6.891,24.9922 14.942,41.9726 18.731,52.2186 3.785,10.235 10.977,31.059 13.309,39.539 z" /><path
         id="path132"
         style="fill:none;stroke:#ffffff;stroke-width:4;stroke-linecap:butt;stroke-linejoin:miter;stroke-miterlimit:4;stroke-dasharray:none;stroke-opacity:1"
         d="m 143.762,268.57 c 0,0 -3.403,0.996 -6.321,1.801 -2.605,0.723 -6.179,1.645 -6.179,1.645" /><path
         id="path134"
         style="fill:none;stroke:#ffffff;stroke-width:4;stroke-linecap:butt;stroke-linejoin:miter;stroke-miterlimit:4;stroke-dasharray:none;stroke-opacity:1"
         d="m 131.777,157.105 c 2.332,8.473 12.11,50.829 12.532,56.719 0.425,5.883 -1.758,13.285 -4.895,14.774 0.164,2.121 0.203,3.293 0.203,3.293 -0.769,0.312 -1.543,0.613 -2.312,0.922 l 0.234,-0.079 c 0,0 2.258,9.434 3.555,16 2.469,12.59 2.722,18.934 2.722,18.934 -0.039,1.727 -0.488,3.242 -2.086,3.684 l -7.304,2.019 c -1.606,0.438 -2.68,-0.555 -3.696,-2.09 0,0 -2.832,-5.859 -6.875,-17.789 -2.144,-6.328 -4.207,-14.277 -4.207,-14.277 l 0.11,-0.035 c -4.367,1.425 -8.789,2.765 -13.281,4 -11.4067,3.148 -22.8325,5.574 -34.2426,7.308 0,0 -0.5664,-1.035 -1.5117,-2.929 -3.4571,0.328 -9.1289,-4.907 -11.7891,-10.18 -2.6523,-5.27 -15.9922,-46.641 -18.3281,-55.117 -2.3321,-8.481 -6.8438,-30.039 -8.8477,-40.774 -2,-10.726 -3.7969,-29.437 -10.7031,-54.4372 C 16.9922,72.3242 10.4102,50.3906 6.97266,41.25 6.0625,38.8594 -1.13281,26.6797 9.32422,22.5391 19.6289,18.4766 34.9297,14.082 42.6641,11.9531 50.4023,9.81641 65.7813,5.74219 76.7188,3.94531 87.8125,2.12891 87.8828,16.2813 88.332,18.8008 c 1.7383,9.5976 7.3399,31.8242 11.4024,46.543 6.8986,24.9882 14.9456,41.9802 18.7346,52.2152 3.789,10.234 10.965,31.062 13.308,39.546 z" /><path
         id="path136"
         style="fill:none;stroke:#ffffff;stroke-width:4;stroke-linecap:butt;stroke-linejoin:miter;stroke-miterlimit:4;stroke-dasharray:none;stroke-opacity:1"
         d="m 51.8281,97.7266 c -1.1914,-4.3477 -5.707,-6.8868 -10.0429,-5.6953 -4.3438,1.2031 -6.8907,5.6953 -5.6993,10.0387 1.2071,4.356 5.6993,6.895 10.0352,5.703 4.3555,-1.199 6.9062,-5.703 5.707,-10.0464 z" /><path
         id="path138"
         style="fill:none;stroke:#ffffff;stroke-width:4;stroke-linecap:butt;stroke-linejoin:miter;stroke-miterlimit:4;stroke-dasharray:none;stroke-opacity:1"
         d="m 72.3945,89.0156 c -1.1914,-4.3476 -5.6836,-6.8867 -10.0429,-5.6953 -4.3321,1.1914 -6.8828,5.6953 -5.6836,10.0391 1.1914,4.3359 5.6836,6.8946 10.0312,5.6953 4.3438,-1.2031 6.9024,-5.6953 5.6953,-10.0391 z" /><path
         id="path140"
         style="fill:none;stroke:#ffffff;stroke-width:4;stroke-linecap:butt;stroke-linejoin:miter;stroke-miterlimit:4;stroke-dasharray:none;stroke-opacity:1"
         d="m 94.582,85.918 c -1.1914,-4.336 -5.6836,-6.8828 -10.0429,-5.6836 -4.3321,1.2031 -6.8907,5.6836 -5.6914,10.039 1.1992,4.3477 5.6914,6.8946 10.039,5.6954 4.3438,-1.2032 6.9024,-5.6954 5.6953,-10.0508 z" /><path
         id="path142"
         style="fill:none;stroke:#ffffff;stroke-width:4;stroke-linecap:butt;stroke-linejoin:miter;stroke-miterlimit:4;stroke-dasharray:none;stroke-opacity:1"
         d="m 46.8867,79.7969 c -1.2148,-4.3477 -5.707,-6.8946 -10.0508,-5.6953 -4.3476,1.1914 -6.8828,5.6953 -5.6914,10.039 1.1914,4.336 5.6914,6.8946 10.0352,5.6914 4.3398,-1.1992 6.8984,-5.6914 5.707,-10.0351 z" /><path
         id="path144"
         style="fill:none;stroke:#ffffff;stroke-width:4;stroke-linecap:butt;stroke-linejoin:miter;stroke-miterlimit:4;stroke-dasharray:none;stroke-opacity:1"
         d="m 67.4531,71.0742 c -1.1914,-4.3359 -5.707,-6.8828 -10.0429,-5.6836 -4.3438,1.1914 -6.8907,5.6836 -5.6993,10.0313 1.2071,4.3437 5.6993,6.9023 10.0352,5.6914 4.3555,-1.1914 6.8984,-5.6836 5.707,-10.0391 z" /><path
         id="path146"
         style="fill:none;stroke:#ffffff;stroke-width:4;stroke-linecap:butt;stroke-linejoin:miter;stroke-miterlimit:4;stroke-dasharray:none;stroke-opacity:1"
         d="m 89.6406,67.9961 c -1.2031,-4.3438 -5.707,-6.9023 -10.0429,-5.6992 -4.3438,1.1992 -6.8907,5.6992 -5.6993,10.0469 1.2071,4.3359 5.6993,6.8945 10.0352,5.6835 4.3555,-1.1914 6.8984,-5.6835 5.707,-10.0312 z" /><path
         id="path148"
         style="fill:none;stroke:#ffffff;stroke-width:4;stroke-linecap:butt;stroke-linejoin:miter;stroke-miterlimit:4;stroke-dasharray:none;stroke-opacity:1"
         d="m 41.9219,61.8555 c -1.1914,-4.336 -5.6836,-6.8828 -10.0352,-5.6836 -4.3398,1.1914 -6.8984,5.6836 -5.6836,10.0312 1.1914,4.3438 5.6836,6.9024 10.0274,5.7032 4.3476,-1.2032 6.8945,-5.6954 5.6914,-10.0508 z" /><path
         id="path150"
         style="fill:none;stroke:#ffffff;stroke-width:4;stroke-linecap:butt;stroke-linejoin:miter;stroke-miterlimit:4;stroke-dasharray:none;stroke-opacity:1"
         d="M 62.5,53.1445 C 61.2969,48.8086 56.8047,46.25 52.4609,47.4531 c -4.3476,1.1992 -6.8828,5.6914 -5.6914,10.0391 1.1914,4.3437 5.6914,6.8828 10.0352,5.6914 4.3398,-1.1914 6.8984,-5.6914 5.6953,-10.0391 z" /><path
         id="path152"
         style="fill:none;stroke:#ffffff;stroke-width:4;stroke-linecap:butt;stroke-linejoin:miter;stroke-miterlimit:4;stroke-dasharray:none;stroke-opacity:1"
         d="m 84.6875,50.0586 c -1.2031,-4.3359 -5.6953,-6.8945 -10.0391,-5.6836 -4.3476,1.1914 -6.8945,5.6836 -5.6914,10.0391 1.1914,4.3359 5.6914,6.8945 10.0352,5.6836 4.3398,-1.1914 6.8984,-5.6836 5.6953,-10.0391 z" /><path
         id="path154"
         style="fill:none;stroke:#ffffff;stroke-width:4;stroke-linecap:butt;stroke-linejoin:miter;stroke-miterlimit:4;stroke-dasharray:none;stroke-opacity:1"
         d="m 36.9805,43.9375 c -1.2071,-4.3477 -5.6992,-6.9062 -10.0352,-5.7031 -4.3555,1.1992 -6.8984,5.6914 -5.707,10.039 1.2148,4.3438 5.707,6.9024 10.043,5.6914 4.3437,-1.1914 6.8906,-5.6835 5.6992,-10.0273 z m 20.5664,-8.7227 c -1.1914,-4.3437 -5.6914,-6.8945 -10.0352,-5.7031 -4.3398,1.211 -6.8984,5.7031 -5.6953,10.0391 1.2031,4.3555 5.6953,6.8945 10.0391,5.7031 4.3476,-1.1992 6.8945,-5.7031 5.6914,-10.0391 z" /><path
         id="path156"
         style="fill:none;stroke:#ffffff;stroke-width:4;stroke-linecap:butt;stroke-linejoin:miter;stroke-miterlimit:4;stroke-dasharray:none;stroke-opacity:1"
         d="M 79.7344,32.1289 C 78.543,27.7852 74.043,25.2344 69.6992,26.4375 c -4.3398,1.1992 -6.8984,5.6914 -5.6953,10.0391 1.2031,4.3437 5.6953,6.8828 10.0391,5.6914 4.3476,-1.1992 6.8828,-5.6836 5.6914,-10.0391 z" /><path
         id="path158"
         style="fill:none;stroke:#ffffff;stroke-width:4;stroke-linecap:butt;stroke-linejoin:miter;stroke-miterlimit:4;stroke-dasharray:none;stroke-opacity:1"
         d="m 47.207,23.0977 c -0.1093,-0.4024 -0.8086,-0.5664 -1.5703,-0.3633 -0.7539,0.2148 -1.2734,0.7148 -1.1719,1.1133 0.1172,0.4101 0.8282,0.5664 1.5782,0.3515 0.7617,-0.1953 1.2734,-0.7031 1.164,-1.1015 z m -2.7422,0.75 -2.5703,-9.336 M 44.9102,23.0781 42.5,14.3477 m 4.707,8.75 -2.5781,-9.3477 m 1.8047,8.9063 -2.4023,-8.7305 M 62.9414,158.238 61.1602,151.77 m 2.5,6.269 -1.8164,-6.562 m 38.4372,-3.547 -1.7849,-6.469 m 1.0625,6.664 -1.8164,-6.559" /><path
         id="path160"
         style="fill:none;stroke:#ffffff;stroke-width:4;stroke-linecap:butt;stroke-linejoin:miter;stroke-miterlimit:4;stroke-dasharray:none;stroke-opacity:1"
         d="m 137.539,232.734 c 0,0 2.266,9.434 3.555,16 2.469,12.59 2.722,18.934 2.722,18.934 -0.039,1.727 -0.488,3.242 -2.086,3.684 l -7.304,2.019 c -1.606,0.438 -2.68,-0.555 -3.696,-2.09 0,0 -2.832,-5.859 -6.875,-17.789 -2.144,-6.328 -4.207,-14.277 -4.207,-14.277 m -2.863,-92.735 c -0.445,-1.597 -2.09,-2.523 -3.687,-2.085 L 50.1289,161.77 c -1.6016,0.441 -2.5391,2.089 -2.0937,3.683 l 10.9804,39.817 c 0.4492,1.597 2.086,2.523 3.6914,2.085 l 62.969,-17.378 c 1.597,-0.446 2.539,-2.086 2.09,-3.684 L 116.785,146.48 Z m 21.613,89.668 c -5.847,2.274 -11.816,4.379 -17.878,6.293 m -46.8481,7.825 c 0,0 -15.0117,-30.637 -23.5821,-61.715 -10.2187,-36.996 -11.6992,-49.317 -10.1601,-66.5 0.3125,-3.555 3.832,-7.879 7.7656,-8.965 1.5508,-0.43 3.3594,-0.918 4.1094,-1.133 0.7656,-0.215 3.6562,-0.918 6.0664,-2.793 2.4102,-1.875 2.9961,-2.363 4.4219,-3.133 1.4258,-0.781 1.6211,-1.281 5.6679,-2.394 4.043,-1.121 4.4805,-0.801 6.0899,-0.86 1.6211,-0.058 2.3828,0.059 5.4219,0.43 3.0273,0.371 5.8711,-0.508 6.6289,-0.711 0.7539,-0.207 2.5586,-0.715 4.1132,-1.144 3.9375,-1.082 9.1719,0.84 11.2692,3.722 10.125,13.953 15.164,25.301 25.379,62.293 8.575,31.071 11.407,65.075 11.407,65.075 m -73.4262,2.46 c 12.0781,-1.738 25.1093,-4.515 37.1762,-7.847 12.082,-3.336 24.691,-7.633 35.949,-12.332" /><path
         id="path162"
         style="fill:none;stroke:#ffffff;stroke-width:4;stroke-linecap:butt;stroke-linejoin:miter;stroke-miterlimit:4;stroke-dasharray:none;stroke-opacity:1"
         d="M 91.8633,121.836 C 89.1914,112.16 79.168,106.477 69.4805,109.141 c -9.6758,2.675 -15.3711,12.695 -12.6953,22.382 2.6796,9.684 12.6953,15.364 22.3828,12.692 9.6718,-2.672 15.3554,-12.692 12.6953,-22.379 z M 58.3477,151.68 c 2.4414,-0.672 4.3164,-1.688 5.2187,-2.293 0.9063,-0.602 1.1914,-1.407 0.4258,-1.922 -0.8359,-0.547 -2.3399,-1.641 -3.1445,-2.356 -0.9375,-0.832 -1.6211,-1.066 -3.0235,-0.25 -2.4219,1.395 -7.6015,5.121 -8.8906,6.879 -0.6602,0.883 -0.0352,1.223 1.2734,1.293 1.875,0.106 5.4649,-0.617 8.1407,-1.351 z m -12.918,-19.141 c 1.3398,-0.449 4.6094,-2.129 5.5664,-2.82 0.957,-0.696 2.4531,-2.188 2.3125,-4.004 -0.1523,-2.141 -0.0195,-6.535 0.8828,-8.02 1.1914,-1.933 1.0313,-2.754 -0.6641,-2.422 -1.371,0.254 -4.9062,1.524 -5.9218,2.012 -1.0039,0.488 -2.4688,1.367 -2.9297,2.735 -0.957,2.882 -1.1485,8.691 -0.6602,11.543 0.1953,1.23 0.7032,1.21 1.4141,0.976 z" /><path
         id="path164"
         style="fill:none;stroke:#ffffff;stroke-width:4;stroke-linecap:butt;stroke-linejoin:miter;stroke-miterlimit:4;stroke-dasharray:none;stroke-opacity:1"
         d="m 100.867,139.945 c -2.449,0.68 -4.5857,0.77 -5.66,0.711 -1.0859,-0.058 -1.75,-0.601 -1.3515,-1.426 0.4414,-0.91 1.164,-2.613 1.4961,-3.644 0.3789,-1.191 0.8281,-1.746 2.4726,-1.777 2.7808,-0.039 9.1408,0.507 11.1528,1.355 1.011,0.422 0.64,1.039 -0.43,1.766 -1.555,1.043 -5.024,2.281 -7.68,3.015 z m 1.274,-23.05 c -1.387,0.312 -5.0512,0.527 -6.2308,0.429 -1.1758,-0.105 -3.2266,-0.625 -4.0469,-2.246 -0.9531,-1.922 -3.3203,-5.625 -4.8594,-6.433 -2.0156,-1.047 -2.3047,-1.836 -0.6641,-2.434 1.2891,-0.469 4.9805,-1.199 6.0899,-1.289 1.1367,-0.098 2.8359,-0.106 3.9258,0.84 2.3047,1.972 5.4535,6.875 6.4965,9.551 0.461,1.164 0.031,1.406 -0.711,1.582 z" /><path
         id="path166"
         style="fill:none;stroke:#ffffff;stroke-width:4;stroke-linecap:butt;stroke-linejoin:miter;stroke-miterlimit:4;stroke-dasharray:none;stroke-opacity:1"
         d="m 99.1094,221.84 5.9956,21.719" /><path
         id="path168"
         style="fill:none;stroke:#ffffff;stroke-width:4;stroke-linecap:butt;stroke-linejoin:miter;stroke-miterlimit:4;stroke-dasharray:none;stroke-opacity:1"
         d="m 101.105,221.293 5.997,21.719" /></g></g></svg>