<?xml version="1.0" encoding="UTF-8" standalone="no"?>
<svg
   xmlns:dc="http://purl.org/dc/elements/1.1/"
   xmlns:cc="http://creativecommons.org/ns#"
   xmlns:rdf="http://www.w3.org/1999/02/22-rdf-syntax-ns#"
   xmlns:svg="http://www.w3.org/2000/svg"
   xmlns="http://www.w3.org/2000/svg"
   viewBox="0 0 20 36.25"
   height="36.25"
   width="20"
   xml:space="preserve"
   version="1.1"
   id="svg2"><metadata
     id="metadata8"><rdf:RDF><cc:Work
         rdf:about=""><dc:format>image/svg+xml</dc:format><dc:type
           rdf:resource="http://purl.org/dc/dcmitype/StillImage" /></cc:Work></rdf:RDF></metadata><defs
     id="defs6" /><g
     transform="matrix(1.25,0,0,-1.25,0,36.25)"
     id="g10"><g
       transform="scale(0.1,0.1)"
       id="g12"><path
         id="path14"
         style="fill:#02709f;fill-opacity:1;fill-rule:nonzero;stroke:none"
         d="m 141.449,166.449 c 2.301,8.481 12.102,50.821 12.5,56.723 0.43,5.898 -1.719,13.277 -4.89,14.758 0.16,2.148 0.242,3.32 0.242,3.32 -0.781,0.32 -1.571,0.59 -2.352,0.898 l 0.242,-0.078 c 0,0 2.258,9.461 3.547,16.02 2.5,12.582 2.742,18.91 2.742,18.91 -0.039,1.75 -0.511,3.281 -2.07,3.711 l -7.351,2.027 c -1.598,0.434 -2.649,-0.59 -3.668,-2.109 0,0 -2.852,-5.859 -6.871,-17.77 -2.149,-6.328 -4.219,-14.3 -4.219,-14.3 l 0.109,-0.039 c -4.371,1.441 -8.789,2.769 -13.281,4.019 -11.399,3.133 -22.8477,5.551 -34.2501,7.313 0,0 -0.5508,-1.063 -1.4883,-2.93 C 76.9102,257.23 71.25,252 68.5898,246.719 c -2.6484,-5.27 -15.9687,-46.641 -18.3203,-55.11 -2.3398,-8.48 -6.8711,-30.039 -8.8593,-40.789 -2,-10.699 -3.7891,-29.41 -10.711,-54.4098 C 26.6406,81.6797 20.0781,59.7305 16.6406,50.5898 15.7383,48.2109 8.51953,36.0195 18.9805,31.9219 29.2617,27.8203 44.5703,23.4414 52.3008,21.2891 c 7.7383,-2.1094 23.1289,-6.211 34.0703,-8.0078 11.0898,-1.793 11.168,12.3476 11.5977,14.8906 1.7617,9.6094 7.3402,31.789 11.4102,46.5195 6.91,25 14.961,41.9886 18.742,52.2306 3.789,10.226 10.981,31.047 13.328,39.527" /><path
         id="path16"
         style="fill:#02709f;fill-opacity:1;fill-rule:nonzero;stroke:none"
         d="m 142.031,276.762 c 0,0 -3.402,1.019 -6.293,1.84 -2.617,0.699 -6.207,1.636 -6.207,1.636" /><path
         id="path18"
         style="fill:#02709f;fill-opacity:1;fill-rule:nonzero;stroke:none"
         d="m 130.078,165.32 c 2.301,8.469 12.113,50.821 12.5,56.711 0.434,5.899 -1.758,13.289 -4.879,14.77 0.153,2.109 0.192,3.277 0.192,3.277 -0.743,0.313 -1.52,0.633 -2.301,0.942 l 0.23,-0.079 c 0,0 2.27,9.45 3.559,16.02 2.461,12.57 2.73,18.898 2.73,18.898 -0.039,1.762 -0.507,3.25 -2.109,3.711 l -7.301,2 c -1.609,0.461 -2.66,-0.55 -3.679,-2.07 0,0 -2.848,-5.859 -6.872,-17.82 -2.148,-6.321 -4.218,-14.25 -4.218,-14.25 l 0.121,-0.039 c -4.379,1.437 -8.789,2.769 -13.281,3.98 -11.4106,3.16 -22.8598,5.59 -34.2583,7.34 0,0 -0.5508,-1.051 -1.4922,-2.93 -3.4687,0.321 -9.1406,-4.922 -11.789,-10.191 C 54.5703,240.32 41.2109,198.949 38.9102,190.469 36.5586,182 32.0313,160.43 30.0391,149.691 28.0508,138.988 26.25,120.281 19.3398,95.2813 15.2695,80.5508 8.71094,58.6016 5.26953,49.4609 4.33984,47.0703 -2.85156,34.8906 7.62109,30.75 17.9297,26.6797 33.1992,22.3086 40.9414,20.1602 48.6719,18.0117 64.0586,13.9492 75,12.1484 86.0898,10.3594 86.1719,24.5 86.6016,27 c 1.7578,9.6094 7.3476,31.8281 11.4101,46.5586 6.9103,25 14.9573,41.9924 18.7503,52.2224 3.789,10.239 10.968,31.059 13.316,39.539" /><path
         id="path20"
         style="fill:#02709f;fill-opacity:1;fill-rule:nonzero;stroke:none"
         d="m 50.1211,105.941 c -1.2109,-4.332 -5.7109,-6.8707 -10.043,-5.703 -4.3398,1.211 -6.9179,5.703 -5.6992,10.043 1.2109,4.367 5.6992,6.91 10.0313,5.699 4.3398,-1.21 6.9179,-5.699 5.7109,-10.039" /><path
         id="path22"
         style="fill:#02709f;fill-opacity:1;fill-rule:nonzero;stroke:none"
         d="M 70.6602,97.2305 C 69.4883,92.8906 65,90.3594 60.6211,91.5313 c -4.332,1.207 -6.8711,5.6992 -5.6602,10.0387 1.168,4.328 5.6602,6.91 10.0391,5.7 4.3398,-1.211 6.8789,-5.7 5.6602,-10.0395" /><path
         id="path24"
         style="fill:#02709f;fill-opacity:1;fill-rule:nonzero;stroke:none"
         d="m 92.8516,94.1406 c -1.1719,-4.332 -5.6602,-6.9101 -10.043,-5.6992 -4.3281,1.207 -6.8672,5.6992 -5.6602,10.0391 1.1719,4.3395 5.6602,6.9105 10.043,5.6995 4.3281,-1.211 6.8672,-5.6995 5.6602,-10.0394" /><path
         id="path26"
         style="fill:#02709f;fill-opacity:1;fill-rule:nonzero;stroke:none"
         d="m 45.1602,88.0117 c -1.211,-4.332 -5.711,-6.9101 -10.0391,-5.7031 -4.3398,1.2109 -6.8828,5.7031 -5.7109,10.043 1.2109,4.3281 5.7109,6.9101 10.039,5.6992 4.3399,-1.211 6.9219,-5.6992 5.711,-10.0391" /><path
         id="path28"
         style="fill:#02709f;fill-opacity:1;fill-rule:nonzero;stroke:none"
         d="m 65.7383,79.3008 c -1.207,-4.3399 -5.6992,-6.9102 -10.0391,-5.6992 -4.3281,1.207 -6.9101,5.6992 -5.6992,10.039 1.2109,4.3282 5.6992,6.9102 10.0391,5.6992 4.3398,-1.2109 6.8711,-5.6992 5.6992,-10.039" /><path
         id="path30"
         style="fill:#02709f;fill-opacity:1;fill-rule:nonzero;stroke:none"
         d="m 87.9297,76.2109 c -1.2109,-4.332 -5.6992,-6.9101 -10.0391,-5.6992 -4.3398,1.2071 -6.9101,5.6992 -5.6992,10.0391 1.207,4.3398 5.6992,6.9101 10.0391,5.6992 4.3281,-1.2109 6.8711,-5.6992 5.6992,-10.0391" /><path
         id="path32"
         style="fill:#02709f;fill-opacity:1;fill-rule:nonzero;stroke:none"
         d="m 40.1992,70.0781 c -1.1797,-4.3281 -5.6679,-6.9062 -10.039,-5.6992 -4.3399,1.2109 -6.8789,5.6992 -5.6719,10.043 1.1719,4.3281 5.6719,6.9062 10.043,5.6992 4.3398,-1.2109 6.8789,-5.6992 5.6679,-10.043" /><path
         id="path34"
         style="fill:#02709f;fill-opacity:1;fill-rule:nonzero;stroke:none"
         d="m 60.7813,61.3711 c -1.211,-4.3398 -5.7032,-6.9102 -10.043,-5.6992 -4.3281,1.207 -6.8672,5.6992 -5.6992,10.039 1.2109,4.3282 5.6992,6.8672 10.039,5.6993 4.3321,-1.211 6.9102,-5.6993 5.7032,-10.0391" /><path
         id="path36"
         style="fill:#02709f;fill-opacity:1;fill-rule:nonzero;stroke:none"
         d="m 82.9688,58.2813 c -1.2071,-4.3321 -5.6993,-6.9102 -10.0391,-5.7032 -4.3399,1.211 -6.8789,5.7032 -5.6992,10.043 1.2109,4.3398 5.6992,6.9102 10.039,5.6992 4.3321,-1.2109 6.9102,-5.6992 5.6993,-10.039" /><path
         id="path38"
         style="fill:#02709f;fill-opacity:1;fill-rule:nonzero;stroke:none"
         d="m 35.2695,52.1484 c -1.2109,-4.3281 -5.6992,-6.9101 -10.039,-5.6992 -4.3711,1.211 -6.9102,5.6992 -5.6992,10.0391 1.207,4.332 5.6992,6.9101 10.039,5.7031 4.3399,-1.2109 6.8789,-5.7031 5.6992,-10.043 z m 20.5508,-8.707 c -1.1719,-4.3711 -5.6601,-6.9101 -10.039,-5.7031 -4.3321,1.2109 -6.8711,5.7031 -5.6602,10.043 1.168,4.3281 5.6602,6.8671 10.0391,5.6992 4.3281,-1.211 6.8711,-5.6992 5.6601,-10.0391" /><path
         id="path40"
         style="fill:#02709f;fill-opacity:1;fill-rule:nonzero;stroke:none"
         d="m 78.0117,40.3594 c -1.1719,-4.3789 -5.6719,-6.918 -10.0429,-5.711 -4.3399,1.211 -6.879,5.711 -5.668,10.043 1.1797,4.3399 5.668,6.8789 10.039,5.6992 4.3399,-1.2109 6.879,-5.6992 5.6719,-10.0312" /><path
         id="path42"
         style="fill:#02709f;fill-opacity:1;fill-rule:nonzero;stroke:none"
         d="m 45.5117,31.2891 c -0.1211,-0.3907 -0.8203,-0.5391 -1.6015,-0.3477 -0.75,0.2383 -1.25,0.6992 -1.1797,1.1289 0.1211,0.3906 0.8593,0.5508 1.6093,0.3594 0.7383,-0.1992 1.25,-0.7109 1.1719,-1.1406 z m -2.7812,0.7812 -2.5313,-9.332 m 3,8.5508 -2.4179,-8.75 m 4.7304,8.75 -2.582,-9.3282 m 1.8008,8.8985 -2.4297,-8.711 m 18.9101,144.3006 -1.7617,-6.488 m 2.5,6.289 -1.8281,-6.559 m 38.4297,-3.55 -1.75,-6.493 m 1.0508,6.68 -1.8321,-6.558" /><path
         id="path44"
         style="fill:#02709f;fill-opacity:1;fill-rule:nonzero;stroke:none"
         d="m 135.82,240.941 c 0,0 2.27,9.45 3.559,16.02 2.461,12.57 2.73,18.898 2.73,18.898 -0.039,1.762 -0.507,3.25 -2.109,3.711 l -7.301,2 c -1.609,0.461 -2.66,-0.55 -3.679,-2.07 0,0 -2.848,-5.859 -6.872,-17.82 -2.148,-6.321 -4.218,-14.25 -4.218,-14.25 m -2.852,-92.739 c -0.469,-1.601 -2.109,-2.543 -3.707,-2.07 l -62.9726,17.34 c -1.5976,0.469 -2.539,2.109 -2.0703,3.719 l 10.9727,39.8 c 0.4297,1.598 2.0781,2.54 3.6797,2.071 l 62.9685,-17.379 c 1.602,-0.434 2.531,-2.07 2.102,-3.672 l -10.973,-39.809 z m 21.602,89.649 c -5.86,2.301 -11.801,4.41 -17.891,6.332 m -46.8398,7.808 c 0,0 -15,-30.621 -23.5898,-61.718 C 38.1602,159.77 36.6797,147.43 38.1992,130.281 c 0.3203,-3.562 3.8321,-7.89 7.7813,-8.992 1.5586,-0.43 3.3593,-0.898 4.0976,-1.129 0.7813,-0.199 3.6719,-0.898 6.0938,-2.769 2.3789,-1.879 2.9687,-2.391 4.4179,-3.172 1.3985,-0.778 1.6016,-1.25 5.6602,-2.379 4.0195,-1.129 4.4883,-0.781 6.0898,-0.86 1.6094,-0.039 2.3907,0.079 5.4297,0.43 3.0118,0.391 5.8594,-0.512 6.6094,-0.699 0.7813,-0.199 2.5703,-0.711 4.1406,-1.141 3.9024,-1.09 9.1407,0.821 11.25,3.711 10.1095,13.949 15.1525,25.321 25.3905,62.309 8.551,31.051 11.399,65.039 11.399,65.039 m -73.4379,2.461 c 12.0781,-1.719 25.1172,-4.488 37.1879,-7.809 12.07,-3.359 24.691,-7.66 35.941,-12.351" /><path
         id="path46"
         style="fill:#02709f;fill-opacity:1;fill-rule:nonzero;stroke:none"
         d="m 90.1602,130.039 c -2.6993,-9.68 -12.6993,-15.348 -22.3907,-12.687 -9.6797,2.687 -15.3906,12.687 -12.6914,22.378 2.6524,9.692 12.6914,15.348 22.3828,12.7 9.6485,-2.66 15.3477,-12.7 12.6993,-22.391 z m -33.5196,29.852 c 2.418,-0.672 4.3008,-1.68 5.1992,-2.313 0.9297,-0.578 1.211,-1.398 0.4297,-1.906 -0.8203,-0.551 -2.3476,-1.641 -3.1289,-2.352 -0.9414,-0.82 -1.6406,-1.05 -3.0508,-0.269 -2.4179,1.41 -7.5703,5.16 -8.8593,6.91 -0.6719,0.859 -0.0391,1.219 1.25,1.289 1.8711,0.078 5.4687,-0.621 8.1601,-1.359 z M 43.7109,140.75 c 1.3282,-0.43 4.6094,-2.109 5.5899,-2.82 0.9297,-0.7 2.418,-2.18 2.3008,-4.02 -0.1524,-2.109 -0.043,-6.519 0.8593,-8.012 1.211,-1.91 1.0586,-2.726 -0.6601,-2.418 -1.3711,0.27 -4.8906,1.52 -5.9024,2.032 -1.0195,0.468 -2.457,1.367 -2.9296,2.738 -0.9805,2.852 -1.168,8.672 -0.668,11.52 0.1992,1.25 0.7109,1.21 1.4101,0.98" /><path
         id="path48"
         style="fill:#02709f;fill-opacity:1;fill-rule:nonzero;stroke:none"
         d="m 99.1406,148.172 c -2.4218,0.656 -4.5703,0.738 -5.6601,0.699 -1.0586,-0.082 -1.7188,-0.621 -1.3321,-1.441 0.4297,-0.899 1.1719,-2.621 1.4805,-3.641 0.3906,-1.168 0.8203,-1.758 2.4609,-1.758 2.8204,-0.031 9.1402,0.508 11.1802,1.328 1.011,0.43 0.621,1.063 -0.43,1.762 -1.57,1.059 -5.039,2.309 -7.6994,3.051 z m 1.2894,-23.051 c -1.4105,0.309 -5.0394,0.508 -6.2503,0.43 -1.168,-0.121 -3.1992,-0.621 -4.0195,-2.27 -0.9805,-1.91 -3.3204,-5.621 -4.8907,-6.441 -1.9882,-1.02 -2.3007,-1.84 -0.6601,-2.418 1.289,-0.473 5,-1.211 6.0898,-1.293 1.1406,-0.078 2.8516,-0.117 3.9492,0.859 2.3008,1.953 5.4296,6.871 6.4806,9.532 0.473,1.171 0.043,1.41 -0.699,1.601" /><path
         id="path50"
         style="fill:#02709f;fill-opacity:1;fill-rule:nonzero;stroke:none"
         d="m 97.3789,230.039 6.0191,21.723" /><path
         id="path52"
         style="fill:#02709f;fill-opacity:1;fill-rule:nonzero;stroke:none"
         d="m 99.3789,229.5 6.0121,21.711" /><path
         id="path54"
         style="fill:#02709f;fill-opacity:1;fill-rule:nonzero;stroke:none"
         d="m 141.449,166.449 c 2.301,8.481 12.102,50.821 12.5,56.723 0.43,5.898 -1.719,13.277 -4.89,14.758 0.16,2.148 0.242,3.32 0.242,3.32 -0.781,0.32 -1.571,0.59 -2.352,0.898 l 0.242,-0.078 c 0,0 2.258,9.461 3.547,16.02 2.5,12.582 2.742,18.91 2.742,18.91 -0.039,1.75 -0.511,3.281 -2.07,3.711 l -7.351,2.027 c -1.598,0.434 -2.649,-0.59 -3.668,-2.109 0,0 -2.852,-5.859 -6.871,-17.77 -2.149,-6.328 -4.219,-14.3 -4.219,-14.3 l 0.109,-0.039 c -4.371,1.441 -8.789,2.769 -13.281,4.019 -11.399,3.133 -22.8477,5.551 -34.2501,7.313 0,0 -0.5508,-1.063 -1.4883,-2.93 C 76.9102,257.23 71.25,252 68.5898,246.719 c -2.6484,-5.27 -15.9687,-46.641 -18.3203,-55.11 -2.3398,-8.48 -6.8711,-30.039 -8.8593,-40.789 -2,-10.699 -3.7891,-29.41 -10.711,-54.4098 C 26.6406,81.6797 20.0781,59.7305 16.6406,50.5898 15.7383,48.2109 8.51953,36.0195 18.9805,31.9219 29.2617,27.8203 44.5703,23.4414 52.3008,21.2891 c 7.7383,-2.1094 23.1289,-6.211 34.0703,-8.0078 11.0898,-1.793 11.168,12.3476 11.5977,14.8906 1.7617,9.6094 7.3402,31.789 11.4102,46.5195 6.91,25 14.961,41.9886 18.742,52.2306 3.789,10.226 10.981,31.047 13.328,39.527" /><path
         id="path56"
         style="fill:#02709f;fill-opacity:1;fill-rule:nonzero;stroke:none"
         d="m 142.031,276.762 c 0,0 -3.402,1.019 -6.293,1.84 -2.617,0.699 -6.207,1.636 -6.207,1.636" /><path
         id="path58"
         style="fill:none;stroke:#ffffff;stroke-width:4;stroke-linecap:butt;stroke-linejoin:miter;stroke-miterlimit:4;stroke-dasharray:none;stroke-opacity:1"
         d="m 142.031,276.758 c 0,0 -3.402,1.019 -6.293,1.84 -2.617,0.699 -6.207,1.64 -6.207,1.64" /><path
         id="path60"
         style="fill:#02709f;fill-opacity:1;fill-rule:nonzero;stroke:none"
         d="m 130.078,165.32 c 2.301,8.469 12.113,50.821 12.5,56.711 0.434,5.899 -1.758,13.289 -4.879,14.77 0.153,2.109 0.192,3.277 0.192,3.277 -0.743,0.313 -1.52,0.633 -2.301,0.942 l 0.23,-0.079 c 0,0 2.27,9.45 3.559,16.02 2.461,12.57 2.73,18.898 2.73,18.898 -0.039,1.762 -0.507,3.25 -2.109,3.711 l -7.301,2 c -1.609,0.461 -2.66,-0.55 -3.679,-2.07 0,0 -2.848,-5.859 -6.872,-17.82 -2.148,-6.321 -4.218,-14.25 -4.218,-14.25 l 0.121,-0.039 c -4.379,1.437 -8.789,2.769 -13.281,3.98 -11.4106,3.16 -22.8598,5.59 -34.2583,7.34 0,0 -0.5508,-1.051 -1.4922,-2.93 -3.4687,0.321 -9.1406,-4.922 -11.789,-10.191 C 54.5703,240.32 41.2109,198.949 38.9102,190.469 36.5586,182 32.0313,160.43 30.0391,149.691 28.0508,138.988 26.25,120.281 19.3398,95.2813 15.2695,80.5508 8.71094,58.6016 5.26953,49.4609 4.33984,47.0703 -2.85156,34.8906 7.62109,30.75 17.9297,26.6797 33.1992,22.3086 40.9414,20.1602 48.6719,18.0117 64.0586,13.9492 75,12.1484 86.0898,10.3594 86.1719,24.5 86.6016,27 c 1.7578,9.6094 7.3476,31.8281 11.4101,46.5586 6.9103,25 14.9573,41.9924 18.7503,52.2224 3.789,10.239 10.968,31.059 13.316,39.539" /><path
         id="path62"
         style="fill:none;stroke:#ffffff;stroke-width:4;stroke-linecap:butt;stroke-linejoin:miter;stroke-miterlimit:4;stroke-dasharray:none;stroke-opacity:1"
         d="m 130.078,165.316 c 2.301,8.473 12.113,50.821 12.5,56.723 0.434,5.891 -1.758,13.281 -4.879,14.758 0.153,2.113 0.192,3.281 0.192,3.281 -0.743,0.32 -1.52,0.629 -2.301,0.942 l 0.23,-0.082 c 0,0 2.27,9.46 3.559,16.019 2.461,12.582 2.73,18.902 2.73,18.902 -0.039,1.758 -0.507,3.25 -2.109,3.719 l -7.301,1.992 c -1.609,0.469 -2.66,-0.55 -3.679,-2.07 0,0 -2.848,-5.863 -6.872,-17.812 C 120,255.359 117.93,247.43 117.93,247.43 l 0.121,-0.043 c -4.379,1.441 -8.789,2.773 -13.281,3.98 -11.4106,3.172 -22.8598,5.59 -34.2583,7.352 0,0 -0.5508,-1.059 -1.4922,-2.93 -3.4687,0.309 -9.1406,-4.93 -11.789,-10.199 C 54.5703,240.32 41.2109,198.949 38.9102,190.469 36.5586,182 32.0313,160.43 30.0391,149.688 28.0508,138.988 26.25,120.277 19.3398,95.2773 15.2695,80.5469 8.71094,58.5977 5.26953,49.457 4.33984,47.0781 -2.85156,34.8867 7.62109,30.75 17.9297,26.6875 33.1992,22.3086 40.9414,20.1602 48.6719,18.0078 64.0586,13.9492 75,12.1484 86.0898,10.3594 86.1719,24.5 86.6016,27 c 1.7578,9.6094 7.3476,31.8281 11.4101,46.5586 6.9103,25 14.9573,41.9884 18.7503,52.2304 3.789,10.231 10.968,31.051 13.316,39.527 z" /><path
         id="path64"
         style="fill:#02709f;fill-opacity:1;fill-rule:nonzero;stroke:none"
         d="m 50.1211,105.941 c -1.2109,-4.332 -5.7109,-6.8707 -10.043,-5.703 -4.3398,1.211 -6.9179,5.703 -5.6992,10.043 1.2109,4.367 5.6992,6.91 10.0313,5.699 4.3398,-1.21 6.9179,-5.699 5.7109,-10.039" /><path
         id="path66"
         style="fill:none;stroke:#ffffff;stroke-width:4;stroke-linecap:butt;stroke-linejoin:miter;stroke-miterlimit:4;stroke-dasharray:none;stroke-opacity:1"
         d="m 50.1211,105.938 c -1.2109,-4.329 -5.7109,-6.8677 -10.043,-5.7 -4.3398,1.211 -6.9179,5.7 -5.6992,10.039 1.2109,4.371 5.6992,6.911 10.0313,5.7 4.3398,-1.207 6.9179,-5.7 5.7109,-10.039 z" /><path
         id="path68"
         style="fill:#02709f;fill-opacity:1;fill-rule:nonzero;stroke:none"
         d="M 70.6602,97.2305 C 69.4883,92.8906 65,90.3594 60.6211,91.5313 c -4.332,1.207 -6.8711,5.6992 -5.6602,10.0387 1.168,4.328 5.6602,6.91 10.0391,5.7 4.3398,-1.211 6.8789,-5.7 5.6602,-10.0395" /><path
         id="path70"
         style="fill:none;stroke:#ffffff;stroke-width:4;stroke-linecap:butt;stroke-linejoin:miter;stroke-miterlimit:4;stroke-dasharray:none;stroke-opacity:1"
         d="M 70.6602,97.2266 C 69.4883,92.8984 65,90.3594 60.6211,91.5273 c -4.332,1.211 -6.8711,5.6993 -5.6602,10.0427 1.168,4.328 5.6602,6.907 10.0391,5.7 4.3398,-1.211 6.8789,-5.7 5.6602,-10.0434 z" /><path
         id="path72"
         style="fill:#02709f;fill-opacity:1;fill-rule:nonzero;stroke:none"
         d="m 92.8516,94.1406 c -1.1719,-4.332 -5.6602,-6.9101 -10.043,-5.6992 -4.3281,1.207 -6.8672,5.6992 -5.6602,10.0391 1.1719,4.3395 5.6602,6.9105 10.043,5.6995 4.3281,-1.211 6.8672,-5.6995 5.6602,-10.0394" /><path
         id="path74"
         style="fill:none;stroke:#ffffff;stroke-width:4;stroke-linecap:butt;stroke-linejoin:miter;stroke-miterlimit:4;stroke-dasharray:none;stroke-opacity:1"
         d="m 92.8516,94.1484 c -1.1719,-4.3398 -5.6602,-6.9218 -10.043,-5.7109 -4.3281,1.2109 -6.8672,5.7109 -5.6602,10.0391 1.1719,4.3434 5.6602,6.9214 10.043,5.7114 4.3281,-1.219 6.8672,-5.7114 5.6602,-10.0396 z" /><path
         id="path76"
         style="fill:#02709f;fill-opacity:1;fill-rule:nonzero;stroke:none"
         d="m 45.1602,88.0117 c -1.211,-4.332 -5.711,-6.9101 -10.0391,-5.7031 -4.3398,1.2109 -6.8828,5.7031 -5.7109,10.043 1.2109,4.3281 5.7109,6.9101 10.039,5.6992 4.3399,-1.211 6.9219,-5.6992 5.711,-10.0391" /><path
         id="path78"
         style="fill:none;stroke:#ffffff;stroke-width:4;stroke-linecap:butt;stroke-linejoin:miter;stroke-miterlimit:4;stroke-dasharray:none;stroke-opacity:1"
         d="m 45.1602,88.0078 c -1.211,-4.3281 -5.711,-6.9101 -10.0391,-5.6992 -4.3398,1.2109 -6.8828,5.6992 -5.7109,10.0391 1.2109,4.3398 5.7109,6.9101 10.039,5.6992 4.3399,-1.2071 6.9219,-5.6992 5.711,-10.0391 z" /><path
         id="path80"
         style="fill:#02709f;fill-opacity:1;fill-rule:nonzero;stroke:none"
         d="m 65.7383,79.3008 c -1.207,-4.3399 -5.6992,-6.9102 -10.0391,-5.6992 -4.3281,1.207 -6.9101,5.6992 -5.6992,10.039 1.2109,4.3282 5.6992,6.9102 10.0391,5.6992 4.3398,-1.2109 6.8711,-5.6992 5.6992,-10.039" /><path
         id="path82"
         style="fill:none;stroke:#ffffff;stroke-width:4;stroke-linecap:butt;stroke-linejoin:miter;stroke-miterlimit:4;stroke-dasharray:none;stroke-opacity:1"
         d="m 65.7383,79.2969 c -1.207,-4.3281 -5.6992,-6.9102 -10.0391,-5.6992 -4.3281,1.2109 -6.9101,5.6992 -5.6992,10.039 1.2109,4.3321 5.6992,6.9102 10.0391,5.7031 4.3398,-1.2109 6.8711,-5.7031 5.6992,-10.0429 z" /><path
         id="path84"
         style="fill:#02709f;fill-opacity:1;fill-rule:nonzero;stroke:none"
         d="m 87.9297,76.2109 c -1.2109,-4.332 -5.6992,-6.9101 -10.0391,-5.6992 -4.3398,1.2071 -6.9101,5.6992 -5.6992,10.0391 1.207,4.3398 5.6992,6.9101 10.0391,5.6992 4.3281,-1.2109 6.8711,-5.6992 5.6992,-10.0391" /><path
         id="path86"
         style="fill:none;stroke:#ffffff;stroke-width:4;stroke-linecap:butt;stroke-linejoin:miter;stroke-miterlimit:4;stroke-dasharray:none;stroke-opacity:1"
         d="m 87.9297,76.2188 c -1.2109,-4.3399 -5.6992,-6.9219 -10.0391,-5.711 -4.3398,1.211 -6.9101,5.711 -5.6992,10.0391 1.207,4.3398 5.6992,6.9219 10.0391,5.7109 4.3281,-1.2187 6.8711,-5.7109 5.6992,-10.039 z" /><path
         id="path88"
         style="fill:#02709f;fill-opacity:1;fill-rule:nonzero;stroke:none"
         d="m 40.1992,70.0781 c -1.1797,-4.3281 -5.6679,-6.9062 -10.039,-5.6992 -4.3399,1.2109 -6.8789,5.6992 -5.6719,10.043 1.1719,4.3281 5.6719,6.9062 10.043,5.6992 4.3398,-1.2109 6.8789,-5.6992 5.6679,-10.043" /><path
         id="path90"
         style="fill:none;stroke:#ffffff;stroke-width:4;stroke-linecap:butt;stroke-linejoin:miter;stroke-miterlimit:4;stroke-dasharray:none;stroke-opacity:1"
         d="M 40.1992,70.0781 C 39.0195,65.75 34.5313,63.168 30.1602,64.3789 c -4.3399,1.2109 -6.8789,5.6992 -5.6719,10.0391 1.1719,4.3398 5.6719,6.9101 10.043,5.6992 4.3398,-1.207 6.8789,-5.6992 5.6679,-10.0391 z" /><path
         id="path92"
         style="fill:#02709f;fill-opacity:1;fill-rule:nonzero;stroke:none"
         d="m 60.7813,61.3711 c -1.211,-4.3398 -5.7032,-6.9102 -10.043,-5.6992 -4.3281,1.207 -6.8672,5.6992 -5.6992,10.039 1.2109,4.3282 5.6992,6.8672 10.039,5.6993 4.3321,-1.211 6.9102,-5.6993 5.7032,-10.0391" /><path
         id="path94"
         style="fill:none;stroke:#ffffff;stroke-width:4;stroke-linecap:butt;stroke-linejoin:miter;stroke-miterlimit:4;stroke-dasharray:none;stroke-opacity:1"
         d="m 60.7813,61.3672 c -1.211,-4.3281 -5.7032,-6.9102 -10.043,-5.6992 -4.3281,1.2109 -6.8672,5.6992 -5.6992,10.039 1.2109,4.3321 5.6992,6.8711 10.039,5.7032 4.3321,-1.211 6.9102,-5.7032 5.7032,-10.043 z" /><path
         id="path96"
         style="fill:#02709f;fill-opacity:1;fill-rule:nonzero;stroke:none"
         d="m 82.9688,58.2813 c -1.2071,-4.3321 -5.6993,-6.9102 -10.0391,-5.7032 -4.3399,1.211 -6.8789,5.7032 -5.6992,10.043 1.2109,4.3398 5.6992,6.9102 10.039,5.6992 4.3321,-1.2109 6.9102,-5.6992 5.6993,-10.039" /><path
         id="path98"
         style="fill:none;stroke:#ffffff;stroke-width:4;stroke-linecap:butt;stroke-linejoin:miter;stroke-miterlimit:4;stroke-dasharray:none;stroke-opacity:1"
         d="m 82.9688,58.2891 c -1.2071,-4.3399 -5.6993,-6.9219 -10.0391,-5.711 -4.3399,1.211 -6.8789,5.711 -5.6992,10.0391 1.2109,4.3398 5.6992,6.9219 10.039,5.7109 4.3321,-1.2187 6.9102,-5.7109 5.6993,-10.039 z" /><path
         id="path100"
         style="fill:#02709f;fill-opacity:1;fill-rule:nonzero;stroke:none"
         d="m 35.2695,52.1484 c -1.2109,-4.3281 -5.6992,-6.9101 -10.039,-5.6992 -4.3711,1.211 -6.9102,5.6992 -5.6992,10.0391 1.207,4.332 5.6992,6.9101 10.039,5.7031 4.3399,-1.2109 6.8789,-5.7031 5.6992,-10.043 z m 20.5508,-8.707 c -1.1719,-4.3711 -5.6601,-6.9101 -10.039,-5.7031 -4.3321,1.2109 -6.8711,5.7031 -5.6602,10.043 1.168,4.3281 5.6602,6.8671 10.0391,5.6992 4.3281,-1.211 6.8711,-5.6992 5.6601,-10.0391" /><path
         id="path102"
         style="fill:none;stroke:#ffffff;stroke-width:4;stroke-linecap:butt;stroke-linejoin:miter;stroke-miterlimit:4;stroke-dasharray:none;stroke-opacity:1"
         d="m 35.2695,52.1484 c -1.2109,-4.3281 -5.6992,-6.9101 -10.039,-5.6992 -4.3711,1.211 -6.9102,5.6992 -5.6992,10.0391 1.207,4.3398 5.6992,6.9101 10.039,5.6992 4.3399,-1.2109 6.8789,-5.6992 5.6992,-10.0391 z m 20.5508,-8.7109 c -1.1719,-4.3672 -5.6601,-6.9102 -10.039,-5.6992 -4.3321,1.2109 -6.8711,5.6992 -5.6602,10.039 1.168,4.3321 5.6602,6.8711 10.0391,5.6993 4.3281,-1.2071 6.8711,-5.6993 5.6601,-10.0391 z" /><path
         id="path104"
         style="fill:#02709f;fill-opacity:1;fill-rule:nonzero;stroke:none"
         d="m 78.0117,40.3594 c -1.1719,-4.3789 -5.6719,-6.918 -10.0429,-5.711 -4.3399,1.211 -6.879,5.711 -5.668,10.043 1.1797,4.3399 5.668,6.8789 10.039,5.6992 4.3399,-1.2109 6.879,-5.6992 5.6719,-10.0312" /><path
         id="path106"
         style="fill:none;stroke:#ffffff;stroke-width:4;stroke-linecap:butt;stroke-linejoin:miter;stroke-miterlimit:4;stroke-dasharray:none;stroke-opacity:1"
         d="m 78.0117,40.3594 c -1.1719,-4.3828 -5.6719,-6.9219 -10.0429,-5.711 -4.3399,1.211 -6.879,5.711 -5.668,10.0391 1.1797,4.3398 5.668,6.8828 10.039,5.7109 4.3399,-1.2109 6.879,-5.7109 5.6719,-10.039 z" /><path
         id="path108"
         style="fill:#02709f;fill-opacity:1;fill-rule:nonzero;stroke:none"
         d="m 45.5117,31.2891 c -0.1211,-0.3907 -0.8203,-0.5391 -1.6015,-0.3477 -0.75,0.2383 -1.25,0.6992 -1.1797,1.1289 0.1211,0.3906 0.8593,0.5508 1.6093,0.3594 0.7383,-0.1992 1.25,-0.7109 1.1719,-1.1406 z m -2.7812,0.7812 -2.5313,-9.332 m 3,8.5508 -2.4179,-8.75 m 4.7304,8.75 -2.582,-9.3282 m 1.8008,8.8985 -2.4297,-8.711 m 18.9101,144.3006 -1.7617,-6.488 m 2.5,6.289 -1.8281,-6.559 m 38.4297,-3.55 -1.75,-6.493 m 1.0508,6.68 -1.8321,-6.558" /><path
         id="path110"
         style="fill:none;stroke:#ffffff;stroke-width:4;stroke-linecap:butt;stroke-linejoin:miter;stroke-miterlimit:4;stroke-dasharray:none;stroke-opacity:1"
         d="m 45.5117,31.2891 c -0.1211,-0.3907 -0.8203,-0.5391 -1.6015,-0.3516 -0.75,0.2422 -1.25,0.7109 -1.1797,1.1406 0.1211,0.3907 0.8593,0.5391 1.6093,0.3516 0.7383,-0.2031 1.25,-0.7109 1.1719,-1.1406 z m -2.7812,0.789 -2.5313,-9.3398 m 3,8.5508 -2.4179,-8.75 m 4.7304,8.75 -2.582,-9.3321 m 1.8008,8.9024 -2.4297,-8.711 m 18.9101,144.3006 -1.7617,-6.48 m 2.5,6.289 -1.8281,-6.57 m 38.4297,-3.551 -1.75,-6.489 m 1.0508,6.68 -1.8321,-6.558" /><path
         id="path112"
         style="fill:#02709f;fill-opacity:1;fill-rule:nonzero;stroke:none"
         d="m 135.82,240.941 c 0,0 2.27,9.45 3.559,16.02 2.461,12.57 2.73,18.898 2.73,18.898 -0.039,1.762 -0.507,3.25 -2.109,3.711 l -7.301,2 c -1.609,0.461 -2.66,-0.55 -3.679,-2.07 0,0 -2.848,-5.859 -6.872,-17.82 -2.148,-6.321 -4.218,-14.25 -4.218,-14.25 m -2.852,-92.739 c -0.469,-1.601 -2.109,-2.543 -3.707,-2.07 l -62.9726,17.34 c -1.5976,0.469 -2.539,2.109 -2.0703,3.719 l 10.9727,39.8 c 0.4297,1.598 2.0781,2.54 3.6797,2.071 l 62.9685,-17.379 c 1.602,-0.434 2.531,-2.07 2.102,-3.672 l -10.973,-39.809 z m 21.602,89.649 c -5.86,2.301 -11.801,4.41 -17.891,6.332 m -46.8398,7.808 c 0,0 -15,-30.621 -23.5898,-61.718 C 38.1602,159.77 36.6797,147.43 38.1992,130.281 c 0.3203,-3.562 3.8321,-7.89 7.7813,-8.992 1.5586,-0.43 3.3593,-0.898 4.0976,-1.129 0.7813,-0.199 3.6719,-0.898 6.0938,-2.769 2.3789,-1.879 2.9687,-2.391 4.4179,-3.172 1.3985,-0.778 1.6016,-1.25 5.6602,-2.379 4.0195,-1.129 4.4883,-0.781 6.0898,-0.86 1.6094,-0.039 2.3907,0.079 5.4297,0.43 3.0118,0.391 5.8594,-0.512 6.6094,-0.699 0.7813,-0.199 2.5703,-0.711 4.1406,-1.141 3.9024,-1.09 9.1407,0.821 11.25,3.711 10.1095,13.949 15.1525,25.321 25.3905,62.309 8.551,31.051 11.399,65.039 11.399,65.039 m -73.4379,2.461 c 12.0781,-1.719 25.1172,-4.488 37.1879,-7.809 12.07,-3.359 24.691,-7.66 35.941,-12.351" /><path
         id="path114"
         style="fill:#02709f;fill-opacity:1;fill-rule:nonzero;stroke:none"
         d="m 90.1602,130.039 c -2.6993,-9.68 -12.6993,-15.348 -22.3907,-12.687 -9.6797,2.687 -15.3906,12.687 -12.6914,22.378 2.6524,9.692 12.6914,15.348 22.3828,12.7 9.6485,-2.66 15.3477,-12.7 12.6993,-22.391 z m -33.5196,29.852 c 2.418,-0.672 4.3008,-1.68 5.1992,-2.313 0.9297,-0.578 1.211,-1.398 0.4297,-1.906 -0.8203,-0.551 -2.3476,-1.641 -3.1289,-2.352 -0.9414,-0.82 -1.6406,-1.05 -3.0508,-0.269 -2.4179,1.41 -7.5703,5.16 -8.8593,6.91 -0.6719,0.859 -0.0391,1.219 1.25,1.289 1.8711,0.078 5.4687,-0.621 8.1601,-1.359 z M 43.7109,140.75 c 1.3282,-0.43 4.6094,-2.109 5.5899,-2.82 0.9297,-0.7 2.418,-2.18 2.3008,-4.02 -0.1524,-2.109 -0.043,-6.519 0.8593,-8.012 1.211,-1.91 1.0586,-2.726 -0.6601,-2.418 -1.3711,0.27 -4.8906,1.52 -5.9024,2.032 -1.0195,0.468 -2.457,1.367 -2.9296,2.738 -0.9805,2.852 -1.168,8.672 -0.668,11.52 0.1992,1.25 0.7109,1.21 1.4101,0.98" /><path
         id="path116"
         style="fill:none;stroke:#ffffff;stroke-width:4;stroke-linecap:butt;stroke-linejoin:miter;stroke-miterlimit:4;stroke-dasharray:none;stroke-opacity:1"
         d="m 90.1602,130.039 c -2.6993,-9.68 -12.6993,-15.351 -22.3907,-12.691 -9.6797,2.691 -15.3906,12.691 -12.6914,22.379 2.6524,9.691 12.6914,15.351 22.3828,12.703 9.6485,-2.66 15.3477,-12.703 12.6993,-22.391 z m -33.5196,29.848 c 2.418,-0.668 4.3008,-1.68 5.1992,-2.309 0.9297,-0.578 1.211,-1.398 0.4297,-1.91 -0.8203,-0.551 -2.3476,-1.641 -3.1289,-2.34 -0.9414,-0.82 -1.6406,-1.058 -3.0508,-0.281 -2.4179,1.41 -7.5703,5.16 -8.8593,6.922 -0.6719,0.859 -0.0391,1.211 1.25,1.289 1.8711,0.07 5.4687,-0.629 8.1601,-1.371 z M 43.7109,140.75 c 1.3282,-0.434 4.6094,-2.113 5.5899,-2.82 0.9297,-0.703 2.418,-2.18 2.3008,-4.02 -0.1524,-2.113 -0.043,-6.523 0.8593,-8.012 1.211,-1.91 1.0586,-2.73 -0.6601,-2.421 -1.3711,0.281 -4.8906,1.531 -5.9024,2.031 -1.0195,0.469 -2.457,1.371 -2.9296,2.742 -0.9805,2.848 -1.168,8.668 -0.668,11.52 0.1992,1.25 0.7109,1.207 1.4101,0.98 z" /><path
         id="path118"
         style="fill:#02709f;fill-opacity:1;fill-rule:nonzero;stroke:none"
         d="m 99.1406,148.172 c -2.4218,0.656 -4.5703,0.738 -5.6601,0.699 -1.0586,-0.082 -1.7188,-0.621 -1.3321,-1.441 0.4297,-0.899 1.1719,-2.621 1.4805,-3.641 0.3906,-1.168 0.8203,-1.758 2.4609,-1.758 2.8204,-0.031 9.1402,0.508 11.1802,1.328 1.011,0.43 0.621,1.063 -0.43,1.762 -1.57,1.059 -5.039,2.309 -7.6994,3.051 z m 1.2894,-23.051 c -1.4105,0.309 -5.0394,0.508 -6.2503,0.43 -1.168,-0.121 -3.1992,-0.621 -4.0195,-2.27 -0.9805,-1.91 -3.3204,-5.621 -4.8907,-6.441 -1.9882,-1.02 -2.3007,-1.84 -0.6601,-2.418 1.289,-0.473 5,-1.211 6.0898,-1.293 1.1406,-0.078 2.8516,-0.117 3.9492,0.859 2.3008,1.953 5.4296,6.871 6.4806,9.532 0.473,1.171 0.043,1.41 -0.699,1.601" /><path
         id="path120"
         style="fill:none;stroke:#ffffff;stroke-width:4;stroke-linecap:butt;stroke-linejoin:miter;stroke-miterlimit:4;stroke-dasharray:none;stroke-opacity:1"
         d="m 99.1406,148.168 c -2.4218,0.66 -4.5703,0.742 -5.6601,0.699 -1.0586,-0.078 -1.7188,-0.617 -1.3321,-1.437 0.4297,-0.903 1.1719,-2.621 1.4805,-3.641 0.3906,-1.172 0.8203,-1.75 2.4609,-1.75 2.8204,-0.039 9.1402,0.5 11.1802,1.32 1.011,0.43 0.621,1.059 -0.43,1.758 -1.57,1.063 -5.039,2.313 -7.6994,3.051 z m 1.2894,-23.051 c -1.4105,0.313 -5.0394,0.512 -6.2503,0.43 -1.168,-0.117 -3.1992,-0.617 -4.0195,-2.258 -0.9805,-1.922 -3.3204,-5.629 -4.8907,-6.449 -1.9882,-1.012 -2.3007,-1.832 -0.6601,-2.422 1.289,-0.469 5,-1.211 6.0898,-1.289 1.1406,-0.082 2.8516,-0.121 3.9492,0.859 2.3008,1.95 5.4296,6.871 6.4806,9.532 0.473,1.168 0.043,1.41 -0.699,1.597 z" /><path
         id="path122"
         style="fill:#02709f;fill-opacity:1;fill-rule:nonzero;stroke:none"
         d="m 97.3789,230.039 6.0191,21.723" /><path
         id="path124"
         style="fill:none;stroke:#ffffff;stroke-width:4;stroke-linecap:butt;stroke-linejoin:miter;stroke-miterlimit:4;stroke-dasharray:none;stroke-opacity:1"
         d="m 97.3789,230.039 6.0191,21.719" /><path
         id="path126"
         style="fill:#02709f;fill-opacity:1;fill-rule:nonzero;stroke:none"
         d="m 99.3789,229.5 6.0121,21.711" /><path
         id="path128"
         style="fill:none;stroke:#ffffff;stroke-width:4;stroke-linecap:butt;stroke-linejoin:miter;stroke-miterlimit:4;stroke-dasharray:none;stroke-opacity:1"
         d="m 99.3789,229.5 6.0121,21.719" /><path
         id="path130"
         style="fill:none;stroke:#ffffff;stroke-width:4;stroke-linecap:butt;stroke-linejoin:miter;stroke-miterlimit:4;stroke-dasharray:none;stroke-opacity:1"
         d="m 141.449,166.449 c 2.301,8.481 12.102,50.821 12.5,56.719 0.43,5.902 -1.719,13.281 -4.89,14.762 0.16,2.148 0.242,3.328 0.242,3.328 -0.781,0.312 -1.571,0.582 -2.352,0.89 l 0.242,-0.07 c 0,0 2.258,9.449 3.547,16.012 2.5,12.578 2.742,18.91 2.742,18.91 -0.039,1.758 -0.511,3.277 -2.07,3.707 l -7.351,2.031 c -1.598,0.43 -2.649,-0.59 -3.668,-2.109 0,0 -2.852,-5.859 -6.871,-17.77 -2.149,-6.332 -4.219,-14.3 -4.219,-14.3 l 0.109,-0.039 c -4.371,1.449 -8.789,2.769 -13.281,4.019 -11.399,3.129 -22.8477,5.551 -34.2501,7.309 0,0 -0.5508,-1.059 -1.4883,-2.93 -3.4804,0.309 -9.1406,-4.918 -11.8008,-10.199 -2.6484,-5.27 -15.9687,-46.641 -18.3203,-55.11 -2.3398,-8.48 -6.8711,-30.043 -8.8593,-40.781 -2,-10.711 -3.7891,-29.418 -10.711,-54.4178 C 26.6406,81.6875 20.0781,59.7266 16.6406,50.5898 15.7383,48.207 8.51953,36.0195 18.9805,31.918 29.2617,27.8203 44.5703,23.4375 52.3008,21.2891 c 7.7383,-2.1016 23.1289,-6.211 34.0703,-8 11.0898,-1.8008 11.168,12.3398 11.5977,14.8789 1.7617,9.6093 7.3402,31.8008 11.4102,46.5195 6.91,25 14.961,42.0005 18.742,52.2305 3.789,10.23 10.981,31.051 13.328,39.531 z" /><path
         id="path132"
         style="fill:none;stroke:#ffffff;stroke-width:4;stroke-linecap:butt;stroke-linejoin:miter;stroke-miterlimit:4;stroke-dasharray:none;stroke-opacity:1"
         d="m 142.031,276.758 c 0,0 -3.402,1.019 -6.293,1.84 -2.617,0.699 -6.207,1.64 -6.207,1.64" /><path
         id="path134"
         style="fill:none;stroke:#ffffff;stroke-width:4;stroke-linecap:butt;stroke-linejoin:miter;stroke-miterlimit:4;stroke-dasharray:none;stroke-opacity:1"
         d="m 130.078,165.316 c 2.301,8.473 12.113,50.821 12.5,56.723 0.434,5.891 -1.758,13.281 -4.879,14.758 0.153,2.113 0.192,3.281 0.192,3.281 -0.743,0.32 -1.52,0.629 -2.301,0.942 l 0.23,-0.082 c 0,0 2.27,9.46 3.559,16.019 2.461,12.582 2.73,18.902 2.73,18.902 -0.039,1.758 -0.507,3.25 -2.109,3.719 l -7.301,1.992 c -1.609,0.469 -2.66,-0.55 -3.679,-2.07 0,0 -2.848,-5.863 -6.872,-17.812 C 120,255.359 117.93,247.43 117.93,247.43 l 0.121,-0.043 c -4.379,1.441 -8.789,2.773 -13.281,3.98 -11.4106,3.172 -22.8598,5.59 -34.2583,7.352 0,0 -0.5508,-1.059 -1.4922,-2.93 -3.4687,0.309 -9.1406,-4.93 -11.789,-10.199 C 54.5703,240.32 41.2109,198.949 38.9102,190.469 36.5586,182 32.0313,160.43 30.0391,149.688 28.0508,138.988 26.25,120.277 19.3398,95.2773 15.2695,80.5469 8.71094,58.5977 5.26953,49.457 4.33984,47.0781 -2.85156,34.8867 7.62109,30.75 17.9297,26.6875 33.1992,22.3086 40.9414,20.1602 48.6719,18.0078 64.0586,13.9492 75,12.1484 86.0898,10.3594 86.1719,24.5 86.6016,27 c 1.7578,9.6094 7.3476,31.8281 11.4101,46.5586 6.9103,25 14.9573,41.9884 18.7503,52.2304 3.789,10.231 10.968,31.051 13.316,39.527 z" /><path
         id="path136"
         style="fill:none;stroke:#ffffff;stroke-width:4;stroke-linecap:butt;stroke-linejoin:miter;stroke-miterlimit:4;stroke-dasharray:none;stroke-opacity:1"
         d="m 50.1211,105.938 c -1.2109,-4.329 -5.7109,-6.8677 -10.043,-5.7 -4.3398,1.211 -6.9179,5.7 -5.6992,10.039 1.2109,4.371 5.6992,6.911 10.0313,5.7 4.3398,-1.207 6.9179,-5.7 5.7109,-10.039 z" /><path
         id="path138"
         style="fill:none;stroke:#ffffff;stroke-width:4;stroke-linecap:butt;stroke-linejoin:miter;stroke-miterlimit:4;stroke-dasharray:none;stroke-opacity:1"
         d="M 70.6602,97.2266 C 69.4883,92.8984 65,90.3594 60.6211,91.5273 c -4.332,1.211 -6.8711,5.6993 -5.6602,10.0427 1.168,4.328 5.6602,6.907 10.0391,5.7 4.3398,-1.211 6.8789,-5.7 5.6602,-10.0434 z" /><path
         id="path140"
         style="fill:none;stroke:#ffffff;stroke-width:4;stroke-linecap:butt;stroke-linejoin:miter;stroke-miterlimit:4;stroke-dasharray:none;stroke-opacity:1"
         d="m 92.8516,94.1484 c -1.1719,-4.3398 -5.6602,-6.9218 -10.043,-5.7109 -4.3281,1.2109 -6.8672,5.7109 -5.6602,10.0391 1.1719,4.3434 5.6602,6.9214 10.043,5.7114 4.3281,-1.219 6.8672,-5.7114 5.6602,-10.0396 z" /><path
         id="path142"
         style="fill:none;stroke:#ffffff;stroke-width:4;stroke-linecap:butt;stroke-linejoin:miter;stroke-miterlimit:4;stroke-dasharray:none;stroke-opacity:1"
         d="m 45.1602,88.0078 c -1.211,-4.3281 -5.711,-6.9101 -10.0391,-5.6992 -4.3398,1.2109 -6.8828,5.6992 -5.7109,10.0391 1.2109,4.3398 5.7109,6.9101 10.039,5.6992 4.3399,-1.2071 6.9219,-5.6992 5.711,-10.0391 z" /><path
         id="path144"
         style="fill:none;stroke:#ffffff;stroke-width:4;stroke-linecap:butt;stroke-linejoin:miter;stroke-miterlimit:4;stroke-dasharray:none;stroke-opacity:1"
         d="m 65.7383,79.2969 c -1.207,-4.3281 -5.6992,-6.9102 -10.0391,-5.6992 -4.3281,1.2109 -6.9101,5.6992 -5.6992,10.039 1.2109,4.3321 5.6992,6.9102 10.0391,5.7031 4.3398,-1.2109 6.8711,-5.7031 5.6992,-10.0429 z" /><path
         id="path146"
         style="fill:none;stroke:#ffffff;stroke-width:4;stroke-linecap:butt;stroke-linejoin:miter;stroke-miterlimit:4;stroke-dasharray:none;stroke-opacity:1"
         d="m 87.9297,76.2188 c -1.2109,-4.3399 -5.6992,-6.9219 -10.0391,-5.711 -4.3398,1.211 -6.9101,5.711 -5.6992,10.0391 1.207,4.3398 5.6992,6.9219 10.0391,5.7109 4.3281,-1.2187 6.8711,-5.7109 5.6992,-10.039 z" /><path
         id="path148"
         style="fill:none;stroke:#ffffff;stroke-width:4;stroke-linecap:butt;stroke-linejoin:miter;stroke-miterlimit:4;stroke-dasharray:none;stroke-opacity:1"
         d="M 40.1992,70.0781 C 39.0195,65.75 34.5313,63.168 30.1602,64.3789 c -4.3399,1.2109 -6.8789,5.6992 -5.6719,10.0391 1.1719,4.3398 5.6719,6.9101 10.043,5.6992 4.3398,-1.207 6.8789,-5.6992 5.6679,-10.0391 z" /><path
         id="path150"
         style="fill:none;stroke:#ffffff;stroke-width:4;stroke-linecap:butt;stroke-linejoin:miter;stroke-miterlimit:4;stroke-dasharray:none;stroke-opacity:1"
         d="m 60.7813,61.3672 c -1.211,-4.3281 -5.7032,-6.9102 -10.043,-5.6992 -4.3281,1.2109 -6.8672,5.6992 -5.6992,10.039 1.2109,4.3321 5.6992,6.8711 10.039,5.7032 4.3321,-1.211 6.9102,-5.7032 5.7032,-10.043 z" /><path
         id="path152"
         style="fill:none;stroke:#ffffff;stroke-width:4;stroke-linecap:butt;stroke-linejoin:miter;stroke-miterlimit:4;stroke-dasharray:none;stroke-opacity:1"
         d="m 82.9688,58.2891 c -1.2071,-4.3399 -5.6993,-6.9219 -10.0391,-5.711 -4.3399,1.211 -6.8789,5.711 -5.6992,10.0391 1.2109,4.3398 5.6992,6.9219 10.039,5.7109 4.3321,-1.2187 6.9102,-5.7109 5.6993,-10.039 z" /><path
         id="path154"
         style="fill:none;stroke:#ffffff;stroke-width:4;stroke-linecap:butt;stroke-linejoin:miter;stroke-miterlimit:4;stroke-dasharray:none;stroke-opacity:1"
         d="m 35.2695,52.1484 c -1.2109,-4.3281 -5.6992,-6.9101 -10.039,-5.6992 -4.3711,1.211 -6.9102,5.6992 -5.6992,10.0391 1.207,4.3398 5.6992,6.9101 10.039,5.6992 4.3399,-1.2109 6.8789,-5.6992 5.6992,-10.0391 z m 20.5508,-8.7109 c -1.1719,-4.3672 -5.6601,-6.9102 -10.039,-5.6992 -4.3321,1.2109 -6.8711,5.6992 -5.6602,10.039 1.168,4.3321 5.6602,6.8711 10.0391,5.6993 4.3281,-1.2071 6.8711,-5.6993 5.6601,-10.0391 z" /><path
         id="path156"
         style="fill:none;stroke:#ffffff;stroke-width:4;stroke-linecap:butt;stroke-linejoin:miter;stroke-miterlimit:4;stroke-dasharray:none;stroke-opacity:1"
         d="m 78.0117,40.3594 c -1.1719,-4.3828 -5.6719,-6.9219 -10.0429,-5.711 -4.3399,1.211 -6.879,5.711 -5.668,10.0391 1.1797,4.3398 5.668,6.8828 10.039,5.7109 4.3399,-1.2109 6.879,-5.7109 5.6719,-10.039 z" /><path
         id="path158"
         style="fill:none;stroke:#ffffff;stroke-width:4;stroke-linecap:butt;stroke-linejoin:miter;stroke-miterlimit:4;stroke-dasharray:none;stroke-opacity:1"
         d="m 45.5117,31.2891 c -0.1211,-0.3907 -0.8203,-0.5391 -1.6015,-0.3516 -0.75,0.2422 -1.25,0.7109 -1.1797,1.1406 0.1211,0.3907 0.8593,0.5391 1.6093,0.3516 0.7383,-0.2031 1.25,-0.7109 1.1719,-1.1406 z m -2.7812,0.789 -2.5313,-9.3398 m 3,8.5508 -2.4179,-8.75 m 4.7304,8.75 -2.582,-9.3321 m 1.8008,8.9024 -2.4297,-8.711 m 18.9101,144.3006 -1.7617,-6.48 m 2.5,6.289 -1.8281,-6.57 m 38.4297,-3.551 -1.75,-6.489 m 1.0508,6.68 -1.8321,-6.558" /><path
         id="path160"
         style="fill:none;stroke:#ffffff;stroke-width:4;stroke-linecap:butt;stroke-linejoin:miter;stroke-miterlimit:4;stroke-dasharray:none;stroke-opacity:1"
         d="m 135.82,240.938 c 0,0 2.27,9.46 3.559,16.019 2.461,12.582 2.73,18.902 2.73,18.902 -0.039,1.758 -0.507,3.25 -2.109,3.719 l -7.301,1.992 c -1.609,0.469 -2.66,-0.55 -3.679,-2.07 0,0 -2.848,-5.863 -6.872,-17.812 C 120,255.359 117.93,247.43 117.93,247.43 m -2.852,-92.742 c -0.469,-1.598 -2.109,-2.54 -3.707,-2.071 l -62.9726,17.352 c -1.5976,0.461 -2.539,2.109 -2.0703,3.711 l 10.9727,39.797 c 0.4297,1.601 2.0781,2.543 3.6797,2.07 l 62.9685,-17.379 c 1.602,-0.43 2.531,-2.07 2.102,-3.668 l -10.973,-39.812 z m 21.602,89.652 c -5.86,2.308 -11.801,4.418 -17.891,6.328 m -46.8398,7.809 c 0,0 -15,-30.618 -23.5898,-61.719 C 38.1602,159.77 36.6797,147.43 38.1992,130.277 c 0.3203,-3.558 3.8321,-7.89 7.7813,-8.988 1.5586,-0.43 3.3593,-0.891 4.0976,-1.129 0.7813,-0.191 3.6719,-0.902 6.0938,-2.773 2.3789,-1.879 2.9687,-2.379 4.4179,-3.168 1.3985,-0.781 1.6016,-1.25 5.6602,-2.379 4.0195,-1.133 4.4883,-0.781 6.0898,-0.863 1.6094,-0.039 2.3907,0.082 5.4297,0.433 3.0118,0.387 5.8594,-0.512 6.6094,-0.703 0.7813,-0.199 2.5703,-0.699 4.1406,-1.129 3.9024,-1.101 9.1407,0.82 11.25,3.711 10.1095,13.938 15.1525,25.309 25.3905,62.301 8.551,31.058 11.399,65.039 11.399,65.039 m -73.4379,2.461 c 12.0781,-1.723 25.1172,-4.492 37.1879,-7.813 12.07,-3.359 24.691,-7.66 35.941,-12.347" /><path
         id="path162"
         style="fill:none;stroke:#ffffff;stroke-width:4;stroke-linecap:butt;stroke-linejoin:miter;stroke-miterlimit:4;stroke-dasharray:none;stroke-opacity:1"
         d="m 90.1602,130.039 c -2.6993,-9.68 -12.6993,-15.351 -22.3907,-12.691 -9.6797,2.691 -15.3906,12.691 -12.6914,22.379 2.6524,9.691 12.6914,15.351 22.3828,12.703 9.6485,-2.66 15.3477,-12.703 12.6993,-22.391 z m -33.5196,29.848 c 2.418,-0.668 4.3008,-1.68 5.1992,-2.309 0.9297,-0.578 1.211,-1.398 0.4297,-1.91 -0.8203,-0.551 -2.3476,-1.641 -3.1289,-2.34 -0.9414,-0.82 -1.6406,-1.058 -3.0508,-0.281 -2.4179,1.41 -7.5703,5.16 -8.8593,6.922 -0.6719,0.859 -0.0391,1.211 1.25,1.289 1.8711,0.07 5.4687,-0.629 8.1601,-1.371 z M 43.7109,140.75 c 1.3282,-0.434 4.6094,-2.113 5.5899,-2.82 0.9297,-0.703 2.418,-2.18 2.3008,-4.02 -0.1524,-2.113 -0.043,-6.523 0.8593,-8.012 1.211,-1.91 1.0586,-2.73 -0.6601,-2.421 -1.3711,0.281 -4.8906,1.531 -5.9024,2.031 -1.0195,0.469 -2.457,1.371 -2.9296,2.742 -0.9805,2.848 -1.168,8.668 -0.668,11.52 0.1992,1.25 0.7109,1.207 1.4101,0.98 z" /><path
         id="path164"
         style="fill:none;stroke:#ffffff;stroke-width:4;stroke-linecap:butt;stroke-linejoin:miter;stroke-miterlimit:4;stroke-dasharray:none;stroke-opacity:1"
         d="m 99.1406,148.168 c -2.4218,0.66 -4.5703,0.742 -5.6601,0.699 -1.0586,-0.078 -1.7188,-0.617 -1.3321,-1.437 0.4297,-0.903 1.1719,-2.621 1.4805,-3.641 0.3906,-1.172 0.8203,-1.75 2.4609,-1.75 2.8204,-0.039 9.1402,0.5 11.1802,1.32 1.011,0.43 0.621,1.059 -0.43,1.758 -1.57,1.063 -5.039,2.313 -7.6994,3.051 z m 1.2894,-23.051 c -1.4105,0.313 -5.0394,0.512 -6.2503,0.43 -1.168,-0.117 -3.1992,-0.617 -4.0195,-2.258 -0.9805,-1.922 -3.3204,-5.629 -4.8907,-6.449 -1.9882,-1.012 -2.3007,-1.832 -0.6601,-2.422 1.289,-0.469 5,-1.211 6.0898,-1.289 1.1406,-0.082 2.8516,-0.121 3.9492,0.859 2.3008,1.95 5.4296,6.871 6.4806,9.532 0.473,1.168 0.043,1.41 -0.699,1.597 z" /><path
         id="path166"
         style="fill:none;stroke:#ffffff;stroke-width:4;stroke-linecap:butt;stroke-linejoin:miter;stroke-miterlimit:4;stroke-dasharray:none;stroke-opacity:1"
         d="m 97.3789,230.039 6.0191,21.719" /><path
         id="path168"
         style="fill:none;stroke:#ffffff;stroke-width:4;stroke-linecap:butt;stroke-linejoin:miter;stroke-miterlimit:4;stroke-dasharray:none;stroke-opacity:1"
         d="m 99.3789,229.5 6.0121,21.719" /></g></g></svg>