<?xml version="1.0" encoding="UTF-8" standalone="no"?>
<svg
   xmlns:dc="http://purl.org/dc/elements/1.1/"
   xmlns:cc="http://creativecommons.org/ns#"
   xmlns:rdf="http://www.w3.org/1999/02/22-rdf-syntax-ns#"
   xmlns:svg="http://www.w3.org/2000/svg"
   xmlns="http://www.w3.org/2000/svg"
   viewBox="0 0 26.237499 37.637501"
   height="37.637501"
   width="26.237499"
   xml:space="preserve"
   version="1.1"
   id="svg2"><metadata
     id="metadata8"><rdf:RDF><cc:Work
         rdf:about=""><dc:format>image/svg+xml</dc:format><dc:type
           rdf:resource="http://purl.org/dc/dcmitype/StillImage" /></cc:Work></rdf:RDF></metadata><defs
     id="defs6"><clipPath
       id="clipPath18"
       clipPathUnits="userSpaceOnUse"><path
         id="path20"
         d="M 0,1 0,301 210,301 210,1 0,1 Z" /></clipPath></defs><g
     transform="matrix(1.25,0,0,-1.25,0,37.6375)"
     id="g10"><g
       transform="scale(0.1,0.1)"
       id="g12"><g
         id="g14"><g
           clip-path="url(#clipPath18)"
           id="g16"><path
             id="path22"
             style="fill:#087bbb;fill-opacity:1;fill-rule:nonzero;stroke:none"
             d="m 4.82813,4.82422 153.871,0 0,245.117 -153.871,0 0,-245.117 z" /><path
             id="path24"
             style="fill:none;stroke:#ffffff;stroke-width:3.99993992;stroke-linecap:butt;stroke-linejoin:miter;stroke-miterlimit:4;stroke-dasharray:none;stroke-opacity:1"
             d="m 158.699,249.941 -153.87087,0 0,-245.11678 153.87087,0" /><path
             id="path26"
             style="fill:#087bbb;fill-opacity:1;fill-rule:nonzero;stroke:none"
             d="m 158.699,4.82422 49.16,49.14058 0,245.1172 -153.8902,0 -49.14067,-49.141 153.87087,0 0,-245.11678" /><path
             id="path28"
             style="fill:none;stroke:#ffffff;stroke-width:3.99993992;stroke-linecap:butt;stroke-linejoin:miter;stroke-miterlimit:4;stroke-dasharray:none;stroke-opacity:1"
             d="m 158.699,4.82422 49.16,49.14058 0,245.1172 -153.8902,0 -49.14067,-49.141 153.87087,0 0,-245.11678 z" /><path
             id="path30"
             style="fill:#087bbb;fill-opacity:1;fill-rule:nonzero;stroke:none"
             d="m 158.699,249.941 49.16,49.141" /><path
             id="path32"
             style="fill:none;stroke:#ffffff;stroke-width:3.99993992;stroke-linecap:butt;stroke-linejoin:miter;stroke-miterlimit:4;stroke-dasharray:none;stroke-opacity:1"
             d="m 158.699,249.941 49.16,49.141" /><path
             id="path34"
             style="fill:#087bbb;fill-opacity:1;fill-rule:nonzero;stroke:none"
             d="m 7.32031,178.613 149.99269,0" /><path
             id="path36"
             style="fill:none;stroke:#ffffff;stroke-width:3.99993992;stroke-linecap:butt;stroke-linejoin:miter;stroke-miterlimit:4;stroke-dasharray:none;stroke-opacity:1"
             d="m 7.32031,178.613 149.99269,0" /><path
             id="path38"
             style="fill:none;stroke:#ffffff;stroke-width:3.99993992;stroke-linecap:butt;stroke-linejoin:miter;stroke-miterlimit:4;stroke-dasharray:none;stroke-opacity:1"
             d="m 42.3203,211.953 43.75,0" /><path
             id="path40"
             style="fill:none;stroke:#ffffff;stroke-width:3.99993992;stroke-linecap:butt;stroke-linejoin:miter;stroke-miterlimit:4;stroke-dasharray:none;stroke-opacity:1"
             d="m 24.8203,196.953 77.5,0 0,31.25 -77.5,0 0,-31.25 z" /><path
             id="path42"
             style="fill:#ffffff;fill-opacity:1;fill-rule:nonzero;stroke:none"
             d="m 36.7148,65.4297 0,58.3203 L 92.3789,95.5586 36.7148,65.4297" /><path
             id="path44"
             style="fill:#ffffff;fill-opacity:1;fill-rule:nonzero;stroke:none"
             d="m 102.105,68.0859 17.2969,0 0,54.0039 -17.2969,0 0,-54.0039 z" /><path
             id="path46"
             style="fill:none;stroke:#ffffff;stroke-width:6.99996996;stroke-linecap:butt;stroke-linejoin:miter;stroke-miterlimit:4;stroke-dasharray:none;stroke-opacity:1"
             d="m 79.1758,31.1914 c 34.9882,0 63.3512,28.3594 63.3512,63.3516 0,34.988 -28.363,63.355 -63.3512,63.355 -34.9922,0 -63.3594,-28.367 -63.3594,-63.355 0,-34.9922 28.3672,-63.3516 63.3594,-63.3516 z" /></g></g></g></g></svg>