<svg xmlns="http://www.w3.org/2000/svg" viewBox="0 0 26.25 37.5" height="37.5" width="26.25"><path d="M.605 37.021h19.234V6.381H.605v30.64z" fill="#087bbb"/><path d="M19.839 6.381H.605v30.64h19.234" fill="none" stroke="#fff" stroke-width=".5"/><path d="M19.839 37.021l6.143-6.142V.239H6.747L.605 6.38h19.234v30.64" fill="#087bbb"/><path d="M19.839 37.021l6.143-6.142V.239H6.747L.605 6.38h19.234v30.64z" fill="none" stroke="#fff" stroke-width=".5"/><path d="M19.839 6.381L25.982.24" fill="#087bbb"/><path d="M19.839 6.381L25.982.24M.913 15.297h18.75M5.288 11.132h5.468M3.1 13.007h9.688V9.101H3.1v3.906z" fill="none" stroke="#fff" stroke-width=".5"/><path d="M4.59 29.449v-7.29l6.957 3.52-6.957 3.77M12.764 29.116h2.162v-6.752h-2.162v6.752z" fill="#fff"/><path d="M9.897 33.725a7.918 7.918 0 0 0 7.92-7.919 7.921 7.921 0 0 0-15.84 0 7.918 7.918 0 0 0 7.92 7.92z" fill="none" stroke="#fff" stroke-width=".875"/></svg>