<?xml version="1.0" encoding="UTF-8" standalone="no"?>
<svg
   xmlns:dc="http://purl.org/dc/elements/1.1/"
   xmlns:cc="http://creativecommons.org/ns#"
   xmlns:rdf="http://www.w3.org/1999/02/22-rdf-syntax-ns#"
   xmlns:svg="http://www.w3.org/2000/svg"
   xmlns="http://www.w3.org/2000/svg"
   viewBox="0 0 47.5 42.5"
   height="42.5"
   width="47.5"
   xml:space="preserve"
   version="1.1"
   id="svg2"><metadata
     id="metadata8"><rdf:RDF><cc:Work
         rdf:about=""><dc:format>image/svg+xml</dc:format><dc:type
           rdf:resource="http://purl.org/dc/dcmitype/StillImage" /></cc:Work></rdf:RDF></metadata><defs
     id="defs6"><clipPath
       id="clipPath18"
       clipPathUnits="userSpaceOnUse"><path
         id="path20"
         d="M 0,9 0,338 380,338 380,9 0,9 Z" /></clipPath></defs><g
     transform="matrix(1.25,0,0,-1.25,0,42.5)"
     id="g10"><g
       transform="scale(0.1,0.1)"
       id="g12"><g
         id="g14"><g
           clip-path="url(#clipPath18)"
           id="g16"><path
             id="path22"
             style="fill:#231f20;fill-opacity:1;fill-rule:nonzero;stroke:none"
             d="m 312.301,151.871 -28.781,-38.402 -238.6411,0 39.1016,39.062 228.3205,-0.66" /><path
             id="path24"
             style="fill:none;stroke:#ffffff;stroke-width:3.99993992;stroke-linecap:butt;stroke-linejoin:miter;stroke-miterlimit:4;stroke-dasharray:none;stroke-opacity:1"
             d="m 312.301,151.871 -28.781,-38.402 -238.6411,0 39.1016,39.062 228.3205,-0.66 z" /><path
             id="path26"
             style="fill:#087bbb;fill-opacity:1;fill-rule:nonzero;stroke:none"
             d="m 44.3008,70.2617 229.02,0 0,42.6992 -229.02,0 0,-42.6992 z" /><path
             id="path28"
             style="fill:none;stroke:#ffffff;stroke-width:3.99993992;stroke-linecap:butt;stroke-linejoin:miter;stroke-miterlimit:4;stroke-dasharray:none;stroke-opacity:1"
             d="m 44.3008,70.2617 229.02,0 0,42.6992 -229.02,0 0,-42.6992 z" /><path
             id="path30"
             style="fill:#087bbb;fill-opacity:1;fill-rule:nonzero;stroke:none"
             d="m 43.5508,122.57 228.199,0 0,172.07 -228.199,0 0,-172.07 z" /><path
             id="path32"
             style="fill:none;stroke:#ffffff;stroke-width:3.99993992;stroke-linecap:butt;stroke-linejoin:miter;stroke-miterlimit:4;stroke-dasharray:none;stroke-opacity:1"
             d="m 43.5508,122.57 228.199,0 0,172.07 -228.199,0 0,-172.07 z" /><path
             id="path34"
             style="fill:#087bbb;fill-opacity:1;fill-rule:nonzero;stroke:none"
             d="m 271.762,122.57 38.937,38.95 0,172.07 -38.937,-38.949 0,-172.071" /><path
             id="path36"
             style="fill:none;stroke:#ffffff;stroke-width:3.99993992;stroke-linecap:butt;stroke-linejoin:miter;stroke-miterlimit:4;stroke-dasharray:none;stroke-opacity:1"
             d="m 271.762,122.57 38.937,38.95 0,172.07 -38.937,-38.949 0,-172.071 z" /><path
             id="path38"
             style="fill:#087bbb;fill-opacity:1;fill-rule:nonzero;stroke:none"
             d="m 357.969,32.7305 17.461,34.9179 -39.918,0 -17.461,-34.9179 39.918,0" /><path
             id="path40"
             style="fill:none;stroke:#ffffff;stroke-width:3.99993992;stroke-linecap:butt;stroke-linejoin:miter;stroke-miterlimit:4;stroke-dasharray:none;stroke-opacity:1"
             d="m 357.969,32.7305 17.461,34.9179 -39.918,0 -17.461,-34.9179 39.918,0 z" /><path
             id="path42"
             style="fill:#087bbb;fill-opacity:1;fill-rule:nonzero;stroke:none"
             d="m 318.051,21.4805 39.918,0 0,11.25 -39.918,0 0,-11.25 z" /><path
             id="path44"
             style="fill:none;stroke:#ffffff;stroke-width:3.99993992;stroke-linecap:butt;stroke-linejoin:miter;stroke-miterlimit:4;stroke-dasharray:none;stroke-opacity:1"
             d="m 318.051,21.4805 39.918,0 0,11.25 -39.918,0 0,-11.25 z" /><path
             id="path46"
             style="fill:#231f20;fill-opacity:1;fill-rule:nonzero;stroke:none"
             d="m 357.66,21.1602 0.11,11.5703 17.46,34.9179 -0.07,-24.0273 -17.5,-22.4609" /><path
             id="path48"
             style="fill:none;stroke:#ffffff;stroke-width:3.99993992;stroke-linecap:butt;stroke-linejoin:miter;stroke-miterlimit:4;stroke-dasharray:none;stroke-opacity:1"
             d="m 357.66,21.1602 0.11,11.5703 17.46,34.9179 -0.07,-24.0273 -17.5,-22.4609 z" /><path
             id="path50"
             style="fill:#087bbb;fill-opacity:1;fill-rule:nonzero;stroke:none"
             d="m 273.121,70.1484 0,42.7306 38.68,38.711 0,-42.731 -38.68,-38.7106" /><path
             id="path52"
             style="fill:none;stroke:#ffffff;stroke-width:3.99993992;stroke-linecap:butt;stroke-linejoin:miter;stroke-miterlimit:4;stroke-dasharray:none;stroke-opacity:1"
             d="m 273.121,70.1484 0,42.7306 38.68,38.711 0,-42.731 -38.68,-38.7106 z" /><path
             id="path54"
             style="fill:#087bbb;fill-opacity:1;fill-rule:nonzero;stroke:none"
             d="m 81.4492,274.801 152.4998,0 c 9.922,0 17.961,-8.051 17.961,-17.973 l 0,-96.328 c 0,-9.922 -8.039,-17.969 -17.961,-17.969 l -152.4998,0 c -9.9297,0 -17.9687,8.047 -17.9687,17.969 l 0,96.328 c 0,9.922 8.039,17.973 17.9687,17.973" /><path
             id="path56"
             style="fill:none;stroke:#ffffff;stroke-width:3.99993992;stroke-linecap:butt;stroke-linejoin:miter;stroke-miterlimit:4;stroke-dasharray:none;stroke-opacity:1"
             d="m 81.4492,274.801 152.4998,0 c 9.922,0 17.961,-8.051 17.961,-17.973 l 0,-96.328 c 0,-9.922 -8.039,-17.969 -17.961,-17.969 l -152.4998,0 c -9.9297,0 -17.9687,8.047 -17.9687,17.969 l 0,96.328 c 0,9.922 8.039,17.973 17.9687,17.973 z" /><path
             id="path58"
             style="fill:#087bbb;fill-opacity:1;fill-rule:nonzero;stroke:none"
             d="m 310.699,333.59 -221.949,0 -45.1992,-38.949 228.2112,0 38.937,38.949" /><path
             id="path60"
             style="fill:none;stroke:#ffffff;stroke-width:3.99993992;stroke-linecap:butt;stroke-linejoin:miter;stroke-miterlimit:4;stroke-dasharray:none;stroke-opacity:1"
             d="m 310.699,333.59 -221.949,0 -45.1992,-38.949 228.2112,0 38.937,38.949 z" /><path
             id="path62"
             style="fill:#087bbb;fill-opacity:1;fill-rule:nonzero;stroke:none"
             d="m 266.52,14.8398 0,13.8204 29.89,41.3711 0,-25.3125 -29.89,-29.879" /><path
             id="path64"
             style="fill:none;stroke:#ffffff;stroke-width:3.99993992;stroke-linecap:butt;stroke-linejoin:miter;stroke-miterlimit:4;stroke-dasharray:none;stroke-opacity:1"
             d="m 266.52,14.8398 0,13.8204 29.89,41.3711 0,-25.3125 -29.89,-29.879 z" /><path
             id="path66"
             style="fill:#087bbb;fill-opacity:1;fill-rule:nonzero;stroke:none"
             d="m 266.52,28.4688 -262.60984,0 29.87894,41.5625 262.6209,0 -29.89,-41.5625" /><path
             id="path68"
             style="fill:none;stroke:#ffffff;stroke-width:3.99993992;stroke-linecap:butt;stroke-linejoin:miter;stroke-miterlimit:4;stroke-dasharray:none;stroke-opacity:1"
             d="m 266.52,28.4688 -262.60984,0 29.87894,41.5625 262.6209,0 -29.89,-41.5625 z" /><path
             id="path70"
             style="fill:#087bbb;fill-opacity:1;fill-rule:nonzero;stroke:none"
             d="m 3.75,14.8398 262.77,0 0,13.6289 -262.77,0 0,-13.6289 z" /><path
             id="path72"
             style="fill:none;stroke:#ffffff;stroke-width:3.99993992;stroke-linecap:butt;stroke-linejoin:miter;stroke-miterlimit:4;stroke-dasharray:none;stroke-opacity:1"
             d="m 3.75,14.8398 262.77,0 0,13.6289 -262.77,0 0,-13.6289 z" /><path
             id="path74"
             style="fill:none;stroke:#087bbb;stroke-width:5;stroke-linecap:butt;stroke-linejoin:miter;stroke-miterlimit:4;stroke-dasharray:none;stroke-opacity:1"
             d="m 365.469,66.3984 c 31.211,15 6.25,78.6326 -55.938,46.7616" /><path
             id="path76"
             style="fill:#ffffff;fill-opacity:1;fill-rule:nonzero;stroke:none"
             d="m 153.051,217.301 8.32,0 1.91,-1.922 6.41,0 7.11,5.242 7.73,0 6.559,-7.312 7.308,0.043 7.973,7.308 6.68,0.039 5.738,-6.289 6.602,0 2.5,4.762 19.3,-11.723 -13.519,-11.398 -80.582,-0.16 0,-2.621 -12.578,0 c -3.172,0 -5.864,-1.872 -7.114,-4.571 -5.976,-9.41 -16.41,-15.66 -28.32,-15.699 -18.5585,-0.039 -33.6288,15.121 -33.6288,33.789 0,18.672 15.0703,33.871 33.6288,33.871 11.762,0.039 22.113,-6.019 28.082,-15.238 1.18,-2.934 4.031,-4.961 7.352,-4.961 l 12.539,0 0,-3.16" /><path
             id="path78"
             style="fill:none;stroke:#231f20;stroke-width:3.50006008;stroke-linecap:butt;stroke-linejoin:round;stroke-miterlimit:4;stroke-dasharray:none;stroke-opacity:1"
             d="m 239.648,201.52 -86.558,-0.122 c -3.399,-0.039 -8.168,-0.937 -12.539,-2.777 4.371,-1.832 9.14,-2.73 12.539,-2.73" /><path
             id="path80"
             style="fill:none;stroke:#231f20;stroke-width:3.50006008;stroke-linecap:butt;stroke-linejoin:round;stroke-miterlimit:4;stroke-dasharray:none;stroke-opacity:1"
             d="m 243.398,209.41 -86.558,-0.121 c -3.871,-0.039 -11.918,0.742 -13.719,1.481" /><path
             id="path82"
             style="fill:#ffffff;fill-opacity:1;fill-rule:nonzero;stroke:none"
             d="m 105.078,176.629 c 16.563,0.043 30,13.601 30,30.281 0,16.68 -13.437,30.149 -30,30.149 -16.5585,-0.039 -29.9999,-13.59 -29.9999,-30.27 0,-16.68 13.4414,-30.199 29.9999,-30.16" /><path
             id="path84"
             style="fill:none;stroke:#231f20;stroke-width:2.5;stroke-linecap:butt;stroke-linejoin:round;stroke-miterlimit:4;stroke-dasharray:none;stroke-opacity:1"
             d="m 105.078,176.629 c 16.563,0.043 30,13.601 30,30.281 0,16.68 -13.437,30.149 -30,30.149 -16.5585,-0.039 -29.9999,-13.59 -29.9999,-30.27 0,-16.68 13.4414,-30.199 29.9999,-30.16 z" /><path
             id="path86"
             style="fill:#ffffff;fill-opacity:1;fill-rule:nonzero;stroke:none"
             d="m 87.8906,198.898 c 4.3399,0 7.8477,3.551 7.8477,7.93 0,4.371 -3.5078,7.934 -7.8477,7.934 C 83.5508,214.719 80,211.16 80,206.789 c 0,-4.379 3.5508,-7.891 7.8906,-7.891" /><path
             id="path88"
             style="fill:none;stroke:#231f20;stroke-width:3.50006008;stroke-linecap:butt;stroke-linejoin:round;stroke-miterlimit:4;stroke-dasharray:none;stroke-opacity:1"
             d="m 87.8906,198.898 c 4.3399,0 7.8477,3.551 7.8477,7.93 0,4.371 -3.5078,7.934 -7.8477,7.934 C 83.5508,214.719 80,211.16 80,206.789 c 0,-4.379 3.5508,-7.891 7.8906,-7.891 z" /></g></g></g></g></svg>