<?xml version="1.0" encoding="UTF-8" standalone="no"?>
<svg
   xmlns:dc="http://purl.org/dc/elements/1.1/"
   xmlns:cc="http://creativecommons.org/ns#"
   xmlns:rdf="http://www.w3.org/1999/02/22-rdf-syntax-ns#"
   xmlns:svg="http://www.w3.org/2000/svg"
   xmlns="http://www.w3.org/2000/svg"
   viewBox="0 0 36.349998 40.512501"
   height="40.512501"
   width="36.349998"
   xml:space="preserve"
   version="1.1"
   id="svg2"><metadata
     id="metadata8"><rdf:RDF><cc:Work
         rdf:about=""><dc:format>image/svg+xml</dc:format><dc:type
           rdf:resource="http://purl.org/dc/dcmitype/StillImage" /></cc:Work></rdf:RDF></metadata><defs
     id="defs6" /><g
     transform="matrix(1.25,0,0,-1.25,0,40.5125)"
     id="g10"><g
       transform="scale(0.1,0.1)"
       id="g12"><path
         id="path14"
         style="fill:#000000;fill-opacity:1;fill-rule:nonzero;stroke:none"
         d="m 5.8125,3.81641 236.648,0 0,95.0781 -236.648,0 0,-95.0781 z" /><path
         id="path16"
         style="fill:none;stroke:#ffffff;stroke-width:4;stroke-linecap:butt;stroke-linejoin:miter;stroke-miterlimit:4;stroke-dasharray:none;stroke-opacity:1"
         d="m 5.8125,98.8945 0,-95.07809 236.6485,0 0,95.07809" /><path
         id="path18"
         style="fill:#087bbb;fill-opacity:1;fill-rule:nonzero;stroke:none"
         d="m 5.8125,288.547 41.3359,32.293 237.7146,0 -42.402,-32.293 -236.6485,0" /><path
         id="path20"
         style="fill:none;stroke:#ffffff;stroke-width:4;stroke-linecap:butt;stroke-linejoin:miter;stroke-miterlimit:4;stroke-dasharray:none;stroke-opacity:1"
         d="m 5.8125,288.547 41.3359,32.293 237.7146,0 -42.402,-32.293 -236.6485,0 z" /><path
         id="path22"
         style="fill:#000000;fill-opacity:1;fill-rule:nonzero;stroke:none"
         d="m 242.461,2.00391 42.402,34.27339 0,96.4067 -42.402,-32.286 0,-98.39409" /><path
         id="path24"
         style="fill:none;stroke:#ffffff;stroke-width:4;stroke-linecap:round;stroke-linejoin:round;stroke-miterlimit:4;stroke-dasharray:none;stroke-opacity:1"
         d="m 242.461,2.00391 42.402,34.27339 0,96.4067 -42.402,-32.286 0,-98.39409 z" /><path
         id="path26"
         style="fill:none;stroke:#ffffff;stroke-width:4;stroke-linecap:round;stroke-linejoin:round;stroke-miterlimit:4;stroke-dasharray:none;stroke-opacity:1"
         d="m 242.461,68.0547 -236.6485,0" /><path
         id="path28"
         style="fill:none;stroke:#ffffff;stroke-width:4;stroke-linecap:round;stroke-linejoin:round;stroke-miterlimit:4;stroke-dasharray:none;stroke-opacity:1"
         d="m 242.461,35.2813 -236.6485,0" /><path
         id="path30"
         style="fill:none;stroke:#ffffff;stroke-width:4;stroke-linecap:round;stroke-linejoin:round;stroke-miterlimit:4;stroke-dasharray:none;stroke-opacity:1"
         d="M 281.691,63.7891 244.395,34.7852" /><path
         id="path32"
         style="fill:none;stroke:#ffffff;stroke-width:4;stroke-linecap:round;stroke-linejoin:round;stroke-miterlimit:4;stroke-dasharray:none;stroke-opacity:1"
         d="m 75.8984,33.6406 0,-29.74607" /><path
         id="path34"
         style="fill:none;stroke:#ffffff;stroke-width:4;stroke-linecap:round;stroke-linejoin:round;stroke-miterlimit:4;stroke-dasharray:none;stroke-opacity:1"
         d="m 167.422,33.6406 0,-29.74607" /><path
         id="path36"
         style="fill:none;stroke:#ffffff;stroke-width:4;stroke-linecap:round;stroke-linejoin:round;stroke-miterlimit:4;stroke-dasharray:none;stroke-opacity:1"
         d="m 123.496,66.6094 0,-29.7656" /><path
         id="path38"
         style="fill:none;stroke:#ffffff;stroke-width:4;stroke-linecap:round;stroke-linejoin:round;stroke-miterlimit:4;stroke-dasharray:none;stroke-opacity:1"
         d="m 31.9922,66.6094 0,-29.7656" /><path
         id="path40"
         style="fill:none;stroke:#ffffff;stroke-width:4;stroke-linecap:round;stroke-linejoin:round;stroke-miterlimit:4;stroke-dasharray:none;stroke-opacity:1"
         d="m 215.02,66.6094 0,-29.7656" /><path
         id="path42"
         style="fill:#087bbb;fill-opacity:1;fill-rule:nonzero;stroke:none"
         d="m 243.613,290.281 0,-222.3122 -239.00362,0 0,222.7612 239.00362,-0.449" /><path
         id="path44"
         style="fill:none;stroke:#ffffff;stroke-width:4;stroke-linecap:butt;stroke-linejoin:miter;stroke-miterlimit:4;stroke-dasharray:none;stroke-opacity:1"
         d="m 243.613,290.281 0,-222.3122 -239.00362,0 0,222.7612 239.00362,-0.449 z" /><path
         id="path46"
         style="fill:#087bbb;fill-opacity:1;fill-rule:nonzero;stroke:none"
         d="m 283.359,102.012 0,218.054 -40.535,-30.586 0,-220.0855 40.535,32.6175" /><path
         id="path48"
         style="fill:none;stroke:#ffffff;stroke-width:4;stroke-linecap:butt;stroke-linejoin:miter;stroke-miterlimit:4;stroke-dasharray:none;stroke-opacity:1"
         d="m 283.359,102.012 0,218.054 -40.535,-30.586 0,-220.0855 40.535,32.6175 z" /><path
         id="path50"
         style="fill:none;stroke:#ffffff;stroke-width:4;stroke-linecap:round;stroke-linejoin:round;stroke-miterlimit:4;stroke-dasharray:none;stroke-opacity:1"
         d="m 274.406,92.9375 0,-35.1367" /><path
         id="path52"
         style="fill:none;stroke:#ffffff;stroke-width:4;stroke-linecap:round;stroke-linejoin:round;stroke-miterlimit:4;stroke-dasharray:none;stroke-opacity:1"
         d="m 260.656,47.3516 0,-35.1368" /><path
         id="path54"
         style="fill:#ffffff;fill-opacity:1;fill-rule:nonzero;stroke:none"
         d="m 50.5469,205.82 92.2581,0 0,6.239 20.605,-12.489 -20.605,-12.82 0,6.227 -92.2581,0 0,12.843" /><path
         id="path56"
         style="fill:#ffffff;fill-opacity:1;fill-rule:nonzero;stroke:none"
         d="m 192.512,172.82 -77.59,0 0,6.243 -20.5939,-12.493 20.5939,-12.832 0,6.25 77.59,0 0,12.832" /><path
         id="path58"
         style="fill:#ffffff;fill-opacity:1;fill-rule:nonzero;stroke:none"
         d="m 222.266,93.7188 c -4.219,-0.4649 -8.008,2.539 -8.485,6.7422 -0.48,4.195 2.547,7.984 6.727,8.457 4.199,0.484 8,-2.523 8.496,-6.723 0.469,-4.1794 -2.559,-7.9958 -6.738,-8.4762" /><path
         id="path60"
         style="fill:none;stroke:#000000;stroke-width:2;stroke-linecap:butt;stroke-linejoin:miter;stroke-miterlimit:4;stroke-dasharray:none;stroke-opacity:1"
         d="m 222.266,93.7188 c -4.219,-0.4649 -8.008,2.539 -8.485,6.7422 -0.48,4.195 2.547,7.984 6.727,8.457 4.199,0.484 8,-2.523 8.496,-6.723 0.469,-4.1794 -2.559,-7.9958 -6.738,-8.4762 z" /><path
         id="path62"
         style="fill:#ffffff;fill-opacity:1;fill-rule:nonzero;stroke:none"
         d="m 226.953,110.184 -13.172,-16.2192 -46.926,38.1722 13.196,16.234 46.902,-38.187" /><path
         id="path64"
         style="fill:none;stroke:#000000;stroke-width:2;stroke-linecap:butt;stroke-linejoin:miter;stroke-miterlimit:4;stroke-dasharray:none;stroke-opacity:1"
         d="m 226.953,110.184 -13.172,-16.2192 -46.926,38.1722 13.196,16.234 46.902,-38.187 z" /><path
         id="path66"
         style="fill:#ffffff;fill-opacity:1;fill-rule:nonzero;stroke:none"
         d="m 57.1875,193.719 c -4.4531,-38.789 23.4961,-73.946 62.2965,-78.387 38.789,-4.445 73.973,23.508 78.407,62.297 4.433,38.789 -23.516,73.953 -62.293,78.394 -38.8011,4.446 -73.9769,-23.515 -78.4105,-62.304 z m 9.8438,-1.114 c 3.8281,33.372 34.0737,57.403 67.4417,53.586 33.351,-3.839 57.402,-34.093 53.574,-67.453 -3.809,-33.355 -34.07,-57.39 -67.442,-53.57 -33.3472,3.828 -57.4019,34.082 -53.5737,67.437" /><path
         id="path68"
         style="fill:none;stroke:#000000;stroke-width:2;stroke-linecap:butt;stroke-linejoin:miter;stroke-miterlimit:4;stroke-dasharray:none;stroke-opacity:1"
         d="m 57.1875,193.719 c -4.4531,-38.789 23.4961,-73.946 62.2965,-78.387 38.789,-4.445 73.973,23.508 78.407,62.297 4.433,38.789 -23.516,73.953 -62.293,78.394 -38.8011,4.446 -73.9769,-23.515 -78.4105,-62.304 z m 9.8438,-1.114 c 3.8281,33.372 34.0737,57.403 67.4417,53.586 33.351,-3.839 57.402,-34.093 53.574,-67.453 -3.809,-33.355 -34.07,-57.39 -67.442,-53.57 -33.3472,3.828 -57.4019,34.082 -53.5737,67.437 z" /><path
         id="path70"
         style="fill:#ffffff;fill-opacity:1;fill-rule:nonzero;stroke:none"
         d="m 48.4766,190.613 c -4.4336,-38.785 23.5078,-73.965 62.2854,-78.398 38.801,-4.453 73.965,23.5 78.418,62.289 4.433,38.797 -23.524,73.961 -62.305,78.418 -38.7773,4.43 -73.9648,-23.539 -78.3984,-62.309 z m 9.8437,-1.133 c 3.8203,33.379 34.0742,57.422 67.4417,53.598 33.359,-3.828 57.383,-34.082 53.574,-67.453 -3.828,-33.352 -34.082,-57.395 -67.441,-53.566 -33.3481,3.812 -57.3911,34.066 -53.5747,67.421" /><path
         id="path72"
         style="fill:none;stroke:#000000;stroke-width:2;stroke-linecap:butt;stroke-linejoin:miter;stroke-miterlimit:4;stroke-dasharray:none;stroke-opacity:1"
         d="m 48.4766,190.613 c -4.4336,-38.785 23.5078,-73.965 62.2854,-78.398 38.801,-4.453 73.965,23.5 78.418,62.289 4.433,38.797 -23.524,73.961 -62.305,78.418 -38.7773,4.43 -73.9648,-23.539 -78.3984,-62.309 z m 9.8437,-1.133 c 3.8203,33.379 34.0742,57.422 67.4417,53.598 33.359,-3.828 57.383,-34.082 53.574,-67.453 -3.828,-33.352 -34.082,-57.395 -67.441,-53.566 -33.3481,3.812 -57.3911,34.066 -53.5747,67.421 z" /><path
         id="path74"
         style="fill:none;stroke:#ffffff;stroke-width:5;stroke-linecap:butt;stroke-linejoin:miter;stroke-miterlimit:4;stroke-dasharray:none;stroke-opacity:1"
         d="m 192.512,165 39.207,0" /><path
         id="path76"
         style="fill:none;stroke:#ffffff;stroke-width:5;stroke-linecap:butt;stroke-linejoin:miter;stroke-miterlimit:4;stroke-dasharray:none;stroke-opacity:1"
         d="m 18.0977,199.59 39.207,0" /></g></g></svg>