<svg xmlns="http://www.w3.org/2000/svg" viewBox="0 0 51.25 42.5" height="42.5" width="51.25"><path d="M6.324 32.745h28.573V27.34H6.324v5.405z" fill="#087bbb"/><path d="M6.324 32.745h28.573V27.34H6.324v5.405z" fill="none" stroke="#fff" stroke-width=".5"/><path d="M39.736 22.482v5.424l-4.838 4.84V27.34H6.323" fill="#087bbb"/><path d="M39.736 22.482v5.424l-4.838 4.84V27.34H6.323" fill="none" stroke="#fff" stroke-width=".5"/><path d="M6.324 22.482h33.412" fill="none" stroke="#fff" stroke-width=".5" stroke-linejoin="bevel"/><path d="M34.898 27.34l4.838-4.859" fill="#231f20"/><path d="M34.898 27.34l4.838-4.859" fill="none" stroke="#fff" stroke-width=".5" stroke-linejoin="bevel"/><path d="M33.486 36.636v-3.169H.605l3.741-3.744h32.88v3.168l-3.74 3.745" fill="#087bbb"/><path d="M33.486 36.636v-3.169H.605l3.741-3.744h32.88v3.168l-3.74 3.745z" fill="none" stroke="#fff" stroke-width=".5"/><path d="M.605 36.636h32.881v-3.169H.605v3.17z" fill="#087bbb"/><path d="M.605 36.636h32.881v-3.169H.605v3.17z" fill="none" stroke="#fff" stroke-width=".5"/><path d="M33.486 33.467l3.74-3.744" fill="#231f20"/><path d="M33.486 33.467l3.74-3.744" fill="none" stroke="#fff" stroke-width=".5" stroke-linejoin="bevel"/><path d="M6.324 27.34h28.535V5.729H6.324v21.61z" fill="#087bbb"/><path d="M6.324 27.34h28.535V5.729H6.324v21.61z" fill="none" stroke="#fff" stroke-width=".5"/><path d="M34.859 27.34l4.877-4.859V.852H11.163l-4.84 4.878H34.86v21.61" fill="#087bbb"/><path d="M34.859 27.34l4.877-4.859V.852H11.163l-4.84 4.878H34.86v21.61z" fill="none" stroke="#fff" stroke-width=".5"/><path d="M8.779 24.776h23.583V8.224H8.78v16.552z" fill="#087bbb"/><path d="M8.779 24.776h23.583V8.224H8.78v16.552z" fill="none" stroke="#fff" stroke-width=".5"/><path d="M34.859 5.728L39.736.85" fill="#231f20"/><path d="M34.859 5.728L39.736.85" fill="none" stroke="#fff" stroke-width=".5" stroke-linejoin="bevel"/><path d="M50.371 37.53l-4.931-6.846-4.679 3.375 4.938 6.84 4.672-3.37" fill="#087bbb"/><path d="M50.371 37.53l-4.931-6.846-4.679 3.375 4.938 6.84 4.672-3.37z" fill="none" stroke="#fff" stroke-width=".5"/><path d="M43.189 32.286c-.84-1.406-2.359-.542-2.037-2.881.328-2.407-1.288-3.999-4.218-2.676" fill="none" stroke="#087bbb" stroke-width=".5"/><path d="M15.689 15.304a2.68 2.68 0 1 0 0-5.361 2.68 2.68 0 0 0-2.682 2.68 2.683 2.683 0 0 0 2.682 2.68zM25.341 15.304a2.682 2.682 0 0 0 2.681-2.681 2.679 2.679 0 0 0-2.68-2.68 2.679 2.679 0 0 0-2.68 2.68 2.682 2.682 0 0 0 2.68 2.68zM20.518 23.639a2.682 2.682 0 0 0 2.68-2.681 2.683 2.683 0 1 0-5.366 0 2.683 2.683 0 0 0 2.686 2.68zM15.689 15.304l1.503 2.553.596-1.597 1.5 2.295" fill="none" stroke="#fff" stroke-width=".5"/><path d="M21.982 18.755l1.094-2.398.9 1.398 1.365-2.451M22.661 12.622l-2.377.743.497-1.396-2.408.654" fill="none" stroke="#fff" stroke-width=".5"/></svg>