<?xml version="1.0" encoding="UTF-8" standalone="no"?>
<svg
   xmlns:dc="http://purl.org/dc/elements/1.1/"
   xmlns:cc="http://creativecommons.org/ns#"
   xmlns:rdf="http://www.w3.org/1999/02/22-rdf-syntax-ns#"
   xmlns:svg="http://www.w3.org/2000/svg"
   xmlns="http://www.w3.org/2000/svg"
   viewBox="0 0 37.5 42.5"
   height="42.5"
   width="37.5"
   xml:space="preserve"
   version="1.1"
   id="svg2"><metadata
     id="metadata8"><rdf:RDF><cc:Work
         rdf:about=""><dc:format>image/svg+xml</dc:format><dc:type
           rdf:resource="http://purl.org/dc/dcmitype/StillImage" /></cc:Work></rdf:RDF></metadata><defs
     id="defs6" /><g
     transform="matrix(1.25,0,0,-1.25,0,42.5)"
     id="g10"><g
       transform="scale(0.1,0.1)"
       id="g12"><path
         id="path14"
         style="fill:#000000;fill-opacity:1;fill-rule:nonzero;stroke:none"
         d="m 5.82031,13.8008 236.641,0 0,95.0781 -236.641,0 0,-95.0781 z" /><path
         id="path16"
         style="fill:none;stroke:#ffffff;stroke-width:4;stroke-linecap:butt;stroke-linejoin:miter;stroke-miterlimit:4;stroke-dasharray:none;stroke-opacity:1"
         d="m 5.82031,108.875 0,-95.0703 236.64069,0 0,95.0703" /><path
         id="path18"
         style="fill:#087bbb;fill-opacity:1;fill-rule:nonzero;stroke:none"
         d="m 5.82031,298.531 41.32809,32.297 237.6916,0 -42.379,-32.297 -236.64069,0" /><path
         id="path20"
         style="fill:none;stroke:#ffffff;stroke-width:4;stroke-linecap:butt;stroke-linejoin:miter;stroke-miterlimit:4;stroke-dasharray:none;stroke-opacity:1"
         d="m 5.82031,298.527 41.32809,32.309 237.6916,0 -42.379,-32.309 -236.64069,0 z" /><path
         id="path22"
         style="fill:#000000;fill-opacity:1;fill-rule:nonzero;stroke:none"
         d="m 242.461,12.0117 42.379,34.25 0,96.4103 -42.379,-32.274 0,-98.3863" /><path
         id="path24"
         style="fill:none;stroke:#ffffff;stroke-width:4;stroke-linecap:round;stroke-linejoin:round;stroke-miterlimit:4;stroke-dasharray:none;stroke-opacity:1"
         d="m 242.461,12.0078 42.379,34.2578 0,96.4024 -42.379,-32.262 0,-98.3982 z" /><path
         id="path26"
         style="fill:none;stroke:#ffffff;stroke-width:4;stroke-linecap:round;stroke-linejoin:round;stroke-miterlimit:4;stroke-dasharray:none;stroke-opacity:1"
         d="m 242.461,78.0547 -236.64069,0" /><path
         id="path28"
         style="fill:none;stroke:#ffffff;stroke-width:4;stroke-linecap:round;stroke-linejoin:round;stroke-miterlimit:4;stroke-dasharray:none;stroke-opacity:1"
         d="m 242.461,45.2852 -236.64069,0" /><path
         id="path30"
         style="fill:none;stroke:#ffffff;stroke-width:4;stroke-linecap:round;stroke-linejoin:round;stroke-miterlimit:4;stroke-dasharray:none;stroke-opacity:1"
         d="M 281.68,73.8047 244.379,44.7773" /><path
         id="path32"
         style="fill:none;stroke:#ffffff;stroke-width:4;stroke-linecap:round;stroke-linejoin:round;stroke-miterlimit:4;stroke-dasharray:none;stroke-opacity:1"
         d="m 75.8984,43.6484 0,-29.7734" /><path
         id="path34"
         style="fill:none;stroke:#ffffff;stroke-width:4;stroke-linecap:round;stroke-linejoin:round;stroke-miterlimit:4;stroke-dasharray:none;stroke-opacity:1"
         d="m 167.422,43.6484 0,-29.7734" /><path
         id="path36"
         style="fill:none;stroke:#ffffff;stroke-width:4;stroke-linecap:round;stroke-linejoin:round;stroke-miterlimit:4;stroke-dasharray:none;stroke-opacity:1"
         d="m 123.48,76.6172 0,-29.7695" /><path
         id="path38"
         style="fill:none;stroke:#ffffff;stroke-width:4;stroke-linecap:round;stroke-linejoin:round;stroke-miterlimit:4;stroke-dasharray:none;stroke-opacity:1"
         d="m 31.9883,76.6172 0,-29.7695" /><path
         id="path40"
         style="fill:none;stroke:#ffffff;stroke-width:4;stroke-linecap:round;stroke-linejoin:round;stroke-miterlimit:4;stroke-dasharray:none;stroke-opacity:1"
         d="m 215,76.6172 0,-29.7695" /><path
         id="path42"
         style="fill:#087bbb;fill-opacity:1;fill-rule:nonzero;stroke:none"
         d="m 243.59,300.289 0,-222.3085 -238.98062,0 0,222.7385 238.98062,-0.43" /><path
         id="path44"
         style="fill:none;stroke:#ffffff;stroke-width:4;stroke-linecap:butt;stroke-linejoin:miter;stroke-miterlimit:4;stroke-dasharray:none;stroke-opacity:1"
         d="m 243.59,300.285 0,-222.2967 -238.98062,0 0,222.7267 238.98062,-0.43 z" /><path
         id="path46"
         style="fill:#087bbb;fill-opacity:1;fill-rule:nonzero;stroke:none"
         d="m 283.359,112.012 0,218.039 -40.55,-30.582 0,-220.0784 40.55,32.6214" /><path
         id="path48"
         style="fill:none;stroke:#ffffff;stroke-width:4;stroke-linecap:butt;stroke-linejoin:miter;stroke-miterlimit:4;stroke-dasharray:none;stroke-opacity:1"
         d="m 283.359,112.008 0,218.047 -40.55,-30.59 0,-220.0783 40.55,32.6213 z" /><path
         id="path50"
         style="fill:none;stroke:#ffffff;stroke-width:4;stroke-linecap:round;stroke-linejoin:round;stroke-miterlimit:4;stroke-dasharray:none;stroke-opacity:1"
         d="m 274.41,102.945 0,-35.1598" /><path
         id="path52"
         style="fill:none;stroke:#ffffff;stroke-width:4;stroke-linecap:round;stroke-linejoin:round;stroke-miterlimit:4;stroke-dasharray:none;stroke-opacity:1"
         d="m 260.66,57.3555 0,-35.1602" /><path
         id="path54"
         style="fill:#ffffff;fill-opacity:1;fill-rule:nonzero;stroke:none"
         d="m 50.5508,215.828 92.2582,0 0,6.223 20.589,-12.473 -20.589,-12.848 0,6.25 -92.2582,0 0,12.848" /><path
         id="path56"
         style="fill:#ffffff;fill-opacity:1;fill-rule:nonzero;stroke:none"
         d="m 192.5,182.828 -77.578,0 0,6.25 -20.5822,-12.5 20.5822,-12.859 0,6.25 77.578,0 0,12.859" /><path
         id="path58"
         style="fill:#ffffff;fill-opacity:1;fill-rule:nonzero;stroke:none"
         d="m 222.27,103.719 c -4.219,-0.457 -8.008,2.543 -8.481,6.722 -0.508,4.219 2.539,8.008 6.723,8.481 4.179,0.469 8.008,-2.543 8.468,-6.723 0.469,-4.179 -2.531,-8.008 -6.71,-8.48" /><path
         id="path60"
         style="fill:none;stroke:#000000;stroke-width:2;stroke-linecap:butt;stroke-linejoin:miter;stroke-miterlimit:4;stroke-dasharray:none;stroke-opacity:1"
         d="m 222.27,103.727 c -4.219,-0.469 -8.008,2.539 -8.481,6.718 -0.508,4.223 2.539,8.012 6.723,8.473 4.179,0.469 8.008,-2.543 8.468,-6.723 0.469,-4.168 -2.531,-8 -6.71,-8.468 z" /><path
         id="path62"
         style="fill:#ffffff;fill-opacity:1;fill-rule:nonzero;stroke:none"
         d="m 226.949,120.172 -13.16,-16.211 -46.949,38.16 13.199,16.25 46.91,-38.199" /><path
         id="path64"
         style="fill:none;stroke:#000000;stroke-width:2;stroke-linecap:butt;stroke-linejoin:miter;stroke-miterlimit:4;stroke-dasharray:none;stroke-opacity:1"
         d="m 226.949,120.168 -13.16,-16.211 -46.949,38.168 13.199,16.25 46.91,-38.207 z" /><path
         id="path66"
         style="fill:#ffffff;fill-opacity:1;fill-rule:nonzero;stroke:none"
         d="m 57.1914,203.719 c -4.4609,-38.778 23.4688,-73.938 62.2966,-78.391 38.793,-4.457 73.953,23.512 78.403,62.301 4.41,38.793 -23.512,73.949 -62.301,78.402 -38.7892,4.449 -73.9884,-23.519 -78.3986,-62.312 z m 9.8399,-1.129 c 3.8281,33.398 34.0587,57.422 67.4177,53.601 33.36,-3.832 57.43,-34.113 53.602,-67.472 C 184.219,155.371 153.98,131.34 120.59,135.172 87.2695,139 63.1992,169.23 67.0313,202.59" /><path
         id="path68"
         style="fill:none;stroke:#000000;stroke-width:2;stroke-linecap:butt;stroke-linejoin:miter;stroke-miterlimit:4;stroke-dasharray:none;stroke-opacity:1"
         d="m 57.1914,203.727 c -4.4609,-38.789 23.4688,-73.95 62.2966,-78.399 38.793,-4.453 73.953,23.52 78.403,62.297 4.41,38.793 -23.512,73.953 -62.301,78.402 -38.7892,4.461 -73.9884,-23.511 -78.3986,-62.3 z m 9.8399,-1.129 c 3.8281,33.39 34.0587,57.418 67.4177,53.59 33.36,-3.833 57.43,-34.102 53.602,-67.461 -3.832,-33.36 -34.071,-57.379 -67.461,-53.559 -33.3205,3.828 -57.3908,34.07 -53.5587,67.43 z" /><path
         id="path70"
         style="fill:#ffffff;fill-opacity:1;fill-rule:nonzero;stroke:none"
         d="m 48.4805,200.602 c -4.461,-38.793 23.5078,-73.954 62.2575,-78.403 38.832,-4.449 73.992,23.52 78.442,62.313 4.41,38.789 -23.52,73.937 -62.301,78.386 -38.7892,4.461 -73.9884,-23.507 -78.3985,-62.296 z m 9.8398,-1.133 c 3.8281,33.402 34.0586,57.422 67.4177,53.59 33.364,-3.829 57.383,-34.059 53.602,-67.418 -3.828,-33.36 -34.11,-57.422 -67.461,-53.59 -33.3282,3.82 -57.3907,34.058 -53.5587,67.418" /><path
         id="path72"
         style="fill:none;stroke:#000000;stroke-width:2;stroke-linecap:butt;stroke-linejoin:miter;stroke-miterlimit:4;stroke-dasharray:none;stroke-opacity:1"
         d="m 48.4805,200.598 c -4.461,-38.793 23.5078,-73.942 62.2575,-78.403 38.832,-4.449 73.992,23.52 78.442,62.313 4.41,38.789 -23.52,73.949 -62.301,78.398 -38.7892,4.449 -73.9884,-23.519 -78.3985,-62.308 z m 9.8398,-1.133 c 3.8281,33.402 34.0586,57.422 67.4177,53.59 33.364,-3.817 57.383,-34.059 53.602,-67.418 -3.828,-33.36 -34.11,-57.422 -67.461,-53.59 -33.3282,3.828 -57.3907,34.058 -53.5587,67.418 z" /><path
         id="path74"
         style="fill:none;stroke:#ffffff;stroke-width:5;stroke-linecap:butt;stroke-linejoin:miter;stroke-miterlimit:4;stroke-dasharray:none;stroke-opacity:1"
         d="m 192.5,175.016 39.219,0" /><path
         id="path76"
         style="fill:none;stroke:#ffffff;stroke-width:5;stroke-linecap:butt;stroke-linejoin:miter;stroke-miterlimit:4;stroke-dasharray:none;stroke-opacity:1"
         d="m 18.0898,209.586 39.211,0" /></g></g></svg>