<?xml version="1.0" encoding="UTF-8" standalone="no"?>
<svg
   xmlns:dc="http://purl.org/dc/elements/1.1/"
   xmlns:cc="http://creativecommons.org/ns#"
   xmlns:rdf="http://www.w3.org/1999/02/22-rdf-syntax-ns#"
   xmlns:svg="http://www.w3.org/2000/svg"
   xmlns="http://www.w3.org/2000/svg"
   viewBox="0 0 46.25 41.25"
   height="41.25"
   width="46.25"
   xml:space="preserve"
   version="1.1"
   id="svg2"><metadata
     id="metadata8"><rdf:RDF><cc:Work
         rdf:about=""><dc:format>image/svg+xml</dc:format><dc:type
           rdf:resource="http://purl.org/dc/dcmitype/StillImage" /></cc:Work></rdf:RDF></metadata><defs
     id="defs6" /><g
     transform="matrix(1.25,0,0,-1.25,0,41.25)"
     id="g10"><g
       transform="scale(0.1,0.1)"
       id="g12"><path
         id="path14"
         style="fill:#1582ba;fill-opacity:1;fill-rule:nonzero;stroke:none"
         d="m 364.73,255.828 c 0,-38.937 -81.179,-70.508 -181.371,-70.508 -100.1598,0 -181.37072,31.571 -181.37072,70.508 l 0,-173.3163 C 1.98828,43.5703 83.1992,12 183.359,12 283.551,12 364.73,43.5703 364.73,82.5117 l 0,173.3163" /><path
         id="path16"
         style="fill:none;stroke:#ffffff;stroke-width:4;stroke-linecap:butt;stroke-linejoin:miter;stroke-miterlimit:4;stroke-dasharray:none;stroke-opacity:1"
         d="m 364.73,255.832 c 0,-38.941 -81.179,-70.512 -181.371,-70.512 -100.1598,0 -181.37072,31.571 -181.37072,70.512 l 0,-173.3203 C 1.98828,43.5703 83.1992,12 183.359,12 283.551,12 364.73,43.5703 364.73,82.5117 l 0,173.3203 z" /><path
         id="path18"
         style="fill:#1582ba;fill-opacity:1;fill-rule:nonzero;stroke:none"
         d="m 183.359,185.32 c 100.192,0 181.371,31.571 181.371,70.508 0,38.992 -81.179,70.551 -181.371,70.551 -100.1598,0 -181.37072,-31.559 -181.37072,-70.551 0,-38.937 81.21092,-70.508 181.37072,-70.508" /><path
         id="path20"
         style="fill:none;stroke:#ffffff;stroke-width:4;stroke-linecap:butt;stroke-linejoin:miter;stroke-miterlimit:4;stroke-dasharray:none;stroke-opacity:1"
         d="m 183.359,185.32 c 100.192,0 181.371,31.571 181.371,70.512 0,38.988 -81.179,70.547 -181.371,70.547 -100.1598,0 -181.37072,-31.559 -181.37072,-70.547 0,-38.941 81.21092,-70.512 181.37072,-70.512 z" /><path
         id="path22"
         style="fill:#ffffff;fill-opacity:1;fill-rule:nonzero;stroke:none"
         d="m 143.672,284.109 15.199,-22.808 -57.461,-13.281 12.57,10.468 -88.7495,15.153 22.2695,16.718 85.621,-14.531 10.551,8.281" /><path
         id="path24"
         style="fill:#ffffff;fill-opacity:1;fill-rule:nonzero;stroke:none"
         d="m 224.449,228.84 -10.347,23.48 51.796,10.391 -8.988,-8.09 86.328,-14.73 -20.699,-16.563 -85.82,16.102 -12.27,-10.59" /><path
         id="path26"
         style="fill:#ffffff;fill-opacity:1;fill-rule:nonzero;stroke:none"
         d="m 196.129,296.531 58.012,15.86 0.699,-24.84 -14.488,2.769 -28.321,-23.511 -27.031,3.941 29.219,22.969 -18.09,2.812" /><path
         id="path28"
         style="fill:#ffffff;fill-opacity:1;fill-rule:nonzero;stroke:none"
         d="m 171.289,207.43 -55.238,-10.352 -2.102,25.551 15.891,-3.438 30.43,25.981 26.921,-4.57 -32.461,-28.321 16.559,-4.851" /><path
         id="path30"
         style="fill:#ffffff;fill-opacity:1;fill-rule:nonzero;stroke:none"
         d="m 335.23,58.7188 0,62.0702 -37.378,-29.8007 37.378,-32.2695" /><path
         id="path32"
         style="fill:none;stroke:#000000;stroke-width:3;stroke-linecap:butt;stroke-linejoin:miter;stroke-miterlimit:4;stroke-dasharray:none;stroke-opacity:1"
         d="m 335.23,58.7227 0,62.0663 -37.378,-29.7968 37.378,-32.2695 z" /><path
         id="path34"
         style="fill:#ffffff;fill-opacity:1;fill-rule:nonzero;stroke:none"
         d="m 32.6992,58.4883 0,62.0317 L 70.0391,90.7109 32.6992,58.4883" /><path
         id="path36"
         style="fill:none;stroke:#000000;stroke-width:3;stroke-linecap:butt;stroke-linejoin:miter;stroke-miterlimit:4;stroke-dasharray:none;stroke-opacity:1"
         d="m 32.6992,58.4922 0,62.0278 L 70.0391,90.7109 32.6992,58.4922 Z" /><path
         id="path38"
         style="fill:#ffffff;fill-opacity:1;fill-rule:nonzero;stroke:none"
         d="m 57.7305,181.691 0,-62.113 -37.3789,29.813 37.3789,32.3" /><path
         id="path40"
         style="fill:none;stroke:#000000;stroke-width:3;stroke-linecap:butt;stroke-linejoin:miter;stroke-miterlimit:4;stroke-dasharray:none;stroke-opacity:1"
         d="m 57.7305,181.691 0,-62.109 -37.3789,29.809 37.3789,32.3 z" /><path
         id="path42"
         style="fill:#ffffff;fill-opacity:1;fill-rule:nonzero;stroke:none"
         d="m 307.34,181.93 0,-62.071 37.39,29.801 -37.39,32.27" /><path
         id="path44"
         style="fill:none;stroke:#000000;stroke-width:3;stroke-linecap:butt;stroke-linejoin:miter;stroke-miterlimit:4;stroke-dasharray:none;stroke-opacity:1"
         d="m 307.34,181.922 0,-62.07 37.39,29.808 -37.39,32.262 z" /><path
         id="path46"
         style="fill:none;stroke:#ffffff;stroke-width:7.5999999;stroke-linecap:butt;stroke-linejoin:miter;stroke-miterlimit:4;stroke-dasharray:none;stroke-opacity:1"
         d="m 315.43,151.691 -22.539,0" /><path
         id="path48"
         style="fill:none;stroke:#ffffff;stroke-width:7.5999999;stroke-linecap:butt;stroke-linejoin:miter;stroke-miterlimit:4;stroke-dasharray:none;stroke-opacity:1"
         d="m 323.32,91.4922 28.239,0" /><path
         id="path50"
         style="fill:none;stroke:#ffffff;stroke-width:7.5999999;stroke-linecap:butt;stroke-linejoin:miter;stroke-miterlimit:4;stroke-dasharray:none;stroke-opacity:1"
         d="m 42.6992,91.2227 -30.1211,0" /><path
         id="path52"
         style="fill:none;stroke:#ffffff;stroke-width:7.5999999;stroke-linecap:butt;stroke-linejoin:miter;stroke-miterlimit:4;stroke-dasharray:none;stroke-opacity:1"
         d="m 43.9805,149.539 28.2109,0" /><path
         id="path54"
         style="fill:#ffffff;fill-opacity:1;fill-rule:nonzero;stroke:none"
         d="m 263.59,132.59 -0.149,-111.5587 -162.66,0 -0.16,111.5587 162.969,0" /><path
         id="path56"
         style="fill:none;stroke:#000000;stroke-width:3;stroke-linecap:butt;stroke-linejoin:miter;stroke-miterlimit:4;stroke-dasharray:none;stroke-opacity:1"
         d="m 263.59,132.59 -0.149,-111.5587 -162.66,0 -0.16,111.5587 162.969,0 z" /><path
         id="path58"
         style="fill:#ffffff;fill-opacity:1;fill-rule:nonzero;stroke:none"
         d="m 225.352,163.57 c 0,0 6.41,0.739 7.847,-5.672 l 1.41,-20.578 42.661,-7.109 4.25,9.219 -10.7,25.582 c -54.691,13.476 -107.269,9.218 -107.269,9.218 l 2.109,0 c 0,0 -19.18,4.258 -73.8983,-9.218 l -10.6719,-25.582 4.2618,-9.219 42.6604,7.109 1.398,20.578 c 1.41,6.411 7.82,5.672 7.82,5.672 l 88.122,0" /><path
         id="path60"
         style="fill:none;stroke:#000000;stroke-width:3;stroke-linecap:butt;stroke-linejoin:miter;stroke-miterlimit:4;stroke-dasharray:none;stroke-opacity:1"
         d="m 225.352,163.57 c 0,0 6.41,0.743 7.847,-5.668 l 1.41,-20.582 42.661,-7.109 4.25,9.211 -10.7,25.59 c -54.691,13.48 -107.269,9.218 -107.269,9.218 l 2.109,0 c 0,0 -19.18,4.262 -73.8983,-9.218 l -10.6719,-25.59 4.2618,-9.211 42.6604,7.109 1.398,20.582 c 1.41,6.411 7.82,5.668 7.82,5.668 l 88.122,0 z" /><path
         id="path62"
         style="fill:#ffffff;fill-opacity:1;fill-rule:nonzero;stroke:none"
         d="m 255.699,126.262 -0.148,-20.082 -146.371,0 -0.16,20.082 146.679,0" /><path
         id="path64"
         style="fill:none;stroke:#000000;stroke-width:3;stroke-linecap:butt;stroke-linejoin:miter;stroke-miterlimit:4;stroke-dasharray:none;stroke-opacity:1"
         d="m 255.699,126.262 -0.148,-20.082 -146.371,0 -0.16,20.082 146.679,0 z" /><path
         id="path66"
         style="fill:#ffffff;fill-opacity:1;fill-rule:nonzero;stroke:none"
         d="m 254.301,97.5508 -0.16,-69.4102 -144.34,0 -0.11,69.4102 144.61,0" /><path
         id="path68"
         style="fill:none;stroke:#020202;stroke-width:3;stroke-linecap:butt;stroke-linejoin:miter;stroke-miterlimit:4;stroke-dasharray:none;stroke-opacity:1"
         d="m 254.301,97.5508 -0.16,-69.4102 -144.34,0 -0.11,69.4102 144.61,0 z" /><path
         id="path70"
         style="fill:none;stroke:#030303;stroke-width:2.52099991;stroke-linecap:butt;stroke-linejoin:miter;stroke-miterlimit:4;stroke-dasharray:none;stroke-opacity:1"
         d="m 120.512,33.6797 123.238,0 0,60.4297 -123.238,0 0,-60.4297 z" /><path
         id="path72"
         style="fill:#ffffff;fill-opacity:1;fill-rule:nonzero;stroke:none"
         d="m 109.691,97.5508 75,-37.9727 69.61,37.9727 -144.61,0" /><path
         id="path74"
         style="fill:none;stroke:#020202;stroke-width:2.52099991;stroke-linecap:butt;stroke-linejoin:miter;stroke-miterlimit:4;stroke-dasharray:none;stroke-opacity:1"
         d="m 109.691,97.5508 75,-37.9688 69.61,37.9688 -144.61,0 z" /></g></g></svg>