<?xml version="1.0" encoding="UTF-8" standalone="no"?>
<svg
   xmlns:dc="http://purl.org/dc/elements/1.1/"
   xmlns:cc="http://creativecommons.org/ns#"
   xmlns:rdf="http://www.w3.org/1999/02/22-rdf-syntax-ns#"
   xmlns:svg="http://www.w3.org/2000/svg"
   xmlns="http://www.w3.org/2000/svg"
   viewBox="0 0 50.724998 40.650002"
   height="40.650002"
   width="50.724998"
   xml:space="preserve"
   version="1.1"
   id="svg2"><metadata
     id="metadata8"><rdf:RDF><cc:Work
         rdf:about=""><dc:format>image/svg+xml</dc:format><dc:type
           rdf:resource="http://purl.org/dc/dcmitype/StillImage" /></cc:Work></rdf:RDF></metadata><defs
     id="defs6" /><g
     transform="matrix(1.25,0,0,-1.25,0,40.65)"
     id="g10"><g
       transform="scale(0.1,0.1)"
       id="g12"><path
         id="path14"
         style="fill:#087bbb;fill-opacity:1;fill-rule:nonzero;stroke:none"
         d="m 50.6016,68.0469 228.574,0 0,43.2539 -228.574,0 0,-43.2539 z" /><path
         id="path16"
         style="fill:none;stroke:#ffffff;stroke-width:3.99993992;stroke-linecap:butt;stroke-linejoin:miter;stroke-miterlimit:4;stroke-dasharray:none;stroke-opacity:1"
         d="m 50.6016,68.0469 228.574,0 0,43.2539 -228.574,0 0,-43.2539 z" /><path
         id="path18"
         style="fill:#087bbb;fill-opacity:1;fill-rule:nonzero;stroke:none"
         d="m 317.875,150.156 0,-43.39 -38.699,-38.7191 0,43.2541 -228.5744,0" /><path
         id="path20"
         style="fill:none;stroke:#ffffff;stroke-width:3.99993992;stroke-linecap:butt;stroke-linejoin:miter;stroke-miterlimit:4;stroke-dasharray:none;stroke-opacity:1"
         d="m 317.875,150.156 0,-43.39 -38.699,-38.7191 0,43.2541 -228.5744,0" /><path
         id="path22"
         style="fill:#231f20;fill-opacity:1;fill-rule:nonzero;stroke:none"
         d="m 50.6016,150.156 267.2734,0" /><path
         id="path24"
         style="fill:none;stroke:#ffffff;stroke-width:3.99993992;stroke-linecap:butt;stroke-linejoin:bevel;stroke-miterlimit:4;stroke-dasharray:none;stroke-opacity:1"
         d="m 50.6016,150.156 267.2734,0" /><path
         id="path26"
         style="fill:#231f20;fill-opacity:1;fill-rule:nonzero;stroke:none"
         d="m 279.176,111.301 38.699,38.855" /><path
         id="path28"
         style="fill:none;stroke:#ffffff;stroke-width:3.99993992;stroke-linecap:butt;stroke-linejoin:bevel;stroke-miterlimit:4;stroke-dasharray:none;stroke-opacity:1"
         d="m 279.176,111.301 38.699,38.855" /><path
         id="path30"
         style="fill:#087bbb;fill-opacity:1;fill-rule:nonzero;stroke:none"
         d="m 267.875,36.9258 0,25.3476 -263.04687,0 29.93357,29.9336 263.0473,0 0,-25.3515 -29.934,-29.9297" /><path
         id="path32"
         style="fill:none;stroke:#ffffff;stroke-width:3.99993992;stroke-linecap:butt;stroke-linejoin:miter;stroke-miterlimit:4;stroke-dasharray:none;stroke-opacity:1"
         d="m 267.875,36.9258 0,25.3476 -263.04687,0 29.93357,29.9336 263.0473,0 0,-25.3515 -29.934,-29.9297 z" /><path
         id="path34"
         style="fill:#087bbb;fill-opacity:1;fill-rule:nonzero;stroke:none"
         d="m 4.82813,36.9258 263.047,0 0,25.3477 -263.047,0 0,-25.3477 z" /><path
         id="path36"
         style="fill:none;stroke:#ffffff;stroke-width:3.99993992;stroke-linecap:butt;stroke-linejoin:miter;stroke-miterlimit:4;stroke-dasharray:none;stroke-opacity:1"
         d="m 4.82813,36.9258 263.047,0 0,25.3477 -263.047,0 0,-25.3477 z" /><path
         id="path38"
         style="fill:#231f20;fill-opacity:1;fill-rule:nonzero;stroke:none"
         d="M 267.875,62.2734 297.809,92.207" /><path
         id="path40"
         style="fill:none;stroke:#ffffff;stroke-width:3.99993992;stroke-linecap:butt;stroke-linejoin:bevel;stroke-miterlimit:4;stroke-dasharray:none;stroke-opacity:1"
         d="M 267.875,62.2734 297.809,92.207" /><path
         id="path42"
         style="fill:#087bbb;fill-opacity:1;fill-rule:nonzero;stroke:none"
         d="m 50.6016,111.301 228.27,0 0,172.887 -228.27,0 0,-172.887 z" /><path
         id="path44"
         style="fill:none;stroke:#ffffff;stroke-width:3.99993992;stroke-linecap:butt;stroke-linejoin:miter;stroke-miterlimit:4;stroke-dasharray:none;stroke-opacity:1"
         d="m 50.6016,111.301 228.27,0 0,172.887 -228.27,0 0,-172.887 z" /><path
         id="path46"
         style="fill:#087bbb;fill-opacity:1;fill-rule:nonzero;stroke:none"
         d="m 278.871,111.301 39.004,38.855 0,173.035 -228.5742,0 -38.6992,-39.003 228.2694,0 0,-172.887" /><path
         id="path48"
         style="fill:none;stroke:#ffffff;stroke-width:3.99993992;stroke-linecap:butt;stroke-linejoin:miter;stroke-miterlimit:4;stroke-dasharray:none;stroke-opacity:1"
         d="m 278.871,111.301 39.004,38.855 0,173.035 -228.5742,0 -38.6992,-39.003 228.2694,0 0,-172.887 z" /><path
         id="path50"
         style="fill:#087bbb;fill-opacity:1;fill-rule:nonzero;stroke:none"
         d="m 70.25,131.805 188.672,0 0,132.422 -188.672,0 0,-132.422 z" /><path
         id="path52"
         style="fill:none;stroke:#ffffff;stroke-width:3.99993992;stroke-linecap:butt;stroke-linejoin:miter;stroke-miterlimit:4;stroke-dasharray:none;stroke-opacity:1"
         d="m 70.25,131.805 188.672,0 0,132.422 -188.672,0 0,-132.422 z" /><path
         id="path54"
         style="fill:#231f20;fill-opacity:1;fill-rule:nonzero;stroke:none"
         d="m 278.871,284.188 39.004,39.003" /><path
         id="path56"
         style="fill:none;stroke:#ffffff;stroke-width:3.99993992;stroke-linecap:butt;stroke-linejoin:bevel;stroke-miterlimit:4;stroke-dasharray:none;stroke-opacity:1"
         d="m 278.871,284.188 39.004,39.003" /><path
         id="path58"
         style="fill:#087bbb;fill-opacity:1;fill-rule:nonzero;stroke:none"
         d="M 402.984,29.7734 363.512,84.5195 326.098,57.5391 365.57,2.79297 402.984,29.7734" /><path
         id="path60"
         style="fill:none;stroke:#ffffff;stroke-width:3.99993992;stroke-linecap:butt;stroke-linejoin:miter;stroke-miterlimit:4;stroke-dasharray:none;stroke-opacity:1"
         d="M 402.984,29.7734 363.512,84.5195 326.098,57.5391 365.57,2.79297 402.984,29.7734 Z" /><path
         id="path62"
         style="fill:none;stroke:#087bbb;stroke-width:3.99993992;stroke-linecap:butt;stroke-linejoin:miter;stroke-miterlimit:4;stroke-dasharray:none;stroke-opacity:1"
         d="m 345.523,71.7188 c -6.75,11.25 -18.878,4.3359 -16.308,23.0546 2.637,19.2576 -10.293,31.9926 -33.75,21.3866" /><path
         id="path64"
         style="fill:none;stroke:#ffffff;stroke-width:3.99993992;stroke-linecap:butt;stroke-linejoin:miter;stroke-miterlimit:4;stroke-dasharray:none;stroke-opacity:1"
         d="m 125.523,207.578 c 11.844,0 21.454,9.598 21.454,21.453 0,11.848 -9.61,21.446 -21.454,21.446 -11.847,0 -21.457,-9.598 -21.457,-21.446 0,-11.855 9.61,-21.453 21.457,-21.453 z" /><path
         id="path66"
         style="fill:none;stroke:#ffffff;stroke-width:3.99993992;stroke-linecap:butt;stroke-linejoin:miter;stroke-miterlimit:4;stroke-dasharray:none;stroke-opacity:1"
         d="m 202.73,207.578 c 11.844,0 21.454,9.598 21.454,21.453 0,11.848 -9.61,21.446 -21.454,21.446 -11.847,0 -21.445,-9.598 -21.445,-21.446 0,-11.855 9.598,-21.453 21.445,-21.453 z" /><path
         id="path68"
         style="fill:none;stroke:#ffffff;stroke-width:3.99993992;stroke-linecap:butt;stroke-linejoin:miter;stroke-miterlimit:4;stroke-dasharray:none;stroke-opacity:1"
         d="m 164.125,140.887 c 11.848,0 21.457,9.609 21.457,21.465 0,11.836 -9.609,21.449 -21.457,21.449 -11.844,0 -21.453,-9.613 -21.453,-21.449 0,-11.856 9.609,-21.465 21.453,-21.465 z" /><path
         id="path70"
         style="fill:none;stroke:#ffffff;stroke-width:3.99993992;stroke-linecap:butt;stroke-linejoin:miter;stroke-miterlimit:4;stroke-dasharray:none;stroke-opacity:1"
         d="m 125.523,207.578 12,-20.43 4.786,12.774 11.972,-18.359" /><path
         id="path72"
         style="fill:none;stroke:#ffffff;stroke-width:3.99993992;stroke-linecap:butt;stroke-linejoin:miter;stroke-miterlimit:4;stroke-dasharray:none;stroke-opacity:1"
         d="m 175.844,179.969 8.781,19.164 7.188,-11.184 10.917,19.629" /><path
         id="path74"
         style="fill:none;stroke:#ffffff;stroke-width:3.99993992;stroke-linecap:butt;stroke-linejoin:miter;stroke-miterlimit:4;stroke-dasharray:none;stroke-opacity:1"
         d="m 181.285,229.031 -19.015,-5.957 3.996,11.172 -19.289,-5.215" /></g></g></svg>