<?xml version="1.0" encoding="UTF-8" standalone="no"?>
<svg
   xmlns:dc="http://purl.org/dc/elements/1.1/"
   xmlns:cc="http://creativecommons.org/ns#"
   xmlns:rdf="http://www.w3.org/1999/02/22-rdf-syntax-ns#"
   xmlns:svg="http://www.w3.org/2000/svg"
   xmlns="http://www.w3.org/2000/svg"
   viewBox="0 0 51.25 42.5"
   height="42.5"
   width="51.25"
   xml:space="preserve"
   version="1.1"
   id="svg2"><metadata
     id="metadata8"><rdf:RDF><cc:Work
         rdf:about=""><dc:format>image/svg+xml</dc:format><dc:type
           rdf:resource="http://purl.org/dc/dcmitype/StillImage" /></cc:Work></rdf:RDF></metadata><defs
     id="defs6" /><g
     transform="matrix(1.25,0,0,-1.25,0,42.5)"
     id="g10"><g
       transform="scale(0.1,0.1)"
       id="g12"><path
         id="path14"
         style="fill:#087bbb;fill-opacity:1;fill-rule:nonzero;stroke:none"
         d="m 50.5898,78.0391 228.59,0 0,43.2422 -228.59,0 0,-43.2422 z" /><path
         id="path16"
         style="fill:none;stroke:#ffffff;stroke-width:3.99993992;stroke-linecap:butt;stroke-linejoin:miter;stroke-miterlimit:4;stroke-dasharray:none;stroke-opacity:1"
         d="m 50.5898,78.0391 228.59,0 0,43.2422 -228.59,0 0,-43.2422 z" /><path
         id="path18"
         style="fill:#087bbb;fill-opacity:1;fill-rule:nonzero;stroke:none"
         d="m 317.891,160.148 0,-43.398 -38.711,-38.7109 0,43.2419 -228.5902,0" /><path
         id="path20"
         style="fill:none;stroke:#ffffff;stroke-width:3.99993992;stroke-linecap:butt;stroke-linejoin:miter;stroke-miterlimit:4;stroke-dasharray:none;stroke-opacity:1"
         d="m 317.891,160.148 0,-43.398 -38.711,-38.7109 0,43.2419 -228.5902,0" /><path
         id="path22"
         style="fill:none;stroke:#ffffff;stroke-width:3.99993992;stroke-linecap:butt;stroke-linejoin:bevel;stroke-miterlimit:4;stroke-dasharray:none;stroke-opacity:1"
         d="m 50.5898,160.148 267.3012,0" /><path
         id="path24"
         style="fill:#231f20;fill-opacity:1;fill-rule:nonzero;stroke:none"
         d="m 279.18,121.281 38.711,38.867" /><path
         id="path26"
         style="fill:none;stroke:#ffffff;stroke-width:3.99993992;stroke-linecap:butt;stroke-linejoin:bevel;stroke-miterlimit:4;stroke-dasharray:none;stroke-opacity:1"
         d="m 279.18,121.281 38.711,38.867" /><path
         id="path28"
         style="fill:#087bbb;fill-opacity:1;fill-rule:nonzero;stroke:none"
         d="m 267.891,46.9102 0,25.3515 -263.05116,0 29.92966,29.9573 263.0395,0 0,-25.3479 -29.918,-29.9609" /><path
         id="path30"
         style="fill:none;stroke:#ffffff;stroke-width:3.99993992;stroke-linecap:butt;stroke-linejoin:miter;stroke-miterlimit:4;stroke-dasharray:none;stroke-opacity:1"
         d="m 267.891,46.9102 0,25.3515 -263.05116,0 29.92966,29.9573 263.0395,0 0,-25.3479 -29.918,-29.9609 z" /><path
         id="path32"
         style="fill:#087bbb;fill-opacity:1;fill-rule:nonzero;stroke:none"
         d="m 4.83984,46.9102 263.051,0 0,25.3516 -263.051,0 0,-25.3516 z" /><path
         id="path34"
         style="fill:none;stroke:#ffffff;stroke-width:3.99993992;stroke-linecap:butt;stroke-linejoin:miter;stroke-miterlimit:4;stroke-dasharray:none;stroke-opacity:1"
         d="m 4.83984,46.9102 263.051,0 0,25.3516 -263.051,0 0,-25.3516 z" /><path
         id="path36"
         style="fill:#231f20;fill-opacity:1;fill-rule:nonzero;stroke:none"
         d="m 267.891,72.2617 29.918,29.9573" /><path
         id="path38"
         style="fill:none;stroke:#ffffff;stroke-width:3.99993992;stroke-linecap:butt;stroke-linejoin:bevel;stroke-miterlimit:4;stroke-dasharray:none;stroke-opacity:1"
         d="m 267.891,72.2617 29.918,29.9573" /><path
         id="path40"
         style="fill:#087bbb;fill-opacity:1;fill-rule:nonzero;stroke:none"
         d="m 50.5898,121.281 228.281,0 0,172.891 -228.281,0 0,-172.891 z" /><path
         id="path42"
         style="fill:none;stroke:#ffffff;stroke-width:3.99993992;stroke-linecap:butt;stroke-linejoin:miter;stroke-miterlimit:4;stroke-dasharray:none;stroke-opacity:1"
         d="m 50.5898,121.281 228.281,0 0,172.891 -228.281,0 0,-172.891 z" /><path
         id="path44"
         style="fill:#087bbb;fill-opacity:1;fill-rule:nonzero;stroke:none"
         d="m 278.871,121.281 39.02,38.867 0,173.051 -228.5902,0 -38.711,-39.027 228.2812,0 0,-172.891" /><path
         id="path46"
         style="fill:none;stroke:#ffffff;stroke-width:3.99993992;stroke-linecap:butt;stroke-linejoin:miter;stroke-miterlimit:4;stroke-dasharray:none;stroke-opacity:1"
         d="m 278.871,121.281 39.02,38.867 0,173.051 -228.5902,0 -38.711,-39.027 228.2812,0 0,-172.891 z" /><path
         id="path48"
         style="fill:#087bbb;fill-opacity:1;fill-rule:nonzero;stroke:none"
         d="m 70.2305,141.789 188.668,0 0,132.422 -188.668,0 0,-132.422 z" /><path
         id="path50"
         style="fill:none;stroke:#ffffff;stroke-width:3.99993992;stroke-linecap:butt;stroke-linejoin:miter;stroke-miterlimit:4;stroke-dasharray:none;stroke-opacity:1"
         d="m 70.2305,141.789 188.668,0 0,132.422 -188.668,0 0,-132.422 z" /><path
         id="path52"
         style="fill:#231f20;fill-opacity:1;fill-rule:nonzero;stroke:none"
         d="m 278.871,294.172 39.02,39.027" /><path
         id="path54"
         style="fill:none;stroke:#ffffff;stroke-width:3.99993992;stroke-linecap:butt;stroke-linejoin:bevel;stroke-miterlimit:4;stroke-dasharray:none;stroke-opacity:1"
         d="m 278.871,294.172 39.02,39.027" /><path
         id="path56"
         style="fill:#087bbb;fill-opacity:1;fill-rule:nonzero;stroke:none"
         d="m 402.969,39.7617 -39.449,54.7696 -37.43,-27 39.5,-54.7227 37.379,26.9531" /><path
         id="path58"
         style="fill:none;stroke:#ffffff;stroke-width:3.99993992;stroke-linecap:butt;stroke-linejoin:miter;stroke-miterlimit:4;stroke-dasharray:none;stroke-opacity:1"
         d="m 402.969,39.7617 -39.449,54.7696 -37.43,-27 39.5,-54.7227 37.379,26.9531 z" /><path
         id="path60"
         style="fill:none;stroke:#087bbb;stroke-width:3.99993992;stroke-linecap:butt;stroke-linejoin:miter;stroke-miterlimit:4;stroke-dasharray:none;stroke-opacity:1"
         d="m 345.512,81.7109 c -6.723,11.25 -18.871,4.3399 -16.293,23.0511 2.621,19.258 -10.309,31.988 -33.75,21.41" /><path
         id="path62"
         style="fill:none;stroke:#ffffff;stroke-width:3.99993992;stroke-linecap:butt;stroke-linejoin:miter;stroke-miterlimit:4;stroke-dasharray:none;stroke-opacity:1"
         d="m 125.512,217.57 c 11.867,0 21.476,9.61 21.476,21.45 0,11.871 -9.609,21.441 -21.476,21.441 -11.84,0 -21.453,-9.57 -21.453,-21.441 0,-11.84 9.613,-21.45 21.453,-21.45 z" /><path
         id="path64"
         style="fill:none;stroke:#ffffff;stroke-width:3.99993992;stroke-linecap:butt;stroke-linejoin:miter;stroke-miterlimit:4;stroke-dasharray:none;stroke-opacity:1"
         d="m 202.73,217.57 c 11.84,0 21.45,9.61 21.45,21.45 0,11.871 -9.61,21.441 -21.45,21.441 -11.832,0 -21.441,-9.57 -21.441,-21.441 0,-11.84 9.609,-21.45 21.441,-21.45 z" /><path
         id="path66"
         style="fill:none;stroke:#ffffff;stroke-width:3.99993992;stroke-linecap:butt;stroke-linejoin:miter;stroke-miterlimit:4;stroke-dasharray:none;stroke-opacity:1"
         d="m 164.141,150.891 c 11.839,0 21.449,9.609 21.449,21.449 0,11.832 -9.61,21.441 -21.449,21.441 -11.871,0 -21.481,-9.609 -21.481,-21.441 0,-11.84 9.61,-21.449 21.481,-21.449 z" /><path
         id="path68"
         style="fill:none;stroke:#ffffff;stroke-width:3.99993992;stroke-linecap:butt;stroke-linejoin:miter;stroke-miterlimit:4;stroke-dasharray:none;stroke-opacity:1"
         d="m 125.512,217.57 12.027,-20.429 4.762,12.781 12,-18.363" /><path
         id="path70"
         style="fill:none;stroke:#ffffff;stroke-width:3.99993992;stroke-linecap:butt;stroke-linejoin:miter;stroke-miterlimit:4;stroke-dasharray:none;stroke-opacity:1"
         d="m 175.859,189.961 8.75,19.18 7.192,-11.18 10.929,19.609" /><path
         id="path72"
         style="fill:none;stroke:#ffffff;stroke-width:3.99993992;stroke-linecap:butt;stroke-linejoin:miter;stroke-miterlimit:4;stroke-dasharray:none;stroke-opacity:1"
         d="m 181.289,239.02 -19.019,-5.938 3.98,11.168 -19.262,-5.23" /></g></g></svg>