<?xml version="1.0" encoding="UTF-8" standalone="no"?>
<svg
   xmlns:dc="http://purl.org/dc/elements/1.1/"
   xmlns:cc="http://creativecommons.org/ns#"
   xmlns:rdf="http://www.w3.org/1999/02/22-rdf-syntax-ns#"
   xmlns:svg="http://www.w3.org/2000/svg"
   xmlns="http://www.w3.org/2000/svg"
   viewBox="0 0 47.5 43.75"
   height="43.75"
   width="47.5"
   xml:space="preserve"
   version="1.1"
   id="svg2"><metadata
     id="metadata8"><rdf:RDF><cc:Work
         rdf:about=""><dc:format>image/svg+xml</dc:format><dc:type
           rdf:resource="http://purl.org/dc/dcmitype/StillImage" /></cc:Work></rdf:RDF></metadata><defs
     id="defs6" /><g
     transform="matrix(1.25,0,0,-1.25,0,43.75)"
     id="g10"><g
       transform="scale(0.1,0.1)"
       id="g12"><path
         id="path14"
         style="fill:#087bbb;fill-opacity:1;fill-rule:nonzero;stroke:none"
         d="m 5.03906,62.9492 314.73,0 0,59.0625 -314.73,0 0,-59.0625 z" /><path
         id="path16"
         style="fill:none;stroke:#ffffff;stroke-width:3.99993992;stroke-linecap:butt;stroke-linejoin:miter;stroke-miterlimit:4;stroke-dasharray:none;stroke-opacity:1"
         d="m 5.03906,62.9531 314.73,0 0,59.0586 -314.73,0 0,-59.0586 z" /><path
         id="path18"
         style="fill:none;stroke:#ffffff;stroke-width:3.99993992;stroke-linecap:butt;stroke-linejoin:miter;stroke-miterlimit:4;stroke-dasharray:none;stroke-opacity:1"
         d="m 223.359,88.5742 79.371,0" /><path
         id="path20"
         style="fill:none;stroke:#ffffff;stroke-width:3.99993992;stroke-linecap:butt;stroke-linejoin:miter;stroke-miterlimit:4;stroke-dasharray:none;stroke-opacity:1"
         d="m 223.359,91.4219 79.371,0" /><path
         id="path22"
         style="fill:#087bbb;fill-opacity:1;fill-rule:nonzero;stroke:none"
         d="m 372.621,118.961 0,52.93 -52.891,-50.121 0,-58.8208 52.891,56.0118" /><path
         id="path24"
         style="fill:none;stroke:#ffffff;stroke-width:3.99993992;stroke-linecap:butt;stroke-linejoin:miter;stroke-miterlimit:4;stroke-dasharray:none;stroke-opacity:1"
         d="m 372.621,118.965 0,52.93 -52.891,-50.122 0,-58.8316 52.891,56.0236 z" /><path
         id="path26"
         style="fill:#087bbb;fill-opacity:1;fill-rule:nonzero;stroke:none"
         d="m 263.871,14.8203 0,13.2813 28.59,39.5273 0,-24.207 -28.59,-28.6016" /><path
         id="path28"
         style="fill:none;stroke:#ffffff;stroke-width:3.99993992;stroke-linecap:butt;stroke-linejoin:miter;stroke-miterlimit:4;stroke-dasharray:none;stroke-opacity:1"
         d="m 263.871,14.8242 0,13.2774 28.59,39.5312 0,-24.2187 -28.59,-28.5899 z" /><path
         id="path30"
         style="fill:#087bbb;fill-opacity:1;fill-rule:nonzero;stroke:none"
         d="m 11.7188,14.8203 252.152,0 0,13.0898 -252.152,0 0,-13.0898 z" /><path
         id="path32"
         style="fill:none;stroke:#ffffff;stroke-width:3.99993992;stroke-linecap:butt;stroke-linejoin:miter;stroke-miterlimit:4;stroke-dasharray:none;stroke-opacity:1"
         d="m 11.7188,14.8125 252.152,0 0,13.0898 -252.152,0 0,-13.0898 z" /><path
         id="path34"
         style="fill:#087bbb;fill-opacity:1;fill-rule:nonzero;stroke:none"
         d="m 263.871,27.9102 -251.3319,0 28.5898,39.7187 251.3321,0 -28.59,-39.7187" /><path
         id="path36"
         style="fill:none;stroke:#ffffff;stroke-width:3.99993992;stroke-linecap:butt;stroke-linejoin:miter;stroke-miterlimit:4;stroke-dasharray:none;stroke-opacity:1"
         d="m 263.871,27.9023 -251.3319,0 28.5898,39.7305 251.3321,0 -28.59,-39.7305 z" /><path
         id="path38"
         style="fill:#087bbb;fill-opacity:1;fill-rule:nonzero;stroke:none"
         d="m 372.621,171.77 -314.8515,0 -52.73044,-49.758 314.73094,0 52.851,49.758" /><path
         id="path40"
         style="fill:none;stroke:#ffffff;stroke-width:3.99993992;stroke-linecap:butt;stroke-linejoin:miter;stroke-miterlimit:4;stroke-dasharray:none;stroke-opacity:1"
         d="m 372.621,171.773 -314.8515,0 -52.73044,-49.761 314.73094,0 52.851,49.761 z" /><path
         id="path42"
         style="fill:#087bbb;fill-opacity:1;fill-rule:nonzero;stroke:none"
         d="m 313.32,171.539 -210.699,0 -35.3202,-33.277 210.7112,0 35.308,33.277" /><path
         id="path44"
         style="fill:none;stroke:#ffffff;stroke-width:3.99993992;stroke-linecap:butt;stroke-linejoin:miter;stroke-miterlimit:4;stroke-dasharray:none;stroke-opacity:1"
         d="m 313.32,171.543 -210.699,0 -35.3202,-33.281 210.7112,0 35.308,33.281 z" /><path
         id="path46"
         style="fill:#087bbb;fill-opacity:1;fill-rule:nonzero;stroke:none"
         d="m 61.3281,151.27 216.992,0 0,159.059 -216.992,0 0,-159.059 z" /><path
         id="path48"
         style="fill:none;stroke:#ffffff;stroke-width:3.99993992;stroke-linecap:butt;stroke-linejoin:miter;stroke-miterlimit:4;stroke-dasharray:none;stroke-opacity:1"
         d="m 61.3281,151.273 216.992,0 0,159.059 -216.992,0 0,-159.059 z" /><path
         id="path50"
         style="fill:#087bbb;fill-opacity:1;fill-rule:nonzero;stroke:none"
         d="m 79.6484,275.449 c 0,15.973 16.5625,18.36 16.5625,18.36 l 143.0901,0 c 20.109,0 19.527,-18.95 19.527,-18.95 l 0,-89.3 c 0,-11.207 -15.387,-15.93 -15.387,-15.93 l -144.8512,0 c -14.2109,0 -18.9414,14.762 -18.9414,14.762 l 0,91.058" /><path
         id="path52"
         style="fill:none;stroke:#ffffff;stroke-width:3.99993992;stroke-linecap:butt;stroke-linejoin:miter;stroke-miterlimit:4;stroke-dasharray:none;stroke-opacity:1"
         d="m 79.6484,275.441 c 0,15.981 16.5625,18.364 16.5625,18.364 l 143.0901,0 c 20.109,0 19.527,-18.942 19.527,-18.942 l 0,-89.3 c 0,-11.211 -15.387,-15.942 -15.387,-15.942 l -144.8512,0 c -14.2109,0 -18.9414,14.774 -18.9414,14.774 l 0,91.046 z" /><path
         id="path54"
         style="fill:#087bbb;fill-opacity:1;fill-rule:nonzero;stroke:none"
         d="m 314.691,344.629 -216.9918,0 -36.3711,-34.301 216.9919,0 36.371,34.301" /><path
         id="path56"
         style="fill:none;stroke:#ffffff;stroke-width:3.99993992;stroke-linecap:butt;stroke-linejoin:miter;stroke-miterlimit:4;stroke-dasharray:none;stroke-opacity:1"
         d="m 314.691,344.621 -216.9918,0 -36.3711,-34.289 216.9919,0 36.371,34.289 z" /><path
         id="path58"
         style="fill:#087bbb;fill-opacity:1;fill-rule:nonzero;stroke:none"
         d="m 314.691,185.102 0,159.597 -36.019,-34.058 0,-159.61 36.019,34.071" /><path
         id="path60"
         style="fill:none;stroke:#ffffff;stroke-width:3.99993992;stroke-linecap:butt;stroke-linejoin:miter;stroke-miterlimit:4;stroke-dasharray:none;stroke-opacity:1"
         d="m 314.691,185.094 0,159.609 -36.019,-34.058 0,-159.614 36.019,34.063 z" /><path
         id="path62"
         style="fill:none;stroke:#ffffff;stroke-width:3.99993992;stroke-linecap:butt;stroke-linejoin:miter;stroke-miterlimit:4;stroke-dasharray:none;stroke-opacity:1"
         d="m 203.551,266.734 0,-71.871" /><path
         id="path64"
         style="fill:none;stroke:#ffffff;stroke-width:3.99993992;stroke-linecap:butt;stroke-linejoin:miter;stroke-miterlimit:4;stroke-dasharray:none;stroke-opacity:1"
         d="m 133.359,194.863 0,82.34" /><path
         id="path66"
         style="fill:#087bbb;fill-opacity:1;fill-rule:nonzero;stroke:none"
         d="m 133.359,194.629 c 14.84,-33.828 28.36,3.98 28.36,3.98 l 66.133,0 c -6.762,-17.578 -16.211,-18.91 -16.211,-18.91 l -62.11,0 c -12.152,1.332 -16.172,14.93 -16.172,14.93" /><path
         id="path68"
         style="fill:none;stroke:#ffffff;stroke-width:3.99993992;stroke-linecap:butt;stroke-linejoin:miter;stroke-miterlimit:4;stroke-dasharray:none;stroke-opacity:1"
         d="m 133.359,194.621 c 14.84,-33.816 28.36,3.992 28.36,3.992 l 66.133,0 c -6.762,-17.582 -16.211,-18.91 -16.211,-18.91 l -62.11,0 c -12.152,1.328 -16.172,14.918 -16.172,14.918 z" /><path
         id="path70"
         style="fill:none;stroke:#ffffff;stroke-width:3.99993992;stroke-linecap:butt;stroke-linejoin:miter;stroke-miterlimit:4;stroke-dasharray:none;stroke-opacity:1"
         d="m 149.531,236.652 39.18,0" /><path
         id="path72"
         style="fill:none;stroke:#ffffff;stroke-width:3.99993992;stroke-linecap:butt;stroke-linejoin:miter;stroke-miterlimit:4;stroke-dasharray:none;stroke-opacity:1"
         d="m 149.531,228.531 39.18,0" /><path
         id="path74"
         style="fill:none;stroke:#ffffff;stroke-width:3.99993992;stroke-linecap:butt;stroke-linejoin:miter;stroke-miterlimit:4;stroke-dasharray:none;stroke-opacity:1"
         d="m 149.531,217.754 39.18,0" /><path
         id="path76"
         style="fill:none;stroke:#ffffff;stroke-width:3.99993992;stroke-linecap:butt;stroke-linejoin:miter;stroke-miterlimit:4;stroke-dasharray:none;stroke-opacity:1"
         d="m 149.531,209.664 39.18,0" /><path
         id="path78"
         style="fill:#087bbb;fill-opacity:1;fill-rule:nonzero;stroke:none"
         d="m 202.621,269.039 -4.031,12.152 -65.039,0 c 0,0 -10.821,1.368 -13.512,-17.543 l 0,-14.839 13.121,0 0,20.23" /><path
         id="path80"
         style="fill:none;stroke:#ffffff;stroke-width:3.99993992;stroke-linecap:butt;stroke-linejoin:miter;stroke-miterlimit:4;stroke-dasharray:none;stroke-opacity:1"
         d="m 202.621,269.043 -4.031,12.148 -65.039,0 c 0,0 -10.821,1.364 -13.512,-17.539 l 0,-14.847 13.121,0 0,20.238" /><path
         id="path82"
         style="fill:#087bbb;fill-opacity:1;fill-rule:nonzero;stroke:none"
         d="m 132.031,281.191 c 0,0 -10.781,1.368 -13.48,-17.543 l 0,-14.839" /><path
         id="path84"
         style="fill:none;stroke:#ffffff;stroke-width:3.99993992;stroke-linecap:butt;stroke-linejoin:miter;stroke-miterlimit:4;stroke-dasharray:none;stroke-opacity:1"
         d="m 132.031,281.191 c 0,0 -10.781,1.364 -13.48,-17.539 l 0,-14.847" /><path
         id="path86"
         style="fill:none;stroke:#ffffff;stroke-width:3.99993992;stroke-linecap:butt;stroke-linejoin:miter;stroke-miterlimit:4;stroke-dasharray:none;stroke-opacity:1"
         d="m 149.531,256.895 39.18,0" /><path
         id="path88"
         style="fill:none;stroke:#ffffff;stroke-width:3.99993992;stroke-linecap:butt;stroke-linejoin:miter;stroke-miterlimit:4;stroke-dasharray:none;stroke-opacity:1"
         d="m 149.531,265.012 39.18,0" /><path
         id="path90"
         style="fill:none;stroke:#ffffff;stroke-width:3.99993992;stroke-linecap:butt;stroke-linejoin:miter;stroke-miterlimit:4;stroke-dasharray:none;stroke-opacity:1"
         d="m 134.449,194.234 0,77" /></g></g></svg>