<?xml version="1.0" encoding="UTF-8" standalone="no"?>
<svg
   xmlns:dc="http://purl.org/dc/elements/1.1/"
   xmlns:cc="http://creativecommons.org/ns#"
   xmlns:rdf="http://www.w3.org/1999/02/22-rdf-syntax-ns#"
   xmlns:svg="http://www.w3.org/2000/svg"
   xmlns="http://www.w3.org/2000/svg"
   viewBox="0 0 54.412498 39.487499"
   height="39.487499"
   width="54.412498"
   xml:space="preserve"
   version="1.1"
   id="svg2"><metadata
     id="metadata8"><rdf:RDF><cc:Work
         rdf:about=""><dc:format>image/svg+xml</dc:format><dc:type
           rdf:resource="http://purl.org/dc/dcmitype/StillImage" /></cc:Work></rdf:RDF></metadata><defs
     id="defs6" /><g
     transform="matrix(1.25,0,0,-1.25,0,39.4875)"
     id="g10"><g
       transform="scale(0.1,0.1)"
       id="g12"><path
         id="path14"
         style="fill:#087bbb;fill-opacity:1;fill-rule:nonzero;stroke:none"
         d="m 5.65625,6.46484 381.484,0 0,250.637 -381.484,0 0,-250.637 z" /><path
         id="path16"
         style="fill:none;stroke:#ffffff;stroke-width:4;stroke-linecap:butt;stroke-linejoin:miter;stroke-miterlimit:4;stroke-dasharray:none;stroke-opacity:1"
         d="m 5.65625,6.46484 381.484,0 0,250.637 -381.484,0 0,-250.637 z" /><path
         id="path18"
         style="fill:#087bbb;fill-opacity:1;fill-rule:nonzero;stroke:none"
         d="m 431.027,70.6523 -43.886,-64.18746 0,250.63716 43.886,53.211 0,-239.6607" /><path
         id="path20"
         style="fill:none;stroke:#ffffff;stroke-width:4;stroke-linecap:butt;stroke-linejoin:miter;stroke-miterlimit:4;stroke-dasharray:none;stroke-opacity:1"
         d="m 431.027,70.6523 -43.886,-64.18746 0,250.63716 43.886,53.211 0,-239.6607 z" /><path
         id="path22"
         style="fill:#087bbb;fill-opacity:1;fill-rule:nonzero;stroke:none"
         d="m 71.4883,310.313 359.5387,0 -43.886,-53.211 -381.48475,0 65.83205,53.211" /><path
         id="path24"
         style="fill:none;stroke:#ffffff;stroke-width:4;stroke-linecap:butt;stroke-linejoin:miter;stroke-miterlimit:4;stroke-dasharray:none;stroke-opacity:1"
         d="m 71.4883,310.313 359.5387,0 -43.886,-53.211 -381.48475,0 65.83205,53.211 z" /><path
         id="path26"
         style="fill:#ffffff;fill-opacity:1;fill-rule:nonzero;stroke:none"
         d="m 61.3984,191.223 -33.8867,-0.051 0,10.156 33.8867,0.039 0.0235,15.852 36.9961,-20.942 -36.9961,-20.933 -0.0235,15.879" /><path
         id="path28"
         style="fill:#ffffff;fill-opacity:1;fill-rule:nonzero;stroke:none"
         d="m 61.3984,127.883 -33.8867,-0.039 0,10.156 33.8867,0.039 0.0235,15.848 36.9961,-20.949 -36.9961,-20.934 -0.0235,15.879" /><path
         id="path30"
         style="fill:#ffffff;fill-opacity:1;fill-rule:nonzero;stroke:none"
         d="m 61.3984,64.5508 -33.8867,-0.0469 0,10.1524 33.8867,0.039 0.0235,15.8633 L 98.418,69.6094 61.4219,48.6641 61.3984,64.5508" /><path
         id="path32"
         style="fill:#ffffff;fill-opacity:1;fill-rule:nonzero;stroke:none"
         d="m 320.324,136.211 44.422,0.051 0,-10.157 -44.422,-0.042 -0.019,-15.856 -37.004,20.945 37.004,20.95 0.019,-15.891" /><path
         id="path34"
         style="fill:#ffffff;fill-opacity:1;fill-rule:nonzero;stroke:none"
         d="m 346.875,127.234 -44.422,-0.046 0,10.156 44.422,0.039 0.02,15.847 37.003,-20.933 -37.003,-20.942 -0.02,15.879" /><path
         id="path36"
         style="fill:#087bbb;fill-opacity:1;fill-rule:nonzero;stroke:none"
         d="m 134.074,108.699 139.949,0 0,79.485 c -0.468,5.871 -10.839,5.421 -10.839,5.421 l -70.274,0 0,14.454 -46.961,0 0,-10.84 -11.851,0 -0.024,-88.52" /><path
         id="path38"
         style="fill:none;stroke:#ffffff;stroke-width:4;stroke-linecap:butt;stroke-linejoin:miter;stroke-miterlimit:4;stroke-dasharray:none;stroke-opacity:1"
         d="m 134.074,108.699 139.949,0 0,79.485 c -0.468,5.871 -10.839,5.421 -10.839,5.421 l -70.274,0 0,14.454 -46.961,0 0,-10.84 -11.851,0 -0.024,-88.52 z" /><path
         id="path40"
         style="fill:#087bbb;fill-opacity:1;fill-rule:nonzero;stroke:none"
         d="m 122.75,96.1992 139.945,0 0,79.4768 c -0.449,5.879 -10.781,5.418 -10.781,5.418 l -70.332,0 0,14.453 -46.957,0 0,-10.84 -11.855,0 -0.02,-88.5078" /><path
         id="path42"
         style="fill:none;stroke:#ffffff;stroke-width:4;stroke-linecap:butt;stroke-linejoin:miter;stroke-miterlimit:4;stroke-dasharray:none;stroke-opacity:1"
         d="m 122.75,96.1992 139.945,0 0,79.4768 c -0.449,5.879 -10.781,5.418 -10.781,5.418 l -70.332,0 0,14.453 -46.957,0 0,-10.84 -11.855,0 -0.02,-88.5078 z" /><path
         id="path44"
         style="fill:#087bbb;fill-opacity:1;fill-rule:nonzero;stroke:none"
         d="m 109.27,83 140.007,0 0,79.449 c -0.449,5.883 -10.761,5.422 -10.761,5.422 l -70.411,0 0,14.453 -46.96,0 0,-10.84 -11.856,0 L 109.27,83" /><path
         id="path46"
         style="fill:none;stroke:#ffffff;stroke-width:4;stroke-linecap:butt;stroke-linejoin:miter;stroke-miterlimit:4;stroke-dasharray:none;stroke-opacity:1"
         d="m 109.27,83 140.007,0 0,79.449 c -0.449,5.883 -10.761,5.422 -10.761,5.422 l -70.411,0 0,14.453 -46.96,0 0,-10.84 -11.856,0 L 109.27,83 Z" /></g></g></svg>