<?xml version="1.0" encoding="UTF-8" standalone="no"?>
<svg
   xmlns:dc="http://purl.org/dc/elements/1.1/"
   xmlns:cc="http://creativecommons.org/ns#"
   xmlns:rdf="http://www.w3.org/1999/02/22-rdf-syntax-ns#"
   xmlns:svg="http://www.w3.org/2000/svg"
   xmlns="http://www.w3.org/2000/svg"
   viewBox="0 0 55 41.25"
   height="41.25"
   width="55"
   xml:space="preserve"
   version="1.1"
   id="svg2"><metadata
     id="metadata8"><rdf:RDF><cc:Work
         rdf:about=""><dc:format>image/svg+xml</dc:format><dc:type
           rdf:resource="http://purl.org/dc/dcmitype/StillImage" /></cc:Work></rdf:RDF></metadata><defs
     id="defs6" /><g
     transform="matrix(1.25,0,0,-1.25,0,41.25)"
     id="g10"><g
       transform="scale(0.1,0.1)"
       id="g12"><path
         id="path14"
         style="fill:#087bbb;fill-opacity:1;fill-rule:nonzero;stroke:none"
         d="m 5.66016,16.4805 381.48,0 0,250.621 -381.48,0 0,-250.621 z" /><path
         id="path16"
         style="fill:none;stroke:#ffffff;stroke-width:4;stroke-linecap:butt;stroke-linejoin:miter;stroke-miterlimit:4;stroke-dasharray:none;stroke-opacity:1"
         d="m 5.66016,16.4766 381.48,0 0,250.617 -381.48,0 0,-250.617 z" /><path
         id="path18"
         style="fill:#087bbb;fill-opacity:1;fill-rule:nonzero;stroke:none"
         d="m 431.02,80.6484 -43.872,-64.1796 0,250.6332 43.872,53.199 0,-239.6526" /><path
         id="path20"
         style="fill:none;stroke:#ffffff;stroke-width:4;stroke-linecap:butt;stroke-linejoin:miter;stroke-miterlimit:4;stroke-dasharray:none;stroke-opacity:1"
         d="m 431.02,80.6563 -43.872,-64.1797 0,250.6174 43.872,53.203 0,-239.6407 z" /><path
         id="path22"
         style="fill:#087bbb;fill-opacity:1;fill-rule:nonzero;stroke:none"
         d="m 71.4805,320.301 359.5395,0 -43.872,-53.199 -381.48784,0 65.82034,53.199" /><path
         id="path24"
         style="fill:none;stroke:#ffffff;stroke-width:4;stroke-linecap:butt;stroke-linejoin:miter;stroke-miterlimit:4;stroke-dasharray:none;stroke-opacity:1"
         d="m 71.4805,320.297 359.5395,0 -43.872,-53.203 -381.48784,0 65.82034,53.203 z" /><path
         id="path26"
         style="fill:#ffffff;fill-opacity:1;fill-rule:nonzero;stroke:none"
         d="M 61.4102,201.238 27.5,201.16 l 0,10.149 33.9102,0.043 0,15.859 36.9882,-20.93 -36.9882,-20.941 0,15.898" /><path
         id="path28"
         style="fill:#ffffff;fill-opacity:1;fill-rule:nonzero;stroke:none"
         d="M 61.4102,137.879 27.5,137.84 l 0,10.148 33.9102,0.043 0,15.86 36.9882,-20.93 -36.9882,-20.941 0,15.859" /><path
         id="path30"
         style="fill:#ffffff;fill-opacity:1;fill-rule:nonzero;stroke:none"
         d="M 61.4102,74.5586 27.5,74.5195 l 0,10.1524 33.9102,0.039 0,15.8591 36.9882,-20.9684 -36.9882,-20.9414 0,15.8984" /><path
         id="path32"
         style="fill:#ffffff;fill-opacity:1;fill-rule:nonzero;stroke:none"
         d="m 320.309,146.199 44.421,0.082 0,-10.16 -44.421,-0.043 0,-15.859 -37.028,20.941 37.028,20.942 0,-15.903" /><path
         id="path34"
         style="fill:#ffffff;fill-opacity:1;fill-rule:nonzero;stroke:none"
         d="m 346.879,137.25 -44.418,-0.078 0,10.156 44.418,0.043 0.031,15.859 37,-20.941 -37,-20.937 -0.031,15.898" /><path
         id="path36"
         style="fill:#087bbb;fill-opacity:1;fill-rule:nonzero;stroke:none"
         d="m 134.059,118.699 139.961,0 0,79.492 c -0.469,5.86 -10.821,5.43 -10.821,5.43 l -70.308,0 0,14.449 -46.95,0 0,-10.859 -11.839,0 -0.043,-88.512" /><path
         id="path38"
         style="fill:none;stroke:#ffffff;stroke-width:4;stroke-linecap:butt;stroke-linejoin:miter;stroke-miterlimit:4;stroke-dasharray:none;stroke-opacity:1"
         d="m 134.059,118.695 139.961,0 0,79.489 c -0.469,5.863 -10.821,5.429 -10.821,5.429 l -70.308,0 0,14.461 -46.95,0 0,-10.859 -11.839,0 -0.043,-88.52 z" /><path
         id="path40"
         style="fill:#087bbb;fill-opacity:1;fill-rule:nonzero;stroke:none"
         d="m 122.73,106.199 139.969,0 0,79.492 c -0.469,5.86 -10.789,5.387 -10.789,5.387 l -70.351,0 0,14.453 -46.95,0 0,-10.82 -11.839,0 -0.04,-88.512" /><path
         id="path42"
         style="fill:none;stroke:#ffffff;stroke-width:4;stroke-linecap:butt;stroke-linejoin:miter;stroke-miterlimit:4;stroke-dasharray:none;stroke-opacity:1"
         d="m 122.73,106.195 139.969,0 0,79.489 c -0.469,5.863 -10.789,5.402 -10.789,5.402 l -70.351,0 0,14.449 -46.95,0 0,-10.82 -11.839,0 -0.04,-88.52 z" /><path
         id="path44"
         style="fill:#087bbb;fill-opacity:1;fill-rule:nonzero;stroke:none"
         d="m 109.262,92.9883 140,0 0,79.4607 c -0.434,5.903 -10.742,5.43 -10.742,5.43 l -70.43,0 0,14.449 -46.961,0 0,-10.859 -11.828,0 -0.039,-88.4807" /><path
         id="path46"
         style="fill:none;stroke:#ffffff;stroke-width:4;stroke-linecap:butt;stroke-linejoin:miter;stroke-miterlimit:4;stroke-dasharray:none;stroke-opacity:1"
         d="m 109.262,92.9961 140,0 0,79.4489 c -0.434,5.899 -10.742,5.43 -10.742,5.43 l -70.43,0 0,14.461 -46.961,0 0,-10.859 -11.828,0 -0.039,-88.4809 z" /></g></g></svg>