<?xml version="1.0" encoding="UTF-8" standalone="no"?>
<svg
   xmlns:dc="http://purl.org/dc/elements/1.1/"
   xmlns:cc="http://creativecommons.org/ns#"
   xmlns:rdf="http://www.w3.org/1999/02/22-rdf-syntax-ns#"
   xmlns:svg="http://www.w3.org/2000/svg"
   xmlns="http://www.w3.org/2000/svg"
   viewBox="0 0 31.5 28.424999"
   height="28.424999"
   width="31.5"
   xml:space="preserve"
   version="1.1"
   id="svg2"><metadata
     id="metadata8"><rdf:RDF><cc:Work
         rdf:about=""><dc:format>image/svg+xml</dc:format><dc:type
           rdf:resource="http://purl.org/dc/dcmitype/StillImage" /></cc:Work></rdf:RDF></metadata><defs
     id="defs6"><clipPath
       id="clipPath18"
       clipPathUnits="userSpaceOnUse"><path
         id="path20"
         d="M 0,0 0,227 250,227 250,0 0,0 Z" /></clipPath></defs><g
     transform="matrix(1.25,0,0,-1.25,0,28.425)"
     id="g10"><g
       transform="scale(0.1,0.1)"
       id="g12"><g
         id="g14"><g
           clip-path="url(#clipPath18)"
           id="g16"><path
             id="path22"
             style="fill:#706d6e;fill-opacity:1;fill-rule:nonzero;stroke:none"
             d="M 161.547,160.832 220.492,48.5078" /><path
             id="path24"
             style="fill:#087bbb;fill-opacity:1;fill-rule:nonzero;stroke:none"
             d="m 192.641,223.898 -101.9457,0 -31.1055,-18.144 101.9572,0 31.094,18.144" /><path
             id="path26"
             style="fill:none;stroke:#ffffff;stroke-width:3.99993992;stroke-linecap:butt;stroke-linejoin:miter;stroke-miterlimit:4;stroke-dasharray:none;stroke-opacity:1"
             d="m 192.641,223.898 -101.9457,0 -31.1055,-18.144 101.9572,0 31.094,18.144 z" /><path
             id="path28"
             style="fill:#087bbb;fill-opacity:1;fill-rule:nonzero;stroke:none"
             d="m 220.609,48.5078 0,-44.92186 29.434,18.14456 0,44.9179 -57.402,112.3286 0,44.921 -31.094,-18.144 0,-44.922" /><path
             id="path30"
             style="fill:none;stroke:#ffffff;stroke-width:3.99993992;stroke-linecap:butt;stroke-linejoin:miter;stroke-miterlimit:4;stroke-dasharray:none;stroke-opacity:1"
             d="m 220.609,48.5078 0,-44.92186 29.434,18.14456 0,44.9179 -57.402,112.3286 0,44.921 -31.094,-18.144 0,-44.922" /><path
             id="path32"
             style="fill:#087bbb;fill-opacity:1;fill-rule:nonzero;stroke:none"
             d="m 220.492,48.6328 -58.945,112.3162 0,-0.117 0,44.922 -101.9572,0 0,-44.922 0,0.117 -57.03121,-112.3162 0.17579,-0.125 0,-44.92186 217.99262,0 0,44.92186 -0.235,0.125" /><path
             id="path34"
             style="fill:none;stroke:#ffffff;stroke-width:3.99993992;stroke-linecap:butt;stroke-linejoin:miter;stroke-miterlimit:4;stroke-dasharray:none;stroke-opacity:1"
             d="m 220.492,48.6328 -58.945,112.3162 0,-0.117 0,44.922 -101.9572,0 0,-44.922 0,0.117 -57.03121,-112.3162 0.17579,-0.125 0,-44.92186 217.99262,0 0,44.92186 -0.235,0.125 z" /><path
             id="path36"
             style="fill:#ffffff;fill-opacity:1;fill-rule:nonzero;stroke:none"
             d="m 109.813,105.945 6.046,0 0,-44.2731 30.043,0 -33.16,-39.5938 -32.9647,39.5938 30.0467,0 -0.011,44.2731" /><path
             id="path38"
             style="fill:#ffffff;fill-opacity:1;fill-rule:nonzero;stroke:none"
             d="m 115.859,106.055 -6.046,0 0.011,44.289 -30.0467,0 33.1527,39.57 32.972,-39.57 -30.043,0 0,-44.289" /></g></g></g></g></svg>