<?xml version="1.0" encoding="UTF-8" standalone="no"?>
<svg
   xmlns:dc="http://purl.org/dc/elements/1.1/"
   xmlns:cc="http://creativecommons.org/ns#"
   xmlns:rdf="http://www.w3.org/1999/02/22-rdf-syntax-ns#"
   xmlns:svg="http://www.w3.org/2000/svg"
   xmlns="http://www.w3.org/2000/svg"
   viewBox="0 0 39.737499 35.525002"
   height="35.525002"
   width="39.737499"
   xml:space="preserve"
   version="1.1"
   id="svg2"><metadata
     id="metadata8"><rdf:RDF><cc:Work
         rdf:about=""><dc:format>image/svg+xml</dc:format><dc:type
           rdf:resource="http://purl.org/dc/dcmitype/StillImage" /></cc:Work></rdf:RDF></metadata><defs
     id="defs6"><clipPath
       id="clipPath18"
       clipPathUnits="userSpaceOnUse"><path
         id="path20"
         d="M 0,4 0,284 318,284 318,4 0,4 Z" /></clipPath></defs><g
     transform="matrix(1.25,0,0,-1.25,0,35.525)"
     id="g10"><g
       transform="scale(0.1,0.1)"
       id="g12"><g
         id="g14"><g
           clip-path="url(#clipPath18)"
           id="g16"><path
             id="path22"
             style="fill:#087bbb;fill-opacity:1;fill-rule:nonzero;stroke:none"
             d="m 4.74609,4.91016 276.555,0 0,241.738 -276.555,0 0,-241.738 z" /><path
             id="path24"
             style="fill:none;stroke:#ffffff;stroke-width:3.99993992;stroke-linecap:butt;stroke-linejoin:miter;stroke-miterlimit:4;stroke-dasharray:none;stroke-opacity:1"
             d="m 4.74609,4.91016 276.555,0 0,241.738 -276.555,0 0,-241.738 z" /><path
             id="path26"
             style="fill:#087bbb;fill-opacity:1;fill-rule:nonzero;stroke:none"
             d="m 36.6094,279.324 -31.86331,-32.676 276.55491,0 31.863,32.676 -276.5546,0" /><path
             id="path28"
             style="fill:none;stroke:#ffffff;stroke-width:3.99993992;stroke-linecap:butt;stroke-linejoin:miter;stroke-miterlimit:4;stroke-dasharray:none;stroke-opacity:1"
             d="m 36.6094,279.324 -31.86331,-32.676 276.55491,0 31.863,32.676 -276.5546,0 z" /><path
             id="path30"
             style="fill:#087bbb;fill-opacity:1;fill-rule:nonzero;stroke:none"
             d="m 313.164,37.5898 0,241.7342 -31.863,-32.676 0,-241.73784 31.863,32.67964" /><path
             id="path32"
             style="fill:none;stroke:#ffffff;stroke-width:3.99993992;stroke-linecap:butt;stroke-linejoin:miter;stroke-miterlimit:4;stroke-dasharray:none;stroke-opacity:1"
             d="m 313.164,37.5898 0,241.7342 -31.863,-32.676 0,-241.73784 31.863,32.67964 z" /><path
             id="path34"
             style="fill:#087bbb;fill-opacity:1;fill-rule:nonzero;stroke:none"
             d="m 30.6563,24.1328 228.289,0 0,200.27 -228.289,0 0,-200.27 z" /><path
             id="path36"
             style="fill:none;stroke:#ffffff;stroke-width:3.99993992;stroke-linecap:butt;stroke-linejoin:miter;stroke-miterlimit:4;stroke-dasharray:none;stroke-opacity:1"
             d="m 30.6563,24.1328 228.289,0 0,200.27 -228.289,0 0,-200.27 z" /><path
             id="path38"
             style="fill:#087bbb;fill-opacity:1;fill-rule:nonzero;stroke:none"
             d="m 245.754,151.141 c 0,-21.524 -44.863,-38.961 -100.195,-38.961 -55.3363,0 -100.1996,17.437 -100.1996,38.961 l 0,-57.0707 c 0,-21.5195 44.8633,-38.9648 100.1996,-38.9648 55.332,0 100.195,17.4453 100.195,38.9648 l 0,57.0707" /><path
             id="path40"
             style="fill:none;stroke:#ffffff;stroke-width:3.99993992;stroke-linecap:butt;stroke-linejoin:miter;stroke-miterlimit:4;stroke-dasharray:none;stroke-opacity:1"
             d="m 245.754,151.141 c 0,-21.524 -44.863,-38.961 -100.195,-38.961 -55.3363,0 -100.1996,17.437 -100.1996,38.961 l 0,-57.0707 c 0,-21.5195 44.8633,-38.9648 100.1996,-38.9648 55.332,0 100.195,17.4453 100.195,38.9648 l 0,57.0707 z" /><path
             id="path42"
             style="fill:#087bbb;fill-opacity:1;fill-rule:nonzero;stroke:none"
             d="m 145.559,112.18 c 55.332,0 100.195,17.437 100.195,38.961 0,21.523 -44.863,38.964 -100.195,38.964 -55.3363,0 -100.1996,-17.441 -100.1996,-38.964 0,-21.524 44.8633,-38.961 100.1996,-38.961" /><path
             id="path44"
             style="fill:none;stroke:#ffffff;stroke-width:3.99993992;stroke-linecap:butt;stroke-linejoin:miter;stroke-miterlimit:4;stroke-dasharray:none;stroke-opacity:1"
             d="m 145.559,112.18 c 55.332,0 100.195,17.437 100.195,38.961 0,21.523 -44.863,38.964 -100.195,38.964 -55.3363,0 -100.1996,-17.441 -100.1996,-38.964 0,-21.524 44.8633,-38.961 100.1996,-38.961 z" /><path
             id="path46"
             style="fill:#ffffff;fill-opacity:1;fill-rule:nonzero;stroke:none"
             d="m 122.664,166.379 8.281,-12.414 -31.2848,-7.227 6.8318,5.692 -48.3357,8.261 12.125,9.094 46.6527,-7.898 5.73,4.492" /><path
             id="path48"
             style="fill:#ffffff;fill-opacity:1;fill-rule:nonzero;stroke:none"
             d="m 166.688,136.277 -5.641,12.793 28.211,5.649 -4.895,-4.399 47.032,-8.023 -11.29,-9.027 -46.738,8.781 -6.679,-5.774" /><path
             id="path50"
             style="fill:#ffffff;fill-opacity:1;fill-rule:nonzero;stroke:none"
             d="m 151.262,173.152 31.597,8.653 0.383,-13.543 -7.898,1.504 -15.434,-12.793 -14.707,2.136 15.918,12.524 -9.859,1.519" /><path
             id="path52"
             style="fill:#ffffff;fill-opacity:1;fill-rule:nonzero;stroke:none"
             d="m 137.727,124.617 -30.098,-5.644 -1.137,13.925 8.653,-1.882 16.566,14.148 14.668,-2.48 -17.688,-15.426 9.036,-2.641" /></g></g></g></g></svg>