<?xml version="1.0" encoding="UTF-8" standalone="no"?>
<svg
   xmlns:dc="http://purl.org/dc/elements/1.1/"
   xmlns:cc="http://creativecommons.org/ns#"
   xmlns:rdf="http://www.w3.org/1999/02/22-rdf-syntax-ns#"
   xmlns:svg="http://www.w3.org/2000/svg"
   xmlns="http://www.w3.org/2000/svg"
   viewBox="0 0 31.25 30"
   height="30"
   width="31.25"
   xml:space="preserve"
   version="1.1"
   id="svg2"><metadata
     id="metadata8"><rdf:RDF><cc:Work
         rdf:about=""><dc:format>image/svg+xml</dc:format><dc:type
           rdf:resource="http://purl.org/dc/dcmitype/StillImage" /></cc:Work></rdf:RDF></metadata><defs
     id="defs6"><clipPath
       id="clipPath18"
       clipPathUnits="userSpaceOnUse"><path
         id="path20"
         d="M 0,10 0,237 250,237 250,10 0,10 Z" /></clipPath></defs><g
     transform="matrix(1.25,0,0,-1.25,0,30)"
     id="g10"><g
       transform="scale(0.1,0.1)"
       id="g12"><g
         id="g14"><g
           clip-path="url(#clipPath18)"
           id="g16"><path
             id="path22"
             style="fill:#706d6e;fill-opacity:1;fill-rule:nonzero;stroke:none"
             d="M 161.559,170.828 220.512,58.5156" /><path
             id="path24"
             style="fill:#087bbb;fill-opacity:1;fill-rule:nonzero;stroke:none"
             d="m 192.66,233.906 -101.9608,0 -31.1289,-18.16 101.9887,0 31.101,18.16" /><path
             id="path26"
             style="fill:none;stroke:#ffffff;stroke-width:3.99993992;stroke-linecap:butt;stroke-linejoin:miter;stroke-miterlimit:4;stroke-dasharray:none;stroke-opacity:1"
             d="m 192.66,233.906 -101.9608,0 -31.1289,-18.16 101.9887,0 31.101,18.16 z" /><path
             id="path28"
             style="fill:#087bbb;fill-opacity:1;fill-rule:nonzero;stroke:none"
             d="m 220.621,58.5156 0,-44.9179 29.418,18.1289 0,44.9179 -57.379,112.3435 0,44.918 -31.101,-18.16 0,-44.918" /><path
             id="path30"
             style="fill:none;stroke:#ffffff;stroke-width:3.99993992;stroke-linecap:butt;stroke-linejoin:miter;stroke-miterlimit:4;stroke-dasharray:none;stroke-opacity:1"
             d="m 220.621,58.5156 0,-44.9179 29.418,18.1289 0,44.9179 -57.379,112.3435 0,44.918 -31.101,-18.16 0,-44.918" /><path
             id="path32"
             style="fill:#087bbb;fill-opacity:1;fill-rule:nonzero;stroke:none"
             d="m 220.512,58.6367 -58.953,112.3083 0,-0.117 0,44.918 -101.9887,0 0,-44.918 0,0.117 -57.03124,-112.3083 0.19141,-0.1211 0,-44.9179 218.00753,0 0,44.9179 -0.226,0.1211" /><path
             id="path34"
             style="fill:none;stroke:#ffffff;stroke-width:3.99993992;stroke-linecap:butt;stroke-linejoin:miter;stroke-miterlimit:4;stroke-dasharray:none;stroke-opacity:1"
             d="m 220.512,58.6367 -58.953,112.3083 0,-0.117 0,44.918 -101.9887,0 0,-44.918 0,0.117 -57.03124,-112.3083 0.19141,-0.1211 0,-44.9179 218.00753,0 0,44.9179 -0.226,0.1211 z" /><path
             id="path36"
             style="fill:#ffffff;fill-opacity:1;fill-rule:nonzero;stroke:none"
             d="m 109.801,115.945 6.058,0 0,-44.2575 30.039,0 -33.168,-39.6094 -32.9605,39.6094 30.0315,0 0,44.2575" /><path
             id="path38"
             style="fill:#ffffff;fill-opacity:1;fill-rule:nonzero;stroke:none"
             d="m 115.859,116.055 -6.058,0 0,44.3 -30.0315,0 33.1605,39.571 32.968,-39.571 -30.039,0 0,-44.3" /></g></g></g></g></svg>