<?xml version="1.0" encoding="UTF-8" standalone="no"?>
<svg
   xmlns:dc="http://purl.org/dc/elements/1.1/"
   xmlns:cc="http://creativecommons.org/ns#"
   xmlns:rdf="http://www.w3.org/1999/02/22-rdf-syntax-ns#"
   xmlns:svg="http://www.w3.org/2000/svg"
   xmlns="http://www.w3.org/2000/svg"
   viewBox="0 0 33.75 42.5"
   height="42.5"
   width="33.75"
   xml:space="preserve"
   version="1.1"
   id="svg2"><metadata
     id="metadata8"><rdf:RDF><cc:Work
         rdf:about=""><dc:format>image/svg+xml</dc:format><dc:type
           rdf:resource="http://purl.org/dc/dcmitype/StillImage" /></cc:Work></rdf:RDF></metadata><defs
     id="defs6" /><g
     transform="matrix(1.25,0,0,-1.25,0,42.5)"
     id="g10"><g
       transform="scale(0.1,0.1)"
       id="g12"><path
         id="path14"
         style="fill:#2b659d;fill-opacity:1;fill-rule:nonzero;stroke:none"
         d="m 7.07031,14.4688 161.602,0 0,281.84 -161.602,0 0,-281.84 z" /><path
         id="path16"
         style="fill:none;stroke:#ffffff;stroke-width:4;stroke-linecap:butt;stroke-linejoin:miter;stroke-miterlimit:4;stroke-dasharray:none;stroke-opacity:1"
         d="m 7.07031,14.4766 161.602,0 0,281.84 -161.602,0 0,-281.84 z" /><path
         id="path18"
         style="fill:none;stroke:#ffffff;stroke-width:4;stroke-linecap:butt;stroke-linejoin:miter;stroke-miterlimit:4;stroke-dasharray:none;stroke-opacity:1"
         d="m 6.98828,33.6953 160.90272,0" /><path
         id="path20"
         style="fill:none;stroke:#ffffff;stroke-width:6;stroke-linecap:butt;stroke-linejoin:miter;stroke-miterlimit:4;stroke-dasharray:none;stroke-opacity:1"
         d="m 160.859,79.4766 c 0,-17.1485 -13.91,-31.0508 -31.058,-31.0508 -17.18,0 -31.0901,13.9023 -31.0901,31.0508 0,17.1484 13.9101,31.0894 31.0901,31.0894 17.148,0 31.058,-13.941 31.058,-31.0894 z" /><path
         id="path22"
         style="fill:#ffffff;fill-opacity:1;fill-rule:nonzero;stroke:none"
         d="m 138.48,79.4805 c 0,-4.7696 -3.91,-8.6797 -8.679,-8.6797 -4.801,0 -8.672,3.9101 -8.672,8.6797 0,4.8008 3.871,8.6679 8.672,8.6679 4.769,0 8.679,-3.8671 8.679,-8.6679" /><path
         id="path24"
         style="fill:none;stroke:#ffffff;stroke-width:4;stroke-linecap:butt;stroke-linejoin:miter;stroke-miterlimit:4;stroke-dasharray:none;stroke-opacity:1"
         d="m 138.48,79.4766 c 0,-4.7696 -3.91,-8.6719 -8.679,-8.6719 -4.801,0 -8.672,3.9023 -8.672,8.6719 0,4.8086 3.871,8.6718 8.672,8.6718 4.769,0 8.679,-3.8632 8.679,-8.6718 z" /><path
         id="path26"
         style="fill:none;stroke:#ffffff;stroke-width:6;stroke-linecap:butt;stroke-linejoin:miter;stroke-miterlimit:4;stroke-dasharray:none;stroke-opacity:1"
         d="m 77.8906,79.4375 c 0,-17.1914 -13.9101,-31.0898 -31.0508,-31.0898 -17.1484,0 -31.0585,13.8984 -31.0585,31.0898 0,17.1484 13.9101,31.0585 31.0585,31.0585 17.1407,0 31.0508,-13.9101 31.0508,-31.0585 z" /><path
         id="path28"
         style="fill:none;stroke:#ffffff;stroke-width:8;stroke-linecap:round;stroke-linejoin:miter;stroke-miterlimit:4;stroke-dasharray:none;stroke-opacity:1"
         d="M 34.3008,66.8555 59.3789,91.9766" /><path
         id="path30"
         style="fill:none;stroke:#ffffff;stroke-width:8;stroke-linecap:round;stroke-linejoin:miter;stroke-miterlimit:4;stroke-dasharray:none;stroke-opacity:1"
         d="M 34.3008,91.9766 59.3789,66.8555" /><path
         id="path32"
         style="fill:none;stroke:#ffffff;stroke-width:6;stroke-linecap:butt;stroke-linejoin:miter;stroke-miterlimit:4;stroke-dasharray:none;stroke-opacity:1"
         d="m 118.59,147.676 c 0,-17.18 -13.899,-31.09 -31.09,-31.09 -17.1484,0 -31.0508,13.91 -31.0508,31.09 0,17.152 13.9024,31.062 31.0508,31.062 17.191,0 31.09,-13.91 31.09,-31.062 z" /><path
         id="path34"
         style="fill:none;stroke:#ffffff;stroke-width:8;stroke-linecap:round;stroke-linejoin:miter;stroke-miterlimit:4;stroke-dasharray:none;stroke-opacity:1"
         d="m 81.5195,134.008 -10.1484,10.16" /><path
         id="path36"
         style="fill:none;stroke:#ffffff;stroke-width:8;stroke-linecap:round;stroke-linejoin:miter;stroke-miterlimit:4;stroke-dasharray:none;stroke-opacity:1"
         d="M 104.531,157.016 81.5195,134.008" /><path
         id="path38"
         style="fill:#2b659d;fill-opacity:1;fill-rule:nonzero;stroke:none"
         d="m 7.07031,296.309 56.94919,35.121 155.8595,0 -51.207,-35.121 -161.60169,0" /><path
         id="path40"
         style="fill:none;stroke:#ffffff;stroke-width:4;stroke-linecap:butt;stroke-linejoin:miter;stroke-miterlimit:4;stroke-dasharray:none;stroke-opacity:1"
         d="m 7.07031,296.316 56.94919,35.11 155.8595,0 -51.207,-35.11 -161.60169,0 z" /><path
         id="path42"
         style="fill:#2b659d;fill-opacity:1;fill-rule:nonzero;stroke:none"
         d="m 168.75,14.1992 50.199,40.9024 0,276.0584 -50.199,-33.64 0,-283.3208" /><path
         id="path44"
         style="fill:none;stroke:#ffffff;stroke-width:4;stroke-linecap:butt;stroke-linejoin:miter;stroke-miterlimit:4;stroke-dasharray:none;stroke-opacity:1"
         d="m 168.75,14.207 50.199,40.8985 0,276.0505 -50.199,-33.629 0,-283.32 z" /><path
         id="path46"
         style="fill:none;stroke:#ffffff;stroke-width:3;stroke-linecap:butt;stroke-linejoin:miter;stroke-miterlimit:4;stroke-dasharray:none;stroke-opacity:1"
         d="m 6.98828,189.906 160.90272,0" /><path
         id="path48"
         style="fill:#2b659d;fill-opacity:1;fill-rule:nonzero;stroke:none"
         d="m 19.8789,245.531 75,0 0,30.8203 -75,0 0,-30.8203 z" /><path
         id="path50"
         style="fill:none;stroke:#ffffff;stroke-width:4;stroke-linecap:butt;stroke-linejoin:miter;stroke-miterlimit:4;stroke-dasharray:none;stroke-opacity:1"
         d="m 19.8789,245.535 75,0 0,30.8203 -75,0 0,-30.8203 z" /><path
         id="path52"
         style="fill:none;stroke:#ffffff;stroke-width:4;stroke-linecap:butt;stroke-linejoin:miter;stroke-miterlimit:4;stroke-dasharray:none;stroke-opacity:1"
         d="m 27.3789,259.906 60.8594,0" /><path
         id="path54"
         style="fill:#ffffff;fill-opacity:1;fill-rule:nonzero;stroke:none"
         d="m 218.32,202.84 4.801,0 c 36.18,0 41.918,-32.5 41.918,-32.5 l 0,33.75 c 0,0 -5.738,32.5 -41.918,32.5 l -5.781,0" /><path
         id="path56"
         style="fill:none;stroke:#231f20;stroke-width:4;stroke-linecap:butt;stroke-linejoin:miter;stroke-miterlimit:4;stroke-dasharray:none;stroke-opacity:1"
         d="m 218.32,202.836 4.801,0 c 36.18,0 41.918,-32.5 41.918,-32.5 l 0,33.75 c 0,0 -5.738,32.5 -41.918,32.5 l -5.781,0" /><path
         id="path58"
         style="fill:#ffffff;fill-opacity:1;fill-rule:nonzero;stroke:none"
         d="m 265.039,205.961 0,-40 c -3.949,-47.5 -88.16,-45 -88.16,-45 l 0,-35.0001 -55,55.0001 55,55 0,-35 c 0,0 85.66,-2.5 88.16,45" /><path
         id="path60"
         style="fill:none;stroke:#000000;stroke-width:4;stroke-linecap:butt;stroke-linejoin:miter;stroke-miterlimit:4;stroke-dasharray:none;stroke-opacity:1"
         d="m 265.039,205.957 0,-40 c -3.949,-47.5 -88.16,-45 -88.16,-45 l 0,-35 -55,55 55,55 0,-35 c 0,0 85.66,-2.5 88.16,45" /></g></g></svg>