<svg xmlns="http://www.w3.org/2000/svg" viewBox="0 0 37.5 42.5" height="42.5" width="37.5"><path d="M.728 40.775h29.58V28.89H.728v11.885z"/><path d="M.728 28.89v11.884h29.58V28.891" fill="none" stroke="#fff" stroke-width=".5"/><path d="M.728 5.184l5.166-4.038h29.711l-5.297 4.038H.728" fill="#087bbb"/><path d="M.728 5.184l5.166-4.038h29.711l-5.297 4.038H.728z" fill="none" stroke="#fff" stroke-width=".5"/><path d="M30.308 40.999l5.297-4.282V24.666L30.308 28.7V41"/><path d="M30.308 40.999l5.297-4.282v-12.05l-5.297 4.032V41zM30.308 32.743H.728M30.308 36.84H.728M35.21 33.274l-4.663 3.629M9.487 37.044v3.722M20.928 37.044v3.722M15.435 32.923v3.721M3.999 32.923v3.721M26.875 32.923v3.721" fill="none" stroke="#fff" stroke-width=".5" stroke-linecap="round" stroke-linejoin="round"/><path d="M30.449 4.964v27.788H.576V4.91l29.873.054" fill="#087bbb"/><path d="M30.449 4.964v27.787H.576V4.911l29.873.053z" fill="none" stroke="#fff" stroke-width=".5"/><path d="M35.42 28.498V1.244L30.35 5.066v27.51l5.069-4.078" fill="#087bbb"/><path d="M35.42 28.499V1.243L30.35 5.067v27.51l5.069-4.078z" fill="none" stroke="#fff" stroke-width=".5"/><path d="M34.301 29.632v4.395M32.583 35.33v4.396" fill="none" stroke="#fff" stroke-width=".5" stroke-linecap="round" stroke-linejoin="round"/><path d="M6.319 15.521H17.85v-.777l2.574 1.559-2.574 1.606v-.781H6.32v-1.606M24.063 19.646h-9.698v-.78l-2.573 1.562 2.573 1.607v-.781h9.697v-1.608M27.784 29.535a.958.958 0 0 1-1.06-.84.954.954 0 0 1 .84-1.06.958.958 0 0 1 .22 1.9" fill="#fff"/><path d="M27.784 29.534a.957.957 0 0 1-.22-1.899.958.958 0 0 1 1.059.84.958.958 0 0 1-.84 1.06z" fill="none" stroke="#000" stroke-width=".25"/><path d="M28.369 27.479l-1.645 2.026-5.869-4.77 1.65-2.031 5.864 4.774" fill="#fff"/><path d="M28.369 27.479l-1.645 2.026-5.869-4.77 1.65-2.032 5.864 4.776z" fill="none" stroke="#000" stroke-width=".25"/><path d="M7.149 17.035c-.558 4.847 2.934 9.242 7.787 9.799 4.85.557 9.244-2.939 9.8-7.788.552-4.849-2.939-9.243-7.787-9.8-4.849-.556-9.249 2.94-9.8 7.79zm1.23.141c.478-4.174 4.257-7.177 8.427-6.7 4.17.48 7.179 4.264 6.7 8.434-.479 4.169-4.259 7.173-8.432 6.694-4.165-.479-7.174-4.258-6.695-8.428" fill="#fff"/><path d="M7.149 17.034c-.558 4.849 2.934 9.244 7.787 9.8 4.85.557 9.244-2.94 9.8-7.787.552-4.85-2.939-9.244-7.787-9.8-4.849-.558-9.249 2.938-9.8 7.787zm1.23.141c.478-4.174 4.257-7.177 8.427-6.699 4.17.48 7.179 4.263 6.7 8.433-.479 4.17-4.258 7.172-8.432 6.695-4.165-.479-7.174-4.259-6.695-8.429z" fill="none" stroke="#000" stroke-width=".25"/><path d="M6.06 17.425c-.558 4.849 2.939 9.244 7.782 9.8 4.854.556 9.25-2.94 9.805-7.789.552-4.849-2.94-9.242-7.787-9.798-4.849-.558-9.249 2.938-9.8 7.787zm1.23.141c.479-4.175 4.257-7.177 8.427-6.698 4.17.478 7.173 4.257 6.7 8.427-.478 4.17-4.263 7.178-8.432 6.699-4.166-.478-7.174-4.258-6.695-8.428" fill="#fff"/><path d="M6.06 17.425c-.558 4.85 2.939 9.243 7.782 9.8 4.854.557 9.25-2.94 9.805-7.789.552-4.848-2.94-9.243-7.787-9.8-4.849-.555-9.249 2.94-9.8 7.79zm1.23.142c.479-4.175 4.257-7.178 8.427-6.699 4.17.477 7.173 4.257 6.7 8.427-.478 4.17-4.263 7.178-8.432 6.7-4.166-.48-7.174-4.258-6.695-8.428z" fill="none" stroke="#000" stroke-width=".25"/><path d="M24.063 20.623h4.902M2.261 16.302h4.902" fill="none" stroke="#fff" stroke-width=".625"/></svg>