<?xml version="1.0" encoding="UTF-8" standalone="no"?>
<svg
   xmlns:dc="http://purl.org/dc/elements/1.1/"
   xmlns:cc="http://creativecommons.org/ns#"
   xmlns:rdf="http://www.w3.org/1999/02/22-rdf-syntax-ns#"
   xmlns:svg="http://www.w3.org/2000/svg"
   xmlns="http://www.w3.org/2000/svg"
   viewBox="0 0 47.212502 42.424999"
   height="42.424999"
   width="47.212502"
   xml:space="preserve"
   version="1.1"
   id="svg2"><metadata
     id="metadata8"><rdf:RDF><cc:Work
         rdf:about=""><dc:format>image/svg+xml</dc:format><dc:type
           rdf:resource="http://purl.org/dc/dcmitype/StillImage" /></cc:Work></rdf:RDF></metadata><defs
     id="defs6" /><g
     transform="matrix(1.25,0,0,-1.25,0,42.425)"
     id="g10"><g
       transform="scale(0.1,0.1)"
       id="g12"><path
         id="path14"
         style="fill:#087bbb;fill-opacity:1;fill-rule:nonzero;stroke:none"
         d="m 5.03516,52.9492 314.746,0 0,59.0625 -314.746,0 0,-59.0625 z" /><path
         id="path16"
         style="fill:none;stroke:#ffffff;stroke-width:3.99993992;stroke-linecap:butt;stroke-linejoin:miter;stroke-miterlimit:4;stroke-dasharray:none;stroke-opacity:1"
         d="m 5.03516,52.9492 314.746,0 0,59.0625 -314.746,0 0,-59.0625 z" /><path
         id="path18"
         style="fill:#087bbb;fill-opacity:1;fill-rule:nonzero;stroke:none"
         d="m 223.375,78.5742 79.375,0" /><path
         id="path20"
         style="fill:none;stroke:#ffffff;stroke-width:3.99993992;stroke-linecap:butt;stroke-linejoin:miter;stroke-miterlimit:4;stroke-dasharray:none;stroke-opacity:1"
         d="m 223.375,78.5742 79.375,0" /><path
         id="path22"
         style="fill:#087bbb;fill-opacity:1;fill-rule:nonzero;stroke:none"
         d="m 223.375,81.4063 79.375,0" /><path
         id="path24"
         style="fill:none;stroke:#ffffff;stroke-width:3.99993992;stroke-linecap:butt;stroke-linejoin:miter;stroke-miterlimit:4;stroke-dasharray:none;stroke-opacity:1"
         d="m 223.375,81.4063 79.375,0" /><path
         id="path26"
         style="fill:#087bbb;fill-opacity:1;fill-rule:nonzero;stroke:none"
         d="m 372.613,108.945 0,52.93 -52.871,-50.098 0,-58.8278 52.871,55.9958" /><path
         id="path28"
         style="fill:none;stroke:#ffffff;stroke-width:3.99993992;stroke-linecap:butt;stroke-linejoin:miter;stroke-miterlimit:4;stroke-dasharray:none;stroke-opacity:1"
         d="m 372.613,108.945 0,52.93 -52.871,-50.098 0,-58.8278 52.871,55.9958 z" /><path
         id="path30"
         style="fill:#087bbb;fill-opacity:1;fill-rule:nonzero;stroke:none"
         d="m 263.863,4.82422 0,13.26168 28.614,39.5508 0,-24.2187 -28.614,-28.59378" /><path
         id="path32"
         style="fill:none;stroke:#ffffff;stroke-width:3.99993992;stroke-linecap:butt;stroke-linejoin:miter;stroke-miterlimit:4;stroke-dasharray:none;stroke-opacity:1"
         d="m 263.863,4.82422 0,13.26168 28.614,39.5508 0,-24.2187 -28.614,-28.59378 z" /><path
         id="path34"
         style="fill:#087bbb;fill-opacity:1;fill-rule:nonzero;stroke:none"
         d="m 11.7344,4.82422 252.129,0 0,13.0664 -252.129,0 0,-13.0664 z" /><path
         id="path36"
         style="fill:none;stroke:#ffffff;stroke-width:3.99993992;stroke-linecap:butt;stroke-linejoin:miter;stroke-miterlimit:4;stroke-dasharray:none;stroke-opacity:1"
         d="m 11.7344,4.82422 252.129,0 0,13.0664 -252.129,0 0,-13.0664 z" /><path
         id="path38"
         style="fill:#087bbb;fill-opacity:1;fill-rule:nonzero;stroke:none"
         d="m 263.863,17.8906 -251.32,0 28.5937,39.7461 251.3403,0 -28.614,-39.7461" /><path
         id="path40"
         style="fill:none;stroke:#ffffff;stroke-width:3.99993992;stroke-linecap:butt;stroke-linejoin:miter;stroke-miterlimit:4;stroke-dasharray:none;stroke-opacity:1"
         d="m 263.863,17.8906 -251.32,0 28.5937,39.7461 251.3403,0 -28.614,-39.7461 z" /><path
         id="path42"
         style="fill:#087bbb;fill-opacity:1;fill-rule:nonzero;stroke:none"
         d="m 372.613,161.758 -314.8435,0 -52.73434,-49.746 314.74584,0 52.832,49.746" /><path
         id="path44"
         style="fill:none;stroke:#ffffff;stroke-width:3.99993992;stroke-linecap:butt;stroke-linejoin:miter;stroke-miterlimit:4;stroke-dasharray:none;stroke-opacity:1"
         d="m 372.613,161.758 -314.8435,0 -52.73434,-49.746 314.74584,0 52.832,49.746 z" /><path
         id="path46"
         style="fill:#087bbb;fill-opacity:1;fill-rule:nonzero;stroke:none"
         d="m 313.316,161.543 -210.703,0 -35.3044,-33.281 210.6954,0 35.312,33.281" /><path
         id="path48"
         style="fill:none;stroke:#ffffff;stroke-width:3.99993992;stroke-linecap:butt;stroke-linejoin:miter;stroke-miterlimit:4;stroke-dasharray:none;stroke-opacity:1"
         d="m 313.316,161.543 -210.703,0 -35.3044,-33.281 210.6954,0 35.312,33.281 z" /><path
         id="path50"
         style="fill:#087bbb;fill-opacity:1;fill-rule:nonzero;stroke:none"
         d="m 61.3242,141.27 217.012,0 0,159.063 -217.012,0 0,-159.063 z" /><path
         id="path52"
         style="fill:none;stroke:#ffffff;stroke-width:3.99993992;stroke-linecap:butt;stroke-linejoin:miter;stroke-miterlimit:4;stroke-dasharray:none;stroke-opacity:1"
         d="m 61.3242,141.27 217.012,0 0,159.063 -217.012,0 0,-159.063 z" /><path
         id="path54"
         style="fill:#087bbb;fill-opacity:1;fill-rule:nonzero;stroke:none"
         d="m 79.6523,265.449 c 0,15.977 16.5625,18.34 16.5625,18.34 0,0 127.7262,0 143.0982,0 20.097,0 19.511,-18.926 19.511,-18.926 0,0 0,-78.047 0,-89.297 0,-11.23 -15.371,-15.957 -15.371,-15.957 0,0 -130.683,0 -144.8749,0 -14.1875,0 -18.9258,14.786 -18.9258,14.786 l 0,91.054" /><path
         id="path56"
         style="fill:none;stroke:#ffffff;stroke-width:3.99993992;stroke-linecap:butt;stroke-linejoin:miter;stroke-miterlimit:4;stroke-dasharray:none;stroke-opacity:1"
         d="m 79.6523,265.449 c 0,15.977 16.5625,18.34 16.5625,18.34 0,0 127.7262,0 143.0982,0 20.097,0 19.511,-18.926 19.511,-18.926 0,0 0,-78.047 0,-89.297 0,-11.23 -15.371,-15.957 -15.371,-15.957 0,0 -130.683,0 -144.8749,0 -14.1875,0 -18.9258,14.786 -18.9258,14.786 l 0,91.054 z" /><path
         id="path58"
         style="fill:#087bbb;fill-opacity:1;fill-rule:nonzero;stroke:none"
         d="m 314.703,334.629 -217.0116,0 -36.3672,-34.297 217.0118,0 36.367,34.297" /><path
         id="path60"
         style="fill:none;stroke:#ffffff;stroke-width:3.99993992;stroke-linecap:butt;stroke-linejoin:miter;stroke-miterlimit:4;stroke-dasharray:none;stroke-opacity:1"
         d="m 314.703,334.629 -217.0116,0 -36.3672,-34.297 217.0118,0 36.367,34.297 z" /><path
         id="path62"
         style="fill:#087bbb;fill-opacity:1;fill-rule:nonzero;stroke:none"
         d="m 314.703,175.078 0,159.629 -36.015,-34.062 0,-159.629 36.015,34.062" /><path
         id="path64"
         style="fill:none;stroke:#ffffff;stroke-width:3.99993992;stroke-linecap:butt;stroke-linejoin:miter;stroke-miterlimit:4;stroke-dasharray:none;stroke-opacity:1"
         d="m 314.703,175.078 0,159.629 -36.015,-34.062 0,-159.629 36.015,34.062 z" /><path
         id="path66"
         style="fill:#087bbb;fill-opacity:1;fill-rule:nonzero;stroke:none"
         d="m 203.551,256.719 0,-71.856" /><path
         id="path68"
         style="fill:none;stroke:#ffffff;stroke-width:3.99993992;stroke-linecap:butt;stroke-linejoin:miter;stroke-miterlimit:4;stroke-dasharray:none;stroke-opacity:1"
         d="m 203.551,256.719 0,-71.856" /><path
         id="path70"
         style="fill:#087bbb;fill-opacity:1;fill-rule:nonzero;stroke:none"
         d="m 133.355,184.863 0,82.356" /><path
         id="path72"
         style="fill:none;stroke:#ffffff;stroke-width:3.99993992;stroke-linecap:butt;stroke-linejoin:miter;stroke-miterlimit:4;stroke-dasharray:none;stroke-opacity:1"
         d="m 133.355,184.863 0,82.356" /><path
         id="path74"
         style="fill:#087bbb;fill-opacity:1;fill-rule:nonzero;stroke:none"
         d="m 133.355,184.609 c 14.844,-33.808 28.348,3.985 28.348,3.985 l 66.152,0 c -6.746,-17.547 -16.199,-18.895 -16.199,-18.895 l -62.109,0 c -12.149,1.348 -16.192,14.91 -16.192,14.91" /><path
         id="path76"
         style="fill:none;stroke:#ffffff;stroke-width:3.99993992;stroke-linecap:butt;stroke-linejoin:miter;stroke-miterlimit:4;stroke-dasharray:none;stroke-opacity:1"
         d="m 133.355,184.609 c 14.844,-33.808 28.348,3.985 28.348,3.985 l 66.152,0 c -6.746,-17.547 -16.199,-18.895 -16.199,-18.895 l -62.109,0 c -12.149,1.348 -16.192,14.91 -16.192,14.91 z" /><path
         id="path78"
         style="fill:#087bbb;fill-opacity:1;fill-rule:nonzero;stroke:none"
         d="m 149.547,226.641 39.16,0" /><path
         id="path80"
         style="fill:none;stroke:#ffffff;stroke-width:3.99993992;stroke-linecap:butt;stroke-linejoin:miter;stroke-miterlimit:4;stroke-dasharray:none;stroke-opacity:1"
         d="m 149.547,226.641 39.16,0" /><path
         id="path82"
         style="fill:#087bbb;fill-opacity:1;fill-rule:nonzero;stroke:none"
         d="m 149.547,218.547 39.16,0" /><path
         id="path84"
         style="fill:none;stroke:#ffffff;stroke-width:3.99993992;stroke-linecap:butt;stroke-linejoin:miter;stroke-miterlimit:4;stroke-dasharray:none;stroke-opacity:1"
         d="m 149.547,218.547 39.16,0" /><path
         id="path86"
         style="fill:#087bbb;fill-opacity:1;fill-rule:nonzero;stroke:none"
         d="m 149.547,207.754 39.16,0" /><path
         id="path88"
         style="fill:none;stroke:#ffffff;stroke-width:3.99993992;stroke-linecap:butt;stroke-linejoin:miter;stroke-miterlimit:4;stroke-dasharray:none;stroke-opacity:1"
         d="m 149.547,207.754 39.16,0" /><path
         id="path90"
         style="fill:#087bbb;fill-opacity:1;fill-rule:nonzero;stroke:none"
         d="m 149.547,199.648 39.16,0" /><path
         id="path92"
         style="fill:none;stroke:#ffffff;stroke-width:3.99993992;stroke-linecap:butt;stroke-linejoin:miter;stroke-miterlimit:4;stroke-dasharray:none;stroke-opacity:1"
         d="m 149.547,199.648 39.16,0" /><path
         id="path94"
         style="fill:#087bbb;fill-opacity:1;fill-rule:nonzero;stroke:none"
         d="m 202.633,259.043 -4.043,12.148 -65.051,0 c 0,0 -10.801,1.36 -13.504,-17.539 l 0,-14.863 13.133,0 0,20.254" /><path
         id="path96"
         style="fill:none;stroke:#ffffff;stroke-width:3.99993992;stroke-linecap:butt;stroke-linejoin:miter;stroke-miterlimit:4;stroke-dasharray:none;stroke-opacity:1"
         d="m 202.633,259.043 -4.043,12.148 -65.051,0 c 0,0 -10.801,1.36 -13.504,-17.539 l 0,-14.863 13.133,0 0,20.254" /><path
         id="path98"
         style="fill:#087bbb;fill-opacity:1;fill-rule:nonzero;stroke:none"
         d="m 132.047,271.191 c 0,0 -10.801,1.36 -13.508,-17.539 l 0,-14.863" /><path
         id="path100"
         style="fill:none;stroke:#ffffff;stroke-width:3.99993992;stroke-linecap:butt;stroke-linejoin:miter;stroke-miterlimit:4;stroke-dasharray:none;stroke-opacity:1"
         d="m 132.047,271.191 c 0,0 -10.801,1.36 -13.508,-17.539 l 0,-14.863" /><path
         id="path102"
         style="fill:#087bbb;fill-opacity:1;fill-rule:nonzero;stroke:none"
         d="m 149.547,246.895 39.16,0" /><path
         id="path104"
         style="fill:none;stroke:#ffffff;stroke-width:3.99993992;stroke-linecap:butt;stroke-linejoin:miter;stroke-miterlimit:4;stroke-dasharray:none;stroke-opacity:1"
         d="m 149.547,246.895 39.16,0" /><path
         id="path106"
         style="fill:#087bbb;fill-opacity:1;fill-rule:nonzero;stroke:none"
         d="m 149.547,255 39.16,0" /><path
         id="path108"
         style="fill:none;stroke:#ffffff;stroke-width:3.99993992;stroke-linecap:butt;stroke-linejoin:miter;stroke-miterlimit:4;stroke-dasharray:none;stroke-opacity:1"
         d="m 149.547,255 39.16,0" /><path
         id="path110"
         style="fill:#087bbb;fill-opacity:1;fill-rule:nonzero;stroke:none"
         d="m 134.438,184.238 0,76.973" /><path
         id="path112"
         style="fill:none;stroke:#ffffff;stroke-width:3.99993992;stroke-linecap:butt;stroke-linejoin:miter;stroke-miterlimit:4;stroke-dasharray:none;stroke-opacity:1"
         d="m 134.438,184.238 0,76.973" /></g></g></svg>