<svg xmlns="http://www.w3.org/2000/svg" viewBox="0 0 47.5 43.75" height="43.75" width="47.5"><path d="M.63 35.881H39.97V28.5H.63v7.382z" fill="#087bbb"/><path d="M.63 35.88H39.97V28.5H.63v7.382zM27.92 32.678h9.921M27.92 32.322h9.921" fill="none" stroke="#fff" stroke-width=".5"/><path d="M46.578 28.88v-6.616l-6.612 6.265v7.352l6.612-7.001" fill="#087bbb"/><path d="M46.578 28.88v-6.617l-6.612 6.265v7.354l6.612-7.003z" fill="none" stroke="#fff" stroke-width=".5"/><path d="M32.984 41.897v-1.66l3.574-4.94v3.025l-3.574 3.575" fill="#087bbb"/><path d="M32.984 41.897v-1.66l3.574-4.941v3.027l-3.574 3.574z" fill="none" stroke="#fff" stroke-width=".5"/><path d="M1.465 41.897h31.519v-1.636H1.464v1.636z" fill="#087bbb"/><path d="M1.465 41.898h31.519v-1.636H1.464v1.636z" fill="none" stroke="#fff" stroke-width=".5"/><path d="M32.984 40.261H1.567l3.574-4.965h31.417l-3.574 4.965" fill="#087bbb"/><path d="M32.984 40.262H1.567l3.574-4.966h31.417l-3.574 4.966z" fill="none" stroke="#fff" stroke-width=".5"/><path d="M46.578 22.279H7.22L.63 28.499H39.97l6.607-6.22" fill="#087bbb"/><path d="M46.578 22.278H7.22L.63 28.498H39.97l6.607-6.22z" fill="none" stroke="#fff" stroke-width=".5"/><path d="M39.165 22.308H12.828l-4.415 4.16H34.75l4.414-4.16" fill="#087bbb"/><path d="M39.165 22.307H12.828l-4.415 4.16H34.75l4.414-4.16z" fill="none" stroke="#fff" stroke-width=".5"/><path d="M7.666 24.841H34.79V4.96H7.666V24.84z" fill="#087bbb"/><path d="M7.666 24.84H34.79V4.96H7.666V24.84z" fill="none" stroke="#fff" stroke-width=".5"/><path d="M9.956 9.319c0-1.997 2.07-2.295 2.07-2.295h17.887c2.513 0 2.44 2.369 2.44 2.369v11.162c0 1.401-1.923 1.991-1.923 1.991H12.324c-1.777 0-2.368-1.845-2.368-1.845V9.32" fill="#087bbb"/><path d="M9.956 9.32c0-1.998 2.07-2.296 2.07-2.296h17.887c2.513 0 2.44 2.368 2.44 2.368v11.163c0 1.401-1.923 1.992-1.923 1.992H12.324c-1.777 0-2.368-1.846-2.368-1.846V9.32z" fill="none" stroke="#fff" stroke-width=".5"/><path d="M39.336.671H12.212L7.666 4.96H34.79L39.336.671" fill="#087bbb"/><path d="M39.336.672H12.212L7.666 4.96H34.79L39.336.672z" fill="none" stroke="#fff" stroke-width=".5"/><path d="M39.336 20.612V.662L34.834 4.92V24.87l4.502-4.259" fill="#087bbb"/><path d="M39.336 20.613V.663l-4.502 4.256v19.952l4.502-4.258zM25.444 10.408v8.984M16.67 19.392V9.1" fill="none" stroke="#fff" stroke-width=".5"/><path d="M16.67 19.421c1.855 4.229 3.545-.497 3.545-.497h8.266c-.845 2.197-2.026 2.364-2.026 2.364h-7.764c-1.519-.167-2.021-1.867-2.021-1.867" fill="#087bbb"/><path d="M16.67 19.422c1.855 4.227 3.545-.499 3.545-.499h8.266c-.845 2.198-2.026 2.364-2.026 2.364h-7.764c-1.519-.166-2.021-1.865-2.021-1.865zM18.691 14.169h4.898M18.691 15.184h4.898M18.691 16.53h4.898M18.691 17.542h4.898" fill="none" stroke="#fff" stroke-width=".5"/><path d="M25.328 10.12l-.504-1.519h-8.13s-1.353-.17-1.69 2.193v1.855h1.641V10.12" fill="#087bbb"/><path d="M25.328 10.12L24.824 8.6h-8.13s-1.353-.17-1.69 2.192v1.856h1.641v-2.53" fill="none" stroke="#fff" stroke-width=".5"/><path d="M16.504 8.601s-1.348-.17-1.685 2.193v1.855" fill="#087bbb"/><path d="M16.504 8.601s-1.348-.17-1.685 2.193v1.855M18.691 11.638h4.898M18.691 10.623h4.898M16.806 19.47V9.847" fill="none" stroke="#fff" stroke-width=".5"/></svg>