<?xml version="1.0" encoding="UTF-8" standalone="no"?>
<svg
   xmlns:dc="http://purl.org/dc/elements/1.1/"
   xmlns:cc="http://creativecommons.org/ns#"
   xmlns:rdf="http://www.w3.org/1999/02/22-rdf-syntax-ns#"
   xmlns:svg="http://www.w3.org/2000/svg"
   xmlns="http://www.w3.org/2000/svg"
   viewBox="0 0 45.837502 39.799999"
   height="39.799999"
   width="45.837502"
   xml:space="preserve"
   version="1.1"
   id="svg2"><metadata
     id="metadata8"><rdf:RDF><cc:Work
         rdf:about=""><dc:format>image/svg+xml</dc:format><dc:type
           rdf:resource="http://purl.org/dc/dcmitype/StillImage" /></cc:Work></rdf:RDF></metadata><defs
     id="defs6" /><g
     transform="matrix(1.25,0,0,-1.25,0,39.8)"
     id="g10"><g
       transform="scale(0.1,0.1)"
       id="g12"><path
         id="path14"
         style="fill:#1582ba;fill-opacity:1;fill-rule:nonzero;stroke:none"
         d="m 364.746,245.836 c 0,-38.957 -81.199,-70.539 -181.375,-70.539 -100.1679,0 -181.36709,31.582 -181.36709,70.539 l 0,-173.3165 c 0,-38.9453 81.19919,-70.52731 181.36709,-70.52731 100.176,0 181.375,31.58201 181.375,70.52731 l 0,173.3165" /><path
         id="path16"
         style="fill:none;stroke:#ffffff;stroke-width:4;stroke-linecap:butt;stroke-linejoin:miter;stroke-miterlimit:4;stroke-dasharray:none;stroke-opacity:1"
         d="m 364.746,245.836 c 0,-38.957 -81.199,-70.539 -181.375,-70.539 -100.1679,0 -181.36709,31.582 -181.36709,70.539 l 0,-173.3165 c 0,-38.9453 81.19919,-70.52731 181.36709,-70.52731 100.176,0 181.375,31.58201 181.375,70.52731 l 0,173.3165 z" /><path
         id="path18"
         style="fill:#1582ba;fill-opacity:1;fill-rule:nonzero;stroke:none"
         d="m 183.371,175.297 c 100.176,0 181.375,31.582 181.375,70.539 0,38.953 -81.199,70.527 -181.375,70.527 -100.1679,0 -181.36709,-31.574 -181.36709,-70.527 0,-38.957 81.19919,-70.539 181.36709,-70.539" /><path
         id="path20"
         style="fill:none;stroke:#ffffff;stroke-width:4;stroke-linecap:butt;stroke-linejoin:miter;stroke-miterlimit:4;stroke-dasharray:none;stroke-opacity:1"
         d="m 183.371,175.297 c 100.176,0 181.375,31.582 181.375,70.539 0,38.953 -81.199,70.527 -181.375,70.527 -100.1679,0 -181.36709,-31.574 -181.36709,-70.527 0,-38.957 81.19919,-70.539 181.36709,-70.539 z" /><path
         id="path22"
         style="fill:#ffffff;fill-opacity:1;fill-rule:nonzero;stroke:none"
         d="m 143.664,274.086 15.195,-22.793 -57.433,-13.27 12.551,10.457 -88.7426,15.168 22.2578,16.688 85.6448,-14.5 10.527,8.25" /><path
         id="path24"
         style="fill:#ffffff;fill-opacity:1;fill-rule:nonzero;stroke:none"
         d="m 224.465,218.832 -10.352,23.488 51.793,10.36 -8.98,-8.055 86.328,-14.738 -20.715,-16.571 -85.809,16.102 -12.265,-10.586" /><path
         id="path26"
         style="fill:#ffffff;fill-opacity:1;fill-rule:nonzero;stroke:none"
         d="m 196.152,286.52 58.008,15.878 0.695,-24.863 -14.503,2.762 -28.309,-23.477 -27.023,3.938 29.218,22.976 -18.086,2.786" /><path
         id="path28"
         style="fill:#ffffff;fill-opacity:1;fill-rule:nonzero;stroke:none"
         d="m 171.289,197.426 -55.242,-10.36 -2.082,25.555 15.89,-3.457 30.411,25.977 26.914,-4.559 -32.461,-28.32 16.57,-4.836" /><path
         id="path30"
         style="fill:#ffffff;fill-opacity:1;fill-rule:nonzero;stroke:none"
         d="m 335.254,48.7305 0,62.0505 -37.383,-29.8044 37.383,-32.2461" /><path
         id="path32"
         style="fill:none;stroke:#000000;stroke-width:3;stroke-linecap:butt;stroke-linejoin:miter;stroke-miterlimit:4;stroke-dasharray:none;stroke-opacity:1"
         d="m 335.254,48.7305 0,62.0505 -37.383,-29.8044 37.383,-32.2461 z" /><path
         id="path34"
         style="fill:#ffffff;fill-opacity:1;fill-rule:nonzero;stroke:none"
         d="m 32.6797,48.4766 0,62.0504 L 70.043,80.7227 32.6797,48.4766" /><path
         id="path36"
         style="fill:none;stroke:#000000;stroke-width:3;stroke-linecap:butt;stroke-linejoin:miter;stroke-miterlimit:4;stroke-dasharray:none;stroke-opacity:1"
         d="m 32.6797,48.4766 0,62.0504 L 70.043,80.7227 32.6797,48.4766 Z" /><path
         id="path38"
         style="fill:#ffffff;fill-opacity:1;fill-rule:nonzero;stroke:none"
         d="m 57.7578,171.672 0,-62.082 -37.3828,29.805 37.3828,32.277" /><path
         id="path40"
         style="fill:none;stroke:#000000;stroke-width:3;stroke-linecap:butt;stroke-linejoin:miter;stroke-miterlimit:4;stroke-dasharray:none;stroke-opacity:1"
         d="m 57.7578,171.672 0,-62.082 -37.3828,29.805 37.3828,32.277 z" /><path
         id="path42"
         style="fill:#ffffff;fill-opacity:1;fill-rule:nonzero;stroke:none"
         d="m 307.344,171.926 0,-62.082 37.383,29.804 -37.383,32.278" /><path
         id="path44"
         style="fill:none;stroke:#000000;stroke-width:3;stroke-linecap:butt;stroke-linejoin:miter;stroke-miterlimit:4;stroke-dasharray:none;stroke-opacity:1"
         d="m 307.344,171.926 0,-62.082 37.383,29.804 -37.383,32.278 z" /><path
         id="path46"
         style="fill:none;stroke:#ffffff;stroke-width:7.5999999;stroke-linecap:butt;stroke-linejoin:miter;stroke-miterlimit:4;stroke-dasharray:none;stroke-opacity:1"
         d="m 315.449,141.68 -22.558,0" /><path
         id="path48"
         style="fill:none;stroke:#ffffff;stroke-width:7.5999999;stroke-linecap:butt;stroke-linejoin:miter;stroke-miterlimit:4;stroke-dasharray:none;stroke-opacity:1"
         d="m 323.34,81.4844 28.242,0" /><path
         id="path50"
         style="fill:none;stroke:#ffffff;stroke-width:7.5999999;stroke-linecap:butt;stroke-linejoin:miter;stroke-miterlimit:4;stroke-dasharray:none;stroke-opacity:1"
         d="m 42.6797,81.2305 -30.0859,0" /><path
         id="path52"
         style="fill:none;stroke:#ffffff;stroke-width:7.5999999;stroke-linecap:butt;stroke-linejoin:miter;stroke-miterlimit:4;stroke-dasharray:none;stroke-opacity:1"
         d="m 43.9688,139.531 28.2421,0" /><path
         id="path54"
         style="fill:#ffffff;fill-opacity:1;fill-rule:nonzero;stroke:none"
         d="m 263.613,122.57 -0.175,-111.5348 -162.637,0 -0.153,111.5348 162.965,0" /><path
         id="path56"
         style="fill:none;stroke:#000000;stroke-width:3;stroke-linecap:butt;stroke-linejoin:miter;stroke-miterlimit:4;stroke-dasharray:none;stroke-opacity:1"
         d="m 263.613,122.57 -0.175,-111.5348 -162.637,0 -0.153,111.5348 162.965,0 z" /><path
         id="path58"
         style="fill:#ffffff;fill-opacity:1;fill-rule:nonzero;stroke:none"
         d="m 225.371,153.57 c 0,0 6.387,0.715 7.832,-5.679 l 1.406,-20.586 42.657,-7.117 4.257,9.246 -10.683,25.562 c -54.707,13.496 -107.285,9.234 -107.285,9.234 l 2.113,0 c 0,0 -19.18,4.262 -73.918,-9.234 l -10.6445,-25.562 4.25,-9.246 42.6645,7.117 1.41,20.586 c 1.402,6.394 7.82,5.679 7.82,5.679 l 88.121,0" /><path
         id="path60"
         style="fill:none;stroke:#000000;stroke-width:3;stroke-linecap:butt;stroke-linejoin:miter;stroke-miterlimit:4;stroke-dasharray:none;stroke-opacity:1"
         d="m 225.371,153.57 c 0,0 6.387,0.715 7.832,-5.679 l 1.406,-20.586 42.657,-7.117 4.257,9.246 -10.683,25.562 c -54.707,13.496 -107.285,9.234 -107.285,9.234 l 2.113,0 c 0,0 -19.18,4.262 -73.918,-9.234 l -10.6445,-25.562 4.25,-9.246 42.6645,7.117 1.41,20.586 c 1.402,6.394 7.82,5.679 7.82,5.679 l 88.121,0 z" /><path
         id="path62"
         style="fill:#ffffff;fill-opacity:1;fill-rule:nonzero;stroke:none"
         d="m 255.703,116.242 -0.156,-20.0818 -146.371,0 -0.137,20.0818 146.664,0" /><path
         id="path64"
         style="fill:none;stroke:#000000;stroke-width:3;stroke-linecap:butt;stroke-linejoin:miter;stroke-miterlimit:4;stroke-dasharray:none;stroke-opacity:1"
         d="m 255.703,116.242 -0.156,-20.0818 -146.371,0 -0.137,20.0818 146.664,0 z" /><path
         id="path66"
         style="fill:#ffffff;fill-opacity:1;fill-rule:nonzero;stroke:none"
         d="m 254.297,87.5391 -0.137,-69.3946 -144.359,0 -0.113,69.3946 144.609,0" /><path
         id="path68"
         style="fill:none;stroke:#020202;stroke-width:3;stroke-linecap:butt;stroke-linejoin:miter;stroke-miterlimit:4;stroke-dasharray:none;stroke-opacity:1"
         d="m 254.297,87.5391 -0.137,-69.3946 -144.359,0 -0.113,69.3946 144.609,0 z" /><path
         id="path70"
         style="fill:none;stroke:#030303;stroke-width:2.52099991;stroke-linecap:butt;stroke-linejoin:miter;stroke-miterlimit:4;stroke-dasharray:none;stroke-opacity:1"
         d="m 120.5,23.6719 123.27,0 0,60.4297 -123.27,0 0,-60.4297 z" /><path
         id="path72"
         style="fill:#ffffff;fill-opacity:1;fill-rule:nonzero;stroke:none"
         d="m 109.688,87.5391 74.992,-37.9493 69.617,37.9493 -144.609,0" /><path
         id="path74"
         style="fill:none;stroke:#020202;stroke-width:2.52099991;stroke-linecap:butt;stroke-linejoin:miter;stroke-miterlimit:4;stroke-dasharray:none;stroke-opacity:1"
         d="m 109.688,87.5391 74.992,-37.9493 69.617,37.9493 -144.609,0 z" /></g></g></svg>