<?xml version="1.0" encoding="UTF-8" standalone="no"?>
<svg
   xmlns:dc="http://purl.org/dc/elements/1.1/"
   xmlns:cc="http://creativecommons.org/ns#"
   xmlns:rdf="http://www.w3.org/1999/02/22-rdf-syntax-ns#"
   xmlns:svg="http://www.w3.org/2000/svg"
   xmlns="http://www.w3.org/2000/svg"
   viewBox="0 0 102.5 61.25"
   height="61.25"
   width="102.5"
   xml:space="preserve"
   version="1.1"
   id="svg2"><metadata
     id="metadata8"><rdf:RDF><cc:Work
         rdf:about=""><dc:format>image/svg+xml</dc:format><dc:type
           rdf:resource="http://purl.org/dc/dcmitype/StillImage" /></cc:Work></rdf:RDF></metadata><defs
     id="defs6"><clipPath
       id="clipPath18"
       clipPathUnits="userSpaceOnUse"><path
         id="path20"
         d="M 0,9 0,489 820,489 820,9 0,9 Z" /></clipPath></defs><g
     transform="matrix(1.25,0,0,-1.25,0,61.25)"
     id="g10"><g
       transform="scale(0.1,0.1)"
       id="g12"><g
         id="g14"><g
           clip-path="url(#clipPath18)"
           id="g16"><path
             id="path22"
             style="fill:#ffffff;fill-opacity:1;fill-rule:nonzero;stroke:none"
             d="m 285.781,431.984 c -144.019,28.75 -220.0427,-45 -208.0115,-108.75 l 0.9805,-3.48 C -33.4805,300.652 -4.05859,168.234 49.7695,168.234 l 5.3086,0.149 C 41.4805,106.164 172.66,42.8438 245.781,74.4844 l 4.688,5.1484 C 276.52,23.6641 369.141,14.3242 460.781,11.9844 540.16,9.95313 586.48,16.2422 620.512,51.043 l 5.269,-1.5586 C 752.809,39.2852 810.699,127.063 782.93,190.063 l 6.84,1.921 c 43.32,11.438 48.32,111.442 -26.02,126.25 l 1.449,3.86 c 32.262,65.082 -43.828,126.41 -149.418,114.89 l -7.34,3.829 c -75.589,68.429 -293.132,57.261 -318.32,-10.43 l -4.34,1.601" /><path
             id="path24"
             style="fill:none;stroke:#02709f;stroke-width:3.99993992;stroke-linecap:butt;stroke-linejoin:miter;stroke-miterlimit:4;stroke-dasharray:none;stroke-opacity:1"
             d="m 285.781,431.984 c -144.019,28.75 -220.0427,-45 -208.0115,-108.75 l 0.9805,-3.48 C -33.4805,300.652 -4.05859,168.234 49.7695,168.234 l 5.3086,0.149 C 41.4805,106.164 172.66,42.8438 245.781,74.4844 l 4.688,5.1484 C 276.52,23.6641 369.141,14.3242 460.781,11.9844 540.16,9.95313 586.48,16.2422 620.512,51.043 l 5.269,-1.5586 C 752.809,39.2852 810.699,127.063 782.93,190.063 l 6.84,1.921 c 43.32,11.442 48.32,111.442 -26.02,126.25 l 1.449,3.86 c 32.262,65.082 -43.828,126.41 -149.418,114.89 l -7.34,3.829 c -75.589,68.429 -293.132,57.261 -318.32,-10.43 l -4.34,1.601 z" /></g></g></g></g></svg>