<svg xmlns="http://www.w3.org/2000/svg" viewBox="0 0 33.75 36.25" height="36.25" width="33.75"><path d="M.684 34.409h27.002V6.937H.684V34.41z" fill="#087bbb"/><path d="M.684 34.408h27.002V6.937H.684v27.471z" fill="none" stroke="#fff" stroke-width=".5"/><path d="M14.185 25.375a4.781 4.781 0 0 0 4.78-4.78 4.784 4.784 0 0 0-4.78-4.78 4.781 4.781 0 0 0-4.781 4.78 4.778 4.778 0 0 0 4.781 4.78zM14.185 15.814h8.3" fill="none" stroke="#fff" stroke-width="1.875"/><path d="M22.569 12.704v6.006l3.622-2.886-3.622-3.12" fill="#fff"/><path d="M22.569 12.703v6.007l3.622-2.886-3.622-3.12z" fill="none" stroke="#fff" stroke-width=".25"/><path d="M9.409 20.628v-8.3" fill="none" stroke="#fff" stroke-width="1.875"/><path d="M6.357 12.289h6.012l-2.887-3.62-3.125 3.62" fill="#fff"/><path d="M6.357 12.288h6.012L9.482 8.67l-3.125 3.618z" fill="none" stroke="#fff" stroke-width=".25"/><path d="M18.975 20.57v8.3" fill="none" stroke="#fff" stroke-width="1.875"/><path d="M22.021 28.88h-6.006l2.911 3.619 3.095-3.62" fill="#fff"/><path d="M22.021 28.88h-6.006l2.911 3.618 3.095-3.618z" fill="none" stroke="#fff" stroke-width=".25"/><path d="M14.301 25.37h-8.3" fill="none" stroke="#fff" stroke-width="1.875"/><path d="M5.884 28.5v-6.011L2.26 25.375 5.884 28.5" fill="#fff"/><path d="M5.884 28.5v-6.01L2.26 25.374 5.884 28.5z" fill="none" stroke="#fff" stroke-width=".25"/><path d="M27.587 6.908H.712l6.817-5.44h25.683v27.3l-5.56 5.625V7.064l-.065-.156" fill="#087bbb"/><path d="M27.587 6.908H.712l6.817-5.44h25.683v27.3l-5.56 5.625V7.064l-.065-.156zM27.636 6.864l5.625-5.469" fill="none" stroke="#fff" stroke-width=".5"/></svg>