<?xml version="1.0" encoding="UTF-8" standalone="no"?>
<svg
   xmlns:dc="http://purl.org/dc/elements/1.1/"
   xmlns:cc="http://creativecommons.org/ns#"
   xmlns:rdf="http://www.w3.org/1999/02/22-rdf-syntax-ns#"
   xmlns:svg="http://www.w3.org/2000/svg"
   xmlns="http://www.w3.org/2000/svg"
   viewBox="0 0 46.25 31.25"
   height="31.25"
   width="46.25"
   xml:space="preserve"
   version="1.1"
   id="svg2"><metadata
     id="metadata8"><rdf:RDF><cc:Work
         rdf:about=""><dc:format>image/svg+xml</dc:format><dc:type
           rdf:resource="http://purl.org/dc/dcmitype/StillImage" /></cc:Work></rdf:RDF></metadata><defs
     id="defs6" /><g
     transform="matrix(1.25,0,0,-1.25,0,31.25)"
     id="g10"><g
       transform="scale(0.1,0.1)"
       id="g12"><path
         id="path14"
         style="fill:#087fbf;fill-opacity:1;fill-rule:nonzero;stroke:none"
         d="m 369.84,176.48 c 0,-39.531 -82.34,-71.519 -183.899,-71.519 -101.6012,0 -183.95272,31.988 -183.95272,71.519 l 0,-104.8003 C 1.98828,32.1914 84.3398,0.160156 185.941,0.160156 287.5,0.160156 369.84,32.1914 369.84,71.6797 l 0,104.8003" /><path
         id="path16"
         style="fill:none;stroke:#ffffff;stroke-width:4;stroke-linecap:butt;stroke-linejoin:miter;stroke-miterlimit:4;stroke-dasharray:none;stroke-opacity:1"
         d="m 369.84,176.48 c 0,-39.531 -82.34,-71.519 -183.899,-71.519 -101.6012,0 -183.95272,31.988 -183.95272,71.519 l 0,-104.8003 C 1.98828,32.1914 84.3398,0.160156 185.941,0.160156 287.5,0.160156 369.84,32.1914 369.84,71.6797 l 0,104.8003 z" /><path
         id="path18"
         style="fill:#087fbf;fill-opacity:1;fill-rule:nonzero;stroke:none"
         d="m 185.941,104.961 c 101.559,0 183.899,31.988 183.899,71.519 0,39.5 -82.34,71.532 -183.899,71.532 -101.6012,0 -183.95272,-32.032 -183.95272,-71.532 0,-39.531 82.35152,-71.519 183.95272,-71.519" /><path
         id="path20"
         style="fill:none;stroke:#ffffff;stroke-width:4;stroke-linecap:butt;stroke-linejoin:miter;stroke-miterlimit:4;stroke-dasharray:none;stroke-opacity:1"
         d="m 185.941,104.961 c 101.559,0 183.899,31.988 183.899,71.519 0,39.5 -82.34,71.532 -183.899,71.532 -101.6012,0 -183.95272,-32.032 -183.95272,-71.532 0,-39.531 82.35152,-71.519 183.95272,-71.519 z" /><path
         id="path22"
         style="fill:#ffffff;fill-opacity:1;fill-rule:nonzero;stroke:none"
         d="m 143.949,204.449 15.153,-22.769 -57.422,-13.282 12.539,10.43 -88.7073,15.192 22.2188,16.679 85.6675,-14.488 10.551,8.238" /><path
         id="path24"
         style="fill:#ffffff;fill-opacity:1;fill-rule:nonzero;stroke:none"
         d="m 224.73,149.219 -10.39,23.48 51.789,10.352 -8.938,-8.051 86.329,-14.77 -20.75,-16.558 -85.782,16.129 -12.258,-10.582" /><path
         id="path26"
         style="fill:#ffffff;fill-opacity:1;fill-rule:nonzero;stroke:none"
         d="m 196.41,216.879 58,15.891 0.711,-24.879 -14.531,2.769 -28.32,-23.469 -27,3.938 29.218,22.973 -18.078,2.777" /><path
         id="path28"
         style="fill:#ffffff;fill-opacity:1;fill-rule:nonzero;stroke:none"
         d="m 171.559,127.77 -55.27,-10.309 -2.07,25.551 15.902,-3.481 30.391,25.981 26.91,-4.571 -32.461,-28.32 16.598,-4.851" /><path
         id="path30"
         style="fill:#ffffff;fill-opacity:1;fill-rule:nonzero;stroke:none"
         d="m 176.762,52.5 53.59,0 0,-9.0586 20.199,13.3594 -20.199,13.4297 0,-9.0586 -53.59,0 0,-8.6719" /><path
         id="path32"
         style="fill:#ffffff;fill-opacity:1;fill-rule:nonzero;stroke:none"
         d="m 175.512,67.3789 50.347,18.3203 3.121,-8.5078 14.418,19.4883 -23.597,5.6993 3.129,-8.5509 -50.352,-18.3164 2.934,-8.1328" /><path
         id="path34"
         style="fill:#ffffff;fill-opacity:1;fill-rule:nonzero;stroke:none"
         d="m 175.512,46.6016 50.347,-18.3203 3.121,8.5195 14.418,-19.5 -23.597,-5.6992 3.129,8.5586 -50.352,18.3203 2.934,8.1211" /><path
         id="path36"
         style="fill:#ffffff;fill-opacity:1;fill-rule:nonzero;stroke:none"
         d="m 93.6719,52.5 51.6801,0 0,-9.0586 20.199,13.3594 -20.199,13.4297 0,-9.0586 -51.6801,0 0,-8.6719" /></g></g></svg>