<svg xmlns="http://www.w3.org/2000/svg" viewBox="0 0 38.75 53.75" height="53.75" width="38.75"><defs><clipPath id="a"><path d="M0 10v416h310V10H0z"/></clipPath></defs><g clip-path="url(#a)" transform="matrix(.13 0 0 -.13 0 53.75)"><path d="M306.289 63.414v357.5l-51.328-48.75v-357.5l51.328 48.75" fill="#087bbb"/><path d="M306.289 63.414v357.5l-51.328-48.75v-357.5l51.328 48.75z" fill="none" stroke="#fff" stroke-width="4"/><path d="M306.289 420.914l-51.328-48.75H5.981l64.488 48.75h235.82" fill="#087bbb"/><path d="M306.289 420.914l-51.328-48.75H5.981l64.488 48.75h235.82z" fill="none" stroke="#fff" stroke-width="4"/><path d="M5.98 125.914h248.98v246.25H5.98v-246.25z" fill="#087bbb"/><path d="M5.98 125.914h248.98v246.25H5.98v-246.25z" fill="none" stroke="#fff" stroke-width="4"/><path d="M5.98 14.664h248.98v108.75H5.98V14.664z" fill="#087bbb"/><path d="M5.98 14.664h248.98v108.75H5.98V14.664z" fill="none" stroke="#fff" stroke-width="4"/><path d="M108.238 278.223l-37.847 37.89 6.41 6.438-23.79 4.812 4.798-23.789 6.453 6.438 37.886-37.891 6.09 6.102M94.41 253.414H40.82v9.098l-20.23-13.399 20.23-13.429v9.097h53.59v8.633M102.148 226.113l-37.886-37.89-6.453 6.398-4.797-23.789 23.789 4.852-6.41 6.398 37.847 37.891-6.09 6.14M126.949 212.242v-53.59h-9.097l13.398-20.199 13.441 20.199h-9.101v53.59h-8.641M126.949 284.434v53.589h-9.097l13.398 20.2 13.441-20.2h-9.101v-53.589h-8.641M154.262 219.973l37.886-37.891-6.41-6.398 23.793-4.852-4.84 23.789-6.41-6.398-37.89 37.89-6.129-6.14M168.121 244.781h53.598v-9.097l20.191 13.429-20.191 13.399v-9.098h-53.598v-8.633M160.391 272.121l37.89 37.891 6.41-6.438 4.84 23.789-23.793-4.812 6.41-6.438-37.886-37.89 6.129-6.102" fill="#fff"/><path d="M164.141 203.762c25.269 17.699 31.449 52.539 13.711 77.82-17.692 25.27-52.543 31.402-77.813 13.711-25.27-17.699-31.41-52.539-13.71-77.82 17.691-25.27 52.542-31.399 77.812-13.711" fill="#fff"/><path d="M164.141 203.762c25.269 17.699 31.449 52.539 13.711 77.82-17.692 25.27-52.543 31.402-77.813 13.711-25.27-17.699-31.41-52.539-13.71-77.82 17.691-25.27 52.542-31.399 77.812-13.711z" fill="none" stroke="#231f20" stroke-width="4"/><path d="M133.629 64.973h53.601V55.87l20.192 13.402-20.192 13.438v-9.098h-53.601v-8.64M132.379 79.863l50.351 18.32 3.129-8.562 14.411 19.531-23.59 5.672 3.121-8.523-50.352-18.317 2.93-8.12M132.379 59.082l50.351-18.32 3.129 8.511 14.411-19.492-23.59-5.699 3.121 8.55-50.352 18.321 2.93 8.129M50.55 64.973h51.68V55.87l20.192 13.402-20.192 13.438v-9.098H50.55v-8.64" fill="#fff"/></g></svg>