<?xml version="1.0" encoding="UTF-8" standalone="no"?>
<svg
   xmlns:dc="http://purl.org/dc/elements/1.1/"
   xmlns:cc="http://creativecommons.org/ns#"
   xmlns:rdf="http://www.w3.org/1999/02/22-rdf-syntax-ns#"
   xmlns:svg="http://www.w3.org/2000/svg"
   xmlns="http://www.w3.org/2000/svg"
   viewBox="0 0 58.75 38.75"
   height="38.75"
   width="58.75"
   xml:space="preserve"
   version="1.1"
   id="svg2"><metadata
     id="metadata8"><rdf:RDF><cc:Work
         rdf:about=""><dc:format>image/svg+xml</dc:format><dc:type
           rdf:resource="http://purl.org/dc/dcmitype/StillImage" /></cc:Work></rdf:RDF></metadata><defs
     id="defs6" /><g
     transform="matrix(1.25,0,0,-1.25,0,38.75)"
     id="g10"><g
       transform="scale(0.1,0.1)"
       id="g12"><path
         id="path14"
         style="fill:#087fbf;fill-opacity:1;fill-rule:nonzero;stroke:none"
         d="m 4.83984,0.980469 428.012,0 0,268.238001 -428.012,0 0,-268.238001 z" /><path
         id="path16"
         style="fill:none;stroke:#ffffff;stroke-width:4;stroke-linecap:butt;stroke-linejoin:miter;stroke-miterlimit:4;stroke-dasharray:none;stroke-opacity:1"
         d="m 4.83984,0.980469 428.012,0 0,268.238001 -428.012,0 0,-268.238001 z" /><path
         id="path18"
         style="fill:#087fbf;fill-opacity:1;fill-rule:nonzero;stroke:none"
         d="m 38.3203,303.871 428.0507,0 L 432.809,270 4.80078,270 38.3203,303.871" /><path
         id="path20"
         style="fill:none;stroke:#ffffff;stroke-width:4;stroke-linecap:butt;stroke-linejoin:miter;stroke-miterlimit:4;stroke-dasharray:none;stroke-opacity:1"
         d="m 38.3203,303.871 428.0507,0 L 432.809,270 4.80078,270 38.3203,303.871 Z" /><path
         id="path22"
         style="fill:#087fbf;fill-opacity:1;fill-rule:nonzero;stroke:none"
         d="m 465.352,52.5391 -33.551,-49.05863 0,268.23853 33.551,33.902 0,-253.0819" /><path
         id="path24"
         style="fill:none;stroke:#ffffff;stroke-width:4;stroke-linecap:butt;stroke-linejoin:miter;stroke-miterlimit:4;stroke-dasharray:none;stroke-opacity:1"
         d="m 465.352,52.5391 -33.551,-49.05863 0,268.23853 33.551,33.902 0,-253.0819 z" /><path
         id="path26"
         style="fill:#ffffff;fill-opacity:1;fill-rule:nonzero;stroke:none"
         d="m 202.699,89.1406 30.5,22.3394 c -30.039,0.282 -45.308,-0.582 -65.078,-1.949 C 158.59,80.4297 158.75,72.7305 149.102,53.2813 l 23.628,13.9101 c 22.782,-17.1133 50.79,-21.332 74.54,-12.5 0.699,0.4688 1.402,0.8984 2.07,1.3594 l 38.32,28.0508 c -24.5,-17.8907 -59.031,-16.1719 -84.961,5.039" /><path
         id="path28"
         style="fill:none;stroke:#231f20;stroke-width:1.91900003;stroke-linecap:butt;stroke-linejoin:miter;stroke-miterlimit:4;stroke-dasharray:none;stroke-opacity:1"
         d="m 202.699,89.1406 30.5,22.3394 c -30.039,0.282 -45.308,-0.582 -65.078,-1.949 C 158.59,80.4297 158.75,72.7305 149.102,53.2813 l 23.628,13.9101 c 22.782,-17.1133 50.79,-21.332 74.54,-12.5 0.699,0.4688 1.402,0.8984 2.07,1.3594 l 38.32,28.0508 c -24.5,-17.8907 -59.031,-16.1719 -84.961,5.039 z" /><path
         id="path30"
         style="fill:#ffffff;fill-opacity:1;fill-rule:nonzero;stroke:none"
         d="m 175.699,128.91 c -7.929,24.918 -3.75,52.418 13.25,71.871 3.199,3.668 6.711,6.918 10.461,9.61 L 161.09,182.34 c -3.75,-2.731 -7.219,-5.93 -10.469,-9.61 -16.832,-19.25 -21.012,-46.441 -13.43,-71.21 l 38.508,27.39" /><path
         id="path32"
         style="fill:none;stroke:#231f20;stroke-width:1.91900003;stroke-linecap:butt;stroke-linejoin:miter;stroke-miterlimit:4;stroke-dasharray:none;stroke-opacity:1"
         d="m 175.699,128.91 c -7.929,24.918 -3.75,52.418 13.25,71.871 3.199,3.668 6.711,6.918 10.461,9.61 L 161.09,182.34 c -3.75,-2.731 -7.219,-5.93 -10.469,-9.61 -16.832,-19.25 -21.012,-46.441 -13.43,-71.21 l 38.508,27.39 z" /><path
         id="path34"
         style="fill:#ffffff;fill-opacity:1;fill-rule:nonzero;stroke:none"
         d="m 251.289,211.129 c -15.348,5.75 -31.598,6.723 -46.598,2.742 -1.8,-1.062 -3.562,-2.23 -5.281,-3.48 L 161.09,182.34 c 17.582,12.89 40.359,15.59 61.371,8.32 l -21.012,-15 65,1.371 4.332,47.93 -19.492,-13.832" /><path
         id="path36"
         style="fill:none;stroke:#231f20;stroke-width:1.91900003;stroke-linecap:butt;stroke-linejoin:miter;stroke-miterlimit:4;stroke-dasharray:none;stroke-opacity:1"
         d="m 251.289,211.129 c -15.348,5.75 -31.598,6.723 -46.598,2.742 -1.8,-1.062 -3.562,-2.23 -5.281,-3.48 L 161.09,182.34 c 17.582,12.89 40.359,15.59 61.371,8.32 l -21.012,-15 65,1.371 4.332,47.93 -19.492,-13.832 z" /><path
         id="path38"
         style="fill:#ffffff;fill-opacity:1;fill-rule:nonzero;stroke:none"
         d="m 300.16,192.301 c 24.102,-39.18 15.149,-78.199 -2.039,-98.551 -3.242,-3.6719 -6.711,-6.8711 -10.461,-9.6484 L 249.34,56.0508 c 3.781,2.7773 7.262,5.9805 10.461,9.6484 31.219,37.1918 12.929,74.3008 3.168,98.7498 l 37.191,27.852" /><path
         id="path40"
         style="fill:none;stroke:#231f20;stroke-width:1.91900003;stroke-linecap:butt;stroke-linejoin:miter;stroke-miterlimit:4;stroke-dasharray:none;stroke-opacity:1"
         d="m 300.16,192.301 c 24.102,-39.18 15.149,-78.199 -2.039,-98.551 -3.242,-3.6719 -6.711,-6.8711 -10.461,-9.6484 L 249.34,56.0508 c 3.781,2.7773 7.262,5.9805 10.461,9.6484 31.219,37.1918 12.929,74.3008 3.168,98.7498 l 37.191,27.852 z" /><path
         id="path42"
         style="fill:#ffffff;fill-opacity:1;fill-rule:nonzero;stroke:none"
         d="m 86.9102,122.621 -63.8985,0.66 0,12.188 63.8985,0.043 0,19.019 37.0388,-25.121 -37.0388,-25.148 0,18.359" /><path
         id="path44"
         style="fill:#ffffff;fill-opacity:1;fill-rule:nonzero;stroke:none"
         d="m 359.922,122.621 63.949,0.66 0,12.188 -63.949,0.043 0,19.019 -37.031,-25.121 37.031,-25.148 0,18.359" /></g></g></svg>