<?xml version="1.0" encoding="UTF-8" standalone="no"?>
<svg
   xmlns:dc="http://purl.org/dc/elements/1.1/"
   xmlns:cc="http://creativecommons.org/ns#"
   xmlns:rdf="http://www.w3.org/1999/02/22-rdf-syntax-ns#"
   xmlns:svg="http://www.w3.org/2000/svg"
   xmlns="http://www.w3.org/2000/svg"
   viewBox="0 0 56.674999 39.0625"
   height="39.0625"
   width="56.674999"
   xml:space="preserve"
   version="1.1"
   id="svg2"><metadata
     id="metadata8"><rdf:RDF><cc:Work
         rdf:about=""><dc:format>image/svg+xml</dc:format><dc:type
           rdf:resource="http://purl.org/dc/dcmitype/StillImage" /></cc:Work></rdf:RDF></metadata><defs
     id="defs6"><clipPath
       id="clipPath18"
       clipPathUnits="userSpaceOnUse"><path
         id="path20"
         d="M 0,2 0,312 450,312 450,2 0,2 Z" /></clipPath></defs><g
     transform="matrix(1.25,0,0,-1.25,0,39.0625)"
     id="g10"><g
       transform="scale(0.1,0.1)"
       id="g12"><g
         id="g14"><g
           clip-path="url(#clipPath18)"
           id="g16"><path
             id="path22"
             style="fill:#087bbb;fill-opacity:1;fill-rule:nonzero;stroke:none"
             d="m 6.83594,8.94531 357.211,0 0,215.945 -357.211,0 0,-215.945 z" /><path
             id="path24"
             style="fill:none;stroke:#ffffff;stroke-width:3.99993992;stroke-linecap:butt;stroke-linejoin:miter;stroke-miterlimit:4;stroke-dasharray:none;stroke-opacity:1"
             d="m 6.83594,8.94531 357.211,0 0,215.945 -357.211,0 0,-215.945 z" /><path
             id="path26"
             style="fill:#087bbb;fill-opacity:1;fill-rule:nonzero;stroke:none"
             d="m 5.90625,224.305 109.28875,83.605 333.285,0 -84.765,-83.605 -357.80875,0" /><path
             id="path28"
             style="fill:none;stroke:#ffffff;stroke-width:3.99993992;stroke-linecap:butt;stroke-linejoin:miter;stroke-miterlimit:4;stroke-dasharray:none;stroke-opacity:1"
             d="m 5.90625,224.305 109.28875,83.605 333.285,0 -84.765,-83.605 -357.80875,0 z" /><path
             id="path30"
             style="fill:#087bbb;fill-opacity:1;fill-rule:nonzero;stroke:none"
             d="m 363.832,5.29297 84.316,95.57403 0.098,206.836 -84.414,-83.23 0,-219.18003" /><path
             id="path32"
             style="fill:none;stroke:#ffffff;stroke-width:3.99993992;stroke-linecap:butt;stroke-linejoin:miter;stroke-miterlimit:4;stroke-dasharray:none;stroke-opacity:1"
             d="m 363.832,5.29297 84.316,95.57403 0.098,206.836 -84.414,-83.23 0,-219.18003 z" /><path
             id="path34"
             style="fill:#ffffff;fill-opacity:1;fill-rule:nonzero;stroke:none"
             d="m 145.09,146.844 c 8.269,33.176 -12.961,50.683 -31.328,47.922 l -1.008,-0.227 c -5.496,25.859 -43.6329,19.082 -43.6329,6.68 L 69.168,200 C 51.25,203.125 33.0078,172.91 42.1289,156.055 l 1.4727,-1.075 C 27.4883,148.965 24.793,127.637 24.1211,106.523 23.5352,88.2305 25.3438,77.5508 35.3594,69.7188 L 34.9219,68.5156 C 31.9727,39.2266 57.2578,25.8984 75.4102,32.2969 l 0.5586,-1.5742 c 3.289,-9.9805 32.0972,-11.1329 36.3552,5.9961 l 1.114,-0.3399 c 18.73,-7.4258 36.406,10.1055 33.085,34.4414 l 1.094,1.668 c 19.727,17.414 16.504,67.5507 -2.988,73.3517 l 0.461,1.004" /><path
             id="path36"
             style="fill:#ffffff;fill-opacity:1;fill-rule:nonzero;stroke:none"
             d="m 326.449,146.844 c 8.281,33.176 -12.949,50.683 -31.328,47.922 l -0.996,-0.227 c -5.508,25.859 -43.633,19.082 -43.633,6.68 L 250.531,200 c -17.91,3.125 -36.156,-27.09 -27.031,-43.945 l 1.465,-1.075 c -16.11,-6.015 -18.805,-27.343 -19.477,-48.457 -0.586,-18.2925 1.223,-28.9722 11.235,-36.8042 l -0.43,-1.2032 c -2.953,-29.289 22.324,-42.6172 40.488,-36.2187 l 0.547,-1.5742 c 3.301,-9.9805 32.11,-11.1329 36.367,5.9961 l 1.114,-0.3399 c 18.73,-7.4258 36.406,10.1055 33.086,34.4414 l 1.093,1.668 C 348.715,89.9023 345.492,140.039 326,145.84 l 0.449,1.004" /><path
             id="path38"
             style="fill:#087bbb;fill-opacity:1;fill-rule:nonzero;stroke:none"
             d="m 102.207,144.012 -20.5664,20.558 -10.0664,-10.066 -2.1875,31.062 31.5113,-1.75 -10.9371,-10.933 20.5591,-20.559 -8.313,-8.312" /><path
             id="path40"
             style="fill:#087bbb;fill-opacity:1;fill-rule:nonzero;stroke:none"
             d="M 102.207,83.3203 81.6406,62.7617 71.5742,72.832 69.3867,41.7578 100.898,43.5078 89.9609,54.4414 110.52,75 l -8.313,8.3203" /><path
             id="path42"
             style="fill:#087bbb;fill-opacity:1;fill-rule:nonzero;stroke:none"
             d="m 82.207,107.305 -29.0703,0 0,-14.2386 -23.5195,20.4176 23.5195,21.047 0,-15.468 29.0703,0 0,-11.758" /><path
             id="path44"
             style="fill:#087bbb;fill-opacity:1;fill-rule:nonzero;stroke:none"
             d="m 267.816,144.012 20.567,20.558 10.058,-10.066 2.188,31.062 -31.504,-1.75 10.938,-10.933 -20.547,-20.559 8.3,-8.312" /><path
             id="path46"
             style="fill:#087bbb;fill-opacity:1;fill-rule:nonzero;stroke:none"
             d="m 267.816,83.3203 20.567,-20.5586 10.058,10.0703 2.188,-31.0742 -31.504,1.75 10.938,10.9336 L 259.516,75 l 8.3,8.3203" /><path
             id="path48"
             style="fill:#087bbb;fill-opacity:1;fill-rule:nonzero;stroke:none"
             d="m 284.477,107.305 29.082,0 0,-14.2386 23.515,20.4176 -23.515,21.047 0,-15.468 -29.082,0 0,-11.758" /><path
             id="path50"
             style="fill:#ffffff;fill-opacity:1;fill-rule:nonzero;stroke:none"
             d="m 154.309,106.965 57.6563,0 0,11.7539 -57.6563,0 0,-11.7539 z" /><path
             id="path52"
             style="fill:#087bbb;fill-opacity:1;fill-rule:nonzero;stroke:none"
             d="m 204.48,107.305 29.079,0 0,-14.2386 23.515,20.4176 -23.515,21.047 0,-15.468 -29.079,0 0,-11.758" /><path
             id="path54"
             style="fill:#087bbb;fill-opacity:1;fill-rule:nonzero;stroke:none"
             d="m 159.863,107.305 -29.074,0 0,-14.2386 -23.516,20.4176 23.516,21.047 0,-15.468 29.074,0 0,-11.758" /></g></g></g></g></svg>