<?xml version="1.0" encoding="UTF-8" standalone="no"?>
<svg
   xmlns:dc="http://purl.org/dc/elements/1.1/"
   xmlns:cc="http://creativecommons.org/ns#"
   xmlns:rdf="http://www.w3.org/1999/02/22-rdf-syntax-ns#"
   xmlns:svg="http://www.w3.org/2000/svg"
   xmlns="http://www.w3.org/2000/svg"
   viewBox="0 0 52.5 38.75"
   height="38.75"
   width="52.5"
   xml:space="preserve"
   version="1.1"
   id="svg2"><metadata
     id="metadata8"><rdf:RDF><cc:Work
         rdf:about=""><dc:format>image/svg+xml</dc:format><dc:type
           rdf:resource="http://purl.org/dc/dcmitype/StillImage" /></cc:Work></rdf:RDF></metadata><defs
     id="defs6" /><g
     transform="matrix(1.25,0,0,-1.25,0,38.75)"
     id="g10"><g
       transform="scale(0.1,0.1)"
       id="g12"><path
         id="path14"
         style="fill:#087bbb;fill-opacity:1;fill-rule:nonzero;stroke:none"
         d="m 111.48,0.980469 268.008,0 0,268.238001 -268.008,0 0,-268.238001 z" /><path
         id="path16"
         style="fill:none;stroke:#ffffff;stroke-width:3.99993992;stroke-linecap:butt;stroke-linejoin:miter;stroke-miterlimit:4;stroke-dasharray:none;stroke-opacity:1"
         d="m 111.48,0.980469 268.008,0 0,268.238001 -268.008,0 0,-268.238001 z" /><path
         id="path18"
         style="fill:#087bbb;fill-opacity:1;fill-rule:nonzero;stroke:none"
         d="m 142.809,303.91 268.05,0 -33.558,-33.91 -268,0 33.508,33.91" /><path
         id="path20"
         style="fill:none;stroke:#ffffff;stroke-width:3.99993992;stroke-linecap:butt;stroke-linejoin:miter;stroke-miterlimit:4;stroke-dasharray:none;stroke-opacity:1"
         d="m 142.809,303.91 268.05,0 -33.558,-33.91 -268,0 33.508,33.91 z" /><path
         id="path22"
         style="fill:#087bbb;fill-opacity:1;fill-rule:nonzero;stroke:none"
         d="m 411.988,52.5 -33.547,-49.01953 0,268.23853 33.547,33.902 0,-253.121" /><path
         id="path24"
         style="fill:none;stroke:#ffffff;stroke-width:3.99993992;stroke-linecap:butt;stroke-linejoin:miter;stroke-miterlimit:4;stroke-dasharray:none;stroke-opacity:1"
         d="m 411.988,52.5 -33.547,-49.01953 0,268.23853 33.547,33.902 0,-253.121 z" /><path
         id="path26"
         style="fill:#087bbb;fill-opacity:1;fill-rule:nonzero;stroke:none"
         d="m 2.85156,0.980469 108.629,0 0,268.238001 -108.629,0 0,-268.238001 z" /><path
         id="path28"
         style="fill:none;stroke:#ffffff;stroke-width:3.99993992;stroke-linecap:butt;stroke-linejoin:miter;stroke-miterlimit:4;stroke-dasharray:none;stroke-opacity:1"
         d="m 2.85156,0.980469 108.629,0 0,268.238001 -108.629,0 0,-268.238001 z" /><path
         id="path30"
         style="fill:#087bbb;fill-opacity:1;fill-rule:nonzero;stroke:none"
         d="m 38.3594,303.91 108.6286,0 L 113.441,270 4.80078,270 38.3594,303.91" /><path
         id="path32"
         style="fill:none;stroke:#ffffff;stroke-width:3.99993992;stroke-linecap:butt;stroke-linejoin:miter;stroke-miterlimit:4;stroke-dasharray:none;stroke-opacity:1"
         d="m 38.3594,303.91 108.6286,0 L 113.441,270 4.80078,270 38.3594,303.91 Z" /><path
         id="path34"
         style="fill:none;stroke:#ffffff;stroke-width:3.99993992;stroke-linecap:butt;stroke-linejoin:miter;stroke-miterlimit:4;stroke-dasharray:none;stroke-opacity:1"
         d="m 111.48,269.219 0,-268.238531" /><path
         id="path36"
         style="fill:none;stroke:#ffffff;stroke-width:3.99993992;stroke-linecap:butt;stroke-linejoin:miter;stroke-miterlimit:4;stroke-dasharray:none;stroke-opacity:1"
         d="m 113.441,172.5 -108.64022,0" /><path
         id="path38"
         style="fill:#ffffff;fill-opacity:1;fill-rule:nonzero;stroke:none"
         d="m 206.52,140.898 -58,0 0,9.84 -21.879,-14.527 21.879,-14.492 0,9.801 58,0 0,9.378" /><path
         id="path40"
         style="fill:#ffffff;fill-opacity:1;fill-rule:nonzero;stroke:none"
         d="m 214.922,111.328 -41.012,-41.0194 -6.961,6.9609 -5.23,-25.75 25.742,5.2422 -6.949,6.9492 41.008,40.9801 -6.598,6.637" /><path
         id="path42"
         style="fill:#ffffff;fill-opacity:1;fill-rule:nonzero;stroke:none"
         d="m 241.762,96.3281 0,-58.0078 -9.852,0 14.539,-21.8711 14.492,21.8711 -9.851,0 0,58.0078 -9.328,0" /><path
         id="path44"
         style="fill:#ffffff;fill-opacity:1;fill-rule:nonzero;stroke:none"
         d="m 271.328,104.691 41.012,-40.9801 -6.949,-6.9492 25.738,-5.2422 -5.231,25.75 -6.949,-6.9609 -40.98,41.0194 -6.641,-6.637" /><path
         id="path46"
         style="fill:#ffffff;fill-opacity:1;fill-rule:nonzero;stroke:none"
         d="m 286.328,131.52 58.012,0 0,-9.801 21.871,14.492 -21.871,14.527 0,-9.84 -58.012,0 0,-9.378" /><path
         id="path48"
         style="fill:#ffffff;fill-opacity:1;fill-rule:nonzero;stroke:none"
         d="m 277.969,161.129 40.98,41.019 6.949,-6.949 5.231,25.742 -25.738,-5.242 6.949,-6.949 -41.012,-40.98 6.641,-6.641" /><path
         id="path50"
         style="fill:#ffffff;fill-opacity:1;fill-rule:nonzero;stroke:none"
         d="m 251.09,176.129 0,57.973 9.851,0 -14.492,21.918 -14.539,-21.918 9.852,0 0,-57.973 9.328,0" /><path
         id="path52"
         style="fill:#ffffff;fill-opacity:1;fill-rule:nonzero;stroke:none"
         d="m 221.52,167.77 -41.008,40.98 6.949,6.949 -25.742,5.242 5.23,-25.742 6.961,6.949 41.012,-41.019 6.598,6.641" /><path
         id="path54"
         style="fill:#ffffff;fill-opacity:1;fill-rule:nonzero;stroke:none"
         d="m 295.039,171.719 c -19.019,27.152 -56.488,33.75 -83.629,14.73 -27.191,-19.027 -33.75,-56.449 -14.73,-83.64 19.019,-27.1488 56.441,-33.7504 83.59,-14.7192 27.191,19.0192 33.789,56.4802 14.769,83.6292" /><path
         id="path56"
         style="fill:#ffffff;fill-opacity:1;fill-rule:nonzero;stroke:none"
         d="m 47.0313,221.211 -17.4219,0 0,2.93 -6.5586,-4.34 6.5586,-4.371 0,2.968 17.4219,0 0,2.813" /><path
         id="path58"
         style="fill:#ffffff;fill-opacity:1;fill-rule:nonzero;stroke:none"
         d="m 49.5313,212.301 -12.2618,-12.262 -2.1093,2.07 -1.5704,-7.699 7.7383,1.531 -2.1093,2.11 12.3007,12.301 -1.9882,1.949" /><path
         id="path60"
         style="fill:#ffffff;fill-opacity:1;fill-rule:nonzero;stroke:none"
         d="m 57.6211,207.809 0,-17.379 -2.9727,0 4.3321,-6.559 4.3789,6.559 -2.9688,0 0,17.379 -2.7695,0" /><path
         id="path62"
         style="fill:#ffffff;fill-opacity:1;fill-rule:nonzero;stroke:none"
         d="m 66.4805,210.352 12.2695,-12.301 -2.0703,-2.11 7.7305,-1.531 -1.5586,7.699 -2.1133,-2.07 -12.2969,12.262 -1.9609,-1.949" /><path
         id="path64"
         style="fill:#ffffff;fill-opacity:1;fill-rule:nonzero;stroke:none"
         d="m 70.9805,218.398 17.3789,0 0,-2.968 6.5625,4.371 -6.5625,4.34 0,-2.93 -17.3789,0 0,-2.813" /><path
         id="path66"
         style="fill:#ffffff;fill-opacity:1;fill-rule:nonzero;stroke:none"
         d="m 68.4414,227.27 12.2969,12.3 2.1133,-2.109 1.5586,7.738 -7.7305,-1.57 2.0703,-2.07 -12.2695,-12.297 1.9609,-1.992" /><path
         id="path68"
         style="fill:#ffffff;fill-opacity:1;fill-rule:nonzero;stroke:none"
         d="m 60.3906,231.762 0,17.379 2.9688,0 -4.3789,6.597 -4.3321,-6.597 2.9727,0 0,-17.379 2.7695,0" /><path
         id="path70"
         style="fill:#ffffff;fill-opacity:1;fill-rule:nonzero;stroke:none"
         d="m 51.5195,229.262 -12.3007,12.297 2.1093,2.07 -7.7383,1.57 1.5704,-7.738 2.1093,2.109 12.2618,-12.3 1.9882,1.992" /><path
         id="path72"
         style="fill:#ffffff;fill-opacity:1;fill-rule:nonzero;stroke:none"
         d="m 73.5898,230.43 c -5.6992,8.16 -16.9492,10.121 -25.0703,4.41 -8.1679,-5.699 -10.1601,-16.91 -4.4609,-25.07 5.7109,-8.168 16.9609,-10.122 25.1211,-4.418 8.1211,5.699 10.1211,16.949 4.4101,25.078" /><path
         id="path74"
         style="fill:#ffffff;fill-opacity:1;fill-rule:nonzero;stroke:none"
         d="m 52.9688,84.8008 0,-48.2422 -8.168,0 12.039,-18.1992 12.0704,18.1992 -8.1719,0 0,48.2422 -7.7695,0" /><path
         id="path76"
         style="fill:#ffffff;fill-opacity:1;fill-rule:nonzero;stroke:none"
         d="M 66.3711,85.8984 82.8516,40.5898 75.1602,37.7695 92.7305,24.8008 97.8086,46.0508 90.1602,43.2383 73.6719,88.5508 66.3711,85.8984" /><path
         id="path78"
         style="fill:#ffffff;fill-opacity:1;fill-rule:nonzero;stroke:none"
         d="m 47.6602,85.8984 -16.4883,-45.3086 7.6992,-2.8203 -17.582,-12.9687 -5.1172,21.25 7.6992,-2.8125 16.4805,45.3125 7.3086,-2.6524" /><path
         id="path80"
         style="fill:#ffffff;fill-opacity:1;fill-rule:nonzero;stroke:none"
         d="m 52.9688,159.57 0,-46.519 -8.168,0 12.039,-18.1721 12.0704,18.1721 -8.1719,0 0,46.519 -7.7695,0" /></g></g></svg>