<?xml version="1.0" encoding="UTF-8" standalone="no"?>
<svg
   xmlns:dc="http://purl.org/dc/elements/1.1/"
   xmlns:cc="http://creativecommons.org/ns#"
   xmlns:rdf="http://www.w3.org/1999/02/22-rdf-syntax-ns#"
   xmlns:svg="http://www.w3.org/2000/svg"
   xmlns="http://www.w3.org/2000/svg"
   viewBox="0 0 56.25 38.75"
   height="38.75"
   width="56.25"
   xml:space="preserve"
   version="1.1"
   id="svg2"><metadata
     id="metadata8"><rdf:RDF><cc:Work
         rdf:about=""><dc:format>image/svg+xml</dc:format><dc:type
           rdf:resource="http://purl.org/dc/dcmitype/StillImage" /></cc:Work></rdf:RDF></metadata><defs
     id="defs6" /><g
     transform="matrix(1.25,0,0,-1.25,0,38.75)"
     id="g10"><g
       transform="scale(0.1,0.1)"
       id="g12"><path
         id="path14"
         style="fill:#087bbb;fill-opacity:1;fill-rule:nonzero;stroke:none"
         d="m 6.83984,6.94922 357.23,0 0,215.941 -357.23,0 0,-215.941 z" /><path
         id="path16"
         style="fill:none;stroke:#ffffff;stroke-width:3.99993992;stroke-linecap:butt;stroke-linejoin:miter;stroke-miterlimit:4;stroke-dasharray:none;stroke-opacity:1"
         d="m 6.83984,6.94922 357.23,0 0,215.941 -357.23,0 0,-215.941 z" /><path
         id="path18"
         style="fill:#087bbb;fill-opacity:1;fill-rule:nonzero;stroke:none"
         d="m 5.89844,222.301 109.30056,83.597 333.281,0 -84.769,-83.597 -357.81256,0" /><path
         id="path20"
         style="fill:none;stroke:#ffffff;stroke-width:3.99993992;stroke-linecap:butt;stroke-linejoin:miter;stroke-miterlimit:4;stroke-dasharray:none;stroke-opacity:1"
         d="m 5.89844,222.301 109.30056,83.597 333.281,0 -84.769,-83.597 -357.81256,0 z" /><path
         id="path22"
         style="fill:#087bbb;fill-opacity:1;fill-rule:nonzero;stroke:none"
         d="m 363.828,3.28125 84.332,95.58985 0.078,206.8279 -84.41,-83.238 0,-219.17975" /><path
         id="path24"
         style="fill:none;stroke:#ffffff;stroke-width:3.99993992;stroke-linecap:butt;stroke-linejoin:miter;stroke-miterlimit:4;stroke-dasharray:none;stroke-opacity:1"
         d="m 363.828,3.28125 84.332,95.58985 0.078,206.8279 -84.41,-83.238 0,-219.17975 z" /><path
         id="path26"
         style="fill:#ffffff;fill-opacity:1;fill-rule:nonzero;stroke:none"
         d="m 145.078,144.84 c 8.281,33.172 -12.969,50.672 -31.328,47.93 l -1.02,-0.231 c -5.46,25.859 -43.6284,19.063 -43.6284,6.68 l 0.0781,-1.207 C 51.25,201.129 33.0117,170.898 42.1094,154.059 l 1.4804,-1.09 C 27.5,146.949 24.8008,125.621 24.1016,104.531 23.5195,86.25 25.3516,75.5508 35.3516,67.7305 l -0.4297,-1.211 C 31.9492,37.2305 57.2695,23.9102 75.3906,30.3086 l 0.5899,-1.5977 C 79.2617,18.75 108.051,17.5781 112.301,34.7305 l 1.14,-0.3516 c 18.707,-7.4297 36.399,10.1094 33.079,34.4492 l 1.101,1.6836 c 19.719,17.3789 16.481,67.5393 -3.012,73.3163 l 0.469,1.012" /><path
         id="path28"
         style="fill:#ffffff;fill-opacity:1;fill-rule:nonzero;stroke:none"
         d="m 326.449,144.84 c 8.281,33.172 -12.929,50.672 -31.328,47.93 l -0.98,-0.231 c -5.512,25.859 -43.629,19.063 -43.629,6.68 l 0.039,-1.207 c -17.93,3.117 -36.172,-27.114 -27.031,-43.953 l 1.441,-1.09 c -16.09,-6.02 -18.789,-27.348 -19.492,-48.438 -0.59,-18.281 1.25,-28.9802 11.25,-36.8005 l -0.43,-1.211 c -2.969,-29.289 22.34,-42.6093 40.512,-36.2109 l 0.539,-1.5977 c 3.281,-9.9609 32.109,-11.1328 36.371,6.0196 l 1.09,-0.3516 c 18.75,-7.4297 36.41,10.1094 33.09,34.4492 l 1.089,1.6836 c 19.731,17.3789 16.532,67.5393 -2.96,73.3163 l 0.429,1.012" /><path
         id="path30"
         style="fill:#087bbb;fill-opacity:1;fill-rule:nonzero;stroke:none"
         d="m 102.191,142.031 -20.5504,20.547 -10.082,-10.078 -2.1797,31.051 31.5191,-1.75 -10.9371,-10.903 20.5511,-20.589 -8.321,-8.278" /><path
         id="path32"
         style="fill:#087bbb;fill-opacity:1;fill-rule:nonzero;stroke:none"
         d="m 102.191,81.3281 -20.5504,-20.5898 -10.082,10.082 -2.1797,-31.0508 31.5191,1.75 -10.9371,10.9024 20.5511,20.5898 -8.321,8.3164" /><path
         id="path34"
         style="fill:#087bbb;fill-opacity:1;fill-rule:nonzero;stroke:none"
         d="m 82.1914,105.309 -29.0703,0 0,-14.2582 -23.5117,20.4292 23.5117,21.059 0,-15.469 29.0703,0 0,-11.761" /><path
         id="path36"
         style="fill:#087bbb;fill-opacity:1;fill-rule:nonzero;stroke:none"
         d="m 267.809,142.031 20.589,20.547 10.043,-10.078 2.18,31.051 -31.48,-1.75 10.937,-10.903 -20.547,-20.589 8.278,-8.278" /><path
         id="path38"
         style="fill:#087bbb;fill-opacity:1;fill-rule:nonzero;stroke:none"
         d="m 267.809,81.3281 20.589,-20.5898 10.043,10.082 2.18,-31.0508 -31.48,1.75 10.937,10.9024 -20.547,20.5898 8.278,8.3164" /><path
         id="path40"
         style="fill:#087bbb;fill-opacity:1;fill-rule:nonzero;stroke:none"
         d="m 284.488,105.309 29.063,0 0,-14.2582 23.519,20.4292 -23.519,21.059 0,-15.469 -29.063,0 0,-11.761" /><path
         id="path42"
         style="fill:#ffffff;fill-opacity:1;fill-rule:nonzero;stroke:none"
         d="m 154.301,104.961 57.6602,0 0,11.7578 -57.6602,0 0,-11.7578 z" /><path
         id="path44"
         style="fill:#087bbb;fill-opacity:1;fill-rule:nonzero;stroke:none"
         d="m 204.488,105.309 29.063,0 0,-14.2582 23.519,20.4292 -23.519,21.059 0,-15.469 -29.063,0 0,-11.761" /><path
         id="path46"
         style="fill:#087bbb;fill-opacity:1;fill-rule:nonzero;stroke:none"
         d="m 159.84,105.309 -29.059,0 0,-14.2582 -23.511,20.4292 23.511,21.059 0,-15.469 29.059,0 0,-11.761" /></g></g></svg>