<?xml version="1.0" encoding="UTF-8" standalone="no"?>
<svg
   xmlns:dc="http://purl.org/dc/elements/1.1/"
   xmlns:cc="http://creativecommons.org/ns#"
   xmlns:rdf="http://www.w3.org/1999/02/22-rdf-syntax-ns#"
   xmlns:svg="http://www.w3.org/2000/svg"
   xmlns="http://www.w3.org/2000/svg"
   viewBox="0 0 55 41.25"
   height="41.25"
   width="55"
   xml:space="preserve"
   version="1.1"
   id="svg2"><metadata
     id="metadata8"><rdf:RDF><cc:Work
         rdf:about=""><dc:format>image/svg+xml</dc:format><dc:type
           rdf:resource="http://purl.org/dc/dcmitype/StillImage" /></cc:Work></rdf:RDF></metadata><defs
     id="defs6" /><g
     transform="matrix(1.25,0,0,-1.25,0,41.25)"
     id="g10"><g
       transform="scale(0.1,0.1)"
       id="g12"><path
         id="path14"
         style="fill:#087bbb;fill-opacity:1;fill-rule:nonzero;stroke:none"
         d="m 5.66016,16.4805 381.48,0 0,250.621 -381.48,0 0,-250.621 z" /><path
         id="path16"
         style="fill:none;stroke:#ffffff;stroke-width:3.99993992;stroke-linecap:butt;stroke-linejoin:miter;stroke-miterlimit:4;stroke-dasharray:none;stroke-opacity:1"
         d="m 5.66016,16.4766 381.48,0 0,250.621 -381.48,0 0,-250.621 z" /><path
         id="path18"
         style="fill:#087bbb;fill-opacity:1;fill-rule:nonzero;stroke:none"
         d="m 431.02,80.6484 -43.872,-64.1796 0,250.6332 43.872,53.199 0,-239.6526" /><path
         id="path20"
         style="fill:none;stroke:#ffffff;stroke-width:3.99993992;stroke-linecap:butt;stroke-linejoin:miter;stroke-miterlimit:4;stroke-dasharray:none;stroke-opacity:1"
         d="m 431.02,80.6563 -43.872,-64.1797 0,250.6214 43.872,53.199 0,-239.6407 z" /><path
         id="path22"
         style="fill:#087bbb;fill-opacity:1;fill-rule:nonzero;stroke:none"
         d="m 71.4805,320.301 359.5395,0 -43.872,-53.199 -381.48784,0 65.82034,53.199" /><path
         id="path24"
         style="fill:none;stroke:#ffffff;stroke-width:3.99993992;stroke-linecap:butt;stroke-linejoin:miter;stroke-miterlimit:4;stroke-dasharray:none;stroke-opacity:1"
         d="m 71.4805,320.297 359.5395,0 -43.872,-53.199 -381.48784,0 65.82034,53.199 z" /><path
         id="path26"
         style="fill:#ffffff;fill-opacity:1;fill-rule:nonzero;stroke:none"
         d="M 91.4102,201.238 27.5,201.16 l 0,10.16 63.9102,0.032 0,15.859 36.9878,-20.93 -36.9878,-20.941 0,15.898" /><path
         id="path28"
         style="fill:#ffffff;fill-opacity:1;fill-rule:nonzero;stroke:none"
         d="M 91.4102,137.879 27.5,137.84 l 0,10.16 63.9102,0.031 0,15.86 36.9878,-20.93 -36.9878,-20.941 0,15.859" /><path
         id="path30"
         style="fill:#ffffff;fill-opacity:1;fill-rule:nonzero;stroke:none"
         d="M 91.4102,74.5586 27.5,74.5195 l 0,10.1524 63.9102,0.039 0,15.8591 36.9878,-20.9684 -36.9878,-20.9414 0,15.8984" /><path
         id="path32"
         style="fill:#ffffff;fill-opacity:1;fill-rule:nonzero;stroke:none"
         d="m 304.488,146.199 63.871,0.082 0,-10.16 -63.871,-0.043 -0.039,-15.859 -36.988,20.941 36.988,20.942 0.039,-15.903" /><path
         id="path34"
         style="fill:#ffffff;fill-opacity:1;fill-rule:nonzero;stroke:none"
         d="m 253.16,177.801 c 0,-8.59 -22.961,-15.551 -51.32,-15.551 -28.36,0 -51.371,6.961 -51.371,15.551 l 0,-64.379 c 0,-8.594 23.011,-15.5431 51.371,-15.5431 28.359,0 51.32,6.9491 51.32,15.5431 l 0,64.379" /><path
         id="path36"
         style="fill:#087bbb;fill-opacity:1;fill-rule:nonzero;stroke:none"
         d="m 201.762,162.25 c 28.359,0 51.359,6.961 51.359,15.551 0,8.59 -23,15.551 -51.359,15.551 -28.364,0 -51.371,-6.961 -51.371,-15.551 0,-8.59 23.007,-15.551 51.371,-15.551" /><path
         id="path38"
         style="fill:none;stroke:#ffffff;stroke-width:8.00002956;stroke-linecap:butt;stroke-linejoin:miter;stroke-miterlimit:4;stroke-dasharray:none;stroke-opacity:1"
         d="m 201.762,162.258 c 28.359,0 51.359,6.949 51.359,15.539 0,8.598 -23,15.551 -51.359,15.551 -28.364,0 -51.371,-6.953 -51.371,-15.551 0,-8.59 23.007,-15.539 51.371,-15.539 z" /><path
         id="path40"
         style="fill:#ffffff;fill-opacity:1;fill-rule:nonzero;stroke:none"
         d="m 201.84,90.2188 c 28.359,0 51.32,6.9921 51.32,15.5902 0,8.589 -22.961,15.543 -51.32,15.543 -28.36,0 -51.371,-6.954 -51.371,-15.543 0,-8.5981 23.011,-15.5902 51.371,-15.5902" /><path
         id="path42"
         style="fill:none;stroke:#ffffff;stroke-width:8.00002956;stroke-linecap:butt;stroke-linejoin:miter;stroke-miterlimit:4;stroke-dasharray:none;stroke-opacity:1"
         d="m 201.84,90.2266 c 28.359,0 51.32,6.9882 51.32,15.5784 0,8.601 -22.961,15.55 -51.32,15.55 -28.36,0 -51.371,-6.949 -51.371,-15.55 0,-8.5902 23.011,-15.5784 51.371,-15.5784 z" /></g></g></svg>