<svg xmlns="http://www.w3.org/2000/svg" viewBox="0 0 58.75 38.75" height="38.75" width="58.75"><path d="M.605 38.627h53.501V5.097H.605v33.53z" fill="#087fbf"/><path d="M.605 38.627h53.501V5.097H.605v33.53z" fill="none" stroke="#fff" stroke-width=".5"/><path d="M4.79.766h53.506L54.101 5H.601L4.79.766" fill="#087fbf"/><path d="M4.79.766h53.506L54.101 5H.601L4.79.766z" fill="none" stroke="#fff" stroke-width=".5"/><path d="M58.169 32.183l-4.194 6.132V4.785L58.17.547v31.636" fill="#087fbf"/><path d="M58.169 32.183l-4.194 6.132V4.785L58.17.547v31.636z" fill="none" stroke="#fff" stroke-width=".5"/><path d="M25.337 27.607l3.813-2.792c-3.755-.035-5.664.073-8.135.244-1.191 3.637-1.171 4.6-2.377 7.03l2.953-1.738c2.848 2.14 6.349 2.667 9.318 1.563.087-.059.175-.113.259-.17l4.79-3.507c-3.063 2.237-7.38 2.022-10.62-.63" fill="#fff"/><path d="M25.337 27.607l3.813-2.792c-3.755-.035-5.664.073-8.135.244-1.191 3.637-1.171 4.6-2.377 7.03l2.953-1.738c2.848 2.14 6.349 2.667 9.318 1.563.087-.059.175-.113.259-.17l4.79-3.507c-3.063 2.237-7.38 2.022-10.62-.63z" fill="none" stroke="#231f20" stroke-width=".239875"/><path d="M21.962 22.636c-.99-3.114-.468-6.552 1.657-8.984.4-.458.839-.864 1.307-1.2l-4.79 3.506a8.135 8.135 0 0 0-1.308 1.2c-2.104 2.407-2.627 5.806-1.68 8.902l4.814-3.424" fill="#fff"/><path d="M21.962 22.636c-.99-3.114-.468-6.552 1.657-8.984.4-.458.839-.864 1.307-1.2l-4.79 3.506a8.135 8.135 0 0 0-1.308 1.2c-2.104 2.407-2.627 5.806-1.68 8.902l4.814-3.424z" fill="none" stroke="#231f20" stroke-width=".239875"/><path d="M31.411 12.359c-1.918-.719-3.95-.84-5.825-.343a8.274 8.274 0 0 0-.66.435l-4.79 3.506c2.198-1.61 5.045-1.948 7.672-1.04l-2.627 1.876 8.125-.172.542-5.991-2.437 1.729" fill="#fff"/><path d="M31.411 12.359c-1.918-.719-3.95-.84-5.825-.343a8.274 8.274 0 0 0-.66.435l-4.79 3.506c2.198-1.61 5.045-1.948 7.672-1.04l-2.627 1.876 8.125-.172.542-5.991-2.437 1.729z" fill="none" stroke="#231f20" stroke-width=".239875"/><path d="M37.52 14.712c3.013 4.898 1.894 9.775-.255 12.32a8.444 8.444 0 0 1-1.307 1.205l-4.79 3.507a8.066 8.066 0 0 0 1.307-1.206c3.902-4.65 1.616-9.288.396-12.344l4.649-3.482" fill="#fff"/><path d="M37.52 14.712c3.013 4.898 1.894 9.775-.255 12.32a8.444 8.444 0 0 1-1.307 1.205l-4.79 3.507a8.066 8.066 0 0 0 1.307-1.206c3.902-4.65 1.616-9.288.396-12.344l4.649-3.482z" fill="none" stroke="#231f20" stroke-width=".239875"/><path d="M10.864 23.422l-7.988-.082v-1.524l7.988-.005v-2.377l4.63 3.14-4.63 3.143v-2.295M44.99 23.422l7.994-.082v-1.524l-7.994-.005v-2.377l-4.629 3.14 4.63 3.143v-2.295" fill="#fff"/></svg>