<?xml version="1.0" encoding="UTF-8" standalone="no"?>
<svg
   xmlns:dc="http://purl.org/dc/elements/1.1/"
   xmlns:cc="http://creativecommons.org/ns#"
   xmlns:rdf="http://www.w3.org/1999/02/22-rdf-syntax-ns#"
   xmlns:svg="http://www.w3.org/2000/svg"
   xmlns="http://www.w3.org/2000/svg"
   xmlns:sodipodi="http://sodipodi.sourceforge.net/DTD/sodipodi-0.dtd"
   xmlns:inkscape="http://www.inkscape.org/namespaces/inkscape"
   viewBox="0 0 37.551197 39.679889"
   height="39.67989"
   width="37.551197"
   xml:space="preserve"
   version="1.1"
   id="svg2"
   inkscape:version="0.91 r13725"
   sodipodi:docname="contactcenter.svg"><sodipodi:namedview
     pagecolor="#ffffff"
     bordercolor="#666666"
     borderopacity="1"
     objecttolerance="10"
     gridtolerance="10"
     guidetolerance="10"
     inkscape:pageopacity="0"
     inkscape:pageshadow="2"
     inkscape:window-width="448"
     inkscape:window-height="438"
     id="namedview28"
     showgrid="false"
     inkscape:zoom="5.9483303"
     inkscape:cx="18.775141"
     inkscape:cy="19.837413"
     inkscape:window-x="0"
     inkscape:window-y="23"
     inkscape:window-maximized="0"
     inkscape:current-layer="svg2" /><metadata
     id="metadata8"><rdf:RDF><cc:Work
         rdf:about=""><dc:format>image/svg+xml</dc:format><dc:type
           rdf:resource="http://purl.org/dc/dcmitype/StillImage" /></cc:Work></rdf:RDF></metadata><defs
     id="defs6" /><g
     transform="matrix(1.25,0,0,-1.25,1.4130874e-4,39.679975)"
     id="g10"><g
       transform="scale(0.1,0.1)"
       id="g12"><path
         id="path14"
         style="fill:#087bbb;fill-opacity:1;fill-rule:nonzero;stroke:none"
         d="m 4.625,5.04297 264.098,0 0,278.59 -264.098,0 0,-278.59 z"
         inkscape:connector-curvature="0" /><path
         id="path16"
         style="fill:none;stroke:#ffffff;stroke-width:4;stroke-linecap:butt;stroke-linejoin:miter;stroke-miterlimit:4;stroke-dasharray:none;stroke-opacity:1"
         d="m 4.625,5.04297 264.098,0 0,278.59 -264.098,0 0,-278.59 z"
         inkscape:connector-curvature="0" /><path
         id="path18"
         style="fill:#087bbb;fill-opacity:1;fill-rule:nonzero;stroke:none"
         d="M 31.6719,312.395 4.625,283.633 l 264.098,0 27.058,28.762 -264.1091,0"
         inkscape:connector-curvature="0" /><path
         id="path20"
         style="fill:none;stroke:#ffffff;stroke-width:4;stroke-linecap:butt;stroke-linejoin:miter;stroke-miterlimit:4;stroke-dasharray:none;stroke-opacity:1"
         d="M 31.6719,312.395 4.625,283.633 l 264.098,0 27.058,28.762 -264.1091,0 z"
         inkscape:connector-curvature="0" /><path
         id="path22"
         style="fill:#087bbb;fill-opacity:1;fill-rule:nonzero;stroke:none"
         d="m 295.781,33.7852 0,278.6098 -27.058,-28.762 0,-278.59003 27.058,28.74223"
         inkscape:connector-curvature="0" /><path
         id="path24"
         style="fill:none;stroke:#ffffff;stroke-width:4;stroke-linecap:butt;stroke-linejoin:miter;stroke-miterlimit:4;stroke-dasharray:none;stroke-opacity:1"
         d="m 295.781,33.7852 0,278.6098 -27.058,-28.762 0,-278.59003 27.058,28.74223 z"
         inkscape:connector-curvature="0" /><path
         id="path26"
         style="fill:none;stroke:#ffffff;stroke-width:4;stroke-linecap:butt;stroke-linejoin:miter;stroke-miterlimit:4;stroke-dasharray:none;stroke-opacity:1"
         d="m 26.6172,19.7969 223.145,0 0,249.289 -223.145,0 0,-249.289 z"
         inkscape:connector-curvature="0" /><path
         id="path28"
         style="fill:#087bbb;fill-opacity:1;fill-rule:nonzero;stroke:none"
         d="m 168.984,62.7891 c 0,-16.7578 -13.578,-30.3477 -30.351,-30.3477 -16.778,0 -30.367,13.5899 -30.367,30.3477 0,16.7812 13.589,30.3711 30.367,30.3711 16.773,0 30.351,-13.5899 30.351,-30.3711"
         inkscape:connector-curvature="0" /><path
         id="path30"
         style="fill:none;stroke:#ffffff;stroke-width:4;stroke-linecap:butt;stroke-linejoin:miter;stroke-miterlimit:4;stroke-dasharray:none;stroke-opacity:1"
         d="m 168.984,62.7891 c 0,-16.7578 -13.578,-30.3477 -30.351,-30.3477 -16.778,0 -30.367,13.5899 -30.367,30.3477 0,16.7812 13.589,30.3711 30.367,30.3711 16.773,0 30.351,-13.5899 30.351,-30.3711 z"
         inkscape:connector-curvature="0" /><g
         transform="scale(10,10)"
         id="g32"><text
           id="text34"
           style="font-variant:normal;font-weight:bold;font-size:5px;font-family:Helvetica;-inkscape-font-specification:Helvetica-Bold;writing-mode:lr-tb;fill:#ffffff;fill-opacity:1;fill-rule:nonzero;stroke:none"
           transform="matrix(1,0,0,-1,12.1824,4.43242)"><tspan
             id="tspan36"
             y="0"
             x="0">V</tspan></text>
</g><g
         transform="scale(10,10)"
         id="g38"><text
           id="text40"
           style="font-variant:normal;font-weight:bold;font-size:4px;font-family:Helvetica;-inkscape-font-specification:Helvetica-Bold;writing-mode:lr-tb;fill:#ffffff;fill-opacity:1;fill-rule:nonzero;stroke:none"
           transform="matrix(1,0,0,-1,8.22734,22.0066)"><tspan
             id="tspan42"
             y="0"
             x="0 3.776 7.552">WWW</tspan></text>
</g><path
         id="path44"
         style="fill:none;stroke:#ffffff;stroke-width:5;stroke-linecap:butt;stroke-linejoin:miter;stroke-miterlimit:4;stroke-dasharray:none;stroke-opacity:1"
         d="m 62.2422,107.754 171.0938,0"
         inkscape:connector-curvature="0" /><path
         id="path46"
         style="fill:#ffffff;fill-opacity:1;fill-rule:nonzero;stroke:none"
         d="M 77.5586,121.777 69.293,107.574 77.5586,93.3555 42.7539,107.574 77.5586,121.777"
         inkscape:connector-curvature="0" /><path
         id="path48"
         style="fill:none;stroke:#ffffff;stroke-width:5;stroke-linecap:butt;stroke-linejoin:miter;stroke-miterlimit:4;stroke-dasharray:none;stroke-opacity:1"
         d="m 217.754,202.09 -171.0938,0"
         inkscape:connector-curvature="0" /><path
         id="path50"
         style="fill:#ffffff;fill-opacity:1;fill-rule:nonzero;stroke:none"
         d="m 202.438,188.066 8.265,14.204 -8.265,14.218 34.804,-14.218 -34.804,-14.204"
         inkscape:connector-curvature="0" /><path
         id="path52"
         style="fill:none;stroke:#ffffff;stroke-width:4;stroke-linecap:butt;stroke-linejoin:miter;stroke-miterlimit:4;stroke-dasharray:none;stroke-opacity:1"
         d="m 89.0547,130.328 103.328,0 0,53.332 -103.328,0 0,-53.332 z"
         inkscape:connector-curvature="0" /><path
         id="path54"
         style="fill:none;stroke:#ffffff;stroke-width:4;stroke-linecap:butt;stroke-linejoin:miter;stroke-miterlimit:4;stroke-dasharray:none;stroke-opacity:1"
         d="m 89.0547,183.66 51.6643,-26.668 51.664,26.668"
         inkscape:connector-curvature="0" /></g></g></svg>