<?xml version="1.0" encoding="UTF-8" standalone="no"?>
<svg
   xmlns:dc="http://purl.org/dc/elements/1.1/"
   xmlns:cc="http://creativecommons.org/ns#"
   xmlns:rdf="http://www.w3.org/1999/02/22-rdf-syntax-ns#"
   xmlns:svg="http://www.w3.org/2000/svg"
   xmlns="http://www.w3.org/2000/svg"
   viewBox="0 0 58.900002 39.1875"
   height="39.1875"
   width="58.900002"
   xml:space="preserve"
   version="1.1"
   id="svg2"><metadata
     id="metadata8"><rdf:RDF><cc:Work
         rdf:about=""><dc:format>image/svg+xml</dc:format><dc:type
           rdf:resource="http://purl.org/dc/dcmitype/StillImage" /></cc:Work></rdf:RDF></metadata><defs
     id="defs6"><clipPath
       id="clipPath18"
       clipPathUnits="userSpaceOnUse"><path
         id="path20"
         d="M 0,3 0,313 470,313 470,3 0,3 Z" /></clipPath></defs><g
     transform="matrix(1.25,0,0,-1.25,0,39.1875)"
     id="g10"><g
       transform="scale(0.1,0.1)"
       id="g12"><g
         id="g14"><g
           clip-path="url(#clipPath18)"
           id="g16"><path
             id="path22"
             style="fill:#087fbf;fill-opacity:1;fill-rule:nonzero;stroke:none"
             d="m 4.84766,3.96484 428.004,0 0,268.262 -428.004,0 0,-268.262 z" /><path
             id="path24"
             style="fill:none;stroke:#ffffff;stroke-width:4;stroke-linecap:butt;stroke-linejoin:miter;stroke-miterlimit:4;stroke-dasharray:none;stroke-opacity:1"
             d="m 4.84766,3.96484 428.004,0 0,268.262 -428.004,0 0,-268.262 z" /><path
             id="path26"
             style="fill:#087fbf;fill-opacity:1;fill-rule:nonzero;stroke:none"
             d="m 38.332,306.875 428.035,0 L 432.813,273 4.79297,273 38.332,306.875" /><path
             id="path28"
             style="fill:none;stroke:#ffffff;stroke-width:4;stroke-linecap:butt;stroke-linejoin:miter;stroke-miterlimit:4;stroke-dasharray:none;stroke-opacity:1"
             d="m 38.332,306.875 428.035,0 L 432.813,273 4.79297,273 38.332,306.875 Z" /><path
             id="path30"
             style="fill:#087fbf;fill-opacity:1;fill-rule:nonzero;stroke:none"
             d="m 465.352,55.5273 -33.555,-49.06246 0,268.26216 33.555,33.886 0,-253.0857" /><path
             id="path32"
             style="fill:none;stroke:#ffffff;stroke-width:4;stroke-linecap:butt;stroke-linejoin:miter;stroke-miterlimit:4;stroke-dasharray:none;stroke-opacity:1"
             d="m 465.352,55.5273 -33.555,-49.06246 0,268.26216 33.555,33.886 0,-253.0857 z" /><path
             id="path34"
             style="fill:#ffffff;fill-opacity:1;fill-rule:nonzero;stroke:none"
             d="m 202.695,92.1289 30.489,22.3361 c -30.039,0.312 -45.274,-0.551 -65.055,-1.945 -9.539,-29.0708 -9.367,-36.7973 -19.02,-56.2309 l 23.61,13.9062 c 22.801,-17.1094 50.816,-21.3281 74.566,-12.5195 0.676,0.4687 1.406,0.918 2.07,1.3984 l 38.301,28.0274 C 263.176,69.1992 228.633,70.918 202.695,92.1289" /><path
             id="path36"
             style="fill:none;stroke:#231f20;stroke-width:1.91900003;stroke-linecap:butt;stroke-linejoin:miter;stroke-miterlimit:4;stroke-dasharray:none;stroke-opacity:1"
             d="m 202.695,92.1289 30.489,22.3361 c -30.039,0.312 -45.274,-0.551 -65.055,-1.945 -9.539,-29.0708 -9.367,-36.7973 -19.02,-56.2309 l 23.61,13.9062 c 22.801,-17.1094 50.816,-21.3281 74.566,-12.5195 0.676,0.4687 1.406,0.918 2.07,1.3984 l 38.301,28.0274 C 263.176,69.1992 228.633,70.918 202.695,92.1289 Z" /><path
             id="path38"
             style="fill:#ffffff;fill-opacity:1;fill-rule:nonzero;stroke:none"
             d="m 175.703,131.895 c -7.922,24.933 -3.734,52.441 13.235,71.886 3.21,3.672 6.738,6.895 10.476,9.629 l -38.305,-28.058 c -3.761,-2.735 -7.246,-5.946 -10.468,-9.629 -16.868,-19.258 -21.051,-46.426 -13.438,-71.2 l 38.5,27.372" /><path
             id="path40"
             style="fill:none;stroke:#231f20;stroke-width:1.91900003;stroke-linecap:butt;stroke-linejoin:miter;stroke-miterlimit:4;stroke-dasharray:none;stroke-opacity:1"
             d="m 175.703,131.895 c -7.922,24.933 -3.734,52.441 13.235,71.886 3.21,3.672 6.738,6.895 10.476,9.629 l -38.305,-28.058 c -3.761,-2.735 -7.246,-5.946 -10.468,-9.629 -16.868,-19.258 -21.051,-46.426 -13.438,-71.2 l 38.5,27.372 z" /><path
             id="path42"
             style="fill:#ffffff;fill-opacity:1;fill-rule:nonzero;stroke:none"
             d="m 251.289,214.121 c -15.351,5.754 -31.582,6.731 -46.582,2.734 -1.809,-1.062 -3.574,-2.214 -5.293,-3.445 l -38.305,-28.058 c 17.563,12.871 40.317,15.566 61.364,8.3 l -21.047,-14.98 65.019,1.359 4.336,47.93 -19.492,-13.84" /><path
             id="path44"
             style="fill:none;stroke:#231f20;stroke-width:1.91900003;stroke-linecap:butt;stroke-linejoin:miter;stroke-miterlimit:4;stroke-dasharray:none;stroke-opacity:1"
             d="m 251.289,214.121 c -15.351,5.754 -31.582,6.731 -46.582,2.734 -1.809,-1.062 -3.574,-2.214 -5.293,-3.445 l -38.305,-28.058 c 17.563,12.871 40.317,15.566 61.364,8.3 l -21.047,-14.98 65.019,1.359 4.336,47.93 -19.492,-13.84 z" /><path
             id="path46"
             style="fill:#ffffff;fill-opacity:1;fill-rule:nonzero;stroke:none"
             d="m 300.156,195.305 c 24.102,-39.184 15.149,-78.196 -2.031,-98.5745 -3.223,-3.6719 -6.711,-6.8594 -10.469,-9.6289 L 249.355,59.0742 c 3.77,2.7422 7.247,5.9571 10.469,9.6172 31.211,37.2186 12.891,74.3166 3.145,98.7496 l 37.187,27.864" /><path
             id="path48"
             style="fill:none;stroke:#231f20;stroke-width:1.91900003;stroke-linecap:butt;stroke-linejoin:miter;stroke-miterlimit:4;stroke-dasharray:none;stroke-opacity:1"
             d="m 300.156,195.305 c 24.102,-39.184 15.149,-78.196 -2.031,-98.5745 -3.223,-3.6719 -6.711,-6.8594 -10.469,-9.6289 L 249.355,59.0742 c 3.77,2.7422 7.247,5.9571 10.469,9.6172 31.211,37.2186 12.891,74.3166 3.145,98.7496 l 37.187,27.864 z" /><path
             id="path50"
             style="fill:#ffffff;fill-opacity:1;fill-rule:nonzero;stroke:none"
             d="m 86.9063,125.617 -63.8868,0.653 0,12.187 63.8868,0.051 0.0156,19.012 37.0041,-25.118 -37.0041,-25.125 -0.0156,18.34" /><path
             id="path52"
             style="fill:#ffffff;fill-opacity:1;fill-rule:nonzero;stroke:none"
             d="m 359.934,125.617 63.933,0.653 0,12.187 -63.933,0.051 -0.024,19.012 -37,-25.118 37,-25.125 0.024,18.34" /></g></g></g></g></svg>