<svg xmlns="http://www.w3.org/2000/svg" viewBox="0 0 52.5 38.75" height="38.75" width="52.5"><path d="M13.935 38.627h33.501V5.097H13.935v33.53z" fill="#087bbb"/><path d="M13.935 38.627h33.501V5.097H13.935v33.53z" fill="none" stroke="#fff" stroke-width=".5"/><path d="M17.851.761h33.506L47.163 5h-33.5L17.85.761" fill="#087bbb"/><path d="M17.851.761h33.506L47.163 5h-33.5L17.85.761z" fill="none" stroke="#fff" stroke-width=".5"/><path d="M51.498 32.188l-4.193 6.127V4.785L51.5.547v31.64" fill="#087bbb"/><path d="M51.498 32.188l-4.193 6.127V4.785L51.5.547v31.64z" fill="none" stroke="#fff" stroke-width=".5"/><path d="M.356 38.627h13.58V5.097H.355v33.53z" fill="#087bbb"/><path d="M.356 38.627h13.58V5.097H.355v33.53z" fill="none" stroke="#fff" stroke-width=".5"/><path d="M4.795.761h13.579L14.18 5H.6L4.795.761" fill="#087bbb"/><path d="M4.795.761h13.579L14.18 5H.6L4.795.761zM13.935 5.098v33.53M14.18 17.188H.6" fill="none" stroke="#fff" stroke-width=".5"/><path d="M25.815 21.138h-7.25v-1.23l-2.735 1.816 2.735 1.811V22.31h7.25v-1.172M26.865 24.834l-5.126 5.127-.87-.87-.654 3.22 3.218-.656-.869-.869 5.126-5.122-.825-.83M30.22 26.709v7.251H28.99l1.817 2.734 1.812-2.734h-1.232v-7.251H30.22M33.916 25.664l5.127 5.122-.87.869 3.218.655-.654-3.219-.868.87-5.123-5.127-.83.83M35.791 22.31h7.252v1.225l2.733-1.811-2.734-1.816v1.23h-7.251v1.172M34.746 18.609l5.123-5.128.868.87.654-3.219-3.217.656.869.868-5.127 5.123.83.83M31.386 16.734V9.487h1.232l-1.812-2.74-1.817 2.74h1.231v7.247h1.166M27.69 17.779l-5.126-5.123.869-.868-3.218-.656.654 3.218.87-.868 5.126 5.127.825-.83" fill="#fff"/><path d="M36.88 17.285a7.508 7.508 0 0 0-10.454-1.841c-3.399 2.378-4.219 7.056-1.841 10.455a7.5 7.5 0 0 0 10.449 1.84 7.504 7.504 0 0 0 1.846-10.454M5.879 11.099H3.7v-.367l-.82.543.82.546v-.37H5.88v-.352M6.191 12.212L4.66 13.745l-.264-.259-.196.963.967-.192-.264-.263 1.538-1.538-.249-.244M7.203 12.774v2.172H6.83l.542.82.547-.82h-.371v-2.172h-.346M8.31 12.456l1.534 1.538-.259.263.966.192-.195-.963-.264.26-1.537-1.534-.245.244M8.873 11.45h2.172v.371l.82-.546-.82-.543v.367H8.873v.351M8.555 10.341l1.537-1.537.264.263.195-.967-.966.196.259.26-1.534 1.536.245.25M7.549 9.78V7.607h.37l-.546-.824-.542.824h.372V9.78h.346M6.44 10.092L4.902 8.555l.264-.259-.967-.196.196.967.264-.263L6.19 10.34l.249-.249" fill="#fff"/><path d="M9.199 9.946a2.247 2.247 0 0 0-3.134-.551 2.248 2.248 0 0 0-.558 3.134 2.253 2.253 0 0 0 3.691-2.582M6.621 28.15v6.03h-1.02l1.504 2.275 1.509-2.275H7.592v-6.03h-.97M8.296 28.013l2.06 5.663-.961.353 2.196 1.62.635-2.655-.956.351-2.061-5.664-.913.332M5.958 28.013l-2.062 5.663.963.353-2.198 1.62-.64-2.655.963.351 2.06-5.664.914.332M6.621 18.804v5.815h-1.02l1.504 2.271 1.509-2.271H7.592v-5.815h-.97" fill="#fff"/></svg>