<?xml version="1.0" encoding="UTF-8" standalone="no"?>
<svg
   xmlns:dc="http://purl.org/dc/elements/1.1/"
   xmlns:cc="http://creativecommons.org/ns#"
   xmlns:rdf="http://www.w3.org/1999/02/22-rdf-syntax-ns#"
   xmlns:svg="http://www.w3.org/2000/svg"
   xmlns="http://www.w3.org/2000/svg"
   viewBox="0 0 38.75 41.25"
   height="41.25"
   width="38.75"
   xml:space="preserve"
   version="1.1"
   id="svg2"><metadata
     id="metadata8"><rdf:RDF><cc:Work
         rdf:about=""><dc:format>image/svg+xml</dc:format><dc:type
           rdf:resource="http://purl.org/dc/dcmitype/StillImage" /></cc:Work></rdf:RDF></metadata><defs
     id="defs6" /><g
     transform="matrix(1.25,0,0,-1.25,0,41.25)"
     id="g10"><g
       transform="scale(0.1,0.1)"
       id="g12"><path
         id="path14"
         style="fill:#087bbb;fill-opacity:1;fill-rule:nonzero;stroke:none"
         d="m 4.60938,15.0586 264.102,0 0,278.59 -264.102,0 0,-278.59 z" /><path
         id="path16"
         style="fill:none;stroke:#ffffff;stroke-width:4;stroke-linecap:butt;stroke-linejoin:miter;stroke-miterlimit:4;stroke-dasharray:none;stroke-opacity:1"
         d="m 4.60938,15.0586 264.102,0 0,278.59 -264.102,0 0,-278.59 z" /><path
         id="path18"
         style="fill:#087bbb;fill-opacity:1;fill-rule:nonzero;stroke:none"
         d="m 31.6797,322.398 -27.07032,-28.75 264.10162,0 27.07,28.75 -264.1013,0" /><path
         id="path20"
         style="fill:none;stroke:#ffffff;stroke-width:4;stroke-linecap:butt;stroke-linejoin:miter;stroke-miterlimit:4;stroke-dasharray:none;stroke-opacity:1"
         d="m 31.6797,322.398 -27.07032,-28.75 264.10162,0 27.07,28.75 -264.1013,0 z" /><path
         id="path22"
         style="fill:#087bbb;fill-opacity:1;fill-rule:nonzero;stroke:none"
         d="m 295.781,43.7695 0,278.6285 -27.07,-28.75 0,-278.5894 27.07,28.7109" /><path
         id="path24"
         style="fill:none;stroke:#ffffff;stroke-width:4;stroke-linecap:butt;stroke-linejoin:miter;stroke-miterlimit:4;stroke-dasharray:none;stroke-opacity:1"
         d="m 295.781,43.7695 0,278.6285 -27.07,-28.75 0,-278.5894 27.07,28.7109 z" /><path
         id="path26"
         style="fill:none;stroke:#ffffff;stroke-width:4;stroke-linecap:butt;stroke-linejoin:miter;stroke-miterlimit:4;stroke-dasharray:none;stroke-opacity:1"
         d="m 26.6016,29.7773 223.16,0 0,249.301 -223.16,0 0,-249.301 z" /><path
         id="path28"
         style="fill:#087bbb;fill-opacity:1;fill-rule:nonzero;stroke:none"
         d="m 168.98,72.7891 c 0,-16.7578 -13.589,-30.3477 -30.351,-30.3477 -16.75,0 -30.348,13.5899 -30.348,30.3477 0,16.8007 13.598,30.3519 30.348,30.3519 16.762,0 30.351,-13.5512 30.351,-30.3519" /><path
         id="path30"
         style="fill:none;stroke:#ffffff;stroke-width:4;stroke-linecap:butt;stroke-linejoin:miter;stroke-miterlimit:4;stroke-dasharray:none;stroke-opacity:1"
         d="m 168.98,72.7891 c 0,-16.7618 -13.589,-30.3516 -30.351,-30.3516 -16.75,0 -30.348,13.5898 -30.348,30.3516 0,16.8007 13.598,30.3519 30.348,30.3519 16.762,0 30.351,-13.5512 30.351,-30.3519 z" /><g
         transform="scale(10,10)"
         id="g32"><text
           id="text34"
           style="font-variant:normal;font-weight:bold;font-size:5px;font-family:Helvetica;-inkscape-font-specification:Helvetica-Bold;writing-mode:lr-tb;fill:#ffffff;fill-opacity:1;fill-rule:nonzero;stroke:none"
           transform="matrix(1,0,0,-1,12.1824,5.43242)"><tspan
             id="tspan36"
             y="0"
             x="0">V</tspan></text>
<text
           id="text38"
           style="font-variant:normal;font-weight:bold;font-size:4px;font-family:Helvetica;-inkscape-font-specification:Helvetica-Bold;writing-mode:lr-tb;fill:#ffffff;fill-opacity:1;fill-rule:nonzero;stroke:none"
           transform="matrix(1,0,0,-1,8.22732,23.00662)"><tspan
             id="tspan40"
             y="0"
             x="0 3.776 7.552">WWW</tspan></text>
</g><path
         id="path42"
         style="fill:none;stroke:#ffffff;stroke-width:5;stroke-linecap:butt;stroke-linejoin:miter;stroke-miterlimit:4;stroke-dasharray:none;stroke-opacity:1"
         d="m 62.2305,117.75 171.0895,0" /><path
         id="path44"
         style="fill:#ffffff;fill-opacity:1;fill-rule:nonzero;stroke:none"
         d="m 77.5781,131.781 -8.2773,-14.222 8.2773,-14.219 -34.8086,14.219 34.8086,14.222" /><path
         id="path46"
         style="fill:none;stroke:#ffffff;stroke-width:5;stroke-linecap:butt;stroke-linejoin:miter;stroke-miterlimit:4;stroke-dasharray:none;stroke-opacity:1"
         d="m 217.77,212.09 -171.0903,0" /><path
         id="path48"
         style="fill:#ffffff;fill-opacity:1;fill-rule:nonzero;stroke:none"
         d="m 202.422,198.059 8.277,14.222 -8.277,14.219 34.808,-14.219 -34.808,-14.222" /><path
         id="path50"
         style="fill:none;stroke:#ffffff;stroke-width:4;stroke-linecap:butt;stroke-linejoin:miter;stroke-miterlimit:4;stroke-dasharray:none;stroke-opacity:1"
         d="m 89.0586,140.328 103.32,0 0,53.3203 -103.32,0 0,-53.3203 z" /><path
         id="path52"
         style="fill:none;stroke:#ffffff;stroke-width:4;stroke-linecap:butt;stroke-linejoin:miter;stroke-miterlimit:4;stroke-dasharray:none;stroke-opacity:1"
         d="m 89.0586,193.648 51.6404,-26.64 51.68,26.64" /></g></g></svg>