<?xml version="1.0" encoding="UTF-8" standalone="no"?>
<svg
   xmlns:dc="http://purl.org/dc/elements/1.1/"
   xmlns:cc="http://creativecommons.org/ns#"
   xmlns:rdf="http://www.w3.org/1999/02/22-rdf-syntax-ns#"
   xmlns:svg="http://www.w3.org/2000/svg"
   xmlns="http://www.w3.org/2000/svg"
   viewBox="0 0 51.950001 39.1875"
   height="39.1875"
   width="51.950001"
   xml:space="preserve"
   version="1.1"
   id="svg2"><metadata
     id="metadata8"><rdf:RDF><cc:Work
         rdf:about=""><dc:format>image/svg+xml</dc:format><dc:type
           rdf:resource="http://purl.org/dc/dcmitype/StillImage" /></cc:Work></rdf:RDF></metadata><defs
     id="defs6"><clipPath
       id="clipPath18"
       clipPathUnits="userSpaceOnUse"><path
         id="path20"
         d="M 0,3 0,313 416,313 416,3 0,3 Z" /></clipPath></defs><g
     transform="matrix(1.25,0,0,-1.25,0,39.1875)"
     id="g10"><g
       transform="scale(0.1,0.1)"
       id="g12"><g
         id="g14"><g
           clip-path="url(#clipPath18)"
           id="g16"><path
             id="path22"
             style="fill:#087bbb;fill-opacity:1;fill-rule:nonzero;stroke:none"
             d="m 111.492,3.96484 268.004,0 0,268.273 -268.004,0 0,-268.273 z" /><path
             id="path24"
             style="fill:none;stroke:#ffffff;stroke-width:3.99993992;stroke-linecap:butt;stroke-linejoin:miter;stroke-miterlimit:4;stroke-dasharray:none;stroke-opacity:1"
             d="m 111.492,3.96484 268.004,0 0,268.273 -268.004,0 0,-268.273 z" /><path
             id="path26"
             style="fill:#087bbb;fill-opacity:1;fill-rule:nonzero;stroke:none"
             d="m 142.832,306.887 268.012,0 -33.555,-33.887 -268.004,0 33.547,33.887" /><path
             id="path28"
             style="fill:none;stroke:#ffffff;stroke-width:3.99993992;stroke-linecap:butt;stroke-linejoin:miter;stroke-miterlimit:4;stroke-dasharray:none;stroke-opacity:1"
             d="m 142.832,306.887 268.012,0 -33.555,-33.887 -268.004,0 33.547,33.887 z" /><path
             id="path30"
             style="fill:#087bbb;fill-opacity:1;fill-rule:nonzero;stroke:none"
             d="m 411.996,55.5195 -33.555,-49.05466 0,268.27316 33.555,33.875 0,-253.0935" /><path
             id="path32"
             style="fill:none;stroke:#ffffff;stroke-width:3.99993992;stroke-linecap:butt;stroke-linejoin:miter;stroke-miterlimit:4;stroke-dasharray:none;stroke-opacity:1"
             d="m 411.996,55.5195 -33.555,-49.05466 0,268.27316 33.555,33.875 0,-253.0935 z" /><path
             id="path34"
             style="fill:#087bbb;fill-opacity:1;fill-rule:nonzero;stroke:none"
             d="m 2.84375,3.96484 108.648,0 0,268.273 -108.648,0 0,-268.273 z" /><path
             id="path36"
             style="fill:none;stroke:#ffffff;stroke-width:3.99993992;stroke-linecap:butt;stroke-linejoin:miter;stroke-miterlimit:4;stroke-dasharray:none;stroke-opacity:1"
             d="m 2.84375,3.96484 108.648,0 0,268.273 -108.648,0 0,-268.273 z" /><path
             id="path38"
             style="fill:#087bbb;fill-opacity:1;fill-rule:nonzero;stroke:none"
             d="m 38.3477,306.887 108.6563,0 L 113.445,273 4.79297,273 38.3477,306.887" /><path
             id="path40"
             style="fill:none;stroke:#ffffff;stroke-width:3.99993992;stroke-linecap:butt;stroke-linejoin:miter;stroke-miterlimit:4;stroke-dasharray:none;stroke-opacity:1"
             d="m 38.3477,306.887 108.6563,0 L 113.445,273 4.79297,273 38.3477,306.887 Z" /><path
             id="path42"
             style="fill:#087bbb;fill-opacity:1;fill-rule:nonzero;stroke:none"
             d="m 111.492,272.238 0,-268.27316" /><path
             id="path44"
             style="fill:none;stroke:#ffffff;stroke-width:3.99993992;stroke-linecap:butt;stroke-linejoin:miter;stroke-miterlimit:4;stroke-dasharray:none;stroke-opacity:1"
             d="m 111.492,272.238 0,-268.27316" /><path
             id="path46"
             style="fill:#231f20;fill-opacity:1;fill-rule:nonzero;stroke:none"
             d="m 113.445,175.496 -108.65203,0" /><path
             id="path48"
             style="fill:none;stroke:#ffffff;stroke-width:3.99993992;stroke-linecap:butt;stroke-linejoin:miter;stroke-miterlimit:4;stroke-dasharray:none;stroke-opacity:1"
             d="m 113.445,175.496 -108.65203,0" /><path
             id="path50"
             style="fill:#ffffff;fill-opacity:1;fill-rule:nonzero;stroke:none"
             d="m 206.527,143.906 -57.992,0 0,9.836 -21.887,-14.512 21.887,-14.511 0,9.82 57.992,0 0,9.367" /><path
             id="path52"
             style="fill:#ffffff;fill-opacity:1;fill-rule:nonzero;stroke:none"
             d="m 214.906,114.328 -41.011,-41.0155 -6.954,6.9609 -5.211,-25.7421 25.743,5.207 -6.953,6.9609 41.007,41.0078 -6.621,6.621" /><path
             id="path54"
             style="fill:#ffffff;fill-opacity:1;fill-rule:nonzero;stroke:none"
             d="m 241.742,99.3281 0,-57.9883 -9.824,0 14.512,-21.8945 14.511,21.8945 -9.843,0 0,57.9883 -9.356,0" /><path
             id="path56"
             style="fill:#ffffff;fill-opacity:1;fill-rule:nonzero;stroke:none"
             d="m 271.332,107.707 40.996,-41.0078 -6.953,-6.9609 25.742,-5.207 -5.215,25.7421 -6.953,-6.9609 -40.996,41.0155 -6.621,-6.621" /><path
             id="path58"
             style="fill:#ffffff;fill-opacity:1;fill-rule:nonzero;stroke:none"
             d="m 286.332,134.539 57.988,0 0,-9.82 21.895,14.511 -21.895,14.512 0,-9.836 -57.988,0 0,-9.367" /><path
             id="path60"
             style="fill:#ffffff;fill-opacity:1;fill-rule:nonzero;stroke:none"
             d="m 277.953,164.133 40.996,41.004 6.953,-6.953 5.215,25.742 -25.742,-5.215 6.953,-6.953 -40.996,-41.004 6.621,-6.621" /><path
             id="path62"
             style="fill:#ffffff;fill-opacity:1;fill-rule:nonzero;stroke:none"
             d="m 251.098,179.133 0,57.988 9.843,0 -14.511,21.883 -14.512,-21.883 9.824,0 0,-57.988 9.356,0" /><path
             id="path64"
             style="fill:#ffffff;fill-opacity:1;fill-rule:nonzero;stroke:none"
             d="m 221.527,170.754 -41.007,41.004 6.953,6.953 -25.743,5.215 5.211,-25.742 6.954,6.953 41.011,-41.004 6.621,6.621" /><path
             id="path66"
             style="fill:#ffffff;fill-opacity:1;fill-rule:nonzero;stroke:none"
             d="m 295.023,174.707 c -19.023,27.16 -56.464,33.762 -83.613,14.746 -27.172,-19.023 -33.773,-56.465 -14.746,-83.621 19.024,-27.1679 56.465,-33.7695 83.613,-14.7461 27.168,19.0231 33.77,56.4651 14.746,83.6211" /><path
             id="path68"
             style="fill:#ffffff;fill-opacity:1;fill-rule:nonzero;stroke:none"
             d="m 47.0313,224.199 -17.4024,0 0,2.961 -6.5625,-4.355 6.5625,-4.356 0,2.949 17.4024,0 0,2.801" /><path
             id="path70"
             style="fill:#ffffff;fill-opacity:1;fill-rule:nonzero;stroke:none"
             d="m 49.5391,215.324 -12.293,-12.304 -2.0898,2.089 -1.5625,-7.714 7.7265,1.562 -2.0937,2.078 12.3047,12.305 -1.9922,1.984" /><path
             id="path72"
             style="fill:#ffffff;fill-opacity:1;fill-rule:nonzero;stroke:none"
             d="m 57.5977,210.832 0,-17.402 -2.9493,0 4.3555,-6.563 4.3555,6.563 -2.9571,0 0,17.402 -2.8046,0" /><path
             id="path74"
             style="fill:#ffffff;fill-opacity:1;fill-rule:nonzero;stroke:none"
             d="m 66.4727,213.34 12.2968,-12.305 -2.0781,-2.078 7.7227,-1.562 -1.5703,7.714 -2.0821,-2.089 -12.3047,12.304 -1.9843,-1.984" /><path
             id="path76"
             style="fill:#ffffff;fill-opacity:1;fill-rule:nonzero;stroke:none"
             d="m 70.9688,221.398 17.3984,0 0,-2.949 6.5625,4.356 -6.5625,4.355 0,-2.961 -17.3984,0 0,-2.801" /><path
             id="path78"
             style="fill:#ffffff;fill-opacity:1;fill-rule:nonzero;stroke:none"
             d="m 68.457,230.266 12.3047,12.304 2.0821,-2.09 1.5703,7.723 -7.7227,-1.562 2.0781,-2.078 -12.2968,-12.305 1.9843,-1.992" /><path
             id="path80"
             style="fill:#ffffff;fill-opacity:1;fill-rule:nonzero;stroke:none"
             d="m 60.4023,234.766 0,17.394 2.9571,0 -4.3555,6.57 -4.3555,-6.57 2.9493,0 0,-17.394 2.8046,0" /><path
             id="path82"
             style="fill:#ffffff;fill-opacity:1;fill-rule:nonzero;stroke:none"
             d="m 51.5313,232.258 -12.3047,12.305 2.0937,2.078 -7.7265,1.562 1.5625,-7.723 2.0898,2.09 12.293,-12.304 1.9922,1.992" /><path
             id="path84"
             style="fill:#ffffff;fill-opacity:1;fill-rule:nonzero;stroke:none"
             d="m 73.5859,233.438 c -5.7148,8.156 -16.9453,10.128 -25.0898,4.425 -8.1523,-5.703 -10.1367,-16.933 -4.4219,-25.09 5.7031,-8.152 16.9336,-10.125 25.086,-4.421 8.1445,5.703 10.125,16.941 4.4257,25.086" /><path
             id="path86"
             style="fill:#ffffff;fill-opacity:1;fill-rule:nonzero;stroke:none"
             d="m 52.9609,87.7852 0,-48.2227 -8.1757,0 12.0586,-18.2031 12.0703,18.2031 -8.1719,0 0,48.2227 -7.7813,0" /><path
             id="path88"
             style="fill:#ffffff;fill-opacity:1;fill-rule:nonzero;stroke:none"
             d="M 66.3555,88.8984 82.8438,43.5938 75.1563,40.7891 92.7227,27.8242 97.832,49.0547 90.1563,46.2422 73.6602,91.5625 66.3555,88.8984" /><path
             id="path90"
             style="fill:#ffffff;fill-opacity:1;fill-rule:nonzero;stroke:none"
             d="M 47.6484,88.8984 31.1602,43.5938 38.8477,40.7891 21.2813,27.8242 l -5.1094,21.2305 7.6758,-2.8125 16.4961,45.3203 7.3046,-2.6641" /><path
             id="path92"
             style="fill:#ffffff;fill-opacity:1;fill-rule:nonzero;stroke:none"
             d="m 52.9609,162.551 0,-46.485 -8.1757,0 12.0586,-18.2027 12.0703,18.2027 -8.1719,0 0,46.485 -7.7813,0" /></g></g></g></g></svg>