<?xml version="1.0" encoding="UTF-8" standalone="no"?>
<svg
   xmlns:dc="http://purl.org/dc/elements/1.1/"
   xmlns:cc="http://creativecommons.org/ns#"
   xmlns:rdf="http://www.w3.org/1999/02/22-rdf-syntax-ns#"
   xmlns:svg="http://www.w3.org/2000/svg"
   xmlns="http://www.w3.org/2000/svg"
   viewBox="0 0 38.75 53.75"
   height="53.75"
   width="38.75"
   xml:space="preserve"
   version="1.1"
   id="svg2"><metadata
     id="metadata8"><rdf:RDF><cc:Work
         rdf:about=""><dc:format>image/svg+xml</dc:format><dc:type
           rdf:resource="http://purl.org/dc/dcmitype/StillImage" /></cc:Work></rdf:RDF></metadata><defs
     id="defs6"><clipPath
       id="clipPath18"
       clipPathUnits="userSpaceOnUse"><path
         id="path20"
         d="M 0,10 0,426 310,426 310,10 0,10 Z" /></clipPath></defs><g
     transform="matrix(1.25,0,0,-1.25,0,53.75)"
     id="g10"><g
       transform="scale(0.1,0.1)"
       id="g12"><g
         id="g14"><g
           clip-path="url(#clipPath18)"
           id="g16"><path
             id="path22"
             style="fill:#087bbb;fill-opacity:1;fill-rule:nonzero;stroke:none"
             d="m 306.289,63.4141 0,357.4999 -51.328,-48.75 0,-357.4999 51.328,48.75" /><path
             id="path24"
             style="fill:none;stroke:#ffffff;stroke-width:3.99993992;stroke-linecap:butt;stroke-linejoin:miter;stroke-miterlimit:4;stroke-dasharray:none;stroke-opacity:1"
             d="m 306.289,63.4141 0,357.4999 -51.328,-48.75 0,-357.4999 51.328,48.75 z" /><path
             id="path26"
             style="fill:#087bbb;fill-opacity:1;fill-rule:nonzero;stroke:none"
             d="m 306.289,420.914 -51.328,-48.75 -248.98053,0 64.48833,48.75 235.8202,0" /><path
             id="path28"
             style="fill:none;stroke:#ffffff;stroke-width:3.99993992;stroke-linecap:butt;stroke-linejoin:miter;stroke-miterlimit:4;stroke-dasharray:none;stroke-opacity:1"
             d="m 306.289,420.914 -51.328,-48.75 -248.98053,0 64.48833,48.75 235.8202,0 z" /><path
             id="path30"
             style="fill:#087bbb;fill-opacity:1;fill-rule:nonzero;stroke:none"
             d="m 5.98047,125.914 248.98,0 0,246.25 -248.98,0 0,-246.25 z" /><path
             id="path32"
             style="fill:none;stroke:#ffffff;stroke-width:3.99993992;stroke-linecap:butt;stroke-linejoin:miter;stroke-miterlimit:4;stroke-dasharray:none;stroke-opacity:1"
             d="m 5.98047,125.914 248.98,0 0,246.25 -248.98,0 0,-246.25 z" /><path
             id="path34"
             style="fill:#087bbb;fill-opacity:1;fill-rule:nonzero;stroke:none"
             d="m 5.98047,14.6641 248.98,0 0,108.75 -248.98,0 0,-108.75 z" /><path
             id="path36"
             style="fill:none;stroke:#ffffff;stroke-width:3.99993992;stroke-linecap:butt;stroke-linejoin:miter;stroke-miterlimit:4;stroke-dasharray:none;stroke-opacity:1"
             d="m 5.98047,14.6641 248.98,0 0,108.75 -248.98,0 0,-108.75 z" /><path
             id="path38"
             style="fill:#ffffff;fill-opacity:1;fill-rule:nonzero;stroke:none"
             d="m 108.238,278.223 -37.8474,37.89 6.4102,6.438 -23.7891,4.812 4.7969,-23.789 6.4531,6.438 37.8863,-37.891 6.09,6.102" /><path
             id="path40"
             style="fill:#ffffff;fill-opacity:1;fill-rule:nonzero;stroke:none"
             d="m 94.4102,253.414 -53.5899,0 0,9.098 -20.2305,-13.399 20.2305,-13.429 0,9.097 53.5899,0 0,8.633" /><path
             id="path42"
             style="fill:#ffffff;fill-opacity:1;fill-rule:nonzero;stroke:none"
             d="m 102.148,226.113 -37.8863,-37.89 -6.4531,6.398 -4.7969,-23.789 23.7891,4.852 -6.4102,6.398 37.8474,37.891 -6.09,6.14" /><path
             id="path44"
             style="fill:#ffffff;fill-opacity:1;fill-rule:nonzero;stroke:none"
             d="m 126.949,212.242 0,-53.59 -9.097,0 13.398,-20.199 13.441,20.199 -9.101,0 0,53.59 -8.641,0" /><path
             id="path46"
             style="fill:#ffffff;fill-opacity:1;fill-rule:nonzero;stroke:none"
             d="m 126.949,284.434 0,53.589 -9.097,0 13.398,20.2 13.441,-20.2 -9.101,0 0,-53.589 -8.641,0" /><path
             id="path48"
             style="fill:#ffffff;fill-opacity:1;fill-rule:nonzero;stroke:none"
             d="m 154.262,219.973 37.886,-37.891 -6.41,-6.398 23.793,-4.852 -4.84,23.789 -6.41,-6.398 -37.89,37.89 -6.129,-6.14" /><path
             id="path50"
             style="fill:#ffffff;fill-opacity:1;fill-rule:nonzero;stroke:none"
             d="m 168.121,244.781 53.598,0 0,-9.097 20.191,13.429 -20.191,13.399 0,-9.098 -53.598,0 0,-8.633" /><path
             id="path52"
             style="fill:#ffffff;fill-opacity:1;fill-rule:nonzero;stroke:none"
             d="m 160.391,272.121 37.89,37.891 6.41,-6.438 4.84,23.789 -23.793,-4.812 6.41,-6.438 -37.886,-37.89 6.129,-6.102" /><path
             id="path54"
             style="fill:#ffffff;fill-opacity:1;fill-rule:nonzero;stroke:none"
             d="m 164.141,203.762 c 25.269,17.699 31.449,52.539 13.711,77.82 -17.692,25.27 -52.543,31.402 -77.813,13.711 -25.2695,-17.699 -31.4101,-52.539 -13.7109,-77.82 17.6919,-25.27 52.5429,-31.399 77.8129,-13.711" /><path
             id="path56"
             style="fill:none;stroke:#231f20;stroke-width:3.99993992;stroke-linecap:butt;stroke-linejoin:miter;stroke-miterlimit:4;stroke-dasharray:none;stroke-opacity:1"
             d="m 164.141,203.762 c 25.269,17.699 31.449,52.539 13.711,77.82 -17.692,25.27 -52.543,31.402 -77.813,13.711 -25.2695,-17.699 -31.4101,-52.539 -13.7109,-77.82 17.6919,-25.27 52.5429,-31.399 77.8129,-13.711 z" /><path
             id="path58"
             style="fill:#ffffff;fill-opacity:1;fill-rule:nonzero;stroke:none"
             d="m 133.629,64.9727 53.601,0 0,-9.1016 20.192,13.4023 -20.192,13.4375 0,-9.0976 -53.601,0 0,-8.6406" /><path
             id="path60"
             style="fill:#ffffff;fill-opacity:1;fill-rule:nonzero;stroke:none"
             d="m 132.379,79.8633 50.351,18.3203 3.129,-8.5625 14.411,19.5309 -23.59,5.672 3.121,-8.523 -50.352,-18.3166 2.93,-8.1211" /><path
             id="path62"
             style="fill:#ffffff;fill-opacity:1;fill-rule:nonzero;stroke:none"
             d="m 132.379,59.082 50.351,-18.3203 3.129,8.5117 14.411,-19.4921 -23.59,-5.6993 3.121,8.5508 -50.352,18.3203 2.93,8.1289" /><path
             id="path64"
             style="fill:#ffffff;fill-opacity:1;fill-rule:nonzero;stroke:none"
             d="m 50.5508,64.9727 51.6792,0 0,-9.1016 20.192,13.4023 -20.192,13.4375 0,-9.0976 -51.6792,0 0,-8.6406" /></g></g></g></g></svg>