<?xml version="1.0" encoding="UTF-8" standalone="no"?>
<svg
   xmlns:dc="http://purl.org/dc/elements/1.1/"
   xmlns:cc="http://creativecommons.org/ns#"
   xmlns:rdf="http://www.w3.org/1999/02/22-rdf-syntax-ns#"
   xmlns:svg="http://www.w3.org/2000/svg"
   xmlns="http://www.w3.org/2000/svg"
   viewBox="0 0 46.450001 31.475"
   height="31.475"
   width="46.450001"
   xml:space="preserve"
   version="1.1"
   id="svg2"><metadata
     id="metadata8"><rdf:RDF><cc:Work
         rdf:about=""><dc:format>image/svg+xml</dc:format><dc:type
           rdf:resource="http://purl.org/dc/dcmitype/StillImage" /></cc:Work></rdf:RDF></metadata><defs
     id="defs6"><clipPath
       id="clipPath18"
       clipPathUnits="userSpaceOnUse"><path
         id="path20"
         d="m 0,1.81641 370,0 0,250 -370,0 0,-250 z" /></clipPath></defs><g
     transform="matrix(1.25,0,0,-1.25,0,31.475)"
     id="g10"><g
       transform="scale(0.1,0.1)"
       id="g12"><g
         id="g14"><g
           clip-path="url(#clipPath18)"
           id="g16"><path
             id="path22"
             style="fill:#087fbf;fill-opacity:1;fill-rule:nonzero;stroke:none"
             d="M 369.855,178.301 C 369.855,138.789 287.5,106.758 185.93,106.758 84.3477,106.758 2,138.789 2,178.301 L 2,73.5156 C 2,34.0234 84.3477,1.99219 185.93,1.99219 c 101.57,0 183.925,32.03121 183.925,71.52341 l 0,104.7854" /><path
             id="path24"
             style="fill:none;stroke:#ffffff;stroke-width:4;stroke-linecap:butt;stroke-linejoin:miter;stroke-miterlimit:4;stroke-dasharray:none;stroke-opacity:1"
             d="M 369.855,178.301 C 369.855,138.789 287.5,106.758 185.93,106.758 84.3477,106.758 2,138.789 2,178.301 L 2,73.5156 C 2,34.0234 84.3477,1.99219 185.93,1.99219 c 101.57,0 183.925,32.03121 183.925,71.52341 l 0,104.7854 z" /><path
             id="path26"
             style="fill:#087fbf;fill-opacity:1;fill-rule:nonzero;stroke:none"
             d="m 185.93,106.758 c 101.57,0 183.925,32.031 183.925,71.543 0,39.5 -82.355,71.523 -183.925,71.523 C 84.3477,249.824 2,217.801 2,178.301 2,138.789 84.3477,106.758 185.93,106.758" /><path
             id="path28"
             style="fill:none;stroke:#ffffff;stroke-width:4;stroke-linecap:butt;stroke-linejoin:miter;stroke-miterlimit:4;stroke-dasharray:none;stroke-opacity:1"
             d="m 185.93,106.758 c 101.57,0 183.925,32.031 183.925,71.543 0,39.5 -82.355,71.523 -183.925,71.523 C 84.3477,249.824 2,217.801 2,178.301 2,138.789 84.3477,106.758 185.93,106.758 Z" /><path
             id="path30"
             style="fill:#ffffff;fill-opacity:1;fill-rule:nonzero;stroke:none"
             d="m 143.926,206.27 15.183,-22.786 -57.429,-13.269 12.558,10.449 -88.7497,15.164 22.2656,16.692 85.6251,-14.512 10.547,8.262" /><path
             id="path32"
             style="fill:#ffffff;fill-opacity:1;fill-rule:nonzero;stroke:none"
             d="m 224.727,151.016 -10.372,23.484 51.797,10.352 -8.972,-8.047 86.328,-14.735 -20.727,-16.582 -85.801,16.114 -12.253,-10.586" /><path
             id="path34"
             style="fill:#ffffff;fill-opacity:1;fill-rule:nonzero;stroke:none"
             d="m 196.406,218.699 58.008,15.891 0.691,-24.875 -14.5,2.773 -28.32,-23.484 -27.012,3.934 29.219,22.98 -18.086,2.781" /><path
             id="path36"
             style="fill:#ffffff;fill-opacity:1;fill-rule:nonzero;stroke:none"
             d="m 171.543,129.609 -55.254,-10.351 -2.07,25.547 15.886,-3.457 30.415,25.957 26.902,-4.551 -32.449,-28.32 16.57,-4.825" /><path
             id="path38"
             style="fill:#ffffff;fill-opacity:1;fill-rule:nonzero;stroke:none"
             d="m 176.77,54.3164 53.574,0 0,-9.082 20.222,13.3984 -20.222,13.418 0,-9.082 -53.574,0 0,-8.6524" /><path
             id="path40"
             style="fill:#ffffff;fill-opacity:1;fill-rule:nonzero;stroke:none"
             d="m 175.527,69.1992 50.34,18.3203 3.117,-8.5351 14.414,19.5117 -23.593,5.6839 3.117,-8.5355 -50.356,-18.3203 2.961,-8.125" /><path
             id="path42"
             style="fill:#ffffff;fill-opacity:1;fill-rule:nonzero;stroke:none"
             d="m 175.527,48.418 50.34,-18.3203 3.117,8.5351 14.414,-19.5117 -23.593,-5.6836 3.117,8.5352 -50.356,18.3203 2.961,8.125" /><path
             id="path44"
             style="fill:#ffffff;fill-opacity:1;fill-rule:nonzero;stroke:none"
             d="m 93.6914,54.3164 51.6526,0 0,-9.082 20.222,13.3984 -20.222,13.418 0,-9.082 -51.6526,0 0,-8.6524" /></g></g></g></g></svg>