<?xml version="1.0" encoding="UTF-8" standalone="no"?>
<svg
   xmlns:dc="http://purl.org/dc/elements/1.1/"
   xmlns:cc="http://creativecommons.org/ns#"
   xmlns:rdf="http://www.w3.org/1999/02/22-rdf-syntax-ns#"
   xmlns:svg="http://www.w3.org/2000/svg"
   xmlns="http://www.w3.org/2000/svg"
   viewBox="0 0 46.25 32.5"
   height="32.5"
   width="46.25"
   xml:space="preserve"
   version="1.1"
   id="svg2"><metadata
     id="metadata8"><rdf:RDF><cc:Work
         rdf:about=""><dc:format>image/svg+xml</dc:format><dc:type
           rdf:resource="http://purl.org/dc/dcmitype/StillImage" /></cc:Work></rdf:RDF></metadata><defs
     id="defs6" /><g
     transform="matrix(1.25,0,0,-1.25,0,32.5)"
     id="g10"><g
       transform="scale(0.1,0.1)"
       id="g12"><path
         id="path14"
         style="fill:#087bbb;fill-opacity:1;fill-rule:nonzero;stroke:none"
         d="m 5.66016,16.4609 316.52,0 0,184.801 -316.52,0 0,-184.801 z" /><path
         id="path16"
         style="fill:none;stroke:#ffffff;stroke-width:4;stroke-linecap:butt;stroke-linejoin:miter;stroke-miterlimit:4;stroke-dasharray:none;stroke-opacity:1"
         d="m 5.66016,16.4609 316.52,0 0,184.801 -316.52,0 0,-184.801 z" /><path
         id="path18"
         style="fill:#087bbb;fill-opacity:1;fill-rule:nonzero;stroke:none"
         d="m 360.078,71.9219 -37.887,-55.4727 0,184.8128 37.887,45.929 0,-175.2691" /><path
         id="path20"
         style="fill:none;stroke:#ffffff;stroke-width:4;stroke-linecap:butt;stroke-linejoin:miter;stroke-miterlimit:4;stroke-dasharray:none;stroke-opacity:1"
         d="m 360.078,71.9219 -37.887,-55.4727 0,184.8128 37.887,45.929 0,-175.2691 z" /><path
         id="path22"
         style="fill:#087bbb;fill-opacity:1;fill-rule:nonzero;stroke:none"
         d="m 62.5391,247.191 297.5389,0 -37.887,-45.929 -316.53084,0 56.87894,45.929" /><path
         id="path24"
         style="fill:none;stroke:#ffffff;stroke-width:4;stroke-linecap:butt;stroke-linejoin:miter;stroke-miterlimit:4;stroke-dasharray:none;stroke-opacity:1"
         d="m 62.5391,247.191 297.5389,0 -37.887,-45.929 -316.53084,0 56.87894,45.929 z" /><path
         id="path26"
         style="fill:#ffffff;fill-opacity:1;fill-rule:nonzero;stroke:none"
         d="m 241.91,110.09 43.828,0 0.352,-9.809 22.39,14.258 -22.39,15 -0.352,-10.629 -44.218,0 0.39,-8.82" /><path
         id="path28"
         style="fill:#ffffff;fill-opacity:1;fill-rule:nonzero;stroke:none"
         d="m 279.34,35.9414 c -4.379,-0.9297 -8.719,1.8399 -9.692,6.2188 -0.976,4.3711 1.801,8.7109 6.211,9.6406 4.371,0.9805 8.711,-1.7891 9.653,-6.1719 0.968,-4.3672 -1.801,-8.707 -6.172,-9.6875" /><path
         id="path30"
         style="fill:none;stroke:#000000;stroke-width:3.79999995;stroke-linecap:butt;stroke-linejoin:miter;stroke-miterlimit:4;stroke-dasharray:none;stroke-opacity:1"
         d="m 279.34,35.9414 c -4.379,-0.9297 -8.719,1.8399 -9.692,6.2188 -0.976,4.3711 1.801,8.7109 6.211,9.6406 4.371,0.9805 8.711,-1.7891 9.653,-6.1719 0.968,-4.3672 -1.801,-8.707 -6.172,-9.6875 z" /><path
         id="path32"
         style="fill:#ffffff;fill-opacity:1;fill-rule:nonzero;stroke:none"
         d="m 293.281,36.2617 c 0,-6.5312 -5.312,-11.8828 -11.871,-11.8828 -6.57,0 -11.879,5.3516 -11.879,11.8828 0,6.5586 5.309,11.8672 11.879,11.8672 6.559,0 11.871,-5.3086 11.871,-11.8672" /><path
         id="path34"
         style="fill:none;stroke:#000000;stroke-width:3.79999995;stroke-linecap:butt;stroke-linejoin:miter;stroke-miterlimit:4;stroke-dasharray:none;stroke-opacity:1"
         d="m 293.281,36.2617 c 0,-6.5312 -5.312,-11.8828 -11.871,-11.8828 -6.57,0 -11.879,5.3516 -11.879,11.8828 0,6.5586 5.309,11.8672 11.879,11.8672 6.559,0 11.871,-5.3086 11.871,-11.8672 z" /><path
         id="path36"
         style="fill:#ffffff;fill-opacity:1;fill-rule:nonzero;stroke:none"
         d="M 290.699,46.1016 275.512,22.8984 208.398,66.8789 223.59,90.0898 290.699,46.1016" /><path
         id="path38"
         style="fill:none;stroke:#000000;stroke-width:3.79999995;stroke-linecap:butt;stroke-linejoin:miter;stroke-miterlimit:4;stroke-dasharray:none;stroke-opacity:1"
         d="M 290.699,46.1016 275.512,22.9023 208.398,66.8789 223.59,90.082 290.699,46.1016 Z" /><path
         id="path40"
         style="fill:#ffffff;fill-opacity:1;fill-rule:nonzero;stroke:none"
         d="M 141.211,188.641 C 100.23,179.621 74.2617,138.91 83.2813,97.9414 92.3008,56.9609 133.012,30.9805 173.98,40.0117 c 40.942,9.0196 66.961,49.7188 57.899,90.6993 -9.027,40.98 -49.688,66.949 -90.668,57.93" /><path
         id="path42"
         style="fill:none;stroke:#000000;stroke-width:3.79999995;stroke-linecap:butt;stroke-linejoin:miter;stroke-miterlimit:4;stroke-dasharray:none;stroke-opacity:1"
         d="M 141.211,188.641 C 100.23,179.621 74.2617,138.91 83.2813,97.9414 92.3008,56.9609 133.012,30.9805 173.98,40.0117 c 40.942,9.0196 66.961,49.7188 57.899,90.6993 -9.027,40.98 -49.688,66.949 -90.668,57.93 z" /><path
         id="path44"
         style="fill:#ffffff;fill-opacity:1;fill-rule:nonzero;stroke:none"
         d="m 80.6602,117.391 -22.5,0 0.3906,-8.832 24.4609,0" /><path
         id="path46"
         style="fill:#ffffff;fill-opacity:1;fill-rule:nonzero;stroke:none"
         d="M 97.8086,70.1602 65.7383,49.3398 70.8984,42.1211 103.828,63.5586" /><path
         id="path48"
         style="fill:#ffffff;fill-opacity:1;fill-rule:nonzero;stroke:none"
         d="m 96.7188,163.48 -28.129,18.25 -4.4882,-7.582 27.4179,-17.808" /><path
         id="path50"
         style="fill:#ffffff;fill-opacity:1;fill-rule:nonzero;stroke:none"
         d="m 171.68,50.3984 c -35.231,-7.7773 -70.231,14.5704 -78.0081,49.8396 -7.7735,35.242 14.5661,70.242 49.8081,78.012 35.27,7.77 70.27,-14.57 78,-49.84 7.782,-35.2381 -14.57,-70.2381 -49.8,-78.0116" /><path
         id="path52"
         style="fill:none;stroke:#000000;stroke-width:3.79999995;stroke-linecap:butt;stroke-linejoin:miter;stroke-miterlimit:4;stroke-dasharray:none;stroke-opacity:1"
         d="m 171.68,50.4023 c -35.231,-7.7812 -70.231,14.5704 -78.0081,49.8397 -7.7735,35.238 14.5661,70.238 49.8081,78.008 35.27,7.77 70.27,-14.57 78,-49.848 7.782,-35.2301 -14.57,-70.2301 -49.8,-77.9997 z" /><path
         id="path54"
         style="fill:#0b0b0b;fill-opacity:1;fill-rule:nonzero;stroke:none"
         d="m 132.109,164.34 0,-100.8205 61.563,43.1715 26.406,0 0,14.45 -26.406,0 -61.563,43.199" /><path
         id="path56"
         style="fill:#000000;fill-opacity:1;fill-rule:nonzero;stroke:none"
         d="m 81.6406,108.559 26.6794,0 0.352,-9.8402 22.379,14.2612 -22.379,15 -0.352,-10.589 -27.6598,0" /><path
         id="path58"
         style="fill:#000000;fill-opacity:1;fill-rule:nonzero;stroke:none"
         d="m 103.828,63.5586 8.793,5.7109 5.66,-8.0507 10.981,24.1406 -26.922,0.3906 5.469,-9.1016 -10.0004,-6.4882" /><path
         id="path60"
         style="fill:#000000;fill-opacity:1;fill-rule:nonzero;stroke:none"
         d="M 93.4414,156.34 107.77,147 l -5.04,-8.398 26.532,-0.231 -10.59,24.758 -6.094,-8.707 -13.9491,9.058" /></g></g></svg>