<?xml version="1.0" encoding="UTF-8" standalone="no"?>
<svg
   xmlns:dc="http://purl.org/dc/elements/1.1/"
   xmlns:cc="http://creativecommons.org/ns#"
   xmlns:rdf="http://www.w3.org/1999/02/22-rdf-syntax-ns#"
   xmlns:svg="http://www.w3.org/2000/svg"
   xmlns="http://www.w3.org/2000/svg"
   viewBox="0 0 38.912498 51.950001"
   height="51.950001"
   width="38.912498"
   xml:space="preserve"
   version="1.1"
   id="svg2"><metadata
     id="metadata8"><rdf:RDF><cc:Work
         rdf:about=""><dc:format>image/svg+xml</dc:format><dc:type
           rdf:resource="http://purl.org/dc/dcmitype/StillImage" /></cc:Work></rdf:RDF></metadata><defs
     id="defs6" /><g
     transform="matrix(1.25,0,0,-1.25,0,51.95)"
     id="g10"><g
       transform="scale(0.1,0.1)"
       id="g12"><path
         id="path14"
         style="fill:#087bbb;fill-opacity:1;fill-rule:nonzero;stroke:none"
         d="m 306.301,53.4102 0,357.4958 -51.348,-48.75 0,-357.49584 51.348,48.75004" /><path
         id="path16"
         style="fill:none;stroke:#ffffff;stroke-width:4;stroke-linecap:butt;stroke-linejoin:miter;stroke-miterlimit:4;stroke-dasharray:none;stroke-opacity:1"
         d="m 306.301,53.4102 0,357.4958 -51.348,-48.75 0,-357.49584 51.348,48.75004 z" /><path
         id="path18"
         style="fill:#087bbb;fill-opacity:1;fill-rule:nonzero;stroke:none"
         d="m 306.301,410.906 -51.348,-48.75 -248.99206,0 64.49216,48.75 235.8479,0" /><path
         id="path20"
         style="fill:none;stroke:#ffffff;stroke-width:4;stroke-linecap:butt;stroke-linejoin:miter;stroke-miterlimit:4;stroke-dasharray:none;stroke-opacity:1"
         d="m 306.301,410.906 -51.348,-48.75 -248.99206,0 64.49216,48.75 235.8479,0 z" /><path
         id="path22"
         style="fill:#087bbb;fill-opacity:1;fill-rule:nonzero;stroke:none"
         d="m 5.96094,115.91 248.992,0 0,246.246 -248.992,0 0,-246.246 z" /><path
         id="path24"
         style="fill:none;stroke:#ffffff;stroke-width:4;stroke-linecap:butt;stroke-linejoin:miter;stroke-miterlimit:4;stroke-dasharray:none;stroke-opacity:1"
         d="m 5.96094,115.91 248.992,0 0,246.246 -248.992,0 0,-246.246 z" /><path
         id="path26"
         style="fill:#087bbb;fill-opacity:1;fill-rule:nonzero;stroke:none"
         d="m 5.96094,4.66016 248.992,0 0,108.75 -248.992,0 0,-108.75 z" /><path
         id="path28"
         style="fill:none;stroke:#ffffff;stroke-width:4;stroke-linecap:butt;stroke-linejoin:miter;stroke-miterlimit:4;stroke-dasharray:none;stroke-opacity:1"
         d="m 5.96094,4.66016 248.992,0 0,108.75 -248.992,0 0,-108.75 z" /><path
         id="path30"
         style="fill:#ffffff;fill-opacity:1;fill-rule:nonzero;stroke:none"
         d="m 108.246,268.223 -37.871,37.89 6.4258,6.426 -23.7891,4.816 4.8164,-23.781 6.4258,6.426 37.8791,-37.891 6.113,6.114" /><path
         id="path32"
         style="fill:#ffffff;fill-opacity:1;fill-rule:nonzero;stroke:none"
         d="m 94.3984,243.43 -53.5742,0 0,9.09 -20.2226,-13.418 20.2226,-13.407 0,9.09 53.5742,0 0,8.645" /><path
         id="path34"
         style="fill:#ffffff;fill-opacity:1;fill-rule:nonzero;stroke:none"
         d="m 102.133,216.094 -37.8791,-37.891 -6.4258,6.426 -4.8164,-23.777 23.7891,4.812 -6.4258,6.426 37.871,37.89 -6.113,6.114" /><path
         id="path36"
         style="fill:#ffffff;fill-opacity:1;fill-rule:nonzero;stroke:none"
         d="m 126.938,202.246 0,-53.582 -9.083,0 13.399,-20.226 13.418,20.226 -9.082,0 0,53.582 -8.652,0" /><path
         id="path38"
         style="fill:#ffffff;fill-opacity:1;fill-rule:nonzero;stroke:none"
         d="m 126.938,274.426 0,53.582 -9.083,0 13.399,20.215 13.418,-20.215 -9.082,0 0,-53.582 -8.652,0" /><path
         id="path40"
         style="fill:#ffffff;fill-opacity:1;fill-rule:nonzero;stroke:none"
         d="m 154.273,209.98 37.887,-37.89 -6.426,-6.426 23.789,-4.812 -4.828,23.777 -6.422,-6.426 -37.886,37.891 -6.114,-6.114" /><path
         id="path42"
         style="fill:#ffffff;fill-opacity:1;fill-rule:nonzero;stroke:none"
         d="m 168.137,234.785 53.574,0 0,-9.09 20.215,13.407 -20.215,13.418 0,-9.09 -53.574,0 0,-8.645" /><path
         id="path44"
         style="fill:#ffffff;fill-opacity:1;fill-rule:nonzero;stroke:none"
         d="m 160.387,262.109 37.886,37.891 6.422,-6.426 4.828,23.781 -23.789,-4.816 6.426,-6.426 -37.887,-37.89 6.114,-6.114" /><path
         id="path46"
         style="fill:#ffffff;fill-opacity:1;fill-rule:nonzero;stroke:none"
         d="m 164.145,193.75 c 25.281,17.695 31.433,52.539 13.718,77.824 C 160.16,296.855 125.316,303 100.043,285.293 74.7695,267.598 68.6172,232.754 86.3242,207.473 104.027,182.188 138.871,176.055 164.145,193.75" /><path
         id="path48"
         style="fill:#ffffff;fill-opacity:1;fill-rule:nonzero;stroke:none"
         d="m 164.625,54.9609 53.57,0 0,-9.082 20.235,13.3984 -20.235,13.418 0,-9.082 -53.57,0 0,-8.6524" /><path
         id="path50"
         style="fill:#ffffff;fill-opacity:1;fill-rule:nonzero;stroke:none"
         d="m 163.383,69.8438 50.34,18.3203 3.125,-8.5352 14.414,19.5117 -23.594,5.6834 3.105,-8.5349 -50.347,-18.3203 2.957,-8.125" /><path
         id="path52"
         style="fill:#ffffff;fill-opacity:1;fill-rule:nonzero;stroke:none"
         d="m 163.383,49.0625 50.34,-18.3203 3.125,8.5351 14.414,-19.5117 -23.594,-5.6836 3.105,8.5352 -50.347,18.3203 2.957,8.125" /><path
         id="path54"
         style="fill:#ffffff;fill-opacity:1;fill-rule:nonzero;stroke:none"
         d="m 81.5469,54.9609 51.6521,0 0,-9.082 20.223,13.3984 -20.223,13.418 0,-9.082 -51.6521,0 0,-8.6524" /><path
         id="path56"
         style="fill:#000000;fill-opacity:1;fill-rule:nonzero;stroke:none"
         d="M 58.5977,99.1914 C 48.4375,99.1914 40.207,90.957 40.207,80.8008 l 0.0274,-16.336 c 0.1328,-1.3007 -1.1719,-2.6562 -3.125,-2.8515 -1.9375,-0.207 -4.0586,0.7617 -4.1875,2.0586 l -0.0117,16.2226 c 0,13.9453 11.3007,25.2225 25.2304,25.2225 13.9414,0 25.2305,-11.2772 25.2305,-25.2225 l 0,-17.6953 c -0.1445,-1.289 -1.5313,-2.1719 -3.5078,-2.1094 -1.793,0.0665 -3.4141,2.3907 -3.2813,3.6993 l 0.0743,17.0117 c 0,10.1562 -7.9063,18.3906 -18.0586,18.3906" /><path
         id="path58"
         style="fill:none;stroke:#ffffff;stroke-width:4;stroke-linecap:butt;stroke-linejoin:miter;stroke-miterlimit:4;stroke-dasharray:none;stroke-opacity:1"
         d="M 58.5977,99.1914 C 48.4375,99.1914 40.207,90.957 40.207,80.8008 l 0.0274,-16.336 c 0.1328,-1.3007 -1.1719,-2.6562 -3.125,-2.8515 -1.9375,-0.207 -4.0586,0.7617 -4.1875,2.0586 l -0.0117,16.2226 c 0,13.9453 11.3007,25.2225 25.2304,25.2225 13.9414,0 25.2305,-11.2772 25.2305,-25.2225 l 0,-17.6953 c -0.1445,-1.289 -1.5313,-2.1719 -3.5078,-2.1094 -1.793,0.0665 -3.4141,2.3907 -3.2813,3.6993 l 0.0743,17.0117 c 0,10.1562 -7.9063,18.3906 -18.0586,18.3906 z" /><path
         id="path60"
         style="fill:#000000;fill-opacity:1;fill-rule:nonzero;stroke:none"
         d="m 89.6055,18.2813 c 1.8554,0 3.3554,1.496 3.3554,3.371 l 0,41.1524 c 0,1.8555 -1.5,3.3594 -3.3554,3.3594 l -63.8438,0 c -1.8554,0 -3.3594,-1.5039 -3.3594,-3.3594 l 0,-41.1524 c 0,-1.875 1.504,-3.371 3.3594,-3.371 l 63.8438,0" /><path
         id="path62"
         style="fill:none;stroke:#ffffff;stroke-width:4;stroke-linecap:butt;stroke-linejoin:miter;stroke-miterlimit:4;stroke-dasharray:none;stroke-opacity:1"
         d="m 89.6055,18.2813 c 1.8554,0 3.3554,1.496 3.3554,3.371 l 0,41.1524 c 0,1.8555 -1.5,3.3594 -3.3554,3.3594 l -63.8438,0 c -1.8554,0 -3.3594,-1.5039 -3.3594,-3.3594 l 0,-41.1524 c 0,-1.875 1.504,-3.371 3.3594,-3.371 l 63.8438,0 z" /></g></g></svg>