<?xml version="1.0" encoding="UTF-8" standalone="no"?>
<svg
   xmlns:dc="http://purl.org/dc/elements/1.1/"
   xmlns:cc="http://creativecommons.org/ns#"
   xmlns:rdf="http://www.w3.org/1999/02/22-rdf-syntax-ns#"
   xmlns:svg="http://www.w3.org/2000/svg"
   xmlns="http://www.w3.org/2000/svg"
   viewBox="0 0 40 53.75"
   height="53.75"
   width="40"
   xml:space="preserve"
   version="1.1"
   id="svg2"><metadata
     id="metadata8"><rdf:RDF><cc:Work
         rdf:about=""><dc:format>image/svg+xml</dc:format><dc:type
           rdf:resource="http://purl.org/dc/dcmitype/StillImage" /></cc:Work></rdf:RDF></metadata><defs
     id="defs6" /><g
     transform="matrix(1.25,0,0,-1.25,0,53.75)"
     id="g10"><g
       transform="scale(0.1,0.1)"
       id="g12"><path
         id="path14"
         style="fill:#087bbb;fill-opacity:1;fill-rule:nonzero;stroke:none"
         d="m 306.289,63.4102 0,357.4998 -51.328,-48.75 0,-357.4998 51.328,48.75" /><path
         id="path16"
         style="fill:none;stroke:#ffffff;stroke-width:4;stroke-linecap:butt;stroke-linejoin:miter;stroke-miterlimit:4;stroke-dasharray:none;stroke-opacity:1"
         d="m 306.289,63.4102 0,357.4998 -51.328,-48.75 0,-357.4998 51.328,48.75 z" /><path
         id="path18"
         style="fill:#087bbb;fill-opacity:1;fill-rule:nonzero;stroke:none"
         d="m 306.289,420.91 -51.328,-48.75 -248.98053,0 64.48833,48.75 235.8202,0" /><path
         id="path20"
         style="fill:none;stroke:#ffffff;stroke-width:4;stroke-linecap:butt;stroke-linejoin:miter;stroke-miterlimit:4;stroke-dasharray:none;stroke-opacity:1"
         d="m 306.289,420.91 -51.328,-48.75 -248.98053,0 64.48833,48.75 235.8202,0 z" /><path
         id="path22"
         style="fill:#087bbb;fill-opacity:1;fill-rule:nonzero;stroke:none"
         d="m 5.98047,125.91 248.98,0 0,246.25 -248.98,0 0,-246.25 z" /><path
         id="path24"
         style="fill:none;stroke:#ffffff;stroke-width:4;stroke-linecap:butt;stroke-linejoin:miter;stroke-miterlimit:4;stroke-dasharray:none;stroke-opacity:1"
         d="m 5.98047,125.91 248.98,0 0,246.25 -248.98,0 0,-246.25 z" /><path
         id="path26"
         style="fill:#087bbb;fill-opacity:1;fill-rule:nonzero;stroke:none"
         d="m 5.98047,14.6602 248.98,0 0,108.75 -248.98,0 0,-108.75 z" /><path
         id="path28"
         style="fill:none;stroke:#ffffff;stroke-width:4;stroke-linecap:butt;stroke-linejoin:miter;stroke-miterlimit:4;stroke-dasharray:none;stroke-opacity:1"
         d="m 5.98047,14.6602 248.98,0 0,108.75 -248.98,0 0,-108.75 z" /><path
         id="path30"
         style="fill:#ffffff;fill-opacity:1;fill-rule:nonzero;stroke:none"
         d="m 108.238,278.219 -37.8474,37.89 6.4102,6.442 -23.7891,4.808 4.7969,-23.789 6.4531,6.442 37.8863,-37.891 6.09,6.098" /><path
         id="path32"
         style="fill:#ffffff;fill-opacity:1;fill-rule:nonzero;stroke:none"
         d="m 94.4102,253.41 -53.5899,0 0,9.102 -20.2305,-13.403 20.2305,-13.429 0,9.101 53.5899,0 0,8.629" /><path
         id="path34"
         style="fill:#ffffff;fill-opacity:1;fill-rule:nonzero;stroke:none"
         d="m 102.148,226.109 -37.8863,-37.89 -6.4531,6.402 -4.7969,-23.793 23.7891,4.852 -6.4102,6.398 37.8474,37.891 -6.09,6.14" /><path
         id="path36"
         style="fill:#ffffff;fill-opacity:1;fill-rule:nonzero;stroke:none"
         d="m 126.949,212.238 0,-53.59 -9.097,0 13.398,-20.199 13.441,20.199 -9.101,0 0,53.59 -8.641,0" /><path
         id="path38"
         style="fill:#ffffff;fill-opacity:1;fill-rule:nonzero;stroke:none"
         d="m 126.949,284.43 0,53.59 -9.097,0 13.398,20.199 13.441,-20.199 -9.101,0 0,-53.59 -8.641,0" /><path
         id="path40"
         style="fill:#ffffff;fill-opacity:1;fill-rule:nonzero;stroke:none"
         d="m 154.262,219.969 37.886,-37.891 -6.41,-6.398 23.793,-4.852 -4.84,23.793 -6.41,-6.402 -37.89,37.89 -6.129,-6.14" /><path
         id="path42"
         style="fill:#ffffff;fill-opacity:1;fill-rule:nonzero;stroke:none"
         d="m 168.121,244.781 53.598,0 0,-9.101 20.191,13.429 -20.191,13.403 0,-9.102 -53.598,0 0,-8.629" /><path
         id="path44"
         style="fill:#ffffff;fill-opacity:1;fill-rule:nonzero;stroke:none"
         d="m 160.391,272.121 37.89,37.891 6.41,-6.442 4.84,23.789 -23.793,-4.808 6.41,-6.442 -37.886,-37.89 6.129,-6.098" /><path
         id="path46"
         style="fill:#ffffff;fill-opacity:1;fill-rule:nonzero;stroke:none"
         d="m 164.141,203.762 c 25.269,17.699 31.449,52.539 13.711,77.808 -17.692,25.282 -52.543,31.41 -77.813,13.719 C 74.7695,277.59 68.6289,242.75 86.3281,217.469 104.02,192.199 138.871,186.07 164.141,203.762" /><path
         id="path48"
         style="fill:#ffffff;fill-opacity:1;fill-rule:nonzero;stroke:none"
         d="m 164.609,64.9688 53.59,0 0,-9.0977 20.242,13.3984 -20.242,13.4414 0,-9.1015 -53.59,0 0,-8.6406" /><path
         id="path50"
         style="fill:#ffffff;fill-opacity:1;fill-rule:nonzero;stroke:none"
         d="m 163.398,79.8594 50.313,18.3203 3.129,-8.5586 14.41,19.5269 -23.59,5.672 3.121,-8.519 -50.351,-18.3205 2.968,-8.1211" /><path
         id="path52"
         style="fill:#ffffff;fill-opacity:1;fill-rule:nonzero;stroke:none"
         d="m 163.398,59.0703 50.313,-18.3203 3.129,8.5195 14.41,-19.4882 -23.59,-5.711 3.121,8.5586 -50.351,18.3203 2.968,8.1211" /><path
         id="path54"
         style="fill:#ffffff;fill-opacity:1;fill-rule:nonzero;stroke:none"
         d="m 81.5586,64.9688 51.6404,0 0,-9.0977 20.242,13.3984 -20.242,13.4414 0,-9.1015 -51.6404,0 0,-8.6406" /><path
         id="path56"
         style="fill:#000000;fill-opacity:1;fill-rule:nonzero;stroke:none"
         d="m 58.5898,109.191 c -10.1484,0 -18.3906,-8.242 -18.3906,-18.4019 l 0.0313,-16.3203 c 0.1211,-1.2891 -1.1719,-2.6602 -3.1211,-2.8594 -1.9492,-0.1875 -4.0586,0.75 -4.1797,2.0703 l 0,16.2187 c 0,13.9416 11.2891,25.2306 25.1914,25.2306 13.9492,0 25.2383,-11.289 25.2383,-25.2306 l 0,-17.6992 c -0.1211,-1.289 -1.5196,-2.1875 -3.4805,-2.1094 -1.7891,0.0821 -3.4297,2.379 -3.2773,3.711 l 0.039,16.9883 c 0,10.1599 -7.8906,18.4019 -18.0508,18.4019" /><path
         id="path58"
         style="fill:none;stroke:#ffffff;stroke-width:4;stroke-linecap:butt;stroke-linejoin:miter;stroke-miterlimit:4;stroke-dasharray:none;stroke-opacity:1"
         d="m 58.5898,109.188 c -10.1484,0 -18.3906,-8.239 -18.3906,-18.3989 l 0.0313,-16.3203 c 0.1211,-1.2891 -1.1719,-2.6602 -3.1211,-2.8594 -1.9492,-0.1914 -4.0586,0.75 -4.1797,2.0703 l 0,16.2187 c 0,13.9416 11.2891,25.2306 25.1914,25.2306 13.9492,0 25.2383,-11.289 25.2383,-25.2306 l 0,-17.6992 c -0.1211,-1.289 -1.5196,-2.1914 -3.4805,-2.1094 -1.7891,0.0782 -3.4297,2.379 -3.2773,3.711 l 0.039,16.9883 c 0,10.1599 -7.8906,18.3989 -18.0508,18.3989 z" /><path
         id="path60"
         style="fill:#000000;fill-opacity:1;fill-rule:nonzero;stroke:none"
         d="m 89.6094,28.2891 c 1.8398,0 3.3594,1.4922 3.3594,3.3593 l 0,41.1407 c 0,1.8711 -1.5196,3.3593 -3.3594,3.3593 l -63.8281,0 c -1.8711,0 -3.3594,-1.4882 -3.3594,-3.3593 l 0,-41.1407 c 0,-1.8671 1.4883,-3.3593 3.3594,-3.3593 l 63.8281,0" /><path
         id="path62"
         style="fill:none;stroke:#ffffff;stroke-width:4;stroke-linecap:butt;stroke-linejoin:miter;stroke-miterlimit:4;stroke-dasharray:none;stroke-opacity:1"
         d="m 89.6094,28.2891 c 1.8398,0 3.3594,1.4882 3.3594,3.3593 l 0,41.1407 c 0,1.8711 -1.5196,3.3593 -3.3594,3.3593 l -63.8281,0 c -1.8711,0 -3.3594,-1.4882 -3.3594,-3.3593 l 0,-41.1407 c 0,-1.8711 1.4883,-3.3593 3.3594,-3.3593 l 63.8281,0 z" /></g></g></svg>