<svg xmlns="http://www.w3.org/2000/svg" viewBox="0 0 62.5 33.75" height="33.75" width="62.5"><path d="M.684 31.908h55.39V6.018H.684v25.89z" fill="#087bbb"/><path d="M.684 31.907h55.39V6.02H.684v25.888z" fill="none" stroke="#fff" stroke-width=".5"/><path d="M42.92 25.267a4.785 4.785 0 0 0 4.78-4.781 4.782 4.782 0 0 0-4.78-4.78 4.781 4.781 0 0 0 0 9.561zM42.92 15.706h8.301" fill="none" stroke="#fff" stroke-width="1.875"/><path d="M51.304 12.591v6.01l3.622-2.885-3.622-3.125" fill="#fff"/><path d="M51.304 12.59v6.012l3.622-2.886-3.622-3.125z" fill="none" stroke="#fff" stroke-width=".25"/><path d="M38.145 20.521V12.22" fill="none" stroke="#fff" stroke-width="1.875"/><path d="M35.092 12.181h6.012l-2.887-3.618-3.125 3.618" fill="#fff"/><path d="M35.092 12.181h6.012l-2.887-3.619-3.125 3.62z" fill="none" stroke="#fff" stroke-width=".25"/><path d="M43.038 25.257h-8.302" fill="none" stroke="#fff" stroke-width="1.875"/><path d="M34.619 28.386v-6.005l-3.623 2.885 3.623 3.12" fill="#fff"/><path d="M34.619 28.387v-6.006l-3.623 2.886 3.623 3.12z" fill="none" stroke="#fff" stroke-width=".25"/><path d="M13.569 25.267a4.782 4.782 0 0 1-4.78-4.781 4.779 4.779 0 1 1 9.556 0 4.781 4.781 0 0 1-4.776 4.781zM13.569 15.706h-8.3" fill="none" stroke="#fff" stroke-width="1.875"/><path d="M5.181 12.591v6.01l-3.619-2.885 3.62-3.125" fill="#fff"/><path d="M5.181 12.59v6.012l-3.619-2.886 3.62-3.125z" fill="none" stroke="#fff" stroke-width=".25"/><path d="M18.34 20.521V12.22" fill="none" stroke="#fff" stroke-width="1.875"/><path d="M21.391 12.181h-6.005l2.885-3.618 3.12 3.618" fill="#fff"/><path d="M21.391 12.181h-6.005l2.885-3.619 3.12 3.62z" fill="none" stroke="#fff" stroke-width=".25"/><path d="M13.447 25.257h8.306" fill="none" stroke="#fff" stroke-width="1.875"/><path d="M21.87 28.386v-6.005l3.624 2.885-3.624 3.12" fill="#fff"/><path d="M21.87 28.387v-6.006l3.624 2.886-3.624 3.12z" fill="none" stroke="#fff" stroke-width=".25"/><path d="M55.981 5.989H.712L7.53.549h54.078v25.719l-5.562 5.625V6.145l-.064-.156" fill="#087bbb"/><path d="M55.981 5.99H.712L7.53.55h54.078v25.717l-5.562 5.625V6.146l-.064-.156zM56.03 5.946L61.655.477" fill="none" stroke="#fff" stroke-width=".5"/><path d="M28.232 12.015v15" fill="none" stroke="#fff" stroke-width="1.25"/></svg>