<?xml version="1.0" encoding="UTF-8" standalone="no"?>
<svg
   xmlns:dc="http://purl.org/dc/elements/1.1/"
   xmlns:cc="http://creativecommons.org/ns#"
   xmlns:rdf="http://www.w3.org/1999/02/22-rdf-syntax-ns#"
   xmlns:svg="http://www.w3.org/2000/svg"
   xmlns="http://www.w3.org/2000/svg"
   viewBox="0 0 47.5 35"
   height="35"
   width="47.5"
   xml:space="preserve"
   version="1.1"
   id="svg2"><metadata
     id="metadata8"><rdf:RDF><cc:Work
         rdf:about=""><dc:format>image/svg+xml</dc:format><dc:type
           rdf:resource="http://purl.org/dc/dcmitype/StillImage" /></cc:Work></rdf:RDF></metadata><defs
     id="defs6" /><g
     transform="matrix(1.25,0,0,-1.25,0,35)"
     id="g10"><g
       transform="scale(0.1,0.1)"
       id="g12"><path
         id="path14"
         style="fill:#087bbb;fill-opacity:1;fill-rule:nonzero;stroke:none"
         d="m 7.14844,14.25 301.332,0 0,209.488 -301.332,0 0,-209.488 z" /><path
         id="path16"
         style="fill:none;stroke:#ffffff;stroke-width:4;stroke-linecap:butt;stroke-linejoin:miter;stroke-miterlimit:4;stroke-dasharray:none;stroke-opacity:1"
         d="m 7.14844,14.2539 301.332,0 0,209.488 -301.332,0 0,-209.488 z" /><path
         id="path18"
         style="fill:#087bbb;fill-opacity:1;fill-rule:nonzero;stroke:none"
         d="m 308.48,223.738 57.461,47.34 -281.0621,0 -77.73046,-47.34 301.33156,0" /><path
         id="path20"
         style="fill:none;stroke:#ffffff;stroke-width:4;stroke-linecap:butt;stroke-linejoin:miter;stroke-miterlimit:4;stroke-dasharray:none;stroke-opacity:1"
         d="m 308.48,223.742 57.461,47.34 -281.0621,0 -77.73046,-47.34 301.33156,0 z" /><path
         id="path22"
         style="fill:#087bbb;fill-opacity:1;fill-rule:nonzero;stroke:none"
         d="m 365.941,61.5508 0,209.5272 -57.461,-47.34 0,-209.488 57.461,47.3008" /><path
         id="path24"
         style="fill:none;stroke:#ffffff;stroke-width:4;stroke-linecap:butt;stroke-linejoin:miter;stroke-miterlimit:4;stroke-dasharray:none;stroke-opacity:1"
         d="m 365.941,61.5547 0,209.5273 -57.461,-47.34 0,-209.4881 57.461,47.3008 z" /><path
         id="path26"
         style="fill:none;stroke:#ffffff;stroke-width:10;stroke-linecap:round;stroke-linejoin:round;stroke-miterlimit:4;stroke-dasharray:none;stroke-opacity:1"
         d="m 26.6797,98.7813 90.0003,0 45,89.9997 62.5,-127.4997 22.5,37.5 45,0" /><path
         id="path28"
         style="fill:#ffffff;fill-opacity:1;fill-rule:nonzero;stroke:none"
         d="m 55.1211,24.6797 c 5.2695,0 9.5273,4.2891 9.5273,9.5703 0,5.2305 -4.2578,9.5313 -9.5273,9.5313 -5.2813,0 -9.5703,-4.3008 -9.5703,-9.5313 0,-5.2812 4.289,-9.5703 9.5703,-9.5703" /><path
         id="path30"
         style="fill:none;stroke:#000000;stroke-width:3.70000005;stroke-linecap:butt;stroke-linejoin:miter;stroke-miterlimit:4;stroke-dasharray:none;stroke-opacity:1"
         d="m 55.1211,24.6836 c 5.2695,0 9.5273,4.2891 9.5273,9.5703 0,5.2305 -4.2578,9.5274 -9.5273,9.5274 -5.2813,0 -9.5703,-4.2969 -9.5703,-9.5274 0,-5.2812 4.289,-9.5703 9.5703,-9.5703 z" /><path
         id="path32"
         style="fill:#ffffff;fill-opacity:1;fill-rule:nonzero;stroke:none"
         d="M 46.9102,44.3984 65.5898,26.1992 118.281,80.1484 99.6484,98.3516 46.9102,44.3984" /><path
         id="path34"
         style="fill:none;stroke:#000000;stroke-width:3.70000005;stroke-linecap:butt;stroke-linejoin:miter;stroke-miterlimit:4;stroke-dasharray:none;stroke-opacity:1"
         d="M 46.9102,44.4023 65.5898,26.2031 118.281,80.1445 99.6484,98.3516 46.9102,44.4023 Z" /><path
         id="path36"
         style="fill:#ffffff;fill-opacity:1;fill-rule:nonzero;stroke:none"
         d="m 92.1914,138.078 c 0,-39.4178 32.0706,-71.5272 71.5196,-71.5272 39.41,0 71.519,32.1094 71.519,71.5272 0,39.453 -32.109,71.524 -71.519,71.524 -39.449,0 -71.5196,-32.071 -71.5196,-71.524 z m 9.9996,0 c 0,33.942 27.579,61.524 61.52,61.524 33.91,0 61.519,-27.582 61.519,-61.524 0,-33.906 -27.609,-61.5272 -61.519,-61.5272 -33.941,0 -61.52,27.6212 -61.52,61.5272" /><path
         id="path38"
         style="fill:none;stroke:#000000;stroke-width:3.70000005;stroke-linecap:butt;stroke-linejoin:miter;stroke-miterlimit:4;stroke-dasharray:none;stroke-opacity:1"
         d="m 92.1914,138.074 c 0,-39.4099 32.0706,-71.5193 71.5196,-71.5193 39.41,0 71.519,32.1094 71.519,71.5193 0,39.457 -32.109,71.528 -71.519,71.528 -39.449,0 -71.5196,-32.071 -71.5196,-71.528 z m 9.9996,0 c 0,33.949 27.579,61.528 61.52,61.528 33.91,0 61.519,-27.579 61.519,-61.528 0,-33.902 -27.609,-61.5193 -61.519,-61.5193 -33.941,0 -61.52,27.6173 -61.52,61.5193 z" /><path
         id="path40"
         style="fill:#ffffff;fill-opacity:1;fill-rule:nonzero;stroke:none"
         d="m 83.7891,133.969 c 0,-39.4495 32.1089,-71.5198 71.5199,-71.5198 39.421,0 71.531,32.0703 71.531,71.5198 0,39.422 -32.11,71.531 -71.531,71.531 -39.411,0 -71.5199,-32.109 -71.5199,-71.531 z m 10,0 c 0,33.91 27.6209,61.531 61.5199,61.531 33.91,0 61.531,-27.621 61.531,-61.531 0,-33.938 -27.621,-61.5198 -61.531,-61.5198 -33.899,0 -61.5199,27.5818 -61.5199,61.5198" /><path
         id="path42"
         style="fill:none;stroke:#000000;stroke-width:3.70000005;stroke-linecap:butt;stroke-linejoin:miter;stroke-miterlimit:4;stroke-dasharray:none;stroke-opacity:1"
         d="m 83.7891,133.973 c 0,-39.4496 32.1089,-71.5199 71.5199,-71.5199 39.421,0 71.531,32.0703 71.531,71.5199 0,39.422 -32.11,71.531 -71.531,71.531 -39.411,0 -71.5199,-32.109 -71.5199,-71.531 z m 10,0 c 0,33.91 27.6209,61.531 61.5199,61.531 33.91,0 61.531,-27.621 61.531,-61.531 0,-33.942 -27.621,-61.5199 -61.531,-61.5199 -33.899,0 -61.5199,27.5779 -61.5199,61.5199 z" /></g></g></svg>