<?xml version="1.0" encoding="UTF-8" standalone="no"?>
<svg
   xmlns:dc="http://purl.org/dc/elements/1.1/"
   xmlns:cc="http://creativecommons.org/ns#"
   xmlns:rdf="http://www.w3.org/1999/02/22-rdf-syntax-ns#"
   xmlns:svg="http://www.w3.org/2000/svg"
   xmlns="http://www.w3.org/2000/svg"
   viewBox="0 0 46.4375 33.162498"
   height="33.162498"
   width="46.4375"
   xml:space="preserve"
   version="1.1"
   id="svg2"><metadata
     id="metadata8"><rdf:RDF><cc:Work
         rdf:about=""><dc:format>image/svg+xml</dc:format><dc:type
           rdf:resource="http://purl.org/dc/dcmitype/StillImage" /></cc:Work></rdf:RDF></metadata><defs
     id="defs6" /><g
     transform="matrix(1.25,0,0,-1.25,0,33.1625)"
     id="g10"><g
       transform="scale(0.1,0.1)"
       id="g12"><path
         id="path14"
         style="fill:#087bbb;fill-opacity:1;fill-rule:nonzero;stroke:none"
         d="m 7.13281,4.23828 301.348,0 0,209.512 -301.348,0 0,-209.512 z" /><path
         id="path16"
         style="fill:none;stroke:#ffffff;stroke-width:4;stroke-linecap:butt;stroke-linejoin:miter;stroke-miterlimit:4;stroke-dasharray:none;stroke-opacity:1"
         d="m 7.13281,4.23828 301.348,0 0,209.512 -301.348,0 0,-209.512 z" /><path
         id="path18"
         style="fill:#087bbb;fill-opacity:1;fill-rule:nonzero;stroke:none"
         d="m 308.48,213.75 57.454,47.316 -281.0668,0 -77.73439,-47.316 301.34719,0" /><path
         id="path20"
         style="fill:none;stroke:#ffffff;stroke-width:4;stroke-linecap:butt;stroke-linejoin:miter;stroke-miterlimit:4;stroke-dasharray:none;stroke-opacity:1"
         d="m 308.48,213.75 57.454,47.316 -281.0668,0 -77.73439,-47.316 301.34719,0 z" /><path
         id="path22"
         style="fill:#087bbb;fill-opacity:1;fill-rule:nonzero;stroke:none"
         d="m 365.934,51.543 0,209.523 -57.454,-47.316 0,-209.51172 57.454,47.30472" /><path
         id="path24"
         style="fill:none;stroke:#ffffff;stroke-width:4;stroke-linecap:butt;stroke-linejoin:miter;stroke-miterlimit:4;stroke-dasharray:none;stroke-opacity:1"
         d="m 365.934,51.543 0,209.523 -57.454,-47.316 0,-209.51172 57.454,47.30472 z" /><path
         id="path26"
         style="fill:none;stroke:#ffffff;stroke-width:10;stroke-linecap:round;stroke-linejoin:round;stroke-miterlimit:4;stroke-dasharray:none;stroke-opacity:1"
         d="m 26.6836,88.7813 90.0004,0 45,89.9997 62.5,-127.4997 22.5,37.5 45,0" /><path
         id="path28"
         style="fill:#ffffff;fill-opacity:1;fill-rule:nonzero;stroke:none"
         d="m 55.1016,14.6875 c 5.2734,0 9.5507,4.2773 9.5507,9.5508 0,5.2539 -4.2773,9.5312 -9.5507,9.5312 -5.2735,0 -9.5508,-4.2773 -9.5508,-9.5312 0,-5.2735 4.2773,-9.5508 9.5508,-9.5508" /><path
         id="path30"
         style="fill:none;stroke:#000000;stroke-width:3.70000005;stroke-linecap:butt;stroke-linejoin:miter;stroke-miterlimit:4;stroke-dasharray:none;stroke-opacity:1"
         d="m 55.1016,14.6875 c 5.2734,0 9.5507,4.2773 9.5507,9.5508 0,5.2539 -4.2773,9.5312 -9.5507,9.5312 -5.2735,0 -9.5508,-4.2773 -9.5508,-9.5312 0,-5.2735 4.2773,-9.5508 9.5508,-9.5508 z" /><path
         id="path32"
         style="fill:#ffffff;fill-opacity:1;fill-rule:nonzero;stroke:none"
         d="M 46.9297,34.4141 65.582,16.1914 118.285,70.1367 99.6328,88.3594 46.9297,34.4141" /><path
         id="path34"
         style="fill:none;stroke:#000000;stroke-width:3.70000005;stroke-linecap:butt;stroke-linejoin:miter;stroke-miterlimit:4;stroke-dasharray:none;stroke-opacity:1"
         d="M 46.9297,34.4141 65.582,16.1914 118.285,70.1367 99.6328,88.3594 46.9297,34.4141 Z" /><path
         id="path36"
         style="fill:#ffffff;fill-opacity:1;fill-rule:nonzero;stroke:none"
         d="m 92.1719,128.086 c 0,-39.4337 32.0901,-71.5235 71.5231,-71.5235 39.434,0 71.524,32.0898 71.524,71.5235 0,39.434 -32.09,71.523 -71.524,71.523 -39.433,0 -71.5231,-32.089 -71.5231,-71.523 z m 10.0001,0 c 0,33.926 27.598,61.523 61.523,61.523 33.918,0 61.524,-27.597 61.524,-61.523 0,-33.9258 -27.606,-61.5235 -61.524,-61.5235 -33.925,0 -61.523,27.5977 -61.523,61.5235" /><path
         id="path38"
         style="fill:none;stroke:#000000;stroke-width:3.70000005;stroke-linecap:butt;stroke-linejoin:miter;stroke-miterlimit:4;stroke-dasharray:none;stroke-opacity:1"
         d="m 92.1719,128.086 c 0,-39.4337 32.0901,-71.5235 71.5231,-71.5235 39.434,0 71.524,32.0898 71.524,71.5235 0,39.434 -32.09,71.523 -71.524,71.523 -39.433,0 -71.5231,-32.089 -71.5231,-71.523 z m 10.0001,0 c 0,33.926 27.598,61.523 61.523,61.523 33.918,0 61.524,-27.597 61.524,-61.523 0,-33.9258 -27.606,-61.5235 -61.524,-61.5235 -33.925,0 -61.523,27.5977 -61.523,61.5235 z" /><path
         id="path40"
         style="fill:#ffffff;fill-opacity:1;fill-rule:nonzero;stroke:none"
         d="m 83.793,123.965 c 0,-39.4337 32.09,-71.5236 71.523,-71.5236 39.426,0 71.516,32.0899 71.516,71.5236 0,39.433 -32.09,71.523 -71.516,71.523 -39.433,0 -71.523,-32.09 -71.523,-71.523 z m 10,0 c 0,33.926 27.598,61.523 61.523,61.523 33.918,0 61.516,-27.597 61.516,-61.523 0,-33.9259 -27.598,-61.5236 -61.516,-61.5236 -33.925,0 -61.523,27.5977 -61.523,61.5236" /><path
         id="path42"
         style="fill:none;stroke:#000000;stroke-width:3.70000005;stroke-linecap:butt;stroke-linejoin:miter;stroke-miterlimit:4;stroke-dasharray:none;stroke-opacity:1"
         d="m 83.793,123.965 c 0,-39.4337 32.09,-71.5236 71.523,-71.5236 39.426,0 71.516,32.0899 71.516,71.5236 0,39.433 -32.09,71.523 -71.516,71.523 -39.433,0 -71.523,-32.09 -71.523,-71.523 z m 10,0 c 0,33.926 27.598,61.523 61.523,61.523 33.918,0 61.516,-27.597 61.516,-61.523 0,-33.9259 -27.598,-61.5236 -61.516,-61.5236 -33.925,0 -61.523,27.5977 -61.523,61.5236 z" /></g></g></svg>