<svg xmlns="http://www.w3.org/2000/svg" viewBox="0 0 42.5 36.25" height="36.25" width="42.5"><defs><clipPath id="a"><path d="M0 10h340v280H0V10z"/></clipPath></defs><g clip-path="url(#a)" transform="matrix(.13 0 0 -.13 0 36.25)"><path d="M303.59 9.055l37.66 27.582-157.379 250.629-37.07-22.188" fill="#087fbf"/><path d="M303.59 9.055l37.66 27.582-157.379 250.629-37.07-22.188" fill="none" stroke="#fff" stroke-width="4"/><path d="M3.441 10.508l300.039-.203-157.39 252.812L3.441 10.507" fill="#087fbf"/><path d="M3.441 10.508l300.039-.203-157.39 252.812L3.441 10.507z" fill="none" stroke="#fff" stroke-width="4"/><path d="M146.25 88.086c11.988 0 21.719 9.719 21.719 21.711 0 12-9.731 21.719-21.719 21.719-11.988 0-21.719-9.719-21.719-21.719 0-11.992 9.731-21.711 21.719-21.711M146.25 167.457c11.988 0 21.719 9.731 21.719 21.719 0 11.992-9.731 21.722-21.719 21.722-11.988 0-21.719-9.73-21.719-21.722 0-11.988 9.731-21.719 21.719-21.719M204.801 29.527c12 0 21.719 9.73 21.719 21.72 0 11.991-9.719 21.718-21.719 21.718-11.992 0-21.711-9.727-21.711-21.719 0-11.988 9.719-21.719 21.711-21.719M88.32 30.156c11.989 0 21.719 9.719 21.719 21.75 0 12-9.73 21.719-21.719 21.719-11.992 0-21.718-9.719-21.718-21.719 0-12.031 9.726-21.75 21.718-21.75" fill="#fff"/><path d="M146.129 184.688v-73.602L86.91 51.906M146.129 107.887l54.383-54.371" fill="none" stroke="#fff" stroke-width="10"/></g></svg>