<?xml version="1.0" encoding="UTF-8" standalone="no"?>
<svg
   xmlns:dc="http://purl.org/dc/elements/1.1/"
   xmlns:cc="http://creativecommons.org/ns#"
   xmlns:rdf="http://www.w3.org/1999/02/22-rdf-syntax-ns#"
   xmlns:svg="http://www.w3.org/2000/svg"
   xmlns="http://www.w3.org/2000/svg"
   viewBox="0 0 31.25 42.5"
   height="42.5"
   width="31.25"
   xml:space="preserve"
   version="1.1"
   id="svg2"><metadata
     id="metadata8"><rdf:RDF><cc:Work
         rdf:about=""><dc:format>image/svg+xml</dc:format><dc:type
           rdf:resource="http://purl.org/dc/dcmitype/StillImage" /></cc:Work></rdf:RDF></metadata><defs
     id="defs6"><clipPath
       id="clipPath18"
       clipPathUnits="userSpaceOnUse"><path
         id="path20"
         d="M 0,9 0,338 250,338 250,9 0,9 Z" /></clipPath></defs><g
     transform="matrix(1.25,0,0,-1.25,0,42.5)"
     id="g10"><g
       transform="scale(0.1,0.1)"
       id="g12"><g
         id="g14"><g
           clip-path="url(#clipPath18)"
           id="g16"><path
             id="path22"
             style="fill:#087fbf;fill-opacity:1;fill-rule:nonzero;stroke:none"
             d="m 246.25,335.297 -41.09,-39.02 -199.17953,0 51.59763,39.02 188.6719,0" /><path
             id="path24"
             style="fill:none;stroke:#ffffff;stroke-width:4;stroke-linecap:butt;stroke-linejoin:miter;stroke-miterlimit:4;stroke-dasharray:none;stroke-opacity:1"
             d="m 246.25,335.297 -41.09,-39.02 -199.17953,0 51.59763,39.02 188.6719,0 z" /><path
             id="path26"
             style="fill:#087fbf;fill-opacity:1;fill-rule:nonzero;stroke:none"
             d="m 5.98047,99.2891 199.18,0 0,196.988 -199.18,0 0,-196.988 z" /><path
             id="path28"
             style="fill:#087fbf;fill-opacity:1;fill-rule:nonzero;stroke:none"
             d="m 5.98047,99.2891 199.18,0 0,196.988 -199.18,0 0,-196.988 z" /><path
             id="path30"
             style="fill:none;stroke:#ffffff;stroke-width:4;stroke-linecap:butt;stroke-linejoin:miter;stroke-miterlimit:4;stroke-dasharray:none;stroke-opacity:1"
             d="m 5.98047,99.2891 199.18,0 0,196.988 -199.18,0 0,-196.988 z" /><path
             id="path32"
             style="fill:none;stroke:#ffffff;stroke-width:4;stroke-linecap:butt;stroke-linejoin:miter;stroke-miterlimit:4;stroke-dasharray:none;stroke-opacity:1"
             d="m 5.98047,99.2891 199.18,0 0,196.988 -199.18,0 0,-196.988 z" /><path
             id="path34"
             style="fill:#087fbf;fill-opacity:1;fill-rule:nonzero;stroke:none"
             d="m 5.98047,15.2578 199.18,0 0,86.0195 -199.18,0 0,-86.0195 z" /><path
             id="path36"
             style="fill:none;stroke:#ffffff;stroke-width:4;stroke-linecap:butt;stroke-linejoin:miter;stroke-miterlimit:4;stroke-dasharray:none;stroke-opacity:1"
             d="m 5.98047,15.2578 199.18,0 0,86.0195 -199.18,0 0,-86.0195 z" /><path
             id="path38"
             style="fill:#087fbf;fill-opacity:1;fill-rule:nonzero;stroke:none"
             d="m 242.148,136.277 0,196.989 -38.168,-36.989 0,-196.9879 38.168,36.9879" /><path
             id="path40"
             style="fill:#087fbf;fill-opacity:1;fill-rule:nonzero;stroke:none"
             d="m 242.148,136.277 0,196.989 -38.168,-36.989 0,-196.9879 38.168,36.9879" /><path
             id="path42"
             style="fill:none;stroke:#ffffff;stroke-width:4;stroke-linecap:butt;stroke-linejoin:miter;stroke-miterlimit:4;stroke-dasharray:none;stroke-opacity:1"
             d="m 242.148,136.277 0,196.989 -38.168,-36.989 0,-196.9879 38.168,36.9879 z" /><path
             id="path44"
             style="fill:none;stroke:#ffffff;stroke-width:4;stroke-linecap:butt;stroke-linejoin:miter;stroke-miterlimit:4;stroke-dasharray:none;stroke-opacity:1"
             d="m 242.148,136.277 0,196.989 -38.168,-36.989 0,-196.9879 38.168,36.9879 z" /><path
             id="path46"
             style="fill:#087fbf;fill-opacity:1;fill-rule:nonzero;stroke:none"
             d="m 242.148,52.2969 0,85.9691 -38.168,-36.989 0,-86.0114 38.168,37.0313" /><path
             id="path48"
             style="fill:none;stroke:#ffffff;stroke-width:4;stroke-linecap:butt;stroke-linejoin:miter;stroke-miterlimit:4;stroke-dasharray:none;stroke-opacity:1"
             d="m 242.148,52.2969 0,85.9691 -38.168,-36.989 0,-86.0114 38.168,37.0313 z" /><path
             id="path50"
             style="fill:#ffffff;fill-opacity:1;fill-rule:nonzero;stroke:none"
             d="m 76.7188,203.078 -42.8477,0 0,11.09 -16.1719,-16.332 16.1719,-16.32 0,11.05 42.8477,0 0,10.512" /><path
             id="path52"
             style="fill:#ffffff;fill-opacity:1;fill-rule:nonzero;stroke:none"
             d="m 100.98,168.348 0,-42.852 -11.1011,0 16.3321,-16.207 16.328,16.207 -11.059,0 0,42.852 -10.5,0" /><path
             id="path54"
             style="fill:#ffffff;fill-opacity:1;fill-rule:nonzero;stroke:none"
             d="m 100.98,226.086 0,42.852 -11.1011,0 16.3321,16.21 16.328,-16.21 -11.059,0 0,-42.852 -10.5,0" /><path
             id="path56"
             style="fill:#ffffff;fill-opacity:1;fill-rule:nonzero;stroke:none"
             d="m 135.699,192.566 42.852,0 0,-11.05 16.219,16.32 -16.219,16.332 0,-11.09 -42.852,0 0,-10.512" /><path
             id="path58"
             style="fill:none;stroke:#ffffff;stroke-width:4;stroke-linecap:butt;stroke-linejoin:miter;stroke-miterlimit:4;stroke-dasharray:none;stroke-opacity:1"
             d="m 175.199,129.016 c -8.051,-8.52 -45.039,14.843 -82.5779,52.14 -37.543,37.313 -61.4492,74.422 -53.4023,82.93 8.0507,8.48 45.0429,-14.84 82.5822,-52.137 37.539,-37.312 61.437,-74.461 53.398,-82.933 z" /><path
             id="path60"
             style="fill:none;stroke:#ffffff;stroke-width:4;stroke-linecap:butt;stroke-linejoin:miter;stroke-miterlimit:4;stroke-dasharray:none;stroke-opacity:1"
             d="m 173.051,264.719 c 8.469,-8.051 -14.891,-45 -52.153,-82.543 -37.3082,-37.539 -74.4488,-61.449 -82.9292,-53.399 -8.5196,8.051 14.8398,45 52.1523,82.539 37.3009,37.543 74.4099,61.45 82.9299,53.403 z" /><path
             id="path62"
             style="fill:none;stroke:#ffffff;stroke-width:4;stroke-linecap:round;stroke-linejoin:round;stroke-miterlimit:4;stroke-dasharray:none;stroke-opacity:1"
             d="m 6.08984,288.777 0,-278.5114" /><path
             id="path64"
             style="fill:#bfbebe;fill-opacity:1;fill-rule:nonzero;stroke:none"
             d="m 123.789,172.918 c 14.18,9.918 17.621,29.418 7.691,43.598 -9.921,14.14 -29.41,17.57 -43.5894,7.652 -14.1406,-9.879 -17.582,-29.41 -7.6601,-43.551 9.8906,-14.179 29.4175,-17.621 43.5585,-7.699" /></g></g></g></g></svg>