<svg xmlns="http://www.w3.org/2000/svg" viewBox="0 0 31.25 42.5" height="42.5" width="31.25"><defs><clipPath id="a"><path d="M0 9v329h250V9H0z"/></clipPath></defs><g clip-path="url(#a)" transform="matrix(.13 0 0 -.13 0 42.5)"><path d="M246.25 335.297l-41.09-39.02H5.98l51.598 39.02H246.25" fill="#087fbf"/><path d="M246.25 335.297l-41.09-39.02H5.98l51.598 39.02H246.25z" fill="none" stroke="#fff" stroke-width="4"/><path d="M5.98 99.29h199.18v196.987H5.98V99.29z" fill="#087fbf"/><path d="M5.98 99.29h199.18v196.987H5.98V99.29z" fill="#087fbf"/><path d="M5.98 99.29h199.18v196.987H5.98V99.29z" fill="none" stroke="#fff" stroke-width="4"/><path d="M5.98 99.29h199.18v196.987H5.98V99.29z" fill="none" stroke="#fff" stroke-width="4"/><path d="M5.98 15.258h199.18v86.02H5.98v-86.02z" fill="#087fbf"/><path d="M5.98 15.258h199.18v86.02H5.98v-86.02z" fill="none" stroke="#fff" stroke-width="4"/><path d="M242.148 136.277v196.989l-38.168-36.989V99.289l38.168 36.988" fill="#087fbf"/><path d="M242.148 136.277v196.989l-38.168-36.989V99.289l38.168 36.988" fill="#087fbf"/><path d="M242.148 136.277v196.989l-38.168-36.989V99.289l38.168 36.988z" fill="none" stroke="#fff" stroke-width="4"/><path d="M242.148 136.277v196.989l-38.168-36.989V99.289l38.168 36.988z" fill="none" stroke="#fff" stroke-width="4"/><path d="M242.148 52.297v85.969l-38.168-36.989V15.266l38.168 37.03" fill="#087fbf"/><path d="M242.148 52.297v85.969l-38.168-36.989V15.266l38.168 37.03z" fill="none" stroke="#fff" stroke-width="4"/><path d="M76.719 203.078H33.87v11.09L17.7 197.836l16.172-16.32v11.05H76.72v10.512M100.98 168.348v-42.852H89.879l16.332-16.207 16.328 16.207H111.48v42.852h-10.5M100.98 226.086v42.852H89.879l16.332 16.21 16.328-16.21H111.48v-42.852h-10.5M135.699 192.566h42.852v-11.05l16.219 16.32-16.219 16.332v-11.09h-42.852v-10.512" fill="#fff"/><path d="M175.199 129.016c-8.051-8.52-45.039 14.843-82.578 52.14-37.543 37.313-61.45 74.422-53.402 82.93 8.05 8.48 45.043-14.84 82.582-52.137 37.539-37.312 61.437-74.461 53.398-82.933z" fill="none" stroke="#fff" stroke-width="4"/><path d="M173.051 264.719c8.469-8.051-14.891-45-52.153-82.543-37.308-37.539-74.449-61.449-82.93-53.399-8.519 8.051 14.84 45 52.153 82.539 37.301 37.543 74.41 61.45 82.93 53.403z" fill="none" stroke="#fff" stroke-width="4"/><path d="M6.09 288.777V10.266" fill="none" stroke="#fff" stroke-width="4" stroke-linecap="round" stroke-linejoin="round"/><path d="M123.789 172.918c14.18 9.918 17.621 29.418 7.691 43.598-9.921 14.14-29.41 17.57-43.59 7.652-14.14-9.879-17.581-29.41-7.66-43.551 9.891-14.179 29.418-17.621 43.559-7.699" fill="#bfbebe"/></g></svg>