<?xml version="1.0" encoding="UTF-8" standalone="no"?>
<svg
   xmlns:dc="http://purl.org/dc/elements/1.1/"
   xmlns:cc="http://creativecommons.org/ns#"
   xmlns:rdf="http://www.w3.org/1999/02/22-rdf-syntax-ns#"
   xmlns:svg="http://www.w3.org/2000/svg"
   xmlns="http://www.w3.org/2000/svg"
   viewBox="0 0 42.5 36.25"
   height="36.25"
   width="42.5"
   xml:space="preserve"
   version="1.1"
   id="svg2"><metadata
     id="metadata8"><rdf:RDF><cc:Work
         rdf:about=""><dc:format>image/svg+xml</dc:format><dc:type
           rdf:resource="http://purl.org/dc/dcmitype/StillImage" /></cc:Work></rdf:RDF></metadata><defs
     id="defs6"><clipPath
       id="clipPath18"
       clipPathUnits="userSpaceOnUse"><path
         id="path20"
         d="m 0,10 340,0 0,280 L 0,290 0,10 Z" /></clipPath></defs><g
     transform="matrix(1.25,0,0,-1.25,0,36.25)"
     id="g10"><g
       transform="scale(0.1,0.1)"
       id="g12"><g
         id="g14"><g
           clip-path="url(#clipPath18)"
           id="g16"><path
             id="path22"
             style="fill:#087fbf;fill-opacity:1;fill-rule:nonzero;stroke:none"
             d="M 303.59,9.05469 341.25,36.6367 183.871,287.266 146.801,265.078" /><path
             id="path24"
             style="fill:none;stroke:#ffffff;stroke-width:4;stroke-linecap:butt;stroke-linejoin:miter;stroke-miterlimit:4;stroke-dasharray:none;stroke-opacity:1"
             d="M 303.59,9.05469 341.25,36.6367 183.871,287.266 146.801,265.078" /><path
             id="path26"
             style="fill:#087fbf;fill-opacity:1;fill-rule:nonzero;stroke:none"
             d="M 3.44141,10.5078 303.48,10.3047 146.09,263.117 3.44141,10.5078" /><path
             id="path28"
             style="fill:none;stroke:#ffffff;stroke-width:4;stroke-linecap:butt;stroke-linejoin:miter;stroke-miterlimit:4;stroke-dasharray:none;stroke-opacity:1"
             d="M 3.44141,10.5078 303.48,10.3047 146.09,263.117 3.44141,10.5078 Z" /><path
             id="path30"
             style="fill:#ffffff;fill-opacity:1;fill-rule:nonzero;stroke:none"
             d="m 146.25,88.0859 c 11.988,0 21.719,9.7188 21.719,21.7111 0,12 -9.731,21.719 -21.719,21.719 -11.988,0 -21.719,-9.719 -21.719,-21.719 0,-11.9923 9.731,-21.7111 21.719,-21.7111" /><path
             id="path32"
             style="fill:#ffffff;fill-opacity:1;fill-rule:nonzero;stroke:none"
             d="m 146.25,167.457 c 11.988,0 21.719,9.731 21.719,21.719 0,11.992 -9.731,21.722 -21.719,21.722 -11.988,0 -21.719,-9.73 -21.719,-21.722 0,-11.988 9.731,-21.719 21.719,-21.719" /><path
             id="path34"
             style="fill:#ffffff;fill-opacity:1;fill-rule:nonzero;stroke:none"
             d="m 204.801,29.5273 c 12,0 21.719,9.7305 21.719,21.7188 0,11.9922 -9.719,21.7187 -21.719,21.7187 -11.992,0 -21.711,-9.7265 -21.711,-21.7187 0,-11.9883 9.719,-21.7188 21.711,-21.7188" /><path
             id="path36"
             style="fill:#ffffff;fill-opacity:1;fill-rule:nonzero;stroke:none"
             d="m 88.3203,30.1563 c 11.9887,0 21.7187,9.7187 21.7187,21.75 0,12 -9.73,21.7187 -21.7187,21.7187 -11.9922,0 -21.7187,-9.7187 -21.7187,-21.7187 0,-12.0313 9.7265,-21.75 21.7187,-21.75" /><path
             id="path38"
             style="fill:none;stroke:#ffffff;stroke-width:10;stroke-linecap:butt;stroke-linejoin:miter;stroke-miterlimit:4;stroke-dasharray:none;stroke-opacity:1"
             d="m 146.129,184.688 0,-73.602 -59.2188,-59.1797" /><path
             id="path40"
             style="fill:none;stroke:#ffffff;stroke-width:10;stroke-linecap:butt;stroke-linejoin:miter;stroke-miterlimit:4;stroke-dasharray:none;stroke-opacity:1"
             d="M 146.129,107.887 200.512,53.5156" /></g></g></g></g></svg>