<?xml version="1.0" encoding="UTF-8" standalone="no"?>
<svg
   xmlns:dc="http://purl.org/dc/elements/1.1/"
   xmlns:cc="http://creativecommons.org/ns#"
   xmlns:rdf="http://www.w3.org/1999/02/22-rdf-syntax-ns#"
   xmlns:svg="http://www.w3.org/2000/svg"
   xmlns="http://www.w3.org/2000/svg"
   viewBox="0 0 31.4 41.462502"
   height="41.462502"
   width="31.4"
   xml:space="preserve"
   version="1.1"
   id="svg2"><metadata
     id="metadata8"><rdf:RDF><cc:Work
         rdf:about=""><dc:format>image/svg+xml</dc:format><dc:type
           rdf:resource="http://purl.org/dc/dcmitype/StillImage" /></cc:Work></rdf:RDF></metadata><defs
     id="defs6"><clipPath
       id="clipPath18"
       clipPathUnits="userSpaceOnUse"><path
         id="path20"
         d="m 0,1.72266 250,0 0,330 -250,0 0,-330 z" /></clipPath></defs><g
     transform="matrix(1.25,0,0,-1.25,0,41.4625)"
     id="g10"><g
       transform="scale(0.1,0.1)"
       id="g12"><g
         id="g14"><g
           clip-path="url(#clipPath18)"
           id="g16"><path
             id="path22"
             style="fill:#087fbf;fill-opacity:1;fill-rule:nonzero;stroke:none"
             d="m 246.234,327.012 -41.074,-38.992 -199.19906,0 51.60156,38.992 188.6715,0" /><path
             id="path24"
             style="fill:none;stroke:#ffffff;stroke-width:4;stroke-linecap:butt;stroke-linejoin:miter;stroke-miterlimit:4;stroke-dasharray:none;stroke-opacity:1"
             d="m 246.234,327.012 -41.074,-38.992 -199.19906,0 51.60156,38.992 188.6715,0 z" /><path
             id="path26"
             style="fill:#087fbf;fill-opacity:1;fill-rule:nonzero;stroke:none"
             d="m 5.96094,91.0078 199.199,0 0,197.012 -199.199,0 0,-197.012 z" /><path
             id="path28"
             style="fill:#087fbf;fill-opacity:1;fill-rule:nonzero;stroke:none"
             d="m 5.96094,91.0078 199.199,0 0,197.012 -199.199,0 0,-197.012 z" /><path
             id="path30"
             style="fill:none;stroke:#ffffff;stroke-width:4;stroke-linecap:butt;stroke-linejoin:miter;stroke-miterlimit:4;stroke-dasharray:none;stroke-opacity:1"
             d="m 5.96094,91.0078 199.199,0 0,197.012 -199.199,0 0,-197.012 z" /><path
             id="path32"
             style="fill:none;stroke:#ffffff;stroke-width:4;stroke-linecap:butt;stroke-linejoin:miter;stroke-miterlimit:4;stroke-dasharray:none;stroke-opacity:1"
             d="m 5.96094,91.0078 199.199,0 0,197.012 -199.199,0 0,-197.012 z" /><path
             id="path34"
             style="fill:#087fbf;fill-opacity:1;fill-rule:nonzero;stroke:none"
             d="m 5.96094,7.00391 199.199,0 0,86.0156 -199.199,0 0,-86.0156 z" /><path
             id="path36"
             style="fill:none;stroke:#ffffff;stroke-width:4;stroke-linecap:butt;stroke-linejoin:miter;stroke-miterlimit:4;stroke-dasharray:none;stroke-opacity:1"
             d="m 5.96094,7.00391 199.199,0 0,86.0156 -199.199,0 0,-86.0156 z" /><path
             id="path38"
             style="fill:#087fbf;fill-opacity:1;fill-rule:nonzero;stroke:none"
             d="m 242.164,128.02 0,196.98 -38.195,-36.98 0,-197.0122 38.195,37.0122" /><path
             id="path40"
             style="fill:#087fbf;fill-opacity:1;fill-rule:nonzero;stroke:none"
             d="m 242.164,128.02 0,196.98 -38.195,-36.98 0,-197.0122 38.195,37.0122" /><path
             id="path42"
             style="fill:none;stroke:#ffffff;stroke-width:4;stroke-linecap:butt;stroke-linejoin:miter;stroke-miterlimit:4;stroke-dasharray:none;stroke-opacity:1"
             d="m 242.164,128.02 0,196.98 -38.195,-36.98 0,-197.0122 38.195,37.0122 z" /><path
             id="path44"
             style="fill:none;stroke:#ffffff;stroke-width:4;stroke-linecap:butt;stroke-linejoin:miter;stroke-miterlimit:4;stroke-dasharray:none;stroke-opacity:1"
             d="m 242.164,128.02 0,196.98 -38.195,-36.98 0,-197.0122 38.195,37.0122 z" /><path
             id="path46"
             style="fill:#087fbf;fill-opacity:1;fill-rule:nonzero;stroke:none"
             d="m 242.164,44.0156 0,85.9964 -38.195,-36.9925 0,-86.01559 38.195,37.01169" /><path
             id="path48"
             style="fill:none;stroke:#ffffff;stroke-width:4;stroke-linecap:butt;stroke-linejoin:miter;stroke-miterlimit:4;stroke-dasharray:none;stroke-opacity:1"
             d="m 242.164,44.0156 0,85.9964 -38.195,-36.9925 0,-86.01559 38.195,37.01169 z" /><path
             id="path50"
             style="fill:#ffffff;fill-opacity:1;fill-rule:nonzero;stroke:none"
             d="m 76.7227,194.816 -42.8711,0 0,11.075 -16.1719,-16.328 16.1719,-16.309 0,11.055 42.8711,0 0,10.507" /><path
             id="path52"
             style="fill:#ffffff;fill-opacity:1;fill-rule:nonzero;stroke:none"
             d="m 100.961,160.07 0,-42.851 -11.0743,0 16.3203,-16.192 16.328,16.192 -11.066,0 0,42.851 -10.508,0" /><path
             id="path54"
             style="fill:#ffffff;fill-opacity:1;fill-rule:nonzero;stroke:none"
             d="m 100.961,217.824 0,42.852 -11.0743,0 16.3203,16.191 16.328,-16.191 -11.066,0 0,-42.852 -10.508,0" /><path
             id="path56"
             style="fill:#ffffff;fill-opacity:1;fill-rule:nonzero;stroke:none"
             d="m 135.699,184.309 42.871,0 0,-11.055 16.18,16.309 -16.18,16.328 0,-11.075 -42.871,0 0,-10.507" /><path
             id="path58"
             style="fill:none;stroke:#ffffff;stroke-width:4;stroke-linecap:butt;stroke-linejoin:miter;stroke-miterlimit:4;stroke-dasharray:none;stroke-opacity:1"
             d="m 175.18,120.734 c -8.047,-8.496 -45.02,14.864 -82.5472,52.168 -37.5508,37.301 -61.4453,74.414 -53.3984,82.911 8.0469,8.496 45.0195,-14.844 82.5586,-52.153 37.539,-37.301 61.434,-74.43 53.387,-82.926 z" /><path
             id="path60"
             style="fill:none;stroke:#ffffff;stroke-width:4;stroke-linecap:butt;stroke-linejoin:miter;stroke-miterlimit:4;stroke-dasharray:none;stroke-opacity:1"
             d="m 173.043,256.457 c 8.496,-8.047 -14.863,-45.019 -52.16,-82.543 -37.3049,-37.555 -74.4221,-61.461 -82.9182,-53.418 -8.496,8.07 14.8516,45.024 52.1563,82.563 37.2969,37.539 74.4139,61.445 82.9219,53.398 z" /><path
             id="path62"
             style="fill:none;stroke:#ffffff;stroke-width:4;stroke-linecap:round;stroke-linejoin:round;stroke-miterlimit:4;stroke-dasharray:none;stroke-opacity:1"
             d="m 6.09766,280.52 0,-278.51609" /><path
             id="path64"
             style="fill:#bfbebe;fill-opacity:1;fill-rule:nonzero;stroke:none"
             d="m 123.793,164.66 c 14.16,9.903 17.598,29.414 7.687,43.574 -9.921,14.161 -29.425,17.594 -43.5855,7.676 -14.1601,-9.902 -17.5976,-29.414 -7.6757,-43.574 9.9023,-14.16 29.4142,-17.598 43.5742,-7.676" /></g></g></g></g></svg>