<?xml version="1.0" encoding="UTF-8" standalone="no"?>
<svg
   xmlns:dc="http://purl.org/dc/elements/1.1/"
   xmlns:cc="http://creativecommons.org/ns#"
   xmlns:rdf="http://www.w3.org/1999/02/22-rdf-syntax-ns#"
   xmlns:svg="http://www.w3.org/2000/svg"
   xmlns="http://www.w3.org/2000/svg"
   viewBox="0 0 31.737499 29.9125"
   height="29.9125"
   width="31.737499"
   xml:space="preserve"
   version="1.1"
   id="svg2"><metadata
     id="metadata8"><rdf:RDF><cc:Work
         rdf:about=""><dc:format>image/svg+xml</dc:format><dc:type
           rdf:resource="http://purl.org/dc/dcmitype/StillImage" /></cc:Work></rdf:RDF></metadata><defs
     id="defs6"><clipPath
       id="clipPath18"
       clipPathUnits="userSpaceOnUse"><path
         id="path20"
         d="M 0,0 0,239 250,239 250,0 0,0 Z" /></clipPath></defs><g
     transform="matrix(1.25,0,0,-1.25,0,29.9125)"
     id="g10"><g
       transform="scale(0.1,0.1)"
       id="g12"><g
         id="g14"><g
           clip-path="url(#clipPath18)"
           id="g16"><path
             id="path22"
             style="fill:#02709f;fill-opacity:1;fill-rule:nonzero;stroke:none"
             d="m 246.617,237.129 -6.027,-3.551 -233.56266,0 5.95706,3.692 233.6326,-0.141" /><path
             id="path24"
             style="fill:none;stroke:#ffffff;stroke-width:3.99993992;stroke-linecap:butt;stroke-linejoin:miter;stroke-miterlimit:4;stroke-dasharray:none;stroke-opacity:1"
             d="m 246.617,237.129 -6.027,-3.551 -233.56266,0 5.95706,3.692 233.6326,-0.141 z" /><path
             id="path26"
             style="fill:#02709f;fill-opacity:1;fill-rule:nonzero;stroke:none"
             d="m 246.664,5.54688 -0.047,231.58212 -6.027,-4.57 0,-232.559 6.074,5.54688" /><path
             id="path28"
             style="fill:#02709f;fill-opacity:1;fill-rule:nonzero;stroke:none"
             d="m 17.6406,0 222.9494,0 0,233.578 -233.56266,0 0,-222.953 L 17.6406,0" /><path
             id="path30"
             style="fill:none;stroke:#ffffff;stroke-width:3.99993992;stroke-linecap:butt;stroke-linejoin:miter;stroke-miterlimit:4;stroke-dasharray:none;stroke-opacity:1"
             d="m 222.895,233.578 0,-134.7421 c 0,-9.7968 -7.957,-7.957 -7.957,-7.957 l -183.145,0 c 0,0 -7.0703,-0.8906 -7.0703,7.0664 l 0,135.6327" /><path
             id="path32"
             style="fill:none;stroke:#ffffff;stroke-width:3.99993992;stroke-linecap:butt;stroke-linejoin:miter;stroke-miterlimit:4;stroke-dasharray:none;stroke-opacity:1"
             d="m 10.6211,209.684 10.625,0 0,10.6172 -10.625,0 0,-10.6172 z" /><path
             id="path34"
             style="fill:none;stroke:#ffffff;stroke-width:3.99993992;stroke-linecap:butt;stroke-linejoin:miter;stroke-miterlimit:4;stroke-dasharray:none;stroke-opacity:1"
             d="m 226.508,209.684 10.6172,0 0,10.6172 -10.6172,0 0,-10.6172 z" /><path
             id="path36"
             style="fill:#ffffff;fill-opacity:1;fill-rule:nonzero;stroke:none"
             d="m 185.113,68.1211 0,-65.60157 -138.906,0 0,66.48047 c 0,7.0898 7.9688,6.1992 7.9688,6.1992 l 123.8552,0 c 7.961,0 7.082,-7.0781 7.082,-7.0781" /><path
             id="path38"
             style="fill:none;stroke:#02709f;stroke-width:3.99993992;stroke-linecap:butt;stroke-linejoin:miter;stroke-miterlimit:4;stroke-dasharray:none;stroke-opacity:1"
             d="m 185.113,68.1211 0,-65.60157 -138.906,0 0,66.48047 c 0,7.0898 7.9688,6.1992 7.9688,6.1992 l 123.8552,0 c 7.961,0 7.082,-7.0781 7.082,-7.0781 z" /><path
             id="path40"
             style="fill:none;stroke:#ffffff;stroke-width:3.99993992;stroke-linecap:butt;stroke-linejoin:miter;stroke-miterlimit:4;stroke-dasharray:none;stroke-opacity:1"
             d="m 222.895,0 0,68.1211 c 0,0 0.89,7.0781 -7.079,7.0781 l -161.4644,0 c 0,0 -7.9688,0.8906 -7.9688,-6.1992 l 0,-64.70312" /><path
             id="path42"
             style="fill:#02709f;fill-opacity:1;fill-rule:nonzero;stroke:none"
             d="m 72.9336,7.07031 27.4336,0 0,63.7109 -27.4336,0 0,-63.7109 z" /><path
             id="path44"
             style="fill:none;stroke:#ffffff;stroke-width:3.99993992;stroke-linecap:butt;stroke-linejoin:miter;stroke-miterlimit:4;stroke-dasharray:none;stroke-opacity:1"
             d="m 72.9336,7.07031 27.4336,0 0,63.7109 -27.4336,0 0,-63.7109 z" /><path
             id="path46"
             style="fill:none;stroke:#ffffff;stroke-width:3.99993992;stroke-linecap:butt;stroke-linejoin:miter;stroke-miterlimit:4;stroke-dasharray:none;stroke-opacity:1"
             d="m 240.59,232.684 6.203,4.421" /></g></g></g></g></svg>