<svg xmlns="http://www.w3.org/2000/svg" viewBox="0 0 31.25 31.25" height="31.25" width="31.25"><defs><clipPath id="a"><path d="M0 10v239h250V10H0z"/></clipPath></defs><g clip-path="url(#a)" transform="matrix(.13 0 0 -.13 0 31.25)"><path d="M246.602 247.121l-6.012-3.551H7.031l5.938 3.711 233.633-.16" fill="#02709f"/><path d="M246.602 247.121l-6.012-3.551H7.031l5.938 3.711 233.633-.16z" fill="none" stroke="#fff" stroke-width="4"/><path d="M246.641 15.559l-.039 231.562-6.012-4.57V10.02l6.051 5.539M17.621 10.02H240.59v233.55H7.031V20.64l10.59-10.62" fill="#02709f"/><path d="M222.891 243.57V108.84c0-9.8-7.969-7.961-7.969-7.961H31.801s-7.07-.898-7.07 7.07V243.57M10.621 219.699h10.617v10.59H10.621v-10.59zM226.52 219.699h10.59v10.59h-10.59v-10.59z" fill="none" stroke="#fff" stroke-width="4"/><path d="M185.121 78.14V12.52H46.211V79c0 7.07 7.969 6.21 7.969 6.21h123.832c7.968 0 7.109-7.07 7.109-7.07" fill="#fff"/><path d="M185.121 78.14V12.52H46.211V79c0 7.07 7.969 6.21 7.969 6.21h123.832c7.968 0 7.109-7.07 7.109-7.07z" fill="none" stroke="#02709f" stroke-width="4"/><path d="M222.891 10.02v68.12s.898 7.07-7.071 7.07H54.34s-7.969.86-7.969-6.21V14.309" fill="none" stroke="#fff" stroke-width="4"/><path d="M72.93 17.09h27.422V80.8H72.93V17.09z" fill="#02709f"/><path d="M72.93 17.09h27.422V80.8H72.93V17.09zM240.59 242.672l6.211 4.418" fill="none" stroke="#fff" stroke-width="4"/></g></svg>