<?xml version="1.0" encoding="UTF-8" standalone="no"?>
<svg
   xmlns:dc="http://purl.org/dc/elements/1.1/"
   xmlns:cc="http://creativecommons.org/ns#"
   xmlns:rdf="http://www.w3.org/1999/02/22-rdf-syntax-ns#"
   xmlns:svg="http://www.w3.org/2000/svg"
   xmlns="http://www.w3.org/2000/svg"
   viewBox="0 0 55 41.25"
   height="41.25"
   width="55"
   xml:space="preserve"
   version="1.1"
   id="svg2"><metadata
     id="metadata8"><rdf:RDF><cc:Work
         rdf:about=""><dc:format>image/svg+xml</dc:format><dc:type
           rdf:resource="http://purl.org/dc/dcmitype/StillImage" /></cc:Work></rdf:RDF></metadata><defs
     id="defs6" /><g
     transform="matrix(1.25,0,0,-1.25,0,41.25)"
     id="g10"><g
       transform="scale(0.1,0.1)"
       id="g12"><path
         id="path14"
         style="fill:#087fbf;fill-opacity:1;fill-rule:nonzero;stroke:none"
         d="m 5.66016,16.4805 381.48,0 0,250.621 -381.48,0 0,-250.621 z" /><path
         id="path16"
         style="fill:none;stroke:#ffffff;stroke-width:4;stroke-linecap:butt;stroke-linejoin:miter;stroke-miterlimit:4;stroke-dasharray:none;stroke-opacity:1"
         d="m 5.66016,16.4766 381.48,0 0,250.621 -381.48,0 0,-250.621 z" /><path
         id="path18"
         style="fill:#087fbf;fill-opacity:1;fill-rule:nonzero;stroke:none"
         d="m 431.02,80.6484 -43.872,-64.1796 0,250.6332 43.872,53.199 0,-239.6526" /><path
         id="path20"
         style="fill:none;stroke:#ffffff;stroke-width:4;stroke-linecap:butt;stroke-linejoin:miter;stroke-miterlimit:4;stroke-dasharray:none;stroke-opacity:1"
         d="m 431.02,80.6563 -43.872,-64.1797 0,250.6214 43.872,53.199 0,-239.6407 z" /><path
         id="path22"
         style="fill:#087fbf;fill-opacity:1;fill-rule:nonzero;stroke:none"
         d="m 71.4805,320.301 359.5395,0 -43.872,-53.199 -381.48784,0 65.82034,53.199" /><path
         id="path24"
         style="fill:none;stroke:#ffffff;stroke-width:4;stroke-linecap:butt;stroke-linejoin:miter;stroke-miterlimit:4;stroke-dasharray:none;stroke-opacity:1"
         d="m 71.4805,320.297 359.5395,0 -43.872,-53.199 -381.48784,0 65.82034,53.199 z" /><path
         id="path26"
         style="fill:#ffffff;fill-opacity:1;fill-rule:nonzero;stroke:none"
         d="m 123.051,131.238 -63.8713,-0.078 0,10.16 63.8713,0.032 0.039,15.859 36.988,-20.93 -36.988,-20.941 -0.039,15.898" /><path
         id="path28"
         style="fill:#ffffff;fill-opacity:1;fill-rule:nonzero;stroke:none"
         d="m 255.98,131.238 -63.91,-0.078 0,10.16 63.91,0.032 0,15.859 36.989,-20.93 -36.989,-20.941 0,15.898" /><path
         id="path30"
         style="fill:#ffffff;fill-opacity:1;fill-rule:nonzero;stroke:none"
         d="m 244.922,182.41 -53.551,-34.84 -5.512,8.508 53.551,34.852 -8.629,13.281 42.457,2.609 -19.648,-37.73 -8.668,13.32" /><path
         id="path32"
         style="fill:#ffffff;fill-opacity:1;fill-rule:nonzero;stroke:none"
         d="M 244.922,90.8086 191.371,125.648 185.859,117.102 239.41,82.2891 230.781,68.9688 273.238,66.3906 253.59,104.09 244.922,90.8086" /><path
         id="path34"
         style="fill:none;stroke:#ffffff;stroke-width:4;stroke-linecap:butt;stroke-linejoin:miter;stroke-miterlimit:4;stroke-dasharray:none;stroke-opacity:1"
         d="M 141.949,218.855 C 80.3906,231.156 47.8906,199.637 53.0508,172.367 l 0.3906,-1.48 c -47.97265,-8.16 -35.3906,-64.77 -12.3906,-64.77 l 2.2695,0.078 C 37.5391,79.5977 93.5898,52.5273 124.84,66.0469 l 2.039,2.1797 c 11.133,-23.9024 50.742,-27.9297 89.883,-28.9024 33.937,-0.8594 53.75,1.793 68.277,16.6836 l 2.262,-0.6719 c 54.301,-4.3711 79.07,33.1719 67.187,60.1211 l 2.934,0.82 c 18.519,4.879 20.629,47.618 -11.133,53.95 l 0.621,1.679 c 13.789,27.809 -18.75,54.02 -63.898,49.102 l -3.133,1.637 c -32.301,29.261 -125.309,24.492 -136.09,-4.457 l -1.84,0.667 z" /></g></g></svg>