<?xml version="1.0" encoding="UTF-8" standalone="no"?>
<svg
   xmlns:dc="http://purl.org/dc/elements/1.1/"
   xmlns:cc="http://creativecommons.org/ns#"
   xmlns:rdf="http://www.w3.org/1999/02/22-rdf-syntax-ns#"
   xmlns:svg="http://www.w3.org/2000/svg"
   xmlns="http://www.w3.org/2000/svg"
   viewBox="0 0 54.412498 39.487499"
   height="39.487499"
   width="54.412498"
   xml:space="preserve"
   version="1.1"
   id="svg2"><metadata
     id="metadata8"><rdf:RDF><cc:Work
         rdf:about=""><dc:format>image/svg+xml</dc:format><dc:type
           rdf:resource="http://purl.org/dc/dcmitype/StillImage" /></cc:Work></rdf:RDF></metadata><defs
     id="defs6" /><g
     transform="matrix(1.25,0,0,-1.25,0,39.4875)"
     id="g10"><g
       transform="scale(0.1,0.1)"
       id="g12"><path
         id="path14"
         style="fill:#087fbf;fill-opacity:1;fill-rule:nonzero;stroke:none"
         d="m 5.65625,6.46484 381.484,0 0,250.637 -381.484,0 0,-250.637 z" /><path
         id="path16"
         style="fill:none;stroke:#ffffff;stroke-width:4;stroke-linecap:butt;stroke-linejoin:miter;stroke-miterlimit:4;stroke-dasharray:none;stroke-opacity:1"
         d="m 5.65625,6.46484 381.484,0 0,250.637 -381.484,0 0,-250.637 z" /><path
         id="path18"
         style="fill:#087fbf;fill-opacity:1;fill-rule:nonzero;stroke:none"
         d="m 431.023,70.6523 -43.882,-64.18746 0,250.63716 43.882,53.211 0,-239.6607" /><path
         id="path20"
         style="fill:none;stroke:#ffffff;stroke-width:4;stroke-linecap:butt;stroke-linejoin:miter;stroke-miterlimit:4;stroke-dasharray:none;stroke-opacity:1"
         d="m 431.023,70.6523 -43.882,-64.18746 0,250.63716 43.882,53.211 0,-239.6607 z" /><path
         id="path22"
         style="fill:#087fbf;fill-opacity:1;fill-rule:nonzero;stroke:none"
         d="m 71.4844,310.313 359.5386,0 -43.882,-53.211 -381.48475,0 65.82815,53.211" /><path
         id="path24"
         style="fill:none;stroke:#ffffff;stroke-width:4;stroke-linecap:butt;stroke-linejoin:miter;stroke-miterlimit:4;stroke-dasharray:none;stroke-opacity:1"
         d="m 71.4844,310.313 359.5386,0 -43.882,-53.211 -381.48475,0 65.82815,53.211 z" /><path
         id="path26"
         style="fill:#ffffff;fill-opacity:1;fill-rule:nonzero;stroke:none"
         d="m 123.059,121.223 -63.8793,-0.051 0,10.144 63.8793,0.043 0.027,15.86 37.004,-20.942 -37.004,-20.933 -0.027,15.879" /><path
         id="path28"
         style="fill:#ffffff;fill-opacity:1;fill-rule:nonzero;stroke:none"
         d="m 255.969,121.223 -63.891,-0.051 0,10.144 63.891,0.043 0.015,15.86 37.004,-20.942 -37.004,-20.933 -0.015,15.879" /><path
         id="path30"
         style="fill:#ffffff;fill-opacity:1;fill-rule:nonzero;stroke:none"
         d="m 244.941,172.395 -53.554,-34.829 -5.528,8.52 53.555,34.82 -8.613,13.313 42.429,2.59 -19.617,-37.715 -8.672,13.301" /><path
         id="path32"
         style="fill:#ffffff;fill-opacity:1;fill-rule:nonzero;stroke:none"
         d="m 244.941,80.7891 -53.554,34.8479 -5.528,-8.528 53.555,-34.8238 -8.613,-13.3086 42.429,-2.5899 -19.617,37.7149 -8.672,-13.3125" /><path
         id="path34"
         style="fill:none;stroke:#ffffff;stroke-width:4;stroke-linecap:butt;stroke-linejoin:miter;stroke-miterlimit:4;stroke-dasharray:none;stroke-opacity:1"
         d="M 141.953,208.859 C 80.3906,221.145 47.9023,189.617 53.0352,162.371 l 0.414,-1.48 C 5.48047,152.727 18.0469,96.1055 41.0664,96.1055 l 2.2656,0.0781 C 37.5313,69.5781 93.5938,42.5117 124.855,56.0234 l 2.008,2.211 c 11.145,-23.9258 50.742,-27.9297 89.907,-28.9258 33.933,-0.8633 53.738,1.8125 68.289,16.6992 l 2.246,-0.664 c 54.316,-4.3672 79.05,33.1523 67.175,60.0972 l 2.93,0.821 c 18.52,4.898 20.656,47.644 -11.109,53.965 l 0.601,1.66 c 13.801,27.808 -18.726,54.043 -63.875,49.109 l -3.132,1.633 c -32.305,29.258 -125.317,24.492 -136.086,-4.453 l -1.856,0.683 z" /></g></g></svg>