<?xml version="1.0" encoding="UTF-8" standalone="no"?>
<svg
   xmlns:dc="http://purl.org/dc/elements/1.1/"
   xmlns:cc="http://creativecommons.org/ns#"
   xmlns:rdf="http://www.w3.org/1999/02/22-rdf-syntax-ns#"
   xmlns:svg="http://www.w3.org/2000/svg"
   xmlns="http://www.w3.org/2000/svg"
   viewBox="0 0 22.0875 2.55"
   height="2.55"
   width="22.0875"
   xml:space="preserve"
   version="1.1"
   id="svg2"><metadata
     id="metadata8"><rdf:RDF><cc:Work
         rdf:about=""><dc:format>image/svg+xml</dc:format><dc:type
           rdf:resource="http://purl.org/dc/dcmitype/StillImage" /></cc:Work></rdf:RDF></metadata><defs
     id="defs6" /><g
     transform="matrix(1.25,0,0,-1.25,0,2.55)"
     id="g10"><g
       transform="scale(0.1,0.1)"
       id="g12"><path
         id="path14"
         style="fill:#02709f;fill-opacity:1;fill-rule:nonzero;stroke:none"
         d="M 10.1758,0 C 4.54297,0 0,4.47266 0,10.1758 0,15.8164 4.47266,20.418 10.1758,20.418 15.8086,20.418 20.418,15.8164 20.418,10.1758 20.418,4.53516 15.8086,0 10.1758,0" /><path
         id="path16"
         style="fill:#02709f;fill-opacity:1;fill-rule:nonzero;stroke:none"
         d="m 61.2969,0 c -5.6406,0 -10.1758,4.47266 -10.1758,10.1758 0,5.6406 4.4727,10.2422 10.1758,10.2422 5.6367,0 10.2344,-4.6016 10.2344,-10.2422 C 71.5313,4.53516 66.9336,0 61.2969,0" /><path
         id="path18"
         style="fill:#02709f;fill-opacity:1;fill-rule:nonzero;stroke:none"
         d="m 112.41,0 c -5.633,0 -10.176,4.47266 -10.176,10.1758 0,5.6406 4.477,10.2422 10.176,10.2422 5.649,0 10.254,-4.6016 10.254,-10.2422 C 122.664,4.53516 118.059,0 112.41,0" /><path
         id="path20"
         style="fill:#02709f;fill-opacity:1;fill-rule:nonzero;stroke:none"
         d="m 166.414,0 c -5.633,0 -10.176,4.47266 -10.176,10.1758 0,5.6406 4.477,10.2422 10.176,10.2422 5.649,0 10.246,-4.6016 10.246,-10.2422 C 176.66,4.53516 172.063,0 166.414,0" /></g></g></svg>