<?xml version="1.0" encoding="UTF-8" standalone="no"?>
<svg
   xmlns:dc="http://purl.org/dc/elements/1.1/"
   xmlns:cc="http://creativecommons.org/ns#"
   xmlns:rdf="http://www.w3.org/1999/02/22-rdf-syntax-ns#"
   xmlns:svg="http://www.w3.org/2000/svg"
   xmlns="http://www.w3.org/2000/svg"
   viewBox="0 0 22.5 5"
   height="5"
   width="22.5"
   xml:space="preserve"
   version="1.1"
   id="svg2"><metadata
     id="metadata8"><rdf:RDF><cc:Work
         rdf:about=""><dc:format>image/svg+xml</dc:format><dc:type
           rdf:resource="http://purl.org/dc/dcmitype/StillImage" /></cc:Work></rdf:RDF></metadata><defs
     id="defs6" /><g
     transform="matrix(1.25,0,0,-1.25,0,5)"
     id="g10"><g
       transform="scale(0.1,0.1)"
       id="g12"><path
         id="path14"
         style="fill:#02709f;fill-opacity:1;fill-rule:nonzero;stroke:none"
         d="M 10.1992,9.98828 C 4.53125,9.98828 0,14.4805 0,20.1797 c 0,5.6289 4.48828,10.2422 10.1992,10.2422 5.6211,0 10.2305,-4.6133 10.2305,-10.2422 0,-5.6602 -4.6094,-10.19142 -10.2305,-10.19142" /><path
         id="path16"
         style="fill:#02709f;fill-opacity:1;fill-rule:nonzero;stroke:none"
         d="m 61.2891,9.98828 c -5.6289,0 -10.1602,4.49222 -10.1602,10.19142 0,5.6289 4.4609,10.2422 10.1602,10.2422 5.6601,0 10.2304,-4.6133 10.2304,-10.2422 0,-5.6602 -4.5703,-10.19142 -10.2304,-10.19142" /><path
         id="path18"
         style="fill:#02709f;fill-opacity:1;fill-rule:nonzero;stroke:none"
         d="m 112.422,9.98828 c -5.66,0 -10.192,4.49222 -10.192,10.19142 0,5.6289 4.489,10.2422 10.192,10.2422 5.629,0 10.238,-4.6133 10.238,-10.2422 0,-5.6602 -4.609,-10.19142 -10.238,-10.19142" /><path
         id="path20"
         style="fill:#02709f;fill-opacity:1;fill-rule:nonzero;stroke:none"
         d="m 166.41,9.98828 c -5.629,0 -10.16,4.49222 -10.16,10.19142 0,5.6289 4.449,10.2422 10.16,10.2422 5.66,0 10.231,-4.6133 10.231,-10.2422 0,-5.6602 -4.571,-10.19142 -10.231,-10.19142" /></g></g></svg>