<?xml version="1.0" encoding="UTF-8" standalone="no"?>
<svg
   xmlns:dc="http://purl.org/dc/elements/1.1/"
   xmlns:cc="http://creativecommons.org/ns#"
   xmlns:rdf="http://www.w3.org/1999/02/22-rdf-syntax-ns#"
   xmlns:svg="http://www.w3.org/2000/svg"
   xmlns="http://www.w3.org/2000/svg"
   viewBox="0 0 60 32.5"
   height="32.5"
   width="60"
   xml:space="preserve"
   version="1.1"
   id="svg2"><metadata
     id="metadata8"><rdf:RDF><cc:Work
         rdf:about=""><dc:format>image/svg+xml</dc:format><dc:type
           rdf:resource="http://purl.org/dc/dcmitype/StillImage" /></cc:Work></rdf:RDF></metadata><defs
     id="defs6" /><g
     transform="matrix(1.25,0,0,-1.25,0,32.5)"
     id="g10"><g
       transform="scale(0.1,0.1)"
       id="g12"><path
         id="path14"
         style="fill:none;stroke:#91c2e3;stroke-width:15;stroke-linecap:butt;stroke-linejoin:miter;stroke-miterlimit:4;stroke-dasharray:none;stroke-opacity:1"
         d="m 239.34,38.1016 c 111.988,0 202.769,41.25 202.769,92.1524 0,50.891 -90.781,92.18 -202.769,92.18 -112,0 -202.7384,-41.289 -202.7384,-92.18 0,-50.9024 90.7384,-92.1524 202.7384,-92.1524 z" /><path
         id="path16"
         style="fill:none;stroke:#087fbf;stroke-width:15;stroke-linecap:butt;stroke-linejoin:miter;stroke-miterlimit:4;stroke-dasharray:none;stroke-opacity:1"
         d="m 239.34,17.5117 c 128.039,0 231.871,50.4727 231.871,112.7423 0,62.301 -103.832,112.769 -231.871,112.769 C 111.289,243.023 7.5,192.555 7.5,130.254 7.5,67.9844 111.289,17.5117 239.34,17.5117 Z" /><g
         transform="scale(10,10)"
         id="g18"><text
           id="text20"
           style="font-variant:normal;font-weight:bold;font-size:8px;font-family:Helvetica;-inkscape-font-specification:Helvetica-Bold;writing-mode:lr-tb;fill:#231f20;fill-opacity:1;fill-rule:nonzero;stroke:none"
           transform="matrix(1,0,0,-1,16.291,10.2379)"><tspan
             id="tspan22"
             y="0"
             x="0 5.776 11.112">DPT</tspan></text>
</g></g></g></svg>