<?xml version="1.0" encoding="UTF-8" standalone="no"?>
<svg
   xmlns:dc="http://purl.org/dc/elements/1.1/"
   xmlns:cc="http://creativecommons.org/ns#"
   xmlns:rdf="http://www.w3.org/1999/02/22-rdf-syntax-ns#"
   xmlns:svg="http://www.w3.org/2000/svg"
   xmlns="http://www.w3.org/2000/svg"
   viewBox="0 0 59.799999 30.0625"
   height="30.0625"
   width="59.799999"
   xml:space="preserve"
   version="1.1"
   id="svg2"><metadata
     id="metadata8"><rdf:RDF><cc:Work
         rdf:about=""><dc:format>image/svg+xml</dc:format><dc:type
           rdf:resource="http://purl.org/dc/dcmitype/StillImage" /></cc:Work></rdf:RDF></metadata><defs
     id="defs6" /><g
     transform="matrix(1.25,0,0,-1.25,0,30.0625)"
     id="g10"><g
       transform="scale(0.1,0.1)"
       id="g12"><path
         id="path14"
         style="fill:none;stroke:#91c2e3;stroke-width:15;stroke-linecap:butt;stroke-linejoin:miter;stroke-miterlimit:4;stroke-dasharray:none;stroke-opacity:1"
         d="m 239.188,28.0625 c 111.984,0 202.765,41.2578 202.765,92.1565 0,50.898 -90.781,92.168 -202.765,92.168 -111.981,0 -202.7622,-41.27 -202.7622,-92.168 0,-50.8987 90.7812,-92.1565 202.7622,-92.1565 z" /><path
         id="path16"
         style="fill:none;stroke:#087fbf;stroke-width:15;stroke-linecap:butt;stroke-linejoin:miter;stroke-miterlimit:4;stroke-dasharray:none;stroke-opacity:1"
         d="m 239.188,7.46094 c 128.046,0 231.859,50.48436 231.859,112.75806 0,62.277 -103.813,112.765 -231.859,112.765 C 111.145,232.984 7.34375,182.496 7.34375,120.219 7.34375,57.9453 111.145,7.46094 239.188,7.46094 Z" /><g
         transform="scale(10,10)"
         id="g18"><text
           id="text20"
           style="font-variant:normal;font-weight:bold;font-size:8px;font-family:Helvetica;-inkscape-font-specification:Helvetica-Bold;writing-mode:lr-tb;fill:#231f20;fill-opacity:1;fill-rule:nonzero;stroke:none"
           transform="matrix(1,0,0,-1,16.2754,9.23398)"><tspan
             id="tspan22"
             y="0"
             x="0 5.776 11.112">DPT</tspan></text>
</g></g></g></svg>