<svg xmlns="http://www.w3.org/2000/svg" viewBox="0 0 28.75 31.25" height="31.25" width="28.75"><path d="M27.989 7.422v12.744l-2.272 3.887V11.309l2.272-3.887" fill="#087fbf"/><path d="M27.989 7.422v12.744l-2.272 3.887V11.309l2.272-3.887z" fill="none" stroke="#fff" stroke-width=".5"/><path d="M6.065 3.926H.449L2.715.248H8.33l14.043 7.174h5.616l-2.272 3.887h-5.614" fill="#087fbf"/><path d="M6.065 3.926H.449L2.715.248H8.33l14.043 7.174h5.616l-2.272 3.887h-5.614" fill="none" stroke="#fff" stroke-width=".5"/><path d="M6.079 3.94l14.039 7.369h-.015 5.614v12.744h-5.614.015L6.078 31.18l-.013-.023H.449V3.91h5.616l.014.029" fill="#087fbf"/><path d="M6.079 3.94l14.039 7.369h-.015 5.614v12.744h-5.614.015L6.078 31.18l-.013-.023H.449V3.91h5.616l.014.029z" fill="none" stroke="#fff" stroke-width=".5"/><path d="M18.794 17.252v-1.647l4.946 2.013-4.946 2.04v-1.65H7.788v-.756h11.006M7.451 11.211v-.65h7.7l4.854 2.667.791-1.445 3.369 4.14-5.317-.59.79-1.447-4.462-2.607-7.725-.068M15.176 24.116l4.463-2.607-.791-1.445 5.317-.597-3.369 4.147-.791-1.447-4.854 2.662h-7.7v-.644l7.725-.069" fill="#fff"/></svg>