<?xml version="1.0" encoding="UTF-8" standalone="no"?>
<svg
   xmlns:dc="http://purl.org/dc/elements/1.1/"
   xmlns:cc="http://creativecommons.org/ns#"
   xmlns:rdf="http://www.w3.org/1999/02/22-rdf-syntax-ns#"
   xmlns:svg="http://www.w3.org/2000/svg"
   xmlns="http://www.w3.org/2000/svg"
   viewBox="0 0 28.424999 31.5"
   height="31.5"
   width="28.424999"
   xml:space="preserve"
   version="1.1"
   id="svg2"><metadata
     id="metadata8"><rdf:RDF><cc:Work
         rdf:about=""><dc:format>image/svg+xml</dc:format><dc:type
           rdf:resource="http://purl.org/dc/dcmitype/StillImage" /></cc:Work></rdf:RDF></metadata><defs
     id="defs6"><clipPath
       id="clipPath18"
       clipPathUnits="userSpaceOnUse"><path
         id="path20"
         d="M 0,2 0,252 227,252 227,2 0,2 Z" /></clipPath></defs><g
     transform="matrix(1.25,0,0,-1.25,0,31.5)"
     id="g10"><g
       transform="scale(0.1,0.1)"
       id="g12"><g
         id="g14"><g
           clip-path="url(#clipPath18)"
           id="g16"><path
             id="path22"
             style="fill:#087fbf;fill-opacity:1;fill-rule:nonzero;stroke:none"
             d="m 223.895,192.637 0,-101.9534 -18.141,-31.1133 0,101.9607 18.141,31.106" /><path
             id="path24"
             style="fill:none;stroke:#ffffff;stroke-width:4;stroke-linecap:butt;stroke-linejoin:miter;stroke-miterlimit:4;stroke-dasharray:none;stroke-opacity:1"
             d="m 223.895,192.637 0,-101.9534 -18.141,-31.1133 0,101.9607 18.141,31.106 z" /><path
             id="path26"
             style="fill:#087fbf;fill-opacity:1;fill-rule:nonzero;stroke:none"
             d="m 48.5078,220.605 -44.92577,0 18.14457,29.415 44.9257,0 112.3247,-57.383 44.918,0 -18.141,-31.106 -44.926,0" /><path
             id="path28"
             style="fill:none;stroke:#ffffff;stroke-width:4;stroke-linecap:butt;stroke-linejoin:miter;stroke-miterlimit:4;stroke-dasharray:none;stroke-opacity:1"
             d="m 48.5078,220.605 -44.92577,0 18.14457,29.415 44.9257,0 112.3247,-57.383 44.918,0 -18.141,-31.106 -44.926,0" /><path
             id="path30"
             style="fill:#087fbf;fill-opacity:1;fill-rule:nonzero;stroke:none"
             d="m 48.6328,220.477 112.3122,-58.946 -0.117,0 44.926,0 0,-101.9607 -44.926,0 0.117,0 -112.3122,-57.01171 -0.125,0.17579 -44.92577,0 0,217.97662 44.92577,0 0.125,-0.234" /><path
             id="path32"
             style="fill:none;stroke:#ffffff;stroke-width:4;stroke-linecap:butt;stroke-linejoin:miter;stroke-miterlimit:4;stroke-dasharray:none;stroke-opacity:1"
             d="m 48.6328,220.477 112.3122,-58.946 -0.117,0 44.926,0 0,-101.9607 -44.926,0 0.117,0 -112.3122,-57.01171 -0.125,0.17579 -44.92577,0 0,217.97662 44.92577,0 0.125,-0.234 z" /><path
             id="path34"
             style="fill:#ffffff;fill-opacity:1;fill-rule:nonzero;stroke:none"
             d="m 150.344,113.984 0,13.172 39.566,-16.101 -39.566,-16.3011 0,13.1761 -88.0393,0 0,6.054 88.0393,0" /><path
             id="path36"
             style="fill:#ffffff;fill-opacity:1;fill-rule:nonzero;stroke:none"
             d="m 59.5977,162.305 0,5.195 61.6013,0 38.828,-21.309 6.34,11.563 26.946,-33.156 -42.532,4.738 6.336,11.562 -35.703,20.868 -61.8163,0.539" /><path
             id="path38"
             style="fill:#ffffff;fill-opacity:1;fill-rule:nonzero;stroke:none"
             d="m 121.414,59.0703 35.703,20.8711 -6.336,11.5625 42.532,4.7461 -26.946,-33.1641 -6.34,11.5625 -38.828,-21.3007 -61.6013,0 0,5.1875 61.8163,0.5351" /></g></g></g></g></svg>