<?xml version="1.0" encoding="UTF-8" standalone="no"?>
<svg
   xmlns:dc="http://purl.org/dc/elements/1.1/"
   xmlns:cc="http://creativecommons.org/ns#"
   xmlns:rdf="http://www.w3.org/1999/02/22-rdf-syntax-ns#"
   xmlns:svg="http://www.w3.org/2000/svg"
   xmlns="http://www.w3.org/2000/svg"
   viewBox="0 0 28.75 31.25"
   height="31.25"
   width="28.75"
   xml:space="preserve"
   version="1.1"
   id="svg2"><metadata
     id="metadata8"><rdf:RDF><cc:Work
         rdf:about=""><dc:format>image/svg+xml</dc:format><dc:type
           rdf:resource="http://purl.org/dc/dcmitype/StillImage" /></cc:Work></rdf:RDF></metadata><defs
     id="defs6" /><g
     transform="matrix(1.25,0,0,-1.25,0,31.25)"
     id="g10"><g
       transform="scale(0.1,0.1)"
       id="g12"><path
         id="path14"
         style="fill:#087fbf;fill-opacity:1;fill-rule:nonzero;stroke:none"
         d="m 223.91,190.621 0,-101.9491 -18.172,-31.0938 0,101.9529 18.172,31.09" /><path
         id="path16"
         style="fill:none;stroke:#ffffff;stroke-width:4;stroke-linecap:butt;stroke-linejoin:miter;stroke-miterlimit:4;stroke-dasharray:none;stroke-opacity:1"
         d="m 223.91,190.621 0,-101.9491 -18.172,-31.0938 0,101.9529 18.172,31.09 z" /><path
         id="path18"
         style="fill:#087fbf;fill-opacity:1;fill-rule:nonzero;stroke:none"
         d="m 48.5195,218.59 -44.92966,0 18.12896,29.422 44.9218,0 112.3394,-57.391 44.93,0 -18.172,-31.09 -44.918,0" /><path
         id="path20"
         style="fill:none;stroke:#ffffff;stroke-width:4;stroke-linecap:butt;stroke-linejoin:miter;stroke-miterlimit:4;stroke-dasharray:none;stroke-opacity:1"
         d="m 48.5195,218.59 -44.92966,0 18.12896,29.422 44.9218,0 112.3394,-57.391 44.93,0 -18.172,-31.09 -44.918,0" /><path
         id="path22"
         style="fill:#087fbf;fill-opacity:1;fill-rule:nonzero;stroke:none"
         d="m 48.6289,218.48 112.3121,-58.949 -0.121,0 44.918,0 0,-101.9529 -44.918,0 0.121,0 -112.3121,-57.027319 -0.1094,0.1875 -44.92966,0 0,217.972719 44.92966,0 0.1094,-0.231" /><path
         id="path24"
         style="fill:none;stroke:#ffffff;stroke-width:4;stroke-linecap:butt;stroke-linejoin:miter;stroke-miterlimit:4;stroke-dasharray:none;stroke-opacity:1"
         d="m 48.6289,218.48 112.3121,-58.949 -0.121,0 44.918,0 0,-101.9529 -44.918,0 0.121,0 -112.3121,-57.027319 -0.1094,0.1875 -44.92966,0 0,217.972719 44.92966,0 0.1094,-0.231 z" /><path
         id="path26"
         style="fill:#ffffff;fill-opacity:1;fill-rule:nonzero;stroke:none"
         d="m 150.352,111.988 0,13.172 39.57,-16.101 -39.57,-16.3285 0,13.2105 -88.0512,0 0,6.047 88.0512,0" /><path
         id="path28"
         style="fill:#ffffff;fill-opacity:1;fill-rule:nonzero;stroke:none"
         d="m 59.6094,160.309 0,5.203 61.6016,0 38.828,-21.332 6.332,11.558 26.949,-33.117 -42.539,4.719 6.328,11.57 -35.699,20.86 -61.8006,0.539" /><path
         id="path30"
         style="fill:#ffffff;fill-opacity:1;fill-rule:nonzero;stroke:none"
         d="m 121.41,57.0703 35.699,20.8594 -6.328,11.5586 42.539,4.7734 -26.949,-33.1719 -6.332,11.5704 -38.828,-21.2891 -61.6016,0 0,5.1484 61.8006,0.5508" /></g></g></svg>