<?xml version="1.0" encoding="UTF-8" standalone="no"?>
<svg
   xmlns:dc="http://purl.org/dc/elements/1.1/"
   xmlns:cc="http://creativecommons.org/ns#"
   xmlns:rdf="http://www.w3.org/1999/02/22-rdf-syntax-ns#"
   xmlns:svg="http://www.w3.org/2000/svg"
   xmlns="http://www.w3.org/2000/svg"
   viewBox="0 0 46.099998 32.599998"
   height="32.599998"
   width="46.099998"
   xml:space="preserve"
   version="1.1"
   id="svg2"><metadata
     id="metadata8"><rdf:RDF><cc:Work
         rdf:about=""><dc:format>image/svg+xml</dc:format><dc:type
           rdf:resource="http://purl.org/dc/dcmitype/StillImage" /></cc:Work></rdf:RDF></metadata><defs
     id="defs6" /><g
     transform="matrix(1.25,0,0,-1.25,0,32.6)"
     id="g10"><g
       transform="scale(0.1,0.1)"
       id="g12"><path
         id="path14"
         style="fill:none;stroke:#ffffff;stroke-width:4.49996996;stroke-linecap:round;stroke-linejoin:miter;stroke-miterlimit:1;stroke-dasharray:none;stroke-opacity:1"
         d="m 284.133,52.9961 c 0,0 -19.57,-50.3086 -43.11,0.1406 -23.496,50.4293 -43.101,0.1172 -43.101,0.1172 0,0 -19.559,-50.35156 -43.063,0.0977 -23.496,50.4254 -43,-0.3164 -43,-0.3164 0,0 -19.5192,-50.3477 -43.0348,0.1015 -23.5156,50.4293 -43.0078,0.1524 -43.0078,0.1524" /><path
         id="path16"
         style="fill:none;stroke:#ffffff;stroke-width:8.99993992;stroke-linecap:round;stroke-linejoin:miter;stroke-miterlimit:1;stroke-dasharray:none;stroke-opacity:1"
         d="m 25.8164,52.9961 c 0,0 19.5703,-50.3086 43.0859,0.1406 23.5157,50.4293 43.1137,0.1172 43.1137,0.1172 0,0 19.562,-50.35156 43.058,0.0977 23.504,50.4254 43,-0.3164 43,-0.3164 0,0 19.516,-50.3477 43.047,0.1015 23.496,50.4293 43.012,0.1524 43.012,0.1524" /><path
         id="path18"
         style="fill:none;stroke:#000000;stroke-width:4.49996996;stroke-linecap:round;stroke-linejoin:miter;stroke-miterlimit:1;stroke-dasharray:none;stroke-opacity:1"
         d="m 288.66,52.9961 c 0,0 -19.566,-50.3086 -43.101,0.1406 -23.496,50.4293 -43.11,0.1172 -43.11,0.1172 0,0 -19.551,-50.35156 -43.058,0.0977 -23.496,50.4254 -43,-0.3164 -43,-0.3164 0,0 -19.5199,-50.3477 -43.0355,0.1015 -23.5157,50.4293 -43.0078,0.1367 -43.0078,0.1367" /><path
         id="path20"
         style="fill:none;stroke:#000000;stroke-width:8.99993992;stroke-linecap:round;stroke-linejoin:miter;stroke-miterlimit:1;stroke-dasharray:none;stroke-opacity:1"
         d="m 30.3477,52.9961 c 0,0 19.5703,-50.3086 43.0859,0.1406 23.5156,50.4293 43.1134,0.1172 43.1134,0.1172 0,0 19.562,-50.35156 43.058,0.0977 23.508,50.4254 43,-0.3164 43,-0.3164 0,0 19.512,-50.3477 43.047,0.1015 23.496,50.4293 43.008,0.1367 43.008,0.1367" /><path
         id="path22"
         style="fill:none;stroke:#ffffff;stroke-width:4.49996996;stroke-linecap:round;stroke-linejoin:miter;stroke-miterlimit:1;stroke-dasharray:none;stroke-opacity:1"
         d="m 284.133,52.9961 c 0,0 -19.57,-50.3086 -43.11,0.1406 -23.496,50.4293 -43.101,0.1172 -43.101,0.1172 0,0 -19.559,-50.35156 -43.063,0.0977 -23.496,50.4254 -43,-0.3164 -43,-0.3164 0,0 -19.5192,-50.3477 -43.0348,0.1015 -23.5156,50.4293 -43.0078,0.1524 -43.0078,0.1524" /><path
         id="path24"
         style="fill:none;stroke:#ffffff;stroke-width:8.99993992;stroke-linecap:round;stroke-linejoin:miter;stroke-miterlimit:1;stroke-dasharray:none;stroke-opacity:1"
         d="m 25.8164,52.9961 c 0,0 19.5703,-50.3086 43.0859,0.1406 23.5157,50.4293 43.1137,0.1172 43.1137,0.1172 0,0 19.562,-50.35156 43.058,0.0977 23.504,50.4254 43,-0.3164 43,-0.3164 0,0 19.516,-50.3477 43.047,0.1015 23.496,50.4293 43.012,0.1524 43.012,0.1524" /><path
         id="path26"
         style="fill:#02709f;fill-opacity:1;fill-rule:nonzero;stroke:none"
         d="m 6.07031,199.277 76.93359,56.868 281.0511,0 -55.942,-56.868 -302.04269,0" /><path
         id="path28"
         style="fill:none;stroke:#ffffff;stroke-width:3.99993992;stroke-linecap:butt;stroke-linejoin:miter;stroke-miterlimit:4;stroke-dasharray:none;stroke-opacity:1"
         d="m 6.07031,199.277 76.93359,56.868 281.0511,0 -55.942,-56.868 -302.04269,0 z" /><path
         id="path30"
         style="fill:#02709f;fill-opacity:1;fill-rule:nonzero;stroke:none"
         d="m 308.113,4.87109 55.942,56.66021 0,194.4377 -55.942,-56.692 0,-194.40591" /><path
         id="path32"
         style="fill:none;stroke:#ffffff;stroke-width:3.99993992;stroke-linecap:butt;stroke-linejoin:miter;stroke-miterlimit:4;stroke-dasharray:none;stroke-opacity:1"
         d="m 308.113,4.87109 55.942,56.66021 0,194.4377 -55.942,-56.692 0,-194.40591 z" /><path
         id="path34"
         style="fill:#02709f;fill-opacity:1;fill-rule:nonzero;stroke:none"
         d="m 6.48828,4.77734 301.625,0 0,194.5 -301.625,0 0,-194.5 z" /><path
         id="path36"
         style="fill:none;stroke:#ffffff;stroke-width:3.99993992;stroke-linecap:butt;stroke-linejoin:miter;stroke-miterlimit:4;stroke-dasharray:none;stroke-opacity:1"
         d="m 6.48828,4.77734 301.625,0 0,194.5 -301.625,0 0,-194.5 z" /><path
         id="path38"
         style="fill:none;stroke:#ffffff;stroke-width:4.49996996;stroke-linecap:round;stroke-linejoin:miter;stroke-miterlimit:1;stroke-dasharray:none;stroke-opacity:1"
         d="m 284.133,149.563 c 0,0 -19.57,-50.3169 -43.11,0.156 -23.496,50.418 -43.101,0.097 -43.101,0.097 0,0 -19.559,-50.3512 -43.063,0.094 -23.496,50.442 -43,-0.308 -43,-0.308 0,0 -19.5192,-50.3559 -43.0348,0.117 -23.5156,50.418 -43.0078,0.136 -43.0078,0.136" /><path
         id="path40"
         style="fill:none;stroke:#ffffff;stroke-width:8.99993992;stroke-linecap:round;stroke-linejoin:miter;stroke-miterlimit:1;stroke-dasharray:none;stroke-opacity:1"
         d="m 25.8164,149.563 c 0,0 19.5703,-50.3169 43.0859,0.156 23.5157,50.418 43.1137,0.097 43.1137,0.097 0,0 19.562,-50.3512 43.058,0.094 23.504,50.442 43,-0.308 43,-0.308 0,0 19.516,-50.3559 43.047,0.117 23.496,50.418 43.012,0.136 43.012,0.136" /><path
         id="path42"
         style="fill:none;stroke:#000000;stroke-width:4.49996996;stroke-linecap:round;stroke-linejoin:miter;stroke-miterlimit:1;stroke-dasharray:none;stroke-opacity:1"
         d="m 288.66,149.563 c 0,0 -19.566,-50.3169 -43.101,0.156 -23.496,50.418 -43.11,0.097 -43.11,0.097 0,0 -19.551,-50.3512 -43.058,0.094 -23.496,50.442 -43,-0.308 -43,-0.308 0,0 -19.5199,-50.3559 -43.0355,0.117 -23.5157,50.418 -43.0078,0.136 -43.0078,0.136" /><path
         id="path44"
         style="fill:none;stroke:#000000;stroke-width:8.99993992;stroke-linecap:round;stroke-linejoin:miter;stroke-miterlimit:1;stroke-dasharray:none;stroke-opacity:1"
         d="m 30.3477,149.563 c 0,0 19.5703,-50.3169 43.0859,0.156 23.5156,50.418 43.1134,0.097 43.1134,0.097 0,0 19.562,-50.3512 43.058,0.094 23.508,50.442 43,-0.308 43,-0.308 0,0 19.512,-50.3559 43.047,0.117 23.496,50.418 43.008,0.136 43.008,0.136" /><path
         id="path46"
         style="fill:none;stroke:#ffffff;stroke-width:4.49996996;stroke-linecap:round;stroke-linejoin:miter;stroke-miterlimit:1;stroke-dasharray:none;stroke-opacity:1"
         d="m 284.133,149.563 c 0,0 -19.57,-50.3169 -43.11,0.156 -23.496,50.418 -43.101,0.097 -43.101,0.097 0,0 -19.559,-50.3512 -43.063,0.094 -23.496,50.442 -43,-0.308 -43,-0.308 0,0 -19.5192,-50.3559 -43.0348,0.117 -23.5156,50.418 -43.0078,0.136 -43.0078,0.136" /><path
         id="path48"
         style="fill:none;stroke:#ffffff;stroke-width:8.99993992;stroke-linecap:round;stroke-linejoin:miter;stroke-miterlimit:1;stroke-dasharray:none;stroke-opacity:1"
         d="m 25.8164,149.563 c 0,0 19.5703,-50.3169 43.0859,0.156 23.5157,50.418 43.1137,0.097 43.1137,0.097 0,0 19.562,-50.3512 43.058,0.094 23.504,50.442 43,-0.308 43,-0.308 0,0 19.516,-50.3559 43.047,0.117 23.496,50.418 43.012,0.136 43.012,0.136" /><path
         id="path50"
         style="fill:none;stroke:#000000;stroke-width:4.49996996;stroke-linecap:round;stroke-linejoin:miter;stroke-miterlimit:1;stroke-dasharray:none;stroke-opacity:1"
         d="m 288.66,149.563 c 0,0 -19.566,-50.3169 -43.101,0.156 -23.496,50.418 -43.11,0.097 -43.11,0.097 0,0 -19.551,-50.3512 -43.058,0.094 -23.496,50.442 -43,-0.308 -43,-0.308 0,0 -19.5199,-50.3559 -43.0355,0.117 -23.5157,50.418 -43.0078,0.136 -43.0078,0.136" /><path
         id="path52"
         style="fill:none;stroke:#000000;stroke-width:8.99993992;stroke-linecap:round;stroke-linejoin:miter;stroke-miterlimit:1;stroke-dasharray:none;stroke-opacity:1"
         d="m 30.3477,149.563 c 0,0 19.5703,-50.3169 43.0859,0.156 23.5156,50.418 43.1134,0.097 43.1134,0.097 0,0 19.562,-50.3512 43.058,0.094 23.508,50.442 43,-0.308 43,-0.308 0,0 19.512,-50.3559 43.047,0.117 23.496,50.418 43.008,0.136 43.008,0.136" /><path
         id="path54"
         style="fill:none;stroke:#ffffff;stroke-width:4.49996996;stroke-linecap:round;stroke-linejoin:miter;stroke-miterlimit:1;stroke-dasharray:none;stroke-opacity:1"
         d="m 284.133,149.563 c 0,0 -19.57,-50.3169 -43.11,0.156 -23.496,50.418 -43.101,0.097 -43.101,0.097 0,0 -19.559,-50.3512 -43.063,0.094 -23.496,50.442 -43,-0.308 -43,-0.308 0,0 -19.5192,-50.3559 -43.0348,0.117 -23.5156,50.418 -43.0078,0.136 -43.0078,0.136" /><path
         id="path56"
         style="fill:none;stroke:#ffffff;stroke-width:8.99993992;stroke-linecap:round;stroke-linejoin:miter;stroke-miterlimit:1;stroke-dasharray:none;stroke-opacity:1"
         d="m 25.8164,149.563 c 0,0 19.5703,-50.3169 43.0859,0.156 23.5157,50.418 43.1137,0.097 43.1137,0.097 0,0 19.562,-50.3512 43.058,0.094 23.504,50.442 43,-0.308 43,-0.308 0,0 19.516,-50.3559 43.047,0.117 23.496,50.418 43.012,0.136 43.012,0.136" /><path
         id="path58"
         style="fill:none;stroke:#000000;stroke-width:4.49996996;stroke-linecap:round;stroke-linejoin:miter;stroke-miterlimit:1;stroke-dasharray:none;stroke-opacity:1"
         d="m 288.66,52.9961 c 0,0 -19.566,-50.3086 -43.101,0.1406 -23.496,50.4293 -43.11,0.1172 -43.11,0.1172 0,0 -19.551,-50.35156 -43.058,0.0977 -23.496,50.4254 -43,-0.3164 -43,-0.3164 0,0 -19.5199,-50.3477 -43.0355,0.1015 -23.5157,50.4293 -43.0078,0.1367 -43.0078,0.1367" /><path
         id="path60"
         style="fill:none;stroke:#000000;stroke-width:8.99993992;stroke-linecap:round;stroke-linejoin:miter;stroke-miterlimit:1;stroke-dasharray:none;stroke-opacity:1"
         d="m 30.3477,52.9961 c 0,0 19.5703,-50.3086 43.0859,0.1406 23.5156,50.4293 43.1134,0.1172 43.1134,0.1172 0,0 19.562,-50.35156 43.058,0.0977 23.508,50.4254 43,-0.3164 43,-0.3164 0,0 19.512,-50.3477 43.047,0.1015 23.496,50.4293 43.008,0.1367 43.008,0.1367" /><path
         id="path62"
         style="fill:none;stroke:#ffffff;stroke-width:4.49996996;stroke-linecap:round;stroke-linejoin:miter;stroke-miterlimit:1;stroke-dasharray:none;stroke-opacity:1"
         d="m 284.133,52.9961 c 0,0 -19.57,-50.3086 -43.11,0.1406 -23.496,50.4293 -43.101,0.1172 -43.101,0.1172 0,0 -19.559,-50.35156 -43.063,0.0977 -23.496,50.4254 -43,-0.3164 -43,-0.3164 0,0 -19.5192,-50.3477 -43.0348,0.1015 -23.5156,50.4293 -43.0078,0.1524 -43.0078,0.1524" /><path
         id="path64"
         style="fill:none;stroke:#ffffff;stroke-width:8.99993992;stroke-linecap:round;stroke-linejoin:miter;stroke-miterlimit:1;stroke-dasharray:none;stroke-opacity:1"
         d="m 25.8164,52.9961 c 0,0 19.5703,-50.3086 43.0859,0.1406 23.5157,50.4293 43.1137,0.1172 43.1137,0.1172 0,0 19.562,-50.35156 43.058,0.0977 23.504,50.4254 43,-0.3164 43,-0.3164 0,0 19.516,-50.3477 43.047,0.1015 23.496,50.4293 43.012,0.1524 43.012,0.1524" /></g></g></svg>