<svg xmlns="http://www.w3.org/2000/svg" viewBox="0 0 46.25 35" height="35" width="46.25"><path d="M35.518 27.125s-2.447 6.29-5.39-.018c-2.936-6.304-5.387-.015-5.387-.015s-2.446 6.294-5.386-.01c-2.934-6.304-5.37.039-5.37.039s-2.443 6.294-5.381-.014c-2.94-6.304-5.376-.02-5.376-.02" fill="none" stroke="#fff" stroke-width=".5625" stroke-linecap="round" stroke-miterlimit="1"/><path d="M3.228 27.125s2.446 6.29 5.386-.018c2.939-6.304 5.39-.015 5.39-.015s2.44 6.294 5.38-.01c2.94-6.304 5.377.039 5.377.039s2.436 6.294 5.38-.014c2.935-6.304 5.377-.02 5.377-.02" fill="none" stroke="#fff" stroke-width="1.125" stroke-linecap="round" stroke-miterlimit="1"/><path d="M36.084 27.125s-2.446 6.29-5.39-.018c-2.935-6.304-5.386-.015-5.386-.015s-2.447 6.294-5.386-.01c-2.935-6.304-5.37.039-5.37.039s-2.442 6.294-5.382-.014c-2.94-6.304-5.376-.015-5.376-.015" fill="none" stroke="#000" stroke-width=".5625" stroke-linecap="round" stroke-miterlimit="1"/><path d="M3.794 27.125s2.446 6.29 5.386-.018c2.939-6.304 5.39-.015 5.39-.015s2.441 6.294 5.381-.01c2.94-6.304 5.377.039 5.377.039s2.436 6.294 5.38-.014c2.935-6.304 5.376-.015 5.376-.015" fill="none" stroke="#000" stroke-width="1.125" stroke-linecap="round" stroke-miterlimit="1"/><path d="M35.518 27.125s-2.447 6.29-5.39-.018c-2.936-6.304-5.387-.015-5.387-.015s-2.446 6.294-5.386-.01c-2.934-6.304-5.37.039-5.37.039s-2.443 6.294-5.381-.014c-2.94-6.304-5.376-.02-5.376-.02" fill="none" stroke="#fff" stroke-width=".5625" stroke-linecap="round" stroke-miterlimit="1"/><path d="M3.228 27.125s2.446 6.29 5.386-.018c2.939-6.304 5.39-.015 5.39-.015s2.44 6.294 5.38-.01c2.94-6.304 5.377.039 5.377.039s2.436 6.294 5.38-.014c2.935-6.304 5.377-.02 5.377-.02" fill="none" stroke="#fff" stroke-width="1.125" stroke-linecap="round" stroke-miterlimit="1"/><path d="M.756 8.84l9.62-7.11h35.131l-6.992 7.11H.756" fill="#02709f"/><path d="M.756 8.84l9.62-7.11h35.131l-6.992 7.11H.756z" fill="none" stroke="#fff" stroke-width=".5"/><path d="M38.515 33.141l6.992-7.085V1.755L38.515 8.84V33.14" fill="#02709f"/><path d="M38.515 33.142l6.992-7.085V1.754L38.515 8.84v24.303z" fill="none" stroke="#fff" stroke-width=".5"/><path d="M.81 33.151h37.705V8.84H.81V33.15z" fill="#02709f"/><path d="M.81 33.15h37.705V8.84H.81v24.31z" fill="none" stroke="#fff" stroke-width=".5"/><path d="M35.518 15.056s-2.447 6.288-5.39-.02c-2.936-6.304-5.387-.014-5.387-.014s-2.446 6.294-5.386-.01c-2.934-6.304-5.37.039-5.37.039s-2.443 6.293-5.381-.015c-2.94-6.304-5.376-.019-5.376-.019" fill="none" stroke="#fff" stroke-width=".5625" stroke-linecap="round" stroke-miterlimit="1"/><path d="M3.228 15.056s2.446 6.288 5.386-.02c2.939-6.304 5.39-.014 5.39-.014s2.44 6.294 5.38-.01c2.94-6.304 5.377.039 5.377.039s2.436 6.293 5.38-.015c2.935-6.304 5.377-.019 5.377-.019" fill="none" stroke="#fff" stroke-width="1.125" stroke-linecap="round" stroke-miterlimit="1"/><path d="M36.084 15.056s-2.446 6.288-5.39-.02c-2.935-6.304-5.386-.014-5.386-.014s-2.447 6.294-5.386-.01c-2.935-6.304-5.37.039-5.37.039s-2.442 6.293-5.382-.015c-2.94-6.304-5.376-.019-5.376-.019" fill="none" stroke="#000" stroke-width=".5625" stroke-linecap="round" stroke-miterlimit="1"/><path d="M3.794 15.056s2.446 6.288 5.386-.02c2.939-6.304 5.39-.014 5.39-.014s2.441 6.294 5.381-.01c2.94-6.304 5.377.039 5.377.039s2.436 6.293 5.38-.015c2.935-6.304 5.376-.019 5.376-.019" fill="none" stroke="#000" stroke-width="1.125" stroke-linecap="round" stroke-miterlimit="1"/><path d="M35.518 15.056s-2.447 6.288-5.39-.02c-2.936-6.304-5.387-.014-5.387-.014s-2.446 6.294-5.386-.01c-2.934-6.304-5.37.039-5.37.039s-2.443 6.293-5.381-.015c-2.94-6.304-5.376-.019-5.376-.019" fill="none" stroke="#fff" stroke-width=".5625" stroke-linecap="round" stroke-miterlimit="1"/><path d="M3.228 15.056s2.446 6.288 5.386-.02c2.939-6.304 5.39-.014 5.39-.014s2.44 6.294 5.38-.01c2.94-6.304 5.377.039 5.377.039s2.436 6.293 5.38-.015c2.935-6.304 5.377-.019 5.377-.019" fill="none" stroke="#fff" stroke-width="1.125" stroke-linecap="round" stroke-miterlimit="1"/><path d="M36.084 15.056s-2.446 6.288-5.39-.02c-2.935-6.304-5.386-.014-5.386-.014s-2.447 6.294-5.386-.01c-2.935-6.304-5.37.039-5.37.039s-2.442 6.293-5.382-.015c-2.94-6.304-5.376-.019-5.376-.019" fill="none" stroke="#000" stroke-width=".5625" stroke-linecap="round" stroke-miterlimit="1"/><path d="M3.794 15.056s2.446 6.288 5.386-.02c2.939-6.304 5.39-.014 5.39-.014s2.441 6.294 5.381-.01c2.94-6.304 5.377.039 5.377.039s2.436 6.293 5.38-.015c2.935-6.304 5.376-.019 5.376-.019" fill="none" stroke="#000" stroke-width="1.125" stroke-linecap="round" stroke-miterlimit="1"/><path d="M35.518 15.056s-2.447 6.288-5.39-.02c-2.936-6.304-5.387-.014-5.387-.014s-2.446 6.294-5.386-.01c-2.934-6.304-5.37.039-5.37.039s-2.443 6.293-5.381-.015c-2.94-6.304-5.376-.019-5.376-.019" fill="none" stroke="#fff" stroke-width=".5625" stroke-linecap="round" stroke-miterlimit="1"/><path d="M3.228 15.056s2.446 6.288 5.386-.02c2.939-6.304 5.39-.014 5.39-.014s2.44 6.294 5.38-.01c2.94-6.304 5.377.039 5.377.039s2.436 6.293 5.38-.015c2.935-6.304 5.377-.019 5.377-.019" fill="none" stroke="#fff" stroke-width="1.125" stroke-linecap="round" stroke-miterlimit="1"/><path d="M36.084 27.125s-2.446 6.29-5.39-.018c-2.935-6.304-5.386-.015-5.386-.015s-2.447 6.294-5.386-.01c-2.935-6.304-5.37.039-5.37.039s-2.442 6.294-5.382-.014c-2.94-6.304-5.376-.015-5.376-.015" fill="none" stroke="#000" stroke-width=".5625" stroke-linecap="round" stroke-miterlimit="1"/><path d="M3.794 27.125s2.446 6.29 5.386-.018c2.939-6.304 5.39-.015 5.39-.015s2.441 6.294 5.381-.01c2.94-6.304 5.377.039 5.377.039s2.436 6.294 5.38-.014c2.935-6.304 5.376-.015 5.376-.015" fill="none" stroke="#000" stroke-width="1.125" stroke-linecap="round" stroke-miterlimit="1"/><path d="M35.518 27.125s-2.447 6.29-5.39-.018c-2.936-6.304-5.387-.015-5.387-.015s-2.446 6.294-5.386-.01c-2.934-6.304-5.37.039-5.37.039s-2.443 6.294-5.381-.014c-2.94-6.304-5.376-.02-5.376-.02" fill="none" stroke="#fff" stroke-width=".5625" stroke-linecap="round" stroke-miterlimit="1"/><path d="M3.228 27.125s2.446 6.29 5.386-.018c2.939-6.304 5.39-.015 5.39-.015s2.44 6.294 5.38-.01c2.94-6.304 5.377.039 5.377.039s2.436 6.294 5.38-.014c2.935-6.304 5.377-.02 5.377-.02" fill="none" stroke="#fff" stroke-width="1.125" stroke-linecap="round" stroke-miterlimit="1"/></svg>