<?xml version="1.0" encoding="UTF-8" standalone="no"?>
<svg
   xmlns:dc="http://purl.org/dc/elements/1.1/"
   xmlns:cc="http://creativecommons.org/ns#"
   xmlns:rdf="http://www.w3.org/1999/02/22-rdf-syntax-ns#"
   xmlns:svg="http://www.w3.org/2000/svg"
   xmlns="http://www.w3.org/2000/svg"
   viewBox="0 0 46.25 35"
   height="35"
   width="46.25"
   xml:space="preserve"
   version="1.1"
   id="svg2"><metadata
     id="metadata8"><rdf:RDF><cc:Work
         rdf:about=""><dc:format>image/svg+xml</dc:format><dc:type
           rdf:resource="http://purl.org/dc/dcmitype/StillImage" /></cc:Work></rdf:RDF></metadata><defs
     id="defs6" /><g
     transform="matrix(1.25,0,0,-1.25,0,35)"
     id="g10"><g
       transform="scale(0.1,0.1)"
       id="g12"><path
         id="path14"
         style="fill:none;stroke:#ffffff;stroke-width:4.49996996;stroke-linecap:round;stroke-linejoin:miter;stroke-miterlimit:1;stroke-dasharray:none;stroke-opacity:1"
         d="m 284.141,62.9961 c 0,0 -19.571,-50.3125 -43.121,0.1484 -23.481,50.4295 -43.09,0.1211 -43.09,0.1211 0,0 -19.571,-50.3515 -43.09,0.0782 -23.469,50.4292 -42.961,-0.3086 -42.961,-0.3086 0,0 -19.5392,-50.3516 -43.0509,0.1093 -23.5195,50.4295 -43.0078,0.1602 -43.0078,0.1602" /><path
         id="path16"
         style="fill:none;stroke:#ffffff;stroke-width:8.99993992;stroke-linecap:round;stroke-linejoin:miter;stroke-miterlimit:1;stroke-dasharray:none;stroke-opacity:1"
         d="m 25.8203,62.9961 c 0,0 19.5703,-50.3125 43.0899,0.1484 23.5117,50.4295 43.1208,0.1211 43.1208,0.1211 0,0 19.528,-50.3515 43.047,0.0782 23.512,50.4292 43.012,-0.3086 43.012,-0.3086 0,0 19.488,-50.3516 43.039,0.1093 23.48,50.4295 43.012,0.1602 43.012,0.1602" /><path
         id="path18"
         style="fill:none;stroke:#000000;stroke-width:4.49996996;stroke-linecap:round;stroke-linejoin:miter;stroke-miterlimit:1;stroke-dasharray:none;stroke-opacity:1"
         d="m 288.672,62.9961 c 0,0 -19.57,-50.3125 -43.121,0.1484 -23.481,50.4295 -43.09,0.1211 -43.09,0.1211 0,0 -19.57,-50.3515 -43.082,0.0782 -23.481,50.4292 -42.969,-0.3086 -42.969,-0.3086 0,0 -19.5311,-50.3516 -43.0506,0.1093 -23.5196,50.4295 -43.0078,0.1211 -43.0078,0.1211" /><path
         id="path20"
         style="fill:none;stroke:#000000;stroke-width:8.99993992;stroke-linecap:round;stroke-linejoin:miter;stroke-miterlimit:1;stroke-dasharray:none;stroke-opacity:1"
         d="m 30.3516,62.9961 c 0,0 19.5703,-50.3125 43.0898,0.1484 23.5078,50.4295 43.1176,0.1211 43.1176,0.1211 0,0 19.531,-50.3515 43.05,0.0782 23.512,50.4292 43.012,-0.3086 43.012,-0.3086 0,0 19.488,-50.3516 43.039,0.1093 23.481,50.4295 43.012,0.1211 43.012,0.1211" /><path
         id="path22"
         style="fill:none;stroke:#ffffff;stroke-width:4.49996996;stroke-linecap:round;stroke-linejoin:miter;stroke-miterlimit:1;stroke-dasharray:none;stroke-opacity:1"
         d="m 284.141,62.9961 c 0,0 -19.571,-50.3125 -43.121,0.1484 -23.481,50.4295 -43.09,0.1211 -43.09,0.1211 0,0 -19.571,-50.3515 -43.09,0.0782 -23.469,50.4292 -42.961,-0.3086 -42.961,-0.3086 0,0 -19.5392,-50.3516 -43.0509,0.1093 -23.5195,50.4295 -43.0078,0.1602 -43.0078,0.1602" /><path
         id="path24"
         style="fill:none;stroke:#ffffff;stroke-width:8.99993992;stroke-linecap:round;stroke-linejoin:miter;stroke-miterlimit:1;stroke-dasharray:none;stroke-opacity:1"
         d="m 25.8203,62.9961 c 0,0 19.5703,-50.3125 43.0899,0.1484 23.5117,50.4295 43.1208,0.1211 43.1208,0.1211 0,0 19.528,-50.3515 43.047,0.0782 23.512,50.4292 43.012,-0.3086 43.012,-0.3086 0,0 19.488,-50.3516 43.039,0.1093 23.48,50.4295 43.012,0.1602 43.012,0.1602" /><path
         id="path26"
         style="fill:#02709f;fill-opacity:1;fill-rule:nonzero;stroke:none"
         d="m 6.05078,209.281 76.96092,56.879 281.0473,0 -55.938,-56.879 -302.07022,0" /><path
         id="path28"
         style="fill:none;stroke:#ffffff;stroke-width:3.99993992;stroke-linecap:butt;stroke-linejoin:miter;stroke-miterlimit:4;stroke-dasharray:none;stroke-opacity:1"
         d="m 6.05078,209.285 76.96092,56.871 281.0473,0 -55.938,-56.871 -302.07022,0 z" /><path
         id="path30"
         style="fill:#02709f;fill-opacity:1;fill-rule:nonzero;stroke:none"
         d="m 308.121,14.8711 55.938,56.6797 0,194.4102 -55.938,-56.68 0,-194.4099" /><path
         id="path32"
         style="fill:none;stroke:#ffffff;stroke-width:3.99993992;stroke-linecap:butt;stroke-linejoin:miter;stroke-miterlimit:4;stroke-dasharray:none;stroke-opacity:1"
         d="m 308.121,14.8633 55.938,56.6797 0,194.422 -55.938,-56.68 0,-194.4217 z" /><path
         id="path34"
         style="fill:#02709f;fill-opacity:1;fill-rule:nonzero;stroke:none"
         d="m 6.48047,14.7891 301.641,0 0,194.492 -301.641,0 0,-194.492 z" /><path
         id="path36"
         style="fill:none;stroke:#ffffff;stroke-width:3.99993992;stroke-linecap:butt;stroke-linejoin:miter;stroke-miterlimit:4;stroke-dasharray:none;stroke-opacity:1"
         d="m 6.48047,14.793 301.641,0 0,194.492 -301.641,0 0,-194.492 z" /><path
         id="path38"
         style="fill:none;stroke:#ffffff;stroke-width:4.49996996;stroke-linecap:round;stroke-linejoin:miter;stroke-miterlimit:1;stroke-dasharray:none;stroke-opacity:1"
         d="m 284.141,159.555 c 0,0 -19.571,-50.309 -43.121,0.16 -23.481,50.43 -43.09,0.109 -43.09,0.109 0,0 -19.571,-50.351 -43.09,0.082 -23.469,50.43 -42.961,-0.312 -42.961,-0.312 0,0 -19.5392,-50.348 -43.0509,0.121 -23.5195,50.43 -43.0078,0.148 -43.0078,0.148" /><path
         id="path40"
         style="fill:none;stroke:#ffffff;stroke-width:8.99993992;stroke-linecap:round;stroke-linejoin:miter;stroke-miterlimit:1;stroke-dasharray:none;stroke-opacity:1"
         d="m 25.8203,159.555 c 0,0 19.5703,-50.309 43.0899,0.16 23.5117,50.43 43.1208,0.109 43.1208,0.109 0,0 19.528,-50.351 43.047,0.082 23.512,50.43 43.012,-0.312 43.012,-0.312 0,0 19.488,-50.348 43.039,0.121 23.48,50.43 43.012,0.148 43.012,0.148" /><path
         id="path42"
         style="fill:none;stroke:#000000;stroke-width:4.49996996;stroke-linecap:round;stroke-linejoin:miter;stroke-miterlimit:1;stroke-dasharray:none;stroke-opacity:1"
         d="m 288.672,159.555 c 0,0 -19.57,-50.309 -43.121,0.16 -23.481,50.43 -43.09,0.109 -43.09,0.109 0,0 -19.57,-50.351 -43.082,0.082 -23.481,50.43 -42.969,-0.312 -42.969,-0.312 0,0 -19.5311,-50.348 -43.0506,0.121 -23.5196,50.43 -43.0078,0.148 -43.0078,0.148" /><path
         id="path44"
         style="fill:none;stroke:#000000;stroke-width:8.99993992;stroke-linecap:round;stroke-linejoin:miter;stroke-miterlimit:1;stroke-dasharray:none;stroke-opacity:1"
         d="m 30.3516,159.555 c 0,0 19.5703,-50.309 43.0898,0.16 23.5078,50.43 43.1176,0.109 43.1176,0.109 0,0 19.531,-50.351 43.05,0.082 23.512,50.43 43.012,-0.312 43.012,-0.312 0,0 19.488,-50.348 43.039,0.121 23.481,50.43 43.012,0.148 43.012,0.148" /><path
         id="path46"
         style="fill:none;stroke:#ffffff;stroke-width:4.49996996;stroke-linecap:round;stroke-linejoin:miter;stroke-miterlimit:1;stroke-dasharray:none;stroke-opacity:1"
         d="m 284.141,159.555 c 0,0 -19.571,-50.309 -43.121,0.16 -23.481,50.43 -43.09,0.109 -43.09,0.109 0,0 -19.571,-50.351 -43.09,0.082 -23.469,50.43 -42.961,-0.312 -42.961,-0.312 0,0 -19.5392,-50.348 -43.0509,0.121 -23.5195,50.43 -43.0078,0.148 -43.0078,0.148" /><path
         id="path48"
         style="fill:none;stroke:#ffffff;stroke-width:8.99993992;stroke-linecap:round;stroke-linejoin:miter;stroke-miterlimit:1;stroke-dasharray:none;stroke-opacity:1"
         d="m 25.8203,159.555 c 0,0 19.5703,-50.309 43.0899,0.16 23.5117,50.43 43.1208,0.109 43.1208,0.109 0,0 19.528,-50.351 43.047,0.082 23.512,50.43 43.012,-0.312 43.012,-0.312 0,0 19.488,-50.348 43.039,0.121 23.48,50.43 43.012,0.148 43.012,0.148" /><path
         id="path50"
         style="fill:none;stroke:#000000;stroke-width:4.49996996;stroke-linecap:round;stroke-linejoin:miter;stroke-miterlimit:1;stroke-dasharray:none;stroke-opacity:1"
         d="m 288.672,159.555 c 0,0 -19.57,-50.309 -43.121,0.16 -23.481,50.43 -43.09,0.109 -43.09,0.109 0,0 -19.57,-50.351 -43.082,0.082 -23.481,50.43 -42.969,-0.312 -42.969,-0.312 0,0 -19.5311,-50.348 -43.0506,0.121 -23.5196,50.43 -43.0078,0.148 -43.0078,0.148" /><path
         id="path52"
         style="fill:none;stroke:#000000;stroke-width:8.99993992;stroke-linecap:round;stroke-linejoin:miter;stroke-miterlimit:1;stroke-dasharray:none;stroke-opacity:1"
         d="m 30.3516,159.555 c 0,0 19.5703,-50.309 43.0898,0.16 23.5078,50.43 43.1176,0.109 43.1176,0.109 0,0 19.531,-50.351 43.05,0.082 23.512,50.43 43.012,-0.312 43.012,-0.312 0,0 19.488,-50.348 43.039,0.121 23.481,50.43 43.012,0.148 43.012,0.148" /><path
         id="path54"
         style="fill:none;stroke:#ffffff;stroke-width:4.49996996;stroke-linecap:round;stroke-linejoin:miter;stroke-miterlimit:1;stroke-dasharray:none;stroke-opacity:1"
         d="m 284.141,159.555 c 0,0 -19.571,-50.309 -43.121,0.16 -23.481,50.43 -43.09,0.109 -43.09,0.109 0,0 -19.571,-50.351 -43.09,0.082 -23.469,50.43 -42.961,-0.312 -42.961,-0.312 0,0 -19.5392,-50.348 -43.0509,0.121 -23.5195,50.43 -43.0078,0.148 -43.0078,0.148" /><path
         id="path56"
         style="fill:none;stroke:#ffffff;stroke-width:8.99993992;stroke-linecap:round;stroke-linejoin:miter;stroke-miterlimit:1;stroke-dasharray:none;stroke-opacity:1"
         d="m 25.8203,159.555 c 0,0 19.5703,-50.309 43.0899,0.16 23.5117,50.43 43.1208,0.109 43.1208,0.109 0,0 19.528,-50.351 43.047,0.082 23.512,50.43 43.012,-0.312 43.012,-0.312 0,0 19.488,-50.348 43.039,0.121 23.48,50.43 43.012,0.148 43.012,0.148" /><path
         id="path58"
         style="fill:none;stroke:#000000;stroke-width:4.49996996;stroke-linecap:round;stroke-linejoin:miter;stroke-miterlimit:1;stroke-dasharray:none;stroke-opacity:1"
         d="m 288.672,62.9961 c 0,0 -19.57,-50.3125 -43.121,0.1484 -23.481,50.4295 -43.09,0.1211 -43.09,0.1211 0,0 -19.57,-50.3515 -43.082,0.0782 -23.481,50.4292 -42.969,-0.3086 -42.969,-0.3086 0,0 -19.5311,-50.3516 -43.0506,0.1093 -23.5196,50.4295 -43.0078,0.1211 -43.0078,0.1211" /><path
         id="path60"
         style="fill:none;stroke:#000000;stroke-width:8.99993992;stroke-linecap:round;stroke-linejoin:miter;stroke-miterlimit:1;stroke-dasharray:none;stroke-opacity:1"
         d="m 30.3516,62.9961 c 0,0 19.5703,-50.3125 43.0898,0.1484 23.5078,50.4295 43.1176,0.1211 43.1176,0.1211 0,0 19.531,-50.3515 43.05,0.0782 23.512,50.4292 43.012,-0.3086 43.012,-0.3086 0,0 19.488,-50.3516 43.039,0.1093 23.481,50.4295 43.012,0.1211 43.012,0.1211" /><path
         id="path62"
         style="fill:none;stroke:#ffffff;stroke-width:4.49996996;stroke-linecap:round;stroke-linejoin:miter;stroke-miterlimit:1;stroke-dasharray:none;stroke-opacity:1"
         d="m 284.141,62.9961 c 0,0 -19.571,-50.3125 -43.121,0.1484 -23.481,50.4295 -43.09,0.1211 -43.09,0.1211 0,0 -19.571,-50.3515 -43.09,0.0782 -23.469,50.4292 -42.961,-0.3086 -42.961,-0.3086 0,0 -19.5392,-50.3516 -43.0509,0.1093 -23.5195,50.4295 -43.0078,0.1602 -43.0078,0.1602" /><path
         id="path64"
         style="fill:none;stroke:#ffffff;stroke-width:8.99993992;stroke-linecap:round;stroke-linejoin:miter;stroke-miterlimit:1;stroke-dasharray:none;stroke-opacity:1"
         d="m 25.8203,62.9961 c 0,0 19.5703,-50.3125 43.0899,0.1484 23.5117,50.4295 43.1208,0.1211 43.1208,0.1211 0,0 19.528,-50.3515 43.047,0.0782 23.512,50.4292 43.012,-0.3086 43.012,-0.3086 0,0 19.488,-50.3516 43.039,0.1093 23.48,50.4295 43.012,0.1602 43.012,0.1602" /></g></g></svg>