<?xml version="1.0" encoding="UTF-8" standalone="no"?>
<svg
   xmlns:dc="http://purl.org/dc/elements/1.1/"
   xmlns:cc="http://creativecommons.org/ns#"
   xmlns:rdf="http://www.w3.org/1999/02/22-rdf-syntax-ns#"
   xmlns:svg="http://www.w3.org/2000/svg"
   xmlns="http://www.w3.org/2000/svg"
   viewBox="0 0 33.8125 34.137501"
   height="34.137501"
   width="33.8125"
   xml:space="preserve"
   version="1.1"
   id="svg2"><metadata
     id="metadata8"><rdf:RDF><cc:Work
         rdf:about=""><dc:format>image/svg+xml</dc:format><dc:type
           rdf:resource="http://purl.org/dc/dcmitype/StillImage" /></cc:Work></rdf:RDF></metadata><defs
     id="defs6"><clipPath
       id="clipPath18"
       clipPathUnits="userSpaceOnUse"><path
         id="path20"
         d="M 0,3 0,273 270,273 270,3 0,3 Z" /></clipPath></defs><g
     transform="matrix(1.25,0,0,-1.25,0,34.1375)"
     id="g10"><g
       transform="scale(0.1,0.1)"
       id="g12"><g
         id="g14"><g
           clip-path="url(#clipPath18)"
           id="g16"><path
             id="path22"
             style="fill:#02709f;fill-opacity:1;fill-rule:nonzero;stroke:none"
             d="m 5.46875,4.74219 215.996,0 0,219.746 -215.996,0 0,-219.746 z" /><path
             id="path24"
             style="fill:none;stroke:#ffffff;stroke-width:3.99993992;stroke-linecap:butt;stroke-linejoin:miter;stroke-miterlimit:4;stroke-dasharray:none;stroke-opacity:1"
             d="m 5.46875,4.74219 215.996,0 0,219.746 -215.996,0 0,-219.746 z" /><path
             id="path26"
             style="fill:#000000;fill-opacity:1;fill-rule:nonzero;stroke:none"
             d="m 118.457,150.98 66.414,0" /><path
             id="path28"
             style="fill:none;stroke:#ffffff;stroke-width:3.99993992;stroke-linecap:butt;stroke-linejoin:miter;stroke-miterlimit:4;stroke-dasharray:none;stroke-opacity:1"
             d="m 118.457,150.98 66.414,0" /><path
             id="path30"
             style="fill:#000000;fill-opacity:1;fill-rule:nonzero;stroke:none"
             d="m 118.457,74.5273 66.414,0" /><path
             id="path32"
             style="fill:none;stroke:#ffffff;stroke-width:3.99993992;stroke-linecap:butt;stroke-linejoin:miter;stroke-miterlimit:4;stroke-dasharray:none;stroke-opacity:1"
             d="m 118.457,74.5273 66.414,0" /><path
             id="path34"
             style="fill:#000000;fill-opacity:1;fill-rule:nonzero;stroke:none"
             d="m 98.0859,112.465 0,66.418" /><path
             id="path36"
             style="fill:none;stroke:#ffffff;stroke-width:3.99993992;stroke-linecap:butt;stroke-linejoin:miter;stroke-miterlimit:4;stroke-dasharray:none;stroke-opacity:1"
             d="m 98.0859,112.465 0,66.418" /><path
             id="path38"
             style="fill:none;stroke:#ffffff;stroke-width:10;stroke-linecap:butt;stroke-linejoin:miter;stroke-miterlimit:4;stroke-dasharray:none;stroke-opacity:1"
             d="m 156.777,112.953 0,-66.4061" /><path
             id="path40"
             style="fill:#000000;fill-opacity:1;fill-rule:nonzero;stroke:none"
             d="m 81.0547,112.953 0,-66.4061" /><path
             id="path42"
             style="fill:none;stroke:#ffffff;stroke-width:3.99993992;stroke-linecap:butt;stroke-linejoin:miter;stroke-miterlimit:4;stroke-dasharray:none;stroke-opacity:1"
             d="m 81.0547,112.953 0,-66.4061" /><path
             id="path44"
             style="fill:#000000;fill-opacity:1;fill-rule:nonzero;stroke:none"
             d="m 119.402,150.805 -66.4137,0" /><path
             id="path46"
             style="fill:none;stroke:#ffffff;stroke-width:3.99993992;stroke-linecap:butt;stroke-linejoin:miter;stroke-miterlimit:4;stroke-dasharray:none;stroke-opacity:1"
             d="m 119.402,150.805 -66.4137,0" /><path
             id="path48"
             style="fill:#02709f;fill-opacity:1;fill-rule:nonzero;stroke:none"
             d="m 265.703,268.238 0,-218.3708 -44.492,-45.00001 0,218.62481 44.492,44.746" /><path
             id="path50"
             style="fill:none;stroke:#ffffff;stroke-width:3.99993992;stroke-linecap:butt;stroke-linejoin:miter;stroke-miterlimit:4;stroke-dasharray:none;stroke-opacity:1"
             d="m 265.703,268.238 0,-218.3708 -44.492,-45.00001 0,218.62481 44.492,44.746 z" /><path
             id="path52"
             style="fill:#02709f;fill-opacity:1;fill-rule:nonzero;stroke:none"
             d="m 221.211,223.492 -0.508,1.25 -214.99206,0 54.50386,43.496 205.4882,0 -44.492,-44.746" /><path
             id="path54"
             style="fill:none;stroke:#ffffff;stroke-width:3.99993992;stroke-linecap:butt;stroke-linejoin:miter;stroke-miterlimit:4;stroke-dasharray:none;stroke-opacity:1"
             d="m 221.211,223.492 -0.508,1.25 -214.99206,0 54.50386,43.496 205.4882,0 -44.492,-44.746 z" /><path
             id="path56"
             style="fill:none;stroke:#ffffff;stroke-width:10;stroke-linecap:butt;stroke-linejoin:miter;stroke-miterlimit:4;stroke-dasharray:none;stroke-opacity:1"
             d="m 115.43,153.148 70.168,0" /><path
             id="path58"
             style="fill:#ffffff;fill-opacity:1;fill-rule:nonzero;stroke:none"
             d="m 184.316,173.102 0,-38.45 23.172,18.469 -23.172,19.981" /><path
             id="path60"
             style="fill:none;stroke:#ffffff;stroke-width:3.99993992;stroke-linecap:butt;stroke-linejoin:miter;stroke-miterlimit:4;stroke-dasharray:none;stroke-opacity:1"
             d="m 184.316,173.102 0,-38.45 23.172,18.469 -23.172,19.981 z" /><path
             id="path62"
             style="fill:none;stroke:#ffffff;stroke-width:10;stroke-linecap:butt;stroke-linejoin:miter;stroke-miterlimit:4;stroke-dasharray:none;stroke-opacity:1"
             d="m 115.43,76.7031 73.918,0" /><path
             id="path64"
             style="fill:#ffffff;fill-opacity:1;fill-rule:nonzero;stroke:none"
             d="m 184.316,96.9375 0,-38.457 23.172,18.4765 -23.172,19.9805" /><path
             id="path66"
             style="fill:none;stroke:#ffffff;stroke-width:3.99993992;stroke-linecap:butt;stroke-linejoin:miter;stroke-miterlimit:4;stroke-dasharray:none;stroke-opacity:1"
             d="m 184.316,96.9375 0,-38.457 23.172,18.4765 -23.172,19.9805 z" /><path
             id="path68"
             style="fill:none;stroke:#ffffff;stroke-width:10;stroke-linecap:butt;stroke-linejoin:miter;stroke-miterlimit:4;stroke-dasharray:none;stroke-opacity:1"
             d="m 95.0586,114.645 0,62.761" /><path
             id="path70"
             style="fill:none;stroke:#ffffff;stroke-width:10;stroke-linecap:butt;stroke-linejoin:miter;stroke-miterlimit:4;stroke-dasharray:none;stroke-opacity:1"
             d="m 134.902,112.465 0,66.418" /><path
             id="path72"
             style="fill:#000000;fill-opacity:1;fill-rule:nonzero;stroke:none"
             d="m 131.875,114.645 0,62.761" /><path
             id="path74"
             style="fill:none;stroke:#ffffff;stroke-width:3.99993992;stroke-linecap:butt;stroke-linejoin:miter;stroke-miterlimit:4;stroke-dasharray:none;stroke-opacity:1"
             d="m 131.875,114.645 0,62.761" /><path
             id="path76"
             style="fill:#000000;fill-opacity:1;fill-rule:nonzero;stroke:none"
             d="m 153.75,115.133 0,-71.4182" /><path
             id="path78"
             style="fill:none;stroke:#ffffff;stroke-width:3.99993992;stroke-linecap:butt;stroke-linejoin:miter;stroke-miterlimit:4;stroke-dasharray:none;stroke-opacity:1"
             d="m 153.75,115.133 0,-71.4182" /><path
             id="path80"
             style="fill:#ffffff;fill-opacity:1;fill-rule:nonzero;stroke:none"
             d="m 173.066,46.5586 -38.457,0 18.653,-23.1758 19.804,23.1758" /><path
             id="path82"
             style="fill:none;stroke:#ffffff;stroke-width:3.99993992;stroke-linecap:butt;stroke-linejoin:miter;stroke-miterlimit:4;stroke-dasharray:none;stroke-opacity:1"
             d="m 173.066,46.5586 -38.457,0 18.653,-23.1758 19.804,23.1758 z" /><path
             id="path84"
             style="fill:none;stroke:#ffffff;stroke-width:10;stroke-linecap:butt;stroke-linejoin:miter;stroke-miterlimit:4;stroke-dasharray:none;stroke-opacity:1"
             d="m 78.0273,115.133 0,-71.4182" /><path
             id="path86"
             style="fill:#ffffff;fill-opacity:1;fill-rule:nonzero;stroke:none"
             d="m 97.7344,46.5586 -38.4571,0 18.6524,-23.1758 19.8047,23.1758" /><path
             id="path88"
             style="fill:none;stroke:#ffffff;stroke-width:3.99993992;stroke-linecap:butt;stroke-linejoin:miter;stroke-miterlimit:4;stroke-dasharray:none;stroke-opacity:1"
             d="m 97.7344,46.5586 -38.4571,0 18.6524,-23.1758 19.8047,23.1758 z" /><path
             id="path90"
             style="fill:none;stroke:#ffffff;stroke-width:10;stroke-linecap:butt;stroke-linejoin:miter;stroke-miterlimit:4;stroke-dasharray:none;stroke-opacity:1"
             d="m 116.387,76.7227 -71.4261,0" /><path
             id="path92"
             style="fill:#ffffff;fill-opacity:1;fill-rule:nonzero;stroke:none"
             d="m 47.2656,56.5078 0,38.457 L 24.1016,76.5 47.2656,56.5078" /><path
             id="path94"
             style="fill:none;stroke:#ffffff;stroke-width:3.99993992;stroke-linecap:butt;stroke-linejoin:miter;stroke-miterlimit:4;stroke-dasharray:none;stroke-opacity:1"
             d="m 47.2656,56.5078 0,38.457 L 24.1016,76.5 47.2656,56.5078 Z" /><path
             id="path96"
             style="fill:none;stroke:#ffffff;stroke-width:10;stroke-linecap:butt;stroke-linejoin:miter;stroke-miterlimit:4;stroke-dasharray:none;stroke-opacity:1"
             d="m 116.387,152.973 -71.4261,0" /><path
             id="path98"
             style="fill:#ffffff;fill-opacity:1;fill-rule:nonzero;stroke:none"
             d="m 47.2656,132.758 0,38.457 -23.164,-18.465 23.164,-19.992" /><path
             id="path100"
             style="fill:none;stroke:#ffffff;stroke-width:3.99993992;stroke-linecap:butt;stroke-linejoin:miter;stroke-miterlimit:4;stroke-dasharray:none;stroke-opacity:1"
             d="m 47.2656,132.758 0,38.457 -23.164,-18.465 23.164,-19.992 z" /><path
             id="path102"
             style="fill:#02709f;fill-opacity:1;fill-rule:nonzero;stroke:none"
             d="m 115.469,68.6094 c 25.344,0 45.886,20.5351 45.886,45.8786 0,25.34 -20.542,45.887 -45.886,45.887 -25.3323,0 -45.8792,-20.547 -45.8792,-45.887 0,-25.3435 20.5469,-45.8786 45.8792,-45.8786" /><path
             id="path104"
             style="fill:none;stroke:#ffffff;stroke-width:3.99993992;stroke-linecap:butt;stroke-linejoin:miter;stroke-miterlimit:4;stroke-dasharray:none;stroke-opacity:1"
             d="m 115.469,68.6094 c 25.344,0 45.886,20.5351 45.886,45.8786 0,25.34 -20.542,45.887 -45.886,45.887 -25.3323,0 -45.8792,-20.547 -45.8792,-45.887 0,-25.3435 20.5469,-45.8786 45.8792,-45.8786 z" /><path
             id="path106"
             style="fill:#ffffff;fill-opacity:1;fill-rule:nonzero;stroke:none"
             d="m 178.02,178.637 c 1.335,0 2.418,1.093 2.418,2.422 l 0,22.968 c 0,1.328 -1.083,2.414 -2.418,2.414 l -122.3637,0 c -1.3399,0 -2.4258,-1.086 -2.4258,-2.414 l 0,-22.968 c 0,-1.329 1.0859,-2.422 2.4258,-2.422 l 22.7812,0 0,8.008 72.8005,0 0,-8.008 26.782,0" /><path
             id="path108"
             style="fill:none;stroke:#ffffff;stroke-width:3.99993992;stroke-linecap:butt;stroke-linejoin:miter;stroke-miterlimit:4;stroke-dasharray:none;stroke-opacity:1"
             d="m 178.02,178.637 c 1.335,0 2.418,1.093 2.418,2.422 l 0,22.968 c 0,1.328 -1.083,2.414 -2.418,2.414 l -122.3637,0 c -1.3399,0 -2.4258,-1.086 -2.4258,-2.414 l 0,-22.968 c 0,-1.329 1.0859,-2.422 2.4258,-2.422 l 22.7812,0 0,8.008 72.8005,0 0,-8.008 26.782,0 z" /><path
             id="path110"
             style="fill:#000000;fill-opacity:1;fill-rule:nonzero;stroke:none"
             d="m 94.3047,130.219 5.625,0 0,5.625 -5.625,0 0,-5.625 z" /><path
             id="path112"
             style="fill:none;stroke:#ffffff;stroke-width:3.99993992;stroke-linecap:butt;stroke-linejoin:miter;stroke-miterlimit:4;stroke-dasharray:none;stroke-opacity:1"
             d="m 94.3047,130.219 5.625,0 0,5.625 -5.625,0 0,-5.625 z" /><path
             id="path114"
             style="fill:#000000;fill-opacity:1;fill-rule:nonzero;stroke:none"
             d="m 94.3047,117.719 5.625,0 0,5.625 -5.625,0 0,-5.625 z" /><path
             id="path116"
             style="fill:none;stroke:#ffffff;stroke-width:3.99993992;stroke-linecap:butt;stroke-linejoin:miter;stroke-miterlimit:4;stroke-dasharray:none;stroke-opacity:1"
             d="m 94.3047,117.719 5.625,0 0,5.625 -5.625,0 0,-5.625 z" /><path
             id="path118"
             style="fill:#000000;fill-opacity:1;fill-rule:nonzero;stroke:none"
             d="m 94.3047,105.219 5.625,0 0,5.625 -5.625,0 0,-5.625 z" /><path
             id="path120"
             style="fill:none;stroke:#ffffff;stroke-width:3.99993992;stroke-linecap:butt;stroke-linejoin:miter;stroke-miterlimit:4;stroke-dasharray:none;stroke-opacity:1"
             d="m 94.3047,105.219 5.625,0 0,5.625 -5.625,0 0,-5.625 z" /><path
             id="path122"
             style="fill:#000000;fill-opacity:1;fill-rule:nonzero;stroke:none"
             d="m 94.3047,92.7188 5.625,0 0,5.625 -5.625,0 0,-5.625 z" /><path
             id="path124"
             style="fill:none;stroke:#ffffff;stroke-width:3.99993992;stroke-linecap:butt;stroke-linejoin:miter;stroke-miterlimit:4;stroke-dasharray:none;stroke-opacity:1"
             d="m 94.3047,92.7188 5.625,0 0,5.625 -5.625,0 0,-5.625 z" /><path
             id="path126"
             style="fill:#000000;fill-opacity:1;fill-rule:nonzero;stroke:none"
             d="m 106.809,130.219 5.625,0 0,5.625 -5.625,0 0,-5.625 z" /><path
             id="path128"
             style="fill:none;stroke:#ffffff;stroke-width:3.99993992;stroke-linecap:butt;stroke-linejoin:miter;stroke-miterlimit:4;stroke-dasharray:none;stroke-opacity:1"
             d="m 106.809,130.219 5.625,0 0,5.625 -5.625,0 0,-5.625 z" /><path
             id="path130"
             style="fill:#000000;fill-opacity:1;fill-rule:nonzero;stroke:none"
             d="m 106.809,117.719 5.625,0 0,5.625 -5.625,0 0,-5.625 z" /><path
             id="path132"
             style="fill:none;stroke:#ffffff;stroke-width:3.99993992;stroke-linecap:butt;stroke-linejoin:miter;stroke-miterlimit:4;stroke-dasharray:none;stroke-opacity:1"
             d="m 106.809,117.719 5.625,0 0,5.625 -5.625,0 0,-5.625 z" /><path
             id="path134"
             style="fill:#000000;fill-opacity:1;fill-rule:nonzero;stroke:none"
             d="m 106.809,105.219 5.625,0 0,5.625 -5.625,0 0,-5.625 z" /><path
             id="path136"
             style="fill:none;stroke:#ffffff;stroke-width:3.99993992;stroke-linecap:butt;stroke-linejoin:miter;stroke-miterlimit:4;stroke-dasharray:none;stroke-opacity:1"
             d="m 106.809,105.219 5.625,0 0,5.625 -5.625,0 0,-5.625 z" /><path
             id="path138"
             style="fill:#000000;fill-opacity:1;fill-rule:nonzero;stroke:none"
             d="m 106.809,92.7188 5.625,0 0,5.625 -5.625,0 0,-5.625 z" /><path
             id="path140"
             style="fill:none;stroke:#ffffff;stroke-width:3.99993992;stroke-linecap:butt;stroke-linejoin:miter;stroke-miterlimit:4;stroke-dasharray:none;stroke-opacity:1"
             d="m 106.809,92.7188 5.625,0 0,5.625 -5.625,0 0,-5.625 z" /><path
             id="path142"
             style="fill:#000000;fill-opacity:1;fill-rule:nonzero;stroke:none"
             d="m 119.309,130.219 5.625,0 0,5.625 -5.625,0 0,-5.625 z" /><path
             id="path144"
             style="fill:none;stroke:#ffffff;stroke-width:3.99993992;stroke-linecap:butt;stroke-linejoin:miter;stroke-miterlimit:4;stroke-dasharray:none;stroke-opacity:1"
             d="m 119.309,130.219 5.625,0 0,5.625 -5.625,0 0,-5.625 z" /><path
             id="path146"
             style="fill:#000000;fill-opacity:1;fill-rule:nonzero;stroke:none"
             d="m 119.309,117.719 5.625,0 0,5.625 -5.625,0 0,-5.625 z" /><path
             id="path148"
             style="fill:none;stroke:#ffffff;stroke-width:3.99993992;stroke-linecap:butt;stroke-linejoin:miter;stroke-miterlimit:4;stroke-dasharray:none;stroke-opacity:1"
             d="m 119.309,117.719 5.625,0 0,5.625 -5.625,0 0,-5.625 z" /><path
             id="path150"
             style="fill:#000000;fill-opacity:1;fill-rule:nonzero;stroke:none"
             d="m 119.309,105.219 5.625,0 0,5.625 -5.625,0 0,-5.625 z" /><path
             id="path152"
             style="fill:none;stroke:#ffffff;stroke-width:3.99993992;stroke-linecap:butt;stroke-linejoin:miter;stroke-miterlimit:4;stroke-dasharray:none;stroke-opacity:1"
             d="m 119.309,105.219 5.625,0 0,5.625 -5.625,0 0,-5.625 z" /><path
             id="path154"
             style="fill:#000000;fill-opacity:1;fill-rule:nonzero;stroke:none"
             d="m 119.309,92.7188 5.625,0 0,5.625 -5.625,0 0,-5.625 z" /><path
             id="path156"
             style="fill:none;stroke:#ffffff;stroke-width:3.99993992;stroke-linecap:butt;stroke-linejoin:miter;stroke-miterlimit:4;stroke-dasharray:none;stroke-opacity:1"
             d="m 119.309,92.7188 5.625,0 0,5.625 -5.625,0 0,-5.625 z" /><path
             id="path158"
             style="fill:#000000;fill-opacity:1;fill-rule:nonzero;stroke:none"
             d="m 131.809,130.219 5.625,0 0,5.625 -5.625,0 0,-5.625 z" /><path
             id="path160"
             style="fill:none;stroke:#ffffff;stroke-width:3.99993992;stroke-linecap:butt;stroke-linejoin:miter;stroke-miterlimit:4;stroke-dasharray:none;stroke-opacity:1"
             d="m 131.809,130.219 5.625,0 0,5.625 -5.625,0 0,-5.625 z" /><path
             id="path162"
             style="fill:#000000;fill-opacity:1;fill-rule:nonzero;stroke:none"
             d="m 131.809,117.719 5.625,0 0,5.625 -5.625,0 0,-5.625 z" /><path
             id="path164"
             style="fill:none;stroke:#ffffff;stroke-width:3.99993992;stroke-linecap:butt;stroke-linejoin:miter;stroke-miterlimit:4;stroke-dasharray:none;stroke-opacity:1"
             d="m 131.809,117.719 5.625,0 0,5.625 -5.625,0 0,-5.625 z" /><path
             id="path166"
             style="fill:#000000;fill-opacity:1;fill-rule:nonzero;stroke:none"
             d="m 131.809,105.219 5.625,0 0,5.625 -5.625,0 0,-5.625 z" /><path
             id="path168"
             style="fill:none;stroke:#ffffff;stroke-width:3.99993992;stroke-linecap:butt;stroke-linejoin:miter;stroke-miterlimit:4;stroke-dasharray:none;stroke-opacity:1"
             d="m 131.809,105.219 5.625,0 0,5.625 -5.625,0 0,-5.625 z" /><path
             id="path170"
             style="fill:#000000;fill-opacity:1;fill-rule:nonzero;stroke:none"
             d="m 131.809,92.7188 5.625,0 0,5.625 -5.625,0 0,-5.625 z" /><path
             id="path172"
             style="fill:none;stroke:#ffffff;stroke-width:3.99993992;stroke-linecap:butt;stroke-linejoin:miter;stroke-miterlimit:4;stroke-dasharray:none;stroke-opacity:1"
             d="m 131.809,92.7188 5.625,0 0,5.625 -5.625,0 0,-5.625 z" /></g></g></g></g></svg>