<?xml version="1.0" encoding="UTF-8" standalone="no"?>
<svg
   xmlns:dc="http://purl.org/dc/elements/1.1/"
   xmlns:cc="http://creativecommons.org/ns#"
   xmlns:rdf="http://www.w3.org/1999/02/22-rdf-syntax-ns#"
   xmlns:svg="http://www.w3.org/2000/svg"
   xmlns="http://www.w3.org/2000/svg"
   viewBox="0 0 33.75 33.75"
   height="33.75"
   width="33.75"
   xml:space="preserve"
   version="1.1"
   id="svg2"><metadata
     id="metadata8"><rdf:RDF><cc:Work
         rdf:about=""><dc:format>image/svg+xml</dc:format><dc:type
           rdf:resource="http://purl.org/dc/dcmitype/StillImage" /></cc:Work></rdf:RDF></metadata><defs
     id="defs6" /><g
     transform="matrix(1.25,0,0,-1.25,0,33.75)"
     id="g10"><g
       transform="scale(0.1,0.1)"
       id="g12"><path
         id="path14"
         style="fill:#02709f;fill-opacity:1;fill-rule:nonzero;stroke:none"
         d="m 5.46875,1.75 215.98,0 0,219.73 -215.98,0 0,-219.73 z" /><path
         id="path16"
         style="fill:none;stroke:#ffffff;stroke-width:3.99993992;stroke-linecap:butt;stroke-linejoin:miter;stroke-miterlimit:4;stroke-dasharray:none;stroke-opacity:1"
         d="m 5.46875,1.75 215.98,0 0,219.73 -215.98,0 0,-219.73 z" /><path
         id="path18"
         style="fill:none;stroke:#ffffff;stroke-width:3.99993992;stroke-linecap:butt;stroke-linejoin:miter;stroke-miterlimit:4;stroke-dasharray:none;stroke-opacity:1"
         d="m 118.441,147.969 66.438,0" /><path
         id="path20"
         style="fill:none;stroke:#ffffff;stroke-width:3.99993992;stroke-linecap:butt;stroke-linejoin:miter;stroke-miterlimit:4;stroke-dasharray:none;stroke-opacity:1"
         d="m 118.441,71.5195 66.438,0" /><path
         id="path22"
         style="fill:none;stroke:#ffffff;stroke-width:3.99993992;stroke-linecap:butt;stroke-linejoin:miter;stroke-miterlimit:4;stroke-dasharray:none;stroke-opacity:1"
         d="m 98.0898,109.449 0,66.449" /><path
         id="path24"
         style="fill:none;stroke:#ffffff;stroke-width:10;stroke-linecap:butt;stroke-linejoin:miter;stroke-miterlimit:4;stroke-dasharray:none;stroke-opacity:1"
         d="m 156.762,109.961 0,-66.4102" /><path
         id="path26"
         style="fill:none;stroke:#ffffff;stroke-width:3.99993992;stroke-linecap:butt;stroke-linejoin:miter;stroke-miterlimit:4;stroke-dasharray:none;stroke-opacity:1"
         d="m 81.0508,109.961 0,-66.4102" /><path
         id="path28"
         style="fill:none;stroke:#ffffff;stroke-width:3.99993992;stroke-linecap:butt;stroke-linejoin:miter;stroke-miterlimit:4;stroke-dasharray:none;stroke-opacity:1"
         d="m 119.41,147.809 -66.3983,0" /><path
         id="path30"
         style="fill:#02709f;fill-opacity:1;fill-rule:nonzero;stroke:none"
         d="m 265.699,265.23 0,-218.3511 -44.488,-44.99999 0,218.63309 44.488,44.718" /><path
         id="path32"
         style="fill:none;stroke:#ffffff;stroke-width:3.99993992;stroke-linecap:butt;stroke-linejoin:miter;stroke-miterlimit:4;stroke-dasharray:none;stroke-opacity:1"
         d="m 265.699,265.23 0,-218.3511 -44.488,-44.99999 0,218.63309 44.488,44.718 z" /><path
         id="path34"
         style="fill:#02709f;fill-opacity:1;fill-rule:nonzero;stroke:none"
         d="m 221.211,220.512 -0.512,1.25 -214.99978,0 54.49998,43.468 205.4998,0 -44.488,-44.718" /><path
         id="path36"
         style="fill:none;stroke:#ffffff;stroke-width:3.99993992;stroke-linecap:butt;stroke-linejoin:miter;stroke-miterlimit:4;stroke-dasharray:none;stroke-opacity:1"
         d="m 221.211,220.512 -0.512,1.25 -214.99978,0 54.49998,43.468 205.4998,0 -44.488,-44.718 z" /><path
         id="path38"
         style="fill:none;stroke:#ffffff;stroke-width:10;stroke-linecap:butt;stroke-linejoin:miter;stroke-miterlimit:4;stroke-dasharray:none;stroke-opacity:1"
         d="m 115.43,150.16 70.16,0" /><path
         id="path40"
         style="fill:#ffffff;fill-opacity:1;fill-rule:nonzero;stroke:none"
         d="m 184.301,170.121 0,-38.48 23.199,18.48 -23.199,20" /><path
         id="path42"
         style="fill:none;stroke:#ffffff;stroke-width:3.99993992;stroke-linecap:butt;stroke-linejoin:miter;stroke-miterlimit:4;stroke-dasharray:none;stroke-opacity:1"
         d="m 184.301,170.121 0,-38.48 23.199,18.48 -23.199,20 z" /><path
         id="path44"
         style="fill:none;stroke:#ffffff;stroke-width:10;stroke-linecap:butt;stroke-linejoin:miter;stroke-miterlimit:4;stroke-dasharray:none;stroke-opacity:1"
         d="m 115.43,73.7109 73.91,0" /><path
         id="path46"
         style="fill:#ffffff;fill-opacity:1;fill-rule:nonzero;stroke:none"
         d="m 184.301,93.9492 0,-38.4804 23.199,18.4804 -23.199,20" /><path
         id="path48"
         style="fill:none;stroke:#ffffff;stroke-width:3.99993992;stroke-linecap:butt;stroke-linejoin:miter;stroke-miterlimit:4;stroke-dasharray:none;stroke-opacity:1"
         d="m 184.301,93.9492 0,-38.4804 23.199,18.4804 -23.199,20 z" /><path
         id="path50"
         style="fill:none;stroke:#ffffff;stroke-width:10;stroke-linecap:butt;stroke-linejoin:miter;stroke-miterlimit:4;stroke-dasharray:none;stroke-opacity:1"
         d="m 95.0781,111.641 0,62.769" /><path
         id="path52"
         style="fill:none;stroke:#ffffff;stroke-width:10;stroke-linecap:butt;stroke-linejoin:miter;stroke-miterlimit:4;stroke-dasharray:none;stroke-opacity:1"
         d="m 134.879,109.449 0,66.449" /><path
         id="path54"
         style="fill:none;stroke:#ffffff;stroke-width:3.99993992;stroke-linecap:butt;stroke-linejoin:miter;stroke-miterlimit:4;stroke-dasharray:none;stroke-opacity:1"
         d="m 131.879,111.641 0,62.769" /><path
         id="path56"
         style="fill:none;stroke:#ffffff;stroke-width:3.99993992;stroke-linecap:butt;stroke-linejoin:miter;stroke-miterlimit:4;stroke-dasharray:none;stroke-opacity:1"
         d="m 153.75,112.148 0,-71.4488" /><path
         id="path58"
         style="fill:#ffffff;fill-opacity:1;fill-rule:nonzero;stroke:none"
         d="m 173.051,43.5508 -38.442,0 18.672,-23.1602 19.77,23.1602" /><path
         id="path60"
         style="fill:none;stroke:#ffffff;stroke-width:3.99993992;stroke-linecap:butt;stroke-linejoin:miter;stroke-miterlimit:4;stroke-dasharray:none;stroke-opacity:1"
         d="m 173.051,43.5508 -38.442,0 18.672,-23.1602 19.77,23.1602 z" /><path
         id="path62"
         style="fill:none;stroke:#ffffff;stroke-width:10;stroke-linecap:butt;stroke-linejoin:miter;stroke-miterlimit:4;stroke-dasharray:none;stroke-opacity:1"
         d="m 78.0117,112.148 0,-71.4488" /><path
         id="path64"
         style="fill:#ffffff;fill-opacity:1;fill-rule:nonzero;stroke:none"
         d="m 97.7305,43.5508 -38.4688,0 18.668,-23.1602 19.8008,23.1602" /><path
         id="path66"
         style="fill:none;stroke:#ffffff;stroke-width:3.99993992;stroke-linecap:butt;stroke-linejoin:miter;stroke-miterlimit:4;stroke-dasharray:none;stroke-opacity:1"
         d="m 97.7305,43.5508 -38.4688,0 18.668,-23.1602 19.8008,23.1602 z" /><path
         id="path68"
         style="fill:none;stroke:#ffffff;stroke-width:10;stroke-linecap:butt;stroke-linejoin:miter;stroke-miterlimit:4;stroke-dasharray:none;stroke-opacity:1"
         d="m 116.41,73.7109 -71.4491,0" /><path
         id="path70"
         style="fill:#ffffff;fill-opacity:1;fill-rule:nonzero;stroke:none"
         d="m 47.2695,53.5195 0,38.4297 -23.1679,-18.4297 23.1679,-20" /><path
         id="path72"
         style="fill:none;stroke:#ffffff;stroke-width:3.99993992;stroke-linecap:butt;stroke-linejoin:miter;stroke-miterlimit:4;stroke-dasharray:none;stroke-opacity:1"
         d="m 47.2695,53.5195 0,38.4297 -23.1679,-18.4297 23.1679,-20 z" /><path
         id="path74"
         style="fill:none;stroke:#ffffff;stroke-width:10;stroke-linecap:butt;stroke-linejoin:miter;stroke-miterlimit:4;stroke-dasharray:none;stroke-opacity:1"
         d="m 116.41,149.961 -71.4491,0" /><path
         id="path76"
         style="fill:#ffffff;fill-opacity:1;fill-rule:nonzero;stroke:none"
         d="m 47.2695,129.77 0,38.429 -23.1679,-18.429 23.1679,-20" /><path
         id="path78"
         style="fill:none;stroke:#ffffff;stroke-width:3.99993992;stroke-linecap:butt;stroke-linejoin:miter;stroke-miterlimit:4;stroke-dasharray:none;stroke-opacity:1"
         d="m 47.2695,129.77 0,38.429 -23.1679,-18.429 23.1679,-20 z" /><path
         id="path80"
         style="fill:#02709f;fill-opacity:1;fill-rule:nonzero;stroke:none"
         d="m 115.469,65.6211 c 25.351,0 45.902,20.5078 45.902,45.8589 0,25.36 -20.551,45.899 -45.902,45.899 -25.3479,0 -45.8987,-20.539 -45.8987,-45.899 0,-25.3511 20.5508,-45.8589 45.8987,-45.8589" /><path
         id="path82"
         style="fill:none;stroke:#ffffff;stroke-width:3.99993992;stroke-linecap:butt;stroke-linejoin:miter;stroke-miterlimit:4;stroke-dasharray:none;stroke-opacity:1"
         d="m 115.469,65.6211 c 25.351,0 45.902,20.5078 45.902,45.8589 0,25.36 -20.551,45.899 -45.902,45.899 -25.3479,0 -45.8987,-20.539 -45.8987,-45.899 0,-25.3511 20.5508,-45.8589 45.8987,-45.8589 z" /><path
         id="path84"
         style="fill:#ffffff;fill-opacity:1;fill-rule:nonzero;stroke:none"
         d="m 178.012,175.621 c 1.328,0 2.418,1.098 2.418,2.43 l 0,22.969 c 0,1.32 -1.09,2.421 -2.418,2.421 l -122.3518,0 c -1.3594,0 -2.4219,-1.101 -2.4219,-2.421 l 0,-22.969 c 0,-1.332 1.0625,-2.43 2.4219,-2.43 l 22.7812,0 0,8.008 72.8086,0 0,-8.008 26.762,0" /><path
         id="path86"
         style="fill:none;stroke:#ffffff;stroke-width:3.99993992;stroke-linecap:butt;stroke-linejoin:miter;stroke-miterlimit:4;stroke-dasharray:none;stroke-opacity:1"
         d="m 178.012,175.621 c 1.328,0 2.418,1.098 2.418,2.43 l 0,22.969 c 0,1.32 -1.09,2.421 -2.418,2.421 l -122.3518,0 c -1.3594,0 -2.4219,-1.101 -2.4219,-2.421 l 0,-22.969 c 0,-1.332 1.0625,-2.43 2.4219,-2.43 l 22.7812,0 0,8.008 72.8086,0 0,-8.008 26.762,0 z" /><path
         id="path88"
         style="fill:#000000;fill-opacity:1;fill-rule:nonzero;stroke:none"
         d="m 94.3008,127.23 5.62109,0 0,5.62109 -5.62109,0 0,-5.62109 z" /><path
         id="path90"
         style="fill:none;stroke:#ffffff;stroke-width:3.99993992;stroke-linecap:butt;stroke-linejoin:miter;stroke-miterlimit:4;stroke-dasharray:none;stroke-opacity:1"
         d="m 94.3008,127.23 5.62109,0 0,5.62109 -5.62109,0 0,-5.62109 z" /><path
         id="path92"
         style="fill:#000000;fill-opacity:1;fill-rule:nonzero;stroke:none"
         d="m 94.3008,114.73 5.62109,0 0,5.62109 -5.62109,0 0,-5.62109 z" /><path
         id="path94"
         style="fill:none;stroke:#ffffff;stroke-width:3.99993992;stroke-linecap:butt;stroke-linejoin:miter;stroke-miterlimit:4;stroke-dasharray:none;stroke-opacity:1"
         d="m 94.3008,114.73 5.62109,0 0,5.62109 -5.62109,0 0,-5.62109 z" /><path
         id="path96"
         style="fill:#000000;fill-opacity:1;fill-rule:nonzero;stroke:none"
         d="m 94.3008,102.23 5.62109,0 0,5.62109 -5.62109,0 0,-5.62109 z" /><path
         id="path98"
         style="fill:none;stroke:#ffffff;stroke-width:3.99993992;stroke-linecap:butt;stroke-linejoin:miter;stroke-miterlimit:4;stroke-dasharray:none;stroke-opacity:1"
         d="m 94.3008,102.23 5.62109,0 0,5.62109 -5.62109,0 0,-5.62109 z" /><path
         id="path100"
         style="fill:#000000;fill-opacity:1;fill-rule:nonzero;stroke:none"
         d="m 94.3008,89.7305 5.62109,0 0,5.62109 -5.62109,0 0,-5.62109 z" /><path
         id="path102"
         style="fill:none;stroke:#ffffff;stroke-width:3.99993992;stroke-linecap:butt;stroke-linejoin:miter;stroke-miterlimit:4;stroke-dasharray:none;stroke-opacity:1"
         d="m 94.3008,89.7305 5.62109,0 0,5.62109 -5.62109,0 0,-5.62109 z" /><path
         id="path104"
         style="fill:#000000;fill-opacity:1;fill-rule:nonzero;stroke:none"
         d="m 106.801,127.23 5.62109,0 0,5.62109 -5.62109,0 0,-5.62109 z" /><path
         id="path106"
         style="fill:none;stroke:#ffffff;stroke-width:3.99993992;stroke-linecap:butt;stroke-linejoin:miter;stroke-miterlimit:4;stroke-dasharray:none;stroke-opacity:1"
         d="m 106.801,127.23 5.62109,0 0,5.62109 -5.62109,0 0,-5.62109 z" /><path
         id="path108"
         style="fill:#000000;fill-opacity:1;fill-rule:nonzero;stroke:none"
         d="m 106.801,114.73 5.62109,0 0,5.62109 -5.62109,0 0,-5.62109 z" /><path
         id="path110"
         style="fill:none;stroke:#ffffff;stroke-width:3.99993992;stroke-linecap:butt;stroke-linejoin:miter;stroke-miterlimit:4;stroke-dasharray:none;stroke-opacity:1"
         d="m 106.801,114.73 5.62109,0 0,5.62109 -5.62109,0 0,-5.62109 z" /><path
         id="path112"
         style="fill:#000000;fill-opacity:1;fill-rule:nonzero;stroke:none"
         d="m 106.801,102.23 5.62109,0 0,5.62109 -5.62109,0 0,-5.62109 z" /><path
         id="path114"
         style="fill:none;stroke:#ffffff;stroke-width:3.99993992;stroke-linecap:butt;stroke-linejoin:miter;stroke-miterlimit:4;stroke-dasharray:none;stroke-opacity:1"
         d="m 106.801,102.23 5.62109,0 0,5.62109 -5.62109,0 0,-5.62109 z" /><path
         id="path116"
         style="fill:#000000;fill-opacity:1;fill-rule:nonzero;stroke:none"
         d="m 106.801,89.7305 5.62109,0 0,5.62109 -5.62109,0 0,-5.62109 z" /><path
         id="path118"
         style="fill:none;stroke:#ffffff;stroke-width:3.99993992;stroke-linecap:butt;stroke-linejoin:miter;stroke-miterlimit:4;stroke-dasharray:none;stroke-opacity:1"
         d="m 106.801,89.7305 5.62109,0 0,5.62109 -5.62109,0 0,-5.62109 z" /><path
         id="path120"
         style="fill:#000000;fill-opacity:1;fill-rule:nonzero;stroke:none"
         d="m 119.301,127.23 5.62109,0 0,5.62109 -5.62109,0 0,-5.62109 z" /><path
         id="path122"
         style="fill:none;stroke:#ffffff;stroke-width:3.99993992;stroke-linecap:butt;stroke-linejoin:miter;stroke-miterlimit:4;stroke-dasharray:none;stroke-opacity:1"
         d="m 119.301,127.23 5.62109,0 0,5.62109 -5.62109,0 0,-5.62109 z" /><path
         id="path124"
         style="fill:#000000;fill-opacity:1;fill-rule:nonzero;stroke:none"
         d="m 119.301,114.73 5.62109,0 0,5.62109 -5.62109,0 0,-5.62109 z" /><path
         id="path126"
         style="fill:none;stroke:#ffffff;stroke-width:3.99993992;stroke-linecap:butt;stroke-linejoin:miter;stroke-miterlimit:4;stroke-dasharray:none;stroke-opacity:1"
         d="m 119.301,114.73 5.62109,0 0,5.62109 -5.62109,0 0,-5.62109 z" /><path
         id="path128"
         style="fill:#000000;fill-opacity:1;fill-rule:nonzero;stroke:none"
         d="m 119.301,102.23 5.62109,0 0,5.62109 -5.62109,0 0,-5.62109 z" /><path
         id="path130"
         style="fill:none;stroke:#ffffff;stroke-width:3.99993992;stroke-linecap:butt;stroke-linejoin:miter;stroke-miterlimit:4;stroke-dasharray:none;stroke-opacity:1"
         d="m 119.301,102.23 5.62109,0 0,5.62109 -5.62109,0 0,-5.62109 z" /><path
         id="path132"
         style="fill:#000000;fill-opacity:1;fill-rule:nonzero;stroke:none"
         d="m 119.301,89.7305 5.62109,0 0,5.62109 -5.62109,0 0,-5.62109 z" /><path
         id="path134"
         style="fill:none;stroke:#ffffff;stroke-width:3.99993992;stroke-linecap:butt;stroke-linejoin:miter;stroke-miterlimit:4;stroke-dasharray:none;stroke-opacity:1"
         d="m 119.301,89.7305 5.62109,0 0,5.62109 -5.62109,0 0,-5.62109 z" /><path
         id="path136"
         style="fill:#000000;fill-opacity:1;fill-rule:nonzero;stroke:none"
         d="m 131.801,127.23 5.62109,0 0,5.62109 -5.62109,0 0,-5.62109 z" /><path
         id="path138"
         style="fill:none;stroke:#ffffff;stroke-width:3.99993992;stroke-linecap:butt;stroke-linejoin:miter;stroke-miterlimit:4;stroke-dasharray:none;stroke-opacity:1"
         d="m 131.801,127.23 5.62109,0 0,5.62109 -5.62109,0 0,-5.62109 z" /><path
         id="path140"
         style="fill:#000000;fill-opacity:1;fill-rule:nonzero;stroke:none"
         d="m 131.801,114.73 5.62109,0 0,5.62109 -5.62109,0 0,-5.62109 z" /><path
         id="path142"
         style="fill:none;stroke:#ffffff;stroke-width:3.99993992;stroke-linecap:butt;stroke-linejoin:miter;stroke-miterlimit:4;stroke-dasharray:none;stroke-opacity:1"
         d="m 131.801,114.73 5.62109,0 0,5.62109 -5.62109,0 0,-5.62109 z" /><path
         id="path144"
         style="fill:#000000;fill-opacity:1;fill-rule:nonzero;stroke:none"
         d="m 131.801,102.23 5.62109,0 0,5.62109 -5.62109,0 0,-5.62109 z" /><path
         id="path146"
         style="fill:none;stroke:#ffffff;stroke-width:3.99993992;stroke-linecap:butt;stroke-linejoin:miter;stroke-miterlimit:4;stroke-dasharray:none;stroke-opacity:1"
         d="m 131.801,102.23 5.62109,0 0,5.62109 -5.62109,0 0,-5.62109 z" /><path
         id="path148"
         style="fill:#000000;fill-opacity:1;fill-rule:nonzero;stroke:none"
         d="m 131.801,89.7305 5.62109,0 0,5.62109 -5.62109,0 0,-5.62109 z" /><path
         id="path150"
         style="fill:none;stroke:#ffffff;stroke-width:3.99993992;stroke-linecap:butt;stroke-linejoin:miter;stroke-miterlimit:4;stroke-dasharray:none;stroke-opacity:1"
         d="m 131.801,89.7305 5.62109,0 0,5.62109 -5.62109,0 0,-5.62109 z" /></g></g></svg>