<?xml version="1.0" encoding="UTF-8" standalone="no"?>
<svg
   xmlns:dc="http://purl.org/dc/elements/1.1/"
   xmlns:cc="http://creativecommons.org/ns#"
   xmlns:rdf="http://www.w3.org/1999/02/22-rdf-syntax-ns#"
   xmlns:svg="http://www.w3.org/2000/svg"
   xmlns="http://www.w3.org/2000/svg"
   viewBox="0 0 45.924999 26.75"
   height="26.75"
   width="45.924999"
   xml:space="preserve"
   version="1.1"
   id="svg2"><metadata
     id="metadata8"><rdf:RDF><cc:Work
         rdf:about=""><dc:format>image/svg+xml</dc:format><dc:type
           rdf:resource="http://purl.org/dc/dcmitype/StillImage" /></cc:Work></rdf:RDF></metadata><defs
     id="defs6"><clipPath
       id="clipPath18"
       clipPathUnits="userSpaceOnUse"><path
         id="path20"
         d="M 0,3 0,214 367,214 367,3 0,3 Z" /></clipPath></defs><g
     transform="matrix(1.25,0,0,-1.25,0,26.75)"
     id="g10"><g
       transform="scale(0.1,0.1)"
       id="g12"><g
         id="g14"><g
           clip-path="url(#clipPath18)"
           id="g16"><path
             id="path22"
             style="fill:#087fbf;fill-opacity:1;fill-rule:nonzero;stroke:none"
             d="m 4.82813,4 330.742,0 0,178.133 -330.742,0 0,-178.133 z" /><path
             id="path24"
             style="fill:none;stroke:#ffffff;stroke-width:4;stroke-linecap:butt;stroke-linejoin:miter;stroke-miterlimit:4;stroke-dasharray:none;stroke-opacity:1"
             d="m 4.82813,4 330.742,0 0,178.133 -330.742,0 0,-178.133 z" /><path
             id="path26"
             style="fill:#087fbf;fill-opacity:1;fill-rule:nonzero;stroke:none"
             d="m 4.82813,4 330.742,0 0,178.133 -330.742,0 0,-178.133 z" /><path
             id="path28"
             style="fill:none;stroke:#ffffff;stroke-width:4;stroke-linecap:butt;stroke-linejoin:miter;stroke-miterlimit:4;stroke-dasharray:none;stroke-opacity:1"
             d="m 335.57,4 0,178.133 -330.74187,0 L 4.82813,4 335.57,4" /><path
             id="path30"
             style="fill:#087fbf;fill-opacity:1;fill-rule:nonzero;stroke:none"
             d="m 4.82813,182.133 26.99217,27.004 330.7427,0 -26.993,-27.004 -330.74187,0" /><path
             id="path32"
             style="fill:none;stroke:#ffffff;stroke-width:4;stroke-linecap:butt;stroke-linejoin:miter;stroke-miterlimit:4;stroke-dasharray:none;stroke-opacity:1"
             d="m 4.82813,182.133 26.99217,27.004 330.7427,0 -26.993,-27.004 -330.74187,0 z" /><path
             id="path34"
             style="fill:#087fbf;fill-opacity:1;fill-rule:nonzero;stroke:none"
             d="m 4.82813,182.133 26.99217,27.004 330.7427,0 -26.993,-27.004 -330.74187,0" /><path
             id="path36"
             style="fill:none;stroke:#ffffff;stroke-width:4;stroke-linecap:butt;stroke-linejoin:miter;stroke-miterlimit:4;stroke-dasharray:none;stroke-opacity:1"
             d="m 4.82813,182.133 26.99217,27.004 330.7427,0 -26.993,-27.004 -330.74187,0" /><path
             id="path38"
             style="fill:#087fbf;fill-opacity:1;fill-rule:nonzero;stroke:none"
             d="m 335.57,4 26.993,20.2422 0,184.8948 L 335.57,182.133 335.57,4" /><path
             id="path40"
             style="fill:none;stroke:#ffffff;stroke-width:4;stroke-linecap:butt;stroke-linejoin:miter;stroke-miterlimit:4;stroke-dasharray:none;stroke-opacity:1"
             d="m 335.57,4 26.993,20.2422 0,184.8948 L 335.57,182.133 335.57,4 Z" /><path
             id="path42"
             style="fill:#087fbf;fill-opacity:1;fill-rule:nonzero;stroke:none"
             d="m 335.57,4 26.993,20.2422 0,184.8948 L 335.57,182.133 335.57,4" /><path
             id="path44"
             style="fill:none;stroke:#ffffff;stroke-width:4;stroke-linecap:butt;stroke-linejoin:miter;stroke-miterlimit:4;stroke-dasharray:none;stroke-opacity:1"
             d="m 335.57,4 26.993,20.2422 0,184.8948 L 335.57,182.133 335.57,4" /><path
             id="path46"
             style="fill:#087fbf;fill-opacity:1;fill-rule:evenodd;stroke:none"
             d="m 31.8203,121.391 0,-60.7621 6.7383,-6.7383 60.7617,0 6.7387,6.7383 0,60.7621 -6.7387,6.738 -60.7617,0 -6.7383,-6.738" /><path
             id="path48"
             style="fill:none;stroke:#ffffff;stroke-width:4;stroke-linecap:butt;stroke-linejoin:miter;stroke-miterlimit:4;stroke-dasharray:none;stroke-opacity:1"
             d="m 31.8203,121.391 0,-60.7621 6.7383,-6.7383 60.7617,0 6.7387,6.7383 0,60.7621 -6.7387,6.738 -60.7617,0 -6.7383,-6.738 z" /><path
             id="path50"
             style="fill:#087fbf;fill-opacity:1;fill-rule:nonzero;stroke:none"
             d="m 31.8203,121.391 0,-60.7621 6.7383,-6.7383 60.7617,0 6.7387,6.7383 0,60.7621 -6.7387,6.738 -60.7617,0 -6.7383,-6.738" /><path
             id="path52"
             style="fill:none;stroke:#ffffff;stroke-width:4;stroke-linecap:butt;stroke-linejoin:miter;stroke-miterlimit:4;stroke-dasharray:none;stroke-opacity:1"
             d="m 31.8203,121.391 0,-60.7621 6.7383,-6.7383 60.7617,0 6.7387,6.7383 0,60.7621 -6.7387,6.738 -60.7617,0 -6.7383,-6.738" /><path
             id="path54"
             style="fill:#087fbf;fill-opacity:1;fill-rule:nonzero;stroke:none"
             d="m 31.8203,121.391 6.7383,-6.758 33.75,-6.746 27.0117,6.746 6.7387,6.758" /><path
             id="path56"
             style="fill:none;stroke:#ffffff;stroke-width:4;stroke-linecap:butt;stroke-linejoin:miter;stroke-miterlimit:4;stroke-dasharray:none;stroke-opacity:1"
             d="m 31.8203,121.391 6.7383,-6.758 33.75,-6.746 27.0117,6.746 6.7387,6.758" /><path
             id="path58"
             style="fill:#087fbf;fill-opacity:1;fill-rule:evenodd;stroke:none"
             d="m 133.066,121.391 0,-60.7621 6.739,-6.7383 60.765,0 6.739,6.7383 0,60.7621 -6.739,6.738 -60.765,0 -6.739,-6.738" /><path
             id="path60"
             style="fill:none;stroke:#ffffff;stroke-width:4;stroke-linecap:butt;stroke-linejoin:miter;stroke-miterlimit:4;stroke-dasharray:none;stroke-opacity:1"
             d="m 133.066,121.391 0,-60.7621 6.739,-6.7383 60.765,0 6.739,6.7383 0,60.7621 -6.739,6.738 -60.765,0 -6.739,-6.738 z" /><path
             id="path62"
             style="fill:#087fbf;fill-opacity:1;fill-rule:nonzero;stroke:none"
             d="m 133.066,121.391 0,-60.7621 6.739,-6.7383 60.765,0 6.739,6.7383 0,60.7621 -6.739,6.738 -60.765,0 -6.739,-6.738" /><path
             id="path64"
             style="fill:none;stroke:#ffffff;stroke-width:4;stroke-linecap:butt;stroke-linejoin:miter;stroke-miterlimit:4;stroke-dasharray:none;stroke-opacity:1"
             d="m 133.066,121.391 0,-60.7621 6.739,-6.7383 60.765,0 6.739,6.7383 0,60.7621 -6.739,6.738 -60.765,0 -6.739,-6.738" /><path
             id="path66"
             style="fill:#087fbf;fill-opacity:1;fill-rule:nonzero;stroke:none"
             d="m 133.066,121.391 6.739,-6.758 33.758,-6.746 27.007,6.746 6.739,6.758" /><path
             id="path68"
             style="fill:none;stroke:#ffffff;stroke-width:4;stroke-linecap:butt;stroke-linejoin:miter;stroke-miterlimit:4;stroke-dasharray:none;stroke-opacity:1"
             d="m 133.066,121.391 6.739,-6.758 33.758,-6.746 27.007,6.746 6.739,6.758" /><path
             id="path70"
             style="fill:#087fbf;fill-opacity:1;fill-rule:evenodd;stroke:none"
             d="m 234.32,114.633 0,-54.0041 6.739,-6.7383 33.75,-6.7578 27.011,6.7578 6.739,6.7383 0,54.0041 -6.739,6.758 -27.011,6.738 -33.75,-6.738 -6.739,-6.758" /><path
             id="path72"
             style="fill:none;stroke:#ffffff;stroke-width:4;stroke-linecap:butt;stroke-linejoin:miter;stroke-miterlimit:4;stroke-dasharray:none;stroke-opacity:1"
             d="m 234.32,114.633 0,-54.0041 6.739,-6.7383 33.75,-6.7578 27.011,6.7578 6.739,6.7383 0,54.0041 -6.739,6.758 -27.011,6.738 -33.75,-6.738 -6.739,-6.758 z" /><path
             id="path74"
             style="fill:#087fbf;fill-opacity:1;fill-rule:nonzero;stroke:none"
             d="m 234.32,114.633 0,-54.0041 6.739,-6.7383 33.75,-6.7578 27.011,6.7578 6.739,6.7383 0,54.0041 -6.739,6.758 -27.011,6.738 -33.75,-6.738 -6.739,-6.758" /><path
             id="path76"
             style="fill:none;stroke:#ffffff;stroke-width:4;stroke-linecap:butt;stroke-linejoin:miter;stroke-miterlimit:4;stroke-dasharray:none;stroke-opacity:1"
             d="m 234.32,114.633 0,-54.0041 6.739,-6.7383 33.75,-6.7578 27.011,6.7578 6.739,6.7383 0,54.0041 -6.739,6.758 -27.011,6.738 -33.75,-6.738 -6.739,-6.758" /><path
             id="path78"
             style="fill:#087fbf;fill-opacity:1;fill-rule:nonzero;stroke:none"
             d="m 234.32,114.633 6.739,-6.746 60.761,0 6.739,6.746" /><path
             id="path80"
             style="fill:none;stroke:#ffffff;stroke-width:4;stroke-linecap:butt;stroke-linejoin:miter;stroke-miterlimit:4;stroke-dasharray:none;stroke-opacity:1"
             d="m 234.32,114.633 6.739,-6.746 60.761,0 6.739,6.746" /></g></g></g></g></svg>