<svg xmlns="http://www.w3.org/2000/svg" viewBox="0 0 46.25 28.75" height="28.75" width="46.25"><defs><clipPath id="a"><path d="M0 9v212h367V9H0z"/></clipPath></defs><g clip-path="url(#a)" transform="matrix(.13 0 0 -.13 0 28.75)"><path d="M4.84 11.008h330.738v178.117H4.84V11.008z" fill="#087fbf"/><path d="M4.84 11.008h330.738v178.117H4.84V11.008z" fill="none" stroke="#fff" stroke-width="4"/><path d="M4.84 11.008h330.738v178.117H4.84V11.008z" fill="#087fbf"/><path d="M4.84 11.008h330.738v178.117H4.84V11.008z" fill="none" stroke="#fff" stroke-width="4"/><path d="M4.84 189.125l27 27h330.738l-26.988-27H4.84" fill="#087fbf"/><path d="M4.84 189.125l27 27h330.738l-26.988-27H4.84z" fill="none" stroke="#fff" stroke-width="4"/><path d="M4.84 189.125l27 27h330.738l-26.988-27H4.84" fill="#087fbf"/><path d="M4.84 189.125l27 27h330.738l-26.988-27H4.84" fill="none" stroke="#fff" stroke-width="4"/><path d="M335.59 11.008l26.988 20.23v184.887l-26.988-27V11.008" fill="#087fbf"/><path d="M335.59 11.008l26.988 20.23v184.887l-26.988-27V11.008z" fill="none" stroke="#fff" stroke-width="4"/><path d="M335.59 11.008l26.988 20.23v184.887l-26.988-27V11.008" fill="#087fbf"/><path d="M335.59 11.008l26.988 20.23v184.887l-26.988-27V11.008" fill="none" stroke="#fff" stroke-width="4"/><path d="M31.84 128.387V67.648l6.71-6.761h60.79l6.711 6.761v60.739l-6.711 6.761H38.55l-6.71-6.761" fill="#087fbf" fill-rule="evenodd"/><path d="M31.84 128.387V67.648l6.71-6.761h60.79l6.711 6.761v60.739l-6.711 6.761H38.55l-6.71-6.761z" fill="none" stroke="#fff" stroke-width="4"/><path d="M31.84 128.387V67.648l6.71-6.761h60.79l6.711 6.761v60.739l-6.711 6.761H38.55l-6.71-6.761" fill="#087fbf"/><path d="M31.84 128.387V67.648l6.71-6.761h60.79l6.711 6.761v60.739l-6.711 6.761H38.55l-6.71-6.761" fill="none" stroke="#fff" stroke-width="4"/><path d="M31.84 128.387l6.71-6.762 33.75-6.75 27.04 6.75 6.711 6.762" fill="#087fbf"/><path d="M31.84 128.387l6.71-6.762 33.75-6.75 27.04 6.75 6.711 6.762" fill="none" stroke="#fff" stroke-width="4"/><path d="M133.051 128.387V67.648l6.75-6.761h60.789l6.711 6.761v60.739l-6.711 6.761h-60.789l-6.75-6.761" fill="#087fbf" fill-rule="evenodd"/><path d="M133.051 128.387V67.648l6.75-6.761h60.789l6.711 6.761v60.739l-6.711 6.761h-60.789l-6.75-6.761z" fill="none" stroke="#fff" stroke-width="4"/><path d="M133.051 128.387V67.648l6.75-6.761h60.789l6.711 6.761v60.739l-6.711 6.761h-60.789l-6.75-6.761" fill="#087fbf"/><path d="M133.051 128.387V67.648l6.75-6.761h60.789l6.711 6.761v60.739l-6.711 6.761h-60.789l-6.75-6.761" fill="none" stroke="#fff" stroke-width="4"/><path d="M133.051 128.387l6.75-6.762 33.75-6.75 27.039 6.75 6.711 6.762" fill="#087fbf"/><path d="M133.051 128.387l6.75-6.762 33.75-6.75 27.039 6.75 6.711 6.762" fill="none" stroke="#fff" stroke-width="4"/><path d="M234.34 121.625V67.648l6.711-6.761 33.75-6.762 27.039 6.762 6.711 6.761v53.977l-6.711 6.762-27.039 6.761-33.75-6.761-6.711-6.762" fill="#087fbf" fill-rule="evenodd"/><path d="M234.34 121.625V67.648l6.711-6.761 33.75-6.762 27.039 6.762 6.711 6.761v53.977l-6.711 6.762-27.039 6.761-33.75-6.761-6.711-6.762z" fill="none" stroke="#fff" stroke-width="4"/><path d="M234.34 121.625V67.648l6.711-6.761 33.75-6.762 27.039 6.762 6.711 6.761v53.977l-6.711 6.762-27.039 6.761-33.75-6.761-6.711-6.762" fill="#087fbf"/><path d="M234.34 121.625V67.648l6.711-6.761 33.75-6.762 27.039 6.762 6.711 6.761v53.977l-6.711 6.762-27.039 6.761-33.75-6.761-6.711-6.762" fill="none" stroke="#fff" stroke-width="4"/><path d="M234.34 121.625l6.711-6.75h60.789l6.711 6.75" fill="#087fbf"/><path d="M234.34 121.625l6.711-6.75h60.789l6.711 6.75" fill="none" stroke="#fff" stroke-width="4"/></g></svg>