<?xml version="1.0" encoding="UTF-8" standalone="no"?>
<svg
   xmlns:dc="http://purl.org/dc/elements/1.1/"
   xmlns:cc="http://creativecommons.org/ns#"
   xmlns:rdf="http://www.w3.org/1999/02/22-rdf-syntax-ns#"
   xmlns:svg="http://www.w3.org/2000/svg"
   xmlns="http://www.w3.org/2000/svg"
   viewBox="0 0 46.25 28.75"
   height="28.75"
   width="46.25"
   xml:space="preserve"
   version="1.1"
   id="svg2"><metadata
     id="metadata8"><rdf:RDF><cc:Work
         rdf:about=""><dc:format>image/svg+xml</dc:format><dc:type
           rdf:resource="http://purl.org/dc/dcmitype/StillImage" /></cc:Work></rdf:RDF></metadata><defs
     id="defs6"><clipPath
       id="clipPath18"
       clipPathUnits="userSpaceOnUse"><path
         id="path20"
         d="M 0,9 0,221 367,221 367,9 0,9 Z" /></clipPath></defs><g
     transform="matrix(1.25,0,0,-1.25,0,28.75)"
     id="g10"><g
       transform="scale(0.1,0.1)"
       id="g12"><g
         id="g14"><g
           clip-path="url(#clipPath18)"
           id="g16"><path
             id="path22"
             style="fill:#087fbf;fill-opacity:1;fill-rule:nonzero;stroke:none"
             d="m 4.83984,11.0078 330.738,0 0,178.117 -330.738,0 0,-178.117 z" /><path
             id="path24"
             style="fill:none;stroke:#ffffff;stroke-width:4;stroke-linecap:butt;stroke-linejoin:miter;stroke-miterlimit:4;stroke-dasharray:none;stroke-opacity:1"
             d="m 4.83984,11.0078 330.738,0 0,178.117 -330.738,0 0,-178.117 z" /><path
             id="path26"
             style="fill:#087fbf;fill-opacity:1;fill-rule:nonzero;stroke:none"
             d="m 4.83984,11.0078 330.738,0 0,178.117 -330.738,0 0,-178.117 z" /><path
             id="path28"
             style="fill:none;stroke:#ffffff;stroke-width:4;stroke-linecap:butt;stroke-linejoin:miter;stroke-miterlimit:4;stroke-dasharray:none;stroke-opacity:1"
             d="m 4.83984,11.0078 330.738,0 0,178.117 -330.738,0 0,-178.117 z" /><path
             id="path30"
             style="fill:#087fbf;fill-opacity:1;fill-rule:nonzero;stroke:none"
             d="m 4.83984,189.125 26.99996,27 330.7382,0 -26.988,-27 -330.75016,0" /><path
             id="path32"
             style="fill:none;stroke:#ffffff;stroke-width:4;stroke-linecap:butt;stroke-linejoin:miter;stroke-miterlimit:4;stroke-dasharray:none;stroke-opacity:1"
             d="m 4.83984,189.125 26.99996,27 330.7382,0 -26.988,-27 -330.75016,0 z" /><path
             id="path34"
             style="fill:#087fbf;fill-opacity:1;fill-rule:nonzero;stroke:none"
             d="m 4.83984,189.125 26.99996,27 330.7382,0 -26.988,-27 -330.75016,0" /><path
             id="path36"
             style="fill:none;stroke:#ffffff;stroke-width:4;stroke-linecap:butt;stroke-linejoin:miter;stroke-miterlimit:4;stroke-dasharray:none;stroke-opacity:1"
             d="m 4.83984,189.125 26.99996,27 330.7382,0 -26.988,-27 -330.75016,0" /><path
             id="path38"
             style="fill:#087fbf;fill-opacity:1;fill-rule:nonzero;stroke:none"
             d="m 335.59,11.0078 26.988,20.2305 0,184.8867 -26.988,-27 0,-178.1172" /><path
             id="path40"
             style="fill:none;stroke:#ffffff;stroke-width:4;stroke-linecap:butt;stroke-linejoin:miter;stroke-miterlimit:4;stroke-dasharray:none;stroke-opacity:1"
             d="m 335.59,11.0078 26.988,20.2305 0,184.8867 -26.988,-27 0,-178.1172 z" /><path
             id="path42"
             style="fill:#087fbf;fill-opacity:1;fill-rule:nonzero;stroke:none"
             d="m 335.59,11.0078 26.988,20.2305 0,184.8867 -26.988,-27 0,-178.1172" /><path
             id="path44"
             style="fill:none;stroke:#ffffff;stroke-width:4;stroke-linecap:butt;stroke-linejoin:miter;stroke-miterlimit:4;stroke-dasharray:none;stroke-opacity:1"
             d="m 335.59,11.0078 26.988,20.2305 0,184.8867 -26.988,-27 0,-178.1172" /><path
             id="path46"
             style="fill:#087fbf;fill-opacity:1;fill-rule:evenodd;stroke:none"
             d="m 31.8398,128.387 0,-60.7386 6.711,-6.7617 60.789,0 6.7112,6.7617 0,60.7386 -6.7112,6.761 -60.789,0 -6.711,-6.761" /><path
             id="path48"
             style="fill:none;stroke:#ffffff;stroke-width:4;stroke-linecap:butt;stroke-linejoin:miter;stroke-miterlimit:4;stroke-dasharray:none;stroke-opacity:1"
             d="m 31.8398,128.387 0,-60.7386 6.711,-6.7617 60.789,0 6.7112,6.7617 0,60.7386 -6.7112,6.761 -60.789,0 -6.711,-6.761 z" /><path
             id="path50"
             style="fill:#087fbf;fill-opacity:1;fill-rule:nonzero;stroke:none"
             d="m 31.8398,128.387 0,-60.7386 6.711,-6.7617 60.789,0 6.7112,6.7617 0,60.7386 -6.7112,6.761 -60.789,0 -6.711,-6.761" /><path
             id="path52"
             style="fill:none;stroke:#ffffff;stroke-width:4;stroke-linecap:butt;stroke-linejoin:miter;stroke-miterlimit:4;stroke-dasharray:none;stroke-opacity:1"
             d="m 31.8398,128.387 0,-60.7386 6.711,-6.7617 60.789,0 6.7112,6.7617 0,60.7386 -6.7112,6.761 -60.789,0 -6.711,-6.761" /><path
             id="path54"
             style="fill:#087fbf;fill-opacity:1;fill-rule:nonzero;stroke:none"
             d="m 31.8398,128.387 6.711,-6.762 33.75,-6.75 27.039,6.75 6.7112,6.762" /><path
             id="path56"
             style="fill:none;stroke:#ffffff;stroke-width:4;stroke-linecap:butt;stroke-linejoin:miter;stroke-miterlimit:4;stroke-dasharray:none;stroke-opacity:1"
             d="m 31.8398,128.387 6.711,-6.762 33.75,-6.75 27.039,6.75 6.7112,6.762" /><path
             id="path58"
             style="fill:#087fbf;fill-opacity:1;fill-rule:evenodd;stroke:none"
             d="m 133.051,128.387 0,-60.7386 6.75,-6.7617 60.789,0 6.711,6.7617 0,60.7386 -6.711,6.761 -60.789,0 -6.75,-6.761" /><path
             id="path60"
             style="fill:none;stroke:#ffffff;stroke-width:4;stroke-linecap:butt;stroke-linejoin:miter;stroke-miterlimit:4;stroke-dasharray:none;stroke-opacity:1"
             d="m 133.051,128.387 0,-60.7386 6.75,-6.7617 60.789,0 6.711,6.7617 0,60.7386 -6.711,6.761 -60.789,0 -6.75,-6.761 z" /><path
             id="path62"
             style="fill:#087fbf;fill-opacity:1;fill-rule:nonzero;stroke:none"
             d="m 133.051,128.387 0,-60.7386 6.75,-6.7617 60.789,0 6.711,6.7617 0,60.7386 -6.711,6.761 -60.789,0 -6.75,-6.761" /><path
             id="path64"
             style="fill:none;stroke:#ffffff;stroke-width:4;stroke-linecap:butt;stroke-linejoin:miter;stroke-miterlimit:4;stroke-dasharray:none;stroke-opacity:1"
             d="m 133.051,128.387 0,-60.7386 6.75,-6.7617 60.789,0 6.711,6.7617 0,60.7386 -6.711,6.761 -60.789,0 -6.75,-6.761" /><path
             id="path66"
             style="fill:#087fbf;fill-opacity:1;fill-rule:nonzero;stroke:none"
             d="m 133.051,128.387 6.75,-6.762 33.75,-6.75 27.039,6.75 6.711,6.762" /><path
             id="path68"
             style="fill:none;stroke:#ffffff;stroke-width:4;stroke-linecap:butt;stroke-linejoin:miter;stroke-miterlimit:4;stroke-dasharray:none;stroke-opacity:1"
             d="m 133.051,128.387 6.75,-6.762 33.75,-6.75 27.039,6.75 6.711,6.762" /><path
             id="path70"
             style="fill:#087fbf;fill-opacity:1;fill-rule:evenodd;stroke:none"
             d="m 234.34,121.625 0,-53.9766 6.711,-6.7617 33.75,-6.7617 27.039,6.7617 6.711,6.7617 0,53.9766 -6.711,6.762 -27.039,6.761 -33.75,-6.761 -6.711,-6.762" /><path
             id="path72"
             style="fill:none;stroke:#ffffff;stroke-width:4;stroke-linecap:butt;stroke-linejoin:miter;stroke-miterlimit:4;stroke-dasharray:none;stroke-opacity:1"
             d="m 234.34,121.625 0,-53.9766 6.711,-6.7617 33.75,-6.7617 27.039,6.7617 6.711,6.7617 0,53.9766 -6.711,6.762 -27.039,6.761 -33.75,-6.761 -6.711,-6.762 z" /><path
             id="path74"
             style="fill:#087fbf;fill-opacity:1;fill-rule:nonzero;stroke:none"
             d="m 234.34,121.625 0,-53.9766 6.711,-6.7617 33.75,-6.7617 27.039,6.7617 6.711,6.7617 0,53.9766 -6.711,6.762 -27.039,6.761 -33.75,-6.761 -6.711,-6.762" /><path
             id="path76"
             style="fill:none;stroke:#ffffff;stroke-width:4;stroke-linecap:butt;stroke-linejoin:miter;stroke-miterlimit:4;stroke-dasharray:none;stroke-opacity:1"
             d="m 234.34,121.625 0,-53.9766 6.711,-6.7617 33.75,-6.7617 27.039,6.7617 6.711,6.7617 0,53.9766 -6.711,6.762 -27.039,6.761 -33.75,-6.761 -6.711,-6.762" /><path
             id="path78"
             style="fill:#087fbf;fill-opacity:1;fill-rule:nonzero;stroke:none"
             d="m 234.34,121.625 6.711,-6.75 60.789,0 6.711,6.75" /><path
             id="path80"
             style="fill:none;stroke:#ffffff;stroke-width:4;stroke-linecap:butt;stroke-linejoin:miter;stroke-miterlimit:4;stroke-dasharray:none;stroke-opacity:1"
             d="m 234.34,121.625 6.711,-6.75 60.789,0 6.711,6.75" /></g></g></g></g></svg>