<?xml version="1.0" encoding="UTF-8" standalone="no"?>
<svg
   xmlns:dc="http://purl.org/dc/elements/1.1/"
   xmlns:cc="http://creativecommons.org/ns#"
   xmlns:rdf="http://www.w3.org/1999/02/22-rdf-syntax-ns#"
   xmlns:svg="http://www.w3.org/2000/svg"
   xmlns="http://www.w3.org/2000/svg"
   viewBox="0 0 80.324997 28.6875"
   height="28.6875"
   width="80.324997"
   xml:space="preserve"
   version="1.1"
   id="svg2"><metadata
     id="metadata8"><rdf:RDF><cc:Work
         rdf:about=""><dc:format>image/svg+xml</dc:format><dc:type
           rdf:resource="http://purl.org/dc/dcmitype/StillImage" /></cc:Work></rdf:RDF></metadata><defs
     id="defs6"><clipPath
       id="clipPath18"
       clipPathUnits="userSpaceOnUse"><path
         id="path20"
         d="M 0,0 0,230 640,230 640,0 0,0 Z" /></clipPath></defs><g
     transform="matrix(1.25,0,0,-1.25,0,28.6875)"
     id="g10"><g
       transform="scale(0.1,0.1)"
       id="g12"><g
         id="g14"><g
           clip-path="url(#clipPath18)"
           id="g16"><path
             id="path22"
             style="fill:none;stroke:#087fbf;stroke-width:4;stroke-linecap:butt;stroke-linejoin:miter;stroke-miterlimit:4;stroke-dasharray:none;stroke-opacity:1"
             d="m 408.746,20.7148 c 114.277,0 206.914,42.0977 206.914,94.0432 0,51.933 -92.637,94.043 -206.914,94.043 -114.266,0 -206.891,-42.11 -206.891,-94.043 0,-51.9455 92.625,-94.0432 206.891,-94.0432 z" /><g
             transform="scale(10,10)"
             id="g24"><text
               id="text26"
               style="font-variant:normal;font-weight:normal;font-size:8px;font-family:Helvetica;-inkscape-font-specification:Helvetica;writing-mode:lr-tb;fill:#231f20;fill-opacity:1;fill-rule:nonzero;stroke:none"
               transform="matrix(1,0,0,-1,31.4176,8.60078)"><tspan
                 id="tspan28"
                 y="0"
                 x="0 4.888 10.664 16.440001">FDDI</tspan></text>
</g><path
             id="path30"
             style="fill:none;stroke:#087fbf;stroke-width:4;stroke-linecap:butt;stroke-linejoin:miter;stroke-miterlimit:4;stroke-dasharray:none;stroke-opacity:1"
             d="m 408.746,1.99219 c 128.047,0 231.856,50.48831 231.856,112.76581 0,62.273 -103.809,112.762 -231.856,112.762 -128.043,0 -231.844,-50.489 -231.844,-112.762 0,-62.2775 103.801,-112.76581 231.844,-112.76581 z" /><path
             id="path32"
             style="fill:none;stroke:#087fbf;stroke-width:4;stroke-linecap:butt;stroke-linejoin:miter;stroke-miterlimit:4;stroke-dasharray:none;stroke-opacity:1"
             d="m 25,99.7578 180,0" /><path
             id="path34"
             style="fill:none;stroke:#087fbf;stroke-width:4;stroke-linecap:butt;stroke-linejoin:miter;stroke-miterlimit:4;stroke-dasharray:none;stroke-opacity:1"
             d="m 0,123.508 180,0" /></g></g></g></g></svg>