<?xml version="1.0" encoding="UTF-8" standalone="no"?>
<svg
   xmlns:dc="http://purl.org/dc/elements/1.1/"
   xmlns:cc="http://creativecommons.org/ns#"
   xmlns:rdf="http://www.w3.org/1999/02/22-rdf-syntax-ns#"
   xmlns:svg="http://www.w3.org/2000/svg"
   xmlns="http://www.w3.org/2000/svg"
   viewBox="0 0 80 30"
   height="30"
   width="80"
   xml:space="preserve"
   version="1.1"
   id="svg2"><metadata
     id="metadata8"><rdf:RDF><cc:Work
         rdf:about=""><dc:format>image/svg+xml</dc:format><dc:type
           rdf:resource="http://purl.org/dc/dcmitype/StillImage" /></cc:Work></rdf:RDF></metadata><defs
     id="defs6"><clipPath
       id="clipPath18"
       clipPathUnits="userSpaceOnUse"><path
         id="path20"
         d="m 0,9.51953 640,0 0,230 -640,0 0,-230 z" /></clipPath></defs><g
     transform="matrix(1.25,0,0,-1.25,0,30)"
     id="g10"><g
       transform="scale(0.1,0.1)"
       id="g12"><g
         id="g14"><g
           clip-path="url(#clipPath18)"
           id="g16"><path
             id="path22"
             style="fill:none;stroke:#087fbf;stroke-width:4;stroke-linecap:butt;stroke-linejoin:miter;stroke-miterlimit:4;stroke-dasharray:none;stroke-opacity:1"
             d="m 408.75,30.7305 c 114.262,0 206.91,42.0703 206.91,94.0195 0,51.961 -92.648,94.07 -206.91,94.07 -114.262,0 -206.91,-42.109 -206.91,-94.07 0,-51.9492 92.648,-94.0195 206.91,-94.0195 z" /><g
             transform="scale(10,10)"
             id="g24"><text
               id="text26"
               style="font-variant:normal;font-weight:normal;font-size:8px;font-family:Helvetica;-inkscape-font-specification:Helvetica;writing-mode:lr-tb;fill:#231f20;fill-opacity:1;fill-rule:nonzero;stroke:none"
               transform="matrix(1,0,0,-1,31.4176,9.60078)"><tspan
                 id="tspan28"
                 y="0"
                 x="0 4.888 10.664 16.440001">FDDI</tspan></text>
</g><path
             id="path30"
             style="fill:none;stroke:#087fbf;stroke-width:4;stroke-linecap:butt;stroke-linejoin:miter;stroke-miterlimit:4;stroke-dasharray:none;stroke-opacity:1"
             d="m 408.75,11.9805 c 128.051,0 231.84,50.5078 231.84,112.7695 0,62.27 -103.789,112.781 -231.84,112.781 -128.051,0 -231.84,-50.511 -231.84,-112.781 0,-62.2617 103.789,-112.7695 231.84,-112.7695 z" /><path
             id="path32"
             style="fill:none;stroke:#087fbf;stroke-width:4;stroke-linecap:butt;stroke-linejoin:miter;stroke-miterlimit:4;stroke-dasharray:none;stroke-opacity:1"
             d="m 25,109.75 180,0" /><path
             id="path34"
             style="fill:none;stroke:#087fbf;stroke-width:4;stroke-linecap:butt;stroke-linejoin:miter;stroke-miterlimit:4;stroke-dasharray:none;stroke-opacity:1"
             d="m 0,133.5 180,0" /></g></g></g></g></svg>