<?xml version="1.0" encoding="UTF-8" standalone="no"?>
<svg
   xmlns:dc="http://purl.org/dc/elements/1.1/"
   xmlns:cc="http://creativecommons.org/ns#"
   xmlns:rdf="http://www.w3.org/1999/02/22-rdf-syntax-ns#"
   xmlns:svg="http://www.w3.org/2000/svg"
   xmlns="http://www.w3.org/2000/svg"
   viewBox="0 0 61.012501 44.875"
   height="44.875"
   width="61.012501"
   xml:space="preserve"
   version="1.1"
   id="svg2"><metadata
     id="metadata8"><rdf:RDF><cc:Work
         rdf:about=""><dc:format>image/svg+xml</dc:format><dc:type
           rdf:resource="http://purl.org/dc/dcmitype/StillImage" /></cc:Work></rdf:RDF></metadata><defs
     id="defs6" /><g
     transform="matrix(1.25,0,0,-1.25,0,44.875)"
     id="g10"><g
       transform="scale(0.1,0.1)"
       id="g12"><path
         id="path14"
         style="fill:#087fbf;fill-opacity:1;fill-rule:nonzero;stroke:none"
         d="m 6.57422,122.102 357.195,0 0,115.957 -357.195,0 0,-115.957 z" /><path
         id="path16"
         style="fill:none;stroke:#ffffff;stroke-width:4;stroke-linecap:butt;stroke-linejoin:miter;stroke-miterlimit:4;stroke-dasharray:none;stroke-opacity:1"
         d="m 6.57422,122.102 357.195,0 0,115.957 -357.195,0 0,-115.957 z" /><path
         id="path18"
         style="fill:#087fbf;fill-opacity:1;fill-rule:nonzero;stroke:none"
         d="m 5.64453,237.473 144.27747,116.933 333.301,0 -119.785,-116.933 -357.79347,0" /><path
         id="path20"
         style="fill:none;stroke:#ffffff;stroke-width:4;stroke-linecap:butt;stroke-linejoin:miter;stroke-miterlimit:4;stroke-dasharray:none;stroke-opacity:1"
         d="m 5.64453,237.473 144.27747,116.933 333.301,0 -119.785,-116.933 -357.79347,0 z" /><path
         id="path22"
         style="fill:#087fbf;fill-opacity:1;fill-rule:nonzero;stroke:none"
         d="m 363.574,118.445 119.317,128.926 0.078,106.84 -119.395,-116.563 0,-119.203" /><path
         id="path24"
         style="fill:none;stroke:#ffffff;stroke-width:4;stroke-linecap:butt;stroke-linejoin:miter;stroke-miterlimit:4;stroke-dasharray:none;stroke-opacity:1"
         d="m 363.574,118.445 119.317,128.926 0.078,106.84 -119.395,-116.563 0,-119.203 z" /><path
         id="path26"
         style="fill:#ffffff;fill-opacity:1;fill-rule:nonzero;stroke:none"
         d="m 215.02,267.902 -6.934,-5.683 -89.082,0 -8.887,-8.891 -24.1482,10.531 48.5512,13.887 -8.59,-9.844 89.09,0" /><path
         id="path28"
         style="fill:#ffffff;fill-opacity:1;fill-rule:nonzero;stroke:none"
         d="m 285.02,311.652 -6.934,-5.683 -89.082,0 -8.887,-8.887 -24.148,10.527 48.551,13.887 -8.59,-9.844 89.09,0" /><path
         id="path30"
         style="fill:#ffffff;fill-opacity:1;fill-rule:nonzero;stroke:none"
         d="m 230.742,283.352 6.914,5.683 89.102,0 8.879,8.887 24.148,-10.527 -48.555,-13.887 8.594,9.844 -89.082,0" /><path
         id="path32"
         style="fill:#ffffff;fill-opacity:1;fill-rule:nonzero;stroke:none"
         d="m 276.992,327.098 6.914,5.687 89.102,0 8.879,8.887 24.148,-10.527 -48.555,-13.887 8.594,9.84 -89.082,0" /><path
         id="path34"
         style="fill:#087fbf;fill-opacity:1;fill-rule:nonzero;stroke:none"
         d="m 6.57422,8.76172 357.195,0 0,115.957 -357.195,0 0,-115.957 z" /><path
         id="path36"
         style="fill:none;stroke:#ffffff;stroke-width:4;stroke-linecap:butt;stroke-linejoin:miter;stroke-miterlimit:4;stroke-dasharray:none;stroke-opacity:1"
         d="m 6.57422,8.76172 357.195,0 0,115.957 -357.195,0 0,-115.957 z" /><path
         id="path38"
         style="fill:#087fbf;fill-opacity:1;fill-rule:nonzero;stroke:none"
         d="m 363.574,5.10547 119.317,128.92553 0.078,106.836 -119.395,-116.558 0,-119.20353" /><path
         id="path40"
         style="fill:none;stroke:#ffffff;stroke-width:4;stroke-linecap:butt;stroke-linejoin:miter;stroke-miterlimit:4;stroke-dasharray:none;stroke-opacity:1"
         d="m 363.574,5.10547 119.317,128.92553 0.078,106.836 -119.395,-116.558 0,-119.20353 z" /><path
         id="path42"
         style="fill:#ffffff;fill-opacity:1;fill-rule:nonzero;stroke:none"
         d="m 142.98,183.191 -66.8277,0 0,6.118 -25.2148,-9.028 25.2148,-9.019 0,6.109 66.8277,0 0,5.82" /><path
         id="path44"
         style="fill:#ffffff;fill-opacity:1;fill-rule:nonzero;stroke:none"
         d="m 180.762,163.992 0,-23.687 -17.266,0 25.442,-8.95 25.449,8.95 -17.246,0 0,23.687 -16.379,0" /><path
         id="path46"
         style="fill:#ffffff;fill-opacity:1;fill-rule:nonzero;stroke:none"
         d="m 180.762,195.898 0,23.68 -17.266,0 25.442,8.945 25.449,-8.945 -17.246,0 0,-23.68 -16.379,0" /><path
         id="path48"
         style="fill:#ffffff;fill-opacity:1;fill-rule:nonzero;stroke:none"
         d="m 234.91,177.371 66.828,0 0,-6.109 25.227,9.019 -25.227,9.028 0,-6.118 -66.828,0 0,-5.82" /><path
         id="path50"
         style="fill:none;stroke:#ffffff;stroke-width:4;stroke-linecap:butt;stroke-linejoin:miter;stroke-miterlimit:4;stroke-dasharray:none;stroke-opacity:1"
         d="m 296.453,142.258 c -12.539,-4.707 -70.176,8.203 -128.68,28.816 -58.527,20.614 -95.7808,41.121 -83.2339,45.821 12.5429,4.699 70.1799,-8.211 128.6909,-28.821 58.516,-20.613 95.762,-41.133 83.223,-45.816 z" /><path
         id="path52"
         style="fill:none;stroke:#ffffff;stroke-width:4;stroke-linecap:butt;stroke-linejoin:miter;stroke-miterlimit:4;stroke-dasharray:none;stroke-opacity:1"
         d="M 293.125,217.258 C 306.367,212.805 269.949,192.371 211.816,171.633 153.66,150.891 95.8008,137.676 82.5586,142.117 c -13.2422,4.453 23.1564,24.887 81.3084,45.625 58.137,20.742 115.996,33.946 129.258,29.516 z" /><path
         id="path54"
         style="fill:#bfbebe;fill-opacity:1;fill-rule:nonzero;stroke:none"
         d="m 216.348,166.516 c 22.082,5.488 27.429,16.265 11.98,24.082 -15.457,7.832 -45.855,9.722 -67.937,4.246 -22.071,-5.469 -27.43,-16.258 -11.961,-24.071 15.437,-7.835 45.847,-9.726 67.918,-4.257" /></g></g></svg>