<svg xmlns="http://www.w3.org/2000/svg" viewBox="0 0 61.25 46.25" height="46.25" width="61.25"><path d="M.82 29.74h44.649V15.243H.819V29.74z" fill="#087fbf"/><path d="M.82 29.74h44.649V15.242H.819V29.74z" fill="none" stroke="#fff" stroke-width=".5"/><path d="M.703 15.315L18.74.701H60.4L45.43 15.315H.703" fill="#087fbf"/><path d="M.703 15.315L18.74.701H60.4L45.43 15.315H.703z" fill="none" stroke="#fff" stroke-width=".5"/><path d="M45.444 30.194L60.36 14.08l.01-13.355-14.927 14.571v14.898" fill="#087fbf"/><path d="M45.444 30.193L60.36 14.08l.01-13.354-14.927 14.57v14.897z" fill="none" stroke="#fff" stroke-width=".5"/><path d="M26.88 11.511l-.869.714H14.872l-1.107 1.107-3.017-1.312 6.068-1.739-1.073 1.23H26.88M35.63 6.042l-.869.714H23.622l-1.107 1.108-3.018-1.313 6.07-1.739-1.074 1.23H35.63M28.842 9.583l.866-.713h11.137l1.108-1.109 3.018 1.314-6.07 1.739 1.074-1.231H28.842M34.623 4.114l.866-.713h11.138l1.108-1.108 3.018 1.314-6.07 1.738 1.073-1.231H34.624" fill="#fff"/><path d="M.82 43.905h44.649V29.413H.819v14.492z" fill="#087fbf"/><path d="M.82 43.905h44.649V29.412H.819v14.493z" fill="none" stroke="#fff" stroke-width=".5"/><path d="M45.444 44.364L60.36 28.245l.01-13.355-14.927 14.571v14.903" fill="#087fbf"/><path d="M45.444 44.363L60.36 28.245l.01-13.354-14.927 14.57v14.902z" fill="none" stroke="#fff" stroke-width=".5"/><path d="M17.871 22.102H9.516v-.766l-3.148 1.128 3.148 1.127v-.76h8.355v-.728M22.592 24.5v2.964h-2.157l3.184 1.119 3.178-1.12h-2.154V24.5h-2.05M22.592 20.51V17.55h-2.157l3.184-1.117 3.178 1.117h-2.154v2.959h-2.05M29.365 22.83h8.35v.761l3.154-1.127-3.154-1.128v.766h-8.35v.728" fill="#fff"/><path d="M37.056 27.22c-1.567.586-8.77-1.025-16.085-3.604C13.658 21.04 9 18.475 10.566 17.89c1.568-.587 8.775 1.025 16.089 3.603 7.315 2.573 11.968 5.141 10.401 5.728z" fill="none" stroke="#fff" stroke-width=".5"/><path d="M36.64 17.845c1.656.556-2.895 3.11-10.165 5.702-7.266 2.594-14.502 4.244-16.158 3.688-1.654-.558 2.895-3.111 10.167-5.704 7.264-2.592 14.496-4.242 16.156-3.686z" fill="none" stroke="#fff" stroke-width=".5"/><path d="M27.041 24.188c2.764-.69 3.433-2.037 1.499-3.013-1.933-.978-5.732-1.216-8.491-.532-2.759.683-3.428 2.036-1.494 3.012 1.929.976 5.728 1.216 8.486.532" fill="#bfbebe"/></svg>