<?xml version="1.0" encoding="UTF-8" standalone="no"?>
<svg
   xmlns:dc="http://purl.org/dc/elements/1.1/"
   xmlns:cc="http://creativecommons.org/ns#"
   xmlns:rdf="http://www.w3.org/1999/02/22-rdf-syntax-ns#"
   xmlns:svg="http://www.w3.org/2000/svg"
   xmlns="http://www.w3.org/2000/svg"
   viewBox="0 0 26.25 40"
   height="40"
   width="26.25"
   xml:space="preserve"
   version="1.1"
   id="svg2"><metadata
     id="metadata8"><rdf:RDF><cc:Work
         rdf:about=""><dc:format>image/svg+xml</dc:format><dc:type
           rdf:resource="http://purl.org/dc/dcmitype/StillImage" /></cc:Work></rdf:RDF></metadata><defs
     id="defs6"><clipPath
       id="clipPath18"
       clipPathUnits="userSpaceOnUse"><path
         id="path20"
         d="M 0,7 0,312 209,312 209,7 0,7 Z" /></clipPath></defs><g
     transform="matrix(1.25,0,0,-1.25,0,40)"
     id="g10"><g
       transform="scale(0.1,0.1)"
       id="g12"><g
         id="g14"><g
           clip-path="url(#clipPath18)"
           id="g16"><path
             id="path22"
             style="fill:#087fbf;fill-opacity:1;fill-rule:nonzero;stroke:none"
             d="m 4.83984,14.8203 153.871,0 0,245.121 -153.871,0 0,-245.121 z" /><path
             id="path24"
             style="fill:#087fbf;fill-opacity:1;fill-rule:nonzero;stroke:none"
             d="m 158.711,14.8203 49.141,49.1406 0,245.1171 -153.8715,0 -49.14066,-49.137 153.87116,0 0,-245.1207" /><path
             id="path26"
             style="fill:#087fbf;fill-opacity:1;fill-rule:nonzero;stroke:none"
             d="m 158.711,259.941 49.141,49.137" /><path
             id="path28"
             style="fill:#087fbf;fill-opacity:1;fill-rule:nonzero;stroke:none"
             d="m 4.83984,14.8203 153.871,0 0,245.121 -153.871,0 0,-245.121 z" /><path
             id="path30"
             style="fill:none;stroke:#ffffff;stroke-width:4;stroke-linecap:butt;stroke-linejoin:miter;stroke-miterlimit:4;stroke-dasharray:none;stroke-opacity:1"
             d="m 158.711,259.941 -153.87116,0 0,-245.1207 153.87116,0" /><path
             id="path32"
             style="fill:#087fbf;fill-opacity:1;fill-rule:nonzero;stroke:none"
             d="m 158.711,14.8203 49.141,49.1406 0,245.1171 -153.8715,0 -49.14066,-49.137 153.87116,0 0,-245.1207" /><path
             id="path34"
             style="fill:none;stroke:#ffffff;stroke-width:4;stroke-linecap:butt;stroke-linejoin:miter;stroke-miterlimit:4;stroke-dasharray:none;stroke-opacity:1"
             d="m 158.711,14.8203 49.141,49.1406 0,245.1171 -153.8715,0 -49.14066,-49.137 153.87116,0 0,-245.1207 z" /><path
             id="path36"
             style="fill:#231f20;fill-opacity:1;fill-rule:nonzero;stroke:none"
             d="m 158.711,259.941 49.141,49.137" /><path
             id="path38"
             style="fill:none;stroke:#ffffff;stroke-width:4;stroke-linecap:round;stroke-linejoin:round;stroke-miterlimit:4;stroke-dasharray:none;stroke-opacity:1"
             d="m 158.711,259.941 49.141,49.137" /><path
             id="path40"
             style="fill:none;stroke:#ffffff;stroke-width:4;stroke-linecap:butt;stroke-linejoin:miter;stroke-miterlimit:4;stroke-dasharray:none;stroke-opacity:1"
             d="m 158.711,259.941 -153.87116,0 0,-245.1207 153.87116,0" /><path
             id="path42"
             style="fill:none;stroke:#ffffff;stroke-width:4;stroke-linecap:butt;stroke-linejoin:miter;stroke-miterlimit:4;stroke-dasharray:none;stroke-opacity:1"
             d="m 158.711,14.8203 49.141,49.1406 0,245.1171 -153.8715,0 -49.14066,-49.137 153.87116,0 0,-245.1207 z" /><path
             id="path44"
             style="fill:none;stroke:#ffffff;stroke-width:4;stroke-linecap:butt;stroke-linejoin:miter;stroke-miterlimit:4;stroke-dasharray:none;stroke-opacity:1"
             d="m 158.711,259.941 49.141,49.137" /><path
             id="path46"
             style="fill:#ffffff;fill-opacity:1;fill-rule:nonzero;stroke:none"
             d="m 77.8086,74.0781 c 0,-6.0898 -13.0391,-11.0195 -29.1367,-11.0195 -16.1328,0 -29.1836,4.9297 -29.1836,11.0195 0,6.0508 13.0508,10.9805 29.1836,10.9805 16.0976,0 29.1367,-4.9297 29.1367,-10.9805" /><path
             id="path48"
             style="fill:none;stroke:#231f20;stroke-width:3.5;stroke-linecap:round;stroke-linejoin:round;stroke-miterlimit:4;stroke-dasharray:none;stroke-opacity:1"
             d="m 77.8086,74.0781 c 0,-6.0898 -13.0391,-11.0195 -29.1367,-11.0195 -16.1328,0 -29.1836,4.9297 -29.1836,11.0195 0,6.0508 13.0508,10.9805 29.1836,10.9805 16.0976,0 29.1367,-4.9297 29.1367,-10.9805 z" /><path
             id="path50"
             style="fill:#231f20;fill-opacity:1;fill-rule:nonzero;stroke:none"
             d="m 57.2695,74.6602 c 0,-1.8321 -3.9101,-3.2813 -8.75,-3.2813 -4.8476,0 -8.75,1.4492 -8.75,3.2813 0,1.8398 3.9024,3.3281 8.75,3.3281 4.8399,0 8.75,-1.4883 8.75,-3.3281" /><path
             id="path52"
             style="fill:#231f20;fill-opacity:1;fill-rule:nonzero;stroke:none"
             d="m 57.2695,80.6797 c 0,-1.8399 -3.9101,-3.3203 -8.75,-3.3203 -4.8476,0 -8.75,1.4804 -8.75,3.3203 0,1.8008 3.9024,3.2812 8.75,3.2812 4.8399,0 8.75,-1.4804 8.75,-3.2812" /><path
             id="path54"
             style="fill:#ffffff;fill-opacity:1;fill-rule:nonzero;stroke:none"
             d="m 77.8086,86.0703 c 0,-6.0898 -13.0391,-11.0117 -29.1367,-11.0117 -16.1328,0 -29.1836,4.9219 -29.1836,11.0117 0,6.0899 13.0508,11.0195 29.1836,11.0195 16.0976,0 29.1367,-4.9296 29.1367,-11.0195" /><path
             id="path56"
             style="fill:none;stroke:#231f20;stroke-width:3.5;stroke-linecap:round;stroke-linejoin:round;stroke-miterlimit:4;stroke-dasharray:none;stroke-opacity:1"
             d="m 77.8086,86.0703 c 0,-6.0898 -13.0391,-11.0117 -29.1367,-11.0117 -16.1328,0 -29.1836,4.9219 -29.1836,11.0117 0,6.0899 13.0508,11.0195 29.1836,11.0195 16.0976,0 29.1367,-4.9296 29.1367,-11.0195 z" /><path
             id="path58"
             style="fill:#231f20;fill-opacity:1;fill-rule:nonzero;stroke:none"
             d="m 57.2695,86.6602 c 0,-1.8008 -3.9101,-3.2813 -8.75,-3.2813 -4.8476,0 -8.75,1.4805 -8.75,3.2813 0,1.8281 3.9024,3.3203 8.75,3.3203 4.8399,0 8.75,-1.4922 8.75,-3.3203" /><path
             id="path60"
             style="fill:#231f20;fill-opacity:1;fill-rule:nonzero;stroke:none"
             d="m 57.2695,92.668 c 0,-1.8282 -3.9101,-3.3164 -8.75,-3.3164 -4.8476,0 -8.75,1.4882 -8.75,3.3164 0,1.8437 3.9024,3.2812 8.75,3.2812 4.8399,0 8.75,-1.4375 8.75,-3.2812" /><path
             id="path62"
             style="fill:#ffffff;fill-opacity:1;fill-rule:nonzero;stroke:none"
             d="m 77.8086,98.0586 c 0,-6.0469 -13.0391,-10.9688 -29.1367,-10.9688 -16.1328,0 -29.1836,4.9219 -29.1836,10.9688 0,6.1014 13.0508,11.0194 29.1836,11.0194 16.0976,0 29.1367,-4.918 29.1367,-11.0194" /><path
             id="path64"
             style="fill:none;stroke:#231f20;stroke-width:3.5;stroke-linecap:round;stroke-linejoin:round;stroke-miterlimit:4;stroke-dasharray:none;stroke-opacity:1"
             d="m 77.8086,98.0586 c 0,-6.0469 -13.0391,-10.9688 -29.1367,-10.9688 -16.1328,0 -29.1836,4.9219 -29.1836,10.9688 0,6.1014 13.0508,11.0194 29.1836,11.0194 16.0976,0 29.1367,-4.918 29.1367,-11.0194 z" /><path
             id="path66"
             style="fill:#231f20;fill-opacity:1;fill-rule:nonzero;stroke:none"
             d="m 57.2695,98.6484 c 0,-1.7968 -3.9101,-3.2773 -8.75,-3.2773 -4.8476,0 -8.75,1.4805 -8.75,3.2773 0,1.8396 3.9024,3.3206 8.75,3.3206 4.8399,0 8.75,-1.481 8.75,-3.3206" /><path
             id="path68"
             style="fill:#ffffff;fill-opacity:1;fill-rule:nonzero;stroke:none"
             d="m 77.8086,122.051 c 0,-6.063 -13.0391,-10.981 -29.1367,-10.981 -16.1328,0 -29.1836,4.918 -29.1836,10.981 0,6.09 13.0508,11.008 29.1836,11.008 16.0976,0 29.1367,-4.918 29.1367,-11.008" /><path
             id="path70"
             style="fill:none;stroke:#231f20;stroke-width:3.5;stroke-linecap:round;stroke-linejoin:round;stroke-miterlimit:4;stroke-dasharray:none;stroke-opacity:1"
             d="m 77.8086,122.051 c 0,-6.063 -13.0391,-10.981 -29.1367,-10.981 -16.1328,0 -29.1836,4.918 -29.1836,10.981 0,6.09 13.0508,11.008 29.1836,11.008 16.0976,0 29.1367,-4.918 29.1367,-11.008 z" /><path
             id="path72"
             style="fill:#231f20;fill-opacity:1;fill-rule:nonzero;stroke:none"
             d="m 57.2695,122.668 c 0,-1.828 -3.9101,-3.316 -8.75,-3.316 -4.8476,0 -8.75,1.488 -8.75,3.316 0,1.844 3.9024,3.281 8.75,3.281 4.8399,0 8.75,-1.437 8.75,-3.281" /><path
             id="path74"
             style="fill:#231f20;fill-opacity:1;fill-rule:nonzero;stroke:none"
             d="m 57.2695,128.648 c 0,-1.796 -3.9101,-3.277 -8.75,-3.277 -4.8476,0 -8.75,1.481 -8.75,3.277 0,1.84 3.9024,3.321 8.75,3.321 4.8399,0 8.75,-1.481 8.75,-3.321" /><path
             id="path76"
             style="fill:#ffffff;fill-opacity:1;fill-rule:nonzero;stroke:none"
             d="m 77.8086,134.078 c 0,-6.09 -13.0391,-11.019 -29.1367,-11.019 -16.1328,0 -29.1836,4.929 -29.1836,11.019 0,6.051 13.0508,10.981 29.1836,10.981 16.0976,0 29.1367,-4.93 29.1367,-10.981" /><path
             id="path78"
             style="fill:none;stroke:#231f20;stroke-width:3.5;stroke-linecap:round;stroke-linejoin:round;stroke-miterlimit:4;stroke-dasharray:none;stroke-opacity:1"
             d="m 77.8086,134.078 c 0,-6.09 -13.0391,-11.019 -29.1367,-11.019 -16.1328,0 -29.1836,4.929 -29.1836,11.019 0,6.051 13.0508,10.981 29.1836,10.981 16.0976,0 29.1367,-4.93 29.1367,-10.981 z" /><path
             id="path80"
             style="fill:#231f20;fill-opacity:1;fill-rule:nonzero;stroke:none"
             d="m 57.2695,134.66 c 0,-1.832 -3.9101,-3.281 -8.75,-3.281 -4.8476,0 -8.75,1.449 -8.75,3.281 0,1.84 3.9024,3.328 8.75,3.328 4.8399,0 8.75,-1.488 8.75,-3.328" /><path
             id="path82"
             style="fill:#231f20;fill-opacity:1;fill-rule:nonzero;stroke:none"
             d="m 57.2695,140.68 c 0,-1.84 -3.9101,-3.321 -8.75,-3.321 -4.8476,0 -8.75,1.481 -8.75,3.321 0,1.8 3.9024,3.281 8.75,3.281 4.8399,0 8.75,-1.481 8.75,-3.281" /><path
             id="path84"
             style="fill:#ffffff;fill-opacity:1;fill-rule:nonzero;stroke:none"
             d="m 77.8086,146.07 c 0,-6.09 -13.0391,-11.011 -29.1367,-11.011 -16.1328,0 -29.1836,4.921 -29.1836,11.011 0,6.09 13.0508,11.02 29.1836,11.02 16.0976,0 29.1367,-4.93 29.1367,-11.02" /><path
             id="path86"
             style="fill:none;stroke:#231f20;stroke-width:3.5;stroke-linecap:round;stroke-linejoin:round;stroke-miterlimit:4;stroke-dasharray:none;stroke-opacity:1"
             d="m 77.8086,146.07 c 0,-6.09 -13.0391,-11.011 -29.1367,-11.011 -16.1328,0 -29.1836,4.921 -29.1836,11.011 0,6.09 13.0508,11.02 29.1836,11.02 16.0976,0 29.1367,-4.93 29.1367,-11.02 z" /><path
             id="path88"
             style="fill:#231f20;fill-opacity:1;fill-rule:nonzero;stroke:none"
             d="m 57.2695,146.66 c 0,-1.801 -3.9101,-3.281 -8.75,-3.281 -4.8476,0 -8.75,1.48 -8.75,3.281 0,1.828 3.9024,3.32 8.75,3.32 4.8399,0 8.75,-1.492 8.75,-3.32" /><path
             id="path90"
             style="fill:#ffffff;fill-opacity:1;fill-rule:nonzero;stroke:none"
             d="m 77.8086,170.059 c 0,-6.059 -13.0391,-10.981 -29.1367,-10.981 -16.1328,0 -29.1836,4.922 -29.1836,10.981 0,6.089 13.0508,11.011 29.1836,11.011 16.0976,0 29.1367,-4.922 29.1367,-11.011" /><path
             id="path92"
             style="fill:none;stroke:#231f20;stroke-width:3.5;stroke-linecap:round;stroke-linejoin:round;stroke-miterlimit:4;stroke-dasharray:none;stroke-opacity:1"
             d="m 77.8086,170.059 c 0,-6.059 -13.0391,-10.981 -29.1367,-10.981 -16.1328,0 -29.1836,4.922 -29.1836,10.981 0,6.089 13.0508,11.011 29.1836,11.011 16.0976,0 29.1367,-4.922 29.1367,-11.011 z" /><path
             id="path94"
             style="fill:#231f20;fill-opacity:1;fill-rule:nonzero;stroke:none"
             d="m 57.2695,170.68 c 0,-1.84 -3.9101,-3.321 -8.75,-3.321 -4.8476,0 -8.75,1.481 -8.75,3.321 0,1.8 3.9024,3.281 8.75,3.281 4.8399,0 8.75,-1.481 8.75,-3.281" /><path
             id="path96"
             style="fill:#231f20;fill-opacity:1;fill-rule:nonzero;stroke:none"
             d="m 57.2695,176.66 c 0,-1.801 -3.9101,-3.281 -8.75,-3.281 -4.8476,0 -8.75,1.48 -8.75,3.281 0,1.828 3.9024,3.32 8.75,3.32 4.8399,0 8.75,-1.492 8.75,-3.32" /><path
             id="path98"
             style="fill:#ffffff;fill-opacity:1;fill-rule:nonzero;stroke:none"
             d="m 77.8086,182.051 c 0,-6.063 -13.0391,-10.981 -29.1367,-10.981 -16.1328,0 -29.1836,4.918 -29.1836,10.981 0,6.09 13.0508,11.008 29.1836,11.008 16.0976,0 29.1367,-4.918 29.1367,-11.008" /><path
             id="path100"
             style="fill:none;stroke:#231f20;stroke-width:3.5;stroke-linecap:round;stroke-linejoin:round;stroke-miterlimit:4;stroke-dasharray:none;stroke-opacity:1"
             d="m 77.8086,182.051 c 0,-6.063 -13.0391,-10.981 -29.1367,-10.981 -16.1328,0 -29.1836,4.918 -29.1836,10.981 0,6.09 13.0508,11.008 29.1836,11.008 16.0976,0 29.1367,-4.918 29.1367,-11.008 z" /><path
             id="path102"
             style="fill:#231f20;fill-opacity:1;fill-rule:nonzero;stroke:none"
             d="m 57.2695,182.668 c 0,-1.828 -3.9101,-3.316 -8.75,-3.316 -4.8476,0 -8.75,1.488 -8.75,3.316 0,1.844 3.9024,3.281 8.75,3.281 4.8399,0 8.75,-1.437 8.75,-3.281" /><path
             id="path104"
             style="fill:#231f20;fill-opacity:1;fill-rule:nonzero;stroke:none"
             d="m 57.2695,188.648 c 0,-1.796 -3.9101,-3.277 -8.75,-3.277 -4.8476,0 -8.75,1.481 -8.75,3.277 0,1.84 3.9024,3.321 8.75,3.321 4.8399,0 8.75,-1.481 8.75,-3.321" /><path
             id="path106"
             style="fill:#ffffff;fill-opacity:1;fill-rule:nonzero;stroke:none"
             d="m 77.8086,194.078 c 0,-6.09 -13.0391,-11.019 -29.1367,-11.019 -16.1328,0 -29.1836,4.929 -29.1836,11.019 0,6.051 13.0508,10.981 29.1836,10.981 16.0976,0 29.1367,-4.93 29.1367,-10.981" /><path
             id="path108"
             style="fill:none;stroke:#231f20;stroke-width:3.5;stroke-linecap:round;stroke-linejoin:round;stroke-miterlimit:4;stroke-dasharray:none;stroke-opacity:1"
             d="m 77.8086,194.078 c 0,-6.09 -13.0391,-11.019 -29.1367,-11.019 -16.1328,0 -29.1836,4.929 -29.1836,11.019 0,6.051 13.0508,10.981 29.1836,10.981 16.0976,0 29.1367,-4.93 29.1367,-10.981 z" /><path
             id="path110"
             style="fill:#231f20;fill-opacity:1;fill-rule:nonzero;stroke:none"
             d="m 57.2695,194.66 c 0,-1.832 -3.9101,-3.281 -8.75,-3.281 -4.8476,0 -8.75,1.449 -8.75,3.281 0,1.84 3.9024,3.328 8.75,3.328 4.8399,0 8.75,-1.488 8.75,-3.328" /><path
             id="path112"
             style="fill:#ffffff;fill-opacity:1;fill-rule:nonzero;stroke:none"
             d="m 142.809,74.0781 c 0,-6.0898 -13.039,-11.0195 -29.137,-11.0195 -16.1329,0 -29.1837,4.9297 -29.1837,11.0195 0,6.0508 13.0508,10.9805 29.1837,10.9805 16.098,0 29.137,-4.9297 29.137,-10.9805" /><path
             id="path114"
             style="fill:none;stroke:#231f20;stroke-width:3.5;stroke-linecap:round;stroke-linejoin:round;stroke-miterlimit:4;stroke-dasharray:none;stroke-opacity:1"
             d="m 142.809,74.0781 c 0,-6.0898 -13.039,-11.0195 -29.137,-11.0195 -16.1329,0 -29.1837,4.9297 -29.1837,11.0195 0,6.0508 13.0508,10.9805 29.1837,10.9805 16.098,0 29.137,-4.9297 29.137,-10.9805 z" /><path
             id="path116"
             style="fill:#231f20;fill-opacity:1;fill-rule:nonzero;stroke:none"
             d="m 122.27,74.6602 c 0,-1.8321 -3.911,-3.2813 -8.75,-3.2813 -4.848,0 -8.75,1.4492 -8.75,3.2813 0,1.8398 3.902,3.3281 8.75,3.3281 4.839,0 8.75,-1.4883 8.75,-3.3281" /><path
             id="path118"
             style="fill:#231f20;fill-opacity:1;fill-rule:nonzero;stroke:none"
             d="m 122.27,80.6797 c 0,-1.8399 -3.911,-3.3203 -8.75,-3.3203 -4.848,0 -8.75,1.4804 -8.75,3.3203 0,1.8008 3.902,3.2812 8.75,3.2812 4.839,0 8.75,-1.4804 8.75,-3.2812" /><path
             id="path120"
             style="fill:#ffffff;fill-opacity:1;fill-rule:nonzero;stroke:none"
             d="m 142.809,86.0703 c 0,-6.0898 -13.039,-11.0117 -29.137,-11.0117 -16.1329,0 -29.1837,4.9219 -29.1837,11.0117 0,6.0899 13.0508,11.0195 29.1837,11.0195 16.098,0 29.137,-4.9296 29.137,-11.0195" /><path
             id="path122"
             style="fill:none;stroke:#231f20;stroke-width:3.5;stroke-linecap:round;stroke-linejoin:round;stroke-miterlimit:4;stroke-dasharray:none;stroke-opacity:1"
             d="m 142.809,86.0703 c 0,-6.0898 -13.039,-11.0117 -29.137,-11.0117 -16.1329,0 -29.1837,4.9219 -29.1837,11.0117 0,6.0899 13.0508,11.0195 29.1837,11.0195 16.098,0 29.137,-4.9296 29.137,-11.0195 z" /><path
             id="path124"
             style="fill:#231f20;fill-opacity:1;fill-rule:nonzero;stroke:none"
             d="m 122.27,86.6602 c 0,-1.8008 -3.911,-3.2813 -8.75,-3.2813 -4.848,0 -8.75,1.4805 -8.75,3.2813 0,1.8281 3.902,3.3203 8.75,3.3203 4.839,0 8.75,-1.4922 8.75,-3.3203" /><path
             id="path126"
             style="fill:#231f20;fill-opacity:1;fill-rule:nonzero;stroke:none"
             d="m 122.27,92.668 c 0,-1.8282 -3.911,-3.3164 -8.75,-3.3164 -4.848,0 -8.75,1.4882 -8.75,3.3164 0,1.8437 3.902,3.2812 8.75,3.2812 4.839,0 8.75,-1.4375 8.75,-3.2812" /><path
             id="path128"
             style="fill:#ffffff;fill-opacity:1;fill-rule:nonzero;stroke:none"
             d="m 142.809,98.0586 c 0,-6.0469 -13.039,-10.9688 -29.137,-10.9688 -16.1329,0 -29.1837,4.9219 -29.1837,10.9688 0,6.1014 13.0508,11.0194 29.1837,11.0194 16.098,0 29.137,-4.918 29.137,-11.0194" /><path
             id="path130"
             style="fill:none;stroke:#231f20;stroke-width:3.5;stroke-linecap:round;stroke-linejoin:round;stroke-miterlimit:4;stroke-dasharray:none;stroke-opacity:1"
             d="m 142.809,98.0586 c 0,-6.0469 -13.039,-10.9688 -29.137,-10.9688 -16.1329,0 -29.1837,4.9219 -29.1837,10.9688 0,6.1014 13.0508,11.0194 29.1837,11.0194 16.098,0 29.137,-4.918 29.137,-11.0194 z" /><path
             id="path132"
             style="fill:#231f20;fill-opacity:1;fill-rule:nonzero;stroke:none"
             d="m 122.27,98.6484 c 0,-1.7968 -3.911,-3.2773 -8.75,-3.2773 -4.848,0 -8.75,1.4805 -8.75,3.2773 0,1.8396 3.902,3.3206 8.75,3.3206 4.839,0 8.75,-1.481 8.75,-3.3206" /><path
             id="path134"
             style="fill:#ffffff;fill-opacity:1;fill-rule:nonzero;stroke:none"
             d="m 142.809,122.051 c 0,-6.063 -13.039,-10.981 -29.137,-10.981 -16.1329,0 -29.1837,4.918 -29.1837,10.981 0,6.09 13.0508,11.008 29.1837,11.008 16.098,0 29.137,-4.918 29.137,-11.008" /><path
             id="path136"
             style="fill:none;stroke:#231f20;stroke-width:3.5;stroke-linecap:round;stroke-linejoin:round;stroke-miterlimit:4;stroke-dasharray:none;stroke-opacity:1"
             d="m 142.809,122.051 c 0,-6.063 -13.039,-10.981 -29.137,-10.981 -16.1329,0 -29.1837,4.918 -29.1837,10.981 0,6.09 13.0508,11.008 29.1837,11.008 16.098,0 29.137,-4.918 29.137,-11.008 z" /><path
             id="path138"
             style="fill:#231f20;fill-opacity:1;fill-rule:nonzero;stroke:none"
             d="m 122.27,122.668 c 0,-1.828 -3.911,-3.316 -8.75,-3.316 -4.848,0 -8.75,1.488 -8.75,3.316 0,1.844 3.902,3.281 8.75,3.281 4.839,0 8.75,-1.437 8.75,-3.281" /><path
             id="path140"
             style="fill:#231f20;fill-opacity:1;fill-rule:nonzero;stroke:none"
             d="m 122.27,128.648 c 0,-1.796 -3.911,-3.277 -8.75,-3.277 -4.848,0 -8.75,1.481 -8.75,3.277 0,1.84 3.902,3.321 8.75,3.321 4.839,0 8.75,-1.481 8.75,-3.321" /><path
             id="path142"
             style="fill:#ffffff;fill-opacity:1;fill-rule:nonzero;stroke:none"
             d="m 142.809,134.078 c 0,-6.09 -13.039,-11.019 -29.137,-11.019 -16.1329,0 -29.1837,4.929 -29.1837,11.019 0,6.051 13.0508,10.981 29.1837,10.981 16.098,0 29.137,-4.93 29.137,-10.981" /><path
             id="path144"
             style="fill:none;stroke:#231f20;stroke-width:3.5;stroke-linecap:round;stroke-linejoin:round;stroke-miterlimit:4;stroke-dasharray:none;stroke-opacity:1"
             d="m 142.809,134.078 c 0,-6.09 -13.039,-11.019 -29.137,-11.019 -16.1329,0 -29.1837,4.929 -29.1837,11.019 0,6.051 13.0508,10.981 29.1837,10.981 16.098,0 29.137,-4.93 29.137,-10.981 z" /><path
             id="path146"
             style="fill:#231f20;fill-opacity:1;fill-rule:nonzero;stroke:none"
             d="m 122.27,134.66 c 0,-1.832 -3.911,-3.281 -8.75,-3.281 -4.848,0 -8.75,1.449 -8.75,3.281 0,1.84 3.902,3.328 8.75,3.328 4.839,0 8.75,-1.488 8.75,-3.328" /><path
             id="path148"
             style="fill:#231f20;fill-opacity:1;fill-rule:nonzero;stroke:none"
             d="m 122.27,140.68 c 0,-1.84 -3.911,-3.321 -8.75,-3.321 -4.848,0 -8.75,1.481 -8.75,3.321 0,1.8 3.902,3.281 8.75,3.281 4.839,0 8.75,-1.481 8.75,-3.281" /><path
             id="path150"
             style="fill:#ffffff;fill-opacity:1;fill-rule:nonzero;stroke:none"
             d="m 142.809,146.07 c 0,-6.09 -13.039,-11.011 -29.137,-11.011 -16.1329,0 -29.1837,4.921 -29.1837,11.011 0,6.09 13.0508,11.02 29.1837,11.02 16.098,0 29.137,-4.93 29.137,-11.02" /><path
             id="path152"
             style="fill:none;stroke:#231f20;stroke-width:3.5;stroke-linecap:round;stroke-linejoin:round;stroke-miterlimit:4;stroke-dasharray:none;stroke-opacity:1"
             d="m 142.809,146.07 c 0,-6.09 -13.039,-11.011 -29.137,-11.011 -16.1329,0 -29.1837,4.921 -29.1837,11.011 0,6.09 13.0508,11.02 29.1837,11.02 16.098,0 29.137,-4.93 29.137,-11.02 z" /><path
             id="path154"
             style="fill:#231f20;fill-opacity:1;fill-rule:nonzero;stroke:none"
             d="m 122.27,146.66 c 0,-1.801 -3.911,-3.281 -8.75,-3.281 -4.848,0 -8.75,1.48 -8.75,3.281 0,1.828 3.902,3.32 8.75,3.32 4.839,0 8.75,-1.492 8.75,-3.32" /><path
             id="path156"
             style="fill:#ffffff;fill-opacity:1;fill-rule:nonzero;stroke:none"
             d="m 142.809,170.059 c 0,-6.059 -13.039,-10.981 -29.137,-10.981 -16.1329,0 -29.1837,4.922 -29.1837,10.981 0,6.089 13.0508,11.011 29.1837,11.011 16.098,0 29.137,-4.922 29.137,-11.011" /><path
             id="path158"
             style="fill:none;stroke:#231f20;stroke-width:3.5;stroke-linecap:round;stroke-linejoin:round;stroke-miterlimit:4;stroke-dasharray:none;stroke-opacity:1"
             d="m 142.809,170.059 c 0,-6.059 -13.039,-10.981 -29.137,-10.981 -16.1329,0 -29.1837,4.922 -29.1837,10.981 0,6.089 13.0508,11.011 29.1837,11.011 16.098,0 29.137,-4.922 29.137,-11.011 z" /><path
             id="path160"
             style="fill:#231f20;fill-opacity:1;fill-rule:nonzero;stroke:none"
             d="m 122.27,170.68 c 0,-1.84 -3.911,-3.321 -8.75,-3.321 -4.848,0 -8.75,1.481 -8.75,3.321 0,1.8 3.902,3.281 8.75,3.281 4.839,0 8.75,-1.481 8.75,-3.281" /><path
             id="path162"
             style="fill:#231f20;fill-opacity:1;fill-rule:nonzero;stroke:none"
             d="m 122.27,176.66 c 0,-1.801 -3.911,-3.281 -8.75,-3.281 -4.848,0 -8.75,1.48 -8.75,3.281 0,1.828 3.902,3.32 8.75,3.32 4.839,0 8.75,-1.492 8.75,-3.32" /><path
             id="path164"
             style="fill:#ffffff;fill-opacity:1;fill-rule:nonzero;stroke:none"
             d="m 142.809,182.051 c 0,-6.063 -13.039,-10.981 -29.137,-10.981 -16.1329,0 -29.1837,4.918 -29.1837,10.981 0,6.09 13.0508,11.008 29.1837,11.008 16.098,0 29.137,-4.918 29.137,-11.008" /><path
             id="path166"
             style="fill:none;stroke:#231f20;stroke-width:3.5;stroke-linecap:round;stroke-linejoin:round;stroke-miterlimit:4;stroke-dasharray:none;stroke-opacity:1"
             d="m 142.809,182.051 c 0,-6.063 -13.039,-10.981 -29.137,-10.981 -16.1329,0 -29.1837,4.918 -29.1837,10.981 0,6.09 13.0508,11.008 29.1837,11.008 16.098,0 29.137,-4.918 29.137,-11.008 z" /><path
             id="path168"
             style="fill:#231f20;fill-opacity:1;fill-rule:nonzero;stroke:none"
             d="m 122.27,182.668 c 0,-1.828 -3.911,-3.316 -8.75,-3.316 -4.848,0 -8.75,1.488 -8.75,3.316 0,1.844 3.902,3.281 8.75,3.281 4.839,0 8.75,-1.437 8.75,-3.281" /><path
             id="path170"
             style="fill:#231f20;fill-opacity:1;fill-rule:nonzero;stroke:none"
             d="m 122.27,188.648 c 0,-1.796 -3.911,-3.277 -8.75,-3.277 -4.848,0 -8.75,1.481 -8.75,3.277 0,1.84 3.902,3.321 8.75,3.321 4.839,0 8.75,-1.481 8.75,-3.321" /><path
             id="path172"
             style="fill:#ffffff;fill-opacity:1;fill-rule:nonzero;stroke:none"
             d="m 142.809,194.078 c 0,-6.09 -13.039,-11.019 -29.137,-11.019 -16.1329,0 -29.1837,4.929 -29.1837,11.019 0,6.051 13.0508,10.981 29.1837,10.981 16.098,0 29.137,-4.93 29.137,-10.981" /><path
             id="path174"
             style="fill:none;stroke:#231f20;stroke-width:3.5;stroke-linecap:round;stroke-linejoin:round;stroke-miterlimit:4;stroke-dasharray:none;stroke-opacity:1"
             d="m 142.809,194.078 c 0,-6.09 -13.039,-11.019 -29.137,-11.019 -16.1329,0 -29.1837,4.929 -29.1837,11.019 0,6.051 13.0508,10.981 29.1837,10.981 16.098,0 29.137,-4.93 29.137,-10.981 z" /><path
             id="path176"
             style="fill:#231f20;fill-opacity:1;fill-rule:nonzero;stroke:none"
             d="m 122.27,194.66 c 0,-1.832 -3.911,-3.281 -8.75,-3.281 -4.848,0 -8.75,1.449 -8.75,3.281 0,1.84 3.902,3.328 8.75,3.328 4.839,0 8.75,-1.488 8.75,-3.328" /></g></g></g></g></svg>