<svg xmlns="http://www.w3.org/2000/svg" viewBox="0 0 26.25 40" height="40" width="26.25"><defs><clipPath id="a"><path d="M0 7v305h209V7H0z"/></clipPath></defs><g clip-path="url(#a)" transform="matrix(.13 0 0 -.13 0 40)"><path d="M4.84 14.82h153.87v245.121H4.84V14.821z" fill="#087fbf"/><path d="M158.711 14.82l49.141 49.14v245.118H53.981L4.84 259.941H158.71V14.821M158.711 259.941l49.141 49.137" fill="#087fbf"/><path d="M4.84 14.82h153.87v245.121H4.84V14.821z" fill="#087fbf"/><path d="M158.711 259.941H4.84V14.821H158.71" fill="none" stroke="#fff" stroke-width="4"/><path d="M158.711 14.82l49.141 49.14v245.118H53.981L4.84 259.941H158.71V14.821" fill="#087fbf"/><path d="M158.711 14.82l49.141 49.14v245.118H53.981L4.84 259.941H158.71V14.821z" fill="none" stroke="#fff" stroke-width="4"/><path d="M158.711 259.941l49.141 49.137" fill="#231f20"/><path d="M158.711 259.941l49.141 49.137" fill="none" stroke="#fff" stroke-width="4" stroke-linecap="round" stroke-linejoin="round"/><path d="M158.711 259.941H4.84V14.821H158.71" fill="none" stroke="#fff" stroke-width="4"/><path d="M158.711 14.82l49.141 49.14v245.118H53.981L4.84 259.941H158.71V14.821zM158.711 259.941l49.141 49.137" fill="none" stroke="#fff" stroke-width="4"/><path d="M77.809 74.078c0-6.09-13.04-11.02-29.137-11.02-16.133 0-29.184 4.93-29.184 11.02 0 6.05 13.051 10.98 29.184 10.98 16.097 0 29.137-4.93 29.137-10.98" fill="#fff"/><path d="M77.809 74.078c0-6.09-13.04-11.02-29.137-11.02-16.133 0-29.184 4.93-29.184 11.02 0 6.05 13.051 10.98 29.184 10.98 16.097 0 29.137-4.93 29.137-10.98z" fill="none" stroke="#231f20" stroke-width="3.5" stroke-linecap="round" stroke-linejoin="round"/><path d="M57.27 74.66c0-1.832-3.91-3.281-8.75-3.281-4.848 0-8.75 1.45-8.75 3.281 0 1.84 3.902 3.328 8.75 3.328 4.84 0 8.75-1.488 8.75-3.328" fill="#231f20"/><path d="M57.27 80.68c0-1.84-3.91-3.32-8.75-3.32-4.848 0-8.75 1.48-8.75 3.32 0 1.8 3.902 3.28 8.75 3.28 4.84 0 8.75-1.48 8.75-3.28" fill="#231f20"/><path d="M77.809 86.07c0-6.09-13.04-11.011-29.137-11.011-16.133 0-29.184 4.922-29.184 11.011 0 6.09 13.051 11.02 29.184 11.02 16.097 0 29.137-4.93 29.137-11.02" fill="#fff"/><path d="M77.809 86.07c0-6.09-13.04-11.011-29.137-11.011-16.133 0-29.184 4.922-29.184 11.011 0 6.09 13.051 11.02 29.184 11.02 16.097 0 29.137-4.93 29.137-11.02z" fill="none" stroke="#231f20" stroke-width="3.5" stroke-linecap="round" stroke-linejoin="round"/><path d="M57.27 86.66c0-1.8-3.91-3.281-8.75-3.281-4.848 0-8.75 1.48-8.75 3.281 0 1.828 3.902 3.32 8.75 3.32 4.84 0 8.75-1.492 8.75-3.32" fill="#231f20"/><path d="M57.27 92.668c0-1.828-3.91-3.316-8.75-3.316-4.848 0-8.75 1.488-8.75 3.316 0 1.844 3.902 3.281 8.75 3.281 4.84 0 8.75-1.437 8.75-3.281" fill="#231f20"/><path d="M77.809 98.059c0-6.047-13.04-10.97-29.137-10.97-16.133 0-29.184 4.923-29.184 10.97 0 6.101 13.051 11.019 29.184 11.019 16.097 0 29.137-4.918 29.137-11.02" fill="#fff"/><path d="M77.809 98.059c0-6.047-13.04-10.97-29.137-10.97-16.133 0-29.184 4.923-29.184 10.97 0 6.101 13.051 11.019 29.184 11.019 16.097 0 29.137-4.918 29.137-11.02z" fill="none" stroke="#231f20" stroke-width="3.5" stroke-linecap="round" stroke-linejoin="round"/><path d="M57.27 98.648c0-1.796-3.91-3.277-8.75-3.277-4.848 0-8.75 1.48-8.75 3.277 0 1.84 3.902 3.321 8.75 3.321 4.84 0 8.75-1.481 8.75-3.32" fill="#231f20"/><path d="M77.809 122.051c0-6.063-13.04-10.981-29.137-10.981-16.133 0-29.184 4.918-29.184 10.981 0 6.09 13.051 11.008 29.184 11.008 16.097 0 29.137-4.918 29.137-11.008" fill="#fff"/><path d="M77.809 122.051c0-6.063-13.04-10.981-29.137-10.981-16.133 0-29.184 4.918-29.184 10.981 0 6.09 13.051 11.008 29.184 11.008 16.097 0 29.137-4.918 29.137-11.008z" fill="none" stroke="#231f20" stroke-width="3.5" stroke-linecap="round" stroke-linejoin="round"/><path d="M57.27 122.668c0-1.828-3.91-3.316-8.75-3.316-4.848 0-8.75 1.488-8.75 3.316 0 1.844 3.902 3.281 8.75 3.281 4.84 0 8.75-1.437 8.75-3.281" fill="#231f20"/><path d="M57.27 128.648c0-1.796-3.91-3.277-8.75-3.277-4.848 0-8.75 1.481-8.75 3.277 0 1.84 3.902 3.321 8.75 3.321 4.84 0 8.75-1.481 8.75-3.321" fill="#231f20"/><path d="M77.809 134.078c0-6.09-13.04-11.019-29.137-11.019-16.133 0-29.184 4.929-29.184 11.019 0 6.051 13.051 10.981 29.184 10.981 16.097 0 29.137-4.93 29.137-10.981" fill="#fff"/><path d="M77.809 134.078c0-6.09-13.04-11.019-29.137-11.019-16.133 0-29.184 4.929-29.184 11.019 0 6.051 13.051 10.981 29.184 10.981 16.097 0 29.137-4.93 29.137-10.981z" fill="none" stroke="#231f20" stroke-width="3.5" stroke-linecap="round" stroke-linejoin="round"/><path d="M57.27 134.66c0-1.832-3.91-3.281-8.75-3.281-4.848 0-8.75 1.449-8.75 3.281 0 1.84 3.902 3.328 8.75 3.328 4.84 0 8.75-1.488 8.75-3.328" fill="#231f20"/><path d="M57.27 140.68c0-1.84-3.91-3.321-8.75-3.321-4.848 0-8.75 1.481-8.75 3.321 0 1.8 3.902 3.281 8.75 3.281 4.84 0 8.75-1.481 8.75-3.281" fill="#231f20"/><path d="M77.809 146.07c0-6.09-13.04-11.011-29.137-11.011-16.133 0-29.184 4.921-29.184 11.011 0 6.09 13.051 11.02 29.184 11.02 16.097 0 29.137-4.93 29.137-11.02" fill="#fff"/><path d="M77.809 146.07c0-6.09-13.04-11.011-29.137-11.011-16.133 0-29.184 4.921-29.184 11.011 0 6.09 13.051 11.02 29.184 11.02 16.097 0 29.137-4.93 29.137-11.02z" fill="none" stroke="#231f20" stroke-width="3.5" stroke-linecap="round" stroke-linejoin="round"/><path d="M57.27 146.66c0-1.801-3.91-3.281-8.75-3.281-4.848 0-8.75 1.48-8.75 3.281 0 1.828 3.902 3.32 8.75 3.32 4.84 0 8.75-1.492 8.75-3.32" fill="#231f20"/><path d="M77.809 170.059c0-6.059-13.04-10.981-29.137-10.981-16.133 0-29.184 4.922-29.184 10.981 0 6.089 13.051 11.011 29.184 11.011 16.097 0 29.137-4.922 29.137-11.011" fill="#fff"/><path d="M77.809 170.059c0-6.059-13.04-10.981-29.137-10.981-16.133 0-29.184 4.922-29.184 10.981 0 6.089 13.051 11.011 29.184 11.011 16.097 0 29.137-4.922 29.137-11.011z" fill="none" stroke="#231f20" stroke-width="3.5" stroke-linecap="round" stroke-linejoin="round"/><path d="M57.27 170.68c0-1.84-3.91-3.321-8.75-3.321-4.848 0-8.75 1.481-8.75 3.321 0 1.8 3.902 3.281 8.75 3.281 4.84 0 8.75-1.481 8.75-3.281" fill="#231f20"/><path d="M57.27 176.66c0-1.801-3.91-3.281-8.75-3.281-4.848 0-8.75 1.48-8.75 3.281 0 1.828 3.902 3.32 8.75 3.32 4.84 0 8.75-1.492 8.75-3.32" fill="#231f20"/><path d="M77.809 182.051c0-6.063-13.04-10.981-29.137-10.981-16.133 0-29.184 4.918-29.184 10.981 0 6.09 13.051 11.008 29.184 11.008 16.097 0 29.137-4.918 29.137-11.008" fill="#fff"/><path d="M77.809 182.051c0-6.063-13.04-10.981-29.137-10.981-16.133 0-29.184 4.918-29.184 10.981 0 6.09 13.051 11.008 29.184 11.008 16.097 0 29.137-4.918 29.137-11.008z" fill="none" stroke="#231f20" stroke-width="3.5" stroke-linecap="round" stroke-linejoin="round"/><path d="M57.27 182.668c0-1.828-3.91-3.316-8.75-3.316-4.848 0-8.75 1.488-8.75 3.316 0 1.844 3.902 3.281 8.75 3.281 4.84 0 8.75-1.437 8.75-3.281" fill="#231f20"/><path d="M57.27 188.648c0-1.796-3.91-3.277-8.75-3.277-4.848 0-8.75 1.481-8.75 3.277 0 1.84 3.902 3.321 8.75 3.321 4.84 0 8.75-1.481 8.75-3.321" fill="#231f20"/><path d="M77.809 194.078c0-6.09-13.04-11.019-29.137-11.019-16.133 0-29.184 4.929-29.184 11.019 0 6.051 13.051 10.981 29.184 10.981 16.097 0 29.137-4.93 29.137-10.981" fill="#fff"/><path d="M77.809 194.078c0-6.09-13.04-11.019-29.137-11.019-16.133 0-29.184 4.929-29.184 11.019 0 6.051 13.051 10.981 29.184 10.981 16.097 0 29.137-4.93 29.137-10.981z" fill="none" stroke="#231f20" stroke-width="3.5" stroke-linecap="round" stroke-linejoin="round"/><path d="M57.27 194.66c0-1.832-3.91-3.281-8.75-3.281-4.848 0-8.75 1.449-8.75 3.281 0 1.84 3.902 3.328 8.75 3.328 4.84 0 8.75-1.488 8.75-3.328" fill="#231f20"/><path d="M142.809 74.078c0-6.09-13.039-11.02-29.137-11.02-16.133 0-29.184 4.93-29.184 11.02 0 6.05 13.051 10.98 29.184 10.98 16.098 0 29.137-4.93 29.137-10.98" fill="#fff"/><path d="M142.809 74.078c0-6.09-13.039-11.02-29.137-11.02-16.133 0-29.184 4.93-29.184 11.02 0 6.05 13.051 10.98 29.184 10.98 16.098 0 29.137-4.93 29.137-10.98z" fill="none" stroke="#231f20" stroke-width="3.5" stroke-linecap="round" stroke-linejoin="round"/><path d="M122.27 74.66c0-1.832-3.911-3.281-8.75-3.281-4.848 0-8.75 1.45-8.75 3.281 0 1.84 3.902 3.328 8.75 3.328 4.839 0 8.75-1.488 8.75-3.328" fill="#231f20"/><path d="M122.27 80.68c0-1.84-3.911-3.32-8.75-3.32-4.848 0-8.75 1.48-8.75 3.32 0 1.8 3.902 3.28 8.75 3.28 4.839 0 8.75-1.48 8.75-3.28" fill="#231f20"/><path d="M142.809 86.07c0-6.09-13.039-11.011-29.137-11.011-16.133 0-29.184 4.922-29.184 11.011 0 6.09 13.051 11.02 29.184 11.02 16.098 0 29.137-4.93 29.137-11.02" fill="#fff"/><path d="M142.809 86.07c0-6.09-13.039-11.011-29.137-11.011-16.133 0-29.184 4.922-29.184 11.011 0 6.09 13.051 11.02 29.184 11.02 16.098 0 29.137-4.93 29.137-11.02z" fill="none" stroke="#231f20" stroke-width="3.5" stroke-linecap="round" stroke-linejoin="round"/><path d="M122.27 86.66c0-1.8-3.911-3.281-8.75-3.281-4.848 0-8.75 1.48-8.75 3.281 0 1.828 3.902 3.32 8.75 3.32 4.839 0 8.75-1.492 8.75-3.32" fill="#231f20"/><path d="M122.27 92.668c0-1.828-3.911-3.316-8.75-3.316-4.848 0-8.75 1.488-8.75 3.316 0 1.844 3.902 3.281 8.75 3.281 4.839 0 8.75-1.437 8.75-3.281" fill="#231f20"/><path d="M142.809 98.059c0-6.047-13.039-10.97-29.137-10.97-16.133 0-29.184 4.923-29.184 10.97 0 6.101 13.051 11.019 29.184 11.019 16.098 0 29.137-4.918 29.137-11.02" fill="#fff"/><path d="M142.809 98.059c0-6.047-13.039-10.97-29.137-10.97-16.133 0-29.184 4.923-29.184 10.97 0 6.101 13.051 11.019 29.184 11.019 16.098 0 29.137-4.918 29.137-11.02z" fill="none" stroke="#231f20" stroke-width="3.5" stroke-linecap="round" stroke-linejoin="round"/><path d="M122.27 98.648c0-1.796-3.911-3.277-8.75-3.277-4.848 0-8.75 1.48-8.75 3.277 0 1.84 3.902 3.321 8.75 3.321 4.839 0 8.75-1.481 8.75-3.32" fill="#231f20"/><path d="M142.809 122.051c0-6.063-13.039-10.981-29.137-10.981-16.133 0-29.184 4.918-29.184 10.981 0 6.09 13.051 11.008 29.184 11.008 16.098 0 29.137-4.918 29.137-11.008" fill="#fff"/><path d="M142.809 122.051c0-6.063-13.039-10.981-29.137-10.981-16.133 0-29.184 4.918-29.184 10.981 0 6.09 13.051 11.008 29.184 11.008 16.098 0 29.137-4.918 29.137-11.008z" fill="none" stroke="#231f20" stroke-width="3.5" stroke-linecap="round" stroke-linejoin="round"/><path d="M122.27 122.668c0-1.828-3.911-3.316-8.75-3.316-4.848 0-8.75 1.488-8.75 3.316 0 1.844 3.902 3.281 8.75 3.281 4.839 0 8.75-1.437 8.75-3.281" fill="#231f20"/><path d="M122.27 128.648c0-1.796-3.911-3.277-8.75-3.277-4.848 0-8.75 1.481-8.75 3.277 0 1.84 3.902 3.321 8.75 3.321 4.839 0 8.75-1.481 8.75-3.321" fill="#231f20"/><path d="M142.809 134.078c0-6.09-13.039-11.019-29.137-11.019-16.133 0-29.184 4.929-29.184 11.019 0 6.051 13.051 10.981 29.184 10.981 16.098 0 29.137-4.93 29.137-10.981" fill="#fff"/><path d="M142.809 134.078c0-6.09-13.039-11.019-29.137-11.019-16.133 0-29.184 4.929-29.184 11.019 0 6.051 13.051 10.981 29.184 10.981 16.098 0 29.137-4.93 29.137-10.981z" fill="none" stroke="#231f20" stroke-width="3.5" stroke-linecap="round" stroke-linejoin="round"/><path d="M122.27 134.66c0-1.832-3.911-3.281-8.75-3.281-4.848 0-8.75 1.449-8.75 3.281 0 1.84 3.902 3.328 8.75 3.328 4.839 0 8.75-1.488 8.75-3.328" fill="#231f20"/><path d="M122.27 140.68c0-1.84-3.911-3.321-8.75-3.321-4.848 0-8.75 1.481-8.75 3.321 0 1.8 3.902 3.281 8.75 3.281 4.839 0 8.75-1.481 8.75-3.281" fill="#231f20"/><path d="M142.809 146.07c0-6.09-13.039-11.011-29.137-11.011-16.133 0-29.184 4.921-29.184 11.011 0 6.09 13.051 11.02 29.184 11.02 16.098 0 29.137-4.93 29.137-11.02" fill="#fff"/><path d="M142.809 146.07c0-6.09-13.039-11.011-29.137-11.011-16.133 0-29.184 4.921-29.184 11.011 0 6.09 13.051 11.02 29.184 11.02 16.098 0 29.137-4.93 29.137-11.02z" fill="none" stroke="#231f20" stroke-width="3.5" stroke-linecap="round" stroke-linejoin="round"/><path d="M122.27 146.66c0-1.801-3.911-3.281-8.75-3.281-4.848 0-8.75 1.48-8.75 3.281 0 1.828 3.902 3.32 8.75 3.32 4.839 0 8.75-1.492 8.75-3.32" fill="#231f20"/><path d="M142.809 170.059c0-6.059-13.039-10.981-29.137-10.981-16.133 0-29.184 4.922-29.184 10.981 0 6.089 13.051 11.011 29.184 11.011 16.098 0 29.137-4.922 29.137-11.011" fill="#fff"/><path d="M142.809 170.059c0-6.059-13.039-10.981-29.137-10.981-16.133 0-29.184 4.922-29.184 10.981 0 6.089 13.051 11.011 29.184 11.011 16.098 0 29.137-4.922 29.137-11.011z" fill="none" stroke="#231f20" stroke-width="3.5" stroke-linecap="round" stroke-linejoin="round"/><path d="M122.27 170.68c0-1.84-3.911-3.321-8.75-3.321-4.848 0-8.75 1.481-8.75 3.321 0 1.8 3.902 3.281 8.75 3.281 4.839 0 8.75-1.481 8.75-3.281" fill="#231f20"/><path d="M122.27 176.66c0-1.801-3.911-3.281-8.75-3.281-4.848 0-8.75 1.48-8.75 3.281 0 1.828 3.902 3.32 8.75 3.32 4.839 0 8.75-1.492 8.75-3.32" fill="#231f20"/><path d="M142.809 182.051c0-6.063-13.039-10.981-29.137-10.981-16.133 0-29.184 4.918-29.184 10.981 0 6.09 13.051 11.008 29.184 11.008 16.098 0 29.137-4.918 29.137-11.008" fill="#fff"/><path d="M142.809 182.051c0-6.063-13.039-10.981-29.137-10.981-16.133 0-29.184 4.918-29.184 10.981 0 6.09 13.051 11.008 29.184 11.008 16.098 0 29.137-4.918 29.137-11.008z" fill="none" stroke="#231f20" stroke-width="3.5" stroke-linecap="round" stroke-linejoin="round"/><path d="M122.27 182.668c0-1.828-3.911-3.316-8.75-3.316-4.848 0-8.75 1.488-8.75 3.316 0 1.844 3.902 3.281 8.75 3.281 4.839 0 8.75-1.437 8.75-3.281" fill="#231f20"/><path d="M122.27 188.648c0-1.796-3.911-3.277-8.75-3.277-4.848 0-8.75 1.481-8.75 3.277 0 1.84 3.902 3.321 8.75 3.321 4.839 0 8.75-1.481 8.75-3.321" fill="#231f20"/><path d="M142.809 194.078c0-6.09-13.039-11.019-29.137-11.019-16.133 0-29.184 4.929-29.184 11.019 0 6.051 13.051 10.981 29.184 10.981 16.098 0 29.137-4.93 29.137-10.981" fill="#fff"/><path d="M142.809 194.078c0-6.09-13.039-11.019-29.137-11.019-16.133 0-29.184 4.929-29.184 11.019 0 6.051 13.051 10.981 29.184 10.981 16.098 0 29.137-4.93 29.137-10.981z" fill="none" stroke="#231f20" stroke-width="3.5" stroke-linecap="round" stroke-linejoin="round"/><path d="M122.27 194.66c0-1.832-3.911-3.281-8.75-3.281-4.848 0-8.75 1.449-8.75 3.281 0 1.84 3.902 3.328 8.75 3.328 4.839 0 8.75-1.488 8.75-3.328" fill="#231f20"/></g></svg>