<?xml version="1.0" encoding="UTF-8" standalone="no"?>
<svg
   xmlns:dc="http://purl.org/dc/elements/1.1/"
   xmlns:cc="http://creativecommons.org/ns#"
   xmlns:rdf="http://www.w3.org/1999/02/22-rdf-syntax-ns#"
   xmlns:svg="http://www.w3.org/2000/svg"
   xmlns="http://www.w3.org/2000/svg"
   viewBox="0 0 61.25 46.25"
   height="46.25"
   width="61.25"
   xml:space="preserve"
   version="1.1"
   id="svg2"><metadata
     id="metadata8"><rdf:RDF><cc:Work
         rdf:about=""><dc:format>image/svg+xml</dc:format><dc:type
           rdf:resource="http://purl.org/dc/dcmitype/StillImage" /></cc:Work></rdf:RDF></metadata><defs
     id="defs6" /><g
     transform="matrix(1.25,0,0,-1.25,0,46.25)"
     id="g10"><g
       transform="scale(0.1,0.1)"
       id="g12"><path
         id="path14"
         style="fill:#087fbf;fill-opacity:1;fill-rule:nonzero;stroke:none"
         d="m 6.55859,132.078 357.191,0 0,115.98 -357.191,0 0,-115.98 z" /><path
         id="path16"
         style="fill:none;stroke:#ffffff;stroke-width:4;stroke-linecap:butt;stroke-linejoin:miter;stroke-miterlimit:4;stroke-dasharray:none;stroke-opacity:1"
         d="m 6.55859,132.082 357.191,0 0,115.98 -357.191,0 0,-115.98 z" /><path
         id="path18"
         style="fill:#087fbf;fill-opacity:1;fill-rule:nonzero;stroke:none"
         d="m 5.62109,247.48 144.30091,116.911 333.277,0 -119.758,-116.911 -357.81991,0" /><path
         id="path20"
         style="fill:none;stroke:#ffffff;stroke-width:4;stroke-linecap:butt;stroke-linejoin:miter;stroke-miterlimit:4;stroke-dasharray:none;stroke-opacity:1"
         d="m 5.62109,247.48 144.30091,116.911 333.277,0 -119.758,-116.911 -357.81991,0 z" /><path
         id="path22"
         style="fill:#087fbf;fill-opacity:1;fill-rule:nonzero;stroke:none"
         d="m 363.551,128.449 119.34,128.91 0.078,106.84 -119.418,-116.57 0,-119.18" /><path
         id="path24"
         style="fill:none;stroke:#ffffff;stroke-width:4;stroke-linecap:butt;stroke-linejoin:miter;stroke-miterlimit:4;stroke-dasharray:none;stroke-opacity:1"
         d="m 363.551,128.453 119.34,128.91 0.078,106.828 -119.418,-116.558 0,-119.18 z" /><path
         id="path26"
         style="fill:#ffffff;fill-opacity:1;fill-rule:nonzero;stroke:none"
         d="m 215.039,277.91 -6.949,-5.711 -89.11,0 -8.859,-8.859 -24.1405,10.5 48.5505,13.91 -8.59,-9.84 89.098,0" /><path
         id="path28"
         style="fill:#ffffff;fill-opacity:1;fill-rule:nonzero;stroke:none"
         d="m 285.039,321.66 -6.949,-5.711 -89.11,0 -8.859,-8.859 -24.141,10.5 48.551,13.91 -8.59,-9.84 89.098,0" /><path
         id="path30"
         style="fill:#ffffff;fill-opacity:1;fill-rule:nonzero;stroke:none"
         d="m 230.738,293.34 6.922,5.699 89.102,0 8.859,8.871 24.149,-10.512 -48.559,-13.91 8.59,9.852 -89.063,0" /><path
         id="path32"
         style="fill:#ffffff;fill-opacity:1;fill-rule:nonzero;stroke:none"
         d="m 276.988,337.09 6.922,5.699 89.102,0 8.867,8.871 24.141,-10.512 -48.559,-13.91 8.59,9.852 -89.063,0" /><path
         id="path34"
         style="fill:#087fbf;fill-opacity:1;fill-rule:nonzero;stroke:none"
         d="m 6.55859,18.7617 357.191,0 0,115.938 -357.191,0 0,-115.938 z" /><path
         id="path36"
         style="fill:none;stroke:#ffffff;stroke-width:4;stroke-linecap:butt;stroke-linejoin:miter;stroke-miterlimit:4;stroke-dasharray:none;stroke-opacity:1"
         d="m 6.55859,18.7617 357.191,0 0,115.941 -357.191,0 0,-115.941 z" /><path
         id="path38"
         style="fill:#087fbf;fill-opacity:1;fill-rule:nonzero;stroke:none"
         d="m 363.551,15.0898 119.34,128.9492 0.078,106.84 -119.418,-116.57 0,-119.2192" /><path
         id="path40"
         style="fill:none;stroke:#ffffff;stroke-width:4;stroke-linecap:butt;stroke-linejoin:miter;stroke-miterlimit:4;stroke-dasharray:none;stroke-opacity:1"
         d="m 363.551,15.0938 119.34,128.9492 0.078,106.828 -119.418,-116.558 0,-119.2192 z" /><path
         id="path42"
         style="fill:#ffffff;fill-opacity:1;fill-rule:nonzero;stroke:none"
         d="m 142.969,193.18 -66.8401,0 0,6.129 -25.1875,-9.02 25.1875,-9.019 0,6.089 66.8401,0 0,5.821" /><path
         id="path44"
         style="fill:#ffffff;fill-opacity:1;fill-rule:nonzero;stroke:none"
         d="m 180.738,174 0,-23.711 -17.258,0 25.469,-8.949 25.43,8.949 -17.231,0 0,23.711 -16.41,0" /><path
         id="path46"
         style="fill:#ffffff;fill-opacity:1;fill-rule:nonzero;stroke:none"
         d="m 180.738,205.922 0,23.668 -17.258,0 25.469,8.941 25.43,-8.941 -17.231,0 0,-23.668 -16.41,0" /><path
         id="path48"
         style="fill:#ffffff;fill-opacity:1;fill-rule:nonzero;stroke:none"
         d="m 234.922,187.359 66.797,0 0,-6.089 25.23,9.019 -25.23,9.02 0,-6.129 -66.797,0 0,-5.821" /><path
         id="path50"
         style="fill:none;stroke:#ffffff;stroke-width:4;stroke-linecap:butt;stroke-linejoin:miter;stroke-miterlimit:4;stroke-dasharray:none;stroke-opacity:1"
         d="m 296.449,152.242 c -12.539,-4.691 -70.16,8.199 -128.679,28.828 -58.508,20.621 -95.7817,41.133 -83.2387,45.821 12.539,4.691 70.1987,-8.2 128.7067,-28.828 58.524,-20.583 95.742,-41.129 83.211,-45.821 z" /><path
         id="path52"
         style="fill:none;stroke:#ffffff;stroke-width:4;stroke-linecap:butt;stroke-linejoin:miter;stroke-miterlimit:4;stroke-dasharray:none;stroke-opacity:1"
         d="m 293.121,227.242 c 13.25,-4.449 -23.16,-24.879 -81.32,-45.621 -58.129,-20.75 -116.0197,-33.949 -129.2619,-29.5 -13.2383,4.461 23.1599,24.891 81.3319,45.633 58.117,20.738 115.969,33.937 129.25,29.488 z" /><path
         id="path54"
         style="fill:#bfbebe;fill-opacity:1;fill-rule:nonzero;stroke:none"
         d="m 216.328,176.5 c 22.113,5.512 27.461,16.289 11.992,24.102 -15.468,7.82 -45.859,9.726 -67.929,4.257 -22.071,-5.468 -27.422,-16.289 -11.95,-24.097 15.43,-7.813 45.821,-9.731 67.887,-4.262" /></g></g></svg>