<svg xmlns="http://www.w3.org/2000/svg" viewBox="0 0 31.25 37.5" height="37.5" width="31.25"><path d="M5.015 37.022H24.25V6.377H5.015v30.645z" fill="#02709f"/><path d="M24.247 6.378H5.015V37.02h19.232" fill="none" stroke="#fff" stroke-width=".5"/><path d="M24.247 37.021l6.143-6.142V.239H11.158L5.015 6.378h19.233V37.02" fill="#02709f"/><path d="M24.247 37.021l6.143-6.142V.239H11.158L5.015 6.378h19.233V37.02zM5.322 15.796h18.75M5.322 25.317h18.75M12.216 10.873h5.469" fill="none" stroke="#fff" stroke-width=".5"/><path d="M10.029 12.748h9.687V8.842H10.03v3.906z" fill="#02709f"/><path d="M10.029 12.748h9.687V8.842H10.03v3.906zM12.216 30.44h5.469" fill="none" stroke="#fff" stroke-width=".5"/><path d="M10.029 32.315h9.687v-3.906H10.03v3.906z" fill="#02709f"/><path d="M10.029 32.315h9.687v-3.906H10.03v3.906zM5.322 34.839h18.75" fill="none" stroke="#fff" stroke-width=".5"/><path d="M19.839 29.556l4.233-4.239v-7.065H4.84L.605 22.49h19.234v7.066" fill="#02709f"/><path d="M19.839 29.556l4.233-4.239v-7.065H4.84L.605 22.49h19.234v7.066z" fill="none" stroke="#fff" stroke-width=".5"/><path d="M19.839 22.49l4.233-4.234" fill="#02709f"/><path d="M19.839 22.49l4.233-4.234" fill="none" stroke="#fff" stroke-width=".5"/><path d="M.605 29.556h19.234v-9.585H.605v9.585z" fill="#02709f"/><path d="M.605 29.556h19.234v-9.585H.605v9.585zM7.808 24.882h5.468" fill="none" stroke="#fff" stroke-width=".5"/><path d="M5.62 26.757h9.688v-3.906H5.62v3.906z" fill="#02709f"/><path d="M5.62 26.757h9.688v-3.906H5.62v3.906z" fill="none" stroke="#fff" stroke-width=".5"/></svg>