<?xml version="1.0" encoding="UTF-8" standalone="no"?>
<svg
   xmlns:dc="http://purl.org/dc/elements/1.1/"
   xmlns:cc="http://creativecommons.org/ns#"
   xmlns:rdf="http://www.w3.org/1999/02/22-rdf-syntax-ns#"
   xmlns:svg="http://www.w3.org/2000/svg"
   xmlns="http://www.w3.org/2000/svg"
   viewBox="0 0 31.25 51.25"
   height="51.25"
   width="31.25"
   xml:space="preserve"
   version="1.1"
   id="svg2"><metadata
     id="metadata8"><rdf:RDF><cc:Work
         rdf:about=""><dc:format>image/svg+xml</dc:format><dc:type
           rdf:resource="http://purl.org/dc/dcmitype/StillImage" /></cc:Work></rdf:RDF></metadata><defs
     id="defs6"><clipPath
       id="clipPath18"
       clipPathUnits="userSpaceOnUse"><path
         id="path20"
         d="m 0,10 250,0 0,400 L 0,410 0,10 Z" /></clipPath></defs><g
     transform="matrix(1.25,0,0,-1.25,0,51.25)"
     id="g10"><g
       transform="scale(0.1,0.1)"
       id="g12"><g
         id="g14"><g
           clip-path="url(#clipPath18)"
           id="g16"><path
             id="path22"
             style="fill:#087fbf;fill-opacity:1;fill-rule:nonzero;stroke:none"
             d="m 250.121,405.859 -27.5,-31.132 -217.31241,0 35.63281,31.132 209.1796,0" /><path
             id="path24"
             style="fill:none;stroke:#ffffff;stroke-width:4;stroke-linecap:butt;stroke-linejoin:miter;stroke-miterlimit:4;stroke-dasharray:none;stroke-opacity:1"
             d="m 250.121,405.859 -27.5,-31.132 -217.31241,0 35.63281,31.132 209.1796,0 z" /><path
             id="path26"
             style="fill:#087fbf;fill-opacity:1;fill-rule:nonzero;stroke:none"
             d="m 5.30859,287.727 217.301,0 0,88.3203 -217.301,0 0,-88.3203 z" /><path
             id="path28"
             style="fill:none;stroke:#ffffff;stroke-width:4;stroke-linecap:butt;stroke-linejoin:miter;stroke-miterlimit:4;stroke-dasharray:none;stroke-opacity:1"
             d="m 5.30859,287.727 217.301,0 0,88.3203 -217.301,0 0,-88.3203 z" /><path
             id="path30"
             style="fill:#087fbf;fill-opacity:1;fill-rule:nonzero;stroke:none"
             d="m 250.078,316.68 0,88.316 -27.457,-28.949 0,-88.32 27.457,28.953" /><path
             id="path32"
             style="fill:none;stroke:#ffffff;stroke-width:4;stroke-linecap:butt;stroke-linejoin:miter;stroke-miterlimit:4;stroke-dasharray:none;stroke-opacity:1"
             d="m 250.078,316.68 0,88.316 -27.457,-28.949 0,-88.32 27.457,28.953 z" /><path
             id="path34"
             style="fill:#087fbf;fill-opacity:1;fill-rule:nonzero;stroke:none"
             d="m 222.621,288.707 0,-173.59 27.457,28.903 0,173.597 -27.457,-28.91" /><path
             id="path36"
             style="fill:none;stroke:#ffffff;stroke-width:4;stroke-linecap:butt;stroke-linejoin:miter;stroke-miterlimit:4;stroke-dasharray:none;stroke-opacity:1"
             d="m 222.621,288.707 0,-173.59 27.457,28.903 0,173.597 -27.457,-28.91 z" /><path
             id="path38"
             style="fill:none;stroke:#ffffff;stroke-width:4;stroke-linecap:round;stroke-linejoin:round;stroke-miterlimit:4;stroke-dasharray:none;stroke-opacity:1"
             d="m 221.559,348.316 -215.14884,0" /><path
             id="path40"
             style="fill:none;stroke:#ffffff;stroke-width:4;stroke-linecap:round;stroke-linejoin:round;stroke-miterlimit:4;stroke-dasharray:none;stroke-opacity:1"
             d="m 238.012,393.156 -215.1604,0" /><path
             id="path42"
             style="fill:none;stroke:#ffffff;stroke-width:4;stroke-linecap:round;stroke-linejoin:round;stroke-miterlimit:4;stroke-dasharray:none;stroke-opacity:1"
             d="m 221.559,318.52 -215.14884,0" /><path
             id="path44"
             style="fill:none;stroke:#ffffff;stroke-width:4;stroke-linecap:round;stroke-linejoin:round;stroke-miterlimit:4;stroke-dasharray:none;stroke-opacity:1"
             d="m 250.699,379.297 -27.379,-30" /><path
             id="path46"
             style="fill:none;stroke:#ffffff;stroke-width:4;stroke-linecap:round;stroke-linejoin:round;stroke-miterlimit:4;stroke-dasharray:none;stroke-opacity:1"
             d="M 250.699,349.449 223.32,319.488" /><path
             id="path48"
             style="fill:none;stroke:#ffffff;stroke-width:4;stroke-linecap:round;stroke-linejoin:round;stroke-miterlimit:4;stroke-dasharray:none;stroke-opacity:1"
             d="m 70.1602,375.617 0,-27.027" /><path
             id="path50"
             style="fill:none;stroke:#ffffff;stroke-width:4;stroke-linecap:round;stroke-linejoin:round;stroke-miterlimit:4;stroke-dasharray:none;stroke-opacity:1"
             d="m 153.359,375.617 0,-27.027" /><path
             id="path52"
             style="fill:none;stroke:#ffffff;stroke-width:4;stroke-linecap:round;stroke-linejoin:round;stroke-miterlimit:4;stroke-dasharray:none;stroke-opacity:1"
             d="m 70.1602,317.027 0,-27.031" /><path
             id="path54"
             style="fill:none;stroke:#ffffff;stroke-width:4;stroke-linecap:round;stroke-linejoin:round;stroke-miterlimit:4;stroke-dasharray:none;stroke-opacity:1"
             d="m 153.359,317.027 0,-27.031" /><path
             id="path56"
             style="fill:none;stroke:#ffffff;stroke-width:4;stroke-linecap:round;stroke-linejoin:round;stroke-miterlimit:4;stroke-dasharray:none;stroke-opacity:1"
             d="m 113.398,346.988 0,-27.031" /><path
             id="path58"
             style="fill:none;stroke:#ffffff;stroke-width:4;stroke-linecap:round;stroke-linejoin:round;stroke-miterlimit:4;stroke-dasharray:none;stroke-opacity:1"
             d="m 30.2305,346.988 0,-27.031" /><path
             id="path60"
             style="fill:none;stroke:#ffffff;stroke-width:4;stroke-linecap:round;stroke-linejoin:round;stroke-miterlimit:4;stroke-dasharray:none;stroke-opacity:1"
             d="m 196.602,346.988 0,-27.031" /><path
             id="path62"
             style="fill:none;stroke:#ffffff;stroke-width:4;stroke-linecap:round;stroke-linejoin:round;stroke-miterlimit:4;stroke-dasharray:none;stroke-opacity:1"
             d="M 101.02,406.949 70.1602,376.129" /><path
             id="path64"
             style="fill:none;stroke:#ffffff;stroke-width:4;stroke-linecap:round;stroke-linejoin:round;stroke-miterlimit:4;stroke-dasharray:none;stroke-opacity:1"
             d="m 184.18,406.949 -30.821,-30.82" /><path
             id="path66"
             style="fill:#087fbf;fill-opacity:1;fill-rule:nonzero;stroke:none"
             d="m 5.30859,116.52 217.301,0 0,172.188 -217.301,0 0,-172.188 z" /><path
             id="path68"
             style="fill:none;stroke:#ffffff;stroke-width:4;stroke-linecap:butt;stroke-linejoin:miter;stroke-miterlimit:4;stroke-dasharray:none;stroke-opacity:1"
             d="m 222.621,288.707 0,-172.187 -217.31241,0 0,172.187" /><path
             id="path70"
             style="fill:#087fbf;fill-opacity:1;fill-rule:nonzero;stroke:none"
             d="m 5.30859,10.2266 217.301,0 0,106.68 -217.301,0 0,-106.68 z" /><path
             id="path72"
             style="fill:none;stroke:#ffffff;stroke-width:4;stroke-linecap:butt;stroke-linejoin:miter;stroke-miterlimit:4;stroke-dasharray:none;stroke-opacity:1"
             d="m 5.30859,10.2266 217.301,0 0,106.68 -217.301,0 0,-106.68 z" /><path
             id="path74"
             style="fill:#087fbf;fill-opacity:1;fill-rule:nonzero;stroke:none"
             d="m 250.078,39.1797 0,105.9373 -27.457,-28.91 0,-105.9804 27.457,28.9531" /><path
             id="path76"
             style="fill:none;stroke:#ffffff;stroke-width:4;stroke-linecap:butt;stroke-linejoin:miter;stroke-miterlimit:4;stroke-dasharray:none;stroke-opacity:1"
             d="m 250.078,39.1797 0,105.9373 -27.457,-28.91 0,-105.9804 27.457,28.9531 z" /><path
             id="path78"
             style="fill:#ffffff;fill-opacity:1;fill-rule:nonzero;stroke:none"
             d="m 117.539,222.699 0,37.571 6.371,0 -9.379,14.179 -9.41,-14.179 6.359,0 0,-37.571 6.059,0" /><path
             id="path80"
             style="fill:#ffffff;fill-opacity:1;fill-rule:nonzero;stroke:none"
             d="m 98.3984,217.27 -26.5976,26.597 4.5273,4.492 -16.6797,3.36 3.3633,-16.68 4.5274,4.527 26.5625,-26.558 4.2968,4.262" /><path
             id="path82"
             style="fill:#ffffff;fill-opacity:1;fill-rule:nonzero;stroke:none"
             d="m 88.6719,199.879 -37.5821,0 0,6.367 -14.1796,-9.406 14.1796,-9.383 0,6.371 37.5821,0 0,6.051" /><path
             id="path84"
             style="fill:#ffffff;fill-opacity:1;fill-rule:nonzero;stroke:none"
             d="m 94.1016,180.699 -26.5625,-26.562 -4.5274,4.492 -3.3633,-16.68 16.6797,3.399 -4.5273,4.492 26.5976,26.609 -4.2968,4.25" /><path
             id="path86"
             style="fill:#ffffff;fill-opacity:1;fill-rule:nonzero;stroke:none"
             d="m 111.48,184.18 0,-72.543 -6.359,0 9.41,-14.219 9.379,14.219 -6.371,0 0,72.543 -6.059,0" /><path
             id="path88"
             style="fill:#ffffff;fill-opacity:1;fill-rule:nonzero;stroke:none"
             d="m 130.66,176.449 26.57,-26.609 -4.5,-4.492 16.68,-3.399 -3.39,16.68 -4.5,-4.492 -26.559,26.562 -4.301,-4.25" /><path
             id="path90"
             style="fill:#ffffff;fill-opacity:1;fill-rule:nonzero;stroke:none"
             d="m 140.391,193.828 37.578,0 0,-6.371 14.179,9.383 -14.179,9.406 0,-6.367 -37.578,0 0,-6.051" /><path
             id="path92"
             style="fill:#ffffff;fill-opacity:1;fill-rule:nonzero;stroke:none"
             d="m 134.961,213.008 26.559,26.558 4.5,-4.527 3.39,16.68 -16.68,-3.36 4.5,-4.492 -26.57,-26.597 4.301,-4.262" /><path
             id="path94"
             style="fill:#ffffff;fill-opacity:1;fill-rule:nonzero;stroke:none"
             d="m 137.5,165.348 c 17.621,12.351 21.879,36.601 9.57,54.179 -12.34,17.621 -36.601,21.922 -54.1794,9.571 -17.6211,-12.34 -21.8711,-36.602 -9.5703,-54.18 12.3399,-17.621 36.6017,-21.871 54.1797,-9.57" /><path
             id="path96"
             style="fill:none;stroke:#ffffff;stroke-width:4;stroke-linecap:round;stroke-linejoin:round;stroke-miterlimit:4;stroke-dasharray:none;stroke-opacity:1"
             d="m 238.09,392.34 0,-86.481" /><path
             id="path98"
             style="fill:#ffffff;fill-opacity:1;fill-rule:nonzero;stroke:none"
             d="m 112.191,74.8789 57.219,0 0,5.7109 18.711,-11.371 -18.711,-11.6797 0,5.6992 -57.219,0 0,11.6406" /><path
             id="path100"
             style="fill:#ffffff;fill-opacity:1;fill-rule:nonzero;stroke:none"
             d="m 112.191,39.2969 57.219,0 0,5.6992 18.711,-11.3672 -18.711,-11.6406 0,5.668 -57.219,0 0,11.6406" /><path
             id="path102"
             style="fill:#ffffff;fill-opacity:1;fill-rule:nonzero;stroke:none"
             d="m 113.48,91.9063 -57.23,0 0,5.6718 -18.7109,-11.332 18.7109,-11.6797 0,5.6602 57.23,0 0,11.6797" /><path
             id="path104"
             style="fill:#ffffff;fill-opacity:1;fill-rule:nonzero;stroke:none"
             d="m 113.48,56.3281 -57.23,0 0,5.6992 -18.7109,-11.371 18.7109,-11.6797 0,5.6718 57.23,0 0,11.6797" /><path
             id="path106"
             style="fill:none;stroke:#ffffff;stroke-width:4;stroke-linecap:round;stroke-linejoin:round;stroke-miterlimit:4;stroke-dasharray:none;stroke-opacity:1"
             d="m 221.559,288.316 -215.14884,0" /><path
             id="path108"
             style="fill:none;stroke:#ffffff;stroke-width:4;stroke-linecap:round;stroke-linejoin:round;stroke-miterlimit:4;stroke-dasharray:none;stroke-opacity:1"
             d="m 250.699,319.297 -27.379,-30" /><path
             id="path110"
             style="fill:none;stroke:#ffffff;stroke-width:4;stroke-linecap:round;stroke-linejoin:round;stroke-miterlimit:4;stroke-dasharray:none;stroke-opacity:1"
             d="m 221.559,117.066 -215.14884,0" /><path
             id="path112"
             style="fill:none;stroke:#ffffff;stroke-width:4;stroke-linecap:round;stroke-linejoin:round;stroke-miterlimit:4;stroke-dasharray:none;stroke-opacity:1"
             d="M 249.262,143.707 224.02,117.34" /></g></g></g></g></svg>