<svg xmlns="http://www.w3.org/2000/svg" viewBox="0 0 31.25 51.25" height="51.25" width="31.25"><defs><clipPath id="a"><path d="M0 10h250v400H0V10z"/></clipPath></defs><g clip-path="url(#a)" transform="matrix(.13 0 0 -.13 0 51.25)"><path d="M250.121 405.859l-27.5-31.132H5.309l35.632 31.132h209.18" fill="#087fbf"/><path d="M250.121 405.859l-27.5-31.132H5.309l35.632 31.132h209.18z" fill="none" stroke="#fff" stroke-width="4"/><path d="M5.309 287.727h217.3v88.32H5.31v-88.32z" fill="#087fbf"/><path d="M5.309 287.727h217.3v88.32H5.31v-88.32z" fill="none" stroke="#fff" stroke-width="4"/><path d="M250.078 316.68v88.316l-27.457-28.949v-88.32l27.457 28.953" fill="#087fbf"/><path d="M250.078 316.68v88.316l-27.457-28.949v-88.32l27.457 28.953z" fill="none" stroke="#fff" stroke-width="4"/><path d="M222.621 288.707v-173.59l27.457 28.903v173.597l-27.457-28.91" fill="#087fbf"/><path d="M222.621 288.707v-173.59l27.457 28.903v173.597l-27.457-28.91z" fill="none" stroke="#fff" stroke-width="4"/><path d="M221.559 348.316H6.41M238.012 393.156H22.852M221.559 318.52H6.41M250.699 379.297l-27.379-30M250.699 349.449l-27.379-29.961M70.16 375.617V348.59M153.359 375.617V348.59M70.16 317.027v-27.031M153.359 317.027v-27.031M113.398 346.988v-27.031M30.23 346.988v-27.031M196.602 346.988v-27.031M101.02 406.949l-30.86-30.82M184.18 406.949l-30.821-30.82" fill="none" stroke="#fff" stroke-width="4" stroke-linecap="round" stroke-linejoin="round"/><path d="M5.309 116.52h217.3v172.188H5.31V116.52z" fill="#087fbf"/><path d="M222.621 288.707V116.52H5.309v172.187" fill="none" stroke="#fff" stroke-width="4"/><path d="M5.309 10.227h217.3v106.68H5.31V10.227z" fill="#087fbf"/><path d="M5.309 10.227h217.3v106.68H5.31V10.227z" fill="none" stroke="#fff" stroke-width="4"/><path d="M250.078 39.18v105.937l-27.457-28.91V10.227l27.457 28.953" fill="#087fbf"/><path d="M250.078 39.18v105.937l-27.457-28.91V10.227l27.457 28.953z" fill="none" stroke="#fff" stroke-width="4"/><path d="M117.539 222.699v37.571h6.371l-9.379 14.179-9.41-14.179h6.359v-37.571h6.059M98.398 217.27l-26.597 26.597 4.527 4.492-16.68 3.36 3.364-16.68 4.527 4.527 26.563-26.558 4.296 4.262M88.672 199.879H51.09v6.367l-14.18-9.406 14.18-9.383v6.371h37.582v6.051M94.102 180.699l-26.563-26.562-4.527 4.492-3.364-16.68 16.68 3.399-4.527 4.492 26.597 26.609-4.296 4.25M111.48 184.18v-72.543h-6.359l9.41-14.219 9.379 14.219h-6.371v72.543h-6.059M130.66 176.449l26.57-26.609-4.5-4.492 16.68-3.399-3.39 16.68-4.5-4.492-26.559 26.562-4.301-4.25M140.391 193.828h37.578v-6.371l14.179 9.383-14.179 9.406v-6.367h-37.578v-6.051M134.961 213.008l26.559 26.558 4.5-4.527 3.39 16.68-16.68-3.36 4.5-4.492-26.57-26.597 4.301-4.262" fill="#fff"/><path d="M137.5 165.348c17.621 12.351 21.879 36.601 9.57 54.179-12.34 17.621-36.601 21.922-54.18 9.571-17.62-12.34-21.87-36.602-9.57-54.18 12.34-17.621 36.602-21.871 54.18-9.57" fill="#fff"/><path d="M238.09 392.34v-86.481" fill="none" stroke="#fff" stroke-width="4" stroke-linecap="round" stroke-linejoin="round"/><path d="M112.191 74.879h57.219v5.71l18.711-11.37-18.711-11.68v5.7h-57.219v11.64M112.191 39.297h57.219v5.7l18.711-11.368-18.711-11.64v5.667h-57.219v11.64M113.48 91.906H56.25v5.672L37.54 86.246l18.71-11.68v5.66h57.23v11.68M113.48 56.328H56.25v5.7L37.54 50.655l18.71-11.68v5.672h57.23v11.68" fill="#fff"/><path d="M221.559 288.316H6.41M250.699 319.297l-27.379-30M221.559 117.066H6.41M249.262 143.707L224.02 117.34" fill="none" stroke="#fff" stroke-width="4" stroke-linecap="round" stroke-linejoin="round"/></g></svg>