<?xml version="1.0" encoding="UTF-8" standalone="no"?>
<svg
   xmlns:dc="http://purl.org/dc/elements/1.1/"
   xmlns:cc="http://creativecommons.org/ns#"
   xmlns:rdf="http://www.w3.org/1999/02/22-rdf-syntax-ns#"
   xmlns:svg="http://www.w3.org/2000/svg"
   xmlns="http://www.w3.org/2000/svg"
   viewBox="0 0 31.825001 50.599998"
   height="50.599998"
   width="31.825001"
   xml:space="preserve"
   version="1.1"
   id="svg2"><metadata
     id="metadata8"><rdf:RDF><cc:Work
         rdf:about=""><dc:format>image/svg+xml</dc:format><dc:type
           rdf:resource="http://purl.org/dc/dcmitype/StillImage" /></cc:Work></rdf:RDF></metadata><defs
     id="defs6"><clipPath
       id="clipPath18"
       clipPathUnits="userSpaceOnUse"><path
         id="path20"
         d="m 0,4.76563 250,0 0,400 -250,0 0,-400 z" /></clipPath></defs><g
     transform="matrix(1.25,0,0,-1.25,0,50.6)"
     id="g10"><g
       transform="scale(0.1,0.1)"
       id="g12"><g
         id="g14"><g
           clip-path="url(#clipPath18)"
           id="g16"><path
             id="path22"
             style="fill:#087fbf;fill-opacity:1;fill-rule:nonzero;stroke:none"
             d="m 250.121,400.621 -27.5,-31.113 -217.29287,0 35.61327,31.113 209.1796,0" /><path
             id="path24"
             style="fill:none;stroke:#ffffff;stroke-width:4;stroke-linecap:butt;stroke-linejoin:miter;stroke-miterlimit:4;stroke-dasharray:none;stroke-opacity:1"
             d="m 250.121,400.621 -27.5,-31.113 -217.29287,0 35.61327,31.113 209.1796,0 z" /><path
             id="path26"
             style="fill:#087fbf;fill-opacity:1;fill-rule:nonzero;stroke:none"
             d="m 5.32813,282.516 217.293,0 0,88.3008 -217.293,0 0,-88.3008 z" /><path
             id="path28"
             style="fill:none;stroke:#ffffff;stroke-width:4;stroke-linecap:butt;stroke-linejoin:miter;stroke-miterlimit:4;stroke-dasharray:none;stroke-opacity:1"
             d="m 5.32813,282.516 217.293,0 0,88.3008 -217.293,0 0,-88.3008 z" /><path
             id="path30"
             style="fill:#087fbf;fill-opacity:1;fill-rule:nonzero;stroke:none"
             d="m 250.074,311.441 0,88.309 -27.453,-28.934 0,-88.3 27.453,28.925" /><path
             id="path32"
             style="fill:none;stroke:#ffffff;stroke-width:4;stroke-linecap:butt;stroke-linejoin:miter;stroke-miterlimit:4;stroke-dasharray:none;stroke-opacity:1"
             d="m 250.074,311.441 0,88.309 -27.453,-28.934 0,-88.3 27.453,28.925 z" /><path
             id="path34"
             style="fill:#087fbf;fill-opacity:1;fill-rule:nonzero;stroke:none"
             d="m 222.621,283.461 0,-173.598 27.453,28.926 0,173.609 -27.453,-28.937" /><path
             id="path36"
             style="fill:none;stroke:#ffffff;stroke-width:4;stroke-linecap:butt;stroke-linejoin:miter;stroke-miterlimit:4;stroke-dasharray:none;stroke-opacity:1"
             d="m 222.621,283.461 0,-173.598 27.453,28.926 0,173.609 -27.453,-28.937 z" /><path
             id="path38"
             style="fill:none;stroke:#ffffff;stroke-width:4;stroke-linecap:round;stroke-linejoin:round;stroke-miterlimit:4;stroke-dasharray:none;stroke-opacity:1"
             d="m 221.559,343.082 -215.13712,0" /><path
             id="path40"
             style="fill:none;stroke:#ffffff;stroke-width:4;stroke-linecap:round;stroke-linejoin:round;stroke-miterlimit:4;stroke-dasharray:none;stroke-opacity:1"
             d="m 238.004,387.926 -215.1485,0" /><path
             id="path42"
             style="fill:none;stroke:#ffffff;stroke-width:4;stroke-linecap:round;stroke-linejoin:round;stroke-miterlimit:4;stroke-dasharray:none;stroke-opacity:1"
             d="m 221.559,313.277 -215.13712,0" /><path
             id="path44"
             style="fill:none;stroke:#ffffff;stroke-width:4;stroke-linecap:round;stroke-linejoin:round;stroke-miterlimit:4;stroke-dasharray:none;stroke-opacity:1"
             d="M 250.707,374.047 223.324,344.078" /><path
             id="path46"
             style="fill:none;stroke:#ffffff;stroke-width:4;stroke-linecap:round;stroke-linejoin:round;stroke-miterlimit:4;stroke-dasharray:none;stroke-opacity:1"
             d="M 250.707,344.234 223.324,314.273" /><path
             id="path48"
             style="fill:#231f20;fill-opacity:1;fill-rule:nonzero;stroke:none"
             d="m 70.1523,370.406 0,-27.062" /><path
             id="path50"
             style="fill:none;stroke:#ffffff;stroke-width:4;stroke-linecap:round;stroke-linejoin:round;stroke-miterlimit:4;stroke-dasharray:none;stroke-opacity:1"
             d="m 70.1523,370.406 0,-27.062" /><path
             id="path52"
             style="fill:none;stroke:#ffffff;stroke-width:4;stroke-linecap:round;stroke-linejoin:round;stroke-miterlimit:4;stroke-dasharray:none;stroke-opacity:1"
             d="m 153.355,370.406 0,-27.062" /><path
             id="path54"
             style="fill:none;stroke:#ffffff;stroke-width:4;stroke-linecap:round;stroke-linejoin:round;stroke-miterlimit:4;stroke-dasharray:none;stroke-opacity:1"
             d="m 70.1523,311.801 0,-27.039" /><path
             id="path56"
             style="fill:none;stroke:#ffffff;stroke-width:4;stroke-linecap:round;stroke-linejoin:round;stroke-miterlimit:4;stroke-dasharray:none;stroke-opacity:1"
             d="m 153.355,311.801 0,-27.039" /><path
             id="path58"
             style="fill:none;stroke:#ffffff;stroke-width:4;stroke-linecap:round;stroke-linejoin:round;stroke-miterlimit:4;stroke-dasharray:none;stroke-opacity:1"
             d="m 113.414,341.773 0,-27.062" /><path
             id="path60"
             style="fill:none;stroke:#ffffff;stroke-width:4;stroke-linecap:round;stroke-linejoin:round;stroke-miterlimit:4;stroke-dasharray:none;stroke-opacity:1"
             d="m 30.2188,341.773 0,-27.062" /><path
             id="path62"
             style="fill:none;stroke:#ffffff;stroke-width:4;stroke-linecap:round;stroke-linejoin:round;stroke-miterlimit:4;stroke-dasharray:none;stroke-opacity:1"
             d="m 196.605,341.773 0,-27.062" /><path
             id="path64"
             style="fill:none;stroke:#ffffff;stroke-width:4;stroke-linecap:round;stroke-linejoin:round;stroke-miterlimit:4;stroke-dasharray:none;stroke-opacity:1"
             d="M 101.012,401.715 70.1523,370.895" /><path
             id="path66"
             style="fill:none;stroke:#ffffff;stroke-width:4;stroke-linecap:round;stroke-linejoin:round;stroke-miterlimit:4;stroke-dasharray:none;stroke-opacity:1"
             d="m 184.195,401.715 -30.84,-30.82" /><path
             id="path68"
             style="fill:#087fbf;fill-opacity:1;fill-rule:nonzero;stroke:none"
             d="m 5.32813,111.301 217.293,0 0,172.16 -217.293,0 0,-172.16 z" /><path
             id="path70"
             style="fill:none;stroke:#ffffff;stroke-width:4;stroke-linecap:butt;stroke-linejoin:miter;stroke-miterlimit:4;stroke-dasharray:none;stroke-opacity:1"
             d="m 222.621,283.461 0,-172.16 -217.29287,0 0,172.16" /><path
             id="path72"
             style="fill:#087fbf;fill-opacity:1;fill-rule:nonzero;stroke:none"
             d="m 5.32813,5.01563 217.293,0 0,106.66 -217.293,0 0,-106.66 z" /><path
             id="path74"
             style="fill:none;stroke:#ffffff;stroke-width:4;stroke-linecap:butt;stroke-linejoin:miter;stroke-miterlimit:4;stroke-dasharray:none;stroke-opacity:1"
             d="m 5.32813,5.01563 217.293,0 0,106.66 -217.293,0 0,-106.66 z" /><path
             id="path76"
             style="fill:#087fbf;fill-opacity:1;fill-rule:nonzero;stroke:none"
             d="m 250.074,33.9414 0,105.9416 -27.453,-28.926 0,-105.94137 27.453,28.92577" /><path
             id="path78"
             style="fill:none;stroke:#ffffff;stroke-width:4;stroke-linecap:butt;stroke-linejoin:miter;stroke-miterlimit:4;stroke-dasharray:none;stroke-opacity:1"
             d="m 250.074,33.9414 0,105.9416 -27.453,-28.926 0,-105.94137 27.453,28.92577 z" /><path
             id="path80"
             style="fill:#ffffff;fill-opacity:1;fill-rule:nonzero;stroke:none"
             d="m 117.555,217.477 0,37.578 6.367,0 -9.395,14.179 -9.414,-14.179 6.375,0 0,-37.578 6.067,0" /><path
             id="path82"
             style="fill:#ffffff;fill-opacity:1;fill-rule:nonzero;stroke:none"
             d="m 98.3828,212.047 -26.5703,26.582 4.5117,4.5 -16.6797,3.371 3.3672,-16.68 4.5117,4.512 26.5625,-26.574 4.2969,4.289" /><path
             id="path84"
             style="fill:#ffffff;fill-opacity:1;fill-rule:nonzero;stroke:none"
             d="m 88.668,194.652 -37.5782,0 0,6.379 -14.1796,-9.414 14.1796,-9.406 0,6.379 37.5782,0 0,6.062" /><path
             id="path86"
             style="fill:#ffffff;fill-opacity:1;fill-rule:nonzero;stroke:none"
             d="m 94.0859,175.484 -26.5625,-26.562 -4.5117,4.492 -3.3672,-16.68 16.6797,3.379 -4.5117,4.512 26.5703,26.57 -4.2969,4.289" /><path
             id="path88"
             style="fill:#ffffff;fill-opacity:1;fill-rule:nonzero;stroke:none"
             d="m 111.488,178.93 0,-72.539 -6.375,0 9.414,-14.1879 9.395,14.1879 -6.367,0 0,72.539 -6.067,0" /><path
             id="path90"
             style="fill:#ffffff;fill-opacity:1;fill-rule:nonzero;stroke:none"
             d="m 130.66,171.195 26.57,-26.57 -4.5,-4.512 16.68,-3.379 -3.379,16.68 -4.504,-4.492 -26.582,26.562 -4.285,-4.289" /><path
             id="path92"
             style="fill:#ffffff;fill-opacity:1;fill-rule:nonzero;stroke:none"
             d="m 140.375,188.59 37.578,0 0,-6.379 14.192,9.406 -14.192,9.414 0,-6.379 -37.578,0 0,-6.062" /><path
             id="path94"
             style="fill:#ffffff;fill-opacity:1;fill-rule:nonzero;stroke:none"
             d="m 134.945,207.758 26.582,26.574 4.504,-4.512 3.379,16.68 -16.68,-3.371 4.5,-4.5 -26.57,-26.582 4.285,-4.289" /><path
             id="path96"
             style="fill:#ffffff;fill-opacity:1;fill-rule:nonzero;stroke:none"
             d="m 137.516,160.133 c 17.597,12.324 21.875,36.582 9.558,54.18 -12.332,17.605 -36.601,21.894 -54.199,9.558 C 75.2773,211.539 71,187.281 83.3242,169.684 95.6484,152.086 119.906,147.809 137.516,160.133" /><path
             id="path98"
             style="fill:none;stroke:#ffffff;stroke-width:4;stroke-linecap:round;stroke-linejoin:round;stroke-miterlimit:4;stroke-dasharray:none;stroke-opacity:1"
             d="m 238.102,387.105 0,-86.476" /><path
             id="path100"
             style="fill:#ffffff;fill-opacity:1;fill-rule:nonzero;stroke:none"
             d="m 112.191,69.6641 57.207,0 0,5.6718 18.731,-11.3554 -18.731,-11.6602 0,5.6719 -57.207,0 0,11.6719" /><path
             id="path102"
             style="fill:#ffffff;fill-opacity:1;fill-rule:nonzero;stroke:none"
             d="m 112.191,34.0781 57.207,0 0,5.6836 18.731,-11.3594 -18.731,-11.6601 0,5.6758 -57.207,0 0,11.6601" /><path
             id="path104"
             style="fill:#ffffff;fill-opacity:1;fill-rule:nonzero;stroke:none"
             d="m 113.473,86.6836 -57.2074,0 0,5.6758 L 37.5352,81 56.2656,69.3516 l 0,5.664 57.2074,0 0,11.668" /><path
             id="path106"
             style="fill:#ffffff;fill-opacity:1;fill-rule:nonzero;stroke:none"
             d="m 113.473,51.1094 -57.2074,0 0,5.6719 -18.7304,-11.3555 18.7304,-11.6602 0,5.6641 57.2074,0 0,11.6797" /><path
             id="path108"
             style="fill:none;stroke:#ffffff;stroke-width:4;stroke-linecap:round;stroke-linejoin:round;stroke-miterlimit:4;stroke-dasharray:none;stroke-opacity:1"
             d="m 221.559,283.082 -215.13712,0" /><path
             id="path110"
             style="fill:none;stroke:#ffffff;stroke-width:4;stroke-linecap:round;stroke-linejoin:round;stroke-miterlimit:4;stroke-dasharray:none;stroke-opacity:1"
             d="M 250.707,314.047 223.324,284.078" /><path
             id="path112"
             style="fill:none;stroke:#ffffff;stroke-width:4;stroke-linecap:round;stroke-linejoin:round;stroke-miterlimit:4;stroke-dasharray:none;stroke-opacity:1"
             d="m 221.559,111.832 -215.13712,0" /><path
             id="path114"
             style="fill:none;stroke:#ffffff;stroke-width:4;stroke-linecap:round;stroke-linejoin:round;stroke-miterlimit:4;stroke-dasharray:none;stroke-opacity:1"
             d="M 249.273,138.492 224.039,112.105" /></g></g></g></g></svg>