<?xml version="1.0" encoding="UTF-8" standalone="no"?>
<svg
   xmlns:dc="http://purl.org/dc/elements/1.1/"
   xmlns:cc="http://creativecommons.org/ns#"
   xmlns:rdf="http://www.w3.org/1999/02/22-rdf-syntax-ns#"
   xmlns:svg="http://www.w3.org/2000/svg"
   xmlns="http://www.w3.org/2000/svg"
   viewBox="0 0 48.75 36.25"
   height="36.25"
   width="48.75"
   xml:space="preserve"
   version="1.1"
   id="svg2"><metadata
     id="metadata8"><rdf:RDF><cc:Work
         rdf:about=""><dc:format>image/svg+xml</dc:format><dc:type
           rdf:resource="http://purl.org/dc/dcmitype/StillImage" /></cc:Work></rdf:RDF></metadata><defs
     id="defs6" /><g
     transform="matrix(1.25,0,0,-1.25,0,36.25)"
     id="g10"><g
       transform="scale(0.1,0.1)"
       id="g12"><path
         id="path14"
         style="fill:#ffffff;fill-opacity:1;fill-rule:nonzero;stroke:none"
         d="M 132.73,256.379 C 66.4102,269.629 31.4102,235.641 36.9102,206.27 l 0.4687,-1.598 C -14.3398,195.879 -0.78125,134.859 24.0195,134.859 l 2.4297,0.082 C 20.2305,106.27 80.6211,77.0508 114.301,91.6602 l 2.179,2.3789 c 12,-25.8203 54.692,-30.1172 96.918,-31.211 36.563,-0.9375 57.93,1.9922 73.59,18.0117 l 2.422,-0.7109 c 58.559,-4.7187 85.238,35.7501 72.43,64.7691 l 3.16,0.903 c 19.961,5.269 22.27,51.371 -11.988,58.16 l 0.66,1.801 C 368.52,235.719 333.48,264 284.801,258.691 l -3.352,1.758 c -34.847,31.52 -135.078,26.403 -146.679,-4.808 l -2.04,0.738" /><path
         id="path16"
         style="fill:none;stroke:#1286be;stroke-width:4;stroke-linecap:butt;stroke-linejoin:miter;stroke-miterlimit:4;stroke-dasharray:none;stroke-opacity:1"
         d="M 132.73,256.387 C 66.4102,269.629 31.4102,235.637 36.9102,206.27 l 0.4687,-1.602 C -14.3398,195.879 -0.78125,134.859 24.0195,134.859 l 2.4297,0.079 C 20.2305,106.27 80.6211,77.0469 114.301,91.6563 l 2.179,2.3828 c 12,-25.8203 54.692,-30.1094 96.918,-31.211 36.563,-0.9414 57.93,1.9883 73.59,18.0078 l 2.422,-0.6992 c 58.559,-4.7304 85.238,35.7423 72.43,64.7613 l 3.16,0.899 c 19.961,5.269 22.27,51.371 -11.988,58.16 l 0.66,1.801 c 14.848,29.961 -20.192,58.238 -68.871,52.93 l -3.352,1.761 c -34.847,31.52 -135.078,26.399 -146.679,-4.812 l -2.04,0.75 z" /><path
         id="path18"
         style="fill:none;stroke:#1286be;stroke-width:20;stroke-linecap:butt;stroke-linejoin:miter;stroke-miterlimit:4;stroke-dasharray:none;stroke-opacity:1"
         d="m 161.051,208.18 0,-169.1839 161.058,0 0,170.8629 -161.058,-1.679 z" /><path
         id="path20"
         style="fill:none;stroke:#1286be;stroke-width:20;stroke-linecap:butt;stroke-linejoin:miter;stroke-miterlimit:4;stroke-dasharray:none;stroke-opacity:1"
         d="M 161.051,208.18 322.109,38.9961" /><path
         id="path22"
         style="fill:none;stroke:#1286be;stroke-width:20;stroke-linecap:butt;stroke-linejoin:miter;stroke-miterlimit:4;stroke-dasharray:none;stroke-opacity:1"
         d="M 161.051,38.9961 322.109,209.859" /><path
         id="path24"
         style="fill:#ffffff;fill-opacity:1;fill-rule:nonzero;stroke:none"
         d="m 136.051,184.012 51.8008,0 0,52.7266 -51.8008,0 0,-52.7266 z" /><path
         id="path26"
         style="fill:none;stroke:#1286be;stroke-width:4;stroke-linecap:butt;stroke-linejoin:miter;stroke-miterlimit:4;stroke-dasharray:none;stroke-opacity:1"
         d="m 136.051,184.008 51.8008,0 0,52.7305 -51.8008,0 0,-52.7305 z" /><path
         id="path28"
         style="fill:#ffffff;fill-opacity:1;fill-rule:nonzero;stroke:none"
         d="m 296.051,184.012 51.8008,0 0,52.7266 -51.8008,0 0,-52.7266 z" /><path
         id="path30"
         style="fill:none;stroke:#1286be;stroke-width:4;stroke-linecap:butt;stroke-linejoin:miter;stroke-miterlimit:4;stroke-dasharray:none;stroke-opacity:1"
         d="m 296.051,184.008 51.8008,0 0,52.7305 -51.8008,0 0,-52.7305 z" /><path
         id="path32"
         style="fill:#ffffff;fill-opacity:1;fill-rule:nonzero;stroke:none"
         d="m 136.051,12.0117 51.8008,0 0,52.7266 -51.8008,0 0,-52.7266 z" /><path
         id="path34"
         style="fill:none;stroke:#1286be;stroke-width:4;stroke-linecap:butt;stroke-linejoin:miter;stroke-miterlimit:4;stroke-dasharray:none;stroke-opacity:1"
         d="m 136.051,12.0195 51.8008,0 0,52.7266 -51.8008,0 0,-52.7266 z" /><path
         id="path36"
         style="fill:#ffffff;fill-opacity:1;fill-rule:nonzero;stroke:none"
         d="m 296.051,12.0117 51.8008,0 0,52.7266 -51.8008,0 0,-52.7266 z" /><path
         id="path38"
         style="fill:none;stroke:#1286be;stroke-width:4;stroke-linecap:butt;stroke-linejoin:miter;stroke-miterlimit:4;stroke-dasharray:none;stroke-opacity:1"
         d="m 296.051,12.0195 51.8008,0 0,52.7266 -51.8008,0 0,-52.7266 z" /><path
         id="path40"
         style="fill:#ffffff;fill-opacity:1;fill-rule:nonzero;stroke:none"
         d="m 214.691,97.9883 51.7969,0 0,52.7734 -51.7969,0 0,-52.7734 z" /><path
         id="path42"
         style="fill:none;stroke:#1286be;stroke-width:4;stroke-linecap:butt;stroke-linejoin:miter;stroke-miterlimit:4;stroke-dasharray:none;stroke-opacity:1"
         d="m 214.691,97.9883 51.7969,0 0,52.7695 -51.7969,0 0,-52.7695 z" /></g></g></svg>