<svg xmlns="http://www.w3.org/2000/svg" viewBox="0 0 48.75 36.25" height="36.25" width="48.75"><path d="M16.591 4.203C8.301 2.546 3.926 6.795 4.614 10.466l.058.2c-6.464 1.1-4.77 8.727-1.67 8.727l.304-.01c-.777 3.583 6.772 7.236 10.982 5.41l.272-.298c1.5 3.228 6.837 3.765 12.115 3.901 4.57.118 7.241-.249 9.199-2.251l.302.089c7.32.59 10.655-4.469 9.054-8.096l.395-.113c2.495-.659 2.784-6.421-1.498-7.27l.082-.225c1.856-3.745-2.524-7.28-8.609-6.616l-.419-.22c-4.356-3.94-16.885-3.3-18.335.6l-.255-.091" fill="#fff"/><path d="M16.591 4.202C8.301 2.546 3.926 6.795 4.614 10.466l.058.2c-6.464 1.1-4.77 8.727-1.67 8.727l.304-.01c-.777 3.583 6.772 7.236 10.982 5.41l.272-.298c1.5 3.228 6.837 3.764 12.115 3.901 4.57.118 7.241-.248 9.199-2.25l.302.087c7.32.591 10.655-4.468 9.054-8.095l.395-.113c2.495-.658 2.784-6.421-1.498-7.27l.082-.225c1.856-3.745-2.524-7.28-8.609-6.616l-.419-.22c-4.356-3.94-16.885-3.3-18.335.601l-.255-.093z" fill="none" stroke="#1286be" stroke-width=".5"/><path d="M20.131 10.227v21.148h20.133V10.018l-20.133.21zM20.131 10.227l20.133 21.148M20.131 31.375l20.133-21.357" fill="none" stroke="#1286be" stroke-width="2.5"/><path d="M17.006 13.248h6.475v-6.59h-6.475v6.59z" fill="#fff"/><path d="M17.006 13.249h6.475V6.658h-6.475v6.591z" fill="none" stroke="#1286be" stroke-width=".5"/><path d="M37.006 13.248h6.475v-6.59h-6.475v6.59z" fill="#fff"/><path d="M37.006 13.249h6.475V6.658h-6.475v6.591z" fill="none" stroke="#1286be" stroke-width=".5"/><path d="M17.006 34.749h6.475v-6.591h-6.475v6.59z" fill="#fff"/><path d="M17.006 34.748h6.475v-6.591h-6.475v6.59z" fill="none" stroke="#1286be" stroke-width=".5"/><path d="M37.006 34.749h6.475v-6.591h-6.475v6.59z" fill="#fff"/><path d="M37.006 34.748h6.475v-6.591h-6.475v6.59z" fill="none" stroke="#1286be" stroke-width=".5"/><path d="M26.836 24.001h6.475v-6.596h-6.475V24z" fill="#fff"/><path d="M26.836 24.001h6.475v-6.596h-6.475v6.596z" fill="none" stroke="#1286be" stroke-width=".5"/></svg>