<?xml version="1.0" encoding="UTF-8" standalone="no"?>
<svg
   xmlns:dc="http://purl.org/dc/elements/1.1/"
   xmlns:cc="http://creativecommons.org/ns#"
   xmlns:rdf="http://www.w3.org/1999/02/22-rdf-syntax-ns#"
   xmlns:svg="http://www.w3.org/2000/svg"
   xmlns="http://www.w3.org/2000/svg"
   viewBox="0 0 47.650002 34.200001"
   height="34.200001"
   width="47.650002"
   xml:space="preserve"
   version="1.1"
   id="svg2"><metadata
     id="metadata8"><rdf:RDF><cc:Work
         rdf:about=""><dc:format>image/svg+xml</dc:format><dc:type
           rdf:resource="http://purl.org/dc/dcmitype/StillImage" /></cc:Work></rdf:RDF></metadata><defs
     id="defs6" /><g
     transform="matrix(1.25,0,0,-1.25,0,34.2)"
     id="g10"><g
       transform="scale(0.1,0.1)"
       id="g12"><path
         id="path14"
         style="fill:#ffffff;fill-opacity:1;fill-rule:nonzero;stroke:none"
         d="M 132.641,246.391 C 66.293,259.641 31.293,225.656 36.8203,196.277 l 0.4492,-1.597 C -14.4453,185.875 -0.894531,124.855 23.9102,124.855 l 2.4414,0.079 C 20.1133,96.2617 80.5117,67.0703 114.203,81.6563 l 2.168,2.375 c 12.012,-25.793 54.699,-30.1016 96.906,-31.1797 36.582,-0.9375 57.93,1.9648 73.621,17.9922 l 2.415,-0.7071 c 58.554,-4.7109 85.222,35.7383 72.421,64.7773 l 3.145,0.883 c 19.961,5.277 22.266,51.363 -11.973,58.18 l 0.645,1.777 c 14.871,29.984 -20.188,58.25 -68.84,52.945 l -3.379,1.758 C 246.5,281.992 146.246,276.852 134.645,245.66 l -2.004,0.731" /><path
         id="path16"
         style="fill:none;stroke:#1286be;stroke-width:4;stroke-linecap:butt;stroke-linejoin:miter;stroke-miterlimit:4;stroke-dasharray:none;stroke-opacity:1"
         d="M 132.641,246.391 C 66.293,259.641 31.293,225.656 36.8203,196.277 l 0.4492,-1.597 C -14.4453,185.875 -0.894531,124.855 23.9102,124.855 l 2.4414,0.079 C 20.1133,96.2617 80.5117,67.0703 114.203,81.6563 l 2.168,2.375 c 12.012,-25.793 54.699,-30.1016 96.906,-31.1797 36.582,-0.9375 57.93,1.9648 73.621,17.9922 l 2.415,-0.7071 c 58.554,-4.7109 85.222,35.7383 72.421,64.7773 l 3.145,0.883 c 19.961,5.277 22.266,51.363 -11.973,58.18 l 0.645,1.777 c 14.871,29.984 -20.188,58.25 -68.84,52.945 l -3.379,1.758 C 246.5,281.992 146.246,276.852 134.645,245.66 l -2.004,0.731 z" /><path
         id="path18"
         style="fill:none;stroke:#1286be;stroke-width:20;stroke-linecap:butt;stroke-linejoin:miter;stroke-miterlimit:4;stroke-dasharray:none;stroke-opacity:1"
         d="m 160.953,198.168 0,-169.1485 161.055,0 0,170.8555 -161.055,-1.707 z" /><path
         id="path20"
         style="fill:none;stroke:#1286be;stroke-width:20;stroke-linecap:butt;stroke-linejoin:miter;stroke-miterlimit:4;stroke-dasharray:none;stroke-opacity:1"
         d="M 160.953,198.168 322.008,29.0195" /><path
         id="path22"
         style="fill:none;stroke:#1286be;stroke-width:20;stroke-linecap:butt;stroke-linejoin:miter;stroke-miterlimit:4;stroke-dasharray:none;stroke-opacity:1"
         d="M 160.953,29.0195 322.008,199.875" /><path
         id="path24"
         style="fill:#ffffff;fill-opacity:1;fill-rule:nonzero;stroke:none"
         d="m 135.961,174 51.7773,0 0,52.75 -51.7773,0 0,-52.75 z" /><path
         id="path26"
         style="fill:none;stroke:#1286be;stroke-width:4;stroke-linecap:butt;stroke-linejoin:miter;stroke-miterlimit:4;stroke-dasharray:none;stroke-opacity:1"
         d="m 135.961,174 51.7773,0 0,52.75 -51.7773,0 0,-52.75 z" /><path
         id="path28"
         style="fill:#ffffff;fill-opacity:1;fill-rule:nonzero;stroke:none"
         d="m 295.961,174 51.7773,0 0,52.75 -51.7773,0 0,-52.75 z" /><path
         id="path30"
         style="fill:none;stroke:#1286be;stroke-width:4;stroke-linecap:butt;stroke-linejoin:miter;stroke-miterlimit:4;stroke-dasharray:none;stroke-opacity:1"
         d="m 295.961,174 51.7773,0 0,52.75 -51.7773,0 0,-52.75 z" /><path
         id="path32"
         style="fill:#ffffff;fill-opacity:1;fill-rule:nonzero;stroke:none"
         d="m 135.961,2.00391 51.7773,0 0,52.7422 -51.7773,0 0,-52.7422 z" /><path
         id="path34"
         style="fill:none;stroke:#1286be;stroke-width:4;stroke-linecap:butt;stroke-linejoin:miter;stroke-miterlimit:4;stroke-dasharray:none;stroke-opacity:1"
         d="m 135.961,2.00391 51.7773,0 0,52.7422 -51.7773,0 0,-52.7422 z" /><path
         id="path36"
         style="fill:#ffffff;fill-opacity:1;fill-rule:nonzero;stroke:none"
         d="m 295.961,2.00391 51.7773,0 0,52.7422 -51.7773,0 0,-52.7422 z" /><path
         id="path38"
         style="fill:none;stroke:#1286be;stroke-width:4;stroke-linecap:butt;stroke-linejoin:miter;stroke-miterlimit:4;stroke-dasharray:none;stroke-opacity:1"
         d="m 295.961,2.00391 51.7773,0 0,52.7422 -51.7773,0 0,-52.7422 z" /><path
         id="path40"
         style="fill:#ffffff;fill-opacity:1;fill-rule:nonzero;stroke:none"
         d="m 214.586,88.0039 51.7773,0 0,52.7461 -51.7773,0 0,-52.7461 z" /><path
         id="path42"
         style="fill:none;stroke:#1286be;stroke-width:4;stroke-linecap:butt;stroke-linejoin:miter;stroke-miterlimit:4;stroke-dasharray:none;stroke-opacity:1"
         d="m 214.586,88.0039 51.7773,0 0,52.7461 -51.7773,0 0,-52.7461 z" /></g></g></svg>