<?xml version="1.0" encoding="UTF-8" standalone="no"?>
<svg
   xmlns:dc="http://purl.org/dc/elements/1.1/"
   xmlns:cc="http://creativecommons.org/ns#"
   xmlns:rdf="http://www.w3.org/1999/02/22-rdf-syntax-ns#"
   xmlns:svg="http://www.w3.org/2000/svg"
   xmlns="http://www.w3.org/2000/svg"
   viewBox="0 0 30.424999 45.587502"
   height="45.587502"
   width="30.424999"
   xml:space="preserve"
   version="1.1"
   id="svg2"><metadata
     id="metadata8"><rdf:RDF><cc:Work
         rdf:about=""><dc:format>image/svg+xml</dc:format><dc:type
           rdf:resource="http://purl.org/dc/dcmitype/StillImage" /></cc:Work></rdf:RDF></metadata><defs
     id="defs6"><clipPath
       id="clipPath18"
       clipPathUnits="userSpaceOnUse"><path
         id="path20"
         d="m 0,4.70313 240,0 0,360 -240,0 0,-360 z" /></clipPath></defs><g
     transform="matrix(1.25,0,0,-1.25,0,45.5875)"
     id="g10"><g
       transform="scale(0.1,0.1)"
       id="g12"><g
         id="g14"><g
           clip-path="url(#clipPath18)"
           id="g16"><path
             id="path22"
             style="fill:#087fbf;fill-opacity:1;fill-rule:nonzero;stroke:none"
             d="m 6.46875,5.16406 185.246,0 0,317.297 -185.246,0 0,-317.297 z" /><path
             id="path24"
             style="fill:none;stroke:#ffffff;stroke-width:4;stroke-linecap:butt;stroke-linejoin:miter;stroke-miterlimit:4;stroke-dasharray:none;stroke-opacity:1"
             d="m 6.46875,5.16406 185.246,0 0,317.297 -185.246,0 0,-317.297 z" /><path
             id="path26"
             style="fill:#087fbf;fill-opacity:1;fill-rule:nonzero;stroke:none"
             d="m 62.0352,360.457 -55.56645,-37.996 185.24625,0 46.074,37.996 -175.7538,0" /><path
             id="path28"
             style="fill:none;stroke:#ffffff;stroke-width:4;stroke-linecap:butt;stroke-linejoin:miter;stroke-miterlimit:4;stroke-dasharray:none;stroke-opacity:1"
             d="m 62.0352,360.457 -55.56645,-37.996 185.24625,0 46.074,37.996 -175.7538,0 z" /><path
             id="path30"
             style="fill:#087fbf;fill-opacity:1;fill-rule:nonzero;stroke:none"
             d="m 237.789,55.7148 0,304.7422 -46.074,-37.996 0,-317.29694 46.074,50.55074" /><path
             id="path32"
             style="fill:none;stroke:#ffffff;stroke-width:4;stroke-linecap:butt;stroke-linejoin:miter;stroke-miterlimit:4;stroke-dasharray:none;stroke-opacity:1"
             d="m 237.789,55.7148 0,304.7422 -46.074,-37.996 0,-317.29694 46.074,50.55074 z" /><path
             id="path34"
             style="fill:#ffffff;fill-opacity:1;fill-rule:nonzero;stroke:none"
             d="m 78.4336,266.16 83.5744,0.051 0,-10.574 -83.5744,-0.039 -0.0195,-16.504 -37.9414,21.797 37.9414,21.804 0.0195,-16.535" /><path
             id="path36"
             style="fill:#ffffff;fill-opacity:1;fill-rule:nonzero;stroke:none"
             d="m 131.93,179.016 -83.5667,-0.063 0,10.578 83.5667,0.039 0.039,16.516 37.929,-21.809 -37.929,-21.804 -0.039,16.543" /></g></g></g></g></svg>