<?xml version="1.0" encoding="UTF-8" standalone="no"?>
<svg
   xmlns:dc="http://purl.org/dc/elements/1.1/"
   xmlns:cc="http://creativecommons.org/ns#"
   xmlns:rdf="http://www.w3.org/1999/02/22-rdf-syntax-ns#"
   xmlns:svg="http://www.w3.org/2000/svg"
   xmlns="http://www.w3.org/2000/svg"
   viewBox="0 0 53.625 80.512497"
   height="80.512497"
   width="53.625"
   xml:space="preserve"
   version="1.1"
   id="svg2"><metadata
     id="metadata8"><rdf:RDF><cc:Work
         rdf:about=""><dc:format>image/svg+xml</dc:format><dc:type
           rdf:resource="http://purl.org/dc/dcmitype/StillImage" /></cc:Work></rdf:RDF></metadata><defs
     id="defs6"><clipPath
       id="clipPath18"
       clipPathUnits="userSpaceOnUse"><path
         id="path20"
         d="M 0,4 0,644 429,644 429,4 0,4 Z" /></clipPath></defs><g
     transform="matrix(1.25,0,0,-1.25,0,80.5125)"
     id="g10"><g
       transform="scale(0.1,0.1)"
       id="g12"><g
         id="g14"><g
           clip-path="url(#clipPath18)"
           id="g16"><path
             id="path22"
             style="fill:#02709f;fill-opacity:1;fill-rule:nonzero;stroke:none"
             d="m 4.82813,4.82422 84.8945,0 0,253.234 -84.8945,0 0,-253.234 z" /><path
             id="path24"
             style="fill:none;stroke:#ffffff;stroke-width:3.99993992;stroke-linecap:butt;stroke-linejoin:miter;stroke-miterlimit:4;stroke-dasharray:none;stroke-opacity:1"
             d="m 89.7227,258.059 -84.89457,0 0,-253.23478 84.89457,0" /><path
             id="path26"
             style="fill:#02709f;fill-opacity:1;fill-rule:nonzero;stroke:none"
             d="m 89.7227,4.82422 46.9413,46.93358 0,253.2382 -84.9023,0 -46.93357,-46.937 84.89457,0 0,-253.23478" /><path
             id="path28"
             style="fill:none;stroke:#ffffff;stroke-width:3.99993992;stroke-linecap:butt;stroke-linejoin:miter;stroke-miterlimit:4;stroke-dasharray:none;stroke-opacity:1"
             d="m 89.7227,4.82422 46.9413,46.93358 0,253.2382 -84.9023,0 -46.93357,-46.937 84.89457,0 0,-253.23478 z" /><path
             id="path30"
             style="fill:#02709f;fill-opacity:1;fill-rule:nonzero;stroke:none"
             d="m 89.7227,258.059 46.9413,46.937" /><path
             id="path32"
             style="fill:none;stroke:#ffffff;stroke-width:3.99993992;stroke-linecap:butt;stroke-linejoin:miter;stroke-miterlimit:4;stroke-dasharray:none;stroke-opacity:1"
             d="m 89.7227,258.059 46.9413,46.937" /><path
             id="path34"
             style="fill:#02709f;fill-opacity:1;fill-rule:nonzero;stroke:none"
             d="m 89.7227,4.82422 173.113,0 0,566.898 -173.113,0 0,-566.898 z" /><path
             id="path36"
             style="fill:none;stroke:#ffffff;stroke-width:3.99993992;stroke-linecap:butt;stroke-linejoin:miter;stroke-miterlimit:4;stroke-dasharray:none;stroke-opacity:1"
             d="m 262.836,571.723 -173.1133,0 0,-566.89878 173.1133,0" /><path
             id="path38"
             style="fill:#02709f;fill-opacity:1;fill-rule:nonzero;stroke:none"
             d="m 262.836,4.82422 70.41,70.40238 0,566.9024 -173.125,0 -70.3983,-70.406 173.1133,0 0,-566.89878" /><path
             id="path40"
             style="fill:none;stroke:#ffffff;stroke-width:3.99993992;stroke-linecap:butt;stroke-linejoin:miter;stroke-miterlimit:4;stroke-dasharray:none;stroke-opacity:1"
             d="m 262.836,4.82422 70.41,70.40238 0,566.9024 -173.125,0 -70.3983,-70.406 173.1133,0 0,-566.89878 z" /><path
             id="path42"
             style="fill:#02709f;fill-opacity:1;fill-rule:nonzero;stroke:none"
             d="m 262.836,571.723 70.41,70.406" /><path
             id="path44"
             style="fill:none;stroke:#ffffff;stroke-width:3.99993992;stroke-linecap:butt;stroke-linejoin:miter;stroke-miterlimit:4;stroke-dasharray:none;stroke-opacity:1"
             d="m 262.836,571.723 70.41,70.406" /><path
             id="path46"
             style="fill:#02709f;fill-opacity:1;fill-rule:nonzero;stroke:none"
             d="m 264.301,4.82422 93.8477,0 0,477.691 -93.8477,0 0,-477.691 z" /><path
             id="path48"
             style="fill:none;stroke:#ffffff;stroke-width:3.99993992;stroke-linecap:butt;stroke-linejoin:miter;stroke-miterlimit:4;stroke-dasharray:none;stroke-opacity:1"
             d="m 358.148,482.516 -93.847,0 0,-477.69178 93.847,0" /><path
             id="path50"
             style="fill:#02709f;fill-opacity:1;fill-rule:nonzero;stroke:none"
             d="m 358.148,4.82422 68.829,68.82028 0,477.6955 -93.848,0 -68.828,-68.824 93.847,0 0,-477.69178" /><path
             id="path52"
             style="fill:none;stroke:#ffffff;stroke-width:3.99993992;stroke-linecap:butt;stroke-linejoin:miter;stroke-miterlimit:4;stroke-dasharray:none;stroke-opacity:1"
             d="m 358.148,4.82422 68.829,68.82028 0,477.6955 -93.848,0 -68.828,-68.824 93.847,0 0,-477.69178 z" /><path
             id="path54"
             style="fill:#02709f;fill-opacity:1;fill-rule:nonzero;stroke:none"
             d="m 358.148,482.516 68.829,68.824" /><path
             id="path56"
             style="fill:none;stroke:#ffffff;stroke-width:3.99993992;stroke-linecap:butt;stroke-linejoin:miter;stroke-miterlimit:4;stroke-dasharray:none;stroke-opacity:1"
             d="m 358.148,482.516 68.829,68.824" /><path
             id="path58"
             style="fill:#02709f;fill-opacity:1;fill-rule:nonzero;stroke:none"
             d="m 179.879,339.055 0,-26.465 26.465,0" /><path
             id="path60"
             style="fill:none;stroke:#ffffff;stroke-width:3.99993992;stroke-linecap:butt;stroke-linejoin:miter;stroke-miterlimit:4;stroke-dasharray:none;stroke-opacity:1"
             d="m 179.879,339.055 0,-26.465 26.465,0" /><path
             id="path62"
             style="fill:#02709f;fill-opacity:1;fill-rule:nonzero;stroke:none"
             d="m 216.793,339.055 0,-26.465 26.453,0" /><path
             id="path64"
             style="fill:none;stroke:#ffffff;stroke-width:3.99993992;stroke-linecap:butt;stroke-linejoin:miter;stroke-miterlimit:4;stroke-dasharray:none;stroke-opacity:1"
             d="m 216.793,339.055 0,-26.465 26.453,0" /><path
             id="path66"
             style="fill:#02709f;fill-opacity:1;fill-rule:nonzero;stroke:none"
             d="m 105.66,338.355 0,-26.464 26.453,0" /><path
             id="path68"
             style="fill:none;stroke:#ffffff;stroke-width:3.99993992;stroke-linecap:butt;stroke-linejoin:miter;stroke-miterlimit:4;stroke-dasharray:none;stroke-opacity:1"
             d="m 105.66,338.355 0,-26.464 26.453,0" /><path
             id="path70"
             style="fill:#02709f;fill-opacity:1;fill-rule:nonzero;stroke:none"
             d="m 142.563,338.355 0,-26.464 26.464,0" /><path
             id="path72"
             style="fill:none;stroke:#ffffff;stroke-width:3.99993992;stroke-linecap:butt;stroke-linejoin:miter;stroke-miterlimit:4;stroke-dasharray:none;stroke-opacity:1"
             d="m 142.563,338.355 0,-26.464 26.464,0" /><path
             id="path74"
             style="fill:#02709f;fill-opacity:1;fill-rule:nonzero;stroke:none"
             d="m 179.574,283.98 0,-26.464 26.465,0" /><path
             id="path76"
             style="fill:none;stroke:#ffffff;stroke-width:3.99993992;stroke-linecap:butt;stroke-linejoin:miter;stroke-miterlimit:4;stroke-dasharray:none;stroke-opacity:1"
             d="m 179.574,283.98 0,-26.464 26.465,0" /><path
             id="path78"
             style="fill:#02709f;fill-opacity:1;fill-rule:nonzero;stroke:none"
             d="m 216.488,283.98 0,-26.464 26.465,0" /><path
             id="path80"
             style="fill:none;stroke:#ffffff;stroke-width:3.99993992;stroke-linecap:butt;stroke-linejoin:miter;stroke-miterlimit:4;stroke-dasharray:none;stroke-opacity:1"
             d="m 216.488,283.98 0,-26.464 26.465,0" /><path
             id="path82"
             style="fill:#02709f;fill-opacity:1;fill-rule:nonzero;stroke:none"
             d="m 105.355,283.281 0,-26.465 26.465,0" /><path
             id="path84"
             style="fill:none;stroke:#ffffff;stroke-width:3.99993992;stroke-linecap:butt;stroke-linejoin:miter;stroke-miterlimit:4;stroke-dasharray:none;stroke-opacity:1"
             d="m 105.355,283.281 0,-26.465 26.465,0" /><path
             id="path86"
             style="fill:#02709f;fill-opacity:1;fill-rule:nonzero;stroke:none"
             d="m 142.27,283.281 0,-26.465 26.464,0" /><path
             id="path88"
             style="fill:none;stroke:#ffffff;stroke-width:3.99993992;stroke-linecap:butt;stroke-linejoin:miter;stroke-miterlimit:4;stroke-dasharray:none;stroke-opacity:1"
             d="m 142.27,283.281 0,-26.465 26.464,0" /><path
             id="path90"
             style="fill:#02709f;fill-opacity:1;fill-rule:nonzero;stroke:none"
             d="m 179.574,231.25 0,-26.465 26.465,0" /><path
             id="path92"
             style="fill:none;stroke:#ffffff;stroke-width:3.99993992;stroke-linecap:butt;stroke-linejoin:miter;stroke-miterlimit:4;stroke-dasharray:none;stroke-opacity:1"
             d="m 179.574,231.25 0,-26.465 26.465,0" /><path
             id="path94"
             style="fill:#02709f;fill-opacity:1;fill-rule:nonzero;stroke:none"
             d="m 216.488,231.25 0,-26.465 26.465,0" /><path
             id="path96"
             style="fill:none;stroke:#ffffff;stroke-width:3.99993992;stroke-linecap:butt;stroke-linejoin:miter;stroke-miterlimit:4;stroke-dasharray:none;stroke-opacity:1"
             d="m 216.488,231.25 0,-26.465 26.465,0" /><path
             id="path98"
             style="fill:#02709f;fill-opacity:1;fill-rule:nonzero;stroke:none"
             d="m 105.355,230.551 0,-26.465 26.465,0" /><path
             id="path100"
             style="fill:none;stroke:#ffffff;stroke-width:3.99993992;stroke-linecap:butt;stroke-linejoin:miter;stroke-miterlimit:4;stroke-dasharray:none;stroke-opacity:1"
             d="m 105.355,230.551 0,-26.465 26.465,0" /><path
             id="path102"
             style="fill:#02709f;fill-opacity:1;fill-rule:nonzero;stroke:none"
             d="m 142.27,230.551 0,-26.465 26.464,0" /><path
             id="path104"
             style="fill:none;stroke:#ffffff;stroke-width:3.99993992;stroke-linecap:butt;stroke-linejoin:miter;stroke-miterlimit:4;stroke-dasharray:none;stroke-opacity:1"
             d="m 142.27,230.551 0,-26.465 26.464,0" /><path
             id="path106"
             style="fill:#02709f;fill-opacity:1;fill-rule:nonzero;stroke:none"
             d="m 179.574,182.496 0,-26.469 26.465,0" /><path
             id="path108"
             style="fill:none;stroke:#ffffff;stroke-width:3.99993992;stroke-linecap:butt;stroke-linejoin:miter;stroke-miterlimit:4;stroke-dasharray:none;stroke-opacity:1"
             d="m 179.574,182.496 0,-26.469 26.465,0" /><path
             id="path110"
             style="fill:#02709f;fill-opacity:1;fill-rule:nonzero;stroke:none"
             d="m 216.488,182.496 0,-26.469 26.465,0" /><path
             id="path112"
             style="fill:none;stroke:#ffffff;stroke-width:3.99993992;stroke-linecap:butt;stroke-linejoin:miter;stroke-miterlimit:4;stroke-dasharray:none;stroke-opacity:1"
             d="m 216.488,182.496 0,-26.469 26.465,0" /><path
             id="path114"
             style="fill:#02709f;fill-opacity:1;fill-rule:nonzero;stroke:none"
             d="m 105.355,181.801 0,-26.457 26.465,0" /><path
             id="path116"
             style="fill:none;stroke:#ffffff;stroke-width:3.99993992;stroke-linecap:butt;stroke-linejoin:miter;stroke-miterlimit:4;stroke-dasharray:none;stroke-opacity:1"
             d="m 105.355,181.801 0,-26.457 26.465,0" /><path
             id="path118"
             style="fill:#02709f;fill-opacity:1;fill-rule:nonzero;stroke:none"
             d="m 142.27,181.801 0,-26.457 26.464,0" /><path
             id="path120"
             style="fill:none;stroke:#ffffff;stroke-width:3.99993992;stroke-linecap:butt;stroke-linejoin:miter;stroke-miterlimit:4;stroke-dasharray:none;stroke-opacity:1"
             d="m 142.27,181.801 0,-26.457 26.464,0" /><path
             id="path122"
             style="fill:#02709f;fill-opacity:1;fill-rule:nonzero;stroke:none"
             d="m 281.762,460.199 0,-26.465 26.465,0" /><path
             id="path124"
             style="fill:none;stroke:#ffffff;stroke-width:3.99993992;stroke-linecap:butt;stroke-linejoin:miter;stroke-miterlimit:4;stroke-dasharray:none;stroke-opacity:1"
             d="m 281.762,460.199 0,-26.465 26.465,0" /><path
             id="path126"
             style="fill:#02709f;fill-opacity:1;fill-rule:nonzero;stroke:none"
             d="m 318.676,460.199 0,-26.465 26.465,0" /><path
             id="path128"
             style="fill:none;stroke:#ffffff;stroke-width:3.99993992;stroke-linecap:butt;stroke-linejoin:miter;stroke-miterlimit:4;stroke-dasharray:none;stroke-opacity:1"
             d="m 318.676,460.199 0,-26.465 26.465,0" /><path
             id="path130"
             style="fill:#02709f;fill-opacity:1;fill-rule:nonzero;stroke:none"
             d="m 281.293,410.453 0,-26.465 26.465,0" /><path
             id="path132"
             style="fill:none;stroke:#ffffff;stroke-width:3.99993992;stroke-linecap:butt;stroke-linejoin:miter;stroke-miterlimit:4;stroke-dasharray:none;stroke-opacity:1"
             d="m 281.293,410.453 0,-26.465 26.465,0" /><path
             id="path134"
             style="fill:#02709f;fill-opacity:1;fill-rule:nonzero;stroke:none"
             d="m 318.207,410.453 0,-26.465 26.465,0" /><path
             id="path136"
             style="fill:none;stroke:#ffffff;stroke-width:3.99993992;stroke-linecap:butt;stroke-linejoin:miter;stroke-miterlimit:4;stroke-dasharray:none;stroke-opacity:1"
             d="m 318.207,410.453 0,-26.465 26.465,0" /><path
             id="path138"
             style="fill:#02709f;fill-opacity:1;fill-rule:nonzero;stroke:none"
             d="m 281.293,365.684 0,-26.465 26.465,0" /><path
             id="path140"
             style="fill:none;stroke:#ffffff;stroke-width:3.99993992;stroke-linecap:butt;stroke-linejoin:miter;stroke-miterlimit:4;stroke-dasharray:none;stroke-opacity:1"
             d="m 281.293,365.684 0,-26.465 26.465,0" /><path
             id="path142"
             style="fill:#02709f;fill-opacity:1;fill-rule:nonzero;stroke:none"
             d="m 318.207,365.684 0,-26.465 26.465,0" /><path
             id="path144"
             style="fill:none;stroke:#ffffff;stroke-width:3.99993992;stroke-linecap:butt;stroke-linejoin:miter;stroke-miterlimit:4;stroke-dasharray:none;stroke-opacity:1"
             d="m 318.207,365.684 0,-26.465 26.465,0" /><path
             id="path146"
             style="fill:#02709f;fill-opacity:1;fill-rule:nonzero;stroke:none"
             d="m 17.1055,236.605 0,-26.468 26.4648,0" /><path
             id="path148"
             style="fill:none;stroke:#ffffff;stroke-width:3.99993992;stroke-linecap:butt;stroke-linejoin:miter;stroke-miterlimit:4;stroke-dasharray:none;stroke-opacity:1"
             d="m 17.1055,236.605 0,-26.468 26.4648,0" /><path
             id="path150"
             style="fill:#02709f;fill-opacity:1;fill-rule:nonzero;stroke:none"
             d="m 54.0195,236.605 0,-26.468 26.4649,0" /><path
             id="path152"
             style="fill:none;stroke:#ffffff;stroke-width:3.99993992;stroke-linecap:butt;stroke-linejoin:miter;stroke-miterlimit:4;stroke-dasharray:none;stroke-opacity:1"
             d="m 54.0195,236.605 0,-26.468 26.4649,0" /><path
             id="path154"
             style="fill:#02709f;fill-opacity:1;fill-rule:nonzero;stroke:none"
             d="m 19.0977,186.859 0,-26.468 26.4648,0" /><path
             id="path156"
             style="fill:none;stroke:#ffffff;stroke-width:3.99993992;stroke-linecap:butt;stroke-linejoin:miter;stroke-miterlimit:4;stroke-dasharray:none;stroke-opacity:1"
             d="m 19.0977,186.859 0,-26.468 26.4648,0" /><path
             id="path158"
             style="fill:#02709f;fill-opacity:1;fill-rule:nonzero;stroke:none"
             d="m 56,186.859 0,-26.468 26.4648,0" /><path
             id="path160"
             style="fill:none;stroke:#ffffff;stroke-width:3.99993992;stroke-linecap:butt;stroke-linejoin:miter;stroke-miterlimit:4;stroke-dasharray:none;stroke-opacity:1"
             d="m 56,186.859 0,-26.468 26.4648,0" /><path
             id="path162"
             style="fill:#02709f;fill-opacity:1;fill-rule:nonzero;stroke:none"
             d="m 19.0977,142.078 0,-26.465 26.4648,0" /><path
             id="path164"
             style="fill:none;stroke:#ffffff;stroke-width:3.99993992;stroke-linecap:butt;stroke-linejoin:miter;stroke-miterlimit:4;stroke-dasharray:none;stroke-opacity:1"
             d="m 19.0977,142.078 0,-26.465 26.4648,0" /><path
             id="path166"
             style="fill:#02709f;fill-opacity:1;fill-rule:nonzero;stroke:none"
             d="m 56,142.078 0,-26.465 26.4648,0" /><path
             id="path168"
             style="fill:none;stroke:#ffffff;stroke-width:3.99993992;stroke-linecap:butt;stroke-linejoin:miter;stroke-miterlimit:4;stroke-dasharray:none;stroke-opacity:1"
             d="m 56,142.078 0,-26.465 26.4648,0" /><path
             id="path170"
             style="fill:#02709f;fill-opacity:1;fill-rule:nonzero;stroke:none"
             d="m 180.621,543.547 0,-26.469 26.465,0" /><path
             id="path172"
             style="fill:none;stroke:#ffffff;stroke-width:3.99993992;stroke-linecap:butt;stroke-linejoin:miter;stroke-miterlimit:4;stroke-dasharray:none;stroke-opacity:1"
             d="m 180.621,543.547 0,-26.469 26.465,0" /><path
             id="path174"
             style="fill:#02709f;fill-opacity:1;fill-rule:nonzero;stroke:none"
             d="m 217.523,543.547 0,-26.469 26.465,0" /><path
             id="path176"
             style="fill:none;stroke:#ffffff;stroke-width:3.99993992;stroke-linecap:butt;stroke-linejoin:miter;stroke-miterlimit:4;stroke-dasharray:none;stroke-opacity:1"
             d="m 217.523,543.547 0,-26.469 26.465,0" /><path
             id="path178"
             style="fill:#02709f;fill-opacity:1;fill-rule:nonzero;stroke:none"
             d="m 106.391,542.848 0,-26.465 26.464,0" /><path
             id="path180"
             style="fill:none;stroke:#ffffff;stroke-width:3.99993992;stroke-linecap:butt;stroke-linejoin:miter;stroke-miterlimit:4;stroke-dasharray:none;stroke-opacity:1"
             d="m 106.391,542.848 0,-26.465 26.464,0" /><path
             id="path182"
             style="fill:#02709f;fill-opacity:1;fill-rule:nonzero;stroke:none"
             d="m 143.305,542.848 0,-26.465 26.465,0" /><path
             id="path184"
             style="fill:none;stroke:#ffffff;stroke-width:3.99993992;stroke-linecap:butt;stroke-linejoin:miter;stroke-miterlimit:4;stroke-dasharray:none;stroke-opacity:1"
             d="m 143.305,542.848 0,-26.465 26.465,0" /><path
             id="path186"
             style="fill:#02709f;fill-opacity:1;fill-rule:nonzero;stroke:none"
             d="m 180.316,488.477 0,-26.465 26.465,0" /><path
             id="path188"
             style="fill:none;stroke:#ffffff;stroke-width:3.99993992;stroke-linecap:butt;stroke-linejoin:miter;stroke-miterlimit:4;stroke-dasharray:none;stroke-opacity:1"
             d="m 180.316,488.477 0,-26.465 26.465,0" /><path
             id="path190"
             style="fill:#02709f;fill-opacity:1;fill-rule:nonzero;stroke:none"
             d="m 217.23,488.477 0,-26.465 26.465,0" /><path
             id="path192"
             style="fill:none;stroke:#ffffff;stroke-width:3.99993992;stroke-linecap:butt;stroke-linejoin:miter;stroke-miterlimit:4;stroke-dasharray:none;stroke-opacity:1"
             d="m 217.23,488.477 0,-26.465 26.465,0" /><path
             id="path194"
             style="fill:#02709f;fill-opacity:1;fill-rule:nonzero;stroke:none"
             d="m 106.098,487.777 0,-26.464 26.465,0" /><path
             id="path196"
             style="fill:none;stroke:#ffffff;stroke-width:3.99993992;stroke-linecap:butt;stroke-linejoin:miter;stroke-miterlimit:4;stroke-dasharray:none;stroke-opacity:1"
             d="m 106.098,487.777 0,-26.464 26.465,0" /><path
             id="path198"
             style="fill:#02709f;fill-opacity:1;fill-rule:nonzero;stroke:none"
             d="m 143.012,487.777 0,-26.464 26.465,0" /><path
             id="path200"
             style="fill:none;stroke:#ffffff;stroke-width:3.99993992;stroke-linecap:butt;stroke-linejoin:miter;stroke-miterlimit:4;stroke-dasharray:none;stroke-opacity:1"
             d="m 143.012,487.777 0,-26.464 26.465,0" /><path
             id="path202"
             style="fill:#02709f;fill-opacity:1;fill-rule:nonzero;stroke:none"
             d="m 180.316,435.742 0,-26.465 26.465,0" /><path
             id="path204"
             style="fill:none;stroke:#ffffff;stroke-width:3.99993992;stroke-linecap:butt;stroke-linejoin:miter;stroke-miterlimit:4;stroke-dasharray:none;stroke-opacity:1"
             d="m 180.316,435.742 0,-26.465 26.465,0" /><path
             id="path206"
             style="fill:#02709f;fill-opacity:1;fill-rule:nonzero;stroke:none"
             d="m 217.23,435.742 0,-26.465 26.465,0" /><path
             id="path208"
             style="fill:none;stroke:#ffffff;stroke-width:3.99993992;stroke-linecap:butt;stroke-linejoin:miter;stroke-miterlimit:4;stroke-dasharray:none;stroke-opacity:1"
             d="m 217.23,435.742 0,-26.465 26.465,0" /><path
             id="path210"
             style="fill:#02709f;fill-opacity:1;fill-rule:nonzero;stroke:none"
             d="m 106.098,435.043 0,-26.465 26.465,0" /><path
             id="path212"
             style="fill:none;stroke:#ffffff;stroke-width:3.99993992;stroke-linecap:butt;stroke-linejoin:miter;stroke-miterlimit:4;stroke-dasharray:none;stroke-opacity:1"
             d="m 106.098,435.043 0,-26.465 26.465,0" /><path
             id="path214"
             style="fill:#02709f;fill-opacity:1;fill-rule:nonzero;stroke:none"
             d="m 143.012,435.043 0,-26.465 26.465,0" /><path
             id="path216"
             style="fill:none;stroke:#ffffff;stroke-width:3.99993992;stroke-linecap:butt;stroke-linejoin:miter;stroke-miterlimit:4;stroke-dasharray:none;stroke-opacity:1"
             d="m 143.012,435.043 0,-26.465 26.465,0" /><path
             id="path218"
             style="fill:#02709f;fill-opacity:1;fill-rule:nonzero;stroke:none"
             d="m 180.316,386.992 0,-26.465 26.465,0" /><path
             id="path220"
             style="fill:none;stroke:#ffffff;stroke-width:3.99993992;stroke-linecap:butt;stroke-linejoin:miter;stroke-miterlimit:4;stroke-dasharray:none;stroke-opacity:1"
             d="m 180.316,386.992 0,-26.465 26.465,0" /><path
             id="path222"
             style="fill:#02709f;fill-opacity:1;fill-rule:nonzero;stroke:none"
             d="m 217.23,386.992 0,-26.465 26.465,0" /><path
             id="path224"
             style="fill:none;stroke:#ffffff;stroke-width:3.99993992;stroke-linecap:butt;stroke-linejoin:miter;stroke-miterlimit:4;stroke-dasharray:none;stroke-opacity:1"
             d="m 217.23,386.992 0,-26.465 26.465,0" /><path
             id="path226"
             style="fill:#02709f;fill-opacity:1;fill-rule:nonzero;stroke:none"
             d="m 106.098,386.293 0,-26.465 26.465,0" /><path
             id="path228"
             style="fill:none;stroke:#ffffff;stroke-width:3.99993992;stroke-linecap:butt;stroke-linejoin:miter;stroke-miterlimit:4;stroke-dasharray:none;stroke-opacity:1"
             d="m 106.098,386.293 0,-26.465 26.465,0" /><path
             id="path230"
             style="fill:#02709f;fill-opacity:1;fill-rule:nonzero;stroke:none"
             d="m 143.012,386.293 0,-26.465 26.465,0" /><path
             id="path232"
             style="fill:none;stroke:#ffffff;stroke-width:3.99993992;stroke-linecap:butt;stroke-linejoin:miter;stroke-miterlimit:4;stroke-dasharray:none;stroke-opacity:1"
             d="m 143.012,386.293 0,-26.465 26.465,0" /><path
             id="path234"
             style="fill:#02709f;fill-opacity:1;fill-rule:nonzero;stroke:none"
             d="m 280.934,318.746 0,-26.465" /><path
             id="path236"
             style="fill:none;stroke:#ffffff;stroke-width:3.99993992;stroke-linecap:butt;stroke-linejoin:miter;stroke-miterlimit:4;stroke-dasharray:none;stroke-opacity:1"
             d="m 280.934,318.746 0,-26.465" /><path
             id="path238"
             style="fill:#02709f;fill-opacity:1;fill-rule:nonzero;stroke:none"
             d="m 280.934,292.281 26.464,0" /><path
             id="path240"
             style="fill:none;stroke:#ffffff;stroke-width:3.99993992;stroke-linecap:butt;stroke-linejoin:miter;stroke-miterlimit:4;stroke-dasharray:none;stroke-opacity:1"
             d="m 280.934,292.281 26.464,0" /><path
             id="path242"
             style="fill:#02709f;fill-opacity:1;fill-rule:nonzero;stroke:none"
             d="m 317.836,318.746 0,-26.465 26.465,0" /><path
             id="path244"
             style="fill:none;stroke:#ffffff;stroke-width:3.99993992;stroke-linecap:butt;stroke-linejoin:miter;stroke-miterlimit:4;stroke-dasharray:none;stroke-opacity:1"
             d="m 317.836,318.746 0,-26.465 26.465,0" /><path
             id="path246"
             style="fill:#02709f;fill-opacity:1;fill-rule:nonzero;stroke:none"
             d="m 280.934,273.301 0,-26.469" /><path
             id="path248"
             style="fill:none;stroke:#ffffff;stroke-width:3.99993992;stroke-linecap:butt;stroke-linejoin:miter;stroke-miterlimit:4;stroke-dasharray:none;stroke-opacity:1"
             d="m 280.934,273.301 0,-26.469" /><path
             id="path250"
             style="fill:#02709f;fill-opacity:1;fill-rule:nonzero;stroke:none"
             d="m 280.934,246.832 26.464,0" /><path
             id="path252"
             style="fill:none;stroke:#ffffff;stroke-width:3.99993992;stroke-linecap:butt;stroke-linejoin:miter;stroke-miterlimit:4;stroke-dasharray:none;stroke-opacity:1"
             d="m 280.934,246.832 26.464,0" /><path
             id="path254"
             style="fill:#02709f;fill-opacity:1;fill-rule:nonzero;stroke:none"
             d="m 317.836,273.301 0,-26.469 26.465,0" /><path
             id="path256"
             style="fill:none;stroke:#ffffff;stroke-width:3.99993992;stroke-linecap:butt;stroke-linejoin:miter;stroke-miterlimit:4;stroke-dasharray:none;stroke-opacity:1"
             d="m 317.836,273.301 0,-26.469 26.465,0" /></g></g></g></g></svg>