<svg xmlns="http://www.w3.org/2000/svg" viewBox="0 0 53.75 80" height="80" width="53.75"><path d="M.605 79.897h10.61V48.243H.605v31.654z" fill="#02709f"/><path d="M11.216 48.243H.605v31.654h10.611" fill="none" stroke="#fff" stroke-width=".5"/><path d="M11.216 79.897l5.869-5.868V42.377H6.47L.605 48.243h10.611v31.654" fill="#02709f"/><path d="M11.216 79.897l5.869-5.868V42.377H6.47L.605 48.243h10.611v31.654z" fill="none" stroke="#fff" stroke-width=".5"/><path d="M11.216 48.243l5.869-5.866" fill="#02709f"/><path d="M11.216 48.243l5.869-5.866" fill="none" stroke="#fff" stroke-width=".5"/><path d="M11.216 79.897h21.64V9.034h-21.64v70.863z" fill="#02709f"/><path d="M32.856 9.034h-21.64v70.863h21.64" fill="none" stroke="#fff" stroke-width=".5"/><path d="M32.856 79.897l8.799-8.798V.235h-21.64l-8.799 8.799h21.64v70.863" fill="#02709f"/><path d="M32.856 79.897l8.799-8.798V.235h-21.64l-8.799 8.799h21.64v70.863z" fill="none" stroke="#fff" stroke-width=".5"/><path d="M32.856 9.034l8.799-8.8" fill="#02709f"/><path d="M32.856 9.034l8.799-8.8" fill="none" stroke="#fff" stroke-width=".5"/><path d="M33.038 79.897h11.734V20.185H33.038v59.712z" fill="#02709f"/><path d="M44.77 20.185H33.038v59.712H44.77" fill="none" stroke="#fff" stroke-width=".5"/><path d="M44.77 79.897l8.604-8.603V11.582H41.64l-8.602 8.603H44.77v59.712" fill="#02709f"/><path d="M44.77 79.897l8.604-8.603V11.582H41.64l-8.602 8.603H44.77v59.712z" fill="none" stroke="#fff" stroke-width=".5"/><path d="M44.77 20.185l8.604-8.602" fill="#02709f"/><path d="M44.77 20.185l8.604-8.602" fill="none" stroke="#fff" stroke-width=".5"/><path d="M22.485 38.12v3.306h3.306" fill="#02709f"/><path d="M22.485 38.12v3.306h3.306" fill="none" stroke="#fff" stroke-width=".5"/><path d="M27.1 38.12v3.306h3.305" fill="#02709f"/><path d="M27.1 38.12v3.306h3.305" fill="none" stroke="#fff" stroke-width=".5"/><path d="M13.207 38.208v3.306h3.307" fill="#02709f"/><path d="M13.207 38.208v3.306h3.307" fill="none" stroke="#fff" stroke-width=".5"/><path d="M17.822 38.208v3.306h3.306" fill="#02709f"/><path d="M17.822 38.208v3.306h3.306" fill="none" stroke="#fff" stroke-width=".5"/><path d="M22.446 45.005v3.305h3.31" fill="#02709f"/><path d="M22.446 45.005v3.305h3.31" fill="none" stroke="#fff" stroke-width=".5"/><path d="M27.06 45.005v3.305h3.311" fill="#02709f"/><path d="M27.06 45.005v3.305h3.311" fill="none" stroke="#fff" stroke-width=".5"/><path d="M13.169 45.087V48.4h3.311" fill="#02709f"/><path d="M13.169 45.087V48.4h3.311" fill="none" stroke="#fff" stroke-width=".5"/><path d="M17.784 45.087V48.4h3.31" fill="#02709f"/><path d="M17.784 45.087V48.4h3.31" fill="none" stroke="#fff" stroke-width=".5"/><path d="M22.446 51.591v3.311h3.31" fill="#02709f"/><path d="M22.446 51.591v3.311h3.31" fill="none" stroke="#fff" stroke-width=".5"/><path d="M27.06 51.591v3.311h3.311" fill="#02709f"/><path d="M27.06 51.591v3.311h3.311" fill="none" stroke="#fff" stroke-width=".5"/><path d="M13.169 51.68v3.31h3.311" fill="#02709f"/><path d="M13.169 51.68v3.31h3.311" fill="none" stroke="#fff" stroke-width=".5"/><path d="M17.784 51.68v3.31h3.31" fill="#02709f"/><path d="M17.784 51.68v3.31h3.31" fill="none" stroke="#fff" stroke-width=".5"/><path d="M22.446 57.69v3.306h3.31" fill="#02709f"/><path d="M22.446 57.69v3.306h3.31" fill="none" stroke="#fff" stroke-width=".5"/><path d="M27.06 57.69v3.306h3.311" fill="#02709f"/><path d="M27.06 57.69v3.306h3.311" fill="none" stroke="#fff" stroke-width=".5"/><path d="M13.169 57.774v3.31h3.311" fill="#02709f"/><path d="M13.169 57.774v3.31h3.311" fill="none" stroke="#fff" stroke-width=".5"/><path d="M17.784 57.774v3.31h3.31" fill="#02709f"/><path d="M17.784 57.774v3.31h3.31" fill="none" stroke="#fff" stroke-width=".5"/><path d="M35.22 22.974v3.31h3.31" fill="#02709f"/><path d="M35.22 22.974v3.31h3.31" fill="none" stroke="#fff" stroke-width=".5"/><path d="M39.834 22.974v3.31h3.311" fill="#02709f"/><path d="M39.834 22.974v3.31h3.311" fill="none" stroke="#fff" stroke-width=".5"/><path d="M35.161 29.194V32.5h3.31" fill="#02709f"/><path d="M35.161 29.194V32.5h3.31" fill="none" stroke="#fff" stroke-width=".5"/><path d="M39.775 29.194V32.5h3.311" fill="#02709f"/><path d="M39.775 29.194V32.5h3.311" fill="none" stroke="#fff" stroke-width=".5"/><path d="M35.161 34.79v3.306h3.31" fill="#02709f"/><path d="M35.161 34.79v3.306h3.31" fill="none" stroke="#fff" stroke-width=".5"/><path d="M39.775 34.79v3.306h3.311" fill="#02709f"/><path d="M39.775 34.79v3.306h3.311" fill="none" stroke="#fff" stroke-width=".5"/><path d="M2.139 50.922v3.312h3.305" fill="#02709f"/><path d="M2.139 50.922v3.312h3.305" fill="none" stroke="#fff" stroke-width=".5"/><path d="M6.752 50.922v3.312h3.307" fill="#02709f"/><path d="M6.752 50.922v3.312h3.307" fill="none" stroke="#fff" stroke-width=".5"/><path d="M2.388 57.144v3.305h3.306" fill="#02709f"/><path d="M2.388 57.144v3.305h3.306" fill="none" stroke="#fff" stroke-width=".5"/><path d="M7.002 57.144v3.305h3.306" fill="#02709f"/><path d="M7.002 57.144v3.305h3.306" fill="none" stroke="#fff" stroke-width=".5"/><path d="M2.388 62.739v3.31h3.306" fill="#02709f"/><path d="M2.388 62.739v3.31h3.306" fill="none" stroke="#fff" stroke-width=".5"/><path d="M7.002 62.739v3.31h3.306" fill="#02709f"/><path d="M7.002 62.739v3.31h3.306" fill="none" stroke="#fff" stroke-width=".5"/><path d="M22.578 12.559v3.305h3.306" fill="#02709f"/><path d="M22.578 12.559v3.305h3.306" fill="none" stroke="#fff" stroke-width=".5"/><path d="M27.192 12.559v3.305h3.305" fill="#02709f"/><path d="M27.192 12.559v3.305h3.305" fill="none" stroke="#fff" stroke-width=".5"/><path d="M13.301 12.641v3.312h3.305" fill="#02709f"/><path d="M13.301 12.641v3.312h3.305" fill="none" stroke="#fff" stroke-width=".5"/><path d="M17.915 12.641v3.312h3.306" fill="#02709f"/><path d="M17.915 12.641v3.312h3.306" fill="none" stroke="#fff" stroke-width=".5"/><path d="M22.539 19.439v3.31h3.311" fill="#02709f"/><path d="M22.539 19.439v3.31h3.311" fill="none" stroke="#fff" stroke-width=".5"/><path d="M27.154 19.439v3.31h3.31" fill="#02709f"/><path d="M27.154 19.439v3.31h3.31" fill="none" stroke="#fff" stroke-width=".5"/><path d="M13.261 19.526v3.311h3.311" fill="#02709f"/><path d="M13.261 19.526v3.311h3.311" fill="none" stroke="#fff" stroke-width=".5"/><path d="M17.877 19.526v3.311h3.309" fill="#02709f"/><path d="M17.877 19.526v3.311h3.309" fill="none" stroke="#fff" stroke-width=".5"/><path d="M22.539 26.03v3.311h3.311" fill="#02709f"/><path d="M22.539 26.03v3.311h3.311" fill="none" stroke="#fff" stroke-width=".5"/><path d="M27.154 26.03v3.311h3.31" fill="#02709f"/><path d="M27.154 26.03v3.311h3.31" fill="none" stroke="#fff" stroke-width=".5"/><path d="M13.261 26.119v3.31h3.311" fill="#02709f"/><path d="M13.261 26.119v3.31h3.311" fill="none" stroke="#fff" stroke-width=".5"/><path d="M17.877 26.119v3.31h3.309" fill="#02709f"/><path d="M17.877 26.119v3.31h3.309" fill="none" stroke="#fff" stroke-width=".5"/><path d="M22.539 32.123v3.312h3.311" fill="#02709f"/><path d="M22.539 32.123v3.312h3.311" fill="none" stroke="#fff" stroke-width=".5"/><path d="M27.154 32.123v3.312h3.31" fill="#02709f"/><path d="M27.154 32.123v3.312h3.31" fill="none" stroke="#fff" stroke-width=".5"/><path d="M13.261 32.212v3.31h3.311" fill="#02709f"/><path d="M13.261 32.212v3.31h3.311" fill="none" stroke="#fff" stroke-width=".5"/><path d="M17.877 32.212v3.31h3.309" fill="#02709f"/><path d="M17.877 32.212v3.31h3.309M35.118 40.659v3.306M35.118 43.965h3.304" fill="none" stroke="#fff" stroke-width=".5"/><path d="M39.731 40.659v3.306h3.307" fill="#02709f"/><path d="M39.731 40.659v3.306h3.307M35.118 46.337v3.312M35.118 49.649h3.304" fill="none" stroke="#fff" stroke-width=".5"/><path d="M39.731 46.337v3.312h3.307" fill="#02709f"/><path d="M39.731 46.337v3.312h3.307" fill="none" stroke="#fff" stroke-width=".5"/></svg>