<?xml version="1.0" encoding="UTF-8" standalone="no"?>
<svg
   xmlns:dc="http://purl.org/dc/elements/1.1/"
   xmlns:cc="http://creativecommons.org/ns#"
   xmlns:rdf="http://www.w3.org/1999/02/22-rdf-syntax-ns#"
   xmlns:svg="http://www.w3.org/2000/svg"
   xmlns="http://www.w3.org/2000/svg"
   viewBox="0 0 35 50"
   height="50"
   width="35"
   xml:space="preserve"
   version="1.1"
   id="svg2"><metadata
     id="metadata8"><rdf:RDF><cc:Work
         rdf:about=""><dc:format>image/svg+xml</dc:format><dc:type
           rdf:resource="http://purl.org/dc/dcmitype/StillImage" /></cc:Work></rdf:RDF></metadata><defs
     id="defs6" /><g
     transform="matrix(1.25,0,0,-1.25,0,50)"
     id="g10"><g
       transform="scale(0.1,0.1)"
       id="g12"><path
         id="path14"
         style="fill:#087fbf;fill-opacity:1;fill-rule:nonzero;stroke:none"
         d="M 39.0586,275.941 4.83984,241.84 l 0,-238.55875 239.53916,0 34.211,34.05855 0,238.6012 -239.5314,0" /><path
         id="path16"
         style="fill:none;stroke:#ffffff;stroke-width:4;stroke-linecap:butt;stroke-linejoin:miter;stroke-miterlimit:4;stroke-dasharray:none;stroke-opacity:1"
         d="M 39.0586,275.941 4.83984,241.84 l 0,-238.55875 239.53916,0 34.211,34.05855 0,238.6012 -239.5314,0 z" /><path
         id="path18"
         style="fill:#087fbf;fill-opacity:1;fill-rule:nonzero;stroke:none"
         d="m 4.83984,241.84 239.53916,0 34.211,34.101 -239.5314,0 L 4.83984,241.84" /><path
         id="path20"
         style="fill:none;stroke:#ffffff;stroke-width:4;stroke-linecap:butt;stroke-linejoin:miter;stroke-miterlimit:4;stroke-dasharray:none;stroke-opacity:1"
         d="m 4.83984,241.84 239.53916,0 34.211,34.101 -239.5314,0 L 4.83984,241.84 Z" /><path
         id="path22"
         style="fill:#087fbf;fill-opacity:1;fill-rule:nonzero;stroke:none"
         d="m 244.379,241.84 34.211,34.101 0,-238.6012 -34.211,-34.05855 0,238.55875" /><path
         id="path24"
         style="fill:none;stroke:#ffffff;stroke-width:4;stroke-linecap:butt;stroke-linejoin:miter;stroke-miterlimit:4;stroke-dasharray:none;stroke-opacity:1"
         d="m 244.379,241.84 34.211,34.101 0,-238.6012 -34.211,-34.05855 0,238.55875 z" /><path
         id="path26"
         style="fill:#087fbf;fill-opacity:1;fill-rule:nonzero;stroke:none"
         d="M 39.0586,275.941 4.83984,241.84 l 0,-238.55875 239.53916,0 34.211,34.05855 0,238.6012 -239.5314,0" /><path
         id="path28"
         style="fill:none;stroke:#ffffff;stroke-width:4;stroke-linecap:butt;stroke-linejoin:miter;stroke-miterlimit:4;stroke-dasharray:none;stroke-opacity:1"
         d="M 39.0586,275.941 4.83984,241.84 l 0,-238.55875 239.53916,0 34.211,34.05855 0,238.6012 -239.5314,0 z" /><path
         id="path30"
         style="fill:#087fbf;fill-opacity:1;fill-rule:nonzero;stroke:none"
         d="m 4.83984,241.84 239.53916,0 34.211,34.101" /><path
         id="path32"
         style="fill:none;stroke:#ffffff;stroke-width:4;stroke-linecap:butt;stroke-linejoin:miter;stroke-miterlimit:4;stroke-dasharray:none;stroke-opacity:1"
         d="m 4.83984,241.84 239.53916,0 34.211,34.101" /><path
         id="path34"
         style="fill:none;stroke:#ffffff;stroke-width:4;stroke-linecap:butt;stroke-linejoin:miter;stroke-miterlimit:4;stroke-dasharray:none;stroke-opacity:1"
         d="m 244.379,241.84 0,-238.55875" /><path
         id="path36"
         style="fill:#087fbf;fill-opacity:1;fill-rule:nonzero;stroke:none"
         d="M 39.0586,395.199 4.83984,361.09 l 0,-119.25 239.53916,0 34.211,34.101 0,119.258 -239.5314,0" /><path
         id="path38"
         style="fill:none;stroke:#ffffff;stroke-width:4;stroke-linecap:butt;stroke-linejoin:miter;stroke-miterlimit:4;stroke-dasharray:none;stroke-opacity:1"
         d="M 39.0586,395.199 4.83984,361.09 l 0,-119.25 239.53916,0 34.211,34.101 0,119.258 -239.5314,0 z" /><path
         id="path40"
         style="fill:#087fbf;fill-opacity:1;fill-rule:nonzero;stroke:none"
         d="m 244.379,361.09 34.211,34.109 0,-119.258 -34.211,-34.101 0,119.25" /><path
         id="path42"
         style="fill:none;stroke:#ffffff;stroke-width:4;stroke-linecap:butt;stroke-linejoin:miter;stroke-miterlimit:4;stroke-dasharray:none;stroke-opacity:1"
         d="m 244.379,361.09 34.211,34.109 0,-119.258 -34.211,-34.101 0,119.25 z" /><path
         id="path44"
         style="fill:#087fbf;fill-opacity:1;fill-rule:nonzero;stroke:none"
         d="M 39.0586,395.199 4.83984,361.09 l 0,-119.25 239.53916,0 34.211,34.101 0,119.258 -239.5314,0" /><path
         id="path46"
         style="fill:none;stroke:#ffffff;stroke-width:4;stroke-linecap:butt;stroke-linejoin:miter;stroke-miterlimit:4;stroke-dasharray:none;stroke-opacity:1"
         d="M 39.0586,395.199 4.83984,361.09 l 0,-119.25 239.53916,0 34.211,34.101 0,119.258 -239.5314,0 z" /><path
         id="path48"
         style="fill:#087fbf;fill-opacity:1;fill-rule:nonzero;stroke:none"
         d="m 244.379,241.84 0,119.25 -239.53916,0" /><path
         id="path50"
         style="fill:none;stroke:#ffffff;stroke-width:4;stroke-linecap:butt;stroke-linejoin:miter;stroke-miterlimit:4;stroke-dasharray:none;stroke-opacity:1"
         d="m 244.379,241.84 0,119.25 -239.53916,0" /><path
         id="path52"
         style="fill:#ffffff;fill-opacity:1;fill-rule:nonzero;stroke:none"
         d="m 21.9492,310 68.4414,0 0,34.0586 -68.4414,0 0,-34.0586 z" /><path
         id="path54"
         style="fill:#ffffff;fill-opacity:1;fill-rule:nonzero;stroke:none"
         d="m 39.0586,37.3398 171.09,0 0,170.391 -171.09,0 0,-170.391 z" /><path
         id="path56"
         style="fill:none;stroke:#ffffff;stroke-width:4;stroke-linecap:butt;stroke-linejoin:miter;stroke-miterlimit:1;stroke-dasharray:none;stroke-opacity:1"
         d="m 39.0586,37.3398 171.09,0 0,170.391 -171.09,0 0,-170.391 z" /><path
         id="path58"
         style="fill:#ffffff;fill-opacity:1;fill-rule:nonzero;stroke:none"
         d="m 158.828,310 68.4414,0 0,34.0586 -68.4414,0 0,-34.0586 z" /><path
         id="path60"
         style="fill:#ffffff;fill-opacity:1;fill-rule:nonzero;stroke:none"
         d="m 21.9492,258.871 68.4414,0 0,34.0977 -68.4414,0 0,-34.0977 z" /><path
         id="path62"
         style="fill:#ffffff;fill-opacity:1;fill-rule:nonzero;stroke:none"
         d="m 158.828,258.871 68.4414,0 0,34.0977 -68.4414,0 0,-34.0977 z" /><path
         id="path64"
         style="fill:none;stroke:#ffffff;stroke-width:4;stroke-linecap:butt;stroke-linejoin:miter;stroke-miterlimit:1;stroke-dasharray:none;stroke-opacity:1"
         d="m 90.3906,327.031 68.4374,0" /><path
         id="path66"
         style="fill:none;stroke:#ffffff;stroke-width:4;stroke-linecap:butt;stroke-linejoin:miter;stroke-miterlimit:1;stroke-dasharray:none;stroke-opacity:1"
         d="m 90.3906,275.941 68.4374,0" /><path
         id="path68"
         style="fill:#231f20;fill-opacity:1;fill-rule:nonzero;stroke:none"
         d="M 90.3906,292.93 158.828,310" /><path
         id="path70"
         style="fill:none;stroke:#ffffff;stroke-width:4;stroke-linecap:butt;stroke-linejoin:miter;stroke-miterlimit:1;stroke-dasharray:none;stroke-opacity:1"
         d="M 90.3906,292.93 158.828,310" /><path
         id="path72"
         style="fill:#231f20;fill-opacity:1;fill-rule:nonzero;stroke:none"
         d="M 90.3906,310 158.828,292.93" /><path
         id="path74"
         style="fill:none;stroke:#ffffff;stroke-width:4;stroke-linecap:butt;stroke-linejoin:miter;stroke-miterlimit:1;stroke-dasharray:none;stroke-opacity:1"
         d="M 90.3906,310 158.828,292.93" /><path
         id="path76"
         style="fill:#087fbf;fill-opacity:1;fill-rule:nonzero;stroke:none"
         d="m 124.609,173.672 c 27.813,0 51.332,-21.293 51.332,-51.094 0,-27.6991 -23.519,-51.1288 -51.332,-51.1288 -29.9606,0 -51.3277,23.4297 -51.3277,51.1288 0,29.801 21.3671,51.094 51.3277,51.094" /><path
         id="path78"
         style="fill:none;stroke:#ffffff;stroke-width:4;stroke-linecap:butt;stroke-linejoin:miter;stroke-miterlimit:4;stroke-dasharray:none;stroke-opacity:1"
         d="m 124.609,173.672 c 27.813,0 51.332,-21.293 51.332,-51.094 0,-27.6991 -23.519,-51.1288 -51.332,-51.1288 -29.9606,0 -51.3277,23.4297 -51.3277,51.1288 0,29.801 21.3671,51.094 51.3277,51.094" /><path
         id="path80"
         style="fill:#ffffff;fill-opacity:1;fill-rule:nonzero;stroke:none"
         d="m 124.609,139.609 c 8.551,0 17.11,-6.41 17.11,-17.031 0,-8.558 -8.559,-17.066 -17.11,-17.066 -10.699,0 -17.109,8.508 -17.109,17.066 0,10.621 6.41,17.031 17.109,17.031" /><path
         id="path82"
         style="fill:none;stroke:#ffffff;stroke-width:4;stroke-linecap:butt;stroke-linejoin:miter;stroke-miterlimit:1;stroke-dasharray:none;stroke-opacity:1"
         d="m 124.609,139.609 c 8.551,0 17.11,-6.41 17.11,-17.031 0,-8.558 -8.559,-17.066 -17.11,-17.066 -10.699,0 -17.109,8.508 -17.109,17.066 0,10.621 6.41,17.031 17.109,17.031" /></g></g></svg>