<svg xmlns="http://www.w3.org/2000/svg" viewBox="0 0 40 43.75" height="43.75" width="40"><path d="M39.331 7.803c0 4.2-8.745 7.602-19.541 7.602C8.999 15.405.249 12.003.249 7.803V36.4c0 4.2 8.75 7.598 19.541 7.598 10.796 0 19.541-3.399 19.541-7.598V7.803" fill="#087fbf"/><path d="M39.331 7.803c0 4.2-8.745 7.602-19.541 7.602C8.999 15.405.249 12.003.249 7.803V36.4c0 4.2 8.75 7.598 19.541 7.598 10.796 0 19.541-3.399 19.541-7.598V7.803z" fill="none" stroke="#fff" stroke-width=".5"/><path d="M19.79 15.405c10.796 0 19.541-3.402 19.541-7.602 0-4.194-8.745-7.598-19.541-7.598C8.999.205.249 3.61.249 7.803c0 4.2 8.75 7.602 19.541 7.602" fill="#087fbf"/><path d="M19.79 15.405c10.796 0 19.541-3.402 19.541-7.602 0-4.194-8.745-7.598-19.541-7.598C8.999.205.249 3.61.249 7.803c0 4.2 8.75 7.602 19.541 7.602z" fill="none" stroke="#fff" stroke-width=".5"/><path d="M15.328 4.834l1.616 2.418-6.099 1.41 1.327-1.108L2.75 5.942 5.112 4.17l9.097 1.538 1.119-.874M23.916 10.699l-1.103-2.492 5.502-1.102-.951.854 9.17 1.567-2.198 1.763-9.121-1.714-1.299 1.124M20.909 3.511l6.16-1.69.075 2.641L25.6 4.17l-3.008 2.495-2.87-.42 3.106-2.436-1.92-.298M18.266 12.979l-5.873 1.099-.22-2.716 1.69.367L17.09 8.97l2.861.483-3.447 3.008 1.762.517M20.092 25.425v-6.162h1.046l-1.543-2.324-1.544 2.324h1.045v6.162h.996M16.949 26.314l-4.357-4.356.738-.737-2.734-.552.556 2.735.738-.738 4.355 4.35.704-.702M15.357 29.17H9.194v-1.045L6.87 29.663l2.324 1.548v-1.05h6.163v-.991M16.245 32.31l-4.355 4.36-.738-.742-.556 2.74 2.734-.558-.738-.737 4.357-4.36-.704-.703M19.096 33.906v6.158h-1.045l1.544 2.329 1.543-2.329h-1.046v-6.158h-.996M22.241 33.013l4.355 4.36-.736.737 2.734.557-.551-2.74-.743.743-4.356-4.36-.703.703M23.832 30.161h6.163v1.05l2.324-1.548-2.324-1.538v1.045h-6.163v.991M22.944 27.016l4.356-4.35.742.738.552-2.735-2.734.552.736.736-4.355 4.357.703.702" fill="#fff"/><path d="M23.364 34.829a6.38 6.38 0 0 0 1.567-8.887 6.378 6.378 0 1 0-10.449 7.319 6.375 6.375 0 0 0 8.882 1.568" fill="#fff"/></svg>