<?xml version="1.0" encoding="UTF-8" standalone="no"?>
<svg
   xmlns:dc="http://purl.org/dc/elements/1.1/"
   xmlns:cc="http://creativecommons.org/ns#"
   xmlns:rdf="http://www.w3.org/1999/02/22-rdf-syntax-ns#"
   xmlns:svg="http://www.w3.org/2000/svg"
   xmlns="http://www.w3.org/2000/svg"
   viewBox="0 0 40 43.75"
   height="43.75"
   width="40"
   xml:space="preserve"
   version="1.1"
   id="svg2"><metadata
     id="metadata8"><rdf:RDF><cc:Work
         rdf:about=""><dc:format>image/svg+xml</dc:format><dc:type
           rdf:resource="http://purl.org/dc/dcmitype/StillImage" /></cc:Work></rdf:RDF></metadata><defs
     id="defs6" /><g
     transform="matrix(1.25,0,0,-1.25,0,43.75)"
     id="g10"><g
       transform="scale(0.1,0.1)"
       id="g12"><path
         id="path14"
         style="fill:#087fbf;fill-opacity:1;fill-rule:nonzero;stroke:none"
         d="m 314.648,287.578 c 0,-33.598 -69.957,-60.816 -156.328,-60.816 -86.3317,0 -156.33172,27.218 -156.33172,60.816 l 0,-228.7889 c 0,-33.5899 70.00002,-60.77738 156.33172,-60.77738 86.371,0 156.328,27.18748 156.328,60.77738 l 0,228.7889" /><path
         id="path16"
         style="fill:none;stroke:#ffffff;stroke-width:4;stroke-linecap:butt;stroke-linejoin:miter;stroke-miterlimit:4;stroke-dasharray:none;stroke-opacity:1"
         d="m 314.648,287.578 c 0,-33.598 -69.957,-60.816 -156.328,-60.816 -86.3317,0 -156.33172,27.218 -156.33172,60.816 l 0,-228.7889 c 0,-33.5899 70.00002,-60.77738 156.33172,-60.77738 86.371,0 156.328,27.18748 156.328,60.77738 l 0,228.7889 z" /><path
         id="path18"
         style="fill:#087fbf;fill-opacity:1;fill-rule:nonzero;stroke:none"
         d="m 158.32,226.762 c 86.371,0 156.328,27.218 156.328,60.816 0,33.551 -69.957,60.781 -156.328,60.781 -86.3317,0 -156.33172,-27.23 -156.33172,-60.781 0,-33.598 70.00002,-60.816 156.33172,-60.816" /><path
         id="path20"
         style="fill:none;stroke:#ffffff;stroke-width:4;stroke-linecap:butt;stroke-linejoin:miter;stroke-miterlimit:4;stroke-dasharray:none;stroke-opacity:1"
         d="m 158.32,226.762 c 86.371,0 156.328,27.218 156.328,60.816 0,33.551 -69.957,60.781 -156.328,60.781 -86.3317,0 -156.33172,-27.23 -156.33172,-60.781 0,-33.598 70.00002,-60.816 156.33172,-60.816 z" /><path
         id="path22"
         style="fill:#ffffff;fill-opacity:1;fill-rule:nonzero;stroke:none"
         d="m 122.621,311.328 12.93,-19.34 -48.7893,-11.289 10.6172,8.871 -75.3906,12.891 18.9101,14.18 72.7736,-12.301 8.949,6.988" /><path
         id="path24"
         style="fill:#ffffff;fill-opacity:1;fill-rule:nonzero;stroke:none"
         d="m 191.328,264.41 -8.828,19.93 44.02,8.82 -7.61,-6.832 73.36,-12.539 -17.579,-14.098 -72.972,13.707 -10.391,-8.988" /><path
         id="path26"
         style="fill:#ffffff;fill-opacity:1;fill-rule:nonzero;stroke:none"
         d="m 167.27,321.91 49.289,13.52 0.589,-21.129 -12.347,2.34 -24.063,-19.961 -22.968,3.359 24.851,19.492 -15.351,2.379" /><path
         id="path28"
         style="fill:#ffffff;fill-opacity:1;fill-rule:nonzero;stroke:none"
         d="m 146.129,246.172 -46.9884,-8.793 -1.7617,21.723 13.5191,-2.93 25.821,22.066 22.89,-3.859 -27.578,-24.07 14.098,-4.137" /><path
         id="path30"
         style="fill:#ffffff;fill-opacity:1;fill-rule:nonzero;stroke:none"
         d="m 160.738,146.602 0,49.296 8.364,0 -12.34,18.59 -12.352,-18.59 8.36,0 0,-49.296 7.968,0" /><path
         id="path32"
         style="fill:#ffffff;fill-opacity:1;fill-rule:nonzero;stroke:none"
         d="m 135.59,139.488 -34.852,34.852 5.903,5.89 -21.8715,4.418 4.4493,-21.878 5.9023,5.902 34.8399,-34.801 5.629,5.617" /><path
         id="path34"
         style="fill:#ffffff;fill-opacity:1;fill-rule:nonzero;stroke:none"
         d="m 122.852,116.641 -49.3012,0 0,8.359 -18.5899,-12.301 18.5899,-12.39 0,8.402 49.3012,0 0,7.93" /><path
         id="path36"
         style="fill:#ffffff;fill-opacity:1;fill-rule:nonzero;stroke:none"
         d="m 129.961,91.5195 -34.8399,-34.8789 -5.9023,5.9375 -4.4493,-21.9179 21.8715,4.4609 -5.903,5.8984 34.852,34.8789 -5.629,5.6211" /><path
         id="path38"
         style="fill:#ffffff;fill-opacity:1;fill-rule:nonzero;stroke:none"
         d="m 152.77,78.75 0,-49.2617 -8.36,0 12.352,-18.6289 12.34,18.6289 -8.364,0 0,49.2617 -7.968,0" /><path
         id="path40"
         style="fill:#ffffff;fill-opacity:1;fill-rule:nonzero;stroke:none"
         d="m 177.93,85.8984 34.84,-34.8789 -5.891,-5.8984 21.871,-4.4609 -4.41,21.9179 -5.942,-5.9375 -34.847,34.8789 -5.621,-5.6211" /><path
         id="path42"
         style="fill:#ffffff;fill-opacity:1;fill-rule:nonzero;stroke:none"
         d="m 190.66,108.711 49.301,0 0,-8.402 18.59,12.39 -18.59,12.301 0,-8.359 -49.301,0 0,-7.93" /><path
         id="path44"
         style="fill:#ffffff;fill-opacity:1;fill-rule:nonzero;stroke:none"
         d="m 183.551,133.871 34.847,34.801 5.942,-5.902 4.41,21.878 -21.871,-4.418 5.891,-5.89 -34.84,-34.852 5.621,-5.617" /><path
         id="path46"
         style="fill:#ffffff;fill-opacity:1;fill-rule:nonzero;stroke:none"
         d="m 186.91,71.3711 c 23.09,16.168 28.711,47.9689 12.539,71.0899 -16.168,23.09 -48,28.668 -71.09,12.5 -23.05,-16.133 -28.6676,-47.973 -12.5,-71.0508 16.172,-23.0899 47.969,-28.711 71.051,-12.5391" /></g></g></svg>