<?xml version="1.0" encoding="UTF-8" standalone="no"?>
<svg
   xmlns:dc="http://purl.org/dc/elements/1.1/"
   xmlns:cc="http://creativecommons.org/ns#"
   xmlns:rdf="http://www.w3.org/1999/02/22-rdf-syntax-ns#"
   xmlns:svg="http://www.w3.org/2000/svg"
   xmlns="http://www.w3.org/2000/svg"
   xmlns:sodipodi="http://sodipodi.sourceforge.net/DTD/sodipodi-0.dtd"
   xmlns:inkscape="http://www.inkscape.org/namespaces/inkscape"
   viewBox="0 0 38.75 35"
   height="35"
   width="38.75"
   xml:space="preserve"
   version="1.1"
   id="svg2"
   inkscape:version="0.91 r13725"
   sodipodi:docname="generalapplicance.svg"><sodipodi:namedview
     pagecolor="#ffffff"
     bordercolor="#666666"
     borderopacity="1"
     objecttolerance="10"
     gridtolerance="10"
     guidetolerance="10"
     inkscape:pageopacity="0"
     inkscape:pageshadow="2"
     inkscape:window-width="448"
     inkscape:window-height="438"
     id="namedview21"
     showgrid="false"
     inkscape:zoom="6.6690214"
     inkscape:cx="19.475"
     inkscape:cy="17.31875"
     inkscape:window-x="0"
     inkscape:window-y="23"
     inkscape:window-maximized="0"
     inkscape:current-layer="svg2" /><metadata
     id="metadata8"><rdf:RDF><cc:Work
         rdf:about=""><dc:format>image/svg+xml</dc:format><dc:type
           rdf:resource="http://purl.org/dc/dcmitype/StillImage" /></cc:Work></rdf:RDF></metadata><defs
     id="defs6"><clipPath
       id="clipPath18"
       clipPathUnits="userSpaceOnUse"><path
         id="path20"
         d="M 0,3 0,283 310,283 310,3 0,3 Z"
         inkscape:connector-curvature="0" /></clipPath></defs><g
     transform="matrix(1.25,0,0,-1.25,0,35.375)"
     id="g10"><g
       transform="scale(0.1,0.1)"
       id="g12"><g
         id="g14"><g
           clip-path="url(#clipPath18)"
           id="g16"><path
             id="path22"
             style="fill:#087fbf;fill-opacity:1;fill-rule:nonzero;stroke:none"
             d="m 255.461,4.66797 51.133,48.75003 0,225 -51.133,-48.75 0,-225.00003"
             inkscape:connector-curvature="0" /><path
             id="path24"
             style="fill:none;stroke:#ffffff;stroke-width:4;stroke-linecap:butt;stroke-linejoin:miter;stroke-miterlimit:4;stroke-dasharray:none;stroke-opacity:1"
             d="m 255.461,4.66797 51.133,48.75003 0,225 -51.133,-48.75 0,-225.00003 z"
             inkscape:connector-curvature="0" /><path
             id="path26"
             style="fill:#087fbf;fill-opacity:1;fill-rule:nonzero;stroke:none"
             d="m 306.594,278.418 -51.133,-48.75 -249.461,0 65,48.75 235.594,0"
             inkscape:connector-curvature="0" /><path
             id="path28"
             style="fill:none;stroke:#ffffff;stroke-width:4;stroke-linecap:butt;stroke-linejoin:miter;stroke-miterlimit:4;stroke-dasharray:none;stroke-opacity:1"
             d="m 306.594,278.418 -51.133,-48.75 -249.461,0 65,48.75 235.594,0 z"
             inkscape:connector-curvature="0" /><path
             id="path30"
             style="fill:#087fbf;fill-opacity:1;fill-rule:nonzero;stroke:none"
             d="m 6.625,4.66797 248.836,0 0,225 -248.836,0 0,-225 z"
             inkscape:connector-curvature="0" /><path
             id="path32"
             style="fill:none;stroke:#ffffff;stroke-width:4;stroke-linecap:butt;stroke-linejoin:miter;stroke-miterlimit:4;stroke-dasharray:none;stroke-opacity:1"
             d="m 6.625,4.66797 248.836,0 0,225 -248.836,0 0,-225 z"
             inkscape:connector-curvature="0" /><path
             id="path34"
             style="fill:#ffffff;fill-opacity:1;fill-rule:nonzero;stroke:none"
             d="m 127.426,203.477 0,-161.3598 -9.141,0 13.418,-20.2227 13.418,20.2227 -9.043,0 0,161.3598"
             inkscape:connector-curvature="0" /><path
             id="path36"
             style="fill:#ffffff;fill-opacity:1;fill-rule:nonzero;stroke:none"
             d="m 58.168,203.477 0,-161.3598 -9.1407,0 13.418,-20.2227 13.3985,20.2227 -9.0235,0 0,161.3598"
             inkscape:connector-curvature="0" /><path
             id="path38"
             style="fill:#ffffff;fill-opacity:1;fill-rule:nonzero;stroke:none"
             d="m 193.645,203.477 0,-161.3598 -9.141,0 13.418,-20.2227 13.394,20.2227 -9.019,0 0,161.3598"
             inkscape:connector-curvature="0" /><path
             id="path40"
             style="fill:none;stroke:#ffffff;stroke-width:10;stroke-linecap:butt;stroke-linejoin:miter;stroke-miterlimit:4;stroke-dasharray:none;stroke-opacity:1"
             d="m 33.0508,144.031 198.305,0 0,63.3438 -198.305,0 0,-63.3438 z"
             inkscape:connector-curvature="0" /></g></g></g></g></svg>