<svg xmlns="http://www.w3.org/2000/svg" viewBox="0 0 46.25 46.25" height="46.25" width="46.25"><defs><clipPath id="a"><path d="M224.73 269.301l-10.351 23.508 51.793 10.351-8.981-8.082 86.329-14.726-20.711-16.563-85.821 16.09-12.258-10.578"/></clipPath><clipPath id="b"><path d="M210 310h140v-50H210v50z"/></clipPath><clipPath id="c"><path d="M196.41 336.988l58 15.903.711-24.879-14.531 2.769-28.289-23.48-27.031 3.91 29.218 23.008-18.078 2.769"/></clipPath><clipPath id="d"><path d="M180 360h80v-60h-80v60z"/></clipPath><clipPath id="e"><path d="M171.559 247.891l-55.27-10.352-2.07 25.551 15.902-3.442 30.391 25.973 26.91-4.57-32.461-28.321 16.598-4.839"/></clipPath><clipPath id="f"><path d="M110 290h80v-60h-80v60z"/></clipPath></defs><path d="M46.23 9.175c0 4.941-10.293 8.94-22.987 8.94-12.7 0-22.994-3.999-22.994-8.94v28.384c0 4.936 10.293 8.94 22.994 8.94 12.694 0 22.987-4.004 22.987-8.94V9.175" fill="#087fbf"/><path d="M46.23 9.175c0 4.941-10.293 8.94-22.987 8.94-12.7 0-22.994-3.999-22.994-8.94v28.384c0 4.936 10.293 8.94 22.994 8.94 12.694 0 22.987-4.004 22.987-8.94V9.175z" fill="none" stroke="#fff" stroke-width=".5"/><path d="M23.243 18.115c12.695 0 22.987-3.999 22.987-8.94 0-4.936-10.292-8.94-22.987-8.94C10.543.235.249 4.239.249 9.175c0 4.941 10.293 8.94 22.994 8.94" fill="#087fbf"/><path d="M23.243 18.115c12.695 0 22.987-3.999 22.987-8.94 0-4.936-10.292-8.94-22.987-8.94C10.543.235.249 4.239.249 9.175c0 4.941 10.293 8.94 22.994 8.94z" fill="none" stroke="#fff" stroke-width=".5"/><path d="M20.494 8.701L18.68 5.68l-.951-.26-1.123.865L5.99 4.473 2.627 6.89l.562.956 2.777-2.085 10.709 1.813 1.319-1.032 1.894 2.848.606-.689" fill="#231f20"/><g clip-path="url(#a)" transform="matrix(.13 0 0 -.13 0 46.25)"><g clip-path="url(#b)" fill="#231f20"><path d="M214.379 284.488l51.793 10.391 5.508 8.949-6.211 4.141-57.309-13.09 6.219-10.391"/><path d="M347.66 283.121l-80.121 15.199-10.348-4.14v-7.379l86.329-14.731 4.14 11.051"/></g></g><g clip-path="url(#c)" transform="matrix(.13 0 0 -.13 0 46.25)"><g clip-path="url(#d)"><path d="M199.18 330.781l57.3 15.899 4.141 5.511-4.801 5.508-66.332-18.64 9.692-8.278" fill="#231f20"/></g></g><g clip-path="url(#e)" transform="matrix(.13 0 0 -.13 0 46.25)"><g clip-path="url(#f)" fill="#231f20"><path d="M108.711 269.301v-13.789l21.41-4.141 30.391 25.969 26.91-4.57 7.617 10.351-35.937 6.918-30.391-25.551-20 4.813M172.93 254.801l-17.969-2.071v-8.281l16.598-4.84 9.652 8.282-8.281 6.91"/></g></g><path d="M24.551 4.127l7.25-1.988.09 3.11-1.817-.347-3.536 2.935-3.38-.488 3.653-2.876-2.26-.346M28.091 12.587L26.797 9.65l6.474-1.294-1.122 1.01 10.791 1.841-2.589 2.07-10.728-2.01-1.532 1.321M21.445 15.264l-6.909 1.294-.259-3.194 1.988.43 3.799-3.247 3.364.572-4.058 3.54 2.075.605M17.994 5.679l1.894 2.85-7.178 1.656 1.567-1.304L3.19 6.987l2.777-2.09 10.709 1.817 1.319-1.035" fill="#fff"/><path d="M13.335 39.444h6.534l8.256-16.895h5.171" fill="none" stroke="#231f20" stroke-width="1.78125"/><path d="M31.616 19.521v5.997l3.614-2.882-3.614-3.114M14.365 42.529v-5.991l-3.609 2.876 3.61 3.115" fill="#231f20"/><path d="M14.375 43.007v-5.996l-3.609 2.882 3.609 3.114M31.783 19.922v5.99l3.612-2.874-3.612-3.116" fill="#fff"/><path d="M14.365 25.654v-5.991l-3.609 2.876 3.61 3.115" fill="#231f20"/><path d="M14.375 26.132v-5.996l-3.609 2.882 3.609 3.114" fill="#fff"/><path d="M33.413 39.506h-5.616L19.38 22.53h-5.284" fill="none" stroke="#231f20" stroke-width="1.78125"/><path d="M34.101 39.946h-6.196L19.487 22.97h-6.416" fill="none" stroke="#fff" stroke-width="1.78125"/><path d="M13.105 39.922h5.991l8.34-16.895h6.49" fill="none" stroke="#fff" stroke-width="1.78125"/><path d="M31.616 36.475v5.996l3.614-2.881-3.614-3.115" fill="#231f20"/><path d="M31.783 36.875v5.991l3.612-2.876-3.612-3.115" fill="#fff"/></svg>