<?xml version="1.0" encoding="UTF-8" standalone="no"?>
<svg
   xmlns:dc="http://purl.org/dc/elements/1.1/"
   xmlns:cc="http://creativecommons.org/ns#"
   xmlns:rdf="http://www.w3.org/1999/02/22-rdf-syntax-ns#"
   xmlns:svg="http://www.w3.org/2000/svg"
   xmlns="http://www.w3.org/2000/svg"
   viewBox="0 0 46.450001 46.762501"
   height="46.762501"
   width="46.450001"
   xml:space="preserve"
   version="1.1"
   id="svg2"><metadata
     id="metadata8"><rdf:RDF><cc:Work
         rdf:about=""><dc:format>image/svg+xml</dc:format><dc:type
           rdf:resource="http://purl.org/dc/dcmitype/StillImage" /></cc:Work></rdf:RDF></metadata><defs
     id="defs6"><clipPath
       id="clipPath18"
       clipPathUnits="userSpaceOnUse"><path
         id="path20"
         d="M 0,4 0,374 370,374 370,4 0,4 Z" /></clipPath><clipPath
       id="clipPath36"
       clipPathUnits="userSpaceOnUse"><path
         id="path38"
         d="m 224.727,273.313 -10.364,23.484 51.797,10.351 -8.98,-8.054 86.328,-14.739 -20.715,-16.57 -85.813,16.102 -12.253,-10.574" /></clipPath><clipPath
       id="clipPath48"
       clipPathUnits="userSpaceOnUse"><path
         id="path50"
         d="m 196.406,340.996 58.02,15.879 0.679,-24.863 -14.5,2.765 -28.308,-23.488 -27.024,3.938 29.231,22.976 -18.098,2.793" /></clipPath><clipPath
       id="clipPath58"
       clipPathUnits="userSpaceOnUse"><path
         id="path60"
         d="m 171.543,251.895 -55.242,-10.352 -2.071,25.547 15.875,-3.445 30.415,25.964 26.914,-4.558 -32.461,-28.313 16.57,-4.843" /></clipPath><clipPath
       id="clipPath70"
       clipPathUnits="userSpaceOnUse"><path
         id="path72"
         d="M 0,4 370,4 370,374 0,374 0,4 Z" /></clipPath></defs><g
     transform="matrix(1.25,0,0,-1.25,0,46.7625)"
     id="g10"><g
       transform="scale(0.1,0.1)"
       id="g12"><g
         id="g14"><g
           clip-path="url(#clipPath18)"
           id="g16"><path
             id="path22"
             style="fill:#087fbf;fill-opacity:1;fill-rule:nonzero;stroke:none"
             d="m 369.855,300.586 c 0,-39.5 -82.343,-71.523 -183.925,-71.523 C 84.3477,229.063 2,261.086 2,300.586 L 2,73.5273 C 2,34.0234 84.3477,1.99219 185.93,1.99219 c 101.582,0 183.925,32.03121 183.925,71.53511 l 0,227.0587" /><path
             id="path24"
             style="fill:none;stroke:#ffffff;stroke-width:4;stroke-linecap:butt;stroke-linejoin:miter;stroke-miterlimit:4;stroke-dasharray:none;stroke-opacity:1"
             d="m 369.855,300.586 c 0,-39.5 -82.343,-71.523 -183.925,-71.523 C 84.3477,229.063 2,261.086 2,300.586 L 2,73.5273 C 2,34.0234 84.3477,1.99219 185.93,1.99219 c 101.582,0 183.925,32.03121 183.925,71.53511 l 0,227.0587 z" /><path
             id="path26"
             style="fill:#087fbf;fill-opacity:1;fill-rule:nonzero;stroke:none"
             d="m 185.93,229.063 c 101.582,0 183.925,32.023 183.925,71.523 0,39.512 -82.343,71.523 -183.925,71.523 C 84.3477,372.109 2,340.098 2,300.586 c 0,-39.5 82.3477,-71.523 183.93,-71.523" /><path
             id="path28"
             style="fill:none;stroke:#ffffff;stroke-width:4;stroke-linecap:butt;stroke-linejoin:miter;stroke-miterlimit:4;stroke-dasharray:none;stroke-opacity:1"
             d="m 185.93,229.063 c 101.582,0 183.925,32.023 183.925,71.523 0,39.512 -82.343,71.523 -183.925,71.523 C 84.3477,372.109 2,340.098 2,300.586 c 0,-39.5 82.3477,-71.523 183.93,-71.523 z" /><path
             id="path30"
             style="fill:#231f20;fill-opacity:1;fill-rule:nonzero;stroke:none"
             d="m 163.945,304.395 -14.504,24.16 -7.586,2.07 -8.984,-6.895 -84.9413,14.493 -26.9336,-19.336 4.4922,-7.676 22.2656,16.691 85.6371,-14.504 10.535,8.254 15.183,-22.785 4.836,5.528" /></g></g><g
         id="g32"><g
           clip-path="url(#clipPath36)"
           id="g34"><path
             id="path40"
             style="fill:#231f20;fill-opacity:1;fill-rule:nonzero;stroke:none"
             d="m 214.363,288.496 51.797,10.371 5.528,8.965 -6.219,4.152 -57.317,-13.117 6.211,-10.371" /><path
             id="path42"
             style="fill:#231f20;fill-opacity:1;fill-rule:nonzero;stroke:none"
             d="m 347.656,287.129 -80.117,15.187 -10.351,-4.14 -0.008,-7.375 86.328,-14.727 4.148,11.055" /></g></g><g
         id="g44"><g
           clip-path="url(#clipPath48)"
           id="g46"><path
             id="path52"
             style="fill:#231f20;fill-opacity:1;fill-rule:nonzero;stroke:none"
             d="m 199.172,334.777 57.32,15.887 4.145,5.52 -4.836,5.527 -66.297,-18.645 9.668,-8.289" /></g></g><g
         id="g54"><g
           clip-path="url(#clipPath58)"
           id="g56"><path
             id="path62"
             style="fill:#231f20;fill-opacity:1;fill-rule:nonzero;stroke:none"
             d="m 108.699,273.313 0,-13.821 21.406,-4.14 30.415,25.976 26.914,-4.57 7.593,10.363 -35.918,6.902 -30.379,-25.546 -20.031,4.836" /><path
             id="path64"
             style="fill:#231f20;fill-opacity:1;fill-rule:nonzero;stroke:none"
             d="m 172.93,258.809 -17.957,-2.071 0,-8.289 16.57,-4.836 9.668,8.282 -8.281,6.914" /></g></g><g
         id="g66"><g
           clip-path="url(#clipPath70)"
           id="g68"><path
             id="path74"
             style="fill:#ffffff;fill-opacity:1;fill-rule:nonzero;stroke:none"
             d="m 196.406,340.996 58.02,15.879 0.679,-24.863 -14.5,2.765 -28.308,-23.488 -27.024,3.938 29.231,22.976 -18.098,2.793" /><path
             id="path76"
             style="fill:#ffffff;fill-opacity:1;fill-rule:nonzero;stroke:none"
             d="m 224.727,273.313 -10.364,23.484 51.797,10.351 -8.98,-8.054 86.328,-14.739 -20.715,-16.57 -85.813,16.102 -12.253,-10.574" /><path
             id="path78"
             style="fill:#ffffff;fill-opacity:1;fill-rule:nonzero;stroke:none"
             d="m 171.543,251.895 -55.242,-10.352 -2.071,25.547 15.875,-3.445 30.415,25.964 26.914,-4.558 -32.461,-28.313 16.57,-4.843" /><path
             id="path80"
             style="fill:#ffffff;fill-opacity:1;fill-rule:nonzero;stroke:none"
             d="m 143.926,328.555 15.183,-22.793 -57.421,-13.262 12.55,10.449 -88.7497,15.168 22.2656,16.688 85.6371,-14.5 10.535,8.25" /><path
             id="path82"
             style="fill:none;stroke:#231f20;stroke-width:14.25;stroke-linecap:butt;stroke-linejoin:miter;stroke-miterlimit:4;stroke-dasharray:none;stroke-opacity:1"
             d="m 106.672,58.4375 52.254,0 66.086,135.1565 41.336,0" /><path
             id="path84"
             style="fill:#231f20;fill-opacity:1;fill-rule:nonzero;stroke:none"
             d="m 252.949,217.813 0,-47.95 28.899,23.028 -28.899,24.922" /><path
             id="path86"
             style="fill:#231f20;fill-opacity:1;fill-rule:nonzero;stroke:none"
             d="m 114.934,33.75 0,47.9492 L 86.043,58.6719 114.934,33.75" /><path
             id="path88"
             style="fill:#ffffff;fill-opacity:1;fill-rule:nonzero;stroke:none"
             d="m 115.012,29.9414 0,47.9492 L 86.1211,54.8633 115.012,29.9414" /><path
             id="path90"
             style="fill:#ffffff;fill-opacity:1;fill-rule:nonzero;stroke:none"
             d="m 254.277,214.629 0,-47.949 28.887,23.027 -28.887,24.922" /><path
             id="path92"
             style="fill:#231f20;fill-opacity:1;fill-rule:nonzero;stroke:none"
             d="m 114.934,168.75 0,47.949 -28.891,-23.027 28.891,-24.922" /><path
             id="path94"
             style="fill:#ffffff;fill-opacity:1;fill-rule:nonzero;stroke:none"
             d="m 115.012,164.941 0,47.95 -28.8909,-23.028 28.8909,-24.922" /><path
             id="path96"
             style="fill:none;stroke:#231f20;stroke-width:14.25;stroke-linecap:butt;stroke-linejoin:miter;stroke-miterlimit:4;stroke-dasharray:none;stroke-opacity:1"
             d="m 267.305,57.9297 -44.922,0 -67.332,135.8203 -42.278,0" /><path
             id="path98"
             style="fill:none;stroke:#ffffff;stroke-width:14.25;stroke-linecap:butt;stroke-linejoin:miter;stroke-miterlimit:4;stroke-dasharray:none;stroke-opacity:1"
             d="m 272.832,54.4258 -49.602,0 -67.324,135.8082 -51.355,0" /><path
             id="path100"
             style="fill:none;stroke:#ffffff;stroke-width:14.25;stroke-linecap:butt;stroke-linejoin:miter;stroke-miterlimit:4;stroke-dasharray:none;stroke-opacity:1"
             d="m 104.863,54.6289 47.918,0 66.711,135.1561 51.922,0" /><path
             id="path102"
             style="fill:#231f20;fill-opacity:1;fill-rule:nonzero;stroke:none"
             d="m 252.949,82.1875 0,-47.9492 28.899,23.0273 -28.899,24.9219" /><path
             id="path104"
             style="fill:#ffffff;fill-opacity:1;fill-rule:nonzero;stroke:none"
             d="m 254.277,79.0039 0,-47.9492 28.887,23.0273 -28.887,24.9219" /></g></g></g></g></svg>