<?xml version="1.0" encoding="UTF-8" standalone="no"?>
<svg
   xmlns:dc="http://purl.org/dc/elements/1.1/"
   xmlns:cc="http://creativecommons.org/ns#"
   xmlns:rdf="http://www.w3.org/1999/02/22-rdf-syntax-ns#"
   xmlns:svg="http://www.w3.org/2000/svg"
   xmlns="http://www.w3.org/2000/svg"
   viewBox="0 0 46.25 46.25"
   height="46.25"
   width="46.25"
   xml:space="preserve"
   version="1.1"
   id="svg2"><metadata
     id="metadata8"><rdf:RDF><cc:Work
         rdf:about=""><dc:format>image/svg+xml</dc:format><dc:type
           rdf:resource="http://purl.org/dc/dcmitype/StillImage" /></cc:Work></rdf:RDF></metadata><defs
     id="defs6"><clipPath
       id="clipPath28"
       clipPathUnits="userSpaceOnUse"><path
         id="path30"
         d="m 224.73,269.301 -10.351,23.508 51.793,10.351 -8.981,-8.082 86.329,-14.726 -20.711,-16.563 -85.821,16.09 -12.258,-10.578" /></clipPath><clipPath
       id="clipPath34"
       clipPathUnits="userSpaceOnUse"><path
         id="path36"
         d="m 210,310 140,0 0,-50 -140,0 0,50 z" /></clipPath><clipPath
       id="clipPath46"
       clipPathUnits="userSpaceOnUse"><path
         id="path48"
         d="m 196.41,336.988 58,15.903 0.711,-24.879 -14.531,2.769 -28.289,-23.48 -27.031,3.91 29.218,23.008 -18.078,2.769" /></clipPath><clipPath
       id="clipPath52"
       clipPathUnits="userSpaceOnUse"><path
         id="path54"
         d="m 180,360 80,0 0,-60 -80,0 0,60 z" /></clipPath><clipPath
       id="clipPath62"
       clipPathUnits="userSpaceOnUse"><path
         id="path64"
         d="m 171.559,247.891 -55.27,-10.352 -2.07,25.551 15.902,-3.442 30.391,25.973 26.91,-4.57 -32.461,-28.321 16.598,-4.839" /></clipPath><clipPath
       id="clipPath68"
       clipPathUnits="userSpaceOnUse"><path
         id="path70"
         d="m 110,290 80,0 0,-60 -80,0 0,60 z" /></clipPath></defs><g
     transform="matrix(1.25,0,0,-1.25,0,46.25)"
     id="g10"><g
       transform="scale(0.1,0.1)"
       id="g12"><path
         id="path14"
         style="fill:#087fbf;fill-opacity:1;fill-rule:nonzero;stroke:none"
         d="m 369.84,296.602 c 0,-39.532 -82.34,-71.524 -183.899,-71.524 -101.6012,0 -183.95272,31.992 -183.95272,71.524 l 0,-227.0707 c 0,-39.4922 82.35152,-71.51958 183.95272,-71.51958 101.559,0 183.899,32.02738 183.899,71.51958 l 0,227.0707" /><path
         id="path16"
         style="fill:none;stroke:#ffffff;stroke-width:4;stroke-linecap:butt;stroke-linejoin:miter;stroke-miterlimit:4;stroke-dasharray:none;stroke-opacity:1"
         d="m 369.84,296.602 c 0,-39.532 -82.34,-71.524 -183.899,-71.524 -101.6012,0 -183.95272,31.992 -183.95272,71.524 l 0,-227.0707 c 0,-39.4922 82.35152,-71.51958 183.95272,-71.51958 101.559,0 183.899,32.02738 183.899,71.51958 l 0,227.0707 z" /><path
         id="path18"
         style="fill:#087fbf;fill-opacity:1;fill-rule:nonzero;stroke:none"
         d="m 185.941,225.078 c 101.559,0 183.899,31.992 183.899,71.524 0,39.488 -82.34,71.519 -183.899,71.519 -101.6012,0 -183.95272,-32.031 -183.95272,-71.519 0,-39.532 82.35152,-71.524 183.95272,-71.524" /><path
         id="path20"
         style="fill:none;stroke:#ffffff;stroke-width:4;stroke-linecap:butt;stroke-linejoin:miter;stroke-miterlimit:4;stroke-dasharray:none;stroke-opacity:1"
         d="m 185.941,225.078 c 101.559,0 183.899,31.992 183.899,71.524 0,39.488 -82.34,71.519 -183.899,71.519 -101.6012,0 -183.95272,-32.031 -183.95272,-71.519 0,-39.532 82.35152,-71.524 183.95272,-71.524 z" /><path
         id="path22"
         style="fill:#231f20;fill-opacity:1;fill-rule:nonzero;stroke:none"
         d="m 163.949,300.391 -14.5,24.179 -7.609,2.071 -8.988,-6.911 -84.9223,14.489 -26.9102,-19.34 4.4922,-7.649 22.2188,16.68 85.6675,-14.5 10.551,8.25 15.153,-22.781 4.847,5.512" /><g
         id="g24"><g
           clip-path="url(#clipPath28)"
           id="g26"><g
             clip-path="url(#clipPath34)"
             id="g32"><path
               id="path38"
               style="fill:#231f20;fill-opacity:1;fill-rule:nonzero;stroke:none"
               d="m 214.379,284.488 51.793,10.391 5.508,8.949 -6.211,4.141 -57.309,-13.09 6.219,-10.391" /><path
               id="path40"
               style="fill:#231f20;fill-opacity:1;fill-rule:nonzero;stroke:none"
               d="m 347.66,283.121 -80.121,15.199 -10.348,-4.14 0,-7.379 86.329,-14.731 4.14,11.051" /></g></g></g><g
         id="g42"><g
           clip-path="url(#clipPath46)"
           id="g44"><g
             clip-path="url(#clipPath52)"
             id="g50"><path
               id="path56"
               style="fill:#231f20;fill-opacity:1;fill-rule:nonzero;stroke:none"
               d="m 199.18,330.781 57.3,15.899 4.141,5.511 -4.801,5.508 -66.332,-18.64 9.692,-8.278" /></g></g></g><g
         id="g58"><g
           clip-path="url(#clipPath62)"
           id="g60"><g
             clip-path="url(#clipPath68)"
             id="g66"><path
               id="path72"
               style="fill:#231f20;fill-opacity:1;fill-rule:nonzero;stroke:none"
               d="m 108.711,269.301 0,-13.789 21.41,-4.141 30.391,25.969 26.91,-4.57 7.617,10.351 -35.937,6.918 -30.391,-25.551 -20,4.813" /><path
               id="path74"
               style="fill:#231f20;fill-opacity:1;fill-rule:nonzero;stroke:none"
               d="m 172.93,254.801 -17.969,-2.071 0,-8.281 16.598,-4.84 9.652,8.282 -8.281,6.91" /></g></g></g><path
         id="path76"
         style="fill:#ffffff;fill-opacity:1;fill-rule:nonzero;stroke:none"
         d="m 196.41,336.988 58,15.903 0.711,-24.879 -14.531,2.769 -28.289,-23.48 -27.031,3.91 29.218,23.008 -18.078,2.769" /><path
         id="path78"
         style="fill:#ffffff;fill-opacity:1;fill-rule:nonzero;stroke:none"
         d="m 224.73,269.301 -10.351,23.508 51.793,10.351 -8.981,-8.082 86.329,-14.726 -20.711,-16.563 -85.821,16.09 -12.258,-10.578" /><path
         id="path80"
         style="fill:#ffffff;fill-opacity:1;fill-rule:nonzero;stroke:none"
         d="m 171.559,247.891 -55.27,-10.352 -2.07,25.551 15.902,-3.442 30.391,25.973 26.91,-4.57 -32.461,-28.321 16.598,-4.839" /><path
         id="path82"
         style="fill:#ffffff;fill-opacity:1;fill-rule:nonzero;stroke:none"
         d="m 143.949,324.57 15.153,-22.808 -57.422,-13.242 12.539,10.429 -88.7073,15.153 22.2188,16.718 85.6675,-14.531 10.551,8.281" /><path
         id="path84"
         style="fill:none;stroke:#231f20;stroke-width:14.25;stroke-linecap:butt;stroke-linejoin:miter;stroke-miterlimit:4;stroke-dasharray:none;stroke-opacity:1"
         d="m 106.68,54.4492 52.269,0 66.051,135.1598 41.371,0" /><path
         id="path86"
         style="fill:#231f20;fill-opacity:1;fill-rule:nonzero;stroke:none"
         d="m 252.93,213.828 0,-47.969 28.91,23.051 -28.91,24.918" /><path
         id="path88"
         style="fill:#231f20;fill-opacity:1;fill-rule:nonzero;stroke:none"
         d="m 114.922,29.7695 0,47.9297 L 86.0508,54.6914 114.922,29.7695" /><path
         id="path90"
         style="fill:#ffffff;fill-opacity:1;fill-rule:nonzero;stroke:none"
         d="M 115,25.9414 115,73.9102 86.1289,50.8594 115,25.9414" /><path
         id="path92"
         style="fill:#ffffff;fill-opacity:1;fill-rule:nonzero;stroke:none"
         d="m 254.262,210.621 0,-47.922 28.898,23 -28.898,24.922" /><path
         id="path94"
         style="fill:#231f20;fill-opacity:1;fill-rule:nonzero;stroke:none"
         d="m 114.922,164.77 0,47.929 -28.8712,-23.008 28.8712,-24.921" /><path
         id="path96"
         style="fill:#ffffff;fill-opacity:1;fill-rule:nonzero;stroke:none"
         d="M 115,160.941 115,208.91 86.1289,185.859 115,160.941" /><path
         id="path98"
         style="fill:none;stroke:#231f20;stroke-width:14.25;stroke-linecap:butt;stroke-linejoin:miter;stroke-miterlimit:4;stroke-dasharray:none;stroke-opacity:1"
         d="m 267.301,53.9492 -44.922,0 -67.34,135.8208 -42.269,0" /><path
         id="path100"
         style="fill:none;stroke:#ffffff;stroke-width:14.25;stroke-linecap:butt;stroke-linejoin:miter;stroke-miterlimit:4;stroke-dasharray:none;stroke-opacity:1"
         d="m 272.809,50.4297 -49.571,0 -67.34,135.8203 -51.328,0" /><path
         id="path102"
         style="fill:none;stroke:#ffffff;stroke-width:14.25;stroke-linecap:butt;stroke-linejoin:miter;stroke-miterlimit:4;stroke-dasharray:none;stroke-opacity:1"
         d="m 104.84,50.6211 47.93,0 66.718,135.1599 51.922,0" /><path
         id="path104"
         style="fill:#231f20;fill-opacity:1;fill-rule:nonzero;stroke:none"
         d="m 252.93,78.1992 0,-47.9687 28.91,23.0508 -28.91,24.9179" /><path
         id="path106"
         style="fill:#ffffff;fill-opacity:1;fill-rule:nonzero;stroke:none"
         d="m 254.262,75 0,-47.9297 L 283.16,50.0781 254.262,75" /></g></g></svg>