<?xml version="1.0" encoding="UTF-8" standalone="no"?>
<svg
   xmlns:dc="http://purl.org/dc/elements/1.1/"
   xmlns:cc="http://creativecommons.org/ns#"
   xmlns:rdf="http://www.w3.org/1999/02/22-rdf-syntax-ns#"
   xmlns:svg="http://www.w3.org/2000/svg"
   xmlns="http://www.w3.org/2000/svg"
   viewBox="0 0 63.775002 46.3125"
   height="46.3125"
   width="63.775002"
   xml:space="preserve"
   version="1.1"
   id="svg2"><metadata
     id="metadata8"><rdf:RDF><cc:Work
         rdf:about=""><dc:format>image/svg+xml</dc:format><dc:type
           rdf:resource="http://purl.org/dc/dcmitype/StillImage" /></cc:Work></rdf:RDF></metadata><defs
     id="defs6" /><g
     transform="matrix(1.25,0,0,-1.25,0,46.3125)"
     id="g10"><g
       transform="scale(0.1,0.1)"
       id="g12"><path
         id="path14"
         style="fill:#02709f;fill-opacity:1;fill-rule:nonzero;stroke:none"
         d="m 143.574,195.82 223.203,0 0,34.0313 -223.203,0 0,-34.0313 z" /><path
         id="path16"
         style="fill:none;stroke:#ffffff;stroke-width:3.99993992;stroke-linecap:butt;stroke-linejoin:miter;stroke-miterlimit:4;stroke-dasharray:none;stroke-opacity:1"
         d="m 143.574,195.82 223.203,0 0,34.0313 -223.203,0 0,-34.0313 z" /><path
         id="path18"
         style="fill:#02709f;fill-opacity:1;fill-rule:nonzero;stroke:none"
         d="m 367.109,229.852 c 0,49.961 -50.07,92.328 -111.828,92.328 -61.765,0 -111.836,-42.367 -111.836,-92.328 l 223.664,0" /><path
         id="path20"
         style="fill:none;stroke:#ffffff;stroke-width:3.99993992;stroke-linecap:butt;stroke-linejoin:miter;stroke-miterlimit:4;stroke-dasharray:none;stroke-opacity:1"
         d="m 367.109,229.852 c 0,49.961 -50.07,92.328 -111.828,92.328 -61.765,0 -111.836,-42.367 -111.836,-92.328 l 223.664,0 z" /><path
         id="path22"
         style="fill:#02709f;fill-opacity:1;fill-rule:nonzero;stroke:none"
         d="m 256.492,370.137 0,-52.434" /><path
         id="path24"
         style="fill:none;stroke:#ffffff;stroke-width:3.99993992;stroke-linecap:butt;stroke-linejoin:miter;stroke-miterlimit:4;stroke-dasharray:none;stroke-opacity:1"
         d="m 256.492,370.137 0,-52.434" /><path
         id="path26"
         style="fill:#02709f;fill-opacity:1;fill-rule:nonzero;stroke:none"
         d="m 300.715,338.164 c -1.621,-2.441 -20.344,-2.394 -23.637,0 -4.488,3.262 -17.129,3.262 -20.39,-0.809 l 0,25.672 c 3.261,4.071 15.902,4.071 20.39,0.821 3.293,-2.403 22.016,-2.453 23.637,0 l 0,-25.684" /><path
         id="path28"
         style="fill:none;stroke:#ffffff;stroke-width:3.99993992;stroke-linecap:butt;stroke-linejoin:miter;stroke-miterlimit:4;stroke-dasharray:none;stroke-opacity:1"
         d="m 300.715,338.164 c -1.621,-2.441 -20.344,-2.394 -23.637,0 -4.488,3.262 -17.129,3.262 -20.39,-0.809 l 0,25.672 c 3.261,4.071 15.902,4.071 20.39,0.821 3.293,-2.403 22.016,-2.453 23.637,0 l 0,-25.684 z" /><path
         id="path30"
         style="fill:#02709f;fill-opacity:1;fill-rule:nonzero;stroke:none"
         d="m 2,2.00391 506.176,0 0,193.816 -506.176,0 0,-193.816 z" /><path
         id="path32"
         style="fill:none;stroke:#ffffff;stroke-width:3.99993992;stroke-linecap:butt;stroke-linejoin:miter;stroke-miterlimit:4;stroke-dasharray:none;stroke-opacity:1"
         d="m 2,2.00391 506.176,0 0,193.816 -506.176,0 0,-193.816 z" /><path
         id="path34"
         style="fill:#02709f;fill-opacity:1;fill-rule:nonzero;stroke:none"
         d="m 317.063,3.66016 0.132,64.19144 c 0,29.0507 -27.632,52.6684 -61.882,52.6684 -34.25,0 -62.012,-23.5552 -62.012,-52.6098 l 0,-64.12114" /><path
         id="path36"
         style="fill:none;stroke:#ffffff;stroke-width:3.99993992;stroke-linecap:butt;stroke-linejoin:miter;stroke-miterlimit:4;stroke-dasharray:none;stroke-opacity:1"
         d="m 317.063,3.66016 0.132,64.19144 c 0,29.0507 -27.632,52.6684 -61.882,52.6684 -34.25,0 -62.012,-23.5552 -62.012,-52.6098 l 0,-64.12114" /><path
         id="path38"
         style="fill:#02709f;fill-opacity:1;fill-rule:nonzero;stroke:none"
         d="m 24.5977,138.293 32.9922,0 0,30.75 -32.9922,0 0,-30.75 z" /><path
         id="path40"
         style="fill:none;stroke:#ffffff;stroke-width:3.99993992;stroke-linecap:butt;stroke-linejoin:miter;stroke-miterlimit:4;stroke-dasharray:none;stroke-opacity:1"
         d="m 24.5977,138.293 32.9922,0 0,30.75 -32.9922,0 0,-30.75 z" /><path
         id="path42"
         style="fill:#02709f;fill-opacity:1;fill-rule:nonzero;stroke:none"
         d="m 24.5977,82.9766 32.9922,0 0,30.7539 -32.9922,0 0,-30.7539 z" /><path
         id="path44"
         style="fill:none;stroke:#ffffff;stroke-width:3.99993992;stroke-linecap:butt;stroke-linejoin:miter;stroke-miterlimit:4;stroke-dasharray:none;stroke-opacity:1"
         d="m 24.5977,82.9766 32.9922,0 0,30.7539 -32.9922,0 0,-30.7539 z" /><path
         id="path46"
         style="fill:#02709f;fill-opacity:1;fill-rule:nonzero;stroke:none"
         d="m 24.5977,27.6563 32.9922,0 0,30.75 -32.9922,0 0,-30.75 z" /><path
         id="path48"
         style="fill:none;stroke:#ffffff;stroke-width:3.99993992;stroke-linecap:butt;stroke-linejoin:miter;stroke-miterlimit:4;stroke-dasharray:none;stroke-opacity:1"
         d="m 24.5977,27.6563 32.9922,0 0,30.75 -32.9922,0 0,-30.75 z" /><path
         id="path50"
         style="fill:#02709f;fill-opacity:1;fill-rule:nonzero;stroke:none"
         d="m 73.4492,138.293 32.9961,0 0,30.75 -32.9961,0 0,-30.75 z" /><path
         id="path52"
         style="fill:none;stroke:#ffffff;stroke-width:3.99993992;stroke-linecap:butt;stroke-linejoin:miter;stroke-miterlimit:4;stroke-dasharray:none;stroke-opacity:1"
         d="m 73.4492,138.293 32.9961,0 0,30.75 -32.9961,0 0,-30.75 z" /><path
         id="path54"
         style="fill:#02709f;fill-opacity:1;fill-rule:nonzero;stroke:none"
         d="m 73.4492,82.9766 32.9961,0 0,30.7539 -32.9961,0 0,-30.7539 z" /><path
         id="path56"
         style="fill:none;stroke:#ffffff;stroke-width:3.99993992;stroke-linecap:butt;stroke-linejoin:miter;stroke-miterlimit:4;stroke-dasharray:none;stroke-opacity:1"
         d="m 73.4492,82.9766 32.9961,0 0,30.7539 -32.9961,0 0,-30.7539 z" /><path
         id="path58"
         style="fill:#02709f;fill-opacity:1;fill-rule:nonzero;stroke:none"
         d="m 73.4492,27.6563 32.9961,0 0,30.75 -32.9961,0 0,-30.75 z" /><path
         id="path60"
         style="fill:none;stroke:#ffffff;stroke-width:3.99993992;stroke-linecap:butt;stroke-linejoin:miter;stroke-miterlimit:4;stroke-dasharray:none;stroke-opacity:1"
         d="m 73.4492,27.6563 32.9961,0 0,30.75 -32.9961,0 0,-30.75 z" /><path
         id="path62"
         style="fill:#02709f;fill-opacity:1;fill-rule:nonzero;stroke:none"
         d="m 452.59,138.293 32.9844,0 0,30.75 -32.9844,0 0,-30.75 z" /><path
         id="path64"
         style="fill:none;stroke:#ffffff;stroke-width:3.99993992;stroke-linecap:butt;stroke-linejoin:miter;stroke-miterlimit:4;stroke-dasharray:none;stroke-opacity:1"
         d="m 452.59,138.293 32.9844,0 0,30.75 -32.9844,0 0,-30.75 z" /><path
         id="path66"
         style="fill:#02709f;fill-opacity:1;fill-rule:nonzero;stroke:none"
         d="m 452.59,82.9766 32.9844,0 0,30.7539 -32.9844,0 0,-30.7539 z" /><path
         id="path68"
         style="fill:none;stroke:#ffffff;stroke-width:3.99993992;stroke-linecap:butt;stroke-linejoin:miter;stroke-miterlimit:4;stroke-dasharray:none;stroke-opacity:1"
         d="m 452.59,82.9766 32.9844,0 0,30.7539 -32.9844,0 0,-30.7539 z" /><path
         id="path70"
         style="fill:#02709f;fill-opacity:1;fill-rule:nonzero;stroke:none"
         d="m 452.59,27.6563 32.9844,0 0,30.75 -32.9844,0 0,-30.75 z" /><path
         id="path72"
         style="fill:none;stroke:#ffffff;stroke-width:3.99993992;stroke-linecap:butt;stroke-linejoin:miter;stroke-miterlimit:4;stroke-dasharray:none;stroke-opacity:1"
         d="m 452.59,27.6563 32.9844,0 0,30.75 -32.9844,0 0,-30.75 z" /><path
         id="path74"
         style="fill:#02709f;fill-opacity:1;fill-rule:nonzero;stroke:none"
         d="m 403.73,138.293 33,0 0,30.75 -33,0 0,-30.75 z" /><path
         id="path76"
         style="fill:none;stroke:#ffffff;stroke-width:3.99993992;stroke-linecap:butt;stroke-linejoin:miter;stroke-miterlimit:4;stroke-dasharray:none;stroke-opacity:1"
         d="m 403.73,138.293 33,0 0,30.75 -33,0 0,-30.75 z" /><path
         id="path78"
         style="fill:#02709f;fill-opacity:1;fill-rule:nonzero;stroke:none"
         d="m 403.73,82.9766 33,0 0,30.7539 -33,0 0,-30.7539 z" /><path
         id="path80"
         style="fill:none;stroke:#ffffff;stroke-width:3.99993992;stroke-linecap:butt;stroke-linejoin:miter;stroke-miterlimit:4;stroke-dasharray:none;stroke-opacity:1"
         d="m 403.73,82.9766 33,0 0,30.7539 -33,0 0,-30.7539 z" /><path
         id="path82"
         style="fill:#02709f;fill-opacity:1;fill-rule:nonzero;stroke:none"
         d="m 403.73,27.6563 33,0 0,30.75 -33,0 0,-30.75 z" /><path
         id="path84"
         style="fill:none;stroke:#ffffff;stroke-width:3.99993992;stroke-linecap:butt;stroke-linejoin:miter;stroke-miterlimit:4;stroke-dasharray:none;stroke-opacity:1"
         d="m 403.73,27.6563 33,0 0,30.75 -33,0 0,-30.75 z" /><path
         id="path86"
         style="fill:#02709f;fill-opacity:1;fill-rule:nonzero;stroke:none"
         d="m 375.461,133.477 -118.996,38.996 -118.992,-38.996 237.988,0" /><path
         id="path88"
         style="fill:none;stroke:#ffffff;stroke-width:3.99993992;stroke-linecap:butt;stroke-linejoin:miter;stroke-miterlimit:4;stroke-dasharray:none;stroke-opacity:1"
         d="m 375.461,133.477 -118.996,38.996 -118.992,-38.996 237.988,0 z" /><path
         id="path90"
         style="fill:#02709f;fill-opacity:1;fill-rule:nonzero;stroke:none"
         d="m 125.637,214.004 261.406,0 0,15.8477 -261.406,0 0,-15.8477 z" /><path
         id="path92"
         style="fill:none;stroke:#ffffff;stroke-width:3.99993992;stroke-linecap:butt;stroke-linejoin:miter;stroke-miterlimit:4;stroke-dasharray:none;stroke-opacity:1"
         d="m 125.637,214.004 261.406,0 0,15.8477 -261.406,0 0,-15.8477 z" /><path
         id="path94"
         style="fill:#02709f;fill-opacity:1;fill-rule:nonzero;stroke:none"
         d="m 152.59,2.27344 20,0 0,131.25 -20,0 0,-131.25 z" /><path
         id="path96"
         style="fill:none;stroke:#ffffff;stroke-width:3.99993992;stroke-linecap:butt;stroke-linejoin:miter;stroke-miterlimit:4;stroke-dasharray:none;stroke-opacity:1"
         d="m 152.59,2.27344 20,0 0,131.25 -20,0 0,-131.25 z" /><path
         id="path98"
         style="fill:#02709f;fill-opacity:1;fill-rule:nonzero;stroke:none"
         d="m 340.09,2.27344 20,0 0,131.25 -20,0 0,-131.25 z" /><path
         id="path100"
         style="fill:none;stroke:#ffffff;stroke-width:3.99993992;stroke-linecap:butt;stroke-linejoin:miter;stroke-miterlimit:4;stroke-dasharray:none;stroke-opacity:1"
         d="m 340.09,2.27344 20,0 0,131.25 -20,0 0,-131.25 z" /></g></g></svg>