<?xml version="1.0" encoding="UTF-8" standalone="no"?>
<svg
   xmlns:dc="http://purl.org/dc/elements/1.1/"
   xmlns:cc="http://creativecommons.org/ns#"
   xmlns:rdf="http://www.w3.org/1999/02/22-rdf-syntax-ns#"
   xmlns:svg="http://www.w3.org/2000/svg"
   xmlns="http://www.w3.org/2000/svg"
   viewBox="0 0 65 48.75"
   height="48.75"
   width="65"
   xml:space="preserve"
   version="1.1"
   id="svg2"><metadata
     id="metadata8"><rdf:RDF><cc:Work
         rdf:about=""><dc:format>image/svg+xml</dc:format><dc:type
           rdf:resource="http://purl.org/dc/dcmitype/StillImage" /></cc:Work></rdf:RDF></metadata><defs
     id="defs6" /><g
     transform="matrix(1.25,0,0,-1.25,0,48.75)"
     id="g10"><g
       transform="scale(0.1,0.1)"
       id="g12"><path
         id="path14"
         style="fill:#02709f;fill-opacity:1;fill-rule:nonzero;stroke:none"
         d="m 143.551,205.809 223.199,0 0,34.0195 -223.199,0 0,-34.0195 z" /><path
         id="path16"
         style="fill:none;stroke:#ffffff;stroke-width:3.99993992;stroke-linecap:butt;stroke-linejoin:miter;stroke-miterlimit:4;stroke-dasharray:none;stroke-opacity:1"
         d="m 143.551,205.816 223.199,0 0,34.0234 -223.199,0 0,-34.0234 z" /><path
         id="path18"
         style="fill:#02709f;fill-opacity:1;fill-rule:nonzero;stroke:none"
         d="m 367.109,239.828 c 0,49.961 -50.078,92.352 -111.839,92.352 -61.75,0 -111.829,-42.391 -111.829,-92.352 l 223.668,0" /><path
         id="path20"
         style="fill:none;stroke:#ffffff;stroke-width:3.99993992;stroke-linecap:butt;stroke-linejoin:miter;stroke-miterlimit:4;stroke-dasharray:none;stroke-opacity:1"
         d="m 367.109,239.84 c 0,49.957 -50.078,92.34 -111.839,92.34 -61.75,0 -111.829,-42.383 -111.829,-92.34 l 223.668,0 z" /><path
         id="path22"
         style="fill:none;stroke:#ffffff;stroke-width:3.99993992;stroke-linecap:butt;stroke-linejoin:miter;stroke-miterlimit:4;stroke-dasharray:none;stroke-opacity:1"
         d="m 256.48,380.148 0,-52.46" /><path
         id="path24"
         style="fill:#02709f;fill-opacity:1;fill-rule:nonzero;stroke:none"
         d="m 300.699,348.148 c -1.597,-2.418 -20.347,-2.378 -23.629,0 -4.492,3.293 -17.109,3.293 -20.39,-0.82 l 0,25.711 c 3.281,4.063 15.898,4.063 20.39,0.82 3.282,-2.418 22.032,-2.461 23.629,0 l 0,-25.711" /><path
         id="path26"
         style="fill:none;stroke:#ffffff;stroke-width:3.99993992;stroke-linecap:butt;stroke-linejoin:miter;stroke-miterlimit:4;stroke-dasharray:none;stroke-opacity:1"
         d="m 300.699,348.156 c -1.597,-2.429 -20.347,-2.386 -23.629,0 -4.492,3.282 -17.109,3.282 -20.39,-0.816 l 0,25.699 c 3.281,4.059 15.898,4.059 20.39,0.82 3.282,-2.421 22.032,-2.461 23.629,0 l 0,-25.703 z" /><path
         id="path28"
         style="fill:#02709f;fill-opacity:1;fill-rule:nonzero;stroke:none"
         d="m 1.98828,11.9805 506.172,0 0,193.828 -506.172,0 0,-193.828 z" /><path
         id="path30"
         style="fill:none;stroke:#ffffff;stroke-width:3.99993992;stroke-linecap:butt;stroke-linejoin:miter;stroke-miterlimit:4;stroke-dasharray:none;stroke-opacity:1"
         d="m 1.98828,11.9766 506.172,0 0,193.832 -506.172,0 0,-193.832 z" /><path
         id="path32"
         style="fill:#02709f;fill-opacity:1;fill-rule:nonzero;stroke:none"
         d="m 317.07,13.6602 0.121,64.1796 c 0,29.0582 -27.621,52.6602 -61.882,52.6602 -34.258,0 -61.989,-23.559 -61.989,-52.5781 l 0,-64.1406" /><path
         id="path34"
         style="fill:none;stroke:#ffffff;stroke-width:3.99993992;stroke-linecap:butt;stroke-linejoin:miter;stroke-miterlimit:4;stroke-dasharray:none;stroke-opacity:1"
         d="m 317.07,13.6563 0.121,64.1835 c 0,29.0662 -27.621,52.6602 -61.882,52.6602 -34.258,0 -61.989,-23.551 -61.989,-52.582 l 0,-64.1407" /><path
         id="path36"
         style="fill:#02709f;fill-opacity:1;fill-rule:nonzero;stroke:none"
         d="m 24.6094,148.27 32.9688,0 0,30.7813 -32.9688,0 0,-30.7813 z" /><path
         id="path38"
         style="fill:none;stroke:#ffffff;stroke-width:3.99993992;stroke-linecap:butt;stroke-linejoin:miter;stroke-miterlimit:4;stroke-dasharray:none;stroke-opacity:1"
         d="m 24.6094,148.27 32.9688,0 0,30.7773 -32.9688,0 0,-30.7773 z" /><path
         id="path40"
         style="fill:#02709f;fill-opacity:1;fill-rule:nonzero;stroke:none"
         d="m 24.6094,92.9609 32.9688,0 0,30.7773 -32.9688,0 0,-30.7773 z" /><path
         id="path42"
         style="fill:none;stroke:#ffffff;stroke-width:3.99993992;stroke-linecap:butt;stroke-linejoin:miter;stroke-miterlimit:4;stroke-dasharray:none;stroke-opacity:1"
         d="m 24.6094,92.957 32.9688,0 0,30.7813 -32.9688,0 0,-30.7813 z" /><path
         id="path44"
         style="fill:#02709f;fill-opacity:1;fill-rule:nonzero;stroke:none"
         d="m 24.6094,37.6484 32.9688,0 0,30.7422 -32.9688,0 0,-30.7422 z" /><path
         id="path46"
         style="fill:none;stroke:#ffffff;stroke-width:3.99993992;stroke-linecap:butt;stroke-linejoin:miter;stroke-miterlimit:4;stroke-dasharray:none;stroke-opacity:1"
         d="m 24.6094,37.6484 32.9688,0 0,30.7383 -32.9688,0 0,-30.7383 z" /><path
         id="path48"
         style="fill:#02709f;fill-opacity:1;fill-rule:nonzero;stroke:none"
         d="m 73.4414,148.27 33.0078,0 0,30.7813 -33.0078,0 0,-30.7813 z" /><path
         id="path50"
         style="fill:none;stroke:#ffffff;stroke-width:3.99993992;stroke-linecap:butt;stroke-linejoin:miter;stroke-miterlimit:4;stroke-dasharray:none;stroke-opacity:1"
         d="m 73.4414,148.27 33.0078,0 0,30.7773 -33.0078,0 0,-30.7773 z" /><path
         id="path52"
         style="fill:#02709f;fill-opacity:1;fill-rule:nonzero;stroke:none"
         d="m 73.4414,92.9609 33.0078,0 0,30.7773 -33.0078,0 0,-30.7773 z" /><path
         id="path54"
         style="fill:none;stroke:#ffffff;stroke-width:3.99993992;stroke-linecap:butt;stroke-linejoin:miter;stroke-miterlimit:4;stroke-dasharray:none;stroke-opacity:1"
         d="m 73.4414,92.957 33.0078,0 0,30.7813 -33.0078,0 0,-30.7813 z" /><path
         id="path56"
         style="fill:#02709f;fill-opacity:1;fill-rule:nonzero;stroke:none"
         d="m 73.4414,37.6484 33.0078,0 0,30.7422 -33.0078,0 0,-30.7422 z" /><path
         id="path58"
         style="fill:none;stroke:#ffffff;stroke-width:3.99993992;stroke-linecap:butt;stroke-linejoin:miter;stroke-miterlimit:4;stroke-dasharray:none;stroke-opacity:1"
         d="m 73.4414,37.6484 33.0078,0 0,30.7383 -33.0078,0 0,-30.7383 z" /><path
         id="path60"
         style="fill:#02709f;fill-opacity:1;fill-rule:nonzero;stroke:none"
         d="m 452.578,148.27 33.0117,0 0,30.7813 -33.0117,0 0,-30.7813 z" /><path
         id="path62"
         style="fill:none;stroke:#ffffff;stroke-width:3.99993992;stroke-linecap:butt;stroke-linejoin:miter;stroke-miterlimit:4;stroke-dasharray:none;stroke-opacity:1"
         d="m 452.578,148.27 33.0117,0 0,30.7773 -33.0117,0 0,-30.7773 z" /><path
         id="path64"
         style="fill:#02709f;fill-opacity:1;fill-rule:nonzero;stroke:none"
         d="m 452.578,92.9609 33.0117,0 0,30.7773 -33.0117,0 0,-30.7773 z" /><path
         id="path66"
         style="fill:none;stroke:#ffffff;stroke-width:3.99993992;stroke-linecap:butt;stroke-linejoin:miter;stroke-miterlimit:4;stroke-dasharray:none;stroke-opacity:1"
         d="m 452.578,92.957 33.0117,0 0,30.7813 -33.0117,0 0,-30.7813 z" /><path
         id="path68"
         style="fill:#02709f;fill-opacity:1;fill-rule:nonzero;stroke:none"
         d="m 452.578,37.6484 33.0117,0 0,30.7422 -33.0117,0 0,-30.7422 z" /><path
         id="path70"
         style="fill:none;stroke:#ffffff;stroke-width:3.99993992;stroke-linecap:butt;stroke-linejoin:miter;stroke-miterlimit:4;stroke-dasharray:none;stroke-opacity:1"
         d="m 452.578,37.6484 33.0117,0 0,30.7383 -33.0117,0 0,-30.7383 z" /><path
         id="path72"
         style="fill:#02709f;fill-opacity:1;fill-rule:nonzero;stroke:none"
         d="m 403.711,148.27 33.0078,0 0,30.7813 -33.0078,0 0,-30.7813 z" /><path
         id="path74"
         style="fill:none;stroke:#ffffff;stroke-width:3.99993992;stroke-linecap:butt;stroke-linejoin:miter;stroke-miterlimit:4;stroke-dasharray:none;stroke-opacity:1"
         d="m 403.711,148.27 33.0078,0 0,30.7773 -33.0078,0 0,-30.7773 z" /><path
         id="path76"
         style="fill:#02709f;fill-opacity:1;fill-rule:nonzero;stroke:none"
         d="m 403.711,92.9609 33.0078,0 0,30.7773 -33.0078,0 0,-30.7773 z" /><path
         id="path78"
         style="fill:none;stroke:#ffffff;stroke-width:3.99993992;stroke-linecap:butt;stroke-linejoin:miter;stroke-miterlimit:4;stroke-dasharray:none;stroke-opacity:1"
         d="m 403.711,92.957 33.0078,0 0,30.7813 -33.0078,0 0,-30.7813 z" /><path
         id="path80"
         style="fill:#02709f;fill-opacity:1;fill-rule:nonzero;stroke:none"
         d="m 403.711,37.6484 33.0078,0 0,30.7422 -33.0078,0 0,-30.7422 z" /><path
         id="path82"
         style="fill:none;stroke:#ffffff;stroke-width:3.99993992;stroke-linecap:butt;stroke-linejoin:miter;stroke-miterlimit:4;stroke-dasharray:none;stroke-opacity:1"
         d="m 403.711,37.6484 33.0078,0 0,30.7383 -33.0078,0 0,-30.7383 z" /><path
         id="path84"
         style="fill:#02709f;fill-opacity:1;fill-rule:nonzero;stroke:none"
         d="m 375.469,143.469 -118.989,38.98 -119.019,-38.98 238.008,0" /><path
         id="path86"
         style="fill:none;stroke:#ffffff;stroke-width:3.99993992;stroke-linecap:butt;stroke-linejoin:miter;stroke-miterlimit:4;stroke-dasharray:none;stroke-opacity:1"
         d="m 375.469,143.469 -118.989,38.98 -119.019,-38.98 238.008,0 z" /><path
         id="path88"
         style="fill:#02709f;fill-opacity:1;fill-rule:nonzero;stroke:none"
         d="m 125.621,224.012 261.41,0 0,15.8164 -261.41,0 0,-15.8164 z" /><path
         id="path90"
         style="fill:none;stroke:#ffffff;stroke-width:3.99993992;stroke-linecap:butt;stroke-linejoin:miter;stroke-miterlimit:4;stroke-dasharray:none;stroke-opacity:1"
         d="m 125.621,224.02 261.41,0 0,15.8203 -261.41,0 0,-15.8203 z" /><path
         id="path92"
         style="fill:#02709f;fill-opacity:1;fill-rule:nonzero;stroke:none"
         d="m 152.578,12.2617 20,0 0,131.25 -20,0 0,-131.25 z" /><path
         id="path94"
         style="fill:none;stroke:#ffffff;stroke-width:3.99993992;stroke-linecap:butt;stroke-linejoin:miter;stroke-miterlimit:4;stroke-dasharray:none;stroke-opacity:1"
         d="m 152.578,12.2578 20,0 0,131.25 -20,0 0,-131.25 z" /><path
         id="path96"
         style="fill:#02709f;fill-opacity:1;fill-rule:nonzero;stroke:none"
         d="m 340.078,12.2617 20,0 0,131.25 -20,0 0,-131.25 z" /><path
         id="path98"
         style="fill:none;stroke:#ffffff;stroke-width:3.99993992;stroke-linecap:butt;stroke-linejoin:miter;stroke-miterlimit:4;stroke-dasharray:none;stroke-opacity:1"
         d="m 340.078,12.2578 20,0 0,131.25 -20,0 0,-131.25 z" /></g></g></svg>