<svg xmlns="http://www.w3.org/2000/svg" viewBox="0 0 65 48.75" height="48.75" width="65"><path d="M17.944 23.024h27.9V18.77h-27.9v4.253z" fill="#02709f"/><path d="M17.944 23.023h27.9V18.77h-27.9v4.253z" fill="none" stroke="#fff" stroke-width=".5"/><path d="M45.889 18.771c0-6.245-6.26-11.544-13.98-11.544-7.719 0-13.979 5.3-13.979 11.544H45.89" fill="#02709f"/><path d="M45.889 18.77c0-6.245-6.26-11.543-13.98-11.543-7.719 0-13.979 5.298-13.979 11.543H45.89zM32.06 1.231V7.79" fill="none" stroke="#fff" stroke-width=".5"/><path d="M37.587 5.231c-.2.303-2.543.298-2.953 0-.562-.411-2.139-.411-2.549.103V2.12c.41-.508 1.987-.508 2.549-.102.41.302 2.754.307 2.953 0V5.23" fill="#02709f"/><path d="M37.587 5.23c-.2.304-2.543.299-2.953 0-.562-.41-2.139-.41-2.549.102V2.12c.41-.507 1.987-.507 2.549-.102.41.302 2.754.307 2.953 0V5.23z" fill="none" stroke="#fff" stroke-width=".5"/><path d="M.249 47.252H63.52V23.024H.249v24.228z" fill="#02709f"/><path d="M.249 47.253H63.52v-24.23H.249v24.23z" fill="none" stroke="#fff" stroke-width=".5"/><path d="M39.634 47.042l.015-8.022c0-3.632-3.453-6.582-7.735-6.582-4.283 0-7.749 2.944-7.749 6.572v8.017" fill="#02709f"/><path d="M39.634 47.043l.015-8.023c0-3.633-3.453-6.582-7.735-6.582-4.283 0-7.749 2.943-7.749 6.572v8.018" fill="none" stroke="#fff" stroke-width=".5"/><path d="M3.076 30.216h4.121V26.37h-4.12v3.847z" fill="#02709f"/><path d="M3.076 30.216h4.121V26.37h-4.12v3.847z" fill="none" stroke="#fff" stroke-width=".5"/><path d="M3.076 37.13h4.121v-3.847h-4.12v3.847z" fill="#02709f"/><path d="M3.076 37.13h4.121v-3.847h-4.12v3.847z" fill="none" stroke="#fff" stroke-width=".5"/><path d="M3.076 44.044h4.121v-3.843h-4.12v3.843z" fill="#02709f"/><path d="M3.076 44.044h4.121v-3.842h-4.12v3.842z" fill="none" stroke="#fff" stroke-width=".5"/><path d="M9.18 30.216h4.126V26.37H9.18v3.847z" fill="#02709f"/><path d="M9.18 30.216h4.126V26.37H9.18v3.847z" fill="none" stroke="#fff" stroke-width=".5"/><path d="M9.18 37.13h4.126v-3.847H9.18v3.847z" fill="#02709f"/><path d="M9.18 37.13h4.126v-3.847H9.18v3.847z" fill="none" stroke="#fff" stroke-width=".5"/><path d="M9.18 44.044h4.126v-3.843H9.18v3.843z" fill="#02709f"/><path d="M9.18 44.044h4.126v-3.842H9.18v3.842z" fill="none" stroke="#fff" stroke-width=".5"/><path d="M56.572 30.216H60.7V26.37h-4.127v3.847z" fill="#02709f"/><path d="M56.572 30.216H60.7V26.37h-4.127v3.847z" fill="none" stroke="#fff" stroke-width=".5"/><path d="M56.572 37.13H60.7v-3.847h-4.127v3.847z" fill="#02709f"/><path d="M56.572 37.13H60.7v-3.847h-4.127v3.847z" fill="none" stroke="#fff" stroke-width=".5"/><path d="M56.572 44.044H60.7v-3.843h-4.127v3.843z" fill="#02709f"/><path d="M56.572 44.044H60.7v-3.842h-4.127v3.842z" fill="none" stroke="#fff" stroke-width=".5"/><path d="M50.464 30.216h4.126V26.37h-4.126v3.847z" fill="#02709f"/><path d="M50.464 30.216h4.126V26.37h-4.126v3.847z" fill="none" stroke="#fff" stroke-width=".5"/><path d="M50.464 37.13h4.126v-3.847h-4.126v3.847z" fill="#02709f"/><path d="M50.464 37.13h4.126v-3.847h-4.126v3.847z" fill="none" stroke="#fff" stroke-width=".5"/><path d="M50.464 44.044h4.126v-3.843h-4.126v3.843z" fill="#02709f"/><path d="M50.464 44.044h4.126v-3.842h-4.126v3.842z" fill="none" stroke="#fff" stroke-width=".5"/><path d="M46.934 30.816L32.06 25.944l-14.877 4.872h29.75" fill="#02709f"/><path d="M46.934 30.816L32.06 25.944l-14.877 4.872h29.75z" fill="none" stroke="#fff" stroke-width=".5"/><path d="M15.703 20.748h32.676v-1.977H15.703v1.978z" fill="#02709f"/><path d="M15.703 20.747h32.676V18.77H15.703v1.977z" fill="none" stroke="#fff" stroke-width=".5"/><path d="M19.072 47.217h2.5V30.811h-2.5v16.406z" fill="#02709f"/><path d="M19.072 47.218h2.5V30.812h-2.5v16.406z" fill="none" stroke="#fff" stroke-width=".5"/><path d="M42.51 47.217h2.5V30.811h-2.5v16.406z" fill="#02709f"/><path d="M42.51 47.218h2.5V30.812h-2.5v16.406z" fill="none" stroke="#fff" stroke-width=".5"/></svg>