<?xml version="1.0" encoding="UTF-8" standalone="no"?>
<svg
   xmlns:dc="http://purl.org/dc/elements/1.1/"
   xmlns:cc="http://creativecommons.org/ns#"
   xmlns:rdf="http://www.w3.org/1999/02/22-rdf-syntax-ns#"
   xmlns:svg="http://www.w3.org/2000/svg"
   xmlns="http://www.w3.org/2000/svg"
   viewBox="0 0 58.837502 71.550003"
   height="71.550003"
   width="58.837502"
   xml:space="preserve"
   version="1.1"
   id="svg2"><metadata
     id="metadata8"><rdf:RDF><cc:Work
         rdf:about=""><dc:format>image/svg+xml</dc:format><dc:type
           rdf:resource="http://purl.org/dc/dcmitype/StillImage" /></cc:Work></rdf:RDF></metadata><defs
     id="defs6" /><g
     transform="matrix(1.25,0,0,-1.25,0,71.55)"
     id="g10"><g
       transform="scale(0.1,0.1)"
       id="g12"><path
         id="path14"
         style="fill:#2b669e;fill-opacity:1;fill-rule:nonzero;stroke:none"
         d="m 205.613,327.895 69.465,0 0,-90.305 c 0,0 -70.691,-21.934 -69.465,-21.934 1.223,0 0,112.239 0,112.239" /><path
         id="path16"
         style="fill:#ffffff;fill-opacity:1;fill-rule:nonzero;stroke:none"
         d="m 235.344,398.199 c 128.867,0 233.34,19.785 233.34,44.196 0,24.406 -104.473,44.191 -233.34,44.191 C 106.477,486.586 2,466.801 2,442.395 2,417.984 106.477,398.199 235.344,398.199" /><path
         id="path18"
         style="fill:none;stroke:#231f20;stroke-width:1.5;stroke-linecap:butt;stroke-linejoin:miter;stroke-miterlimit:4;stroke-dasharray:none;stroke-opacity:1"
         d="m 235.344,398.199 c 128.867,0 233.34,19.785 233.34,44.196 0,24.406 -104.473,44.191 -233.34,44.191 C 106.477,486.586 2,466.801 2,442.395 2,417.984 106.477,398.199 235.344,398.199 Z" /><path
         id="path20"
         style="fill:#2b669e;fill-opacity:1;fill-rule:nonzero;stroke:none"
         d="m 236.594,320.695 c 128.867,0 232.09,97.289 232.09,121.7 0,24.406 -104.473,44.191 -233.34,44.191 C 106.477,486.586 2,466.801 2,442.395 c 0,-24.411 105.727,-121.7 234.594,-121.7" /><path
         id="path22"
         style="fill:#ffffff;fill-opacity:1;fill-rule:nonzero;stroke:none"
         d="m 235.344,398.199 c 128.867,0 233.34,19.785 233.34,44.196 0,24.406 -104.473,44.191 -233.34,44.191 C 106.477,486.586 2,466.801 2,442.395 2,417.984 106.477,398.199 235.344,398.199" /><path
         id="path24"
         style="fill:none;stroke:#2b669e;stroke-width:4;stroke-linecap:butt;stroke-linejoin:miter;stroke-miterlimit:4;stroke-dasharray:none;stroke-opacity:1"
         d="m 235.344,398.199 c 128.867,0 233.34,19.785 233.34,44.196 0,24.406 -104.473,44.191 -233.34,44.191 C 106.477,486.586 2,466.801 2,442.395 2,417.984 106.477,398.199 235.344,398.199 Z" /><path
         id="path26"
         style="fill:none;stroke:#2b669e;stroke-width:3.75;stroke-linecap:butt;stroke-linejoin:miter;stroke-miterlimit:4;stroke-dasharray:none;stroke-opacity:1"
         d="m 174.68,475.473 c -36.821,-2.235 -69.492,-6.524 -95.012,-12.235" /><path
         id="path28"
         style="fill:none;stroke:#2b669e;stroke-width:3.75;stroke-linecap:butt;stroke-linejoin:miter;stroke-miterlimit:4;stroke-dasharray:none;stroke-opacity:1"
         d="m 177.156,466.242 c -35.718,-2.609 -66.992,-7.379 -90.6208,-13.613" /><path
         id="path30"
         style="fill:none;stroke:#2b669e;stroke-width:3.75;stroke-linecap:butt;stroke-linejoin:miter;stroke-miterlimit:4;stroke-dasharray:none;stroke-opacity:1"
         d="m 179.695,456.324 c -34.961,-3.023 -65.078,-8.375 -86.8356,-15.238" /><path
         id="path32"
         style="fill:none;stroke:#2b669e;stroke-width:3.75;stroke-linecap:butt;stroke-linejoin:miter;stroke-miterlimit:4;stroke-dasharray:none;stroke-opacity:1"
         d="m 184.727,444.766 c -34.153,-3.297 -63.211,-9.067 -83.477,-16.414" /><path
         id="path34"
         style="fill:none;stroke:#2b669e;stroke-width:3.75;stroke-linecap:butt;stroke-linejoin:miter;stroke-miterlimit:4;stroke-dasharray:none;stroke-opacity:1"
         d="m 187.18,434.004 c -32.395,-3.734 -59.477,-9.981 -77.5,-17.777" /><path
         id="path36"
         style="fill:none;stroke:#2b669e;stroke-width:3.75;stroke-linecap:butt;stroke-linejoin:miter;stroke-miterlimit:4;stroke-dasharray:none;stroke-opacity:1"
         d="m 191.57,421.27 c -25.679,-3.504 -47.476,-8.797 -63.164,-15.278" /><path
         id="path38"
         style="fill:none;stroke:#2b669e;stroke-width:3.75;stroke-linecap:butt;stroke-linejoin:miter;stroke-miterlimit:4;stroke-dasharray:none;stroke-opacity:1"
         d="m 193.066,409.418 c -10.363,-1.875 -19.89,-4.094 -28.386,-6.602" /><path
         id="path40"
         style="fill:none;stroke:#2b669e;stroke-width:4;stroke-linecap:butt;stroke-linejoin:miter;stroke-miterlimit:4;stroke-dasharray:none;stroke-opacity:1"
         d="m 1.375,438.188 235.219,117.957 232.09,-113.75" /><path
         id="path42"
         style="fill:#2b669e;fill-opacity:1;fill-rule:nonzero;stroke:none"
         d="m 237.844,526.313 c 8.789,0 15.906,3.562 15.906,7.957 0,4.394 -7.117,7.953 -15.906,7.953 -8.789,0 -15.91,-3.559 -15.91,-7.953 0,-4.395 7.121,-7.957 15.91,-7.957" /><path
         id="path44"
         style="fill:#2b669e;fill-opacity:1;fill-rule:nonzero;stroke:none"
         d="m 237.844,572.395 -5,-163.75 11.25,0 -6.25,163.75" /><path
         id="path46"
         style="fill:#2b669e;fill-opacity:1;fill-rule:nonzero;stroke:none"
         d="m 177.961,265.496 112.5,0 0,44.6641 -112.5,0 0,-44.6641 z" /><path
         id="path48"
         style="fill:#ffffff;fill-opacity:1;fill-rule:nonzero;stroke:none"
         d="m 195.242,280.969 34.6211,0 0,10.0234 -34.6211,0 0,-10.0234 z" /><path
         id="path50"
         style="fill:#ffffff;fill-opacity:1;fill-rule:nonzero;stroke:none"
         d="m 240.801,280.969 34.6211,0 0,10.0234 -34.6211,0 0,-10.0234 z" /><path
         id="path52"
         style="fill:#2b669e;fill-opacity:1;fill-rule:nonzero;stroke:none"
         d="m 419.23,178.293 c 0,-39.504 -82.343,-71.523 -183.925,-71.523 -101.582,0 -183.9261,32.019 -183.9261,71.523 l 0,-104.7657 c 0,-39.5039 82.3441,-71.52339 183.9261,-71.52339 101.582,0 183.925,32.01949 183.925,71.52339 l 0,104.7657" /><path
         id="path54"
         style="fill:none;stroke:#ffffff;stroke-width:4;stroke-linecap:butt;stroke-linejoin:miter;stroke-miterlimit:4;stroke-dasharray:none;stroke-opacity:1"
         d="m 419.23,178.293 c 0,-39.504 -82.343,-71.523 -183.925,-71.523 -101.582,0 -183.9261,32.019 -183.9261,71.523 l 0,-104.7657 c 0,-39.5039 82.3441,-71.52339 183.9261,-71.52339 101.582,0 183.925,32.01949 183.925,71.52339 l 0,104.7657 z" /><path
         id="path56"
         style="fill:#2b669e;fill-opacity:1;fill-rule:nonzero;stroke:none"
         d="m 235.305,106.77 c 101.582,0 183.925,32.019 183.925,71.523 0,39.512 -82.343,71.523 -183.925,71.523 -101.582,0 -183.9261,-32.011 -183.9261,-71.523 0,-39.504 82.3441,-71.523 183.9261,-71.523" /><path
         id="path58"
         style="fill:none;stroke:#ffffff;stroke-width:4;stroke-linecap:butt;stroke-linejoin:miter;stroke-miterlimit:4;stroke-dasharray:none;stroke-opacity:1"
         d="m 235.305,106.77 c 101.582,0 183.925,32.019 183.925,71.523 0,39.512 -82.343,71.523 -183.925,71.523 -101.582,0 -183.9261,-32.011 -183.9261,-71.523 0,-39.504 82.3441,-71.523 183.9261,-71.523 z" /><path
         id="path60"
         style="fill:#ffffff;fill-opacity:1;fill-rule:nonzero;stroke:none"
         d="m 193.301,206.262 15.183,-22.785 -57.421,-13.274 12.55,10.453 -88.7497,15.164 22.2656,16.692 85.6371,-14.504 10.535,8.254" /><path
         id="path62"
         style="fill:#ffffff;fill-opacity:1;fill-rule:nonzero;stroke:none"
         d="m 274.102,151.016 -10.364,23.488 51.797,10.351 -8.98,-8.046 86.328,-14.746 -20.715,-16.575 -85.813,16.114 -12.253,-10.586" /><path
         id="path64"
         style="fill:#ffffff;fill-opacity:1;fill-rule:nonzero;stroke:none"
         d="m 245.781,218.703 58.02,15.875 0.679,-24.859 -14.5,2.761 -28.308,-23.484 -27.024,3.945 29.231,22.969 -18.098,2.793" /><path
         id="path66"
         style="fill:#ffffff;fill-opacity:1;fill-rule:nonzero;stroke:none"
         d="m 220.918,129.602 -55.242,-10.356 -2.071,25.551 15.875,-3.449 30.415,25.968 26.914,-4.55 -32.461,-28.321 16.57,-4.843" /></g></g></svg>