<?xml version="1.0" encoding="UTF-8" standalone="no"?>
<svg
   xmlns:dc="http://purl.org/dc/elements/1.1/"
   xmlns:cc="http://creativecommons.org/ns#"
   xmlns:rdf="http://www.w3.org/1999/02/22-rdf-syntax-ns#"
   xmlns:svg="http://www.w3.org/2000/svg"
   xmlns="http://www.w3.org/2000/svg"
   viewBox="0 0 60 73.75"
   height="73.75"
   width="60"
   xml:space="preserve"
   version="1.1"
   id="svg2"><metadata
     id="metadata8"><rdf:RDF><cc:Work
         rdf:about=""><dc:format>image/svg+xml</dc:format><dc:type
           rdf:resource="http://purl.org/dc/dcmitype/StillImage" /></cc:Work></rdf:RDF></metadata><defs
     id="defs6" /><g
     transform="matrix(1.25,0,0,-1.25,0,73.75)"
     id="g10"><g
       transform="scale(0.1,0.1)"
       id="g12"><path
         id="path14"
         style="fill:#2b669e;fill-opacity:1;fill-rule:nonzero;stroke:none"
         d="m 205.621,337.898 69.457,0 0,-90.308 c 0,0 -70.699,-21.961 -69.457,-21.961 1.219,0 0,112.269 0,112.269" /><path
         id="path16"
         style="fill:#ffffff;fill-opacity:1;fill-rule:nonzero;stroke:none"
         d="m 235.352,408.211 c 128.867,0 233.32,19.769 233.32,44.18 0,24.418 -104.453,44.179 -233.32,44.179 -128.872,0 -233.36372,-19.761 -233.36372,-44.179 0,-24.411 104.49172,-44.18 233.36372,-44.18" /><path
         id="path18"
         style="fill:none;stroke:#231f20;stroke-width:1.5;stroke-linecap:butt;stroke-linejoin:miter;stroke-miterlimit:4;stroke-dasharray:none;stroke-opacity:1"
         d="m 235.352,408.211 c 128.867,0 233.32,19.769 233.32,44.18 0,24.41 -104.453,44.179 -233.32,44.179 -128.872,0 -233.36372,-19.769 -233.36372,-44.179 0,-24.411 104.49172,-44.18 233.36372,-44.18 z" /><path
         id="path20"
         style="fill:#2b669e;fill-opacity:1;fill-rule:nonzero;stroke:none"
         d="m 236.602,330.672 c 128.867,0 232.07,97.308 232.07,121.719 0,24.418 -104.453,44.179 -233.32,44.179 C 106.48,496.57 1.98828,476.809 1.98828,452.391 1.98828,427.98 107.73,330.672 236.602,330.672" /><path
         id="path22"
         style="fill:#ffffff;fill-opacity:1;fill-rule:nonzero;stroke:none"
         d="m 235.352,408.211 c 128.867,0 233.32,19.769 233.32,44.18 0,24.418 -104.453,44.179 -233.32,44.179 -128.872,0 -233.36372,-19.761 -233.36372,-44.179 0,-24.411 104.49172,-44.18 233.36372,-44.18" /><path
         id="path24"
         style="fill:none;stroke:#2b669e;stroke-width:4;stroke-linecap:butt;stroke-linejoin:miter;stroke-miterlimit:4;stroke-dasharray:none;stroke-opacity:1"
         d="m 235.352,408.211 c 128.867,0 233.32,19.769 233.32,44.18 0,24.41 -104.453,44.179 -233.32,44.179 -128.872,0 -233.36372,-19.769 -233.36372,-44.179 0,-24.411 104.49172,-44.18 233.36372,-44.18 z" /><path
         id="path26"
         style="fill:none;stroke:#2b669e;stroke-width:3.75;stroke-linecap:butt;stroke-linejoin:miter;stroke-miterlimit:4;stroke-dasharray:none;stroke-opacity:1"
         d="m 174.691,485.48 c -36.839,-2.23 -69.492,-6.531 -94.9996,-12.23" /><path
         id="path28"
         style="fill:none;stroke:#2b669e;stroke-width:3.75;stroke-linecap:butt;stroke-linejoin:miter;stroke-miterlimit:4;stroke-dasharray:none;stroke-opacity:1"
         d="M 177.148,476.223 C 141.449,473.641 110.16,468.871 86.5195,462.621" /><path
         id="path30"
         style="fill:none;stroke:#2b669e;stroke-width:3.75;stroke-linecap:butt;stroke-linejoin:miter;stroke-miterlimit:4;stroke-dasharray:none;stroke-opacity:1"
         d="M 179.691,466.34 C 144.73,463.293 114.609,457.941 92.8516,451.063" /><path
         id="path32"
         style="fill:none;stroke:#2b669e;stroke-width:3.75;stroke-linecap:butt;stroke-linejoin:miter;stroke-miterlimit:4;stroke-dasharray:none;stroke-opacity:1"
         d="m 184.73,454.77 c -34.14,-3.321 -63.21,-9.059 -83.48,-16.438" /><path
         id="path34"
         style="fill:none;stroke:#2b669e;stroke-width:3.75;stroke-linecap:butt;stroke-linejoin:miter;stroke-miterlimit:4;stroke-dasharray:none;stroke-opacity:1"
         d="m 187.191,443.992 c -32.421,-3.711 -59.492,-9.961 -77.5,-17.769" /><path
         id="path36"
         style="fill:none;stroke:#2b669e;stroke-width:3.75;stroke-linecap:butt;stroke-linejoin:miter;stroke-miterlimit:4;stroke-dasharray:none;stroke-opacity:1"
         d="m 191.559,431.262 c -25.661,-3.52 -47.457,-8.789 -63.161,-15.282" /><path
         id="path38"
         style="fill:none;stroke:#2b669e;stroke-width:3.75;stroke-linecap:butt;stroke-linejoin:miter;stroke-miterlimit:4;stroke-dasharray:none;stroke-opacity:1"
         d="m 193.051,419.422 c -10.352,-1.871 -19.891,-4.102 -28.36,-6.602" /><path
         id="path40"
         style="fill:none;stroke:#2b669e;stroke-width:4;stroke-linecap:butt;stroke-linejoin:miter;stroke-miterlimit:4;stroke-dasharray:none;stroke-opacity:1"
         d="M 1.37109,448.172 236.602,566.141 468.672,452.391" /><path
         id="path42"
         style="fill:#2b669e;fill-opacity:1;fill-rule:nonzero;stroke:none"
         d="m 237.852,536.301 c 8.789,0 15.898,3.551 15.898,7.969 0,4.371 -7.109,7.96 -15.898,7.96 -8.793,0 -15.903,-3.589 -15.903,-7.96 0,-4.418 7.11,-7.969 15.903,-7.969" /><path
         id="path44"
         style="fill:#2b669e;fill-opacity:1;fill-rule:nonzero;stroke:none"
         d="m 237.852,582.391 -5,-163.75 11.25,0 -6.25,163.75" /><path
         id="path46"
         style="fill:#2b669e;fill-opacity:1;fill-rule:nonzero;stroke:none"
         d="m 177.969,275.469 112.5,0 0,44.6914 -112.5,0 0,-44.6914 z" /><path
         id="path48"
         style="fill:#ffffff;fill-opacity:1;fill-rule:nonzero;stroke:none"
         d="m 195.23,290.941 34.6094,0 0,10.0391 -34.6094,0 0,-10.0391 z" /><path
         id="path50"
         style="fill:#ffffff;fill-opacity:1;fill-rule:nonzero;stroke:none"
         d="m 240.82,290.941 34.6094,0 0,10.0391 -34.6094,0 0,-10.0391 z" /><path
         id="path52"
         style="fill:#2b669e;fill-opacity:1;fill-rule:nonzero;stroke:none"
         d="m 419.219,188.289 c 0,-39.488 -82.34,-71.519 -183.91,-71.519 -101.598,0 -183.9379,32.031 -183.9379,71.519 l 0,-104.7695 C 51.3711,44.0313 133.711,12 235.309,12 c 101.57,0 183.91,32.0313 183.91,71.5195 l 0,104.7695" /><path
         id="path54"
         style="fill:none;stroke:#ffffff;stroke-width:4;stroke-linecap:butt;stroke-linejoin:miter;stroke-miterlimit:4;stroke-dasharray:none;stroke-opacity:1"
         d="m 419.219,188.293 c 0,-39.492 -82.34,-71.523 -183.91,-71.523 -101.598,0 -183.9379,32.031 -183.9379,71.523 l 0,-104.7735 C 51.3711,44.0313 133.711,12 235.309,12 c 101.57,0 183.91,32.0313 183.91,71.5195 l 0,104.7735 z" /><path
         id="path56"
         style="fill:#2b669e;fill-opacity:1;fill-rule:nonzero;stroke:none"
         d="m 235.309,116.77 c 101.57,0 183.91,32.031 183.91,71.519 0,39.492 -82.34,71.52 -183.91,71.52 -101.598,0 -183.9379,-32.028 -183.9379,-71.52 0,-39.488 82.3399,-71.519 183.9379,-71.519" /><path
         id="path58"
         style="fill:none;stroke:#ffffff;stroke-width:4;stroke-linecap:butt;stroke-linejoin:miter;stroke-miterlimit:4;stroke-dasharray:none;stroke-opacity:1"
         d="m 235.309,116.77 c 101.57,0 183.91,32.031 183.91,71.523 0,39.488 -82.34,71.52 -183.91,71.52 -101.598,0 -183.9379,-32.032 -183.9379,-71.52 0,-39.492 82.3399,-71.523 183.9379,-71.523 z" /><path
         id="path60"
         style="fill:#ffffff;fill-opacity:1;fill-rule:nonzero;stroke:none"
         d="m 193.32,216.262 15.16,-22.782 -57.429,-13.281 12.539,10.43 -88.7111,15.199 22.2305,16.684 85.6606,-14.492 10.55,8.242" /><path
         id="path62"
         style="fill:#ffffff;fill-opacity:1;fill-rule:nonzero;stroke:none"
         d="m 274.102,161.02 -10.352,23.48 51.801,10.352 -8.992,-8.043 86.332,-14.731 -20.7,-16.598 -85.82,16.129 -12.269,-10.589" /><path
         id="path64"
         style="fill:#ffffff;fill-opacity:1;fill-rule:nonzero;stroke:none"
         d="m 245.781,228.68 58.008,15.898 0.699,-24.879 -14.527,2.77 -28.281,-23.481 -27.032,3.953 29.223,22.969 -18.09,2.77" /><path
         id="path66"
         style="fill:#ffffff;fill-opacity:1;fill-rule:nonzero;stroke:none"
         d="m 220.941,139.578 -55.281,-10.348 -2.07,25.54 15.898,-3.43 30.391,25.969 26.922,-4.571 -32.461,-28.316 16.601,-4.844" /></g></g></svg>