<svg xmlns="http://www.w3.org/2000/svg" viewBox="0 0 53.75 35" height="35" width="53.75"><path d="M7.036 33.217h37.667V7.031H7.036v26.186z" fill="#087bbb"/><path d="M7.036 33.218h37.667V7.032H7.036v26.186z" fill="none" stroke="#fff" stroke-width=".5"/><path d="M44.703 7.031l7.182-5.917H16.752L7.036 7.03h37.667" fill="#087bbb"/><path d="M44.703 7.032l7.182-5.918H16.752L7.036 7.032h37.667z" fill="none" stroke="#fff" stroke-width=".5"/><path d="M51.885 27.305V1.114L44.703 7.03V33.22l7.182-5.914" fill="#087bbb"/><path d="M51.885 27.305V1.115l-7.182 5.917v26.186l7.182-5.913z" fill="none" stroke="#fff" stroke-width=".5"/><path d="M43.145 15.157H7.5" fill="none" stroke="#fff" stroke-width="1" stroke-dasharray="20,20"/><path d="M44.091 15.156l-5.423 2.217 1.288-2.217-1.288-2.216 5.423 2.216" fill="#fff"/><path d="M31.801 28.004l5.01-3.814-29.385-.171" fill="none" stroke="#d9d9d9" stroke-width="1" stroke-linejoin="round" stroke-dasharray="20,20"/><path d="M28.471 30.786l2.73-5.185.44 2.524 2.412.87-5.582 1.791" fill="#d9d9d9"/><path d="M39.565 26.544V9.78l-4.599 3.785v16.763l4.599-3.784zM15.4 26.544V9.78L10.8 13.565v16.763l4.599-3.784zM27.48 26.544V9.78l-4.594 3.785v16.763l4.594-3.784z" fill="none" stroke="#fff" stroke-width=".625"/><path d="M7.095 15.191H0" fill="none" stroke="#000" stroke-width="1" stroke-dasharray="20,20"/><path d="M7.095 24.146H0" fill="none" stroke="#d9d9d9" stroke-width="1" stroke-dasharray="20,20"/><path d="M7.095 24.209H0" fill="none" stroke="#8c8c8c" stroke-width="1" stroke-dasharray="20,20"/></svg>