<svg xmlns="http://www.w3.org/2000/svg" viewBox="0 0 41.25 25" height="25" width="41.25"><defs><clipPath id="a"><path d="M0 10v181h329V10H0z"/></clipPath></defs><g clip-path="url(#a)" transform="matrix(.13 0 0 -.13 0 25)"><path d="M322.891 26.465v159.652l-16.012-14.07V12.407l16.012 14.058" fill="#02709f"/><path d="M322.891 26.465v159.652l-16.012-14.07V12.407l16.012 14.058z" fill="none" stroke="#fff" stroke-width="4"/><path d="M5.309 12.676h301.21v159.063H5.31V12.676z" fill="#02709f"/><path d="M5.309 12.676h301.21v159.063H5.31V12.676z" fill="none" stroke="#fff" stroke-width="4"/><path d="M23.672 136.855c0 15.973 16.558 18.321 16.558 18.321h188.52c20.078 0 19.488-18.91 19.488-18.91v-89.29c0-11.25-15.347-15.98-15.347-15.98H42.578c-14.18 0-18.906 14.8-18.906 14.8v91.059" fill="#02709f"/><path d="M23.672 136.855c0 15.973 16.558 18.321 16.558 18.321h188.52c20.078 0 19.488-18.91 19.488-18.91v-89.29c0-11.25-15.347-15.98-15.347-15.98H42.578c-14.18 0-18.906 14.8-18.906 14.8v91.059z" fill="none" stroke="#fff" stroke-width="4"/><path d="M322.891 186.035H21.68L5.309 171.738H306.52l16.371 14.297" fill="#02709f"/><path d="M322.891 186.035H21.68L5.309 171.738H306.52l16.371 14.297z" fill="none" stroke="#fff" stroke-width="4"/><path d="M285.23 138.965c0-2.539-3.71-4.567-8.32-4.567-4.609 0-8.32 2.028-8.32 4.567 0 2.543 3.711 4.57 8.32 4.57 4.61 0 8.32-2.027 8.32-4.57" fill="#02709f"/><path d="M285.23 138.965c0-2.539-3.71-4.567-8.32-4.567-4.609 0-8.32 2.028-8.32 4.567 0 2.543 3.711 4.57 8.32 4.57 4.61 0 8.32-2.027 8.32-4.57z" fill="none" stroke="#fff" stroke-width="4"/><path d="M285.23 105.648c0-2.543-3.71-4.613-8.32-4.613-4.609 0-8.32 2.07-8.32 4.613 0 2.54 3.711 4.567 8.32 4.567 4.61 0 8.32-2.027 8.32-4.567" fill="#02709f"/><path d="M285.23 105.648c0-2.543-3.71-4.613-8.32-4.613-4.609 0-8.32 2.07-8.32 4.613 0 2.54 3.711 4.567 8.32 4.567 4.61 0 8.32-2.027 8.32-4.567z" fill="none" stroke="#fff" stroke-width="4"/><path d="M285.23 72.285c0-2.5-3.71-4.57-8.32-4.57-4.609 0-8.32 2.07-8.32 4.57 0 2.543 3.711 4.613 8.32 4.613 4.61 0 8.32-2.07 8.32-4.613" fill="#02709f"/><path d="M285.23 72.285c0-2.5-3.71-4.57-8.32-4.57-4.609 0-8.32 2.07-8.32 4.57 0 2.543 3.711 4.613 8.32 4.613 4.61 0 8.32-2.07 8.32-4.613z" fill="none" stroke="#fff" stroke-width="4"/><path d="M285.23 38.965c0-2.54-3.71-4.567-8.32-4.567-4.609 0-8.32 2.028-8.32 4.567 0 2.543 3.711 4.613 8.32 4.613 4.61 0 8.32-2.07 8.32-4.613" fill="#02709f"/><path d="M285.23 38.965c0-2.54-3.71-4.567-8.32-4.567-4.609 0-8.32 2.028-8.32 4.567 0 2.543 3.711 4.613 8.32 4.613 4.61 0 8.32-2.07 8.32-4.613z" fill="none" stroke="#fff" stroke-width="4"/></g></svg>