<?xml version="1.0" encoding="UTF-8" standalone="no"?>
<svg
   xmlns:dc="http://purl.org/dc/elements/1.1/"
   xmlns:cc="http://creativecommons.org/ns#"
   xmlns:rdf="http://www.w3.org/1999/02/22-rdf-syntax-ns#"
   xmlns:svg="http://www.w3.org/2000/svg"
   xmlns="http://www.w3.org/2000/svg"
   viewBox="0 0 41.25 25"
   height="25"
   width="41.25"
   xml:space="preserve"
   version="1.1"
   id="svg2"><metadata
     id="metadata8"><rdf:RDF><cc:Work
         rdf:about=""><dc:format>image/svg+xml</dc:format><dc:type
           rdf:resource="http://purl.org/dc/dcmitype/StillImage" /></cc:Work></rdf:RDF></metadata><defs
     id="defs6"><clipPath
       id="clipPath18"
       clipPathUnits="userSpaceOnUse"><path
         id="path20"
         d="M 0,10 0,191 329,191 329,10 0,10 Z" /></clipPath></defs><g
     transform="matrix(1.25,0,0,-1.25,0,25)"
     id="g10"><g
       transform="scale(0.1,0.1)"
       id="g12"><g
         id="g14"><g
           clip-path="url(#clipPath18)"
           id="g16"><path
             id="path22"
             style="fill:#02709f;fill-opacity:1;fill-rule:nonzero;stroke:none"
             d="m 322.891,26.4648 0,159.6522 -16.012,-14.07 0,-159.6407 16.012,14.0585" /><path
             id="path24"
             style="fill:none;stroke:#ffffff;stroke-width:3.99993992;stroke-linecap:butt;stroke-linejoin:miter;stroke-miterlimit:4;stroke-dasharray:none;stroke-opacity:1"
             d="m 322.891,26.4648 0,159.6522 -16.012,-14.07 0,-159.6407 16.012,14.0585 z" /><path
             id="path26"
             style="fill:#02709f;fill-opacity:1;fill-rule:nonzero;stroke:none"
             d="m 5.30859,12.6758 301.211,0 0,159.063 -301.211,0 0,-159.063 z" /><path
             id="path28"
             style="fill:none;stroke:#ffffff;stroke-width:3.99993992;stroke-linecap:butt;stroke-linejoin:miter;stroke-miterlimit:4;stroke-dasharray:none;stroke-opacity:1"
             d="m 5.30859,12.6758 301.211,0 0,159.063 -301.211,0 0,-159.063 z" /><path
             id="path30"
             style="fill:#02709f;fill-opacity:1;fill-rule:nonzero;stroke:none"
             d="m 23.6719,136.855 c 0,15.973 16.5586,18.321 16.5586,18.321 l 188.5195,0 c 20.078,0 19.488,-18.91 19.488,-18.91 l 0,-89.2894 c 0,-11.25 -15.347,-15.9805 -15.347,-15.9805 l -190.3129,0 c -14.1797,0 -18.9062,14.8008 -18.9062,14.8008 l 0,91.0581" /><path
             id="path32"
             style="fill:none;stroke:#ffffff;stroke-width:3.99993992;stroke-linecap:butt;stroke-linejoin:miter;stroke-miterlimit:4;stroke-dasharray:none;stroke-opacity:1"
             d="m 23.6719,136.855 c 0,15.973 16.5586,18.321 16.5586,18.321 l 188.5195,0 c 20.078,0 19.488,-18.91 19.488,-18.91 l 0,-89.2894 c 0,-11.25 -15.347,-15.9805 -15.347,-15.9805 l -190.3129,0 c -14.1797,0 -18.9062,14.8008 -18.9062,14.8008 l 0,91.0581 z" /><path
             id="path34"
             style="fill:#02709f;fill-opacity:1;fill-rule:nonzero;stroke:none"
             d="m 322.891,186.035 -301.2113,0 -16.37111,-14.297 301.21141,0 16.371,14.297" /><path
             id="path36"
             style="fill:none;stroke:#ffffff;stroke-width:3.99993992;stroke-linecap:butt;stroke-linejoin:miter;stroke-miterlimit:4;stroke-dasharray:none;stroke-opacity:1"
             d="m 322.891,186.035 -301.2113,0 -16.37111,-14.297 301.21141,0 16.371,14.297 z" /><path
             id="path38"
             style="fill:#02709f;fill-opacity:1;fill-rule:nonzero;stroke:none"
             d="m 285.23,138.965 c 0,-2.539 -3.71,-4.567 -8.32,-4.567 -4.609,0 -8.32,2.028 -8.32,4.567 0,2.543 3.711,4.57 8.32,4.57 4.61,0 8.32,-2.027 8.32,-4.57" /><path
             id="path40"
             style="fill:none;stroke:#ffffff;stroke-width:3.99993992;stroke-linecap:butt;stroke-linejoin:miter;stroke-miterlimit:4;stroke-dasharray:none;stroke-opacity:1"
             d="m 285.23,138.965 c 0,-2.539 -3.71,-4.567 -8.32,-4.567 -4.609,0 -8.32,2.028 -8.32,4.567 0,2.543 3.711,4.57 8.32,4.57 4.61,0 8.32,-2.027 8.32,-4.57 z" /><path
             id="path42"
             style="fill:#02709f;fill-opacity:1;fill-rule:nonzero;stroke:none"
             d="m 285.23,105.648 c 0,-2.543 -3.71,-4.613 -8.32,-4.613 -4.609,0 -8.32,2.07 -8.32,4.613 0,2.54 3.711,4.567 8.32,4.567 4.61,0 8.32,-2.027 8.32,-4.567" /><path
             id="path44"
             style="fill:none;stroke:#ffffff;stroke-width:3.99993992;stroke-linecap:butt;stroke-linejoin:miter;stroke-miterlimit:4;stroke-dasharray:none;stroke-opacity:1"
             d="m 285.23,105.648 c 0,-2.543 -3.71,-4.613 -8.32,-4.613 -4.609,0 -8.32,2.07 -8.32,4.613 0,2.54 3.711,4.567 8.32,4.567 4.61,0 8.32,-2.027 8.32,-4.567 z" /><path
             id="path46"
             style="fill:#02709f;fill-opacity:1;fill-rule:nonzero;stroke:none"
             d="m 285.23,72.2852 c 0,-2.5 -3.71,-4.5704 -8.32,-4.5704 -4.609,0 -8.32,2.0704 -8.32,4.5704 0,2.5429 3.711,4.6132 8.32,4.6132 4.61,0 8.32,-2.0703 8.32,-4.6132" /><path
             id="path48"
             style="fill:none;stroke:#ffffff;stroke-width:3.99993992;stroke-linecap:butt;stroke-linejoin:miter;stroke-miterlimit:4;stroke-dasharray:none;stroke-opacity:1"
             d="m 285.23,72.2852 c 0,-2.5 -3.71,-4.5704 -8.32,-4.5704 -4.609,0 -8.32,2.0704 -8.32,4.5704 0,2.5429 3.711,4.6132 8.32,4.6132 4.61,0 8.32,-2.0703 8.32,-4.6132 z" /><path
             id="path50"
             style="fill:#02709f;fill-opacity:1;fill-rule:nonzero;stroke:none"
             d="m 285.23,38.9648 c 0,-2.539 -3.71,-4.5664 -8.32,-4.5664 -4.609,0 -8.32,2.0274 -8.32,4.5664 0,2.543 3.711,4.6133 8.32,4.6133 4.61,0 8.32,-2.0703 8.32,-4.6133" /><path
             id="path52"
             style="fill:none;stroke:#ffffff;stroke-width:3.99993992;stroke-linecap:butt;stroke-linejoin:miter;stroke-miterlimit:4;stroke-dasharray:none;stroke-opacity:1"
             d="m 285.23,38.9648 c 0,-2.539 -3.71,-4.5664 -8.32,-4.5664 -4.609,0 -8.32,2.0274 -8.32,4.5664 0,2.543 3.711,4.6133 8.32,4.6133 4.61,0 8.32,-2.0703 8.32,-4.6133 z" /></g></g></g></g></svg>