<?xml version="1.0" encoding="UTF-8" standalone="no"?>
<svg
   xmlns:dc="http://purl.org/dc/elements/1.1/"
   xmlns:cc="http://creativecommons.org/ns#"
   xmlns:rdf="http://www.w3.org/1999/02/22-rdf-syntax-ns#"
   xmlns:svg="http://www.w3.org/2000/svg"
   xmlns="http://www.w3.org/2000/svg"
   viewBox="0 0 41.025002 22.8125"
   height="22.8125"
   width="41.025002"
   xml:space="preserve"
   version="1.1"
   id="svg2"><metadata
     id="metadata8"><rdf:RDF><cc:Work
         rdf:about=""><dc:format>image/svg+xml</dc:format><dc:type
           rdf:resource="http://purl.org/dc/dcmitype/StillImage" /></cc:Work></rdf:RDF></metadata><defs
     id="defs6"><clipPath
       id="clipPath18"
       clipPathUnits="userSpaceOnUse"><path
         id="path20"
         d="M 0,2 0,183 328,183 328,2 0,2 Z" /></clipPath></defs><g
     transform="matrix(1.25,0,0,-1.25,0,22.8125)"
     id="g10"><g
       transform="scale(0.1,0.1)"
       id="g12"><g
         id="g14"><g
           clip-path="url(#clipPath18)"
           id="g16"><path
             id="path22"
             style="fill:#02709f;fill-opacity:1;fill-rule:nonzero;stroke:none"
             d="m 322.91,18.4805 0,159.6285 -16.015,-14.062 0,-159.62903 16.015,14.06253" /><path
             id="path24"
             style="fill:none;stroke:#ffffff;stroke-width:3.99993992;stroke-linecap:butt;stroke-linejoin:miter;stroke-miterlimit:4;stroke-dasharray:none;stroke-opacity:1"
             d="m 322.91,18.4805 0,159.6285 -16.015,-14.062 0,-159.62903 16.015,14.06253 z" /><path
             id="path26"
             style="fill:#02709f;fill-opacity:1;fill-rule:nonzero;stroke:none"
             d="m 5.32813,4.67188 301.215,0 0,159.074 -301.215,0 0,-159.074 z" /><path
             id="path28"
             style="fill:none;stroke:#ffffff;stroke-width:3.99993992;stroke-linecap:butt;stroke-linejoin:miter;stroke-miterlimit:4;stroke-dasharray:none;stroke-opacity:1"
             d="m 5.32813,4.67188 301.215,0 0,159.074 -301.215,0 0,-159.074 z" /><path
             id="path30"
             style="fill:#02709f;fill-opacity:1;fill-rule:nonzero;stroke:none"
             d="m 23.6563,128.863 c 0,15.965 16.5625,18.328 16.5625,18.328 0,0 173.1602,0 188.5312,0 20.098,0 19.512,-18.925 19.512,-18.925 0,0 0,-78.0472 0,-89.2972 0,-11.2305 -15.371,-15.9571 -15.371,-15.9571 0,0 -176.1176,0 -190.309,0 -14.1992,0 -18.9257,14.7852 -18.9257,14.7852 l 0,91.0661" /><path
             id="path32"
             style="fill:none;stroke:#ffffff;stroke-width:3.99993992;stroke-linecap:butt;stroke-linejoin:miter;stroke-miterlimit:4;stroke-dasharray:none;stroke-opacity:1"
             d="m 23.6563,128.863 c 0,15.965 16.5625,18.328 16.5625,18.328 0,0 173.1602,0 188.5312,0 20.098,0 19.512,-18.925 19.512,-18.925 0,0 0,-78.0472 0,-89.2972 0,-11.2305 -15.371,-15.9571 -15.371,-15.9571 0,0 -176.1176,0 -190.309,0 -14.1992,0 -18.9257,14.7852 -18.9257,14.7852 l 0,91.0661 z" /><path
             id="path34"
             style="fill:#02709f;fill-opacity:1;fill-rule:nonzero;stroke:none"
             d="m 322.91,178.043 -301.2264,0 -16.35547,-14.297 301.21487,0 16.367,14.297" /><path
             id="path36"
             style="fill:none;stroke:#ffffff;stroke-width:3.99993992;stroke-linecap:butt;stroke-linejoin:miter;stroke-miterlimit:4;stroke-dasharray:none;stroke-opacity:1"
             d="m 322.91,178.043 -301.2264,0 -16.35547,-14.297 301.21487,0 16.367,14.297 z" /><path
             id="path38"
             style="fill:#02709f;fill-opacity:1;fill-rule:nonzero;stroke:none"
             d="m 285.254,130.973 c 0,-2.532 -3.731,-4.582 -8.34,-4.582 -4.59,0 -8.32,2.05 -8.32,4.582 0,2.527 3.73,4.578 8.32,4.578 4.609,0 8.34,-2.051 8.34,-4.578" /><path
             id="path40"
             style="fill:none;stroke:#ffffff;stroke-width:3.99993992;stroke-linecap:butt;stroke-linejoin:miter;stroke-miterlimit:4;stroke-dasharray:none;stroke-opacity:1"
             d="m 285.254,130.973 c 0,-2.532 -3.731,-4.582 -8.34,-4.582 -4.59,0 -8.32,2.05 -8.32,4.582 0,2.527 3.73,4.578 8.32,4.578 4.609,0 8.34,-2.051 8.34,-4.578 z" /><path
             id="path42"
             style="fill:#02709f;fill-opacity:1;fill-rule:nonzero;stroke:none"
             d="m 285.254,97.6406 c 0,-2.539 -3.731,-4.5898 -8.34,-4.5898 -4.59,0 -8.32,2.0508 -8.32,4.5898 0,2.5394 3.73,4.5894 8.32,4.5894 4.609,0 8.34,-2.05 8.34,-4.5894" /><path
             id="path44"
             style="fill:none;stroke:#ffffff;stroke-width:3.99993992;stroke-linecap:butt;stroke-linejoin:miter;stroke-miterlimit:4;stroke-dasharray:none;stroke-opacity:1"
             d="m 285.254,97.6406 c 0,-2.539 -3.731,-4.5898 -8.34,-4.5898 -4.59,0 -8.32,2.0508 -8.32,4.5898 0,2.5394 3.73,4.5894 8.32,4.5894 4.609,0 8.34,-2.05 8.34,-4.5894 z" /><path
             id="path46"
             style="fill:#02709f;fill-opacity:1;fill-rule:nonzero;stroke:none"
             d="m 285.254,64.3008 c 0,-2.5195 -3.731,-4.5703 -8.34,-4.5703 -4.59,0 -8.32,2.0508 -8.32,4.5703 0,2.539 3.73,4.5898 8.32,4.5898 4.609,0 8.34,-2.0508 8.34,-4.5898" /><path
             id="path48"
             style="fill:none;stroke:#ffffff;stroke-width:3.99993992;stroke-linecap:butt;stroke-linejoin:miter;stroke-miterlimit:4;stroke-dasharray:none;stroke-opacity:1"
             d="m 285.254,64.3008 c 0,-2.5195 -3.731,-4.5703 -8.34,-4.5703 -4.59,0 -8.32,2.0508 -8.32,4.5703 0,2.539 3.73,4.5898 8.32,4.5898 4.609,0 8.34,-2.0508 8.34,-4.5898 z" /><path
             id="path50"
             style="fill:#02709f;fill-opacity:1;fill-rule:nonzero;stroke:none"
             d="m 285.254,30.9805 c 0,-2.5391 -3.731,-4.5899 -8.34,-4.5899 -4.59,0 -8.32,2.0508 -8.32,4.5899 0,2.539 3.73,4.5898 8.32,4.5898 4.609,0 8.34,-2.0508 8.34,-4.5898" /><path
             id="path52"
             style="fill:none;stroke:#ffffff;stroke-width:3.99993992;stroke-linecap:butt;stroke-linejoin:miter;stroke-miterlimit:4;stroke-dasharray:none;stroke-opacity:1"
             d="m 285.254,30.9805 c 0,-2.5391 -3.731,-4.5899 -8.34,-4.5899 -4.59,0 -8.32,2.0508 -8.32,4.5899 0,2.539 3.73,4.5898 8.32,4.5898 4.609,0 8.34,-2.0508 8.34,-4.5898 z" /></g></g></g></g></svg>