<?xml version="1.0" encoding="UTF-8" standalone="no"?>
<svg
   xmlns:dc="http://purl.org/dc/elements/1.1/"
   xmlns:cc="http://creativecommons.org/ns#"
   xmlns:rdf="http://www.w3.org/1999/02/22-rdf-syntax-ns#"
   xmlns:svg="http://www.w3.org/2000/svg"
   xmlns="http://www.w3.org/2000/svg"
   viewBox="0 0 38.5 28.8125"
   height="28.8125"
   width="38.5"
   xml:space="preserve"
   version="1.1"
   id="svg2"><metadata
     id="metadata8"><rdf:RDF><cc:Work
         rdf:about=""><dc:format>image/svg+xml</dc:format><dc:type
           rdf:resource="http://purl.org/dc/dcmitype/StillImage" /></cc:Work></rdf:RDF></metadata><defs
     id="defs6" /><g
     transform="matrix(1.25,0,0,-1.25,0,28.8125)"
     id="g10"><g
       transform="scale(0.1,0.1)"
       id="g12"><path
         id="path14"
         style="fill:#02709f;fill-opacity:1;fill-rule:nonzero;stroke:none"
         d="m 4.04297,5.8125 209.844,0 0,49.2578 -209.844,0 0,-49.2578 z" /><path
         id="path16"
         style="fill:none;stroke:#ffffff;stroke-width:3.99993992;stroke-linecap:butt;stroke-linejoin:miter;stroke-miterlimit:4;stroke-dasharray:none;stroke-opacity:1"
         d="m 4.04297,5.8125 209.844,0 0,49.2578 -209.844,0 0,-49.2578 z" /><path
         id="path18"
         style="fill:#02709f;fill-opacity:1;fill-rule:nonzero;stroke:none"
         d="m 213.887,55.0703 -210.07841,0 99.84341,144.9027 200.782,0 -90.547,-144.9027" /><path
         id="path20"
         style="fill:none;stroke:#ffffff;stroke-width:3.99993992;stroke-linecap:butt;stroke-linejoin:miter;stroke-miterlimit:4;stroke-dasharray:none;stroke-opacity:1"
         d="m 213.887,55.0703 -210.07841,0 99.84341,144.9027 200.782,0 -90.547,-144.9027 z" /><path
         id="path22"
         style="fill:#02709f;fill-opacity:1;fill-rule:nonzero;stroke:none"
         d="m 304.434,197.813 0,-90.477 -90.547,-102.07037 0,47.63667 90.547,144.9107" /><path
         id="path24"
         style="fill:none;stroke:#ffffff;stroke-width:3.99993992;stroke-linecap:butt;stroke-linejoin:miter;stroke-miterlimit:4;stroke-dasharray:none;stroke-opacity:1"
         d="m 304.434,197.813 0,-90.477 -90.547,-102.07037 0,47.63667 90.547,144.9107 z" /><path
         id="path26"
         style="fill:#02709f;fill-opacity:1;fill-rule:nonzero;stroke:none"
         d="m 143.75,173.613 c -12.91,-14.812 -28.809,-32.097 -39.004,-48.867 l 0.859,-15.207 -31.7964,-49.1171 -3.6914,36.289 C 76.1719,120.898 151.25,215.969 168.516,227.199 l 5.859,-31.972 -29.824,-36.133 -0.801,14.519" /><path
         id="path28"
         style="fill:none;stroke:#ffffff;stroke-width:3.99993992;stroke-linecap:butt;stroke-linejoin:miter;stroke-miterlimit:4;stroke-dasharray:none;stroke-opacity:1"
         d="m 143.75,173.613 c -12.91,-14.812 -28.809,-32.097 -39.004,-48.867 l 0.859,-15.207 -31.7964,-49.1171 -3.6914,36.289 C 76.1719,120.898 151.25,215.969 168.516,227.199 l 5.859,-31.972 -29.824,-36.133 -0.801,14.519 z" /><path
         id="path30"
         style="fill:#02709f;fill-opacity:1;fill-rule:nonzero;stroke:none"
         d="m 32.5586,96.7109 -3.6914,-36.289 44.9414,0 -3.6914,36.289 -37.5586,0" /><path
         id="path32"
         style="fill:none;stroke:#ffffff;stroke-width:3.99993992;stroke-linecap:butt;stroke-linejoin:miter;stroke-miterlimit:4;stroke-dasharray:none;stroke-opacity:1"
         d="m 32.5586,96.7109 -3.6914,-36.289 44.9414,0 -3.6914,36.289 -37.5586,0 z" /><path
         id="path34"
         style="fill:#02709f;fill-opacity:1;fill-rule:nonzero;stroke:none"
         d="M 168.516,227.199 C 151.25,215.969 76.1719,120.898 70.1172,96.7109 l -37.5586,0 C 38.5938,120.898 113.672,215.969 130.957,227.199 l 37.559,0" /><path
         id="path36"
         style="fill:none;stroke:#ffffff;stroke-width:3.99993992;stroke-linecap:butt;stroke-linejoin:miter;stroke-miterlimit:4;stroke-dasharray:none;stroke-opacity:1"
         d="M 168.516,227.199 C 151.25,215.969 76.1719,120.898 70.1172,96.7109 l -37.5586,0 C 38.5938,120.898 113.672,215.969 130.957,227.199 l 37.559,0 z" /><path
         id="path38"
         style="fill:#02709f;fill-opacity:1;fill-rule:nonzero;stroke:none"
         d="m 112.246,69.6172 -13.5155,0 6.4645,7.5 13.535,0 -6.484,-7.5" /><path
         id="path40"
         style="fill:none;stroke:#ffffff;stroke-width:3.99993992;stroke-linecap:butt;stroke-linejoin:miter;stroke-miterlimit:4;stroke-dasharray:none;stroke-opacity:1"
         d="m 112.246,69.6172 -13.5155,0 6.4645,7.5 13.535,0 -6.484,-7.5 z" /><path
         id="path42"
         style="fill:#02709f;fill-opacity:1;fill-rule:nonzero;stroke:none"
         d="m 142.246,69.6172 -13.516,0 6.465,7.5 13.535,0 -6.484,-7.5" /><path
         id="path44"
         style="fill:none;stroke:#ffffff;stroke-width:3.99993992;stroke-linecap:butt;stroke-linejoin:miter;stroke-miterlimit:4;stroke-dasharray:none;stroke-opacity:1"
         d="m 142.246,69.6172 -13.516,0 6.465,7.5 13.535,0 -6.484,-7.5 z" /><path
         id="path46"
         style="fill:#02709f;fill-opacity:1;fill-rule:nonzero;stroke:none"
         d="m 172.246,69.6172 -13.516,0 6.465,7.5 13.535,0 -6.484,-7.5" /><path
         id="path48"
         style="fill:none;stroke:#ffffff;stroke-width:3.99993992;stroke-linecap:butt;stroke-linejoin:miter;stroke-miterlimit:4;stroke-dasharray:none;stroke-opacity:1"
         d="m 172.246,69.6172 -13.516,0 6.465,7.5 13.535,0 -6.484,-7.5 z" /><path
         id="path50"
         style="fill:#02709f;fill-opacity:1;fill-rule:nonzero;stroke:none"
         d="m 202.246,69.6172 -13.516,0 6.465,7.5 13.535,0 -6.484,-7.5" /><path
         id="path52"
         style="fill:none;stroke:#ffffff;stroke-width:3.99993992;stroke-linecap:butt;stroke-linejoin:miter;stroke-miterlimit:4;stroke-dasharray:none;stroke-opacity:1"
         d="m 202.246,69.6172 -13.516,0 6.465,7.5 13.535,0 -6.484,-7.5 z" /></g></g></svg>