<?xml version="1.0" encoding="UTF-8" standalone="no"?>
<svg
   xmlns:dc="http://purl.org/dc/elements/1.1/"
   xmlns:cc="http://creativecommons.org/ns#"
   xmlns:rdf="http://www.w3.org/1999/02/22-rdf-syntax-ns#"
   xmlns:svg="http://www.w3.org/2000/svg"
   xmlns="http://www.w3.org/2000/svg"
   viewBox="0 0 38.75 31.25"
   height="31.25"
   width="38.75"
   xml:space="preserve"
   version="1.1"
   id="svg2"><metadata
     id="metadata8"><rdf:RDF><cc:Work
         rdf:about=""><dc:format>image/svg+xml</dc:format><dc:type
           rdf:resource="http://purl.org/dc/dcmitype/StillImage" /></cc:Work></rdf:RDF></metadata><defs
     id="defs6" /><g
     transform="matrix(1.25,0,0,-1.25,0,31.25)"
     id="g10"><g
       transform="scale(0.1,0.1)"
       id="g12"><path
         id="path14"
         style="fill:#02709f;fill-opacity:1;fill-rule:nonzero;stroke:none"
         d="m 4.01953,15.8281 209.84,0 0,49.2617 -209.84,0 0,-49.2617 z" /><path
         id="path16"
         style="fill:none;stroke:#ffffff;stroke-width:3.99993992;stroke-linecap:butt;stroke-linejoin:miter;stroke-miterlimit:4;stroke-dasharray:none;stroke-opacity:1"
         d="m 4.01953,15.8242 209.84,0 0,49.2617 -209.84,0 0,-49.2617 z" /><path
         id="path18"
         style="fill:#02709f;fill-opacity:1;fill-rule:nonzero;stroke:none"
         d="m 213.871,65.0898 -210.08194,0 99.83994,144.8792 200.781,0 -90.539,-144.8792" /><path
         id="path20"
         style="fill:none;stroke:#ffffff;stroke-width:3.99993992;stroke-linecap:butt;stroke-linejoin:miter;stroke-miterlimit:4;stroke-dasharray:none;stroke-opacity:1"
         d="m 213.871,65.0859 -210.08194,0 99.83994,144.8791 200.781,0 -90.539,-144.8791 z" /><path
         id="path22"
         style="fill:#02709f;fill-opacity:1;fill-rule:nonzero;stroke:none"
         d="m 304.41,207.82 0,-90.468 -90.539,-102.0707 0,47.6171 90.539,144.9216" /><path
         id="path24"
         style="fill:none;stroke:#ffffff;stroke-width:3.99993992;stroke-linecap:butt;stroke-linejoin:miter;stroke-miterlimit:4;stroke-dasharray:none;stroke-opacity:1"
         d="m 304.41,207.816 0,-90.461 -90.539,-102.0698 0,47.6093 90.539,144.9215 z" /><path
         id="path26"
         style="fill:#02709f;fill-opacity:1;fill-rule:nonzero;stroke:none"
         d="M 143.75,183.602 C 130.82,168.801 114.922,151.531 104.73,134.73 l 0.86,-15.191 -31.8009,-49.0976 -3.668,36.2886 c 6.0508,24.18 81.1289,119.25 98.3989,130.461 l 5.859,-31.953 -29.848,-36.129 -0.781,14.493" /><path
         id="path28"
         style="fill:none;stroke:#ffffff;stroke-width:3.99993992;stroke-linecap:butt;stroke-linejoin:miter;stroke-miterlimit:4;stroke-dasharray:none;stroke-opacity:1"
         d="m 143.75,183.605 c -12.93,-14.808 -28.828,-32.07 -39.02,-48.871 l 0.86,-15.199 -31.8009,-49.1014 -3.668,36.2934 c 6.0508,24.179 81.1289,119.257 98.3989,130.468 l 5.859,-31.949 -29.848,-36.141 -0.781,14.5 z" /><path
         id="path30"
         style="fill:#02709f;fill-opacity:1;fill-rule:nonzero;stroke:none"
         d="m 32.5391,106.73 -3.668,-36.2886 44.918,0 -3.668,36.2886 -37.582,0" /><path
         id="path32"
         style="fill:none;stroke:#ffffff;stroke-width:3.99993992;stroke-linecap:butt;stroke-linejoin:miter;stroke-miterlimit:4;stroke-dasharray:none;stroke-opacity:1"
         d="m 32.5391,106.727 -3.668,-36.2934 44.918,0 -3.668,36.2934 -37.582,0 z" /><path
         id="path34"
         style="fill:#02709f;fill-opacity:1;fill-rule:nonzero;stroke:none"
         d="M 168.52,237.191 C 151.25,225.98 76.1719,130.91 70.1211,106.73 l -37.582,0 c 6.0507,24.18 81.1329,119.25 98.4019,130.461 l 37.579,0" /><path
         id="path36"
         style="fill:none;stroke:#ffffff;stroke-width:3.99993992;stroke-linecap:butt;stroke-linejoin:miter;stroke-miterlimit:4;stroke-dasharray:none;stroke-opacity:1"
         d="M 168.52,237.195 C 151.25,225.984 76.1719,130.906 70.1211,106.727 l -37.582,0 c 6.0507,24.179 81.1329,119.257 98.4019,130.468 l 37.579,0 z" /><path
         id="path38"
         style="fill:#02709f;fill-opacity:1;fill-rule:nonzero;stroke:none"
         d="m 112.23,79.6211 -13.5191,0 6.4881,7.5 13.512,0 -6.481,-7.5" /><path
         id="path40"
         style="fill:none;stroke:#ffffff;stroke-width:3.99993992;stroke-linecap:butt;stroke-linejoin:miter;stroke-miterlimit:4;stroke-dasharray:none;stroke-opacity:1"
         d="m 112.23,79.6133 -13.5191,0 6.4881,7.5 13.512,0 -6.481,-7.5 z" /><path
         id="path42"
         style="fill:#02709f;fill-opacity:1;fill-rule:nonzero;stroke:none"
         d="m 142.23,79.6211 -13.519,0 6.488,7.5 13.512,0 -6.481,-7.5" /><path
         id="path44"
         style="fill:none;stroke:#ffffff;stroke-width:3.99993992;stroke-linecap:butt;stroke-linejoin:miter;stroke-miterlimit:4;stroke-dasharray:none;stroke-opacity:1"
         d="m 142.23,79.6133 -13.519,0 6.488,7.5 13.512,0 -6.481,-7.5 z" /><path
         id="path46"
         style="fill:#02709f;fill-opacity:1;fill-rule:nonzero;stroke:none"
         d="m 172.23,79.6211 -13.519,0 6.488,7.5 13.512,0 -6.481,-7.5" /><path
         id="path48"
         style="fill:none;stroke:#ffffff;stroke-width:3.99993992;stroke-linecap:butt;stroke-linejoin:miter;stroke-miterlimit:4;stroke-dasharray:none;stroke-opacity:1"
         d="m 172.23,79.6133 -13.519,0 6.488,7.5 13.512,0 -6.481,-7.5 z" /><path
         id="path50"
         style="fill:#02709f;fill-opacity:1;fill-rule:nonzero;stroke:none"
         d="m 202.23,79.6211 -13.519,0 6.488,7.5 13.512,0 -6.481,-7.5" /><path
         id="path52"
         style="fill:none;stroke:#ffffff;stroke-width:3.99993992;stroke-linecap:butt;stroke-linejoin:miter;stroke-miterlimit:4;stroke-dasharray:none;stroke-opacity:1"
         d="m 202.23,79.6133 -13.519,0 6.488,7.5 13.512,0 -6.481,-7.5 z" /></g></g></svg>