<?xml version="1.0" encoding="UTF-8" standalone="no"?>
<svg
   xmlns:dc="http://purl.org/dc/elements/1.1/"
   xmlns:cc="http://creativecommons.org/ns#"
   xmlns:rdf="http://www.w3.org/1999/02/22-rdf-syntax-ns#"
   xmlns:svg="http://www.w3.org/2000/svg"
   xmlns="http://www.w3.org/2000/svg"
   viewBox="0 0 62.212502 31.950001"
   height="31.950001"
   width="62.212502"
   xml:space="preserve"
   version="1.1"
   id="svg2"><metadata
     id="metadata8"><rdf:RDF><cc:Work
         rdf:about=""><dc:format>image/svg+xml</dc:format><dc:type
           rdf:resource="http://purl.org/dc/dcmitype/StillImage" /></cc:Work></rdf:RDF></metadata><defs
     id="defs6" /><g
     transform="matrix(1.25,0,0,-1.25,0,31.95)"
     id="g10"><g
       transform="scale(0.1,0.1)"
       id="g12"><path
         id="path14"
         style="fill:#087fbf;fill-opacity:1;fill-rule:nonzero;stroke:none"
         d="m 492.906,50.4297 0,200.2733 -44.375,-45.519 0,-200.27384 44.375,45.51954" /><path
         id="path16"
         style="fill:none;stroke:#ffffff;stroke-width:4;stroke-linecap:butt;stroke-linejoin:miter;stroke-miterlimit:4;stroke-dasharray:none;stroke-opacity:1"
         d="m 492.906,50.4297 0,200.2733 -44.375,-45.519 0,-200.27384 44.375,45.51954 z" /><path
         id="path18"
         style="fill:#087fbf;fill-opacity:1;fill-rule:nonzero;stroke:none"
         d="m 4.74219,4.91016 443.789,0 0,200.273 -443.789,0 0,-200.273 z" /><path
         id="path20"
         style="fill:none;stroke:#ffffff;stroke-width:4;stroke-linecap:butt;stroke-linejoin:miter;stroke-miterlimit:4;stroke-dasharray:none;stroke-opacity:1"
         d="m 4.74219,4.91016 443.789,0 0,200.273 -443.789,0 0,-200.273 z" /><g
         transform="scale(10,10)"
         id="g22"><text
           id="text24"
           style="font-variant:normal;font-weight:normal;font-size:6.06898022px;font-family:Helvetica;-inkscape-font-specification:Helvetica;writing-mode:lr-tb;fill:#ffffff;fill-opacity:1;fill-rule:nonzero;stroke:none"
           transform="matrix(1,0,0,-1,10.2875,7.48984)"><tspan
             id="tspan26"
             y="0"
             x="0 4.0480099 5.7351861 9.109539 12.483891 14.171068 18.552872 21.927225 24.961714">X.25 Host</tspan></text>
</g><path
         id="path28"
         style="fill:#087fbf;fill-opacity:1;fill-rule:nonzero;stroke:none"
         d="m 49.1172,250.703 -44.37501,-45.519 443.78881,0 44.375,45.519 -443.7888,0" /><path
         id="path30"
         style="fill:none;stroke:#ffffff;stroke-width:4;stroke-linecap:butt;stroke-linejoin:miter;stroke-miterlimit:4;stroke-dasharray:none;stroke-opacity:1"
         d="m 49.1172,250.703 -44.37501,-45.519 443.78881,0 44.375,45.519 -443.7888,0 z" /></g></g></svg>