<?xml version="1.0" encoding="UTF-8" standalone="no"?>
<svg
   xmlns:dc="http://purl.org/dc/elements/1.1/"
   xmlns:cc="http://creativecommons.org/ns#"
   xmlns:rdf="http://www.w3.org/1999/02/22-rdf-syntax-ns#"
   xmlns:svg="http://www.w3.org/2000/svg"
   xmlns="http://www.w3.org/2000/svg"
   viewBox="0 0 62.5 33.75"
   height="33.75"
   width="62.5"
   xml:space="preserve"
   version="1.1"
   id="svg2"><metadata
     id="metadata8"><rdf:RDF><cc:Work
         rdf:about=""><dc:format>image/svg+xml</dc:format><dc:type
           rdf:resource="http://purl.org/dc/dcmitype/StillImage" /></cc:Work></rdf:RDF></metadata><defs
     id="defs6" /><g
     transform="matrix(1.25,0,0,-1.25,0,33.75)"
     id="g10"><g
       transform="scale(0.1,0.1)"
       id="g12"><path
         id="path14"
         style="fill:#087fbf;fill-opacity:1;fill-rule:nonzero;stroke:none"
         d="m 492.891,60.4297 0,200.2693 -44.371,-45.5 0,-200.2771 44.371,45.5078" /><path
         id="path16"
         style="fill:none;stroke:#ffffff;stroke-width:4;stroke-linecap:butt;stroke-linejoin:miter;stroke-miterlimit:4;stroke-dasharray:none;stroke-opacity:1"
         d="m 492.891,60.4258 0,200.2812 -44.371,-45.512 0,-200.2692 44.371,45.5 z" /><path
         id="path18"
         style="fill:#087fbf;fill-opacity:1;fill-rule:nonzero;stroke:none"
         d="m 4.73047,14.9297 443.789,0 0,200.27 -443.789,0 0,-200.27 z" /><path
         id="path20"
         style="fill:none;stroke:#ffffff;stroke-width:4;stroke-linecap:butt;stroke-linejoin:miter;stroke-miterlimit:4;stroke-dasharray:none;stroke-opacity:1"
         d="m 4.73047,14.9258 443.789,0 0,200.27 -443.789,0 0,-200.27 z" /><g
         transform="scale(10,10)"
         id="g22"><text
           id="text24"
           style="font-variant:normal;font-weight:normal;font-size:6.06898022px;font-family:Helvetica;-inkscape-font-specification:Helvetica;writing-mode:lr-tb;fill:#ffffff;fill-opacity:1;fill-rule:nonzero;stroke:none"
           transform="matrix(1,0,0,-1,10.2875,8.49062)"><tspan
             id="tspan26"
             y="0"
             x="0 4.0480099 5.7351861 9.109539 12.483891 14.171068 18.552872 21.927225 24.961714">X.25 Host</tspan></text>
</g><path
         id="path28"
         style="fill:#087fbf;fill-opacity:1;fill-rule:nonzero;stroke:none"
         d="m 49.1016,260.699 -44.37113,-45.5 443.78953,0 44.371,45.5 -443.7894,0" /><path
         id="path30"
         style="fill:none;stroke:#ffffff;stroke-width:4;stroke-linecap:butt;stroke-linejoin:miter;stroke-miterlimit:4;stroke-dasharray:none;stroke-opacity:1"
         d="m 49.1016,260.707 -44.37113,-45.512 443.78953,0 44.371,45.512 -443.7894,0 z" /></g></g></svg>