<?xml version="1.0" encoding="UTF-8" standalone="no"?>
<svg
   xmlns:dc="http://purl.org/dc/elements/1.1/"
   xmlns:cc="http://creativecommons.org/ns#"
   xmlns:rdf="http://www.w3.org/1999/02/22-rdf-syntax-ns#"
   xmlns:svg="http://www.w3.org/2000/svg"
   xmlns="http://www.w3.org/2000/svg"
   viewBox="0 0 46.450001 31.475"
   height="31.475"
   width="46.450001"
   xml:space="preserve"
   version="1.1"
   id="svg2"><metadata
     id="metadata8"><rdf:RDF><cc:Work
         rdf:about=""><dc:format>image/svg+xml</dc:format><dc:type
           rdf:resource="http://purl.org/dc/dcmitype/StillImage" /></cc:Work></rdf:RDF></metadata><defs
     id="defs6"><clipPath
       id="clipPath18"
       clipPathUnits="userSpaceOnUse"><path
         id="path20"
         d="m 0,1.81641 370,0 0,250 -370,0 0,-250 z" /></clipPath></defs><g
     transform="matrix(1.25,0,0,-1.25,0,31.475)"
     id="g10"><g
       transform="scale(0.1,0.1)"
       id="g12"><g
         id="g14"><g
           clip-path="url(#clipPath18)"
           id="g16"><path
             id="path22"
             style="fill:#087fbf;fill-opacity:1;fill-rule:nonzero;stroke:none"
             d="m 369.848,178.301 c 0,-39.512 -82.344,-71.535 -183.918,-71.535 C 84.3477,106.766 2,138.789 2,178.301 L 2,73.5234 c 0,-39.5 82.3477,-71.53121 183.93,-71.53121 101.574,0 183.918,32.03121 183.918,71.53121 l 0,104.7776" /><path
             id="path24"
             style="fill:none;stroke:#ffffff;stroke-width:4;stroke-linecap:butt;stroke-linejoin:miter;stroke-miterlimit:4;stroke-dasharray:none;stroke-opacity:1"
             d="m 369.848,178.301 c 0,-39.512 -82.344,-71.535 -183.918,-71.535 C 84.3477,106.766 2,138.789 2,178.301 L 2,73.5234 c 0,-39.5 82.3477,-71.53121 183.93,-71.53121 101.574,0 183.918,32.03121 183.918,71.53121 l 0,104.7776 z" /><path
             id="path26"
             style="fill:#087fbf;fill-opacity:1;fill-rule:nonzero;stroke:none"
             d="m 185.93,106.766 c 101.574,0 183.918,32.023 183.918,71.535 0,39.5 -82.344,71.523 -183.918,71.523 C 84.3477,249.824 2,217.801 2,178.301 2,138.789 84.3477,106.766 185.93,106.766" /><path
             id="path28"
             style="fill:none;stroke:#ffffff;stroke-width:4;stroke-linecap:butt;stroke-linejoin:miter;stroke-miterlimit:4;stroke-dasharray:none;stroke-opacity:1"
             d="m 185.93,106.766 c 101.574,0 183.918,32.023 183.918,71.535 0,39.5 -82.344,71.523 -183.918,71.523 C 84.3477,249.824 2,217.801 2,178.301 2,138.789 84.3477,106.766 185.93,106.766 Z" /><path
             id="path30"
             style="fill:#ffffff;fill-opacity:1;fill-rule:nonzero;stroke:none"
             d="m 143.926,206.258 15.183,-22.781 -57.421,-13.274 12.55,10.461 -88.7497,15.156 22.2656,16.688 85.6371,-14.5 10.535,8.25" /><path
             id="path32"
             style="fill:#ffffff;fill-opacity:1;fill-rule:nonzero;stroke:none"
             d="m 224.73,151.016 -10.371,23.484 51.797,10.352 -8.984,-8.055 86.328,-14.727 -20.703,-16.582 -85.82,16.114 -12.247,-10.586" /><path
             id="path34"
             style="fill:#ffffff;fill-opacity:1;fill-rule:nonzero;stroke:none"
             d="m 196.41,218.691 58.008,15.887 0.684,-24.863 -14.493,2.765 -28.32,-23.476 -27.016,3.926 29.223,22.988 -18.086,2.773" /><path
             id="path36"
             style="fill:#ffffff;fill-opacity:1;fill-rule:nonzero;stroke:none"
             d="m 171.543,129.598 -55.242,-10.352 -2.071,25.559 15.875,-3.457 30.415,25.965 26.914,-4.551 -32.461,-28.321 16.57,-4.843" /><g
             transform="scale(10,10)"
             id="g38"><text
               id="text40"
               style="font-variant:normal;font-weight:bold;font-size:9px;font-family:Helvetica;-inkscape-font-specification:Helvetica-Bold;writing-mode:lr-tb;fill:#ffffff;fill-opacity:1;fill-rule:nonzero;stroke:none"
               transform="matrix(1,0,0,-1,11.6387,2.55469)"><tspan
                 id="tspan42"
                 y="0"
                 x="0 2.5020001 9">IAD</tspan></text>
</g></g></g></g></g></svg>