<svg xmlns="http://www.w3.org/2000/svg" viewBox="0 0 46.25 31.25" height="31.25" width="46.25"><path d="M46.23 9.19c0 4.941-10.293 8.94-22.987 8.94-12.7 0-22.994-3.999-22.994-8.94v13.095c0 4.941 10.293 8.945 22.994 8.945 12.695 0 22.987-4.004 22.987-8.945V9.19" fill="#087fbf"/><path d="M46.23 9.19c0 4.941-10.293 8.94-22.987 8.94-12.7 0-22.994-3.999-22.994-8.94v13.095c0 4.941 10.293 8.945 22.994 8.945 12.695 0 22.987-4.004 22.987-8.945V9.19z" fill="none" stroke="#fff" stroke-width=".5"/><path d="M23.243 18.13c12.695 0 22.987-3.999 22.987-8.94 0-4.938-10.292-8.942-22.987-8.942C10.543.248.249 4.252.249 9.19c0 4.941 10.293 8.94 22.994 8.94" fill="#087fbf"/><path d="M23.243 18.13c12.695 0 22.987-3.999 22.987-8.94 0-4.938-10.292-8.942-22.987-8.942C10.543.248.249 4.252.249 9.19c0 4.941 10.293 8.94 22.994 8.94z" fill="none" stroke="#fff" stroke-width=".5"/><path d="M17.994 5.694l1.894 2.846-7.178 1.66 1.567-1.304L3.19 7.002l2.777-2.09 10.709 1.812 1.319-1.03M28.091 12.598l-1.294-2.935 6.474-1.294-1.122 1.006 10.791 1.846-2.589 2.07-10.728-2.016-1.532 1.323M24.551 4.14l7.25-1.986.09 3.11-1.813-.346-3.54 2.933-3.38-.492 3.653-2.872-2.26-.347M21.445 15.279l-6.909 1.293-.259-3.198 1.988.435 3.799-3.248 3.364.571-4.058 3.54 2.075.607" fill="#fff"/><text style="-inkscape-font-specification:Helvetica-Bold" transform="matrix(1.25 0 0 1.25 14.548 28.284)" font-weight="700" font-size="9" font-family="Helvetica" fill="#fff"><tspan y="0" x="0 2.5020001 9">IAD</tspan></text></svg>