<?xml version="1.0" encoding="UTF-8" standalone="no"?>
<svg
   xmlns:dc="http://purl.org/dc/elements/1.1/"
   xmlns:cc="http://creativecommons.org/ns#"
   xmlns:rdf="http://www.w3.org/1999/02/22-rdf-syntax-ns#"
   xmlns:svg="http://www.w3.org/2000/svg"
   xmlns="http://www.w3.org/2000/svg"
   xmlns:sodipodi="http://sodipodi.sourceforge.net/DTD/sodipodi-0.dtd"
   xmlns:inkscape="http://www.inkscape.org/namespaces/inkscape"
   viewBox="0 0 29.999996 42.25"
   height="42.25"
   width="29.999996"
   xml:space="preserve"
   version="1.1"
   id="svg2"
   inkscape:version="0.91 r13725"
   sodipodi:docname="ibmmainframe.svg"><sodipodi:namedview
     pagecolor="#ffffff"
     bordercolor="#666666"
     borderopacity="1"
     objecttolerance="10"
     gridtolerance="10"
     guidetolerance="10"
     inkscape:pageopacity="0"
     inkscape:pageshadow="2"
     inkscape:window-width="640"
     inkscape:window-height="480"
     id="namedview29"
     showgrid="false"
     inkscape:zoom="5.5808456"
     inkscape:cx="15.093746"
     inkscape:cy="21.143751"
     inkscape:window-x="0"
     inkscape:window-y="23"
     inkscape:window-maximized="0"
     inkscape:current-layer="svg2" /><metadata
     id="metadata8"><rdf:RDF><cc:Work
         rdf:about=""><dc:format>image/svg+xml</dc:format><dc:type
           rdf:resource="http://purl.org/dc/dcmitype/StillImage" /></cc:Work></rdf:RDF></metadata><defs
     id="defs6"><clipPath
       id="clipPath18"
       clipPathUnits="userSpaceOnUse"><path
         id="path20"
         d="M 0,0 0,338 240,338 240,0 0,0 Z"
         inkscape:connector-curvature="0" /></clipPath></defs><g
     transform="matrix(1.25,0,0,-1.25,-3.7550926e-6,42.25)"
     id="g10"><g
       transform="scale(0.1,0.1)"
       id="g12"><g
         id="g14"><g
           clip-path="url(#clipPath18)"
           id="g16"><path
             id="path22"
             style="fill:#02709f;fill-opacity:1;fill-rule:nonzero;stroke:none"
             d="m 184.324,279.523 -89.2263,0 0.4804,-266.9957 88.7459,0 0,266.9957"
             inkscape:connector-curvature="0" /><path
             id="path24"
             style="fill:none;stroke:#ffffff;stroke-width:3.99993992;stroke-linecap:butt;stroke-linejoin:miter;stroke-miterlimit:4;stroke-dasharray:none;stroke-opacity:1"
             d="m 184.324,279.523 -89.2263,0 0.4804,-266.9957 88.7459,0 0,266.9957 z"
             inkscape:connector-curvature="0" /><path
             id="path26"
             style="fill:#02709f;fill-opacity:1;fill-rule:nonzero;stroke:none"
             d="m 107.781,182.219 62.9492,0 0,60.418 -62.9492,0 0,-60.418 z"
             inkscape:connector-curvature="0" /><path
             id="path28"
             style="fill:none;stroke:#ffffff;stroke-width:3.99993992;stroke-linecap:butt;stroke-linejoin:miter;stroke-miterlimit:4;stroke-dasharray:none;stroke-opacity:1"
             d="m 107.781,182.219 62.9492,0 0,60.418 -62.9492,0 0,-60.418 z"
             inkscape:connector-curvature="0" /><path
             id="path30"
             style="fill:#02709f;fill-opacity:1;fill-rule:nonzero;stroke:none"
             d="m 237.258,333.293 -52.817,-54.863 0,-265.9573 52.786,62.5546 0.031,258.2657"
             inkscape:connector-curvature="0" /><path
             id="path32"
             style="fill:none;stroke:#ffffff;stroke-width:3.99993992;stroke-linecap:butt;stroke-linejoin:miter;stroke-miterlimit:4;stroke-dasharray:none;stroke-opacity:1"
             d="m 237.258,333.293 -52.817,-54.863 0,-265.9573 52.786,62.5546 0.031,258.2657 z"
             inkscape:connector-curvature="0" /><path
             id="path34"
             style="fill:#02709f;fill-opacity:1;fill-rule:nonzero;stroke:none"
             d="m 17.6289,281.074 73.0664,0"
             inkscape:connector-curvature="0" /><path
             id="path36"
             style="fill:none;stroke:#ffffff;stroke-width:3.99993992;stroke-linecap:butt;stroke-linejoin:miter;stroke-miterlimit:4;stroke-dasharray:none;stroke-opacity:1"
             d="m 17.6289,281.074 73.0664,0"
             inkscape:connector-curvature="0" /><path
             id="path38"
             style="fill:#02709f;fill-opacity:1;fill-rule:nonzero;stroke:none"
             d="m 105.574,289.922 33.559,36.738"
             inkscape:connector-curvature="0" /><path
             id="path40"
             style="fill:none;stroke:#ffffff;stroke-width:3.99993992;stroke-linecap:butt;stroke-linejoin:miter;stroke-miterlimit:4;stroke-dasharray:none;stroke-opacity:1"
             d="m 105.574,289.922 33.559,36.738"
             inkscape:connector-curvature="0" /><path
             id="path42"
             style="fill:#02709f;fill-opacity:1;fill-rule:nonzero;stroke:none"
             d="m 92.2344,275.539 c 0,0 -0.418,-17.676 -32.5938,-17.316 l -56.93357,8.711 0,3.418 80.05857,63.847 154.0584,-0.144 -51.914,-54.512 -89.2381,0"
             inkscape:connector-curvature="0" /><path
             id="path44"
             style="fill:none;stroke:#ffffff;stroke-width:3.99993992;stroke-linecap:butt;stroke-linejoin:miter;stroke-miterlimit:4;stroke-dasharray:none;stroke-opacity:1"
             d="m 92.2344,275.539 c 0,0 -0.418,-17.676 -32.5938,-17.316 l -56.93357,8.711 0,3.418 80.05857,63.847 154.0584,-0.144 -51.914,-54.512 -89.2381,0"
             inkscape:connector-curvature="0" /><path
             id="path46"
             style="fill:#02709f;fill-opacity:1;fill-rule:nonzero;stroke:none"
             d="m 94.9531,278.605 c 0,0 -25.8515,-15.195 -55.5468,-11.769 L 2,270 2,3.58594 39.4063,1.99219 C 77.3516,-1.30859 95.1055,12.3359 95.1055,12.3359 L 94.9531,278.605"
             inkscape:connector-curvature="0" /><path
             id="path48"
             style="fill:none;stroke:#ffffff;stroke-width:3.99993992;stroke-linecap:butt;stroke-linejoin:miter;stroke-miterlimit:4;stroke-dasharray:none;stroke-opacity:1"
             d="m 94.9531,278.605 c 0,0 -25.8515,-15.195 -55.5468,-11.769 L 2,270 2,3.58594 39.4063,1.99219 C 77.3516,-1.30859 95.1055,12.3359 95.1055,12.3359 L 94.9531,278.605 Z"
             inkscape:connector-curvature="0" /><path
             id="path50"
             style="fill:#02709f;fill-opacity:1;fill-rule:nonzero;stroke:none"
             d="m 18.3398,282.297 73.0743,0"
             inkscape:connector-curvature="0" /><path
             id="path52"
             style="fill:none;stroke:#ffffff;stroke-width:3.99993992;stroke-linecap:butt;stroke-linejoin:miter;stroke-miterlimit:4;stroke-dasharray:none;stroke-opacity:1"
             d="m 18.3398,282.297 73.0743,0"
             inkscape:connector-curvature="0" /><path
             id="path54"
             style="fill:#02709f;fill-opacity:1;fill-rule:nonzero;stroke:none"
             d="m 112.898,291.133 40.082,36.961"
             inkscape:connector-curvature="0" /><path
             id="path56"
             style="fill:none;stroke:#ffffff;stroke-width:3.99993992;stroke-linecap:butt;stroke-linejoin:miter;stroke-miterlimit:4;stroke-dasharray:none;stroke-opacity:1"
             d="m 112.898,291.133 40.082,36.961"
             inkscape:connector-curvature="0" /></g></g></g></g></svg>