<?xml version="1.0" encoding="UTF-8" standalone="no"?>
<svg
   xmlns:dc="http://purl.org/dc/elements/1.1/"
   xmlns:cc="http://creativecommons.org/ns#"
   xmlns:rdf="http://www.w3.org/1999/02/22-rdf-syntax-ns#"
   xmlns:svg="http://www.w3.org/2000/svg"
   xmlns="http://www.w3.org/2000/svg"
   viewBox="0 0 23.025 46.412498"
   height="46.412498"
   width="23.025"
   xml:space="preserve"
   version="1.1"
   id="svg2"><metadata
     id="metadata8"><rdf:RDF><cc:Work
         rdf:about=""><dc:format>image/svg+xml</dc:format><dc:type
           rdf:resource="http://purl.org/dc/dcmitype/StillImage" /></cc:Work></rdf:RDF></metadata><defs
     id="defs6"><clipPath
       id="clipPath18"
       clipPathUnits="userSpaceOnUse"><path
         id="path20"
         d="M 0,1 0,371 180,371 180,1 0,1 Z" /></clipPath></defs><g
     transform="matrix(1.25,0,0,-1.25,0,46.4125)"
     id="g10"><g
       transform="scale(0.1,0.1)"
       id="g12"><g
         id="g14"><g
           clip-path="url(#clipPath18)"
           id="g16"><path
             id="path22"
             style="fill:#087fbf;fill-opacity:1;fill-rule:nonzero;stroke:none"
             d="m 16.6406,3.76953 17.5586,-1.76562 73.3598,0 17.968,1.9414 9.981,7.74219 0.957,4.1641 0.293,285.4184 -131.07441,0 L 5.45703,11.9805 16.6406,3.76953" /><path
             id="path24"
             style="fill:none;stroke:#ffffff;stroke-width:4;stroke-linecap:butt;stroke-linejoin:miter;stroke-miterlimit:4;stroke-dasharray:none;stroke-opacity:1"
             d="m 16.6406,3.76953 17.5586,-1.76562 73.3598,0 17.968,1.9414 9.981,7.74219 0.957,4.1641 0.293,285.4184 -131.07441,0 L 5.45703,11.9805 16.6406,3.76953 Z" /><path
             id="path26"
             style="fill:#087fbf;fill-opacity:1;fill-rule:nonzero;stroke:none"
             d="M 179.199,366.66 136.887,326.816 136.582,16.7969 179.395,65.7695 179.199,366.66" /><path
             id="path28"
             style="fill:none;stroke:#ffffff;stroke-width:4;stroke-linecap:butt;stroke-linejoin:miter;stroke-miterlimit:4;stroke-dasharray:none;stroke-opacity:1"
             d="M 179.199,366.66 136.887,326.816 136.582,16.7969 179.395,65.7695 179.199,366.66 Z" /><path
             id="path30"
             style="fill:#087fbf;fill-opacity:1;fill-rule:nonzero;stroke:none"
             d="m 137.129,301.961 41.914,40.644" /><path
             id="path32"
             style="fill:none;stroke:#ffffff;stroke-width:4;stroke-linecap:butt;stroke-linejoin:miter;stroke-miterlimit:4;stroke-dasharray:none;stroke-opacity:1"
             d="m 137.129,301.961 41.914,40.644" /><path
             id="path34"
             style="fill:#087fbf;fill-opacity:1;fill-rule:nonzero;stroke:none"
             d="m 129.855,275.906 0,5.801" /><path
             id="path36"
             style="fill:none;stroke:#ffffff;stroke-width:4;stroke-linecap:butt;stroke-linejoin:miter;stroke-miterlimit:4;stroke-dasharray:none;stroke-opacity:1"
             d="m 129.855,275.906 0,5.801" /><path
             id="path38"
             style="fill:#087fbf;fill-opacity:1;fill-rule:nonzero;stroke:none"
             d="m 129.855,275.906 0,5.801" /><path
             id="path40"
             style="fill:none;stroke:#ffffff;stroke-width:4;stroke-linecap:butt;stroke-linejoin:miter;stroke-miterlimit:4;stroke-dasharray:none;stroke-opacity:1"
             d="m 129.855,275.906 0,5.801" /><path
             id="path42"
             style="fill:#087fbf;fill-opacity:1;fill-rule:nonzero;stroke:none"
             d="m 136.582,39.5039 41.555,45.3789" /><path
             id="path44"
             style="fill:none;stroke:#ffffff;stroke-width:4;stroke-linecap:butt;stroke-linejoin:miter;stroke-miterlimit:4;stroke-dasharray:none;stroke-opacity:1"
             d="m 136.582,39.5039 41.555,45.3789" /><path
             id="path46"
             style="fill:#087fbf;fill-opacity:1;fill-rule:nonzero;stroke:none"
             d="M 43.5156,366.766 179.199,366.66 136.887,326.816 c 0,0 -54.2112,-19.55 -132.96122,1.825 l 39.58982,38.125" /><path
             id="path48"
             style="fill:none;stroke:#ffffff;stroke-width:4;stroke-linecap:butt;stroke-linejoin:miter;stroke-miterlimit:4;stroke-dasharray:none;stroke-opacity:1"
             d="M 43.5156,366.766 179.199,366.66 136.887,326.816 c 0,0 -54.2112,-19.55 -132.96122,1.825 l 39.58982,38.125 z" /><path
             id="path50"
             style="fill:#087fbf;fill-opacity:1;fill-rule:nonzero;stroke:none"
             d="M 3.92578,328.641 C 82.6758,307.266 136.887,326.816 136.887,326.816 l -0.012,-24.347 c 0,0 -54.2773,-20 -133.04687,1.379 l 0.09765,24.793" /><path
             id="path52"
             style="fill:none;stroke:#ffffff;stroke-width:4;stroke-linecap:butt;stroke-linejoin:miter;stroke-miterlimit:4;stroke-dasharray:none;stroke-opacity:1"
             d="M 3.92578,328.641 C 82.6758,307.266 136.887,326.816 136.887,326.816 l -0.012,-24.347 c 0,0 -54.2773,-20 -133.04687,1.379 l 0.09765,24.793 z" /><path
             id="path54"
             style="fill:#087fbf;fill-opacity:1;fill-rule:nonzero;stroke:none"
             d="m 135.664,209.973 -129.74603,0 0,-3.879" /><path
             id="path56"
             style="fill:none;stroke:#ffffff;stroke-width:4;stroke-linecap:butt;stroke-linejoin:miter;stroke-miterlimit:4;stroke-dasharray:none;stroke-opacity:1"
             d="m 135.664,209.973 -129.74603,0 0,-3.879" /><path
             id="path58"
             style="fill:#087fbf;fill-opacity:1;fill-rule:nonzero;stroke:none"
             d="m 6.28906,256.543 129.75794,0" /><path
             id="path60"
             style="fill:none;stroke:#ffffff;stroke-width:4;stroke-linecap:butt;stroke-linejoin:miter;stroke-miterlimit:4;stroke-dasharray:none;stroke-opacity:1"
             d="m 6.28906,256.543 129.75794,0" /><path
             id="path62"
             style="fill:#087fbf;fill-opacity:1;fill-rule:nonzero;stroke:none"
             d="M 6.28906,236.113 136.047,236.152" /><path
             id="path64"
             style="fill:none;stroke:#ffffff;stroke-width:4;stroke-linecap:butt;stroke-linejoin:miter;stroke-miterlimit:4;stroke-dasharray:none;stroke-opacity:1"
             d="M 6.28906,236.113 136.047,236.152" /><path
             id="path66"
             style="fill:#087fbf;fill-opacity:1;fill-rule:nonzero;stroke:none"
             d="m 6.28906,256.543 129.75794,0" /><path
             id="path68"
             style="fill:none;stroke:#ffffff;stroke-width:4;stroke-linecap:butt;stroke-linejoin:miter;stroke-miterlimit:4;stroke-dasharray:none;stroke-opacity:1"
             d="m 6.28906,256.543 129.75794,0" /><path
             id="path70"
             style="fill:#087fbf;fill-opacity:1;fill-rule:nonzero;stroke:none"
             d="m 6.42578,195.809 9.98052,-7.743 17.9687,-1.945" /><path
             id="path72"
             style="fill:none;stroke:#ffffff;stroke-width:4;stroke-linecap:butt;stroke-linejoin:miter;stroke-miterlimit:4;stroke-dasharray:none;stroke-opacity:1"
             d="m 6.42578,195.809 9.98052,-7.743 17.9687,-1.945" /><path
             id="path74"
             style="fill:#087fbf;fill-opacity:1;fill-rule:nonzero;stroke:none"
             d="m 13.7188,266.223 116.254,0 0,15.8359 -116.254,0 0,-15.8359 z" /><path
             id="path76"
             style="fill:none;stroke:#ffffff;stroke-width:4;stroke-linecap:butt;stroke-linejoin:miter;stroke-miterlimit:4;stroke-dasharray:none;stroke-opacity:1"
             d="m 13.7188,266.223 116.254,0 0,15.8359 -116.254,0 0,-15.8359 z" /><path
             id="path78"
             style="fill:#087fbf;fill-opacity:1;fill-rule:nonzero;stroke:none"
             d="m 34.1992,199.871 73.3598,0 17.968,1.945 9.981,7.743" /><path
             id="path80"
             style="fill:none;stroke:#ffffff;stroke-width:4;stroke-linecap:butt;stroke-linejoin:miter;stroke-miterlimit:4;stroke-dasharray:none;stroke-opacity:1"
             d="m 34.1992,199.871 73.3598,0 17.968,1.945 9.981,7.743" /><path
             id="path82"
             style="fill:#087fbf;fill-opacity:1;fill-rule:nonzero;stroke:none"
             d="m 34.1992,186.172 73.3598,0 17.968,1.941 9.981,7.739" /><path
             id="path84"
             style="fill:none;stroke:#ffffff;stroke-width:4;stroke-linecap:butt;stroke-linejoin:miter;stroke-miterlimit:4;stroke-dasharray:none;stroke-opacity:1"
             d="m 34.1992,186.172 73.3598,0 17.968,1.941 9.981,7.739" /><path
             id="path86"
             style="fill:#087fbf;fill-opacity:1;fill-rule:nonzero;stroke:none"
             d="m 6.25,209.559 9.9805,-7.743 17.9687,-1.945" /><path
             id="path88"
             style="fill:none;stroke:#ffffff;stroke-width:4;stroke-linecap:butt;stroke-linejoin:miter;stroke-miterlimit:4;stroke-dasharray:none;stroke-opacity:1"
             d="m 6.25,209.559 9.9805,-7.743 17.9687,-1.945" /><path
             id="path90"
             style="fill:#087fbf;fill-opacity:1;fill-rule:nonzero;stroke:none"
             d="m 6.42578,167.371 9.98052,-7.742 17.9687,-1.945" /><path
             id="path92"
             style="fill:none;stroke:#ffffff;stroke-width:4;stroke-linecap:butt;stroke-linejoin:miter;stroke-miterlimit:4;stroke-dasharray:none;stroke-opacity:1"
             d="m 6.42578,167.371 9.98052,-7.742 17.9687,-1.945" /><path
             id="path94"
             style="fill:#087fbf;fill-opacity:1;fill-rule:nonzero;stroke:none"
             d="m 34.1992,171.434 73.3598,0 17.968,1.945 9.981,7.742" /><path
             id="path96"
             style="fill:none;stroke:#ffffff;stroke-width:4;stroke-linecap:butt;stroke-linejoin:miter;stroke-miterlimit:4;stroke-dasharray:none;stroke-opacity:1"
             d="m 34.1992,171.434 73.3598,0 17.968,1.945 9.981,7.742" /><path
             id="path98"
             style="fill:#087fbf;fill-opacity:1;fill-rule:nonzero;stroke:none"
             d="m 34.1992,157.734 73.3598,0 17.968,1.946 9.981,7.73" /><path
             id="path100"
             style="fill:none;stroke:#ffffff;stroke-width:4;stroke-linecap:butt;stroke-linejoin:miter;stroke-miterlimit:4;stroke-dasharray:none;stroke-opacity:1"
             d="m 34.1992,157.734 73.3598,0 17.968,1.946 9.981,7.73" /><path
             id="path102"
             style="fill:#087fbf;fill-opacity:1;fill-rule:nonzero;stroke:none"
             d="m 6.25,181.121 9.9805,-7.742 17.9687,-1.945" /><path
             id="path104"
             style="fill:none;stroke:#ffffff;stroke-width:4;stroke-linecap:butt;stroke-linejoin:miter;stroke-miterlimit:4;stroke-dasharray:none;stroke-opacity:1"
             d="m 6.25,181.121 9.9805,-7.742 17.9687,-1.945" /><path
             id="path106"
             style="fill:#087fbf;fill-opacity:1;fill-rule:nonzero;stroke:none"
             d="m 6.42578,138.934 9.98052,-7.743 17.9687,-1.945" /><path
             id="path108"
             style="fill:none;stroke:#ffffff;stroke-width:4;stroke-linecap:butt;stroke-linejoin:miter;stroke-miterlimit:4;stroke-dasharray:none;stroke-opacity:1"
             d="m 6.42578,138.934 9.98052,-7.743 17.9687,-1.945" /><path
             id="path110"
             style="fill:#087fbf;fill-opacity:1;fill-rule:nonzero;stroke:none"
             d="m 34.1992,142.996 73.3598,0 17.968,1.945 9.981,7.743" /><path
             id="path112"
             style="fill:none;stroke:#ffffff;stroke-width:4;stroke-linecap:butt;stroke-linejoin:miter;stroke-miterlimit:4;stroke-dasharray:none;stroke-opacity:1"
             d="m 34.1992,142.996 73.3598,0 17.968,1.945 9.981,7.743" /><path
             id="path114"
             style="fill:#087fbf;fill-opacity:1;fill-rule:nonzero;stroke:none"
             d="m 34.1992,129.297 73.3598,0 17.968,1.941 9.981,7.739" /><path
             id="path116"
             style="fill:none;stroke:#ffffff;stroke-width:4;stroke-linecap:butt;stroke-linejoin:miter;stroke-miterlimit:4;stroke-dasharray:none;stroke-opacity:1"
             d="m 34.1992,129.297 73.3598,0 17.968,1.941 9.981,7.739" /><path
             id="path118"
             style="fill:#087fbf;fill-opacity:1;fill-rule:nonzero;stroke:none"
             d="m 6.25,152.684 9.9805,-7.743 17.9687,-1.945" /><path
             id="path120"
             style="fill:none;stroke:#ffffff;stroke-width:4;stroke-linecap:butt;stroke-linejoin:miter;stroke-miterlimit:4;stroke-dasharray:none;stroke-opacity:1"
             d="m 6.25,152.684 9.9805,-7.743 17.9687,-1.945" /><path
             id="path122"
             style="fill:#087fbf;fill-opacity:1;fill-rule:nonzero;stroke:none"
             d="m 6.42578,110.496 9.98052,-7.742 17.9687,-1.945" /><path
             id="path124"
             style="fill:none;stroke:#ffffff;stroke-width:4;stroke-linecap:butt;stroke-linejoin:miter;stroke-miterlimit:4;stroke-dasharray:none;stroke-opacity:1"
             d="m 6.42578,110.496 9.98052,-7.742 17.9687,-1.945" /><path
             id="path126"
             style="fill:#087fbf;fill-opacity:1;fill-rule:nonzero;stroke:none"
             d="m 34.1992,114.559 73.3598,0 17.968,1.945 9.981,7.742" /><path
             id="path128"
             style="fill:none;stroke:#ffffff;stroke-width:4;stroke-linecap:butt;stroke-linejoin:miter;stroke-miterlimit:4;stroke-dasharray:none;stroke-opacity:1"
             d="m 34.1992,114.559 73.3598,0 17.968,1.945 9.981,7.742" /><path
             id="path130"
             style="fill:#087fbf;fill-opacity:1;fill-rule:nonzero;stroke:none"
             d="m 34.1992,100.859 73.3598,0 17.968,1.946 9.981,7.73" /><path
             id="path132"
             style="fill:none;stroke:#ffffff;stroke-width:4;stroke-linecap:butt;stroke-linejoin:miter;stroke-miterlimit:4;stroke-dasharray:none;stroke-opacity:1"
             d="m 34.1992,100.859 73.3598,0 17.968,1.946 9.981,7.73" /><path
             id="path134"
             style="fill:#087fbf;fill-opacity:1;fill-rule:nonzero;stroke:none"
             d="m 6.25,124.246 9.9805,-7.742 17.9687,-1.945" /><path
             id="path136"
             style="fill:none;stroke:#ffffff;stroke-width:4;stroke-linecap:butt;stroke-linejoin:miter;stroke-miterlimit:4;stroke-dasharray:none;stroke-opacity:1"
             d="m 6.25,124.246 9.9805,-7.742 17.9687,-1.945" /><path
             id="path138"
             style="fill:#087fbf;fill-opacity:1;fill-rule:nonzero;stroke:none"
             d="M 6.42578,82.0586 16.4063,74.3164 34.375,72.3711" /><path
             id="path140"
             style="fill:none;stroke:#ffffff;stroke-width:4;stroke-linecap:butt;stroke-linejoin:miter;stroke-miterlimit:4;stroke-dasharray:none;stroke-opacity:1"
             d="M 6.42578,82.0586 16.4063,74.3164 34.375,72.3711" /><path
             id="path142"
             style="fill:#087fbf;fill-opacity:1;fill-rule:nonzero;stroke:none"
             d="m 34.1992,86.1211 73.3598,0 17.968,1.9453 9.981,7.7422" /><path
             id="path144"
             style="fill:none;stroke:#ffffff;stroke-width:4;stroke-linecap:butt;stroke-linejoin:miter;stroke-miterlimit:4;stroke-dasharray:none;stroke-opacity:1"
             d="m 34.1992,86.1211 73.3598,0 17.968,1.9453 9.981,7.7422" /><path
             id="path146"
             style="fill:#087fbf;fill-opacity:1;fill-rule:nonzero;stroke:none"
             d="m 34.1992,72.4219 73.3598,0 17.968,1.9414 9.981,7.7383" /><path
             id="path148"
             style="fill:none;stroke:#ffffff;stroke-width:4;stroke-linecap:butt;stroke-linejoin:miter;stroke-miterlimit:4;stroke-dasharray:none;stroke-opacity:1"
             d="m 34.1992,72.4219 73.3598,0 17.968,1.9414 9.981,7.7383" /><path
             id="path150"
             style="fill:#087fbf;fill-opacity:1;fill-rule:nonzero;stroke:none"
             d="m 6.25,95.8086 9.9805,-7.7422 17.9687,-1.9453" /><path
             id="path152"
             style="fill:none;stroke:#ffffff;stroke-width:4;stroke-linecap:butt;stroke-linejoin:miter;stroke-miterlimit:4;stroke-dasharray:none;stroke-opacity:1"
             d="m 6.25,95.8086 9.9805,-7.7422 17.9687,-1.9453" /><path
             id="path154"
             style="fill:#087fbf;fill-opacity:1;fill-rule:nonzero;stroke:none"
             d="M 6.42578,53.6211 16.4063,45.8789 34.375,43.9336" /><path
             id="path156"
             style="fill:none;stroke:#ffffff;stroke-width:4;stroke-linecap:butt;stroke-linejoin:miter;stroke-miterlimit:4;stroke-dasharray:none;stroke-opacity:1"
             d="M 6.42578,53.6211 16.4063,45.8789 34.375,43.9336" /><path
             id="path158"
             style="fill:#087fbf;fill-opacity:1;fill-rule:nonzero;stroke:none"
             d="m 34.1992,57.6836 73.3598,0 17.968,1.9453 9.981,7.7422" /><path
             id="path160"
             style="fill:none;stroke:#ffffff;stroke-width:4;stroke-linecap:butt;stroke-linejoin:miter;stroke-miterlimit:4;stroke-dasharray:none;stroke-opacity:1"
             d="m 34.1992,57.6836 73.3598,0 17.968,1.9453 9.981,7.7422" /><path
             id="path162"
             style="fill:#087fbf;fill-opacity:1;fill-rule:nonzero;stroke:none"
             d="m 34.1992,43.9844 73.3598,0 17.968,1.9453 9.981,7.7305" /><path
             id="path164"
             style="fill:none;stroke:#ffffff;stroke-width:4;stroke-linecap:butt;stroke-linejoin:miter;stroke-miterlimit:4;stroke-dasharray:none;stroke-opacity:1"
             d="m 34.1992,43.9844 73.3598,0 17.968,1.9453 9.981,7.7305" /><path
             id="path166"
             style="fill:#087fbf;fill-opacity:1;fill-rule:nonzero;stroke:none"
             d="m 6.25,67.3711 9.9805,-7.7422 17.9687,-1.9453" /><path
             id="path168"
             style="fill:none;stroke:#ffffff;stroke-width:4;stroke-linecap:butt;stroke-linejoin:miter;stroke-miterlimit:4;stroke-dasharray:none;stroke-opacity:1"
             d="m 6.25,67.3711 9.9805,-7.7422 17.9687,-1.9453" /><path
             id="path170"
             style="fill:#087fbf;fill-opacity:1;fill-rule:nonzero;stroke:none"
             d="M 6.42578,25.1836 16.4063,17.4414 34.375,15.4961" /><path
             id="path172"
             style="fill:none;stroke:#ffffff;stroke-width:4;stroke-linecap:butt;stroke-linejoin:miter;stroke-miterlimit:4;stroke-dasharray:none;stroke-opacity:1"
             d="M 6.42578,25.1836 16.4063,17.4414 34.375,15.4961" /><path
             id="path174"
             style="fill:#087fbf;fill-opacity:1;fill-rule:nonzero;stroke:none"
             d="m 34.1992,29.2461 73.3598,0 17.968,1.9453 9.981,7.7422" /><path
             id="path176"
             style="fill:none;stroke:#ffffff;stroke-width:4;stroke-linecap:butt;stroke-linejoin:miter;stroke-miterlimit:4;stroke-dasharray:none;stroke-opacity:1"
             d="m 34.1992,29.2461 73.3598,0 17.968,1.9453 9.981,7.7422" /><path
             id="path178"
             style="fill:#087fbf;fill-opacity:1;fill-rule:nonzero;stroke:none"
             d="m 34.1992,15.5469 73.3598,0 17.968,1.9414 9.981,7.7383" /><path
             id="path180"
             style="fill:none;stroke:#ffffff;stroke-width:4;stroke-linecap:butt;stroke-linejoin:miter;stroke-miterlimit:4;stroke-dasharray:none;stroke-opacity:1"
             d="m 34.1992,15.5469 73.3598,0 17.968,1.9414 9.981,7.7383" /><path
             id="path182"
             style="fill:#087fbf;fill-opacity:1;fill-rule:nonzero;stroke:none"
             d="m 6.25,38.9336 9.9805,-7.7422 17.9687,-1.9453" /><path
             id="path184"
             style="fill:none;stroke:#ffffff;stroke-width:4;stroke-linecap:butt;stroke-linejoin:miter;stroke-miterlimit:4;stroke-dasharray:none;stroke-opacity:1"
             d="m 6.25,38.9336 9.9805,-7.7422 17.9687,-1.9453" /></g></g></g></g></svg>