<svg xmlns="http://www.w3.org/2000/svg" viewBox="0 0 22.5 46.25" height="46.25" width="22.5"><path d="M2.08 45.904l2.192.219h9.175l2.242-.24 1.25-.97.121-.518.035-35.679H.708L.684 44.877l1.396 1.027" fill="#087fbf"/><path d="M2.08 45.904l2.192.219h9.175l2.242-.24 1.25-.97.121-.518.035-35.679H.708L.684 44.877l1.396 1.027z" fill="none" stroke="#fff" stroke-width=".5"/><path d="M22.398.542l-5.288 4.98-.04 38.755 5.356-6.123L22.398.542" fill="#087fbf"/><path d="M22.398.542l-5.288 4.98-.04 38.755 5.356-6.123L22.398.542z" fill="none" stroke="#fff" stroke-width=".5"/><path d="M17.143 8.627l5.24-5.077" fill="#087fbf"/><path d="M17.143 8.627l5.24-5.077M16.23 11.885v-.722M16.23 11.885v-.722" fill="none" stroke="#fff" stroke-width=".5"/><path d="M17.07 41.435l5.195-5.669" fill="#087fbf"/><path d="M17.07 41.435l5.195-5.669" fill="none" stroke="#fff" stroke-width=".5"/><path d="M5.44.527l16.958.015-5.288 4.98S10.337 7.97.489 5.293L5.439.528" fill="#087fbf"/><path d="M5.44.527l16.958.015-5.288 4.98S10.337 7.97.489 5.293L5.439.528z" fill="none" stroke="#fff" stroke-width=".5"/><path d="M.489 5.292c9.848 2.677 16.62.23 16.62.23v3.043s-6.781 2.5-16.63-.171l.01-3.101" fill="#087fbf"/><path d="M.489 5.292c9.848 2.677 16.62.23 16.62.23v3.043s-6.781 2.5-16.63-.171l.01-3.101z" fill="none" stroke="#fff" stroke-width=".5"/><path d="M16.957 20.128H.744v.487" fill="#087fbf"/><path d="M16.957 20.128H.744v.487M.786 14.306h16.22" fill="none" stroke="#fff" stroke-width=".5"/><path d="M.786 16.86l16.22-.005" fill="#087fbf"/><path d="M.786 16.86l16.22-.005M.786 14.306h16.22" fill="none" stroke="#fff" stroke-width=".5"/><path d="M.801 21.9l1.25.966 2.246.244" fill="#087fbf"/><path d="M.801 21.9l1.25.966 2.246.244" fill="none" stroke="#fff" stroke-width=".5"/><path d="M1.714 13.096h14.531V11.12H1.714v1.977z" fill="#087fbf"/><path d="M1.714 13.096h14.531V11.12H1.714v1.977z" fill="none" stroke="#fff" stroke-width=".5"/><path d="M4.272 21.391h9.175l2.242-.243 1.25-.967" fill="#087fbf"/><path d="M4.272 21.391h9.175l2.242-.243 1.25-.967" fill="none" stroke="#fff" stroke-width=".5"/><path d="M4.272 23.105h9.175l2.242-.244 1.25-.966" fill="#087fbf"/><path d="M4.272 23.105h9.175l2.242-.244 1.25-.966" fill="none" stroke="#fff" stroke-width=".5"/><path d="M.781 20.181l1.25.967 2.241.243" fill="#087fbf"/><path d="M.781 20.181l1.25.967 2.241.243" fill="none" stroke="#fff" stroke-width=".5"/><path d="M.801 25.454l1.25.967 2.246.244" fill="#087fbf"/><path d="M.801 25.454l1.25.967 2.246.244" fill="none" stroke="#fff" stroke-width=".5"/><path d="M4.272 24.946h9.175l2.242-.243 1.25-.968" fill="#087fbf"/><path d="M4.272 24.946h9.175l2.242-.243 1.25-.968" fill="none" stroke="#fff" stroke-width=".5"/><path d="M4.272 26.66h9.175l2.242-.244 1.25-.967" fill="#087fbf"/><path d="M4.272 26.66h9.175l2.242-.244 1.25-.967" fill="none" stroke="#fff" stroke-width=".5"/><path d="M.781 23.735l1.25.968 2.241.243" fill="#087fbf"/><path d="M.781 23.735l1.25.968 2.241.243" fill="none" stroke="#fff" stroke-width=".5"/><path d="M.801 29.009l1.25.966 2.246.245" fill="#087fbf"/><path d="M.801 29.009l1.25.966 2.246.245" fill="none" stroke="#fff" stroke-width=".5"/><path d="M4.272 28.502h9.175l2.242-.246 1.25-.966" fill="#087fbf"/><path d="M4.272 28.502h9.175l2.242-.246 1.25-.966" fill="none" stroke="#fff" stroke-width=".5"/><path d="M4.272 30.215h9.175l2.242-.244 1.25-.967" fill="#087fbf"/><path d="M4.272 30.215h9.175l2.242-.244 1.25-.967" fill="none" stroke="#fff" stroke-width=".5"/><path d="M.781 27.29l1.25.966 2.241.245" fill="#087fbf"/><path d="M.781 27.29l1.25.966 2.241.245" fill="none" stroke="#fff" stroke-width=".5"/><path d="M.801 32.564l1.25.966 2.246.245" fill="#087fbf"/><path d="M.801 32.564l1.25.966 2.246.245" fill="none" stroke="#fff" stroke-width=".5"/><path d="M4.272 32.056h9.175l2.242-.245 1.25-.966" fill="#087fbf"/><path d="M4.272 32.056h9.175l2.242-.245 1.25-.966" fill="none" stroke="#fff" stroke-width=".5"/><path d="M4.272 33.77h9.175l2.242-.245 1.25-.966" fill="#087fbf"/><path d="M4.272 33.77h9.175l2.242-.245 1.25-.966" fill="none" stroke="#fff" stroke-width=".5"/><path d="M.781 30.845l1.25.966 2.241.245" fill="#087fbf"/><path d="M.781 30.845l1.25.966 2.241.245" fill="none" stroke="#fff" stroke-width=".5"/><path d="M.801 36.119l1.25.966 2.246.244" fill="#087fbf"/><path d="M.801 36.119l1.25.966 2.246.244" fill="none" stroke="#fff" stroke-width=".5"/><path d="M4.272 35.61h9.175l2.242-.244 1.25-.966" fill="#087fbf"/><path d="M4.272 35.61h9.175l2.242-.244 1.25-.966" fill="none" stroke="#fff" stroke-width=".5"/><path d="M4.272 37.324h9.175l2.242-.244 1.25-.966" fill="#087fbf"/><path d="M4.272 37.324h9.175l2.242-.244 1.25-.966" fill="none" stroke="#fff" stroke-width=".5"/><path d="M.781 34.4l1.25.966 2.241.244" fill="#087fbf"/><path d="M.781 34.4l1.25.966 2.241.244" fill="none" stroke="#fff" stroke-width=".5"/><path d="M.801 39.672l1.25.968 2.246.244" fill="#087fbf"/><path d="M.801 39.672l1.25.968 2.246.244" fill="none" stroke="#fff" stroke-width=".5"/><path d="M4.272 39.165h9.175l2.242-.244 1.25-.967" fill="#087fbf"/><path d="M4.272 39.165h9.175l2.242-.244 1.25-.967" fill="none" stroke="#fff" stroke-width=".5"/><path d="M4.272 40.879h9.175l2.242-.244 1.25-.968" fill="#087fbf"/><path d="M4.272 40.879h9.175l2.242-.244 1.25-.968" fill="none" stroke="#fff" stroke-width=".5"/><path d="M.781 37.954l1.25.967 2.241.244" fill="#087fbf"/><path d="M.781 37.954l1.25.967 2.241.244" fill="none" stroke="#fff" stroke-width=".5"/><path d="M.801 43.228l1.25.966 2.246.245" fill="#087fbf"/><path d="M.801 43.228l1.25.966 2.246.245" fill="none" stroke="#fff" stroke-width=".5"/><path d="M4.272 42.72h9.175l2.242-.245 1.25-.966" fill="#087fbf"/><path d="M4.272 42.72h9.175l2.242-.245 1.25-.966" fill="none" stroke="#fff" stroke-width=".5"/><path d="M4.272 44.434h9.175l2.242-.244 1.25-.967" fill="#087fbf"/><path d="M4.272 44.434h9.175l2.242-.244 1.25-.967" fill="none" stroke="#fff" stroke-width=".5"/><path d="M.781 41.509l1.25.966 2.241.245" fill="#087fbf"/><path d="M.781 41.509l1.25.966 2.241.245" fill="none" stroke="#fff" stroke-width=".5"/></svg>