<?xml version="1.0" encoding="UTF-8" standalone="no"?>
<svg
   xmlns:dc="http://purl.org/dc/elements/1.1/"
   xmlns:cc="http://creativecommons.org/ns#"
   xmlns:rdf="http://www.w3.org/1999/02/22-rdf-syntax-ns#"
   xmlns:svg="http://www.w3.org/2000/svg"
   xmlns="http://www.w3.org/2000/svg"
   viewBox="0 0 22.5 46.25"
   height="46.25"
   width="22.5"
   xml:space="preserve"
   version="1.1"
   id="svg2"><metadata
     id="metadata8"><rdf:RDF><cc:Work
         rdf:about=""><dc:format>image/svg+xml</dc:format><dc:type
           rdf:resource="http://purl.org/dc/dcmitype/StillImage" /></cc:Work></rdf:RDF></metadata><defs
     id="defs6" /><g
     transform="matrix(1.25,0,0,-1.25,0,46.25)"
     id="g10"><g
       transform="scale(0.1,0.1)"
       id="g12"><path
         id="path14"
         style="fill:#087fbf;fill-opacity:1;fill-rule:nonzero;stroke:none"
         d="m 16.6406,2.76953 17.5391,-1.75 73.3983,0 17.934,1.91016 10,7.76951 0.968,4.1406 0.282,285.4302 -131.10184,0 L 5.46875,10.9805 16.6406,2.76953" /><path
         id="path16"
         style="fill:none;stroke:#ffffff;stroke-width:4;stroke-linecap:butt;stroke-linejoin:miter;stroke-miterlimit:4;stroke-dasharray:none;stroke-opacity:1"
         d="m 16.6406,2.76953 17.5391,-1.75 73.3983,0 17.934,1.91016 10,7.76951 0.968,4.1406 0.282,285.4302 -131.10184,0 L 5.46875,10.9805 16.6406,2.76953 Z" /><path
         id="path18"
         style="fill:#087fbf;fill-opacity:1;fill-rule:nonzero;stroke:none"
         d="M 179.18,365.66 136.879,325.82 136.559,15.7813 179.41,64.7695 179.18,365.66" /><path
         id="path20"
         style="fill:none;stroke:#ffffff;stroke-width:4;stroke-linecap:butt;stroke-linejoin:miter;stroke-miterlimit:4;stroke-dasharray:none;stroke-opacity:1"
         d="M 179.18,365.66 136.879,325.82 136.559,15.7813 179.41,64.7695 179.18,365.66 Z" /><path
         id="path22"
         style="fill:#087fbf;fill-opacity:1;fill-rule:nonzero;stroke:none"
         d="m 137.148,300.98 41.911,40.622" /><path
         id="path24"
         style="fill:none;stroke:#ffffff;stroke-width:4;stroke-linecap:butt;stroke-linejoin:miter;stroke-miterlimit:4;stroke-dasharray:none;stroke-opacity:1"
         d="m 137.148,300.98 41.911,40.622" /><path
         id="path26"
         style="fill:none;stroke:#ffffff;stroke-width:4;stroke-linecap:butt;stroke-linejoin:miter;stroke-miterlimit:4;stroke-dasharray:none;stroke-opacity:1"
         d="m 129.84,274.922 0,5.777" /><path
         id="path28"
         style="fill:none;stroke:#ffffff;stroke-width:4;stroke-linecap:butt;stroke-linejoin:miter;stroke-miterlimit:4;stroke-dasharray:none;stroke-opacity:1"
         d="m 129.84,274.922 0,5.777" /><path
         id="path30"
         style="fill:#087fbf;fill-opacity:1;fill-rule:nonzero;stroke:none"
         d="m 136.559,38.5195 41.562,45.3516" /><path
         id="path32"
         style="fill:none;stroke:#ffffff;stroke-width:4;stroke-linecap:butt;stroke-linejoin:miter;stroke-miterlimit:4;stroke-dasharray:none;stroke-opacity:1"
         d="m 136.559,38.5195 41.562,45.3516" /><path
         id="path34"
         style="fill:#087fbf;fill-opacity:1;fill-rule:nonzero;stroke:none"
         d="M 43.5195,365.781 179.18,365.66 136.879,325.82 c 0,0 -54.1798,-19.57 -132.96884,1.84 l 39.60934,38.121" /><path
         id="path36"
         style="fill:none;stroke:#ffffff;stroke-width:4;stroke-linecap:butt;stroke-linejoin:miter;stroke-miterlimit:4;stroke-dasharray:none;stroke-opacity:1"
         d="M 43.5195,365.781 179.18,365.66 136.879,325.82 c 0,0 -54.1798,-19.57 -132.96884,1.84 l 39.60934,38.121 z" /><path
         id="path38"
         style="fill:#087fbf;fill-opacity:1;fill-rule:nonzero;stroke:none"
         d="M 3.91016,327.66 C 82.6992,306.25 136.879,325.82 136.879,325.82 l 0,-24.34 c 0,0 -54.2579,-20 -133.05087,1.372 l 0.08203,24.808" /><path
         id="path40"
         style="fill:none;stroke:#ffffff;stroke-width:4;stroke-linecap:butt;stroke-linejoin:miter;stroke-miterlimit:4;stroke-dasharray:none;stroke-opacity:1"
         d="M 3.91016,327.66 C 82.6992,306.25 136.879,325.82 136.879,325.82 l 0,-24.34 c 0,0 -54.2579,-20 -133.05087,1.372 l 0.08203,24.808 z" /><path
         id="path42"
         style="fill:#087fbf;fill-opacity:1;fill-rule:nonzero;stroke:none"
         d="m 135.66,208.98 -129.71859,0 0,-3.902" /><path
         id="path44"
         style="fill:none;stroke:#ffffff;stroke-width:4;stroke-linecap:butt;stroke-linejoin:miter;stroke-miterlimit:4;stroke-dasharray:none;stroke-opacity:1"
         d="m 135.66,208.98 -129.71859,0 0,-3.902" /><path
         id="path46"
         style="fill:none;stroke:#ffffff;stroke-width:4;stroke-linecap:butt;stroke-linejoin:miter;stroke-miterlimit:4;stroke-dasharray:none;stroke-opacity:1"
         d="m 6.28906,255.551 129.76194,0" /><path
         id="path48"
         style="fill:#087fbf;fill-opacity:1;fill-rule:nonzero;stroke:none"
         d="M 6.28906,235.121 136.051,235.16" /><path
         id="path50"
         style="fill:none;stroke:#ffffff;stroke-width:4;stroke-linecap:butt;stroke-linejoin:miter;stroke-miterlimit:4;stroke-dasharray:none;stroke-opacity:1"
         d="M 6.28906,235.121 136.051,235.16" /><path
         id="path52"
         style="fill:none;stroke:#ffffff;stroke-width:4;stroke-linecap:butt;stroke-linejoin:miter;stroke-miterlimit:4;stroke-dasharray:none;stroke-opacity:1"
         d="m 6.28906,255.551 129.76194,0" /><path
         id="path54"
         style="fill:#087fbf;fill-opacity:1;fill-rule:nonzero;stroke:none"
         d="M 6.41016,194.801 16.4102,187.07 34.3789,185.121" /><path
         id="path56"
         style="fill:none;stroke:#ffffff;stroke-width:4;stroke-linecap:butt;stroke-linejoin:miter;stroke-miterlimit:4;stroke-dasharray:none;stroke-opacity:1"
         d="M 6.41016,194.801 16.4102,187.07 34.3789,185.121" /><path
         id="path58"
         style="fill:#087fbf;fill-opacity:1;fill-rule:nonzero;stroke:none"
         d="m 13.7109,265.23 116.25,0 0,15.8203 -116.25,0 0,-15.8203 z" /><path
         id="path60"
         style="fill:none;stroke:#ffffff;stroke-width:4;stroke-linecap:butt;stroke-linejoin:miter;stroke-miterlimit:4;stroke-dasharray:none;stroke-opacity:1"
         d="m 13.7109,265.23 116.25,0 0,15.8203 -116.25,0 0,-15.8203 z" /><path
         id="path62"
         style="fill:#087fbf;fill-opacity:1;fill-rule:nonzero;stroke:none"
         d="m 34.1797,198.871 73.3983,0 17.934,1.949 10,7.731" /><path
         id="path64"
         style="fill:none;stroke:#ffffff;stroke-width:4;stroke-linecap:butt;stroke-linejoin:miter;stroke-miterlimit:4;stroke-dasharray:none;stroke-opacity:1"
         d="m 34.1797,198.871 73.3983,0 17.934,1.949 10,7.731" /><path
         id="path66"
         style="fill:#087fbf;fill-opacity:1;fill-rule:nonzero;stroke:none"
         d="m 34.1797,185.16 73.3983,0 17.934,1.949 10,7.731" /><path
         id="path68"
         style="fill:none;stroke:#ffffff;stroke-width:4;stroke-linecap:butt;stroke-linejoin:miter;stroke-miterlimit:4;stroke-dasharray:none;stroke-opacity:1"
         d="m 34.1797,185.16 73.3983,0 17.934,1.949 10,7.731" /><path
         id="path70"
         style="fill:#087fbf;fill-opacity:1;fill-rule:nonzero;stroke:none"
         d="m 6.25,208.551 10,-7.731 17.9297,-1.949" /><path
         id="path72"
         style="fill:none;stroke:#ffffff;stroke-width:4;stroke-linecap:butt;stroke-linejoin:miter;stroke-miterlimit:4;stroke-dasharray:none;stroke-opacity:1"
         d="m 6.25,208.551 10,-7.731 17.9297,-1.949" /><path
         id="path74"
         style="fill:#087fbf;fill-opacity:1;fill-rule:nonzero;stroke:none"
         d="M 6.41016,166.371 16.4102,158.629 34.3789,156.68" /><path
         id="path76"
         style="fill:none;stroke:#ffffff;stroke-width:4;stroke-linecap:butt;stroke-linejoin:miter;stroke-miterlimit:4;stroke-dasharray:none;stroke-opacity:1"
         d="M 6.41016,166.371 16.4102,158.629 34.3789,156.68" /><path
         id="path78"
         style="fill:#087fbf;fill-opacity:1;fill-rule:nonzero;stroke:none"
         d="m 34.1797,170.43 73.3983,0 17.934,1.949 10,7.742" /><path
         id="path80"
         style="fill:none;stroke:#ffffff;stroke-width:4;stroke-linecap:butt;stroke-linejoin:miter;stroke-miterlimit:4;stroke-dasharray:none;stroke-opacity:1"
         d="m 34.1797,170.43 73.3983,0 17.934,1.949 10,7.742" /><path
         id="path82"
         style="fill:#087fbf;fill-opacity:1;fill-rule:nonzero;stroke:none"
         d="m 34.1797,156.719 73.3983,0 17.934,1.953 10,7.738" /><path
         id="path84"
         style="fill:none;stroke:#ffffff;stroke-width:4;stroke-linecap:butt;stroke-linejoin:miter;stroke-miterlimit:4;stroke-dasharray:none;stroke-opacity:1"
         d="m 34.1797,156.719 73.3983,0 17.934,1.953 10,7.738" /><path
         id="path86"
         style="fill:#087fbf;fill-opacity:1;fill-rule:nonzero;stroke:none"
         d="m 6.25,180.121 10,-7.742 17.9297,-1.949" /><path
         id="path88"
         style="fill:none;stroke:#ffffff;stroke-width:4;stroke-linecap:butt;stroke-linejoin:miter;stroke-miterlimit:4;stroke-dasharray:none;stroke-opacity:1"
         d="m 6.25,180.121 10,-7.742 17.9297,-1.949" /><path
         id="path90"
         style="fill:#087fbf;fill-opacity:1;fill-rule:nonzero;stroke:none"
         d="m 6.41016,137.93 10.00004,-7.731 17.9687,-1.961" /><path
         id="path92"
         style="fill:none;stroke:#ffffff;stroke-width:4;stroke-linecap:butt;stroke-linejoin:miter;stroke-miterlimit:4;stroke-dasharray:none;stroke-opacity:1"
         d="m 6.41016,137.93 10.00004,-7.731 17.9687,-1.961" /><path
         id="path94"
         style="fill:#087fbf;fill-opacity:1;fill-rule:nonzero;stroke:none"
         d="m 34.1797,141.988 73.3983,0 17.934,1.961 10,7.731" /><path
         id="path96"
         style="fill:none;stroke:#ffffff;stroke-width:4;stroke-linecap:butt;stroke-linejoin:miter;stroke-miterlimit:4;stroke-dasharray:none;stroke-opacity:1"
         d="m 34.1797,141.988 73.3983,0 17.934,1.961 10,7.731" /><path
         id="path98"
         style="fill:#087fbf;fill-opacity:1;fill-rule:nonzero;stroke:none"
         d="m 34.1797,128.281 73.3983,0 17.934,1.949 10,7.739" /><path
         id="path100"
         style="fill:none;stroke:#ffffff;stroke-width:4;stroke-linecap:butt;stroke-linejoin:miter;stroke-miterlimit:4;stroke-dasharray:none;stroke-opacity:1"
         d="m 34.1797,128.281 73.3983,0 17.934,1.949 10,7.739" /><path
         id="path102"
         style="fill:#087fbf;fill-opacity:1;fill-rule:nonzero;stroke:none"
         d="m 6.25,151.68 10,-7.731 17.9297,-1.961" /><path
         id="path104"
         style="fill:none;stroke:#ffffff;stroke-width:4;stroke-linecap:butt;stroke-linejoin:miter;stroke-miterlimit:4;stroke-dasharray:none;stroke-opacity:1"
         d="m 6.25,151.68 10,-7.731 17.9297,-1.961" /><path
         id="path106"
         style="fill:#087fbf;fill-opacity:1;fill-rule:nonzero;stroke:none"
         d="M 6.41016,109.488 16.4102,101.762 34.3789,99.8008" /><path
         id="path108"
         style="fill:none;stroke:#ffffff;stroke-width:4;stroke-linecap:butt;stroke-linejoin:miter;stroke-miterlimit:4;stroke-dasharray:none;stroke-opacity:1"
         d="M 6.41016,109.488 16.4102,101.762 34.3789,99.8008" /><path
         id="path110"
         style="fill:#087fbf;fill-opacity:1;fill-rule:nonzero;stroke:none"
         d="m 34.1797,113.551 73.3983,0 17.934,1.961 10,7.726" /><path
         id="path112"
         style="fill:none;stroke:#ffffff;stroke-width:4;stroke-linecap:butt;stroke-linejoin:miter;stroke-miterlimit:4;stroke-dasharray:none;stroke-opacity:1"
         d="m 34.1797,113.551 73.3983,0 17.934,1.961 10,7.726" /><path
         id="path114"
         style="fill:#087fbf;fill-opacity:1;fill-rule:nonzero;stroke:none"
         d="m 34.1797,99.8398 73.3983,0 17.934,1.9612 10,7.73" /><path
         id="path116"
         style="fill:none;stroke:#ffffff;stroke-width:4;stroke-linecap:butt;stroke-linejoin:miter;stroke-miterlimit:4;stroke-dasharray:none;stroke-opacity:1"
         d="m 34.1797,99.8398 73.3983,0 17.934,1.9612 10,7.73" /><path
         id="path118"
         style="fill:#087fbf;fill-opacity:1;fill-rule:nonzero;stroke:none"
         d="m 6.25,123.238 10,-7.726 17.9297,-1.961" /><path
         id="path120"
         style="fill:none;stroke:#ffffff;stroke-width:4;stroke-linecap:butt;stroke-linejoin:miter;stroke-miterlimit:4;stroke-dasharray:none;stroke-opacity:1"
         d="m 6.25,123.238 10,-7.726 17.9297,-1.961" /><path
         id="path122"
         style="fill:#087fbf;fill-opacity:1;fill-rule:nonzero;stroke:none"
         d="M 6.41016,81.0508 16.4102,73.3203 34.3789,71.3711" /><path
         id="path124"
         style="fill:none;stroke:#ffffff;stroke-width:4;stroke-linecap:butt;stroke-linejoin:miter;stroke-miterlimit:4;stroke-dasharray:none;stroke-opacity:1"
         d="M 6.41016,81.0508 16.4102,73.3203 34.3789,71.3711" /><path
         id="path126"
         style="fill:#087fbf;fill-opacity:1;fill-rule:nonzero;stroke:none"
         d="m 34.1797,85.1211 73.3983,0 17.934,1.9492 10,7.7305" /><path
         id="path128"
         style="fill:none;stroke:#ffffff;stroke-width:4;stroke-linecap:butt;stroke-linejoin:miter;stroke-miterlimit:4;stroke-dasharray:none;stroke-opacity:1"
         d="m 34.1797,85.1211 73.3983,0 17.934,1.9492 10,7.7305" /><path
         id="path130"
         style="fill:#087fbf;fill-opacity:1;fill-rule:nonzero;stroke:none"
         d="m 34.1797,71.4102 73.3983,0 17.934,1.9492 10,7.7304" /><path
         id="path132"
         style="fill:none;stroke:#ffffff;stroke-width:4;stroke-linecap:butt;stroke-linejoin:miter;stroke-miterlimit:4;stroke-dasharray:none;stroke-opacity:1"
         d="m 34.1797,71.4102 73.3983,0 17.934,1.9492 10,7.7304" /><path
         id="path134"
         style="fill:#087fbf;fill-opacity:1;fill-rule:nonzero;stroke:none"
         d="m 6.25,94.8008 10,-7.7305 17.9297,-1.9492" /><path
         id="path136"
         style="fill:none;stroke:#ffffff;stroke-width:4;stroke-linecap:butt;stroke-linejoin:miter;stroke-miterlimit:4;stroke-dasharray:none;stroke-opacity:1"
         d="m 6.25,94.8008 10,-7.7305 17.9297,-1.9492" /><path
         id="path138"
         style="fill:#087fbf;fill-opacity:1;fill-rule:nonzero;stroke:none"
         d="M 6.41016,52.6211 16.4102,44.8789 34.3789,42.9297" /><path
         id="path140"
         style="fill:none;stroke:#ffffff;stroke-width:4;stroke-linecap:butt;stroke-linejoin:miter;stroke-miterlimit:4;stroke-dasharray:none;stroke-opacity:1"
         d="M 6.41016,52.6211 16.4102,44.8789 34.3789,42.9297" /><path
         id="path142"
         style="fill:#087fbf;fill-opacity:1;fill-rule:nonzero;stroke:none"
         d="m 34.1797,56.6797 73.3983,0 17.934,1.9492 10,7.7422" /><path
         id="path144"
         style="fill:none;stroke:#ffffff;stroke-width:4;stroke-linecap:butt;stroke-linejoin:miter;stroke-miterlimit:4;stroke-dasharray:none;stroke-opacity:1"
         d="m 34.1797,56.6797 73.3983,0 17.934,1.9492 10,7.7422" /><path
         id="path146"
         style="fill:#087fbf;fill-opacity:1;fill-rule:nonzero;stroke:none"
         d="m 34.1797,42.9688 73.3983,0 17.934,1.9531 10,7.7383" /><path
         id="path148"
         style="fill:none;stroke:#ffffff;stroke-width:4;stroke-linecap:butt;stroke-linejoin:miter;stroke-miterlimit:4;stroke-dasharray:none;stroke-opacity:1"
         d="m 34.1797,42.9688 73.3983,0 17.934,1.9531 10,7.7383" /><path
         id="path150"
         style="fill:#087fbf;fill-opacity:1;fill-rule:nonzero;stroke:none"
         d="m 6.25,66.3711 10,-7.7422 17.9297,-1.9492" /><path
         id="path152"
         style="fill:none;stroke:#ffffff;stroke-width:4;stroke-linecap:butt;stroke-linejoin:miter;stroke-miterlimit:4;stroke-dasharray:none;stroke-opacity:1"
         d="m 6.25,66.3711 10,-7.7422 17.9297,-1.9492" /><path
         id="path154"
         style="fill:#087fbf;fill-opacity:1;fill-rule:nonzero;stroke:none"
         d="M 6.41016,24.1797 16.4102,16.4492 34.3789,14.4883" /><path
         id="path156"
         style="fill:none;stroke:#ffffff;stroke-width:4;stroke-linecap:butt;stroke-linejoin:miter;stroke-miterlimit:4;stroke-dasharray:none;stroke-opacity:1"
         d="M 6.41016,24.1797 16.4102,16.4492 34.3789,14.4883" /><path
         id="path158"
         style="fill:#087fbf;fill-opacity:1;fill-rule:nonzero;stroke:none"
         d="m 34.1797,28.2383 73.3983,0 17.934,1.9609 10,7.7305" /><path
         id="path160"
         style="fill:none;stroke:#ffffff;stroke-width:4;stroke-linecap:butt;stroke-linejoin:miter;stroke-miterlimit:4;stroke-dasharray:none;stroke-opacity:1"
         d="m 34.1797,28.2383 73.3983,0 17.934,1.9609 10,7.7305" /><path
         id="path162"
         style="fill:#087fbf;fill-opacity:1;fill-rule:nonzero;stroke:none"
         d="m 34.1797,14.5313 73.3983,0 17.934,1.9492 10,7.7383" /><path
         id="path164"
         style="fill:none;stroke:#ffffff;stroke-width:4;stroke-linecap:butt;stroke-linejoin:miter;stroke-miterlimit:4;stroke-dasharray:none;stroke-opacity:1"
         d="m 34.1797,14.5313 73.3983,0 17.934,1.9492 10,7.7383" /><path
         id="path166"
         style="fill:#087fbf;fill-opacity:1;fill-rule:nonzero;stroke:none"
         d="m 6.25,37.9297 10,-7.7305 17.9297,-1.9609" /><path
         id="path168"
         style="fill:none;stroke:#ffffff;stroke-width:4;stroke-linecap:butt;stroke-linejoin:miter;stroke-miterlimit:4;stroke-dasharray:none;stroke-opacity:1"
         d="m 6.25,37.9297 10,-7.7305 17.9297,-1.9609" /></g></g></svg>