<svg xmlns="http://www.w3.org/2000/svg" viewBox="0 0 42.5 47.5" height="47.5" width="42.5"><defs><clipPath id="a"><path d="M0 10v367h340V10H0z"/></clipPath></defs><g clip-path="url(#a)" transform="matrix(.13 0 0 -.13 0 47.5)"><path d="M171.172 13.328L4.301 100.91v186.52l166.871-87.578V13.328" fill="#087fbf"/><path d="M171.172 13.328L4.301 100.91v186.52l166.871-87.578V13.328z" fill="none" stroke="#fff" stroke-width="4"/><path d="M171.172 13.328l166.879 87.582v186.52l-166.879-87.578V13.328" fill="#087fbf"/><path d="M171.172 13.328l166.879 87.582v186.52l-166.879-87.578V13.328z" fill="none" stroke="#fff" stroke-width="4"/><path d="M171.172 199.852l166.879 87.578-166.879 87.582L4.301 287.43l166.871-87.578" fill="#087fbf"/><path d="M171.172 199.852l166.879 87.578-166.879 87.582L4.301 287.43l166.871-87.578z" fill="none" stroke="#fff" stroke-width="4"/><path d="M338.051 101.609l-166.879-88.28v185.819l166.879 88.282V101.609" fill="#087fbf"/><path d="M338.051 101.609l-166.879-88.28v185.819l166.879 88.282V101.609z" fill="none" stroke="#fff" stroke-width="4"/><path d="M171.172 277.199l35.078-18.789h-21.051v-35.039h-28.051v35.039H136.09l35.082 18.789M298.551 287.391l-35.031-18.789v11.25h-65.469v15.039h65.469v11.25l35.031-18.75M171.172 296.301L136.09 315.09h21.058v35.031h28.051V315.09h21.051l-35.078-18.789M43.75 287.391l35.078 18.75v-11.25h65.473v-15.039H78.828v-11.25L43.75 287.391M322.461 155.09v105.969l-128.32-67.93V87.16l128.32 67.93" fill="#fff"/><path d="M322.461 155.09v105.969l-128.32-67.93V87.16l128.32 67.93z" fill="none" stroke="#087fbf" stroke-width="4" stroke-linecap="round" stroke-linejoin="round"/><path d="M212.77 191.961l90.16 47.699c5.859 3.078 10.621.391 10.621-6.019v-62.379c0-6.41-4.762-14.141-10.621-17.231l-90.16-47.73c-5.86-3.09-10.579-.391-10.579 6.008v62.39c0 6.403 4.719 14.141 10.579 17.262" fill="#fff"/><path d="M212.77 191.961l90.16 47.699c5.859 3.078 10.621.391 10.621-6.019v-62.379c0-6.41-4.762-14.141-10.621-17.231l-90.16-47.73c-5.86-3.09-10.579-.391-10.579 6.008v62.39c0 6.403 4.719 14.141 10.579 17.262z" fill="none" stroke="#087fbf" stroke-width="4" stroke-linecap="round" stroke-linejoin="round"/><path d="M294.18 127l-71.719-37.969v13.129l71.719 37.961V127" fill="#fff"/><path d="M294.18 127l-71.719-37.969v13.129l71.719 37.961V127z" fill="none" stroke="#087fbf" stroke-width="4" stroke-linecap="round" stroke-linejoin="round"/><path d="M322.461 111.02l-128.32-67.97V73.88l128.32 67.922V111.02" fill="#fff"/><path d="M322.461 111.02l-128.32-67.97V73.88l128.32 67.922V111.02z" fill="none" stroke="#087fbf" stroke-width="4" stroke-linecap="round" stroke-linejoin="round"/><path d="M326.52 106.801l-136.399-72.18v13.117L326.52 119.93v-13.129" fill="#fff"/><path d="M326.52 106.801l-136.399-72.18v13.117L326.52 119.93v-13.129z" fill="none" stroke="#087fbf" stroke-width="4" stroke-linecap="round" stroke-linejoin="round"/><path d="M261.641 166.141l-15.082-24.219v54.18l36.171-19.883-21.089-10.078" fill="#087fbf"/><path d="M260.27 164.77l10.32-20.5 2.769 2.73-10.308 20.512-2.781-2.742" fill="#747272"/><path d="M159.449 70.75v41.371l-24.918-6.922 24.918-34.449" fill="#fff"/><path d="M159.449 70.75v41.371l-24.918-6.922 24.918-34.449z" fill="none" stroke="#fff" stroke-width=".76"/><path d="M17.3 144.93v41.371l24.93-32.821-24.93-8.55" fill="#fff"/><path d="M17.3 144.93v41.371l24.93-32.821-24.93-8.55z" fill="none" stroke="#fff" stroke-width=".76"/><path d="M34.02 218.328v-41.367L9.102 209.809l24.918 8.519" fill="#fff"/><path d="M34.02 218.328v-41.367L9.102 209.809l24.918 8.519z" fill="none" stroke="#fff" stroke-width=".76"/><path d="M140.82 162.512v-41.371l24.918 6.91-24.918 34.461" fill="#fff"/><path d="M140.82 162.512v-41.371l24.918 6.91-24.918 34.461z" fill="none" stroke="#fff" stroke-width=".76"/><path d="M146.25 139.578l-15.039 7.774M129.57 141.488l15.039-7.808 3.282 6.761-17.813 9.219-.508-8.172M151.48 96.691l18.829-9.77" fill="#fff"/><path d="M151.48 96.691l18.829-9.77" fill="none" stroke="#fff" stroke-width="7.6"/><path d="M23.98 163.289l-20.07 10.43" fill="#fff"/><path d="M23.98 163.289l-20.07 10.43" fill="none" stroke="#fff" stroke-width="7.6"/><path d="M24.84 201.73l18.832-9.808M23.2 198.371l21.878-11.172.23 8.082-18.827 9.809-3.282-6.719M117.77 154.66l-.11-83.398-58.988 30.968-.121 83.559 59.219-31.129" fill="#fff"/><path d="M107.422 136.102L69.18 156.379v15.191l38.242-20.23v-15.238" fill="#fff"/><path d="M107.422 136.102L69.18 156.379v15.191l38.242-20.23v-15.238z" fill="none" stroke="#087fbf" stroke-width="4"/><path d="M107.422 84.578L69.18 104.81v38.011l38.242-20.23V84.578" fill="#fff"/><path d="M107.422 84.578L69.18 104.81v38.011l38.242-20.23V84.578z" fill="none" stroke="#087fbf" stroke-width="4"/><path d="M101.559 187.512s1.992-.551 3.32-6.063l.351-9.289 25.508-15.941 2.782 5.472-7.43 16.789c-22.77 16.532-28.16 19.301-28.16 19.301l-7.032 3.91s-19.609 8.118-30.078 11.008l-12.148-5.109-1.563-7.969 26.68-10.043.313 7.383c.777 4.379 5.59 1.367 5.59 1.367l21.867-10.816M107.422 129.461L69.18 149.699" fill="#fff"/><path d="M107.422 129.461L69.18 149.699" fill="none" stroke="#087fbf" stroke-width="4"/></g></svg>