<?xml version="1.0" encoding="UTF-8" standalone="no"?>
<svg
   xmlns:dc="http://purl.org/dc/elements/1.1/"
   xmlns:cc="http://creativecommons.org/ns#"
   xmlns:rdf="http://www.w3.org/1999/02/22-rdf-syntax-ns#"
   xmlns:svg="http://www.w3.org/2000/svg"
   xmlns="http://www.w3.org/2000/svg"
   xmlns:sodipodi="http://sodipodi.sourceforge.net/DTD/sodipodi-0.dtd"
   xmlns:inkscape="http://www.inkscape.org/namespaces/inkscape"
   viewBox="0 0 42.5 45.875"
   height="45.875"
   width="42.5"
   xml:space="preserve"
   version="1.1"
   id="svg2"
   inkscape:version="0.91 r13725"
   sodipodi:docname="ics.svg"><sodipodi:namedview
     pagecolor="#ffffff"
     bordercolor="#666666"
     borderopacity="1"
     objecttolerance="10"
     gridtolerance="10"
     guidetolerance="10"
     inkscape:pageopacity="0"
     inkscape:pageshadow="2"
     inkscape:window-width="448"
     inkscape:window-height="438"
     id="namedview59"
     showgrid="false"
     inkscape:zoom="5.1402125"
     inkscape:cx="21.393749"
     inkscape:cy="22.956251"
     inkscape:window-x="0"
     inkscape:window-y="23"
     inkscape:window-maximized="0"
     inkscape:current-layer="svg2" /><metadata
     id="metadata8"><rdf:RDF><cc:Work
         rdf:about=""><dc:format>image/svg+xml</dc:format><dc:type
           rdf:resource="http://purl.org/dc/dcmitype/StillImage" /></cc:Work></rdf:RDF></metadata><defs
     id="defs6"><clipPath
       id="clipPath18"
       clipPathUnits="userSpaceOnUse"><path
         id="path20"
         d="M 0,0 0,367 340,367 340,0 0,0 Z"
         inkscape:connector-curvature="0" /></clipPath></defs><g
     transform="matrix(1.25,0,0,-1.25,0,45.875)"
     id="g10"><g
       transform="scale(0.1,0.1)"
       id="g12"><g
         id="g14"><g
           clip-path="url(#clipPath18)"
           id="g16"><path
             id="path22"
             style="fill:#087fbf;fill-opacity:1;fill-rule:nonzero;stroke:none"
             d="M 171.156,3.32031 4.30078,90.9063 l 0,186.5157 166.85522,-87.578 0,-186.52369"
             inkscape:connector-curvature="0" /><path
             id="path24"
             style="fill:none;stroke:#ffffff;stroke-width:4;stroke-linecap:butt;stroke-linejoin:miter;stroke-miterlimit:4;stroke-dasharray:none;stroke-opacity:1"
             d="M 171.156,3.32031 4.30078,90.9063 l 0,186.5157 166.85522,-87.578 0,-186.52369 z"
             inkscape:connector-curvature="0" /><path
             id="path26"
             style="fill:#087fbf;fill-opacity:1;fill-rule:nonzero;stroke:none"
             d="m 171.156,3.32031 166.875,87.58599 0,186.5157 -166.875,-87.578 0,-186.52369"
             inkscape:connector-curvature="0" /><path
             id="path28"
             style="fill:none;stroke:#ffffff;stroke-width:4;stroke-linecap:butt;stroke-linejoin:miter;stroke-miterlimit:4;stroke-dasharray:none;stroke-opacity:1"
             d="m 171.156,3.32031 166.875,87.58599 0,186.5157 -166.875,-87.578 0,-186.52369 z"
             inkscape:connector-curvature="0" /><path
             id="path30"
             style="fill:#087fbf;fill-opacity:1;fill-rule:nonzero;stroke:none"
             d="M 171.156,189.844 338.031,277.422 171.156,365 4.30078,277.422 171.156,189.844"
             inkscape:connector-curvature="0" /><path
             id="path32"
             style="fill:none;stroke:#ffffff;stroke-width:4;stroke-linecap:butt;stroke-linejoin:miter;stroke-miterlimit:4;stroke-dasharray:none;stroke-opacity:1"
             d="M 171.156,189.844 338.031,277.422 171.156,365 4.30078,277.422 171.156,189.844 Z"
             inkscape:connector-curvature="0" /><path
             id="path34"
             style="fill:#087fbf;fill-opacity:1;fill-rule:nonzero;stroke:none"
             d="M 338.031,91.5938 171.156,3.32031 l 0,185.83169 166.875,88.27 0,-185.8282"
             inkscape:connector-curvature="0" /><path
             id="path36"
             style="fill:none;stroke:#ffffff;stroke-width:4;stroke-linecap:butt;stroke-linejoin:miter;stroke-miterlimit:4;stroke-dasharray:none;stroke-opacity:1"
             d="M 338.031,91.5938 171.156,3.32031 l 0,185.83169 166.875,88.27 0,-185.8282 z"
             inkscape:connector-curvature="0" /><path
             id="path38"
             style="fill:#ffffff;fill-opacity:1;fill-rule:nonzero;stroke:none"
             d="m 171.156,267.199 35.078,-18.793 -21.054,0 0,-35.054 -28.047,0 0,35.054 -21.035,0 35.058,18.793"
             inkscape:connector-curvature="0" /><path
             id="path40"
             style="fill:#ffffff;fill-opacity:1;fill-rule:nonzero;stroke:none"
             d="m 298.559,277.375 -35.059,-18.789 0,11.277 -65.449,0 0,15.02 65.449,0 0,11.269 35.059,-18.777"
             inkscape:connector-curvature="0" /><path
             id="path42"
             style="fill:#ffffff;fill-opacity:1;fill-rule:nonzero;stroke:none"
             d="m 171.156,286.289 -35.058,18.781 21.035,0 0,35.067 28.047,0 0,-35.067 21.054,0 -35.078,-18.781"
             inkscape:connector-curvature="0" /><path
             id="path44"
             style="fill:#ffffff;fill-opacity:1;fill-rule:nonzero;stroke:none"
             d="m 43.7656,277.375 35.0664,18.777 0,-11.269 65.449,0 0,-15.02 -65.449,0 0,-11.277 -35.0664,18.789"
             inkscape:connector-curvature="0" /><path
             id="path46"
             style="fill:#ffffff;fill-opacity:1;fill-rule:nonzero;stroke:none"
             d="m 322.465,145.078 0,105.988 -128.32,-67.929 0,-105.9886 128.32,67.9296"
             inkscape:connector-curvature="0" /><path
             id="path48"
             style="fill:none;stroke:#087fbf;stroke-width:4;stroke-linecap:round;stroke-linejoin:round;stroke-miterlimit:4;stroke-dasharray:none;stroke-opacity:1"
             d="m 322.465,145.078 0,105.988 -128.32,-67.929 0,-105.9886 128.32,67.9296 z"
             inkscape:connector-curvature="0" /><path
             id="path50"
             style="fill:#ffffff;fill-opacity:1;fill-rule:nonzero;stroke:none"
             d="m 212.777,181.945 90.137,47.703 c 5.879,3.094 10.625,0.411 10.625,-6.015 l 0,-62.363 c 0,-6.426 -4.746,-14.153 -10.625,-17.254 L 212.777,96.3086 c -5.859,-3.1055 -10.605,-0.418 -10.605,6.0074 l 0,62.364 c 0,6.433 4.746,14.16 10.605,17.265"
             inkscape:connector-curvature="0" /><path
             id="path52"
             style="fill:none;stroke:#087fbf;stroke-width:4;stroke-linecap:round;stroke-linejoin:round;stroke-miterlimit:4;stroke-dasharray:none;stroke-opacity:1"
             d="m 212.777,181.945 90.137,47.703 c 5.879,3.094 10.625,0.411 10.625,-6.015 l 0,-62.363 c 0,-6.426 -4.746,-14.153 -10.625,-17.254 L 212.777,96.3086 c -5.859,-3.1055 -10.605,-0.418 -10.605,6.0074 l 0,62.364 c 0,6.433 4.746,14.16 10.605,17.265 z"
             inkscape:connector-curvature="0" /><path
             id="path54"
             style="fill:#ffffff;fill-opacity:1;fill-rule:nonzero;stroke:none"
             d="m 294.164,117.004 -71.719,-37.9727 0,13.1093 71.719,37.9684 0,-13.105"
             inkscape:connector-curvature="0" /><path
             id="path56"
             style="fill:none;stroke:#087fbf;stroke-width:4;stroke-linecap:round;stroke-linejoin:round;stroke-miterlimit:4;stroke-dasharray:none;stroke-opacity:1"
             d="m 294.164,117.004 -71.719,-37.9727 0,13.1093 71.719,37.9684 0,-13.105 z"
             inkscape:connector-curvature="0" /><path
             id="path58"
             style="fill:#ffffff;fill-opacity:1;fill-rule:nonzero;stroke:none"
             d="m 322.465,101.008 -128.32,-67.9338 0,30.8125 128.32,67.9293 0,-30.808"
             inkscape:connector-curvature="0" /><path
             id="path60"
             style="fill:none;stroke:#087fbf;stroke-width:4;stroke-linecap:round;stroke-linejoin:round;stroke-miterlimit:4;stroke-dasharray:none;stroke-opacity:1"
             d="m 322.465,101.008 -128.32,-67.9338 0,30.8125 128.32,67.9293 0,-30.808 z"
             inkscape:connector-curvature="0" /><path
             id="path62"
             style="fill:#ffffff;fill-opacity:1;fill-rule:nonzero;stroke:none"
             d="m 326.527,96.8242 -136.425,-72.207 0,13.1094 136.425,72.2074 0,-13.1098"
             inkscape:connector-curvature="0" /><path
             id="path64"
             style="fill:none;stroke:#087fbf;stroke-width:4;stroke-linecap:round;stroke-linejoin:round;stroke-miterlimit:4;stroke-dasharray:none;stroke-opacity:1"
             d="m 326.527,96.8242 -136.425,-72.207 0,13.1094 136.425,72.2074 0,-13.1098 z"
             inkscape:connector-curvature="0" /><path
             id="path66"
             style="fill:#087fbf;fill-opacity:1;fill-rule:nonzero;stroke:none"
             d="m 261.645,156.145 -15.079,-24.231 0,54.207 36.153,-19.91 -21.074,-10.066"
             inkscape:connector-curvature="0" /><path
             id="path68"
             style="fill:#747272;fill-opacity:1;fill-rule:nonzero;stroke:none"
             d="m 260.258,154.766 10.312,-20.496 2.774,2.742 -10.313,20.5 -2.773,-2.746"
             inkscape:connector-curvature="0" /><path
             id="path70"
             style="fill:#ffffff;fill-opacity:1;fill-rule:nonzero;stroke:none"
             d="m 159.438,60.7344 0,41.3676 -24.922,-6.9145 24.922,-34.4531"
             inkscape:connector-curvature="0" /><path
             id="path72"
             style="fill:none;stroke:#ffffff;stroke-width:0.75999999;stroke-linecap:butt;stroke-linejoin:miter;stroke-miterlimit:4;stroke-dasharray:none;stroke-opacity:1"
             d="m 159.438,60.7344 0,41.3676 -24.922,-6.9145 24.922,-34.4531 z"
             inkscape:connector-curvature="0" /><path
             id="path74"
             style="fill:#ffffff;fill-opacity:1;fill-rule:nonzero;stroke:none"
             d="m 17.3203,134.922 0,41.359 24.9024,-32.793 -24.9024,-8.566"
             inkscape:connector-curvature="0" /><path
             id="path76"
             style="fill:none;stroke:#ffffff;stroke-width:0.75999999;stroke-linecap:butt;stroke-linejoin:miter;stroke-miterlimit:4;stroke-dasharray:none;stroke-opacity:1"
             d="m 17.3203,134.922 0,41.359 24.9024,-32.793 -24.9024,-8.566 z"
             inkscape:connector-curvature="0" /><path
             id="path78"
             style="fill:#ffffff;fill-opacity:1;fill-rule:nonzero;stroke:none"
             d="m 34.0273,208.34 0,-41.367 -24.92183,32.824 24.92183,8.543"
             inkscape:connector-curvature="0" /><path
             id="path80"
             style="fill:none;stroke:#ffffff;stroke-width:0.75999999;stroke-linecap:butt;stroke-linejoin:miter;stroke-miterlimit:4;stroke-dasharray:none;stroke-opacity:1"
             d="m 34.0273,208.34 0,-41.367 -24.92183,32.824 24.92183,8.543 z"
             inkscape:connector-curvature="0" /><path
             id="path82"
             style="fill:#ffffff;fill-opacity:1;fill-rule:nonzero;stroke:none"
             d="m 140.824,152.52 0,-41.36 24.922,6.899 -24.922,34.461"
             inkscape:connector-curvature="0" /><path
             id="path84"
             style="fill:none;stroke:#ffffff;stroke-width:0.75999999;stroke-linecap:butt;stroke-linejoin:miter;stroke-miterlimit:4;stroke-dasharray:none;stroke-opacity:1"
             d="m 140.824,152.52 0,-41.36 24.922,6.899 -24.922,34.461 z"
             inkscape:connector-curvature="0" /><path
             id="path86"
             style="fill:#ffffff;fill-opacity:1;fill-rule:nonzero;stroke:none"
             d="m 146.234,129.563 -15.039,7.808"
             inkscape:connector-curvature="0" /><path
             id="path88"
             style="fill:#ffffff;fill-opacity:1;fill-rule:nonzero;stroke:none"
             d="m 129.555,131.504 15.058,-7.813 3.262,6.731 -17.793,9.219 -0.527,-8.137"
             inkscape:connector-curvature="0" /><path
             id="path90"
             style="fill:#ffffff;fill-opacity:1;fill-rule:nonzero;stroke:none"
             d="m 151.488,86.6992 18.828,-9.7851"
             inkscape:connector-curvature="0" /><path
             id="path92"
             style="fill:none;stroke:#ffffff;stroke-width:7.5999999;stroke-linecap:butt;stroke-linejoin:miter;stroke-miterlimit:4;stroke-dasharray:none;stroke-opacity:1"
             d="m 151.488,86.6992 18.828,-9.7851"
             inkscape:connector-curvature="0" /><path
             id="path94"
             style="fill:#ffffff;fill-opacity:1;fill-rule:nonzero;stroke:none"
             d="M 23.9805,153.281 3.92188,163.711"
             inkscape:connector-curvature="0" /><path
             id="path96"
             style="fill:none;stroke:#ffffff;stroke-width:7.5999999;stroke-linecap:butt;stroke-linejoin:miter;stroke-miterlimit:4;stroke-dasharray:none;stroke-opacity:1"
             d="M 23.9805,153.281 3.92188,163.711"
             inkscape:connector-curvature="0" /><path
             id="path98"
             style="fill:#ffffff;fill-opacity:1;fill-rule:nonzero;stroke:none"
             d="M 24.8398,191.73 43.668,181.926"
             inkscape:connector-curvature="0" /><path
             id="path100"
             style="fill:#ffffff;fill-opacity:1;fill-rule:nonzero;stroke:none"
             d="m 23.207,188.367 21.8672,-11.168 0.2227,8.094 -18.8281,9.785 -3.2618,-6.711"
             inkscape:connector-curvature="0" /><path
             id="path102"
             style="fill:#ffffff;fill-opacity:1;fill-rule:nonzero;stroke:none"
             d="M 117.777,144.656 117.641,61.2383 58.6758,92.2461 58.5586,175.801 117.777,144.656"
             inkscape:connector-curvature="0" /><path
             id="path104"
             style="fill:#ffffff;fill-opacity:1;fill-rule:nonzero;stroke:none"
             d="m 107.426,126.121 -38.2424,20.238 0,15.204 38.2424,-20.235 0,-15.207"
             inkscape:connector-curvature="0" /><path
             id="path106"
             style="fill:none;stroke:#087fbf;stroke-width:4;stroke-linecap:butt;stroke-linejoin:miter;stroke-miterlimit:4;stroke-dasharray:none;stroke-opacity:1"
             d="m 107.426,126.121 -38.2424,20.238 0,15.204 38.2424,-20.235 0,-15.207 z"
             inkscape:connector-curvature="0" /><path
             id="path108"
             style="fill:#ffffff;fill-opacity:1;fill-rule:nonzero;stroke:none"
             d="m 107.426,74.5703 -38.2424,20.2344 0,38.0003 38.2424,-20.235 0,-37.9997"
             inkscape:connector-curvature="0" /><path
             id="path110"
             style="fill:none;stroke:#087fbf;stroke-width:4;stroke-linecap:butt;stroke-linejoin:miter;stroke-miterlimit:4;stroke-dasharray:none;stroke-opacity:1"
             d="m 107.426,74.5703 -38.2424,20.2344 0,38.0003 38.2424,-20.235 0,-37.9997 z"
             inkscape:connector-curvature="0" /><path
             id="path112"
             style="fill:#ffffff;fill-opacity:1;fill-rule:nonzero;stroke:none"
             d="m 101.578,177.52 c 0,0 1.981,-0.547 3.32,-6.055 l 0.321,-9.324 25.508,-15.93 2.793,5.48 -7.442,16.778 C 103.336,185 97.9336,187.781 97.9336,187.781 l -7.0508,3.891 c 0,0 -19.5898,8.125 -30.0586,11.016 l -12.1679,-5.11 -1.5313,-7.961 26.668,-10.039 0.2929,7.395 c 0.793,4.375 5.6172,1.347 5.6172,1.347 l 21.8749,-10.8"
             inkscape:connector-curvature="0" /><path
             id="path114"
             style="fill:#ffffff;fill-opacity:1;fill-rule:nonzero;stroke:none"
             d="M 107.426,119.473 69.1836,139.707"
             inkscape:connector-curvature="0" /><path
             id="path116"
             style="fill:none;stroke:#087fbf;stroke-width:4;stroke-linecap:butt;stroke-linejoin:miter;stroke-miterlimit:4;stroke-dasharray:none;stroke-opacity:1"
             d="M 107.426,119.473 69.1836,139.707"
             inkscape:connector-curvature="0" /></g></g></g></g></svg>