<?xml version="1.0" encoding="UTF-8" standalone="no"?>
<svg
   xmlns:dc="http://purl.org/dc/elements/1.1/"
   xmlns:cc="http://creativecommons.org/ns#"
   xmlns:rdf="http://www.w3.org/1999/02/22-rdf-syntax-ns#"
   xmlns:svg="http://www.w3.org/2000/svg"
   xmlns="http://www.w3.org/2000/svg"
   viewBox="0 0 42.5 47.5"
   height="47.5"
   width="42.5"
   xml:space="preserve"
   version="1.1"
   id="svg2"><metadata
     id="metadata8"><rdf:RDF><cc:Work
         rdf:about=""><dc:format>image/svg+xml</dc:format><dc:type
           rdf:resource="http://purl.org/dc/dcmitype/StillImage" /></cc:Work></rdf:RDF></metadata><defs
     id="defs6"><clipPath
       id="clipPath18"
       clipPathUnits="userSpaceOnUse"><path
         id="path20"
         d="M 0,10 0,377 340,377 340,10 0,10 Z" /></clipPath></defs><g
     transform="matrix(1.25,0,0,-1.25,0,47.5)"
     id="g10"><g
       transform="scale(0.1,0.1)"
       id="g12"><g
         id="g14"><g
           clip-path="url(#clipPath18)"
           id="g16"><path
             id="path22"
             style="fill:#087fbf;fill-opacity:1;fill-rule:nonzero;stroke:none"
             d="M 171.172,13.3281 4.30078,100.91 l 0,186.52 166.87122,-87.578 0,-186.5239" /><path
             id="path24"
             style="fill:none;stroke:#ffffff;stroke-width:4;stroke-linecap:butt;stroke-linejoin:miter;stroke-miterlimit:4;stroke-dasharray:none;stroke-opacity:1"
             d="M 171.172,13.3281 4.30078,100.91 l 0,186.52 166.87122,-87.578 0,-186.5239 z" /><path
             id="path26"
             style="fill:#087fbf;fill-opacity:1;fill-rule:nonzero;stroke:none"
             d="m 171.172,13.3281 166.879,87.5819 0,186.52 -166.879,-87.578 0,-186.5239" /><path
             id="path28"
             style="fill:none;stroke:#ffffff;stroke-width:4;stroke-linecap:butt;stroke-linejoin:miter;stroke-miterlimit:4;stroke-dasharray:none;stroke-opacity:1"
             d="m 171.172,13.3281 166.879,87.5819 0,186.52 -166.879,-87.578 0,-186.5239 z" /><path
             id="path30"
             style="fill:#087fbf;fill-opacity:1;fill-rule:nonzero;stroke:none"
             d="M 171.172,199.852 338.051,287.43 171.172,375.012 4.30078,287.43 171.172,199.852" /><path
             id="path32"
             style="fill:none;stroke:#ffffff;stroke-width:4;stroke-linecap:butt;stroke-linejoin:miter;stroke-miterlimit:4;stroke-dasharray:none;stroke-opacity:1"
             d="M 171.172,199.852 338.051,287.43 171.172,375.012 4.30078,287.43 171.172,199.852 Z" /><path
             id="path34"
             style="fill:#087fbf;fill-opacity:1;fill-rule:nonzero;stroke:none"
             d="m 338.051,101.609 -166.879,-88.2809 0,185.8199 166.879,88.282 0,-185.821" /><path
             id="path36"
             style="fill:none;stroke:#ffffff;stroke-width:4;stroke-linecap:butt;stroke-linejoin:miter;stroke-miterlimit:4;stroke-dasharray:none;stroke-opacity:1"
             d="m 338.051,101.609 -166.879,-88.2809 0,185.8199 166.879,88.282 0,-185.821 z" /><path
             id="path38"
             style="fill:#ffffff;fill-opacity:1;fill-rule:nonzero;stroke:none"
             d="m 171.172,277.199 35.078,-18.789 -21.051,0 0,-35.039 -28.051,0 0,35.039 -21.058,0 35.082,18.789" /><path
             id="path40"
             style="fill:#ffffff;fill-opacity:1;fill-rule:nonzero;stroke:none"
             d="m 298.551,287.391 -35.031,-18.789 0,11.25 -65.469,0 0,15.039 65.469,0 0,11.25 35.031,-18.75" /><path
             id="path42"
             style="fill:#ffffff;fill-opacity:1;fill-rule:nonzero;stroke:none"
             d="m 171.172,296.301 -35.082,18.789 21.058,0 0,35.031 28.051,0 0,-35.031 21.051,0 -35.078,-18.789" /><path
             id="path44"
             style="fill:#ffffff;fill-opacity:1;fill-rule:nonzero;stroke:none"
             d="m 43.75,287.391 35.0781,18.75 0,-11.25 65.4729,0 0,-15.039 -65.4729,0 0,-11.25 -35.0781,18.789" /><path
             id="path46"
             style="fill:#ffffff;fill-opacity:1;fill-rule:nonzero;stroke:none"
             d="m 322.461,155.09 0,105.969 -128.32,-67.93 0,-105.9688 128.32,67.9298" /><path
             id="path48"
             style="fill:none;stroke:#087fbf;stroke-width:4;stroke-linecap:round;stroke-linejoin:round;stroke-miterlimit:4;stroke-dasharray:none;stroke-opacity:1"
             d="m 322.461,155.09 0,105.969 -128.32,-67.93 0,-105.9688 128.32,67.9298 z" /><path
             id="path50"
             style="fill:#ffffff;fill-opacity:1;fill-rule:nonzero;stroke:none"
             d="m 212.77,191.961 90.16,47.699 c 5.859,3.078 10.621,0.391 10.621,-6.019 l 0,-62.379 c 0,-6.41 -4.762,-14.141 -10.621,-17.231 l -90.16,-47.73 c -5.86,-3.09 -10.579,-0.391 -10.579,6.008 l 0,62.39 c 0,6.403 4.719,14.141 10.579,17.262" /><path
             id="path52"
             style="fill:none;stroke:#087fbf;stroke-width:4;stroke-linecap:round;stroke-linejoin:round;stroke-miterlimit:4;stroke-dasharray:none;stroke-opacity:1"
             d="m 212.77,191.961 90.16,47.699 c 5.859,3.078 10.621,0.391 10.621,-6.019 l 0,-62.379 c 0,-6.41 -4.762,-14.141 -10.621,-17.231 l -90.16,-47.73 c -5.86,-3.09 -10.579,-0.391 -10.579,6.008 l 0,62.39 c 0,6.403 4.719,14.141 10.579,17.262 z" /><path
             id="path54"
             style="fill:#ffffff;fill-opacity:1;fill-rule:nonzero;stroke:none"
             d="m 294.18,127 -71.719,-37.9687 0,13.1287 71.719,37.961 0,-13.121" /><path
             id="path56"
             style="fill:none;stroke:#087fbf;stroke-width:4;stroke-linecap:round;stroke-linejoin:round;stroke-miterlimit:4;stroke-dasharray:none;stroke-opacity:1"
             d="m 294.18,127 -71.719,-37.9687 0,13.1287 71.719,37.961 0,-13.121 z" /><path
             id="path58"
             style="fill:#ffffff;fill-opacity:1;fill-rule:nonzero;stroke:none"
             d="m 322.461,111.02 -128.32,-67.9692 0,30.8281 128.32,67.9221 0,-30.781" /><path
             id="path60"
             style="fill:none;stroke:#087fbf;stroke-width:4;stroke-linecap:round;stroke-linejoin:round;stroke-miterlimit:4;stroke-dasharray:none;stroke-opacity:1"
             d="m 322.461,111.02 -128.32,-67.9692 0,30.8281 128.32,67.9221 0,-30.781 z" /><path
             id="path62"
             style="fill:#ffffff;fill-opacity:1;fill-rule:nonzero;stroke:none"
             d="m 326.52,106.801 -136.399,-72.1799 0,13.1172 136.399,72.1917 0,-13.129" /><path
             id="path64"
             style="fill:none;stroke:#087fbf;stroke-width:4;stroke-linecap:round;stroke-linejoin:round;stroke-miterlimit:4;stroke-dasharray:none;stroke-opacity:1"
             d="m 326.52,106.801 -136.399,-72.1799 0,13.1172 136.399,72.1917 0,-13.129 z" /><path
             id="path66"
             style="fill:#087fbf;fill-opacity:1;fill-rule:nonzero;stroke:none"
             d="m 261.641,166.141 -15.082,-24.219 0,54.18 36.171,-19.883 -21.089,-10.078" /><path
             id="path68"
             style="fill:#747272;fill-opacity:1;fill-rule:nonzero;stroke:none"
             d="m 260.27,164.77 10.32,-20.5 2.769,2.73 -10.308,20.512 -2.781,-2.742" /><path
             id="path70"
             style="fill:#ffffff;fill-opacity:1;fill-rule:nonzero;stroke:none"
             d="m 159.449,70.75 0,41.371 -24.918,-6.922 24.918,-34.449" /><path
             id="path72"
             style="fill:none;stroke:#ffffff;stroke-width:0.75999999;stroke-linecap:butt;stroke-linejoin:miter;stroke-miterlimit:4;stroke-dasharray:none;stroke-opacity:1"
             d="m 159.449,70.75 0,41.371 -24.918,-6.922 24.918,-34.449 z" /><path
             id="path74"
             style="fill:#ffffff;fill-opacity:1;fill-rule:nonzero;stroke:none"
             d="m 17.3008,144.93 0,41.371 24.9297,-32.821 -24.9297,-8.55" /><path
             id="path76"
             style="fill:none;stroke:#ffffff;stroke-width:0.75999999;stroke-linecap:butt;stroke-linejoin:miter;stroke-miterlimit:4;stroke-dasharray:none;stroke-opacity:1"
             d="m 17.3008,144.93 0,41.371 24.9297,-32.821 -24.9297,-8.55 z" /><path
             id="path78"
             style="fill:#ffffff;fill-opacity:1;fill-rule:nonzero;stroke:none"
             d="m 34.0195,218.328 0,-41.367 -24.91794,32.848 24.91794,8.519" /><path
             id="path80"
             style="fill:none;stroke:#ffffff;stroke-width:0.75999999;stroke-linecap:butt;stroke-linejoin:miter;stroke-miterlimit:4;stroke-dasharray:none;stroke-opacity:1"
             d="m 34.0195,218.328 0,-41.367 -24.91794,32.848 24.91794,8.519 z" /><path
             id="path82"
             style="fill:#ffffff;fill-opacity:1;fill-rule:nonzero;stroke:none"
             d="m 140.82,162.512 0,-41.371 24.918,6.91 -24.918,34.461" /><path
             id="path84"
             style="fill:none;stroke:#ffffff;stroke-width:0.75999999;stroke-linecap:butt;stroke-linejoin:miter;stroke-miterlimit:4;stroke-dasharray:none;stroke-opacity:1"
             d="m 140.82,162.512 0,-41.371 24.918,6.91 -24.918,34.461 z" /><path
             id="path86"
             style="fill:#ffffff;fill-opacity:1;fill-rule:nonzero;stroke:none"
             d="m 146.25,139.578 -15.039,7.774" /><path
             id="path88"
             style="fill:#ffffff;fill-opacity:1;fill-rule:nonzero;stroke:none"
             d="m 129.57,141.488 15.039,-7.808 3.282,6.761 -17.813,9.219 -0.508,-8.172" /><path
             id="path90"
             style="fill:#ffffff;fill-opacity:1;fill-rule:nonzero;stroke:none"
             d="m 151.48,96.6914 18.829,-9.7695" /><path
             id="path92"
             style="fill:none;stroke:#ffffff;stroke-width:7.5999999;stroke-linecap:butt;stroke-linejoin:miter;stroke-miterlimit:4;stroke-dasharray:none;stroke-opacity:1"
             d="m 151.48,96.6914 18.829,-9.7695" /><path
             id="path94"
             style="fill:#ffffff;fill-opacity:1;fill-rule:nonzero;stroke:none"
             d="M 23.9805,163.289 3.91016,173.719" /><path
             id="path96"
             style="fill:none;stroke:#ffffff;stroke-width:7.5999999;stroke-linecap:butt;stroke-linejoin:miter;stroke-miterlimit:4;stroke-dasharray:none;stroke-opacity:1"
             d="M 23.9805,163.289 3.91016,173.719" /><path
             id="path98"
             style="fill:#ffffff;fill-opacity:1;fill-rule:nonzero;stroke:none"
             d="m 24.8398,201.73 18.8321,-9.808" /><path
             id="path100"
             style="fill:#ffffff;fill-opacity:1;fill-rule:nonzero;stroke:none"
             d="m 23.1992,198.371 21.8789,-11.172 0.2305,8.082 -18.8281,9.809 -3.2813,-6.719" /><path
             id="path102"
             style="fill:#ffffff;fill-opacity:1;fill-rule:nonzero;stroke:none"
             d="M 117.77,154.66 117.66,71.2617 58.6719,102.23 58.5508,185.789 117.77,154.66" /><path
             id="path104"
             style="fill:#ffffff;fill-opacity:1;fill-rule:nonzero;stroke:none"
             d="m 107.422,136.102 -38.2423,20.277 0,15.191 38.2423,-20.23 0,-15.238" /><path
             id="path106"
             style="fill:none;stroke:#087fbf;stroke-width:4;stroke-linecap:butt;stroke-linejoin:miter;stroke-miterlimit:4;stroke-dasharray:none;stroke-opacity:1"
             d="m 107.422,136.102 -38.2423,20.277 0,15.191 38.2423,-20.23 0,-15.238 z" /><path
             id="path108"
             style="fill:#ffffff;fill-opacity:1;fill-rule:nonzero;stroke:none"
             d="m 107.422,84.5781 -38.2423,20.2309 0,38.011 38.2423,-20.23 0,-38.0119" /><path
             id="path110"
             style="fill:none;stroke:#087fbf;stroke-width:4;stroke-linecap:butt;stroke-linejoin:miter;stroke-miterlimit:4;stroke-dasharray:none;stroke-opacity:1"
             d="m 107.422,84.5781 -38.2423,20.2309 0,38.011 38.2423,-20.23 0,-38.0119 z" /><path
             id="path112"
             style="fill:#ffffff;fill-opacity:1;fill-rule:nonzero;stroke:none"
             d="m 101.559,187.512 c 0,0 1.992,-0.551 3.32,-6.063 l 0.351,-9.289 25.508,-15.941 2.782,5.472 -7.43,16.789 c -22.77,16.532 -28.1603,19.301 -28.1603,19.301 l -7.0313,3.91 c 0,0 -19.6093,8.118 -30.0781,11.008 l -12.1484,-5.109 -1.5625,-7.969 26.6797,-10.043 0.3125,7.383 c 0.7773,4.379 5.5898,1.367 5.5898,1.367 l 21.8676,-10.816" /><path
             id="path114"
             style="fill:#ffffff;fill-opacity:1;fill-rule:nonzero;stroke:none"
             d="M 107.422,129.461 69.1797,149.699" /><path
             id="path116"
             style="fill:none;stroke:#087fbf;stroke-width:4;stroke-linecap:butt;stroke-linejoin:miter;stroke-miterlimit:4;stroke-dasharray:none;stroke-opacity:1"
             d="M 107.422,129.461 69.1797,149.699" /></g></g></g></g></svg>