<svg xmlns="http://www.w3.org/2000/svg" viewBox="0 0 245 132.5" height="132.5" width="245"><path d="M.297 130.95h59.424V92.21H.297v38.74z" fill="#20a3e4" fill-rule="evenodd"/><path d="M.297 130.95h59.424V92.21H.297v38.74z" fill="none" stroke="#afdff4" stroke-width=".596375" stroke-linecap="square" stroke-linejoin="bevel" stroke-miterlimit="10"/><path d="M.297 92.21l4.79-4.96h59.424l-4.79 4.96H.297" fill="#43b6ea" fill-rule="evenodd"/><path d="M.297 92.21l4.79-4.96h59.424l-4.79 4.96H.297z" fill="none" stroke="#afdff4" stroke-width=".596375" stroke-linecap="square" stroke-linejoin="bevel" stroke-miterlimit="10"/><path d="M59.721 92.21l4.79-4.96v38.74l-4.79 4.96V92.21" fill="#1d76a0" fill-rule="evenodd"/><path d="M59.721 92.21l4.79-4.96v38.74l-4.79 4.96V92.21z" fill="none" stroke="#afdff4" stroke-width=".596375" stroke-linecap="square" stroke-linejoin="bevel" stroke-miterlimit="10"/><path d="M48.027 100.609v-2.29l5.366 3.813-5.366 3.818v-2.29h-7.284v-3.051h7.284M18.199 110.34v-2.29l5.37 3.819-5.37 3.814v-2.29H4.32v-3.053H18.2M48.027 120.071v-2.285l5.366 3.814-5.366 3.819v-2.29h-7.284v-3.058h7.284" fill="#242021" fill-rule="evenodd"/><path d="M47.261 99.842v-2.1l5.37 3.628-5.37 3.819v-2.29H39.98v-3.057h7.281M17.431 109.579v-2.29l5.366 3.813-5.366 3.818v-2.29H3.75v-3.051h13.681" fill="#fff" fill-rule="evenodd"/><path d="M52.822 110.34v-2.29l5.557 3.819-5.557 3.814v-2.29h-12.27v-3.053h12.27" fill="#242021" fill-rule="evenodd"/><path d="M52.246 109.579v-2.29l5.366 3.813-5.366 3.818v-2.29h-12.46v-3.051h12.46M47.261 119.31v-2.29l5.37 3.819-5.37 3.817v-2.295H39.98v-3.051h7.281" fill="#fff" fill-rule="evenodd"/><path d="M23.872 127.709h14.175V95.453H23.873v32.256z" fill="#1c7ba7" fill-rule="evenodd"/><path d="M23.872 127.71h14.175V95.452H23.873v32.256z" fill="none" stroke="#8ed0f2" stroke-width=".894625" stroke-linecap="square" stroke-miterlimit="10"/><path d="M28.086 124.658h6.138v-4.395h-6.138v4.395z" fill="#fff" fill-rule="evenodd"/><path d="M28.086 124.657h6.138v-4.395h-6.138v4.395z" fill="none" stroke="#fff" stroke-width=".29825" stroke-linecap="square" stroke-miterlimit="10"/><path d="M35.947 125.989h1.143v-1.333h-1.143v1.333z" fill="#fff" fill-rule="evenodd"/><path d="M35.947 125.99h1.143v-1.333h-1.143v1.332z" fill="none" stroke="#fff" stroke-width=".29825" stroke-linecap="square" stroke-miterlimit="10"/><path d="M35.947 123.319h1.143v-1.338h-1.143v1.338z" fill="#fff" fill-rule="evenodd"/><path d="M35.947 123.318h1.143v-1.338h-1.143v1.338z" fill="none" stroke="#fff" stroke-width=".29825" stroke-linecap="square" stroke-miterlimit="10"/><path d="M35.947 120.647h1.143v-1.337h-1.143v1.337z" fill="#fff" fill-rule="evenodd"/><path d="M35.947 120.647h1.143v-1.337h-1.143v1.337z" fill="none" stroke="#fff" stroke-width=".29825" stroke-linecap="square" stroke-miterlimit="10"/><path d="M35.947 117.973h1.143v-1.143h-1.143v1.143z" fill="#fff" fill-rule="evenodd"/><path d="M35.947 117.972h1.143v-1.142h-1.143v1.142z" fill="none" stroke="#fff" stroke-width=".29825" stroke-linecap="square" stroke-miterlimit="10"/><path d="M35.947 115.301h1.143v-1.142h-1.143v1.142z" fill="#fff" fill-rule="evenodd"/><path d="M35.947 115.3h1.143v-1.142h-1.143v1.143z" fill="none" stroke="#fff" stroke-width=".29825" stroke-linecap="square" stroke-miterlimit="10"/><path d="M35.947 112.82h1.143v-1.333h-1.143v1.333z" fill="#fff" fill-rule="evenodd"/><path d="M35.947 112.82h1.143v-1.332h-1.143v1.333z" fill="none" stroke="#fff" stroke-width=".29825" stroke-linecap="square" stroke-miterlimit="10"/><path d="M35.947 110.15h1.143v-1.338h-1.143v1.338z" fill="#fff" fill-rule="evenodd"/><path d="M35.947 110.15h1.143v-1.338h-1.143v1.337z" fill="none" stroke="#fff" stroke-width=".29825" stroke-linecap="square" stroke-miterlimit="10"/><path d="M35.947 107.478h1.143v-1.337h-1.143v1.337z" fill="#fff" fill-rule="evenodd"/><path d="M35.947 107.478h1.143v-1.337h-1.143v1.337z" fill="none" stroke="#fff" stroke-width=".29825" stroke-linecap="square" stroke-miterlimit="10"/><path d="M35.947 104.808h1.143v-1.338h-1.143v1.338z" fill="#fff" fill-rule="evenodd"/><path d="M35.947 104.808h1.143v-1.337h-1.143v1.337z" fill="none" stroke="#fff" stroke-width=".29825" stroke-linecap="square" stroke-miterlimit="10"/><path d="M35.947 102.132h1.143v-1.142h-1.143v1.142z" fill="#fff" fill-rule="evenodd"/><path d="M35.947 102.132h1.143v-1.143h-1.143v1.143z" fill="none" stroke="#fff" stroke-width=".29825" stroke-linecap="square" stroke-miterlimit="10"/><path d="M37.09 98.319v1.142l-1.143.19V98.32h1.143" fill="#fff" fill-rule="evenodd"/><path d="M37.09 98.318v1.144l-1.143.19v-1.334h1.143z" fill="none" stroke="#fff" stroke-width=".29825" stroke-linecap="square" stroke-miterlimit="10"/><path d="M25.215 125.989h1.147v-1.333h-1.147v1.333z" fill="#fff" fill-rule="evenodd"/><path d="M25.215 125.99h1.147v-1.333h-1.147v1.332z" fill="none" stroke="#fff" stroke-width=".29825" stroke-linecap="square" stroke-miterlimit="10"/><path d="M25.215 123.319h1.147v-1.338h-1.147v1.338z" fill="#fff" fill-rule="evenodd"/><path d="M25.215 123.318h1.147v-1.338h-1.147v1.338z" fill="none" stroke="#fff" stroke-width=".29825" stroke-linecap="square" stroke-miterlimit="10"/><path d="M25.215 120.647h1.147v-1.337h-1.147v1.337z" fill="#fff" fill-rule="evenodd"/><path d="M25.215 120.647h1.147v-1.337h-1.147v1.337z" fill="none" stroke="#fff" stroke-width=".29825" stroke-linecap="square" stroke-miterlimit="10"/><path d="M25.215 117.973h1.147v-1.143h-1.147v1.143z" fill="#fff" fill-rule="evenodd"/><path d="M25.215 117.972h1.147v-1.142h-1.147v1.142z" fill="none" stroke="#fff" stroke-width=".29825" stroke-linecap="square" stroke-miterlimit="10"/><path d="M25.215 115.301h1.147v-1.142h-1.147v1.142z" fill="#fff" fill-rule="evenodd"/><path d="M25.215 115.3h1.147v-1.142h-1.147v1.143z" fill="none" stroke="#fff" stroke-width=".29825" stroke-linecap="square" stroke-miterlimit="10"/><path d="M25.215 112.82h1.147v-1.333h-1.147v1.333z" fill="#fff" fill-rule="evenodd"/><path d="M25.215 112.82h1.147v-1.332h-1.147v1.333z" fill="none" stroke="#fff" stroke-width=".29825" stroke-linecap="square" stroke-miterlimit="10"/><path d="M25.215 110.15h1.147v-1.338h-1.147v1.338z" fill="#fff" fill-rule="evenodd"/><path d="M25.215 110.15h1.147v-1.338h-1.147v1.337z" fill="none" stroke="#fff" stroke-width=".29825" stroke-linecap="square" stroke-miterlimit="10"/><path d="M25.215 107.478h1.147v-1.337h-1.147v1.337z" fill="#fff" fill-rule="evenodd"/><path d="M25.215 107.478h1.147v-1.337h-1.147v1.337z" fill="none" stroke="#fff" stroke-width=".29825" stroke-linecap="square" stroke-miterlimit="10"/><path d="M25.215 104.808h1.147v-1.338h-1.147v1.338z" fill="#fff" fill-rule="evenodd"/><path d="M25.215 104.808h1.147v-1.337h-1.147v1.337z" fill="none" stroke="#fff" stroke-width=".29825" stroke-linecap="square" stroke-miterlimit="10"/><path d="M25.215 102.132h1.147v-1.142h-1.147v1.142z" fill="#fff" fill-rule="evenodd"/><path d="M25.215 102.132h1.147v-1.143h-1.147v1.143z" fill="none" stroke="#fff" stroke-width=".29825" stroke-linecap="square" stroke-miterlimit="10"/><path d="M25.215 99.651h1.147V98.32h-1.147v1.332z" fill="#fff" fill-rule="evenodd"/><path d="M25.215 99.65h1.147v-1.332h-1.147v1.333z" fill="none" stroke="#fff" stroke-width=".29825" stroke-linecap="square" stroke-miterlimit="10"/><path d="M28.086 117.591h6.138v-4.39h-6.138v4.39z" fill="#fff" fill-rule="evenodd"/><path d="M28.086 117.592h6.138v-4.39h-6.138v4.39z" fill="none" stroke="#fff" stroke-width=".29825" stroke-linecap="square" stroke-miterlimit="10"/><path d="M28.086 110.531h6.138v-4.39h-6.138v4.39z" fill="#fff" fill-rule="evenodd"/><path d="M28.086 110.53h6.138v-4.39h-6.138v4.39z" fill="none" stroke="#fff" stroke-width=".29825" stroke-linecap="square" stroke-miterlimit="10"/><path d="M28.086 103.47h6.138v-4.198h-6.138v4.198z" fill="#fff" fill-rule="evenodd"/><path d="M28.086 103.47h6.138v-4.2h-6.138v4.2z" fill="none" stroke="#fff" stroke-width=".29825" stroke-linecap="square" stroke-miterlimit="10"/><path d="M9.248 95.365c-3.692-.737-5.634 1.153-5.327 2.783l.024.088c-2.871.488-2.119 3.882-.742 3.882l.137-.006c-.346 1.593 3.008 3.213 4.883 2.403l.117-.131c.669 1.435 3.041 1.674 5.385 1.732 2.031.049 3.219-.107 4.088-1l.136.039c3.252.264 4.736-1.983 4.024-3.599l.176-.049c1.107-.293 1.235-2.85-.664-3.232l.033-.097c.826-1.665-1.123-3.238-3.823-2.94l-.19-.098c-1.934-1.752-7.505-1.47-8.15.264l-.107-.039" fill="#fff"/><path d="M9.248 95.364c-3.692-.737-5.634 1.153-5.327 2.784l.024.088c-2.871.489-2.119 3.882-.742 3.882l.137-.005c-.346 1.592 3.008 3.213 4.883 2.403l.117-.133c.669 1.435 3.041 1.675 5.385 1.734 2.031.049 3.219-.108 4.088-1.001l.136.038c3.252.264 4.736-1.982 4.024-3.598l.176-.05c1.107-.292 1.235-2.85-.664-3.232l.033-.097c.826-1.665-1.123-3.237-3.823-2.939l-.19-.097c-1.934-1.754-7.505-1.47-8.15.262l-.107-.039z" fill="none" stroke="#000" stroke-width=".5"/><path d="M82.784 129.587h148.555V32.732H82.784v96.855z" fill="#20a3e4" fill-rule="evenodd"/><path d="M82.784 129.588h148.555V32.733H82.784v96.855z" fill="none" stroke="#afdff4" stroke-width="1.490875" stroke-linecap="square" stroke-linejoin="bevel" stroke-miterlimit="10"/><path d="M82.784 32.732L94.76 20.325h148.554l-11.977 12.407H82.784" fill="#43b6ea" fill-rule="evenodd"/><path d="M82.784 32.733L94.76 20.326h148.554l-11.977 12.407H82.784z" fill="none" stroke="#afdff4" stroke-width="1.490875" stroke-linecap="square" stroke-linejoin="bevel" stroke-miterlimit="10"/><path d="M231.338 32.732l11.977-12.407v96.856l-11.977 12.408V32.732" fill="#1d76a0" fill-rule="evenodd"/><path d="M231.338 32.733l11.977-12.407v96.855l-11.977 12.407V32.733z" fill="none" stroke="#afdff4" stroke-width="1.490875" stroke-linecap="square" stroke-linejoin="bevel" stroke-miterlimit="10"/><path d="M202.11 53.724v-5.722l13.418 9.54-13.418 9.542v-5.723h-18.219v-7.637h18.219M127.534 78.06v-5.728l13.418 9.547-13.418 9.536v-5.724H92.846V78.06h34.688M202.11 102.391V96.67l13.418 9.54-13.418 9.541v-5.723h-18.219v-7.636h18.219" fill="#242021" fill-rule="evenodd"/><path d="M200.19 51.815v-5.249l13.419 9.068-13.419 9.54V59.45h-18.207v-7.636h18.207M125.615 76.151v-5.727l13.422 9.545-13.422 9.54v-5.726H91.406V76.15h34.209" fill="#fff" fill-rule="evenodd"/><path d="M214.088 78.06v-5.728l13.896 9.547-13.896 9.536v-5.724h-30.67V78.06h30.67" fill="#242021" fill-rule="evenodd"/><path d="M212.651 76.151v-5.727l13.418 9.545-13.418 9.54v-5.726H181.5V76.15h31.152M200.19 100.481V94.76l13.419 9.54-13.419 9.542v-5.722h-18.207v-7.638h18.207" fill="#fff" fill-rule="evenodd"/><path d="M141.714 121.479h35.44V40.844h-35.44v80.635z" fill="#1c7ba7" fill-rule="evenodd"/><path d="M141.714 121.478h35.44V40.843h-35.44v80.635z" fill="none" stroke="#8ed0f2" stroke-width="2.2365" stroke-linecap="square" stroke-miterlimit="10"/><path d="M152.256 113.841h15.338v-10.97h-15.338v10.97z" fill="#fff" fill-rule="evenodd"/><path d="M152.256 113.84h15.338v-10.97h-15.338v10.97z" fill="none" stroke="#fff" stroke-width=".745625" stroke-linecap="square" stroke-miterlimit="10"/><path d="M171.909 117.181h2.856v-3.34h-2.856v3.34z" fill="#fff" fill-rule="evenodd"/><path d="M171.909 117.18h2.856v-3.34h-2.856v3.34z" fill="none" stroke="#fff" stroke-width=".745625" stroke-linecap="square" stroke-miterlimit="10"/><path d="M171.909 110.501h2.856v-3.335h-2.856v3.336z" fill="#fff" fill-rule="evenodd"/><path d="M171.909 110.502h2.856v-3.335h-2.856v3.335z" fill="none" stroke="#fff" stroke-width=".745625" stroke-linecap="square" stroke-miterlimit="10"/><path d="M171.909 103.821h2.856v-3.34h-2.856v3.34z" fill="#fff" fill-rule="evenodd"/><path d="M171.909 103.822h2.856v-3.34h-2.856v3.34z" fill="none" stroke="#fff" stroke-width=".745625" stroke-linecap="square" stroke-miterlimit="10"/><path d="M171.909 97.143h2.856V94.28h-2.856v2.862z" fill="#fff" fill-rule="evenodd"/><path d="M171.909 97.142h2.856v-2.861h-2.856v2.861z" fill="none" stroke="#fff" stroke-width=".745625" stroke-linecap="square" stroke-miterlimit="10"/><path d="M171.909 90.462h2.856v-2.86h-2.856v2.86z" fill="#fff" fill-rule="evenodd"/><path d="M171.909 90.462h2.856V87.6h-2.856v2.86z" fill="none" stroke="#fff" stroke-width=".745625" stroke-linecap="square" stroke-miterlimit="10"/><path d="M171.909 84.261h2.856v-3.34h-2.856v3.34z" fill="#fff" fill-rule="evenodd"/><path d="M171.909 84.26h2.856v-3.34h-2.856v3.34z" fill="none" stroke="#fff" stroke-width=".745625" stroke-linecap="square" stroke-miterlimit="10"/><path d="M171.909 77.581h2.856v-3.34h-2.856v3.34z" fill="#fff" fill-rule="evenodd"/><path d="M171.909 77.582h2.856v-3.34h-2.856v3.34z" fill="none" stroke="#fff" stroke-width=".745625" stroke-linecap="square" stroke-miterlimit="10"/><path d="M171.909 70.902h2.856v-3.34h-2.856v3.34z" fill="#fff" fill-rule="evenodd"/><path d="M171.909 70.902h2.856v-3.34h-2.856v3.34z" fill="none" stroke="#fff" stroke-width=".745625" stroke-linecap="square" stroke-miterlimit="10"/><path d="M171.909 64.223h2.856v-3.34h-2.856v3.34z" fill="#fff" fill-rule="evenodd"/><path d="M171.909 64.222h2.856v-3.34h-2.856v3.34z" fill="none" stroke="#fff" stroke-width=".745625" stroke-linecap="square" stroke-miterlimit="10"/><path d="M171.909 57.543h2.856V54.68h-2.856v2.862z" fill="#fff" fill-rule="evenodd"/><path d="M171.909 57.542h2.856v-2.861h-2.856v2.861z" fill="none" stroke="#fff" stroke-width=".745625" stroke-linecap="square" stroke-miterlimit="10"/><path d="M174.765 48.001v2.861l-2.856.48v-3.34h2.856" fill="#fff" fill-rule="evenodd"/><path d="M174.765 48.002v2.861l-2.856.478v-3.339h2.856z" fill="none" stroke="#fff" stroke-width=".745625" stroke-linecap="square" stroke-miterlimit="10"/><path d="M145.069 117.181h2.876v-3.34h-2.876v3.34z" fill="#fff" fill-rule="evenodd"/><path d="M145.069 117.18h2.876v-3.34h-2.876v3.34z" fill="none" stroke="#fff" stroke-width=".745625" stroke-linecap="square" stroke-miterlimit="10"/><path d="M145.069 110.501h2.876v-3.335h-2.876v3.336z" fill="#fff" fill-rule="evenodd"/><path d="M145.069 110.502h2.876v-3.335h-2.876v3.335z" fill="none" stroke="#fff" stroke-width=".745625" stroke-linecap="square" stroke-miterlimit="10"/><path d="M145.069 103.821h2.876v-3.34h-2.876v3.34z" fill="#fff" fill-rule="evenodd"/><path d="M145.069 103.822h2.876v-3.34h-2.876v3.34z" fill="none" stroke="#fff" stroke-width=".745625" stroke-linecap="square" stroke-miterlimit="10"/><path d="M145.069 97.143h2.876V94.28h-2.876v2.862z" fill="#fff" fill-rule="evenodd"/><path d="M145.069 97.142h2.876v-2.861h-2.876v2.861z" fill="none" stroke="#fff" stroke-width=".745625" stroke-linecap="square" stroke-miterlimit="10"/><path d="M145.069 90.462h2.876v-2.86h-2.876v2.86z" fill="#fff" fill-rule="evenodd"/><path d="M145.069 90.462h2.876V87.6h-2.876v2.86z" fill="none" stroke="#fff" stroke-width=".745625" stroke-linecap="square" stroke-miterlimit="10"/><path d="M145.069 84.261h2.876v-3.34h-2.876v3.34z" fill="#fff" fill-rule="evenodd"/><path d="M145.069 84.26h2.876v-3.34h-2.876v3.34z" fill="none" stroke="#fff" stroke-width=".745625" stroke-linecap="square" stroke-miterlimit="10"/><path d="M145.069 77.581h2.876v-3.34h-2.876v3.34z" fill="#fff" fill-rule="evenodd"/><path d="M145.069 77.582h2.876v-3.34h-2.876v3.34z" fill="none" stroke="#fff" stroke-width=".745625" stroke-linecap="square" stroke-miterlimit="10"/><path d="M145.069 70.902h2.876v-3.34h-2.876v3.34z" fill="#fff" fill-rule="evenodd"/><path d="M145.069 70.902h2.876v-3.34h-2.876v3.34z" fill="none" stroke="#fff" stroke-width=".745625" stroke-linecap="square" stroke-miterlimit="10"/><path d="M145.069 64.223h2.876v-3.34h-2.876v3.34z" fill="#fff" fill-rule="evenodd"/><path d="M145.069 64.222h2.876v-3.34h-2.876v3.34z" fill="none" stroke="#fff" stroke-width=".745625" stroke-linecap="square" stroke-miterlimit="10"/><path d="M145.069 57.543h2.876V54.68h-2.876v2.862z" fill="#fff" fill-rule="evenodd"/><path d="M145.069 57.542h2.876v-2.861h-2.876v2.861z" fill="none" stroke="#fff" stroke-width=".745625" stroke-linecap="square" stroke-miterlimit="10"/><path d="M145.069 51.341h2.876v-3.34h-2.876v3.34z" fill="#fff" fill-rule="evenodd"/><path d="M145.069 51.342h2.876v-3.34h-2.876v3.34z" fill="none" stroke="#fff" stroke-width=".745625" stroke-linecap="square" stroke-miterlimit="10"/><path d="M152.256 96.19h15.338V85.214h-15.338V96.19z" fill="#fff" fill-rule="evenodd"/><path d="M152.256 96.19h15.338V85.213h-15.338V96.19z" fill="none" stroke="#fff" stroke-width=".745625" stroke-linecap="square" stroke-miterlimit="10"/><path d="M152.256 78.539h15.338V67.563h-15.338v10.976z" fill="#fff" fill-rule="evenodd"/><path d="M152.256 78.538h15.338V67.562h-15.338v10.976z" fill="none" stroke="#fff" stroke-width=".745625" stroke-linecap="square" stroke-miterlimit="10"/><path d="M152.256 60.881h15.338V50.384h-15.338V60.88z" fill="#fff" fill-rule="evenodd"/><path d="M152.256 60.882h15.338V50.384h-15.338v10.498z" fill="none" stroke="#fff" stroke-width=".745625" stroke-linecap="square" stroke-miterlimit="10"/><path d="M105.151 40.619c-9.218-1.842-14.077 2.876-13.315 6.957l.068.225c-7.188 1.22-5.308 9.697-1.86 9.697l.342-.014c-.87 3.985 7.524 8.037 12.201 6.011l.303-.328c1.67 3.584 7.599 4.18 13.458 4.331 5.083.127 8.047-.273 10.23-2.5l.33.098c8.13.654 11.837-4.961 10.06-8.994l.44-.127c2.768-.732 3.09-7.129-1.665-8.076l.087-.25c2.07-4.164-2.803-8.09-9.56-7.353l-.469-.243c-4.839-4.38-18.76-3.668-20.376.663l-.274-.097" fill="#fff"/><path d="M105.151 40.618c-9.218-1.84-14.077 2.876-13.315 6.959l.068.224c-7.188 1.221-5.308 9.697-1.86 9.697l.342-.015c-.87 3.985 7.524 8.038 12.201 6.011l.303-.327c1.67 3.585 7.599 4.18 13.458 4.331 5.083.128 8.047-.273 10.23-2.5l.33.098c8.13.655 11.837-4.96 10.06-8.994l.44-.127c2.768-.732 3.09-7.13-1.665-8.076l.087-.25c2.07-4.165-2.803-8.09-9.56-7.354l-.469-.243c-4.839-4.38-18.76-3.666-20.376.664l-.274-.098z" fill="none" stroke="#000" stroke-width="1.25"/><text style="-inkscape-font-specification:Helvetica" transform="matrix(1.25 0 0 1.25 3.924 80.612)" font-weight="400" font-size="9" font-family="Helvetica" fill="#231f20"><tspan y="0" x="0 6.0029998 10.503 13.005 18.009001 23.013 25.011 27.513 33.515999 35.514 39.87904">Actual Size</tspan><tspan y="-57.5" x="115.935 120.939 125.943 130.94701">250%</tspan></text></svg>