<svg xmlns="http://www.w3.org/2000/svg" viewBox="0 0 41.25 43.75" height="43.75" width="41.25"><path d="M.728 20.476h29.336" fill="none" stroke="#fff" stroke-width=".5175"/><path d="M.728 42.03h29.336v-9.605H.728v9.605z" fill="#087bbb"/><path d="M.728 42.03h29.336v-9.605H.728v9.605z" fill="none" stroke="#fff" stroke-width=".5"/><path d="M39.506 23.734l-9.442 8.681H.694l10.492-8.681h28.32"/><path d="M39.506 23.733l-9.442 8.682H.694l10.492-8.682h28.32z" fill="none" stroke="#fff" stroke-width=".45"/><path d="M39.546 32.732v-8.98l-9.482 8.692v9.469l9.482-9.18" fill="#087bbb"/><path d="M39.546 32.732v-8.979l-9.482 8.692v9.467l9.482-9.18z" fill="none" stroke="#fff" stroke-width=".5"/><path d="M.728 30.473h29.336v-9.6H.728v9.6z" fill="#087bbb"/><path d="M.728 30.472h29.336v-9.6H.728v9.6z" fill="none" stroke="#fff" stroke-width=".5"/><path d="M39.506 11.854l-9.442 8.686H.694l10.492-8.687h28.32"/><path d="M39.506 11.854l-9.442 8.686H.694l10.492-8.686h28.32z" fill="none" stroke="#fff" stroke-width=".45"/><path d="M39.546 22.146V12.6l-9.482 8.696v9.464l9.482-8.614" fill="#087bbb"/><path d="M39.546 22.146v-9.545l-9.482 8.696v9.463l9.482-8.614z" fill="none" stroke="#fff" stroke-width=".5"/><path d="M.728 18.924h29.336v-9.6H.728v9.6z" fill="#087bbb"/><path d="M.728 18.925h29.336v-9.6H.728v9.6z" fill="none" stroke="#fff" stroke-width=".5"/><path d="M39.506.627l-9.442 8.687H.694L11.186.627h28.32" fill="#087bbb"/><path d="M39.506.628l-9.442 8.686H.694L11.186.628h28.32z" fill="none" stroke="#fff" stroke-width=".5"/><path d="M39.546 10.033V.648l-9.482 8.696v9.462l9.482-8.773" fill="#087bbb"/><path d="M39.546 10.032V.647l-9.482 8.696v9.463l9.482-8.774z" fill="none" stroke="#fff" stroke-width=".5"/><path d="M24.752 5.618l1.234-.933 3.384 1.094-6.788 1.465 1.143-1.118h-6.732l1.025-.508h6.733M21.435 3.099l-.561.595h-5.571l-1.118.67-3.37-1.104 6.772-1.455L15.864 3.1h5.571M16.627 6.931l-.792.596h-5.571l-.889.67-3.369-1.105 6.773-1.454-1.724 1.293h5.571M30.082 2.131l1.242-.927 3.379 1.088-6.783 1.465 1.255-1.03h-6.729l.909-.596h6.727"/><path d="M24.752 5.94l1.234-.933 3.384 1.094-6.788 1.465 1.143-1.119h-6.732l1.025-.507h6.733M21.435 3.421l-.561.595h-5.571l-1.118.669-3.37-1.103 6.772-1.45-1.723 1.29h5.571M16.627 7.254l-.792.596h-5.571l-.889.669-3.369-1.104L12.78 5.96l-1.724 1.294h5.572M30.082 2.454l1.242-.928 3.379 1.09-6.783 1.469 1.255-1.035h-6.729l.909-.596h6.727M16.401 20.018v-6.494h1.104l-1.626-2.452-1.626 2.452h1.098v6.494h1.05M13.086 22.248l-4.59-4.594.776-.777-2.88-.586.58 2.887.782-.782 4.59 4.595.742-.743M11.406 25.252H4.913v-1.098L2.46 25.779l2.452 1.626V26.3h6.493v-1.05M12.344 28.567l-4.59 4.596-.781-.782-.582 2.885 2.881-.586-.776-.781 4.59-4.589-.742-.743M15.351 30.248v6.493h-1.099l1.627 2.451 1.626-2.45H16.4v-6.494h-1.05M18.668 29.31l4.588 4.589-.776.781 2.881.586-.581-2.885-.782.782-4.59-4.596-.74.743M20.346 26.301h6.495v1.104l2.452-1.626-2.452-1.625v1.097h-6.495v1.05M19.409 22.991l4.59-4.594.78.78.582-2.886-2.881.587.776.776-4.588 4.595.74.742" fill="#fff"/><path d="M18.706 29.734a4.743 4.743 0 1 0-5.445-7.768 4.742 4.742 0 0 0-1.16 6.601 4.743 4.743 0 0 0 6.605 1.167" fill="#fff"/><path d="M18.706 29.735a4.744 4.744 0 1 0-5.445-7.77 4.745 4.745 0 0 0 5.445 7.769z" fill="none" stroke="#000" stroke-width=".315"/><path d="M38.115 21.78c-.468 6.088-2.275 10.918-4.028 10.786-1.753-.136-2.798-5.185-2.324-11.279.468-6.089 2.27-10.919 4.028-10.781 1.753.136 2.793 5.18 2.324 11.274z" fill="none" stroke="#fff" stroke-width="1.125"/></svg>