<?xml version="1.0" encoding="UTF-8" standalone="no"?>
<svg
   xmlns:dc="http://purl.org/dc/elements/1.1/"
   xmlns:cc="http://creativecommons.org/ns#"
   xmlns:rdf="http://www.w3.org/1999/02/22-rdf-syntax-ns#"
   xmlns:svg="http://www.w3.org/2000/svg"
   xmlns="http://www.w3.org/2000/svg"
   viewBox="0 0 245 132.5"
   height="132.5"
   width="245"
   xml:space="preserve"
   version="1.1"
   id="svg2"><metadata
     id="metadata8"><rdf:RDF><cc:Work
         rdf:about=""><dc:format>image/svg+xml</dc:format><dc:type
           rdf:resource="http://purl.org/dc/dcmitype/StillImage" /></cc:Work></rdf:RDF></metadata><defs
     id="defs6" /><g
     transform="matrix(1.25,0,0,-1.25,0,132.5)"
     id="g10"><g
       transform="scale(0.1,0.1)"
       id="g12"><path
         id="path14"
         style="fill:#20a3e4;fill-opacity:1;fill-rule:evenodd;stroke:none"
         d="m 2.37891,12.3984 475.391,0 0,309.922 -475.391,0 0,-309.922 z" /><path
         id="path16"
         style="fill:none;stroke:#afdff4;stroke-width:4.77099991;stroke-linecap:square;stroke-linejoin:bevel;stroke-miterlimit:10;stroke-dasharray:none;stroke-opacity:1"
         d="m 2.37891,12.3945 475.391,0 0,309.922 -475.391,0 0,-309.922 z" /><path
         id="path18"
         style="fill:#43b6ea;fill-opacity:1;fill-rule:evenodd;stroke:none"
         d="M 2.37891,322.32 40.6992,362 l 475.3908,0 -38.32,-39.68 -475.39109,0" /><path
         id="path20"
         style="fill:none;stroke:#afdff4;stroke-width:4.77099991;stroke-linecap:square;stroke-linejoin:bevel;stroke-miterlimit:10;stroke-dasharray:none;stroke-opacity:1"
         d="m 2.37891,322.316 38.32029,39.688 475.3908,0 -38.32,-39.688 -475.39109,0 z" /><path
         id="path22"
         style="fill:#1d76a0;fill-opacity:1;fill-rule:evenodd;stroke:none"
         d="m 477.77,322.32 38.32,39.68 0,-309.9219 -38.32,-39.6797 0,309.9216" /><path
         id="path24"
         style="fill:none;stroke:#afdff4;stroke-width:4.77099991;stroke-linecap:square;stroke-linejoin:bevel;stroke-miterlimit:10;stroke-dasharray:none;stroke-opacity:1"
         d="m 477.77,322.316 38.32,39.688 0,-309.9181 -38.32,-39.6914 0,309.9215 z" /><path
         id="path26"
         style="fill:#242021;fill-opacity:1;fill-rule:evenodd;stroke:none"
         d="m 384.219,255.129 0,18.32 42.929,-30.508 -42.929,-30.543 0,18.321 -58.278,0 0,24.41 58.278,0" /><path
         id="path28"
         style="fill:#242021;fill-opacity:1;fill-rule:evenodd;stroke:none"
         d="m 145.59,177.281 0,18.321 42.961,-30.551 -42.961,-30.512 0,18.32 -111.0197,0 0,24.422 111.0197,0" /><path
         id="path30"
         style="fill:#242021;fill-opacity:1;fill-rule:evenodd;stroke:none"
         d="m 384.219,99.4297 0,18.2813 42.929,-30.5118 -42.929,-30.5508 0,18.3204 -58.278,0 0,24.4609 58.278,0" /><path
         id="path32"
         style="fill:#ffffff;fill-opacity:1;fill-rule:evenodd;stroke:none"
         d="m 378.09,261.262 0,16.797 42.961,-29.02 -42.961,-30.551 0,18.321 -58.25,0 0,24.453 58.25,0" /><path
         id="path34"
         style="fill:#ffffff;fill-opacity:1;fill-rule:evenodd;stroke:none"
         d="m 139.449,183.371 0,18.32 42.93,-30.511 -42.93,-30.539 0,18.32 -109.449,0 0,24.41 109.449,0" /><path
         id="path36"
         style="fill:#242021;fill-opacity:1;fill-rule:evenodd;stroke:none"
         d="m 422.578,177.281 0,18.321 44.453,-30.551 -44.453,-30.512 0,18.32 -98.168,0 0,24.422 98.168,0" /><path
         id="path38"
         style="fill:#ffffff;fill-opacity:1;fill-rule:evenodd;stroke:none"
         d="m 417.969,183.371 0,18.32 42.929,-30.511 -42.929,-30.539 0,18.32 -99.688,0 0,24.41 99.688,0" /><path
         id="path40"
         style="fill:#ffffff;fill-opacity:1;fill-rule:evenodd;stroke:none"
         d="m 378.09,105.52 0,18.32 42.961,-30.5509 -42.961,-30.5391 0,18.3594 -58.25,0 0,24.4106 58.25,0" /><path
         id="path42"
         style="fill:#1c7ba7;fill-opacity:1;fill-rule:evenodd;stroke:none"
         d="m 190.98,38.3281 113.398,0 0,258.051 -113.398,0 0,-258.051 z" /><path
         id="path44"
         style="fill:none;stroke:#8ed0f2;stroke-width:7.15700006;stroke-linecap:square;stroke-linejoin:miter;stroke-miterlimit:10;stroke-dasharray:none;stroke-opacity:1"
         d="m 190.98,38.3242 113.398,0 0,258.051 -113.398,0 0,-258.051 z" /><path
         id="path46"
         style="fill:#ffffff;fill-opacity:1;fill-rule:evenodd;stroke:none"
         d="m 224.691,62.7383 49.0977,0 0,35.1602 -49.0977,0 0,-35.1602 z" /><path
         id="path48"
         style="fill:none;stroke:#ffffff;stroke-width:2.38590002;stroke-linecap:square;stroke-linejoin:miter;stroke-miterlimit:10;stroke-dasharray:none;stroke-opacity:1"
         d="m 224.691,62.7461 49.0977,0 0,35.1602 -49.0977,0 0,-35.1602 z" /><path
         id="path50"
         style="fill:#ffffff;fill-opacity:1;fill-rule:evenodd;stroke:none"
         d="m 287.578,52.0898 9.14063,0 0,10.6602 -9.14063,0 0,-10.6602 z" /><path
         id="path52"
         style="fill:none;stroke:#ffffff;stroke-width:2.38590002;stroke-linecap:square;stroke-linejoin:miter;stroke-miterlimit:10;stroke-dasharray:none;stroke-opacity:1"
         d="m 287.578,52.0859 9.14063,0 0,10.6602 -9.14063,0 0,-10.6602 z" /><path
         id="path54"
         style="fill:#ffffff;fill-opacity:1;fill-rule:evenodd;stroke:none"
         d="m 287.578,73.4492 9.14063,0 0,10.6992 -9.14063,0 0,-10.6992 z" /><path
         id="path56"
         style="fill:none;stroke:#ffffff;stroke-width:2.38590002;stroke-linecap:square;stroke-linejoin:miter;stroke-miterlimit:10;stroke-dasharray:none;stroke-opacity:1"
         d="m 287.578,73.4531 9.14063,0 0,10.7031 -9.14063,0 0,-10.7031 z" /><path
         id="path58"
         style="fill:#ffffff;fill-opacity:1;fill-rule:evenodd;stroke:none"
         d="m 287.578,94.8203 9.14063,0 0,10.6992 -9.14063,0 0,-10.6992 z" /><path
         id="path60"
         style="fill:none;stroke:#ffffff;stroke-width:2.38590002;stroke-linecap:square;stroke-linejoin:miter;stroke-miterlimit:10;stroke-dasharray:none;stroke-opacity:1"
         d="m 287.578,94.8242 9.14063,0 0,10.6992 -9.14063,0 0,-10.6992 z" /><path
         id="path62"
         style="fill:#ffffff;fill-opacity:1;fill-rule:evenodd;stroke:none"
         d="m 287.578,116.219 9.14063,0 0,9.14063 -9.14063,0 0,-9.14063 z" /><path
         id="path64"
         style="fill:none;stroke:#ffffff;stroke-width:2.38590002;stroke-linecap:square;stroke-linejoin:miter;stroke-miterlimit:10;stroke-dasharray:none;stroke-opacity:1"
         d="m 287.578,116.227 9.14063,0 0,9.13672 -9.14063,0 0,-9.13672 z" /><path
         id="path66"
         style="fill:#ffffff;fill-opacity:1;fill-rule:evenodd;stroke:none"
         d="m 287.578,137.59 9.14063,0 0,9.14063 -9.14063,0 0,-9.14063 z" /><path
         id="path68"
         style="fill:none;stroke:#ffffff;stroke-width:2.38590002;stroke-linecap:square;stroke-linejoin:miter;stroke-miterlimit:10;stroke-dasharray:none;stroke-opacity:1"
         d="m 287.578,137.594 9.14063,0 0,9.14063 -9.14063,0 0,-9.14063 z" /><path
         id="path70"
         style="fill:#ffffff;fill-opacity:1;fill-rule:evenodd;stroke:none"
         d="m 287.578,157.441 9.14063,0 0,10.6602 -9.14063,0 0,-10.6602 z" /><path
         id="path72"
         style="fill:none;stroke:#ffffff;stroke-width:2.38590002;stroke-linecap:square;stroke-linejoin:miter;stroke-miterlimit:10;stroke-dasharray:none;stroke-opacity:1"
         d="m 287.578,157.434 9.14063,0 0,10.6602 -9.14063,0 0,-10.6602 z" /><path
         id="path74"
         style="fill:#ffffff;fill-opacity:1;fill-rule:evenodd;stroke:none"
         d="m 287.578,178.801 9.14063,0 0,10.6992 -9.14063,0 0,-10.6992 z" /><path
         id="path76"
         style="fill:none;stroke:#ffffff;stroke-width:2.38590002;stroke-linecap:square;stroke-linejoin:miter;stroke-miterlimit:10;stroke-dasharray:none;stroke-opacity:1"
         d="m 287.578,178.805 9.14063,0 0,10.6992 -9.14063,0 0,-10.6992 z" /><path
         id="path78"
         style="fill:#ffffff;fill-opacity:1;fill-rule:evenodd;stroke:none"
         d="m 287.578,200.172 9.14063,0 0,10.6992 -9.14063,0 0,-10.6992 z" /><path
         id="path80"
         style="fill:none;stroke:#ffffff;stroke-width:2.38590002;stroke-linecap:square;stroke-linejoin:miter;stroke-miterlimit:10;stroke-dasharray:none;stroke-opacity:1"
         d="m 287.578,200.176 9.14063,0 0,10.6992 -9.14063,0 0,-10.6992 z" /><path
         id="path82"
         style="fill:#ffffff;fill-opacity:1;fill-rule:evenodd;stroke:none"
         d="m 287.578,221.539 9.14063,0 0,10.6992 -9.14063,0 0,-10.6992 z" /><path
         id="path84"
         style="fill:none;stroke:#ffffff;stroke-width:2.38590002;stroke-linecap:square;stroke-linejoin:miter;stroke-miterlimit:10;stroke-dasharray:none;stroke-opacity:1"
         d="m 287.578,221.535 9.14063,0 0,10.6992 -9.14063,0 0,-10.6992 z" /><path
         id="path86"
         style="fill:#ffffff;fill-opacity:1;fill-rule:evenodd;stroke:none"
         d="m 287.578,242.941 9.14063,0 0,9.13672 -9.14063,0 0,-9.13672 z" /><path
         id="path88"
         style="fill:none;stroke:#ffffff;stroke-width:2.38590002;stroke-linecap:square;stroke-linejoin:miter;stroke-miterlimit:10;stroke-dasharray:none;stroke-opacity:1"
         d="m 287.578,242.945 9.14063,0 0,9.14063 -9.14063,0 0,-9.14063 z" /><path
         id="path90"
         style="fill:#ffffff;fill-opacity:1;fill-rule:evenodd;stroke:none"
         d="m 296.719,273.449 0,-9.14 -9.141,-1.52 0,10.66 9.141,0" /><path
         id="path92"
         style="fill:none;stroke:#ffffff;stroke-width:2.38590002;stroke-linecap:square;stroke-linejoin:miter;stroke-miterlimit:10;stroke-dasharray:none;stroke-opacity:1"
         d="m 296.719,273.453 0,-9.148 -9.141,-1.52 0,10.668 9.141,0 z" /><path
         id="path94"
         style="fill:#ffffff;fill-opacity:1;fill-rule:evenodd;stroke:none"
         d="m 201.719,52.0898 9.17969,0 0,10.6602 -9.17969,0 0,-10.6602 z" /><path
         id="path96"
         style="fill:none;stroke:#ffffff;stroke-width:2.38590002;stroke-linecap:square;stroke-linejoin:miter;stroke-miterlimit:10;stroke-dasharray:none;stroke-opacity:1"
         d="m 201.719,52.0859 9.17969,0 0,10.6602 -9.17969,0 0,-10.6602 z" /><path
         id="path98"
         style="fill:#ffffff;fill-opacity:1;fill-rule:evenodd;stroke:none"
         d="m 201.719,73.4492 9.17969,0 0,10.6992 -9.17969,0 0,-10.6992 z" /><path
         id="path100"
         style="fill:none;stroke:#ffffff;stroke-width:2.38590002;stroke-linecap:square;stroke-linejoin:miter;stroke-miterlimit:10;stroke-dasharray:none;stroke-opacity:1"
         d="m 201.719,73.4531 9.17969,0 0,10.7031 -9.17969,0 0,-10.7031 z" /><path
         id="path102"
         style="fill:#ffffff;fill-opacity:1;fill-rule:evenodd;stroke:none"
         d="m 201.719,94.8203 9.17969,0 0,10.6992 -9.17969,0 0,-10.6992 z" /><path
         id="path104"
         style="fill:none;stroke:#ffffff;stroke-width:2.38590002;stroke-linecap:square;stroke-linejoin:miter;stroke-miterlimit:10;stroke-dasharray:none;stroke-opacity:1"
         d="m 201.719,94.8242 9.17969,0 0,10.6992 -9.17969,0 0,-10.6992 z" /><path
         id="path106"
         style="fill:#ffffff;fill-opacity:1;fill-rule:evenodd;stroke:none"
         d="m 201.719,116.219 9.17969,0 0,9.14063 -9.17969,0 0,-9.14063 z" /><path
         id="path108"
         style="fill:none;stroke:#ffffff;stroke-width:2.38590002;stroke-linecap:square;stroke-linejoin:miter;stroke-miterlimit:10;stroke-dasharray:none;stroke-opacity:1"
         d="m 201.719,116.227 9.17969,0 0,9.13672 -9.17969,0 0,-9.13672 z" /><path
         id="path110"
         style="fill:#ffffff;fill-opacity:1;fill-rule:evenodd;stroke:none"
         d="m 201.719,137.59 9.17969,0 0,9.14063 -9.17969,0 0,-9.14063 z" /><path
         id="path112"
         style="fill:none;stroke:#ffffff;stroke-width:2.38590002;stroke-linecap:square;stroke-linejoin:miter;stroke-miterlimit:10;stroke-dasharray:none;stroke-opacity:1"
         d="m 201.719,137.594 9.17969,0 0,9.14063 -9.17969,0 0,-9.14063 z" /><path
         id="path114"
         style="fill:#ffffff;fill-opacity:1;fill-rule:evenodd;stroke:none"
         d="m 201.719,157.441 9.17969,0 0,10.6602 -9.17969,0 0,-10.6602 z" /><path
         id="path116"
         style="fill:none;stroke:#ffffff;stroke-width:2.38590002;stroke-linecap:square;stroke-linejoin:miter;stroke-miterlimit:10;stroke-dasharray:none;stroke-opacity:1"
         d="m 201.719,157.434 9.17969,0 0,10.6602 -9.17969,0 0,-10.6602 z" /><path
         id="path118"
         style="fill:#ffffff;fill-opacity:1;fill-rule:evenodd;stroke:none"
         d="m 201.719,178.801 9.17969,0 0,10.6992 -9.17969,0 0,-10.6992 z" /><path
         id="path120"
         style="fill:none;stroke:#ffffff;stroke-width:2.38590002;stroke-linecap:square;stroke-linejoin:miter;stroke-miterlimit:10;stroke-dasharray:none;stroke-opacity:1"
         d="m 201.719,178.805 9.17969,0 0,10.6992 -9.17969,0 0,-10.6992 z" /><path
         id="path122"
         style="fill:#ffffff;fill-opacity:1;fill-rule:evenodd;stroke:none"
         d="m 201.719,200.172 9.17969,0 0,10.6992 -9.17969,0 0,-10.6992 z" /><path
         id="path124"
         style="fill:none;stroke:#ffffff;stroke-width:2.38590002;stroke-linecap:square;stroke-linejoin:miter;stroke-miterlimit:10;stroke-dasharray:none;stroke-opacity:1"
         d="m 201.719,200.176 9.17969,0 0,10.6992 -9.17969,0 0,-10.6992 z" /><path
         id="path126"
         style="fill:#ffffff;fill-opacity:1;fill-rule:evenodd;stroke:none"
         d="m 201.719,221.539 9.17969,0 0,10.6992 -9.17969,0 0,-10.6992 z" /><path
         id="path128"
         style="fill:none;stroke:#ffffff;stroke-width:2.38590002;stroke-linecap:square;stroke-linejoin:miter;stroke-miterlimit:10;stroke-dasharray:none;stroke-opacity:1"
         d="m 201.719,221.535 9.17969,0 0,10.6992 -9.17969,0 0,-10.6992 z" /><path
         id="path130"
         style="fill:#ffffff;fill-opacity:1;fill-rule:evenodd;stroke:none"
         d="m 201.719,242.941 9.17969,0 0,9.13672 -9.17969,0 0,-9.13672 z" /><path
         id="path132"
         style="fill:none;stroke:#ffffff;stroke-width:2.38590002;stroke-linecap:square;stroke-linejoin:miter;stroke-miterlimit:10;stroke-dasharray:none;stroke-opacity:1"
         d="m 201.719,242.945 9.17969,0 0,9.14063 -9.17969,0 0,-9.14063 z" /><path
         id="path134"
         style="fill:#ffffff;fill-opacity:1;fill-rule:evenodd;stroke:none"
         d="m 201.719,262.789 9.17969,0 0,10.6602 -9.17969,0 0,-10.6602 z" /><path
         id="path136"
         style="fill:none;stroke:#ffffff;stroke-width:2.38590002;stroke-linecap:square;stroke-linejoin:miter;stroke-miterlimit:10;stroke-dasharray:none;stroke-opacity:1"
         d="m 201.719,262.793 9.17969,0 0,10.6602 -9.17969,0 0,-10.6602 z" /><path
         id="path138"
         style="fill:#ffffff;fill-opacity:1;fill-rule:evenodd;stroke:none"
         d="m 224.691,119.27 49.0977,0 0,35.1211 -49.0977,0 0,-35.1211 z" /><path
         id="path140"
         style="fill:none;stroke:#ffffff;stroke-width:2.38590002;stroke-linecap:square;stroke-linejoin:miter;stroke-miterlimit:10;stroke-dasharray:none;stroke-opacity:1"
         d="m 224.691,119.266 49.0977,0 0,35.1211 -49.0977,0 0,-35.1211 z" /><path
         id="path142"
         style="fill:#ffffff;fill-opacity:1;fill-rule:evenodd;stroke:none"
         d="m 224.691,175.75 49.0977,0 0,35.1211 -49.0977,0 0,-35.1211 z" /><path
         id="path144"
         style="fill:none;stroke:#ffffff;stroke-width:2.38590002;stroke-linecap:square;stroke-linejoin:miter;stroke-miterlimit:10;stroke-dasharray:none;stroke-opacity:1"
         d="m 224.691,175.754 49.0977,0 0,35.1211 -49.0977,0 0,-35.1211 z" /><path
         id="path146"
         style="fill:#ffffff;fill-opacity:1;fill-rule:evenodd;stroke:none"
         d="m 224.691,232.238 49.0977,0 0,33.5898 -49.0977,0 0,-33.5898 z" /><path
         id="path148"
         style="fill:none;stroke:#ffffff;stroke-width:2.38590002;stroke-linecap:square;stroke-linejoin:miter;stroke-miterlimit:10;stroke-dasharray:none;stroke-opacity:1"
         d="m 224.691,232.246 49.0977,0 0,33.5898 -49.0977,0 0,-33.5898 z" /><path
         id="path150"
         style="fill:#ffffff;fill-opacity:1;fill-rule:nonzero;stroke:none"
         d="M 73.9805,297.078 C 44.4492,302.98 28.9102,287.859 31.3711,274.82 l 0.1875,-0.711 c -22.96876,-3.898 -16.9492,-31.05 -5.9375,-31.05 l 1.0977,0.043 c -2.7696,-12.743 24.0625,-25.704 39.0625,-19.223 l 0.9375,1.051 c 5.3515,-11.481 24.332,-13.391 43.0822,-13.86 16.25,-0.39 25.75,0.86 32.699,8.008 l 1.09,-0.316 c 26.019,-2.114 37.89,15.859 32.191,28.789 l 1.41,0.39 c 8.86,2.348 9.879,22.809 -5.312,25.86 l 0.269,0.777 c 6.602,13.32 -8.988,25.902 -30.589,23.524 l -1.52,0.777 C 124.57,312.898 80,310.641 74.8398,296.77 l -0.8593,0.308" /><path
         id="path152"
         style="fill:none;stroke:#000000;stroke-width:3.9999001;stroke-linecap:butt;stroke-linejoin:miter;stroke-miterlimit:4;stroke-dasharray:none;stroke-opacity:1"
         d="m 73.9805,297.086 c -29.5313,5.898 -45.0703,-9.223 -42.6094,-22.27 l 0.1875,-0.703 C 8.58984,270.203 14.6094,243.055 25.6211,243.055 l 1.0977,0.039 c -2.7696,-12.731 24.0625,-25.699 39.0625,-19.219 l 0.9375,1.059 c 5.3515,-11.481 24.332,-13.399 43.0822,-13.868 16.25,-0.39 25.75,0.86 32.699,8.008 l 1.09,-0.308 c 26.019,-2.11 37.89,15.859 32.191,28.789 l 1.41,0.39 c 8.86,2.34 9.879,22.809 -5.312,25.86 l 0.269,0.781 c 6.602,13.32 -8.988,25.898 -30.589,23.508 l -1.52,0.781 C 124.57,312.906 80,310.637 74.8398,296.773 l -0.8593,0.313 z" /><path
         id="path154"
         style="fill:#20a3e4;fill-opacity:1;fill-rule:evenodd;stroke:none"
         d="m 662.27,23.3008 1188.44,0 0,774.84 -1188.44,0 0,-774.84 z" /><path
         id="path156"
         style="fill:none;stroke:#afdff4;stroke-width:11.92749977;stroke-linecap:square;stroke-linejoin:bevel;stroke-miterlimit:10;stroke-dasharray:none;stroke-opacity:1"
         d="m 662.27,23.293 1188.44,0 0,774.844 -1188.44,0 0,-774.844 z" /><path
         id="path158"
         style="fill:#43b6ea;fill-opacity:1;fill-rule:evenodd;stroke:none"
         d="m 662.27,798.141 95.82,99.257 1188.43,0 -95.82,-99.257 -1188.43,0" /><path
         id="path160"
         style="fill:none;stroke:#afdff4;stroke-width:11.92749977;stroke-linecap:square;stroke-linejoin:bevel;stroke-miterlimit:10;stroke-dasharray:none;stroke-opacity:1"
         d="m 662.27,798.137 95.82,99.258 1188.43,0 -95.82,-99.258 -1188.43,0 z" /><path
         id="path162"
         style="fill:#1d76a0;fill-opacity:1;fill-rule:evenodd;stroke:none"
         d="m 1850.7,798.141 95.82,99.257 0,-774.847 -95.82,-99.2619 0,774.8519" /><path
         id="path164"
         style="fill:none;stroke:#afdff4;stroke-width:11.92749977;stroke-linecap:square;stroke-linejoin:bevel;stroke-miterlimit:10;stroke-dasharray:none;stroke-opacity:1"
         d="m 1850.7,798.137 95.82,99.258 0,-774.84 -95.82,-99.2581 0,774.8401 z" /><path
         id="path166"
         style="fill:#242021;fill-opacity:1;fill-rule:evenodd;stroke:none"
         d="m 1616.88,630.211 0,45.777 107.34,-76.328 -107.34,-76.332 0,45.781 -145.75,0 0,61.102 145.75,0" /><path
         id="path168"
         style="fill:#242021;fill-opacity:1;fill-rule:evenodd;stroke:none"
         d="m 1020.27,435.52 0,45.82 107.35,-76.371 -107.35,-76.289 0,45.789 -277.5,0 0,61.051 277.5,0" /><path
         id="path170"
         style="fill:#242021;fill-opacity:1;fill-rule:evenodd;stroke:none"
         d="m 1616.88,240.871 0,45.777 107.34,-76.32 -107.34,-76.328 0,45.781 -145.75,0 0,61.09 145.75,0" /><path
         id="path172"
         style="fill:#ffffff;fill-opacity:1;fill-rule:evenodd;stroke:none"
         d="m 1601.52,645.48 0,41.989 107.35,-72.539 -107.35,-76.321 0,45.782 -145.66,0 0,61.089 145.66,0" /><path
         id="path174"
         style="fill:#ffffff;fill-opacity:1;fill-rule:evenodd;stroke:none"
         d="m 1004.92,450.789 0,45.82 107.38,-76.359 -107.38,-76.328 0,45.816 -273.67,0 0,61.051 273.67,0" /><path
         id="path176"
         style="fill:#242021;fill-opacity:1;fill-rule:evenodd;stroke:none"
         d="m 1712.7,435.52 0,45.82 111.17,-76.371 -111.17,-76.289 0,45.789 -245.36,0 0,61.051 245.36,0" /><path
         id="path178"
         style="fill:#ffffff;fill-opacity:1;fill-rule:evenodd;stroke:none"
         d="m 1701.21,450.789 0,45.82 107.34,-76.359 -107.34,-76.328 0,45.816 -249.22,0 0,61.051 249.22,0" /><path
         id="path180"
         style="fill:#ffffff;fill-opacity:1;fill-rule:evenodd;stroke:none"
         d="m 1601.52,256.148 0,45.782 107.35,-76.328 -107.35,-76.332 0,45.781 -145.66,0 0,61.097 145.66,0" /><path
         id="path182"
         style="fill:#1c7ba7;fill-opacity:1;fill-rule:evenodd;stroke:none"
         d="m 1133.71,88.1719 283.52,0 0,645.078 -283.52,0 0,-645.078 z" /><path
         id="path184"
         style="fill:none;stroke:#8ed0f2;stroke-width:17.89249992;stroke-linecap:square;stroke-linejoin:miter;stroke-miterlimit:10;stroke-dasharray:none;stroke-opacity:1"
         d="m 1133.71,88.1758 283.52,0 0,645.078 -283.52,0 0,-645.078 z" /><path
         id="path186"
         style="fill:#ffffff;fill-opacity:1;fill-rule:evenodd;stroke:none"
         d="m 1218.05,149.27 122.699,0 0,87.7695 -122.699,0 0,-87.7695 z" /><path
         id="path188"
         style="fill:none;stroke:#ffffff;stroke-width:5.96500015;stroke-linecap:square;stroke-linejoin:miter;stroke-miterlimit:10;stroke-dasharray:none;stroke-opacity:1"
         d="m 1218.05,149.273 122.699,0 0,87.7695 -122.699,0 0,-87.7695 z" /><path
         id="path190"
         style="fill:#ffffff;fill-opacity:1;fill-rule:evenodd;stroke:none"
         d="m 1375.27,122.551 22.8516,0 0,26.7188 -22.8516,0 0,-26.7188 z" /><path
         id="path192"
         style="fill:none;stroke:#ffffff;stroke-width:5.96500015;stroke-linecap:square;stroke-linejoin:miter;stroke-miterlimit:10;stroke-dasharray:none;stroke-opacity:1"
         d="m 1375.27,122.555 22.8516,0 0,26.7188 -22.8516,0 0,-26.7188 z" /><path
         id="path194"
         style="fill:#ffffff;fill-opacity:1;fill-rule:evenodd;stroke:none"
         d="m 1375.27,175.988 22.8516,0 0,26.6836 -22.8516,0 0,-26.6836 z" /><path
         id="path196"
         style="fill:none;stroke:#ffffff;stroke-width:5.96500015;stroke-linecap:square;stroke-linejoin:miter;stroke-miterlimit:10;stroke-dasharray:none;stroke-opacity:1"
         d="m 1375.27,175.984 22.8516,0 0,26.6797 -22.8516,0 0,-26.6797 z" /><path
         id="path198"
         style="fill:#ffffff;fill-opacity:1;fill-rule:evenodd;stroke:none"
         d="m 1375.27,229.43 22.8516,0 0,26.7188 -22.8516,0 0,-26.7188 z" /><path
         id="path200"
         style="fill:none;stroke:#ffffff;stroke-width:5.96500015;stroke-linecap:square;stroke-linejoin:miter;stroke-miterlimit:10;stroke-dasharray:none;stroke-opacity:1"
         d="m 1375.27,229.426 22.8516,0 0,26.7188 -22.8516,0 0,-26.7188 z" /><path
         id="path202"
         style="fill:#ffffff;fill-opacity:1;fill-rule:evenodd;stroke:none"
         d="m 1375.27,282.859 22.8516,0 0,22.8906 -22.8516,0 0,-22.8906 z" /><path
         id="path204"
         style="fill:none;stroke:#ffffff;stroke-width:5.96500015;stroke-linecap:square;stroke-linejoin:miter;stroke-miterlimit:10;stroke-dasharray:none;stroke-opacity:1"
         d="m 1375.27,282.863 22.8516,0 0,22.8906 -22.8516,0 0,-22.8906 z" /><path
         id="path206"
         style="fill:#ffffff;fill-opacity:1;fill-rule:evenodd;stroke:none"
         d="m 1375.27,336.301 22.8516,0 0,22.8906 -22.8516,0 0,-22.8906 z" /><path
         id="path208"
         style="fill:none;stroke:#ffffff;stroke-width:5.96500015;stroke-linecap:square;stroke-linejoin:miter;stroke-miterlimit:10;stroke-dasharray:none;stroke-opacity:1"
         d="m 1375.27,336.305 22.8516,0 0,22.8906 -22.8516,0 0,-22.8906 z" /><path
         id="path210"
         style="fill:#ffffff;fill-opacity:1;fill-rule:evenodd;stroke:none"
         d="m 1375.27,385.91 22.8516,0 0,26.7188 -22.8516,0 0,-26.7188 z" /><path
         id="path212"
         style="fill:none;stroke:#ffffff;stroke-width:5.96500015;stroke-linecap:square;stroke-linejoin:miter;stroke-miterlimit:10;stroke-dasharray:none;stroke-opacity:1"
         d="m 1375.27,385.914 22.8516,0 0,26.7227 -22.8516,0 0,-26.7227 z" /><path
         id="path214"
         style="fill:#ffffff;fill-opacity:1;fill-rule:evenodd;stroke:none"
         d="m 1375.27,439.352 22.8516,0 0,26.7188 -22.8516,0 0,-26.7188 z" /><path
         id="path216"
         style="fill:none;stroke:#ffffff;stroke-width:5.96500015;stroke-linecap:square;stroke-linejoin:miter;stroke-miterlimit:10;stroke-dasharray:none;stroke-opacity:1"
         d="m 1375.27,439.344 22.8516,0 0,26.7227 -22.8516,0 0,-26.7227 z" /><path
         id="path218"
         style="fill:#ffffff;fill-opacity:1;fill-rule:evenodd;stroke:none"
         d="m 1375.27,492.781 22.8516,0 0,26.7188 -22.8516,0 0,-26.7188 z" /><path
         id="path220"
         style="fill:none;stroke:#ffffff;stroke-width:5.96500015;stroke-linecap:square;stroke-linejoin:miter;stroke-miterlimit:10;stroke-dasharray:none;stroke-opacity:1"
         d="m 1375.27,492.785 22.8516,0 0,26.7188 -22.8516,0 0,-26.7188 z" /><path
         id="path222"
         style="fill:#ffffff;fill-opacity:1;fill-rule:evenodd;stroke:none"
         d="m 1375.27,546.219 22.8516,0 0,26.7227 -22.8516,0 0,-26.7227 z" /><path
         id="path224"
         style="fill:none;stroke:#ffffff;stroke-width:5.96500015;stroke-linecap:square;stroke-linejoin:miter;stroke-miterlimit:10;stroke-dasharray:none;stroke-opacity:1"
         d="m 1375.27,546.227 22.8516,0 0,26.7188 -22.8516,0 0,-26.7188 z" /><path
         id="path226"
         style="fill:#ffffff;fill-opacity:1;fill-rule:evenodd;stroke:none"
         d="m 1375.27,599.66 22.8516,0 0,22.8906 -22.8516,0 0,-22.8906 z" /><path
         id="path228"
         style="fill:none;stroke:#ffffff;stroke-width:5.96500015;stroke-linecap:square;stroke-linejoin:miter;stroke-miterlimit:10;stroke-dasharray:none;stroke-opacity:1"
         d="m 1375.27,599.664 22.8516,0 0,22.8906 -22.8516,0 0,-22.8906 z" /><path
         id="path230"
         style="fill:#ffffff;fill-opacity:1;fill-rule:evenodd;stroke:none"
         d="m 1398.12,675.988 0,-22.886 -22.85,-3.832 0,26.718 22.85,0" /><path
         id="path232"
         style="fill:none;stroke:#ffffff;stroke-width:5.96500015;stroke-linecap:square;stroke-linejoin:miter;stroke-miterlimit:10;stroke-dasharray:none;stroke-opacity:1"
         d="m 1398.12,675.984 0,-22.89 -22.85,-3.821 0,26.711 22.85,0 z" /><path
         id="path234"
         style="fill:#ffffff;fill-opacity:1;fill-rule:evenodd;stroke:none"
         d="m 1160.55,122.551 23.0078,0 0,26.7188 -23.0078,0 0,-26.7188 z" /><path
         id="path236"
         style="fill:none;stroke:#ffffff;stroke-width:5.96500015;stroke-linecap:square;stroke-linejoin:miter;stroke-miterlimit:10;stroke-dasharray:none;stroke-opacity:1"
         d="m 1160.55,122.555 23.0078,0 0,26.7188 -23.0078,0 0,-26.7188 z" /><path
         id="path238"
         style="fill:#ffffff;fill-opacity:1;fill-rule:evenodd;stroke:none"
         d="m 1160.55,175.988 23.0078,0 0,26.6836 -23.0078,0 0,-26.6836 z" /><path
         id="path240"
         style="fill:none;stroke:#ffffff;stroke-width:5.96500015;stroke-linecap:square;stroke-linejoin:miter;stroke-miterlimit:10;stroke-dasharray:none;stroke-opacity:1"
         d="m 1160.55,175.984 23.0078,0 0,26.6797 -23.0078,0 0,-26.6797 z" /><path
         id="path242"
         style="fill:#ffffff;fill-opacity:1;fill-rule:evenodd;stroke:none"
         d="m 1160.55,229.43 23.0078,0 0,26.7188 -23.0078,0 0,-26.7188 z" /><path
         id="path244"
         style="fill:none;stroke:#ffffff;stroke-width:5.96500015;stroke-linecap:square;stroke-linejoin:miter;stroke-miterlimit:10;stroke-dasharray:none;stroke-opacity:1"
         d="m 1160.55,229.426 23.0078,0 0,26.7188 -23.0078,0 0,-26.7188 z" /><path
         id="path246"
         style="fill:#ffffff;fill-opacity:1;fill-rule:evenodd;stroke:none"
         d="m 1160.55,282.859 23.0078,0 0,22.8906 -23.0078,0 0,-22.8906 z" /><path
         id="path248"
         style="fill:none;stroke:#ffffff;stroke-width:5.96500015;stroke-linecap:square;stroke-linejoin:miter;stroke-miterlimit:10;stroke-dasharray:none;stroke-opacity:1"
         d="m 1160.55,282.863 23.0078,0 0,22.8906 -23.0078,0 0,-22.8906 z" /><path
         id="path250"
         style="fill:#ffffff;fill-opacity:1;fill-rule:evenodd;stroke:none"
         d="m 1160.55,336.301 23.0078,0 0,22.8906 -23.0078,0 0,-22.8906 z" /><path
         id="path252"
         style="fill:none;stroke:#ffffff;stroke-width:5.96500015;stroke-linecap:square;stroke-linejoin:miter;stroke-miterlimit:10;stroke-dasharray:none;stroke-opacity:1"
         d="m 1160.55,336.305 23.0078,0 0,22.8906 -23.0078,0 0,-22.8906 z" /><path
         id="path254"
         style="fill:#ffffff;fill-opacity:1;fill-rule:evenodd;stroke:none"
         d="m 1160.55,385.91 23.0078,0 0,26.7188 -23.0078,0 0,-26.7188 z" /><path
         id="path256"
         style="fill:none;stroke:#ffffff;stroke-width:5.96500015;stroke-linecap:square;stroke-linejoin:miter;stroke-miterlimit:10;stroke-dasharray:none;stroke-opacity:1"
         d="m 1160.55,385.914 23.0078,0 0,26.7227 -23.0078,0 0,-26.7227 z" /><path
         id="path258"
         style="fill:#ffffff;fill-opacity:1;fill-rule:evenodd;stroke:none"
         d="m 1160.55,439.352 23.0078,0 0,26.7188 -23.0078,0 0,-26.7188 z" /><path
         id="path260"
         style="fill:none;stroke:#ffffff;stroke-width:5.96500015;stroke-linecap:square;stroke-linejoin:miter;stroke-miterlimit:10;stroke-dasharray:none;stroke-opacity:1"
         d="m 1160.55,439.344 23.0078,0 0,26.7227 -23.0078,0 0,-26.7227 z" /><path
         id="path262"
         style="fill:#ffffff;fill-opacity:1;fill-rule:evenodd;stroke:none"
         d="m 1160.55,492.781 23.0078,0 0,26.7188 -23.0078,0 0,-26.7188 z" /><path
         id="path264"
         style="fill:none;stroke:#ffffff;stroke-width:5.96500015;stroke-linecap:square;stroke-linejoin:miter;stroke-miterlimit:10;stroke-dasharray:none;stroke-opacity:1"
         d="m 1160.55,492.785 23.0078,0 0,26.7188 -23.0078,0 0,-26.7188 z" /><path
         id="path266"
         style="fill:#ffffff;fill-opacity:1;fill-rule:evenodd;stroke:none"
         d="m 1160.55,546.219 23.0078,0 0,26.7227 -23.0078,0 0,-26.7227 z" /><path
         id="path268"
         style="fill:none;stroke:#ffffff;stroke-width:5.96500015;stroke-linecap:square;stroke-linejoin:miter;stroke-miterlimit:10;stroke-dasharray:none;stroke-opacity:1"
         d="m 1160.55,546.227 23.0078,0 0,26.7188 -23.0078,0 0,-26.7188 z" /><path
         id="path270"
         style="fill:#ffffff;fill-opacity:1;fill-rule:evenodd;stroke:none"
         d="m 1160.55,599.66 23.0078,0 0,22.8906 -23.0078,0 0,-22.8906 z" /><path
         id="path272"
         style="fill:none;stroke:#ffffff;stroke-width:5.96500015;stroke-linecap:square;stroke-linejoin:miter;stroke-miterlimit:10;stroke-dasharray:none;stroke-opacity:1"
         d="m 1160.55,599.664 23.0078,0 0,22.8906 -23.0078,0 0,-22.8906 z" /><path
         id="path274"
         style="fill:#ffffff;fill-opacity:1;fill-rule:evenodd;stroke:none"
         d="m 1160.55,649.27 23.0078,0 0,26.7188 -23.0078,0 0,-26.7188 z" /><path
         id="path276"
         style="fill:none;stroke:#ffffff;stroke-width:5.96500015;stroke-linecap:square;stroke-linejoin:miter;stroke-miterlimit:10;stroke-dasharray:none;stroke-opacity:1"
         d="m 1160.55,649.266 23.0078,0 0,26.7188 -23.0078,0 0,-26.7188 z" /><path
         id="path278"
         style="fill:#ffffff;fill-opacity:1;fill-rule:evenodd;stroke:none"
         d="m 1218.05,290.48 122.699,0 0,87.8086 -122.699,0 0,-87.8086 z" /><path
         id="path280"
         style="fill:none;stroke:#ffffff;stroke-width:5.96500015;stroke-linecap:square;stroke-linejoin:miter;stroke-miterlimit:10;stroke-dasharray:none;stroke-opacity:1"
         d="m 1218.05,290.484 122.699,0 0,87.8086 -122.699,0 0,-87.8086 z" /><path
         id="path282"
         style="fill:#ffffff;fill-opacity:1;fill-rule:evenodd;stroke:none"
         d="m 1218.05,431.691 122.699,0 0,87.8086 -122.699,0 0,-87.8086 z" /><path
         id="path284"
         style="fill:none;stroke:#ffffff;stroke-width:5.96500015;stroke-linecap:square;stroke-linejoin:miter;stroke-miterlimit:10;stroke-dasharray:none;stroke-opacity:1"
         d="m 1218.05,431.695 122.699,0 0,87.8086 -122.699,0 0,-87.8086 z" /><path
         id="path286"
         style="fill:#ffffff;fill-opacity:1;fill-rule:evenodd;stroke:none"
         d="m 1218.05,572.949 122.699,0 0,83.9805 -122.699,0 0,-83.9805 z" /><path
         id="path288"
         style="fill:none;stroke:#ffffff;stroke-width:5.96500015;stroke-linecap:square;stroke-linejoin:miter;stroke-miterlimit:10;stroke-dasharray:none;stroke-opacity:1"
         d="m 1218.05,572.945 122.699,0 0,83.9805 -122.699,0 0,-83.9805 z" /><path
         id="path290"
         style="fill:#ffffff;fill-opacity:1;fill-rule:nonzero;stroke:none"
         d="m 841.211,735.051 c -73.75,14.73 -112.621,-23.012 -106.52,-55.66 l 0.539,-1.801 c -57.5,-9.762 -42.46,-77.578 -14.878,-77.578 l 2.738,0.117 c -6.961,-31.879 60.191,-64.301 97.609,-48.09 l 2.422,2.621 c 13.359,-28.672 60.789,-33.441 107.66,-34.648 40.668,-1.012 64.379,2.187 81.839,20 l 2.65,-0.782 c 65.04,-5.23 94.69,39.692 80.47,71.95 l 3.52,1.019 c 22.15,5.86 24.72,57.031 -13.32,64.61 l 0.7,1.992 c 16.56,33.32 -22.42,64.73 -76.48,58.828 l -3.75,1.949 c -38.711,35.043 -150.082,29.344 -163.012,-5.308 l -2.187,0.781" /><path
         id="path292"
         style="fill:none;stroke:#000000;stroke-width:10;stroke-linecap:butt;stroke-linejoin:miter;stroke-miterlimit:4;stroke-dasharray:none;stroke-opacity:1"
         d="m 841.211,735.055 c -73.75,14.718 -112.621,-23.008 -106.52,-55.668 l 0.539,-1.793 c -57.5,-9.77 -42.46,-77.578 -14.878,-77.578 l 2.738,0.121 c -6.961,-31.883 60.191,-64.301 97.609,-48.09 l 2.422,2.617 c 13.359,-28.68 60.789,-33.437 107.66,-34.648 40.668,-1.02 64.379,2.187 81.839,20 l 2.65,-0.782 c 65.04,-5.238 94.69,39.68 80.47,71.95 l 3.52,1.019 c 22.15,5.852 24.72,57.031 -13.32,64.602 l 0.7,2 c 16.56,33.32 -22.42,64.718 -76.48,58.832 l -3.75,1.949 c -38.711,35.039 -150.082,29.328 -163.012,-5.313 l -2.187,0.782 z" /><g
         transform="scale(10,10)"
         id="g294"><text
           id="text296"
           style="font-variant:normal;font-weight:normal;font-size:9px;font-family:Helvetica;-inkscape-font-specification:Helvetica;writing-mode:lr-tb;fill:#231f20;fill-opacity:1;fill-rule:nonzero;stroke:none"
           transform="matrix(1,0,0,-1,3.13945,41.5105)"><tspan
             id="tspan298"
             y="0"
             x="0 6.0029998 10.503 13.005 18.009001 23.013 25.011 27.513 33.515999 35.514 39.87904">Actual Size</tspan><tspan
             id="tspan300"
             y="-57.5"
             x="115.935 120.939 125.943 130.94701">250%</tspan></text>
</g></g></g></svg>