<?xml version="1.0" encoding="UTF-8" standalone="no"?>
<svg
   xmlns:dc="http://purl.org/dc/elements/1.1/"
   xmlns:cc="http://creativecommons.org/ns#"
   xmlns:rdf="http://www.w3.org/1999/02/22-rdf-syntax-ns#"
   xmlns:svg="http://www.w3.org/2000/svg"
   xmlns="http://www.w3.org/2000/svg"
   viewBox="0 0 40.150002 42.424999"
   height="42.424999"
   width="40.150002"
   xml:space="preserve"
   version="1.1"
   id="svg2"><metadata
     id="metadata8"><rdf:RDF><cc:Work
         rdf:about=""><dc:format>image/svg+xml</dc:format><dc:type
           rdf:resource="http://purl.org/dc/dcmitype/StillImage" /></cc:Work></rdf:RDF></metadata><defs
     id="defs6" /><g
     transform="matrix(1.25,0,0,-1.25,0,42.425)"
     id="g10"><g
       transform="scale(0.1,0.1)"
       id="g12"><path
         id="path14"
         style="fill:none;stroke:#ffffff;stroke-width:4.13999987;stroke-linecap:butt;stroke-linejoin:miter;stroke-miterlimit:4;stroke-dasharray:none;stroke-opacity:1"
         d="m 5.82031,176.184 234.68769,0" /><path
         id="path16"
         style="fill:#087bbb;fill-opacity:1;fill-rule:nonzero;stroke:none"
         d="m 5.83203,3.76953 234.688,0 0,76.8164 -234.688,0 0,-76.8164 z" /><path
         id="path18"
         style="fill:none;stroke:#ffffff;stroke-width:4;stroke-linecap:butt;stroke-linejoin:miter;stroke-miterlimit:4;stroke-dasharray:none;stroke-opacity:1"
         d="m 5.83203,3.76953 234.688,0 0,76.8164 -234.688,0 0,-76.8164 z" /><path
         id="path20"
         style="fill:#000000;fill-opacity:1;fill-rule:nonzero;stroke:none"
         d="m 316.074,150.145 -75.554,-69.4809 -234.96141,0 83.95311,69.4809 226.5623,0" /><path
         id="path22"
         style="fill:none;stroke:#ffffff;stroke-width:3.5999999;stroke-linecap:butt;stroke-linejoin:miter;stroke-miterlimit:4;stroke-dasharray:none;stroke-opacity:1"
         d="m 316.074,150.145 -75.554,-69.4809 -234.96141,0 83.95311,69.4809 226.5623,0 z" /><path
         id="path24"
         style="fill:#087bbb;fill-opacity:1;fill-rule:nonzero;stroke:none"
         d="m 316.367,78.1367 0,71.8433 -75.847,-69.5425 0,-75.71875 75.847,73.41795" /><path
         id="path26"
         style="fill:none;stroke:#ffffff;stroke-width:4;stroke-linecap:butt;stroke-linejoin:miter;stroke-miterlimit:4;stroke-dasharray:none;stroke-opacity:1"
         d="m 316.367,78.1367 0,71.8433 -75.847,-69.5425 0,-75.71875 75.847,73.41795 z" /><path
         id="path28"
         style="fill:#087bbb;fill-opacity:1;fill-rule:nonzero;stroke:none"
         d="m 5.83203,96.2305 234.688,0 0,76.7891 -234.688,0 0,-76.7891 z" /><path
         id="path30"
         style="fill:none;stroke:#ffffff;stroke-width:4;stroke-linecap:butt;stroke-linejoin:miter;stroke-miterlimit:4;stroke-dasharray:none;stroke-opacity:1"
         d="m 5.83203,96.2305 234.688,0 0,76.7891 -234.688,0 0,-76.7891 z" /><path
         id="path32"
         style="fill:#000000;fill-opacity:1;fill-rule:nonzero;stroke:none"
         d="m 316.074,245.156 -75.554,-69.48 -234.96141,0 83.95311,69.48 226.5623,0" /><path
         id="path34"
         style="fill:none;stroke:#ffffff;stroke-width:3.5999999;stroke-linecap:butt;stroke-linejoin:miter;stroke-miterlimit:4;stroke-dasharray:none;stroke-opacity:1"
         d="m 316.074,245.156 -75.554,-69.48 -234.96141,0 83.95311,69.48 226.5623,0 z" /><path
         id="path36"
         style="fill:#087bbb;fill-opacity:1;fill-rule:nonzero;stroke:none"
         d="m 316.367,162.82 0,76.36 -75.847,-69.539 0,-75.723 75.847,68.902" /><path
         id="path38"
         style="fill:none;stroke:#ffffff;stroke-width:4;stroke-linecap:butt;stroke-linejoin:miter;stroke-miterlimit:4;stroke-dasharray:none;stroke-opacity:1"
         d="m 316.367,162.82 0,76.36 -75.847,-69.539 0,-75.723 75.847,68.902 z" /><path
         id="path40"
         style="fill:#087bbb;fill-opacity:1;fill-rule:nonzero;stroke:none"
         d="m 5.83203,188.594 234.688,0 0,76.8203 -234.688,0 0,-76.8203 z" /><path
         id="path42"
         style="fill:none;stroke:#ffffff;stroke-width:4;stroke-linecap:butt;stroke-linejoin:miter;stroke-miterlimit:4;stroke-dasharray:none;stroke-opacity:1"
         d="m 5.83203,188.594 234.688,0 0,76.8203 -234.688,0 0,-76.8203 z" /><path
         id="path44"
         style="fill:#087bbb;fill-opacity:1;fill-rule:nonzero;stroke:none"
         d="m 316.074,334.961 -75.554,-69.469 -234.96141,0 83.95311,69.469 226.5623,0" /><path
         id="path46"
         style="fill:none;stroke:#ffffff;stroke-width:4;stroke-linecap:butt;stroke-linejoin:miter;stroke-miterlimit:4;stroke-dasharray:none;stroke-opacity:1"
         d="m 316.074,334.961 -75.554,-69.469 -234.96141,0 83.95311,69.469 226.5623,0 z" /><path
         id="path48"
         style="fill:#087bbb;fill-opacity:1;fill-rule:nonzero;stroke:none"
         d="m 316.367,259.727 0,75.078 -75.847,-69.539 0,-75.723 75.847,70.184" /><path
         id="path50"
         style="fill:none;stroke:#ffffff;stroke-width:4;stroke-linecap:butt;stroke-linejoin:miter;stroke-miterlimit:4;stroke-dasharray:none;stroke-opacity:1"
         d="m 316.367,259.727 0,75.078 -75.847,-69.539 0,-75.723 75.847,70.184 z" /><path
         id="path52"
         style="fill:#000000;fill-opacity:1;fill-rule:nonzero;stroke:none"
         d="m 198,295.059 9.91,7.445 27.063,-8.731 -54.289,-11.722 9.121,8.949 -53.856,0 8.203,4.059 53.848,0" /><path
         id="path54"
         style="fill:#000000;fill-opacity:1;fill-rule:nonzero;stroke:none"
         d="m 171.477,315.207 -4.485,-4.769 -44.551,0 -8.972,-5.34 -26.9534,8.812 54.1794,11.637 -13.781,-10.34 44.563,0" /><path
         id="path56"
         style="fill:#000000;fill-opacity:1;fill-rule:nonzero;stroke:none"
         d="m 133,284.555 -6.328,-4.758 -44.5626,0 -7.1172,-5.359 -26.9492,8.828 54.184,11.636 -13.7778,-10.347 44.5508,0" /><path
         id="path58"
         style="fill:#000000;fill-opacity:1;fill-rule:nonzero;stroke:none"
         d="m 240.684,322.938 9.902,7.445 27.051,-8.738 -54.278,-11.723 10.059,8.254 -53.855,0 7.265,4.762 53.856,0" /><path
         id="path60"
         style="fill:#ffffff;fill-opacity:1;fill-rule:nonzero;stroke:none"
         d="m 198,292.477 9.91,7.445 27.063,-8.731 -54.289,-11.722 9.121,8.945 -53.856,0 8.203,4.063 53.848,0" /><path
         id="path62"
         style="fill:#ffffff;fill-opacity:1;fill-rule:nonzero;stroke:none"
         d="m 171.477,312.621 -4.485,-4.766 -44.551,0 -8.972,-5.339 -26.9534,8.812 54.1794,11.637 -13.781,-10.344 44.563,0" /><path
         id="path64"
         style="fill:#ffffff;fill-opacity:1;fill-rule:nonzero;stroke:none"
         d="m 133,281.973 -6.328,-4.766 -44.5626,0 -7.1172,-5.352 -26.9492,8.825 54.184,11.64 -13.7778,-10.347 44.5508,0" /><path
         id="path66"
         style="fill:#ffffff;fill-opacity:1;fill-rule:nonzero;stroke:none"
         d="m 240.684,320.355 9.902,7.442 27.051,-8.734 -54.278,-11.723 10.059,8.25 -53.855,0 7.265,4.765 53.856,0" /><path
         id="path68"
         style="fill:#ffffff;fill-opacity:1;fill-rule:nonzero;stroke:none"
         d="m 131.211,179.852 0,51.961 8.82,0 -13.008,19.609 -13.007,-19.609 8.816,0 0,-51.961 8.379,0" /><path
         id="path70"
         style="fill:#ffffff;fill-opacity:1;fill-rule:nonzero;stroke:none"
         d="m 104.707,162.012 -36.7382,36.738 6.2304,6.23 -23.0664,4.68 4.668,-23.078 6.2305,6.238 36.7382,-36.734 5.9375,5.926" /><path
         id="path72"
         style="fill:#ffffff;fill-opacity:1;fill-rule:nonzero;stroke:none"
         d="m 91.2695,137.969 -51.9609,0 0,8.801 -19.6094,-13.008 19.6094,-13 0,8.82 51.9609,0 0,8.387" /><path
         id="path74"
         style="fill:#ffffff;fill-opacity:1;fill-rule:nonzero;stroke:none"
         d="m 98.7695,111.457 -36.7382,-36.7382 -6.2305,6.2187 -4.668,-23.0547 23.0664,4.6758 -6.2304,6.2305 36.7382,36.7379 -5.9375,5.93" /><path
         id="path76"
         style="fill:#ffffff;fill-opacity:1;fill-rule:nonzero;stroke:none"
         d="m 122.832,98.0195 0,-51.957 -8.816,0 13.007,-19.6172 13.008,19.6172 -8.82,0 0,51.957 -8.379,0" /><path
         id="path78"
         style="fill:#ffffff;fill-opacity:1;fill-rule:nonzero;stroke:none"
         d="m 149.336,105.527 36.738,-36.7379 -6.23,-6.2305 23.066,-4.6758 -4.668,23.0547 -6.23,-6.2187 -36.739,36.7382 -5.937,-5.93" /><path
         id="path80"
         style="fill:#ffffff;fill-opacity:1;fill-rule:nonzero;stroke:none"
         d="m 162.773,129.582 51.965,0 0,-8.82 19.61,13 -19.61,13.008 0,-8.801 -51.965,0 0,-8.387" /><path
         id="path82"
         style="fill:#ffffff;fill-opacity:1;fill-rule:nonzero;stroke:none"
         d="m 155.273,156.086 36.739,36.734 6.23,-6.238 4.668,23.078 -23.066,-4.68 6.23,-6.23 -36.738,-36.738 5.937,-5.926" /><path
         id="path84"
         style="fill:#ffffff;fill-opacity:1;fill-rule:nonzero;stroke:none"
         d="m 149.641,102.141 c 17.156,12.007 21.328,35.664 9.304,52.839 -12.011,17.149 -35.664,21.321 -52.832,9.309 C 88.957,152.273 84.7969,128.613 96.8086,111.457 108.82,94.2891 132.473,90.1172 149.641,102.141" /><path
         id="path86"
         style="fill:none;stroke:#000000;stroke-width:2.51999998;stroke-linecap:butt;stroke-linejoin:miter;stroke-miterlimit:4;stroke-dasharray:none;stroke-opacity:1"
         d="m 149.641,102.141 c 17.156,12.007 21.328,35.664 9.304,52.839 -12.011,17.149 -35.664,21.321 -52.832,9.309 C 88.957,152.273 84.7969,128.613 96.8086,111.457 108.82,94.2891 132.473,90.1172 149.641,102.141 Z" /><path
         id="path88"
         style="fill:none;stroke:#ffffff;stroke-width:9;stroke-linecap:butt;stroke-linejoin:miter;stroke-miterlimit:4;stroke-dasharray:none;stroke-opacity:1"
         d="m 304.934,165.762 c -3.762,-48.731 -18.196,-87.3636 -32.239,-86.2815 -14.031,1.0976 -22.363,41.4645 -18.601,90.2075 3.758,48.722 18.191,87.359 32.234,86.269 14.035,-1.078 22.363,-41.465 18.606,-90.195 z" /></g></g></svg>