<?xml version="1.0" encoding="UTF-8" standalone="no"?>
<svg
   xmlns:dc="http://purl.org/dc/elements/1.1/"
   xmlns:cc="http://creativecommons.org/ns#"
   xmlns:rdf="http://www.w3.org/1999/02/22-rdf-syntax-ns#"
   xmlns:svg="http://www.w3.org/2000/svg"
   xmlns="http://www.w3.org/2000/svg"
   viewBox="0 0 765 990"
   height="990"
   width="765"
   xml:space="preserve"
   version="1.1"
   id="svg2"><metadata
     id="metadata8"><rdf:RDF><cc:Work
         rdf:about=""><dc:format>image/svg+xml</dc:format><dc:type
           rdf:resource="http://purl.org/dc/dcmitype/StillImage" /></cc:Work></rdf:RDF></metadata><defs
     id="defs6" /><g
     transform="matrix(1.25,0,0,-1.25,0,990)"
     id="g10"><g
       transform="scale(0.1,0.1)"
       id="g12"><path
         id="path14"
         style="fill:#20a3e4;fill-opacity:1;fill-rule:evenodd;stroke:none"
         d="m 2926.58,6207.22 0,-309.94 475.38,0 0,309.94 -475.38,0 0,0" /><path
         id="path16"
         style="fill:none;stroke:#afdff4;stroke-width:4.77099991;stroke-linecap:square;stroke-linejoin:bevel;stroke-miterlimit:10;stroke-dasharray:none;stroke-opacity:1"
         d="m 2926.58,6207.22 0,-309.94 475.38,0 0,309.94 -475.38,0 0,0 z" /><path
         id="path18"
         style="fill:#43b6ea;fill-opacity:1;fill-rule:evenodd;stroke:none"
         d="m 2926.58,6207.22 38.33,39.69 475.38,0 -38.33,-39.69 -475.38,0 0,0" /><path
         id="path20"
         style="fill:none;stroke:#afdff4;stroke-width:4.77099991;stroke-linecap:square;stroke-linejoin:bevel;stroke-miterlimit:10;stroke-dasharray:none;stroke-opacity:1"
         d="m 2926.58,6207.22 38.33,39.69 475.38,0 -38.33,-39.69 -475.38,0 0,0 z" /><path
         id="path22"
         style="fill:#1d76a0;fill-opacity:1;fill-rule:evenodd;stroke:none"
         d="m 3401.96,6207.22 38.33,39.69 0,-309.94 -38.33,-39.69 0,309.94" /><path
         id="path24"
         style="fill:none;stroke:#afdff4;stroke-width:4.77099991;stroke-linecap:square;stroke-linejoin:bevel;stroke-miterlimit:10;stroke-dasharray:none;stroke-opacity:1"
         d="m 3401.96,6207.22 38.33,39.69 0,-309.94 -38.33,-39.69 0,309.94 z" /><path
         id="path26"
         style="fill:#242021;fill-opacity:1;fill-rule:evenodd;stroke:none"
         d="m 3308.42,6140.04 0,18.32 42.94,-30.54 -42.94,-30.53 0,18.32 -58.28,0 0,24.43 58.28,0 0,0" /><path
         id="path28"
         style="fill:#242021;fill-opacity:1;fill-rule:evenodd;stroke:none"
         d="m 3069.79,6062.17 0,18.32 42.94,-30.54 -42.94,-30.52 0,18.32 -111.01,0 0,24.42 111.01,0 0,0" /><path
         id="path30"
         style="fill:#242021;fill-opacity:1;fill-rule:evenodd;stroke:none"
         d="m 3308.42,5984.31 0,18.31 42.94,-30.53 -42.94,-30.54 0,18.33 -58.28,0 0,24.43 58.28,0 0,0" /><path
         id="path32"
         style="fill:#ffffff;fill-opacity:1;fill-rule:evenodd;stroke:none"
         d="m 3302.29,6146.14 0,16.8 42.94,-29.01 -42.94,-30.54 0,18.32 -58.27,0 0,24.43 58.27,0 0,0" /><path
         id="path34"
         style="fill:#ffffff;fill-opacity:1;fill-rule:evenodd;stroke:none"
         d="m 3063.65,6068.28 0,18.32 42.94,-30.54 -42.94,-30.53 0,18.32 -109.47,0 0,24.43 109.47,0 0,0" /><path
         id="path36"
         style="fill:#242021;fill-opacity:1;fill-rule:evenodd;stroke:none"
         d="m 3346.76,6062.17 0,18.32 44.47,-30.54 -44.47,-30.52 0,18.32 -98.15,0 0,24.42 98.15,0 0,0" /><path
         id="path38"
         style="fill:#ffffff;fill-opacity:1;fill-rule:evenodd;stroke:none"
         d="m 3342.16,6068.28 0,18.32 42.94,-30.54 -42.94,-30.53 0,18.32 -99.68,0 0,24.43 99.68,0 0,0" /><path
         id="path40"
         style="fill:#ffffff;fill-opacity:1;fill-rule:evenodd;stroke:none"
         d="m 3302.29,5990.41 0,18.32 42.94,-30.53 -42.94,-30.54 0,18.33 -58.27,0 0,24.42 58.27,0 0,0" /><path
         id="path42"
         style="fill:#1c7ba7;fill-opacity:1;fill-rule:evenodd;stroke:none"
         d="m 3228.57,6181.26 0,-258.03 -113.4,0 0,258.03 113.4,0 0,0" /><path
         id="path44"
         style="fill:none;stroke:#8ed0f2;stroke-width:7.15700006;stroke-linecap:square;stroke-linejoin:miter;stroke-miterlimit:10;stroke-dasharray:none;stroke-opacity:1"
         d="m 3228.57,6181.26 0,-258.03 -113.4,0 0,258.03 113.4,0 0,0 z" /><path
         id="path46"
         style="fill:#ffffff;fill-opacity:1;fill-rule:evenodd;stroke:none"
         d="m 3197.97,5982.78 0,-35.12 -49.07,0 0,35.12 49.07,0 0,0" /><path
         id="path48"
         style="fill:none;stroke:#ffffff;stroke-width:2.38590002;stroke-linecap:square;stroke-linejoin:miter;stroke-miterlimit:10;stroke-dasharray:none;stroke-opacity:1"
         d="m 3197.97,5982.78 0,-35.12 -49.07,0 0,35.12 49.07,0 0,0 z" /><path
         id="path50"
         style="fill:#ffffff;fill-opacity:1;fill-rule:evenodd;stroke:none"
         d="m 3220.92,5947.66 0,-10.69 -9.14,0 0,10.69 9.14,0 0,0" /><path
         id="path52"
         style="fill:none;stroke:#ffffff;stroke-width:2.38590002;stroke-linecap:square;stroke-linejoin:miter;stroke-miterlimit:10;stroke-dasharray:none;stroke-opacity:1"
         d="m 3220.92,5947.66 0,-10.69 -9.14,0 0,10.69 9.14,0 0,0 z" /><path
         id="path54"
         style="fill:#ffffff;fill-opacity:1;fill-rule:evenodd;stroke:none"
         d="m 3220.92,5969.04 0,-10.69 -9.14,0 0,10.69 9.14,0 0,0" /><path
         id="path56"
         style="fill:none;stroke:#ffffff;stroke-width:2.38590002;stroke-linecap:square;stroke-linejoin:miter;stroke-miterlimit:10;stroke-dasharray:none;stroke-opacity:1"
         d="m 3220.92,5969.04 0,-10.69 -9.14,0 0,10.69 9.14,0 0,0 z" /><path
         id="path58"
         style="fill:#ffffff;fill-opacity:1;fill-rule:evenodd;stroke:none"
         d="m 3220.92,5990.41 0,-10.69 -9.14,0 0,10.69 9.14,0 0,0" /><path
         id="path60"
         style="fill:none;stroke:#ffffff;stroke-width:2.38590002;stroke-linecap:square;stroke-linejoin:miter;stroke-miterlimit:10;stroke-dasharray:none;stroke-opacity:1"
         d="m 3220.92,5990.41 0,-10.69 -9.14,0 0,10.69 9.14,0 0,0 z" /><path
         id="path62"
         style="fill:#ffffff;fill-opacity:1;fill-rule:evenodd;stroke:none"
         d="m 3220.92,6010.26 0,-9.16 -9.14,0 0,9.16 9.14,0 0,0" /><path
         id="path64"
         style="fill:none;stroke:#ffffff;stroke-width:2.38590002;stroke-linecap:square;stroke-linejoin:miter;stroke-miterlimit:10;stroke-dasharray:none;stroke-opacity:1"
         d="m 3220.92,6010.26 0,-9.16 -9.14,0 0,9.16 9.14,0 0,0 z" /><path
         id="path66"
         style="fill:#ffffff;fill-opacity:1;fill-rule:evenodd;stroke:none"
         d="m 3220.92,6031.63 0,-9.16 -9.14,0 0,9.16 9.14,0 0,0" /><path
         id="path68"
         style="fill:none;stroke:#ffffff;stroke-width:2.38590002;stroke-linecap:square;stroke-linejoin:miter;stroke-miterlimit:10;stroke-dasharray:none;stroke-opacity:1"
         d="m 3220.92,6031.63 0,-9.16 -9.14,0 0,9.16 9.14,0 0,0 z" /><path
         id="path70"
         style="fill:#ffffff;fill-opacity:1;fill-rule:evenodd;stroke:none"
         d="m 3220.92,6053.01 0,-10.69 -9.14,0 0,10.69 9.14,0 0,0" /><path
         id="path72"
         style="fill:none;stroke:#ffffff;stroke-width:2.38590002;stroke-linecap:square;stroke-linejoin:miter;stroke-miterlimit:10;stroke-dasharray:none;stroke-opacity:1"
         d="m 3220.92,6053.01 0,-10.69 -9.14,0 0,10.69 9.14,0 0,0 z" /><path
         id="path74"
         style="fill:#ffffff;fill-opacity:1;fill-rule:evenodd;stroke:none"
         d="m 3220.92,6074.39 0,-10.69 -9.14,0 0,10.69 9.14,0 0,0" /><path
         id="path76"
         style="fill:none;stroke:#ffffff;stroke-width:2.38590002;stroke-linecap:square;stroke-linejoin:miter;stroke-miterlimit:10;stroke-dasharray:none;stroke-opacity:1"
         d="m 3220.92,6074.39 0,-10.69 -9.14,0 0,10.69 9.14,0 0,0 z" /><path
         id="path78"
         style="fill:#ffffff;fill-opacity:1;fill-rule:evenodd;stroke:none"
         d="m 3220.92,6095.76 0,-10.69 -9.14,0 0,10.69 9.14,0 0,0" /><path
         id="path80"
         style="fill:none;stroke:#ffffff;stroke-width:2.38590002;stroke-linecap:square;stroke-linejoin:miter;stroke-miterlimit:10;stroke-dasharray:none;stroke-opacity:1"
         d="m 3220.92,6095.76 0,-10.69 -9.14,0 0,10.69 9.14,0 0,0 z" /><path
         id="path82"
         style="fill:#ffffff;fill-opacity:1;fill-rule:evenodd;stroke:none"
         d="m 3220.92,6117.13 0,-10.68 -9.14,0 0,10.68 9.14,0 0,0" /><path
         id="path84"
         style="fill:none;stroke:#ffffff;stroke-width:2.38590002;stroke-linecap:square;stroke-linejoin:miter;stroke-miterlimit:10;stroke-dasharray:none;stroke-opacity:1"
         d="m 3220.92,6117.13 0,-10.68 -9.14,0 0,10.68 9.14,0 0,0 z" /><path
         id="path86"
         style="fill:#ffffff;fill-opacity:1;fill-rule:evenodd;stroke:none"
         d="m 3220.92,6136.98 0,-9.16 -9.14,0 0,9.16 9.14,0 0,0" /><path
         id="path88"
         style="fill:none;stroke:#ffffff;stroke-width:2.38590002;stroke-linecap:square;stroke-linejoin:miter;stroke-miterlimit:10;stroke-dasharray:none;stroke-opacity:1"
         d="m 3220.92,6136.98 0,-9.16 -9.14,0 0,9.16 9.14,0 0,0 z" /><path
         id="path90"
         style="fill:#ffffff;fill-opacity:1;fill-rule:evenodd;stroke:none"
         d="m 3220.92,6158.36 0,-9.16 -9.14,-1.53 0,10.69 9.14,0 0,0" /><path
         id="path92"
         style="fill:none;stroke:#ffffff;stroke-width:2.38590002;stroke-linecap:square;stroke-linejoin:miter;stroke-miterlimit:10;stroke-dasharray:none;stroke-opacity:1"
         d="m 3220.92,6158.36 0,-9.16 -9.14,-1.53 0,10.69 9.14,0 0,0 z" /><path
         id="path94"
         style="fill:#ffffff;fill-opacity:1;fill-rule:evenodd;stroke:none"
         d="m 3135.1,5947.66 0,-10.69 -9.2,0 0,10.69 9.2,0 0,0" /><path
         id="path96"
         style="fill:none;stroke:#ffffff;stroke-width:2.38590002;stroke-linecap:square;stroke-linejoin:miter;stroke-miterlimit:10;stroke-dasharray:none;stroke-opacity:1"
         d="m 3135.1,5947.66 0,-10.69 -9.2,0 0,10.69 9.2,0 0,0 z" /><path
         id="path98"
         style="fill:#ffffff;fill-opacity:1;fill-rule:evenodd;stroke:none"
         d="m 3135.1,5969.04 0,-10.69 -9.2,0 0,10.69 9.2,0 0,0" /><path
         id="path100"
         style="fill:none;stroke:#ffffff;stroke-width:2.38590002;stroke-linecap:square;stroke-linejoin:miter;stroke-miterlimit:10;stroke-dasharray:none;stroke-opacity:1"
         d="m 3135.1,5969.04 0,-10.69 -9.2,0 0,10.69 9.2,0 0,0 z" /><path
         id="path102"
         style="fill:#ffffff;fill-opacity:1;fill-rule:evenodd;stroke:none"
         d="m 3135.1,5990.41 0,-10.69 -9.2,0 0,10.69 9.2,0 0,0" /><path
         id="path104"
         style="fill:none;stroke:#ffffff;stroke-width:2.38590002;stroke-linecap:square;stroke-linejoin:miter;stroke-miterlimit:10;stroke-dasharray:none;stroke-opacity:1"
         d="m 3135.1,5990.41 0,-10.69 -9.2,0 0,10.69 9.2,0 0,0 z" /><path
         id="path106"
         style="fill:#ffffff;fill-opacity:1;fill-rule:evenodd;stroke:none"
         d="m 3135.1,6010.26 0,-9.16 -9.2,0 0,9.16 9.2,0 0,0" /><path
         id="path108"
         style="fill:none;stroke:#ffffff;stroke-width:2.38590002;stroke-linecap:square;stroke-linejoin:miter;stroke-miterlimit:10;stroke-dasharray:none;stroke-opacity:1"
         d="m 3135.1,6010.26 0,-9.16 -9.2,0 0,9.16 9.2,0 0,0 z" /><path
         id="path110"
         style="fill:#ffffff;fill-opacity:1;fill-rule:evenodd;stroke:none"
         d="m 3135.1,6031.63 0,-9.16 -9.2,0 0,9.16 9.2,0 0,0" /><path
         id="path112"
         style="fill:none;stroke:#ffffff;stroke-width:2.38590002;stroke-linecap:square;stroke-linejoin:miter;stroke-miterlimit:10;stroke-dasharray:none;stroke-opacity:1"
         d="m 3135.1,6031.63 0,-9.16 -9.2,0 0,9.16 9.2,0 0,0 z" /><path
         id="path114"
         style="fill:#ffffff;fill-opacity:1;fill-rule:evenodd;stroke:none"
         d="m 3135.1,6053.01 0,-10.69 -9.2,0 0,10.69 9.2,0 0,0" /><path
         id="path116"
         style="fill:none;stroke:#ffffff;stroke-width:2.38590002;stroke-linecap:square;stroke-linejoin:miter;stroke-miterlimit:10;stroke-dasharray:none;stroke-opacity:1"
         d="m 3135.1,6053.01 0,-10.69 -9.2,0 0,10.69 9.2,0 0,0 z" /><path
         id="path118"
         style="fill:#ffffff;fill-opacity:1;fill-rule:evenodd;stroke:none"
         d="m 3135.1,6074.39 0,-10.69 -9.2,0 0,10.69 9.2,0 0,0" /><path
         id="path120"
         style="fill:none;stroke:#ffffff;stroke-width:2.38590002;stroke-linecap:square;stroke-linejoin:miter;stroke-miterlimit:10;stroke-dasharray:none;stroke-opacity:1"
         d="m 3135.1,6074.39 0,-10.69 -9.2,0 0,10.69 9.2,0 0,0 z" /><path
         id="path122"
         style="fill:#ffffff;fill-opacity:1;fill-rule:evenodd;stroke:none"
         d="m 3135.1,6095.76 0,-10.69 -9.2,0 0,10.69 9.2,0 0,0" /><path
         id="path124"
         style="fill:none;stroke:#ffffff;stroke-width:2.38590002;stroke-linecap:square;stroke-linejoin:miter;stroke-miterlimit:10;stroke-dasharray:none;stroke-opacity:1"
         d="m 3135.1,6095.76 0,-10.69 -9.2,0 0,10.69 9.2,0 0,0 z" /><path
         id="path126"
         style="fill:#ffffff;fill-opacity:1;fill-rule:evenodd;stroke:none"
         d="m 3135.1,6117.13 0,-10.68 -9.2,0 0,10.68 9.2,0 0,0" /><path
         id="path128"
         style="fill:none;stroke:#ffffff;stroke-width:2.38590002;stroke-linecap:square;stroke-linejoin:miter;stroke-miterlimit:10;stroke-dasharray:none;stroke-opacity:1"
         d="m 3135.1,6117.13 0,-10.68 -9.2,0 0,10.68 9.2,0 0,0 z" /><path
         id="path130"
         style="fill:#ffffff;fill-opacity:1;fill-rule:evenodd;stroke:none"
         d="m 3135.1,6136.98 0,-9.16 -9.2,0 0,9.16 9.2,0 0,0" /><path
         id="path132"
         style="fill:none;stroke:#ffffff;stroke-width:2.38590002;stroke-linecap:square;stroke-linejoin:miter;stroke-miterlimit:10;stroke-dasharray:none;stroke-opacity:1"
         d="m 3135.1,6136.98 0,-9.16 -9.2,0 0,9.16 9.2,0 0,0 z" /><path
         id="path134"
         style="fill:#ffffff;fill-opacity:1;fill-rule:evenodd;stroke:none"
         d="m 3135.1,6158.36 0,-10.69 -9.2,0 0,10.69 9.2,0 0,0" /><path
         id="path136"
         style="fill:none;stroke:#ffffff;stroke-width:2.38590002;stroke-linecap:square;stroke-linejoin:miter;stroke-miterlimit:10;stroke-dasharray:none;stroke-opacity:1"
         d="m 3135.1,6158.36 0,-10.69 -9.2,0 0,10.69 9.2,0 0,0 z" /><path
         id="path138"
         style="fill:#ffffff;fill-opacity:1;fill-rule:evenodd;stroke:none"
         d="m 3197.97,6039.27 0,-35.12 -49.07,0 0,35.12 49.07,0 0,0" /><path
         id="path140"
         style="fill:none;stroke:#ffffff;stroke-width:2.38590002;stroke-linecap:square;stroke-linejoin:miter;stroke-miterlimit:10;stroke-dasharray:none;stroke-opacity:1"
         d="m 3197.97,6039.27 0,-35.12 -49.07,0 0,35.12 49.07,0 0,0 z" /><path
         id="path142"
         style="fill:#ffffff;fill-opacity:1;fill-rule:evenodd;stroke:none"
         d="m 3197.97,6095.76 0,-35.12 -49.07,0 0,35.12 49.07,0 0,0" /><path
         id="path144"
         style="fill:none;stroke:#ffffff;stroke-width:2.38590002;stroke-linecap:square;stroke-linejoin:miter;stroke-miterlimit:10;stroke-dasharray:none;stroke-opacity:1"
         d="m 3197.97,6095.76 0,-35.12 -49.07,0 0,35.12 49.07,0 0,0 z" /><path
         id="path146"
         style="fill:#ffffff;fill-opacity:1;fill-rule:evenodd;stroke:none"
         d="m 3197.97,6150.72 0,-33.59 -49.07,0 0,33.59 49.07,0 0,0" /><path
         id="path148"
         style="fill:none;stroke:#ffffff;stroke-width:2.38590002;stroke-linecap:square;stroke-linejoin:miter;stroke-miterlimit:10;stroke-dasharray:none;stroke-opacity:1"
         d="m 3197.97,6150.72 0,-33.59 -49.07,0 0,33.59 49.07,0 0,0 z" /><path
         id="path150"
         style="fill:#ffffff;fill-opacity:1;fill-rule:nonzero;stroke:none"
         d="m 2998.16,6181.98 c -29.5,5.89 -45.06,-9.21 -42.6,-22.27 l 0.2,-0.71 c -22.99,-3.91 -16.97,-31.03 -5.94,-31.03 l 1.09,0.03 c -2.77,-12.74 24.08,-25.71 39.05,-19.23 l 0.97,1.05 c 5.34,-11.46 24.3,-13.37 43.07,-13.85 16.26,-0.41 25.74,0.87 32.71,7.99 l 1.08,-0.31 c 26.02,-2.1 37.87,15.88 32.19,28.79 l 1.4,0.39 c 8.87,2.35 9.89,22.83 -5.33,25.86 l 0.29,0.79 c 6.61,13.32 -8.98,25.89 -30.6,23.53 l -1.5,0.78 c -15.48,14.01 -60.03,11.73 -65.2,-2.13 l -0.88,0.32" /><path
         id="path152"
         style="fill:none;stroke:#000000;stroke-width:3.9999001;stroke-linecap:butt;stroke-linejoin:miter;stroke-miterlimit:4;stroke-dasharray:none;stroke-opacity:1"
         d="m 2998.16,6181.98 c -29.5,5.89 -45.06,-9.21 -42.6,-22.27 l 0.2,-0.71 c -22.99,-3.91 -16.97,-31.03 -5.94,-31.03 l 1.09,0.03 c -2.77,-12.74 24.08,-25.71 39.05,-19.23 l 0.97,1.05 c 5.34,-11.46 24.3,-13.37 43.07,-13.85 16.26,-0.41 25.74,0.87 32.71,7.99 l 1.08,-0.31 c 26.02,-2.1 37.87,15.88 32.19,28.79 l 1.4,0.39 c 8.87,2.35 9.89,22.83 -5.33,25.86 l 0.29,0.79 c 6.61,13.32 -8.98,25.89 -30.6,23.53 l -1.5,0.78 c -15.48,14.01 -60.03,11.73 -65.2,-2.13 l -0.88,0.32 z" /><path
         id="path154"
         style="fill:#20a3e4;fill-opacity:1;fill-rule:evenodd;stroke:none"
         d="m 3586.46,6683.04 0,-774.85 1188.44,0 0,774.85 -1188.44,0 0,0" /><path
         id="path156"
         style="fill:none;stroke:#afdff4;stroke-width:11.92749977;stroke-linecap:square;stroke-linejoin:bevel;stroke-miterlimit:10;stroke-dasharray:none;stroke-opacity:1"
         d="m 3586.46,6683.04 0,-774.85 1188.44,0 0,774.85 -1188.44,0 0,0 z" /><path
         id="path158"
         style="fill:#43b6ea;fill-opacity:1;fill-rule:evenodd;stroke:none"
         d="m 3586.46,6683.04 95.83,99.24 1188.44,0 -95.83,-99.24 -1188.44,0 0,0" /><path
         id="path160"
         style="fill:none;stroke:#afdff4;stroke-width:11.92749977;stroke-linecap:square;stroke-linejoin:bevel;stroke-miterlimit:10;stroke-dasharray:none;stroke-opacity:1"
         d="m 3586.46,6683.04 95.83,99.24 1188.44,0 -95.83,-99.24 -1188.44,0 0,0 z" /><path
         id="path162"
         style="fill:#1d76a0;fill-opacity:1;fill-rule:evenodd;stroke:none"
         d="m 4774.9,6683.04 95.83,99.24 0,-774.85 -95.83,-99.24 0,774.85" /><path
         id="path164"
         style="fill:none;stroke:#afdff4;stroke-width:11.92749977;stroke-linecap:square;stroke-linejoin:bevel;stroke-miterlimit:10;stroke-dasharray:none;stroke-opacity:1"
         d="m 4774.9,6683.04 95.83,99.24 0,-774.85 -95.83,-99.24 0,774.85 z" /><path
         id="path166"
         style="fill:#242021;fill-opacity:1;fill-rule:evenodd;stroke:none"
         d="m 4541.05,6515.09 0,45.8 107.35,-76.34 -107.35,-76.34 0,45.81 -145.71,0 0,61.07 145.71,0 0,0" /><path
         id="path168"
         style="fill:#242021;fill-opacity:1;fill-rule:evenodd;stroke:none"
         d="m 3944.46,6320.43 0,45.8 107.36,-76.35 -107.36,-76.32 0,45.8 -277.51,0 0,61.07 277.51,0 0,0" /><path
         id="path170"
         style="fill:#242021;fill-opacity:1;fill-rule:evenodd;stroke:none"
         d="m 4541.05,6125.77 0,45.78 107.35,-76.32 -107.35,-76.35 0,45.8 -145.71,0 0,61.09 145.71,0 0,0" /><path
         id="path172"
         style="fill:#ffffff;fill-opacity:1;fill-rule:evenodd;stroke:none"
         d="m 4525.71,6530.36 0,41.99 107.36,-72.53 -107.36,-76.33 0,45.78 -145.67,0 0,61.09 145.67,0 0,0" /><path
         id="path174"
         style="fill:#ffffff;fill-opacity:1;fill-rule:evenodd;stroke:none"
         d="m 3929.13,6335.7 0,45.8 107.35,-76.35 -107.35,-76.33 0,45.8 -273.68,0 0,61.08 273.68,0 0,0" /><path
         id="path176"
         style="fill:#242021;fill-opacity:1;fill-rule:evenodd;stroke:none"
         d="m 4636.89,6320.43 0,45.8 111.19,-76.35 -111.19,-76.32 0,45.8 -245.35,0 0,61.07 245.35,0 0,0" /><path
         id="path178"
         style="fill:#ffffff;fill-opacity:1;fill-rule:evenodd;stroke:none"
         d="m 4625.39,6335.7 0,45.8 107.36,-76.35 -107.36,-76.33 0,45.8 -249.19,0 0,61.08 249.19,0 0,0" /><path
         id="path180"
         style="fill:#ffffff;fill-opacity:1;fill-rule:evenodd;stroke:none"
         d="m 4525.71,6141.03 0,45.81 107.36,-76.36 -107.36,-76.33 0,45.81 -145.67,0 0,61.07 145.67,0 0,0" /><path
         id="path182"
         style="fill:#1c7ba7;fill-opacity:1;fill-rule:evenodd;stroke:none"
         d="m 4341.44,6618.15 0,-645.07 -283.53,0 0,645.07 283.53,0 0,0" /><path
         id="path184"
         style="fill:none;stroke:#8ed0f2;stroke-width:17.89249992;stroke-linecap:square;stroke-linejoin:miter;stroke-miterlimit:10;stroke-dasharray:none;stroke-opacity:1"
         d="m 4341.44,6618.15 0,-645.07 -283.53,0 0,645.07 283.53,0 0,0 z" /><path
         id="path186"
         style="fill:#ffffff;fill-opacity:1;fill-rule:evenodd;stroke:none"
         d="m 4264.92,6121.95 0,-87.8 -122.67,0 0,87.8 122.67,0 0,0" /><path
         id="path188"
         style="fill:none;stroke:#ffffff;stroke-width:5.96500015;stroke-linecap:square;stroke-linejoin:miter;stroke-miterlimit:10;stroke-dasharray:none;stroke-opacity:1"
         d="m 4264.92,6121.95 0,-87.8 -122.67,0 0,87.8 122.67,0 0,0 z" /><path
         id="path190"
         style="fill:#ffffff;fill-opacity:1;fill-rule:evenodd;stroke:none"
         d="m 4322.3,6034.15 0,-26.72 -22.85,0 0,26.72 22.85,0 0,0" /><path
         id="path192"
         style="fill:none;stroke:#ffffff;stroke-width:5.96500015;stroke-linecap:square;stroke-linejoin:miter;stroke-miterlimit:10;stroke-dasharray:none;stroke-opacity:1"
         d="m 4322.3,6034.15 0,-26.72 -22.85,0 0,26.72 22.85,0 0,0 z" /><path
         id="path194"
         style="fill:#ffffff;fill-opacity:1;fill-rule:evenodd;stroke:none"
         d="m 4322.3,6087.58 0,-26.7 -22.85,0 0,26.7 22.85,0 0,0" /><path
         id="path196"
         style="fill:none;stroke:#ffffff;stroke-width:5.96500015;stroke-linecap:square;stroke-linejoin:miter;stroke-miterlimit:10;stroke-dasharray:none;stroke-opacity:1"
         d="m 4322.3,6087.58 0,-26.7 -22.85,0 0,26.7 22.85,0 0,0 z" /><path
         id="path198"
         style="fill:#ffffff;fill-opacity:1;fill-rule:evenodd;stroke:none"
         d="m 4322.3,6141.03 0,-26.72 -22.85,0 0,26.72 22.85,0 0,0" /><path
         id="path200"
         style="fill:none;stroke:#ffffff;stroke-width:5.96500015;stroke-linecap:square;stroke-linejoin:miter;stroke-miterlimit:10;stroke-dasharray:none;stroke-opacity:1"
         d="m 4322.3,6141.03 0,-26.72 -22.85,0 0,26.72 22.85,0 0,0 z" /><path
         id="path202"
         style="fill:#ffffff;fill-opacity:1;fill-rule:evenodd;stroke:none"
         d="m 4322.3,6190.64 0,-22.89 -22.85,0 0,22.89 22.85,0 0,0" /><path
         id="path204"
         style="fill:none;stroke:#ffffff;stroke-width:5.96500015;stroke-linecap:square;stroke-linejoin:miter;stroke-miterlimit:10;stroke-dasharray:none;stroke-opacity:1"
         d="m 4322.3,6190.64 0,-22.89 -22.85,0 0,22.89 22.85,0 0,0 z" /><path
         id="path206"
         style="fill:#ffffff;fill-opacity:1;fill-rule:evenodd;stroke:none"
         d="m 4322.3,6244.08 0,-22.9 -22.85,0 0,22.9 22.85,0 0,0" /><path
         id="path208"
         style="fill:none;stroke:#ffffff;stroke-width:5.96500015;stroke-linecap:square;stroke-linejoin:miter;stroke-miterlimit:10;stroke-dasharray:none;stroke-opacity:1"
         d="m 4322.3,6244.08 0,-22.9 -22.85,0 0,22.9 22.85,0 0,0 z" /><path
         id="path210"
         style="fill:#ffffff;fill-opacity:1;fill-rule:evenodd;stroke:none"
         d="m 4322.3,6297.52 0,-26.72 -22.85,0 0,26.72 22.85,0 0,0" /><path
         id="path212"
         style="fill:none;stroke:#ffffff;stroke-width:5.96500015;stroke-linecap:square;stroke-linejoin:miter;stroke-miterlimit:10;stroke-dasharray:none;stroke-opacity:1"
         d="m 4322.3,6297.52 0,-26.72 -22.85,0 0,26.72 22.85,0 0,0 z" /><path
         id="path214"
         style="fill:#ffffff;fill-opacity:1;fill-rule:evenodd;stroke:none"
         d="m 4322.3,6350.96 0,-26.72 -22.85,0 0,26.72 22.85,0 0,0" /><path
         id="path216"
         style="fill:none;stroke:#ffffff;stroke-width:5.96500015;stroke-linecap:square;stroke-linejoin:miter;stroke-miterlimit:10;stroke-dasharray:none;stroke-opacity:1"
         d="m 4322.3,6350.96 0,-26.72 -22.85,0 0,26.72 22.85,0 0,0 z" /><path
         id="path218"
         style="fill:#ffffff;fill-opacity:1;fill-rule:evenodd;stroke:none"
         d="m 4322.3,6404.39 0,-26.72 -22.85,0 0,26.72 22.85,0 0,0" /><path
         id="path220"
         style="fill:none;stroke:#ffffff;stroke-width:5.96500015;stroke-linecap:square;stroke-linejoin:miter;stroke-miterlimit:10;stroke-dasharray:none;stroke-opacity:1"
         d="m 4322.3,6404.39 0,-26.72 -22.85,0 0,26.72 22.85,0 0,0 z" /><path
         id="path222"
         style="fill:#ffffff;fill-opacity:1;fill-rule:evenodd;stroke:none"
         d="m 4322.3,6457.83 0,-26.72 -22.85,0 0,26.72 22.85,0 0,0" /><path
         id="path224"
         style="fill:none;stroke:#ffffff;stroke-width:5.96500015;stroke-linecap:square;stroke-linejoin:miter;stroke-miterlimit:10;stroke-dasharray:none;stroke-opacity:1"
         d="m 4322.3,6457.83 0,-26.72 -22.85,0 0,26.72 22.85,0 0,0 z" /><path
         id="path226"
         style="fill:#ffffff;fill-opacity:1;fill-rule:evenodd;stroke:none"
         d="m 4322.3,6507.46 0,-22.91 -22.85,0 0,22.91 22.85,0 0,0" /><path
         id="path228"
         style="fill:none;stroke:#ffffff;stroke-width:5.96500015;stroke-linecap:square;stroke-linejoin:miter;stroke-miterlimit:10;stroke-dasharray:none;stroke-opacity:1"
         d="m 4322.3,6507.46 0,-22.91 -22.85,0 0,22.91 22.85,0 0,0 z" /><path
         id="path230"
         style="fill:#ffffff;fill-opacity:1;fill-rule:evenodd;stroke:none"
         d="m 4322.3,6560.89 0,-22.9 -22.85,-3.83 0,26.73 22.85,0 0,0" /><path
         id="path232"
         style="fill:none;stroke:#ffffff;stroke-width:5.96500015;stroke-linecap:square;stroke-linejoin:miter;stroke-miterlimit:10;stroke-dasharray:none;stroke-opacity:1"
         d="m 4322.3,6560.89 0,-22.9 -22.85,-3.83 0,26.73 22.85,0 0,0 z" /><path
         id="path234"
         style="fill:#ffffff;fill-opacity:1;fill-rule:evenodd;stroke:none"
         d="m 4107.75,6034.15 0,-26.72 -23,0 0,26.72 23,0 0,0" /><path
         id="path236"
         style="fill:none;stroke:#ffffff;stroke-width:5.96500015;stroke-linecap:square;stroke-linejoin:miter;stroke-miterlimit:10;stroke-dasharray:none;stroke-opacity:1"
         d="m 4107.75,6034.15 0,-26.72 -23,0 0,26.72 23,0 0,0 z" /><path
         id="path238"
         style="fill:#ffffff;fill-opacity:1;fill-rule:evenodd;stroke:none"
         d="m 4107.75,6087.58 0,-26.7 -23,0 0,26.7 23,0 0,0" /><path
         id="path240"
         style="fill:none;stroke:#ffffff;stroke-width:5.96500015;stroke-linecap:square;stroke-linejoin:miter;stroke-miterlimit:10;stroke-dasharray:none;stroke-opacity:1"
         d="m 4107.75,6087.58 0,-26.7 -23,0 0,26.7 23,0 0,0 z" /><path
         id="path242"
         style="fill:#ffffff;fill-opacity:1;fill-rule:evenodd;stroke:none"
         d="m 4107.75,6141.03 0,-26.72 -23,0 0,26.72 23,0 0,0" /><path
         id="path244"
         style="fill:none;stroke:#ffffff;stroke-width:5.96500015;stroke-linecap:square;stroke-linejoin:miter;stroke-miterlimit:10;stroke-dasharray:none;stroke-opacity:1"
         d="m 4107.75,6141.03 0,-26.72 -23,0 0,26.72 23,0 0,0 z" /><path
         id="path246"
         style="fill:#ffffff;fill-opacity:1;fill-rule:evenodd;stroke:none"
         d="m 4107.75,6190.64 0,-22.89 -23,0 0,22.89 23,0 0,0" /><path
         id="path248"
         style="fill:none;stroke:#ffffff;stroke-width:5.96500015;stroke-linecap:square;stroke-linejoin:miter;stroke-miterlimit:10;stroke-dasharray:none;stroke-opacity:1"
         d="m 4107.75,6190.64 0,-22.89 -23,0 0,22.89 23,0 0,0 z" /><path
         id="path250"
         style="fill:#ffffff;fill-opacity:1;fill-rule:evenodd;stroke:none"
         d="m 4107.75,6244.08 0,-22.9 -23,0 0,22.9 23,0 0,0" /><path
         id="path252"
         style="fill:none;stroke:#ffffff;stroke-width:5.96500015;stroke-linecap:square;stroke-linejoin:miter;stroke-miterlimit:10;stroke-dasharray:none;stroke-opacity:1"
         d="m 4107.75,6244.08 0,-22.9 -23,0 0,22.9 23,0 0,0 z" /><path
         id="path254"
         style="fill:#ffffff;fill-opacity:1;fill-rule:evenodd;stroke:none"
         d="m 4107.75,6297.52 0,-26.72 -23,0 0,26.72 23,0 0,0" /><path
         id="path256"
         style="fill:none;stroke:#ffffff;stroke-width:5.96500015;stroke-linecap:square;stroke-linejoin:miter;stroke-miterlimit:10;stroke-dasharray:none;stroke-opacity:1"
         d="m 4107.75,6297.52 0,-26.72 -23,0 0,26.72 23,0 0,0 z" /><path
         id="path258"
         style="fill:#ffffff;fill-opacity:1;fill-rule:evenodd;stroke:none"
         d="m 4107.75,6350.96 0,-26.72 -23,0 0,26.72 23,0 0,0" /><path
         id="path260"
         style="fill:none;stroke:#ffffff;stroke-width:5.96500015;stroke-linecap:square;stroke-linejoin:miter;stroke-miterlimit:10;stroke-dasharray:none;stroke-opacity:1"
         d="m 4107.75,6350.96 0,-26.72 -23,0 0,26.72 23,0 0,0 z" /><path
         id="path262"
         style="fill:#ffffff;fill-opacity:1;fill-rule:evenodd;stroke:none"
         d="m 4107.75,6404.39 0,-26.72 -23,0 0,26.72 23,0 0,0" /><path
         id="path264"
         style="fill:none;stroke:#ffffff;stroke-width:5.96500015;stroke-linecap:square;stroke-linejoin:miter;stroke-miterlimit:10;stroke-dasharray:none;stroke-opacity:1"
         d="m 4107.75,6404.39 0,-26.72 -23,0 0,26.72 23,0 0,0 z" /><path
         id="path266"
         style="fill:#ffffff;fill-opacity:1;fill-rule:evenodd;stroke:none"
         d="m 4107.75,6457.83 0,-26.72 -23,0 0,26.72 23,0 0,0" /><path
         id="path268"
         style="fill:none;stroke:#ffffff;stroke-width:5.96500015;stroke-linecap:square;stroke-linejoin:miter;stroke-miterlimit:10;stroke-dasharray:none;stroke-opacity:1"
         d="m 4107.75,6457.83 0,-26.72 -23,0 0,26.72 23,0 0,0 z" /><path
         id="path270"
         style="fill:#ffffff;fill-opacity:1;fill-rule:evenodd;stroke:none"
         d="m 4107.75,6507.46 0,-22.91 -23,0 0,22.91 23,0 0,0" /><path
         id="path272"
         style="fill:none;stroke:#ffffff;stroke-width:5.96500015;stroke-linecap:square;stroke-linejoin:miter;stroke-miterlimit:10;stroke-dasharray:none;stroke-opacity:1"
         d="m 4107.75,6507.46 0,-22.91 -23,0 0,22.91 23,0 0,0 z" /><path
         id="path274"
         style="fill:#ffffff;fill-opacity:1;fill-rule:evenodd;stroke:none"
         d="m 4107.75,6560.89 0,-26.73 -23,0 0,26.73 23,0 0,0" /><path
         id="path276"
         style="fill:none;stroke:#ffffff;stroke-width:5.96500015;stroke-linecap:square;stroke-linejoin:miter;stroke-miterlimit:10;stroke-dasharray:none;stroke-opacity:1"
         d="m 4107.75,6560.89 0,-26.73 -23,0 0,26.73 23,0 0,0 z" /><path
         id="path278"
         style="fill:#ffffff;fill-opacity:1;fill-rule:evenodd;stroke:none"
         d="m 4264.92,6263.17 0,-87.79 -122.67,0 0,87.79 122.67,0 0,0" /><path
         id="path280"
         style="fill:none;stroke:#ffffff;stroke-width:5.96500015;stroke-linecap:square;stroke-linejoin:miter;stroke-miterlimit:10;stroke-dasharray:none;stroke-opacity:1"
         d="m 4264.92,6263.17 0,-87.79 -122.67,0 0,87.79 122.67,0 0,0 z" /><path
         id="path282"
         style="fill:#ffffff;fill-opacity:1;fill-rule:evenodd;stroke:none"
         d="m 4264.92,6404.39 0,-87.79 -122.67,0 0,87.79 122.67,0 0,0" /><path
         id="path284"
         style="fill:none;stroke:#ffffff;stroke-width:5.96500015;stroke-linecap:square;stroke-linejoin:miter;stroke-miterlimit:10;stroke-dasharray:none;stroke-opacity:1"
         d="m 4264.92,6404.39 0,-87.79 -122.67,0 0,87.79 122.67,0 0,0 z" /><path
         id="path286"
         style="fill:#ffffff;fill-opacity:1;fill-rule:evenodd;stroke:none"
         d="m 4264.92,6541.81 0,-83.98 -122.67,0 0,83.98 122.67,0 0,0" /><path
         id="path288"
         style="fill:none;stroke:#ffffff;stroke-width:5.96500015;stroke-linecap:square;stroke-linejoin:miter;stroke-miterlimit:10;stroke-dasharray:none;stroke-opacity:1"
         d="m 4264.92,6541.81 0,-83.98 -122.67,0 0,83.98 122.67,0 0,0 z" /><path
         id="path290"
         style="fill:#ffffff;fill-opacity:1;fill-rule:nonzero;stroke:none"
         d="m 3765.39,6619.96 c -73.73,14.72 -112.62,-23.03 -106.5,-55.68 l 0.52,-1.78 c -57.48,-9.78 -42.44,-77.58 -14.85,-77.58 l 2.71,0.09 c -6.94,-31.87 60.21,-64.29 97.63,-48.08 l 2.42,2.62 c 13.36,-28.65 60.77,-33.44 107.66,-34.63 40.66,-1.03 64.39,2.18 81.82,19.99 l 2.68,-0.79 c 65.04,-5.24 94.68,39.71 80.47,71.97 l 3.49,0.99 c 22.17,5.87 24.74,57.06 -13.3,64.64 l 0.7,1.99 c 16.54,33.3 -22.43,64.71 -76.48,58.81 l -3.76,1.95 c -38.71,35.04 -150.07,29.34 -162.99,-5.32 l -2.22,0.81" /><path
         id="path292"
         style="fill:none;stroke:#000000;stroke-width:10;stroke-linecap:butt;stroke-linejoin:miter;stroke-miterlimit:4;stroke-dasharray:none;stroke-opacity:1"
         d="m 3765.39,6619.96 c -73.73,14.72 -112.62,-23.03 -106.5,-55.68 l 0.52,-1.78 c -57.48,-9.78 -42.44,-77.58 -14.85,-77.58 l 2.71,0.09 c -6.94,-31.87 60.21,-64.29 97.63,-48.08 l 2.42,2.62 c 13.36,-28.65 60.77,-33.44 107.66,-34.63 40.66,-1.03 64.39,2.18 81.82,19.99 l 2.68,-0.79 c 65.04,-5.24 94.68,39.71 80.47,71.97 l 3.49,0.99 c 22.17,5.87 24.74,57.06 -13.3,64.64 l 0.7,1.99 c 16.54,33.3 -22.43,64.71 -76.48,58.81 l -3.76,1.95 c -38.71,35.04 -150.07,29.34 -162.99,-5.32 l -2.22,0.81 z" /><g
         transform="scale(10,10)"
         id="g294"><text
           id="text296"
           style="font-variant:normal;font-weight:normal;font-size:9px;font-family:Helvetica;-inkscape-font-specification:Helvetica;writing-mode:lr-tb;fill:#231f20;fill-opacity:1;fill-rule:nonzero;stroke:none"
           transform="matrix(1,0,0,-1,295.559,630)"><tspan
             id="tspan298"
             y="0"
             x="0 6.0029998 10.503 13.005 18.009001 23.013 25.011 27.513 33.515999 35.514 39.878845">Actual Size</tspan><tspan
             id="tspan300"
             y="-57.5"
             x="115.935 120.939 125.943 130.94701">250%</tspan></text>
</g></g></g></svg>