<?xml version="1.0" encoding="UTF-8" standalone="no"?>
<svg
   xmlns:dc="http://purl.org/dc/elements/1.1/"
   xmlns:cc="http://creativecommons.org/ns#"
   xmlns:rdf="http://www.w3.org/1999/02/22-rdf-syntax-ns#"
   xmlns:svg="http://www.w3.org/2000/svg"
   xmlns="http://www.w3.org/2000/svg"
   viewBox="0 0 41.25 43.75"
   height="43.75"
   width="41.25"
   xml:space="preserve"
   version="1.1"
   id="svg2"><metadata
     id="metadata8"><rdf:RDF><cc:Work
         rdf:about=""><dc:format>image/svg+xml</dc:format><dc:type
           rdf:resource="http://purl.org/dc/dcmitype/StillImage" /></cc:Work></rdf:RDF></metadata><defs
     id="defs6" /><g
     transform="matrix(1.25,0,0,-1.25,0,43.75)"
     id="g10"><g
       transform="scale(0.1,0.1)"
       id="g12"><path
         id="path14"
         style="fill:none;stroke:#ffffff;stroke-width:4.13999987;stroke-linecap:butt;stroke-linejoin:miter;stroke-miterlimit:4;stroke-dasharray:none;stroke-opacity:1"
         d="m 5.82031,186.191 234.69169,0" /><path
         id="path16"
         style="fill:#087bbb;fill-opacity:1;fill-rule:nonzero;stroke:none"
         d="m 5.82031,13.7617 234.691,0 0,76.8398 -234.691,0 0,-76.8398 z" /><path
         id="path18"
         style="fill:none;stroke:#ffffff;stroke-width:4;stroke-linecap:butt;stroke-linejoin:miter;stroke-miterlimit:4;stroke-dasharray:none;stroke-opacity:1"
         d="m 5.82031,13.7617 234.691,0 0,76.8398 -234.691,0 0,-76.8398 z" /><path
         id="path20"
         style="fill:#000000;fill-opacity:1;fill-rule:nonzero;stroke:none"
         d="m 316.051,160.129 -75.539,-69.4493 -234.96122,0 83.93752,69.4493 226.5627,0" /><path
         id="path22"
         style="fill:none;stroke:#ffffff;stroke-width:3.5999999;stroke-linecap:butt;stroke-linejoin:miter;stroke-miterlimit:4;stroke-dasharray:none;stroke-opacity:1"
         d="m 316.051,160.133 -75.539,-69.4494 -234.96122,0 83.93752,69.4494 226.5627,0 z" /><path
         id="path24"
         style="fill:#087bbb;fill-opacity:1;fill-rule:nonzero;stroke:none"
         d="m 316.371,88.1406 0,71.8394 -75.859,-69.5308 0,-75.75 75.859,73.4414" /><path
         id="path26"
         style="fill:none;stroke:#ffffff;stroke-width:4;stroke-linecap:butt;stroke-linejoin:miter;stroke-miterlimit:4;stroke-dasharray:none;stroke-opacity:1"
         d="m 316.371,88.1445 0,71.8285 -75.859,-69.5316 0,-75.7383 75.859,73.4414 z" /><path
         id="path28"
         style="fill:#087bbb;fill-opacity:1;fill-rule:nonzero;stroke:none"
         d="m 5.82031,106.219 234.691,0 0,76.8008 -234.691,0 0,-76.8008 z" /><path
         id="path30"
         style="fill:none;stroke:#ffffff;stroke-width:4;stroke-linecap:butt;stroke-linejoin:miter;stroke-miterlimit:4;stroke-dasharray:none;stroke-opacity:1"
         d="m 5.82031,106.223 234.691,0 0,76.8008 -234.691,0 0,-76.8008 z" /><path
         id="path32"
         style="fill:#000000;fill-opacity:1;fill-rule:nonzero;stroke:none"
         d="m 316.051,255.172 -75.539,-69.492 -234.96122,0 83.93752,69.492 226.5627,0" /><path
         id="path34"
         style="fill:none;stroke:#ffffff;stroke-width:3.5999999;stroke-linecap:butt;stroke-linejoin:miter;stroke-miterlimit:4;stroke-dasharray:none;stroke-opacity:1"
         d="m 316.051,255.172 -75.539,-69.488 -234.96122,0 83.93752,69.488 226.5627,0 z" /><path
         id="path36"
         style="fill:#087bbb;fill-opacity:1;fill-rule:nonzero;stroke:none"
         d="m 316.371,172.828 0,76.371 -75.859,-69.57 0,-75.707 75.859,68.906" /><path
         id="path38"
         style="fill:none;stroke:#ffffff;stroke-width:4;stroke-linecap:butt;stroke-linejoin:miter;stroke-miterlimit:4;stroke-dasharray:none;stroke-opacity:1"
         d="m 316.371,172.832 0,76.359 -75.859,-69.57 0,-75.699 75.859,68.91 z" /><path
         id="path40"
         style="fill:#087bbb;fill-opacity:1;fill-rule:nonzero;stroke:none"
         d="m 5.82031,198.609 234.691,0 0,76.8008 -234.691,0 0,-76.8008 z" /><path
         id="path42"
         style="fill:none;stroke:#ffffff;stroke-width:4;stroke-linecap:butt;stroke-linejoin:miter;stroke-miterlimit:4;stroke-dasharray:none;stroke-opacity:1"
         d="m 5.82031,198.602 234.691,0 0,76.8008 -234.691,0 0,-76.8008 z" /><path
         id="path44"
         style="fill:#087bbb;fill-opacity:1;fill-rule:nonzero;stroke:none"
         d="m 316.051,344.98 -75.539,-69.492 -234.96122,0 83.93752,69.492 226.5627,0" /><path
         id="path46"
         style="fill:none;stroke:#ffffff;stroke-width:4;stroke-linecap:butt;stroke-linejoin:miter;stroke-miterlimit:4;stroke-dasharray:none;stroke-opacity:1"
         d="m 316.051,344.973 -75.539,-69.489 -234.96122,0 83.93752,69.489 226.5627,0 z" /><path
         id="path48"
         style="fill:#087bbb;fill-opacity:1;fill-rule:nonzero;stroke:none"
         d="m 316.371,269.738 0,75.082 -75.859,-69.57 0,-75.699 75.859,70.187" /><path
         id="path50"
         style="fill:none;stroke:#ffffff;stroke-width:4;stroke-linecap:butt;stroke-linejoin:miter;stroke-miterlimit:4;stroke-dasharray:none;stroke-opacity:1"
         d="m 316.371,269.742 0,75.082 -75.859,-69.57 0,-75.699 75.859,70.187 z" /><path
         id="path52"
         style="fill:#000000;fill-opacity:1;fill-rule:nonzero;stroke:none"
         d="m 198.012,305.059 9.879,7.461 27.07,-8.75 -54.301,-11.719 9.141,8.937 -53.86,0 8.2,4.071 53.871,0" /><path
         id="path54"
         style="fill:#000000;fill-opacity:1;fill-rule:nonzero;stroke:none"
         d="m 171.48,325.211 -4.492,-4.762 -44.566,0 -8.942,-5.359 -26.9605,8.832 54.1795,11.637 -13.789,-10.348 44.57,0" /><path
         id="path56"
         style="fill:#000000;fill-opacity:1;fill-rule:nonzero;stroke:none"
         d="m 133.012,294.551 -6.332,-4.77 -44.5706,0 L 75,284.43 l -26.9492,8.832 54.1792,11.636 -13.7886,-10.347 44.5706,0" /><path
         id="path58"
         style="fill:#000000;fill-opacity:1;fill-rule:nonzero;stroke:none"
         d="m 240.66,332.949 9.93,7.422 27.031,-8.711 -54.262,-11.719 10.039,8.239 -53.828,0 7.27,4.769 53.82,0" /><path
         id="path60"
         style="fill:#ffffff;fill-opacity:1;fill-rule:nonzero;stroke:none"
         d="m 198.012,302.48 9.879,7.461 27.07,-8.75 -54.301,-11.722 9.141,8.953 -53.86,0 8.2,4.058 53.871,0" /><path
         id="path62"
         style="fill:#ffffff;fill-opacity:1;fill-rule:nonzero;stroke:none"
         d="m 171.48,322.629 -4.492,-4.758 -44.566,0 -8.942,-5.351 -26.9605,8.82 54.1795,11.609 -13.789,-10.32 44.57,0" /><path
         id="path64"
         style="fill:#ffffff;fill-opacity:1;fill-rule:nonzero;stroke:none"
         d="m 133.012,291.969 -6.332,-4.77 -44.5706,0 L 75,281.852 48.0508,290.68 102.23,302.32 88.4414,291.969 l 44.5706,0" /><path
         id="path66"
         style="fill:#ffffff;fill-opacity:1;fill-rule:nonzero;stroke:none"
         d="m 240.66,330.371 9.93,7.418 27.031,-8.711 -54.262,-11.758 10.039,8.282 -53.828,0 7.27,4.769 53.82,0" /><path
         id="path68"
         style="fill:#ffffff;fill-opacity:1;fill-rule:nonzero;stroke:none"
         d="m 131.211,189.859 0,51.95 8.828,0 -13.008,19.613 -13.011,-19.613 8.789,0 0,-51.95 8.402,0" /><path
         id="path70"
         style="fill:#ffffff;fill-opacity:1;fill-rule:nonzero;stroke:none"
         d="m 104.691,172.012 -36.7222,36.758 6.2109,6.21 -23.0508,4.692 4.6524,-23.094 6.25,6.25 36.7187,-36.758 5.941,5.942" /><path
         id="path72"
         style="fill:#ffffff;fill-opacity:1;fill-rule:nonzero;stroke:none"
         d="m 91.25,147.988 -51.9492,0 0,8.782 -19.6094,-13 19.6094,-13.008 0,8.828 51.9492,0 0,8.398" /><path
         id="path74"
         style="fill:#ffffff;fill-opacity:1;fill-rule:nonzero;stroke:none"
         d="m 98.75,121.461 -36.7187,-36.7618 -6.25,6.25 -4.6524,-23.0781 23.0508,4.6875 -6.2109,6.25 36.7222,36.7114 -5.941,5.941" /><path
         id="path76"
         style="fill:#ffffff;fill-opacity:1;fill-rule:nonzero;stroke:none"
         d="m 122.809,108.02 0,-51.9497 -8.789,0 13.011,-19.6094 13.008,19.6094 -8.828,0 0,51.9497 -8.402,0" /><path
         id="path78"
         style="fill:#ffffff;fill-opacity:1;fill-rule:nonzero;stroke:none"
         d="m 149.34,115.52 36.711,-36.7114 -6.211,-6.25 23.051,-4.6875 -4.653,23.0781 -6.25,-6.25 -36.718,36.7618 -5.93,-5.941" /><path
         id="path80"
         style="fill:#ffffff;fill-opacity:1;fill-rule:nonzero;stroke:none"
         d="m 162.77,139.59 51.96,0 0,-8.828 19.61,13.008 -19.61,13 0,-8.782 -51.96,0 0,-8.398" /><path
         id="path82"
         style="fill:#ffffff;fill-opacity:1;fill-rule:nonzero;stroke:none"
         d="m 155.27,166.07 36.718,36.758 6.25,-6.25 4.653,23.094 -23.051,-4.692 6.211,-6.21 -36.711,-36.758 5.93,-5.942" /><path
         id="path84"
         style="fill:#ffffff;fill-opacity:1;fill-rule:nonzero;stroke:none"
         d="m 149.648,112.129 c 17.153,12.031 21.332,35.66 9.301,52.851 -12.039,17.149 -35.668,21.329 -52.859,9.29 -17.1408,-11.989 -21.2892,-35.661 -9.2892,-52.809 12.0272,-17.191 35.6602,-21.332 52.8472,-9.332" /><path
         id="path86"
         style="fill:none;stroke:#000000;stroke-width:2.51999998;stroke-linecap:butt;stroke-linejoin:miter;stroke-miterlimit:4;stroke-dasharray:none;stroke-opacity:1"
         d="m 149.648,112.121 c 17.153,12.031 21.332,35.672 9.301,52.852 -12.039,17.148 -35.668,21.328 -52.859,9.3 -17.1408,-11.992 -21.2892,-35.66 -9.2892,-52.812 12.0272,-17.188 35.6602,-21.328 52.8472,-9.34 z" /><path
         id="path88"
         style="fill:none;stroke:#ffffff;stroke-width:9;stroke-linecap:butt;stroke-linejoin:miter;stroke-miterlimit:4;stroke-dasharray:none;stroke-opacity:1"
         d="m 304.922,175.762 c -3.75,-48.707 -18.203,-87.3479 -32.223,-86.2893 -14.027,1.0898 -22.39,41.4803 -18.597,90.2303 3.75,48.711 18.168,87.352 32.226,86.25 14.024,-1.09 22.344,-41.441 18.594,-90.191 z" /></g></g></svg>