<?xml version="1.0" encoding="UTF-8" standalone="no"?>
<svg
   xmlns:dc="http://purl.org/dc/elements/1.1/"
   xmlns:cc="http://creativecommons.org/ns#"
   xmlns:rdf="http://www.w3.org/1999/02/22-rdf-syntax-ns#"
   xmlns:svg="http://www.w3.org/2000/svg"
   xmlns="http://www.w3.org/2000/svg"
   viewBox="0 0 24.65 39.462502"
   height="39.462502"
   width="24.65"
   xml:space="preserve"
   version="1.1"
   id="svg2"><metadata
     id="metadata8"><rdf:RDF><cc:Work
         rdf:about=""><dc:format>image/svg+xml</dc:format><dc:type
           rdf:resource="http://purl.org/dc/dcmitype/StillImage" /></cc:Work></rdf:RDF></metadata><defs
     id="defs6" /><g
     transform="matrix(1.25,0,0,-1.25,0,39.4625)"
     id="g10"><g
       transform="scale(0.1,0.1)"
       id="g12"><path
         id="path14"
         style="fill:#087fbf;fill-opacity:1;fill-rule:nonzero;stroke:none"
         d="m 5.63672,5.63672 161.629,0 0,174.723 -161.629,0 0,-174.723 z" /><path
         id="path16"
         style="fill:none;stroke:#ffffff;stroke-width:4;stroke-linecap:butt;stroke-linejoin:miter;stroke-miterlimit:4;stroke-dasharray:none;stroke-opacity:1"
         d="m 5.63672,5.63672 161.629,0 0,174.723 -161.629,0 0,-174.723 z" /><path
         id="path18"
         style="fill:#087fbf;fill-opacity:1;fill-rule:nonzero;stroke:none"
         d="m 5.63672,180.652 161.629,0 0,105.656 -161.629,0 0,-105.656 z" /><path
         id="path20"
         style="fill:none;stroke:#ffffff;stroke-width:4;stroke-linecap:butt;stroke-linejoin:miter;stroke-miterlimit:4;stroke-dasharray:none;stroke-opacity:1"
         d="m 5.63672,180.652 161.629,0 0,105.656 -161.629,0 0,-105.656 z" /><path
         id="path22"
         style="fill:#087fbf;fill-opacity:1;fill-rule:nonzero;stroke:none"
         d="m 5.63672,287.488 30.88668,25.098 155.8396,0 -25.097,-25.098 -161.62928,0" /><path
         id="path24"
         style="fill:none;stroke:#ffffff;stroke-width:4;stroke-linecap:butt;stroke-linejoin:miter;stroke-miterlimit:4;stroke-dasharray:none;stroke-opacity:1"
         d="m 5.63672,287.488 30.88668,25.098 155.8396,0 -25.097,-25.098 -161.62928,0 z" /><path
         id="path26"
         style="fill:#087fbf;fill-opacity:1;fill-rule:nonzero;stroke:none"
         d="m 167.266,5.63672 25.097,30.88668 0,171.0816 -25.097,-25.808 0,-176.16028" /><path
         id="path28"
         style="fill:none;stroke:#ffffff;stroke-width:4;stroke-linecap:butt;stroke-linejoin:miter;stroke-miterlimit:4;stroke-dasharray:none;stroke-opacity:1"
         d="m 167.266,5.63672 25.097,30.88668 0,171.0816 -25.097,-25.808 0,-176.16028 z" /><path
         id="path30"
         style="fill:#087fbf;fill-opacity:1;fill-rule:nonzero;stroke:none"
         d="m 167.266,180.891 25.097,27.3 0,102.727 -25.097,-25.098 0,-104.929" /><path
         id="path32"
         style="fill:none;stroke:#ffffff;stroke-width:4;stroke-linecap:butt;stroke-linejoin:miter;stroke-miterlimit:4;stroke-dasharray:none;stroke-opacity:1"
         d="m 167.266,180.891 25.097,27.3 0,102.727 -25.097,-25.098 0,-104.929 z" /><path
         id="path34"
         style="fill:#087fbf;fill-opacity:1;fill-rule:nonzero;stroke:none"
         d="m 5.72266,27.5117 160.91034,0" /><path
         id="path36"
         style="fill:none;stroke:#ffffff;stroke-width:4;stroke-linecap:butt;stroke-linejoin:miter;stroke-miterlimit:4;stroke-dasharray:none;stroke-opacity:1"
         d="m 5.72266,27.5117 160.91034,0" /><path
         id="path38"
         style="fill:#087fbf;fill-opacity:1;fill-rule:nonzero;stroke:none"
         d="m 5.72266,181.223 160.91034,0" /><path
         id="path40"
         style="fill:none;stroke:#ffffff;stroke-width:4;stroke-linecap:butt;stroke-linejoin:miter;stroke-miterlimit:4;stroke-dasharray:none;stroke-opacity:1"
         d="m 5.72266,181.223 160.91034,0" /><path
         id="path42"
         style="fill:#ffffff;fill-opacity:1;fill-rule:nonzero;stroke:none"
         d="m 74.1992,87.1172 0,-23.125 -9.0429,0 18.0976,-23.1133 18.6011,23.1133 -9.0542,0 0,23.125 -18.6016,0" /><path
         id="path44"
         style="fill:#ffffff;fill-opacity:1;fill-rule:nonzero;stroke:none"
         d="m 74.1992,105.477 0,23.125 -9.0429,0 18.0976,23.125 18.6011,-23.125 -9.0542,0 0,-23.125 -18.6016,0" /><path
         id="path46"
         style="fill:#ffffff;fill-opacity:1;fill-rule:nonzero;stroke:none"
         d="m 27.0703,104.402 23.125,0 0,9.043 23.125,-18.1012 -23.125,-18.5977 0,9.0469 -23.125,0 0,18.609" /><path
         id="path48"
         style="fill:#ffffff;fill-opacity:1;fill-rule:nonzero;stroke:none"
         d="m 139.316,104.402 -23.132,0 0,9.043 -23.1293,-18.1012 23.1293,-18.5977 0,9.0469 23.132,0 0,18.609" /><path
         id="path50"
         style="fill:#087fbf;fill-opacity:1;fill-rule:nonzero;stroke:none"
         d="m 167.266,252.051 -161.62928,0" /><path
         id="path52"
         style="fill:none;stroke:#ffffff;stroke-width:4;stroke-linecap:butt;stroke-linejoin:miter;stroke-miterlimit:4;stroke-dasharray:none;stroke-opacity:1"
         d="m 167.266,252.051 -161.62928,0" /><path
         id="path54"
         style="fill:#087fbf;fill-opacity:1;fill-rule:nonzero;stroke:none"
         d="m 182.266,300.379 -161.6293,0" /><path
         id="path56"
         style="fill:none;stroke:#ffffff;stroke-width:4;stroke-linecap:butt;stroke-linejoin:miter;stroke-miterlimit:4;stroke-dasharray:none;stroke-opacity:1"
         d="m 182.266,300.379 -161.6293,0" /><path
         id="path58"
         style="fill:#087fbf;fill-opacity:1;fill-rule:nonzero;stroke:none"
         d="m 167.266,215.613 -161.62928,0" /><path
         id="path60"
         style="fill:none;stroke:#ffffff;stroke-width:4;stroke-linecap:butt;stroke-linejoin:miter;stroke-miterlimit:4;stroke-dasharray:none;stroke-opacity:1"
         d="m 167.266,215.613 -161.62928,0" /><path
         id="path62"
         style="fill:#087fbf;fill-opacity:1;fill-rule:nonzero;stroke:none"
         d="M 191.516,272.957 169.91,251.512" /><path
         id="path64"
         style="fill:none;stroke:#ffffff;stroke-width:4;stroke-linecap:butt;stroke-linejoin:miter;stroke-miterlimit:4;stroke-dasharray:none;stroke-opacity:1"
         d="M 191.516,272.957 169.91,251.512" /><path
         id="path66"
         style="fill:#087fbf;fill-opacity:1;fill-rule:nonzero;stroke:none"
         d="M 191.516,236.523 169.91,215.09" /><path
         id="path68"
         style="fill:none;stroke:#ffffff;stroke-width:4;stroke-linecap:butt;stroke-linejoin:miter;stroke-miterlimit:4;stroke-dasharray:none;stroke-opacity:1"
         d="M 191.516,236.523 169.91,215.09" /><path
         id="path70"
         style="fill:#087fbf;fill-opacity:1;fill-rule:nonzero;stroke:none"
         d="m 181.016,299.383 0,-101.317" /><path
         id="path72"
         style="fill:none;stroke:#ffffff;stroke-width:4;stroke-linecap:butt;stroke-linejoin:miter;stroke-miterlimit:4;stroke-dasharray:none;stroke-opacity:1"
         d="m 181.016,299.383 0,-101.317" /><path
         id="path74"
         style="fill:#087fbf;fill-opacity:1;fill-rule:nonzero;stroke:none"
         d="m 53.5156,285.438 0,-33.067" /><path
         id="path76"
         style="fill:none;stroke:#ffffff;stroke-width:4;stroke-linecap:butt;stroke-linejoin:miter;stroke-miterlimit:4;stroke-dasharray:none;stroke-opacity:1"
         d="m 53.5156,285.438 0,-33.067" /><path
         id="path78"
         style="fill:#087fbf;fill-opacity:1;fill-rule:nonzero;stroke:none"
         d="m 116.016,285.438 0,-33.067" /><path
         id="path80"
         style="fill:none;stroke:#ffffff;stroke-width:4;stroke-linecap:butt;stroke-linejoin:miter;stroke-miterlimit:4;stroke-dasharray:none;stroke-opacity:1"
         d="m 116.016,285.438 0,-33.067" /><path
         id="path82"
         style="fill:#087fbf;fill-opacity:1;fill-rule:nonzero;stroke:none"
         d="m 53.5156,213.816 0,-33.062" /><path
         id="path84"
         style="fill:none;stroke:#ffffff;stroke-width:4;stroke-linecap:butt;stroke-linejoin:miter;stroke-miterlimit:4;stroke-dasharray:none;stroke-opacity:1"
         d="m 53.5156,213.816 0,-33.062" /><path
         id="path86"
         style="fill:#087fbf;fill-opacity:1;fill-rule:nonzero;stroke:none"
         d="m 116.016,213.816 0,-33.062" /><path
         id="path88"
         style="fill:none;stroke:#ffffff;stroke-width:4;stroke-linecap:butt;stroke-linejoin:miter;stroke-miterlimit:4;stroke-dasharray:none;stroke-opacity:1"
         d="m 116.016,213.816 0,-33.062" /><path
         id="path90"
         style="fill:#087fbf;fill-opacity:1;fill-rule:nonzero;stroke:none"
         d="m 86.0156,250.438 0,-33.067" /><path
         id="path92"
         style="fill:none;stroke:#ffffff;stroke-width:4;stroke-linecap:butt;stroke-linejoin:miter;stroke-miterlimit:4;stroke-dasharray:none;stroke-opacity:1"
         d="m 86.0156,250.438 0,-33.067" /><path
         id="path94"
         style="fill:#087fbf;fill-opacity:1;fill-rule:nonzero;stroke:none"
         d="m 23.5156,250.438 0,-33.067" /><path
         id="path96"
         style="fill:none;stroke:#ffffff;stroke-width:4;stroke-linecap:butt;stroke-linejoin:miter;stroke-miterlimit:4;stroke-dasharray:none;stroke-opacity:1"
         d="m 23.5156,250.438 0,-33.067" /><path
         id="path98"
         style="fill:#087fbf;fill-opacity:1;fill-rule:nonzero;stroke:none"
         d="m 148.516,250.438 0,-33.067" /><path
         id="path100"
         style="fill:none;stroke:#ffffff;stroke-width:4;stroke-linecap:butt;stroke-linejoin:miter;stroke-miterlimit:4;stroke-dasharray:none;stroke-opacity:1"
         d="m 148.516,250.438 0,-33.067" /><path
         id="path102"
         style="fill:#087fbf;fill-opacity:1;fill-rule:nonzero;stroke:none"
         d="M 84.7344,312.938 53.5156,286.047" /><path
         id="path104"
         style="fill:none;stroke:#ffffff;stroke-width:4;stroke-linecap:butt;stroke-linejoin:miter;stroke-miterlimit:4;stroke-dasharray:none;stroke-opacity:1"
         d="M 84.7344,312.938 53.5156,286.047" /><path
         id="path106"
         style="fill:#087fbf;fill-opacity:1;fill-rule:nonzero;stroke:none"
         d="M 147.234,312.938 116.016,286.047" /><path
         id="path108"
         style="fill:none;stroke:#ffffff;stroke-width:4;stroke-linecap:butt;stroke-linejoin:miter;stroke-miterlimit:4;stroke-dasharray:none;stroke-opacity:1"
         d="M 147.234,312.938 116.016,286.047" /><path
         id="path110"
         style="fill:none;stroke:#ffffff;stroke-width:4;stroke-linecap:butt;stroke-linejoin:miter;stroke-miterlimit:4;stroke-dasharray:none;stroke-opacity:1"
         d="m 192.363,208.191 -25.879,-28.574 -160.90978,0" /><path
         id="path112"
         style="fill:#087fbf;fill-opacity:1;fill-rule:nonzero;stroke:none"
         d="M 192.363,54.8516 166.484,26.2773" /><path
         id="path114"
         style="fill:none;stroke:#ffffff;stroke-width:4;stroke-linecap:butt;stroke-linejoin:miter;stroke-miterlimit:4;stroke-dasharray:none;stroke-opacity:1"
         d="M 192.363,54.8516 166.484,26.2773" /></g></g></svg>