<?xml version="1.0" encoding="UTF-8" standalone="no"?>
<svg
   xmlns:dc="http://purl.org/dc/elements/1.1/"
   xmlns:cc="http://creativecommons.org/ns#"
   xmlns:rdf="http://www.w3.org/1999/02/22-rdf-syntax-ns#"
   xmlns:svg="http://www.w3.org/2000/svg"
   xmlns="http://www.w3.org/2000/svg"
   xmlns:sodipodi="http://sodipodi.sourceforge.net/DTD/sodipodi-0.dtd"
   xmlns:inkscape="http://www.inkscape.org/namespaces/inkscape"
   viewBox="0 0 55.047603 27.72179"
   height="27.72179"
   width="55.047604"
   xml:space="preserve"
   version="1.1"
   id="svg2"
   inkscape:version="0.91 r13725"
   sodipodi:docname="iosslb.svg"><sodipodi:namedview
     pagecolor="#ffffff"
     bordercolor="#666666"
     borderopacity="1"
     objecttolerance="10"
     gridtolerance="10"
     guidetolerance="10"
     inkscape:pageopacity="0"
     inkscape:pageshadow="2"
     inkscape:window-width="640"
     inkscape:window-height="480"
     id="namedview21"
     showgrid="false"
     inkscape:zoom="5.6312444"
     inkscape:cx="27.524974"
     inkscape:cy="13.862555"
     inkscape:window-x="0"
     inkscape:window-y="23"
     inkscape:window-maximized="0"
     inkscape:current-layer="svg2" /><metadata
     id="metadata8"><rdf:RDF><cc:Work
         rdf:about=""><dc:format>image/svg+xml</dc:format><dc:type
           rdf:resource="http://purl.org/dc/dcmitype/StillImage" /></cc:Work></rdf:RDF></metadata><defs
     id="defs6" /><g
     transform="matrix(1.25,0,0,-1.25,-2.5254077e-5,27.721735)"
     id="g10"><g
       transform="scale(0.1,0.1)"
       id="g12"><path
         id="path14"
         style="fill:#087bbb;fill-opacity:1;fill-rule:nonzero;stroke:none"
         d="m 6.48047,8.13672 321.48,0 0,104.352 -321.48,0 0,-104.352 z"
         inkscape:connector-curvature="0" /><path
         id="path16"
         style="fill:none;stroke:#ffffff;stroke-width:4;stroke-linecap:butt;stroke-linejoin:miter;stroke-miterlimit:4;stroke-dasharray:none;stroke-opacity:1"
         d="m 6.48047,8.13672 321.48,0 0,104.352 -321.48,0 0,-104.352 z"
         inkscape:connector-curvature="0" /><path
         id="path18"
         style="fill:#087bbb;fill-opacity:1;fill-rule:nonzero;stroke:none"
         d="m 5.64453,111.965 129.85947,105.242 299.965,0 -107.813,-105.242 -322.01147,0"
         inkscape:connector-curvature="0" /><path
         id="path20"
         style="fill:none;stroke:#ffffff;stroke-width:4;stroke-linecap:butt;stroke-linejoin:miter;stroke-miterlimit:4;stroke-dasharray:none;stroke-opacity:1"
         d="m 5.64453,111.965 129.85947,105.242 299.965,0 -107.813,-105.242 -322.01147,0 z"
         inkscape:connector-curvature="0" /><path
         id="path22"
         style="fill:#087bbb;fill-opacity:1;fill-rule:nonzero;stroke:none"
         d="m 327.781,4.83594 107.387,107.63706 0.066,104.55 -107.453,-104.914 0,-107.27306"
         inkscape:connector-curvature="0" /><path
         id="path24"
         style="fill:none;stroke:#ffffff;stroke-width:4;stroke-linecap:butt;stroke-linejoin:miter;stroke-miterlimit:4;stroke-dasharray:none;stroke-opacity:1"
         d="m 327.781,4.83594 107.387,107.63706 0.066,104.55 -107.453,-104.914 0,-107.27306 z"
         inkscape:connector-curvature="0" /><path
         id="path26"
         style="fill:#ffffff;fill-opacity:1;fill-rule:nonzero;stroke:none"
         d="m 194.082,139.348 -6.234,-5.118 -80.18,0 -7.9883,-8 -21.7461,9.473 43.7034,12.5 -7.735,-8.855 80.18,0"
         inkscape:connector-curvature="0" /><path
         id="path28"
         style="fill:#ffffff;fill-opacity:1;fill-rule:nonzero;stroke:none"
         d="m 257.078,178.723 -6.23,-5.118 -80.184,0 -7.988,-8 -21.738,9.473 43.695,12.5 -7.735,-8.855 80.18,0"
         inkscape:connector-curvature="0" /><path
         id="path30"
         style="fill:#ffffff;fill-opacity:1;fill-rule:nonzero;stroke:none"
         d="m 208.23,153.262 6.235,5.109 80.183,0 7.989,7.996 21.75,-9.48 -43.711,-12.481 7.73,8.856 -80.176,0"
         inkscape:connector-curvature="0" /><path
         id="path32"
         style="fill:#ffffff;fill-opacity:1;fill-rule:nonzero;stroke:none"
         d="m 249.852,192.637 6.234,5.109 80.184,0 7.996,7.996 21.742,-9.48 -43.711,-12.481 7.73,8.856 -80.175,0"
         inkscape:connector-curvature="0" /><path
         id="path34"
         style="fill:#ffffff;fill-opacity:1;fill-rule:nonzero;stroke:none"
         d="m 167.109,54.5508 57.864,0 0,-9.1485 21.832,13.4961 -21.832,13.5157 0,-9.1407 -57.864,0 0,-8.7226"
         inkscape:connector-curvature="0" /><path
         id="path36"
         style="fill:#ffffff;fill-opacity:1;fill-rule:nonzero;stroke:none"
         d="M 165.77,69.543 220.145,88 l 3.363,-8.6055 15.562,19.6602 -25.48,5.7113 3.363,-8.5941 -54.379,-18.4453 3.196,-8.1836"
         inkscape:connector-curvature="0" /><path
         id="path38"
         style="fill:#ffffff;fill-opacity:1;fill-rule:nonzero;stroke:none"
         d="m 165.77,48.6055 54.375,-18.4571 3.363,8.6016 15.562,-19.6562 -25.48,-5.7227 3.363,8.6016 -54.379,18.4492 3.196,8.1836"
         inkscape:connector-curvature="0" /><path
         id="path40"
         style="fill:#ffffff;fill-opacity:1;fill-rule:nonzero;stroke:none"
         d="m 77.3867,54.5508 55.7813,0 0,-9.1485 21.848,13.4961 -21.848,13.5157 0,-9.1407 -55.7813,0 0,-8.7226"
         inkscape:connector-curvature="0" /></g></g></svg>