<?xml version="1.0" encoding="UTF-8" standalone="no"?>
<svg
   xmlns:dc="http://purl.org/dc/elements/1.1/"
   xmlns:cc="http://creativecommons.org/ns#"
   xmlns:rdf="http://www.w3.org/1999/02/22-rdf-syntax-ns#"
   xmlns:svg="http://www.w3.org/2000/svg"
   xmlns="http://www.w3.org/2000/svg"
   viewBox="0 0 56.25 30"
   height="30"
   width="56.25"
   xml:space="preserve"
   version="1.1"
   id="svg2"><metadata
     id="metadata8"><rdf:RDF><cc:Work
         rdf:about=""><dc:format>image/svg+xml</dc:format><dc:type
           rdf:resource="http://purl.org/dc/dcmitype/StillImage" /></cc:Work></rdf:RDF></metadata><defs
     id="defs6" /><g
     transform="matrix(1.25,0,0,-1.25,0,30)"
     id="g10"><g
       transform="scale(0.1,0.1)"
       id="g12"><path
         id="path14"
         style="fill:#087bbb;fill-opacity:1;fill-rule:nonzero;stroke:none"
         d="m 6.48047,18.1406 321.48,0 0,104.34 -321.48,0 0,-104.34 z" /><path
         id="path16"
         style="fill:none;stroke:#ffffff;stroke-width:4;stroke-linecap:butt;stroke-linejoin:miter;stroke-miterlimit:4;stroke-dasharray:none;stroke-opacity:1"
         d="m 6.48047,18.1328 321.48,0 0,104.34 -321.48,0 0,-104.34 z" /><path
         id="path18"
         style="fill:#087bbb;fill-opacity:1;fill-rule:nonzero;stroke:none"
         d="m 5.62109,121.969 129.89091,105.23 299.957,0 -107.809,-105.23 -322.03891,0" /><path
         id="path20"
         style="fill:none;stroke:#ffffff;stroke-width:4;stroke-linecap:butt;stroke-linejoin:miter;stroke-miterlimit:4;stroke-dasharray:none;stroke-opacity:1"
         d="m 5.62109,121.973 129.89091,105.23 299.957,0 -107.809,-105.23 -322.03891,0 z" /><path
         id="path22"
         style="fill:#087bbb;fill-opacity:1;fill-rule:nonzero;stroke:none"
         d="m 327.77,14.8203 107.39,107.6597 0.07,104.532 -107.46,-104.883 0,-107.3087" /><path
         id="path24"
         style="fill:none;stroke:#ffffff;stroke-width:4;stroke-linecap:butt;stroke-linejoin:miter;stroke-miterlimit:4;stroke-dasharray:none;stroke-opacity:1"
         d="m 327.77,14.8242 107.39,107.6488 0.07,104.531 -107.46,-104.879 0,-107.3008 z" /><path
         id="path26"
         style="fill:#ffffff;fill-opacity:1;fill-rule:nonzero;stroke:none"
         d="m 194.059,149.352 -6.207,-5.114 -80.192,0 -7.9686,-8.008 -21.7617,9.489 43.7113,12.5 -7.731,-8.867 80.149,0" /><path
         id="path28"
         style="fill:#ffffff;fill-opacity:1;fill-rule:nonzero;stroke:none"
         d="m 257.07,188.73 -6.211,-5.121 -80.199,0 -7.961,-8.007 -21.758,9.488 43.707,12.5 -7.738,-8.86 80.16,0" /><path
         id="path30"
         style="fill:#ffffff;fill-opacity:1;fill-rule:nonzero;stroke:none"
         d="m 208.238,163.262 6.211,5.117 80.199,0 8.012,8 21.719,-9.488 -43.719,-12.5 7.738,8.871 -80.16,0" /><path
         id="path32"
         style="fill:#ffffff;fill-opacity:1;fill-rule:nonzero;stroke:none"
         d="m 249.84,202.629 6.25,5.121 80.199,0 7.973,8.012 21.758,-9.492 -43.719,-12.5 7.738,8.859 -80.199,0" /><path
         id="path34"
         style="fill:#ffffff;fill-opacity:1;fill-rule:nonzero;stroke:none"
         d="m 167.109,64.5508 57.852,0 0,-9.1406 21.84,13.4687 -21.84,13.5195 0,-9.1367 -57.852,0 0,-8.7109" /><path
         id="path36"
         style="fill:#ffffff;fill-opacity:1;fill-rule:nonzero;stroke:none"
         d="m 165.781,79.5508 54.379,18.4375 3.36,-8.5977 15.539,19.6484 -25.469,5.742 3.359,-8.59 -54.371,-18.4801 3.203,-8.1601" /><path
         id="path38"
         style="fill:#ffffff;fill-opacity:1;fill-rule:nonzero;stroke:none"
         d="m 165.781,58.6094 54.379,-18.4805 3.36,8.6406 15.539,-19.6914 -25.469,-5.6992 3.359,8.5899 -54.371,18.4414 3.203,8.1992" /><path
         id="path40"
         style="fill:#ffffff;fill-opacity:1;fill-rule:nonzero;stroke:none"
         d="m 77.3789,64.5508 55.7811,0 0,-9.1406 21.84,13.4687 -21.84,13.5195 0,-9.1367 -55.7811,0 0,-8.7109" /></g></g></svg>