<svg xmlns="http://www.w3.org/2000/svg" viewBox="0 0 38.75 43.75" height="43.75" width="38.75"><path d="M31.929 43.54l6.39-6.094V.571l-6.39 6.094V43.54" fill="#087fbf"/><path d="M31.929 43.54l6.39-6.094V.571l-6.39 6.094V43.54z" fill="none" stroke="#fff" stroke-width=".5"/><path d="M38.32.571l-6.391 6.094H.752L8.877.571H38.32" fill="#087fbf"/><path d="M38.32.571l-6.391 6.094H.752L8.877.571H38.32z" fill="none" stroke="#fff" stroke-width=".5"/><path d="M.83 43.54H31.93V6.665H.83V43.54z" fill="#087fbf"/><path d="M.83 43.54H31.93V6.665H.83V43.54z" fill="none" stroke="#fff" stroke-width=".5"/><path d="M17.011 12.021h1.139l-1.675-2.524-1.675 2.524h1.128v26.841h-1.143l1.68 2.524 1.675-2.524h-1.129v-26.84M8.35 12.021h1.143L7.817 9.497l-1.674 2.524H7.27v26.841H6.127l1.676 2.524 1.68-2.524H8.35v-26.84M25.284 12.021h1.142l-1.674-2.524-1.676 2.524h1.128v26.841H23.06l1.675 2.524 1.68-2.524h-1.132v-26.84" fill="#fff"/></svg>