<?xml version="1.0" encoding="UTF-8" standalone="no"?>
<svg
   xmlns:dc="http://purl.org/dc/elements/1.1/"
   xmlns:cc="http://creativecommons.org/ns#"
   xmlns:rdf="http://www.w3.org/1999/02/22-rdf-syntax-ns#"
   xmlns:svg="http://www.w3.org/2000/svg"
   xmlns="http://www.w3.org/2000/svg"
   viewBox="0 0 38.950001 44.137501"
   height="44.137501"
   width="38.950001"
   xml:space="preserve"
   version="1.1"
   id="svg2"><metadata
     id="metadata8"><rdf:RDF><cc:Work
         rdf:about=""><dc:format>image/svg+xml</dc:format><dc:type
           rdf:resource="http://purl.org/dc/dcmitype/StillImage" /></cc:Work></rdf:RDF></metadata><defs
     id="defs6"><clipPath
       id="clipPath18"
       clipPathUnits="userSpaceOnUse"><path
         id="path20"
         d="M 0,3 0,353 310,353 310,3 0,3 Z" /></clipPath></defs><g
     transform="matrix(1.25,0,0,-1.25,0,44.1375)"
     id="g10"><g
       transform="scale(0.1,0.1)"
       id="g12"><g
         id="g14"><g
           clip-path="url(#clipPath18)"
           id="g16"><path
             id="path22"
             style="fill:#087fbf;fill-opacity:1;fill-rule:nonzero;stroke:none"
             d="m 255.449,4.66797 51.133,48.75003 0,295 -51.133,-48.75 0,-295.00003" /><path
             id="path24"
             style="fill:none;stroke:#ffffff;stroke-width:4;stroke-linecap:butt;stroke-linejoin:miter;stroke-miterlimit:4;stroke-dasharray:none;stroke-opacity:1"
             d="m 255.449,4.66797 51.133,48.75003 0,295 -51.133,-48.75 0,-295.00003 z" /><path
             id="path26"
             style="fill:#087fbf;fill-opacity:1;fill-rule:nonzero;stroke:none"
             d="m 306.582,348.418 -51.133,-48.75 -249.449,0 65,48.75 235.582,0" /><path
             id="path28"
             style="fill:none;stroke:#ffffff;stroke-width:4;stroke-linecap:butt;stroke-linejoin:miter;stroke-miterlimit:4;stroke-dasharray:none;stroke-opacity:1"
             d="m 306.582,348.418 -51.133,-48.75 -249.449,0 65,48.75 235.582,0 z" /><path
             id="path30"
             style="fill:#087fbf;fill-opacity:1;fill-rule:nonzero;stroke:none"
             d="m 6.625,4.66797 248.824,0 0,295 -248.824,0 0,-295 z" /><path
             id="path32"
             style="fill:none;stroke:#ffffff;stroke-width:4;stroke-linecap:butt;stroke-linejoin:miter;stroke-miterlimit:4;stroke-dasharray:none;stroke-opacity:1"
             d="m 6.625,4.66797 248.824,0 0,295 -248.824,0 0,-295 z" /><path
             id="path34"
             style="fill:#ffffff;fill-opacity:1;fill-rule:nonzero;stroke:none"
             d="m 136.078,256.809 9.133,0 -13.41,20.222 -13.418,-20.222 9.043,0 0,-214.6918 -9.141,0 13.418,-20.2227 13.41,20.2227 -9.035,0 0,214.6918" /><path
             id="path36"
             style="fill:#ffffff;fill-opacity:1;fill-rule:nonzero;stroke:none"
             d="m 66.8125,256.809 9.1289,0 -13.4062,20.222 -13.4102,-20.222 9.043,0 0,-214.6918 -9.1407,0 13.4102,-20.2227 13.4063,20.2227 -9.0313,0 0,214.6918" /><path
             id="path38"
             style="fill:#ffffff;fill-opacity:1;fill-rule:nonzero;stroke:none"
             d="m 202.285,256.809 9.121,0 -13.398,20.222 -13.418,-20.222 9.043,0 0,-214.6918 -9.141,0 13.418,-20.2227 13.399,20.2227 -9.024,0 0,214.6918" /></g></g></g></g></svg>