<?xml version="1.0" encoding="UTF-8" standalone="no"?>
<svg
   xmlns:dc="http://purl.org/dc/elements/1.1/"
   xmlns:cc="http://creativecommons.org/ns#"
   xmlns:rdf="http://www.w3.org/1999/02/22-rdf-syntax-ns#"
   xmlns:svg="http://www.w3.org/2000/svg"
   xmlns="http://www.w3.org/2000/svg"
   viewBox="0 0 80.099998 44.1875"
   height="44.1875"
   width="80.099998"
   xml:space="preserve"
   version="1.1"
   id="svg2"><metadata
     id="metadata8"><rdf:RDF><cc:Work
         rdf:about=""><dc:format>image/svg+xml</dc:format><dc:type
           rdf:resource="http://purl.org/dc/dcmitype/StillImage" /></cc:Work></rdf:RDF></metadata><defs
     id="defs6" /><g
     transform="matrix(1.25,0,0,-1.25,0,44.1875)"
     id="g10"><g
       transform="scale(0.1,0.1)"
       id="g12"><path
         id="path14"
         style="fill:#087fbf;fill-opacity:1;fill-rule:nonzero;stroke:none"
         d="m 391.113,165.168 34.942,183.602 -266.422,0 -39.238,-183.602 270.718,0" /><path
         id="path16"
         style="fill:none;stroke:#ffffff;stroke-width:4;stroke-linecap:butt;stroke-linejoin:miter;stroke-miterlimit:4;stroke-dasharray:none;stroke-opacity:1"
         d="m 391.113,165.168 34.942,183.602 -266.422,0 -39.238,-183.602 270.718,0 z" /><path
         id="path18"
         style="fill:#087fbf;fill-opacity:1;fill-rule:nonzero;stroke:none"
         d="m 426.055,348.77 10.41,-13.477 -32.481,-178.086 -12.871,7.961 34.942,183.602" /><path
         id="path20"
         style="fill:none;stroke:#ffffff;stroke-width:4;stroke-linecap:butt;stroke-linejoin:miter;stroke-miterlimit:4;stroke-dasharray:none;stroke-opacity:1"
         d="m 426.055,348.77 10.41,-13.477 -32.481,-178.086 -12.871,7.961 34.942,183.602 z" /><path
         id="path22"
         style="fill:#087fbf;fill-opacity:1;fill-rule:nonzero;stroke:none"
         d="m 120.395,165.168 11.64,-7.961 271.949,0 -12.871,7.961 -270.718,0" /><path
         id="path24"
         style="fill:none;stroke:#ffffff;stroke-width:4;stroke-linecap:butt;stroke-linejoin:miter;stroke-miterlimit:4;stroke-dasharray:none;stroke-opacity:1"
         d="m 120.395,165.168 11.64,-7.961 271.949,0 -12.871,7.961 -270.718,0 z" /><path
         id="path26"
         style="fill:#087fbf;fill-opacity:1;fill-rule:nonzero;stroke:none"
         d="m 393.574,152.605 0,-27.246 -7.051,-6.132 c 0,0 -16.543,-4.891 -12.871,-14.684 l -73.789,-68.6172 0,30.0234 93.711,86.6558" /><path
         id="path28"
         style="fill:none;stroke:#ffffff;stroke-width:4;stroke-linecap:butt;stroke-linejoin:miter;stroke-miterlimit:4;stroke-dasharray:none;stroke-opacity:1"
         d="m 393.574,152.605 0,-27.246 -7.051,-6.132 c 0,0 -16.543,-4.891 -12.871,-14.684 l -73.789,-68.6172 0,30.0234 93.711,86.6558 z" /><path
         id="path30"
         style="fill:#087fbf;fill-opacity:1;fill-rule:nonzero;stroke:none"
         d="m 6.17578,35.9258 293.688,0 0,30.0234 -293.688,0 0,-30.0234 z" /><path
         id="path32"
         style="fill:none;stroke:#ffffff;stroke-width:4;stroke-linecap:butt;stroke-linejoin:miter;stroke-miterlimit:4;stroke-dasharray:none;stroke-opacity:1"
         d="m 6.17578,65.9492 0,-30.0234 293.68722,0 0,30.0234 -293.68722,0" /><path
         id="path34"
         style="fill:#087fbf;fill-opacity:1;fill-rule:nonzero;stroke:none"
         d="m 123.461,150.77 270.113,1.835 -93.711,-86.6558 -293.68722,0 L 123.461,150.77" /><path
         id="path36"
         style="fill:none;stroke:#ffffff;stroke-width:4;stroke-linecap:butt;stroke-linejoin:miter;stroke-miterlimit:4;stroke-dasharray:none;stroke-opacity:1"
         d="m 123.461,150.77 270.113,1.835 -93.711,-86.6558 -293.68722,0 L 123.461,150.77 Z" /><path
         id="path38"
         style="fill:#087fbf;fill-opacity:1;fill-rule:nonzero;stroke:none"
         d="m 368.516,183.055 27.89,143.789 -216.636,0 -27.891,-143.789 216.637,0" /><path
         id="path40"
         style="fill:none;stroke:#ffffff;stroke-width:4;stroke-linecap:butt;stroke-linejoin:miter;stroke-miterlimit:4;stroke-dasharray:none;stroke-opacity:1"
         d="m 368.516,183.055 27.89,143.789 -216.636,0 -27.891,-143.789 216.637,0 z" /><path
         id="path42"
         style="fill:none;stroke:#ffffff;stroke-width:1;stroke-linecap:butt;stroke-linejoin:round;stroke-miterlimit:4;stroke-dasharray:none;stroke-opacity:1"
         d="M 129.809,148.855 61.6836,93.8477" /><path
         id="path44"
         style="fill:none;stroke:#ffffff;stroke-width:1;stroke-linecap:butt;stroke-linejoin:round;stroke-miterlimit:4;stroke-dasharray:none;stroke-opacity:1"
         d="M 151.684,148.855 83.5586,93.8477" /><path
         id="path46"
         style="fill:none;stroke:#ffffff;stroke-width:1;stroke-linecap:butt;stroke-linejoin:round;stroke-miterlimit:4;stroke-dasharray:none;stroke-opacity:1"
         d="M 173.559,148.855 105.434,93.8477" /><path
         id="path48"
         style="fill:none;stroke:#ffffff;stroke-width:1;stroke-linecap:butt;stroke-linejoin:round;stroke-miterlimit:4;stroke-dasharray:none;stroke-opacity:1"
         d="M 195.434,148.855 127.309,93.8477" /><path
         id="path50"
         style="fill:none;stroke:#ffffff;stroke-width:1;stroke-linecap:butt;stroke-linejoin:round;stroke-miterlimit:4;stroke-dasharray:none;stroke-opacity:1"
         d="M 217.305,148.855 149.184,93.8477" /><path
         id="path52"
         style="fill:none;stroke:#ffffff;stroke-width:1;stroke-linecap:butt;stroke-linejoin:round;stroke-miterlimit:4;stroke-dasharray:none;stroke-opacity:1"
         d="M 239.18,148.855 171.059,93.8477" /><path
         id="path54"
         style="fill:none;stroke:#ffffff;stroke-width:1;stroke-linecap:butt;stroke-linejoin:round;stroke-miterlimit:4;stroke-dasharray:none;stroke-opacity:1"
         d="M 261.055,148.855 192.934,93.8477" /><path
         id="path56"
         style="fill:none;stroke:#ffffff;stroke-width:1;stroke-linecap:butt;stroke-linejoin:round;stroke-miterlimit:4;stroke-dasharray:none;stroke-opacity:1"
         d="M 282.93,148.855 214.805,93.8477" /><path
         id="path58"
         style="fill:none;stroke:#ffffff;stroke-width:1;stroke-linecap:butt;stroke-linejoin:round;stroke-miterlimit:4;stroke-dasharray:none;stroke-opacity:1"
         d="M 304.805,148.855 236.68,93.8477" /><path
         id="path60"
         style="fill:none;stroke:#ffffff;stroke-width:1;stroke-linecap:butt;stroke-linejoin:round;stroke-miterlimit:4;stroke-dasharray:none;stroke-opacity:1"
         d="M 326.68,148.855 258.555,93.8477" /><path
         id="path62"
         style="fill:none;stroke:#ffffff;stroke-width:1;stroke-linecap:butt;stroke-linejoin:round;stroke-miterlimit:4;stroke-dasharray:none;stroke-opacity:1"
         d="M 348.555,148.855 280.43,93.8477" /><path
         id="path64"
         style="fill:none;stroke:#ffffff;stroke-width:1;stroke-linecap:butt;stroke-linejoin:round;stroke-miterlimit:4;stroke-dasharray:none;stroke-opacity:1"
         d="M 370.43,148.855 302.305,93.8477" /><path
         id="path66"
         style="fill:none;stroke:#ffffff;stroke-width:1;stroke-linecap:butt;stroke-linejoin:round;stroke-miterlimit:4;stroke-dasharray:none;stroke-opacity:1"
         d="m 69.3008,99.6484 242.5152,0" /><path
         id="path68"
         style="fill:none;stroke:#ffffff;stroke-width:1;stroke-linecap:butt;stroke-linejoin:round;stroke-miterlimit:4;stroke-dasharray:none;stroke-opacity:1"
         d="m 85.6094,112.254 238.7656,0" /><path
         id="path70"
         style="fill:none;stroke:#ffffff;stroke-width:1;stroke-linecap:butt;stroke-linejoin:round;stroke-miterlimit:4;stroke-dasharray:none;stroke-opacity:1"
         d="m 102.523,124.852 238.141,0" /><path
         id="path72"
         style="fill:none;stroke:#ffffff;stroke-width:1;stroke-linecap:butt;stroke-linejoin:round;stroke-miterlimit:4;stroke-dasharray:none;stroke-opacity:1"
         d="m 117.582,137.469 240.016,0" /><path
         id="path74"
         style="fill:#ffffff;fill-opacity:1;fill-rule:nonzero;stroke:none"
         d="m 265.289,280.223 39.137,0 c 9.496,-2.887 8.539,-10.489 8.539,-10.489 0,-7.586 -6.641,-9.539 -6.641,-9.539 l -71.312,0 c -13.293,1.008 -8.489,12.391 -8.489,12.391 l 30.235,34.766 c 4.82,4.824 15.824,0 15.824,0 6.941,-6.93 3.856,-13.114 3.856,-13.114 l -11.149,-14.015" /><path
         id="path76"
         style="fill:#ffffff;fill-opacity:1;fill-rule:nonzero;stroke:none"
         d="m 293.375,225.301 -39.137,0 c -9.496,2.902 -8.535,10.492 -8.535,10.492 0,7.594 6.645,9.547 6.645,9.547 l 71.304,0 c 13.301,-1.004 8.496,-12.391 8.496,-12.391 L 301.91,198.172 c -4.832,-4.824 -15.824,0 -15.824,0 -6.949,6.957 -3.859,13.125 -3.859,13.125 l 11.148,14.004" /><path
         id="path78"
         style="fill:#231f20;fill-opacity:1;fill-rule:nonzero;stroke:none"
         d="m 375.156,41.8047 c 0,-6.1524 -4.968,-11.1211 -11.133,-11.1211 -6.132,0 -11.121,4.9687 -11.121,11.1211 0,6.1328 4.989,11.1172 11.121,11.1172 6.165,0 11.133,-4.9844 11.133,-11.1172" /><path
         id="path80"
         style="fill:none;stroke:#000000;stroke-width:4;stroke-linecap:butt;stroke-linejoin:round;stroke-miterlimit:4;stroke-dasharray:none;stroke-opacity:1"
         d="M 570.48,23.2695 C 536.563,11.5625 474.23,8.65234 423.418,17.1602 389.922,22.7461 368.984,32.043 364.043,41.8047" /><path
         id="path82"
         style="fill:none;stroke:#000000;stroke-width:10;stroke-linecap:butt;stroke-linejoin:round;stroke-miterlimit:4;stroke-dasharray:none;stroke-opacity:1"
         d="m 439.348,79.8906 c 7.527,17.9336 21.199,36.1134 40.3,51.8364 47.383,39.043 110.215,48.214 140.34,20.48 30.129,-27.727 16.164,-81.8476 -31.218,-120.8906 -4.493,-3.7109 -9.122,-7.1289 -13.848,-10.2812" /><path
         id="path84"
         style="fill:#231f20;fill-opacity:1;fill-rule:nonzero;stroke:none"
         d="m 594.121,21.0352 c 0,-10.6133 -8.594,-19.19145 -19.199,-19.19145 -10.598,0 -19.199,8.57815 -19.199,19.19145 0,10.6054 8.601,19.1992 19.199,19.1992 10.605,0 19.199,-8.5938 19.199,-19.1992" /><path
         id="path86"
         style="fill:none;stroke:#ffffff;stroke-width:4;stroke-linecap:butt;stroke-linejoin:miter;stroke-miterlimit:4;stroke-dasharray:none;stroke-opacity:1"
         d="m 594.121,21.0352 c 0,-10.6133 -8.594,-19.19145 -19.199,-19.19145 -10.598,0 -19.199,8.57815 -19.199,19.19145 0,10.6054 8.601,19.1992 19.199,19.1992 10.605,0 19.199,-8.5938 19.199,-19.1992 z" /><path
         id="path88"
         style="fill:#231f20;fill-opacity:1;fill-rule:nonzero;stroke:none"
         d="m 450.266,80.0078 c 0,-6.1406 -4.993,-11.1211 -11.125,-11.1211 -6.145,0 -11.114,4.9805 -11.114,11.1211 0,6.1328 4.969,11.1172 11.114,11.1172 6.132,0 11.125,-4.9844 11.125,-11.1172" /></g></g></svg>