<?xml version="1.0" encoding="UTF-8" standalone="no"?>
<svg
   xmlns:dc="http://purl.org/dc/elements/1.1/"
   xmlns:cc="http://creativecommons.org/ns#"
   xmlns:rdf="http://www.w3.org/1999/02/22-rdf-syntax-ns#"
   xmlns:svg="http://www.w3.org/2000/svg"
   xmlns="http://www.w3.org/2000/svg"
   viewBox="0 0 81.25 46.25"
   height="46.25"
   width="81.25"
   xml:space="preserve"
   version="1.1"
   id="svg2"><metadata
     id="metadata8"><rdf:RDF><cc:Work
         rdf:about=""><dc:format>image/svg+xml</dc:format><dc:type
           rdf:resource="http://purl.org/dc/dcmitype/StillImage" /></cc:Work></rdf:RDF></metadata><defs
     id="defs6" /><g
     transform="matrix(1.25,0,0,-1.25,0,46.25)"
     id="g10"><g
       transform="scale(0.1,0.1)"
       id="g12"><path
         id="path14"
         style="fill:#087fbf;fill-opacity:1;fill-rule:nonzero;stroke:none"
         d="m 391.129,175.309 34.922,183.632 -266.403,0 -39.257,-183.632 270.738,0" /><path
         id="path16"
         style="fill:none;stroke:#ffffff;stroke-width:4;stroke-linecap:butt;stroke-linejoin:miter;stroke-miterlimit:4;stroke-dasharray:none;stroke-opacity:1"
         d="m 391.129,175.305 34.922,183.633 -266.403,0 -39.257,-183.633 270.738,0 z" /><path
         id="path18"
         style="fill:#087fbf;fill-opacity:1;fill-rule:nonzero;stroke:none"
         d="m 426.051,358.941 10.429,-13.48 -32.5,-178.082 -12.851,7.93 34.922,183.632" /><path
         id="path20"
         style="fill:none;stroke:#ffffff;stroke-width:4;stroke-linecap:butt;stroke-linejoin:miter;stroke-miterlimit:4;stroke-dasharray:none;stroke-opacity:1"
         d="m 426.051,358.938 10.429,-13.473 -32.5,-178.09 -12.851,7.93 34.922,183.633 z" /><path
         id="path22"
         style="fill:#087fbf;fill-opacity:1;fill-rule:nonzero;stroke:none"
         d="m 120.391,175.309 11.64,-7.93 271.949,0 -12.851,7.93 -270.738,0" /><path
         id="path24"
         style="fill:none;stroke:#ffffff;stroke-width:4;stroke-linecap:butt;stroke-linejoin:miter;stroke-miterlimit:4;stroke-dasharray:none;stroke-opacity:1"
         d="m 120.391,175.305 11.64,-7.93 271.949,0 -12.851,7.93 -270.738,0 z" /><path
         id="path26"
         style="fill:#087fbf;fill-opacity:1;fill-rule:nonzero;stroke:none"
         d="m 393.59,162.77 0,-27.27 -7.07,-6.129 c 0,0 -16.52,-4.883 -12.848,-14.691 l -73.793,-68.5902 0,30 93.711,86.6802" /><path
         id="path28"
         style="fill:none;stroke:#ffffff;stroke-width:4;stroke-linecap:butt;stroke-linejoin:miter;stroke-miterlimit:4;stroke-dasharray:none;stroke-opacity:1"
         d="m 393.59,162.766 0,-27.258 -7.07,-6.141 c 0,0 -16.52,-4.883 -12.848,-14.679 l -73.793,-68.6021 0,30 93.711,86.6801 z" /><path
         id="path30"
         style="fill:#087fbf;fill-opacity:1;fill-rule:nonzero;stroke:none"
         d="m 6.17188,46.0898 293.707,0 0,30 -293.707,0 0,-30 z" /><path
         id="path32"
         style="fill:none;stroke:#ffffff;stroke-width:4;stroke-linecap:butt;stroke-linejoin:miter;stroke-miterlimit:4;stroke-dasharray:none;stroke-opacity:1"
         d="m 6.17188,46.0859 293.707,0 0,30 -293.707,0 0,-30 z" /><path
         id="path34"
         style="fill:#087fbf;fill-opacity:1;fill-rule:nonzero;stroke:none"
         d="m 123.48,160.93 270.11,1.84 -93.711,-86.6802 -293.70712,0 L 123.48,160.93" /><path
         id="path36"
         style="fill:none;stroke:#ffffff;stroke-width:4;stroke-linecap:butt;stroke-linejoin:miter;stroke-miterlimit:4;stroke-dasharray:none;stroke-opacity:1"
         d="m 123.48,160.938 270.11,1.828 -93.711,-86.6801 -293.70712,0 L 123.48,160.938 Z" /><path
         id="path38"
         style="fill:#087fbf;fill-opacity:1;fill-rule:nonzero;stroke:none"
         d="m 368.52,193.199 27.89,143.789 -216.64,0 -27.891,-143.789 216.641,0" /><path
         id="path40"
         style="fill:none;stroke:#ffffff;stroke-width:4;stroke-linecap:butt;stroke-linejoin:miter;stroke-miterlimit:4;stroke-dasharray:none;stroke-opacity:1"
         d="m 368.52,193.195 27.89,143.789 -216.64,0 -27.891,-143.789 216.641,0 z" /><path
         id="path42"
         style="fill:none;stroke:#ffffff;stroke-width:1;stroke-linecap:butt;stroke-linejoin:round;stroke-miterlimit:4;stroke-dasharray:none;stroke-opacity:1"
         d="m 129.801,159.016 -68.1213,-55" /><path
         id="path44"
         style="fill:none;stroke:#ffffff;stroke-width:1;stroke-linecap:butt;stroke-linejoin:round;stroke-miterlimit:4;stroke-dasharray:none;stroke-opacity:1"
         d="m 151.68,159.016 -68.1292,-55" /><path
         id="path46"
         style="fill:none;stroke:#ffffff;stroke-width:1;stroke-linecap:butt;stroke-linejoin:round;stroke-miterlimit:4;stroke-dasharray:none;stroke-opacity:1"
         d="m 173.551,159.016 -68.121,-55" /><path
         id="path48"
         style="fill:none;stroke:#ffffff;stroke-width:1;stroke-linecap:butt;stroke-linejoin:round;stroke-miterlimit:4;stroke-dasharray:none;stroke-opacity:1"
         d="m 195.43,159.016 -68.129,-55" /><path
         id="path50"
         style="fill:none;stroke:#ffffff;stroke-width:1;stroke-linecap:butt;stroke-linejoin:round;stroke-miterlimit:4;stroke-dasharray:none;stroke-opacity:1"
         d="m 217.301,159.016 -68.121,-55" /><path
         id="path52"
         style="fill:none;stroke:#ffffff;stroke-width:1;stroke-linecap:butt;stroke-linejoin:round;stroke-miterlimit:4;stroke-dasharray:none;stroke-opacity:1"
         d="m 239.18,159.016 -68.129,-55" /><path
         id="path54"
         style="fill:none;stroke:#ffffff;stroke-width:1;stroke-linecap:butt;stroke-linejoin:round;stroke-miterlimit:4;stroke-dasharray:none;stroke-opacity:1"
         d="m 261.051,159.016 -68.121,-55" /><path
         id="path56"
         style="fill:none;stroke:#ffffff;stroke-width:1;stroke-linecap:butt;stroke-linejoin:round;stroke-miterlimit:4;stroke-dasharray:none;stroke-opacity:1"
         d="m 282.93,159.016 -68.129,-55" /><path
         id="path58"
         style="fill:none;stroke:#ffffff;stroke-width:1;stroke-linecap:butt;stroke-linejoin:round;stroke-miterlimit:4;stroke-dasharray:none;stroke-opacity:1"
         d="m 304.801,159.016 -68.121,-55" /><path
         id="path60"
         style="fill:none;stroke:#ffffff;stroke-width:1;stroke-linecap:butt;stroke-linejoin:round;stroke-miterlimit:4;stroke-dasharray:none;stroke-opacity:1"
         d="m 326.68,159.016 -68.129,-55" /><path
         id="path62"
         style="fill:none;stroke:#ffffff;stroke-width:1;stroke-linecap:butt;stroke-linejoin:round;stroke-miterlimit:4;stroke-dasharray:none;stroke-opacity:1"
         d="m 348.551,159.016 -68.121,-55" /><path
         id="path64"
         style="fill:none;stroke:#ffffff;stroke-width:1;stroke-linecap:butt;stroke-linejoin:round;stroke-miterlimit:4;stroke-dasharray:none;stroke-opacity:1"
         d="m 370.43,159.016 -68.129,-55" /><path
         id="path66"
         style="fill:none;stroke:#ffffff;stroke-width:1;stroke-linecap:butt;stroke-linejoin:round;stroke-miterlimit:4;stroke-dasharray:none;stroke-opacity:1"
         d="m 69.3008,109.797 242.5392,0" /><path
         id="path68"
         style="fill:none;stroke:#ffffff;stroke-width:1;stroke-linecap:butt;stroke-linejoin:round;stroke-miterlimit:4;stroke-dasharray:none;stroke-opacity:1"
         d="m 85.6211,122.414 238.7579,0" /><path
         id="path70"
         style="fill:none;stroke:#ffffff;stroke-width:1;stroke-linecap:butt;stroke-linejoin:round;stroke-miterlimit:4;stroke-dasharray:none;stroke-opacity:1"
         d="m 102.539,134.996 238.121,0" /><path
         id="path72"
         style="fill:none;stroke:#ffffff;stroke-width:1;stroke-linecap:butt;stroke-linejoin:round;stroke-miterlimit:4;stroke-dasharray:none;stroke-opacity:1"
         d="m 117.578,147.617 240.043,0" /><path
         id="path74"
         style="fill:#ffffff;fill-opacity:1;fill-rule:nonzero;stroke:none"
         d="m 265.27,290.379 39.14,0 c 9.5,-2.891 8.559,-10.5 8.559,-10.5 0,-7.578 -6.641,-9.527 -6.641,-9.527 l -71.328,0 c -13.281,1.007 -8.48,12.378 -8.48,12.378 l 30.242,34.758 c 4.797,4.852 15.816,0 15.816,0 6.953,-6.91 3.871,-13.078 3.871,-13.078 L 265.27,290.379" /><path
         id="path76"
         style="fill:#ffffff;fill-opacity:1;fill-rule:nonzero;stroke:none"
         d="m 293.359,235.461 -39.097,0 c -9.532,2.891 -8.563,10.469 -8.563,10.469 0,7.621 6.641,9.57 6.641,9.57 l 71.332,0 c 13.277,-1.012 8.476,-12.379 8.476,-12.379 L 301.91,208.309 c -4.84,-4.797 -15.82,0 -15.82,0 -6.949,6.961 -3.86,13.132 -3.86,13.132 l 11.129,14.02" /><path
         id="path78"
         style="fill:#231f20;fill-opacity:1;fill-rule:nonzero;stroke:none"
         d="m 375.16,51.9492 c 0,-6.1406 -4.961,-11.0976 -11.14,-11.0976 -6.129,0 -11.129,4.957 -11.129,11.0976 0,6.1289 5,11.1289 11.129,11.1289 6.179,0 11.14,-5 11.14,-11.1289" /><path
         id="path80"
         style="fill:none;stroke:#000000;stroke-width:4;stroke-linecap:butt;stroke-linejoin:round;stroke-miterlimit:4;stroke-dasharray:none;stroke-opacity:1"
         d="M 570.469,33.4375 C 536.559,21.7148 474.219,18.8242 423.441,27.2969 389.922,32.8867 368.98,42.1875 364.059,51.9453" /><path
         id="path82"
         style="fill:none;stroke:#000000;stroke-width:10;stroke-linecap:butt;stroke-linejoin:round;stroke-miterlimit:4;stroke-dasharray:none;stroke-opacity:1"
         d="m 439.34,90.0352 c 7.539,17.9298 21.211,36.1288 40.308,51.8318 47.383,39.071 110.231,48.25 140.352,20.508 30.121,-27.73 16.172,-81.8672 -31.211,-120.8984 -4.488,-3.711 -9.141,-7.1524 -13.867,-10.2696" /><path
         id="path84"
         style="fill:#231f20;fill-opacity:1;fill-rule:nonzero;stroke:none"
         d="m 594.141,31.1992 c 0,-10.6211 -8.59,-19.2109 -19.219,-19.2109 -10.582,0 -19.184,8.5898 -19.184,19.2109 0,10.5899 8.602,19.1797 19.184,19.1797 10.629,0 19.219,-8.5898 19.219,-19.1797" /><path
         id="path86"
         style="fill:none;stroke:#ffffff;stroke-width:4;stroke-linecap:butt;stroke-linejoin:miter;stroke-miterlimit:4;stroke-dasharray:none;stroke-opacity:1"
         d="m 594.141,31.207 c 0,-10.6328 -8.59,-19.2226 -19.219,-19.2226 -10.582,0 -19.184,8.5898 -19.184,19.2226 0,10.5782 8.602,19.1797 19.184,19.1797 10.629,0 19.219,-8.6015 19.219,-19.1797 z" /><path
         id="path88"
         style="fill:#231f20;fill-opacity:1;fill-rule:nonzero;stroke:none"
         d="m 450.27,90.1484 c 0,-6.1289 -5,-11.0898 -11.129,-11.0898 -6.129,0 -11.09,4.9609 -11.09,11.0898 0,6.1329 4.961,11.1326 11.09,11.1326 6.129,0 11.129,-4.9997 11.129,-11.1326" /></g></g></svg>