<svg xmlns="http://www.w3.org/2000/svg" viewBox="0 0 42.5 40" height="40" width="42.5"><defs><clipPath id="a"><path d="M0 10v305h340V10H0z"/></clipPath></defs><g clip-path="url(#a)" transform="matrix(.13 0 0 -.13 0 40)"><path d="M335.551 255.699V153.75L243.91 69.57V171.56l91.641 84.14" fill="#087fbf"/><path d="M335.551 255.699V153.75L243.91 69.57V171.56l91.641 84.14z" fill="none" stroke="#fff" stroke-width="4"/><path d="M86.64 230.59H5.2l91.679 82.5h81.441l112.301-57.391h44.93l-91.641-84.14h-44.93" fill="#087fbf"/><path d="M86.64 230.59H5.2l91.679 82.5h81.441l112.301-57.391h44.93l-91.641-84.14h-44.93" fill="none" stroke="#fff" stroke-width="4"/><path d="M86.762 230.469l112.34-58.91h-.122 44.93V69.57h-44.93.122L86.762 12.54l-.121.19H5.199v218.008h81.442l.12-.269" fill="#087fbf"/><path d="M86.762 230.469l112.34-58.91h-.122 44.93V69.57h-44.93.122L86.762 12.54l-.121.19H5.199v218.008h81.442l.12-.269z" fill="none" stroke="#fff" stroke-width="4"/><path d="M181.602 254.922l-43.012 20" fill="#fff"/><path d="M181.602 254.922l-43.012 20" fill="none" stroke="#fff" stroke-width="4" stroke-linecap="round" stroke-linejoin="round"/><path d="M198.59 220.98l30.82 23.629-34.449-.738 3.629-22.891M148.711 250.98l30.82 23.629 5-23.238-35.82-.391M240.512 222.34l-37.852 18.64" fill="#fff"/><path d="M240.512 222.34l-37.852 18.64" fill="none" stroke="#fff" stroke-width="4" stroke-linecap="round" stroke-linejoin="round"/><path d="M194.691 250.859l21.36 15.903" fill="#fff"/><path d="M194.691 250.859l21.36 15.903" fill="none" stroke="#fff" stroke-width="4" stroke-linecap="round" stroke-linejoin="round"/><path d="M153.441 240.941l32.61-17.621-34.211-5.781 1.601 23.402M196.801 274.922l32.609-17.621-2.262 20.039-30.347-2.418M161.289 224.84l23.981 18.32" fill="#fff"/><path d="M161.289 224.84l23.981 18.32" fill="none" stroke="#fff" stroke-width="4" stroke-linecap="round" stroke-linejoin="round"/><path d="M151.52 79.691h-33.04L73.59 170.2H43.95" fill="none" stroke="#fff" stroke-width="14.25"/><path d="M41.64 79.8h31.95l44.461 90.079h34.609" fill="none" stroke="#fff" stroke-width="14.25"/><path d="M141.25 186.48v-31.992l19.262 15.352-19.262 16.64" fill="#fff"/><path d="M141.25 186.48v-31.992l19.262 15.352-19.262 16.64z" fill="none" stroke="#fff" stroke-width="1.9"/><path d="M141.25 96.371v-31.96l19.262 15.359L141.25 96.37" fill="#fff"/><path d="M141.25 96.371v-31.96l19.262 15.359L141.25 96.37z" fill="none" stroke="#fff" stroke-width="1.9"/><path d="M48.398 153.91v31.988l-19.257-15.386 19.257-16.602" fill="#fff"/><path d="M48.398 153.91v31.988l-19.257-15.386 19.257-16.602z" fill="none" stroke="#fff" stroke-width="1.9"/><path d="M48.398 63.36v31.949L29.141 79.96l19.257-16.602" fill="#fff"/><path d="M48.398 63.36v31.949L29.141 79.96l19.257-16.602z" fill="none" stroke="#fff" stroke-width="1.9"/></g></svg>