<?xml version="1.0" encoding="UTF-8" standalone="no"?>
<svg
   xmlns:dc="http://purl.org/dc/elements/1.1/"
   xmlns:cc="http://creativecommons.org/ns#"
   xmlns:rdf="http://www.w3.org/1999/02/22-rdf-syntax-ns#"
   xmlns:svg="http://www.w3.org/2000/svg"
   xmlns="http://www.w3.org/2000/svg"
   viewBox="0 0 42.5 40"
   height="40"
   width="42.5"
   xml:space="preserve"
   version="1.1"
   id="svg2"><metadata
     id="metadata8"><rdf:RDF><cc:Work
         rdf:about=""><dc:format>image/svg+xml</dc:format><dc:type
           rdf:resource="http://purl.org/dc/dcmitype/StillImage" /></cc:Work></rdf:RDF></metadata><defs
     id="defs6"><clipPath
       id="clipPath18"
       clipPathUnits="userSpaceOnUse"><path
         id="path20"
         d="M 0,10 0,315 340,315 340,10 0,10 Z" /></clipPath></defs><g
     transform="matrix(1.25,0,0,-1.25,0,40)"
     id="g10"><g
       transform="scale(0.1,0.1)"
       id="g12"><g
         id="g14"><g
           clip-path="url(#clipPath18)"
           id="g16"><path
             id="path22"
             style="fill:#087fbf;fill-opacity:1;fill-rule:nonzero;stroke:none"
             d="m 335.551,255.699 0,-101.949 -91.641,-84.1797 0,101.9887 91.641,84.14" /><path
             id="path24"
             style="fill:none;stroke:#ffffff;stroke-width:4;stroke-linecap:butt;stroke-linejoin:miter;stroke-miterlimit:4;stroke-dasharray:none;stroke-opacity:1"
             d="m 335.551,255.699 0,-101.949 -91.641,-84.1797 0,101.9887 91.641,84.14 z" /><path
             id="path26"
             style="fill:#087fbf;fill-opacity:1;fill-rule:nonzero;stroke:none"
             d="m 86.6406,230.59 -81.44138,0 91.67968,82.5 81.4411,0 112.301,-57.391 44.93,0 -91.641,-84.14 -44.93,0" /><path
             id="path28"
             style="fill:none;stroke:#ffffff;stroke-width:4;stroke-linecap:butt;stroke-linejoin:miter;stroke-miterlimit:4;stroke-dasharray:none;stroke-opacity:1"
             d="m 86.6406,230.59 -81.44138,0 91.67968,82.5 81.4411,0 112.301,-57.391 44.93,0 -91.641,-84.14 -44.93,0" /><path
             id="path30"
             style="fill:#087fbf;fill-opacity:1;fill-rule:nonzero;stroke:none"
             d="m 86.7617,230.469 112.3403,-58.91 -0.122,0 44.93,0 0,-101.9887 -44.93,0 0.122,0 -112.3403,-57.0312 -0.1211,0.1914 -81.44138,0 0,218.0075 81.44138,0 0.1211,-0.269" /><path
             id="path32"
             style="fill:none;stroke:#ffffff;stroke-width:4;stroke-linecap:butt;stroke-linejoin:miter;stroke-miterlimit:4;stroke-dasharray:none;stroke-opacity:1"
             d="m 86.7617,230.469 112.3403,-58.91 -0.122,0 44.93,0 0,-101.9887 -44.93,0 0.122,0 -112.3403,-57.0312 -0.1211,0.1914 -81.44138,0 0,218.0075 81.44138,0 0.1211,-0.269 z" /><path
             id="path34"
             style="fill:#ffffff;fill-opacity:1;fill-rule:nonzero;stroke:none"
             d="m 181.602,254.922 -43.012,20" /><path
             id="path36"
             style="fill:none;stroke:#ffffff;stroke-width:4;stroke-linecap:round;stroke-linejoin:round;stroke-miterlimit:4;stroke-dasharray:none;stroke-opacity:1"
             d="m 181.602,254.922 -43.012,20" /><path
             id="path38"
             style="fill:#ffffff;fill-opacity:1;fill-rule:nonzero;stroke:none"
             d="m 198.59,220.98 30.82,23.629 -34.449,-0.738 3.629,-22.891" /><path
             id="path40"
             style="fill:#ffffff;fill-opacity:1;fill-rule:nonzero;stroke:none"
             d="m 148.711,250.98 30.82,23.629 5,-23.238 -35.82,-0.391" /><path
             id="path42"
             style="fill:#ffffff;fill-opacity:1;fill-rule:nonzero;stroke:none"
             d="M 240.512,222.34 202.66,240.98" /><path
             id="path44"
             style="fill:none;stroke:#ffffff;stroke-width:4;stroke-linecap:round;stroke-linejoin:round;stroke-miterlimit:4;stroke-dasharray:none;stroke-opacity:1"
             d="M 240.512,222.34 202.66,240.98" /><path
             id="path46"
             style="fill:#ffffff;fill-opacity:1;fill-rule:nonzero;stroke:none"
             d="m 194.691,250.859 21.36,15.903" /><path
             id="path48"
             style="fill:none;stroke:#ffffff;stroke-width:4;stroke-linecap:round;stroke-linejoin:round;stroke-miterlimit:4;stroke-dasharray:none;stroke-opacity:1"
             d="m 194.691,250.859 21.36,15.903" /><path
             id="path50"
             style="fill:#ffffff;fill-opacity:1;fill-rule:nonzero;stroke:none"
             d="m 153.441,240.941 32.61,-17.621 -34.211,-5.781 1.601,23.402" /><path
             id="path52"
             style="fill:#ffffff;fill-opacity:1;fill-rule:nonzero;stroke:none"
             d="m 196.801,274.922 32.609,-17.621 -2.262,20.039 -30.347,-2.418" /><path
             id="path54"
             style="fill:#ffffff;fill-opacity:1;fill-rule:nonzero;stroke:none"
             d="m 161.289,224.84 23.981,18.32" /><path
             id="path56"
             style="fill:none;stroke:#ffffff;stroke-width:4;stroke-linecap:round;stroke-linejoin:round;stroke-miterlimit:4;stroke-dasharray:none;stroke-opacity:1"
             d="m 161.289,224.84 23.981,18.32" /><path
             id="path58"
             style="fill:none;stroke:#ffffff;stroke-width:14.25;stroke-linecap:butt;stroke-linejoin:miter;stroke-miterlimit:4;stroke-dasharray:none;stroke-opacity:1"
             d="m 151.52,79.6914 -33.04,0 -44.8902,90.5076 -29.6406,0" /><path
             id="path60"
             style="fill:none;stroke:#ffffff;stroke-width:14.25;stroke-linecap:butt;stroke-linejoin:miter;stroke-miterlimit:4;stroke-dasharray:none;stroke-opacity:1"
             d="m 41.6406,79.8008 31.9492,0 44.4612,90.0782 34.609,0" /><path
             id="path62"
             style="fill:#ffffff;fill-opacity:1;fill-rule:nonzero;stroke:none"
             d="m 141.25,186.48 0,-31.992 19.262,15.352 -19.262,16.64" /><path
             id="path64"
             style="fill:none;stroke:#ffffff;stroke-width:1.89999998;stroke-linecap:butt;stroke-linejoin:miter;stroke-miterlimit:4;stroke-dasharray:none;stroke-opacity:1"
             d="m 141.25,186.48 0,-31.992 19.262,15.352 -19.262,16.64 z" /><path
             id="path66"
             style="fill:#ffffff;fill-opacity:1;fill-rule:nonzero;stroke:none"
             d="m 141.25,96.3711 0,-31.9609 19.262,15.3593 -19.262,16.6016" /><path
             id="path68"
             style="fill:none;stroke:#ffffff;stroke-width:1.89999998;stroke-linecap:butt;stroke-linejoin:miter;stroke-miterlimit:4;stroke-dasharray:none;stroke-opacity:1"
             d="m 141.25,96.3711 0,-31.9609 19.262,15.3593 -19.262,16.6016 z" /><path
             id="path70"
             style="fill:#ffffff;fill-opacity:1;fill-rule:nonzero;stroke:none"
             d="m 48.3984,153.91 0,31.988 -19.2578,-15.386 19.2578,-16.602" /><path
             id="path72"
             style="fill:none;stroke:#ffffff;stroke-width:1.89999998;stroke-linecap:butt;stroke-linejoin:miter;stroke-miterlimit:4;stroke-dasharray:none;stroke-opacity:1"
             d="m 48.3984,153.91 0,31.988 -19.2578,-15.386 19.2578,-16.602 z" /><path
             id="path74"
             style="fill:#ffffff;fill-opacity:1;fill-rule:nonzero;stroke:none"
             d="m 48.3984,63.3594 0,31.9492 L 29.1406,79.9609 48.3984,63.3594" /><path
             id="path76"
             style="fill:none;stroke:#ffffff;stroke-width:1.89999998;stroke-linecap:butt;stroke-linejoin:miter;stroke-miterlimit:4;stroke-dasharray:none;stroke-opacity:1"
             d="m 48.3984,63.3594 0,31.9492 L 29.1406,79.9609 48.3984,63.3594 Z" /></g></g></g></g></svg>