<?xml version="1.0" encoding="UTF-8" standalone="no"?>
<svg
   xmlns:dc="http://purl.org/dc/elements/1.1/"
   xmlns:cc="http://creativecommons.org/ns#"
   xmlns:rdf="http://www.w3.org/1999/02/22-rdf-syntax-ns#"
   xmlns:svg="http://www.w3.org/2000/svg"
   xmlns="http://www.w3.org/2000/svg"
   viewBox="0 0 42.587502 38.137501"
   height="38.137501"
   width="42.587502"
   xml:space="preserve"
   version="1.1"
   id="svg2"><metadata
     id="metadata8"><rdf:RDF><cc:Work
         rdf:about=""><dc:format>image/svg+xml</dc:format><dc:type
           rdf:resource="http://purl.org/dc/dcmitype/StillImage" /></cc:Work></rdf:RDF></metadata><defs
     id="defs6"><clipPath
       id="clipPath18"
       clipPathUnits="userSpaceOnUse"><path
         id="path20"
         d="M 0,0 0,305 340,305 340,0 0,0 Z" /></clipPath></defs><g
     transform="matrix(1.25,0,0,-1.25,0,38.1375)"
     id="g10"><g
       transform="scale(0.1,0.1)"
       id="g12"><g
         id="g14"><g
           clip-path="url(#clipPath18)"
           id="g16"><path
             id="path22"
             style="fill:#087fbf;fill-opacity:1;fill-rule:nonzero;stroke:none"
             d="m 335.566,245.703 0,-101.953 -91.671,-84.1602 0,101.9532 91.671,84.16" /><path
             id="path24"
             style="fill:none;stroke:#ffffff;stroke-width:4;stroke-linecap:butt;stroke-linejoin:miter;stroke-miterlimit:4;stroke-dasharray:none;stroke-opacity:1"
             d="m 335.566,245.703 0,-101.953 -91.671,-84.1602 0,101.9532 91.671,84.16 z" /><path
             id="path26"
             style="fill:#087fbf;fill-opacity:1;fill-rule:nonzero;stroke:none"
             d="m 86.6523,220.605 -81.43746,0 91.66016,82.481 81.445,0 112.325,-57.383 44.921,0 -91.671,-84.16 -44.918,0" /><path
             id="path28"
             style="fill:none;stroke:#ffffff;stroke-width:4;stroke-linecap:butt;stroke-linejoin:miter;stroke-miterlimit:4;stroke-dasharray:none;stroke-opacity:1"
             d="m 86.6523,220.605 -81.43746,0 91.66016,82.481 81.445,0 112.325,-57.383 44.921,0 -91.671,-84.16 -44.918,0" /><path
             id="path30"
             style="fill:#087fbf;fill-opacity:1;fill-rule:nonzero;stroke:none"
             d="m 86.7773,220.488 112.3167,-58.945 -0.117,0 44.918,0 0,-101.9532 -44.918,0 0.117,0 -112.3167,-57.03121 -0.125,0.17579 -81.43746,0 0,217.98862 81.43746,0 0.125,-0.235" /><path
             id="path32"
             style="fill:none;stroke:#ffffff;stroke-width:4;stroke-linecap:butt;stroke-linejoin:miter;stroke-miterlimit:4;stroke-dasharray:none;stroke-opacity:1"
             d="m 86.7773,220.488 112.3167,-58.945 -0.117,0 44.918,0 0,-101.9532 -44.918,0 0.117,0 -112.3167,-57.03121 -0.125,0.17579 -81.43746,0 0,217.98862 81.43746,0 0.125,-0.235 z" /><path
             id="path34"
             style="fill:#ffffff;fill-opacity:1;fill-rule:nonzero;stroke:none"
             d="m 181.609,244.922 -42.996,20.012" /><path
             id="path36"
             style="fill:none;stroke:#ffffff;stroke-width:4;stroke-linecap:round;stroke-linejoin:round;stroke-miterlimit:4;stroke-dasharray:none;stroke-opacity:1"
             d="m 181.609,244.922 -42.996,20.012" /><path
             id="path38"
             style="fill:#ffffff;fill-opacity:1;fill-rule:nonzero;stroke:none"
             d="m 198.594,210.969 30.82,23.652 -34.453,-0.742 3.633,-22.91" /><path
             id="path40"
             style="fill:#ffffff;fill-opacity:1;fill-rule:nonzero;stroke:none"
             d="m 148.711,240.969 30.84,23.64 5,-23.25 -35.84,-0.39" /><path
             id="path42"
             style="fill:#ffffff;fill-opacity:1;fill-rule:nonzero;stroke:none"
             d="m 240.52,212.363 -37.844,18.633" /><path
             id="path44"
             style="fill:none;stroke:#ffffff;stroke-width:4;stroke-linecap:round;stroke-linejoin:round;stroke-miterlimit:4;stroke-dasharray:none;stroke-opacity:1"
             d="m 240.52,212.363 -37.844,18.633" /><path
             id="path46"
             style="fill:#ffffff;fill-opacity:1;fill-rule:nonzero;stroke:none"
             d="m 194.707,240.859 21.367,15.911" /><path
             id="path48"
             style="fill:none;stroke:#ffffff;stroke-width:4;stroke-linecap:round;stroke-linejoin:round;stroke-miterlimit:4;stroke-dasharray:none;stroke-opacity:1"
             d="m 194.707,240.859 21.367,15.911" /><path
             id="path50"
             style="fill:#ffffff;fill-opacity:1;fill-rule:nonzero;stroke:none"
             d="m 153.457,230.918 32.617,-17.586 -34.238,-5.812 1.621,23.398" /><path
             id="path52"
             style="fill:#ffffff;fill-opacity:1;fill-rule:nonzero;stroke:none"
             d="m 196.816,264.922 32.598,-17.598 -2.273,20.02 -30.325,-2.422" /><path
             id="path54"
             style="fill:#ffffff;fill-opacity:1;fill-rule:nonzero;stroke:none"
             d="m 161.309,214.836 23.964,18.32" /><path
             id="path56"
             style="fill:none;stroke:#ffffff;stroke-width:4;stroke-linecap:round;stroke-linejoin:round;stroke-miterlimit:4;stroke-dasharray:none;stroke-opacity:1"
             d="m 161.309,214.836 23.964,18.32" /><path
             id="path58"
             style="fill:none;stroke:#ffffff;stroke-width:14.25;stroke-linecap:butt;stroke-linejoin:miter;stroke-miterlimit:4;stroke-dasharray:none;stroke-opacity:1"
             d="m 151.523,69.668 -33.054,0 -44.8831,90.535 -29.6523,0" /><path
             id="path60"
             style="fill:none;stroke:#ffffff;stroke-width:14.25;stroke-linecap:butt;stroke-linejoin:miter;stroke-miterlimit:4;stroke-dasharray:none;stroke-opacity:1"
             d="m 41.6406,69.8047 31.9453,0 44.4611,90.0973 34.629,0" /><path
             id="path62"
             style="fill:#ffffff;fill-opacity:1;fill-rule:nonzero;stroke:none"
             d="m 141.25,176.477 0,-31.973 19.258,15.359 -19.258,16.614" /><path
             id="path64"
             style="fill:none;stroke:#ffffff;stroke-width:1.89999998;stroke-linecap:butt;stroke-linejoin:miter;stroke-miterlimit:4;stroke-dasharray:none;stroke-opacity:1"
             d="m 141.25,176.477 0,-31.973 19.258,15.359 -19.258,16.614 z" /><path
             id="path66"
             style="fill:#ffffff;fill-opacity:1;fill-rule:nonzero;stroke:none"
             d="m 141.25,86.3672 0,-31.9649 19.258,15.3555 -19.258,16.6094" /><path
             id="path68"
             style="fill:none;stroke:#ffffff;stroke-width:1.89999998;stroke-linecap:butt;stroke-linejoin:miter;stroke-miterlimit:4;stroke-dasharray:none;stroke-opacity:1"
             d="m 141.25,86.3672 0,-31.9649 19.258,15.3555 -19.258,16.6094 z" /><path
             id="path70"
             style="fill:#ffffff;fill-opacity:1;fill-rule:nonzero;stroke:none"
             d="m 48.3984,143.906 0,31.973 -19.2578,-15.359 19.2578,-16.614" /><path
             id="path72"
             style="fill:none;stroke:#ffffff;stroke-width:1.89999998;stroke-linecap:butt;stroke-linejoin:miter;stroke-miterlimit:4;stroke-dasharray:none;stroke-opacity:1"
             d="m 48.3984,143.906 0,31.973 -19.2578,-15.359 19.2578,-16.614 z" /><path
             id="path74"
             style="fill:#ffffff;fill-opacity:1;fill-rule:nonzero;stroke:none"
             d="m 48.3984,53.3516 0,31.9609 L 29.1406,69.9609 48.3984,53.3516" /><path
             id="path76"
             style="fill:none;stroke:#ffffff;stroke-width:1.89999998;stroke-linecap:butt;stroke-linejoin:miter;stroke-miterlimit:4;stroke-dasharray:none;stroke-opacity:1"
             d="m 48.3984,53.3516 0,31.9609 L 29.1406,69.9609 48.3984,53.3516 Z" /></g></g></g></g></svg>