<?xml version="1.0" encoding="UTF-8" standalone="no"?>
<svg
   xmlns:dc="http://purl.org/dc/elements/1.1/"
   xmlns:cc="http://creativecommons.org/ns#"
   xmlns:rdf="http://www.w3.org/1999/02/22-rdf-syntax-ns#"
   xmlns:svg="http://www.w3.org/2000/svg"
   xmlns="http://www.w3.org/2000/svg"
   viewBox="0 0 54.025002 29.65"
   height="29.65"
   width="54.025002"
   xml:space="preserve"
   version="1.1"
   id="svg2"><metadata
     id="metadata8"><rdf:RDF><cc:Work
         rdf:about=""><dc:format>image/svg+xml</dc:format><dc:type
           rdf:resource="http://purl.org/dc/dcmitype/StillImage" /></cc:Work></rdf:RDF></metadata><defs
     id="defs6"><clipPath
       id="clipPath18"
       clipPathUnits="userSpaceOnUse"><path
         id="path20"
         d="M 0,0 0,237 430,237 430,0 0,0 Z" /></clipPath></defs><g
     transform="matrix(1.25,0,0,-1.25,0,29.65)"
     id="g10"><g
       transform="scale(0.1,0.1)"
       id="g12"><g
         id="g14"><g
           clip-path="url(#clipPath18)"
           id="g16"><path
             id="path22"
             style="fill:#087fbf;fill-opacity:1;fill-rule:nonzero;stroke:none"
             d="m 206.27,215.313 -96.387,0 L 3.80859,61.6406 c 92.92971,0 92.92971,0.0977 93.55471,0 116.2887,-17.0508 143.9257,-9.2187 252.6167,0 l 78.653,126.1724 -27.52,0 18.125,27.5 -190,0 -20.625,-27.5 -23.593,0 21.25,27.5" /><path
             id="path24"
             style="fill:none;stroke:#ffffff;stroke-width:4;stroke-linecap:butt;stroke-linejoin:miter;stroke-miterlimit:4;stroke-dasharray:none;stroke-opacity:1"
             d="m 206.27,215.313 -96.387,0 L 3.80859,61.6406 c 92.92971,0 92.92971,0.0977 93.55471,0 116.2887,-17.0508 143.9257,-9.2187 252.6167,0 l 78.653,126.1724 -27.52,0 18.125,27.5 -190,0 -20.625,-27.5 -23.593,0 21.25,27.5 z" /><path
             id="path26"
             style="fill:#087fbf;fill-opacity:1;fill-rule:nonzero;stroke:none"
             d="m 205.43,69.7266 -67.754,0 37.754,49.8434 65.41,0 -35.41,-49.8434" /><path
             id="path28"
             style="fill:none;stroke:#ffffff;stroke-width:4;stroke-linecap:butt;stroke-linejoin:miter;stroke-miterlimit:4;stroke-dasharray:none;stroke-opacity:1"
             d="m 205.43,69.7266 -67.754,0 37.754,49.8434 65.41,0 -35.41,-49.8434 z" /><path
             id="path30"
             style="fill:#087fbf;fill-opacity:1;fill-rule:nonzero;stroke:none"
             d="m 428.633,187.813 0,-92.6567 -78.653,-83.3204 0,49.8047 78.653,126.1724" /><path
             id="path32"
             style="fill:none;stroke:#ffffff;stroke-width:4;stroke-linecap:butt;stroke-linejoin:miter;stroke-miterlimit:4;stroke-dasharray:none;stroke-opacity:1"
             d="m 428.633,187.813 0,-92.6567 -78.653,-83.3204 0,49.8047 78.653,126.1724 z" /><path
             id="path34"
             style="fill:#231f20;fill-opacity:1;fill-rule:nonzero;stroke:none"
             d="M 349.98,61.6406 428.633,187.813" /><path
             id="path36"
             style="fill:none;stroke:#ffffff;stroke-width:4;stroke-linecap:butt;stroke-linejoin:miter;stroke-miterlimit:4;stroke-dasharray:none;stroke-opacity:1"
             d="M 349.98,61.6406 428.633,187.813" /><path
             id="path38"
             style="fill:#087fbf;fill-opacity:1;fill-rule:nonzero;stroke:none"
             d="m 155.605,180.215 c -12.89,-14.824 -28.789,-32.11 -38.984,-48.887 L 117.48,120.449 85.6836,71.3086 81.9922,103.281 c 6.0547,24.199 81.1128,119.278 98.3988,130.508 l 3.691,-31.973 -27.656,-31.816 -0.821,10.215" /><path
             id="path40"
             style="fill:none;stroke:#ffffff;stroke-width:4;stroke-linecap:butt;stroke-linejoin:miter;stroke-miterlimit:4;stroke-dasharray:none;stroke-opacity:1"
             d="m 155.605,180.215 c -12.89,-14.824 -28.789,-32.11 -38.984,-48.887 L 117.48,120.449 85.6836,71.3086 81.9922,103.281 c 6.0547,24.199 81.1128,119.278 98.3988,130.508 l 3.691,-31.973 -27.656,-31.816 -0.821,10.215 z" /><path
             id="path42"
             style="fill:#087fbf;fill-opacity:1;fill-rule:nonzero;stroke:none"
             d="m 22.8125,103.281 -3.6914,-31.9724 66.5625,0 -3.6914,31.9724 -59.1797,0" /><path
             id="path44"
             style="fill:none;stroke:#ffffff;stroke-width:4;stroke-linecap:butt;stroke-linejoin:miter;stroke-miterlimit:4;stroke-dasharray:none;stroke-opacity:1"
             d="m 22.8125,103.281 -3.6914,-31.9724 66.5625,0 -3.6914,31.9724 -59.1797,0 z" /><path
             id="path46"
             style="fill:#087fbf;fill-opacity:1;fill-rule:nonzero;stroke:none"
             d="M 180.391,233.789 C 163.105,222.559 88.0469,127.48 81.9922,103.281 l -59.1797,0 c 6.0547,24.199 81.1135,119.278 98.3985,130.508 l 59.18,0" /><path
             id="path48"
             style="fill:none;stroke:#ffffff;stroke-width:4;stroke-linecap:butt;stroke-linejoin:miter;stroke-miterlimit:4;stroke-dasharray:none;stroke-opacity:1"
             d="M 180.391,233.789 C 163.105,222.559 88.0469,127.48 81.9922,103.281 l -59.1797,0 c 6.0547,24.199 81.1135,119.278 98.3985,130.508 l 59.18,0 z" /><path
             id="path50"
             style="fill:#ffffff;fill-opacity:1;fill-rule:nonzero;stroke:none"
             d="m 200.488,152.031 38.985,51.524 152.226,0 -34.98,-51.524 -156.231,0" /><path
             id="path52"
             style="fill:none;stroke:#ffffff;stroke-width:3.5;stroke-linecap:butt;stroke-linejoin:miter;stroke-miterlimit:4;stroke-dasharray:none;stroke-opacity:1"
             d="m 200.488,152.031 38.985,51.524 152.226,0 -34.98,-51.524 -156.231,0 z" /><path
             id="path54"
             style="fill:#087fbf;fill-opacity:1;fill-rule:nonzero;stroke:none"
             d="m 217.07,161.582 26.211,34.648 102.364,0 -23.536,-34.648 -105.039,0" /><path
             id="path56"
             style="fill:none;stroke:#ffffff;stroke-width:4;stroke-linecap:butt;stroke-linejoin:miter;stroke-miterlimit:4;stroke-dasharray:none;stroke-opacity:1"
             d="m 217.07,161.582 26.211,34.648 102.364,0 -23.536,-34.648 -105.039,0 z" /><path
             id="path58"
             style="fill:#087fbf;fill-opacity:1;fill-rule:nonzero;stroke:none"
             d="M 217.676,119.57 182.266,69.7266" /><path
             id="path60"
             style="fill:none;stroke:#ffffff;stroke-width:4;stroke-linecap:butt;stroke-linejoin:miter;stroke-miterlimit:4;stroke-dasharray:none;stroke-opacity:1"
             d="M 217.676,119.57 182.266,69.7266" /><path
             id="path62"
             style="fill:#087fbf;fill-opacity:1;fill-rule:nonzero;stroke:none"
             d="M 196.211,119.57 160.801,69.7266" /><path
             id="path64"
             style="fill:none;stroke:#ffffff;stroke-width:4;stroke-linecap:butt;stroke-linejoin:miter;stroke-miterlimit:4;stroke-dasharray:none;stroke-opacity:1"
             d="M 196.211,119.57 160.801,69.7266" /><path
             id="path66"
             style="fill:#087fbf;fill-opacity:1;fill-rule:nonzero;stroke:none"
             d="m 166.895,107.598 65.058,0" /><path
             id="path68"
             style="fill:none;stroke:#ffffff;stroke-width:4;stroke-linecap:butt;stroke-linejoin:miter;stroke-miterlimit:4;stroke-dasharray:none;stroke-opacity:1"
             d="m 166.895,107.598 65.058,0" /><path
             id="path70"
             style="fill:#087fbf;fill-opacity:1;fill-rule:nonzero;stroke:none"
             d="m 157.012,94.8828 66.367,0" /><path
             id="path72"
             style="fill:none;stroke:#ffffff;stroke-width:4;stroke-linecap:butt;stroke-linejoin:miter;stroke-miterlimit:4;stroke-dasharray:none;stroke-opacity:1"
             d="m 157.012,94.8828 66.367,0" /><path
             id="path74"
             style="fill:#087fbf;fill-opacity:1;fill-rule:nonzero;stroke:none"
             d="m 146.523,81.4063 67.286,0" /><path
             id="path76"
             style="fill:none;stroke:#ffffff;stroke-width:4;stroke-linecap:butt;stroke-linejoin:miter;stroke-miterlimit:4;stroke-dasharray:none;stroke-opacity:1"
             d="m 146.523,81.4063 67.286,0" /><path
             id="path78"
             style="fill:#087fbf;fill-opacity:1;fill-rule:nonzero;stroke:none"
             d="m 349.98,11.8359 c -108.691,-9.21871 -136.328,-17.05074 -252.6167,0 l -93.55471,0 0,49.8047 c 92.92971,0 92.92971,0.0977 93.55471,0 116.2887,-17.0508 143.9257,-9.2187 252.6167,0 l 0,-49.8047" /><path
             id="path80"
             style="fill:none;stroke:#ffffff;stroke-width:4;stroke-linecap:butt;stroke-linejoin:miter;stroke-miterlimit:4;stroke-dasharray:none;stroke-opacity:1"
             d="m 349.98,11.8359 c -108.691,-9.21871 -136.328,-17.05074 -252.6167,0 l -93.55471,0 0,49.8047 c 92.92971,0 92.92971,0.0977 93.55471,0 116.2887,-17.0508 143.9257,-9.2187 252.6167,0 l 0,-49.8047 z" /><path
             id="path82"
             style="fill:#087fbf;fill-opacity:1;fill-rule:nonzero;stroke:none"
             d="m 206.27,215.313 0,-27.5 -21.25,0 21.25,27.5" /><path
             id="path84"
             style="fill:none;stroke:#ffffff;stroke-width:4;stroke-linecap:butt;stroke-linejoin:miter;stroke-miterlimit:4;stroke-dasharray:none;stroke-opacity:1"
             d="m 206.27,215.313 0,-27.5 -21.25,0 21.25,27.5 z" /><path
             id="path86"
             style="fill:#231f20;fill-opacity:1;fill-rule:nonzero;stroke:none"
             d="m 419.238,215.313 0,-27.5 -18.125,0 18.125,27.5" /><path
             id="path88"
             style="fill:none;stroke:#ffffff;stroke-width:4;stroke-linecap:butt;stroke-linejoin:miter;stroke-miterlimit:4;stroke-dasharray:none;stroke-opacity:1"
             d="m 419.238,215.313 0,-27.5 -18.125,0 18.125,27.5 z" /><g
             transform="scale(10,10)"
             id="g90"><text
               id="text92"
               style="font-variant:normal;font-weight:bold;font-size:9px;font-family:Helvetica;-inkscape-font-specification:Helvetica-Bold;writing-mode:lr-tb;fill:#ffffff;fill-opacity:1;fill-rule:nonzero;stroke:none"
               transform="matrix(1,0,0,-1,26.1637,6.91016)"><tspan
                 id="tspan94"
                 y="0"
                 x="0 2.5020001">IP</tspan></text>
</g></g></g></g></g></svg>