<?xml version="1.0" encoding="UTF-8" standalone="no"?>
<svg
   xmlns:dc="http://purl.org/dc/elements/1.1/"
   xmlns:cc="http://creativecommons.org/ns#"
   xmlns:rdf="http://www.w3.org/1999/02/22-rdf-syntax-ns#"
   xmlns:svg="http://www.w3.org/2000/svg"
   xmlns="http://www.w3.org/2000/svg"
   viewBox="0 0 53.75 31.25"
   height="31.25"
   width="53.75"
   xml:space="preserve"
   version="1.1"
   id="svg2"><metadata
     id="metadata8"><rdf:RDF><cc:Work
         rdf:about=""><dc:format>image/svg+xml</dc:format><dc:type
           rdf:resource="http://purl.org/dc/dcmitype/StillImage" /></cc:Work></rdf:RDF></metadata><defs
     id="defs6"><clipPath
       id="clipPath18"
       clipPathUnits="userSpaceOnUse"><path
         id="path20"
         d="M 0,10 0,247 430,247 430,10 0,10 Z" /></clipPath></defs><g
     transform="matrix(1.25,0,0,-1.25,0,31.25)"
     id="g10"><g
       transform="scale(0.1,0.1)"
       id="g12"><g
         id="g14"><g
           clip-path="url(#clipPath18)"
           id="g16"><path
             id="path22"
             style="fill:#087fbf;fill-opacity:1;fill-rule:nonzero;stroke:none"
             d="m 206.289,225.32 -96.41,0 L 3.78906,71.6484 c 92.97264,0 92.97264,0.0821 93.58984,0 116.2501,-17.0703 143.9101,-9.2187 252.5821,0 l 78.668,126.1716 -27.539,0 18.129,27.5 -190,0 -20.629,-27.5 -23.551,0 21.25,27.5" /><path
             id="path24"
             style="fill:none;stroke:#ffffff;stroke-width:4;stroke-linecap:butt;stroke-linejoin:miter;stroke-miterlimit:4;stroke-dasharray:none;stroke-opacity:1"
             d="m 206.289,225.32 -96.41,0 L 3.78906,71.6484 c 92.97264,0 92.97264,0.0821 93.58984,0 116.2501,-17.0703 143.9101,-9.2187 252.5821,0 l 78.668,126.1716 -27.539,0 18.129,27.5 -190,0 -20.629,-27.5 -23.551,0 21.25,27.5 z" /><path
             id="path26"
             style="fill:#087fbf;fill-opacity:1;fill-rule:nonzero;stroke:none"
             d="m 205.43,79.7305 -67.731,0 37.731,49.8475 65.429,0 -35.429,-49.8475" /><path
             id="path28"
             style="fill:none;stroke:#ffffff;stroke-width:4;stroke-linecap:butt;stroke-linejoin:miter;stroke-miterlimit:4;stroke-dasharray:none;stroke-opacity:1"
             d="m 205.43,79.7305 -67.731,0 37.731,49.8475 65.429,0 -35.429,-49.8475 z" /><path
             id="path30"
             style="fill:#087fbf;fill-opacity:1;fill-rule:nonzero;stroke:none"
             d="m 428.629,197.82 0,-92.66 -78.668,-83.3202 0,49.8086 78.668,126.1716" /><path
             id="path32"
             style="fill:none;stroke:#ffffff;stroke-width:4;stroke-linecap:butt;stroke-linejoin:miter;stroke-miterlimit:4;stroke-dasharray:none;stroke-opacity:1"
             d="m 428.629,197.82 0,-92.66 -78.668,-83.3202 0,49.8086 78.668,126.1716 z" /><path
             id="path34"
             style="fill:#231f20;fill-opacity:1;fill-rule:nonzero;stroke:none"
             d="M 349.961,71.6484 428.629,197.82" /><path
             id="path36"
             style="fill:none;stroke:#ffffff;stroke-width:4;stroke-linecap:butt;stroke-linejoin:miter;stroke-miterlimit:4;stroke-dasharray:none;stroke-opacity:1"
             d="M 349.961,71.6484 428.629,197.82" /><path
             id="path38"
             style="fill:#087fbf;fill-opacity:1;fill-rule:nonzero;stroke:none"
             d="M 155.59,190.199 C 142.73,175.398 126.801,158.09 116.602,141.34 l 0.859,-10.899 -31.7618,-49.1402 -3.7109,31.9882 c 6.0625,24.18 81.1017,119.262 98.4027,130.512 l 3.668,-32 -27.61,-31.789 -0.859,10.187" /><path
             id="path40"
             style="fill:none;stroke:#ffffff;stroke-width:4;stroke-linecap:butt;stroke-linejoin:miter;stroke-miterlimit:4;stroke-dasharray:none;stroke-opacity:1"
             d="M 155.59,190.199 C 142.73,175.398 126.801,158.09 116.602,141.34 l 0.859,-10.899 -31.7618,-49.1402 -3.7109,31.9882 c 6.0625,24.18 81.1017,119.262 98.4027,130.512 l 3.668,-32 -27.61,-31.789 -0.859,10.187 z" /><path
             id="path42"
             style="fill:#087fbf;fill-opacity:1;fill-rule:nonzero;stroke:none"
             d="m 22.8086,113.289 -3.668,-31.9882 66.5586,0 -3.7109,31.9882 -59.1797,0" /><path
             id="path44"
             style="fill:none;stroke:#ffffff;stroke-width:4;stroke-linecap:butt;stroke-linejoin:miter;stroke-miterlimit:4;stroke-dasharray:none;stroke-opacity:1"
             d="m 22.8086,113.289 -3.668,-31.9882 66.5586,0 -3.7109,31.9882 -59.1797,0 z" /><path
             id="path46"
             style="fill:#087fbf;fill-opacity:1;fill-rule:nonzero;stroke:none"
             d="M 180.391,243.801 C 163.09,232.551 88.0508,137.469 81.9883,113.289 l -59.1797,0 c 6.0625,24.18 81.1404,119.262 98.4024,130.512 l 59.18,0" /><path
             id="path48"
             style="fill:none;stroke:#ffffff;stroke-width:4;stroke-linecap:butt;stroke-linejoin:miter;stroke-miterlimit:4;stroke-dasharray:none;stroke-opacity:1"
             d="M 180.391,243.801 C 163.09,232.551 88.0508,137.469 81.9883,113.289 l -59.1797,0 c 6.0625,24.18 81.1404,119.262 98.4024,130.512 l 59.18,0 z" /><path
             id="path50"
             style="fill:#ffffff;fill-opacity:1;fill-rule:nonzero;stroke:none"
             d="m 200.469,162.039 39.019,51.52 152.192,0 -34.961,-51.52 -156.25,0" /><path
             id="path52"
             style="fill:none;stroke:#ffffff;stroke-width:3.5;stroke-linecap:butt;stroke-linejoin:miter;stroke-miterlimit:4;stroke-dasharray:none;stroke-opacity:1"
             d="m 200.469,162.039 39.019,51.52 152.192,0 -34.961,-51.52 -156.25,0 z" /><path
             id="path54"
             style="fill:#087fbf;fill-opacity:1;fill-rule:nonzero;stroke:none"
             d="m 217.07,171.57 26.211,34.649 102.379,0 -23.551,-34.649 -105.039,0" /><path
             id="path56"
             style="fill:none;stroke:#ffffff;stroke-width:4;stroke-linecap:butt;stroke-linejoin:miter;stroke-miterlimit:4;stroke-dasharray:none;stroke-opacity:1"
             d="m 217.07,171.57 26.211,34.649 102.379,0 -23.551,-34.649 -105.039,0 z" /><path
             id="path58"
             style="fill:#087fbf;fill-opacity:1;fill-rule:nonzero;stroke:none"
             d="M 217.699,129.578 182.27,79.7305" /><path
             id="path60"
             style="fill:none;stroke:#ffffff;stroke-width:4;stroke-linecap:butt;stroke-linejoin:miter;stroke-miterlimit:4;stroke-dasharray:none;stroke-opacity:1"
             d="M 217.699,129.578 182.27,79.7305" /><path
             id="path62"
             style="fill:#087fbf;fill-opacity:1;fill-rule:nonzero;stroke:none"
             d="M 196.211,129.578 160.82,79.7305" /><path
             id="path64"
             style="fill:none;stroke:#ffffff;stroke-width:4;stroke-linecap:butt;stroke-linejoin:miter;stroke-miterlimit:4;stroke-dasharray:none;stroke-opacity:1"
             d="M 196.211,129.578 160.82,79.7305" /><path
             id="path66"
             style="fill:none;stroke:#ffffff;stroke-width:4;stroke-linecap:butt;stroke-linejoin:miter;stroke-miterlimit:4;stroke-dasharray:none;stroke-opacity:1"
             d="m 166.91,117.59 65.039,0" /><path
             id="path68"
             style="fill:none;stroke:#ffffff;stroke-width:4;stroke-linecap:butt;stroke-linejoin:miter;stroke-miterlimit:4;stroke-dasharray:none;stroke-opacity:1"
             d="m 157.031,104.891 66.367,0" /><path
             id="path70"
             style="fill:none;stroke:#ffffff;stroke-width:4;stroke-linecap:butt;stroke-linejoin:miter;stroke-miterlimit:4;stroke-dasharray:none;stroke-opacity:1"
             d="m 146.52,91.4102 67.308,0" /><path
             id="path72"
             style="fill:#087fbf;fill-opacity:1;fill-rule:nonzero;stroke:none"
             d="m 349.961,21.8398 c -108.672,-9.2187 -136.332,-17.07027 -252.5821,0 l -93.58984,0 0,49.8086 c 92.97264,0 92.97264,0.0821 93.58984,0 116.2501,-17.0703 143.9101,-9.2187 252.5821,0 l 0,-49.8086" /><path
             id="path74"
             style="fill:none;stroke:#ffffff;stroke-width:4;stroke-linecap:butt;stroke-linejoin:miter;stroke-miterlimit:4;stroke-dasharray:none;stroke-opacity:1"
             d="m 349.961,21.8398 c -108.672,-9.2187 -136.332,-17.07027 -252.5821,0 l -93.58984,0 0,49.8086 c 92.97264,0 92.97264,0.0821 93.58984,0 116.2501,-17.0703 143.9101,-9.2187 252.5821,0 l 0,-49.8086 z" /><path
             id="path76"
             style="fill:#087fbf;fill-opacity:1;fill-rule:nonzero;stroke:none"
             d="m 206.289,225.32 0,-27.5 -21.25,0 21.25,27.5" /><path
             id="path78"
             style="fill:none;stroke:#ffffff;stroke-width:4;stroke-linecap:butt;stroke-linejoin:miter;stroke-miterlimit:4;stroke-dasharray:none;stroke-opacity:1"
             d="m 206.289,225.32 0,-27.5 -21.25,0 21.25,27.5 z" /><path
             id="path80"
             style="fill:#231f20;fill-opacity:1;fill-rule:nonzero;stroke:none"
             d="m 419.219,225.32 0,-27.5 -18.129,0 18.129,27.5" /><path
             id="path82"
             style="fill:none;stroke:#ffffff;stroke-width:4;stroke-linecap:butt;stroke-linejoin:miter;stroke-miterlimit:4;stroke-dasharray:none;stroke-opacity:1"
             d="m 419.219,225.32 0,-27.5 -18.129,0 18.129,27.5 z" /><g
             transform="scale(10,10)"
             id="g84"><text
               id="text86"
               style="font-variant:normal;font-weight:bold;font-size:9px;font-family:Helvetica;-inkscape-font-specification:Helvetica-Bold;writing-mode:lr-tb;fill:#ffffff;fill-opacity:1;fill-rule:nonzero;stroke:none"
               transform="matrix(1,0,0,-1,26.1637,7.91016)"><tspan
                 id="tspan88"
                 y="0"
                 x="0 2.5020001">IP</tspan></text>
</g></g></g></g></g></svg>