<?xml version="1.0" encoding="UTF-8" standalone="no"?>
<svg
   xmlns:dc="http://purl.org/dc/elements/1.1/"
   xmlns:cc="http://creativecommons.org/ns#"
   xmlns:rdf="http://www.w3.org/1999/02/22-rdf-syntax-ns#"
   xmlns:svg="http://www.w3.org/2000/svg"
   xmlns="http://www.w3.org/2000/svg"
   xmlns:sodipodi="http://sodipodi.sourceforge.net/DTD/sodipodi-0.dtd"
   xmlns:inkscape="http://www.inkscape.org/namespaces/inkscape"
   viewBox="0 0 60.992656 34.37701"
   height="34.37701"
   width="60.992657"
   xml:space="preserve"
   version="1.1"
   id="svg2"
   inkscape:version="0.91 r13725"
   sodipodi:docname="iptc.svg"><sodipodi:namedview
     pagecolor="#ffffff"
     bordercolor="#666666"
     borderopacity="1"
     objecttolerance="10"
     gridtolerance="10"
     guidetolerance="10"
     inkscape:pageopacity="0"
     inkscape:pageshadow="2"
     inkscape:window-width="448"
     inkscape:window-height="438"
     id="namedview23"
     showgrid="false"
     inkscape:zoom="5.0830089"
     inkscape:cx="30.493451"
     inkscape:cy="17.18735"
     inkscape:window-x="0"
     inkscape:window-y="23"
     inkscape:window-maximized="0"
     inkscape:current-layer="svg2" /><metadata
     id="metadata8"><rdf:RDF><cc:Work
         rdf:about=""><dc:format>image/svg+xml</dc:format><dc:type
           rdf:resource="http://purl.org/dc/dcmitype/StillImage" /></cc:Work></rdf:RDF></metadata><defs
     id="defs6" /><g
     transform="matrix(1.25,0,0,-1.25,-2.9829766e-4,34.377163)"
     id="g10"><g
       transform="scale(0.1,0.1)"
       id="g12"><path
         id="path14"
         style="fill:#087fbf;fill-opacity:1;fill-rule:nonzero;stroke:none"
         d="m 5.65625,153.809 144.28475,116.679 333.094,0 -119.414,-116.679 -357.96475,0"
         inkscape:connector-curvature="0" /><path
         id="path16"
         style="fill:none;stroke:#ffffff;stroke-width:4;stroke-linecap:butt;stroke-linejoin:miter;stroke-miterlimit:4;stroke-dasharray:none;stroke-opacity:1"
         d="m 5.65625,153.809 144.28475,116.679 333.094,0 -119.414,-116.679 -357.96475,0 z"
         inkscape:connector-curvature="0" /><path
         id="path18"
         style="fill:#087fbf;fill-opacity:1;fill-rule:nonzero;stroke:none"
         d="m 363.621,4.89453 119.414,121.67947 0,143.699 -119.414,-116.464 0,-148.91447"
         inkscape:connector-curvature="0" /><path
         id="path20"
         style="fill:none;stroke:#ffffff;stroke-width:4;stroke-linecap:butt;stroke-linejoin:miter;stroke-miterlimit:4;stroke-dasharray:none;stroke-opacity:1"
         d="m 363.621,4.89453 119.414,121.67947 0,143.699 -119.414,-116.464 0,-148.91447 z"
         inkscape:connector-curvature="0" /><path
         id="path22"
         style="fill:#087fbf;fill-opacity:1;fill-rule:nonzero;stroke:none"
         d="m 6.14453,4.78516 357.477,0 0,149.023 -357.477,0 0,-149.023 z"
         inkscape:connector-curvature="0" /><path
         id="path24"
         style="fill:none;stroke:#ffffff;stroke-width:4;stroke-linecap:butt;stroke-linejoin:miter;stroke-miterlimit:4;stroke-dasharray:none;stroke-opacity:1"
         d="m 6.14453,4.78516 357.477,0 0,149.023 -357.477,0 0,-149.023 z"
         inkscape:connector-curvature="0" /><path
         id="path26"
         style="fill:#ffffff;fill-opacity:1;fill-rule:nonzero;stroke:none"
         d="m 66.9336,98.332 54.0898,0 0,28.1523 -54.0898,0 0,-28.1523 z"
         inkscape:connector-curvature="0" /><path
         id="path28"
         style="fill:#ffffff;fill-opacity:1;fill-rule:nonzero;stroke:none"
         d="m 244.641,98.332 54.082,0 0,28.1523 -54.082,0 0,-28.1523 z"
         inkscape:connector-curvature="0" /><path
         id="path30"
         style="fill:#ffffff;fill-opacity:1;fill-rule:nonzero;stroke:none"
         d="m 66.9336,27.9609 54.0898,0 0,28.1445 -54.0898,0 0,-28.1445 z"
         inkscape:connector-curvature="0" /><path
         id="path32"
         style="fill:#ffffff;fill-opacity:1;fill-rule:nonzero;stroke:none"
         d="m 244.641,27.9609 54.082,0 0,28.1445 -54.082,0 0,-28.1445 z"
         inkscape:connector-curvature="0" /><path
         id="path34"
         style="fill:none;stroke:#ffffff;stroke-width:4;stroke-linecap:butt;stroke-linejoin:miter;stroke-miterlimit:4;stroke-dasharray:none;stroke-opacity:1"
         d="m 103.645,112.414 166.113,0"
         inkscape:connector-curvature="0" /><path
         id="path36"
         style="fill:none;stroke:#ffffff;stroke-width:4;stroke-linecap:butt;stroke-linejoin:miter;stroke-miterlimit:4;stroke-dasharray:none;stroke-opacity:1"
         d="m 103.645,42.4141 166.113,0"
         inkscape:connector-curvature="0" /><path
         id="path38"
         style="fill:none;stroke:#ffffff;stroke-width:4;stroke-linecap:butt;stroke-linejoin:miter;stroke-miterlimit:4;stroke-dasharray:none;stroke-opacity:1"
         d="M 93.9922,42.043 269.758,112.414"
         inkscape:connector-curvature="0" /><path
         id="path40"
         style="fill:none;stroke:#ffffff;stroke-width:4;stroke-linecap:butt;stroke-linejoin:miter;stroke-miterlimit:4;stroke-dasharray:none;stroke-opacity:1"
         d="M 93.9922,112.414 269.758,42.043"
         inkscape:connector-curvature="0" /><path
         id="path42"
         style="fill:#ffffff;fill-opacity:1;fill-rule:nonzero;stroke:none"
         d="m 210.461,247.746 74.297,7.254 -14.297,-23.75 -18.984,3.664 -111.196,-41.992 -19.898,5.469 108.887,41.414 -18.809,7.941"
         inkscape:connector-curvature="0" /><path
         id="path44"
         style="fill:#ffffff;fill-opacity:1;fill-rule:nonzero;stroke:none"
         d="m 296.477,221.406 74.293,7.258 -14.293,-23.75 -19.004,3.672 -111.196,-42.004 -19.882,5.469 108.871,41.418 -18.789,7.937"
         inkscape:connector-curvature="0" /></g></g></svg>