<?xml version="1.0" encoding="UTF-8" standalone="no"?>
<svg
   xmlns:dc="http://purl.org/dc/elements/1.1/"
   xmlns:cc="http://creativecommons.org/ns#"
   xmlns:rdf="http://www.w3.org/1999/02/22-rdf-syntax-ns#"
   xmlns:svg="http://www.w3.org/2000/svg"
   xmlns="http://www.w3.org/2000/svg"
   viewBox="0 0 46.25 42.5"
   height="42.5"
   width="46.25"
   xml:space="preserve"
   version="1.1"
   id="svg2"><metadata
     id="metadata8"><rdf:RDF><cc:Work
         rdf:about=""><dc:format>image/svg+xml</dc:format><dc:type
           rdf:resource="http://purl.org/dc/dcmitype/StillImage" /></cc:Work></rdf:RDF></metadata><defs
     id="defs6"><clipPath
       id="clipPath18"
       clipPathUnits="userSpaceOnUse"><path
         id="path20"
         d="M 0,10 0,337 370,337 370,10 0,10 Z" /></clipPath></defs><g
     transform="matrix(1.25,0,0,-1.25,0,42.5)"
     id="g10"><g
       transform="scale(0.1,0.1)"
       id="g12"><g
         id="g14"><g
           clip-path="url(#clipPath18)"
           id="g16"><path
             id="path22"
             style="fill:#087fbf;fill-opacity:1;fill-rule:nonzero;stroke:none"
             d="m 369.84,263.285 c 0,-39.531 -82.34,-71.519 -183.899,-71.519 -101.6012,0 -183.95272,31.988 -183.95272,71.519 l 0,-179.7616 c 0,-39.4882 82.35152,-71.5195 183.95272,-71.5195 101.559,0 183.899,32.0313 183.899,71.5195 l 0,179.7616" /><path
             id="path24"
             style="fill:none;stroke:#ffffff;stroke-width:4;stroke-linecap:butt;stroke-linejoin:miter;stroke-miterlimit:4;stroke-dasharray:none;stroke-opacity:1"
             d="m 369.84,263.285 c 0,-39.531 -82.34,-71.519 -183.899,-71.519 -101.6012,0 -183.95272,31.988 -183.95272,71.519 l 0,-179.7616 c 0,-39.4882 82.35152,-71.5195 183.95272,-71.5195 101.559,0 183.899,32.0313 183.899,71.5195 l 0,179.7616 z" /><path
             id="path26"
             style="fill:#087fbf;fill-opacity:1;fill-rule:nonzero;stroke:none"
             d="m 185.941,191.766 c 101.559,0 183.899,31.988 183.899,71.519 0,39.5 -82.34,71.531 -183.899,71.531 -101.6012,0 -183.95272,-32.031 -183.95272,-71.531 0,-39.531 82.35152,-71.519 183.95272,-71.519" /><path
             id="path28"
             style="fill:none;stroke:#ffffff;stroke-width:4;stroke-linecap:butt;stroke-linejoin:miter;stroke-miterlimit:4;stroke-dasharray:none;stroke-opacity:1"
             d="m 185.941,191.766 c 101.559,0 183.899,31.988 183.899,71.519 0,39.5 -82.34,71.531 -183.899,71.531 -101.6012,0 -183.95272,-32.031 -183.95272,-71.531 0,-39.531 82.35152,-71.519 183.95272,-71.519 z" /><path
             id="path30"
             style="fill:#ffffff;fill-opacity:1;fill-rule:nonzero;stroke:none"
             d="m 143.91,291.254 15.192,-22.77 -57.422,-13.281 12.539,10.434 -88.7502,15.187 22.2617,16.68 85.6675,-14.488 10.512,8.238" /><path
             id="path32"
             style="fill:#ffffff;fill-opacity:1;fill-rule:nonzero;stroke:none"
             d="m 224.73,236.023 -10.351,23.481 51.793,10.351 -8.981,-8.05 86.329,-14.77 -20.75,-16.558 -85.782,16.128 -12.258,-10.582" /><path
             id="path34"
             style="fill:#ffffff;fill-opacity:1;fill-rule:nonzero;stroke:none"
             d="m 196.41,303.684 58,15.89 0.711,-24.879 -14.531,2.77 -28.289,-23.469 -27.031,3.938 29.218,22.972 -18.078,2.778" /><path
             id="path36"
             style="fill:#ffffff;fill-opacity:1;fill-rule:nonzero;stroke:none"
             d="m 171.52,214.574 -55.231,-10.347 -2.07,25.589 15.902,-3.48 30.391,25.98 26.91,-4.57 -32.461,-28.32 16.559,-4.852" /><path
             id="path38"
             style="fill:#ffffff;fill-opacity:1;fill-rule:nonzero;stroke:none"
             d="m 278.672,64.9648 0,45.9412 -27.692,-22.0701 27.692,-23.8711" /><path
             id="path40"
             style="fill:none;stroke:#ffffff;stroke-width:0.75999999;stroke-linecap:butt;stroke-linejoin:miter;stroke-miterlimit:4;stroke-dasharray:none;stroke-opacity:1"
             d="m 278.672,64.9648 0,45.9412 -27.692,-22.0701 27.692,-23.8711 z" /><path
             id="path42"
             style="fill:#ffffff;fill-opacity:1;fill-rule:nonzero;stroke:none"
             d="m 83.0117,64.9648 0,45.9412 L 110.66,88.8359 83.0117,64.9648" /><path
             id="path44"
             style="fill:none;stroke:#ffffff;stroke-width:0.75999999;stroke-linecap:butt;stroke-linejoin:miter;stroke-miterlimit:4;stroke-dasharray:none;stroke-opacity:1"
             d="m 83.0117,64.9648 0,45.9412 L 110.66,88.8359 83.0117,64.9648 Z" /><path
             id="path46"
             style="fill:#ffffff;fill-opacity:1;fill-rule:nonzero;stroke:none"
             d="m 101.559,156.184 0,-45.938 -27.6879,22.07 27.6879,23.868" /><path
             id="path48"
             style="fill:none;stroke:#ffffff;stroke-width:0.75999999;stroke-linecap:butt;stroke-linejoin:miter;stroke-miterlimit:4;stroke-dasharray:none;stroke-opacity:1"
             d="m 101.559,156.184 0,-45.938 -27.6879,22.07 27.6879,23.868 z" /><path
             id="path50"
             style="fill:#ffffff;fill-opacity:1;fill-rule:nonzero;stroke:none"
             d="m 258.012,156.184 0,-45.938 27.687,22.07 -27.687,23.868" /><path
             id="path52"
             style="fill:none;stroke:#ffffff;stroke-width:0.75999999;stroke-linecap:butt;stroke-linejoin:miter;stroke-miterlimit:4;stroke-dasharray:none;stroke-opacity:1"
             d="m 258.012,156.184 0,-45.938 27.687,22.07 -27.687,23.868 z" /><path
             id="path54"
             style="fill:none;stroke:#ffffff;stroke-width:7.5999999;stroke-linecap:butt;stroke-linejoin:miter;stroke-miterlimit:4;stroke-dasharray:none;stroke-opacity:1"
             d="m 264.02,133.797 -16.719,0" /><path
             id="path56"
             style="fill:none;stroke:#ffffff;stroke-width:7.5999999;stroke-linecap:butt;stroke-linejoin:miter;stroke-miterlimit:4;stroke-dasharray:none;stroke-opacity:1"
             d="m 269.84,89.2266 20.941,0" /><path
             id="path58"
             style="fill:none;stroke:#ffffff;stroke-width:7.5999999;stroke-linecap:butt;stroke-linejoin:miter;stroke-miterlimit:4;stroke-dasharray:none;stroke-opacity:1"
             d="m 90.3906,89.2266 -22.2695,0" /><path
             id="path60"
             style="fill:none;stroke:#ffffff;stroke-width:7.5999999;stroke-linecap:butt;stroke-linejoin:miter;stroke-miterlimit:4;stroke-dasharray:none;stroke-opacity:1"
             d="m 91.3711,132.395 20.8989,0" /><path
             id="path62"
             style="fill:#ffffff;fill-opacity:1;fill-rule:nonzero;stroke:none"
             d="m 228.98,131.453 -0.152,-83.4764 -96.719,0 -0.121,83.4764 96.992,0" /><path
             id="path64"
             style="fill:none;stroke:#087fbf;stroke-width:3.5;stroke-linecap:butt;stroke-linejoin:miter;stroke-miterlimit:4;stroke-dasharray:none;stroke-opacity:1"
             d="m 228.98,131.453 -0.152,-83.4764 -96.719,0 -0.121,83.4764 96.992,0 z" /><path
             id="path66"
             style="fill:none;stroke:#087fbf;stroke-width:3.5;stroke-linecap:butt;stroke-linejoin:miter;stroke-miterlimit:4;stroke-dasharray:none;stroke-opacity:1"
             d="m 142.621,107.516 76.0195,0 0,15.2305 -76.0195,0 0,-15.2305 z" /><path
             id="path68"
             style="fill:none;stroke:#087fbf;stroke-width:3.5;stroke-linecap:butt;stroke-linejoin:miter;stroke-miterlimit:4;stroke-dasharray:none;stroke-opacity:1"
             d="m 142.621,55.9844 76.0195,0 0,37.9688 -76.0195,0 0,-37.9688 z" /><path
             id="path70"
             style="fill:#ffffff;fill-opacity:1;fill-rule:nonzero;stroke:none"
             d="m 200.352,161.105 c 0,0 4.769,0.54 5.859,-4.261 l 1.059,-15.43 31.91,-5.309 3.199,6.911 -8,19.179 c -40.938,10.121 -55.32,6.91 -55.32,6.91 l 1.601,0 c 0,0 -14.371,3.211 -55.351,-6.91 l -7.969,-19.179 3.211,-6.911 31.91,5.309 1.059,15.43 c 1.05,4.801 5.859,4.261 5.859,4.261 l 40.973,0" /><path
             id="path72"
             style="fill:none;stroke:#087fbf;stroke-width:3.5;stroke-linecap:butt;stroke-linejoin:miter;stroke-miterlimit:4;stroke-dasharray:none;stroke-opacity:1"
             d="m 218.629,100.863 -76.008,0" /></g></g></g></g></svg>