<?xml version="1.0" encoding="UTF-8" standalone="no"?>
<svg
   xmlns:dc="http://purl.org/dc/elements/1.1/"
   xmlns:cc="http://creativecommons.org/ns#"
   xmlns:rdf="http://www.w3.org/1999/02/22-rdf-syntax-ns#"
   xmlns:svg="http://www.w3.org/2000/svg"
   xmlns="http://www.w3.org/2000/svg"
   viewBox="0 0 46.450001 40.849998"
   height="40.849998"
   width="46.450001"
   xml:space="preserve"
   version="1.1"
   id="svg2"><metadata
     id="metadata8"><rdf:RDF><cc:Work
         rdf:about=""><dc:format>image/svg+xml</dc:format><dc:type
           rdf:resource="http://purl.org/dc/dcmitype/StillImage" /></cc:Work></rdf:RDF></metadata><defs
     id="defs6"><clipPath
       id="clipPath18"
       clipPathUnits="userSpaceOnUse"><path
         id="path20"
         d="M 0,0 0,327 370,327 370,0 0,0 Z" /></clipPath></defs><g
     transform="matrix(1.25,0,0,-1.25,0,40.85)"
     id="g10"><g
       transform="scale(0.1,0.1)"
       id="g12"><g
         id="g14"><g
           clip-path="url(#clipPath18)"
           id="g16"><path
             id="path22"
             style="fill:#087fbf;fill-opacity:1;fill-rule:nonzero;stroke:none"
             d="m 369.855,253.293 c 0,-39.516 -82.343,-71.535 -183.925,-71.535 C 84.3477,181.758 2,213.777 2,253.293 L 2,73.5156 c 0,-39.5 82.3477,-71.52341 183.93,-71.52341 101.582,0 183.925,32.02341 183.925,71.52341 l 0,179.7774" /><path
             id="path24"
             style="fill:none;stroke:#ffffff;stroke-width:4;stroke-linecap:butt;stroke-linejoin:miter;stroke-miterlimit:4;stroke-dasharray:none;stroke-opacity:1"
             d="m 369.855,253.293 c 0,-39.516 -82.343,-71.535 -183.925,-71.535 C 84.3477,181.758 2,213.777 2,253.293 L 2,73.5156 c 0,-39.5 82.3477,-71.52341 183.93,-71.52341 101.582,0 183.925,32.02341 183.925,71.52341 l 0,179.7774 z" /><path
             id="path26"
             style="fill:#087fbf;fill-opacity:1;fill-rule:nonzero;stroke:none"
             d="m 185.93,181.758 c 101.582,0 183.925,32.019 183.925,71.535 0,39.492 -82.343,71.512 -183.925,71.512 C 84.3477,324.805 2,292.785 2,253.293 2,213.777 84.3477,181.758 185.93,181.758" /><path
             id="path28"
             style="fill:none;stroke:#ffffff;stroke-width:4;stroke-linecap:butt;stroke-linejoin:miter;stroke-miterlimit:4;stroke-dasharray:none;stroke-opacity:1"
             d="m 185.93,181.758 c 101.582,0 183.925,32.019 183.925,71.535 0,39.492 -82.343,71.512 -183.925,71.512 C 84.3477,324.805 2,292.785 2,253.293 2,213.777 84.3477,181.758 185.93,181.758 Z" /><path
             id="path30"
             style="fill:#ffffff;fill-opacity:1;fill-rule:nonzero;stroke:none"
             d="m 143.914,281.25 15.195,-22.781 -57.421,-13.274 12.542,10.45 -88.7534,15.168 22.2656,16.687 85.6488,-14.5 10.523,8.25" /><path
             id="path32"
             style="fill:#ffffff;fill-opacity:1;fill-rule:nonzero;stroke:none"
             d="m 224.719,226.008 -10.356,23.484 51.797,10.352 -8.98,-8.047 86.328,-14.746 -20.727,-16.571 -85.801,16.114 -12.261,-10.586" /><path
             id="path34"
             style="fill:#ffffff;fill-opacity:1;fill-rule:nonzero;stroke:none"
             d="m 196.395,293.684 58.031,15.886 0.679,-24.863 -14.507,2.766 -28.301,-23.477 -27.031,3.926 29.238,22.976 -18.109,2.786" /><path
             id="path36"
             style="fill:#ffffff;fill-opacity:1;fill-rule:nonzero;stroke:none"
             d="m 171.531,204.59 -55.23,-10.352 -2.071,25.559 15.875,-3.457 30.415,25.965 26.914,-4.551 -32.461,-28.32 16.558,-4.844" /><path
             id="path38"
             style="fill:#ffffff;fill-opacity:1;fill-rule:nonzero;stroke:none"
             d="m 278.684,54.9609 0,45.9571 -27.7,-22.0782 27.7,-23.8789" /><path
             id="path40"
             style="fill:none;stroke:#ffffff;stroke-width:0.75999999;stroke-linecap:butt;stroke-linejoin:miter;stroke-miterlimit:4;stroke-dasharray:none;stroke-opacity:1"
             d="m 278.684,54.9609 0,45.9571 -27.7,-22.0782 27.7,-23.8789 z" /><path
             id="path42"
             style="fill:#ffffff;fill-opacity:1;fill-rule:nonzero;stroke:none"
             d="m 82.9961,54.9609 0,45.9571 L 110.676,78.8398 82.9961,54.9609" /><path
             id="path44"
             style="fill:none;stroke:#ffffff;stroke-width:0.75999999;stroke-linecap:butt;stroke-linejoin:miter;stroke-miterlimit:4;stroke-dasharray:none;stroke-opacity:1"
             d="m 82.9961,54.9609 0,45.9571 L 110.676,78.8398 82.9961,54.9609 Z" /><path
             id="path46"
             style="fill:#ffffff;fill-opacity:1;fill-rule:nonzero;stroke:none"
             d="m 101.57,146.191 0,-45.957 -27.6911,22.063 27.6911,23.894" /><path
             id="path48"
             style="fill:none;stroke:#ffffff;stroke-width:0.75999999;stroke-linecap:butt;stroke-linejoin:miter;stroke-miterlimit:4;stroke-dasharray:none;stroke-opacity:1"
             d="m 101.57,146.191 0,-45.957 -27.6911,22.063 27.6911,23.894 z" /><path
             id="path50"
             style="fill:#ffffff;fill-opacity:1;fill-rule:nonzero;stroke:none"
             d="m 257.996,146.191 0,-45.957 27.695,22.063 -27.695,23.894" /><path
             id="path52"
             style="fill:none;stroke:#ffffff;stroke-width:0.75999999;stroke-linecap:butt;stroke-linejoin:miter;stroke-miterlimit:4;stroke-dasharray:none;stroke-opacity:1"
             d="m 257.996,146.191 0,-45.957 27.695,22.063 -27.695,23.894 z" /><path
             id="path54"
             style="fill:none;stroke:#ffffff;stroke-width:7.5999999;stroke-linecap:butt;stroke-linejoin:miter;stroke-miterlimit:4;stroke-dasharray:none;stroke-opacity:1"
             d="m 264.016,123.801 -16.719,0" /><path
             id="path56"
             style="fill:none;stroke:#ffffff;stroke-width:7.5999999;stroke-linecap:butt;stroke-linejoin:miter;stroke-miterlimit:4;stroke-dasharray:none;stroke-opacity:1"
             d="m 269.855,79.2109 20.915,0" /><path
             id="path58"
             style="fill:none;stroke:#ffffff;stroke-width:7.5999999;stroke-linecap:butt;stroke-linejoin:miter;stroke-miterlimit:4;stroke-dasharray:none;stroke-opacity:1"
             d="m 90.4023,79.2109 -22.289,0" /><path
             id="path60"
             style="fill:none;stroke:#ffffff;stroke-width:7.5999999;stroke-linecap:butt;stroke-linejoin:miter;stroke-miterlimit:4;stroke-dasharray:none;stroke-opacity:1"
             d="m 91.3555,122.41 20.9175,0" /><path
             id="path62"
             style="fill:#ffffff;fill-opacity:1;fill-rule:nonzero;stroke:none"
             d="m 228.977,121.445 -0.137,-83.4841 -96.738,0 -0.122,83.4841 96.997,0" /><path
             id="path64"
             style="fill:none;stroke:#087fbf;stroke-width:3.5;stroke-linecap:butt;stroke-linejoin:miter;stroke-miterlimit:4;stroke-dasharray:none;stroke-opacity:1"
             d="m 228.977,121.445 -0.137,-83.4841 -96.738,0 -0.122,83.4841 96.997,0 z" /><path
             id="path66"
             style="fill:none;stroke:#087fbf;stroke-width:3.5;stroke-linecap:butt;stroke-linejoin:miter;stroke-miterlimit:4;stroke-dasharray:none;stroke-opacity:1"
             d="m 142.605,97.5195 76.0156,0 0,15.2148 -76.0156,0 0,-15.2148 z" /><path
             id="path68"
             style="fill:none;stroke:#087fbf;stroke-width:3.5;stroke-linecap:butt;stroke-linejoin:miter;stroke-miterlimit:4;stroke-dasharray:none;stroke-opacity:1"
             d="m 142.605,45.9688 76.0156,0 0,37.9961 -76.0156,0 0,-37.9961 z" /><path
             id="path70"
             style="fill:#ffffff;fill-opacity:1;fill-rule:nonzero;stroke:none"
             d="m 200.344,151.121 c 0,0 4.785,0.539 5.855,-4.266 l 1.059,-15.429 31.93,-5.313 3.183,6.914 -7.984,19.153 c -40.957,10.117 -55.317,6.914 -55.317,6.914 l 1.582,0 c 0,0 -14.351,3.203 -55.332,-6.914 l -7.965,-19.153 3.18,-6.914 31.938,5.313 1.05,15.429 c 1.055,4.805 5.864,4.266 5.864,4.266 l 40.957,0" /><path
             id="path72"
             style="fill:none;stroke:#087fbf;stroke-width:3.5;stroke-linecap:butt;stroke-linejoin:miter;stroke-miterlimit:4;stroke-dasharray:none;stroke-opacity:1"
             d="m 218.621,90.8789 -76.016,0" /></g></g></g></g></svg>