<svg xmlns="http://www.w3.org/2000/svg" viewBox="0 0 47.5 33.75" height="33.75" width="47.5"><path d="M.64 31.744h37.964v-21.48H.64v21.48z" fill="#087fbf"/><path d="M.64 31.744h37.964v-21.48H.64v21.48z" fill="none" stroke="#fff" stroke-width=".5"/><path d="M38.632 31.85V10.371l7.843-8.55v21.373l-7.843 8.656" fill="#087fbf"/><path d="M38.632 31.85V10.37l7.843-8.548v21.37l-7.843 8.659z" fill="none" stroke="#fff" stroke-width=".5"/><path d="M38.638 10.248H.654l9.39-8.422 36.509-.034-7.915 8.456" fill="#087fbf"/><path d="M38.638 10.249H.654l9.39-8.422 36.509-.036-7.915 8.458z" fill="none" stroke="#fff" stroke-width=".5"/><path d="M8.619 18.203l-6.798.004V16.94l6.798-.005V14.95l3.93 2.618-3.93 2.616v-1.982M33.33 14.849l-5.771.004v-1.078l5.771-.005v-1.685l3.34 2.226-3.34 2.223v-1.685M33.33 21.578l-5.771.005v-1.08l5.771-.005v-1.684l3.34 2.226-3.34 2.221v-1.683M33.33 28.306l-5.771.004v-1.079l5.771-.005v-1.684l3.34 2.227-3.34 2.226v-1.689M13.502 22.216h9.643v-8.163h-9.644v8.163zM23.985 18.794h1.934v-3.676h-1.934v3.676z" fill="#fff"/><path d="M23.985 18.793h1.934v-3.676h-1.934v3.676z" fill="none" stroke="#231f20" stroke-width=".27225"/><path d="M14.756 27.456l3.57-9.322 3.69 9.346" fill="none" stroke="#fff" stroke-width="1.21" stroke-linecap="round"/><path d="M21.025 17.056h2.891" fill="none" stroke="#fff" stroke-width="1.875" stroke-linecap="round"/></svg>