<?xml version="1.0" encoding="UTF-8" standalone="no"?>
<svg
   xmlns:dc="http://purl.org/dc/elements/1.1/"
   xmlns:cc="http://creativecommons.org/ns#"
   xmlns:rdf="http://www.w3.org/1999/02/22-rdf-syntax-ns#"
   xmlns:svg="http://www.w3.org/2000/svg"
   xmlns="http://www.w3.org/2000/svg"
   xmlns:sodipodi="http://sodipodi.sourceforge.net/DTD/sodipodi-0.dtd"
   xmlns:inkscape="http://www.inkscape.org/namespaces/inkscape"
   viewBox="0 0 47.124741 31.25"
   height="31.25"
   width="47.124741"
   xml:space="preserve"
   version="1.1"
   id="svg2"
   inkscape:version="0.91 r13725"
   sodipodi:docname="iptvcontentmanager.svg"><sodipodi:namedview
     pagecolor="#ffffff"
     bordercolor="#666666"
     borderopacity="1"
     objecttolerance="10"
     gridtolerance="10"
     guidetolerance="10"
     inkscape:pageopacity="0"
     inkscape:pageshadow="2"
     inkscape:window-width="448"
     inkscape:window-height="438"
     id="namedview25"
     showgrid="false"
     inkscape:zoom="6.5765048"
     inkscape:cx="23.568491"
     inkscape:cy="15.59375"
     inkscape:window-x="0"
     inkscape:window-y="23"
     inkscape:window-maximized="0"
     inkscape:current-layer="svg2" /><metadata
     id="metadata8"><rdf:RDF><cc:Work
         rdf:about=""><dc:format>image/svg+xml</dc:format><dc:type
           rdf:resource="http://purl.org/dc/dcmitype/StillImage" /></cc:Work></rdf:RDF></metadata><defs
     id="defs6"><clipPath
       id="clipPath18"
       clipPathUnits="userSpaceOnUse"><path
         id="path20"
         d="M 0,1 0,251 377,251 377,1 0,1 Z"
         inkscape:connector-curvature="0" /></clipPath></defs><g
     transform="matrix(1.25,0,0,-1.25,-2.5970416e-4,31.375)"
     id="g10"><g
       transform="scale(0.1,0.1)"
       id="g12"><g
         id="g14"><g
           clip-path="url(#clipPath18)"
           id="g16"><path
             id="path22"
             style="fill:#087fbf;fill-opacity:1;fill-rule:nonzero;stroke:none"
             d="m 5.38281,5.19141 303.719,0 0,171.836 -303.719,0 0,-171.836 z"
             inkscape:connector-curvature="0" /><path
             id="path24"
             style="fill:none;stroke:#ffffff;stroke-width:4;stroke-linecap:butt;stroke-linejoin:miter;stroke-miterlimit:4;stroke-dasharray:none;stroke-opacity:1"
             d="m 5.38281,5.19141 303.719,0 0,171.836 -303.719,0 0,-171.836 z"
             inkscape:connector-curvature="0" /><path
             id="path26"
             style="fill:#087fbf;fill-opacity:1;fill-rule:nonzero;stroke:none"
             d="m 310.188,5.19141 0,171.83559 62.695,69.278 0,-171.8362 -62.695,-69.27739"
             inkscape:connector-curvature="0" /><path
             id="path28"
             style="fill:none;stroke:#ffffff;stroke-width:4;stroke-linecap:butt;stroke-linejoin:miter;stroke-miterlimit:4;stroke-dasharray:none;stroke-opacity:1"
             d="m 310.188,5.19141 0,171.83559 62.695,69.278 0,-171.8362 -62.695,-69.27739 z"
             inkscape:connector-curvature="0" /><path
             id="path30"
             style="fill:#087fbf;fill-opacity:1;fill-rule:nonzero;stroke:none"
             d="m 309.082,177.016 -303.85544,0 75.12504,67.394 292.0894,0.254 -63.359,-67.648"
             inkscape:connector-curvature="0" /><path
             id="path32"
             style="fill:none;stroke:#ffffff;stroke-width:4;stroke-linecap:butt;stroke-linejoin:miter;stroke-miterlimit:4;stroke-dasharray:none;stroke-opacity:1"
             d="m 309.082,177.016 -303.85544,0 75.12504,67.394 292.0894,0.254 -63.359,-67.648 z"
             inkscape:connector-curvature="0" /><path
             id="path34"
             style="fill:#ffffff;fill-opacity:1;fill-rule:nonzero;stroke:none"
             d="m 69.2266,113.531 -54.3828,-0.039 0,10.156 54.3828,0.04 0.0117,15.847 31.4457,-20.937 -31.4457,-20.9457 -0.0117,15.8787"
             inkscape:connector-curvature="0" /><path
             id="path36"
             style="fill:#ffffff;fill-opacity:1;fill-rule:nonzero;stroke:none"
             d="m 264.727,52.3672 -54.375,-0.0469 0,10.1563 54.375,0.039 0.019,15.8594 31.438,-20.9492 -31.438,-20.9375 -0.019,15.8789"
             inkscape:connector-curvature="0" /><path
             id="path38"
             style="fill:#ffffff;fill-opacity:1;fill-rule:nonzero;stroke:none"
             d="m 107.227,83.5586 45.8984,0 0,75 -45.8984,0 0,-75 z"
             inkscape:connector-curvature="0" /><path
             id="path40"
             style="fill:none;stroke:#231f20;stroke-width:4;stroke-linecap:butt;stroke-linejoin:miter;stroke-miterlimit:4;stroke-dasharray:none;stroke-opacity:1"
             d="m 107.227,83.5586 45.8984,0 0,75 -45.8984,0 0,-75 z"
             inkscape:connector-curvature="0" /><path
             id="path42"
             style="fill:#ffffff;fill-opacity:1;fill-rule:nonzero;stroke:none"
             d="m 133.359,52.8164 45.8984,0 0,75 -45.8984,0 0,-75 z"
             inkscape:connector-curvature="0" /><path
             id="path44"
             style="fill:none;stroke:#231f20;stroke-width:4;stroke-linecap:butt;stroke-linejoin:miter;stroke-miterlimit:4;stroke-dasharray:none;stroke-opacity:1"
             d="m 133.359,52.8164 45.8984,0 0,75 -45.8984,0 0,-75 z"
             inkscape:connector-curvature="0" /><path
             id="path46"
             style="fill:#ffffff;fill-opacity:1;fill-rule:nonzero;stroke:none"
             d="m 159.492,22.0664 45.8984,0 0,75 -45.8984,0 0,-75 z"
             inkscape:connector-curvature="0" /><path
             id="path48"
             style="fill:none;stroke:#231f20;stroke-width:4;stroke-linecap:butt;stroke-linejoin:miter;stroke-miterlimit:4;stroke-dasharray:none;stroke-opacity:1"
             d="m 159.492,22.0664 45.8984,0 0,75 -45.8984,0 0,-75 z"
             inkscape:connector-curvature="0" /></g></g></g></g></svg>