<?xml version="1.0" encoding="UTF-8" standalone="no"?>
<svg
   xmlns:dc="http://purl.org/dc/elements/1.1/"
   xmlns:cc="http://creativecommons.org/ns#"
   xmlns:rdf="http://www.w3.org/1999/02/22-rdf-syntax-ns#"
   xmlns:svg="http://www.w3.org/2000/svg"
   xmlns="http://www.w3.org/2000/svg"
   xmlns:sodipodi="http://sodipodi.sourceforge.net/DTD/sodipodi-0.dtd"
   xmlns:inkscape="http://www.inkscape.org/namespaces/inkscape"
   viewBox="0 0 47.132084 31.323263"
   height="31.323263"
   width="47.132084"
   xml:space="preserve"
   version="1.1"
   id="svg2"
   inkscape:version="0.91 r13725"
   sodipodi:docname="iptvserver.svg"><sodipodi:namedview
     pagecolor="#ffffff"
     bordercolor="#666666"
     borderopacity="1"
     objecttolerance="10"
     gridtolerance="10"
     guidetolerance="10"
     inkscape:pageopacity="0"
     inkscape:pageshadow="2"
     inkscape:window-width="448"
     inkscape:window-height="438"
     id="namedview22"
     showgrid="false"
     inkscape:zoom="6.5765048"
     inkscape:cx="23.56857"
     inkscape:cy="15.662336"
     inkscape:window-x="0"
     inkscape:window-y="23"
     inkscape:window-maximized="0"
     inkscape:current-layer="svg2" /><metadata
     id="metadata8"><rdf:RDF><cc:Work
         rdf:about=""><dc:format>image/svg+xml</dc:format><dc:type
           rdf:resource="http://purl.org/dc/dcmitype/StillImage" /></cc:Work></rdf:RDF></metadata><defs
     id="defs6" /><g
     transform="matrix(1.25,0,0,-1.25,-1.8034608e-4,31.323427)"
     id="g10"><g
       transform="scale(0.1,0.1)"
       id="g12"><path
         id="path14"
         style="fill:#087fbf;fill-opacity:1;fill-rule:nonzero;stroke:none"
         d="m 5.11719,6.05078 303.73,0 0,171.836 -303.73,0 0,-171.836 z"
         inkscape:connector-curvature="0" /><path
         id="path16"
         style="fill:none;stroke:#ffffff;stroke-width:4;stroke-linecap:butt;stroke-linejoin:miter;stroke-miterlimit:4;stroke-dasharray:none;stroke-opacity:1"
         d="m 5.11719,6.05078 303.73,0 0,171.836 -303.73,0 0,-171.836 z"
         inkscape:connector-curvature="0" /><path
         id="path18"
         style="fill:#087fbf;fill-opacity:1;fill-rule:nonzero;stroke:none"
         d="m 309.082,5.19141 0,171.83559 62.703,68.418 0,-170.9762 -62.703,-69.27739"
         inkscape:connector-curvature="0" /><path
         id="path20"
         style="fill:none;stroke:#ffffff;stroke-width:4;stroke-linecap:butt;stroke-linejoin:miter;stroke-miterlimit:4;stroke-dasharray:none;stroke-opacity:1"
         d="m 309.082,5.19141 0,171.83559 62.703,68.418 0,-170.9762 -62.703,-69.27739 z"
         inkscape:connector-curvature="0" /><path
         id="path22"
         style="fill:#087fbf;fill-opacity:1;fill-rule:nonzero;stroke:none"
         d="m 309.094,178.023 -303.86744,0 75.12504,67.383 292.0894,0.254 -63.347,-67.637"
         inkscape:connector-curvature="0" /><path
         id="path24"
         style="fill:none;stroke:#ffffff;stroke-width:4;stroke-linecap:butt;stroke-linejoin:miter;stroke-miterlimit:4;stroke-dasharray:none;stroke-opacity:1"
         d="m 309.094,178.023 -303.86744,0 75.12504,67.383 292.0894,0.254 -63.347,-67.637 z"
         inkscape:connector-curvature="0" /><path
         id="path26"
         style="fill:#ffffff;fill-opacity:1;fill-rule:nonzero;stroke:none"
         d="m 68.9453,114.391 -54.3633,-0.039 0,10.156 54.3633,0.039 0.0195,15.848 L 100.41,119.457 68.9648,98.5117 68.9453,114.391"
         inkscape:connector-curvature="0" /><path
         id="path28"
         style="fill:#ffffff;fill-opacity:1;fill-rule:nonzero;stroke:none"
         d="m 266.633,141.215 -46.164,-0.027 0,8.632 46.164,0.028 0.008,13.476 26.738,-17.801 -26.738,-17.804 -0.008,13.496"
         inkscape:connector-curvature="0" /><path
         id="path30"
         style="fill:#ffffff;fill-opacity:1;fill-rule:nonzero;stroke:none"
         d="m 266.633,87.3867 -46.164,-0.039 0,8.6328 46.164,0.0312 0.008,13.4763 26.738,-17.8044 -26.738,-17.793 -0.008,13.4961"
         inkscape:connector-curvature="0" /><path
         id="path32"
         style="fill:#ffffff;fill-opacity:1;fill-rule:nonzero;stroke:none"
         d="m 266.633,33.5586 -46.164,-0.0469 0,8.6328 46.164,0.0391 0.008,13.4648 26.738,-17.7929 -26.738,-17.8008 -0.008,13.5039"
         inkscape:connector-curvature="0" /><path
         id="path34"
         style="fill:#ffffff;fill-opacity:1;fill-rule:nonzero;stroke:none"
         d="m 108.027,82.25 77.1484,0 0,65.3438 -77.1484,0 0,-65.3438 z"
         inkscape:connector-curvature="0" /><path
         id="path36"
         style="fill:#ffffff;fill-opacity:1;fill-rule:nonzero;stroke:none"
         d="m 191.895,109.645 15.4414,0 0,29.4141 -15.4414,0 0,-29.4141 z"
         inkscape:connector-curvature="0" /><path
         id="path38"
         style="fill:none;stroke:#231f20;stroke-width:2.17799997;stroke-linecap:butt;stroke-linejoin:miter;stroke-miterlimit:4;stroke-dasharray:none;stroke-opacity:1"
         d="m 191.895,109.645 15.4414,0 0,29.4141 -15.4414,0 0,-29.4141 z"
         inkscape:connector-curvature="0" /><path
         id="path40"
         style="fill:none;stroke:#ffffff;stroke-width:9.68000031;stroke-linecap:round;stroke-linejoin:miter;stroke-miterlimit:4;stroke-dasharray:none;stroke-opacity:1"
         d="m 118.059,40.3477 28.543,74.5783 29.519,-74.7658"
         inkscape:connector-curvature="0" /><path
         id="path42"
         style="fill:none;stroke:#ffffff;stroke-width:15;stroke-linecap:round;stroke-linejoin:miter;stroke-miterlimit:4;stroke-dasharray:none;stroke-opacity:1"
         d="m 168.203,123.539 23.145,0"
         inkscape:connector-curvature="0" /></g></g></svg>