<?xml version="1.0" encoding="UTF-8" standalone="no"?>
<svg
   xmlns:dc="http://purl.org/dc/elements/1.1/"
   xmlns:cc="http://creativecommons.org/ns#"
   xmlns:rdf="http://www.w3.org/1999/02/22-rdf-syntax-ns#"
   xmlns:svg="http://www.w3.org/2000/svg"
   xmlns="http://www.w3.org/2000/svg"
   viewBox="0 0 47.5 33.75"
   height="33.75"
   width="47.5"
   xml:space="preserve"
   version="1.1"
   id="svg2"><metadata
     id="metadata8"><rdf:RDF><cc:Work
         rdf:about=""><dc:format>image/svg+xml</dc:format><dc:type
           rdf:resource="http://purl.org/dc/dcmitype/StillImage" /></cc:Work></rdf:RDF></metadata><defs
     id="defs6" /><g
     transform="matrix(1.25,0,0,-1.25,0,33.75)"
     id="g10"><g
       transform="scale(0.1,0.1)"
       id="g12"><path
         id="path14"
         style="fill:#087fbf;fill-opacity:1;fill-rule:nonzero;stroke:none"
         d="m 5.12109,16.0508 303.707,0 0,171.84 -303.707,0 0,-171.84 z" /><path
         id="path16"
         style="fill:none;stroke:#ffffff;stroke-width:4;stroke-linecap:butt;stroke-linejoin:miter;stroke-miterlimit:4;stroke-dasharray:none;stroke-opacity:1"
         d="m 5.12109,16.0469 303.707,0 0,171.84 -303.707,0 0,-171.84 z" /><path
         id="path18"
         style="fill:#087fbf;fill-opacity:1;fill-rule:nonzero;stroke:none"
         d="m 309.059,15.1992 0,171.8318 62.742,68.399 0,-170.9808 -62.742,-69.25" /><path
         id="path20"
         style="fill:none;stroke:#ffffff;stroke-width:4;stroke-linecap:butt;stroke-linejoin:miter;stroke-miterlimit:4;stroke-dasharray:none;stroke-opacity:1"
         d="m 309.059,15.1953 0,171.8397 62.742,68.391 0,-170.969 -62.742,-69.2617 z" /><path
         id="path22"
         style="fill:#087fbf;fill-opacity:1;fill-rule:nonzero;stroke:none"
         d="m 309.102,188.012 -303.87153,0 75.12113,67.379 292.0704,0.269 -63.32,-67.648" /><path
         id="path24"
         style="fill:none;stroke:#ffffff;stroke-width:4;stroke-linecap:butt;stroke-linejoin:miter;stroke-miterlimit:4;stroke-dasharray:none;stroke-opacity:1"
         d="m 309.102,188.008 -303.87153,0 75.12113,67.379 292.0704,0.281 -63.32,-67.66 z" /><path
         id="path26"
         style="fill:#ffffff;fill-opacity:1;fill-rule:nonzero;stroke:none"
         d="m 68.9492,124.379 -54.3789,-0.039 0,10.148 54.3789,0.043 0,15.86 31.4418,-20.942 -31.4418,-20.929 0,15.859" /><path
         id="path28"
         style="fill:#ffffff;fill-opacity:1;fill-rule:nonzero;stroke:none"
         d="m 266.641,151.211 -46.172,-0.039 0,8.629 46.172,0.039 0,13.48 26.718,-17.808 -26.718,-17.782 0,13.481" /><path
         id="path30"
         style="fill:#ffffff;fill-opacity:1;fill-rule:nonzero;stroke:none"
         d="m 266.641,97.3789 -46.172,-0.0391 0,8.6402 46.172,0.04 0,13.468 26.718,-17.808 -26.718,-17.7698 0,13.4687" /><path
         id="path32"
         style="fill:#ffffff;fill-opacity:1;fill-rule:nonzero;stroke:none"
         d="m 266.641,43.5508 -46.172,-0.0313 0,8.6289 46.172,0.043 0,13.4688 26.718,-17.8086 -26.718,-17.8125 0,13.5117" /><path
         id="path34"
         style="fill:#ffffff;fill-opacity:1;fill-rule:nonzero;stroke:none"
         d="m 108.012,92.2695 77.1484,0 0,65.3086 -77.1484,0 0,-65.3086 z" /><path
         id="path36"
         style="fill:#ffffff;fill-opacity:1;fill-rule:nonzero;stroke:none"
         d="m 191.879,119.648 15.4727,0 0,29.4102 -15.4727,0 0,-29.4102 z" /><path
         id="path38"
         style="fill:none;stroke:#231f20;stroke-width:2.17799997;stroke-linecap:butt;stroke-linejoin:miter;stroke-miterlimit:4;stroke-dasharray:none;stroke-opacity:1"
         d="m 191.879,119.656 15.4727,0 0,29.4102 -15.4727,0 0,-29.4102 z" /><path
         id="path40"
         style="fill:none;stroke:#ffffff;stroke-width:9.68000031;stroke-linecap:round;stroke-linejoin:miter;stroke-miterlimit:4;stroke-dasharray:none;stroke-opacity:1"
         d="m 118.051,50.3555 28.551,74.5705 29.527,-74.7697" /><path
         id="path42"
         style="fill:none;stroke:#ffffff;stroke-width:15;stroke-linecap:round;stroke-linejoin:miter;stroke-miterlimit:4;stroke-dasharray:none;stroke-opacity:1"
         d="m 168.199,133.555 23.129,0" /></g></g></svg>