<?xml version="1.0" encoding="UTF-8" standalone="no"?>
<svg
   xmlns:dc="http://purl.org/dc/elements/1.1/"
   xmlns:cc="http://creativecommons.org/ns#"
   xmlns:rdf="http://www.w3.org/1999/02/22-rdf-syntax-ns#"
   xmlns:svg="http://www.w3.org/2000/svg"
   xmlns="http://www.w3.org/2000/svg"
   viewBox="0 0 61.012501 46.012501"
   height="46.012501"
   width="61.012501"
   xml:space="preserve"
   version="1.1"
   id="svg2"><metadata
     id="metadata8"><rdf:RDF><cc:Work
         rdf:about=""><dc:format>image/svg+xml</dc:format><dc:type
           rdf:resource="http://purl.org/dc/dcmitype/StillImage" /></cc:Work></rdf:RDF></metadata><defs
     id="defs6" /><g
     transform="matrix(1.25,0,0,-1.25,0,46.0125)"
     id="g10"><g
       transform="scale(0.1,0.1)"
       id="g12"><path
         id="path14"
         style="fill:#087fbf;fill-opacity:1;fill-rule:nonzero;stroke:none"
         d="m 6.57422,131.262 357.195,0 0,115.957 -357.195,0 0,-115.957 z" /><path
         id="path16"
         style="fill:none;stroke:#ffffff;stroke-width:4;stroke-linecap:butt;stroke-linejoin:miter;stroke-miterlimit:4;stroke-dasharray:none;stroke-opacity:1"
         d="m 6.57422,131.262 357.195,0 0,115.957 -357.195,0 0,-115.957 z" /><path
         id="path18"
         style="fill:#087fbf;fill-opacity:1;fill-rule:nonzero;stroke:none"
         d="m 5.64453,246.633 144.27747,116.93 333.301,0 -119.785,-116.93 -357.79347,0" /><path
         id="path20"
         style="fill:none;stroke:#ffffff;stroke-width:4;stroke-linecap:butt;stroke-linejoin:miter;stroke-miterlimit:4;stroke-dasharray:none;stroke-opacity:1"
         d="m 5.64453,246.633 144.27747,116.93 333.301,0 -119.785,-116.93 -357.79347,0 z" /><path
         id="path22"
         style="fill:#087fbf;fill-opacity:1;fill-rule:nonzero;stroke:none"
         d="m 363.574,127.605 119.317,121.743 0.078,114.019 -119.395,-116.558 0,-119.204" /><path
         id="path24"
         style="fill:none;stroke:#ffffff;stroke-width:4;stroke-linecap:butt;stroke-linejoin:miter;stroke-miterlimit:4;stroke-dasharray:none;stroke-opacity:1"
         d="m 363.574,127.605 119.317,121.743 0.078,114.019 -119.395,-116.558 0,-119.204 z" /><path
         id="path26"
         style="fill:#78b5dd;fill-opacity:1;fill-rule:nonzero;stroke:none"
         d="m 6.57422,8.55469 357.195,0 0,125.34 -357.195,0 0,-125.34 z" /><path
         id="path28"
         style="fill:none;stroke:#ffffff;stroke-width:4;stroke-linecap:butt;stroke-linejoin:miter;stroke-miterlimit:4;stroke-dasharray:none;stroke-opacity:1"
         d="m 6.57422,8.55469 357.195,0 0,125.34 -357.195,0 0,-125.34 z" /><path
         id="path30"
         style="fill:#78b5dd;fill-opacity:1;fill-rule:nonzero;stroke:none"
         d="m 363.574,4.90234 119.317,121.73066 0.078,123.418 -119.395,-116.567 0,-128.58166" /><path
         id="path32"
         style="fill:none;stroke:#ffffff;stroke-width:4;stroke-linecap:butt;stroke-linejoin:miter;stroke-miterlimit:4;stroke-dasharray:none;stroke-opacity:1"
         d="m 363.574,4.90234 119.317,121.73066 0.078,123.418 -119.395,-116.567 0,-128.58166 z" /><path
         id="path34"
         style="fill:#ffffff;fill-opacity:1;fill-rule:nonzero;stroke:none"
         d="m 262.734,313.973 22.024,-5.547 60.535,16.64 22.02,-5.546 -11.012,16.64 -71.543,0 33.015,-5.547 -55.039,-16.64" /><path
         id="path36"
         style="fill:#ffffff;fill-opacity:1;fill-rule:nonzero;stroke:none"
         d="m 136.145,330.613 22,5.547 60.554,-16.64 22.016,5.546 -11.008,-16.64 -71.562,0 33.039,5.547 -55.039,16.64" /><path
         id="path38"
         style="fill:#ffffff;fill-opacity:1;fill-rule:nonzero;stroke:none"
         d="m 361.809,275.125 -22.012,-5.547 -55.039,16.66 -27.531,-5.566 11.015,16.66 71.555,0 -27.531,-5.566 49.543,-16.641" /><path
         id="path40"
         style="fill:#ffffff;fill-opacity:1;fill-rule:nonzero;stroke:none"
         d="m 235.215,291.766 -22.012,5.566 -55.058,-16.66 -27.508,5.566 11.004,-16.855 71.562,-0.703 -33.027,6.445 55.039,16.641" /><path
         id="path42"
         style="fill:#ffffff;fill-opacity:1;fill-rule:nonzero;stroke:none"
         d="m 186.145,147.41 c 24.097,0 43.64,5.938 43.64,13.242 0,7.309 -19.543,13.227 -43.64,13.227 -24.114,0 -43.657,-5.918 -43.657,-13.227 0,-7.304 19.543,-13.242 43.657,-13.242" /><path
         id="path44"
         style="fill:none;stroke:#231f20;stroke-width:3;stroke-linecap:round;stroke-linejoin:round;stroke-miterlimit:4;stroke-dasharray:none;stroke-opacity:1"
         d="m 186.145,147.41 c 24.097,0 43.64,5.938 43.64,13.242 0,7.309 -19.543,13.227 -43.64,13.227 -24.114,0 -43.657,-5.918 -43.657,-13.227 0,-7.304 19.543,-13.242 43.657,-13.242 z" /><path
         id="path46"
         style="fill:#ffffff;fill-opacity:1;fill-rule:nonzero;stroke:none"
         d="m 229.785,221.848 c 0,-7.309 -19.543,-13.227 -43.64,-13.227 -24.114,0 -43.657,5.918 -43.657,13.227 l 0,-54.707 c 0,-7.305 19.543,-13.227 43.657,-13.227 24.097,0 43.64,5.922 43.64,13.227 l 0,54.707" /><path
         id="path48"
         style="fill:none;stroke:#231f20;stroke-width:3;stroke-linecap:round;stroke-linejoin:round;stroke-miterlimit:4;stroke-dasharray:none;stroke-opacity:1"
         d="m 229.785,221.848 c 0,-7.309 -19.543,-13.227 -43.64,-13.227 -24.114,0 -43.657,5.918 -43.657,13.227 l 0,-54.707 c 0,-7.305 19.543,-13.227 43.657,-13.227 24.097,0 43.64,5.922 43.64,13.227 l 0,54.707 z" /><path
         id="path50"
         style="fill:#ffffff;fill-opacity:1;fill-rule:nonzero;stroke:none"
         d="m 186.086,208.621 c 24.102,0 43.641,5.918 43.641,13.227 0,7.3 -19.539,13.218 -43.641,13.218 -24.113,0 -43.652,-5.918 -43.652,-13.218 0,-7.309 19.539,-13.227 43.652,-13.227" /><path
         id="path52"
         style="fill:none;stroke:#231f20;stroke-width:3;stroke-linecap:round;stroke-linejoin:round;stroke-miterlimit:4;stroke-dasharray:none;stroke-opacity:1"
         d="m 186.086,208.621 c 24.102,0 43.641,5.918 43.641,13.227 0,7.3 -19.539,13.218 -43.641,13.218 -24.113,0 -43.652,-5.918 -43.652,-13.218 0,-7.309 19.539,-13.227 43.652,-13.227 z" /><path
         id="path54"
         style="fill:none;stroke:#ffffff;stroke-width:4;stroke-linecap:round;stroke-linejoin:round;stroke-miterlimit:4;stroke-dasharray:none;stroke-opacity:1"
         d="m 6.57422,131.887 357.19578,0" /><path
         id="path56"
         style="fill:#ffffff;fill-opacity:1;fill-rule:nonzero;stroke:none"
         d="m 143.457,73.3398 -66.8242,0 0,6.1133 -25.2187,-9.0234 25.2187,-9.0234 0,6.1132 66.8242,0 0,5.8203" /><path
         id="path58"
         style="fill:#ffffff;fill-opacity:1;fill-rule:nonzero;stroke:none"
         d="m 181.238,54.1406 0,-23.6914 -17.261,0 25.437,-8.9453 25.449,8.9453 -17.246,0 0,23.6914 -16.379,0" /><path
         id="path60"
         style="fill:#ffffff;fill-opacity:1;fill-rule:nonzero;stroke:none"
         d="m 181.238,86.0352 0,23.6918 -17.261,0 25.437,8.933 25.449,-8.933 -17.246,0 0,-23.6918 -16.379,0" /><path
         id="path62"
         style="fill:#ffffff;fill-opacity:1;fill-rule:nonzero;stroke:none"
         d="m 235.391,67.5195 66.828,0 0,-6.1132 25.222,9.0234 -25.222,9.0234 0,-6.1133 -66.828,0 0,-5.8203" /><path
         id="path64"
         style="fill:none;stroke:#ffffff;stroke-width:4;stroke-linecap:butt;stroke-linejoin:miter;stroke-miterlimit:4;stroke-dasharray:none;stroke-opacity:1"
         d="m 296.934,32.4023 c -12.539,-4.707 -70.176,8.2032 -128.68,28.8086 -58.527,20.625 -95.7852,41.1331 -83.2345,45.8201 12.5391,4.707 70.1755,-8.2029 128.6915,-28.8083 58.516,-20.625 95.762,-41.1329 83.223,-45.8204 z" /><path
         id="path66"
         style="fill:none;stroke:#ffffff;stroke-width:4;stroke-linecap:butt;stroke-linejoin:miter;stroke-miterlimit:4;stroke-dasharray:none;stroke-opacity:1"
         d="M 293.605,107.402 C 306.848,102.949 270.43,82.5195 212.297,61.7773 154.141,41.0352 96.2813,27.8125 83.0352,32.2656 69.793,36.7188 106.191,57.1484 164.348,77.8906 222.48,98.6328 280.344,111.836 293.605,107.402 Z" /><path
         id="path68"
         style="fill:#acd0ea;fill-opacity:1;fill-rule:nonzero;stroke:none"
         d="m 216.824,56.6602 c 22.082,5.4882 27.434,16.2695 11.985,24.082 -15.457,7.832 -45.86,9.7266 -67.942,4.2383 -22.066,-5.4688 -27.429,-16.25 -11.961,-24.0625 15.442,-7.8321 45.852,-9.7266 67.918,-4.2578" /><path
         id="path70"
         style="fill:none;stroke:#ffffff;stroke-width:4;stroke-linecap:butt;stroke-linejoin:miter;stroke-miterlimit:4;stroke-dasharray:none;stroke-opacity:1"
         d="m 216.824,56.6602 c 22.082,5.4882 27.434,16.2695 11.985,24.082 -15.457,7.832 -45.86,9.7266 -67.942,4.2383 -22.066,-5.4688 -27.429,-16.25 -11.961,-24.0625 15.442,-7.8321 45.852,-9.7266 67.918,-4.2578 z" /></g></g></svg>