<?xml version="1.0" encoding="UTF-8" standalone="no"?>
<svg
   xmlns:dc="http://purl.org/dc/elements/1.1/"
   xmlns:cc="http://creativecommons.org/ns#"
   xmlns:rdf="http://www.w3.org/1999/02/22-rdf-syntax-ns#"
   xmlns:svg="http://www.w3.org/2000/svg"
   xmlns="http://www.w3.org/2000/svg"
   viewBox="0 0 61.25 47.5"
   height="47.5"
   width="61.25"
   xml:space="preserve"
   version="1.1"
   id="svg2"><metadata
     id="metadata8"><rdf:RDF><cc:Work
         rdf:about=""><dc:format>image/svg+xml</dc:format><dc:type
           rdf:resource="http://purl.org/dc/dcmitype/StillImage" /></cc:Work></rdf:RDF></metadata><defs
     id="defs6" /><g
     transform="matrix(1.25,0,0,-1.25,0,47.5)"
     id="g10"><g
       transform="scale(0.1,0.1)"
       id="g12"><path
         id="path14"
         style="fill:#087fbf;fill-opacity:1;fill-rule:nonzero;stroke:none"
         d="m 6.55859,141.23 357.191,0 0,115.98 -357.191,0 0,-115.98 z" /><path
         id="path16"
         style="fill:none;stroke:#ffffff;stroke-width:4;stroke-linecap:butt;stroke-linejoin:miter;stroke-miterlimit:4;stroke-dasharray:none;stroke-opacity:1"
         d="m 6.55859,141.234 357.191,0 0,115.98 -357.191,0 0,-115.98 z" /><path
         id="path18"
         style="fill:#087fbf;fill-opacity:1;fill-rule:nonzero;stroke:none"
         d="m 5.62109,256.629 144.30091,116.91 333.316,0 -119.797,-116.91 -357.81991,0" /><path
         id="path20"
         style="fill:none;stroke:#ffffff;stroke-width:4;stroke-linecap:butt;stroke-linejoin:miter;stroke-miterlimit:4;stroke-dasharray:none;stroke-opacity:1"
         d="m 5.62109,256.633 144.30091,116.91 333.316,0 -119.797,-116.91 -357.81991,0 z" /><path
         id="path22"
         style="fill:#087fbf;fill-opacity:1;fill-rule:nonzero;stroke:none"
         d="m 363.551,137.609 119.34,121.711 0.078,114.032 -119.418,-116.571 0,-119.172" /><path
         id="path24"
         style="fill:none;stroke:#ffffff;stroke-width:4;stroke-linecap:butt;stroke-linejoin:miter;stroke-miterlimit:4;stroke-dasharray:none;stroke-opacity:1"
         d="m 363.551,137.602 119.34,121.722 0.078,114.02 -119.418,-116.563 0,-119.179 z" /><path
         id="path26"
         style="fill:#78b5dd;fill-opacity:1;fill-rule:nonzero;stroke:none"
         d="m 6.55859,18.5391 357.191,0 0,125.352 -357.191,0 0,-125.352 z" /><path
         id="path28"
         style="fill:none;stroke:#ffffff;stroke-width:4;stroke-linecap:butt;stroke-linejoin:miter;stroke-miterlimit:4;stroke-dasharray:none;stroke-opacity:1"
         d="m 6.55859,18.543 357.191,0 0,125.352 -357.191,0 0,-125.352 z" /><path
         id="path30"
         style="fill:#78b5dd;fill-opacity:1;fill-rule:nonzero;stroke:none"
         d="m 363.551,14.9102 119.34,121.7188 0.078,123.402 -119.418,-116.57 0,-128.5508" /><path
         id="path32"
         style="fill:none;stroke:#ffffff;stroke-width:4;stroke-linecap:butt;stroke-linejoin:miter;stroke-miterlimit:4;stroke-dasharray:none;stroke-opacity:1"
         d="m 363.551,14.9141 119.34,121.7189 0.078,123.39 -119.418,-116.558 0,-128.5509 z" /><path
         id="path34"
         style="fill:#ffffff;fill-opacity:1;fill-rule:nonzero;stroke:none"
         d="m 262.73,323.969 22.04,-5.539 60.5,16.64 22.031,-5.55 -11.012,16.64 -71.519,0 33,-5.551 -55.04,-16.64" /><path
         id="path36"
         style="fill:#ffffff;fill-opacity:1;fill-rule:nonzero;stroke:none"
         d="m 136.129,340.609 22.031,5.551 60.551,-16.64 21.988,5.55 -11.008,-16.64 -71.531,0 33.012,5.539 -55.043,16.64" /><path
         id="path38"
         style="fill:#ffffff;fill-opacity:1;fill-rule:nonzero;stroke:none"
         d="m 361.801,285.109 -22,-5.55 -55.031,16.679 -27.54,-5.59 11.008,16.68 71.563,0 -27.531,-5.578 49.531,-16.641" /><path
         id="path40"
         style="fill:#ffffff;fill-opacity:1;fill-rule:nonzero;stroke:none"
         d="m 235.199,301.75 -22,5.578 -55.039,-16.68 -27.539,5.59 11.02,-16.879 71.558,-0.699 -33.039,6.449 55.039,16.641" /><path
         id="path42"
         style="fill:#ffffff;fill-opacity:1;fill-rule:nonzero;stroke:none"
         d="m 186.129,157.41 c 24.101,0 43.641,5.942 43.641,13.238 0,7.313 -19.54,13.211 -43.641,13.211 -24.098,0 -43.629,-5.898 -43.629,-13.211 0,-7.296 19.531,-13.238 43.629,-13.238" /><path
         id="path44"
         style="fill:none;stroke:#231f20;stroke-width:3;stroke-linecap:round;stroke-linejoin:round;stroke-miterlimit:4;stroke-dasharray:none;stroke-opacity:1"
         d="m 186.129,157.414 c 24.101,0 43.641,5.93 43.641,13.238 0,7.301 -19.54,13.2 -43.641,13.2 -24.098,0 -43.629,-5.899 -43.629,-13.2 0,-7.308 19.531,-13.238 43.629,-13.238 z" /><path
         id="path46"
         style="fill:#ffffff;fill-opacity:1;fill-rule:nonzero;stroke:none"
         d="m 229.77,231.82 c 0,-7.3 -19.54,-13.199 -43.641,-13.199 -24.098,0 -43.629,5.899 -43.629,13.199 l 0,-54.679 c 0,-7.313 19.531,-13.25 43.629,-13.25 24.101,0 43.641,5.937 43.641,13.25 l 0,54.679" /><path
         id="path48"
         style="fill:none;stroke:#231f20;stroke-width:3;stroke-linecap:round;stroke-linejoin:round;stroke-miterlimit:4;stroke-dasharray:none;stroke-opacity:1"
         d="m 229.77,231.824 c 0,-7.301 -19.54,-13.203 -43.641,-13.203 -24.098,0 -43.629,5.902 -43.629,13.203 l 0,-54.691 c 0,-7.301 19.531,-13.238 43.629,-13.238 24.101,0 43.641,5.937 43.641,13.238 l 0,54.691 z" /><path
         id="path50"
         style="fill:#ffffff;fill-opacity:1;fill-rule:nonzero;stroke:none"
         d="m 186.09,218.621 c 24.109,0 43.64,5.899 43.64,13.199 0,7.309 -19.531,13.25 -43.64,13.25 -24.102,0 -43.668,-5.941 -43.668,-13.25 0,-7.3 19.566,-13.199 43.668,-13.199" /><path
         id="path52"
         style="fill:none;stroke:#231f20;stroke-width:3;stroke-linecap:round;stroke-linejoin:round;stroke-miterlimit:4;stroke-dasharray:none;stroke-opacity:1"
         d="m 186.09,218.621 c 24.109,0 43.64,5.902 43.64,13.203 0,7.309 -19.531,13.239 -43.64,13.239 -24.102,0 -43.668,-5.93 -43.668,-13.239 0,-7.301 19.566,-13.203 43.668,-13.203 z" /><path
         id="path54"
         style="fill:none;stroke:#ffffff;stroke-width:4;stroke-linecap:round;stroke-linejoin:round;stroke-miterlimit:4;stroke-dasharray:none;stroke-opacity:1"
         d="m 6.55859,141.863 357.23041,0" /><path
         id="path56"
         style="fill:#ffffff;fill-opacity:1;fill-rule:nonzero;stroke:none"
         d="m 143.441,83.3516 -66.8004,0 0,6.0898 -25.2304,-9.0195 25.2304,-9.0313 0,6.1407 66.8004,0 0,5.8203" /><path
         id="path58"
         style="fill:#ffffff;fill-opacity:1;fill-rule:nonzero;stroke:none"
         d="m 181.25,64.1289 0,-23.668 -17.27,0 25.43,-8.9492 25.43,8.9492 -17.219,0 0,23.668 -16.371,0" /><path
         id="path60"
         style="fill:#ffffff;fill-opacity:1;fill-rule:nonzero;stroke:none"
         d="m 181.25,96.0391 0,23.6719 -17.27,0 25.43,8.949 25.43,-8.949 -17.219,0 0,-23.6719 -16.371,0" /><path
         id="path62"
         style="fill:#ffffff;fill-opacity:1;fill-rule:nonzero;stroke:none"
         d="m 235.391,77.5313 66.839,0 0,-6.1407 25.192,9.0313 -25.192,9.0195 0,-6.0898 -66.839,0 0,-5.8203" /><path
         id="path64"
         style="fill:none;stroke:#ffffff;stroke-width:4;stroke-linecap:butt;stroke-linejoin:miter;stroke-miterlimit:4;stroke-dasharray:none;stroke-opacity:1"
         d="M 296.949,42.4141 C 284.41,37.6836 226.762,50.6133 168.238,71.2031 109.73,91.8242 72.4609,112.332 85,117.023 c 12.5391,4.719 70.199,-8.21 128.711,-28.7886 58.519,-20.6328 95.777,-41.1406 83.238,-45.8203 z" /><path
         id="path66"
         style="fill:none;stroke:#ffffff;stroke-width:4;stroke-linecap:butt;stroke-linejoin:miter;stroke-miterlimit:4;stroke-dasharray:none;stroke-opacity:1"
         d="M 293.59,117.414 C 306.84,112.953 270.43,92.5234 212.301,71.7813 154.141,51.043 96.2891,37.8047 83.0508,42.2539 c -13.25,4.4492 23.1212,24.8789 81.2892,45.6289 58.121,20.7382 116.012,33.9412 129.25,29.5312 z" /><path
         id="path68"
         style="fill:#acd0ea;fill-opacity:1;fill-rule:nonzero;stroke:none"
         d="m 216.84,66.6719 c 22.07,5.4687 27.422,16.25 11.988,24.0586 -15.469,7.8476 -45.898,9.7305 -67.969,4.2578 -22.07,-5.4688 -27.418,-16.25 -11.949,-24.0586 15.43,-7.8594 45.86,-9.7305 67.93,-4.2578" /><path
         id="path70"
         style="fill:none;stroke:#ffffff;stroke-width:4;stroke-linecap:butt;stroke-linejoin:miter;stroke-miterlimit:4;stroke-dasharray:none;stroke-opacity:1"
         d="m 216.84,66.6641 c 22.07,5.4687 27.422,16.25 11.988,24.0703 -15.469,7.8476 -45.898,9.7186 -67.969,4.2578 -22.07,-5.4688 -27.418,-16.2578 -11.949,-24.0703 15.43,-7.8477 45.86,-9.7188 67.93,-4.2578 z" /></g></g></svg>