<?xml version="1.0" encoding="UTF-8" standalone="no"?>
<svg
   xmlns:dc="http://purl.org/dc/elements/1.1/"
   xmlns:cc="http://creativecommons.org/ns#"
   xmlns:rdf="http://www.w3.org/1999/02/22-rdf-syntax-ns#"
   xmlns:svg="http://www.w3.org/2000/svg"
   xmlns="http://www.w3.org/2000/svg"
   viewBox="0 0 47.5 33.75"
   height="33.75"
   width="47.5"
   xml:space="preserve"
   version="1.1"
   id="svg2"><metadata
     id="metadata8"><rdf:RDF><cc:Work
         rdf:about=""><dc:format>image/svg+xml</dc:format><dc:type
           rdf:resource="http://purl.org/dc/dcmitype/StillImage" /></cc:Work></rdf:RDF></metadata><defs
     id="defs6" /><g
     transform="matrix(1.25,0,0,-1.25,0,33.75)"
     id="g10"><g
       transform="scale(0.1,0.1)"
       id="g12"><path
         id="path14"
         style="fill:#1286be;fill-opacity:1;fill-rule:nonzero;stroke:none"
         d="M 116.559,122.02 C 49.3789,132.68 1.98828,158.352 1.98828,188.309 l 0,-104.7699 C 1.98828,53.8906 50.4688,28.5 116.48,17.6406 l 0.079,104.3794" /><path
         id="path16"
         style="fill:none;stroke:#ffffff;stroke-width:4;stroke-linecap:butt;stroke-linejoin:miter;stroke-miterlimit:4;stroke-dasharray:none;stroke-opacity:1"
         d="M 116.559,122.023 C 49.3789,132.684 1.98828,158.344 1.98828,188.305 l 0,-104.762 C 1.98828,53.8945 50.4688,28.5039 116.48,17.6445 l 0.079,104.3785 z" /><path
         id="path18"
         style="fill:#54a2ce;fill-opacity:1;fill-rule:nonzero;stroke:none"
         d="m 116.48,17.6406 c 22.04,-3.6289 44.071,-5.6211 69.461,-5.6211 101.559,0 183.899,31.9922 183.899,71.5196 l 0,104.7699 c 0,-39.528 -82.34,-71.528 -183.899,-71.528 -24.57,0 -47.972,1.879 -69.382,5.239 L 116.48,17.6406" /><path
         id="path20"
         style="fill:none;stroke:#ffffff;stroke-width:4;stroke-linecap:butt;stroke-linejoin:miter;stroke-miterlimit:4;stroke-dasharray:none;stroke-opacity:1"
         d="m 116.48,17.6445 c 22.04,-3.6289 44.071,-5.6211 69.461,-5.6211 101.559,0 183.899,31.9922 183.899,71.5196 l 0,104.762 c 0,-39.532 -82.34,-71.52 -183.899,-71.52 -24.57,0 -47.972,1.879 -69.382,5.238 L 116.48,17.6445 Z" /><path
         id="path22"
         style="fill:#1286be;fill-opacity:1;fill-rule:nonzero;stroke:none"
         d="m 257.5,254.211 c -21.988,3.629 -46.172,5.617 -71.559,5.617 C 84.3398,259.828 1.98828,227.801 1.98828,188.309 1.98828,158.891 47.5781,133.66 112.77,122.68 L 257.5,254.211" /><path
         id="path24"
         style="fill:none;stroke:#ffffff;stroke-width:4;stroke-linecap:butt;stroke-linejoin:miter;stroke-miterlimit:4;stroke-dasharray:none;stroke-opacity:1"
         d="m 257.5,254.203 c -21.988,3.641 -46.172,5.629 -71.559,5.629 -101.6012,0 -183.95272,-32.027 -183.95272,-71.527 0,-29.41 45.58982,-54.641 110.78172,-65.621 L 257.5,254.203 Z" /><path
         id="path26"
         style="fill:#54a2ce;fill-opacity:1;fill-rule:nonzero;stroke:none"
         d="m 112.77,122.68 c 22.429,-3.789 47.152,-5.899 73.171,-5.899 101.559,0 183.899,32 183.899,71.528 0,29.613 -46.32,55.043 -112.34,65.902 L 112.77,122.68" /><path
         id="path28"
         style="fill:none;stroke:#ffffff;stroke-width:4;stroke-linecap:butt;stroke-linejoin:miter;stroke-miterlimit:4;stroke-dasharray:none;stroke-opacity:1"
         d="m 112.77,122.684 c 22.429,-3.789 47.152,-5.899 73.171,-5.899 101.559,0 183.899,31.988 183.899,71.52 0,29.609 -46.32,55.039 -112.34,65.898 L 112.77,122.684 Z" /><path
         id="path30"
         style="fill:#ffffff;fill-opacity:1;fill-rule:nonzero;stroke:none"
         d="m 141.449,215.141 15.192,-22.77 -57.4222,-13.281 12.5432,10.469 -88.7503,15.152 22.2578,16.68 85.6285,-14.493 10.551,8.243" /><path
         id="path32"
         style="fill:#ffffff;fill-opacity:1;fill-rule:nonzero;stroke:none"
         d="m 222.27,159.91 -10.391,23.481 51.793,10.347 -8.981,-8.047 86.329,-14.73 -20.711,-16.563 -85.821,16.102 -12.218,-10.59" /><path
         id="path34"
         style="fill:#ffffff;fill-opacity:1;fill-rule:nonzero;stroke:none"
         d="m 193.949,227.609 58,15.852 0.672,-24.84 -14.5,2.77 -28.32,-23.512 -26.992,3.941 29.222,22.969 -18.082,2.82" /><path
         id="path36"
         style="fill:#ffffff;fill-opacity:1;fill-rule:nonzero;stroke:none"
         d="m 169.059,138.5 -55.231,-10.352 -2.066,25.551 15.859,-3.437 30.43,25.937 26.91,-4.527 -32.461,-28.32 16.559,-4.852" /><g
         transform="scale(10,10)"
         id="g38"><text
           id="text40"
           style="font-variant:normal;font-weight:bold;font-size:8px;font-family:Helvetica;-inkscape-font-specification:Helvetica-Bold;writing-mode:lr-tb;fill:#ffffff;fill-opacity:1;fill-rule:nonzero;stroke:none"
           transform="matrix(1,0,0,-1,12.3871,3.76445)"><tspan
             id="tspan42"
             y="0"
             x="0 2.224 7.112">ITP</tspan></text>
</g></g></g></svg>