<?xml version="1.0" encoding="UTF-8" standalone="no"?>
<svg
   xmlns:dc="http://purl.org/dc/elements/1.1/"
   xmlns:cc="http://creativecommons.org/ns#"
   xmlns:rdf="http://www.w3.org/1999/02/22-rdf-syntax-ns#"
   xmlns:svg="http://www.w3.org/2000/svg"
   xmlns="http://www.w3.org/2000/svg"
   viewBox="0 0 46.487499 31.475"
   height="31.475"
   width="46.487499"
   xml:space="preserve"
   version="1.1"
   id="svg2"><metadata
     id="metadata8"><rdf:RDF><cc:Work
         rdf:about=""><dc:format>image/svg+xml</dc:format><dc:type
           rdf:resource="http://purl.org/dc/dcmitype/StillImage" /></cc:Work></rdf:RDF></metadata><defs
     id="defs6" /><g
     transform="matrix(1.25,0,0,-1.25,0,31.475)"
     id="g10"><g
       transform="scale(0.1,0.1)"
       id="g12"><path
         id="path14"
         style="fill:#1286be;fill-opacity:1;fill-rule:nonzero;stroke:none"
         d="M 116.555,112.023 C 49.3633,122.676 2.00391,148.332 2.00391,178.293 l 0,-104.7657 C 2.00391,43.8984 50.4805,18.4766 116.492,7.61719 l 0.063,104.40581" /><path
         id="path16"
         style="fill:none;stroke:#ffffff;stroke-width:4;stroke-linecap:butt;stroke-linejoin:miter;stroke-miterlimit:4;stroke-dasharray:none;stroke-opacity:1"
         d="M 116.555,112.023 C 49.3633,122.676 2.00391,148.332 2.00391,178.293 l 0,-104.7657 C 2.00391,43.8984 50.4805,18.4766 116.492,7.61719 l 0.063,104.40581 z" /><path
         id="path18"
         style="fill:#54a2ce;fill-opacity:1;fill-rule:nonzero;stroke:none"
         d="m 116.492,7.61719 c 22.016,-3.6211 44.043,-5.625 69.446,-5.625 101.574,0 183.917,32.02341 183.917,71.53511 l 0,104.7657 c 0,-39.512 -82.343,-71.523 -183.917,-71.523 -24.551,0 -47.977,1.863 -69.383,5.253 L 116.492,7.61719" /><path
         id="path20"
         style="fill:none;stroke:#ffffff;stroke-width:4;stroke-linecap:butt;stroke-linejoin:miter;stroke-miterlimit:4;stroke-dasharray:none;stroke-opacity:1"
         d="m 116.492,7.61719 c 22.016,-3.6211 44.043,-5.625 69.446,-5.625 101.574,0 183.917,32.02341 183.917,71.53511 l 0,104.7657 c 0,-39.512 -82.343,-71.523 -183.917,-71.523 -24.551,0 -47.977,1.863 -69.383,5.253 L 116.492,7.61719 Z" /><path
         id="path22"
         style="fill:#1286be;fill-opacity:1;fill-rule:nonzero;stroke:none"
         d="m 257.52,244.191 c -22,3.622 -46.192,5.625 -71.582,5.625 -101.5903,0 -183.93409,-32.023 -183.93409,-71.523 0,-29.395 45.58589,-54.641 110.76209,-65.637 L 257.52,244.191" /><path
         id="path24"
         style="fill:none;stroke:#ffffff;stroke-width:4;stroke-linecap:butt;stroke-linejoin:miter;stroke-miterlimit:4;stroke-dasharray:none;stroke-opacity:1"
         d="m 257.52,244.191 c -22,3.622 -46.192,5.625 -71.582,5.625 -101.5903,0 -183.93409,-32.023 -183.93409,-71.523 0,-29.395 45.58589,-54.641 110.76209,-65.637 L 257.52,244.191 Z" /><path
         id="path26"
         style="fill:#54a2ce;fill-opacity:1;fill-rule:nonzero;stroke:none"
         d="m 112.766,112.656 c 22.422,-3.789 47.168,-5.886 73.172,-5.886 101.574,0 183.917,32.011 183.917,71.523 0,29.629 -46.32,55.047 -112.335,65.898 L 112.766,112.656" /><path
         id="path28"
         style="fill:none;stroke:#ffffff;stroke-width:4;stroke-linecap:butt;stroke-linejoin:miter;stroke-miterlimit:4;stroke-dasharray:none;stroke-opacity:1"
         d="m 112.766,112.656 c 22.422,-3.789 47.168,-5.886 73.172,-5.886 101.574,0 183.917,32.011 183.917,71.523 0,29.629 -46.32,55.047 -112.335,65.898 L 112.766,112.656 Z" /><path
         id="path30"
         style="fill:#ffffff;fill-opacity:1;fill-rule:nonzero;stroke:none"
         d="m 141.457,205.148 15.184,-22.785 -57.4222,-13.269 12.5512,10.449 -88.7505,15.164 22.2618,16.691 85.6367,-14.503 10.539,8.253" /><path
         id="path32"
         style="fill:#ffffff;fill-opacity:1;fill-rule:nonzero;stroke:none"
         d="m 222.258,149.902 -10.363,23.489 51.796,10.347 -8.984,-8.043 86.328,-14.746 -20.715,-16.574 -85.808,16.113 -12.254,-10.586" /><path
         id="path34"
         style="fill:#ffffff;fill-opacity:1;fill-rule:nonzero;stroke:none"
         d="m 193.938,217.59 58.015,15.879 0.684,-24.864 -14.5,2.762 -28.313,-23.484 -27.019,3.941 29.226,22.973 -18.093,2.793" /><path
         id="path36"
         style="fill:#ffffff;fill-opacity:1;fill-rule:nonzero;stroke:none"
         d="m 169.07,128.488 -55.242,-10.351 -2.07,25.547 15.879,-3.45 30.41,25.965 26.914,-4.547 -32.461,-28.32 16.57,-4.844" /><g
         transform="scale(10,10)"
         id="g38"><text
           id="text40"
           style="font-variant:normal;font-weight:bold;font-size:8px;font-family:Helvetica;-inkscape-font-specification:Helvetica-Bold;writing-mode:lr-tb;fill:#ffffff;fill-opacity:1;fill-rule:nonzero;stroke:none"
           transform="matrix(1,0,0,-1,12.3875,2.76367)"><tspan
             id="tspan42"
             y="0"
             x="0 2.224 7.112">ITP</tspan></text>
</g></g></g></svg>