<?xml version="1.0" encoding="UTF-8" standalone="no"?>
<svg
   xmlns:dc="http://purl.org/dc/elements/1.1/"
   xmlns:cc="http://creativecommons.org/ns#"
   xmlns:rdf="http://www.w3.org/1999/02/22-rdf-syntax-ns#"
   xmlns:svg="http://www.w3.org/2000/svg"
   xmlns="http://www.w3.org/2000/svg"
   viewBox="0 0 18.75 40"
   height="40"
   width="18.75"
   xml:space="preserve"
   version="1.1"
   id="svg2"><metadata
     id="metadata8"><rdf:RDF><cc:Work
         rdf:about=""><dc:format>image/svg+xml</dc:format><dc:type
           rdf:resource="http://purl.org/dc/dcmitype/StillImage" /></cc:Work></rdf:RDF></metadata><defs
     id="defs6"><clipPath
       id="clipPath18"
       clipPathUnits="userSpaceOnUse"><path
         id="path20"
         d="M 0,8 0,312 149,312 149,8 0,8 Z" /></clipPath></defs><g
     transform="matrix(1.25,0,0,-1.25,0,40)"
     id="g10"><g
       transform="scale(0.1,0.1)"
       id="g12"><g
         id="g14"><g
           clip-path="url(#clipPath18)"
           id="g16"><path
             id="path22"
             style="fill:#087fbf;fill-opacity:1;fill-rule:nonzero;stroke:none"
             d="m 4.83984,14.8086 91.3711,0 0,245.117 -91.3711,0 0,-245.117 z" /><path
             id="path24"
             style="fill:#087fbf;fill-opacity:1;fill-rule:nonzero;stroke:none"
             d="m 96.2109,14.8086 49.1411,49.1797 0,245.0777 -91.3715,0 -49.14066,-49.14 91.37106,0 0,-245.1174" /><path
             id="path26"
             style="fill:#087fbf;fill-opacity:1;fill-rule:nonzero;stroke:none"
             d="m 96.2109,259.926 49.1411,49.14" /><path
             id="path28"
             style="fill:#087fbf;fill-opacity:1;fill-rule:nonzero;stroke:none"
             d="m 4.83984,14.8086 91.3711,0 0,245.117 -91.3711,0 0,-245.117 z" /><path
             id="path30"
             style="fill:none;stroke:#ffffff;stroke-width:4;stroke-linecap:butt;stroke-linejoin:miter;stroke-miterlimit:4;stroke-dasharray:none;stroke-opacity:1"
             d="m 96.2109,259.926 -91.37106,0 0,-245.1174 91.37106,0" /><path
             id="path32"
             style="fill:#087fbf;fill-opacity:1;fill-rule:nonzero;stroke:none"
             d="m 96.2109,14.8086 49.1411,49.1797 0,245.0777 -91.3715,0 -49.14066,-49.14 91.37106,0 0,-245.1174" /><path
             id="path34"
             style="fill:none;stroke:#ffffff;stroke-width:4;stroke-linecap:butt;stroke-linejoin:miter;stroke-miterlimit:4;stroke-dasharray:none;stroke-opacity:1"
             d="m 96.2109,14.8086 49.1411,49.1797 0,245.0777 -91.3715,0 -49.14066,-49.14 91.37106,0 0,-245.1174 z" /><path
             id="path36"
             style="fill:#231f20;fill-opacity:1;fill-rule:nonzero;stroke:none"
             d="m 96.2109,259.926 49.1411,49.14" /><path
             id="path38"
             style="fill:none;stroke:#ffffff;stroke-width:4;stroke-linecap:round;stroke-linejoin:round;stroke-miterlimit:4;stroke-dasharray:none;stroke-opacity:1"
             d="m 96.2109,259.926 49.1411,49.14" /><path
             id="path40"
             style="fill:none;stroke:#ffffff;stroke-width:4;stroke-linecap:butt;stroke-linejoin:miter;stroke-miterlimit:4;stroke-dasharray:none;stroke-opacity:1"
             d="m 96.2109,259.926 -91.37106,0 0,-245.1174 91.37106,0" /><path
             id="path42"
             style="fill:none;stroke:#ffffff;stroke-width:4;stroke-linecap:butt;stroke-linejoin:miter;stroke-miterlimit:4;stroke-dasharray:none;stroke-opacity:1"
             d="m 96.2109,14.8086 49.1411,49.1797 0,245.0777 -91.3715,0 -49.14066,-49.14 91.37106,0 0,-245.1174 z" /><path
             id="path44"
             style="fill:none;stroke:#ffffff;stroke-width:4;stroke-linecap:butt;stroke-linejoin:miter;stroke-miterlimit:4;stroke-dasharray:none;stroke-opacity:1"
             d="m 96.2109,259.926 49.1411,49.14" /><path
             id="path46"
             style="fill:#ffffff;fill-opacity:1;fill-rule:nonzero;stroke:none"
             d="m 80.3086,74.0664 c 0,-6.0898 -13.0391,-11.0195 -29.1367,-11.0195 -16.1328,0 -29.1836,4.9297 -29.1836,11.0195 0,6.0899 13.0508,10.9805 29.1836,10.9805 16.0976,0 29.1367,-4.8906 29.1367,-10.9805" /><path
             id="path48"
             style="fill:none;stroke:#231f20;stroke-width:3.5;stroke-linecap:round;stroke-linejoin:round;stroke-miterlimit:4;stroke-dasharray:none;stroke-opacity:1"
             d="m 80.3086,74.0664 c 0,-6.0898 -13.0391,-11.0195 -29.1367,-11.0195 -16.1328,0 -29.1836,4.9297 -29.1836,11.0195 0,6.0899 13.0508,10.9805 29.1836,10.9805 16.0976,0 29.1367,-4.8906 29.1367,-10.9805 z" /><path
             id="path50"
             style="fill:#231f20;fill-opacity:1;fill-rule:nonzero;stroke:none"
             d="m 59.7695,74.6484 c 0,-1.7929 -3.9101,-3.3203 -8.75,-3.3203 -4.8476,0 -8.75,1.5274 -8.75,3.3203 0,1.8399 3.9024,3.2891 8.75,3.2891 4.8399,0 8.75,-1.4492 8.75,-3.2891" /><path
             id="path52"
             style="fill:#231f20;fill-opacity:1;fill-rule:nonzero;stroke:none"
             d="m 59.7695,80.6289 c 0,-1.8008 -3.9101,-3.2812 -8.75,-3.2812 -4.8476,0 -8.75,1.4804 -8.75,3.2812 0,1.8399 3.9024,3.3203 8.75,3.3203 4.8399,0 8.75,-1.4804 8.75,-3.3203" /><path
             id="path54"
             style="fill:#ffffff;fill-opacity:1;fill-rule:nonzero;stroke:none"
             d="m 80.3086,86.0586 c 0,-6.0898 -13.0391,-11.0117 -29.1367,-11.0117 -16.1328,0 -29.1836,4.9219 -29.1836,11.0117 0,6.0898 13.0508,11.0195 29.1836,11.0195 16.0976,0 29.1367,-4.9297 29.1367,-11.0195" /><path
             id="path56"
             style="fill:none;stroke:#231f20;stroke-width:3.5;stroke-linecap:round;stroke-linejoin:round;stroke-miterlimit:4;stroke-dasharray:none;stroke-opacity:1"
             d="m 80.3086,86.0586 c 0,-6.0898 -13.0391,-11.0117 -29.1367,-11.0117 -16.1328,0 -29.1836,4.9219 -29.1836,11.0117 0,6.0898 13.0508,11.0195 29.1836,11.0195 16.0976,0 29.1367,-4.9297 29.1367,-11.0195 z" /><path
             id="path58"
             style="fill:#231f20;fill-opacity:1;fill-rule:nonzero;stroke:none"
             d="m 59.7695,86.6484 c 0,-1.8398 -3.9101,-3.2812 -8.75,-3.2812 -4.8476,0 -8.75,1.4414 -8.75,3.2812 0,1.8282 3.9024,3.3204 8.75,3.3204 4.8399,0 8.75,-1.4922 8.75,-3.3204" /><path
             id="path60"
             style="fill:#231f20;fill-opacity:1;fill-rule:nonzero;stroke:none"
             d="m 59.7695,92.6563 c 0,-1.7891 -3.9101,-3.3204 -8.75,-3.3204 -4.8476,0 -8.75,1.5313 -8.75,3.3204 0,1.8007 3.9024,3.3203 8.75,3.3203 4.8399,0 8.75,-1.5196 8.75,-3.3203" /><path
             id="path62"
             style="fill:#ffffff;fill-opacity:1;fill-rule:nonzero;stroke:none"
             d="m 80.3086,98.0469 c 0,-6.0899 -13.0391,-10.9688 -29.1367,-10.9688 -16.1328,0 -29.1836,4.8789 -29.1836,10.9688 0,6.1011 13.0508,11.0191 29.1836,11.0191 16.0976,0 29.1367,-4.918 29.1367,-11.0191" /><path
             id="path64"
             style="fill:none;stroke:#231f20;stroke-width:3.5;stroke-linecap:round;stroke-linejoin:round;stroke-miterlimit:4;stroke-dasharray:none;stroke-opacity:1"
             d="m 80.3086,98.0469 c 0,-6.0899 -13.0391,-10.9688 -29.1367,-10.9688 -16.1328,0 -29.1836,4.8789 -29.1836,10.9688 0,6.1011 13.0508,11.0191 29.1836,11.0191 16.0976,0 29.1367,-4.918 29.1367,-11.0191 z" /><path
             id="path66"
             style="fill:#231f20;fill-opacity:1;fill-rule:nonzero;stroke:none"
             d="m 59.7695,98.6367 c 0,-1.8008 -3.9101,-3.2812 -8.75,-3.2812 -4.8476,0 -8.75,1.4804 -8.75,3.2812 0,1.8403 3.9024,3.3203 8.75,3.3203 4.8399,0 8.75,-1.48 8.75,-3.3203" /><path
             id="path68"
             style="fill:#ffffff;fill-opacity:1;fill-rule:nonzero;stroke:none"
             d="m 80.3086,122.078 c 0,-6.101 -13.0391,-11.019 -29.1367,-11.019 -16.1328,0 -29.1836,4.918 -29.1836,11.019 0,6.051 13.0508,10.969 29.1836,10.969 16.0976,0 29.1367,-4.918 29.1367,-10.969" /><path
             id="path70"
             style="fill:none;stroke:#231f20;stroke-width:3.5;stroke-linecap:round;stroke-linejoin:round;stroke-miterlimit:4;stroke-dasharray:none;stroke-opacity:1"
             d="m 80.3086,122.078 c 0,-6.101 -13.0391,-11.019 -29.1367,-11.019 -16.1328,0 -29.1836,4.918 -29.1836,11.019 0,6.051 13.0508,10.969 29.1836,10.969 16.0976,0 29.1367,-4.918 29.1367,-10.969 z" /><path
             id="path72"
             style="fill:#231f20;fill-opacity:1;fill-rule:nonzero;stroke:none"
             d="m 59.7695,122.656 c 0,-1.789 -3.9101,-3.32 -8.75,-3.32 -4.8476,0 -8.75,1.531 -8.75,3.32 0,1.801 3.9024,3.321 8.75,3.321 4.8399,0 8.75,-1.52 8.75,-3.321" /><path
             id="path74"
             style="fill:#231f20;fill-opacity:1;fill-rule:nonzero;stroke:none"
             d="m 59.7695,128.637 c 0,-1.801 -3.9101,-3.282 -8.75,-3.282 -4.8476,0 -8.75,1.481 -8.75,3.282 0,1.84 3.9024,3.32 8.75,3.32 4.8399,0 8.75,-1.48 8.75,-3.32" /><path
             id="path76"
             style="fill:#ffffff;fill-opacity:1;fill-rule:nonzero;stroke:none"
             d="m 80.3086,134.066 c 0,-6.089 -13.0391,-11.019 -29.1367,-11.019 -16.1328,0 -29.1836,4.93 -29.1836,11.019 0,6.09 13.0508,10.981 29.1836,10.981 16.0976,0 29.1367,-4.891 29.1367,-10.981" /><path
             id="path78"
             style="fill:none;stroke:#231f20;stroke-width:3.5;stroke-linecap:round;stroke-linejoin:round;stroke-miterlimit:4;stroke-dasharray:none;stroke-opacity:1"
             d="m 80.3086,134.066 c 0,-6.089 -13.0391,-11.019 -29.1367,-11.019 -16.1328,0 -29.1836,4.93 -29.1836,11.019 0,6.09 13.0508,10.981 29.1836,10.981 16.0976,0 29.1367,-4.891 29.1367,-10.981 z" /><path
             id="path80"
             style="fill:#231f20;fill-opacity:1;fill-rule:nonzero;stroke:none"
             d="m 59.7695,134.648 c 0,-1.793 -3.9101,-3.32 -8.75,-3.32 -4.8476,0 -8.75,1.527 -8.75,3.32 0,1.84 3.9024,3.29 8.75,3.29 4.8399,0 8.75,-1.45 8.75,-3.29" /><path
             id="path82"
             style="fill:#231f20;fill-opacity:1;fill-rule:nonzero;stroke:none"
             d="m 59.7695,140.668 c 0,-1.84 -3.9101,-3.32 -8.75,-3.32 -4.8476,0 -8.75,1.48 -8.75,3.32 0,1.801 3.9024,3.281 8.75,3.281 4.8399,0 8.75,-1.48 8.75,-3.281" /><path
             id="path84"
             style="fill:#ffffff;fill-opacity:1;fill-rule:nonzero;stroke:none"
             d="m 80.3086,146.059 c 0,-6.09 -13.0391,-11.012 -29.1367,-11.012 -16.1328,0 -29.1836,4.922 -29.1836,11.012 0,6.089 13.0508,11.019 29.1836,11.019 16.0976,0 29.1367,-4.93 29.1367,-11.019" /><path
             id="path86"
             style="fill:none;stroke:#231f20;stroke-width:3.5;stroke-linecap:round;stroke-linejoin:round;stroke-miterlimit:4;stroke-dasharray:none;stroke-opacity:1"
             d="m 80.3086,146.059 c 0,-6.09 -13.0391,-11.012 -29.1367,-11.012 -16.1328,0 -29.1836,4.922 -29.1836,11.012 0,6.089 13.0508,11.019 29.1836,11.019 16.0976,0 29.1367,-4.93 29.1367,-11.019 z" /><path
             id="path88"
             style="fill:#231f20;fill-opacity:1;fill-rule:nonzero;stroke:none"
             d="m 59.7695,146.648 c 0,-1.839 -3.9101,-3.281 -8.75,-3.281 -4.8476,0 -8.75,1.442 -8.75,3.281 0,1.829 3.9024,3.321 8.75,3.321 4.8399,0 8.75,-1.492 8.75,-3.321" /><path
             id="path90"
             style="fill:#ffffff;fill-opacity:1;fill-rule:nonzero;stroke:none"
             d="m 80.3086,170.047 c 0,-6.059 -13.0391,-10.981 -29.1367,-10.981 -16.1328,0 -29.1836,4.922 -29.1836,10.981 0,6.09 13.0508,11.012 29.1836,11.012 16.0976,0 29.1367,-4.922 29.1367,-11.012" /><path
             id="path92"
             style="fill:none;stroke:#231f20;stroke-width:3.5;stroke-linecap:round;stroke-linejoin:round;stroke-miterlimit:4;stroke-dasharray:none;stroke-opacity:1"
             d="m 80.3086,170.047 c 0,-6.059 -13.0391,-10.981 -29.1367,-10.981 -16.1328,0 -29.1836,4.922 -29.1836,10.981 0,6.09 13.0508,11.012 29.1836,11.012 16.0976,0 29.1367,-4.922 29.1367,-11.012 z" /><path
             id="path94"
             style="fill:#231f20;fill-opacity:1;fill-rule:nonzero;stroke:none"
             d="m 59.7695,170.668 c 0,-1.84 -3.9101,-3.32 -8.75,-3.32 -4.8476,0 -8.75,1.48 -8.75,3.32 0,1.801 3.9024,3.281 8.75,3.281 4.8399,0 8.75,-1.48 8.75,-3.281" /><path
             id="path96"
             style="fill:#231f20;fill-opacity:1;fill-rule:nonzero;stroke:none"
             d="m 59.7695,176.648 c 0,-1.839 -3.9101,-3.281 -8.75,-3.281 -4.8476,0 -8.75,1.442 -8.75,3.281 0,1.829 3.9024,3.321 8.75,3.321 4.8399,0 8.75,-1.492 8.75,-3.321" /><path
             id="path98"
             style="fill:#ffffff;fill-opacity:1;fill-rule:nonzero;stroke:none"
             d="m 80.3086,182.078 c 0,-6.101 -13.0391,-11.019 -29.1367,-11.019 -16.1328,0 -29.1836,4.918 -29.1836,11.019 0,6.051 13.0508,10.969 29.1836,10.969 16.0976,0 29.1367,-4.918 29.1367,-10.969" /><path
             id="path100"
             style="fill:none;stroke:#231f20;stroke-width:3.5;stroke-linecap:round;stroke-linejoin:round;stroke-miterlimit:4;stroke-dasharray:none;stroke-opacity:1"
             d="m 80.3086,182.078 c 0,-6.101 -13.0391,-11.019 -29.1367,-11.019 -16.1328,0 -29.1836,4.918 -29.1836,11.019 0,6.051 13.0508,10.969 29.1836,10.969 16.0976,0 29.1367,-4.918 29.1367,-10.969 z" /><path
             id="path102"
             style="fill:#231f20;fill-opacity:1;fill-rule:nonzero;stroke:none"
             d="m 59.7695,182.656 c 0,-1.789 -3.9101,-3.32 -8.75,-3.32 -4.8476,0 -8.75,1.531 -8.75,3.32 0,1.84 3.9024,3.282 8.75,3.282 4.8399,0 8.75,-1.442 8.75,-3.282" /><path
             id="path104"
             style="fill:#231f20;fill-opacity:1;fill-rule:nonzero;stroke:none"
             d="m 59.7695,188.637 c 0,-1.801 -3.9101,-3.282 -8.75,-3.282 -4.8476,0 -8.75,1.481 -8.75,3.282 0,1.84 3.9024,3.32 8.75,3.32 4.8399,0 8.75,-1.48 8.75,-3.32" /><path
             id="path106"
             style="fill:#ffffff;fill-opacity:1;fill-rule:nonzero;stroke:none"
             d="m 80.3086,194.066 c 0,-6.089 -13.0391,-11.019 -29.1367,-11.019 -16.1328,0 -29.1836,4.93 -29.1836,11.019 0,6.051 13.0508,10.981 29.1836,10.981 16.0976,0 29.1367,-4.93 29.1367,-10.981" /><path
             id="path108"
             style="fill:none;stroke:#231f20;stroke-width:3.5;stroke-linecap:round;stroke-linejoin:round;stroke-miterlimit:4;stroke-dasharray:none;stroke-opacity:1"
             d="m 80.3086,194.066 c 0,-6.089 -13.0391,-11.019 -29.1367,-11.019 -16.1328,0 -29.1836,4.93 -29.1836,11.019 0,6.051 13.0508,10.981 29.1836,10.981 16.0976,0 29.1367,-4.93 29.1367,-10.981 z" /><path
             id="path110"
             style="fill:#231f20;fill-opacity:1;fill-rule:nonzero;stroke:none"
             d="m 59.7695,194.648 c 0,-1.832 -3.9101,-3.281 -8.75,-3.281 -4.8476,0 -8.75,1.449 -8.75,3.281 0,1.84 3.9024,3.329 8.75,3.329 4.8399,0 8.75,-1.489 8.75,-3.329" /></g></g></g></g></svg>