<?xml version="1.0" encoding="UTF-8" standalone="no"?>
<svg
   xmlns:dc="http://purl.org/dc/elements/1.1/"
   xmlns:cc="http://creativecommons.org/ns#"
   xmlns:rdf="http://www.w3.org/1999/02/22-rdf-syntax-ns#"
   xmlns:svg="http://www.w3.org/2000/svg"
   xmlns="http://www.w3.org/2000/svg"
   viewBox="0 0 18.924999 38.137501"
   height="38.137501"
   width="18.924999"
   xml:space="preserve"
   version="1.1"
   id="svg2"><metadata
     id="metadata8"><rdf:RDF><cc:Work
         rdf:about=""><dc:format>image/svg+xml</dc:format><dc:type
           rdf:resource="http://purl.org/dc/dcmitype/StillImage" /></cc:Work></rdf:RDF></metadata><defs
     id="defs6"><clipPath
       id="clipPath18"
       clipPathUnits="userSpaceOnUse"><path
         id="path20"
         d="M 0,0 0,305 150,305 150,0 0,0 Z" /></clipPath></defs><g
     transform="matrix(1.25,0,0,-1.25,0,38.1375)"
     id="g10"><g
       transform="scale(0.1,0.1)"
       id="g12"><g
         id="g14"><g
           clip-path="url(#clipPath18)"
           id="g16"><path
             id="path22"
             style="fill:#087fbf;fill-opacity:1;fill-rule:nonzero;stroke:none"
             d="m 6.83203,6.82422 91.3672,0 0,245.109 -91.3672,0 0,-245.109 z" /><path
             id="path24"
             style="fill:#087fbf;fill-opacity:1;fill-rule:nonzero;stroke:none"
             d="m 98.1992,6.82422 49.1598,49.14458 0,245.1052 -91.3863,0 -49.14067,-49.14 91.36717,0 0,-245.10978" /><path
             id="path26"
             style="fill:#087fbf;fill-opacity:1;fill-rule:nonzero;stroke:none"
             d="m 98.1992,251.934 49.1598,49.14" /><path
             id="path28"
             style="fill:#087fbf;fill-opacity:1;fill-rule:nonzero;stroke:none"
             d="m 6.83203,6.82422 91.3672,0 0,245.109 -91.3672,0 0,-245.109 z" /><path
             id="path30"
             style="fill:none;stroke:#ffffff;stroke-width:4;stroke-linecap:butt;stroke-linejoin:miter;stroke-miterlimit:4;stroke-dasharray:none;stroke-opacity:1"
             d="m 98.1992,251.934 -91.36717,0 0,-245.10978 91.36717,0" /><path
             id="path32"
             style="fill:#087fbf;fill-opacity:1;fill-rule:nonzero;stroke:none"
             d="m 98.1992,6.82422 49.1598,49.14458 0,245.1052 -91.3863,0 -49.14067,-49.14 91.36717,0 0,-245.10978" /><path
             id="path34"
             style="fill:none;stroke:#ffffff;stroke-width:4;stroke-linecap:butt;stroke-linejoin:miter;stroke-miterlimit:4;stroke-dasharray:none;stroke-opacity:1"
             d="m 98.1992,6.82422 49.1598,49.14458 0,245.1052 -91.3863,0 -49.14067,-49.14 91.36717,0 0,-245.10978 z" /><path
             id="path36"
             style="fill:#231f20;fill-opacity:1;fill-rule:nonzero;stroke:none"
             d="m 98.1992,251.934 49.1598,49.14" /><path
             id="path38"
             style="fill:none;stroke:#ffffff;stroke-width:4;stroke-linecap:round;stroke-linejoin:round;stroke-miterlimit:4;stroke-dasharray:none;stroke-opacity:1"
             d="m 98.1992,251.934 49.1598,49.14" /><path
             id="path40"
             style="fill:none;stroke:#ffffff;stroke-width:4;stroke-linecap:butt;stroke-linejoin:miter;stroke-miterlimit:4;stroke-dasharray:none;stroke-opacity:1"
             d="m 98.1992,251.934 -91.36717,0 0,-245.10978 91.36717,0" /><path
             id="path42"
             style="fill:none;stroke:#ffffff;stroke-width:4;stroke-linecap:butt;stroke-linejoin:miter;stroke-miterlimit:4;stroke-dasharray:none;stroke-opacity:1"
             d="m 98.1992,6.82422 49.1598,49.14458 0,245.1052 -91.3863,0 -49.14067,-49.14 91.36717,0 0,-245.10978 z" /><path
             id="path44"
             style="fill:none;stroke:#ffffff;stroke-width:4;stroke-linecap:butt;stroke-linejoin:miter;stroke-miterlimit:4;stroke-dasharray:none;stroke-opacity:1"
             d="m 98.1992,251.934 49.1598,49.14" /><path
             id="path46"
             style="fill:#ffffff;fill-opacity:1;fill-rule:nonzero;stroke:none"
             d="m 82.3203,66.0469 c 0,-6.0586 -13.0469,-10.9805 -29.1601,-10.9805 -16.1133,0 -29.1797,4.9219 -29.1797,10.9805 0,6.0937 13.0664,11.0117 29.1797,11.0117 16.1132,0 29.1601,-4.918 29.1601,-11.0117" /><path
             id="path48"
             style="fill:none;stroke:#231f20;stroke-width:3.5;stroke-linecap:round;stroke-linejoin:round;stroke-miterlimit:4;stroke-dasharray:none;stroke-opacity:1"
             d="m 82.3203,66.0469 c 0,-6.0586 -13.0469,-10.9805 -29.1601,-10.9805 -16.1133,0 -29.1797,4.9219 -29.1797,10.9805 0,6.0937 13.0664,11.0117 29.1797,11.0117 16.1132,0 29.1601,-4.918 29.1601,-11.0117 z" /><path
             id="path50"
             style="fill:#231f20;fill-opacity:1;fill-rule:nonzero;stroke:none"
             d="m 61.7734,66.6484 c 0,-1.8125 -3.9257,-3.3007 -8.75,-3.3007 -4.8437,0 -8.75,1.4882 -8.75,3.3007 0,1.836 3.9063,3.3008 8.75,3.3008 4.8243,0 8.75,-1.4648 8.75,-3.3008" /><path
             id="path52"
             style="fill:#231f20;fill-opacity:1;fill-rule:nonzero;stroke:none"
             d="m 61.7734,72.6445 c 0,-1.8164 -3.9257,-3.2812 -8.75,-3.2812 -4.8437,0 -8.75,1.4648 -8.75,3.2812 0,1.836 3.9063,3.3008 8.75,3.3008 4.8243,0 8.75,-1.4648 8.75,-3.3008" /><path
             id="path54"
             style="fill:#ffffff;fill-opacity:1;fill-rule:nonzero;stroke:none"
             d="m 82.3203,78.0586 c 0,-6.0781 -13.0469,-11 -29.1601,-11 -16.1133,0 -29.1797,4.9219 -29.1797,11 0,6.0742 13.0664,10.9961 29.1797,10.9961 16.1132,0 29.1601,-4.9219 29.1601,-10.9961" /><path
             id="path56"
             style="fill:none;stroke:#231f20;stroke-width:3.5;stroke-linecap:round;stroke-linejoin:round;stroke-miterlimit:4;stroke-dasharray:none;stroke-opacity:1"
             d="m 82.3203,78.0586 c 0,-6.0781 -13.0469,-11 -29.1601,-11 -16.1133,0 -29.1797,4.9219 -29.1797,11 0,6.0742 13.0664,10.9961 29.1797,10.9961 16.1132,0 29.1601,-4.9219 29.1601,-10.9961 z" /><path
             id="path58"
             style="fill:#231f20;fill-opacity:1;fill-rule:nonzero;stroke:none"
             d="m 61.7734,78.6406 c 0,-1.8164 -3.9257,-3.2812 -8.75,-3.2812 -4.8437,0 -8.75,1.4648 -8.75,3.2812 0,1.836 3.9063,3.3242 8.75,3.3242 4.8243,0 8.75,-1.4882 8.75,-3.3242" /><path
             id="path60"
             style="fill:#231f20;fill-opacity:1;fill-rule:nonzero;stroke:none"
             d="m 61.7734,84.6563 c 0,-1.8125 -3.9257,-3.3008 -8.75,-3.3008 -4.8437,0 -8.75,1.4883 -8.75,3.3008 0,1.8164 3.9063,3.3046 8.75,3.3046 4.8243,0 8.75,-1.4882 8.75,-3.3046" /><path
             id="path62"
             style="fill:#ffffff;fill-opacity:1;fill-rule:nonzero;stroke:none"
             d="m 82.3203,90.0508 c 0,-6.0781 -13.0469,-10.9961 -29.1601,-10.9961 -16.1133,0 -29.1797,4.918 -29.1797,10.9961 0,6.0898 13.0664,11.0122 29.1797,11.0122 16.1132,0 29.1601,-4.9224 29.1601,-11.0122" /><path
             id="path64"
             style="fill:none;stroke:#231f20;stroke-width:3.5;stroke-linecap:round;stroke-linejoin:round;stroke-miterlimit:4;stroke-dasharray:none;stroke-opacity:1"
             d="m 82.3203,90.0508 c 0,-6.0781 -13.0469,-10.9961 -29.1601,-10.9961 -16.1133,0 -29.1797,4.918 -29.1797,10.9961 0,6.0898 13.0664,11.0122 29.1797,11.0122 16.1132,0 29.1601,-4.9224 29.1601,-11.0122 z" /><path
             id="path66"
             style="fill:#231f20;fill-opacity:1;fill-rule:nonzero;stroke:none"
             d="m 61.7734,90.6523 c 0,-1.8125 -3.9257,-3.3007 -8.75,-3.3007 -4.8437,0 -8.75,1.4882 -8.75,3.3007 0,1.8204 3.9063,3.3008 8.75,3.3008 4.8243,0 8.75,-1.4804 8.75,-3.3008" /><path
             id="path68"
             style="fill:#ffffff;fill-opacity:1;fill-rule:nonzero;stroke:none"
             d="m 82.3203,114.055 c 0,-6.078 -13.0469,-10.996 -29.1601,-10.996 -16.1133,0 -29.1797,4.918 -29.1797,10.996 0,6.074 13.0664,10.996 29.1797,10.996 16.1132,0 29.1601,-4.922 29.1601,-10.996" /><path
             id="path70"
             style="fill:none;stroke:#231f20;stroke-width:3.5;stroke-linecap:round;stroke-linejoin:round;stroke-miterlimit:4;stroke-dasharray:none;stroke-opacity:1"
             d="m 82.3203,114.055 c 0,-6.078 -13.0469,-10.996 -29.1601,-10.996 -16.1133,0 -29.1797,4.918 -29.1797,10.996 0,6.074 13.0664,10.996 29.1797,10.996 16.1132,0 29.1601,-4.922 29.1601,-10.996 z" /><path
             id="path72"
             style="fill:#231f20;fill-opacity:1;fill-rule:nonzero;stroke:none"
             d="m 61.7734,114.656 c 0,-1.812 -3.9257,-3.301 -8.75,-3.301 -4.8437,0 -8.75,1.489 -8.75,3.301 0,1.817 3.9063,3.305 8.75,3.305 4.8243,0 8.75,-1.488 8.75,-3.305" /><path
             id="path74"
             style="fill:#231f20;fill-opacity:1;fill-rule:nonzero;stroke:none"
             d="m 61.7734,120.652 c 0,-1.812 -3.9257,-3.3 -8.75,-3.3 -4.8437,0 -8.75,1.488 -8.75,3.3 0,1.821 3.9063,3.301 8.75,3.301 4.8243,0 8.75,-1.48 8.75,-3.301" /><path
             id="path76"
             style="fill:#ffffff;fill-opacity:1;fill-rule:nonzero;stroke:none"
             d="m 82.3203,126.047 c 0,-6.059 -13.0469,-10.981 -29.1601,-10.981 -16.1133,0 -29.1797,4.922 -29.1797,10.981 0,6.094 13.0664,11.012 29.1797,11.012 16.1132,0 29.1601,-4.918 29.1601,-11.012" /><path
             id="path78"
             style="fill:none;stroke:#231f20;stroke-width:3.5;stroke-linecap:round;stroke-linejoin:round;stroke-miterlimit:4;stroke-dasharray:none;stroke-opacity:1"
             d="m 82.3203,126.047 c 0,-6.059 -13.0469,-10.981 -29.1601,-10.981 -16.1133,0 -29.1797,4.922 -29.1797,10.981 0,6.094 13.0664,11.012 29.1797,11.012 16.1132,0 29.1601,-4.918 29.1601,-11.012 z" /><path
             id="path80"
             style="fill:#231f20;fill-opacity:1;fill-rule:nonzero;stroke:none"
             d="m 61.7734,126.648 c 0,-1.812 -3.9257,-3.3 -8.75,-3.3 -4.8437,0 -8.75,1.488 -8.75,3.3 0,1.836 3.9063,3.301 8.75,3.301 4.8243,0 8.75,-1.465 8.75,-3.301" /><path
             id="path82"
             style="fill:#231f20;fill-opacity:1;fill-rule:nonzero;stroke:none"
             d="m 61.7734,132.645 c 0,-1.817 -3.9257,-3.282 -8.75,-3.282 -4.8437,0 -8.75,1.465 -8.75,3.282 0,1.835 3.9063,3.3 8.75,3.3 4.8243,0 8.75,-1.465 8.75,-3.3" /><path
             id="path84"
             style="fill:#ffffff;fill-opacity:1;fill-rule:nonzero;stroke:none"
             d="m 82.3203,138.059 c 0,-6.079 -13.0469,-11 -29.1601,-11 -16.1133,0 -29.1797,4.921 -29.1797,11 0,6.074 13.0664,10.996 29.1797,10.996 16.1132,0 29.1601,-4.922 29.1601,-10.996" /><path
             id="path86"
             style="fill:none;stroke:#231f20;stroke-width:3.5;stroke-linecap:round;stroke-linejoin:round;stroke-miterlimit:4;stroke-dasharray:none;stroke-opacity:1"
             d="m 82.3203,138.059 c 0,-6.079 -13.0469,-11 -29.1601,-11 -16.1133,0 -29.1797,4.921 -29.1797,11 0,6.074 13.0664,10.996 29.1797,10.996 16.1132,0 29.1601,-4.922 29.1601,-10.996 z" /><path
             id="path88"
             style="fill:#231f20;fill-opacity:1;fill-rule:nonzero;stroke:none"
             d="m 61.7734,138.641 c 0,-1.817 -3.9257,-3.282 -8.75,-3.282 -4.8437,0 -8.75,1.465 -8.75,3.282 0,1.836 3.9063,3.324 8.75,3.324 4.8243,0 8.75,-1.488 8.75,-3.324" /><path
             id="path90"
             style="fill:#ffffff;fill-opacity:1;fill-rule:nonzero;stroke:none"
             d="m 82.3203,162.059 c 0,-6.075 -13.0469,-10.996 -29.1601,-10.996 -16.1133,0 -29.1797,4.921 -29.1797,10.996 0,6.078 13.0664,11 29.1797,11 16.1132,0 29.1601,-4.922 29.1601,-11" /><path
             id="path92"
             style="fill:none;stroke:#231f20;stroke-width:3.5;stroke-linecap:round;stroke-linejoin:round;stroke-miterlimit:4;stroke-dasharray:none;stroke-opacity:1"
             d="m 82.3203,162.059 c 0,-6.075 -13.0469,-10.996 -29.1601,-10.996 -16.1133,0 -29.1797,4.921 -29.1797,10.996 0,6.078 13.0664,11 29.1797,11 16.1132,0 29.1601,-4.922 29.1601,-11 z" /><path
             id="path94"
             style="fill:#231f20;fill-opacity:1;fill-rule:nonzero;stroke:none"
             d="m 61.7734,162.645 c 0,-1.817 -3.9257,-3.282 -8.75,-3.282 -4.8437,0 -8.75,1.465 -8.75,3.282 0,1.835 3.9063,3.3 8.75,3.3 4.8243,0 8.75,-1.465 8.75,-3.3" /><path
             id="path96"
             style="fill:#231f20;fill-opacity:1;fill-rule:nonzero;stroke:none"
             d="m 61.7734,168.641 c 0,-1.817 -3.9257,-3.282 -8.75,-3.282 -4.8437,0 -8.75,1.465 -8.75,3.282 0,1.836 3.9063,3.324 8.75,3.324 4.8243,0 8.75,-1.488 8.75,-3.324" /><path
             id="path98"
             style="fill:#ffffff;fill-opacity:1;fill-rule:nonzero;stroke:none"
             d="m 82.3203,174.055 c 0,-6.078 -13.0469,-10.996 -29.1601,-10.996 -16.1133,0 -29.1797,4.918 -29.1797,10.996 0,6.082 13.0664,11.004 29.1797,11.004 16.1132,0 29.1601,-4.922 29.1601,-11.004" /><path
             id="path100"
             style="fill:none;stroke:#231f20;stroke-width:3.5;stroke-linecap:round;stroke-linejoin:round;stroke-miterlimit:4;stroke-dasharray:none;stroke-opacity:1"
             d="m 82.3203,174.055 c 0,-6.078 -13.0469,-10.996 -29.1601,-10.996 -16.1133,0 -29.1797,4.918 -29.1797,10.996 0,6.082 13.0664,11.004 29.1797,11.004 16.1132,0 29.1601,-4.922 29.1601,-11.004 z" /><path
             id="path102"
             style="fill:#231f20;fill-opacity:1;fill-rule:nonzero;stroke:none"
             d="m 61.7734,174.656 c 0,-1.812 -3.9257,-3.301 -8.75,-3.301 -4.8437,0 -8.75,1.489 -8.75,3.301 0,1.828 3.9063,3.293 8.75,3.293 4.8243,0 8.75,-1.465 8.75,-3.293" /><path
             id="path104"
             style="fill:#231f20;fill-opacity:1;fill-rule:nonzero;stroke:none"
             d="m 61.7734,180.645 c 0,-1.817 -3.9257,-3.282 -8.75,-3.282 -4.8437,0 -8.75,1.465 -8.75,3.282 0,1.835 3.9063,3.3 8.75,3.3 4.8243,0 8.75,-1.465 8.75,-3.3" /><path
             id="path106"
             style="fill:#ffffff;fill-opacity:1;fill-rule:nonzero;stroke:none"
             d="m 82.3203,186.055 c 0,-6.075 -13.0469,-10.989 -29.1601,-10.989 -16.1133,0 -29.1797,4.914 -29.1797,10.989 0,6.074 13.0664,10.996 29.1797,10.996 16.1132,0 29.1601,-4.922 29.1601,-10.996" /><path
             id="path108"
             style="fill:none;stroke:#231f20;stroke-width:3.5;stroke-linecap:round;stroke-linejoin:round;stroke-miterlimit:4;stroke-dasharray:none;stroke-opacity:1"
             d="m 82.3203,186.055 c 0,-6.075 -13.0469,-10.989 -29.1601,-10.989 -16.1133,0 -29.1797,4.914 -29.1797,10.989 0,6.074 13.0664,10.996 29.1797,10.996 16.1132,0 29.1601,-4.922 29.1601,-10.996 z" /><path
             id="path110"
             style="fill:#231f20;fill-opacity:1;fill-rule:nonzero;stroke:none"
             d="m 61.7734,186.641 c 0,-1.817 -3.9257,-3.282 -8.75,-3.282 -4.8437,0 -8.75,1.465 -8.75,3.282 0,1.836 3.9063,3.32 8.75,3.32 4.8243,0 8.75,-1.484 8.75,-3.32" /></g></g></g></g></svg>