<?xml version="1.0" encoding="UTF-8" standalone="no"?>
<svg
   xmlns:dc="http://purl.org/dc/elements/1.1/"
   xmlns:cc="http://creativecommons.org/ns#"
   xmlns:rdf="http://www.w3.org/1999/02/22-rdf-syntax-ns#"
   xmlns:svg="http://www.w3.org/2000/svg"
   xmlns="http://www.w3.org/2000/svg"
   viewBox="0 0 30 13.75"
   height="13.75"
   width="30"
   xml:space="preserve"
   version="1.1"
   id="svg2"><metadata
     id="metadata8"><rdf:RDF><cc:Work
         rdf:about=""><dc:format>image/svg+xml</dc:format><dc:type
           rdf:resource="http://purl.org/dc/dcmitype/StillImage" /></cc:Work></rdf:RDF></metadata><defs
     id="defs6" /><g
     transform="matrix(1.25,0,0,-1.25,0,13.75)"
     id="g10"><g
       transform="scale(0.1,0.1)"
       id="g12"><path
         id="path14"
         style="fill:none;stroke:#b2b2b2;stroke-width:15;stroke-linecap:butt;stroke-linejoin:miter;stroke-miterlimit:4;stroke-dasharray:none;stroke-opacity:1"
         d="m 63.75,48.9102 c 12.3398,0 22.3789,10.039 22.3789,22.4179 0,12.3438 -10.0391,22.3828 -22.3789,22.3828 -12.3789,0 -22.4219,-10.039 -22.4219,-22.3828 0,-12.3789 10.043,-22.4179 22.4219,-22.4179 z" /><path
         id="path16"
         style="fill:none;stroke:#b2b2b2;stroke-width:15;stroke-linecap:butt;stroke-linejoin:miter;stroke-miterlimit:4;stroke-dasharray:none;stroke-opacity:1"
         d="m 63.75,5.39063 c 12.3398,0 22.3789,9.99997 22.3789,22.37887 0,12.3516 -10.0391,22.3907 -22.3789,22.3907 -12.3789,0 -22.4219,-10.0391 -22.4219,-22.3907 0,-12.3789 10.043,-22.37887 22.4219,-22.37887 z" /><path
         id="path18"
         style="fill:none;stroke:#b2b2b2;stroke-width:15;stroke-linecap:butt;stroke-linejoin:miter;stroke-miterlimit:4;stroke-dasharray:none;stroke-opacity:1"
         d="m 30.6211,31.8789 c 9.8906,0 17.8984,8.043 17.8984,17.9219 0,9.8906 -8.0078,17.9297 -17.8984,17.9297 -9.9219,0 -17.9219,-8.0391 -17.9219,-17.9297 0,-9.8789 8,-17.9219 17.9219,-17.9219 z" /><path
         id="path20"
         style="fill:none;stroke:#b2b2b2;stroke-width:15;stroke-linecap:butt;stroke-linejoin:miter;stroke-miterlimit:4;stroke-dasharray:none;stroke-opacity:1"
         d="m 84.4492,85.0781 c 0.1211,-8.3593 3.4414,-15.8593 6.8008,-23.3593 2.5,-5.8204 8.3203,-10.8204 14.961,-13.3204" /><path
         id="path22"
         style="fill:none;stroke:#b2b2b2;stroke-width:15;stroke-linecap:butt;stroke-linejoin:miter;stroke-miterlimit:4;stroke-dasharray:none;stroke-opacity:1"
         d="m 84.4492,12.5781 c 0.1211,8.3203 3.4414,15.8203 6.8008,23.3203 2.5,5.8204 8.3203,10.8204 14.961,13.3204" /><path
         id="path24"
         style="fill:none;stroke:#02709f;stroke-width:15;stroke-linecap:butt;stroke-linejoin:miter;stroke-miterlimit:4;stroke-dasharray:none;stroke-opacity:1"
         d="m 56.3281,58.2813 c 12.3828,0 22.4219,10.039 22.4219,22.4179 0,12.3516 -10.0391,22.3908 -22.4219,22.3908 -12.3476,0 -22.3789,-10.0392 -22.3789,-22.3908 0,-12.3789 10.0313,-22.4179 22.3789,-22.4179 z" /><path
         id="path26"
         style="fill:none;stroke:#02709f;stroke-width:15;stroke-linecap:butt;stroke-linejoin:miter;stroke-miterlimit:4;stroke-dasharray:none;stroke-opacity:1"
         d="m 56.3281,14.7695 c 12.3828,0 22.4219,10 22.4219,22.3789 0,12.3399 -10.0391,22.3829 -22.4219,22.3829 -12.3476,0 -22.3789,-10.043 -22.3789,-22.3829 0,-12.3789 10.0313,-22.3789 22.3789,-22.3789 z" /><path
         id="path28"
         style="fill:none;stroke:#02709f;stroke-width:15;stroke-linecap:butt;stroke-linejoin:miter;stroke-miterlimit:4;stroke-dasharray:none;stroke-opacity:1"
         d="m 23.1992,41.25 c 9.9219,0 17.9297,8.0508 17.9297,17.9297 0,9.8789 -8.0078,17.9297 -17.9297,17.9297 -9.8789,0 -17.89061,-8.0508 -17.89061,-17.9297 0,-9.8789 8.01171,-17.9297 17.89061,-17.9297 z" /><path
         id="path30"
         style="fill:none;stroke:#02709f;stroke-width:15;stroke-linecap:butt;stroke-linejoin:miter;stroke-miterlimit:4;stroke-dasharray:none;stroke-opacity:1"
         d="m 77.0703,94.4102 c 0.1211,-8.3204 3.4414,-15.8204 6.7578,-23.3204 2.5,-5.8203 8.3633,-10.8203 15,-13.3203" /><path
         id="path32"
         style="fill:none;stroke:#000000;stroke-width:15;stroke-linecap:butt;stroke-linejoin:miter;stroke-miterlimit:4;stroke-dasharray:none;stroke-opacity:1"
         d="m 77.0703,21.9492 c 0.1211,8.3203 3.4414,15.8203 6.7578,23.3203 2.5,5.8203 8.3633,10.8203 15,13.3203" /><path
         id="path34"
         style="fill:#b2b2b2;fill-opacity:1;fill-rule:nonzero;stroke:none"
         d="m 239.57,35.2695 0,23.3203 -101.949,0 c -1.332,5.5508 -3.793,9.3008 -6.601,9.3008 -2.821,0 -5.239,-3.75 -6.61,-9.3008 l -1.711,0 c -1.289,5.7891 -3.789,9.6915 -6.679,9.6915 -2.899,0 -5.399,-3.9024 -6.68,-9.6915 l -17.0705,0 0,-19.1406 17.2615,0 c 1.367,-5.3476 3.75,-8.8594 6.489,-8.8594 2.73,0 5.109,3.5118 6.48,8.8594 l 1.91,0 c 1.371,-5.5781 3.789,-9.289 6.61,-9.289 2.808,0 5.269,3.7109 6.601,9.289 l 76.328,0 0,-37.30076 24.332,0 0,9.14066 -11.011,0 0,6.4804 11.679,0 0,9.1407 -11.679,0 0,8.3593 12.3,0" /><path
         id="path36"
         style="fill:#02709f;fill-opacity:1;fill-rule:nonzero;stroke:none"
         d="m 232.191,44.6484 0,23.3204 -101.992,0 c -1.328,5.5507 -3.75,9.3007 -6.57,9.3007 -2.809,0 -5.27,-3.75 -6.598,-9.3007 l -1.722,0 c -1.289,5.7812 -3.829,9.6914 -6.68,9.6914 -2.891,0 -5.391,-3.9102 -6.719,-9.6914 l -17.0311,0 0,-19.1407 17.2691,0 c 1.332,-5.3476 3.75,-8.8672 6.481,-8.8672 2.742,0 5.121,3.5196 6.492,8.8672 l 1.91,0 c 1.328,-5.5898 3.789,-9.2968 6.598,-9.2968 2.82,0 5.242,3.707 6.57,9.2968 l 76.36,0 0,-37.3086 24.339,0 0,9.1407 -11.019,0 0,6.4882 11.68,0 0,9.1407 -11.68,0 0,8.3593 12.312,0" /></g></g></svg>