<svg xmlns="http://www.w3.org/2000/svg" viewBox="0 0 30 13.75" height="13.75" width="30"><path d="M7.969 7.636a2.8 2.8 0 1 0-2.803-2.802 2.803 2.803 0 0 0 2.803 2.802z" fill="none" stroke="#b2b2b2" stroke-width="1.875"/><path d="M7.969 13.076a2.797 2.797 0 0 0 0-5.596 2.799 2.799 0 0 0 0 5.596z" fill="none" stroke="#b2b2b2" stroke-width="1.875"/><path d="M3.828 9.765a2.24 2.24 0 0 0 2.237-2.24 2.24 2.24 0 1 0-2.237 2.24zM10.556 3.115c.015 1.045.43 1.983.85 2.92.313.728 1.04 1.353 1.87 1.665" fill="none" stroke="#b2b2b2" stroke-width="1.875"/><path d="M10.556 12.178c.015-1.04.43-1.978.85-2.915.313-.728 1.04-1.353 1.87-1.665" fill="none" stroke="#b2b2b2" stroke-width="1.875"/><path d="M7.041 6.465a2.803 2.803 0 0 0 2.803-2.802A2.8 2.8 0 1 0 7.04 6.465z" fill="none" stroke="#02709f" stroke-width="1.875"/><path d="M7.041 11.904a2.799 2.799 0 0 0 2.803-2.798 2.8 2.8 0 0 0-5.6 0 2.797 2.797 0 0 0 2.797 2.798z" fill="none" stroke="#02709f" stroke-width="1.875"/><path d="M2.9 8.594a2.242 2.242 0 0 0 0-4.483 2.24 2.24 0 0 0 0 4.483zM9.634 1.949c.015 1.04.43 1.977.845 2.915.312.727 1.045 1.352 1.875 1.665" fill="none" stroke="#02709f" stroke-width="1.875"/><path d="M9.634 11.006c.015-1.04.43-1.977.845-2.915.312-.727 1.045-1.352 1.875-1.665" fill="none" stroke="#000" stroke-width="1.875"/><path d="M29.946 9.341V6.426H17.203c-.167-.694-.475-1.162-.826-1.162-.352 0-.654.468-.826 1.162h-.214c-.16-.723-.473-1.211-.835-1.211s-.674.488-.835 1.211h-2.133V8.82h2.157c.171.668.47 1.107.811 1.107.342 0 .64-.439.81-1.107h.24c.17.697.473 1.161.825 1.161.351 0 .66-.464.826-1.161h9.54v4.662h3.042V12.34H28.41v-.81h1.46v-1.143h-1.46V9.341h1.537" fill="#b2b2b2"/><path d="M29.024 8.169V5.254h-12.75c-.165-.694-.468-1.163-.82-1.163-.351 0-.66.47-.825 1.163h-.215c-.161-.723-.479-1.212-.835-1.212-.362 0-.674.49-.84 1.212h-2.13v2.392h2.16c.166.669.468 1.109.81 1.109s.64-.44.811-1.109h.239c.166.7.474 1.163.825 1.163.352 0 .655-.464.82-1.163h9.546v4.664h3.042v-1.143h-1.377v-.81h1.46V9.213h-1.46V8.169h1.539" fill="#02709f"/></svg>