<?xml version="1.0" encoding="UTF-8" standalone="no"?>
<svg
   xmlns:dc="http://purl.org/dc/elements/1.1/"
   xmlns:cc="http://creativecommons.org/ns#"
   xmlns:rdf="http://www.w3.org/1999/02/22-rdf-syntax-ns#"
   xmlns:svg="http://www.w3.org/2000/svg"
   xmlns="http://www.w3.org/2000/svg"
   viewBox="0 0 45 61.25"
   height="61.25"
   width="45"
   xml:space="preserve"
   version="1.1"
   id="svg2"><metadata
     id="metadata8"><rdf:RDF><cc:Work
         rdf:about=""><dc:format>image/svg+xml</dc:format><dc:type
           rdf:resource="http://purl.org/dc/dcmitype/StillImage" /></cc:Work></rdf:RDF></metadata><defs
     id="defs6" /><g
     transform="matrix(1.25,0,0,-1.25,0,61.25)"
     id="g10"><g
       transform="scale(0.1,0.1)"
       id="g12"><path
         id="path14"
         style="fill:#231f20;fill-opacity:1;fill-rule:evenodd;stroke:none"
         d="m 352.422,398.352 -0.543,9.097 -1.059,9.071 -2.66,9.058 -2.648,8.012 -4.223,8 -4.258,7.469 -5.269,7.461 -5.821,6.402 -6.332,5.859 -7.418,5.348 -7.421,4.262 -7.93,4.257 -7.93,2.692 -8.988,2.66 -9.024,1.059 -8.988,0.543 -9.531,-0.543 -8.981,-1.059 -8.476,-2.66 -8.442,-2.692 -7.96,-4.257 -7.391,-4.262 -6.91,-5.348 -6.328,-5.859 -5.821,-6.402 -5.269,-7.461 -4.262,-7.469 -4.219,-8 -2.66,-8.012 -2.648,-9.058 -1.063,-9.071 -0.5,-9.097 0.5,-8.512 0.551,-8.012 1.559,-7.457 2.66,-7.461 -5.821,2.649 -4.218,2.152 -3.16,1.059 -3.211,1.601 -2.649,0 -2.109,-1.062 -1.571,-1.598 -41.281,-44.301 -1.058,-1.601 -0.551,-1.598 -0.5,-2.109 0.5,-2.153 1.101,-3.199 3.161,-8.012 3.168,-9.058 2.652,-7.461 -2.113,-2.699 -4.758,-4.758 -1.063,-1.102 -0.539,-1.601 -0.508,-1.047 0,-3.75 0.508,-5.313 0,-10.668 -2.109,-2.152 -3.711,-4.25 -5.828,-6.41 -7.4221,-7.457 -8.4297,-9.063 -9.539,-10.16 -9.5313,-10.66 L 55.5508,199.91 45.5117,189.25 35.9805,178.59 26.4492,168.43 18.5195,159.91 11.6406,152.41 6.32813,146.559 2.66016,142.84 1.55859,141.75 0.511719,140.148 0,138.039 l 0,-2.148 0.511719,-1.602 11.636681,-31.988 1.0508,-2.153 1.6016,-1.5972 2.1094,-0.5117 2.1484,-0.5508 42.3125,1.0625 1.5977,0.539 1.5625,0.5118 1.0898,0.5464 1.0195,1.051 10.0782,11.211 1.0507,1.102 0.5118,1.047 0.5468,1.601 0,10.668 -0.5468,4.801 4.7695,0 4.7578,0.551 5.8203,0 1.6016,0.511 1.0586,0.539 1.0507,1.059 10.5902,11.211 1.601,2.148 0.508,3.204 -1.059,2.66 -1.558,2.109 -1.602,2.149 -1.05,2.652 0,3.207 2.109,3.199 2.101,1.602 2.661,1.09 3.16,0 3.168,-2.141 2.652,-1.609 2.66,-0.54 2.66,0.54 2.649,1.609 10.039,11.211 1.062,1.051 0.539,1.597 0.508,1.063 0,6.398 -0.508,4.262 0,4.848 4.731,0.5 10.59,0 1.051,0.55 1.597,1.051 1.063,0.551 1.047,1.059 2.113,2.652 2.656,2.699 2.113,2.649 6.36,0 2.621,0.55 2.656,-2.691 3.203,-3.719 3.168,-3.199 2.102,-2.652 -1.051,-28.289 -1.602,-56.008 -2.109,-54.9612 -1.059,-24.5703 0.551,-2.1094 0.508,-1.6016 1.051,-1.6093 1.609,-1.6016 29.641,-16.0078 2.109,-1.06252 2.11,0 2.66,1.06252 1.562,1.0508 31.25,29.3789 1.02,1.0508 0.539,1.0585 0.551,1.6016 0,1.0899 0.507,15.4687 0,2.6602 -1.058,1.6015 -0.539,1.0469 -1.02,1.1016 -2.152,2.1093 -3.16,3.1993 -3.168,3.75 3.719,3.2031 3.16,3.207 2.109,2.1016 1.051,1.0976 1.058,1.0508 0.551,1.0625 0.5,1.5977 0.551,1.6015 0.512,14.9614 -0.512,3.207 -1.602,2.101 -2.109,1.61 -3.16,0.539 -2.66,0.511 -2.11,1.641 -2.109,2.109 -0.551,3.75 0.551,2.66 1.559,2.649 2.113,1.601 3.707,0.551 3.172,0.508 2.148,1.641 1.563,2.109 1.047,3.199 0.55,14.922 0,1.649 -0.55,1.05 -1.047,1.602 -0.512,1.059 -1.051,1.05 -2.148,2.7 -3.172,3.199 -3.16,3.16 3.711,3.211 3.16,3.199 2.109,2.152 1.063,1.047 1.047,1.102 1.101,1.601 0.5,1.047 0,13.871 3.711,3.2 4.77,3.75 3.711,3.711 1.558,1.609 0.551,1.051 1.059,1.64 0.539,1.059 0,1.601 0.511,13.86 5.27,5.359 4.262,5.86 4.218,5.851 3.711,6.41 2.66,6.91 2.11,7.469 1.558,7.5 0.551,8 0,9.071 -1.57,8.511 -2.141,8.559 -2.621,8 12.152,5.859 10.579,8.012 9.531,9.059 8.441,10.671 6.367,11.207 4.762,12.262 3.168,13.32 1.094,13.872 z m -331.2501,-277.93 4.7695,4.808 5.7774,6.399 6.9101,7.461 7.9297,8.558 8.4414,9.063 9.5313,10.117 9.0195,10.152 9.5,10.122 9.5273,9.609 8.4729,9.609 8.48,9.059 7.418,8.012 6.332,6.41 4.77,5.347 3.711,3.711 1.558,2.153 1.059,-1.102 1.09,-0.5 0.511,-1.101 1.051,-1.047 -1.562,-1.602 -3.707,-3.711 -4.774,-5.359 -5.816,-6.399 -7.422,-8.011 -7.93,-8.52 -8.9802,-9.058 -9.0312,-10.153 -9.5273,-10.16 -8.9805,-10.117 -9.5313,-10.113 -8.9882,-9.61 -7.9297,-9.07 -7.9297,-8 -6.3711,-6.957 -5.2695,-5.863 -0.5508,1.062 -0.5,1.598 -0.5508,1.601 -0.5078,1.602 z m 129.6091,92.848 -2.109,0 -2.652,-0.54 -13.75,0 -1.571,-0.55 -1.09,-0.551 -1.558,-0.5 -1.063,-1.059 -0.539,-1.09 -0.508,-1.058 -0.55,-1.602 0,-3.75 0.55,-5.308 0,-10.672 -1.062,-1.09 -3.199,-3.199 -3.711,1.597 -3.668,0.551 -3.711,-0.551 -3.168,-0.507 -3.203,-1.09 -3.168,-1.602 -2.6526,-1.57 -2.1093,-2.149 -4.7696,-6.949 -1.5976,-6.91 0.5469,-6.41 2.6523,-5.859 -1.6016,-1.641 -1.0507,-0.512 -0.5469,-1.051 -1.0117,-1.089 -10.6289,0 -2.6211,-0.508 -6.3594,0 -1.5703,-0.551 -1.0899,-1.051 -1.0195,-0.551 -1.0898,-1.058 -0.5118,-1.602 -0.539,-1.09 0,-3.707 0.539,-5.351 0,-11.18 -1.5976,-1.64 -1.0508,-1.559 -1.6016,-1.641 -1.5703,-1.558 -7.4179,0 -3.711,-0.551 -7.9297,0 -4.2187,-0.551 -3.711,0 111.1291,120.039 13.75,-13.32 -1.602,-1.598 -1.047,-1.601 -1.562,-1.602 -1.098,-1.058 z m 37.578,18.128 -1.558,-1.597 -3.211,-3.211 -1.559,-1.602 -3.711,0 -2.148,-0.539 -13.203,0 -0.547,-0.508 -0.512,0 -14.289,13.868 -3.172,2.652 -11.64,11.211 -114.8402,-123.793 -0.5079,2.152 -0.5507,1.598 -0.5,1.601 -0.5508,1.61 2.1094,2.109 4.2617,4.801 5.8203,6.41 7.3789,8 8.4805,9.07 8.9804,10.149 10.0782,10.121 10.0429,11.211 9.5274,10.668 9.5312,10.152 8.9807,9.571 7.929,8.558 6.879,7.461 5.313,5.348 3.168,3.711 1.051,1.09 1.058,1.058 0.539,1.602 0.512,1.05 0,9.11 -0.512,5.859 0,4.801 2.621,2.66 2.661,3.199 2.109,2.153 1.09,1.047 1.051,1.601 0.511,2.11 0,1.64 -0.511,2.11 -1.051,3.21 -3.199,8.508 -3.168,9.102 -2.653,6.922 2.653,2.648 4.218,4.301 4.77,5.309 5.308,5.902 5.274,5.859 5.308,5.348 4.219,4.262 2.66,3.199 2.11,-1.09 2.652,-1.051 6.328,-3.211 7.43,-3.199 3.711,-2.109 3.711,-1.641 1.008,0 2.152,-3.16 2.617,-3.207 2.652,-2.692 2.661,-3.21 3.16,-2.649 2.66,-2.66 3.168,-2.652 3.199,-2.149 0.512,-2.148 1.051,-2.114 1.058,-2.148 1.602,-1.602 2.648,-1.597 2.621,-1.602 2.66,-0.551 5.821,0 2.648,1.09 2.66,1.602 2.11,2.109 3.16,4.813 1.062,5.859 -1.57,5.348 -3.199,4.801 -2.652,2.152 -2.622,1.598 -3.168,0.511 -3.199,0 -2.109,1.098 -1.602,1.601 -2.109,1.559 -2.109,1.641 2.66,1.05 2.609,1.059 2.66,0.551 3.199,0 3.168,-0.551 3.161,-1.598 3.171,-2.152 3.711,-2.66 0.539,-0.5 0.508,-0.551 3.711,-4.258 2.66,-7.5 0,-9.058 -6.371,-10.672 -1.047,-1.602 -0.55,-2.648 0,-2.149 0.55,-2.113 0.539,-1.098 2.11,-3.71 2.66,-4.801 3.16,-6.41 3.719,-6.399 3.16,-5.859 2.66,-5.352 2.102,-3.75 -2.653,-3.168 -4.218,-4.301 -5.309,-5.308 -5.281,-5.902 -5.309,-5.86 -4.761,-5.308 -4.219,-4.801 -2.66,-2.699 -3.161,1.097 -3.71,1.051 -4.77,1.602 -4.219,1.597 -4.761,1.063 -3.719,1.09 -2.102,0.546 -1.058,0.512 -2.11,0.539 -2.109,-0.539 -1.602,-0.512 -1.601,-1.636 -0.508,-0.512 -1.051,-0.551 -0.551,-1.051 z m 16.95,126.954 -4.758,9.058 -4.262,10.16 -2.109,10.121 -1.059,10.661 1.609,13.91 3.711,12.769 6.329,11.758 8.468,10.121 10.043,8.551 11.641,6.41 13.238,3.707 13.75,1.602 13.75,-1.602 12.699,-3.707 11.641,-6.41 10.078,-8.551 8.442,-10.121 6.359,-11.758 3.711,-12.769 1.57,-13.91 -1.058,-11.172 -2.114,-10.16 -4.218,-10.11 -5.309,-9.07 -6.871,-8 -7.93,-6.961 -8.988,-5.859 -10.082,-4.25 -3.668,3.71 -3.711,3.75 -4.262,3.2 -4.758,3.199 -4.222,2.66 -5.27,2.66 -4.769,2.141 -5.309,1.609 -5.82,4.25 -5.821,2.699 -5.82,1.563 -5.281,0 -5.82,-0.512 -4.758,-1.051 -4.77,-1.597 -4.222,-2.699 z m 9.531,-330.7426 -1.09,1.0508 -1.051,0.5507 -1.57,1.0586 -1.051,0.5391 1.563,37.3516 1.597,53.8598 2.114,49.609 0.507,24.531 1.602,-0.5 3.711,0 -1.051,-23.48 -1.601,-49.102 -2.11,-54.4178 -1.57,-41.0508 z m 32.269,158.9806 -3.199,-3.199 -4.769,-4.262 -3.672,-3.75 -2.66,-2.649 -0.539,-1.101 -0.508,-1.598 0,-4.261 1.047,-1.051 0.55,-1.09 1.563,-1.609 3.707,-3.711 4.223,-4.797 3.199,-3.75 0,-2.114 -0.539,-1.597 0,-2.153 -3.711,-1.058 -3.172,-2.141 -2.649,-2.66 -2.109,-2.66 -1.601,-2.688 -1.571,-3.211 -0.539,-3.199 -0.512,-3.203 1.051,-8.008 3.172,-6.371 4.758,-4.289 5.281,-3.211 0,-5.8592 -3.172,-3.1992 -4.758,-3.7109 -3.71,-3.75 -1.571,-1.6016 -1.051,-1.0586 -1.058,-1.5976 -0.539,-1.0508 0,-2.6992 0.539,-1.6016 0.512,-1.6015 2.66,-2.6602 3.707,-3.75 4.222,-4.7969 3.161,-3.2031 -0.512,-2.1094 0,-6.9609 -1.051,-1.0469 -2.148,-1.6016 -2.11,-2.1484 -2.621,-2.6601 -3.199,-2.6524 -2.621,-2.6992 -3.199,-2.6602 -2.621,-2.6484 5.82,163.7889 19.031,-1.058 0,-4.293 -0.512,-2.11 0,-1.609 z m 41.25,93.871 -1.058,-7.973 -1.563,-7.5 -2.648,-7.457 -3.711,-6.91 -3.168,-4.851 -3.711,-4.25 -4.219,-3.711 -4.261,-3.75 -0.5,-5.86 0,-12.269 -0.551,0 -3.707,-3.2 -4.223,-4.3 -3.711,-3.16 -1.558,-1.61 -0.551,-0.539 0,-0.551 -0.547,-0.511 -20.082,1.062 -3.711,0 -15.899,0.539 -6.32,-169.1405 -1.609,1.1016 -1.563,1.0508 -1.597,0.5078 -1.602,1.0898 1.051,28.7891 2.148,55.5114 1.563,53.36 1.058,23.98 0,1.61 -0.507,1.601 -0.551,1.051 -1.051,1.098 -0.512,1.05 -2.148,2.11 -2.61,2.699 -2.66,3.199 1.602,1.051 1.558,1.601 1.059,1.61 1.602,1.601 3.16,-1.062 3.719,-1.09 4.761,-1.559 4.77,-1.101 4.219,-1.598 3.71,-1.051 2.649,-0.55 1.062,-0.551 3.707,0 2.114,1.101 1.597,1.051 40.743,44.297 1.558,1.602 0.551,2.66 0,2.109 -0.551,2.141 -0.5,1.609 -2.109,3.199 -2.66,5.352 -3.711,6.41 -3.711,6.36 -3.168,6.41 -2.653,5.351 -2.109,3.199 4.223,7.469 2.648,7.461 0.512,6.949 -1.012,6.411 5.781,-4.809 5.86,-4.801 4.219,-5.859 4.21,-6.41 3.211,-7.461 2.11,-6.95 1.051,-8.011 0.507,-8.008 z m 4.262,40.039 -1.062,1.602 -1.09,1.558 -1.02,1.649 -1.09,1.562 10.59,4.84 9.531,6.367 8.469,8.012 6.879,8.551 5.82,10.121 4.223,10.66 2.649,11.207 1.058,11.723 -1.558,15.507 -4.258,14.371 -6.883,12.821 -9.527,11.211 -11.09,9.609 -12.703,6.91 -14.289,4.258 -15.36,1.602 -15.351,-1.602 -14.289,-4.258 -12.7,-6.91 -11.64,-9.609 -8.981,-11.211 -7.39,-12.821 -4.258,-14.371 -1.602,-15.507 0.551,-11.172 2.66,-10.66 3.668,-10.161 5.313,-9.058 2.66,-3.711 2.648,-3.75 3.172,-3.75 3.16,-3.211 1.059,-1.051 1.601,-1.058 1.559,-1.598 1.602,-1.094 1.597,-1.058 1.571,-1.051 1.601,-1.598 1.598,-1.101 1.051,-0.5 0.511,-0.551 1.059,-0.508 1.051,-0.551 0.55,-0.539 0,-1.062 0.539,-0.539 0,-2.149 -0.539,-0.512 -1.062,-1.05 -2.109,-1.098 -1.051,1.098 -1.598,0.5 -1.601,1.062 -1.059,0.539 -1.602,1.102 -1.558,1.047 -1.602,1.062 -1.57,1.09 -2.149,2.109 -4.21,3.2 -2.11,2.152 -2.66,2.656 -2.109,2.652 -2.11,2.7 -2.109,3.199 -2.113,2.66 -1.598,3.199 -1.602,2.66 -1.558,3.204 -3.711,8.519 -2.66,9.098 -1.602,9.062 -0.508,9.571 1.602,16.558 4.726,16.02 7.93,13.871 10.082,12.769 12.692,10.16 14.296,8 15.352,4.809 16.91,1.602 16.41,-1.602 15.86,-4.809 13.789,-8 12.691,-10.16 10.039,-12.769 7.93,-13.871 4.769,-16.02 1.602,-16.558 -1.051,-12.774 -2.66,-11.758 -4.769,-11.718 -5.821,-10.661 -7.929,-9.613 -9.02,-8.558 -10.039,-6.911 -11.09,-5.859" /><path
         id="path16"
         style="fill:#c1def5;fill-opacity:1;fill-rule:evenodd;stroke:none"
         d="m 197.891,235.66 1.058,-0.512 2.102,-0.546 3.719,-1.09 4.761,-1.063 4.219,-1.597 4.77,-1.602 3.71,-1.051 3.161,-1.097 2.66,2.699 4.219,4.801 4.761,5.308 5.309,5.86 5.281,5.902 5.309,5.308 4.218,4.301 2.653,3.168 -2.102,3.75 -2.66,5.352 -3.16,5.859 -3.719,6.399 -3.16,6.41 -2.66,4.801 -2.11,3.71 -0.539,1.098 -0.55,2.113 0,2.149 0.55,2.648 1.047,1.602 6.371,10.672 0,9.058 -2.66,7.5 -3.711,4.258 -0.508,0.551 -0.539,0.5 -3.711,2.66 -3.171,2.152 -3.161,1.598 -3.168,0.551 -3.199,0 -2.66,-0.551 -2.609,-1.059 -2.66,-1.05 2.109,-1.641 2.109,-1.559 1.602,-1.601 2.109,-1.098 3.199,0 3.168,-0.511 2.622,-1.598 2.652,-2.152 3.199,-4.801 1.57,-5.348 -1.062,-5.859 -3.16,-4.813 -2.11,-2.109 -2.66,-1.602 -2.648,-1.09 -5.821,0 -2.66,0.551 -2.621,1.602 -2.648,1.597 -1.602,1.602 -1.058,2.148 -1.051,2.114 -0.512,2.148 -3.199,2.149 -3.168,2.652 -2.66,2.66 -3.16,2.649 -2.661,3.21 -2.652,2.692 -2.617,3.207 -2.152,3.16 -1.008,0 -3.711,1.641 -3.711,2.109 -7.43,3.199 -6.328,3.211 -2.652,1.051 -2.11,1.09 -2.66,-3.199 -4.219,-4.262 -5.308,-5.348 -5.274,-5.859 -5.308,-5.902 -4.77,-5.309 -4.218,-4.301 -2.653,-2.648 2.653,-6.922 3.168,-9.102 3.199,-8.508 1.051,-3.21 0.511,-2.11 0,-1.64 -0.511,-2.11 -1.051,-1.601 -1.09,-1.047 -2.109,-2.153 -2.661,-3.199 -2.621,-2.66 0,-4.801 0.512,-5.859 0,-9.11 -0.512,-1.05 -0.539,-1.602 -1.058,-1.058 -1.051,-1.09 -3.168,-3.711 -5.313,-5.348 -6.879,-7.461 -7.929,-8.558 -8.9807,-9.571 L 82.5391,207.379 73.0117,196.711 62.9688,185.5 52.8906,175.379 43.9102,165.23 l -8.4805,-9.07 -7.3789,-8 -5.8203,-6.41 -4.2617,-4.801 -2.1094,-2.109 0.5508,-1.61 0.5,-1.601 0.5507,-1.598 0.5079,-2.152 114.8402,123.793 11.64,-11.211 3.172,-2.652 14.289,-13.868 0.512,0 0.547,0.508 13.203,0 2.148,0.539 3.711,0 1.559,1.602 3.211,3.211 1.558,1.597 0.551,1.051 1.051,0.551 0.508,0.512 1.601,1.636 1.602,0.512 2.109,0.539 2.11,-0.539" /><path
         id="path18"
         style="fill:#c1def5;fill-opacity:1;fill-rule:evenodd;stroke:none"
         d="m 31.2109,112.41 3.711,0 4.2187,0.551 7.9297,0 3.711,0.551 7.4179,0 1.5703,1.558 1.6016,1.641 1.0508,1.559 1.5976,1.64 0,11.18 -0.539,5.351 0,3.707 0.539,1.09 0.5118,1.602 1.0898,1.058 1.0195,0.551 1.0899,1.051 1.5703,0.551 6.3594,0 2.6211,0.508 10.6289,0 1.0117,1.089 0.5469,1.051 1.0507,0.512 1.6016,1.641 -2.6523,5.859 -0.5469,6.41 1.5976,6.91 4.7696,6.949 2.1093,2.149 2.6526,1.57 3.168,1.602 3.203,1.09 3.168,0.507 3.711,0.551 3.668,-0.551 3.711,-1.597 3.199,3.199 1.062,1.09 0,10.672 -0.55,5.308 0,3.75 0.55,1.602 0.508,1.058 0.539,1.09 1.063,1.059 1.558,0.5 1.09,0.551 1.571,0.55 13.75,0 2.652,0.54 2.109,0 1.098,1.058 1.562,1.602 1.047,1.601 1.602,1.598 -13.75,13.32 L 31.2109,112.41" /><path
         id="path20"
         style="fill:#3ca7e4;fill-opacity:1;fill-rule:evenodd;stroke:none"
         d="m 133.32,241.012 -1.558,-2.153 -3.711,-3.711 -4.77,-5.347 -6.332,-6.41 -7.418,-8.012 -8.48,-9.059 -8.4729,-9.609 -9.5273,-9.609 -9.5,-10.122 L 64.5313,166.828 55,156.711 l -8.4414,-9.063 -7.9297,-8.558 -6.9101,-7.461 -5.7774,-6.399 -4.7695,-4.808 0.5078,-1.602 0.5508,-1.601 0.5,-1.598 0.5508,-1.062 5.2695,5.863 6.3711,6.957 7.9297,8 7.9297,9.07 8.9882,9.61 9.5313,10.113 8.9805,10.117 9.5273,10.16 9.0312,10.153 8.9802,9.058 7.93,8.52 7.422,8.011 5.816,6.399 4.774,5.359 3.707,3.711 1.562,1.602 -1.051,1.047 -0.511,1.101 -1.09,0.5 -1.059,1.102" /><path
         id="path22"
         style="fill:#c1def5;fill-opacity:1;fill-rule:evenodd;stroke:none"
         d="m 222.77,31.8711 2.621,2.6484 3.199,2.6602 2.621,2.6992 3.199,2.6524 2.621,2.6601 2.11,2.1484 2.148,1.6016 1.051,1.0469 0,6.9609 0.512,2.1094 -3.161,3.2031 -4.222,4.7969 -3.707,3.75 -2.66,2.6602 -0.512,1.6015 -0.539,1.6016 0,2.6992 0.539,1.0508 1.058,1.5976 1.051,1.0586 1.571,1.6016 3.71,3.75 4.758,3.7109 3.172,3.1992 0,5.8592 -5.281,3.211 -4.758,4.289 -3.172,6.371 -1.051,8.008 0.512,3.203 0.539,3.199 1.571,3.211 1.601,2.688 2.109,2.66 2.649,2.66 3.172,2.141 3.711,1.058 0,2.153 0.539,1.597 0,2.114 -3.199,3.75 -4.223,4.797 -3.707,3.711 -1.563,1.609 -0.55,1.09 -1.047,1.051 0,4.261 0.508,1.598 0.539,1.101 2.66,2.649 3.672,3.75 4.769,4.262 3.199,3.199 0,1.609 0.512,2.11 0,4.293 -19.031,1.058 -5.82,-163.7889" /><path
         id="path24"
         style="fill:#3ca7e4;fill-opacity:1;fill-rule:evenodd;stroke:none"
         d="m 261.91,482.141 -16.91,-1.602 -15.352,-4.809 -14.296,-8 -12.692,-10.16 -10.082,-12.769 -7.93,-13.871 -4.726,-16.02 -1.602,-16.558 0.508,-9.571 1.602,-9.062 2.66,-9.098 3.711,-8.519 1.558,-3.204 1.602,-2.66 1.598,-3.199 2.113,-2.66 2.109,-3.199 2.11,-2.7 2.109,-2.652 2.66,-2.656 2.11,-2.152 4.21,-3.2 2.149,-2.109 1.57,-1.09 1.602,-1.062 1.558,-1.047 1.602,-1.102 1.059,-0.539 1.601,-1.062 1.598,-0.5 1.051,-1.098 2.109,1.098 1.062,1.05 0.539,0.512 0,2.149 -0.539,0.539 0,1.062 -0.55,0.539 -1.051,0.551 -1.059,0.508 -0.511,0.551 -1.051,0.5 -1.598,1.101 -1.601,1.598 -1.571,1.051 -1.597,1.058 -1.602,1.094 -1.559,1.598 -1.601,1.058 -1.059,1.051 -3.16,3.211 -3.172,3.75 -2.648,3.75 -2.66,3.711 -5.313,9.058 -3.668,10.161 -2.66,10.66 -0.551,11.172 1.602,15.507 4.258,14.371 7.39,12.821 8.981,11.211 11.64,9.609 12.7,6.91 14.289,4.258 15.351,1.602 15.36,-1.602 14.289,-4.258 12.703,-6.91 11.09,-9.609 9.527,-11.211 6.883,-12.821 4.258,-14.371 1.558,-15.507 -1.058,-11.723 -2.649,-11.207 -4.223,-10.66 -5.82,-10.121 -6.879,-8.551 -8.469,-8.012 -9.531,-6.367 -10.59,-4.84 1.09,-1.562 1.02,-1.649 1.09,-1.558 1.062,-1.602 11.09,5.859 10.039,6.911 9.02,8.558 7.929,9.613 5.821,10.661 4.769,11.718 2.66,11.758 1.051,12.774 -1.602,16.558 -4.769,16.02 -7.93,13.871 -10.039,12.769 -12.691,10.16 -13.789,8 -15.86,4.809 -16.41,1.602" /><path
         id="path26"
         style="fill:#3ca7e4;fill-opacity:1;fill-rule:evenodd;stroke:none"
         d="m 210.078,30.8086 1.051,-0.5391 1.57,-1.0586 1.051,-0.5507 1.09,-1.0508 1.57,41.0508 2.11,54.4178 1.601,49.102 1.051,23.48 -3.711,0 -1.602,0.5 -0.507,-24.531 -2.114,-49.609 -1.597,-53.8598 -1.563,-37.3516" /><path
         id="path28"
         style="fill:#c1def5;fill-opacity:1;fill-rule:evenodd;stroke:none"
         d="m 261.41,332.77 1.012,-6.411 -0.512,-6.949 -2.648,-7.461 -4.223,-7.469 2.109,-3.199 2.653,-5.351 3.168,-6.41 3.711,-6.36 3.711,-6.41 2.66,-5.352 2.109,-3.199 0.5,-1.609 0.551,-2.141 0,-2.109 -0.551,-2.66 -1.558,-1.602 -40.743,-44.297 -1.597,-1.051 -2.114,-1.101 -3.707,0 -1.062,0.551 -2.649,0.55 -3.71,1.051 -4.219,1.598 -4.77,1.101 -4.761,1.559 -3.719,1.09 -3.16,1.062 -1.602,-1.601 -1.059,-1.61 -1.558,-1.601 -1.602,-1.051 2.66,-3.199 2.61,-2.699 2.148,-2.11 0.512,-1.05 1.051,-1.098 0.551,-1.051 0.507,-1.601 0,-1.61 -1.058,-23.98 -1.563,-53.36 -2.148,-55.5114 -1.051,-28.7891 1.602,-1.0898 1.597,-0.5078 1.563,-1.0508 1.609,-1.1016 6.32,169.1405 15.899,-0.539 3.711,0 20.082,-1.062 0.547,0.511 0,0.551 0.551,0.539 1.558,1.61 3.711,3.16 4.223,4.3 3.707,3.2 0.551,0 0,12.269 0.5,5.86 4.261,3.75 4.219,3.711 3.711,4.25 3.168,4.851 3.711,6.91 2.648,7.457 1.563,7.5 1.058,7.973 -0.507,8.008 -1.051,8.011 -2.11,6.95 -3.211,7.461 -4.21,6.41 -4.219,5.859 -5.86,4.801 -5.781,4.809" /><path
         id="path30"
         style="fill:#ffffff;fill-opacity:1;fill-rule:evenodd;stroke:none"
         d="m 146.559,290.07 -10.039,28.828 32.781,35.192 -2.621,1.058 -2.149,1.09 -2.109,0.512 -1.563,1.09 -2.66,-3.199 -4.219,-4.262 -5.308,-5.348 -5.274,-5.859 -5.308,-5.902 -4.77,-5.309 -4.218,-4.301 -2.653,-2.648 2.653,-6.922 3.168,-9.102 3.199,-8.508 1.051,-3.21 0.511,-2.11 0,-1.64 -0.511,-2.11 -1.051,-1.601 -1.09,-1.047 -2.109,-2.153 -2.661,-3.199 -2.621,-2.66 0,-4.801 0.512,-5.859 0,-9.11 -0.512,-1.05 -0.539,-1.602 -1.058,-1.058 -1.051,-1.09 -3.168,-3.711 -5.313,-5.348 -6.879,-7.461 -7.929,-8.558 -8.9807,-9.571 L 82.5391,207.379 73.0117,196.711 62.9688,185.5 52.8906,175.379 43.9102,165.23 l -8.4805,-9.07 -7.3789,-8 -5.8203,-6.41 -4.2617,-4.801 -2.1094,-2.109 0.5508,-1.61 0.5,-1.601 0.5507,-1.598 0.5079,-2.152 114.8402,123.25 0,22.422 13.75,16.519" /><path
         id="path32"
         style="fill:#ffffff;fill-opacity:1;fill-rule:evenodd;stroke:none"
         d="m 192.07,214.328 2.66,-3.199 2.61,-2.699 2.148,-2.11 0.512,-1.05 1.051,-1.098 0.551,-1.051 0.507,-1.601 0,-1.61 -1.058,-23.98 -1.563,-53.36 -2.148,-55.5114 -1.051,-28.7891 1.602,-1.0898 1.597,-0.5078 1.563,-1.0508 1.609,-1.1016 6.32,169.1405 -12.691,14.379 -2.109,-2.109 -1.059,-0.551 -1.051,-1.051" /></g></g></svg>