<?xml version="1.0" encoding="UTF-8" standalone="no"?>
<svg
   xmlns:dc="http://purl.org/dc/elements/1.1/"
   xmlns:cc="http://creativecommons.org/ns#"
   xmlns:rdf="http://www.w3.org/1999/02/22-rdf-syntax-ns#"
   xmlns:svg="http://www.w3.org/2000/svg"
   xmlns="http://www.w3.org/2000/svg"
   viewBox="0 0 44.049999 59.950001"
   height="59.950001"
   width="44.049999"
   xml:space="preserve"
   version="1.1"
   id="svg2"><metadata
     id="metadata8"><rdf:RDF><cc:Work
         rdf:about=""><dc:format>image/svg+xml</dc:format><dc:type
           rdf:resource="http://purl.org/dc/dcmitype/StillImage" /></cc:Work></rdf:RDF></metadata><defs
     id="defs6" /><g
     transform="matrix(1.25,0,0,-1.25,0,59.95)"
     id="g10"><g
       transform="scale(0.1,0.1)"
       id="g12"><path
         id="path14"
         style="fill:#231f20;fill-opacity:1;fill-rule:evenodd;stroke:none"
         d="m 352.422,388.371 -0.547,9.07 -1.055,9.075 -2.656,9.07 -2.656,8 -4.219,7.996 -4.258,7.473 -5.273,7.48 -5.82,6.395 -6.329,5.871 -7.421,5.332 -7.422,4.265 -7.93,4.27 -7.93,2.664 -8.984,2.676 -9.024,1.066 -8.984,0.528 -9.531,-0.528 -8.985,-1.066 -8.476,-2.676 -8.438,-2.664 -7.968,-4.27 -7.383,-4.265 -6.914,-5.332 -6.328,-5.871 -5.821,-6.395 -5.273,-7.48 -4.258,-7.473 -4.219,-7.996 -2.656,-8 -2.656,-9.07 -1.055,-9.075 -0.508,-9.07 0.508,-8.527 0.547,-8.008 1.563,-7.469 2.656,-7.472 -5.821,2.675 -4.218,2.129 -3.164,1.074 -1.094,0.528 -2.109,1.066 -2.657,0 -2.109,-1.066 -1.563,-1.602 -41.289,-44.289 -1.054,-1.59 -0.547,-1.59 -0.508,-2.14 0.508,-2.149 1.094,-3.183 3.164,-8.016 3.164,-9.062 2.656,-7.473 -2.109,-2.676 -2.11,-2.109 -2.148,-2.149 -0.508,-0.527 -1.055,-1.074 -0.547,-1.602 -0.507,-1.054 0,-3.75 0.507,-5.313 0,-10.683 -2.109,-2.129 -3.711,-4.278 -5.82,-6.406 -7.4222,-7.461 -8.4375,-9.062 -9.5312,-10.137 -9.5313,-10.684 -10.5859,-11.191 -10.0391,-10.664 -9.5312,-10.664 -9.5313,-10.156 -7.9297,-8.516 -6.875,-7.5 L 6.32813,136.563 2.65625,132.852 1.5625,131.758 0.507813,130.156 0,128.047 0,125.898 0.507813,124.297 12.1484,92.3047 l 1.0547,-2.1484 1.6016,-1.6016 2.1094,-0.5078 2.1484,-0.5469 42.3047,1.0547 1.6016,0.5469 1.5625,0.5078 1.0937,0.5469 1.0156,1.0546 10.0782,11.2111 1.0546,1.094 0.5079,1.054 0.5468,1.602 0,10.664 -0.5468,4.805 4.7656,0 4.7656,0.547 5.8203,0 1.6016,0.507 1.0547,0.547 1.0547,1.055 10.5862,11.211 1.601,2.148 0.508,3.203 -1.055,2.657 -1.562,2.109 -1.602,2.148 -1.054,2.657 0,3.203 2.109,3.203 2.109,1.602 2.657,1.093 3.164,0 3.164,-2.148 2.656,-1.602 2.656,-0.547 2.657,0.547 2.656,1.602 10.039,11.211 1.055,1.054 0.546,1.602 0.508,1.055 0,6.406 -0.508,4.258 0,4.824 4.727,0.527 10.586,0 1.055,0.528 1.601,1.074 1.055,0.527 1.055,1.074 2.109,2.657 2.656,2.675 2.11,2.676 6.367,0 2.617,0.528 2.656,-2.676 3.203,-3.731 3.164,-3.203 2.11,-2.656 -1.055,-28.262 -1.602,-56.015 -2.109,-54.9613 -1.055,-24.5703 0.547,-2.1094 0.508,-1.6016 1.055,-1.6015 1.601,-1.6016 L 214.844,1.05469 216.953,0 l 2.11,0 2.656,1.05469 1.562,1.05469 31.25,29.37502 1.016,1.0547 0.547,1.0547 0.547,1.6015 0,1.0938 0.507,15.4687 0,2.6563 -1.054,1.6015 -0.547,1.0547 -1.016,1.0938 -2.148,2.1093 -3.164,3.2032 -3.164,3.75 3.711,3.2031 3.164,3.2031 2.109,2.1094 1.055,1.0937 1.054,1.0547 0.547,1.0547 0.508,1.6016 0.547,1.6015 0.508,14.961 -0.508,3.2036 -1.602,2.109 -2.109,1.601 -3.164,0.547 -2.656,0.508 -2.11,1.641 -2.109,2.109 -0.547,3.75 0.547,2.656 1.563,2.657 2.109,1.601 3.711,0.547 3.164,0.508 2.148,1.641 1.563,2.109 1.055,3.203 0.546,14.922 0,1.641 -0.546,1.054 -1.055,1.602 -0.508,1.054 -1.055,1.055 -2.148,2.695 -3.164,3.204 -3.164,3.164 3.711,3.203 3.164,3.203 2.109,2.148 1.055,1.055 1.055,1.094 1.093,1.601 0.508,1.055 0,13.867 3.711,3.203 4.766,3.731 3.711,3.73 1.562,1.602 0.547,1.055 1.055,1.621 0.547,1.054 0,1.621 0.507,13.848 5.274,5.352 4.258,5.859 4.218,5.879 3.711,6.406 2.657,6.914 2.109,7.461 1.562,7.5 0.547,7.988 0,9.063 -1.562,8.535 -2.149,8.547 -2.617,7.996 12.149,5.859 10.586,8.02 9.531,9.062 8.437,10.672 6.367,11.203 4.766,12.262 3.164,13.344 1.094,13.867 z M 21.1719,110.43 l 4.7656,4.804 5.7813,6.407 6.914,7.461 7.9297,8.554 8.4375,9.063 9.5313,10.117 9.0234,10.156 9.4922,10.117 9.5312,9.61 8.4769,9.609 8.476,9.063 7.422,7.988 6.328,6.406 4.766,5.352 3.711,3.73 1.562,2.129 1.055,-1.074 1.094,-0.527 0.508,-1.075 1.054,-1.054 -1.562,-1.602 -3.711,-3.73 -4.766,-5.352 -5.82,-6.387 -7.422,-8.007 -7.93,-8.536 -8.9841,-9.062 -9.0234,-10.137 -9.5312,-10.156 -8.9844,-10.117 -9.5313,-10.117 -8.9843,-9.61 -7.9297,-9.062 -7.9297,-8.008 -6.3672,-6.953 -5.2734,-5.86 -0.5469,1.055 -0.5078,1.602 -0.5469,1.601 -0.5078,1.602 z m 129.6091,92.832 -2.109,0 -2.656,-0.528 -13.75,0 -1.563,-0.546 -1.094,-0.547 -1.562,-0.528 -1.055,-1.054 -0.547,-1.075 -0.507,-1.074 -0.547,-1.582 0,-3.75 0.547,-5.332 0,-10.644 -1.055,-1.094 -1.055,-1.055 -0.547,-0.547 -1.601,-1.601 -3.711,1.601 -3.672,0.547 -3.711,-0.547 -3.164,-0.508 -3.203,-1.093 -3.164,-1.602 -2.6566,-1.562 -2.1093,-2.149 -4.7657,-6.953 -1.6015,-6.914 0.5469,-6.406 2.6562,-5.86 -1.6016,-1.64 -1.0546,-0.508 -0.5469,-1.055 -1.0156,-1.093 -10.625,0 -2.6172,-0.508 -6.3672,0 -1.5625,-0.547 -1.0938,-1.055 -1.0156,-0.547 -1.0937,-1.054 -0.5079,-1.602 -0.5468,-1.094 0,-3.711 0.5468,-5.351 0,-11.172 -1.6015,-1.641 -1.0547,-1.562 -1.6016,-1.641 -1.5625,-1.562 -7.4218,0 -3.711,-0.547 -7.9297,0 -4.2187,-0.547 -3.711,0 111.1331,120.039 13.75,-13.34 -1.602,-1.601 -1.054,-1.602 -1.563,-1.602 -1.094,-1.054 z m 37.578,18.144 -1.562,-1.621 -1.602,-1.582 -1.601,-1.621 -1.563,-1.582 -3.711,0 -2.148,-0.547 -13.203,0 -0.547,-0.527 -0.508,0 -14.297,13.867 -3.164,2.676 -11.64,11.191 -114.8442,-123.769 -0.5079,2.148 -0.5468,1.602 -0.5078,1.601 -0.5469,1.602 2.1094,2.109 4.2578,4.805 5.8203,6.406 7.3828,8.008 8.4766,9.062 8.9843,10.157 10.0782,10.117 10.039,11.211 9.5313,10.664 9.5312,10.137 8.9847,9.589 7.929,8.555 6.875,7.461 5.313,5.332 3.164,3.731 1.055,1.093 1.054,1.055 0.547,1.602 0.508,1.054 0,9.082 -0.508,5.879 0,4.785 2.617,2.676 2.657,3.184 2.109,2.148 1.094,1.055 1.054,1.621 0.508,2.109 0,1.621 -0.508,2.129 -1.054,3.203 -3.203,8.528 -3.164,9.07 -2.657,6.945 2.657,2.657 4.218,4.277 4.766,5.328 5.312,5.871 5.274,5.86 5.312,5.351 4.219,4.258 2.656,3.203 2.11,-1.074 2.656,-1.063 3.164,-1.593 3.164,-1.61 3.711,-1.594 3.711,-1.613 3.711,-2.117 3.711,-1.609 1.016,0 2.148,-3.196 2.617,-3.203 2.656,-2.664 2.657,-3.207 3.164,-2.672 2.656,-2.656 3.164,-2.668 3.203,-2.148 0.508,-2.118 1.055,-2.14 1.054,-2.129 1.602,-1.61 2.656,-1.593 2.617,-1.61 2.657,-0.531 5.82,0 2.656,1.066 2.656,1.602 2.11,2.129 3.164,4.816 1.055,5.86 -1.563,5.34 -3.203,4.796 -2.656,2.137 -2.618,1.602 -3.164,0.527 -3.203,0 -2.109,1.074 -1.602,1.602 -2.109,1.594 -2.109,1.609 2.656,1.055 2.617,1.062 2.656,0.551 3.203,0 3.164,-0.551 3.165,-1.59 3.164,-2.136 3.711,-2.657 0.546,-0.539 0.508,-0.547 3.711,-4.257 2.656,-7.469 0,-9.063 -6.367,-10.675 -1.054,-1.61 -0.547,-2.656 0,-2.141 0.547,-2.129 0.546,-1.074 2.11,-3.73 2.656,-4.805 3.164,-6.406 3.711,-6.387 3.164,-5.879 2.656,-5.332 2.11,-3.75 -2.657,-3.183 -4.218,-4.278 -5.313,-5.332 -5.273,-5.879 -5.313,-5.859 -4.765,-5.332 -4.219,-4.805 -2.656,-2.676 -3.164,1.094 -3.711,1.055 -4.766,1.601 -4.219,1.602 -4.765,1.055 -3.711,1.074 -2.11,0.547 -1.054,0.527 -2.11,0.527 -2.109,-0.527 -1.602,-0.527 -1.601,-1.621 -0.508,-0.528 -1.055,-0.527 -0.547,-1.055 z m 16.954,126.965 -4.766,9.063 -4.258,10.136 -2.109,10.133 -1.055,10.668 1.602,13.875 3.711,12.805 6.328,11.738 8.476,10.137 10.039,8.535 11.641,6.394 13.242,3.743 13.75,1.601 13.75,-1.601 12.695,-3.743 11.641,-6.394 10.078,-8.535 8.438,-10.137 6.367,-11.738 3.711,-12.805 1.562,-13.875 -1.054,-11.203 -2.11,-10.129 -4.219,-10.144 -5.312,-9.063 -6.875,-7.996 -7.93,-6.934 -8.984,-5.879 -10.078,-4.269 -3.672,3.742 -3.711,3.731 -4.258,3.203 -4.765,3.203 -4.219,2.652 -5.274,2.68 -4.765,2.137 -5.313,1.593 -5.82,4.266 -5.82,2.676 -5.821,1.593 -5.273,0 -5.82,-0.539 -4.766,-1.054 -4.766,-1.602 -4.218,-2.664 z m 9.531,-330.7538 -1.094,1.0547 -1.055,0.5469 -1.562,1.0546 -1.055,0.5469 1.563,37.3438 1.601,53.8669 2.11,49.61 0.507,24.531 1.602,-0.527 3.711,0 -1.055,-23.457 -1.601,-49.102 -2.11,-54.4141 -1.562,-41.0547 z m 32.265,158.9848 -3.203,-3.204 -4.765,-4.257 -3.672,-3.75 -1.602,-1.602 -1.054,-1.055 -0.547,-1.093 -0.508,-1.602 0,-4.258 1.055,-1.054 0.546,-1.094 1.563,-1.602 3.711,-3.711 4.219,-4.804 3.203,-3.75 0,-2.11 -0.547,-1.601 0,-2.149 -3.711,-1.054 -3.164,-2.149 -2.656,-2.656 -2.11,-2.656 -1.601,-2.696 -1.563,-3.203 -0.547,-3.203 -0.508,-3.203 1.055,-8.008 3.164,-6.3671 4.766,-4.2968 5.273,-3.2032 0,-5.8593 -3.164,-3.2032 -4.765,-3.7109 -3.711,-3.75 -1.563,-1.6016 -1.055,-1.0546 -1.054,-1.6016 -0.547,-1.0547 0,-2.6953 0.547,-1.6016 0.508,-1.6015 1.054,-1.0547 1.602,-1.6016 3.711,-3.75 4.219,-4.8047 3.164,-3.2031 -0.508,-2.1094 0,-6.9531 -1.055,-1.0547 -2.148,-1.6015 -2.11,-2.1485 -2.617,-2.6562 -3.203,-2.6563 -2.617,-2.6953 -3.203,-2.6562 -2.618,-2.6563 5.821,163.77 19.023,-1.055 0,-4.277 -0.508,-2.11 0,-1.601 z m 41.25,93.867 -1.054,-7.989 -1.563,-7.48 -2.656,-7.461 -3.711,-6.934 -3.164,-4.824 -3.711,-4.258 -4.219,-3.73 -4.258,-3.73 -0.507,-5.86 0,-12.285 -0.547,0 -3.711,-3.184 -4.219,-4.296 -3.711,-3.184 -1.562,-1.602 -0.547,-0.527 0,-0.547 -0.547,-0.527 -20.078,1.074 -3.711,0 -15.899,0.527 -6.328,-169.1207 -1.601,1.0937 -1.563,1.0547 -1.601,0.5078 -1.602,1.0938 1.055,28.789 2.148,55.5077 1.563,53.36 1.054,23.984 0,1.601 -0.507,1.602 -0.547,1.055 -1.055,1.074 -0.508,1.074 -2.148,2.11 -2.617,2.675 -2.657,3.203 1.602,1.075 1.562,1.601 1.055,1.602 1.602,1.601 3.164,-1.074 3.711,-1.074 4.765,-1.582 4.766,-1.074 4.219,-1.602 3.711,-1.055 2.656,-0.546 1.055,-0.547 3.71,0 2.11,1.093 1.601,1.055 40.743,44.277 1.562,1.602 0.547,2.676 0,2.109 -0.547,2.149 -0.508,1.601 -2.109,3.203 -2.656,5.332 -3.711,6.407 -3.711,6.386 -3.164,6.407 -2.657,5.332 -2.109,3.203 4.219,7.472 2.656,7.469 0.508,6.934 -1.016,6.406 5.782,-4.793 5.859,-4.816 4.219,-5.86 4.218,-6.406 3.204,-7.461 2.109,-6.934 1.055,-8.007 0.507,-8.008 z m 4.258,40.019 -1.054,1.602 -1.094,1.594 -1.016,1.609 -1.094,1.594 10.586,4.812 9.532,6.387 8.476,8 6.875,8.543 5.82,10.148 4.219,10.653 2.656,11.211 1.055,11.73 -1.562,15.477 -4.258,14.406 -6.875,12.801 -9.531,11.203 -11.094,9.597 -12.695,6.946 -14.297,4.258 -15.352,1.601 -15.351,-1.601 -14.297,-4.258 -12.696,-6.946 -11.64,-9.597 -8.985,-11.203 -7.382,-12.801 -4.258,-14.406 -1.602,-15.477 0.547,-11.203 2.656,-10.664 3.672,-10.137 5.313,-9.062 2.656,-3.731 2.656,-3.738 3.164,-3.75 3.164,-3.184 1.055,-1.086 1.602,-1.054 1.562,-1.602 1.602,-1.074 1.601,-1.063 1.563,-1.066 1.601,-1.602 1.602,-1.066 1.054,-0.535 0.508,-0.527 1.055,-0.528 1.055,-0.547 0.547,-0.535 0,-1.066 0.546,-0.528 0,-2.136 -0.546,-0.539 -1.055,-1.055 -1.055,-0.535 -1.055,-0.528 -1.054,1.063 -1.602,0.527 -1.601,1.067 -1.055,0.523 -1.602,1.086 -1.562,1.055 -1.602,1.066 -1.562,1.082 -2.149,2.121 -2.109,1.61 -2.109,1.593 -2.11,2.137 -2.656,2.656 -2.109,2.676 -2.11,2.676 -2.109,3.203 -2.109,2.656 -1.602,3.203 -1.602,2.668 -1.562,3.204 -3.711,8.535 -2.656,9.07 -1.602,9.063 -0.508,9.601 1.602,16.543 4.726,16.004 7.93,13.867 10.078,12.805 12.696,10.144 14.296,8 15.352,4.805 16.914,1.59 16.406,-1.59 15.86,-4.805 13.789,-8 12.695,-10.144 10.039,-12.805 7.93,-13.867 4.765,-16.004 1.602,-16.543 -1.055,-12.805 -2.656,-11.726 -4.766,-11.738 -5.82,-10.676 -7.93,-9.61 -9.023,-8.527 -10.039,-6.941 -11.094,-5.86" /><path
         id="path16"
         style="fill:#c1def5;fill-opacity:1;fill-rule:evenodd;stroke:none"
         d="m 197.891,225.664 1.054,-0.527 2.11,-0.547 3.711,-1.074 4.765,-1.055 4.219,-1.602 4.766,-1.601 3.711,-1.055 3.164,-1.094 2.656,2.676 4.219,4.805 4.765,5.332 5.313,5.859 5.273,5.879 5.313,5.332 4.218,4.278 2.657,3.183 -2.11,3.75 -2.656,5.332 -3.164,5.879 -3.711,6.387 -3.164,6.406 -2.656,4.805 -2.11,3.73 -0.546,1.074 -0.547,2.129 0,2.141 0.547,2.656 1.054,1.61 6.367,10.675 0,9.063 -2.656,7.469 -3.711,4.257 -0.508,0.547 -0.546,0.539 -3.711,2.657 -3.164,2.136 -3.165,1.59 -3.164,0.551 -3.203,0 -2.656,-0.551 -2.617,-1.062 -2.656,-1.055 2.109,-1.609 2.109,-1.594 1.602,-1.602 2.109,-1.074 3.203,0 3.164,-0.527 2.618,-1.602 2.656,-2.137 3.203,-4.796 1.563,-5.34 -1.055,-5.86 -3.164,-4.816 -2.11,-2.129 -2.656,-1.602 -2.656,-1.066 -5.82,0 -2.657,0.531 -2.617,1.61 -2.656,1.593 -1.602,1.61 -1.054,2.129 -1.055,2.14 -0.508,2.118 -3.203,2.148 -3.164,2.668 -2.656,2.656 -3.164,2.672 -2.657,3.207 -2.656,2.664 -2.617,3.203 -2.148,3.196 -1.016,0 -3.711,1.609 -3.711,2.117 -3.711,1.613 -3.711,1.594 -3.164,1.61 -3.164,1.593 -2.656,1.063 -2.11,1.074 -2.656,-3.203 -4.219,-4.258 -5.312,-5.351 -5.274,-5.86 -5.312,-5.871 -4.766,-5.328 -4.218,-4.277 -2.657,-2.657 2.657,-6.945 3.164,-9.07 3.203,-8.528 1.054,-3.203 0.508,-2.129 0,-1.621 -0.508,-2.109 -1.054,-1.621 -1.094,-1.055 -2.109,-2.148 -2.657,-3.184 -2.617,-2.676 0,-4.785 0.508,-5.879 0,-9.082 -0.508,-1.054 -0.547,-1.602 -1.054,-1.055 -1.055,-1.093 -3.164,-3.731 -5.313,-5.332 -6.875,-7.461 -7.929,-8.555 -8.9847,-9.589 -9.5312,-10.137 -9.5313,-10.664 -10.039,-11.211 -10.0782,-10.117 -8.9843,-10.157 -8.4766,-9.062 -7.3828,-8.008 -5.8203,-6.406 -4.2578,-4.805 -2.1094,-2.109 0.5469,-1.602 0.5078,-1.601 0.5468,-1.602 0.5079,-2.148 114.8442,123.769 11.64,-11.191 3.164,-2.676 14.297,-13.867 0.508,0 0.547,0.527 13.203,0 2.148,0.547 3.711,0 1.563,1.582 1.601,1.621 1.602,1.582 1.562,1.621 0.547,1.055 1.055,0.527 0.508,0.528 1.601,1.621 1.602,0.527 2.109,0.527 2.11,-0.527" /><path
         id="path18"
         style="fill:#c1def5;fill-opacity:1;fill-rule:evenodd;stroke:none"
         d="m 31.2109,102.422 3.711,0 4.2187,0.547 7.9297,0 3.711,0.547 7.4218,0 1.5625,1.562 1.6016,1.641 1.0547,1.562 1.6015,1.641 0,11.172 -0.5468,5.351 0,3.711 0.5468,1.094 0.5079,1.602 1.0937,1.054 1.0156,0.547 1.0938,1.055 1.5625,0.547 6.3672,0 2.6172,0.508 10.625,0 1.0156,1.093 0.5469,1.055 1.0546,0.508 1.6016,1.64 -2.6562,5.86 -0.5469,6.406 1.6015,6.914 4.7657,6.953 2.1093,2.149 2.6566,1.562 3.164,1.602 3.203,1.093 3.164,0.508 3.711,0.547 3.672,-0.547 3.711,-1.601 1.601,1.601 0.547,0.547 1.055,1.055 1.055,1.094 0,10.644 -0.547,5.332 0,3.75 0.547,1.582 0.507,1.074 0.547,1.075 1.055,1.054 1.562,0.528 1.094,0.547 1.563,0.546 13.75,0 2.656,0.528 2.109,0 1.094,1.054 1.563,1.602 1.054,1.602 1.602,1.601 -13.75,13.34 L 31.2109,102.422" /><path
         id="path20"
         style="fill:#3ca7e4;fill-opacity:1;fill-rule:evenodd;stroke:none"
         d="m 133.32,230.996 -1.562,-2.129 -3.711,-3.73 -4.766,-5.352 -6.328,-6.406 -7.422,-7.988 -8.476,-9.063 -8.4769,-9.609 -9.5312,-9.61 L 73.5547,166.992 64.5313,156.836 55,146.719 l -8.4375,-9.063 -7.9297,-8.554 -6.914,-7.461 -5.7813,-6.407 -4.7656,-4.804 0.5078,-1.602 0.5469,-1.601 0.5078,-1.602 0.5469,-1.055 5.2734,5.86 6.3672,6.953 7.9297,8.008 7.9297,9.062 8.9843,9.61 9.5313,10.117 8.9844,10.117 9.5312,10.156 9.0234,10.137 8.9841,9.062 7.93,8.536 7.422,8.007 5.82,6.387 4.766,5.352 3.711,3.73 1.562,1.602 -1.054,1.054 -0.508,1.075 -1.094,0.527 -1.055,1.074" /><path
         id="path22"
         style="fill:#c1def5;fill-opacity:1;fill-rule:evenodd;stroke:none"
         d="m 222.773,21.875 2.618,2.6563 3.203,2.6562 2.617,2.6953 3.203,2.6563 2.617,2.6562 2.11,2.1485 2.148,1.6015 1.055,1.0547 0,6.9531 0.508,2.1094 -3.164,3.2031 -4.219,4.8047 -3.711,3.75 -1.602,1.6016 -1.054,1.0547 -0.508,1.6015 -0.547,1.6016 0,2.6953 0.547,1.0547 1.054,1.6016 1.055,1.0546 1.563,1.6016 3.711,3.75 4.765,3.7109 3.164,3.2032 0,5.8593 -5.273,3.2032 -4.766,4.2968 -3.164,6.3671 -1.055,8.008 0.508,3.203 0.547,3.203 1.563,3.203 1.601,2.696 2.11,2.656 2.656,2.656 3.164,2.149 3.711,1.054 0,2.149 0.547,1.601 0,2.11 -3.203,3.75 -4.219,4.804 -3.711,3.711 -1.563,1.602 -0.546,1.094 -1.055,1.054 0,4.258 0.508,1.602 0.547,1.093 1.054,1.055 1.602,1.602 3.672,3.75 4.765,4.257 3.203,3.204 0,1.601 0.508,2.11 0,4.277 -19.023,1.055 -5.821,-163.77" /><path
         id="path24"
         style="fill:#3ca7e4;fill-opacity:1;fill-rule:evenodd;stroke:none"
         d="m 261.914,472.129 -16.914,-1.59 -15.352,-4.805 -14.296,-8 -12.696,-10.144 -10.078,-12.805 -7.93,-13.867 -4.726,-16.004 -1.602,-16.543 0.508,-9.601 1.602,-9.063 2.656,-9.07 3.711,-8.535 1.562,-3.204 1.602,-2.668 1.602,-3.203 2.109,-2.656 2.109,-3.203 2.11,-2.676 2.109,-2.676 2.656,-2.656 2.11,-2.137 2.109,-1.593 2.109,-1.61 2.149,-2.121 1.562,-1.082 1.602,-1.066 1.562,-1.055 1.602,-1.086 1.055,-0.523 1.601,-1.067 1.602,-0.527 1.054,-1.063 1.055,0.528 1.055,0.535 1.055,1.055 0.546,0.539 0,2.136 -0.546,0.528 0,1.066 -0.547,0.535 -1.055,0.547 -1.055,0.528 -0.508,0.527 -1.054,0.535 -1.602,1.066 -1.601,1.602 -1.563,1.066 -1.601,1.063 -1.602,1.074 -1.562,1.602 -1.602,1.054 -1.055,1.086 -3.164,3.184 -3.164,3.75 -2.656,3.738 -2.656,3.731 -5.313,9.062 -3.672,10.137 -2.656,10.664 -0.547,11.203 1.602,15.477 4.258,14.406 7.382,12.801 8.985,11.203 11.64,9.597 12.696,6.946 14.297,4.258 15.351,1.601 15.352,-1.601 14.297,-4.258 12.695,-6.946 11.094,-9.597 9.531,-11.203 6.875,-12.801 4.258,-14.406 1.562,-15.477 -1.055,-11.73 -2.656,-11.211 -4.219,-10.653 -5.82,-10.148 -6.875,-8.543 -8.476,-8 -9.532,-6.387 -10.586,-4.812 1.094,-1.594 1.016,-1.609 1.094,-1.594 1.054,-1.602 11.094,5.86 10.039,6.941 9.023,8.527 7.93,9.61 5.82,10.676 4.766,11.738 2.656,11.726 1.055,12.805 -1.602,16.543 -4.765,16.004 -7.93,13.867 -10.039,12.805 -12.695,10.144 -13.789,8 -15.86,4.805 -16.406,1.59" /><path
         id="path26"
         style="fill:#3ca7e4;fill-opacity:1;fill-rule:evenodd;stroke:none"
         d="m 210.078,20.8203 1.055,-0.5469 1.562,-1.0546 1.055,-0.5469 1.094,-1.0547 1.562,41.0547 2.11,54.4141 1.601,49.102 1.055,23.457 -3.711,0 -1.602,0.527 -0.507,-24.531 -2.11,-49.61 -1.601,-53.8669 -1.563,-37.3438" /><path
         id="path28"
         style="fill:#c1def5;fill-opacity:1;fill-rule:evenodd;stroke:none"
         d="m 261.406,322.754 1.016,-6.406 -0.508,-6.934 -2.656,-7.469 -4.219,-7.472 2.109,-3.203 2.657,-5.332 3.164,-6.407 3.711,-6.386 3.711,-6.407 2.656,-5.332 2.109,-3.203 0.508,-1.601 0.547,-2.149 0,-2.109 -0.547,-2.676 -1.562,-1.602 -40.743,-44.277 -1.601,-1.055 -2.11,-1.093 -3.71,0 -1.055,0.547 -2.656,0.546 -3.711,1.055 -4.219,1.602 -4.766,1.074 -4.765,1.582 -3.711,1.074 -3.164,1.074 -1.602,-1.601 -1.055,-1.602 -1.562,-1.601 -1.602,-1.075 2.657,-3.203 2.617,-2.675 2.148,-2.11 0.508,-1.074 1.055,-1.074 0.547,-1.055 0.507,-1.602 0,-1.601 -1.054,-23.984 -1.563,-53.36 -2.148,-55.5077 -1.055,-28.789 1.602,-1.0938 1.601,-0.5078 1.563,-1.0547 1.601,-1.0937 6.328,169.1207 15.899,-0.527 3.711,0 20.078,-1.074 0.547,0.527 0,0.547 0.547,0.527 1.562,1.602 3.711,3.184 4.219,4.296 3.711,3.184 0.547,0 0,12.285 0.507,5.86 4.258,3.73 4.219,3.73 3.711,4.258 3.164,4.824 3.711,6.934 2.656,7.461 1.563,7.48 1.054,7.989 -0.507,8.008 -1.055,8.007 -2.109,6.934 -3.204,7.461 -4.218,6.406 -4.219,5.86 -5.859,4.816 -5.782,4.793" /><path
         id="path30"
         style="fill:#ffffff;fill-opacity:1;fill-rule:evenodd;stroke:none"
         d="m 146.563,280.078 -10.04,28.809 32.774,35.215 -2.617,1.062 -2.149,1.066 -2.109,0.528 -1.563,1.074 -2.656,-3.203 -4.219,-4.258 -5.312,-5.351 -5.274,-5.86 -5.312,-5.871 -4.766,-5.328 -4.218,-4.277 -2.657,-2.657 2.657,-6.945 3.164,-9.07 3.203,-8.528 1.054,-3.203 0.508,-2.129 0,-1.621 -0.508,-2.109 -1.054,-1.621 -1.094,-1.055 -2.109,-2.148 -2.657,-3.184 -2.617,-2.676 0,-4.785 0.508,-5.879 0,-9.082 -0.508,-1.054 -0.547,-1.602 -1.054,-1.055 -1.055,-1.093 -3.164,-3.731 -5.313,-5.332 -6.875,-7.461 -7.929,-8.555 -8.9847,-9.589 -9.5312,-10.137 -9.5313,-10.664 -10.039,-11.211 -10.0782,-10.117 -8.9843,-10.157 -8.4766,-9.062 -7.3828,-8.008 -5.8203,-6.406 -4.2578,-4.805 -2.1094,-2.109 0.5469,-1.602 0.5078,-1.601 0.5468,-1.602 0.5079,-2.148 114.8442,123.242 0,22.402 13.75,16.543" /><path
         id="path32"
         style="fill:#ffffff;fill-opacity:1;fill-rule:evenodd;stroke:none"
         d="m 192.07,204.316 2.657,-3.203 2.617,-2.675 2.148,-2.11 0.508,-1.074 1.055,-1.074 0.547,-1.055 0.507,-1.602 0,-1.601 -1.054,-23.984 -1.563,-53.36 -2.148,-55.5077 -1.055,-28.789 1.602,-1.0938 1.601,-0.5078 1.563,-1.0547 1.601,-1.0937 6.328,169.1207 -12.695,14.395 -1.055,-1.055 -1.054,-1.074 -1.055,-0.527 -1.055,-1.075" /></g></g></svg>