<?xml version="1.0" encoding="UTF-8" standalone="no"?>
<svg
   xmlns:dc="http://purl.org/dc/elements/1.1/"
   xmlns:cc="http://creativecommons.org/ns#"
   xmlns:rdf="http://www.w3.org/1999/02/22-rdf-syntax-ns#"
   xmlns:svg="http://www.w3.org/2000/svg"
   xmlns="http://www.w3.org/2000/svg"
   viewBox="0 0 36.25 36.25"
   height="36.25"
   width="36.25"
   xml:space="preserve"
   version="1.1"
   id="svg2"><metadata
     id="metadata8"><rdf:RDF><cc:Work
         rdf:about=""><dc:format>image/svg+xml</dc:format><dc:type
           rdf:resource="http://purl.org/dc/dcmitype/StillImage" /></cc:Work></rdf:RDF></metadata><defs
     id="defs6" /><g
     transform="matrix(1.25,0,0,-1.25,0,36.25)"
     id="g10"><g
       transform="scale(0.1,0.1)"
       id="g12"><path
         id="path14"
         style="fill:#026b9a;fill-opacity:1;fill-rule:nonzero;stroke:none"
         d="m 1.98828,0 255.082,0 0,257.23 -255.082,0 0,-257.23 z" /><path
         id="path16"
         style="fill:none;stroke:#ffffff;stroke-width:1.51993001;stroke-linecap:butt;stroke-linejoin:miter;stroke-miterlimit:4;stroke-dasharray:none;stroke-opacity:1"
         d="m 1.98828,-1.25 255.082,0 0,258.48 -255.082,0 0,-258.48 z" /><path
         id="path18"
         style="fill:none;stroke:#ffffff;stroke-width:15.19999981;stroke-linecap:butt;stroke-linejoin:miter;stroke-miterlimit:4;stroke-dasharray:none;stroke-opacity:1"
         d="m 150.98,218.16 61.25,0" /><path
         id="path20"
         style="fill:#ffffff;fill-opacity:1;fill-rule:nonzero;stroke:none"
         d="m 212.578,230.941 0,-24.652 25.82,11.832 -25.82,12.82" /><path
         id="path22"
         style="fill:none;stroke:#ffffff;stroke-width:3.80005002;stroke-linecap:butt;stroke-linejoin:miter;stroke-miterlimit:4;stroke-dasharray:none;stroke-opacity:1"
         d="m 212.578,230.941 0,-24.652 25.82,11.832 -25.82,12.82 z" /><path
         id="path24"
         style="fill:none;stroke:#ffffff;stroke-width:15.19999981;stroke-linecap:butt;stroke-linejoin:miter;stroke-miterlimit:4;stroke-dasharray:none;stroke-opacity:1"
         d="m 150.98,107.969 61.25,0" /><path
         id="path26"
         style="fill:#ffffff;fill-opacity:1;fill-rule:nonzero;stroke:none"
         d="m 212.578,120.738 0,-24.6482 25.82,11.8402 -25.82,12.808" /><path
         id="path28"
         style="fill:none;stroke:#ffffff;stroke-width:3.80005002;stroke-linecap:butt;stroke-linejoin:miter;stroke-miterlimit:4;stroke-dasharray:none;stroke-opacity:1"
         d="m 212.578,120.738 0,-24.6482 25.82,11.8402 -25.82,12.808 z" /><path
         id="path30"
         style="fill:none;stroke:#ffffff;stroke-width:15.19999981;stroke-linecap:butt;stroke-linejoin:miter;stroke-miterlimit:4;stroke-dasharray:none;stroke-opacity:1"
         d="m 240.27,50.1992 -61.211,0" /><path
         id="path32"
         style="fill:#ffffff;fill-opacity:1;fill-rule:nonzero;stroke:none"
         d="m 178.711,37.3789 0,24.6914 -25.82,-11.8711 25.82,-12.8203" /><path
         id="path34"
         style="fill:none;stroke:#ffffff;stroke-width:3.80005002;stroke-linecap:butt;stroke-linejoin:miter;stroke-miterlimit:4;stroke-dasharray:none;stroke-opacity:1"
         d="m 178.711,37.3789 0,24.6914 -25.82,-11.8711 25.82,-12.8203 z" /><path
         id="path36"
         style="fill:none;stroke:#ffffff;stroke-width:15.19999981;stroke-linecap:butt;stroke-linejoin:miter;stroke-miterlimit:4;stroke-dasharray:none;stroke-opacity:1"
         d="m 240.27,160.391 -61.211,0" /><path
         id="path38"
         style="fill:#ffffff;fill-opacity:1;fill-rule:nonzero;stroke:none"
         d="m 178.711,147.621 0,24.609 -25.82,-11.839 25.82,-12.77" /><path
         id="path40"
         style="fill:none;stroke:#ffffff;stroke-width:3.80005002;stroke-linecap:butt;stroke-linejoin:miter;stroke-miterlimit:4;stroke-dasharray:none;stroke-opacity:1"
         d="m 178.711,147.621 0,24.609 -25.82,-11.839 25.82,-12.77 z" /><path
         id="path42"
         style="fill:none;stroke:#ffffff;stroke-width:7.59994984;stroke-linecap:butt;stroke-linejoin:miter;stroke-miterlimit:4;stroke-dasharray:none;stroke-opacity:1"
         d="m 115.512,157.578 -74.1409,0" /><path
         id="path44"
         style="fill:#ffffff;fill-opacity:1;fill-rule:nonzero;stroke:none"
         d="m 44.3008,149.141 0,15.781 -17.5,-7.582 17.5,-8.199" /><path
         id="path46"
         style="fill:none;stroke:#ffffff;stroke-width:3.80005002;stroke-linecap:butt;stroke-linejoin:miter;stroke-miterlimit:4;stroke-dasharray:none;stroke-opacity:1"
         d="m 44.3008,149.141 0,15.781 -17.5,-7.582 17.5,-8.199 z" /><path
         id="path48"
         style="fill:none;stroke:#ffffff;stroke-width:7.59994984;stroke-linecap:butt;stroke-linejoin:miter;stroke-miterlimit:4;stroke-dasharray:none;stroke-opacity:1"
         d="m 115.512,49.2617 -74.1409,0" /><path
         id="path50"
         style="fill:#ffffff;fill-opacity:1;fill-rule:nonzero;stroke:none"
         d="m 44.3008,40.8594 0,15.7812 -17.5,-7.582 17.5,-8.1992" /><path
         id="path52"
         style="fill:none;stroke:#ffffff;stroke-width:3.80005002;stroke-linecap:butt;stroke-linejoin:miter;stroke-miterlimit:4;stroke-dasharray:none;stroke-opacity:1"
         d="m 44.3008,40.8594 0,15.7812 -17.5,-7.582 17.5,-8.1992 z" /><path
         id="path54"
         style="fill:none;stroke:#ffffff;stroke-width:7.59994984;stroke-linecap:butt;stroke-linejoin:miter;stroke-miterlimit:4;stroke-dasharray:none;stroke-opacity:1"
         d="m 20.5117,107.031 71.6367,0" /><path
         id="path56"
         style="fill:#ffffff;fill-opacity:1;fill-rule:nonzero;stroke:none"
         d="m 91.7617,115.43 0,-15.7386 17.5003,7.5386 -17.5003,8.2" /><path
         id="path58"
         style="fill:none;stroke:#ffffff;stroke-width:3.80005002;stroke-linecap:butt;stroke-linejoin:miter;stroke-miterlimit:4;stroke-dasharray:none;stroke-opacity:1"
         d="m 91.7617,115.43 0,-15.7386 17.5003,7.5386 -17.5003,8.2 z" /><path
         id="path60"
         style="fill:none;stroke:#ffffff;stroke-width:7.59994984;stroke-linecap:butt;stroke-linejoin:miter;stroke-miterlimit:4;stroke-dasharray:none;stroke-opacity:1"
         d="m 20.5117,215.352 71.6367,0" /><path
         id="path62"
         style="fill:#ffffff;fill-opacity:1;fill-rule:nonzero;stroke:none"
         d="m 91.7617,223.75 0,-15.781 17.5003,7.582 -17.5003,8.199" /><path
         id="path64"
         style="fill:none;stroke:#ffffff;stroke-width:3.80005002;stroke-linecap:butt;stroke-linejoin:miter;stroke-miterlimit:4;stroke-dasharray:none;stroke-opacity:1"
         d="m 91.7617,223.75 0,-15.781 17.5003,7.582 -17.5003,8.199 z" /><path
         id="path66"
         style="fill:#026b9a;fill-opacity:1;fill-rule:nonzero;stroke:none"
         d="m 256.52,257.379 -254.32859,0 39.91799,31.883 247.3786,0 0,-257.4612 -32.609,-32.92971 0,257.60891 -0.359,0.899" /><path
         id="path68"
         style="fill:none;stroke:#ffffff;stroke-width:1.51993001;stroke-linecap:butt;stroke-linejoin:miter;stroke-miterlimit:4;stroke-dasharray:none;stroke-opacity:1"
         d="m 256.52,257.379 -254.32859,0 39.91799,31.883 247.3786,0 0,-257.4612 -32.609,-32.92971 0,257.60891 -0.359,0.899 z" /><path
         id="path70"
         style="fill:#026b9a;fill-opacity:1;fill-rule:nonzero;stroke:none"
         d="m 256.801,257.66 32.969,32.07" /><path
         id="path72"
         style="fill:none;stroke:#ffffff;stroke-width:1.51993001;stroke-linecap:butt;stroke-linejoin:miter;stroke-miterlimit:4;stroke-dasharray:none;stroke-opacity:1"
         d="m 256.801,257.66 32.969,32.07" /><path
         id="path74"
         style="fill:none;stroke:#ffffff;stroke-width:1.51993001;stroke-linecap:butt;stroke-linejoin:miter;stroke-miterlimit:4;stroke-dasharray:none;stroke-opacity:1"
         d="m 131.48,-1.12891 0,257.60891" /></g></g></svg>