<?xml version="1.0" encoding="UTF-8" standalone="no"?>
<svg
   xmlns:dc="http://purl.org/dc/elements/1.1/"
   xmlns:cc="http://creativecommons.org/ns#"
   xmlns:rdf="http://www.w3.org/1999/02/22-rdf-syntax-ns#"
   xmlns:svg="http://www.w3.org/2000/svg"
   xmlns="http://www.w3.org/2000/svg"
   viewBox="0 0 36.287498 36.662498"
   height="36.662498"
   width="36.287498"
   xml:space="preserve"
   version="1.1"
   id="svg2"><metadata
     id="metadata8"><rdf:RDF><cc:Work
         rdf:about=""><dc:format>image/svg+xml</dc:format><dc:type
           rdf:resource="http://purl.org/dc/dcmitype/StillImage" /></cc:Work></rdf:RDF></metadata><defs
     id="defs6"><clipPath
       id="clipPath18"
       clipPathUnits="userSpaceOnUse"><path
         id="path20"
         d="M 0,3 0,293 290,293 290,3 0,3 Z" /></clipPath></defs><g
     transform="matrix(1.25,0,0,-1.25,0,36.6625)"
     id="g10"><g
       transform="scale(0.1,0.1)"
       id="g12"><g
         id="g14"><g
           clip-path="url(#clipPath18)"
           id="g16"><path
             id="path22"
             style="fill:#026b9a;fill-opacity:1;fill-rule:nonzero;stroke:none"
             d="m 1.99609,1.75781 255.094,0 0,258.457 -255.094,0 0,-258.457 z" /><path
             id="path24"
             style="fill:none;stroke:#ffffff;stroke-width:1.51993001;stroke-linecap:butt;stroke-linejoin:miter;stroke-miterlimit:4;stroke-dasharray:none;stroke-opacity:1"
             d="m 1.99609,1.75781 255.094,0 0,258.457 -255.094,0 0,-258.457 z" /><path
             id="path26"
             style="fill:none;stroke:#ffffff;stroke-width:15.19999981;stroke-linecap:butt;stroke-linejoin:miter;stroke-miterlimit:4;stroke-dasharray:none;stroke-opacity:1"
             d="m 150.996,221.164 61.25,0" /><path
             id="path28"
             style="fill:#ffffff;fill-opacity:1;fill-rule:nonzero;stroke:none"
             d="m 212.578,233.938 0,-24.649 25.82,11.836 -25.82,12.813" /><path
             id="path30"
             style="fill:none;stroke:#ffffff;stroke-width:3.80005002;stroke-linecap:butt;stroke-linejoin:miter;stroke-miterlimit:4;stroke-dasharray:none;stroke-opacity:1"
             d="m 212.578,233.938 0,-24.649 25.82,11.836 -25.82,12.813 z" /><path
             id="path32"
             style="fill:none;stroke:#ffffff;stroke-width:15.19999981;stroke-linecap:butt;stroke-linejoin:miter;stroke-miterlimit:4;stroke-dasharray:none;stroke-opacity:1"
             d="m 150.996,110.969 61.25,0" /><path
             id="path34"
             style="fill:#ffffff;fill-opacity:1;fill-rule:nonzero;stroke:none"
             d="m 212.578,123.742 0,-24.6482 25.82,11.8362 -25.82,12.812" /><path
             id="path36"
             style="fill:none;stroke:#ffffff;stroke-width:3.80005002;stroke-linecap:butt;stroke-linejoin:miter;stroke-miterlimit:4;stroke-dasharray:none;stroke-opacity:1"
             d="m 212.578,123.742 0,-24.6482 25.82,11.8362 -25.82,12.812 z" /><path
             id="path38"
             style="fill:none;stroke:#ffffff;stroke-width:15.19999981;stroke-linecap:butt;stroke-linejoin:miter;stroke-miterlimit:4;stroke-dasharray:none;stroke-opacity:1"
             d="m 240.293,53.1758 -61.23,0" /><path
             id="path40"
             style="fill:#ffffff;fill-opacity:1;fill-rule:nonzero;stroke:none"
             d="m 178.711,40.4023 0,24.6485 -25.82,-11.836 25.82,-12.8125" /><path
             id="path42"
             style="fill:none;stroke:#ffffff;stroke-width:3.80005002;stroke-linecap:butt;stroke-linejoin:miter;stroke-miterlimit:4;stroke-dasharray:none;stroke-opacity:1"
             d="m 178.711,40.4023 0,24.6485 -25.82,-11.836 25.82,-12.8125 z" /><path
             id="path44"
             style="fill:none;stroke:#ffffff;stroke-width:15.19999981;stroke-linecap:butt;stroke-linejoin:miter;stroke-miterlimit:4;stroke-dasharray:none;stroke-opacity:1"
             d="m 240.293,163.379 -61.23,0" /><path
             id="path46"
             style="fill:#ffffff;fill-opacity:1;fill-rule:nonzero;stroke:none"
             d="m 178.711,150.605 0,24.637 -25.82,-11.836 25.82,-12.801" /><path
             id="path48"
             style="fill:none;stroke:#ffffff;stroke-width:3.80005002;stroke-linecap:butt;stroke-linejoin:miter;stroke-miterlimit:4;stroke-dasharray:none;stroke-opacity:1"
             d="m 178.711,150.605 0,24.637 -25.82,-11.836 25.82,-12.801 z" /><path
             id="path50"
             style="fill:none;stroke:#ffffff;stroke-width:7.59994984;stroke-linecap:butt;stroke-linejoin:miter;stroke-miterlimit:4;stroke-dasharray:none;stroke-opacity:1"
             d="m 115.512,160.574 -74.1604,0" /><path
             id="path52"
             style="fill:#ffffff;fill-opacity:1;fill-rule:nonzero;stroke:none"
             d="m 44.2813,152.156 0,15.785 -17.5,-7.578 17.5,-8.207" /><path
             id="path54"
             style="fill:none;stroke:#ffffff;stroke-width:3.80005002;stroke-linecap:butt;stroke-linejoin:miter;stroke-miterlimit:4;stroke-dasharray:none;stroke-opacity:1"
             d="m 44.2813,152.156 0,15.785 -17.5,-7.578 17.5,-8.207 z" /><path
             id="path56"
             style="fill:none;stroke:#ffffff;stroke-width:7.59994984;stroke-linecap:butt;stroke-linejoin:miter;stroke-miterlimit:4;stroke-dasharray:none;stroke-opacity:1"
             d="m 115.512,52.2773 -74.1604,0" /><path
             id="path58"
             style="fill:#ffffff;fill-opacity:1;fill-rule:nonzero;stroke:none"
             d="m 44.2813,43.8594 0,15.7812 -17.5,-7.5781 17.5,-8.2031" /><path
             id="path60"
             style="fill:none;stroke:#ffffff;stroke-width:3.80005002;stroke-linecap:butt;stroke-linejoin:miter;stroke-miterlimit:4;stroke-dasharray:none;stroke-opacity:1"
             d="m 44.2813,43.8594 0,15.7812 -17.5,-7.5781 17.5,-8.2031 z" /><path
             id="path62"
             style="fill:none;stroke:#ffffff;stroke-width:7.59994984;stroke-linecap:butt;stroke-linejoin:miter;stroke-miterlimit:4;stroke-dasharray:none;stroke-opacity:1"
             d="m 20.5117,110.031 71.6211,0" /><path
             id="path64"
             style="fill:#ffffff;fill-opacity:1;fill-rule:nonzero;stroke:none"
             d="m 91.7422,118.449 0,-15.761 17.4998,7.554 -17.4998,8.207" /><path
             id="path66"
             style="fill:none;stroke:#ffffff;stroke-width:3.80005002;stroke-linecap:butt;stroke-linejoin:miter;stroke-miterlimit:4;stroke-dasharray:none;stroke-opacity:1"
             d="m 91.7422,118.449 0,-15.761 17.4998,7.554 -17.4998,8.207 z" /><path
             id="path68"
             style="fill:none;stroke:#ffffff;stroke-width:7.59994984;stroke-linecap:butt;stroke-linejoin:miter;stroke-miterlimit:4;stroke-dasharray:none;stroke-opacity:1"
             d="m 20.5117,218.34 71.6211,0" /><path
             id="path70"
             style="fill:#ffffff;fill-opacity:1;fill-rule:nonzero;stroke:none"
             d="m 91.7422,226.75 0,-15.762 17.4998,7.567 -17.4998,8.195" /><path
             id="path72"
             style="fill:none;stroke:#ffffff;stroke-width:3.80005002;stroke-linecap:butt;stroke-linejoin:miter;stroke-miterlimit:4;stroke-dasharray:none;stroke-opacity:1"
             d="m 91.7422,226.75 0,-15.762 17.4998,7.567 -17.4998,8.195 z" /><path
             id="path74"
             style="fill:#026b9a;fill-opacity:1;fill-rule:nonzero;stroke:none"
             d="m 256.543,260.402 -254.37112,0 39.92192,31.856 247.3982,0 0,-257.4416 -32.597,-32.96874 0,257.63634 -0.352,0.918" /><path
             id="path76"
             style="fill:none;stroke:#ffffff;stroke-width:1.51993001;stroke-linecap:butt;stroke-linejoin:miter;stroke-miterlimit:4;stroke-dasharray:none;stroke-opacity:1"
             d="m 256.543,260.402 -254.37112,0 39.92192,31.856 247.3982,0 0,-257.4416 -32.597,-32.96874 0,257.63634 -0.352,0.918 z" /><path
             id="path78"
             style="fill:#026b9a;fill-opacity:1;fill-rule:nonzero;stroke:none"
             d="m 256.816,260.664 32.969,32.051" /><path
             id="path80"
             style="fill:none;stroke:#ffffff;stroke-width:1.51993001;stroke-linecap:butt;stroke-linejoin:miter;stroke-miterlimit:4;stroke-dasharray:none;stroke-opacity:1"
             d="m 256.816,260.664 32.969,32.051" /><path
             id="path82"
             style="fill:#000000;fill-opacity:1;fill-rule:nonzero;stroke:none"
             d="m 131.488,1.84766 0,257.63634" /><path
             id="path84"
             style="fill:none;stroke:#ffffff;stroke-width:1.51993001;stroke-linecap:butt;stroke-linejoin:miter;stroke-miterlimit:4;stroke-dasharray:none;stroke-opacity:1"
             d="m 131.488,1.84766 0,257.63634" /></g></g></g></g></svg>