<?xml version="1.0" encoding="UTF-8" standalone="no"?>
<svg
   xmlns:dc="http://purl.org/dc/elements/1.1/"
   xmlns:cc="http://creativecommons.org/ns#"
   xmlns:rdf="http://www.w3.org/1999/02/22-rdf-syntax-ns#"
   xmlns:svg="http://www.w3.org/2000/svg"
   xmlns="http://www.w3.org/2000/svg"
   viewBox="0 0 53.75 38.75"
   height="38.75"
   width="53.75"
   xml:space="preserve"
   version="1.1"
   id="svg2"><metadata
     id="metadata8"><rdf:RDF><cc:Work
         rdf:about=""><dc:format>image/svg+xml</dc:format><dc:type
           rdf:resource="http://purl.org/dc/dcmitype/StillImage" /></cc:Work></rdf:RDF></metadata><defs
     id="defs6"><clipPath
       id="clipPath18"
       clipPathUnits="userSpaceOnUse"><path
         id="path20"
         d="M 0,9 0,308 430,308 430,9 0,9 Z" /></clipPath></defs><g
     transform="matrix(1.25,0,0,-1.25,0,38.75)"
     id="g10"><g
       transform="scale(0.1,0.1)"
       id="g12"><g
         id="g14"><g
           clip-path="url(#clipPath18)"
           id="g16"><path
             id="path22"
             style="fill:#02709f;fill-opacity:1;fill-rule:nonzero;stroke:none"
             d="M 421.719,303.699 432.148,290.23 403.98,135.852 391.09,143.82 421.719,303.699" /><path
             id="path24"
             style="fill:none;stroke:#ffffff;stroke-width:3.99993992;stroke-linecap:butt;stroke-linejoin:miter;stroke-miterlimit:4;stroke-dasharray:none;stroke-opacity:1"
             d="M 421.719,303.699 432.148,290.23 403.98,135.852 391.09,143.82 421.719,303.699 Z" /><path
             id="path26"
             style="fill:#000000;fill-opacity:1;fill-rule:nonzero;stroke:none"
             d="m 120.391,143.82 11.64,-7.968 271.949,0 -12.89,7.968 -270.699,0" /><path
             id="path28"
             style="fill:none;stroke:#ffffff;stroke-width:1.99996996;stroke-linecap:butt;stroke-linejoin:miter;stroke-miterlimit:4;stroke-dasharray:none;stroke-opacity:1"
             d="m 120.391,143.82 11.64,-7.968 271.949,0 -12.89,7.968 -270.699,0 z" /><path
             id="path30"
             style="fill:#02709f;fill-opacity:1;fill-rule:nonzero;stroke:none"
             d="m 393.551,131.281 0,-27.261 -7.031,-6.1411 c 0,0 -16.559,-4.8789 -12.891,-14.6797 l -73.789,-68.5976 0,30 93.711,86.6794" /><path
             id="path32"
             style="fill:none;stroke:#ffffff;stroke-width:3.99993992;stroke-linecap:butt;stroke-linejoin:miter;stroke-miterlimit:4;stroke-dasharray:none;stroke-opacity:1"
             d="m 393.551,131.281 0,-27.261 -7.031,-6.1411 c 0,0 -16.559,-4.8789 -12.891,-14.6797 l -73.789,-68.5976 0,30 93.711,86.6794 z" /><path
             id="path34"
             style="fill:#02709f;fill-opacity:1;fill-rule:nonzero;stroke:none"
             d="m 6.17188,14.6016 293.707,0 0,30 -293.707,0 0,-30 z" /><path
             id="path36"
             style="fill:none;stroke:#ffffff;stroke-width:3.99993992;stroke-linecap:butt;stroke-linejoin:miter;stroke-miterlimit:4;stroke-dasharray:none;stroke-opacity:1"
             d="m 6.17188,14.6016 293.668,0 0,30 -293.668,0 0,-30 z" /><path
             id="path38"
             style="fill:#02709f;fill-opacity:1;fill-rule:nonzero;stroke:none"
             d="m 123.48,129.449 270.071,1.832 -93.711,-86.6794 -293.66812,0 L 123.48,129.449" /><path
             id="path40"
             style="fill:none;stroke:#ffffff;stroke-width:3.99993992;stroke-linecap:butt;stroke-linejoin:miter;stroke-miterlimit:4;stroke-dasharray:none;stroke-opacity:1"
             d="m 123.48,129.449 270.071,1.832 -93.711,-86.6794 -293.66812,0 L 123.48,129.449 Z" /><path
             id="path42"
             style="fill:#02709f;fill-opacity:1;fill-rule:nonzero;stroke:none"
             d="m 391.09,143.82 30.629,159.879 -266.41,0 -34.918,-159.879 270.699,0" /><path
             id="path44"
             style="fill:none;stroke:#ffffff;stroke-width:3.99993992;stroke-linecap:butt;stroke-linejoin:miter;stroke-miterlimit:4;stroke-dasharray:none;stroke-opacity:1"
             d="m 391.09,143.82 30.629,159.879 -266.41,0 -34.918,-159.879 270.699,0 z" /><path
             id="path46"
             style="fill:#02709f;fill-opacity:1;fill-rule:nonzero;stroke:none"
             d="m 368.52,161.711 23.589,120.078 -216.64,0 -23.59,-120.078 216.641,0" /><path
             id="path48"
             style="fill:none;stroke:#ffffff;stroke-width:3.99993992;stroke-linecap:butt;stroke-linejoin:miter;stroke-miterlimit:4;stroke-dasharray:none;stroke-opacity:1"
             d="m 368.52,161.711 23.589,120.078 -216.64,0 -23.59,-120.078 216.641,0 z" /><path
             id="path50"
             style="fill:none;stroke:#ffffff;stroke-width:1.00005996;stroke-linecap:butt;stroke-linejoin:round;stroke-miterlimit:4;stroke-dasharray:none;stroke-opacity:1"
             d="M 129.801,127.531 61.6797,72.4883" /><path
             id="path52"
             style="fill:none;stroke:#ffffff;stroke-width:1.00005996;stroke-linecap:butt;stroke-linejoin:round;stroke-miterlimit:4;stroke-dasharray:none;stroke-opacity:1"
             d="M 151.68,127.531 83.5508,72.4883" /><path
             id="path54"
             style="fill:none;stroke:#ffffff;stroke-width:1.00005996;stroke-linecap:butt;stroke-linejoin:round;stroke-miterlimit:4;stroke-dasharray:none;stroke-opacity:1"
             d="M 173.551,127.531 105.43,72.4883" /><path
             id="path56"
             style="fill:none;stroke:#ffffff;stroke-width:1.00005996;stroke-linecap:butt;stroke-linejoin:round;stroke-miterlimit:4;stroke-dasharray:none;stroke-opacity:1"
             d="M 195.43,127.531 127.301,72.4883" /><path
             id="path58"
             style="fill:none;stroke:#ffffff;stroke-width:1.00005996;stroke-linecap:butt;stroke-linejoin:round;stroke-miterlimit:4;stroke-dasharray:none;stroke-opacity:1"
             d="M 217.301,127.531 149.18,72.4883" /><path
             id="path60"
             style="fill:none;stroke:#ffffff;stroke-width:1.00005996;stroke-linecap:butt;stroke-linejoin:round;stroke-miterlimit:4;stroke-dasharray:none;stroke-opacity:1"
             d="M 239.18,127.531 171.051,72.4883" /><path
             id="path62"
             style="fill:none;stroke:#ffffff;stroke-width:1.00005996;stroke-linecap:butt;stroke-linejoin:round;stroke-miterlimit:4;stroke-dasharray:none;stroke-opacity:1"
             d="M 261.051,127.531 192.93,72.4883" /><path
             id="path64"
             style="fill:none;stroke:#ffffff;stroke-width:1.00005996;stroke-linecap:butt;stroke-linejoin:round;stroke-miterlimit:4;stroke-dasharray:none;stroke-opacity:1"
             d="M 282.93,127.531 214.801,72.4883" /><path
             id="path66"
             style="fill:none;stroke:#ffffff;stroke-width:1.00005996;stroke-linecap:butt;stroke-linejoin:round;stroke-miterlimit:4;stroke-dasharray:none;stroke-opacity:1"
             d="M 304.801,127.531 236.68,72.4883" /><path
             id="path68"
             style="fill:none;stroke:#ffffff;stroke-width:1.00005996;stroke-linecap:butt;stroke-linejoin:round;stroke-miterlimit:4;stroke-dasharray:none;stroke-opacity:1"
             d="M 326.68,127.531 258.551,72.4883" /><path
             id="path70"
             style="fill:none;stroke:#ffffff;stroke-width:1.00005996;stroke-linecap:butt;stroke-linejoin:round;stroke-miterlimit:4;stroke-dasharray:none;stroke-opacity:1"
             d="M 348.551,127.531 280.43,72.4883" /><path
             id="path72"
             style="fill:none;stroke:#ffffff;stroke-width:1.00005996;stroke-linecap:butt;stroke-linejoin:round;stroke-miterlimit:4;stroke-dasharray:none;stroke-opacity:1"
             d="M 370.43,127.531 302.301,72.4883" /><path
             id="path74"
             style="fill:none;stroke:#ffffff;stroke-width:1.00005996;stroke-linecap:butt;stroke-linejoin:round;stroke-miterlimit:4;stroke-dasharray:none;stroke-opacity:1"
             d="m 69.3008,78.3086 242.5002,0" /><path
             id="path76"
             style="fill:none;stroke:#ffffff;stroke-width:1.00005996;stroke-linecap:butt;stroke-linejoin:round;stroke-miterlimit:4;stroke-dasharray:none;stroke-opacity:1"
             d="m 85.6211,90.9297 238.7579,0" /><path
             id="path78"
             style="fill:none;stroke:#ffffff;stroke-width:1.00005996;stroke-linecap:butt;stroke-linejoin:round;stroke-miterlimit:4;stroke-dasharray:none;stroke-opacity:1"
             d="m 102.539,103.512 238.121,0" /><path
             id="path80"
             style="fill:none;stroke:#ffffff;stroke-width:1.00005996;stroke-linecap:butt;stroke-linejoin:round;stroke-miterlimit:4;stroke-dasharray:none;stroke-opacity:1"
             d="m 117.578,116.121 240.043,0" /></g></g></g></g></svg>