<?xml version="1.0" encoding="UTF-8" standalone="no"?>
<svg
   xmlns:dc="http://purl.org/dc/elements/1.1/"
   xmlns:cc="http://creativecommons.org/ns#"
   xmlns:rdf="http://www.w3.org/1999/02/22-rdf-syntax-ns#"
   xmlns:svg="http://www.w3.org/2000/svg"
   xmlns="http://www.w3.org/2000/svg"
   viewBox="0 0 54.287498 37.299999"
   height="37.299999"
   width="54.287498"
   xml:space="preserve"
   version="1.1"
   id="svg2"><metadata
     id="metadata8"><rdf:RDF><cc:Work
         rdf:about=""><dc:format>image/svg+xml</dc:format><dc:type
           rdf:resource="http://purl.org/dc/dcmitype/StillImage" /></cc:Work></rdf:RDF></metadata><defs
     id="defs6"><clipPath
       id="clipPath18"
       clipPathUnits="userSpaceOnUse"><path
         id="path20"
         d="M 0,0 0,298 430,298 430,0 0,0 Z" /></clipPath></defs><g
     transform="matrix(1.25,0,0,-1.25,0,37.3)"
     id="g10"><g
       transform="scale(0.1,0.1)"
       id="g12"><g
         id="g14"><g
           clip-path="url(#clipPath18)"
           id="g16"><path
             id="path22"
             style="fill:#02709f;fill-opacity:1;fill-rule:nonzero;stroke:none"
             d="m 421.738,293.695 10.41,-13.476 -28.164,-154.352 -12.871,7.965 30.625,159.863" /><path
             id="path24"
             style="fill:none;stroke:#ffffff;stroke-width:3.99993992;stroke-linecap:butt;stroke-linejoin:miter;stroke-miterlimit:4;stroke-dasharray:none;stroke-opacity:1"
             d="m 421.738,293.695 10.41,-13.476 -28.164,-154.352 -12.871,7.965 30.625,159.863 z" /><path
             id="path26"
             style="fill:#000000;fill-opacity:1;fill-rule:nonzero;stroke:none"
             d="m 120.395,133.832 11.64,-7.965 271.949,0 -12.871,7.965 -270.718,0" /><path
             id="path28"
             style="fill:none;stroke:#ffffff;stroke-width:1.99996996;stroke-linecap:butt;stroke-linejoin:miter;stroke-miterlimit:4;stroke-dasharray:none;stroke-opacity:1"
             d="m 120.395,133.832 11.64,-7.965 271.949,0 -12.871,7.965 -270.718,0 z" /><path
             id="path30"
             style="fill:#02709f;fill-opacity:1;fill-rule:nonzero;stroke:none"
             d="m 393.574,121.273 0,-27.2496 -7.051,-6.1289 c 0,0 -16.543,-4.8984 -12.871,-14.6953 l -73.789,-68.60936 0,30.01956 93.711,86.6636" /><path
             id="path32"
             style="fill:none;stroke:#ffffff;stroke-width:3.99993992;stroke-linecap:butt;stroke-linejoin:miter;stroke-miterlimit:4;stroke-dasharray:none;stroke-opacity:1"
             d="m 393.574,121.273 0,-27.2496 -7.051,-6.1289 c 0,0 -16.543,-4.8984 -12.871,-14.6953 l -73.789,-68.60936 0,30.01956 93.711,86.6636 z" /><path
             id="path34"
             style="fill:#02709f;fill-opacity:1;fill-rule:nonzero;stroke:none"
             d="m 6.17578,4.58984 293.688,0 0,30.0195 -293.688,0 0,-30.0195 z" /><path
             id="path36"
             style="fill:none;stroke:#ffffff;stroke-width:3.99993992;stroke-linecap:butt;stroke-linejoin:miter;stroke-miterlimit:4;stroke-dasharray:none;stroke-opacity:1"
             d="m 6.17578,34.6094 0,-30.01956 293.68722,0 0,30.01956 -293.68722,0" /><path
             id="path38"
             style="fill:#02709f;fill-opacity:1;fill-rule:nonzero;stroke:none"
             d="m 123.461,119.438 270.113,1.835 -93.711,-86.6636 -293.68722,0 117.28522,84.8286" /><path
             id="path40"
             style="fill:none;stroke:#ffffff;stroke-width:3.99993992;stroke-linecap:butt;stroke-linejoin:miter;stroke-miterlimit:4;stroke-dasharray:none;stroke-opacity:1"
             d="m 123.461,119.438 270.113,1.835 -93.711,-86.6636 -293.68722,0 117.28522,84.8286 z" /><path
             id="path42"
             style="fill:#02709f;fill-opacity:1;fill-rule:nonzero;stroke:none"
             d="m 391.113,133.832 30.625,159.863 -266.422,0 -34.921,-159.863 270.718,0" /><path
             id="path44"
             style="fill:none;stroke:#ffffff;stroke-width:3.99993992;stroke-linecap:butt;stroke-linejoin:miter;stroke-miterlimit:4;stroke-dasharray:none;stroke-opacity:1"
             d="m 391.113,133.832 30.625,159.863 -266.422,0 -34.921,-159.863 270.718,0 z" /><path
             id="path46"
             style="fill:#02709f;fill-opacity:1;fill-rule:nonzero;stroke:none"
             d="m 368.516,151.719 23.574,120.051 -216.637,0 -23.574,-120.051 216.637,0" /><path
             id="path48"
             style="fill:none;stroke:#ffffff;stroke-width:3.99993992;stroke-linecap:butt;stroke-linejoin:miter;stroke-miterlimit:4;stroke-dasharray:none;stroke-opacity:1"
             d="m 368.516,151.719 23.574,120.051 -216.637,0 -23.574,-120.051 216.637,0 z" /><path
             id="path50"
             style="fill:none;stroke:#ffffff;stroke-width:1.00005996;stroke-linecap:butt;stroke-linejoin:round;stroke-miterlimit:4;stroke-dasharray:none;stroke-opacity:1"
             d="M 129.809,117.516 61.6836,62.5117" /><path
             id="path52"
             style="fill:none;stroke:#ffffff;stroke-width:1.00005996;stroke-linecap:butt;stroke-linejoin:round;stroke-miterlimit:4;stroke-dasharray:none;stroke-opacity:1"
             d="M 151.684,117.516 83.5586,62.5117" /><path
             id="path54"
             style="fill:none;stroke:#ffffff;stroke-width:1.00005996;stroke-linecap:butt;stroke-linejoin:round;stroke-miterlimit:4;stroke-dasharray:none;stroke-opacity:1"
             d="M 173.559,117.516 105.434,62.5117" /><path
             id="path56"
             style="fill:none;stroke:#ffffff;stroke-width:1.00005996;stroke-linecap:butt;stroke-linejoin:round;stroke-miterlimit:4;stroke-dasharray:none;stroke-opacity:1"
             d="M 195.434,117.516 127.309,62.5117" /><path
             id="path58"
             style="fill:none;stroke:#ffffff;stroke-width:1.00005996;stroke-linecap:butt;stroke-linejoin:round;stroke-miterlimit:4;stroke-dasharray:none;stroke-opacity:1"
             d="M 217.305,117.516 149.184,62.5117" /><path
             id="path60"
             style="fill:none;stroke:#ffffff;stroke-width:1.00005996;stroke-linecap:butt;stroke-linejoin:round;stroke-miterlimit:4;stroke-dasharray:none;stroke-opacity:1"
             d="M 239.18,117.516 171.059,62.5117" /><path
             id="path62"
             style="fill:none;stroke:#ffffff;stroke-width:1.00005996;stroke-linecap:butt;stroke-linejoin:round;stroke-miterlimit:4;stroke-dasharray:none;stroke-opacity:1"
             d="M 261.055,117.516 192.934,62.5117" /><path
             id="path64"
             style="fill:none;stroke:#ffffff;stroke-width:1.00005996;stroke-linecap:butt;stroke-linejoin:round;stroke-miterlimit:4;stroke-dasharray:none;stroke-opacity:1"
             d="M 282.93,117.516 214.805,62.5117" /><path
             id="path66"
             style="fill:none;stroke:#ffffff;stroke-width:1.00005996;stroke-linecap:butt;stroke-linejoin:round;stroke-miterlimit:4;stroke-dasharray:none;stroke-opacity:1"
             d="M 304.805,117.516 236.68,62.5117" /><path
             id="path68"
             style="fill:none;stroke:#ffffff;stroke-width:1.00005996;stroke-linecap:butt;stroke-linejoin:round;stroke-miterlimit:4;stroke-dasharray:none;stroke-opacity:1"
             d="M 326.68,117.516 258.555,62.5117" /><path
             id="path70"
             style="fill:none;stroke:#ffffff;stroke-width:1.00005996;stroke-linecap:butt;stroke-linejoin:round;stroke-miterlimit:4;stroke-dasharray:none;stroke-opacity:1"
             d="M 348.555,117.516 280.43,62.5117" /><path
             id="path72"
             style="fill:none;stroke:#ffffff;stroke-width:1.00005996;stroke-linecap:butt;stroke-linejoin:round;stroke-miterlimit:4;stroke-dasharray:none;stroke-opacity:1"
             d="M 370.43,117.516 302.305,62.5117" /><path
             id="path74"
             style="fill:none;stroke:#ffffff;stroke-width:1.00005996;stroke-linecap:butt;stroke-linejoin:round;stroke-miterlimit:4;stroke-dasharray:none;stroke-opacity:1"
             d="m 69.3008,68.3125 242.5152,0" /><path
             id="path76"
             style="fill:none;stroke:#ffffff;stroke-width:1.00005996;stroke-linecap:butt;stroke-linejoin:round;stroke-miterlimit:4;stroke-dasharray:none;stroke-opacity:1"
             d="m 85.6094,80.918 238.7656,0" /><path
             id="path78"
             style="fill:none;stroke:#ffffff;stroke-width:1.00005996;stroke-linecap:butt;stroke-linejoin:round;stroke-miterlimit:4;stroke-dasharray:none;stroke-opacity:1"
             d="m 102.523,93.5195 238.141,0" /><path
             id="path80"
             style="fill:none;stroke:#ffffff;stroke-width:1.00005996;stroke-linecap:butt;stroke-linejoin:round;stroke-miterlimit:4;stroke-dasharray:none;stroke-opacity:1"
             d="m 117.582,106.129 240.016,0" /></g></g></g></g></svg>