<svg xmlns="http://www.w3.org/2000/svg" viewBox="0 0 53.75 38.75" height="38.75" width="53.75"><defs><clipPath id="a"><path d="M0 9v299h430V9H0z"/></clipPath></defs><g clip-path="url(#a)" transform="matrix(.13 0 0 -.13 0 38.75)"><path d="M421.719 303.699l10.429-13.469-28.168-154.378-12.89 7.968 30.629 159.879" fill="#02709f"/><path d="M421.719 303.699l10.429-13.469-28.168-154.378-12.89 7.968 30.629 159.879z" fill="none" stroke="#fff" stroke-width="4"/><path d="M120.391 143.82l11.64-7.968H403.98l-12.89 7.968H120.391"/><path d="M120.391 143.82l11.64-7.968H403.98l-12.89 7.968H120.391z" fill="none" stroke="#fff" stroke-width="2"/><path d="M393.551 131.281V104.02l-7.031-6.141S369.961 93 373.629 83.199L299.84 14.602v30l93.711 86.679" fill="#02709f"/><path d="M393.551 131.281V104.02l-7.031-6.141S369.961 93 373.629 83.199L299.84 14.602v30l93.711 86.679z" fill="none" stroke="#fff" stroke-width="4"/><path d="M6.172 14.602h293.707v30H6.172v-30z" fill="#02709f"/><path d="M6.172 14.602H299.84v30H6.172v-30z" fill="none" stroke="#fff" stroke-width="4"/><path d="M123.48 129.449l270.071 1.832-93.711-86.68H6.172L123.48 129.45" fill="#02709f"/><path d="M123.48 129.449l270.071 1.832-93.711-86.68H6.172L123.48 129.45z" fill="none" stroke="#fff" stroke-width="4"/><path d="M391.09 143.82l30.629 159.879h-266.41L120.391 143.82H391.09" fill="#02709f"/><path d="M391.09 143.82l30.629 159.879h-266.41L120.391 143.82H391.09z" fill="none" stroke="#fff" stroke-width="4"/><path d="M368.52 161.711l23.589 120.078h-216.64l-23.59-120.078H368.52" fill="#02709f"/><path d="M368.52 161.711l23.589 120.078h-216.64l-23.59-120.078H368.52z" fill="none" stroke="#fff" stroke-width="4"/><path d="M129.801 127.531L61.68 72.488M151.68 127.531L83.55 72.488M173.551 127.531L105.43 72.488M195.43 127.531l-68.129-55.043M217.301 127.531L149.18 72.488M239.18 127.531l-68.129-55.043M261.051 127.531L192.93 72.488M282.93 127.531l-68.129-55.043M304.801 127.531L236.68 72.488M326.68 127.531l-68.129-55.043M348.551 127.531L280.43 72.488M370.43 127.531l-68.129-55.043M69.3 78.309h242.501M85.621 90.93H324.38M102.539 103.512H340.66M117.578 116.121h240.043" fill="none" stroke="#fff" stroke-linejoin="round"/></g></svg>