<svg xmlns="http://www.w3.org/2000/svg" viewBox="0 0 38.75 40" height="40" width="38.75"><defs><clipPath id="a"><path d="M0 10v310h310V10H0z"/></clipPath></defs><g clip-path="url(#a)" transform="matrix(.13 0 0 -.13 0 40)"><path d="M6.21 14.781h267.07v266.84H6.21V14.781z" fill="#087fbf"/><path d="M6.21 14.781h267.07v266.84H6.21V14.781z" fill="none" stroke="#fff" stroke-width="4"/><path d="M306.988 48.219V315.02l-33.707-33.399V14.781l33.707 33.438" fill="#087fbf"/><path d="M306.988 48.219V315.02l-33.707-33.399V14.781l33.707 33.438z" fill="none" stroke="#fff" stroke-width="4"/><path d="M52.621 316.93l-46.41-33.399h267.07l33.707 33.399H52.621" fill="#087fbf"/><path d="M52.621 316.93l-46.41-33.399h267.07l33.707 33.399H52.621zM273.281 281.621H6.211" fill="none" stroke="#fff" stroke-width="4"/><path d="M273.281 281.621l33.707 33.399" fill="#087fbf"/><path d="M273.281 281.621l33.707 33.399M273.281 281.621V14.781M273.281 281.621H6.211" fill="none" stroke="#fff" stroke-width="4"/><path d="M273.281 281.621l33.707 33.399" fill="#087fbf"/><path d="M273.281 281.621l33.707 33.399" fill="none" stroke="#fff" stroke-width="4"/><path d="M145.512 187.012v57.73h9.797l-14.45 21.797-14.449-21.797h9.801v-57.73h9.301M116.051 178.691l-40.82 40.821 6.96 6.91-25.632 5.199 5.16-25.629 6.91 6.918 40.859-40.82 6.563 6.601M101.129 151.93h-57.73v9.8l-21.797-14.449 21.796-14.449v9.797h57.731v9.301M109.488 122.48l-40.86-40.82-6.91 6.95-5.16-25.63 25.633 5.16-6.96 6.95 40.82 40.82-6.563 6.57M136.211 107.551v-57.73h-9.801l14.449-21.801 14.45 21.8h-9.797v57.731h-9.301M165.66 115.91l40.82-40.82-6.91-6.95 25.629-5.16L220 88.61l-6.949-6.95-40.821 40.82-6.57-6.57M180.59 142.629h57.73v-9.797l21.801 14.449-21.801 14.449v-9.8h-57.73v-9.301M172.23 172.09l40.821 40.82 6.949-6.918 5.199 25.629-25.629-5.199 6.91-6.91-40.82-40.821 6.57-6.601" fill="#fff"/><path d="M176.289 98.41c27.231 19.07 33.871 56.641 14.762 83.871-19.02 27.231-56.602 33.871-83.821 14.77-27.23-19.071-33.87-56.61-14.808-83.832 19.098-27.27 56.637-33.867 83.867-14.809" fill="#fff"/><path d="M176.289 98.41c27.231 19.07 33.871 56.641 14.762 83.871-19.02 27.231-56.602 33.871-83.821 14.77-27.23-19.071-33.87-56.61-14.808-83.832 19.098-27.27 56.637-33.867 83.867-14.809z" fill="none" stroke="#087fbf" stroke-width="4"/></g></svg>