<?xml version="1.0" encoding="UTF-8" standalone="no"?>
<svg
   xmlns:dc="http://purl.org/dc/elements/1.1/"
   xmlns:cc="http://creativecommons.org/ns#"
   xmlns:rdf="http://www.w3.org/1999/02/22-rdf-syntax-ns#"
   xmlns:svg="http://www.w3.org/2000/svg"
   xmlns="http://www.w3.org/2000/svg"
   viewBox="0 0 61 30.2875"
   height="30.2875"
   width="61"
   xml:space="preserve"
   version="1.1"
   id="svg2"><metadata
     id="metadata8"><rdf:RDF><cc:Work
         rdf:about=""><dc:format>image/svg+xml</dc:format><dc:type
           rdf:resource="http://purl.org/dc/dcmitype/StillImage" /></cc:Work></rdf:RDF></metadata><defs
     id="defs6" /><g
     transform="matrix(1.25,0,0,-1.25,0,30.2875)"
     id="g10"><g
       transform="scale(0.1,0.1)"
       id="g12"><path
         id="path14"
         style="fill:#087bbb;fill-opacity:1;fill-rule:nonzero;stroke:none"
         d="m 5.65234,121.074 144.28866,116.668 333.106,0 -119.402,-116.668 -357.99266,0" /><path
         id="path16"
         style="fill:none;stroke:#ffffff;stroke-width:4;stroke-linecap:butt;stroke-linejoin:miter;stroke-miterlimit:4;stroke-dasharray:none;stroke-opacity:1"
         d="m 5.65234,121.074 144.28866,116.668 333.106,0 -119.402,-116.668 -357.99266,0 z" /><path
         id="path18"
         style="fill:#000000;fill-opacity:1;fill-rule:nonzero;stroke:none"
         d="m 332.91,176.105 8.867,8.883 27.754,-12.613 -48.652,-13.984 11.035,14.531 -88.652,0 3.172,3.183 86.476,0" /><path
         id="path20"
         style="fill:#000000;fill-opacity:1;fill-rule:nonzero;stroke:none"
         d="m 279.66,205.852 -3.176,-3.176 -90.41,0 -13.691,-10.633 -23.281,11.402 53.378,15.625 -13.222,-13.218 90.402,0" /><path
         id="path22"
         style="fill:#000000;fill-opacity:1;fill-rule:nonzero;stroke:none"
         d="m 229.785,155.547 -3.183,-3.184 -90.84,0 -13.692,-10.183 -24.1481,11.386 54.6761,15.196 -12.344,-13.215 89.531,0" /><path
         id="path24"
         style="fill:#000000;fill-opacity:1;fill-rule:nonzero;stroke:none"
         d="m 384.094,218.105 8.875,8.879 27.754,-12.168 -48.653,-13.988 10.586,14.106 -89.082,0 3.176,3.171 87.344,0" /><path
         id="path26"
         style="fill:#ffffff;fill-opacity:1;fill-rule:nonzero;stroke:none"
         d="m 333.34,173.047 8.887,8.879 24.238,-10.422 -48.652,-13.984 12.343,12.343 -89.082,0 3.176,3.184 89.09,0" /><path
         id="path28"
         style="fill:#ffffff;fill-opacity:1;fill-rule:nonzero;stroke:none"
         d="m 276.602,202.793 -3.184,-3.176 -89.09,0 -8.879,-8.883 -24.16,10.528 48.555,13.875 -12.344,-12.344 89.102,0" /><path
         id="path30"
         style="fill:#087bbb;fill-opacity:1;fill-rule:nonzero;stroke:none"
         d="m 363.645,5.10938 119.402,128.92162 0,103.508 -119.402,-116.465 0,-115.96462" /><path
         id="path32"
         style="fill:none;stroke:#ffffff;stroke-width:4;stroke-linecap:butt;stroke-linejoin:miter;stroke-miterlimit:4;stroke-dasharray:none;stroke-opacity:1"
         d="m 363.645,5.10938 119.402,128.92162 0,103.508 -119.402,-116.465 0,-115.96462 z" /><path
         id="path34"
         style="fill:#ffffff;fill-opacity:1;fill-rule:nonzero;stroke:none"
         d="m 226.289,152.488 -3.184,-3.179 -89.089,0 -8.879,-8.887 -24.16,10.523 48.554,13.879 -12.343,-12.336 89.101,0" /><path
         id="path36"
         style="fill:#ffffff;fill-opacity:1;fill-rule:nonzero;stroke:none"
         d="m 384.094,215.051 8.875,8.875 24.25,-10.418 -48.645,-13.985 12.344,12.34 -89.102,0 3.184,3.188 89.094,0" /><path
         id="path38"
         style="fill:none;stroke:#000000;stroke-width:2.79999995;stroke-linecap:round;stroke-linejoin:miter;stroke-miterlimit:4;stroke-dasharray:none;stroke-opacity:1"
         d="M 378.332,211.34 367.395,200.398" /><path
         id="path40"
         style="fill:none;stroke:#000000;stroke-width:1.67999995;stroke-linecap:round;stroke-linejoin:miter;stroke-miterlimit:4;stroke-dasharray:none;stroke-opacity:1"
         d="m 324.961,166.711 -6.563,-6.563" /><path
         id="path42"
         style="fill:none;stroke:#000000;stroke-width:1.67999995;stroke-linecap:round;stroke-linejoin:miter;stroke-miterlimit:4;stroke-dasharray:none;stroke-opacity:1"
         d="m 244.707,173.699 -3.141,-2.613" /><path
         id="path44"
         style="fill:none;stroke:#000000;stroke-width:2.79999995;stroke-linecap:round;stroke-linejoin:miter;stroke-miterlimit:4;stroke-dasharray:none;stroke-opacity:1"
         d="m 296.953,217.023 -4.805,-4.375" /><path
         id="path46"
         style="fill:#087bbb;fill-opacity:1;fill-rule:nonzero;stroke:none"
         d="m 6.15234,5.01172 357.492,0 0,116.063 -357.492,0 0,-116.063 z" /><path
         id="path48"
         style="fill:none;stroke:#ffffff;stroke-width:4;stroke-linecap:butt;stroke-linejoin:miter;stroke-miterlimit:4;stroke-dasharray:none;stroke-opacity:1"
         d="m 6.15234,5.01172 357.492,0 0,116.063 -357.492,0 0,-116.063 z" /><path
         id="path50"
         style="fill:#ffffff;fill-opacity:1;fill-rule:nonzero;stroke:none"
         d="m 101.184,77.0234 0,23.2036 3.945,0 -5.8126,8.75 -5.8086,-8.75 3.9336,0 0,-23.2036 3.7426,0" /><path
         id="path52"
         style="fill:#ffffff;fill-opacity:1;fill-rule:nonzero;stroke:none"
         d="m 89.3555,73.6836 -16.4063,16.3945 2.7813,2.7813 -10.293,2.082 2.082,-10.3008 2.7852,2.793 16.4062,-16.4102 2.6446,2.6602" /><path
         id="path54"
         style="fill:#ffffff;fill-opacity:1;fill-rule:nonzero;stroke:none"
         d="m 83.3516,62.9414 -23.1953,0 0,3.9219 -8.75,-5.7969 8.75,-5.8008 0,3.9258 23.1953,0 0,3.75" /><path
         id="path56"
         style="fill:#ffffff;fill-opacity:1;fill-rule:nonzero;stroke:none"
         d="m 86.7109,51.1055 -16.4062,-16.4102 -2.7852,2.7852 -2.082,-10.3008 10.293,2.0898 -2.7813,2.7813 16.4063,16.4062 -2.6446,2.6485" /><path
         id="path58"
         style="fill:#ffffff;fill-opacity:1;fill-rule:nonzero;stroke:none"
         d="m 97.4414,45.1094 0,-23.2071 -3.9336,0 5.8086,-8.75 5.8126,8.75 -3.945,0 0,23.2071 -3.7426,0" /><path
         id="path60"
         style="fill:#ffffff;fill-opacity:1;fill-rule:nonzero;stroke:none"
         d="m 111.926,71.0234 16.406,16.4102 2.77,-2.793 2.089,10.3008 -10.293,-2.082 2.778,-2.7813 -16.399,-16.3945 2.649,-2.6602" /><path
         id="path62"
         style="fill:#ffffff;fill-opacity:1;fill-rule:nonzero;stroke:none"
         d="m 113.508,41.6328 c 10.867,7.5977 13.512,22.5781 5.894,33.4336 C 111.797,85.9453 96.8281,88.5859 85.957,80.9688 75.0898,73.3672 72.4531,58.3906 80.0586,47.5273 87.668,36.6484 102.645,34.0156 113.508,41.6328" /><path
         id="path64"
         style="fill:#ffffff;fill-opacity:1;fill-rule:nonzero;stroke:none"
         d="m 111.418,48.457 16.395,-16.4062 -2.774,-2.7813 10.293,-2.0898 -2.09,10.3008 -2.773,-2.7852 -16.406,16.4102 -2.645,-2.6485" /><path
         id="path66"
         style="fill:none;stroke:#ffffff;stroke-width:10;stroke-linecap:butt;stroke-linejoin:miter;stroke-miterlimit:4;stroke-dasharray:none;stroke-opacity:1"
         d="m 113.047,60.7734 152.656,0" /><path
         id="path68"
         style="fill:#ffffff;fill-opacity:1;fill-rule:nonzero;stroke:none"
         d="m 275.781,50.5586 0,-16.2422 -2.761,0 4.07,-6.125 4.062,6.125 -2.754,0 0,16.2422 -2.617,0" /><path
         id="path70"
         style="fill:#ffffff;fill-opacity:1;fill-rule:nonzero;stroke:none"
         d="m 284.063,52.8984 11.484,-11.4804 -1.953,-1.9532 7.207,-1.4453 -1.453,7.2071 -1.946,-1.9532 -11.484,11.4844 -1.855,-1.8594" /><path
         id="path72"
         style="fill:#ffffff;fill-opacity:1;fill-rule:nonzero;stroke:none"
         d="m 288.262,60.4219 16.23,0 0,-2.7539 6.133,4.0625 -6.133,4.0625 0,-2.7578 -16.23,0 0,-2.6133" /><path
         id="path74"
         style="fill:#ffffff;fill-opacity:1;fill-rule:nonzero;stroke:none"
         d="m 285.918,68.6992 11.484,11.4883 1.946,-1.9531 1.453,7.207 -7.207,-1.457 1.953,-1.9414 -11.484,-11.4844 1.855,-1.8594" /><path
         id="path76"
         style="fill:#ffffff;fill-opacity:1;fill-rule:nonzero;stroke:none"
         d="m 278.398,72.8984 0,16.2344 2.754,0 -4.062,6.1328 -4.07,-6.1328 2.761,0 0,-16.2344 2.617,0" /><path
         id="path78"
         style="fill:#ffffff;fill-opacity:1;fill-rule:nonzero;stroke:none"
         d="m 268.262,54.7578 -11.485,-11.4844 -1.941,1.9532 -1.457,-7.2071 7.199,1.4453 -1.945,1.9532 11.484,11.4804 -1.855,1.8594" /><path
         id="path80"
         style="fill:#ffffff;fill-opacity:1;fill-rule:nonzero;stroke:none"
         d="m 267.148,75.332 c -7.597,-5.3203 -9.453,-15.8086 -4.121,-23.4062 5.325,-7.6172 15.801,-9.4531 23.418,-4.1445 7.598,5.332 9.453,15.8242 4.121,23.4179 -5.32,7.6172 -15.808,9.4531 -23.418,4.1328" /><path
         id="path82"
         style="fill:#ffffff;fill-opacity:1;fill-rule:nonzero;stroke:none"
         d="m 268.613,70.5586 -11.472,11.4844 1.941,1.9414 -7.207,1.457 1.465,-7.207 1.933,1.9531 11.485,-11.4883 1.855,1.8594" /></g></g></svg>