<?xml version="1.0" encoding="UTF-8" standalone="no"?>
<svg
   xmlns:dc="http://purl.org/dc/elements/1.1/"
   xmlns:cc="http://creativecommons.org/ns#"
   xmlns:rdf="http://www.w3.org/1999/02/22-rdf-syntax-ns#"
   xmlns:svg="http://www.w3.org/2000/svg"
   xmlns="http://www.w3.org/2000/svg"
   viewBox="0 0 38.987499 38.724998"
   height="38.724998"
   width="38.987499"
   xml:space="preserve"
   version="1.1"
   id="svg2"><metadata
     id="metadata8"><rdf:RDF><cc:Work
         rdf:about=""><dc:format>image/svg+xml</dc:format><dc:type
           rdf:resource="http://purl.org/dc/dcmitype/StillImage" /></cc:Work></rdf:RDF></metadata><defs
     id="defs6"><clipPath
       id="clipPath18"
       clipPathUnits="userSpaceOnUse"><path
         id="path20"
         d="M 0,0 0,310 310,310 310,0 0,0 Z" /></clipPath></defs><g
     transform="matrix(1.25,0,0,-1.25,0,38.725)"
     id="g10"><g
       transform="scale(0.1,0.1)"
       id="g12"><g
         id="g14"><g
           clip-path="url(#clipPath18)"
           id="g16"><path
             id="path22"
             style="fill:#087fbf;fill-opacity:1;fill-rule:nonzero;stroke:none"
             d="m 6.19922,4.79688 267.07,0 0,266.824 -267.07,0 0,-266.824 z" /><path
             id="path24"
             style="fill:none;stroke:#ffffff;stroke-width:4;stroke-linecap:butt;stroke-linejoin:miter;stroke-miterlimit:4;stroke-dasharray:none;stroke-opacity:1"
             d="m 6.19922,4.79688 267.07,0 0,266.824 -267.07,0 0,-266.824 z" /><path
             id="path26"
             style="fill:#087fbf;fill-opacity:1;fill-rule:nonzero;stroke:none"
             d="m 307.004,38.2031 0,266.8239 -33.734,-33.406 0,-266.82412 33.734,33.40622" /><path
             id="path28"
             style="fill:none;stroke:#ffffff;stroke-width:4;stroke-linecap:butt;stroke-linejoin:miter;stroke-miterlimit:4;stroke-dasharray:none;stroke-opacity:1"
             d="m 307.004,38.2031 0,266.8239 -33.734,-33.406 0,-266.82412 33.734,33.40622 z" /><path
             id="path30"
             style="fill:#087fbf;fill-opacity:1;fill-rule:nonzero;stroke:none"
             d="m 52.5977,306.941 -46.39848,-33.398 267.07078,0 33.734,33.398 -254.4063,0" /><path
             id="path32"
             style="fill:none;stroke:#ffffff;stroke-width:4;stroke-linecap:butt;stroke-linejoin:miter;stroke-miterlimit:4;stroke-dasharray:none;stroke-opacity:1"
             d="m 52.5977,306.941 -46.39848,-33.398 267.07078,0 33.734,33.398 -254.4063,0 z" /><path
             id="path34"
             style="fill:#087fbf;fill-opacity:1;fill-rule:nonzero;stroke:none"
             d="m 273.27,271.621 -267.07078,0" /><path
             id="path36"
             style="fill:none;stroke:#ffffff;stroke-width:4;stroke-linecap:butt;stroke-linejoin:miter;stroke-miterlimit:4;stroke-dasharray:none;stroke-opacity:1"
             d="m 273.27,271.621 -267.07078,0" /><path
             id="path38"
             style="fill:#087fbf;fill-opacity:1;fill-rule:nonzero;stroke:none"
             d="m 273.27,271.621 33.734,33.406" /><path
             id="path40"
             style="fill:none;stroke:#ffffff;stroke-width:4;stroke-linecap:butt;stroke-linejoin:miter;stroke-miterlimit:4;stroke-dasharray:none;stroke-opacity:1"
             d="m 273.27,271.621 33.734,33.406" /><path
             id="path42"
             style="fill:#087fbf;fill-opacity:1;fill-rule:nonzero;stroke:none"
             d="m 273.27,271.621 0,-266.82412" /><path
             id="path44"
             style="fill:none;stroke:#ffffff;stroke-width:4;stroke-linecap:butt;stroke-linejoin:miter;stroke-miterlimit:4;stroke-dasharray:none;stroke-opacity:1"
             d="m 273.27,271.621 0,-266.82412" /><path
             id="path46"
             style="fill:#087fbf;fill-opacity:1;fill-rule:nonzero;stroke:none"
             d="m 273.27,271.621 -267.07078,0" /><path
             id="path48"
             style="fill:none;stroke:#ffffff;stroke-width:4;stroke-linecap:butt;stroke-linejoin:miter;stroke-miterlimit:4;stroke-dasharray:none;stroke-opacity:1"
             d="m 273.27,271.621 -267.07078,0" /><path
             id="path50"
             style="fill:#087fbf;fill-opacity:1;fill-rule:nonzero;stroke:none"
             d="m 273.27,271.621 33.734,33.406" /><path
             id="path52"
             style="fill:none;stroke:#ffffff;stroke-width:4;stroke-linecap:butt;stroke-linejoin:miter;stroke-miterlimit:4;stroke-dasharray:none;stroke-opacity:1"
             d="m 273.27,271.621 33.734,33.406" /><path
             id="path54"
             style="fill:#ffffff;fill-opacity:1;fill-rule:nonzero;stroke:none"
             d="m 145.52,177.012 0,57.722 9.793,0 -14.454,21.797 -14.453,-21.797 9.793,0 0,-57.722 9.321,0" /><path
             id="path56"
             style="fill:#ffffff;fill-opacity:1;fill-rule:nonzero;stroke:none"
             d="m 116.063,168.672 -40.8208,40.82 6.9258,6.922 -25.625,5.195 5.1836,-25.632 6.9257,6.921 40.8207,-40.82 6.59,6.594" /><path
             id="path58"
             style="fill:#ffffff;fill-opacity:1;fill-rule:nonzero;stroke:none"
             d="m 101.133,141.941 -57.7346,0 0,9.797 -21.789,-14.453 21.789,-14.441 0,9.785 57.7346,0 0,9.312" /><path
             id="path60"
             style="fill:#ffffff;fill-opacity:1;fill-rule:nonzero;stroke:none"
             d="m 109.473,112.488 -40.8207,-40.8161 -6.9257,6.9219 -5.1836,-25.625 25.625,5.1835 -6.9258,6.9375 40.8208,40.8162 -6.59,6.582" /><path
             id="path62"
             style="fill:#ffffff;fill-opacity:1;fill-rule:nonzero;stroke:none"
             d="m 136.199,97.5664 0,-57.7305 -9.793,0 14.453,-21.8007 14.454,21.8007 -9.793,0 0,57.7305 -9.321,0" /><path
             id="path64"
             style="fill:#ffffff;fill-opacity:1;fill-rule:nonzero;stroke:none"
             d="m 165.652,105.906 40.825,-40.8162 -6.926,-6.9375 25.625,-5.1835 -5.188,25.625 -6.922,-6.9219 -40.82,40.8161 -6.594,-6.582" /><path
             id="path66"
             style="fill:#ffffff;fill-opacity:1;fill-rule:nonzero;stroke:none"
             d="m 180.586,132.629 57.734,0 0,-9.785 21.785,14.441 -21.785,14.453 0,-9.797 -57.734,0 0,-9.312" /><path
             id="path68"
             style="fill:#ffffff;fill-opacity:1;fill-rule:nonzero;stroke:none"
             d="m 172.246,162.078 40.82,40.82 6.922,-6.921 5.188,25.632 -25.625,-5.195 6.926,-6.922 -40.825,-40.82 6.594,-6.594" /><path
             id="path70"
             style="fill:#ffffff;fill-opacity:1;fill-rule:nonzero;stroke:none"
             d="m 176.289,88.418 c 27.246,19.07 33.867,56.621 14.785,83.855 -19.062,27.247 -56.621,33.868 -83.855,14.786 C 79.9805,167.988 73.3594,130.438 92.4297,103.203 111.504,75.9688 149.055,69.3438 176.289,88.418" /><path
             id="path72"
             style="fill:none;stroke:#087fbf;stroke-width:4;stroke-linecap:butt;stroke-linejoin:miter;stroke-miterlimit:4;stroke-dasharray:none;stroke-opacity:1"
             d="m 176.289,88.418 c 27.246,19.07 33.867,56.621 14.785,83.855 -19.062,27.247 -56.621,33.868 -83.855,14.786 C 79.9805,167.988 73.3594,130.438 92.4297,103.203 111.504,75.9688 149.055,69.3438 176.289,88.418 Z" /></g></g></g></g></svg>