<?xml version="1.0" encoding="UTF-8" standalone="no"?>
<svg
   xmlns:dc="http://purl.org/dc/elements/1.1/"
   xmlns:cc="http://creativecommons.org/ns#"
   xmlns:rdf="http://www.w3.org/1999/02/22-rdf-syntax-ns#"
   xmlns:svg="http://www.w3.org/2000/svg"
   xmlns="http://www.w3.org/2000/svg"
   viewBox="0 0 61.25 32.5"
   height="32.5"
   width="61.25"
   xml:space="preserve"
   version="1.1"
   id="svg2"><metadata
     id="metadata8"><rdf:RDF><cc:Work
         rdf:about=""><dc:format>image/svg+xml</dc:format><dc:type
           rdf:resource="http://purl.org/dc/dcmitype/StillImage" /></cc:Work></rdf:RDF></metadata><defs
     id="defs6" /><g
     transform="matrix(1.25,0,0,-1.25,0,32.5)"
     id="g10"><g
       transform="scale(0.1,0.1)"
       id="g12"><path
         id="path14"
         style="fill:#087bbb;fill-opacity:1;fill-rule:nonzero;stroke:none"
         d="m 5.66016,131.07 144.30084,116.68 333.09,0 -119.422,-116.68 -357.96884,0" /><path
         id="path16"
         style="fill:none;stroke:#ffffff;stroke-width:4;stroke-linecap:butt;stroke-linejoin:miter;stroke-miterlimit:4;stroke-dasharray:none;stroke-opacity:1"
         d="m 5.66016,131.066 144.30084,116.68 333.09,0 -119.422,-116.68 -357.96884,0 z" /><path
         id="path18"
         style="fill:#000000;fill-opacity:1;fill-rule:nonzero;stroke:none"
         d="m 332.93,186.109 8.871,8.86 27.73,-12.61 -48.633,-13.988 11.012,14.527 -88.629,0 3.168,3.211 86.481,0" /><path
         id="path20"
         style="fill:#000000;fill-opacity:1;fill-rule:nonzero;stroke:none"
         d="m 279.648,215.828 -3.168,-3.156 -90.39,0 -13.711,-10.633 -23.277,11.41 53.398,15.621 -13.238,-13.242 90.386,0" /><path
         id="path22"
         style="fill:#000000;fill-opacity:1;fill-rule:nonzero;stroke:none"
         d="m 229.801,165.559 -3.199,-3.2 -90.821,0 -13.711,-10.199 -24.1403,11.41 54.6913,15.192 -12.351,-13.203 89.531,0" /><path
         id="path24"
         style="fill:#000000;fill-opacity:1;fill-rule:nonzero;stroke:none"
         d="m 384.102,228.102 8.867,8.859 27.769,-12.141 -48.668,-13.992 10.59,14.102 -89.07,0 3.172,3.172 87.34,0" /><path
         id="path26"
         style="fill:#ffffff;fill-opacity:1;fill-rule:nonzero;stroke:none"
         d="m 333.359,183.059 8.871,8.871 24.25,-10.43 -48.671,-13.988 12.351,12.347 -89.07,0 3.172,3.2 89.097,0" /><path
         id="path28"
         style="fill:#ffffff;fill-opacity:1;fill-rule:nonzero;stroke:none"
         d="m 276.602,212.781 -3.161,-3.16 -89.101,0 -8.871,-8.91 -24.18,10.551 48.551,13.867 -12.34,-12.348 89.102,0" /><path
         id="path30"
         style="fill:#087bbb;fill-opacity:1;fill-rule:nonzero;stroke:none"
         d="m 363.629,15.0898 119.422,128.9412 0,103.52 -119.422,-116.481 0,-115.9802" /><path
         id="path32"
         style="fill:none;stroke:#ffffff;stroke-width:4;stroke-linecap:butt;stroke-linejoin:miter;stroke-miterlimit:4;stroke-dasharray:none;stroke-opacity:1"
         d="m 363.629,15.0859 119.422,128.9491 0,103.512 -119.422,-116.481 0,-115.9801 z" /><path
         id="path34"
         style="fill:#ffffff;fill-opacity:1;fill-rule:nonzero;stroke:none"
         d="m 226.289,162.469 -3.168,-3.16 -89.101,0 -8.86,-8.911 -24.18,10.551 48.551,13.871 -12.34,-12.351 89.098,0" /><path
         id="path36"
         style="fill:#ffffff;fill-opacity:1;fill-rule:nonzero;stroke:none"
         d="m 384.102,225.051 8.867,8.871 24.261,-10.434 -48.64,-13.988 12.351,12.352 -89.101,0 3.16,3.199 89.102,0" /><path
         id="path38"
         style="fill:none;stroke:#000000;stroke-width:2.79999995;stroke-linecap:round;stroke-linejoin:miter;stroke-miterlimit:4;stroke-dasharray:none;stroke-opacity:1"
         d="M 378.32,221.336 367.379,210.398" /><path
         id="path40"
         style="fill:none;stroke:#000000;stroke-width:1.67999995;stroke-linecap:round;stroke-linejoin:miter;stroke-miterlimit:4;stroke-dasharray:none;stroke-opacity:1"
         d="m 324.961,176.688 -6.563,-6.559" /><path
         id="path42"
         style="fill:none;stroke:#000000;stroke-width:1.67999995;stroke-linecap:round;stroke-linejoin:miter;stroke-miterlimit:4;stroke-dasharray:none;stroke-opacity:1"
         d="m 244.73,183.688 -3.171,-2.622" /><path
         id="path44"
         style="fill:none;stroke:#000000;stroke-width:2.79999995;stroke-linecap:round;stroke-linejoin:miter;stroke-miterlimit:4;stroke-dasharray:none;stroke-opacity:1"
         d="m 296.949,227.008 -4.801,-4.379" /><path
         id="path46"
         style="fill:#087bbb;fill-opacity:1;fill-rule:nonzero;stroke:none"
         d="m 6.17188,15.0195 357.457,0 0,116.051 -357.457,0 0,-116.051 z" /><path
         id="path48"
         style="fill:none;stroke:#ffffff;stroke-width:4;stroke-linecap:butt;stroke-linejoin:miter;stroke-miterlimit:4;stroke-dasharray:none;stroke-opacity:1"
         d="m 6.17188,15.0156 357.457,0 0,116.051 -357.457,0 0,-116.051 z" /><path
         id="path50"
         style="fill:#ffffff;fill-opacity:1;fill-rule:nonzero;stroke:none"
         d="m 101.172,87 0,23.211 3.949,0 -5.7812,8.75 -5.8203,-8.75 3.9414,0 0,-23.211 3.7111,0" /><path
         id="path52"
         style="fill:#ffffff;fill-opacity:1;fill-rule:nonzero;stroke:none"
         d="m 89.3789,83.6797 -16.4101,16.4103 2.7695,2.769 -10.3086,2.071 2.1094,-10.3089 2.7695,2.8086 16.4102,-16.3984 2.6601,2.6484" /><path
         id="path54"
         style="fill:#ffffff;fill-opacity:1;fill-rule:nonzero;stroke:none"
         d="m 83.3594,72.9414 -23.1992,0 0,3.9102 -8.75,-5.7813 8.75,-5.8203 0,3.9414 23.1992,0 0,3.75" /><path
         id="path56"
         style="fill:#ffffff;fill-opacity:1;fill-rule:nonzero;stroke:none"
         d="m 86.7188,61.1094 -16.4102,-16.4102 -2.7695,2.7696 -2.1094,-10.3086 10.3086,2.1093 -2.7695,2.7696 16.4101,16.4101 -2.6601,2.6602" /><path
         id="path58"
         style="fill:#ffffff;fill-opacity:1;fill-rule:nonzero;stroke:none"
         d="m 97.4609,55.0898 0,-23.1992 -3.9414,0 5.8203,-8.75 5.7812,8.75 -3.949,0 0,23.1992 -3.7111,0" /><path
         id="path60"
         style="fill:#ffffff;fill-opacity:1;fill-rule:nonzero;stroke:none"
         d="m 111.91,81.0313 16.41,16.3984 2.77,-2.8086 2.109,10.3089 -10.308,-2.071 2.769,-2.769 -16.359,-16.4103 2.609,-2.6484" /><path
         id="path62"
         style="fill:#ffffff;fill-opacity:1;fill-rule:nonzero;stroke:none"
         d="m 113.52,51.6094 c 10.859,7.6211 13.511,22.582 5.89,33.4414 C 111.801,95.9492 96.8398,98.5703 85.9805,90.9492 75.0781,83.3711 72.4609,68.3711 80.0781,57.5117 87.6602,46.6484 102.66,44 113.52,51.6094" /><path
         id="path64"
         style="fill:#ffffff;fill-opacity:1;fill-rule:nonzero;stroke:none"
         d="m 111.41,58.4492 16.399,-16.4101 -2.77,-2.7696 10.313,-2.1093 -2.114,10.3086 -2.769,-2.7696 -16.41,16.4102 -2.649,-2.6602" /><path
         id="path66"
         style="fill:none;stroke:#ffffff;stroke-width:10;stroke-linecap:butt;stroke-linejoin:miter;stroke-miterlimit:4;stroke-dasharray:none;stroke-opacity:1"
         d="m 113.051,70.7578 152.648,0" /><path
         id="path68"
         style="fill:#ffffff;fill-opacity:1;fill-rule:nonzero;stroke:none"
         d="m 275.781,60.5586 0,-16.25 -2.769,0 4.097,-6.1289 4.063,6.1289 -2.774,0 0,16.25 -2.617,0" /><path
         id="path70"
         style="fill:#ffffff;fill-opacity:1;fill-rule:nonzero;stroke:none"
         d="m 284.059,62.8984 11.492,-11.4765 -1.961,-1.961 7.23,-1.4414 -1.48,7.1914 -1.918,-1.9609 -11.481,11.4883 -1.882,-1.8399" /><path
         id="path72"
         style="fill:#ffffff;fill-opacity:1;fill-rule:nonzero;stroke:none"
         d="m 288.281,70.3984 16.207,0 0,-2.7265 6.133,4.0586 -6.133,4.0586 0,-2.7696 -16.207,0 0,-2.6211" /><path
         id="path74"
         style="fill:#ffffff;fill-opacity:1;fill-rule:nonzero;stroke:none"
         d="m 285.941,78.6797 11.481,11.4922 1.918,-1.961 1.48,7.2305 -7.23,-1.4414 1.961,-1.9609 -11.492,-11.4805 1.882,-1.8789" /><path
         id="path76"
         style="fill:#ffffff;fill-opacity:1;fill-rule:nonzero;stroke:none"
         d="m 278.398,82.8984 0,16.211 2.774,0 -4.063,6.1406 -4.097,-6.1406 2.769,0 0,-16.211 2.617,0" /><path
         id="path78"
         style="fill:#ffffff;fill-opacity:1;fill-rule:nonzero;stroke:none"
         d="m 268.281,64.7383 -11.48,-11.4883 -1.961,1.9609 -1.442,-7.1914 7.192,1.4414 -1.961,1.961 11.492,11.4765 -1.84,1.8399" /><path
         id="path80"
         style="fill:#ffffff;fill-opacity:1;fill-rule:nonzero;stroke:none"
         d="M 267.148,85.3203 C 259.57,80.0117 257.699,69.5 263.051,61.9297 c 5.308,-7.6211 15.777,-9.4609 23.398,-4.1484 7.61,5.3203 9.449,15.8281 4.141,23.3984 -5.36,7.6211 -15.82,9.4609 -23.442,4.1406" /><path
         id="path82"
         style="fill:#ffffff;fill-opacity:1;fill-rule:nonzero;stroke:none"
         d="m 268.629,80.5586 -11.481,11.4805 1.954,1.9609 -7.223,1.4414 1.48,-7.2305 1.911,1.961 11.492,-11.4922 1.867,1.8789" /></g></g></svg>