<?xml version="1.0" encoding="UTF-8" standalone="no"?>
<svg
   xmlns:dc="http://purl.org/dc/elements/1.1/"
   xmlns:cc="http://creativecommons.org/ns#"
   xmlns:rdf="http://www.w3.org/1999/02/22-rdf-syntax-ns#"
   xmlns:svg="http://www.w3.org/2000/svg"
   xmlns="http://www.w3.org/2000/svg"
   viewBox="0 0 38.75 40"
   height="40"
   width="38.75"
   xml:space="preserve"
   version="1.1"
   id="svg2"><metadata
     id="metadata8"><rdf:RDF><cc:Work
         rdf:about=""><dc:format>image/svg+xml</dc:format><dc:type
           rdf:resource="http://purl.org/dc/dcmitype/StillImage" /></cc:Work></rdf:RDF></metadata><defs
     id="defs6"><clipPath
       id="clipPath18"
       clipPathUnits="userSpaceOnUse"><path
         id="path20"
         d="M 0,10 0,320 310,320 310,10 0,10 Z" /></clipPath></defs><g
     transform="matrix(1.25,0,0,-1.25,0,40)"
     id="g10"><g
       transform="scale(0.1,0.1)"
       id="g12"><g
         id="g14"><g
           clip-path="url(#clipPath18)"
           id="g16"><path
             id="path22"
             style="fill:#087fbf;fill-opacity:1;fill-rule:nonzero;stroke:none"
             d="m 6.21094,14.7813 267.07,0 0,266.84 -267.07,0 0,-266.84 z" /><path
             id="path24"
             style="fill:none;stroke:#ffffff;stroke-width:4;stroke-linecap:butt;stroke-linejoin:miter;stroke-miterlimit:4;stroke-dasharray:none;stroke-opacity:1"
             d="m 6.21094,14.7813 267.07,0 0,266.84 -267.07,0 0,-266.84 z" /><path
             id="path26"
             style="fill:#087fbf;fill-opacity:1;fill-rule:nonzero;stroke:none"
             d="m 306.988,48.2188 0,266.8012 -33.707,-33.399 0,-266.8397 33.707,33.4375" /><path
             id="path28"
             style="fill:none;stroke:#ffffff;stroke-width:4;stroke-linecap:butt;stroke-linejoin:miter;stroke-miterlimit:4;stroke-dasharray:none;stroke-opacity:1"
             d="m 306.988,48.2188 0,266.8012 -33.707,-33.399 0,-266.8397 33.707,33.4375 z" /><path
             id="path30"
             style="fill:#087fbf;fill-opacity:1;fill-rule:nonzero;stroke:none"
             d="m 52.6211,316.93 -46.41016,-33.399 267.07006,0 33.707,33.399 -254.3669,0" /><path
             id="path32"
             style="fill:none;stroke:#ffffff;stroke-width:4;stroke-linecap:butt;stroke-linejoin:miter;stroke-miterlimit:4;stroke-dasharray:none;stroke-opacity:1"
             d="m 52.6211,316.93 -46.41016,-33.399 267.07006,0 33.707,33.399 -254.3669,0 z" /><path
             id="path34"
             style="fill:none;stroke:#ffffff;stroke-width:4;stroke-linecap:butt;stroke-linejoin:miter;stroke-miterlimit:4;stroke-dasharray:none;stroke-opacity:1"
             d="m 273.281,281.621 -267.07006,0" /><path
             id="path36"
             style="fill:#087fbf;fill-opacity:1;fill-rule:nonzero;stroke:none"
             d="m 273.281,281.621 33.707,33.399" /><path
             id="path38"
             style="fill:none;stroke:#ffffff;stroke-width:4;stroke-linecap:butt;stroke-linejoin:miter;stroke-miterlimit:4;stroke-dasharray:none;stroke-opacity:1"
             d="m 273.281,281.621 33.707,33.399" /><path
             id="path40"
             style="fill:none;stroke:#ffffff;stroke-width:4;stroke-linecap:butt;stroke-linejoin:miter;stroke-miterlimit:4;stroke-dasharray:none;stroke-opacity:1"
             d="m 273.281,281.621 0,-266.8397" /><path
             id="path42"
             style="fill:none;stroke:#ffffff;stroke-width:4;stroke-linecap:butt;stroke-linejoin:miter;stroke-miterlimit:4;stroke-dasharray:none;stroke-opacity:1"
             d="m 273.281,281.621 -267.07006,0" /><path
             id="path44"
             style="fill:#087fbf;fill-opacity:1;fill-rule:nonzero;stroke:none"
             d="m 273.281,281.621 33.707,33.399" /><path
             id="path46"
             style="fill:none;stroke:#ffffff;stroke-width:4;stroke-linecap:butt;stroke-linejoin:miter;stroke-miterlimit:4;stroke-dasharray:none;stroke-opacity:1"
             d="m 273.281,281.621 33.707,33.399" /><path
             id="path48"
             style="fill:#ffffff;fill-opacity:1;fill-rule:nonzero;stroke:none"
             d="m 145.512,187.012 0,57.73 9.797,0 -14.45,21.797 -14.449,-21.797 9.801,0 0,-57.73 9.301,0" /><path
             id="path50"
             style="fill:#ffffff;fill-opacity:1;fill-rule:nonzero;stroke:none"
             d="m 116.051,178.691 -40.8205,40.821 6.9609,6.91 -25.6328,5.199 5.1602,-25.629 6.9101,6.918 40.8591,-40.82 6.563,6.601" /><path
             id="path52"
             style="fill:#ffffff;fill-opacity:1;fill-rule:nonzero;stroke:none"
             d="m 101.129,151.93 -57.7306,0 0,9.8 -21.7968,-14.449 21.7968,-14.449 0,9.797 57.7306,0 0,9.301" /><path
             id="path54"
             style="fill:#ffffff;fill-opacity:1;fill-rule:nonzero;stroke:none"
             d="m 109.488,122.48 -40.8591,-40.8198 -6.9101,6.9492 -5.1602,-25.6289 25.6328,5.1601 -6.9609,6.9492 40.8205,40.8202 -6.563,6.57" /><path
             id="path56"
             style="fill:#ffffff;fill-opacity:1;fill-rule:nonzero;stroke:none"
             d="m 136.211,107.551 0,-57.7307 -9.801,0 14.449,-21.8008 14.45,21.8008 -9.797,0 0,57.7307 -9.301,0" /><path
             id="path58"
             style="fill:#ffffff;fill-opacity:1;fill-rule:nonzero;stroke:none"
             d="M 165.66,115.91 206.48,75.0898 199.57,68.1406 225.199,62.9805 220,88.6094 213.051,81.6602 172.23,122.48 165.66,115.91" /><path
             id="path60"
             style="fill:#ffffff;fill-opacity:1;fill-rule:nonzero;stroke:none"
             d="m 180.59,142.629 57.73,0 0,-9.797 21.801,14.449 -21.801,14.449 0,-9.8 -57.73,0 0,-9.301" /><path
             id="path62"
             style="fill:#ffffff;fill-opacity:1;fill-rule:nonzero;stroke:none"
             d="m 172.23,172.09 40.821,40.82 6.949,-6.918 5.199,25.629 -25.629,-5.199 6.91,-6.91 -40.82,-40.821 6.57,-6.601" /><path
             id="path64"
             style="fill:#ffffff;fill-opacity:1;fill-rule:nonzero;stroke:none"
             d="m 176.289,98.4102 c 27.231,19.0698 33.871,56.6408 14.762,83.8708 -19.02,27.231 -56.602,33.871 -83.821,14.77 C 80,177.98 73.3594,140.441 92.4219,113.219 111.52,85.9492 149.059,79.3516 176.289,98.4102" /><path
             id="path66"
             style="fill:none;stroke:#087fbf;stroke-width:4;stroke-linecap:butt;stroke-linejoin:miter;stroke-miterlimit:4;stroke-dasharray:none;stroke-opacity:1"
             d="m 176.289,98.4102 c 27.231,19.0698 33.871,56.6408 14.762,83.8708 -19.02,27.231 -56.602,33.871 -83.821,14.77 C 80,177.98 73.3594,140.441 92.4219,113.219 111.52,85.9492 149.059,79.3516 176.289,98.4102 Z" /></g></g></g></g></svg>