<?xml version="1.0" encoding="UTF-8" standalone="no"?>
<svg
   xmlns:dc="http://purl.org/dc/elements/1.1/"
   xmlns:cc="http://creativecommons.org/ns#"
   xmlns:rdf="http://www.w3.org/1999/02/22-rdf-syntax-ns#"
   xmlns:svg="http://www.w3.org/2000/svg"
   xmlns="http://www.w3.org/2000/svg"
   xmlns:sodipodi="http://sodipodi.sourceforge.net/DTD/sodipodi-0.dtd"
   xmlns:inkscape="http://www.inkscape.org/namespaces/inkscape"
   viewBox="0 0 60.99464 34.375141"
   height="34.375141"
   width="60.99464"
   xml:space="preserve"
   version="1.1"
   id="svg2"
   inkscape:version="0.91 r13725"
   sodipodi:docname="lightweightap.svg"><sodipodi:namedview
     pagecolor="#ffffff"
     bordercolor="#666666"
     borderopacity="1"
     objecttolerance="10"
     gridtolerance="10"
     guidetolerance="10"
     inkscape:pageopacity="0"
     inkscape:pageshadow="2"
     inkscape:window-width="448"
     inkscape:window-height="438"
     id="namedview26"
     showgrid="false"
     inkscape:zoom="5.0819672"
     inkscape:cx="30.500189"
     inkscape:cy="17.18735"
     inkscape:window-x="0"
     inkscape:window-y="23"
     inkscape:window-maximized="0"
     inkscape:current-layer="svg2" /><metadata
     id="metadata8"><rdf:RDF><cc:Work
         rdf:about=""><dc:format>image/svg+xml</dc:format><dc:type
           rdf:resource="http://purl.org/dc/dcmitype/StillImage" /></cc:Work></rdf:RDF></metadata><defs
     id="defs6" /><g
     transform="matrix(1.25,0,0,-1.25,1.8920846e-4,34.375291)"
     id="g10"><g
       transform="scale(0.1,0.1)"
       id="g12"><path
         id="path14"
         style="fill:#087bbb;fill-opacity:1;fill-rule:nonzero;stroke:none"
         d="m 5.65234,153.793 144.28566,116.68 333.109,0 -119.414,-116.68 -357.98066,0"
         inkscape:connector-curvature="0" /><path
         id="path16"
         style="fill:none;stroke:#ffffff;stroke-width:4;stroke-linecap:butt;stroke-linejoin:miter;stroke-miterlimit:4;stroke-dasharray:none;stroke-opacity:1"
         d="m 5.65234,153.793 144.28566,116.68 333.109,0 -119.414,-116.68 -357.98066,0 z"
         inkscape:connector-curvature="0" /><path
         id="path18"
         style="fill:#087bbb;fill-opacity:1;fill-rule:nonzero;stroke:none"
         d="m 363.633,4.89453 119.414,121.67947 0,143.684 -119.414,-116.465 0,-148.89847"
         inkscape:connector-curvature="0" /><path
         id="path20"
         style="fill:none;stroke:#ffffff;stroke-width:4;stroke-linecap:butt;stroke-linejoin:miter;stroke-miterlimit:4;stroke-dasharray:none;stroke-opacity:1"
         d="m 363.633,4.89453 119.414,121.67947 0,143.684 -119.414,-116.465 0,-148.89847 z"
         inkscape:connector-curvature="0" /><path
         id="path22"
         style="fill:#087bbb;fill-opacity:1;fill-rule:nonzero;stroke:none"
         d="m 6.14063,4.77734 357.492,0 0,149.016 -357.492,0 0,-149.016 z"
         inkscape:connector-curvature="0" /><path
         id="path24"
         style="fill:none;stroke:#ffffff;stroke-width:4;stroke-linecap:butt;stroke-linejoin:miter;stroke-miterlimit:4;stroke-dasharray:none;stroke-opacity:1"
         d="m 6.14063,4.77734 357.492,0 0,149.016 -357.492,0 0,-149.016 z"
         inkscape:connector-curvature="0" /><path
         id="path26"
         style="fill:none;stroke:#ffffff;stroke-width:4.5;stroke-linecap:round;stroke-linejoin:miter;stroke-miterlimit:1;stroke-dasharray:none;stroke-opacity:1"
         d="m 343.477,75.1094 c 0,0 -23.789,-61.1719 -52.383,0.1758 -28.574,61.2888 -52.414,0.1171 -52.414,0.1171 0,0 -23.762,-61.1914 -52.336,0.1368 -28.563,61.3089 -52.262,-0.3907 -52.262,-0.3907 0,0 -23.723,-61.2109 -52.3203,0.1368 -28.5625,61.2888 -52.2734,0.1757 -52.2734,0.1757"
         inkscape:connector-curvature="0" /><path
         id="path28"
         style="fill:none;stroke:#ffffff;stroke-width:9;stroke-linecap:round;stroke-linejoin:miter;stroke-miterlimit:1;stroke-dasharray:none;stroke-opacity:1"
         d="m 29.4883,75.1094 c 0,0 23.793,-61.1719 52.3828,0.1758 28.5669,61.2888 52.4059,0.1171 52.4059,0.1171 0,0 23.758,-61.1914 52.332,0.1368 28.571,61.3089 52.262,-0.3907 52.262,-0.3907 0,0 23.727,-61.2109 52.32,0.1368 28.575,61.2888 52.286,0.1757 52.286,0.1757"
         inkscape:connector-curvature="0" /><path
         id="path30"
         style="fill:none;stroke:#231f20;stroke-width:4.5;stroke-linecap:round;stroke-linejoin:miter;stroke-miterlimit:1;stroke-dasharray:none;stroke-opacity:1"
         d="m 348.984,75.0898 c 0,0 -23.789,-61.1523 -52.382,0.1954 -28.575,61.2888 -52.414,0.1171 -52.414,0.1171 0,0 -23.758,-61.1914 -52.333,0.1172 -28.57,61.3285 -52.265,-0.3906 -52.265,-0.3906 0,0 -23.723,-61.1914 -52.3205,0.1563 -28.5625,61.2888 -52.2734,0.1367 -52.2734,0.1367"
         inkscape:connector-curvature="0" /><path
         id="path32"
         style="fill:none;stroke:#231f20;stroke-width:9;stroke-linecap:round;stroke-linejoin:miter;stroke-miterlimit:1;stroke-dasharray:none;stroke-opacity:1"
         d="m 34.9961,75.0898 c 0,0 23.7891,-61.1523 52.3828,0.1954 28.5741,61.2888 52.4021,0.1171 52.4021,0.1171 0,0 23.77,-61.1914 52.336,0.1172 28.571,61.3285 52.258,-0.3906 52.258,-0.3906 0,0 23.73,-61.1914 52.324,0.1563 28.574,61.2888 52.285,0.1367 52.285,0.1367"
         inkscape:connector-curvature="0" /><path
         id="path34"
         style="fill:none;stroke:#ffffff;stroke-width:4.5;stroke-linecap:round;stroke-linejoin:miter;stroke-miterlimit:1;stroke-dasharray:none;stroke-opacity:1"
         d="m 343.477,75.1094 c 0,0 -23.789,-61.1719 -52.383,0.1758 -28.574,61.2888 -52.414,0.1171 -52.414,0.1171 0,0 -23.762,-61.1914 -52.336,0.1368 -28.563,61.3089 -52.262,-0.3907 -52.262,-0.3907 0,0 -23.723,-61.2109 -52.3203,0.1368 -28.5625,61.2888 -52.2734,0.1757 -52.2734,0.1757"
         inkscape:connector-curvature="0" /><path
         id="path36"
         style="fill:none;stroke:#ffffff;stroke-width:9;stroke-linecap:round;stroke-linejoin:miter;stroke-miterlimit:1;stroke-dasharray:none;stroke-opacity:1"
         d="m 29.4883,75.1094 c 0,0 23.793,-61.1719 52.3828,0.1758 28.5669,61.2888 52.4059,0.1171 52.4059,0.1171 0,0 23.758,-61.1914 52.332,0.1368 28.571,61.3089 52.262,-0.3907 52.262,-0.3907 0,0 23.727,-61.2109 52.32,0.1368 28.575,61.2888 52.286,0.1757 52.286,0.1757"
         inkscape:connector-curvature="0" /><path
         id="path38"
         style="fill:none;stroke:#231f20;stroke-width:4.5;stroke-linecap:round;stroke-linejoin:miter;stroke-miterlimit:1;stroke-dasharray:none;stroke-opacity:1"
         d="m 348.984,75.0898 c 0,0 -23.789,-61.1523 -52.382,0.1954 -28.575,61.2888 -52.414,0.1171 -52.414,0.1171 0,0 -23.758,-61.1914 -52.333,0.1172 -28.57,61.3285 -52.265,-0.3906 -52.265,-0.3906 0,0 -23.723,-61.1914 -52.3205,0.1563 -28.5625,61.2888 -52.2734,0.1367 -52.2734,0.1367"
         inkscape:connector-curvature="0" /><path
         id="path40"
         style="fill:none;stroke:#231f20;stroke-width:9;stroke-linecap:round;stroke-linejoin:miter;stroke-miterlimit:1;stroke-dasharray:none;stroke-opacity:1"
         d="m 34.9961,75.0898 c 0,0 23.7891,-61.1523 52.3828,0.1954 28.5741,61.2888 52.4021,0.1171 52.4021,0.1171 0,0 23.77,-61.1914 52.336,0.1172 28.571,61.3285 52.258,-0.3906 52.258,-0.3906 0,0 23.73,-61.1914 52.324,0.1563 28.574,61.2888 52.285,0.1367 52.285,0.1367"
         inkscape:connector-curvature="0" /><path
         id="path42"
         style="fill:none;stroke:#ffffff;stroke-width:4.5;stroke-linecap:round;stroke-linejoin:miter;stroke-miterlimit:1;stroke-dasharray:none;stroke-opacity:1"
         d="m 343.477,75.1094 c 0,0 -23.789,-61.1719 -52.383,0.1758 -28.574,61.2888 -52.414,0.1171 -52.414,0.1171 0,0 -23.762,-61.1914 -52.336,0.1368 -28.563,61.3089 -52.262,-0.3907 -52.262,-0.3907 0,0 -23.723,-61.2109 -52.3203,0.1368 -28.5625,61.2888 -52.2734,0.1757 -52.2734,0.1757"
         inkscape:connector-curvature="0" /><path
         id="path44"
         style="fill:none;stroke:#ffffff;stroke-width:9;stroke-linecap:round;stroke-linejoin:miter;stroke-miterlimit:1;stroke-dasharray:none;stroke-opacity:1"
         d="m 29.4883,75.1094 c 0,0 23.793,-61.1719 52.3828,0.1758 28.5669,61.2888 52.4059,0.1171 52.4059,0.1171 0,0 23.758,-61.1914 52.332,0.1368 28.571,61.3089 52.262,-0.3907 52.262,-0.3907 0,0 23.727,-61.2109 52.32,0.1368 28.575,61.2888 52.286,0.1757 52.286,0.1757"
         inkscape:connector-curvature="0" /><g
         transform="scale(10,10)"
         id="g46"><text
           id="text48"
           style="font-variant:normal;font-weight:bold;font-size:11.6249752px;font-family:Helvetica;-inkscape-font-specification:Helvetica-Bold;writing-mode:lr-tb;fill:#ffffff;fill-opacity:1;fill-rule:nonzero;stroke:none"
           transform="matrix(0.74519735,0,-0.66684399,-0.57352852,6.43555,18.777)"><tspan
             id="tspan50"
             y="0"
             x="0 6.1728616 16.449589 24.842819 32.59668">LWAPP</tspan></text>
</g></g></g></svg>