<svg xmlns="http://www.w3.org/2000/svg" viewBox="0 0 61.25 36.25" height="36.25" width="61.25"><path d="M.708 15.776L18.74 1.191h41.641L45.454 15.776H.708" fill="#087bbb"/><path d="M.708 15.776L18.74 1.19h41.641L45.454 15.776H.708z" fill="none" stroke="#fff" stroke-width=".5"/><path d="M45.454 34.39L60.38 19.18V1.216l-14.927 14.56V34.39" fill="#087bbb"/><path d="M45.454 34.39L60.38 19.18V1.216l-14.927 14.56V34.39z" fill="none" stroke="#fff" stroke-width=".5"/><path d="M.766 34.404h44.688V15.776H.766v18.628z" fill="#087bbb"/><path d="M.766 34.404h44.688V15.776H.766v18.628z" fill="none" stroke="#fff" stroke-width=".5"/><path d="M42.935 25.61s-2.974 7.646-6.549-.019c-3.569-7.661-6.552-.015-6.552-.015s-2.969 7.646-6.543-.02c-3.57-7.661-6.528.049-6.528.049s-2.969 7.651-6.543-.014c-3.57-7.661-6.534-.025-6.534-.025" fill="none" stroke="#fff" stroke-width=".5625" stroke-linecap="round" stroke-miterlimit="1"/><path d="M3.686 25.61s2.974 7.646 6.549-.019c3.569-7.661 6.553-.015 6.553-.015s2.968 7.646 6.537-.02c3.575-7.661 6.534.049 6.534.049s2.969 7.651 6.542-.014c3.57-7.661 6.534-.025 6.534-.025" fill="none" stroke="#fff" stroke-width="1.125" stroke-linecap="round" stroke-miterlimit="1"/><path d="M43.623 25.615s-2.973 7.641-6.548-.024c-3.569-7.661-6.552-.015-6.552-.015s-2.97 7.646-6.538-.015c-3.575-7.666-6.534.049-6.534.049s-2.969 7.646-6.542-.019c-3.57-7.661-6.534-.02-6.534-.02" fill="none" stroke="#231f20" stroke-width=".5625" stroke-linecap="round" stroke-miterlimit="1"/><path d="M4.375 25.615s2.974 7.641 6.547-.024c3.57-7.661 6.55-.015 6.55-.015s2.972 7.646 6.542-.015c3.573-7.666 6.533.049 6.533.049s2.968 7.646 6.543-.019c3.569-7.661 6.533-.02 6.533-.02" fill="none" stroke="#231f20" stroke-width="1.125" stroke-linecap="round" stroke-miterlimit="1"/><path d="M42.935 25.61s-2.974 7.646-6.549-.019c-3.569-7.661-6.552-.015-6.552-.015s-2.969 7.646-6.543-.02c-3.57-7.661-6.528.049-6.528.049s-2.969 7.651-6.543-.014c-3.57-7.661-6.534-.025-6.534-.025" fill="none" stroke="#fff" stroke-width=".5625" stroke-linecap="round" stroke-miterlimit="1"/><path d="M3.686 25.61s2.974 7.646 6.549-.019c3.569-7.661 6.553-.015 6.553-.015s2.968 7.646 6.537-.02c3.575-7.661 6.534.049 6.534.049s2.969 7.651 6.542-.014c3.57-7.661 6.534-.025 6.534-.025" fill="none" stroke="#fff" stroke-width="1.125" stroke-linecap="round" stroke-miterlimit="1"/><path d="M43.623 25.615s-2.973 7.641-6.548-.024c-3.569-7.661-6.552-.015-6.552-.015s-2.97 7.646-6.538-.015c-3.575-7.666-6.534.049-6.534.049s-2.969 7.646-6.542-.019c-3.57-7.661-6.534-.02-6.534-.02" fill="none" stroke="#231f20" stroke-width=".5625" stroke-linecap="round" stroke-miterlimit="1"/><path d="M4.375 25.615s2.974 7.641 6.547-.024c3.57-7.661 6.55-.015 6.55-.015s2.972 7.646 6.542-.015c3.573-7.666 6.533.049 6.533.049s2.968 7.646 6.543-.019c3.569-7.661 6.533-.02 6.533-.02" fill="none" stroke="#231f20" stroke-width="1.125" stroke-linecap="round" stroke-miterlimit="1"/><path d="M42.935 25.61s-2.974 7.646-6.549-.019c-3.569-7.661-6.552-.015-6.552-.015s-2.969 7.646-6.543-.02c-3.57-7.661-6.528.049-6.528.049s-2.969 7.651-6.543-.014c-3.57-7.661-6.534-.025-6.534-.025" fill="none" stroke="#fff" stroke-width=".5625" stroke-linecap="round" stroke-miterlimit="1"/><path d="M3.686 25.61s2.974 7.646 6.549-.019c3.569-7.661 6.553-.015 6.553-.015s2.968 7.646 6.537-.02c3.575-7.661 6.534.049 6.534.049s2.969 7.651 6.542-.014c3.57-7.661 6.534-.025 6.534-.025" fill="none" stroke="#fff" stroke-width="1.125" stroke-linecap="round" stroke-miterlimit="1"/><text style="-inkscape-font-specification:Helvetica-Bold" transform="matrix(.9315 0 -.83355 .71691 8.044 11.529)" font-weight="700" font-size="11.625" font-family="Helvetica" fill="#fff"><tspan y="0" x="0 6.1726255 16.449043 24.842276 32.596134">LWAPP</tspan></text></svg>