<?xml version="1.0" encoding="UTF-8" standalone="no"?>
<svg
   xmlns:dc="http://purl.org/dc/elements/1.1/"
   xmlns:cc="http://creativecommons.org/ns#"
   xmlns:rdf="http://www.w3.org/1999/02/22-rdf-syntax-ns#"
   xmlns:svg="http://www.w3.org/2000/svg"
   xmlns="http://www.w3.org/2000/svg"
   viewBox="0 0 61.25 36.25"
   height="36.25"
   width="61.25"
   xml:space="preserve"
   version="1.1"
   id="svg2"><metadata
     id="metadata8"><rdf:RDF><cc:Work
         rdf:about=""><dc:format>image/svg+xml</dc:format><dc:type
           rdf:resource="http://purl.org/dc/dcmitype/StillImage" /></cc:Work></rdf:RDF></metadata><defs
     id="defs6" /><g
     transform="matrix(1.25,0,0,-1.25,0,36.25)"
     id="g10"><g
       transform="scale(0.1,0.1)"
       id="g12"><path
         id="path14"
         style="fill:#087bbb;fill-opacity:1;fill-rule:nonzero;stroke:none"
         d="m 5.66016,163.789 144.26184,116.68 333.129,0 -119.422,-116.68 -357.96884,0" /><path
         id="path16"
         style="fill:none;stroke:#ffffff;stroke-width:4;stroke-linecap:butt;stroke-linejoin:miter;stroke-miterlimit:4;stroke-dasharray:none;stroke-opacity:1"
         d="m 5.66016,163.793 144.26184,116.68 333.129,0 -119.422,-116.68 -357.96884,0 z" /><path
         id="path18"
         style="fill:#087bbb;fill-opacity:1;fill-rule:nonzero;stroke:none"
         d="m 363.629,14.8789 119.422,121.6801 0,143.711 -119.422,-116.481 0,-148.9101" /><path
         id="path20"
         style="fill:none;stroke:#ffffff;stroke-width:4;stroke-linecap:butt;stroke-linejoin:miter;stroke-miterlimit:4;stroke-dasharray:none;stroke-opacity:1"
         d="m 363.629,14.8828 119.422,121.6802 0,143.707 -119.422,-116.477 0,-148.9102 z" /><path
         id="path22"
         style="fill:#087bbb;fill-opacity:1;fill-rule:nonzero;stroke:none"
         d="m 6.12891,14.7695 357.5,0 0,149.02 -357.5,0 0,-149.02 z" /><path
         id="path24"
         style="fill:none;stroke:#ffffff;stroke-width:4;stroke-linecap:butt;stroke-linejoin:miter;stroke-miterlimit:4;stroke-dasharray:none;stroke-opacity:1"
         d="m 6.12891,14.7695 357.5,0 0,149.023 -357.5,0 0,-149.023 z" /><path
         id="path26"
         style="fill:none;stroke:#ffffff;stroke-width:4.5;stroke-linecap:round;stroke-linejoin:miter;stroke-miterlimit:1;stroke-dasharray:none;stroke-opacity:1"
         d="m 343.48,85.1211 c 0,0 -23.789,-61.1719 -52.39,0.1484 -28.551,61.2935 -52.418,0.1211 -52.418,0.1211 0,0 -23.75,-61.1679 -52.344,0.1602 -28.558,61.2892 -52.226,-0.3906 -52.226,-0.3906 0,0 -23.75,-61.211 -52.3403,0.1093 -28.5625,61.2935 -52.2734,0.2032 -52.2734,0.2032" /><path
         id="path28"
         style="fill:none;stroke:#ffffff;stroke-width:9;stroke-linecap:round;stroke-linejoin:miter;stroke-miterlimit:1;stroke-dasharray:none;stroke-opacity:1"
         d="m 29.4883,85.1211 c 0,0 23.793,-61.1719 52.3906,0.1484 28.5511,61.2935 52.4221,0.1211 52.4221,0.1211 0,0 23.75,-61.1679 52.301,0.1602 28.597,61.2892 52.269,-0.3906 52.269,-0.3906 0,0 23.75,-61.211 52.34,0.1093 28.559,61.2935 52.269,0.2032 52.269,0.2032" /><path
         id="path30"
         style="fill:none;stroke:#231f20;stroke-width:4.5;stroke-linecap:round;stroke-linejoin:miter;stroke-miterlimit:1;stroke-dasharray:none;stroke-opacity:1"
         d="m 348.98,85.082 c 0,0 -23.781,-61.1328 -52.378,0.1875 -28.551,61.2935 -52.422,0.1211 -52.422,0.1211 0,0 -23.75,-61.1679 -52.301,0.1211 -28.598,61.3283 -52.27,-0.3906 -52.27,-0.3906 0,0 -23.75,-61.1719 -52.3395,0.1484 C 58.7109,146.563 35,85.4297 35,85.4297" /><path
         id="path32"
         style="fill:none;stroke:#231f20;stroke-width:9;stroke-linecap:round;stroke-linejoin:miter;stroke-miterlimit:1;stroke-dasharray:none;stroke-opacity:1"
         d="m 35,85.082 c 0,0 23.7891,-61.1328 52.3789,0.1875 28.5621,61.2935 52.3911,0.1211 52.3911,0.1211 0,0 23.781,-61.1679 52.339,0.1211 28.59,61.3283 52.27,-0.3906 52.27,-0.3906 0,0 23.742,-61.1719 52.34,0.1484 28.551,61.2935 52.261,0.1602 52.261,0.1602" /><path
         id="path34"
         style="fill:none;stroke:#ffffff;stroke-width:4.5;stroke-linecap:round;stroke-linejoin:miter;stroke-miterlimit:1;stroke-dasharray:none;stroke-opacity:1"
         d="m 343.48,85.1211 c 0,0 -23.789,-61.1719 -52.39,0.1484 -28.551,61.2935 -52.418,0.1211 -52.418,0.1211 0,0 -23.75,-61.1679 -52.344,0.1602 -28.558,61.2892 -52.226,-0.3906 -52.226,-0.3906 0,0 -23.75,-61.211 -52.3403,0.1093 -28.5625,61.2935 -52.2734,0.2032 -52.2734,0.2032" /><path
         id="path36"
         style="fill:none;stroke:#ffffff;stroke-width:9;stroke-linecap:round;stroke-linejoin:miter;stroke-miterlimit:1;stroke-dasharray:none;stroke-opacity:1"
         d="m 29.4883,85.1211 c 0,0 23.793,-61.1719 52.3906,0.1484 28.5511,61.2935 52.4221,0.1211 52.4221,0.1211 0,0 23.75,-61.1679 52.301,0.1602 28.597,61.2892 52.269,-0.3906 52.269,-0.3906 0,0 23.75,-61.211 52.34,0.1093 28.559,61.2935 52.269,0.2032 52.269,0.2032" /><path
         id="path38"
         style="fill:none;stroke:#231f20;stroke-width:4.5;stroke-linecap:round;stroke-linejoin:miter;stroke-miterlimit:1;stroke-dasharray:none;stroke-opacity:1"
         d="m 348.98,85.082 c 0,0 -23.781,-61.1328 -52.378,0.1875 -28.551,61.2935 -52.422,0.1211 -52.422,0.1211 0,0 -23.75,-61.1679 -52.301,0.1211 -28.598,61.3283 -52.27,-0.3906 -52.27,-0.3906 0,0 -23.75,-61.1719 -52.3395,0.1484 C 58.7109,146.563 35,85.4297 35,85.4297" /><path
         id="path40"
         style="fill:none;stroke:#231f20;stroke-width:9;stroke-linecap:round;stroke-linejoin:miter;stroke-miterlimit:1;stroke-dasharray:none;stroke-opacity:1"
         d="m 35,85.082 c 0,0 23.7891,-61.1328 52.3789,0.1875 28.5621,61.2935 52.3911,0.1211 52.3911,0.1211 0,0 23.781,-61.1679 52.339,0.1211 28.59,61.3283 52.27,-0.3906 52.27,-0.3906 0,0 23.742,-61.1719 52.34,0.1484 28.551,61.2935 52.261,0.1602 52.261,0.1602" /><path
         id="path42"
         style="fill:none;stroke:#ffffff;stroke-width:4.5;stroke-linecap:round;stroke-linejoin:miter;stroke-miterlimit:1;stroke-dasharray:none;stroke-opacity:1"
         d="m 343.48,85.1211 c 0,0 -23.789,-61.1719 -52.39,0.1484 -28.551,61.2935 -52.418,0.1211 -52.418,0.1211 0,0 -23.75,-61.1679 -52.344,0.1602 -28.558,61.2892 -52.226,-0.3906 -52.226,-0.3906 0,0 -23.75,-61.211 -52.3403,0.1093 -28.5625,61.2935 -52.2734,0.2032 -52.2734,0.2032" /><path
         id="path44"
         style="fill:none;stroke:#ffffff;stroke-width:9;stroke-linecap:round;stroke-linejoin:miter;stroke-miterlimit:1;stroke-dasharray:none;stroke-opacity:1"
         d="m 29.4883,85.1211 c 0,0 23.793,-61.1719 52.3906,0.1484 28.5511,61.2935 52.4221,0.1211 52.4221,0.1211 0,0 23.75,-61.1679 52.301,0.1602 28.597,61.2892 52.269,-0.3906 52.269,-0.3906 0,0 23.75,-61.211 52.34,0.1093 28.559,61.2935 52.269,0.2032 52.269,0.2032" /><g
         transform="scale(10,10)"
         id="g46"><text
           id="text48"
           style="font-variant:normal;font-weight:bold;font-size:11.6249752px;font-family:Helvetica;-inkscape-font-specification:Helvetica-Bold;writing-mode:lr-tb;fill:#ffffff;fill-opacity:1;fill-rule:nonzero;stroke:none"
           transform="matrix(0.74519735,0,-0.66684399,-0.57352852,6.43555,19.777)"><tspan
             id="tspan50"
             y="0"
             x="0 6.1726255 16.449043 24.842276 32.596134">LWAPP</tspan></text>
</g></g></g></svg>