<?xml version="1.0" encoding="UTF-8" standalone="no"?>
<svg
   xmlns:dc="http://purl.org/dc/elements/1.1/"
   xmlns:cc="http://creativecommons.org/ns#"
   xmlns:rdf="http://www.w3.org/1999/02/22-rdf-syntax-ns#"
   xmlns:svg="http://www.w3.org/2000/svg"
   xmlns="http://www.w3.org/2000/svg"
   viewBox="0 0 47.875 31.862499"
   height="31.862499"
   width="47.875"
   xml:space="preserve"
   version="1.1"
   id="svg2"><metadata
     id="metadata8"><rdf:RDF><cc:Work
         rdf:about=""><dc:format>image/svg+xml</dc:format><dc:type
           rdf:resource="http://purl.org/dc/dcmitype/StillImage" /></cc:Work></rdf:RDF></metadata><defs
     id="defs6"><clipPath
       id="clipPath18"
       clipPathUnits="userSpaceOnUse"><path
         id="path20"
         d="m 0,4.9375 380,0 0,250 -380,0 0,-250 z" /></clipPath></defs><g
     transform="matrix(1.25,0,0,-1.25,0,31.8625)"
     id="g10"><g
       transform="scale(0.1,0.1)"
       id="g12"><g
         id="g14"><g
           clip-path="url(#clipPath18)"
           id="g16"><path
             id="path22"
             style="fill:#087fbf;fill-opacity:1;fill-rule:nonzero;stroke:none"
             d="m 5.65625,6.47656 333.172,0 0,194.512 -333.172,0 0,-194.512 z" /><path
             id="path24"
             style="fill:none;stroke:#ffffff;stroke-width:4;stroke-linecap:butt;stroke-linejoin:miter;stroke-miterlimit:4;stroke-dasharray:none;stroke-opacity:1"
             d="m 5.65625,6.47656 333.172,0 0,194.512 -333.172,0 0,-194.512 z" /><path
             id="path26"
             style="fill:#087fbf;fill-opacity:1;fill-rule:nonzero;stroke:none"
             d="m 378.723,64.8359 -39.895,-58.35934 0,194.51144 39.895,48.379 0,-184.5311" /><path
             id="path28"
             style="fill:none;stroke:#ffffff;stroke-width:4;stroke-linecap:butt;stroke-linejoin:miter;stroke-miterlimit:4;stroke-dasharray:none;stroke-opacity:1"
             d="m 378.723,64.8359 -39.895,-58.35934 0,194.51144 39.895,48.379 0,-184.5311 z" /><path
             id="path30"
             style="fill:#087fbf;fill-opacity:1;fill-rule:nonzero;stroke:none"
             d="m 65.5078,249.367 313.2152,0 -39.895,-48.379 -333.17175,0 59.85155,48.379" /><path
             id="path32"
             style="fill:none;stroke:#ffffff;stroke-width:4;stroke-linecap:butt;stroke-linejoin:miter;stroke-miterlimit:4;stroke-dasharray:none;stroke-opacity:1"
             d="m 65.5078,249.367 313.2152,0 -39.895,-48.379 -333.17175,0 59.85155,48.379 z" /><path
             id="path34"
             style="fill:#ffffff;fill-opacity:1;fill-rule:nonzero;stroke:none"
             d="m 120.586,99.4453 -71.4922,-0.0586 0,11.3673 71.4922,0.035 0.027,17.758 41.418,-23.438 -41.418,-23.4371 -0.027,17.7734" /><path
             id="path36"
             style="fill:#ffffff;fill-opacity:1;fill-rule:nonzero;stroke:none"
             d="m 269.336,99.4453 -71.492,-0.0586 0,11.3673 71.492,0.035 0.027,17.758 41.418,-23.438 -41.418,-23.4371 -0.027,17.7734" /><path
             id="path38"
             style="fill:#ffffff;fill-opacity:1;fill-rule:nonzero;stroke:none"
             d="m 257.004,156.719 -59.934,-38.985 -6.191,9.543 59.941,38.965 -9.648,14.903 47.5,2.89 -21.973,-42.207 -9.695,14.891" /><path
             id="path40"
             style="fill:#ffffff;fill-opacity:1;fill-rule:nonzero;stroke:none"
             d="m 257.004,54.1992 -59.934,38.9844 -6.191,-9.5313 59.941,-38.9726 -9.648,-14.9024 47.5,-2.8906 -21.973,42.2071 -9.695,-14.8946" /></g></g></g></g></svg>