<?xml version="1.0" encoding="UTF-8" standalone="no"?>
<svg
   xmlns:dc="http://purl.org/dc/elements/1.1/"
   xmlns:cc="http://creativecommons.org/ns#"
   xmlns:rdf="http://www.w3.org/1999/02/22-rdf-syntax-ns#"
   xmlns:svg="http://www.w3.org/2000/svg"
   xmlns="http://www.w3.org/2000/svg"
   viewBox="0 0 47.5 32.5"
   height="32.5"
   width="47.5"
   xml:space="preserve"
   version="1.1"
   id="svg2"><metadata
     id="metadata8"><rdf:RDF><cc:Work
         rdf:about=""><dc:format>image/svg+xml</dc:format><dc:type
           rdf:resource="http://purl.org/dc/dcmitype/StillImage" /></cc:Work></rdf:RDF></metadata><defs
     id="defs6"><clipPath
       id="clipPath18"
       clipPathUnits="userSpaceOnUse"><path
         id="path20"
         d="m 0,10 380,0 0,250 L 0,260 0,10 Z" /></clipPath></defs><g
     transform="matrix(1.25,0,0,-1.25,0,32.5)"
     id="g10"><g
       transform="scale(0.1,0.1)"
       id="g12"><g
         id="g14"><g
           clip-path="url(#clipPath18)"
           id="g16"><path
             id="path22"
             style="fill:#087fbf;fill-opacity:1;fill-rule:nonzero;stroke:none"
             d="m 5.66016,11.5195 333.16,0 0,194.527 -333.16,0 0,-194.527 z" /><path
             id="path24"
             style="fill:none;stroke:#ffffff;stroke-width:4;stroke-linecap:butt;stroke-linejoin:miter;stroke-miterlimit:4;stroke-dasharray:none;stroke-opacity:1"
             d="m 5.66016,11.5195 333.16,0 0,194.527 -333.16,0 0,-194.527 z" /><path
             id="path26"
             style="fill:#087fbf;fill-opacity:1;fill-rule:nonzero;stroke:none"
             d="m 378.711,69.8789 -39.883,-58.3594 0,194.5275 39.883,48.363 0,-184.5311" /><path
             id="path28"
             style="fill:none;stroke:#ffffff;stroke-width:4;stroke-linecap:butt;stroke-linejoin:miter;stroke-miterlimit:4;stroke-dasharray:none;stroke-opacity:1"
             d="m 378.711,69.8789 -39.883,-58.3594 0,194.5275 39.883,48.363 0,-184.5311 z" /><path
             id="path30"
             style="fill:#087fbf;fill-opacity:1;fill-rule:nonzero;stroke:none"
             d="m 65.5117,254.41 313.1993,0 -39.883,-48.363 -333.16784,0 59.85154,48.363" /><path
             id="path32"
             style="fill:none;stroke:#ffffff;stroke-width:4;stroke-linecap:butt;stroke-linejoin:miter;stroke-miterlimit:4;stroke-dasharray:none;stroke-opacity:1"
             d="m 65.5117,254.41 313.1993,0 -39.883,-48.363 -333.16784,0 59.85154,48.363 z" /><path
             id="path34"
             style="fill:#ffffff;fill-opacity:1;fill-rule:nonzero;stroke:none"
             d="m 120.59,104.488 -71.4884,-0.039 0,11.371 71.4884,0.039 0.031,17.731 41.41,-23.43 -41.41,-23.4412 -0.031,17.7692" /><path
             id="path36"
             style="fill:#ffffff;fill-opacity:1;fill-rule:nonzero;stroke:none"
             d="m 269.34,104.488 -71.488,-0.039 0,11.371 71.488,0.039 0.039,17.731 41.402,-23.43 -41.402,-23.4412 -0.039,17.7692" /><path
             id="path38"
             style="fill:#ffffff;fill-opacity:1;fill-rule:nonzero;stroke:none"
             d="m 256.988,161.797 -59.918,-38.988 -6.211,9.531 59.961,38.949 -9.648,14.918 47.5,2.891 -21.992,-42.219 -9.692,14.918" /><path
             id="path40"
             style="fill:#ffffff;fill-opacity:1;fill-rule:nonzero;stroke:none"
             d="M 256.988,59.2578 197.07,98.2383 190.859,88.707 250.82,49.7266 241.172,34.8398 288.672,31.9492 266.68,74.1367 256.988,59.2578" /></g></g></g></g></svg>