<svg xmlns="http://www.w3.org/2000/svg" viewBox="0 0 32.5 36.25" height="36.25" width="32.5"><path d="M25.605 36.304c.689 0 1.25-.561 1.25-1.25V19.74c0-.694-.561-1.25-1.25-1.25H1.855c-.692 0-1.25.556-1.25 1.25v15.313c0 .689.558 1.25 1.25 1.25h23.75" fill="#02709f"/><path d="M25.605 36.304c.689 0 1.25-.561 1.25-1.25V19.74c0-.694-.561-1.25-1.25-1.25H1.855c-.692 0-1.25.556-1.25 1.25v15.313c0 .689.558 1.25 1.25 1.25h23.75z" fill="none" stroke="#fff" stroke-width=".5"/><path d="M26.855 18.457l5-5H5.605l-5 5h26.25" fill="#02709f"/><path d="M26.855 18.457l5-5H5.605l-5 5h26.25z" fill="none" stroke="#fff" stroke-width=".5"/><path d="M31.855 31.27V13.457l-5 5V36.27l5-5" fill="#02709f"/><path d="M31.855 31.27V13.457l-5 5V36.27l5-5z" fill="none" stroke="#fff" stroke-width=".5"/><path d="M16.396 2.451a6.84 6.84 0 0 0-6.84 6.841l.004 6.08c.054.483-.434.985-1.156 1.063-.723.074-1.509-.288-1.563-.771V9.629c0-5.18 4.204-9.385 9.384-9.385 5.186 0 9.385 4.205 9.385 9.385v6.582c-.049.483-.571.81-1.304.786-.663-.024-1.268-.888-1.22-1.372l.024-6.333c0-3.78-2.934-6.84-6.714-6.84" fill="#02709f"/><path d="M16.396 2.451a6.84 6.84 0 0 0-6.84 6.841l.004 6.08c.054.483-.434.985-1.156 1.063-.723.074-1.509-.288-1.563-.771V9.629c0-5.18 4.204-9.385 9.384-9.385 5.186 0 9.385 4.205 9.385 9.385v6.582c-.049.483-.571.81-1.304.786-.663-.024-1.268-.888-1.22-1.372l.024-6.333c0-3.78-2.934-6.84-6.714-6.84z" fill="none" stroke="#fff" stroke-width=".5"/><path d="M13.696 28.955c1.186 0 2.15-1.24 2.15-2.774 0-1.532-.964-2.772-2.15-2.772s-2.149 1.24-2.149 2.772c0 1.534.963 2.774 2.15 2.774" fill="#fff"/><path d="M14.336 31.801v-5.448l-1.342.981v5.454l1.342-.987" fill="#fff"/></svg>