<?xml version="1.0" encoding="UTF-8" standalone="no"?>
<svg
   xmlns:dc="http://purl.org/dc/elements/1.1/"
   xmlns:cc="http://creativecommons.org/ns#"
   xmlns:rdf="http://www.w3.org/1999/02/22-rdf-syntax-ns#"
   xmlns:svg="http://www.w3.org/2000/svg"
   xmlns="http://www.w3.org/2000/svg"
   viewBox="0 0 32.5 36.25"
   height="36.25"
   width="32.5"
   xml:space="preserve"
   version="1.1"
   id="svg2"><metadata
     id="metadata8"><rdf:RDF><cc:Work
         rdf:about=""><dc:format>image/svg+xml</dc:format><dc:type
           rdf:resource="http://purl.org/dc/dcmitype/StillImage" /></cc:Work></rdf:RDF></metadata><defs
     id="defs6" /><g
     transform="matrix(1.25,0,0,-1.25,0,36.25)"
     id="g10"><g
       transform="scale(0.1,0.1)"
       id="g12"><path
         id="path14"
         style="fill:#02709f;fill-opacity:1;fill-rule:nonzero;stroke:none"
         d="m 204.84,-0.429688 c 5.512,0 10,4.488278 10,9.999998 l 0,122.49969 c 0,5.551 -4.488,10 -10,10 l -190.0002,0 c -5.53902,0 -9.99996,-4.449 -9.99996,-10 l 0,-122.49969 c 0,-5.51172 4.46094,-9.999998 9.99996,-9.999998 l 190.0002,0" /><path
         id="path16"
         style="fill:none;stroke:#ffffff;stroke-width:3.99993992;stroke-linecap:butt;stroke-linejoin:miter;stroke-miterlimit:4;stroke-dasharray:none;stroke-opacity:1"
         d="m 204.84,-0.429688 c 5.512,0 10,4.488278 10,9.999998 l 0,122.49969 c 0,5.551 -4.488,10 -10,10 l -190.0002,0 c -5.53902,0 -9.99996,-4.449 -9.99996,-10 l 0,-122.49969 c 0,-5.51172 4.46094,-9.999998 9.99996,-9.999998 l 190.0002,0 z" /><path
         id="path18"
         style="fill:#02709f;fill-opacity:1;fill-rule:nonzero;stroke:none"
         d="m 214.84,142.34 40,40 -210.0002,0 -39.99996,-40 210.00016,0" /><path
         id="path20"
         style="fill:none;stroke:#ffffff;stroke-width:3.99993992;stroke-linecap:butt;stroke-linejoin:miter;stroke-miterlimit:4;stroke-dasharray:none;stroke-opacity:1"
         d="m 214.84,142.34 40,40 -210.0002,0 -39.99996,-40 210.00016,0 z" /><path
         id="path22"
         style="fill:#02709f;fill-opacity:1;fill-rule:nonzero;stroke:none"
         d="m 254.84,39.8398 0,142.5002 -40,-40 0,-142.500156 40,39.999956" /><path
         id="path24"
         style="fill:none;stroke:#ffffff;stroke-width:3.99993992;stroke-linecap:butt;stroke-linejoin:miter;stroke-miterlimit:4;stroke-dasharray:none;stroke-opacity:1"
         d="m 254.84,39.8398 0,142.5002 -40,-40 0,-142.500156 40,39.999956 z" /><path
         id="path26"
         style="fill:#02709f;fill-opacity:1;fill-rule:nonzero;stroke:none"
         d="m 131.172,270.391 c -30.231,0 -54.7228,-24.493 -54.7228,-54.731 l 0.0313,-48.629 c 0.4297,-3.871 -3.4688,-7.89 -9.25,-8.511 -5.7813,-0.59 -12.0703,2.3 -12.5,6.171 l 0,48.278 c 0,41.441 33.6289,75.082 75.0705,75.082 41.488,0 75.078,-33.641 75.078,-75.082 l 0,-52.66 c -0.391,-3.86 -4.57,-6.481 -10.43,-6.289 -5.308,0.199 -10.148,7.109 -9.758,10.98 l 0.188,50.66 c 0,30.238 -23.469,54.731 -53.707,54.731" /><path
         id="path28"
         style="fill:none;stroke:#ffffff;stroke-width:3.99993992;stroke-linecap:butt;stroke-linejoin:miter;stroke-miterlimit:4;stroke-dasharray:none;stroke-opacity:1"
         d="m 131.172,270.391 c -30.231,0 -54.7228,-24.493 -54.7228,-54.731 l 0.0313,-48.629 c 0.4297,-3.871 -3.4688,-7.89 -9.25,-8.511 -5.7813,-0.59 -12.0703,2.3 -12.5,6.171 l 0,48.278 c 0,41.441 33.6289,75.082 75.0705,75.082 41.488,0 75.078,-33.641 75.078,-75.082 l 0,-52.66 c -0.391,-3.86 -4.57,-6.481 -10.43,-6.289 -5.308,0.199 -10.148,7.109 -9.758,10.98 l 0.188,50.66 c 0,30.238 -23.469,54.731 -53.707,54.731 z" /><path
         id="path30"
         style="fill:#ffffff;fill-opacity:1;fill-rule:nonzero;stroke:none"
         d="m 109.57,58.3594 c 9.489,0 17.192,9.9219 17.192,22.1914 0,12.2578 -7.703,22.1792 -17.192,22.1792 -9.492,0 -17.1911,-9.9214 -17.1911,-22.1792 0,-12.2695 7.6991,-22.1914 17.1911,-22.1914" /><path
         id="path32"
         style="fill:#ffffff;fill-opacity:1;fill-rule:nonzero;stroke:none"
         d="m 114.691,35.5898 0,43.5899 -10.742,-7.8516 0,-43.6289 10.742,7.8906" /></g></g></svg>