<?xml version="1.0" encoding="UTF-8" standalone="no"?>
<svg
   xmlns:dc="http://purl.org/dc/elements/1.1/"
   xmlns:cc="http://creativecommons.org/ns#"
   xmlns:rdf="http://www.w3.org/1999/02/22-rdf-syntax-ns#"
   xmlns:svg="http://www.w3.org/2000/svg"
   xmlns="http://www.w3.org/2000/svg"
   xmlns:sodipodi="http://sodipodi.sourceforge.net/DTD/sodipodi-0.dtd"
   xmlns:inkscape="http://www.inkscape.org/namespaces/inkscape"
   viewBox="0 0 37.49984 35.869068"
   height="35.869068"
   width="37.49984"
   xml:space="preserve"
   version="1.1"
   id="svg2"
   inkscape:version="0.91 r13725"
   sodipodi:docname="longreachcpe.svg"><sodipodi:namedview
     pagecolor="#ffffff"
     bordercolor="#666666"
     borderopacity="1"
     objecttolerance="10"
     gridtolerance="10"
     guidetolerance="10"
     inkscape:pageopacity="0"
     inkscape:pageshadow="2"
     inkscape:window-width="448"
     inkscape:window-height="438"
     id="namedview22"
     showgrid="false"
     inkscape:zoom="6.5783972"
     inkscape:cx="19.043591"
     inkscape:cy="17.9375"
     inkscape:window-x="0"
     inkscape:window-y="23"
     inkscape:window-maximized="0"
     inkscape:current-layer="svg2" /><metadata
     id="metadata8"><rdf:RDF><cc:Work
         rdf:about=""><dc:format>image/svg+xml</dc:format><dc:type
           rdf:resource="http://purl.org/dc/dcmitype/StillImage" /></cc:Work></rdf:RDF></metadata><defs
     id="defs6"><clipPath
       id="clipPath18"
       clipPathUnits="userSpaceOnUse"><path
         id="path20"
         d="M 0,0 0,287 300,287 300,0 0,0 Z"
         inkscape:connector-curvature="0" /></clipPath></defs><g
     transform="matrix(1.25,0,0,-1.25,-1.593163e-4,35.869068)"
     id="g10"><g
       transform="scale(0.1,0.1)"
       id="g12"><g
         id="g14"><g
           clip-path="url(#clipPath18)"
           id="g16"><path
             id="path22"
             style="fill:#087fbf;fill-opacity:1;fill-rule:nonzero;stroke:none"
             d="m 8.71875,4.07031 237.297,0 0,241.738 -237.297,0 0,-241.738 z"
             inkscape:connector-curvature="0" /><path
             id="path24"
             style="fill:none;stroke:#ffffff;stroke-width:4;stroke-linecap:butt;stroke-linejoin:miter;stroke-miterlimit:4;stroke-dasharray:none;stroke-opacity:1"
             d="m 8.71875,4.07031 237.297,0 0,241.738 -237.297,0 0,-241.738 z"
             inkscape:connector-curvature="0" /><path
             id="path26"
             style="fill:#087fbf;fill-opacity:1;fill-rule:nonzero;stroke:none"
             d="m 298.184,44.0703 0.097,238.9847 -51.914,-37.246 0,-241.73869 51.817,39.99999"
             inkscape:connector-curvature="0" /><path
             id="path28"
             style="fill:none;stroke:#ffffff;stroke-width:4;stroke-linecap:butt;stroke-linejoin:miter;stroke-miterlimit:4;stroke-dasharray:none;stroke-opacity:1"
             d="m 298.184,44.0703 0.097,238.9847 -51.914,-37.246 0,-241.73869 51.817,39.99999 z"
             inkscape:connector-curvature="0" /><path
             id="path30"
             style="fill:#087fbf;fill-opacity:1;fill-rule:nonzero;stroke:none"
             d="m 243.867,245.242 54.414,37.813 -235.0505,0.273 -56.668,-38.086 237.3045,0"
             inkscape:connector-curvature="0" /><path
             id="path32"
             style="fill:none;stroke:#ffffff;stroke-width:4;stroke-linecap:butt;stroke-linejoin:miter;stroke-miterlimit:4;stroke-dasharray:none;stroke-opacity:1"
             d="m 243.867,245.242 54.414,37.813 -235.0505,0.273 -56.668,-38.086 237.3045,0 z"
             inkscape:connector-curvature="0" /><path
             id="path34"
             style="fill:#ffffff;fill-opacity:1;fill-rule:nonzero;stroke:none"
             d="m 44.9102,43.0156 156.672,0 0,36.6641 -156.672,0 0,-36.6641 z"
             inkscape:connector-curvature="0" /><path
             id="path36"
             style="fill:#ffffff;fill-opacity:1;fill-rule:nonzero;stroke:none"
             d="m 44.9102,90.8281 156.672,0 0,24.043 -156.672,0 0,-24.043 z"
             inkscape:connector-curvature="0" /><path
             id="path38"
             style="fill:#ffffff;fill-opacity:1;fill-rule:nonzero;stroke:none"
             d="m 44.9102,126.785 156.672,0 0,21.6602 -156.672,0 0,-21.6602 z"
             inkscape:connector-curvature="0" /><path
             id="path40"
             style="fill:#ffffff;fill-opacity:1;fill-rule:nonzero;stroke:none"
             d="m 44.9102,158.391 156.672,0 0,17.5391 -156.672,0 0,-17.5391 z"
             inkscape:connector-curvature="0" /><path
             id="path42"
             style="fill:#ffffff;fill-opacity:1;fill-rule:nonzero;stroke:none"
             d="m 44.9102,186.301 156.672,0 0,10.3477 -156.672,0 0,-10.3477 z"
             inkscape:connector-curvature="0" /></g></g></g></g></svg>