<?xml version="1.0" encoding="UTF-8" standalone="no"?>
<svg
   xmlns:dc="http://purl.org/dc/elements/1.1/"
   xmlns:cc="http://creativecommons.org/ns#"
   xmlns:rdf="http://www.w3.org/1999/02/22-rdf-syntax-ns#"
   xmlns:svg="http://www.w3.org/2000/svg"
   xmlns="http://www.w3.org/2000/svg"
   viewBox="0 0 53.8125 38.412498"
   height="38.412498"
   width="53.8125"
   xml:space="preserve"
   version="1.1"
   id="svg2"><metadata
     id="metadata8"><rdf:RDF><cc:Work
         rdf:about=""><dc:format>image/svg+xml</dc:format><dc:type
           rdf:resource="http://purl.org/dc/dcmitype/StillImage" /></cc:Work></rdf:RDF></metadata><defs
     id="defs6" /><g
     transform="matrix(1.25,0,0,-1.25,0,38.4125)"
     id="g10"><g
       transform="scale(0.1,0.1)"
       id="g12"><path
         id="path14"
         style="fill:#02709f;fill-opacity:1;fill-rule:nonzero;stroke:none"
         d="m 93.3359,289.332 -86.38277,0 0,-245.1328 81.38277,0.7344" /><path
         id="path16"
         style="fill:none;stroke:#ffffff;stroke-width:3.99993992;stroke-linecap:butt;stroke-linejoin:miter;stroke-miterlimit:4;stroke-dasharray:none;stroke-opacity:1"
         d="m 93.3359,289.332 -86.38277,0 0,-245.1328 81.38277,0.7344" /><path
         id="path18"
         style="fill:#02709f;fill-opacity:1;fill-rule:nonzero;stroke:none"
         d="m 88.3359,289.332 0,-245.1328 6.6446,4.9805 0,241.7973 -6.6446,-1.645" /><path
         id="path20"
         style="fill:none;stroke:#ffffff;stroke-width:3.99993992;stroke-linecap:butt;stroke-linejoin:miter;stroke-miterlimit:4;stroke-dasharray:none;stroke-opacity:1"
         d="m 88.3359,289.332 0,-245.1328 6.6446,4.9805 0,241.7973 -6.6446,-1.645 z" /><path
         id="path22"
         style="fill:#02709f;fill-opacity:1;fill-rule:nonzero;stroke:none"
         d="m 112.5,289.766 0,-242.9574 37.48,32.4766 0,225.1288 -37.48,-14.648" /><path
         id="path24"
         style="fill:none;stroke:#ffffff;stroke-width:3.99993992;stroke-linecap:butt;stroke-linejoin:miter;stroke-miterlimit:4;stroke-dasharray:none;stroke-opacity:1"
         d="m 112.5,289.766 0,-242.9574 37.48,32.4766 0,225.1288 -37.48,-14.648 z" /><path
         id="path26"
         style="fill:#02709f;fill-opacity:1;fill-rule:nonzero;stroke:none"
         d="m 80.5195,274.258 -68.75,0" /><path
         id="path28"
         style="fill:none;stroke:#ffffff;stroke-width:3.99993992;stroke-linecap:butt;stroke-linejoin:miter;stroke-miterlimit:4;stroke-dasharray:none;stroke-opacity:1"
         d="m 80.5195,274.258 -68.75,0" /><path
         id="path30"
         style="fill:#02709f;fill-opacity:1;fill-rule:nonzero;stroke:none"
         d="m 73.8516,249.258 -56.25,0" /><path
         id="path32"
         style="fill:none;stroke:#ffffff;stroke-width:3.99993992;stroke-linecap:butt;stroke-linejoin:miter;stroke-miterlimit:4;stroke-dasharray:none;stroke-opacity:1"
         d="m 73.8516,249.258 -56.25,0" /><path
         id="path34"
         style="fill:#02709f;fill-opacity:1;fill-rule:nonzero;stroke:none"
         d="m 94.4531,47.5313 17.2188,0 0,242.957 -17.2188,0 0,-242.957 z" /><path
         id="path36"
         style="fill:none;stroke:#ffffff;stroke-width:3.99993992;stroke-linecap:butt;stroke-linejoin:miter;stroke-miterlimit:4;stroke-dasharray:none;stroke-opacity:1"
         d="m 111.672,290.488 -17.2189,0 0,-242.9567 17.2189,0" /><path
         id="path38"
         style="fill:#02709f;fill-opacity:1;fill-rule:nonzero;stroke:none"
         d="m 2.83203,262.168 85.82817,0" /><path
         id="path40"
         style="fill:none;stroke:#ffffff;stroke-width:3.99993992;stroke-linecap:butt;stroke-linejoin:miter;stroke-miterlimit:4;stroke-dasharray:none;stroke-opacity:1"
         d="m 2.83203,262.168 85.82817,0" /><path
         id="path42"
         style="fill:#02709f;fill-opacity:1;fill-rule:nonzero;stroke:none"
         d="m 2.83203,238.008 85.82817,0" /><path
         id="path44"
         style="fill:none;stroke:#ffffff;stroke-width:3.99993992;stroke-linecap:butt;stroke-linejoin:miter;stroke-miterlimit:4;stroke-dasharray:none;stroke-opacity:1"
         d="m 2.83203,238.008 85.82817,0" /><path
         id="path46"
         style="fill:#02709f;fill-opacity:1;fill-rule:nonzero;stroke:none"
         d="m 103.688,73.9922 c 1.609,0 2.914,1.3125 2.914,2.9219 0,1.6132 -1.305,2.9101 -2.914,2.9101 -1.61,0 -2.911,-1.2969 -2.911,-2.9101 0,-1.6094 1.301,-2.9219 2.911,-2.9219" /><path
         id="path48"
         style="fill:none;stroke:#ffffff;stroke-width:3.99993992;stroke-linecap:butt;stroke-linejoin:miter;stroke-miterlimit:4;stroke-dasharray:none;stroke-opacity:1"
         d="m 103.688,73.9922 c 1.609,0 2.914,1.3125 2.914,2.9219 0,1.6132 -1.305,2.9101 -2.914,2.9101 -1.61,0 -2.911,-1.2969 -2.911,-2.9101 0,-1.6094 1.301,-2.9219 2.911,-2.9219 z" /><path
         id="path50"
         style="fill:#02709f;fill-opacity:1;fill-rule:nonzero;stroke:none"
         d="m 103.688,54.0547 c 1.609,0 2.914,1.3086 2.914,2.9101 0,1.6094 -1.305,2.918 -2.914,2.918 -1.61,0 -2.911,-1.3086 -2.911,-2.918 0,-1.6015 1.301,-2.9101 2.911,-2.9101" /><path
         id="path52"
         style="fill:none;stroke:#ffffff;stroke-width:3.99993992;stroke-linecap:butt;stroke-linejoin:miter;stroke-miterlimit:4;stroke-dasharray:none;stroke-opacity:1"
         d="m 103.688,54.0547 c 1.609,0 2.914,1.3086 2.914,2.9101 0,1.6094 -1.305,2.918 -2.914,2.918 -1.61,0 -2.911,-1.3086 -2.911,-2.918 0,-1.6015 1.301,-2.9101 2.911,-2.9101 z" /><path
         id="path54"
         style="fill:#02709f;fill-opacity:1;fill-rule:nonzero;stroke:none"
         d="m 114.688,290.352 38.089,14.898 -88.1325,0 -64.140594,-16.645 86.382794,0 5.4297,1.024 22.3716,0.723" /><path
         id="path56"
         style="fill:none;stroke:#ffffff;stroke-width:3.99993992;stroke-linecap:butt;stroke-linejoin:miter;stroke-miterlimit:4;stroke-dasharray:none;stroke-opacity:1"
         d="m 114.688,290.352 38.089,14.898 -88.1325,0 -64.140594,-16.645 86.382794,0 5.4297,1.024 22.3716,0.723 z" /><path
         id="path58"
         style="fill:#02709f;fill-opacity:1;fill-rule:nonzero;stroke:none"
         d="m 368.633,103.074 -228.875,0" /><path
         id="path60"
         style="fill:none;stroke:#ffffff;stroke-width:3.99993992;stroke-linecap:butt;stroke-linejoin:miter;stroke-miterlimit:4;stroke-dasharray:none;stroke-opacity:1"
         d="m 368.633,103.074 -228.875,0" /><path
         id="path62"
         style="fill:#02709f;fill-opacity:1;fill-rule:nonzero;stroke:none"
         d="m 139.758,103.945 228.57,0 0,172.344 -228.57,0 0,-172.344 z" /><path
         id="path64"
         style="fill:none;stroke:#ffffff;stroke-width:3.99993992;stroke-linecap:butt;stroke-linejoin:miter;stroke-miterlimit:4;stroke-dasharray:none;stroke-opacity:1"
         d="m 368.328,103.945 0,172.344 -228.57,0 0,-172.344" /><path
         id="path66"
         style="fill:#02709f;fill-opacity:1;fill-rule:nonzero;stroke:none"
         d="m 368.328,103.32 26.508,47.129 0,151.09 -167.324,0 -87.754,-25.25 228.57,0 0,-172.969" /><path
         id="path68"
         style="fill:none;stroke:#ffffff;stroke-width:3.99993992;stroke-linecap:butt;stroke-linejoin:miter;stroke-miterlimit:4;stroke-dasharray:none;stroke-opacity:1"
         d="m 368.328,103.32 26.508,47.129 0,151.09 -167.324,0 -87.754,-25.25 228.57,0 0,-172.969 z" /><path
         id="path70"
         style="fill:#02709f;fill-opacity:1;fill-rule:nonzero;stroke:none"
         d="m 159.711,123.898 188.668,0 0,132.43 -188.668,0 0,-132.43 z" /><path
         id="path72"
         style="fill:none;stroke:#ffffff;stroke-width:3.99993992;stroke-linecap:butt;stroke-linejoin:miter;stroke-miterlimit:4;stroke-dasharray:none;stroke-opacity:1"
         d="m 159.711,123.898 188.668,0 0,132.43 -188.668,0 0,-132.43 z" /><path
         id="path74"
         style="fill:#02709f;fill-opacity:1;fill-rule:nonzero;stroke:none"
         d="m 368.328,276.289 26.508,25.25" /><path
         id="path76"
         style="fill:none;stroke:#ffffff;stroke-width:3.99993992;stroke-linecap:butt;stroke-linejoin:miter;stroke-miterlimit:4;stroke-dasharray:none;stroke-opacity:1"
         d="m 368.328,276.289 26.508,25.25" /><path
         id="path78"
         style="fill:#02709f;fill-opacity:1;fill-rule:nonzero;stroke:none"
         d="m 353.586,5.26563 0,25.34767 -263.0508,0 43.6878,29.9453 249.293,0 0,-21.6055 -29.93,-33.68747" /><path
         id="path80"
         style="fill:none;stroke:#ffffff;stroke-width:3.99993992;stroke-linecap:butt;stroke-linejoin:miter;stroke-miterlimit:4;stroke-dasharray:none;stroke-opacity:1"
         d="m 353.586,5.26563 0,25.34767 -263.0508,0 43.6878,29.9453 249.293,0 0,-21.6055 -29.93,-33.68747 z" /><path
         id="path82"
         style="fill:#02709f;fill-opacity:1;fill-rule:nonzero;stroke:none"
         d="m 90.5352,5.26563 263.051,0 0,25.3477 -263.051,0 0,-25.3477 z" /><path
         id="path84"
         style="fill:none;stroke:#ffffff;stroke-width:3.99993992;stroke-linecap:butt;stroke-linejoin:miter;stroke-miterlimit:4;stroke-dasharray:none;stroke-opacity:1"
         d="m 90.5352,5.26563 263.051,0 0,25.3477 -263.051,0 0,-25.3477 z" /><path
         id="path86"
         style="fill:#02709f;fill-opacity:1;fill-rule:nonzero;stroke:none"
         d="m 353.586,30.6133 29.93,29.9453" /><path
         id="path88"
         style="fill:none;stroke:#ffffff;stroke-width:3.99993992;stroke-linecap:butt;stroke-linejoin:miter;stroke-miterlimit:4;stroke-dasharray:none;stroke-opacity:1"
         d="m 353.586,30.6133 29.93,29.9453" /><path
         id="path90"
         style="fill:#02709f;fill-opacity:1;fill-rule:nonzero;stroke:none"
         d="m 370.09,17.4727 -4.067,-12.14848 44.043,0 -2.007,12.14848" /><path
         id="path92"
         style="fill:none;stroke:#ffffff;stroke-width:3.99993992;stroke-linecap:butt;stroke-linejoin:miter;stroke-miterlimit:4;stroke-dasharray:none;stroke-opacity:1"
         d="m 370.09,17.4727 -4.067,-12.14848 44.043,0 -2.007,12.14848" /><path
         id="path94"
         style="fill:#02709f;fill-opacity:1;fill-rule:nonzero;stroke:none"
         d="m 408.059,17.4727 -1.016,16.1875 -19.238,0 -18.227,-16.1875 38.481,0" /><path
         id="path96"
         style="fill:none;stroke:#ffffff;stroke-width:3.99993992;stroke-linecap:butt;stroke-linejoin:miter;stroke-miterlimit:4;stroke-dasharray:none;stroke-opacity:1"
         d="m 408.059,17.4727 -1.016,16.1875 -19.238,0 -18.227,-16.1875 38.481,0 z" /><path
         id="path98"
         style="fill:#02709f;fill-opacity:1;fill-rule:nonzero;stroke:none"
         d="m 332.117,83.2148 9.375,-21.875 26.25,28.75 -3.125,10.6252" /><path
         id="path100"
         style="fill:none;stroke:#ffffff;stroke-width:3.99993992;stroke-linecap:butt;stroke-linejoin:miter;stroke-miterlimit:4;stroke-dasharray:none;stroke-opacity:1"
         d="m 332.117,83.2148 9.375,-21.875 26.25,28.75 -3.125,10.6252" /><path
         id="path102"
         style="fill:#02709f;fill-opacity:1;fill-rule:nonzero;stroke:none"
         d="m 332.117,83.2148 36.25,20.0002 -228.75,0 50.625,-20.0002 141.875,0" /><path
         id="path104"
         style="fill:none;stroke:#ffffff;stroke-width:3.99993992;stroke-linecap:butt;stroke-linejoin:miter;stroke-miterlimit:4;stroke-dasharray:none;stroke-opacity:1"
         d="m 332.117,83.2148 36.25,20.0002 -228.75,0 50.625,-20.0002 141.875,0 z" /><path
         id="path106"
         style="fill:#02709f;fill-opacity:1;fill-rule:nonzero;stroke:none"
         d="m 342.117,60.7148 -10,22.5 -141.875,0 -13.125,-22.5 165,0" /><path
         id="path108"
         style="fill:none;stroke:#ffffff;stroke-width:3.99993992;stroke-linecap:butt;stroke-linejoin:miter;stroke-miterlimit:4;stroke-dasharray:none;stroke-opacity:1"
         d="m 342.117,60.7148 -10,22.5 -141.875,0 -13.125,-22.5 165,0 z" /><path
         id="path110"
         style="fill:none;stroke:#02709f;stroke-width:3.99993992;stroke-linecap:butt;stroke-linejoin:miter;stroke-miterlimit:4;stroke-dasharray:none;stroke-opacity:1"
         d="m 398.484,32.0117 c 4.075,4.8946 -18.152,11.5156 6.875,15.625 15.981,2.6289 64.387,31.086 -49.136,32.5664" /></g></g></svg>