<?xml version="1.0" encoding="UTF-8" standalone="no"?>
<svg
   xmlns:dc="http://purl.org/dc/elements/1.1/"
   xmlns:cc="http://creativecommons.org/ns#"
   xmlns:rdf="http://www.w3.org/1999/02/22-rdf-syntax-ns#"
   xmlns:svg="http://www.w3.org/2000/svg"
   xmlns="http://www.w3.org/2000/svg"
   viewBox="0 0 55 40"
   height="40"
   width="55"
   xml:space="preserve"
   version="1.1"
   id="svg2"><metadata
     id="metadata8"><rdf:RDF><cc:Work
         rdf:about=""><dc:format>image/svg+xml</dc:format><dc:type
           rdf:resource="http://purl.org/dc/dcmitype/StillImage" /></cc:Work></rdf:RDF></metadata><defs
     id="defs6" /><g
     transform="matrix(1.25,0,0,-1.25,0,40)"
     id="g10"><g
       transform="scale(0.1,0.1)"
       id="g12"><path
         id="path14"
         style="fill:#02709f;fill-opacity:1;fill-rule:nonzero;stroke:none"
         d="m 93.3203,299.328 -86.37108,0 0,-245.1171 81.37108,0.711" /><path
         id="path16"
         style="fill:none;stroke:#ffffff;stroke-width:3.99993992;stroke-linecap:butt;stroke-linejoin:miter;stroke-miterlimit:4;stroke-dasharray:none;stroke-opacity:1"
         d="m 93.3203,299.328 -86.37108,0 0,-245.1092 81.37108,0.6992" /><path
         id="path18"
         style="fill:#02709f;fill-opacity:1;fill-rule:nonzero;stroke:none"
         d="m 88.3203,299.328 0,-245.1171 6.6406,4.9688 0,241.7893 -6.6406,-1.641" /><path
         id="path20"
         style="fill:none;stroke:#ffffff;stroke-width:3.99993992;stroke-linecap:butt;stroke-linejoin:miter;stroke-miterlimit:4;stroke-dasharray:none;stroke-opacity:1"
         d="m 88.3203,299.328 0,-245.1092 6.6406,4.9609 0,241.7893 -6.6406,-1.641 z" /><path
         id="path22"
         style="fill:#02709f;fill-opacity:1;fill-rule:nonzero;stroke:none"
         d="m 112.5,299.762 0,-242.9729 37.461,32.5 0,225.1209 -37.461,-14.648" /><path
         id="path24"
         style="fill:none;stroke:#ffffff;stroke-width:3.99993992;stroke-linecap:butt;stroke-linejoin:miter;stroke-miterlimit:4;stroke-dasharray:none;stroke-opacity:1"
         d="m 112.5,299.758 0,-242.9689 37.461,32.5 0,225.1209 -37.461,-14.652 z" /><path
         id="path26"
         style="fill:none;stroke:#ffffff;stroke-width:3.99993992;stroke-linecap:butt;stroke-linejoin:miter;stroke-miterlimit:4;stroke-dasharray:none;stroke-opacity:1"
         d="m 80.5117,284.25 -68.75,0" /><path
         id="path28"
         style="fill:none;stroke:#ffffff;stroke-width:3.99993992;stroke-linecap:butt;stroke-linejoin:miter;stroke-miterlimit:4;stroke-dasharray:none;stroke-opacity:1"
         d="m 73.8711,259.25 -56.25,0" /><path
         id="path30"
         style="fill:#02709f;fill-opacity:1;fill-rule:nonzero;stroke:none"
         d="m 94.4492,57.5313 17.2305,0 0,242.969 -17.2305,0 0,-242.969 z" /><path
         id="path32"
         style="fill:none;stroke:#ffffff;stroke-width:3.99993992;stroke-linecap:butt;stroke-linejoin:miter;stroke-miterlimit:4;stroke-dasharray:none;stroke-opacity:1"
         d="m 111.68,300.5 -17.2308,0 0,-242.9609 17.2308,0" /><path
         id="path34"
         style="fill:none;stroke:#ffffff;stroke-width:3.99993992;stroke-linecap:butt;stroke-linejoin:miter;stroke-miterlimit:4;stroke-dasharray:none;stroke-opacity:1"
         d="m 2.80859,272.18 85.86331,0" /><path
         id="path36"
         style="fill:none;stroke:#ffffff;stroke-width:3.99993992;stroke-linecap:butt;stroke-linejoin:miter;stroke-miterlimit:4;stroke-dasharray:none;stroke-opacity:1"
         d="m 2.80859,248 85.86331,0" /><path
         id="path38"
         style="fill:#02709f;fill-opacity:1;fill-rule:nonzero;stroke:none"
         d="m 103.672,83.9805 c 1.637,0 2.93,1.3281 2.93,2.9297 0,1.6015 -1.293,2.9296 -2.93,2.9296 -1.602,0 -2.891,-1.3281 -2.891,-2.9296 0,-1.6016 1.289,-2.9297 2.891,-2.9297" /><path
         id="path40"
         style="fill:none;stroke:#ffffff;stroke-width:3.99993992;stroke-linecap:butt;stroke-linejoin:miter;stroke-miterlimit:4;stroke-dasharray:none;stroke-opacity:1"
         d="m 103.672,83.9805 c 1.637,0 2.93,1.3281 2.93,2.9297 0,1.5976 -1.293,2.9296 -2.93,2.9296 -1.602,0 -2.891,-1.332 -2.891,-2.9296 0,-1.6016 1.289,-2.9297 2.891,-2.9297 z" /><path
         id="path42"
         style="fill:#02709f;fill-opacity:1;fill-rule:nonzero;stroke:none"
         d="m 103.672,64.0586 c 1.637,0 2.93,1.293 2.93,2.8906 0,1.6406 -1.293,2.9297 -2.93,2.9297 -1.602,0 -2.891,-1.2891 -2.891,-2.9297 0,-1.5976 1.289,-2.8906 2.891,-2.8906" /><path
         id="path44"
         style="fill:none;stroke:#ffffff;stroke-width:3.99993992;stroke-linecap:butt;stroke-linejoin:miter;stroke-miterlimit:4;stroke-dasharray:none;stroke-opacity:1"
         d="m 103.672,64.0586 c 1.637,0 2.93,1.2891 2.93,2.8906 0,1.6406 -1.293,2.9297 -2.93,2.9297 -1.602,0 -2.891,-1.2891 -2.891,-2.9297 0,-1.6015 1.289,-2.8906 2.891,-2.8906 z" /><path
         id="path46"
         style="fill:#02709f;fill-opacity:1;fill-rule:nonzero;stroke:none"
         d="m 114.691,300.352 38.079,14.878 -88.1216,0 -64.136681,-16.64 86.367181,0 5.4219,1.051 22.3902,0.711" /><path
         id="path48"
         style="fill:none;stroke:#ffffff;stroke-width:3.99993992;stroke-linecap:butt;stroke-linejoin:miter;stroke-miterlimit:4;stroke-dasharray:none;stroke-opacity:1"
         d="m 114.691,300.348 38.079,14.882 -88.1216,0 -64.136681,-16.64 86.367181,0 5.4219,1.051 22.3902,0.707 z" /><path
         id="path50"
         style="fill:none;stroke:#ffffff;stroke-width:3.99993992;stroke-linecap:butt;stroke-linejoin:miter;stroke-miterlimit:4;stroke-dasharray:none;stroke-opacity:1"
         d="m 368.629,113.078 -228.859,0" /><path
         id="path52"
         style="fill:#02709f;fill-opacity:1;fill-rule:nonzero;stroke:none"
         d="m 139.77,113.941 228.551,0 0,172.34 -228.551,0 0,-172.34 z" /><path
         id="path54"
         style="fill:none;stroke:#ffffff;stroke-width:3.99993992;stroke-linecap:butt;stroke-linejoin:miter;stroke-miterlimit:4;stroke-dasharray:none;stroke-opacity:1"
         d="m 368.32,113.941 0,172.348 -228.55,0 0,-172.348" /><path
         id="path56"
         style="fill:#02709f;fill-opacity:1;fill-rule:nonzero;stroke:none"
         d="m 368.32,113.32 26.52,47.141 0,151.059 -167.34,0 -87.73,-25.239 228.55,0 0,-172.961" /><path
         id="path58"
         style="fill:none;stroke:#ffffff;stroke-width:3.99993992;stroke-linecap:butt;stroke-linejoin:miter;stroke-miterlimit:4;stroke-dasharray:none;stroke-opacity:1"
         d="m 368.32,113.32 26.52,47.141 0,151.059 -167.34,0 -87.73,-25.231 228.55,0 0,-172.969 z" /><path
         id="path60"
         style="fill:#02709f;fill-opacity:1;fill-rule:nonzero;stroke:none"
         d="m 159.73,133.898 188.629,0 0,132.422 -188.629,0 0,-132.422 z" /><path
         id="path62"
         style="fill:none;stroke:#ffffff;stroke-width:3.99993992;stroke-linecap:butt;stroke-linejoin:miter;stroke-miterlimit:4;stroke-dasharray:none;stroke-opacity:1"
         d="m 159.73,133.898 188.629,0 0,132.422 -188.629,0 0,-132.422 z" /><path
         id="path64"
         style="fill:#02709f;fill-opacity:1;fill-rule:nonzero;stroke:none"
         d="m 368.32,286.281 26.52,25.239" /><path
         id="path66"
         style="fill:none;stroke:#ffffff;stroke-width:3.99993992;stroke-linecap:butt;stroke-linejoin:miter;stroke-miterlimit:4;stroke-dasharray:none;stroke-opacity:1"
         d="m 368.32,286.289 26.52,25.231" /><path
         id="path68"
         style="fill:#02709f;fill-opacity:1;fill-rule:nonzero;stroke:none"
         d="m 353.59,15.2695 0,25.3516 -263.0392,0 43.6682,29.918 249.301,0 0,-21.5977 -29.93,-33.6719" /><path
         id="path70"
         style="fill:none;stroke:#ffffff;stroke-width:3.99993992;stroke-linecap:butt;stroke-linejoin:miter;stroke-miterlimit:4;stroke-dasharray:none;stroke-opacity:1"
         d="m 353.59,15.2695 0,25.3516 -263.0392,0 43.6682,29.918 249.301,0 0,-21.5977 -29.93,-33.6719 z" /><path
         id="path72"
         style="fill:#02709f;fill-opacity:1;fill-rule:nonzero;stroke:none"
         d="m 90.5508,15.2695 263.051,0 0,25.3516 -263.051,0 0,-25.3516 z" /><path
         id="path74"
         style="fill:none;stroke:#ffffff;stroke-width:3.99993992;stroke-linecap:butt;stroke-linejoin:miter;stroke-miterlimit:4;stroke-dasharray:none;stroke-opacity:1"
         d="m 90.5508,15.2695 263.051,0 0,25.3516 -263.051,0 0,-25.3516 z" /><path
         id="path76"
         style="fill:#02709f;fill-opacity:1;fill-rule:nonzero;stroke:none"
         d="m 353.59,40.6211 29.93,29.918" /><path
         id="path78"
         style="fill:none;stroke:#ffffff;stroke-width:3.99993992;stroke-linecap:butt;stroke-linejoin:miter;stroke-miterlimit:4;stroke-dasharray:none;stroke-opacity:1"
         d="m 353.59,40.6211 29.93,29.918" /><path
         id="path80"
         style="fill:#02709f;fill-opacity:1;fill-rule:nonzero;stroke:none"
         d="m 370.078,27.4609 -4.058,-12.1523 44.058,0 -2.027,12.1523" /><path
         id="path82"
         style="fill:none;stroke:#ffffff;stroke-width:3.99993992;stroke-linecap:butt;stroke-linejoin:miter;stroke-miterlimit:4;stroke-dasharray:none;stroke-opacity:1"
         d="m 370.078,27.4609 -4.058,-12.1523 44.058,0 -2.027,12.1523" /><path
         id="path84"
         style="fill:#02709f;fill-opacity:1;fill-rule:nonzero;stroke:none"
         d="m 408.051,27.4609 -1.02,16.211 -19.222,0 -18.239,-16.211 38.481,0" /><path
         id="path86"
         style="fill:none;stroke:#ffffff;stroke-width:3.99993992;stroke-linecap:butt;stroke-linejoin:miter;stroke-miterlimit:4;stroke-dasharray:none;stroke-opacity:1"
         d="m 408.051,27.4609 -1.02,16.2071 -19.222,0 -18.239,-16.2071 38.481,0 z" /><path
         id="path88"
         style="fill:#02709f;fill-opacity:1;fill-rule:nonzero;stroke:none"
         d="m 332.109,93.1992 9.371,-21.8789 26.25,28.7497 -3.121,10.629" /><path
         id="path90"
         style="fill:none;stroke:#ffffff;stroke-width:3.99993992;stroke-linecap:butt;stroke-linejoin:miter;stroke-miterlimit:4;stroke-dasharray:none;stroke-opacity:1"
         d="m 332.109,93.1992 9.371,-21.8789 26.25,28.7497 -3.121,10.629" /><path
         id="path92"
         style="fill:#02709f;fill-opacity:1;fill-rule:nonzero;stroke:none"
         d="m 332.109,93.1992 36.25,19.9998 -228.75,0 50.621,-19.9998 141.879,0" /><path
         id="path94"
         style="fill:none;stroke:#ffffff;stroke-width:3.99993992;stroke-linecap:butt;stroke-linejoin:miter;stroke-miterlimit:4;stroke-dasharray:none;stroke-opacity:1"
         d="m 332.109,93.1992 36.25,19.9998 -228.75,0 50.621,-19.9998 141.879,0 z" /><path
         id="path96"
         style="fill:#02709f;fill-opacity:1;fill-rule:nonzero;stroke:none"
         d="m 342.109,70.6992 -10,22.5 -141.879,0 -13.121,-22.5 165,0" /><path
         id="path98"
         style="fill:none;stroke:#ffffff;stroke-width:3.99993992;stroke-linecap:butt;stroke-linejoin:miter;stroke-miterlimit:4;stroke-dasharray:none;stroke-opacity:1"
         d="m 342.109,70.6992 -10,22.5 -141.879,0 -13.121,-22.5 165,0 z" /><path
         id="path100"
         style="fill:none;stroke:#02709f;stroke-width:3.99993992;stroke-linecap:butt;stroke-linejoin:miter;stroke-miterlimit:4;stroke-dasharray:none;stroke-opacity:1"
         d="m 398.48,42.0313 c 4.059,4.8789 -18.171,11.4765 6.872,15.6171 15.976,2.6211 64.378,31.0625 -49.141,32.543" /></g></g></svg>