<?xml version="1.0" encoding="UTF-8" standalone="no"?>
<svg
   xmlns:dc="http://purl.org/dc/elements/1.1/"
   xmlns:cc="http://creativecommons.org/ns#"
   xmlns:rdf="http://www.w3.org/1999/02/22-rdf-syntax-ns#"
   xmlns:svg="http://www.w3.org/2000/svg"
   xmlns="http://www.w3.org/2000/svg"
   viewBox="0 0 40.537498 63.224998"
   height="63.224998"
   width="40.537498"
   xml:space="preserve"
   version="1.1"
   id="svg2"><metadata
     id="metadata8"><rdf:RDF><cc:Work
         rdf:about=""><dc:format>image/svg+xml</dc:format><dc:type
           rdf:resource="http://purl.org/dc/dcmitype/StillImage" /></cc:Work></rdf:RDF></metadata><defs
     id="defs6"><clipPath
       id="clipPath18"
       clipPathUnits="userSpaceOnUse"><path
         id="path20"
         d="M 0,0 0,506 320,506 320,0 0,0 Z" /></clipPath></defs><g
     transform="matrix(1.25,0,0,-1.25,0,63.225)"
     id="g10"><g
       transform="scale(0.1,0.1)"
       id="g12"><g
         id="g14"><g
           clip-path="url(#clipPath18)"
           id="g16"><path
             id="path22"
             style="fill:#02709f;fill-opacity:1;fill-rule:nonzero;stroke:none"
             d="m 287.617,325.586 c 14.629,7.027 -0.293,36.871 -44.883,12.598" /><path
             id="path24"
             style="fill:none;stroke:#ffffff;stroke-width:3.99993992;stroke-linecap:butt;stroke-linejoin:miter;stroke-miterlimit:4;stroke-dasharray:none;stroke-opacity:1"
             d="m 287.617,325.586 c 14.629,7.027 -0.293,36.871 -44.883,12.598" /><path
             id="path26"
             style="fill:#02709f;fill-opacity:1;fill-rule:nonzero;stroke:none"
             d="m 117.297,330.551 134.402,0 0,101.34 -134.402,0 0,-101.34 z" /><path
             id="path28"
             style="fill:none;stroke:#ffffff;stroke-width:3.99993992;stroke-linecap:butt;stroke-linejoin:miter;stroke-miterlimit:4;stroke-dasharray:none;stroke-opacity:1"
             d="m 251.699,330.551 0,101.34 -134.402,0 0,-101.34" /><path
             id="path30"
             style="fill:#02709f;fill-opacity:1;fill-rule:nonzero;stroke:none"
             d="m 251.699,431.891 0,-101.703 15.586,27.714 0,88.832 -15.586,-14.843" /><path
             id="path32"
             style="fill:none;stroke:#ffffff;stroke-width:3.99993992;stroke-linecap:butt;stroke-linejoin:miter;stroke-miterlimit:4;stroke-dasharray:none;stroke-opacity:1"
             d="m 251.699,431.891 0,-101.703 15.586,27.714 0,88.832 -15.586,-14.843 z" /><path
             id="path34"
             style="fill:#02709f;fill-opacity:1;fill-rule:nonzero;stroke:none"
             d="m 267.285,446.734 -98.39,0 -51.598,-14.843 134.402,0 15.586,14.843" /><path
             id="path36"
             style="fill:none;stroke:#ffffff;stroke-width:3.99993992;stroke-linecap:butt;stroke-linejoin:miter;stroke-miterlimit:4;stroke-dasharray:none;stroke-opacity:1"
             d="m 267.285,446.734 -98.39,0 -51.598,-14.843 134.402,0 15.586,14.843 z" /><path
             id="path38"
             style="fill:#02709f;fill-opacity:1;fill-rule:nonzero;stroke:none"
             d="m 129.023,342.285 110.938,0 0,77.8711 -110.938,0 0,-77.8711 z" /><path
             id="path40"
             style="fill:none;stroke:#ffffff;stroke-width:3.99993992;stroke-linecap:butt;stroke-linejoin:miter;stroke-miterlimit:4;stroke-dasharray:none;stroke-opacity:1"
             d="m 129.023,342.285 110.938,0 0,77.8711 -110.938,0 0,-77.8711 z" /><path
             id="path42"
             style="fill:#02709f;fill-opacity:1;fill-rule:nonzero;stroke:none"
             d="m 230.398,318.363 5.52,-12.867 15.43,16.906 -1.836,6.25" /><path
             id="path44"
             style="fill:none;stroke:#ffffff;stroke-width:3.99993992;stroke-linecap:butt;stroke-linejoin:miter;stroke-miterlimit:4;stroke-dasharray:none;stroke-opacity:1"
             d="m 230.398,318.363 5.52,-12.867 15.43,16.906 -1.836,6.25" /><path
             id="path46"
             style="fill:#02709f;fill-opacity:1;fill-rule:nonzero;stroke:none"
             d="m 230.398,318.363 21.321,11.758 -134.5,0 29.761,-11.758 83.418,0" /><path
             id="path48"
             style="fill:none;stroke:#ffffff;stroke-width:3.99993992;stroke-linecap:butt;stroke-linejoin:miter;stroke-miterlimit:4;stroke-dasharray:none;stroke-opacity:1"
             d="m 230.398,318.363 21.321,11.758 -134.5,0 29.761,-11.758 83.418,0 z" /><path
             id="path50"
             style="fill:#02709f;fill-opacity:1;fill-rule:nonzero;stroke:none"
             d="m 236.277,305.133 -5.879,13.23 -83.418,0 -7.71,-13.23 97.007,0" /><path
             id="path52"
             style="fill:none;stroke:#ffffff;stroke-width:3.99993992;stroke-linecap:butt;stroke-linejoin:miter;stroke-miterlimit:4;stroke-dasharray:none;stroke-opacity:1"
             d="m 236.277,305.133 -5.879,13.23 -83.418,0 -7.71,-13.23 97.007,0 z" /><path
             id="path54"
             style="fill:#02709f;fill-opacity:1;fill-rule:nonzero;stroke:none"
             d="m 60.3594,265.617 -1.1914,0 0.3828,-154.113 C 59.168,111.27 47.0508,111.965 46.8281,111.27 46.7461,97.7656 46.9727,93.9844 47.2852,82.0117 46.5938,81.9453 32.8516,81.9453 32.8516,81.7852 32.9688,126.738 32.3164,220.684 31.8281,271.16" /><path
             id="path56"
             style="fill:none;stroke:#ffffff;stroke-width:3.99993992;stroke-linecap:butt;stroke-linejoin:miter;stroke-miterlimit:4;stroke-dasharray:none;stroke-opacity:1"
             d="m 60.3594,265.617 -1.1914,0 0.3828,-154.113 C 59.168,111.27 47.0508,111.965 46.8281,111.27 46.7461,97.7656 46.9727,93.9844 47.2852,82.0117 46.5938,81.9453 32.8516,81.9453 32.8516,81.7852 32.9688,126.738 32.3164,220.684 31.8281,271.16" /><path
             id="path58"
             style="fill:#02709f;fill-opacity:1;fill-rule:nonzero;stroke:none"
             d="m 312.156,276.801 c 0.188,19.539 8.039,20.953 8.965,23.804 0,3.09 0.5,7.536 0.039,10.157 -7.488,0.234 -8.797,-0.231 -18.98,0 l -215.5277,1.929 c 0,-0.773 -34.4179,-9.644 -35.0312,-9.953 -10.5,0.617 -14.3555,-3.398 -24.3945,-3.859 -1.2305,-2.781 0.1562,-1.699 0.4687,-5.094 2.0039,-1.695 4.9336,-2.472 6.9453,-4.785 1.2266,-7.102 1.2657,-10 1.2266,-16.051 -0.0195,-3.847 -0.0352,-7.707 -0.0586,-11.57" /><path
             id="path60"
             style="fill:none;stroke:#ffffff;stroke-width:3.99993992;stroke-linecap:butt;stroke-linejoin:miter;stroke-miterlimit:4;stroke-dasharray:none;stroke-opacity:1"
             d="m 312.156,276.801 c 0.188,19.539 8.039,20.953 8.965,23.804 0,3.09 0.5,7.536 0.039,10.157 -7.488,0.234 -8.797,-0.231 -18.98,0 l -215.5277,1.929 c 0,-0.773 -34.4179,-9.644 -35.0312,-9.953 -10.5,0.617 -14.3555,-3.398 -24.3945,-3.859 -1.2305,-2.781 0.1562,-1.699 0.4687,-5.094 2.0039,-1.695 4.9336,-2.472 6.9453,-4.785 1.2266,-7.102 1.2657,-10 1.2266,-16.051 -0.0195,-3.847 -0.0352,-7.707 -0.0586,-11.57" /><path
             id="path62"
             style="fill:#02709f;fill-opacity:1;fill-rule:nonzero;stroke:none"
             d="m 311.289,269.746 -1.191,0 0.382,-154.121 c -0.382,-0.234 -12.5,0.469 -12.738,-0.234 -0.078,-13.496 0.156,-17.2855 0.473,-29.2387 -0.695,-0.0781 -14.438,-0.0781 -14.438,-0.2343 0.11,44.949 -0.535,138.906 -1.023,189.375" /><path
             id="path64"
             style="fill:none;stroke:#ffffff;stroke-width:3.99993992;stroke-linecap:butt;stroke-linejoin:miter;stroke-miterlimit:4;stroke-dasharray:none;stroke-opacity:1"
             d="m 311.289,269.746 -1.191,0 0.382,-154.121 c -0.382,-0.234 -12.5,0.469 -12.738,-0.234 -0.078,-13.496 0.156,-17.2855 0.473,-29.2387 -0.695,-0.0781 -14.438,-0.0781 -14.438,-0.2343 0.11,44.949 -0.535,138.906 -1.023,189.375" /><path
             id="path66"
             style="fill:#02709f;fill-opacity:1;fill-rule:nonzero;stroke:none"
             d="m 306.328,255.195 0,30.098 -270.8788,3.863 0,-27.785 270.8788,-6.176" /><path
             id="path68"
             style="fill:none;stroke:#ffffff;stroke-width:3.99993992;stroke-linecap:butt;stroke-linejoin:miter;stroke-miterlimit:4;stroke-dasharray:none;stroke-opacity:1"
             d="m 306.328,255.195 0,30.098 -270.8788,3.863 0,-27.785 270.8788,-6.176 z" /><path
             id="path70"
             style="fill:#02709f;fill-opacity:1;fill-rule:nonzero;stroke:none"
             d="m 319.063,268.633 0,30.32 -12.735,-13.433 0,-30.098 12.735,13.211" /><path
             id="path72"
             style="fill:none;stroke:#ffffff;stroke-width:3.99993992;stroke-linecap:butt;stroke-linejoin:miter;stroke-miterlimit:4;stroke-dasharray:none;stroke-opacity:1"
             d="m 319.063,268.633 0,30.32 -12.735,-13.433 0,-30.098 12.735,13.211 z" /><path
             id="path74"
             style="fill:#02709f;fill-opacity:1;fill-rule:nonzero;stroke:none"
             d="m 319.668,310.762 -14.883,-15.434 -277.8202,3.863 60.9649,14.657 231.7383,-3.086" /><path
             id="path76"
             style="fill:none;stroke:#ffffff;stroke-width:3.99993992;stroke-linecap:butt;stroke-linejoin:miter;stroke-miterlimit:4;stroke-dasharray:none;stroke-opacity:1"
             d="m 319.668,310.762 -14.883,-15.434 -277.8202,3.863 60.9649,14.657 231.7383,-3.086 z" /><path
             id="path78"
             style="fill:#02709f;fill-opacity:1;fill-rule:nonzero;stroke:none"
             d="m 283.953,304.375 0.051,5.41 8.191,16.387 -0.047,-11.266 -8.195,-10.531" /><path
             id="path80"
             style="fill:none;stroke:#ffffff;stroke-width:3.99993992;stroke-linecap:butt;stroke-linejoin:miter;stroke-miterlimit:4;stroke-dasharray:none;stroke-opacity:1"
             d="m 283.953,304.375 0.051,5.41 8.191,16.387 -0.047,-11.266 -8.195,-10.531 z" /><path
             id="path82"
             style="fill:#02709f;fill-opacity:1;fill-rule:nonzero;stroke:none"
             d="m 284.102,309.785 8.195,16.387 -18.734,0 -8.192,-16.387 18.731,0" /><path
             id="path84"
             style="fill:none;stroke:#ffffff;stroke-width:3.99993992;stroke-linecap:butt;stroke-linejoin:miter;stroke-miterlimit:4;stroke-dasharray:none;stroke-opacity:1"
             d="m 284.102,309.785 8.195,16.387 -18.734,0 -8.192,-16.387 18.731,0 z" /><path
             id="path86"
             style="fill:#02709f;fill-opacity:1;fill-rule:nonzero;stroke:none"
             d="m 265.371,304.523 18.7305,0 0,5.26172 -18.7305,0 0,-5.26172 z" /><path
             id="path88"
             style="fill:none;stroke:#ffffff;stroke-width:3.99993992;stroke-linecap:butt;stroke-linejoin:miter;stroke-miterlimit:4;stroke-dasharray:none;stroke-opacity:1"
             d="m 265.371,304.523 18.7305,0 0,5.26172 -18.7305,0 0,-5.26172 z" /><path
             id="path90"
             style="fill:#02709f;fill-opacity:1;fill-rule:nonzero;stroke:none"
             d="m 241.211,301.398 0,6.493 14.016,19.386 0,-11.867 -14.016,-14.012" /><path
             id="path92"
             style="fill:none;stroke:#ffffff;stroke-width:3.99993992;stroke-linecap:butt;stroke-linejoin:miter;stroke-miterlimit:4;stroke-dasharray:none;stroke-opacity:1"
             d="m 241.211,301.398 0,6.493 14.016,19.386 0,-11.867 -14.016,-14.012 z" /><path
             id="path94"
             style="fill:#02709f;fill-opacity:1;fill-rule:nonzero;stroke:none"
             d="m 241.211,307.793 -123.145,0 14.004,19.484 123.157,0 -14.016,-19.484" /><path
             id="path96"
             style="fill:none;stroke:#ffffff;stroke-width:3.99993992;stroke-linecap:butt;stroke-linejoin:miter;stroke-miterlimit:4;stroke-dasharray:none;stroke-opacity:1"
             d="m 241.211,307.793 -123.145,0 14.004,19.484 123.157,0 -14.016,-19.484 z" /><path
             id="path98"
             style="fill:#02709f;fill-opacity:1;fill-rule:nonzero;stroke:none"
             d="m 117.988,301.398 123.223,0 0,6.39453 -123.223,0 0,-6.39453 z" /><path
             id="path100"
             style="fill:none;stroke:#ffffff;stroke-width:3.99993992;stroke-linecap:butt;stroke-linejoin:miter;stroke-miterlimit:4;stroke-dasharray:none;stroke-opacity:1"
             d="m 117.988,301.398 123.223,0 0,6.39453 -123.223,0 0,-6.39453 z" /><path
             id="path102"
             style="fill:#02709f;fill-opacity:1;fill-rule:nonzero;stroke:none"
             d="m 205.969,87.3828 c -2.055,-13.9648 -4.797,-17.1484 11.25,-19.5781 l 0,-0.7734 c 0,0 1.758,3.7968 2.527,-3.1446 0,0 3.086,-10.8125 -40.129,0.7617 0,0 -2.469,7.961 -7.871,3.3321 l 0.774,-0.7735 c 1.484,5.7735 6.015,7.5782 3.566,16.543 l 0.164,-0.8594 29.719,4.4922" /><path
             id="path104"
             style="fill:none;stroke:#ffffff;stroke-width:3.99993992;stroke-linecap:butt;stroke-linejoin:miter;stroke-miterlimit:4;stroke-dasharray:none;stroke-opacity:1"
             d="m 205.969,87.3828 c -2.055,-13.9648 -4.797,-17.1484 11.25,-19.5781 l 0,-0.7734 c 0,0 1.758,3.7968 2.527,-3.1446 0,0 3.086,-10.8125 -40.129,0.7617 0,0 -2.469,7.961 -7.871,3.3321 l 0.774,-0.7735 c 1.484,5.7735 6.015,7.5782 3.566,16.543 l 0.164,-0.8594 29.719,4.4922 z" /><path
             id="path106"
             style="fill:#02709f;fill-opacity:1;fill-rule:nonzero;stroke:none"
             d="m 231.016,303.156 c 2.695,3.094 0.605,1.789 3.464,4.887 4.27,4.629 8.379,8.77 12.012,13.805 2.18,3.011 4.094,5.968 6.446,8.851 2.316,2.832 7.484,2.973 10.648,1.418 2.715,-1.336 4.043,-2.054 6.852,-2.816 1.691,-0.453 3.058,-4.219 1.093,-4.465 1.582,-0.691 3.059,-1.633 3.664,-3.242 0.125,-0.348 -0.3,-1.172 -0.215,-1.457 0.911,-2.801 6.282,-5.567 3.301,-7.739 -1.543,-1.117 -4.277,0.692 -6.472,0.024 -1.875,-0.574 -2.903,-2.371 -4.309,-3.813 -1.426,-1.441 -3.215,-1.808 -4.941,-2.339 -2.547,-0.79 -4.864,-1.579 -7.414,-2.477 -1.915,-0.672 -3.297,-2.082 -5.118,-3.016 -4.773,-2.441 -3.738,-2.531 -8.242,-5.422 -3.562,1.833 -8.14,4.762 -10.769,7.801" /><path
             id="path108"
             style="fill:none;stroke:#ffffff;stroke-width:3.99993992;stroke-linecap:butt;stroke-linejoin:miter;stroke-miterlimit:4;stroke-dasharray:none;stroke-opacity:1"
             d="m 231.016,303.156 c 2.695,3.094 0.605,1.789 3.464,4.887 4.27,4.629 8.379,8.77 12.012,13.805 2.18,3.011 4.094,5.968 6.446,8.851 2.316,2.832 7.484,2.973 10.648,1.418 2.715,-1.336 4.043,-2.054 6.852,-2.816 1.691,-0.453 3.058,-4.219 1.093,-4.465 1.582,-0.691 3.059,-1.633 3.664,-3.242 0.125,-0.348 -0.3,-1.172 -0.215,-1.457 0.911,-2.801 6.282,-5.567 3.301,-7.739 -1.543,-1.117 -4.277,0.692 -6.472,0.024 -1.875,-0.574 -2.903,-2.371 -4.309,-3.813 -1.426,-1.441 -3.215,-1.808 -4.941,-2.339 -2.547,-0.79 -4.864,-1.579 -7.414,-2.477 -1.915,-0.672 -3.297,-2.082 -5.118,-3.016 -4.773,-2.441 -3.738,-2.531 -8.242,-5.422 -3.562,1.833 -8.14,4.762 -10.769,7.801 z" /><path
             id="path110"
             style="fill:#02709f;fill-opacity:1;fill-rule:nonzero;stroke:none"
             d="m 217.219,67.0313 c 8.23,-1.25 17.066,2.5703 14.617,-3.3985 -0.938,-9.2265 -0.09,-9.9219 -5.125,-16.1133 -1.777,-1.8359 -1.613,0.0391 -4.348,-1.875 -13.066,-2.2656 -33.347,10.8868 -35.105,0.8868 0.547,0.5195 -6.418,-8.3165 -6.594,-9.8321 -0.851,-0.5078 -2.715,0.3399 -3.562,0 -8.938,13.4961 -9.653,22.793 -7.668,30.5078 5.402,4.6289 10.183,-2.5586 10.183,-2.5586 46.301,-10.8007 40.129,-0.7617 40.129,-0.7617 -0.769,6.9414 -2.527,3.1446 -2.527,3.1446" /><path
             id="path112"
             style="fill:none;stroke:#ffffff;stroke-width:3.99993992;stroke-linecap:butt;stroke-linejoin:miter;stroke-miterlimit:4;stroke-dasharray:none;stroke-opacity:1"
             d="m 217.219,67.0313 c 8.23,-1.25 17.066,2.5703 14.617,-3.3985 -0.938,-9.2265 -0.09,-9.9219 -5.125,-16.1133 -1.777,-1.8359 -1.613,0.0391 -4.348,-1.875 -13.066,-2.2656 -33.347,10.8868 -35.105,0.8868 0.547,0.5195 -6.418,-8.3165 -6.594,-9.8321 -0.851,-0.5078 -2.715,0.3399 -3.562,0 -8.938,13.4961 -9.653,22.793 -7.668,30.5078 5.402,4.6289 10.183,-2.5586 10.183,-2.5586 46.301,-10.8007 40.129,-0.7617 40.129,-0.7617 -0.769,6.9414 -2.527,3.1446 -2.527,3.1446 z" /><path
             id="path114"
             style="fill:#02709f;fill-opacity:1;fill-rule:nonzero;stroke:none"
             d="m 58.5352,258.613 c -6.4454,-29.043 -7.5,-57.578 1.8359,-85.078 1.6992,-2.043 4.1094,-2.871 7.168,-4.238 16.9726,1.191 16.2695,1.027 36.0549,0.519 l 23.601,-2.043 c 1.692,-0.507 3.735,0 5.254,-1.191 9.172,-14.082 61.633,7.813 63.164,-7.297 0.918,4.438 -20.711,-4.93 -21.914,-15.789 4.239,-17.305 -0.066,-51.0741 -0.918,-67.3632 3.672,-2.7539 -5.191,-3.3203 3.469,-7.8984 12.355,-3.086 29.719,4.4922 29.719,4.4922 4.746,2.8789 6.297,-1.7696 11.219,0.9453 1.191,46.0161 -1.551,75.8011 4.726,119.4331 0.684,9.004 -2.004,8.418 -2.519,14.024 -0.332,3.73 -4.598,4.777 -6.805,8.34 -9.184,2.148 -21.125,2.754 -27.656,3.476 l -24.465,5.391 c 2.597,5.898 0.801,38.73 1.933,45.137 3.274,2.777 4.09,24.371 6.536,27.691 l 1.785,17.777 c 0.429,-3.886 -1.16,-9.507 6.281,-13.378 4.168,-0.68 2.469,-2.051 6.601,-2.934 0.489,-0.488 0.973,-0.977 1.461,-1.465 1.274,-0.367 2.524,-0.797 3.664,-1.469 4.153,-3.437 9.786,-2.437 13.934,-5.867 6.34,-1.023 11.457,-5.098 17.824,-3.207 2.246,0.664 4.532,0.977 6.875,0.715 6.231,4.602 11.836,1.25 16.184,7.543 1.308,1.562 7.012,1.562 8.699,2.461 1.965,2.808 1.531,-0.063 2.488,3.566 2.825,1.399 4.133,0.305 7.551,0.305 0.488,0.602 4.817,10.664 5.086,11.738 0,0 -6.617,15.582 -19.539,13.457 l -15.82,1.66 c -9.922,-0.308 -20.379,0.391 -28.782,10.149 l -2.402,4.969 1.25,8.121 c 2.785,5.718 -3.223,18.914 -4.844,25.953 -8.796,6.453 -3.589,1.797 -12.527,8.836 L 65.1055,397.438 c -1.1914,-0.641 -3.3477,-0.786 -4.1563,-0.641 -9.5351,-0.293 -17.1601,1.465 -25.6679,-4.254 -2.0508,-4.84 -6.004,-12.605 -5.5625,-18.328 2.1953,-8.063 -12.543,-7.184 -8.4297,-15.543 2.0507,-2.637 1.0273,-5.57 2.0507,-8.067 -2.0507,-11.433 0.4415,-1.027 -2.0507,-10.847 l -0.8125,-0.074 C 7.28516,304.859 2.10938,268.395 2.10938,268.395 c 0.92968,-1.079 2.01171,-2.008 2.6289,-3.086 7.71482,-9.262 49.61722,-21.688 49.61722,-21.688 l 0.1562,0.461" /><path
             id="path116"
             style="fill:none;stroke:#ffffff;stroke-width:3.99993992;stroke-linecap:butt;stroke-linejoin:miter;stroke-miterlimit:4;stroke-dasharray:none;stroke-opacity:1"
             d="m 58.5352,258.613 c -6.4454,-29.043 -7.5,-57.578 1.8359,-85.078 1.6992,-2.043 4.1094,-2.871 7.168,-4.238 16.9726,1.191 16.2695,1.027 36.0549,0.519 l 23.601,-2.043 c 1.692,-0.507 3.735,0 5.254,-1.191 9.172,-14.082 61.633,7.813 63.164,-7.297 0.918,4.438 -20.711,-4.93 -21.914,-15.789 4.239,-17.305 -0.066,-51.0741 -0.918,-67.3632 3.672,-2.7539 -5.191,-3.3203 3.469,-7.8984 12.355,-3.086 29.719,4.4922 29.719,4.4922 4.746,2.8789 6.297,-1.7696 11.219,0.9453 1.191,46.0161 -1.551,75.8011 4.726,119.4331 0.684,9.004 -2.004,8.418 -2.519,14.024 -0.332,3.73 -4.598,4.777 -6.805,8.34 -9.184,2.148 -21.125,2.754 -27.656,3.476 l -24.465,5.391 c 2.597,5.898 0.801,38.73 1.933,45.137 3.274,2.777 4.09,24.371 6.536,27.691 l 1.785,17.777 c 0.429,-3.886 -1.16,-9.507 6.281,-13.378 4.168,-0.68 2.469,-2.051 6.601,-2.934 0.489,-0.488 0.973,-0.977 1.461,-1.465 1.274,-0.367 2.524,-0.797 3.664,-1.469 4.153,-3.437 9.786,-2.437 13.934,-5.867 6.34,-1.023 11.457,-5.098 17.824,-3.207 2.246,0.664 4.532,0.977 6.875,0.715 6.231,4.602 11.836,1.25 16.184,7.543 1.308,1.562 7.012,1.562 8.699,2.461 1.965,2.808 1.531,-0.063 2.488,3.566 2.825,1.399 4.133,0.305 7.551,0.305 0.488,0.602 4.817,10.664 5.086,11.738 0,0 -6.617,15.582 -19.539,13.457 l -15.82,1.66 c -9.922,-0.308 -20.379,0.391 -28.782,10.149 l -2.402,4.969 1.25,8.121 c 2.785,5.718 -3.223,18.914 -4.844,25.953 -8.796,6.453 -3.589,1.797 -12.527,8.836 L 65.1055,397.438 c -1.1914,-0.641 -3.3477,-0.786 -4.1563,-0.641 -9.5351,-0.293 -17.1601,1.465 -25.6679,-4.254 -2.0508,-4.84 -6.004,-12.605 -5.5625,-18.328 2.1953,-8.063 -12.543,-7.184 -8.4297,-15.543 2.0507,-2.637 1.0273,-5.57 2.0507,-8.067 -2.0507,-11.433 0.4415,-1.027 -2.0507,-10.847 l -0.8125,-0.074 C 7.28516,304.859 2.10938,268.395 2.10938,268.395 c 0.92968,-1.079 2.01171,-2.008 2.6289,-3.086 7.71482,-9.262 49.61722,-21.688 49.61722,-21.688 l 0.1562,0.461" /><path
             id="path118"
             style="fill:#02709f;fill-opacity:1;fill-rule:nonzero;stroke:none"
             d="m 106.836,79.082 c -4.91,-5 -7.7735,-9.0234 -9.0508,-12.9297 5.3988,7.7149 11.6408,-0.8007 11.6408,-0.8007 15.437,-6.1719 22.383,-9.2578 22.383,-9.2578 20.449,1.6796 13.511,13.1835 13.511,13.1835 -10.308,4.4336 -13.23,7.3243 -12.625,9.1993" /><path
             id="path120"
             style="fill:#02709f;fill-opacity:1;fill-rule:nonzero;stroke:none"
             d="m 99.2852,133.242 -6.1993,-44.2264 -3.75,-13.0273 35.2541,-5.4024 1.164,0.1758 c 0.601,1.875 8.594,-1.1445 12.383,-0.8008 5.117,2.9297 0.742,0.8985 5.996,3.6524 -0.539,0.7812 -1.391,16.4648 -1.203,60.3317" /><path
             id="path122"
             style="fill:none;stroke:#ffffff;stroke-width:3.99993992;stroke-linecap:butt;stroke-linejoin:miter;stroke-miterlimit:4;stroke-dasharray:none;stroke-opacity:1"
             d="m 99.2852,133.242 -6.1993,-44.2264 -3.75,-13.0273 35.2541,-5.4024 1.164,0.1758 c 0.601,1.875 8.594,-1.1445 12.383,-0.8008 5.117,2.9297 0.742,0.8985 5.996,3.6524 -0.539,0.7812 -1.391,16.4648 -1.203,60.3317" /><path
             id="path124"
             style="fill:#02709f;fill-opacity:1;fill-rule:nonzero;stroke:none"
             d="m 114.941,31.7773 5.008,34.3438" /><path
             id="path126"
             style="fill:#02709f;fill-opacity:1;fill-rule:nonzero;stroke:none"
             d="m 105.527,161.594 c 2.422,0.418 4.036,2.722 3.614,5.144 l -9.5512,54.336 c -0.4296,2.422 -2.7343,4.024 -5.1445,3.606 l -13.293,-2.336 c -2.4218,-0.43 -4.0351,-2.735 -3.6132,-5.145 l 9.5507,-54.328 c 0.4297,-2.422 2.7344,-4.043 5.1446,-3.613 l 13.2926,2.336" /><path
             id="path128"
             style="fill:none;stroke:#ffffff;stroke-width:3.99993992;stroke-linecap:butt;stroke-linejoin:miter;stroke-miterlimit:4;stroke-dasharray:none;stroke-opacity:1"
             d="m 105.527,161.594 c 2.422,0.418 4.036,2.722 3.614,5.144 l -9.5512,54.336 c -0.4296,2.422 -2.7343,4.024 -5.1445,3.606 l -13.293,-2.336 c -2.4218,-0.43 -4.0351,-2.735 -3.6132,-5.145 l 9.5507,-54.328 c 0.4297,-2.422 2.7344,-4.043 5.1446,-3.613 l 13.2926,2.336 z" /><path
             id="path130"
             style="fill:#02709f;fill-opacity:1;fill-rule:nonzero;stroke:none"
             d="m 106.445,80.1641 c -8.945,-2 -19.5231,-0.4571 -20.2927,-6.0118 -0.7695,-5.5585 3.3204,-6.7109 7.3321,-6.9453" /><path
             id="path132"
             style="fill:none;stroke:#ffffff;stroke-width:3.99993992;stroke-linecap:butt;stroke-linejoin:miter;stroke-miterlimit:4;stroke-dasharray:none;stroke-opacity:1"
             d="m 106.445,80.1641 c -8.945,-2 -19.5231,-0.4571 -20.2927,-6.0118 -0.7695,-5.5585 3.3204,-6.7109 7.3321,-6.9453" /><path
             id="path134"
             style="fill:#02709f;fill-opacity:1;fill-rule:nonzero;stroke:none"
             d="m 203.711,161.973 c 2.473,2.519 2.781,3.332 2.781,5.781 l 0,29.473 c 0,2.461 -1.98,4.453 -4.441,4.453 l -32.512,-31.367 c -2.449,0 -4.441,-1.993 -4.441,-4.454 l 0,-32.785 c 0,-2.449 1.992,-4.441 4.441,-4.441 l 34.172,33.34" /><path
             id="path136"
             style="fill:none;stroke:#ffffff;stroke-width:3.99993992;stroke-linecap:butt;stroke-linejoin:miter;stroke-miterlimit:4;stroke-dasharray:none;stroke-opacity:1"
             d="m 203.711,161.973 c 2.473,2.519 2.781,3.332 2.781,5.781 l 0,29.473 c 0,2.461 -1.98,4.453 -4.441,4.453 l -32.512,-31.367 c -2.449,0 -4.441,-1.993 -4.441,-4.454 l 0,-32.785 c 0,-2.449 1.992,-4.441 4.441,-4.441 l 34.172,33.34 z" /><path
             id="path138"
             style="fill:#02709f;fill-opacity:1;fill-rule:nonzero;stroke:none"
             d="m 42.4688,283.52 c -0.6915,6.636 7.4257,24.527 7.7148,29.953 -1.4648,-6.008 -2.6719,-33.735 -1.1211,-37.785 l -6.5937,7.832" /><path
             id="path140"
             style="fill:none;stroke:#ffffff;stroke-width:3.99993992;stroke-linecap:butt;stroke-linejoin:miter;stroke-miterlimit:4;stroke-dasharray:none;stroke-opacity:1"
             d="m 42.4688,283.52 c -0.6915,6.636 7.4257,24.527 7.7148,29.953 -1.4648,-6.008 -2.6719,-33.735 -1.1211,-37.785 l -6.5937,7.832 z" /><path
             id="path142"
             style="fill:#02709f;fill-opacity:1;fill-rule:nonzero;stroke:none"
             d="m 36.7695,223.059 -0.6172,1.902 c 2.1875,19.687 -8.3593,47.629 13.3711,60.914 92.5936,0.426 20.2696,-2.18 112.8396,-1.953 l 5.442,-4.117 c 11.519,1.636 8.648,-57.91 8.648,-57.91 l -8.269,-5.282" /><path
             id="path144"
             style="fill:none;stroke:#ffffff;stroke-width:3.99993992;stroke-linecap:butt;stroke-linejoin:miter;stroke-miterlimit:4;stroke-dasharray:none;stroke-opacity:1"
             d="m 36.7695,223.059 -0.6172,1.902 c 2.1875,19.687 -8.3593,47.629 13.3711,60.914 92.5936,0.426 20.2696,-2.18 112.8396,-1.953 l 5.442,-4.117 c 11.519,1.636 8.648,-57.91 8.648,-57.91 l -8.269,-5.282" /><path
             id="path146"
             style="fill:#02709f;fill-opacity:1;fill-rule:nonzero;stroke:none"
             d="m 27.2773,217.629 c 2.1875,19.687 -9.5117,55.73 12.2149,69.016 92.4878,0.425 26.1211,-0.633 118.6328,-0.411 l 1.965,-1.023 c 11.512,1.629 7.879,-68.336 7.879,-68.336 l -140.6917,0.754" /><path
             id="path148"
             style="fill:none;stroke:#ffffff;stroke-width:3.99993992;stroke-linecap:butt;stroke-linejoin:miter;stroke-miterlimit:4;stroke-dasharray:none;stroke-opacity:1"
             d="m 27.2773,217.629 c 2.1875,19.687 -9.5117,55.73 12.2149,69.016 92.4878,0.425 26.1211,-0.633 118.6328,-0.411 l 1.965,-1.023 c 11.512,1.629 7.879,-68.336 7.879,-68.336 l -140.6917,0.754 z" /><path
             id="path150"
             style="fill:#02709f;fill-opacity:1;fill-rule:nonzero;stroke:none"
             d="m 165.09,447.242 c 0,0 0.332,-1.554 0.808,-2.359 -0.128,-4.219 2.356,-7.871 2.586,-12.012 -1.421,-2.074 -3.125,-3.961 -4.246,-6.238 -3.308,-1.735 -7.168,-1.32 -10.554,-2.715 -3.286,-2.609 -5.239,-6.551 -8.899,-8.762 -4.289,-0.945 -8.722,-0.582 -12.746,-2.519 -2.371,-2.282 -5.43,-3.813 -7.234,-6.699 -4.035,-2.797 -8.86,-2.317 -13.41,-1.723 -2.032,1.305 -4.364,2.07 -6.305,3.519 -4.777,5.055 -9.6798,9.973 -14.8673,14.61 -4.1563,0.078 -8.336,-0.328 -12.4805,0.402 -2.7891,1.336 -4.5195,4.246 -7.625,5.117 -1.7266,4.09 -3.8789,8.016 -3.9453,12.485 -0.4414,0.531 -2.0899,1.465 -1.0938,2.476 15.1953,5.239 7.2071,16.141 9.5625,25.789 7.2071,4.789 0.1641,8.438 3.0235,14.067 5.6562,21.57 31.2499,17.48 48.6639,21.047 5.067,-0.903 10.735,-0.098 12.141,-5.676 -0.227,-0.86 5.672,-1.621 4.695,-2.563 3.566,-4.593 4.481,-1.703 8.445,-6.629 3.633,-5.207 2.414,-7.097 3.391,-9.039 4.902,-6.039 9.922,-9.289 10.625,-17.738 0.332,-4.375 -2.363,-8.18 -3.43,-8.527 2.18,-5.203 5.032,-0.547 2.895,-6.313" /><path
             id="path152"
             style="fill:none;stroke:#ffffff;stroke-width:3.99993992;stroke-linecap:butt;stroke-linejoin:miter;stroke-miterlimit:4;stroke-dasharray:none;stroke-opacity:1"
             d="m 165.09,447.242 c 0,0 0.332,-1.554 0.808,-2.359 -0.128,-4.219 2.356,-7.871 2.586,-12.012 -1.421,-2.074 -3.125,-3.961 -4.246,-6.238 -3.308,-1.735 -7.168,-1.32 -10.554,-2.715 -3.286,-2.609 -5.239,-6.551 -8.899,-8.762 -4.289,-0.945 -8.722,-0.582 -12.746,-2.519 -2.371,-2.282 -5.43,-3.813 -7.234,-6.699 -4.035,-2.797 -8.86,-2.317 -13.41,-1.723 -2.032,1.305 -4.364,2.07 -6.305,3.519 -4.777,5.055 -9.6798,9.973 -14.8673,14.61 -4.1563,0.078 -8.336,-0.328 -12.4805,0.402 -2.7891,1.336 -4.5195,4.246 -7.625,5.117 -1.7266,4.09 -3.8789,8.016 -3.9453,12.485 -0.4414,0.531 -2.0899,1.465 -1.0938,2.476 15.1953,5.239 7.2071,16.141 9.5625,25.789 7.2071,4.789 0.1641,8.438 3.0235,14.067 5.6562,21.57 31.2499,17.48 48.6639,21.047 5.067,-0.903 10.735,-0.098 12.141,-5.676 -0.227,-0.86 5.672,-1.621 4.695,-2.563 3.566,-4.593 4.481,-1.703 8.445,-6.629 3.633,-5.207 2.414,-7.097 3.391,-9.039 4.902,-6.039 9.922,-9.289 10.625,-17.738 0.332,-4.375 -2.363,-8.18 -3.43,-8.527 2.18,-5.203 5.032,-0.547 2.895,-6.313" /><path
             id="path154"
             style="fill:#02709f;fill-opacity:1;fill-rule:nonzero;stroke:none"
             d="m 170.078,399.004 c -0.293,-1.102 -0.93,-1.996 -1.726,-2.789 -4.438,0.379 -2.961,-10.539 -6.848,-8.965 -2.324,-1.203 -4.531,1.074 -6.707,1.457 -1.672,-0.879 -3.567,-1.055 -5.317,-1.723 -2.3,-2.375 -5.378,-3.367 -8.496,-4.382 -11.511,2.918 -21.812,-3.762 -32.918,-5.829 -2.683,0.079 -9.9097,-1.613 -10.7027,1.391 -5.4688,3.34 -6.3672,10.059 -11.4649,13.887 -7.2968,0.664 -14.6015,1.328 -21.9062,1.996 -1.2383,0.469 -2.0195,1.816 -3.5156,1.793 -0.0586,2.648 -0.6836,3.281 -1.4024,5.371 -0.3359,0.719 -2.289,2.289 -0.9375,2.867 1.2383,0.527 1.5625,1.641 -1.3398,3.746 -2.0039,7.102 2.0429,29.18 7.2265,34.446 -0.9961,-1.008 1.7383,0.699 2.1797,0.168 0.0664,-4.469 1.5313,-8.715 3.25,-12.813 3.1055,-0.871 4.8321,-3.781 7.6289,-5.113 4.1485,-0.731 8.3203,-0.328 12.4766,-0.407 5.1875,-4.636 10.0898,-9.554 14.8674,-14.609 1.941,-1.449 4.273,-2.215 6.304,-3.519 4.551,-0.59 9.375,-1.075 13.411,1.722 1.804,2.887 4.863,4.422 7.238,6.699 4.019,1.942 8.457,1.575 12.742,2.52 3.66,2.215 5.613,6.152 8.899,8.762 3.394,1.394 7.246,0.98 10.554,2.715 1.121,2.281 2.821,4.164 4.246,6.238 -0.222,4.14 -2.715,7.801 -2.586,12.019 -0.476,0.805 -1.257,1.235 -2.382,2.055 l 1.574,0.297 c 17.012,-14.852 -1.797,-31.473 6.734,-46.461 l -1.082,-3.539" /><path
             id="path156"
             style="fill:none;stroke:#ffffff;stroke-width:3.99993992;stroke-linecap:butt;stroke-linejoin:miter;stroke-miterlimit:4;stroke-dasharray:none;stroke-opacity:1"
             d="m 170.078,399.004 c -0.293,-1.102 -0.93,-1.996 -1.726,-2.789 -4.438,0.379 -2.961,-10.539 -6.848,-8.965 -2.324,-1.203 -4.531,1.074 -6.707,1.457 -1.672,-0.879 -3.567,-1.055 -5.317,-1.723 -2.3,-2.375 -5.378,-3.367 -8.496,-4.382 -11.511,2.918 -21.812,-3.762 -32.918,-5.829 -2.683,0.079 -9.9097,-1.613 -10.7027,1.391 -5.4688,3.34 -6.3672,10.059 -11.4649,13.887 -7.2968,0.664 -14.6015,1.328 -21.9062,1.996 -1.2383,0.469 -2.0195,1.816 -3.5156,1.793 -0.0586,2.648 -0.6836,3.281 -1.4024,5.371 -0.3359,0.719 -2.289,2.289 -0.9375,2.867 1.2383,0.527 1.5625,1.641 -1.3398,3.746 -2.0039,7.102 2.0429,29.18 7.2265,34.446 -0.9961,-1.008 1.7383,0.699 2.1797,0.168 0.0664,-4.469 1.5313,-8.715 3.25,-12.813 3.1055,-0.871 4.8321,-3.781 7.6289,-5.113 4.1485,-0.731 8.3203,-0.328 12.4766,-0.407 5.1875,-4.636 10.0898,-9.554 14.8674,-14.609 1.941,-1.449 4.273,-2.215 6.304,-3.519 4.551,-0.59 9.375,-1.075 13.411,1.722 1.804,2.887 4.863,4.422 7.238,6.699 4.019,1.942 8.457,1.575 12.742,2.52 3.66,2.215 5.613,6.152 8.899,8.762 3.394,1.394 7.246,0.98 10.554,2.715 1.121,2.281 2.821,4.164 4.246,6.238 -0.222,4.14 -2.715,7.801 -2.586,12.019 -0.476,0.805 -1.257,1.235 -2.382,2.055 l 1.574,0.297 c 17.012,-14.852 -1.797,-31.473 6.734,-46.461 l -1.082,-3.539 z" /><path
             id="path158"
             style="fill:#02709f;fill-opacity:1;fill-rule:nonzero;stroke:none"
             d="m 145.508,48.4883 c -2.488,-0.8711 -9.434,-1.9453 -12.735,-2.4531 -11.796,3.9062 0.911,1.8164 -16.64,4.3359 -4.629,-3.9844 -3.195,-11.6406 -4.832,-17.7148 -0.918,-0.5274 -2.602,0.3515 -3.488,0.0078 -7.8521,16.7109 -12.8833,24.7773 -10.0278,33.4882 5.3988,7.7149 11.6408,-0.8007 11.6408,-0.8007 15.437,-6.1719 22.383,-9.2578 22.383,-9.2578 20.449,4.082 13.511,13.1835 13.511,13.1835 10.032,-1.5429 9.641,-0.8398 9.641,-0.8398 5.398,-3.0859 -9.453,-19.9492 -9.453,-19.9492" /><path
             id="path160"
             style="fill:#02709f;fill-opacity:1;fill-rule:nonzero;stroke:none"
             d="m 98.9648,132.188 c 0.4571,-40.4419 0.7696,-7.872 0.3125,-47.8521 0.6172,-1.2304 -1.082,-3.2421 -2.625,-4.1718 -8.957,-2 -19.7578,2.2382 -20.3046,-6.0118 -0.7696,-5.5585 3.3203,-6.7109 7.332,-6.9453 C 73.8086,59.1797 64.3945,49.1406 54.8242,41.7383 47.8711,33.5547 51.7383,26.3086 51.1133,16.8867 c 2.625,-3.2344 5.4101,-1.5429 9.2695,-0.4609 -0.9297,7.1015 0.9141,12.0312 0.7695,18.2148 12.1875,10.8008 24.3829,21.4532 36.7305,32.2539 0.9258,0.3125 1.3945,-0.4687 2.1562,-0.7734 C 96.4922,47.9102 88.9258,21.2109 91.8633,5 92.3242,3.92578 91.7109,1.91406 93.7109,0.996094 c 2.9414,-0.46875 7.5661,-2.781254 9.2691,0.605466 1.161,10.78124 -2.57,19.22654 2.926,31.49614 -0.613,-0.3164 -0.301,0.3007 0,0 1.699,-5.4024 0.93,-8.4883 0.774,-14.8164 3.398,-0.4688 8.027,-2.3243 10.031,1.8476 1.394,11.4258 -2.316,24.0703 -3.391,38.8945 0.457,1.543 -0.769,2.9297 1.231,4.4727 11.582,-7.5586 22.539,-20.0586 33.957,-28.5547 4.629,-4.6289 2.937,-20.5273 2.937,-20.5273 6.946,-1.543 8.489,-0.7618 8.489,-0.7618 l 1.152,0 c 0,0 3.094,16.9727 -3.859,28.1641 l -30.872,25.5469 c 0.391,0.3789 6.411,0.2265 7.793,0.6055 4.485,1.8554 5.415,6.1835 2.942,10.039 -4.485,0.7735 -7.649,1.2305 -13.66,1.3867 -3.242,-0.2343 -3.325,1.9532 -3.325,8.9571 0.469,37.5074 -0.925,4.0117 0.317,41.9804" /><path
             id="path162"
             style="fill:none;stroke:#ffffff;stroke-width:1.99996996;stroke-linecap:butt;stroke-linejoin:miter;stroke-miterlimit:4;stroke-dasharray:none;stroke-opacity:1"
             d="m 98.9648,132.188 c 0.4571,-40.4419 0.7696,-7.872 0.3125,-47.8521 0.6172,-1.2304 -1.082,-3.2421 -2.625,-4.1718 -8.957,-2 -19.7578,2.2382 -20.3046,-6.0118 -0.7696,-5.5585 3.3203,-6.7109 7.332,-6.9453 C 73.8086,59.1797 64.3945,49.1406 54.8242,41.7383 47.8711,33.5547 51.7383,26.3086 51.1133,16.8867 c 2.625,-3.2344 5.4101,-1.5429 9.2695,-0.4609 -0.9297,7.1015 0.9141,12.0312 0.7695,18.2148 12.1875,10.8008 24.3829,21.4532 36.7305,32.2539 0.9258,0.3125 1.3945,-0.4687 2.1562,-0.7734 C 96.4922,47.9102 88.9258,21.2109 91.8633,5 92.3242,3.92578 91.7109,1.91406 93.7109,0.996094 c 2.9414,-0.46875 7.5661,-2.781254 9.2691,0.605466 1.161,10.78124 -2.57,19.22654 2.926,31.49614 -0.613,-0.3164 -0.301,0.3007 0,0 1.699,-5.4024 0.93,-8.4883 0.774,-14.8164 3.398,-0.4688 8.027,-2.3243 10.031,1.8476 1.394,11.4258 -2.316,24.0703 -3.391,38.8945 0.457,1.543 -0.769,2.9297 1.231,4.4727 11.582,-7.5586 22.539,-20.0586 33.957,-28.5547 4.629,-4.6289 2.937,-20.5273 2.937,-20.5273 6.946,-1.543 8.489,-0.7618 8.489,-0.7618 l 1.152,0 c 0,0 3.094,16.9727 -3.859,28.1641 l -30.872,25.5469 c 0.391,0.3789 6.411,0.2265 7.793,0.6055 4.485,1.8554 5.415,6.1835 2.942,10.039 -4.485,0.7735 -7.649,1.2305 -13.66,1.3867 -3.242,-0.2343 -3.325,1.9532 -3.325,8.9571 0.469,37.5074 -0.925,4.0117 0.317,41.9804" /><path
             id="path164"
             style="fill:#02709f;fill-opacity:1;fill-rule:nonzero;stroke:none"
             d="m 133.496,78.8594 c 2.449,0 4.442,-1.9922 4.442,-4.4453 l 0,-2.3047 c 0,-2.4531 -1.993,-4.4453 -4.442,-4.4453 l -0.969,0 c 0,0 -25.261,-6.1719 -51.1129,0 -2.4571,0 -4.4414,1.9922 -4.4414,4.4453 l 0,2.3047 c 0,2.4531 1.9843,4.4453 4.4414,4.4453 23.1559,-7.7266 52.0819,0 52.0819,0" /><path
             id="path166"
             style="fill:none;stroke:#ffffff;stroke-width:3.99993992;stroke-linecap:butt;stroke-linejoin:miter;stroke-miterlimit:4;stroke-dasharray:none;stroke-opacity:1"
             d="m 133.496,78.8594 c 2.449,0 4.442,-1.9922 4.442,-4.4453 l 0,-2.3047 c 0,-2.4531 -1.993,-4.4453 -4.442,-4.4453 l -0.969,0 c 0,0 -25.261,-6.1719 -51.1129,0 -2.4571,0 -4.4414,1.9922 -4.4414,4.4453 l 0,2.3047 c 0,2.4531 1.9843,4.4453 4.4414,4.4453 23.1559,-7.7266 52.0819,0 52.0819,0 z" /><path
             id="path168"
             style="fill:#02709f;fill-opacity:1;fill-rule:nonzero;stroke:none"
             d="m 87.5391,237.344 c 5.7343,0 10.3711,4.883 10.3711,10.91 0,6.023 -4.6368,10.906 -10.3711,10.906 -5.7227,0 -10.3711,-4.883 -10.3711,-10.906 0,-6.027 4.6484,-10.91 10.3711,-10.91" /><path
             id="path170"
             style="fill:none;stroke:#ffffff;stroke-width:3.99993992;stroke-linecap:butt;stroke-linejoin:miter;stroke-miterlimit:4;stroke-dasharray:none;stroke-opacity:1"
             d="m 87.5391,237.344 c 5.7343,0 10.3711,4.883 10.3711,10.91 0,6.023 -4.6368,10.906 -10.3711,10.906 -5.7227,0 -10.3711,-4.883 -10.3711,-10.906 0,-6.027 4.6484,-10.91 10.3711,-10.91 z" /><path
             id="path172"
             style="fill:#02709f;fill-opacity:1;fill-rule:nonzero;stroke:none"
             d="m 83.6797,236.563 c 5.7266,0 10.3711,4.89 10.3711,10.917 0,6.028 -4.6445,10.918 -10.3711,10.918 -5.7188,0 -10.3711,-4.89 -10.3711,-10.918 0,-6.027 4.6523,-10.917 10.3711,-10.917" /><path
             id="path174"
             style="fill:none;stroke:#ffffff;stroke-width:3.99993992;stroke-linecap:butt;stroke-linejoin:miter;stroke-miterlimit:4;stroke-dasharray:none;stroke-opacity:1"
             d="m 83.6797,236.563 c 5.7266,0 10.3711,4.89 10.3711,10.917 0,6.028 -4.6445,10.918 -10.3711,10.918 -5.7188,0 -10.3711,-4.89 -10.3711,-10.918 0,-6.027 4.6523,-10.917 10.3711,-10.917 z" /><path
             id="path176"
             style="fill:#02709f;fill-opacity:1;fill-rule:nonzero;stroke:none"
             d="M 86.3867,169.152 109.148,168.77" /><path
             id="path178"
             style="fill:none;stroke:#ffffff;stroke-width:3.99993992;stroke-linecap:butt;stroke-linejoin:miter;stroke-miterlimit:4;stroke-dasharray:none;stroke-opacity:1"
             d="M 86.3867,169.152 109.148,168.77" /><path
             id="path180"
             style="fill:#02709f;fill-opacity:1;fill-rule:nonzero;stroke:none"
             d="m 167.598,128.633 c 2.461,0 4.453,1.992 0.769,5.664 l 0,32.793 c 3.684,1.23 1.692,3.223 -0.769,3.223 l -102.0511,0 -5.586,3.085 c -2.4609,0 -30.6836,-2.382 -30.6836,-4.832 l 0,-35.492 c 0,-2.449 1.9844,-4.441 4.4415,-4.441 l 133.8792,0" /><path
             id="path182"
             style="fill:none;stroke:#ffffff;stroke-width:3.99993992;stroke-linecap:butt;stroke-linejoin:miter;stroke-miterlimit:4;stroke-dasharray:none;stroke-opacity:1"
             d="m 167.598,128.633 c 2.461,0 4.453,1.992 0.769,5.664 l 0,32.793 c 3.684,1.23 1.692,3.223 -0.769,3.223 l -102.0511,0 -5.586,3.085 c -2.4609,0 -30.6836,-2.382 -30.6836,-4.832 l 0,-35.492 c 0,-2.449 1.9844,-4.441 4.4415,-4.441 l 133.8792,0 z" /><path
             id="path184"
             style="fill:#02709f;fill-opacity:1;fill-rule:nonzero;stroke:none"
             d="m 37.9688,130.684 c -2.2149,0 -4.004,1.789 -4.004,3.996 l 0,29.5 c 0,2.218 1.7891,4.004 4.004,4.004 l 120.4882,0 c 2.207,0 4.004,-1.786 4.004,-4.004 l 0,-29.5 c 0,-2.207 -1.797,-3.996 -4.004,-3.996 l -120.4882,0" /><path
             id="path186"
             style="fill:none;stroke:#ffffff;stroke-width:3.99993992;stroke-linecap:butt;stroke-linejoin:miter;stroke-miterlimit:4;stroke-dasharray:none;stroke-opacity:1"
             d="m 37.9688,130.684 c -2.2149,0 -4.004,1.789 -4.004,3.996 l 0,29.5 c 0,2.218 1.7891,4.004 4.004,4.004 l 120.4882,0 c 2.207,0 4.004,-1.786 4.004,-4.004 l 0,-29.5 c 0,-2.207 -1.797,-3.996 -4.004,-3.996 l -120.4882,0 z" /><path
             id="path188"
             style="fill:#02709f;fill-opacity:1;fill-rule:nonzero;stroke:none"
             d="m 201.23,163.352 c 2.833,2.586 2.254,6.785 2.254,3.855 l 0,26.231 c 0,2.207 -1.785,3.996 -3.613,2.832 l -27.586,-26.582 c -2.324,-1.973 -3.711,-4.407 -3.711,-6.622 l 0,-24.589 c 0,-2.207 1.785,-3.993 3.992,-3.993 l 28.664,28.868" /><path
             id="path190"
             style="fill:none;stroke:#ffffff;stroke-width:3.99993992;stroke-linecap:butt;stroke-linejoin:miter;stroke-miterlimit:4;stroke-dasharray:none;stroke-opacity:1"
             d="m 201.23,163.352 c 2.833,2.586 2.254,6.785 2.254,3.855 l 0,26.231 c 0,2.207 -1.785,3.996 -3.613,2.832 l -27.586,-26.582 c -2.324,-1.973 -3.711,-4.407 -3.711,-6.622 l 0,-24.589 c 0,-2.207 1.785,-3.993 3.992,-3.993 l 28.664,28.868 z" /><path
             id="path192"
             style="fill:#02709f;fill-opacity:1;fill-rule:nonzero;stroke:none"
             d="m 33.9922,220.957 c 1.9766,17.715 -8.5508,50.16 10.9961,62.117 83.2417,0.387 23.5195,-0.57 106.7697,-0.363 l 1.765,-0.93 c 10.372,1.473 7.09,-61.508 7.09,-61.508 l -126.6208,0.684" /><path
             id="path194"
             style="fill:none;stroke:#ffffff;stroke-width:3.99993992;stroke-linecap:butt;stroke-linejoin:miter;stroke-miterlimit:4;stroke-dasharray:none;stroke-opacity:1"
             d="m 33.9922,220.957 c 1.9766,17.715 -8.5508,50.16 10.9961,62.117 83.2417,0.387 23.5195,-0.57 106.7697,-0.363 l 1.765,-0.93 c 10.372,1.473 7.09,-61.508 7.09,-61.508 l -126.6208,0.684 z" /><path
             id="path196"
             style="fill:#02709f;fill-opacity:1;fill-rule:nonzero;stroke:none"
             d="m 61.6523,176.836 9.8047,-6.113 -37.9804,0 22.0507,13.468 6.125,-7.355" /><path
             id="path198"
             style="fill:none;stroke:#ffffff;stroke-width:3.99993992;stroke-linecap:butt;stroke-linejoin:miter;stroke-miterlimit:4;stroke-dasharray:none;stroke-opacity:1"
             d="m 61.6523,176.836 9.8047,-6.113 -37.9804,0 22.0507,13.468 6.125,-7.355 z" /></g></g></g></g></svg>