<?xml version="1.0" encoding="UTF-8" standalone="no"?>
<svg
   xmlns:dc="http://purl.org/dc/elements/1.1/"
   xmlns:cc="http://creativecommons.org/ns#"
   xmlns:rdf="http://www.w3.org/1999/02/22-rdf-syntax-ns#"
   xmlns:svg="http://www.w3.org/2000/svg"
   xmlns="http://www.w3.org/2000/svg"
   viewBox="0 0 62.200001 91.125"
   height="91.125"
   width="62.200001"
   xml:space="preserve"
   version="1.1"
   id="svg2"><metadata
     id="metadata8"><rdf:RDF><cc:Work
         rdf:about=""><dc:format>image/svg+xml</dc:format><dc:type
           rdf:resource="http://purl.org/dc/dcmitype/StillImage" /></cc:Work></rdf:RDF></metadata><defs
     id="defs6" /><g
     transform="matrix(1.25,0,0,-1.25,0,91.125)"
     id="g10"><g
       transform="scale(0.1,0.1)"
       id="g12"><path
         id="path14"
         style="fill:#02709f;fill-opacity:1;fill-rule:nonzero;stroke:none"
         d="M 298.125,83.4453 287.512,60.1445 c 0,0 0,-10 14.004,-5 l 12,5 13,15 2.117,0.9102 c 0.285,4.4805 0.652,9.0234 1.621,13.5742 1.68,7.9297 -0.969,16.4261 1.523,23.5551 6.309,18.027 12.481,35.761 19.102,53.691 5.168,13.984 -2.356,30.391 3.066,44.199 l -38.789,12.481 C 312.48,182.012 311.934,140.879 309.871,99.5117 306.145,93.8086 302.07,88.5352 297.98,83.3008 l 0.145,0.1445" /><path
         id="path16"
         style="fill:#02709f;fill-opacity:1;fill-rule:nonzero;stroke:none"
         d="m 403.867,86.5039 0,0 0.496,-4.4922 11.008,-14.0039 17.996,-15 12.004,0.9961 c 2.996,8.0078 6.973,10.0117 6.973,10.0117 -7.285,6.8438 -16.375,11.7461 -20.442,21.5 -2.554,6.1446 -4.363,12.9024 -4.148,18.9574 1.367,39.433 5.351,78.3 9.48,117.988 L 395.867,212.5 c -3.523,-1.719 -2.051,-5.676 -2.281,-8.066 -0.91,-9.219 -2.348,-18.496 -0.227,-27.813 1.914,-8.406 5.313,-15.918 6.778,-24.238 3.918,-22.278 5.547,-43.848 3.73,-65.8791" /><path
         id="path18"
         style="fill:#02709f;fill-opacity:1;fill-rule:nonzero;stroke:none"
         d="m 110.918,703.031 c 1.516,-1.863 2.156,-4.394 2.336,-6.101 0.848,-8.035 -2.082,-16.207 -4.973,-23.707 -0.73,-1.918 -0.652,-7.043 -2.949,-5.532 -2.637,1.739 -4.871,5.688 -7.6757,6.672 -3.5157,1.231 -7.2735,-2.355 -10.7813,-4.367 6.4727,-8.719 14.414,-17.617 10.9961,-29 -8.2305,12.188 -16.9141,24.242 -23.0469,37.442 -3.3398,7.187 -2.0429,17.683 2.3164,23.632 6.7071,9.176 16.8321,16.938 28.0234,19.774 15.09,3.836 30.129,6.972 45.703,7.148 -14.031,-7.019 -27.332,-13.777 -40.828,-23.242 -0.723,-0.508 0.188,-1.863 0.879,-2.719" /><path
         id="path20"
         style="fill:#02709f;fill-opacity:1;fill-rule:nonzero;stroke:none"
         d="m 163.984,701.938 c -3.535,-6.883 -6.906,-13.571 -11.113,-19.942 0.274,0.973 -0.234,1.738 -1.023,1.879 -1.993,0.359 -4.614,-0.559 -5.637,0.461 -1.016,1.019 -1.016,4.223 0,5.355 1.152,1.282 4.852,-0.668 5.066,-0.328 6.86,11.028 -5.797,20 -10.41,29.629 10.168,0.211 18.321,-6.543 28,-7.996 -1.992,-2.816 -3.293,-5.969 -4.883,-9.058" /><path
         id="path22"
         style="fill:#000000;fill-opacity:1;fill-rule:nonzero;stroke:none"
         d="m 125.852,682.891 c -1.664,0.316 -4.321,-0.207 -4.465,0.257 -2.91,9.719 10.461,5.157 16.484,7.848 -1.445,-6.371 -5.215,-9.394 -12.019,-8.105" /><path
         id="path24"
         style="fill:#000000;fill-opacity:1;fill-rule:nonzero;stroke:none"
         d="m 142.871,666.996 c -2.336,0 -4.668,0 -7.004,0 2.754,2.375 5.676,4.496 9.004,6 -0.359,-2.117 0.266,-4.066 0.996,-6 -0.996,0 -1.988,0 -2.996,0" /><path
         id="path26"
         style="fill:#000000;fill-opacity:1;fill-rule:nonzero;stroke:none"
         d="m 140.867,654.996 c -4.668,0 -9.324,0 -13.992,0 1.699,1.594 4.348,2.188 6.063,2.387 4.457,0.508 10.351,3.687 13.937,-2.387 -2.004,0 -4.004,0 -6.008,0" /><path
         id="path28"
         style="fill:#000000;fill-opacity:1;fill-rule:nonzero;stroke:none"
         d="m 139.773,650.758 c 3.372,-1.422 -1.414,-1.477 -0.906,-2.762 -2.617,-0.594 -3.445,1.797 -5,3 2,0 4.192,0.484 5.906,-0.238" /><path
         id="path30"
         style="fill:#02709f;fill-opacity:1;fill-rule:nonzero;stroke:none"
         d="M 177.871,36.0078 C 191.074,27.2852 203.926,18.0859 216.875,9.00391 214.949,7.46094 215.574,3.5625 213.867,3.55469 203.242,3.47656 192.598,3.08594 181.98,4.71875 c -9.753,1.49219 -17.91,7.76175 -27.3,10.63285 -1.528,0.4687 -1.7,-4.4532 -2.934,-4.7071 -7.891,-1.56247 -16.336,1.0743 -22.098,5.4024 -4.445,3.3281 0.047,11.9023 -2.96,17.8711 l 51.183,2.0898" /><path
         id="path32"
         style="fill:#02709f;fill-opacity:1;fill-rule:nonzero;stroke:none"
         d="m 126.688,33.918 c -0.133,0.2695 -1.59,0.0664 -1.59,0.0976 -2.95,90.1054 -1.375,179.9684 -4.231,269.9884 C 106.379,216.047 95.0313,130.809 78.0781,40.1563 77.7656,38.5078 71.9453,39.4727 71.4844,36.8945 l -43.6602,0.6953 c 1.6094,2.8985 -1.4453,8.543 -0.9101,13.4063 5.2422,47.9102 11.3476,94.5119 13.7578,142.0699 2.4414,48.36 3.664,96.504 5.9687,144.899 0.4102,8.598 4.2188,17.41 3.4571,25.965 -0.2344,2.73 -4.7266,4.293 -8.2227,5.07 3.332,8.059 4.2969,16.766 7.0039,25 C 34.2266,409.695 18.7813,423.613 5.88672,441.719 1.75,447.527 -0.402344,456.031 0,462.934 2.40234,504.871 12.0039,545.859 11.875,588 c 20.4492,12.898 44.793,15.973 66.5625,25.941 8.0859,3.704 16.4922,8.555 19.4336,18.055 11.1129,-7.777 20.1169,-18.305 32.2849,-24.437 1.121,-0.567 2,2.597 2.715,4.437 0.344,-0.336 0.664,-0.664 0.996,-1 1.113,3.231 1.082,5.582 4.004,8.004 -0.703,0.48 -1.516,1.25 -0.879,1.875 1.875,1.828 2.156,4.383 3.875,6.121 1.828,-3.516 5.156,-6.043 8.254,-7.465 17.258,-7.914 34.793,-14.218 52.539,-21.078 6.309,-2.441 13.313,-6.887 16.016,-12.074 1.972,-3.797 -0.574,-10.563 -1.906,-16.359 -1.559,-6.868 -3.094,-13.551 -3.125,-20.024 -0.165,-29.523 7.96,-58.476 10.226,-88 -12.766,-16.078 -22.285,-34.207 -34.004,-50.996 2.547,-14.195 9.246,-28.012 8.809,-41.961 -0.039,-1.187 -7.766,-2.668 -7.821,-5.066 -0.421,-16.18 2.801,-32.504 1.856,-48.961 -5.356,-93.313 -5.52,-186.157 -13.84,-279.0042 L 126.688,33.918" /><path
         id="path34"
         style="fill:#02709f;fill-opacity:1;fill-rule:nonzero;stroke:none"
         d="M 71.4844,36.8945 C 70.4492,31.0547 74.0508,24.0234 70.9492,19.668 66.7578,13.7773 58.9453,11.25 52.0898,7.59766 49.6758,6.30859 51.0352,0.859375 47.8242,0.507813 34.4805,-0.984375 21.2109,0 7.87109,0 8.19531,6.34766 6.5625,13.5469 9.75781,18.4297 14.6289,25.8398 23.7188,30.1953 27.8242,37.5898 l 43.6602,-0.6953" /><path
         id="path36"
         style="fill:#02709f;fill-opacity:1;fill-rule:nonzero;stroke:none"
         d="m 57.5977,473.992 c -0.2266,11.727 -1.6993,23.414 -3.7188,35.008 -4.6523,-11.223 -6.9062,-23.625 -6.6797,-34.977 0.086,-4.8 6.0156,-10.015 9.6758,-15.023 2.4414,4.863 0.8203,10.031 0.7227,14.992" /><path
         id="path38"
         style="fill:#02709f;fill-opacity:1;fill-rule:nonzero;stroke:none"
         d="m 322.871,595.996 c -3.144,3.399 -9.023,3.438 -9.004,9 3.477,-0.019 6.992,-0.293 10,2 -5.879,2.168 -8.84,7.5 -9.426,13.063 -0.078,0.699 1.289,3.609 2.383,3.504 2.414,-0.215 2.524,-4.305 5.071,-5.516 0.91,-0.43 1.679,0.18 1.875,0.976 0.75,3.102 -0.352,5.997 -0.899,8.977 3.274,-1.051 9.297,-2.316 9.258,0.988 -0.059,4.922 -6.934,10.383 -2.688,14.399 1.211,1.152 6.047,-5.004 6.497,-1.278 0.429,3.551 -4.766,7.762 -4.415,11.832 0.235,2.844 5.75,3.555 6.829,6.258 1.785,4.543 -1.899,10.313 -0.625,14.535 3.765,12.516 11.191,23.563 17.144,35.262 15.371,0.473 21.152,15.473 45.949,2.371 0.645,-0.34 -2.48,0.188 -1.843,-1.324 0.339,-0.813 1.191,-1.785 1.914,-1.844 4.089,-0.324 8.804,0.41 10.547,-3.398 1.265,-2.77 -2.864,-6.113 -1.997,-8.61 1.301,-3.777 8.789,-2.05 9.59,-5.394 1.535,-6.461 -5.957,-12.777 -4.961,-18.594 0.571,-3.262 7.942,-4.691 10.2,-8.558 2.593,-4.473 -0.774,-10.946 3.601,-15.645 1.692,2.031 3.801,3.563 5.996,5 0.606,-3.937 2.188,-7.512 4.004,-11.004 2.559,3.414 5.598,6.453 7.996,10 2.395,-2.039 1.321,-5.703 0.5,-6.484 -4.25,-4.071 -8.34,-9.481 -14.347,-11.086 -0.782,-0.211 -1.258,-0.758 -1.61,-1.453 l -7.004,4 c -0.867,-1.696 4.946,-4.274 2.461,-4.977 L 426.863,629 c 3.633,-3.926 7.91,-1.246 12.004,0 2.102,-6.996 -7.297,-7.906 -8.23,-13.141 -0.492,-2.695 4.5,-1.91 7.234,-0.863 -0.898,-4.961 -5.195,-7.433 -8.008,-10.996" /><path
         id="path40"
         style="fill:#000000;fill-opacity:1;fill-rule:nonzero;stroke:none"
         d="m 452.344,65.0195 c 6.609,-6.2109 10.949,-15.4492 16.828,-22.1289 1.258,-1.4258 -3.067,-4.9023 -5.266,-4.7656 -11.426,0.6641 -21.367,-1.4062 -31.672,2.3906 -8.906,3.293 -9.175,16.0782 -21.367,21.9844 -4.082,-4.0039 -1.465,-9.5234 -3.289,-13.8672 -0.144,-0.3711 -2.312,-0.3125 -2.402,-0.039 -3.875,12.8398 -13.946,28.4648 -1.309,38.9062 l 0.496,-4.4922 11.008,-14.0039 17.996,-15 L 445.371,55 c 2.996,8.0078 6.973,10.0195 6.973,10.0195" /><path
         id="path42"
         style="fill:#02709f;fill-opacity:1;fill-rule:nonzero;stroke:none"
         d="m 353.945,205.586 c 2.118,5.391 10.957,6.211 16.836,5.605 2.61,-0.261 4.602,-6.152 7.157,-6.367 4.855,-0.41 8.773,6.067 13.988,6.66 1.558,0.176 2.847,-2.617 3.941,-4.48 l 16.496,5 14.004,-7.5 8.496,12.5 2.371,-0.039 c 0.11,1.043 3.071,1.765 3.11,2.098 5.64,48.542 7.703,95.324 13.601,143.929 0.868,7.203 -1.609,13.965 -1.074,21.008 2.156,-0.66 3.887,1.332 5.996,1 -0.574,10.844 -4.707,21.113 -5,32.004 14.696,17.715 30,34.328 42.129,54.519 2.18,3.637 3.152,9.508 1.602,14.391 -4.883,15.359 -10.254,29.984 -15.789,45.063 -8.196,22.378 -14.68,44.882 -22.942,67.023 -9.426,3.188 -19.582,2.77 -29.004,6 l -45.5,5.496 -61.492,-13.5 c -13.918,-4.469 -27.512,-9.332 -40,-16.996 -2.449,-21.277 0.176,-42.059 -4.355,-63.926 -2.586,-12.484 -3.965,-23.812 -6.055,-36.179 -0.891,-5.262 -3.137,-10.598 -1.34,-15.805 2.207,-6.367 2.27,-14.008 6.477,-18.399 11.64,-12.148 27.566,-18.644 40.273,-29.691 -1.199,-8.684 -4.211,-16.66 -6.953,-25.016 -1.055,-3.222 3.547,-2.722 3.352,-3.882 -0.989,-5.637 -4.907,-10.957 -5.454,-16.2 -5.371,-50.605 -3.336,-100.527 -0.867,-150.839 0.047,-1.094 7.395,1.875 7.207,-1.016 l 9.715,-9.539 16.496,5 12.5,-9.004" /><path
         id="path44"
         style="fill:#000000;fill-opacity:1;fill-rule:nonzero;stroke:none"
         d="m 415.867,623 c -2.527,3.195 -6.226,5.074 -9.004,7.996 -0.996,-1 -2.675,-2.012 -2.652,-2.988 0.086,-3.668 -1.25,-10.176 2.613,-10 2.446,0.113 0.422,5.683 1.047,8.988 1.133,-2.445 2.031,-5.254 4.199,-6.691 1.77,-1.172 2.129,2.136 3.797,2.695" /><path
         id="path46"
         style="fill:#ffffff;fill-opacity:1;fill-rule:nonzero;stroke:none"
         d="m 404.922,581.152 c -0.652,0.243 -1.082,1.118 -2.051,0.844 0,1.332 -0.461,3.098 0.227,3.774 0.679,0.679 2.437,0.226 3.765,0.226 -0.269,-0.969 0.305,-1.516 1.008,-1.996 2.258,7 0.215,14.066 -0.754,20.891 -0.379,2.668 -6.031,2.539 -7.625,4.586 -3.137,4.031 -4.902,18.535 -0.73,18.234 10.691,-0.781 11.218,20.023 14.297,31.68 1.257,4.765 -1.164,6.464 -3.196,11.605 -1.406,-0.641 -0.633,-2.465 -1.14,-2.715 -2.278,-1.148 -5.696,-2.593 -7.512,-0.914 -1.023,0.934 -1.023,4.348 0,5.246 1.797,1.594 9.602,2.84 9.519,2.602 1.887,5.465 -1.238,9.844 -4.863,14.781 -1.824,-2.801 -3.64,-3.504 -7,-3 2.149,1.84 2.012,7.75 -0.547,6.234 -4.238,-2.5 -3.672,-10.226 -10.449,-10.234 0.156,2.91 0.156,5.762 -2.004,8 -2.168,-3.168 -4.629,-6.711 -7.918,-6.308 -2.148,0.269 -1.433,6.679 -4.609,3.792 -3.66,-3.339 2.707,-7.945 1.355,-12.437 -2.683,-8.953 -2.578,-17.688 -7.578,-26.195 -0.75,-1.274 -0.672,-3.364 -0.039,-4.754 1.008,-2.203 3.117,-3.723 5.793,-3.098 -0.129,-3.871 -4.297,-1.683 -5.851,-4.101 -0.465,-0.743 -0.45,-2.04 0,-2.813 1.859,-3.211 5.48,-3.441 8.847,-3.086 -0.926,-6.027 -7.742,-6.941 -12,-3.996 -0.996,-6.148 2.227,-11.516 7.996,-13.004 -2.683,-3.723 -6.968,-0.664 -9.578,-2.566 -3.406,-2.485 0.82,-7.43 -0.422,-11.434 -0.633,1.414 -2.39,1.301 -2.722,0.817 -2.996,-4.325 0.761,-10.079 1.726,-14.817 0.637,1.418 1.992,1.192 2.961,0.871 1.817,-0.617 0.828,-2.508 1.043,-3.867 -1.004,0 -2.105,0.254 -2.945,-0.129 -2.832,-1.297 1.023,-3.207 -0.063,-4.871 9.485,-5.422 20.278,-8.605 30.91,-7.238 2.813,0.363 6.387,2.043 9.09,4.234 -2.554,1.879 -7.675,0.219 -5.816,4.934 0.828,2.086 3.433,1.343 4.676,0.754 1.55,-0.746 -0.203,-3.036 0.234,-4.664 0.227,-0.79 1.023,-1.504 1.848,-0.926 2.605,1.859 5.672,3.187 6.797,6.011 0.132,0.352 -1.047,1.657 -1.743,1.68 -1.382,0.047 -0.73,-3.453 -2.937,-2.633" /><path
         id="path48"
         style="fill:#000000;fill-opacity:1;fill-rule:nonzero;stroke:none"
         d="m 392.781,667.328 c -0.418,-0.808 -1.304,-1.875 -1.883,-1.793 -4.296,0.594 -8.718,0.274 -11.035,4.746 5.364,1.633 10.879,3.922 15.657,0.516 1.296,-0.918 -1.915,-1.906 -2.739,-3.469" /><path
         id="path50"
         style="fill:#000000;fill-opacity:1;fill-rule:nonzero;stroke:none"
         d="m 406.316,653.199 c -1.128,-3.125 -5,-0.445 -7.949,-1.203 1.836,3.102 3.281,4.406 7.004,5 0.039,-1.726 1.262,-2.918 0.945,-3.797" /><path
         id="path52"
         style="fill:#000000;fill-opacity:1;fill-rule:nonzero;stroke:none"
         d="m 402.59,643.402 c -3.344,-0.379 -6.672,-1.289 -10.051,-0.242 5.195,3.164 11.238,1.633 16.758,3.078 -0.645,-0.57 -1.145,-1.175 -0.75,-2.109 -1.984,-0.242 -3.969,-0.5 -5.957,-0.727" /><path
         id="path54"
         style="fill:#000000;fill-opacity:1;fill-rule:nonzero;stroke:none"
         d="m 392.727,574.219 c -2.063,-1.324 -5.786,0.73 -4.668,3.711 0.515,1.406 1.98,2.773 3.757,1.961 2.215,-1.004 3.25,-4.176 0.911,-5.672" /><path
         id="path56"
         style="fill:#000000;fill-opacity:1;fill-rule:nonzero;stroke:none"
         d="m 383.867,575 c -1.316,-0.598 -1.687,1.582 -3,0.996 0.219,1.367 -0.808,3.34 1.047,3.817 1.262,0.328 3.184,0.957 3.84,-0.86 0.594,-1.672 -0.129,-3.152 -1.887,-3.953" /><path
         id="path58"
         style="fill:#02709f;fill-opacity:1;fill-rule:nonzero;stroke:none"
         d="m 375.859,577.074 c -1.086,-0.16 -2.617,-0.566 -2.851,0.942 -0.203,1.336 -0.938,3.285 0.91,3.82 2.645,0.777 4.988,-1.309 3.809,-3.773 -0.254,-0.54 -1.157,-0.879 -1.868,-0.989" /><path
         id="path60"
         style="fill:#000000;fill-opacity:1;fill-rule:nonzero;stroke:none"
         d="m 369.785,581.16 c -0.847,-0.422 -2.363,-0.625 -2.871,0.852 -0.969,2.773 2.41,3.902 3.723,2.73 0.758,-0.687 0.496,-2.91 -0.852,-3.582" /><path
         id="path62"
         style="fill:#000000;fill-opacity:1;fill-rule:nonzero;stroke:none"
         d="m 402.09,639.18 c -2,-0.11 -3.606,0.547 -5.203,1.492 3.301,0.41 6.609,0.816 9.922,1.226 -1.016,-1.851 -2.524,-2.597 -4.719,-2.718" /><path
         id="path64"
         style="fill:#ffffff;fill-opacity:1;fill-rule:nonzero;stroke:none"
         d="m 87.3711,616.5 14.9999,-45 32.004,-76.004 15,79 -3.008,44 -5.996,6 -10,-18.5 -32.9999,23.5 c 0,-6.496 -10,-12.996 -10,-12.996" /><path
         id="path66"
         style="fill:#02709f;fill-opacity:1;fill-rule:nonzero;stroke:none"
         d="m 126.875,604.996 3.992,-2.5 2.5,3.004 4.004,-5.504 -5,-6.996 7.5,-70 -5.496,-29.5 -14.504,33.496 7.004,66.5 -4.004,5 4.004,6.5" /><path
         id="path68"
         style="fill:#ffffff;fill-opacity:1;fill-rule:nonzero;stroke:none"
         d="m 362.371,579 3.496,-16 38.496,-71.004 13.508,66.004 -9.004,23.5 c -16.504,-21 -46.496,-2.5 -46.496,-2.5" /><path
         id="path70"
         style="fill:#000000;fill-opacity:1;fill-rule:nonzero;stroke:none"
         d="m 326.367,76.0078 -13,-15 -12,-5 c -13.996,-5 -13.996,5 -13.996,5 l 10.609,23.2969 c -5.609,-7.1875 -11.25,-14.3164 -16.078,-22.4102 -4.097,-6.8828 -9.461,-14.3554 -9.312,-22.3828 0.027,-1.3984 3.277,-3.789 6.25,-2.9101 9.031,2.6953 18.601,2.6953 26.64,6.6797 7.176,3.5742 10.262,12.5585 16.383,18.2226 2.356,-2.9961 -0.066,-6.9453 2.004,-10 3.914,8.1836 4.192,16.7656 4.766,25.5469 l -2.266,-1.043" /><path
         id="path72"
         style="fill:#ffffff;fill-opacity:1;fill-rule:nonzero;stroke:none"
         d="m 457.363,527.5 c -10,14 -20,0.5 -20,0.5 -5.5,-8 1.504,-15 1.504,-15 l 0.996,1.496 C 433.867,523 441.367,529 441.367,529 c 7.5,-8 15.996,-1.5 15.996,-1.5" /><path
         id="path74"
         style="fill:#ffffff;fill-opacity:1;fill-rule:nonzero;stroke:none"
         d="m 453.652,546 c 0.032,4.738 -5.73,2.402 -7.785,0 -0.664,1.582 1.36,2.625 0.879,3.957 -0.652,1.809 -2.652,1.242 -3.808,0.836 -2.098,-0.75 -0.731,-3.133 -1.075,-4.793 -3.582,2.328 -7.73,4.555 -8.66,-1.059 -0.586,-3.519 4.793,-1.914 5.664,-4.941 -1.672,-0.344 -4.043,1.023 -4.797,-1.074 -0.41,-1.156 -1.011,-3.274 0.84,-3.742 2.473,-0.629 4.863,0.3 6.953,1.812 -0.269,-3.031 -1.875,-7.469 2.934,-5.801 2.793,0.973 2.078,4.192 2.066,6.805 0.969,-2.176 3.657,-1.469 5,-3 0.989,1.172 1.496,2.559 2.129,3.941 1.738,3.836 -3.308,2.231 -4.129,4.059 2.442,-0.473 3.77,1.109 3.789,3" /></g></g></svg>