<?xml version="1.0" encoding="UTF-8" standalone="no"?>
<svg
   xmlns:dc="http://purl.org/dc/elements/1.1/"
   xmlns:cc="http://creativecommons.org/ns#"
   xmlns:rdf="http://www.w3.org/1999/02/22-rdf-syntax-ns#"
   xmlns:svg="http://www.w3.org/2000/svg"
   xmlns="http://www.w3.org/2000/svg"
   viewBox="0 0 62.5 92.5"
   height="92.5"
   width="62.5"
   xml:space="preserve"
   version="1.1"
   id="svg2"><metadata
     id="metadata8"><rdf:RDF><cc:Work
         rdf:about=""><dc:format>image/svg+xml</dc:format><dc:type
           rdf:resource="http://purl.org/dc/dcmitype/StillImage" /></cc:Work></rdf:RDF></metadata><defs
     id="defs6" /><g
     transform="matrix(1.25,0,0,-1.25,0,92.5)"
     id="g10"><g
       transform="scale(0.1,0.1)"
       id="g12"><path
         id="path14"
         style="fill:#02709f;fill-opacity:1;fill-rule:nonzero;stroke:none"
         d="M 298.16,93.7617 287.578,70.4805 c 0,0 0,-10 13.981,-5 l 11.992,5 13.008,15 2.113,0.8984 c 0.308,4.4922 0.668,9.0195 1.637,13.5625 1.679,7.9296 -0.969,16.4376 1.531,23.5466 6.281,18.051 12.461,35.782 19.101,53.711 5.149,13.992 -2.39,30.391 3.039,44.18 l -38.781,12.5 c -2.66,-41.559 -3.211,-82.688 -5.277,-124.059 -3.711,-5.699 -7.813,-10.9802 -11.871,-16.2106 l 0.109,0.1523" /><path
         id="path16"
         style="fill:#02709f;fill-opacity:1;fill-rule:nonzero;stroke:none"
         d="m 403.91,96.8086 0.5,-4.4883 11.02,-13.9922 17.968,-15 12.032,0.9805 c 2.968,8.0117 6.949,10.043 6.949,10.043 -7.258,6.8398 -16.359,11.7187 -20.43,21.4765 -2.539,6.1409 -4.371,12.8909 -4.14,18.9529 1.371,39.449 5.351,78.321 9.461,118.008 l -41.372,-9.961 c -3.519,-1.719 -2.027,-5.707 -2.269,-8.09 -0.899,-9.218 -2.34,-18.476 -0.231,-27.808 1.911,-8.399 5.313,-15.899 6.801,-24.219 3.903,-22.313 5.539,-43.871 3.711,-65.9024" /><path
         id="path18"
         style="fill:#02709f;fill-opacity:1;fill-rule:nonzero;stroke:none"
         d="m 110.98,713.328 c 1.52,-1.828 2.141,-4.367 2.34,-6.09 0.821,-8.008 -2.109,-16.207 -5,-23.707 -0.699,-1.91 -0.621,-7.031 -2.929,-5.511 -2.661,1.718 -4.879,5.671 -7.6918,6.64 -3.5195,1.25 -7.2695,-2.34 -10.789,-4.332 6.4882,-8.75 14.4178,-17.617 11.0195,-29.027 -8.2383,12.187 -16.9102,24.258 -23.0508,37.461 -3.3594,7.187 -2.0703,17.699 2.3125,23.636 6.7188,9.18 16.8281,16.911 28.0076,19.762 15.11,3.828 30.153,6.961 45.699,7.149 -14.019,-7.028 -27.308,-13.789 -40.82,-23.239 -0.699,-0.511 0.192,-1.879 0.902,-2.742" /><path
         id="path20"
         style="fill:#02709f;fill-opacity:1;fill-rule:nonzero;stroke:none"
         d="m 164.02,712.238 c -3.508,-6.867 -6.911,-13.547 -11.09,-19.918 0.269,0.969 -0.231,1.719 -1.02,1.871 -1.988,0.348 -4.64,-0.543 -5.66,0.469 -1.02,1.02 -1.02,4.219 0,5.352 1.172,1.289 4.84,-0.66 5.078,-0.352 6.871,11.059 -5.777,20 -10.43,29.649 10.192,0.203 18.321,-6.559 28.012,-8.008 -2,-2.813 -3.289,-5.973 -4.89,-9.063" /><path
         id="path22"
         style="fill:#000000;fill-opacity:1;fill-rule:nonzero;stroke:none"
         d="m 125.898,693.219 c -1.679,0.312 -4.339,-0.199 -4.449,0.23 -2.929,9.731 10.461,5.16 16.481,7.852 -1.45,-6.36 -5.231,-9.371 -12.032,-8.082" /><path
         id="path24"
         style="fill:#000000;fill-opacity:1;fill-rule:nonzero;stroke:none"
         d="m 142.93,677.32 -7.032,0 c 2.774,2.379 5.704,4.489 9.024,6.008 -0.352,-2.137 0.277,-4.098 0.976,-6.008 l -2.968,0" /><path
         id="path26"
         style="fill:#000000;fill-opacity:1;fill-rule:nonzero;stroke:none"
         d="m 140.898,665.328 -13.988,0 c 1.719,1.602 4.379,2.184 6.059,2.383 4.492,0.508 10.351,3.668 13.941,-2.383 l -6.012,0" /><path
         id="path28"
         style="fill:#000000;fill-opacity:1;fill-rule:nonzero;stroke:none"
         d="m 139.801,661.07 c 3.398,-1.41 -1.403,-1.492 -0.891,-2.742 -2.621,-0.617 -3.441,1.801 -5,2.973 1.988,0 4.211,0.508 5.891,-0.231" /><path
         id="path30"
         style="fill:#02709f;fill-opacity:1;fill-rule:nonzero;stroke:none"
         d="m 177.93,46.3398 c 13.199,-8.75 26.05,-17.9296 38.98,-27.0312 -1.91,-1.5195 -1.289,-5.4297 -3,-5.4297 -10.629,-0.0781 -21.25,-0.4687 -31.879,1.1719 -9.761,1.4883 -17.929,7.7383 -27.301,10.6289 -1.531,0.4687 -1.679,-4.4609 -2.929,-4.7305 -7.891,-1.5586 -16.332,1.0899 -22.11,5.4297 -4.461,3.3203 0.039,11.8828 -2.972,17.8516 l 51.211,2.1093" /><path
         id="path32"
         style="fill:#02709f;fill-opacity:1;fill-rule:nonzero;stroke:none"
         d="m 126.719,44.2305 c -0.117,0.2812 -1.559,0.0781 -1.559,0.1211 C 122.191,134.43 123.789,224.309 120.898,314.309 106.449,226.379 95.0781,141.148 78.1211,50.4805 77.8086,48.8398 71.9883,49.7813 71.5195,47.1992 l -43.6289,0.6992 c 1.5977,2.8907 -1.4414,8.5625 -0.9414,13.4024 5.2422,47.9292 11.3711,94.5272 13.75,142.0702 2.461,48.359 3.6797,96.527 5.9805,144.918 0.4297,8.602 4.2187,17.391 3.4805,25.941 -0.2383,2.739 -4.7305,4.301 -8.25,5.079 3.3593,8.089 4.3007,16.761 7.039,25 -14.6875,15.703 -30.1211,29.613 -43.00779,47.73 -4.14063,5.789 -6.292973,14.301 -5.9023475,21.223 C 2.46094,515.211 12.0703,556.191 11.9102,598.328 c 20.4687,12.891 44.8086,15.981 66.5703,25.942 8.0781,3.71 16.4804,8.558 19.4492,18.05 11.0903,-7.781 20.1213,-18.32 32.2693,-24.449 1.129,-0.551 1.992,2.609 2.731,4.449 0.351,-0.351 0.66,-0.672 0.98,-1.019 1.129,3.238 1.09,5.59 4.02,8.008 -0.7,0.472 -1.52,1.25 -0.899,1.882 1.879,1.829 2.149,4.368 3.867,6.129 1.832,-3.519 5.153,-6.058 8.282,-7.461 17.269,-7.929 34.769,-14.218 52.539,-21.097 6.293,-2.422 13.32,-6.871 16.011,-12.071 1.961,-3.793 -0.582,-10.543 -1.91,-16.363 -1.558,-6.879 -3.09,-13.558 -3.121,-20 -0.16,-29.539 7.961,-58.476 10.231,-88.008 -12.77,-16.101 -22.309,-34.218 -34.02,-51.019 2.539,-14.18 9.25,-28.012 8.82,-41.949 -0.031,-1.172 -7.769,-2.661 -7.808,-5.043 -0.434,-16.207 2.777,-32.539 1.84,-48.981 C 186.41,232.012 186.25,139.148 177.93,46.3398 l -51.211,-2.1093" /><path
         id="path34"
         style="fill:#02709f;fill-opacity:1;fill-rule:nonzero;stroke:none"
         d="M 71.5195,47.1992 C 70.5117,41.3789 74.1016,34.3516 71.0195,29.9688 66.8008,24.1211 58.9805,21.5781 52.1484,17.8984 49.7305,16.6211 51.0898,11.1914 47.8906,10.8281 34.5313,9.35156 21.25,10.3281 7.92969,10.3281 8.23828,16.6484 6.60156,23.8789 9.80078,28.7617 14.6914,36.1484 23.75,40.5195 27.8906,47.8984 l 43.6289,-0.6992" /><path
         id="path36"
         style="fill:#02709f;fill-opacity:1;fill-rule:nonzero;stroke:none"
         d="m 57.6602,484.309 c -0.2383,11.722 -1.7188,23.402 -3.711,35 -4.6875,-11.207 -6.9179,-23.629 -6.6797,-34.957 0.0703,-4.813 6.0118,-10.043 9.6407,-15.043 2.4687,4.882 0.8203,10.043 0.75,15" /><path
         id="path38"
         style="fill:#02709f;fill-opacity:1;fill-rule:nonzero;stroke:none"
         d="m 322.93,606.301 c -3.16,3.398 -9.02,3.437 -9.02,9.027 3.469,-0.039 6.988,-0.316 10,1.992 -5.859,2.149 -8.832,7.5 -9.422,13.051 -0.078,0.699 1.293,3.629 2.391,3.508 2.422,-0.188 2.531,-4.301 5.07,-5.508 0.903,-0.43 1.68,0.16 1.879,0.981 0.742,3.089 -0.348,5.976 -0.898,8.976 3.281,-1.047 9.3,-2.34 9.261,0.981 -0.082,4.921 -6.961,10.39 -2.703,14.41 1.211,1.14 6.063,-5.028 6.492,-1.278 0.43,3.547 -4.769,7.77 -4.421,11.829 0.242,2.851 5.742,3.558 6.839,6.25 1.801,4.531 -1.918,10.308 -0.628,14.531 3.75,12.5 11.21,23.558 17.152,35.277 15.348,0.461 21.129,15.461 45.937,2.344 0.661,-0.313 -2.461,0.199 -1.839,-1.293 0.359,-0.82 1.21,-1.801 1.921,-1.867 4.098,-0.321 8.789,0.429 10.539,-3.403 1.25,-2.781 -2.851,-6.097 -1.992,-8.597 1.293,-3.793 8.793,-2.071 9.571,-5.391 1.562,-6.48 -5.938,-12.769 -4.957,-18.59 0.589,-3.281 7.968,-4.691 10.238,-8.562 2.57,-4.489 -0.789,-10.969 3.59,-15.66 1.679,2.031 3.789,3.562 5.98,5 0.621,-3.938 2.18,-7.5 4.02,-10.981 2.539,3.402 5.59,6.453 7.968,10 2.422,-2.066 1.332,-5.699 0.512,-6.476 -4.262,-4.102 -8.32,-9.493 -14.34,-11.09 -0.781,-0.242 -1.25,-0.793 -1.601,-1.453 l -7.028,3.98 c -0.863,-1.711 4.957,-4.289 2.457,-4.961 l 1.012,-4.019 c 3.641,-3.911 7.891,-1.25 12,0 2.11,-6.989 -7.308,-7.887 -8.211,-13.118 -0.5,-2.703 4.5,-1.921 7.231,-0.863 -0.899,-4.957 -5.2,-7.457 -8.008,-11.019" /><path
         id="path40"
         style="fill:#000000;fill-opacity:1;fill-rule:nonzero;stroke:none"
         d="m 452.379,75.3281 c 6.601,-6.207 10.98,-15.4297 16.84,-22.1093 1.25,-1.4493 -3.047,-4.9297 -5.27,-4.7696 -11.41,0.6719 -21.371,-1.4101 -31.679,2.3789 -8.911,3.293 -9.149,16.1016 -21.372,22 -4.058,-4.0273 -1.449,-9.539 -3.277,-13.8672 -0.121,-0.3906 -2.312,-0.3125 -2.391,-0.039 -3.859,12.8476 -13.941,28.4765 -1.32,38.9062 l 0.5,-4.5 11.02,-14.0195 17.968,-15 12.032,1.0195 c 2.968,8 6.949,10 6.949,10" /><path
         id="path42"
         style="fill:#02709f;fill-opacity:1;fill-rule:nonzero;stroke:none"
         d="m 353.98,215.91 c 2.11,5.391 10.981,6.211 16.84,5.59 2.621,-0.238 4.61,-6.129 7.149,-6.371 4.883,-0.391 8.793,6.09 14.019,6.68 1.532,0.16 2.813,-2.618 3.91,-4.489 l 16.524,5 13.988,-7.5 8.512,12.5 2.348,-0.039 c 0.109,1.047 3.082,1.758 3.121,2.11 5.629,48.507 7.699,95.308 13.589,143.898 0.86,7.231 -1.601,13.992 -1.05,21.02 2.148,-0.661 3.871,1.332 5.98,1.019 -0.551,10.82 -4.691,21.094 -5,31.992 14.68,17.731 30,34.328 42.141,54.532 2.187,3.628 3.129,9.488 1.609,14.367 -4.89,15.359 -10.281,30 -15.781,45.082 -8.207,22.39 -14.688,44.89 -22.969,67.027 -9.422,3.172 -19.57,2.781 -28.988,5.981 l -45.512,5.511 -61.48,-13.519 c -13.95,-4.449 -27.539,-9.332 -40,-16.992 -2.461,-21.25 0.16,-42.071 -4.379,-63.911 -2.571,-12.5 -3.942,-23.82 -6.051,-36.168 -0.898,-5.269 -3.121,-10.621 -1.328,-15.82 2.187,-6.371 2.269,-14.019 6.488,-18.398 11.641,-12.141 27.539,-18.633 40.27,-29.684 -1.211,-8.707 -4.219,-16.68 -6.95,-25.039 -1.058,-3.211 3.551,-2.699 3.36,-3.867 -1.02,-5.633 -4.93,-10.942 -5.469,-16.211 -5.391,-50.59 -3.32,-100.512 -0.859,-150.82 0.039,-1.102 7.379,1.871 7.187,-1.02 l 9.723,-9.531 16.488,5 12.5,-9.02" /><path
         id="path44"
         style="fill:#000000;fill-opacity:1;fill-rule:nonzero;stroke:none"
         d="m 415.898,633.328 c -2.5,3.172 -6.207,5.043 -8.988,7.973 -1.012,-0.973 -2.691,-1.992 -2.648,-2.973 0.078,-3.668 -1.25,-10.187 2.617,-10 2.461,0.121 0.422,5.672 1.051,8.992 1.129,-2.461 2.031,-5.281 4.179,-6.679 1.801,-1.172 2.153,2.109 3.789,2.687" /><path
         id="path46"
         style="fill:#ffffff;fill-opacity:1;fill-rule:nonzero;stroke:none"
         d="m 404.961,591.461 c -0.621,0.269 -1.051,1.129 -2.031,0.859 0,1.328 -0.469,3.078 0.23,3.789 0.668,0.661 2.43,0.192 3.75,0.192 -0.269,-0.973 0.32,-1.52 1.02,-1.992 2.269,6.992 0.191,14.062 -0.782,20.902 -0.347,2.66 -6.019,2.539 -7.617,4.57 -3.121,4.059 -4.883,18.547 -0.703,18.239 10.66,-0.782 11.211,20.039 14.293,31.679 1.258,4.77 -1.172,6.492 -3.199,11.602 -1.402,-0.621 -0.621,-2.461 -1.133,-2.692 -2.309,-1.168 -5.699,-2.621 -7.539,-0.937 -1.02,0.937 -1.02,4.367 0,5.269 1.801,1.598 9.609,2.821 9.531,2.579 1.879,5.468 -1.25,9.851 -4.883,14.808 -1.796,-2.816 -3.628,-3.519 -6.988,-3.008 2.141,1.828 2.031,7.731 -0.551,6.211 -4.218,-2.5 -3.668,-10.203 -10.429,-10.203 0.16,2.891 0.16,5.75 -2.032,7.973 -2.148,-3.16 -4.609,-6.68 -7.886,-6.289 -2.153,0.277 -1.453,6.679 -4.614,3.789 -3.668,-3.36 2.692,-7.93 1.332,-12.422 -2.66,-8.981 -2.582,-17.688 -7.582,-26.207 -0.738,-1.293 -0.668,-3.363 -0.039,-4.774 1.012,-2.179 3.121,-3.707 5.821,-3.078 -0.16,-3.871 -4.301,-1.679 -5.86,-4.101 -0.468,-0.75 -0.468,-2.028 0,-2.821 1.879,-3.199 5.469,-3.429 8.828,-3.078 -0.898,-6.019 -7.738,-6.949 -11.988,-3.992 -0.98,-6.168 2.219,-11.519 8,-13 -2.691,-3.75 -6.949,-0.668 -9.57,-2.578 -3.391,-2.5 0.82,-7.422 -0.43,-11.449 -0.621,1.449 -2.379,1.328 -2.73,0.82 -2.969,-4.332 0.781,-10.082 1.718,-14.801 0.661,1.399 1.993,1.168 2.973,0.86 1.828,-0.629 0.82,-2.5 1.051,-3.871 -1.012,0 -2.113,0.269 -2.934,-0.118 -2.847,-1.293 1.024,-3.203 -0.078,-4.882 9.5,-5.43 20.281,-8.59 30.899,-7.231 2.812,0.363 6.41,2.043 9.101,4.223 -2.531,1.879 -7.691,0.238 -5.82,4.961 0.82,2.066 3.441,1.328 4.691,0.75 1.52,-0.75 -0.191,-3.051 0.239,-4.653 0.23,-0.82 1.011,-1.531 1.832,-0.937 2.617,1.84 5.668,3.156 6.796,6.019 0.122,0.348 -1.058,1.637 -1.757,1.68 -1.371,0.027 -0.7,-3.48 -2.93,-2.66" /><path
         id="path48"
         style="fill:#000000;fill-opacity:1;fill-rule:nonzero;stroke:none"
         d="m 392.809,677.629 c -0.387,-0.777 -1.289,-1.867 -1.868,-1.758 -4.3,0.59 -8.711,0.277 -11.019,4.731 5.348,1.636 10.859,3.91 15.668,0.507 1.289,-0.898 -1.918,-1.918 -2.781,-3.48" /><path
         id="path50"
         style="fill:#000000;fill-opacity:1;fill-rule:nonzero;stroke:none"
         d="m 406.371,663.531 c -1.141,-3.133 -5,-0.472 -7.973,-1.211 1.832,3.078 3.282,4.41 7.032,5 0.039,-1.718 1.25,-2.929 0.941,-3.789" /><path
         id="path52"
         style="fill:#000000;fill-opacity:1;fill-rule:nonzero;stroke:none"
         d="m 402.66,653.719 c -3.359,-0.391 -6.68,-1.278 -10.082,-0.231 5.192,3.16 11.25,1.641 16.762,3.051 -0.629,-0.551 -1.141,-1.168 -0.75,-2.07 -1.988,-0.278 -3.981,-0.508 -5.93,-0.75" /><path
         id="path54"
         style="fill:#000000;fill-opacity:1;fill-rule:nonzero;stroke:none"
         d="m 392.77,584.539 c -2.071,-1.32 -5.782,0.711 -4.649,3.723 0.508,1.398 1.957,2.769 3.758,1.949 2.18,-1.02 3.242,-4.18 0.891,-5.672" /><path
         id="path56"
         style="fill:#000000;fill-opacity:1;fill-rule:nonzero;stroke:none"
         d="m 383.91,585.328 c -1.289,-0.629 -1.68,1.563 -3.012,0.973 0.231,1.371 -0.777,3.359 1.051,3.828 1.289,0.312 3.211,0.98 3.871,-0.859 0.59,-1.68 -0.16,-3.161 -1.91,-3.942" /><path
         id="path58"
         style="fill:#02709f;fill-opacity:1;fill-rule:nonzero;stroke:none"
         d="m 375.898,587.398 c -1.097,-0.16 -2.617,-0.589 -2.847,0.93 -0.199,1.332 -0.942,3.293 0.929,3.832 2.622,0.781 4.969,-1.332 3.79,-3.789 -0.231,-0.543 -1.168,-0.859 -1.872,-0.973" /><path
         id="path60"
         style="fill:#000000;fill-opacity:1;fill-rule:nonzero;stroke:none"
         d="m 369.84,591.5 c -0.86,-0.43 -2.379,-0.629 -2.891,0.82 -0.969,2.77 2.43,3.899 3.75,2.731 0.75,-0.66 0.473,-2.891 -0.859,-3.551" /><path
         id="path62"
         style="fill:#000000;fill-opacity:1;fill-rule:nonzero;stroke:none"
         d="m 402.148,649.512 c -1.988,-0.121 -3.628,0.539 -5.199,1.476 3.281,0.434 6.602,0.821 9.93,1.211 -1.02,-1.828 -2.539,-2.578 -4.731,-2.687" /><path
         id="path64"
         style="fill:#ffffff;fill-opacity:1;fill-rule:nonzero;stroke:none"
         d="m 87.4219,626.809 15.0001,-45 31.988,-75.981 15,78.992 -3,43.981 -5.98,6.019 -10,-18.519 -33.0081,23.519 c 0,-6.492 -10,-13.011 -10,-13.011" /><path
         id="path66"
         style="fill:#02709f;fill-opacity:1;fill-rule:nonzero;stroke:none"
         d="m 126.91,615.328 3.988,-2.5 2.5,3 4.024,-5.5 -5,-7 7.5,-70 -5.512,-29.527 -14.488,33.519 6.988,66.481 -3.98,5 3.98,6.527" /><path
         id="path68"
         style="fill:#ffffff;fill-opacity:1;fill-rule:nonzero;stroke:none"
         d="m 362.422,589.309 3.476,-15.981 38.512,-71.008 13.52,66.008 -9.02,23.481 c -16.488,-20.981 -46.488,-2.5 -46.488,-2.5" /><path
         id="path70"
         style="fill:#000000;fill-opacity:1;fill-rule:nonzero;stroke:none"
         d="m 326.41,86.3398 -13.012,-15 -11.988,-5 c -13.988,-5 -13.988,5 -13.988,5 l 10.629,23.2813 c -5.629,-7.1797 -11.25,-14.293 -16.102,-22.4219 -4.097,-6.8711 -9.449,-14.3281 -9.289,-22.3789 0,-1.3711 3.238,-3.789 6.25,-2.8906 9.02,2.6914 18.59,2.6914 26.641,6.6797 7.148,3.5508 10.23,12.539 16.359,18.1992 2.352,-2.9688 -0.07,-6.9102 2,-10 3.899,8.2031 4.211,16.8008 4.762,25.5508 l -2.262,-1.0196" /><path
         id="path72"
         style="fill:#ffffff;fill-opacity:1;fill-rule:nonzero;stroke:none"
         d="m 457.422,537.828 c -10,13.981 -20,0.5 -20,0.5 -5.512,-8 1.488,-15 1.488,-15 l 1.012,1.492 c -6.012,8.508 1.488,14.489 1.488,14.489 7.5,-8.008 16.012,-1.481 16.012,-1.481" /><path
         id="path74"
         style="fill:#ffffff;fill-opacity:1;fill-rule:nonzero;stroke:none"
         d="m 453.711,556.301 c 0.039,4.769 -5.742,2.418 -7.813,0 -0.668,1.597 1.372,2.66 0.903,3.988 -0.672,1.789 -2.66,1.211 -3.832,0.82 -2.071,-0.738 -0.699,-3.129 -1.059,-4.808 -3.59,2.347 -7.73,4.57 -8.672,-1.051 -0.578,-3.52 4.813,-1.922 5.672,-4.922 -1.68,-0.359 -4.031,1.012 -4.808,-1.098 -0.391,-1.128 -0.981,-3.281 0.859,-3.71 2.461,-0.661 4.84,0.269 6.949,1.8 -0.269,-3.05 -1.871,-7.461 2.93,-5.82 2.82,0.969 2.07,4.219 2.07,6.828 0.981,-2.18 3.68,-1.476 5,-3 0.981,1.172 1.488,2.543 2.11,3.942 1.761,3.832 -3.282,2.23 -4.098,4.058 2.418,-0.5 3.75,1.102 3.789,2.973" /></g></g></svg>