<svg xmlns="http://www.w3.org/2000/svg" viewBox="0 0 35 37.5" height="37.5" width="35"><defs><clipPath id="a"><path d="M0 10v286h280V10H0z"/></clipPath></defs><g clip-path="url(#a)" transform="matrix(.13 0 0 -.13 0 37.5)"><path d="M5.309 14.57H232.07v230.742H5.309V14.57z" fill="#087fbf"/><path d="M5.309 14.57H232.07v230.742H5.309V14.57z" fill="none" stroke="#fff" stroke-width="4"/><path d="M278.012 291.25l-45.942-45.859H5.078l49.024 45.859h223.91" fill="#087fbf"/><path d="M278.012 291.25l-45.942-45.859H5.078l49.024 45.859h223.91z" fill="none" stroke="#fff" stroke-width="4"/><path d="M278.281 70.16v220.942L232.07 245.16V15.473l46.211 54.687" fill="#087fbf"/><path d="M278.281 70.16v220.942L232.07 245.16V15.473l46.211 54.687z" fill="none" stroke="#fff" stroke-width="4"/><path d="M142.031 71.172L161.02 90.16l-28.559 8.32 9.57-27.308" fill="#fff"/><path d="M144.488 88.71l33.992-34.019" fill="none" stroke="#fff" stroke-width="8" stroke-miterlimit="3.86"/><path d="M38.71 170.352L57.7 189.34l-28.56 8.32 9.57-27.308" fill="#fff"/><path d="M41.172 187.852l33.988-33.981" fill="none" stroke="#fff" stroke-width="8" stroke-miterlimit="3.86"/><path d="M47.422 113.633v26.84l-26.094-14.301 26.094-12.539" fill="#fff"/><path d="M36.762 127.781l48.039-.039" fill="none" stroke="#fff" stroke-width="8" stroke-miterlimit="3.86"/><path d="M142.031 181.293l18.989-18.98-28.559-8.321 9.57 27.301" fill="#fff"/><path d="M144.488 163.75l33.992 34.031" fill="none" stroke="#fff" stroke-width="8" stroke-miterlimit="3.86"/><path d="M38.71 82.152l18.99-18.98-28.56-8.32 9.57 27.3" fill="#fff"/><path d="M41.172 64.61L75.16 98.601" fill="none" stroke="#fff" stroke-width="8" stroke-miterlimit="3.86"/><path d="M74.61 98.402h52.968v56.64H74.61v-56.64z" fill="#087fbf"/><path d="M74.61 98.402h52.968v56.64H74.61v-56.64z" fill="none" stroke="#fff" stroke-width="4"/><path d="M171.09 43.75h43.48v44.922h-43.48V43.75z" fill="#087fbf"/><path d="M171.09 43.75h43.48v44.922h-43.48V43.75z" fill="none" stroke="#fff" stroke-width="4"/><path d="M171.09 164.813h43.48v44.918h-43.48v-44.918z" fill="#087fbf"/><path d="M171.09 164.813h43.48v44.918h-43.48v-44.918z" fill="none" stroke="#fff" stroke-width="4"/></g></svg>