<svg xmlns="http://www.w3.org/2000/svg" viewBox="0 0 50 17.5" height="17.5" width="50"><path d="M.737 15.7h41.645V5.314H.737V15.7z" fill="#02709f"/><path d="M.737 15.7h41.645V5.314H.737V15.7z" fill="none" stroke="#fff" stroke-width=".5"/><path d="M3.433 10.3h7.353V8.922H3.433V10.3z" fill="#02709f"/><path d="M3.433 10.3h7.353V8.923H3.433V10.3z" fill="none" stroke="#fff" stroke-width=".5"/><path d="M12.851 10.3h7.35V8.922h-7.35V10.3z" fill="#02709f"/><path d="M12.851 10.3h7.35V8.923h-7.35V10.3z" fill="none" stroke="#fff" stroke-width=".5"/><path d="M22.27 10.3h7.349V8.922H22.27V10.3z" fill="#02709f"/><path d="M22.27 10.3h7.349V8.923H22.27V10.3z" fill="none" stroke="#fff" stroke-width=".5"/><path d="M31.69 10.3h7.349V8.922H31.69V10.3z" fill="#02709f"/><path d="M31.69 10.3h7.349V8.923H31.69V10.3z" fill="none" stroke="#fff" stroke-width=".5"/><path d="M42.382 5.314H.737L6.885.623h41.85l-6.353 4.691" fill="#02709f"/><path d="M42.382 5.314H.737L6.885.622h41.85l-6.353 4.692z" fill="none" stroke="#fff" stroke-width=".5"/><path d="M42.382 15.7V5.314L48.735.623v9.496L42.382 15.7" fill="#02709f"/><path d="M42.382 15.7V5.314L48.735.622v9.497L42.382 15.7z" fill="none" stroke="#fff" stroke-width=".5"/></svg>