<?xml version="1.0" encoding="UTF-8" standalone="no"?>
<svg
   xmlns:dc="http://purl.org/dc/elements/1.1/"
   xmlns:cc="http://creativecommons.org/ns#"
   xmlns:rdf="http://www.w3.org/1999/02/22-rdf-syntax-ns#"
   xmlns:svg="http://www.w3.org/2000/svg"
   xmlns="http://www.w3.org/2000/svg"
   viewBox="0 0 33.75 41.25"
   height="41.25"
   width="33.75"
   xml:space="preserve"
   version="1.1"
   id="svg2"><metadata
     id="metadata8"><rdf:RDF><cc:Work
         rdf:about=""><dc:format>image/svg+xml</dc:format><dc:type
           rdf:resource="http://purl.org/dc/dcmitype/StillImage" /></cc:Work></rdf:RDF></metadata><defs
     id="defs6" /><g
     transform="matrix(1.25,0,0,-1.25,0,41.25)"
     id="g10"><g
       transform="scale(0.1,0.1)"
       id="g12"><path
         id="path14"
         style="fill:#ffffff;fill-opacity:1;fill-rule:nonzero;stroke:none"
         d="m 42.9688,249.711 -40.98052,0 0,-33.832 36.06252,0.082 4.289,0" /><path
         id="path16"
         style="fill:none;stroke:#0881c1;stroke-width:4;stroke-linecap:butt;stroke-linejoin:miter;stroke-miterlimit:4;stroke-dasharray:none;stroke-opacity:1"
         d="m 42.9688,249.703 -40.98052,0 0,-33.82 36.06252,0.07 4.289,0" /><path
         id="path18"
         style="fill:#ffffff;fill-opacity:1;fill-rule:nonzero;stroke:none"
         d="m 217.34,215.961 4.851,0 c 36.129,0 41.868,-32.5 41.868,-32.5 l 0,33.75 c 0,0 -5.739,32.5 -41.868,32.5 l -7.972,0" /><path
         id="path20"
         style="fill:none;stroke:#0881c1;stroke-width:4;stroke-linecap:butt;stroke-linejoin:miter;stroke-miterlimit:4;stroke-dasharray:none;stroke-opacity:1"
         d="m 217.34,215.953 4.851,0 c 36.129,0 41.868,-32.5 41.868,-32.5 l 0,33.75 c 0,0 -5.739,32.5 -41.868,32.5 l -7.972,0" /><path
         id="path22"
         style="fill:#0881c1;fill-opacity:1;fill-rule:nonzero;stroke:none"
         d="m 36.5195,15.6406 161.641,0 0,281.84 -161.641,0 0,-281.84 z" /><path
         id="path24"
         style="fill:none;stroke:#ffffff;stroke-width:4;stroke-linecap:butt;stroke-linejoin:miter;stroke-miterlimit:4;stroke-dasharray:none;stroke-opacity:1"
         d="m 36.5195,15.6445 161.641,0 0,281.84 -161.641,0 0,-281.84 z" /><path
         id="path26"
         style="fill:#0881c1;fill-opacity:1;fill-rule:nonzero;stroke:none"
         d="m 36.5195,297.48 30.8594,25.079 155.8591,0 -25.078,-25.079 -161.6405,0" /><path
         id="path28"
         style="fill:none;stroke:#ffffff;stroke-width:4;stroke-linecap:butt;stroke-linejoin:miter;stroke-miterlimit:4;stroke-dasharray:none;stroke-opacity:1"
         d="m 36.5195,297.484 30.8594,25.079 155.8591,0 -25.078,-25.079 -161.6405,0 z" /><path
         id="path30"
         style="fill:#0881c1;fill-opacity:1;fill-rule:nonzero;stroke:none"
         d="m 198.16,15.6484 25.078,30.8633 0,276.0473 -25.078,-25.079 0,-281.8316" /><path
         id="path32"
         style="fill:none;stroke:#ffffff;stroke-width:4;stroke-linecap:butt;stroke-linejoin:miter;stroke-miterlimit:4;stroke-dasharray:none;stroke-opacity:1"
         d="m 198.16,15.6445 25.078,30.8594 0,276.0591 -25.078,-25.079 0,-281.8395 z" /><path
         id="path34"
         style="fill:#ffffff;fill-opacity:1;fill-rule:nonzero;stroke:none"
         d="m 264.059,219.078 0,-40 c -3.899,-47.5 -88.118,-45 -88.118,-45 l 0,-34.9999 -55,54.9999 55,55 0,-35 c 0,0 85.618,-2.5 88.118,45" /><path
         id="path36"
         style="fill:none;stroke:#0881c1;stroke-width:4;stroke-linecap:butt;stroke-linejoin:miter;stroke-miterlimit:4;stroke-dasharray:none;stroke-opacity:1"
         d="m 264.059,219.082 0,-40 c -3.899,-47.5 -88.118,-45 -88.118,-45 l 0,-35 -55,55 55,55 0,-35 c 0,0 85.618,-2.5 88.118,45" /><path
         id="path38"
         style="fill:#ffffff;fill-opacity:1;fill-rule:nonzero;stroke:none"
         d="m 64.7305,242.828 -9.2617,-8.976 0.0429,42.457 42.4571,0 -9.379,-9.61 -1.789,-1.91 63.1992,-63.09 -20.621,-20.66 -63.1681,63.16 -1.4804,-1.371" /><path
         id="path40"
         style="fill:#ffffff;fill-opacity:1;fill-rule:nonzero;stroke:none"
         d="m 64.7305,65.3711 -9.2617,8.9883 0.0429,-42.5 42.4571,0 -9.379,9.6523 -1.789,1.9102 L 150,106.512 129.379,127.129 66.2109,64.0117 64.7305,65.3711" /></g></g></svg>