<?xml version="1.0" encoding="UTF-8" standalone="no"?>
<svg
   xmlns:dc="http://purl.org/dc/elements/1.1/"
   xmlns:cc="http://creativecommons.org/ns#"
   xmlns:rdf="http://www.w3.org/1999/02/22-rdf-syntax-ns#"
   xmlns:svg="http://www.w3.org/2000/svg"
   xmlns="http://www.w3.org/2000/svg"
   viewBox="0 0 33.262501 39.674999"
   height="39.674999"
   width="33.262501"
   xml:space="preserve"
   version="1.1"
   id="svg2"><metadata
     id="metadata8"><rdf:RDF><cc:Work
         rdf:about=""><dc:format>image/svg+xml</dc:format><dc:type
           rdf:resource="http://purl.org/dc/dcmitype/StillImage" /></cc:Work></rdf:RDF></metadata><defs
     id="defs6" /><g
     transform="matrix(1.25,0,0,-1.25,0,39.675)"
     id="g10"><g
       transform="scale(0.1,0.1)"
       id="g12"><path
         id="path14"
         style="fill:#ffffff;fill-opacity:1;fill-rule:nonzero;stroke:none"
         d="m 42.9766,239.727 -40.97269,0 0,-33.836 36.06249,0.086 4.2852,0" /><path
         id="path16"
         style="fill:none;stroke:#0881c1;stroke-width:4;stroke-linecap:butt;stroke-linejoin:miter;stroke-miterlimit:4;stroke-dasharray:none;stroke-opacity:1"
         d="m 42.9766,239.727 -40.97269,0 0,-33.836 36.06249,0.086 4.2852,0" /><path
         id="path18"
         style="fill:#ffffff;fill-opacity:1;fill-rule:nonzero;stroke:none"
         d="m 217.352,205.977 4.828,0 c 36.14,0 41.894,-32.5 41.894,-32.5 l 0,33.75 c 0,0 -5.742,32.5 -41.894,32.5 l -7.953,0" /><path
         id="path20"
         style="fill:none;stroke:#0881c1;stroke-width:4;stroke-linecap:butt;stroke-linejoin:miter;stroke-miterlimit:4;stroke-dasharray:none;stroke-opacity:1"
         d="m 217.352,205.977 4.828,0 c 36.14,0 41.894,-32.5 41.894,-32.5 l 0,33.75 c 0,0 -5.742,32.5 -41.894,32.5 l -7.953,0" /><path
         id="path22"
         style="fill:#0881c1;fill-opacity:1;fill-rule:nonzero;stroke:none"
         d="m 36.5234,5.63672 161.629,0 0,281.844 -161.629,0 0,-281.844 z" /><path
         id="path24"
         style="fill:none;stroke:#ffffff;stroke-width:4;stroke-linecap:butt;stroke-linejoin:miter;stroke-miterlimit:4;stroke-dasharray:none;stroke-opacity:1"
         d="m 36.5234,5.63672 161.629,0 0,281.844 -161.629,0 0,-281.844 z" /><path
         id="path26"
         style="fill:#0881c1;fill-opacity:1;fill-rule:nonzero;stroke:none"
         d="m 36.5234,287.48 30.8789,25.098 155.8397,0 -25.09,-25.098 -161.6286,0" /><path
         id="path28"
         style="fill:none;stroke:#ffffff;stroke-width:4;stroke-linecap:butt;stroke-linejoin:miter;stroke-miterlimit:4;stroke-dasharray:none;stroke-opacity:1"
         d="m 36.5234,287.48 30.8789,25.098 155.8397,0 -25.09,-25.098 -161.6286,0 z" /><path
         id="path30"
         style="fill:#0881c1;fill-opacity:1;fill-rule:nonzero;stroke:none"
         d="m 198.152,5.63672 25.09,30.87888 0,276.0624 -25.09,-25.098 0,-281.84328" /><path
         id="path32"
         style="fill:none;stroke:#ffffff;stroke-width:4;stroke-linecap:butt;stroke-linejoin:miter;stroke-miterlimit:4;stroke-dasharray:none;stroke-opacity:1"
         d="m 198.152,5.63672 25.09,30.87888 0,276.0624 -25.09,-25.098 0,-281.84328 z" /><path
         id="path34"
         style="fill:#ffffff;fill-opacity:1;fill-rule:nonzero;stroke:none"
         d="m 264.074,209.102 0,-40 c -3.929,-47.5 -88.144,-45 -88.144,-45 l 0,-35.0004 -55,55.0004 55,55 0,-35 c 0,0 85.644,-2.5 88.144,45" /><path
         id="path36"
         style="fill:none;stroke:#0881c1;stroke-width:4;stroke-linecap:butt;stroke-linejoin:miter;stroke-miterlimit:4;stroke-dasharray:none;stroke-opacity:1"
         d="m 264.074,209.102 0,-40 c -3.929,-47.5 -88.144,-45 -88.144,-45 l 0,-35.0004 -55,55.0004 55,55 0,-35 c 0,0 85.644,-2.5 88.144,45" /><path
         id="path38"
         style="fill:#ffffff;fill-opacity:1;fill-rule:nonzero;stroke:none"
         d="m 64.7266,232.832 -9.2383,-8.984 0.0117,42.468 42.4688,0 -9.375,-9.617 -1.8047,-1.914 L 150,191.691 129.367,171.055 66.2227,234.211 64.7266,232.832" /><path
         id="path40"
         style="fill:#ffffff;fill-opacity:1;fill-rule:nonzero;stroke:none"
         d="M 64.7266,55.3711 55.4883,64.3555 55.5,21.875 l 42.4688,0 -9.375,9.6289 L 86.7891,33.418 150,96.5156 129.367,117.148 66.2227,53.9922 64.7266,55.3711" /></g></g></svg>