<svg xmlns="http://www.w3.org/2000/svg" viewBox="0 0 40 50" height="50" width="40"><path d="M39.116 38.195V3.288L30.723 11.7v36.366l8.393-9.872" fill="#02709f"/><path d="M39.116 38.195V3.288L30.723 11.7v36.366l8.393-9.872z" fill="none" stroke="#fff" stroke-width=".5"/><path d="M.4 48.069h30.323V11.7H.4V48.07z" fill="#02709f"/><path d="M.4 48.069h30.323V11.7H.4V48.07z" fill="none" stroke="#fff" stroke-width=".5"/><path d="M30.723 11.701l8.393-8.413-4.165-2.97H5.958L.4 11.702h30.323" fill="#02709f"/><path d="M30.723 11.701l8.393-8.413-4.165-2.97H5.958L.4 11.702h30.323z" fill="none" stroke="#fff" stroke-width=".5"/><path d="M6.792 25.3v3.174h3.18" fill="#02709f"/><path d="M6.792 25.3v3.174h3.18M6.46 28.474h3.511" fill="none" stroke="#fff" stroke-width=".5"/><path d="M2.364 25.3v3.174h3.174" fill="#02709f"/><path d="M2.364 25.3v3.174h3.174M2.031 28.474h3.507" fill="none" stroke="#fff" stroke-width=".5"/><path d="M2.364 19.211v3.174h3.174" fill="#02709f"/><path d="M2.364 19.21v3.175h3.174M2.031 22.385h3.507" fill="none" stroke="#fff" stroke-width=".5"/><path d="M6.792 13.118v3.173h3.18" fill="#02709f"/><path d="M6.792 13.118v3.173h3.18M6.46 16.291h3.511" fill="none" stroke="#fff" stroke-width=".5"/><path d="M2.364 13.118v3.173h3.174" fill="#02709f"/><path d="M2.364 13.118v3.173h3.174M2.031 16.291h3.507" fill="none" stroke="#fff" stroke-width=".5"/><path d="M11.949 25.3v3.174h3.178" fill="#02709f"/><path d="M11.949 25.3v3.174h3.178M11.616 28.474h3.511" fill="none" stroke="#fff" stroke-width=".5"/><path d="M11.949 19.211v3.174h3.178" fill="#02709f"/><path d="M11.949 19.21v3.175h3.178M11.616 22.385h3.511" fill="none" stroke="#fff" stroke-width=".5"/><path d="M11.949 13.118v3.173h3.178" fill="#02709f"/><path d="M11.949 13.118v3.173h3.178M11.616 16.291h3.511" fill="none" stroke="#fff" stroke-width=".5"/><path d="M21.168 25.3v3.174h3.178" fill="#02709f"/><path d="M21.168 25.3v3.174h3.178M20.835 28.474h3.511" fill="none" stroke="#fff" stroke-width=".5"/><path d="M16.739 25.3v3.174h3.174" fill="#02709f"/><path d="M16.739 25.3v3.174h3.174M16.406 28.474h3.507" fill="none" stroke="#fff" stroke-width=".5"/><path d="M16.739 19.211v3.174h3.174" fill="#02709f"/><path d="M16.739 19.21v3.175h3.174M16.406 22.385h3.507" fill="none" stroke="#fff" stroke-width=".5"/><path d="M21.168 13.118v3.173h3.178" fill="#02709f"/><path d="M21.168 13.118v3.173h3.178M20.835 16.291h3.511" fill="none" stroke="#fff" stroke-width=".5"/><path d="M16.739 13.118v3.173h3.174" fill="#02709f"/><path d="M16.739 13.118v3.173h3.174M16.406 16.291h3.507" fill="none" stroke="#fff" stroke-width=".5"/><path d="M26.324 25.3v3.174h3.178" fill="#02709f"/><path d="M26.324 25.3v3.174h3.178M25.991 28.474h3.512" fill="none" stroke="#fff" stroke-width=".5"/><path d="M26.324 19.211v3.174h3.178" fill="#02709f"/><path d="M26.324 19.21v3.175h3.178M25.991 22.385h3.512" fill="none" stroke="#fff" stroke-width=".5"/><path d="M26.324 13.118v3.173h3.178" fill="#02709f"/><path d="M26.324 13.118v3.173h3.178M25.991 16.291h3.512" fill="none" stroke="#fff" stroke-width=".5"/><path d="M37.431 7.898v3.604l-2.026 1.874" fill="#02709f"/><path d="M37.431 7.898v3.604l-2.026 1.874" fill="none" stroke="#fff" stroke-width=".5"/><path d="M37.431 20.398v3.604l-2.026 1.87" fill="#02709f"/><path d="M37.431 20.398v3.604l-2.026 1.87" fill="none" stroke="#fff" stroke-width=".5"/><path d="M34.038 23.293V26.9l-2.022 1.87" fill="#02709f"/><path d="M34.038 23.293V26.9l-2.022 1.87" fill="none" stroke="#fff" stroke-width=".5"/><path d="M34.038 10.797v3.604l-2.022 1.87" fill="#02709f"/><path d="M34.038 10.797v3.604l-2.022 1.87" fill="none" stroke="#fff" stroke-width=".5"/><path d="M35.41.319L30.712 11.7" fill="#02709f"/><path d="M35.41.319L30.712 11.7" fill="none" stroke="#fff" stroke-width=".5"/></svg>