<svg xmlns="http://www.w3.org/2000/svg" viewBox="0 0 55 31.25" height="31.25" width="55"><path d="M.708 11.362L13.33 1.158h40.786L43.668 11.362H.708" fill="#087fbf"/><path d="M.708 11.363L13.33 1.158h40.786L43.668 11.363H.708z" fill="none" stroke="#fff" stroke-width=".5"/><path d="M43.667 29.39l10.45-10.649V1.172l-10.45 10.19V29.39" fill="#087fbf"/><path d="M43.667 29.39l10.45-10.65V1.173l-10.45 10.19V29.39z" fill="none" stroke="#fff" stroke-width=".5"/><path d="M.748 29.4h42.92V11.362H.747V29.4z" fill="#087fbf"/><path d="M.748 29.4h42.92V11.363H.747V29.4z" fill="none" stroke="#fff" stroke-width=".5"/><path d="M31.152 17.945c0 1.729-3.603 3.13-8.047 3.13-4.442 0-8.046-1.401-8.046-3.13v4.585c0 1.729 3.604 3.13 8.046 3.13 4.444 0 8.047-1.401 8.047-3.13v-4.585" fill="#087fbf"/><path d="M31.152 17.945c0 1.728-3.603 3.13-8.047 3.13-4.442 0-8.046-1.402-8.046-3.13v4.585c0 1.728 3.604 3.13 8.046 3.13 4.444 0 8.047-1.402 8.047-3.13v-4.585z" fill="none" stroke="#fff" stroke-width=".5"/><path d="M23.105 21.075c4.444 0 8.047-1.401 8.047-3.13 0-1.729-3.603-3.13-8.047-3.13-4.442 0-8.046 1.401-8.046 3.13 0 1.729 3.604 3.13 8.046 3.13" fill="#087fbf"/><path d="M23.105 21.075c4.444 0 8.047-1.402 8.047-3.13 0-1.729-3.603-3.13-8.047-3.13-4.442 0-8.046 1.401-8.046 3.13 0 1.728 3.604 3.13 8.046 3.13z" fill="none" stroke="#fff" stroke-width=".5"/><path d="M10.708 14.961H.938" fill="none" stroke="#fff" stroke-width="1"/><path d="M14.209 14.961l-5.933 2.423 1.407-2.423-1.407-2.421 5.933 2.421" fill="#fff"/><path d="M10.708 20.21H.938" fill="none" stroke="#fff" stroke-width="1"/><path d="M14.209 20.21l-5.933 2.422 1.407-2.422-1.407-2.421 5.933 2.421" fill="#fff"/><path d="M40.136 20.21h-4.55" fill="none" stroke="#fff" stroke-width="1"/><path d="M42.94 20.21l-4.746 1.939 1.122-1.939-1.122-1.938 4.746 1.938" fill="#fff"/><path d="M10.708 25.459H.938" fill="none" stroke="#fff" stroke-width="1"/><path d="M14.209 25.46l-5.933 2.421 1.407-2.421-1.407-2.422 5.933 2.422M36.563 18.316l-1.128 1.938 1.127 1.938-4.746-1.938 4.747-1.938" fill="#fff"/></svg>