<?xml version="1.0" encoding="UTF-8" standalone="no"?>
<svg
   xmlns:dc="http://purl.org/dc/elements/1.1/"
   xmlns:cc="http://creativecommons.org/ns#"
   xmlns:rdf="http://www.w3.org/1999/02/22-rdf-syntax-ns#"
   xmlns:svg="http://www.w3.org/2000/svg"
   xmlns="http://www.w3.org/2000/svg"
   viewBox="0 0 55 31.25"
   height="31.25"
   width="55"
   xml:space="preserve"
   version="1.1"
   id="svg2"><metadata
     id="metadata8"><rdf:RDF><cc:Work
         rdf:about=""><dc:format>image/svg+xml</dc:format><dc:type
           rdf:resource="http://purl.org/dc/dcmitype/StillImage" /></cc:Work></rdf:RDF></metadata><defs
     id="defs6" /><g
     transform="matrix(1.25,0,0,-1.25,0,31.25)"
     id="g10"><g
       transform="scale(0.1,0.1)"
       id="g12"><path
         id="path14"
         style="fill:#087fbf;fill-opacity:1;fill-rule:nonzero;stroke:none"
         d="m 5.66016,159.102 100.98084,81.636 326.289,0 -83.59,-81.636 -343.67984,0" /><path
         id="path16"
         style="fill:none;stroke:#ffffff;stroke-width:4;stroke-linecap:butt;stroke-linejoin:miter;stroke-miterlimit:4;stroke-dasharray:none;stroke-opacity:1"
         d="m 5.66016,159.098 100.98084,81.64 326.289,0 -83.59,-81.64 -343.67984,0 z" /><path
         id="path18"
         style="fill:#087fbf;fill-opacity:1;fill-rule:nonzero;stroke:none"
         d="m 349.34,14.8789 83.59,85.1911 0,140.551 -83.59,-81.519 0,-144.2231" /><path
         id="path20"
         style="fill:none;stroke:#ffffff;stroke-width:4;stroke-linecap:butt;stroke-linejoin:miter;stroke-miterlimit:4;stroke-dasharray:none;stroke-opacity:1"
         d="m 349.34,14.8789 83.59,85.1991 0,140.539 -83.59,-81.519 0,-144.2191 z" /><path
         id="path22"
         style="fill:#087fbf;fill-opacity:1;fill-rule:nonzero;stroke:none"
         d="m 5.98047,14.8008 343.359,0 0,144.301 -343.359,0 0,-144.301 z" /><path
         id="path24"
         style="fill:none;stroke:#ffffff;stroke-width:4;stroke-linecap:butt;stroke-linejoin:miter;stroke-miterlimit:4;stroke-dasharray:none;stroke-opacity:1"
         d="m 5.98047,14.7969 343.359,0 0,144.301 -343.359,0 0,-144.301 z" /><path
         id="path26"
         style="fill:#087fbf;fill-opacity:1;fill-rule:nonzero;stroke:none"
         d="m 249.219,106.441 c 0,-13.8316 -28.828,-25.0426 -64.379,-25.0426 -35.539,0 -64.371,11.211 -64.371,25.0426 l 0,-36.6793 c 0,-13.832 28.832,-25.0429 64.371,-25.0429 35.551,0 64.379,11.2109 64.379,25.0429 l 0,36.6793" /><path
         id="path28"
         style="fill:none;stroke:#ffffff;stroke-width:4;stroke-linecap:butt;stroke-linejoin:miter;stroke-miterlimit:4;stroke-dasharray:none;stroke-opacity:1"
         d="m 249.219,106.438 c 0,-13.8208 -28.828,-25.0396 -64.379,-25.0396 -35.539,0 -64.371,11.2188 -64.371,25.0396 l 0,-36.6802 c 0,-13.8203 28.832,-25.0312 64.371,-25.0312 35.551,0 64.379,11.2109 64.379,25.0312 l 0,36.6802 z" /><path
         id="path30"
         style="fill:#087fbf;fill-opacity:1;fill-rule:nonzero;stroke:none"
         d="m 184.84,81.3984 c 35.551,0 64.379,11.211 64.379,25.0426 0,13.829 -28.828,25.039 -64.379,25.039 -35.539,0 -64.371,-11.21 -64.371,-25.039 0,-13.8316 28.832,-25.0426 64.371,-25.0426" /><path
         id="path32"
         style="fill:none;stroke:#ffffff;stroke-width:4;stroke-linecap:butt;stroke-linejoin:miter;stroke-miterlimit:4;stroke-dasharray:none;stroke-opacity:1"
         d="m 184.84,81.3984 c 35.551,0 64.379,11.2188 64.379,25.0396 0,13.832 -28.828,25.039 -64.379,25.039 -35.539,0 -64.371,-11.207 -64.371,-25.039 0,-13.8208 28.832,-25.0396 64.371,-25.0396 z" /><path
         id="path34"
         style="fill:none;stroke:#ffffff;stroke-width:8;stroke-linecap:butt;stroke-linejoin:miter;stroke-miterlimit:4;stroke-dasharray:none;stroke-opacity:1"
         d="m 85.6602,130.309 -78.1602,0" /><path
         id="path36"
         style="fill:#ffffff;fill-opacity:1;fill-rule:nonzero;stroke:none"
         d="m 113.672,130.309 -47.4611,-19.379 11.25,19.379 -11.25,19.371 47.4611,-19.371" /><path
         id="path38"
         style="fill:none;stroke:#ffffff;stroke-width:8;stroke-linecap:butt;stroke-linejoin:miter;stroke-miterlimit:4;stroke-dasharray:none;stroke-opacity:1"
         d="m 85.6602,88.3164 -78.1602,0" /><path
         id="path40"
         style="fill:#ffffff;fill-opacity:1;fill-rule:nonzero;stroke:none"
         d="M 113.672,88.3203 66.2109,68.9414 77.4609,88.3203 66.2109,107.691 113.672,88.3203" /><path
         id="path42"
         style="fill:none;stroke:#ffffff;stroke-width:8;stroke-linecap:butt;stroke-linejoin:miter;stroke-miterlimit:4;stroke-dasharray:none;stroke-opacity:1"
         d="m 321.09,88.3164 -36.399,0" /><path
         id="path44"
         style="fill:#ffffff;fill-opacity:1;fill-rule:nonzero;stroke:none"
         d="m 343.52,88.3203 -37.969,-15.5117 8.98,15.5117 -8.98,15.4997 37.969,-15.4997" /><path
         id="path46"
         style="fill:none;stroke:#ffffff;stroke-width:8;stroke-linecap:butt;stroke-linejoin:miter;stroke-miterlimit:4;stroke-dasharray:none;stroke-opacity:1"
         d="m 85.6602,46.3281 -78.1602,0" /><path
         id="path48"
         style="fill:#ffffff;fill-opacity:1;fill-rule:nonzero;stroke:none"
         d="M 113.672,46.3203 66.2109,26.9492 77.4609,46.3203 66.2109,65.6992 113.672,46.3203" /><path
         id="path50"
         style="fill:#ffffff;fill-opacity:1;fill-rule:nonzero;stroke:none"
         d="M 292.5,103.469 283.48,87.9688 292.5,72.4609 254.531,87.9688 292.5,103.469" /></g></g></svg>