<?xml version="1.0" encoding="UTF-8" standalone="no"?>
<svg
   xmlns:dc="http://purl.org/dc/elements/1.1/"
   xmlns:cc="http://creativecommons.org/ns#"
   xmlns:rdf="http://www.w3.org/1999/02/22-rdf-syntax-ns#"
   xmlns:svg="http://www.w3.org/2000/svg"
   xmlns="http://www.w3.org/2000/svg"
   viewBox="0 0 45.049999 49.724998"
   height="49.724998"
   width="45.049999"
   xml:space="preserve"
   version="1.1"
   id="svg2"><metadata
     id="metadata8"><rdf:RDF><cc:Work
         rdf:about=""><dc:format>image/svg+xml</dc:format><dc:type
           rdf:resource="http://purl.org/dc/dcmitype/StillImage" /></cc:Work></rdf:RDF></metadata><defs
     id="defs6" /><g
     transform="matrix(1.25,0,0,-1.25,0,49.725)"
     id="g10"><g
       transform="scale(0.1,0.1)"
       id="g12"><path
         id="path14"
         style="fill:#2c6aa2;fill-opacity:1;fill-rule:nonzero;stroke:none"
         d="M 289.246,5.95703 288.906,330.355 7.44531,330.586 7.26953,5.86719 289.246,5.95703" /><path
         id="path16"
         style="fill:none;stroke:#ffffff;stroke-width:5.03733015;stroke-linecap:butt;stroke-linejoin:miter;stroke-miterlimit:4;stroke-dasharray:none;stroke-opacity:1"
         d="M 289.246,5.95703 288.906,330.355 7.44531,330.586 7.26953,5.86719 289.246,5.95703 Z" /><path
         id="path18"
         style="fill:#2c6aa2;fill-opacity:1;fill-rule:nonzero;stroke:none"
         d="m 288.906,330.355 -281.46069,0.231 84.47269,64.449 265.934,0 0,-322.535 -68.606,-66.54297 -0.34,324.39797 0,0" /><path
         id="path20"
         style="fill:none;stroke:#ffffff;stroke-width:5.03733015;stroke-linecap:butt;stroke-linejoin:miter;stroke-miterlimit:4;stroke-dasharray:none;stroke-opacity:1"
         d="m 288.906,330.355 -281.46069,0.231 84.47269,64.449 265.934,0 0,-322.535 -68.606,-66.54297 -0.34,324.39797 0,0 z" /><path
         id="path22"
         style="fill:#2c6aa2;fill-opacity:1;fill-rule:nonzero;stroke:none"
         d="m 288.906,330.355 69.551,65.567" /><path
         id="path24"
         style="fill:none;stroke:#ffffff;stroke-width:5.03733015;stroke-linecap:butt;stroke-linejoin:miter;stroke-miterlimit:4;stroke-dasharray:none;stroke-opacity:1"
         d="m 288.906,330.355 69.551,65.567" /><path
         id="path26"
         style="fill:#2c6aa2;fill-opacity:1;fill-rule:nonzero;stroke:none"
         d="m 27.1289,69.375 48.1875,0 0,79.5898 -48.1875,0 0,-79.5898 z" /><path
         id="path28"
         style="fill:none;stroke:#ffffff;stroke-width:3.72127008;stroke-linecap:round;stroke-linejoin:round;stroke-miterlimit:4;stroke-dasharray:none;stroke-opacity:1"
         d="m 75.3164,148.965 -48.1875,0 0,-79.59 48.1875,0" /><path
         id="path30"
         style="fill:#2c6aa2;fill-opacity:1;fill-rule:nonzero;stroke:none"
         d="m 75.3164,69.375 26.6366,14.7461 0,79.5899 -48.2147,0 -26.6094,-14.746 48.1875,0 0,-79.59" /><path
         id="path32"
         style="fill:none;stroke:#ffffff;stroke-width:3.72127008;stroke-linecap:round;stroke-linejoin:round;stroke-miterlimit:4;stroke-dasharray:none;stroke-opacity:1"
         d="m 75.3164,69.375 26.6366,14.7461 0,79.5899 -48.2147,0 -26.6094,-14.746 48.1875,0 0,-79.59 z" /><path
         id="path34"
         style="fill:#2c6aa2;fill-opacity:1;fill-rule:nonzero;stroke:none"
         d="m 75.3164,148.965 26.6366,14.746" /><path
         id="path36"
         style="fill:none;stroke:#ffffff;stroke-width:3.72127008;stroke-linecap:round;stroke-linejoin:round;stroke-miterlimit:4;stroke-dasharray:none;stroke-opacity:1"
         d="m 75.3164,148.965 26.6366,14.746" /><path
         id="path38"
         style="fill:#2c6aa2;fill-opacity:1;fill-rule:nonzero;stroke:none"
         d="m 75.3164,69.375 98.2539,0 0,178.168 -98.2539,0 0,-178.168 z" /><path
         id="path40"
         style="fill:none;stroke:#ffffff;stroke-width:3.72127008;stroke-linecap:round;stroke-linejoin:round;stroke-miterlimit:4;stroke-dasharray:none;stroke-opacity:1"
         d="m 173.57,247.543 -98.2536,0 0,-178.168 98.2536,0" /><path
         id="path42"
         style="fill:#2c6aa2;fill-opacity:1;fill-rule:nonzero;stroke:none"
         d="m 173.57,69.375 39.965,22.0898 0,178.2032 -98.262,0 -39.9566,-22.125 98.2536,0 0,-178.168" /><path
         id="path44"
         style="fill:none;stroke:#ffffff;stroke-width:3.72127008;stroke-linecap:round;stroke-linejoin:round;stroke-miterlimit:4;stroke-dasharray:none;stroke-opacity:1"
         d="m 173.57,69.375 39.965,22.0898 0,178.2032 -98.262,0 -39.9566,-22.125 98.2536,0 0,-178.168 z" /><path
         id="path46"
         style="fill:#2c6aa2;fill-opacity:1;fill-rule:nonzero;stroke:none"
         d="m 173.57,247.543 39.965,22.125" /><path
         id="path48"
         style="fill:none;stroke:#ffffff;stroke-width:3.72127008;stroke-linecap:round;stroke-linejoin:round;stroke-miterlimit:4;stroke-dasharray:none;stroke-opacity:1"
         d="m 173.57,247.543 39.965,22.125" /><path
         id="path50"
         style="fill:#2c6aa2;fill-opacity:1;fill-rule:nonzero;stroke:none"
         d="m 174.41,69.375 53.2539,0 0,150.152 -53.2539,0 0,-150.152 z" /><path
         id="path52"
         style="fill:none;stroke:#ffffff;stroke-width:3.72127008;stroke-linecap:round;stroke-linejoin:round;stroke-miterlimit:4;stroke-dasharray:none;stroke-opacity:1"
         d="m 227.664,219.527 -53.254,0 0,-150.152 53.254,0" /><path
         id="path54"
         style="fill:#2c6aa2;fill-opacity:1;fill-rule:nonzero;stroke:none"
         d="m 227.664,69.375 39.094,21.6016 0,150.1564 -53.242,0 -39.106,-21.606 53.254,0 0,-150.152" /><path
         id="path56"
         style="fill:none;stroke:#ffffff;stroke-width:3.72127008;stroke-linecap:round;stroke-linejoin:round;stroke-miterlimit:4;stroke-dasharray:none;stroke-opacity:1"
         d="m 227.664,69.375 39.094,21.6016 0,150.1564 -53.242,0 -39.106,-21.606 53.254,0 0,-150.152 z" /><path
         id="path58"
         style="fill:#2c6aa2;fill-opacity:1;fill-rule:nonzero;stroke:none"
         d="m 227.664,219.527 39.094,21.606" /><path
         id="path60"
         style="fill:none;stroke:#ffffff;stroke-width:3.72127008;stroke-linecap:round;stroke-linejoin:round;stroke-miterlimit:4;stroke-dasharray:none;stroke-opacity:1"
         d="m 227.664,219.527 39.094,21.606" /><path
         id="path62"
         style="fill:#2c6aa2;fill-opacity:1;fill-rule:nonzero;stroke:none"
         d="m 126.492,174.414 0,-8.32 15.035,0" /><path
         id="path64"
         style="fill:none;stroke:#ffffff;stroke-width:3.72127008;stroke-linecap:round;stroke-linejoin:round;stroke-miterlimit:4;stroke-dasharray:none;stroke-opacity:1"
         d="m 126.492,174.414 0,-8.32 15.035,0" /><path
         id="path66"
         style="fill:#2c6aa2;fill-opacity:1;fill-rule:nonzero;stroke:none"
         d="m 147.473,174.414 0,-8.32 15.004,0" /><path
         id="path68"
         style="fill:none;stroke:#ffffff;stroke-width:3.72127008;stroke-linecap:round;stroke-linejoin:round;stroke-miterlimit:4;stroke-dasharray:none;stroke-opacity:1"
         d="m 147.473,174.414 0,-8.32 15.004,0" /><path
         id="path70"
         style="fill:#2c6aa2;fill-opacity:1;fill-rule:nonzero;stroke:none"
         d="m 84.3594,174.191 0,-8.312 15.039,0" /><path
         id="path72"
         style="fill:none;stroke:#ffffff;stroke-width:3.72127008;stroke-linecap:round;stroke-linejoin:round;stroke-miterlimit:4;stroke-dasharray:none;stroke-opacity:1"
         d="m 84.3594,174.191 0,-8.312 15.039,0" /><path
         id="path74"
         style="fill:#2c6aa2;fill-opacity:1;fill-rule:nonzero;stroke:none"
         d="m 105.336,174.191 0,-8.312 15.023,0" /><path
         id="path76"
         style="fill:none;stroke:#ffffff;stroke-width:3.72127008;stroke-linecap:round;stroke-linejoin:round;stroke-miterlimit:4;stroke-dasharray:none;stroke-opacity:1"
         d="m 105.336,174.191 0,-8.312 15.023,0" /><path
         id="path78"
         style="fill:#2c6aa2;fill-opacity:1;fill-rule:nonzero;stroke:none"
         d="m 126.313,157.109 0,-8.3 15.039,0" /><path
         id="path80"
         style="fill:none;stroke:#ffffff;stroke-width:3.72127008;stroke-linecap:round;stroke-linejoin:round;stroke-miterlimit:4;stroke-dasharray:none;stroke-opacity:1"
         d="m 126.313,157.109 0,-8.3 15.039,0" /><path
         id="path82"
         style="fill:#2c6aa2;fill-opacity:1;fill-rule:nonzero;stroke:none"
         d="m 147.266,157.109 0,-8.3 15.015,0" /><path
         id="path84"
         style="fill:none;stroke:#ffffff;stroke-width:3.72127008;stroke-linecap:round;stroke-linejoin:round;stroke-miterlimit:4;stroke-dasharray:none;stroke-opacity:1"
         d="m 147.266,157.109 0,-8.3 15.015,0" /><path
         id="path86"
         style="fill:#2c6aa2;fill-opacity:1;fill-rule:nonzero;stroke:none"
         d="m 84.2031,156.895 0,-8.329 15,0" /><path
         id="path88"
         style="fill:none;stroke:#ffffff;stroke-width:3.72127008;stroke-linecap:round;stroke-linejoin:round;stroke-miterlimit:4;stroke-dasharray:none;stroke-opacity:1"
         d="m 84.2031,156.895 0,-8.329 15,0" /><path
         id="path90"
         style="fill:#2c6aa2;fill-opacity:1;fill-rule:nonzero;stroke:none"
         d="m 105.129,156.895 0,-8.329 15.059,0" /><path
         id="path92"
         style="fill:none;stroke:#ffffff;stroke-width:3.72127008;stroke-linecap:round;stroke-linejoin:round;stroke-miterlimit:4;stroke-dasharray:none;stroke-opacity:1"
         d="m 105.129,156.895 0,-8.329 15.059,0" /><path
         id="path94"
         style="fill:#2c6aa2;fill-opacity:1;fill-rule:nonzero;stroke:none"
         d="m 126.313,140.527 0,-8.32 15.039,0" /><path
         id="path96"
         style="fill:none;stroke:#ffffff;stroke-width:3.72127008;stroke-linecap:round;stroke-linejoin:round;stroke-miterlimit:4;stroke-dasharray:none;stroke-opacity:1"
         d="m 126.313,140.527 0,-8.32 15.039,0" /><path
         id="path98"
         style="fill:#2c6aa2;fill-opacity:1;fill-rule:nonzero;stroke:none"
         d="m 147.266,140.527 0,-8.32 15.015,0" /><path
         id="path100"
         style="fill:none;stroke:#ffffff;stroke-width:3.72127008;stroke-linecap:round;stroke-linejoin:round;stroke-miterlimit:4;stroke-dasharray:none;stroke-opacity:1"
         d="m 147.266,140.527 0,-8.32 15.015,0" /><path
         id="path102"
         style="fill:#2c6aa2;fill-opacity:1;fill-rule:nonzero;stroke:none"
         d="m 84.2031,140.313 0,-8.321 15,0" /><path
         id="path104"
         style="fill:none;stroke:#ffffff;stroke-width:3.72127008;stroke-linecap:round;stroke-linejoin:round;stroke-miterlimit:4;stroke-dasharray:none;stroke-opacity:1"
         d="m 84.2031,140.313 0,-8.321 15,0" /><path
         id="path106"
         style="fill:#2c6aa2;fill-opacity:1;fill-rule:nonzero;stroke:none"
         d="m 105.129,140.313 0,-8.321 15.059,0" /><path
         id="path108"
         style="fill:none;stroke:#ffffff;stroke-width:3.72127008;stroke-linecap:round;stroke-linejoin:round;stroke-miterlimit:4;stroke-dasharray:none;stroke-opacity:1"
         d="m 105.129,140.313 0,-8.321 15.059,0" /><path
         id="path110"
         style="fill:#2c6aa2;fill-opacity:1;fill-rule:nonzero;stroke:none"
         d="m 126.313,125.195 0,-8.332 15.039,0" /><path
         id="path112"
         style="fill:none;stroke:#ffffff;stroke-width:3.72127008;stroke-linecap:round;stroke-linejoin:round;stroke-miterlimit:4;stroke-dasharray:none;stroke-opacity:1"
         d="m 126.313,125.195 0,-8.332 15.039,0" /><path
         id="path114"
         style="fill:#2c6aa2;fill-opacity:1;fill-rule:nonzero;stroke:none"
         d="m 147.266,125.195 0,-8.332 15.015,0" /><path
         id="path116"
         style="fill:none;stroke:#ffffff;stroke-width:3.72127008;stroke-linecap:round;stroke-linejoin:round;stroke-miterlimit:4;stroke-dasharray:none;stroke-opacity:1"
         d="m 147.266,125.195 0,-8.332 15.015,0" /><path
         id="path118"
         style="fill:#2c6aa2;fill-opacity:1;fill-rule:nonzero;stroke:none"
         d="m 84.2031,124.988 0,-8.328 15,0" /><path
         id="path120"
         style="fill:none;stroke:#ffffff;stroke-width:3.72127008;stroke-linecap:round;stroke-linejoin:round;stroke-miterlimit:4;stroke-dasharray:none;stroke-opacity:1"
         d="m 84.2031,124.988 0,-8.328 15,0" /><path
         id="path122"
         style="fill:#2c6aa2;fill-opacity:1;fill-rule:nonzero;stroke:none"
         d="m 105.129,124.988 0,-8.328 15.059,0" /><path
         id="path124"
         style="fill:none;stroke:#ffffff;stroke-width:3.72127008;stroke-linecap:round;stroke-linejoin:round;stroke-miterlimit:4;stroke-dasharray:none;stroke-opacity:1"
         d="m 105.129,124.988 0,-8.328 15.059,0" /><path
         id="path126"
         style="fill:#2c6aa2;fill-opacity:1;fill-rule:nonzero;stroke:none"
         d="m 184.336,212.516 0,-8.34 15,0" /><path
         id="path128"
         style="fill:none;stroke:#ffffff;stroke-width:3.72127008;stroke-linecap:round;stroke-linejoin:round;stroke-miterlimit:4;stroke-dasharray:none;stroke-opacity:1"
         d="m 184.336,212.516 0,-8.34 15,0" /><path
         id="path130"
         style="fill:#2c6aa2;fill-opacity:1;fill-rule:nonzero;stroke:none"
         d="m 205.273,212.516 0,-8.34 15.047,0" /><path
         id="path132"
         style="fill:none;stroke:#ffffff;stroke-width:3.72127008;stroke-linecap:round;stroke-linejoin:round;stroke-miterlimit:4;stroke-dasharray:none;stroke-opacity:1"
         d="m 205.273,212.516 0,-8.34 15.047,0" /><path
         id="path134"
         style="fill:#2c6aa2;fill-opacity:1;fill-rule:nonzero;stroke:none"
         d="m 184.098,196.848 0,-8.293 15.004,0" /><path
         id="path136"
         style="fill:none;stroke:#ffffff;stroke-width:3.72127008;stroke-linecap:round;stroke-linejoin:round;stroke-miterlimit:4;stroke-dasharray:none;stroke-opacity:1"
         d="m 184.098,196.848 0,-8.293 15.004,0" /><path
         id="path138"
         style="fill:#2c6aa2;fill-opacity:1;fill-rule:nonzero;stroke:none"
         d="m 205.039,196.848 0,-8.293 15,0" /><path
         id="path140"
         style="fill:none;stroke:#ffffff;stroke-width:3.72127008;stroke-linecap:round;stroke-linejoin:round;stroke-miterlimit:4;stroke-dasharray:none;stroke-opacity:1"
         d="m 205.039,196.848 0,-8.293 15,0" /><path
         id="path142"
         style="fill:#2c6aa2;fill-opacity:1;fill-rule:nonzero;stroke:none"
         d="m 184.098,182.793 0,-8.301 15.004,0" /><path
         id="path144"
         style="fill:none;stroke:#ffffff;stroke-width:3.72127008;stroke-linecap:round;stroke-linejoin:round;stroke-miterlimit:4;stroke-dasharray:none;stroke-opacity:1"
         d="m 184.098,182.793 0,-8.301 15.004,0" /><path
         id="path146"
         style="fill:#2c6aa2;fill-opacity:1;fill-rule:nonzero;stroke:none"
         d="m 205.039,182.793 0,-8.301 15,0" /><path
         id="path148"
         style="fill:none;stroke:#ffffff;stroke-width:3.72127008;stroke-linecap:round;stroke-linejoin:round;stroke-miterlimit:4;stroke-dasharray:none;stroke-opacity:1"
         d="m 205.039,182.793 0,-8.301 15,0" /><path
         id="path150"
         style="fill:#2c6aa2;fill-opacity:1;fill-rule:nonzero;stroke:none"
         d="m 34.0859,142.207 0,-8.301 15.0235,0" /><path
         id="path152"
         style="fill:none;stroke:#ffffff;stroke-width:3.72127008;stroke-linecap:round;stroke-linejoin:round;stroke-miterlimit:4;stroke-dasharray:none;stroke-opacity:1"
         d="m 34.0859,142.207 0,-8.301 15.0235,0" /><path
         id="path154"
         style="fill:#2c6aa2;fill-opacity:1;fill-rule:nonzero;stroke:none"
         d="m 55.043,142.207 0,-8.301 15.039,0" /><path
         id="path156"
         style="fill:none;stroke:#ffffff;stroke-width:3.72127008;stroke-linecap:round;stroke-linejoin:round;stroke-miterlimit:4;stroke-dasharray:none;stroke-opacity:1"
         d="m 55.043,142.207 0,-8.301 15.039,0" /><path
         id="path158"
         style="fill:#2c6aa2;fill-opacity:1;fill-rule:nonzero;stroke:none"
         d="m 35.2148,126.602 0,-8.36 15.0391,0" /><path
         id="path160"
         style="fill:none;stroke:#ffffff;stroke-width:3.72127008;stroke-linecap:round;stroke-linejoin:round;stroke-miterlimit:4;stroke-dasharray:none;stroke-opacity:1"
         d="m 35.2148,126.602 0,-8.36 15.0391,0" /><path
         id="path162"
         style="fill:#2c6aa2;fill-opacity:1;fill-rule:nonzero;stroke:none"
         d="m 56.1602,126.602 0,-8.36 15.0429,0" /><path
         id="path164"
         style="fill:none;stroke:#ffffff;stroke-width:3.72127008;stroke-linecap:round;stroke-linejoin:round;stroke-miterlimit:4;stroke-dasharray:none;stroke-opacity:1"
         d="m 56.1602,126.602 0,-8.36 15.0429,0" /><path
         id="path166"
         style="fill:#2c6aa2;fill-opacity:1;fill-rule:nonzero;stroke:none"
         d="m 35.2148,112.5 0,-8.289 15.0391,0" /><path
         id="path168"
         style="fill:none;stroke:#ffffff;stroke-width:3.72127008;stroke-linecap:round;stroke-linejoin:round;stroke-miterlimit:4;stroke-dasharray:none;stroke-opacity:1"
         d="m 35.2148,112.5 0,-8.289 15.0391,0" /><path
         id="path170"
         style="fill:#2c6aa2;fill-opacity:1;fill-rule:nonzero;stroke:none"
         d="m 56.1602,112.5 0,-8.289 15.0429,0" /><path
         id="path172"
         style="fill:none;stroke:#ffffff;stroke-width:3.72127008;stroke-linecap:round;stroke-linejoin:round;stroke-miterlimit:4;stroke-dasharray:none;stroke-opacity:1"
         d="m 56.1602,112.5 0,-8.289 15.0429,0" /><path
         id="path174"
         style="fill:#2c6aa2;fill-opacity:1;fill-rule:nonzero;stroke:none"
         d="m 126.91,238.695 0,-8.32 15.024,0" /><path
         id="path176"
         style="fill:none;stroke:#ffffff;stroke-width:3.72127008;stroke-linecap:round;stroke-linejoin:round;stroke-miterlimit:4;stroke-dasharray:none;stroke-opacity:1"
         d="m 126.91,238.695 0,-8.32 15.024,0" /><path
         id="path178"
         style="fill:#2c6aa2;fill-opacity:1;fill-rule:nonzero;stroke:none"
         d="m 147.871,238.695 0,-8.32 15.02,0" /><path
         id="path180"
         style="fill:none;stroke:#ffffff;stroke-width:3.72127008;stroke-linecap:round;stroke-linejoin:round;stroke-miterlimit:4;stroke-dasharray:none;stroke-opacity:1"
         d="m 147.871,238.695 0,-8.32 15.02,0" /><path
         id="path182"
         style="fill:#2c6aa2;fill-opacity:1;fill-rule:nonzero;stroke:none"
         d="m 84.7891,238.461 0,-8.32 14.9961,0" /><path
         id="path184"
         style="fill:none;stroke:#ffffff;stroke-width:3.72127008;stroke-linecap:round;stroke-linejoin:round;stroke-miterlimit:4;stroke-dasharray:none;stroke-opacity:1"
         d="m 84.7891,238.461 0,-8.32 14.9961,0" /><path
         id="path186"
         style="fill:#2c6aa2;fill-opacity:1;fill-rule:nonzero;stroke:none"
         d="m 105.707,238.461 0,-8.32 15.035,0" /><path
         id="path188"
         style="fill:none;stroke:#ffffff;stroke-width:3.72127008;stroke-linecap:round;stroke-linejoin:round;stroke-miterlimit:4;stroke-dasharray:none;stroke-opacity:1"
         d="m 105.707,238.461 0,-8.32 15.035,0" /><path
         id="path190"
         style="fill:#2c6aa2;fill-opacity:1;fill-rule:nonzero;stroke:none"
         d="m 126.715,221.379 0,-8.332 15.039,0" /><path
         id="path192"
         style="fill:none;stroke:#ffffff;stroke-width:3.72127008;stroke-linecap:round;stroke-linejoin:round;stroke-miterlimit:4;stroke-dasharray:none;stroke-opacity:1"
         d="m 126.715,221.379 0,-8.332 15.039,0" /><path
         id="path194"
         style="fill:#2c6aa2;fill-opacity:1;fill-rule:nonzero;stroke:none"
         d="m 147.688,221.379 0,-8.332 15,0" /><path
         id="path196"
         style="fill:none;stroke:#ffffff;stroke-width:3.72127008;stroke-linecap:round;stroke-linejoin:round;stroke-miterlimit:4;stroke-dasharray:none;stroke-opacity:1"
         d="m 147.688,221.379 0,-8.332 15,0" /><path
         id="path198"
         style="fill:#2c6aa2;fill-opacity:1;fill-rule:nonzero;stroke:none"
         d="m 84.625,221.156 0,-8.312 15.0156,0" /><path
         id="path200"
         style="fill:none;stroke:#ffffff;stroke-width:3.72127008;stroke-linecap:round;stroke-linejoin:round;stroke-miterlimit:4;stroke-dasharray:none;stroke-opacity:1"
         d="m 84.625,221.156 0,-8.312 15.0156,0" /><path
         id="path202"
         style="fill:#2c6aa2;fill-opacity:1;fill-rule:nonzero;stroke:none"
         d="m 105.582,221.156 0,-8.312 15.004,0" /><path
         id="path204"
         style="fill:none;stroke:#ffffff;stroke-width:3.72127008;stroke-linecap:round;stroke-linejoin:round;stroke-miterlimit:4;stroke-dasharray:none;stroke-opacity:1"
         d="m 105.582,221.156 0,-8.312 15.004,0" /><path
         id="path206"
         style="fill:#2c6aa2;fill-opacity:1;fill-rule:nonzero;stroke:none"
         d="m 126.715,204.82 0,-8.34 15.039,0" /><path
         id="path208"
         style="fill:none;stroke:#ffffff;stroke-width:3.72127008;stroke-linecap:round;stroke-linejoin:round;stroke-miterlimit:4;stroke-dasharray:none;stroke-opacity:1"
         d="m 126.715,204.82 0,-8.34 15.039,0" /><path
         id="path210"
         style="fill:#2c6aa2;fill-opacity:1;fill-rule:nonzero;stroke:none"
         d="m 147.688,204.82 0,-8.34 15,0" /><path
         id="path212"
         style="fill:none;stroke:#ffffff;stroke-width:3.72127008;stroke-linecap:round;stroke-linejoin:round;stroke-miterlimit:4;stroke-dasharray:none;stroke-opacity:1"
         d="m 147.688,204.82 0,-8.34 15,0" /><path
         id="path214"
         style="fill:#2c6aa2;fill-opacity:1;fill-rule:nonzero;stroke:none"
         d="m 84.625,204.574 0,-8.304 15.0156,0" /><path
         id="path216"
         style="fill:none;stroke:#ffffff;stroke-width:3.72127008;stroke-linecap:round;stroke-linejoin:round;stroke-miterlimit:4;stroke-dasharray:none;stroke-opacity:1"
         d="m 84.625,204.574 0,-8.304 15.0156,0" /><path
         id="path218"
         style="fill:#2c6aa2;fill-opacity:1;fill-rule:nonzero;stroke:none"
         d="m 105.582,204.574 0,-8.304 15.004,0" /><path
         id="path220"
         style="fill:none;stroke:#ffffff;stroke-width:3.72127008;stroke-linecap:round;stroke-linejoin:round;stroke-miterlimit:4;stroke-dasharray:none;stroke-opacity:1"
         d="m 105.582,204.574 0,-8.304 15.004,0" /><path
         id="path222"
         style="fill:#2c6aa2;fill-opacity:1;fill-rule:nonzero;stroke:none"
         d="m 126.715,189.473 0,-8.321 15.039,0" /><path
         id="path224"
         style="fill:none;stroke:#ffffff;stroke-width:3.72127008;stroke-linecap:round;stroke-linejoin:round;stroke-miterlimit:4;stroke-dasharray:none;stroke-opacity:1"
         d="m 126.715,189.473 0,-8.321 15.039,0" /><path
         id="path226"
         style="fill:#2c6aa2;fill-opacity:1;fill-rule:nonzero;stroke:none"
         d="m 147.688,189.473 0,-8.321 15,0" /><path
         id="path228"
         style="fill:none;stroke:#ffffff;stroke-width:3.72127008;stroke-linecap:round;stroke-linejoin:round;stroke-miterlimit:4;stroke-dasharray:none;stroke-opacity:1"
         d="m 147.688,189.473 0,-8.321 15,0" /><path
         id="path230"
         style="fill:#2c6aa2;fill-opacity:1;fill-rule:nonzero;stroke:none"
         d="m 84.625,189.277 0,-8.339 15.0156,0" /><path
         id="path232"
         style="fill:none;stroke:#ffffff;stroke-width:3.72127008;stroke-linecap:round;stroke-linejoin:round;stroke-miterlimit:4;stroke-dasharray:none;stroke-opacity:1"
         d="m 84.625,189.277 0,-8.339 15.0156,0" /><path
         id="path234"
         style="fill:#2c6aa2;fill-opacity:1;fill-rule:nonzero;stroke:none"
         d="m 105.582,189.277 0,-8.339 15.004,0" /><path
         id="path236"
         style="fill:none;stroke:#ffffff;stroke-width:3.72127008;stroke-linecap:round;stroke-linejoin:round;stroke-miterlimit:4;stroke-dasharray:none;stroke-opacity:1"
         d="m 105.582,189.277 0,-8.339 15.004,0" /><path
         id="path238"
         style="fill:#2c6aa2;fill-opacity:1;fill-rule:nonzero;stroke:none"
         d="m 183.848,168.047 0,-8.328" /><path
         id="path240"
         style="fill:none;stroke:#ffffff;stroke-width:3.72127008;stroke-linecap:round;stroke-linejoin:round;stroke-miterlimit:4;stroke-dasharray:none;stroke-opacity:1"
         d="m 183.848,168.047 0,-8.328" /><path
         id="path242"
         style="fill:#2c6aa2;fill-opacity:1;fill-rule:nonzero;stroke:none"
         d="m 183.848,159.719 15.047,0" /><path
         id="path244"
         style="fill:none;stroke:#ffffff;stroke-width:3.72127008;stroke-linecap:round;stroke-linejoin:round;stroke-miterlimit:4;stroke-dasharray:none;stroke-opacity:1"
         d="m 183.848,159.719 15.047,0" /><path
         id="path246"
         style="fill:#2c6aa2;fill-opacity:1;fill-rule:nonzero;stroke:none"
         d="m 204.824,168.047 0,-8.328 15.039,0" /><path
         id="path248"
         style="fill:none;stroke:#ffffff;stroke-width:3.72127008;stroke-linecap:round;stroke-linejoin:round;stroke-miterlimit:4;stroke-dasharray:none;stroke-opacity:1"
         d="m 204.824,168.047 0,-8.328 15.039,0" /><path
         id="path250"
         style="fill:#2c6aa2;fill-opacity:1;fill-rule:nonzero;stroke:none"
         d="m 183.848,153.73 0,-8.3" /><path
         id="path252"
         style="fill:none;stroke:#ffffff;stroke-width:3.72127008;stroke-linecap:round;stroke-linejoin:round;stroke-miterlimit:4;stroke-dasharray:none;stroke-opacity:1"
         d="m 183.848,153.73 0,-8.3" /><path
         id="path254"
         style="fill:#2c6aa2;fill-opacity:1;fill-rule:nonzero;stroke:none"
         d="m 183.848,145.43 15.047,0" /><path
         id="path256"
         style="fill:none;stroke:#ffffff;stroke-width:3.72127008;stroke-linecap:round;stroke-linejoin:round;stroke-miterlimit:4;stroke-dasharray:none;stroke-opacity:1"
         d="m 183.848,145.43 15.047,0" /><path
         id="path258"
         style="fill:#2c6aa2;fill-opacity:1;fill-rule:nonzero;stroke:none"
         d="m 204.824,153.73 0,-8.3 15.039,0" /><path
         id="path260"
         style="fill:none;stroke:#ffffff;stroke-width:3.72127008;stroke-linecap:round;stroke-linejoin:round;stroke-miterlimit:4;stroke-dasharray:none;stroke-opacity:1"
         d="m 204.824,153.73 0,-8.3 15.039,0" /><path
         id="path262"
         style="fill:#ffffff;fill-opacity:1;fill-rule:evenodd;stroke:none"
         d="m 160.113,253.301 0,4.101 0.078,2.813 0.239,2.656 0.375,2.535 0.519,2.383 0.633,2.234 0.742,2.106 0.84,1.996 0.93,1.852 1.019,1.734 1.098,1.625 1.152,1.519 1.211,1.387 1.246,1.293 1.266,1.195 1.305,1.09 1.3,1 1.301,0.91 1.305,0.825 1.262,0.742 1.246,0.644 1.211,0.594 1.152,0.52 1.098,0.445 1.019,0.387 0.934,0.332 0.836,0.258 0.742,0.218 0.637,0.172 0.89,0.199 0.313,0.079 -28.973,0 -0.305,-0.079 -0.886,-0.199 -0.637,-0.172 -0.742,-0.218 -0.84,-0.258 -0.945,-0.332 -1.024,-0.387 -1.078,-0.445 -1.152,-0.52 -1.211,-0.574 -1.242,-0.664 -1.266,-0.742 -1.305,-0.825 -1.304,-0.91 -1.317,-1 -1.285,-1.09 -1.285,-1.179 -1.242,-1.293 -1.196,-1.403 -1.148,-1.519 -1.102,-1.606 -1.019,-1.734 -0.934,-1.871 -0.851,-1.977 -0.743,-2.125 -0.636,-2.234 -0.504,-2.383 -0.371,-2.535 -0.239,-1.223 -0.074,-2.808 0,-6.766 28.957,1.227 0,0" /><path
         id="path264"
         style="fill:#181817;fill-opacity:1;fill-rule:nonzero;stroke:none"
         d="m 162.051,257.402 -3.871,0 0,-4.101 3.871,0 0,4.32 -0.039,0.227 -0.055,0.199 -0.078,0.187 -0.07,0.184 -0.114,0.152 -0.109,0.141 -0.133,0.133 -0.148,0.109 -0.149,0.094 -0.164,0.094 -0.172,0.054 -0.168,0.059 -0.164,0.031 -0.191,0.024 -0.184,0.015 -0.187,-0.015 -0.164,-0.024 -0.188,-0.031 -0.164,-0.059 -0.168,-0.054 -0.172,-0.094 -0.144,-0.094 -0.133,-0.109 -0.133,-0.133 -0.125,-0.141 -0.094,-0.152 -0.097,-0.184 -0.074,-0.187 -0.051,-0.199 -0.02,-0.227 -0.019,-0.219 3.871,0" /><path
         id="path266"
         style="fill:#181817;fill-opacity:1;fill-rule:nonzero;stroke:none"
         d="m 188.012,291.223 -0.332,3.8 -0.41,-0.089 -0.926,-0.207 -0.692,-0.18 -0.781,-0.238 -0.891,-0.282 -0.988,-0.351 -1.058,-0.403 -1.137,-0.464 -0.609,-0.258 -0.618,-0.281 -0.617,-0.293 -0.648,-0.317 -0.649,-0.351 -0.652,-0.352 -0.672,-0.367 -0.668,-0.402 -0.668,-0.426 -0.687,-0.446 -0.692,-0.464 -0.687,-0.477 -0.688,-0.52 -0.711,-0.535 -0.668,-0.574 -0.687,-0.594 -0.668,-0.605 -0.668,-0.645 -0.672,-0.668 -0.652,-0.699 -0.653,-0.722 -0.629,-0.762 -0.613,-0.789 -0.598,-0.813 -0.593,-0.836 -0.578,-0.883 -0.536,-0.886 -0.543,-0.949 -0.503,-0.977 -0.485,-0.996 -0.461,-1.035 -0.429,-1.055 -0.407,-1.109 -0.39,-1.125 -0.336,-1.164 -0.321,-1.2 -0.277,-1.222 -0.258,-1.254 -0.113,-0.668 -0.109,-0.664 -0.075,-0.664 -0.093,-0.664 -0.075,-0.688 -0.078,-0.687 -0.05,-0.7 -0.043,-0.703 -0.032,-0.718 -0.019,-0.719 -0.039,-0.738 0,-0.743 3.871,0 0,0.684 0.015,0.684 0.02,0.683 0.039,0.645 0.039,0.664 0.055,0.629 0.051,0.648 0.078,0.613 0.074,0.629 0.094,0.586 0.089,0.61 0.094,0.578 0.246,1.16 0.239,1.109 0.296,1.074 0.321,1.055 0.332,1.016 0.355,0.976 0.391,0.961 0.41,0.91 0.426,0.903 0.461,0.847 0.469,0.832 0.48,0.817 0.508,0.758 0.535,0.754 0.52,0.718 0.558,0.703 0.559,0.668 0.554,0.645 0.598,0.609 0.598,0.614 0.593,0.57 0.594,0.559 0.617,0.515 0.61,0.496 0.617,0.5 0.613,0.446 0.617,0.445 0.629,0.422 0.618,0.406 0.609,0.371 0.594,0.352 0.617,0.351 0.594,0.332 0.578,0.293 0.593,0.297 0.559,0.262 0.555,0.258 0.523,0.238 1.059,0.426 0.969,0.371 0.89,0.297 0.805,0.254 0.707,0.207 0.574,0.144 0.836,0.203 0.227,0.035 -0.34,3.829 0.34,-3.829 0.222,0.059 0.199,0.074 0.207,0.074 0.168,0.114 0.149,0.105 0.152,0.133 0.102,0.145 0.117,0.152 0.098,0.144 0.058,0.168 0.047,0.164 0.039,0.188 0.031,0.168 0,0.183 -0.007,0.18 -0.024,0.192 -0.039,0.16 -0.047,0.172 -0.058,0.168 -0.098,0.164 -0.098,0.144 -0.101,0.149 -0.114,0.132 -0.152,0.106 -0.144,0.113 -0.153,0.094 -0.183,0.07 -0.188,0.055 -0.183,0.039 -0.227,0.02 -0.219,0 -0.226,-0.04 0.332,-3.8" /><path
         id="path268"
         style="fill:#181817;fill-opacity:1;fill-rule:nonzero;stroke:none"
         d="m 158.723,295.023 0.316,-3.8 28.973,0 0,3.84 -28.973,0 -0.316,-0.04 0.316,0.04 -0.226,-0.02 -0.223,-0.039 -0.207,-0.031 -0.184,-0.075 -0.168,-0.093 -0.164,-0.114 -0.152,-0.105 -0.113,-0.133 -0.125,-0.133 -0.098,-0.16 -0.074,-0.152 -0.075,-0.164 -0.05,-0.168 -0.039,-0.184 -0.024,-0.187 0,-0.352 0.024,-0.18 0.039,-0.171 0.05,-0.18 0.075,-0.164 0.074,-0.149 0.098,-0.152 0.125,-0.144 0.113,-0.133 0.152,-0.114 0.164,-0.105 0.168,-0.074 0.184,-0.078 0.207,-0.055 0.223,-0.031 0.226,0 -0.316,3.8" /><path
         id="path270"
         style="fill:#181817;fill-opacity:1;fill-rule:nonzero;stroke:none"
         d="m 133.09,258.84 0,1.363 0.035,0.688 0.039,0.64 0.035,-0.769 0.059,0.629 0.055,0.648 0.07,0.633 0.078,0.609 0.094,0.606 0.093,0.59 0.09,0.597 0.114,0.571 0.113,0.57 0.129,0.558 0.129,0.532 0.281,1.113 0.316,1.055 0.332,0.996 0.375,0.976 0.391,0.961 0.406,0.922 0.43,0.891 0.465,0.871 0.461,0.808 0.488,0.817 0.5,0.773 0.52,0.739 0.542,0.718 0.54,0.703 0.554,0.668 0.578,0.645 0.575,0.633 0.597,0.59 0.594,0.57 0.617,0.559 0.613,0.515 0.598,0.496 0.629,0.5 0.613,0.465 0.614,0.445 0.632,0.403 0.598,0.406 0.633,0.371 0.594,0.371 0.593,0.332 0.618,0.332 0.574,0.293 0.578,0.278 0.574,0.281 0.543,0.258 0.535,0.238 1.063,0.426 0.965,0.371 0.894,0.297 0.801,0.254 0.687,0.207 0.579,0.144 0.851,0.203 0.207,0.035 -0.648,3.789 -0.41,-0.089 -0.934,-0.207 -0.684,-0.18 -0.781,-0.238 -0.894,-0.282 -0.989,-0.332 -1.078,-0.41 -1.133,-0.457 -0.593,-0.277 -0.618,-0.281 -0.632,-0.293 -0.629,-0.317 -0.653,-0.332 -0.652,-0.371 -0.672,-0.367 -0.668,-0.402 -0.687,-0.407 -0.688,-0.445 -0.672,-0.484 -0.707,-0.477 -0.687,-0.52 -0.688,-0.535 -0.672,-0.55 -0.687,-0.618 -0.688,-0.605 -0.668,-0.645 -0.648,-0.668 -0.652,-0.699 -0.653,-0.722 -0.633,-0.762 -0.613,-0.774 -0.613,-0.812 -0.578,-0.852 -0.574,-0.867 -0.559,-0.902 -0.523,-0.949 -0.5,-0.957 -0.485,-0.997 -0.465,-1.054 -0.425,-1.055 -0.411,-1.094 -0.39,-1.14 -0.336,-1.164 -0.317,-1.188 -0.148,-0.625 -0.148,-0.609 -0.129,-0.625 -0.114,-0.649 -0.109,-0.648 -0.113,-0.649 -0.094,-0.664 -0.074,-0.679 -0.078,-0.688 -0.075,-0.687 -0.05,-0.7 -0.039,-0.703 -0.036,0.715 -0.039,-0.719 -0.019,-0.738 0,-0.98 0.039,-0.223 0.055,-0.199 0.078,-0.188 0.086,-0.168 0.097,-0.164 0.11,-0.129 0.129,-0.129 0.152,-0.113 0.148,-0.105 0.164,-0.078 0.172,-0.075 0.164,-0.054 0.168,-0.039 0.188,-0.016 0.375,0 0.164,0.016 0.187,0.039 0.164,0.054 0.168,0.075 0.168,0.078 0.149,0.105 0.133,0.113 0.125,0.129 0.132,0.129 0.094,0.164 0.094,0.168 0.07,0.188 0.039,0.199 0.039,0.223 0.02,0.242 0,0" /><path
         id="path272"
         style="fill:#181817;fill-opacity:1;fill-rule:nonzero;stroke:none"
         d="m 131.324,250.172 1.766,1.902 0,6.766 -3.871,0 0,-6.766 2.105,-1.902 -2.105,1.902 0,-0.238 0.039,-0.227 0.055,-0.199 0.078,-0.187 0.086,-0.164 0.097,-0.168 0.11,-0.129 0.129,-0.125 0.152,-0.114 0.148,-0.113 0.164,-0.074 0.172,-0.07 0.164,-0.063 0.168,-0.031 0.188,-0.02 0.375,0 0.164,0.02 0.187,0.031 0.164,0.063 0.168,0.07 0.168,0.074 0.149,0.113 0.133,0.114 0.125,0.125 0.132,0.129 0.094,0.168 0.094,0.164 0.07,0.187 0.039,0.199 0.039,0.227 0.02,0.238 -1.766,-1.902" /><path
         id="path274"
         style="fill:#181817;fill-opacity:1;fill-rule:nonzero;stroke:none"
         d="m 162.051,253.301 -2.106,1.902 -28.976,-1.226 0.355,-3.805 28.957,1.226 1.77,1.903 -1.77,-1.903 0.242,0.016 0.204,0.055 0.207,0.074 0.183,0.098 0.168,0.089 0.153,0.11 0.128,0.133 0.11,0.144 0.097,0.149 0.086,0.168 0.059,0.144 0.059,0.188 0.035,0.164 0.019,0.183 0.02,0.168 -0.02,0.188 -0.019,0.183 -0.035,0.164 -0.059,0.168 -0.07,0.164 -0.075,0.168 -0.097,0.149 -0.11,0.144 -0.128,0.133 -0.133,0.113 -0.168,0.106 -0.164,0.078 -0.168,0.074 -0.203,0.051 -0.207,0.039 -0.223,0.016 -0.227,-0.016 2.106,-1.902" /><path
         id="path276"
         style="fill:#100f0d;fill-opacity:1;fill-rule:nonzero;stroke:none"
         d="m 158.18,253.301 3.87109,0 0,4.10156 -3.87109,0 0,-4.10156 z" /><path
         id="path278"
         style="fill:#100f0d;fill-opacity:1;fill-rule:nonzero;stroke:none"
         d="m 159.039,291.223 28.9727,0 0,3.83984 -28.9727,0 0,-3.83984 z" /><path
         id="path280"
         style="fill:#100f0d;fill-opacity:1;fill-rule:nonzero;stroke:none"
         d="m 129.219,252.074 3.87109,0 0,6.76563 -3.87109,0 0,-6.76563 z" /><path
         id="path282"
         style="fill:#ffffff;fill-opacity:1;fill-rule:evenodd;stroke:none"
         d="m 157.438,293.145 34.339,0 3.692,-0.524 3.445,-0.883 3.215,-1.242 3,-1.551 2.781,-1.867 2.559,-2.121 2.363,-2.383 2.168,-2.594 1.992,-2.808 1.797,-2.953 1.641,-3.106 1.472,-3.23 1.321,-3.332 1.191,-3.379 1.035,-3.418 0.918,-3.457 0.801,-3.438 0.684,-3.398 0.586,2.926 0.476,-3.258 0.41,-3.141 0.317,-3.011 0.261,-2.829 0.188,-2.64 0.125,11.047 0.098,-2.2 0.058,-1.921 0.039,-1.621 0,-2.297 -0.019,-0.789 30.039,0 -47.207,-46.926 -47.211,46.926 30.062,0 0,3.136 -0.019,1.649 -0.059,1.957 -0.098,2.215 -0.144,-11.008 -0.188,2.679 -0.253,2.879 -0.325,3.036 -0.41,3.175 -0.476,-2.957 -0.586,3.364 -0.684,3.437 -0.801,3.473 -0.918,3.472 -1.035,3.438 -1.187,3.418 -1.325,3.328 -1.468,3.23 -1.633,3.11 -1.809,2.953 -1.988,2.773 -2.156,2.567 -2.364,2.344 -2.57,2.089 -2.765,1.813 -2.997,1.48 -3.222,1.161 -3.457,0.796 -3.699,0.411 0,0" /><path
         id="path284"
         style="fill:#181817;fill-opacity:1;fill-rule:nonzero;stroke:none"
         d="m 191.914,295.043 -0.137,0.02 -34.339,0 0,-3.84 34.339,0 0.137,3.82 -0.137,-3.82 0.215,0 0.227,0.031 0.203,0.055 0.183,0.078 0.188,0.074 0.156,0.105 0.137,0.114 0.137,0.133 0.117,0.144 0.09,0.152 0.086,0.149 0.058,0.164 0.059,0.18 0.039,0.171 0.019,0.18 0.02,0.192 -0.02,0.16 -0.019,0.187 -0.039,0.184 -0.059,0.168 -0.058,0.164 -0.086,0.152 -0.09,0.16 -0.117,0.133 -0.137,0.133 -0.137,0.105 -0.156,0.114 -0.188,0.093 -0.183,0.075 -0.203,0.031 -0.227,0.039 -0.215,0.02 0.137,-0.02" /><path
         id="path286"
         style="fill:#181817;fill-opacity:1;fill-rule:nonzero;stroke:none"
         d="m 230.391,239.645 1.933,-1.981 0.02,0.852 0,2.297 -0.039,1.66 -0.059,1.957 -0.098,2.218 -0.128,-11.027 -0.086,1.313 -0.118,1.367 -0.117,1.406 -0.136,1.453 -0.157,1.516 -0.168,1.539 -0.203,1.566 -0.207,1.614 -0.242,1.625 -0.254,1.664 -0.281,-4.571 -0.305,1.7 -0.332,1.718 -0.371,1.739 -0.391,1.738 -0.41,1.754 -0.449,1.754 -0.48,1.757 -0.516,1.75 -0.547,1.719 -0.293,0.891 -0.293,0.867 -0.305,0.871 -0.32,0.848 -0.332,0.871 -0.332,0.848 -0.332,0.851 -0.352,0.828 -0.371,0.856 -0.371,0.832 -0.39,0.828 -0.391,0.816 -0.41,0.809 -0.41,0.816 -0.43,0.789 -0.449,0.797 -0.449,0.778 -0.457,0.777 -0.461,0.758 -0.489,0.754 -0.508,0.738 -0.515,0.742 -0.52,0.723 -0.547,0.718 -0.539,0.684 -0.554,0.703 -0.575,0.668 -0.578,0.664 -0.617,0.645 -0.613,0.625 -0.606,0.609 -0.664,0.613 -0.644,0.594 -0.684,0.567 -0.676,0.554 -0.71,0.539 -0.723,0.52 -0.703,0.515 -0.762,0.485 -0.742,0.457 -0.781,0.445 -0.782,0.426 -0.82,0.402 -0.82,0.395 -0.821,0.344 -0.847,0.351 -0.871,0.32 -0.879,0.293 -0.899,0.262 -0.91,0.254 -0.926,0.227 -0.957,0.203 -0.937,0.16 -0.977,0.152 -0.976,0.125 -1.016,0.094 -0.312,-3.82 0.898,-0.075 0.891,-0.113 0.847,-0.133 0.86,-0.16 0.84,-0.172 0.8,-0.199 0.801,-0.223 0.801,-0.242 0.762,-0.258 0.761,-0.273 0.742,-0.297 0.743,-0.316 0.703,-0.332 0.715,-0.367 0.711,-0.372 0.664,-0.386 0.664,-0.43 0.656,-0.426 0.652,-0.437 0.625,-0.465 0.645,-0.484 0.586,-0.477 0.605,-0.52 0.586,-0.515 0.586,-0.539 0.547,-0.551 0.566,-0.57 0.528,-0.598 0.547,-0.609 0.527,-0.606 0.508,-0.629 0.508,-0.633 0.488,-0.664 0.476,-0.648 0.461,-0.684 0.469,-0.683 0.449,-0.696 0.43,-0.707 0.449,-0.718 0.41,-0.739 0.411,-0.738 0.41,-0.742 0.39,-0.758 0.371,-0.773 0.391,-0.778 0.352,-0.758 0.351,-0.796 0.352,-0.789 0.332,-0.817 0.312,-0.797 0.324,-0.808 0.321,-0.817 0.293,-0.832 0.293,-0.828 0.285,-0.836 0.281,-0.808 0.508,-1.7 0.508,-1.668 0.469,-1.699 0.429,-1.703 0.41,-1.68 0.371,-1.679 0.352,-1.684 0.332,-1.66 0.293,-1.66 0.281,4.597 0.246,-1.605 0.215,-1.586 0.235,-1.57 0.175,-1.535 0.176,-1.5 0.149,-1.457 0.125,-1.422 0.117,-1.387 0.117,-1.328 0.066,-1.281 0.149,11.07 0.097,-2.164 0.059,-1.903 0.02,-1.585 0,-3.036 1.914,-1.976 -1.914,1.976 0,-0.238 0.007,-0.223 0.063,-0.203 0.047,-0.183 0.097,-0.168 0.098,-0.168 0.106,-0.145 0.128,-0.133 0.137,-0.109 0.149,-0.109 0.164,-0.075 0.156,-0.078 0.176,-0.05 0.175,-0.059 0.176,-0.016 0.176,-0.019 0.176,0 0.195,0.019 0.164,0.035 0.188,0.051 0.168,0.063 0.144,0.078 0.176,0.086 0.117,0.113 0.137,0.133 0.137,0.125 0.105,0.168 0.09,0.164 0.078,0.187 0.059,0.2 0.039,0.203 0.019,0.238 -1.933,1.981" /><path
         id="path288"
         style="fill:#181817;fill-opacity:1;fill-rule:nonzero;stroke:none"
         d="m 232.539,235.801 0,3.844 -2.148,0 0,-3.844 2.148,0 0.227,0 0.222,0.035 0.203,0.059 0.188,0.074 0.184,0.078 0.148,0.105 0.156,0.11 0.125,0.129 0.11,0.148 0.097,0.152 0.098,0.164 0.051,0.168 0.047,0.165 0.039,0.167 0.019,0.184 0.02,0.188 -0.02,0.164 -0.019,0.183 -0.039,0.184 -0.047,0.172 -0.051,0.16 -0.098,0.148 -0.097,0.168 -0.11,0.125 -0.125,0.133 -0.156,0.129 -0.148,0.094 -0.184,0.09 -0.188,0.074 -0.203,0.039 -0.222,0.035 -0.227,0.02 0,-3.844" /><path
         id="path290"
         style="fill:#181817;fill-opacity:1;fill-rule:nonzero;stroke:none"
         d="m 261.797,236.359 -1.367,3.286 -27.891,0 0,-3.844 27.891,0 1.367,0.558 -1.367,-0.558 0.234,0 0.227,0.035 0.183,0.059 0.203,0.074 0.168,0.078 0.176,0.105 0.117,0.11 0.137,0.129 0.117,0.148 0.086,0.152 0.09,0.164 0.078,0.168 0.039,0.165 0.039,0.167 0.039,0.184 0,0.352 -0.039,0.183 -0.039,0.184 -0.039,0.172 -0.078,0.16 -0.09,0.148 -0.086,0.168 -0.117,0.125 -0.137,0.133 -0.117,0.129 -0.176,0.094 -0.168,0.09 -0.203,0.074 -0.183,0.039 -0.227,0.035 -0.234,0.02 1.367,-3.286" /><path
         id="path292"
         style="fill:#181817;fill-opacity:1;fill-rule:nonzero;stroke:none"
         d="m 211.855,189.453 2.735,0 47.207,46.906 -2.734,2.711 -47.208,-46.898 0,-2.719 0,2.719 -0.156,-0.164 -0.136,-0.192 -0.118,-0.175 -0.066,-0.196 -0.063,-0.156 -0.046,-0.195 -0.02,-0.176 0,-0.184 0.039,-0.187 0.027,-0.164 0.063,-0.188 0.047,-0.144 0.097,-0.168 0.098,-0.156 0.109,-0.137 0.125,-0.137 0.137,-0.129 0.149,-0.105 0.144,-0.098 0.156,-0.078 0.157,-0.066 0.175,-0.051 0.176,-0.039 0.196,-0.02 0.168,0 0.183,0.02 0.188,0.039 0.183,0.051 0.188,0.086 0.183,0.097 0.176,0.125 0.176,0.168 -2.735,0" /><path
         id="path294"
         style="fill:#181817;fill-opacity:1;fill-rule:nonzero;stroke:none"
         d="m 166.012,239.645 -1.36,-3.266 47.203,-46.926 2.735,2.719 -47.203,46.898 -1.375,0.575 1.375,-0.575 -0.164,0.149 -0.188,0.129 -0.172,0.117 -0.183,0.086 -0.188,0.058 -0.183,0.036 -0.188,0.019 -0.183,0 -0.172,-0.019 -0.184,-0.036 -0.168,-0.058 -0.164,-0.074 -0.168,-0.075 -0.148,-0.089 -0.133,-0.114 -0.149,-0.129 -0.113,-0.129 -0.109,-0.148 -0.094,-0.145 -0.094,-0.148 -0.07,-0.172 -0.055,-0.16 -0.039,-0.188 -0.019,-0.164 0,-0.187 0.019,-0.184 0.039,-0.183 0.055,-0.188 0.09,-0.183 0.093,-0.161 0.153,-0.191 0.144,-0.16 1.36,3.266" /><path
         id="path296"
         style="fill:#181817;fill-opacity:1;fill-rule:nonzero;stroke:none"
         d="m 197.988,237.664 -1.914,1.981 -30.062,0 0,-3.844 30.062,0 1.914,1.863 -1.914,-1.863 0.215,0 0.227,0.035 0.203,0.059 0.183,0.074 0.168,0.078 0.176,0.105 0.137,0.11 0.137,0.129 0.117,0.148 0.09,0.152 0.066,0.164 0.078,0.168 0.059,0.165 0.039,0.167 0.019,0.184 0.02,0.188 -0.02,0.164 -0.019,0.183 -0.039,0.184 -0.059,0.172 -0.078,0.16 -0.066,0.148 -0.09,0.168 -0.117,0.125 -0.137,0.133 -0.137,0.129 -0.176,0.094 -0.168,0.09 -0.183,0.074 -0.203,0.039 -0.227,0.035 -0.215,0.02 1.914,-1.981" /><path
         id="path298"
         style="fill:#181817;fill-opacity:1;fill-rule:nonzero;stroke:none"
         d="m 157.438,295.063 -0.094,-3.84 0.894,-0.063 0.871,-0.086 0.856,-0.097 0.855,-0.149 0.821,-0.144 0.816,-0.164 0.801,-0.207 0.781,-0.219 0.781,-0.239 0.746,-0.265 0.743,-0.274 0.742,-0.293 0.707,-0.316 0.711,-0.332 0.687,-0.371 0.688,-0.367 0.668,-0.41 0.648,-0.407 0.637,-0.422 0.629,-0.46 0.637,-0.469 0.593,-0.481 0.598,-0.496 0.594,-0.515 0.578,-0.52 0.554,-0.551 0.559,-0.558 0.535,-0.571 0.543,-0.589 0.524,-0.614 0.496,-0.629 0.504,-0.629 0.484,-0.644 0.488,-0.664 0.461,-0.664 0.465,-0.684 0.445,-0.703 0.45,-0.703 0.425,-0.723 0.411,-0.722 0.41,-0.739 0.41,-0.734 0.39,-0.758 0.391,-0.777 0.371,-0.762 0.352,-0.793 0.355,-0.773 0.352,-0.797 0.336,-0.813 0.312,-0.812 0.321,-0.817 0.316,-0.808 0.297,-0.832 0.297,-0.836 0.3,-0.824 0.258,-0.836 0.524,-1.703 0.5,-1.68 0.465,-1.699 0.449,-1.719 0.39,-1.699 0.391,-1.7 0.332,-1.699 0.332,-1.679 0.293,-1.684 0.293,4.605 0.234,-1.648 0.235,-1.605 0.215,-1.575 0.175,-1.57 0.176,-1.516 0.149,-1.472 0.125,-1.446 0.136,-1.406 0.098,-1.348 0.09,-1.289 0.125,11.043 0.098,-2.214 0.058,-1.922 0.02,-1.629 0,-3.067 3.847,-0.113 0.02,0.871 0,2.328 -0.039,1.688 -0.059,1.988 -0.097,-11.25 -0.125,2.496 -0.09,1.328 -0.098,1.387 -0.137,1.441 -0.117,1.465 -0.176,1.516 -0.168,1.57 -0.183,1.586 -0.215,1.625 -0.234,1.649 -0.254,-4.571 -0.286,1.703 -0.32,1.719 -0.332,1.735 -0.351,1.757 -0.391,1.75 -0.43,1.758 -0.449,1.774 -0.469,1.773 -0.527,1.758 -0.547,1.758 -0.293,0.863 -0.293,0.871 -0.293,0.867 -0.32,0.871 -0.324,0.864 -0.332,0.855 -0.352,0.848 -0.352,0.851 -0.375,0.848 -0.371,0.836 -0.39,0.808 -0.391,0.832 -0.41,0.817 -0.406,0.808 -0.43,0.797 -0.445,0.797 -0.449,0.778 -0.461,0.769 -0.465,0.762 -0.485,0.758 -0.504,0.738 -0.519,0.723 -0.524,0.714 -0.539,0.723 -0.535,0.684 -0.562,0.683 -0.574,0.664 -0.598,0.653 -0.59,0.64 -0.617,0.633 -0.633,0.609 -0.648,0.59 -0.653,0.575 -0.672,0.574 -0.683,0.531 -0.707,0.539 -0.711,0.496 -0.742,0.504 -0.746,0.457 -0.743,0.445 -0.781,0.446 -0.801,0.406 -0.8,0.391 -0.817,0.367 -0.84,0.332 -0.851,0.316 -0.875,0.313 -0.875,0.258 -0.895,0.257 -0.926,0.219 -0.914,0.207 -0.949,0.164 -0.949,0.149 -0.988,0.132 -0.981,0.09 -1.008,0.055 -0.089,-3.82 0.089,3.82 -0.222,0 -0.219,-0.02 -0.207,-0.035 -0.184,-0.054 -0.187,-0.09 -0.168,-0.098 -0.149,-0.105 -0.132,-0.114 -0.114,-0.132 -0.109,-0.149 -0.094,-0.164 -0.074,-0.144 -0.055,-0.168 -0.054,-0.184 -0.036,-0.168 -0.019,-0.184 0,-0.187 0.019,-0.164 0.036,-0.188 0.039,-0.168 0.05,-0.183 0.079,-0.149 0.089,-0.164 0.114,-0.144 0.109,-0.129 0.152,-0.133 0.149,-0.109 0.168,-0.09 0.187,-0.078 0.203,-0.055 0.204,-0.059 0.242,-0.011 0.094,3.84" /><path
         id="path300"
         style="fill:#ffffff;fill-opacity:1;fill-rule:evenodd;stroke:none"
         d="m 127.574,50.6641 -34.3357,0 -3.7031,0.5078 -3.4454,0.8984 -3.2148,1.2305 -2.9961,1.5625 -2.7851,1.8555 -2.5469,2.1289 -2.3633,2.3828 -2.1797,2.5976 -1.9922,2.793 -1.7969,2.9687 -1.6406,3.1055 -1.4726,3.2227 -1.3203,3.3398 -1.1797,3.3789 -1.0469,3.418 -0.9063,3.457 -0.8007,3.4375 -0.6954,3.3985 -0.5742,3.3203 -0.4883,3.262 -0.4101,3.125 -0.3125,3.027 -0.2539,-17.4609 -0.1953,2.6367 -0.1289,2.4414 -0.086,2.1875 -0.0586,1.9333 -0.039,1.621 0,2.286 0.0195,0.8 -30.0391,0 47.2071,46.914 47.207,-46.914 -30.0586,0 0,-3.144 0.0195,-1.641 0.0586,-1.9529 0.086,-2.2266 0.1484,-2.4805 0.1953,-2.6757 0.2539,17.4027 0.3125,-3.028 0.4102,-3.183 0.4883,-3.2816 0.5742,-3.3594 0.6953,-3.4375 0.8008,-3.4765 0.9062,-3.4766 1.0469,-3.4375 1.1797,-3.418 1.3203,-3.3203 1.4727,-3.2422 1.6328,-3.1054 1.816,-2.9492 1.981,-2.7735 2.16,-2.5781 2.363,-2.3438 2.567,-2.0898 2.765,-1.7969 2.996,-1.4844 3.223,-1.1718 3.457,-0.7813 3.703,-0.4101 0,0" /><path
         id="path302"
         style="fill:none;stroke:#211c1d;stroke-width:6;stroke-linecap:butt;stroke-linejoin:miter;stroke-miterlimit:4;stroke-dasharray:none;stroke-opacity:1"
         d="m 127.574,50.6641 -34.3357,0 -3.7031,0.5078 -3.4454,0.8984 -3.2148,1.2305 -2.9961,1.5625 -2.7851,1.8555 -2.5469,2.1289 -2.3633,2.3828 -2.1797,2.5976 -1.9922,2.793 -1.7969,2.9687 -1.6406,3.1055 -1.4726,3.2227 -1.3203,3.3398 -1.1797,3.3789 -1.0469,3.418 -0.9063,3.457 -0.8007,3.4375 -0.6954,3.3985 -0.5742,3.3203 -0.4883,3.262 -0.4101,3.125 -0.3125,3.027 -0.2539,-17.4609 -0.1953,2.6367 -0.1289,2.4414 -0.086,2.1875 -0.0586,1.9333 -0.039,1.621 0,2.286 0.0195,0.8 -30.0391,0 47.2071,46.914 47.207,-46.914 -30.0586,0 0,-3.144 0.0195,-1.641 0.0586,-1.9529 0.086,-2.2266 0.1484,-2.4805 0.1953,-2.6757 0.2539,17.4027 0.3125,-3.028 0.4102,-3.183 0.4883,-3.2816 0.5742,-3.3594 0.6953,-3.4375 0.8008,-3.4765 0.9062,-3.4766 1.0469,-3.4375 1.1797,-3.418 1.3203,-3.3203 1.4727,-3.2422 1.6328,-3.1054 1.816,-2.9492 1.981,-2.7735 2.16,-2.5781 2.363,-2.3438 2.567,-2.0898 2.765,-1.7969 2.996,-1.4844 3.223,-1.1718 3.457,-0.7813 3.703,-0.4101 0,0 z" /><path
         id="path304"
         style="fill:#ffffff;fill-opacity:1;fill-rule:nonzero;stroke:none"
         d="m 146.07,63.6328 c -4.586,-9.1601 -19.586,-13.75 -19.586,-13.75 -6.664,0.4297 -14.582,6.25 -14.582,6.25 l 6.668,7.5" /><path
         id="path306"
         style="fill:none;stroke:#211c1d;stroke-width:6;stroke-linecap:butt;stroke-linejoin:miter;stroke-miterlimit:4;stroke-dasharray:none;stroke-opacity:1"
         d="m 146.07,63.6328 c -4.586,-9.1601 -19.586,-13.75 -19.586,-13.75 -6.664,0.4297 -14.582,6.25 -14.582,6.25 l 6.668,7.5" /></g></g></svg>