<?xml version="1.0" encoding="UTF-8" standalone="no"?>
<svg
   xmlns:dc="http://purl.org/dc/elements/1.1/"
   xmlns:cc="http://creativecommons.org/ns#"
   xmlns:rdf="http://www.w3.org/1999/02/22-rdf-syntax-ns#"
   xmlns:svg="http://www.w3.org/2000/svg"
   xmlns="http://www.w3.org/2000/svg"
   viewBox="0 0 46.25 51.25"
   height="51.25"
   width="46.25"
   xml:space="preserve"
   version="1.1"
   id="svg2"><metadata
     id="metadata8"><rdf:RDF><cc:Work
         rdf:about=""><dc:format>image/svg+xml</dc:format><dc:type
           rdf:resource="http://purl.org/dc/dcmitype/StillImage" /></cc:Work></rdf:RDF></metadata><defs
     id="defs6" /><g
     transform="matrix(1.25,0,0,-1.25,0,51.25)"
     id="g10"><g
       transform="scale(0.1,0.1)"
       id="g12"><path
         id="path14"
         style="fill:#2c6aa2;fill-opacity:1;fill-rule:nonzero;stroke:none"
         d="M 289.262,15.9492 288.91,340.359 7.46094,340.559 7.26953,15.8711 289.262,15.9492" /><path
         id="path16"
         style="fill:none;stroke:#ffffff;stroke-width:5.03733015;stroke-linecap:butt;stroke-linejoin:miter;stroke-miterlimit:4;stroke-dasharray:none;stroke-opacity:1"
         d="M 289.262,15.9414 288.91,340.363 7.46094,340.555 7.26953,15.8633 289.262,15.9414 Z" /><path
         id="path18"
         style="fill:#2c6aa2;fill-opacity:1;fill-rule:nonzero;stroke:none"
         d="m 288.91,340.359 -281.44906,0.2 84.44926,64.453 265.9418,0 0,-322.5432 -68.59,-66.5196 -0.352,324.4098" /><path
         id="path20"
         style="fill:none;stroke:#ffffff;stroke-width:5.03733015;stroke-linecap:butt;stroke-linejoin:miter;stroke-miterlimit:4;stroke-dasharray:none;stroke-opacity:1"
         d="m 288.91,340.363 -281.44906,0.192 84.44926,64.457 265.9418,0 0,-322.5393 -68.59,-66.5313 -0.352,324.4216 z" /><path
         id="path22"
         style="fill:#2c6aa2;fill-opacity:1;fill-rule:nonzero;stroke:none"
         d="m 288.91,340.359 69.57,65.551" /><path
         id="path24"
         style="fill:none;stroke:#ffffff;stroke-width:5.03733015;stroke-linecap:butt;stroke-linejoin:miter;stroke-miterlimit:4;stroke-dasharray:none;stroke-opacity:1"
         d="m 288.91,340.363 69.57,65.539" /><path
         id="path26"
         style="fill:#2c6aa2;fill-opacity:1;fill-rule:nonzero;stroke:none"
         d="m 27.1484,79.3398 48.1602,0 0,79.6094 -48.1602,0 0,-79.6094 z" /><path
         id="path28"
         style="fill:none;stroke:#ffffff;stroke-width:3.72127008;stroke-linecap:round;stroke-linejoin:round;stroke-miterlimit:4;stroke-dasharray:none;stroke-opacity:1"
         d="m 75.3086,158.953 -48.1602,0 0,-79.6092 48.1602,0" /><path
         id="path30"
         style="fill:#2c6aa2;fill-opacity:1;fill-rule:nonzero;stroke:none"
         d="m 75.3086,79.3398 26.6404,14.7696 0,79.5706 -48.199,0 -26.6016,-14.731 48.1602,0 0,-79.6092" /><path
         id="path32"
         style="fill:none;stroke:#ffffff;stroke-width:3.72127008;stroke-linecap:round;stroke-linejoin:round;stroke-miterlimit:4;stroke-dasharray:none;stroke-opacity:1"
         d="m 75.3086,79.3438 26.6404,14.7695 0,79.5707 -48.199,0 -26.6016,-14.731 48.1602,0 0,-79.6092 z" /><path
         id="path34"
         style="fill:#2c6aa2;fill-opacity:1;fill-rule:nonzero;stroke:none"
         d="M 75.3086,158.949 101.949,173.68" /><path
         id="path36"
         style="fill:none;stroke:#ffffff;stroke-width:3.72127008;stroke-linecap:round;stroke-linejoin:round;stroke-miterlimit:4;stroke-dasharray:none;stroke-opacity:1"
         d="m 75.3086,158.953 26.6404,14.731" /><path
         id="path38"
         style="fill:#2c6aa2;fill-opacity:1;fill-rule:nonzero;stroke:none"
         d="m 75.3086,79.3516 98.2422,0 0,178.199 -98.2422,0 0,-178.199 z" /><path
         id="path40"
         style="fill:none;stroke:#ffffff;stroke-width:3.72127008;stroke-linecap:round;stroke-linejoin:round;stroke-miterlimit:4;stroke-dasharray:none;stroke-opacity:1"
         d="m 173.551,257.543 -98.2424,0 0,-178.1992 98.2424,0" /><path
         id="path42"
         style="fill:#2c6aa2;fill-opacity:1;fill-rule:nonzero;stroke:none"
         d="m 173.551,79.3398 40,22.1092 0,178.211 -98.281,0 -39.9614,-22.109 98.2424,0 0,-178.2112" /><path
         id="path44"
         style="fill:none;stroke:#ffffff;stroke-width:3.72127008;stroke-linecap:round;stroke-linejoin:round;stroke-miterlimit:4;stroke-dasharray:none;stroke-opacity:1"
         d="m 173.551,79.3438 40,22.1092 0,178.199 -98.281,0 -39.9614,-22.109 98.2424,0 0,-178.1992 z" /><path
         id="path46"
         style="fill:#2c6aa2;fill-opacity:1;fill-rule:nonzero;stroke:none"
         d="m 173.551,257.551 40,22.109" /><path
         id="path48"
         style="fill:none;stroke:#ffffff;stroke-width:3.72127008;stroke-linecap:round;stroke-linejoin:round;stroke-miterlimit:4;stroke-dasharray:none;stroke-opacity:1"
         d="m 173.551,257.543 40,22.109" /><path
         id="path50"
         style="fill:#2c6aa2;fill-opacity:1;fill-rule:nonzero;stroke:none"
         d="m 174.41,79.3398 53.2383,0 0,150.16 -53.2383,0 0,-150.16 z" /><path
         id="path52"
         style="fill:none;stroke:#ffffff;stroke-width:3.72127008;stroke-linecap:round;stroke-linejoin:round;stroke-miterlimit:4;stroke-dasharray:none;stroke-opacity:1"
         d="m 227.66,229.504 -53.25,0 0,-150.1602 53.25,0" /><path
         id="path54"
         style="fill:#2c6aa2;fill-opacity:1;fill-rule:nonzero;stroke:none"
         d="m 227.66,79.3398 39.102,21.6092 0,150.153 -53.242,0 -39.11,-21.602 53.25,0 0,-150.1602" /><path
         id="path56"
         style="fill:none;stroke:#ffffff;stroke-width:3.72127008;stroke-linecap:round;stroke-linejoin:round;stroke-miterlimit:4;stroke-dasharray:none;stroke-opacity:1"
         d="m 227.66,79.3438 39.102,21.5972 0,150.161 -53.242,0 -39.11,-21.598 53.25,0 0,-150.1602 z" /><path
         id="path58"
         style="fill:#2c6aa2;fill-opacity:1;fill-rule:nonzero;stroke:none"
         d="m 227.66,229.5 39.102,21.602" /><path
         id="path60"
         style="fill:none;stroke:#ffffff;stroke-width:3.72127008;stroke-linecap:round;stroke-linejoin:round;stroke-miterlimit:4;stroke-dasharray:none;stroke-opacity:1"
         d="m 227.66,229.504 39.102,21.598" /><path
         id="path62"
         style="fill:#2c6aa2;fill-opacity:1;fill-rule:nonzero;stroke:none"
         d="m 126.48,184.379 0,-8.32 15.04,0" /><path
         id="path64"
         style="fill:none;stroke:#ffffff;stroke-width:3.72127008;stroke-linecap:round;stroke-linejoin:round;stroke-miterlimit:4;stroke-dasharray:none;stroke-opacity:1"
         d="m 126.48,184.383 0,-8.32 15.04,0" /><path
         id="path66"
         style="fill:#2c6aa2;fill-opacity:1;fill-rule:nonzero;stroke:none"
         d="m 147.461,184.379 0,-8.32 15,0" /><path
         id="path68"
         style="fill:none;stroke:#ffffff;stroke-width:3.72127008;stroke-linecap:round;stroke-linejoin:round;stroke-miterlimit:4;stroke-dasharray:none;stroke-opacity:1"
         d="m 147.461,184.383 0,-8.32 15,0" /><path
         id="path70"
         style="fill:#2c6aa2;fill-opacity:1;fill-rule:nonzero;stroke:none"
         d="m 84.3789,184.191 0,-8.32 15.0313,0" /><path
         id="path72"
         style="fill:none;stroke:#ffffff;stroke-width:3.72127008;stroke-linecap:round;stroke-linejoin:round;stroke-miterlimit:4;stroke-dasharray:none;stroke-opacity:1"
         d="m 84.3789,184.191 0,-8.328 15.0313,0" /><path
         id="path74"
         style="fill:#2c6aa2;fill-opacity:1;fill-rule:nonzero;stroke:none"
         d="m 105.352,184.191 0,-8.32 15,0" /><path
         id="path76"
         style="fill:none;stroke:#ffffff;stroke-width:3.72127008;stroke-linecap:round;stroke-linejoin:round;stroke-miterlimit:4;stroke-dasharray:none;stroke-opacity:1"
         d="m 105.352,184.191 0,-8.328 15,0" /><path
         id="path78"
         style="fill:#2c6aa2;fill-opacity:1;fill-rule:nonzero;stroke:none"
         d="m 126.328,167.078 0,-8.277 15.043,0" /><path
         id="path80"
         style="fill:none;stroke:#ffffff;stroke-width:3.72127008;stroke-linecap:round;stroke-linejoin:round;stroke-miterlimit:4;stroke-dasharray:none;stroke-opacity:1"
         d="m 126.328,167.082 0,-8.289 15.043,0" /><path
         id="path82"
         style="fill:#2c6aa2;fill-opacity:1;fill-rule:nonzero;stroke:none"
         d="m 147.27,167.078 0,-8.277 15,0" /><path
         id="path84"
         style="fill:none;stroke:#ffffff;stroke-width:3.72127008;stroke-linecap:round;stroke-linejoin:round;stroke-miterlimit:4;stroke-dasharray:none;stroke-opacity:1"
         d="m 147.27,167.082 0,-8.289 15,0" /><path
         id="path86"
         style="fill:#2c6aa2;fill-opacity:1;fill-rule:nonzero;stroke:none"
         d="m 84.2188,166.879 0,-8.32 15,0" /><path
         id="path88"
         style="fill:none;stroke:#ffffff;stroke-width:3.72127008;stroke-linecap:round;stroke-linejoin:round;stroke-miterlimit:4;stroke-dasharray:none;stroke-opacity:1"
         d="m 84.2188,166.883 0,-8.32 15,0" /><path
         id="path90"
         style="fill:#2c6aa2;fill-opacity:1;fill-rule:nonzero;stroke:none"
         d="m 105.121,166.879 0,-8.32 15.078,0" /><path
         id="path92"
         style="fill:none;stroke:#ffffff;stroke-width:3.72127008;stroke-linecap:round;stroke-linejoin:round;stroke-miterlimit:4;stroke-dasharray:none;stroke-opacity:1"
         d="m 105.121,166.883 0,-8.32 15.078,0" /><path
         id="path94"
         style="fill:#2c6aa2;fill-opacity:1;fill-rule:nonzero;stroke:none"
         d="m 126.328,150.52 0,-8.321 15.043,0" /><path
         id="path96"
         style="fill:none;stroke:#ffffff;stroke-width:3.72127008;stroke-linecap:round;stroke-linejoin:round;stroke-miterlimit:4;stroke-dasharray:none;stroke-opacity:1"
         d="m 126.328,150.512 0,-8.321 15.043,0" /><path
         id="path98"
         style="fill:#2c6aa2;fill-opacity:1;fill-rule:nonzero;stroke:none"
         d="m 147.27,150.52 0,-8.321 15,0" /><path
         id="path100"
         style="fill:none;stroke:#ffffff;stroke-width:3.72127008;stroke-linecap:round;stroke-linejoin:round;stroke-miterlimit:4;stroke-dasharray:none;stroke-opacity:1"
         d="m 147.27,150.512 0,-8.321 15,0" /><path
         id="path102"
         style="fill:#2c6aa2;fill-opacity:1;fill-rule:nonzero;stroke:none"
         d="m 84.2188,150.281 0,-8.32 15,0" /><path
         id="path104"
         style="fill:none;stroke:#ffffff;stroke-width:3.72127008;stroke-linecap:round;stroke-linejoin:round;stroke-miterlimit:4;stroke-dasharray:none;stroke-opacity:1"
         d="m 84.2188,150.285 0,-8.32 15,0" /><path
         id="path106"
         style="fill:#2c6aa2;fill-opacity:1;fill-rule:nonzero;stroke:none"
         d="m 105.121,150.281 0,-8.32 15.078,0" /><path
         id="path108"
         style="fill:none;stroke:#ffffff;stroke-width:3.72127008;stroke-linecap:round;stroke-linejoin:round;stroke-miterlimit:4;stroke-dasharray:none;stroke-opacity:1"
         d="m 105.121,150.285 0,-8.32 15.078,0" /><path
         id="path110"
         style="fill:#2c6aa2;fill-opacity:1;fill-rule:nonzero;stroke:none"
         d="m 126.328,135.172 0,-8.332 15.043,0" /><path
         id="path112"
         style="fill:none;stroke:#ffffff;stroke-width:3.72127008;stroke-linecap:round;stroke-linejoin:round;stroke-miterlimit:4;stroke-dasharray:none;stroke-opacity:1"
         d="m 126.328,135.164 0,-8.32 15.043,0" /><path
         id="path114"
         style="fill:#2c6aa2;fill-opacity:1;fill-rule:nonzero;stroke:none"
         d="m 147.27,135.172 0,-8.332 15,0" /><path
         id="path116"
         style="fill:none;stroke:#ffffff;stroke-width:3.72127008;stroke-linecap:round;stroke-linejoin:round;stroke-miterlimit:4;stroke-dasharray:none;stroke-opacity:1"
         d="m 147.27,135.164 0,-8.32 15,0" /><path
         id="path118"
         style="fill:#2c6aa2;fill-opacity:1;fill-rule:nonzero;stroke:none"
         d="m 84.2188,134.969 0,-8.321 15,0" /><path
         id="path120"
         style="fill:none;stroke:#ffffff;stroke-width:3.72127008;stroke-linecap:round;stroke-linejoin:round;stroke-miterlimit:4;stroke-dasharray:none;stroke-opacity:1"
         d="m 84.2188,134.973 0,-8.321 15,0" /><path
         id="path122"
         style="fill:#2c6aa2;fill-opacity:1;fill-rule:nonzero;stroke:none"
         d="m 105.121,134.969 0,-8.321 15.078,0" /><path
         id="path124"
         style="fill:none;stroke:#ffffff;stroke-width:3.72127008;stroke-linecap:round;stroke-linejoin:round;stroke-miterlimit:4;stroke-dasharray:none;stroke-opacity:1"
         d="m 105.121,134.973 0,-8.321 15.078,0" /><path
         id="path126"
         style="fill:#2c6aa2;fill-opacity:1;fill-rule:nonzero;stroke:none"
         d="m 184.34,222.512 0,-8.364 15,0" /><path
         id="path128"
         style="fill:none;stroke:#ffffff;stroke-width:3.72127008;stroke-linecap:round;stroke-linejoin:round;stroke-miterlimit:4;stroke-dasharray:none;stroke-opacity:1"
         d="m 184.34,222.512 0,-8.36 15,0" /><path
         id="path130"
         style="fill:#2c6aa2;fill-opacity:1;fill-rule:nonzero;stroke:none"
         d="m 205.27,222.512 0,-8.364 15.039,0" /><path
         id="path132"
         style="fill:none;stroke:#ffffff;stroke-width:3.72127008;stroke-linecap:round;stroke-linejoin:round;stroke-miterlimit:4;stroke-dasharray:none;stroke-opacity:1"
         d="m 205.27,222.512 0,-8.36 15.039,0" /><path
         id="path134"
         style="fill:#2c6aa2;fill-opacity:1;fill-rule:nonzero;stroke:none"
         d="m 184.102,206.84 0,-8.32 15,0" /><path
         id="path136"
         style="fill:none;stroke:#ffffff;stroke-width:3.72127008;stroke-linecap:round;stroke-linejoin:round;stroke-miterlimit:4;stroke-dasharray:none;stroke-opacity:1"
         d="m 184.102,206.844 0,-8.321 15,0" /><path
         id="path138"
         style="fill:#2c6aa2;fill-opacity:1;fill-rule:nonzero;stroke:none"
         d="m 205.039,206.84 0,-8.32 15,0" /><path
         id="path140"
         style="fill:none;stroke:#ffffff;stroke-width:3.72127008;stroke-linecap:round;stroke-linejoin:round;stroke-miterlimit:4;stroke-dasharray:none;stroke-opacity:1"
         d="m 205.039,206.844 0,-8.321 15,0" /><path
         id="path142"
         style="fill:#2c6aa2;fill-opacity:1;fill-rule:nonzero;stroke:none"
         d="m 184.102,192.781 0,-8.32 15,0" /><path
         id="path144"
         style="fill:none;stroke:#ffffff;stroke-width:3.72127008;stroke-linecap:round;stroke-linejoin:round;stroke-miterlimit:4;stroke-dasharray:none;stroke-opacity:1"
         d="m 184.102,192.785 0,-8.32 15,0" /><path
         id="path146"
         style="fill:#2c6aa2;fill-opacity:1;fill-rule:nonzero;stroke:none"
         d="m 205.039,192.781 0,-8.32 15,0" /><path
         id="path148"
         style="fill:none;stroke:#ffffff;stroke-width:3.72127008;stroke-linecap:round;stroke-linejoin:round;stroke-miterlimit:4;stroke-dasharray:none;stroke-opacity:1"
         d="m 205.039,192.785 0,-8.32 15,0" /><path
         id="path150"
         style="fill:#2c6aa2;fill-opacity:1;fill-rule:nonzero;stroke:none"
         d="m 34.1016,152.199 0,-8.32 15,0" /><path
         id="path152"
         style="fill:none;stroke:#ffffff;stroke-width:3.72127008;stroke-linecap:round;stroke-linejoin:round;stroke-miterlimit:4;stroke-dasharray:none;stroke-opacity:1"
         d="m 34.1016,152.191 0,-8.316 15,0" /><path
         id="path154"
         style="fill:#2c6aa2;fill-opacity:1;fill-rule:nonzero;stroke:none"
         d="m 55.0391,152.199 0,-8.32 15.039,0" /><path
         id="path156"
         style="fill:none;stroke:#ffffff;stroke-width:3.72127008;stroke-linecap:round;stroke-linejoin:round;stroke-miterlimit:4;stroke-dasharray:none;stroke-opacity:1"
         d="m 55.0391,152.191 0,-8.316 15.039,0" /><path
         id="path158"
         style="fill:#2c6aa2;fill-opacity:1;fill-rule:nonzero;stroke:none"
         d="m 35.2305,136.57 0,-8.359 15.039,0" /><path
         id="path160"
         style="fill:none;stroke:#ffffff;stroke-width:3.72127008;stroke-linecap:round;stroke-linejoin:round;stroke-miterlimit:4;stroke-dasharray:none;stroke-opacity:1"
         d="m 35.2305,136.574 0,-8.359 15.039,0" /><path
         id="path162"
         style="fill:#2c6aa2;fill-opacity:1;fill-rule:nonzero;stroke:none"
         d="m 56.1719,136.57 0,-8.359 15.039,0" /><path
         id="path164"
         style="fill:none;stroke:#ffffff;stroke-width:3.72127008;stroke-linecap:round;stroke-linejoin:round;stroke-miterlimit:4;stroke-dasharray:none;stroke-opacity:1"
         d="m 56.1719,136.574 0,-8.359 15.039,0" /><path
         id="path166"
         style="fill:#2c6aa2;fill-opacity:1;fill-rule:nonzero;stroke:none"
         d="m 35.2305,122.469 0,-8.278 15.039,0" /><path
         id="path168"
         style="fill:none;stroke:#ffffff;stroke-width:3.72127008;stroke-linecap:round;stroke-linejoin:round;stroke-miterlimit:4;stroke-dasharray:none;stroke-opacity:1"
         d="m 35.2305,122.473 0,-8.282 15.039,0" /><path
         id="path170"
         style="fill:#2c6aa2;fill-opacity:1;fill-rule:nonzero;stroke:none"
         d="m 56.1719,122.469 0,-8.278 15.039,0" /><path
         id="path172"
         style="fill:none;stroke:#ffffff;stroke-width:3.72127008;stroke-linecap:round;stroke-linejoin:round;stroke-miterlimit:4;stroke-dasharray:none;stroke-opacity:1"
         d="m 56.1719,122.473 0,-8.282 15.039,0" /><path
         id="path174"
         style="fill:#2c6aa2;fill-opacity:1;fill-rule:nonzero;stroke:none"
         d="m 126.91,248.68 0,-8.321 15.039,0" /><path
         id="path176"
         style="fill:none;stroke:#ffffff;stroke-width:3.72127008;stroke-linecap:round;stroke-linejoin:round;stroke-miterlimit:4;stroke-dasharray:none;stroke-opacity:1"
         d="m 126.91,248.684 0,-8.321 15.039,0" /><path
         id="path178"
         style="fill:#2c6aa2;fill-opacity:1;fill-rule:nonzero;stroke:none"
         d="m 147.891,248.68 0,-8.321 15,0" /><path
         id="path180"
         style="fill:none;stroke:#ffffff;stroke-width:3.72127008;stroke-linecap:round;stroke-linejoin:round;stroke-miterlimit:4;stroke-dasharray:none;stroke-opacity:1"
         d="m 147.891,248.684 0,-8.321 15,0" /><path
         id="path182"
         style="fill:#2c6aa2;fill-opacity:1;fill-rule:nonzero;stroke:none"
         d="m 84.8008,248.449 0,-8.32 15,0" /><path
         id="path184"
         style="fill:none;stroke:#ffffff;stroke-width:3.72127008;stroke-linecap:round;stroke-linejoin:round;stroke-miterlimit:4;stroke-dasharray:none;stroke-opacity:1"
         d="m 84.8008,248.441 0,-8.316 15,0" /><path
         id="path186"
         style="fill:#2c6aa2;fill-opacity:1;fill-rule:nonzero;stroke:none"
         d="m 105.699,248.449 0,-8.32 15.039,0" /><path
         id="path188"
         style="fill:none;stroke:#ffffff;stroke-width:3.72127008;stroke-linecap:round;stroke-linejoin:round;stroke-miterlimit:4;stroke-dasharray:none;stroke-opacity:1"
         d="m 105.699,248.441 0,-8.316 15.039,0" /><path
         id="path190"
         style="fill:#2c6aa2;fill-opacity:1;fill-rule:nonzero;stroke:none"
         d="m 126.719,231.379 0,-8.359 15.043,0" /><path
         id="path192"
         style="fill:none;stroke:#ffffff;stroke-width:3.72127008;stroke-linecap:round;stroke-linejoin:round;stroke-miterlimit:4;stroke-dasharray:none;stroke-opacity:1"
         d="m 126.719,231.375 0,-8.363 15.043,0" /><path
         id="path194"
         style="fill:#2c6aa2;fill-opacity:1;fill-rule:nonzero;stroke:none"
         d="m 147.699,231.379 0,-8.359 15,0" /><path
         id="path196"
         style="fill:none;stroke:#ffffff;stroke-width:3.72127008;stroke-linecap:round;stroke-linejoin:round;stroke-miterlimit:4;stroke-dasharray:none;stroke-opacity:1"
         d="m 147.699,231.375 0,-8.363 15,0" /><path
         id="path198"
         style="fill:#2c6aa2;fill-opacity:1;fill-rule:nonzero;stroke:none"
         d="m 84.6094,231.141 0,-8.321 15.039,0" /><path
         id="path200"
         style="fill:none;stroke:#ffffff;stroke-width:3.72127008;stroke-linecap:round;stroke-linejoin:round;stroke-miterlimit:4;stroke-dasharray:none;stroke-opacity:1"
         d="m 84.6094,231.145 0,-8.321 15.039,0" /><path
         id="path202"
         style="fill:#2c6aa2;fill-opacity:1;fill-rule:nonzero;stroke:none"
         d="m 105.59,231.141 0,-8.321 15,0" /><path
         id="path204"
         style="fill:none;stroke:#ffffff;stroke-width:3.72127008;stroke-linecap:round;stroke-linejoin:round;stroke-miterlimit:4;stroke-dasharray:none;stroke-opacity:1"
         d="m 105.59,231.145 0,-8.321 15,0" /><path
         id="path206"
         style="fill:#2c6aa2;fill-opacity:1;fill-rule:nonzero;stroke:none"
         d="m 126.719,214.809 0,-8.36 15.043,0" /><path
         id="path208"
         style="fill:none;stroke:#ffffff;stroke-width:3.72127008;stroke-linecap:round;stroke-linejoin:round;stroke-miterlimit:4;stroke-dasharray:none;stroke-opacity:1"
         d="m 126.719,214.813 0,-8.36 15.043,0" /><path
         id="path210"
         style="fill:#2c6aa2;fill-opacity:1;fill-rule:nonzero;stroke:none"
         d="m 147.699,214.809 0,-8.36 15,0" /><path
         id="path212"
         style="fill:none;stroke:#ffffff;stroke-width:3.72127008;stroke-linecap:round;stroke-linejoin:round;stroke-miterlimit:4;stroke-dasharray:none;stroke-opacity:1"
         d="m 147.699,214.813 0,-8.36 15,0" /><path
         id="path214"
         style="fill:#2c6aa2;fill-opacity:1;fill-rule:nonzero;stroke:none"
         d="m 84.6094,214.578 0,-8.316 15.039,0" /><path
         id="path216"
         style="fill:none;stroke:#ffffff;stroke-width:3.72127008;stroke-linecap:round;stroke-linejoin:round;stroke-miterlimit:4;stroke-dasharray:none;stroke-opacity:1"
         d="m 84.6094,214.582 0,-8.32 15.039,0" /><path
         id="path218"
         style="fill:#2c6aa2;fill-opacity:1;fill-rule:nonzero;stroke:none"
         d="m 105.59,214.578 0,-8.316 15,0" /><path
         id="path220"
         style="fill:none;stroke:#ffffff;stroke-width:3.72127008;stroke-linecap:round;stroke-linejoin:round;stroke-miterlimit:4;stroke-dasharray:none;stroke-opacity:1"
         d="m 105.59,214.582 0,-8.32 15,0" /><path
         id="path222"
         style="fill:#2c6aa2;fill-opacity:1;fill-rule:nonzero;stroke:none"
         d="m 126.719,199.461 0,-8.32 15.043,0" /><path
         id="path224"
         style="fill:none;stroke:#ffffff;stroke-width:3.72127008;stroke-linecap:round;stroke-linejoin:round;stroke-miterlimit:4;stroke-dasharray:none;stroke-opacity:1"
         d="m 126.719,199.465 0,-8.32 15.043,0" /><path
         id="path226"
         style="fill:#2c6aa2;fill-opacity:1;fill-rule:nonzero;stroke:none"
         d="m 147.699,199.461 0,-8.32 15,0" /><path
         id="path228"
         style="fill:none;stroke:#ffffff;stroke-width:3.72127008;stroke-linecap:round;stroke-linejoin:round;stroke-miterlimit:4;stroke-dasharray:none;stroke-opacity:1"
         d="m 147.699,199.465 0,-8.32 15,0" /><path
         id="path230"
         style="fill:#2c6aa2;fill-opacity:1;fill-rule:nonzero;stroke:none"
         d="m 84.6094,199.27 0,-8.36 15.039,0" /><path
         id="path232"
         style="fill:none;stroke:#ffffff;stroke-width:3.72127008;stroke-linecap:round;stroke-linejoin:round;stroke-miterlimit:4;stroke-dasharray:none;stroke-opacity:1"
         d="m 84.6094,199.262 0,-8.36 15.039,0" /><path
         id="path234"
         style="fill:#2c6aa2;fill-opacity:1;fill-rule:nonzero;stroke:none"
         d="m 105.59,199.27 0,-8.36 15,0" /><path
         id="path236"
         style="fill:none;stroke:#ffffff;stroke-width:3.72127008;stroke-linecap:round;stroke-linejoin:round;stroke-miterlimit:4;stroke-dasharray:none;stroke-opacity:1"
         d="m 105.59,199.262 0,-8.36 15,0" /><path
         id="path238"
         style="fill:none;stroke:#ffffff;stroke-width:3.72127008;stroke-linecap:round;stroke-linejoin:round;stroke-miterlimit:4;stroke-dasharray:none;stroke-opacity:1"
         d="m 183.871,178.012 0,-8.321" /><path
         id="path240"
         style="fill:none;stroke:#ffffff;stroke-width:3.72127008;stroke-linecap:round;stroke-linejoin:round;stroke-miterlimit:4;stroke-dasharray:none;stroke-opacity:1"
         d="m 183.871,169.691 15.039,0" /><path
         id="path242"
         style="fill:#2c6aa2;fill-opacity:1;fill-rule:nonzero;stroke:none"
         d="m 204.801,178.02 0,-8.321 15.039,0" /><path
         id="path244"
         style="fill:none;stroke:#ffffff;stroke-width:3.72127008;stroke-linecap:round;stroke-linejoin:round;stroke-miterlimit:4;stroke-dasharray:none;stroke-opacity:1"
         d="m 204.801,178.012 0,-8.321 15.039,0" /><path
         id="path246"
         style="fill:none;stroke:#ffffff;stroke-width:3.72127008;stroke-linecap:round;stroke-linejoin:round;stroke-miterlimit:4;stroke-dasharray:none;stroke-opacity:1"
         d="m 183.871,163.723 0,-8.321" /><path
         id="path248"
         style="fill:none;stroke:#ffffff;stroke-width:3.72127008;stroke-linecap:round;stroke-linejoin:round;stroke-miterlimit:4;stroke-dasharray:none;stroke-opacity:1"
         d="m 183.871,155.402 15.039,0" /><path
         id="path250"
         style="fill:#2c6aa2;fill-opacity:1;fill-rule:nonzero;stroke:none"
         d="m 204.801,163.719 0,-8.321 15.039,0" /><path
         id="path252"
         style="fill:none;stroke:#ffffff;stroke-width:3.72127008;stroke-linecap:round;stroke-linejoin:round;stroke-miterlimit:4;stroke-dasharray:none;stroke-opacity:1"
         d="m 204.801,163.723 0,-8.321 15.039,0" /><path
         id="path254"
         style="fill:#ffffff;fill-opacity:1;fill-rule:evenodd;stroke:none"
         d="m 160.121,263.289 0,4.102 0.078,2.808 0.231,2.66 0.39,2.539 0.508,2.383 0.621,2.231 0.75,2.109 0.852,1.988 0.898,1.84 1.02,1.75 1.133,1.61 1.128,1.519 1.219,1.41 1.25,1.282 1.25,1.218 1.321,1.051 1.289,1.02 1.293,0.89 1.328,0.821 1.25,0.75 1.25,0.66 1.211,0.59 1.168,0.5 1.101,0.468 1.012,0.391 1.758,0.59 0.742,0.203 0.629,0.187 0.898,0.2 0.313,0.07 -28.992,0 -0.27,-0.07 -0.898,-0.2 -0.622,-0.187 -0.75,-0.203 -0.859,-0.27 -0.93,-0.32 -1.019,-0.391 -1.094,-0.468 -1.129,-0.5 -1.219,-0.59 -1.25,-0.66 -1.281,-0.75 -1.289,-0.821 -1.289,-0.89 -1.332,-1.02 -1.289,-1.051 -1.289,-1.218 -1.25,-1.282 -1.172,-1.41 -1.168,-1.519 -1.101,-1.61 -1.008,-1.711 -0.942,-1.879 -0.859,-1.988 -0.742,-2.109 -0.629,-2.231 -0.5,-2.383 -0.36,-2.539 -0.269,-1.211 -0.039,-2.808 0,-6.762 28.949,1.211" /><path
         id="path256"
         style="fill:#181817;fill-opacity:1;fill-rule:nonzero;stroke:none"
         d="m 162.07,267.391 -3.91,0 0,-4.102 3.91,0 0,4.34 -0.039,0.191 -0.23,0.59 -0.121,0.149 -0.078,0.121 -0.153,0.16 -0.16,0.109 -0.117,0.082 -0.192,0.078 -0.16,0.082 -0.16,0.039 -0.191,0.04 -0.16,0.039 -0.387,0 -0.152,-0.039 -0.2,-0.04 -0.16,-0.039 -0.148,-0.082 -0.203,-0.078 -0.11,-0.082 -0.16,-0.109 -0.117,-0.16 -0.121,-0.121 -0.11,-0.149 -0.242,-0.59 0,-0.191 -0.039,-0.238 3.91,0" /><path
         id="path258"
         style="fill:#181817;fill-opacity:1;fill-rule:nonzero;stroke:none"
         d="m 188.012,301.219 -0.313,3.793 -0.429,-0.082 -0.942,-0.231 -0.668,-0.16 -0.781,-0.23 -0.899,-0.278 -0.968,-0.351 -1.063,-0.43 -1.75,-0.699 -0.629,-0.281 -1.25,-0.622 -1.992,-1.058 -1.328,-0.852 -0.699,-0.429 -0.672,-0.469 -0.699,-0.469 -0.7,-0.512 -0.71,-0.55 -1.321,-1.168 -0.711,-0.621 -0.66,-0.629 -0.668,-0.661 -0.66,-0.71 -1.25,-1.481 -0.629,-0.777 -0.582,-0.821 -0.629,-0.82 -1.09,-1.801 -0.55,-0.941 -0.5,-0.969 -0.942,-2.031 -0.43,-1.059 -0.429,-1.09 -0.348,-1.14 -0.351,-1.168 -0.321,-1.211 -0.269,-1.211 -0.27,-1.25 -0.238,-1.328 -0.152,-1.332 -0.079,-0.699 -0.082,-0.661 -0.078,-1.41 -0.043,-0.742 -0.039,-0.699 -0.039,-0.75 0,-0.738 3.91,0 0,2.031 0.078,1.328 0.082,0.629 0.04,0.66 0.07,0.59 0.082,0.621 0.078,0.59 0.121,0.621 0.078,0.59 0.231,1.168 0.269,1.09 0.281,1.062 0.309,1.051 0.352,1.019 0.347,0.981 0.391,0.969 0.391,0.898 0.429,0.902 0.473,0.86 0.937,1.64 0.512,0.778 0.539,0.742 0.512,0.711 0.59,0.699 0.539,0.699 0.551,0.629 1.796,1.789 0.582,0.551 1.25,1.02 0.59,0.5 0.629,0.429 0.621,0.473 0.629,0.43 0.621,0.39 0.59,0.348 0.621,0.359 0.59,0.352 0.617,0.351 1.723,0.86 1.09,0.469 1.058,0.429 0.942,0.391 0.898,0.269 0.821,0.27 0.699,0.199 0.582,0.16 0.82,0.192 0.238,0.039 -0.347,3.832 0.347,-3.832 0.192,0.082 0.238,0.039 0.191,0.082 0.469,0.348 0.242,0.308 0.079,0.16 0.031,0.153 0.078,0.16 0.043,0.187 0,0.711 -0.043,0.192 -0.078,0.16 -0.031,0.148 -0.079,0.16 -0.242,0.313 -0.23,0.238 -0.16,0.11 -0.149,0.082 -0.199,0.078 -0.16,0.082 -0.192,0.039 -0.468,0 -0.192,-0.039 0.313,-3.793" /><path
         id="path260"
         style="fill:#181817;fill-opacity:1;fill-rule:nonzero;stroke:none"
         d="m 158.711,305.012 0.309,-3.793 28.992,0 0,3.832 -28.992,0 -0.309,-0.039 0.309,0.039 -0.192,0 -0.238,-0.039 -0.192,-0.043 -0.199,-0.078 -0.148,-0.121 -0.199,-0.071 -0.122,-0.121 -0.109,-0.156 -0.16,-0.113 -0.231,-0.469 -0.039,-0.16 -0.082,-0.391 0,-0.348 0.039,-0.203 0.043,-0.148 0.039,-0.199 0.149,-0.313 0.082,-0.117 0.16,-0.152 0.109,-0.161 0.122,-0.078 0.199,-0.121 0.148,-0.07 0.199,-0.078 0.192,-0.039 0.238,-0.043 0.192,0 -0.309,3.793" /><path
         id="path262"
         style="fill:#181817;fill-opacity:1;fill-rule:nonzero;stroke:none"
         d="m 133.09,268.84 0,1.359 0.07,1.332 0.039,-0.781 0.039,0.629 0.082,0.66 0.078,0.633 0.082,0.578 0.071,0.629 0.078,0.582 0.351,1.758 0.122,0.551 0.117,0.5 0.269,1.14 0.313,1.051 0.711,1.961 0.429,0.969 0.387,0.937 0.434,0.863 0.468,0.899 0.469,0.781 0.461,0.82 0.512,0.778 0.508,0.742 1.64,2.109 1.168,1.25 1.172,1.168 0.629,0.551 0.621,0.512 0.59,0.508 0.621,0.5 0.629,0.472 0.59,0.43 0.66,0.43 0.59,0.39 0.621,0.348 0.59,0.391 0.578,0.32 0.633,0.351 0.578,0.27 0.59,0.309 0.59,0.281 0.5,0.23 0.55,0.239 1.059,0.429 0.973,0.391 0.898,0.269 0.781,0.27 0.699,0.199 0.59,0.16 0.86,0.192 0.199,0.039 -0.668,3.793 -0.391,-0.082 -0.941,-0.231 -0.699,-0.16 -0.782,-0.23 -0.859,-0.278 -1.019,-0.351 -1.051,-0.391 -1.129,-0.469 -0.629,-0.269 -0.59,-0.281 -0.66,-0.309 -0.621,-0.313 -0.629,-0.347 -1.332,-0.711 -0.66,-0.418 -0.699,-0.402 -0.711,-0.461 -0.661,-0.469 -0.699,-0.469 -0.668,-0.512 -0.703,-0.55 -0.668,-0.539 -1.398,-1.25 -0.672,-0.629 -0.621,-0.661 -0.668,-0.71 -0.66,-0.739 -0.621,-0.742 -0.59,-0.777 -0.629,-0.821 -0.582,-0.82 -0.59,-0.902 -0.539,-0.899 -0.512,-0.941 -1.019,-1.949 -0.469,-1.051 -0.391,-1.059 -0.429,-1.09 -0.391,-1.14 -0.309,-1.168 -0.351,-1.172 -0.117,-0.621 -0.153,-0.629 -0.121,-0.621 -0.117,-0.668 -0.121,-0.621 -0.11,-0.668 -0.16,-1.332 -0.082,-0.699 -0.078,-0.661 -0.07,-0.71 -0.039,-0.7 -0.039,0.7 -0.043,-0.7 0,-1.718 0.043,-0.231 0.039,-0.199 0.078,-0.192 0.109,-0.16 0.082,-0.191 0.231,-0.238 0.32,-0.231 0.309,-0.16 0.191,-0.039 0.16,-0.039 0.739,0 0.16,0.039 0.199,0.039 0.312,0.16 0.149,0.11 0.121,0.121 0.16,0.121 0.109,0.117 0.079,0.191 0.121,0.16 0.082,0.192 0.039,0.199 0.039,0.231 0,0.238" /><path
         id="path264"
         style="fill:#181817;fill-opacity:1;fill-rule:nonzero;stroke:none"
         d="m 131.328,260.172 1.762,1.906 0,6.762 -3.871,0 0,-6.762 2.109,-1.906 -2.109,1.906 0,-0.269 0.082,-0.387 0.078,-0.203 0.109,-0.16 0.082,-0.188 0.231,-0.242 0.32,-0.231 0.309,-0.16 0.191,-0.039 0.16,-0.027 0.199,-0.043 0.348,0 0.192,0.043 0.16,0.027 0.199,0.039 0.312,0.16 0.149,0.122 0.121,0.109 0.16,0.121 0.109,0.121 0.079,0.188 0.121,0.16 0.082,0.203 0.078,0.387 0,0.269 -1.762,-1.906" /><path
         id="path266"
         style="fill:#181817;fill-opacity:1;fill-rule:nonzero;stroke:none"
         d="m 162.07,263.289 -2.109,1.91 -28.981,-1.25 0.348,-3.777 28.942,1.207 1.8,1.91 -1.8,-1.91 0.468,0.07 0.391,0.16 0.32,0.231 0.11,0.121 0.121,0.16 0.082,0.117 0.117,0.192 0.031,0.121 0.078,0.187 0.043,0.16 0,0.192 0.039,0.16 -0.039,0.199 0,0.192 -0.043,0.16 -0.078,0.148 -0.07,0.199 -0.16,0.313 -0.121,0.117 -0.11,0.16 -0.16,0.114 -0.469,0.238 -0.23,0.082 -0.199,0.027 -0.43,0 2.109,-1.91" /><path
         id="path268"
         style="fill:#100f0d;fill-opacity:1;fill-rule:nonzero;stroke:none"
         d="m 158.16,263.289 3.91016,0 0,4.10156 -3.91016,0 0,-4.10156 z" /><path
         id="path270"
         style="fill:#100f0d;fill-opacity:1;fill-rule:nonzero;stroke:none"
         d="m 159.02,301.219 28.9805,0 0,3.83203 -28.9805,0 0,-3.83203 z" /><path
         id="path272"
         style="fill:#100f0d;fill-opacity:1;fill-rule:nonzero;stroke:none"
         d="m 129.219,262.078 3.87109,0 0,6.76172 -3.87109,0 0,-6.76172 z" /><path
         id="path274"
         style="fill:#ffffff;fill-opacity:1;fill-rule:evenodd;stroke:none"
         d="m 157.422,303.129 34.34,0 3.707,-0.5 3.441,-0.899 3.238,-1.25 2.973,-1.558 2.809,-1.844 2.539,-2.148 2.383,-2.379 2.148,-2.582 1.988,-2.809 1.801,-2.969 1.641,-3.089 1.48,-3.243 1.328,-3.32 1.172,-3.398 1.02,-3.403 0.941,-3.468 0.82,-3.442 0.661,-3.398 0.589,2.929 0.469,-3.238 0.43,-3.133 0.308,-3.039 0.231,-2.82 0.199,-2.649 0.152,11.051 0.079,-2.191 0.082,-1.91 0.039,-1.641 0,-2.301 -0.039,-0.789 30.039,0 -47.192,-46.91 -47.218,46.91 30.031,0 0,4.813 -0.031,1.949 -0.122,2.23 -0.16,-11.019 -0.187,2.656 -0.242,2.891 -0.309,3.051 -0.43,3.16 -0.468,-2.969 -0.582,3.359 -0.668,3.442 -0.821,3.476 -0.941,3.473 -1.012,3.437 -1.168,3.442 -1.332,3.32 -1.488,3.238 -1.641,3.09 -1.789,2.961 -2,2.781 -2.14,2.579 -2.391,2.339 -2.539,2.071 -2.77,1.801 -3.011,1.48 -3.2,1.172 -3.48,0.777 -3.707,0.43" /><path
         id="path276"
         style="fill:#181817;fill-opacity:1;fill-rule:nonzero;stroke:none"
         d="m 191.91,305.051 -34.488,0 0,-3.832 34.34,0 0.148,3.832 -0.148,-3.832 0.226,0 0.242,0.043 0.192,0.039 0.387,0.148 0.121,0.121 0.16,0.078 0.148,0.161 0.121,0.152 0.082,0.117 0.079,0.16 0.031,0.153 0.078,0.199 0.043,0.148 0,0.203 0.039,0.188 -0.039,0.16 0,0.199 -0.043,0.192 -0.078,0.16 -0.031,0.148 -0.161,0.321 -0.269,0.269 -0.16,0.121 -0.121,0.071 -0.188,0.121 -0.199,0.078 -0.192,0.043 -0.242,0.039 -0.226,0 0.148,0" /><path
         id="path278"
         style="fill:#181817;fill-opacity:1;fill-rule:nonzero;stroke:none"
         d="m 230.391,249.621 1.91,-1.949 0.039,0.816 0,2.301 -0.039,1.68 -0.031,1.953 -0.122,2.226 -0.117,-11.058 -0.082,1.332 -0.148,1.367 -0.121,1.41 -0.121,1.442 -0.309,3.05 -0.199,1.559 -0.231,1.641 -0.23,1.597 -0.238,1.684 -0.313,-4.57 -0.269,1.679 -0.36,1.719 -0.351,1.762 -0.43,1.718 -0.391,1.758 -0.429,1.75 -1.008,3.524 -0.551,1.718 -0.27,0.899 -1.25,3.43 -0.351,0.863 -0.32,0.859 -0.387,0.821 -0.352,0.859 -0.39,0.82 -0.352,0.821 -0.387,0.82 -0.429,0.816 -0.391,0.821 -0.43,0.781 -0.472,0.832 -0.43,0.738 -0.937,1.559 -1.524,2.23 -0.508,0.699 -0.55,0.743 -0.54,0.668 -0.55,0.703 -1.758,1.988 -1.25,1.25 -0.66,0.59 -0.633,0.582 -0.699,0.59 -0.66,0.547 -0.711,0.543 -1.399,1.019 -0.781,0.508 -0.75,0.461 -1.559,0.859 -1.64,0.789 -0.821,0.352 -0.859,0.351 -1.719,0.618 -0.941,0.242 -0.891,0.269 -0.937,0.239 -0.942,0.191 -0.941,0.16 -0.969,0.149 -0.98,0.121 -1.02,0.121 -0.308,-3.832 0.898,-0.078 0.898,-0.121 0.821,-0.11 0.902,-0.199 0.82,-0.152 0.778,-0.2 1.64,-0.468 2.231,-0.821 0.781,-0.308 1.399,-0.703 0.71,-0.387 0.661,-0.402 0.66,-0.43 0.668,-0.391 1.25,-0.929 0.66,-0.469 0.59,-0.473 0.582,-0.508 0.629,-0.55 0.59,-0.5 0.539,-0.59 0.55,-0.551 0.551,-0.578 0.539,-0.629 1.531,-1.871 0.5,-0.672 0.469,-0.617 0.43,-0.703 0.512,-0.668 0.859,-1.403 1.289,-2.226 0.781,-1.492 0.352,-0.782 0.43,-0.777 0.347,-0.742 0.352,-0.778 0.359,-0.82 0.309,-0.82 0.312,-0.781 0.309,-0.821 0.359,-0.82 0.27,-0.82 0.312,-0.821 0.547,-1.648 0.512,-1.711 0.5,-1.641 0.469,-1.718 0.429,-1.68 0.782,-3.36 0.351,-1.718 0.359,-1.641 0.27,-1.68 0.27,4.61 0.468,-3.211 0.242,-1.559 0.149,-1.519 0.199,-1.492 0.152,-1.481 0.239,-2.809 0.121,-1.332 0.07,-1.25 0.16,11.051 0.078,-2.14 0.082,-1.918 0,-4.61 1.911,-1.992 -1.911,1.992 0,-0.472 0.071,-0.188 0.039,-0.199 0.082,-0.152 0.117,-0.2 0.121,-0.121 0.11,-0.148 0.16,-0.121 0.121,-0.078 0.187,-0.082 0.313,-0.149 0.16,-0.043 0.199,-0.039 0.539,0 0.16,0.039 0.192,0.082 0.16,0.039 0.16,0.071 0.188,0.082 0.121,0.117 0.121,0.16 0.148,0.109 0.082,0.16 0.117,0.161 0.082,0.191 0.04,0.199 0.031,0.231 0,0.242 -1.91,1.949" /><path
         id="path280"
         style="fill:#181817;fill-opacity:1;fill-rule:nonzero;stroke:none"
         d="m 232.539,245.789 0,3.832 -2.148,0 0,-3.832 2.379,0 0.199,0.039 0.23,0.043 0.199,0.078 0.153,0.071 0.32,0.242 0.109,0.117 0.122,0.152 0.078,0.16 0.121,0.149 0.039,0.16 0.07,0.16 0.039,0.192 0,0.16 0.039,0.187 -0.039,0.16 0,0.2 -0.039,0.191 -0.07,0.16 -0.039,0.149 -0.121,0.16 -0.078,0.16 -0.122,0.152 -0.109,0.117 -0.32,0.231 -0.153,0.082 -0.199,0.078 -0.23,0.039 -0.199,0.043 -0.231,0 0,-3.832" /><path
         id="path282"
         style="fill:#181817;fill-opacity:1;fill-rule:nonzero;stroke:none"
         d="m 261.801,246.34 -1.371,3.281 -27.891,0 0,-3.832 27.891,0 1.371,0.551 -1.371,-0.551 0.23,0 0.238,0.039 0.153,0.043 0.238,0.078 0.16,0.071 0.192,0.121 0.078,0.121 0.16,0.117 0.109,0.152 0.082,0.16 0.121,0.149 0.079,0.16 0.031,0.16 0,0.192 0.039,0.16 0,0.347 -0.039,0.2 0,0.191 -0.031,0.16 -0.079,0.149 -0.121,0.16 -0.082,0.16 -0.109,0.152 -0.16,0.117 -0.078,0.122 -0.192,0.109 -0.16,0.082 -0.238,0.078 -0.153,0.039 -0.238,0.043 -0.23,0 1.371,-3.281" /><path
         id="path284"
         style="fill:#181817;fill-opacity:1;fill-rule:nonzero;stroke:none"
         d="m 211.84,199.422 2.769,0 47.192,46.918 -2.742,2.73 -47.219,-46.91 0,-2.738 0,2.738 -0.16,-0.16 -0.231,-0.391 -0.078,-0.187 -0.043,-0.16 -0.039,-0.203 -0.039,-0.149 0,-0.199 0.039,-0.191 0.039,-0.161 0.043,-0.187 0.078,-0.121 0.071,-0.199 0.121,-0.153 0.078,-0.121 0.121,-0.156 0.308,-0.231 0.153,-0.082 0.121,-0.078 0.199,-0.082 0.309,-0.07 0.23,-0.039 0.16,0 0.2,0.039 0.152,0.043 0.199,0.027 0.188,0.082 0.16,0.117 0.191,0.122 0.199,0.152 -2.769,0" /><path
         id="path286"
         style="fill:#181817;fill-opacity:1;fill-rule:nonzero;stroke:none"
         d="m 166.02,249.621 -1.372,-3.242 47.192,-46.957 2.769,2.738 -47.23,46.91 -1.359,0.551 1.359,-0.551 -0.149,0.121 -0.199,0.149 -0.152,0.121 -0.199,0.078 -0.2,0.039 -0.152,0.043 -0.199,0.039 -0.188,0 -0.16,-0.039 -0.191,-0.043 -0.16,-0.039 -0.2,-0.078 -0.308,-0.152 -0.121,-0.118 -0.153,-0.121 -0.117,-0.148 -0.121,-0.121 -0.308,-0.629 -0.043,-0.192 0,-0.55 0.043,-0.192 0.078,-0.16 0.082,-0.199 0.078,-0.149 0.148,-0.199 0.16,-0.152 1.372,3.242" /><path
         id="path288"
         style="fill:#181817;fill-opacity:1;fill-rule:nonzero;stroke:none"
         d="m 197.969,247.672 -1.918,1.949 -30.031,0 0,-3.832 30.031,0 1.918,1.883 -1.918,-1.883 0.238,0 0.231,0.039 0.199,0.043 0.191,0.078 0.16,0.071 0.2,0.121 0.109,0.121 0.16,0.117 0.121,0.152 0.231,0.469 0.039,0.16 0.039,0.192 0,0.16 0.043,0.187 -0.043,0.16 0,0.2 -0.039,0.191 -0.039,0.16 -0.231,0.469 -0.121,0.152 -0.16,0.117 -0.109,0.122 -0.2,0.109 -0.16,0.082 -0.191,0.078 -0.199,0.039 -0.231,0.043 -0.238,0 1.918,-1.949" /><path
         id="path290"
         style="fill:#181817;fill-opacity:1;fill-rule:nonzero;stroke:none"
         d="m 157.422,305.051 -0.082,-3.832 0.898,-0.078 0.864,-0.082 1.718,-0.231 1.641,-0.308 0.777,-0.239 0.782,-0.191 0.781,-0.238 0.75,-0.274 0.777,-0.269 0.742,-0.321 1.41,-0.617 0.661,-0.391 0.699,-0.351 0.672,-0.43 0.66,-0.39 0.629,-0.43 1.871,-1.41 1.758,-1.52 1.09,-1.097 1.101,-1.172 1.52,-1.871 0.468,-0.668 0.512,-0.661 0.93,-1.332 0.429,-0.699 0.469,-0.711 0.391,-0.738 0.43,-0.699 0.39,-0.742 0.43,-0.75 0.39,-0.739 0.399,-0.781 1.051,-2.34 0.39,-0.777 0.942,-2.473 0.308,-0.777 0.309,-0.863 0.32,-0.821 0.539,-1.636 0.512,-1.723 0.512,-1.68 0.937,-3.429 0.352,-1.68 0.429,-1.719 0.309,-1.68 0.352,-1.679 0.269,-1.684 0.32,4.613 0.192,-1.64 0.277,-1.641 0.192,-1.57 0.16,-1.559 0.187,-1.519 0.16,-1.492 0.122,-1.442 0.109,-1.406 0.121,-1.332 0.078,-1.281 0.152,11.05 0.079,-2.23 0.082,-1.91 0,-4.688 3.828,-0.109 0.043,0.848 0,2.351 -0.043,1.68 -0.039,1.988 -0.121,-11.25 -0.11,2.5 -0.078,1.332 -0.121,1.367 -0.16,1.442 -0.07,1.449 -0.2,1.519 -0.16,1.563 -0.191,1.598 -0.199,1.64 -0.231,1.641 -0.269,-4.57 -0.282,1.679 -0.308,1.723 -0.7,3.519 -0.39,1.758 -0.86,3.512 -1.019,3.519 -0.551,1.758 -0.269,0.891 -0.313,0.859 -0.277,0.864 -0.352,0.859 -0.621,1.719 -0.348,0.859 -0.39,0.859 -0.36,0.864 -1.949,4.097 -0.429,0.782 -0.473,0.781 -0.43,0.777 -0.469,0.789 -0.46,0.742 -0.508,0.782 -0.473,0.738 -0.551,0.699 -0.508,0.75 -1.089,1.403 -0.551,0.668 -1.168,1.32 -0.582,0.629 -1.25,1.25 -0.668,0.59 -0.621,0.582 -0.711,0.55 -0.66,0.547 -0.7,0.543 -0.71,0.508 -1.481,0.941 -0.777,0.469 -0.742,0.43 -0.821,0.391 -0.789,0.39 -0.82,0.391 -2.57,0.937 -0.86,0.274 -0.898,0.269 -2.813,0.59 -0.937,0.117 -0.981,0.153 -0.98,0.078 -1.012,0.082 -0.117,-3.832 0.117,3.832 -0.238,0 -0.231,-0.039 -0.39,-0.082 -0.16,-0.121 -0.192,-0.071 -0.156,-0.117 -0.231,-0.242 -0.121,-0.149 -0.16,-0.308 -0.039,-0.16 -0.07,-0.203 -0.039,-0.149 0,-0.551 0.039,-0.187 0.039,-0.16 0.07,-0.203 0.078,-0.11 0.082,-0.199 0.121,-0.121 0.11,-0.149 0.121,-0.121 0.156,-0.121 0.192,-0.066 0.16,-0.082 0.23,-0.039 0.199,-0.082 0.231,0 0.082,3.832" /><path
         id="path292"
         style="fill:#ffffff;fill-opacity:1;fill-rule:evenodd;stroke:none"
         d="m 127.578,60.6289 -34.3397,0 -3.707,0.5117 -3.4415,0.8985 -3.1992,1.25 -3.0117,1.5625 -2.7695,1.8398 -2.5781,2.1484 -2.3399,2.379 -2.1914,2.582 -1.9883,2.8086 -1.8008,2.9687 -1.6406,3.0938 -1.4805,3.2383 -1.289,3.3203 -1.211,3.3984 -1.0195,3.3906 -0.9414,3.4805 -0.7773,3.441 -0.7032,3.399 -0.5898,3.32 -0.4688,3.238 -0.4296,3.122 -0.3086,3.05 -0.2305,-17.461 -0.1992,2.621 -0.1211,2.461 -0.1094,2.188 -0.043,1.91 -0.039,1.641 0,3.09 -30.0391,0 47.2305,46.91 47.1792,-46.91 -30.0308,0 0,-4.809 0.0703,-1.949 0.0821,-2.231 0.1601,-2.461 0.1875,-2.691 0.2422,17.422 0.3086,-3.051 0.4297,-3.16 0.4687,-3.281 0.5821,-3.36 0.7109,-3.437 0.7774,-3.4807 0.9414,-3.4727 1.0117,-3.4375 1.207,-3.4414 1.293,-3.3203 1.4883,-3.2383 1.6408,-3.0898 1.789,-2.9727 2,-2.7695 2.14,-2.5782 2.391,-2.3398 2.578,-2.0703 2.731,-1.8008 3.011,-1.4805 3.239,-1.1797 3.441,-0.7812 3.707,-0.4297" /><path
         id="path294"
         style="fill:none;stroke:#211c1d;stroke-width:6;stroke-linecap:butt;stroke-linejoin:miter;stroke-miterlimit:4;stroke-dasharray:none;stroke-opacity:1"
         d="m 127.578,60.6328 -34.3397,0 -3.707,0.5117 -3.4415,0.8985 -3.1992,1.25 -3.0117,1.5586 -2.7695,1.8398 -2.5781,2.1406 -2.3399,2.3907 L 70,73.793 l -1.9883,2.8203 -1.8008,2.9687 -1.6406,3.0821 -1.4805,3.2382 -1.289,3.3204 -1.211,3.4023 -1.0195,3.3984 -0.9414,3.4805 -0.7773,3.4371 -0.7032,3.391 -0.5898,3.32 -0.4688,3.25 -0.4296,3.121 -0.3086,3.051 -0.2305,-17.461 -0.1992,2.61 -0.1211,2.468 -0.1094,2.184 -0.043,1.918 -0.039,1.641 0,3.078 -30.0391,0 47.2305,46.922 47.1792,-46.922 -30.0308,0 0,-4.797 0.0703,-1.953 0.0821,-2.227 0.1601,-2.461 0.1875,-2.699 0.2422,17.418 0.3086,-3.039 0.4297,-3.172 0.4687,-3.277 0.5821,-3.364 0.7109,-3.429 0.7774,-3.4768 0.9414,-3.4805 1.0117,-3.4297 1.207,-3.4414 1.293,-3.3203 1.4883,-3.2383 1.6408,-3.0898 1.789,-2.9727 2,-2.7695 2.14,-2.5782 2.391,-2.3515 2.578,-2.0703 2.731,-1.7891 3.011,-1.4922 3.239,-1.1679 3.441,-0.7813 3.707,-0.4297 z" /><path
         id="path296"
         style="fill:#ffffff;fill-opacity:1;fill-rule:nonzero;stroke:none"
         d="m 146.051,73.6016 c -4.571,-9.1407 -19.571,-13.75 -19.571,-13.75 -6.679,0.4297 -14.57,6.25 -14.57,6.25 l 6.641,7.5" /><path
         id="path298"
         style="fill:none;stroke:#211c1d;stroke-width:6;stroke-linecap:butt;stroke-linejoin:miter;stroke-miterlimit:4;stroke-dasharray:none;stroke-opacity:1"
         d="m 146.051,73.6016 c -4.571,-9.1368 -19.571,-13.75 -19.571,-13.75 -6.679,0.4336 -14.57,6.25 -14.57,6.25 l 6.641,7.5" /></g></g></svg>