<svg xmlns="http://www.w3.org/2000/svg" viewBox="0 0 25 41.25" height="41.25" width="25"><path d="M.703 39.295h20.205V4.065H.703v35.23z" fill="#087bbb"/><path d="M.703 39.294h20.205V4.064H.703v35.23z" fill="none" stroke="#fff" stroke-width=".5"/><path d="M.703 4.065L4.565.93h19.477L20.91 4.065H.703" fill="#087bbb"/><path d="M.703 4.065L4.565.93h19.477L20.91 4.065H.703z" fill="none" stroke="#fff" stroke-width=".5"/><path d="M20.909 39.294l3.134-3.858V.93l-3.134 3.135v35.229" fill="#087bbb"/><path d="M20.909 39.294l3.134-3.857V.93l-3.134 3.135v35.23zM.356 36.746h20.108M.356 17.888h20.108" fill="none" stroke="#fff" stroke-width=".5"/><path d="M9.272 29.109v2.89H8.145l2.26 2.891L12.73 32h-1.134v-2.89H9.272M9.272 26.814v-2.89H8.145l2.26-2.891 2.325 2.89h-1.134v2.891H9.272M3.384 26.95h2.89v-1.128l2.891 2.262-2.89 2.324v-1.133H3.384V26.95M17.413 26.95H14.52v-1.128l-2.89 2.262 2.89 2.324v-1.133h2.892V26.95" fill="#fff"/><path d="M2.31 10.413h9.375V6.56H2.31v3.853z" fill="#087bbb"/><path d="M2.31 10.412h9.375V6.56H2.31v3.852zM3.248 8.62h7.602" fill="none" stroke="#fff" stroke-width=".5"/></svg>