<?xml version="1.0" encoding="UTF-8" standalone="no"?>
<svg
   xmlns:dc="http://purl.org/dc/elements/1.1/"
   xmlns:cc="http://creativecommons.org/ns#"
   xmlns:rdf="http://www.w3.org/1999/02/22-rdf-syntax-ns#"
   xmlns:svg="http://www.w3.org/2000/svg"
   xmlns="http://www.w3.org/2000/svg"
   viewBox="0 0 60.987499 34.375"
   height="34.375"
   width="60.987499"
   xml:space="preserve"
   version="1.1"
   id="svg2"><metadata
     id="metadata8"><rdf:RDF><cc:Work
         rdf:about=""><dc:format>image/svg+xml</dc:format><dc:type
           rdf:resource="http://purl.org/dc/dcmitype/StillImage" /></cc:Work></rdf:RDF></metadata><defs
     id="defs6" /><g
     transform="matrix(1.25,0,0,-1.25,0,34.375)"
     id="g10"><g
       transform="scale(0.1,0.1)"
       id="g12"><path
         id="path14"
         style="fill:#0881c1;fill-opacity:1;fill-rule:nonzero;stroke:none"
         d="m 5.65234,153.809 144.28166,116.679 333.105,0 -119.414,-116.679 -357.97266,0" /><path
         id="path16"
         style="fill:none;stroke:#ffffff;stroke-width:4;stroke-linecap:butt;stroke-linejoin:miter;stroke-miterlimit:4;stroke-dasharray:none;stroke-opacity:1"
         d="m 5.65234,153.809 144.28166,116.679 333.105,0 -119.414,-116.679 -357.97266,0 z" /><path
         id="path18"
         style="fill:#0881c1;fill-opacity:1;fill-rule:nonzero;stroke:none"
         d="m 363.625,4.89453 119.414,121.67947 0,143.699 -119.414,-116.464 0,-148.91447" /><path
         id="path20"
         style="fill:none;stroke:#ffffff;stroke-width:4;stroke-linecap:butt;stroke-linejoin:miter;stroke-miterlimit:4;stroke-dasharray:none;stroke-opacity:1"
         d="m 363.625,4.89453 119.414,121.67947 0,143.699 -119.414,-116.464 0,-148.91447 z" /><path
         id="path22"
         style="fill:#0881c1;fill-opacity:1;fill-rule:nonzero;stroke:none"
         d="m 6.14453,4.78516 357.48,0 0,149.023 -357.48,0 0,-149.023 z" /><path
         id="path24"
         style="fill:none;stroke:#ffffff;stroke-width:4;stroke-linecap:butt;stroke-linejoin:miter;stroke-miterlimit:4;stroke-dasharray:none;stroke-opacity:1"
         d="m 6.14453,4.78516 357.48,0 0,149.023 -357.48,0 0,-149.023 z" /><path
         id="path26"
         style="fill:none;stroke:#ffffff;stroke-width:4.5;stroke-linecap:round;stroke-linejoin:miter;stroke-miterlimit:1;stroke-dasharray:none;stroke-opacity:1"
         d="m 343.469,75.1094 c 0,0 -23.789,-61.1641 -52.383,0.1836 -28.574,61.289 -52.402,0.1093 -52.402,0.1093 0,0 -23.77,-61.1835 -52.344,0.1368 -28.559,61.3129 -52.27,-0.3907 -52.27,-0.3907 0,0 -23.711,-61.2031 -52.3122,0.1446 -28.5664,61.289 -52.2773,0.1679 -52.2773,0.1679" /><path
         id="path28"
         style="fill:none;stroke:#ffffff;stroke-width:9;stroke-linecap:round;stroke-linejoin:miter;stroke-miterlimit:1;stroke-dasharray:none;stroke-opacity:1"
         d="m 29.4805,75.1094 c 0,0 23.7929,-61.1641 52.3828,0.1836 28.5747,61.289 52.4067,0.1093 52.4067,0.1093 0,0 23.769,-61.1835 52.339,0.1368 28.567,61.3129 52.258,-0.3907 52.258,-0.3907 0,0 23.723,-61.2031 52.317,0.1446 28.574,61.289 52.285,0.1679 52.285,0.1679" /><path
         id="path30"
         style="fill:none;stroke:#231f20;stroke-width:4.5;stroke-linecap:round;stroke-linejoin:miter;stroke-miterlimit:1;stroke-dasharray:none;stroke-opacity:1"
         d="m 348.977,75.0977 c 0,0 -23.789,-61.1524 -52.383,0.1953 -28.574,61.289 -52.406,0.1093 -52.406,0.1093 0,0 -23.766,-61.1914 -52.34,0.125 -28.567,61.3247 -52.266,-0.3906 -52.266,-0.3906 0,0 -23.715,-61.1914 -52.3164,0.1563 -28.5664,61.289 -52.2773,0.1367 -52.2773,0.1367" /><path
         id="path32"
         style="fill:none;stroke:#231f20;stroke-width:9;stroke-linecap:round;stroke-linejoin:miter;stroke-miterlimit:1;stroke-dasharray:none;stroke-opacity:1"
         d="m 34.9883,75.0977 c 0,0 23.789,-61.1524 52.3867,0.1953 28.57,61.289 52.398,0.1093 52.398,0.1093 0,0 23.774,-61.1914 52.344,0.125 28.567,61.3247 52.246,-0.3906 52.246,-0.3906 0,0 23.735,-61.1914 52.325,0.1563 28.578,61.289 52.289,0.1367 52.289,0.1367" /><path
         id="path34"
         style="fill:none;stroke:#ffffff;stroke-width:4.5;stroke-linecap:round;stroke-linejoin:miter;stroke-miterlimit:1;stroke-dasharray:none;stroke-opacity:1"
         d="m 343.469,75.1094 c 0,0 -23.789,-61.1641 -52.383,0.1836 -28.574,61.289 -52.402,0.1093 -52.402,0.1093 0,0 -23.77,-61.1835 -52.344,0.1368 -28.559,61.3129 -52.27,-0.3907 -52.27,-0.3907 0,0 -23.711,-61.2031 -52.3122,0.1446 -28.5664,61.289 -52.2773,0.1679 -52.2773,0.1679" /><path
         id="path36"
         style="fill:none;stroke:#ffffff;stroke-width:9;stroke-linecap:round;stroke-linejoin:miter;stroke-miterlimit:1;stroke-dasharray:none;stroke-opacity:1"
         d="m 29.4805,75.1094 c 0,0 23.7929,-61.1641 52.3828,0.1836 28.5747,61.289 52.4067,0.1093 52.4067,0.1093 0,0 23.769,-61.1835 52.339,0.1368 28.567,61.3129 52.258,-0.3907 52.258,-0.3907 0,0 23.723,-61.2031 52.317,0.1446 28.574,61.289 52.285,0.1679 52.285,0.1679" /><path
         id="path38"
         style="fill:none;stroke:#231f20;stroke-width:4.5;stroke-linecap:round;stroke-linejoin:miter;stroke-miterlimit:1;stroke-dasharray:none;stroke-opacity:1"
         d="m 348.977,75.0977 c 0,0 -23.789,-61.1524 -52.383,0.1953 -28.574,61.289 -52.406,0.1093 -52.406,0.1093 0,0 -23.766,-61.1914 -52.34,0.125 -28.567,61.3247 -52.266,-0.3906 -52.266,-0.3906 0,0 -23.715,-61.1914 -52.3164,0.1563 -28.5664,61.289 -52.2773,0.1367 -52.2773,0.1367" /><path
         id="path40"
         style="fill:none;stroke:#231f20;stroke-width:9;stroke-linecap:round;stroke-linejoin:miter;stroke-miterlimit:1;stroke-dasharray:none;stroke-opacity:1"
         d="m 34.9883,75.0977 c 0,0 23.789,-61.1524 52.3867,0.1953 28.57,61.289 52.398,0.1093 52.398,0.1093 0,0 23.774,-61.1914 52.344,0.125 28.567,61.3247 52.246,-0.3906 52.246,-0.3906 0,0 23.735,-61.1914 52.325,0.1563 28.578,61.289 52.289,0.1367 52.289,0.1367" /><path
         id="path42"
         style="fill:none;stroke:#ffffff;stroke-width:4.5;stroke-linecap:round;stroke-linejoin:miter;stroke-miterlimit:1;stroke-dasharray:none;stroke-opacity:1"
         d="m 343.469,75.1094 c 0,0 -23.789,-61.1641 -52.383,0.1836 -28.574,61.289 -52.402,0.1093 -52.402,0.1093 0,0 -23.77,-61.1835 -52.344,0.1368 -28.559,61.3129 -52.27,-0.3907 -52.27,-0.3907 0,0 -23.711,-61.2031 -52.3122,0.1446 -28.5664,61.289 -52.2773,0.1679 -52.2773,0.1679" /><path
         id="path44"
         style="fill:none;stroke:#ffffff;stroke-width:9;stroke-linecap:round;stroke-linejoin:miter;stroke-miterlimit:1;stroke-dasharray:none;stroke-opacity:1"
         d="m 29.4805,75.1094 c 0,0 23.7929,-61.1641 52.3828,0.1836 28.5747,61.289 52.4067,0.1093 52.4067,0.1093 0,0 23.769,-61.1835 52.339,0.1368 28.567,61.3129 52.258,-0.3907 52.258,-0.3907 0,0 23.723,-61.2031 52.317,0.1446 28.574,61.289 52.285,0.1679 52.285,0.1679" /><path
         id="path46"
         style="fill:none;stroke:#231f20;stroke-width:2.50999999;stroke-linecap:round;stroke-linejoin:miter;stroke-miterlimit:1;stroke-dasharray:none;stroke-opacity:1"
         d="m 475.438,188.852 c 0,0 -10.321,-71.118 -16.551,-17.313 -6.219,53.734 -16.551,-17.402 -16.551,-17.402 0,0 -10.332,-71.1331 -16.555,-17.375 -6.218,53.785 -16.543,-17.86 -16.543,-17.86 0,0 -10.3,-71.1286 -16.511,-17.328 -6.223,53.739 -16.528,-17.3513 -16.528,-17.3513" /><path
         id="path48"
         style="fill:none;stroke:#231f20;stroke-width:5.01999998;stroke-linecap:round;stroke-linejoin:miter;stroke-miterlimit:1;stroke-dasharray:none;stroke-opacity:1"
         d="m 376.172,83.8906 c 0,0 4.726,-55.2031 16.57,17.7144 11.86,72.84 16.574,17.633 16.574,17.633 0,0 4.715,-55.2575 16.563,17.621 11.848,72.864 16.484,17.063 16.484,17.063 0,0 4.719,-55.2579 16.563,17.652 11.836,72.836 16.535,17.61 16.535,17.61" /><path
         id="path50"
         style="fill:none;stroke:#ffffff;stroke-width:2.50999999;stroke-linecap:round;stroke-linejoin:miter;stroke-miterlimit:1;stroke-dasharray:none;stroke-opacity:1"
         d="m 473.699,187.008 c 0,0 -10.332,-71.094 -16.558,-17.305 -6.211,53.731 -16.555,-17.414 -16.555,-17.414 0,0 -10.313,-71.1132 -16.531,-17.351 -6.223,53.761 -16.555,-17.872 -16.555,-17.872 0,0 -10.305,-71.1363 -16.531,-17.3394 C 384.758,153.461 374.465,82.418 374.465,82.418" /><path
         id="path52"
         style="fill:none;stroke:#ffffff;stroke-width:5.01999998;stroke-linecap:round;stroke-linejoin:miter;stroke-miterlimit:1;stroke-dasharray:none;stroke-opacity:1"
         d="m 374.441,82.0547 c 0,0 4.719,-55.2031 16.567,17.707 11.844,72.8363 16.57,17.6253 16.57,17.6253 0,0 4.719,-55.2347 16.563,17.633 11.828,72.875 16.496,17.07 16.496,17.07 0,0 4.683,-55.2658 16.551,17.64 11.835,72.844 16.535,17.653 16.535,17.653" /><path
         id="path54"
         style="fill:#ffffff;fill-opacity:1;fill-rule:nonzero;stroke:none"
         d="m 265.945,246.723 -13.523,0.886 44.141,11.329 19.289,-15.075 -14.258,0.766 -2.805,0.121 -23.789,-16.961 -32.332,-0.195 25.391,18.969 -2.114,0.16" /><path
         id="path56"
         style="fill:#ffffff;fill-opacity:1;fill-rule:nonzero;stroke:none"
         d="m 231.621,179.566 13.527,-0.882 -44.14,-11.329 -19.289,15.071 14.258,-0.766 2.8,-0.121 23.789,16.961 32.336,0.195 -25.39,-18.968 2.109,-0.161" /><path
         id="path58"
         style="fill:#ffffff;fill-opacity:1;fill-rule:nonzero;stroke:none"
         d="m 165.754,211.988 -52.297,-0.035 15.5,13.356 52.293,0.027 7.156,8.043 24.367,-17.227 -60.8,-17.226 13.781,13.062" /><path
         id="path60"
         style="fill:#ffffff;fill-opacity:1;fill-rule:nonzero;stroke:none"
         d="m 330.313,218.512 52.292,0.035 -15.496,-13.356 -52.296,-0.031 -7.157,-8.039 -24.363,17.227 60.801,17.226 -13.781,-13.062" /></g></g></svg>