<?xml version="1.0" encoding="UTF-8" standalone="no"?>
<svg
   xmlns:dc="http://purl.org/dc/elements/1.1/"
   xmlns:cc="http://creativecommons.org/ns#"
   xmlns:rdf="http://www.w3.org/1999/02/22-rdf-syntax-ns#"
   xmlns:svg="http://www.w3.org/2000/svg"
   xmlns="http://www.w3.org/2000/svg"
   viewBox="0 0 61.25 36.25"
   height="36.25"
   width="61.25"
   xml:space="preserve"
   version="1.1"
   id="svg2"><metadata
     id="metadata8"><rdf:RDF><cc:Work
         rdf:about=""><dc:format>image/svg+xml</dc:format><dc:type
           rdf:resource="http://purl.org/dc/dcmitype/StillImage" /></cc:Work></rdf:RDF></metadata><defs
     id="defs6" /><g
     transform="matrix(1.25,0,0,-1.25,0,36.25)"
     id="g10"><g
       transform="scale(0.1,0.1)"
       id="g12"><path
         id="path14"
         style="fill:#0881c1;fill-opacity:1;fill-rule:nonzero;stroke:none"
         d="M 5.66016,163.809 149.922,280.48 l 333.129,0 -119.422,-116.671 -357.96884,0" /><path
         id="path16"
         style="fill:none;stroke:#ffffff;stroke-width:4;stroke-linecap:butt;stroke-linejoin:miter;stroke-miterlimit:4;stroke-dasharray:none;stroke-opacity:1"
         d="m 5.66016,163.805 144.26184,116.679 333.129,0 -119.422,-116.679 -357.96884,0 z" /><path
         id="path18"
         style="fill:#0881c1;fill-opacity:1;fill-rule:nonzero;stroke:none"
         d="m 363.629,14.8984 119.422,121.6796 0,143.711 -119.422,-116.48 0,-148.9106" /><path
         id="path20"
         style="fill:none;stroke:#ffffff;stroke-width:4;stroke-linecap:butt;stroke-linejoin:miter;stroke-miterlimit:4;stroke-dasharray:none;stroke-opacity:1"
         d="m 363.629,14.8945 119.422,121.6795 0,143.711 -119.422,-116.48 0,-148.9105 z" /><path
         id="path22"
         style="fill:#0881c1;fill-opacity:1;fill-rule:nonzero;stroke:none"
         d="m 6.12891,14.7891 357.5,0 0,149.02 -357.5,0 0,-149.02 z" /><path
         id="path24"
         style="fill:none;stroke:#ffffff;stroke-width:4;stroke-linecap:butt;stroke-linejoin:miter;stroke-miterlimit:4;stroke-dasharray:none;stroke-opacity:1"
         d="m 6.12891,14.7852 357.5,0 0,149.02 -357.5,0 0,-149.02 z" /><path
         id="path26"
         style="fill:none;stroke:#ffffff;stroke-width:4.5;stroke-linecap:round;stroke-linejoin:miter;stroke-miterlimit:1;stroke-dasharray:none;stroke-opacity:1"
         d="m 343.48,85.0977 c 0,0 -23.789,-61.1329 -52.39,0.1875 -28.59,61.2888 -52.418,0.1211 -52.418,0.1211 0,0 -23.75,-61.1719 -52.344,0.121 -28.558,61.3277 -52.269,-0.3906 -52.269,-0.3906 0,0 -23.707,-61.1719 -52.2973,0.1485 -28.5625,61.2888 -52.2734,0.1601 -52.2734,0.1601" /><path
         id="path28"
         style="fill:none;stroke:#ffffff;stroke-width:9;stroke-linecap:round;stroke-linejoin:miter;stroke-miterlimit:1;stroke-dasharray:none;stroke-opacity:1"
         d="m 29.4883,85.0977 c 0,0 23.793,-61.1329 52.3906,0.1875 28.5511,61.2888 52.3831,0.1211 52.3831,0.1211 0,0 23.789,-61.1719 52.34,0.121 28.597,61.3277 52.269,-0.3906 52.269,-0.3906 0,0 23.707,-61.1719 52.301,0.1485 28.598,61.2888 52.308,0.1601 52.308,0.1601" /><path
         id="path30"
         style="fill:none;stroke:#231f20;stroke-width:4.5;stroke-linecap:round;stroke-linejoin:miter;stroke-miterlimit:1;stroke-dasharray:none;stroke-opacity:1"
         d="m 348.98,85.0977 c 0,0 -23.781,-61.1329 -52.378,0.1875 -28.59,61.2888 -52.422,0.1211 -52.422,0.1211 0,0 -23.75,-61.211 -52.34,0.121 -28.559,61.3277 -52.27,-0.3906 -52.27,-0.3906 0,0 -23.711,-61.1719 -52.3005,0.1485 C 58.7109,146.574 35,85.4453 35,85.4453" /><path
         id="path32"
         style="fill:none;stroke:#231f20;stroke-width:9;stroke-linecap:round;stroke-linejoin:miter;stroke-miterlimit:1;stroke-dasharray:none;stroke-opacity:1"
         d="m 35,85.0977 c 0,0 23.7891,-61.1329 52.3789,0.1875 28.5621,61.2888 52.3911,0.1211 52.3911,0.1211 0,0 23.781,-61.211 52.339,0.121 28.59,61.3277 52.27,-0.3906 52.27,-0.3906 0,0 23.711,-61.1719 52.301,0.1485 28.59,61.2888 52.3,0.1601 52.3,0.1601" /><path
         id="path34"
         style="fill:none;stroke:#ffffff;stroke-width:4.5;stroke-linecap:round;stroke-linejoin:miter;stroke-miterlimit:1;stroke-dasharray:none;stroke-opacity:1"
         d="m 343.48,85.0977 c 0,0 -23.789,-61.1329 -52.39,0.1875 -28.59,61.2888 -52.418,0.1211 -52.418,0.1211 0,0 -23.75,-61.1719 -52.344,0.121 -28.558,61.3277 -52.269,-0.3906 -52.269,-0.3906 0,0 -23.707,-61.1719 -52.2973,0.1485 -28.5625,61.2888 -52.2734,0.1601 -52.2734,0.1601" /><path
         id="path36"
         style="fill:none;stroke:#ffffff;stroke-width:9;stroke-linecap:round;stroke-linejoin:miter;stroke-miterlimit:1;stroke-dasharray:none;stroke-opacity:1"
         d="m 29.4883,85.0977 c 0,0 23.793,-61.1329 52.3906,0.1875 28.5511,61.2888 52.3831,0.1211 52.3831,0.1211 0,0 23.789,-61.1719 52.34,0.121 28.597,61.3277 52.269,-0.3906 52.269,-0.3906 0,0 23.707,-61.1719 52.301,0.1485 28.598,61.2888 52.308,0.1601 52.308,0.1601" /><path
         id="path38"
         style="fill:none;stroke:#231f20;stroke-width:4.5;stroke-linecap:round;stroke-linejoin:miter;stroke-miterlimit:1;stroke-dasharray:none;stroke-opacity:1"
         d="m 348.98,85.0977 c 0,0 -23.781,-61.1329 -52.378,0.1875 -28.59,61.2888 -52.422,0.1211 -52.422,0.1211 0,0 -23.75,-61.211 -52.34,0.121 -28.559,61.3277 -52.27,-0.3906 -52.27,-0.3906 0,0 -23.711,-61.1719 -52.3005,0.1485 C 58.7109,146.574 35,85.4453 35,85.4453" /><path
         id="path40"
         style="fill:none;stroke:#231f20;stroke-width:9;stroke-linecap:round;stroke-linejoin:miter;stroke-miterlimit:1;stroke-dasharray:none;stroke-opacity:1"
         d="m 35,85.0977 c 0,0 23.7891,-61.1329 52.3789,0.1875 28.5621,61.2888 52.3911,0.1211 52.3911,0.1211 0,0 23.781,-61.211 52.339,0.121 28.59,61.3277 52.27,-0.3906 52.27,-0.3906 0,0 23.711,-61.1719 52.301,0.1485 28.59,61.2888 52.3,0.1601 52.3,0.1601" /><path
         id="path42"
         style="fill:none;stroke:#ffffff;stroke-width:4.5;stroke-linecap:round;stroke-linejoin:miter;stroke-miterlimit:1;stroke-dasharray:none;stroke-opacity:1"
         d="m 343.48,85.0977 c 0,0 -23.789,-61.1329 -52.39,0.1875 -28.59,61.2888 -52.418,0.1211 -52.418,0.1211 0,0 -23.75,-61.1719 -52.344,0.121 -28.558,61.3277 -52.269,-0.3906 -52.269,-0.3906 0,0 -23.707,-61.1719 -52.2973,0.1485 -28.5625,61.2888 -52.2734,0.1601 -52.2734,0.1601" /><path
         id="path44"
         style="fill:none;stroke:#ffffff;stroke-width:9;stroke-linecap:round;stroke-linejoin:miter;stroke-miterlimit:1;stroke-dasharray:none;stroke-opacity:1"
         d="m 29.4883,85.0977 c 0,0 23.793,-61.1329 52.3906,0.1875 28.5511,61.2888 52.3831,0.1211 52.3831,0.1211 0,0 23.789,-61.1719 52.34,0.121 28.597,61.3277 52.269,-0.3906 52.269,-0.3906 0,0 23.707,-61.1719 52.301,0.1485 28.598,61.2888 52.308,0.1601 52.308,0.1601" /><path
         id="path46"
         style="fill:none;stroke:#231f20;stroke-width:2.50999999;stroke-linecap:round;stroke-linejoin:miter;stroke-miterlimit:1;stroke-dasharray:none;stroke-opacity:1"
         d="m 475.43,198.848 c 0,0 -10.309,-71.102 -16.52,-17.313 -6.25,53.75 -16.57,-17.418 -16.57,-17.418 0,0 -10.352,-71.1326 -16.559,-17.34 -6.211,53.789 -16.519,-17.89 -16.519,-17.89 0,0 -10.313,-71.1018 -16.532,-17.313 -6.21,53.75 -16.519,-17.3396 -16.519,-17.3396" /><path
         id="path48"
         style="fill:none;stroke:#231f20;stroke-width:5.01999998;stroke-linecap:round;stroke-linejoin:miter;stroke-miterlimit:1;stroke-dasharray:none;stroke-opacity:1"
         d="m 376.172,93.8867 c 0,0 4.726,-55.1992 16.558,17.7303 11.879,72.809 16.61,17.617 16.61,17.617 0,0 4.68,-55.2692 16.558,17.621 11.832,72.852 16.481,17.071 16.481,17.071 0,0 4.691,-55.281 16.57,17.648 11.832,72.821 16.52,17.621 16.52,17.621" /><path
         id="path50"
         style="fill:none;stroke:#ffffff;stroke-width:2.50999999;stroke-linecap:round;stroke-linejoin:miter;stroke-miterlimit:1;stroke-dasharray:none;stroke-opacity:1"
         d="m 473.711,197.008 c 0,0 -10.352,-71.09 -16.563,-17.301 -6.207,53.711 -16.558,-17.422 -16.558,-17.422 0,0 -10.32,-71.0975 -16.531,-17.347 -6.207,53.75 -16.559,-17.891 -16.559,-17.891 0,0 -10.309,-71.129 -16.52,-17.301 -6.21,53.711 -16.531,-17.3515 -16.531,-17.3515" /><path
         id="path52"
         style="fill:none;stroke:#ffffff;stroke-width:5.01999998;stroke-linecap:round;stroke-linejoin:miter;stroke-miterlimit:1;stroke-dasharray:none;stroke-opacity:1"
         d="m 374.449,92.0469 c 0,0 4.731,-55.1914 16.571,17.6991 11.832,72.852 16.558,17.649 16.558,17.649 0,0 4.723,-55.227 16.563,17.621 11.839,72.89 16.48,17.07 16.48,17.07 0,0 4.688,-55.27 16.57,17.66 11.829,72.809 16.52,17.649 16.52,17.649" /><path
         id="path54"
         style="fill:#ffffff;fill-opacity:1;fill-rule:nonzero;stroke:none"
         d="m 265.941,256.73 -13.519,0.86 44.137,11.332 19.3,-15.082 -14.257,0.789 -2.813,0.109 -23.789,-16.949 -32.34,-0.199 25.391,18.988 -2.11,0.152" /><path
         id="path56"
         style="fill:#ffffff;fill-opacity:1;fill-rule:nonzero;stroke:none"
         d="m 231.641,189.551 13.519,-0.86 -44.14,-11.332 -19.301,15.082 14.261,-0.781 2.809,-0.121 23.789,16.949 32.344,0.203 -25.391,-18.953 2.11,-0.187" /><path
         id="path58"
         style="fill:#ffffff;fill-opacity:1;fill-rule:nonzero;stroke:none"
         d="m 165.738,221.969 -52.258,0 15.469,13.32 52.301,0.039 7.148,8.051 24.372,-17.231 -60.782,-17.226 13.75,13.047" /><path
         id="path60"
         style="fill:#ffffff;fill-opacity:1;fill-rule:nonzero;stroke:none"
         d="m 330.309,228.488 52.312,0.043 -15.512,-13.359 -52.308,0 -7.141,-8.043 -24.379,17.223 60.821,17.226 -13.793,-13.09" /></g></g></svg>