<?xml version="1.0" encoding="UTF-8" standalone="no"?>
<svg
   xmlns:dc="http://purl.org/dc/elements/1.1/"
   xmlns:cc="http://creativecommons.org/ns#"
   xmlns:rdf="http://www.w3.org/1999/02/22-rdf-syntax-ns#"
   xmlns:svg="http://www.w3.org/2000/svg"
   xmlns="http://www.w3.org/2000/svg"
   viewBox="0 0 39.737499 35.537498"
   height="35.537498"
   width="39.737499"
   xml:space="preserve"
   version="1.1"
   id="svg2"><metadata
     id="metadata8"><rdf:RDF><cc:Work
         rdf:about=""><dc:format>image/svg+xml</dc:format><dc:type
           rdf:resource="http://purl.org/dc/dcmitype/StillImage" /></cc:Work></rdf:RDF></metadata><defs
     id="defs6"><clipPath
       id="clipPath18"
       clipPathUnits="userSpaceOnUse"><path
         id="path20"
         d="M 0,4 0,284 318,284 318,4 0,4 Z" /></clipPath></defs><g
     transform="matrix(1.25,0,0,-1.25,0,35.5375)"
     id="g10"><g
       transform="scale(0.1,0.1)"
       id="g12"><g
         id="g14"><g
           clip-path="url(#clipPath18)"
           id="g16"><path
             id="path22"
             style="fill:#087fbf;fill-opacity:1;fill-rule:nonzero;stroke:none"
             d="m 4.74219,4.92188 276.563,0 0,241.73 -276.563,0 0,-241.73 z" /><path
             id="path24"
             style="fill:none;stroke:#ffffff;stroke-width:4;stroke-linecap:butt;stroke-linejoin:miter;stroke-miterlimit:4;stroke-dasharray:none;stroke-opacity:1"
             d="m 4.74219,4.92188 276.563,0 0,241.73 -276.563,0 0,-241.73 z" /><path
             id="path26"
             style="fill:#087fbf;fill-opacity:1;fill-rule:nonzero;stroke:none"
             d="m 36.6055,279.336 -31.86331,-32.684 276.56281,0 31.855,32.684 -276.5545,0" /><path
             id="path28"
             style="fill:none;stroke:#ffffff;stroke-width:4;stroke-linecap:butt;stroke-linejoin:miter;stroke-miterlimit:4;stroke-dasharray:none;stroke-opacity:1"
             d="m 36.6055,279.336 -31.86331,-32.684 276.56281,0 31.855,32.684 -276.5545,0 z" /><path
             id="path30"
             style="fill:#087fbf;fill-opacity:1;fill-rule:nonzero;stroke:none"
             d="m 313.16,37.6055 0,241.7305 -31.855,-32.684 0,-241.73012 31.855,32.68362" /><path
             id="path32"
             style="fill:none;stroke:#ffffff;stroke-width:4;stroke-linecap:butt;stroke-linejoin:miter;stroke-miterlimit:4;stroke-dasharray:none;stroke-opacity:1"
             d="m 313.16,37.6055 0,241.7305 -31.855,-32.684 0,-241.73012 31.855,32.68362 z" /><path
             id="path34"
             style="fill:#087fbf;fill-opacity:1;fill-rule:nonzero;stroke:none"
             d="m 30.6484,24.1406 228.293,0 0,200.273 -228.293,0 0,-200.273 z" /><path
             id="path36"
             style="fill:none;stroke:#ffffff;stroke-width:4;stroke-linecap:butt;stroke-linejoin:miter;stroke-miterlimit:4;stroke-dasharray:none;stroke-opacity:1"
             d="m 30.6484,24.1406 228.293,0 0,200.273 -228.293,0 0,-200.273 z" /><path
             id="path38"
             style="fill:none;stroke:#ffffff;stroke-width:4;stroke-linecap:butt;stroke-linejoin:miter;stroke-miterlimit:4;stroke-dasharray:10, 10;stroke-dashoffset:0;stroke-opacity:1"
             d="M 122.242,142.922 41.4102,116.25" /><path
             id="path40"
             style="fill:#087fbf;fill-opacity:1;fill-rule:nonzero;stroke:none"
             d="m 159.742,162.922 98.731,36.66 0,-21.66 -98.731,-15" /><path
             id="path42"
             style="fill:none;stroke:#ffffff;stroke-width:4;stroke-linecap:butt;stroke-linejoin:miter;stroke-miterlimit:4;stroke-dasharray:none;stroke-opacity:1"
             d="m 159.742,162.922 98.731,36.66 0,-21.66 -98.731,-15 z" /><path
             id="path44"
             style="fill:#087fbf;fill-opacity:1;fill-rule:nonzero;stroke:none"
             d="m 159.742,162.922 98.731,13.328 0,-21.672 -98.731,8.344" /><path
             id="path46"
             style="fill:none;stroke:#ffffff;stroke-width:4;stroke-linecap:butt;stroke-linejoin:miter;stroke-miterlimit:4;stroke-dasharray:none;stroke-opacity:1"
             d="m 159.742,162.922 98.731,13.328 0,-21.672 -98.731,8.344" /><path
             id="path48"
             style="fill:#087fbf;fill-opacity:1;fill-rule:nonzero;stroke:none"
             d="m 159.742,162.922 98.731,-8.527 0,-21.661 -98.731,30.188" /><path
             id="path50"
             style="fill:none;stroke:#ffffff;stroke-width:4;stroke-linecap:butt;stroke-linejoin:miter;stroke-miterlimit:4;stroke-dasharray:none;stroke-opacity:1"
             d="m 159.742,162.922 98.731,-8.527 0,-21.661 -98.731,30.188" /><path
             id="path52"
             style="fill:#ffffff;fill-opacity:1;fill-rule:nonzero;stroke:none"
             d="m 218.258,54.9609 -141.8361,0 L 147.34,196.797 218.258,54.9609" /></g></g></g></g></svg>