<?xml version="1.0" encoding="UTF-8" standalone="no"?>
<svg
   xmlns:dc="http://purl.org/dc/elements/1.1/"
   xmlns:cc="http://creativecommons.org/ns#"
   xmlns:rdf="http://www.w3.org/1999/02/22-rdf-syntax-ns#"
   xmlns:svg="http://www.w3.org/2000/svg"
   xmlns="http://www.w3.org/2000/svg"
   viewBox="0 0 46.450001 46.762501"
   height="46.762501"
   width="46.450001"
   xml:space="preserve"
   version="1.1"
   id="svg2"><metadata
     id="metadata8"><rdf:RDF><cc:Work
         rdf:about=""><dc:format>image/svg+xml</dc:format><dc:type
           rdf:resource="http://purl.org/dc/dcmitype/StillImage" /></cc:Work></rdf:RDF></metadata><defs
     id="defs6"><clipPath
       id="clipPath18"
       clipPathUnits="userSpaceOnUse"><path
         id="path20"
         d="M 0,4 0,374 370,374 370,4 0,4 Z" /></clipPath><clipPath
       id="clipPath36"
       clipPathUnits="userSpaceOnUse"><path
         id="path38"
         d="m 224.734,273.301 -10.371,23.484 51.797,10.363 -8.98,-8.058 86.328,-14.735 -20.703,-16.574 -85.825,16.106 -12.246,-10.586" /></clipPath><clipPath
       id="clipPath48"
       clipPathUnits="userSpaceOnUse"><path
         id="path50"
         d="m 196.414,340.984 58.012,15.891 0.679,-24.863 -14.492,2.754 -28.316,-23.477 -27.016,3.934 29.223,22.98 -18.09,2.781" /></clipPath><clipPath
       id="clipPath58"
       clipPathUnits="userSpaceOnUse"><path
         id="path60"
         d="m 171.555,251.895 -55.254,-10.352 -2.071,25.547 15.875,-3.457 30.415,25.976 26.914,-4.562 -32.461,-28.309 16.582,-4.843" /></clipPath><clipPath
       id="clipPath70"
       clipPathUnits="userSpaceOnUse"><path
         id="path72"
         d="M 0,4 370,4 370,374 0,374 0,4 Z" /></clipPath></defs><g
     transform="matrix(1.25,0,0,-1.25,0,46.7625)"
     id="g10"><g
       transform="scale(0.1,0.1)"
       id="g12"><g
         id="g14"><g
           clip-path="url(#clipPath18)"
           id="g16"><path
             id="path22"
             style="fill:#087bbb;fill-opacity:1;fill-rule:nonzero;stroke:none"
             d="m 369.855,300.586 c 0,-39.5 -82.343,-71.523 -183.925,-71.523 C 84.3477,229.063 2,261.086 2,300.586 L 2,73.5234 c 0,-39.5 82.3477,-71.53121 183.93,-71.53121 101.582,0 183.925,32.03121 183.925,71.53121 l 0,227.0626" /><path
             id="path24"
             style="fill:none;stroke:#ffffff;stroke-width:3.99993992;stroke-linecap:butt;stroke-linejoin:miter;stroke-miterlimit:4;stroke-dasharray:none;stroke-opacity:1"
             d="m 369.855,300.586 c 0,-39.5 -82.343,-71.523 -183.925,-71.523 C 84.3477,229.063 2,261.086 2,300.586 L 2,73.5234 c 0,-39.5 82.3477,-71.53121 183.93,-71.53121 101.582,0 183.925,32.03121 183.925,71.53121 l 0,227.0626 z" /><path
             id="path26"
             style="fill:#087bbb;fill-opacity:1;fill-rule:nonzero;stroke:none"
             d="m 185.93,229.063 c 101.582,0 183.925,32.023 183.925,71.523 0,39.512 -82.343,71.527 -183.925,71.527 C 84.3477,372.113 2,340.098 2,300.586 c 0,-39.5 82.3477,-71.523 183.93,-71.523" /><path
             id="path28"
             style="fill:none;stroke:#ffffff;stroke-width:3.99993992;stroke-linecap:butt;stroke-linejoin:miter;stroke-miterlimit:4;stroke-dasharray:none;stroke-opacity:1"
             d="m 185.93,229.063 c 101.582,0 183.925,32.023 183.925,71.523 0,39.512 -82.343,71.527 -183.925,71.527 C 84.3477,372.113 2,340.098 2,300.586 c 0,-39.5 82.3477,-71.523 183.93,-71.523 z" /><path
             id="path30"
             style="fill:#231f20;fill-opacity:1;fill-rule:nonzero;stroke:none"
             d="m 163.953,304.383 -14.512,24.172 -7.578,2.07 -8.98,-6.895 -84.9416,14.493 -26.9336,-19.336 4.4883,-7.676 22.2695,16.687 85.6254,-14.5 10.547,8.25 15.171,-22.781 4.844,5.516" /></g></g><g
         id="g32"><g
           clip-path="url(#clipPath36)"
           id="g34"><path
             id="path40"
             style="fill:#231f20;fill-opacity:1;fill-rule:nonzero;stroke:none"
             d="m 214.363,288.496 51.797,10.371 5.528,8.965 -6.208,4.148 -57.328,-13.113 6.211,-10.371" /><path
             id="path42"
             style="fill:#231f20;fill-opacity:1;fill-rule:nonzero;stroke:none"
             d="m 347.668,287.117 -80.117,15.196 -10.356,-4.149 -0.015,-7.363 86.328,-14.727 4.16,11.043" /></g></g><g
         id="g44"><g
           clip-path="url(#clipPath48)"
           id="g46"><path
             id="path52"
             style="fill:#231f20;fill-opacity:1;fill-rule:nonzero;stroke:none"
             d="m 199.172,334.766 57.32,15.886 4.145,5.528 -4.824,5.527 -66.309,-18.641 9.668,-8.3" /></g></g><g
         id="g54"><g
           clip-path="url(#clipPath58)"
           id="g56"><path
             id="path62"
             style="fill:#231f20;fill-opacity:1;fill-rule:nonzero;stroke:none"
             d="m 108.699,273.301 0,-13.809 21.406,-4.14 30.415,25.976 26.914,-4.57 7.593,10.359 -35.918,6.906 -30.371,-25.546 -20.039,4.824" /><path
             id="path64"
             style="fill:#231f20;fill-opacity:1;fill-rule:nonzero;stroke:none"
             d="m 172.938,258.809 -17.965,-2.071 0,-8.3 16.582,-4.825 9.668,8.282 -8.285,6.914" /></g></g><g
         id="g66"><g
           clip-path="url(#clipPath70)"
           id="g68"><path
             id="path74"
             style="fill:#ffffff;fill-opacity:1;fill-rule:nonzero;stroke:none"
             d="m 196.414,340.984 58.012,15.891 0.679,-24.863 -14.492,2.754 -28.316,-23.477 -27.016,3.934 29.223,22.98 -18.09,2.781" /><path
             id="path76"
             style="fill:#ffffff;fill-opacity:1;fill-rule:nonzero;stroke:none"
             d="m 224.734,273.301 -10.371,23.484 51.797,10.363 -8.98,-8.058 86.328,-14.735 -20.703,-16.574 -85.825,16.106 -12.246,-10.586" /><path
             id="path78"
             style="fill:#ffffff;fill-opacity:1;fill-rule:nonzero;stroke:none"
             d="m 171.555,251.895 -55.254,-10.352 -2.071,25.547 15.875,-3.457 30.415,25.976 26.914,-4.562 -32.461,-28.309 16.582,-4.843" /><path
             id="path80"
             style="fill:#ffffff;fill-opacity:1;fill-rule:nonzero;stroke:none"
             d="m 143.938,328.555 15.171,-22.793 -57.421,-13.262 12.558,10.449 -88.7499,15.164 22.2695,16.692 85.6254,-14.504 10.547,8.254" /><path
             id="path82"
             style="fill:none;stroke:#231f20;stroke-width:14.25;stroke-linecap:butt;stroke-linejoin:miter;stroke-miterlimit:4;stroke-dasharray:none;stroke-opacity:1"
             d="m 106.672,58.4375 52.266,0 66.074,135.1565 41.343,0" /><path
             id="path84"
             style="fill:#231f20;fill-opacity:1;fill-rule:nonzero;stroke:none"
             d="m 252.961,217.813 0,-47.95 28.887,23.028 -28.887,24.922" /><path
             id="path86"
             style="fill:#231f20;fill-opacity:1;fill-rule:nonzero;stroke:none"
             d="m 114.934,33.75 0,47.9492 L 86.043,58.6719 114.934,33.75" /><path
             id="path88"
             style="fill:#ffffff;fill-opacity:1;fill-rule:nonzero;stroke:none"
             d="m 115.012,29.9414 0,47.9492 L 86.1211,54.8633 115.012,29.9414" /><path
             id="path90"
             style="fill:#ffffff;fill-opacity:1;fill-rule:nonzero;stroke:none"
             d="m 254.285,214.629 0,-47.949 28.891,23.027 -28.891,24.922" /><path
             id="path92"
             style="fill:#231f20;fill-opacity:1;fill-rule:nonzero;stroke:none"
             d="m 114.934,168.75 0,47.949 -28.891,-23.027 28.891,-24.922" /><path
             id="path94"
             style="fill:#ffffff;fill-opacity:1;fill-rule:nonzero;stroke:none"
             d="m 115.012,164.941 0,47.95 -28.8909,-23.028 28.8909,-24.922" /><path
             id="path96"
             style="fill:none;stroke:#231f20;stroke-width:14.25;stroke-linecap:butt;stroke-linejoin:miter;stroke-miterlimit:4;stroke-dasharray:none;stroke-opacity:1"
             d="m 267.313,57.9297 -44.918,0 -67.344,135.8203 -42.27,0" /><path
             id="path98"
             style="fill:none;stroke:#ffffff;stroke-width:14.25;stroke-linecap:butt;stroke-linejoin:miter;stroke-miterlimit:4;stroke-dasharray:none;stroke-opacity:1"
             d="m 272.844,54.4219 -49.614,0 -67.324,135.8121 -51.343,0" /><path
             id="path100"
             style="fill:none;stroke:#ffffff;stroke-width:14.25;stroke-linecap:butt;stroke-linejoin:miter;stroke-miterlimit:4;stroke-dasharray:none;stroke-opacity:1"
             d="m 104.871,54.6289 47.91,0 66.723,135.1561 51.934,0" /><path
             id="path102"
             style="fill:#231f20;fill-opacity:1;fill-rule:nonzero;stroke:none"
             d="m 252.961,82.1875 0,-47.9492 28.887,23.0273 -28.887,24.9219" /><path
             id="path104"
             style="fill:#ffffff;fill-opacity:1;fill-rule:nonzero;stroke:none"
             d="m 254.285,79.0039 0,-47.9492 28.891,23.0273 -28.891,24.9219" /></g></g></g></g></svg>