<svg xmlns="http://www.w3.org/2000/svg" viewBox="0 0 46.25 32.5" height="32.5" width="46.25"><path d="M45.591 9.27c0 4.868-10.151 8.813-22.671 8.813S.249 14.137.249 9.27v12.915c0 4.868 10.15 8.813 22.67 8.813 12.521 0 22.672-3.945 22.672-8.813V9.27" fill="#026c9b"/><path d="M45.591 9.27c0 4.867-10.151 8.814-22.671 8.814S.249 14.137.249 9.27v12.915c0 4.867 10.15 8.814 22.67 8.814 12.521 0 22.672-3.947 22.672-8.814V9.27z" fill="none" stroke="#fff" stroke-width=".5"/><path d="M45.591 9.27c0 4.868-10.151 8.813-22.671 8.813S.249 14.137.249 9.27v12.915c0 4.868 10.15 8.813 22.67 8.813 12.521 0 22.672-3.945 22.672-8.813V9.27" fill="#026c9b"/><path d="M45.591 9.27c0 4.867-10.151 8.814-22.671 8.814S.249 14.137.249 9.27v12.915c0 4.867 10.15 8.814 22.67 8.814 12.521 0 22.672-3.947 22.672-8.814V9.27z" fill="none" stroke="#fff" stroke-width=".5"/><path d="M22.92 18.082c12.52 0 22.671-3.944 22.671-8.812C45.591 4.401 35.44.451 22.92.451S.249 4.401.249 9.27c0 4.868 10.15 8.813 22.67 8.813" fill="#026c9b"/><path d="M22.92 18.084c12.52 0 22.671-3.947 22.671-8.814C45.591 4.4 35.44.45 22.92.45S.249 4.4.249 9.27c0 4.867 10.15 8.814 22.67 8.814z" fill="none" stroke="#fff" stroke-width=".5"/><path d="M33.243 11.911l4.946 1.821-4.923 2.314-.01-1.391-24.652-.029-.054-1.851 24.682-.054.01-.81" fill="#026c9b"/><path d="M13.506 6.824h1.128c.645 2.763.707 3.115.801 3.696h.014c.094-.527.166-1.045.703-3.696h1.118c.591 2.772.64 3.041.752 3.696h.016c.087-.479.17-.919.824-3.696h1.07l-1.42 5.053h-1.017c-.517-2.48-.61-2.968-.781-3.941h-.015c-.152.973-.239 1.339-.782 3.942h-.981l-1.43-5.054M20.146 6.824h1.129c.644 2.763.707 3.115.8 3.696h.015c.088-.527.166-1.045.702-3.696h1.12c.59 2.772.64 3.041.75 3.696h.016c.083-.479.17-.919.824-3.696h1.07l-1.42 5.053h-1.016c-.522-2.48-.611-2.968-.781-3.941h-.015c-.156.973-.24 1.339-.781 3.942h-.981l-1.432-5.054M26.788 6.824h1.122c.65 2.763.712 3.115.806 3.696h.01c.093-.527.17-1.045.708-3.696h1.117c.592 2.772.64 3.041.753 3.696h.015c.082-.479.17-.919.825-3.696h1.068l-1.424 5.053h-1.012c-.522-2.48-.61-2.968-.78-3.941h-.016c-.156.973-.239 1.339-.781 3.942h-.987l-1.424-5.054" fill="#fff"/></svg>