<?xml version="1.0" encoding="UTF-8" standalone="no"?>
<svg
   xmlns:dc="http://purl.org/dc/elements/1.1/"
   xmlns:cc="http://creativecommons.org/ns#"
   xmlns:rdf="http://www.w3.org/1999/02/22-rdf-syntax-ns#"
   xmlns:svg="http://www.w3.org/2000/svg"
   xmlns="http://www.w3.org/2000/svg"
   viewBox="0 0 46.1875 55.837502"
   height="55.837502"
   width="46.1875"
   xml:space="preserve"
   version="1.1"
   id="svg2"><metadata
     id="metadata8"><rdf:RDF><cc:Work
         rdf:about=""><dc:format>image/svg+xml</dc:format><dc:type
           rdf:resource="http://purl.org/dc/dcmitype/StillImage" /></cc:Work></rdf:RDF></metadata><defs
     id="defs6" /><g
     transform="matrix(1.25,0,0,-1.25,0,55.8375)"
     id="g10"><g
       transform="scale(0.1,0.1)"
       id="g12"><path
         id="path14"
         style="fill:#02709f;fill-opacity:1;fill-rule:nonzero;stroke:none"
         d="M 97.3203,385.898 179.098,239.551 c 11.445,-20.488 4.121,-46.375 -16.368,-57.832 -20.488,-11.446 -46.386,-4.121 -57.832,16.367 L 24.5469,341.863" /><path
         id="path16"
         style="fill:none;stroke:#ffffff;stroke-width:3.99993992;stroke-linecap:butt;stroke-linejoin:miter;stroke-miterlimit:4;stroke-dasharray:none;stroke-opacity:1"
         d="M 97.3203,385.898 179.098,239.551 c 11.445,-20.488 4.121,-46.375 -16.368,-57.832 -20.488,-11.446 -46.386,-4.121 -57.832,16.367 L 24.5469,341.863" /><path
         id="path18"
         style="fill:#02709f;fill-opacity:1;fill-rule:nonzero;stroke:none"
         d="M 97.3203,385.898 179.098,239.551 c 11.445,-20.488 4.121,-46.375 -16.368,-57.832 -20.488,-11.446 -46.386,-4.121 -57.832,16.367 L 24.5469,341.863" /><path
         id="path20"
         style="fill:none;stroke:#ffffff;stroke-width:3.99993992;stroke-linecap:butt;stroke-linejoin:miter;stroke-miterlimit:4;stroke-dasharray:none;stroke-opacity:1"
         d="M 97.3203,385.898 179.098,239.551 c 11.445,-20.488 4.121,-46.375 -16.368,-57.832 -20.488,-11.446 -46.386,-4.121 -57.832,16.367 L 24.5469,341.863" /><path
         id="path22"
         style="fill:#02709f;fill-opacity:1;fill-rule:nonzero;stroke:none"
         d="M 122.895,1.98047 C 60.4141,1.98047 9.76172,17.8125 9.76172,37.3438 c 0,19.5195 50.65238,35.3515 113.13328,35.3515 62.492,0 113.136,-15.832 113.136,-35.3515 0,-19.5313 -50.644,-35.36333 -113.136,-35.36333" /><path
         id="path24"
         style="fill:none;stroke:#ffffff;stroke-width:3.99993992;stroke-linecap:butt;stroke-linejoin:miter;stroke-miterlimit:4;stroke-dasharray:none;stroke-opacity:1"
         d="M 122.895,1.98047 C 60.4141,1.98047 9.76172,17.8125 9.76172,37.3438 c 0,19.5195 50.65238,35.3515 113.13328,35.3515 62.492,0 113.136,-15.832 113.136,-35.3515 0,-19.5313 -50.644,-35.36333 -113.136,-35.36333 z" /><path
         id="path26"
         style="fill:#02709f;fill-opacity:1;fill-rule:nonzero;stroke:none"
         d="m 122.895,45.9063 c -31.2387,0 -56.5708,7.9218 -56.5708,17.6875 0,9.7539 25.3321,17.6757 56.5708,17.6757 31.242,0 56.574,-7.9218 56.574,-17.6757 0,-9.7657 -25.332,-17.6875 -56.574,-17.6875" /><path
         id="path28"
         style="fill:none;stroke:#ffffff;stroke-width:3.99993992;stroke-linecap:butt;stroke-linejoin:miter;stroke-miterlimit:4;stroke-dasharray:none;stroke-opacity:1"
         d="m 122.895,45.9063 c -31.2387,0 -56.5708,7.9218 -56.5708,17.6875 0,9.7539 25.3321,17.6757 56.5708,17.6757 31.242,0 56.574,-7.9218 56.574,-17.6757 0,-9.7657 -25.332,-17.6875 -56.574,-17.6875 z" /><path
         id="path30"
         style="fill:#000000;fill-opacity:1;fill-rule:nonzero;stroke:none"
         d="M 98.4609,384.496 C 109.918,364.004 97.582,348.113 77.0938,336.664 56.6055,325.215 35.7188,322.539 24.2617,343.031 L 9.54688,369.363 7.32813,375.18 c -11.44532,20.488 -7.2460987,53.883 13.25387,65.332 20.4883,11.449 47.625,-2.129 59.0821,-22.617 l 2.6562,-4.497 16.1406,-28.902" /><path
         id="path32"
         style="fill:none;stroke:#ffffff;stroke-width:3.99993992;stroke-linecap:butt;stroke-linejoin:miter;stroke-miterlimit:4;stroke-dasharray:none;stroke-opacity:1"
         d="M 98.4609,384.496 C 109.918,364.004 97.582,348.113 77.0938,336.664 56.6055,325.215 35.7188,322.539 24.2617,343.031 L 9.54688,369.363 7.32813,375.18 c -11.44532,20.488 -7.2460987,53.883 13.25387,65.332 20.4883,11.449 47.625,-2.129 59.0821,-22.617 l 2.6562,-4.497 16.1406,-28.902 z" /><path
         id="path34"
         style="fill:#02709f;fill-opacity:1;fill-rule:nonzero;stroke:none"
         d="M 98.4609,384.496 C 109.918,364.004 97.582,348.113 77.0938,336.664 56.6055,325.215 35.7188,322.539 24.2617,343.031 L 9.54688,369.363 7.32813,375.18 c -11.44532,20.488 -7.2460987,53.883 13.25387,65.332 20.4883,11.449 47.625,-2.129 59.0821,-22.617 l 2.6562,-4.497 16.1406,-28.902" /><path
         id="path36"
         style="fill:none;stroke:#ffffff;stroke-width:3.99993992;stroke-linecap:butt;stroke-linejoin:miter;stroke-miterlimit:4;stroke-dasharray:none;stroke-opacity:1"
         d="M 98.4609,384.496 C 109.918,364.004 97.582,348.113 77.0938,336.664 56.6055,325.215 35.7188,322.539 24.2617,343.031 L 9.54688,369.363 7.32813,375.18 c -11.44532,20.488 -7.2460987,53.883 13.25387,65.332 20.4883,11.449 47.625,-2.129 59.0821,-22.617 l 2.6562,-4.497 16.1406,-28.902 z" /><path
         id="path38"
         style="fill:#02709f;fill-opacity:1;fill-rule:nonzero;stroke:none"
         d="m 122.895,56.0938 c -6.903,0 -12.5,5.5859 -12.5,12.5 l 0,201.2462 c 0,6.898 5.597,12.5 12.5,12.5 6.906,0 12.5,-5.602 12.5,-12.5 l 0,-201.2462 c 0,-6.9141 -5.594,-12.5 -12.5,-12.5" /><path
         id="path40"
         style="fill:none;stroke:#ffffff;stroke-width:3.99993992;stroke-linecap:butt;stroke-linejoin:miter;stroke-miterlimit:4;stroke-dasharray:none;stroke-opacity:1"
         d="m 122.895,56.0938 c -6.903,0 -12.5,5.5859 -12.5,12.5 l 0,201.2462 c 0,6.898 5.597,12.5 12.5,12.5 6.906,0 12.5,-5.602 12.5,-12.5 l 0,-201.2462 c 0,-6.9141 -5.594,-12.5 -12.5,-12.5 z" /><path
         id="path42"
         style="fill:#02709f;fill-opacity:1;fill-rule:nonzero;stroke:none"
         d="m 126.02,247.207 c 7.324,0 13.261,5.938 13.261,13.262 0,7.312 -5.937,13.25 -13.261,13.25 -7.313,0 -13.25,-5.938 -13.25,-13.25 0,-7.324 5.937,-13.262 13.25,-13.262" /><path
         id="path44"
         style="fill:none;stroke:#ffffff;stroke-width:3.99993992;stroke-linecap:butt;stroke-linejoin:miter;stroke-miterlimit:4;stroke-dasharray:none;stroke-opacity:1"
         d="m 126.02,247.207 c 7.324,0 13.261,5.938 13.261,13.262 0,7.312 -5.937,13.25 -13.261,13.25 -7.313,0 -13.25,-5.938 -13.25,-13.25 0,-7.324 5.937,-13.262 13.25,-13.262 z" /><path
         id="path46"
         style="fill:none;stroke:#ffffff;stroke-width:3.99993992;stroke-linecap:butt;stroke-linejoin:miter;stroke-miterlimit:4;stroke-dasharray:none;stroke-opacity:1"
         d="M 99.7109,383.246 C 111.168,362.754 98.832,346.863 78.3438,335.414 57.8555,323.965 36.9688,321.289 25.5117,341.781" /><path
         id="path48"
         style="fill:none;stroke:#ffffff;stroke-width:3.00003004;stroke-linecap:butt;stroke-linejoin:miter;stroke-miterlimit:4;stroke-dasharray:none;stroke-opacity:1"
         d="M 93.4609,394.496 C 104.918,374.004 92.582,358.113 72.0938,346.664 51.6055,335.215 30.7188,332.539 19.2617,353.031" /><path
         id="path50"
         style="fill:none;stroke:#ffffff;stroke-width:3.00003004;stroke-linecap:butt;stroke-linejoin:miter;stroke-miterlimit:4;stroke-dasharray:none;stroke-opacity:1"
         d="M 87.0078,401.332 C 98.0039,381.664 86.168,366.406 66.5,355.414 46.832,344.426 26.7734,341.859 15.7773,361.527" /><path
         id="path52"
         style="fill:none;stroke:#ffffff;stroke-width:3.00003004;stroke-linecap:butt;stroke-linejoin:miter;stroke-miterlimit:4;stroke-dasharray:none;stroke-opacity:1"
         d="M 81.3828,410.707 C 92.3789,391.039 80.543,375.781 60.875,364.789 41.207,353.797 21.1484,351.234 10.1523,370.902" /><path
         id="path54"
         style="fill:none;stroke:#ffffff;stroke-width:3.00003004;stroke-linecap:butt;stroke-linejoin:miter;stroke-miterlimit:4;stroke-dasharray:none;stroke-opacity:1"
         d="M 76.3828,420.707 C 87.3789,401.039 75.543,385.781 55.875,374.789 36.207,363.797 16.1484,361.234 5.15234,380.902" /><path
         id="path56"
         style="fill:none;stroke:#ffffff;stroke-width:3.00003004;stroke-linecap:butt;stroke-linejoin:miter;stroke-miterlimit:4;stroke-dasharray:none;stroke-opacity:1"
         d="M 70.5508,428.852 C 81.1094,409.965 69.7422,395.32 50.8555,384.766 31.9688,374.215 12.7188,371.754 2.16406,390.633" /><path
         id="path58"
         style="fill:none;stroke:#ffffff;stroke-width:3.00003004;stroke-linecap:butt;stroke-linejoin:miter;stroke-miterlimit:4;stroke-dasharray:none;stroke-opacity:1"
         d="m 61.4219,433.734 c 9.0508,-16.191 -0.6836,-28.75 -16.875,-37.796 -16.1914,-9.047 -32.7071,-11.157 -41.75002,5.035" /><path
         id="path60"
         style="fill:none;stroke:#ffffff;stroke-width:3.00003004;stroke-linecap:butt;stroke-linejoin:miter;stroke-miterlimit:4;stroke-dasharray:none;stroke-opacity:1"
         d="M 52.2422,439.242 C 59.9375,425.477 51.6563,414.805 37.8867,407.117 24.125,399.43 10.0938,397.633 2.39844,411.391" /><path
         id="path62"
         style="fill:none;stroke:#02709f;stroke-width:3.99993992;stroke-linecap:butt;stroke-linejoin:miter;stroke-miterlimit:4;stroke-dasharray:none;stroke-opacity:1"
         d="m 164.145,189.727 c 7.668,-34.688 7.746,-87.852 45.265,-102.9887 10.86,-4.3945 23.496,-2.3438 34.492,-6.3477 26.036,-9.4726 37.118,-36.5117 58.301,-53.6133 19.149,-15.4687 45.067,-13.5937 66.942,-5.6835" /></g></g></svg>