<?xml version="1.0" encoding="UTF-8" standalone="no"?>
<svg
   xmlns:dc="http://purl.org/dc/elements/1.1/"
   xmlns:cc="http://creativecommons.org/ns#"
   xmlns:rdf="http://www.w3.org/1999/02/22-rdf-syntax-ns#"
   xmlns:svg="http://www.w3.org/2000/svg"
   xmlns="http://www.w3.org/2000/svg"
   viewBox="0 0 47.5 57.5"
   height="57.5"
   width="47.5"
   xml:space="preserve"
   version="1.1"
   id="svg2"><metadata
     id="metadata8"><rdf:RDF><cc:Work
         rdf:about=""><dc:format>image/svg+xml</dc:format><dc:type
           rdf:resource="http://purl.org/dc/dcmitype/StillImage" /></cc:Work></rdf:RDF></metadata><defs
     id="defs6" /><g
     transform="matrix(1.25,0,0,-1.25,0,57.5)"
     id="g10"><g
       transform="scale(0.1,0.1)"
       id="g12"><path
         id="path14"
         style="fill:#02709f;fill-opacity:1;fill-rule:nonzero;stroke:none"
         d="M 98.2383,395.922 180.039,249.551 c 11.441,-20.461 4.102,-46.36 -16.367,-57.813 -20.512,-11.437 -46.402,-4.136 -57.852,16.371 L 25.4688,351.898" /><path
         id="path16"
         style="fill:none;stroke:#ffffff;stroke-width:3.99993992;stroke-linecap:butt;stroke-linejoin:miter;stroke-miterlimit:4;stroke-dasharray:none;stroke-opacity:1"
         d="M 98.2383,395.922 180.039,249.551 c 11.441,-20.469 4.102,-46.367 -16.367,-57.809 -20.512,-11.449 -46.402,-4.14 -57.852,16.371 L 25.4688,351.902" /><path
         id="path18"
         style="fill:#02709f;fill-opacity:1;fill-rule:nonzero;stroke:none"
         d="M 98.2383,395.922 180.039,249.551 c 11.441,-20.461 4.102,-46.36 -16.367,-57.813 -20.512,-11.437 -46.402,-4.136 -57.852,16.371 L 25.4688,351.898" /><path
         id="path20"
         style="fill:none;stroke:#ffffff;stroke-width:3.99993992;stroke-linecap:butt;stroke-linejoin:miter;stroke-miterlimit:4;stroke-dasharray:none;stroke-opacity:1"
         d="M 98.2383,395.922 180.039,249.551 c 11.441,-20.469 4.102,-46.367 -16.367,-57.809 -20.512,-11.449 -46.402,-4.14 -57.852,16.371 L 25.4688,351.902" /><path
         id="path22"
         style="fill:#02709f;fill-opacity:1;fill-rule:nonzero;stroke:none"
         d="m 123.828,12.0195 c -62.4999,0 -113.1288,15.8203 -113.1288,35.3516 0,19.5273 50.6289,35.3477 113.1288,35.3477 62.5,0 113.121,-15.8204 113.121,-35.3477 0,-19.5313 -50.621,-35.3516 -113.121,-35.3516" /><path
         id="path24"
         style="fill:none;stroke:#ffffff;stroke-width:3.99993992;stroke-linecap:butt;stroke-linejoin:miter;stroke-miterlimit:4;stroke-dasharray:none;stroke-opacity:1"
         d="m 123.828,12.0117 c -62.4999,0 -113.1288,15.8203 -113.1288,35.3516 0,19.539 50.6289,35.3594 113.1288,35.3594 62.5,0 113.121,-15.8204 113.121,-35.3594 0,-19.5313 -50.621,-35.3516 -113.121,-35.3516 z" /><path
         id="path26"
         style="fill:#02709f;fill-opacity:1;fill-rule:nonzero;stroke:none"
         d="m 123.828,55.9219 c -31.2499,0 -56.5585,7.9297 -56.5585,17.6992 0,9.7578 25.3086,17.6484 56.5585,17.6484 31.25,0 56.563,-7.8906 56.563,-17.6484 0,-9.7695 -25.313,-17.6992 -56.563,-17.6992" /><path
         id="path28"
         style="fill:none;stroke:#ffffff;stroke-width:3.99993992;stroke-linecap:butt;stroke-linejoin:miter;stroke-miterlimit:4;stroke-dasharray:none;stroke-opacity:1"
         d="m 123.828,55.9219 c -31.2499,0 -56.5585,7.9297 -56.5585,17.6914 0,9.7695 25.3086,17.6601 56.5585,17.6601 31.25,0 56.563,-7.8906 56.563,-17.6601 0,-9.7617 -25.313,-17.6914 -56.563,-17.6914 z" /><path
         id="path30"
         style="fill:#000000;fill-opacity:1;fill-rule:nonzero;stroke:none"
         d="M 99.3789,394.52 C 110.859,374.012 98.5195,358.148 78.0117,346.699 57.5391,335.219 36.6406,332.559 25.1992,353.07 l -14.7304,26.328 -2.23052,5.821 c -11.4375,20.472 -7.21875,53.871 13.28122,65.312 20.4688,11.449 47.6211,-2.109 59.0703,-22.621 l 2.6485,-4.488 16.1406,-28.902" /><path
         id="path32"
         style="fill:none;stroke:#ffffff;stroke-width:3.99993992;stroke-linecap:butt;stroke-linejoin:miter;stroke-miterlimit:4;stroke-dasharray:none;stroke-opacity:1"
         d="m 99.3789,394.512 c 11.4801,-20.508 -0.8594,-36.36 -21.3672,-47.809 -20.4726,-11.48 -41.3711,-14.14 -52.8125,6.371 l -14.7304,26.328 -2.23052,5.821 c -11.4375,20.461 -7.21875,53.859 13.28122,65.308 20.4688,11.442 47.6211,-2.109 59.0703,-22.617 l 2.6485,-4.492 16.1406,-28.91 z" /><path
         id="path34"
         style="fill:#02709f;fill-opacity:1;fill-rule:nonzero;stroke:none"
         d="M 99.3789,394.52 C 110.859,374.012 98.5195,358.148 78.0117,346.699 57.5391,335.219 36.6406,332.559 25.1992,353.07 l -14.7304,26.328 -2.23052,5.821 c -11.4375,20.472 -7.21875,53.871 13.28122,65.312 20.4688,11.449 47.6211,-2.109 59.0703,-22.621 l 2.6485,-4.488 16.1406,-28.902" /><path
         id="path36"
         style="fill:none;stroke:#ffffff;stroke-width:3.99993992;stroke-linecap:butt;stroke-linejoin:miter;stroke-miterlimit:4;stroke-dasharray:none;stroke-opacity:1"
         d="m 99.3789,394.512 c 11.4801,-20.508 -0.8594,-36.36 -21.3672,-47.809 -20.4726,-11.48 -41.3711,-14.14 -52.8125,6.371 l -14.7304,26.328 -2.23052,5.821 c -11.4375,20.461 -7.21875,53.859 13.28122,65.308 20.4688,11.442 47.6211,-2.109 59.0703,-22.617 l 2.6485,-4.492 16.1406,-28.91 z" /><path
         id="path38"
         style="fill:#02709f;fill-opacity:1;fill-rule:nonzero;stroke:none"
         d="m 123.828,66.1211 c -6.918,0 -12.5,5.5781 -12.5,12.5 l 0,201.2499 c 0,6.867 5.582,12.5 12.5,12.5 6.91,0 12.5,-5.633 12.5,-12.5 l 0,-201.2499 c 0,-6.9219 -5.59,-12.5 -12.5,-12.5" /><path
         id="path40"
         style="fill:none;stroke:#ffffff;stroke-width:3.99993992;stroke-linecap:butt;stroke-linejoin:miter;stroke-miterlimit:4;stroke-dasharray:none;stroke-opacity:1"
         d="m 123.828,66.1133 c -6.918,0 -12.5,5.5898 -12.5,12.5 l 0,201.2497 c 0,6.879 5.582,12.5 12.5,12.5 6.91,0 12.5,-5.621 12.5,-12.5 l 0,-201.2497 c 0,-6.9102 -5.59,-12.5 -12.5,-12.5 z" /><path
         id="path42"
         style="fill:#02709f;fill-opacity:1;fill-rule:nonzero;stroke:none"
         d="m 126.949,257.211 c 7.313,0 13.25,5.937 13.25,13.277 0,7.313 -5.937,13.242 -13.25,13.242 -7.301,0 -13.238,-5.929 -13.238,-13.242 0,-7.34 5.937,-13.277 13.238,-13.277" /><path
         id="path44"
         style="fill:none;stroke:#ffffff;stroke-width:3.99993992;stroke-linecap:butt;stroke-linejoin:miter;stroke-miterlimit:4;stroke-dasharray:none;stroke-opacity:1"
         d="m 126.949,257.211 c 7.313,0 13.25,5.941 13.25,13.281 0,7.301 -5.937,13.242 -13.25,13.242 -7.301,0 -13.238,-5.941 -13.238,-13.242 0,-7.34 5.937,-13.281 13.238,-13.281 z" /><path
         id="path46"
         style="fill:none;stroke:#ffffff;stroke-width:3.99993992;stroke-linecap:butt;stroke-linejoin:miter;stroke-miterlimit:4;stroke-dasharray:none;stroke-opacity:1"
         d="m 100.621,393.262 c 11.488,-20.508 -0.8515,-36.36 -21.3593,-47.809 -20.4726,-11.48 -41.3711,-14.14 -52.8125,6.371" /><path
         id="path48"
         style="fill:none;stroke:#ffffff;stroke-width:3.00003004;stroke-linecap:butt;stroke-linejoin:miter;stroke-miterlimit:4;stroke-dasharray:none;stroke-opacity:1"
         d="m 94.3789,404.512 c 11.4801,-20.508 -0.8594,-36.36 -21.3672,-47.809 -20.4726,-11.48 -41.3711,-14.14 -52.8125,6.371" /><path
         id="path50"
         style="fill:none;stroke:#ffffff;stroke-width:3.00003004;stroke-linecap:butt;stroke-linejoin:miter;stroke-miterlimit:4;stroke-dasharray:none;stroke-opacity:1"
         d="M 87.9297,411.352 C 98.9492,391.703 87.1094,376.434 67.4219,365.453 47.7695,354.434 27.6992,351.902 16.7188,371.543" /><path
         id="path52"
         style="fill:none;stroke:#ffffff;stroke-width:3.00003004;stroke-linecap:butt;stroke-linejoin:miter;stroke-miterlimit:4;stroke-dasharray:none;stroke-opacity:1"
         d="m 82.3008,420.723 c 11.0195,-19.641 -0.8203,-34.922 -20.5,-45.899 -19.6524,-11.011 -39.7305,-13.551 -50.711,6.098" /><path
         id="path54"
         style="fill:none;stroke:#ffffff;stroke-width:3.00003004;stroke-linecap:butt;stroke-linejoin:miter;stroke-miterlimit:4;stroke-dasharray:none;stroke-opacity:1"
         d="M 77.3008,430.723 C 88.3203,411.082 76.4805,395.801 56.8008,384.824 37.1484,373.813 17.0703,371.273 6.08984,390.922" /><path
         id="path56"
         style="fill:none;stroke:#ffffff;stroke-width:3.00003004;stroke-linecap:butt;stroke-linejoin:miter;stroke-miterlimit:4;stroke-dasharray:none;stroke-opacity:1"
         d="M 71.4805,438.891 C 82.0313,419.984 70.6602,405.332 51.8008,394.793 32.8906,384.242 13.6289,381.781 3.08984,400.652" /><path
         id="path58"
         style="fill:none;stroke:#ffffff;stroke-width:3.00003004;stroke-linecap:butt;stroke-linejoin:miter;stroke-miterlimit:4;stroke-dasharray:none;stroke-opacity:1"
         d="m 62.3398,443.773 c 9.0704,-16.21 -0.6601,-28.75 -16.871,-37.812 -16.168,-9.059 -32.6993,-11.168 -41.75786,5.043" /><path
         id="path60"
         style="fill:none;stroke:#ffffff;stroke-width:3.00003004;stroke-linecap:butt;stroke-linejoin:miter;stroke-miterlimit:4;stroke-dasharray:none;stroke-opacity:1"
         d="m 53.1602,449.281 c 7.6992,-13.789 -0.5821,-24.457 -14.3321,-32.148 -13.789,-7.699 -27.8086,-9.492 -35.50779,4.301" /><path
         id="path62"
         style="fill:none;stroke:#02709f;stroke-width:3.99993992;stroke-linecap:butt;stroke-linejoin:miter;stroke-miterlimit:4;stroke-dasharray:none;stroke-opacity:1"
         d="m 165.078,199.754 c 7.652,-34.691 7.731,-87.852 45.274,-103.0118 10.859,-4.3789 23.476,-2.3399 34.488,-6.3281 26.019,-9.4922 37.109,-36.5235 58.281,-53.6328 19.149,-15.4688 45.078,-13.5977 66.957,-5.668" /></g></g></svg>