<?xml version="1.0" encoding="UTF-8" standalone="no"?>
<svg
   xmlns:dc="http://purl.org/dc/elements/1.1/"
   xmlns:cc="http://creativecommons.org/ns#"
   xmlns:rdf="http://www.w3.org/1999/02/22-rdf-syntax-ns#"
   xmlns:svg="http://www.w3.org/2000/svg"
   xmlns="http://www.w3.org/2000/svg"
   viewBox="0 0 45.8125 31.049999"
   height="31.049999"
   width="45.8125"
   xml:space="preserve"
   version="1.1"
   id="svg2"><metadata
     id="metadata8"><rdf:RDF><cc:Work
         rdf:about=""><dc:format>image/svg+xml</dc:format><dc:type
           rdf:resource="http://purl.org/dc/dcmitype/StillImage" /></cc:Work></rdf:RDF></metadata><defs
     id="defs6" /><g
     transform="matrix(1.25,0,0,-1.25,0,31.05)"
     id="g10"><g
       transform="scale(0.1,0.1)"
       id="g12"><path
         id="path14"
         style="fill:#026c9b;fill-opacity:1;fill-rule:nonzero;stroke:none"
         d="m 364.734,175.84 c 0,-38.945 -81.199,-70.527 -181.367,-70.527 C 83.1953,105.313 2,136.895 2,175.84 L 2,72.5273 C 2,33.5742 83.1953,1.99219 183.367,1.99219 c 100.168,0 181.367,31.58201 181.367,70.53511 l 0,103.3127" /><path
         id="path16"
         style="fill:none;stroke:#ffffff;stroke-width:4;stroke-linecap:butt;stroke-linejoin:miter;stroke-miterlimit:4;stroke-dasharray:none;stroke-opacity:1"
         d="m 364.734,175.84 c 0,-38.945 -81.199,-70.527 -181.367,-70.527 C 83.1953,105.313 2,136.895 2,175.84 L 2,72.5273 C 2,33.5742 83.1953,1.99219 183.367,1.99219 c 100.168,0 181.367,31.58201 181.367,70.53511 l 0,103.3127 z" /><path
         id="path18"
         style="fill:#026c9b;fill-opacity:1;fill-rule:nonzero;stroke:none"
         d="m 364.734,175.84 c 0,-38.945 -81.199,-70.527 -181.367,-70.527 C 83.1953,105.313 2,136.895 2,175.84 L 2,72.5273 C 2,33.5742 83.1953,1.99219 183.367,1.99219 c 100.168,0 181.367,31.58201 181.367,70.53511 l 0,103.3127" /><path
         id="path20"
         style="fill:none;stroke:#ffffff;stroke-width:4;stroke-linecap:butt;stroke-linejoin:miter;stroke-miterlimit:4;stroke-dasharray:none;stroke-opacity:1"
         d="m 364.734,175.84 c 0,-38.945 -81.199,-70.527 -181.367,-70.527 C 83.1953,105.313 2,136.895 2,175.84 L 2,72.5273 C 2,33.5742 83.1953,1.99219 183.367,1.99219 c 100.168,0 181.367,31.58201 181.367,70.53511 l 0,103.3127 z" /><path
         id="path22"
         style="fill:#026c9b;fill-opacity:1;fill-rule:nonzero;stroke:none"
         d="m 183.367,105.313 c 100.168,0 181.367,31.582 181.367,70.527 0,38.953 -81.199,70.535 -181.367,70.535 C 83.1953,246.375 2,214.793 2,175.84 2,136.895 83.1953,105.313 183.367,105.313" /><path
         id="path24"
         style="fill:none;stroke:#ffffff;stroke-width:4;stroke-linecap:butt;stroke-linejoin:miter;stroke-miterlimit:4;stroke-dasharray:none;stroke-opacity:1"
         d="m 183.367,105.313 c 100.168,0 181.367,31.582 181.367,70.527 0,38.953 -81.199,70.535 -181.367,70.535 C 83.1953,246.375 2,214.793 2,175.84 2,136.895 83.1953,105.313 183.367,105.313 Z" /><path
         id="path26"
         style="fill:#026c9b;fill-opacity:1;fill-rule:nonzero;stroke:none"
         d="m 265.945,154.707 39.563,-14.57 -39.363,-18.535 -0.071,11.132 -197.2342,0.262 -0.4492,14.797 197.4764,0.437 0.078,6.477" /><path
         id="path28"
         style="fill:#ffffff;fill-opacity:1;fill-rule:nonzero;stroke:none"
         d="m 108.047,195.41 9.016,0 c 5.171,-22.129 5.679,-24.941 6.414,-29.562 l 0.109,0 c 0.738,4.218 1.355,8.332 5.633,29.562 l 8.957,0 c 4.722,-22.187 5.113,-24.328 6.012,-29.562 l 0.121,0 c 0.679,3.828 1.343,7.316 6.589,29.562 l 8.555,0 -11.379,-40.43 -8.101,0 c -4.16,19.825 -4.907,23.758 -6.25,31.532 l -0.11,0 c -1.242,-7.774 -1.925,-10.703 -6.25,-31.532 l -7.883,0 -11.433,40.43" /><path
         id="path30"
         style="fill:#ffffff;fill-opacity:1;fill-rule:nonzero;stroke:none"
         d="m 161.16,195.41 9.016,0 c 5.176,-22.129 5.683,-24.941 6.418,-29.562 l 0.117,0 c 0.723,4.218 1.348,8.332 5.625,29.562 l 8.953,0 c 4.727,-22.187 5.125,-24.328 6.024,-29.562 l 0.121,0 c 0.664,3.828 1.343,7.316 6.582,29.562 l 8.55,0 -11.367,-40.43 -8.101,0 c -4.184,19.825 -4.907,23.758 -6.25,31.532 l -0.118,0 c -1.242,-7.774 -1.917,-10.703 -6.25,-31.532 l -7.882,0 -11.438,40.43" /><path
         id="path32"
         style="fill:#ffffff;fill-opacity:1;fill-rule:nonzero;stroke:none"
         d="m 214.285,195.41 9.004,0 c 5.18,-22.129 5.688,-24.941 6.43,-29.562 l 0.105,0 c 0.735,4.218 1.348,8.332 5.637,29.562 l 8.941,0 c 4.731,-22.187 5.129,-24.328 6.028,-29.562 l 0.105,0 c 0.688,3.828 1.36,7.316 6.594,29.562 l 8.562,0 -11.375,-40.43 -8.117,0 c -4.16,19.825 -4.89,23.758 -6.25,31.532 l -0.105,0 c -1.239,-7.774 -1.914,-10.703 -6.25,-31.532 l -7.879,0 -11.43,40.43" /></g></g></svg>