<?xml version="1.0" encoding="UTF-8" standalone="no"?>
<svg
   xmlns:dc="http://purl.org/dc/elements/1.1/"
   xmlns:cc="http://creativecommons.org/ns#"
   xmlns:rdf="http://www.w3.org/1999/02/22-rdf-syntax-ns#"
   xmlns:svg="http://www.w3.org/2000/svg"
   xmlns="http://www.w3.org/2000/svg"
   viewBox="0 0 46.25 32.5"
   height="32.5"
   width="46.25"
   xml:space="preserve"
   version="1.1"
   id="svg2"><metadata
     id="metadata8"><rdf:RDF><cc:Work
         rdf:about=""><dc:format>image/svg+xml</dc:format><dc:type
           rdf:resource="http://purl.org/dc/dcmitype/StillImage" /></cc:Work></rdf:RDF></metadata><defs
     id="defs6" /><g
     transform="matrix(1.25,0,0,-1.25,0,32.5)"
     id="g10"><g
       transform="scale(0.1,0.1)"
       id="g12"><path
         id="path14"
         style="fill:#026c9b;fill-opacity:1;fill-rule:nonzero;stroke:none"
         d="m 364.73,185.84 c 0,-38.942 -81.21,-70.5 -181.371,-70.5 -100.1598,0 -181.37072,31.558 -181.37072,70.5 l 0,-103.3205 c 0,-38.9414 81.21092,-70.5 181.37072,-70.5 100.161,0 181.371,31.5586 181.371,70.5 l 0,103.3205" /><path
         id="path16"
         style="fill:none;stroke:#ffffff;stroke-width:4;stroke-linecap:butt;stroke-linejoin:miter;stroke-miterlimit:4;stroke-dasharray:none;stroke-opacity:1"
         d="m 364.73,185.844 c 0,-38.942 -81.21,-70.512 -181.371,-70.512 -100.1598,0 -181.37072,31.57 -181.37072,70.512 l 0,-103.3206 c 0,-38.9414 81.21092,-70.5117 181.37072,-70.5117 100.161,0 181.371,31.5703 181.371,70.5117 l 0,103.3206 z" /><path
         id="path18"
         style="fill:#026c9b;fill-opacity:1;fill-rule:nonzero;stroke:none"
         d="m 364.73,185.84 c 0,-38.942 -81.21,-70.5 -181.371,-70.5 -100.1598,0 -181.37072,31.558 -181.37072,70.5 l 0,-103.3205 c 0,-38.9414 81.21092,-70.5 181.37072,-70.5 100.161,0 181.371,31.5586 181.371,70.5 l 0,103.3205" /><path
         id="path20"
         style="fill:none;stroke:#ffffff;stroke-width:4;stroke-linecap:butt;stroke-linejoin:miter;stroke-miterlimit:4;stroke-dasharray:none;stroke-opacity:1"
         d="m 364.73,185.844 c 0,-38.942 -81.21,-70.512 -181.371,-70.512 -100.1598,0 -181.37072,31.57 -181.37072,70.512 l 0,-103.3206 c 0,-38.9414 81.21092,-70.5117 181.37072,-70.5117 100.161,0 181.371,31.5703 181.371,70.5117 l 0,103.3206 z" /><path
         id="path22"
         style="fill:#026c9b;fill-opacity:1;fill-rule:nonzero;stroke:none"
         d="m 183.359,115.34 c 100.161,0 181.371,31.558 181.371,70.5 0,38.949 -81.21,70.551 -181.371,70.551 -100.1598,0 -181.37072,-31.602 -181.37072,-70.551 0,-38.942 81.21092,-70.5 181.37072,-70.5" /><path
         id="path24"
         style="fill:none;stroke:#ffffff;stroke-width:4;stroke-linecap:butt;stroke-linejoin:miter;stroke-miterlimit:4;stroke-dasharray:none;stroke-opacity:1"
         d="m 183.359,115.332 c 100.161,0 181.371,31.57 181.371,70.512 0,38.949 -81.21,70.551 -181.371,70.551 -100.1598,0 -181.37072,-31.602 -181.37072,-70.551 0,-38.942 81.21092,-70.512 181.37072,-70.512 z" /><path
         id="path26"
         style="fill:#026c9b;fill-opacity:1;fill-rule:nonzero;stroke:none"
         d="m 265.941,164.711 39.571,-14.57 -39.383,-18.512 -0.078,11.133 -197.2229,0.226 -0.4297,14.813 197.4606,0.429 0.082,6.481" /><path
         id="path28"
         style="fill:#ffffff;fill-opacity:1;fill-rule:nonzero;stroke:none"
         d="m 108.051,205.41 9.019,0 c 5.16,-22.109 5.66,-24.922 6.41,-29.57 l 0.11,0 c 0.75,4.219 1.332,8.359 5.629,29.57 l 8.941,0 c 4.731,-22.18 5.121,-24.332 6.02,-29.57 l 0.121,0 c 0.699,3.832 1.359,7.351 6.597,29.57 l 8.551,0 -11.359,-40.43 -8.129,0 c -4.141,19.848 -4.883,23.75 -6.25,31.532 l -0.121,0 c -1.211,-7.782 -1.91,-10.711 -6.25,-31.532 l -7.852,0 -11.437,40.43" /><path
         id="path30"
         style="fill:#ffffff;fill-opacity:1;fill-rule:nonzero;stroke:none"
         d="m 161.172,205.41 9.027,0 c 5.153,-22.109 5.66,-24.922 6.403,-29.57 l 0.117,0 c 0.703,4.219 1.332,8.359 5.621,29.57 l 8.949,0 c 4.731,-22.18 5.121,-24.332 6.012,-29.57 l 0.121,0 c 0.668,3.832 1.367,7.351 6.598,29.57 l 8.558,0 -11.367,-40.43 -8.121,0 c -4.18,19.848 -4.891,23.75 -6.25,31.532 l -0.121,0 c -1.25,-7.782 -1.918,-10.711 -6.25,-31.532 l -7.848,0 -11.449,40.43" /><path
         id="path32"
         style="fill:#ffffff;fill-opacity:1;fill-rule:nonzero;stroke:none"
         d="m 214.301,205.41 8.98,0 c 5.199,-22.109 5.699,-24.922 6.449,-29.57 l 0.071,0 c 0.75,4.219 1.371,8.359 5.668,29.57 l 8.941,0 c 4.731,-22.18 5.121,-24.332 6.02,-29.57 l 0.121,0 c 0.66,3.832 1.359,7.351 6.597,29.57 l 8.551,0 -11.398,-40.43 -8.09,0 c -4.18,19.848 -4.883,23.75 -6.25,31.532 l -0.121,0 c -1.25,-7.782 -1.91,-10.711 -6.25,-31.532 l -7.891,0 -11.398,40.43" /></g></g></svg>