<?xml version="1.0" encoding="UTF-8" standalone="no"?>
<svg
   xmlns:dc="http://purl.org/dc/elements/1.1/"
   xmlns:cc="http://creativecommons.org/ns#"
   xmlns:rdf="http://www.w3.org/1999/02/22-rdf-syntax-ns#"
   xmlns:svg="http://www.w3.org/2000/svg"
   xmlns="http://www.w3.org/2000/svg"
   viewBox="0 0 59.337502 35.762501"
   height="35.762501"
   width="59.337502"
   xml:space="preserve"
   version="1.1"
   id="svg2"><metadata
     id="metadata8"><rdf:RDF><cc:Work
         rdf:about=""><dc:format>image/svg+xml</dc:format><dc:type
           rdf:resource="http://purl.org/dc/dcmitype/StillImage" /></cc:Work></rdf:RDF></metadata><defs
     id="defs6" /><g
     transform="matrix(1.25,0,0,-1.25,0,35.7625)"
     id="g10"><g
       transform="scale(0.1,0.1)"
       id="g12"><path
         id="path14"
         style="fill:#ffffff;fill-opacity:1;fill-rule:nonzero;stroke:none"
         d="m 390.859,7.5 -276.765,0 77.371,46.6719 279.238,0.3789 L 390.859,7.5" /><path
         id="path16"
         style="fill:none;stroke:#1286be;stroke-width:8;stroke-linecap:round;stroke-linejoin:round;stroke-miterlimit:4;stroke-dasharray:none;stroke-opacity:1"
         d="m 390.859,7.5 -276.765,0 77.371,46.6719 279.238,0.3789 L 390.859,7.5 Z" /><path
         id="path18"
         style="fill:none;stroke:#1286be;stroke-width:8;stroke-linecap:round;stroke-linejoin:round;stroke-miterlimit:4;stroke-dasharray:none;stroke-opacity:1"
         d="M 191.465,54.1719 114.094,7.5 114.055,236.797 191.477,281.68 191.465,54.1719 Z" /><path
         id="path20"
         style="fill:#ffffff;fill-opacity:1;fill-rule:nonzero;stroke:none"
         d="m 4,115.254 130.914,0" /><path
         id="path22"
         style="fill:none;stroke:#1286be;stroke-width:8;stroke-linecap:round;stroke-linejoin:miter;stroke-miterlimit:4;stroke-dasharray:none;stroke-opacity:1"
         d="m 4,115.254 130.914,0" /><path
         id="path24"
         style="fill:#ffffff;fill-opacity:1;fill-rule:nonzero;stroke:none"
         d="m 134.844,138.535 -119.0315,0" /><path
         id="path26"
         style="fill:none;stroke:#1286be;stroke-width:8;stroke-linecap:round;stroke-linejoin:miter;stroke-miterlimit:4;stroke-dasharray:none;stroke-opacity:1"
         d="m 134.844,138.535 -119.0315,0" /><path
         id="path28"
         style="fill:#ffffff;fill-opacity:1;fill-rule:nonzero;stroke:none"
         d="m 153.996,88.3594 -114.0937,0" /><path
         id="path30"
         style="fill:none;stroke:#1286be;stroke-width:8;stroke-linecap:round;stroke-linejoin:miter;stroke-miterlimit:4;stroke-dasharray:none;stroke-opacity:1"
         d="m 153.996,88.3594 -114.0937,0" /><path
         id="path32"
         style="fill:#ffffff;fill-opacity:1;fill-rule:nonzero;stroke:none"
         d="m 142.266,158.535 -84.8637,0" /><path
         id="path34"
         style="fill:none;stroke:#1286be;stroke-width:8;stroke-linecap:round;stroke-linejoin:miter;stroke-miterlimit:4;stroke-dasharray:none;stroke-opacity:1"
         d="m 142.266,158.535 -84.8637,0" /><path
         id="path36"
         style="fill:#1286be;fill-opacity:1;fill-rule:nonzero;stroke:none"
         d="m 428.352,175.859 c 0,-30.421 -63.411,-55.078 -141.622,-55.078 -78.222,0 -141.628,24.657 -141.628,55.078 l 0,-80.6754 c 0,-30.418 63.406,-55.0664 141.628,-55.0664 78.211,0 141.622,24.6484 141.622,55.0664 l 0,80.6754" /><path
         id="path38"
         style="fill:none;stroke:#ffffff;stroke-width:3.07999992;stroke-linecap:butt;stroke-linejoin:miter;stroke-miterlimit:4;stroke-dasharray:none;stroke-opacity:1"
         d="m 428.352,175.859 c 0,-30.421 -63.411,-55.078 -141.622,-55.078 -78.222,0 -141.628,24.657 -141.628,55.078 l 0,-80.6754 c 0,-30.418 63.406,-55.0664 141.628,-55.0664 78.211,0 141.622,24.6484 141.622,55.0664 l 0,80.6754 z" /><path
         id="path40"
         style="fill:#1286be;fill-opacity:1;fill-rule:nonzero;stroke:none"
         d="m 286.73,120.781 c 78.211,0 141.622,24.657 141.622,55.078 0,30.418 -63.411,55.071 -141.622,55.071 -78.222,0 -141.628,-24.653 -141.628,-55.071 0,-30.421 63.406,-55.078 141.628,-55.078" /><path
         id="path42"
         style="fill:none;stroke:#ffffff;stroke-width:3.07999992;stroke-linecap:butt;stroke-linejoin:miter;stroke-miterlimit:4;stroke-dasharray:none;stroke-opacity:1"
         d="m 286.73,120.781 c 78.211,0 141.622,24.657 141.622,55.078 0,30.418 -63.411,55.071 -141.622,55.071 -78.222,0 -141.628,-24.653 -141.628,-55.071 0,-30.421 63.406,-55.078 141.628,-55.078 z" /><path
         id="path44"
         style="fill:#ffffff;fill-opacity:1;fill-rule:nonzero;stroke:none"
         d="m 254.387,197.391 11.687,-17.547 -44.211,-10.215 9.66,8.047 -68.335,11.679 17.144,12.848 65.938,-11.164 8.117,6.352" /><path
         id="path46"
         style="fill:#ffffff;fill-opacity:1;fill-rule:nonzero;stroke:none"
         d="m 316.602,154.852 -7.977,18.086 39.883,7.972 -6.914,-6.203 66.465,-11.348 -15.95,-12.761 -66.074,12.41 -9.433,-8.156" /><path
         id="path48"
         style="fill:#ffffff;fill-opacity:1;fill-rule:nonzero;stroke:none"
         d="m 294.797,206.973 44.668,12.226 0.523,-19.144 -11.16,2.129 -21.797,-18.086 -20.808,3.035 22.507,17.687 -13.933,2.153" /><path
         id="path50"
         style="fill:#ffffff;fill-opacity:1;fill-rule:nonzero;stroke:none"
         d="m 275.645,138.359 -42.532,-7.968 -1.597,19.668 12.222,-2.645 23.418,19.988 20.727,-3.496 -24.992,-21.816 12.754,-3.731" /><path
         id="path52"
         style="fill:none;stroke:#1286be;stroke-width:8;stroke-linecap:round;stroke-linejoin:round;stroke-miterlimit:4;stroke-dasharray:none;stroke-opacity:1"
         d="M 470.703,54.5508 390.859,7.5 l -0.039,229.297 79.785,45.332 0.098,-227.5782 z" /><path
         id="path54"
         style="fill:none;stroke:#1286be;stroke-width:8;stroke-linecap:round;stroke-linejoin:round;stroke-miterlimit:4;stroke-dasharray:none;stroke-opacity:1"
         d="m 390.82,236.797 -276.765,0 77.422,44.883 279.128,0.449 -79.785,-45.332 z" /><g
         transform="scale(10,10)"
         id="g56"><text
           id="text58"
           style="font-variant:normal;font-weight:bold;font-size:6px;font-family:Helvetica;-inkscape-font-specification:Helvetica-Bold;writing-mode:lr-tb;fill:#ffffff;fill-opacity:1;fill-rule:nonzero;stroke:none"
           transform="matrix(1,0,0,-1,16.8,7.67383)"><tspan
             id="tspan60"
             y="0"
             x="0">8</tspan><tspan
             id="tspan62"
             y="1.28125"
             x="3.67734">0</tspan><tspan
             id="tspan64"
             y="2.038281"
             x="7.5 10.836">2.</tspan><tspan
             id="tspan66"
             y="2.0722654"
             x="13">1</tspan><tspan
             id="tspan68"
             y="1.5011714"
             x="16.533199">1</tspan></text>
</g><path
         id="path70"
         style="fill:none;stroke:#ffffff;stroke-width:15;stroke-linecap:round;stroke-linejoin:round;stroke-miterlimit:4;stroke-dasharray:none;stroke-opacity:1"
         d="m 390.859,7.5 -276.765,0 -0.039,229.297 276.765,0 L 390.859,7.5 Z" /><path
         id="path72"
         style="fill:none;stroke:#1286be;stroke-width:8;stroke-linecap:round;stroke-linejoin:round;stroke-miterlimit:4;stroke-dasharray:none;stroke-opacity:1"
         d="m 390.859,7.5 -276.765,0 -0.039,229.297 276.765,0 L 390.859,7.5 Z" /></g></g></svg>