<svg xmlns="http://www.w3.org/2000/svg" viewBox="0 0 55 50" height="50" width="55"><path d="M.507 27.888h16.25M5.717 32.556h10.83M16.757 21.257h-8.96M3.632 25.51h12.915M42.377 48.068H18.071l10.64-6.425 24.644-.05-10.977 6.475zM28.711 41.643l-10.64 6.425-.005-40.684 10.645-6.171v40.43z" fill="none" stroke="#1089c2" stroke-width="1" stroke-linecap="round" stroke-linejoin="round"/><path d="M42.373 7.384H18.066l10.645-6.171 24.629-.084-10.968 6.255zM42.377 48.249H18.071l-.005-40.865h24.307l.005 40.865z" fill="none" stroke="#1089c2" stroke-width="1" stroke-linecap="round" stroke-linejoin="round"/><path d="M53.355 41.593l-10.977 6.475-.005-40.684L53.34 1.13l.015 40.464z" fill="none" stroke="#231f20" stroke-width="1.1" stroke-linecap="round" stroke-linejoin="round"/><path d="M53.355 41.593l-10.977 6.475-.005-40.684L53.34 1.13l.015 40.464z" fill="none" stroke="#1089c2" stroke-width="1" stroke-linecap="round" stroke-linejoin="round"/><path d="M53.355 41.593l-10.977 6.475-.005-40.684L53.34 1.13l.015 40.464z" fill="none" stroke="#1089c2" stroke-width="1" stroke-linecap="round" stroke-linejoin="round"/><path d="M40.01 9.538s-.489-.141-.909-.259c-.371-.102-.889-.235-.889-.235" fill="none" stroke="#fff" stroke-width=".2875" stroke-linejoin="round"/><path d="M39.853 25.036c.337-1.221 1.743-7.305 1.802-8.155.059-.843-.254-1.908-.702-2.124.023-.302.028-.473.028-.473a15.726 15.726 0 0 1-.331-.132l.034.014s.322-1.36.507-2.304l.464-2.358c-.005-.244-.073-.464-.298-.528l-1.054-.292c-.23-.064-.386.077-.528.302 0 0-.41.84-.991 2.559-.308.908-.674 1.683-.674 1.683l.015.01a42.076 42.076 0 0 0-6.831-1.624s-.083.146-.22.419c-.493-.05-1.309.703-1.694 1.464-.376.758-2.295 6.706-2.632 7.92-.337 1.222-.987 4.322-1.274 5.86-.289 1.548-.543 4.233-1.534 7.826-.585 2.12-1.532 5.274-2.026 6.588-.131.342-1.166 2.095.338 2.685 1.478.586 3.68 1.216 4.789 1.524 1.113.308 3.325.894 4.898 1.153 1.596.258 1.606-1.773 1.67-2.134.248-1.381 1.054-4.575 1.64-6.694.991-3.59 2.149-6.031 2.691-7.505.546-1.47 1.576-4.469 1.914-5.684" fill="#1089c2"/><path d="M38.217 25.197c.338-1.215 1.744-7.304 1.803-8.154.063-.846-.255-1.91-.704-2.12.025-.307.03-.473.03-.473-.112-.049-.22-.088-.332-.131l.033.009s.323-1.358.513-2.3l.46-2.358c-.005-.249-.069-.469-.299-.532l-1.049-.288c-.235-.064-.386.078-.532.297 0 0-.405.846-.991 2.559-.308.908-.674 1.689-.674 1.689l.014.005a44.102 44.102 0 0 0-1.909-.576 43.28 43.28 0 0 0-4.921-1.05s-.079.152-.215.42c-.5-.044-1.314.708-1.696 1.465-.38.757-2.3 6.705-2.636 7.925-.337 1.221-.98 4.316-1.27 5.86-.287 1.542-.546 4.232-1.537 7.826-.586 2.115-1.534 5.269-2.026 6.583-.133.346-1.168 2.094.336 2.69 1.485.586 3.682 1.216 4.795 1.523 1.114.308 3.32.894 4.893 1.148 1.597.264 1.606-1.773 1.67-2.134.248-1.377 1.054-4.575 1.64-6.69.992-3.594 2.148-6.035 2.69-7.505.547-1.474 1.578-4.468 1.914-5.688" fill="#1089c2"/><path d="M38.217 25.197c.338-1.215 1.744-7.304 1.803-8.154.063-.845-.255-1.909-.704-2.119.025-.308.03-.473.03-.473-.112-.05-.22-.09-.332-.133l.033.01s.323-1.357.513-2.3l.46-2.359c-.005-.249-.069-.468-.299-.53l-1.049-.29c-.235-.063-.386.08-.532.298 0 0-.405.845-.991 2.559-.308.908-.674 1.69-.674 1.69l.014.004a42.577 42.577 0 0 0-6.83-1.626s-.079.151-.215.42c-.5-.044-1.314.708-1.696 1.465-.38.756-2.3 6.704-2.636 7.925-.337 1.22-.98 4.316-1.27 5.859-.287 1.544-.546 4.234-1.537 7.827-.586 2.114-1.534 5.27-2.026 6.583-.133.346-1.168 2.094.336 2.69 1.485.586 3.682 1.216 4.795 1.524 1.114.307 3.32.892 4.893 1.147 1.597.264 1.606-1.772 1.67-2.133.248-1.378 1.054-4.577 1.64-6.69.992-3.594 2.148-6.035 2.69-7.505.547-1.475 1.578-4.468 1.914-5.69z" fill="none" stroke="#fff" stroke-width=".4375"/><path d="M30.513 47.214c1.597.264 1.606-1.772 1.67-2.133.248-1.378 1.054-4.577 1.64-6.69.992-3.594 2.148-6.035 2.69-7.505.547-1.475 1.578-4.468 1.915-5.69.337-1.214 1.743-7.303 1.802-8.153.063-.845-.255-1.909-.704-2.119.025-.308.03-.473.03-.473-.112-.05-.225-.09-.332-.133l.033.01s.323-1.357.508-2.3l.465-2.359c-.005-.249-.069-.468-.304-.53l-1.049-.29" fill="none" stroke="#fff" stroke-width=".2875" stroke-linejoin="round"/><path d="M26.065 44.465c-.02.054-.118.077-.23.049-.107-.03-.181-.103-.166-.157.015-.063.117-.083.225-.053.112.029.185.102.171.16zm-.396-.108l-.372 1.338m.435-1.23l-.346 1.255m.679-1.255l-.371 1.343m.259-1.28l-.348 1.255m2.72-20.747l-.259.933m.362-.904l-.264.942m5.527.513l-.258.927m.156-.956l-.264.943" fill="#231f20"/><path d="M26.065 44.464c-.02.054-.118.079-.23.05-.107-.03-.181-.103-.166-.157.015-.063.117-.083.225-.054.112.03.185.102.171.161zm-.396-.107l-.372 1.338m.435-1.23l-.346 1.254m.679-1.255l-.371 1.344m.259-1.28l-.348 1.255m2.72-20.747l-.259.932m.362-.903l-.264.943m5.527.512l-.258.928m.156-.957l-.264.942" fill="none" stroke="#fff" stroke-width=".2875" stroke-linejoin="round"/><path d="M39.047 14.328s.328-1.358.513-2.3l.46-2.358c-.005-.249-.069-.469-.299-.532l-1.049-.288c-.234-.064-.386.078-.532.297 0 0-.405.846-.991 2.559-.308.908-.674 1.689-.674 1.689m2.695.44a44.47 44.47 0 0 0-2.569-.904M29.87 11.81s-2.159 4.403-3.394 8.871c-1.465 5.317-1.68 7.09-1.46 9.556.049.512.551 1.133 1.117 1.289.225.064.484.133.592.166.107.03.522.131.868.4.348.269.435.338.64.45.206.113.23.185.81.347.581.16.645.112.88.122.234.01.342-.01.777-.064.439-.053.843.074.956.103.108.029.366.102.591.166.566.156 1.319-.123 1.616-.537 1.46-2.002 2.183-3.638 3.653-8.955 1.23-4.463 1.635-9.35 1.635-9.35m-10.551-.358c1.733.25 3.608.65 5.341 1.128 1.739.483 3.55 1.1 5.171 1.773" fill="#1089c2"/><path d="M32.661 29.547a2.617 2.617 0 0 1-5.043-1.39 2.62 2.62 0 0 1 3.217-1.827 2.62 2.62 0 0 1 1.826 3.217" fill="#1089c2"/><path d="M32.661 29.548a2.617 2.617 0 0 1-3.217 1.826 2.62 2.62 0 0 1-1.826-3.219 2.62 2.62 0 0 1 3.217-1.824 2.62 2.62 0 0 1 1.826 3.217z" fill="none" stroke="#fff" stroke-width=".4375"/><path d="M33.525 15.895l.86-3.125" fill="#231f20"/><path d="M33.525 15.895l.86-3.125" fill="none" stroke="#fff" stroke-width=".2875" stroke-linejoin="round"/><path d="M33.809 15.974l.863-3.125" fill="#231f20"/><path d="M33.809 15.973l.863-3.125" fill="none" stroke="#fff" stroke-width=".2875" stroke-linejoin="round"/><path d="M36.421 25.646a.427.427 0 0 1-.528.298l-9.052-2.495a.432.432 0 0 1-.303-.528l1.582-5.727a.426.426 0 0 1 .527-.297L37.7 19.39c.23.069.366.303.302.533l-1.58 5.723" fill="#231f20"/><path d="M36.421 25.647a.428.428 0 0 1-.528.297l-9.052-2.495a.432.432 0 0 1-.303-.527l1.582-5.728a.425.425 0 0 1 .527-.297l9.053 2.495c.23.068.366.302.302.532l-1.58 5.723z" fill="none" stroke="#fff" stroke-width=".2875" stroke-linejoin="round"/><path d="M26.26 33.674a.999.999 0 0 1-1.226.698 1 1 0 0 1 .527-1.925 1 1 0 0 1 .699 1.227M24.449 39.788a1.004 1.004 0 0 1-1.232.697.991.991 0 0 1-.692-1.225.996.996 0 0 1 1.225-.699.999.999 0 0 1 .699 1.227M32.856 35.578a.997.997 0 0 1-1.225.693.99.99 0 0 1-.694-1.225.996.996 0 1 1 1.92.532M31.045 41.691a.995.995 0 0 1-1.226.694.997.997 0 0 1-.698-1.226.993.993 0 0 1 1.225-.693.995.995 0 0 1 .699 1.225M29.385 35.353a.995.995 0 0 1-1.226.693.997.997 0 1 1 1.226-.693M25.377 36.74a1.003 1.003 0 0 1-1.232.699 1 1 0 0 1-.692-1.227.998.998 0 0 1 1.924.528M31.973 38.645a.998.998 0 1 1-.698-1.231c.531.15.844.698.698 1.231M28.496 38.42a.993.993 0 0 1-1.226.694.998.998 0 0 1-.692-1.226.992.992 0 0 1 1.225-.694.99.99 0 0 1 .693 1.226M27.569 41.466c-.147.533-.694.84-1.227.699a1.003 1.003 0 0 1-.692-1.23.993.993 0 0 1 1.225-.694c.533.147.84.694.694 1.225" fill="#fff"/></svg>