<?xml version="1.0" encoding="UTF-8" standalone="no"?>
<svg
   xmlns:dc="http://purl.org/dc/elements/1.1/"
   xmlns:cc="http://creativecommons.org/ns#"
   xmlns:rdf="http://www.w3.org/1999/02/22-rdf-syntax-ns#"
   xmlns:svg="http://www.w3.org/2000/svg"
   xmlns="http://www.w3.org/2000/svg"
   viewBox="0 0 55 50"
   height="50"
   width="55"
   xml:space="preserve"
   version="1.1"
   id="svg2"><metadata
     id="metadata8"><rdf:RDF><cc:Work
         rdf:about=""><dc:format>image/svg+xml</dc:format><dc:type
           rdf:resource="http://purl.org/dc/dcmitype/StillImage" /></cc:Work></rdf:RDF></metadata><defs
     id="defs6" /><g
     transform="matrix(1.25,0,0,-1.25,0,50)"
     id="g10"><g
       transform="scale(0.1,0.1)"
       id="g12"><path
         id="path14"
         style="fill:none;stroke:#1089c2;stroke-width:8;stroke-linecap:round;stroke-linejoin:round;stroke-miterlimit:4;stroke-dasharray:none;stroke-opacity:1"
         d="m 4.05859,176.895 130.00041,0" /><path
         id="path16"
         style="fill:none;stroke:#1089c2;stroke-width:8;stroke-linecap:round;stroke-linejoin:round;stroke-miterlimit:4;stroke-dasharray:none;stroke-opacity:1"
         d="m 45.7383,139.555 86.6407,0" /><path
         id="path18"
         style="fill:none;stroke:#1089c2;stroke-width:8;stroke-linecap:round;stroke-linejoin:round;stroke-miterlimit:4;stroke-dasharray:none;stroke-opacity:1"
         d="m 134.059,229.945 -71.6801,0" /><path
         id="path20"
         style="fill:none;stroke:#1089c2;stroke-width:8;stroke-linecap:round;stroke-linejoin:round;stroke-miterlimit:4;stroke-dasharray:none;stroke-opacity:1"
         d="m 29.0586,195.926 103.3204,0" /><path
         id="path22"
         style="fill:none;stroke:#1089c2;stroke-width:8;stroke-linecap:round;stroke-linejoin:round;stroke-miterlimit:4;stroke-dasharray:none;stroke-opacity:1"
         d="m 339.02,15.457 -194.45,0 85.121,51.3985 197.149,0.4023 -87.82,-51.8008 z" /><path
         id="path24"
         style="fill:none;stroke:#1089c2;stroke-width:8;stroke-linecap:round;stroke-linejoin:round;stroke-miterlimit:4;stroke-dasharray:none;stroke-opacity:1"
         d="M 229.691,66.8555 144.57,15.457 l -0.039,325.469 85.16,49.371 0,-323.4415 z" /><path
         id="path26"
         style="fill:none;stroke:#1089c2;stroke-width:8;stroke-linecap:round;stroke-linejoin:round;stroke-miterlimit:4;stroke-dasharray:none;stroke-opacity:1"
         d="m 338.98,340.926 -194.449,0 85.16,49.371 197.028,0.668 -87.739,-50.039 z" /><path
         id="path28"
         style="fill:none;stroke:#1089c2;stroke-width:8;stroke-linecap:round;stroke-linejoin:round;stroke-miterlimit:4;stroke-dasharray:none;stroke-opacity:1"
         d="m 339.02,14.0078 -194.45,0 -0.039,326.9182 194.449,0 0.04,-326.9182 z" /><path
         id="path30"
         style="fill:none;stroke:#231f20;stroke-width:8.80000019;stroke-linecap:round;stroke-linejoin:round;stroke-miterlimit:4;stroke-dasharray:none;stroke-opacity:1"
         d="M 426.84,67.2578 339.02,15.457 338.98,340.926 426.719,390.965 426.84,67.2578 Z" /><path
         id="path32"
         style="fill:none;stroke:#1089c2;stroke-width:8;stroke-linecap:round;stroke-linejoin:round;stroke-miterlimit:4;stroke-dasharray:none;stroke-opacity:1"
         d="M 426.84,67.2578 339.02,15.457 338.98,340.926 426.719,390.965 426.84,67.2578 Z" /><path
         id="path34"
         style="fill:none;stroke:#1089c2;stroke-width:8;stroke-linecap:round;stroke-linejoin:round;stroke-miterlimit:4;stroke-dasharray:none;stroke-opacity:1"
         d="M 426.84,67.2578 339.02,15.457 338.98,340.926 426.719,390.965 426.84,67.2578 Z" /><path
         id="path36"
         style="fill:none;stroke:#ffffff;stroke-width:2.29999995;stroke-linecap:butt;stroke-linejoin:round;stroke-miterlimit:4;stroke-dasharray:none;stroke-opacity:1"
         d="m 320.078,323.695 c 0,0 -3.906,1.129 -7.269,2.071 -2.969,0.82 -7.11,1.879 -7.11,1.879" /><path
         id="path38"
         style="fill:#1089c2;fill-opacity:1;fill-rule:nonzero;stroke:none"
         d="m 318.828,199.711 c 2.692,9.769 13.942,58.437 14.41,65.238 0.473,6.75 -2.027,15.27 -5.617,16.992 0.188,2.418 0.231,3.789 0.231,3.789 -0.903,0.348 -1.801,0.7 -2.653,1.051 l 0.27,-0.109 c 0,0 2.582,10.887 4.062,18.43 2.848,14.457 3.707,18.867 3.707,18.867 -0.039,1.953 -0.578,3.711 -2.379,4.222 l -8.437,2.34 c -1.832,0.508 -3.082,-0.621 -4.223,-2.422 0,0 -3.277,-6.718 -7.929,-20.468 -2.461,-7.262 -5.391,-13.469 -5.391,-13.469 L 305,294.09 c -5.039,1.64 -10.121,3.199 -15.27,4.609 -13.128,3.629 -26.25,6.403 -39.378,8.391 0,0 -0.661,-1.168 -1.762,-3.352 -3.942,0.391 -10.469,-5.629 -13.551,-11.718 -3.008,-6.059 -18.359,-53.641 -21.059,-63.36 -2.691,-9.769 -7.89,-34.57 -10.191,-46.879 -2.309,-12.383 -4.34,-33.859 -12.269,-62.609 -4.68,-16.961 -12.258,-42.1915 -16.211,-52.7032 -1.047,-2.7305 -9.329,-16.7579 2.703,-21.4805 11.828,-4.6875 29.449,-9.7266 38.316,-12.1875 8.902,-2.461 26.602,-7.1524 39.184,-9.2227 12.769,-2.0664 12.847,14.1836 13.359,17.0703 1.988,11.0508 8.43,36.6016 13.117,53.5508 7.934,28.7228 17.192,48.2498 21.532,60.0388 4.371,11.762 12.609,35.75 15.308,45.473" /><path
         id="path40"
         style="fill:#1089c2;fill-opacity:1;fill-rule:nonzero;stroke:none"
         d="m 305.738,198.422 c 2.703,9.726 13.953,58.437 14.422,65.238 0.5,6.762 -2.039,15.27 -5.629,16.949 0.199,2.461 0.239,3.789 0.239,3.789 -0.899,0.391 -1.758,0.704 -2.661,1.051 l 0.27,-0.07 c 0,0 2.582,10.859 4.101,18.391 2.821,14.5 3.68,18.871 3.68,18.871 -0.039,1.988 -0.551,3.75 -2.39,4.257 l -8.391,2.301 c -1.879,0.512 -3.09,-0.621 -4.258,-2.379 0,0 -3.242,-6.761 -7.93,-20.468 -2.461,-7.262 -5.39,-13.512 -5.39,-13.512 l 0.109,-0.039 c -5,1.64 -10.07,3.16 -15.269,4.609 -13.09,3.59 -26.25,6.399 -39.371,8.399 0,0 -0.629,-1.219 -1.719,-3.36 -3.992,0.352 -10.512,-5.668 -13.563,-11.719 -3.039,-6.058 -18.398,-53.64 -21.09,-63.402 -2.699,-9.769 -7.847,-34.527 -10.16,-46.879 -2.297,-12.34 -4.367,-33.859 -12.297,-62.609 -4.691,-16.918 -12.269,-42.1486 -16.211,-52.6603 -1.058,-2.7695 -9.339,-16.7578 2.692,-21.5195 11.879,-4.6914 29.457,-9.7305 38.359,-12.1914 8.91,-2.4571 26.559,-7.1485 39.141,-9.1797 12.777,-2.1094 12.848,14.1797 13.359,17.0703 1.989,11.0195 8.438,36.6015 13.129,53.5195 7.93,28.7501 17.18,48.2811 21.52,60.0431 4.371,11.789 12.621,35.738 15.308,45.5" /><path
         id="path42"
         style="fill:none;stroke:#ffffff;stroke-width:3.5;stroke-linecap:butt;stroke-linejoin:miter;stroke-miterlimit:4;stroke-dasharray:none;stroke-opacity:1"
         d="m 305.738,198.426 c 2.703,9.719 13.953,58.429 14.422,65.23 0.5,6.762 -2.039,15.27 -5.629,16.949 0.199,2.469 0.239,3.79 0.239,3.79 -0.899,0.39 -1.758,0.71 -2.661,1.062 l 0.27,-0.082 c 0,0 2.582,10.859 4.101,18.402 2.821,14.489 3.68,18.868 3.68,18.868 -0.039,1.992 -0.551,3.75 -2.39,4.25 l -8.391,2.312 c -1.879,0.508 -3.09,-0.633 -4.258,-2.383 0,0 -3.242,-6.758 -7.93,-20.469 -2.461,-7.269 -5.39,-13.519 -5.39,-13.519 l 0.109,-0.039 c -5,1.641 -10.07,3.168 -15.269,4.609 -13.09,3.59 -26.25,6.41 -39.371,8.399 0,0 -0.629,-1.207 -1.719,-3.36 -3.992,0.352 -10.512,-5.66 -13.563,-11.718 -3.039,-6.051 -18.398,-53.629 -21.09,-63.403 -2.699,-9.758 -7.847,-34.527 -10.16,-46.867 -2.297,-12.352 -4.367,-33.871 -12.297,-62.621 -4.691,-16.91 -12.269,-42.1485 -16.211,-52.6602 -1.058,-2.7695 -9.339,-16.75 2.692,-21.5195 11.879,-4.6915 29.457,-9.7305 38.359,-12.1915 8.91,-2.457 26.559,-7.1406 39.141,-9.1796 12.777,-2.1094 12.848,14.1796 13.359,17.0703 1.989,11.0195 8.438,36.6093 13.129,53.5195 7.93,28.75 17.18,48.281 21.52,60.039 4.371,11.801 12.621,35.742 15.308,45.512 z" /><path
         id="path44"
         style="fill:none;stroke:#ffffff;stroke-width:2.29999995;stroke-linecap:butt;stroke-linejoin:round;stroke-miterlimit:4;stroke-dasharray:none;stroke-opacity:1"
         d="m 244.102,22.2852 c 12.777,-2.1094 12.847,14.1796 13.359,17.0703 1.988,11.0195 8.437,36.6093 13.129,53.5195 7.93,28.75 17.18,48.281 21.519,60.039 4.371,11.801 12.621,35.742 15.313,45.512 2.699,9.719 13.949,58.429 14.418,65.23 0.5,6.762 -2.039,15.27 -5.629,16.949 0.199,2.469 0.238,3.79 0.238,3.79 -0.898,0.39 -1.801,0.71 -2.66,1.062 l 0.27,-0.082 c 0,0 2.582,10.859 4.062,18.402 2.859,14.489 3.719,18.868 3.719,18.868 -0.039,1.992 -0.551,3.75 -2.43,4.25 l -8.39,2.312" /><path
         id="path46"
         style="fill:#231f20;fill-opacity:1;fill-rule:nonzero;stroke:none"
         d="m 208.52,44.2813 c -0.161,-0.4297 -0.942,-0.6211 -1.84,-0.3907 -0.86,0.2383 -1.45,0.8203 -1.328,1.25 0.117,0.5078 0.937,0.668 1.796,0.4297 0.903,-0.2305 1.481,-0.8203 1.372,-1.289 z m -3.168,0.8593 -2.973,-10.6992 m 3.48,9.8399 -2.769,-10.043 m 5.43,10.043 -2.969,-10.7422 m 2.07,10.2304 -2.781,-10.0312 m 21.762,165.9727 -2.071,-7.461 m 2.891,7.23 -2.113,-7.539 m 44.222,-4.101 -2.07,-7.418 m 1.25,7.648 -2.109,-7.539" /><path
         id="path48"
         style="fill:none;stroke:#ffffff;stroke-width:2.29999995;stroke-linecap:butt;stroke-linejoin:round;stroke-miterlimit:4;stroke-dasharray:none;stroke-opacity:1"
         d="m 208.52,44.2852 c -0.161,-0.4297 -0.942,-0.6289 -1.84,-0.3907 -0.86,0.2305 -1.45,0.8203 -1.328,1.25 0.117,0.5 0.937,0.6602 1.796,0.4297 0.903,-0.2383 1.481,-0.8164 1.372,-1.289 z m -3.168,0.8593 -2.973,-10.707 m 3.48,9.8477 -2.769,-10.0391 m 5.43,10.0391 -2.969,-10.75 m 2.07,10.2421 -2.781,-10.0429 m 21.762,165.9806 -2.071,-7.457 m 2.891,7.219 -2.113,-7.539 m 44.222,-4.102 -2.07,-7.422 m 1.25,7.66 -2.109,-7.539" /><path
         id="path50"
         style="fill:#1089c2;fill-opacity:1;fill-rule:nonzero;stroke:none"
         d="m 312.379,285.379 c 0,0 2.621,10.859 4.101,18.391 2.821,14.5 3.68,18.871 3.68,18.871 -0.039,1.988 -0.551,3.75 -2.39,4.257 l -8.391,2.301 c -1.879,0.512 -3.09,-0.621 -4.258,-2.379 0,0 -3.242,-6.761 -7.93,-20.468 -2.461,-7.262 -5.39,-13.512 -5.39,-13.512 m 21.558,-3.52 c -6.718,2.578 -13.589,5.039 -20.55,7.231 m -53.86,8.98 c 0,0 -17.269,-35.23 -27.148,-70.972 -11.723,-42.539 -13.442,-56.719 -11.68,-76.45 0.391,-4.097 4.41,-9.058 8.938,-10.308 1.8,-0.512 3.871,-1.063 4.73,-1.332 0.859,-0.231 4.18,-1.047 6.949,-3.199 2.782,-2.149 3.481,-2.7 5.121,-3.598 1.641,-0.902 1.84,-1.481 6.481,-2.774 4.648,-1.289 5.16,-0.898 7.039,-0.976 1.871,-0.082 2.73,0.078 6.211,0.508 3.512,0.429 6.75,-0.59 7.648,-0.821 0.864,-0.23 2.934,-0.82 4.731,-1.328 4.531,-1.25 10.551,0.981 12.929,4.297 11.68,16.012 17.461,29.102 29.223,71.641 9.84,35.703 13.078,74.801 13.078,74.801 m -84.41,2.859 c 13.871,-2 28.871,-5.199 42.731,-9.027 13.91,-3.864 28.402,-8.793 41.371,-14.18" /><path
         id="path52"
         style="fill:#1089c2;fill-opacity:1;fill-rule:nonzero;stroke:none"
         d="m 261.289,163.621 c -3.09,-11.133 -14.609,-17.699 -25.738,-14.609 -11.141,3.078 -17.66,14.609 -14.61,25.738 3.079,11.129 14.61,17.66 25.739,14.609 11.129,-3.089 17.66,-14.609 14.609,-25.738" /><path
         id="path54"
         style="fill:none;stroke:#ffffff;stroke-width:3.5;stroke-linecap:butt;stroke-linejoin:miter;stroke-miterlimit:4;stroke-dasharray:none;stroke-opacity:1"
         d="m 261.289,163.617 c -3.09,-11.133 -14.609,-17.691 -25.738,-14.609 -11.141,3.09 -17.66,14.609 -14.61,25.75 3.079,11.129 14.61,17.648 25.739,14.597 11.129,-3.078 17.66,-14.597 14.609,-25.738 z" /><path
         id="path56"
         style="fill:#231f20;fill-opacity:1;fill-rule:nonzero;stroke:none"
         d="m 268.199,272.84 6.879,25" /><path
         id="path58"
         style="fill:none;stroke:#ffffff;stroke-width:2.29999995;stroke-linecap:butt;stroke-linejoin:round;stroke-miterlimit:4;stroke-dasharray:none;stroke-opacity:1"
         d="m 268.199,272.836 6.879,25" /><path
         id="path60"
         style="fill:#231f20;fill-opacity:1;fill-rule:nonzero;stroke:none"
         d="m 270.469,272.211 6.91,25" /><path
         id="path62"
         style="fill:none;stroke:#ffffff;stroke-width:2.29999995;stroke-linecap:butt;stroke-linejoin:round;stroke-miterlimit:4;stroke-dasharray:none;stroke-opacity:1"
         d="m 270.469,272.215 6.91,25" /><path
         id="path64"
         style="fill:#231f20;fill-opacity:1;fill-rule:nonzero;stroke:none"
         d="m 291.371,194.828 c -0.512,-1.84 -2.391,-2.887 -4.223,-2.379 L 214.73,212.41 c -1.839,0.512 -2.929,2.418 -2.429,4.219 l 12.66,45.82 c 0.508,1.832 2.379,2.891 4.219,2.379 l 72.422,-19.957 c 1.839,-0.551 2.929,-2.422 2.418,-4.262 l -12.649,-45.781" /><path
         id="path66"
         style="fill:none;stroke:#ffffff;stroke-width:2.29999995;stroke-linecap:butt;stroke-linejoin:round;stroke-miterlimit:4;stroke-dasharray:none;stroke-opacity:1"
         d="m 291.371,194.824 c -0.512,-1.828 -2.391,-2.886 -4.223,-2.379 l -72.418,19.961 c -1.839,0.508 -2.929,2.418 -2.429,4.219 l 12.66,45.82 c 0.508,1.84 2.379,2.891 4.219,2.379 l 72.422,-19.957 c 1.839,-0.543 2.929,-2.422 2.418,-4.262 l -12.649,-45.781 z" /><path
         id="path68"
         style="fill:#ffffff;fill-opacity:1;fill-rule:nonzero;stroke:none"
         d="m 210.078,130.609 c -1.168,-4.257 -5.59,-6.757 -9.808,-5.589 -4.25,1.179 -6.75,5.589 -5.579,9.808 1.168,4.262 5.579,6.762 9.797,5.594 4.262,-1.184 6.762,-5.594 5.59,-9.813" /><path
         id="path70"
         style="fill:#ffffff;fill-opacity:1;fill-rule:nonzero;stroke:none"
         d="m 195.59,81.6992 c -1.211,-4.25 -5.59,-6.75 -9.852,-5.5781 -4.258,1.168 -6.718,5.5508 -5.539,9.8008 1.172,4.2578 5.539,6.7578 9.801,5.5898 4.262,-1.1719 6.762,-5.5898 5.59,-9.8125" /><path
         id="path72"
         style="fill:#ffffff;fill-opacity:1;fill-rule:nonzero;stroke:none"
         d="m 262.852,115.379 c -1.172,-4.219 -5.551,-6.719 -9.801,-5.551 -4.262,1.172 -6.762,5.551 -5.551,9.801 1.172,4.262 5.551,6.762 9.801,5.59 4.258,-1.168 6.758,-5.59 5.551,-9.84" /><path
         id="path74"
         style="fill:#ffffff;fill-opacity:1;fill-rule:nonzero;stroke:none"
         d="m 248.359,66.4688 c -1.168,-4.2579 -5.589,-6.7188 -9.808,-5.5469 -4.25,1.1679 -6.75,5.5469 -5.582,9.8086 1.172,4.2578 5.582,6.7187 9.801,5.539 4.261,-1.1679 6.761,-5.539 5.589,-9.8007" /><path
         id="path76"
         style="fill:#ffffff;fill-opacity:1;fill-rule:nonzero;stroke:none"
         d="m 235.078,117.172 c -1.168,-4.223 -5.547,-6.723 -9.808,-5.543 -4.25,1.172 -6.75,5.543 -5.579,9.801 1.168,4.261 5.579,6.761 9.797,5.59 4.262,-1.18 6.762,-5.59 5.59,-9.848" /><path
         id="path78"
         style="fill:#ffffff;fill-opacity:1;fill-rule:nonzero;stroke:none"
         d="m 203.012,106.078 c -1.172,-4.258 -5.59,-6.7577 -9.852,-5.59 -4.211,1.184 -6.711,5.59 -5.539,9.813 1.168,4.258 5.539,6.758 9.801,5.578 4.258,-1.168 6.758,-5.578 5.59,-9.801" /><path
         id="path80"
         style="fill:#ffffff;fill-opacity:1;fill-rule:nonzero;stroke:none"
         d="m 255.781,90.8398 c -1.172,-4.25 -5.582,-6.7109 -9.84,-5.539 -4.222,1.168 -6.722,5.539 -5.55,9.8008 1.168,4.2578 5.55,6.7574 9.808,5.5894 4.25,-1.2105 6.75,-5.5894 5.582,-9.8512" /><path
         id="path82"
         style="fill:#ffffff;fill-opacity:1;fill-rule:nonzero;stroke:none"
         d="m 227.969,92.6406 c -1.168,-4.2617 -5.547,-6.7187 -9.809,-5.5508 -4.211,1.1797 -6.711,5.5508 -5.539,9.8086 1.168,4.2226 5.539,6.7616 9.801,5.5506 4.258,-1.179 6.758,-5.5506 5.547,-9.8084" /><path
         id="path84"
         style="fill:#ffffff;fill-opacity:1;fill-rule:nonzero;stroke:none"
         d="m 220.551,68.2695 c -1.172,-4.2578 -5.551,-6.7187 -9.813,-5.5898 -4.218,1.2109 -6.718,5.5898 -5.539,9.8398 1.172,4.2618 5.539,6.7188 9.801,5.5508 4.262,-1.1719 6.719,-5.5508 5.551,-9.8008" /></g></g></svg>