<?xml version="1.0" encoding="UTF-8" standalone="no"?>
<svg
   xmlns:dc="http://purl.org/dc/elements/1.1/"
   xmlns:cc="http://creativecommons.org/ns#"
   xmlns:rdf="http://www.w3.org/1999/02/22-rdf-syntax-ns#"
   xmlns:svg="http://www.w3.org/2000/svg"
   xmlns="http://www.w3.org/2000/svg"
   viewBox="0 0 54.400002 49.037498"
   height="49.037498"
   width="54.400002"
   xml:space="preserve"
   version="1.1"
   id="svg2"><metadata
     id="metadata8"><rdf:RDF><cc:Work
         rdf:about=""><dc:format>image/svg+xml</dc:format><dc:type
           rdf:resource="http://purl.org/dc/dcmitype/StillImage" /></cc:Work></rdf:RDF></metadata><defs
     id="defs6" /><g
     transform="matrix(1.25,0,0,-1.25,0,49.0375)"
     id="g10"><g
       transform="scale(0.1,0.1)"
       id="g12"><path
         id="path14"
         style="fill:none;stroke:#1089c2;stroke-width:8;stroke-linecap:round;stroke-linejoin:round;stroke-miterlimit:4;stroke-dasharray:none;stroke-opacity:1"
         d="m 4.00391,169.871 130.00009,0" /><path
         id="path16"
         style="fill:none;stroke:#1089c2;stroke-width:8;stroke-linecap:round;stroke-linejoin:round;stroke-miterlimit:4;stroke-dasharray:none;stroke-opacity:1"
         d="m 45.6719,132.512 86.6721,0" /><path
         id="path18"
         style="fill:none;stroke:#1089c2;stroke-width:8;stroke-linecap:round;stroke-linejoin:round;stroke-miterlimit:4;stroke-dasharray:none;stroke-opacity:1"
         d="m 134.004,222.922 -71.6681,0" /><path
         id="path20"
         style="fill:none;stroke:#1089c2;stroke-width:8;stroke-linecap:round;stroke-linejoin:round;stroke-miterlimit:4;stroke-dasharray:none;stroke-opacity:1"
         d="m 29.0039,188.898 103.3401,0" /><path
         id="path22"
         style="fill:none;stroke:#1089c2;stroke-width:8;stroke-linecap:round;stroke-linejoin:round;stroke-miterlimit:4;stroke-dasharray:none;stroke-opacity:1"
         d="m 338.953,8.41016 -194.433,0 85.097,51.41014 197.168,0.4141 -87.832,-51.82424 z" /><path
         id="path24"
         style="fill:none;stroke:#1089c2;stroke-width:8;stroke-linecap:round;stroke-linejoin:round;stroke-miterlimit:4;stroke-dasharray:none;stroke-opacity:1"
         d="M 229.617,59.8203 144.52,8.41016 144.473,333.91 229.629,383.281 229.617,59.8203 Z" /><path
         id="path26"
         style="fill:none;stroke:#1089c2;stroke-width:8;stroke-linecap:round;stroke-linejoin:round;stroke-miterlimit:4;stroke-dasharray:none;stroke-opacity:1"
         d="m 338.918,333.91 -194.445,0 85.156,49.371 197.051,0.668 -87.762,-50.039 z" /><path
         id="path28"
         style="fill:none;stroke:#1089c2;stroke-width:8;stroke-linecap:round;stroke-linejoin:round;stroke-miterlimit:4;stroke-dasharray:none;stroke-opacity:1"
         d="m 338.953,6.97266 -194.433,0 -0.047,326.93734 194.445,0 0.035,-326.93734 z" /><path
         id="path30"
         style="fill:none;stroke:#231f20;stroke-width:8.80000019;stroke-linecap:round;stroke-linejoin:round;stroke-miterlimit:4;stroke-dasharray:none;stroke-opacity:1"
         d="M 426.785,60.2344 338.953,8.41016 338.918,333.91 426.68,383.949 426.785,60.2344 Z" /><path
         id="path32"
         style="fill:none;stroke:#1089c2;stroke-width:8;stroke-linecap:round;stroke-linejoin:round;stroke-miterlimit:4;stroke-dasharray:none;stroke-opacity:1"
         d="M 426.785,60.2344 338.953,8.41016 338.918,333.91 426.68,383.949 426.785,60.2344 Z" /><path
         id="path34"
         style="fill:none;stroke:#1089c2;stroke-width:8;stroke-linecap:round;stroke-linejoin:round;stroke-miterlimit:4;stroke-dasharray:none;stroke-opacity:1"
         d="M 426.785,60.2344 338.953,8.41016 338.918,333.91 426.68,383.949 426.785,60.2344 Z" /><path
         id="path36"
         style="fill:none;stroke:#ffffff;stroke-width:2.29999995;stroke-linecap:butt;stroke-linejoin:round;stroke-miterlimit:4;stroke-dasharray:none;stroke-opacity:1"
         d="m 320.039,316.664 c 0,0 -3.906,1.145 -7.266,2.066 -3,0.833 -7.109,1.887 -7.109,1.887" /><path
         id="path38"
         style="fill:#1089c2;fill-opacity:1;fill-rule:nonzero;stroke:none"
         d="m 318.77,192.688 c 2.683,9.746 13.933,58.449 14.414,65.222 0.488,6.762 -2.012,15.274 -5.633,17.008 0.191,2.422 0.254,3.77 0.254,3.77 -0.891,0.359 -1.789,0.722 -2.676,1.07 l 0.281,-0.106 c 0,0 2.586,10.875 4.082,18.418 2.844,14.469 3.699,18.864 3.699,18.864 -0.054,1.976 -0.574,3.73 -2.398,4.242 l -8.422,2.316 c -1.836,0.516 -3.074,-0.629 -4.234,-2.402 0,0 -3.266,-6.738 -7.91,-20.465 -2.473,-7.273 -5.391,-13.5 -5.391,-13.5 l 0.113,-0.059 c -5.027,1.641 -10.105,3.188 -15.269,4.606 -13.125,3.625 -26.262,6.41 -39.375,8.402 0,0 -0.657,-1.183 -1.75,-3.371 -3.977,0.383 -10.496,-5.637 -13.555,-11.703 -3.035,-6.055 -18.379,-53.637 -21.074,-63.383 -2.688,-9.75 -7.871,-34.547 -10.176,-46.875 -2.305,-12.355 -4.363,-33.871 -12.297,-62.601 -4.683,-16.9379 -12.242,-42.1801 -16.211,-52.684 -1.031,-2.7461 -9.312,-16.7617 2.707,-21.5078 11.836,-4.6875 29.453,-9.7344 38.34,-12.1875 8.899,-2.4609 26.602,-7.1484 39.16,-9.1992 12.766,-2.0781 12.84,14.1797 13.36,17.0703 2.004,11.0547 8.449,36.5977 13.117,53.5313 7.929,28.7379 17.183,48.2699 21.543,60.0469 4.351,11.773 12.617,35.73 15.301,45.477" /><path
         id="path40"
         style="fill:#1089c2;fill-opacity:1;fill-rule:nonzero;stroke:none"
         d="m 305.703,191.383 c 2.676,9.734 13.926,58.441 14.402,65.23 0.5,6.758 -2.019,15.274 -5.625,16.977 0.188,2.449 0.239,3.797 0.239,3.797 -0.891,0.359 -1.781,0.695 -2.668,1.054 l 0.273,-0.089 c 0,0 2.598,10.847 4.09,18.398 2.844,14.484 3.691,18.871 3.691,18.871 -0.046,1.988 -0.554,3.731 -2.402,4.234 l -8.394,2.325 c -1.848,0.508 -3.079,-0.641 -4.25,-2.403 0,0 -3.25,-6.738 -7.911,-20.449 -2.468,-7.281 -5.402,-13.515 -5.402,-13.515 l 0.129,-0.051 c -5.02,1.64 -10.105,3.179 -15.273,4.605 -13.118,3.617 -26.258,6.403 -39.375,8.403 0,0 -0.657,-1.192 -1.739,-3.368 -3.972,0.379 -10.5,-5.64 -13.554,-11.707 -3.055,-6.062 -18.399,-53.636 -21.082,-63.382 -2.688,-9.762 -7.872,-34.547 -10.176,-46.899 -2.297,-12.328 -4.367,-33.848 -12.309,-62.598 -4.676,-16.9332 -12.246,-42.1597 -16.187,-52.6715 -1.047,-2.7539 -9.328,-16.7578 2.703,-21.5234 11.847,-4.668 29.441,-9.7266 38.34,-12.168 8.894,-2.4609 26.582,-7.1484 39.16,-9.207 12.754,-2.0898 12.832,14.1875 13.347,17.0781 2.004,11.0352 8.45,36.6016 13.118,53.5274 7.929,28.7384 17.187,48.2814 21.543,60.0464 4.355,11.774 12.617,35.723 15.312,45.485" /><path
         id="path42"
         style="fill:none;stroke:#ffffff;stroke-width:3.5;stroke-linecap:butt;stroke-linejoin:miter;stroke-miterlimit:4;stroke-dasharray:none;stroke-opacity:1"
         d="m 305.703,191.383 c 2.676,9.734 13.926,58.441 14.402,65.23 0.5,6.758 -2.019,15.274 -5.625,16.977 0.188,2.449 0.239,3.797 0.239,3.797 -0.891,0.359 -1.781,0.695 -2.668,1.054 l 0.273,-0.089 c 0,0 2.598,10.847 4.09,18.398 2.844,14.484 3.691,18.871 3.691,18.871 -0.046,1.988 -0.554,3.731 -2.402,4.234 l -8.394,2.325 c -1.848,0.508 -3.079,-0.641 -4.25,-2.403 0,0 -3.25,-6.738 -7.911,-20.449 -2.468,-7.281 -5.402,-13.515 -5.402,-13.515 l 0.129,-0.051 c -5.02,1.64 -10.105,3.179 -15.273,4.605 -13.118,3.617 -26.258,6.403 -39.375,8.403 0,0 -0.657,-1.192 -1.739,-3.368 -3.972,0.379 -10.5,-5.64 -13.554,-11.707 -3.055,-6.062 -18.399,-53.636 -21.082,-63.382 -2.688,-9.762 -7.872,-34.547 -10.176,-46.899 -2.297,-12.328 -4.367,-33.848 -12.309,-62.598 -4.676,-16.9332 -12.246,-42.1597 -16.187,-52.6715 -1.047,-2.7539 -9.328,-16.7578 2.703,-21.5234 11.847,-4.668 29.441,-9.7266 38.34,-12.168 8.894,-2.4609 26.582,-7.1484 39.16,-9.207 12.754,-2.0898 12.832,14.1875 13.347,17.0781 2.004,11.0352 8.45,36.6016 13.118,53.5274 7.929,28.7384 17.187,48.2814 21.543,60.0464 4.355,11.774 12.617,35.723 15.312,45.485 z" /><path
         id="path44"
         style="fill:none;stroke:#ffffff;stroke-width:2.29999995;stroke-linecap:butt;stroke-linejoin:round;stroke-miterlimit:4;stroke-dasharray:none;stroke-opacity:1"
         d="m 244.055,15.2461 c 12.754,-2.0898 12.832,14.1875 13.347,17.0781 2,11.0352 8.45,36.6016 13.118,53.5274 7.925,28.7384 17.183,48.2814 21.543,60.0464 4.351,11.774 12.617,35.723 15.308,45.485 2.68,9.734 13.93,58.441 14.406,65.23 0.496,6.758 -2.019,15.274 -5.625,16.977 0.188,2.449 0.235,3.797 0.235,3.797 -0.891,0.359 -1.778,0.695 -2.664,1.054 l 0.269,-0.089 c 0,0 2.602,10.847 4.094,18.398 2.844,14.484 3.691,18.871 3.691,18.871 -0.047,1.988 -0.554,3.731 -2.402,4.234 l -8.398,2.325" /><path
         id="path46"
         style="fill:#231f20;fill-opacity:1;fill-rule:nonzero;stroke:none"
         d="m 208.445,37.2656 c -0.125,-0.457 -0.933,-0.6445 -1.812,-0.4101 -0.863,0.2461 -1.457,0.8203 -1.352,1.2695 0.141,0.4805 0.957,0.6641 1.828,0.4102 0.871,-0.2227 1.454,-0.8008 1.336,-1.2696 z m -3.164,0.8594 -2.945,-10.7227 m 3.465,9.8438 -2.774,-10.0391 m 5.418,10.0586 -2.965,-10.7422 m 2.079,10.2344 -2.762,-10.039 m 21.734,165.9692 -2.039,-7.45 m 2.871,7.215 -2.09,-7.551 m 44.207,-4.078 -2.058,-7.429 m 1.23,7.656 -2.089,-7.543" /><path
         id="path48"
         style="fill:none;stroke:#ffffff;stroke-width:2.29999995;stroke-linecap:butt;stroke-linejoin:round;stroke-miterlimit:4;stroke-dasharray:none;stroke-opacity:1"
         d="m 208.445,37.2656 c -0.125,-0.457 -0.933,-0.6445 -1.812,-0.4101 -0.863,0.2461 -1.457,0.8203 -1.352,1.2695 0.141,0.4805 0.957,0.6641 1.828,0.4102 0.871,-0.2227 1.454,-0.8008 1.336,-1.2696 z m -3.164,0.8594 -2.945,-10.7227 m 3.465,9.8438 -2.774,-10.0391 m 5.418,10.0586 -2.965,-10.7422 m 2.079,10.2344 -2.762,-10.039 m 21.734,165.9692 -2.039,-7.45 m 2.871,7.215 -2.09,-7.551 m 44.207,-4.078 -2.058,-7.429 m 1.23,7.656 -2.089,-7.543" /><path
         id="path50"
         style="fill:#1089c2;fill-opacity:1;fill-rule:nonzero;stroke:none"
         d="m 312.324,278.352 c 0,0 2.61,10.847 4.09,18.398 2.844,14.484 3.691,18.871 3.691,18.871 -0.046,1.988 -0.554,3.731 -2.402,4.234 l -8.394,2.325 c -1.848,0.508 -3.079,-0.641 -4.25,-2.403 0,0 -3.25,-6.738 -7.911,-20.449 -2.468,-7.281 -5.402,-13.515 -5.402,-13.515 m 21.567,-3.532 c -6.731,2.606 -13.586,5.035 -20.559,7.235 m -53.875,8.996 c 0,0 -17.258,-35.231 -27.121,-70.969 -11.746,-42.551 -13.457,-56.715 -11.68,-76.477 0.36,-4.089 4.402,-9.062 8.926,-10.308 1.785,-0.492 3.867,-1.055 4.726,-1.305 0.879,-0.25 4.2,-1.055 6.973,-3.211 2.774,-2.156 3.445,-2.715 5.086,-3.605 1.645,-0.899 1.867,-1.469 6.516,-2.754 4.648,-1.289 5.156,-0.918 7.011,-0.985 1.868,-0.07 2.747,0.067 6.231,0.493 3.484,0.429 6.75,-0.582 7.629,-0.821 0.867,-0.234 2.937,-0.82 4.722,-1.312 4.536,-1.246 10.547,0.965 12.961,4.277 11.653,16.047 17.442,29.102 29.192,71.641 9.859,35.734 13.113,74.836 13.113,74.836 m -84.441,2.832 c 13.894,-1.996 28.875,-5.199 42.761,-9.028 13.887,-3.843 28.387,-8.785 41.336,-14.183" /><path
         id="path52"
         style="fill:#1089c2;fill-opacity:1;fill-rule:nonzero;stroke:none"
         d="m 261.238,156.582 c -3.086,-11.133 -14.597,-17.668 -25.742,-14.598 -11.133,3.075 -17.676,14.598 -14.598,25.735 3.079,11.144 14.598,17.668 25.743,14.601 11.113,-3.078 17.644,-14.601 14.597,-25.738" /><path
         id="path54"
         style="fill:none;stroke:#ffffff;stroke-width:3.5;stroke-linecap:butt;stroke-linejoin:miter;stroke-miterlimit:4;stroke-dasharray:none;stroke-opacity:1"
         d="m 261.238,156.582 c -3.086,-11.133 -14.597,-17.668 -25.742,-14.598 -11.133,3.075 -17.676,14.598 -14.598,25.735 3.079,11.144 14.598,17.668 25.743,14.601 11.113,-3.078 17.644,-14.601 14.597,-25.738 z" /><path
         id="path56"
         style="fill:#231f20;fill-opacity:1;fill-rule:nonzero;stroke:none"
         d="m 268.137,265.82 6.89,24.977" /><path
         id="path58"
         style="fill:none;stroke:#ffffff;stroke-width:2.29999995;stroke-linecap:butt;stroke-linejoin:round;stroke-miterlimit:4;stroke-dasharray:none;stroke-opacity:1"
         d="m 268.137,265.82 6.89,24.977" /><path
         id="path60"
         style="fill:#231f20;fill-opacity:1;fill-rule:nonzero;stroke:none"
         d="m 270.422,265.191 6.902,24.977" /><path
         id="path62"
         style="fill:none;stroke:#ffffff;stroke-width:2.29999995;stroke-linecap:butt;stroke-linejoin:round;stroke-miterlimit:4;stroke-dasharray:none;stroke-opacity:1"
         d="m 270.422,265.191 6.902,24.977" /><path
         id="path64"
         style="fill:#231f20;fill-opacity:1;fill-rule:nonzero;stroke:none"
         d="m 291.328,187.809 c -0.515,-1.84 -2.402,-2.911 -4.238,-2.403 l -72.422,19.977 c -1.836,0.508 -2.922,2.402 -2.402,4.23 l 12.629,45.801 c 0.515,1.832 2.402,2.899 4.246,2.395 l 72.414,-19.981 c 1.836,-0.519 2.918,-2.402 2.398,-4.242 l -12.625,-45.777" /><path
         id="path66"
         style="fill:none;stroke:#ffffff;stroke-width:2.29999995;stroke-linecap:butt;stroke-linejoin:round;stroke-miterlimit:4;stroke-dasharray:none;stroke-opacity:1"
         d="m 291.328,187.809 c -0.515,-1.84 -2.402,-2.911 -4.238,-2.403 l -72.422,19.977 c -1.836,0.508 -2.922,2.402 -2.402,4.23 l 12.629,45.801 c 0.515,1.832 2.402,2.899 4.246,2.395 l 72.414,-19.981 c 1.836,-0.519 2.918,-2.402 2.398,-4.242 l -12.625,-45.777 z" /><path
         id="path68"
         style="fill:#ffffff;fill-opacity:1;fill-rule:nonzero;stroke:none"
         d="m 210.039,123.57 c -1.172,-4.25 -5.586,-6.73 -9.824,-5.562 -4.238,1.172 -6.738,5.562 -5.567,9.808 1.172,4.258 5.567,6.739 9.805,5.579 4.258,-1.172 6.746,-5.579 5.586,-9.825" /><path
         id="path70"
         style="fill:#ffffff;fill-opacity:1;fill-rule:nonzero;stroke:none"
         d="m 195.527,74.6641 c -1.191,-4.25 -5.578,-6.75 -9.824,-5.5782 -4.258,1.1797 -6.738,5.5664 -5.566,9.8204 1.179,4.2421 5.566,6.75 9.812,5.5664 4.25,-1.168 6.739,-5.5625 5.578,-9.8086" /><path
         id="path72"
         style="fill:#ffffff;fill-opacity:1;fill-rule:nonzero;stroke:none"
         d="m 262.805,108.355 c -1.164,-4.238 -5.559,-6.73 -9.817,-5.55 -4.238,1.172 -6.738,5.55 -5.554,9.808 1.171,4.246 5.554,6.742 9.812,5.567 4.246,-1.172 6.746,-5.567 5.559,-9.825" /><path
         id="path74"
         style="fill:#ffffff;fill-opacity:1;fill-rule:nonzero;stroke:none"
         d="m 248.289,59.4531 c -1.16,-4.2539 -5.555,-6.7422 -9.805,-5.5664 -4.246,1.1719 -6.746,5.5664 -5.562,9.8086 1.172,4.2539 5.562,6.7344 9.812,5.5664 4.246,-1.1719 6.731,-5.5508 5.555,-9.8086" /><path
         id="path76"
         style="fill:#ffffff;fill-opacity:1;fill-rule:nonzero;stroke:none"
         d="m 235.012,110.156 c -1.164,-4.242 -5.547,-6.726 -9.809,-5.566 -4.234,1.168 -6.734,5.566 -5.555,9.82 1.165,4.235 5.555,6.738 9.805,5.563 4.246,-1.172 6.746,-5.563 5.559,-9.817" /><path
         id="path78"
         style="fill:#ffffff;fill-opacity:1;fill-rule:nonzero;stroke:none"
         d="m 202.949,99.0352 c -1.172,-4.25 -5.586,-6.7344 -9.824,-5.5664 -4.238,1.1757 -6.738,5.5664 -5.566,9.8122 1.171,4.258 5.566,6.739 9.804,5.578 4.27,-1.171 6.758,-5.578 5.586,-9.8238" /><path
         id="path80"
         style="fill:#ffffff;fill-opacity:1;fill-rule:nonzero;stroke:none"
         d="m 255.715,83.8203 c -1.164,-4.2422 -5.559,-6.7305 -9.817,-5.5547 -4.238,1.168 -6.738,5.5547 -5.554,9.8125 1.172,4.2461 5.554,6.7422 9.812,5.5664 4.246,-1.1797 6.746,-5.5664 5.559,-9.8242" /><path
         id="path82"
         style="fill:#ffffff;fill-opacity:1;fill-rule:nonzero;stroke:none"
         d="m 227.922,85.6211 c -1.164,-4.25 -5.551,-6.7305 -9.809,-5.5664 -4.234,1.168 -6.734,5.5664 -5.554,9.8125 1.164,4.2383 5.554,6.7461 9.804,5.5664 4.246,-1.1719 6.746,-5.5664 5.559,-9.8125" /><path
         id="path84"
         style="fill:#ffffff;fill-opacity:1;fill-rule:nonzero;stroke:none"
         d="m 220.496,61.2461 c -1.16,-4.25 -5.555,-6.7383 -9.805,-5.5781 -4.238,1.1875 -6.738,5.5781 -5.562,9.8164 1.172,4.2578 5.562,6.7383 9.812,5.5703 4.247,-1.1719 6.739,-5.5703 5.555,-9.8086" /></g></g></svg>