<?xml version="1.0" encoding="UTF-8" standalone="no"?>
<svg
   xmlns:dc="http://purl.org/dc/elements/1.1/"
   xmlns:cc="http://creativecommons.org/ns#"
   xmlns:rdf="http://www.w3.org/1999/02/22-rdf-syntax-ns#"
   xmlns:svg="http://www.w3.org/2000/svg"
   xmlns="http://www.w3.org/2000/svg"
   viewBox="0 0 60 37.5"
   height="37.5"
   width="60"
   xml:space="preserve"
   version="1.1"
   id="svg2"><metadata
     id="metadata8"><rdf:RDF><cc:Work
         rdf:about=""><dc:format>image/svg+xml</dc:format><dc:type
           rdf:resource="http://purl.org/dc/dcmitype/StillImage" /></cc:Work></rdf:RDF></metadata><defs
     id="defs6" /><g
     transform="matrix(1.25,0,0,-1.25,0,37.5)"
     id="g10"><g
       transform="scale(0.1,0.1)"
       id="g12"><path
         id="path14"
         style="fill:#ffffff;fill-opacity:1;fill-rule:nonzero;stroke:none"
         d="m 390.898,17.5 -276.757,0 77.379,46.6797 279.218,0.3906 L 390.898,17.5" /><path
         id="path16"
         style="fill:none;stroke:#1286be;stroke-width:8;stroke-linecap:round;stroke-linejoin:round;stroke-miterlimit:4;stroke-dasharray:none;stroke-opacity:1"
         d="m 390.898,17.5 -276.757,0 77.379,46.6797 279.218,0.3906 L 390.898,17.5 Z" /><path
         id="path18"
         style="fill:none;stroke:#1286be;stroke-width:8;stroke-linecap:round;stroke-linejoin:round;stroke-miterlimit:4;stroke-dasharray:none;stroke-opacity:1"
         d="M 191.52,64.1797 114.141,17.5 l -0.039,229.289 77.418,44.891 0,-227.5003 z" /><path
         id="path20"
         style="fill:none;stroke:#1286be;stroke-width:8;stroke-linecap:round;stroke-linejoin:miter;stroke-miterlimit:4;stroke-dasharray:none;stroke-opacity:1"
         d="m 4.05859,125.27 130.90241,0" /><path
         id="path22"
         style="fill:none;stroke:#1286be;stroke-width:8;stroke-linecap:round;stroke-linejoin:miter;stroke-miterlimit:4;stroke-dasharray:none;stroke-opacity:1"
         d="m 134.879,148.551 -119.0196,0" /><path
         id="path24"
         style="fill:none;stroke:#1286be;stroke-width:8;stroke-linecap:round;stroke-linejoin:miter;stroke-miterlimit:4;stroke-dasharray:none;stroke-opacity:1"
         d="m 154.059,98.3594 -114.0981,0" /><path
         id="path26"
         style="fill:none;stroke:#1286be;stroke-width:8;stroke-linecap:round;stroke-linejoin:miter;stroke-miterlimit:4;stroke-dasharray:none;stroke-opacity:1"
         d="m 142.301,168.551 -84.8401,0" /><path
         id="path28"
         style="fill:#1286be;fill-opacity:1;fill-rule:nonzero;stroke:none"
         d="m 428.398,185.859 c 0,-30.429 -63.398,-55.078 -141.597,-55.078 -78.25,0 -141.641,24.649 -141.641,55.078 l 0,-80.668 c 0,-30.4293 63.391,-55.0816 141.641,-55.0816 78.199,0 141.597,24.6523 141.597,55.0816 l 0,80.668" /><path
         id="path30"
         style="fill:none;stroke:#ffffff;stroke-width:3.07999992;stroke-linecap:butt;stroke-linejoin:miter;stroke-miterlimit:4;stroke-dasharray:none;stroke-opacity:1"
         d="m 428.398,185.859 c 0,-30.429 -63.398,-55.082 -141.597,-55.082 -78.25,0 -141.641,24.653 -141.641,55.082 l 0,-80.671 c 0,-30.4302 63.391,-55.0786 141.641,-55.0786 78.199,0 141.597,24.6484 141.597,55.0786 l 0,80.671 z" /><path
         id="path32"
         style="fill:#1286be;fill-opacity:1;fill-rule:nonzero;stroke:none"
         d="m 286.801,130.781 c 78.199,0 141.597,24.649 141.597,55.078 0,30.43 -63.398,55.071 -141.597,55.071 -78.25,0 -141.641,-24.641 -141.641,-55.071 0,-30.429 63.391,-55.078 141.641,-55.078" /><path
         id="path34"
         style="fill:none;stroke:#ffffff;stroke-width:3.07999992;stroke-linecap:butt;stroke-linejoin:miter;stroke-miterlimit:4;stroke-dasharray:none;stroke-opacity:1"
         d="m 286.801,130.777 c 78.199,0 141.597,24.653 141.597,55.082 0,30.43 -63.398,55.071 -141.597,55.071 -78.25,0 -141.641,-24.641 -141.641,-55.071 0,-30.429 63.391,-55.082 141.641,-55.082 z" /><path
         id="path36"
         style="fill:#ffffff;fill-opacity:1;fill-rule:nonzero;stroke:none"
         d="m 254.449,207.379 11.68,-17.539 -44.219,-10.199 9.649,8.05 -68.321,11.68 17.153,12.809 65.937,-11.129 8.121,6.328" /><path
         id="path38"
         style="fill:#ffffff;fill-opacity:1;fill-rule:nonzero;stroke:none"
         d="m 316.641,164.84 -7.969,18.09 39.879,7.961 -6.91,-6.172 66.48,-11.36 -15.973,-12.781 -66.058,12.422 -9.449,-8.16" /><path
         id="path40"
         style="fill:#ffffff;fill-opacity:1;fill-rule:nonzero;stroke:none"
         d="m 294.84,216.988 44.691,12.223 0.508,-19.141 -11.168,2.11 -21.801,-18.078 -20.781,3.039 22.5,17.66 -13.949,2.187" /><path
         id="path42"
         style="fill:#ffffff;fill-opacity:1;fill-rule:nonzero;stroke:none"
         d="m 275.699,148.359 -42.539,-7.968 -1.601,19.679 12.23,-2.648 23.441,20 20.7,-3.524 -25,-21.789 12.769,-3.75" /><path
         id="path44"
         style="fill:none;stroke:#1286be;stroke-width:8;stroke-linecap:round;stroke-linejoin:round;stroke-miterlimit:4;stroke-dasharray:none;stroke-opacity:1"
         d="M 470.738,64.5703 390.898,17.5 l -0.039,229.289 79.801,45.359 0.078,-227.5777 z" /><path
         id="path46"
         style="fill:none;stroke:#1286be;stroke-width:8;stroke-linecap:round;stroke-linejoin:round;stroke-miterlimit:4;stroke-dasharray:none;stroke-opacity:1"
         d="m 390.859,246.789 -276.757,0 77.418,44.891 279.14,0.468 -79.801,-45.359 z" /><g
         transform="scale(10,10)"
         id="g48"><text
           id="text50"
           style="font-variant:normal;font-weight:bold;font-size:6px;font-family:Helvetica;-inkscape-font-specification:Helvetica-Bold;writing-mode:lr-tb;fill:#ffffff;fill-opacity:1;fill-rule:nonzero;stroke:none"
           transform="matrix(1,0,0,-1,16.8059,8.67383)"><tspan
             id="tspan52"
             y="0"
             x="0">8</tspan><tspan
             id="tspan54"
             y="1.28125"
             x="3.67734">0</tspan><tspan
             id="tspan56"
             y="2.038281"
             x="7.5 10.836">2.</tspan><tspan
             id="tspan58"
             y="2.0722654"
             x="13">1</tspan><tspan
             id="tspan60"
             y="1.5011714"
             x="16.533199">1</tspan></text>
</g><path
         id="path62"
         style="fill:none;stroke:#ffffff;stroke-width:15;stroke-linecap:round;stroke-linejoin:round;stroke-miterlimit:4;stroke-dasharray:none;stroke-opacity:1"
         d="m 390.898,17.5 -276.757,0 -0.039,229.289 276.757,0 0.039,-229.289 z" /><path
         id="path64"
         style="fill:none;stroke:#1286be;stroke-width:8;stroke-linecap:round;stroke-linejoin:round;stroke-miterlimit:4;stroke-dasharray:none;stroke-opacity:1"
         d="m 390.898,17.5 -276.757,0 -0.039,229.289 276.757,0 0.039,-229.289 z" /></g></g></svg>