<svg xmlns="http://www.w3.org/2000/svg" viewBox="0 0 46.25 18.75" height="18.75" width="46.25"><path d="M.761 16.796h37.221V7.49H.762v9.306z" fill="#02709f"/><path d="M.761 16.795h37.221V7.49H.762v9.306z" fill="none" stroke="#fff" stroke-width=".5"/><path d="M37.984 16.84V7.49H.743L9.946.47h35.65V8.26l-7.612 8.579" fill="#02709f"/><path d="M37.984 16.84V7.49H.743L9.946.467h35.65v7.794l-7.612 8.579z" fill="none" stroke="#fff" stroke-width=".5"/><path d="M38.379 7.324l6.67-6.709" fill="#02709f"/><path d="M38.379 7.324l6.67-6.71" fill="none" stroke="#fff" stroke-width=".5"/><path d="M7.192 13.74a1.33 1.33 0 0 0 1.328-1.329c0-.732-.595-1.322-1.328-1.322a1.327 1.327 0 0 0 0 2.651M13.13 13.74a1.33 1.33 0 0 0 1.327-1.329c0-.732-.595-1.322-1.327-1.322a1.327 1.327 0 0 0 0 2.651M19.067 13.74a1.33 1.33 0 0 0 1.328-1.329c0-.732-.595-1.322-1.328-1.322a1.327 1.327 0 0 0 0 2.651M25.005 13.74a1.33 1.33 0 0 0 1.327-1.329c0-.732-.595-1.322-1.327-1.322a1.327 1.327 0 0 0 0 2.651M30.942 13.74a1.33 1.33 0 0 0 1.328-1.329c0-.732-.595-1.322-1.328-1.322a1.327 1.327 0 0 0 0 2.651" fill="#fff"/></svg>