<?xml version="1.0" encoding="UTF-8" standalone="no"?>
<svg
   xmlns:dc="http://purl.org/dc/elements/1.1/"
   xmlns:cc="http://creativecommons.org/ns#"
   xmlns:rdf="http://www.w3.org/1999/02/22-rdf-syntax-ns#"
   xmlns:svg="http://www.w3.org/2000/svg"
   xmlns="http://www.w3.org/2000/svg"
   viewBox="0 0 46.25 18.75"
   height="18.75"
   width="46.25"
   xml:space="preserve"
   version="1.1"
   id="svg2"><metadata
     id="metadata8"><rdf:RDF><cc:Work
         rdf:about=""><dc:format>image/svg+xml</dc:format><dc:type
           rdf:resource="http://purl.org/dc/dcmitype/StillImage" /></cc:Work></rdf:RDF></metadata><defs
     id="defs6" /><g
     transform="matrix(1.25,0,0,-1.25,0,18.75)"
     id="g10"><g
       transform="scale(0.1,0.1)"
       id="g12"><path
         id="path14"
         style="fill:#02709f;fill-opacity:1;fill-rule:nonzero;stroke:none"
         d="m 6.08984,15.6289 297.77,0 0,74.4492 -297.77,0 0,-74.4492 z" /><path
         id="path16"
         style="fill:none;stroke:#ffffff;stroke-width:3.99993992;stroke-linecap:butt;stroke-linejoin:miter;stroke-miterlimit:4;stroke-dasharray:none;stroke-opacity:1"
         d="m 6.08984,15.6367 297.77,0 0,74.4492 -297.77,0 0,-74.4492 z" /><path
         id="path18"
         style="fill:#02709f;fill-opacity:1;fill-rule:nonzero;stroke:none"
         d="m 303.871,15.2813 0,74.7968 -297.92959,0 73.62889,56.1719 285.1997,0 0,-62.3398 -60.899,-68.6289" /><path
         id="path20"
         style="fill:none;stroke:#ffffff;stroke-width:3.99993992;stroke-linecap:butt;stroke-linejoin:miter;stroke-miterlimit:4;stroke-dasharray:none;stroke-opacity:1"
         d="m 303.871,15.2734 0,74.8125 -297.92959,0 73.62889,56.1681 285.1997,0 0,-62.3477 -60.899,-68.6329 z" /><path
         id="path22"
         style="fill:#02709f;fill-opacity:1;fill-rule:nonzero;stroke:none"
         d="m 307.031,91.4102 53.36,53.6678" /><path
         id="path24"
         style="fill:none;stroke:#ffffff;stroke-width:3.99993992;stroke-linecap:butt;stroke-linejoin:miter;stroke-miterlimit:4;stroke-dasharray:none;stroke-opacity:1"
         d="m 307.031,91.4063 53.36,53.6797" /><path
         id="path26"
         style="fill:#ffffff;fill-opacity:1;fill-rule:nonzero;stroke:none"
         d="m 57.5391,40.0781 c 5.8593,0 10.6211,4.7735 10.6211,10.6328 0,5.8594 -4.7618,10.5782 -10.6211,10.5782 -5.8594,0 -10.5899,-4.7188 -10.5899,-10.5782 0,-5.8593 4.7305,-10.6328 10.5899,-10.6328" /><path
         id="path28"
         style="fill:#ffffff;fill-opacity:1;fill-rule:nonzero;stroke:none"
         d="m 105.039,40.0781 c 5.859,0 10.621,4.7735 10.621,10.6328 0,5.8594 -4.762,10.5782 -10.621,10.5782 -5.8593,0 -10.5898,-4.7188 -10.5898,-10.5782 0,-5.8593 4.7305,-10.6328 10.5898,-10.6328" /><path
         id="path30"
         style="fill:#ffffff;fill-opacity:1;fill-rule:nonzero;stroke:none"
         d="m 152.539,40.0781 c 5.859,0 10.621,4.7735 10.621,10.6328 0,5.8594 -4.762,10.5782 -10.621,10.5782 -5.859,0 -10.59,-4.7188 -10.59,-10.5782 0,-5.8593 4.731,-10.6328 10.59,-10.6328" /><path
         id="path32"
         style="fill:#ffffff;fill-opacity:1;fill-rule:nonzero;stroke:none"
         d="m 200.039,40.0781 c 5.859,0 10.621,4.7735 10.621,10.6328 0,5.8594 -4.762,10.5782 -10.621,10.5782 -5.859,0 -10.59,-4.7188 -10.59,-10.5782 0,-5.8593 4.731,-10.6328 10.59,-10.6328" /><path
         id="path34"
         style="fill:#ffffff;fill-opacity:1;fill-rule:nonzero;stroke:none"
         d="m 247.539,40.0781 c 5.859,0 10.621,4.7735 10.621,10.6328 0,5.8594 -4.762,10.5782 -10.621,10.5782 -5.859,0 -10.59,-4.7188 -10.59,-10.5782 0,-5.8593 4.731,-10.6328 10.59,-10.6328" /></g></g></svg>