<?xml version="1.0" encoding="UTF-8" standalone="no"?>
<svg
   xmlns:dc="http://purl.org/dc/elements/1.1/"
   xmlns:cc="http://creativecommons.org/ns#"
   xmlns:rdf="http://www.w3.org/1999/02/22-rdf-syntax-ns#"
   xmlns:svg="http://www.w3.org/2000/svg"
   xmlns="http://www.w3.org/2000/svg"
   viewBox="0 0 26.5875 38.012501"
   height="38.012501"
   width="26.5875"
   xml:space="preserve"
   version="1.1"
   id="svg2"><metadata
     id="metadata8"><rdf:RDF><cc:Work
         rdf:about=""><dc:format>image/svg+xml</dc:format><dc:type
           rdf:resource="http://purl.org/dc/dcmitype/StillImage" /></cc:Work></rdf:RDF></metadata><defs
     id="defs6"><clipPath
       id="clipPath18"
       clipPathUnits="userSpaceOnUse"><path
         id="path20"
         d="M 0,4 0,304 210,304 210,4 0,4 Z" /></clipPath></defs><g
     transform="matrix(1.25,0,0,-1.25,0,38.0125)"
     id="g10"><g
       transform="scale(0.1,0.1)"
       id="g12"><g
         id="g14"><g
           clip-path="url(#clipPath18)"
           id="g16"><path
             id="path22"
             style="fill:#02709f;fill-opacity:1;fill-rule:nonzero;stroke:none"
             d="m 4.82813,4.82813 153.867,0 0,245.273 -153.867,0 0,-245.273 z" /><path
             id="path24"
             style="fill:none;stroke:#ffffff;stroke-width:3.99993992;stroke-linecap:butt;stroke-linejoin:miter;stroke-miterlimit:4;stroke-dasharray:none;stroke-opacity:1"
             d="m 158.695,250.102 -153.86687,0 0,-245.27387 153.86687,0" /><path
             id="path26"
             style="fill:#02709f;fill-opacity:1;fill-rule:nonzero;stroke:none"
             d="m 207.855,299.242 -153.8862,0 -49.14067,-49.14 153.86687,0 49.16,49.14" /><path
             id="path28"
             style="fill:none;stroke:#ffffff;stroke-width:3.99993992;stroke-linecap:butt;stroke-linejoin:miter;stroke-miterlimit:4;stroke-dasharray:none;stroke-opacity:1"
             d="m 207.855,299.242 -153.8862,0 -49.14067,-49.14 153.86687,0 49.16,49.14 z" /><path
             id="path30"
             style="fill:#02709f;fill-opacity:1;fill-rule:nonzero;stroke:none"
             d="m 158.695,250.102 0,-245.27387 49.16,49.14067 0,245.2732 -49.16,-49.14" /><path
             id="path32"
             style="fill:none;stroke:#ffffff;stroke-width:3.99993992;stroke-linecap:butt;stroke-linejoin:miter;stroke-miterlimit:4;stroke-dasharray:none;stroke-opacity:1"
             d="m 158.695,250.102 0,-245.27387 49.16,49.14067 0,245.2732 -49.16,-49.14 z" /><path
             id="path34"
             style="fill:#02709f;fill-opacity:1;fill-rule:nonzero;stroke:none"
             d="m 158.695,250.102 49.16,49.14" /><path
             id="path36"
             style="fill:none;stroke:#ffffff;stroke-width:3.99993992;stroke-linecap:butt;stroke-linejoin:miter;stroke-miterlimit:4;stroke-dasharray:none;stroke-opacity:1"
             d="m 158.695,250.102 49.16,49.14" /><path
             id="path38"
             style="fill:none;stroke:#ffffff;stroke-width:3.99993992;stroke-linecap:butt;stroke-linejoin:miter;stroke-miterlimit:4;stroke-dasharray:none;stroke-opacity:1"
             d="m 7.30859,154.469 150.00041,0" /><path
             id="path40"
             style="fill:none;stroke:#ffffff;stroke-width:3.99993992;stroke-linecap:butt;stroke-linejoin:miter;stroke-miterlimit:4;stroke-dasharray:none;stroke-opacity:1"
             d="m 7.30859,41.9688 150.00041,0" /><path
             id="path42"
             style="fill:none;stroke:#ffffff;stroke-width:3.99993992;stroke-linecap:butt;stroke-linejoin:miter;stroke-miterlimit:4;stroke-dasharray:none;stroke-opacity:1"
             d="m 42.3086,212.105 43.75,0" /><path
             id="path44"
             style="fill:none;stroke:#ffffff;stroke-width:3.99993992;stroke-linecap:butt;stroke-linejoin:miter;stroke-miterlimit:4;stroke-dasharray:none;stroke-opacity:1"
             d="m 24.8086,196.996 77.5,0 0,31.3594 -77.5,0 0,-31.3594 z" /><path
             id="path46"
             style="fill:#ffffff;fill-opacity:1;fill-rule:nonzero;stroke:none"
             d="m 56.1758,47.8945 -3.2617,113.7505 82.8709,31.699 1.641,-129.1995 -4.883,0 -5.684,73.1255 -66.6207,-23.563 0,-65 -4.0625,-0.8125" /><path
             id="path48"
             style="fill:#ffffff;fill-opacity:1;fill-rule:nonzero;stroke:none"
             d="m 136.977,61.4414 c 0.468,-7.8437 -9.141,-14.7851 -21.446,-15.5195 -12.324,-0.7305 -22.6951,5.0195 -23.1638,12.8633 -0.4688,7.8398 9.1408,14.7851 21.4648,15.5156 12.324,0.7422 22.676,-5.0195 23.145,-12.8594" /><path
             id="path50"
             style="fill:#ffffff;fill-opacity:1;fill-rule:nonzero;stroke:none"
             d="M 60.1602,44.3789 C 60.6289,36.5391 51.0195,29.5938 38.6953,28.8516 26.3711,28.1211 16.0195,33.8828 15.5508,41.7227 c -0.4688,7.832 9.1406,14.7851 21.4648,15.5195 12.3047,0.7422 22.6758,-5.0195 23.1446,-12.8633" /><path
             id="path52"
             style="fill:#7f7f7f;fill-opacity:1;fill-rule:nonzero;stroke:none"
             d="m 125.766,148.98 -63.3793,-21.933 0,12.187 63.3793,21.934 0,-12.188" /></g></g></g></g></svg>