<svg xmlns="http://www.w3.org/2000/svg" viewBox="0 0 26.25 37.5" height="37.5" width="26.25"><path d="M.605 37.397h19.234V6.74H.605v30.658z" fill="#02709f"/><path d="M19.839 6.739H.605v30.658h19.234" fill="none" stroke="#fff" stroke-width=".5"/><path d="M25.982.596H6.747L.605 6.74h19.234L25.982.596" fill="#02709f"/><path d="M25.982.596H6.747L.605 6.74h19.234L25.982.596z" fill="none" stroke="#fff" stroke-width=".5"/><path d="M19.839 6.739v30.658l6.143-6.142V.596L19.838 6.74" fill="#02709f"/><path d="M19.839 6.739v30.658l6.143-6.142V.596L19.838 6.74z" fill="none" stroke="#fff" stroke-width=".5"/><path d="M19.839 6.739L25.982.596" fill="#02709f"/><path d="M19.839 6.739L25.982.596M.913 18.691h18.75M.913 32.754h18.75M5.288 11.489h5.468M3.1 13.373h9.688V9.457H3.1v3.916z" fill="none" stroke="#fff" stroke-width=".5"/><path d="M7.021 32.011l-.405-14.219 10.357-3.96.205 16.148h-.61l-.708-9.14-8.331 2.949v8.125l-.508.097" fill="#fff"/><path d="M17.123 30.322c.06.977-1.142 1.845-2.68 1.94-1.543.092-2.837-.63-2.896-1.612-.058-.978 1.143-1.846 2.681-1.939 1.544-.092 2.837.63 2.896 1.611M7.52 32.451c.058.982-1.143 1.85-2.681 1.944-1.543.087-2.837-.63-2.895-1.611-.06-.978 1.142-1.846 2.685-1.939 1.538-.093 2.832.625 2.891 1.606" fill="#fff"/><path d="M15.723 19.38l-7.926 2.739v-1.523l7.926-2.745v1.529" fill="#7f7f7f"/></svg>