<?xml version="1.0" encoding="UTF-8" standalone="no"?>
<svg
   xmlns:dc="http://purl.org/dc/elements/1.1/"
   xmlns:cc="http://creativecommons.org/ns#"
   xmlns:rdf="http://www.w3.org/1999/02/22-rdf-syntax-ns#"
   xmlns:svg="http://www.w3.org/2000/svg"
   xmlns="http://www.w3.org/2000/svg"
   viewBox="0 0 26.25 37.5"
   height="37.5"
   width="26.25"
   xml:space="preserve"
   version="1.1"
   id="svg2"><metadata
     id="metadata8"><rdf:RDF><cc:Work
         rdf:about=""><dc:format>image/svg+xml</dc:format><dc:type
           rdf:resource="http://purl.org/dc/dcmitype/StillImage" /></cc:Work></rdf:RDF></metadata><defs
     id="defs6" /><g
     transform="matrix(1.25,0,0,-1.25,0,37.5)"
     id="g10"><g
       transform="scale(0.1,0.1)"
       id="g12"><path
         id="path14"
         style="fill:#02709f;fill-opacity:1;fill-rule:nonzero;stroke:none"
         d="m 4.83984,0.820313 153.871,0 0,245.269997 -153.871,0 0,-245.269997 z" /><path
         id="path16"
         style="fill:none;stroke:#ffffff;stroke-width:3.99993992;stroke-linecap:butt;stroke-linejoin:miter;stroke-miterlimit:4;stroke-dasharray:none;stroke-opacity:1"
         d="m 158.711,246.09 -153.87116,0 0,-245.269687 153.87116,0" /><path
         id="path18"
         style="fill:#02709f;fill-opacity:1;fill-rule:nonzero;stroke:none"
         d="m 207.852,295.23 -153.8715,0 -49.14066,-49.14 153.87116,0 49.141,49.14" /><path
         id="path20"
         style="fill:none;stroke:#ffffff;stroke-width:3.99993992;stroke-linecap:butt;stroke-linejoin:miter;stroke-miterlimit:4;stroke-dasharray:none;stroke-opacity:1"
         d="m 207.852,295.23 -153.8715,0 -49.14066,-49.14 153.87116,0 49.141,49.14 z" /><path
         id="path22"
         style="fill:#02709f;fill-opacity:1;fill-rule:nonzero;stroke:none"
         d="m 158.711,246.09 0,-245.269687 49.141,49.140587 0,245.2691 -49.141,-49.14" /><path
         id="path24"
         style="fill:none;stroke:#ffffff;stroke-width:3.99993992;stroke-linecap:butt;stroke-linejoin:miter;stroke-miterlimit:4;stroke-dasharray:none;stroke-opacity:1"
         d="m 158.711,246.09 0,-245.269687 49.141,49.140587 0,245.2691 -49.141,-49.14 z" /><path
         id="path26"
         style="fill:#02709f;fill-opacity:1;fill-rule:nonzero;stroke:none"
         d="m 158.711,246.09 49.141,49.14" /><path
         id="path28"
         style="fill:none;stroke:#ffffff;stroke-width:3.99993992;stroke-linecap:butt;stroke-linejoin:miter;stroke-miterlimit:4;stroke-dasharray:none;stroke-opacity:1"
         d="m 158.711,246.09 49.141,49.14" /><path
         id="path30"
         style="fill:none;stroke:#ffffff;stroke-width:3.99993992;stroke-linecap:butt;stroke-linejoin:miter;stroke-miterlimit:4;stroke-dasharray:none;stroke-opacity:1"
         d="m 7.30078,150.469 150.00022,0" /><path
         id="path32"
         style="fill:none;stroke:#ffffff;stroke-width:3.99993992;stroke-linecap:butt;stroke-linejoin:miter;stroke-miterlimit:4;stroke-dasharray:none;stroke-opacity:1"
         d="m 7.30078,37.9688 150.00022,0" /><path
         id="path34"
         style="fill:none;stroke:#ffffff;stroke-width:3.99993992;stroke-linecap:butt;stroke-linejoin:miter;stroke-miterlimit:4;stroke-dasharray:none;stroke-opacity:1"
         d="m 42.3008,208.09 43.75,0" /><path
         id="path36"
         style="fill:none;stroke:#ffffff;stroke-width:3.99993992;stroke-linecap:butt;stroke-linejoin:miter;stroke-miterlimit:4;stroke-dasharray:none;stroke-opacity:1"
         d="m 24.8008,193.012 77.5,0 0,31.3281 -77.5,0 0,-31.3281 z" /><path
         id="path38"
         style="fill:#ffffff;fill-opacity:1;fill-rule:nonzero;stroke:none"
         d="m 56.1719,43.9102 -3.2422,113.7498 82.8513,31.68 1.641,-129.1798 -4.883,0 -5.66,73.1208 -66.6485,-23.59 0,-64.9996 -4.0586,-0.7812" /><path
         id="path40"
         style="fill:#ffffff;fill-opacity:1;fill-rule:nonzero;stroke:none"
         d="m 136.988,57.4219 c 0.473,-7.8125 -9.136,-14.7617 -21.437,-15.5117 -12.352,-0.7383 -22.6994,5.039 -23.1721,12.8906 -0.4687,7.8203 9.1411,14.7695 21.4491,15.5078 12.344,0.7422 22.692,-5.0391 23.16,-12.8867" /><path
         id="path42"
         style="fill:#ffffff;fill-opacity:1;fill-rule:nonzero;stroke:none"
         d="M 60.1602,40.3906 C 60.6211,32.5391 51.0195,25.5898 38.7109,24.8398 26.3711,24.1406 16.0195,29.8789 15.5508,37.7305 15.0781,45.5508 24.6914,52.5 37.0313,53.2383 c 12.3085,0.7422 22.6601,-5 23.1289,-12.8477" /><path
         id="path44"
         style="fill:#7f7f7f;fill-opacity:1;fill-rule:nonzero;stroke:none"
         d="m 125.781,144.961 -63.4021,-21.91 0,12.179 63.4021,21.961 0,-12.23" /></g></g></svg>