<?xml version="1.0" encoding="UTF-8" standalone="no"?>
<svg
   xmlns:dc="http://purl.org/dc/elements/1.1/"
   xmlns:cc="http://creativecommons.org/ns#"
   xmlns:rdf="http://www.w3.org/1999/02/22-rdf-syntax-ns#"
   xmlns:svg="http://www.w3.org/2000/svg"
   xmlns="http://www.w3.org/2000/svg"
   viewBox="0 0 59.150002 33.349998"
   height="33.349998"
   width="59.150002"
   xml:space="preserve"
   version="1.1"
   id="svg2"><metadata
     id="metadata8"><rdf:RDF><cc:Work
         rdf:about=""><dc:format>image/svg+xml</dc:format><dc:type
           rdf:resource="http://purl.org/dc/dcmitype/StillImage" /></cc:Work></rdf:RDF></metadata><defs
     id="defs6" /><g
     transform="matrix(1.25,0,0,-1.25,0,33.35)"
     id="g10"><g
       transform="scale(0.1,0.1)"
       id="g12"><path
         id="path14"
         style="fill:#087bbb;fill-opacity:1;fill-rule:nonzero;stroke:none"
         d="m 5.65625,149.18 139.81275,113.066 322.789,0 -115.723,-113.066 -346.87875,0" /><path
         id="path16"
         style="fill:none;stroke:#ffffff;stroke-width:4;stroke-linecap:butt;stroke-linejoin:miter;stroke-miterlimit:4;stroke-dasharray:none;stroke-opacity:1"
         d="m 5.65625,149.18 139.81275,113.066 322.789,0 -115.723,-113.066 -346.87875,0 z" /><path
         id="path18"
         style="fill:#087bbb;fill-opacity:1;fill-rule:nonzero;stroke:none"
         d="m 352.535,4.89063 115.723,117.91037 0,139.23 -115.723,-112.851 0,-144.28937" /><path
         id="path20"
         style="fill:none;stroke:#ffffff;stroke-width:4;stroke-linecap:butt;stroke-linejoin:miter;stroke-miterlimit:4;stroke-dasharray:none;stroke-opacity:1"
         d="m 352.535,4.89063 115.723,117.91037 0,139.23 -115.723,-112.851 0,-144.28937 z" /><path
         id="path22"
         style="fill:#087bbb;fill-opacity:1;fill-rule:nonzero;stroke:none"
         d="m 6.13281,4.77344 346.402,0 0,144.406 -346.402,0 0,-144.406 z" /><path
         id="path24"
         style="fill:none;stroke:#ffffff;stroke-width:4;stroke-linecap:butt;stroke-linejoin:miter;stroke-miterlimit:4;stroke-dasharray:none;stroke-opacity:1"
         d="m 6.13281,4.77344 346.402,0 0,144.406 -346.402,0 0,-144.406 z" /><path
         id="path26"
         style="fill:none;stroke:#ffffff;stroke-width:8;stroke-linecap:butt;stroke-linejoin:miter;stroke-miterlimit:1;stroke-dasharray:none;stroke-opacity:1"
         d="m 217.605,169.188 c 20.833,16.074 47.45,23.898 47.45,23.898 31.367,11.406 43.535,24.805 43.535,24.805 29.805,33.339 -26.895,34.101 -26.895,34.101 0,0 -59.484,0.254 -89.703,-29.961 0,0 -15.269,-14.668 -7.156,-27.011 0,0 10.391,-8.723 -0.527,-25.032" /><path
         id="path28"
         style="fill:none;stroke:#ffffff;stroke-width:2.5;stroke-linecap:butt;stroke-linejoin:miter;stroke-miterlimit:1;stroke-dasharray:none;stroke-opacity:1"
         d="m 218.313,168.613 c -0.872,-0.89 -2.825,-1.582 -4.372,-1.543 l -30.211,0.723 c -1.535,0.039 -2.058,0.801 -1.187,1.687 l 0,0 c 0.879,0.891 2.824,1.583 4.355,1.555 l 30.219,-0.722 c 1.535,-0.04 2.071,-0.801 1.196,-1.7 l 0,0 z" /><path
         id="path30"
         style="fill:none;stroke:#ffffff;stroke-width:2.5;stroke-linecap:butt;stroke-linejoin:miter;stroke-miterlimit:1;stroke-dasharray:none;stroke-opacity:1"
         d="m 214.426,164.668 c -0.875,-0.898 -2.821,-1.594 -4.36,-1.563 l -30.211,0.723 c -1.531,0.039 -2.062,0.801 -1.195,1.699 l 0,0 c 0.875,0.879 2.832,1.582 4.367,1.543 l 30.219,-0.722 c 1.52,-0.039 2.067,-0.793 1.18,-1.68 l 0,0 z" /><path
         id="path32"
         style="fill:none;stroke:#ffffff;stroke-width:2.5;stroke-linecap:butt;stroke-linejoin:miter;stroke-miterlimit:1;stroke-dasharray:none;stroke-opacity:1"
         d="m 210.563,160.703 c -0.875,-0.898 -2.836,-1.582 -4.368,-1.555 l -30.218,0.723 c -1.528,0.031 -2.063,0.801 -1.188,1.692 l 0,0 c 0.879,0.898 2.832,1.589 4.367,1.55 l 30.215,-0.73 c 1.531,-0.031 2.059,-0.781 1.192,-1.68 l 0,0 z" /><path
         id="path34"
         style="fill:#ffffff;fill-opacity:1;fill-rule:nonzero;stroke:none"
         d="m 302.965,186.648 12.851,-29.246 -43.359,15.926" /><path
         id="path36"
         style="fill:none;stroke:#ffffff;stroke-width:4;stroke-linecap:round;stroke-linejoin:miter;stroke-miterlimit:1;stroke-dasharray:none;stroke-opacity:1"
         d="m 299.703,173.172 -21.484,13.281" /><path
         id="path38"
         style="fill:#ffffff;fill-opacity:1;fill-rule:nonzero;stroke:none"
         d="m 192.777,245.645 -44.32,9.082 14.363,-22.844" /><path
         id="path40"
         style="fill:none;stroke:#ffffff;stroke-width:4;stroke-linecap:round;stroke-linejoin:miter;stroke-miterlimit:1;stroke-dasharray:none;stroke-opacity:1"
         d="m 190.199,234.734 -20.574,8.809" /><path
         id="path42"
         style="fill:#ffffff;fill-opacity:1;fill-rule:nonzero;stroke:none"
         d="M 162.387,173.406 99.4453,167.93 141.875,190.496" /><path
         id="path44"
         style="fill:none;stroke:#ffffff;stroke-width:4;stroke-linecap:round;stroke-linejoin:miter;stroke-miterlimit:1;stroke-dasharray:none;stroke-opacity:1"
         d="m 141.719,178.887 25.996,7.527" /><path
         id="path46"
         style="fill:#ffffff;fill-opacity:1;fill-rule:nonzero;stroke:none"
         d="m 338.766,245.703 51.179,-4.894 -47.371,-15.379" /><path
         id="path48"
         style="fill:none;stroke:#ffffff;stroke-width:4;stroke-linecap:round;stroke-linejoin:miter;stroke-miterlimit:1;stroke-dasharray:none;stroke-opacity:1"
         d="m 355.836,236.531 -27.305,-5.136" /><path
         id="path50"
         style="fill:#ffffff;fill-opacity:1;fill-rule:nonzero;stroke:none"
         d="m 120.313,202.031 52.828,11.746 -37.379,7.422" /><path
         id="path52"
         style="fill:none;stroke:#ffffff;stroke-width:4;stroke-linecap:round;stroke-linejoin:miter;stroke-miterlimit:1;stroke-dasharray:none;stroke-opacity:1"
         d="m 103.434,212.234 29.812,-0.156" /><path
         id="path54"
         style="fill:none;stroke:#ffffff;stroke-width:4;stroke-linecap:round;stroke-linejoin:miter;stroke-miterlimit:1;stroke-dasharray:none;stroke-opacity:1"
         d="m 342.594,201.406 29.824,-0.156" /><path
         id="path56"
         style="fill:#ffffff;fill-opacity:1;fill-rule:nonzero;stroke:none"
         d="m 356.031,213.066 -46.66,-9.171 45,-14.168" /><path
         id="path58"
         style="fill:none;stroke:#ffffff;stroke-width:2.5;stroke-linecap:butt;stroke-linejoin:miter;stroke-miterlimit:1;stroke-dasharray:none;stroke-opacity:1"
         d="m 181.379,157.234 c 7.5,-5.625 18.125,-0.437 18.125,-0.437" /><g
         transform="scale(10,10)"
         id="g60"><text
           id="text62"
           style="font-variant:normal;font-weight:bold;font-size:8px;font-family:Helvetica;-inkscape-font-specification:Helvetica-Bold;writing-mode:lr-tb;fill:#ffffff;fill-opacity:1;fill-rule:nonzero;stroke:none"
           transform="matrix(1,0,0,-1,10.0195,4.55664)"><tspan
             id="tspan64"
             y="0"
             x="0 6.664 12">MSE</tspan></text>
</g></g></g></svg>