<?xml version="1.0" encoding="UTF-8" standalone="no"?>
<svg
   xmlns:dc="http://purl.org/dc/elements/1.1/"
   xmlns:cc="http://creativecommons.org/ns#"
   xmlns:rdf="http://www.w3.org/1999/02/22-rdf-syntax-ns#"
   xmlns:svg="http://www.w3.org/2000/svg"
   xmlns="http://www.w3.org/2000/svg"
   viewBox="0 0 60 35"
   height="35"
   width="60"
   xml:space="preserve"
   version="1.1"
   id="svg2"><metadata
     id="metadata8"><rdf:RDF><cc:Work
         rdf:about=""><dc:format>image/svg+xml</dc:format><dc:type
           rdf:resource="http://purl.org/dc/dcmitype/StillImage" /></cc:Work></rdf:RDF></metadata><defs
     id="defs6" /><g
     transform="matrix(1.25,0,0,-1.25,0,35)"
     id="g10"><g
       transform="scale(0.1,0.1)"
       id="g12"><path
         id="path14"
         style="fill:#087bbb;fill-opacity:1;fill-rule:nonzero;stroke:none"
         d="M 5.66016,159.199 145.469,272.25 l 322.769,0 -115.699,-113.051 -346.87884,0" /><path
         id="path16"
         style="fill:none;stroke:#ffffff;stroke-width:4;stroke-linecap:butt;stroke-linejoin:miter;stroke-miterlimit:4;stroke-dasharray:none;stroke-opacity:1"
         d="m 5.66016,159.199 139.80884,113.047 322.769,0 -115.699,-113.047 -346.87884,0 z" /><path
         id="path18"
         style="fill:#087bbb;fill-opacity:1;fill-rule:nonzero;stroke:none"
         d="m 352.539,14.8984 115.699,117.8906 0,139.262 -115.699,-112.852 0,-144.3006" /><path
         id="path20"
         style="fill:none;stroke:#ffffff;stroke-width:4;stroke-linecap:butt;stroke-linejoin:miter;stroke-miterlimit:4;stroke-dasharray:none;stroke-opacity:1"
         d="m 352.539,14.8984 115.699,117.8986 0,139.25 -115.699,-112.848 0,-144.3006 z" /><path
         id="path22"
         style="fill:#087bbb;fill-opacity:1;fill-rule:nonzero;stroke:none"
         d="m 6.12891,14.7891 346.41,0 0,144.41 -346.41,0 0,-144.41 z" /><path
         id="path24"
         style="fill:none;stroke:#ffffff;stroke-width:4;stroke-linecap:butt;stroke-linejoin:miter;stroke-miterlimit:4;stroke-dasharray:none;stroke-opacity:1"
         d="m 6.12891,14.7891 346.41,0 0,144.41 -346.41,0 0,-144.41 z" /><path
         id="path26"
         style="fill:none;stroke:#ffffff;stroke-width:8;stroke-linecap:butt;stroke-linejoin:miter;stroke-miterlimit:1;stroke-dasharray:none;stroke-opacity:1"
         d="m 217.621,179.199 c 20.82,16.059 47.418,23.906 47.418,23.906 31.371,11.403 43.551,24.801 43.551,24.801 29.808,33.321 -26.91,34.102 -26.91,34.102 0,0 -59.45,0.238 -89.692,-29.961 0,0 -15.269,-14.68 -7.148,-27.031 0,0 10.39,-8.707 -0.539,-25.039" /><path
         id="path28"
         style="fill:none;stroke:#ffffff;stroke-width:2.5;stroke-linecap:butt;stroke-linejoin:miter;stroke-miterlimit:1;stroke-dasharray:none;stroke-opacity:1"
         d="m 218.32,178.617 c -0.898,-0.898 -2.851,-1.57 -4.371,-1.531 l -30.238,0.711 c -1.52,0.031 -2.031,0.82 -1.172,1.68 0.902,0.89 2.813,1.601 4.371,1.562 l 30.199,-0.711 c 1.52,-0.031 2.071,-0.82 1.211,-1.711 z" /><path
         id="path30"
         style="fill:none;stroke:#ffffff;stroke-width:2.5;stroke-linecap:butt;stroke-linejoin:miter;stroke-miterlimit:1;stroke-dasharray:none;stroke-opacity:1"
         d="m 214.41,174.668 c -0.859,-0.902 -2.808,-1.602 -4.332,-1.563 l -30.238,0.743 c -1.52,0.039 -2.07,0.781 -1.168,1.679 0.859,0.899 2.808,1.602 4.34,1.559 l 30.226,-0.738 c 1.532,-0.039 2.071,-0.782 1.172,-1.68 z" /><path
         id="path32"
         style="fill:none;stroke:#ffffff;stroke-width:2.5;stroke-linecap:butt;stroke-linejoin:miter;stroke-miterlimit:1;stroke-dasharray:none;stroke-opacity:1"
         d="m 210.551,170.727 c -0.86,-0.899 -2.821,-1.61 -4.34,-1.571 l -30.231,0.711 c -1.531,0.031 -2.07,0.821 -1.179,1.711 0.859,0.899 2.82,1.57 4.34,1.527 l 30.238,-0.707 c 1.519,-0.031 2.07,-0.781 1.172,-1.671 z" /><path
         id="path34"
         style="fill:#ffffff;fill-opacity:1;fill-rule:nonzero;stroke:none"
         d="M 302.969,196.66 315.82,167.398 272.461,183.34" /><path
         id="path36"
         style="fill:none;stroke:#ffffff;stroke-width:4;stroke-linecap:round;stroke-linejoin:miter;stroke-miterlimit:1;stroke-dasharray:none;stroke-opacity:1"
         d="m 299.691,183.188 -21.492,13.281" /><path
         id="path38"
         style="fill:#ffffff;fill-opacity:1;fill-rule:nonzero;stroke:none"
         d="m 192.77,255.641 -44.329,9.109 14.368,-22.859" /><path
         id="path40"
         style="fill:none;stroke:#ffffff;stroke-width:4;stroke-linecap:round;stroke-linejoin:miter;stroke-miterlimit:1;stroke-dasharray:none;stroke-opacity:1"
         d="m 190.199,244.746 -20.59,8.793" /><path
         id="path42"
         style="fill:#ffffff;fill-opacity:1;fill-rule:nonzero;stroke:none"
         d="m 162.379,183.422 -62.9298,-5.473 42.4298,22.539" /><path
         id="path44"
         style="fill:none;stroke:#ffffff;stroke-width:4;stroke-linecap:round;stroke-linejoin:miter;stroke-miterlimit:1;stroke-dasharray:none;stroke-opacity:1"
         d="m 141.719,188.887 25.98,7.539" /><path
         id="path46"
         style="fill:#ffffff;fill-opacity:1;fill-rule:nonzero;stroke:none"
         d="m 338.75,255.719 51.211,-4.918 -47.383,-15.352" /><path
         id="path48"
         style="fill:none;stroke:#ffffff;stroke-width:4;stroke-linecap:round;stroke-linejoin:miter;stroke-miterlimit:1;stroke-dasharray:none;stroke-opacity:1"
         d="m 355.82,246.547 -27.3,-5.16" /><path
         id="path50"
         style="fill:#ffffff;fill-opacity:1;fill-rule:nonzero;stroke:none"
         d="m 120.309,212.051 52.812,11.719 -37.383,7.421" /><path
         id="path52"
         style="fill:none;stroke:#ffffff;stroke-width:4;stroke-linecap:round;stroke-linejoin:miter;stroke-miterlimit:1;stroke-dasharray:none;stroke-opacity:1"
         d="m 103.441,222.246 29.797,-0.16" /><path
         id="path54"
         style="fill:none;stroke:#ffffff;stroke-width:4;stroke-linecap:round;stroke-linejoin:miter;stroke-miterlimit:1;stroke-dasharray:none;stroke-opacity:1"
         d="m 342.578,211.426 29.844,-0.16" /><path
         id="path56"
         style="fill:#ffffff;fill-opacity:1;fill-rule:nonzero;stroke:none"
         d="m 356.02,223.07 -46.641,-9.179 45,-14.141" /><path
         id="path58"
         style="fill:none;stroke:#ffffff;stroke-width:2.5;stroke-linecap:butt;stroke-linejoin:miter;stroke-miterlimit:1;stroke-dasharray:none;stroke-opacity:1"
         d="m 181.371,167.246 c 7.5,-5.629 18.117,-0.43 18.117,-0.43" /><g
         transform="scale(10,10)"
         id="g60"><text
           id="text62"
           style="font-variant:normal;font-weight:bold;font-size:8px;font-family:Helvetica;-inkscape-font-specification:Helvetica-Bold;writing-mode:lr-tb;fill:#ffffff;fill-opacity:1;fill-rule:nonzero;stroke:none"
           transform="matrix(1,0,0,-1,10.0191,5.55703)"><tspan
             id="tspan64"
             y="0"
             x="0 6.664 12">MSE</tspan></text>
</g></g></g></svg>