<?xml version="1.0" encoding="UTF-8" standalone="no"?>
<svg
   xmlns:dc="http://purl.org/dc/elements/1.1/"
   xmlns:cc="http://creativecommons.org/ns#"
   xmlns:rdf="http://www.w3.org/1999/02/22-rdf-syntax-ns#"
   xmlns:svg="http://www.w3.org/2000/svg"
   xmlns="http://www.w3.org/2000/svg"
   viewBox="0 0 61.25 41.25"
   height="41.25"
   width="61.25"
   xml:space="preserve"
   version="1.1"
   id="svg2"><metadata
     id="metadata8"><rdf:RDF><cc:Work
         rdf:about=""><dc:format>image/svg+xml</dc:format><dc:type
           rdf:resource="http://purl.org/dc/dcmitype/StillImage" /></cc:Work></rdf:RDF></metadata><defs
     id="defs6" /><g
     transform="matrix(1.25,0,0,-1.25,0,41.25)"
     id="g10"><g
       transform="scale(0.1,0.1)"
       id="g12"><path
         id="path14"
         style="fill:#026c9b;fill-opacity:1;fill-rule:nonzero;stroke:none"
         d="m 5.66016,204.18 144.26184,116.679 333.129,0 -119.422,-116.679 -357.96884,0" /><path
         id="path16"
         style="fill:none;stroke:#ffffff;stroke-width:4;stroke-linecap:butt;stroke-linejoin:miter;stroke-miterlimit:4;stroke-dasharray:none;stroke-opacity:1"
         d="m 5.66016,204.184 144.26184,116.679 333.129,0 -119.422,-116.679 -357.96884,0 z" /><path
         id="path18"
         style="fill:#ffffff;fill-opacity:1;fill-rule:nonzero;stroke:none"
         d="m 271.559,280.551 -3.469,-3.52 -98.012,0 -9.769,-9.761 -26.559,11.601 53.398,15.27 -13.597,-13.59 98.008,0" /><path
         id="path20"
         style="fill:#026c9b;fill-opacity:1;fill-rule:nonzero;stroke:none"
         d="m 363.629,14.8789 119.422,121.6801 0,184.113 -119.422,-116.492 0,-189.3011" /><path
         id="path22"
         style="fill:none;stroke:#ffffff;stroke-width:4;stroke-linecap:butt;stroke-linejoin:miter;stroke-miterlimit:4;stroke-dasharray:none;stroke-opacity:1"
         d="m 363.629,14.8828 119.422,121.6802 0,184.097 -119.422,-116.476 0,-189.3012 z" /><path
         id="path24"
         style="fill:#ffffff;fill-opacity:1;fill-rule:nonzero;stroke:none"
         d="m 384.801,299.02 9.769,9.769 26.68,-12.187 -53.52,-15.391 13.598,14.301 -100.387,0 5.86,3.508 98,0" /><path
         id="path26"
         style="fill:#ffffff;fill-opacity:1;fill-rule:nonzero;stroke:none"
         d="m 219.059,225.551 -3.469,-3.52 -98.012,0 -9.769,-9.761 -26.559,11.601 53.398,15.27 -13.597,-13.59 98.008,0" /><path
         id="path28"
         style="fill:#ffffff;fill-opacity:1;fill-rule:nonzero;stroke:none"
         d="m 332.301,244.02 9.769,9.769 26.68,-12.187 -53.52,-15.391 13.598,14.301 -100.387,0 5.86,3.508 98,0" /><path
         id="path30"
         style="fill:#026c9b;fill-opacity:1;fill-rule:nonzero;stroke:none"
         d="m 6.12891,14.7695 357.5,0 0,189.41 -357.5,0 0,-189.41 z" /><path
         id="path32"
         style="fill:none;stroke:#ffffff;stroke-width:4;stroke-linecap:butt;stroke-linejoin:miter;stroke-miterlimit:4;stroke-dasharray:none;stroke-opacity:1"
         d="m 6.12891,14.7734 357.5,0 0,189.41 -357.5,0 0,-189.41 z" /><path
         id="path34"
         style="fill:#ffffff;fill-opacity:1;fill-rule:nonzero;stroke:none"
         d="m 63.3594,123.129 54.0625,0 0,28.1211 -54.0625,0 0,-28.1211 z" /><path
         id="path36"
         style="fill:#ffffff;fill-opacity:1;fill-rule:nonzero;stroke:none"
         d="m 241.051,123.129 54.0586,0 0,28.1211 -54.0586,0 0,-28.1211 z" /><path
         id="path38"
         style="fill:#ffffff;fill-opacity:1;fill-rule:nonzero;stroke:none"
         d="m 63.3594,52.7383 54.0625,0 0,28.1602 -54.0625,0 0,-28.1602 z" /><path
         id="path40"
         style="fill:#ffffff;fill-opacity:1;fill-rule:nonzero;stroke:none"
         d="m 241.051,52.7383 54.0586,0 0,28.1602 -54.0586,0 0,-28.1602 z" /><path
         id="path42"
         style="fill:none;stroke:#ffffff;stroke-width:4;stroke-linecap:butt;stroke-linejoin:miter;stroke-miterlimit:4;stroke-dasharray:none;stroke-opacity:1"
         d="m 100.039,137.191 166.09,0" /><path
         id="path44"
         style="fill:none;stroke:#ffffff;stroke-width:4;stroke-linecap:butt;stroke-linejoin:miter;stroke-miterlimit:4;stroke-dasharray:none;stroke-opacity:1"
         d="m 100.039,66.8008 166.09,0" /><path
         id="path46"
         style="fill:none;stroke:#ffffff;stroke-width:4;stroke-linecap:butt;stroke-linejoin:miter;stroke-miterlimit:4;stroke-dasharray:none;stroke-opacity:1"
         d="M 90.3906,66.8008 266.129,137.191" /><path
         id="path48"
         style="fill:none;stroke:#ffffff;stroke-width:4;stroke-linecap:butt;stroke-linejoin:miter;stroke-miterlimit:4;stroke-dasharray:none;stroke-opacity:1"
         d="M 90.3906,137.191 266.129,66.8008" /><path
         id="path50"
         style="fill:#ffffff;fill-opacity:1;fill-rule:nonzero;stroke:none"
         d="m 420.738,179.422 13.172,67.098 12.809,13.949 0.082,13.871 22.109,0.781 -20.082,-42.23 0.391,20.078 -9.098,-12.539 -11.961,-63.668 -2.89,-13.524 -16.008,-72.8474 -13.75,-15.8203 0,-13.4414 -20.864,-6.707 19.18,49.3671 0.121,-19.3007 8.629,10.5117 15.274,70.898 2.886,13.524" /><path
         id="path52"
         style="fill:#ffffff;fill-opacity:1;fill-rule:nonzero;stroke:none"
         d="m 392.27,192.27 -0.122,0.109 8.473,7.742 16.141,-30.82 6.168,-10.199 17.07,-29.223 14.922,10.551 -0.582,-17.66 20.43,39.109 -20.942,-1.68 -0.156,-11.879 -12.031,-9.57 -18.442,32.148 -4.758,9.223 -16.992,29.449 -8.988,-8.011 -0.082,19.031 -21.52,-44.731 21.25,4.379 0.161,12.032" /></g></g></svg>