<svg xmlns="http://www.w3.org/2000/svg" viewBox="0 0 61.25 41.25" height="41.25" width="61.25"><path d="M.708 15.727L18.74 1.143h41.641L45.454 15.727H.708" fill="#026c9b"/><path d="M.708 15.727L18.74 1.142h41.641L45.454 15.727H.708z" fill="none" stroke="#fff" stroke-width=".5"/><path d="M33.945 6.181l-.434.44H21.26l-1.221 1.22-3.32-1.45 6.675-1.909-1.7 1.7h12.25" fill="#fff"/><path d="M45.454 39.39L60.38 24.18V1.166L45.454 15.728V39.39" fill="#026c9b"/><path d="M45.454 39.39L60.38 24.18V1.168L45.454 15.726V39.39z" fill="none" stroke="#fff" stroke-width=".5"/><path d="M48.1 3.873l1.221-1.222 3.335 1.524-6.69 1.924 1.7-1.788H35.118l.732-.438H48.1M27.382 13.056l-.433.44H14.697l-1.22 1.22-3.32-1.45 6.674-1.909-1.7 1.7h12.251M41.538 10.747l1.22-1.22 3.336 1.523-6.69 1.924 1.7-1.788H28.555l.733-.439h12.25" fill="#fff"/><path d="M.766 39.404h44.688V15.728H.766v23.676z" fill="#026c9b"/><path d="M.766 39.403h44.688V15.727H.766v23.676z" fill="none" stroke="#fff" stroke-width=".5"/><path d="M7.92 25.859h6.758v-3.515H7.92v3.515zM30.131 25.859h6.758v-3.515H30.13v3.515zM7.92 34.658h6.758v-3.52H7.92v3.52zM30.131 34.658h6.758v-3.52H30.13v3.52z" fill="#fff"/><path d="M12.505 24.101h20.761M12.505 32.9h20.761M11.299 32.9L33.266 24.1M11.299 24.101L33.266 32.9" fill="none" stroke="#fff" stroke-width=".5"/><path d="M52.592 18.822l1.647-8.387 1.6-1.744.011-1.734 2.764-.097-2.51 5.279.048-2.51-1.137 1.567-1.495 7.959-.361 1.69-2.001 9.106-1.719 1.978v1.68l-2.608.838 2.398-6.17.015 2.412 1.078-1.314 1.91-8.862.36-1.69" fill="#fff"/><path d="M49.034 17.216l-.016-.013 1.06-.968 2.017 3.852.771 1.275L55 25.015l1.865-1.319-.072 2.208 2.553-4.889-2.617.21-.02 1.485-1.504 1.196-2.305-4.018-.595-1.153-2.124-3.681-1.123 1.001-.01-2.379-2.69 5.592 2.656-.548.02-1.504" fill="#fff"/></svg>