<?xml version="1.0" encoding="UTF-8" standalone="no"?>
<svg
   xmlns:dc="http://purl.org/dc/elements/1.1/"
   xmlns:cc="http://creativecommons.org/ns#"
   xmlns:rdf="http://www.w3.org/1999/02/22-rdf-syntax-ns#"
   xmlns:svg="http://www.w3.org/2000/svg"
   xmlns="http://www.w3.org/2000/svg"
   viewBox="0 0 61 39.424999"
   height="39.424999"
   width="61"
   xml:space="preserve"
   version="1.1"
   id="svg2"><metadata
     id="metadata8"><rdf:RDF><cc:Work
         rdf:about=""><dc:format>image/svg+xml</dc:format><dc:type
           rdf:resource="http://purl.org/dc/dcmitype/StillImage" /></cc:Work></rdf:RDF></metadata><defs
     id="defs6" /><g
     transform="matrix(1.25,0,0,-1.25,0,39.425)"
     id="g10"><g
       transform="scale(0.1,0.1)"
       id="g12"><path
         id="path14"
         style="fill:#026c9b;fill-opacity:1;fill-rule:nonzero;stroke:none"
         d="m 5.65625,194.191 144.28475,116.668 333.102,0 -119.395,-116.668 -357.99175,0" /><path
         id="path16"
         style="fill:none;stroke:#ffffff;stroke-width:4;stroke-linecap:butt;stroke-linejoin:miter;stroke-miterlimit:4;stroke-dasharray:none;stroke-opacity:1"
         d="m 5.65625,194.191 144.28475,116.668 333.102,0 -119.395,-116.668 -357.99175,0 z" /><path
         id="path18"
         style="fill:#ffffff;fill-opacity:1;fill-rule:nonzero;stroke:none"
         d="m 271.578,270.547 -3.496,-3.496 -98.016,0 -9.761,-9.77 -26.567,11.571 53.41,15.273 -13.585,-13.578 98.015,0" /><path
         id="path20"
         style="fill:#026c9b;fill-opacity:1;fill-rule:nonzero;stroke:none"
         d="m 363.648,4.89453 119.395,121.67147 0,184.082 -119.395,-116.457 0,-189.29647" /><path
         id="path22"
         style="fill:none;stroke:#ffffff;stroke-width:4;stroke-linecap:butt;stroke-linejoin:miter;stroke-miterlimit:4;stroke-dasharray:none;stroke-opacity:1"
         d="m 363.648,4.89453 119.395,121.67147 0,184.082 -119.395,-116.457 0,-189.29647 z" /><path
         id="path24"
         style="fill:#ffffff;fill-opacity:1;fill-rule:nonzero;stroke:none"
         d="m 384.82,289.023 9.766,9.766 26.68,-12.187 -53.516,-15.379 13.574,14.304 -100.39,0 5.879,3.496 98.007,0" /><path
         id="path26"
         style="fill:#ffffff;fill-opacity:1;fill-rule:nonzero;stroke:none"
         d="m 219.078,215.547 -3.496,-3.496 -98.016,0 -9.761,-9.77 -26.5667,11.571 53.4097,15.273 -13.585,-13.578 98.015,0" /><path
         id="path28"
         style="fill:#ffffff;fill-opacity:1;fill-rule:nonzero;stroke:none"
         d="m 332.32,234.023 9.766,9.766 26.68,-12.187 -53.516,-15.379 13.574,14.304 -100.39,0 5.879,3.496 98.007,0" /><path
         id="path30"
         style="fill:#026c9b;fill-opacity:1;fill-rule:nonzero;stroke:none"
         d="m 6.14453,4.78516 357.504,0 0,189.406 -357.504,0 0,-189.406 z" /><path
         id="path32"
         style="fill:none;stroke:#ffffff;stroke-width:4;stroke-linecap:butt;stroke-linejoin:miter;stroke-miterlimit:4;stroke-dasharray:none;stroke-opacity:1"
         d="m 6.14453,4.78516 357.504,0 0,189.406 -357.504,0 0,-189.406 z" /><path
         id="path34"
         style="fill:#ffffff;fill-opacity:1;fill-rule:nonzero;stroke:none"
         d="m 63.3477,113.121 54.0859,0 0,28.1445 -54.0859,0 0,-28.1445 z" /><path
         id="path36"
         style="fill:#ffffff;fill-opacity:1;fill-rule:nonzero;stroke:none"
         d="m 241.051,113.121 54.082,0 0,28.1445 -54.082,0 0,-28.1445 z" /><path
         id="path38"
         style="fill:#ffffff;fill-opacity:1;fill-rule:nonzero;stroke:none"
         d="m 63.3477,42.7461 54.0859,0 0,28.1484 -54.0859,0 0,-28.1484 z" /><path
         id="path40"
         style="fill:#ffffff;fill-opacity:1;fill-rule:nonzero;stroke:none"
         d="m 241.051,42.7461 54.082,0 0,28.1484 -54.082,0 0,-28.1484 z" /><path
         id="path42"
         style="fill:none;stroke:#ffffff;stroke-width:4;stroke-linecap:butt;stroke-linejoin:miter;stroke-miterlimit:4;stroke-dasharray:none;stroke-opacity:1"
         d="m 100.051,127.191 166.097,0" /><path
         id="path44"
         style="fill:none;stroke:#ffffff;stroke-width:4;stroke-linecap:butt;stroke-linejoin:miter;stroke-miterlimit:4;stroke-dasharray:none;stroke-opacity:1"
         d="m 100.051,56.8164 166.097,0" /><path
         id="path46"
         style="fill:none;stroke:#ffffff;stroke-width:4;stroke-linecap:butt;stroke-linejoin:miter;stroke-miterlimit:4;stroke-dasharray:none;stroke-opacity:1"
         d="M 90.3906,56.8164 266.148,127.191" /><path
         id="path48"
         style="fill:none;stroke:#ffffff;stroke-width:4;stroke-linecap:butt;stroke-linejoin:miter;stroke-miterlimit:4;stroke-dasharray:none;stroke-opacity:1"
         d="M 90.3906,127.191 266.148,56.8164" /><path
         id="path50"
         style="fill:#ffffff;fill-opacity:1;fill-rule:nonzero;stroke:none"
         d="m 420.738,169.414 13.184,67.121 12.812,13.938 0.059,13.875 22.129,0.754 -20.078,-42.211 0.371,20.082 -9.082,-12.543 -11.953,-63.688 -2.91,-13.504 -15.997,-72.8435 -13.769,-15.8086 0.019,-13.4336 -20.878,-6.7539 19.179,49.3868 0.117,-19.2774 8.653,10.4766 15.254,70.9256 2.89,13.504" /><path
         id="path52"
         style="fill:#ffffff;fill-opacity:1;fill-rule:nonzero;stroke:none"
         d="m 392.281,182.281 -0.117,0.086 8.477,7.75 16.132,-30.824 6.153,-10.18 17.09,-29.215 14.922,10.551 -0.606,-17.656 20.43,39.086 -20.938,-1.68 -0.156,-11.867 -12.031,-9.59 -18.418,32.176 -4.785,9.184 -16.993,29.472 -8.984,-8.015 -0.059,19.023 -21.543,-44.727 21.27,4.375 0.156,12.051" /></g></g></svg>