<?xml version="1.0" encoding="UTF-8" standalone="no"?>
<svg
   xmlns:dc="http://purl.org/dc/elements/1.1/"
   xmlns:cc="http://creativecommons.org/ns#"
   xmlns:rdf="http://www.w3.org/1999/02/22-rdf-syntax-ns#"
   xmlns:svg="http://www.w3.org/2000/svg"
   xmlns="http://www.w3.org/2000/svg"
   viewBox="0 0 33.837502 45.462502"
   height="45.462502"
   width="33.837502"
   xml:space="preserve"
   version="1.1"
   id="svg2"><metadata
     id="metadata8"><rdf:RDF><cc:Work
         rdf:about=""><dc:format>image/svg+xml</dc:format><dc:type
           rdf:resource="http://purl.org/dc/dcmitype/StillImage" /></cc:Work></rdf:RDF></metadata><defs
     id="defs6" /><g
     transform="matrix(1.25,0,0,-1.25,0,45.4625)"
     id="g10"><g
       transform="scale(0.1,0.1)"
       id="g12"><path
         id="path14"
         style="fill:#1582ba;fill-opacity:1;fill-rule:nonzero;stroke:none"
         d="m 5.42578,2.00391 215.73,0 0,219.766 -215.73,0 0,-219.766 z" /><path
         id="path16"
         style="fill:none;stroke:#ffffff;stroke-width:4;stroke-linecap:butt;stroke-linejoin:miter;stroke-miterlimit:4;stroke-dasharray:none;stroke-opacity:1"
         d="m 5.42578,2.00391 215.73,0 0,219.766 -215.73,0 0,-219.766 z" /><path
         id="path18"
         style="fill:#1582ba;fill-opacity:1;fill-rule:nonzero;stroke:none"
         d="m 221.156,221.77 44.621,43.816" /><path
         id="path20"
         style="fill:none;stroke:#ffffff;stroke-width:4;stroke-linecap:butt;stroke-linejoin:miter;stroke-miterlimit:4;stroke-dasharray:none;stroke-opacity:1"
         d="m 221.156,221.77 44.621,43.816" /><path
         id="path22"
         style="fill:#1582ba;fill-opacity:1;fill-rule:nonzero;stroke:none"
         d="m 135.844,221.77 0,-219.76609" /><path
         id="path24"
         style="fill:none;stroke:#ffffff;stroke-width:4;stroke-linecap:butt;stroke-linejoin:miter;stroke-miterlimit:4;stroke-dasharray:none;stroke-opacity:1"
         d="m 135.844,221.77 0,-219.76609" /><path
         id="path26"
         style="fill:#1582ba;fill-opacity:1;fill-rule:nonzero;stroke:none"
         d="m 5.42578,95.332 215.73,0 0,219.766 -215.73,0 0,-219.766 z" /><path
         id="path28"
         style="fill:none;stroke:#ffffff;stroke-width:4;stroke-linecap:butt;stroke-linejoin:miter;stroke-miterlimit:4;stroke-dasharray:none;stroke-opacity:1"
         d="m 5.42578,95.332 215.73,0 0,219.766 -215.73,0 0,-219.766 z" /><path
         id="path30"
         style="fill:#1582ba;fill-opacity:1;fill-rule:nonzero;stroke:none"
         d="m 265.777,358.914 0,-308.4648 -44.621,-44.99998 0,309.64878 44.621,43.816" /><path
         id="path32"
         style="fill:none;stroke:#ffffff;stroke-width:4;stroke-linecap:butt;stroke-linejoin:miter;stroke-miterlimit:4;stroke-dasharray:none;stroke-opacity:1"
         d="m 265.777,358.914 0,-308.4648 -44.621,-44.99998 0,309.64878 44.621,43.816 z" /><path
         id="path34"
         style="fill:#1582ba;fill-opacity:1;fill-rule:nonzero;stroke:none"
         d="m 221.156,315.098 -215.47631,0 54.49221,43.816 205.6051,0 -44.621,-43.816" /><path
         id="path36"
         style="fill:none;stroke:#ffffff;stroke-width:4;stroke-linecap:butt;stroke-linejoin:miter;stroke-miterlimit:4;stroke-dasharray:none;stroke-opacity:1"
         d="m 221.156,315.098 -215.47631,0 54.49221,43.816 205.6051,0 -44.621,-43.816 z" /><path
         id="path38"
         style="fill:#1582ba;fill-opacity:1;fill-rule:nonzero;stroke:none"
         d="m 221.156,315.098 44.621,43.816" /><path
         id="path40"
         style="fill:none;stroke:#ffffff;stroke-width:4;stroke-linecap:butt;stroke-linejoin:miter;stroke-miterlimit:4;stroke-dasharray:none;stroke-opacity:1"
         d="m 221.156,315.098 44.621,43.816" /><path
         id="path42"
         style="fill:#1582ba;fill-opacity:1;fill-rule:nonzero;stroke:none"
         d="m 35.4063,258.32 174.2187,0" /><path
         id="path44"
         style="fill:none;stroke:#ffffff;stroke-width:4;stroke-linecap:butt;stroke-linejoin:miter;stroke-miterlimit:4;stroke-dasharray:none;stroke-opacity:1"
         d="m 35.4063,258.32 174.2187,0" /><path
         id="path46"
         style="fill:#1582ba;fill-opacity:1;fill-rule:nonzero;stroke:none"
         d="m 27.2031,205.09 175.3709,0" /><path
         id="path48"
         style="fill:none;stroke:#ffffff;stroke-width:4;stroke-linecap:butt;stroke-linejoin:miter;stroke-miterlimit:4;stroke-dasharray:none;stroke-opacity:1"
         d="m 27.2031,205.09 175.3709,0" /><path
         id="path50"
         style="fill:#1582ba;fill-opacity:1;fill-rule:nonzero;stroke:none"
         d="m 19.4492,154.512 174.2578,0" /><path
         id="path52"
         style="fill:none;stroke:#ffffff;stroke-width:4;stroke-linecap:butt;stroke-linejoin:miter;stroke-miterlimit:4;stroke-dasharray:none;stroke-opacity:1"
         d="m 19.4492,154.512 174.2578,0" /><path
         id="path54"
         style="fill:#1582ba;fill-opacity:1;fill-rule:nonzero;stroke:none"
         d="M 43.3047,124.746 79.2422,290.313" /><path
         id="path56"
         style="fill:none;stroke:#ffffff;stroke-width:4;stroke-linecap:butt;stroke-linejoin:miter;stroke-miterlimit:4;stroke-dasharray:none;stroke-opacity:1"
         d="M 43.3047,124.746 79.2422,290.313" /><path
         id="path58"
         style="fill:#1582ba;fill-opacity:1;fill-rule:nonzero;stroke:none"
         d="m 155.113,124.746 35.938,165.567" /><path
         id="path60"
         style="fill:none;stroke:#ffffff;stroke-width:4;stroke-linecap:butt;stroke-linejoin:miter;stroke-miterlimit:4;stroke-dasharray:none;stroke-opacity:1"
         d="m 155.113,124.746 35.938,165.567" /><path
         id="path62"
         style="fill:#1582ba;fill-opacity:1;fill-rule:nonzero;stroke:none"
         d="M 99.2148,126.035 135.141,291.602" /><path
         id="path64"
         style="fill:none;stroke:#ffffff;stroke-width:4;stroke-linecap:butt;stroke-linejoin:miter;stroke-miterlimit:4;stroke-dasharray:none;stroke-opacity:1"
         d="M 99.2148,126.035 135.141,291.602" /><path
         id="path66"
         style="fill:#ffffff;fill-opacity:1;fill-rule:nonzero;stroke:none"
         d="m 85.7578,258.809 c 0,-5.02 -6.1133,-9.082 -13.6445,-9.082 -7.5274,0 -13.6406,4.062 -13.6406,9.082 0,5.019 6.1132,9.082 13.6406,9.082 7.5312,0 13.6445,-4.063 13.6445,-9.082" /><path
         id="path68"
         style="fill:#ffffff;fill-opacity:1;fill-rule:nonzero;stroke:none"
         d="m 142.242,261.074 c 0,-5.027 -6.094,-9.09 -13.633,-9.09 -7.539,0 -13.632,4.063 -13.632,9.09 0,5.02 6.093,9.094 13.632,9.094 7.539,0 13.633,-4.074 13.633,-9.094" /><path
         id="path70"
         style="fill:#ffffff;fill-opacity:1;fill-rule:nonzero;stroke:none"
         d="m 198.863,257.082 c 0,-5.031 -6.105,-9.094 -13.633,-9.094 -7.539,0 -13.632,4.063 -13.632,9.094 0,5.008 6.093,9.09 13.632,9.09 7.528,0 13.633,-4.082 13.633,-9.09" /><path
         id="path72"
         style="fill:#ffffff;fill-opacity:1;fill-rule:nonzero;stroke:none"
         d="m 72.8945,204.824 c 0,-5.019 -6.1132,-9.101 -13.6406,-9.101 -7.5312,0 -13.6328,4.082 -13.6328,9.101 0,5.02 6.1016,9.094 13.6328,9.094 7.5274,0 13.6406,-4.074 13.6406,-9.094" /><path
         id="path74"
         style="fill:#ffffff;fill-opacity:1;fill-rule:nonzero;stroke:none"
         d="m 129.391,203.086 c 0,-5.02 -6.114,-9.082 -13.633,-9.082 -7.531,0 -13.645,4.062 -13.645,9.082 0,5.027 6.114,9.102 13.645,9.102 7.519,0 13.633,-4.075 13.633,-9.102" /><path
         id="path76"
         style="fill:#ffffff;fill-opacity:1;fill-rule:nonzero;stroke:none"
         d="m 186.012,205.762 c 0,-5.039 -6.114,-9.09 -13.633,-9.09 -7.539,0 -13.652,4.051 -13.652,9.09 0,5.011 6.113,9.082 13.652,9.082 7.519,0 13.633,-4.071 13.633,-9.082" /><path
         id="path78"
         style="fill:#ffffff;fill-opacity:1;fill-rule:nonzero;stroke:none"
         d="m 61.625,153.547 c 0,-5.031 -6.1016,-9.094 -13.6328,-9.094 -7.5274,0 -13.6406,4.063 -13.6406,9.094 0,5.019 6.1132,9.09 13.6406,9.09 7.5312,0 13.6328,-4.071 13.6328,-9.09" /><path
         id="path80"
         style="fill:#ffffff;fill-opacity:1;fill-rule:nonzero;stroke:none"
         d="m 118.121,153.145 c 0,-5.02 -6.094,-9.09 -13.633,-9.09 -7.5388,0 -13.6442,4.07 -13.6442,9.09 0,5.019 6.1054,9.101 13.6442,9.101 7.539,0 13.633,-4.082 13.633,-9.101" /><path
         id="path82"
         style="fill:#ffffff;fill-opacity:1;fill-rule:nonzero;stroke:none"
         d="m 174.742,153.145 c 0,-5.02 -6.113,-9.09 -13.633,-9.09 -7.539,0 -13.644,4.07 -13.644,9.09 0,5.019 6.105,9.101 13.644,9.101 7.52,0 13.633,-4.082 13.633,-9.101" /><path
         id="path84"
         style="fill:#1582ba;fill-opacity:1;fill-rule:nonzero;stroke:none"
         d="m 206.82,70.918 c 0,-5.3711 -11.777,-9.7344 -26.297,-9.7344 -14.523,0 -26.3,4.3633 -26.3,9.7344 l 0,-48.0742 c 0,-5.3907 11.777,-9.7579 26.3,-9.7579 14.52,0 26.297,4.3672 26.297,9.7579 l 0,48.0742" /><path
         id="path86"
         style="fill:none;stroke:#ffffff;stroke-width:4;stroke-linecap:butt;stroke-linejoin:miter;stroke-miterlimit:4;stroke-dasharray:none;stroke-opacity:1"
         d="m 206.82,70.918 c 0,-5.3711 -11.777,-9.7344 -26.297,-9.7344 -14.523,0 -26.3,4.3633 -26.3,9.7344 l 0,-48.0742 c 0,-5.3907 11.777,-9.7579 26.3,-9.7579 14.52,0 26.297,4.3672 26.297,9.7579 l 0,48.0742 z" /><path
         id="path88"
         style="fill:#1582ba;fill-opacity:1;fill-rule:nonzero;stroke:none"
         d="m 180.523,61.1836 c 14.52,0 26.297,4.3633 26.297,9.7344 0,5.3828 -11.777,9.7461 -26.297,9.7461 -14.523,0 -26.3,-4.3633 -26.3,-9.7461 0,-5.3711 11.777,-9.7344 26.3,-9.7344" /><path
         id="path90"
         style="fill:none;stroke:#ffffff;stroke-width:4;stroke-linecap:butt;stroke-linejoin:miter;stroke-miterlimit:4;stroke-dasharray:none;stroke-opacity:1"
         d="m 180.523,61.1836 c 14.52,0 26.297,4.3633 26.297,9.7344 0,5.3828 -11.777,9.7461 -26.297,9.7461 -14.523,0 -26.3,-4.3633 -26.3,-9.7461 0,-5.3711 11.777,-9.7344 26.3,-9.7344 z" /><path
         id="path92"
         style="fill:#ffffff;fill-opacity:1;fill-rule:nonzero;stroke:none"
         d="m 34.1953,23.0195 52.0703,0 -0.2343,-10.8789 23.8477,15.3477 -23.8477,16.3008 0.2343,-11.3672 -52.0703,0" /><path
         id="path94"
         style="fill:#ffffff;fill-opacity:1;fill-rule:nonzero;stroke:none"
         d="m 106.527,68.418 -52.07,0 0.2344,10.8906 -23.8476,-15.3633 23.8476,-16.2969 -0.2344,11.3672 52.07,0" /></g></g></svg>