<?xml version="1.0" encoding="UTF-8" standalone="no"?>
<svg
   xmlns:dc="http://purl.org/dc/elements/1.1/"
   xmlns:cc="http://creativecommons.org/ns#"
   xmlns:rdf="http://www.w3.org/1999/02/22-rdf-syntax-ns#"
   xmlns:svg="http://www.w3.org/2000/svg"
   xmlns="http://www.w3.org/2000/svg"
   viewBox="0 0 35 47.5"
   height="47.5"
   width="35"
   xml:space="preserve"
   version="1.1"
   id="svg2"><metadata
     id="metadata8"><rdf:RDF><cc:Work
         rdf:about=""><dc:format>image/svg+xml</dc:format><dc:type
           rdf:resource="http://purl.org/dc/dcmitype/StillImage" /></cc:Work></rdf:RDF></metadata><defs
     id="defs6" /><g
     transform="matrix(1.25,0,0,-1.25,0,47.5)"
     id="g10"><g
       transform="scale(0.1,0.1)"
       id="g12"><path
         id="path14"
         style="fill:#1582ba;fill-opacity:1;fill-rule:nonzero;stroke:none"
         d="m 5.42969,11.9883 215.742,0 0,219.773 -215.742,0 0,-219.773 z" /><path
         id="path16"
         style="fill:none;stroke:#ffffff;stroke-width:4;stroke-linecap:butt;stroke-linejoin:miter;stroke-miterlimit:4;stroke-dasharray:none;stroke-opacity:1"
         d="m 5.42969,11.9961 215.742,0 0,219.77 -215.742,0 0,-219.77 z" /><path
         id="path18"
         style="fill:#1582ba;fill-opacity:1;fill-rule:nonzero;stroke:none"
         d="m 221.172,231.762 44.609,43.828" /><path
         id="path20"
         style="fill:none;stroke:#ffffff;stroke-width:4;stroke-linecap:butt;stroke-linejoin:miter;stroke-miterlimit:4;stroke-dasharray:none;stroke-opacity:1"
         d="m 221.172,231.766 44.609,43.82" /><path
         id="path22"
         style="fill:none;stroke:#ffffff;stroke-width:4;stroke-linecap:butt;stroke-linejoin:miter;stroke-miterlimit:4;stroke-dasharray:none;stroke-opacity:1"
         d="m 135.859,231.766 0,-219.7699" /><path
         id="path24"
         style="fill:#1582ba;fill-opacity:1;fill-rule:nonzero;stroke:none"
         d="m 5.42969,105.309 215.742,0 0,219.77 -215.742,0 0,-219.77 z" /><path
         id="path26"
         style="fill:none;stroke:#ffffff;stroke-width:4;stroke-linecap:butt;stroke-linejoin:miter;stroke-miterlimit:4;stroke-dasharray:none;stroke-opacity:1"
         d="m 5.42969,105.316 215.742,0 0,219.77 -215.742,0 0,-219.77 z" /><path
         id="path28"
         style="fill:#1582ba;fill-opacity:1;fill-rule:nonzero;stroke:none"
         d="m 265.781,368.91 0,-308.4803 -44.609,-45 0,309.6483 44.609,43.832" /><path
         id="path30"
         style="fill:none;stroke:#ffffff;stroke-width:4;stroke-linecap:butt;stroke-linejoin:miter;stroke-miterlimit:4;stroke-dasharray:none;stroke-opacity:1"
         d="m 265.781,368.906 0,-308.4685 -44.609,-45 0,309.6485 44.609,43.82 z" /><path
         id="path32"
         style="fill:#1582ba;fill-opacity:1;fill-rule:nonzero;stroke:none"
         d="m 221.172,325.078 -215.51184,0 54.50004,43.832 205.6208,0 -44.609,-43.832" /><path
         id="path34"
         style="fill:none;stroke:#ffffff;stroke-width:4;stroke-linecap:butt;stroke-linejoin:miter;stroke-miterlimit:4;stroke-dasharray:none;stroke-opacity:1"
         d="m 221.172,325.086 -215.51184,0 54.50004,43.82 205.6208,0 -44.609,-43.82 z" /><path
         id="path36"
         style="fill:#1582ba;fill-opacity:1;fill-rule:nonzero;stroke:none"
         d="m 221.172,325.078 44.609,43.832" /><path
         id="path38"
         style="fill:none;stroke:#ffffff;stroke-width:4;stroke-linecap:butt;stroke-linejoin:miter;stroke-miterlimit:4;stroke-dasharray:none;stroke-opacity:1"
         d="m 221.172,325.086 44.609,43.82" /><path
         id="path40"
         style="fill:none;stroke:#ffffff;stroke-width:4;stroke-linecap:butt;stroke-linejoin:miter;stroke-miterlimit:4;stroke-dasharray:none;stroke-opacity:1"
         d="m 35.3906,268.328 174.2184,0" /><path
         id="path42"
         style="fill:none;stroke:#ffffff;stroke-width:4;stroke-linecap:butt;stroke-linejoin:miter;stroke-miterlimit:4;stroke-dasharray:none;stroke-opacity:1"
         d="m 27.1914,215.086 175.3866,0" /><path
         id="path44"
         style="fill:none;stroke:#ffffff;stroke-width:4;stroke-linecap:butt;stroke-linejoin:miter;stroke-miterlimit:4;stroke-dasharray:none;stroke-opacity:1"
         d="m 19.4492,164.496 174.2618,0" /><path
         id="path46"
         style="fill:#1582ba;fill-opacity:1;fill-rule:nonzero;stroke:none"
         d="M 43.3203,134.73 79.2617,300.32" /><path
         id="path48"
         style="fill:none;stroke:#ffffff;stroke-width:4;stroke-linecap:butt;stroke-linejoin:miter;stroke-miterlimit:4;stroke-dasharray:none;stroke-opacity:1"
         d="M 43.3203,134.727 79.2617,300.316" /><path
         id="path50"
         style="fill:#1582ba;fill-opacity:1;fill-rule:nonzero;stroke:none"
         d="m 155.121,134.73 35.93,165.59" /><path
         id="path52"
         style="fill:none;stroke:#ffffff;stroke-width:4;stroke-linecap:butt;stroke-linejoin:miter;stroke-miterlimit:4;stroke-dasharray:none;stroke-opacity:1"
         d="m 155.121,134.727 35.93,165.589" /><path
         id="path54"
         style="fill:#1582ba;fill-opacity:1;fill-rule:nonzero;stroke:none"
         d="M 99.2188,136.02 135.16,301.609" /><path
         id="path56"
         style="fill:none;stroke:#ffffff;stroke-width:4;stroke-linecap:butt;stroke-linejoin:miter;stroke-miterlimit:4;stroke-dasharray:none;stroke-opacity:1"
         d="M 99.2188,136.016 135.16,301.605" /><path
         id="path58"
         style="fill:#ffffff;fill-opacity:1;fill-rule:nonzero;stroke:none"
         d="m 85.7383,268.789 c 0,-5 -6.0899,-9.059 -13.6289,-9.059 -7.5391,0 -13.6289,4.059 -13.6289,9.059 0,5.039 6.0898,9.109 13.6289,9.109 7.539,0 13.6289,-4.07 13.6289,-9.109" /><path
         id="path60"
         style="fill:#ffffff;fill-opacity:1;fill-rule:nonzero;stroke:none"
         d="m 142.23,271.059 c 0,-5 -6.101,-9.059 -13.64,-9.059 -7.539,0 -13.629,4.059 -13.629,9.059 0,5.043 6.09,9.101 13.629,9.101 7.539,0 13.64,-4.058 13.64,-9.101" /><path
         id="path62"
         style="fill:#ffffff;fill-opacity:1;fill-rule:nonzero;stroke:none"
         d="m 198.871,267.078 c 0,-5.039 -6.101,-9.109 -13.641,-9.109 -7.531,0 -13.628,4.07 -13.628,9.109 0,5 6.097,9.102 13.628,9.102 7.54,0 13.641,-4.102 13.641,-9.102" /><path
         id="path64"
         style="fill:#ffffff;fill-opacity:1;fill-rule:nonzero;stroke:none"
         d="m 72.8906,214.809 c 0,-5 -6.0898,-9.098 -13.6289,-9.098 -7.5429,0 -13.6406,4.098 -13.6406,9.098 0,5.043 6.0977,9.101 13.6406,9.101 7.5391,0 13.6289,-4.058 13.6289,-9.101" /><path
         id="path66"
         style="fill:#ffffff;fill-opacity:1;fill-rule:nonzero;stroke:none"
         d="m 129.379,213.09 c 0,-5.039 -6.098,-9.102 -13.641,-9.102 -7.5,0 -13.629,4.063 -13.629,9.102 0,5 6.129,9.101 13.629,9.101 7.543,0 13.641,-4.101 13.641,-9.101" /><path
         id="path68"
         style="fill:#ffffff;fill-opacity:1;fill-rule:nonzero;stroke:none"
         d="m 186.02,215.75 c 0,-5.039 -6.141,-9.07 -13.641,-9.07 -7.539,0 -13.668,4.031 -13.668,9.07 0,5.039 6.129,9.102 13.668,9.102 7.5,0 13.641,-4.063 13.641,-9.102" /><path
         id="path70"
         style="fill:#ffffff;fill-opacity:1;fill-rule:nonzero;stroke:none"
         d="m 61.6406,163.559 c 0,-5.039 -6.1289,-9.098 -13.6289,-9.098 -7.5429,0 -13.6719,4.059 -13.6719,9.098 0,5 6.129,9.062 13.6719,9.062 7.5,0 13.6289,-4.062 13.6289,-9.062" /><path
         id="path72"
         style="fill:#ffffff;fill-opacity:1;fill-rule:nonzero;stroke:none"
         d="m 118.121,163.129 c 0,-5 -6.09,-9.059 -13.633,-9.059 -7.5388,0 -13.6286,4.059 -13.6286,9.059 0,5.043 6.0898,9.101 13.6286,9.101 7.543,0 13.633,-4.058 13.633,-9.101" /><path
         id="path74"
         style="fill:#ffffff;fill-opacity:1;fill-rule:nonzero;stroke:none"
         d="m 174.73,163.129 c 0,-5 -6.101,-9.059 -13.64,-9.059 -7.539,0 -13.629,4.059 -13.629,9.059 0,5.043 6.09,9.101 13.629,9.101 7.539,0 13.64,-4.058 13.64,-9.101" /><path
         id="path76"
         style="fill:#1582ba;fill-opacity:1;fill-rule:nonzero;stroke:none"
         d="m 206.84,80.8984 c 0,-5.3476 -11.801,-9.7187 -26.328,-9.7187 -14.492,0 -26.293,4.3711 -26.293,9.7187 l 0,-48.039 c 0,-5.3906 11.801,-9.7696 26.293,-9.7696 14.527,0 26.328,4.379 26.328,9.7696 l 0,48.039" /><path
         id="path78"
         style="fill:none;stroke:#ffffff;stroke-width:4;stroke-linecap:butt;stroke-linejoin:miter;stroke-miterlimit:4;stroke-dasharray:none;stroke-opacity:1"
         d="m 206.84,80.9063 c 0,-5.3477 -11.801,-9.7305 -26.328,-9.7305 -14.492,0 -26.293,4.3828 -26.293,9.7305 l 0,-48.0508 c 0,-5.3867 11.801,-9.7696 26.293,-9.7696 14.527,0 26.328,4.3829 26.328,9.7696 l 0,48.0508 z" /><path
         id="path80"
         style="fill:#1582ba;fill-opacity:1;fill-rule:nonzero;stroke:none"
         d="m 180.512,71.1797 c 14.527,0 26.328,4.3711 26.328,9.7187 0,5.3907 -11.801,9.7735 -26.328,9.7735 -14.492,0 -26.293,-4.3828 -26.293,-9.7735 0,-5.3476 11.801,-9.7187 26.293,-9.7187" /><path
         id="path82"
         style="fill:none;stroke:#ffffff;stroke-width:4;stroke-linecap:butt;stroke-linejoin:miter;stroke-miterlimit:4;stroke-dasharray:none;stroke-opacity:1"
         d="m 180.512,71.1758 c 14.527,0 26.328,4.3828 26.328,9.7305 0,5.3906 -11.801,9.7617 -26.328,9.7617 -14.492,0 -26.293,-4.3711 -26.293,-9.7617 0,-5.3477 11.801,-9.7305 26.293,-9.7305 z" /><path
         id="path84"
         style="fill:#ffffff;fill-opacity:1;fill-rule:nonzero;stroke:none"
         d="m 34.1797,33.0117 52.0703,0 -0.2305,-10.8633 23.8595,15.3204 -23.8595,16.3203 0.2305,-11.3594 -52.0703,0" /><path
         id="path86"
         style="fill:#ffffff;fill-opacity:1;fill-rule:nonzero;stroke:none"
         d="m 106.52,78.3984 -52.0708,0 0.2422,10.9024 -23.832,-15.3516 23.832,-16.289 -0.2422,11.3711 52.0708,0" /></g></g></svg>