<?xml version="1.0" encoding="UTF-8" standalone="no"?>
<svg
   xmlns:dc="http://purl.org/dc/elements/1.1/"
   xmlns:cc="http://creativecommons.org/ns#"
   xmlns:rdf="http://www.w3.org/1999/02/22-rdf-syntax-ns#"
   xmlns:svg="http://www.w3.org/2000/svg"
   xmlns="http://www.w3.org/2000/svg"
   viewBox="0 0 40 53.75"
   height="53.75"
   width="40"
   xml:space="preserve"
   version="1.1"
   id="svg2"><metadata
     id="metadata8"><rdf:RDF><cc:Work
         rdf:about=""><dc:format>image/svg+xml</dc:format><dc:type
           rdf:resource="http://purl.org/dc/dcmitype/StillImage" /></cc:Work></rdf:RDF></metadata><defs
     id="defs6" /><g
     transform="matrix(1.25,0,0,-1.25,0,53.75)"
     id="g10"><g
       transform="scale(0.1,0.1)"
       id="g12"><path
         id="path14"
         style="fill:#087bbb;fill-opacity:1;fill-rule:nonzero;stroke:none"
         d="m 6.48047,14.8086 268.238,0 0,268.012 -268.238,0 0,-268.012 z" /><path
         id="path16"
         style="fill:none;stroke:#ffffff;stroke-width:4;stroke-linecap:butt;stroke-linejoin:miter;stroke-miterlimit:4;stroke-dasharray:none;stroke-opacity:1"
         d="m 6.48047,14.8125 268.238,0 0,268.012 -268.238,0 0,-268.012 z" /><path
         id="path18"
         style="fill:#087bbb;fill-opacity:1;fill-rule:nonzero;stroke:none"
         d="m 308.629,48.3711 0,268.0079 -33.899,-33.559 0,-268.0114 33.899,33.5625" /><path
         id="path20"
         style="fill:none;stroke:#ffffff;stroke-width:4;stroke-linecap:butt;stroke-linejoin:miter;stroke-miterlimit:4;stroke-dasharray:none;stroke-opacity:1"
         d="m 308.629,48.3633 0,268.0077 -33.899,-33.547 0,-268.0115 33.899,33.5508 z" /><path
         id="path22"
         style="fill:#087bbb;fill-opacity:1;fill-rule:nonzero;stroke:none"
         d="m 55.5117,425.012 -49.03123,-33.563 268.24953,0 33.899,33.563 -253.1173,0" /><path
         id="path24"
         style="fill:none;stroke:#ffffff;stroke-width:4;stroke-linecap:butt;stroke-linejoin:miter;stroke-miterlimit:4;stroke-dasharray:none;stroke-opacity:1"
         d="m 55.5117,425.012 -49.03123,-33.559 268.24953,0 33.899,33.559 -253.1173,0 z" /><path
         id="path26"
         style="fill:#087bbb;fill-opacity:1;fill-rule:nonzero;stroke:none"
         d="m 6.48047,282.82 268.238,0 0,108.629 -268.238,0 0,-108.629 z" /><path
         id="path28"
         style="fill:none;stroke:#ffffff;stroke-width:4;stroke-linecap:butt;stroke-linejoin:miter;stroke-miterlimit:4;stroke-dasharray:none;stroke-opacity:1"
         d="m 6.48047,282.824 268.238,0 0,108.629 -268.238,0 0,-108.629 z" /><path
         id="path30"
         style="fill:#087bbb;fill-opacity:1;fill-rule:nonzero;stroke:none"
         d="m 308.629,316.379 0,108.633 -33.899,-33.563 0,-108.629 33.899,33.559" /><path
         id="path32"
         style="fill:none;stroke:#ffffff;stroke-width:4;stroke-linecap:butt;stroke-linejoin:miter;stroke-miterlimit:4;stroke-dasharray:none;stroke-opacity:1"
         d="m 308.629,316.371 0,108.641 -33.899,-33.559 0,-108.629 33.899,33.547 z" /><path
         id="path34"
         style="fill:none;stroke:#ffffff;stroke-width:4;stroke-linecap:butt;stroke-linejoin:miter;stroke-miterlimit:4;stroke-dasharray:none;stroke-opacity:1"
         d="m 274.73,282.824 -268.24953,0" /><path
         id="path36"
         style="fill:#087bbb;fill-opacity:1;fill-rule:nonzero;stroke:none"
         d="m 274.73,282.82 33.899,33.559" /><path
         id="path38"
         style="fill:none;stroke:#ffffff;stroke-width:4;stroke-linecap:butt;stroke-linejoin:miter;stroke-miterlimit:4;stroke-dasharray:none;stroke-opacity:1"
         d="m 274.73,282.824 33.899,33.547" /><path
         id="path40"
         style="fill:#ffffff;fill-opacity:1;fill-rule:nonzero;stroke:none"
         d="m 50.2305,354.34 43.2813,0 0,22.5391 -43.2813,0 0,-22.5391 z" /><path
         id="path42"
         style="fill:#ffffff;fill-opacity:1;fill-rule:nonzero;stroke:none"
         d="m 192.422,354.34 43.2383,0 0,22.5391 -43.2383,0 0,-22.5391 z" /><path
         id="path44"
         style="fill:#ffffff;fill-opacity:1;fill-rule:nonzero;stroke:none"
         d="m 50.2305,298.059 43.2813,0 0,22.5 -43.2813,0 0,-22.5 z" /><path
         id="path46"
         style="fill:#ffffff;fill-opacity:1;fill-rule:nonzero;stroke:none"
         d="m 192.422,298.059 43.2383,0 0,22.5 -43.2383,0 0,-22.5 z" /><path
         id="path48"
         style="fill:none;stroke:#ffffff;stroke-width:4;stroke-linecap:butt;stroke-linejoin:miter;stroke-miterlimit:4;stroke-dasharray:none;stroke-opacity:1"
         d="m 79.6094,365.594 132.8906,0" /><path
         id="path50"
         style="fill:none;stroke:#ffffff;stroke-width:4;stroke-linecap:butt;stroke-linejoin:miter;stroke-miterlimit:4;stroke-dasharray:none;stroke-opacity:1"
         d="m 79.6094,309.305 132.8906,0" /><path
         id="path52"
         style="fill:#000000;fill-opacity:1;fill-rule:nonzero;stroke:none"
         d="M 71.8789,309.309 212.5,365.59" /><path
         id="path54"
         style="fill:none;stroke:#ffffff;stroke-width:4;stroke-linecap:butt;stroke-linejoin:miter;stroke-miterlimit:4;stroke-dasharray:none;stroke-opacity:1"
         d="M 71.8789,309.305 212.5,365.594" /><path
         id="path56"
         style="fill:#000000;fill-opacity:1;fill-rule:nonzero;stroke:none"
         d="M 71.8789,365.59 212.5,309.309" /><path
         id="path58"
         style="fill:none;stroke:#ffffff;stroke-width:4;stroke-linecap:butt;stroke-linejoin:miter;stroke-miterlimit:4;stroke-dasharray:none;stroke-opacity:1"
         d="M 71.8789,365.594 212.5,309.305" /><path
         id="path60"
         style="fill:#ffffff;fill-opacity:1;fill-rule:nonzero;stroke:none"
         d="m 154.34,209.379 18.551,0 0,-3.16 6.988,4.652 -6.988,4.649 0,-3.168 -18.551,0 0,-2.973" /><path
         id="path62"
         style="fill:#ffffff;fill-opacity:1;fill-rule:nonzero;stroke:none"
         d="m 151.641,218.84 13.129,13.121 2.218,-2.231 1.684,8.25 -8.242,-1.679 2.23,-2.231 -13.129,-13.121 2.11,-2.109" /><path
         id="path64"
         style="fill:#ffffff;fill-opacity:1;fill-rule:nonzero;stroke:none"
         d="m 143.051,223.641 0,18.558 3.16,0 -4.652,6.992 -4.649,-6.992 3.129,0 0,-18.558 3.012,0" /><path
         id="path66"
         style="fill:#ffffff;fill-opacity:1;fill-rule:nonzero;stroke:none"
         d="m 133.59,220.949 -13.121,13.121 2.23,2.231 -8.25,1.679 1.68,-8.25 2.23,2.231 13.121,-13.121 2.11,2.109" /><path
         id="path68"
         style="fill:#ffffff;fill-opacity:1;fill-rule:nonzero;stroke:none"
         d="m 128.789,212.352 -18.559,0 0,3.168 -6.992,-4.649 6.992,-4.652 0,3.16 18.559,0 0,2.973" /><path
         id="path70"
         style="fill:#ffffff;fill-opacity:1;fill-rule:nonzero;stroke:none"
         d="m 149.531,200.789 13.129,-13.129 -2.23,-2.219 8.242,-1.679 -1.684,8.238 -2.218,-2.23 -13.129,13.128 -2.11,-2.109" /><path
         id="path72"
         style="fill:#ffffff;fill-opacity:1;fill-rule:nonzero;stroke:none"
         d="m 126.02,199.5 c 6.05,-8.672 18.039,-10.82 26.75,-4.691 8.679,6.062 10.781,18.05 4.691,26.761 -6.051,8.668 -18.051,10.782 -26.723,4.692 -8.707,-6.063 -10.816,-18.09 -4.718,-26.762" /><path
         id="path74"
         style="fill:#ffffff;fill-opacity:1;fill-rule:nonzero;stroke:none"
         d="m 131.48,201.18 -13.121,-13.121 -2.23,2.222 -1.68,-8.242 8.25,1.68 -2.23,2.23 13.121,13.121 -2.11,2.11" /><path
         id="path76"
         style="fill:none;stroke:#ffffff;stroke-width:8;stroke-linecap:butt;stroke-linejoin:miter;stroke-miterlimit:4;stroke-dasharray:none;stroke-opacity:1"
         d="m 141.328,199.895 0,-122.1528" /><path
         id="path78"
         style="fill:#ffffff;fill-opacity:1;fill-rule:nonzero;stroke:none"
         d="m 133.121,69.6992 -12.961,0 0,2.1797 -4.93,-3.2383 4.93,-3.2422 0,2.1914 12.961,0 0,2.1094" /><path
         id="path80"
         style="fill:#ffffff;fill-opacity:1;fill-rule:nonzero;stroke:none"
         d="m 135,63.0586 -9.18,-9.1797 -1.558,1.5625 -1.141,-5.7422 5.75,1.1289 -1.57,1.5625 9.179,9.1797 -1.48,1.4883" /><path
         id="path82"
         style="fill:#ffffff;fill-opacity:1;fill-rule:nonzero;stroke:none"
         d="m 141.02,59.6992 0,-12.9687 -2.192,0 3.242,-4.9219 3.282,4.9219 -2.231,0 0,12.9687 -2.101,0" /><path
         id="path84"
         style="fill:#ffffff;fill-opacity:1;fill-rule:nonzero;stroke:none"
         d="m 147.66,61.5703 9.18,-9.1797 -1.57,-1.5625 5.781,-1.1289 -1.172,5.7422 -1.559,-1.5625 -9.179,9.1797 -1.481,-1.4883" /><path
         id="path86"
         style="fill:#ffffff;fill-opacity:1;fill-rule:nonzero;stroke:none"
         d="m 151.02,67.5898 13,0 0,-2.1914 4.89,3.2422 -4.89,3.2383 0,-2.1797 -13,0 0,-2.1094" /><path
         id="path88"
         style="fill:#ffffff;fill-opacity:1;fill-rule:nonzero;stroke:none"
         d="m 136.48,75.7109 -9.179,9.1797 1.57,1.5586 -5.75,1.1797 1.141,-5.7891 1.558,1.5704 9.18,-9.1797 1.48,1.4804" /><path
         id="path90"
         style="fill:#ffffff;fill-opacity:1;fill-rule:nonzero;stroke:none"
         d="m 152.969,76.6094 c -4.258,6.0508 -12.66,7.539 -18.75,3.2812 -6.059,-4.2617 -7.539,-12.6211 -3.278,-18.7109 4.258,-6.0899 12.649,-7.5781 18.707,-3.3203 6.09,4.2617 7.582,12.6601 3.321,18.75" /><path
         id="path92"
         style="fill:#ffffff;fill-opacity:1;fill-rule:nonzero;stroke:none"
         d="m 149.141,75.4414 9.179,9.1797 1.559,-1.5625 1.172,5.7422 -5.781,-1.1406 1.57,-1.5586 -9.18,-9.2227 1.481,-1.4375" /></g></g></svg>