<?xml version="1.0" encoding="UTF-8" standalone="no"?>
<svg
   xmlns:dc="http://purl.org/dc/elements/1.1/"
   xmlns:cc="http://creativecommons.org/ns#"
   xmlns:rdf="http://www.w3.org/1999/02/22-rdf-syntax-ns#"
   xmlns:svg="http://www.w3.org/2000/svg"
   xmlns="http://www.w3.org/2000/svg"
   viewBox="0 0 42.5625 32.1875"
   height="32.1875"
   width="42.5625"
   xml:space="preserve"
   version="1.1"
   id="svg2"><metadata
     id="metadata8"><rdf:RDF><cc:Work
         rdf:about=""><dc:format>image/svg+xml</dc:format><dc:type
           rdf:resource="http://purl.org/dc/dcmitype/StillImage" /></cc:Work></rdf:RDF></metadata><defs
     id="defs6" /><g
     transform="matrix(1.25,0,0,-1.25,0,32.1875)"
     id="g10"><g
       transform="scale(0.1,0.1)"
       id="g12"><path
         id="path14"
         style="fill:#02709f;fill-opacity:1;fill-rule:nonzero;stroke:none"
         d="m 4.82813,4.82422 47.4023,0 0,201.523 -47.4023,0 0,-201.523 z" /><path
         id="path16"
         style="fill:none;stroke:#ffffff;stroke-width:3.99993992;stroke-linecap:butt;stroke-linejoin:miter;stroke-miterlimit:4;stroke-dasharray:none;stroke-opacity:1"
         d="m 4.82813,4.82422 47.4023,0 0,201.523 -47.4023,0 0,-201.523 z" /><path
         id="path18"
         style="fill:#02709f;fill-opacity:1;fill-rule:nonzero;stroke:none"
         d="m 52.2305,4.82422 47.4219,0 0,201.523 -47.4219,0 0,-201.523 z" /><path
         id="path20"
         style="fill:none;stroke:#ffffff;stroke-width:3.99993992;stroke-linecap:butt;stroke-linejoin:miter;stroke-miterlimit:4;stroke-dasharray:none;stroke-opacity:1"
         d="m 52.2305,4.82422 47.4219,0 0,201.523 -47.4219,0 0,-201.523 z" /><path
         id="path22"
         style="fill:#02709f;fill-opacity:1;fill-rule:nonzero;stroke:none"
         d="m 99.6523,4.82422 47.4219,0 0,201.523 -47.4219,0 0,-201.523 z" /><path
         id="path24"
         style="fill:none;stroke:#ffffff;stroke-width:3.99993992;stroke-linecap:butt;stroke-linejoin:miter;stroke-miterlimit:4;stroke-dasharray:none;stroke-opacity:1"
         d="m 99.6523,4.82422 47.4219,0 0,201.523 -47.4219,0 0,-201.523 z" /><path
         id="path26"
         style="fill:#02709f;fill-opacity:1;fill-rule:nonzero;stroke:none"
         d="m 147.074,4.82422 47.4063,0 0,201.523 -47.4063,0 0,-201.523 z" /><path
         id="path28"
         style="fill:none;stroke:#ffffff;stroke-width:3.99993992;stroke-linecap:butt;stroke-linejoin:miter;stroke-miterlimit:4;stroke-dasharray:none;stroke-opacity:1"
         d="m 147.074,4.82422 47.4063,0 0,201.523 -47.4063,0 0,-201.523 z" /><path
         id="path30"
         style="fill:#02709f;fill-opacity:1;fill-rule:nonzero;stroke:none"
         d="m 194.48,4.82422 47.4219,0 0,201.523 -47.4219,0 0,-201.523 z" /><path
         id="path32"
         style="fill:none;stroke:#ffffff;stroke-width:3.99993992;stroke-linecap:butt;stroke-linejoin:miter;stroke-miterlimit:4;stroke-dasharray:none;stroke-opacity:1"
         d="m 194.48,4.82422 47.4219,0 0,201.523 -47.4219,0 0,-201.523 z" /><path
         id="path34"
         style="fill:#02709f;fill-opacity:1;fill-rule:nonzero;stroke:none"
         d="m 241.902,4.82422 47.4219,0 0,201.523 -47.4219,0 0,-201.523 z" /><path
         id="path36"
         style="fill:none;stroke:#ffffff;stroke-width:3.99993992;stroke-linecap:butt;stroke-linejoin:miter;stroke-miterlimit:4;stroke-dasharray:none;stroke-opacity:1"
         d="m 241.902,4.82422 47.4219,0 0,201.523 -47.4219,0 0,-201.523 z" /><path
         id="path38"
         style="fill:#02709f;fill-opacity:1;fill-rule:nonzero;stroke:none"
         d="m 289.324,4.82422 49.145,49.14058 0,201.5352 -284.5002,0 -49.14067,-49.152 284.49587,0 0,-201.52378" /><path
         id="path40"
         style="fill:none;stroke:#ffffff;stroke-width:3.99993992;stroke-linecap:butt;stroke-linejoin:miter;stroke-miterlimit:4;stroke-dasharray:none;stroke-opacity:1"
         d="m 289.324,4.82422 49.145,49.14058 0,201.5352 -284.5002,0 -49.14067,-49.152 284.49587,0 0,-201.52378 z" /><path
         id="path42"
         style="fill:#02709f;fill-opacity:1;fill-rule:nonzero;stroke:none"
         d="M 289.324,206.348 338.469,255.5" /><path
         id="path44"
         style="fill:none;stroke:#ffffff;stroke-width:3.99993992;stroke-linecap:butt;stroke-linejoin:miter;stroke-miterlimit:4;stroke-dasharray:none;stroke-opacity:1"
         d="M 289.324,206.348 338.469,255.5" /><path
         id="path46"
         style="fill:#02709f;fill-opacity:1;fill-rule:nonzero;stroke:none"
         d="m 289.324,105.586 -284.49587,0" /><path
         id="path48"
         style="fill:none;stroke:#ffffff;stroke-width:3.99993992;stroke-linecap:butt;stroke-linejoin:miter;stroke-miterlimit:4;stroke-dasharray:none;stroke-opacity:1"
         d="m 289.324,105.586 -284.49587,0" /><path
         id="path50"
         style="fill:#02709f;fill-opacity:1;fill-rule:nonzero;stroke:none"
         d="m 13.1289,90.4883 30.8008,0" /><path
         id="path52"
         style="fill:none;stroke:#ffffff;stroke-width:3.99993992;stroke-linecap:butt;stroke-linejoin:miter;stroke-miterlimit:4;stroke-dasharray:none;stroke-opacity:1"
         d="m 13.1289,90.4883 30.8008,0" /><path
         id="path54"
         style="fill:#02709f;fill-opacity:1;fill-rule:nonzero;stroke:none"
         d="m 13.1289,78.6133 30.8008,0" /><path
         id="path56"
         style="fill:none;stroke:#ffffff;stroke-width:3.99993992;stroke-linecap:butt;stroke-linejoin:miter;stroke-miterlimit:4;stroke-dasharray:none;stroke-opacity:1"
         d="m 13.1289,78.6133 30.8008,0" /><path
         id="path58"
         style="fill:#02709f;fill-opacity:1;fill-rule:nonzero;stroke:none"
         d="m 13.1289,66.7383 30.8008,0" /><path
         id="path60"
         style="fill:none;stroke:#ffffff;stroke-width:3.99993992;stroke-linecap:butt;stroke-linejoin:miter;stroke-miterlimit:4;stroke-dasharray:none;stroke-opacity:1"
         d="m 13.1289,66.7383 30.8008,0" /><path
         id="path62"
         style="fill:#02709f;fill-opacity:1;fill-rule:nonzero;stroke:none"
         d="m 13.1289,54.8633 30.8008,0" /><path
         id="path64"
         style="fill:none;stroke:#ffffff;stroke-width:3.99993992;stroke-linecap:butt;stroke-linejoin:miter;stroke-miterlimit:4;stroke-dasharray:none;stroke-opacity:1"
         d="m 13.1289,54.8633 30.8008,0" /><path
         id="path66"
         style="fill:#02709f;fill-opacity:1;fill-rule:nonzero;stroke:none"
         d="m 13.1289,42.9883 30.8008,0" /><path
         id="path68"
         style="fill:none;stroke:#ffffff;stroke-width:3.99993992;stroke-linecap:butt;stroke-linejoin:miter;stroke-miterlimit:4;stroke-dasharray:none;stroke-opacity:1"
         d="m 13.1289,42.9883 30.8008,0" /><path
         id="path70"
         style="fill:#02709f;fill-opacity:1;fill-rule:nonzero;stroke:none"
         d="m 60.543,90.4883 30.8086,0" /><path
         id="path72"
         style="fill:none;stroke:#ffffff;stroke-width:3.99993992;stroke-linecap:butt;stroke-linejoin:miter;stroke-miterlimit:4;stroke-dasharray:none;stroke-opacity:1"
         d="m 60.543,90.4883 30.8086,0" /><path
         id="path74"
         style="fill:#02709f;fill-opacity:1;fill-rule:nonzero;stroke:none"
         d="m 60.543,78.6133 30.8086,0" /><path
         id="path76"
         style="fill:none;stroke:#ffffff;stroke-width:3.99993992;stroke-linecap:butt;stroke-linejoin:miter;stroke-miterlimit:4;stroke-dasharray:none;stroke-opacity:1"
         d="m 60.543,78.6133 30.8086,0" /><path
         id="path78"
         style="fill:#02709f;fill-opacity:1;fill-rule:nonzero;stroke:none"
         d="m 60.543,66.7383 30.8086,0" /><path
         id="path80"
         style="fill:none;stroke:#ffffff;stroke-width:3.99993992;stroke-linecap:butt;stroke-linejoin:miter;stroke-miterlimit:4;stroke-dasharray:none;stroke-opacity:1"
         d="m 60.543,66.7383 30.8086,0" /><path
         id="path82"
         style="fill:#02709f;fill-opacity:1;fill-rule:nonzero;stroke:none"
         d="m 60.543,54.8633 30.8086,0" /><path
         id="path84"
         style="fill:none;stroke:#ffffff;stroke-width:3.99993992;stroke-linecap:butt;stroke-linejoin:miter;stroke-miterlimit:4;stroke-dasharray:none;stroke-opacity:1"
         d="m 60.543,54.8633 30.8086,0" /><path
         id="path86"
         style="fill:#02709f;fill-opacity:1;fill-rule:nonzero;stroke:none"
         d="m 60.543,42.9883 30.8086,0" /><path
         id="path88"
         style="fill:none;stroke:#ffffff;stroke-width:3.99993992;stroke-linecap:butt;stroke-linejoin:miter;stroke-miterlimit:4;stroke-dasharray:none;stroke-opacity:1"
         d="m 60.543,42.9883 30.8086,0" /></g></g></svg>