<?xml version="1.0" encoding="UTF-8" standalone="no"?>
<svg
   xmlns:dc="http://purl.org/dc/elements/1.1/"
   xmlns:cc="http://creativecommons.org/ns#"
   xmlns:rdf="http://www.w3.org/1999/02/22-rdf-syntax-ns#"
   xmlns:svg="http://www.w3.org/2000/svg"
   xmlns="http://www.w3.org/2000/svg"
   viewBox="0 0 35.837502 37.3125"
   height="37.3125"
   width="35.837502"
   xml:space="preserve"
   version="1.1"
   id="svg2"><metadata
     id="metadata8"><rdf:RDF><cc:Work
         rdf:about=""><dc:format>image/svg+xml</dc:format><dc:type
           rdf:resource="http://purl.org/dc/dcmitype/StillImage" /></cc:Work></rdf:RDF></metadata><defs
     id="defs6"><clipPath
       id="clipPath30"
       clipPathUnits="userSpaceOnUse"><path
         id="path32"
         d="m 162.102,211.723 -5.247,-8.387 32.286,1.562 -13.661,28.34 -4.726,-7.609 C 134.082,245.75 109.578,208.75 109.578,208.75 l 12.5,-12.5 c 15,26.5 40.024,15.473 40.024,15.473 z" /></clipPath><linearGradient
       id="linearGradient34"
       spreadMethod="pad"
       gradientTransform="matrix(79.5605,0,0,-79.5605,109.58,214.746)"
       gradientUnits="userSpaceOnUse"
       y2="0"
       x2="1"
       y1="0"
       x1="0"><stop
         id="stop36"
         offset="0"
         style="stop-opacity:1;stop-color:#087bbb" /><stop
         id="stop38"
         offset="0.44523796"
         style="stop-opacity:1;stop-color:#ffffff" /><stop
         id="stop40"
         offset="1"
         style="stop-opacity:1;stop-color:#ffffff" /></linearGradient><clipPath
       id="clipPath48"
       clipPathUnits="userSpaceOnUse"><path
         id="path50"
         d="m 195.09,175.223 -5.235,-8.391 32.286,1.563 -13.657,28.343 -4.734,-7.605 C 167.078,209.246 142.582,172.25 142.582,172.25 l 12.508,-12.5 c 15,26.5 40,15.473 40,15.473 z" /></clipPath><linearGradient
       id="linearGradient52"
       spreadMethod="pad"
       gradientTransform="matrix(79.5557,0,0,-79.5557,142.583,178.242)"
       gradientUnits="userSpaceOnUse"
       y2="0"
       x2="1"
       y1="0"
       x1="0"><stop
         id="stop54"
         offset="0"
         style="stop-opacity:1;stop-color:#087bbb" /><stop
         id="stop56"
         offset="0.44523796"
         style="stop-opacity:1;stop-color:#ffffff" /><stop
         id="stop58"
         offset="1"
         style="stop-opacity:1;stop-color:#ffffff" /></linearGradient><clipPath
       id="clipPath66"
       clipPathUnits="userSpaceOnUse"><path
         id="path68"
         d="m 222.844,134.48 -5.239,-8.394 32.29,1.559 -13.665,28.339 -4.738,-7.605 c -36.656,20.121 -61.16,-16.887 -61.16,-16.887 l 12.5,-12.5 c 15,26.512 40.012,15.488 40.012,15.488 z" /></clipPath><linearGradient
       id="linearGradient70"
       spreadMethod="pad"
       gradientTransform="matrix(79.5605,0,0,-79.5605,170.332,137.49)"
       gradientUnits="userSpaceOnUse"
       y2="0"
       x2="1"
       y1="0"
       x1="0"><stop
         id="stop72"
         offset="0"
         style="stop-opacity:1;stop-color:#087bbb" /><stop
         id="stop74"
         offset="0.44523796"
         style="stop-opacity:1;stop-color:#ffffff" /><stop
         id="stop76"
         offset="1"
         style="stop-opacity:1;stop-color:#ffffff" /></linearGradient><clipPath
       id="clipPath84"
       clipPathUnits="userSpaceOnUse"><path
         id="path86"
         d="m 131.215,66.25 c -5.156,-4.6797 -11.828,-7.2383 -18.793,-7.2383 -7.481,0 -14.5118,2.9102 -19.8009,8.1953 -5.2852,5.2813 -8.1992,12.3125 -8.1992,19.7969 0,7.6836 3.0508,14.8401 8.582,20.1721 l -10.4062,10.801 c -8.4961,-8.18 -13.1758,-19.1801 -13.1758,-30.9731 0,-11.4883 4.4765,-22.2891 12.5937,-30.4023 8.1211,-8.125 18.9224,-12.5899 30.4064,-12.5899 10.691,0 20.941,3.9492 28.863,11.1172 l 7.363,-7.3867 8.391,32.5195 -34.394,-5.0078 8.57,-9.0039 z" /></clipPath><linearGradient
       id="linearGradient88"
       spreadMethod="pad"
       gradientTransform="matrix(-85.0403,30.9522,30.9522,85.0403,152.9,59.443)"
       gradientUnits="userSpaceOnUse"
       y2="0"
       x2="1"
       y1="0"
       x1="0"><stop
         id="stop90"
         offset="0"
         style="stop-opacity:1;stop-color:#ffffff" /><stop
         id="stop92"
         offset="0.13911524"
         style="stop-opacity:1;stop-color:#ffffff" /><stop
         id="stop94"
         offset="0.904494"
         style="stop-opacity:1;stop-color:#087bbb" /><stop
         id="stop96"
         offset="0.91994199"
         style="stop-opacity:1;stop-color:#087bbb" /><stop
         id="stop98"
         offset="1"
         style="stop-opacity:1;stop-color:#087bbb" /></linearGradient><clipPath
       id="clipPath106"
       clipPathUnits="userSpaceOnUse"><path
         id="path108"
         d="m 93.7617,103.254 c -5.1601,-4.6681 -11.832,-7.2462 -18.7969,-7.2462 -7.4804,0 -14.5117,2.9063 -19.8007,8.2032 -5.2852,5.293 -8.1993,12.32 -8.1993,19.801 0,7.676 3.0469,14.843 8.5821,20.168 l -10.4102,10.804 c -8.4961,-8.183 -13.1719,-19.183 -13.1719,-30.972 0,-11.492 4.4688,-22.285 12.5938,-30.4104 8.1211,-8.125 18.918,-12.5938 30.4062,-12.5938 10.6915,0 20.9454,3.9414 28.8632,11.1289 l 7.363,-7.3789 8.387,32.5152 -34.3866,-5.015 8.5703,-9.004 z" /></clipPath><linearGradient
       id="linearGradient110"
       spreadMethod="pad"
       gradientTransform="matrix(-85.0403,30.9522,30.9522,85.0403,115.444,96.445)"
       gradientUnits="userSpaceOnUse"
       y2="0"
       x2="1"
       y1="0"
       x1="0"><stop
         id="stop112"
         offset="0"
         style="stop-opacity:1;stop-color:#ffffff" /><stop
         id="stop114"
         offset="0.13911524"
         style="stop-opacity:1;stop-color:#ffffff" /><stop
         id="stop116"
         offset="0.904494"
         style="stop-opacity:1;stop-color:#087bbb" /><stop
         id="stop118"
         offset="0.91994199"
         style="stop-opacity:1;stop-color:#087bbb" /><stop
         id="stop120"
         offset="1"
         style="stop-opacity:1;stop-color:#087bbb" /></linearGradient><clipPath
       id="clipPath128"
       clipPathUnits="userSpaceOnUse"><path
         id="path130"
         d="m 6.80469,131.16 c 0.875,-1.055 1.80469,-2.07 2.78906,-3.066 C 17.7148,119.98 28.5156,115.508 40,115.508 c 10.6953,0 20.9414,3.957 28.8633,11.125 l 7.3633,-7.387 8.3867,32.527 -34.3906,-5.019 8.5703,-9.012 C 53.6367,133.074 46.9648,130.508 40,130.508 c -7.4805,0 -14.5117,2.91 -19.8008,8.191 -5.289,5.301 -8.2031,12.332 -8.2031,19.809 0,7.68 3.0469,14.84 8.5859,20.172 l -10.4062,10.8 c -1.44142,-1.378 -2.76955,-2.843 -3.98049,-4.378" /></clipPath><linearGradient
       id="linearGradient132"
       spreadMethod="pad"
       gradientTransform="matrix(-83.0031,30.2107,30.2107,83.0031,80.4785,130.937)"
       gradientUnits="userSpaceOnUse"
       y2="0"
       x2="1"
       y1="0"
       x1="0"><stop
         id="stop134"
         offset="0"
         style="stop-opacity:1;stop-color:#ffffff" /><stop
         id="stop136"
         offset="0.13911524"
         style="stop-opacity:1;stop-color:#ffffff" /><stop
         id="stop138"
         offset="0.904494"
         style="stop-opacity:1;stop-color:#087bbb" /><stop
         id="stop140"
         offset="0.91994199"
         style="stop-opacity:1;stop-color:#087bbb" /><stop
         id="stop142"
         offset="1"
         style="stop-opacity:1;stop-color:#087bbb" /></linearGradient></defs><g
     transform="matrix(1.25,0,0,-1.25,0,37.3125)"
     id="g10"><g
       transform="scale(0.1,0.1)"
       id="g12"><path
         id="path14"
         style="fill:#087bbb;fill-opacity:1;fill-rule:nonzero;stroke:none"
         d="m 4.82813,4.82422 249.996,0 0,261.832 -249.996,0 0,-261.832 z" /><path
         id="path16"
         style="fill:none;stroke:#ffffff;stroke-width:4;stroke-linecap:butt;stroke-linejoin:miter;stroke-miterlimit:4;stroke-dasharray:none;stroke-opacity:1"
         d="m 4.82813,4.82422 249.996,0 0,261.832 -249.996,0 0,-261.832 z" /><path
         id="path18"
         style="fill:#087bbb;fill-opacity:1;fill-rule:nonzero;stroke:none"
         d="m 281.816,31.8242 -27.003,-26.99998 0,261.83178 27.003,27 0,-261.8318" /><path
         id="path20"
         style="fill:none;stroke:#ffffff;stroke-width:4;stroke-linecap:butt;stroke-linejoin:miter;stroke-miterlimit:4;stroke-dasharray:none;stroke-opacity:1"
         d="m 281.816,31.8242 -27.003,-26.99998 0,261.83178 27.003,27 0,-261.8318 z" /><path
         id="path22"
         style="fill:#087bbb;fill-opacity:1;fill-rule:nonzero;stroke:none"
         d="m 281.816,293.656 -249.9957,0 -26.99217,-26.996 249.98487,0 27.003,26.996" /><path
         id="path24"
         style="fill:none;stroke:#ffffff;stroke-width:4;stroke-linecap:butt;stroke-linejoin:miter;stroke-miterlimit:4;stroke-dasharray:none;stroke-opacity:1"
         d="m 281.816,293.656 -249.9957,0 -26.99217,-26.996 249.98487,0 27.003,26.996 z" /><g
         id="g26"><g
           clip-path="url(#clipPath30)"
           id="g28"><path
             id="path42"
             style="fill:url(#linearGradient34);fill-opacity:1;fill-rule:nonzero;stroke:none"
             d="m 162.102,211.723 -5.247,-8.387 32.286,1.562 -13.661,28.34 -4.726,-7.609 C 134.082,245.75 109.578,208.75 109.578,208.75 l 12.5,-12.5 c 15,26.5 40.024,15.473 40.024,15.473" /></g></g><g
         id="g44"><g
           clip-path="url(#clipPath48)"
           id="g46"><path
             id="path60"
             style="fill:url(#linearGradient52);fill-opacity:1;fill-rule:nonzero;stroke:none"
             d="m 195.09,175.223 -5.235,-8.391 32.286,1.563 -13.657,28.343 -4.734,-7.605 C 167.078,209.246 142.582,172.25 142.582,172.25 l 12.508,-12.5 c 15,26.5 40,15.473 40,15.473" /></g></g><g
         id="g62"><g
           clip-path="url(#clipPath66)"
           id="g64"><path
             id="path78"
             style="fill:url(#linearGradient70);fill-opacity:1;fill-rule:nonzero;stroke:none"
             d="m 222.844,134.48 -5.239,-8.394 32.29,1.559 -13.665,28.339 -4.738,-7.605 c -36.656,20.121 -61.16,-16.887 -61.16,-16.887 l 12.5,-12.5 c 15,26.512 40.012,15.488 40.012,15.488" /></g></g><g
         id="g80"><g
           clip-path="url(#clipPath84)"
           id="g82"><path
             id="path100"
             style="fill:url(#linearGradient88);fill-opacity:1;fill-rule:nonzero;stroke:none"
             d="m 131.215,66.25 c -5.156,-4.6797 -11.828,-7.2383 -18.793,-7.2383 -7.481,0 -14.5118,2.9102 -19.8009,8.1953 -5.2852,5.2813 -8.1992,12.3125 -8.1992,19.7969 0,7.6836 3.0508,14.8401 8.582,20.1721 l -10.4062,10.801 c -8.4961,-8.18 -13.1758,-19.1801 -13.1758,-30.9731 0,-11.4883 4.4765,-22.2891 12.5937,-30.4023 8.1211,-8.125 18.9224,-12.5899 30.4064,-12.5899 10.691,0 20.941,3.9492 28.863,11.1172 l 7.363,-7.3867 8.391,32.5195 -34.394,-5.0078 8.57,-9.0039" /></g></g><g
         id="g102"><g
           clip-path="url(#clipPath106)"
           id="g104"><path
             id="path122"
             style="fill:url(#linearGradient110);fill-opacity:1;fill-rule:nonzero;stroke:none"
             d="m 93.7617,103.254 c -5.1601,-4.6681 -11.832,-7.2462 -18.7969,-7.2462 -7.4804,0 -14.5117,2.9063 -19.8007,8.2032 -5.2852,5.293 -8.1993,12.32 -8.1993,19.801 0,7.676 3.0469,14.843 8.5821,20.168 l -10.4102,10.804 c -8.4961,-8.183 -13.1719,-19.183 -13.1719,-30.972 0,-11.492 4.4688,-22.285 12.5938,-30.4104 8.1211,-8.125 18.918,-12.5938 30.4062,-12.5938 10.6915,0 20.9454,3.9414 28.8632,11.1289 l 7.363,-7.3789 8.387,32.5152 -34.3866,-5.015 8.5703,-9.004" /></g></g><g
         id="g124"><g
           clip-path="url(#clipPath128)"
           id="g126"><path
             id="path144"
             style="fill:url(#linearGradient132);fill-opacity:1;fill-rule:nonzero;stroke:none"
             d="m 6.80469,131.16 c 0.875,-1.055 1.80469,-2.07 2.78906,-3.066 C 17.7148,119.98 28.5156,115.508 40,115.508 c 10.6953,0 20.9414,3.957 28.8633,11.125 l 7.3633,-7.387 8.3867,32.527 -34.3906,-5.019 8.5703,-9.012 C 53.6367,133.074 46.9648,130.508 40,130.508 c -7.4805,0 -14.5117,2.91 -19.8008,8.191 -5.289,5.301 -8.2031,12.332 -8.2031,19.809 0,7.68 3.0469,14.84 8.5859,20.172 l -10.4062,10.8 c -1.44142,-1.378 -2.76955,-2.843 -3.98049,-4.378" /></g></g><path
         id="path146"
         style="fill:#087bbb;fill-opacity:1;fill-rule:nonzero;stroke:none"
         d="M 68.0625,247.797 24.0664,201.469 197.395,36.875 l 44,46.3164 L 68.0625,247.797" /><path
         id="path148"
         style="fill:none;stroke:#ffffff;stroke-width:4;stroke-linecap:butt;stroke-linejoin:miter;stroke-miterlimit:4;stroke-dasharray:none;stroke-opacity:1"
         d="M 68.0625,247.797 24.0664,201.469 197.395,36.875 l 44,46.3164 L 68.0625,247.797 Z" /><path
         id="path150"
         style="fill:#ffffff;fill-opacity:1;fill-rule:nonzero;stroke:none"
         d="m 192.344,45.7148 3.347,3.5313 3.539,-3.3594 -3.351,-3.5351 -3.535,3.3632 z m -7.078,6.7149 3.355,3.5351 3.535,-3.3593 -3.355,-3.5352 -3.535,3.3594 z m -7.075,6.7187 3.364,3.5352 3.535,-3.3594 -3.36,-3.5351 -3.539,3.3593 z m -7.07,6.7188 3.352,3.5351 3.535,-3.3554 -3.352,-3.5391 -3.535,3.3594 z m -7.078,6.7226 3.352,3.5313 3.543,-3.3594 -3.348,-3.5351 -3.547,3.3632 z m -7.078,6.7149 3.355,3.5351 3.535,-3.3593 -3.347,-3.5352 -3.543,3.3594 z m -7.07,6.7187 3.359,3.5352 3.531,-3.3594 -3.355,-3.5351 -3.535,3.3593 z m -7.079,6.7188 3.36,3.5351 3.543,-3.3554 -3.367,-3.5391 -3.536,3.3594 z m -7.074,6.7226 3.36,3.5312 3.535,-3.3593 -3.356,-3.5351 -3.539,3.3632 z m -7.07,6.7152 3.363,3.527 3.535,-3.352 -3.363,-3.535 -3.535,3.36 z m -7.074,6.711 3.359,3.543 3.535,-3.36 -3.355,-3.543 -3.539,3.36 z m -7.078,6.718 3.363,3.536 3.531,-3.348 -3.355,-3.539 -3.539,3.351 z m -7.075,6.719 3.36,3.535 3.535,-3.359 -3.356,-3.535 -3.539,3.359 z m -7.07,6.719 3.359,3.535 3.532,-3.359 -3.352,-3.535 -3.539,3.359 z m -7.0781,6.723 3.3594,3.531 3.5387,-3.36 -3.3591,-3.535 -3.539,3.364 z m -7.0703,6.714 3.3593,3.536 3.5352,-3.36 -3.3555,-3.539 -3.539,3.363 z m -7.0743,6.719 3.3516,3.535 3.5391,-3.355 -3.3594,-3.539 -3.5313,3.359 z m -7.0703,6.715 3.3516,3.539 3.5391,-3.359 -3.3633,-3.535 -3.5274,3.355 z m -7.0781,6.719 3.3555,3.539 3.5351,-3.36 -3.3593,-3.535 -3.5313,3.356 z m -7.0742,6.718 3.3594,3.54 3.5351,-3.36 -3.3594,-3.535 -3.5351,3.355 z m -7.0742,6.719 3.3554,3.539 3.5391,-3.363 -3.3594,-3.539 -3.5351,3.363 z m -7.0742,6.719 3.3593,3.535 3.5313,-3.359 -3.3555,-3.535 -3.5351,3.359 z m -7.0782,6.719 3.3555,3.535 3.5391,-3.359 -3.3477,-3.536 -3.5469,3.36 z m -7.0703,6.718 3.3555,3.536 3.539,-3.36 -3.3593,-3.535 -3.5352,3.359 z M 162.344,84.9688 191.555,115.723 230.461,78.7773 201.25,48.0156 162.344,84.9688 Z m -42.449,40.3042 29.207,30.762 38.918,-36.945 -29.219,-30.7697 -38.906,36.9527 z m -42.4536,40.313 29.2066,30.762 38.918,-36.95 -29.218,-30.765 -38.9066,36.953 z M 34.9961,205.895 64.2109,236.66 103.121,199.707 73.9063,168.945 34.9961,205.895 Z M 228.945,84.2578 l 3.352,3.5352 3.543,-3.3516 -3.36,-3.543 -3.535,3.3594 z m -7.082,6.707 3.364,3.5469 3.535,-3.3594 -3.364,-3.5468 -3.535,3.3593 z m -7.066,6.7188 3.355,3.5464 3.536,-3.3589 -3.36,-3.5469 -3.531,3.3594 z m -7.07,6.7184 3.347,3.547 3.543,-3.359 -3.355,-3.543 -3.535,3.355 z m -7.082,6.719 3.347,3.535 3.559,-3.359 -3.363,-3.524 -3.543,3.348 z m -7.082,6.719 3.363,3.547 3.535,-3.371 -3.352,-3.524 -3.546,3.348 z m -7.071,6.719 3.363,3.546 3.536,-3.371 -3.364,-3.535 -3.535,3.36 z m -7.066,6.718 3.355,3.547 3.535,-3.359 -3.355,-3.543 -3.535,3.355 z m -7.071,6.719 3.348,3.543 3.543,-3.355 -3.355,-3.547 -3.536,3.359 z m -7.089,6.719 3.367,3.543 3.523,-3.36 -3.347,-3.535 -3.543,3.352 z m -7.075,6.726 3.364,3.528 3.535,-3.352 -3.36,-3.535 -3.539,3.359 z m -7.07,6.719 3.359,3.535 3.54,-3.359 -3.364,-3.535 -3.535,3.359 z m -7.066,6.711 3.355,3.543 3.535,-3.367 -3.355,-3.535 -3.535,3.359 z m -7.078,6.719 3.359,3.539 3.535,-3.356 -3.351,-3.543 -3.543,3.36 z m -7.075,6.719 3.356,3.543 3.539,-3.368 -3.363,-3.535 -3.532,3.36 z m -7.07,6.718 3.359,3.536 3.532,-3.36 -3.356,-3.531 -3.535,3.355 z m -7.074,6.715 3.351,3.539 3.536,-3.351 -3.36,-3.543 -3.527,3.355 z m -7.074,6.719 3.355,3.539 3.531,-3.359 -3.351,-3.536 -3.535,3.356 z m -7.079,6.719 3.36,3.539 3.531,-3.352 -3.355,-3.543 -3.536,3.356 z m -7.0737,6.718 3.3593,3.54 3.5354,-3.36 -3.3596,-3.539 -3.5351,3.359 z m -7.0782,6.723 3.3555,3.535 3.5469,-3.363 -3.3594,-3.539 -3.543,3.367 z m -7.0703,6.715 3.3555,3.535 3.539,-3.359 -3.3554,-3.535 -3.5391,3.359 z m -7.0781,6.719 3.3594,3.539 3.5429,-3.364 -3.3672,-3.539 -3.5351,3.364 z m -7.0703,6.718 3.3594,3.536 3.5351,-3.356 -3.3594,-3.543 -3.5351,3.363 z M 241.395,83.2031 71.5977,244.441 68.0625,247.797 60.668,240.016 31.4609,209.258 24.0664,201.469 197.395,36.875 l 44,46.3281" /></g></g></svg>