<svg xmlns="http://www.w3.org/2000/svg" viewBox="0 0 52.5 42.5" height="42.5" width="52.5"><path d="M13.935 39.634h33.501V6.104H13.935v33.53z" fill="#087bbb"/><path d="M13.935 39.634h33.501V6.104H13.935v33.53z" fill="none" stroke="#fff" stroke-width=".5"/><path d="M17.851 1.773h33.506l-4.194 4.233h-33.5l4.188-4.233" fill="#087bbb"/><path d="M17.851 1.773h33.506l-4.194 4.233h-33.5l4.188-4.233z" fill="none" stroke="#fff" stroke-width=".5"/><path d="M51.498 34.311l-4.193 6.129V5.79L51.5 1.553V34.31" fill="#087bbb"/><path d="M51.498 34.311l-4.193 6.129V5.79L51.5 1.552v32.759z" fill="none" stroke="#fff" stroke-width=".5"/><path d="M.356 39.634h13.58V6.104H.355v33.53z" fill="#087bbb"/><path d="M.356 39.634h13.58V6.104H.355v33.53z" fill="none" stroke="#fff" stroke-width=".5"/><path d="M4.795 1.773h13.579L14.18 6.006H.6l4.195-4.233" fill="#087bbb"/><path d="M4.795 1.773h13.579L14.18 6.006H.6l4.195-4.233zM13.935 6.103v33.53" fill="none" stroke="#fff" stroke-width=".5"/><path d="M14.14 6.006l4.195-4.233" fill="#b2b2b2"/><path d="M14.14 6.006l4.195-4.233" fill="none" stroke="#fff" stroke-width=".5"/><path d="M6.719 15.386l-.123.165c-.84 1.275-1.527 1.91-2.07 1.91-.62 0-1.23-.494-1.831-1.48.084 0 .142.005.181.005.708 0 1.494-.546 2.363-1.64l.22-.283-.283-.308c-.806-.845-1.206-1.558-1.206-2.148 0-.48.439-1.05 1.318-1.705.122.84.493 1.656 1.108 2.452l.244.312.196-.253c.899-1.158 1.714-1.74 2.452-1.74.57 0 1.004.44 1.303 1.32-.089-.01-.151-.02-.196-.02-.254 0-.615.176-1.084.522a5.694 5.694 0 0 0-1.19 1.181l-.25.328.239.23c.875.84 1.772 1.264 2.715 1.264-.503 1.02-1.03 1.528-1.577 1.528-.498 0-1.215-.435-2.153-1.303l-.376-.337M10.581 27.974c-.82.874-1.719 2.016-2.7 3.427-.977 1.416-1.705 2.618-2.182 3.619l-.596.405c-.498.341-.835.605-1.016.776-.068-.259-.22-.679-.46-1.255l-.223-.517c-.328-.762-.625-1.324-.904-1.685-.279-.367-.591-.6-.938-.713.587-.63 1.123-.947 1.612-.947.41 0 .868.57 1.377 1.705l.249.57c.956-1.607 2.441-3.403 4.452-5.385l.553-.523 1.528-1.21c.386-.265.747-.484 1.09-.67l.297.42c-.289.215-.606.474-.952.772l-1.187 1.21" fill="#fff"/><path d="M13.819 22.256H.239" fill="none" stroke="#fff" stroke-width=".5"/><path d="M47.197 30.2h-33.31M47.197 34.815h-33.31M51.158 29.293l-3.687 5.59M23.75 35.043v4.19M36.636 35.043v4.19M30.454 30.405v4.19M17.569 30.405v4.19M43.335 30.405v4.19" fill="none" stroke="#fff" stroke-width=".5" stroke-linecap="round" stroke-linejoin="round"/><path d="M47.252 30.292l4.14-6.102"/><path d="M47.252 30.293l4.14-6.103" fill="none" stroke="#fff" stroke-width=".5"/><path d="M49.224 32.827v4.946M50.107 26.636v4.947" fill="none" stroke="#fff" stroke-width=".5" stroke-linecap="round" stroke-linejoin="round"/><path d="M23.31 28.73a1.074 1.074 0 1 0 0-2.148 1.074 1.074 0 1 0 0 2.148" fill="#fff"/><path d="M23.31 28.731a1.074 1.074 0 1 0 0-2.149 1.075 1.075 0 1 0 0 2.149z" fill="none" stroke="#000" stroke-width=".5"/><path d="M22.388 26.509l2.105 2.056 5.937-6.08-2.105-2.055-5.937 6.079" fill="#fff"/><path d="M22.388 26.509l2.105 2.056 5.937-6.08-2.105-2.055-5.937 6.079z" fill="none" stroke="#000" stroke-width=".5"/><path d="M27.485 15.953c0 4.442 3.618 8.06 8.062 8.06 4.443 0 8.062-3.618 8.062-8.06 0-4.444-3.619-8.058-8.062-8.058s-8.062 3.614-8.062 8.058zm1.129 0a6.941 6.941 0 0 1 6.933-6.934c3.823 0 6.933 3.11 6.933 6.934 0 3.822-3.11 6.933-6.933 6.933a6.942 6.942 0 0 1-6.933-6.933" fill="#fff"/><path d="M27.485 15.952c0 4.444 3.618 8.062 8.062 8.062 4.443 0 8.062-3.618 8.062-8.062 0-4.443-3.619-8.056-8.062-8.056s-8.062 3.613-8.062 8.056zm1.129 0a6.94 6.94 0 0 1 6.933-6.934 6.94 6.94 0 0 1 6.933 6.934c0 3.823-3.11 6.934-6.933 6.934s-6.933-3.111-6.933-6.934z" fill="none" stroke="#000" stroke-width=".5"/><path d="M26.543 16.416c0 4.448 3.613 8.062 8.062 8.062 4.442 0 8.056-3.614 8.056-8.062 0-4.443-3.614-8.056-8.056-8.056-4.449 0-8.062 3.613-8.062 8.056zm1.128 0a6.94 6.94 0 0 1 6.934-6.934c3.823 0 6.929 3.11 6.929 6.934 0 3.823-3.106 6.934-6.929 6.934-3.824 0-6.934-3.111-6.934-6.934" fill="#fff"/><path d="M26.543 16.416c0 4.449 3.613 8.062 8.062 8.062 4.442 0 8.056-3.613 8.056-8.062 0-4.444-3.614-8.056-8.056-8.056-4.449 0-8.062 3.612-8.062 8.056zm1.128 0a6.94 6.94 0 0 1 6.934-6.934c3.823 0 6.929 3.11 6.929 6.934 0 3.824-3.106 6.934-6.929 6.934a6.94 6.94 0 0 1-6.934-6.934z" fill="none" stroke="#000" stroke-width=".5"/></svg>