<?xml version="1.0" encoding="UTF-8" standalone="no"?>
<svg
   xmlns:dc="http://purl.org/dc/elements/1.1/"
   xmlns:cc="http://creativecommons.org/ns#"
   xmlns:rdf="http://www.w3.org/1999/02/22-rdf-syntax-ns#"
   xmlns:svg="http://www.w3.org/2000/svg"
   xmlns="http://www.w3.org/2000/svg"
   viewBox="0 0 52.5 42.5"
   height="42.5"
   width="52.5"
   xml:space="preserve"
   version="1.1"
   id="svg2"><metadata
     id="metadata8"><rdf:RDF><cc:Work
         rdf:about=""><dc:format>image/svg+xml</dc:format><dc:type
           rdf:resource="http://purl.org/dc/dcmitype/StillImage" /></cc:Work></rdf:RDF></metadata><defs
     id="defs6" /><g
     transform="matrix(1.25,0,0,-1.25,0,42.5)"
     id="g10"><g
       transform="scale(0.1,0.1)"
       id="g12"><path
         id="path14"
         style="fill:#087bbb;fill-opacity:1;fill-rule:nonzero;stroke:none"
         d="m 111.48,22.9297 268.008,0 0,268.242 -268.008,0 0,-268.242 z" /><path
         id="path16"
         style="fill:none;stroke:#ffffff;stroke-width:4;stroke-linecap:butt;stroke-linejoin:miter;stroke-miterlimit:4;stroke-dasharray:none;stroke-opacity:1"
         d="m 111.48,22.9297 268.008,0 0,268.242 -268.008,0 0,-268.242 z" /><path
         id="path18"
         style="fill:#087bbb;fill-opacity:1;fill-rule:nonzero;stroke:none"
         d="m 142.809,325.82 268.05,0 -33.558,-33.871 -268,0 33.508,33.871" /><path
         id="path20"
         style="fill:none;stroke:#ffffff;stroke-width:4;stroke-linecap:butt;stroke-linejoin:miter;stroke-miterlimit:4;stroke-dasharray:none;stroke-opacity:1"
         d="m 142.809,325.82 268.05,0 -33.558,-33.867 -268,0 33.508,33.867 z" /><path
         id="path22"
         style="fill:#087bbb;fill-opacity:1;fill-rule:nonzero;stroke:none"
         d="m 411.988,65.5117 -33.547,-49.0312 0,277.1915 33.547,33.906 0,-262.0663" /><path
         id="path24"
         style="fill:none;stroke:#ffffff;stroke-width:4;stroke-linecap:butt;stroke-linejoin:miter;stroke-miterlimit:4;stroke-dasharray:none;stroke-opacity:1"
         d="m 411.988,65.5117 -33.547,-49.0312 0,277.1915 33.547,33.91 0,-262.0703 z" /><path
         id="path26"
         style="fill:#087bbb;fill-opacity:1;fill-rule:nonzero;stroke:none"
         d="m 2.85156,22.9297 108.629,0 0,268.242 -108.629,0 0,-268.242 z" /><path
         id="path28"
         style="fill:none;stroke:#ffffff;stroke-width:4;stroke-linecap:butt;stroke-linejoin:miter;stroke-miterlimit:4;stroke-dasharray:none;stroke-opacity:1"
         d="m 2.85156,22.9297 108.629,0 0,268.242 -108.629,0 0,-268.242 z" /><path
         id="path30"
         style="fill:#087bbb;fill-opacity:1;fill-rule:nonzero;stroke:none"
         d="m 38.3594,325.82 108.6286,0 -33.547,-33.871 -108.64022,0 33.55862,33.871" /><path
         id="path32"
         style="fill:none;stroke:#ffffff;stroke-width:4;stroke-linecap:butt;stroke-linejoin:miter;stroke-miterlimit:4;stroke-dasharray:none;stroke-opacity:1"
         d="m 38.3594,325.82 108.6286,0 -33.547,-33.867 -108.64022,0 33.55862,33.867 z" /><path
         id="path34"
         style="fill:none;stroke:#ffffff;stroke-width:4;stroke-linecap:butt;stroke-linejoin:miter;stroke-miterlimit:4;stroke-dasharray:none;stroke-opacity:1"
         d="m 111.48,291.172 0,-268.2423" /><path
         id="path36"
         style="fill:#b2b2b2;fill-opacity:1;fill-rule:nonzero;stroke:none"
         d="M 113.121,291.949 146.68,325.82" /><path
         id="path38"
         style="fill:none;stroke:#ffffff;stroke-width:4;stroke-linecap:butt;stroke-linejoin:miter;stroke-miterlimit:4;stroke-dasharray:none;stroke-opacity:1"
         d="M 113.121,291.953 146.68,325.82" /><path
         id="path40"
         style="fill:#ffffff;fill-opacity:1;fill-rule:nonzero;stroke:none"
         d="m 53.75,216.91 -0.9805,-1.32 c -6.7187,-10.199 -12.2187,-15.281 -16.5586,-15.281 -4.9609,0 -9.8398,3.953 -14.6523,11.839 0.6719,0 1.1406,-0.039 1.4531,-0.039 5.6602,0 11.9492,4.371 18.8985,13.121 l 1.7617,2.27 -2.2617,2.461 c -6.4493,6.758 -9.6485,12.461 -9.6485,17.187 0,3.832 3.5078,8.403 10.5391,13.633 0.9805,-6.722 3.9492,-13.242 8.8711,-19.609 l 1.9492,-2.5 1.5703,2.027 c 7.1875,9.262 13.707,13.91 19.6094,13.91 4.5703,0 8.039,-3.519 10.4297,-10.55 -0.711,0.082 -1.211,0.16 -1.5703,0.16 -2.0313,0 -4.9219,-1.41 -8.6719,-4.18 -3.75,-2.809 -6.9492,-5.937 -9.5274,-9.449 l -1.9921,-2.621 1.9101,-1.84 c 7,-6.719 14.1797,-10.109 21.7227,-10.109 -4.0235,-8.168 -8.2422,-12.231 -12.6211,-12.231 -3.9805,0 -9.7188,3.481 -17.2188,10.43 L 53.75,216.91" /><path
         id="path42"
         style="fill:#ffffff;fill-opacity:1;fill-rule:nonzero;stroke:none"
         d="M 84.6484,116.211 C 78.0898,109.219 70.8984,100.078 63.0508,88.7891 55.2305,77.4609 49.4102,67.8516 45.5898,59.8398 l -4.7695,-3.2382 c -3.9805,-2.7305 -6.6797,-4.8399 -8.1211,-6.211 -0.5508,2.0703 -1.7578,5.4297 -3.6797,10.0391 l -1.789,4.1406 c -2.6211,6.0899 -5,10.5899 -7.2305,13.4805 -2.2305,2.9297 -4.7305,4.8008 -7.5,5.6992 4.6914,5.0391 8.9805,7.5781 12.8906,7.5781 3.2813,0 6.9492,-4.5664 11.0196,-13.6367 l 1.9882,-4.5703 c 7.6524,12.8594 19.5313,27.2309 35.6211,43.0899 l 4.4219,4.18 12.2188,9.687 c 3.0898,2.113 5.9804,3.863 8.7187,5.352 l 2.3831,-3.36 c -2.3128,-1.718 -4.8518,-3.789 -7.6214,-6.172 l -9.4922,-9.687" /><path
         id="path44"
         style="fill:none;stroke:#ffffff;stroke-width:4;stroke-linecap:butt;stroke-linejoin:miter;stroke-miterlimit:4;stroke-dasharray:none;stroke-opacity:1"
         d="m 110.551,161.953 -108.64084,0" /><path
         id="path46"
         style="fill:none;stroke:#ffffff;stroke-width:4;stroke-linecap:round;stroke-linejoin:round;stroke-miterlimit:4;stroke-dasharray:none;stroke-opacity:1"
         d="m 377.578,98.4023 -266.488,0" /><path
         id="path48"
         style="fill:none;stroke:#ffffff;stroke-width:4;stroke-linecap:round;stroke-linejoin:round;stroke-miterlimit:4;stroke-dasharray:none;stroke-opacity:1"
         d="m 377.578,61.4805 -266.488,0" /><path
         id="path50"
         style="fill:none;stroke:#ffffff;stroke-width:4;stroke-linecap:round;stroke-linejoin:round;stroke-miterlimit:4;stroke-dasharray:none;stroke-opacity:1"
         d="M 409.262,105.66 379.77,60.9414" /><path
         id="path52"
         style="fill:none;stroke:#ffffff;stroke-width:4;stroke-linecap:round;stroke-linejoin:round;stroke-miterlimit:4;stroke-dasharray:none;stroke-opacity:1"
         d="m 190,59.6523 0,-33.5195" /><path
         id="path54"
         style="fill:none;stroke:#ffffff;stroke-width:4;stroke-linecap:round;stroke-linejoin:round;stroke-miterlimit:4;stroke-dasharray:none;stroke-opacity:1"
         d="m 293.09,59.6523 0,-33.5195" /><path
         id="path56"
         style="fill:none;stroke:#ffffff;stroke-width:4;stroke-linecap:round;stroke-linejoin:round;stroke-miterlimit:4;stroke-dasharray:none;stroke-opacity:1"
         d="m 243.629,96.7617 0,-33.5195" /><path
         id="path58"
         style="fill:none;stroke:#ffffff;stroke-width:4;stroke-linecap:round;stroke-linejoin:round;stroke-miterlimit:4;stroke-dasharray:none;stroke-opacity:1"
         d="m 140.551,96.7617 0,-33.5195" /><path
         id="path60"
         style="fill:none;stroke:#ffffff;stroke-width:4;stroke-linecap:round;stroke-linejoin:round;stroke-miterlimit:4;stroke-dasharray:none;stroke-opacity:1"
         d="m 346.68,96.7617 0,-33.5195" /><path
         id="path62"
         style="fill:#000000;fill-opacity:1;fill-rule:nonzero;stroke:none"
         d="M 378.012,97.6602 411.129,146.48" /><path
         id="path64"
         style="fill:none;stroke:#ffffff;stroke-width:4;stroke-linecap:butt;stroke-linejoin:miter;stroke-miterlimit:4;stroke-dasharray:none;stroke-opacity:1"
         d="M 378.012,97.6523 411.129,146.48" /><path
         id="path66"
         style="fill:none;stroke:#ffffff;stroke-width:4;stroke-linecap:round;stroke-linejoin:round;stroke-miterlimit:4;stroke-dasharray:none;stroke-opacity:1"
         d="m 393.789,77.3828 0,-39.5703" /><path
         id="path68"
         style="fill:none;stroke:#ffffff;stroke-width:4;stroke-linecap:round;stroke-linejoin:round;stroke-miterlimit:4;stroke-dasharray:none;stroke-opacity:1"
         d="m 400.859,126.91 0,-39.5702" /><path
         id="path70"
         style="fill:#ffffff;fill-opacity:1;fill-rule:nonzero;stroke:none"
         d="m 186.48,110.16 c 4.731,0 8.598,3.82 8.598,8.59 0,4.77 -3.867,8.59 -8.598,8.59 -4.761,0 -8.628,-3.82 -8.628,-8.59 0,-4.77 3.867,-8.59 8.628,-8.59" /><path
         id="path72"
         style="fill:none;stroke:#000000;stroke-width:4;stroke-linecap:butt;stroke-linejoin:miter;stroke-miterlimit:4;stroke-dasharray:none;stroke-opacity:1"
         d="m 186.48,110.152 c 4.731,0 8.598,3.828 8.598,8.598 0,4.762 -3.867,8.59 -8.598,8.59 -4.761,0 -8.628,-3.828 -8.628,-8.59 0,-4.77 3.867,-8.598 8.628,-8.598 z" /><path
         id="path74"
         style="fill:#ffffff;fill-opacity:1;fill-rule:nonzero;stroke:none"
         d="m 179.102,127.93 16.839,-16.45 47.5,48.641 -16.839,16.438 -47.5,-48.629" /><path
         id="path76"
         style="fill:none;stroke:#000000;stroke-width:4;stroke-linecap:butt;stroke-linejoin:miter;stroke-miterlimit:4;stroke-dasharray:none;stroke-opacity:1"
         d="m 179.102,127.93 16.839,-16.45 47.5,48.641 -16.839,16.442 -47.5,-48.633 z" /><path
         id="path78"
         style="fill:#ffffff;fill-opacity:1;fill-rule:nonzero;stroke:none"
         d="m 219.879,212.379 c 0,-35.539 28.949,-64.488 64.5,-64.488 35.543,0 64.492,28.949 64.492,64.488 0,35.551 -28.949,64.461 -64.492,64.461 -35.551,0 -64.5,-28.91 -64.5,-64.461 z m 9.031,0 c 0,30.59 24.879,55.473 55.469,55.473 30.582,0 55.461,-24.883 55.461,-55.473 0,-30.578 -24.879,-55.469 -55.461,-55.469 -30.59,0 -55.469,24.891 -55.469,55.469" /><path
         id="path80"
         style="fill:none;stroke:#000000;stroke-width:4;stroke-linecap:butt;stroke-linejoin:miter;stroke-miterlimit:4;stroke-dasharray:none;stroke-opacity:1"
         d="m 219.879,212.383 c 0,-35.551 28.949,-64.492 64.5,-64.492 35.543,0 64.492,28.941 64.492,64.492 0,35.547 -28.949,64.449 -64.492,64.449 -35.551,0 -64.5,-28.902 -64.5,-64.449 z m 9.031,0 c 0,30.59 24.879,55.469 55.469,55.469 30.582,0 55.461,-24.879 55.461,-55.469 0,-30.582 -24.879,-55.473 -55.461,-55.473 -30.59,0 -55.469,24.891 -55.469,55.473 z" /><path
         id="path82"
         style="fill:#ffffff;fill-opacity:1;fill-rule:nonzero;stroke:none"
         d="m 212.34,208.672 c 0,-35.582 28.91,-64.492 64.5,-64.492 35.539,0 64.449,28.91 64.449,64.492 0,35.547 -28.91,64.449 -64.449,64.449 -35.59,0 -64.5,-28.902 -64.5,-64.449 z m 9.031,0 c 0,30.59 24.879,55.469 55.469,55.469 30.582,0 55.43,-24.879 55.43,-55.469 0,-30.582 -24.848,-55.473 -55.43,-55.473 -30.59,0 -55.469,24.891 -55.469,55.473" /><path
         id="path84"
         style="fill:none;stroke:#000000;stroke-width:4;stroke-linecap:butt;stroke-linejoin:miter;stroke-miterlimit:4;stroke-dasharray:none;stroke-opacity:1"
         d="m 212.34,208.672 c 0,-35.59 28.91,-64.492 64.5,-64.492 35.539,0 64.449,28.902 64.449,64.492 0,35.551 -28.91,64.449 -64.449,64.449 -35.59,0 -64.5,-28.898 -64.5,-64.449 z m 9.031,0 c 0,30.59 24.879,55.469 55.469,55.469 30.582,0 55.43,-24.879 55.43,-55.469 0,-30.59 -24.848,-55.469 -55.43,-55.469 -30.59,0 -55.469,24.879 -55.469,55.469 z" /></g></g></svg>