<?xml version="1.0" encoding="UTF-8" standalone="no"?>
<svg
   xmlns:dc="http://purl.org/dc/elements/1.1/"
   xmlns:cc="http://creativecommons.org/ns#"
   xmlns:rdf="http://www.w3.org/1999/02/22-rdf-syntax-ns#"
   xmlns:svg="http://www.w3.org/2000/svg"
   xmlns="http://www.w3.org/2000/svg"
   viewBox="0 0 51.950001 40.299999"
   height="40.299999"
   width="51.950001"
   xml:space="preserve"
   version="1.1"
   id="svg2"><metadata
     id="metadata8"><rdf:RDF><cc:Work
         rdf:about=""><dc:format>image/svg+xml</dc:format><dc:type
           rdf:resource="http://purl.org/dc/dcmitype/StillImage" /></cc:Work></rdf:RDF></metadata><defs
     id="defs6" /><g
     transform="matrix(1.25,0,0,-1.25,0,40.3)"
     id="g10"><g
       transform="scale(0.1,0.1)"
       id="g12"><path
         id="path14"
         style="fill:#087bbb;fill-opacity:1;fill-rule:nonzero;stroke:none"
         d="m 111.496,12.9102 268.012,0 0,268.27 -268.012,0 0,-268.27 z" /><path
         id="path16"
         style="fill:none;stroke:#ffffff;stroke-width:4;stroke-linecap:butt;stroke-linejoin:miter;stroke-miterlimit:4;stroke-dasharray:none;stroke-opacity:1"
         d="m 111.496,12.9102 268.012,0 0,268.27 -268.012,0 0,-268.27 z" /><path
         id="path18"
         style="fill:#087bbb;fill-opacity:1;fill-rule:nonzero;stroke:none"
         d="m 142.832,315.828 268.023,0 -33.554,-33.887 -268.012,0 33.543,33.887" /><path
         id="path20"
         style="fill:none;stroke:#ffffff;stroke-width:4;stroke-linecap:butt;stroke-linejoin:miter;stroke-miterlimit:4;stroke-dasharray:none;stroke-opacity:1"
         d="m 142.832,315.828 268.023,0 -33.554,-33.887 -268.012,0 33.543,33.887 z" /><path
         id="path22"
         style="fill:#087bbb;fill-opacity:1;fill-rule:nonzero;stroke:none"
         d="m 412.008,55.5156 -33.555,-49.05076 0,277.21516 33.555,33.879 0,-262.0434" /><path
         id="path24"
         style="fill:none;stroke:#ffffff;stroke-width:4;stroke-linecap:butt;stroke-linejoin:miter;stroke-miterlimit:4;stroke-dasharray:none;stroke-opacity:1"
         d="m 412.008,55.5156 -33.555,-49.05076 0,277.21516 33.555,33.879 0,-262.0434 z" /><path
         id="path26"
         style="fill:#087bbb;fill-opacity:1;fill-rule:nonzero;stroke:none"
         d="m 2.84375,12.9102 108.652,0 0,268.27 -108.652,0 0,-268.27 z" /><path
         id="path28"
         style="fill:none;stroke:#ffffff;stroke-width:4;stroke-linecap:butt;stroke-linejoin:miter;stroke-miterlimit:4;stroke-dasharray:none;stroke-opacity:1"
         d="m 2.84375,12.9102 108.652,0 0,268.27 -108.652,0 0,-268.27 z" /><path
         id="path30"
         style="fill:#087bbb;fill-opacity:1;fill-rule:nonzero;stroke:none"
         d="m 38.3516,315.828 108.6524,0 -33.559,-33.887 -108.64812,0 33.55472,33.887" /><path
         id="path32"
         style="fill:none;stroke:#ffffff;stroke-width:4;stroke-linecap:butt;stroke-linejoin:miter;stroke-miterlimit:4;stroke-dasharray:none;stroke-opacity:1"
         d="m 38.3516,315.828 108.6524,0 -33.559,-33.887 -108.64812,0 33.55472,33.887 z" /><path
         id="path34"
         style="fill:#000000;fill-opacity:1;fill-rule:nonzero;stroke:none"
         d="m 111.496,281.18 0,-268.2698" /><path
         id="path36"
         style="fill:none;stroke:#ffffff;stroke-width:4;stroke-linecap:butt;stroke-linejoin:miter;stroke-miterlimit:4;stroke-dasharray:none;stroke-opacity:1"
         d="m 111.496,281.18 0,-268.2698" /><path
         id="path38"
         style="fill:#b2b2b2;fill-opacity:1;fill-rule:nonzero;stroke:none"
         d="m 113.129,281.941 33.555,33.887" /><path
         id="path40"
         style="fill:none;stroke:#ffffff;stroke-width:4;stroke-linecap:butt;stroke-linejoin:miter;stroke-miterlimit:4;stroke-dasharray:none;stroke-opacity:1"
         d="m 113.129,281.941 33.555,33.887" /><path
         id="path42"
         style="fill:#ffffff;fill-opacity:1;fill-rule:nonzero;stroke:none"
         d="m 53.7695,206.926 -0.9765,-1.36 c -6.7305,-10.175 -12.2617,-15.261 -16.5703,-15.261 -4.9727,0 -9.8399,3.961 -14.6407,11.851 0.6446,-0.027 1.125,-0.066 1.4219,-0.066 5.6602,0 11.9609,4.383 18.9102,13.144 l 1.75,2.246 -2.2735,2.469 c -6.4258,6.75 -9.6328,12.473 -9.6328,17.199 0,3.836 3.5117,8.387 10.5469,13.622 0.9883,-6.715 3.957,-13.243 8.8789,-19.618 l 1.9375,-2.472 1.5586,2.023 c 7.1992,9.27 13.7383,13.895 19.6133,13.895 4.5781,0 8.0508,-3.512 10.4297,-10.528 -0.6993,0.071 -1.211,0.129 -1.5547,0.129 -2.0313,0 -4.9258,-1.386 -8.6797,-4.179 -3.75,-2.786 -6.9297,-5.926 -9.5117,-9.422 l -2.0118,-2.649 1.9375,-1.828 c 6.9571,-6.726 14.1797,-10.098 21.6993,-10.098 -4.0196,-8.164 -8.2266,-12.246 -12.625,-12.246 -3.9766,0 -9.7188,3.469 -17.2266,10.442 l -2.9805,2.707" /><path
         id="path44"
         style="fill:#ffffff;fill-opacity:1;fill-rule:nonzero;stroke:none"
         d="M 84.6523,106.199 C 78.0898,99.2109 70.8906,90.0586 63.0508,78.7695 55.2188,67.4727 49.4023,57.832 45.6055,49.8438 l -4.7969,-3.25 c -3.9609,-2.7461 -6.6719,-4.8282 -8.0977,-6.1954 -0.5586,2.0743 -1.7812,5.4102 -3.6953,10.0313 l -1.7968,4.1406 c -2.5977,6.0938 -5,10.5742 -7.2227,13.4766 -2.2266,2.9101 -4.7227,4.7851 -7.4844,5.7031 4.6602,5.0195 8.9571,7.5664 12.8946,7.5664 3.2773,0 6.9414,-4.5508 11.0117,-13.6328 l 2,-4.5703 c 7.6406,12.8555 19.5117,27.2187 35.6172,43.0857 l 4.4023,4.192 12.2227,9.699 c 3.0742,2.078 5.9765,3.836 8.7031,5.32 l 2.3947,-3.351 c -2.301,-1.7 -4.8439,-3.766 -7.6252,-6.18 l -9.4805,-9.68" /><path
         id="path46"
         style="fill:#087bbb;fill-opacity:1;fill-rule:nonzero;stroke:none"
         d="m 110.566,151.941 -108.65194,0" /><path
         id="path48"
         style="fill:none;stroke:#ffffff;stroke-width:4;stroke-linecap:butt;stroke-linejoin:miter;stroke-miterlimit:4;stroke-dasharray:none;stroke-opacity:1"
         d="m 110.566,151.941 -108.65194,0" /><path
         id="path50"
         style="fill:none;stroke:#ffffff;stroke-width:4;stroke-linecap:round;stroke-linejoin:round;stroke-miterlimit:4;stroke-dasharray:none;stroke-opacity:1"
         d="m 377.594,88.3906 -266.508,0" /><path
         id="path52"
         style="fill:none;stroke:#ffffff;stroke-width:4;stroke-linecap:round;stroke-linejoin:round;stroke-miterlimit:4;stroke-dasharray:none;stroke-opacity:1"
         d="m 377.594,51.4844 -266.508,0" /><path
         id="path54"
         style="fill:none;stroke:#ffffff;stroke-width:4;stroke-linecap:round;stroke-linejoin:round;stroke-miterlimit:4;stroke-dasharray:none;stroke-opacity:1"
         d="M 409.273,95.6758 379.77,50.918" /><path
         id="path56"
         style="fill:none;stroke:#ffffff;stroke-width:4;stroke-linecap:round;stroke-linejoin:round;stroke-miterlimit:4;stroke-dasharray:none;stroke-opacity:1"
         d="m 190.016,49.6289 0,-33.5156" /><path
         id="path58"
         style="fill:none;stroke:#ffffff;stroke-width:4;stroke-linecap:round;stroke-linejoin:round;stroke-miterlimit:4;stroke-dasharray:none;stroke-opacity:1"
         d="m 293.082,49.6289 0,-33.5156" /><path
         id="path60"
         style="fill:none;stroke:#ffffff;stroke-width:4;stroke-linecap:round;stroke-linejoin:round;stroke-miterlimit:4;stroke-dasharray:none;stroke-opacity:1"
         d="m 243.617,86.7578 0,-33.5156" /><path
         id="path62"
         style="fill:none;stroke:#ffffff;stroke-width:4;stroke-linecap:round;stroke-linejoin:round;stroke-miterlimit:4;stroke-dasharray:none;stroke-opacity:1"
         d="m 140.566,86.7578 0,-33.5156" /><path
         id="path64"
         style="fill:none;stroke:#ffffff;stroke-width:4;stroke-linecap:round;stroke-linejoin:round;stroke-miterlimit:4;stroke-dasharray:none;stroke-opacity:1"
         d="m 346.684,86.7578 0,-33.5156" /><path
         id="path66"
         style="fill:#000000;fill-opacity:1;fill-rule:nonzero;stroke:none"
         d="m 378.004,87.6563 33.144,48.8167" /><path
         id="path68"
         style="fill:none;stroke:#ffffff;stroke-width:4;stroke-linecap:butt;stroke-linejoin:miter;stroke-miterlimit:4;stroke-dasharray:none;stroke-opacity:1"
         d="m 378.004,87.6563 33.144,48.8167" /><path
         id="path70"
         style="fill:none;stroke:#ffffff;stroke-width:4;stroke-linecap:round;stroke-linejoin:round;stroke-miterlimit:4;stroke-dasharray:none;stroke-opacity:1"
         d="m 393.793,67.3633 0,-39.5703" /><path
         id="path72"
         style="fill:none;stroke:#ffffff;stroke-width:4;stroke-linecap:round;stroke-linejoin:round;stroke-miterlimit:4;stroke-dasharray:none;stroke-opacity:1"
         d="m 400.855,116.902 0,-39.5661" /><path
         id="path74"
         style="fill:#ffffff;fill-opacity:1;fill-rule:nonzero;stroke:none"
         d="m 186.477,100.137 c 4.746,0 8.601,3.847 8.601,8.601 0,4.758 -3.855,8.606 -8.601,8.606 -4.762,0 -8.618,-3.848 -8.618,-8.606 0,-4.754 3.856,-8.601 8.618,-8.601" /><path
         id="path76"
         style="fill:none;stroke:#000000;stroke-width:4;stroke-linecap:butt;stroke-linejoin:miter;stroke-miterlimit:4;stroke-dasharray:none;stroke-opacity:1"
         d="m 186.477,100.137 c 4.746,0 8.601,3.847 8.601,8.601 0,4.758 -3.855,8.606 -8.601,8.606 -4.762,0 -8.618,-3.848 -8.618,-8.606 0,-4.754 3.856,-8.601 8.618,-8.601 z" /><path
         id="path78"
         style="fill:#ffffff;fill-opacity:1;fill-rule:nonzero;stroke:none"
         d="m 179.105,117.922 16.817,-16.43 47.512,48.637 -16.817,16.414 -47.512,-48.621" /><path
         id="path80"
         style="fill:none;stroke:#000000;stroke-width:4;stroke-linecap:butt;stroke-linejoin:miter;stroke-miterlimit:4;stroke-dasharray:none;stroke-opacity:1"
         d="m 179.105,117.922 16.817,-16.43 47.512,48.637 -16.817,16.414 -47.512,-48.621 z" /><path
         id="path82"
         style="fill:#ffffff;fill-opacity:1;fill-rule:nonzero;stroke:none"
         d="m 219.895,202.371 c 0,-35.555 28.929,-64.473 64.476,-64.473 35.567,0 64.492,28.918 64.492,64.473 0,35.551 -28.925,64.477 -64.492,64.477 -35.547,0 -64.476,-28.926 -64.476,-64.477 z m 9.015,0 c 0,30.59 24.895,55.473 55.461,55.473 30.586,0 55.469,-24.883 55.469,-55.473 0,-30.574 -24.883,-55.445 -55.469,-55.445 -30.566,0 -55.461,24.871 -55.461,55.445" /><path
         id="path84"
         style="fill:none;stroke:#000000;stroke-width:4;stroke-linecap:butt;stroke-linejoin:miter;stroke-miterlimit:4;stroke-dasharray:none;stroke-opacity:1"
         d="m 219.895,202.371 c 0,-35.555 28.929,-64.473 64.476,-64.473 35.567,0 64.492,28.918 64.492,64.473 0,35.551 -28.925,64.477 -64.492,64.477 -35.547,0 -64.476,-28.926 -64.476,-64.477 z m 9.015,0 c 0,30.59 24.895,55.473 55.461,55.473 30.586,0 55.469,-24.883 55.469,-55.473 0,-30.574 -24.883,-55.445 -55.469,-55.445 -30.566,0 -55.461,24.871 -55.461,55.445 z" /><path
         id="path86"
         style="fill:#ffffff;fill-opacity:1;fill-rule:nonzero;stroke:none"
         d="m 212.34,198.66 c 0,-35.562 28.926,-64.488 64.48,-64.488 35.559,0 64.485,28.926 64.485,64.488 0,35.551 -28.926,64.477 -64.485,64.477 -35.554,0 -64.48,-28.926 -64.48,-64.477 z m 9.023,0 c 0,30.578 24.883,55.461 55.457,55.461 30.598,0 55.461,-24.883 55.461,-55.461 0,-30.594 -24.863,-55.476 -55.461,-55.476 -30.574,0 -55.457,24.882 -55.457,55.476" /><path
         id="path88"
         style="fill:none;stroke:#000000;stroke-width:4;stroke-linecap:butt;stroke-linejoin:miter;stroke-miterlimit:4;stroke-dasharray:none;stroke-opacity:1"
         d="m 212.34,198.66 c 0,-35.562 28.926,-64.488 64.48,-64.488 35.559,0 64.485,28.926 64.485,64.488 0,35.551 -28.926,64.477 -64.485,64.477 -35.554,0 -64.48,-28.926 -64.48,-64.477 z m 9.023,0 c 0,30.578 24.883,55.461 55.457,55.461 30.598,0 55.461,-24.883 55.461,-55.461 0,-30.594 -24.863,-55.476 -55.461,-55.476 -30.574,0 -55.457,24.882 -55.457,55.476 z" /></g></g></svg>