<?xml version="1.0" encoding="UTF-8" standalone="no"?>
<svg
   xmlns:dc="http://purl.org/dc/elements/1.1/"
   xmlns:cc="http://creativecommons.org/ns#"
   xmlns:rdf="http://www.w3.org/1999/02/22-rdf-syntax-ns#"
   xmlns:svg="http://www.w3.org/2000/svg"
   xmlns="http://www.w3.org/2000/svg"
   viewBox="0 0 54.412498 39.487499"
   height="39.487499"
   width="54.412498"
   xml:space="preserve"
   version="1.1"
   id="svg2"><metadata
     id="metadata8"><rdf:RDF><cc:Work
         rdf:about=""><dc:format>image/svg+xml</dc:format><dc:type
           rdf:resource="http://purl.org/dc/dcmitype/StillImage" /></cc:Work></rdf:RDF></metadata><defs
     id="defs6" /><g
     transform="matrix(1.25,0,0,-1.25,0,39.4875)"
     id="g10"><g
       transform="scale(0.1,0.1)"
       id="g12"><path
         id="path14"
         style="fill:#2c6aa2;fill-opacity:1;fill-rule:nonzero;stroke:none"
         d="m 5.65625,6.47656 381.484,0 0,250.633 -381.484,0 0,-250.633 z" /><path
         id="path16"
         style="fill:none;stroke:#ffffff;stroke-width:4;stroke-linecap:butt;stroke-linejoin:miter;stroke-miterlimit:4;stroke-dasharray:none;stroke-opacity:1"
         d="m 5.65625,6.47656 381.484,0 0,250.633 -381.484,0 0,-250.633 z" /><path
         id="path18"
         style="fill:#2c6aa2;fill-opacity:1;fill-rule:nonzero;stroke:none"
         d="m 431.023,70.6641 -43.882,-64.18754 0,250.63244 43.882,53.215 0,-239.6599" /><path
         id="path20"
         style="fill:none;stroke:#ffffff;stroke-width:4;stroke-linecap:butt;stroke-linejoin:miter;stroke-miterlimit:4;stroke-dasharray:none;stroke-opacity:1"
         d="m 431.023,70.6641 -43.882,-64.18754 0,250.63244 43.882,53.215 0,-239.6599 z" /><path
         id="path22"
         style="fill:#2c6aa2;fill-opacity:1;fill-rule:nonzero;stroke:none"
         d="m 71.4844,310.324 359.5386,0 -43.882,-53.215 -381.48475,0 65.82815,53.215" /><path
         id="path24"
         style="fill:none;stroke:#ffffff;stroke-width:4;stroke-linecap:butt;stroke-linejoin:miter;stroke-miterlimit:4;stroke-dasharray:none;stroke-opacity:1"
         d="m 71.4844,310.324 359.5386,0 -43.882,-53.215 -381.48475,0 65.82815,53.215 z" /><path
         id="path26"
         style="fill:#ffffff;fill-opacity:1;fill-rule:nonzero;stroke:none"
         d="m 72.4609,185.137 -0.0312,-16.016 -37.2656,21.145 37.2968,21.113 0,-16.035 -0.3125,0.742 64.3826,0.019 0.024,15.973 37.3,-21.129 -37.324,-21.094 -0.008,16.012 -64.3746,-0.015 0.3125,-0.715" /><path
         id="path28"
         style="fill:#ffffff;fill-opacity:1;fill-rule:nonzero;stroke:none"
         d="M 72.4609,68.9063 72.4297,52.8906 35.1641,74.043 l 37.2968,21.1054 0,-16.0273 -0.3125,0.7344 64.3826,0.0156 0.024,15.9805 37.3,-21.125 -37.324,-21.0938 -0.008,16.0156 -64.3746,-0.0195 0.3125,-0.7226" /><path
         id="path30"
         style="fill:#ffffff;fill-opacity:1;fill-rule:nonzero;stroke:none"
         d="m 72.4609,125.723 -0.0312,-16.016 -37.2656,21.145 37.2968,21.113 0,-16.035 -0.3125,0.742 44.8716,0.019 0.019,15.977 37.309,-21.133 -37.328,-21.094 -0.008,16.012 -44.8636,-0.015 0.3125,-0.715" /><path
         id="path32"
         style="fill:#ffffff;fill-opacity:1;fill-rule:nonzero;stroke:none"
         d="m 361.836,85.2734 c -6.328,0.0508 -11.316,18.2226 -11.121,40.6056 0.176,22.375 5.457,40.461 11.805,40.43 l -47.461,0.382 c -6.348,0.055 -11.602,-18.031 -11.797,-40.429 -0.176,-22.375 4.785,-40.5472 11.133,-40.6175 l 47.441,-0.3711" /><path
         id="path34"
         style="fill:#2c6aa2;fill-opacity:1;fill-rule:nonzero;stroke:none"
         d="m 350.715,125.859 c -0.18,-20.898 4.812,-37.8785 11.16,-37.9293 6.328,-0.0586 11.602,16.8553 11.777,37.7343 0.176,20.938 -4.824,37.922 -11.164,37.969 -6.343,0.058 -11.597,-16.836 -11.773,-37.774" /><path
         id="path36"
         style="fill:none;stroke:#ffffff;stroke-width:4;stroke-linecap:butt;stroke-linejoin:miter;stroke-miterlimit:4;stroke-dasharray:none;stroke-opacity:1"
         d="m 350.715,125.859 c -0.18,-20.898 4.812,-37.8785 11.16,-37.9293 6.328,-0.0586 11.602,16.8553 11.777,37.7343 0.176,20.938 -4.824,37.922 -11.164,37.969 -6.343,0.058 -11.597,-16.836 -11.773,-37.774 z" /><path
         id="path38"
         style="fill:#ffffff;fill-opacity:1;fill-rule:nonzero;stroke:none"
         d="m 325.398,128.828 c -0.371,-44.3241 -36.582,-79.9608 -80.933,-79.6092 -44.301,0.3906 -79.926,36.6015 -79.555,80.9292 0.356,44.317 36.574,79.95 80.891,79.598 44.355,-0.391 79.98,-36.621 79.597,-80.918" /><path
         id="path40"
         style="fill:#2c6aa2;fill-opacity:1;fill-rule:nonzero;stroke:none"
         d="m 284.316,127.688 c -0.175,-21.27 -17.578,-38.3911 -38.847,-38.2153 -21.27,0.1757 -38.367,17.5783 -38.196,38.8473 0.176,21.27 17.54,38.391 38.832,38.215 21.29,-0.156 38.387,-17.558 38.211,-38.847" /></g></g></svg>