<?xml version="1.0" encoding="UTF-8" standalone="no"?>
<svg
   xmlns:dc="http://purl.org/dc/elements/1.1/"
   xmlns:cc="http://creativecommons.org/ns#"
   xmlns:rdf="http://www.w3.org/1999/02/22-rdf-syntax-ns#"
   xmlns:svg="http://www.w3.org/2000/svg"
   xmlns="http://www.w3.org/2000/svg"
   viewBox="0 0 55 41.25"
   height="41.25"
   width="55"
   xml:space="preserve"
   version="1.1"
   id="svg2"><metadata
     id="metadata8"><rdf:RDF><cc:Work
         rdf:about=""><dc:format>image/svg+xml</dc:format><dc:type
           rdf:resource="http://purl.org/dc/dcmitype/StillImage" /></cc:Work></rdf:RDF></metadata><defs
     id="defs6" /><g
     transform="matrix(1.25,0,0,-1.25,0,41.25)"
     id="g10"><g
       transform="scale(0.1,0.1)"
       id="g12"><path
         id="path14"
         style="fill:#2c6aa2;fill-opacity:1;fill-rule:nonzero;stroke:none"
         d="m 5.66016,16.4805 381.48,0 0,250.621 -381.48,0 0,-250.621 z" /><path
         id="path16"
         style="fill:none;stroke:#ffffff;stroke-width:4;stroke-linecap:butt;stroke-linejoin:miter;stroke-miterlimit:4;stroke-dasharray:none;stroke-opacity:1"
         d="m 5.66016,16.4766 381.48,0 0,250.617 -381.48,0 0,-250.617 z" /><path
         id="path18"
         style="fill:#2c6aa2;fill-opacity:1;fill-rule:nonzero;stroke:none"
         d="m 431.02,80.6484 -43.872,-64.1796 0,250.6332 43.872,53.199 0,-239.6526" /><path
         id="path20"
         style="fill:none;stroke:#ffffff;stroke-width:4;stroke-linecap:butt;stroke-linejoin:miter;stroke-miterlimit:4;stroke-dasharray:none;stroke-opacity:1"
         d="m 431.02,80.6563 -43.872,-64.1797 0,250.6174 43.872,53.203 0,-239.6407 z" /><path
         id="path22"
         style="fill:#2c6aa2;fill-opacity:1;fill-rule:nonzero;stroke:none"
         d="m 71.4805,320.301 359.5395,0 -43.872,-53.199 -381.48784,0 65.82034,53.199" /><path
         id="path24"
         style="fill:none;stroke:#ffffff;stroke-width:4;stroke-linecap:butt;stroke-linejoin:miter;stroke-miterlimit:4;stroke-dasharray:none;stroke-opacity:1"
         d="m 71.4805,320.297 359.5395,0 -43.872,-53.203 -381.48784,0 65.82034,53.203 z" /><path
         id="path26"
         style="fill:#ffffff;fill-opacity:1;fill-rule:nonzero;stroke:none"
         d="m 72.4609,195.141 -0.039,-16.012 -37.2617,21.133 37.3007,21.09 0,-16.012 -0.3125,0.738 64.3716,0 0.039,15.981 37.312,-21.137 -37.351,-21.094 0,16.024 -64.3716,0 0.3125,-0.711" /><path
         id="path28"
         style="fill:#ffffff;fill-opacity:1;fill-rule:nonzero;stroke:none"
         d="m 72.4609,78.8906 -0.039,-16.0117 -37.2617,21.1719 37.3007,21.0902 0,-16.0121 -0.3125,0.6992 64.3716,0.043 0.039,15.9809 37.312,-21.1411 -37.351,-21.0898 0,16.0195 -64.3716,0 0.3125,-0.75" /><path
         id="path30"
         style="fill:#ffffff;fill-opacity:1;fill-rule:nonzero;stroke:none"
         d="m 72.4609,135.73 -0.039,-16.019 -37.2617,21.141 37.3007,21.089 0,-16.019 -0.3125,0.75 44.8826,0 0,15.969 37.309,-21.129 -37.309,-21.09 -0.043,16.008 -44.8396,0 0.3125,-0.7" /><path
         id="path32"
         style="fill:#ffffff;fill-opacity:1;fill-rule:nonzero;stroke:none"
         d="m 361.84,95.2617 c -6.328,0.0391 -11.328,18.2383 -11.141,40.6293 0.199,22.339 5.473,40.429 11.801,40.429 l -47.461,0.352 c -6.328,0.078 -11.598,-18.012 -11.801,-40.434 -0.148,-22.347 4.813,-40.5466 11.141,-40.5896 l 47.461,-0.3867" /><path
         id="path34"
         style="fill:#2c6aa2;fill-opacity:1;fill-rule:nonzero;stroke:none"
         d="m 350.699,135.852 c -0.148,-20.903 4.813,-37.8911 11.18,-37.9301 6.32,-0.043 11.601,16.8671 11.75,37.7261 0.199,20.942 -4.801,37.93 -11.129,37.973 -6.371,0.078 -11.602,-16.84 -11.801,-37.769" /><path
         id="path36"
         style="fill:none;stroke:#ffffff;stroke-width:4;stroke-linecap:butt;stroke-linejoin:miter;stroke-miterlimit:4;stroke-dasharray:none;stroke-opacity:1"
         d="m 350.699,135.844 c -0.148,-20.899 4.813,-37.887 11.18,-37.9299 6.32,-0.0391 11.601,16.8829 11.75,37.7419 0.199,20.93 -4.801,37.93 -11.129,37.961 -6.371,0.078 -11.602,-16.832 -11.801,-37.773 z" /><path
         id="path38"
         style="fill:#ffffff;fill-opacity:1;fill-rule:nonzero;stroke:none"
         d="m 325.391,138.82 c -0.352,-44.3395 -36.563,-79.9684 -80.942,-79.6091 -44.289,0.3907 -79.918,36.5977 -79.527,80.9301 0.348,44.3 36.558,79.961 80.859,79.609 44.379,-0.391 80,-36.641 79.61,-80.93" /><path
         id="path40"
         style="fill:#2c6aa2;fill-opacity:1;fill-rule:nonzero;stroke:none"
         d="m 284.301,137.68 c -0.16,-21.289 -17.582,-38.3987 -38.832,-38.1995 -21.289,0.1601 -38.36,17.5785 -38.199,38.8285 0.191,21.293 17.531,38.402 38.82,38.203 21.289,-0.16 38.398,-17.543 38.211,-38.832" /></g></g></svg>