<?xml version="1.0" encoding="UTF-8" standalone="no"?>
<svg
   xmlns:dc="http://purl.org/dc/elements/1.1/"
   xmlns:cc="http://creativecommons.org/ns#"
   xmlns:rdf="http://www.w3.org/1999/02/22-rdf-syntax-ns#"
   xmlns:svg="http://www.w3.org/2000/svg"
   xmlns="http://www.w3.org/2000/svg"
   viewBox="0 0 46.487499 31.475"
   height="31.475"
   width="46.487499"
   xml:space="preserve"
   version="1.1"
   id="svg2"><metadata
     id="metadata8"><rdf:RDF><cc:Work
         rdf:about=""><dc:format>image/svg+xml</dc:format><dc:type
           rdf:resource="http://purl.org/dc/dcmitype/StillImage" /></cc:Work></rdf:RDF></metadata><defs
     id="defs6" /><g
     transform="matrix(1.25,0,0,-1.25,0,31.475)"
     id="g10"><g
       transform="scale(0.1,0.1)"
       id="g12"><path
         id="path14"
         style="fill:#2c6aa2;fill-opacity:1;fill-rule:nonzero;stroke:none"
         d="m 369.855,178.289 c 0,-39.5 -82.343,-71.523 -183.925,-71.523 C 84.3477,106.766 2,138.789 2,178.289 L 2,73.5234 c 0,-39.5 82.3477,-71.51949 183.93,-71.51949 101.582,0 183.925,32.01949 183.925,71.51949 l 0,104.7656" /><path
         id="path16"
         style="fill:none;stroke:#ffffff;stroke-width:4;stroke-linecap:butt;stroke-linejoin:miter;stroke-miterlimit:4;stroke-dasharray:none;stroke-opacity:1"
         d="m 369.855,178.289 c 0,-39.5 -82.343,-71.523 -183.925,-71.523 C 84.3477,106.766 2,138.789 2,178.289 L 2,73.5234 c 0,-39.5 82.3477,-71.51949 183.93,-71.51949 101.582,0 183.925,32.01949 183.925,71.51949 l 0,104.7656 z" /><path
         id="path18"
         style="fill:#2c6aa2;fill-opacity:1;fill-rule:nonzero;stroke:none"
         d="m 185.93,106.766 c 101.582,0 183.925,32.023 183.925,71.523 0,39.512 -82.343,71.524 -183.925,71.524 C 84.3477,249.813 2,217.801 2,178.289 c 0,-39.5 82.3477,-71.523 183.93,-71.523" /><path
         id="path20"
         style="fill:none;stroke:#ffffff;stroke-width:4;stroke-linecap:butt;stroke-linejoin:miter;stroke-miterlimit:4;stroke-dasharray:none;stroke-opacity:1"
         d="m 185.93,106.766 c 101.582,0 183.925,32.023 183.925,71.523 0,39.512 -82.343,71.524 -183.925,71.524 C 84.3477,249.813 2,217.801 2,178.289 c 0,-39.5 82.3477,-71.523 183.93,-71.523 z" /><path
         id="path22"
         style="fill:#ffffff;fill-opacity:1;fill-rule:nonzero;stroke:none"
         d="m 143.926,206.258 15.183,-22.781 -57.421,-13.274 12.55,10.449 -88.7497,15.168 22.2656,16.688 85.6371,-14.5 10.535,8.25" /><path
         id="path24"
         style="fill:#ffffff;fill-opacity:1;fill-rule:nonzero;stroke:none"
         d="m 224.727,151.016 -10.364,23.484 51.797,10.352 -8.98,-8.047 86.328,-14.746 -20.715,-16.571 -85.813,16.114 -12.253,-10.586" /><path
         id="path26"
         style="fill:#ffffff;fill-opacity:1;fill-rule:nonzero;stroke:none"
         d="m 196.406,218.699 58.02,15.879 0.679,-24.863 -14.5,2.765 -28.308,-23.488 -27.024,3.946 29.231,22.968 -18.098,2.793" /><path
         id="path28"
         style="fill:#ffffff;fill-opacity:1;fill-rule:nonzero;stroke:none"
         d="m 171.543,129.598 -55.242,-10.352 -2.071,25.551 15.875,-3.449 30.415,25.965 26.914,-4.551 -32.461,-28.321 16.57,-4.843" /><path
         id="path30"
         style="fill:#ffffff;fill-opacity:1;fill-rule:nonzero;stroke:none"
         d="m 115.828,87.6289 -0.012,-8.8984 -20.7105,11.7461 20.7185,11.7304 0.012,-8.9062 -0.188,0.4101 35.778,0.0079 0.012,8.8792 20.718,-11.7386 -20.73,-11.7188 -0.012,8.8946 -35.762,-0.0079 0.176,-0.3984" /><path
         id="path32"
         style="fill:#ffffff;fill-opacity:1;fill-rule:nonzero;stroke:none"
         d="m 115.828,23.0547 -0.012,-8.8945 -20.7105,11.7461 20.7185,11.7304 0.012,-8.9062 -0.188,0.4101 35.778,0.0078 0.012,8.8789 20.718,-11.7382 -20.73,-11.7188 -0.012,8.8945 -35.762,-0.0078 0.176,-0.4023" /><path
         id="path34"
         style="fill:#ffffff;fill-opacity:1;fill-rule:nonzero;stroke:none"
         d="m 115.828,54.6172 -0.012,-8.8945 -20.7105,11.7461 20.7185,11.7304 0.012,-8.9062 -0.188,0.4101 24.938,0.0078 0.012,8.8789 20.718,-11.7382 -20.73,-11.7188 -0.012,8.8945 -24.922,-0.0078 0.176,-0.4023" /><path
         id="path36"
         style="fill:#ffffff;fill-opacity:1;fill-rule:nonzero;stroke:none"
         d="m 276.594,32.1484 c -3.52,0.0274 -6.289,10.125 -6.184,22.5586 0.098,12.4297 3.035,22.4805 6.563,22.461 l -26.368,0.2148 c -3.527,0.0274 -6.445,-10.0195 -6.55,-22.4609 -0.102,-12.4336 2.656,-22.5313 6.179,-22.5703 l 26.36,-0.2032" /><path
         id="path38"
         style="fill:#2c6aa2;fill-opacity:1;fill-rule:nonzero;stroke:none"
         d="m 270.41,54.6953 c -0.097,-11.6094 2.676,-21.043 6.199,-21.0742 3.52,-0.0273 6.45,9.3672 6.543,20.9687 0.102,11.629 -2.672,21.0625 -6.199,21.0938 -3.523,0.0273 -6.445,-9.3555 -6.543,-20.9883" /><path
         id="path40"
         style="fill:none;stroke:#ffffff;stroke-width:4;stroke-linecap:butt;stroke-linejoin:miter;stroke-miterlimit:4;stroke-dasharray:none;stroke-opacity:1"
         d="m 270.41,54.6953 c -0.097,-11.6094 2.676,-21.043 6.199,-21.0742 3.52,-0.0273 6.45,9.3672 6.543,20.9687 0.102,11.629 -2.672,21.0625 -6.199,21.0938 -3.523,0.0273 -6.445,-9.3555 -6.543,-20.9883 z" /><path
         id="path42"
         style="fill:#ffffff;fill-opacity:1;fill-rule:nonzero;stroke:none"
         d="m 256.348,56.3477 c -0.203,-24.6289 -20.325,-44.4258 -44.961,-44.2305 -24.61,0.2187 -44.407,20.332 -44.199,44.9609 0.195,24.6211 20.324,44.4139 44.941,44.2189 24.641,-0.211 44.434,-20.34 44.219,-44.9493" /><path
         id="path44"
         style="fill:#2c6aa2;fill-opacity:1;fill-rule:nonzero;stroke:none"
         d="m 233.523,55.7109 c -0.093,-11.8164 -9.761,-21.3281 -21.582,-21.2304 -11.812,0.0976 -21.316,9.7656 -21.218,21.582 0.097,11.8164 9.746,21.3281 21.574,21.2344 11.824,-0.0899 21.324,-9.7578 21.226,-21.586" /></g></g></svg>