<?xml version="1.0" encoding="UTF-8" standalone="no"?>
<svg
   xmlns:dc="http://purl.org/dc/elements/1.1/"
   xmlns:cc="http://creativecommons.org/ns#"
   xmlns:rdf="http://www.w3.org/1999/02/22-rdf-syntax-ns#"
   xmlns:svg="http://www.w3.org/2000/svg"
   xmlns="http://www.w3.org/2000/svg"
   viewBox="0 0 47.5 33.75"
   height="33.75"
   width="47.5"
   xml:space="preserve"
   version="1.1"
   id="svg2"><metadata
     id="metadata8"><rdf:RDF><cc:Work
         rdf:about=""><dc:format>image/svg+xml</dc:format><dc:type
           rdf:resource="http://purl.org/dc/dcmitype/StillImage" /></cc:Work></rdf:RDF></metadata><defs
     id="defs6" /><g
     transform="matrix(1.25,0,0,-1.25,0,33.75)"
     id="g10"><g
       transform="scale(0.1,0.1)"
       id="g12"><path
         id="path14"
         style="fill:#2c6aa2;fill-opacity:1;fill-rule:nonzero;stroke:none"
         d="m 369.84,188.289 c 0,-39.488 -82.34,-71.519 -183.899,-71.519 -101.6012,0 -183.95272,32.031 -183.95272,71.519 l 0,-104.7577 C 1.98828,44.0391 84.3398,12 185.941,12 287.5,12 369.84,44.0391 369.84,83.5313 l 0,104.7577" /><path
         id="path16"
         style="fill:none;stroke:#ffffff;stroke-width:4;stroke-linecap:butt;stroke-linejoin:miter;stroke-miterlimit:4;stroke-dasharray:none;stroke-opacity:1"
         d="m 369.84,188.289 c 0,-39.488 -82.34,-71.519 -183.899,-71.519 -101.6012,0 -183.95272,32.031 -183.95272,71.519 l 0,-104.7617 c 0,-39.4882 82.35152,-71.5195 183.95272,-71.5195 101.559,0 183.899,32.0313 183.899,71.5195 l 0,104.7617 z" /><path
         id="path18"
         style="fill:#2c6aa2;fill-opacity:1;fill-rule:nonzero;stroke:none"
         d="m 185.941,116.77 c 101.559,0 183.899,32.031 183.899,71.519 0,39.5 -82.34,71.531 -183.899,71.531 -101.6012,0 -183.95272,-32.031 -183.95272,-71.531 0,-39.488 82.35152,-71.519 183.95272,-71.519" /><path
         id="path20"
         style="fill:none;stroke:#ffffff;stroke-width:4;stroke-linecap:butt;stroke-linejoin:miter;stroke-miterlimit:4;stroke-dasharray:none;stroke-opacity:1"
         d="m 185.941,116.77 c 101.559,0 183.899,32.031 183.899,71.519 0,39.5 -82.34,71.531 -183.899,71.531 -101.6012,0 -183.95272,-32.031 -183.95272,-71.531 0,-39.488 82.35152,-71.519 183.95272,-71.519 z" /><path
         id="path22"
         style="fill:#ffffff;fill-opacity:1;fill-rule:nonzero;stroke:none"
         d="m 143.949,216.262 15.153,-22.774 -57.422,-13.277 12.539,10.43 -88.7073,15.187 22.2188,16.684 85.6675,-14.492 10.551,8.242" /><path
         id="path24"
         style="fill:#ffffff;fill-opacity:1;fill-rule:nonzero;stroke:none"
         d="m 224.73,161.031 -10.351,23.469 51.793,10.359 -8.981,-8.05 86.329,-14.77 -20.711,-16.559 -85.821,16.129 -12.258,-10.578" /><path
         id="path26"
         style="fill:#ffffff;fill-opacity:1;fill-rule:nonzero;stroke:none"
         d="m 196.41,228.68 58,15.898 0.711,-24.879 -14.531,2.77 -28.289,-23.469 -27.031,3.941 29.218,22.969 -18.078,2.77" /><path
         id="path28"
         style="fill:#ffffff;fill-opacity:1;fill-rule:nonzero;stroke:none"
         d="m 171.559,139.578 -55.27,-10.348 -2.07,25.551 15.902,-3.441 30.391,25.98 26.91,-4.57 -32.461,-28.32 16.598,-4.852" /><path
         id="path30"
         style="fill:#ffffff;fill-opacity:1;fill-rule:nonzero;stroke:none"
         d="m 115.82,97.6289 0,-8.9101 -20.6989,11.7612 20.6989,11.719 0,-8.91 -0.16,0.43 35.789,0 0,8.871 20.699,-11.719 -20.699,-11.7226 -0.039,8.8711 -35.75,0 0.16,-0.3906" /><path
         id="path32"
         style="fill:#ffffff;fill-opacity:1;fill-rule:nonzero;stroke:none"
         d="m 115.82,33.0586 0,-8.9102 -20.6989,11.7618 20.6989,11.7187 0,-8.9101 -0.16,0.4296 35.789,0 0,8.8711 20.699,-11.7187 -20.699,-11.7227 -0.039,8.8711 -35.75,0 0.16,-0.3906" /><path
         id="path34"
         style="fill:#ffffff;fill-opacity:1;fill-rule:nonzero;stroke:none"
         d="m 115.82,64.6211 0,-8.9023 -20.6989,11.75 20.6989,11.7226 0,-8.9023 -0.16,0.4297 24.93,0 0,8.8593 20.738,-11.7187 -20.738,-11.711 0,8.8633 -24.93,0 0.16,-0.3906" /><path
         id="path36"
         style="fill:#ffffff;fill-opacity:1;fill-rule:nonzero;stroke:none"
         d="m 276.602,42.1602 c -3.512,0 -6.293,10.1211 -6.211,22.539 0.121,12.4219 3.05,22.5 6.597,22.461 l -26.398,0.2382 c -3.52,0 -6.449,-10.039 -6.531,-22.4687 -0.11,-12.4609 2.66,-22.5313 6.171,-22.5703 l 26.372,-0.1992" /><path
         id="path38"
         style="fill:#2c6aa2;fill-opacity:1;fill-rule:nonzero;stroke:none"
         d="m 270.391,64.6992 c -0.082,-11.5976 2.699,-21.0508 6.211,-21.0898 3.519,0 6.449,9.3711 6.558,20.9687 0.078,11.6407 -2.691,21.0625 -6.211,21.1016 -3.508,0.0391 -6.437,-9.3399 -6.558,-20.9805" /><path
         id="path40"
         style="fill:none;stroke:#ffffff;stroke-width:4;stroke-linecap:butt;stroke-linejoin:miter;stroke-miterlimit:4;stroke-dasharray:none;stroke-opacity:1"
         d="m 270.391,64.6992 c -0.082,-11.6015 2.699,-21.0508 6.211,-21.0898 3.519,0 6.449,9.3711 6.558,20.9687 0.078,11.6407 -2.691,21.0625 -6.211,21.1016 -3.508,0.0391 -6.437,-9.3399 -6.558,-20.9805 z" /><path
         id="path42"
         style="fill:#ffffff;fill-opacity:1;fill-rule:nonzero;stroke:none"
         d="M 256.371,66.3398 C 256.129,41.7305 236.02,21.9297 211.41,22.1211 c -24.648,0.1992 -44.422,20.3086 -44.219,44.957 0.188,24.6133 20.309,44.4219 44.957,44.2229 24.614,-0.231 44.411,-20.3518 44.223,-44.9612" /><path
         id="path44"
         style="fill:#2c6aa2;fill-opacity:1;fill-rule:nonzero;stroke:none"
         d="m 233.52,65.7188 c -0.079,-11.8399 -9.77,-21.3282 -21.571,-21.25 -11.828,0.1093 -21.328,9.7617 -21.211,21.6015 0.082,11.7891 9.731,21.3281 21.563,21.211 11.801,-0.0821 21.328,-9.7305 21.219,-21.5625" /></g></g></svg>