<?xml version="1.0" encoding="UTF-8" standalone="no"?>
<svg
   xmlns:dc="http://purl.org/dc/elements/1.1/"
   xmlns:cc="http://creativecommons.org/ns#"
   xmlns:rdf="http://www.w3.org/1999/02/22-rdf-syntax-ns#"
   xmlns:svg="http://www.w3.org/2000/svg"
   xmlns="http://www.w3.org/2000/svg"
   viewBox="0 0 45.5 30.2875"
   height="30.2875"
   width="45.5"
   xml:space="preserve"
   version="1.1"
   id="svg2"><metadata
     id="metadata8"><rdf:RDF><cc:Work
         rdf:about=""><dc:format>image/svg+xml</dc:format><dc:type
           rdf:resource="http://purl.org/dc/dcmitype/StillImage" /></cc:Work></rdf:RDF></metadata><defs
     id="defs6"><clipPath
       id="clipPath18"
       clipPathUnits="userSpaceOnUse"><path
         id="path20"
         d="M 0,2 0,242 360,242 360,2 0,2 Z" /></clipPath><clipPath
       id="clipPath44"
       clipPathUnits="userSpaceOnUse"><path
         id="path46"
         d="m 230.059,218.801 64.558,-0.25 -8.758,-28.781 -12.91,7.16 -61.738,-30.52 -26.934,15.254 61.453,29.445 -15.671,7.692" /></clipPath><clipPath
       id="clipPath54"
       clipPathUnits="userSpaceOnUse"><path
         id="path56"
         d="M 0,2 360,2 360,242 0,242 0,2 Z" /></clipPath><clipPath
       id="clipPath64"
       clipPathUnits="userSpaceOnUse"><path
         id="path66"
         d="m 205.332,132.406 -8.684,28.055 66.555,-0.481 -15.848,-7.097 63.282,-25.656 -27.805,-13.922 -62.742,25.508 -14.758,-6.407" /></clipPath><clipPath
       id="clipPath76"
       clipPathUnits="userSpaceOnUse"><path
         id="path78"
         d="M 0,2 360,2 360,242 0,242 0,2 Z" /></clipPath></defs><g
     transform="matrix(1.25,0,0,-1.25,0,30.2875)"
     id="g10"><g
       transform="scale(0.1,0.1)"
       id="g12"><g
         id="g14"><g
           clip-path="url(#clipPath18)"
           id="g16"><path
             id="path22"
             style="fill:#026c9b;fill-opacity:1;fill-rule:nonzero;stroke:none"
             d="m 182.102,100.273 c 99.468,0 180.093,31.36 180.093,70.04 0,38.683 -80.625,70.039 -180.093,70.039 C 82.6289,240.352 2,208.996 2,170.313 c 0,-38.68 80.6289,-70.04 180.102,-70.04" /><path
             id="path24"
             style="fill:none;stroke:#ffffff;stroke-width:4;stroke-linecap:butt;stroke-linejoin:miter;stroke-miterlimit:4;stroke-dasharray:none;stroke-opacity:1"
             d="m 182.102,100.273 c 99.468,0 180.093,31.36 180.093,70.04 0,38.683 -80.625,70.039 -180.093,70.039 C 82.6289,240.352 2,208.996 2,170.313 c 0,-38.68 80.6289,-70.04 180.102,-70.04 z" /><path
             id="path26"
             style="fill:#026c9b;fill-opacity:1;fill-rule:nonzero;stroke:none"
             d="m 358.113,184.902 c -54.05,15.45 -70.23,-15.375 -101.636,-15.375 -41.567,0 -26.289,18.555 -74.067,18.719 -56.648,0.203 -33.633,-18.152 -74.707,-18.328 C 77.9414,169.785 66.2969,194.219 5.97656,184.902 2.85156,178.652 1.75,174.789 2.29297,165.23 58.3906,177.914 74.0234,149.191 107.617,150.645 c 46.477,2.011 22.156,19.796 74.719,18.335 49.148,-1.367 24.527,-18.726 74.059,-18.726 42.882,0 48.031,30.055 105.043,16.445 0,0 2.578,8.645 -3.325,18.203" /><path
             id="path28"
             style="fill:none;stroke:#ffffff;stroke-width:3.5;stroke-linecap:butt;stroke-linejoin:miter;stroke-miterlimit:4;stroke-dasharray:none;stroke-opacity:1"
             d="m 358.113,184.902 c -54.05,15.45 -70.23,-15.375 -101.636,-15.375 -41.567,0 -26.289,18.555 -74.067,18.719 -56.648,0.203 -33.633,-18.152 -74.707,-18.328 C 77.9414,169.785 66.2969,194.219 5.97656,184.902 2.85156,178.652 1.75,174.789 2.29297,165.23 58.3906,177.914 74.0234,149.191 107.617,150.645 c 46.477,2.011 22.156,19.796 74.719,18.335 49.148,-1.367 24.527,-18.726 74.059,-18.726 42.882,0 48.031,30.055 105.043,16.445 0,0 2.578,8.645 -3.325,18.203 z" /><path
             id="path30"
             style="fill:#026c9b;fill-opacity:1;fill-rule:nonzero;stroke:none"
             d="m 313.137,218.492 c -29.551,5.395 -21.953,-13.664 -56.66,-13.664 -41.567,0 -24.829,18.563 -72.598,18.727 -56.645,0.199 -37.695,-20.399 -78.789,-20.629 -27.1877,-0.153 -35.297,12.871 -60.3127,12.504 -7.3554,-2.575 -19.496,-10.297 -27.207,-16.547 43.0235,10.293 59.4531,-12.75 88.5747,-12.93 46.519,-0.289 25.093,19.789 77.656,18.328 49.16,-1.359 23.062,-18.718 72.594,-18.718 34.789,0 35.414,28.886 84.804,17.363 0,0 -12.613,9.316 -28.062,15.566" /><path
             id="path32"
             style="fill:none;stroke:#ffffff;stroke-width:3.5;stroke-linecap:butt;stroke-linejoin:miter;stroke-miterlimit:4;stroke-dasharray:none;stroke-opacity:1"
             d="m 313.137,218.492 c -29.551,5.395 -21.953,-13.664 -56.66,-13.664 -41.567,0 -24.829,18.563 -72.598,18.727 -56.645,0.199 -37.695,-20.399 -78.789,-20.629 -27.1877,-0.153 -35.297,12.871 -60.3127,12.504 -7.3554,-2.575 -19.496,-10.297 -27.207,-16.547 43.0235,10.293 59.4531,-12.75 88.5747,-12.93 46.519,-0.289 25.093,19.789 77.656,18.328 49.16,-1.359 23.062,-18.718 72.594,-18.718 34.789,0 35.414,28.886 84.804,17.363 0,0 -12.613,9.316 -28.062,15.566 z" /><path
             id="path34"
             style="fill:#026c9b;fill-opacity:1;fill-rule:nonzero;stroke:none"
             d="m 354.695,150.09 c -54.8,13.242 -55.047,-15.871 -93.804,-15.871 -41.567,0 -24.828,19.293 -72.602,19.457 -56.641,0.203 -36.559,-18.106 -77.644,-18.332 -27.1958,-0.149 -61.8247,27.492 -100.0669,13.886 5.6407,-8.828 24.4532,-19.308 24.4532,-19.308 22.2539,7.168 39.1796,-13.848 75.5277,-13.848 46.519,0 25.093,19.789 77.656,18.336 49.156,-1.367 23.086,-17.594 72.598,-18.726 36.152,-0.829 45.261,26.058 76.714,19.203 0,0 10.434,5.886 17.168,15.203" /><path
             id="path36"
             style="fill:none;stroke:#ffffff;stroke-width:3.5;stroke-linecap:butt;stroke-linejoin:miter;stroke-miterlimit:4;stroke-dasharray:none;stroke-opacity:1"
             d="m 354.695,150.09 c -54.8,13.242 -55.047,-15.871 -93.804,-15.871 -41.567,0 -24.828,19.293 -72.602,19.457 -56.641,0.203 -36.559,-18.106 -77.644,-18.332 -27.1958,-0.149 -61.8247,27.492 -100.0669,13.886 5.6407,-8.828 24.4532,-19.308 24.4532,-19.308 22.2539,7.168 39.1796,-13.848 75.5277,-13.848 46.519,0 25.093,19.789 77.656,18.336 49.156,-1.367 23.086,-17.594 72.598,-18.726 36.152,-0.829 45.261,26.058 76.714,19.203 0,0 10.434,5.886 17.168,15.203 z" /><path
             id="path38"
             style="fill:#ffffff;fill-opacity:1;fill-rule:nonzero;stroke:none"
             d="m 143.762,116.133 -64.8753,-2.672 9.0742,31.699 12.9061,-7.156 61.821,30.133 26.929,-15.254 -61.519,-29.055 15.664,-7.695" /></g></g><g
         id="g40"><g
           clip-path="url(#clipPath44)"
           id="g42"><path
             id="path48"
             style="fill:#ffffff;fill-opacity:1;fill-rule:nonzero;stroke:none"
             d="m 230.305,221.195 64.566,-0.246 -8.766,-28.781 -12.914,7.16 -61.738,-30.519 -26.933,16.703 61.457,29.445 -15.672,6.238" /></g></g><g
         id="g50"><g
           clip-path="url(#clipPath54)"
           id="g52"><path
             id="path58"
             style="fill:#ffffff;fill-opacity:1;fill-rule:nonzero;stroke:none"
             d="m 156.965,199.809 18.164,-23.055 -81.5157,-4.16 15.8517,7.097 -59.0822,25.051 30.7383,16.696 61.1759,-27.965 14.668,6.336" /></g></g><g
         id="g60"><g
           clip-path="url(#clipPath64)"
           id="g62"><path
             id="path68"
             style="fill:#ffffff;fill-opacity:1;fill-rule:nonzero;stroke:none"
             d="m 206.023,132.695 -8.687,28.051 66.551,-0.476 -15.852,-7.094 63.281,-25.66 -27.793,-13.922 -62.753,25.508 -14.747,-6.407" /><path
             id="path70"
             style="fill:#ffffff;fill-opacity:1;fill-rule:nonzero;stroke:none"
             d="m 150.43,116.133 -64.8753,-2.672 9.0742,31.699 12.9101,-7.156 61.816,30.133 26.922,-15.254 -61.519,-29.055 15.672,-7.695" /></g></g><g
         id="g72"><g
           clip-path="url(#clipPath76)"
           id="g74"><path
             id="path80"
             style="fill:#026c9b;fill-opacity:1;fill-rule:nonzero;stroke:none"
             d="m 362.195,174.621 c 0,-38.683 -80.625,-70.043 -180.093,-70.043 C 82.6289,104.578 2,135.938 2,174.621 L 2,72.0313 C 2,33.3516 82.6289,1.99219 182.102,1.99219 c 99.468,0 180.093,31.35941 180.093,70.03911 l 0,102.5897" /><path
             id="path82"
             style="fill:none;stroke:#ffffff;stroke-width:4;stroke-linecap:butt;stroke-linejoin:miter;stroke-miterlimit:4;stroke-dasharray:none;stroke-opacity:1"
             d="m 362.195,174.621 c 0,-38.683 -80.625,-70.043 -180.093,-70.043 C 82.6289,104.578 2,135.938 2,174.621 L 2,72.0313 C 2,33.3516 82.6289,1.99219 182.102,1.99219 c 99.468,0 180.093,31.35941 180.093,70.03911 l 0,102.5897 z" /></g></g></g></g></svg>