<?xml version="1.0" encoding="UTF-8" standalone="no"?>
<svg
   xmlns:dc="http://purl.org/dc/elements/1.1/"
   xmlns:cc="http://creativecommons.org/ns#"
   xmlns:rdf="http://www.w3.org/1999/02/22-rdf-syntax-ns#"
   xmlns:svg="http://www.w3.org/2000/svg"
   xmlns="http://www.w3.org/2000/svg"
   viewBox="0 0 45 30"
   height="30"
   width="45"
   xml:space="preserve"
   version="1.1"
   id="svg2"><metadata
     id="metadata8"><rdf:RDF><cc:Work
         rdf:about=""><dc:format>image/svg+xml</dc:format><dc:type
           rdf:resource="http://purl.org/dc/dcmitype/StillImage" /></cc:Work></rdf:RDF></metadata><defs
     id="defs6"><clipPath
       id="clipPath36"
       clipPathUnits="userSpaceOnUse"><path
         id="path38"
         d="m 230.078,216.801 64.531,-0.242 -8.75,-28.789 -12.929,7.152 -61.719,-30.512 -26.949,15.238 61.476,29.454 -15.66,7.699" /></clipPath><clipPath
       id="clipPath42"
       clipPathUnits="userSpaceOnUse"><path
         id="path44"
         d="m 180,220 120,0 0,-60 -120,0 0,60 z" /></clipPath><clipPath
       id="clipPath54"
       clipPathUnits="userSpaceOnUse"><path
         id="path56"
         d="m 205.309,130.391 -8.668,28.089 66.558,-0.511 -15.859,-7.071 63.281,-25.668 -27.812,-13.941 -62.731,25.512 -14.769,-6.41" /></clipPath><clipPath
       id="clipPath60"
       clipPathUnits="userSpaceOnUse"><path
         id="path62"
         d="m 190,160 130,0 0,-50 -130,0 0,50 z" /></clipPath></defs><g
     transform="matrix(1.25,0,0,-1.25,0,30)"
     id="g10"><g
       transform="scale(0.1,0.1)"
       id="g12"><path
         id="path14"
         style="fill:#026c9b;fill-opacity:1;fill-rule:nonzero;stroke:none"
         d="m 182.109,98.2813 c 99.45,0 180.082,31.3667 180.082,70.0387 0,38.668 -80.632,70.039 -180.082,70.039 -99.4879,0 -180.12072,-31.371 -180.12072,-70.039 0,-38.672 80.63282,-70.0387 180.12072,-70.0387" /><path
         id="path16"
         style="fill:none;stroke:#ffffff;stroke-width:4;stroke-linecap:butt;stroke-linejoin:miter;stroke-miterlimit:4;stroke-dasharray:none;stroke-opacity:1"
         d="m 182.109,98.2813 c 99.45,0 180.082,31.3667 180.082,70.0387 0,38.668 -80.632,70.039 -180.082,70.039 -99.4879,0 -180.12072,-31.371 -180.12072,-70.039 0,-38.672 80.63282,-70.0387 180.12072,-70.0387 z" /><path
         id="path18"
         style="fill:#026c9b;fill-opacity:1;fill-rule:nonzero;stroke:none"
         d="m 358.121,182.891 c -54.062,15.468 -70.23,-15.352 -101.641,-15.352 -41.558,0 -26.281,18.551 -74.058,18.711 -56.641,0.199 -33.633,-18.16 -74.723,-18.32 C 77.9297,167.77 66.2891,192.23 5.98047,182.891 2.85156,176.641 1.76172,172.77 2.30078,163.238 58.3984,175.898 74.0195,147.191 107.621,148.629 c 46.481,2.031 22.149,19.812 74.719,18.359 49.14,-1.367 24.539,-18.75 74.07,-18.75 42.852,0 48,30.082 105.039,16.453 0,0 2.571,8.668 -3.328,18.2" /><path
         id="path20"
         style="fill:none;stroke:#ffffff;stroke-width:3.5;stroke-linecap:butt;stroke-linejoin:miter;stroke-miterlimit:4;stroke-dasharray:none;stroke-opacity:1"
         d="m 358.121,182.891 c -54.062,15.468 -70.23,-15.352 -101.641,-15.352 -41.558,0 -26.281,18.551 -74.058,18.711 -56.641,0.199 -33.633,-18.16 -74.723,-18.32 C 77.9297,167.77 66.2891,192.23 5.98047,182.891 2.85156,176.641 1.76172,172.77 2.30078,163.238 58.3984,175.898 74.0195,147.191 107.621,148.629 c 46.481,2.031 22.149,19.812 74.719,18.359 49.14,-1.367 24.539,-18.75 74.07,-18.75 42.852,0 48,30.082 105.039,16.453 0,0 2.571,8.668 -3.328,18.2 z" /><path
         id="path22"
         style="fill:#026c9b;fill-opacity:1;fill-rule:nonzero;stroke:none"
         d="m 313.121,216.48 c -29.531,5.399 -21.949,-13.671 -56.641,-13.671 -41.558,0 -24.839,18.601 -72.609,18.75 -56.641,0.203 -37.699,-20.387 -78.793,-20.618 -27.1874,-0.16 -35.2772,12.848 -60.3085,12.5 -7.3476,-2.582 -19.5,-10.32 -27.1914,-16.562 43.0117,10.312 59.4532,-12.738 88.5509,-12.93 46.531,-0.277 25.121,19.801 77.66,18.321 49.18,-1.329 23.09,-18.719 72.621,-18.719 34.762,0 35.391,28.91 84.801,17.39 0,0 -12.621,9.289 -28.09,15.539" /><path
         id="path24"
         style="fill:none;stroke:#ffffff;stroke-width:3.5;stroke-linecap:butt;stroke-linejoin:miter;stroke-miterlimit:4;stroke-dasharray:none;stroke-opacity:1"
         d="m 313.121,216.48 c -29.531,5.399 -21.949,-13.671 -56.641,-13.671 -41.558,0 -24.839,18.601 -72.609,18.75 -56.641,0.203 -37.699,-20.387 -78.793,-20.618 -27.1874,-0.16 -35.2772,12.848 -60.3085,12.5 -7.3476,-2.582 -19.5,-10.32 -27.1914,-16.562 43.0117,10.312 59.4532,-12.738 88.5509,-12.93 46.531,-0.277 25.121,19.801 77.66,18.321 49.18,-1.329 23.09,-18.719 72.621,-18.719 34.762,0 35.391,28.91 84.801,17.39 0,0 -12.621,9.289 -28.09,15.539 z" /><path
         id="path26"
         style="fill:#026c9b;fill-opacity:1;fill-rule:nonzero;stroke:none"
         d="m 354.691,148.09 c -54.812,13.238 -55.043,-15.86 -93.793,-15.86 -41.558,0 -24.847,19.29 -72.617,19.45 -56.64,0.199 -36.562,-18.129 -77.621,-18.321 -27.2186,-0.16 -61.8319,27.461 -100.0702,13.871 5.6211,-8.832 24.4493,-19.3 24.4493,-19.3 22.2617,7.148 39.1797,-13.871 75.5119,-13.871 46.519,0 25.109,19.812 77.648,18.363 49.18,-1.371 23.09,-17.621 72.621,-18.75 36.129,-0.82 45.231,26.058 76.719,19.219 0,0 10.43,5.898 17.152,15.199" /><path
         id="path28"
         style="fill:none;stroke:#ffffff;stroke-width:3.5;stroke-linecap:butt;stroke-linejoin:miter;stroke-miterlimit:4;stroke-dasharray:none;stroke-opacity:1"
         d="m 354.691,148.09 c -54.812,13.238 -55.043,-15.86 -93.793,-15.86 -41.558,0 -24.847,19.29 -72.617,19.45 -56.64,0.199 -36.562,-18.129 -77.621,-18.321 -27.2186,-0.16 -61.8319,27.461 -100.0702,13.871 5.6211,-8.832 24.4493,-19.3 24.4493,-19.3 22.2617,7.148 39.1797,-13.871 75.5119,-13.871 46.519,0 25.109,19.812 77.648,18.363 49.18,-1.371 23.09,-17.621 72.621,-18.75 36.129,-0.82 45.231,26.058 76.719,19.219 0,0 10.43,5.898 17.152,15.199 z" /><path
         id="path30"
         style="fill:#ffffff;fill-opacity:1;fill-rule:nonzero;stroke:none"
         d="m 143.75,114.141 -64.8789,-2.692 9.0977,31.711 12.8902,-7.14 61.84,30.109 26.91,-15.231 -61.519,-29.058 15.66,-7.699" /><g
         id="g32"><g
           clip-path="url(#clipPath36)"
           id="g34"><g
             clip-path="url(#clipPath42)"
             id="g40"><path
               id="path46"
               style="fill:#ffffff;fill-opacity:1;fill-rule:nonzero;stroke:none"
               d="m 230.309,219.18 64.57,-0.231 -8.789,-28.789 -12.891,7.18 -61.75,-30.539 -26.918,16.719 61.449,29.449 -15.671,6.211" /></g></g></g><path
         id="path48"
         style="fill:#ffffff;fill-opacity:1;fill-rule:nonzero;stroke:none"
         d="m 156.949,197.809 18.172,-23.039 -81.4921,-4.18 15.8201,7.109 -59.0584,25.031 30.7383,16.719 61.1721,-27.969 14.648,6.329" /><g
         id="g50"><g
           clip-path="url(#clipPath54)"
           id="g52"><g
             clip-path="url(#clipPath60)"
             id="g58"><path
               id="path64"
               style="fill:#ffffff;fill-opacity:1;fill-rule:nonzero;stroke:none"
               d="m 206.02,130.699 -8.68,28.051 66.57,-0.469 -15.859,-7.109 63.277,-25.66 -27.808,-13.91 -62.739,25.507 -14.761,-6.41" /><path
               id="path66"
               style="fill:#ffffff;fill-opacity:1;fill-rule:nonzero;stroke:none"
               d="m 150.43,114.141 -64.8792,-2.692 9.0586,31.711 12.9296,-7.14 61.801,30.109 26.949,-15.231 -61.519,-29.058 15.66,-7.699" /></g></g></g><path
         id="path68"
         style="fill:#026c9b;fill-opacity:1;fill-rule:nonzero;stroke:none"
         d="m 362.191,172.621 c 0,-38.672 -80.632,-70.043 -180.082,-70.043 -99.4879,0 -180.12072,31.371 -180.12072,70.043 l 0,-102.5819 C 1.98828,31.3711 82.6211,0 182.109,0 c 99.45,0 180.082,31.3711 180.082,70.0391 l 0,102.5819" /><path
         id="path70"
         style="fill:none;stroke:#ffffff;stroke-width:4;stroke-linecap:butt;stroke-linejoin:miter;stroke-miterlimit:4;stroke-dasharray:none;stroke-opacity:1"
         d="m 362.191,172.621 c 0,-38.672 -80.632,-70.043 -180.082,-70.043 -99.4879,0 -180.12072,31.371 -180.12072,70.043 l 0,-102.5819 C 1.98828,31.3711 82.6211,0 182.109,0 c 99.45,0 180.082,31.3711 180.082,70.0391 l 0,102.5819 z" /></g></g></svg>