<?xml version="1.0" encoding="UTF-8" standalone="no"?>
<svg
   xmlns:dc="http://purl.org/dc/elements/1.1/"
   xmlns:cc="http://creativecommons.org/ns#"
   xmlns:rdf="http://www.w3.org/1999/02/22-rdf-syntax-ns#"
   xmlns:svg="http://www.w3.org/2000/svg"
   xmlns="http://www.w3.org/2000/svg"
   viewBox="0 0 45.799999 31.387501"
   height="31.387501"
   width="45.799999"
   xml:space="preserve"
   version="1.1"
   id="svg2"><metadata
     id="metadata8"><rdf:RDF><cc:Work
         rdf:about=""><dc:format>image/svg+xml</dc:format><dc:type
           rdf:resource="http://purl.org/dc/dcmitype/StillImage" /></cc:Work></rdf:RDF></metadata><defs
     id="defs6"><clipPath
       id="clipPath18"
       clipPathUnits="userSpaceOnUse"><path
         id="path20"
         d="M 0,1 0,251 366,251 366,1 0,1 Z" /></clipPath></defs><g
     transform="matrix(1.25,0,0,-1.25,0,31.3875)"
     id="g10"><g
       transform="scale(0.1,0.1)"
       id="g12"><g
         id="g14"><g
           clip-path="url(#clipPath18)"
           id="g16"><path
             id="path22"
             style="fill:#026c9b;fill-opacity:1;fill-rule:nonzero;stroke:none"
             d="m 5.51953,195.004 61.24997,51.141 295.0005,0 -48.75,-51.141 -307.50047,0" /><path
             id="path24"
             style="fill:none;stroke:#ffffff;stroke-width:4;stroke-linecap:butt;stroke-linejoin:miter;stroke-miterlimit:4;stroke-dasharray:none;stroke-opacity:1"
             d="m 5.51953,195.004 61.24997,51.141 295.0005,0 -48.75,-51.141 -307.50047,0 z" /><path
             id="path26"
             style="fill:#026c9b;fill-opacity:1;fill-rule:nonzero;stroke:none"
             d="m 361.77,246.145 -48.75,-51.141 0,-189.03525 48.75,64.57815 0,175.5981" /><path
             id="path28"
             style="fill:none;stroke:#ffffff;stroke-width:4;stroke-linecap:butt;stroke-linejoin:miter;stroke-miterlimit:4;stroke-dasharray:none;stroke-opacity:1"
             d="m 361.77,246.145 -48.75,-51.141 0,-189.03525 48.75,64.57815 0,175.5981 z" /><path
             id="path30"
             style="fill:#026c9b;fill-opacity:1;fill-rule:nonzero;stroke:none"
             d="m 5.51953,5.96875 307.5,0 0,189.035 -307.5,0 0,-189.035 z" /><path
             id="path32"
             style="fill:none;stroke:#ffffff;stroke-width:4;stroke-linecap:butt;stroke-linejoin:miter;stroke-miterlimit:4;stroke-dasharray:none;stroke-opacity:1"
             d="m 5.51953,5.96875 307.5,0 0,189.035 -307.5,0 0,-189.035 z" /><path
             id="path34"
             style="fill:none;stroke:#ffffff;stroke-width:10;stroke-linecap:butt;stroke-linejoin:miter;stroke-miterlimit:4;stroke-dasharray:none;stroke-opacity:1"
             d="m 156.98,21.3281 c 44.258,0 80.137,35.8828 80.137,80.1409 0,44.265 -35.879,80.144 -80.137,80.144 -44.277,0 -80.1519,-35.879 -80.1519,-80.144 0,-44.2581 35.8749,-80.1409 80.1519,-80.1409 z" /><path
             id="path36"
             style="fill:#ffffff;fill-opacity:1;fill-rule:nonzero;stroke:none"
             d="m 31.7109,143.93 227.1841,0 0,10.054 20.238,-14.754 -20.238,-14.753 0,9.941 -227.1841,0" /><path
             id="path38"
             style="fill:#ffffff;fill-opacity:1;fill-rule:nonzero;stroke:none"
             d="m 275.145,55.5859 -227.1841,0 0,-10.0507 -20.2187,14.7539 20.2187,14.75 0,-9.9414 227.1841,0" /></g></g></g></g></svg>