<?xml version="1.0" encoding="UTF-8" standalone="no"?>
<svg
   xmlns:dc="http://purl.org/dc/elements/1.1/"
   xmlns:cc="http://creativecommons.org/ns#"
   xmlns:rdf="http://www.w3.org/1999/02/22-rdf-syntax-ns#"
   xmlns:svg="http://www.w3.org/2000/svg"
   xmlns="http://www.w3.org/2000/svg"
   viewBox="0 0 39.5625 26.825001"
   height="26.825001"
   width="39.5625"
   xml:space="preserve"
   version="1.1"
   id="svg2"><metadata
     id="metadata8"><rdf:RDF><cc:Work
         rdf:about=""><dc:format>image/svg+xml</dc:format><dc:type
           rdf:resource="http://purl.org/dc/dcmitype/StillImage" /></cc:Work></rdf:RDF></metadata><defs
     id="defs6"><clipPath
       id="clipPath18"
       clipPathUnits="userSpaceOnUse"><path
         id="path20"
         d="M 0,4 0,215 316,215 316,4 0,4 Z" /></clipPath></defs><g
     transform="matrix(1.25,0,0,-1.25,0,26.825)"
     id="g10"><g
       transform="scale(0.1,0.1)"
       id="g12"><g
         id="g14"><g
           clip-path="url(#clipPath18)"
           id="g16"><path
             id="path22"
             style="fill:#026c9b;fill-opacity:1;fill-rule:nonzero;stroke:none"
             d="m 314.68,151.848 c 0,-33.586 -70,-60.8011 -156.328,-60.8011 C 72.0039,91.0469 2,118.262 2,151.848 L 2,62.793 C 2,29.2109 72.0039,1.99219 158.352,1.99219 244.68,1.99219 314.68,29.2109 314.68,62.793 l 0,89.055" /><path
             id="path24"
             style="fill:none;stroke:#ffffff;stroke-width:4;stroke-linecap:butt;stroke-linejoin:miter;stroke-miterlimit:4;stroke-dasharray:none;stroke-opacity:1"
             d="m 314.68,151.848 c 0,-33.586 -70,-60.8011 -156.328,-60.8011 C 72.0039,91.0469 2,118.262 2,151.848 L 2,62.793 C 2,29.2109 72.0039,1.99219 158.352,1.99219 244.68,1.99219 314.68,29.2109 314.68,62.793 l 0,89.055 z" /><path
             id="path26"
             style="fill:#026c9b;fill-opacity:1;fill-rule:nonzero;stroke:none"
             d="m 158.352,91.0469 c 86.328,0 156.328,27.2151 156.328,60.8011 0,33.574 -70,60.789 -156.328,60.789 C 72.0039,212.637 2,185.422 2,151.848 2,118.262 72.0039,91.0469 158.352,91.0469" /><path
             id="path28"
             style="fill:none;stroke:#ffffff;stroke-width:4;stroke-linecap:butt;stroke-linejoin:miter;stroke-miterlimit:4;stroke-dasharray:none;stroke-opacity:1"
             d="m 158.352,91.0469 c 86.328,0 156.328,27.2151 156.328,60.8011 0,33.574 -70,60.789 -156.328,60.789 C 72.0039,212.637 2,185.422 2,151.848 2,118.262 72.0039,91.0469 158.352,91.0469 Z" /><path
             id="path30"
             style="fill:#ffffff;fill-opacity:1;fill-rule:nonzero;stroke:none"
             d="m 160.77,163.574 -21.793,33.86 9.761,1.191 -20.41,8.211 -8.379,-11.738 9.746,1.191 21.797,-33.855 9.278,1.14" /><path
             id="path32"
             style="fill:#ffffff;fill-opacity:1;fill-rule:nonzero;stroke:none"
             d="m 148.406,159.316 -76.3669,19.543 4.9843,3.399 -26.9336,-0.754 12.2461,-11.094 4.9805,4.016 76.3436,-19.543 4.746,4.433" /><path
             id="path34"
             style="fill:#ffffff;fill-opacity:1;fill-rule:nonzero;stroke:none"
             d="m 143.762,152.305 -85.6487,-10.762 -1.9102,3.684 -17.6953,-9.27 25.6836,-3.953 -2.6992,4.48 85.6248,10.762 -3.355,5.059" /><path
             id="path36"
             style="fill:#ffffff;fill-opacity:1;fill-rule:nonzero;stroke:none"
             d="m 147.18,144.895 -43.711,-33.223 -8.8088,2.32 1.914,-12.359 24.0778,5.496 -8.804,2.324 43.711,33.235 -8.379,2.207" /><path
             id="path38"
             style="fill:#ffffff;fill-opacity:1;fill-rule:nonzero;stroke:none"
             d="m 168.977,162.52 37.339,31.105 -8.804,2.324 24.082,5.496 1.914,-12.363 -8.813,2.324 -37.34,-31.101 -8.378,2.215" /><path
             id="path40"
             style="fill:#ffffff;fill-opacity:1;fill-rule:nonzero;stroke:none"
             d="m 163.098,141.77 22.324,-36.516 -9.746,-1.199 20.41,-8.2034 8.379,11.7384 -9.77,-1.203 -22.324,36.515 -9.273,-1.132" /><path
             id="path42"
             style="fill:#ffffff;fill-opacity:1;fill-rule:nonzero;stroke:none"
             d="m 178.977,145.461 74.214,-19.016 -4.976,-4.011 26.949,0.75 -12.242,11.093 -4.984,-2.781 -74.239,19.012 -4.722,-5.047" /><path
             id="path44"
             style="fill:#ffffff;fill-opacity:1;fill-rule:nonzero;stroke:none"
             d="m 181.145,150.48 85.093,10.762 2.7,-4.484 17.71,9.277 -25.703,3.957 2.715,-3.34 -85.097,-10.761 2.582,-5.411" /><path
             id="path46"
             style="fill:#026c9b;fill-opacity:1;fill-rule:nonzero;stroke:none"
             d="m 161.301,140.598 c 14.297,-0.508 26.07,4.382 26.304,10.925 0.239,6.536 -11.167,12.247 -25.464,12.747 -14.321,0.507 -26.094,-4.387 -26.328,-10.918 -0.215,-6.543 11.191,-12.247 25.488,-12.754" /><path
             id="path48"
             style="fill:none;stroke:#ffffff;stroke-width:4;stroke-linecap:butt;stroke-linejoin:miter;stroke-miterlimit:4;stroke-dasharray:none;stroke-opacity:1"
             d="m 161.301,140.598 c 14.297,-0.508 26.07,4.382 26.304,10.925 0.239,6.536 -11.167,12.247 -25.464,12.747 -14.321,0.507 -26.094,-4.387 -26.328,-10.918 -0.215,-6.543 11.191,-12.247 25.488,-12.754 z" /></g></g></g></g></svg>