<svg xmlns="http://www.w3.org/2000/svg" viewBox="0 0 40 28.75" height="28.75" width="40"><defs><clipPath id="a"><path d="M0 10v211h317V10H0z"/></clipPath></defs><g clip-path="url(#a)" transform="matrix(.13 0 0 -.13 0 28.75)"><path d="M314.691 157.867c0-33.601-70-60.82-156.332-60.82-86.37 0-156.37 27.219-156.37 60.82v-89.07c0-33.59 70-60.82 156.37-60.82 86.332 0 156.332 27.23 156.332 60.82v89.07" fill="#026c9b"/><path d="M314.691 157.867c0-33.601-70-60.82-156.332-60.82-86.37 0-156.37 27.219-156.37 60.82v-89.07c0-33.59 70-60.82 156.37-60.82 86.332 0 156.332 27.23 156.332 60.82v89.07z" fill="none" stroke="#fff" stroke-width="4"/><path d="M158.359 97.047c86.332 0 156.332 27.219 156.332 60.82 0 33.551-70 60.781-156.332 60.781-86.37 0-156.37-27.23-156.37-60.781 0-33.601 70-60.82 156.37-60.82" fill="#026c9b"/><path d="M158.359 97.047c86.332 0 156.332 27.219 156.332 60.82 0 33.551-70 60.781-156.332 60.781-86.37 0-156.37-27.23-156.37-60.781 0-33.601 70-60.82 156.37-60.82z" fill="none" stroke="#fff" stroke-width="4"/><path d="M160.781 169.586l-21.801 33.859 9.77 1.172-20.43 8.211-8.359-11.723 9.73 1.172 21.789-33.832 9.301 1.141M148.398 165.328l-76.367 19.527 5 3.403-26.953-.742 12.262-11.098 4.96 4.02 76.372-19.571 4.726 4.461M143.75 158.297l-85.629-10.75-1.91 3.68-17.692-9.258 25.66-3.953-2.699 4.461 85.629 10.781-3.359 5.039M147.191 150.906l-43.711-33.238-8.832 2.309 1.91-12.348 24.102 5.508-8.82 2.301 43.711 33.25-8.36 2.218M168.98 168.527l37.348 31.09-8.828 2.352 24.102 5.469 1.918-12.352-8.829 2.312-37.351-31.101-8.36 2.23M163.09 147.785l22.34-36.527-9.77-1.211 20.43-8.199 8.359 11.757-9.758-1.207-22.312 36.52-9.289-1.133M178.98 151.457l74.219-19.019-5-3.993 26.961.743-12.23 11.097-5-2.769-74.219 18.98-4.731-5.039M181.129 156.496l85.121 10.742 2.699-4.492 17.692 9.301-25.7 3.941 2.731-3.32-85.121-10.781 2.578-5.391" fill="#fff"/><path d="M161.289 146.617c14.301-.512 26.09 4.371 26.332 10.899.231 6.562-11.172 12.261-25.473 12.769-14.339.512-26.097-4.418-26.328-10.937-.23-6.52 11.168-12.231 25.469-12.731" fill="#026c9b"/><path d="M161.289 146.617c14.301-.512 26.09 4.371 26.332 10.899.231 6.562-11.172 12.261-25.473 12.769-14.339.512-26.097-4.418-26.328-10.937-.23-6.52 11.168-12.231 25.469-12.731z" fill="none" stroke="#fff" stroke-width="4"/></g></svg>