<?xml version="1.0" encoding="UTF-8" standalone="no"?>
<svg
   xmlns:dc="http://purl.org/dc/elements/1.1/"
   xmlns:cc="http://creativecommons.org/ns#"
   xmlns:rdf="http://www.w3.org/1999/02/22-rdf-syntax-ns#"
   xmlns:svg="http://www.w3.org/2000/svg"
   xmlns="http://www.w3.org/2000/svg"
   viewBox="0 0 36.4375 33.162498"
   height="33.162498"
   width="36.4375"
   xml:space="preserve"
   version="1.1"
   id="svg2"><metadata
     id="metadata8"><rdf:RDF><cc:Work
         rdf:about=""><dc:format>image/svg+xml</dc:format><dc:type
           rdf:resource="http://purl.org/dc/dcmitype/StillImage" /></cc:Work></rdf:RDF></metadata><defs
     id="defs6"><clipPath
       id="clipPath18"
       clipPathUnits="userSpaceOnUse"><path
         id="path20"
         d="M 0,0 0,265 290,265 290,0 0,0 Z" /></clipPath></defs><g
     transform="matrix(1.25,0,0,-1.25,0,33.1625)"
     id="g10"><g
       transform="scale(0.1,0.1)"
       id="g12"><g
         id="g14"><g
           clip-path="url(#clipPath18)"
           id="g16"><path
             id="path22"
             style="fill:#026c9b;fill-opacity:1;fill-rule:nonzero;stroke:none"
             d="m 7.13281,4.23828 221.348,0 0,209.523 -221.348,0 0,-209.523 z" /><path
             id="path24"
             style="fill:none;stroke:#ffffff;stroke-width:4;stroke-linecap:butt;stroke-linejoin:miter;stroke-miterlimit:4;stroke-dasharray:none;stroke-opacity:1"
             d="m 7.13281,4.23828 221.348,0 0,209.523 -221.348,0 0,-209.523 z" /><path
             id="path26"
             style="fill:#026c9b;fill-opacity:1;fill-rule:nonzero;stroke:none"
             d="m 228.48,213.762 57.442,47.304 -201.0548,0 -77.73439,-47.304 221.34719,0" /><path
             id="path28"
             style="fill:none;stroke:#ffffff;stroke-width:4;stroke-linecap:butt;stroke-linejoin:miter;stroke-miterlimit:4;stroke-dasharray:none;stroke-opacity:1"
             d="m 228.48,213.762 57.442,47.304 -201.0548,0 -77.73439,-47.304 221.34719,0 z" /><path
             id="path30"
             style="fill:#026c9b;fill-opacity:1;fill-rule:nonzero;stroke:none"
             d="m 285.922,51.5547 0,209.5113 -57.442,-47.304 0,-209.52372 57.442,47.31642" /><path
             id="path32"
             style="fill:none;stroke:#ffffff;stroke-width:4;stroke-linecap:butt;stroke-linejoin:miter;stroke-miterlimit:4;stroke-dasharray:none;stroke-opacity:1"
             d="m 285.922,51.5547 0,209.5113 -57.442,-47.304 0,-209.52372 57.442,47.31642 z" /><path
             id="path34"
             style="fill:#ffffff;fill-opacity:1;fill-rule:nonzero;stroke:none"
             d="m 30.1016,14.6875 c 5.2734,0 9.5507,4.2773 9.5507,9.5508 0,5.2656 -4.2773,9.5312 -9.5507,9.5312 -5.2735,0 -9.5508,-4.2656 -9.5508,-9.5312 0,-5.2735 4.2773,-9.5508 9.5508,-9.5508" /><path
             id="path36"
             style="fill:none;stroke:#000000;stroke-width:2;stroke-linecap:butt;stroke-linejoin:miter;stroke-miterlimit:4;stroke-dasharray:none;stroke-opacity:1"
             d="m 30.1016,14.6875 c 5.2734,0 9.5507,4.2773 9.5507,9.5508 0,5.2656 -4.2773,9.5312 -9.5507,9.5312 -5.2735,0 -9.5508,-4.2656 -9.5508,-9.5312 0,-5.2735 4.2773,-9.5508 9.5508,-9.5508 z" /><path
             id="path38"
             style="fill:#ffffff;fill-opacity:1;fill-rule:nonzero;stroke:none"
             d="M 21.918,34.4141 40.5703,16.1914 93.2852,70.1367 74.6328,88.3594 21.918,34.4141" /><path
             id="path40"
             style="fill:none;stroke:#000000;stroke-width:2;stroke-linecap:butt;stroke-linejoin:miter;stroke-miterlimit:4;stroke-dasharray:none;stroke-opacity:1"
             d="M 21.918,34.4141 40.5703,16.1914 93.2852,70.1367 74.6328,88.3594 21.918,34.4141 Z" /><path
             id="path42"
             style="fill:#ffffff;fill-opacity:1;fill-rule:nonzero;stroke:none"
             d="m 67.1719,128.086 c 0,-39.4337 32.0898,-71.5118 71.5231,-71.5118 39.434,0 71.524,32.0781 71.524,71.5118 0,39.434 -32.09,71.523 -71.524,71.523 -39.4333,0 -71.5231,-32.089 -71.5231,-71.523 m 10,0 c 0,33.926 27.5981,61.523 61.5231,61.523 33.926,0 61.524,-27.597 61.524,-61.523 0,-33.9141 -27.598,-61.5118 -61.524,-61.5118 -33.925,0 -61.5231,27.5977 -61.5231,61.5118" /><path
             id="path44"
             style="fill:none;stroke:#000000;stroke-width:2;stroke-linecap:butt;stroke-linejoin:miter;stroke-miterlimit:4;stroke-dasharray:none;stroke-opacity:1"
             d="m 67.1719,128.086 c 0,-39.4337 32.0898,-71.5118 71.5231,-71.5118 39.434,0 71.524,32.0781 71.524,71.5118 0,39.434 -32.09,71.523 -71.524,71.523 -39.4333,0 -71.5231,-32.089 -71.5231,-71.523 m 10,0 c 0,33.926 27.5981,61.523 61.5231,61.523 33.926,0 61.524,-27.597 61.524,-61.523 0,-33.9141 -27.598,-61.5118 -61.524,-61.5118 -33.925,0 -61.5231,27.5977 -61.5231,61.5118 z" /><path
             id="path46"
             style="fill:#ffffff;fill-opacity:1;fill-rule:nonzero;stroke:none"
             d="m 58.793,123.965 c 0,-39.4337 32.0898,-71.5236 71.523,-71.5236 39.434,0 71.504,32.0899 71.504,71.5236 0,39.433 -32.07,71.523 -71.504,71.523 -39.4332,0 -71.523,-32.09 -71.523,-71.523 m 10,0 c 0,33.926 27.5976,61.523 61.523,61.523 33.907,0 61.504,-27.597 61.504,-61.523 0,-33.9259 -27.597,-61.5236 -61.504,-61.5236 -33.9254,0 -61.523,27.5977 -61.523,61.5236" /><path
             id="path48"
             style="fill:none;stroke:#000000;stroke-width:2;stroke-linecap:butt;stroke-linejoin:miter;stroke-miterlimit:4;stroke-dasharray:none;stroke-opacity:1"
             d="m 58.793,123.965 c 0,-39.4337 32.0898,-71.5236 71.523,-71.5236 39.434,0 71.504,32.0899 71.504,71.5236 0,39.433 -32.07,71.523 -71.504,71.523 -39.4332,0 -71.523,-32.09 -71.523,-71.523 m 10,0 c 0,33.926 27.5976,61.523 61.523,61.523 33.907,0 61.504,-27.597 61.504,-61.523 0,-33.9259 -27.597,-61.5236 -61.504,-61.5236 -33.9254,0 -61.523,27.5977 -61.523,61.5236 z" /><path
             id="path50"
             style="fill:none;stroke:#ffffff;stroke-width:13.11299992;stroke-linecap:butt;stroke-linejoin:miter;stroke-miterlimit:4;stroke-dasharray:none;stroke-opacity:1"
             d="m 106.234,98.9453 53.5352,0 0,53.5547 -53.5352,0 0,-53.5547 z" /></g></g></g></g></svg>