<svg xmlns="http://www.w3.org/2000/svg" viewBox="0 0 36.25 35" height="35" width="36.25"><defs><clipPath id="a"><path d="M0 10v265h290V10H0z"/></clipPath></defs><g clip-path="url(#a)" transform="matrix(.13 0 0 -.13 0 35)"><path d="M7.148 14.219H228.48v209.53H7.148V14.22z" fill="#026c9b"/><path d="M7.148 14.219H228.48v209.53H7.148V14.22z" fill="none" stroke="#fff" stroke-width="4"/><path d="M228.48 223.75l57.461 47.301H84.879L7.149 223.75H228.48" fill="#026c9b"/><path d="M228.48 223.75l57.461 47.301H84.879L7.149 223.75H228.48z" fill="none" stroke="#fff" stroke-width="4"/><path d="M285.941 61.559V271.05L228.48 223.75V14.219l57.461 47.34" fill="#026c9b"/><path d="M285.941 61.559V271.05L228.48 223.75V14.219l57.461 47.34z" fill="none" stroke="#fff" stroke-width="4"/><path d="M30.121 24.691c5.27 0 9.527 4.258 9.527 9.57 0 5.227-4.257 9.489-9.527 9.489-5.281 0-9.57-4.262-9.57-9.488a9.556 9.556 0 0 1 9.57-9.57" fill="#fff"/><path d="M30.121 24.691c5.27 0 9.527 4.258 9.527 9.57 0 5.227-4.257 9.489-9.527 9.489-5.281 0-9.57-4.262-9.57-9.488a9.556 9.556 0 0 1 9.57-9.57z" fill="none" stroke="#000" stroke-width="2"/><path d="M21.91 44.41l18.68-18.238 52.691 53.95-18.633 18.237L21.91 44.41" fill="#fff"/><path d="M21.91 44.41l18.68-18.238 52.691 53.95-18.633 18.237L21.91 44.41z" fill="none" stroke="#000" stroke-width="2"/><path d="M67.191 138.09c0-39.461 32.07-71.531 71.52-71.531 39.41 0 71.519 32.07 71.519 71.531 0 39.449-32.109 71.519-71.519 71.519-39.45 0-71.52-32.07-71.52-71.519m10 0c0 33.941 27.579 61.519 61.52 61.519 33.91 0 61.519-27.578 61.519-61.519 0-33.91-27.609-61.531-61.519-61.531-33.941 0-61.52 27.621-61.52 61.531" fill="#fff"/><path d="M67.191 138.09c0-39.461 32.07-71.531 71.52-71.531 39.41 0 71.519 32.07 71.519 71.531 0 39.449-32.109 71.519-71.519 71.519-39.45 0-71.52-32.07-71.52-71.519m10 0c0 33.941 27.579 61.519 61.52 61.519 33.91 0 61.519-27.578 61.519-61.519 0-33.91-27.609-61.531-61.519-61.531-33.941 0-61.52 27.621-61.52 61.531z" fill="none" stroke="#000" stroke-width="2"/><path d="M58.79 133.98c0-39.449 32.108-71.558 71.519-71.558 39.461 0 71.531 32.11 71.531 71.558 0 39.418-32.07 71.489-71.531 71.489-39.41 0-71.52-32.071-71.52-71.489m10 0c0 33.911 27.621 61.489 61.52 61.489 33.91 0 61.531-27.578 61.531-61.489 0-33.941-27.621-61.558-61.531-61.558-33.899 0-61.52 27.617-61.52 61.558" fill="#fff"/><path d="M58.79 133.98c0-39.449 32.108-71.558 71.519-71.558 39.461 0 71.531 32.11 71.531 71.558 0 39.418-32.07 71.489-71.531 71.489-39.41 0-71.52-32.071-71.52-71.489m10 0c0 33.911 27.621 61.489 61.52 61.489 33.91 0 61.531-27.578 61.531-61.489 0-33.941-27.621-61.558-61.531-61.558-33.899 0-61.52 27.617-61.52 61.558z" fill="none" stroke="#000" stroke-width="2"/><path d="M106.25 108.949h53.52v53.55h-53.52v-53.55z" fill="none" stroke="#fff" stroke-width="13.113"/></g></svg>