<svg xmlns="http://www.w3.org/2000/svg" viewBox="0 0 55 41.25" height="41.25" width="55"><path d="M.708 39.189h47.685V7.861H.708V39.19z" fill="#087bbb"/><path d="M.708 39.189h47.685V7.861H.708V39.19z" fill="none" stroke="#fff" stroke-width=".5"/><path d="M53.877 31.167l-5.484 8.023V7.86l5.484-6.65v29.956" fill="#087bbb"/><path d="M53.877 31.166l-5.484 8.023V7.861l5.484-6.65v29.956z" fill="none" stroke="#fff" stroke-width=".5"/><path d="M8.935 1.211h44.942l-5.484 6.65H.708l8.227-6.65" fill="#087bbb"/><path d="M8.935 1.211h44.942l-5.484 6.65H.708l8.227-6.65z" fill="none" stroke="#fff" stroke-width=".5"/><path d="M23.663 33.125l-.005-4.239h1.268l.005 4.239h1.983l-2.617 4.624-2.617-4.624h1.983M8.833 32.011l3.326-5.746-1.334-.768-3.32 5.748-2.08-1.196-.059 6.431 5.543-3.263-2.076-1.206M40.185 32.011l-3.325-5.746 1.329-.768 3.325 5.748 2.08-1.196.053 6.431-5.542-3.263 2.08-1.206M31.919 32.607l-1.104-4.087 1.226-.331 1.1 4.09 1.918-.507-1.334 5.142L30 33.125l1.919-.518M16.855 32.607l1.104-4.087-1.225-.331-1.104 4.09-1.914-.507 1.333 5.142 3.726-3.789-1.92-.518M13.975 15.493l.005 6.636h-1.539l-.005-6.636-2.397-.004 3.169-5.596 3.164 5.596-2.397.004M35.664 15.493l.005 6.636h-1.538l-.004-6.636-2.398-.004 3.169-5.596 3.163 5.596-2.397.004" fill="#fff"/><path d="M30 21.993a5.74 5.74 0 0 1-5.737 5.74 5.743 5.743 0 0 1 0-11.484A5.739 5.739 0 0 1 30 21.994" fill="#087bbb"/><path d="M30 21.993a5.74 5.74 0 0 1-5.737 5.74 5.743 5.743 0 0 1 0-11.484A5.739 5.739 0 0 1 30 21.994z" fill="none" stroke="#fff" stroke-width="1"/></svg>