<?xml version="1.0" encoding="UTF-8" standalone="no"?>
<svg
   xmlns:dc="http://purl.org/dc/elements/1.1/"
   xmlns:cc="http://creativecommons.org/ns#"
   xmlns:rdf="http://www.w3.org/1999/02/22-rdf-syntax-ns#"
   xmlns:svg="http://www.w3.org/2000/svg"
   xmlns="http://www.w3.org/2000/svg"
   viewBox="0 0 61.25 31.25"
   height="31.25"
   width="61.25"
   xml:space="preserve"
   version="1.1"
   id="svg2"><metadata
     id="metadata8"><rdf:RDF><cc:Work
         rdf:about=""><dc:format>image/svg+xml</dc:format><dc:type
           rdf:resource="http://purl.org/dc/dcmitype/StillImage" /></cc:Work></rdf:RDF></metadata><defs
     id="defs6" /><g
     transform="matrix(1.25,0,0,-1.25,0,31.25)"
     id="g10"><g
       transform="scale(0.1,0.1)"
       id="g12"><path
         id="path14"
         style="fill:#087bbb;fill-opacity:1;fill-rule:nonzero;stroke:none"
         d="m 5.66016,128.672 144.26184,116.68 333.129,0 -119.422,-116.68 -357.96884,0" /><path
         id="path16"
         style="fill:none;stroke:#ffffff;stroke-width:4;stroke-linecap:butt;stroke-linejoin:miter;stroke-miterlimit:4;stroke-dasharray:none;stroke-opacity:1"
         d="m 5.66016,128.672 144.26184,116.68 333.129,0 -119.422,-116.68 -357.96884,0 z" /><path
         id="path18"
         style="fill:#231f20;fill-opacity:1;fill-rule:nonzero;stroke:none"
         d="m 332.891,183.711 8.871,8.867 27.769,-12.617 -48.672,-13.992 11.051,14.543 -88.672,0 3.211,3.199 86.442,0" /><path
         id="path20"
         style="fill:#231f20;fill-opacity:1;fill-rule:nonzero;stroke:none"
         d="m 279.648,213.441 -3.168,-3.171 -90.429,0 -13.672,-10.622 -23.277,11.403 53.359,15.629 -13.199,-13.239 90.386,0" /><path
         id="path22"
         style="fill:#231f20;fill-opacity:1;fill-rule:nonzero;stroke:none"
         d="m 229.77,163.16 -3.168,-3.199 -90.864,0 -13.668,-10.199 -24.1403,11.41 54.6483,15.199 -12.348,-13.211 89.54,0" /><path
         id="path24"
         style="fill:#231f20;fill-opacity:1;fill-rule:nonzero;stroke:none"
         d="m 384.102,225.699 8.867,8.871 27.73,-12.148 -48.629,-13.981 10.59,14.098 -89.109,0 3.211,3.16 87.34,0" /><path
         id="path26"
         style="fill:#ffffff;fill-opacity:1;fill-rule:nonzero;stroke:none"
         d="m 333.32,180.66 8.91,8.871 24.219,-10.429 -48.64,-13.981 12.351,12.34 -89.109,0 3.211,3.199 89.058,0" /><path
         id="path28"
         style="fill:#ffffff;fill-opacity:1;fill-rule:nonzero;stroke:none"
         d="m 276.602,210.391 -3.204,-3.172 -89.058,0 -8.91,-8.899 -24.141,10.551 48.551,13.859 -12.34,-12.339 89.102,0" /><path
         id="path30"
         style="fill:#087bbb;fill-opacity:1;fill-rule:nonzero;stroke:none"
         d="m 363.629,14.8398 119.422,120.3082 0,110 -119.422,-116.476 0,-113.8322" /><path
         id="path32"
         style="fill:none;stroke:#ffffff;stroke-width:4;stroke-linecap:butt;stroke-linejoin:miter;stroke-miterlimit:4;stroke-dasharray:none;stroke-opacity:1"
         d="m 363.629,14.8398 119.422,120.3122 0,110 -119.422,-116.48 0,-113.8322 z" /><path
         id="path34"
         style="fill:#ffffff;fill-opacity:1;fill-rule:nonzero;stroke:none"
         d="m 226.289,160.078 -3.199,-3.168 -89.07,0 -8.899,-8.898 -24.141,10.539 48.551,13.871 -12.34,-12.344 89.098,0" /><path
         id="path36"
         style="fill:#ffffff;fill-opacity:1;fill-rule:nonzero;stroke:none"
         d="m 384.102,222.648 8.867,8.872 24.261,-10.43 -48.679,-13.981 12.347,12.34 -89.097,0 3.199,3.199 89.102,0" /><path
         id="path38"
         style="fill:none;stroke:#231f20;stroke-width:2.79999995;stroke-linecap:round;stroke-linejoin:round;stroke-miterlimit:4;stroke-dasharray:none;stroke-opacity:1"
         d="M 378.32,218.941 367.379,208" /><path
         id="path40"
         style="fill:none;stroke:#231f20;stroke-width:2.79999995;stroke-linecap:round;stroke-linejoin:round;stroke-miterlimit:4;stroke-dasharray:none;stroke-opacity:1"
         d="M 327.148,176.48 316.211,165.543" /><path
         id="path42"
         style="fill:none;stroke:#231f20;stroke-width:2.79999995;stroke-linecap:round;stroke-linejoin:round;stroke-miterlimit:4;stroke-dasharray:none;stroke-opacity:1"
         d="m 245.738,182.18 -5.226,-4.367" /><path
         id="path44"
         style="fill:none;stroke:#231f20;stroke-width:2.79999995;stroke-linecap:round;stroke-linejoin:round;stroke-miterlimit:4;stroke-dasharray:none;stroke-opacity:1"
         d="m 296.949,224.609 -4.801,-4.379" /><path
         id="path46"
         style="fill:#087bbb;fill-opacity:1;fill-rule:nonzero;stroke:none"
         d="m 363.629,13.3203 0,115.3517 -357.50009,0 0,-116.0509 357.50009,0.6992" /><path
         id="path48"
         style="fill:none;stroke:#ffffff;stroke-width:4;stroke-linecap:butt;stroke-linejoin:miter;stroke-miterlimit:4;stroke-dasharray:none;stroke-opacity:1"
         d="m 363.629,13.3203 0,115.3517 -357.50009,0 0,-116.0626 357.50009,0.7109 z" /><path
         id="path50"
         style="fill:#ffffff;fill-opacity:1;fill-rule:nonzero;stroke:none"
         d="m 138.32,69.8008 -66.8395,0 0,6.1406 -25.1914,-9.0312 25.1914,-9.0196 0,6.1289 66.8395,0 0,5.7813" /><path
         id="path52"
         style="fill:#ffffff;fill-opacity:1;fill-rule:nonzero;stroke:none"
         d="m 176.09,50.6211 0,-23.6719 -17.262,0 25.434,-8.9375 25.468,8.9375 -17.269,0 0,23.6719 -16.371,0" /><path
         id="path54"
         style="fill:#ffffff;fill-opacity:1;fill-rule:nonzero;stroke:none"
         d="m 176.09,82.5391 0,23.6719 -17.262,0 25.434,8.937 25.468,-8.937 -17.269,0 0,-23.6719 -16.371,0" /><path
         id="path56"
         style="fill:#ffffff;fill-opacity:1;fill-rule:nonzero;stroke:none"
         d="m 230.23,64.0195 66.84,0 0,-6.1289 25.231,9.0196 -25.231,9.0312 0,-6.1406 -66.84,0 0,-5.7813" /><path
         id="path58"
         style="fill:none;stroke:#ffffff;stroke-width:4;stroke-linecap:butt;stroke-linejoin:miter;stroke-miterlimit:4;stroke-dasharray:none;stroke-opacity:1"
         d="m 291.801,28.8594 c -12.539,-4.6797 -70.199,8.25 -128.68,28.832 C 104.57,78.3203 67.3398,98.832 79.8789,103.512 92.4219,108.203 150.039,95.3125 208.551,74.6797 267.07,54.1016 304.34,33.5898 291.801,28.8594 Z" /><path
         id="path60"
         style="fill:none;stroke:#ffffff;stroke-width:4;stroke-linecap:butt;stroke-linejoin:miter;stroke-miterlimit:4;stroke-dasharray:none;stroke-opacity:1"
         d="M 288.48,103.859 C 301.719,99.4102 265.27,78.9805 207.148,58.2422 148.98,37.5 91.1289,24.293 77.8906,28.75 64.6484,33.2031 101.051,53.6328 159.219,74.3711 217.34,95.1094 275.199,108.32 288.48,103.859 Z" /><path
         id="path62"
         style="fill:#bfbebe;fill-opacity:1;fill-rule:nonzero;stroke:none"
         d="m 211.68,53.1602 c 22.07,5.4687 27.422,16.25 11.992,24.0586 -15.473,7.8203 -45.863,9.7304 -67.934,4.2617 -22.066,-5.4688 -27.457,-16.25 -11.988,-24.1016 15.469,-7.8086 45.859,-9.7305 67.93,-4.2187" /></g></g></svg>