<svg xmlns="http://www.w3.org/2000/svg" viewBox="0 0 61.25 32.5" height="32.5" width="61.25"><path d="M.82 30.158h44.649V15.66H.819v14.498z" fill="#087bbb"/><path d="M.82 30.157h44.649V15.66H.819v14.497z" fill="none" stroke="#fff" stroke-width=".5"/><path d="M.703 15.732L18.74 1.12H60.4L45.43 15.732H.703" fill="#087bbb"/><path d="M.703 15.732L18.74 1.12H60.4L45.43 15.732H.703z" fill="none" stroke="#fff" stroke-width=".5"/><path d="M45.444 30.611L60.36 14.498l.01-13.355-14.927 14.57v14.898" fill="#087bbb"/><path d="M45.444 30.61L60.36 14.498l.01-13.353-14.927 14.57V30.61z" fill="none" stroke="#fff" stroke-width=".5"/><path d="M13.672 13.916l13.956-11.26" fill="#087bbb"/><path d="M13.672 13.916L27.628 2.657" fill="none" stroke="#fff" stroke-width=".5"/><path d="M24.756 13.916l13.96-11.26" fill="#087bbb"/><path d="M24.756 13.916l13.96-11.259" fill="none" stroke="#fff" stroke-width=".5"/><path d="M35.845 13.916l13.96-11.26" fill="#087bbb"/><path d="M35.845 13.916l13.96-11.259M19.365 4.664h33.037" fill="none" stroke="#fff" stroke-width=".5"/><path d="M17.871 22.52H9.516v-.766L6.368 22.88l3.148 1.128v-.761h8.355v-.728M22.592 24.917v2.964h-2.157L23.619 29l3.178-1.119h-2.154v-2.964h-2.05M22.592 20.928v-2.96h-2.157l3.184-1.117 3.178 1.118h-2.154v2.959h-2.05M29.365 23.248h8.35v.76l3.154-1.127-3.154-1.127v.766h-8.35v.728" fill="#fff"/><path d="M37.056 27.637c-1.567.587-8.77-1.025-16.085-3.603C13.658 21.456 9 18.892 10.566 18.306c1.568-.586 8.775 1.025 16.089 3.604 7.315 2.572 11.968 5.14 10.401 5.727z" fill="none" stroke="#fff" stroke-width=".5"/><path d="M36.64 18.262c1.656.556-2.895 3.11-10.165 5.703-7.266 2.594-14.502 4.244-16.158 3.687-1.654-.557 2.895-3.111 10.167-5.703 7.264-2.593 14.496-4.243 16.156-3.687z" fill="none" stroke="#fff" stroke-width=".5"/><path d="M27.041 24.605c2.764-.689 3.433-2.036 1.499-3.013-1.933-.977-5.732-1.216-8.491-.532-2.759.684-3.428 2.036-1.494 3.012 1.929.977 5.728 1.217 8.486.533" fill="#bfbebe"/><path d="M27.628 4.669c-.31.956-4.8 1.05-4.835 0-.034-.968 4.722-1.06 4.835 0M38.716 4.669c-.307.956-4.8 1.05-4.838 0-.036-.968 4.726-1.06 4.838 0M49.805 4.669c-.312.956-4.8 1.05-4.839 0-.035-.968 4.726-1.06 4.84 0" fill="#fff" fill-rule="evenodd"/><path d="M15.136 8.286h33.038" fill="none" stroke="#fff" stroke-width=".5"/><path d="M23.399 8.291c-.308.958-4.8 1.05-4.839 0-.035-.966 4.726-1.06 4.839 0M34.487 8.291c-.312.958-4.8 1.05-4.838 0-.035-.966 4.726-1.06 4.838 0M45.576 8.291c-.312.958-4.805 1.05-4.839 0-.034-.966 4.722-1.06 4.84 0" fill="#fff" fill-rule="evenodd"/><path d="M10.84 11.982h33.038" fill="none" stroke="#fff" stroke-width=".5"/><path d="M18.604 11.987c-.313.958-4.8 1.05-4.839 0-.035-.966 4.726-1.06 4.839 0M29.692 11.987c-.312.958-4.804 1.05-4.839 0-.034-.966 4.722-1.06 4.84 0M40.776 11.987c-.307.958-4.8 1.05-4.834 0-.033-.966 4.722-1.06 4.834 0" fill="#fff" fill-rule="evenodd"/></svg>