<?xml version="1.0" encoding="UTF-8" standalone="no"?>
<svg
   xmlns:dc="http://purl.org/dc/elements/1.1/"
   xmlns:cc="http://creativecommons.org/ns#"
   xmlns:rdf="http://www.w3.org/1999/02/22-rdf-syntax-ns#"
   xmlns:svg="http://www.w3.org/2000/svg"
   xmlns="http://www.w3.org/2000/svg"
   viewBox="0 0 55 41.25"
   height="41.25"
   width="55"
   xml:space="preserve"
   version="1.1"
   id="svg2"><metadata
     id="metadata8"><rdf:RDF><cc:Work
         rdf:about=""><dc:format>image/svg+xml</dc:format><dc:type
           rdf:resource="http://purl.org/dc/dcmitype/StillImage" /></cc:Work></rdf:RDF></metadata><defs
     id="defs6" /><g
     transform="matrix(1.25,0,0,-1.25,0,41.25)"
     id="g10"><g
       transform="scale(0.1,0.1)"
       id="g12"><path
         id="path14"
         style="fill:#087bbb;fill-opacity:1;fill-rule:nonzero;stroke:none"
         d="m 5.66016,16.4883 381.48,0 0,250.621 -381.48,0 0,-250.621 z" /><path
         id="path16"
         style="fill:none;stroke:#ffffff;stroke-width:4;stroke-linecap:butt;stroke-linejoin:miter;stroke-miterlimit:4;stroke-dasharray:none;stroke-opacity:1"
         d="m 5.66016,16.4883 381.48,0 0,250.621 -381.48,0 0,-250.621 z" /><path
         id="path18"
         style="fill:#087bbb;fill-opacity:1;fill-rule:nonzero;stroke:none"
         d="m 431.02,80.6602 -43.872,-64.1797 0,250.6285 43.872,53.2 0,-239.6488" /><path
         id="path20"
         style="fill:none;stroke:#ffffff;stroke-width:4;stroke-linecap:butt;stroke-linejoin:miter;stroke-miterlimit:4;stroke-dasharray:none;stroke-opacity:1"
         d="m 431.02,80.668 -43.872,-64.1797 0,250.6207 43.872,53.2 0,-239.641 z" /><path
         id="path22"
         style="fill:#087bbb;fill-opacity:1;fill-rule:nonzero;stroke:none"
         d="m 71.4805,320.309 359.5395,0 -43.872,-53.2 -381.48784,0 65.82034,53.2" /><path
         id="path24"
         style="fill:none;stroke:#ffffff;stroke-width:4;stroke-linecap:butt;stroke-linejoin:miter;stroke-miterlimit:4;stroke-dasharray:none;stroke-opacity:1"
         d="m 71.4805,320.309 359.5395,0 -43.872,-53.2 -381.48784,0 65.82034,53.2 z" /><path
         id="path26"
         style="fill:#ffffff;fill-opacity:1;fill-rule:nonzero;stroke:none"
         d="m 189.301,65 -0.039,33.9102 10.148,0 L 199.449,65 215.309,65 194.379,28.0117 173.441,65 l 15.86,0" /><path
         id="path28"
         style="fill:#ffffff;fill-opacity:1;fill-rule:nonzero;stroke:none"
         d="M 70.6602,73.9102 97.2695,119.879 86.6016,126.02 60.0391,80.0391 43.3984,89.6094 42.9297,38.1602 87.2695,64.2617 70.6602,73.9102" /><path
         id="path30"
         style="fill:#ffffff;fill-opacity:1;fill-rule:nonzero;stroke:none"
         d="m 321.48,73.9102 -26.601,45.9688 10.633,6.141 26.597,-45.9809 16.641,9.5703 0.43,-51.4492 -44.34,26.1015 16.64,9.6485" /><path
         id="path32"
         style="fill:#ffffff;fill-opacity:1;fill-rule:nonzero;stroke:none"
         d="m 255.352,69.1406 -8.832,32.6994 9.808,2.648 8.793,-32.7263 15.348,4.0586 L 269.801,34.6914 240,65 l 15.352,4.1406" /><path
         id="path34"
         style="fill:#ffffff;fill-opacity:1;fill-rule:nonzero;stroke:none"
         d="m 134.84,69.1406 8.832,32.6994 -9.801,2.648 L 125.039,71.7617 109.73,75.8203 120.391,34.6914 150.199,65 134.84,69.1406" /><path
         id="path36"
         style="fill:#ffffff;fill-opacity:1;fill-rule:nonzero;stroke:none"
         d="m 111.801,206.059 0.039,-53.09 -12.3087,0 -0.043,53.09 -19.1797,0.031 25.3514,44.769 25.32,-44.769 -19.179,-0.031" /><path
         id="path38"
         style="fill:#ffffff;fill-opacity:1;fill-rule:nonzero;stroke:none"
         d="m 285.309,206.059 0.043,-53.09 -12.301,0 -0.039,53.09 -19.184,0.031 25.352,44.769 25.308,-44.769 -19.179,-0.031" /><path
         id="path40"
         style="fill:#087bbb;fill-opacity:1;fill-rule:nonzero;stroke:none"
         d="m 240,154.059 c 0,-25.348 -20.551,-45.93 -45.898,-45.93 -25.352,0 -45.942,20.582 -45.942,45.93 0,25.39 20.59,45.941 45.942,45.941 C 219.449,200 240,179.449 240,154.059" /><path
         id="path42"
         style="fill:none;stroke:#ffffff;stroke-width:8;stroke-linecap:butt;stroke-linejoin:miter;stroke-miterlimit:4;stroke-dasharray:none;stroke-opacity:1"
         d="m 240,154.059 c 0,-25.352 -20.551,-45.93 -45.898,-45.93 -25.352,0 -45.942,20.578 -45.942,45.93 0,25.39 20.59,45.941 45.942,45.941 C 219.449,200 240,179.449 240,154.059 Z" /></g></g></svg>