<?xml version="1.0" encoding="UTF-8" standalone="no"?>
<svg
   xmlns:dc="http://purl.org/dc/elements/1.1/"
   xmlns:cc="http://creativecommons.org/ns#"
   xmlns:rdf="http://www.w3.org/1999/02/22-rdf-syntax-ns#"
   xmlns:svg="http://www.w3.org/2000/svg"
   xmlns="http://www.w3.org/2000/svg"
   viewBox="0 0 60.987499 29.987499"
   height="29.987499"
   width="60.987499"
   xml:space="preserve"
   version="1.1"
   id="svg2"><metadata
     id="metadata8"><rdf:RDF><cc:Work
         rdf:about=""><dc:format>image/svg+xml</dc:format><dc:type
           rdf:resource="http://purl.org/dc/dcmitype/StillImage" /></cc:Work></rdf:RDF></metadata><defs
     id="defs6" /><g
     transform="matrix(1.25,0,0,-1.25,0,29.9875)"
     id="g10"><g
       transform="scale(0.1,0.1)"
       id="g12"><path
         id="path14"
         style="fill:#087bbb;fill-opacity:1;fill-rule:nonzero;stroke:none"
         d="m 5.65625,118.672 144.28475,116.66 333.094,0 -119.39,-116.66 -357.98875,0" /><path
         id="path16"
         style="fill:none;stroke:#ffffff;stroke-width:4;stroke-linecap:butt;stroke-linejoin:miter;stroke-miterlimit:4;stroke-dasharray:none;stroke-opacity:1"
         d="m 5.65625,118.672 144.28475,116.66 333.094,0 -119.39,-116.66 -357.98875,0 z" /><path
         id="path18"
         style="fill:#231f20;fill-opacity:1;fill-rule:nonzero;stroke:none"
         d="m 332.898,173.691 8.879,8.887 27.754,-12.617 -48.652,-13.984 11.023,14.531 -88.648,0 3.184,3.183 86.46,0" /><path
         id="path20"
         style="fill:#231f20;fill-opacity:1;fill-rule:nonzero;stroke:none"
         d="m 279.656,203.438 -3.179,-3.165 -90.403,0 -13.691,-10.644 -23.281,11.406 53.371,15.625 -13.215,-13.222 90.398,0" /><path
         id="path22"
         style="fill:#231f20;fill-opacity:1;fill-rule:nonzero;stroke:none"
         d="m 229.785,153.145 -3.183,-3.184 -90.84,0 -13.692,-10.195 -24.152,11.386 54.68,15.196 -12.344,-13.203 89.531,0" /><path
         id="path24"
         style="fill:#231f20;fill-opacity:1;fill-rule:nonzero;stroke:none"
         d="m 384.094,215.703 8.875,8.867 27.746,-12.168 -48.652,-13.984 10.593,14.102 -89.093,0 3.183,3.183 87.348,0" /><path
         id="path26"
         style="fill:#ffffff;fill-opacity:1;fill-rule:nonzero;stroke:none"
         d="m 333.34,170.645 8.879,8.867 24.246,-10.41 -48.652,-13.985 12.343,12.344 -89.093,0 3.183,3.184 89.094,0" /><path
         id="path28"
         style="fill:#ffffff;fill-opacity:1;fill-rule:nonzero;stroke:none"
         d="m 276.594,200.391 -3.176,-3.184 -89.094,0 -8.886,-8.887 -24.149,10.528 48.555,13.886 -12.344,-12.343 89.094,0" /><path
         id="path30"
         style="fill:#087bbb;fill-opacity:1;fill-rule:nonzero;stroke:none"
         d="m 363.645,4.85547 119.39,120.30853 0,109.973 -119.39,-116.465 0,-113.81653" /><path
         id="path32"
         style="fill:none;stroke:#ffffff;stroke-width:4;stroke-linecap:butt;stroke-linejoin:miter;stroke-miterlimit:4;stroke-dasharray:none;stroke-opacity:1"
         d="m 363.645,4.85547 119.39,120.30853 0,109.973 -119.39,-116.465 0,-113.81653 z" /><path
         id="path34"
         style="fill:#ffffff;fill-opacity:1;fill-rule:nonzero;stroke:none"
         d="m 226.277,150.078 -3.172,-3.183 -89.089,0 -8.887,-8.887 -24.152,10.527 48.554,13.887 -12.343,-12.344 89.089,0" /><path
         id="path36"
         style="fill:#ffffff;fill-opacity:1;fill-rule:nonzero;stroke:none"
         d="m 384.094,212.637 8.875,8.886 24.25,-10.429 -48.656,-13.985 12.343,12.344 -89.09,0 3.184,3.184 89.094,0" /><path
         id="path38"
         style="fill:none;stroke:#231f20;stroke-width:2.79999995;stroke-linecap:round;stroke-linejoin:round;stroke-miterlimit:4;stroke-dasharray:none;stroke-opacity:1"
         d="M 378.328,208.926 367.395,197.988" /><path
         id="path40"
         style="fill:none;stroke:#231f20;stroke-width:2.79999995;stroke-linecap:round;stroke-linejoin:round;stroke-miterlimit:4;stroke-dasharray:none;stroke-opacity:1"
         d="M 327.141,166.484 316.199,155.547" /><path
         id="path42"
         style="fill:none;stroke:#231f20;stroke-width:2.79999995;stroke-linecap:round;stroke-linejoin:round;stroke-miterlimit:4;stroke-dasharray:none;stroke-opacity:1"
         d="m 245.762,172.168 -5.242,-4.375" /><path
         id="path44"
         style="fill:none;stroke:#231f20;stroke-width:2.79999995;stroke-linecap:round;stroke-linejoin:round;stroke-miterlimit:4;stroke-dasharray:none;stroke-opacity:1"
         d="m 296.953,214.609 -4.812,-4.375" /><path
         id="path46"
         style="fill:#087bbb;fill-opacity:1;fill-rule:nonzero;stroke:none"
         d="m 363.645,3.32031 0,115.35169 -357.50047,0 0,-116.07434 357.50047,0.72265" /><path
         id="path48"
         style="fill:none;stroke:#ffffff;stroke-width:4;stroke-linecap:butt;stroke-linejoin:miter;stroke-miterlimit:4;stroke-dasharray:none;stroke-opacity:1"
         d="m 363.645,3.32031 0,115.35169 -357.50047,0 0,-116.07434 357.50047,0.72265 z" /><path
         id="path50"
         style="fill:#ffffff;fill-opacity:1;fill-rule:nonzero;stroke:none"
         d="m 138.32,59.8047 -66.8278,0 0,6.1133 -25.2109,-9.0039 25.2109,-9.0235 0,6.1133 66.8278,0 0,5.8008" /><path
         id="path52"
         style="fill:#ffffff;fill-opacity:1;fill-rule:nonzero;stroke:none"
         d="m 176.105,40.6133 0,-23.6797 -17.265,0 25.437,-8.94532 25.45,8.94532 -17.247,0 0,23.6797 -16.375,0" /><path
         id="path54"
         style="fill:#ffffff;fill-opacity:1;fill-rule:nonzero;stroke:none"
         d="m 176.105,72.5195 0,23.6797 -17.265,0 25.437,8.9488 25.45,-8.9488 -17.247,0 0,-23.6797 -16.375,0" /><path
         id="path56"
         style="fill:#ffffff;fill-opacity:1;fill-rule:nonzero;stroke:none"
         d="m 230.254,54.0039 66.824,0 0,-6.1133 25.227,9.0235 -25.227,9.0039 0,-6.1133 -66.824,0 0,-5.8008" /><path
         id="path58"
         style="fill:none;stroke:#ffffff;stroke-width:4;stroke-linecap:butt;stroke-linejoin:miter;stroke-miterlimit:4;stroke-dasharray:none;stroke-opacity:1"
         d="M 291.797,18.8672 C 279.258,14.1797 221.621,27.0898 163.113,47.6953 104.59,68.3008 67.3359,88.8281 79.8828,93.5156 92.4219,98.2031 150.059,85.3125 208.574,64.6875 267.09,44.082 304.336,23.5742 291.797,18.8672 Z" /><path
         id="path60"
         style="fill:none;stroke:#ffffff;stroke-width:4;stroke-linecap:butt;stroke-linejoin:miter;stroke-miterlimit:4;stroke-dasharray:none;stroke-opacity:1"
         d="M 288.469,93.8672 C 301.711,89.4141 265.293,68.9844 207.156,48.2539 149.004,27.5 91.1445,14.2969 77.9023,18.75 c -13.246,4.4531 23.1527,24.8633 81.3087,45.6055 58.133,20.7617 115.992,33.9648 129.258,29.5117 z" /><path
         id="path62"
         style="fill:#bfbebe;fill-opacity:1;fill-rule:nonzero;stroke:none"
         d="m 211.688,43.1445 c 22.082,5.4766 27.433,16.25 11.984,24.0821 -15.457,7.8125 -45.859,9.7265 -67.942,4.2382 -22.07,-5.4687 -27.429,-16.25 -11.96,-24.0703 15.441,-7.832 45.847,-9.7304 67.918,-4.25" /></g></g></svg>