<?xml version="1.0" encoding="UTF-8" standalone="no"?>
<svg
   xmlns:dc="http://purl.org/dc/elements/1.1/"
   xmlns:cc="http://creativecommons.org/ns#"
   xmlns:rdf="http://www.w3.org/1999/02/22-rdf-syntax-ns#"
   xmlns:svg="http://www.w3.org/2000/svg"
   xmlns="http://www.w3.org/2000/svg"
   viewBox="0 0 61.25 32.5"
   height="32.5"
   width="61.25"
   xml:space="preserve"
   version="1.1"
   id="svg2"><metadata
     id="metadata8"><rdf:RDF><cc:Work
         rdf:about=""><dc:format>image/svg+xml</dc:format><dc:type
           rdf:resource="http://purl.org/dc/dcmitype/StillImage" /></cc:Work></rdf:RDF></metadata><defs
     id="defs6" /><g
     transform="matrix(1.25,0,0,-1.25,0,32.5)"
     id="g10"><g
       transform="scale(0.1,0.1)"
       id="g12"><path
         id="path14"
         style="fill:#087bbb;fill-opacity:1;fill-rule:nonzero;stroke:none"
         d="m 6.55859,18.7383 357.191,0 0,115.98 -357.191,0 0,-115.98 z" /><path
         id="path16"
         style="fill:none;stroke:#ffffff;stroke-width:4;stroke-linecap:butt;stroke-linejoin:miter;stroke-miterlimit:4;stroke-dasharray:none;stroke-opacity:1"
         d="m 6.55859,18.7422 357.191,0 0,115.98 -357.191,0 0,-115.98 z" /><path
         id="path18"
         style="fill:#087bbb;fill-opacity:1;fill-rule:nonzero;stroke:none"
         d="m 5.62109,134.141 144.30091,116.91 333.277,0 -119.758,-116.91 -357.81991,0" /><path
         id="path20"
         style="fill:none;stroke:#ffffff;stroke-width:4;stroke-linecap:butt;stroke-linejoin:miter;stroke-miterlimit:4;stroke-dasharray:none;stroke-opacity:1"
         d="m 5.62109,134.141 144.30091,116.91 333.277,0 -119.758,-116.91 -357.81991,0 z" /><path
         id="path22"
         style="fill:#087bbb;fill-opacity:1;fill-rule:nonzero;stroke:none"
         d="m 363.551,15.1094 119.34,128.9106 0.078,106.839 -119.418,-116.57 0,-119.1796" /><path
         id="path24"
         style="fill:none;stroke:#ffffff;stroke-width:4;stroke-linecap:butt;stroke-linejoin:miter;stroke-miterlimit:4;stroke-dasharray:none;stroke-opacity:1"
         d="m 363.551,15.1133 119.34,128.9097 0.078,106.829 -119.418,-116.559 0,-119.1797 z" /><path
         id="path26"
         style="fill:#087bbb;fill-opacity:1;fill-rule:nonzero;stroke:none"
         d="M 109.379,148.672 221.02,238.75" /><path
         id="path28"
         style="fill:none;stroke:#ffffff;stroke-width:4;stroke-linecap:butt;stroke-linejoin:miter;stroke-miterlimit:4;stroke-dasharray:none;stroke-opacity:1"
         d="m 109.379,148.672 111.641,90.07" /><path
         id="path30"
         style="fill:#087bbb;fill-opacity:1;fill-rule:nonzero;stroke:none"
         d="M 198.051,148.672 309.73,238.75" /><path
         id="path32"
         style="fill:none;stroke:#ffffff;stroke-width:4;stroke-linecap:butt;stroke-linejoin:miter;stroke-miterlimit:4;stroke-dasharray:none;stroke-opacity:1"
         d="m 198.051,148.672 111.679,90.07" /><path
         id="path34"
         style="fill:#087bbb;fill-opacity:1;fill-rule:nonzero;stroke:none"
         d="M 286.762,148.672 398.441,238.75" /><path
         id="path36"
         style="fill:none;stroke:#ffffff;stroke-width:4;stroke-linecap:butt;stroke-linejoin:miter;stroke-miterlimit:4;stroke-dasharray:none;stroke-opacity:1"
         d="m 286.762,148.672 111.679,90.07" /><path
         id="path38"
         style="fill:none;stroke:#ffffff;stroke-width:4;stroke-linecap:butt;stroke-linejoin:miter;stroke-miterlimit:4;stroke-dasharray:none;stroke-opacity:1"
         d="m 154.922,222.691 264.297,0" /><path
         id="path40"
         style="fill:#ffffff;fill-opacity:1;fill-rule:nonzero;stroke:none"
         d="m 142.969,79.8398 -66.8401,0 0,6.129 -25.1875,-9.0196 25.1875,-9.0195 0,6.0898 66.8401,0 0,5.8203" /><path
         id="path42"
         style="fill:#ffffff;fill-opacity:1;fill-rule:nonzero;stroke:none"
         d="m 180.738,60.6602 0,-23.711 -17.258,0 25.469,-8.9492 25.43,8.9492 -17.231,0 0,23.711 -16.41,0" /><path
         id="path44"
         style="fill:#ffffff;fill-opacity:1;fill-rule:nonzero;stroke:none"
         d="m 180.738,92.5781 0,23.6719 -17.258,0 25.469,8.941 25.43,-8.941 -17.231,0 0,-23.6719 -16.41,0" /><path
         id="path46"
         style="fill:#ffffff;fill-opacity:1;fill-rule:nonzero;stroke:none"
         d="m 234.922,74.0195 66.797,0 0,-6.0898 25.23,9.0195 -25.23,9.0196 0,-6.129 -66.797,0 0,-5.8203" /><path
         id="path48"
         style="fill:none;stroke:#ffffff;stroke-width:4;stroke-linecap:butt;stroke-linejoin:miter;stroke-miterlimit:4;stroke-dasharray:none;stroke-opacity:1"
         d="M 296.449,38.9023 C 283.91,34.2109 226.289,47.1016 167.77,67.7305 109.262,88.3516 71.9883,108.863 84.5313,113.551 97.0703,118.242 154.73,105.352 213.238,84.7227 271.762,64.1406 308.98,43.5938 296.449,38.9023 Z" /><path
         id="path50"
         style="fill:none;stroke:#ffffff;stroke-width:4;stroke-linecap:butt;stroke-linejoin:miter;stroke-miterlimit:4;stroke-dasharray:none;stroke-opacity:1"
         d="m 293.121,113.902 c 13.25,-4.449 -23.16,-24.8786 -81.32,-45.6207 -58.129,-20.75 -116.0197,-33.9493 -129.2619,-29.5 -13.2383,4.4609 23.1599,24.8906 81.3319,45.6289 58.117,20.7418 115.969,33.9418 129.25,29.4918 z" /><path
         id="path52"
         style="fill:#bfbebe;fill-opacity:1;fill-rule:nonzero;stroke:none"
         d="m 216.328,63.1602 c 22.113,5.5117 27.461,16.289 11.992,24.1015 -15.468,7.8164 -45.859,9.7266 -67.929,4.2578 -22.071,-5.4687 -27.422,-16.289 -11.95,-24.0976 15.43,-7.8125 45.821,-9.7305 67.887,-4.2617" /><path
         id="path54"
         style="fill:#ffffff;fill-opacity:1;fill-rule:evenodd;stroke:none"
         d="m 221.02,222.648 c -2.469,-7.648 -38.399,-8.398 -38.68,0 -0.27,7.743 37.781,8.481 38.68,0" /><path
         id="path56"
         style="fill:#ffffff;fill-opacity:1;fill-rule:evenodd;stroke:none"
         d="m 309.73,222.648 c -2.46,-7.648 -38.402,-8.398 -38.71,0 -0.282,7.743 37.808,8.481 38.71,0" /><path
         id="path58"
         style="fill:#ffffff;fill-opacity:1;fill-rule:evenodd;stroke:none"
         d="m 398.441,222.648 c -2.5,-7.648 -38.402,-8.398 -38.711,0 -0.281,7.743 37.809,8.481 38.711,0" /><path
         id="path60"
         style="fill:none;stroke:#ffffff;stroke-width:4;stroke-linecap:butt;stroke-linejoin:miter;stroke-miterlimit:4;stroke-dasharray:none;stroke-opacity:1"
         d="m 121.09,193.711 264.301,0" /><path
         id="path62"
         style="fill:#ffffff;fill-opacity:1;fill-rule:evenodd;stroke:none"
         d="m 187.191,193.672 c -2.461,-7.66 -38.402,-8.402 -38.711,0 -0.281,7.726 37.809,8.476 38.711,0" /><path
         id="path64"
         style="fill:#ffffff;fill-opacity:1;fill-rule:evenodd;stroke:none"
         d="m 275.898,193.672 c -2.5,-7.66 -38.398,-8.402 -38.707,0 -0.281,7.726 37.809,8.476 38.707,0" /><path
         id="path66"
         style="fill:#ffffff;fill-opacity:1;fill-rule:evenodd;stroke:none"
         d="m 364.609,193.672 c -2.5,-7.66 -38.437,-8.402 -38.711,0 -0.277,7.726 37.774,8.476 38.711,0" /><path
         id="path68"
         style="fill:none;stroke:#ffffff;stroke-width:4;stroke-linecap:butt;stroke-linejoin:miter;stroke-miterlimit:4;stroke-dasharray:none;stroke-opacity:1"
         d="m 86.7188,164.141 264.3012,0" /><path
         id="path70"
         style="fill:#ffffff;fill-opacity:1;fill-rule:evenodd;stroke:none"
         d="m 148.828,164.102 c -2.5,-7.661 -38.398,-8.403 -38.707,0 -0.281,7.726 37.809,8.476 38.707,0" /><path
         id="path72"
         style="fill:#ffffff;fill-opacity:1;fill-rule:evenodd;stroke:none"
         d="m 237.539,164.102 c -2.5,-7.661 -38.437,-8.403 -38.711,0 -0.277,7.726 37.774,8.476 38.711,0" /><path
         id="path74"
         style="fill:#ffffff;fill-opacity:1;fill-rule:evenodd;stroke:none"
         d="m 326.211,164.102 c -2.461,-7.661 -38.402,-8.403 -38.672,0 -0.269,7.726 37.77,8.476 38.672,0" /></g></g></svg>