<?xml version="1.0" encoding="UTF-8" standalone="no"?>
<svg
   xmlns:dc="http://purl.org/dc/elements/1.1/"
   xmlns:cc="http://creativecommons.org/ns#"
   xmlns:rdf="http://www.w3.org/1999/02/22-rdf-syntax-ns#"
   xmlns:svg="http://www.w3.org/2000/svg"
   xmlns="http://www.w3.org/2000/svg"
   viewBox="0 0 96.650002 65.462502"
   height="65.462502"
   width="96.650002"
   xml:space="preserve"
   version="1.1"
   id="svg2"><metadata
     id="metadata8"><rdf:RDF><cc:Work
         rdf:about=""><dc:format>image/svg+xml</dc:format><dc:type
           rdf:resource="http://purl.org/dc/dcmitype/StillImage" /></cc:Work></rdf:RDF></metadata><defs
     id="defs6" /><g
     transform="matrix(1.25,0,0,-1.25,0,65.4625)"
     id="g10"><g
       transform="scale(0.1,0.1)"
       id="g12"><path
         id="path14"
         style="fill:#087bbb;fill-opacity:1;fill-rule:nonzero;stroke:none"
         d="m 6.57422,8.75 357.195,0 0,115.961 -357.195,0 0,-115.961 z" /><path
         id="path16"
         style="fill:none;stroke:#ffffff;stroke-width:4;stroke-linecap:butt;stroke-linejoin:miter;stroke-miterlimit:4;stroke-dasharray:none;stroke-opacity:1"
         d="m 6.57422,8.75 357.195,0 0,115.961 -357.195,0 0,-115.961 z" /><path
         id="path18"
         style="fill:#087bbb;fill-opacity:1;fill-rule:nonzero;stroke:none"
         d="M 5.64453,124.125 149.91,241.059 l 333.305,0 -119.777,-116.934 -357.79347,0" /><path
         id="path20"
         style="fill:none;stroke:#ffffff;stroke-width:4;stroke-linecap:butt;stroke-linejoin:miter;stroke-miterlimit:4;stroke-dasharray:none;stroke-opacity:1"
         d="M 5.64453,124.125 149.91,241.059 l 333.305,0 -119.777,-116.934 -357.79347,0 z" /><path
         id="path22"
         style="fill:#087bbb;fill-opacity:1;fill-rule:nonzero;stroke:none"
         d="m 363.574,5.09766 119.317,128.92934 0.078,106.836 -119.395,-116.562 0,-119.20334" /><path
         id="path24"
         style="fill:none;stroke:#ffffff;stroke-width:4;stroke-linecap:butt;stroke-linejoin:miter;stroke-miterlimit:4;stroke-dasharray:none;stroke-opacity:1"
         d="m 363.574,5.09766 119.317,128.92934 0.078,106.836 -119.395,-116.562 0,-119.20334 z" /><path
         id="path26"
         style="fill:#087bbb;fill-opacity:1;fill-rule:nonzero;stroke:none"
         d="m 109.363,138.668 111.672,90.078" /><path
         id="path28"
         style="fill:none;stroke:#ffffff;stroke-width:4;stroke-linecap:butt;stroke-linejoin:miter;stroke-miterlimit:4;stroke-dasharray:none;stroke-opacity:1"
         d="m 109.363,138.668 111.672,90.078" /><path
         id="path30"
         style="fill:#087bbb;fill-opacity:1;fill-rule:nonzero;stroke:none"
         d="m 198.066,138.668 111.668,90.078" /><path
         id="path32"
         style="fill:none;stroke:#ffffff;stroke-width:4;stroke-linecap:butt;stroke-linejoin:miter;stroke-miterlimit:4;stroke-dasharray:none;stroke-opacity:1"
         d="m 198.066,138.668 111.668,90.078" /><path
         id="path34"
         style="fill:#087bbb;fill-opacity:1;fill-rule:nonzero;stroke:none"
         d="m 286.77,138.668 111.668,90.078" /><path
         id="path36"
         style="fill:none;stroke:#ffffff;stroke-width:4;stroke-linecap:butt;stroke-linejoin:miter;stroke-miterlimit:4;stroke-dasharray:none;stroke-opacity:1"
         d="m 286.77,138.668 111.668,90.078" /><path
         id="path38"
         style="fill:#087bbb;fill-opacity:1;fill-rule:nonzero;stroke:none"
         d="m 154.934,212.68 264.285,0" /><path
         id="path40"
         style="fill:none;stroke:#ffffff;stroke-width:4;stroke-linecap:butt;stroke-linejoin:miter;stroke-miterlimit:4;stroke-dasharray:none;stroke-opacity:1"
         d="m 154.934,212.68 264.285,0" /><path
         id="path42"
         style="fill:#ffffff;fill-opacity:1;fill-rule:nonzero;stroke:none"
         d="m 142.98,69.8438 -66.8355,0 0,6.1132 -25.207,-9.0234 25.207,-9.0234 0,6.1132 66.8355,0 0,5.8204" /><path
         id="path44"
         style="fill:#ffffff;fill-opacity:1;fill-rule:nonzero;stroke:none"
         d="m 180.762,50.6445 0,-23.6914 -17.266,0 25.442,-8.9453 25.449,8.9453 -17.246,0 0,23.6914 -16.379,0" /><path
         id="path46"
         style="fill:#ffffff;fill-opacity:1;fill-rule:nonzero;stroke:none"
         d="m 180.762,82.5586 0,23.6714 -17.266,0 25.442,8.95 25.449,-8.95 -17.246,0 0,-23.6714 -16.379,0" /><path
         id="path48"
         style="fill:#ffffff;fill-opacity:1;fill-rule:nonzero;stroke:none"
         d="m 234.91,64.0234 66.828,0 0,-6.1132 25.227,9.0234 -25.227,9.0234 0,-6.1132 -66.828,0 0,-5.8204" /><path
         id="path50"
         style="fill:none;stroke:#ffffff;stroke-width:4;stroke-linecap:butt;stroke-linejoin:miter;stroke-miterlimit:4;stroke-dasharray:none;stroke-opacity:1"
         d="M 296.453,28.9063 C 283.914,24.1992 226.277,37.1094 167.773,57.7344 109.246,78.3398 71.9805,98.8477 84.5391,103.555 97.082,108.242 154.719,95.332 213.23,74.7266 271.746,54.1211 308.992,33.5938 296.453,28.9063 Z" /><path
         id="path52"
         style="fill:none;stroke:#ffffff;stroke-width:4;stroke-linecap:butt;stroke-linejoin:miter;stroke-miterlimit:4;stroke-dasharray:none;stroke-opacity:1"
         d="M 293.125,103.906 C 306.367,99.4531 269.949,79.0234 211.816,58.2813 153.66,37.5391 95.8008,24.3359 82.5586,28.7695 69.3164,33.2227 105.715,53.6523 163.867,74.3945 222.004,95.1367 279.863,108.34 293.125,103.906 Z" /><path
         id="path54"
         style="fill:#bfbebe;fill-opacity:1;fill-rule:nonzero;stroke:none"
         d="m 216.348,53.1641 c 22.082,5.4882 27.429,16.2695 11.98,24.082 -15.457,7.832 -45.855,9.7266 -67.937,4.2578 -22.071,-5.4687 -27.43,-16.2695 -11.961,-24.082 15.437,-7.8321 45.847,-9.7266 67.918,-4.2578" /><path
         id="path56"
         style="fill:#ffffff;fill-opacity:1;fill-rule:evenodd;stroke:none"
         d="m 221.035,212.641 c -2.48,-7.657 -38.406,-8.387 -38.699,0 -0.273,7.734 37.793,8.488 38.699,0" /><path
         id="path58"
         style="fill:#ffffff;fill-opacity:1;fill-rule:evenodd;stroke:none"
         d="m 309.734,212.641 c -2.476,-7.657 -38.406,-8.387 -38.699,0 -0.273,7.734 37.793,8.488 38.699,0" /><path
         id="path60"
         style="fill:#ffffff;fill-opacity:1;fill-rule:evenodd;stroke:none"
         d="m 398.438,212.641 c -2.481,-7.657 -38.411,-8.387 -38.704,0 -0.269,7.734 37.793,8.488 38.704,0" /><path
         id="path62"
         style="fill:#087bbb;fill-opacity:1;fill-rule:nonzero;stroke:none"
         d="m 121.094,183.707 264.289,0" /><path
         id="path64"
         style="fill:none;stroke:#ffffff;stroke-width:4;stroke-linecap:butt;stroke-linejoin:miter;stroke-miterlimit:4;stroke-dasharray:none;stroke-opacity:1"
         d="m 121.094,183.707 264.289,0" /><path
         id="path66"
         style="fill:#ffffff;fill-opacity:1;fill-rule:evenodd;stroke:none"
         d="m 187.195,183.668 c -2.476,-7.656 -38.406,-8.391 -38.699,0 -0.273,7.734 37.793,8.484 38.699,0" /><path
         id="path68"
         style="fill:#ffffff;fill-opacity:1;fill-rule:evenodd;stroke:none"
         d="m 275.898,183.668 c -2.48,-7.656 -38.41,-8.391 -38.703,0 -0.269,7.734 37.793,8.484 38.703,0" /><path
         id="path70"
         style="fill:#ffffff;fill-opacity:1;fill-rule:evenodd;stroke:none"
         d="m 364.602,183.668 c -2.485,-7.656 -38.411,-8.391 -38.704,0 -0.273,7.734 37.793,8.484 38.704,0" /><path
         id="path72"
         style="fill:#087bbb;fill-opacity:1;fill-rule:nonzero;stroke:none"
         d="m 86.7383,154.125 264.2847,0" /><path
         id="path74"
         style="fill:none;stroke:#ffffff;stroke-width:4;stroke-linecap:butt;stroke-linejoin:miter;stroke-miterlimit:4;stroke-dasharray:none;stroke-opacity:1"
         d="m 86.7383,154.125 264.2847,0" /><path
         id="path76"
         style="fill:#ffffff;fill-opacity:1;fill-rule:evenodd;stroke:none"
         d="m 148.828,154.086 c -2.48,-7.656 -38.406,-8.387 -38.699,0 -0.274,7.734 37.793,8.488 38.699,0" /><path
         id="path78"
         style="fill:#ffffff;fill-opacity:1;fill-rule:evenodd;stroke:none"
         d="m 237.527,154.086 c -2.476,-7.656 -38.406,-8.387 -38.699,0 -0.273,7.734 37.793,8.488 38.699,0" /><path
         id="path80"
         style="fill:#ffffff;fill-opacity:1;fill-rule:evenodd;stroke:none"
         d="m 326.23,154.086 c -2.48,-7.656 -38.41,-8.387 -38.703,0 -0.269,7.734 37.793,8.488 38.703,0" /></g></g></svg>