<?xml version="1.0" encoding="UTF-8" standalone="no"?>
<svg
   xmlns:dc="http://purl.org/dc/elements/1.1/"
   xmlns:cc="http://creativecommons.org/ns#"
   xmlns:rdf="http://www.w3.org/1999/02/22-rdf-syntax-ns#"
   xmlns:svg="http://www.w3.org/2000/svg"
   xmlns="http://www.w3.org/2000/svg"
   viewBox="0 0 54.412498 39.487499"
   height="39.487499"
   width="54.412498"
   xml:space="preserve"
   version="1.1"
   id="svg2"><metadata
     id="metadata8"><rdf:RDF><cc:Work
         rdf:about=""><dc:format>image/svg+xml</dc:format><dc:type
           rdf:resource="http://purl.org/dc/dcmitype/StillImage" /></cc:Work></rdf:RDF></metadata><defs
     id="defs6" /><g
     transform="matrix(1.25,0,0,-1.25,0,39.4875)"
     id="g10"><g
       transform="scale(0.1,0.1)"
       id="g12"><path
         id="path14"
         style="fill:#087bbb;fill-opacity:1;fill-rule:nonzero;stroke:none"
         d="m 5.65625,6.46484 381.484,0 0,250.637 -381.484,0 0,-250.637 z" /><path
         id="path16"
         style="fill:none;stroke:#ffffff;stroke-width:4;stroke-linecap:butt;stroke-linejoin:miter;stroke-miterlimit:4;stroke-dasharray:none;stroke-opacity:1"
         d="m 5.65625,6.46484 381.484,0 0,250.637 -381.484,0 0,-250.637 z" /><path
         id="path18"
         style="fill:#087bbb;fill-opacity:1;fill-rule:nonzero;stroke:none"
         d="m 431.023,70.6641 -43.882,-64.19926 0,250.63716 43.882,53.222 0,-239.6599" /><path
         id="path20"
         style="fill:none;stroke:#ffffff;stroke-width:4;stroke-linecap:butt;stroke-linejoin:miter;stroke-miterlimit:4;stroke-dasharray:none;stroke-opacity:1"
         d="m 431.023,70.6641 -43.882,-64.19926 0,250.63716 43.882,53.222 0,-239.6599 z" /><path
         id="path22"
         style="fill:#087bbb;fill-opacity:1;fill-rule:nonzero;stroke:none"
         d="m 71.4922,310.324 359.5308,0 -43.882,-53.222 -381.48475,0 65.83595,53.222" /><path
         id="path24"
         style="fill:none;stroke:#ffffff;stroke-width:4;stroke-linecap:butt;stroke-linejoin:miter;stroke-miterlimit:4;stroke-dasharray:none;stroke-opacity:1"
         d="m 71.4922,310.324 359.5308,0 -43.882,-53.222 -381.48475,0 65.83595,53.222 z" /><path
         id="path26"
         style="fill:#ffffff;fill-opacity:1;fill-rule:nonzero;stroke:none"
         d="m 189.316,55.0117 -0.046,33.8867 10.156,0 0.039,-33.8867 15.855,-0.0195 -20.933,-37.0039 -20.949,37.0039 15.878,0.0195" /><path
         id="path28"
         style="fill:#ffffff;fill-opacity:1;fill-rule:nonzero;stroke:none"
         d="m 70.6641,63.9063 26.6015,45.9567 -10.6445,6.145 -26.5898,-45.9689 -16.6407,9.582 -0.4414,-51.457 44.336,26.1054 -16.6211,9.6368" /><path
         id="path30"
         style="fill:#ffffff;fill-opacity:1;fill-rule:nonzero;stroke:none"
         d="m 321.477,63.9063 -26.606,45.9567 10.649,6.145 26.589,-45.9689 16.641,9.582 0.438,-51.457 -44.333,26.1054 16.622,9.6368" /><path
         id="path32"
         style="fill:#ffffff;fill-opacity:1;fill-rule:nonzero;stroke:none"
         d="m 255.344,59.1211 -8.821,32.7148 9.817,2.6368 8.797,-32.7266 15.332,4.0859 -10.656,-41.164 -29.801,30.3242 15.332,4.1289" /><path
         id="path34"
         style="fill:#ffffff;fill-opacity:1;fill-rule:nonzero;stroke:none"
         d="m 134.855,59.1211 8.817,32.7148 -9.817,2.6368 -8.796,-32.7266 -15.332,4.0859 10.656,-41.164 29.805,30.3242 -15.333,4.1289" /><path
         id="path36"
         style="fill:#ffffff;fill-opacity:1;fill-rule:nonzero;stroke:none"
         d="m 111.785,196.055 0.063,-53.106 -12.2972,0 -0.0391,53.106 -19.1875,0.019 25.3278,44.778 25.344,-44.778 -19.211,-0.019" /><path
         id="path38"
         style="fill:#ffffff;fill-opacity:1;fill-rule:nonzero;stroke:none"
         d="m 285.305,196.055 0.054,-53.106 -12.293,0 -0.039,53.106 -19.187,0.019 25.332,44.778 25.34,-44.778 -19.207,-0.019" /><path
         id="path40"
         style="fill:#087bbb;fill-opacity:1;fill-rule:nonzero;stroke:none"
         d="m 240.02,144.055 c 0,-25.352 -20.555,-45.9183 -45.918,-45.9183 -25.364,0 -45.926,20.5663 -45.926,45.9183 0,25.39 20.562,45.945 45.926,45.945 25.363,0 45.918,-20.555 45.918,-45.945" /><path
         id="path42"
         style="fill:none;stroke:#ffffff;stroke-width:8;stroke-linecap:butt;stroke-linejoin:miter;stroke-miterlimit:4;stroke-dasharray:none;stroke-opacity:1"
         d="m 240.02,144.055 c 0,-25.352 -20.555,-45.9183 -45.918,-45.9183 -25.364,0 -45.926,20.5663 -45.926,45.9183 0,25.39 20.562,45.945 45.926,45.945 25.363,0 45.918,-20.555 45.918,-45.945 z" /></g></g></svg>