<?xml version="1.0" encoding="UTF-8" standalone="no"?>
<svg
   xmlns:dc="http://purl.org/dc/elements/1.1/"
   xmlns:cc="http://creativecommons.org/ns#"
   xmlns:rdf="http://www.w3.org/1999/02/22-rdf-syntax-ns#"
   xmlns:svg="http://www.w3.org/2000/svg"
   xmlns="http://www.w3.org/2000/svg"
   viewBox="0 0 31.4 42.075001"
   height="42.075001"
   width="31.4"
   xml:space="preserve"
   version="1.1"
   id="svg2"><metadata
     id="metadata8"><rdf:RDF><cc:Work
         rdf:about=""><dc:format>image/svg+xml</dc:format><dc:type
           rdf:resource="http://purl.org/dc/dcmitype/StillImage" /></cc:Work></rdf:RDF></metadata><defs
     id="defs6" /><g
     transform="matrix(1.25,0,0,-1.25,0,42.075)"
     id="g10"><g
       transform="scale(0.1,0.1)"
       id="g12"><path
         id="path14"
         style="fill:#231f20;fill-opacity:1;fill-rule:nonzero;stroke:none"
         d="m 246.234,240.715 -41.074,-39.004 -199.19906,0 51.60156,39.004 188.6715,0" /><path
         id="path16"
         style="fill:none;stroke:#ffffff;stroke-width:4;stroke-linecap:round;stroke-linejoin:round;stroke-miterlimit:4;stroke-dasharray:none;stroke-opacity:1"
         d="m 246.234,240.715 -41.074,-39.004 -199.19906,0 51.60156,39.004 188.6715,0 z" /><path
         id="path18"
         style="fill:#087bbb;fill-opacity:1;fill-rule:nonzero;stroke:none"
         d="m 5.96094,4.71875 199.199,0 0,196.992 -199.199,0 0,-196.992 z" /><path
         id="path20"
         style="fill:none;stroke:#ffffff;stroke-width:4;stroke-linecap:butt;stroke-linejoin:miter;stroke-miterlimit:4;stroke-dasharray:none;stroke-opacity:1"
         d="m 5.96094,4.71875 199.199,0 0,196.992 -199.199,0 0,-196.992 z" /><path
         id="path22"
         style="fill:#087bbb;fill-opacity:1;fill-rule:nonzero;stroke:none"
         d="m 242.164,41.7109 0,196.9921 -38.195,-36.992 0,-196.99225 38.195,36.99215" /><path
         id="path24"
         style="fill:none;stroke:#ffffff;stroke-width:4;stroke-linecap:butt;stroke-linejoin:miter;stroke-miterlimit:4;stroke-dasharray:none;stroke-opacity:1"
         d="m 242.164,41.7109 0,196.9921 -38.195,-36.992 0,-196.99225 38.195,36.99215 z" /><path
         id="path26"
         style="fill:#ffffff;fill-opacity:1;fill-rule:nonzero;stroke:none"
         d="m 76.7227,108.527 -42.8711,0 0,11.051 -16.1719,-16.305 16.1719,-16.3277 0,11.0508 42.8711,0 0,10.5309" /><path
         id="path28"
         style="fill:#ffffff;fill-opacity:1;fill-rule:nonzero;stroke:none"
         d="m 100.961,73.7813 0,-42.8711 -11.0743,0 16.3203,-16.1719 16.328,16.1719 -11.066,0 0,42.8711 -10.508,0" /><path
         id="path30"
         style="fill:#ffffff;fill-opacity:1;fill-rule:nonzero;stroke:none"
         d="m 100.961,131.516 0,42.871 -11.0743,0 16.3203,16.172 16.328,-16.172 -11.066,0 0,-42.871 -10.508,0" /><path
         id="path32"
         style="fill:#ffffff;fill-opacity:1;fill-rule:nonzero;stroke:none"
         d="m 135.699,97.9961 42.871,0 0,-11.0508 16.18,16.3277 -16.18,16.305 0,-11.051 -42.871,0 0,-10.5309" /><path
         id="path34"
         style="fill:none;stroke:#ffffff;stroke-width:4;stroke-linecap:butt;stroke-linejoin:miter;stroke-miterlimit:4;stroke-dasharray:none;stroke-opacity:1"
         d="M 175.18,34.4453 C 167.133,25.9492 130.16,49.3086 92.6328,86.5938 55.082,123.898 31.1875,161.027 39.2344,169.523 47.2813,178.02 84.2539,154.66 121.793,117.355 159.332,80.0703 183.227,42.9414 175.18,34.4453 Z" /><path
         id="path36"
         style="fill:none;stroke:#ffffff;stroke-width:4;stroke-linecap:butt;stroke-linejoin:miter;stroke-miterlimit:4;stroke-dasharray:none;stroke-opacity:1"
         d="m 173.043,170.148 c 8.496,-8.046 -14.863,-45 -52.16,-82.5386 C 83.5781,50.0703 46.4609,26.1602 37.9648,34.2109 c -8.496,8.0469 14.8516,45.0196 52.1563,82.5591 37.2969,37.539 74.4139,61.445 82.9219,53.378 z" /><path
         id="path38"
         style="fill:#bfbebe;fill-opacity:1;fill-rule:nonzero;stroke:none"
         d="m 123.793,78.3516 c 14.16,9.9218 17.598,29.4144 7.687,43.5744 -9.921,14.16 -29.425,17.597 -43.5855,7.691 C 73.7344,119.719 70.2969,100.188 80.2188,86.0469 90.1211,71.8867 109.633,68.4492 123.793,78.3516" /><path
         id="path40"
         style="fill:#087bbb;fill-opacity:1;fill-rule:nonzero;stroke:none"
         d="m 246.234,333.879 -41.074,-38.996 -199.19906,0 51.60156,38.996 188.6715,0" /><path
         id="path42"
         style="fill:none;stroke:#ffffff;stroke-width:4;stroke-linecap:butt;stroke-linejoin:miter;stroke-miterlimit:4;stroke-dasharray:none;stroke-opacity:1"
         d="m 246.234,333.879 -41.074,-38.996 -199.19906,0 51.60156,38.996 188.6715,0 z" /><path
         id="path44"
         style="fill:#087bbb;fill-opacity:1;fill-rule:nonzero;stroke:none"
         d="m 5.96094,200.324 199.199,0 0,94.5586 -199.199,0 0,-94.5586 z" /><path
         id="path46"
         style="fill:none;stroke:#ffffff;stroke-width:4;stroke-linecap:butt;stroke-linejoin:miter;stroke-miterlimit:4;stroke-dasharray:none;stroke-opacity:1"
         d="m 5.96094,200.324 199.199,0 0,94.5586 -199.199,0 0,-94.5586 z" /><path
         id="path48"
         style="fill:#087bbb;fill-opacity:1;fill-rule:nonzero;stroke:none"
         d="m 242.164,237.316 0,94.559 -38.195,-36.992 0,-94.559 38.195,36.992" /><path
         id="path50"
         style="fill:none;stroke:#ffffff;stroke-width:4;stroke-linecap:butt;stroke-linejoin:miter;stroke-miterlimit:4;stroke-dasharray:none;stroke-opacity:1"
         d="m 242.164,237.316 0,94.559 -38.195,-36.992 0,-94.559 38.195,36.992 z" /><path
         id="path52"
         style="fill:#ffffff;fill-opacity:1;fill-rule:nonzero;stroke:none"
         d="m 23.832,260.012 38.9375,0 0,20.293 -38.9375,0 0,-20.293 z" /><path
         id="path54"
         style="fill:#ffffff;fill-opacity:1;fill-rule:nonzero;stroke:none"
         d="m 151.781,260.012 38.9375,0 0,20.293 -38.9375,0 0,-20.293 z" /><path
         id="path56"
         style="fill:#ffffff;fill-opacity:1;fill-rule:nonzero;stroke:none"
         d="m 23.832,209.348 38.9375,0 0,20.2695 -38.9375,0 0,-20.2695 z" /><path
         id="path58"
         style="fill:#ffffff;fill-opacity:1;fill-rule:nonzero;stroke:none"
         d="m 151.781,209.348 38.9375,0 0,20.2695 -38.9375,0 0,-20.2695 z" /><path
         id="path60"
         style="fill:#231f20;fill-opacity:1;fill-rule:nonzero;stroke:none"
         d="m 50.2578,270.148 119.5902,0" /><path
         id="path62"
         style="fill:none;stroke:#ffffff;stroke-width:4;stroke-linecap:butt;stroke-linejoin:miter;stroke-miterlimit:4;stroke-dasharray:none;stroke-opacity:1"
         d="m 50.2578,270.148 119.5902,0" /><path
         id="path64"
         style="fill:#231f20;fill-opacity:1;fill-rule:nonzero;stroke:none"
         d="m 50.2578,218.02 119.5902,0" /><path
         id="path66"
         style="fill:none;stroke:#ffffff;stroke-width:4;stroke-linecap:butt;stroke-linejoin:miter;stroke-miterlimit:4;stroke-dasharray:none;stroke-opacity:1"
         d="m 50.2578,218.02 119.5902,0" /><path
         id="path68"
         style="fill:#231f20;fill-opacity:1;fill-rule:nonzero;stroke:none"
         d="M 43.3047,219.465 169.848,270.148" /><path
         id="path70"
         style="fill:none;stroke:#ffffff;stroke-width:4;stroke-linecap:butt;stroke-linejoin:miter;stroke-miterlimit:4;stroke-dasharray:none;stroke-opacity:1"
         d="M 43.3047,219.465 169.848,270.148" /><path
         id="path72"
         style="fill:#231f20;fill-opacity:1;fill-rule:nonzero;stroke:none"
         d="M 43.3047,270.148 169.848,219.465" /><path
         id="path74"
         style="fill:none;stroke:#ffffff;stroke-width:4;stroke-linecap:butt;stroke-linejoin:miter;stroke-miterlimit:4;stroke-dasharray:none;stroke-opacity:1"
         d="M 43.3047,270.148 169.848,219.465" /></g></g></svg>