<?xml version="1.0" encoding="UTF-8" standalone="no"?>
<svg
   xmlns:dc="http://purl.org/dc/elements/1.1/"
   xmlns:cc="http://creativecommons.org/ns#"
   xmlns:rdf="http://www.w3.org/1999/02/22-rdf-syntax-ns#"
   xmlns:svg="http://www.w3.org/2000/svg"
   xmlns="http://www.w3.org/2000/svg"
   viewBox="0 0 32.5 43.75"
   height="43.75"
   width="32.5"
   xml:space="preserve"
   version="1.1"
   id="svg2"><metadata
     id="metadata8"><rdf:RDF><cc:Work
         rdf:about=""><dc:format>image/svg+xml</dc:format><dc:type
           rdf:resource="http://purl.org/dc/dcmitype/StillImage" /></cc:Work></rdf:RDF></metadata><defs
     id="defs6" /><g
     transform="matrix(1.25,0,0,-1.25,0,43.75)"
     id="g10"><g
       transform="scale(0.1,0.1)"
       id="g12"><path
         id="path14"
         style="fill:#231f20;fill-opacity:1;fill-rule:nonzero;stroke:none"
         d="m 246.25,250.699 -41.09,-38.98 -199.17953,0 51.59763,38.98 188.6719,0" /><path
         id="path16"
         style="fill:none;stroke:#ffffff;stroke-width:4;stroke-linecap:round;stroke-linejoin:round;stroke-miterlimit:4;stroke-dasharray:none;stroke-opacity:1"
         d="m 246.25,250.699 -41.09,-38.98 -199.17953,0 51.59763,38.98 188.6719,0 z" /><path
         id="path18"
         style="fill:#087bbb;fill-opacity:1;fill-rule:nonzero;stroke:none"
         d="m 5.98047,14.7305 199.18,0 0,196.988 -199.18,0 0,-196.988 z" /><path
         id="path20"
         style="fill:none;stroke:#ffffff;stroke-width:4;stroke-linecap:butt;stroke-linejoin:miter;stroke-miterlimit:4;stroke-dasharray:none;stroke-opacity:1"
         d="m 5.98047,14.7305 199.18,0 0,196.988 -199.18,0 0,-196.988 z" /><path
         id="path22"
         style="fill:#087bbb;fill-opacity:1;fill-rule:nonzero;stroke:none"
         d="m 242.148,51.7188 0,196.9922 -38.168,-36.992 0,-197.0002 38.168,37" /><path
         id="path24"
         style="fill:none;stroke:#ffffff;stroke-width:4;stroke-linecap:butt;stroke-linejoin:miter;stroke-miterlimit:4;stroke-dasharray:none;stroke-opacity:1"
         d="m 242.148,51.7188 0,196.9882 -38.168,-36.988 0,-197.0002 38.168,37 z" /><path
         id="path26"
         style="fill:#ffffff;fill-opacity:1;fill-rule:nonzero;stroke:none"
         d="m 76.7188,118.512 -42.8477,0 0,11.058 -16.1719,-16.289 16.1719,-16.3318 0,11.0628 42.8477,0 0,10.5" /><path
         id="path28"
         style="fill:#ffffff;fill-opacity:1;fill-rule:nonzero;stroke:none"
         d="m 100.98,83.7891 0,-42.8907 -11.1011,0 16.3321,-16.1796 16.328,16.1796 -11.059,0 0,42.8907 -10.5,0" /><path
         id="path30"
         style="fill:#ffffff;fill-opacity:1;fill-rule:nonzero;stroke:none"
         d="m 100.98,141.52 0,42.851 -11.1011,0 16.3321,16.168 16.328,-16.168 -11.059,0 0,-42.851 -10.5,0" /><path
         id="path32"
         style="fill:#ffffff;fill-opacity:1;fill-rule:nonzero;stroke:none"
         d="m 135.699,108.012 42.852,0 0,-11.0628 16.219,16.3318 -16.219,16.289 0,-11.058 -42.852,0 0,-10.5" /><path
         id="path34"
         style="fill:none;stroke:#ffffff;stroke-width:4;stroke-linecap:butt;stroke-linejoin:miter;stroke-miterlimit:4;stroke-dasharray:none;stroke-opacity:1"
         d="M 175.199,44.4492 C 167.148,35.9375 130.16,59.2969 92.6211,96.5977 55.0781,133.898 31.1719,171.008 39.2188,179.527 47.2695,188.008 84.2617,164.648 121.801,127.34 159.34,90.0781 183.238,52.9297 175.199,44.4492 Z" /><path
         id="path36"
         style="fill:none;stroke:#ffffff;stroke-width:4;stroke-linecap:butt;stroke-linejoin:miter;stroke-miterlimit:4;stroke-dasharray:none;stroke-opacity:1"
         d="m 173.051,180.148 c 8.469,-8.039 -14.891,-45 -52.153,-82.5308 C 83.5898,60.0781 46.4492,36.168 37.9688,44.2188 c -8.5196,8.039 14.8398,45 52.1523,82.5392 37.3009,37.539 74.4099,61.441 82.9299,53.39 z" /><path
         id="path38"
         style="fill:#bfbebe;fill-opacity:1;fill-rule:nonzero;stroke:none"
         d="m 123.789,88.3594 c 14.18,9.9219 17.621,29.4106 7.691,43.5506 -9.921,14.18 -29.41,17.621 -43.5894,7.699 C 73.75,129.719 70.3086,110.191 80.2305,96.0508 90.1211,81.8711 109.648,78.4297 123.789,88.3594" /><path
         id="path40"
         style="fill:#087bbb;fill-opacity:1;fill-rule:nonzero;stroke:none"
         d="m 246.25,343.859 -41.09,-38.98 -199.17953,0 51.59763,38.98 188.6719,0" /><path
         id="path42"
         style="fill:none;stroke:#ffffff;stroke-width:4;stroke-linecap:butt;stroke-linejoin:miter;stroke-miterlimit:4;stroke-dasharray:none;stroke-opacity:1"
         d="m 246.25,343.867 -41.09,-38.988 -199.17953,0 51.59763,38.988 188.6719,0 z" /><path
         id="path44"
         style="fill:#087bbb;fill-opacity:1;fill-rule:nonzero;stroke:none"
         d="m 5.98047,210.309 199.18,0 0,94.5703 -199.18,0 0,-94.5703 z" /><path
         id="path46"
         style="fill:none;stroke:#ffffff;stroke-width:4;stroke-linecap:butt;stroke-linejoin:miter;stroke-miterlimit:4;stroke-dasharray:none;stroke-opacity:1"
         d="m 5.98047,210.309 199.18,0 0,94.5703 -199.18,0 0,-94.5703 z" /><path
         id="path48"
         style="fill:#087bbb;fill-opacity:1;fill-rule:nonzero;stroke:none"
         d="m 242.148,247.301 0,94.57 -38.168,-36.992 0,-94.57 38.168,36.992" /><path
         id="path50"
         style="fill:none;stroke:#ffffff;stroke-width:4;stroke-linecap:butt;stroke-linejoin:miter;stroke-miterlimit:4;stroke-dasharray:none;stroke-opacity:1"
         d="m 242.148,247.297 0,94.57 -38.168,-36.988 0,-94.57 38.168,36.988 z" /><path
         id="path52"
         style="fill:#ffffff;fill-opacity:1;fill-rule:nonzero;stroke:none"
         d="m 23.8281,270 38.9531,0 0,20.3086 -38.9531,0 0,-20.3086 z" /><path
         id="path54"
         style="fill:#ffffff;fill-opacity:1;fill-rule:nonzero;stroke:none"
         d="m 151.801,270 38.9102,0 0,20.3086 -38.9102,0 0,-20.3086 z" /><path
         id="path56"
         style="fill:#ffffff;fill-opacity:1;fill-rule:nonzero;stroke:none"
         d="m 23.8281,219.34 38.9531,0 0,20.2695 -38.9531,0 0,-20.2695 z" /><path
         id="path58"
         style="fill:#ffffff;fill-opacity:1;fill-rule:nonzero;stroke:none"
         d="m 151.801,219.34 38.9102,0 0,20.2695 -38.9102,0 0,-20.2695 z" /><path
         id="path60"
         style="fill:none;stroke:#ffffff;stroke-width:4;stroke-linecap:butt;stroke-linejoin:miter;stroke-miterlimit:4;stroke-dasharray:none;stroke-opacity:1"
         d="m 50.2695,280.148 119.5705,0" /><path
         id="path62"
         style="fill:none;stroke:#ffffff;stroke-width:4;stroke-linecap:butt;stroke-linejoin:miter;stroke-miterlimit:4;stroke-dasharray:none;stroke-opacity:1"
         d="m 50.2695,228.008 119.5705,0" /><path
         id="path64"
         style="fill:#231f20;fill-opacity:1;fill-rule:nonzero;stroke:none"
         d="M 43.3203,229.449 169.84,280.148" /><path
         id="path66"
         style="fill:none;stroke:#ffffff;stroke-width:4;stroke-linecap:butt;stroke-linejoin:miter;stroke-miterlimit:4;stroke-dasharray:none;stroke-opacity:1"
         d="M 43.3203,229.449 169.84,280.148" /><path
         id="path68"
         style="fill:#231f20;fill-opacity:1;fill-rule:nonzero;stroke:none"
         d="M 43.3203,280.148 169.84,229.449" /><path
         id="path70"
         style="fill:none;stroke:#ffffff;stroke-width:4;stroke-linecap:butt;stroke-linejoin:miter;stroke-miterlimit:4;stroke-dasharray:none;stroke-opacity:1"
         d="M 43.3203,280.148 169.84,229.449" /></g></g></svg>