<?xml version="1.0" encoding="UTF-8" standalone="no"?>
<svg
   xmlns:dc="http://purl.org/dc/elements/1.1/"
   xmlns:cc="http://creativecommons.org/ns#"
   xmlns:rdf="http://www.w3.org/1999/02/22-rdf-syntax-ns#"
   xmlns:svg="http://www.w3.org/2000/svg"
   xmlns="http://www.w3.org/2000/svg"
   viewBox="0 0 42.5 36.25"
   height="36.25"
   width="42.5"
   xml:space="preserve"
   version="1.1"
   id="svg2"><metadata
     id="metadata8"><rdf:RDF><cc:Work
         rdf:about=""><dc:format>image/svg+xml</dc:format><dc:type
           rdf:resource="http://purl.org/dc/dcmitype/StillImage" /></cc:Work></rdf:RDF></metadata><defs
     id="defs6" /><g
     transform="matrix(1.25,0,0,-1.25,0,36.25)"
     id="g10"><g
       transform="scale(0.1,0.1)"
       id="g12"><path
         id="path14"
         style="fill:#02709f;fill-opacity:1;fill-rule:nonzero;stroke:none"
         d="m 255.16,62.3789 c 0,38.4021 -38.398,67.1911 -86.41,67.1911 -43.199,0 -81.6016,-28.789 -81.6016,-67.1911 0,-33.5898 38.4026,-62.4179625 81.6016,-62.4179625 48.012,0 86.41,28.8281625 86.41,62.4179625" /><path
         id="path16"
         style="fill:none;stroke:#ffffff;stroke-width:3.99993992;stroke-linecap:butt;stroke-linejoin:miter;stroke-miterlimit:4;stroke-dasharray:none;stroke-opacity:1"
         d="m 255.16,62.3789 c 0,38.4021 -38.398,67.1911 -86.41,67.1911 -43.199,0 -81.6016,-28.789 -81.6016,-67.1911 0,-33.5898 38.4026,-62.4179625 81.6016,-62.4179625 48.012,0 86.41,28.8281625 86.41,62.4179625 z" /><path
         id="path18"
         style="fill:#02709f;fill-opacity:1;fill-rule:evenodd;stroke:none"
         d="m 226.328,64.4883 33.633,0 23.988,-4.7969 33.59,0 9.609,4.7969 4.801,9.6133 4.813,9.5703 -4.813,14.4179 -28.789,28.7892 -19.211,24.019 -23.988,23.981 -14.41,19.223 -14.422,23.988 -14.367,19.211 -14.422,23.988 -4.801,19.223 -19.18,9.609 -14.41,0 -19.219,-9.609 -4.769,-14.422 -9.609,-19.18 -14.411,-19.211 -9.57,-19.179 L 77.5391,170.121 58.3594,146.09 10.3516,98.0898 5.55078,88.4805 l 0,-4.8086 9.60942,-19.1836 9.6093,0 9.5703,-4.7969 19.211,0 19.1797,4.7969 153.5975,0" /><path
         id="path20"
         style="fill:#02709f;fill-opacity:1;fill-rule:nonzero;stroke:none"
         d="m 259.961,146.09 c 0,38.398 -43.199,67.23 -91.211,67.23 -48.012,0 -86.4102,-28.832 -86.4102,-67.23 0,-38.391 38.3982,-67.2189 86.4102,-67.2189 48.012,0 91.211,28.8279 91.211,67.2189" /><path
         id="path22"
         style="fill:none;stroke:#ffffff;stroke-width:3.99993992;stroke-linecap:butt;stroke-linejoin:miter;stroke-miterlimit:4;stroke-dasharray:none;stroke-opacity:1"
         d="m 259.961,146.09 c 0,38.398 -43.199,67.23 -91.211,67.23 -48.012,0 -86.4102,-28.832 -86.4102,-67.23 0,-38.391 38.3982,-67.2189 86.4102,-67.2189 48.012,0 91.211,28.8279 91.211,67.2189 z" /><path
         id="path24"
         style="fill:#ffffff;fill-opacity:1;fill-rule:nonzero;stroke:none"
         d="m 178.359,256.488 4.80078,0 0,33.6328 -4.80078,0 0,-33.6328 z" /><path
         id="path26"
         style="fill:#ffffff;fill-opacity:1;fill-rule:nonzero;stroke:none"
         d="m 168.75,256.488 4.80078,0 0,33.6328 -4.80078,0 0,-33.6328 z" /><path
         id="path28"
         style="fill:#ffffff;fill-opacity:1;fill-rule:nonzero;stroke:none"
         d="m 159.141,256.488 4.80078,0 0,33.6328 -4.80078,0 0,-33.6328 z" /><path
         id="path30"
         style="fill:#ffffff;fill-opacity:1;fill-rule:nonzero;stroke:none"
         d="m 11.0898,62.8906 2.7813,-3.9101 27.418,19.4179 -2.7696,3.9414 -27.4297,-19.4492" /><path
         id="path32"
         style="fill:#ffffff;fill-opacity:1;fill-rule:nonzero;stroke:none"
         d="M 5.55078,70.7383 8.32031,66.8008 35.7383,86.25 32.9688,90.1602 5.55078,70.7383" /><path
         id="path34"
         style="fill:#ffffff;fill-opacity:1;fill-rule:nonzero;stroke:none"
         d="M 0,78.5508 2.76953,74.6484 30.1992,94.0586 27.4219,98.0117 0,78.5508" /><path
         id="path36"
         style="fill:#ffffff;fill-opacity:1;fill-rule:nonzero;stroke:none"
         d="m 333.871,62.8906 -2.781,-3.9101 -27.418,19.4179 2.777,3.9414 27.422,-19.4492" /><path
         id="path38"
         style="fill:#ffffff;fill-opacity:1;fill-rule:nonzero;stroke:none"
         d="m 339.41,70.7383 -2.769,-3.9375 -27.422,19.4492 2.769,3.9102 27.422,-19.4219" /><path
         id="path40"
         style="fill:#ffffff;fill-opacity:1;fill-rule:nonzero;stroke:none"
         d="m 344.961,78.5508 -2.77,-3.9024 -27.421,19.4102 2.769,3.9531 27.422,-19.4609" /><path
         id="path42"
         style="fill:#000000;fill-opacity:1;fill-rule:evenodd;stroke:none"
         d="m 143.52,50.6211 14.6914,0 0,7.96875 -14.6914,0 0,-7.96875 z" /><path
         id="path44"
         style="fill:none;stroke:#ffffff;stroke-width:3.2000699;stroke-linecap:butt;stroke-linejoin:miter;stroke-miterlimit:4;stroke-dasharray:none;stroke-opacity:1"
         d="m 143.52,50.6211 14.6914,0 0,7.96875 -14.6914,0 0,-7.96875 z" /><path
         id="path46"
         style="fill:#000000;fill-opacity:1;fill-rule:evenodd;stroke:none"
         d="m 162.191,50.6211 14.6875,0 0,7.96875 -14.6875,0 0,-7.96875 z" /><path
         id="path48"
         style="fill:none;stroke:#ffffff;stroke-width:3.2000699;stroke-linecap:butt;stroke-linejoin:miter;stroke-miterlimit:4;stroke-dasharray:none;stroke-opacity:1"
         d="m 162.191,50.6211 14.6875,0 0,7.96875 -14.6875,0 0,-7.96875 z" /><path
         id="path50"
         style="fill:#000000;fill-opacity:1;fill-rule:evenodd;stroke:none"
         d="m 180.859,50.6211 14.6914,0 0,7.96875 -14.6914,0 0,-7.96875 z" /><path
         id="path52"
         style="fill:none;stroke:#ffffff;stroke-width:3.2000699;stroke-linecap:butt;stroke-linejoin:miter;stroke-miterlimit:4;stroke-dasharray:none;stroke-opacity:1"
         d="m 180.859,50.6211 14.6914,0 0,7.96875 -14.6914,0 0,-7.96875 z" /><path
         id="path54"
         style="fill:#000000;fill-opacity:1;fill-rule:evenodd;stroke:none"
         d="m 143.52,37.2617 14.6914,0 0,8.00781 -14.6914,0 0,-8.00781 z" /><path
         id="path56"
         style="fill:none;stroke:#ffffff;stroke-width:3.2000699;stroke-linecap:butt;stroke-linejoin:miter;stroke-miterlimit:4;stroke-dasharray:none;stroke-opacity:1"
         d="m 143.52,37.2617 14.6914,0 0,8.00781 -14.6914,0 0,-8.00781 z" /><path
         id="path58"
         style="fill:#000000;fill-opacity:1;fill-rule:evenodd;stroke:none"
         d="m 162.191,37.2617 14.6875,0 0,8.00781 -14.6875,0 0,-8.00781 z" /><path
         id="path60"
         style="fill:none;stroke:#ffffff;stroke-width:3.2000699;stroke-linecap:butt;stroke-linejoin:miter;stroke-miterlimit:4;stroke-dasharray:none;stroke-opacity:1"
         d="m 162.191,37.2617 14.6875,0 0,8.00781 -14.6875,0 0,-8.00781 z" /><path
         id="path62"
         style="fill:#000000;fill-opacity:1;fill-rule:evenodd;stroke:none"
         d="m 180.859,37.2617 14.6914,0 0,8.00781 -14.6914,0 0,-8.00781 z" /><path
         id="path64"
         style="fill:none;stroke:#ffffff;stroke-width:3.2000699;stroke-linecap:butt;stroke-linejoin:miter;stroke-miterlimit:4;stroke-dasharray:none;stroke-opacity:1"
         d="m 180.859,37.2617 14.6914,0 0,8.00781 -14.6914,0 0,-8.00781 z" /><path
         id="path66"
         style="fill:#000000;fill-opacity:1;fill-rule:evenodd;stroke:none"
         d="m 143.52,23.9414 14.6914,0 0,8.00781 -14.6914,0 0,-8.00781 z" /><path
         id="path68"
         style="fill:none;stroke:#ffffff;stroke-width:3.2000699;stroke-linecap:butt;stroke-linejoin:miter;stroke-miterlimit:4;stroke-dasharray:none;stroke-opacity:1"
         d="m 143.52,23.9414 14.6914,0 0,8.00781 -14.6914,0 0,-8.00781 z" /><path
         id="path70"
         style="fill:#000000;fill-opacity:1;fill-rule:evenodd;stroke:none"
         d="m 162.191,23.9414 14.6875,0 0,8.00781 -14.6875,0 0,-8.00781 z" /><path
         id="path72"
         style="fill:none;stroke:#ffffff;stroke-width:3.2000699;stroke-linecap:butt;stroke-linejoin:miter;stroke-miterlimit:4;stroke-dasharray:none;stroke-opacity:1"
         d="m 162.191,23.9414 14.6875,0 0,8.00781 -14.6875,0 0,-8.00781 z" /><path
         id="path74"
         style="fill:#000000;fill-opacity:1;fill-rule:evenodd;stroke:none"
         d="m 180.859,23.9414 14.6914,0 0,8.00781 -14.6914,0 0,-8.00781 z" /><path
         id="path76"
         style="fill:none;stroke:#ffffff;stroke-width:3.2000699;stroke-linecap:butt;stroke-linejoin:miter;stroke-miterlimit:4;stroke-dasharray:none;stroke-opacity:1"
         d="m 180.859,23.9414 14.6914,0 0,8.00781 -14.6914,0 0,-8.00781 z" /></g></g></svg>