<?xml version="1.0" encoding="UTF-8" standalone="no"?>
<svg
   xmlns:dc="http://purl.org/dc/elements/1.1/"
   xmlns:cc="http://creativecommons.org/ns#"
   xmlns:rdf="http://www.w3.org/1999/02/22-rdf-syntax-ns#"
   xmlns:svg="http://www.w3.org/2000/svg"
   xmlns="http://www.w3.org/2000/svg"
   xmlns:sodipodi="http://sodipodi.sourceforge.net/DTD/sodipodi-0.dtd"
   xmlns:inkscape="http://www.inkscape.org/namespaces/inkscape"
   viewBox="0 0 42.5 36.25"
   height="36.25"
   width="42.5"
   xml:space="preserve"
   version="1.1"
   id="svg2"
   inkscape:version="0.91 r13725"
   sodipodi:docname="octel.svg"><sodipodi:namedview
     pagecolor="#ffffff"
     bordercolor="#666666"
     borderopacity="1"
     objecttolerance="10"
     gridtolerance="10"
     guidetolerance="10"
     inkscape:pageopacity="0"
     inkscape:pageshadow="2"
     inkscape:window-width="448"
     inkscape:window-height="438"
     id="namedview43"
     showgrid="false"
     inkscape:zoom="6.4635397"
     inkscape:cx="21.5625"
     inkscape:cy="18.00625"
     inkscape:window-x="0"
     inkscape:window-y="23"
     inkscape:window-maximized="0"
     inkscape:current-layer="svg2" /><metadata
     id="metadata8"><rdf:RDF><cc:Work
         rdf:about=""><dc:format>image/svg+xml</dc:format><dc:type
           rdf:resource="http://purl.org/dc/dcmitype/StillImage" /></cc:Work></rdf:RDF></metadata><defs
     id="defs6"><clipPath
       id="clipPath18"
       clipPathUnits="userSpaceOnUse"><path
         id="path20"
         d="M 0,2 0,292 340,292 340,2 0,2 Z"
         inkscape:connector-curvature="0" /></clipPath></defs><g
     transform="matrix(1.25,0,0,-1.25,0,36.5)"
     id="g10"><g
       transform="scale(0.1,0.1)"
       id="g12"><g
         id="g14"><g
           clip-path="url(#clipPath18)"
           id="g16"><path
             id="path22"
             style="fill:#02709f;fill-opacity:1;fill-rule:nonzero;stroke:none"
             d="m 255.152,64.3945 c 0,38.3985 -38.398,67.1875 -86.406,67.1875 -43.199,0 -81.5976,-28.789 -81.5976,-67.1875 0,-33.6132 38.3986,-62.42184 81.5976,-62.42184 48.008,0 86.406,28.80864 86.406,62.42184"
             inkscape:connector-curvature="0" /><path
             id="path24"
             style="fill:none;stroke:#ffffff;stroke-width:3.99993992;stroke-linecap:butt;stroke-linejoin:miter;stroke-miterlimit:4;stroke-dasharray:none;stroke-opacity:1"
             d="m 255.152,64.3945 c 0,38.3985 -38.398,67.1875 -86.406,67.1875 -43.199,0 -81.5976,-28.789 -81.5976,-67.1875 0,-33.6132 38.3986,-62.42184 81.5976,-62.42184 48.008,0 86.406,28.80864 86.406,62.42184 z"
             inkscape:connector-curvature="0" /><path
             id="path26"
             style="fill:#02709f;fill-opacity:1;fill-rule:evenodd;stroke:none"
             d="m 226.344,66.4844 33.613,0 24.004,-4.7852 33.594,0 9.609,4.7852 4.785,9.6094 4.805,9.5898 -4.805,14.4144 -28.789,28.789 -19.199,24.015 -24.004,23.993 -14.394,19.21 -14.415,23.993 -14.394,19.211 -14.414,23.992 -4.785,19.191 -19.2,9.61 -14.414,0 -19.195,-9.61 -4.797,-14.394 -9.597,-19.2 L 115.945,229.699 106.348,210.5 77.5469,172.102 58.3477,148.086 10.3516,100.098 5.54688,90.4883 l 0,-4.8047 9.60942,-19.1992 9.5898,0 9.5977,-4.7852 19.2109,0 19.1875,4.7852 153.6018,0"
             inkscape:connector-curvature="0" /><path
             id="path28"
             style="fill:#02709f;fill-opacity:1;fill-rule:nonzero;stroke:none"
             d="m 259.957,148.086 c 0,38.41 -43.203,67.219 -91.211,67.219 -48.004,0 -86.4022,-28.809 -86.4022,-67.219 0,-38.398 38.3982,-67.2071 86.4022,-67.2071 48.008,0 91.211,28.8091 91.211,67.2071"
             inkscape:connector-curvature="0" /><path
             id="path30"
             style="fill:none;stroke:#ffffff;stroke-width:3.99993992;stroke-linecap:butt;stroke-linejoin:miter;stroke-miterlimit:4;stroke-dasharray:none;stroke-opacity:1"
             d="m 259.957,148.086 c 0,38.41 -43.203,67.219 -91.211,67.219 -48.004,0 -86.4022,-28.809 -86.4022,-67.219 0,-38.398 38.3982,-67.2071 86.4022,-67.2071 48.008,0 91.211,28.8091 91.211,67.2071 z"
             inkscape:connector-curvature="0" /><path
             id="path32"
             style="fill:#ffffff;fill-opacity:1;fill-rule:nonzero;stroke:none"
             d="m 178.355,258.496 4.80469,0 0,33.6055 -4.80469,0 0,-33.6055 z"
             inkscape:connector-curvature="0" /><path
             id="path34"
             style="fill:#ffffff;fill-opacity:1;fill-rule:nonzero;stroke:none"
             d="m 168.746,258.496 4.80469,0 0,33.6055 -4.80469,0 0,-33.6055 z"
             inkscape:connector-curvature="0" /><path
             id="path36"
             style="fill:#ffffff;fill-opacity:1;fill-rule:nonzero;stroke:none"
             d="m 159.148,258.496 4.79297,0 0,33.6055 -4.79297,0 0,-33.6055 z"
             inkscape:connector-curvature="0" /><path
             id="path38"
             style="fill:#ffffff;fill-opacity:1;fill-rule:nonzero;stroke:none"
             d="m 11.0938,64.9023 2.7734,-3.9257 27.4219,19.4336 -2.7813,3.9257 -27.414,-19.4336"
             inkscape:connector-curvature="0" /><path
             id="path40"
             style="fill:#ffffff;fill-opacity:1;fill-rule:nonzero;stroke:none"
             d="M 5.54688,72.7344 8.32031,68.8086 35.7305,88.2422 32.9609,92.168 5.54688,72.7344"
             inkscape:connector-curvature="0" /><path
             id="path42"
             style="fill:#ffffff;fill-opacity:1;fill-rule:nonzero;stroke:none"
             d="M 0,80.5664 2.77344,76.6602 30.1836,96.0742 27.4102,100 0,80.5664"
             inkscape:connector-curvature="0" /><path
             id="path44"
             style="fill:#ffffff;fill-opacity:1;fill-rule:nonzero;stroke:none"
             d="m 333.883,64.9023 -2.793,-3.9257 -27.402,19.4336 2.773,3.9257 27.422,-19.4336"
             inkscape:connector-curvature="0" /><path
             id="path46"
             style="fill:#ffffff;fill-opacity:1;fill-rule:nonzero;stroke:none"
             d="m 339.43,72.7344 -2.774,-3.9258 -27.422,19.4336 2.774,3.9258 27.422,-19.4336"
             inkscape:connector-curvature="0" /><path
             id="path48"
             style="fill:#ffffff;fill-opacity:1;fill-rule:nonzero;stroke:none"
             d="m 344.977,80.5664 -2.774,-3.9062 -27.422,19.414 2.774,3.9258 27.422,-19.4336"
             inkscape:connector-curvature="0" /><path
             id="path50"
             style="fill:#000000;fill-opacity:1;fill-rule:evenodd;stroke:none"
             d="m 143.535,52.6172 14.668,0 0,7.98828 -14.668,0 0,-7.98828 z"
             inkscape:connector-curvature="0" /><path
             id="path52"
             style="fill:none;stroke:#ffffff;stroke-width:3.2000699;stroke-linecap:butt;stroke-linejoin:miter;stroke-miterlimit:4;stroke-dasharray:none;stroke-opacity:1"
             d="m 143.535,52.6172 14.668,0 0,7.98828 -14.668,0 0,-7.98828 z"
             inkscape:connector-curvature="0" /><path
             id="path54"
             style="fill:#000000;fill-opacity:1;fill-rule:evenodd;stroke:none"
             d="m 162.203,52.6172 14.668,0 0,7.98828 -14.668,0 0,-7.98828 z"
             inkscape:connector-curvature="0" /><path
             id="path56"
             style="fill:none;stroke:#ffffff;stroke-width:3.2000699;stroke-linecap:butt;stroke-linejoin:miter;stroke-miterlimit:4;stroke-dasharray:none;stroke-opacity:1"
             d="m 162.203,52.6172 14.668,0 0,7.98828 -14.668,0 0,-7.98828 z"
             inkscape:connector-curvature="0" /><path
             id="path58"
             style="fill:#000000;fill-opacity:1;fill-rule:evenodd;stroke:none"
             d="m 180.875,52.6172 14.668,0 0,7.98828 -14.668,0 0,-7.98828 z"
             inkscape:connector-curvature="0" /><path
             id="path60"
             style="fill:none;stroke:#ffffff;stroke-width:3.2000699;stroke-linecap:butt;stroke-linejoin:miter;stroke-miterlimit:4;stroke-dasharray:none;stroke-opacity:1"
             d="m 180.875,52.6172 14.668,0 0,7.98828 -14.668,0 0,-7.98828 z"
             inkscape:connector-curvature="0" /><path
             id="path62"
             style="fill:#000000;fill-opacity:1;fill-rule:evenodd;stroke:none"
             d="m 143.535,39.2773 14.668,0 0,8.00781 -14.668,0 0,-8.00781 z"
             inkscape:connector-curvature="0" /><path
             id="path64"
             style="fill:none;stroke:#ffffff;stroke-width:3.2000699;stroke-linecap:butt;stroke-linejoin:miter;stroke-miterlimit:4;stroke-dasharray:none;stroke-opacity:1"
             d="m 143.535,39.2773 14.668,0 0,8.00781 -14.668,0 0,-8.00781 z"
             inkscape:connector-curvature="0" /><path
             id="path66"
             style="fill:#000000;fill-opacity:1;fill-rule:evenodd;stroke:none"
             d="m 162.203,39.2773 14.668,0 0,8.00781 -14.668,0 0,-8.00781 z"
             inkscape:connector-curvature="0" /><path
             id="path68"
             style="fill:none;stroke:#ffffff;stroke-width:3.2000699;stroke-linecap:butt;stroke-linejoin:miter;stroke-miterlimit:4;stroke-dasharray:none;stroke-opacity:1"
             d="m 162.203,39.2773 14.668,0 0,8.00781 -14.668,0 0,-8.00781 z"
             inkscape:connector-curvature="0" /><path
             id="path70"
             style="fill:#000000;fill-opacity:1;fill-rule:evenodd;stroke:none"
             d="m 180.875,39.2773 14.668,0 0,8.00781 -14.668,0 0,-8.00781 z"
             inkscape:connector-curvature="0" /><path
             id="path72"
             style="fill:none;stroke:#ffffff;stroke-width:3.2000699;stroke-linecap:butt;stroke-linejoin:miter;stroke-miterlimit:4;stroke-dasharray:none;stroke-opacity:1"
             d="m 180.875,39.2773 14.668,0 0,8.00781 -14.668,0 0,-8.00781 z"
             inkscape:connector-curvature="0" /><path
             id="path74"
             style="fill:#000000;fill-opacity:1;fill-rule:evenodd;stroke:none"
             d="m 143.535,25.9375 14.668,0 0,8.00781 -14.668,0 0,-8.00781 z"
             inkscape:connector-curvature="0" /><path
             id="path76"
             style="fill:none;stroke:#ffffff;stroke-width:3.2000699;stroke-linecap:butt;stroke-linejoin:miter;stroke-miterlimit:4;stroke-dasharray:none;stroke-opacity:1"
             d="m 143.535,25.9375 14.668,0 0,8.00781 -14.668,0 0,-8.00781 z"
             inkscape:connector-curvature="0" /><path
             id="path78"
             style="fill:#000000;fill-opacity:1;fill-rule:evenodd;stroke:none"
             d="m 162.203,25.9375 14.668,0 0,8.00781 -14.668,0 0,-8.00781 z"
             inkscape:connector-curvature="0" /><path
             id="path80"
             style="fill:none;stroke:#ffffff;stroke-width:3.2000699;stroke-linecap:butt;stroke-linejoin:miter;stroke-miterlimit:4;stroke-dasharray:none;stroke-opacity:1"
             d="m 162.203,25.9375 14.668,0 0,8.00781 -14.668,0 0,-8.00781 z"
             inkscape:connector-curvature="0" /><path
             id="path82"
             style="fill:#000000;fill-opacity:1;fill-rule:evenodd;stroke:none"
             d="m 180.875,25.9375 14.668,0 0,8.00781 -14.668,0 0,-8.00781 z"
             inkscape:connector-curvature="0" /><path
             id="path84"
             style="fill:none;stroke:#ffffff;stroke-width:3.2000699;stroke-linecap:butt;stroke-linejoin:miter;stroke-miterlimit:4;stroke-dasharray:none;stroke-opacity:1"
             d="m 180.875,25.9375 14.668,0 0,8.00781 -14.668,0 0,-8.00781 z"
             inkscape:connector-curvature="0" /></g></g></g></g></svg>