<svg xmlns="http://www.w3.org/2000/svg" viewBox="0 0 47.5 46.25" height="46.25" width="47.5"><defs><clipPath id="a"><path d="M0 9v352h379V9H0z"/></clipPath></defs><g clip-path="url(#a)" transform="matrix(.13 0 0 -.13 0 46.25)"><path d="M373.949 355.566l-61.609-58.519H5.781l74.38 58.519h293.788" fill="#026c9b"/><path d="M373.949 355.566l-61.609-58.519H5.781l74.38 58.519h293.788z" fill="none" stroke="#fff" stroke-width="4"/><path d="M5.781 11.887h306.56v285.16H5.78V11.887z" fill="#026c9b"/><path d="M5.781 11.887h306.56v285.16H5.78V11.887z" fill="none" stroke="#fff" stroke-width="4"/><path d="M366.91 70.488v285.16l-57.14-58.601V11.898l57.14 58.59" fill="#026c9b"/><path d="M366.91 70.488v285.16l-57.14-58.601V11.898l57.14 58.59z" fill="none" stroke="#fff" stroke-width="4"/><path d="M21.05 34.945H295v240.313H21.05V34.945z" fill="#026c9b"/><path d="M21.05 34.945H295v240.313H21.05V34.945z" fill="none" stroke="#fff" stroke-width="4"/><path d="M131.371 168.457l-96.992-31.988" fill="none" stroke="#fff" stroke-width="4.8" stroke-dasharray="12,12"/><path d="M176.371 192.477l118.469 43.992v-25.981l-118.469-18.011" fill="#026c9b"/><path d="M176.371 192.477l118.469 43.992v-25.981l-118.469-18.011z" fill="none" stroke="#fff" stroke-width="4"/><path d="M176.371 192.477l118.469 15.98v-25.98l-118.469 10" fill="#026c9b"/><path d="M176.371 192.477l118.469 15.98v-25.98l-118.469 10" fill="none" stroke="#fff" stroke-width="4"/><path d="M176.371 192.477l118.469-10.231v-25.98l-118.469 36.211" fill="#026c9b"/><path d="M176.371 192.477l118.469-10.231v-25.98l-118.469 36.211" fill="none" stroke="#fff" stroke-width="4"/><path d="M255.621 56.508H68.398l93.633 187.219 93.59-187.22" fill="#fff"/><path d="M149.219 134.785l-18.399 18.363 3.129 3.118-11.527 2.351 2.348-11.57 3.082 3.129 18.398-18.36 2.969 2.969M142.5 122.758h-25.98v4.41l-9.84-6.52 9.84-6.492v4.422h25.98v4.18M146.25 109.477l-18.398-18.36-3.082 3.121-2.348-11.562 11.527 2.34-3.129 3.132 18.399 18.36-2.969 2.969M158.281 102.758v-25.98h-4.41l6.481-9.801 6.527 9.8h-4.418v25.981h-4.18M158.281 137.797v25.969h-4.41l6.481 9.812 6.527-9.812h-4.418v-25.969h-4.18M171.52 106.508l18.402-18.36-3.121-3.132 11.558-2.34-2.339 11.562-3.129-3.12-18.403 18.359-2.968-2.969M178.238 118.578h26.024v-4.422l9.797 6.492-9.797 6.52v-4.41h-26.024v-4.18M174.488 131.816l18.403 18.36 3.129-3.129 2.339 11.57-11.558-2.351 3.121-3.118-18.402-18.363 2.968-2.969" fill="#026c9b"/><path d="M176.328 98.656c12.262 8.59 15.231 25.5 6.641 37.731-8.59 12.269-25.469 15.269-37.739 6.679-12.261-8.589-15.23-25.507-6.679-37.73 8.597-12.309 25.508-15.277 37.777-6.68" fill="#026c9b"/><path d="M176.328 98.656c12.262 8.59 15.231 25.5 6.641 37.731-8.59 12.269-25.469 15.269-37.739 6.679-12.261-8.589-15.23-25.507-6.679-37.73 8.597-12.309 25.508-15.277 37.777-6.68z" fill="none" stroke="#fff" stroke-width="4"/></g></svg>