<?xml version="1.0" encoding="UTF-8" standalone="no"?>
<svg
   xmlns:dc="http://purl.org/dc/elements/1.1/"
   xmlns:cc="http://creativecommons.org/ns#"
   xmlns:rdf="http://www.w3.org/1999/02/22-rdf-syntax-ns#"
   xmlns:svg="http://www.w3.org/2000/svg"
   xmlns="http://www.w3.org/2000/svg"
   viewBox="0 0 47.375 44.200001"
   height="44.200001"
   width="47.375"
   xml:space="preserve"
   version="1.1"
   id="svg2"><metadata
     id="metadata8"><rdf:RDF><cc:Work
         rdf:about=""><dc:format>image/svg+xml</dc:format><dc:type
           rdf:resource="http://purl.org/dc/dcmitype/StillImage" /></cc:Work></rdf:RDF></metadata><defs
     id="defs6"><clipPath
       id="clipPath18"
       clipPathUnits="userSpaceOnUse"><path
         id="path20"
         d="M 0,3 0,354 379,354 379,3 0,3 Z" /></clipPath></defs><g
     transform="matrix(1.25,0,0,-1.25,0,44.2)"
     id="g10"><g
       transform="scale(0.1,0.1)"
       id="g12"><g
         id="g14"><g
           clip-path="url(#clipPath18)"
           id="g16"><path
             id="path22"
             style="fill:#026c9b;fill-opacity:1;fill-rule:nonzero;stroke:none"
             d="m 373.965,348.555 -61.621,-58.496 -306.56275,0 74.39455,58.496 293.7892,0" /><path
             id="path24"
             style="fill:none;stroke:#ffffff;stroke-width:4;stroke-linecap:butt;stroke-linejoin:miter;stroke-miterlimit:4;stroke-dasharray:none;stroke-opacity:1"
             d="m 373.965,348.555 -61.621,-58.496 -306.56275,0 74.39455,58.496 293.7892,0 z" /><path
             id="path26"
             style="fill:#026c9b;fill-opacity:1;fill-rule:nonzero;stroke:none"
             d="m 5.78125,4.91016 306.563,0 0,285.148 -306.563,0 0,-285.148 z" /><path
             id="path28"
             style="fill:none;stroke:#ffffff;stroke-width:4;stroke-linecap:butt;stroke-linejoin:miter;stroke-miterlimit:4;stroke-dasharray:none;stroke-opacity:1"
             d="m 5.78125,4.91016 306.563,0 0,285.148 -306.563,0 0,-285.148 z" /><path
             id="path30"
             style="fill:#026c9b;fill-opacity:1;fill-rule:nonzero;stroke:none"
             d="m 366.934,63.5078 0,285.1442 -57.149,-58.593 0,-285.14884 57.149,58.59764" /><path
             id="path32"
             style="fill:none;stroke:#ffffff;stroke-width:4;stroke-linecap:butt;stroke-linejoin:miter;stroke-miterlimit:4;stroke-dasharray:none;stroke-opacity:1"
             d="m 366.934,63.5078 0,285.1442 -57.149,-58.593 0,-285.14884 57.149,58.59764 z" /><path
             id="path34"
             style="fill:#026c9b;fill-opacity:1;fill-rule:nonzero;stroke:none"
             d="m 21.0742,27.9375 273.926,0 0,240.332 -273.926,0 0,-240.332 z" /><path
             id="path36"
             style="fill:none;stroke:#ffffff;stroke-width:4;stroke-linecap:butt;stroke-linejoin:miter;stroke-miterlimit:4;stroke-dasharray:none;stroke-opacity:1"
             d="m 21.0742,27.9375 273.926,0 0,240.332 -273.926,0 0,-240.332 z" /><path
             id="path38"
             style="fill:none;stroke:#ffffff;stroke-width:4.80000019;stroke-linecap:butt;stroke-linejoin:miter;stroke-miterlimit:4;stroke-dasharray:12, 12;stroke-dashoffset:0;stroke-opacity:1"
             d="m 131.387,161.473 -97.012,-32" /><path
             id="path40"
             style="fill:#026c9b;fill-opacity:1;fill-rule:nonzero;stroke:none"
             d="m 176.387,185.477 118.476,43.996 0,-25.996 -118.476,-18" /><path
             id="path42"
             style="fill:none;stroke:#ffffff;stroke-width:4;stroke-linecap:butt;stroke-linejoin:miter;stroke-miterlimit:4;stroke-dasharray:none;stroke-opacity:1"
             d="m 176.387,185.477 118.476,43.996 0,-25.996 -118.476,-18 z" /><path
             id="path44"
             style="fill:#026c9b;fill-opacity:1;fill-rule:nonzero;stroke:none"
             d="m 176.387,185.477 118.476,15.996 0,-26.004 -118.476,10.008" /><path
             id="path46"
             style="fill:none;stroke:#ffffff;stroke-width:4;stroke-linecap:butt;stroke-linejoin:miter;stroke-miterlimit:4;stroke-dasharray:none;stroke-opacity:1"
             d="m 176.387,185.477 118.476,15.996 0,-26.004 -118.476,10.008" /><path
             id="path48"
             style="fill:#026c9b;fill-opacity:1;fill-rule:nonzero;stroke:none"
             d="m 176.387,185.477 118.476,-10.235 0,-25.984 -118.476,36.219" /><path
             id="path50"
             style="fill:none;stroke:#ffffff;stroke-width:4;stroke-linecap:butt;stroke-linejoin:miter;stroke-miterlimit:4;stroke-dasharray:none;stroke-opacity:1"
             d="m 176.387,185.477 118.476,-10.235 0,-25.984 -118.476,36.219" /><path
             id="path52"
             style="fill:#ffffff;fill-opacity:1;fill-rule:nonzero;stroke:none"
             d="m 255.645,49.5039 -187.227,0 93.613,187.2231 93.614,-187.2231" /><path
             id="path54"
             style="fill:#026c9b;fill-opacity:1;fill-rule:nonzero;stroke:none"
             d="m 149.219,127.781 -18.379,18.379 3.125,3.117 -11.543,2.332 2.344,-11.543 3.105,3.118 18.379,-18.371 2.969,2.968" /><path
             id="path56"
             style="fill:#026c9b;fill-opacity:1;fill-rule:nonzero;stroke:none"
             d="m 142.5,115.754 -25.977,0 0,4.41 -9.824,-6.512 9.824,-6.504 0,4.415 25.977,0 0,4.191" /><path
             id="path58"
             style="fill:#026c9b;fill-opacity:1;fill-rule:nonzero;stroke:none"
             d="m 146.25,102.48 -18.379,-18.3706 -3.105,3.1172 -2.344,-11.5352 11.543,2.3438 -3.125,3.1171 18.379,18.3672 -2.969,2.9605" /><path
             id="path60"
             style="fill:#026c9b;fill-opacity:1;fill-rule:nonzero;stroke:none"
             d="m 158.301,95.7695 0,-25.9843 -4.414,0 6.484,-9.8164 6.524,9.8164 -4.415,0 0,25.9843 -4.179,0" /><path
             id="path62"
             style="fill:#026c9b;fill-opacity:1;fill-rule:nonzero;stroke:none"
             d="m 158.301,130.789 0,25.996 -4.414,0 6.484,9.797 6.524,-9.797 -4.415,0 0,-25.996 -4.179,0" /><path
             id="path64"
             style="fill:#026c9b;fill-opacity:1;fill-rule:nonzero;stroke:none"
             d="m 171.543,99.5195 18.379,-18.3672 -3.106,-3.1171 11.543,-2.3438 -2.343,11.5352 -3.125,-3.1172 -18.379,18.3706 -2.969,-2.9605" /><path
             id="path66"
             style="fill:#026c9b;fill-opacity:1;fill-rule:nonzero;stroke:none"
             d="m 178.262,111.563 25.996,0 0,-4.415 9.805,6.504 -9.805,6.512 0,-4.41 -25.996,0 0,-4.191" /><path
             id="path68"
             style="fill:#026c9b;fill-opacity:1;fill-rule:nonzero;stroke:none"
             d="m 174.512,124.813 18.379,18.371 3.125,-3.118 2.343,11.543 -11.543,-2.332 3.106,-3.117 -18.379,-18.379 2.969,-2.968" /><path
             id="path70"
             style="fill:#026c9b;fill-opacity:1;fill-rule:nonzero;stroke:none"
             d="m 176.348,91.6602 c 12.246,8.5738 15.234,25.4878 6.64,37.7418 -8.593,12.27 -25.468,15.246 -37.754,6.653 -12.246,-8.586 -15.234,-25.489 -6.66,-37.7347 8.594,-12.2734 25.508,-15.2539 37.774,-6.6601" /><path
             id="path72"
             style="fill:none;stroke:#ffffff;stroke-width:4;stroke-linecap:butt;stroke-linejoin:miter;stroke-miterlimit:4;stroke-dasharray:none;stroke-opacity:1"
             d="m 176.348,91.6602 c 12.246,8.5738 15.234,25.4878 6.64,37.7418 -8.593,12.27 -25.468,15.246 -37.754,6.653 -12.246,-8.586 -15.234,-25.489 -6.66,-37.7347 8.594,-12.2734 25.508,-15.2539 37.774,-6.6601 z" /></g></g></g></g></svg>