<?xml version="1.0" encoding="UTF-8" standalone="no"?>
<svg
   xmlns:dc="http://purl.org/dc/elements/1.1/"
   xmlns:cc="http://creativecommons.org/ns#"
   xmlns:rdf="http://www.w3.org/1999/02/22-rdf-syntax-ns#"
   xmlns:svg="http://www.w3.org/2000/svg"
   xmlns="http://www.w3.org/2000/svg"
   viewBox="0 0 47.5 46.25"
   height="46.25"
   width="47.5"
   xml:space="preserve"
   version="1.1"
   id="svg2"><metadata
     id="metadata8"><rdf:RDF><cc:Work
         rdf:about=""><dc:format>image/svg+xml</dc:format><dc:type
           rdf:resource="http://purl.org/dc/dcmitype/StillImage" /></cc:Work></rdf:RDF></metadata><defs
     id="defs6"><clipPath
       id="clipPath18"
       clipPathUnits="userSpaceOnUse"><path
         id="path20"
         d="M 0,9 0,361 379,361 379,9 0,9 Z" /></clipPath></defs><g
     transform="matrix(1.25,0,0,-1.25,0,46.25)"
     id="g10"><g
       transform="scale(0.1,0.1)"
       id="g12"><g
         id="g14"><g
           clip-path="url(#clipPath18)"
           id="g16"><path
             id="path22"
             style="fill:#026c9b;fill-opacity:1;fill-rule:nonzero;stroke:none"
             d="m 373.949,355.566 -61.609,-58.519 -306.55875,0 74.37895,58.519 293.7888,0" /><path
             id="path24"
             style="fill:none;stroke:#ffffff;stroke-width:4;stroke-linecap:butt;stroke-linejoin:miter;stroke-miterlimit:4;stroke-dasharray:none;stroke-opacity:1"
             d="m 373.949,355.566 -61.609,-58.519 -306.55875,0 74.37895,58.519 293.7888,0 z" /><path
             id="path26"
             style="fill:#026c9b;fill-opacity:1;fill-rule:nonzero;stroke:none"
             d="m 5.78125,11.8867 306.559,0 0,285.16 -306.559,0 0,-285.16 z" /><path
             id="path28"
             style="fill:none;stroke:#ffffff;stroke-width:4;stroke-linecap:butt;stroke-linejoin:miter;stroke-miterlimit:4;stroke-dasharray:none;stroke-opacity:1"
             d="m 5.78125,11.8867 306.559,0 0,285.16 -306.559,0 0,-285.16 z" /><path
             id="path30"
             style="fill:#026c9b;fill-opacity:1;fill-rule:nonzero;stroke:none"
             d="m 366.91,70.4883 0,285.1597 -57.14,-58.601 0,-285.1486 57.14,58.5899" /><path
             id="path32"
             style="fill:none;stroke:#ffffff;stroke-width:4;stroke-linecap:butt;stroke-linejoin:miter;stroke-miterlimit:4;stroke-dasharray:none;stroke-opacity:1"
             d="m 366.91,70.4883 0,285.1597 -57.14,-58.601 0,-285.1486 57.14,58.5899 z" /><path
             id="path34"
             style="fill:#026c9b;fill-opacity:1;fill-rule:nonzero;stroke:none"
             d="m 21.0508,34.9453 273.949,0 0,240.313 -273.949,0 0,-240.313 z" /><path
             id="path36"
             style="fill:none;stroke:#ffffff;stroke-width:4;stroke-linecap:butt;stroke-linejoin:miter;stroke-miterlimit:4;stroke-dasharray:none;stroke-opacity:1"
             d="m 21.0508,34.9453 273.949,0 0,240.313 -273.949,0 0,-240.313 z" /><path
             id="path38"
             style="fill:none;stroke:#ffffff;stroke-width:4.80000019;stroke-linecap:butt;stroke-linejoin:miter;stroke-miterlimit:4;stroke-dasharray:12, 12;stroke-dashoffset:0;stroke-opacity:1"
             d="M 131.371,168.457 34.3789,136.469" /><path
             id="path40"
             style="fill:#026c9b;fill-opacity:1;fill-rule:nonzero;stroke:none"
             d="m 176.371,192.477 118.469,43.992 0,-25.981 -118.469,-18.011" /><path
             id="path42"
             style="fill:none;stroke:#ffffff;stroke-width:4;stroke-linecap:butt;stroke-linejoin:miter;stroke-miterlimit:4;stroke-dasharray:none;stroke-opacity:1"
             d="m 176.371,192.477 118.469,43.992 0,-25.981 -118.469,-18.011 z" /><path
             id="path44"
             style="fill:#026c9b;fill-opacity:1;fill-rule:nonzero;stroke:none"
             d="m 176.371,192.477 118.469,15.98 0,-25.98 -118.469,10" /><path
             id="path46"
             style="fill:none;stroke:#ffffff;stroke-width:4;stroke-linecap:butt;stroke-linejoin:miter;stroke-miterlimit:4;stroke-dasharray:none;stroke-opacity:1"
             d="m 176.371,192.477 118.469,15.98 0,-25.98 -118.469,10" /><path
             id="path48"
             style="fill:#026c9b;fill-opacity:1;fill-rule:nonzero;stroke:none"
             d="m 176.371,192.477 118.469,-10.231 0,-25.98 -118.469,36.211" /><path
             id="path50"
             style="fill:none;stroke:#ffffff;stroke-width:4;stroke-linecap:butt;stroke-linejoin:miter;stroke-miterlimit:4;stroke-dasharray:none;stroke-opacity:1"
             d="m 176.371,192.477 118.469,-10.231 0,-25.98 -118.469,36.211" /><path
             id="path52"
             style="fill:#ffffff;fill-opacity:1;fill-rule:nonzero;stroke:none"
             d="m 255.621,56.5078 -187.2226,0 93.6326,187.2192 93.59,-187.2192" /><path
             id="path54"
             style="fill:#026c9b;fill-opacity:1;fill-rule:nonzero;stroke:none"
             d="m 149.219,134.785 -18.399,18.363 3.129,3.118 -11.527,2.351 2.348,-11.57 3.082,3.129 18.398,-18.36 2.969,2.969" /><path
             id="path56"
             style="fill:#026c9b;fill-opacity:1;fill-rule:nonzero;stroke:none"
             d="m 142.5,122.758 -25.98,0 0,4.41 -9.84,-6.52 9.84,-6.492 0,4.422 25.98,0 0,4.18" /><path
             id="path58"
             style="fill:#026c9b;fill-opacity:1;fill-rule:nonzero;stroke:none"
             d="m 146.25,109.477 -18.398,-18.3598 -3.082,3.1211 -2.348,-11.5625 11.527,2.3398 -3.129,3.1328 18.399,18.3596 -2.969,2.969" /><path
             id="path60"
             style="fill:#026c9b;fill-opacity:1;fill-rule:nonzero;stroke:none"
             d="m 158.281,102.758 0,-25.9807 -4.41,0 6.481,-9.8007 6.527,9.8007 -4.418,0 0,25.9807 -4.18,0" /><path
             id="path62"
             style="fill:#026c9b;fill-opacity:1;fill-rule:nonzero;stroke:none"
             d="m 158.281,137.797 0,25.969 -4.41,0 6.481,9.812 6.527,-9.812 -4.418,0 0,-25.969 -4.18,0" /><path
             id="path64"
             style="fill:#026c9b;fill-opacity:1;fill-rule:nonzero;stroke:none"
             d="m 171.52,106.508 18.402,-18.3596 -3.121,-3.1328 11.558,-2.3398 -2.339,11.5625 -3.129,-3.1211 -18.403,18.3598 -2.968,-2.969" /><path
             id="path66"
             style="fill:#026c9b;fill-opacity:1;fill-rule:nonzero;stroke:none"
             d="m 178.238,118.578 26.024,0 0,-4.422 9.797,6.492 -9.797,6.52 0,-4.41 -26.024,0 0,-4.18" /><path
             id="path68"
             style="fill:#026c9b;fill-opacity:1;fill-rule:nonzero;stroke:none"
             d="m 174.488,131.816 18.403,18.36 3.129,-3.129 2.339,11.57 -11.558,-2.351 3.121,-3.118 -18.402,-18.363 2.968,-2.969" /><path
             id="path70"
             style="fill:#026c9b;fill-opacity:1;fill-rule:nonzero;stroke:none"
             d="m 176.328,98.6563 c 12.262,8.5897 15.231,25.4997 6.641,37.7307 -8.59,12.269 -25.469,15.269 -37.739,6.679 -12.261,-8.589 -15.23,-25.507 -6.679,-37.73 8.597,-12.3087 25.508,-15.2774 37.777,-6.6797" /><path
             id="path72"
             style="fill:none;stroke:#ffffff;stroke-width:4;stroke-linecap:butt;stroke-linejoin:miter;stroke-miterlimit:4;stroke-dasharray:none;stroke-opacity:1"
             d="m 176.328,98.6563 c 12.262,8.5897 15.231,25.4997 6.641,37.7307 -8.59,12.269 -25.469,15.269 -37.739,6.679 -12.261,-8.589 -15.23,-25.507 -6.679,-37.73 8.597,-12.3087 25.508,-15.2774 37.777,-6.6797 z" /></g></g></g></g></svg>