<?xml version="1.0" encoding="UTF-8" standalone="no"?>
<svg
   xmlns:dc="http://purl.org/dc/elements/1.1/"
   xmlns:cc="http://creativecommons.org/ns#"
   xmlns:rdf="http://www.w3.org/1999/02/22-rdf-syntax-ns#"
   xmlns:svg="http://www.w3.org/2000/svg"
   xmlns="http://www.w3.org/2000/svg"
   viewBox="0 0 46.25 47.5"
   height="47.5"
   width="46.25"
   xml:space="preserve"
   version="1.1"
   id="svg2"><metadata
     id="metadata8"><rdf:RDF><cc:Work
         rdf:about=""><dc:format>image/svg+xml</dc:format><dc:type
           rdf:resource="http://purl.org/dc/dcmitype/StillImage" /></cc:Work></rdf:RDF></metadata><defs
     id="defs6" /><g
     transform="matrix(1.25,0,0,-1.25,0,47.5)"
     id="g10"><g
       transform="scale(0.1,0.1)"
       id="g12"><path
         id="path14"
         style="fill:#026c9b;fill-opacity:1;fill-rule:nonzero;stroke:none"
         d="m 364.73,307.52 c 0,-38.95 -81.21,-70.551 -181.371,-70.551 -100.1598,0 -181.37072,31.601 -181.37072,70.551 l 0,-225.0005 c 0,-38.9492 81.21092,-70.5078 181.37072,-70.5078 100.161,0 181.371,31.5586 181.371,70.5078 l 0,225.0005" /><path
         id="path16"
         style="fill:none;stroke:#ffffff;stroke-width:4;stroke-linecap:butt;stroke-linejoin:miter;stroke-miterlimit:4;stroke-dasharray:none;stroke-opacity:1"
         d="m 364.73,307.516 c 0,-38.95 -81.21,-70.547 -181.371,-70.547 -100.1598,0 -181.37072,31.597 -181.37072,70.547 l 0,-225.0004 c 0,-38.9492 81.21092,-70.5078 181.37072,-70.5078 100.161,0 181.371,31.5586 181.371,70.5078 l 0,225.0004 z" /><path
         id="path18"
         style="fill:#026c9b;fill-opacity:1;fill-rule:nonzero;stroke:none"
         d="m 183.398,236.66 c 100.043,0 181.172,31.52 181.172,70.43 0,38.898 -81.129,70.461 -181.172,70.461 -100.0777,0 -181.16753,-31.563 -181.16753,-70.461 0,-38.91 81.08983,-70.43 181.16753,-70.43" /><path
         id="path20"
         style="fill:none;stroke:#ffffff;stroke-width:4;stroke-linecap:butt;stroke-linejoin:miter;stroke-miterlimit:4;stroke-dasharray:none;stroke-opacity:1"
         d="m 183.398,236.656 c 100.043,0 181.172,31.52 181.172,70.43 0,38.91 -81.129,70.473 -181.172,70.473 -100.0777,0 -181.16753,-31.563 -181.16753,-70.473 0,-38.91 81.08983,-70.43 181.16753,-70.43 z" /><path
         id="path22"
         style="fill:#ffffff;fill-opacity:1;fill-rule:nonzero;stroke:none"
         d="m 140.699,349.16 74.301,7.262 -14.301,-23.75 -19.019,3.629 -111.1683,-41.992 -19.8906,5.472 108.8669,41.41 -18.789,7.969" /><path
         id="path24"
         style="fill:#ffffff;fill-opacity:1;fill-rule:nonzero;stroke:none"
         d="m 226.68,322.828 74.3,7.223 -14.3,-23.75 -18.981,3.679 -111.179,-42 -19.918,5.469 108.91,41.41 -18.832,7.969" /><path
         id="path26"
         style="fill:#ffffff;fill-opacity:1;fill-rule:nonzero;stroke:none"
         d="m 108.789,37.8711 0,47.9297 -28.9101,-23.0117 28.9101,-24.918" /><path
         id="path28"
         style="fill:#ffffff;fill-opacity:1;fill-rule:nonzero;stroke:none"
         d="m 248.051,222.551 0,-47.961 28.859,23.039 -28.859,24.922" /><path
         id="path30"
         style="fill:#ffffff;fill-opacity:1;fill-rule:nonzero;stroke:none"
         d="m 108.789,172.871 0,47.93 -28.9101,-23.012 28.9101,-24.918" /><path
         id="path32"
         style="fill:none;stroke:#ffffff;stroke-width:14.25;stroke-linecap:butt;stroke-linejoin:miter;stroke-miterlimit:4;stroke-dasharray:none;stroke-opacity:1"
         d="m 266.602,62.3164 -49.614,0 -67.297,135.8206 -51.3707,0" /><path
         id="path34"
         style="fill:none;stroke:#ffffff;stroke-width:14.25;stroke-linecap:butt;stroke-linejoin:miter;stroke-miterlimit:4;stroke-dasharray:none;stroke-opacity:1"
         d="m 98.6289,62.5586 47.9301,0 66.679,135.1484 51.961,0" /><path
         id="path36"
         style="fill:#ffffff;fill-opacity:1;fill-rule:nonzero;stroke:none"
         d="m 248.051,86.9297 0,-47.9688 28.859,23.0508 -28.859,24.918" /></g></g></svg>