<?xml version="1.0" encoding="UTF-8" standalone="no"?>
<svg
   xmlns:dc="http://purl.org/dc/elements/1.1/"
   xmlns:cc="http://creativecommons.org/ns#"
   xmlns:rdf="http://www.w3.org/1999/02/22-rdf-syntax-ns#"
   xmlns:svg="http://www.w3.org/2000/svg"
   xmlns="http://www.w3.org/2000/svg"
   viewBox="0 0 45.8125 46.1875"
   height="46.1875"
   width="45.8125"
   xml:space="preserve"
   version="1.1"
   id="svg2"><metadata
     id="metadata8"><rdf:RDF><cc:Work
         rdf:about=""><dc:format>image/svg+xml</dc:format><dc:type
           rdf:resource="http://purl.org/dc/dcmitype/StillImage" /></cc:Work></rdf:RDF></metadata><defs
     id="defs6" /><g
     transform="matrix(1.25,0,0,-1.25,0,46.1875)"
     id="g10"><g
       transform="scale(0.1,0.1)"
       id="g12"><path
         id="path14"
         style="fill:#026c9b;fill-opacity:1;fill-rule:nonzero;stroke:none"
         d="m 364.742,297.5 c 0,-38.953 -81.211,-70.527 -181.375,-70.527 C 83.2031,226.973 2,258.547 2,297.5 L 2,72.5195 C 2,33.5625 83.2031,1.99219 183.367,1.99219 c 100.164,0 181.375,31.57031 181.375,70.52731 l 0,224.9805" /><path
         id="path16"
         style="fill:none;stroke:#ffffff;stroke-width:4;stroke-linecap:butt;stroke-linejoin:miter;stroke-miterlimit:4;stroke-dasharray:none;stroke-opacity:1"
         d="m 364.742,297.5 c 0,-38.953 -81.211,-70.527 -181.375,-70.527 C 83.2031,226.973 2,258.547 2,297.5 L 2,72.5195 C 2,33.5625 83.2031,1.99219 183.367,1.99219 c 100.164,0 181.375,31.57031 181.375,70.52731 l 0,224.9805 z" /><path
         id="path18"
         style="fill:#026c9b;fill-opacity:1;fill-rule:nonzero;stroke:none"
         d="m 183.391,226.633 c 100.062,0 181.175,31.547 181.175,70.453 0,38.91 -81.113,70.453 -181.175,70.453 -100.059,0 -181.17225,-31.562 -181.17225,-70.453 0,-38.906 81.11325,-70.453 181.17225,-70.453" /><path
         id="path20"
         style="fill:none;stroke:#ffffff;stroke-width:4;stroke-linecap:butt;stroke-linejoin:miter;stroke-miterlimit:4;stroke-dasharray:none;stroke-opacity:1"
         d="m 183.391,226.633 c 100.062,0 181.175,31.547 181.175,70.453 0,38.91 -81.113,70.453 -181.175,70.453 -100.059,0 -181.17225,-31.562 -181.17225,-70.453 0,-38.906 81.11325,-70.453 181.17225,-70.453 z" /><path
         id="path22"
         style="fill:#ffffff;fill-opacity:1;fill-rule:nonzero;stroke:none"
         d="m 140.691,339.137 74.305,7.258 -14.305,-23.75 -18.992,3.668 -111.1912,-42 -19.8945,5.468 108.8787,41.414 -18.801,7.942" /><path
         id="path24"
         style="fill:#ffffff;fill-opacity:1;fill-rule:nonzero;stroke:none"
         d="m 226.695,312.801 74.297,7.262 -14.297,-23.75 -19.004,3.667 -111.187,-42.003 -19.883,5.468 108.883,41.418 -18.809,7.938" /><path
         id="path26"
         style="fill:#ffffff;fill-opacity:1;fill-rule:nonzero;stroke:none"
         d="m 108.777,27.8438 0,47.9531 L 79.8945,52.7695 108.777,27.8438" /><path
         id="path28"
         style="fill:#ffffff;fill-opacity:1;fill-rule:nonzero;stroke:none"
         d="m 248.043,212.535 0,-47.961 28.887,23.039 -28.887,24.922" /><path
         id="path30"
         style="fill:#ffffff;fill-opacity:1;fill-rule:nonzero;stroke:none"
         d="m 108.777,162.848 0,47.949 -28.8825,-23.027 28.8825,-24.922" /><path
         id="path32"
         style="fill:none;stroke:#ffffff;stroke-width:14.25;stroke-linecap:butt;stroke-linejoin:miter;stroke-miterlimit:4;stroke-dasharray:none;stroke-opacity:1"
         d="m 266.598,52.3281 -49.59,0 -67.328,135.8129 -51.348,0" /><path
         id="path34"
         style="fill:none;stroke:#ffffff;stroke-width:14.25;stroke-linecap:butt;stroke-linejoin:miter;stroke-miterlimit:4;stroke-dasharray:none;stroke-opacity:1"
         d="m 98.6445,52.5352 47.9105,0 66.703,135.1558 51.933,0" /><path
         id="path36"
         style="fill:#ffffff;fill-opacity:1;fill-rule:nonzero;stroke:none"
         d="m 248.043,76.9102 0,-47.9571 28.887,23.0352 -28.887,24.9219" /></g></g></svg>