<?xml version="1.0" encoding="UTF-8" standalone="no"?>
<svg
   xmlns:dc="http://purl.org/dc/elements/1.1/"
   xmlns:cc="http://creativecommons.org/ns#"
   xmlns:rdf="http://www.w3.org/1999/02/22-rdf-syntax-ns#"
   xmlns:svg="http://www.w3.org/2000/svg"
   xmlns="http://www.w3.org/2000/svg"
   viewBox="0 0 44.025002 38.1875"
   height="38.1875"
   width="44.025002"
   xml:space="preserve"
   version="1.1"
   id="svg2"><metadata
     id="metadata8"><rdf:RDF><cc:Work
         rdf:about=""><dc:format>image/svg+xml</dc:format><dc:type
           rdf:resource="http://purl.org/dc/dcmitype/StillImage" /></cc:Work></rdf:RDF></metadata><defs
     id="defs6"><clipPath
       id="clipPath18"
       clipPathUnits="userSpaceOnUse"><path
         id="path20"
         d="M 0,0 0,306 350,306 350,0 0,0 Z" /></clipPath></defs><g
     transform="matrix(1.25,0,0,-1.25,0,38.1875)"
     id="g10"><g
       transform="scale(0.1,0.1)"
       id="g12"><g
         id="g14"><g
           clip-path="url(#clipPath18)"
           id="g16"><path
             id="path22"
             style="fill:#026c9b;fill-opacity:1;fill-rule:nonzero;stroke:none"
             d="m 349,237.609 0,-168.4371 -83.965,-67.16799 -174.4842,0 -87.23439,67.16799 0,168.4371" /><path
             id="path24"
             style="fill:none;stroke:#ffffff;stroke-width:4;stroke-linecap:butt;stroke-linejoin:miter;stroke-miterlimit:4;stroke-dasharray:none;stroke-opacity:1"
             d="m 349,237.609 0,-168.4371 -83.965,-67.16799 -174.4842,0 -87.23439,67.16799 0,168.4371" /><path
             id="path26"
             style="fill:#026c9b;fill-opacity:1;fill-rule:nonzero;stroke:none"
             d="m 263.395,303.508 -171.1919,0 -88.88669,-65.899 87.23439,-67.168 174.4842,0 83.965,67.168 -85.605,65.899" /><path
             id="path28"
             style="fill:none;stroke:#ffffff;stroke-width:4;stroke-linecap:butt;stroke-linejoin:miter;stroke-miterlimit:4;stroke-dasharray:none;stroke-opacity:1"
             d="m 263.395,303.508 -171.1919,0 -88.88669,-65.899 87.23439,-67.168 174.4842,0 83.965,67.168 -85.605,65.899 z" /><path
             id="path30"
             style="fill:none;stroke:#ffffff;stroke-width:3.8499999;stroke-linecap:butt;stroke-linejoin:miter;stroke-miterlimit:4;stroke-dasharray:none;stroke-opacity:1"
             d="m 89.0391,3.07422 0,167.36678" /><path
             id="path32"
             style="fill:none;stroke:#ffffff;stroke-width:3.8499999;stroke-linecap:butt;stroke-linejoin:miter;stroke-miterlimit:4;stroke-dasharray:none;stroke-opacity:1"
             d="m 264.703,3.07422 0,167.36678" /><path
             id="path34"
             style="fill:none;stroke:#ffffff;stroke-width:5.7750001;stroke-linecap:butt;stroke-linejoin:miter;stroke-miterlimit:1;stroke-dasharray:none;stroke-opacity:1"
             d="m 178.492,286.75 0,-97.211" /><path
             id="path36"
             style="fill:none;stroke:#ffffff;stroke-width:5.7750001;stroke-linecap:butt;stroke-linejoin:miter;stroke-miterlimit:1;stroke-dasharray:none;stroke-opacity:1"
             d="m 270.121,238.145 -178.4452,0" /><path
             id="path38"
             style="fill:none;stroke:#ffffff;stroke-width:5.7750001;stroke-linecap:butt;stroke-linejoin:miter;stroke-miterlimit:1;stroke-dasharray:none;stroke-opacity:1"
             d="m 91.6758,281.887 43.4062,0 91.652,-92.348 38.575,0" /><path
             id="path40"
             style="fill:none;stroke:#ffffff;stroke-width:5.7750001;stroke-linecap:butt;stroke-linejoin:miter;stroke-miterlimit:1;stroke-dasharray:none;stroke-opacity:1"
             d="m 265.309,281.887 -38.575,0 -91.652,-92.348 -43.4062,0" /><path
             id="path42"
             style="fill:none;stroke:#ffffff;stroke-width:5.7750001;stroke-linecap:butt;stroke-linejoin:miter;stroke-miterlimit:1;stroke-dasharray:none;stroke-opacity:1"
             d="m 270.121,238.145 -178.4452,0" /><path
             id="path44"
             style="fill:none;stroke:#ffffff;stroke-width:5.7750001;stroke-linecap:butt;stroke-linejoin:miter;stroke-miterlimit:1;stroke-dasharray:none;stroke-opacity:1"
             d="m 91.6758,281.887 43.4062,0 91.652,-92.348 38.575,0" /><path
             id="path46"
             style="fill:none;stroke:#ffffff;stroke-width:5.7750001;stroke-linecap:butt;stroke-linejoin:miter;stroke-miterlimit:1;stroke-dasharray:none;stroke-opacity:1"
             d="m 265.309,281.887 -38.575,0 -91.652,-92.348 -43.4062,0" /><path
             id="path48"
             style="fill:none;stroke:#ffffff;stroke-width:5.7750001;stroke-linecap:butt;stroke-linejoin:miter;stroke-miterlimit:1;stroke-dasharray:none;stroke-opacity:1"
             d="m 178.492,286.75 0,-102.07" /><path
             id="path50"
             style="fill:none;stroke:#ffffff;stroke-width:5.7750001;stroke-linecap:butt;stroke-linejoin:miter;stroke-miterlimit:1;stroke-dasharray:none;stroke-opacity:1"
             d="m 178.492,286.75 0,-97.211" /><path
             id="path52"
             style="fill:none;stroke:#ffffff;stroke-width:5.7750001;stroke-linecap:butt;stroke-linejoin:miter;stroke-miterlimit:1;stroke-dasharray:none;stroke-opacity:1"
             d="m 270.121,238.145 -178.4452,0" /><path
             id="path54"
             style="fill:none;stroke:#ffffff;stroke-width:5.7750001;stroke-linecap:butt;stroke-linejoin:miter;stroke-miterlimit:1;stroke-dasharray:none;stroke-opacity:1"
             d="m 91.6758,281.887 43.4062,0 91.652,-92.348 38.575,0" /><path
             id="path56"
             style="fill:none;stroke:#ffffff;stroke-width:5.7750001;stroke-linecap:butt;stroke-linejoin:miter;stroke-miterlimit:1;stroke-dasharray:none;stroke-opacity:1"
             d="m 265.309,281.887 -38.575,0 -91.652,-92.348 -43.4062,0" /><path
             id="path58"
             style="fill:none;stroke:#ffffff;stroke-width:5.7750001;stroke-linecap:butt;stroke-linejoin:miter;stroke-miterlimit:1;stroke-dasharray:none;stroke-opacity:1"
             d="m 91.6758,281.887 43.4062,0 91.652,-92.348 38.575,0" /><path
             id="path60"
             style="fill:none;stroke:#ffffff;stroke-width:5.7750001;stroke-linecap:butt;stroke-linejoin:miter;stroke-miterlimit:1;stroke-dasharray:none;stroke-opacity:1"
             d="m 265.309,281.887 -38.575,0 -91.652,-92.348 -43.4062,0" /><path
             id="path62"
             style="fill:none;stroke:#ffffff;stroke-width:5.7750001;stroke-linecap:butt;stroke-linejoin:miter;stroke-miterlimit:1;stroke-dasharray:none;stroke-opacity:1"
             d="m 270.121,238.145 -178.4452,0" /><path
             id="path64"
             style="fill:none;stroke:#ffffff;stroke-width:5.7750001;stroke-linecap:butt;stroke-linejoin:miter;stroke-miterlimit:1;stroke-dasharray:none;stroke-opacity:1"
             d="m 91.6758,281.887 43.4062,0 91.652,-92.348 38.575,0" /><path
             id="path66"
             style="fill:none;stroke:#ffffff;stroke-width:5.7750001;stroke-linecap:butt;stroke-linejoin:miter;stroke-miterlimit:1;stroke-dasharray:none;stroke-opacity:1"
             d="m 265.309,281.887 -38.575,0 -91.652,-92.348 -43.4062,0" /><path
             id="path68"
             style="fill:none;stroke:#ffffff;stroke-width:5.7750001;stroke-linecap:butt;stroke-linejoin:miter;stroke-miterlimit:1;stroke-dasharray:none;stroke-opacity:1"
             d="m 91.6758,281.887 43.4062,0 91.652,-92.348 38.575,0" /><path
             id="path70"
             style="fill:none;stroke:#ffffff;stroke-width:5.7750001;stroke-linecap:butt;stroke-linejoin:miter;stroke-miterlimit:1;stroke-dasharray:none;stroke-opacity:1"
             d="m 265.309,281.887 -38.575,0 -91.652,-92.348 -43.4062,0" /><path
             id="path72"
             style="fill:none;stroke:#ffffff;stroke-width:5.7750001;stroke-linecap:butt;stroke-linejoin:miter;stroke-miterlimit:1;stroke-dasharray:none;stroke-opacity:1"
             d="m 178.492,286.75 0,-102.07" /><path
             id="path74"
             style="fill:#ffffff;fill-opacity:1;fill-rule:nonzero;stroke:none"
             d="m 156.586,73.1641 34.7188,0 0,30.1484 -34.7188,0 0,-30.1484 z" /><path
             id="path76"
             style="fill:none;stroke:#ffffff;stroke-width:10;stroke-linecap:butt;stroke-linejoin:miter;stroke-miterlimit:4;stroke-dasharray:none;stroke-opacity:1"
             d="m 228.824,90.8125 -46.105,0" /><path
             id="path78"
             style="fill:#ffffff;fill-opacity:1;fill-rule:nonzero;stroke:none"
             d="M 253.004,90.4609 210.57,73.1133 220.641,90.4609 210.57,107.781 253.004,90.4609" /><path
             id="path80"
             style="fill:none;stroke:#ffffff;stroke-width:10;stroke-linecap:butt;stroke-linejoin:miter;stroke-miterlimit:4;stroke-dasharray:none;stroke-opacity:1"
             d="m 122.184,90.8125 38.035,0" /><path
             id="path82"
             style="fill:#ffffff;fill-opacity:1;fill-rule:nonzero;stroke:none"
             d="M 139.723,108.789 129.645,91.4531 139.723,74.1133 97.2891,91.4531 139.723,108.789" /><path
             id="path84"
             style="fill:none;stroke:#ffffff;stroke-width:10;stroke-linecap:butt;stroke-linejoin:miter;stroke-miterlimit:4;stroke-dasharray:none;stroke-opacity:1"
             d="m 174.117,137.617 0,-43.2811" /><path
             id="path86"
             style="fill:#ffffff;fill-opacity:1;fill-rule:nonzero;stroke:none"
             d="m 174.398,161.289 17.336,-42.43 -17.336,10.079 -17.332,-10.079 17.332,42.43" /><path
             id="path88"
             style="fill:none;stroke:#ffffff;stroke-width:10;stroke-linecap:butt;stroke-linejoin:miter;stroke-miterlimit:4;stroke-dasharray:none;stroke-opacity:1"
             d="m 174.117,35.4883 0,42.5976" /><path
             id="path90"
             style="fill:#ffffff;fill-opacity:1;fill-rule:nonzero;stroke:none"
             d="M 156.734,53.3984 174.066,43.3203 191.402,53.3984 174.066,10.957 156.734,53.3984" /></g></g></g></g></svg>