<?xml version="1.0" encoding="UTF-8" standalone="no"?>
<svg
   xmlns:dc="http://purl.org/dc/elements/1.1/"
   xmlns:cc="http://creativecommons.org/ns#"
   xmlns:rdf="http://www.w3.org/1999/02/22-rdf-syntax-ns#"
   xmlns:svg="http://www.w3.org/2000/svg"
   xmlns="http://www.w3.org/2000/svg"
   viewBox="0 0 43.75 40"
   height="40"
   width="43.75"
   xml:space="preserve"
   version="1.1"
   id="svg2"><metadata
     id="metadata8"><rdf:RDF><cc:Work
         rdf:about=""><dc:format>image/svg+xml</dc:format><dc:type
           rdf:resource="http://purl.org/dc/dcmitype/StillImage" /></cc:Work></rdf:RDF></metadata><defs
     id="defs6"><clipPath
       id="clipPath18"
       clipPathUnits="userSpaceOnUse"><path
         id="path20"
         d="M 0,9 0,316 350,316 350,9 0,9 Z" /></clipPath></defs><g
     transform="matrix(1.25,0,0,-1.25,0,40)"
     id="g10"><g
       transform="scale(0.1,0.1)"
       id="g12"><g
         id="g14"><g
           clip-path="url(#clipPath18)"
           id="g16"><path
             id="path22"
             style="fill:#026c9b;fill-opacity:1;fill-rule:nonzero;stroke:none"
             d="m 348.98,247.613 0,-168.4372 -83.941,-67.1914 -174.4882,0 -87.23049,67.1914 0,168.4372" /><path
             id="path24"
             style="fill:none;stroke:#ffffff;stroke-width:4;stroke-linecap:butt;stroke-linejoin:miter;stroke-miterlimit:4;stroke-dasharray:none;stroke-opacity:1"
             d="m 348.98,247.613 0,-168.4372 -83.941,-67.1914 -174.4882,0 -87.23049,67.1914 0,168.4372" /><path
             id="path26"
             style="fill:#026c9b;fill-opacity:1;fill-rule:nonzero;stroke:none"
             d="m 263.398,313.516 -171.2066,0 -88.87109,-65.903 87.23049,-67.187 174.4882,0 83.941,67.187 -85.582,65.903" /><path
             id="path28"
             style="fill:none;stroke:#ffffff;stroke-width:4;stroke-linecap:butt;stroke-linejoin:miter;stroke-miterlimit:4;stroke-dasharray:none;stroke-opacity:1"
             d="m 263.398,313.516 -171.2066,0 -88.87109,-65.903 87.23049,-67.187 174.4882,0 83.941,67.187 -85.582,65.903 z" /><path
             id="path30"
             style="fill:none;stroke:#ffffff;stroke-width:3.8499999;stroke-linecap:butt;stroke-linejoin:miter;stroke-miterlimit:4;stroke-dasharray:none;stroke-opacity:1"
             d="m 89.0195,13.0859 0,167.3401" /><path
             id="path32"
             style="fill:none;stroke:#ffffff;stroke-width:3.8499999;stroke-linecap:butt;stroke-linejoin:miter;stroke-miterlimit:4;stroke-dasharray:none;stroke-opacity:1"
             d="m 264.691,13.0859 0,167.3401" /><path
             id="path34"
             style="fill:none;stroke:#ffffff;stroke-width:5.7750001;stroke-linecap:butt;stroke-linejoin:miter;stroke-miterlimit:1;stroke-dasharray:none;stroke-opacity:1"
             d="m 178.48,296.754 0,-97.231" /><path
             id="path36"
             style="fill:none;stroke:#ffffff;stroke-width:5.7750001;stroke-linecap:butt;stroke-linejoin:miter;stroke-miterlimit:1;stroke-dasharray:none;stroke-opacity:1"
             d="m 270.121,248.164 -178.4413,0" /><path
             id="path38"
             style="fill:none;stroke:#ffffff;stroke-width:5.7750001;stroke-linecap:butt;stroke-linejoin:miter;stroke-miterlimit:1;stroke-dasharray:none;stroke-opacity:1"
             d="m 91.6797,291.875 43.3983,0 91.641,-92.352 38.59,0" /><path
             id="path40"
             style="fill:none;stroke:#ffffff;stroke-width:5.7750001;stroke-linecap:butt;stroke-linejoin:miter;stroke-miterlimit:1;stroke-dasharray:none;stroke-opacity:1"
             d="m 265.309,291.875 -38.59,0 -91.641,-92.352 -43.3983,0" /><path
             id="path42"
             style="fill:none;stroke:#ffffff;stroke-width:5.7750001;stroke-linecap:butt;stroke-linejoin:miter;stroke-miterlimit:1;stroke-dasharray:none;stroke-opacity:1"
             d="m 270.121,248.164 -178.4413,0" /><path
             id="path44"
             style="fill:none;stroke:#ffffff;stroke-width:5.7750001;stroke-linecap:butt;stroke-linejoin:miter;stroke-miterlimit:1;stroke-dasharray:none;stroke-opacity:1"
             d="m 91.6797,291.875 43.3983,0 91.641,-92.352 38.59,0" /><path
             id="path46"
             style="fill:none;stroke:#ffffff;stroke-width:5.7750001;stroke-linecap:butt;stroke-linejoin:miter;stroke-miterlimit:1;stroke-dasharray:none;stroke-opacity:1"
             d="m 265.309,291.875 -38.59,0 -91.641,-92.352 -43.3983,0" /><path
             id="path48"
             style="fill:none;stroke:#ffffff;stroke-width:5.7750001;stroke-linecap:butt;stroke-linejoin:miter;stroke-miterlimit:1;stroke-dasharray:none;stroke-opacity:1"
             d="m 178.48,296.754 0,-102.07" /><path
             id="path50"
             style="fill:none;stroke:#ffffff;stroke-width:5.7750001;stroke-linecap:butt;stroke-linejoin:miter;stroke-miterlimit:1;stroke-dasharray:none;stroke-opacity:1"
             d="m 178.48,296.754 0,-97.231" /><path
             id="path52"
             style="fill:none;stroke:#ffffff;stroke-width:5.7750001;stroke-linecap:butt;stroke-linejoin:miter;stroke-miterlimit:1;stroke-dasharray:none;stroke-opacity:1"
             d="m 270.121,248.164 -178.4413,0" /><path
             id="path54"
             style="fill:none;stroke:#ffffff;stroke-width:5.7750001;stroke-linecap:butt;stroke-linejoin:miter;stroke-miterlimit:1;stroke-dasharray:none;stroke-opacity:1"
             d="m 91.6797,291.875 43.3983,0 91.641,-92.352 38.59,0" /><path
             id="path56"
             style="fill:none;stroke:#ffffff;stroke-width:5.7750001;stroke-linecap:butt;stroke-linejoin:miter;stroke-miterlimit:1;stroke-dasharray:none;stroke-opacity:1"
             d="m 265.309,291.875 -38.59,0 -91.641,-92.352 -43.3983,0" /><path
             id="path58"
             style="fill:none;stroke:#ffffff;stroke-width:5.7750001;stroke-linecap:butt;stroke-linejoin:miter;stroke-miterlimit:1;stroke-dasharray:none;stroke-opacity:1"
             d="m 91.6797,291.875 43.3983,0 91.641,-92.352 38.59,0" /><path
             id="path60"
             style="fill:none;stroke:#ffffff;stroke-width:5.7750001;stroke-linecap:butt;stroke-linejoin:miter;stroke-miterlimit:1;stroke-dasharray:none;stroke-opacity:1"
             d="m 265.309,291.875 -38.59,0 -91.641,-92.352 -43.3983,0" /><path
             id="path62"
             style="fill:none;stroke:#ffffff;stroke-width:5.7750001;stroke-linecap:butt;stroke-linejoin:miter;stroke-miterlimit:1;stroke-dasharray:none;stroke-opacity:1"
             d="m 270.121,248.164 -178.4413,0" /><path
             id="path64"
             style="fill:none;stroke:#ffffff;stroke-width:5.7750001;stroke-linecap:butt;stroke-linejoin:miter;stroke-miterlimit:1;stroke-dasharray:none;stroke-opacity:1"
             d="m 91.6797,291.875 43.3983,0 91.641,-92.352 38.59,0" /><path
             id="path66"
             style="fill:none;stroke:#ffffff;stroke-width:5.7750001;stroke-linecap:butt;stroke-linejoin:miter;stroke-miterlimit:1;stroke-dasharray:none;stroke-opacity:1"
             d="m 265.309,291.875 -38.59,0 -91.641,-92.352 -43.3983,0" /><path
             id="path68"
             style="fill:none;stroke:#ffffff;stroke-width:5.7750001;stroke-linecap:butt;stroke-linejoin:miter;stroke-miterlimit:1;stroke-dasharray:none;stroke-opacity:1"
             d="m 91.6797,291.875 43.3983,0 91.641,-92.352 38.59,0" /><path
             id="path70"
             style="fill:none;stroke:#ffffff;stroke-width:5.7750001;stroke-linecap:butt;stroke-linejoin:miter;stroke-miterlimit:1;stroke-dasharray:none;stroke-opacity:1"
             d="m 265.309,291.875 -38.59,0 -91.641,-92.352 -43.3983,0" /><path
             id="path72"
             style="fill:none;stroke:#ffffff;stroke-width:5.7750001;stroke-linecap:butt;stroke-linejoin:miter;stroke-miterlimit:1;stroke-dasharray:none;stroke-opacity:1"
             d="m 178.48,296.754 0,-102.07" /><path
             id="path74"
             style="fill:#ffffff;fill-opacity:1;fill-rule:nonzero;stroke:none"
             d="m 156.602,83.1523 34.6875,0 0,30.1602 -34.6875,0 0,-30.1602 z" /><path
             id="path76"
             style="fill:none;stroke:#ffffff;stroke-width:10;stroke-linecap:butt;stroke-linejoin:miter;stroke-miterlimit:4;stroke-dasharray:none;stroke-opacity:1"
             d="m 228.828,100.813 -46.098,0" /><path
             id="path78"
             style="fill:#ffffff;fill-opacity:1;fill-rule:nonzero;stroke:none"
             d="m 253.012,100.465 -42.422,-17.34 10.031,17.34 -10.031,17.308 42.422,-17.308" /><path
             id="path80"
             style="fill:none;stroke:#ffffff;stroke-width:10;stroke-linecap:butt;stroke-linejoin:miter;stroke-miterlimit:4;stroke-dasharray:none;stroke-opacity:1"
             d="m 122.191,100.813 38.039,0" /><path
             id="path82"
             style="fill:#ffffff;fill-opacity:1;fill-rule:nonzero;stroke:none"
             d="M 139.73,118.785 129.648,101.445 139.73,84.0938 97.3008,101.445 139.73,118.785" /><path
             id="path84"
             style="fill:none;stroke:#ffffff;stroke-width:10;stroke-linecap:butt;stroke-linejoin:miter;stroke-miterlimit:4;stroke-dasharray:none;stroke-opacity:1"
             d="m 174.102,147.613 0,-43.277" /><path
             id="path86"
             style="fill:#ffffff;fill-opacity:1;fill-rule:nonzero;stroke:none"
             d="m 174.41,171.285 17.309,-42.422 -17.309,10.082 -17.34,-10.082 17.34,42.422" /><path
             id="path88"
             style="fill:none;stroke:#ffffff;stroke-width:10;stroke-linecap:butt;stroke-linejoin:miter;stroke-miterlimit:4;stroke-dasharray:none;stroke-opacity:1"
             d="m 174.102,45.4648 0,42.6211" /><path
             id="path90"
             style="fill:#ffffff;fill-opacity:1;fill-rule:nonzero;stroke:none"
             d="m 156.719,63.3945 17.34,-10.082 17.351,10.082 -17.351,-42.4609 -17.34,42.4609" /></g></g></g></g></svg>