<svg xmlns="http://www.w3.org/2000/svg" viewBox="0 0 51.25 31.25" height="31.25" width="51.25"><path d="M3.145 26.966h44.951V3.34H3.145v23.627z" fill="#02709f"/><path d="M3.145 26.966h44.951V3.34H3.145v23.627z" fill="none" stroke="#fff" stroke-width=".5"/><path d="M48.096 3.339L50.543.908H.62l2.525 2.43h44.951" fill="#02709f"/><path d="M48.096 3.339L50.543.906H.62L3.145 3.34h44.951z" fill="none" stroke="#fff" stroke-width=".5"/><path d="M50.542 29.399V.908l-2.446 2.43v23.628l2.447 2.433" fill="#02709f"/><path d="M50.542 29.397V.907l-2.446 2.432v23.627l2.447 2.431z" fill="none" stroke="#fff" stroke-width=".5"/><path d="M48.096 26.981l2.447 2.418H.62l2.525-2.418h44.951" fill="#02709f"/><path d="M48.096 26.981l2.447 2.416H.62l2.525-2.416h44.951z" fill="none" stroke="#fff" stroke-width=".5"/><path d="M.62 29.399V.908l2.525 2.43v23.628L.62 29.4" fill="#02709f"/><path d="M.62 29.397V.907l2.525 2.432v23.627L.62 29.397z" fill="none" stroke="#fff" stroke-width=".5"/></svg>