<?xml version="1.0" encoding="UTF-8" standalone="no"?>
<svg
   xmlns:dc="http://purl.org/dc/elements/1.1/"
   xmlns:cc="http://creativecommons.org/ns#"
   xmlns:rdf="http://www.w3.org/1999/02/22-rdf-syntax-ns#"
   xmlns:svg="http://www.w3.org/2000/svg"
   xmlns="http://www.w3.org/2000/svg"
   viewBox="0 0 52.612499 42.6875"
   height="42.6875"
   width="52.612499"
   xml:space="preserve"
   version="1.1"
   id="svg2"><metadata
     id="metadata8"><rdf:RDF><cc:Work
         rdf:about=""><dc:format>image/svg+xml</dc:format><dc:type
           rdf:resource="http://purl.org/dc/dcmitype/StillImage" /></cc:Work></rdf:RDF></metadata><defs
     id="defs6"><clipPath
       id="clipPath18"
       clipPathUnits="userSpaceOnUse"><path
         id="path20"
         d="M 0,1 0,341 420,341 420,1 0,1 Z" /></clipPath></defs><g
     transform="matrix(1.25,0,0,-1.25,0,42.6875)"
     id="g10"><g
       transform="scale(0.1,0.1)"
       id="g12"><g
         id="g14"><g
           clip-path="url(#clipPath18)"
           id="g16"><path
             id="path22"
             style="fill:#02709f;fill-opacity:1;fill-rule:nonzero;stroke:none"
             d="m 416.852,178.008 -279.957,160.039 0,-320.0704 279.957,160.0314" /><path
             id="path24"
             style="fill:none;stroke:#ffffff;stroke-width:3.99993992;stroke-linecap:butt;stroke-linejoin:miter;stroke-miterlimit:4;stroke-dasharray:none;stroke-opacity:1"
             d="m 416.852,178.008 -279.957,160.039 0,-320.0704 279.957,160.0314 z" /><path
             id="path26"
             style="fill:#02709f;fill-opacity:1;fill-rule:nonzero;stroke:none"
             d="m 123.438,267.168 0,-17.617 -123.391125,0 L 0,267.168 l 123.438,0" /><path
             id="path28"
             style="fill:#000000;fill-opacity:1;fill-rule:nonzero;stroke:none"
             d="m 116.563,250.293 21.574,22.91" /><path
             id="path30"
             style="fill:none;stroke:#ffffff;stroke-width:3.99993992;stroke-linecap:butt;stroke-linejoin:miter;stroke-miterlimit:4;stroke-dasharray:none;stroke-opacity:1"
             d="m 116.563,250.293 21.574,22.91" /><path
             id="path32"
             style="fill:#02709f;fill-opacity:1;fill-rule:nonzero;stroke:none"
             d="m 123.438,212.168 0,-17.617 -123.391125,0 L 0,212.168 l 123.438,0" /><path
             id="path34"
             style="fill:#000000;fill-opacity:1;fill-rule:nonzero;stroke:none"
             d="m 116.563,195.293 21.574,22.91" /><path
             id="path36"
             style="fill:none;stroke:#ffffff;stroke-width:3.99993992;stroke-linecap:butt;stroke-linejoin:miter;stroke-miterlimit:4;stroke-dasharray:none;stroke-opacity:1"
             d="m 116.563,195.293 21.574,22.91" /><path
             id="path38"
             style="fill:#02709f;fill-opacity:1;fill-rule:nonzero;stroke:none"
             d="m 123.438,157.168 0,-17.617 -123.391125,0 L 0,157.168 l 123.438,0" /><path
             id="path40"
             style="fill:#000000;fill-opacity:1;fill-rule:nonzero;stroke:none"
             d="m 116.563,140.293 21.574,22.91" /><path
             id="path42"
             style="fill:none;stroke:#ffffff;stroke-width:3.99993992;stroke-linecap:butt;stroke-linejoin:miter;stroke-miterlimit:4;stroke-dasharray:none;stroke-opacity:1"
             d="m 116.563,140.293 21.574,22.91" /><path
             id="path44"
             style="fill:#02709f;fill-opacity:1;fill-rule:nonzero;stroke:none"
             d="m 123.438,102.168 0,-17.6172 -123.391125,0 L 0,102.168 l 123.438,0" /><path
             id="path46"
             style="fill:#000000;fill-opacity:1;fill-rule:nonzero;stroke:none"
             d="m 116.563,85.293 21.574,22.91" /><path
             id="path48"
             style="fill:none;stroke:#ffffff;stroke-width:3.99993992;stroke-linecap:butt;stroke-linejoin:miter;stroke-miterlimit:4;stroke-dasharray:none;stroke-opacity:1"
             d="m 116.563,85.293 21.574,22.91" /><path
             id="path50"
             style="fill:#000000;fill-opacity:1;fill-rule:nonzero;stroke:none"
             d="m 135.754,309.227 -30.274,15.226 30.477,12.117 -0.203,-27.343" /><path
             id="path52"
             style="fill:none;stroke:#000000;stroke-width:6.00006008;stroke-linecap:round;stroke-linejoin:round;stroke-miterlimit:4;stroke-dasharray:none;stroke-opacity:1"
             d="m 136.992,332.637 0,-23.125" /><path
             id="path54"
             style="fill:#02709f;fill-opacity:1;fill-rule:nonzero;stroke:none"
             d="M 386.383,163.484 106.414,323.516 106.414,3.44531 386.383,163.484" /><path
             id="path56"
             style="fill:none;stroke:#ffffff;stroke-width:3.99993992;stroke-linecap:butt;stroke-linejoin:miter;stroke-miterlimit:4;stroke-dasharray:none;stroke-opacity:1"
             d="M 386.383,163.484 106.414,323.516 106.414,3.44531 386.383,163.484 Z" /><g
             transform="scale(10,10)"
             id="g58"><text
               id="text60"
               style="font-variant:normal;font-weight:bold;font-size:8px;font-family:Helvetica;-inkscape-font-specification:Helvetica-Bold;writing-mode:lr-tb;fill:#ffffff;fill-opacity:1;fill-rule:nonzero;stroke:none"
               transform="matrix(1,0,0,-1,13.3914,14.3445)"><tspan
                 id="tspan62"
                 y="0"
                 x="0 4.5360732 10.312073">PAD</tspan></text>
</g></g></g></g></g></svg>