<?xml version="1.0" encoding="UTF-8" standalone="no"?>
<svg
   xmlns:dc="http://purl.org/dc/elements/1.1/"
   xmlns:cc="http://creativecommons.org/ns#"
   xmlns:rdf="http://www.w3.org/1999/02/22-rdf-syntax-ns#"
   xmlns:svg="http://www.w3.org/2000/svg"
   xmlns="http://www.w3.org/2000/svg"
   viewBox="0 0 35 37.5"
   height="37.5"
   width="35"
   xml:space="preserve"
   version="1.1"
   id="svg2"><metadata
     id="metadata8"><rdf:RDF><cc:Work
         rdf:about=""><dc:format>image/svg+xml</dc:format><dc:type
           rdf:resource="http://purl.org/dc/dcmitype/StillImage" /></cc:Work></rdf:RDF></metadata><defs
     id="defs6"><clipPath
       id="clipPath18"
       clipPathUnits="userSpaceOnUse"><path
         id="path20"
         d="M 0,9 0,296 280,296 280,9 0,9 Z" /></clipPath></defs><g
     transform="matrix(1.25,0,0,-1.25,0,37.5)"
     id="g10"><g
       transform="scale(0.1,0.1)"
       id="g12"><g
         id="g14"><g
           clip-path="url(#clipPath18)"
           id="g16"><path
             id="path22"
             style="fill:#02709f;fill-opacity:1;fill-rule:nonzero;stroke:none"
             d="m 5.46875,14.6836 226.801,0 0,230.738 -226.801,0 0,-230.738 z" /><path
             id="path24"
             style="fill:none;stroke:#ffffff;stroke-width:3.99993992;stroke-linecap:butt;stroke-linejoin:miter;stroke-miterlimit:4;stroke-dasharray:none;stroke-opacity:1"
             d="m 5.46875,14.6836 226.801,0 0,230.738 -226.801,0 0,-230.738 z" /><path
             id="path26"
             style="fill:#000000;fill-opacity:1;fill-rule:nonzero;stroke:none"
             d="m 194.531,163.512 0,-50.469 30.43,24.258 -30.43,26.211" /><path
             id="path28"
             style="fill:#000000;fill-opacity:1;fill-rule:nonzero;stroke:none"
             d="m 100.859,205.73 50.469,0 -24.219,30.403 -26.25,-30.403" /><path
             id="path30"
             style="fill:#000000;fill-opacity:1;fill-rule:nonzero;stroke:none"
             d="m 152.23,59.8438 -50.468,0 24.488,-30.3907 25.98,30.3907" /><path
             id="path32"
             style="fill:#000000;fill-opacity:1;fill-rule:nonzero;stroke:none"
             d="m 52.8516,107.063 0,50.507 -30.4297,-24.257 30.4297,-26.25" /><path
             id="path34"
             style="fill:#ffffff;fill-opacity:1;fill-rule:nonzero;stroke:none"
             d="m 189.301,158.273 0,-50.46 30.39,24.21 -30.39,26.25" /><path
             id="path36"
             style="fill:none;stroke:#ffffff;stroke-width:1.99996996;stroke-linecap:butt;stroke-linejoin:miter;stroke-miterlimit:4;stroke-dasharray:none;stroke-opacity:1"
             d="m 189.301,158.273 0,-50.46 30.39,24.21 -30.39,26.25 z" /><path
             id="path38"
             style="fill:#ffffff;fill-opacity:1;fill-rule:nonzero;stroke:none"
             d="m 95.6211,200.461 50.4689,0 -24.25,30.43 -26.2189,-30.43" /><path
             id="path40"
             style="fill:none;stroke:#ffffff;stroke-width:1.99996996;stroke-linecap:butt;stroke-linejoin:miter;stroke-miterlimit:4;stroke-dasharray:none;stroke-opacity:1"
             d="m 95.6211,200.461 50.4689,0 -24.25,30.43 -26.2189,-30.43 z" /><path
             id="path42"
             style="fill:#ffffff;fill-opacity:1;fill-rule:nonzero;stroke:none"
             d="m 146.988,54.6016 -50.4685,0 24.5005,-30.4297 25.968,30.4297" /><path
             id="path44"
             style="fill:none;stroke:#ffffff;stroke-width:1.99996996;stroke-linecap:butt;stroke-linejoin:miter;stroke-miterlimit:4;stroke-dasharray:none;stroke-opacity:1"
             d="m 146.988,54.6016 -50.4685,0 24.5005,-30.4297 25.968,30.4297 z" /><path
             id="path46"
             style="fill:#ffffff;fill-opacity:1;fill-rule:nonzero;stroke:none"
             d="m 46.9492,101.832 0,50.469 -30.4297,-24.219 30.4297,-26.25" /><path
             id="path48"
             style="fill:none;stroke:#ffffff;stroke-width:1.99996996;stroke-linecap:butt;stroke-linejoin:miter;stroke-miterlimit:4;stroke-dasharray:none;stroke-opacity:1"
             d="m 46.9492,101.832 0,50.469 -30.4297,-24.219 30.4297,-26.25 z" /><path
             id="path50"
             style="fill:#02709f;fill-opacity:1;fill-rule:nonzero;stroke:none"
             d="m 231.48,245.703 -225.78078,0 57.23048,45.66 215.7813,0 0,-0.269 -0.66,0 -46.063,-45.281 0,-1.442 -0.508,1.332" /><path
             id="path52"
             style="fill:none;stroke:#ffffff;stroke-width:3.99993992;stroke-linecap:butt;stroke-linejoin:miter;stroke-miterlimit:4;stroke-dasharray:none;stroke-opacity:1"
             d="m 231.48,245.703 -225.78078,0 57.23048,45.66 215.7813,0 0,-0.269 -0.66,0 -46.063,-45.281 0,-1.442 -0.508,1.332 z" /><path
             id="path54"
             style="fill:#02709f;fill-opacity:1;fill-rule:nonzero;stroke:none"
             d="m 278.199,60.7734 0,230.3206 -45.969,-45.903 0,-230.3472 45.969,45.9296" /><path
             id="path56"
             style="fill:none;stroke:#ffffff;stroke-width:3.99993992;stroke-linecap:butt;stroke-linejoin:miter;stroke-miterlimit:4;stroke-dasharray:none;stroke-opacity:1"
             d="m 278.199,60.7734 0,230.3206 -45.969,-45.903 0,-230.3472 45.969,45.9296 z" /><path
             id="path58"
             style="fill:#000000;fill-opacity:1;fill-rule:nonzero;stroke:none"
             d="m 157.379,161.871 0,-19.18 24.609,0 0,13.161 c 0,21.562 -27.258,33.05 -60.898,33.05 l 0.98,0 c -33.6716,0 -60.9411,-11.488 -60.9411,-33.05 l 0,-13.161 24.6094,0 0,19.18 c 32.5427,42.543 71.6407,0 71.6407,0" /><path
             id="path60"
             style="fill:#000000;fill-opacity:1;fill-rule:nonzero;stroke:none"
             d="m 125.82,168.473 21.289,0 0,-23.993 23.75,-19.796 0,-47.4223 -98.7496,0 0,47.4223 23.7109,19.796 0,23.993 29.9997,0" /><path
             id="path62"
             style="fill:#ffffff;fill-opacity:1;fill-rule:nonzero;stroke:none"
             d="m 157.27,156.48 0,-19.218 24.609,0 0,13.199 c 0,21.562 -27.27,33.051 -60.938,33.051 l 0.969,0 c -33.6287,0 -60.8905,-11.489 -60.8905,-33.051 l 0,-13.199 24.6016,0 0,19.218 c 32.4999,42.543 71.6489,0 71.6489,0" /><path
             id="path64"
             style="fill:#ffffff;fill-opacity:1;fill-rule:nonzero;stroke:none"
             d="m 125.699,163.082 21.289,0 0,-24.031 23.711,-19.797 0,-47.3829 -98.7107,0 0,47.3829 23.7109,19.797 0,24.031 29.9998,0" /></g></g></g></g></svg>