<?xml version="1.0" encoding="UTF-8" standalone="no"?>
<svg
   xmlns:dc="http://purl.org/dc/elements/1.1/"
   xmlns:cc="http://creativecommons.org/ns#"
   xmlns:rdf="http://www.w3.org/1999/02/22-rdf-syntax-ns#"
   xmlns:svg="http://www.w3.org/2000/svg"
   xmlns="http://www.w3.org/2000/svg"
   viewBox="0 0 35.087502 35.737499"
   height="35.737499"
   width="35.087502"
   xml:space="preserve"
   version="1.1"
   id="svg2"><metadata
     id="metadata8"><rdf:RDF><cc:Work
         rdf:about=""><dc:format>image/svg+xml</dc:format><dc:type
           rdf:resource="http://purl.org/dc/dcmitype/StillImage" /></cc:Work></rdf:RDF></metadata><defs
     id="defs6"><clipPath
       id="clipPath18"
       clipPathUnits="userSpaceOnUse"><path
         id="path20"
         d="M 0,0 0,286 280,286 280,0 0,0 Z" /></clipPath></defs><g
     transform="matrix(1.25,0,0,-1.25,0,35.7375)"
     id="g10"><g
       transform="scale(0.1,0.1)"
       id="g12"><g
         id="g14"><g
           clip-path="url(#clipPath18)"
           id="g16"><path
             id="path22"
             style="fill:#02709f;fill-opacity:1;fill-rule:nonzero;stroke:none"
             d="m 5.44922,4.6875 226.797,0 0,230.742 -226.797,0 0,-230.742 z" /><path
             id="path24"
             style="fill:none;stroke:#ffffff;stroke-width:3.99993992;stroke-linecap:butt;stroke-linejoin:miter;stroke-miterlimit:4;stroke-dasharray:none;stroke-opacity:1"
             d="m 5.44922,4.6875 226.797,0 0,230.742 -226.797,0 0,-230.742 z" /><path
             id="path26"
             style="fill:#000000;fill-opacity:1;fill-rule:nonzero;stroke:none"
             d="m 194.539,153.516 0,-50.481 30.41,24.25 -30.41,26.231" /><path
             id="path28"
             style="fill:#000000;fill-opacity:1;fill-rule:nonzero;stroke:none"
             d="m 100.859,195.723 50.481,0 -24.25,30.41 -26.231,-30.41" /><path
             id="path30"
             style="fill:#000000;fill-opacity:1;fill-rule:nonzero;stroke:none"
             d="m 152.246,49.8359 -50.476,0 24.48,-30.4023 25.996,30.4023" /><path
             id="path32"
             style="fill:#000000;fill-opacity:1;fill-rule:nonzero;stroke:none"
             d="m 52.8516,97.0781 0,50.4809 -30.4102,-24.246 30.4102,-26.2349" /><path
             id="path34"
             style="fill:#ffffff;fill-opacity:1;fill-rule:nonzero;stroke:none"
             d="m 189.285,148.262 0,-50.469 30.41,24.238 -30.41,26.231" /><path
             id="path36"
             style="fill:none;stroke:#ffffff;stroke-width:1.99996996;stroke-linecap:butt;stroke-linejoin:miter;stroke-miterlimit:4;stroke-dasharray:none;stroke-opacity:1"
             d="m 189.285,148.262 0,-50.469 30.41,24.238 -30.41,26.231 z" /><path
             id="path38"
             style="fill:#ffffff;fill-opacity:1;fill-rule:nonzero;stroke:none"
             d="m 95.6133,190.469 50.4727,0 -24.25,30.41 -26.2227,-30.41" /><path
             id="path40"
             style="fill:none;stroke:#ffffff;stroke-width:1.99996996;stroke-linecap:butt;stroke-linejoin:miter;stroke-miterlimit:4;stroke-dasharray:none;stroke-opacity:1"
             d="m 95.6133,190.469 50.4727,0 -24.25,30.41 -26.2227,-30.41 z" /><path
             id="path42"
             style="fill:#ffffff;fill-opacity:1;fill-rule:nonzero;stroke:none"
             d="m 146.992,44.5898 -50.4686,0 24.4846,-30.4101 25.984,30.4101" /><path
             id="path44"
             style="fill:none;stroke:#ffffff;stroke-width:1.99996996;stroke-linecap:butt;stroke-linejoin:miter;stroke-miterlimit:4;stroke-dasharray:none;stroke-opacity:1"
             d="m 146.992,44.5898 -50.4686,0 24.4846,-30.4101 25.984,30.4101 z" /><path
             id="path46"
             style="fill:#ffffff;fill-opacity:1;fill-rule:nonzero;stroke:none"
             d="m 46.9453,91.8359 0,50.4691 -30.414,-24.239 30.414,-26.2301" /><path
             id="path48"
             style="fill:none;stroke:#ffffff;stroke-width:1.99996996;stroke-linecap:butt;stroke-linejoin:miter;stroke-miterlimit:4;stroke-dasharray:none;stroke-opacity:1"
             d="m 46.9453,91.8359 0,50.4691 -30.414,-24.239 30.414,-26.2301 z" /><path
             id="path50"
             style="fill:#02709f;fill-opacity:1;fill-rule:nonzero;stroke:none"
             d="m 231.465,235.695 -225.75406,0 57.23046,45.672 215.7696,0 0,-0.262 -0.652,0 -46.067,-45.285 0,-1.445 -0.527,1.32" /><path
             id="path52"
             style="fill:none;stroke:#ffffff;stroke-width:3.99993992;stroke-linecap:butt;stroke-linejoin:miter;stroke-miterlimit:4;stroke-dasharray:none;stroke-opacity:1"
             d="m 231.465,235.695 -225.75406,0 57.23046,45.672 215.7696,0 0,-0.262 -0.652,0 -46.067,-45.285 0,-1.445 -0.527,1.32 z" /><path
             id="path54"
             style="fill:#02709f;fill-opacity:1;fill-rule:nonzero;stroke:none"
             d="m 278.191,50.7617 0,230.3433 -45.945,-45.929 0,-230.35178 45.945,45.93748" /><path
             id="path56"
             style="fill:none;stroke:#ffffff;stroke-width:3.99993992;stroke-linecap:butt;stroke-linejoin:miter;stroke-miterlimit:4;stroke-dasharray:none;stroke-opacity:1"
             d="m 278.191,50.7617 0,230.3433 -45.945,-45.929 0,-230.35178 45.945,45.93748 z" /><path
             id="path58"
             style="fill:#000000;fill-opacity:1;fill-rule:nonzero;stroke:none"
             d="m 157.383,151.875 0,-19.199 24.621,0 0,13.195 c 0,21.563 -27.277,33.035 -60.918,33.035 l 0.965,0 c -33.6408,0 -60.9182,-11.472 -60.9182,-33.035 l 0,-13.195 24.6211,0 0,19.199 c 32.5081,42.539 71.6291,0 71.6291,0" /><path
             id="path60"
             style="fill:#000000;fill-opacity:1;fill-rule:nonzero;stroke:none"
             d="m 125.82,158.469 21.297,0 0,-23.996 23.723,-19.805 0,-47.3907 -98.7423,0 0,47.3907 23.7226,19.805 0,23.996 29.9997,0" /><path
             id="path62"
             style="fill:#ffffff;fill-opacity:1;fill-rule:nonzero;stroke:none"
             d="m 157.258,146.477 0,-19.2 24.617,0 0,13.192 c 0,21.562 -27.273,33.039 -60.918,33.039 l 0.969,0 c -33.6447,0 -60.9182,-11.477 -60.9182,-33.039 l 0,-13.192 24.6172,0 0,19.2 c 32.512,42.539 71.633,0 71.633,0" /><path
             id="path64"
             style="fill:#ffffff;fill-opacity:1;fill-rule:nonzero;stroke:none"
             d="m 125.703,153.078 21.289,0 0,-24.004 23.723,-19.804 0,-47.395 -98.7423,0 0,47.395 23.7226,19.804 0,24.004 30.0077,0" /></g></g></g></g></svg>