<?xml version="1.0" encoding="UTF-8" standalone="no"?>
<svg
   xmlns:dc="http://purl.org/dc/elements/1.1/"
   xmlns:cc="http://creativecommons.org/ns#"
   xmlns:rdf="http://www.w3.org/1999/02/22-rdf-syntax-ns#"
   xmlns:svg="http://www.w3.org/2000/svg"
   xmlns="http://www.w3.org/2000/svg"
   xmlns:sodipodi="http://sodipodi.sourceforge.net/DTD/sodipodi-0.dtd"
   xmlns:inkscape="http://www.inkscape.org/namespaces/inkscape"
   viewBox="0 0 47.206418 42.42239"
   height="42.42239"
   width="47.206417"
   xml:space="preserve"
   version="1.1"
   id="svg2"
   inkscape:version="0.91 r13725"
   sodipodi:docname="pc.svg"><sodipodi:namedview
     pagecolor="#ffffff"
     bordercolor="#666666"
     borderopacity="1"
     objecttolerance="10"
     gridtolerance="10"
     guidetolerance="10"
     inkscape:pageopacity="0"
     inkscape:pageshadow="2"
     inkscape:window-width="448"
     inkscape:window-height="438"
     id="namedview31"
     showgrid="false"
     inkscape:zoom="5.5627579"
     inkscape:cx="23.606011"
     inkscape:cy="21.213014"
     inkscape:window-x="0"
     inkscape:window-y="23"
     inkscape:window-maximized="0"
     inkscape:current-layer="svg2" /><metadata
     id="metadata8"><rdf:RDF><cc:Work
         rdf:about=""><dc:format>image/svg+xml</dc:format><dc:type
           rdf:resource="http://purl.org/dc/dcmitype/StillImage" /></cc:Work></rdf:RDF></metadata><defs
     id="defs6" /><g
     transform="matrix(1.25,0,0,-1.25,-2.3960123e-4,42.421876)"
     id="g10"><g
       transform="scale(0.1,0.1)"
       id="g12"><path
         id="path14"
         style="fill:#02709f;fill-opacity:1;fill-rule:nonzero;stroke:none"
         d="m 5.03516,52.9492 314.734,0 0,59.0625 -314.734,0 0,-59.0625 z"
         inkscape:connector-curvature="0" /><path
         id="path16"
         style="fill:none;stroke:#ffffff;stroke-width:3.99993992;stroke-linecap:butt;stroke-linejoin:miter;stroke-miterlimit:4;stroke-dasharray:none;stroke-opacity:1"
         d="m 5.03516,52.9492 314.734,0 0,59.0625 -314.734,0 0,-59.0625 z"
         inkscape:connector-curvature="0" /><path
         id="path18"
         style="fill:#02709f;fill-opacity:1;fill-rule:nonzero;stroke:none"
         d="m 223.375,78.5742 79.383,0"
         inkscape:connector-curvature="0" /><path
         id="path20"
         style="fill:none;stroke:#ffffff;stroke-width:3.99993992;stroke-linecap:butt;stroke-linejoin:miter;stroke-miterlimit:4;stroke-dasharray:none;stroke-opacity:1"
         d="m 223.375,78.5742 79.383,0"
         inkscape:connector-curvature="0" /><path
         id="path22"
         style="fill:#02709f;fill-opacity:1;fill-rule:nonzero;stroke:none"
         d="m 223.375,81.4063 79.383,0"
         inkscape:connector-curvature="0" /><path
         id="path24"
         style="fill:none;stroke:#ffffff;stroke-width:3.99993992;stroke-linecap:butt;stroke-linejoin:miter;stroke-miterlimit:4;stroke-dasharray:none;stroke-opacity:1"
         d="m 223.375,81.4063 79.383,0"
         inkscape:connector-curvature="0" /><path
         id="path26"
         style="fill:#02709f;fill-opacity:1;fill-rule:nonzero;stroke:none"
         d="m 372.613,108.945 0,52.84 -52.883,-50.008 0,-58.8278 52.883,55.9958"
         inkscape:connector-curvature="0" /><path
         id="path28"
         style="fill:none;stroke:#ffffff;stroke-width:3.99993992;stroke-linecap:butt;stroke-linejoin:miter;stroke-miterlimit:4;stroke-dasharray:none;stroke-opacity:1"
         d="m 372.613,108.945 0,52.84 -52.883,-50.008 0,-58.8278 52.883,55.9958 z"
         inkscape:connector-curvature="0" /><path
         id="path30"
         style="fill:#02709f;fill-opacity:1;fill-rule:nonzero;stroke:none"
         d="m 263.871,4.82422 0,13.08598 28.594,39.7265 0,-24.2187 -28.594,-28.59378"
         inkscape:connector-curvature="0" /><path
         id="path32"
         style="fill:none;stroke:#ffffff;stroke-width:3.99993992;stroke-linecap:butt;stroke-linejoin:miter;stroke-miterlimit:4;stroke-dasharray:none;stroke-opacity:1"
         d="m 263.871,4.82422 0,13.08598 28.594,39.7265 0,-24.2187 -28.594,-28.59378 z"
         inkscape:connector-curvature="0" /><path
         id="path34"
         style="fill:#02709f;fill-opacity:1;fill-rule:nonzero;stroke:none"
         d="m 12.0078,4.82422 251.863,0 0,13.0859 -251.863,0 0,-13.0859 z"
         inkscape:connector-curvature="0" /><path
         id="path36"
         style="fill:none;stroke:#ffffff;stroke-width:3.99993992;stroke-linecap:butt;stroke-linejoin:miter;stroke-miterlimit:4;stroke-dasharray:none;stroke-opacity:1"
         d="m 12.0078,4.82422 251.863,0 0,13.0859 -251.863,0 0,-13.0859 z"
         inkscape:connector-curvature="0" /><path
         id="path38"
         style="fill:#02709f;fill-opacity:1;fill-rule:nonzero;stroke:none"
         d="m 263.871,17.9102 -251.8632,0 29.1406,39.7265 251.3166,0 -28.594,-39.7265"
         inkscape:connector-curvature="0" /><path
         id="path40"
         style="fill:none;stroke:#ffffff;stroke-width:3.99993992;stroke-linecap:butt;stroke-linejoin:miter;stroke-miterlimit:4;stroke-dasharray:none;stroke-opacity:1"
         d="m 263.871,17.9102 -251.8632,0 29.1406,39.7265 251.3166,0 -28.594,-39.7265 z"
         inkscape:connector-curvature="0" /><path
         id="path42"
         style="fill:#02709f;fill-opacity:1;fill-rule:nonzero;stroke:none"
         d="m 372.613,161.785 -314.8357,0 -52.74214,-49.773 314.73484,0 52.843,49.773"
         inkscape:connector-curvature="0" /><path
         id="path44"
         style="fill:none;stroke:#ffffff;stroke-width:3.99993992;stroke-linecap:butt;stroke-linejoin:miter;stroke-miterlimit:4;stroke-dasharray:none;stroke-opacity:1"
         d="m 372.613,161.785 -314.8357,0 -52.74214,-49.773 314.73484,0 52.843,49.773 z"
         inkscape:connector-curvature="0" /><path
         id="path46"
         style="fill:#02709f;fill-opacity:1;fill-rule:nonzero;stroke:none"
         d="m 61.332,141.191 217.004,0 0,159.199 -217.004,0 0,-159.199 z"
         inkscape:connector-curvature="0" /><path
         id="path48"
         style="fill:none;stroke:#ffffff;stroke-width:3.99993992;stroke-linecap:butt;stroke-linejoin:miter;stroke-miterlimit:4;stroke-dasharray:none;stroke-opacity:1"
         d="m 61.332,141.191 217.004,0 0,159.199 -217.004,0 0,-159.199 z"
         inkscape:connector-curvature="0" /><path
         id="path50"
         style="fill:#02709f;fill-opacity:1;fill-rule:nonzero;stroke:none"
         d="m 79.6641,265.449 c 0,15.969 16.5507,18.332 16.5507,18.332 0,0 127.7262,0 143.0982,0 20.105,0 19.511,-18.918 19.511,-18.918 0,0 0,-78.054 0,-89.297 0,-11.23 -15.371,-15.957 -15.371,-15.957 0,0 -130.676,0 -144.8749,0 -14.1875,0 -18.914,14.786 -18.914,14.786 l 0,91.054"
         inkscape:connector-curvature="0" /><path
         id="path52"
         style="fill:none;stroke:#ffffff;stroke-width:3.99993992;stroke-linecap:butt;stroke-linejoin:miter;stroke-miterlimit:4;stroke-dasharray:none;stroke-opacity:1"
         d="m 79.6641,265.449 c 0,15.969 16.5507,18.332 16.5507,18.332 0,0 127.7262,0 143.0982,0 20.105,0 19.511,-18.918 19.511,-18.918 0,0 0,-78.054 0,-89.297 0,-11.23 -15.371,-15.957 -15.371,-15.957 0,0 -130.676,0 -144.8749,0 -14.1875,0 -18.914,14.786 -18.914,14.786 l 0,91.054 z"
         inkscape:connector-curvature="0" /><path
         id="path54"
         style="fill:#02709f;fill-opacity:1;fill-rule:nonzero;stroke:none"
         d="m 314.703,334.629 -217.0116,0 -36.3594,-34.238 217.004,0 36.367,34.238"
         inkscape:connector-curvature="0" /><path
         id="path56"
         style="fill:none;stroke:#ffffff;stroke-width:3.99993992;stroke-linecap:butt;stroke-linejoin:miter;stroke-miterlimit:4;stroke-dasharray:none;stroke-opacity:1"
         d="m 314.703,334.629 -217.0116,0 -36.3594,-34.238 217.004,0 36.367,34.238 z"
         inkscape:connector-curvature="0" /><path
         id="path58"
         style="fill:#02709f;fill-opacity:1;fill-rule:nonzero;stroke:none"
         d="m 314.711,175.078 0,159.629 -36.016,-34.316 0,-159.2 36.016,33.887"
         inkscape:connector-curvature="0" /><path
         id="path60"
         style="fill:none;stroke:#ffffff;stroke-width:3.99993992;stroke-linecap:butt;stroke-linejoin:miter;stroke-miterlimit:4;stroke-dasharray:none;stroke-opacity:1"
         d="m 314.711,175.078 0,159.629 -36.016,-34.316 0,-159.2 36.016,33.887 z"
         inkscape:connector-curvature="0" /></g></g></svg>