<?xml version="1.0" encoding="UTF-8" standalone="no"?>
<svg
   xmlns:dc="http://purl.org/dc/elements/1.1/"
   xmlns:cc="http://creativecommons.org/ns#"
   xmlns:rdf="http://www.w3.org/1999/02/22-rdf-syntax-ns#"
   xmlns:svg="http://www.w3.org/2000/svg"
   xmlns="http://www.w3.org/2000/svg"
   viewBox="0 0 47.5 43.75"
   height="43.75"
   width="47.5"
   xml:space="preserve"
   version="1.1"
   id="svg2"><metadata
     id="metadata8"><rdf:RDF><cc:Work
         rdf:about=""><dc:format>image/svg+xml</dc:format><dc:type
           rdf:resource="http://purl.org/dc/dcmitype/StillImage" /></cc:Work></rdf:RDF></metadata><defs
     id="defs6" /><g
     transform="matrix(1.25,0,0,-1.25,0,43.75)"
     id="g10"><g
       transform="scale(0.1,0.1)"
       id="g12"><path
         id="path14"
         style="fill:#02709f;fill-opacity:1;fill-rule:nonzero;stroke:none"
         d="m 5.03906,62.9414 314.73,0 0,59.0586 -314.73,0 0,-59.0586 z" /><path
         id="path16"
         style="fill:none;stroke:#ffffff;stroke-width:3.99993992;stroke-linecap:butt;stroke-linejoin:miter;stroke-miterlimit:4;stroke-dasharray:none;stroke-opacity:1"
         d="m 5.03906,62.9375 314.73,0 0,59.0625 -314.73,0 0,-59.0625 z" /><path
         id="path18"
         style="fill:none;stroke:#ffffff;stroke-width:3.99993992;stroke-linecap:butt;stroke-linejoin:miter;stroke-miterlimit:4;stroke-dasharray:none;stroke-opacity:1"
         d="m 223.359,88.5586 79.411,0" /><path
         id="path20"
         style="fill:none;stroke:#ffffff;stroke-width:3.99993992;stroke-linecap:butt;stroke-linejoin:miter;stroke-miterlimit:4;stroke-dasharray:none;stroke-opacity:1"
         d="m 223.359,91.4102 79.411,0" /><path
         id="path22"
         style="fill:#02709f;fill-opacity:1;fill-rule:nonzero;stroke:none"
         d="m 372.621,118.949 0,52.852 -52.891,-50.039 0,-58.8323 52.891,56.0193" /><path
         id="path24"
         style="fill:none;stroke:#ffffff;stroke-width:3.99993992;stroke-linecap:butt;stroke-linejoin:miter;stroke-miterlimit:4;stroke-dasharray:none;stroke-opacity:1"
         d="m 372.621,118.949 0,52.852 -52.891,-50.043 0,-58.8283 52.891,56.0193 z" /><path
         id="path26"
         style="fill:#02709f;fill-opacity:1;fill-rule:nonzero;stroke:none"
         d="m 263.871,14.8086 0,13.1211 28.59,39.6914 0,-24.1797 -28.59,-28.6328" /><path
         id="path28"
         style="fill:none;stroke:#ffffff;stroke-width:3.99993992;stroke-linecap:butt;stroke-linejoin:miter;stroke-miterlimit:4;stroke-dasharray:none;stroke-opacity:1"
         d="m 263.871,14.8086 0,13.1211 28.59,39.6875 0,-24.1797 -28.59,-28.6289 z" /><path
         id="path30"
         style="fill:#02709f;fill-opacity:1;fill-rule:nonzero;stroke:none"
         d="m 11.9883,14.8008 251.883,0 0,13.0898 -251.883,0 0,-13.0898 z" /><path
         id="path32"
         style="fill:none;stroke:#ffffff;stroke-width:3.99993992;stroke-linecap:butt;stroke-linejoin:miter;stroke-miterlimit:4;stroke-dasharray:none;stroke-opacity:1"
         d="m 11.9883,14.8086 251.883,0 0,13.0898 -251.883,0 0,-13.0898 z" /><path
         id="path34"
         style="fill:#02709f;fill-opacity:1;fill-rule:nonzero;stroke:none"
         d="m 263.871,27.9297 -251.8827,0 29.1406,39.6914 251.3321,0 -28.59,-39.6914" /><path
         id="path36"
         style="fill:none;stroke:#ffffff;stroke-width:3.99993992;stroke-linecap:butt;stroke-linejoin:miter;stroke-miterlimit:4;stroke-dasharray:none;stroke-opacity:1"
         d="m 263.871,27.9297 -251.8827,0 29.1406,39.6875 251.3321,0 -28.59,-39.6875 z" /><path
         id="path38"
         style="fill:#02709f;fill-opacity:1;fill-rule:nonzero;stroke:none"
         d="m 372.621,171.801 -314.8515,0 -52.73044,-49.762 314.73094,0 52.851,49.762" /><path
         id="path40"
         style="fill:none;stroke:#ffffff;stroke-width:3.99993992;stroke-linecap:butt;stroke-linejoin:miter;stroke-miterlimit:4;stroke-dasharray:none;stroke-opacity:1"
         d="m 372.621,171.801 -314.8515,0 -52.73044,-49.762 314.73094,0 52.851,49.762 z" /><path
         id="path42"
         style="fill:#02709f;fill-opacity:1;fill-rule:nonzero;stroke:none"
         d="m 61.3281,151.172 216.992,0 0,159.219 -216.992,0 0,-159.219 z" /><path
         id="path44"
         style="fill:none;stroke:#ffffff;stroke-width:3.99993992;stroke-linecap:butt;stroke-linejoin:miter;stroke-miterlimit:4;stroke-dasharray:none;stroke-opacity:1"
         d="m 61.3281,151.18 216.992,0 0,159.219 -216.992,0 0,-159.219 z" /><path
         id="path46"
         style="fill:#02709f;fill-opacity:1;fill-rule:nonzero;stroke:none"
         d="m 79.6484,275.43 c 0,15.98 16.5625,18.359 16.5625,18.359 l 143.0901,0 c 20.109,0 19.527,-18.937 19.527,-18.937 l 0,-89.301 c 0,-11.211 -15.387,-15.942 -15.387,-15.942 l -144.8512,0 c -14.2109,0 -18.9414,14.813 -18.9414,14.813 l 0,91.008" /><path
         id="path48"
         style="fill:none;stroke:#ffffff;stroke-width:3.99993992;stroke-linecap:butt;stroke-linejoin:miter;stroke-miterlimit:4;stroke-dasharray:none;stroke-opacity:1"
         d="m 79.6484,275.43 c 0,15.98 16.5625,18.359 16.5625,18.359 l 143.0901,0 c 20.109,0 19.527,-18.941 19.527,-18.941 l 0,-89.297 c 0,-11.211 -15.387,-15.942 -15.387,-15.942 l -144.8512,0 c -14.2109,0 -18.9414,14.809 -18.9414,14.809 l 0,91.012 z" /><path
         id="path50"
         style="fill:#02709f;fill-opacity:1;fill-rule:nonzero;stroke:none"
         d="m 314.691,344.648 -216.9918,0 -36.3711,-34.257 216.9919,0 36.371,34.257" /><path
         id="path52"
         style="fill:none;stroke:#ffffff;stroke-width:3.99993992;stroke-linecap:butt;stroke-linejoin:miter;stroke-miterlimit:4;stroke-dasharray:none;stroke-opacity:1"
         d="m 314.691,344.648 -216.9918,0 -36.3711,-34.25 216.9919,0 36.371,34.25 z" /><path
         id="path54"
         style="fill:#02709f;fill-opacity:1;fill-rule:nonzero;stroke:none"
         d="m 314.73,185.078 0,159.613 -36.019,-34.3 0,-159.211 36.019,33.898" /><path
         id="path56"
         style="fill:none;stroke:#ffffff;stroke-width:3.99993992;stroke-linecap:butt;stroke-linejoin:miter;stroke-miterlimit:4;stroke-dasharray:none;stroke-opacity:1"
         d="m 314.73,185.078 0,159.61 -36.019,-34.29 0,-159.218 36.019,33.898 z" /></g></g></svg>