<?xml version="1.0" encoding="UTF-8" standalone="no"?>
<svg
   xmlns:dc="http://purl.org/dc/elements/1.1/"
   xmlns:cc="http://creativecommons.org/ns#"
   xmlns:rdf="http://www.w3.org/1999/02/22-rdf-syntax-ns#"
   xmlns:svg="http://www.w3.org/2000/svg"
   xmlns="http://www.w3.org/2000/svg"
   viewBox="0 0 38.75 53.75"
   height="53.75"
   width="38.75"
   xml:space="preserve"
   version="1.1"
   id="svg2"><metadata
     id="metadata8"><rdf:RDF><cc:Work
         rdf:about=""><dc:format>image/svg+xml</dc:format><dc:type
           rdf:resource="http://purl.org/dc/dcmitype/StillImage" /></cc:Work></rdf:RDF></metadata><defs
     id="defs6"><clipPath
       id="clipPath18"
       clipPathUnits="userSpaceOnUse"><path
         id="path20"
         d="M 0,10 0,426 310,426 310,10 0,10 Z" /></clipPath></defs><g
     transform="matrix(1.25,0,0,-1.25,0,53.75)"
     id="g10"><g
       transform="scale(0.1,0.1)"
       id="g12"><g
         id="g14"><g
           clip-path="url(#clipPath18)"
           id="g16"><path
             id="path22"
             style="fill:#000000;fill-opacity:1;fill-rule:nonzero;stroke:none"
             d="m 150.121,38.0625 0,108.7505 -24.652,-23.399 0,-108.7499 24.652,23.3984" /><path
             id="path24"
             style="fill:none;stroke:#ffffff;stroke-width:4;stroke-linecap:butt;stroke-linejoin:miter;stroke-miterlimit:4;stroke-dasharray:none;stroke-opacity:1"
             d="m 150.121,38.0625 0,108.7505 -24.652,-23.399 0,-108.7499 24.652,23.3984 z" /><path
             id="path26"
             style="fill:#026c9b;fill-opacity:1;fill-rule:nonzero;stroke:none"
             d="m 5.98047,14.6641 119.488,0 0,108.75 -119.488,0 0,-108.75 z" /><path
             id="path28"
             style="fill:none;stroke:#ffffff;stroke-width:4;stroke-linecap:butt;stroke-linejoin:miter;stroke-miterlimit:4;stroke-dasharray:none;stroke-opacity:1"
             d="m 5.98047,14.6641 119.488,0 0,108.75 -119.488,0 0,-108.75 z" /><path
             id="path30"
             style="fill:#026c9b;fill-opacity:1;fill-rule:nonzero;stroke:none"
             d="m 135.352,14.6641 119.488,0 0,108.75 -119.488,0 0,-108.75 z" /><path
             id="path32"
             style="fill:none;stroke:#ffffff;stroke-width:4;stroke-linecap:butt;stroke-linejoin:miter;stroke-miterlimit:4;stroke-dasharray:none;stroke-opacity:1"
             d="m 135.352,14.6641 119.488,0 0,108.75 -119.488,0 0,-108.75 z" /><path
             id="path34"
             style="fill:#026c9b;fill-opacity:1;fill-rule:nonzero;stroke:none"
             d="m 306.289,174.664 0,246.25 -51.328,-48.75 0,-246.25 51.328,48.75" /><path
             id="path36"
             style="fill:none;stroke:#ffffff;stroke-width:4;stroke-linecap:butt;stroke-linejoin:miter;stroke-miterlimit:4;stroke-dasharray:none;stroke-opacity:1"
             d="m 306.289,174.664 0,246.25 -51.328,-48.75 0,-246.25 51.328,48.75 z" /><path
             id="path38"
             style="fill:#026c9b;fill-opacity:1;fill-rule:nonzero;stroke:none"
             d="m 306.211,63.4141 0,108.7499 -51.371,-48.75 0,-108.7499 51.371,48.75" /><path
             id="path40"
             style="fill:none;stroke:#ffffff;stroke-width:4;stroke-linecap:butt;stroke-linejoin:miter;stroke-miterlimit:4;stroke-dasharray:none;stroke-opacity:1"
             d="m 306.211,63.4141 0,108.7499 -51.371,-48.75 0,-108.7499 51.371,48.75 z" /><path
             id="path42"
             style="fill:#026c9b;fill-opacity:1;fill-rule:nonzero;stroke:none"
             d="m 306.289,420.914 -51.328,-48.75 -248.98053,0 64.48833,48.75 235.8202,0" /><path
             id="path44"
             style="fill:none;stroke:#ffffff;stroke-width:4;stroke-linecap:butt;stroke-linejoin:miter;stroke-miterlimit:4;stroke-dasharray:none;stroke-opacity:1"
             d="m 306.289,420.914 -51.328,-48.75 -248.98053,0 64.48833,48.75 235.8202,0 z" /><path
             id="path46"
             style="fill:#026c9b;fill-opacity:1;fill-rule:nonzero;stroke:none"
             d="m 5.98047,125.914 248.98,0 0,246.25 -248.98,0 0,-246.25 z" /><path
             id="path48"
             style="fill:none;stroke:#ffffff;stroke-width:4;stroke-linecap:butt;stroke-linejoin:miter;stroke-miterlimit:4;stroke-dasharray:none;stroke-opacity:1"
             d="m 5.98047,125.914 248.98,0 0,246.25 -248.98,0 0,-246.25 z" /><path
             id="path50"
             style="fill:#ffffff;fill-opacity:1;fill-rule:nonzero;stroke:none"
             d="m 108.281,278.223 -37.8904,37.89 6.4102,6.442 -23.7891,4.808 4.8399,-23.789 6.4101,6.399 37.8863,-37.848 6.133,6.098" /><path
             id="path52"
             style="fill:#ffffff;fill-opacity:1;fill-rule:nonzero;stroke:none"
             d="m 94.4102,253.414 -53.5899,0 0,9.102 -20.1992,-13.403 20.1992,-13.429 0,9.101 53.5899,0 0,8.629" /><path
             id="path54"
             style="fill:#ffffff;fill-opacity:1;fill-rule:nonzero;stroke:none"
             d="m 102.148,226.113 -37.8863,-37.89 -6.4101,6.402 -4.8399,-23.793 23.7891,4.852 -6.4102,6.398 37.8904,37.891 -6.133,6.14" /><path
             id="path56"
             style="fill:#ffffff;fill-opacity:1;fill-rule:nonzero;stroke:none"
             d="m 126.949,212.242 0,-53.59 -9.097,0 13.437,-20.199 13.402,20.199 -9.101,0 0,53.59 -8.641,0" /><path
             id="path58"
             style="fill:#ffffff;fill-opacity:1;fill-rule:nonzero;stroke:none"
             d="m 126.949,284.434 0,53.55 -9.097,0 13.437,20.239 13.402,-20.239 -9.101,0 0,-53.55 -8.641,0" /><path
             id="path60"
             style="fill:#ffffff;fill-opacity:1;fill-rule:nonzero;stroke:none"
             d="m 154.301,219.973 37.89,-37.891 -6.453,-6.398 23.793,-4.852 -4.801,23.793 -6.449,-6.402 -37.89,37.89 -6.09,-6.14" /><path
             id="path62"
             style="fill:#ffffff;fill-opacity:1;fill-rule:nonzero;stroke:none"
             d="m 168.121,244.785 53.598,0 0,-9.101 20.23,13.429 -20.23,13.403 0,-9.102 -53.598,0 0,-8.629" /><path
             id="path64"
             style="fill:#ffffff;fill-opacity:1;fill-rule:nonzero;stroke:none"
             d="m 160.391,272.125 37.89,37.891 6.449,-6.442 4.801,23.789 -23.793,-4.808 6.453,-6.442 -37.89,-37.89 6.09,-6.098" /><path
             id="path66"
             style="fill:#ffffff;fill-opacity:1;fill-rule:nonzero;stroke:none"
             d="m 28.4805,95.5625 7.6484,0 -11.25,16.9925 -11.2891,-16.9925 7.5821,0 0,-55.7773 -7.6524,0 11.2813,-16.9922 11.25,16.9922 -7.5703,0 0,55.7773" /><path
             id="path68"
             style="fill:#ffffff;fill-opacity:1;fill-rule:nonzero;stroke:none"
             d="m 55.8203,95.5625 7.6602,0 -11.25,16.9925 -11.2891,-16.9925 7.5781,0 0,-55.7773 -7.6601,0 11.25,-16.9922 11.289,16.9922 -7.5781,0 0,55.7773" /><path
             id="path70"
             style="fill:#ffffff;fill-opacity:1;fill-rule:nonzero;stroke:none"
             d="m 83.1211,95.5625 7.6992,0 -11.289,16.9925 -11.25,-16.9925 7.5781,0 0,-55.7773 -7.6602,0 11.25,-16.9922 11.2891,16.9922 -7.6172,0 0,55.7773" /><path
             id="path72"
             style="fill:#ffffff;fill-opacity:1;fill-rule:nonzero;stroke:none"
             d="m 110.469,95.5625 7.691,0 -11.281,16.9925 -11.2579,-16.9925 7.5779,0 0,-55.7773 -7.6873,0 11.2893,-16.9922 11.289,16.9922 -7.621,0 0,55.7773" /><path
             id="path74"
             style="fill:#ffffff;fill-opacity:1;fill-rule:nonzero;stroke:none"
             d="m 157.852,95.5625 7.66,0 -11.25,16.9925 -11.293,-16.9925 7.582,0 0,-55.7773 -7.66,0 11.289,-16.9922 11.25,16.9922 -7.578,0 0,55.7773" /><path
             id="path76"
             style="fill:#ffffff;fill-opacity:1;fill-rule:nonzero;stroke:none"
             d="m 185.199,95.5625 7.653,0 -11.25,16.9925 -11.293,-16.9925 7.582,0 0,-55.7773 -7.661,0 11.25,-16.9922 11.29,16.9922 -7.571,0 0,55.7773" /><path
             id="path78"
             style="fill:#ffffff;fill-opacity:1;fill-rule:nonzero;stroke:none"
             d="m 212.5,95.5625 7.699,0 -11.289,16.9925 -11.25,-16.9925 7.57,0 0,-55.7773 -7.652,0 11.25,-16.9922 11.293,16.9922 -7.621,0 0,55.7773" /><path
             id="path80"
             style="fill:#ffffff;fill-opacity:1;fill-rule:nonzero;stroke:none"
             d="m 239.84,95.5625 7.699,0 L 236.25,112.555 225,95.5625 l 7.578,0 0,-55.7773 -7.699,0 11.293,-16.9922 11.289,16.9922 -7.621,0 0,55.7773" /></g></g></g></g></svg>