<svg xmlns="http://www.w3.org/2000/svg" viewBox="0 0 38.75 53.75" height="53.75" width="38.75"><defs><clipPath id="a"><path d="M0 10v416h310V10H0z"/></clipPath></defs><g clip-path="url(#a)" transform="matrix(.13 0 0 -.13 0 53.75)"><path d="M150.121 38.063v108.75l-24.652-23.399V14.664l24.652 23.398"/><path d="M150.121 38.063v108.75l-24.652-23.399V14.664l24.652 23.398z" fill="none" stroke="#fff" stroke-width="4"/><path d="M5.98 14.664h119.488v108.75H5.98V14.664z" fill="#026c9b"/><path d="M5.98 14.664h119.488v108.75H5.98V14.664z" fill="none" stroke="#fff" stroke-width="4"/><path d="M135.352 14.664H254.84v108.75H135.352V14.664z" fill="#026c9b"/><path d="M135.352 14.664H254.84v108.75H135.352V14.664z" fill="none" stroke="#fff" stroke-width="4"/><path d="M306.289 174.664v246.25l-51.328-48.75v-246.25l51.328 48.75" fill="#026c9b"/><path d="M306.289 174.664v246.25l-51.328-48.75v-246.25l51.328 48.75z" fill="none" stroke="#fff" stroke-width="4"/><path d="M306.211 63.414v108.75l-51.371-48.75V14.664l51.371 48.75" fill="#026c9b"/><path d="M306.211 63.414v108.75l-51.371-48.75V14.664l51.371 48.75z" fill="none" stroke="#fff" stroke-width="4"/><path d="M306.289 420.914l-51.328-48.75H5.981l64.488 48.75h235.82" fill="#026c9b"/><path d="M306.289 420.914l-51.328-48.75H5.981l64.488 48.75h235.82z" fill="none" stroke="#fff" stroke-width="4"/><path d="M5.98 125.914h248.98v246.25H5.98v-246.25z" fill="#026c9b"/><path d="M5.98 125.914h248.98v246.25H5.98v-246.25z" fill="none" stroke="#fff" stroke-width="4"/><path d="M108.281 278.223l-37.89 37.89 6.41 6.442-23.79 4.808 4.84-23.789 6.41 6.399 37.887-37.848 6.133 6.098M94.41 253.414H40.82v9.102l-20.199-13.403 20.2-13.429v9.101h53.59v8.629M102.148 226.113l-37.886-37.89-6.41 6.402-4.84-23.793 23.789 4.852-6.41 6.398 37.89 37.891-6.133 6.14M126.949 212.242v-53.59h-9.097l13.437-20.199 13.402 20.199h-9.101v53.59h-8.641M126.949 284.434v53.55h-9.097l13.437 20.239 13.402-20.239h-9.101v-53.55h-8.641M154.301 219.973l37.89-37.891-6.453-6.398 23.793-4.852-4.801 23.793-6.449-6.402-37.89 37.89-6.09-6.14M168.121 244.785h53.598v-9.101l20.23 13.429-20.23 13.403v-9.102h-53.598v-8.629M160.391 272.125l37.89 37.891 6.449-6.442 4.801 23.789-23.793-4.808 6.453-6.442-37.89-37.89 6.09-6.098M28.48 95.563h7.649l-11.25 16.992-11.29-16.992h7.583V39.785H13.52L24.8 22.793l11.25 16.992h-7.57v55.778M55.82 95.563h7.66l-11.25 16.992-11.289-16.992h7.579V39.785h-7.66l11.25-16.992 11.288 16.992H55.82v55.778M83.121 95.563h7.7l-11.29 16.992-11.25-16.992h7.578V39.785H68.2l11.25-16.992 11.29 16.992H83.12v55.778M110.469 95.563h7.691l-11.281 16.992-11.258-16.992h7.578V39.785h-7.687L106.8 22.793l11.289 16.992h-7.621v55.778M157.852 95.563h7.66l-11.25 16.992-11.293-16.992h7.582V39.785h-7.66l11.289-16.992 11.25 16.992h-7.578v55.778M185.199 95.563h7.653l-11.25 16.992-11.293-16.992h7.582V39.785h-7.661l11.25-16.992 11.29 16.992h-7.571v55.778M212.5 95.563h7.699l-11.289 16.992-11.25-16.992h7.57V39.785h-7.652l11.25-16.992 11.293 16.992H212.5v55.778M239.84 95.563h7.699l-11.289 16.992L225 95.562h7.578V39.785h-7.699l11.293-16.992 11.289 16.992h-7.621v55.778" fill="#fff"/></g></svg>