<?xml version="1.0" encoding="UTF-8" standalone="no"?>
<svg
   xmlns:dc="http://purl.org/dc/elements/1.1/"
   xmlns:cc="http://creativecommons.org/ns#"
   xmlns:rdf="http://www.w3.org/1999/02/22-rdf-syntax-ns#"
   xmlns:svg="http://www.w3.org/2000/svg"
   xmlns="http://www.w3.org/2000/svg"
   viewBox="0 0 38.912498 51.950001"
   height="51.950001"
   width="38.912498"
   xml:space="preserve"
   version="1.1"
   id="svg2"><metadata
     id="metadata8"><rdf:RDF><cc:Work
         rdf:about=""><dc:format>image/svg+xml</dc:format><dc:type
           rdf:resource="http://purl.org/dc/dcmitype/StillImage" /></cc:Work></rdf:RDF></metadata><defs
     id="defs6"><clipPath
       id="clipPath18"
       clipPathUnits="userSpaceOnUse"><path
         id="path20"
         d="M 0,0 0,416 310,416 310,0 0,0 Z" /></clipPath></defs><g
     transform="matrix(1.25,0,0,-1.25,0,51.95)"
     id="g10"><g
       transform="scale(0.1,0.1)"
       id="g12"><g
         id="g14"><g
           clip-path="url(#clipPath18)"
           id="g16"><path
             id="path22"
             style="fill:#000000;fill-opacity:1;fill-rule:nonzero;stroke:none"
             d="m 150.121,28.0547 0,108.7503 -24.648,-23.399 0,-108.74975 24.648,23.39845" /><path
             id="path24"
             style="fill:none;stroke:#ffffff;stroke-width:4;stroke-linecap:butt;stroke-linejoin:miter;stroke-miterlimit:4;stroke-dasharray:none;stroke-opacity:1"
             d="m 150.121,28.0547 0,108.7503 -24.648,-23.399 0,-108.74975 24.648,23.39845 z" /><path
             id="path26"
             style="fill:#026c9b;fill-opacity:1;fill-rule:nonzero;stroke:none"
             d="m 5.96094,4.65625 119.512,0 0,108.75 -119.512,0 0,-108.75 z" /><path
             id="path28"
             style="fill:none;stroke:#ffffff;stroke-width:4;stroke-linecap:butt;stroke-linejoin:miter;stroke-miterlimit:4;stroke-dasharray:none;stroke-opacity:1"
             d="m 5.96094,4.65625 119.512,0 0,108.75 -119.512,0 0,-108.75 z" /><path
             id="path30"
             style="fill:#026c9b;fill-opacity:1;fill-rule:nonzero;stroke:none"
             d="m 135.336,4.65625 119.512,0 0,108.75 -119.512,0 0,-108.75 z" /><path
             id="path32"
             style="fill:none;stroke:#ffffff;stroke-width:4;stroke-linecap:butt;stroke-linejoin:miter;stroke-miterlimit:4;stroke-dasharray:none;stroke-opacity:1"
             d="m 135.336,4.65625 119.512,0 0,108.75 -119.512,0 0,-108.75 z" /><path
             id="path34"
             style="fill:#026c9b;fill-opacity:1;fill-rule:nonzero;stroke:none"
             d="m 306.293,164.656 0,246.25 -51.328,-48.75 0,-246.25 51.328,48.75" /><path
             id="path36"
             style="fill:none;stroke:#ffffff;stroke-width:4;stroke-linecap:butt;stroke-linejoin:miter;stroke-miterlimit:4;stroke-dasharray:none;stroke-opacity:1"
             d="m 306.293,164.656 0,246.25 -51.328,-48.75 0,-246.25 51.328,48.75 z" /><path
             id="path38"
             style="fill:#026c9b;fill-opacity:1;fill-rule:nonzero;stroke:none"
             d="m 306.195,53.4063 0,108.7497 -51.347,-48.75 0,-108.74975 51.347,48.75005" /><path
             id="path40"
             style="fill:none;stroke:#ffffff;stroke-width:4;stroke-linecap:butt;stroke-linejoin:miter;stroke-miterlimit:4;stroke-dasharray:none;stroke-opacity:1"
             d="m 306.195,53.4063 0,108.7497 -51.347,-48.75 0,-108.74975 51.347,48.75005 z" /><path
             id="path42"
             style="fill:#026c9b;fill-opacity:1;fill-rule:nonzero;stroke:none"
             d="m 306.293,410.906 -51.328,-48.75 -249.00406,0 64.51176,48.75 235.8203,0" /><path
             id="path44"
             style="fill:none;stroke:#ffffff;stroke-width:4;stroke-linecap:butt;stroke-linejoin:miter;stroke-miterlimit:4;stroke-dasharray:none;stroke-opacity:1"
             d="m 306.293,410.906 -51.328,-48.75 -249.00406,0 64.51176,48.75 235.8203,0 z" /><path
             id="path46"
             style="fill:#026c9b;fill-opacity:1;fill-rule:nonzero;stroke:none"
             d="m 5.96094,115.906 249.004,0 0,246.25 -249.004,0 0,-246.25 z" /><path
             id="path48"
             style="fill:none;stroke:#ffffff;stroke-width:4;stroke-linecap:butt;stroke-linejoin:miter;stroke-miterlimit:4;stroke-dasharray:none;stroke-opacity:1"
             d="m 5.96094,115.906 249.004,0 0,246.25 -249.004,0 0,-246.25 z" /><path
             id="path50"
             style="fill:#ffffff;fill-opacity:1;fill-rule:nonzero;stroke:none"
             d="m 108.266,268.227 -37.891,37.886 6.4258,6.426 -23.7891,4.813 4.8242,-23.778 6.4258,6.422 37.8903,-37.883 6.114,6.114" /><path
             id="path52"
             style="fill:#ffffff;fill-opacity:1;fill-rule:nonzero;stroke:none"
             d="m 94.3984,243.426 -53.5742,0 0,9.09 -20.2148,-13.414 20.2148,-13.411 0,9.09 53.5742,0 0,8.645" /><path
             id="path54"
             style="fill:#ffffff;fill-opacity:1;fill-rule:nonzero;stroke:none"
             d="m 102.152,216.094 -37.8903,-37.887 -6.4258,6.426 -4.8242,-23.778 23.7891,4.813 -6.4258,6.426 37.891,37.886 -6.114,6.114" /><path
             id="path56"
             style="fill:#ffffff;fill-opacity:1;fill-rule:nonzero;stroke:none"
             d="m 126.957,202.242 0,-53.582 -9.102,0 13.418,-20.222 13.418,20.222 -9.101,0 0,53.582 -8.633,0" /><path
             id="path58"
             style="fill:#ffffff;fill-opacity:1;fill-rule:nonzero;stroke:none"
             d="m 126.957,274.422 0,53.582 -9.102,0 13.418,20.219 13.418,-20.219 -9.101,0 0,-53.582 -8.633,0" /><path
             id="path60"
             style="fill:#ffffff;fill-opacity:1;fill-rule:nonzero;stroke:none"
             d="m 154.281,209.98 37.891,-37.886 -6.426,-6.426 23.77,-4.813 -4.805,23.778 -6.426,-6.426 -37.89,37.887 -6.114,-6.114" /><path
             id="path62"
             style="fill:#ffffff;fill-opacity:1;fill-rule:nonzero;stroke:none"
             d="m 168.129,234.781 53.574,0 0,-9.09 20.235,13.411 -20.235,13.414 0,-9.09 -53.574,0 0,-8.645" /><path
             id="path64"
             style="fill:#ffffff;fill-opacity:1;fill-rule:nonzero;stroke:none"
             d="m 160.395,262.113 37.89,37.887 6.426,-6.426 4.805,23.778 -23.77,-4.813 6.426,-6.426 -37.891,-37.886 6.114,-6.114" /><path
             id="path66"
             style="fill:#ffffff;fill-opacity:1;fill-rule:nonzero;stroke:none"
             d="m 28.4609,85.5469 7.6758,0 -11.2695,17.0121 -11.2891,-17.0121 7.5977,0 0,-55.75 -7.6758,0 11.2891,-17.0156 11.2695,17.0156 -7.5977,0 0,55.75" /><path
             id="path68"
             style="fill:#ffffff;fill-opacity:1;fill-rule:nonzero;stroke:none"
             d="m 55.8047,85.5469 7.6758,0 -11.2696,17.0121 -11.289,-17.0121 7.5976,0 0,-55.75 -7.6757,0 11.2695,-17.0156 11.289,17.0156 -7.5976,0 0,55.75" /><path
             id="path70"
             style="fill:#ffffff;fill-opacity:1;fill-rule:nonzero;stroke:none"
             d="m 83.1289,85.5469 7.6953,0 -11.289,17.0121 -11.2696,-17.0121 7.5977,0 0,-55.75 -7.6758,0 11.2695,-17.0156 11.2891,17.0156 -7.6172,0 0,55.75" /><path
             id="path72"
             style="fill:#ffffff;fill-opacity:1;fill-rule:nonzero;stroke:none"
             d="m 110.473,85.5469 7.695,0 -11.289,17.0121 -11.2696,-17.0121 7.5976,0 0,-55.75 -7.6953,0 11.2893,-17.0156 11.289,17.0156 -7.617,0 0,55.75" /><path
             id="path74"
             style="fill:#ffffff;fill-opacity:1;fill-rule:nonzero;stroke:none"
             d="m 157.836,85.5469 7.676,0 -11.27,17.0121 -11.289,-17.0121 7.598,0 0,-55.75 -7.676,0 11.289,-17.0156 11.27,17.0156 -7.598,0 0,55.75" /><path
             id="path76"
             style="fill:#ffffff;fill-opacity:1;fill-rule:nonzero;stroke:none"
             d="m 185.18,85.5469 7.675,0 -11.269,17.0121 -11.289,-17.0121 7.598,0 0,-55.75 -7.676,0 11.269,-17.0156 11.289,17.0156 -7.597,0 0,55.75" /><path
             id="path78"
             style="fill:#ffffff;fill-opacity:1;fill-rule:nonzero;stroke:none"
             d="m 212.504,85.5469 7.695,0 -11.289,17.0121 -11.269,-17.0121 7.597,0 0,-55.75 -7.675,0 11.269,-17.0156 11.289,17.0156 -7.617,0 0,55.75" /><path
             id="path80"
             style="fill:#ffffff;fill-opacity:1;fill-rule:nonzero;stroke:none"
             d="m 239.848,85.5469 7.695,0 -11.289,17.0121 -11.27,-17.0121 7.598,0 0,-55.75 -7.695,0 11.289,-17.0156 11.289,17.0156 -7.617,0 0,55.75" /></g></g></g></g></svg>