<?xml version="1.0" encoding="UTF-8" standalone="no"?>
<svg
   xmlns:dc="http://purl.org/dc/elements/1.1/"
   xmlns:cc="http://creativecommons.org/ns#"
   xmlns:rdf="http://www.w3.org/1999/02/22-rdf-syntax-ns#"
   xmlns:svg="http://www.w3.org/2000/svg"
   xmlns="http://www.w3.org/2000/svg"
   viewBox="0 0 61.25 88.75"
   height="88.75"
   width="61.25"
   xml:space="preserve"
   version="1.1"
   id="svg2"><metadata
     id="metadata8"><rdf:RDF><cc:Work
         rdf:about=""><dc:format>image/svg+xml</dc:format><dc:type
           rdf:resource="http://purl.org/dc/dcmitype/StillImage" /></cc:Work></rdf:RDF></metadata><defs
     id="defs6" /><g
     transform="matrix(1.25,0,0,-1.25,0,88.75)"
     id="g10"><g
       transform="scale(0.1,0.1)"
       id="g12"><path
         id="path14"
         style="fill:#02709f;fill-opacity:1;fill-rule:nonzero;stroke:none"
         d="m 475.512,453.18 c 15.738,22.5 -26.992,33.75 -26.992,33.75" /><path
         id="path16"
         style="fill:none;stroke:#ffffff;stroke-width:3.99993992;stroke-linecap:butt;stroke-linejoin:miter;stroke-miterlimit:4;stroke-dasharray:none;stroke-opacity:1"
         d="m 475.512,453.172 c 15.738,22.5 -26.992,33.75 -26.992,33.75" /><path
         id="path18"
         style="fill:#02709f;fill-opacity:1;fill-rule:nonzero;stroke:none"
         d="M 449.262,650.012 427.5,632 l -168.012,0 21.762,18.012 168.012,0" /><path
         id="path20"
         style="fill:none;stroke:#ffffff;stroke-width:3.99993992;stroke-linecap:butt;stroke-linejoin:miter;stroke-miterlimit:4;stroke-dasharray:none;stroke-opacity:1"
         d="M 449.262,650.012 427.5,632 l -168.012,0 21.762,18.012 168.012,0 z" /><path
         id="path22"
         style="fill:#02709f;fill-opacity:1;fill-rule:nonzero;stroke:none"
         d="m 258.012,497.43 169.488,0 0,134.262 -169.488,0 0,-134.262 z" /><path
         id="path24"
         style="fill:none;stroke:#ffffff;stroke-width:3.99993992;stroke-linecap:butt;stroke-linejoin:miter;stroke-miterlimit:4;stroke-dasharray:none;stroke-opacity:1"
         d="m 258.012,497.43 169.488,0 0,134.262 -169.488,0 0,-134.262 z" /><path
         id="path26"
         style="fill:#02709f;fill-opacity:1;fill-rule:nonzero;stroke:none"
         d="m 449.262,513.25 0,136.449 -22.5,-18.008 0,-136.441 22.5,18" /><path
         id="path28"
         style="fill:none;stroke:#ffffff;stroke-width:3.99993992;stroke-linecap:butt;stroke-linejoin:miter;stroke-miterlimit:4;stroke-dasharray:none;stroke-opacity:1"
         d="m 449.262,513.25 0,136.449 -22.5,-18.008 0,-136.449 22.5,18.008 z" /><path
         id="path30"
         style="fill:#02709f;fill-opacity:1;fill-rule:nonzero;stroke:none"
         d="m 201.02,663.18 c 1.48,-15 -8.29,-25.469 8.98,-47.231 2.5,-3.168 -3.75,-9.379 -6.02,-12.969 -2.218,-3.55 -2.96,-8.789 -1.48,-13.281 -1.48,0 -3.012,-3.75 -3.012,-6.758 -1.476,-7.5 1.532,-12.73 -3.008,-14.261 -7.5,-3 -17.96,-3 -22.5,-7.5 -5.968,-4.489 -11.992,-11.989 -15,-20.969 l -5.968,0 c -13.524,13.469 -30,41.988 -49.492,47.969 -7.5005,19.531 5.968,36.011 15,52.5 10.46,18 30,30 50.968,31.519" /><path
         id="path32"
         style="fill:none;stroke:#ffffff;stroke-width:3.99993992;stroke-linecap:butt;stroke-linejoin:miter;stroke-miterlimit:4;stroke-dasharray:none;stroke-opacity:1"
         d="m 201.02,663.172 c 1.48,-15 -8.29,-25.461 8.98,-47.223 2.5,-3.168 -3.75,-9.379 -6.02,-12.969 -2.218,-3.558 -2.96,-8.789 -1.48,-13.281 -1.48,0 -3.012,-3.75 -3.012,-6.758 -1.476,-7.5 1.532,-12.73 -3.008,-14.261 -7.5,-3.008 -17.96,-3.008 -22.5,-7.5 -5.968,-4.489 -11.992,-11.989 -15,-20.969 l -5.968,0 c -13.524,13.469 -30,41.988 -49.492,47.961 -7.5005,19.539 5.968,36.019 15,52.5 10.46,18.008 30,30 50.968,31.527" /><path
         id="path34"
         style="fill:#02709f;fill-opacity:1;fill-rule:nonzero;stroke:none"
         d="m 99.7695,589.578 c 2.3395,-2.379 8.2425,1.602 12.7305,0.121 7.5,-3.008 18.012,-4.488 22.5,0 6.02,4.492 8.98,13.481 13.52,20.981 0,1.519 1.48,4.531 4.492,6.011 7.5,0 18.008,-3.011 20.968,1.489 9.032,9.019 -2.96,27.031 10.508,34.531 10.512,4.488 28.524,7.5 25.512,22.5 -28.52,15 -60,30 -91.48,22.5 -9.032,-3.012 -16.532,-13.52 -24.0317,-21.02 C 93.0117,673.68 90,670.68 90,667.711 c -1.4805,-19.531 -3.0117,-37.5 1.4805,-57.031 1.5312,-5.981 3.75,-16.649 8.289,-21.102" /><path
         id="path36"
         style="fill:none;stroke:#ffffff;stroke-width:3.99993992;stroke-linecap:butt;stroke-linejoin:miter;stroke-miterlimit:4;stroke-dasharray:none;stroke-opacity:1"
         d="m 99.7695,589.582 c 2.3395,-2.383 8.2425,1.598 12.7305,0.117 7.5,-3.008 18.012,-4.488 22.5,0 6.02,4.492 8.98,13.473 13.52,20.973 0,1.527 1.48,4.539 4.492,6.019 7.5,0 18.008,-3.011 20.968,1.481 9.032,9.027 -2.96,27.039 10.508,34.539 10.512,4.488 28.524,7.5 25.512,22.5 -28.52,15 -60,30 -91.48,22.5 -9.032,-3.012 -16.532,-13.52 -24.0317,-21.02 C 93.0117,673.68 90,670.672 90,667.711 c -1.4805,-19.539 -3.0117,-37.5 1.4805,-57.039 1.5312,-5.973 3.75,-16.641 8.289,-21.09 z" /><path
         id="path38"
         style="fill:#02709f;fill-opacity:1;fill-rule:nonzero;stroke:none"
         d="m 255.738,231.18 0,-35.969 c -8.238,-7.5 -7.5,-19.531 -7.5,-30 11.992,-6.762 26.25,-3.75 39.032,-4.531 0,2.261 0,5.269 0.742,5.269 11.988,1.481 23.238,2.231 35.226,3.75 3.012,8.242 4.492,18.012 4.492,26.992 -10.46,5.239 -26.25,4.489 -31.48,16.489 -4.488,12.031 -4.488,24.761 -3.75,36.75" /><path
         id="path40"
         style="fill:none;stroke:#ffffff;stroke-width:3.99993992;stroke-linecap:butt;stroke-linejoin:miter;stroke-miterlimit:4;stroke-dasharray:none;stroke-opacity:1"
         d="m 255.738,231.18 0,-35.969 c -8.238,-7.5 -7.5,-19.539 -7.5,-30 11.992,-6.762 26.25,-3.75 39.032,-4.539 0,2.269 0,5.277 0.742,5.277 11.988,1.481 23.238,2.223 35.226,3.75 3.012,8.242 4.492,18.012 4.492,26.992 -10.46,5.231 -26.25,4.489 -31.48,16.481 -4.488,12.039 -4.488,24.769 -3.75,36.758" /><path
         id="path42"
         style="fill:#02709f;fill-opacity:1;fill-rule:nonzero;stroke:none"
         d="m 213.75,246.93 c 27.73,-2.969 51.762,12.031 77.27,22.5 6.71,3 16.48,0.781 24.718,0.781 2.274,-28.52 -2.218,-57.031 -0.738,-85.512 14.262,0 27.73,-1.519 41.988,0.742 7.5,0.739 15,4.489 21.762,8.239 0,39.769 2.27,79.5 -2.27,120 -0.742,4.5 -3.75,9.031 -6.71,13.519 -1.532,2.231 -4.54,4.492 -7.5,5.231 -33.75,7.5 -39.032,3.75 -72.04,8.25 -2.96,0 7.5,16.519 5.282,19.531 -5.942,7.848 -84.032,3.75 -93.75,2.969" /><path
         id="path44"
         style="fill:none;stroke:#ffffff;stroke-width:3.99993992;stroke-linecap:butt;stroke-linejoin:miter;stroke-miterlimit:4;stroke-dasharray:none;stroke-opacity:1"
         d="m 213.75,246.922 c 27.73,-2.961 51.762,12.039 77.27,22.5 6.71,3.008 16.48,0.789 24.718,0.789 2.274,-28.52 -2.218,-57.039 -0.738,-85.512 14.262,0 27.73,-1.527 41.988,0.742 7.5,0.739 15,4.489 21.762,8.239 0,39.769 2.27,79.492 -2.27,120 -0.742,4.492 -3.75,9.031 -6.71,13.519 -1.532,2.223 -4.54,4.492 -7.5,5.231 -33.75,7.5 -39.032,3.75 -72.04,8.242 -2.96,0 7.5,16.527 5.282,19.539 -5.942,7.852 -84.032,3.75 -93.75,2.961" /><path
         id="path46"
         style="fill:#02709f;fill-opacity:1;fill-rule:nonzero;stroke:none"
         d="m 353.238,186.18 c 0,-5.231 -1.476,-10.5 0.742,-15 0.79,-2.219 5.282,-2.219 8.29,-4.489 2.218,-2.261 4.492,-5.23 7.5,-6.761 4.492,-2.219 9.718,-3 15,-3.75 7.5,-0.739 15,1.531 21.71,-1.481 0.79,-0.738 3.008,-0.738 4.54,-2.269 4.492,-5.231 5.968,-11.989 2.96,-16.481 -5.968,-9.019 -14.21,-15.738 -24.718,-18.008 -14.262,-2.261 -28.524,0 -42.782,-3.011 -1.48,0 -0.742,0 -1.48,-0.739 -0.738,-2.261 0.738,-8.281 0,-8.281 -14.262,-0.738 -30.738,-3.75 -40.512,9.77 -3.008,4.531 -3.75,11.25 -1.476,17.261 3.008,6.02 4.488,11.989 5.968,18.75 2.27,5.239 1.532,5.239 3.75,10.508 3.008,7.5 1.532,15.742 1.532,23.981" /><path
         id="path48"
         style="fill:none;stroke:#ffffff;stroke-width:3.99993992;stroke-linecap:butt;stroke-linejoin:miter;stroke-miterlimit:4;stroke-dasharray:none;stroke-opacity:1"
         d="m 353.238,186.18 c 0,-5.231 -1.476,-10.508 0.742,-15 0.79,-2.219 5.282,-2.219 8.29,-4.489 2.218,-2.269 4.492,-5.23 7.5,-6.761 4.492,-2.219 9.718,-3.008 15,-3.75 7.5,-0.739 15,1.531 21.71,-1.481 0.79,-0.738 3.008,-0.738 4.54,-2.269 4.492,-5.231 5.968,-11.989 2.96,-16.481 -5.968,-9.027 -14.21,-15.738 -24.718,-18.008 -14.262,-2.269 -28.524,0 -42.782,-3.011 -1.48,0 -0.742,0 -1.48,-0.739 -0.738,-2.269 0.738,-8.281 0,-8.281 -14.262,-0.738 -30.738,-3.75 -40.512,9.762 -3.008,4.539 -3.75,11.25 -1.476,17.269 3.008,6.02 4.488,11.989 5.968,18.75 2.27,5.231 1.532,5.231 3.75,10.508 3.008,7.5 1.532,15.742 1.532,23.981" /><path
         id="path50"
         style="fill:#02709f;fill-opacity:1;fill-rule:nonzero;stroke:none"
         d="m 176.25,177.941 0,-37.5 72.73,30 c 12.04,2.27 15,-12.73 15,-12.73 l 0,-10.512 -5.968,0 0,-9.769 c -6.024,-10.5 -15.742,0 -15.742,0 l 0,12 -57.782,-26.25 68.242,-55.5081 c 9.032,-16.4922 0.79,-31.4922 0.79,-31.4922 7.5,-14.25 -6.02,-24.0195 -6.02,-24.0195 -18.012,-8.98051 -17.27,12.7695 -17.27,12.7695 -2.218,12.7422 10.508,12.7422 10.508,12.7422 l 3.75,7.5 L 165,117.199 61.4805,57.9414 57.7695,48.9219 c 8.25,-18.0117 -6.75,-23.9922 -6.75,-23.9922 -21.0195,-3.75 -12.7812,15 -12.7812,15 -0.7383,10.5117 7.5,10.5117 7.5,10.5117 l 6.0234,6.7188 c 0,0 5.2266,-2.2305 -0.7422,3.0117 C 45,65.4414 49.4883,79.6602 49.4883,79.6602 l 97.4997,48.0508 -32.218,31.48 -10.508,-6.761 c 0,-17.219 -11.9925,-11.989 -11.9925,-11.989 -12.7812,0 -5.2812,13.52 -5.2812,13.52 4.4922,3.75 10.5117,5.969 10.5117,5.969 l 7.5,16.531 24.77,-12.781 28.468,-23.981 0,33.012" /><path
         id="path52"
         style="fill:#02709f;fill-opacity:1;fill-rule:nonzero;stroke:none"
         d="m 219.77,216.18 84.718,38.25 c 6.024,7.5 -3.75,18.75 -3.75,18.75 l -79.488,-30" /><path
         id="path54"
         style="fill:none;stroke:#ffffff;stroke-width:3.99993992;stroke-linecap:butt;stroke-linejoin:miter;stroke-miterlimit:4;stroke-dasharray:none;stroke-opacity:1"
         d="m 219.77,216.18 84.718,38.242 c 6.024,7.5 -3.75,18.75 -3.75,18.75 l -79.488,-30" /><path
         id="path56"
         style="fill:#02709f;fill-opacity:1;fill-rule:nonzero;stroke:none"
         d="m 272.27,512.43 140.98,0 0,101.25 -140.98,0 0,-101.25 z" /><path
         id="path58"
         style="fill:none;stroke:#ffffff;stroke-width:3.99993992;stroke-linecap:butt;stroke-linejoin:miter;stroke-miterlimit:4;stroke-dasharray:none;stroke-opacity:1"
         d="m 272.27,512.43 140.98,0 0,101.25 -140.98,0 0,-101.25 z" /><path
         id="path60"
         style="fill:#02709f;fill-opacity:1;fill-rule:nonzero;stroke:none"
         d="m 259.41,465.828 170.23,0 0,24.7734 -170.23,0 0,-24.7734 z" /><path
         id="path62"
         style="fill:none;stroke:#ffffff;stroke-width:3.99993992;stroke-linecap:butt;stroke-linejoin:miter;stroke-miterlimit:4;stroke-dasharray:none;stroke-opacity:1"
         d="m 259.41,465.832 170.23,0 0,24.7695 -170.23,0 0,-24.7695 z" /><path
         id="path64"
         style="fill:#02709f;fill-opacity:1;fill-rule:nonzero;stroke:none"
         d="m 220.512,423.961 188.977,0 0,8.23828 -188.977,0 0,-8.23828 z" /><path
         id="path66"
         style="fill:none;stroke:#ffffff;stroke-width:3.99993992;stroke-linecap:butt;stroke-linejoin:miter;stroke-miterlimit:4;stroke-dasharray:none;stroke-opacity:1"
         d="m 220.512,423.961 188.977,0 0,8.23828 -188.977,0 0,-8.23828 z" /><path
         id="path68"
         style="fill:#02709f;fill-opacity:1;fill-rule:nonzero;stroke:none"
         d="m 446.25,427.699 27.7305,0 0,5.98047 -27.7305,0 0,-5.98047 z" /><path
         id="path70"
         style="fill:none;stroke:#ffffff;stroke-width:3.99993992;stroke-linecap:butt;stroke-linejoin:miter;stroke-miterlimit:4;stroke-dasharray:none;stroke-opacity:1"
         d="m 446.25,427.699 27.7305,0 0,5.98047 -27.7305,0 0,-5.98047 z" /><path
         id="path72"
         style="fill:#02709f;fill-opacity:1;fill-rule:nonzero;stroke:none"
         d="m 473.98,435.211 12.04,19.488 -27.782,0 -11.988,-19.488 27.73,0" /><path
         id="path74"
         style="fill:none;stroke:#ffffff;stroke-width:3.99993992;stroke-linecap:butt;stroke-linejoin:miter;stroke-miterlimit:4;stroke-dasharray:none;stroke-opacity:1"
         d="m 473.98,435.211 12.04,19.488 -27.782,0 -11.988,-19.488 27.73,0 z" /><path
         id="path76"
         style="fill:#02709f;fill-opacity:1;fill-rule:nonzero;stroke:none"
         d="m 486.762,437.43 0,17.269 -13.524,-21.019 0,-5.969 13.524,9.719" /><path
         id="path78"
         style="fill:none;stroke:#ffffff;stroke-width:3.99993992;stroke-linecap:butt;stroke-linejoin:miter;stroke-miterlimit:4;stroke-dasharray:none;stroke-opacity:1"
         d="m 486.762,437.43 0,17.269 -13.524,-21.019 0,-5.969 13.524,9.719 z" /><path
         id="path80"
         style="fill:#02709f;fill-opacity:1;fill-rule:nonzero;stroke:none"
         d="m 436.48,450.211 0,14.219 -27.73,-32.231 0,-8.238 27.73,26.25" /><path
         id="path82"
         style="fill:none;stroke:#ffffff;stroke-width:3.99993992;stroke-linecap:butt;stroke-linejoin:miter;stroke-miterlimit:4;stroke-dasharray:none;stroke-opacity:1"
         d="m 436.48,450.211 0,14.211 -27.73,-32.223 0,-8.238 27.73,26.25 z" /><path
         id="path84"
         style="fill:#02709f;fill-opacity:1;fill-rule:nonzero;stroke:none"
         d="m 452.27,479.43 0,31.519 -22.622,-19.488 0,-33.012 22.622,20.981" /><path
         id="path86"
         style="fill:none;stroke:#ffffff;stroke-width:3.99993992;stroke-linecap:butt;stroke-linejoin:miter;stroke-miterlimit:4;stroke-dasharray:none;stroke-opacity:1"
         d="m 452.27,479.422 0,31.527 -22.622,-19.488 0,-33.012 22.622,20.973 z" /><path
         id="path88"
         style="fill:#02709f;fill-opacity:1;fill-rule:nonzero;stroke:none"
         d="m 263.238,490.672 165,0 0,6.01953 -165,0 0,-6.01953 z" /><path
         id="path90"
         style="fill:none;stroke:#ffffff;stroke-width:3.99993992;stroke-linecap:butt;stroke-linejoin:miter;stroke-miterlimit:4;stroke-dasharray:none;stroke-opacity:1"
         d="m 263.238,490.672 165,0 0,6.01953 -165,0 0,-6.01953 z" /><path
         id="path92"
         style="fill:#02709f;fill-opacity:1;fill-rule:nonzero;stroke:none"
         d="m 450,507.941 0,3.829 -23.238,-17.27 0,-3.82 23.238,17.261" /><path
         id="path94"
         style="fill:none;stroke:#ffffff;stroke-width:3.99993992;stroke-linecap:butt;stroke-linejoin:miter;stroke-miterlimit:4;stroke-dasharray:none;stroke-opacity:1"
         d="m 450,507.941 0,3.829 -23.238,-17.27 0,-3.828 23.238,17.269 z" /><path
         id="path96"
         style="fill:#02709f;fill-opacity:1;fill-rule:nonzero;stroke:none"
         d="m 435,465.211 -25.512,-33.75 -188.238,0 30,33.75 183.75,0" /><path
         id="path98"
         style="fill:none;stroke:#ffffff;stroke-width:3.99993992;stroke-linecap:butt;stroke-linejoin:miter;stroke-miterlimit:4;stroke-dasharray:none;stroke-opacity:1"
         d="m 435,465.211 -25.512,-33.75 -188.238,0 30,33.75 183.75,0 z" /><path
         id="path100"
         style="fill:none;stroke:#ffffff;stroke-width:3.99993992;stroke-linecap:butt;stroke-linejoin:miter;stroke-miterlimit:4;stroke-dasharray:none;stroke-opacity:1"
         d="m 368.98,478.68 46.532,0" /><path
         id="path102"
         style="fill:#02709f;fill-opacity:1;fill-rule:nonzero;stroke:none"
         d="m 196.988,633.18 -5,-8.989 8.012,1.02" /><path
         id="path104"
         style="fill:none;stroke:#ffffff;stroke-width:3.99993992;stroke-linecap:butt;stroke-linejoin:miter;stroke-miterlimit:4;stroke-dasharray:none;stroke-opacity:1"
         d="m 196.988,633.172 -5,-8.981 8.012,1.02" /><path
         id="path106"
         style="fill:#02709f;fill-opacity:1;fill-rule:nonzero;stroke:none"
         d="m 285.391,454 10,-0.078" /><path
         id="path108"
         style="fill:none;stroke:#ffffff;stroke-width:3.99993992;stroke-linecap:butt;stroke-linejoin:miter;stroke-miterlimit:4;stroke-dasharray:none;stroke-opacity:1"
         d="m 285.391,453.992 10,-0.07" /><path
         id="path110"
         style="fill:#02709f;fill-opacity:1;fill-rule:nonzero;stroke:none"
         d="m 299.41,453.922 10,-0.082" /><path
         id="path112"
         style="fill:none;stroke:#ffffff;stroke-width:3.99993992;stroke-linecap:butt;stroke-linejoin:miter;stroke-miterlimit:4;stroke-dasharray:none;stroke-opacity:1"
         d="m 299.41,453.922 10,-0.082" /><path
         id="path114"
         style="fill:#02709f;fill-opacity:1;fill-rule:nonzero;stroke:none"
         d="m 256.41,454.148 10,-0.039" /><path
         id="path116"
         style="fill:none;stroke:#ffffff;stroke-width:3.99993992;stroke-linecap:butt;stroke-linejoin:miter;stroke-miterlimit:4;stroke-dasharray:none;stroke-opacity:1"
         d="m 256.41,454.152 10,-0.043" /><path
         id="path118"
         style="fill:#02709f;fill-opacity:1;fill-rule:nonzero;stroke:none"
         d="m 270.391,454.07 10,-0.07" /><path
         id="path120"
         style="fill:none;stroke:#ffffff;stroke-width:3.99993992;stroke-linecap:butt;stroke-linejoin:miter;stroke-miterlimit:4;stroke-dasharray:none;stroke-opacity:1"
         d="m 270.391,454.07 10,-0.078" /><path
         id="path122"
         style="fill:#02709f;fill-opacity:1;fill-rule:nonzero;stroke:none"
         d="m 313.398,453.801 10,-0.039" /><path
         id="path124"
         style="fill:none;stroke:#ffffff;stroke-width:3.99993992;stroke-linecap:butt;stroke-linejoin:miter;stroke-miterlimit:4;stroke-dasharray:none;stroke-opacity:1"
         d="m 313.398,453.801 10,-0.039" /><path
         id="path126"
         style="fill:#02709f;fill-opacity:1;fill-rule:nonzero;stroke:none"
         d="m 327.379,453.719 10,-0.078" /><path
         id="path128"
         style="fill:none;stroke:#ffffff;stroke-width:3.99993992;stroke-linecap:butt;stroke-linejoin:miter;stroke-miterlimit:4;stroke-dasharray:none;stroke-opacity:1"
         d="m 327.379,453.723 10,-0.082" /><path
         id="path130"
         style="fill:#02709f;fill-opacity:1;fill-rule:nonzero;stroke:none"
         d="m 341.41,453.602 10,-0.032" /><path
         id="path132"
         style="fill:none;stroke:#ffffff;stroke-width:3.99993992;stroke-linecap:butt;stroke-linejoin:miter;stroke-miterlimit:4;stroke-dasharray:none;stroke-opacity:1"
         d="m 341.41,453.602 10,-0.032" /><path
         id="path134"
         style="fill:#02709f;fill-opacity:1;fill-rule:nonzero;stroke:none"
         d="m 355.391,453.531 10,-0.082" /><path
         id="path136"
         style="fill:none;stroke:#ffffff;stroke-width:3.99993992;stroke-linecap:butt;stroke-linejoin:miter;stroke-miterlimit:4;stroke-dasharray:none;stroke-opacity:1"
         d="m 355.391,453.531 10,-0.082" /><path
         id="path138"
         style="fill:#02709f;fill-opacity:1;fill-rule:nonzero;stroke:none"
         d="m 369.41,453.449 10,-0.078" /><path
         id="path140"
         style="fill:none;stroke:#ffffff;stroke-width:3.99993992;stroke-linecap:butt;stroke-linejoin:miter;stroke-miterlimit:4;stroke-dasharray:none;stroke-opacity:1"
         d="m 369.41,453.449 10,-0.078" /><path
         id="path142"
         style="fill:#02709f;fill-opacity:1;fill-rule:nonzero;stroke:none"
         d="m 383.398,453.371 10,-0.082" /><path
         id="path144"
         style="fill:none;stroke:#ffffff;stroke-width:3.99993992;stroke-linecap:butt;stroke-linejoin:miter;stroke-miterlimit:4;stroke-dasharray:none;stroke-opacity:1"
         d="m 383.398,453.371 10,-0.082" /><path
         id="path146"
         style="fill:#02709f;fill-opacity:1;fill-rule:nonzero;stroke:none"
         d="m 397.379,453.25 10,-0.039" /><path
         id="path148"
         style="fill:none;stroke:#ffffff;stroke-width:3.99993992;stroke-linecap:butt;stroke-linejoin:miter;stroke-miterlimit:4;stroke-dasharray:none;stroke-opacity:1"
         d="m 397.379,453.25 10,-0.039" /><path
         id="path150"
         style="fill:#02709f;fill-opacity:1;fill-rule:nonzero;stroke:none"
         d="m 280.391,445.988 10,-0.078" /><path
         id="path152"
         style="fill:none;stroke:#ffffff;stroke-width:3.99993992;stroke-linecap:butt;stroke-linejoin:miter;stroke-miterlimit:4;stroke-dasharray:none;stroke-opacity:1"
         d="m 280.391,445.992 10,-0.082" /><path
         id="path154"
         style="fill:#02709f;fill-opacity:1;fill-rule:nonzero;stroke:none"
         d="m 294.41,445.871 10,-0.043" /><path
         id="path156"
         style="fill:none;stroke:#ffffff;stroke-width:3.99993992;stroke-linecap:butt;stroke-linejoin:miter;stroke-miterlimit:4;stroke-dasharray:none;stroke-opacity:1"
         d="m 294.41,445.871 10,-0.039" /><path
         id="path158"
         style="fill:#02709f;fill-opacity:1;fill-rule:nonzero;stroke:none"
         d="m 251.41,446.18 10,-0.078" /><path
         id="path160"
         style="fill:none;stroke:#ffffff;stroke-width:3.99993992;stroke-linecap:butt;stroke-linejoin:miter;stroke-miterlimit:4;stroke-dasharray:none;stroke-opacity:1"
         d="m 251.41,446.18 10,-0.078" /><path
         id="path162"
         style="fill:#02709f;fill-opacity:1;fill-rule:nonzero;stroke:none"
         d="m 265.391,446.07 10,-0.039" /><path
         id="path164"
         style="fill:none;stroke:#ffffff;stroke-width:3.99993992;stroke-linecap:butt;stroke-linejoin:miter;stroke-miterlimit:4;stroke-dasharray:none;stroke-opacity:1"
         d="m 265.391,446.07 10,-0.039" /><path
         id="path166"
         style="fill:#02709f;fill-opacity:1;fill-rule:nonzero;stroke:none"
         d="m 308.398,445.789 10,-0.039" /><path
         id="path168"
         style="fill:none;stroke:#ffffff;stroke-width:3.99993992;stroke-linecap:butt;stroke-linejoin:miter;stroke-miterlimit:4;stroke-dasharray:none;stroke-opacity:1"
         d="m 308.398,445.789 10,-0.039" /><path
         id="path170"
         style="fill:#02709f;fill-opacity:1;fill-rule:nonzero;stroke:none"
         d="m 322.379,445.711 10,-0.07" /><path
         id="path172"
         style="fill:none;stroke:#ffffff;stroke-width:3.99993992;stroke-linecap:butt;stroke-linejoin:miter;stroke-miterlimit:4;stroke-dasharray:none;stroke-opacity:1"
         d="m 322.379,445.711 10,-0.07" /><path
         id="path174"
         style="fill:#02709f;fill-opacity:1;fill-rule:nonzero;stroke:none"
         d="m 336.41,445.641 10,-0.082" /><path
         id="path176"
         style="fill:none;stroke:#ffffff;stroke-width:3.99993992;stroke-linecap:butt;stroke-linejoin:miter;stroke-miterlimit:4;stroke-dasharray:none;stroke-opacity:1"
         d="m 336.41,445.641 10,-0.078" /><path
         id="path178"
         style="fill:#02709f;fill-opacity:1;fill-rule:nonzero;stroke:none"
         d="m 350.391,445.52 10,-0.079" /><path
         id="path180"
         style="fill:none;stroke:#ffffff;stroke-width:3.99993992;stroke-linecap:butt;stroke-linejoin:miter;stroke-miterlimit:4;stroke-dasharray:none;stroke-opacity:1"
         d="m 350.391,445.52 10,-0.079" /><path
         id="path182"
         style="fill:#02709f;fill-opacity:1;fill-rule:nonzero;stroke:none"
         d="m 364.41,445.441 10,-0.082" /><path
         id="path184"
         style="fill:none;stroke:#ffffff;stroke-width:3.99993992;stroke-linecap:butt;stroke-linejoin:miter;stroke-miterlimit:4;stroke-dasharray:none;stroke-opacity:1"
         d="m 364.41,445.441 10,-0.082" /><path
         id="path186"
         style="fill:#02709f;fill-opacity:1;fill-rule:nonzero;stroke:none"
         d="m 378.398,445.32 10,-0.039" /><path
         id="path188"
         style="fill:none;stroke:#ffffff;stroke-width:3.99993992;stroke-linecap:butt;stroke-linejoin:miter;stroke-miterlimit:4;stroke-dasharray:none;stroke-opacity:1"
         d="m 378.398,445.32 10,-0.039" /><path
         id="path190"
         style="fill:#02709f;fill-opacity:1;fill-rule:nonzero;stroke:none"
         d="m 392.379,445.25 10,-0.039" /><path
         id="path192"
         style="fill:none;stroke:#ffffff;stroke-width:3.99993992;stroke-linecap:butt;stroke-linejoin:miter;stroke-miterlimit:4;stroke-dasharray:none;stroke-opacity:1"
         d="m 392.379,445.242 10,-0.031" /><path
         id="path194"
         style="fill:#02709f;fill-opacity:1;fill-rule:nonzero;stroke:none"
         d="m 275.391,437.98 10,-0.082" /><path
         id="path196"
         style="fill:none;stroke:#ffffff;stroke-width:3.99993992;stroke-linecap:butt;stroke-linejoin:miter;stroke-miterlimit:4;stroke-dasharray:none;stroke-opacity:1"
         d="m 275.391,437.98 10,-0.078" /><path
         id="path198"
         style="fill:#02709f;fill-opacity:1;fill-rule:nonzero;stroke:none"
         d="m 289.41,437.898 10,-0.078" /><path
         id="path200"
         style="fill:none;stroke:#ffffff;stroke-width:3.99993992;stroke-linecap:butt;stroke-linejoin:miter;stroke-miterlimit:4;stroke-dasharray:none;stroke-opacity:1"
         d="m 289.41,437.902 10,-0.082" /><path
         id="path202"
         style="fill:#02709f;fill-opacity:1;fill-rule:nonzero;stroke:none"
         d="m 246.41,438.18 10,-0.078" /><path
         id="path204"
         style="fill:none;stroke:#ffffff;stroke-width:3.99993992;stroke-linecap:butt;stroke-linejoin:miter;stroke-miterlimit:4;stroke-dasharray:none;stroke-opacity:1"
         d="m 246.41,438.172 10,-0.07" /><path
         id="path206"
         style="fill:#02709f;fill-opacity:1;fill-rule:nonzero;stroke:none"
         d="m 260.391,438.059 10,-0.039" /><path
         id="path208"
         style="fill:none;stroke:#ffffff;stroke-width:3.99993992;stroke-linecap:butt;stroke-linejoin:miter;stroke-miterlimit:4;stroke-dasharray:none;stroke-opacity:1"
         d="m 260.391,438.063 10,-0.043" /><path
         id="path210"
         style="fill:#02709f;fill-opacity:1;fill-rule:nonzero;stroke:none"
         d="m 303.398,437.781 10,-0.031" /><path
         id="path212"
         style="fill:none;stroke:#ffffff;stroke-width:3.99993992;stroke-linecap:butt;stroke-linejoin:miter;stroke-miterlimit:4;stroke-dasharray:none;stroke-opacity:1"
         d="m 303.398,437.781 10,-0.039" /><path
         id="path214"
         style="fill:#02709f;fill-opacity:1;fill-rule:nonzero;stroke:none"
         d="m 317.379,437.711 10,-0.039" /><path
         id="path216"
         style="fill:none;stroke:#ffffff;stroke-width:3.99993992;stroke-linecap:butt;stroke-linejoin:miter;stroke-miterlimit:4;stroke-dasharray:none;stroke-opacity:1"
         d="m 317.379,437.711 10,-0.039" /><path
         id="path218"
         style="fill:#02709f;fill-opacity:1;fill-rule:nonzero;stroke:none"
         d="m 331.41,437.629 10,-0.078" /><path
         id="path220"
         style="fill:none;stroke:#ffffff;stroke-width:3.99993992;stroke-linecap:butt;stroke-linejoin:miter;stroke-miterlimit:4;stroke-dasharray:none;stroke-opacity:1"
         d="m 331.41,437.629 10,-0.078" /><path
         id="path222"
         style="fill:#02709f;fill-opacity:1;fill-rule:nonzero;stroke:none"
         d="m 345.391,437.551 10,-0.082" /><path
         id="path224"
         style="fill:none;stroke:#ffffff;stroke-width:3.99993992;stroke-linecap:butt;stroke-linejoin:miter;stroke-miterlimit:4;stroke-dasharray:none;stroke-opacity:1"
         d="m 345.391,437.551 10,-0.078" /><path
         id="path226"
         style="fill:#02709f;fill-opacity:1;fill-rule:nonzero;stroke:none"
         d="m 359.41,437.43 10,-0.078" /><path
         id="path228"
         style="fill:none;stroke:#ffffff;stroke-width:3.99993992;stroke-linecap:butt;stroke-linejoin:miter;stroke-miterlimit:4;stroke-dasharray:none;stroke-opacity:1"
         d="m 359.41,437.43 10,-0.078" /><path
         id="path230"
         style="fill:#02709f;fill-opacity:1;fill-rule:nonzero;stroke:none"
         d="m 373.398,437.352 10,-0.071" /><path
         id="path232"
         style="fill:none;stroke:#ffffff;stroke-width:3.99993992;stroke-linecap:butt;stroke-linejoin:miter;stroke-miterlimit:4;stroke-dasharray:none;stroke-opacity:1"
         d="m 373.398,437.352 10,-0.071" /><path
         id="path234"
         style="fill:#02709f;fill-opacity:1;fill-rule:nonzero;stroke:none"
         d="m 387.379,437.238 10,-0.039" /><path
         id="path236"
         style="fill:none;stroke:#ffffff;stroke-width:3.99993992;stroke-linecap:butt;stroke-linejoin:miter;stroke-miterlimit:4;stroke-dasharray:none;stroke-opacity:1"
         d="m 387.379,437.242 10,-0.043" /><path
         id="path238"
         style="fill:#02709f;fill-opacity:1;fill-rule:nonzero;stroke:none"
         d="m 224.262,471.18 c 7.5,0 15.738,-1.481 23.238,0.75 3.75,1.519 6.762,6.75 10.512,8.281 5.226,1.48 11.25,2.219 16.476,-0.781 0.742,-0.75 1.532,-2.231 3.012,-2.969 6.762,-0.781 13.52,-1.531 18.75,-6.02 3.75,-3.75 0.738,-9.761 1.48,-14.261 -1.48,0 -3.75,-3 -3.75,-1.481 -2.218,3.75 -2.96,8.242 -5.968,10.512 -4.492,1.48 -9.774,2.219 -14.262,0 -0.738,0 0,-3.75 2.27,-3.75 4.492,0 9.718,-3.012 6.71,-6.02 -9.718,-9.761 -24.718,-6.761 -38.242,-5.23 -4.488,0 -8.976,3.75 -14.258,3.75" /><path
         id="path240"
         style="fill:none;stroke:#ffffff;stroke-width:3.99993992;stroke-linecap:butt;stroke-linejoin:miter;stroke-miterlimit:4;stroke-dasharray:none;stroke-opacity:1"
         d="m 224.262,471.18 c 7.5,0 15.738,-1.481 23.238,0.742 3.75,1.527 6.762,6.758 10.512,8.289 5.226,1.48 11.25,2.219 16.476,-0.789 0.742,-0.742 1.532,-2.223 3.012,-2.961 6.762,-0.789 13.52,-1.531 18.75,-6.02 3.75,-3.75 0.738,-9.769 1.48,-14.261 -1.48,0 -3.75,-3.008 -3.75,-1.481 -2.218,3.75 -2.96,8.242 -5.968,10.512 -4.492,1.48 -9.774,2.219 -14.262,0 -0.738,0 0,-3.75 2.27,-3.75 4.492,0 9.718,-3.012 6.71,-6.02 -9.718,-9.769 -24.718,-6.761 -38.242,-5.23 -4.488,0 -8.976,3.75 -14.258,3.75" /><path
         id="path242"
         style="fill:#02709f;fill-opacity:1;fill-rule:nonzero;stroke:none"
         d="m 336.02,396.18 c 3.75,-0.739 5.968,2.269 9.718,3.011 3.012,1.489 6.762,0 9.774,0.739 5.968,2.269 10.508,6.761 16.476,9.031 1.532,9.719 1.532,20.23 3.75,30 0.742,-0.781 12.5,2.73 13.242,2.73 -0.742,2.27 1.532,6.02 -0.742,6.758 -8.238,3.012 -27.5,0.231 -36.476,-1.988 -0.742,0 -0.742,0.738 -0.742,1.48 -5.282,0 -10.508,0.739 -15,-2.261 -6.02,-3.75 -3.008,-11.25 -3.75,-17.969 -1.532,-3.75 -5.282,-6.02 -8.29,-7.5 -2.218,-1.531 -5.968,-2.27 -8.242,-4.531" /><path
         id="path244"
         style="fill:none;stroke:#ffffff;stroke-width:3.99993992;stroke-linecap:butt;stroke-linejoin:miter;stroke-miterlimit:4;stroke-dasharray:none;stroke-opacity:1"
         d="m 336.02,396.18 c 3.75,-0.739 5.968,2.269 9.718,3.011 3.012,1.481 6.762,0 9.774,0.739 5.968,2.269 10.508,6.761 16.476,9.031 1.532,9.719 1.532,20.23 3.75,30 0.742,-0.789 12.5,2.73 13.242,2.73 -0.742,2.27 1.532,6.02 -0.742,6.758 -8.238,3.012 -27.5,0.231 -36.476,-1.988 -0.742,0 -0.742,0.738 -0.742,1.48 -5.282,0 -10.508,0.739 -15,-2.269 -6.02,-3.75 -3.008,-11.25 -3.75,-17.961 -1.532,-3.75 -5.282,-6.02 -8.29,-7.5 -2.218,-1.531 -5.968,-2.27 -8.242,-4.539" /><path
         id="path246"
         style="fill:#02709f;fill-opacity:1;fill-rule:nonzero;stroke:none"
         d="m 188.238,474.191 c 10.512,0 29.262,1.489 35.282,-3.011 4.492,-4.489 8.98,-19.489 4.492,-25.5 -1.532,-2.969 -13.524,-3.75 -19.492,-3.75" /><path
         id="path248"
         style="fill:none;stroke:#ffffff;stroke-width:3.99993992;stroke-linecap:butt;stroke-linejoin:miter;stroke-miterlimit:4;stroke-dasharray:none;stroke-opacity:1"
         d="m 188.238,474.191 c 10.512,0 29.262,1.481 35.282,-3.011 4.492,-4.489 8.98,-19.489 4.492,-25.508 -1.532,-2.961 -13.524,-3.75 -19.492,-3.75" /><path
         id="path250"
         style="fill:#02709f;fill-opacity:1;fill-rule:nonzero;stroke:none"
         d="m 96.0195,586.691 c 5.9685,0 15.0005,1.489 17.9605,-1.48 16.532,-12.031 30,-27.031 42.04,-43.52 7.5,-13.511 19.492,-21.011 22.5,-34.492 2.96,-11.988 5.968,-24.019 10.46,-34.488 12.04,-21.02 24.032,-39.031 37.5,-60 3.008,-3.012 10.508,-1.531 16.532,-4.531 1.476,-1.489 3.008,-5.981 4.488,-5.981 8.98,0 18.012,-1.519 25.512,1.481 13.468,7.5 28.468,9.031 41.988,13.519 6.02,-13.519 25.512,-18.008 25.512,-33.008 C 323.98,373.68 307.5,366.18 291.02,357.199 280.512,352.711 270,343.68 258.012,343.68 c -7.5,0 -41.992,13.519 -43.524,10.511 -5.968,-18.011 25.512,-51.011 21.024,-71.992 -6.024,-22.5 -9.032,-41.988 -13.524,-64.488 -1.476,-6.02 -4.488,-12.031 -5.968,-19.531 -1.532,-4.5 -4.54,-8.989 -7.5,-12 -6.02,-4.489 -12.04,-11.989 -18.008,-13.469 -7.5,-3.012 -15.742,-0.781 -23.242,-3.75 -4.54,-1.531 -9.77,-2.27 -14.258,-3.75 -7.5,-4.531 -18.012,-1.531 -19.492,2.969 -7.5,21.011 -1.532,45 -9.032,66.011 -15,41.989 -27.6091,78.59 -55.5075,126.02 -5.9297,10.07 -27.2188,6.211 -34.4922,17.969 -23.668,38.39 -4.4883,100.5 9.0312,153 3,13.519 15.7422,32.269 29.211,36.761 4.539,3.008 6.0195,6.02 10.5078,7.5 6.0234,4.489 6.7617,11.25 12.7812,11.25" /><path
         id="path252"
         style="fill:none;stroke:#ffffff;stroke-width:3.99993992;stroke-linecap:butt;stroke-linejoin:miter;stroke-miterlimit:4;stroke-dasharray:none;stroke-opacity:1"
         d="m 96.0195,586.691 c 5.9685,0 15.0005,1.481 17.9605,-1.48 16.532,-12.039 30,-27.039 42.04,-43.52 7.5,-13.519 19.492,-21.019 22.5,-34.492 2.96,-11.988 5.968,-24.027 10.46,-34.488 12.04,-21.02 24.032,-39.031 37.5,-60 3.008,-3.012 10.508,-1.531 16.532,-4.539 1.476,-1.481 3.008,-5.973 4.488,-5.973 8.98,0 18.012,-1.527 25.512,1.481 13.468,7.5 28.468,9.031 41.988,13.519 6.02,-13.519 25.512,-18.008 25.512,-33.008 C 323.98,373.68 307.5,366.18 291.02,357.199 280.512,352.711 270,343.68 258.012,343.68 c -7.5,0 -41.992,13.519 -43.524,10.511 -5.968,-18.011 25.512,-51.019 21.024,-71.992 -6.024,-22.5 -9.032,-41.988 -13.524,-64.488 -1.476,-6.02 -4.488,-12.039 -5.968,-19.539 -1.532,-4.492 -4.54,-8.981 -7.5,-11.992 -6.02,-4.489 -12.04,-11.989 -18.008,-13.469 -7.5,-3.012 -15.742,-0.789 -23.242,-3.75 -4.54,-1.531 -9.77,-2.27 -14.258,-3.75 -7.5,-4.539 -18.012,-1.531 -19.492,2.961 -7.5,21.019 -1.532,45 -9.032,66.019 -15,41.989 -27.6091,78.59 -55.5075,126.02 -5.9297,10.07 -27.2188,6.211 -34.4922,17.961 C 10.8203,416.57 30,478.68 43.5195,531.18 c 3,13.519 15.7422,32.269 29.211,36.761 4.539,3.008 6.0195,6.02 10.5078,7.5 6.0234,4.489 6.7617,11.25 12.7812,11.25 z" /><path
         id="path254"
         style="fill:#02709f;fill-opacity:1;fill-rule:nonzero;stroke:none"
         d="m 69.7695,191.461 69.7185,-26.25 -0.738,60 c -51.7617,133.469 -60,132.73 -60,132.73 -17.2695,9.77 -21.7617,10.508 -21.7617,10.508 C 32.2695,366.93 18.75,396.18 18.75,396.18 c -8.2383,6.761 -16.48047,-3 -16.48047,-3 L 69.7695,191.461" /><path
         id="path256"
         style="fill:none;stroke:#ffffff;stroke-width:3.99993992;stroke-linecap:butt;stroke-linejoin:miter;stroke-miterlimit:4;stroke-dasharray:none;stroke-opacity:1"
         d="m 69.7695,191.461 69.7185,-26.25 -0.738,60 c -51.7617,133.469 -60,132.73 -60,132.73 -17.2695,9.77 -21.7617,10.508 -21.7617,10.508 C 32.2695,366.922 18.75,396.18 18.75,396.18 10.5117,402.941 2.26953,393.172 2.26953,393.172 L 69.7695,191.461 Z" /></g></g></svg>