<?xml version="1.0" encoding="UTF-8" standalone="no"?>
<svg
   xmlns:dc="http://purl.org/dc/elements/1.1/"
   xmlns:cc="http://creativecommons.org/ns#"
   xmlns:rdf="http://www.w3.org/1999/02/22-rdf-syntax-ns#"
   xmlns:svg="http://www.w3.org/2000/svg"
   xmlns="http://www.w3.org/2000/svg"
   viewBox="0 0 61.200001 85.9375"
   height="85.9375"
   width="61.200001"
   xml:space="preserve"
   version="1.1"
   id="svg2"><metadata
     id="metadata8"><rdf:RDF><cc:Work
         rdf:about=""><dc:format>image/svg+xml</dc:format><dc:type
           rdf:resource="http://purl.org/dc/dcmitype/StillImage" /></cc:Work></rdf:RDF></metadata><defs
     id="defs6" /><g
     transform="matrix(1.25,0,0,-1.25,0,85.9375)"
     id="g10"><g
       transform="scale(0.1,0.1)"
       id="g12"><path
         id="path14"
         style="fill:#02709f;fill-opacity:1;fill-rule:nonzero;stroke:none"
         d="m 475.508,441.008 c 15.762,22.5 -26.992,33.75 -26.992,33.75" /><path
         id="path16"
         style="fill:none;stroke:#ffffff;stroke-width:3.99993992;stroke-linecap:butt;stroke-linejoin:miter;stroke-miterlimit:4;stroke-dasharray:none;stroke-opacity:1"
         d="m 475.508,441.008 c 15.762,22.5 -26.992,33.75 -26.992,33.75" /><path
         id="path18"
         style="fill:#02709f;fill-opacity:1;fill-rule:nonzero;stroke:none"
         d="m 449.258,637.824 -21.738,-18 -168.008,0 21.738,18 168.008,0" /><path
         id="path20"
         style="fill:none;stroke:#ffffff;stroke-width:3.99993992;stroke-linecap:butt;stroke-linejoin:miter;stroke-miterlimit:4;stroke-dasharray:none;stroke-opacity:1"
         d="m 449.258,637.824 -21.738,-18 -168.008,0 21.738,18 168.008,0 z" /><path
         id="path22"
         style="fill:#02709f;fill-opacity:1;fill-rule:nonzero;stroke:none"
         d="m 258.008,485.254 169.512,0 0,134.258 -169.512,0 0,-134.258 z" /><path
         id="path24"
         style="fill:none;stroke:#ffffff;stroke-width:3.99993992;stroke-linecap:butt;stroke-linejoin:miter;stroke-miterlimit:4;stroke-dasharray:none;stroke-opacity:1"
         d="m 258.008,485.254 169.512,0 0,134.258 -169.512,0 0,-134.258 z" /><path
         id="path26"
         style="fill:#02709f;fill-opacity:1;fill-rule:nonzero;stroke:none"
         d="m 449.258,501.086 0,136.426 -22.5,-18 0,-136.426 22.5,18" /><path
         id="path28"
         style="fill:none;stroke:#ffffff;stroke-width:3.99993992;stroke-linecap:butt;stroke-linejoin:miter;stroke-miterlimit:4;stroke-dasharray:none;stroke-opacity:1"
         d="m 449.258,501.086 0,136.426 -22.5,-18 0,-136.426 22.5,18 z" /><path
         id="path30"
         style="fill:#02709f;fill-opacity:1;fill-rule:nonzero;stroke:none"
         d="m 201.016,651.008 c 1.484,-15 -8.262,-25.5 8.984,-47.246 2.52,-3.164 -3.75,-9.375 -5.996,-12.942 -2.246,-3.562 -2.988,-8.808 -1.504,-13.308 -1.484,0 -2.988,-3.75 -2.988,-6.75 -1.504,-7.5 1.504,-12.754 -3.008,-14.246 -7.5,-3.008 -17.988,-3.008 -22.5,-7.5 -5.996,-4.504 -11.992,-12.004 -15,-21.008 -1.504,0 -4.492,0 -5.996,0 -13.496,13.508 -30,42.004 -49.492,48 -7.5004,19.5 5.996,36.004 15,52.5 10.488,18.008 30,30 50.996,31.504" /><path
         id="path32"
         style="fill:none;stroke:#ffffff;stroke-width:3.99993992;stroke-linecap:butt;stroke-linejoin:miter;stroke-miterlimit:4;stroke-dasharray:none;stroke-opacity:1"
         d="m 201.016,651.008 c 1.484,-15 -8.262,-25.5 8.984,-47.246 2.52,-3.164 -3.75,-9.375 -5.996,-12.942 -2.246,-3.562 -2.988,-8.808 -1.504,-13.308 -1.484,0 -2.988,-3.75 -2.988,-6.75 -1.504,-7.5 1.504,-12.754 -3.008,-14.246 -7.5,-3.008 -17.988,-3.008 -22.5,-7.5 -5.996,-4.504 -11.992,-12.004 -15,-21.008 -1.504,0 -4.492,0 -5.996,0 -13.496,13.508 -30,42.004 -49.492,48 -7.5004,19.5 5.996,36.004 15,52.5 10.488,18.008 30,30 50.996,31.504" /><path
         id="path34"
         style="fill:#02709f;fill-opacity:1;fill-rule:nonzero;stroke:none"
         d="m 99.7656,577.383 c 2.3634,-2.371 8.2424,1.633 12.7344,0.129 7.5,-3 18.008,-4.504 22.5,0 6.016,4.5 9.004,13.496 13.516,20.996 0,1.504 1.484,4.5 4.492,6.004 7.5,0 18.008,-2.996 20.996,1.496 9.004,9.004 -2.988,27 10.508,34.5 10.488,4.504 28.496,7.5 25.488,22.5 -28.496,15 -60,30 -91.484,22.5 -9.004,-2.996 -16.504,-13.496 -24.0043,-20.996 C 93.0078,661.516 90,658.508 90,655.508 c -1.4844,-19.5 -2.9883,-37.5 1.5039,-57 1.5039,-5.996 3.75,-16.633 8.2617,-21.125" /><path
         id="path36"
         style="fill:none;stroke:#ffffff;stroke-width:3.99993992;stroke-linecap:butt;stroke-linejoin:miter;stroke-miterlimit:4;stroke-dasharray:none;stroke-opacity:1"
         d="m 99.7656,577.383 c 2.3634,-2.371 8.2424,1.633 12.7344,0.129 7.5,-3 18.008,-4.504 22.5,0 6.016,4.5 9.004,13.496 13.516,20.996 0,1.504 1.484,4.5 4.492,6.004 7.5,0 18.008,-2.996 20.996,1.496 9.004,9.004 -2.988,27 10.508,34.5 10.488,4.504 28.496,7.5 25.488,22.5 -28.496,15 -60,30 -91.484,22.5 -9.004,-2.996 -16.504,-13.496 -24.0043,-20.996 C 93.0078,661.516 90,658.508 90,655.508 c -1.4844,-19.5 -2.9883,-37.5 1.5039,-57 1.5039,-5.996 3.75,-16.633 8.2617,-21.125 z" /><path
         id="path38"
         style="fill:#02709f;fill-opacity:1;fill-rule:nonzero;stroke:none"
         d="m 255.762,219.004 c 0,-12 0,-23.992 0,-35.996 -8.262,-7.5 -7.5,-19.5 -7.5,-30 11.992,-6.746 26.25,-3.75 39.004,-4.5 0,2.246 0,5.254 0.742,5.254 11.992,1.492 23.242,2.246 35.254,3.75 2.988,8.242 4.492,17.996 4.492,26.992 -10.488,5.254 -26.25,4.5 -31.504,16.504 -4.492,12 -4.492,24.746 -3.75,36.746" /><path
         id="path40"
         style="fill:none;stroke:#ffffff;stroke-width:3.99993992;stroke-linecap:butt;stroke-linejoin:miter;stroke-miterlimit:4;stroke-dasharray:none;stroke-opacity:1"
         d="m 255.762,219.004 c 0,-12 0,-23.992 0,-35.996 -8.262,-7.5 -7.5,-19.5 -7.5,-30 11.992,-6.746 26.25,-3.75 39.004,-4.5 0,2.246 0,5.254 0.742,5.254 11.992,1.492 23.242,2.246 35.254,3.75 2.988,8.242 4.492,17.996 4.492,26.992 -10.488,5.254 -26.25,4.5 -31.504,16.504 -4.492,12 -4.492,24.746 -3.75,36.746" /><path
         id="path42"
         style="fill:#02709f;fill-opacity:1;fill-rule:nonzero;stroke:none"
         d="m 213.75,234.758 c 27.754,-3 51.758,12 77.266,22.5 6.738,2.996 16.484,0.75 24.746,0.75 2.246,-28.504 -2.246,-57 -0.762,-85.496 14.258,0 27.754,-1.504 42.012,0.742 7.5,0.75 15,4.5 21.738,8.25 0,39.758 2.266,79.504 -2.246,120 -0.742,4.504 -3.75,9.004 -6.738,13.508 -1.504,2.246 -4.512,4.5 -7.5,5.242 -33.75,7.5 -39.004,3.75 -72.012,8.254 -2.988,0 7.5,16.504 5.254,19.5 -5.918,7.89 -84.004,3.75 -93.75,3" /><path
         id="path44"
         style="fill:none;stroke:#ffffff;stroke-width:3.99993992;stroke-linecap:butt;stroke-linejoin:miter;stroke-miterlimit:4;stroke-dasharray:none;stroke-opacity:1"
         d="m 213.75,234.758 c 27.754,-3 51.758,12 77.266,22.5 6.738,2.996 16.484,0.75 24.746,0.75 2.246,-28.504 -2.246,-57 -0.762,-85.496 14.258,0 27.754,-1.504 42.012,0.742 7.5,0.75 15,4.5 21.738,8.25 0,39.758 2.266,79.504 -2.246,120 -0.742,4.504 -3.75,9.004 -6.738,13.508 -1.504,2.246 -4.512,4.5 -7.5,5.242 -33.75,7.5 -39.004,3.75 -72.012,8.254 -2.988,0 7.5,16.504 5.254,19.5 -5.918,7.89 -84.004,3.75 -93.75,3" /><path
         id="path46"
         style="fill:#02709f;fill-opacity:1;fill-rule:nonzero;stroke:none"
         d="m 353.262,174.004 c 0,-5.242 -1.504,-10.496 0.742,-15 0.762,-2.246 5.254,-2.246 8.262,-4.5 2.246,-2.246 4.492,-5.246 7.5,-6.75 4.492,-2.246 9.746,-2.996 15,-3.75 7.5,-0.75 15,1.504 21.738,-1.492 0.762,-0.754 3.008,-0.754 4.512,-2.258 4.492,-5.242 5.996,-12 2.988,-16.492 -5.996,-9.004 -14.238,-15.754 -24.746,-18.008 -14.258,-2.246 -28.496,0 -42.754,-3 -1.504,0 -0.742,0 -1.504,-0.75 -0.742,-2.2462 0.762,-8.254 0,-8.254 -14.238,-0.7422 -30.742,-3.75 -40.488,9.758 -3.008,4.5 -3.75,11.25 -1.504,17.246 3.008,6.004 4.492,12 5.996,18.75 2.246,5.254 1.504,5.254 3.75,10.508 3.008,7.5 1.504,15.742 1.504,23.992" /><path
         id="path48"
         style="fill:none;stroke:#ffffff;stroke-width:3.99993992;stroke-linecap:butt;stroke-linejoin:miter;stroke-miterlimit:4;stroke-dasharray:none;stroke-opacity:1"
         d="m 353.262,174.004 c 0,-5.242 -1.504,-10.496 0.742,-15 0.762,-2.246 5.254,-2.246 8.262,-4.5 2.246,-2.246 4.492,-5.246 7.5,-6.75 4.492,-2.246 9.746,-2.996 15,-3.75 7.5,-0.75 15,1.504 21.738,-1.492 0.762,-0.754 3.008,-0.754 4.512,-2.258 4.492,-5.242 5.996,-12 2.988,-16.492 -5.996,-9.004 -14.238,-15.754 -24.746,-18.008 -14.258,-2.246 -28.496,0 -42.754,-3 -1.504,0 -0.742,0 -1.504,-0.75 -0.742,-2.2462 0.762,-8.254 0,-8.254 -14.238,-0.7422 -30.742,-3.75 -40.488,9.758 -3.008,4.5 -3.75,11.25 -1.504,17.246 3.008,6.004 4.492,12 5.996,18.75 2.246,5.254 1.504,5.254 3.75,10.508 3.008,7.5 1.504,15.742 1.504,23.992" /><path
         id="path50"
         style="fill:#02709f;fill-opacity:1;fill-rule:nonzero;stroke:none"
         d="m 176.25,165.754 0,-37.5 72.754,30 c 12.012,2.254 15,-12.746 15,-12.746 l 0,-10.496 -5.996,0 0,-9.758 c -5.996,-10.496 -15.742,0 -15.742,0 l 0,12.004 -57.754,-26.25 68.242,-55.5002 c 9.004,-16.5039 0.762,-31.5039 0.762,-31.5039 C 261.016,9.75781 247.5,0 247.5,0 c -17.988,-8.99219 -17.246,12.7539 -17.246,12.7539 -2.246,12.7539 10.508,12.7539 10.508,12.7539 l 3.75,7.5 L 165,105.012 61.5039,45.7539 57.7656,36.7578 c 8.25,-18.0078 -6.7578,-24.0039 -6.7578,-24.0039 -20.9961,-3.74999 -12.7539,15 -12.7539,15 -0.7422,10.5 7.5,10.5 7.5,10.5 L 51.7461,45 c 0,0 5.2578,-2.2461 -0.7383,3.0078 C 45.0117,53.2539 49.5039,67.5 49.5039,67.5 l 97.5081,48.008 -32.246,31.496 -10.508,-6.75 c 0,-17.246 -11.9924,-12 -11.9924,-12 -12.7539,0 -5.2539,13.504 -5.2539,13.504 4.4922,3.75 10.4883,5.996 10.4883,5.996 l 7.5,16.504 24.766,-12.754 28.496,-23.992 0,32.996" /><path
         id="path52"
         style="fill:#02709f;fill-opacity:1;fill-rule:nonzero;stroke:none"
         d="m 219.766,204.004 84.746,38.254 c 5.996,7.5 -3.75,18.75 -3.75,18.75 l -79.512,-30" /><path
         id="path54"
         style="fill:none;stroke:#ffffff;stroke-width:3.99993992;stroke-linecap:butt;stroke-linejoin:miter;stroke-miterlimit:4;stroke-dasharray:none;stroke-opacity:1"
         d="m 219.766,204.004 84.746,38.254 c 5.996,7.5 -3.75,18.75 -3.75,18.75 l -79.512,-30" /><path
         id="path56"
         style="fill:#02709f;fill-opacity:1;fill-rule:nonzero;stroke:none"
         d="m 272.266,500.266 140.996,0 0,101.25 -140.996,0 0,-101.25 z" /><path
         id="path58"
         style="fill:none;stroke:#ffffff;stroke-width:3.99993992;stroke-linecap:butt;stroke-linejoin:miter;stroke-miterlimit:4;stroke-dasharray:none;stroke-opacity:1"
         d="m 272.266,500.266 140.996,0 0,101.25 -140.996,0 0,-101.25 z" /><path
         id="path60"
         style="fill:#02709f;fill-opacity:1;fill-rule:nonzero;stroke:none"
         d="m 259.414,453.66 170.254,0 0,24.7461 -170.254,0 0,-24.7461 z" /><path
         id="path62"
         style="fill:none;stroke:#ffffff;stroke-width:3.99993992;stroke-linecap:butt;stroke-linejoin:miter;stroke-miterlimit:4;stroke-dasharray:none;stroke-opacity:1"
         d="m 259.414,453.66 170.254,0 0,24.7461 -170.254,0 0,-24.7461 z" /><path
         id="path64"
         style="fill:#02709f;fill-opacity:1;fill-rule:nonzero;stroke:none"
         d="m 220.508,411.758 189.004,0 0,8.25391 -189.004,0 0,-8.25391 z" /><path
         id="path66"
         style="fill:none;stroke:#ffffff;stroke-width:3.99993992;stroke-linecap:butt;stroke-linejoin:miter;stroke-miterlimit:4;stroke-dasharray:none;stroke-opacity:1"
         d="m 220.508,411.758 189.004,0 0,8.25391 -189.004,0 0,-8.25391 z" /><path
         id="path68"
         style="fill:#02709f;fill-opacity:1;fill-rule:nonzero;stroke:none"
         d="m 446.27,415.508 27.7344,0 0,5.99609 -27.7344,0 0,-5.99609 z" /><path
         id="path70"
         style="fill:none;stroke:#ffffff;stroke-width:3.99993992;stroke-linecap:butt;stroke-linejoin:miter;stroke-miterlimit:4;stroke-dasharray:none;stroke-opacity:1"
         d="m 446.27,415.508 27.7344,0 0,5.99609 -27.7344,0 0,-5.99609 z" /><path
         id="path72"
         style="fill:#02709f;fill-opacity:1;fill-rule:nonzero;stroke:none"
         d="m 474.004,423.008 12.012,19.504 -27.754,0 -11.992,-19.504 27.734,0" /><path
         id="path74"
         style="fill:none;stroke:#ffffff;stroke-width:3.99993992;stroke-linecap:butt;stroke-linejoin:miter;stroke-miterlimit:4;stroke-dasharray:none;stroke-opacity:1"
         d="m 474.004,423.008 12.012,19.504 -27.754,0 -11.992,-19.504 27.734,0 z" /><path
         id="path76"
         style="fill:#02709f;fill-opacity:1;fill-rule:nonzero;stroke:none"
         d="m 486.758,425.254 0,17.258 -13.496,-21.008 0,-5.996 13.496,9.746" /><path
         id="path78"
         style="fill:none;stroke:#ffffff;stroke-width:3.99993992;stroke-linecap:butt;stroke-linejoin:miter;stroke-miterlimit:4;stroke-dasharray:none;stroke-opacity:1"
         d="m 486.758,425.254 0,17.258 -13.496,-21.008 0,-5.996 13.496,9.746 z" /><path
         id="path80"
         style="fill:#02709f;fill-opacity:1;fill-rule:nonzero;stroke:none"
         d="m 436.504,438.008 0,14.25 -27.734,-32.246 0,-8.254 27.734,26.25" /><path
         id="path82"
         style="fill:none;stroke:#ffffff;stroke-width:3.99993992;stroke-linecap:butt;stroke-linejoin:miter;stroke-miterlimit:4;stroke-dasharray:none;stroke-opacity:1"
         d="m 436.504,438.008 0,14.25 -27.734,-32.246 0,-8.254 27.734,26.25 z" /><path
         id="path84"
         style="fill:#02709f;fill-opacity:1;fill-rule:nonzero;stroke:none"
         d="m 452.266,467.258 0,31.504 -22.618,-19.485 0,-33.015 22.618,20.996" /><path
         id="path86"
         style="fill:none;stroke:#ffffff;stroke-width:3.99993992;stroke-linecap:butt;stroke-linejoin:miter;stroke-miterlimit:4;stroke-dasharray:none;stroke-opacity:1"
         d="m 452.266,467.258 0,31.504 -22.618,-19.485 0,-33.015 22.618,20.996 z" /><path
         id="path88"
         style="fill:#02709f;fill-opacity:1;fill-rule:nonzero;stroke:none"
         d="m 263.262,478.508 165,0 0,6.00391 -165,0 0,-6.00391 z" /><path
         id="path90"
         style="fill:none;stroke:#ffffff;stroke-width:3.99993992;stroke-linecap:butt;stroke-linejoin:miter;stroke-miterlimit:4;stroke-dasharray:none;stroke-opacity:1"
         d="m 263.262,478.508 165,0 0,6.00391 -165,0 0,-6.00391 z" /><path
         id="path92"
         style="fill:#02709f;fill-opacity:1;fill-rule:nonzero;stroke:none"
         d="m 450.02,495.762 0,3.828 -23.262,-17.254 0,-3.828 23.262,17.254" /><path
         id="path94"
         style="fill:none;stroke:#ffffff;stroke-width:3.99993992;stroke-linecap:butt;stroke-linejoin:miter;stroke-miterlimit:4;stroke-dasharray:none;stroke-opacity:1"
         d="m 450.02,495.762 0,3.828 -23.262,-17.254 0,-3.828 23.262,17.254 z" /><path
         id="path96"
         style="fill:#02709f;fill-opacity:1;fill-rule:nonzero;stroke:none"
         d="m 435.02,453.008 -25.508,-33.75 -188.262,0 30,33.75 183.77,0" /><path
         id="path98"
         style="fill:none;stroke:#ffffff;stroke-width:3.99993992;stroke-linecap:butt;stroke-linejoin:miter;stroke-miterlimit:4;stroke-dasharray:none;stroke-opacity:1"
         d="m 435.02,453.008 -25.508,-33.75 -188.262,0 30,33.75 183.77,0 z" /><path
         id="path100"
         style="fill:#02709f;fill-opacity:1;fill-rule:nonzero;stroke:none"
         d="m 369.004,466.504 46.504,0" /><path
         id="path102"
         style="fill:none;stroke:#ffffff;stroke-width:3.99993992;stroke-linecap:butt;stroke-linejoin:miter;stroke-miterlimit:4;stroke-dasharray:none;stroke-opacity:1"
         d="m 369.004,466.504 46.504,0" /><path
         id="path104"
         style="fill:#02709f;fill-opacity:1;fill-rule:nonzero;stroke:none"
         d="m 197.012,621.008 -5,-8.996 7.988,0.996" /><path
         id="path106"
         style="fill:none;stroke:#ffffff;stroke-width:3.99993992;stroke-linecap:butt;stroke-linejoin:miter;stroke-miterlimit:4;stroke-dasharray:none;stroke-opacity:1"
         d="m 197.012,621.008 -5,-8.996 7.988,0.996" /><path
         id="path108"
         style="fill:#02709f;fill-opacity:1;fill-rule:nonzero;stroke:none"
         d="m 285.41,441.809 10,-0.071" /><path
         id="path110"
         style="fill:none;stroke:#ffffff;stroke-width:3.99993992;stroke-linecap:butt;stroke-linejoin:miter;stroke-miterlimit:4;stroke-dasharray:none;stroke-opacity:1"
         d="m 285.41,441.809 10,-0.071" /><path
         id="path112"
         style="fill:#02709f;fill-opacity:1;fill-rule:nonzero;stroke:none"
         d="m 299.414,441.719 10,-0.067" /><path
         id="path114"
         style="fill:none;stroke:#ffffff;stroke-width:3.99993992;stroke-linecap:butt;stroke-linejoin:miter;stroke-miterlimit:4;stroke-dasharray:none;stroke-opacity:1"
         d="m 299.414,441.719 10,-0.067" /><path
         id="path116"
         style="fill:#02709f;fill-opacity:1;fill-rule:nonzero;stroke:none"
         d="m 256.406,441.992 10,-0.066" /><path
         id="path118"
         style="fill:none;stroke:#ffffff;stroke-width:3.99993992;stroke-linecap:butt;stroke-linejoin:miter;stroke-miterlimit:4;stroke-dasharray:none;stroke-opacity:1"
         d="m 256.406,441.992 10,-0.066" /><path
         id="path120"
         style="fill:#02709f;fill-opacity:1;fill-rule:nonzero;stroke:none"
         d="m 270.41,441.902 10,-0.066" /><path
         id="path122"
         style="fill:none;stroke:#ffffff;stroke-width:3.99993992;stroke-linecap:butt;stroke-linejoin:miter;stroke-miterlimit:4;stroke-dasharray:none;stroke-opacity:1"
         d="m 270.41,441.902 10,-0.066" /><path
         id="path124"
         style="fill:#02709f;fill-opacity:1;fill-rule:nonzero;stroke:none"
         d="m 313.418,441.621 10,-0.058" /><path
         id="path126"
         style="fill:none;stroke:#ffffff;stroke-width:3.99993992;stroke-linecap:butt;stroke-linejoin:miter;stroke-miterlimit:4;stroke-dasharray:none;stroke-opacity:1"
         d="m 313.418,441.621 10,-0.058" /><path
         id="path128"
         style="fill:#02709f;fill-opacity:1;fill-rule:nonzero;stroke:none"
         d="m 327.402,441.531 10,-0.066" /><path
         id="path130"
         style="fill:none;stroke:#ffffff;stroke-width:3.99993992;stroke-linecap:butt;stroke-linejoin:miter;stroke-miterlimit:4;stroke-dasharray:none;stroke-opacity:1"
         d="m 327.402,441.531 10,-0.066" /><path
         id="path132"
         style="fill:#02709f;fill-opacity:1;fill-rule:nonzero;stroke:none"
         d="m 341.406,441.445 10,-0.066" /><path
         id="path134"
         style="fill:none;stroke:#ffffff;stroke-width:3.99993992;stroke-linecap:butt;stroke-linejoin:miter;stroke-miterlimit:4;stroke-dasharray:none;stroke-opacity:1"
         d="m 341.406,441.445 10,-0.066" /><path
         id="path136"
         style="fill:#02709f;fill-opacity:1;fill-rule:nonzero;stroke:none"
         d="m 355.41,441.348 10,-0.059" /><path
         id="path138"
         style="fill:none;stroke:#ffffff;stroke-width:3.99993992;stroke-linecap:butt;stroke-linejoin:miter;stroke-miterlimit:4;stroke-dasharray:none;stroke-opacity:1"
         d="m 355.41,441.348 10,-0.059" /><path
         id="path140"
         style="fill:#02709f;fill-opacity:1;fill-rule:nonzero;stroke:none"
         d="m 369.414,441.262 10,-0.071" /><path
         id="path142"
         style="fill:none;stroke:#ffffff;stroke-width:3.99993992;stroke-linecap:butt;stroke-linejoin:miter;stroke-miterlimit:4;stroke-dasharray:none;stroke-opacity:1"
         d="m 369.414,441.262 10,-0.071" /><path
         id="path144"
         style="fill:#02709f;fill-opacity:1;fill-rule:nonzero;stroke:none"
         d="m 383.418,441.172 10,-0.067" /><path
         id="path146"
         style="fill:none;stroke:#ffffff;stroke-width:3.99993992;stroke-linecap:butt;stroke-linejoin:miter;stroke-miterlimit:4;stroke-dasharray:none;stroke-opacity:1"
         d="m 383.418,441.172 10,-0.067" /><path
         id="path148"
         style="fill:#02709f;fill-opacity:1;fill-rule:nonzero;stroke:none"
         d="m 397.402,441.074 10,-0.058" /><path
         id="path150"
         style="fill:none;stroke:#ffffff;stroke-width:3.99993992;stroke-linecap:butt;stroke-linejoin:miter;stroke-miterlimit:4;stroke-dasharray:none;stroke-opacity:1"
         d="m 397.402,441.074 10,-0.058" /><path
         id="path152"
         style="fill:#02709f;fill-opacity:1;fill-rule:nonzero;stroke:none"
         d="m 280.41,433.809 10,-0.071" /><path
         id="path154"
         style="fill:none;stroke:#ffffff;stroke-width:3.99993992;stroke-linecap:butt;stroke-linejoin:miter;stroke-miterlimit:4;stroke-dasharray:none;stroke-opacity:1"
         d="m 280.41,433.809 10,-0.071" /><path
         id="path156"
         style="fill:#02709f;fill-opacity:1;fill-rule:nonzero;stroke:none"
         d="m 294.414,433.711 10,-0.059" /><path
         id="path158"
         style="fill:none;stroke:#ffffff;stroke-width:3.99993992;stroke-linecap:butt;stroke-linejoin:miter;stroke-miterlimit:4;stroke-dasharray:none;stroke-opacity:1"
         d="m 294.414,433.711 10,-0.059" /><path
         id="path160"
         style="fill:#02709f;fill-opacity:1;fill-rule:nonzero;stroke:none"
         d="m 251.406,433.992 10,-0.066" /><path
         id="path162"
         style="fill:none;stroke:#ffffff;stroke-width:3.99993992;stroke-linecap:butt;stroke-linejoin:miter;stroke-miterlimit:4;stroke-dasharray:none;stroke-opacity:1"
         d="m 251.406,433.992 10,-0.066" /><path
         id="path164"
         style="fill:#02709f;fill-opacity:1;fill-rule:nonzero;stroke:none"
         d="m 265.41,433.906 10,-0.066" /><path
         id="path166"
         style="fill:none;stroke:#ffffff;stroke-width:3.99993992;stroke-linecap:butt;stroke-linejoin:miter;stroke-miterlimit:4;stroke-dasharray:none;stroke-opacity:1"
         d="m 265.41,433.906 10,-0.066" /><path
         id="path168"
         style="fill:#02709f;fill-opacity:1;fill-rule:nonzero;stroke:none"
         d="m 308.418,433.621 10,-0.066" /><path
         id="path170"
         style="fill:none;stroke:#ffffff;stroke-width:3.99993992;stroke-linecap:butt;stroke-linejoin:miter;stroke-miterlimit:4;stroke-dasharray:none;stroke-opacity:1"
         d="m 308.418,433.621 10,-0.066" /><path
         id="path172"
         style="fill:#02709f;fill-opacity:1;fill-rule:nonzero;stroke:none"
         d="m 322.402,433.535 10,-0.066" /><path
         id="path174"
         style="fill:none;stroke:#ffffff;stroke-width:3.99993992;stroke-linecap:butt;stroke-linejoin:miter;stroke-miterlimit:4;stroke-dasharray:none;stroke-opacity:1"
         d="m 322.402,433.535 10,-0.066" /><path
         id="path176"
         style="fill:#02709f;fill-opacity:1;fill-rule:nonzero;stroke:none"
         d="m 336.406,433.438 10,-0.059" /><path
         id="path178"
         style="fill:none;stroke:#ffffff;stroke-width:3.99993992;stroke-linecap:butt;stroke-linejoin:miter;stroke-miterlimit:4;stroke-dasharray:none;stroke-opacity:1"
         d="m 336.406,433.438 10,-0.059" /><path
         id="path180"
         style="fill:#02709f;fill-opacity:1;fill-rule:nonzero;stroke:none"
         d="m 350.41,433.352 10,-0.071" /><path
         id="path182"
         style="fill:none;stroke:#ffffff;stroke-width:3.99993992;stroke-linecap:butt;stroke-linejoin:miter;stroke-miterlimit:4;stroke-dasharray:none;stroke-opacity:1"
         d="m 350.41,433.352 10,-0.071" /><path
         id="path184"
         style="fill:#02709f;fill-opacity:1;fill-rule:nonzero;stroke:none"
         d="m 364.414,433.262 10,-0.071" /><path
         id="path186"
         style="fill:none;stroke:#ffffff;stroke-width:3.99993992;stroke-linecap:butt;stroke-linejoin:miter;stroke-miterlimit:4;stroke-dasharray:none;stroke-opacity:1"
         d="m 364.414,433.262 10,-0.071" /><path
         id="path188"
         style="fill:#02709f;fill-opacity:1;fill-rule:nonzero;stroke:none"
         d="m 378.418,433.164 10,-0.059" /><path
         id="path190"
         style="fill:none;stroke:#ffffff;stroke-width:3.99993992;stroke-linecap:butt;stroke-linejoin:miter;stroke-miterlimit:4;stroke-dasharray:none;stroke-opacity:1"
         d="m 378.418,433.164 10,-0.059" /><path
         id="path192"
         style="fill:#02709f;fill-opacity:1;fill-rule:nonzero;stroke:none"
         d="m 392.402,433.074 10,-0.066" /><path
         id="path194"
         style="fill:none;stroke:#ffffff;stroke-width:3.99993992;stroke-linecap:butt;stroke-linejoin:miter;stroke-miterlimit:4;stroke-dasharray:none;stroke-opacity:1"
         d="m 392.402,433.074 10,-0.066" /><path
         id="path196"
         style="fill:#02709f;fill-opacity:1;fill-rule:nonzero;stroke:none"
         d="m 275.41,425.801 10,-0.059" /><path
         id="path198"
         style="fill:none;stroke:#ffffff;stroke-width:3.99993992;stroke-linecap:butt;stroke-linejoin:miter;stroke-miterlimit:4;stroke-dasharray:none;stroke-opacity:1"
         d="m 275.41,425.801 10,-0.059" /><path
         id="path200"
         style="fill:#02709f;fill-opacity:1;fill-rule:nonzero;stroke:none"
         d="m 289.414,425.715 10,-0.063" /><path
         id="path202"
         style="fill:none;stroke:#ffffff;stroke-width:3.99993992;stroke-linecap:butt;stroke-linejoin:miter;stroke-miterlimit:4;stroke-dasharray:none;stroke-opacity:1"
         d="m 289.414,425.715 10,-0.063" /><path
         id="path204"
         style="fill:#02709f;fill-opacity:1;fill-rule:nonzero;stroke:none"
         d="m 246.406,425.996 10,-0.066" /><path
         id="path206"
         style="fill:none;stroke:#ffffff;stroke-width:3.99993992;stroke-linecap:butt;stroke-linejoin:miter;stroke-miterlimit:4;stroke-dasharray:none;stroke-opacity:1"
         d="m 246.406,425.996 10,-0.066" /><path
         id="path208"
         style="fill:#02709f;fill-opacity:1;fill-rule:nonzero;stroke:none"
         d="m 260.41,425.898 10,-0.058" /><path
         id="path210"
         style="fill:none;stroke:#ffffff;stroke-width:3.99993992;stroke-linecap:butt;stroke-linejoin:miter;stroke-miterlimit:4;stroke-dasharray:none;stroke-opacity:1"
         d="m 260.41,425.898 10,-0.058" /><path
         id="path212"
         style="fill:#02709f;fill-opacity:1;fill-rule:nonzero;stroke:none"
         d="m 303.418,425.625 10,-0.066" /><path
         id="path214"
         style="fill:none;stroke:#ffffff;stroke-width:3.99993992;stroke-linecap:butt;stroke-linejoin:miter;stroke-miterlimit:4;stroke-dasharray:none;stroke-opacity:1"
         d="m 303.418,425.625 10,-0.066" /><path
         id="path216"
         style="fill:#02709f;fill-opacity:1;fill-rule:nonzero;stroke:none"
         d="m 317.402,425.535 10,-0.066" /><path
         id="path218"
         style="fill:none;stroke:#ffffff;stroke-width:3.99993992;stroke-linecap:butt;stroke-linejoin:miter;stroke-miterlimit:4;stroke-dasharray:none;stroke-opacity:1"
         d="m 317.402,425.535 10,-0.066" /><path
         id="path220"
         style="fill:#02709f;fill-opacity:1;fill-rule:nonzero;stroke:none"
         d="m 331.406,425.441 10,-0.058" /><path
         id="path222"
         style="fill:none;stroke:#ffffff;stroke-width:3.99993992;stroke-linecap:butt;stroke-linejoin:miter;stroke-miterlimit:4;stroke-dasharray:none;stroke-opacity:1"
         d="m 331.406,425.441 10,-0.058" /><path
         id="path224"
         style="fill:#02709f;fill-opacity:1;fill-rule:nonzero;stroke:none"
         d="m 345.41,425.352 10,-0.071" /><path
         id="path226"
         style="fill:none;stroke:#ffffff;stroke-width:3.99993992;stroke-linecap:butt;stroke-linejoin:miter;stroke-miterlimit:4;stroke-dasharray:none;stroke-opacity:1"
         d="m 345.41,425.352 10,-0.071" /><path
         id="path228"
         style="fill:#02709f;fill-opacity:1;fill-rule:nonzero;stroke:none"
         d="m 359.414,425.266 10,-0.071" /><path
         id="path230"
         style="fill:none;stroke:#ffffff;stroke-width:3.99993992;stroke-linecap:butt;stroke-linejoin:miter;stroke-miterlimit:4;stroke-dasharray:none;stroke-opacity:1"
         d="m 359.414,425.266 10,-0.071" /><path
         id="path232"
         style="fill:#02709f;fill-opacity:1;fill-rule:nonzero;stroke:none"
         d="m 373.418,425.168 10,-0.059" /><path
         id="path234"
         style="fill:none;stroke:#ffffff;stroke-width:3.99993992;stroke-linecap:butt;stroke-linejoin:miter;stroke-miterlimit:4;stroke-dasharray:none;stroke-opacity:1"
         d="m 373.418,425.168 10,-0.059" /><path
         id="path236"
         style="fill:#02709f;fill-opacity:1;fill-rule:nonzero;stroke:none"
         d="m 387.402,425.078 10,-0.066" /><path
         id="path238"
         style="fill:none;stroke:#ffffff;stroke-width:3.99993992;stroke-linecap:butt;stroke-linejoin:miter;stroke-miterlimit:4;stroke-dasharray:none;stroke-opacity:1"
         d="m 387.402,425.078 10,-0.066" /><path
         id="path240"
         style="fill:#02709f;fill-opacity:1;fill-rule:nonzero;stroke:none"
         d="m 224.258,459.004 c 7.5,0 15.742,-1.492 23.242,0.754 3.75,1.504 6.758,6.746 10.508,8.25 5.254,1.504 11.25,2.246 16.504,-0.75 0.742,-0.754 1.504,-2.246 2.988,-3 6.758,-0.75 13.516,-1.504 18.75,-5.996 3.75,-3.75 0.762,-9.754 1.504,-14.258 -1.504,0 -3.75,-2.996 -3.75,-1.492 -2.246,3.75 -2.988,8.25 -5.996,10.496 -4.492,1.504 -9.746,2.246 -14.258,0 -0.742,0 0,-3.75 2.266,-3.75 4.492,0 9.746,-2.996 6.738,-5.996 -9.746,-9.754 -24.746,-6.758 -38.242,-5.254 -4.512,0 -9.004,3.75 -14.258,3.75" /><path
         id="path242"
         style="fill:none;stroke:#ffffff;stroke-width:3.99993992;stroke-linecap:butt;stroke-linejoin:miter;stroke-miterlimit:4;stroke-dasharray:none;stroke-opacity:1"
         d="m 224.258,459.004 c 7.5,0 15.742,-1.492 23.242,0.754 3.75,1.504 6.758,6.746 10.508,8.25 5.254,1.504 11.25,2.246 16.504,-0.75 0.742,-0.754 1.504,-2.246 2.988,-3 6.758,-0.75 13.516,-1.504 18.75,-5.996 3.75,-3.75 0.762,-9.754 1.504,-14.258 -1.504,0 -3.75,-2.996 -3.75,-1.492 -2.246,3.75 -2.988,8.25 -5.996,10.496 -4.492,1.504 -9.746,2.246 -14.258,0 -0.742,0 0,-3.75 2.266,-3.75 4.492,0 9.746,-2.996 6.738,-5.996 -9.746,-9.754 -24.746,-6.758 -38.242,-5.254 -4.512,0 -9.004,3.75 -14.258,3.75" /><path
         id="path244"
         style="fill:#02709f;fill-opacity:1;fill-rule:nonzero;stroke:none"
         d="m 336.016,384.004 c 3.75,-0.742 5.996,2.258 9.746,3.008 2.988,1.496 6.738,0 9.746,0.742 5.996,2.258 10.508,6.758 16.504,9.004 1.504,9.746 1.504,20.254 3.75,30 0.742,-0.75 12.5,2.754 13.242,2.754 -0.742,2.246 1.504,5.996 -0.742,6.75 -8.262,2.996 -27.5,0.242 -36.504,-2.004 -0.742,0 -0.742,0.754 -0.742,1.504 -5.254,0 -10.508,0.742 -15,-2.254 -6.016,-3.75 -3.008,-11.25 -3.75,-18 -1.504,-3.75 -5.254,-5.996 -8.262,-7.5 -2.246,-1.504 -5.996,-2.246 -8.242,-4.5" /><path
         id="path246"
         style="fill:none;stroke:#ffffff;stroke-width:3.99993992;stroke-linecap:butt;stroke-linejoin:miter;stroke-miterlimit:4;stroke-dasharray:none;stroke-opacity:1"
         d="m 336.016,384.004 c 3.75,-0.742 5.996,2.258 9.746,3.008 2.988,1.496 6.738,0 9.746,0.742 5.996,2.258 10.508,6.758 16.504,9.004 1.504,9.746 1.504,20.254 3.75,30 0.742,-0.75 12.5,2.754 13.242,2.754 -0.742,2.246 1.504,5.996 -0.742,6.75 -8.262,2.996 -27.5,0.242 -36.504,-2.004 -0.742,0 -0.742,0.754 -0.742,1.504 -5.254,0 -10.508,0.742 -15,-2.254 -6.016,-3.75 -3.008,-11.25 -3.75,-18 -1.504,-3.75 -5.254,-5.996 -8.262,-7.5 -2.246,-1.504 -5.996,-2.246 -8.242,-4.5" /><path
         id="path248"
         style="fill:#02709f;fill-opacity:1;fill-rule:nonzero;stroke:none"
         d="m 188.262,462.012 c 10.488,0 29.238,1.496 35.254,-3.008 4.492,-4.492 8.984,-19.492 4.492,-25.496 -1.504,-3 -13.496,-3.75 -19.492,-3.75" /><path
         id="path250"
         style="fill:none;stroke:#ffffff;stroke-width:3.99993992;stroke-linecap:butt;stroke-linejoin:miter;stroke-miterlimit:4;stroke-dasharray:none;stroke-opacity:1"
         d="m 188.262,462.012 c 10.488,0 29.238,1.496 35.254,-3.008 4.492,-4.492 8.984,-19.492 4.492,-25.496 -1.504,-3 -13.496,-3.75 -19.492,-3.75" /><path
         id="path252"
         style="fill:#02709f;fill-opacity:1;fill-rule:nonzero;stroke:none"
         d="m 96.0156,574.512 c 5.9964,0 15.0004,1.496 17.9884,-1.504 16.504,-12 30,-27 42.012,-43.496 7.5,-13.504 19.492,-21.004 22.5,-34.5 2.988,-12.004 5.996,-24.004 10.488,-34.504 12.012,-20.996 24.004,-39.004 37.5,-60 3.008,-2.996 10.508,-1.504 16.504,-4.5 1.504,-1.496 3.008,-5.996 4.492,-5.996 9.004,0 18.008,-1.504 25.508,1.492 13.496,7.5 28.496,9.004 41.992,13.508 6.016,-13.508 25.508,-18 25.508,-33 -16.504,-10.508 -33.008,-18.008 -49.492,-27 -10.508,-4.504 -21.016,-13.508 -33.008,-13.508 -7.5,0 -41.992,13.508 -43.496,10.508 -5.996,-18.008 25.488,-51.004 20.996,-72 -5.996,-22.5 -9.004,-42.004 -13.496,-64.504 -1.504,-6.004 -4.512,-12 -5.996,-19.5 -1.504,-4.504 -4.512,-9.004 -7.5,-12.004 -6.016,-4.5 -12.012,-12 -18.008,-13.496 -7.5,-2.996 -15.742,-0.75 -23.242,-3.75 -4.512,-1.504 -9.766,-2.254 -14.258,-3.75 -7.5,-4.5 -18.008,-1.504 -19.492,3 -7.5,20.996 -1.504,45 -9.004,65.996 -15,42 -27.6175,78.594 -55.5081,126.004 -5.9375,10.097 -27.2344,6.23 -34.5,18 -23.6719,38.379 -4.4922,100.496 9.0039,153.008 3.0078,13.496 15.75,32.246 29.2461,36.746 4.5117,3 5.9961,5.996 10.5078,7.5 5.9961,4.504 6.7383,11.25 12.7539,11.25" /><path
         id="path254"
         style="fill:none;stroke:#ffffff;stroke-width:3.99993992;stroke-linecap:butt;stroke-linejoin:miter;stroke-miterlimit:4;stroke-dasharray:none;stroke-opacity:1"
         d="m 96.0156,574.512 c 5.9964,0 15.0004,1.496 17.9884,-1.504 16.504,-12 30,-27 42.012,-43.496 7.5,-13.504 19.492,-21.004 22.5,-34.5 2.988,-12.004 5.996,-24.004 10.488,-34.504 12.012,-20.996 24.004,-39.004 37.5,-60 3.008,-2.996 10.508,-1.504 16.504,-4.5 1.504,-1.496 3.008,-5.996 4.492,-5.996 9.004,0 18.008,-1.504 25.508,1.492 13.496,7.5 28.496,9.004 41.992,13.508 6.016,-13.508 25.508,-18 25.508,-33 -16.504,-10.508 -33.008,-18.008 -49.492,-27 -10.508,-4.504 -21.016,-13.508 -33.008,-13.508 -7.5,0 -41.992,13.508 -43.496,10.508 -5.996,-18.008 25.488,-51.004 20.996,-72 -5.996,-22.5 -9.004,-42.004 -13.496,-64.504 -1.504,-6.004 -4.512,-12 -5.996,-19.5 -1.504,-4.504 -4.512,-9.004 -7.5,-12.004 -6.016,-4.5 -12.012,-12 -18.008,-13.496 -7.5,-2.996 -15.742,-0.75 -23.242,-3.75 -4.512,-1.504 -9.766,-2.254 -14.258,-3.75 -7.5,-4.5 -18.008,-1.504 -19.492,3 -7.5,20.996 -1.504,45 -9.004,65.996 -15,42 -27.6175,78.594 -55.5081,126.004 -5.9375,10.097 -27.2344,6.23 -34.5,18 -23.6719,38.379 -4.4922,100.496 9.0039,153.008 3.0078,13.496 15.75,32.246 29.2461,36.746 4.5117,3 5.9961,5.996 10.5078,7.5 5.9961,4.504 6.7383,11.25 12.7539,11.25 z" /><path
         id="path256"
         style="fill:#02709f;fill-opacity:1;fill-rule:nonzero;stroke:none"
         d="m 69.7656,179.258 69.7464,-26.25 -0.762,60 c -51.7383,133.496 -60,132.754 -60,132.754 -17.2461,9.746 -21.7461,10.5 -21.7461,10.5 -24.7461,-1.504 -38.2422,27.742 -38.2422,27.742 -8.2656,6.758 -16.50389,-2.996 -16.50389,-2.996 L 69.7656,179.258" /><path
         id="path258"
         style="fill:none;stroke:#ffffff;stroke-width:3.99993992;stroke-linecap:butt;stroke-linejoin:miter;stroke-miterlimit:4;stroke-dasharray:none;stroke-opacity:1"
         d="m 69.7656,179.258 69.7464,-26.25 -0.762,60 c -51.7383,133.496 -60,132.754 -60,132.754 -17.2461,9.746 -21.7461,10.5 -21.7461,10.5 -24.7461,-1.504 -38.2422,27.742 -38.2422,27.742 -8.2656,6.758 -16.50389,-2.996 -16.50389,-2.996 L 69.7656,179.258 Z" /></g></g></svg>