<svg xmlns="http://www.w3.org/2000/svg" viewBox="0 0 61.25 88.75" height="88.75" width="61.25"><path d="M59.439 32.102c1.967-2.812-3.374-4.218-3.374-4.218" fill="#02709f"/><path d="M59.439 32.103c1.967-2.812-3.374-4.218-3.374-4.218" fill="none" stroke="#fff" stroke-width=".5"/><path d="M56.158 7.499l-2.72 2.251H32.436l2.72-2.252h21.002" fill="#02709f"/><path d="M56.158 7.499l-2.72 2.251H32.436l2.72-2.252h21.002z" fill="none" stroke="#fff" stroke-width=".5"/><path d="M32.252 26.571h21.185V9.788H32.252v16.783z" fill="#02709f"/><path d="M32.252 26.571h21.185V9.788H32.252v16.783z" fill="none" stroke="#fff" stroke-width=".5"/><path d="M56.158 24.594V7.538l-2.813 2.25v17.056l2.813-2.25" fill="#02709f"/><path d="M56.158 24.594V7.538l-2.813 2.25v17.057l2.813-2.251z" fill="none" stroke="#fff" stroke-width=".5"/><path d="M25.128 5.853c.185 1.875-1.037 3.183 1.122 5.903.313.396-.469 1.173-.752 1.622-.278.443-.37 1.098-.186 1.66-.185 0-.376.468-.376.844-.184.938.192 1.592-.376 1.783-.938.375-2.245.375-2.813.938a5.618 5.618 0 0 0-1.875 2.62h-.746c-1.69-1.683-3.75-5.248-6.186-5.995-.938-2.442.746-4.502 1.875-6.563 1.308-2.25 3.75-3.75 6.371-3.94" fill="#02709f"/><path d="M25.128 5.853c.185 1.875-1.037 3.183 1.122 5.903.313.396-.469 1.173-.752 1.621-.278.445-.37 1.1-.186 1.66-.185 0-.376.47-.376.845-.184.938.192 1.592-.376 1.783-.938.376-2.245.376-2.813.937a5.618 5.618 0 0 0-1.875 2.622h-.746c-1.69-1.684-3.75-5.249-6.186-5.996-.938-2.442.746-4.502 1.875-6.562 1.308-2.251 3.75-3.75 6.371-3.94" fill="none" stroke="#fff" stroke-width=".5"/><path d="M12.471 15.053c.293.297 1.03-.2 1.591-.015.938.376 2.252.56 2.813 0 .752-.562 1.123-1.685 1.69-2.623 0-.19.185-.566.561-.751.938 0 2.251.376 2.621-.186 1.13-1.128-.37-3.38 1.314-4.317 1.314-.56 3.566-.937 3.189-2.812-3.565-1.875-7.5-3.75-11.435-2.813-1.129.377-2.067 1.69-3.004 2.628-.185.376-.561.751-.561 1.122-.185 2.441-.376 4.688.185 7.129.191.748.469 2.081 1.036 2.638" fill="#02709f"/><path d="M12.471 15.052c.293.298 1.03-.2 1.591-.014.938.376 2.252.56 2.813 0 .752-.562 1.123-1.685 1.69-2.622 0-.19.185-.567.561-.752.938 0 2.251.376 2.621-.186 1.13-1.128-.37-3.38 1.314-4.317 1.314-.56 3.566-.937 3.189-2.812-3.565-1.875-7.5-3.75-11.435-2.813-1.129.377-2.067 1.69-3.004 2.628-.185.376-.561.752-.561 1.122-.185 2.442-.376 4.688.185 7.13.191.747.469 2.08 1.036 2.636z" fill="none" stroke="#fff" stroke-width=".5"/><path d="M31.967 59.852v4.497c-1.03.937-.937 2.441-.937 3.75 1.499.845 3.281.468 4.879.566 0-.283 0-.659.092-.659 1.499-.185 2.905-.279 4.404-.468.376-1.03.561-2.252.561-3.374-1.307-.655-3.281-.562-3.935-2.062-.56-1.503-.56-3.095-.468-4.593" fill="#02709f"/><path d="M31.967 59.852v4.497c-1.03.937-.937 2.442-.937 3.75 1.499.845 3.281.468 4.879.567 0-.284 0-.66.092-.66 1.499-.185 2.905-.278 4.404-.468.376-1.03.561-2.252.561-3.374-1.307-.654-3.281-.562-3.935-2.06-.56-1.505-.56-3.097-.468-4.595" fill="none" stroke="#fff" stroke-width=".5"/><path d="M26.719 57.884c3.466.37 6.47-1.504 9.658-2.813.84-.375 2.06-.097 3.09-.097.285 3.565-.277 7.129-.092 10.689 1.783 0 3.466.19 5.248-.093.938-.092 1.876-.561 2.72-1.03 0-4.971.284-9.938-.283-15-.093-.563-.469-1.129-.839-1.69a1.754 1.754 0 0 0-.937-.654c-4.219-.937-4.88-.469-9.005-1.031-.37 0 .937-2.065.66-2.441-.743-.981-10.504-.47-11.719-.372" fill="#02709f"/><path d="M26.719 57.885c3.466.37 6.47-1.505 9.658-2.813.84-.376 2.06-.098 3.09-.098.285 3.565-.277 7.13-.092 10.689 1.783 0 3.466.19 5.248-.093.938-.092 1.876-.561 2.72-1.03 0-4.971.284-9.937-.283-15-.093-.562-.469-1.129-.839-1.69a1.76 1.76 0 0 0-.937-.654c-4.219-.937-4.88-.469-9.005-1.03-.37 0 .937-2.066.66-2.442-.743-.982-10.504-.47-11.719-.37" fill="none" stroke="#fff" stroke-width=".5"/><path d="M44.155 65.477c0 .654-.185 1.313.092 1.875.1.278.66.278 1.037.562.277.282.561.653.937.845.562.277 1.215.375 1.875.468.938.093 1.875-.19 2.714.186.099.092.376.092.568.283.561.654.746 1.499.37 2.06-.746 1.128-1.777 1.968-3.09 2.251-1.783.283-3.566 0-5.348.377-.185 0-.093 0-.185.092-.092.283.092 1.035 0 1.035-1.783.092-3.842.469-5.064-1.221-.376-.566-.469-1.406-.184-2.158.375-.752.56-1.498.745-2.343.284-.655.192-.655.47-1.314.375-.937.19-1.968.19-2.998" fill="#02709f"/><path d="M44.155 65.477c0 .654-.185 1.314.092 1.875.1.278.66.278 1.037.562.277.283.561.653.937.845.562.277 1.215.376 1.875.468.938.093 1.875-.19 2.714.186.099.092.376.092.568.283.561.654.746 1.499.37 2.06-.746 1.129-1.777 1.968-3.09 2.251-1.783.284-3.566 0-5.348.377-.185 0-.093 0-.185.092-.092.284.092 1.035 0 1.035-1.783.092-3.842.469-5.064-1.22-.376-.567-.469-1.406-.184-2.159.375-.752.56-1.498.745-2.343.284-.654.192-.654.47-1.314.375-.937.19-1.968.19-2.998" fill="none" stroke="#fff" stroke-width=".5"/><path d="M22.031 66.507v4.688l9.092-3.75c1.505-.284 1.875 1.591 1.875 1.591v1.314h-.746v1.221c-.754 1.313-1.968 0-1.968 0v-1.5l-7.223 3.281 8.53 6.939c1.13 2.062.099 3.937.099 3.937.938 1.78-.752 3.002-.752 3.002-2.252 1.123-2.16-1.596-2.16-1.596-.276-1.593 1.314-1.593 1.314-1.593l.469-.937-9.936-9.004-12.94 7.407-.464 1.128c1.031 2.251-.844 2.999-.844 2.999-2.627.469-1.597-1.875-1.597-1.875-.092-1.314.937-1.314.937-1.314l.753-.84s.654.279-.093-.376c-.752-.66-.191-2.437-.191-2.437l12.188-6.006-4.028-3.935-1.313.845c0 2.153-1.5 1.499-1.5 1.499-1.597 0-.66-1.69-.66-1.69.562-.469 1.315-.746 1.315-.746l.937-2.067 3.096 1.598 3.559 2.998V67.16M27.471 61.727l10.59-4.78c.753-.938-.469-2.345-.469-2.345l-9.936 3.75" fill="#02709f"/><path d="M27.471 61.727l10.59-4.78c.753-.937-.469-2.344-.469-2.344l-9.936 3.75" fill="none" stroke="#fff" stroke-width=".5"/><path d="M34.034 24.696h17.622V12.04H34.034v12.656z" fill="#02709f"/><path d="M34.034 24.696h17.622V12.04H34.034v12.656z" fill="none" stroke="#fff" stroke-width=".5"/><path d="M32.426 30.522h21.279v-3.097H32.426v3.097z" fill="#02709f"/><path d="M32.426 30.521h21.279v-3.096H32.426v3.096z" fill="none" stroke="#fff" stroke-width=".5"/><path d="M27.564 35.755h23.622v-1.03H27.564v1.03z" fill="#02709f"/><path d="M27.564 35.755h23.622v-1.03H27.564v1.03z" fill="none" stroke="#fff" stroke-width=".5"/><path d="M55.781 35.288h3.467v-.748H55.78v.748z" fill="#02709f"/><path d="M55.781 35.288h3.467v-.748H55.78v.748z" fill="none" stroke="#fff" stroke-width=".5"/><path d="M59.248 34.349l1.505-2.436H57.28l-1.499 2.436h3.467" fill="#02709f"/><path d="M59.248 34.349l1.505-2.436H57.28l-1.499 2.436h3.467z" fill="none" stroke="#fff" stroke-width=".5"/><path d="M60.845 34.071v-2.158l-1.69 2.627v.746l1.69-1.215" fill="#02709f"/><path d="M60.845 34.071v-2.158l-1.69 2.627v.746l1.69-1.215z" fill="none" stroke="#fff" stroke-width=".5"/><path d="M54.56 32.474v-1.778l-3.466 4.03v1.029l3.466-3.281" fill="#02709f"/><path d="M54.56 32.474v-1.777l-3.466 4.028v1.03l3.466-3.281z" fill="none" stroke="#fff" stroke-width=".5"/><path d="M56.534 28.821v-3.94l-2.828 2.436v4.127l2.828-2.623" fill="#02709f"/><path d="M56.534 28.822v-3.94l-2.828 2.435v4.127l2.828-2.622z" fill="none" stroke="#fff" stroke-width=".5"/><path d="M32.905 27.416H53.53v-.752H32.905v.752z" fill="#02709f"/><path d="M32.905 27.416H53.53v-.752H32.905v.752z" fill="none" stroke="#fff" stroke-width=".5"/><path d="M56.25 25.257v-.478l-2.905 2.159v.477l2.905-2.158" fill="#02709f"/><path d="M56.25 25.257v-.478l-2.905 2.159v.478l2.905-2.159z" fill="none" stroke="#fff" stroke-width=".5"/><path d="M54.375 30.599l-3.189 4.218h-23.53l3.75-4.218h22.969" fill="#02709f"/><path d="M54.375 30.599l-3.189 4.218h-23.53l3.75-4.218h22.969zM46.123 28.915h5.816" fill="none" stroke="#fff" stroke-width=".5"/><path d="M24.623 9.603l-.625 1.123L25 10.6" fill="#02709f"/><path d="M24.623 9.603l-.625 1.123L25 10.6" fill="none" stroke="#fff" stroke-width=".5"/><path d="M35.674 32l1.25.01" fill="#02709f"/><path d="M35.674 32.001l1.25.009" fill="none" stroke="#fff" stroke-width=".5"/><path d="M37.426 32.01l1.25.01" fill="#02709f"/><path d="M37.426 32.01l1.25.01" fill="none" stroke="#fff" stroke-width=".5"/><path d="M32.051 31.981l1.25.005" fill="#02709f"/><path d="M32.051 31.981l1.25.005" fill="none" stroke="#fff" stroke-width=".5"/><path d="M33.799 31.991l1.25.009" fill="#02709f"/><path d="M33.799 31.991l1.25.01" fill="none" stroke="#fff" stroke-width=".5"/><path d="M39.175 32.025l1.25.005" fill="#02709f"/><path d="M39.175 32.025l1.25.005" fill="none" stroke="#fff" stroke-width=".5"/><path d="M40.922 32.035l1.25.01" fill="#02709f"/><path d="M40.922 32.035l1.25.01" fill="none" stroke="#fff" stroke-width=".5"/><path d="M42.676 32.05l1.25.004" fill="#02709f"/><path d="M42.676 32.05l1.25.004" fill="none" stroke="#fff" stroke-width=".5"/><path d="M44.424 32.059l1.25.01" fill="#02709f"/><path d="M44.424 32.059l1.25.01" fill="none" stroke="#fff" stroke-width=".5"/><path d="M46.176 32.069l1.25.01" fill="#02709f"/><path d="M46.176 32.069l1.25.01" fill="none" stroke="#fff" stroke-width=".5"/><path d="M47.925 32.079l1.25.01" fill="#02709f"/><path d="M47.925 32.079l1.25.01" fill="none" stroke="#fff" stroke-width=".5"/><path d="M49.672 32.094l1.25.005" fill="#02709f"/><path d="M49.672 32.094l1.25.005" fill="none" stroke="#fff" stroke-width=".5"/><path d="M35.049 33.002l1.25.01" fill="#02709f"/><path d="M35.049 33.001l1.25.01" fill="none" stroke="#fff" stroke-width=".5"/><path d="M36.801 33.016l1.25.006" fill="#02709f"/><path d="M36.801 33.016l1.25.005" fill="none" stroke="#fff" stroke-width=".5"/><path d="M31.426 32.977l1.25.01" fill="#02709f"/><path d="M31.426 32.977l1.25.01" fill="none" stroke="#fff" stroke-width=".5"/><path d="M33.174 32.991l1.25.005" fill="#02709f"/><path d="M33.174 32.991l1.25.005" fill="none" stroke="#fff" stroke-width=".5"/><path d="M38.55 33.026l1.25.005" fill="#02709f"/><path d="M38.55 33.026l1.25.005" fill="none" stroke="#fff" stroke-width=".5"/><path d="M40.297 33.036l1.25.009" fill="#02709f"/><path d="M40.297 33.036l1.25.009" fill="none" stroke="#fff" stroke-width=".5"/><path d="M42.051 33.045l1.25.01" fill="#02709f"/><path d="M42.051 33.045l1.25.01" fill="none" stroke="#fff" stroke-width=".5"/><path d="M43.799 33.06l1.25.01" fill="#02709f"/><path d="M43.799 33.06l1.25.01" fill="none" stroke="#fff" stroke-width=".5"/><path d="M45.551 33.07l1.25.01" fill="#02709f"/><path d="M45.551 33.07l1.25.01" fill="none" stroke="#fff" stroke-width=".5"/><path d="M47.3 33.085l1.25.005" fill="#02709f"/><path d="M47.3 33.085l1.25.005" fill="none" stroke="#fff" stroke-width=".5"/><path d="M49.047 33.094l1.25.005" fill="#02709f"/><path d="M49.047 33.095l1.25.004" fill="none" stroke="#fff" stroke-width=".5"/><path d="M34.424 34.002l1.25.01" fill="#02709f"/><path d="M34.424 34.002l1.25.01" fill="none" stroke="#fff" stroke-width=".5"/><path d="M36.176 34.013l1.25.01" fill="#02709f"/><path d="M36.176 34.012l1.25.01" fill="none" stroke="#fff" stroke-width=".5"/><path d="M30.801 33.977l1.25.01" fill="#02709f"/><path d="M30.801 33.978l1.25.01" fill="none" stroke="#fff" stroke-width=".5"/><path d="M32.549 33.993l1.25.004" fill="#02709f"/><path d="M32.549 33.992l1.25.006" fill="none" stroke="#fff" stroke-width=".5"/><path d="M37.925 34.027l1.25.004" fill="#02709f"/><path d="M37.925 34.027l1.25.005" fill="none" stroke="#fff" stroke-width=".5"/><path d="M39.672 34.036l1.25.005" fill="#02709f"/><path d="M39.672 34.036l1.25.005" fill="none" stroke="#fff" stroke-width=".5"/><path d="M41.426 34.046l1.25.01" fill="#02709f"/><path d="M41.426 34.046l1.25.01" fill="none" stroke="#fff" stroke-width=".5"/><path d="M43.174 34.056l1.25.01" fill="#02709f"/><path d="M43.174 34.056l1.25.01" fill="none" stroke="#fff" stroke-width=".5"/><path d="M44.926 34.071l1.25.01" fill="#02709f"/><path d="M44.926 34.071l1.25.01" fill="none" stroke="#fff" stroke-width=".5"/><path d="M46.675 34.081l1.25.009" fill="#02709f"/><path d="M46.675 34.081l1.25.009" fill="none" stroke="#fff" stroke-width=".5"/><path d="M48.422 34.095l1.25.005" fill="#02709f"/><path d="M48.422 34.095l1.25.005" fill="none" stroke="#fff" stroke-width=".5"/><path d="M28.033 29.852c.937 0 1.967.186 2.904-.093.47-.19.846-.844 1.314-1.035.654-.185 1.407-.278 2.06.097.093.094.192.28.377.371.845.098 1.69.192 2.343.753.469.469.093 1.22.185 1.782-.185 0-.468.375-.468.186-.278-.47-.37-1.03-.746-1.314-.562-.185-1.222-.278-1.783 0-.093 0 0 .468.283.468.562 0 1.215.377.84.753-1.216 1.22-3.09.845-4.781.654-.561 0-1.122-.47-1.782-.47" fill="#02709f"/><path d="M28.033 29.852c.937 0 1.967.186 2.904-.092.47-.191.846-.845 1.314-1.036.654-.185 1.407-.278 2.06.098.093.093.192.278.377.37.845.099 1.69.192 2.343.753.469.469.093 1.221.185 1.783-.185 0-.468.376-.468.185-.278-.47-.37-1.03-.746-1.314-.562-.185-1.222-.278-1.783 0-.093 0 0 .468.283.468.562 0 1.215.377.84.753-1.216 1.221-3.09.845-4.781.654-.561 0-1.122-.47-1.782-.47" fill="none" stroke="#fff" stroke-width=".5"/><path d="M42.002 39.227c.47.093.746-.283 1.215-.376.377-.186.846 0 1.222-.092.746-.284 1.313-.845 2.06-1.13.191-1.214.191-2.528.468-3.75.093.099 1.563-.34 1.656-.34-.093-.284.191-.753-.093-.845-1.03-.377-3.438-.029-4.56.248-.092 0-.092-.092-.092-.185-.66 0-1.314-.092-1.876.283-.752.469-.376 1.406-.468 2.246-.192.469-.66.753-1.037.938-.277.191-.746.283-1.03.566" fill="#02709f"/><path d="M42.002 39.227c.47.093.746-.283 1.215-.376.377-.185.846 0 1.222-.092.746-.284 1.313-.845 2.06-1.13.191-1.214.191-2.528.468-3.75.093.1 1.563-.34 1.656-.34-.093-.284.191-.753-.093-.845-1.03-.377-3.438-.029-4.56.248-.092 0-.092-.092-.092-.185-.66 0-1.314-.092-1.876.284-.752.469-.376 1.406-.468 2.245-.192.469-.66.753-1.037.938-.277.191-.746.283-1.03.567" fill="none" stroke="#fff" stroke-width=".5"/><path d="M23.53 29.476c1.314 0 3.657-.186 4.41.377.561.56 1.122 2.436.561 3.187-.191.371-1.69.469-2.436.469" fill="#02709f"/><path d="M23.53 29.476c1.314 0 3.657-.185 4.41.377.561.56 1.122 2.436.561 3.188-.191.37-1.69.469-2.436.469" fill="none" stroke="#fff" stroke-width=".5"/><path d="M12.002 15.414c.746 0 1.875-.187 2.245.185 2.067 1.503 3.75 3.378 5.255 5.44.938 1.688 2.437 2.626 2.813 4.311.37 1.499.746 3.002 1.307 4.311 1.505 2.628 3.004 4.879 4.688 7.5.376.377 1.313.191 2.067.566.184.187.376.748.56.748 1.123 0 2.252.19 3.19-.185 1.683-.938 3.558-1.129 5.248-1.69.752 1.69 3.189 2.251 3.189 4.126-2.066 1.314-4.127 2.252-6.187 3.374-1.313.561-2.627 1.69-4.126 1.69-.937 0-5.248-1.69-5.44-1.314-.746 2.251 3.189 6.376 2.628 9-.753 2.812-1.129 5.248-1.69 8.06-.185.753-.561 1.504-.746 2.441a4.216 4.216 0 0 1-.938 1.5c-.752.562-1.505 1.5-2.251 1.684-.938.377-1.968.098-2.905.469-.568.191-1.221.284-1.782.469-.938.566-2.252.191-2.437-.372-.938-2.626-.192-5.625-1.129-8.25-1.875-5.25-3.451-9.825-6.938-15.753-.742-1.26-3.403-.777-4.312-2.246-2.958-4.8-.561-12.563 1.129-19.126.375-1.69 1.968-4.033 3.651-4.595.568-.376.753-.752 1.314-.937.753-.561.845-1.406 1.597-1.406" fill="#02709f"/><path d="M12.002 15.414c.746 0 1.875-.186 2.245.185 2.067 1.504 3.75 3.38 5.255 5.44.938 1.69 2.437 2.627 2.813 4.311.37 1.499.746 3.003 1.307 4.311 1.505 2.628 3.004 4.879 4.688 7.5.376.377 1.313.191 2.067.567.184.186.376.747.56.747 1.123 0 2.252.191 3.19-.185 1.683-.938 3.558-1.129 5.248-1.69.752 1.69 3.189 2.251 3.189 4.126-2.066 1.314-4.127 2.252-6.187 3.374-1.313.561-2.627 1.69-4.126 1.69-.937 0-5.248-1.69-5.44-1.314-.746 2.251 3.189 6.377 2.628 9-.753 2.812-1.129 5.248-1.69 8.06-.185.753-.561 1.505-.746 2.442a4.22 4.22 0 0 1-.938 1.5c-.752.56-1.505 1.498-2.251 1.683-.938.377-1.968.099-2.905.469-.568.191-1.221.284-1.782.469-.938.567-2.252.191-2.437-.37-.938-2.628-.192-5.626-1.129-8.253-1.875-5.249-3.451-9.824-6.938-15.752-.742-1.26-3.403-.777-4.312-2.245-2.958-4.8-.561-12.564 1.129-19.126.375-1.69 1.968-4.034 3.651-4.596.568-.376.753-.752 1.314-.937.753-.561.845-1.406 1.597-1.406z" fill="none" stroke="#fff" stroke-width=".5"/><path d="M8.721 64.817l8.715 3.282-.092-7.5c-6.47-16.684-7.5-16.592-7.5-16.592-2.159-1.22-2.72-1.313-2.72-1.313-3.09.19-4.78-3.467-4.78-3.467-1.03-.845-2.06.376-2.06.376L8.72 64.816" fill="#02709f"/><path d="M8.721 64.817l8.715 3.282-.092-7.5c-6.47-16.684-7.5-16.592-7.5-16.592-2.159-1.22-2.72-1.313-2.72-1.313-3.09.19-4.78-3.467-4.78-3.467-1.03-.845-2.06.377-2.06.377L8.72 64.816z" fill="none" stroke="#fff" stroke-width=".5"/></svg>