<svg xmlns="http://www.w3.org/2000/svg" viewBox="0 0 47.5 43.75" height="43.75" width="47.5"><path d="M.63 35.894H39.97v-7.388H.63v7.388z" fill="#026c9b"/><path d="M.63 35.893H39.97v-7.388H.63v7.388zM27.92 32.675h9.921M27.92 32.324h9.921" fill="none" stroke="#fff" stroke-width=".5"/><path d="M46.578 28.881v-6.606l-6.607 6.231v7.344l6.607-6.969" fill="#026c9b"/><path d="M46.578 28.881v-6.606l-6.607 6.23v7.344l6.607-6.968z" fill="none" stroke="#fff" stroke-width=".5"/><path d="M32.984 41.894v-1.655l3.574-4.947v3.028l-3.574 3.574" fill="#026c9b"/><path d="M32.984 41.894v-1.655l3.574-4.946v3.027l-3.574 3.574z" fill="none" stroke="#fff" stroke-width=".5"/><path d="M1.499 41.895h31.485v-1.631H1.499v1.631z" fill="#026c9b"/><path d="M1.499 41.896h31.485v-1.632H1.499v1.632z" fill="none" stroke="#fff" stroke-width=".5"/><path d="M32.984 40.264H1.499l3.642-4.972h31.417l-3.574 4.972" fill="#026c9b"/><path d="M32.984 40.264H1.499l3.642-4.971h31.417l-3.574 4.971z" fill="none" stroke="#fff" stroke-width=".5"/><path d="M46.578 22.275H7.22L.63 28.506H39.97l6.607-6.231" fill="#026c9b"/><path d="M46.578 22.275H7.22L.63 28.505H39.97l6.607-6.23z" fill="none" stroke="#fff" stroke-width=".5"/><path d="M7.666 24.849H34.81V4.956H7.666v19.893z" fill="#026c9b"/><path d="M7.666 24.848H34.81V4.955H7.666v19.893z" fill="none" stroke="#fff" stroke-width=".5"/><path d="M9.956 9.316c0-1.992 2.07-2.29 2.07-2.29h17.887c2.513 0 2.44 2.364 2.44 2.364v11.161c0 1.407-1.923 1.998-1.923 1.998H12.32c-1.772 0-2.363-1.852-2.363-1.852V9.317" fill="#026c9b"/><path d="M9.956 9.316c0-1.992 2.07-2.29 2.07-2.29h17.887c2.513 0 2.44 2.363 2.44 2.363v11.163c0 1.406-1.923 1.997-1.923 1.997H12.32c-1.772 0-2.363-1.851-2.363-1.851V9.316z" fill="none" stroke="#fff" stroke-width=".5"/><path d="M39.336.669H12.212L7.666 4.956H34.81L39.336.669" fill="#026c9b"/><path d="M39.336.669H12.212L7.666 4.955H34.81L39.336.67z" fill="none" stroke="#fff" stroke-width=".5"/><path d="M39.336 20.615V.66L34.81 4.92V24.85l4.526-4.234" fill="#026c9b"/><path d="M39.336 20.615V.66L34.81 4.921v19.927l4.526-4.233z" fill="none" stroke="#fff" stroke-width=".5"/><path d="M20.645 15.229v3.639h-1.777l2.548 2.938 2.631-2.938h-1.933v-3.64h-1.469"/><path d="M20.112 15.195v3.637h-1.777l2.554 2.94 2.626-2.94h-1.932v-3.637h-1.47" fill="#fff"/><path d="M20.645 14.237V10.6h-1.777l2.548-2.939 2.631 2.94h-1.933v3.636h-1.469"/><path d="M20.112 14.268v-3.633h-1.777l2.554-2.94 2.626 2.94h-1.932v3.633h-1.47" fill="#fff"/><path d="M29.746 16.069H26.11v1.782l-2.94-2.554 2.94-2.631V14.6h3.637v1.469"/><path d="M29.336 15.561H25.7v1.783l-2.94-2.554 2.94-2.632v1.933h3.637v1.47" fill="#fff"/><path d="M12.803 16.069h3.637v1.782l2.935-2.554-2.935-2.631V14.6h-3.637v1.469"/><path d="M12.661 15.561h3.633v1.783l2.94-2.554-2.94-2.632v1.933h-3.633v1.47" fill="#fff"/></svg>