<?xml version="1.0" encoding="UTF-8" standalone="no"?>
<svg
   xmlns:dc="http://purl.org/dc/elements/1.1/"
   xmlns:cc="http://creativecommons.org/ns#"
   xmlns:rdf="http://www.w3.org/1999/02/22-rdf-syntax-ns#"
   xmlns:svg="http://www.w3.org/2000/svg"
   xmlns="http://www.w3.org/2000/svg"
   xmlns:sodipodi="http://sodipodi.sourceforge.net/DTD/sodipodi-0.dtd"
   xmlns:inkscape="http://www.inkscape.org/namespaces/inkscape"
   viewBox="0 0 47.205021 42.417179"
   height="42.417179"
   width="47.205021"
   xml:space="preserve"
   version="1.1"
   id="svg2"
   inkscape:version="0.91 r13725"
   sodipodi:docname="pcroutercard.svg"><sodipodi:namedview
     pagecolor="#ffffff"
     bordercolor="#666666"
     borderopacity="1"
     objecttolerance="10"
     gridtolerance="10"
     guidetolerance="10"
     inkscape:pageopacity="0"
     inkscape:pageshadow="2"
     inkscape:window-width="448"
     inkscape:window-height="438"
     id="namedview39"
     showgrid="false"
     inkscape:zoom="5.5643975"
     inkscape:cx="23.599791"
     inkscape:cy="21.206832"
     inkscape:window-x="0"
     inkscape:window-y="23"
     inkscape:window-maximized="0"
     inkscape:current-layer="svg2" /><metadata
     id="metadata8"><rdf:RDF><cc:Work
         rdf:about=""><dc:format>image/svg+xml</dc:format><dc:type
           rdf:resource="http://purl.org/dc/dcmitype/StillImage" /></cc:Work></rdf:RDF></metadata><defs
     id="defs6" /><g
     transform="matrix(1.25,0,0,-1.25,-2.096471e-4,42.4166)"
     id="g10"><g
       transform="scale(0.1,0.1)"
       id="g12"><path
         id="path14"
         style="fill:#026c9b;fill-opacity:1;fill-rule:nonzero;stroke:none"
         d="m 5.03125,52.8438 314.727,0 0,59.125 -314.727,0 0,-59.125 z"
         inkscape:connector-curvature="0" /><path
         id="path16"
         style="fill:none;stroke:#ffffff;stroke-width:4;stroke-linecap:butt;stroke-linejoin:miter;stroke-miterlimit:4;stroke-dasharray:none;stroke-opacity:1"
         d="m 5.03125,52.8438 314.727,0 0,59.125 -314.727,0 0,-59.125 z"
         inkscape:connector-curvature="0" /><path
         id="path18"
         style="fill:#000000;fill-opacity:1;fill-rule:nonzero;stroke:none"
         d="m 223.367,78.5742 79.387,0"
         inkscape:connector-curvature="0" /><path
         id="path20"
         style="fill:none;stroke:#ffffff;stroke-width:4;stroke-linecap:butt;stroke-linejoin:miter;stroke-miterlimit:4;stroke-dasharray:none;stroke-opacity:1"
         d="m 223.367,78.5742 79.387,0"
         inkscape:connector-curvature="0" /><path
         id="path22"
         style="fill:#026c9b;fill-opacity:1;fill-rule:nonzero;stroke:none"
         d="m 223.367,81.4102 79.387,0"
         inkscape:connector-curvature="0" /><path
         id="path24"
         style="fill:none;stroke:#ffffff;stroke-width:4;stroke-linecap:butt;stroke-linejoin:miter;stroke-miterlimit:4;stroke-dasharray:none;stroke-opacity:1"
         d="m 223.367,81.4102 79.387,0"
         inkscape:connector-curvature="0" /><path
         id="path26"
         style="fill:#026c9b;fill-opacity:1;fill-rule:nonzero;stroke:none"
         d="m 372.605,108.945 0,52.848 -52.847,-49.824 0,-58.7776 52.847,55.7536"
         inkscape:connector-curvature="0" /><path
         id="path28"
         style="fill:none;stroke:#ffffff;stroke-width:4;stroke-linecap:butt;stroke-linejoin:miter;stroke-miterlimit:4;stroke-dasharray:none;stroke-opacity:1"
         d="m 372.605,108.945 0,52.848 -52.847,-49.824 0,-58.7776 52.847,55.7536 z"
         inkscape:connector-curvature="0" /><path
         id="path30"
         style="fill:#026c9b;fill-opacity:1;fill-rule:nonzero;stroke:none"
         d="m 263.867,4.82422 0,13.26168 28.594,39.5586 0,-24.2226 -28.594,-28.59768"
         inkscape:connector-curvature="0" /><path
         id="path32"
         style="fill:none;stroke:#ffffff;stroke-width:4;stroke-linecap:butt;stroke-linejoin:miter;stroke-miterlimit:4;stroke-dasharray:none;stroke-opacity:1"
         d="m 263.867,4.82422 0,13.26168 28.594,39.5586 0,-24.2226 -28.594,-28.59768 z"
         inkscape:connector-curvature="0" /><path
         id="path34"
         style="fill:#026c9b;fill-opacity:1;fill-rule:nonzero;stroke:none"
         d="m 12.0039,4.82422 251.863,0 0,13.0586 -251.863,0 0,-13.0586 z"
         inkscape:connector-curvature="0" /><path
         id="path36"
         style="fill:none;stroke:#ffffff;stroke-width:4;stroke-linecap:butt;stroke-linejoin:miter;stroke-miterlimit:4;stroke-dasharray:none;stroke-opacity:1"
         d="m 12.0039,4.82422 251.863,0 0,13.0586 -251.863,0 0,-13.0586 z"
         inkscape:connector-curvature="0" /><path
         id="path38"
         style="fill:#026c9b;fill-opacity:1;fill-rule:nonzero;stroke:none"
         d="m 263.867,17.8828 -251.8631,0 29.1406,39.7617 251.3165,0 -28.594,-39.7617"
         inkscape:connector-curvature="0" /><path
         id="path40"
         style="fill:none;stroke:#ffffff;stroke-width:4;stroke-linecap:butt;stroke-linejoin:miter;stroke-miterlimit:4;stroke-dasharray:none;stroke-opacity:1"
         d="m 263.867,17.8828 -251.8631,0 29.1406,39.7617 251.3165,0 -28.594,-39.7617 z"
         inkscape:connector-curvature="0" /><path
         id="path42"
         style="fill:#026c9b;fill-opacity:1;fill-rule:nonzero;stroke:none"
         d="m 372.605,161.793 -314.8316,0 -52.74215,-49.824 314.72675,0 52.847,49.824"
         inkscape:connector-curvature="0" /><path
         id="path44"
         style="fill:none;stroke:#ffffff;stroke-width:4;stroke-linecap:butt;stroke-linejoin:miter;stroke-miterlimit:4;stroke-dasharray:none;stroke-opacity:1"
         d="m 372.605,161.793 -314.8316,0 -52.74215,-49.824 314.72675,0 52.847,49.824 z"
         inkscape:connector-curvature="0" /><path
         id="path46"
         style="fill:#026c9b;fill-opacity:1;fill-rule:nonzero;stroke:none"
         d="m 61.3281,141.191 217.148,0 0,159.148 -217.148,0 0,-159.148 z"
         inkscape:connector-curvature="0" /><path
         id="path48"
         style="fill:none;stroke:#ffffff;stroke-width:4;stroke-linecap:butt;stroke-linejoin:miter;stroke-miterlimit:4;stroke-dasharray:none;stroke-opacity:1"
         d="m 61.3281,141.191 217.148,0 0,159.148 -217.148,0 0,-159.148 z"
         inkscape:connector-curvature="0" /><path
         id="path50"
         style="fill:#026c9b;fill-opacity:1;fill-rule:nonzero;stroke:none"
         d="m 79.6563,265.453 c 0,15.969 16.5546,18.332 16.5546,18.332 0,0 127.7271,0 143.0981,0 20.105,0 19.507,-18.922 19.507,-18.922 0,0 0,-78.05 0,-89.289 0,-11.234 -15.371,-15.965 -15.371,-15.965 0,0 -130.672,0 -144.8708,0 -14.1875,0 -18.9179,14.786 -18.9179,14.786 l 0,91.058"
         inkscape:connector-curvature="0" /><path
         id="path52"
         style="fill:none;stroke:#ffffff;stroke-width:4;stroke-linecap:butt;stroke-linejoin:miter;stroke-miterlimit:4;stroke-dasharray:none;stroke-opacity:1"
         d="m 79.6563,265.453 c 0,15.969 16.5546,18.332 16.5546,18.332 0,0 127.7271,0 143.0981,0 20.105,0 19.507,-18.922 19.507,-18.922 0,0 0,-78.05 0,-89.289 0,-11.234 -15.371,-15.965 -15.371,-15.965 0,0 -130.672,0 -144.8708,0 -14.1875,0 -18.9179,14.786 -18.9179,14.786 l 0,91.058 z"
         inkscape:connector-curvature="0" /><path
         id="path54"
         style="fill:#026c9b;fill-opacity:1;fill-rule:nonzero;stroke:none"
         d="m 314.695,334.637 -217.0114,0 -36.3555,-34.297 217.1489,0 36.218,34.297"
         inkscape:connector-curvature="0" /><path
         id="path56"
         style="fill:none;stroke:#ffffff;stroke-width:4;stroke-linecap:butt;stroke-linejoin:miter;stroke-miterlimit:4;stroke-dasharray:none;stroke-opacity:1"
         d="m 314.695,334.637 -217.0114,0 -36.3555,-34.297 217.1489,0 36.218,34.297 z"
         inkscape:connector-curvature="0" /><path
         id="path58"
         style="fill:#026c9b;fill-opacity:1;fill-rule:nonzero;stroke:none"
         d="m 314.707,175.078 0,159.629 -36.23,-34.066 0,-159.45 36.23,33.887"
         inkscape:connector-curvature="0" /><path
         id="path60"
         style="fill:none;stroke:#ffffff;stroke-width:4;stroke-linecap:butt;stroke-linejoin:miter;stroke-miterlimit:4;stroke-dasharray:none;stroke-opacity:1"
         d="m 314.707,175.078 0,159.629 -36.23,-34.066 0,-159.45 36.23,33.887 z"
         inkscape:connector-curvature="0" /><path
         id="path62"
         style="fill:#000000;fill-opacity:1;fill-rule:nonzero;stroke:none"
         d="m 165.164,218.152 0,-29.082 -14.234,0 20.418,-23.507 21.035,23.507 -15.469,0 0,29.082 -11.75,0"
         inkscape:connector-curvature="0" /><path
         id="path64"
         style="fill:#ffffff;fill-opacity:1;fill-rule:nonzero;stroke:none"
         d="m 160.918,218.418 0,-29.082 -14.23,0 20.421,-23.512 21.036,23.512 -15.469,0 0,29.082 -11.758,0"
         inkscape:connector-curvature="0" /><path
         id="path66"
         style="fill:#000000;fill-opacity:1;fill-rule:nonzero;stroke:none"
         d="m 165.164,226.109 0,29.082 -14.234,0 20.418,23.508 21.035,-23.508 -15.469,0 0,-29.082 -11.75,0"
         inkscape:connector-curvature="0" /><path
         id="path68"
         style="fill:#ffffff;fill-opacity:1;fill-rule:nonzero;stroke:none"
         d="m 160.918,225.844 0,29.082 -14.23,0 20.421,23.512 21.036,-23.512 -15.469,0 0,-29.082 -11.758,0"
         inkscape:connector-curvature="0" /><path
         id="path70"
         style="fill:#000000;fill-opacity:1;fill-rule:nonzero;stroke:none"
         d="m 237.961,211.43 -29.082,0 0,-14.227 -23.52,20.414 23.52,21.039 0,-15.468 29.082,0 0,-11.758"
         inkscape:connector-curvature="0" /><path
         id="path72"
         style="fill:#ffffff;fill-opacity:1;fill-rule:nonzero;stroke:none"
         d="m 234.688,215.496 -29.083,0 0,-14.23 -23.515,20.418 23.515,21.043 0,-15.469 29.083,0 0,-11.762"
         inkscape:connector-curvature="0" /><path
         id="path74"
         style="fill:#000000;fill-opacity:1;fill-rule:nonzero;stroke:none"
         d="m 102.434,211.43 29.082,0 0,-14.227 23.504,20.414 -23.504,21.039 0,-15.468 -29.082,0 0,-11.758"
         inkscape:connector-curvature="0" /><path
         id="path76"
         style="fill:#ffffff;fill-opacity:1;fill-rule:nonzero;stroke:none"
         d="m 101.277,215.496 29.082,0 0,-14.23 23.52,20.418 -23.52,21.043 0,-15.469 -29.082,0 0,-11.762"
         inkscape:connector-curvature="0" /></g></g></svg>