<?xml version="1.0" encoding="UTF-8" standalone="no"?>
<svg
   xmlns:dc="http://purl.org/dc/elements/1.1/"
   xmlns:cc="http://creativecommons.org/ns#"
   xmlns:rdf="http://www.w3.org/1999/02/22-rdf-syntax-ns#"
   xmlns:svg="http://www.w3.org/2000/svg"
   xmlns="http://www.w3.org/2000/svg"
   viewBox="0 0 47.5 43.75"
   height="43.75"
   width="47.5"
   xml:space="preserve"
   version="1.1"
   id="svg2"><metadata
     id="metadata8"><rdf:RDF><cc:Work
         rdf:about=""><dc:format>image/svg+xml</dc:format><dc:type
           rdf:resource="http://purl.org/dc/dcmitype/StillImage" /></cc:Work></rdf:RDF></metadata><defs
     id="defs6" /><g
     transform="matrix(1.25,0,0,-1.25,0,43.75)"
     id="g10"><g
       transform="scale(0.1,0.1)"
       id="g12"><path
         id="path14"
         style="fill:#026c9b;fill-opacity:1;fill-rule:nonzero;stroke:none"
         d="m 5.03906,62.8516 314.73,0 0,59.0977 -314.73,0 0,-59.0977 z" /><path
         id="path16"
         style="fill:none;stroke:#ffffff;stroke-width:4;stroke-linecap:butt;stroke-linejoin:miter;stroke-miterlimit:4;stroke-dasharray:none;stroke-opacity:1"
         d="m 5.03906,62.8594 314.73,0 0,59.0977 -314.73,0 0,-59.0977 z" /><path
         id="path18"
         style="fill:none;stroke:#ffffff;stroke-width:4;stroke-linecap:butt;stroke-linejoin:miter;stroke-miterlimit:4;stroke-dasharray:none;stroke-opacity:1"
         d="m 223.359,88.5977 79.371,0" /><path
         id="path20"
         style="fill:none;stroke:#ffffff;stroke-width:4;stroke-linecap:butt;stroke-linejoin:miter;stroke-miterlimit:4;stroke-dasharray:none;stroke-opacity:1"
         d="m 223.359,91.4063 79.371,0" /><path
         id="path22"
         style="fill:#026c9b;fill-opacity:1;fill-rule:nonzero;stroke:none"
         d="m 372.621,118.949 0,52.852 -52.851,-49.852 0,-58.7498 52.851,55.7498" /><path
         id="path24"
         style="fill:none;stroke:#ffffff;stroke-width:4;stroke-linecap:butt;stroke-linejoin:miter;stroke-miterlimit:4;stroke-dasharray:none;stroke-opacity:1"
         d="m 372.621,118.949 0,52.848 -52.851,-49.84 0,-58.75 52.851,55.742 z" /><path
         id="path26"
         style="fill:#026c9b;fill-opacity:1;fill-rule:nonzero;stroke:none"
         d="m 263.871,14.8516 0,13.2382 28.59,39.5704 0,-24.2188 -28.59,-28.5898" /><path
         id="path28"
         style="fill:none;stroke:#ffffff;stroke-width:4;stroke-linecap:butt;stroke-linejoin:miter;stroke-miterlimit:4;stroke-dasharray:none;stroke-opacity:1"
         d="m 263.871,14.8477 0,13.2382 28.59,39.5704 0,-24.2188 -28.59,-28.5898 z" /><path
         id="path30"
         style="fill:#026c9b;fill-opacity:1;fill-rule:nonzero;stroke:none"
         d="m 11.9883,14.8398 251.883,0 0,13.0508 -251.883,0 0,-13.0508 z" /><path
         id="path32"
         style="fill:none;stroke:#ffffff;stroke-width:4;stroke-linecap:butt;stroke-linejoin:miter;stroke-miterlimit:4;stroke-dasharray:none;stroke-opacity:1"
         d="m 11.9883,14.8359 251.883,0 0,13.0508 -251.883,0 0,-13.0508 z" /><path
         id="path34"
         style="fill:#026c9b;fill-opacity:1;fill-rule:nonzero;stroke:none"
         d="m 263.871,27.8906 -251.8827,0 29.1406,39.7696 251.3321,0 -28.59,-39.7696" /><path
         id="path36"
         style="fill:none;stroke:#ffffff;stroke-width:4;stroke-linecap:butt;stroke-linejoin:miter;stroke-miterlimit:4;stroke-dasharray:none;stroke-opacity:1"
         d="m 263.871,27.8867 -251.8827,0 29.1406,39.7696 251.3321,0 -28.59,-39.7696 z" /><path
         id="path38"
         style="fill:#026c9b;fill-opacity:1;fill-rule:nonzero;stroke:none"
         d="m 372.621,171.801 -314.8515,0 -52.73044,-49.852 314.73094,0 52.851,49.852" /><path
         id="path40"
         style="fill:none;stroke:#ffffff;stroke-width:4;stroke-linecap:butt;stroke-linejoin:miter;stroke-miterlimit:4;stroke-dasharray:none;stroke-opacity:1"
         d="m 372.621,171.797 -314.8515,0 -52.73044,-49.84 314.73094,0 52.851,49.84 z" /><path
         id="path42"
         style="fill:#026c9b;fill-opacity:1;fill-rule:nonzero;stroke:none"
         d="m 61.3281,151.211 217.152,0 0,159.141 -217.152,0 0,-159.141 z" /><path
         id="path44"
         style="fill:none;stroke:#ffffff;stroke-width:4;stroke-linecap:butt;stroke-linejoin:miter;stroke-miterlimit:4;stroke-dasharray:none;stroke-opacity:1"
         d="m 61.3281,151.219 217.152,0 0,159.141 -217.152,0 0,-159.141 z" /><path
         id="path46"
         style="fill:#026c9b;fill-opacity:1;fill-rule:nonzero;stroke:none"
         d="m 79.6484,275.469 c 0,15.941 16.5625,18.32 16.5625,18.32 l 143.0901,0 c 20.109,0 19.527,-18.91 19.527,-18.91 l 0,-89.289 c 0,-11.25 -15.387,-15.981 -15.387,-15.981 l -144.8902,0 c -14.1719,0 -18.9024,14.813 -18.9024,14.813 l 0,91.047" /><path
         id="path48"
         style="fill:none;stroke:#ffffff;stroke-width:4;stroke-linecap:butt;stroke-linejoin:miter;stroke-miterlimit:4;stroke-dasharray:none;stroke-opacity:1"
         d="m 79.6484,275.469 c 0,15.937 16.5625,18.32 16.5625,18.32 l 143.0901,0 c 20.109,0 19.527,-18.902 19.527,-18.902 l 0,-89.301 c 0,-11.25 -15.387,-15.977 -15.387,-15.977 l -144.8902,0 c -14.1719,0 -18.9024,14.809 -18.9024,14.809 l 0,91.051 z" /><path
         id="path50"
         style="fill:#026c9b;fill-opacity:1;fill-rule:nonzero;stroke:none"
         d="m 314.691,344.648 -216.9918,0 -36.3711,-34.296 217.1519,0 36.211,34.296" /><path
         id="path52"
         style="fill:none;stroke:#ffffff;stroke-width:4;stroke-linecap:butt;stroke-linejoin:miter;stroke-miterlimit:4;stroke-dasharray:none;stroke-opacity:1"
         d="m 314.691,344.648 -216.9918,0 -36.3711,-34.289 217.1519,0 36.211,34.289 z" /><path
         id="path54"
         style="fill:#026c9b;fill-opacity:1;fill-rule:nonzero;stroke:none"
         d="m 314.691,185.078 0,159.652 -36.211,-34.101 0,-159.418 36.211,33.867" /><path
         id="path56"
         style="fill:none;stroke:#ffffff;stroke-width:4;stroke-linecap:butt;stroke-linejoin:miter;stroke-miterlimit:4;stroke-dasharray:none;stroke-opacity:1"
         d="m 314.691,185.078 0,159.649 -36.211,-34.098 0,-159.41 36.211,33.859 z" /><path
         id="path58"
         style="fill:#000000;fill-opacity:1;fill-rule:nonzero;stroke:none"
         d="m 165.16,228.172 0,-29.113 -14.219,0 20.387,-23.508 21.051,23.508 -15.469,0 0,29.113 -11.75,0" /><path
         id="path60"
         style="fill:#ffffff;fill-opacity:1;fill-rule:nonzero;stroke:none"
         d="m 160.898,228.441 0,-29.101 -14.218,0 20.429,-23.52 21.012,23.52 -15.461,0 0,29.101 -11.762,0" /><path
         id="path62"
         style="fill:#000000;fill-opacity:1;fill-rule:nonzero;stroke:none"
         d="m 165.16,236.102 0,29.097 -14.219,0 20.387,23.512 21.051,-23.512 -15.469,0 0,-29.097 -11.75,0" /><path
         id="path64"
         style="fill:#ffffff;fill-opacity:1;fill-rule:nonzero;stroke:none"
         d="m 160.898,235.859 0,29.063 -14.218,0 20.429,23.519 21.012,-23.519 -15.461,0 0,-29.063 -11.762,0" /><path
         id="path66"
         style="fill:#000000;fill-opacity:1;fill-rule:nonzero;stroke:none"
         d="m 237.969,221.449 -29.098,0 0,-14.258 -23.519,20.43 23.519,21.051 0,-15.473 29.098,0 0,-11.75" /><path
         id="path68"
         style="fill:#ffffff;fill-opacity:1;fill-rule:nonzero;stroke:none"
         d="m 234.691,225.512 -29.101,0 0,-14.262 -23.52,20.43 23.52,21.058 0,-15.468 29.101,0 0,-11.758" /><path
         id="path70"
         style="fill:#000000;fill-opacity:1;fill-rule:nonzero;stroke:none"
         d="m 102.422,221.449 29.098,0 0,-14.258 23.48,20.43 -23.48,21.051 0,-15.473 -29.098,0 0,-11.75" /><path
         id="path72"
         style="fill:#ffffff;fill-opacity:1;fill-rule:nonzero;stroke:none"
         d="m 101.289,225.512 29.063,0 0,-14.262 23.519,20.43 -23.519,21.058 0,-15.468 -29.063,0 0,-11.758" /></g></g></svg>