<?xml version="1.0" encoding="UTF-8" standalone="no"?>
<svg
   xmlns:dc="http://purl.org/dc/elements/1.1/"
   xmlns:cc="http://creativecommons.org/ns#"
   xmlns:rdf="http://www.w3.org/1999/02/22-rdf-syntax-ns#"
   xmlns:svg="http://www.w3.org/2000/svg"
   xmlns="http://www.w3.org/2000/svg"
   viewBox="0 0 55 53.75"
   height="53.75"
   width="55"
   xml:space="preserve"
   version="1.1"
   id="svg2"><metadata
     id="metadata8"><rdf:RDF><cc:Work
         rdf:about=""><dc:format>image/svg+xml</dc:format><dc:type
           rdf:resource="http://purl.org/dc/dcmitype/StillImage" /></cc:Work></rdf:RDF></metadata><defs
     id="defs6" /><g
     transform="matrix(1.25,0,0,-1.25,0,53.75)"
     id="g10"><g
       transform="scale(0.1,0.1)"
       id="g12"><path
         id="path14"
         style="fill:#02709f;fill-opacity:1;fill-rule:nonzero;stroke:none"
         d="m 65.2305,62.9805 314.77,0 0,59.0195 -314.77,0 0,-59.0195 z" /><path
         id="path16"
         style="fill:none;stroke:#ffffff;stroke-width:3.99993992;stroke-linecap:butt;stroke-linejoin:miter;stroke-miterlimit:4;stroke-dasharray:none;stroke-opacity:1"
         d="m 65.2305,62.9805 314.77,0 0,59.0195 -314.77,0 0,-59.0195 z" /><path
         id="path18"
         style="fill:none;stroke:#ffffff;stroke-width:3.99993992;stroke-linecap:butt;stroke-linejoin:miter;stroke-miterlimit:4;stroke-dasharray:none;stroke-opacity:1"
         d="m 283.59,88.5586 79.379,0" /><path
         id="path20"
         style="fill:none;stroke:#ffffff;stroke-width:3.99993992;stroke-linecap:butt;stroke-linejoin:miter;stroke-miterlimit:4;stroke-dasharray:none;stroke-opacity:1"
         d="m 283.59,91.4102 79.379,0" /><path
         id="path22"
         style="fill:#02709f;fill-opacity:1;fill-rule:nonzero;stroke:none"
         d="m 432.809,118.949 0,52.93 -52.848,-50.117 0,-58.7932 52.848,55.9802" /><path
         id="path24"
         style="fill:none;stroke:#ffffff;stroke-width:3.99993992;stroke-linecap:butt;stroke-linejoin:miter;stroke-miterlimit:4;stroke-dasharray:none;stroke-opacity:1"
         d="m 432.809,118.949 0,52.93 -52.848,-50.117 0,-58.7932 52.848,55.9802 z" /><path
         id="path26"
         style="fill:#02709f;fill-opacity:1;fill-rule:nonzero;stroke:none"
         d="m 324.059,14.8086 0,13.2812 28.64,39.5704 0,-24.2188 -28.64,-28.6328" /><path
         id="path28"
         style="fill:none;stroke:#ffffff;stroke-width:3.99993992;stroke-linecap:butt;stroke-linejoin:miter;stroke-miterlimit:4;stroke-dasharray:none;stroke-opacity:1"
         d="m 324.059,14.8086 0,13.2812 28.64,39.5704 0,-24.2188 -28.64,-28.6328 z" /><path
         id="path30"
         style="fill:#02709f;fill-opacity:1;fill-rule:nonzero;stroke:none"
         d="m 71.9492,14.8008 252.109,0 0,13.0898 -252.109,0 0,-13.0898 z" /><path
         id="path32"
         style="fill:none;stroke:#ffffff;stroke-width:3.99993992;stroke-linecap:butt;stroke-linejoin:miter;stroke-miterlimit:4;stroke-dasharray:none;stroke-opacity:1"
         d="m 71.9492,14.8008 252.109,0 0,13.0898 -252.109,0 0,-13.0898 z" /><path
         id="path34"
         style="fill:#02709f;fill-opacity:1;fill-rule:nonzero;stroke:none"
         d="m 324.059,27.8906 -251.3285,0 28.5975,39.7696 251.371,0 -28.64,-39.7696" /><path
         id="path36"
         style="fill:none;stroke:#ffffff;stroke-width:3.99993992;stroke-linecap:butt;stroke-linejoin:miter;stroke-miterlimit:4;stroke-dasharray:none;stroke-opacity:1"
         d="m 324.059,27.8906 -251.3285,0 28.5975,39.7696 251.371,0 -28.64,-39.7696 z" /><path
         id="path38"
         style="fill:#02709f;fill-opacity:1;fill-rule:nonzero;stroke:none"
         d="m 432.809,171.762 -314.84,0 L 65.2305,122 380,122 l 52.809,49.762" /><path
         id="path40"
         style="fill:none;stroke:#ffffff;stroke-width:3.99993992;stroke-linecap:butt;stroke-linejoin:miter;stroke-miterlimit:4;stroke-dasharray:none;stroke-opacity:1"
         d="m 432.809,171.762 -314.84,0 L 65.2305,122 380,122 l 52.809,49.762 z" /><path
         id="path42"
         style="fill:#02709f;fill-opacity:1;fill-rule:nonzero;stroke:none"
         d="m 373.52,171.57 -210.711,0 -35.309,-33.32 210.699,0 35.321,33.32" /><path
         id="path44"
         style="fill:none;stroke:#ffffff;stroke-width:3.99993992;stroke-linecap:butt;stroke-linejoin:miter;stroke-miterlimit:4;stroke-dasharray:none;stroke-opacity:1"
         d="m 373.52,171.57 -210.711,0 -35.309,-33.32 210.699,0 35.321,33.32 z" /><path
         id="path46"
         style="fill:#02709f;fill-opacity:1;fill-rule:nonzero;stroke:none"
         d="m 121.52,151.301 217.031,0 0,159.059 -217.031,0 0,-159.059 z" /><path
         id="path48"
         style="fill:none;stroke:#ffffff;stroke-width:3.99993992;stroke-linecap:butt;stroke-linejoin:miter;stroke-miterlimit:4;stroke-dasharray:none;stroke-opacity:1"
         d="m 121.52,151.301 217.031,0 0,159.059 -217.031,0 0,-159.059 z" /><path
         id="path50"
         style="fill:#02709f;fill-opacity:1;fill-rule:nonzero;stroke:none"
         d="m 139.84,275.43 c 0,15.98 16.57,18.359 16.57,18.359 l 143.121,0 c 20.078,0 19.489,-18.937 19.489,-18.937 l 0,-89.262 c 0,-11.25 -15.348,-15.981 -15.348,-15.981 l -144.883,0 c -14.18,0 -18.949,14.77 -18.949,14.77 l 0,91.051" /><path
         id="path52"
         style="fill:none;stroke:#ffffff;stroke-width:3.99993992;stroke-linecap:butt;stroke-linejoin:miter;stroke-miterlimit:4;stroke-dasharray:none;stroke-opacity:1"
         d="m 139.84,275.43 c 0,15.98 16.57,18.359 16.57,18.359 l 143.121,0 c 20.078,0 19.489,-18.937 19.489,-18.937 l 0,-89.262 c 0,-11.25 -15.348,-15.981 -15.348,-15.981 l -144.883,0 c -14.18,0 -18.949,14.77 -18.949,14.77 l 0,91.051 z" /><path
         id="path54"
         style="fill:#02709f;fill-opacity:1;fill-rule:nonzero;stroke:none"
         d="m 374.922,344.648 -217.031,0 -36.371,-34.289 217.031,0 36.371,34.289" /><path
         id="path56"
         style="fill:none;stroke:#ffffff;stroke-width:3.99993992;stroke-linecap:butt;stroke-linejoin:miter;stroke-miterlimit:4;stroke-dasharray:none;stroke-opacity:1"
         d="m 374.922,344.648 -217.031,0 -36.371,-34.289 217.031,0 36.371,34.289 z" /><path
         id="path58"
         style="fill:#02709f;fill-opacity:1;fill-rule:nonzero;stroke:none"
         d="m 374.922,185.078 0,159.613 -36.012,-34.062 0,-159.609 36.012,34.058" /><path
         id="path60"
         style="fill:none;stroke:#ffffff;stroke-width:3.99993992;stroke-linecap:butt;stroke-linejoin:miter;stroke-miterlimit:4;stroke-dasharray:none;stroke-opacity:1"
         d="m 374.922,185.078 0,159.613 -36.012,-34.062 0,-159.609 36.012,34.058 z" /><path
         id="path62"
         style="fill:#000000;fill-opacity:1;fill-rule:nonzero;stroke:none"
         d="m 201.641,421.141 -5,-2.969 -194.65272,0 4.96094,3.078 194.69178,-0.109" /><path
         id="path64"
         style="fill:#02709f;fill-opacity:1;fill-rule:nonzero;stroke:none"
         d="m 201.68,228.172 -0.039,192.969 -5,-3.789 0,-193.832 5.039,4.652" /><path
         id="path66"
         style="fill:none;stroke:#ffffff;stroke-width:3.99993992;stroke-linecap:butt;stroke-linejoin:miter;stroke-miterlimit:4;stroke-dasharray:none;stroke-opacity:1"
         d="m 201.68,228.168 -0.039,192.973 -5,-3.789 0,-193.832 5.039,4.648 z" /><path
         id="path68"
         style="fill:#02709f;fill-opacity:1;fill-rule:nonzero;stroke:none"
         d="m 10.8594,223.52 185.7816,0 0,194.652 -194.65272,0 0,-185.781 8.87112,-8.871" /><path
         id="path70"
         style="fill:none;stroke:#ffffff;stroke-width:3.99993992;stroke-linecap:butt;stroke-linejoin:miter;stroke-miterlimit:4;stroke-dasharray:none;stroke-opacity:1"
         d="m 10.8594,223.52 185.7816,0 0,194.648 -194.65272,0 0,-185.777 8.87112,-8.871 z" /><path
         id="path72"
         style="fill:#02709f;fill-opacity:1;fill-rule:nonzero;stroke:none"
         d="m 181.879,418.172 0,-112.274 c 0,-8.16 -6.609,-6.636 -6.609,-6.636 l -152.6489,0 c 0,0 -5.8594,-0.742 -5.8594,5.898 l 0,113.012" /><path
         id="path74"
         style="fill:none;stroke:#ffffff;stroke-width:3.99993992;stroke-linecap:butt;stroke-linejoin:miter;stroke-miterlimit:4;stroke-dasharray:none;stroke-opacity:1"
         d="m 181.879,418.168 0,-112.27 c 0,-8.16 -6.609,-6.636 -6.609,-6.636 l -152.6489,0 c 0,0 -5.8594,-0.742 -5.8594,5.898 l 0,113.008" /><path
         id="path76"
         style="fill:none;stroke:#ffffff;stroke-width:3.99993992;stroke-linecap:butt;stroke-linejoin:miter;stroke-miterlimit:4;stroke-dasharray:none;stroke-opacity:1"
         d="m 5,398.238 8.82813,0 0,8.87109 -8.82813,0 0,-8.87109 z" /><path
         id="path78"
         style="fill:none;stroke:#ffffff;stroke-width:3.99993992;stroke-linecap:butt;stroke-linejoin:miter;stroke-miterlimit:4;stroke-dasharray:none;stroke-opacity:1"
         d="m 184.879,398.238 8.87109,0 0,8.87109 -8.87109,0 0,-8.87109 z" /><path
         id="path80"
         style="fill:#ffffff;fill-opacity:1;fill-rule:nonzero;stroke:none"
         d="m 150.391,280.281 0,-54.652 -115.7426,0 0,55.391 c 0,5.902 6.6407,5.16 6.6407,5.16 l 103.1989,0 c 6.641,0 5.903,-5.899 5.903,-5.899" /><path
         id="path82"
         style="fill:none;stroke:#000000;stroke-width:3.99993992;stroke-linecap:butt;stroke-linejoin:miter;stroke-miterlimit:4;stroke-dasharray:none;stroke-opacity:1"
         d="m 150.391,280.281 0,-54.652 -115.7426,0 0,55.391 c 0,5.898 6.6407,5.16 6.6407,5.16 l 103.1989,0 c 6.641,0 5.903,-5.899 5.903,-5.899 z" /><path
         id="path84"
         style="fill:none;stroke:#ffffff;stroke-width:3.99993992;stroke-linecap:butt;stroke-linejoin:miter;stroke-miterlimit:4;stroke-dasharray:none;stroke-opacity:1"
         d="m 181.879,223.52 0,56.761 c 0,0 0.742,5.899 -5.899,5.899 l -134.5308,0 c 0,0 -6.6484,0.738 -6.6484,-5.16 l 0,-53.911" /><path
         id="path86"
         style="fill:#000000;fill-opacity:1;fill-rule:nonzero;stroke:none"
         d="m 56.9102,229.41 22.8516,0 0,53.0898 -22.8516,0 0,-53.0898 z" /><path
         id="path88"
         style="fill:none;stroke:#ffffff;stroke-width:3.99993992;stroke-linecap:butt;stroke-linejoin:miter;stroke-miterlimit:4;stroke-dasharray:none;stroke-opacity:1"
         d="m 196.641,417.43 5.16,3.711" /></g></g></svg>