<svg xmlns="http://www.w3.org/2000/svg" viewBox="0 0 55 53.75" height="53.75" width="55"><path d="M8.154 45.877H47.5V38.5H8.154v7.377z" fill="#02709f"/><path d="M8.154 45.877H47.5V38.5H8.154v7.377zM35.449 42.68h9.922M35.449 42.324h9.922" fill="none" stroke="#fff" stroke-width=".5"/><path d="M54.101 38.881v-6.616l-6.606 6.265v7.349l6.606-6.998" fill="#02709f"/><path d="M54.101 38.881v-6.616l-6.606 6.265v7.349l6.606-6.998z" fill="none" stroke="#fff" stroke-width=".5"/><path d="M40.507 51.899v-1.66l3.58-4.947v3.028l-3.58 3.579" fill="#02709f"/><path d="M40.507 51.899v-1.66l3.58-4.947v3.028l-3.58 3.579z" fill="none" stroke="#fff" stroke-width=".5"/><path d="M8.994 51.9h31.513v-1.636H8.994V51.9z" fill="#02709f"/><path d="M8.994 51.9h31.513v-1.636H8.994V51.9z" fill="none" stroke="#fff" stroke-width=".5"/><path d="M40.507 50.264H9.091l3.575-4.972h31.421l-3.58 4.972" fill="#02709f"/><path d="M40.507 50.264H9.091l3.575-4.972h31.421l-3.58 4.972z" fill="none" stroke="#fff" stroke-width=".5"/><path d="M54.101 32.28H14.746L8.154 38.5H47.5l6.601-6.22" fill="#02709f"/><path d="M54.101 32.28H14.746L8.154 38.5H47.5l6.601-6.22z" fill="none" stroke="#fff" stroke-width=".5"/><path d="M46.69 32.304H20.351l-4.414 4.165h26.338l4.415-4.165" fill="#02709f"/><path d="M46.69 32.304H20.351l-4.414 4.165h26.338l4.415-4.165z" fill="none" stroke="#fff" stroke-width=".5"/><path d="M15.19 34.837h27.129V14.955H15.19v19.882z" fill="#02709f"/><path d="M15.19 34.837h27.129V14.955H15.19v19.882z" fill="none" stroke="#fff" stroke-width=".5"/><path d="M17.48 19.321c0-1.997 2.071-2.295 2.071-2.295h17.89c2.51 0 2.436 2.367 2.436 2.367v11.158c0 1.407-1.918 1.998-1.918 1.998h-18.11c-1.773 0-2.369-1.846-2.369-1.846V19.32" fill="#02709f"/><path d="M17.48 19.321c0-1.997 2.071-2.295 2.071-2.295h17.89c2.51 0 2.436 2.367 2.436 2.367v11.158c0 1.407-1.918 1.998-1.918 1.998h-18.11c-1.773 0-2.369-1.846-2.369-1.846V19.32z" fill="none" stroke="#fff" stroke-width=".5"/><path d="M46.865 10.669H19.736l-4.546 4.286h27.129l4.546-4.286" fill="#02709f"/><path d="M46.865 10.669H19.736l-4.546 4.286h27.129l4.546-4.286z" fill="none" stroke="#fff" stroke-width=".5"/><path d="M46.865 30.615V10.664l-4.501 4.257v19.952l4.501-4.258" fill="#02709f"/><path d="M46.865 30.615V10.664l-4.501 4.257v19.952l4.501-4.258z" fill="none" stroke="#fff" stroke-width=".5"/><path d="M25.205 1.107l-.625.371H.25l.62-.384 24.336.013"/><path d="M25.21 25.229l-.005-24.122-.625.474V25.81l.63-.582" fill="#02709f"/><path d="M25.21 25.229l-.005-24.122-.625.474V25.81l.63-.581z" fill="none" stroke="#fff" stroke-width=".5"/><path d="M1.357 25.81H24.58V1.479H.25V24.7l1.108 1.109" fill="#02709f"/><path d="M1.357 25.81H24.58V1.479H.25v23.222l1.108 1.109z" fill="none" stroke="#fff" stroke-width=".5"/><path d="M22.735 1.478v14.035c0 1.02-.826.83-.826.83H2.828s-.733.092-.733-.738V1.478" fill="#02709f"/><path d="M22.735 1.479v14.034c0 1.02-.826.83-.826.83H2.828s-.733.092-.733-.738V1.479M.625 3.97h1.104V2.861H.625v1.11zM23.11 3.97h1.109V2.861h-1.11v1.11z" fill="none" stroke="#fff" stroke-width=".5"/><path d="M18.799 18.715v6.831H4.33v-6.924c0-.737.83-.645.83-.645h12.9c.83 0 .738.738.738.738" fill="#fff"/><path d="M18.799 18.715v6.831H4.33v-6.924c0-.737.83-.645.83-.645h12.9c.83 0 .738.738.738.738z" fill="none" stroke="#000" stroke-width=".5"/><path d="M22.735 25.81v-7.095s.093-.738-.738-.738H5.181s-.83-.092-.83.645v6.74" fill="none" stroke="#fff" stroke-width=".5"/><path d="M7.114 25.074H9.97v-6.636H7.114v6.636z"/><path d="M24.58 1.571l.645-.464" fill="none" stroke="#fff" stroke-width=".5"/></svg>