<?xml version="1.0" encoding="UTF-8" standalone="no"?>
<svg
   xmlns:dc="http://purl.org/dc/elements/1.1/"
   xmlns:cc="http://creativecommons.org/ns#"
   xmlns:rdf="http://www.w3.org/1999/02/22-rdf-syntax-ns#"
   xmlns:svg="http://www.w3.org/2000/svg"
   xmlns="http://www.w3.org/2000/svg"
   viewBox="0 0 36.25 31.25"
   height="31.25"
   width="36.25"
   xml:space="preserve"
   version="1.1"
   id="svg2"><metadata
     id="metadata8"><rdf:RDF><cc:Work
         rdf:about=""><dc:format>image/svg+xml</dc:format><dc:type
           rdf:resource="http://purl.org/dc/dcmitype/StillImage" /></cc:Work></rdf:RDF></metadata><defs
     id="defs6" /><g
     transform="matrix(1.25,0,0,-1.25,0,31.25)"
     id="g10"><g
       transform="scale(0.1,0.1)"
       id="g12"><path
         id="path14"
         style="fill:#02709f;fill-opacity:1;fill-rule:nonzero;stroke:none"
         d="m 145.738,50.3906 c 54.692,0 98.992,44.3399 98.992,99.0194 0,54.649 -44.3,98.988 -98.992,98.988 -54.6872,0 -98.9763,-44.339 -98.9763,-98.988 0,-54.6795 44.2891,-99.0194 98.9763,-99.0194" /><path
         id="path16"
         style="fill:none;stroke:#ffffff;stroke-width:3.99993992;stroke-linecap:butt;stroke-linejoin:miter;stroke-miterlimit:4;stroke-dasharray:none;stroke-opacity:1"
         d="m 145.738,50.3906 c 54.692,0 98.992,44.3399 98.992,99.0194 0,54.649 -44.3,98.988 -98.992,98.988 -54.6872,0 -98.9763,-44.339 -98.9763,-98.988 0,-54.6795 44.2891,-99.0194 98.9763,-99.0194 z" /><path
         id="path18"
         style="fill:#02709f;fill-opacity:1;fill-rule:nonzero;stroke:none"
         d="M 2.33984,-0.859375 27.9688,152.379 c 0,-65.5782 53.1601,-118.7892 118.7932,-118.7892 65.578,0 118.789,53.211 118.789,118.7892 L 289.691,-1.01953 2.33984,-0.859375" /><path
         id="path20"
         style="fill:none;stroke:#ffffff;stroke-width:3.99993992;stroke-linecap:butt;stroke-linejoin:miter;stroke-miterlimit:4;stroke-dasharray:none;stroke-opacity:1"
         d="M 2.33984,-0.859375 27.9688,152.379 c 0,-65.5782 53.1601,-118.7892 118.7932,-118.7892 65.578,0 118.789,53.211 118.789,118.7892 L 289.691,-1.01953 2.33984,-0.859375 Z" /><path
         id="path22"
         style="fill:#02709f;fill-opacity:1;fill-rule:nonzero;stroke:none"
         d="m 77.9297,123.59 135,0 0,45 -135,0 0,-45 z" /><path
         id="path24"
         style="fill:none;stroke:#ffffff;stroke-width:3.99993992;stroke-linecap:butt;stroke-linejoin:miter;stroke-miterlimit:4;stroke-dasharray:none;stroke-opacity:1"
         d="m 77.9297,123.59 135,0 0,45 -135,0 0,-45 z" /></g></g></svg>