<?xml version="1.0" encoding="UTF-8" standalone="no"?>
<svg
   xmlns:dc="http://purl.org/dc/elements/1.1/"
   xmlns:cc="http://creativecommons.org/ns#"
   xmlns:rdf="http://www.w3.org/1999/02/22-rdf-syntax-ns#"
   xmlns:svg="http://www.w3.org/2000/svg"
   xmlns="http://www.w3.org/2000/svg"
   viewBox="0 0 36.512501 31.674999"
   height="31.674999"
   width="36.512501"
   xml:space="preserve"
   version="1.1"
   id="svg2"><metadata
     id="metadata8"><rdf:RDF><cc:Work
         rdf:about=""><dc:format>image/svg+xml</dc:format><dc:type
           rdf:resource="http://purl.org/dc/dcmitype/StillImage" /></cc:Work></rdf:RDF></metadata><defs
     id="defs6"><clipPath
       id="clipPath18"
       clipPathUnits="userSpaceOnUse"><path
         id="path20"
         d="M 0,3 0,253 290,253 290,3 0,3 Z" /></clipPath></defs><g
     transform="matrix(1.25,0,0,-1.25,0,31.675)"
     id="g10"><g
       transform="scale(0.1,0.1)"
       id="g12"><g
         id="g14"><g
           clip-path="url(#clipPath18)"
           id="g16"><path
             id="path22"
             style="fill:#02709f;fill-opacity:1;fill-rule:nonzero;stroke:none"
             d="m 145.754,53.4063 c 54.676,0 98.992,44.3281 98.992,98.9957 0,54.668 -44.316,98.993 -98.992,98.993 -54.6798,0 -98.9962,-44.325 -98.9962,-98.993 0,-54.6676 44.3164,-98.9957 98.9962,-98.9957" /><path
             id="path24"
             style="fill:none;stroke:#ffffff;stroke-width:3.99993992;stroke-linecap:butt;stroke-linejoin:miter;stroke-miterlimit:4;stroke-dasharray:none;stroke-opacity:1"
             d="m 145.754,53.4063 c 54.676,0 98.992,44.3281 98.992,98.9957 0,54.668 -44.316,98.993 -98.992,98.993 -54.6798,0 -98.9962,-44.325 -98.9962,-98.993 0,-54.6676 44.3164,-98.9957 98.9962,-98.9957 z" /><path
             id="path26"
             style="fill:#02709f;fill-opacity:1;fill-rule:nonzero;stroke:none"
             d="M 2.36328,2.15625 27.9609,155.398 c 0,-65.605 53.1836,-118.7964 118.7971,-118.7964 65.605,0 118.789,53.1914 118.789,118.7964 L 289.707,2 2.36328,2.15625" /><path
             id="path28"
             style="fill:none;stroke:#ffffff;stroke-width:3.99993992;stroke-linecap:butt;stroke-linejoin:miter;stroke-miterlimit:4;stroke-dasharray:none;stroke-opacity:1"
             d="M 2.36328,2.15625 27.9609,155.398 c 0,-65.605 53.1836,-118.7964 118.7971,-118.7964 65.605,0 118.789,53.1914 118.789,118.7964 L 289.707,2 2.36328,2.15625 Z" /><path
             id="path30"
             style="fill:#02709f;fill-opacity:1;fill-rule:nonzero;stroke:none"
             d="m 77.9297,126.602 135,0 0,45 -135,0 0,-45 z" /><path
             id="path32"
             style="fill:none;stroke:#ffffff;stroke-width:3.99993992;stroke-linecap:butt;stroke-linejoin:miter;stroke-miterlimit:4;stroke-dasharray:none;stroke-opacity:1"
             d="m 77.9297,126.602 135,0 0,45 -135,0 0,-45 z" /></g></g></g></g></svg>