<svg xmlns="http://www.w3.org/2000/svg" viewBox="0 0 36.25 31.25" height="31.25" width="36.25"><path d="M18.217 24.951c6.837 0 12.374-5.542 12.374-12.377C30.591 5.743 25.054.2 18.217.2 11.381.2 5.845 5.743 5.845 12.574c0 6.835 5.536 12.377 12.372 12.377" fill="#02709f"/><path d="M18.217 24.951c6.837 0 12.374-5.542 12.374-12.377C30.591 5.743 25.054.2 18.217.2 11.381.2 5.845 5.743 5.845 12.574c0 6.835 5.536 12.377 12.372 12.377z" fill="none" stroke="#fff" stroke-width=".5"/><path d="M.292 31.357l3.204-19.154c0 8.197 6.645 14.848 14.85 14.848 8.197 0 14.848-6.651 14.848-14.848l3.017 19.174-35.919-.02" fill="#02709f"/><path d="M.292 31.357l3.204-19.154c0 8.197 6.645 14.848 14.85 14.848 8.197 0 14.848-6.651 14.848-14.848l3.017 19.174-35.919-.02z" fill="none" stroke="#fff" stroke-width=".5"/><path d="M9.741 15.801h16.875v-5.625H9.741v5.625z" fill="#02709f"/><path d="M9.741 15.801h16.875v-5.625H9.741v5.625z" fill="none" stroke="#fff" stroke-width=".5"/></svg>