<?xml version="1.0" encoding="UTF-8" standalone="no"?>
<svg
   xmlns:dc="http://purl.org/dc/elements/1.1/"
   xmlns:cc="http://creativecommons.org/ns#"
   xmlns:rdf="http://www.w3.org/1999/02/22-rdf-syntax-ns#"
   xmlns:svg="http://www.w3.org/2000/svg"
   xmlns="http://www.w3.org/2000/svg"
   viewBox="0 0 42.5 60"
   height="60"
   width="42.5"
   xml:space="preserve"
   version="1.1"
   id="svg2"><metadata
     id="metadata8"><rdf:RDF><cc:Work
         rdf:about=""><dc:format>image/svg+xml</dc:format><dc:type
           rdf:resource="http://purl.org/dc/dcmitype/StillImage" /></cc:Work></rdf:RDF></metadata><defs
     id="defs6" /><g
     transform="matrix(1.25,0,0,-1.25,0,60)"
     id="g10"><g
       transform="scale(0.1,0.1)"
       id="g12"><path
         id="path14"
         style="fill:none;stroke:#231f20;stroke-width:4;stroke-linecap:butt;stroke-linejoin:miter;stroke-miterlimit:10;stroke-dasharray:none;stroke-opacity:1"
         d="m 266.02,436.859 c 6.281,10.512 6.25,8.981 8.781,12.813 25.121,37.969 50.711,19.609 33.32,-15.66 -14.332,-29.223 -15.781,-31.09 -21.359,-40.782 -9.731,-16.988 -19.571,-35.671 -26.453,-49.218" /><path
         id="path16"
         style="fill:none;stroke:#231f20;stroke-width:4;stroke-linecap:butt;stroke-linejoin:miter;stroke-miterlimit:10;stroke-dasharray:none;stroke-opacity:1"
         d="m 291.02,399.711 c 25.308,37.5 49.57,20.199 33.941,-14.289 -13.402,-29.461 -16.949,-30.59 -21.84,-40.942 -9.019,-19.218 -6.211,-16.21 -13.082,-29.769" /><path
         id="path18"
         style="fill:none;stroke:#231f20;stroke-width:4;stroke-linecap:butt;stroke-linejoin:miter;stroke-miterlimit:10;stroke-dasharray:none;stroke-opacity:1"
         d="m 239.801,391.43 c 6.918,8.871 7.039,10.629 22.621,39.019 19.527,35.633 -7.973,53.09 -33.594,16.063 C 201.719,407.332 194.84,396.121 179.801,378.77 164.73,361.352 136.68,293.539 118.98,275.18 c -11.75,-12.258 4.891,35.742 3.399,49.73 -3.277,30.391 -4.059,26.871 -7.539,37.582 -3.512,10.699 -25.1916,29.637 -29.7619,13.199 -2.3476,-8.519 -1.25,-8.789 0.5117,-18.441 0.8594,-4.961 -2.6992,-3.551 -1.6796,-27.379 C 84.4883,316.43 62.8906,276.309 56.3711,258.422 42.5,220.449 57.8086,218.461 52.1484,186.902 45.8984,152.289 53.1992,159.52 46.9883,144.711 40.7383,129.949 5.35156,73.1523 1.87891,64.0508" /><path
         id="path20"
         style="fill:none;stroke:#231f20;stroke-width:4;stroke-linecap:butt;stroke-linejoin:miter;stroke-miterlimit:10;stroke-dasharray:none;stroke-opacity:1"
         d="m 129.73,258.379 c 20.7,-11.75 1.52,-75.617 1.52,-75.617" /><path
         id="path22"
         style="fill:none;stroke:#231f20;stroke-width:4;stroke-linecap:butt;stroke-linejoin:miter;stroke-miterlimit:10;stroke-dasharray:none;stroke-opacity:1"
         d="m 119.879,262.949 c -4.84,6.223 -5.039,10.281 -5.039,10.281" /><path
         id="path24"
         style="fill:#087ebe;fill-opacity:1;fill-rule:evenodd;stroke:none"
         d="m 57.4609,212.602 158.2771,0 101.684,186.207 -150.582,0 L 57.4609,212.602" /><path
         id="path26"
         style="fill:none;stroke:#ffffff;stroke-width:4;stroke-linecap:round;stroke-linejoin:round;stroke-miterlimit:10;stroke-dasharray:none;stroke-opacity:1"
         d="m 57.4609,212.602 158.2771,0 101.684,186.207 -150.582,0 L 57.4609,212.602 Z" /><path
         id="path28"
         style="fill:#087ebe;fill-opacity:1;fill-rule:evenodd;stroke:none"
         d="m 57.4609,181.781 158.277,0 0,30.8203 -158.277,0 0,-30.8203 z" /><path
         id="path30"
         style="fill:none;stroke:#ffffff;stroke-width:4;stroke-linecap:round;stroke-linejoin:round;stroke-miterlimit:10;stroke-dasharray:none;stroke-opacity:1"
         d="m 57.4609,181.781 158.277,0 0,30.8203 -158.277,0 0,-30.8203 z" /><path
         id="path32"
         style="fill:#087ebe;fill-opacity:1;fill-rule:evenodd;stroke:none"
         d="m 317.422,398.809 0,-28.899 -101.684,-188.129 0,30.821 101.684,186.207" /><path
         id="path34"
         style="fill:none;stroke:#ffffff;stroke-width:4;stroke-linecap:round;stroke-linejoin:round;stroke-miterlimit:10;stroke-dasharray:none;stroke-opacity:1"
         d="m 317.422,398.809 0,-28.899 -101.684,-188.129 0,30.821 101.684,186.207 z" /><path
         id="path36"
         style="fill:#ffffff;fill-opacity:1;fill-rule:evenodd;stroke:none"
         d="m 290.859,380.031 -66.949,-124.543 -123.558,0 72.187,124.543 118.32,0" /><path
         id="path38"
         style="fill:none;stroke:#ffffff;stroke-width:1.926;stroke-linecap:round;stroke-linejoin:round;stroke-miterlimit:10;stroke-dasharray:none;stroke-opacity:1"
         d="m 290.859,380.02 -66.949,-124.528 -123.558,0 72.187,124.528 118.32,0 z" /><path
         id="path40"
         style="fill:#ffffff;fill-opacity:1;fill-rule:evenodd;stroke:none"
         d="m 106.52,238.191 -7.3794,-13.562 -14.1797,0 7.8477,13.562 13.7114,0" /><path
         id="path42"
         style="fill:none;stroke:#ffffff;stroke-width:1.926;stroke-linecap:round;stroke-linejoin:round;stroke-miterlimit:10;stroke-dasharray:none;stroke-opacity:1"
         d="m 106.52,238.191 -7.3794,-13.562 -14.1797,0 7.8477,13.562 13.7114,0 z" /><path
         id="path44"
         style="fill:#ffffff;fill-opacity:1;fill-rule:evenodd;stroke:none"
         d="m 215.98,238.191 -7.351,-13.562 -14.18,0 7.821,13.562 13.71,0" /><path
         id="path46"
         style="fill:none;stroke:#ffffff;stroke-width:1.926;stroke-linecap:round;stroke-linejoin:round;stroke-miterlimit:10;stroke-dasharray:none;stroke-opacity:1"
         d="m 215.98,238.191 -7.351,-13.562 -14.18,0 7.821,13.562 13.71,0 z" /><path
         id="path48"
         style="fill:#ffffff;fill-opacity:1;fill-rule:evenodd;stroke:none"
         d="m 188.672,238.191 -7.344,-13.562 -14.18,0 7.813,13.562 13.711,0" /><path
         id="path50"
         style="fill:none;stroke:#ffffff;stroke-width:1.926;stroke-linecap:round;stroke-linejoin:round;stroke-miterlimit:10;stroke-dasharray:none;stroke-opacity:1"
         d="m 188.672,238.191 -7.344,-13.562 -14.18,0 7.813,13.562 13.711,0 z" /><path
         id="path52"
         style="fill:#ffffff;fill-opacity:1;fill-rule:evenodd;stroke:none"
         d="m 160.121,238.191 -7.391,-13.562 -14.179,0 7.859,13.562 13.711,0" /><path
         id="path54"
         style="fill:none;stroke:#ffffff;stroke-width:1.926;stroke-linecap:round;stroke-linejoin:round;stroke-miterlimit:10;stroke-dasharray:none;stroke-opacity:1"
         d="m 160.121,238.191 -7.391,-13.562 -14.179,0 7.859,13.562 13.711,0 z" /><path
         id="path56"
         style="fill:#ffffff;fill-opacity:1;fill-rule:evenodd;stroke:none"
         d="m 133.051,238.191 -7.352,-13.562 -14.179,0 7.82,13.562 13.711,0" /><path
         id="path58"
         style="fill:none;stroke:#ffffff;stroke-width:1.926;stroke-linecap:round;stroke-linejoin:round;stroke-miterlimit:10;stroke-dasharray:none;stroke-opacity:1"
         d="m 133.051,238.191 -7.352,-13.562 -14.179,0 7.82,13.562 13.711,0 z" /><path
         id="path60"
         style="fill:#ffffff;fill-opacity:1;fill-rule:nonzero;stroke:none"
         d="m 111.641,11.0781 c 8.98,13.8711 52.07,77.4219 56.089,78.5235 44.54,12.1364 95.36,111.2074 119.149,140.0704 5.191,6.328 9.641,18.598 11.91,24.379 1.09,2.808 11.172,24.019 16.801,34.058 l 8.98,40.782 1.45,35.859 c 0,0 -14.141,33.949 -22.27,-9.609 l -5.738,-28.039 c -2.66,-4.383 -12.422,-18.723 -14.961,-24.93 -2.539,-6.211 -17.93,-25.352 -17.821,-35.973" /><path
         id="path62"
         style="fill:none;stroke:#231f20;stroke-width:4;stroke-linecap:butt;stroke-linejoin:miter;stroke-miterlimit:10;stroke-dasharray:none;stroke-opacity:1"
         d="m 111.641,11.082 c 8.98,13.8672 52.07,77.418 56.089,78.5196 44.54,12.1404 95.36,111.2074 119.149,140.0704 5.191,6.328 9.641,18.598 11.91,24.379 1.09,2.808 11.172,24.019 16.801,34.058 l 8.98,40.782 1.45,35.859 c 0,0 -14.141,33.949 -22.27,-9.609 l -5.738,-28.039 c -2.66,-4.383 -12.422,-18.723 -14.961,-24.93 -2.539,-6.211 -17.93,-25.352 -17.821,-35.973" /></g></g></svg>