<?xml version="1.0" encoding="UTF-8" standalone="no"?>
<svg
   xmlns:dc="http://purl.org/dc/elements/1.1/"
   xmlns:cc="http://creativecommons.org/ns#"
   xmlns:rdf="http://www.w3.org/1999/02/22-rdf-syntax-ns#"
   xmlns:svg="http://www.w3.org/2000/svg"
   xmlns="http://www.w3.org/2000/svg"
   viewBox="0 0 41.4375 57.674999"
   height="57.674999"
   width="41.4375"
   xml:space="preserve"
   version="1.1"
   id="svg2"><metadata
     id="metadata8"><rdf:RDF><cc:Work
         rdf:about=""><dc:format>image/svg+xml</dc:format><dc:type
           rdf:resource="http://purl.org/dc/dcmitype/StillImage" /></cc:Work></rdf:RDF></metadata><defs
     id="defs6" /><g
     transform="matrix(1.25,0,0,-1.25,0,57.675)"
     id="g10"><g
       transform="scale(0.1,0.1)"
       id="g12"><path
         id="path14"
         style="fill:none;stroke:#231f20;stroke-width:4;stroke-linecap:butt;stroke-linejoin:miter;stroke-miterlimit:10;stroke-dasharray:none;stroke-opacity:1"
         d="m 265.891,426.953 c 6.297,10.504 6.257,8.949 8.789,12.777 25.105,38 50.691,19.625 33.34,-15.667 -14.36,-29.18 -15.813,-31.083 -21.379,-40.77 -9.739,-17 -19.571,-35.656 -26.446,-49.199" /><path
         id="path16"
         style="fill:none;stroke:#231f20;stroke-width:4;stroke-linecap:butt;stroke-linejoin:miter;stroke-miterlimit:10;stroke-dasharray:none;stroke-opacity:1"
         d="m 290.906,389.801 c 25.305,37.5 49.574,20.164 33.918,-14.301 -13.379,-29.449 -16.941,-30.598 -21.816,-40.965 -9.024,-19.215 -6.211,-16.18 -13.098,-29.734" /><path
         id="path18"
         style="fill:none;stroke:#231f20;stroke-width:4;stroke-linecap:butt;stroke-linejoin:miter;stroke-miterlimit:10;stroke-dasharray:none;stroke-opacity:1"
         d="m 239.668,381.504 c 6.934,8.848 7.062,10.637 22.617,39.023 19.551,35.637 -7.949,53.067 -33.562,16.071 -27.129,-39.192 -33.996,-50.387 -49.043,-67.758 -15.071,-17.402 -43.137,-85.207 -60.801,-103.59 -11.789,-12.27 4.871,35.746 3.367,49.746 -3.262,30.375 -4.031,26.875 -7.527,37.567 -3.508,10.695 -25.1877,29.656 -29.7581,13.218 -2.3632,-8.523 -1.2578,-8.793 0.4883,-18.461 0.8906,-4.965 -2.6758,-3.547 -1.6601,-27.363 0.5664,-13.465 -21.0235,-53.586 -27.5586,-71.465 -13.8477,-37.957 1.4531,-39.945 -4.2188,-71.5 -6.2304,-34.609 1.0664,-27.414 -5.1562,-42.195 C 40.625,120.02 5.23438,63.2148 1.75,54.1094" /><path
         id="path20"
         style="fill:none;stroke:#231f20;stroke-width:4;stroke-linecap:butt;stroke-linejoin:miter;stroke-miterlimit:10;stroke-dasharray:none;stroke-opacity:1"
         d="m 129.59,248.441 c 20.703,-11.757 1.555,-75.621 1.555,-75.621" /><path
         id="path22"
         style="fill:none;stroke:#231f20;stroke-width:4;stroke-linecap:butt;stroke-linejoin:miter;stroke-miterlimit:10;stroke-dasharray:none;stroke-opacity:1"
         d="m 119.766,253.012 c -4.864,6.226 -5.047,10.308 -5.047,10.308" /><path
         id="path24"
         style="fill:#087ebe;fill-opacity:1;fill-rule:evenodd;stroke:none"
         d="m 57.3438,202.676 158.2812,0 101.66,186.195 -150.566,0 L 57.3438,202.676" /><path
         id="path26"
         style="fill:none;stroke:#ffffff;stroke-width:4;stroke-linecap:round;stroke-linejoin:round;stroke-miterlimit:10;stroke-dasharray:none;stroke-opacity:1"
         d="m 57.3438,202.676 158.2812,0 101.66,186.195 -150.566,0 L 57.3438,202.676 Z" /><path
         id="path28"
         style="fill:#087ebe;fill-opacity:1;fill-rule:evenodd;stroke:none"
         d="m 57.3438,171.855 158.281,0 0,30.8203 -158.281,0 0,-30.8203 z" /><path
         id="path30"
         style="fill:none;stroke:#ffffff;stroke-width:4;stroke-linecap:round;stroke-linejoin:round;stroke-miterlimit:10;stroke-dasharray:none;stroke-opacity:1"
         d="m 57.3438,171.855 158.281,0 0,30.8203 -158.281,0 0,-30.8203 z" /><path
         id="path32"
         style="fill:#087ebe;fill-opacity:1;fill-rule:evenodd;stroke:none"
         d="m 317.285,388.871 0,-28.887 -101.66,-188.129 0,30.821 101.66,186.195" /><path
         id="path34"
         style="fill:none;stroke:#ffffff;stroke-width:4;stroke-linecap:round;stroke-linejoin:round;stroke-miterlimit:10;stroke-dasharray:none;stroke-opacity:1"
         d="m 317.285,388.871 0,-28.887 -101.66,-188.129 0,30.821 101.66,186.195 z" /><path
         id="path36"
         style="fill:#ffffff;fill-opacity:1;fill-rule:evenodd;stroke:none"
         d="m 290.742,370.09 -66.972,-124.524 -123.536,0 72.188,124.524 118.32,0" /><path
         id="path38"
         style="fill:none;stroke:#ffffff;stroke-width:1.926;stroke-linecap:round;stroke-linejoin:round;stroke-miterlimit:10;stroke-dasharray:none;stroke-opacity:1"
         d="m 290.742,370.09 -66.972,-124.524 -123.536,0 72.188,124.524 118.32,0 z" /><path
         id="path40"
         style="fill:#ffffff;fill-opacity:1;fill-rule:evenodd;stroke:none"
         d="m 106.387,228.281 -7.3636,-13.593 -14.1796,0 7.832,13.593 13.7112,0" /><path
         id="path42"
         style="fill:none;stroke:#ffffff;stroke-width:1.926;stroke-linecap:round;stroke-linejoin:round;stroke-miterlimit:10;stroke-dasharray:none;stroke-opacity:1"
         d="m 106.387,228.281 -7.3636,-13.593 -14.1796,0 7.832,13.593 13.7112,0 z" /><path
         id="path44"
         style="fill:#ffffff;fill-opacity:1;fill-rule:evenodd;stroke:none"
         d="m 215.859,228.281 -7.363,-13.593 -14.18,0 7.84,13.593 13.703,0" /><path
         id="path46"
         style="fill:none;stroke:#ffffff;stroke-width:1.926;stroke-linecap:round;stroke-linejoin:round;stroke-miterlimit:10;stroke-dasharray:none;stroke-opacity:1"
         d="m 215.859,228.281 -7.363,-13.593 -14.18,0 7.84,13.593 13.703,0 z" /><path
         id="path48"
         style="fill:#ffffff;fill-opacity:1;fill-rule:evenodd;stroke:none"
         d="m 188.555,228.281 -7.364,-13.593 -14.179,0 7.832,13.593 13.711,0" /><path
         id="path50"
         style="fill:none;stroke:#ffffff;stroke-width:1.926;stroke-linecap:round;stroke-linejoin:round;stroke-miterlimit:10;stroke-dasharray:none;stroke-opacity:1"
         d="m 188.555,228.281 -7.364,-13.593 -14.179,0 7.832,13.593 13.711,0 z" /><path
         id="path52"
         style="fill:#ffffff;fill-opacity:1;fill-rule:evenodd;stroke:none"
         d="m 159.98,228.281 -7.363,-13.593 -14.179,0 7.832,13.593 13.71,0" /><path
         id="path54"
         style="fill:none;stroke:#ffffff;stroke-width:1.926;stroke-linecap:round;stroke-linejoin:round;stroke-miterlimit:10;stroke-dasharray:none;stroke-opacity:1"
         d="m 159.98,228.281 -7.363,-13.593 -14.179,0 7.832,13.593 13.71,0 z" /><path
         id="path56"
         style="fill:#ffffff;fill-opacity:1;fill-rule:evenodd;stroke:none"
         d="m 132.93,228.281 -7.364,-13.593 -14.179,0 7.832,13.593 13.711,0" /><path
         id="path58"
         style="fill:none;stroke:#ffffff;stroke-width:1.926;stroke-linecap:round;stroke-linejoin:round;stroke-miterlimit:10;stroke-dasharray:none;stroke-opacity:1"
         d="m 132.93,228.281 -7.364,-13.593 -14.179,0 7.832,13.593 13.711,0 z" /><path
         id="path60"
         style="fill:#ffffff;fill-opacity:1;fill-rule:nonzero;stroke:none"
         d="m 111.516,1.16016 c 8.992,13.87894 52.089,77.42574 56.082,78.51954 44.531,12.1445 95.371,111.2113 119.16,140.0783 5.176,6.297 9.629,18.578 11.902,24.351 1.106,2.817 11.184,24.055 16.82,34.09 l 8.954,40.77 1.472,35.84 c 0,0 -14.148,33.976 -22.273,-9.598 l -5.75,-28.039 c -2.641,-4.375 -12.434,-18.719 -14.973,-24.938 -2.539,-6.211 -17.91,-25.343 -17.812,-35.972" /><path
         id="path62"
         style="fill:none;stroke:#231f20;stroke-width:4;stroke-linecap:butt;stroke-linejoin:miter;stroke-miterlimit:10;stroke-dasharray:none;stroke-opacity:1"
         d="m 111.516,1.16016 c 8.992,13.87894 52.089,77.42574 56.082,78.51954 44.531,12.1445 95.371,111.2113 119.16,140.0783 5.176,6.297 9.629,18.578 11.902,24.351 1.106,2.817 11.184,24.055 16.82,34.09 l 8.954,40.77 1.472,35.84 c 0,0 -14.148,33.976 -22.273,-9.598 l -5.75,-28.039 c -2.641,-4.375 -12.434,-18.719 -14.973,-24.938 -2.539,-6.211 -17.91,-25.343 -17.812,-35.972" /></g></g></svg>