<?xml version="1.0" encoding="UTF-8" standalone="no"?>
<svg
   xmlns:dc="http://purl.org/dc/elements/1.1/"
   xmlns:cc="http://creativecommons.org/ns#"
   xmlns:rdf="http://www.w3.org/1999/02/22-rdf-syntax-ns#"
   xmlns:svg="http://www.w3.org/2000/svg"
   xmlns="http://www.w3.org/2000/svg"
   xmlns:sodipodi="http://sodipodi.sourceforge.net/DTD/sodipodi-0.dtd"
   xmlns:inkscape="http://www.inkscape.org/namespaces/inkscape"
   viewBox="0 0 45 30.875"
   height="30.875"
   width="45"
   xml:space="preserve"
   version="1.1"
   id="svg2"
   inkscape:version="0.91 r13725"
   sodipodi:docname="pixfirewall.svg"><sodipodi:namedview
     pagecolor="#ffffff"
     bordercolor="#666666"
     borderopacity="1"
     objecttolerance="10"
     gridtolerance="10"
     guidetolerance="10"
     inkscape:pageopacity="0"
     inkscape:pageshadow="2"
     inkscape:window-width="448"
     inkscape:window-height="438"
     id="namedview19"
     showgrid="false"
     inkscape:zoom="6.7945205"
     inkscape:cx="22.8125"
     inkscape:cy="15.45625"
     inkscape:window-x="0"
     inkscape:window-y="23"
     inkscape:window-maximized="0"
     inkscape:current-layer="svg2" /><metadata
     id="metadata8"><rdf:RDF><cc:Work
         rdf:about=""><dc:format>image/svg+xml</dc:format><dc:type
           rdf:resource="http://purl.org/dc/dcmitype/StillImage" /></cc:Work></rdf:RDF></metadata><defs
     id="defs6"><clipPath
       id="clipPath18"
       clipPathUnits="userSpaceOnUse"><path
         id="path20"
         d="M 0,0 0,247 360,247 360,0 0,0 Z"
         inkscape:connector-curvature="0" /></clipPath></defs><g
     transform="matrix(1.25,0,0,-1.25,0,30.875)"
     id="g10"><g
       transform="scale(0.1,0.1)"
       id="g12"><g
         id="g14"><g
           clip-path="url(#clipPath18)"
           id="g16"><path
             id="path22"
             style="fill:#026c9b;fill-opacity:1;fill-rule:nonzero;stroke:none"
             d="m 363.215,175.102 c 0,-38.789 -80.86,-70.235 -180.61,-70.235 C 82.8594,104.867 2,136.313 2,175.102 L 2,72.2305 C 2,33.4414 82.8594,1.99219 182.605,1.99219 c 99.75,0 180.61,31.44921 180.61,70.23831 l 0,102.8715"
             inkscape:connector-curvature="0" /><path
             id="path24"
             style="fill:none;stroke:#ffffff;stroke-width:4;stroke-linecap:butt;stroke-linejoin:miter;stroke-miterlimit:4;stroke-dasharray:none;stroke-opacity:1"
             d="m 363.215,175.102 c 0,-38.789 -80.86,-70.235 -180.61,-70.235 C 82.8594,104.867 2,136.313 2,175.102 L 2,72.2305 C 2,33.4414 82.8594,1.99219 182.605,1.99219 c 99.75,0 180.61,31.44921 180.61,70.23831 l 0,102.8715 z"
             inkscape:connector-curvature="0" /><path
             id="path26"
             style="fill:#026c9b;fill-opacity:1;fill-rule:nonzero;stroke:none"
             d="m 363.215,175.102 c 0,-38.789 -80.86,-70.235 -180.61,-70.235 C 82.8594,104.867 2,136.313 2,175.102 L 2,72.2305 C 2,33.4414 82.8594,1.99219 182.605,1.99219 c 99.75,0 180.61,31.44921 180.61,70.23831 l 0,102.8715"
             inkscape:connector-curvature="0" /><path
             id="path28"
             style="fill:none;stroke:#ffffff;stroke-width:4;stroke-linecap:butt;stroke-linejoin:miter;stroke-miterlimit:4;stroke-dasharray:none;stroke-opacity:1"
             d="m 363.215,175.102 c 0,-38.789 -80.86,-70.235 -180.61,-70.235 C 82.8594,104.867 2,136.313 2,175.102 L 2,72.2305 C 2,33.4414 82.8594,1.99219 182.605,1.99219 c 99.75,0 180.61,31.44921 180.61,70.23831 l 0,102.8715 z"
             inkscape:connector-curvature="0" /><path
             id="path30"
             style="fill:#026c9b;fill-opacity:1;fill-rule:nonzero;stroke:none"
             d="m 182.605,104.867 c 99.75,0 180.61,31.446 180.61,70.235 0,38.789 -80.86,70.234 -180.61,70.234 C 82.8594,245.336 2,213.891 2,175.102 2,136.313 82.8594,104.867 182.605,104.867"
             inkscape:connector-curvature="0" /><path
             id="path32"
             style="fill:none;stroke:#ffffff;stroke-width:4;stroke-linecap:butt;stroke-linejoin:miter;stroke-miterlimit:4;stroke-dasharray:none;stroke-opacity:1"
             d="m 182.605,104.867 c 99.75,0 180.61,31.446 180.61,70.235 0,38.789 -80.86,70.234 -180.61,70.234 C 82.8594,245.336 2,213.891 2,175.102 2,136.313 82.8594,104.867 182.605,104.867 Z"
             inkscape:connector-curvature="0" /><path
             id="path34"
             style="fill:#ffffff;fill-opacity:1;fill-rule:nonzero;stroke:none"
             d="m 129.309,136.137 0,91.117 86.98,-44.051 -86.98,-47.066"
             inkscape:connector-curvature="0" /><path
             id="path36"
             style="fill:#ffffff;fill-opacity:1;fill-rule:nonzero;stroke:none"
             d="m 217.734,140.281 27.0391,0 0,84.3672 -27.0391,0 0,-84.3672 z"
             inkscape:connector-curvature="0" /></g></g></g></g></svg>