<?xml version="1.0" encoding="UTF-8" standalone="no"?>
<svg
   xmlns:dc="http://purl.org/dc/elements/1.1/"
   xmlns:cc="http://creativecommons.org/ns#"
   xmlns:rdf="http://www.w3.org/1999/02/22-rdf-syntax-ns#"
   xmlns:svg="http://www.w3.org/2000/svg"
   xmlns="http://www.w3.org/2000/svg"
   viewBox="0 0 45 32.5"
   height="32.5"
   width="45"
   xml:space="preserve"
   version="1.1"
   id="svg2"><metadata
     id="metadata8"><rdf:RDF><cc:Work
         rdf:about=""><dc:format>image/svg+xml</dc:format><dc:type
           rdf:resource="http://purl.org/dc/dcmitype/StillImage" /></cc:Work></rdf:RDF></metadata><defs
     id="defs6"><clipPath
       id="clipPath18"
       clipPathUnits="userSpaceOnUse"><path
         id="path20"
         d="M 0,10 0,257 360,257 360,10 0,10 Z" /></clipPath></defs><g
     transform="matrix(1.25,0,0,-1.25,0,32.5)"
     id="g10"><g
       transform="scale(0.1,0.1)"
       id="g12"><g
         id="g14"><g
           clip-path="url(#clipPath18)"
           id="g16"><path
             id="path22"
             style="fill:#026c9b;fill-opacity:1;fill-rule:nonzero;stroke:none"
             d="m 363.199,185.09 c 0,-38.789 -80.859,-70.238 -180.578,-70.238 -99.7694,0 -180.63272,31.449 -180.63272,70.238 l 0,-102.8595 C 1.98828,43.4492 82.8516,12 182.621,12 282.34,12 363.199,43.4492 363.199,82.2305 l 0,102.8595" /><path
             id="path24"
             style="fill:none;stroke:#ffffff;stroke-width:4;stroke-linecap:butt;stroke-linejoin:miter;stroke-miterlimit:4;stroke-dasharray:none;stroke-opacity:1"
             d="m 363.199,185.09 c 0,-38.789 -80.859,-70.238 -180.578,-70.238 -99.7694,0 -180.63272,31.449 -180.63272,70.238 l 0,-102.8595 C 1.98828,43.4492 82.8516,12 182.621,12 282.34,12 363.199,43.4492 363.199,82.2305 l 0,102.8595 z" /><path
             id="path26"
             style="fill:#026c9b;fill-opacity:1;fill-rule:nonzero;stroke:none"
             d="m 363.199,185.09 c 0,-38.789 -80.859,-70.238 -180.578,-70.238 -99.7694,0 -180.63272,31.449 -180.63272,70.238 l 0,-102.8595 C 1.98828,43.4492 82.8516,12 182.621,12 282.34,12 363.199,43.4492 363.199,82.2305 l 0,102.8595" /><path
             id="path28"
             style="fill:none;stroke:#ffffff;stroke-width:4;stroke-linecap:butt;stroke-linejoin:miter;stroke-miterlimit:4;stroke-dasharray:none;stroke-opacity:1"
             d="m 363.199,185.09 c 0,-38.789 -80.859,-70.238 -180.578,-70.238 -99.7694,0 -180.63272,31.449 -180.63272,70.238 l 0,-102.8595 C 1.98828,43.4492 82.8516,12 182.621,12 282.34,12 363.199,43.4492 363.199,82.2305 l 0,102.8595 z" /><path
             id="path30"
             style="fill:#026c9b;fill-opacity:1;fill-rule:nonzero;stroke:none"
             d="m 182.621,114.852 c 99.719,0 180.578,31.449 180.578,70.238 0,38.789 -80.859,70.23 -180.578,70.23 -99.7694,0 -180.63272,-31.441 -180.63272,-70.23 0,-38.789 80.86332,-70.238 180.63272,-70.238" /><path
             id="path32"
             style="fill:none;stroke:#ffffff;stroke-width:4;stroke-linecap:butt;stroke-linejoin:miter;stroke-miterlimit:4;stroke-dasharray:none;stroke-opacity:1"
             d="m 182.621,114.852 c 99.719,0 180.578,31.449 180.578,70.238 0,38.789 -80.859,70.23 -180.578,70.23 -99.7694,0 -180.63272,-31.441 -180.63272,-70.23 0,-38.789 80.86332,-70.238 180.63272,-70.238 z" /><path
             id="path34"
             style="fill:#ffffff;fill-opacity:1;fill-rule:nonzero;stroke:none"
             d="m 129.301,146.141 0,91.129 86.988,-44.059 -86.988,-47.07" /><path
             id="path36"
             style="fill:#ffffff;fill-opacity:1;fill-rule:nonzero;stroke:none"
             d="m 217.73,150.281 27.0313,0 0,84.3789 -27.0313,0 0,-84.3789 z" /></g></g></g></g></svg>