<svg xmlns="http://www.w3.org/2000/svg" viewBox="0 0 72.5 47.5" height="47.5" width="72.5"><path d="M66.381 29.524l4.372-22.955H37.446l-4.902 22.955h33.837" fill="#087fbf"/><path d="M66.381 29.524l4.372-22.955H37.446l-4.902 22.955h33.837z" fill="none" stroke="#fff" stroke-width=".5"/><path d="M70.752 6.569l1.3 1.685-4.058 22.261-1.613-.991 4.371-22.955" fill="#087fbf"/><path d="M70.752 6.569l1.3 1.685-4.058 22.261-1.613-.991 4.371-22.955z" fill="none" stroke="#fff" stroke-width=".5"/><path d="M32.544 29.524l1.454.991h33.996l-1.613-.991H32.544" fill="#087fbf"/><path d="M32.544 29.524l1.454.991h33.996l-1.613-.991H32.544z" fill="none" stroke="#fff" stroke-width=".5"/><path d="M66.69 31.091v3.407l-.88.768s-2.07.61-1.611 1.835l-9.224 8.575v-3.75L66.69 31.091" fill="#087fbf"/><path d="M66.69 31.091V34.5l-.88.766s-2.07.611-1.611 1.837l-9.224 8.574v-3.75L66.69 31.091z" fill="none" stroke="#fff" stroke-width=".5"/><path d="M18.266 45.676h36.71v-3.75h-36.71v3.75z" fill="#087fbf"/><path d="M18.266 45.676h36.71v-3.75h-36.71v3.75z" fill="none" stroke="#fff" stroke-width=".5"/><path d="M32.925 31.32l33.765-.229-11.715 10.835H18.266L32.925 31.32" fill="#087fbf"/><path d="M32.925 31.32l33.765-.229-11.715 10.835H18.266L32.925 31.32z" fill="none" stroke="#fff" stroke-width=".5"/><path d="M63.56 27.288l3.486-17.974h-27.08L36.48 27.288h27.08" fill="#087fbf"/><path d="M63.56 27.288l3.486-17.974h-27.08L36.48 27.288h27.08z" fill="none" stroke="#fff" stroke-width=".5"/><path d="M33.721 31.56l-8.516 6.875M36.455 31.56l-8.515 6.875M39.19 31.56l-8.516 6.875M41.924 31.56l-8.515 6.875M44.659 31.56l-8.516 6.875M47.393 31.56l-8.516 6.875M50.127 31.56l-8.516 6.875M52.861 31.56l-8.515 6.875M55.596 31.56l-8.516 6.875M58.33 31.56l-8.515 6.875M61.065 31.56l-8.516 6.875M63.799 31.56l-8.515 6.875M26.158 37.711H56.47M28.194 36.135h29.848M30.308 34.563h29.77M32.192 32.985h30" fill="none" stroke="#fff" stroke-linejoin="round" stroke-width=".125"/><path d="M53.691 13.776c2.218 1.88 4.839 4.874 4.956 6.714.123 1.846-.825 2.315-1.625 2.891-.8.577-2.378.654-2.378.654l-1.74-2.1s3.576-.39 3.013-2.431c-.566-2.042-4.437-7.603-2.226-5.728" fill="#fff"/><path d="M54.219 19.324l1.81 6.757-4.285-2.476 2.475-4.281zM49.516 24.04c-2.21-1.88-4.833-4.868-4.956-6.714-.116-1.841.83-2.315 1.631-2.891.796-.575 2.378-.654 2.378-.654l1.739 2.1s-3.574.39-3.013 2.431c.566 2.047 4.439 7.603 2.221 5.728" fill="#fff"/><path d="M49.087 18.591l-1.812-6.759 4.288 2.472-2.476 4.287z" fill="#fff"/><path d="M52.93 6.042a2.694 2.694 0 1 0-.008-5.387 2.694 2.694 0 0 0 .008 5.387" fill="#087fbf"/><path d="M52.93 6.042a2.694 2.694 0 1 0-.008-5.387 2.694 2.694 0 0 0 .008 5.387z" fill="none" stroke="#fff" stroke-width=".32"/><path d="M49.029 7.434l.697-4.166a3.228 3.228 0 0 0 3.228 3.228 3.228 3.228 0 0 0 3.232-3.228l.655 4.171-7.812-.005" fill="#087fbf"/><path d="M51.084 4.049h3.672V2.824h-3.672v1.225z" fill="#fff"/><path d="M3.911 37.175a1.391 1.391 0 1 1-2.549 1.118 1.391 1.391 0 0 1 2.55-1.118" fill="#231f20"/><path d="M3.911 37.175a1.39 1.39 0 1 1-2.549 1.117 1.393 1.393 0 0 1 .718-1.83 1.389 1.389 0 0 1 1.831.713z" fill="none" stroke="#fff" stroke-width="2.5"/><path d="M27.203 29.489c-3.297 3.048-10.284 6.509-16.53 8.086-4.115 1.04-6.977 1.025-8.037.156" fill="none" stroke="#fff" stroke-width="2.5" stroke-linejoin="round"/><path d="M9.346 29.591c-.04-2.426.615-5.195 2.011-7.958 3.462-6.845 10.196-11.05 15.04-9.39 4.838 1.665 5.957 8.56 2.494 15.406a20.516 20.516 0 0 1-1.069 1.875" fill="none" stroke="#fff" stroke-width="2.5" stroke-linejoin="round"/><path d="M30.02 28.561a2.399 2.399 0 1 1-4.395 1.925 2.399 2.399 0 0 1 4.395-1.925" fill="#231f20"/><path d="M30.02 28.561a2.397 2.397 0 0 1-1.236 3.16 2.4 2.4 0 1 1 1.236-3.159z" fill="none" stroke="#fff" stroke-width="2.5"/><path d="M10.591 29.03a1.389 1.389 0 1 1-2.545 1.12 1.389 1.389 0 0 1 2.545-1.12" fill="#231f20"/><path d="M10.591 29.03a1.389 1.389 0 1 1-1.832-.712 1.39 1.39 0 0 1 1.832.712z" fill="none" stroke="#fff" stroke-width="2.5"/><path d="M3.911 37.175a1.391 1.391 0 1 1-2.549 1.118 1.391 1.391 0 0 1 2.55-1.118" fill="#231f20"/><path d="M27.203 29.489c-3.297 3.048-10.284 6.509-16.53 8.086-4.115 1.04-6.977 1.025-8.037.156" fill="none" stroke="#000" stroke-width=".5" stroke-linejoin="round"/><path d="M9.346 29.591c-.04-2.426.615-5.195 2.011-7.958 3.462-6.845 10.196-11.05 15.04-9.39 4.838 1.665 5.957 8.56 2.494 15.406a20.516 20.516 0 0 1-1.069 1.875" fill="none" stroke="#000" stroke-width="1.25" stroke-linejoin="round"/><path d="M30.02 28.561a2.399 2.399 0 1 1-4.395 1.925 2.399 2.399 0 0 1 4.395-1.925" fill="#231f20"/><path d="M30.02 28.561a2.397 2.397 0 0 1-1.236 3.16 2.4 2.4 0 1 1 1.236-3.159z" fill="none" stroke="#fff" stroke-width=".5"/><path d="M10.591 29.03a1.389 1.389 0 1 1-2.545 1.12 1.389 1.389 0 0 1 2.545-1.12" fill="#231f20"/></svg>