<?xml version="1.0" encoding="UTF-8" standalone="no"?>
<svg
   xmlns:dc="http://purl.org/dc/elements/1.1/"
   xmlns:cc="http://creativecommons.org/ns#"
   xmlns:rdf="http://www.w3.org/1999/02/22-rdf-syntax-ns#"
   xmlns:svg="http://www.w3.org/2000/svg"
   xmlns="http://www.w3.org/2000/svg"
   viewBox="0 0 72.125 45.737499"
   height="45.737499"
   width="72.125"
   xml:space="preserve"
   version="1.1"
   id="svg2"><metadata
     id="metadata8"><rdf:RDF><cc:Work
         rdf:about=""><dc:format>image/svg+xml</dc:format><dc:type
           rdf:resource="http://purl.org/dc/dcmitype/StillImage" /></cc:Work></rdf:RDF></metadata><defs
     id="defs6" /><g
     transform="matrix(1.25,0,0,-1.25,0,45.7375)"
     id="g10"><g
       transform="scale(0.1,0.1)"
       id="g12"><path
         id="path14"
         style="fill:#087fbf;fill-opacity:1;fill-rule:nonzero;stroke:none"
         d="m 529.473,133.828 34.941,183.606 -266.426,0 -39.234,-183.606 270.719,0" /><path
         id="path16"
         style="fill:none;stroke:#ffffff;stroke-width:4;stroke-linecap:butt;stroke-linejoin:miter;stroke-miterlimit:4;stroke-dasharray:none;stroke-opacity:1"
         d="m 529.473,133.828 34.941,183.606 -266.426,0 -39.234,-183.606 270.719,0 z" /><path
         id="path18"
         style="fill:#087fbf;fill-opacity:1;fill-rule:nonzero;stroke:none"
         d="m 564.414,317.434 10.41,-13.477 -32.48,-178.086 -12.871,7.957 34.941,183.606" /><path
         id="path20"
         style="fill:none;stroke:#ffffff;stroke-width:4;stroke-linecap:butt;stroke-linejoin:miter;stroke-miterlimit:4;stroke-dasharray:none;stroke-opacity:1"
         d="m 564.414,317.434 10.41,-13.477 -32.48,-178.086 -12.871,7.957 34.941,183.606 z" /><path
         id="path22"
         style="fill:#087fbf;fill-opacity:1;fill-rule:nonzero;stroke:none"
         d="m 258.754,133.828 11.641,-7.957 271.949,0 -12.871,7.957 -270.719,0" /><path
         id="path24"
         style="fill:none;stroke:#ffffff;stroke-width:4;stroke-linecap:butt;stroke-linejoin:miter;stroke-miterlimit:4;stroke-dasharray:none;stroke-opacity:1"
         d="m 258.754,133.828 11.641,-7.957 271.949,0 -12.871,7.957 -270.719,0 z" /><path
         id="path26"
         style="fill:#087fbf;fill-opacity:1;fill-rule:nonzero;stroke:none"
         d="m 531.934,121.27 0,-27.2466 -7.051,-6.1328 c 0,0 -16.543,-4.8906 -12.871,-14.6875 l -73.789,-68.61326 0,30.01956 93.711,86.6606" /><path
         id="path28"
         style="fill:none;stroke:#ffffff;stroke-width:4;stroke-linecap:butt;stroke-linejoin:miter;stroke-miterlimit:4;stroke-dasharray:none;stroke-opacity:1"
         d="m 531.934,121.27 0,-27.2466 -7.051,-6.1328 c 0,0 -16.543,-4.8906 -12.871,-14.6875 l -73.789,-68.61326 0,30.01956 93.711,86.6606 z" /><path
         id="path30"
         style="fill:#087fbf;fill-opacity:1;fill-rule:nonzero;stroke:none"
         d="m 144.535,4.58984 293.688,0 0,30.0195 -293.688,0 0,-30.0195 z" /><path
         id="path32"
         style="fill:none;stroke:#ffffff;stroke-width:4;stroke-linecap:butt;stroke-linejoin:miter;stroke-miterlimit:4;stroke-dasharray:none;stroke-opacity:1"
         d="m 144.535,34.6094 0,-30.01956 293.688,0 0,30.01956 -293.688,0" /><path
         id="path34"
         style="fill:#087fbf;fill-opacity:1;fill-rule:nonzero;stroke:none"
         d="m 261.82,119.434 270.114,1.836 -93.711,-86.6606 -293.688,0 117.285,84.8246" /><path
         id="path36"
         style="fill:none;stroke:#ffffff;stroke-width:4;stroke-linecap:butt;stroke-linejoin:miter;stroke-miterlimit:4;stroke-dasharray:none;stroke-opacity:1"
         d="m 261.82,119.434 270.114,1.836 -93.711,-86.6606 -293.688,0 117.285,84.8246 z" /><path
         id="path38"
         style="fill:#087fbf;fill-opacity:1;fill-rule:nonzero;stroke:none"
         d="m 506.875,151.719 27.891,143.789 -216.641,0 -27.891,-143.789 216.641,0" /><path
         id="path40"
         style="fill:none;stroke:#ffffff;stroke-width:4;stroke-linecap:butt;stroke-linejoin:miter;stroke-miterlimit:4;stroke-dasharray:none;stroke-opacity:1"
         d="m 506.875,151.719 27.891,143.789 -216.641,0 -27.891,-143.789 216.641,0 z" /><path
         id="path42"
         style="fill:none;stroke:#ffffff;stroke-width:1;stroke-linecap:butt;stroke-linejoin:round;stroke-miterlimit:4;stroke-dasharray:none;stroke-opacity:1"
         d="M 268.168,117.52 200.043,62.5117" /><path
         id="path44"
         style="fill:none;stroke:#ffffff;stroke-width:1;stroke-linecap:butt;stroke-linejoin:round;stroke-miterlimit:4;stroke-dasharray:none;stroke-opacity:1"
         d="M 290.039,117.52 221.918,62.5117" /><path
         id="path46"
         style="fill:none;stroke:#ffffff;stroke-width:1;stroke-linecap:butt;stroke-linejoin:round;stroke-miterlimit:4;stroke-dasharray:none;stroke-opacity:1"
         d="M 311.914,117.52 243.793,62.5117" /><path
         id="path48"
         style="fill:none;stroke:#ffffff;stroke-width:1;stroke-linecap:butt;stroke-linejoin:round;stroke-miterlimit:4;stroke-dasharray:none;stroke-opacity:1"
         d="M 333.789,117.52 265.668,62.5117" /><path
         id="path50"
         style="fill:none;stroke:#ffffff;stroke-width:1;stroke-linecap:butt;stroke-linejoin:round;stroke-miterlimit:4;stroke-dasharray:none;stroke-opacity:1"
         d="M 355.664,117.52 287.539,62.5117" /><path
         id="path52"
         style="fill:none;stroke:#ffffff;stroke-width:1;stroke-linecap:butt;stroke-linejoin:round;stroke-miterlimit:4;stroke-dasharray:none;stroke-opacity:1"
         d="M 377.539,117.52 309.414,62.5117" /><path
         id="path54"
         style="fill:none;stroke:#ffffff;stroke-width:1;stroke-linecap:butt;stroke-linejoin:round;stroke-miterlimit:4;stroke-dasharray:none;stroke-opacity:1"
         d="M 399.414,117.52 331.289,62.5117" /><path
         id="path56"
         style="fill:none;stroke:#ffffff;stroke-width:1;stroke-linecap:butt;stroke-linejoin:round;stroke-miterlimit:4;stroke-dasharray:none;stroke-opacity:1"
         d="M 421.289,117.52 353.164,62.5117" /><path
         id="path58"
         style="fill:none;stroke:#ffffff;stroke-width:1;stroke-linecap:butt;stroke-linejoin:round;stroke-miterlimit:4;stroke-dasharray:none;stroke-opacity:1"
         d="M 443.164,117.52 375.039,62.5117" /><path
         id="path60"
         style="fill:none;stroke:#ffffff;stroke-width:1;stroke-linecap:butt;stroke-linejoin:round;stroke-miterlimit:4;stroke-dasharray:none;stroke-opacity:1"
         d="M 465.039,117.52 396.914,62.5117" /><path
         id="path62"
         style="fill:none;stroke:#ffffff;stroke-width:1;stroke-linecap:butt;stroke-linejoin:round;stroke-miterlimit:4;stroke-dasharray:none;stroke-opacity:1"
         d="M 486.914,117.52 418.789,62.5117" /><path
         id="path64"
         style="fill:none;stroke:#ffffff;stroke-width:1;stroke-linecap:butt;stroke-linejoin:round;stroke-miterlimit:4;stroke-dasharray:none;stroke-opacity:1"
         d="M 508.789,117.52 440.664,62.5117" /><path
         id="path66"
         style="fill:none;stroke:#ffffff;stroke-width:1;stroke-linecap:butt;stroke-linejoin:round;stroke-miterlimit:4;stroke-dasharray:none;stroke-opacity:1"
         d="m 207.66,68.3125 242.516,0" /><path
         id="path68"
         style="fill:none;stroke:#ffffff;stroke-width:1;stroke-linecap:butt;stroke-linejoin:round;stroke-miterlimit:4;stroke-dasharray:none;stroke-opacity:1"
         d="m 223.969,80.918 238.765,0" /><path
         id="path70"
         style="fill:none;stroke:#ffffff;stroke-width:1;stroke-linecap:butt;stroke-linejoin:round;stroke-miterlimit:4;stroke-dasharray:none;stroke-opacity:1"
         d="m 240.883,93.5156 238.14,0" /><path
         id="path72"
         style="fill:none;stroke:#ffffff;stroke-width:1;stroke-linecap:butt;stroke-linejoin:round;stroke-miterlimit:4;stroke-dasharray:none;stroke-opacity:1"
         d="m 255.941,106.133 240.016,0" /><path
         id="path74"
         style="fill:#ffffff;fill-opacity:1;fill-rule:nonzero;stroke:none"
         d="m 427.949,259.777 c 17.735,-15.019 38.711,-38.964 39.649,-53.711 0.957,-14.746 -6.621,-18.515 -13.008,-23.125 -6.406,-4.601 -19.043,-5.234 -19.043,-5.234 l -13.906,16.797 c 0,0 28.593,3.125 24.101,19.473 -4.512,16.328 -35.508,60.82 -17.793,45.8" /><path
         id="path76"
         style="fill:#ffffff;fill-opacity:1;fill-rule:nonzero;stroke:none"
         d="m 432.148,215.422 14.493,-54.082 -34.278,19.805 19.785,34.277 z" /><path
         id="path78"
         style="fill:#ffffff;fill-opacity:1;fill-rule:nonzero;stroke:none"
         d="m 394.551,177.688 c -17.715,15.019 -38.692,38.953 -39.649,53.71 -0.937,14.735 6.621,18.516 13.028,23.114 6.386,4.601 19.023,5.234 19.023,5.234 l 13.926,-16.797 c 0,0 -28.594,-3.125 -24.102,-19.461 4.512,-16.34 35.489,-60.82 17.774,-45.8" /><path
         id="path80"
         style="fill:#ffffff;fill-opacity:1;fill-rule:nonzero;stroke:none"
         d="m 391.113,221.27 -14.492,54.074 34.297,-19.785 -19.805,-34.289 z" /><path
         id="path82"
         style="fill:#087fbf;fill-opacity:1;fill-rule:nonzero;stroke:none"
         d="m 421.836,321.68 c 11.894,0 21.543,9.648 21.543,21.543 0,11.894 -9.649,21.535 -21.543,21.535 -11.895,0 -21.543,-9.641 -21.543,-21.535 0,-11.895 9.648,-21.543 21.543,-21.543" /><path
         id="path84"
         style="fill:none;stroke:#ffffff;stroke-width:2.55999994;stroke-linecap:butt;stroke-linejoin:miter;stroke-miterlimit:4;stroke-dasharray:none;stroke-opacity:1"
         d="m 421.836,321.68 c 11.894,0 21.543,9.648 21.543,21.543 0,11.894 -9.649,21.535 -21.543,21.535 -11.895,0 -21.543,-9.641 -21.543,-21.535 0,-11.895 9.648,-21.543 21.543,-21.543 z" /><path
         id="path86"
         style="fill:#087fbf;fill-opacity:1;fill-rule:nonzero;stroke:none"
         d="m 390.637,310.527 5.574,33.34 c 0,-14.277 11.562,-25.847 25.84,-25.847 14.277,0 25.847,11.57 25.847,25.847 l 5.254,-33.379 -62.515,0.039" /><path
         id="path88"
         style="fill:#ffffff;fill-opacity:1;fill-rule:nonzero;stroke:none"
         d="m 407.07,337.609 29.375,0 0,9.78516 -29.375,0 0,-9.78516 z" /><path
         id="path90"
         style="fill:#231f20;fill-opacity:1;fill-rule:nonzero;stroke:none"
         d="m 29.6953,72.5977 c 2.4727,-5.625 -0.082,-12.1758 -5.7265,-14.6485 -5.6133,-2.4687 -12.1875,0.0781 -14.65239,5.7031 -2.46485,5.625 0.10156,12.1875 5.72269,14.6485 5.6406,2.4805 12.1914,-0.0781 14.6562,-5.7031" /><path
         id="path92"
         style="fill:none;stroke:#ffffff;stroke-width:20;stroke-linecap:butt;stroke-linejoin:miter;stroke-miterlimit:4;stroke-dasharray:none;stroke-opacity:1"
         d="m 29.6953,72.5977 c 2.4727,-5.625 -0.082,-12.1758 -5.7265,-14.6485 -5.6133,-2.4687 -12.1875,0.0781 -14.65239,5.7031 -2.46485,5.625 0.10156,12.1875 5.72269,14.6485 5.6406,2.4805 12.1914,-0.0781 14.6562,-5.7031 z" /><path
         id="path94"
         style="fill:none;stroke:#ffffff;stroke-width:20;stroke-linecap:butt;stroke-linejoin:round;stroke-miterlimit:4;stroke-dasharray:none;stroke-opacity:1"
         d="M 216.016,134.082 C 189.656,109.727 133.746,82.0313 83.8008,69.4141 50.875,61.0742 27.9648,61.1914 19.5195,68.1367" /><path
         id="path96"
         style="fill:none;stroke:#ffffff;stroke-width:20;stroke-linecap:butt;stroke-linejoin:round;stroke-miterlimit:4;stroke-dasharray:none;stroke-opacity:1"
         d="m 73.1836,133.262 c -0.3008,19.433 4.9102,41.582 16.0898,63.664 27.7066,54.785 81.5706,88.418 120.2966,75.117 38.731,-13.293 47.676,-68.469 19.961,-123.242 -2.621,-5.207 -5.484,-10.207 -8.551,-14.992" /><path
         id="path98"
         style="fill:#231f20;fill-opacity:1;fill-rule:nonzero;stroke:none"
         d="m 238.563,141.523 c 4.269,-9.714 -0.161,-21.023 -9.872,-25.293 -9.703,-4.246 -21.023,0.157 -25.289,9.875 -4.261,9.715 0.168,21.043 9.868,25.293 9.714,4.266 21.035,-0.156 25.293,-9.875" /><path
         id="path100"
         style="fill:none;stroke:#ffffff;stroke-width:20;stroke-linecap:butt;stroke-linejoin:miter;stroke-miterlimit:4;stroke-dasharray:none;stroke-opacity:1"
         d="m 238.563,141.523 c 4.269,-9.714 -0.161,-21.023 -9.872,-25.293 -9.703,-4.246 -21.023,0.157 -25.289,9.875 -4.261,9.715 0.168,21.043 9.868,25.293 9.714,4.266 21.035,-0.156 25.293,-9.875 z" /><path
         id="path102"
         style="fill:#231f20;fill-opacity:1;fill-rule:nonzero;stroke:none"
         d="m 83.1406,137.754 c 2.461,-5.625 -0.1093,-12.188 -5.7226,-14.649 -5.625,-2.468 -12.1797,0.098 -14.6446,5.715 -2.4648,5.614 0.086,12.176 5.711,14.649 5.6172,2.461 12.1914,-0.098 14.6562,-5.715" /><path
         id="path104"
         style="fill:none;stroke:#ffffff;stroke-width:20;stroke-linecap:butt;stroke-linejoin:miter;stroke-miterlimit:4;stroke-dasharray:none;stroke-opacity:1"
         d="m 83.1406,137.754 c 2.461,-5.625 -0.1093,-12.188 -5.7226,-14.649 -5.625,-2.468 -12.1797,0.098 -14.6446,5.715 -2.4648,5.614 0.086,12.176 5.711,14.649 5.6172,2.461 12.1914,-0.098 14.6562,-5.715 z" /><path
         id="path106"
         style="fill:#231f20;fill-opacity:1;fill-rule:nonzero;stroke:none"
         d="m 29.6953,72.5977 c 2.4727,-5.625 -0.082,-12.1758 -5.7265,-14.6485 -5.6133,-2.4687 -12.1875,0.0781 -14.65239,5.7031 -2.46485,5.625 0.10156,12.1875 5.72269,14.6485 5.6406,2.4805 12.1914,-0.0781 14.6562,-5.7031" /><path
         id="path108"
         style="fill:none;stroke:#000000;stroke-width:4;stroke-linecap:butt;stroke-linejoin:round;stroke-miterlimit:4;stroke-dasharray:none;stroke-opacity:1"
         d="M 216.016,134.082 C 189.656,109.727 133.746,82.0313 83.8008,69.4141 50.875,61.0742 27.9648,61.1914 19.5195,68.1367" /><path
         id="path110"
         style="fill:none;stroke:#000000;stroke-width:10;stroke-linecap:butt;stroke-linejoin:round;stroke-miterlimit:4;stroke-dasharray:none;stroke-opacity:1"
         d="m 73.1836,133.262 c -0.3008,19.433 4.9102,41.582 16.0898,63.664 27.7066,54.785 81.5706,88.418 120.2966,75.117 38.731,-13.293 47.676,-68.469 19.961,-123.242 -2.621,-5.207 -5.484,-10.207 -8.551,-14.992" /><path
         id="path112"
         style="fill:#231f20;fill-opacity:1;fill-rule:nonzero;stroke:none"
         d="m 238.563,141.523 c 4.269,-9.714 -0.161,-21.023 -9.872,-25.293 -9.703,-4.246 -21.023,0.157 -25.289,9.875 -4.261,9.715 0.168,21.043 9.868,25.293 9.714,4.266 21.035,-0.156 25.293,-9.875" /><path
         id="path114"
         style="fill:none;stroke:#ffffff;stroke-width:4;stroke-linecap:butt;stroke-linejoin:miter;stroke-miterlimit:4;stroke-dasharray:none;stroke-opacity:1"
         d="m 238.563,141.523 c 4.269,-9.714 -0.161,-21.023 -9.872,-25.293 -9.703,-4.246 -21.023,0.157 -25.289,9.875 -4.261,9.715 0.168,21.043 9.868,25.293 9.714,4.266 21.035,-0.156 25.293,-9.875 z" /><path
         id="path116"
         style="fill:#231f20;fill-opacity:1;fill-rule:nonzero;stroke:none"
         d="m 83.1406,137.754 c 2.461,-5.625 -0.1093,-12.188 -5.7226,-14.649 -5.625,-2.468 -12.1797,0.098 -14.6446,5.715 -2.4648,5.614 0.086,12.176 5.711,14.649 5.6172,2.461 12.1914,-0.098 14.6562,-5.715" /></g></g></svg>