<?xml version="1.0" encoding="UTF-8" standalone="no"?>
<svg
   xmlns:dc="http://purl.org/dc/elements/1.1/"
   xmlns:cc="http://creativecommons.org/ns#"
   xmlns:rdf="http://www.w3.org/1999/02/22-rdf-syntax-ns#"
   xmlns:svg="http://www.w3.org/2000/svg"
   xmlns="http://www.w3.org/2000/svg"
   viewBox="0 0 33.75 36.25"
   height="36.25"
   width="33.75"
   xml:space="preserve"
   version="1.1"
   id="svg2"><metadata
     id="metadata8"><rdf:RDF><cc:Work
         rdf:about=""><dc:format>image/svg+xml</dc:format><dc:type
           rdf:resource="http://purl.org/dc/dcmitype/StillImage" /></cc:Work></rdf:RDF></metadata><defs
     id="defs6" /><g
     transform="matrix(1.25,0,0,-1.25,0,36.25)"
     id="g10"><g
       transform="scale(0.1,0.1)"
       id="g12"><path
         id="path14"
         style="fill:#026c9b;fill-opacity:1;fill-rule:nonzero;stroke:none"
         d="m 5.46875,14.7305 216.02,0 0,219.77 -216.02,0 0,-219.77 z" /><path
         id="path16"
         style="fill:none;stroke:#ffffff;stroke-width:4;stroke-linecap:butt;stroke-linejoin:miter;stroke-miterlimit:4;stroke-dasharray:none;stroke-opacity:1"
         d="m 5.46875,14.7344 216.02,0 0,219.77 -216.02,0 0,-219.77 z" /><path
         id="path18"
         style="fill:none;stroke:#ffffff;stroke-width:13;stroke-linecap:butt;stroke-linejoin:miter;stroke-miterlimit:4;stroke-dasharray:none;stroke-opacity:1"
         d="m 113.48,163.484 66.399,0" /><path
         id="path20"
         style="fill:#ffffff;fill-opacity:1;fill-rule:nonzero;stroke:none"
         d="m 182.34,183.41 0,-38.441 23.172,18.48 -23.172,19.961" /><path
         id="path22"
         style="fill:none;stroke:#ffffff;stroke-width:2;stroke-linecap:butt;stroke-linejoin:miter;stroke-miterlimit:4;stroke-dasharray:none;stroke-opacity:1"
         d="m 182.34,183.406 0,-38.429 23.172,18.468 -23.172,19.961 z" /><path
         id="path24"
         style="fill:none;stroke:#ffffff;stroke-width:13;stroke-linecap:butt;stroke-linejoin:miter;stroke-miterlimit:4;stroke-dasharray:none;stroke-opacity:1"
         d="m 113.48,87.0469 66.399,0" /><path
         id="path26"
         style="fill:#ffffff;fill-opacity:1;fill-rule:nonzero;stroke:none"
         d="m 182.34,107.281 0,-38.4802 23.172,18.4805 -23.172,19.9997" /><path
         id="path28"
         style="fill:none;stroke:#ffffff;stroke-width:2;stroke-linecap:butt;stroke-linejoin:miter;stroke-miterlimit:4;stroke-dasharray:none;stroke-opacity:1"
         d="m 182.34,107.273 0,-38.4683 23.172,18.4687 -23.172,19.9996 z" /><path
         id="path30"
         style="fill:none;stroke:#ffffff;stroke-width:13;stroke-linecap:butt;stroke-linejoin:miter;stroke-miterlimit:4;stroke-dasharray:none;stroke-opacity:1"
         d="m 75.2695,124.977 0,66.398" /><path
         id="path32"
         style="fill:#ffffff;fill-opacity:1;fill-rule:nonzero;stroke:none"
         d="m 55.8594,193.57 38.4414,0 -18.4805,23.16 -19.9609,-23.16" /><path
         id="path34"
         style="fill:none;stroke:#ffffff;stroke-width:2;stroke-linecap:butt;stroke-linejoin:miter;stroke-miterlimit:4;stroke-dasharray:none;stroke-opacity:1"
         d="m 55.8594,193.566 38.4414,0 -18.4805,23.168 -19.9609,-23.168 z" /><path
         id="path36"
         style="fill:none;stroke:#ffffff;stroke-width:13;stroke-linecap:butt;stroke-linejoin:miter;stroke-miterlimit:4;stroke-dasharray:none;stroke-opacity:1"
         d="m 151.52,124.977 0,66.398" /><path
         id="path38"
         style="fill:#ffffff;fill-opacity:1;fill-rule:nonzero;stroke:none"
         d="m 131.84,193.289 38.469,0 -18.469,23.211 -20,-23.211" /><path
         id="path40"
         style="fill:none;stroke:#ffffff;stroke-width:2;stroke-linecap:butt;stroke-linejoin:miter;stroke-miterlimit:4;stroke-dasharray:none;stroke-opacity:1"
         d="m 131.84,193.297 38.469,0 -18.469,23.199 -20,-23.199 z" /><path
         id="path42"
         style="fill:none;stroke:#ffffff;stroke-width:13;stroke-linecap:butt;stroke-linejoin:miter;stroke-miterlimit:4;stroke-dasharray:none;stroke-opacity:1"
         d="m 151.801,125.445 0,-66.4098" /><path
         id="path44"
         style="fill:#ffffff;fill-opacity:1;fill-rule:nonzero;stroke:none"
         d="m 171.09,56.8906 -38.43,0 18.629,-23.1718 19.801,23.1718" /><path
         id="path46"
         style="fill:none;stroke:#ffffff;stroke-width:2;stroke-linecap:butt;stroke-linejoin:miter;stroke-miterlimit:4;stroke-dasharray:none;stroke-opacity:1"
         d="m 171.09,56.8867 -38.43,0 18.629,-23.1601 19.801,23.1601 z" /><path
         id="path48"
         style="fill:none;stroke:#ffffff;stroke-width:13;stroke-linecap:butt;stroke-linejoin:miter;stroke-miterlimit:4;stroke-dasharray:none;stroke-opacity:1"
         d="m 76.0508,125.445 0,-66.4098" /><path
         id="path50"
         style="fill:#ffffff;fill-opacity:1;fill-rule:nonzero;stroke:none"
         d="m 95.7813,56.8906 -38.4805,0 18.6797,-23.1718 19.8008,23.1718" /><path
         id="path52"
         style="fill:none;stroke:#ffffff;stroke-width:2;stroke-linecap:butt;stroke-linejoin:miter;stroke-miterlimit:4;stroke-dasharray:none;stroke-opacity:1"
         d="m 95.7813,56.8867 -38.4805,0 18.6797,-23.1601 19.8008,23.1601 z" /><path
         id="path54"
         style="fill:none;stroke:#ffffff;stroke-width:13;stroke-linecap:butt;stroke-linejoin:miter;stroke-miterlimit:4;stroke-dasharray:none;stroke-opacity:1"
         d="m 114.41,87.0469 -66.3983,0" /><path
         id="path56"
         style="fill:#ffffff;fill-opacity:1;fill-rule:nonzero;stroke:none"
         d="m 45.3086,66.8516 0,38.4374 -23.1602,-18.4804 23.1602,-19.957" /><path
         id="path58"
         style="fill:none;stroke:#ffffff;stroke-width:2;stroke-linecap:butt;stroke-linejoin:miter;stroke-miterlimit:4;stroke-dasharray:none;stroke-opacity:1"
         d="m 45.3086,66.8438 0,38.4412 L 22.1484,86.8047 45.3086,66.8438 Z" /><path
         id="path60"
         style="fill:none;stroke:#ffffff;stroke-width:13;stroke-linecap:butt;stroke-linejoin:miter;stroke-miterlimit:4;stroke-dasharray:none;stroke-opacity:1"
         d="m 114.41,163.297 -66.3983,0" /><path
         id="path62"
         style="fill:#ffffff;fill-opacity:1;fill-rule:nonzero;stroke:none"
         d="m 45.3086,143.102 0,38.437 -23.1602,-18.48 23.1602,-19.957" /><path
         id="path64"
         style="fill:none;stroke:#ffffff;stroke-width:2;stroke-linecap:butt;stroke-linejoin:miter;stroke-miterlimit:4;stroke-dasharray:none;stroke-opacity:1"
         d="m 45.3086,143.094 0,38.441 -23.1602,-18.48 23.1602,-19.961 z" /><path
         id="path66"
         style="fill:#026c9b;fill-opacity:1;fill-rule:nonzero;stroke:none"
         d="m 220.699,234.738 -214.99978,0 54.53128,43.512 205.4685,0 0,-218.3906 -44.488,-45 0,218.6286 -0.512,1.25" /><path
         id="path68"
         style="fill:none;stroke:#ffffff;stroke-width:4;stroke-linecap:butt;stroke-linejoin:miter;stroke-miterlimit:4;stroke-dasharray:none;stroke-opacity:1"
         d="m 220.699,234.734 -214.99978,0 54.53128,43.52 205.4685,0 0,-218.3985 -44.488,-45 0,218.6285 -0.512,1.25 z" /><path
         id="path70"
         style="fill:#026c9b;fill-opacity:1;fill-rule:nonzero;stroke:none"
         d="m 221.09,235.09 45,43.75" /><path
         id="path72"
         style="fill:none;stroke:#ffffff;stroke-width:4;stroke-linecap:butt;stroke-linejoin:miter;stroke-miterlimit:4;stroke-dasharray:none;stroke-opacity:1"
         d="m 221.09,235.086 45,43.75" /><path
         id="path74"
         style="fill:#026c9b;fill-opacity:1;fill-rule:nonzero;stroke:none"
         d="m 113.52,78.9219 c 25.308,0 45.859,20.5469 45.859,45.8981 0,25.352 -20.551,45.899 -45.859,45.899 -25.3598,0 -45.8989,-20.547 -45.8989,-45.899 0,-25.3512 20.5391,-45.8981 45.8989,-45.8981" /><path
         id="path76"
         style="fill:none;stroke:#ffffff;stroke-width:4;stroke-linecap:butt;stroke-linejoin:miter;stroke-miterlimit:4;stroke-dasharray:none;stroke-opacity:1"
         d="m 113.52,78.9141 c 25.308,0 45.859,20.5507 45.859,45.9019 0,25.348 -20.551,45.899 -45.859,45.899 -25.3598,0 -45.8989,-20.551 -45.8989,-45.899 0,-25.3512 20.5391,-45.9019 45.8989,-45.9019 z" /></g></g></svg>