<?xml version="1.0" encoding="UTF-8" standalone="no"?>
<svg
   xmlns:dc="http://purl.org/dc/elements/1.1/"
   xmlns:cc="http://creativecommons.org/ns#"
   xmlns:rdf="http://www.w3.org/1999/02/22-rdf-syntax-ns#"
   xmlns:svg="http://www.w3.org/2000/svg"
   xmlns="http://www.w3.org/2000/svg"
   viewBox="0 0 33.462502 33.787498"
   height="33.787498"
   width="33.462502"
   xml:space="preserve"
   version="1.1"
   id="svg2"><metadata
     id="metadata8"><rdf:RDF><cc:Work
         rdf:about=""><dc:format>image/svg+xml</dc:format><dc:type
           rdf:resource="http://purl.org/dc/dcmitype/StillImage" /></cc:Work></rdf:RDF></metadata><defs
     id="defs6" /><g
     transform="matrix(1.25,0,0,-1.25,0,33.7875)"
     id="g10"><g
       transform="scale(0.1,0.1)"
       id="g12"><path
         id="path14"
         style="fill:#026c9b;fill-opacity:1;fill-rule:nonzero;stroke:none"
         d="m 5.46875,4.74219 215.996,0 0,219.75 -215.996,0 0,-219.75 z" /><path
         id="path16"
         style="fill:none;stroke:#ffffff;stroke-width:4;stroke-linecap:butt;stroke-linejoin:miter;stroke-miterlimit:4;stroke-dasharray:none;stroke-opacity:1"
         d="m 5.46875,4.74219 215.996,0 0,219.75 -215.996,0 0,-219.75 z" /><path
         id="path18"
         style="fill:none;stroke:#ffffff;stroke-width:13;stroke-linecap:butt;stroke-linejoin:miter;stroke-miterlimit:4;stroke-dasharray:none;stroke-opacity:1"
         d="m 113.457,153.477 66.414,0" /><path
         id="path20"
         style="fill:#ffffff;fill-opacity:1;fill-rule:nonzero;stroke:none"
         d="m 182.344,173.426 0,-38.453 23.176,18.472 -23.176,19.981" /><path
         id="path22"
         style="fill:none;stroke:#ffffff;stroke-width:2;stroke-linecap:butt;stroke-linejoin:miter;stroke-miterlimit:4;stroke-dasharray:none;stroke-opacity:1"
         d="m 182.344,173.426 0,-38.453 23.176,18.472 -23.176,19.981 z" /><path
         id="path24"
         style="fill:none;stroke:#ffffff;stroke-width:13;stroke-linecap:butt;stroke-linejoin:miter;stroke-miterlimit:4;stroke-dasharray:none;stroke-opacity:1"
         d="m 113.457,77.0273 66.414,0" /><path
         id="path26"
         style="fill:#ffffff;fill-opacity:1;fill-rule:nonzero;stroke:none"
         d="m 182.344,97.2695 0,-38.457 23.176,18.4727 -23.176,19.9843" /><path
         id="path28"
         style="fill:none;stroke:#ffffff;stroke-width:2;stroke-linecap:butt;stroke-linejoin:miter;stroke-miterlimit:4;stroke-dasharray:none;stroke-opacity:1"
         d="m 182.344,97.2695 0,-38.457 23.176,18.4727 -23.176,19.9843 z" /><path
         id="path30"
         style="fill:none;stroke:#ffffff;stroke-width:13;stroke-linecap:butt;stroke-linejoin:miter;stroke-miterlimit:4;stroke-dasharray:none;stroke-opacity:1"
         d="m 75.2734,114.973 0,66.41" /><path
         id="path32"
         style="fill:#ffffff;fill-opacity:1;fill-rule:nonzero;stroke:none"
         d="m 55.8398,183.563 38.4571,0 -18.4766,23.164 -19.9805,-23.164" /><path
         id="path34"
         style="fill:none;stroke:#ffffff;stroke-width:2;stroke-linecap:butt;stroke-linejoin:miter;stroke-miterlimit:4;stroke-dasharray:none;stroke-opacity:1"
         d="m 55.8398,183.563 38.4571,0 -18.4766,23.164 -19.9805,-23.164 z" /><path
         id="path36"
         style="fill:none;stroke:#ffffff;stroke-width:13;stroke-linecap:butt;stroke-linejoin:miter;stroke-miterlimit:4;stroke-dasharray:none;stroke-opacity:1"
         d="m 151.523,114.973 0,66.41" /><path
         id="path38"
         style="fill:#ffffff;fill-opacity:1;fill-rule:nonzero;stroke:none"
         d="m 131.836,183.309 38.457,0 -18.469,23.171 -19.988,-23.171" /><path
         id="path40"
         style="fill:none;stroke:#ffffff;stroke-width:2;stroke-linecap:butt;stroke-linejoin:miter;stroke-miterlimit:4;stroke-dasharray:none;stroke-opacity:1"
         d="m 131.836,183.309 38.457,0 -18.469,23.171 -19.988,-23.171 z" /><path
         id="path42"
         style="fill:none;stroke:#ffffff;stroke-width:13;stroke-linecap:butt;stroke-linejoin:miter;stroke-miterlimit:4;stroke-dasharray:none;stroke-opacity:1"
         d="m 151.777,115.461 0,-66.4141" /><path
         id="path44"
         style="fill:#ffffff;fill-opacity:1;fill-rule:nonzero;stroke:none"
         d="m 171.094,46.8867 -38.457,0 18.652,-23.1719 19.805,23.1719" /><path
         id="path46"
         style="fill:none;stroke:#ffffff;stroke-width:2;stroke-linecap:butt;stroke-linejoin:miter;stroke-miterlimit:4;stroke-dasharray:none;stroke-opacity:1"
         d="m 171.094,46.8867 -38.457,0 18.652,-23.1719 19.805,23.1719 z" /><path
         id="path48"
         style="fill:none;stroke:#ffffff;stroke-width:13;stroke-linecap:butt;stroke-linejoin:miter;stroke-miterlimit:4;stroke-dasharray:none;stroke-opacity:1"
         d="m 76.0547,115.461 0,-66.4141" /><path
         id="path50"
         style="fill:#ffffff;fill-opacity:1;fill-rule:nonzero;stroke:none"
         d="m 95.7617,46.8867 -38.457,0 18.6523,-23.1719 19.8047,23.1719" /><path
         id="path52"
         style="fill:none;stroke:#ffffff;stroke-width:2;stroke-linecap:butt;stroke-linejoin:miter;stroke-miterlimit:4;stroke-dasharray:none;stroke-opacity:1"
         d="m 95.7617,46.8867 -38.457,0 18.6523,-23.1719 19.8047,23.1719 z" /><path
         id="path54"
         style="fill:none;stroke:#ffffff;stroke-width:13;stroke-linecap:butt;stroke-linejoin:miter;stroke-miterlimit:4;stroke-dasharray:none;stroke-opacity:1"
         d="m 114.414,77.0508 -66.4257,0" /><path
         id="path56"
         style="fill:#ffffff;fill-opacity:1;fill-rule:nonzero;stroke:none"
         d="m 45.293,56.8359 0,38.4571 L 22.1289,76.8242 45.293,56.8359" /><path
         id="path58"
         style="fill:none;stroke:#ffffff;stroke-width:2;stroke-linecap:butt;stroke-linejoin:miter;stroke-miterlimit:4;stroke-dasharray:none;stroke-opacity:1"
         d="m 45.293,56.8359 0,38.4571 L 22.1289,76.8242 45.293,56.8359 Z" /><path
         id="path60"
         style="fill:none;stroke:#ffffff;stroke-width:13;stroke-linecap:butt;stroke-linejoin:miter;stroke-miterlimit:4;stroke-dasharray:none;stroke-opacity:1"
         d="m 114.414,153.301 -66.4257,0" /><path
         id="path62"
         style="fill:#ffffff;fill-opacity:1;fill-rule:nonzero;stroke:none"
         d="m 45.293,133.086 0,38.457 -23.1641,-18.469 23.1641,-19.988" /><path
         id="path64"
         style="fill:none;stroke:#ffffff;stroke-width:2;stroke-linecap:butt;stroke-linejoin:miter;stroke-miterlimit:4;stroke-dasharray:none;stroke-opacity:1"
         d="m 45.293,133.086 0,38.457 -23.1641,-18.469 23.1641,-19.988 z" /><path
         id="path66"
         style="fill:#026c9b;fill-opacity:1;fill-rule:nonzero;stroke:none"
         d="m 220.715,224.734 -215.00406,0 54.50386,43.504 205.5002,0 0,-218.3708 -44.504,-45.00001 0,218.61681 -0.496,1.25" /><path
         id="path68"
         style="fill:none;stroke:#ffffff;stroke-width:4;stroke-linecap:butt;stroke-linejoin:miter;stroke-miterlimit:4;stroke-dasharray:none;stroke-opacity:1"
         d="m 220.715,224.734 -215.00406,0 54.50386,43.504 205.5002,0 0,-218.3708 -44.504,-45.00001 0,218.61681 -0.496,1.25 z" /><path
         id="path70"
         style="fill:#026c9b;fill-opacity:1;fill-rule:nonzero;stroke:none"
         d="m 221.094,225.102 45,43.75" /><path
         id="path72"
         style="fill:none;stroke:#ffffff;stroke-width:4;stroke-linecap:butt;stroke-linejoin:miter;stroke-miterlimit:4;stroke-dasharray:none;stroke-opacity:1"
         d="m 221.094,225.102 45,43.75" /><path
         id="path74"
         style="fill:#026c9b;fill-opacity:1;fill-rule:nonzero;stroke:none"
         d="m 113.496,68.9297 c 25.344,0 45.891,20.5469 45.891,45.8833 0,25.343 -20.547,45.886 -45.891,45.886 -25.3319,0 -45.8788,-20.543 -45.8788,-45.886 0,-25.3364 20.5469,-45.8833 45.8788,-45.8833" /><path
         id="path76"
         style="fill:none;stroke:#ffffff;stroke-width:4;stroke-linecap:butt;stroke-linejoin:miter;stroke-miterlimit:4;stroke-dasharray:none;stroke-opacity:1"
         d="m 113.496,68.9297 c 25.344,0 45.891,20.5469 45.891,45.8833 0,25.343 -20.547,45.886 -45.891,45.886 -25.3319,0 -45.8788,-20.543 -45.8788,-45.886 0,-25.3364 20.5469,-45.8833 45.8788,-45.8833 z" /></g></g></svg>