<?xml version="1.0" encoding="UTF-8" standalone="no"?>
<svg
   xmlns:dc="http://purl.org/dc/elements/1.1/"
   xmlns:cc="http://creativecommons.org/ns#"
   xmlns:rdf="http://www.w3.org/1999/02/22-rdf-syntax-ns#"
   xmlns:svg="http://www.w3.org/2000/svg"
   xmlns="http://www.w3.org/2000/svg"
   viewBox="0 0 30.424999 45.650002"
   height="45.650002"
   width="30.424999"
   xml:space="preserve"
   version="1.1"
   id="svg2"><metadata
     id="metadata8"><rdf:RDF><cc:Work
         rdf:about=""><dc:format>image/svg+xml</dc:format><dc:type
           rdf:resource="http://purl.org/dc/dcmitype/StillImage" /></cc:Work></rdf:RDF></metadata><defs
     id="defs6" /><g
     transform="matrix(1.25,0,0,-1.25,0,45.65)"
     id="g10"><g
       transform="scale(0.1,0.1)"
       id="g12"><path
         id="path14"
         style="fill:#026c9b;fill-opacity:1;fill-rule:nonzero;stroke:none"
         d="m 51.6406,5.65234 185.258,0 0,317.297 -185.258,0 0,-317.297 z" /><path
         id="path16"
         style="fill:none;stroke:#ffffff;stroke-width:4;stroke-linecap:butt;stroke-linejoin:miter;stroke-miterlimit:4;stroke-dasharray:none;stroke-opacity:1"
         d="m 51.6406,5.65234 185.258,0 0,317.297 -185.258,0 0,-317.297 z" /><path
         id="path18"
         style="fill:#026c9b;fill-opacity:1;fill-rule:nonzero;stroke:none"
         d="m 181.316,360.945 55.582,-37.996 -185.2574,0 -46.07419,37.996 175.74959,0" /><path
         id="path20"
         style="fill:none;stroke:#ffffff;stroke-width:4;stroke-linecap:butt;stroke-linejoin:miter;stroke-miterlimit:4;stroke-dasharray:none;stroke-opacity:1"
         d="m 181.316,360.945 55.582,-37.996 -185.2574,0 -46.07419,37.996 175.74959,0 z" /><path
         id="path22"
         style="fill:#026c9b;fill-opacity:1;fill-rule:nonzero;stroke:none"
         d="m 5.56641,62.6563 0,298.2887 46.07419,-37.996 0,-317.29666 L 5.56641,62.6563" /><path
         id="path24"
         style="fill:none;stroke:#ffffff;stroke-width:4;stroke-linecap:butt;stroke-linejoin:miter;stroke-miterlimit:4;stroke-dasharray:none;stroke-opacity:1"
         d="m 5.56641,62.6563 0,298.2887 46.07419,-37.996 0,-317.29666 L 5.56641,62.6563 Z" /><path
         id="path26"
         style="fill:#ffffff;fill-opacity:1;fill-rule:nonzero;stroke:none"
         d="m 96.7695,248.809 -0.0429,-108.575 8.1364,0 0.032,108.575 12.695,0.019 -16.77,22.774 -16.777,-22.774 12.7265,-0.019" /><path
         id="path28"
         style="fill:#ffffff;fill-opacity:1;fill-rule:nonzero;stroke:none"
         d="m 188.02,162.656 -0.04,108.574 8.133,0 0.032,-108.574 12.695,-0.027 -16.77,-22.766 -16.777,22.766 12.727,0.027" /><path
         id="path30"
         style="fill:#ffffff;fill-opacity:1;fill-rule:nonzero;stroke:none"
         d="M 108.328,72.0898 120.691,72.0195 102.93,94.7852 86.1523,72.0195 98.1836,72.0703 c 5.0394,-19.707 27.3514,-33.5664 47.5464,-33.5664 24.172,0 48.762,19.9805 48.762,45.8516 l -8.75,0 c 0,-20.7032 -20.676,-37.4805 -40.012,-37.4805 -15.347,0 -32.605,10.4688 -37.402,25.2148" /></g></g></svg>