<?xml version="1.0" encoding="UTF-8" standalone="no"?>
<svg
   xmlns:dc="http://purl.org/dc/elements/1.1/"
   xmlns:cc="http://creativecommons.org/ns#"
   xmlns:rdf="http://www.w3.org/1999/02/22-rdf-syntax-ns#"
   xmlns:svg="http://www.w3.org/2000/svg"
   xmlns="http://www.w3.org/2000/svg"
   viewBox="0 0 31.25 47.5"
   height="47.5"
   width="31.25"
   xml:space="preserve"
   version="1.1"
   id="svg2"><metadata
     id="metadata8"><rdf:RDF><cc:Work
         rdf:about=""><dc:format>image/svg+xml</dc:format><dc:type
           rdf:resource="http://purl.org/dc/dcmitype/StillImage" /></cc:Work></rdf:RDF></metadata><defs
     id="defs6" /><g
     transform="matrix(1.25,0,0,-1.25,0,47.5)"
     id="g10"><g
       transform="scale(0.1,0.1)"
       id="g12"><path
         id="path14"
         style="fill:#026c9b;fill-opacity:1;fill-rule:nonzero;stroke:none"
         d="m 51.6406,15.6602 185.27,0 0,317.301 -185.27,0 0,-317.301 z" /><path
         id="path16"
         style="fill:none;stroke:#ffffff;stroke-width:4;stroke-linecap:butt;stroke-linejoin:miter;stroke-miterlimit:4;stroke-dasharray:none;stroke-opacity:1"
         d="m 51.6406,15.6602 185.27,0 0,317.301 -185.27,0 0,-317.301 z" /><path
         id="path18"
         style="fill:#026c9b;fill-opacity:1;fill-rule:nonzero;stroke:none"
         d="m 181.328,370.93 55.582,-37.969 -185.2694,0 -46.05076,37.969 175.73816,0" /><path
         id="path20"
         style="fill:none;stroke:#ffffff;stroke-width:4;stroke-linecap:butt;stroke-linejoin:miter;stroke-miterlimit:4;stroke-dasharray:none;stroke-opacity:1"
         d="m 181.328,370.93 55.582,-37.969 -185.2694,0 -46.05076,37.969 175.73816,0 z" /><path
         id="path22"
         style="fill:#026c9b;fill-opacity:1;fill-rule:nonzero;stroke:none"
         d="m 5.58984,72.6484 0,298.2816 46.05076,-37.969 0,-317.3008 -46.05076,56.9882" /><path
         id="path24"
         style="fill:none;stroke:#ffffff;stroke-width:4;stroke-linecap:butt;stroke-linejoin:miter;stroke-miterlimit:4;stroke-dasharray:none;stroke-opacity:1"
         d="m 5.58984,72.6523 0,298.2777 46.05076,-37.969 0,-317.3008 -46.05076,56.9921 z" /><path
         id="path26"
         style="fill:#ffffff;fill-opacity:1;fill-rule:nonzero;stroke:none"
         d="m 96.7617,258.82 -0.0429,-108.59 8.1602,0 0,108.59 12.699,0 -16.758,22.782 -16.7614,-22.782 12.7031,0" /><path
         id="path28"
         style="fill:#ffffff;fill-opacity:1;fill-rule:nonzero;stroke:none"
         d="m 188.012,172.648 -0.043,108.602 8.16,0 0,-108.602 12.699,0 -16.758,-22.769 -16.761,22.769 12.703,0" /><path
         id="path30"
         style="fill:#ffffff;fill-opacity:1;fill-rule:nonzero;stroke:none"
         d="m 108.32,82.1016 12.379,-0.0703 -17.769,22.7697 -16.7581,-22.7697 12.0273,0.039 c 5.0388,-19.6914 27.3518,-33.5586 47.5388,-33.5586 24.184,0 48.75,19.9571 48.75,45.8594 l -8.75,0 c 0,-20.6992 -20.66,-37.5 -40,-37.5 -15.347,0 -32.617,10.4687 -37.418,25.2305" /></g></g></svg>