<svg xmlns="http://www.w3.org/2000/svg" viewBox="0 0 31.25 47.5" height="47.5" width="31.25"><path d="M6.455 45.542h23.159V5.88H6.455v39.662z" fill="#026c9b"/><path d="M6.455 45.542h23.159V5.88H6.455v39.662z" fill="none" stroke="#fff" stroke-width=".5"/><path d="M22.666 1.134l6.948 4.746H6.455L.7 1.134h21.967" fill="#026c9b"/><path d="M22.666 1.134l6.948 4.746H6.455L.7 1.134h21.967z" fill="none" stroke="#fff" stroke-width=".5"/><path d="M.699 38.419V1.134L6.455 5.88v39.662L.7 38.42" fill="#026c9b"/><path d="M.699 38.418V1.134L6.455 5.88v39.662L.7 38.418z" fill="none" stroke="#fff" stroke-width=".5"/><path d="M12.095 15.148L12.09 28.72h1.02V15.148h1.587L12.603 12.3l-2.096 2.848h1.588M23.502 25.919l-.006-13.575h1.02v13.575h1.588l-2.095 2.846-2.095-2.846H23.5M13.54 37.237l1.547.01-2.22-2.847-2.096 2.846 1.504-.005c.63 2.462 3.419 4.195 5.942 4.195 3.023 0 6.094-2.495 6.094-5.732h-1.094c0 2.587-2.582 4.687-5 4.687-1.918 0-4.077-1.308-4.677-3.154" fill="#fff"/></svg>