<svg xmlns="http://www.w3.org/2000/svg" viewBox="0 0 38.75 51.25" height="51.25" width="38.75"><defs><clipPath id="a"><path d="M0 9v397h310V9H0z"/></clipPath></defs><g clip-path="url(#a)" transform="matrix(.13 0 0 -.13 0 51.25)"><path d="M6.45 14.785h268.28v244.262H6.45V14.785z" fill="#026c9b"/><path d="M6.45 14.785h268.28v244.262H6.45V14.785z" fill="none" stroke="#fff" stroke-width="4"/><path d="M308.59 48.336v244.262l-33.86-33.551V14.785l33.86 33.55" fill="#026c9b"/><path d="M308.59 48.336v244.262l-33.86-33.551V14.785l33.86 33.55z" fill="none" stroke="#fff" stroke-width="4"/><path d="M55.512 401.266L6.449 367.719H274.73l33.86 33.547H55.512" fill="#026c9b"/><path d="M55.512 401.266L6.449 367.719H274.73l33.86 33.547H55.512z" fill="none" stroke="#fff" stroke-width="4"/><path d="M6.45 259.047h268.28v108.672H6.45V259.047z" fill="#026c9b"/><path d="M6.45 259.047h268.28v108.672H6.45V259.047z" fill="none" stroke="#fff" stroke-width="4"/><path d="M308.59 292.598v108.668l-33.86-33.547V259.047l33.86 33.551" fill="#026c9b"/><path d="M308.59 292.598v108.668l-33.86-33.547V259.047l33.86 33.551zM274.73 259.047H6.45" fill="none" stroke="#fff" stroke-width="4"/><path d="M274.73 259.047l33.86 33.551" fill="#026c9b"/><path d="M274.73 259.047l33.86 33.551" fill="none" stroke="#fff" stroke-width="4"/><path d="M56.05 336.387h43.24v22.5H56.05v-22.5zM198.199 336.387h43.242v22.5H198.2v-22.5zM56.05 280.098h43.24v22.5H56.05v-22.5zM198.199 280.098h43.242v22.5H198.2v-22.5z"/><path d="M85.39 345.488h132.891M85.39 289.156h132.891M77.7 289.156l140.581 56.332M77.7 345.488l140.581-56.332" fill="none" stroke="#000" stroke-width="4"/><path d="M50.23 330.605h43.282v22.5H50.23v-22.5zM192.379 330.605h43.281v22.5H192.38v-22.5zM50.23 274.277h43.282v22.54H50.23v-22.54zM192.379 274.277h43.281v22.54H192.38v-22.54z" fill="#fff"/><path d="M79.61 341.855H212.5M79.61 285.566H212.5M71.879 285.566L212.5 341.855M71.879 341.855L212.5 285.566" fill="none" stroke="#fff" stroke-width="4"/><path d="M144.301 176.309v53.437h9.527l-14.058 20.199-14.032-20.199h9.532v-53.437h9.031M101.172 143.848H45.039v9.058l-21.168-13.359 21.168-13.391v9.063h56.133v8.629M135.27 102.758V49.316h-9.532l14.032-20.16 14.058 20.16h-9.527v53.442h-9.031M178.398 135.219h56.133v-9.063l21.168 13.391-21.168 13.359v-9.058h-56.133v-8.629" fill="#fff"/><path d="M192.539 84.668H87.5l.078 108.91H192.66l-.121-108.91" fill="#026c9b"/><path d="M192.539 84.668H87.5l.078 108.91H192.66l-.121-108.91zM113.828 194.785V84.355M139.922 195.098V84.355M165.98 193.027V85.336M86.879 166.469H191.8M86.52 139.355h104.609M86.52 112.246H191.8" fill="none" stroke="#fff" stroke-width="4"/></g></svg>