<?xml version="1.0" encoding="UTF-8" standalone="no"?>
<svg
   xmlns:dc="http://purl.org/dc/elements/1.1/"
   xmlns:cc="http://creativecommons.org/ns#"
   xmlns:rdf="http://www.w3.org/1999/02/22-rdf-syntax-ns#"
   xmlns:svg="http://www.w3.org/2000/svg"
   xmlns="http://www.w3.org/2000/svg"
   viewBox="0 0 39.1875 49.512501"
   height="49.512501"
   width="39.1875"
   xml:space="preserve"
   version="1.1"
   id="svg2"><metadata
     id="metadata8"><rdf:RDF><cc:Work
         rdf:about=""><dc:format>image/svg+xml</dc:format><dc:type
           rdf:resource="http://purl.org/dc/dcmitype/StillImage" /></cc:Work></rdf:RDF></metadata><defs
     id="defs6"><clipPath
       id="clipPath18"
       clipPathUnits="userSpaceOnUse"><path
         id="path20"
         d="M 0,0 0,396 310,396 310,0 0,0 Z" /></clipPath></defs><g
     transform="matrix(1.25,0,0,-1.25,0,49.5125)"
     id="g10"><g
       transform="scale(0.1,0.1)"
       id="g12"><g
         id="g14"><g
           clip-path="url(#clipPath18)"
           id="g16"><path
             id="path22"
             style="fill:#026c9b;fill-opacity:1;fill-rule:nonzero;stroke:none"
             d="m 6.46484,4.79688 268.262,0 0,244.258 -268.262,0 0,-244.258 z" /><path
             id="path24"
             style="fill:none;stroke:#ffffff;stroke-width:4;stroke-linecap:butt;stroke-linejoin:miter;stroke-miterlimit:4;stroke-dasharray:none;stroke-opacity:1"
             d="m 6.46484,4.79688 268.262,0 0,244.258 -268.262,0 0,-244.258 z" /><path
             id="path26"
             style="fill:#026c9b;fill-opacity:1;fill-rule:nonzero;stroke:none"
             d="m 308.613,38.3398 0,244.2692 -33.886,-33.554 0,-244.25812 33.886,33.54292" /><path
             id="path28"
             style="fill:none;stroke:#ffffff;stroke-width:4;stroke-linecap:butt;stroke-linejoin:miter;stroke-miterlimit:4;stroke-dasharray:none;stroke-opacity:1"
             d="m 308.613,38.3398 0,244.2692 -33.886,-33.554 0,-244.25812 33.886,33.54292 z" /><path
             id="path30"
             style="fill:#026c9b;fill-opacity:1;fill-rule:nonzero;stroke:none"
             d="m 55.5273,391.262 -49.06246,-33.555 268.26216,0 33.886,33.555 -253.0857,0" /><path
             id="path32"
             style="fill:none;stroke:#ffffff;stroke-width:4;stroke-linecap:butt;stroke-linejoin:miter;stroke-miterlimit:4;stroke-dasharray:none;stroke-opacity:1"
             d="m 55.5273,391.262 -49.06246,-33.555 268.26216,0 33.886,33.555 -253.0857,0 z" /><path
             id="path34"
             style="fill:#026c9b;fill-opacity:1;fill-rule:nonzero;stroke:none"
             d="m 6.46484,249.055 268.262,0 0,108.652 -268.262,0 0,-108.652 z" /><path
             id="path36"
             style="fill:none;stroke:#ffffff;stroke-width:4;stroke-linecap:butt;stroke-linejoin:miter;stroke-miterlimit:4;stroke-dasharray:none;stroke-opacity:1"
             d="m 6.46484,249.055 268.262,0 0,108.652 -268.262,0 0,-108.652 z" /><path
             id="path38"
             style="fill:#026c9b;fill-opacity:1;fill-rule:nonzero;stroke:none"
             d="m 308.613,282.609 0,108.653 -33.886,-33.555 0,-108.652 33.886,33.554" /><path
             id="path40"
             style="fill:none;stroke:#ffffff;stroke-width:4;stroke-linecap:butt;stroke-linejoin:miter;stroke-miterlimit:4;stroke-dasharray:none;stroke-opacity:1"
             d="m 308.613,282.609 0,108.653 -33.886,-33.555 0,-108.652 33.886,33.554 z" /><path
             id="path42"
             style="fill:#026c9b;fill-opacity:1;fill-rule:nonzero;stroke:none"
             d="m 274.727,249.055 -268.26216,0" /><path
             id="path44"
             style="fill:none;stroke:#ffffff;stroke-width:4;stroke-linecap:butt;stroke-linejoin:miter;stroke-miterlimit:4;stroke-dasharray:none;stroke-opacity:1"
             d="m 274.727,249.055 -268.26216,0" /><path
             id="path46"
             style="fill:#026c9b;fill-opacity:1;fill-rule:nonzero;stroke:none"
             d="m 274.727,249.055 33.886,33.554" /><path
             id="path48"
             style="fill:none;stroke:#ffffff;stroke-width:4;stroke-linecap:butt;stroke-linejoin:miter;stroke-miterlimit:4;stroke-dasharray:none;stroke-opacity:1"
             d="m 274.727,249.055 33.886,33.554" /><path
             id="path50"
             style="fill:#000000;fill-opacity:1;fill-rule:nonzero;stroke:none"
             d="m 56.0352,326.398 43.2695,0 0,22.5078 -43.2695,0 0,-22.5078 z" /><path
             id="path52"
             style="fill:#000000;fill-opacity:1;fill-rule:nonzero;stroke:none"
             d="m 198.203,326.398 43.2617,0 0,22.5078 -43.2617,0 0,-22.5078 z" /><path
             id="path54"
             style="fill:#000000;fill-opacity:1;fill-rule:nonzero;stroke:none"
             d="m 56.0352,270.09 43.2695,0 0,22.5195 -43.2695,0 0,-22.5195 z" /><path
             id="path56"
             style="fill:#000000;fill-opacity:1;fill-rule:nonzero;stroke:none"
             d="m 198.203,270.09 43.2617,0 0,22.5195 -43.2617,0 0,-22.5195 z" /><path
             id="path58"
             style="fill:none;stroke:#000000;stroke-width:4;stroke-linecap:butt;stroke-linejoin:miter;stroke-miterlimit:4;stroke-dasharray:none;stroke-opacity:1"
             d="m 85.4023,335.48 132.8787,0" /><path
             id="path60"
             style="fill:none;stroke:#000000;stroke-width:4;stroke-linecap:butt;stroke-linejoin:miter;stroke-miterlimit:4;stroke-dasharray:none;stroke-opacity:1"
             d="m 85.4023,279.172 132.8787,0" /><path
             id="path62"
             style="fill:none;stroke:#000000;stroke-width:4;stroke-linecap:butt;stroke-linejoin:miter;stroke-miterlimit:4;stroke-dasharray:none;stroke-opacity:1"
             d="M 77.6758,279.172 218.281,335.48" /><path
             id="path64"
             style="fill:none;stroke:#000000;stroke-width:4;stroke-linecap:butt;stroke-linejoin:miter;stroke-miterlimit:4;stroke-dasharray:none;stroke-opacity:1"
             d="M 77.6758,335.48 218.281,279.172" /><path
             id="path66"
             style="fill:#ffffff;fill-opacity:1;fill-rule:nonzero;stroke:none"
             d="m 50.2422,320.598 43.2734,0 0,22.5195 -43.2734,0 0,-22.5195 z" /><path
             id="path68"
             style="fill:#ffffff;fill-opacity:1;fill-rule:nonzero;stroke:none"
             d="m 192.402,320.598 43.2617,0 0,22.5195 -43.2617,0 0,-22.5195 z" /><path
             id="path70"
             style="fill:#ffffff;fill-opacity:1;fill-rule:nonzero;stroke:none"
             d="m 50.2422,264.285 43.2734,0 0,22.5234 -43.2734,0 0,-22.5234 z" /><path
             id="path72"
             style="fill:#ffffff;fill-opacity:1;fill-rule:nonzero;stroke:none"
             d="m 192.402,264.285 43.2617,0 0,22.5234 -43.2617,0 0,-22.5234 z" /><path
             id="path74"
             style="fill:none;stroke:#ffffff;stroke-width:4;stroke-linecap:butt;stroke-linejoin:miter;stroke-miterlimit:4;stroke-dasharray:none;stroke-opacity:1"
             d="m 79.6094,331.848 132.8786,0" /><path
             id="path76"
             style="fill:none;stroke:#ffffff;stroke-width:4;stroke-linecap:butt;stroke-linejoin:miter;stroke-miterlimit:4;stroke-dasharray:none;stroke-opacity:1"
             d="m 79.6094,275.559 132.8786,0" /><path
             id="path78"
             style="fill:none;stroke:#ffffff;stroke-width:4;stroke-linecap:butt;stroke-linejoin:miter;stroke-miterlimit:4;stroke-dasharray:none;stroke-opacity:1"
             d="m 71.875,275.559 140.613,56.289" /><path
             id="path80"
             style="fill:none;stroke:#ffffff;stroke-width:4;stroke-linecap:butt;stroke-linejoin:miter;stroke-miterlimit:4;stroke-dasharray:none;stroke-opacity:1"
             d="M 71.875,331.848 212.488,275.559" /><path
             id="path82"
             style="fill:#ffffff;fill-opacity:1;fill-rule:nonzero;stroke:none"
             d="m 144.309,166.32 0,53.438 9.519,0 -14.055,20.176 -14.05,-20.176 9.531,0 0,-53.438 9.055,0" /><path
             id="path84"
             style="fill:#ffffff;fill-opacity:1;fill-rule:nonzero;stroke:none"
             d="m 101.16,133.859 -56.1209,0 0,9.063 -21.1602,-13.383 21.1602,-13.379 0,9.067 56.1209,0 0,8.632" /><path
             id="path86"
             style="fill:#ffffff;fill-opacity:1;fill-rule:nonzero;stroke:none"
             d="m 135.254,92.7656 0,-53.4414 -9.531,0 14.05,-20.1719 14.055,20.1719 -9.519,0 0,53.4414 -9.055,0" /><path
             id="path88"
             style="fill:#ffffff;fill-opacity:1;fill-rule:nonzero;stroke:none"
             d="m 178.398,125.227 56.114,0 0,-9.067 21.191,13.379 -21.191,13.383 0,-9.063 -56.114,0 0,-8.632" /><path
             id="path90"
             style="fill:#026c9b;fill-opacity:1;fill-rule:nonzero;stroke:none"
             d="m 192.539,74.6875 -105.0507,0 0.1015,108.8985 105.0472,0 -0.098,-108.8985" /><path
             id="path92"
             style="fill:none;stroke:#ffffff;stroke-width:4;stroke-linecap:butt;stroke-linejoin:miter;stroke-miterlimit:4;stroke-dasharray:none;stroke-opacity:1"
             d="m 192.539,74.6875 -105.0507,0 0.1015,108.8985 105.0472,0 -0.098,-108.8985 z" /><path
             id="path94"
             style="fill:#026c9b;fill-opacity:1;fill-rule:nonzero;stroke:none"
             d="m 113.816,184.785 0,-110.4178" /><path
             id="path96"
             style="fill:none;stroke:#ffffff;stroke-width:4;stroke-linecap:butt;stroke-linejoin:miter;stroke-miterlimit:4;stroke-dasharray:none;stroke-opacity:1"
             d="m 113.816,184.785 0,-110.4178" /><path
             id="path98"
             style="fill:#026c9b;fill-opacity:1;fill-rule:nonzero;stroke:none"
             d="m 139.91,185.109 0,-110.7418" /><path
             id="path100"
             style="fill:none;stroke:#ffffff;stroke-width:4;stroke-linecap:butt;stroke-linejoin:miter;stroke-miterlimit:4;stroke-dasharray:none;stroke-opacity:1"
             d="m 139.91,185.109 0,-110.7418" /><path
             id="path102"
             style="fill:#026c9b;fill-opacity:1;fill-rule:nonzero;stroke:none"
             d="m 165.977,183.035 0,-107.6912" /><path
             id="path104"
             style="fill:none;stroke:#ffffff;stroke-width:4;stroke-linecap:butt;stroke-linejoin:miter;stroke-miterlimit:4;stroke-dasharray:none;stroke-opacity:1"
             d="m 165.977,183.035 0,-107.6912" /><path
             id="path106"
             style="fill:#026c9b;fill-opacity:1;fill-rule:nonzero;stroke:none"
             d="m 86.8555,156.477 104.9605,0" /><path
             id="path108"
             style="fill:none;stroke:#ffffff;stroke-width:4;stroke-linecap:butt;stroke-linejoin:miter;stroke-miterlimit:4;stroke-dasharray:none;stroke-opacity:1"
             d="m 86.8555,156.477 104.9605,0" /><path
             id="path110"
             style="fill:#026c9b;fill-opacity:1;fill-rule:nonzero;stroke:none"
             d="m 86.5156,129.367 104.6294,0" /><path
             id="path112"
             style="fill:none;stroke:#ffffff;stroke-width:4;stroke-linecap:butt;stroke-linejoin:miter;stroke-miterlimit:4;stroke-dasharray:none;stroke-opacity:1"
             d="m 86.5156,129.367 104.6294,0" /><path
             id="path114"
             style="fill:#026c9b;fill-opacity:1;fill-rule:nonzero;stroke:none"
             d="m 86.5156,102.258 105.3004,0" /><path
             id="path116"
             style="fill:none;stroke:#ffffff;stroke-width:4;stroke-linecap:butt;stroke-linejoin:miter;stroke-miterlimit:4;stroke-dasharray:none;stroke-opacity:1"
             d="m 86.5156,102.258 105.3004,0" /></g></g></g></g></svg>