<svg xmlns="http://www.w3.org/2000/svg" viewBox="0 0 45 36.25" height="36.25" width="45"><path d="M37.49 6.969l5.87-5.83v-.035H6.875L.63 6.969h36.86" fill="#026c9b"/><path d="M37.49 6.969l5.87-5.831v-.034H6.875L.63 6.969h36.86z" fill="none" stroke="#fff" stroke-width=".5"/><path d="M37.685 34.395l-.024-27.578L.766 6.764v27.631h36.919" fill="#026c9b"/><path d="M37.685 34.395l-.024-27.579L.766 6.763v27.632h36.919z" fill="none" stroke="#fff" stroke-width=".5"/><path d="M43.511 28.575L43.506.982l-5.845 5.835.024 27.578 5.826-5.82" fill="#026c9b"/><path d="M43.511 28.575L43.506.981l-5.845 5.835.024 27.579 5.826-5.82z" fill="none" stroke="#fff" stroke-width=".5"/><path d="M13.916 34.131V6.763M24.634 34.165V6.763" fill="none" stroke="#fff" stroke-width=".2"/><path d="M20.801 9.834H14.66" fill="none" stroke="#fff" stroke-width="1.25"/><path d="M23.409 9.835l-3.56 1.455.845-1.455-.845-1.455 3.56 1.455" fill="#fff"/><path d="M20.801 15.049H14.66" fill="none" stroke="#fff" stroke-width="1.25"/><path d="M23.409 15.05l-3.56 1.455.845-1.455-.845-1.451 3.56 1.45" fill="#fff"/><path d="M20.801 20.269H14.66" fill="none" stroke="#fff" stroke-width="1.25"/><path d="M23.409 20.268l-3.56 1.45.845-1.45-.845-1.454 3.56 1.454" fill="#fff"/><path d="M20.801 25.484H14.66" fill="none" stroke="#fff" stroke-width="1.25"/><path d="M23.409 25.484l-3.56 1.455.845-1.455-.845-1.455 3.56 1.455" fill="#fff"/><path d="M21.235 31.314h-6.576" fill="none" stroke="#fff" stroke-width="1.25"/><path d="M23.409 31.314l-3.56 1.455.845-1.455-.845-1.45 3.56 1.45M1.084 14.449h8.037l-.034.922 3.726-2.577-3.726-2.58.034.925H1.084v3.31M1.084 22.031h8.037l-.034.924 3.726-2.578-3.726-2.578.034.922H1.084v3.31M25.288 19.049h8.042l-.034 1.201 3.725-3.35-3.725-3.355.034 1.201h-8.042v4.303M25.288 28.906h8.042l-.034 1.201 3.725-3.348-3.725-3.355.034 1.201h-8.042v4.301M1.084 29.615h8.037l-.034.923 3.726-2.578-3.726-2.579.034.923H1.084v3.311" fill="#fff"/></svg>