<?xml version="1.0" encoding="UTF-8" standalone="no"?>
<svg
   xmlns:dc="http://purl.org/dc/elements/1.1/"
   xmlns:cc="http://creativecommons.org/ns#"
   xmlns:rdf="http://www.w3.org/1999/02/22-rdf-syntax-ns#"
   xmlns:svg="http://www.w3.org/2000/svg"
   xmlns="http://www.w3.org/2000/svg"
   viewBox="0 0 45 36.25"
   height="36.25"
   width="45"
   xml:space="preserve"
   version="1.1"
   id="svg2"><metadata
     id="metadata8"><rdf:RDF><cc:Work
         rdf:about=""><dc:format>image/svg+xml</dc:format><dc:type
           rdf:resource="http://purl.org/dc/dcmitype/StillImage" /></cc:Work></rdf:RDF></metadata><defs
     id="defs6" /><g
     transform="matrix(1.25,0,0,-1.25,0,36.25)"
     id="g10"><g
       transform="scale(0.1,0.1)"
       id="g12"><path
         id="path14"
         style="fill:#026c9b;fill-opacity:1;fill-rule:nonzero;stroke:none"
         d="m 299.922,234.25 46.957,46.641 0,0.281 -291.879,0 -49.96094,-46.922 294.88294,0" /><path
         id="path16"
         style="fill:none;stroke:#ffffff;stroke-width:4;stroke-linecap:butt;stroke-linejoin:miter;stroke-miterlimit:4;stroke-dasharray:none;stroke-opacity:1"
         d="m 299.922,234.25 46.957,46.648 0,0.27 -291.879,0 -49.96094,-46.918 294.88294,0 z" /><path
         id="path18"
         style="fill:#026c9b;fill-opacity:1;fill-rule:nonzero;stroke:none"
         d="m 301.48,14.8398 -0.191,220.6212 -295.16009,0.43 0,-221.0512 295.35109,0" /><path
         id="path20"
         style="fill:none;stroke:#ffffff;stroke-width:4;stroke-linecap:butt;stroke-linejoin:miter;stroke-miterlimit:4;stroke-dasharray:none;stroke-opacity:1"
         d="m 301.48,14.8398 -0.191,220.6292 -295.16009,0.429 0,-221.0582 295.35109,0 z" /><path
         id="path22"
         style="fill:#026c9b;fill-opacity:1;fill-rule:nonzero;stroke:none"
         d="m 348.09,61.3984 -0.039,220.7426 -46.762,-46.68 0.191,-220.6212 46.61,46.5586" /><path
         id="path24"
         style="fill:none;stroke:#ffffff;stroke-width:4;stroke-linecap:butt;stroke-linejoin:miter;stroke-miterlimit:4;stroke-dasharray:none;stroke-opacity:1"
         d="M 348.09,61.3984 348.051,282.148 301.289,235.469 301.48,14.8398 348.09,61.3984 Z" /><path
         id="path26"
         style="fill:none;stroke:#ffffff;stroke-width:1.60000002;stroke-linecap:butt;stroke-linejoin:miter;stroke-miterlimit:4;stroke-dasharray:none;stroke-opacity:1"
         d="m 111.328,16.9492 0,218.9488" /><path
         id="path28"
         style="fill:none;stroke:#ffffff;stroke-width:1.60000002;stroke-linecap:butt;stroke-linejoin:miter;stroke-miterlimit:4;stroke-dasharray:none;stroke-opacity:1"
         d="m 197.07,16.6797 0,219.2183" /><path
         id="path30"
         style="fill:none;stroke:#ffffff;stroke-width:10;stroke-linecap:butt;stroke-linejoin:miter;stroke-miterlimit:4;stroke-dasharray:none;stroke-opacity:1"
         d="m 166.41,211.328 -49.14,0" /><path
         id="path32"
         style="fill:#ffffff;fill-opacity:1;fill-rule:nonzero;stroke:none"
         d="m 187.27,211.32 -28.481,-11.64 6.762,11.64 -6.762,11.641 28.481,-11.641" /><path
         id="path34"
         style="fill:none;stroke:#ffffff;stroke-width:10;stroke-linecap:butt;stroke-linejoin:miter;stroke-miterlimit:4;stroke-dasharray:none;stroke-opacity:1"
         d="m 166.41,169.609 -49.14,0" /><path
         id="path36"
         style="fill:#ffffff;fill-opacity:1;fill-rule:nonzero;stroke:none"
         d="m 187.27,169.602 -28.481,-11.641 6.762,11.641 -6.762,11.609 28.481,-11.609" /><path
         id="path38"
         style="fill:none;stroke:#ffffff;stroke-width:10;stroke-linecap:butt;stroke-linejoin:miter;stroke-miterlimit:4;stroke-dasharray:none;stroke-opacity:1"
         d="m 166.41,127.848 -49.14,0" /><path
         id="path40"
         style="fill:#ffffff;fill-opacity:1;fill-rule:nonzero;stroke:none"
         d="m 187.27,127.852 -28.481,-11.602 6.762,11.602 -6.762,11.636 28.481,-11.636" /><path
         id="path42"
         style="fill:none;stroke:#ffffff;stroke-width:10;stroke-linecap:butt;stroke-linejoin:miter;stroke-miterlimit:4;stroke-dasharray:none;stroke-opacity:1"
         d="m 166.41,86.1289 -49.14,0" /><path
         id="path44"
         style="fill:#ffffff;fill-opacity:1;fill-rule:nonzero;stroke:none"
         d="m 187.27,86.1289 -28.481,-11.6406 6.762,11.6406 -6.762,11.6406 28.481,-11.6406" /><path
         id="path46"
         style="fill:none;stroke:#ffffff;stroke-width:10;stroke-linecap:butt;stroke-linejoin:miter;stroke-miterlimit:4;stroke-dasharray:none;stroke-opacity:1"
         d="m 169.879,39.4883 -52.609,0" /><path
         id="path48"
         style="fill:#ffffff;fill-opacity:1;fill-rule:nonzero;stroke:none"
         d="m 187.27,39.4883 -28.481,-11.6367 6.762,11.6367 -6.762,11.6015 28.481,-11.6015" /><path
         id="path50"
         style="fill:#ffffff;fill-opacity:1;fill-rule:nonzero;stroke:none"
         d="m 8.67188,174.41 64.29692,0 -0.2696,-7.379 29.8008,20.617 -29.8008,20.633 0.2696,-7.39 -64.29692,0 0,-26.481" /><path
         id="path52"
         style="fill:#ffffff;fill-opacity:1;fill-rule:nonzero;stroke:none"
         d="m 8.67188,113.75 64.29692,0 -0.2696,-7.391 29.8008,20.629 -29.8008,20.621 0.2696,-7.379 -64.29692,0 0,-26.48" /><path
         id="path54"
         style="fill:#ffffff;fill-opacity:1;fill-rule:nonzero;stroke:none"
         d="m 202.301,137.609 64.34,0 -0.27,-9.609 29.801,26.801 -29.801,26.84 0.27,-9.61 -64.34,0 0,-34.422" /><path
         id="path56"
         style="fill:#ffffff;fill-opacity:1;fill-rule:nonzero;stroke:none"
         d="m 202.301,58.75 64.34,0 -0.27,-9.6094 29.801,26.7891 -29.801,26.8403 0.27,-9.6098 -64.34,0 0,-34.4102" /><path
         id="path58"
         style="fill:#ffffff;fill-opacity:1;fill-rule:nonzero;stroke:none"
         d="m 8.67188,53.0781 64.29692,0 -0.2696,-7.3789 29.8008,20.6211 -29.8008,20.6289 0.2696,-7.3789 -64.29692,0 0,-26.4922" /></g></g></svg>