<?xml version="1.0" encoding="UTF-8" standalone="no"?>
<svg
   xmlns:dc="http://purl.org/dc/elements/1.1/"
   xmlns:cc="http://creativecommons.org/ns#"
   xmlns:rdf="http://www.w3.org/1999/02/22-rdf-syntax-ns#"
   xmlns:svg="http://www.w3.org/2000/svg"
   xmlns="http://www.w3.org/2000/svg"
   viewBox="0 0 39.375 31.512501"
   height="31.512501"
   width="39.375"
   xml:space="preserve"
   version="1.1"
   id="svg2"><metadata
     id="metadata8"><rdf:RDF><cc:Work
         rdf:about=""><dc:format>image/svg+xml</dc:format><dc:type
           rdf:resource="http://purl.org/dc/dcmitype/StillImage" /></cc:Work></rdf:RDF></metadata><defs
     id="defs6"><clipPath
       id="clipPath18"
       clipPathUnits="userSpaceOnUse"><path
         id="path20"
         d="M 0,2 0,252 310,252 310,2 0,2 Z" /></clipPath></defs><g
     transform="matrix(1.25,0,0,-1.25,0,31.5125)"
     id="g10"><g
       transform="scale(0.1,0.1)"
       id="g12"><g
         id="g14"><g
           clip-path="url(#clipPath18)"
           id="g16"><path
             id="path22"
             style="fill:#026c9b;fill-opacity:1;fill-rule:nonzero;stroke:none"
             d="m 313.215,192.426 c 0,-31.824 -69.668,-57.629 -155.61,-57.629 C 71.668,134.797 2,160.602 2,192.426 L 2,59.625 C 2,27.7969 71.668,1.99219 157.605,1.99219 c 85.942,0 155.61,25.80471 155.61,57.63281 l 0,132.801" /><path
             id="path24"
             style="fill:none;stroke:#ffffff;stroke-width:4;stroke-linecap:butt;stroke-linejoin:miter;stroke-miterlimit:4;stroke-dasharray:none;stroke-opacity:1"
             d="m 313.215,192.426 c 0,-31.824 -69.668,-57.629 -155.61,-57.629 C 71.668,134.797 2,160.602 2,192.426 L 2,59.625 C 2,27.7969 71.668,1.99219 157.605,1.99219 c 85.942,0 155.61,25.80471 155.61,57.63281 l 0,132.801 z" /><path
             id="path26"
             style="fill:#026c9b;fill-opacity:1;fill-rule:nonzero;stroke:none"
             d="m 157.605,134.797 c 85.942,0 155.61,25.805 155.61,57.629 0,31.832 -69.668,57.633 -155.61,57.633 C 71.668,250.059 2,224.258 2,192.426 2,160.602 71.668,134.797 157.605,134.797" /><path
             id="path28"
             style="fill:none;stroke:#ffffff;stroke-width:4;stroke-linecap:butt;stroke-linejoin:miter;stroke-miterlimit:4;stroke-dasharray:none;stroke-opacity:1"
             d="m 157.605,134.797 c 85.942,0 155.61,25.805 155.61,57.629 0,31.832 -69.668,57.633 -155.61,57.633 C 71.668,250.059 2,224.258 2,192.426 2,160.602 71.668,134.797 157.605,134.797 Z" /></g></g></g></g></svg>