<?xml version="1.0" encoding="UTF-8" standalone="no"?>
<svg
   xmlns:dc="http://purl.org/dc/elements/1.1/"
   xmlns:cc="http://creativecommons.org/ns#"
   xmlns:rdf="http://www.w3.org/1999/02/22-rdf-syntax-ns#"
   xmlns:svg="http://www.w3.org/2000/svg"
   xmlns="http://www.w3.org/2000/svg"
   viewBox="0 0 38.75 31.25"
   height="31.25"
   width="38.75"
   xml:space="preserve"
   version="1.1"
   id="svg2"><metadata
     id="metadata8"><rdf:RDF><cc:Work
         rdf:about=""><dc:format>image/svg+xml</dc:format><dc:type
           rdf:resource="http://purl.org/dc/dcmitype/StillImage" /></cc:Work></rdf:RDF></metadata><defs
     id="defs6" /><g
     transform="matrix(1.25,0,0,-1.25,0,31.25)"
     id="g10"><g
       transform="scale(0.1,0.1)"
       id="g12"><path
         id="path14"
         style="fill:#026c9b;fill-opacity:1;fill-rule:nonzero;stroke:none"
         d="m 313.199,190.43 c 0,-31.84 -69.648,-57.621 -155.578,-57.621 -85.9413,0 -155.63272,25.781 -155.63272,57.621 l 0,-132.8089 C 1.98828,25.7813 71.6797,0 157.621,0 c 85.93,0 155.578,25.7813 155.578,57.6211 l 0,132.8089" /><path
         id="path16"
         style="fill:none;stroke:#ffffff;stroke-width:4;stroke-linecap:butt;stroke-linejoin:miter;stroke-miterlimit:4;stroke-dasharray:none;stroke-opacity:1"
         d="m 313.199,190.43 c 0,-31.84 -69.648,-57.621 -155.578,-57.621 -85.9413,0 -155.63272,25.781 -155.63272,57.621 l 0,-132.8089 C 1.98828,25.7813 71.6797,0 157.621,0 c 85.93,0 155.578,25.7813 155.578,57.6211 l 0,132.8089 z" /><path
         id="path18"
         style="fill:#026c9b;fill-opacity:1;fill-rule:nonzero;stroke:none"
         d="m 157.621,132.809 c 85.93,0 155.578,25.781 155.578,57.621 0,31.84 -69.648,57.621 -155.578,57.621 -85.9413,0 -155.63272,-25.781 -155.63272,-57.621 0,-31.84 69.69142,-57.621 155.63272,-57.621" /><path
         id="path20"
         style="fill:none;stroke:#ffffff;stroke-width:4;stroke-linecap:butt;stroke-linejoin:miter;stroke-miterlimit:4;stroke-dasharray:none;stroke-opacity:1"
         d="m 157.621,132.809 c 85.93,0 155.578,25.781 155.578,57.621 0,31.84 -69.648,57.621 -155.578,57.621 -85.9413,0 -155.63272,-25.781 -155.63272,-57.621 0,-31.84 69.69142,-57.621 155.63272,-57.621 z" /></g></g></svg>