<?xml version="1.0" encoding="UTF-8" standalone="no"?>
<svg
   xmlns:dc="http://purl.org/dc/elements/1.1/"
   xmlns:cc="http://creativecommons.org/ns#"
   xmlns:rdf="http://www.w3.org/1999/02/22-rdf-syntax-ns#"
   xmlns:svg="http://www.w3.org/2000/svg"
   xmlns="http://www.w3.org/2000/svg"
   viewBox="0 0 48.75 27.5"
   height="27.5"
   width="48.75"
   xml:space="preserve"
   version="1.1"
   id="svg2"><metadata
     id="metadata8"><rdf:RDF><cc:Work
         rdf:about=""><dc:format>image/svg+xml</dc:format><dc:type
           rdf:resource="http://purl.org/dc/dcmitype/StillImage" /></cc:Work></rdf:RDF></metadata><defs
     id="defs6" /><g
     transform="matrix(1.25,0,0,-1.25,0,27.5)"
     id="g10"><g
       transform="scale(0.1,0.1)"
       id="g12"><path
         id="path14"
         style="fill:#2b669e;fill-opacity:1;fill-rule:nonzero;stroke:none"
         d="m 6.08984,78.1406 297.77,0 0,74.4492 -297.77,0 0,-74.4492 z" /><path
         id="path16"
         style="fill:none;stroke:#ffffff;stroke-width:4;stroke-linecap:butt;stroke-linejoin:miter;stroke-miterlimit:4;stroke-dasharray:none;stroke-opacity:1"
         d="m 6.08984,78.1445 297.77,0 0,74.4492 -297.77,0 0,-74.4492 z" /><path
         id="path18"
         style="fill:#2b669e;fill-opacity:1;fill-rule:nonzero;stroke:none"
         d="m 303.871,77.7813 0,74.8087 -297.92959,0 73.62889,56.172 285.1997,0 0,-62.34 -60.899,-68.6407" /><path
         id="path20"
         style="fill:none;stroke:#ffffff;stroke-width:4;stroke-linecap:butt;stroke-linejoin:miter;stroke-miterlimit:4;stroke-dasharray:none;stroke-opacity:1"
         d="m 303.871,77.7813 0,74.8127 -297.92959,0 73.62889,56.168 285.1997,0 0,-62.348 -60.899,-68.6327 z" /><path
         id="path22"
         style="fill:#2b669e;fill-opacity:1;fill-rule:nonzero;stroke:none"
         d="m 307.031,153.922 53.36,53.668" /><path
         id="path24"
         style="fill:none;stroke:#ffffff;stroke-width:4;stroke-linecap:butt;stroke-linejoin:miter;stroke-miterlimit:4;stroke-dasharray:none;stroke-opacity:1"
         d="m 307.031,153.914 53.36,53.68" /><path
         id="path26"
         style="fill:#ffffff;fill-opacity:1;fill-rule:nonzero;stroke:none"
         d="m 35.3516,107 47.5,0 0,13.75 -47.5,0 0,-13.75 z" /><path
         id="path28"
         style="fill:#ffffff;fill-opacity:1;fill-rule:nonzero;stroke:none"
         d="m 97.8516,107 47.5,0 0,13.75 -47.5,0 0,-13.75 z" /><path
         id="path30"
         style="fill:#ffffff;fill-opacity:1;fill-rule:nonzero;stroke:none"
         d="m 160.352,107 47.5,0 0,13.75 -47.5,0 0,-13.75 z" /><path
         id="path32"
         style="fill:#ffffff;fill-opacity:1;fill-rule:nonzero;stroke:none"
         d="m 222.852,107 47.5,0 0,13.75 -47.5,0 0,-13.75 z" /><path
         id="path34"
         style="fill:none;stroke:#2b669e;stroke-width:4;stroke-linecap:round;stroke-linejoin:round;stroke-miterlimit:1;stroke-dasharray:none;stroke-opacity:1"
         d="m 385.16,79.7031 c 2.379,-15.4297 -3.129,-33.332 -16.14,-47.5 C 355.352,17.3125 336.84,10.3242 320.66,12.3516" /><path
         id="path36"
         style="fill:none;stroke:#2b669e;stroke-width:4;stroke-linecap:round;stroke-linejoin:round;stroke-miterlimit:1;stroke-dasharray:none;stroke-opacity:1"
         d="m 378.32,81.3711 c 2.192,-14.3672 -2.929,-31.0078 -15.039,-44.168 -12.73,-13.8711 -29.961,-20.3593 -45,-18.5195" /><path
         id="path38"
         style="fill:none;stroke:#2b669e;stroke-width:4;stroke-linecap:round;stroke-linejoin:round;stroke-miterlimit:1;stroke-dasharray:none;stroke-opacity:1"
         d="M 371.449,83.0234 C 373.52,69.7344 368.789,54.3438 357.578,42.1641 345.781,29.3438 329.84,23.332 315.941,25.0508" /><path
         id="path40"
         style="fill:none;stroke:#2b669e;stroke-width:4;stroke-linecap:round;stroke-linejoin:round;stroke-miterlimit:1;stroke-dasharray:none;stroke-opacity:1"
         d="M 364.609,84.7031 C 366.48,72.4727 362.148,58.332 351.84,47.1211 341.02,35.3633 326.371,29.8125 313.59,31.4141" /><path
         id="path42"
         style="fill:none;stroke:#2b669e;stroke-width:4;stroke-linecap:round;stroke-linejoin:round;stroke-miterlimit:1;stroke-dasharray:none;stroke-opacity:1"
         d="M 357.77,86.3438 C 359.488,75.2422 355.512,62.3125 346.129,52.082 336.25,41.3711 322.891,36.3008 311.25,37.7422" /><path
         id="path44"
         style="fill:none;stroke:#2b669e;stroke-width:4;stroke-linecap:round;stroke-linejoin:round;stroke-miterlimit:1;stroke-dasharray:none;stroke-opacity:1"
         d="m 350.941,88.0234 c 1.52,-10.039 -2.07,-21.7617 -10.55,-30.9414 C 331.48,47.3516 319.41,42.8242 308.91,44.1133" /><path
         id="path46"
         style="fill:none;stroke:#2b669e;stroke-width:4;stroke-linecap:round;stroke-linejoin:round;stroke-miterlimit:1;stroke-dasharray:none;stroke-opacity:1"
         d="M 344.059,89.6641 C 345.43,80.6719 342.23,70.2813 334.691,62.043 326.719,53.3711 315.941,49.3008 306.52,50.4844" /><path
         id="path48"
         style="fill:none;stroke:#2b669e;stroke-width:4;stroke-linecap:round;stroke-linejoin:round;stroke-miterlimit:1;stroke-dasharray:none;stroke-opacity:1"
         d="m 337.23,91.3008 c 1.211,-7.8477 -1.609,-17.0274 -8.281,-24.2969 -7,-7.6211 -16.488,-11.2109 -24.769,-10.2031" /></g></g></svg>