<?xml version="1.0" encoding="UTF-8" standalone="no"?>
<svg
   xmlns:dc="http://purl.org/dc/elements/1.1/"
   xmlns:cc="http://creativecommons.org/ns#"
   xmlns:rdf="http://www.w3.org/1999/02/22-rdf-syntax-ns#"
   xmlns:svg="http://www.w3.org/2000/svg"
   xmlns="http://www.w3.org/2000/svg"
   viewBox="0 0 55 83.75"
   height="83.75"
   width="55"
   xml:space="preserve"
   version="1.1"
   id="svg2"><metadata
     id="metadata8"><rdf:RDF><cc:Work
         rdf:about=""><dc:format>image/svg+xml</dc:format><dc:type
           rdf:resource="http://purl.org/dc/dcmitype/StillImage" /></cc:Work></rdf:RDF></metadata><defs
     id="defs6" /><g
     transform="matrix(1.25,0,0,-1.25,0,83.75)"
     id="g10"><g
       transform="scale(0.1,0.1)"
       id="g12"><path
         id="path14"
         style="fill:#036998;fill-opacity:1;fill-rule:nonzero;stroke:none"
         d="m 4.83984,14.8281 86.3711,0 0,257.703 -86.3711,0 0,-257.703 z" /><path
         id="path16"
         style="fill:none;stroke:#ffffff;stroke-width:3.99993992;stroke-linecap:butt;stroke-linejoin:miter;stroke-miterlimit:4;stroke-dasharray:none;stroke-opacity:1"
         d="m 91.2109,272.535 -86.37106,0 0,-257.703 86.37106,0" /><path
         id="path18"
         style="fill:#036998;fill-opacity:1;fill-rule:nonzero;stroke:none"
         d="m 91.2109,14.8398 47.7691,47.7696 0,257.6996 -86.3589,0 -47.78126,-47.778 86.37106,0 0,-257.6912" /><path
         id="path20"
         style="fill:none;stroke:#ffffff;stroke-width:3.99993992;stroke-linecap:butt;stroke-linejoin:miter;stroke-miterlimit:4;stroke-dasharray:none;stroke-opacity:1"
         d="m 91.2109,14.832 47.7691,47.7813 0,257.6917 -86.3589,0 -47.78126,-47.77 86.37106,0 0,-257.703 z" /><path
         id="path22"
         style="fill:#036998;fill-opacity:1;fill-rule:nonzero;stroke:none"
         d="M 91.2109,272.531 138.98,320.309" /><path
         id="path24"
         style="fill:none;stroke:#ffffff;stroke-width:3.99993992;stroke-linecap:butt;stroke-linejoin:miter;stroke-miterlimit:4;stroke-dasharray:none;stroke-opacity:1"
         d="m 91.2109,272.535 47.7691,47.77" /><path
         id="path26"
         style="fill:#036998;fill-opacity:1;fill-rule:nonzero;stroke:none"
         d="m 91.2109,14.8398 176.168,0 0,576.91 -176.168,0 0,-576.91 z" /><path
         id="path28"
         style="fill:none;stroke:#ffffff;stroke-width:3.99993992;stroke-linecap:butt;stroke-linejoin:miter;stroke-miterlimit:4;stroke-dasharray:none;stroke-opacity:1"
         d="m 267.379,591.754 -176.1681,0 0,-576.922 176.1681,0" /><path
         id="path30"
         style="fill:#036998;fill-opacity:1;fill-rule:nonzero;stroke:none"
         d="m 267.379,14.8398 71.641,71.6407 0,576.9105 -176.129,0 -71.6801,-71.641 176.1681,0 0,-576.9102" /><path
         id="path32"
         style="fill:none;stroke:#ffffff;stroke-width:3.99993992;stroke-linecap:butt;stroke-linejoin:miter;stroke-miterlimit:4;stroke-dasharray:none;stroke-opacity:1"
         d="m 267.379,14.832 71.641,71.6407 0,576.9223 -176.129,0 -71.6801,-71.641 176.1681,0 0,-576.922 z" /><path
         id="path34"
         style="fill:#036998;fill-opacity:1;fill-rule:nonzero;stroke:none"
         d="m 267.379,591.75 71.641,71.641" /><path
         id="path36"
         style="fill:none;stroke:#ffffff;stroke-width:3.99993992;stroke-linecap:butt;stroke-linejoin:miter;stroke-miterlimit:4;stroke-dasharray:none;stroke-opacity:1"
         d="m 267.379,591.754 71.641,71.641" /><path
         id="path38"
         style="fill:#036998;fill-opacity:1;fill-rule:nonzero;stroke:none"
         d="m 182.969,354.949 0,-26.91 26.953,0" /><path
         id="path40"
         style="fill:none;stroke:#ffffff;stroke-width:3.99993992;stroke-linecap:butt;stroke-linejoin:miter;stroke-miterlimit:4;stroke-dasharray:none;stroke-opacity:1"
         d="m 182.969,354.953 0,-26.91 26.953,0" /><path
         id="path42"
         style="fill:#036998;fill-opacity:1;fill-rule:nonzero;stroke:none"
         d="m 220.551,354.949 0,-26.91 26.91,0" /><path
         id="path44"
         style="fill:none;stroke:#ffffff;stroke-width:3.99993992;stroke-linecap:butt;stroke-linejoin:miter;stroke-miterlimit:4;stroke-dasharray:none;stroke-opacity:1"
         d="m 220.551,354.953 0,-26.91 26.91,0" /><path
         id="path46"
         style="fill:#036998;fill-opacity:1;fill-rule:nonzero;stroke:none"
         d="m 107.461,354.25 0,-26.949 26.918,0" /><path
         id="path48"
         style="fill:none;stroke:#ffffff;stroke-width:3.99993992;stroke-linecap:butt;stroke-linejoin:miter;stroke-miterlimit:4;stroke-dasharray:none;stroke-opacity:1"
         d="m 107.461,354.254 0,-26.961 26.918,0" /><path
         id="path50"
         style="fill:#036998;fill-opacity:1;fill-rule:nonzero;stroke:none"
         d="m 145,354.25 0,-26.949 26.949,0" /><path
         id="path52"
         style="fill:none;stroke:#ffffff;stroke-width:3.99993992;stroke-linecap:butt;stroke-linejoin:miter;stroke-miterlimit:4;stroke-dasharray:none;stroke-opacity:1"
         d="m 145,354.254 0,-26.961 26.949,0" /><path
         id="path54"
         style="fill:#036998;fill-opacity:1;fill-rule:nonzero;stroke:none"
         d="m 182.66,298.898 0,-26.91 26.949,0" /><path
         id="path56"
         style="fill:none;stroke:#ffffff;stroke-width:3.99993992;stroke-linecap:butt;stroke-linejoin:miter;stroke-miterlimit:4;stroke-dasharray:none;stroke-opacity:1"
         d="m 182.66,298.902 0,-26.918 26.949,0" /><path
         id="path58"
         style="fill:#036998;fill-opacity:1;fill-rule:nonzero;stroke:none"
         d="m 220.23,298.898 0,-26.91 26.918,0" /><path
         id="path60"
         style="fill:none;stroke:#ffffff;stroke-width:3.99993992;stroke-linecap:butt;stroke-linejoin:miter;stroke-miterlimit:4;stroke-dasharray:none;stroke-opacity:1"
         d="m 220.23,298.902 0,-26.918 26.918,0" /><path
         id="path62"
         style="fill:#036998;fill-opacity:1;fill-rule:nonzero;stroke:none"
         d="m 107.148,298.199 0,-26.918 26.911,0" /><path
         id="path64"
         style="fill:none;stroke:#ffffff;stroke-width:3.99993992;stroke-linecap:butt;stroke-linejoin:miter;stroke-miterlimit:4;stroke-dasharray:none;stroke-opacity:1"
         d="m 107.148,298.195 0,-26.91 26.911,0" /><path
         id="path66"
         style="fill:#036998;fill-opacity:1;fill-rule:nonzero;stroke:none"
         d="m 144.691,298.199 0,-26.918 26.95,0" /><path
         id="path68"
         style="fill:none;stroke:#ffffff;stroke-width:3.99993992;stroke-linecap:butt;stroke-linejoin:miter;stroke-miterlimit:4;stroke-dasharray:none;stroke-opacity:1"
         d="m 144.691,298.195 0,-26.91 26.95,0" /><path
         id="path70"
         style="fill:none;stroke:#ffffff;stroke-width:3.99993992;stroke-linecap:butt;stroke-linejoin:miter;stroke-miterlimit:4;stroke-dasharray:none;stroke-opacity:1"
         d="m 182.66,245.223 0,-26.91 26.949,0" /><path
         id="path72"
         style="fill:none;stroke:#ffffff;stroke-width:3.99993992;stroke-linecap:butt;stroke-linejoin:miter;stroke-miterlimit:4;stroke-dasharray:none;stroke-opacity:1"
         d="m 220.23,245.223 0,-26.91 26.918,0" /><path
         id="path74"
         style="fill:none;stroke:#ffffff;stroke-width:3.99993992;stroke-linecap:butt;stroke-linejoin:miter;stroke-miterlimit:4;stroke-dasharray:none;stroke-opacity:1"
         d="m 107.148,244.523 0,-26.91 26.911,0" /><path
         id="path76"
         style="fill:none;stroke:#ffffff;stroke-width:3.99993992;stroke-linecap:butt;stroke-linejoin:miter;stroke-miterlimit:4;stroke-dasharray:none;stroke-opacity:1"
         d="m 144.691,244.523 0,-26.91 26.95,0" /><path
         id="path78"
         style="fill:none;stroke:#ffffff;stroke-width:3.99993992;stroke-linecap:butt;stroke-linejoin:miter;stroke-miterlimit:4;stroke-dasharray:none;stroke-opacity:1"
         d="m 17.3398,250.695 0,-26.91 26.9219,0" /><path
         id="path80"
         style="fill:none;stroke:#ffffff;stroke-width:3.99993992;stroke-linecap:butt;stroke-linejoin:miter;stroke-miterlimit:4;stroke-dasharray:none;stroke-opacity:1"
         d="m 54.8789,250.695 0,-26.91 26.9609,0" /><path
         id="path82"
         style="fill:none;stroke:#ffffff;stroke-width:3.99993992;stroke-linecap:butt;stroke-linejoin:miter;stroke-miterlimit:4;stroke-dasharray:none;stroke-opacity:1"
         d="m 19.3789,200.074 0,-26.922 26.9102,0" /><path
         id="path84"
         style="fill:none;stroke:#ffffff;stroke-width:3.99993992;stroke-linecap:butt;stroke-linejoin:miter;stroke-miterlimit:4;stroke-dasharray:none;stroke-opacity:1"
         d="m 56.9102,200.074 0,-26.922 26.9609,0" /><path
         id="path86"
         style="fill:none;stroke:#ffffff;stroke-width:3.99993992;stroke-linecap:butt;stroke-linejoin:miter;stroke-miterlimit:4;stroke-dasharray:none;stroke-opacity:1"
         d="m 19.3789,154.523 0,-26.949 26.9102,0" /><path
         id="path88"
         style="fill:none;stroke:#ffffff;stroke-width:3.99993992;stroke-linecap:butt;stroke-linejoin:miter;stroke-miterlimit:4;stroke-dasharray:none;stroke-opacity:1"
         d="m 56.9102,154.523 0,-26.949 26.9609,0" /><path
         id="path90"
         style="fill:#036998;fill-opacity:1;fill-rule:nonzero;stroke:none"
         d="m 183.711,563.039 0,-26.91 26.949,0" /><path
         id="path92"
         style="fill:none;stroke:#ffffff;stroke-width:3.99993992;stroke-linecap:butt;stroke-linejoin:miter;stroke-miterlimit:4;stroke-dasharray:none;stroke-opacity:1"
         d="m 183.711,563.043 0,-26.918 26.949,0" /><path
         id="path94"
         style="fill:#036998;fill-opacity:1;fill-rule:nonzero;stroke:none"
         d="m 221.289,563.039 0,-26.91 26.949,0" /><path
         id="path96"
         style="fill:none;stroke:#ffffff;stroke-width:3.99993992;stroke-linecap:butt;stroke-linejoin:miter;stroke-miterlimit:4;stroke-dasharray:none;stroke-opacity:1"
         d="m 221.289,563.043 0,-26.918 26.949,0" /><path
         id="path98"
         style="fill:#036998;fill-opacity:1;fill-rule:nonzero;stroke:none"
         d="m 108.199,562.34 0,-26.918 26.922,0" /><path
         id="path100"
         style="fill:none;stroke:#ffffff;stroke-width:3.99993992;stroke-linecap:butt;stroke-linejoin:miter;stroke-miterlimit:4;stroke-dasharray:none;stroke-opacity:1"
         d="m 108.199,562.332 0,-26.91 26.922,0" /><path
         id="path102"
         style="fill:#036998;fill-opacity:1;fill-rule:nonzero;stroke:none"
         d="m 145.738,562.34 0,-26.918 26.961,0" /><path
         id="path104"
         style="fill:none;stroke:#ffffff;stroke-width:3.99993992;stroke-linecap:butt;stroke-linejoin:miter;stroke-miterlimit:4;stroke-dasharray:none;stroke-opacity:1"
         d="m 145.738,562.332 0,-26.91 26.961,0" /><path
         id="path106"
         style="fill:#036998;fill-opacity:1;fill-rule:nonzero;stroke:none"
         d="m 183.441,507.02 0,-26.95 26.911,0" /><path
         id="path108"
         style="fill:none;stroke:#ffffff;stroke-width:3.99993992;stroke-linecap:butt;stroke-linejoin:miter;stroke-miterlimit:4;stroke-dasharray:none;stroke-opacity:1"
         d="m 183.441,507.023 0,-26.949 26.911,0" /><path
         id="path110"
         style="fill:#036998;fill-opacity:1;fill-rule:nonzero;stroke:none"
         d="m 220.98,507.02 0,-26.95 26.95,0" /><path
         id="path112"
         style="fill:none;stroke:#ffffff;stroke-width:3.99993992;stroke-linecap:butt;stroke-linejoin:miter;stroke-miterlimit:4;stroke-dasharray:none;stroke-opacity:1"
         d="m 220.98,507.023 0,-26.949 26.95,0" /><path
         id="path114"
         style="fill:#036998;fill-opacity:1;fill-rule:nonzero;stroke:none"
         d="m 107.891,506.32 0,-26.949 26.949,0" /><path
         id="path116"
         style="fill:none;stroke:#ffffff;stroke-width:3.99993992;stroke-linecap:butt;stroke-linejoin:miter;stroke-miterlimit:4;stroke-dasharray:none;stroke-opacity:1"
         d="m 107.891,506.324 0,-26.961 26.949,0" /><path
         id="path118"
         style="fill:#036998;fill-opacity:1;fill-rule:nonzero;stroke:none"
         d="m 145.469,506.32 0,-26.949 26.91,0" /><path
         id="path120"
         style="fill:none;stroke:#ffffff;stroke-width:3.99993992;stroke-linecap:butt;stroke-linejoin:miter;stroke-miterlimit:4;stroke-dasharray:none;stroke-opacity:1"
         d="m 145.469,506.324 0,-26.961 26.91,0" /><path
         id="path122"
         style="fill:#036998;fill-opacity:1;fill-rule:nonzero;stroke:none"
         d="m 183.441,453.352 0,-26.954 26.911,0" /><path
         id="path124"
         style="fill:none;stroke:#ffffff;stroke-width:3.99993992;stroke-linecap:butt;stroke-linejoin:miter;stroke-miterlimit:4;stroke-dasharray:none;stroke-opacity:1"
         d="m 183.441,453.355 0,-26.953 26.911,0" /><path
         id="path126"
         style="fill:#036998;fill-opacity:1;fill-rule:nonzero;stroke:none"
         d="m 220.98,453.352 0,-26.954 26.95,0" /><path
         id="path128"
         style="fill:none;stroke:#ffffff;stroke-width:3.99993992;stroke-linecap:butt;stroke-linejoin:miter;stroke-miterlimit:4;stroke-dasharray:none;stroke-opacity:1"
         d="m 220.98,453.355 0,-26.953 26.95,0" /><path
         id="path130"
         style="fill:#036998;fill-opacity:1;fill-rule:nonzero;stroke:none"
         d="m 107.891,452.648 0,-26.949 26.949,0" /><path
         id="path132"
         style="fill:none;stroke:#ffffff;stroke-width:3.99993992;stroke-linecap:butt;stroke-linejoin:miter;stroke-miterlimit:4;stroke-dasharray:none;stroke-opacity:1"
         d="m 107.891,452.652 0,-26.957 26.949,0" /><path
         id="path134"
         style="fill:#036998;fill-opacity:1;fill-rule:nonzero;stroke:none"
         d="m 145.469,452.648 0,-26.949 26.91,0" /><path
         id="path136"
         style="fill:none;stroke:#ffffff;stroke-width:3.99993992;stroke-linecap:butt;stroke-linejoin:miter;stroke-miterlimit:4;stroke-dasharray:none;stroke-opacity:1"
         d="m 145.469,452.652 0,-26.957 26.91,0" /><path
         id="path138"
         style="fill:#036998;fill-opacity:1;fill-rule:nonzero;stroke:none"
         d="m 183.441,403.738 0,-26.91 26.911,0" /><path
         id="path140"
         style="fill:none;stroke:#ffffff;stroke-width:3.99993992;stroke-linecap:butt;stroke-linejoin:miter;stroke-miterlimit:4;stroke-dasharray:none;stroke-opacity:1"
         d="m 183.441,403.742 0,-26.91 26.911,0" /><path
         id="path142"
         style="fill:#036998;fill-opacity:1;fill-rule:nonzero;stroke:none"
         d="m 220.98,403.738 0,-26.91 26.95,0" /><path
         id="path144"
         style="fill:none;stroke:#ffffff;stroke-width:3.99993992;stroke-linecap:butt;stroke-linejoin:miter;stroke-miterlimit:4;stroke-dasharray:none;stroke-opacity:1"
         d="m 220.98,403.742 0,-26.91 26.95,0" /><path
         id="path146"
         style="fill:#036998;fill-opacity:1;fill-rule:nonzero;stroke:none"
         d="m 107.891,403.039 0,-26.949 26.949,0" /><path
         id="path148"
         style="fill:none;stroke:#ffffff;stroke-width:3.99993992;stroke-linecap:butt;stroke-linejoin:miter;stroke-miterlimit:4;stroke-dasharray:none;stroke-opacity:1"
         d="m 107.891,403.043 0,-26.961 26.949,0" /><path
         id="path150"
         style="fill:#036998;fill-opacity:1;fill-rule:nonzero;stroke:none"
         d="m 145.469,403.039 0,-26.949 26.91,0" /><path
         id="path152"
         style="fill:none;stroke:#ffffff;stroke-width:3.99993992;stroke-linecap:butt;stroke-linejoin:miter;stroke-miterlimit:4;stroke-dasharray:none;stroke-opacity:1"
         d="m 145.469,403.043 0,-26.961 26.91,0" /><path
         id="path154"
         style="fill:none;stroke:#ffffff;stroke-width:3.99993992;stroke-linecap:butt;stroke-linejoin:miter;stroke-miterlimit:4;stroke-dasharray:none;stroke-opacity:1"
         d="m 285.82,334.293 0,-26.918" /><path
         id="path156"
         style="fill:none;stroke:#ffffff;stroke-width:3.99993992;stroke-linecap:butt;stroke-linejoin:miter;stroke-miterlimit:4;stroke-dasharray:none;stroke-opacity:1"
         d="m 285.82,288.043 0,-26.918" /><path
         id="path158"
         style="fill:#036998;fill-opacity:1;fill-rule:nonzero;stroke:none"
         d="m 267.891,14.8398 95.5078,0 0,486.09 -95.5078,0 0,-486.09 z" /><path
         id="path160"
         style="fill:none;stroke:#ffffff;stroke-width:3.99993992;stroke-linecap:butt;stroke-linejoin:miter;stroke-miterlimit:4;stroke-dasharray:none;stroke-opacity:1"
         d="m 363.398,500.934 -95.507,0 0,-486.102 95.507,0" /><path
         id="path162"
         style="fill:#036998;fill-opacity:1;fill-rule:nonzero;stroke:none"
         d="m 363.398,14.8398 70.043,70.0391 0,486.1331 -95.511,0 -70.039,-70.082 95.507,0 0,-486.0902" /><path
         id="path164"
         style="fill:none;stroke:#ffffff;stroke-width:3.99993992;stroke-linecap:butt;stroke-linejoin:miter;stroke-miterlimit:4;stroke-dasharray:none;stroke-opacity:1"
         d="m 363.398,14.832 70.043,70.043 0,486.129 -95.511,0 -70.039,-70.07 95.507,0 0,-486.102 z" /><path
         id="path166"
         style="fill:#036998;fill-opacity:1;fill-rule:nonzero;stroke:none"
         d="m 285.66,478.238 0,-26.918 26.918,0" /><path
         id="path168"
         style="fill:none;stroke:#ffffff;stroke-width:3.99993992;stroke-linecap:butt;stroke-linejoin:miter;stroke-miterlimit:4;stroke-dasharray:none;stroke-opacity:1"
         d="m 285.66,478.234 0,-26.91 26.918,0" /><path
         id="path170"
         style="fill:#036998;fill-opacity:1;fill-rule:nonzero;stroke:none"
         d="m 323.199,478.238 0,-26.918 26.961,0" /><path
         id="path172"
         style="fill:none;stroke:#ffffff;stroke-width:3.99993992;stroke-linecap:butt;stroke-linejoin:miter;stroke-miterlimit:4;stroke-dasharray:none;stroke-opacity:1"
         d="m 323.199,478.234 0,-26.91 26.961,0" /><path
         id="path174"
         style="fill:#036998;fill-opacity:1;fill-rule:nonzero;stroke:none"
         d="m 285.199,427.609 0,-26.91 26.91,0" /><path
         id="path176"
         style="fill:none;stroke:#ffffff;stroke-width:3.99993992;stroke-linecap:butt;stroke-linejoin:miter;stroke-miterlimit:4;stroke-dasharray:none;stroke-opacity:1"
         d="m 285.199,427.613 0,-26.918 26.91,0" /><path
         id="path178"
         style="fill:#036998;fill-opacity:1;fill-rule:nonzero;stroke:none"
         d="m 322.73,427.609 0,-26.91 26.961,0" /><path
         id="path180"
         style="fill:none;stroke:#ffffff;stroke-width:3.99993992;stroke-linecap:butt;stroke-linejoin:miter;stroke-miterlimit:4;stroke-dasharray:none;stroke-opacity:1"
         d="m 322.73,427.613 0,-26.918 26.961,0" /><path
         id="path182"
         style="fill:#036998;fill-opacity:1;fill-rule:nonzero;stroke:none"
         d="m 285.199,382.059 0,-26.95 26.91,0" /><path
         id="path184"
         style="fill:none;stroke:#ffffff;stroke-width:3.99993992;stroke-linecap:butt;stroke-linejoin:miter;stroke-miterlimit:4;stroke-dasharray:none;stroke-opacity:1"
         d="m 285.199,382.063 0,-26.95 26.91,0" /><path
         id="path186"
         style="fill:#036998;fill-opacity:1;fill-rule:nonzero;stroke:none"
         d="m 322.73,382.059 0,-26.95 26.961,0" /><path
         id="path188"
         style="fill:none;stroke:#ffffff;stroke-width:3.99993992;stroke-linecap:butt;stroke-linejoin:miter;stroke-miterlimit:4;stroke-dasharray:none;stroke-opacity:1"
         d="m 322.73,382.063 0,-26.95 26.961,0" /><path
         id="path190"
         style="fill:none;stroke:#ffffff;stroke-width:3.99993992;stroke-linecap:butt;stroke-linejoin:miter;stroke-miterlimit:4;stroke-dasharray:none;stroke-opacity:1"
         d="m 284.801,307.375 26.961,0" /><path
         id="path192"
         style="fill:#036998;fill-opacity:1;fill-rule:nonzero;stroke:none"
         d="m 322.379,334.289 0,-26.91 26.922,0" /><path
         id="path194"
         style="fill:none;stroke:#ffffff;stroke-width:3.99993992;stroke-linecap:butt;stroke-linejoin:miter;stroke-miterlimit:4;stroke-dasharray:none;stroke-opacity:1"
         d="m 322.379,334.293 0,-26.918 26.922,0" /><path
         id="path196"
         style="fill:none;stroke:#ffffff;stroke-width:3.99993992;stroke-linecap:butt;stroke-linejoin:miter;stroke-miterlimit:4;stroke-dasharray:none;stroke-opacity:1"
         d="m 284.801,261.125 26.961,0" /><path
         id="path198"
         style="fill:#036998;fill-opacity:1;fill-rule:nonzero;stroke:none"
         d="m 322.379,288.039 0,-26.91 26.922,0" /><path
         id="path200"
         style="fill:none;stroke:#ffffff;stroke-width:3.99993992;stroke-linecap:butt;stroke-linejoin:miter;stroke-miterlimit:4;stroke-dasharray:none;stroke-opacity:1"
         d="m 322.379,288.043 0,-26.918 26.922,0" /><path
         id="path202"
         style="fill:#ffffff;fill-opacity:1;fill-rule:nonzero;stroke:none"
         d="m 327.148,142.922 c 0,-21.992 -45.777,-39.801 -102.269,-39.801 -56.481,0 -102.258,17.809 -102.258,39.801 l 0,-58.2814 c 0,-21.9492 45.777,-39.7617 102.258,-39.7617 56.492,0 102.269,17.8125 102.269,39.7617 l 0,58.2814" /><path
         id="path204"
         style="fill:none;stroke:#036998;stroke-width:3.99993992;stroke-linecap:butt;stroke-linejoin:miter;stroke-miterlimit:4;stroke-dasharray:none;stroke-opacity:1"
         d="m 327.148,142.922 c 0,-21.988 -45.777,-39.809 -102.269,-39.809 -56.481,0 -102.258,17.821 -102.258,39.809 l 0,-58.2775 c 0,-21.9609 45.777,-39.7695 102.258,-39.7695 56.492,0 102.269,17.8086 102.269,39.7695 l 0,58.2775 z" /><path
         id="path206"
         style="fill:#ffffff;fill-opacity:1;fill-rule:nonzero;stroke:none"
         d="m 224.879,103.121 c 56.492,0 102.269,17.809 102.269,39.801 0,21.957 -45.777,39.769 -102.269,39.769 -56.481,0 -102.258,-17.812 -102.258,-39.769 0,-21.992 45.777,-39.801 102.258,-39.801" /><path
         id="path208"
         style="fill:none;stroke:#036998;stroke-width:3.99993992;stroke-linecap:butt;stroke-linejoin:miter;stroke-miterlimit:4;stroke-dasharray:none;stroke-opacity:1"
         d="m 224.879,103.113 c 56.492,0 102.269,17.821 102.269,39.809 0,21.953 -45.777,39.762 -102.269,39.762 -56.481,0 -102.258,-17.809 -102.258,-39.762 0,-21.988 45.777,-39.809 102.258,-39.809 z" /><path
         id="path210"
         style="fill:#036998;fill-opacity:1;fill-rule:nonzero;stroke:none"
         d="m 193.871,153.391 11.949,-6.332 -26.172,-4.84 6.09,5.082 -45.468,7.379 3.789,3.05 45.242,-7.39 4.57,3.051" /><path
         id="path212"
         style="fill:#036998;fill-opacity:1;fill-rule:nonzero;stroke:none"
         d="m 256.172,133.391 -11.871,6.449 26.211,4.648 -6.133,-5.039 45.422,-7.738 -3.86,-3.012 -45.16,7.699 -4.609,-3.007" /><path
         id="path214"
         style="fill:#036998;fill-opacity:1;fill-rule:nonzero;stroke:none"
         d="m 242.66,166.629 22.891,9.422 -3.051,-11.723 -6.879,0.512 -17.262,-14.5 -5.859,1.289 17.27,13.992 -7.11,1.008" /><path
         id="path216"
         style="fill:#036998;fill-opacity:1;fill-rule:nonzero;stroke:none"
         d="m 210.738,120.578 -22.726,-9.726 2.847,11.757 6.871,-0.429 16.571,13.98 5.859,-1.211 -16.57,-13.469 7.148,-0.902" /><path
         id="path218"
         style="fill:#036998;fill-opacity:1;fill-rule:nonzero;stroke:none"
         d="m 364.41,500.93 70.039,70.082" /><path
         id="path220"
         style="fill:none;stroke:#ffffff;stroke-width:3.99993992;stroke-linecap:butt;stroke-linejoin:miter;stroke-miterlimit:4;stroke-dasharray:none;stroke-opacity:1"
         d="m 364.41,500.934 70.039,70.07" /></g></g></svg>