<?xml version="1.0" encoding="UTF-8" standalone="no"?>
<svg
   xmlns:dc="http://purl.org/dc/elements/1.1/"
   xmlns:cc="http://creativecommons.org/ns#"
   xmlns:rdf="http://www.w3.org/1999/02/22-rdf-syntax-ns#"
   xmlns:svg="http://www.w3.org/2000/svg"
   xmlns="http://www.w3.org/2000/svg"
   viewBox="0 0 46.25 38.75"
   height="38.75"
   width="46.25"
   xml:space="preserve"
   version="1.1"
   id="svg2"><metadata
     id="metadata8"><rdf:RDF><cc:Work
         rdf:about=""><dc:format>image/svg+xml</dc:format><dc:type
           rdf:resource="http://purl.org/dc/dcmitype/StillImage" /></cc:Work></rdf:RDF></metadata><defs
     id="defs6"><clipPath
       id="clipPath18"
       clipPathUnits="userSpaceOnUse"><path
         id="path20"
         d="M 0,9 0,308 370,308 370,9 0,9 Z" /></clipPath></defs><g
     transform="matrix(1.25,0,0,-1.25,0,38.75)"
     id="g10"><g
       transform="scale(0.1,0.1)"
       id="g12"><g
         id="g14"><g
           clip-path="url(#clipPath18)"
           id="g16"><path
             id="path22"
             style="fill:#026c9b;fill-opacity:1;fill-rule:nonzero;stroke:none"
             d="m 369.879,188.27 c 0,-39.489 -82.379,-71.52 -183.938,-71.52 -101.5621,0 -183.95272,32.031 -183.95272,71.52 l 0,-104.7583 c 0,-39.4922 82.39062,-71.5312 183.95272,-71.5312 101.559,0 183.938,32.039 183.938,71.5312 l 0,104.7583" /><path
             id="path24"
             style="fill:none;stroke:#ffffff;stroke-width:4;stroke-linecap:butt;stroke-linejoin:miter;stroke-miterlimit:4;stroke-dasharray:none;stroke-opacity:1"
             d="m 369.879,188.27 c 0,-39.489 -82.379,-71.52 -183.938,-71.52 -101.5621,0 -183.95272,32.031 -183.95272,71.52 l 0,-104.7583 c 0,-39.4922 82.39062,-71.5312 183.95272,-71.5312 101.559,0 183.938,32.039 183.938,71.5312 l 0,104.7583 z" /><path
             id="path26"
             style="fill:#026c9b;fill-opacity:1;fill-rule:nonzero;stroke:none"
             d="m 185.941,116.75 c 101.559,0 183.938,32.031 183.938,71.52 0,39.5 -82.379,71.531 -183.938,71.531 -101.5621,0 -183.95272,-32.031 -183.95272,-71.531 0,-39.489 82.39062,-71.52 183.95272,-71.52" /><path
             id="path28"
             style="fill:none;stroke:#ffffff;stroke-width:4;stroke-linecap:butt;stroke-linejoin:miter;stroke-miterlimit:4;stroke-dasharray:none;stroke-opacity:1"
             d="m 185.941,116.75 c 101.559,0 183.938,32.031 183.938,71.52 0,39.5 -82.379,71.531 -183.938,71.531 -101.5621,0 -183.95272,-32.031 -183.95272,-71.531 0,-39.489 82.39062,-71.52 183.95272,-71.52 z" /><path
             id="path30"
             style="fill:#026c9b;fill-opacity:1;fill-rule:nonzero;stroke:none"
             d="m 185.898,163.98 c 101.172,0 183.204,31.911 183.204,71.25 0,39.329 -82.032,71.25 -183.204,71.25 -101.1675,0 -183.16753,-31.921 -183.16753,-71.25 0,-39.339 82.00003,-71.25 183.16753,-71.25" /><path
             id="path32"
             style="fill:none;stroke:#ffffff;stroke-width:4;stroke-linecap:butt;stroke-linejoin:miter;stroke-miterlimit:4;stroke-dasharray:none;stroke-opacity:1"
             d="m 185.898,163.98 c 101.172,0 183.204,31.911 183.204,71.25 0,39.329 -82.032,71.25 -183.204,71.25 -101.1675,0 -183.16753,-31.921 -183.16753,-71.25 0,-39.339 82.00003,-71.25 183.16753,-71.25 z" /><path
             id="path34"
             style="fill:#026c9b;fill-opacity:1;fill-rule:nonzero;stroke:none"
             d="m 369.102,235.23 c 0,-39.339 -82.032,-71.25 -183.204,-71.25 -101.1675,0 -183.16753,31.911 -183.16753,71.25 l 0,-50.468 c 0,-39.383 82.00003,-71.25 183.16753,-71.25 101.172,0 183.204,31.867 183.204,71.25 l 0,50.468" /><path
             id="path36"
             style="fill:none;stroke:#ffffff;stroke-width:4;stroke-linecap:butt;stroke-linejoin:miter;stroke-miterlimit:4;stroke-dasharray:none;stroke-opacity:1"
             d="m 369.102,235.23 c 0,-39.339 -82.032,-71.25 -183.204,-71.25 -101.1675,0 -183.16753,31.911 -183.16753,71.25 l 0,-50.468 c 0,-39.383 82.00003,-71.25 183.16753,-71.25 101.172,0 183.204,31.867 183.204,71.25 l 0,50.468 z" /><path
             id="path38"
             style="fill:#ffffff;fill-opacity:1;fill-rule:nonzero;stroke:none"
             d="m 143.949,266.238 15.192,-22.769 -57.461,-13.278 12.539,10.43 -88.7073,15.188 22.2188,16.679 85.6675,-14.488 10.551,8.238" /><path
             id="path40"
             style="fill:#ffffff;fill-opacity:1;fill-rule:nonzero;stroke:none"
             d="m 224.73,211.012 -10.351,23.468 51.793,10.36 -8.981,-8.051 86.329,-14.769 -20.711,-16.559 -85.821,16.129 -12.258,-10.578" /><path
             id="path42"
             style="fill:#ffffff;fill-opacity:1;fill-rule:nonzero;stroke:none"
             d="m 196.41,278.66 58,15.899 0.711,-24.879 -14.5,2.769 -28.32,-23.469 -27.031,3.942 29.218,22.969 -18.078,2.769" /><path
             id="path44"
             style="fill:#ffffff;fill-opacity:1;fill-rule:nonzero;stroke:none"
             d="m 171.559,189.559 -55.27,-10.348 -2.07,25.551 15.902,-3.442 30.43,25.981 26.871,-4.571 -32.422,-28.281 16.559,-4.89" /><path
             id="path46"
             style="fill:none;stroke:#ffffff;stroke-width:3;stroke-linecap:butt;stroke-linejoin:miter;stroke-miterlimit:4;stroke-dasharray:none;stroke-opacity:1"
             d="m 144.219,231.551 49.492,-3.242" /><path
             id="path48"
             style="fill:none;stroke:#ffffff;stroke-width:3;stroke-linecap:butt;stroke-linejoin:miter;stroke-miterlimit:4;stroke-dasharray:none;stroke-opacity:1"
             d="m 39.7695,238.16 50.8907,-3.281" /><path
             id="path50"
             style="fill:none;stroke:#ffffff;stroke-width:3;stroke-linecap:butt;stroke-linejoin:miter;stroke-miterlimit:4;stroke-dasharray:none;stroke-opacity:1"
             d="m 18.3984,260.93 41.0118,-3.551" /><path
             id="path52"
             style="fill:none;stroke:#ffffff;stroke-width:3;stroke-linecap:butt;stroke-linejoin:miter;stroke-miterlimit:4;stroke-dasharray:none;stroke-opacity:1"
             d="M 63.9102,259.129 13.3984,217.18" /><path
             id="path54"
             style="fill:none;stroke:#ffffff;stroke-width:3;stroke-linecap:butt;stroke-linejoin:miter;stroke-miterlimit:4;stroke-dasharray:none;stroke-opacity:1"
             d="M 114.34,253.039 43.3984,193.43" /><path
             id="path56"
             style="fill:none;stroke:#ffffff;stroke-width:3;stroke-linecap:butt;stroke-linejoin:miter;stroke-miterlimit:4;stroke-dasharray:none;stroke-opacity:1"
             d="M 169.648,250.578 82.6211,179.879" /><path
             id="path58"
             style="fill:none;stroke:#ffffff;stroke-width:3;stroke-linecap:butt;stroke-linejoin:miter;stroke-miterlimit:4;stroke-dasharray:none;stroke-opacity:1"
             d="m 64.6094,211.75 51.1716,-3.281" /><path
             id="path60"
             style="fill:none;stroke:#ffffff;stroke-width:3;stroke-linecap:butt;stroke-linejoin:miter;stroke-miterlimit:4;stroke-dasharray:none;stroke-opacity:1"
             d="m 286.211,206.32 50.898,-3.242" /><path
             id="path62"
             style="fill:none;stroke:#ffffff;stroke-width:3;stroke-linecap:butt;stroke-linejoin:miter;stroke-miterlimit:4;stroke-dasharray:none;stroke-opacity:1"
             d="m 183.199,212.922 50.86,-3.242" /><path
             id="path64"
             style="fill:none;stroke:#ffffff;stroke-width:3;stroke-linecap:butt;stroke-linejoin:miter;stroke-miterlimit:4;stroke-dasharray:none;stroke-opacity:1"
             d="M 205.16,235.23 128.398,169.68" /><path
             id="path66"
             style="fill:none;stroke:#ffffff;stroke-width:3;stroke-linecap:butt;stroke-linejoin:miter;stroke-miterlimit:4;stroke-dasharray:none;stroke-opacity:1"
             d="M 259.922,230.539 183.398,165.93" /><path
             id="path68"
             style="fill:none;stroke:#ffffff;stroke-width:3;stroke-linecap:butt;stroke-linejoin:miter;stroke-miterlimit:4;stroke-dasharray:none;stroke-opacity:1"
             d="M 310.391,227.34 242.148,167.18" /><path
             id="path70"
             style="fill:none;stroke:#ffffff;stroke-width:3;stroke-linecap:butt;stroke-linejoin:miter;stroke-miterlimit:4;stroke-dasharray:none;stroke-opacity:1"
             d="m 367.34,233.621 -47.5,-46.242" /><path
             id="path72"
             style="fill:none;stroke:#ffffff;stroke-width:3;stroke-linecap:butt;stroke-linejoin:miter;stroke-miterlimit:4;stroke-dasharray:none;stroke-opacity:1"
             d="m 103.012,193.27 51.168,-3.282" /><path
             id="path74"
             style="fill:none;stroke:#ffffff;stroke-width:3;stroke-linecap:butt;stroke-linejoin:miter;stroke-miterlimit:4;stroke-dasharray:none;stroke-opacity:1"
             d="m 207.539,186.551 51.133,-3.281" /><path
             id="path76"
             style="fill:none;stroke:#ffffff;stroke-width:3;stroke-linecap:butt;stroke-linejoin:miter;stroke-miterlimit:4;stroke-dasharray:none;stroke-opacity:1"
             d="M 108.398,298.43 60.7813,257.141" /><path
             id="path78"
             style="fill:none;stroke:#ffffff;stroke-width:3;stroke-linecap:butt;stroke-linejoin:miter;stroke-miterlimit:4;stroke-dasharray:none;stroke-opacity:1"
             d="M 175.898,305.93 113.711,250.891" /><path
             id="path80"
             style="fill:none;stroke:#ffffff;stroke-width:3;stroke-linecap:butt;stroke-linejoin:miter;stroke-miterlimit:4;stroke-dasharray:none;stroke-opacity:1"
             d="m 309.57,273 35.078,-4.57" /><path
             id="path82"
             style="fill:none;stroke:#ffffff;stroke-width:3;stroke-linecap:butt;stroke-linejoin:miter;stroke-miterlimit:4;stroke-dasharray:none;stroke-opacity:1"
             d="M 233.398,303.43 148.441,232.609" /><path
             id="path84"
             style="fill:none;stroke:#ffffff;stroke-width:3;stroke-linecap:butt;stroke-linejoin:miter;stroke-miterlimit:4;stroke-dasharray:none;stroke-opacity:1"
             d="M 280.391,297.219 198.48,229.211" /><path
             id="path86"
             style="fill:none;stroke:#ffffff;stroke-width:3;stroke-linecap:butt;stroke-linejoin:miter;stroke-miterlimit:4;stroke-dasharray:none;stroke-opacity:1"
             d="M 319.648,282.18 254.301,225.852" /><path
             id="path88"
             style="fill:none;stroke:#ffffff;stroke-width:3;stroke-linecap:butt;stroke-linejoin:miter;stroke-miterlimit:4;stroke-dasharray:none;stroke-opacity:1"
             d="M 353.398,262.18 307.23,222.449" /><path
             id="path90"
             style="fill:none;stroke:#ffffff;stroke-width:3;stroke-linecap:butt;stroke-linejoin:miter;stroke-miterlimit:4;stroke-dasharray:none;stroke-opacity:1"
             d="M 126.371,259.91 177.5,256.629" /><path
             id="path92"
             style="fill:none;stroke:#ffffff;stroke-width:3;stroke-linecap:butt;stroke-linejoin:miter;stroke-miterlimit:4;stroke-dasharray:none;stroke-opacity:1"
             d="m 230.898,253.23 51.133,-3.281" /><path
             id="path94"
             style="fill:none;stroke:#ffffff;stroke-width:3;stroke-linecap:butt;stroke-linejoin:miter;stroke-miterlimit:4;stroke-dasharray:none;stroke-opacity:1"
             d="m 334.41,246.59 30.238,-1.91" /></g></g></g></g></svg>