<svg xmlns="http://www.w3.org/2000/svg" viewBox="0 0 55 83.75" height="83.75" width="55"><path d="M.605 81.896h10.796V49.684H.605v32.212z" fill="#036998"/><path d="M11.401 49.683H.605v32.213h10.796" fill="none" stroke="#fff" stroke-width=".5"/><path d="M11.401 81.895l5.971-5.971V43.71H6.578L.605 49.684h10.796v32.211" fill="#036998"/><path d="M11.401 81.896l5.971-5.973V43.712H6.578L.605 49.683h10.796v32.213z" fill="none" stroke="#fff" stroke-width=".5"/><path d="M11.401 49.684l5.971-5.973" fill="#036998"/><path d="M11.401 49.683l5.971-5.971" fill="none" stroke="#fff" stroke-width=".5"/><path d="M11.401 81.895h22.021V9.781h-22.02v72.114z" fill="#036998"/><path d="M33.422 9.78h-22.02v72.116h22.02" fill="none" stroke="#fff" stroke-width=".5"/><path d="M33.422 81.895l8.956-8.955V.826H20.36l-8.96 8.955h22.021v72.114" fill="#036998"/><path d="M33.422 81.896l8.956-8.955V.826H20.36l-8.96 8.955h22.021v72.115z" fill="none" stroke="#fff" stroke-width=".5"/><path d="M33.422 9.781L42.378.826" fill="#036998"/><path d="M33.422 9.78L42.378.827" fill="none" stroke="#fff" stroke-width=".5"/><path d="M22.871 39.381v3.364h3.37" fill="#036998"/><path d="M22.871 39.38v3.365h3.37" fill="none" stroke="#fff" stroke-width=".5"/><path d="M27.569 39.381v3.364h3.364" fill="#036998"/><path d="M27.569 39.38v3.365h3.364" fill="none" stroke="#fff" stroke-width=".5"/><path d="M13.433 39.469v3.368h3.364" fill="#036998"/><path d="M13.433 39.468v3.37h3.364" fill="none" stroke="#fff" stroke-width=".5"/><path d="M18.125 39.469v3.368h3.369" fill="#036998"/><path d="M18.125 39.468v3.37h3.369" fill="none" stroke="#fff" stroke-width=".5"/><path d="M22.832 46.388v3.363h3.37" fill="#036998"/><path d="M22.832 46.387v3.365h3.37" fill="none" stroke="#fff" stroke-width=".5"/><path d="M27.529 46.388v3.363h3.364" fill="#036998"/><path d="M27.529 46.387v3.365h3.364" fill="none" stroke="#fff" stroke-width=".5"/><path d="M13.393 46.475v3.365h3.364" fill="#036998"/><path d="M13.393 46.476v3.363h3.364" fill="none" stroke="#fff" stroke-width=".5"/><path d="M18.086 46.475v3.365h3.37" fill="#036998"/><path d="M18.086 46.476v3.363h3.37M22.832 53.097v3.364h3.37M27.529 53.097v3.364h3.364M13.393 53.185v3.363h3.364M18.086 53.185v3.363h3.37M2.167 52.413v3.364h3.366M6.86 52.413v3.364h3.37M2.422 58.74v3.366h3.364M7.114 58.74v3.366h3.37M2.422 64.435v3.368h3.364M7.114 64.435v3.368h3.37" fill="none" stroke="#fff" stroke-width=".5"/><path d="M22.964 13.37v3.364h3.369" fill="#036998"/><path d="M22.964 13.37v3.364h3.369" fill="none" stroke="#fff" stroke-width=".5"/><path d="M27.661 13.37v3.364h3.369" fill="#036998"/><path d="M27.661 13.37v3.364h3.369" fill="none" stroke="#fff" stroke-width=".5"/><path d="M13.525 13.457v3.365h3.365" fill="#036998"/><path d="M13.525 13.459v3.363h3.365" fill="none" stroke="#fff" stroke-width=".5"/><path d="M18.217 13.457v3.365h3.37" fill="#036998"/><path d="M18.217 13.459v3.363h3.37" fill="none" stroke="#fff" stroke-width=".5"/><path d="M22.93 20.373v3.368h3.364" fill="#036998"/><path d="M22.93 20.372v3.369h3.364" fill="none" stroke="#fff" stroke-width=".5"/><path d="M27.622 20.373v3.368h3.37" fill="#036998"/><path d="M27.622 20.372v3.369h3.37" fill="none" stroke="#fff" stroke-width=".5"/><path d="M13.486 20.46v3.369h3.369" fill="#036998"/><path d="M13.486 20.46v3.37h3.369" fill="none" stroke="#fff" stroke-width=".5"/><path d="M18.184 20.46v3.369h3.363" fill="#036998"/><path d="M18.184 20.46v3.37h3.363" fill="none" stroke="#fff" stroke-width=".5"/><path d="M22.93 27.081v3.37h3.364" fill="#036998"/><path d="M22.93 27.08v3.37h3.364" fill="none" stroke="#fff" stroke-width=".5"/><path d="M27.622 27.081v3.37h3.37" fill="#036998"/><path d="M27.622 27.08v3.37h3.37" fill="none" stroke="#fff" stroke-width=".5"/><path d="M13.486 27.169v3.369h3.369" fill="#036998"/><path d="M13.486 27.169v3.37h3.369" fill="none" stroke="#fff" stroke-width=".5"/><path d="M18.184 27.169v3.369h3.363" fill="#036998"/><path d="M18.184 27.169v3.37h3.363" fill="none" stroke="#fff" stroke-width=".5"/><path d="M22.93 33.283v3.363h3.364" fill="#036998"/><path d="M22.93 33.282v3.364h3.364" fill="none" stroke="#fff" stroke-width=".5"/><path d="M27.622 33.283v3.363h3.37" fill="#036998"/><path d="M27.622 33.282v3.364h3.37" fill="none" stroke="#fff" stroke-width=".5"/><path d="M13.486 33.37v3.369h3.369" fill="#036998"/><path d="M13.486 33.37v3.37h3.369" fill="none" stroke="#fff" stroke-width=".5"/><path d="M18.184 33.37v3.369h3.363" fill="#036998"/><path d="M18.184 33.37v3.37h3.363M35.727 41.963v3.365M35.727 47.745v3.364" fill="none" stroke="#fff" stroke-width=".5"/><path d="M33.486 81.895h11.939V21.134H33.486v60.761z" fill="#036998"/><path d="M45.425 21.133H33.486v60.763h11.939" fill="none" stroke="#fff" stroke-width=".5"/><path d="M45.425 81.895l8.755-8.755V12.374H42.241l-8.755 8.76h11.939v60.761" fill="#036998"/><path d="M45.425 81.896l8.755-8.755V12.374H42.241l-8.755 8.76h11.939v60.762z" fill="none" stroke="#fff" stroke-width=".5"/><path d="M35.708 23.97v3.365h3.364" fill="#036998"/><path d="M35.708 23.97v3.365h3.364" fill="none" stroke="#fff" stroke-width=".5"/><path d="M40.4 23.97v3.365h3.37" fill="#036998"/><path d="M40.4 23.97v3.365h3.37" fill="none" stroke="#fff" stroke-width=".5"/><path d="M35.65 30.299v3.364h3.364" fill="#036998"/><path d="M35.65 30.298v3.365h3.364" fill="none" stroke="#fff" stroke-width=".5"/><path d="M40.341 30.299v3.364h3.37" fill="#036998"/><path d="M40.341 30.298v3.365h3.37" fill="none" stroke="#fff" stroke-width=".5"/><path d="M35.65 35.993v3.368h3.364" fill="#036998"/><path d="M35.65 35.992v3.369h3.364" fill="none" stroke="#fff" stroke-width=".5"/><path d="M40.341 35.993v3.368h3.37" fill="#036998"/><path d="M40.341 35.992v3.369h3.37M35.6 45.328h3.37" fill="none" stroke="#fff" stroke-width=".5"/><path d="M40.297 41.964v3.364h3.366" fill="#036998"/><path d="M40.297 41.963v3.365h3.366M35.6 51.11h3.37" fill="none" stroke="#fff" stroke-width=".5"/><path d="M40.297 47.745v3.364h3.366" fill="#036998"/><path d="M40.297 47.745v3.364h3.366" fill="none" stroke="#fff" stroke-width=".5"/><path d="M40.894 65.885c0 2.749-5.723 4.975-12.784 4.975-7.06 0-12.782-2.226-12.782-4.975v7.285c0 2.744 5.722 4.97 12.782 4.97 7.061 0 12.784-2.226 12.784-4.97v-7.285" fill="#fff"/><path d="M40.894 65.885c0 2.748-5.723 4.976-12.784 4.976-7.06 0-12.782-2.228-12.782-4.976v7.284c0 2.746 5.722 4.972 12.782 4.972 7.061 0 12.784-2.226 12.784-4.972v-7.284z" fill="none" stroke="#036998" stroke-width=".5"/><path d="M28.11 70.86c7.061 0 12.784-2.226 12.784-4.975 0-2.745-5.723-4.971-12.784-4.971-7.06 0-12.782 2.226-12.782 4.97 0 2.75 5.722 4.976 12.782 4.976" fill="#fff"/><path d="M28.11 70.86c7.061 0 12.784-2.227 12.784-4.975 0-2.744-5.723-4.97-12.784-4.97-7.06 0-12.782 2.226-12.782 4.97 0 2.748 5.722 4.976 12.782 4.976z" fill="none" stroke="#036998" stroke-width=".5"/><path d="M24.234 64.576l1.493.792-3.271.605.761-.636-5.683-.922.473-.381 5.656.924.57-.382M32.022 67.076l-1.484-.806 3.276-.581-.767.63 5.678.967-.482.377-5.645-.963-.576.376M30.332 62.921l2.862-1.177-.382 1.465-.86-.064-2.157 1.812-.733-.16 2.16-1.75-.89-.126M26.342 68.678l-2.84 1.216.355-1.47.86.054 2.07-1.748.733.151-2.071 1.684.893.113M45.551 21.134l8.755-8.76" fill="#036998"/><path d="M45.551 21.133l8.755-8.759" fill="none" stroke="#fff" stroke-width=".5"/></svg>