<?xml version="1.0" encoding="UTF-8" standalone="no"?>
<svg
   xmlns:dc="http://purl.org/dc/elements/1.1/"
   xmlns:cc="http://creativecommons.org/ns#"
   xmlns:rdf="http://www.w3.org/1999/02/22-rdf-syntax-ns#"
   xmlns:svg="http://www.w3.org/2000/svg"
   xmlns="http://www.w3.org/2000/svg"
   viewBox="0 0 54.487499 81.925003"
   height="81.925003"
   width="54.487499"
   xml:space="preserve"
   version="1.1"
   id="svg2"><metadata
     id="metadata8"><rdf:RDF><cc:Work
         rdf:about=""><dc:format>image/svg+xml</dc:format><dc:type
           rdf:resource="http://purl.org/dc/dcmitype/StillImage" /></cc:Work></rdf:RDF></metadata><defs
     id="defs6" /><g
     transform="matrix(1.25,0,0,-1.25,0,81.925)"
     id="g10"><g
       transform="scale(0.1,0.1)"
       id="g12"><path
         id="path14"
         style="fill:#036998;fill-opacity:1;fill-rule:nonzero;stroke:none"
         d="m 4.82813,4.82422 86.3984,0 0,257.703 -86.3984,0 0,-257.703 z" /><path
         id="path16"
         style="fill:none;stroke:#ffffff;stroke-width:3.99993992;stroke-linecap:butt;stroke-linejoin:miter;stroke-miterlimit:4;stroke-dasharray:none;stroke-opacity:1"
         d="m 91.2266,262.527 -86.39847,0 0,-257.70278 86.39847,0" /><path
         id="path18"
         style="fill:#036998;fill-opacity:1;fill-rule:nonzero;stroke:none"
         d="m 91.2266,4.82422 47.7614,47.76558 0,257.7032 -86.3864,0 -47.77347,-47.766 86.39847,0 0,-257.70278" /><path
         id="path20"
         style="fill:none;stroke:#ffffff;stroke-width:3.99993992;stroke-linecap:butt;stroke-linejoin:miter;stroke-miterlimit:4;stroke-dasharray:none;stroke-opacity:1"
         d="m 91.2266,4.82422 47.7614,47.76558 0,257.7032 -86.3864,0 -47.77347,-47.766 86.39847,0 0,-257.70278 z" /><path
         id="path22"
         style="fill:#036998;fill-opacity:1;fill-rule:nonzero;stroke:none"
         d="m 91.2266,262.527 47.7614,47.766" /><path
         id="path24"
         style="fill:none;stroke:#ffffff;stroke-width:3.99993992;stroke-linecap:butt;stroke-linejoin:miter;stroke-miterlimit:4;stroke-dasharray:none;stroke-opacity:1"
         d="m 91.2266,262.527 47.7614,47.766" /><path
         id="path26"
         style="fill:#036998;fill-opacity:1;fill-rule:nonzero;stroke:none"
         d="m 91.2266,4.82422 176.172,0 0,576.906 -176.172,0 0,-576.906 z" /><path
         id="path28"
         style="fill:none;stroke:#ffffff;stroke-width:3.99993992;stroke-linecap:butt;stroke-linejoin:miter;stroke-miterlimit:4;stroke-dasharray:none;stroke-opacity:1"
         d="m 267.398,581.73 -176.1714,0 0,-576.90578 176.1714,0" /><path
         id="path30"
         style="fill:#036998;fill-opacity:1;fill-rule:nonzero;stroke:none"
         d="m 267.398,4.82422 71.641,71.65238 0,576.9024 -176.164,0 -71.6484,-71.649 176.1714,0 0,-576.90578" /><path
         id="path32"
         style="fill:none;stroke:#ffffff;stroke-width:3.99993992;stroke-linecap:butt;stroke-linejoin:miter;stroke-miterlimit:4;stroke-dasharray:none;stroke-opacity:1"
         d="m 267.398,4.82422 71.641,71.65238 0,576.9024 -176.164,0 -71.6484,-71.649 176.1714,0 0,-576.90578 z" /><path
         id="path34"
         style="fill:#036998;fill-opacity:1;fill-rule:nonzero;stroke:none"
         d="m 267.398,581.73 71.641,71.649" /><path
         id="path36"
         style="fill:none;stroke:#ffffff;stroke-width:3.99993992;stroke-linecap:butt;stroke-linejoin:miter;stroke-miterlimit:4;stroke-dasharray:none;stroke-opacity:1"
         d="m 267.398,581.73 71.641,71.649" /><path
         id="path38"
         style="fill:#036998;fill-opacity:1;fill-rule:nonzero;stroke:none"
         d="m 182.973,344.949 0,-26.929 26.933,0" /><path
         id="path40"
         style="fill:none;stroke:#ffffff;stroke-width:3.99993992;stroke-linecap:butt;stroke-linejoin:miter;stroke-miterlimit:4;stroke-dasharray:none;stroke-opacity:1"
         d="m 182.973,344.949 0,-26.929 26.933,0" /><path
         id="path42"
         style="fill:#036998;fill-opacity:1;fill-rule:nonzero;stroke:none"
         d="m 220.543,344.949 0,-26.929 26.922,0" /><path
         id="path44"
         style="fill:none;stroke:#ffffff;stroke-width:3.99993992;stroke-linecap:butt;stroke-linejoin:miter;stroke-miterlimit:4;stroke-dasharray:none;stroke-opacity:1"
         d="m 220.543,344.949 0,-26.929 26.922,0" /><path
         id="path46"
         style="fill:#036998;fill-opacity:1;fill-rule:nonzero;stroke:none"
         d="m 107.445,344.238 0,-26.933 26.926,0" /><path
         id="path48"
         style="fill:none;stroke:#ffffff;stroke-width:3.99993992;stroke-linecap:butt;stroke-linejoin:miter;stroke-miterlimit:4;stroke-dasharray:none;stroke-opacity:1"
         d="m 107.445,344.238 0,-26.933 26.926,0" /><path
         id="path50"
         style="fill:#036998;fill-opacity:1;fill-rule:nonzero;stroke:none"
         d="m 145.004,344.238 0,-26.933 26.934,0" /><path
         id="path52"
         style="fill:none;stroke:#ffffff;stroke-width:3.99993992;stroke-linecap:butt;stroke-linejoin:miter;stroke-miterlimit:4;stroke-dasharray:none;stroke-opacity:1"
         d="m 145.004,344.238 0,-26.933 26.934,0" /><path
         id="path54"
         style="fill:#036998;fill-opacity:1;fill-rule:nonzero;stroke:none"
         d="m 182.672,288.906 0,-26.933 26.933,0" /><path
         id="path56"
         style="fill:none;stroke:#ffffff;stroke-width:3.99993992;stroke-linecap:butt;stroke-linejoin:miter;stroke-miterlimit:4;stroke-dasharray:none;stroke-opacity:1"
         d="m 182.672,288.906 0,-26.933 26.933,0" /><path
         id="path58"
         style="fill:#036998;fill-opacity:1;fill-rule:nonzero;stroke:none"
         d="m 220.23,288.906 0,-26.933 26.934,0" /><path
         id="path60"
         style="fill:none;stroke:#ffffff;stroke-width:3.99993992;stroke-linecap:butt;stroke-linejoin:miter;stroke-miterlimit:4;stroke-dasharray:none;stroke-opacity:1"
         d="m 220.23,288.906 0,-26.933 26.934,0" /><path
         id="path62"
         style="fill:#036998;fill-opacity:1;fill-rule:nonzero;stroke:none"
         d="m 107.145,288.203 0,-26.933 26.921,0" /><path
         id="path64"
         style="fill:none;stroke:#ffffff;stroke-width:3.99993992;stroke-linecap:butt;stroke-linejoin:miter;stroke-miterlimit:4;stroke-dasharray:none;stroke-opacity:1"
         d="m 107.145,288.203 0,-26.933 26.921,0" /><path
         id="path66"
         style="fill:#036998;fill-opacity:1;fill-rule:nonzero;stroke:none"
         d="m 144.703,288.203 0,-26.933 26.934,0" /><path
         id="path68"
         style="fill:none;stroke:#ffffff;stroke-width:3.99993992;stroke-linecap:butt;stroke-linejoin:miter;stroke-miterlimit:4;stroke-dasharray:none;stroke-opacity:1"
         d="m 144.703,288.203 0,-26.933 26.934,0" /><path
         id="path70"
         style="fill:none;stroke:#ffffff;stroke-width:3.99993992;stroke-linecap:butt;stroke-linejoin:miter;stroke-miterlimit:4;stroke-dasharray:none;stroke-opacity:1"
         d="m 182.672,235.242 0,-26.929 26.933,0" /><path
         id="path72"
         style="fill:none;stroke:#ffffff;stroke-width:3.99993992;stroke-linecap:butt;stroke-linejoin:miter;stroke-miterlimit:4;stroke-dasharray:none;stroke-opacity:1"
         d="m 220.23,235.242 0,-26.929 26.934,0" /><path
         id="path74"
         style="fill:none;stroke:#ffffff;stroke-width:3.99993992;stroke-linecap:butt;stroke-linejoin:miter;stroke-miterlimit:4;stroke-dasharray:none;stroke-opacity:1"
         d="m 107.145,234.539 0,-26.93 26.921,0" /><path
         id="path76"
         style="fill:none;stroke:#ffffff;stroke-width:3.99993992;stroke-linecap:butt;stroke-linejoin:miter;stroke-miterlimit:4;stroke-dasharray:none;stroke-opacity:1"
         d="m 144.703,234.539 0,-26.93 26.934,0" /><path
         id="path78"
         style="fill:none;stroke:#ffffff;stroke-width:3.99993992;stroke-linecap:butt;stroke-linejoin:miter;stroke-miterlimit:4;stroke-dasharray:none;stroke-opacity:1"
         d="m 17.3281,240.691 0,-26.921 26.9336,0" /><path
         id="path80"
         style="fill:none;stroke:#ffffff;stroke-width:3.99993992;stroke-linecap:butt;stroke-linejoin:miter;stroke-miterlimit:4;stroke-dasharray:none;stroke-opacity:1"
         d="m 54.8984,240.691 0,-26.921 26.9336,0" /><path
         id="path82"
         style="fill:none;stroke:#ffffff;stroke-width:3.99993992;stroke-linecap:butt;stroke-linejoin:miter;stroke-miterlimit:4;stroke-dasharray:none;stroke-opacity:1"
         d="m 19.3594,190.078 0,-26.933 26.9258,0" /><path
         id="path84"
         style="fill:none;stroke:#ffffff;stroke-width:3.99993992;stroke-linecap:butt;stroke-linejoin:miter;stroke-miterlimit:4;stroke-dasharray:none;stroke-opacity:1"
         d="m 56.918,190.078 0,-26.933 26.9336,0" /><path
         id="path86"
         style="fill:none;stroke:#ffffff;stroke-width:3.99993992;stroke-linecap:butt;stroke-linejoin:miter;stroke-miterlimit:4;stroke-dasharray:none;stroke-opacity:1"
         d="m 19.3594,144.512 0,-26.934 26.9258,0" /><path
         id="path88"
         style="fill:none;stroke:#ffffff;stroke-width:3.99993992;stroke-linecap:butt;stroke-linejoin:miter;stroke-miterlimit:4;stroke-dasharray:none;stroke-opacity:1"
         d="m 56.918,144.512 0,-26.934 26.9336,0" /><path
         id="path90"
         style="fill:#036998;fill-opacity:1;fill-rule:nonzero;stroke:none"
         d="m 183.727,553.047 0,-26.926 26.933,0" /><path
         id="path92"
         style="fill:none;stroke:#ffffff;stroke-width:3.99993992;stroke-linecap:butt;stroke-linejoin:miter;stroke-miterlimit:4;stroke-dasharray:none;stroke-opacity:1"
         d="m 183.727,553.047 0,-26.926 26.933,0" /><path
         id="path94"
         style="fill:#036998;fill-opacity:1;fill-rule:nonzero;stroke:none"
         d="m 221.293,553.047 0,-26.926 26.934,0" /><path
         id="path96"
         style="fill:none;stroke:#ffffff;stroke-width:3.99993992;stroke-linecap:butt;stroke-linejoin:miter;stroke-miterlimit:4;stroke-dasharray:none;stroke-opacity:1"
         d="m 221.293,553.047 0,-26.926 26.934,0" /><path
         id="path98"
         style="fill:#036998;fill-opacity:1;fill-rule:nonzero;stroke:none"
         d="m 108.199,552.344 0,-26.934 26.934,0" /><path
         id="path100"
         style="fill:none;stroke:#ffffff;stroke-width:3.99993992;stroke-linecap:butt;stroke-linejoin:miter;stroke-miterlimit:4;stroke-dasharray:none;stroke-opacity:1"
         d="m 108.199,552.344 0,-26.934 26.934,0" /><path
         id="path102"
         style="fill:#036998;fill-opacity:1;fill-rule:nonzero;stroke:none"
         d="m 145.758,552.344 0,-26.934 26.933,0" /><path
         id="path104"
         style="fill:none;stroke:#ffffff;stroke-width:3.99993992;stroke-linecap:butt;stroke-linejoin:miter;stroke-miterlimit:4;stroke-dasharray:none;stroke-opacity:1"
         d="m 145.758,552.344 0,-26.934 26.933,0" /><path
         id="path106"
         style="fill:#036998;fill-opacity:1;fill-rule:nonzero;stroke:none"
         d="m 183.422,497.012 0,-26.934 26.933,0" /><path
         id="path108"
         style="fill:none;stroke:#ffffff;stroke-width:3.99993992;stroke-linecap:butt;stroke-linejoin:miter;stroke-miterlimit:4;stroke-dasharray:none;stroke-opacity:1"
         d="m 183.422,497.012 0,-26.934 26.933,0" /><path
         id="path110"
         style="fill:#036998;fill-opacity:1;fill-rule:nonzero;stroke:none"
         d="m 220.992,497.012 0,-26.934 26.922,0" /><path
         id="path112"
         style="fill:none;stroke:#ffffff;stroke-width:3.99993992;stroke-linecap:butt;stroke-linejoin:miter;stroke-miterlimit:4;stroke-dasharray:none;stroke-opacity:1"
         d="m 220.992,497.012 0,-26.934 26.922,0" /><path
         id="path114"
         style="fill:#036998;fill-opacity:1;fill-rule:nonzero;stroke:none"
         d="m 107.895,496.301 0,-26.938 26.933,0" /><path
         id="path116"
         style="fill:none;stroke:#ffffff;stroke-width:3.99993992;stroke-linecap:butt;stroke-linejoin:miter;stroke-miterlimit:4;stroke-dasharray:none;stroke-opacity:1"
         d="m 107.895,496.301 0,-26.938 26.933,0" /><path
         id="path118"
         style="fill:#036998;fill-opacity:1;fill-rule:nonzero;stroke:none"
         d="m 145.453,496.301 0,-26.938 26.934,0" /><path
         id="path120"
         style="fill:none;stroke:#ffffff;stroke-width:3.99993992;stroke-linecap:butt;stroke-linejoin:miter;stroke-miterlimit:4;stroke-dasharray:none;stroke-opacity:1"
         d="m 145.453,496.301 0,-26.938 26.934,0" /><path
         id="path122"
         style="fill:#036998;fill-opacity:1;fill-rule:nonzero;stroke:none"
         d="m 183.422,443.352 0,-26.938 26.933,0" /><path
         id="path124"
         style="fill:none;stroke:#ffffff;stroke-width:3.99993992;stroke-linecap:butt;stroke-linejoin:miter;stroke-miterlimit:4;stroke-dasharray:none;stroke-opacity:1"
         d="m 183.422,443.352 0,-26.938 26.933,0" /><path
         id="path126"
         style="fill:#036998;fill-opacity:1;fill-rule:nonzero;stroke:none"
         d="m 220.992,443.352 0,-26.938 26.922,0" /><path
         id="path128"
         style="fill:none;stroke:#ffffff;stroke-width:3.99993992;stroke-linecap:butt;stroke-linejoin:miter;stroke-miterlimit:4;stroke-dasharray:none;stroke-opacity:1"
         d="m 220.992,443.352 0,-26.938 26.922,0" /><path
         id="path130"
         style="fill:#036998;fill-opacity:1;fill-rule:nonzero;stroke:none"
         d="m 107.895,442.637 0,-26.934 26.933,0" /><path
         id="path132"
         style="fill:none;stroke:#ffffff;stroke-width:3.99993992;stroke-linecap:butt;stroke-linejoin:miter;stroke-miterlimit:4;stroke-dasharray:none;stroke-opacity:1"
         d="m 107.895,442.637 0,-26.934 26.933,0" /><path
         id="path134"
         style="fill:#036998;fill-opacity:1;fill-rule:nonzero;stroke:none"
         d="m 145.453,442.637 0,-26.934 26.934,0" /><path
         id="path136"
         style="fill:none;stroke:#ffffff;stroke-width:3.99993992;stroke-linecap:butt;stroke-linejoin:miter;stroke-miterlimit:4;stroke-dasharray:none;stroke-opacity:1"
         d="m 145.453,442.637 0,-26.934 26.934,0" /><path
         id="path138"
         style="fill:#036998;fill-opacity:1;fill-rule:nonzero;stroke:none"
         d="m 183.422,393.738 0,-26.929 26.933,0" /><path
         id="path140"
         style="fill:none;stroke:#ffffff;stroke-width:3.99993992;stroke-linecap:butt;stroke-linejoin:miter;stroke-miterlimit:4;stroke-dasharray:none;stroke-opacity:1"
         d="m 183.422,393.738 0,-26.929 26.933,0" /><path
         id="path142"
         style="fill:#036998;fill-opacity:1;fill-rule:nonzero;stroke:none"
         d="m 220.992,393.738 0,-26.929 26.922,0" /><path
         id="path144"
         style="fill:none;stroke:#ffffff;stroke-width:3.99993992;stroke-linecap:butt;stroke-linejoin:miter;stroke-miterlimit:4;stroke-dasharray:none;stroke-opacity:1"
         d="m 220.992,393.738 0,-26.929 26.922,0" /><path
         id="path146"
         style="fill:#036998;fill-opacity:1;fill-rule:nonzero;stroke:none"
         d="m 107.895,393.027 0,-26.933 26.933,0" /><path
         id="path148"
         style="fill:none;stroke:#ffffff;stroke-width:3.99993992;stroke-linecap:butt;stroke-linejoin:miter;stroke-miterlimit:4;stroke-dasharray:none;stroke-opacity:1"
         d="m 107.895,393.027 0,-26.933 26.933,0" /><path
         id="path150"
         style="fill:#036998;fill-opacity:1;fill-rule:nonzero;stroke:none"
         d="m 145.453,393.027 0,-26.933 26.934,0" /><path
         id="path152"
         style="fill:none;stroke:#ffffff;stroke-width:3.99993992;stroke-linecap:butt;stroke-linejoin:miter;stroke-miterlimit:4;stroke-dasharray:none;stroke-opacity:1"
         d="m 145.453,393.027 0,-26.933 26.934,0" /><path
         id="path154"
         style="fill:#036998;fill-opacity:1;fill-rule:nonzero;stroke:none"
         d="m 285.816,324.285 0,-26.93" /><path
         id="path156"
         style="fill:none;stroke:#ffffff;stroke-width:3.99993992;stroke-linecap:butt;stroke-linejoin:miter;stroke-miterlimit:4;stroke-dasharray:none;stroke-opacity:1"
         d="m 285.816,324.285 0,-26.93" /><path
         id="path158"
         style="fill:#036998;fill-opacity:1;fill-rule:nonzero;stroke:none"
         d="m 285.816,278.035 0,-26.93" /><path
         id="path160"
         style="fill:none;stroke:#ffffff;stroke-width:3.99993992;stroke-linecap:butt;stroke-linejoin:miter;stroke-miterlimit:4;stroke-dasharray:none;stroke-opacity:1"
         d="m 285.816,278.035 0,-26.93" /><path
         id="path162"
         style="fill:#036998;fill-opacity:1;fill-rule:nonzero;stroke:none"
         d="m 267.887,4.82422 95.5078,0 0,486.121 -95.5078,0 0,-486.121 z" /><path
         id="path164"
         style="fill:none;stroke:#ffffff;stroke-width:3.99993992;stroke-linecap:butt;stroke-linejoin:miter;stroke-miterlimit:4;stroke-dasharray:none;stroke-opacity:1"
         d="m 363.395,490.945 -95.508,0 0,-486.12078 95.508,0" /><path
         id="path166"
         style="fill:#036998;fill-opacity:1;fill-rule:nonzero;stroke:none"
         d="m 363.395,4.82422 70.039,70.03908 0,486.1247 -95.5,0 -70.047,-70.043 95.508,0 0,-486.12078" /><path
         id="path168"
         style="fill:none;stroke:#ffffff;stroke-width:3.99993992;stroke-linecap:butt;stroke-linejoin:miter;stroke-miterlimit:4;stroke-dasharray:none;stroke-opacity:1"
         d="m 363.395,4.82422 70.039,70.03908 0,486.1247 -95.5,0 -70.047,-70.043 95.508,0 0,-486.12078 z" /><path
         id="path170"
         style="fill:#036998;fill-opacity:1;fill-rule:nonzero;stroke:none"
         d="m 285.648,468.242 0,-26.933 26.934,0" /><path
         id="path172"
         style="fill:none;stroke:#ffffff;stroke-width:3.99993992;stroke-linecap:butt;stroke-linejoin:miter;stroke-miterlimit:4;stroke-dasharray:none;stroke-opacity:1"
         d="m 285.648,468.242 0,-26.933 26.934,0" /><path
         id="path174"
         style="fill:#036998;fill-opacity:1;fill-rule:nonzero;stroke:none"
         d="m 323.219,468.242 0,-26.933 26.933,0" /><path
         id="path176"
         style="fill:none;stroke:#ffffff;stroke-width:3.99993992;stroke-linecap:butt;stroke-linejoin:miter;stroke-miterlimit:4;stroke-dasharray:none;stroke-opacity:1"
         d="m 323.219,468.242 0,-26.933 26.933,0" /><path
         id="path178"
         style="fill:#036998;fill-opacity:1;fill-rule:nonzero;stroke:none"
         d="m 285.18,417.617 0,-26.933 26.933,0" /><path
         id="path180"
         style="fill:none;stroke:#ffffff;stroke-width:3.99993992;stroke-linecap:butt;stroke-linejoin:miter;stroke-miterlimit:4;stroke-dasharray:none;stroke-opacity:1"
         d="m 285.18,417.617 0,-26.933 26.933,0" /><path
         id="path182"
         style="fill:#036998;fill-opacity:1;fill-rule:nonzero;stroke:none"
         d="m 322.738,417.617 0,-26.933 26.934,0" /><path
         id="path184"
         style="fill:none;stroke:#ffffff;stroke-width:3.99993992;stroke-linecap:butt;stroke-linejoin:miter;stroke-miterlimit:4;stroke-dasharray:none;stroke-opacity:1"
         d="m 322.738,417.617 0,-26.933 26.934,0" /><path
         id="path186"
         style="fill:#036998;fill-opacity:1;fill-rule:nonzero;stroke:none"
         d="m 285.18,372.051 0,-26.934 26.933,0" /><path
         id="path188"
         style="fill:none;stroke:#ffffff;stroke-width:3.99993992;stroke-linecap:butt;stroke-linejoin:miter;stroke-miterlimit:4;stroke-dasharray:none;stroke-opacity:1"
         d="m 285.18,372.051 0,-26.934 26.933,0" /><path
         id="path190"
         style="fill:#036998;fill-opacity:1;fill-rule:nonzero;stroke:none"
         d="m 322.738,372.051 0,-26.934 26.934,0" /><path
         id="path192"
         style="fill:none;stroke:#ffffff;stroke-width:3.99993992;stroke-linecap:butt;stroke-linejoin:miter;stroke-miterlimit:4;stroke-dasharray:none;stroke-opacity:1"
         d="m 322.738,372.051 0,-26.934 26.934,0" /><path
         id="path194"
         style="fill:#036998;fill-opacity:1;fill-rule:nonzero;stroke:none"
         d="m 284.809,297.355 26.933,0" /><path
         id="path196"
         style="fill:none;stroke:#ffffff;stroke-width:3.99993992;stroke-linecap:butt;stroke-linejoin:miter;stroke-miterlimit:4;stroke-dasharray:none;stroke-opacity:1"
         d="m 284.809,297.355 26.933,0" /><path
         id="path198"
         style="fill:#036998;fill-opacity:1;fill-rule:nonzero;stroke:none"
         d="m 322.379,324.285 0,-26.93 26.922,0" /><path
         id="path200"
         style="fill:none;stroke:#ffffff;stroke-width:3.99993992;stroke-linecap:butt;stroke-linejoin:miter;stroke-miterlimit:4;stroke-dasharray:none;stroke-opacity:1"
         d="m 322.379,324.285 0,-26.93 26.922,0" /><path
         id="path202"
         style="fill:none;stroke:#ffffff;stroke-width:3.99993992;stroke-linecap:butt;stroke-linejoin:miter;stroke-miterlimit:4;stroke-dasharray:none;stroke-opacity:1"
         d="m 284.809,251.105 26.933,0" /><path
         id="path204"
         style="fill:#036998;fill-opacity:1;fill-rule:nonzero;stroke:none"
         d="m 322.379,278.035 0,-26.93 26.922,0" /><path
         id="path206"
         style="fill:none;stroke:#ffffff;stroke-width:3.99993992;stroke-linecap:butt;stroke-linejoin:miter;stroke-miterlimit:4;stroke-dasharray:none;stroke-opacity:1"
         d="m 322.379,278.035 0,-26.93 26.922,0" /><path
         id="path208"
         style="fill:#ffffff;fill-opacity:1;fill-rule:nonzero;stroke:none"
         d="m 327.164,132.902 c 0,-21.964 -45.801,-39.777 -102.285,-39.777 -56.484,0 -102.277,17.813 -102.277,39.777 l 0,-58.2614 c 0,-21.9648 45.793,-39.7773 102.277,-39.7773 56.484,0 102.285,17.8125 102.285,39.7773 l 0,58.2614" /><path
         id="path210"
         style="fill:none;stroke:#036998;stroke-width:3.99993992;stroke-linecap:butt;stroke-linejoin:miter;stroke-miterlimit:4;stroke-dasharray:none;stroke-opacity:1"
         d="m 327.164,132.902 c 0,-21.964 -45.801,-39.777 -102.285,-39.777 -56.484,0 -102.277,17.813 -102.277,39.777 l 0,-58.2614 c 0,-21.9648 45.793,-39.7773 102.277,-39.7773 56.484,0 102.285,17.8125 102.285,39.7773 l 0,58.2614 z" /><path
         id="path212"
         style="fill:#ffffff;fill-opacity:1;fill-rule:nonzero;stroke:none"
         d="m 224.879,93.125 c 56.484,0 102.285,17.813 102.285,39.777 0,21.961 -45.801,39.774 -102.285,39.774 -56.484,0 -102.277,-17.813 -102.277,-39.774 0,-21.964 45.793,-39.777 102.277,-39.777" /><path
         id="path214"
         style="fill:none;stroke:#036998;stroke-width:3.99993992;stroke-linecap:butt;stroke-linejoin:miter;stroke-miterlimit:4;stroke-dasharray:none;stroke-opacity:1"
         d="m 224.879,93.125 c 56.484,0 102.285,17.813 102.285,39.777 0,21.961 -45.801,39.774 -102.285,39.774 -56.484,0 -102.277,-17.813 -102.277,-39.774 0,-21.964 45.793,-39.777 102.277,-39.777 z" /><path
         id="path216"
         style="fill:#036998;fill-opacity:1;fill-rule:nonzero;stroke:none"
         d="m 193.883,143.406 11.941,-6.355 -26.172,-4.824 6.094,5.078 -45.476,7.375 3.808,3.047 45.235,-7.368 4.57,3.047" /><path
         id="path218"
         style="fill:#036998;fill-opacity:1;fill-rule:nonzero;stroke:none"
         d="m 256.188,123.391 -11.895,6.445 26.211,4.629 -6.133,-5.039 45.418,-7.727 -3.836,-3.015 -45.168,7.722 -4.597,-3.015" /><path
         id="path220"
         style="fill:#036998;fill-opacity:1;fill-rule:nonzero;stroke:none"
         d="m 242.672,156.621 22.871,9.406 -3.059,-11.691 -6.863,0.508 -17.266,-14.485 -5.851,1.262 17.277,13.984 -7.109,1.016" /><path
         id="path222"
         style="fill:#036998;fill-opacity:1;fill-rule:nonzero;stroke:none"
         d="m 210.727,110.586 -22.735,-9.727 2.883,11.731 6.863,-0.41 16.563,13.965 5.859,-1.196 -16.57,-13.457 7.137,-0.906" /><path
         id="path224"
         style="fill:#036998;fill-opacity:1;fill-rule:nonzero;stroke:none"
         d="m 364.398,490.945 70.04,70.043" /><path
         id="path226"
         style="fill:none;stroke:#ffffff;stroke-width:3.99993992;stroke-linecap:butt;stroke-linejoin:miter;stroke-miterlimit:4;stroke-dasharray:none;stroke-opacity:1"
         d="m 364.398,490.945 70.04,70.043" /></g></g></svg>