<svg xmlns="http://www.w3.org/2000/svg" viewBox="0 0 46.25 38.75" height="38.75" width="46.25"><defs><clipPath id="a"><path d="M0 9v299h370V9H0z"/></clipPath></defs><g clip-path="url(#a)" transform="matrix(.13 0 0 -.13 0 38.75)"><path d="M369.879 188.27c0-39.489-82.379-71.52-183.938-71.52-101.562 0-183.953 32.031-183.953 71.52V83.512c0-39.492 82.39-71.531 183.953-71.531 101.559 0 183.938 32.039 183.938 71.53V188.27" fill="#026c9b"/><path d="M369.879 188.27c0-39.489-82.379-71.52-183.938-71.52-101.562 0-183.953 32.031-183.953 71.52V83.512c0-39.492 82.39-71.531 183.953-71.531 101.559 0 183.938 32.039 183.938 71.53V188.27z" fill="none" stroke="#fff" stroke-width="4"/><path d="M185.941 116.75c101.559 0 183.938 32.031 183.938 71.52 0 39.5-82.379 71.531-183.938 71.531-101.562 0-183.953-32.031-183.953-71.531 0-39.489 82.39-71.52 183.953-71.52" fill="#026c9b"/><path d="M185.941 116.75c101.559 0 183.938 32.031 183.938 71.52 0 39.5-82.379 71.531-183.938 71.531-101.562 0-183.953-32.031-183.953-71.531 0-39.489 82.39-71.52 183.953-71.52z" fill="none" stroke="#fff" stroke-width="4"/><path d="M185.898 163.98c101.172 0 183.204 31.911 183.204 71.25 0 39.329-82.032 71.25-183.204 71.25C84.73 306.48 2.73 274.559 2.73 235.23c0-39.339 82-71.25 183.168-71.25" fill="#026c9b"/><path d="M185.898 163.98c101.172 0 183.204 31.911 183.204 71.25 0 39.329-82.032 71.25-183.204 71.25C84.73 306.48 2.73 274.559 2.73 235.23c0-39.339 82-71.25 183.168-71.25z" fill="none" stroke="#fff" stroke-width="4"/><path d="M369.102 235.23c0-39.339-82.032-71.25-183.204-71.25C84.73 163.98 2.73 195.891 2.73 235.23v-50.468c0-39.383 82-71.25 183.168-71.25 101.172 0 183.204 31.867 183.204 71.25v50.468" fill="#026c9b"/><path d="M369.102 235.23c0-39.339-82.032-71.25-183.204-71.25C84.73 163.98 2.73 195.891 2.73 235.23v-50.468c0-39.383 82-71.25 183.168-71.25 101.172 0 183.204 31.867 183.204 71.25v50.468z" fill="none" stroke="#fff" stroke-width="4"/><path d="M143.949 266.238l15.192-22.769-57.461-13.278 12.539 10.43-88.707 15.188 22.219 16.679L133.398 258l10.551 8.238M224.73 211.012l-10.351 23.468 51.793 10.36-8.981-8.051 86.329-14.769-20.711-16.559-85.821 16.129-12.258-10.578M196.41 278.66l58 15.899.711-24.879-14.5 2.769-28.32-23.469-27.031 3.942 29.218 22.969-18.078 2.769M171.559 189.559l-55.27-10.348-2.07 25.551 15.902-3.442 30.43 25.981 26.871-4.571L155 194.449l16.559-4.89" fill="#fff"/><path d="M144.219 231.551l49.492-3.242M39.77 238.16l50.89-3.281M18.398 260.93l41.012-3.551M63.91 259.129L13.398 217.18M114.34 253.039L43.398 193.43M169.648 250.578l-87.027-70.699M64.61 211.75l51.171-3.281M286.211 206.32l50.898-3.242M183.199 212.922l50.86-3.242M205.16 235.23l-76.762-65.55M259.922 230.539l-76.524-64.609M310.391 227.34l-68.243-60.16M367.34 233.621l-47.5-46.242M103.012 193.27l51.168-3.282M207.539 186.551l51.133-3.281M108.398 298.43l-47.617-41.289M175.898 305.93l-62.187-55.039M309.57 273l35.078-4.57M233.398 303.43l-84.957-70.821M280.391 297.219l-81.911-68.008M319.648 282.18l-65.347-56.328M353.398 262.18l-46.168-39.731M126.371 259.91l51.129-3.281M230.898 253.23l51.133-3.281M334.41 246.59l30.238-1.91" fill="none" stroke="#fff" stroke-width="3"/></g></svg>