<?xml version="1.0" encoding="UTF-8" standalone="no"?>
<svg
   xmlns:dc="http://purl.org/dc/elements/1.1/"
   xmlns:cc="http://creativecommons.org/ns#"
   xmlns:rdf="http://www.w3.org/1999/02/22-rdf-syntax-ns#"
   xmlns:svg="http://www.w3.org/2000/svg"
   xmlns="http://www.w3.org/2000/svg"
   viewBox="0 0 46.462502 37.3125"
   height="37.3125"
   width="46.462502"
   xml:space="preserve"
   version="1.1"
   id="svg2"><metadata
     id="metadata8"><rdf:RDF><cc:Work
         rdf:about=""><dc:format>image/svg+xml</dc:format><dc:type
           rdf:resource="http://purl.org/dc/dcmitype/StillImage" /></cc:Work></rdf:RDF></metadata><defs
     id="defs6"><clipPath
       id="clipPath18"
       clipPathUnits="userSpaceOnUse"><path
         id="path20"
         d="M 0,0 0,298 370,298 370,0 0,0 Z" /></clipPath></defs><g
     transform="matrix(1.25,0,0,-1.25,0,37.3125)"
     id="g10"><g
       transform="scale(0.1,0.1)"
       id="g12"><g
         id="g14"><g
           clip-path="url(#clipPath18)"
           id="g16"><path
             id="path22"
             style="fill:#026c9b;fill-opacity:1;fill-rule:nonzero;stroke:none"
             d="m 369.871,178.27 c 0,-39.5 -82.359,-71.512 -183.926,-71.512 C 84.3555,106.758 2,138.77 2,178.27 L 2,73.5156 C 2,34.0039 84.3555,1.99219 185.945,1.99219 c 101.567,0 183.926,32.01171 183.926,71.52341 l 0,104.7544" /><path
             id="path24"
             style="fill:none;stroke:#ffffff;stroke-width:4;stroke-linecap:butt;stroke-linejoin:miter;stroke-miterlimit:4;stroke-dasharray:none;stroke-opacity:1"
             d="m 369.871,178.27 c 0,-39.5 -82.359,-71.512 -183.926,-71.512 C 84.3555,106.758 2,138.77 2,178.27 L 2,73.5156 C 2,34.0039 84.3555,1.99219 185.945,1.99219 c 101.567,0 183.926,32.01171 183.926,71.52341 l 0,104.7544 z" /><path
             id="path26"
             style="fill:#026c9b;fill-opacity:1;fill-rule:nonzero;stroke:none"
             d="m 185.945,106.758 c 101.567,0 183.926,32.012 183.926,71.512 0,39.515 -82.359,71.523 -183.926,71.523 C 84.3555,249.793 2,217.785 2,178.27 2,138.77 84.3555,106.758 185.945,106.758" /><path
             id="path28"
             style="fill:none;stroke:#ffffff;stroke-width:4;stroke-linecap:butt;stroke-linejoin:miter;stroke-miterlimit:4;stroke-dasharray:none;stroke-opacity:1"
             d="m 185.945,106.758 c 101.567,0 183.926,32.012 183.926,71.512 0,39.515 -82.359,71.523 -183.926,71.523 C 84.3555,249.793 2,217.785 2,178.27 2,138.77 84.3555,106.758 185.945,106.758 Z" /><path
             id="path30"
             style="fill:#026c9b;fill-opacity:1;fill-rule:nonzero;stroke:none"
             d="m 185.906,153.984 c 101.172,0 183.188,31.895 183.188,71.25 0,39.336 -82.016,71.231 -183.188,71.231 -101.1716,0 -183.17944,-31.895 -183.17944,-71.231 0,-39.355 82.00784,-71.25 183.17944,-71.25" /><path
             id="path32"
             style="fill:none;stroke:#ffffff;stroke-width:4;stroke-linecap:butt;stroke-linejoin:miter;stroke-miterlimit:4;stroke-dasharray:none;stroke-opacity:1"
             d="m 185.906,153.984 c 101.172,0 183.188,31.895 183.188,71.25 0,39.336 -82.016,71.231 -183.188,71.231 -101.1716,0 -183.17944,-31.895 -183.17944,-71.231 0,-39.355 82.00784,-71.25 183.17944,-71.25 z" /><path
             id="path34"
             style="fill:#026c9b;fill-opacity:1;fill-rule:nonzero;stroke:none"
             d="m 369.094,225.234 c 0,-39.355 -82.016,-71.25 -183.188,-71.25 -101.1716,0 -183.17944,31.895 -183.17944,71.25 l 0,-50.476 c 0,-39.36 82.00784,-71.242 183.17944,-71.242 101.172,0 183.188,31.882 183.188,71.242 l 0,50.476" /><path
             id="path36"
             style="fill:none;stroke:#ffffff;stroke-width:4;stroke-linecap:butt;stroke-linejoin:miter;stroke-miterlimit:4;stroke-dasharray:none;stroke-opacity:1"
             d="m 369.094,225.234 c 0,-39.355 -82.016,-71.25 -183.188,-71.25 -101.1716,0 -183.17944,31.895 -183.17944,71.25 l 0,-50.476 c 0,-39.36 82.00784,-71.242 183.17944,-71.242 101.172,0 183.188,31.882 183.188,71.242 l 0,50.476 z" /><path
             id="path38"
             style="fill:#ffffff;fill-opacity:1;fill-rule:nonzero;stroke:none"
             d="m 143.926,256.238 15.207,-22.781 -57.445,-13.273 12.55,10.449 -88.7419,15.168 22.2578,16.687 85.6371,-14.5 10.535,8.25" /><path
             id="path40"
             style="fill:#ffffff;fill-opacity:1;fill-rule:nonzero;stroke:none"
             d="m 224.734,200.996 -10.371,23.484 51.797,10.356 -8.965,-8.047 86.328,-14.75 -20.718,-16.57 -85.801,16.113 -12.27,-10.586" /><path
             id="path42"
             style="fill:#ffffff;fill-opacity:1;fill-rule:nonzero;stroke:none"
             d="m 196.414,268.68 58.012,15.879 0.703,-24.864 -14.516,2.766 -28.316,-23.484 -27.016,3.941 29.223,22.969 -18.09,2.793" /><path
             id="path44"
             style="fill:#ffffff;fill-opacity:1;fill-rule:nonzero;stroke:none"
             d="m 171.555,179.578 -55.254,-10.351 -2.071,25.546 15.887,-3.445 30.418,25.965 26.899,-4.551 -32.446,-28.316 16.567,-4.848" /><path
             id="path46"
             style="fill:none;stroke:#ffffff;stroke-width:3;stroke-linecap:butt;stroke-linejoin:miter;stroke-miterlimit:4;stroke-dasharray:none;stroke-opacity:1"
             d="m 144.238,221.543 49.461,-3.242" /><path
             id="path48"
             style="fill:none;stroke:#ffffff;stroke-width:3;stroke-linecap:butt;stroke-linejoin:miter;stroke-miterlimit:4;stroke-dasharray:none;stroke-opacity:1"
             d="m 39.7578,228.145 50.8985,-3.262" /><path
             id="path50"
             style="fill:none;stroke:#ffffff;stroke-width:3;stroke-linecap:butt;stroke-linejoin:miter;stroke-miterlimit:4;stroke-dasharray:none;stroke-opacity:1"
             d="m 18.3984,250.938 41.0079,-3.555" /><path
             id="path52"
             style="fill:none;stroke:#ffffff;stroke-width:3;stroke-linecap:butt;stroke-linejoin:miter;stroke-miterlimit:4;stroke-dasharray:none;stroke-opacity:1"
             d="M 63.9063,249.141 13.3984,207.188" /><path
             id="path54"
             style="fill:none;stroke:#ffffff;stroke-width:3;stroke-linecap:butt;stroke-linejoin:miter;stroke-miterlimit:4;stroke-dasharray:none;stroke-opacity:1"
             d="M 114.348,243.047 43.3984,183.438" /><path
             id="path56"
             style="fill:none;stroke:#ffffff;stroke-width:3;stroke-linecap:butt;stroke-linejoin:miter;stroke-miterlimit:4;stroke-dasharray:none;stroke-opacity:1"
             d="M 169.648,240.566 82.6367,169.883" /><path
             id="path58"
             style="fill:none;stroke:#ffffff;stroke-width:3;stroke-linecap:butt;stroke-linejoin:miter;stroke-miterlimit:4;stroke-dasharray:none;stroke-opacity:1"
             d="M 64.6172,201.758 115.77,198.477" /><path
             id="path60"
             style="fill:none;stroke:#ffffff;stroke-width:3;stroke-linecap:butt;stroke-linejoin:miter;stroke-miterlimit:4;stroke-dasharray:none;stroke-opacity:1"
             d="m 286.223,196.328 50.894,-3.262" /><path
             id="path62"
             style="fill:none;stroke:#ffffff;stroke-width:3;stroke-linecap:butt;stroke-linejoin:miter;stroke-miterlimit:4;stroke-dasharray:none;stroke-opacity:1"
             d="m 183.184,202.93 50.886,-3.262" /><path
             id="path64"
             style="fill:none;stroke:#ffffff;stroke-width:3;stroke-linecap:butt;stroke-linejoin:miter;stroke-miterlimit:4;stroke-dasharray:none;stroke-opacity:1"
             d="M 205.164,225.215 128.398,159.688" /><path
             id="path66"
             style="fill:none;stroke:#ffffff;stroke-width:3;stroke-linecap:butt;stroke-linejoin:miter;stroke-miterlimit:4;stroke-dasharray:none;stroke-opacity:1"
             d="M 259.934,220.547 183.398,155.938" /><path
             id="path68"
             style="fill:none;stroke:#ffffff;stroke-width:3;stroke-linecap:butt;stroke-linejoin:miter;stroke-miterlimit:4;stroke-dasharray:none;stroke-opacity:1"
             d="M 310.383,217.324 242.148,157.188" /><path
             id="path70"
             style="fill:none;stroke:#ffffff;stroke-width:3;stroke-linecap:butt;stroke-linejoin:miter;stroke-miterlimit:4;stroke-dasharray:none;stroke-opacity:1"
             d="m 367.336,223.633 -47.5,-46.25" /><path
             id="path72"
             style="fill:none;stroke:#ffffff;stroke-width:3;stroke-linecap:butt;stroke-linejoin:miter;stroke-miterlimit:4;stroke-dasharray:none;stroke-opacity:1"
             d="m 103.008,183.262 51.164,-3.282" /><path
             id="path74"
             style="fill:none;stroke:#ffffff;stroke-width:3;stroke-linecap:butt;stroke-linejoin:miter;stroke-miterlimit:4;stroke-dasharray:none;stroke-opacity:1"
             d="m 207.551,176.563 51.14,-3.282" /><path
             id="path76"
             style="fill:none;stroke:#ffffff;stroke-width:3;stroke-linecap:butt;stroke-linejoin:miter;stroke-miterlimit:4;stroke-dasharray:none;stroke-opacity:1"
             d="M 108.398,288.438 60.7734,247.148" /><path
             id="path78"
             style="fill:none;stroke:#ffffff;stroke-width:3;stroke-linecap:butt;stroke-linejoin:miter;stroke-miterlimit:4;stroke-dasharray:none;stroke-opacity:1"
             d="M 175.898,295.938 113.699,240.879" /><path
             id="path80"
             style="fill:none;stroke:#ffffff;stroke-width:3;stroke-linecap:butt;stroke-linejoin:miter;stroke-miterlimit:4;stroke-dasharray:none;stroke-opacity:1"
             d="m 309.563,262.988 35.085,-4.55" /><path
             id="path82"
             style="fill:none;stroke:#ffffff;stroke-width:3;stroke-linecap:butt;stroke-linejoin:miter;stroke-miterlimit:4;stroke-dasharray:none;stroke-opacity:1"
             d="M 233.398,293.438 148.445,222.617" /><path
             id="path84"
             style="fill:none;stroke:#ffffff;stroke-width:3;stroke-linecap:butt;stroke-linejoin:miter;stroke-miterlimit:4;stroke-dasharray:none;stroke-opacity:1"
             d="M 280.391,287.207 198.496,219.219" /><path
             id="path86"
             style="fill:none;stroke:#ffffff;stroke-width:3;stroke-linecap:butt;stroke-linejoin:miter;stroke-miterlimit:4;stroke-dasharray:none;stroke-opacity:1"
             d="M 319.648,272.188 254.309,215.84" /><path
             id="path88"
             style="fill:none;stroke:#ffffff;stroke-width:3;stroke-linecap:butt;stroke-linejoin:miter;stroke-miterlimit:4;stroke-dasharray:none;stroke-opacity:1"
             d="M 353.398,252.188 307.234,212.441" /><path
             id="path90"
             style="fill:none;stroke:#ffffff;stroke-width:3;stroke-linecap:butt;stroke-linejoin:miter;stroke-miterlimit:4;stroke-dasharray:none;stroke-opacity:1"
             d="M 126.348,249.922 177.5,246.641" /><path
             id="path92"
             style="fill:none;stroke:#ffffff;stroke-width:3;stroke-linecap:butt;stroke-linejoin:miter;stroke-miterlimit:4;stroke-dasharray:none;stroke-opacity:1"
             d="m 230.891,243.223 51.129,-3.262" /><path
             id="path94"
             style="fill:none;stroke:#ffffff;stroke-width:3;stroke-linecap:butt;stroke-linejoin:miter;stroke-miterlimit:4;stroke-dasharray:none;stroke-opacity:1"
             d="m 334.426,236.602 30.222,-1.914" /></g></g></g></g></svg>