<?xml version="1.0" encoding="UTF-8" standalone="no"?>
<svg
   xmlns:dc="http://purl.org/dc/elements/1.1/"
   xmlns:cc="http://creativecommons.org/ns#"
   xmlns:rdf="http://www.w3.org/1999/02/22-rdf-syntax-ns#"
   xmlns:svg="http://www.w3.org/2000/svg"
   xmlns="http://www.w3.org/2000/svg"
   viewBox="0 0 42.5 28.75"
   height="28.75"
   width="42.5"
   xml:space="preserve"
   version="1.1"
   id="svg2"><metadata
     id="metadata8"><rdf:RDF><cc:Work
         rdf:about=""><dc:format>image/svg+xml</dc:format><dc:type
           rdf:resource="http://purl.org/dc/dcmitype/StillImage" /></cc:Work></rdf:RDF></metadata><defs
     id="defs6" /><g
     transform="matrix(1.25,0,0,-1.25,0,28.75)"
     id="g10"><g
       transform="scale(0.1,0.1)"
       id="g12"><path
         id="path14"
         style="fill:#026c9b;fill-opacity:1;fill-rule:nonzero;stroke:none"
         d="m 342.93,161.719 c 0,-36.598 -76.328,-66.2893 -170.469,-66.2893 -94.1407,0 -170.47272,29.6913 -170.47272,66.2893 l 0,-97.1096 c 0,-36.5977 76.33202,-66.28909 170.47272,-66.28909 94.141,0 170.469,29.69139 170.469,66.28909 l 0,97.1096" /><path
         id="path16"
         style="fill:none;stroke:#ffffff;stroke-width:4;stroke-linecap:butt;stroke-linejoin:miter;stroke-miterlimit:4;stroke-dasharray:none;stroke-opacity:1"
         d="m 342.93,161.719 c 0,-36.598 -76.328,-66.2893 -170.469,-66.2893 -94.1407,0 -170.47272,29.6913 -170.47272,66.2893 l 0,-97.1096 c 0,-36.5977 76.33202,-66.28909 170.47272,-66.28909 94.141,0 170.469,29.69139 170.469,66.28909 l 0,97.1096 z" /><path
         id="path18"
         style="fill:#026c9b;fill-opacity:1;fill-rule:nonzero;stroke:none"
         d="m 172.461,95.4297 c 94.141,0 170.469,29.6913 170.469,66.2893 0,36.601 -76.328,66.293 -170.469,66.293 -94.1407,0 -170.47272,-29.692 -170.47272,-66.293 0,-36.598 76.33202,-66.2893 170.47272,-66.2893" /><path
         id="path20"
         style="fill:none;stroke:#ffffff;stroke-width:4;stroke-linecap:butt;stroke-linejoin:miter;stroke-miterlimit:4;stroke-dasharray:none;stroke-opacity:1"
         d="m 172.461,95.4297 c 94.141,0 170.469,29.6913 170.469,66.2893 0,36.601 -76.328,66.293 -170.469,66.293 -94.1407,0 -170.47272,-29.692 -170.47272,-66.293 0,-36.598 76.33202,-66.2893 170.47272,-66.2893 z" /><path
         id="path22"
         style="fill:#ffffff;fill-opacity:1;fill-rule:nonzero;stroke:none"
         d="m 120.781,179.219 19.918,-10.59 -43.6287,-8.039 10.1597,8.469 -75.7808,12.312 6.3594,5.078 75.3514,-12.308 7.621,5.078" /><path
         id="path24"
         style="fill:#ffffff;fill-opacity:1;fill-rule:nonzero;stroke:none"
         d="m 224.648,145.859 -19.847,10.743 43.679,7.699 -10.199,-8.36 75.699,-12.89 -6.402,-5.039 -75.277,12.886 -7.653,-5.039" /><path
         id="path26"
         style="fill:#ffffff;fill-opacity:1;fill-rule:nonzero;stroke:none"
         d="m 202.109,201.25 38.121,15.66 -5.07,-19.488 -11.449,0.859 -28.832,-24.14 -9.719,2.109 28.82,23.32 -11.871,1.68" /><path
         id="path28"
         style="fill:#ffffff;fill-opacity:1;fill-rule:nonzero;stroke:none"
         d="m 148.871,124.531 -37.891,-16.211 4.801,19.532 11.449,-0.661 27.571,23.239 9.808,-1.95 -27.621,-22.46 11.883,-1.489" /><path
         id="path30"
         style="fill:#000000;fill-opacity:1;fill-rule:nonzero;stroke:none"
         d="m 170.898,7.96875 c 21.723,0 39.332,17.62105 39.332,39.30075 0,21.75 -17.609,39.3711 -39.332,39.3711 -21.757,0 -39.378,-17.6211 -39.378,-39.3711 0,-21.6797 17.621,-39.30075 39.378,-39.30075" /><path
         id="path32"
         style="fill:none;stroke:#ffffff;stroke-width:4;stroke-linecap:butt;stroke-linejoin:miter;stroke-miterlimit:4;stroke-dasharray:none;stroke-opacity:1"
         d="m 170.898,7.96875 c 21.723,0 39.332,17.62105 39.332,39.30075 0,21.75 -17.609,39.3711 -39.332,39.3711 -21.757,0 -39.378,-17.6211 -39.378,-39.3711 0,-21.6797 17.621,-39.30075 39.378,-39.30075 z" /><g
         transform="scale(10,10)"
         id="g34"><text
           id="text36"
           style="font-variant:normal;font-weight:bold;font-size:5.76340008px;font-family:Helvetica;-inkscape-font-specification:Helvetica-Bold;writing-mode:lr-tb;fill:#ffffff;fill-opacity:1;fill-rule:nonzero;stroke:none"
           transform="matrix(1,0,0,-1,14.4984,2.65234)"><tspan
             id="tspan38"
             y="0"
             x="0 3.4695771">Si</tspan></text>
</g></g></g></svg>