<svg xmlns="http://www.w3.org/2000/svg" viewBox="0 0 42.5 28.75" height="28.75" width="42.5"><path d="M42.866 8.535c0 4.575-9.54 8.286-21.308 8.286S.248 13.11.248 8.535v12.139c0 4.575 9.542 8.286 21.31 8.286 11.767 0 21.308-3.711 21.308-8.286V8.535" fill="#026c9b"/><path d="M42.866 8.535c0 4.575-9.54 8.286-21.308 8.286S.248 13.11.248 8.535v12.139c0 4.575 9.542 8.286 21.31 8.286 11.767 0 21.308-3.711 21.308-8.286V8.535z" fill="none" stroke="#fff" stroke-width=".5"/><path d="M21.558 16.821c11.767 0 21.308-3.711 21.308-8.286 0-4.575-9.54-8.287-21.308-8.287S.248 3.96.248 8.536c0 4.575 9.542 8.286 21.31 8.286" fill="#026c9b"/><path d="M21.558 16.821c11.767 0 21.308-3.711 21.308-8.286 0-4.575-9.54-8.287-21.308-8.287S.248 3.96.248 8.536c0 4.575 9.542 8.286 21.31 8.286z" fill="none" stroke="#fff" stroke-width=".5"/><path d="M15.098 6.348l2.49 1.323-5.454 1.005 1.27-1.058-9.473-1.54.795-.634 9.419 1.538.953-.634M28.081 10.518l-2.48-1.343 5.459-.963-1.275 1.045 9.462 1.612-.8.63-9.41-1.611-.956.63M25.264 3.594l4.765-1.958-.634 2.436-1.431-.107-3.604 3.017-1.215-.263 3.603-2.915-1.484-.21M18.609 13.184l-4.737 2.026.6-2.442 1.432.083 3.446-2.905 1.226.244-3.452 2.808 1.485.186" fill="#fff"/><path d="M21.362 27.754a4.917 4.917 0 0 0 0-9.834 4.92 4.92 0 0 0-4.922 4.921 4.919 4.919 0 0 0 4.922 4.913"/><path d="M21.362 27.754a4.917 4.917 0 0 0 0-9.834 4.92 4.92 0 0 0-4.922 4.921 4.919 4.919 0 0 0 4.922 4.913z" fill="none" stroke="#fff" stroke-width=".5"/><text style="-inkscape-font-specification:Helvetica-Bold" transform="matrix(1.25 0 0 1.25 18.123 25.435)" font-weight="700" font-size="5.763" font-family="Helvetica" fill="#fff"><tspan y="0" x="0 3.4695771">Si</tspan></text></svg>