<?xml version="1.0" encoding="UTF-8" standalone="no"?>
<svg
   xmlns:dc="http://purl.org/dc/elements/1.1/"
   xmlns:cc="http://creativecommons.org/ns#"
   xmlns:rdf="http://www.w3.org/1999/02/22-rdf-syntax-ns#"
   xmlns:svg="http://www.w3.org/2000/svg"
   xmlns="http://www.w3.org/2000/svg"
   viewBox="0 0 43.087502 29.2125"
   height="29.2125"
   width="43.087502"
   xml:space="preserve"
   version="1.1"
   id="svg2"><metadata
     id="metadata8"><rdf:RDF><cc:Work
         rdf:about=""><dc:format>image/svg+xml</dc:format><dc:type
           rdf:resource="http://purl.org/dc/dcmitype/StillImage" /></cc:Work></rdf:RDF></metadata><defs
     id="defs6"><clipPath
       id="clipPath18"
       clipPathUnits="userSpaceOnUse"><path
         id="path20"
         d="m 0,3.67188 340,0 0,230 -340,0 0,-230 z" /></clipPath></defs><g
     transform="matrix(1.25,0,0,-1.25,0,29.2125)"
     id="g10"><g
       transform="scale(0.1,0.1)"
       id="g12"><g
         id="g14"><g
           clip-path="url(#clipPath18)"
           id="g16"><path
             id="path22"
             style="fill:#026c9b;fill-opacity:1;fill-rule:nonzero;stroke:none"
             d="m 342.922,165.383 c 0,-36.613 -76.32,-66.2892 -170.461,-66.2892 C 78.3203,99.0938 2,128.77 2,165.383 L 2,68.2813 C 2,31.6797 78.3203,1.99219 172.461,1.99219 c 94.141,0 170.461,29.68751 170.461,66.28911 l 0,97.1017" /><path
             id="path24"
             style="fill:none;stroke:#ffffff;stroke-width:4;stroke-linecap:butt;stroke-linejoin:miter;stroke-miterlimit:4;stroke-dasharray:none;stroke-opacity:1"
             d="m 342.922,165.383 c 0,-36.613 -76.32,-66.2892 -170.461,-66.2892 C 78.3203,99.0938 2,128.77 2,165.383 L 2,68.2813 C 2,31.6797 78.3203,1.99219 172.461,1.99219 c 94.141,0 170.461,29.68751 170.461,66.28911 l 0,97.1017 z" /><path
             id="path26"
             style="fill:#026c9b;fill-opacity:1;fill-rule:nonzero;stroke:none"
             d="m 172.461,99.0938 c 94.141,0 170.461,29.6762 170.461,66.2892 0,36.609 -76.32,66.297 -170.461,66.297 C 78.3203,231.68 2,201.992 2,165.383 2,128.77 78.3203,99.0938 172.461,99.0938" /><path
             id="path28"
             style="fill:none;stroke:#ffffff;stroke-width:4;stroke-linecap:butt;stroke-linejoin:miter;stroke-miterlimit:4;stroke-dasharray:none;stroke-opacity:1"
             d="m 172.461,99.0938 c 94.141,0 170.461,29.6762 170.461,66.2892 0,36.609 -76.32,66.297 -170.461,66.297 C 78.3203,231.68 2,201.992 2,165.383 2,128.77 78.3203,99.0938 172.461,99.0938 Z" /><path
             id="path30"
             style="fill:#ffffff;fill-opacity:1;fill-rule:nonzero;stroke:none"
             d="m 120.789,182.891 19.914,-10.586 -43.621,-8.047 10.164,8.476 -75.8124,12.286 6.3594,5.078 75.383,-12.285 7.613,5.078" /><path
             id="path32"
             style="fill:#ffffff;fill-opacity:1;fill-rule:nonzero;stroke:none"
             d="m 224.641,149.531 -19.828,10.742 43.683,7.715 -10.226,-8.398 75.707,-12.86 -6.387,-5.031 -75.293,12.852 -7.656,-5.02" /><path
             id="path34"
             style="fill:#ffffff;fill-opacity:1;fill-rule:nonzero;stroke:none"
             d="m 202.109,204.922 38.106,15.664 -5.078,-19.473 -11.438,0.84 -28.797,-24.14 -9.738,2.121 28.801,23.289 -11.856,1.699" /><path
             id="path36"
             style="fill:#ffffff;fill-opacity:1;fill-rule:nonzero;stroke:none"
             d="m 148.855,128.184 -37.878,-16.2 4.804,19.539 11.446,-0.683 27.597,23.281 9.778,-1.973 -27.622,-22.441 11.875,-1.523" /><path
             id="path38"
             style="fill:#000000;fill-opacity:1;fill-rule:nonzero;stroke:none"
             d="m 170.879,11.6211 c 21.726,0 39.348,17.6172 39.348,39.3359 0,21.7383 -17.622,39.3555 -39.348,39.3555 -21.731,0 -39.348,-17.6172 -39.348,-39.3555 0,-21.7187 17.617,-39.3359 39.348,-39.3359" /><path
             id="path40"
             style="fill:none;stroke:#ffffff;stroke-width:4;stroke-linecap:butt;stroke-linejoin:miter;stroke-miterlimit:4;stroke-dasharray:none;stroke-opacity:1"
             d="m 170.879,11.6211 c 21.726,0 39.348,17.6172 39.348,39.3359 0,21.7383 -17.622,39.3555 -39.348,39.3555 -21.731,0 -39.348,-17.6172 -39.348,-39.3555 0,-21.7187 17.617,-39.3359 39.348,-39.3359 z" /><g
             transform="scale(10,10)"
             id="g42"><text
               id="text44"
               style="font-variant:normal;font-weight:bold;font-size:5.76340008px;font-family:Helvetica;-inkscape-font-specification:Helvetica-Bold;writing-mode:lr-tb;fill:#ffffff;fill-opacity:1;fill-rule:nonzero;stroke:none"
               transform="matrix(1,0,0,-1,14.4984,3.01953)"><tspan
                 id="tspan46"
                 y="0"
                 x="0 3.4695311">Si</tspan></text>
</g></g></g></g></g></svg>