<?xml version="1.0" encoding="UTF-8" standalone="no"?>
<svg
   xmlns:dc="http://purl.org/dc/elements/1.1/"
   xmlns:cc="http://creativecommons.org/ns#"
   xmlns:rdf="http://www.w3.org/1999/02/22-rdf-syntax-ns#"
   xmlns:svg="http://www.w3.org/2000/svg"
   xmlns="http://www.w3.org/2000/svg"
   viewBox="0 0 47.5 31.25"
   height="31.25"
   width="47.5"
   xml:space="preserve"
   version="1.1"
   id="svg2"><metadata
     id="metadata8"><rdf:RDF><cc:Work
         rdf:about=""><dc:format>image/svg+xml</dc:format><dc:type
           rdf:resource="http://purl.org/dc/dcmitype/StillImage" /></cc:Work></rdf:RDF></metadata><defs
     id="defs6" /><g
     transform="matrix(1.25,0,0,-1.25,0,31.25)"
     id="g10"><g
       transform="scale(0.1,0.1)"
       id="g12"><path
         id="path14"
         style="fill:#036998;fill-opacity:1;fill-rule:nonzero;stroke:none"
         d="m 5.66016,1.51953 333.16,0 0,194.531 -333.16,0 0,-194.531 z" /><path
         id="path16"
         style="fill:none;stroke:#ffffff;stroke-width:3.99993992;stroke-linecap:butt;stroke-linejoin:miter;stroke-miterlimit:4;stroke-dasharray:none;stroke-opacity:1"
         d="m 5.66016,1.51953 333.16,0 0,194.531 -333.16,0 0,-194.531 z" /><path
         id="path18"
         style="fill:#036998;fill-opacity:1;fill-rule:nonzero;stroke:none"
         d="m 378.711,59.8789 -39.883,-58.35937 0,194.53147 39.883,48.359 0,-184.5311" /><path
         id="path20"
         style="fill:none;stroke:#ffffff;stroke-width:3.99993992;stroke-linecap:butt;stroke-linejoin:miter;stroke-miterlimit:4;stroke-dasharray:none;stroke-opacity:1"
         d="m 378.711,59.8789 -39.883,-58.35937 0,194.53147 39.883,48.359 0,-184.5311 z" /><path
         id="path22"
         style="fill:#036998;fill-opacity:1;fill-rule:nonzero;stroke:none"
         d="m 65.5117,244.41 313.1993,0 -39.883,-48.359 -333.16784,0 59.85154,48.359" /><path
         id="path24"
         style="fill:none;stroke:#ffffff;stroke-width:3.99993992;stroke-linecap:butt;stroke-linejoin:miter;stroke-miterlimit:4;stroke-dasharray:none;stroke-opacity:1"
         d="m 65.5117,244.41 313.1993,0 -39.883,-48.359 -333.16784,0 59.85154,48.359 z" /><g
         transform="scale(10,10)"
         id="g26"><text
           id="text28"
           style="font-variant:normal;font-weight:bold;font-size:7px;font-family:Helvetica;-inkscape-font-specification:Helvetica-Bold;writing-mode:lr-tb;fill:#ffffff;fill-opacity:1;fill-rule:nonzero;stroke:none"
           transform="matrix(1,0,0,-1,10.0867,11.9805)"><tspan
             id="tspan30"
             y="0"
             x="0 5.0539999 9.7229996">RPS</tspan></text>
</g><path
         id="path32"
         style="fill:#ffffff;fill-opacity:1;fill-rule:nonzero;stroke:none"
         d="m 170.23,59.7695 c 0.04,0.0313 43.25,2.3789 43.25,2.3789 0,0 -53.128,20.2305 -63.171,23.793 0.671,0.2695 48.441,0.8594 48.441,0.8594 L 54.0195,126.762 149.18,91.8008 c -0.508,-0.2422 -35,-2.5 -35,-2.5 0,0 35.121,-17.2305 44.922,-20.6719 -1.481,-0.6172 -32.032,-9.3281 -32.032,-9.3281 L 298.871,11.4805 170.23,59.7695" /></g></g></svg>