<?xml version="1.0" encoding="UTF-8" standalone="no"?>
<svg
   xmlns:dc="http://purl.org/dc/elements/1.1/"
   xmlns:cc="http://creativecommons.org/ns#"
   xmlns:rdf="http://www.w3.org/1999/02/22-rdf-syntax-ns#"
   xmlns:svg="http://www.w3.org/2000/svg"
   xmlns="http://www.w3.org/2000/svg"
   xmlns:sodipodi="http://sodipodi.sourceforge.net/DTD/sodipodi-0.dtd"
   xmlns:inkscape="http://www.inkscape.org/namespaces/inkscape"
   viewBox="0 0 47.499931 31.25"
   height="31.25"
   width="47.499931"
   xml:space="preserve"
   version="1.1"
   id="svg2"
   inkscape:version="0.91 r13725"
   sodipodi:docname="rpsrps.svg"><sodipodi:namedview
     pagecolor="#ffffff"
     bordercolor="#666666"
     borderopacity="1"
     objecttolerance="10"
     gridtolerance="10"
     guidetolerance="10"
     inkscape:pageopacity="0"
     inkscape:pageshadow="2"
     inkscape:window-width="448"
     inkscape:window-height="438"
     id="namedview21"
     showgrid="false"
     inkscape:zoom="6.4751958"
     inkscape:cx="23.937433"
     inkscape:cy="15.315528"
     inkscape:window-x="0"
     inkscape:window-y="23"
     inkscape:window-maximized="0"
     inkscape:current-layer="svg2" /><metadata
     id="metadata8"><rdf:RDF><cc:Work
         rdf:about=""><dc:format>image/svg+xml</dc:format><dc:type
           rdf:resource="http://purl.org/dc/dcmitype/StillImage" /></cc:Work></rdf:RDF></metadata><defs
     id="defs6"><clipPath
       id="clipPath18"
       clipPathUnits="userSpaceOnUse"><path
         id="path20"
         d="m 0,4.92578 380,0 0,250 -380,0 0,-250 z"
         inkscape:connector-curvature="0" /></clipPath></defs><g
     transform="matrix(1.25,0,0,-1.25,-6.7449141e-5,31.865722)"
     id="g10"><g
       transform="scale(0.1,0.1)"
       id="g12"><g
         id="g14"><g
           clip-path="url(#clipPath18)"
           id="g16"><path
             id="path22"
             style="fill:#036998;fill-opacity:1;fill-rule:nonzero;stroke:none"
             d="m 5.65625,6.46484 333.16,0 0,194.516 -333.16,0 0,-194.516 z"
             inkscape:connector-curvature="0" /><path
             id="path24"
             style="fill:none;stroke:#ffffff;stroke-width:3.99993992;stroke-linecap:butt;stroke-linejoin:miter;stroke-miterlimit:4;stroke-dasharray:none;stroke-opacity:1"
             d="m 5.65625,6.46484 333.16,0 0,194.516 -333.16,0 0,-194.516 z"
             inkscape:connector-curvature="0" /><path
             id="path26"
             style="fill:#036998;fill-opacity:1;fill-rule:nonzero;stroke:none"
             d="m 378.723,64.8281 -39.907,-58.36326 0,194.51516 39.907,48.379 0,-184.5309"
             inkscape:connector-curvature="0" /><path
             id="path28"
             style="fill:none;stroke:#ffffff;stroke-width:3.99993992;stroke-linecap:butt;stroke-linejoin:miter;stroke-miterlimit:4;stroke-dasharray:none;stroke-opacity:1"
             d="m 378.723,64.8281 -39.907,-58.36326 0,194.51516 39.907,48.379 0,-184.5309 z"
             inkscape:connector-curvature="0" /><path
             id="path30"
             style="fill:#036998;fill-opacity:1;fill-rule:nonzero;stroke:none"
             d="m 65.5078,249.359 313.2152,0 -39.907,-48.379 -333.15975,0 59.85155,48.379"
             inkscape:connector-curvature="0" /><path
             id="path32"
             style="fill:none;stroke:#ffffff;stroke-width:3.99993992;stroke-linecap:butt;stroke-linejoin:miter;stroke-miterlimit:4;stroke-dasharray:none;stroke-opacity:1"
             d="m 65.5078,249.359 313.2152,0 -39.907,-48.379 -333.15975,0 59.85155,48.379 z"
             inkscape:connector-curvature="0" /><g
             transform="scale(10,10)"
             id="g34"><text
               id="text36"
               style="font-variant:normal;font-weight:bold;font-size:7px;font-family:Helvetica;-inkscape-font-specification:Helvetica-Bold;writing-mode:lr-tb;fill:#ffffff;fill-opacity:1;fill-rule:nonzero;stroke:none"
               transform="matrix(1,0,0,-1,10.0867,12.473)"><tspan
                 id="tspan38"
                 y="0"
                 x="0 5.0539999 9.7229996">RPS</tspan></text>
</g><path
             id="path40"
             style="fill:#ffffff;fill-opacity:1;fill-rule:nonzero;stroke:none"
             d="m 170.23,64.7109 c 0.04,0.0196 43.239,2.3633 43.239,2.3633 0,0 -53.121,20.2344 -63.141,23.7696 0.664,0.2929 48.41,0.8789 48.41,0.8789 L 54.0078,131.684 149.164,96.7227 c -0.476,-0.2149 -35,-2.5 -35,-2.5 0,0 35.149,-17.2071 44.934,-20.6641 -1.465,-0.6055 -32.02,-9.3359 -32.02,-9.3359 L 298.879,16.4258 170.23,64.7109"
             inkscape:connector-curvature="0" /></g></g></g></g></svg>