<svg xmlns="http://www.w3.org/2000/svg" viewBox="0 0 48.75 56.25" height="56.25" width="48.75"><defs><clipPath id="a"><path d="M0 9v440h390V9H0z"/></clipPath></defs><g clip-path="url(#a)" fill="#036998" transform="matrix(.13 0 0 -.13 0 56.25)"><path d="M296.25 422.418l-23.129 8.121-34.492-23.32 22.07-21.762 1.879 3.211 4.301-4.031 5.109-.27 2.153 5.121 1.839.071.579 3.398 2.421-.5 1.879 4.289 6.211-2.148 1.602 1.058.816 13.203 4.852 2.739 2.109 9.14M298.551 237.18l11.961 12.66 3.508-4.223 17.582-4.918 4.218-14.769-5.621.707-4.219-9.149-2.82 3.52-7.031-6.328-.699 7.027-7.032.711-4.218 10.539-5.629 4.223M83.2 301.477l-11.438-6.02-2.852-5.5-14.219-10.16 1.328-4.141 12.301 7.731-11.48-12.258 2.57-3.211 11.61 9.031-9.54-15 3.56-2.543 10.35 12.934-3.48-13.711 4.219-1.141 7.312 17.739 3.239.121 4.8-8.36 4.34.27-2.582 14.301 1.41 12.648-11.449 7.27M308.398 219.598l4.223-2.11-1.41-4.922-1.41-7.726-6.321 2.808 1.399 7.032 3.519 4.918M336.52 232.957l7.742-3.508 1.398-7.031-6.32-2.82v6.332l-2.82 7.027"/><path d="M366.051 226.637l-89.289-31.68 18.898-62.348 12.738-10.781 83.012 31.641-9.18 64.019-16.179 9.149M304.879 41.637l-10.539-9.848-14.07 1.41-2.809-11.25 2.809-11.96h20.39l4.219 4.218 11.25-4.219h24.609l9.141 3.52-2.809 7.73-23.91 4.93-14.762 9.84-3.519 5.629M38.91 92.258l-7.23 12.5 4.53 13.398-10.312 5.274-12.308-.043-4.57-19.879 3.171-5.078-6.64-10L0 64.45l1.371-9.692 8.16.98 10.2 22.18 12.89 12.191 6.29 2.149M137.5 232.957l-13.359 11.961 25.308 40.781L160 348.977l-25.309-14.059-23.211-41.488-27.421 16.168 28.832 54.179 63.988 39.379 52.769-1.41 28.832-21.789 26.008-35.199-9.136-9.84-3.512-48.52 36.558-33.05-24.609-19.68-42.891 37.262 1.403-46.403"/><path d="M242.301 224.527l40.078-67.539 34.461-99.851-41.488-14.098-33.051 91.449-50.66 71.051-26.02-78.082L60.859 87.379l-16.168 34.449 78.039 30.231 1.411 9.148 8.437-.711 8.442 56.293-3.52 16.168 104.801-8.43"/><path d="M134.18 236.277l70.39-22.418 33.321 15.821M296.449 420.738l7.813-.32-5.352 12.66-22.351 15.309-13.707.551-12.114-6.989-12.109-34.73 11.371 8.32 13.121 5.629 1.258-3.129 6.871-3.75 6.25 11.25 18.75-3.121"/></g></svg>