<?xml version="1.0" encoding="UTF-8" standalone="no"?>
<svg
   xmlns:dc="http://purl.org/dc/elements/1.1/"
   xmlns:cc="http://creativecommons.org/ns#"
   xmlns:rdf="http://www.w3.org/1999/02/22-rdf-syntax-ns#"
   xmlns:svg="http://www.w3.org/2000/svg"
   xmlns="http://www.w3.org/2000/svg"
   viewBox="0 0 48.75 56.25"
   height="56.25"
   width="48.75"
   xml:space="preserve"
   version="1.1"
   id="svg2"><metadata
     id="metadata8"><rdf:RDF><cc:Work
         rdf:about=""><dc:format>image/svg+xml</dc:format><dc:type
           rdf:resource="http://purl.org/dc/dcmitype/StillImage" /></cc:Work></rdf:RDF></metadata><defs
     id="defs6"><clipPath
       id="clipPath18"
       clipPathUnits="userSpaceOnUse"><path
         id="path20"
         d="M 0,9 0,449 390,449 390,9 0,9 Z" /></clipPath></defs><g
     transform="matrix(1.25,0,0,-1.25,0,56.25)"
     id="g10"><g
       transform="scale(0.1,0.1)"
       id="g12"><g
         id="g14"><g
           clip-path="url(#clipPath18)"
           id="g16"><path
             id="path22"
             style="fill:#036998;fill-opacity:1;fill-rule:nonzero;stroke:none"
             d="m 296.25,422.418 -23.129,8.121 -34.492,-23.32 22.07,-21.762 1.879,3.211 4.301,-4.031 5.109,-0.27 2.153,5.121 1.839,0.071 0.579,3.398 2.421,-0.5 1.879,4.289 6.211,-2.148 1.602,1.058 0.816,13.203 4.852,2.739 2.109,9.14" /><path
             id="path24"
             style="fill:#036998;fill-opacity:1;fill-rule:nonzero;stroke:none"
             d="m 298.551,237.18 11.961,12.66 3.508,-4.223 17.582,-4.918 4.218,-14.769 -5.621,0.707 -4.219,-9.149 -2.82,3.52 -7.031,-6.328 -0.699,7.027 -7.032,0.711 -4.218,10.539 -5.629,4.223" /><path
             id="path26"
             style="fill:#036998;fill-opacity:1;fill-rule:nonzero;stroke:none"
             d="m 83.1992,301.477 -11.4375,-6.02 -2.8515,-5.5 -14.2188,-10.16 1.3281,-4.141 12.3008,7.731 -11.4805,-12.258 2.5704,-3.211 11.6093,9.031 -9.539,-15 3.5586,-2.543 10.3515,12.934 -3.4804,-13.711 4.2187,-1.141 7.3125,17.739 3.2383,0.121 4.8008,-8.36 4.3398,0.27 -2.582,14.301 1.4101,12.648 -11.4492,7.27" /><path
             id="path28"
             style="fill:#036998;fill-opacity:1;fill-rule:nonzero;stroke:none"
             d="m 308.398,219.598 4.223,-2.11 -1.41,-4.922 -1.41,-7.726 -6.321,2.808 1.399,7.032 3.519,4.918" /><path
             id="path30"
             style="fill:#036998;fill-opacity:1;fill-rule:nonzero;stroke:none"
             d="m 336.52,232.957 7.742,-3.508 1.398,-7.031 -6.32,-2.82 0,6.332 -2.82,7.027" /><path
             id="path32"
             style="fill:#036998;fill-opacity:1;fill-rule:nonzero;stroke:none"
             d="m 366.051,226.637 -89.289,-31.68 18.898,-62.348 12.738,-10.781 83.012,31.641 -9.18,64.019 -16.179,9.149" /><path
             id="path34"
             style="fill:#036998;fill-opacity:1;fill-rule:nonzero;stroke:none"
             d="m 304.879,41.6367 -10.539,-9.8476 -14.07,1.4101 -2.809,-11.25 2.809,-11.96092 20.39,0 4.219,4.21872 11.25,-4.21872 24.609,0 9.141,3.51952 -2.809,7.7305 -23.91,4.9297 -14.762,9.8398 -3.519,5.6289" /><path
             id="path36"
             style="fill:#036998;fill-opacity:1;fill-rule:nonzero;stroke:none"
             d="m 38.9102,92.2578 -7.2305,12.5002 4.5312,13.398 -10.3125,5.274 -12.3086,-0.043 -4.57027,-19.879 3.17187,-5.0783 -6.64062,-10 L 0,64.4492 1.37109,54.7578 9.53125,55.7383 19.7305,77.918 l 12.8906,12.1914 6.2891,2.1484" /><path
             id="path38"
             style="fill:#036998;fill-opacity:1;fill-rule:nonzero;stroke:none"
             d="m 137.5,232.957 -13.359,11.961 25.308,40.781 10.551,63.278 -25.309,-14.059 -23.211,-41.488 -27.4214,16.168 28.8324,54.179 63.988,39.379 52.769,-1.41 28.832,-21.789 26.008,-35.199 -9.136,-9.84 -3.512,-48.52 36.558,-33.05 -24.609,-19.68 -42.891,37.262 1.403,-46.403" /><path
             id="path40"
             style="fill:#036998;fill-opacity:1;fill-rule:nonzero;stroke:none"
             d="m 242.301,224.527 40.078,-67.539 34.461,-99.8513 -41.488,-14.0976 -33.051,91.4489 -50.66,71.051 -26.02,-78.082 -104.7616,-40.0781 -16.168,34.4491 78.0386,30.231 1.411,9.148 8.437,-0.711 8.442,56.293 -3.52,16.168 104.801,-8.43" /><path
             id="path42"
             style="fill:#036998;fill-opacity:1;fill-rule:nonzero;stroke:none"
             d="m 134.18,236.277 70.39,-22.418 33.321,15.821" /><path
             id="path44"
             style="fill:#036998;fill-opacity:1;fill-rule:nonzero;stroke:none"
             d="m 296.449,420.738 7.813,-0.32 -5.352,12.66 -22.351,15.309 -13.707,0.551 -12.114,-6.989 -12.109,-34.73 11.371,8.32 13.121,5.629 1.258,-3.129 6.871,-3.75 6.25,11.25 18.75,-3.121" /></g></g></g></g></svg>