<?xml version="1.0" encoding="UTF-8" standalone="no"?>
<svg
   xmlns:dc="http://purl.org/dc/elements/1.1/"
   xmlns:cc="http://creativecommons.org/ns#"
   xmlns:rdf="http://www.w3.org/1999/02/22-rdf-syntax-ns#"
   xmlns:svg="http://www.w3.org/2000/svg"
   xmlns="http://www.w3.org/2000/svg"
   viewBox="0 0 60 45"
   height="45"
   width="60"
   xml:space="preserve"
   version="1.1"
   id="svg2"><metadata
     id="metadata8"><rdf:RDF><cc:Work
         rdf:about=""><dc:format>image/svg+xml</dc:format><dc:type
           rdf:resource="http://purl.org/dc/dcmitype/StillImage" /></cc:Work></rdf:RDF></metadata><defs
     id="defs6" /><g
     transform="matrix(1.25,0,0,-1.25,0,45)"
     id="g10"><g
       transform="scale(0.1,0.1)"
       id="g12"><path
         id="path14"
         style="fill:#ffffff;fill-opacity:1;fill-rule:nonzero;stroke:none"
         d="m 235.352,183.32 c 128.867,0 233.32,19.77 233.32,44.18 0,24.41 -104.453,44.18 -233.32,44.18 C 106.48,271.68 1.98828,251.91 1.98828,227.5 1.98828,203.09 106.48,183.32 235.352,183.32" /><path
         id="path16"
         style="fill:none;stroke:#000000;stroke-width:1.49994004;stroke-linecap:butt;stroke-linejoin:miter;stroke-miterlimit:4;stroke-dasharray:none;stroke-opacity:1"
         d="m 235.352,183.32 c 128.867,0 233.32,19.77 233.32,44.18 0,24.41 -104.453,44.18 -233.32,44.18 C 106.48,271.68 1.98828,251.91 1.98828,227.5 1.98828,203.09 106.48,183.32 235.352,183.32 Z" /><path
         id="path18"
         style="fill:#036998;fill-opacity:1;fill-rule:nonzero;stroke:none"
         d="m 236.602,105.82 c 128.867,0 232.07,97.27 232.07,121.68 0,24.41 -104.453,44.18 -233.32,44.18 C 106.48,271.68 1.98828,251.91 1.98828,227.5 1.98828,203.09 107.73,105.82 236.602,105.82" /><path
         id="path20"
         style="fill:#ffffff;fill-opacity:1;fill-rule:nonzero;stroke:none"
         d="m 235.352,183.32 c 128.867,0 233.32,19.77 233.32,44.18 0,24.41 -104.453,44.18 -233.32,44.18 C 106.48,271.68 1.98828,251.91 1.98828,227.5 1.98828,203.09 106.48,183.32 235.352,183.32" /><path
         id="path22"
         style="fill:none;stroke:#036998;stroke-width:3.99993992;stroke-linecap:butt;stroke-linejoin:miter;stroke-miterlimit:4;stroke-dasharray:none;stroke-opacity:1"
         d="m 235.352,183.32 c 128.867,0 233.32,19.77 233.32,44.18 0,24.41 -104.453,44.18 -233.32,44.18 C 106.48,271.68 1.98828,251.91 1.98828,227.5 1.98828,203.09 106.48,183.32 235.352,183.32 Z" /><path
         id="path24"
         style="fill:none;stroke:#036998;stroke-width:3.75;stroke-linecap:butt;stroke-linejoin:miter;stroke-miterlimit:4;stroke-dasharray:none;stroke-opacity:1"
         d="m 174.691,260.59 c -36.839,-2.231 -69.492,-6.531 -95.0426,-12.231" /><path
         id="path26"
         style="fill:none;stroke:#036998;stroke-width:3.75;stroke-linecap:butt;stroke-linejoin:miter;stroke-miterlimit:4;stroke-dasharray:none;stroke-opacity:1"
         d="M 177.148,251.371 C 141.449,248.75 110.16,243.98 86.5195,237.73" /><path
         id="path28"
         style="fill:none;stroke:#036998;stroke-width:3.75;stroke-linecap:butt;stroke-linejoin:miter;stroke-miterlimit:4;stroke-dasharray:none;stroke-opacity:1"
         d="M 179.691,241.449 C 144.73,238.398 114.609,233.051 92.8516,226.172" /><path
         id="path30"
         style="fill:none;stroke:#036998;stroke-width:3.75;stroke-linecap:butt;stroke-linejoin:miter;stroke-miterlimit:4;stroke-dasharray:none;stroke-opacity:1"
         d="m 184.73,229.879 c -34.14,-3.32 -63.21,-9.059 -83.48,-16.438" /><path
         id="path32"
         style="fill:none;stroke:#036998;stroke-width:3.75;stroke-linecap:butt;stroke-linejoin:miter;stroke-miterlimit:4;stroke-dasharray:none;stroke-opacity:1"
         d="m 187.191,219.102 c -32.39,-3.711 -59.492,-9.961 -77.5,-17.774" /><path
         id="path34"
         style="fill:none;stroke:#036998;stroke-width:3.75;stroke-linecap:butt;stroke-linejoin:miter;stroke-miterlimit:4;stroke-dasharray:none;stroke-opacity:1"
         d="m 191.559,206.371 c -25.661,-3.519 -47.457,-8.793 -63.161,-15.281" /><path
         id="path36"
         style="fill:none;stroke:#036998;stroke-width:3.75;stroke-linecap:butt;stroke-linejoin:miter;stroke-miterlimit:4;stroke-dasharray:none;stroke-opacity:1"
         d="M 193.09,194.531 C 182.699,192.66 173.16,190.43 164.691,187.93" /><path
         id="path38"
         style="fill:none;stroke:#036998;stroke-width:3.99993992;stroke-linecap:butt;stroke-linejoin:miter;stroke-miterlimit:4;stroke-dasharray:none;stroke-opacity:1"
         d="M 1.37109,223.281 236.602,341.25 468.672,227.5" /><path
         id="path40"
         style="fill:#036998;fill-opacity:1;fill-rule:nonzero;stroke:none"
         d="m 237.852,311.41 c 8.789,0 15.898,3.551 15.898,7.969 0,4.41 -7.109,7.961 -15.898,7.961 -8.793,0 -15.942,-3.551 -15.942,-7.961 0,-4.418 7.149,-7.969 15.942,-7.969" /><path
         id="path42"
         style="fill:#036998;fill-opacity:1;fill-rule:nonzero;stroke:none"
         d="m 237.852,357.5 -5,-163.75 11.25,0 -6.25,163.75" /><path
         id="path44"
         style="fill:#036998;fill-opacity:1;fill-rule:nonzero;stroke:none"
         d="m 186.602,77.5 112.5,0 0,26.25 -112.5,0 0,-26.25 z" /><path
         id="path46"
         style="fill:#036998;fill-opacity:1;fill-rule:nonzero;stroke:none"
         d="m 207.852,80 71.25,0 0,-47.5 c 0,0 -72.5,-22.5 -71.25,-22.5 1.25,0 0,70 0,70" /></g></g></svg>