<?xml version="1.0" encoding="UTF-8" standalone="no"?>
<svg
   xmlns:dc="http://purl.org/dc/elements/1.1/"
   xmlns:cc="http://creativecommons.org/ns#"
   xmlns:rdf="http://www.w3.org/1999/02/22-rdf-syntax-ns#"
   xmlns:svg="http://www.w3.org/2000/svg"
   xmlns="http://www.w3.org/2000/svg"
   viewBox="0 0 79.712502 27.137501"
   height="27.137501"
   width="79.712502"
   xml:space="preserve"
   version="1.1"
   id="svg2"><metadata
     id="metadata8"><rdf:RDF><cc:Work
         rdf:about=""><dc:format>image/svg+xml</dc:format><dc:type
           rdf:resource="http://purl.org/dc/dcmitype/StillImage" /></cc:Work></rdf:RDF></metadata><defs
     id="defs6" /><g
     transform="matrix(1.25,0,0,-1.25,0,27.1375)"
     id="g10"><g
       transform="scale(0.1,0.1)"
       id="g12"><path
         id="path14"
         style="fill:#036998;fill-opacity:1;fill-rule:nonzero;stroke:none"
         d="m 635.668,196.684 0,-13.293 -134.238,-49.2 -61.153,10.536 -36.699,7.128 -25.176,5.235 -0.625,16.879" /><path
         id="path16"
         style="fill:none;stroke:#ffffff;stroke-width:3.99993992;stroke-linecap:butt;stroke-linejoin:miter;stroke-miterlimit:4;stroke-dasharray:none;stroke-opacity:1"
         d="m 635.668,196.684 0,-13.293 -134.238,-49.2 -61.153,10.536 -36.699,7.128 -25.176,5.235 -0.625,16.879" /><path
         id="path18"
         style="fill:#036998;fill-opacity:1;fill-rule:nonzero;stroke:none"
         d="m 322.184,1.97266 c 17.039,0 30.867,6.04687 30.867,13.49614 0,7.4609 -13.828,13.5156 -30.867,13.5156 -17.043,0 -30.871,-6.0547 -30.871,-13.5156 0,-7.44927 13.828,-13.49614 30.871,-13.49614" /><path
         id="path20"
         style="fill:none;stroke:#ffffff;stroke-width:3.99993992;stroke-linecap:butt;stroke-linejoin:miter;stroke-miterlimit:4;stroke-dasharray:none;stroke-opacity:1"
         d="m 322.184,1.97266 c 17.039,0 30.867,6.04687 30.867,13.49614 0,7.4609 -13.828,13.5156 -30.867,13.5156 -17.043,0 -30.871,-6.0547 -30.871,-13.5156 0,-7.44927 13.828,-13.49614 30.871,-13.49614 z" /><path
         id="path22"
         style="fill:#036998;fill-opacity:1;fill-rule:nonzero;stroke:none"
         d="m 444.008,160.801 57.785,-9.215 133.875,45.098 -116.973,18.32 -140.918,-41.035 40.52,-6.906" /><path
         id="path24"
         style="fill:none;stroke:#ffffff;stroke-width:3.99993992;stroke-linecap:butt;stroke-linejoin:miter;stroke-miterlimit:4;stroke-dasharray:none;stroke-opacity:1"
         d="m 444.008,160.801 57.785,-9.215 133.875,45.098 -116.973,18.32 -140.918,-41.035 40.52,-6.906" /><path
         id="path26"
         style="fill:#036998;fill-opacity:1;fill-rule:nonzero;stroke:none"
         d="m 434.262,158.41 c 41.582,10.57 50.683,20.863 50.683,20.863 -14.043,6.766 -64.316,-11.441 -64.316,-11.441 l -8.906,-3.062 22.539,-6.36" /><path
         id="path28"
         style="fill:none;stroke:#ffffff;stroke-width:3.99993992;stroke-linecap:butt;stroke-linejoin:miter;stroke-miterlimit:4;stroke-dasharray:none;stroke-opacity:1"
         d="m 434.262,158.41 c 41.582,10.57 50.683,20.863 50.683,20.863 -14.043,6.766 -64.316,-11.441 -64.316,-11.441 l -8.906,-3.062 22.539,-6.36 z" /><path
         id="path30"
         style="fill:#036998;fill-opacity:1;fill-rule:nonzero;stroke:none"
         d="m 418.297,167.063 -40.52,7.074 140.918,40.867 116.973,-18.32 -133.875,-45.098 -58.418,8.977 c 33.465,8.105 41.18,18.71 41.18,18.71 -14.043,6.766 -57.989,-9.464 -57.989,-9.464 l -0.164,-0.282 -40.656,-12.398 0.012,-22.391 53.035,18.035 0.586,0.227 c 0,0 2.461,5.637 2.461,7.551" /><path
         id="path32"
         style="fill:none;stroke:#ffffff;stroke-width:3.99993992;stroke-linecap:butt;stroke-linejoin:miter;stroke-miterlimit:4;stroke-dasharray:none;stroke-opacity:1"
         d="m 418.297,167.063 -40.52,7.074 140.918,40.867 116.973,-18.32 -133.875,-45.098 -58.418,8.977 c 33.465,8.105 41.18,18.71 41.18,18.71 -14.043,6.766 -57.989,-9.464 -57.989,-9.464 l -0.164,-0.282 -40.656,-12.398 0.012,-22.391 53.035,18.035 0.586,0.227 c 0,0 2.461,5.637 2.461,7.551" /><path
         id="path34"
         style="fill:#036998;fill-opacity:1;fill-rule:nonzero;stroke:none"
         d="m 438.93,160.738 c 0.422,-0.074 0.859,0.399 0.976,1.063 0.117,0.66 -0.136,1.258 -0.554,1.328 -0.422,0.074 -0.852,-0.399 -0.969,-1.059 -0.117,-0.664 0.129,-1.257 0.547,-1.332" /><path
         id="path36"
         style="fill:none;stroke:#ffffff;stroke-width:3.99993992;stroke-linecap:butt;stroke-linejoin:miter;stroke-miterlimit:4;stroke-dasharray:none;stroke-opacity:1"
         d="m 438.93,160.738 c 0.422,-0.074 0.859,0.399 0.976,1.063 0.117,0.66 -0.136,1.258 -0.554,1.328 -0.422,0.074 -0.852,-0.399 -0.969,-1.059 -0.117,-0.664 0.129,-1.257 0.547,-1.332 z" /><path
         id="path38"
         style="fill:#036998;fill-opacity:1;fill-rule:nonzero;stroke:none"
         d="m 258.207,211.898 0,-166.2925 c 0,-15.4102 28.555,-27.9102 63.77,-27.9102 35.234,0 63.789,12.5 63.789,27.9102 l 0,167.7075" /><path
         id="path40"
         style="fill:none;stroke:#ffffff;stroke-width:3.99993992;stroke-linecap:butt;stroke-linejoin:miter;stroke-miterlimit:4;stroke-dasharray:none;stroke-opacity:1"
         d="m 258.207,211.898 0,-166.2925 c 0,-15.4102 28.555,-27.9102 63.77,-27.9102 35.234,0 63.789,12.5 63.789,27.9102 l 0,167.7075" /><path
         id="path42"
         style="fill:#036998;fill-opacity:1;fill-rule:nonzero;stroke:none"
         d="m 265.523,80.4102 0,-15.1719 L 125.297,15.6055 1.97656,44.1406 1.73438,62.0898" /><path
         id="path44"
         style="fill:none;stroke:#ffffff;stroke-width:3.99993992;stroke-linecap:butt;stroke-linejoin:miter;stroke-miterlimit:4;stroke-dasharray:none;stroke-opacity:1"
         d="m 265.523,80.4102 0,-15.1719 L 125.297,15.6055 1.97656,44.1406 1.73438,62.0898" /><path
         id="path46"
         style="fill:#036998;fill-opacity:1;fill-rule:nonzero;stroke:none"
         d="M 220.414,86.7852 265.523,80.4102 125.297,33.9063 1.97656,62.4414 148.902,103.668 l 33.75,-5.7657" /><path
         id="path48"
         style="fill:none;stroke:#ffffff;stroke-width:3.99993992;stroke-linecap:butt;stroke-linejoin:miter;stroke-miterlimit:4;stroke-dasharray:none;stroke-opacity:1"
         d="M 220.414,86.7852 265.523,80.4102 125.297,33.9063 1.97656,62.4414 148.902,103.668 l 33.75,-5.7657" /><path
         id="path50"
         style="fill:#036998;fill-opacity:1;fill-rule:nonzero;stroke:none"
         d="m 181.957,98.2227 c -31.004,-7.75 -42.285,-23.25 -42.285,-23.25 46.777,-1.3868 80.254,12.0586 80.254,12.0586" /><path
         id="path52"
         style="fill:none;stroke:#ffffff;stroke-width:3.99993992;stroke-linecap:butt;stroke-linejoin:miter;stroke-miterlimit:4;stroke-dasharray:none;stroke-opacity:1"
         d="m 181.957,98.2227 c -31.004,-7.75 -42.285,-23.25 -42.285,-23.25 46.777,-1.3868 80.254,12.0586 80.254,12.0586" /><path
         id="path54"
         style="fill:#036998;fill-opacity:1;fill-rule:nonzero;stroke:none"
         d="M 179.496,97.4336 282.68,127.5 c 14.804,-0.703 12.89,-12.684 12.89,-12.684 0.703,-7.75 -11.054,-11.117 -11.054,-11.117 L 217.113,86.1602" /><path
         id="path56"
         style="fill:none;stroke:#ffffff;stroke-width:3.99993992;stroke-linecap:butt;stroke-linejoin:miter;stroke-miterlimit:4;stroke-dasharray:none;stroke-opacity:1"
         d="M 179.496,97.4336 282.68,127.5 c 14.804,-0.703 12.89,-12.684 12.89,-12.684 0.703,-7.75 -11.054,-11.117 -11.054,-11.117 L 217.113,86.1602" /><path
         id="path58"
         style="fill:#036998;fill-opacity:1;fill-rule:nonzero;stroke:none"
         d="m 215.512,86.0156 c 0.859,0 1.543,0.3438 1.543,0.7696 0,0.4257 -0.684,0.7734 -1.543,0.7734 -0.86,0 -1.543,-0.3477 -1.543,-0.7734 0,-0.4258 0.683,-0.7696 1.543,-0.7696" /><path
         id="path60"
         style="fill:none;stroke:#ffffff;stroke-width:3.99993992;stroke-linecap:butt;stroke-linejoin:miter;stroke-miterlimit:4;stroke-dasharray:none;stroke-opacity:1"
         d="m 215.512,86.0156 c 0.859,0 1.543,0.3438 1.543,0.7696 0,0.4257 -0.684,0.7734 -1.543,0.7734 -0.86,0 -1.543,-0.3477 -1.543,-0.7734 0,-0.4258 0.683,-0.7696 1.543,-0.7696 z" /></g></g></svg>