<?xml version="1.0" encoding="UTF-8" standalone="no"?>
<svg
   xmlns:dc="http://purl.org/dc/elements/1.1/"
   xmlns:cc="http://creativecommons.org/ns#"
   xmlns:rdf="http://www.w3.org/1999/02/22-rdf-syntax-ns#"
   xmlns:svg="http://www.w3.org/2000/svg"
   xmlns="http://www.w3.org/2000/svg"
   viewBox="0 0 58.700001 43.4375"
   height="43.4375"
   width="58.700001"
   xml:space="preserve"
   version="1.1"
   id="svg2"><metadata
     id="metadata8"><rdf:RDF><cc:Work
         rdf:about=""><dc:format>image/svg+xml</dc:format><dc:type
           rdf:resource="http://purl.org/dc/dcmitype/StillImage" /></cc:Work></rdf:RDF></metadata><defs
     id="defs6" /><g
     transform="matrix(1.25,0,0,-1.25,0,43.4375)"
     id="g10"><g
       transform="scale(0.1,0.1)"
       id="g12"><path
         id="path14"
         style="fill:#ffffff;fill-opacity:1;fill-rule:nonzero;stroke:none"
         d="m 234.863,173.305 c 128.867,0 233.34,19.785 233.34,44.195 0,24.41 -104.473,44.195 -233.34,44.195 -128.867,0 -233.33956,-19.785 -233.33956,-44.195 0,-24.41 104.47256,-44.195 233.33956,-44.195" /><path
         id="path16"
         style="fill:none;stroke:#000000;stroke-width:1.49994004;stroke-linecap:butt;stroke-linejoin:miter;stroke-miterlimit:4;stroke-dasharray:none;stroke-opacity:1"
         d="m 234.863,173.305 c 128.867,0 233.34,19.785 233.34,44.195 0,24.41 -104.473,44.195 -233.34,44.195 -128.867,0 -233.33956,-19.785 -233.33956,-44.195 0,-24.41 104.47256,-44.195 233.33956,-44.195 z" /><path
         id="path18"
         style="fill:#036998;fill-opacity:1;fill-rule:nonzero;stroke:none"
         d="m 236.113,95.8008 c 128.867,0 232.09,97.2892 232.09,121.6992 0,24.41 -104.473,44.195 -233.34,44.195 C 105.996,261.695 1.52344,241.91 1.52344,217.5 1.52344,193.09 107.246,95.8008 236.113,95.8008" /><path
         id="path20"
         style="fill:#ffffff;fill-opacity:1;fill-rule:nonzero;stroke:none"
         d="m 234.863,173.305 c 128.867,0 233.34,19.785 233.34,44.195 0,24.41 -104.473,44.195 -233.34,44.195 -128.867,0 -233.33956,-19.785 -233.33956,-44.195 0,-24.41 104.47256,-44.195 233.33956,-44.195" /><path
         id="path22"
         style="fill:none;stroke:#036998;stroke-width:3.99993992;stroke-linecap:butt;stroke-linejoin:miter;stroke-miterlimit:4;stroke-dasharray:none;stroke-opacity:1"
         d="m 234.863,173.305 c 128.867,0 233.34,19.785 233.34,44.195 0,24.41 -104.473,44.195 -233.34,44.195 -128.867,0 -233.33956,-19.785 -233.33956,-44.195 0,-24.41 104.47256,-44.195 233.33956,-44.195 z" /><path
         id="path24"
         style="fill:none;stroke:#036998;stroke-width:3.75;stroke-linecap:butt;stroke-linejoin:miter;stroke-miterlimit:4;stroke-dasharray:none;stroke-opacity:1"
         d="m 174.199,250.582 c -36.816,-2.238 -69.492,-6.523 -95.0076,-12.238" /><path
         id="path26"
         style="fill:none;stroke:#036998;stroke-width:3.75;stroke-linecap:butt;stroke-linejoin:miter;stroke-miterlimit:4;stroke-dasharray:none;stroke-opacity:1"
         d="m 176.68,241.348 c -35.723,-2.61 -66.992,-7.379 -90.6253,-13.614" /><path
         id="path28"
         style="fill:none;stroke:#036998;stroke-width:3.75;stroke-linecap:butt;stroke-linejoin:miter;stroke-miterlimit:4;stroke-dasharray:none;stroke-opacity:1"
         d="m 179.219,231.43 c -34.961,-3.024 -65.078,-8.371 -86.8362,-15.239" /><path
         id="path30"
         style="fill:none;stroke:#036998;stroke-width:3.75;stroke-linecap:butt;stroke-linejoin:miter;stroke-miterlimit:4;stroke-dasharray:none;stroke-opacity:1"
         d="m 184.246,219.871 c -34.148,-3.293 -63.211,-9.066 -83.476,-16.414" /><path
         id="path32"
         style="fill:none;stroke:#036998;stroke-width:3.75;stroke-linecap:butt;stroke-linejoin:miter;stroke-miterlimit:4;stroke-dasharray:none;stroke-opacity:1"
         d="m 186.699,209.109 c -32.39,-3.734 -59.472,-9.976 -77.5,-17.777" /><path
         id="path34"
         style="fill:none;stroke:#036998;stroke-width:3.75;stroke-linecap:butt;stroke-linejoin:miter;stroke-miterlimit:4;stroke-dasharray:none;stroke-opacity:1"
         d="M 191.094,196.379 C 165.41,192.871 143.613,187.578 127.93,181.098" /><path
         id="path36"
         style="fill:none;stroke:#036998;stroke-width:3.75;stroke-linecap:butt;stroke-linejoin:miter;stroke-miterlimit:4;stroke-dasharray:none;stroke-opacity:1"
         d="m 192.59,184.527 c -10.363,-1.875 -19.895,-4.097 -28.391,-6.601" /><path
         id="path38"
         style="fill:none;stroke:#036998;stroke-width:3.99993992;stroke-linecap:butt;stroke-linejoin:miter;stroke-miterlimit:4;stroke-dasharray:none;stroke-opacity:1"
         d="M 0.898438,213.297 236.113,331.25 468.203,217.5" /><path
         id="path40"
         style="fill:#036998;fill-opacity:1;fill-rule:nonzero;stroke:none"
         d="m 237.363,301.422 c 8.789,0 15.907,3.558 15.907,7.953 0,4.395 -7.118,7.953 -15.907,7.953 -8.789,0 -15.91,-3.558 -15.91,-7.953 0,-4.395 7.121,-7.953 15.91,-7.953" /><path
         id="path42"
         style="fill:#036998;fill-opacity:1;fill-rule:nonzero;stroke:none"
         d="m 237.363,347.5 -5,-163.75 11.25,0 -6.25,163.75" /><path
         id="path44"
         style="fill:#036998;fill-opacity:1;fill-rule:nonzero;stroke:none"
         d="m 186.113,67.5 112.5,0 0,26.25 -112.5,0 0,-26.25 z" /><path
         id="path46"
         style="fill:#036998;fill-opacity:1;fill-rule:nonzero;stroke:none"
         d="m 207.363,70 71.25,0 0,-47.5 c 0,0 -72.5,-22.5 -71.25,-22.5 1.25,0 0,70 0,70" /></g></g></svg>