<svg xmlns="http://www.w3.org/2000/svg" viewBox="0 0 60 45" height="45" width="60"><path d="M29.419 22.085c16.108 0 29.165-2.471 29.165-5.522 0-3.052-13.057-5.523-29.165-5.523-16.109 0-29.17 2.471-29.17 5.523 0 3.05 13.061 5.522 29.17 5.522" fill="#fff"/><path d="M29.419 22.085c16.108 0 29.165-2.471 29.165-5.522 0-3.052-13.057-5.523-29.165-5.523-16.109 0-29.17 2.471-29.17 5.523 0 3.05 13.061 5.522 29.17 5.522z" fill="none" stroke="#000" stroke-width=".1875"/><path d="M29.575 31.773c16.109 0 29.009-12.16 29.009-15.21 0-3.052-13.057-5.523-29.165-5.523-16.109 0-29.17 2.471-29.17 5.523 0 3.05 13.217 15.21 29.326 15.21" fill="#036998"/><path d="M29.419 22.085c16.108 0 29.165-2.471 29.165-5.522 0-3.052-13.057-5.523-29.165-5.523-16.109 0-29.17 2.471-29.17 5.523 0 3.05 13.061 5.522 29.17 5.522" fill="#fff"/><path d="M29.419 22.085c16.108 0 29.165-2.471 29.165-5.522 0-3.052-13.057-5.523-29.165-5.523-16.109 0-29.17 2.471-29.17 5.523 0 3.05 13.061 5.522 29.17 5.522z" fill="none" stroke="#036998" stroke-width=".5"/><path d="M21.836 12.426c-4.604.28-8.686.817-11.88 1.53M22.143 13.579c-4.462.327-8.373.924-11.328 1.705M22.461 14.819c-4.37.381-8.135 1.05-10.855 1.91M23.091 16.265c-4.267.415-7.901 1.133-10.435 2.055M23.399 17.612c-4.049.464-7.437 1.245-9.688 2.222M23.945 19.204c-3.208.44-5.932 1.099-7.895 1.91M24.136 20.684a33.761 33.761 0 0 0-3.55.825" fill="none" stroke="#036998" stroke-width=".46875"/><path d="M.171 17.09L29.575 2.344l29.009 14.219" fill="none" stroke="#036998" stroke-width=".5"/><path d="M29.732 6.074c1.098 0 1.987-.444 1.987-.996s-.889-.996-1.988-.996-1.992.444-1.992.996.893.996 1.992.996" fill="#036998"/><path d="M29.732.313l-.625 20.468h1.406L29.73.313M23.325 35.313h14.063V32.03H23.325v3.282z" fill="#036998"/><path d="M25.982 35h8.906v5.938s-9.063 2.812-8.907 2.812c.157 0 0-8.75 0-8.75" fill="#036998"/></svg>