<?xml version="1.0" encoding="UTF-8" standalone="no"?>
<svg
   xmlns:dc="http://purl.org/dc/elements/1.1/"
   xmlns:cc="http://creativecommons.org/ns#"
   xmlns:rdf="http://www.w3.org/1999/02/22-rdf-syntax-ns#"
   xmlns:svg="http://www.w3.org/2000/svg"
   xmlns="http://www.w3.org/2000/svg"
   viewBox="0 0 80 28.75"
   height="28.75"
   width="80"
   xml:space="preserve"
   version="1.1"
   id="svg2"><metadata
     id="metadata8"><rdf:RDF><cc:Work
         rdf:about=""><dc:format>image/svg+xml</dc:format><dc:type
           rdf:resource="http://purl.org/dc/dcmitype/StillImage" /></cc:Work></rdf:RDF></metadata><defs
     id="defs6" /><g
     transform="matrix(1.25,0,0,-1.25,0,28.75)"
     id="g10"><g
       transform="scale(0.1,0.1)"
       id="g12"><path
         id="path14"
         style="fill:#036998;fill-opacity:1;fill-rule:nonzero;stroke:none"
         d="m 635.941,206.719 0,-13.321 -134.261,-49.179 -61.129,10.551 -36.723,7.109 -25.156,5.242 -0.621,16.867" /><path
         id="path16"
         style="fill:none;stroke:#ffffff;stroke-width:3.99993992;stroke-linecap:butt;stroke-linejoin:miter;stroke-miterlimit:4;stroke-dasharray:none;stroke-opacity:1"
         d="m 635.941,206.727 0,-13.321 -134.261,-49.179 -61.129,10.55 -36.723,7.098 -25.156,5.242 -0.621,16.867" /><path
         id="path18"
         style="fill:#036998;fill-opacity:1;fill-rule:nonzero;stroke:none"
         d="m 322.461,12 c 17.027,0 30.859,6.0508 30.859,13.5117 0,7.4571 -13.832,13.5196 -30.859,13.5196 -17.07,0 -30.902,-6.0625 -30.902,-13.5196 C 291.559,18.0508 305.391,12 322.461,12" /><path
         id="path20"
         style="fill:none;stroke:#ffffff;stroke-width:3.99993992;stroke-linecap:butt;stroke-linejoin:miter;stroke-miterlimit:4;stroke-dasharray:none;stroke-opacity:1"
         d="m 322.461,11.9961 c 17.027,0 30.859,6.0586 30.859,13.5195 0,7.461 -13.832,13.5117 -30.859,13.5117 -17.07,0 -30.902,-6.0507 -30.902,-13.5117 0,-7.4609 13.832,-13.5195 30.902,-13.5195 z" /><path
         id="path22"
         style="fill:#036998;fill-opacity:1;fill-rule:nonzero;stroke:none"
         d="m 444.262,170.828 57.808,-9.219 133.871,45.11 -116.992,18.32 -140.898,-41.051 40.5,-6.91" /><path
         id="path24"
         style="fill:none;stroke:#ffffff;stroke-width:3.99993992;stroke-linecap:butt;stroke-linejoin:miter;stroke-miterlimit:4;stroke-dasharray:none;stroke-opacity:1"
         d="m 444.262,170.828 57.808,-9.223 133.871,45.122 -116.992,18.32 -140.898,-41.063 40.5,-6.906" /><path
         id="path26"
         style="fill:#036998;fill-opacity:1;fill-rule:nonzero;stroke:none"
         d="m 434.531,168.441 c 41.559,10.547 50.668,20.86 50.668,20.86 -14.027,6.758 -64.301,-11.442 -64.301,-11.442 l -8.91,-3.05 22.543,-6.368" /><path
         id="path28"
         style="fill:none;stroke:#ffffff;stroke-width:3.99993992;stroke-linecap:butt;stroke-linejoin:miter;stroke-miterlimit:4;stroke-dasharray:none;stroke-opacity:1"
         d="m 434.531,168.445 c 41.559,10.539 50.668,20.86 50.668,20.86 -14.027,6.75 -64.301,-11.45 -64.301,-11.45 l -8.91,-3.05 22.543,-6.36 z" /><path
         id="path30"
         style="fill:#036998;fill-opacity:1;fill-rule:nonzero;stroke:none"
         d="m 418.551,177.078 -40.5,7.07 140.898,40.891 116.992,-18.32 -133.871,-45.11 -58.441,8.981 c 33.48,8.09 41.172,18.711 41.172,18.711 -14.02,6.758 -57.961,-9.449 -57.961,-9.449 l -0.16,-0.313 -40.66,-12.391 0,-22.378 53.039,18.05 0.589,0.192 c 0,0 2.461,5.668 2.461,7.578" /><path
         id="path32"
         style="fill:none;stroke:#ffffff;stroke-width:3.99993992;stroke-linecap:butt;stroke-linejoin:miter;stroke-miterlimit:4;stroke-dasharray:none;stroke-opacity:1"
         d="m 418.551,177.078 -40.5,7.067 140.898,40.902 116.992,-18.32 -133.871,-45.122 -58.441,8.993 c 33.48,8.078 41.172,18.707 41.172,18.707 -14.02,6.75 -57.961,-9.457 -57.961,-9.457 l -0.16,-0.313 -40.66,-12.379 0,-22.379 53.039,18.039 0.589,0.2 c 0,0 2.461,5.66 2.461,7.582" /><path
         id="path34"
         style="fill:#036998;fill-opacity:1;fill-rule:nonzero;stroke:none"
         d="m 439.18,170.75 c 0.429,-0.039 0.859,0.43 0.98,1.09 0.11,0.672 -0.121,1.25 -0.551,1.332 -0.429,0.078 -0.859,-0.434 -0.98,-1.051 -0.109,-0.672 0.16,-1.293 0.551,-1.371" /><path
         id="path36"
         style="fill:none;stroke:#ffffff;stroke-width:3.99993992;stroke-linecap:butt;stroke-linejoin:miter;stroke-miterlimit:4;stroke-dasharray:none;stroke-opacity:1"
         d="m 439.18,170.746 c 0.429,-0.039 0.859,0.43 0.98,1.102 0.11,0.66 -0.121,1.25 -0.551,1.32 -0.429,0.078 -0.859,-0.434 -0.98,-1.051 -0.109,-0.66 0.16,-1.289 0.551,-1.371 z" /><path
         id="path38"
         style="fill:#036998;fill-opacity:1;fill-rule:nonzero;stroke:none"
         d="m 258.48,221.922 0,-166.2931 c 0,-15.3906 28.551,-27.8906 63.75,-27.8906 35.231,0 63.79,12.5 63.79,27.8906 l 0,167.6991" /><path
         id="path40"
         style="fill:none;stroke:#ffffff;stroke-width:3.99993992;stroke-linecap:butt;stroke-linejoin:miter;stroke-miterlimit:4;stroke-dasharray:none;stroke-opacity:1"
         d="m 258.48,221.918 0,-166.293 c 0,-15.3906 28.551,-27.8906 63.75,-27.8906 35.231,0 63.79,12.5 63.79,27.8906 l 0,167.703" /><path
         id="path42"
         style="fill:#036998;fill-opacity:1;fill-rule:nonzero;stroke:none"
         d="m 265.781,90.4414 0,-15.1601 L 125.551,25.6289 2.23047,54.1914 1.98828,72.1211" /><path
         id="path44"
         style="fill:none;stroke:#ffffff;stroke-width:3.99993992;stroke-linecap:butt;stroke-linejoin:miter;stroke-miterlimit:4;stroke-dasharray:none;stroke-opacity:1"
         d="m 265.781,90.4375 0,-15.1602 L 125.551,25.625 2.23047,54.1875 1.98828,72.1172" /><path
         id="path46"
         style="fill:#036998;fill-opacity:1;fill-rule:nonzero;stroke:none"
         d="M 220.66,96.8008 265.781,90.4414 125.551,43.9492 2.23047,72.4688 149.18,113.68 l 33.75,-5.739" /><path
         id="path48"
         style="fill:none;stroke:#ffffff;stroke-width:3.99993992;stroke-linecap:butt;stroke-linejoin:miter;stroke-miterlimit:4;stroke-dasharray:none;stroke-opacity:1"
         d="M 220.66,96.8047 265.781,90.4375 125.551,43.957 2.23047,72.4648 149.18,113.676 l 33.75,-5.738" /><path
         id="path50"
         style="fill:#036998;fill-opacity:1;fill-rule:nonzero;stroke:none"
         d="m 182.23,108.25 c -31.019,-7.738 -42.308,-23.2383 -42.308,-23.2383 46.797,-1.4101 80.277,12.0664 80.277,12.0664" /><path
         id="path52"
         style="fill:none;stroke:#ffffff;stroke-width:3.99993992;stroke-linecap:butt;stroke-linejoin:miter;stroke-miterlimit:4;stroke-dasharray:none;stroke-opacity:1"
         d="m 182.23,108.246 c -31.019,-7.73 -42.308,-23.2382 -42.308,-23.2382 46.797,-1.4101 80.277,12.0703 80.277,12.0703" /><path
         id="path54"
         style="fill:#036998;fill-opacity:1;fill-rule:nonzero;stroke:none"
         d="m 179.77,107.469 103.16,30.07 c 14.8,-0.699 12.89,-12.687 12.89,-12.687 0.7,-7.774 -11.05,-11.133 -11.05,-11.133 L 217.379,96.1797" /><path
         id="path56"
         style="fill:none;stroke:#ffffff;stroke-width:3.99993992;stroke-linecap:butt;stroke-linejoin:miter;stroke-miterlimit:4;stroke-dasharray:none;stroke-opacity:1"
         d="m 179.77,107.465 103.16,30.082 c 14.8,-0.699 12.89,-12.699 12.89,-12.699 0.7,-7.77 -11.05,-11.133 -11.05,-11.133 L 217.379,96.1758" /><path
         id="path58"
         style="fill:#036998;fill-opacity:1;fill-rule:nonzero;stroke:none"
         d="m 215.781,96.0586 c 0.86,0 1.52,0.3125 1.52,0.7422 0,0.4297 -0.66,0.7773 -1.52,0.7773 -0.859,0 -1.562,-0.3476 -1.562,-0.7773 0,-0.4297 0.703,-0.7422 1.562,-0.7422" /><path
         id="path60"
         style="fill:none;stroke:#ffffff;stroke-width:3.99993992;stroke-linecap:butt;stroke-linejoin:miter;stroke-miterlimit:4;stroke-dasharray:none;stroke-opacity:1"
         d="m 215.781,96.0547 c 0.86,0 1.52,0.3203 1.52,0.75 0,0.4297 -0.66,0.7812 -1.52,0.7812 -0.859,0 -1.562,-0.3515 -1.562,-0.7812 0,-0.4297 0.703,-0.75 1.562,-0.75 z" /></g></g></svg>