<?xml version="1.0" encoding="UTF-8" standalone="no"?>
<svg
   xmlns:dc="http://purl.org/dc/elements/1.1/"
   xmlns:cc="http://creativecommons.org/ns#"
   xmlns:rdf="http://www.w3.org/1999/02/22-rdf-syntax-ns#"
   xmlns:svg="http://www.w3.org/2000/svg"
   xmlns="http://www.w3.org/2000/svg"
   viewBox="0 0 48.75 47.5"
   height="47.5"
   width="48.75"
   xml:space="preserve"
   version="1.1"
   id="svg2"><metadata
     id="metadata8"><rdf:RDF><cc:Work
         rdf:about=""><dc:format>image/svg+xml</dc:format><dc:type
           rdf:resource="http://purl.org/dc/dcmitype/StillImage" /></cc:Work></rdf:RDF></metadata><defs
     id="defs6" /><g
     transform="matrix(1.25,0,0,-1.25,0,47.5)"
     id="g10"><g
       transform="scale(0.1,0.1)"
       id="g12"><path
         id="path14"
         style="fill:#036998;fill-opacity:1;fill-rule:nonzero;stroke:none"
         d="m 128.52,229.578 205.82,0 29.25,140.07 -195.82,0 -39.25,-140.07" /><path
         id="path16"
         style="fill:none;stroke:#ffffff;stroke-width:3.99993992;stroke-linecap:butt;stroke-linejoin:miter;stroke-miterlimit:4;stroke-dasharray:none;stroke-opacity:1"
         d="m 128.52,229.574 205.82,0 29.25,140.078 -195.82,0 -39.25,-140.078 z" /><path
         id="path18"
         style="fill:#036998;fill-opacity:1;fill-rule:nonzero;stroke:none"
         d="m 128.52,229.578 21.05,-40 205.821,0 -21.051,40 -205.82,0" /><path
         id="path20"
         style="fill:none;stroke:#ffffff;stroke-width:3.99993992;stroke-linecap:butt;stroke-linejoin:miter;stroke-miterlimit:4;stroke-dasharray:none;stroke-opacity:1"
         d="m 128.52,229.574 21.05,-40 205.821,0 -21.051,40 -205.82,0 z" /><path
         id="path22"
         style="fill:#036998;fill-opacity:1;fill-rule:nonzero;stroke:none"
         d="m 363.59,369.648 19.73,-37.5 -27.929,-142.57 -21.051,40 29.25,140.07" /><path
         id="path24"
         style="fill:none;stroke:#ffffff;stroke-width:3.99993992;stroke-linecap:butt;stroke-linejoin:miter;stroke-miterlimit:4;stroke-dasharray:none;stroke-opacity:1"
         d="m 363.59,369.652 19.73,-37.5 -27.929,-142.578 -21.051,40 29.25,140.078 z" /><path
         id="path26"
         style="fill:#036998;fill-opacity:1;fill-rule:nonzero;stroke:none"
         d="m 4.57031,53.5586 157.76969,0 149.219,172.1134 -147.688,0 L 4.57031,53.5586" /><path
         id="path28"
         style="fill:none;stroke:#ffffff;stroke-width:3.99993992;stroke-linecap:butt;stroke-linejoin:miter;stroke-miterlimit:4;stroke-dasharray:none;stroke-opacity:1"
         d="m 4.57031,53.5625 157.76969,0 149.219,172.1095 -147.688,0 L 4.57031,53.5625 Z" /><path
         id="path30"
         style="fill:#036998;fill-opacity:1;fill-rule:nonzero;stroke:none"
         d="m 4.57031,53.5586 21.05079,-40 157.7769,0 -21.058,40 -157.76969,0" /><path
         id="path32"
         style="fill:none;stroke:#ffffff;stroke-width:3.99993992;stroke-linecap:butt;stroke-linejoin:miter;stroke-miterlimit:4;stroke-dasharray:none;stroke-opacity:1"
         d="m 4.57031,53.5625 21.05079,-40 157.7769,0 -21.058,40 -157.76969,0 z" /><path
         id="path34"
         style="fill:#036998;fill-opacity:1;fill-rule:nonzero;stroke:none"
         d="m 311.559,225.672 19.769,-37.543 -147.93,-174.5704 -21.058,40 149.219,172.1134" /><path
         id="path36"
         style="fill:none;stroke:#ffffff;stroke-width:3.99993992;stroke-linecap:butt;stroke-linejoin:miter;stroke-miterlimit:4;stroke-dasharray:none;stroke-opacity:1"
         d="m 311.559,225.672 19.769,-37.539 -147.93,-174.5705 -21.058,40 149.219,172.1095 z" /><path
         id="path38"
         style="fill:#ffffff;fill-opacity:1;fill-rule:nonzero;stroke:none"
         d="m 157.969,210.441 16.051,0 -10.93,-12 -16.059,0 10.938,12" /><path
         id="path40"
         style="fill:#ffffff;fill-opacity:1;fill-rule:nonzero;stroke:none"
         d="m 133.359,172.859 19.34,4.493 -10.937,-11.993 -10.512,6.442" /><path
         id="path42"
         style="fill:#ffffff;fill-opacity:1;fill-rule:nonzero;stroke:none"
         d="m 186.051,210.441 16.058,0 -10.898,-12 -16.051,0 10.891,12" /><path
         id="path44"
         style="fill:#ffffff;fill-opacity:1;fill-rule:nonzero;stroke:none"
         d="m 214.18,210.441 16.05,0 -8.902,-12 -18.047,0 10.899,12" /><path
         id="path46"
         style="fill:#ffffff;fill-opacity:1;fill-rule:nonzero;stroke:none"
         d="m 242.301,210.441 16.097,0 -8.949,-12 -16.051,0 8.903,12" /><path
         id="path48"
         style="fill:#ffffff;fill-opacity:1;fill-rule:nonzero;stroke:none"
         d="m 126.719,141.102 16.09,0 -11.36,-11.993 -16.058,0 11.328,11.993" /><path
         id="path50"
         style="fill:#ffffff;fill-opacity:1;fill-rule:nonzero;stroke:none"
         d="m 154.84,141.102 16.058,0 -9.339,-11.993 -18.079,0 11.36,11.993" /><path
         id="path52"
         style="fill:#ffffff;fill-opacity:1;fill-rule:nonzero;stroke:none"
         d="m 182.969,141.102 16.051,0 -9.329,-11.993 -16.062,0 9.34,11.993" /><path
         id="path54"
         style="fill:#ffffff;fill-opacity:1;fill-rule:nonzero;stroke:none"
         d="m 94.7305,109.109 16.0505,0 -10.191,-12.0309 -16.0587,0 10.1992,12.0309" /><path
         id="path56"
         style="fill:#ffffff;fill-opacity:1;fill-rule:nonzero;stroke:none"
         d="m 122.809,109.109 16.101,0 -8.211,-12.0309 -18.039,0 10.149,12.0309" /><path
         id="path58"
         style="fill:#ffffff;fill-opacity:1;fill-rule:nonzero;stroke:none"
         d="m 150.941,109.109 16.09,0 -8.203,-12.0309 -16.058,0 8.171,12.0309" /><path
         id="path60"
         style="fill:#ffffff;fill-opacity:1;fill-rule:nonzero;stroke:none"
         d="m 272.422,210.441 16.098,0 -10.942,-12 -16.058,0 10.902,12" /><path
         id="path62"
         style="fill:#ffffff;fill-opacity:1;fill-rule:nonzero;stroke:none"
         d="m 232.969,175.238 11.332,-5.59 -2.153,-1.046 -20.117,-5.391 10.938,12.027" /><path
         id="path64"
         style="fill:#ffffff;fill-opacity:1;fill-rule:nonzero;stroke:none"
         d="m 206.051,171.531 c -3.082,-5.16 -15.11,-9.34 -26.91,-9.34 -11.801,0 -18.832,4.18 -15.743,9.34 3.082,5.16 15.153,9.328 26.954,9.328 11.757,0 18.789,-4.168 15.699,-9.328" /><path
         id="path66"
         style="fill:#036998;fill-opacity:1;fill-rule:nonzero;stroke:none"
         d="m 302.422,260.629 c -1.723,-6.328 -8.242,-11.481 -14.613,-11.481 l -107.61,0 c -6.371,0 -10.16,5.153 -8.48,11.481 l 20.902,78.32 c 1.68,6.371 8.238,11.52 14.57,11.52 l 107.649,0 c 6.371,0 10.16,-5.149 8.441,-11.52 l -20.859,-78.32" /><path
         id="path68"
         style="fill:none;stroke:#ffffff;stroke-width:3.99993992;stroke-linecap:butt;stroke-linejoin:miter;stroke-miterlimit:4;stroke-dasharray:none;stroke-opacity:1"
         d="m 302.422,260.633 c -1.723,-6.328 -8.242,-11.488 -14.613,-11.488 l -107.61,0 c -6.371,0 -10.16,5.16 -8.48,11.488 l 20.902,78.32 c 1.68,6.36 8.238,11.52 14.57,11.52 l 107.649,0 c 6.371,0 10.16,-5.16 8.441,-11.52 l -20.859,-78.32 z" /></g></g></svg>