<?xml version="1.0" encoding="UTF-8" standalone="no"?>
<svg
   xmlns:dc="http://purl.org/dc/elements/1.1/"
   xmlns:cc="http://creativecommons.org/ns#"
   xmlns:rdf="http://www.w3.org/1999/02/22-rdf-syntax-ns#"
   xmlns:svg="http://www.w3.org/2000/svg"
   xmlns="http://www.w3.org/2000/svg"
   viewBox="0 0 48.174999 45.6875"
   height="45.6875"
   width="48.174999"
   xml:space="preserve"
   version="1.1"
   id="svg2"><metadata
     id="metadata8"><rdf:RDF><cc:Work
         rdf:about=""><dc:format>image/svg+xml</dc:format><dc:type
           rdf:resource="http://purl.org/dc/dcmitype/StillImage" /></cc:Work></rdf:RDF></metadata><defs
     id="defs6" /><g
     transform="matrix(1.25,0,0,-1.25,0,45.6875)"
     id="g10"><g
       transform="scale(0.1,0.1)"
       id="g12"><path
         id="path14"
         style="fill:#036998;fill-opacity:1;fill-rule:nonzero;stroke:none"
         d="m 128.512,219.578 205.828,0 29.238,140.082 -195.789,0 -39.277,-140.082" /><path
         id="path16"
         style="fill:none;stroke:#ffffff;stroke-width:3.99993992;stroke-linecap:butt;stroke-linejoin:miter;stroke-miterlimit:4;stroke-dasharray:none;stroke-opacity:1"
         d="m 128.512,219.578 205.828,0 29.238,140.082 -195.789,0 -39.277,-140.082 z" /><path
         id="path18"
         style="fill:#036998;fill-opacity:1;fill-rule:nonzero;stroke:none"
         d="m 128.512,219.578 21.054,-40.008 205.829,0 -21.055,40.008 -205.828,0" /><path
         id="path20"
         style="fill:none;stroke:#ffffff;stroke-width:3.99993992;stroke-linecap:butt;stroke-linejoin:miter;stroke-miterlimit:4;stroke-dasharray:none;stroke-opacity:1"
         d="m 128.512,219.578 21.054,-40.008 205.829,0 -21.055,40.008 -205.828,0 z" /><path
         id="path22"
         style="fill:#036998;fill-opacity:1;fill-rule:nonzero;stroke:none"
         d="M 363.578,359.66 383.324,322.148 355.395,179.57 334.34,219.578 363.578,359.66" /><path
         id="path24"
         style="fill:none;stroke:#ffffff;stroke-width:3.99993992;stroke-linecap:butt;stroke-linejoin:miter;stroke-miterlimit:4;stroke-dasharray:none;stroke-opacity:1"
         d="M 363.578,359.66 383.324,322.148 355.395,179.57 334.34,219.578 363.578,359.66 Z" /><path
         id="path26"
         style="fill:#036998;fill-opacity:1;fill-rule:nonzero;stroke:none"
         d="m 4.57422,43.5742 157.76578,0 149.226,172.0898 -147.703,0 L 4.57422,43.5742" /><path
         id="path28"
         style="fill:none;stroke:#ffffff;stroke-width:3.99993992;stroke-linecap:butt;stroke-linejoin:miter;stroke-miterlimit:4;stroke-dasharray:none;stroke-opacity:1"
         d="m 4.57422,43.5742 157.76578,0 149.226,172.0898 -147.703,0 L 4.57422,43.5742 Z" /><path
         id="path30"
         style="fill:#036998;fill-opacity:1;fill-rule:nonzero;stroke:none"
         d="M 4.57422,43.5742 25.6289,3.55469 l 157.7661,0 -21.055,40.01951 -157.76578,0" /><path
         id="path32"
         style="fill:none;stroke:#ffffff;stroke-width:3.99993992;stroke-linecap:butt;stroke-linejoin:miter;stroke-miterlimit:4;stroke-dasharray:none;stroke-opacity:1"
         d="M 4.57422,43.5742 25.6289,3.55469 l 157.7661,0 -21.055,40.01951 -157.76578,0 z" /><path
         id="path34"
         style="fill:#036998;fill-opacity:1;fill-rule:nonzero;stroke:none"
         d="M 311.566,215.664 331.313,178.145 183.395,3.55469 162.34,43.5742 311.566,215.664" /><path
         id="path36"
         style="fill:none;stroke:#ffffff;stroke-width:3.99993992;stroke-linecap:butt;stroke-linejoin:miter;stroke-miterlimit:4;stroke-dasharray:none;stroke-opacity:1"
         d="M 311.566,215.664 331.313,178.145 183.395,3.55469 162.34,43.5742 311.566,215.664 Z" /><path
         id="path38"
         style="fill:#ffffff;fill-opacity:1;fill-rule:nonzero;stroke:none"
         d="m 157.965,200.441 16.074,0 -10.937,-12.011 -16.055,0 10.918,12.011" /><path
         id="path40"
         style="fill:#ffffff;fill-opacity:1;fill-rule:nonzero;stroke:none"
         d="m 133.363,162.852 19.336,4.511 -10.937,-12.011 -10.516,6.445" /><path
         id="path42"
         style="fill:#ffffff;fill-opacity:1;fill-rule:nonzero;stroke:none"
         d="m 186.07,200.441 16.055,0 -10.918,-12.011 -16.055,0 10.918,12.011" /><path
         id="path44"
         style="fill:#ffffff;fill-opacity:1;fill-rule:nonzero;stroke:none"
         d="m 214.195,200.441 16.055,0 -8.918,-12.011 -18.055,0 10.918,12.011" /><path
         id="path46"
         style="fill:#ffffff;fill-opacity:1;fill-rule:nonzero;stroke:none"
         d="m 242.301,200.441 16.082,0 -8.926,-12.011 -16.062,0 8.906,12.011" /><path
         id="path48"
         style="fill:#ffffff;fill-opacity:1;fill-rule:nonzero;stroke:none"
         d="m 126.734,131.094 16.063,0 -11.356,-11.992 -16.066,0 11.359,11.992" /><path
         id="path50"
         style="fill:#ffffff;fill-opacity:1;fill-rule:nonzero;stroke:none"
         d="m 154.859,131.094 16.055,0 -9.355,-11.992 -18.067,0 11.367,11.992" /><path
         id="path52"
         style="fill:#ffffff;fill-opacity:1;fill-rule:nonzero;stroke:none"
         d="m 182.965,131.094 16.074,0 -9.355,-11.992 -16.067,0 9.348,11.992" /><path
         id="path54"
         style="fill:#ffffff;fill-opacity:1;fill-rule:nonzero;stroke:none"
         d="m 94.7109,99.1016 16.0661,0 -10.175,-12.0118 -16.0747,0 10.1836,12.0118" /><path
         id="path56"
         style="fill:#ffffff;fill-opacity:1;fill-rule:nonzero;stroke:none"
         d="m 122.828,99.1016 16.063,0 -8.172,-12.0118 -18.078,0 10.187,12.0118" /><path
         id="path58"
         style="fill:#ffffff;fill-opacity:1;fill-rule:nonzero;stroke:none"
         d="m 150.934,99.1016 16.082,0 -8.192,-12.0118 -16.054,0 8.164,12.0118" /><path
         id="path60"
         style="fill:#ffffff;fill-opacity:1;fill-rule:nonzero;stroke:none"
         d="m 272.426,200.441 16.074,0 -10.937,-12.011 -16.055,0 10.918,12.011" /><path
         id="path62"
         style="fill:#ffffff;fill-opacity:1;fill-rule:nonzero;stroke:none"
         d="m 232.965,165.234 11.336,-5.586 -2.137,-1.054 -20.129,-5.371 10.93,12.011" /><path
         id="path64"
         style="fill:#ffffff;fill-opacity:1;fill-rule:nonzero;stroke:none"
         d="m 206.07,161.523 c -3.097,-5.156 -15.136,-9.335 -26.925,-9.335 -11.786,0 -18.836,4.179 -15.75,9.335 3.093,5.157 15.156,9.336 26.953,9.336 11.777,0 18.808,-4.179 15.722,-9.336" /><path
         id="path66"
         style="fill:#036998;fill-opacity:1;fill-rule:nonzero;stroke:none"
         d="m 302.406,250.645 c -1.718,-6.36 -8.242,-11.512 -14.609,-11.512 l -107.606,0 c -6.367,0 -10.148,5.152 -8.457,11.512 l 20.879,78.3 c 1.7,6.379 8.242,11.535 14.59,11.535 l 107.625,0 c 6.367,0 10.156,-5.156 8.438,-11.535 l -20.86,-78.3" /><path
         id="path68"
         style="fill:none;stroke:#ffffff;stroke-width:3.99993992;stroke-linecap:butt;stroke-linejoin:miter;stroke-miterlimit:4;stroke-dasharray:none;stroke-opacity:1"
         d="m 302.406,250.645 c -1.718,-6.36 -8.242,-11.512 -14.609,-11.512 l -107.606,0 c -6.367,0 -10.148,5.152 -8.457,11.512 l 20.879,78.3 c 1.7,6.379 8.242,11.535 14.59,11.535 l 107.625,0 c 6.367,0 10.156,-5.156 8.438,-11.535 l -20.86,-78.3 z" /></g></g></svg>