<?xml version="1.0" encoding="UTF-8" standalone="no"?>
<svg
   xmlns:dc="http://purl.org/dc/elements/1.1/"
   xmlns:cc="http://creativecommons.org/ns#"
   xmlns:rdf="http://www.w3.org/1999/02/22-rdf-syntax-ns#"
   xmlns:svg="http://www.w3.org/2000/svg"
   xmlns="http://www.w3.org/2000/svg"
   viewBox="0 0 44.237499 29.5"
   height="29.5"
   width="44.237499"
   xml:space="preserve"
   version="1.1"
   id="svg2"><metadata
     id="metadata8"><rdf:RDF><cc:Work
         rdf:about=""><dc:format>image/svg+xml</dc:format><dc:type
           rdf:resource="http://purl.org/dc/dcmitype/StillImage" /></cc:Work></rdf:RDF></metadata><defs
     id="defs6" /><g
     transform="matrix(1.25,0,0,-1.25,0,29.5)"
     id="g10"><g
       transform="scale(0.1,0.1)"
       id="g12"><path
         id="path14"
         style="fill:#087bbb;fill-opacity:1;fill-rule:nonzero;stroke:none"
         d="m 6.34766,5.48047 306.344,0 0,189.688 -306.344,0 0,-189.688 z" /><path
         id="path16"
         style="fill:none;stroke:#ffffff;stroke-width:4.5999999;stroke-linecap:butt;stroke-linejoin:miter;stroke-miterlimit:4;stroke-dasharray:none;stroke-opacity:1"
         d="m 6.34766,5.48047 306.344,0 0,189.688 -306.344,0 0,-189.688 z" /><path
         id="path18"
         style="fill:#087bbb;fill-opacity:1;fill-rule:nonzero;stroke:none"
         d="m 312.027,195.391 -305.46059,0 47.94919,38.269 297.1014,0 0,-188.492 -39.14,-39.57034 0,188.68734 -0.45,1.106" /><path
         id="path20"
         style="fill:none;stroke:#ffffff;stroke-width:4.5999999;stroke-linecap:butt;stroke-linejoin:miter;stroke-miterlimit:4;stroke-dasharray:none;stroke-opacity:1"
         d="m 312.027,195.391 -305.46059,0 47.94919,38.269 297.1014,0 0,-188.492 -39.14,-39.57034 0,188.68734 -0.45,1.106 z" /><path
         id="path22"
         style="fill:#000000;fill-opacity:1;fill-rule:nonzero;stroke:none"
         d="m 312.367,195.723 39.59,38.476" /><path
         id="path24"
         style="fill:none;stroke:#ffffff;stroke-width:4.5999999;stroke-linecap:butt;stroke-linejoin:miter;stroke-miterlimit:4;stroke-dasharray:none;stroke-opacity:1"
         d="m 312.367,195.723 39.59,38.476" /><path
         id="path26"
         style="fill:#ffffff;fill-opacity:1;fill-rule:nonzero;stroke:none"
         d="m 84.6328,112.527 0,-23.4723" /><path
         id="path28"
         style="fill:#ffffff;fill-opacity:1;fill-rule:nonzero;stroke:none"
         d="m 51.7383,22.9297 35.7187,0 39.281,40.1172 37.871,0 39.43,-39.4414 68.106,0 0,27.8984 -52.043,0 -40.297,40.293 -51.539,0 -39.516,39.6011 -37.6211,0.04 0,5.105 -15.3086,-15.305 14.7891,-14.793 0,5.618 30.9726,0 -0.2539,-25.9028 -29.5898,0 0,5.1015 -15.3086,-15.3047 14.793,-14.7968 0,5.6171 30.1054,0.086 0,-24.5469 -29.5898,0 0,5.0938 -15.3086,-15.293 14.793,-14.8008 0,5.6133" /><path
         id="path30"
         style="fill:#ffffff;fill-opacity:1;fill-rule:nonzero;stroke:none"
         d="m 265.699,180.313 -35.722,0 -39.278,-40.118 -37.875,0 -39.426,39.422 -68.1089,0 0,-27.871 52.039,0 40.3009,-40.301 51.535,0 39.524,-39.5895 37.617,-0.0469 0,-5.1172 15.312,15.3125 -14.797,14.8047 0,-5.6172 -30.965,0 0.254,25.8986 29.59,0 0,-5.125 15.301,15.32 -14.793,14.805 0,-5.613 -30.098,-0.098 0,24.551 29.59,0 0,-5.117 15.301,15.32 -14.793,14.797 0,-5.617" /></g></g></svg>