<?xml version="1.0" encoding="UTF-8" standalone="no"?>
<svg
   xmlns:dc="http://purl.org/dc/elements/1.1/"
   xmlns:cc="http://creativecommons.org/ns#"
   xmlns:rdf="http://www.w3.org/1999/02/22-rdf-syntax-ns#"
   xmlns:svg="http://www.w3.org/2000/svg"
   xmlns="http://www.w3.org/2000/svg"
   viewBox="0 0 47.5 33.75"
   height="33.75"
   width="47.5"
   xml:space="preserve"
   version="1.1"
   id="svg2"><metadata
     id="metadata8"><rdf:RDF><cc:Work
         rdf:about=""><dc:format>image/svg+xml</dc:format><dc:type
           rdf:resource="http://purl.org/dc/dcmitype/StillImage" /></cc:Work></rdf:RDF></metadata><defs
     id="defs6" /><g
     transform="matrix(1.25,0,0,-1.25,0,33.75)"
     id="g10"><g
       transform="scale(0.1,0.1)"
       id="g12"><path
         id="path14"
         style="fill:#20a3e4;fill-opacity:1;fill-rule:evenodd;stroke:none"
         d="m 370.23,188.699 c 0,-39.527 -82.339,-71.57 -183.902,-71.57 -101.5975,0 -183.94909,32.043 -183.94909,71.57 l 0,-104.8084 c 0,-39.4922 82.35159,-71.5195 183.94909,-71.5195 101.563,0 183.902,32.0273 183.902,71.5195 l 0,104.8084" /><path
         id="path16"
         style="fill:#20a3e4;fill-opacity:1;fill-rule:evenodd;stroke:none"
         d="m 186.328,117.129 c 101.563,0 183.902,32.043 183.902,71.57 0,39.492 -82.339,71.52 -183.902,71.52 -101.5975,0 -183.94909,-32.028 -183.94909,-71.52 0,-39.527 82.35159,-71.57 183.94909,-71.57" /><path
         id="path18"
         style="fill:none;stroke:#afdff4;stroke-width:4.77099991;stroke-linecap:square;stroke-linejoin:bevel;stroke-miterlimit:10;stroke-dasharray:none;stroke-opacity:1"
         d="m 370.23,188.691 c 0,-39.527 -82.339,-71.558 -183.902,-71.558 -101.5975,0 -183.94909,32.031 -183.94909,71.558 l 0,-104.7965 c 0,-39.4922 82.35159,-71.5195 183.94909,-71.5195 101.563,0 183.902,32.0273 183.902,71.5195 l 0,104.7965 z" /><path
         id="path20"
         style="fill:none;stroke:#afdff4;stroke-width:4.77099991;stroke-linecap:square;stroke-linejoin:bevel;stroke-miterlimit:10;stroke-dasharray:none;stroke-opacity:1"
         d="m 186.328,117.133 c 101.563,0 183.902,32.031 183.902,71.558 0,39.5 -82.339,71.532 -183.902,71.532 -101.5975,0 -183.94909,-32.032 -183.94909,-71.532 0,-39.527 82.35159,-71.558 183.94909,-71.558 z" /><path
         id="path22"
         style="fill:#ffffff;fill-opacity:1;fill-rule:nonzero;stroke:none"
         d="m 144.301,216.672 15.187,-22.781 -57.418,-13.282 12.539,10.43 -88.7496,15.199 22.2617,16.684 85.6289,-14.543 10.551,8.293" /><path
         id="path24"
         style="fill:#ffffff;fill-opacity:1;fill-rule:nonzero;stroke:none"
         d="m 225.121,161.391 -10.391,23.519 51.79,10.352 -8.942,-8.051 86.332,-14.762 -20.75,-16.57 -85.781,16.101 -12.258,-10.589" /><path
         id="path26"
         style="fill:#ffffff;fill-opacity:1;fill-rule:nonzero;stroke:none"
         d="m 196.801,229.09 58,15.898 0.711,-24.886 -14.532,2.777 -28.32,-23.481 -27,3.954 29.219,22.957 -18.078,2.781" /><path
         id="path28"
         style="fill:#ffffff;fill-opacity:1;fill-rule:nonzero;stroke:none"
         d="m 171.91,139.988 -55.23,-10.359 -2.071,25.551 15.903,-3.442 30.386,25.942 26.911,-4.532 -32.457,-28.32 16.558,-4.84" /><path
         id="path30"
         style="fill:#1c7ba7;fill-opacity:1;fill-rule:evenodd;stroke:none"
         d="m 104.488,30.3008 165.16,0 0,72.5781 -165.16,0 0,-72.5781 z" /><path
         id="path32"
         style="fill:none;stroke:#8ed0f2;stroke-width:7.15700006;stroke-linecap:square;stroke-linejoin:miter;stroke-miterlimit:10;stroke-dasharray:none;stroke-opacity:1"
         d="m 104.488,30.293 165.16,0 0,72.582 -165.16,0 0,-72.582 z" /><path
         id="path34"
         style="fill:#ffffff;fill-opacity:1;fill-rule:evenodd;stroke:none"
         d="m 231.559,51.8984 22.4609,0 0,31.4102 -22.4609,0 0,-31.4102 z" /><path
         id="path36"
         style="fill:none;stroke:#ffffff;stroke-width:2.38599992;stroke-linecap:square;stroke-linejoin:miter;stroke-miterlimit:10;stroke-dasharray:none;stroke-opacity:1"
         d="m 231.559,51.8945 22.4609,0 0,31.4102 -22.4609,0 0,-31.4102 z" /><path
         id="path38"
         style="fill:#ffffff;fill-opacity:1;fill-rule:evenodd;stroke:none"
         d="m 254.02,92.1289 6.83984,0 0,5.82031 -6.83984,0 0,-5.82031 z" /><path
         id="path40"
         style="fill:none;stroke:#ffffff;stroke-width:2.38599992;stroke-linecap:square;stroke-linejoin:miter;stroke-miterlimit:10;stroke-dasharray:none;stroke-opacity:1"
         d="m 254.02,92.1328 6.83984,0 0,5.82031 -6.83984,0 0,-5.82031 z" /><path
         id="path42"
         style="fill:#ffffff;fill-opacity:1;fill-rule:evenodd;stroke:none"
         d="m 240.352,92.1289 6.83984,0 0,5.82031 -6.83984,0 0,-5.82031 z" /><path
         id="path44"
         style="fill:none;stroke:#ffffff;stroke-width:2.38599992;stroke-linecap:square;stroke-linejoin:miter;stroke-miterlimit:10;stroke-dasharray:none;stroke-opacity:1"
         d="m 240.352,92.1328 6.83984,0 0,5.82031 -6.83984,0 0,-5.82031 z" /><path
         id="path46"
         style="fill:#ffffff;fill-opacity:1;fill-rule:evenodd;stroke:none"
         d="m 226.68,92.1289 6.83984,0 0,5.82031 -6.83984,0 0,-5.82031 z" /><path
         id="path48"
         style="fill:none;stroke:#ffffff;stroke-width:2.38599992;stroke-linecap:square;stroke-linejoin:miter;stroke-miterlimit:10;stroke-dasharray:none;stroke-opacity:1"
         d="m 226.68,92.1328 6.83984,0 0,5.82031 -6.83984,0 0,-5.82031 z" /><path
         id="path50"
         style="fill:#ffffff;fill-opacity:1;fill-rule:evenodd;stroke:none"
         d="m 213.98,92.1289 5.85938,0 0,5.82031 -5.85938,0 0,-5.82031 z" /><path
         id="path52"
         style="fill:none;stroke:#ffffff;stroke-width:2.38599992;stroke-linecap:square;stroke-linejoin:miter;stroke-miterlimit:10;stroke-dasharray:none;stroke-opacity:1"
         d="m 213.98,92.1328 5.85938,0 0,5.82031 -5.85938,0 0,-5.82031 z" /><path
         id="path54"
         style="fill:#ffffff;fill-opacity:1;fill-rule:evenodd;stroke:none"
         d="m 200.27,92.1289 5.90234,0 0,5.82031 -5.90234,0 0,-5.82031 z" /><path
         id="path56"
         style="fill:none;stroke:#ffffff;stroke-width:2.38599992;stroke-linecap:square;stroke-linejoin:miter;stroke-miterlimit:10;stroke-dasharray:none;stroke-opacity:1"
         d="m 200.27,92.1328 5.90234,0 0,5.82031 -5.90234,0 0,-5.82031 z" /><path
         id="path58"
         style="fill:#ffffff;fill-opacity:1;fill-rule:evenodd;stroke:none"
         d="m 186.602,92.1289 6.83984,0 0,5.82031 -6.83984,0 0,-5.82031 z" /><path
         id="path60"
         style="fill:none;stroke:#ffffff;stroke-width:2.38599992;stroke-linecap:square;stroke-linejoin:miter;stroke-miterlimit:10;stroke-dasharray:none;stroke-opacity:1"
         d="m 186.602,92.1328 6.83984,0 0,5.82031 -6.83984,0 0,-5.82031 z" /><path
         id="path62"
         style="fill:#ffffff;fill-opacity:1;fill-rule:evenodd;stroke:none"
         d="m 172.891,92.1289 6.83984,0 0,5.82031 -6.83984,0 0,-5.82031 z" /><path
         id="path64"
         style="fill:none;stroke:#ffffff;stroke-width:2.38599992;stroke-linecap:square;stroke-linejoin:miter;stroke-miterlimit:10;stroke-dasharray:none;stroke-opacity:1"
         d="m 172.891,92.1328 6.83984,0 0,5.82031 -6.83984,0 0,-5.82031 z" /><path
         id="path66"
         style="fill:#ffffff;fill-opacity:1;fill-rule:evenodd;stroke:none"
         d="m 159.219,92.1289 6.83984,0 0,5.82031 -6.83984,0 0,-5.82031 z" /><path
         id="path68"
         style="fill:none;stroke:#ffffff;stroke-width:2.38599992;stroke-linecap:square;stroke-linejoin:miter;stroke-miterlimit:10;stroke-dasharray:none;stroke-opacity:1"
         d="m 159.219,92.1328 6.83984,0 0,5.82031 -6.83984,0 0,-5.82031 z" /><path
         id="path70"
         style="fill:#ffffff;fill-opacity:1;fill-rule:evenodd;stroke:none"
         d="m 145.551,92.1289 6.83984,0 0,5.82031 -6.83984,0 0,-5.82031 z" /><path
         id="path72"
         style="fill:none;stroke:#ffffff;stroke-width:2.38599992;stroke-linecap:square;stroke-linejoin:miter;stroke-miterlimit:10;stroke-dasharray:none;stroke-opacity:1"
         d="m 145.551,92.1328 6.83984,0 0,5.82031 -6.83984,0 0,-5.82031 z" /><path
         id="path74"
         style="fill:#ffffff;fill-opacity:1;fill-rule:evenodd;stroke:none"
         d="m 132.852,92.1289 5.85938,0 0,5.82031 -5.85938,0 0,-5.82031 z" /><path
         id="path76"
         style="fill:none;stroke:#ffffff;stroke-width:2.38599992;stroke-linecap:square;stroke-linejoin:miter;stroke-miterlimit:10;stroke-dasharray:none;stroke-opacity:1"
         d="m 132.852,92.1328 5.85938,0 0,5.82031 -5.85938,0 0,-5.82031 z" /><path
         id="path78"
         style="fill:#ffffff;fill-opacity:1;fill-rule:evenodd;stroke:none"
         d="m 119.18,97.9492 5.859,0 0.981,-5.8203 -6.84,0 0,5.8203" /><path
         id="path80"
         style="fill:none;stroke:#ffffff;stroke-width:2.38599992;stroke-linecap:square;stroke-linejoin:miter;stroke-miterlimit:10;stroke-dasharray:none;stroke-opacity:1"
         d="m 119.18,97.9531 5.859,0 0.981,-5.8203 -6.84,0 0,5.8203 z" /><path
         id="path82"
         style="fill:#ffffff;fill-opacity:1;fill-rule:evenodd;stroke:none"
         d="m 254.02,37.1719 6.83984,0 0,5.85938 -6.83984,0 0,-5.85938 z" /><path
         id="path84"
         style="fill:none;stroke:#ffffff;stroke-width:2.38599992;stroke-linecap:square;stroke-linejoin:miter;stroke-miterlimit:10;stroke-dasharray:none;stroke-opacity:1"
         d="m 254.02,37.1719 6.83984,0 0,5.85938 -6.83984,0 0,-5.85938 z" /><path
         id="path86"
         style="fill:#ffffff;fill-opacity:1;fill-rule:evenodd;stroke:none"
         d="m 240.352,37.1719 6.83984,0 0,5.85938 -6.83984,0 0,-5.85938 z" /><path
         id="path88"
         style="fill:none;stroke:#ffffff;stroke-width:2.38599992;stroke-linecap:square;stroke-linejoin:miter;stroke-miterlimit:10;stroke-dasharray:none;stroke-opacity:1"
         d="m 240.352,37.1719 6.83984,0 0,5.85938 -6.83984,0 0,-5.85938 z" /><path
         id="path90"
         style="fill:#ffffff;fill-opacity:1;fill-rule:evenodd;stroke:none"
         d="m 226.68,37.1719 6.83984,0 0,5.85938 -6.83984,0 0,-5.85938 z" /><path
         id="path92"
         style="fill:none;stroke:#ffffff;stroke-width:2.38599992;stroke-linecap:square;stroke-linejoin:miter;stroke-miterlimit:10;stroke-dasharray:none;stroke-opacity:1"
         d="m 226.68,37.1719 6.83984,0 0,5.85938 -6.83984,0 0,-5.85938 z" /><path
         id="path94"
         style="fill:#ffffff;fill-opacity:1;fill-rule:evenodd;stroke:none"
         d="m 213.98,37.1719 5.85938,0 0,5.85938 -5.85938,0 0,-5.85938 z" /><path
         id="path96"
         style="fill:none;stroke:#ffffff;stroke-width:2.38599992;stroke-linecap:square;stroke-linejoin:miter;stroke-miterlimit:10;stroke-dasharray:none;stroke-opacity:1"
         d="m 213.98,37.1719 5.85938,0 0,5.85938 -5.85938,0 0,-5.85938 z" /><path
         id="path98"
         style="fill:#ffffff;fill-opacity:1;fill-rule:evenodd;stroke:none"
         d="m 200.27,37.1719 5.90234,0 0,5.85938 -5.90234,0 0,-5.85938 z" /><path
         id="path100"
         style="fill:none;stroke:#ffffff;stroke-width:2.38599992;stroke-linecap:square;stroke-linejoin:miter;stroke-miterlimit:10;stroke-dasharray:none;stroke-opacity:1"
         d="m 200.27,37.1719 5.90234,0 0,5.85938 -5.90234,0 0,-5.85938 z" /><path
         id="path102"
         style="fill:#ffffff;fill-opacity:1;fill-rule:evenodd;stroke:none"
         d="m 186.602,37.1719 6.83984,0 0,5.85938 -6.83984,0 0,-5.85938 z" /><path
         id="path104"
         style="fill:none;stroke:#ffffff;stroke-width:2.38599992;stroke-linecap:square;stroke-linejoin:miter;stroke-miterlimit:10;stroke-dasharray:none;stroke-opacity:1"
         d="m 186.602,37.1719 6.83984,0 0,5.85938 -6.83984,0 0,-5.85938 z" /><path
         id="path106"
         style="fill:#ffffff;fill-opacity:1;fill-rule:evenodd;stroke:none"
         d="m 172.891,37.1719 6.83984,0 0,5.85938 -6.83984,0 0,-5.85938 z" /><path
         id="path108"
         style="fill:none;stroke:#ffffff;stroke-width:2.38599992;stroke-linecap:square;stroke-linejoin:miter;stroke-miterlimit:10;stroke-dasharray:none;stroke-opacity:1"
         d="m 172.891,37.1719 6.83984,0 0,5.85938 -6.83984,0 0,-5.85938 z" /><path
         id="path110"
         style="fill:#ffffff;fill-opacity:1;fill-rule:evenodd;stroke:none"
         d="m 159.219,37.1719 6.83984,0 0,5.85938 -6.83984,0 0,-5.85938 z" /><path
         id="path112"
         style="fill:none;stroke:#ffffff;stroke-width:2.38599992;stroke-linecap:square;stroke-linejoin:miter;stroke-miterlimit:10;stroke-dasharray:none;stroke-opacity:1"
         d="m 159.219,37.1719 6.83984,0 0,5.85938 -6.83984,0 0,-5.85938 z" /><path
         id="path114"
         style="fill:#ffffff;fill-opacity:1;fill-rule:evenodd;stroke:none"
         d="m 145.551,37.1719 6.83984,0 0,5.85938 -6.83984,0 0,-5.85938 z" /><path
         id="path116"
         style="fill:none;stroke:#ffffff;stroke-width:2.38599992;stroke-linecap:square;stroke-linejoin:miter;stroke-miterlimit:10;stroke-dasharray:none;stroke-opacity:1"
         d="m 145.551,37.1719 6.83984,0 0,5.85938 -6.83984,0 0,-5.85938 z" /><path
         id="path118"
         style="fill:#ffffff;fill-opacity:1;fill-rule:evenodd;stroke:none"
         d="m 132.852,37.1719 5.85938,0 0,5.85938 -5.85938,0 0,-5.85938 z" /><path
         id="path120"
         style="fill:none;stroke:#ffffff;stroke-width:2.38599992;stroke-linecap:square;stroke-linejoin:miter;stroke-miterlimit:10;stroke-dasharray:none;stroke-opacity:1"
         d="m 132.852,37.1719 5.85938,0 0,5.85938 -5.85938,0 0,-5.85938 z" /><path
         id="path122"
         style="fill:#ffffff;fill-opacity:1;fill-rule:evenodd;stroke:none"
         d="m 119.18,37.1719 6.83984,0 0,5.85938 -6.83984,0 0,-5.85938 z" /><path
         id="path124"
         style="fill:none;stroke:#ffffff;stroke-width:2.38599992;stroke-linecap:square;stroke-linejoin:miter;stroke-miterlimit:10;stroke-dasharray:none;stroke-opacity:1"
         d="m 119.18,37.1719 6.83984,0 0,5.85938 -6.83984,0 0,-5.85938 z" /><path
         id="path126"
         style="fill:#ffffff;fill-opacity:1;fill-rule:evenodd;stroke:none"
         d="m 195.43,51.8984 22.4609,0 0,31.4102 -22.4609,0 0,-31.4102 z" /><path
         id="path128"
         style="fill:none;stroke:#ffffff;stroke-width:2.38599992;stroke-linecap:square;stroke-linejoin:miter;stroke-miterlimit:10;stroke-dasharray:none;stroke-opacity:1"
         d="m 195.43,51.8945 22.4609,0 0,31.4102 -22.4609,0 0,-31.4102 z" /><path
         id="path130"
         style="fill:#ffffff;fill-opacity:1;fill-rule:evenodd;stroke:none"
         d="m 159.219,51.8984 22.4609,0 0,31.4102 -22.4609,0 0,-31.4102 z" /><path
         id="path132"
         style="fill:none;stroke:#ffffff;stroke-width:2.38599992;stroke-linecap:square;stroke-linejoin:miter;stroke-miterlimit:10;stroke-dasharray:none;stroke-opacity:1"
         d="m 159.219,51.8945 22.4609,0 0,31.4102 -22.4609,0 0,-31.4102 z" /><path
         id="path134"
         style="fill:#ffffff;fill-opacity:1;fill-rule:evenodd;stroke:none"
         d="m 124.059,51.8984 21.4805,0 0,31.4102 -21.4805,0 0,-31.4102 z" /><path
         id="path136"
         style="fill:none;stroke:#ffffff;stroke-width:2.38599992;stroke-linecap:square;stroke-linejoin:miter;stroke-miterlimit:10;stroke-dasharray:none;stroke-opacity:1"
         d="m 124.059,51.8945 21.4805,0 0,31.4102 -21.4805,0 0,-31.4102 z" /></g></g></svg>