<?xml version="1.0" encoding="UTF-8" standalone="no"?>
<svg
   xmlns:dc="http://purl.org/dc/elements/1.1/"
   xmlns:cc="http://creativecommons.org/ns#"
   xmlns:rdf="http://www.w3.org/1999/02/22-rdf-syntax-ns#"
   xmlns:svg="http://www.w3.org/2000/svg"
   xmlns="http://www.w3.org/2000/svg"
   viewBox="0 0 45 31.25"
   height="31.25"
   width="45"
   xml:space="preserve"
   version="1.1"
   id="svg2"><metadata
     id="metadata8"><rdf:RDF><cc:Work
         rdf:about=""><dc:format>image/svg+xml</dc:format><dc:type
           rdf:resource="http://purl.org/dc/dcmitype/StillImage" /></cc:Work></rdf:RDF></metadata><defs
     id="defs6" /><g
     transform="matrix(1.25,0,0,-1.25,0,31.25)"
     id="g10"><g
       transform="scale(0.1,0.1)"
       id="g12"><path
         id="path14"
         style="fill:#087bbb;fill-opacity:1;fill-rule:nonzero;stroke:none"
         d="m 6.37109,15.4883 306.328,0 0,189.691 -306.328,0 0,-189.691 z" /><path
         id="path16"
         style="fill:none;stroke:#ffffff;stroke-width:4.5999999;stroke-linecap:butt;stroke-linejoin:miter;stroke-miterlimit:4;stroke-dasharray:none;stroke-opacity:1"
         d="m 6.37109,15.4883 306.328,0 0,189.691 -306.328,0 0,-189.691 z" /><path
         id="path18"
         style="fill:#087bbb;fill-opacity:1;fill-rule:nonzero;stroke:none"
         d="m 312.031,205.371 -305.47241,0 47.97271,38.277 297.0707,0 0,-188.4683 -39.141,-39.5703 0,188.6716 -0.43,1.09" /><path
         id="path20"
         style="fill:none;stroke:#ffffff;stroke-width:4.5999999;stroke-linecap:butt;stroke-linejoin:miter;stroke-miterlimit:4;stroke-dasharray:none;stroke-opacity:1"
         d="m 312.031,205.367 -305.47241,0 47.97271,38.293 297.0707,0 0,-188.4803 -39.141,-39.5703 0,188.6676 -0.43,1.09 z" /><path
         id="path22"
         style="fill:#000000;fill-opacity:1;fill-rule:nonzero;stroke:none"
         d="m 312.379,205.719 39.57,38.48" /><path
         id="path24"
         style="fill:none;stroke:#ffffff;stroke-width:4.5999999;stroke-linecap:butt;stroke-linejoin:miter;stroke-miterlimit:4;stroke-dasharray:none;stroke-opacity:1"
         d="m 312.379,205.727 39.57,38.472" /><path
         id="path26"
         style="fill:#ffffff;fill-opacity:1;fill-rule:nonzero;stroke:none"
         d="m 51.7617,32.9102 35.6992,0 39.3011,40.1211 37.847,0 39.411,-39.4219 68.128,0 0,27.9023 -52.027,0 -40.32,40.2693 -51.52,0 -39.531,39.61 -37.6211,0.039 0,5.109 -15.3086,-15.309 14.8008,-14.8 0,5.621 30.9805,0 -0.2735,-25.9026 -29.5664,0 0,5.1216 -15.3125,-15.3091 14.7617,-14.8125 0,5.6329 30.1172,0.0781 0,-24.5313 -29.5664,0 0,5.0703 -15.3125,-15.2695 14.7617,-14.8008 0,5.5821" /><path
         id="path28"
         style="fill:#ffffff;fill-opacity:1;fill-rule:nonzero;stroke:none"
         d="m 265.699,190.289 -35.738,0 -39.262,-40.109 -37.89,0 -39.411,39.449 -68.1285,0 0,-27.891 52.0703,0 40.2812,-40.308 51.559,0 39.492,-39.5706 37.617,-0.0391 0,-5.1211 15.313,15.3125 -14.762,14.8083 0,-5.629 -30.981,0 0.231,25.899 29.609,0 0,-5.121 15.321,15.32 -14.809,14.801 0,-5.621 -30.121,-0.078 0,24.531 29.609,0 0,-5.121 15.321,15.308 -14.809,14.813 0,-5.633" /></g></g></svg>