<?xml version="1.0" encoding="UTF-8" standalone="no"?>
<svg
   xmlns:dc="http://purl.org/dc/elements/1.1/"
   xmlns:cc="http://creativecommons.org/ns#"
   xmlns:rdf="http://www.w3.org/1999/02/22-rdf-syntax-ns#"
   xmlns:svg="http://www.w3.org/2000/svg"
   xmlns="http://www.w3.org/2000/svg"
   xmlns:sodipodi="http://sodipodi.sourceforge.net/DTD/sodipodi-0.dtd"
   xmlns:inkscape="http://www.inkscape.org/namespaces/inkscape"
   viewBox="0 0 46.577786 31.5754"
   height="31.575399"
   width="46.577785"
   xml:space="preserve"
   version="1.1"
   id="svg2"
   inkscape:version="0.91 r13725"
   sodipodi:docname="Servicerouter.svg"><sodipodi:namedview
     pagecolor="#ffffff"
     bordercolor="#666666"
     borderopacity="1"
     objecttolerance="10"
     gridtolerance="10"
     guidetolerance="10"
     inkscape:pageopacity="0"
     inkscape:pageshadow="2"
     inkscape:window-width="448"
     inkscape:window-height="438"
     id="namedview69"
     showgrid="false"
     inkscape:zoom="6.6559312"
     inkscape:cx="23.287348"
     inkscape:cy="15.787836"
     inkscape:window-x="0"
     inkscape:window-y="23"
     inkscape:window-maximized="0"
     inkscape:current-layer="svg2" /><metadata
     id="metadata8"><rdf:RDF><cc:Work
         rdf:about=""><dc:format>image/svg+xml</dc:format><dc:type
           rdf:resource="http://purl.org/dc/dcmitype/StillImage" /></cc:Work></rdf:RDF></metadata><defs
     id="defs6" /><g
     transform="matrix(1.25,0,0,-1.25,-1.5250572e-4,31.575062)"
     id="g10"><g
       transform="scale(0.1,0.1)"
       id="g12"><path
         id="path14"
         style="fill:#20a3e4;fill-opacity:1;fill-rule:evenodd;stroke:none"
         d="m 370.238,178.691 c 0,-39.511 -82.351,-71.543 -183.925,-71.543 -101.5825,0 -183.92628,32.032 -183.92628,71.543 l 0,-104.7847 c 0,-39.4922 82.34378,-71.52349 183.92628,-71.52349 101.574,0 183.925,32.03129 183.925,71.52349 l 0,104.7847"
         inkscape:connector-curvature="0" /><path
         id="path16"
         style="fill:#20a3e4;fill-opacity:1;fill-rule:evenodd;stroke:none"
         d="m 186.313,107.148 c 101.574,0 183.925,32.032 183.925,71.543 0,39.512 -82.351,71.524 -183.925,71.524 -101.5825,0 -183.92628,-32.012 -183.92628,-71.524 0,-39.511 82.34378,-71.543 183.92628,-71.543"
         inkscape:connector-curvature="0" /><path
         id="path18"
         style="fill:none;stroke:#afdff4;stroke-width:4.77099991;stroke-linecap:square;stroke-linejoin:bevel;stroke-miterlimit:10;stroke-dasharray:none;stroke-opacity:1"
         d="m 370.238,178.691 c 0,-39.511 -82.351,-71.543 -183.925,-71.543 -101.5825,0 -183.92628,32.032 -183.92628,71.543 l 0,-104.7847 c 0,-39.4922 82.34378,-71.52349 183.92628,-71.52349 101.574,0 183.925,32.03129 183.925,71.52349 l 0,104.7847 z"
         inkscape:connector-curvature="0" /><path
         id="path20"
         style="fill:none;stroke:#afdff4;stroke-width:4.77099991;stroke-linecap:square;stroke-linejoin:bevel;stroke-miterlimit:10;stroke-dasharray:none;stroke-opacity:1"
         d="m 186.313,107.148 c 101.574,0 183.925,32.032 183.925,71.543 0,39.512 -82.351,71.524 -183.925,71.524 -101.5825,0 -183.92628,-32.012 -183.92628,-71.524 0,-39.511 82.34378,-71.543 183.92628,-71.543 z"
         inkscape:connector-curvature="0" /><path
         id="path22"
         style="fill:#ffffff;fill-opacity:1;fill-rule:nonzero;stroke:none"
         d="m 144.313,206.66 15.183,-22.773 -57.43,-13.282 12.559,10.45 -88.75,15.175 22.2656,16.68 85.6254,-14.512 10.547,8.262"
         inkscape:connector-curvature="0" /><path
         id="path24"
         style="fill:#ffffff;fill-opacity:1;fill-rule:nonzero;stroke:none"
         d="m 225.113,151.406 -10.371,23.496 51.797,10.352 -8.976,-8.047 86.328,-14.746 -20.723,-16.582 -85.801,16.113 -12.254,-10.586"
         inkscape:connector-curvature="0" /><path
         id="path26"
         style="fill:#ffffff;fill-opacity:1;fill-rule:nonzero;stroke:none"
         d="m 196.793,219.102 58.008,15.878 0.691,-24.863 -14.5,2.774 -28.32,-23.496 -27.012,3.945 29.219,22.969 -18.086,2.793"
         inkscape:connector-curvature="0" /><path
         id="path28"
         style="fill:#ffffff;fill-opacity:1;fill-rule:nonzero;stroke:none"
         d="m 171.93,130 -55.254,-10.352 -2.071,25.547 15.887,-3.457 30.41,25.957 26.907,-4.55 L 155.355,134.824 171.93,130"
         inkscape:connector-curvature="0" /><path
         id="path30"
         style="fill:#1c7ba7;fill-opacity:1;fill-rule:evenodd;stroke:none"
         d="m 104.496,92.8711 165.168,0 0,-72.5781 -165.168,0 0,72.5781"
         inkscape:connector-curvature="0" /><path
         id="path32"
         style="fill:none;stroke:#8ed0f2;stroke-width:7.15700006;stroke-linecap:square;stroke-linejoin:miter;stroke-miterlimit:10;stroke-dasharray:none;stroke-opacity:1"
         d="m 104.496,92.8711 165.168,0 0,-72.5781 -165.168,0 0,72.5781 z"
         inkscape:connector-curvature="0" /><path
         id="path34"
         style="fill:#ffffff;fill-opacity:1;fill-rule:evenodd;stroke:none"
         d="m 231.566,73.2891 22.461,0 0,-31.4024 -22.461,0 0,31.4024"
         inkscape:connector-curvature="0" /><path
         id="path36"
         style="fill:none;stroke:#ffffff;stroke-width:2.38599992;stroke-linecap:square;stroke-linejoin:miter;stroke-miterlimit:10;stroke-dasharray:none;stroke-opacity:1"
         d="m 231.566,73.2891 22.461,0 0,-31.4024 -22.461,0 0,31.4024 z"
         inkscape:connector-curvature="0" /><path
         id="path38"
         style="fill:#ffffff;fill-opacity:1;fill-rule:evenodd;stroke:none"
         d="m 254.027,87.9688 6.848,0 0,-5.8399 -6.848,0 0,5.8399"
         inkscape:connector-curvature="0" /><path
         id="path40"
         style="fill:none;stroke:#ffffff;stroke-width:2.38599992;stroke-linecap:square;stroke-linejoin:miter;stroke-miterlimit:10;stroke-dasharray:none;stroke-opacity:1"
         d="m 254.027,87.9688 6.848,0 0,-5.8399 -6.848,0 0,5.8399 z"
         inkscape:connector-curvature="0" /><path
         id="path42"
         style="fill:#ffffff;fill-opacity:1;fill-rule:evenodd;stroke:none"
         d="m 240.355,87.9688 6.836,0 0,-5.8399 -6.836,0 0,5.8399"
         inkscape:connector-curvature="0" /><path
         id="path44"
         style="fill:none;stroke:#ffffff;stroke-width:2.38599992;stroke-linecap:square;stroke-linejoin:miter;stroke-miterlimit:10;stroke-dasharray:none;stroke-opacity:1"
         d="m 240.355,87.9688 6.836,0 0,-5.8399 -6.836,0 0,5.8399 z"
         inkscape:connector-curvature="0" /><path
         id="path46"
         style="fill:#ffffff;fill-opacity:1;fill-rule:evenodd;stroke:none"
         d="m 226.676,87.9688 6.844,0 0,-5.8399 -6.844,0 0,5.8399"
         inkscape:connector-curvature="0" /><path
         id="path48"
         style="fill:none;stroke:#ffffff;stroke-width:2.38599992;stroke-linecap:square;stroke-linejoin:miter;stroke-miterlimit:10;stroke-dasharray:none;stroke-opacity:1"
         d="m 226.676,87.9688 6.844,0 0,-5.8399 -6.844,0 0,5.8399 z"
         inkscape:connector-curvature="0" /><path
         id="path50"
         style="fill:#ffffff;fill-opacity:1;fill-rule:evenodd;stroke:none"
         d="m 213.969,87.9688 5.871,0 0,-5.8399 -5.871,0 0,5.8399"
         inkscape:connector-curvature="0" /><path
         id="path52"
         style="fill:none;stroke:#ffffff;stroke-width:2.38599992;stroke-linecap:square;stroke-linejoin:miter;stroke-miterlimit:10;stroke-dasharray:none;stroke-opacity:1"
         d="m 213.969,87.9688 5.871,0 0,-5.8399 -5.871,0 0,5.8399 z"
         inkscape:connector-curvature="0" /><path
         id="path54"
         style="fill:#ffffff;fill-opacity:1;fill-rule:evenodd;stroke:none"
         d="m 200.289,87.9688 5.867,0 0,-5.8399 -5.867,0 0,5.8399"
         inkscape:connector-curvature="0" /><path
         id="path56"
         style="fill:none;stroke:#ffffff;stroke-width:2.38599992;stroke-linecap:square;stroke-linejoin:miter;stroke-miterlimit:10;stroke-dasharray:none;stroke-opacity:1"
         d="m 200.289,87.9688 5.867,0 0,-5.8399 -5.867,0 0,5.8399 z"
         inkscape:connector-curvature="0" /><path
         id="path58"
         style="fill:#ffffff;fill-opacity:1;fill-rule:evenodd;stroke:none"
         d="m 186.586,87.9688 6.855,0 0,-5.8399 -6.855,0 0,5.8399"
         inkscape:connector-curvature="0" /><path
         id="path60"
         style="fill:none;stroke:#ffffff;stroke-width:2.38599992;stroke-linecap:square;stroke-linejoin:miter;stroke-miterlimit:10;stroke-dasharray:none;stroke-opacity:1"
         d="m 186.586,87.9688 6.855,0 0,-5.8399 -6.855,0 0,5.8399 z"
         inkscape:connector-curvature="0" /><path
         id="path62"
         style="fill:#ffffff;fill-opacity:1;fill-rule:evenodd;stroke:none"
         d="m 172.895,87.9688 6.835,0 0,-5.8399 -6.835,0 0,5.8399"
         inkscape:connector-curvature="0" /><path
         id="path64"
         style="fill:none;stroke:#ffffff;stroke-width:2.38599992;stroke-linecap:square;stroke-linejoin:miter;stroke-miterlimit:10;stroke-dasharray:none;stroke-opacity:1"
         d="m 172.895,87.9688 6.835,0 0,-5.8399 -6.835,0 0,5.8399 z"
         inkscape:connector-curvature="0" /><path
         id="path66"
         style="fill:#ffffff;fill-opacity:1;fill-rule:evenodd;stroke:none"
         d="m 159.223,87.9688 6.836,0 0,-5.8399 -6.836,0 0,5.8399"
         inkscape:connector-curvature="0" /><path
         id="path68"
         style="fill:none;stroke:#ffffff;stroke-width:2.38599992;stroke-linecap:square;stroke-linejoin:miter;stroke-miterlimit:10;stroke-dasharray:none;stroke-opacity:1"
         d="m 159.223,87.9688 6.836,0 0,-5.8399 -6.836,0 0,5.8399 z"
         inkscape:connector-curvature="0" /><path
         id="path70"
         style="fill:#ffffff;fill-opacity:1;fill-rule:evenodd;stroke:none"
         d="m 145.531,87.9688 6.848,0 0,-5.8399 -6.848,0 0,5.8399"
         inkscape:connector-curvature="0" /><path
         id="path72"
         style="fill:none;stroke:#ffffff;stroke-width:2.38599992;stroke-linecap:square;stroke-linejoin:miter;stroke-miterlimit:10;stroke-dasharray:none;stroke-opacity:1"
         d="m 145.531,87.9688 6.848,0 0,-5.8399 -6.848,0 0,5.8399 z"
         inkscape:connector-curvature="0" /><path
         id="path74"
         style="fill:#ffffff;fill-opacity:1;fill-rule:evenodd;stroke:none"
         d="m 132.836,87.9688 5.859,0 0,-5.8399 -5.859,0 0,5.8399"
         inkscape:connector-curvature="0" /><path
         id="path76"
         style="fill:none;stroke:#ffffff;stroke-width:2.38599992;stroke-linecap:square;stroke-linejoin:miter;stroke-miterlimit:10;stroke-dasharray:none;stroke-opacity:1"
         d="m 132.836,87.9688 5.859,0 0,-5.8399 -5.859,0 0,5.8399 z"
         inkscape:connector-curvature="0" /><path
         id="path78"
         style="fill:#ffffff;fill-opacity:1;fill-rule:evenodd;stroke:none"
         d="m 119.164,87.9688 5.859,0 0.977,-5.8399 -6.836,0 0,5.8399"
         inkscape:connector-curvature="0" /><path
         id="path80"
         style="fill:none;stroke:#ffffff;stroke-width:2.38599992;stroke-linecap:square;stroke-linejoin:miter;stroke-miterlimit:10;stroke-dasharray:none;stroke-opacity:1"
         d="m 119.164,87.9688 5.859,0 0.977,-5.8399 -6.836,0 0,5.8399 z"
         inkscape:connector-curvature="0" /><path
         id="path82"
         style="fill:#ffffff;fill-opacity:1;fill-rule:evenodd;stroke:none"
         d="m 254.027,33.0469 6.848,0 0,-5.8789 -6.848,0 0,5.8789"
         inkscape:connector-curvature="0" /><path
         id="path84"
         style="fill:none;stroke:#ffffff;stroke-width:2.38599992;stroke-linecap:square;stroke-linejoin:miter;stroke-miterlimit:10;stroke-dasharray:none;stroke-opacity:1"
         d="m 254.027,33.0469 6.848,0 0,-5.8789 -6.848,0 0,5.8789 z"
         inkscape:connector-curvature="0" /><path
         id="path86"
         style="fill:#ffffff;fill-opacity:1;fill-rule:evenodd;stroke:none"
         d="m 240.355,33.0469 6.836,0 0,-5.8789 -6.836,0 0,5.8789"
         inkscape:connector-curvature="0" /><path
         id="path88"
         style="fill:none;stroke:#ffffff;stroke-width:2.38599992;stroke-linecap:square;stroke-linejoin:miter;stroke-miterlimit:10;stroke-dasharray:none;stroke-opacity:1"
         d="m 240.355,33.0469 6.836,0 0,-5.8789 -6.836,0 0,5.8789 z"
         inkscape:connector-curvature="0" /><path
         id="path90"
         style="fill:#ffffff;fill-opacity:1;fill-rule:evenodd;stroke:none"
         d="m 226.676,33.0469 6.844,0 0,-5.8789 -6.844,0 0,5.8789"
         inkscape:connector-curvature="0" /><path
         id="path92"
         style="fill:none;stroke:#ffffff;stroke-width:2.38599992;stroke-linecap:square;stroke-linejoin:miter;stroke-miterlimit:10;stroke-dasharray:none;stroke-opacity:1"
         d="m 226.676,33.0469 6.844,0 0,-5.8789 -6.844,0 0,5.8789 z"
         inkscape:connector-curvature="0" /><path
         id="path94"
         style="fill:#ffffff;fill-opacity:1;fill-rule:evenodd;stroke:none"
         d="m 213.969,33.0469 5.871,0 0,-5.8789 -5.871,0 0,5.8789"
         inkscape:connector-curvature="0" /><path
         id="path96"
         style="fill:none;stroke:#ffffff;stroke-width:2.38599992;stroke-linecap:square;stroke-linejoin:miter;stroke-miterlimit:10;stroke-dasharray:none;stroke-opacity:1"
         d="m 213.969,33.0469 5.871,0 0,-5.8789 -5.871,0 0,5.8789 z"
         inkscape:connector-curvature="0" /><path
         id="path98"
         style="fill:#ffffff;fill-opacity:1;fill-rule:evenodd;stroke:none"
         d="m 200.289,33.0469 5.867,0 0,-5.8789 -5.867,0 0,5.8789"
         inkscape:connector-curvature="0" /><path
         id="path100"
         style="fill:none;stroke:#ffffff;stroke-width:2.38599992;stroke-linecap:square;stroke-linejoin:miter;stroke-miterlimit:10;stroke-dasharray:none;stroke-opacity:1"
         d="m 200.289,33.0469 5.867,0 0,-5.8789 -5.867,0 0,5.8789 z"
         inkscape:connector-curvature="0" /><path
         id="path102"
         style="fill:#ffffff;fill-opacity:1;fill-rule:evenodd;stroke:none"
         d="m 186.586,33.0469 6.855,0 0,-5.8789 -6.855,0 0,5.8789"
         inkscape:connector-curvature="0" /><path
         id="path104"
         style="fill:none;stroke:#ffffff;stroke-width:2.38599992;stroke-linecap:square;stroke-linejoin:miter;stroke-miterlimit:10;stroke-dasharray:none;stroke-opacity:1"
         d="m 186.586,33.0469 6.855,0 0,-5.8789 -6.855,0 0,5.8789 z"
         inkscape:connector-curvature="0" /><path
         id="path106"
         style="fill:#ffffff;fill-opacity:1;fill-rule:evenodd;stroke:none"
         d="m 172.895,33.0469 6.835,0 0,-5.8789 -6.835,0 0,5.8789"
         inkscape:connector-curvature="0" /><path
         id="path108"
         style="fill:none;stroke:#ffffff;stroke-width:2.38599992;stroke-linecap:square;stroke-linejoin:miter;stroke-miterlimit:10;stroke-dasharray:none;stroke-opacity:1"
         d="m 172.895,33.0469 6.835,0 0,-5.8789 -6.835,0 0,5.8789 z"
         inkscape:connector-curvature="0" /><path
         id="path110"
         style="fill:#ffffff;fill-opacity:1;fill-rule:evenodd;stroke:none"
         d="m 159.223,33.0469 6.836,0 0,-5.8789 -6.836,0 0,5.8789"
         inkscape:connector-curvature="0" /><path
         id="path112"
         style="fill:none;stroke:#ffffff;stroke-width:2.38599992;stroke-linecap:square;stroke-linejoin:miter;stroke-miterlimit:10;stroke-dasharray:none;stroke-opacity:1"
         d="m 159.223,33.0469 6.836,0 0,-5.8789 -6.836,0 0,5.8789 z"
         inkscape:connector-curvature="0" /><path
         id="path114"
         style="fill:#ffffff;fill-opacity:1;fill-rule:evenodd;stroke:none"
         d="m 145.531,33.0469 6.848,0 0,-5.8789 -6.848,0 0,5.8789"
         inkscape:connector-curvature="0" /><path
         id="path116"
         style="fill:none;stroke:#ffffff;stroke-width:2.38599992;stroke-linecap:square;stroke-linejoin:miter;stroke-miterlimit:10;stroke-dasharray:none;stroke-opacity:1"
         d="m 145.531,33.0469 6.848,0 0,-5.8789 -6.848,0 0,5.8789 z"
         inkscape:connector-curvature="0" /><path
         id="path118"
         style="fill:#ffffff;fill-opacity:1;fill-rule:evenodd;stroke:none"
         d="m 132.836,33.0469 5.859,0 0,-5.8789 -5.859,0 0,5.8789"
         inkscape:connector-curvature="0" /><path
         id="path120"
         style="fill:none;stroke:#ffffff;stroke-width:2.38599992;stroke-linecap:square;stroke-linejoin:miter;stroke-miterlimit:10;stroke-dasharray:none;stroke-opacity:1"
         d="m 132.836,33.0469 5.859,0 0,-5.8789 -5.859,0 0,5.8789 z"
         inkscape:connector-curvature="0" /><path
         id="path122"
         style="fill:#ffffff;fill-opacity:1;fill-rule:evenodd;stroke:none"
         d="m 119.164,33.0469 6.836,0 0,-5.8789 -6.836,0 0,5.8789"
         inkscape:connector-curvature="0" /><path
         id="path124"
         style="fill:none;stroke:#ffffff;stroke-width:2.38599992;stroke-linecap:square;stroke-linejoin:miter;stroke-miterlimit:10;stroke-dasharray:none;stroke-opacity:1"
         d="m 119.164,33.0469 6.836,0 0,-5.8789 -6.836,0 0,5.8789 z"
         inkscape:connector-curvature="0" /><path
         id="path126"
         style="fill:#ffffff;fill-opacity:1;fill-rule:evenodd;stroke:none"
         d="m 195.414,73.2891 22.461,0 0,-31.4024 -22.461,0 0,31.4024"
         inkscape:connector-curvature="0" /><path
         id="path128"
         style="fill:none;stroke:#ffffff;stroke-width:2.38599992;stroke-linecap:square;stroke-linejoin:miter;stroke-miterlimit:10;stroke-dasharray:none;stroke-opacity:1"
         d="m 195.414,73.2891 22.461,0 0,-31.4024 -22.461,0 0,31.4024 z"
         inkscape:connector-curvature="0" /><path
         id="path130"
         style="fill:#ffffff;fill-opacity:1;fill-rule:evenodd;stroke:none"
         d="m 159.223,73.2891 22.472,0 0,-31.4024 -22.472,0 0,31.4024"
         inkscape:connector-curvature="0" /><path
         id="path132"
         style="fill:none;stroke:#ffffff;stroke-width:2.38599992;stroke-linecap:square;stroke-linejoin:miter;stroke-miterlimit:10;stroke-dasharray:none;stroke-opacity:1"
         d="m 159.223,73.2891 22.472,0 0,-31.4024 -22.472,0 0,31.4024 z"
         inkscape:connector-curvature="0" /><path
         id="path134"
         style="fill:#ffffff;fill-opacity:1;fill-rule:evenodd;stroke:none"
         d="m 124.047,73.2891 21.484,0 0,-31.4024 -21.484,0 0,31.4024"
         inkscape:connector-curvature="0" /><path
         id="path136"
         style="fill:none;stroke:#ffffff;stroke-width:2.38599992;stroke-linecap:square;stroke-linejoin:miter;stroke-miterlimit:10;stroke-dasharray:none;stroke-opacity:1"
         d="m 124.047,73.2891 21.484,0 0,-31.4024 -21.484,0 0,31.4024 z"
         inkscape:connector-curvature="0" /></g></g></svg>