<?xml version="1.0" encoding="UTF-8" standalone="no"?>
<svg
   xmlns:dc="http://purl.org/dc/elements/1.1/"
   xmlns:cc="http://creativecommons.org/ns#"
   xmlns:rdf="http://www.w3.org/1999/02/22-rdf-syntax-ns#"
   xmlns:svg="http://www.w3.org/2000/svg"
   xmlns="http://www.w3.org/2000/svg"
   viewBox="0 0 32.5 41.25"
   height="41.25"
   width="32.5"
   xml:space="preserve"
   version="1.1"
   id="svg2"><metadata
     id="metadata8"><rdf:RDF><cc:Work
         rdf:about=""><dc:format>image/svg+xml</dc:format><dc:type
           rdf:resource="http://purl.org/dc/dcmitype/StillImage" /></cc:Work></rdf:RDF></metadata><defs
     id="defs6" /><g
     transform="matrix(1.25,0,0,-1.25,0,41.25)"
     id="g10"><g
       transform="scale(0.1,0.1)"
       id="g12"><path
         id="path14"
         style="fill:#087bbb;fill-opacity:1;fill-rule:nonzero;stroke:none"
         d="m 250.121,324.551 -27.5,-31.09 -217.31241,0 35.63281,31.09 209.1796,0" /><path
         id="path16"
         style="fill:none;stroke:#ffffff;stroke-width:4;stroke-linecap:butt;stroke-linejoin:miter;stroke-miterlimit:4;stroke-dasharray:none;stroke-opacity:1"
         d="m 250.121,324.555 -27.5,-31.098 -217.31241,0 35.63281,31.098 209.1796,0 z" /><path
         id="path18"
         style="fill:#087bbb;fill-opacity:1;fill-rule:nonzero;stroke:none"
         d="m 222.621,293.461 0,-108.012 27.457,28.91 0,108.051 -27.457,-28.949" /><path
         id="path20"
         style="fill:none;stroke:#ffffff;stroke-width:4;stroke-linecap:butt;stroke-linejoin:miter;stroke-miterlimit:4;stroke-dasharray:none;stroke-opacity:1"
         d="m 222.621,293.457 0,-108 27.457,28.898 0,108.051 -27.457,-28.949 z" /><path
         id="path22"
         style="fill:#087bbb;fill-opacity:1;fill-rule:nonzero;stroke:none"
         d="m 5.30859,15.0195 217.301,0 0,172.152 -217.301,0 0,-172.152 z" /><path
         id="path24"
         style="fill:none;stroke:#ffffff;stroke-width:4;stroke-linecap:butt;stroke-linejoin:miter;stroke-miterlimit:4;stroke-dasharray:none;stroke-opacity:1"
         d="m 222.621,15.0273 0,172.1487 -217.31241,0 0,-172.1487" /><path
         id="path26"
         style="fill:#087bbb;fill-opacity:1;fill-rule:nonzero;stroke:none"
         d="m 5.30859,186.781 217.301,0 0,106.68 -217.301,0 0,-106.68 z" /><path
         id="path28"
         style="fill:none;stroke:#ffffff;stroke-width:4;stroke-linecap:butt;stroke-linejoin:miter;stroke-miterlimit:4;stroke-dasharray:none;stroke-opacity:1"
         d="m 5.30859,186.777 217.301,0 0,106.68 -217.301,0 0,-106.68 z" /><path
         id="path30"
         style="fill:#087bbb;fill-opacity:1;fill-rule:nonzero;stroke:none"
         d="m 250.078,43.9297 0,171.5193 -27.457,-28.898 0,-171.5315 27.457,28.9102" /><path
         id="path32"
         style="fill:none;stroke:#ffffff;stroke-width:4;stroke-linecap:butt;stroke-linejoin:miter;stroke-miterlimit:4;stroke-dasharray:none;stroke-opacity:1"
         d="m 250.078,43.9258 0,171.5312 -27.457,-28.91 0,-171.5197 27.457,28.8985 z" /><path
         id="path34"
         style="fill:#ffffff;fill-opacity:1;fill-rule:nonzero;stroke:none"
         d="m 117.539,81 0,-37.5781 6.371,0 -9.379,-14.1836 -9.41,14.1836 6.359,0 0,37.5781 6.059,0" /><path
         id="path36"
         style="fill:#ffffff;fill-opacity:1;fill-rule:nonzero;stroke:none"
         d="m 98.3984,86.4297 -26.5976,-26.6016 4.5273,-4.4883 -16.6797,-3.3593 3.3633,16.6797 4.5274,-4.5313 26.5625,26.6016 4.2968,-4.3008" /><path
         id="path38"
         style="fill:#ffffff;fill-opacity:1;fill-rule:nonzero;stroke:none"
         d="m 88.6719,103.809 -37.5821,0 0,-6.3598 -14.1796,9.4098 14.1796,9.411 0,-6.399 37.5821,0 0,-6.062" /><path
         id="path40"
         style="fill:#ffffff;fill-opacity:1;fill-rule:nonzero;stroke:none"
         d="m 94.1016,122.988 -26.5625,26.563 -4.5274,-4.492 -3.3633,16.679 16.6797,-3.398 -4.5273,-4.488 26.5976,-26.563 -4.2968,-4.301" /><path
         id="path42"
         style="fill:#ffffff;fill-opacity:1;fill-rule:nonzero;stroke:none"
         d="m 111.48,119.551 0,72.539 -6.359,0 9.41,14.18 9.379,-14.18 -6.371,0 0,-72.539 -6.059,0" /><path
         id="path44"
         style="fill:#ffffff;fill-opacity:1;fill-rule:nonzero;stroke:none"
         d="m 130.66,127.289 26.57,26.563 -4.5,4.488 16.68,3.398 -3.39,-16.679 -4.5,4.492 -26.559,-26.563 -4.301,4.301" /><path
         id="path46"
         style="fill:#ffffff;fill-opacity:1;fill-rule:nonzero;stroke:none"
         d="m 140.391,109.871 37.578,0 0,6.399 14.179,-9.411 -14.179,-9.4098 0,6.3598 -37.578,0 0,6.062" /><path
         id="path48"
         style="fill:#ffffff;fill-opacity:1;fill-rule:nonzero;stroke:none"
         d="m 134.961,90.7305 26.559,-26.6016 4.5,4.5313 3.39,-16.6797 -16.68,3.3593 4.5,4.4883 -26.57,26.6016 4.301,4.3008" /><path
         id="path50"
         style="fill:#ffffff;fill-opacity:1;fill-rule:nonzero;stroke:none"
         d="M 137.5,138.34 C 155.121,126 159.379,101.738 147.07,84.1602 134.73,66.5508 110.469,62.25 92.8906,74.5898 75.2695,86.9414 71.0195,111.199 83.3203,128.77 c 12.3399,17.621 36.6017,21.878 54.1797,9.57" /><path
         id="path52"
         style="fill:#ffffff;fill-opacity:1;fill-rule:nonzero;stroke:none"
         d="m 112.191,259.051 57.219,0 0,5.66 18.711,-11.371 -18.711,-11.641 0,5.672 -57.219,0 0,11.68" /><path
         id="path54"
         style="fill:#ffffff;fill-opacity:1;fill-rule:nonzero;stroke:none"
         d="m 112.191,223.461 57.219,0 0,5.668 18.711,-11.367 -18.711,-11.641 0,5.66 -57.219,0 0,11.68" /><path
         id="path56"
         style="fill:#ffffff;fill-opacity:1;fill-rule:nonzero;stroke:none"
         d="m 113.48,276.039 -57.23,0 0,5.699 -18.7109,-11.359 18.7109,-11.649 0,5.668 57.23,0 0,11.641" /><path
         id="path58"
         style="fill:#ffffff;fill-opacity:1;fill-rule:nonzero;stroke:none"
         d="m 113.48,240.488 -57.23,0 0,5.672 -18.7109,-11.371 18.7109,-11.641 0,5.661 57.23,0 0,11.679" /><path
         id="path60"
         style="fill:none;stroke:#ffffff;stroke-width:4;stroke-linecap:round;stroke-linejoin:round;stroke-miterlimit:4;stroke-dasharray:none;stroke-opacity:1"
         d="m 221.559,15.375 -215.14884,0" /><path
         id="path62"
         style="fill:none;stroke:#ffffff;stroke-width:4;stroke-linecap:round;stroke-linejoin:round;stroke-miterlimit:4;stroke-dasharray:none;stroke-opacity:1"
         d="M 250.699,324.047 223.32,294.086" /><path
         id="path64"
         style="fill:none;stroke:#ffffff;stroke-width:4;stroke-linecap:round;stroke-linejoin:round;stroke-miterlimit:4;stroke-dasharray:none;stroke-opacity:1"
         d="m 221.559,186.625 -215.14884,0" /><path
         id="path66"
         style="fill:none;stroke:#ffffff;stroke-width:4;stroke-linecap:round;stroke-linejoin:round;stroke-miterlimit:4;stroke-dasharray:none;stroke-opacity:1"
         d="M 249.262,214.086 224.02,187.676" /></g></g></svg>