<?xml version="1.0" encoding="UTF-8" standalone="no"?>
<svg
   xmlns:dc="http://purl.org/dc/elements/1.1/"
   xmlns:cc="http://creativecommons.org/ns#"
   xmlns:rdf="http://www.w3.org/1999/02/22-rdf-syntax-ns#"
   xmlns:svg="http://www.w3.org/2000/svg"
   xmlns="http://www.w3.org/2000/svg"
   viewBox="0 0 33.25 33.025002"
   height="33.025002"
   width="33.25"
   xml:space="preserve"
   version="1.1"
   id="svg2"><metadata
     id="metadata8"><rdf:RDF><cc:Work
         rdf:about=""><dc:format>image/svg+xml</dc:format><dc:type
           rdf:resource="http://purl.org/dc/dcmitype/StillImage" /></cc:Work></rdf:RDF></metadata><defs
     id="defs6" /><g
     transform="matrix(1.25,0,0,-1.25,0,33.025)"
     id="g10"><g
       transform="scale(0.1,0.1)"
       id="g12"><path
         id="path14"
         style="fill:#5db2e6;fill-opacity:1;fill-rule:nonzero;stroke:none"
         d="m 235.605,237.484 -233.605,0 28.1055,22.45 233.5935,0 -28.094,-22.45" /><path
         id="path16"
         style="fill:#1d446d;fill-opacity:1;fill-rule:nonzero;stroke:none"
         d="m 263.992,26.4844 -28.789,-22.40237 0,233.59397 28.789,22.402 0,-233.5936" /><path
         id="path18"
         style="fill:none;stroke:#ffffff;stroke-width:4;stroke-linecap:butt;stroke-linejoin:miter;stroke-miterlimit:4;stroke-dasharray:none;stroke-opacity:1"
         d="m 263.992,26.4844 -28.789,-22.40237 0,233.59397 28.789,22.402 0,-233.5936 z" /><path
         id="path20"
         style="fill:#4296d8;fill-opacity:1;fill-rule:nonzero;stroke:none"
         d="m 2,4.08203 233.605,0 0,233.594 -233.605,0 0,-233.594 z" /><path
         id="path22"
         style="fill:none;stroke:#ffffff;stroke-width:4;stroke-linecap:butt;stroke-linejoin:miter;stroke-miterlimit:4;stroke-dasharray:none;stroke-opacity:1"
         d="m 2,4.08203 233.605,0 0,233.594 -233.605,0 0,-233.594 z" /><path
         id="path24"
         style="fill:#100f0d;fill-opacity:1;fill-rule:nonzero;stroke:none"
         d="m 119.453,126.172 c 0,-0.879 -0.723,-1.602 -1.609,-1.602 l -32.844,0 c -0.8789,0 -1.5898,0.723 -1.5898,1.602 l 0,32.855 c 0,0.879 0.7109,1.602 1.5898,1.602 l 32.844,0 c 0.886,0 1.609,-0.723 1.609,-1.602 l 0,-32.855" /><path
         id="path26"
         style="fill:#100f0d;fill-opacity:1;fill-rule:nonzero;stroke:none"
         d="m 162.004,126.387 c 0,-0.645 -0.52,-1.172 -1.176,-1.172 l -23.894,0 c -0.633,0 -1.172,0.527 -1.172,1.172 l 0,23.91 c 0,0.637 0.539,1.164 1.172,1.164 l 23.894,0 c 0.656,0 1.176,-0.527 1.176,-1.164 l 0,-23.91" /><path
         id="path28"
         style="fill:#100f0d;fill-opacity:1;fill-rule:nonzero;stroke:none"
         d="m 111.016,88.2617 c 0,-0.6445 -0.536,-1.1719 -1.172,-1.1719 l -23.9065,0 c -0.6445,0 -1.1602,0.5274 -1.1602,1.1719 l 0,23.9063 c 0,0.625 0.5157,1.152 1.1602,1.152 l 23.9065,0 c 0.636,0 1.172,-0.527 1.172,-1.152 l 0,-23.9063" /><path
         id="path30"
         style="fill:#100f0d;fill-opacity:1;fill-rule:nonzero;stroke:none"
         d="m 158.699,82.0703 c 0,-0.7812 -0.64,-1.4258 -1.426,-1.4258 l -29.253,0 c -0.786,0 -1.426,0.6446 -1.426,1.4258 l 0,29.2577 c 0,0.781 0.64,1.426 1.426,1.426 l 29.253,0 c 0.786,0 1.426,-0.645 1.426,-1.426 l 0,-29.2577" /><path
         id="path32"
         style="fill:#100f0d;fill-opacity:1;fill-rule:nonzero;stroke:none"
         d="m 91.2617,196.078 -45.8711,0 0,-102.4452 21.4141,0 0,81.0392 24.457,0 0,21.406" /><path
         id="path34"
         style="fill:#100f0d;fill-opacity:1;fill-rule:nonzero;stroke:none"
         d="m 121.855,196.078 0,-21.406 56.583,0 0,-61.176 21.406,0 0,82.582 -77.989,0" /><path
         id="path36"
         style="fill:#100f0d;fill-opacity:1;fill-rule:nonzero;stroke:none"
         d="m 178.438,82.9102 0,-19.8633 -133.0474,0 0,-21.4063 154.4534,0 0,41.2696 -21.406,0" /><path
         id="path38"
         style="fill:#ffffff;fill-opacity:1;fill-rule:nonzero;stroke:none"
         d="m 116.25,129.375 c 0,-0.879 -0.723,-1.602 -1.594,-1.602 l -32.8591,0 c -0.8789,0 -1.5899,0.723 -1.5899,1.602 l 0,32.855 c 0,0.879 0.711,1.602 1.5899,1.602 l 32.8591,0 c 0.871,0 1.594,-0.723 1.594,-1.602 l 0,-32.855" /><path
         id="path40"
         style="fill:#ffffff;fill-opacity:1;fill-rule:nonzero;stroke:none"
         d="m 158.801,129.59 c 0,-0.645 -0.52,-1.172 -1.164,-1.172 l -23.907,0 c -0.632,0 -1.152,0.527 -1.152,1.172 l 0,23.902 c 0,0.633 0.52,1.16 1.152,1.16 l 23.907,0 c 0.644,0 1.164,-0.527 1.164,-1.16 l 0,-23.902" /><path
         id="path42"
         style="fill:#ffffff;fill-opacity:1;fill-rule:nonzero;stroke:none"
         d="m 107.813,91.4453 c 0,-0.625 -0.54,-1.1523 -1.172,-1.1523 l -23.9066,0 c -0.6446,0 -1.1602,0.5273 -1.1602,1.1523 l 0,23.9067 c 0,0.644 0.5156,1.171 1.1602,1.171 l 23.9066,0 c 0.632,0 1.172,-0.527 1.172,-1.171 l 0,-23.9067" /><path
         id="path44"
         style="fill:#ffffff;fill-opacity:1;fill-rule:nonzero;stroke:none"
         d="m 155.496,85.2734 c 0,-0.8007 -0.641,-1.4257 -1.426,-1.4257 l -29.246,0 c -0.793,0 -1.433,0.625 -1.433,1.4257 l 0,29.2576 c 0,0.782 0.64,1.426 1.433,1.426 l 29.246,0 c 0.785,0 1.426,-0.644 1.426,-1.426 l 0,-29.2576" /><path
         id="path46"
         style="fill:#100f0d;fill-opacity:1;fill-rule:nonzero;stroke:none"
         d="m 143.262,102.52 c 0,-0.977 -0.782,-1.758 -1.77,-1.758 l -36.211,0 c -0.972,0 -1.765,0.781 -1.765,1.758 l 0,36.234 c 0,0.969 0.793,1.758 1.765,1.758 l 36.211,0 c 0.988,0 1.77,-0.789 1.77,-1.758 l 0,-36.234" /><path
         id="path48"
         style="fill:#ffffff;fill-opacity:1;fill-rule:nonzero;stroke:none"
         d="m 140.078,105.723 c 0,-0.977 -0.801,-1.758 -1.789,-1.758 l -36.211,0 c -0.973,0 -1.765,0.781 -1.765,1.758 l 0,36.226 c 0,0.965 0.792,1.766 1.765,1.766 l 36.211,0 c 0.988,0 1.789,-0.801 1.789,-1.766 l 0,-36.226" /><path
         id="path50"
         style="fill:none;stroke:#100f0d;stroke-width:2.5;stroke-linecap:butt;stroke-linejoin:miter;stroke-miterlimit:4;stroke-dasharray:none;stroke-opacity:1"
         d="m 140.078,105.723 c 0,-0.977 -0.801,-1.758 -1.789,-1.758 l -36.211,0 c -0.973,0 -1.765,0.781 -1.765,1.758 l 0,36.226 c 0,0.965 0.792,1.766 1.765,1.766 l 36.211,0 c 0.988,0 1.789,-0.801 1.789,-1.766 l 0,-36.226 z" /><path
         id="path52"
         style="fill:#ffffff;fill-opacity:1;fill-rule:nonzero;stroke:none"
         d="m 88.0664,199.281 -45.8672,0 0,-102.4451 21.4024,0 0,81.0391 24.4648,0 0,21.406" /><path
         id="path54"
         style="fill:#ffffff;fill-opacity:1;fill-rule:nonzero;stroke:none"
         d="m 118.652,199.281 0,-21.406 56.582,0 0,-61.176 21.407,0 0,82.582 -77.989,0" /><path
         id="path56"
         style="fill:#ffffff;fill-opacity:1;fill-rule:nonzero;stroke:none"
         d="m 175.234,86.1133 0,-19.8828 -133.0348,0 0,-21.4063 154.4418,0 0,41.2891 -21.407,0" /></g></g></svg>