<?xml version="1.0" encoding="UTF-8" standalone="no"?>
<svg
   xmlns:dc="http://purl.org/dc/elements/1.1/"
   xmlns:cc="http://creativecommons.org/ns#"
   xmlns:rdf="http://www.w3.org/1999/02/22-rdf-syntax-ns#"
   xmlns:svg="http://www.w3.org/2000/svg"
   xmlns="http://www.w3.org/2000/svg"
   viewBox="0 0 31.825001 39.674999"
   height="39.674999"
   width="31.825001"
   xml:space="preserve"
   version="1.1"
   id="svg2"><metadata
     id="metadata8"><rdf:RDF><cc:Work
         rdf:about=""><dc:format>image/svg+xml</dc:format><dc:type
           rdf:resource="http://purl.org/dc/dcmitype/StillImage" /></cc:Work></rdf:RDF></metadata><defs
     id="defs6" /><g
     transform="matrix(1.25,0,0,-1.25,0,39.675)"
     id="g10"><g
       transform="scale(0.1,0.1)"
       id="g12"><path
         id="path14"
         style="fill:#087bbb;fill-opacity:1;fill-rule:nonzero;stroke:none"
         d="m 250.121,314.559 -27.5,-31.114 -217.29287,0 35.61327,31.114 209.1796,0" /><path
         id="path16"
         style="fill:none;stroke:#ffffff;stroke-width:4;stroke-linecap:butt;stroke-linejoin:miter;stroke-miterlimit:4;stroke-dasharray:none;stroke-opacity:1"
         d="m 250.121,314.559 -27.5,-31.114 -217.29287,0 35.61327,31.114 209.1796,0 z" /><path
         id="path18"
         style="fill:#087bbb;fill-opacity:1;fill-rule:nonzero;stroke:none"
         d="m 222.621,283.445 0,-108.007 27.453,28.925 0,108.028 -27.453,-28.946" /><path
         id="path20"
         style="fill:none;stroke:#ffffff;stroke-width:4;stroke-linecap:butt;stroke-linejoin:miter;stroke-miterlimit:4;stroke-dasharray:none;stroke-opacity:1"
         d="m 222.621,283.445 0,-108.007 27.453,28.925 0,108.028 -27.453,-28.946 z" /><path
         id="path22"
         style="fill:#087bbb;fill-opacity:1;fill-rule:nonzero;stroke:none"
         d="m 5.32813,5.01172 217.293,0 0,172.156 -217.293,0 0,-172.156 z" /><path
         id="path24"
         style="fill:none;stroke:#ffffff;stroke-width:4;stroke-linecap:butt;stroke-linejoin:miter;stroke-miterlimit:4;stroke-dasharray:none;stroke-opacity:1"
         d="m 222.621,5.01172 0,172.15628 -217.29287,0 0,-172.15628" /><path
         id="path26"
         style="fill:#087bbb;fill-opacity:1;fill-rule:nonzero;stroke:none"
         d="m 5.32813,176.785 217.293,0 0,106.66 -217.293,0 0,-106.66 z" /><path
         id="path28"
         style="fill:none;stroke:#ffffff;stroke-width:4;stroke-linecap:butt;stroke-linejoin:miter;stroke-miterlimit:4;stroke-dasharray:none;stroke-opacity:1"
         d="m 5.32813,176.785 217.293,0 0,106.66 -217.293,0 0,-106.66 z" /><path
         id="path30"
         style="fill:#087bbb;fill-opacity:1;fill-rule:nonzero;stroke:none"
         d="m 250.074,33.9336 0,171.5274 -27.453,-28.93 0,-171.51928 27.453,28.92188" /><path
         id="path32"
         style="fill:none;stroke:#ffffff;stroke-width:4;stroke-linecap:butt;stroke-linejoin:miter;stroke-miterlimit:4;stroke-dasharray:none;stroke-opacity:1"
         d="m 250.074,33.9336 0,171.5274 -27.453,-28.93 0,-171.51928 27.453,28.92188 z" /><path
         id="path34"
         style="fill:#ffffff;fill-opacity:1;fill-rule:nonzero;stroke:none"
         d="m 117.555,70.9844 0,-37.5781 6.367,0 -9.395,-14.1797 -9.414,14.1797 6.375,0 0,37.5781 6.067,0" /><path
         id="path36"
         style="fill:#ffffff;fill-opacity:1;fill-rule:nonzero;stroke:none"
         d="m 98.3828,76.4141 -26.5703,-26.5782 4.5117,-4.4921 -16.6797,-3.379 3.3672,16.6758 4.5117,-4.5078 26.5625,26.582 4.2969,-4.3007" /><path
         id="path38"
         style="fill:#ffffff;fill-opacity:1;fill-rule:nonzero;stroke:none"
         d="m 88.668,93.8164 -37.5782,0 0,-6.3867 -14.1796,9.4141 14.1796,9.4182 0,-6.3909 37.5782,0 0,-6.0547" /><path
         id="path40"
         style="fill:#ffffff;fill-opacity:1;fill-rule:nonzero;stroke:none"
         d="m 94.0859,112.977 -26.5625,26.562 -4.5117,-4.488 -3.3672,16.676 16.6797,-3.379 -4.5117,-4.508 26.5703,-26.567 -4.2969,-4.296" /><path
         id="path42"
         style="fill:#ffffff;fill-opacity:1;fill-rule:nonzero;stroke:none"
         d="m 111.488,109.539 0,72.539 -6.375,0 9.414,14.184 9.395,-14.184 -6.367,0 0,-72.539 -6.067,0" /><path
         id="path44"
         style="fill:#ffffff;fill-opacity:1;fill-rule:nonzero;stroke:none"
         d="m 130.66,117.273 26.57,26.567 -4.5,4.508 16.68,3.379 -3.379,-16.676 -4.504,4.488 -26.582,-26.562 -4.285,4.296" /><path
         id="path46"
         style="fill:#ffffff;fill-opacity:1;fill-rule:nonzero;stroke:none"
         d="m 140.375,99.8711 37.578,0 0,6.3909 14.192,-9.4182 -14.192,-9.4141 0,6.3867 -37.578,0 0,6.0547" /><path
         id="path48"
         style="fill:#ffffff;fill-opacity:1;fill-rule:nonzero;stroke:none"
         d="m 134.945,80.7148 26.582,-26.582 4.504,4.5078 3.379,-16.6758 -16.68,3.379 4.5,4.4921 -26.57,26.5782 4.285,4.3007" /><path
         id="path50"
         style="fill:#ffffff;fill-opacity:1;fill-rule:nonzero;stroke:none"
         d="m 137.516,128.328 c 17.597,-12.32 21.875,-36.5819 9.558,-54.1796 C 134.742,56.5547 110.473,52.2578 92.875,64.5977 75.2773,76.9258 71,101.18 83.3242,118.777 c 12.3242,17.602 36.5818,21.875 54.1918,9.551" /><path
         id="path52"
         style="fill:#ffffff;fill-opacity:1;fill-rule:nonzero;stroke:none"
         d="m 112.191,249.031 57.207,0 0,5.664 18.723,-11.347 -18.723,-11.66 0,5.664 -57.207,0 0,11.679" /><path
         id="path54"
         style="fill:#ffffff;fill-opacity:1;fill-rule:nonzero;stroke:none"
         d="m 112.191,213.445 57.207,0 0,5.684 18.723,-11.367 -18.723,-11.66 0,5.683 -57.207,0 0,11.66" /><path
         id="path56"
         style="fill:#ffffff;fill-opacity:1;fill-rule:nonzero;stroke:none"
         d="m 113.473,266.043 -57.2074,0 0,5.684 -18.7304,-11.368 18.7304,-11.64 0,5.664 57.2074,0 0,11.66" /><path
         id="path58"
         style="fill:#ffffff;fill-opacity:1;fill-rule:nonzero;stroke:none"
         d="m 113.473,230.477 -57.2074,0 0,5.664 -18.7304,-11.348 18.7304,-11.656 0,5.66 57.2074,0 0,11.68" /><path
         id="path60"
         style="fill:none;stroke:#ffffff;stroke-width:4;stroke-linecap:round;stroke-linejoin:round;stroke-miterlimit:4;stroke-dasharray:none;stroke-opacity:1"
         d="m 221.559,5.38281 -215.13712,0" /><path
         id="path62"
         style="fill:none;stroke:#ffffff;stroke-width:4;stroke-linecap:round;stroke-linejoin:round;stroke-miterlimit:4;stroke-dasharray:none;stroke-opacity:1"
         d="M 250.707,314.031 223.324,284.07" /><path
         id="path64"
         style="fill:none;stroke:#ffffff;stroke-width:4;stroke-linecap:round;stroke-linejoin:round;stroke-miterlimit:4;stroke-dasharray:none;stroke-opacity:1"
         d="m 221.559,176.633 -215.13712,0" /><path
         id="path66"
         style="fill:none;stroke:#ffffff;stroke-width:4;stroke-linecap:round;stroke-linejoin:round;stroke-miterlimit:4;stroke-dasharray:none;stroke-opacity:1"
         d="M 249.273,204.07 224.039,177.684" /></g></g></svg>