<?xml version="1.0" encoding="UTF-8" standalone="no"?>
<svg
   xmlns:dc="http://purl.org/dc/elements/1.1/"
   xmlns:cc="http://creativecommons.org/ns#"
   xmlns:rdf="http://www.w3.org/1999/02/22-rdf-syntax-ns#"
   xmlns:svg="http://www.w3.org/2000/svg"
   xmlns="http://www.w3.org/2000/svg"
   viewBox="0 0 33.75 36.25"
   height="36.25"
   width="33.75"
   xml:space="preserve"
   version="1.1"
   id="svg2"><metadata
     id="metadata8"><rdf:RDF><cc:Work
         rdf:about=""><dc:format>image/svg+xml</dc:format><dc:type
           rdf:resource="http://purl.org/dc/dcmitype/StillImage" /></cc:Work></rdf:RDF></metadata><defs
     id="defs6" /><g
     transform="matrix(1.25,0,0,-1.25,0,36.25)"
     id="g10"><g
       transform="scale(0.1,0.1)"
       id="g12"><path
         id="path14"
         style="fill:#1582ba;fill-opacity:1;fill-rule:nonzero;stroke:none"
         d="m 5.42969,14.7188 215.742,0 0,219.77 -215.742,0 0,-219.77 z" /><path
         id="path16"
         style="fill:none;stroke:#ffffff;stroke-width:4;stroke-linecap:butt;stroke-linejoin:miter;stroke-miterlimit:4;stroke-dasharray:none;stroke-opacity:1"
         d="m 5.42969,14.7266 215.742,0 0,219.77 -215.742,0 0,-219.77 z" /><path
         id="path18"
         style="fill:#1582ba;fill-opacity:1;fill-rule:nonzero;stroke:none"
         d="m 221.172,234.488 -215.51184,0 54.53904,43.832 205.5818,0 0,-218.4684 -44.609,-45 0,219.6364" /><path
         id="path20"
         style="fill:none;stroke:#ffffff;stroke-width:4;stroke-linecap:butt;stroke-linejoin:miter;stroke-miterlimit:4;stroke-dasharray:none;stroke-opacity:1"
         d="m 221.172,234.496 -215.51184,0 54.53904,43.828 205.5818,0 0,-218.4802 -44.609,-45 0,219.6522 z" /><path
         id="path22"
         style="fill:#1582ba;fill-opacity:1;fill-rule:nonzero;stroke:none"
         d="m 221.172,234.488 44.609,43.832" /><path
         id="path24"
         style="fill:none;stroke:#ffffff;stroke-width:4;stroke-linecap:butt;stroke-linejoin:miter;stroke-miterlimit:4;stroke-dasharray:none;stroke-opacity:1"
         d="m 221.172,234.496 44.609,43.828" /><path
         id="path26"
         style="fill:none;stroke:#ffffff;stroke-width:4;stroke-linecap:butt;stroke-linejoin:miter;stroke-miterlimit:4;stroke-dasharray:none;stroke-opacity:1"
         d="m 35.4297,177.734 174.1793,0" /><path
         id="path28"
         style="fill:none;stroke:#ffffff;stroke-width:4;stroke-linecap:butt;stroke-linejoin:miter;stroke-miterlimit:4;stroke-dasharray:none;stroke-opacity:1"
         d="m 27.2305,124.496 175.3475,0" /><path
         id="path30"
         style="fill:none;stroke:#ffffff;stroke-width:4;stroke-linecap:butt;stroke-linejoin:miter;stroke-miterlimit:4;stroke-dasharray:none;stroke-opacity:1"
         d="m 19.4492,73.9063 174.2618,0" /><path
         id="path32"
         style="fill:#1582ba;fill-opacity:1;fill-rule:nonzero;stroke:none"
         d="M 43.3203,44.1406 79.2617,209.73" /><path
         id="path34"
         style="fill:none;stroke:#ffffff;stroke-width:4;stroke-linecap:butt;stroke-linejoin:miter;stroke-miterlimit:4;stroke-dasharray:none;stroke-opacity:1"
         d="M 43.3203,44.1445 79.2617,209.727" /><path
         id="path36"
         style="fill:#1582ba;fill-opacity:1;fill-rule:nonzero;stroke:none"
         d="M 155.121,44.1406 191.051,209.73" /><path
         id="path38"
         style="fill:none;stroke:#ffffff;stroke-width:4;stroke-linecap:butt;stroke-linejoin:miter;stroke-miterlimit:4;stroke-dasharray:none;stroke-opacity:1"
         d="m 155.121,44.1445 35.93,165.5825" /><path
         id="path40"
         style="fill:#1582ba;fill-opacity:1;fill-rule:nonzero;stroke:none"
         d="M 99.2188,45.4297 135.16,211.02" /><path
         id="path42"
         style="fill:none;stroke:#ffffff;stroke-width:4;stroke-linecap:butt;stroke-linejoin:miter;stroke-miterlimit:4;stroke-dasharray:none;stroke-opacity:1"
         d="M 99.2188,45.4336 135.16,211.016" /><path
         id="path44"
         style="fill:#ffffff;fill-opacity:1;fill-rule:nonzero;stroke:none"
         d="m 85.7383,178.211 c 0,-5 -6.0899,-9.07 -13.6289,-9.07 -7.5391,0 -13.6289,4.07 -13.6289,9.07 0,5.027 6.0898,9.098 13.6289,9.098 7.539,0 13.6289,-4.071 13.6289,-9.098" /><path
         id="path46"
         style="fill:#ffffff;fill-opacity:1;fill-rule:nonzero;stroke:none"
         d="m 142.23,180.469 c 0,-5.039 -6.101,-9.098 -13.601,-9.098 -7.539,0 -13.668,4.059 -13.668,9.098 0,5.043 6.129,9.101 13.668,9.101 7.5,0 13.601,-4.058 13.601,-9.101" /><path
         id="path48"
         style="fill:#ffffff;fill-opacity:1;fill-rule:nonzero;stroke:none"
         d="m 198.871,176.488 c 0,-5.039 -6.101,-9.097 -13.641,-9.097 -7.531,0 -13.628,4.058 -13.628,9.097 0,5 6.097,9.102 13.628,9.102 7.54,0 13.641,-4.102 13.641,-9.102" /><path
         id="path50"
         style="fill:#ffffff;fill-opacity:1;fill-rule:nonzero;stroke:none"
         d="m 72.8906,124.219 c 0,-5 -6.0898,-9.098 -13.6289,-9.098 -7.5429,0 -13.6406,4.098 -13.6406,9.098 0,5.043 6.0977,9.101 13.6406,9.101 7.5391,0 13.6289,-4.058 13.6289,-9.101" /><path
         id="path52"
         style="fill:#ffffff;fill-opacity:1;fill-rule:nonzero;stroke:none"
         d="m 129.379,122.5 c 0,-5.039 -6.098,-9.102 -13.641,-9.102 -7.5,0 -13.629,4.063 -13.629,9.102 0,5 6.129,9.102 13.629,9.102 7.543,0 13.641,-4.102 13.641,-9.102" /><path
         id="path54"
         style="fill:#ffffff;fill-opacity:1;fill-rule:nonzero;stroke:none"
         d="m 186.02,125.16 c 0,-5.039 -6.141,-9.101 -13.641,-9.101 -7.539,0 -13.668,4.062 -13.668,9.101 0,5 6.129,9.102 13.668,9.102 7.5,0 13.641,-4.102 13.641,-9.102" /><path
         id="path56"
         style="fill:#ffffff;fill-opacity:1;fill-rule:nonzero;stroke:none"
         d="m 61.6406,72.9297 c 0,-5 -6.1289,-9.0586 -13.6289,-9.0586 -7.5429,0 -13.6719,4.0586 -13.6719,9.0586 0,5.0391 6.129,9.1016 13.6719,9.1016 7.5,0 13.6289,-4.0625 13.6289,-9.1016" /><path
         id="path58"
         style="fill:#ffffff;fill-opacity:1;fill-rule:nonzero;stroke:none"
         d="m 118.121,72.5391 c 0,-5 -6.09,-9.0977 -13.633,-9.0977 -7.5388,0 -13.6286,4.0977 -13.6286,9.0977 0,5.039 6.0898,9.1015 13.6286,9.1015 7.543,0 13.633,-4.0625 13.633,-9.1015" /><path
         id="path60"
         style="fill:#ffffff;fill-opacity:1;fill-rule:nonzero;stroke:none"
         d="m 174.73,72.5391 c 0,-5 -6.101,-9.0977 -13.64,-9.0977 -7.539,0 -13.629,4.0977 -13.629,9.0977 0,5.039 6.09,9.1015 13.629,9.1015 7.539,0 13.64,-4.0625 13.64,-9.1015" /></g></g></svg>