<?xml version="1.0" encoding="UTF-8" standalone="no"?>
<svg
   xmlns:dc="http://purl.org/dc/elements/1.1/"
   xmlns:cc="http://creativecommons.org/ns#"
   xmlns:rdf="http://www.w3.org/1999/02/22-rdf-syntax-ns#"
   xmlns:svg="http://www.w3.org/2000/svg"
   xmlns="http://www.w3.org/2000/svg"
   viewBox="0 0 25 41.25"
   height="41.25"
   width="25"
   xml:space="preserve"
   version="1.1"
   id="svg2"><metadata
     id="metadata8"><rdf:RDF><cc:Work
         rdf:about=""><dc:format>image/svg+xml</dc:format><dc:type
           rdf:resource="http://purl.org/dc/dcmitype/StillImage" /></cc:Work></rdf:RDF></metadata><defs
     id="defs6" /><g
     transform="matrix(1.25,0,0,-1.25,0,41.25)"
     id="g10"><g
       transform="scale(0.1,0.1)"
       id="g12"><path
         id="path14"
         style="fill:#026c9b;fill-opacity:1;fill-rule:nonzero;stroke:none"
         d="m 5.62109,15.6094 161.641,0 0,281.879 -161.641,0 0,-281.879 z" /><path
         id="path16"
         style="fill:none;stroke:#ffffff;stroke-width:4;stroke-linecap:butt;stroke-linejoin:miter;stroke-miterlimit:4;stroke-dasharray:none;stroke-opacity:1"
         d="m 5.62109,15.6133 161.641,0 0,281.883 -161.641,0 0,-281.883 z" /><path
         id="path18"
         style="fill:#026c9b;fill-opacity:1;fill-rule:nonzero;stroke:none"
         d="m 5.62109,297.488 30.89841,25.082 155.8205,0 -25.07,-25.082 -161.64891,0" /><path
         id="path20"
         style="fill:none;stroke:#ffffff;stroke-width:4;stroke-linecap:butt;stroke-linejoin:miter;stroke-miterlimit:4;stroke-dasharray:none;stroke-opacity:1"
         d="m 5.62109,297.496 30.89841,25.078 155.8205,0 -25.07,-25.078 -161.64891,0 z" /><path
         id="path22"
         style="fill:#026c9b;fill-opacity:1;fill-rule:nonzero;stroke:none"
         d="m 167.27,15.6211 25.07,30.8984 0,276.0505 -25.07,-25.082 0,-281.8669" /><path
         id="path24"
         style="fill:none;stroke:#ffffff;stroke-width:4;stroke-linecap:butt;stroke-linejoin:miter;stroke-miterlimit:4;stroke-dasharray:none;stroke-opacity:1"
         d="m 167.27,15.6133 25.07,30.9023 0,276.0584 -25.07,-25.078 0,-281.8827 z" /><path
         id="path26"
         style="fill:none;stroke:#ffffff;stroke-width:4;stroke-linecap:butt;stroke-linejoin:miter;stroke-miterlimit:4;stroke-dasharray:none;stroke-opacity:1"
         d="m 5.58984,186.754 160.89016,0" /><path
         id="path28"
         style="fill:none;stroke:#ffffff;stroke-width:3;stroke-linecap:butt;stroke-linejoin:miter;stroke-miterlimit:4;stroke-dasharray:none;stroke-opacity:1"
         d="m 5.58984,34.875 160.89016,0" /><path
         id="path30"
         style="fill:#ffffff;fill-opacity:1;fill-rule:nonzero;stroke:none"
         d="m 74.1797,97.1016 0,-23.1211 -9.0195,0 18.0781,-23.0899 18.6017,23.0899 -9.0314,0 0,23.1211 -18.6289,0" /><path
         id="path32"
         style="fill:#ffffff;fill-opacity:1;fill-rule:nonzero;stroke:none"
         d="m 74.1797,115.461 0,23.129 -9.0195,0 18.0781,23.121 18.6017,-23.121 -9.0314,0 0,-23.129 -18.6289,0" /><path
         id="path34"
         style="fill:#ffffff;fill-opacity:1;fill-rule:nonzero;stroke:none"
         d="m 27.0703,114.41 23.1289,0 0,9.02 23.1211,-18.09 -23.1211,-18.59 0,9.0195 -23.1289,0 0,18.6405" /><path
         id="path36"
         style="fill:#ffffff;fill-opacity:1;fill-rule:nonzero;stroke:none"
         d="m 139.301,114.41 -23.129,0 0,9.02 -23.1212,-18.09 23.1212,-18.59 0,9.0195 23.129,0 0,18.6405" /><path
         id="path38"
         style="fill:#026c9b;fill-opacity:1;fill-rule:nonzero;stroke:none"
         d="m 18.4805,246.711 75,0 0,30.8203 -75,0 0,-30.8203 z" /><path
         id="path40"
         style="fill:none;stroke:#ffffff;stroke-width:4;stroke-linecap:butt;stroke-linejoin:miter;stroke-miterlimit:4;stroke-dasharray:none;stroke-opacity:1"
         d="m 18.4805,246.715 75,0 0,30.8203 -75,0 0,-30.8203 z" /><path
         id="path42"
         style="fill:none;stroke:#ffffff;stroke-width:4;stroke-linecap:butt;stroke-linejoin:miter;stroke-miterlimit:4;stroke-dasharray:none;stroke-opacity:1"
         d="m 25.9805,261.047 60.8203,0" /></g></g></svg>