<?xml version="1.0" encoding="UTF-8" standalone="no"?>
<svg
   xmlns:dc="http://purl.org/dc/elements/1.1/"
   xmlns:cc="http://creativecommons.org/ns#"
   xmlns:rdf="http://www.w3.org/1999/02/22-rdf-syntax-ns#"
   xmlns:svg="http://www.w3.org/2000/svg"
   xmlns="http://www.w3.org/2000/svg"
   viewBox="0 0 33.474998 33.787498"
   height="33.787498"
   width="33.474998"
   xml:space="preserve"
   version="1.1"
   id="svg2"><metadata
     id="metadata8"><rdf:RDF><cc:Work
         rdf:about=""><dc:format>image/svg+xml</dc:format><dc:type
           rdf:resource="http://purl.org/dc/dcmitype/StillImage" /></cc:Work></rdf:RDF></metadata><defs
     id="defs6" /><g
     transform="matrix(1.25,0,0,-1.25,0,33.7875)"
     id="g10"><g
       transform="scale(0.1,0.1)"
       id="g12"><path
         id="path14"
         style="fill:#1582ba;fill-opacity:1;fill-rule:nonzero;stroke:none"
         d="m 5.42969,4.73438 215.727,0 0,219.77 -215.727,0 0,-219.77 z" /><path
         id="path16"
         style="fill:none;stroke:#ffffff;stroke-width:4;stroke-linecap:butt;stroke-linejoin:miter;stroke-miterlimit:4;stroke-dasharray:none;stroke-opacity:1"
         d="m 5.42969,4.73438 215.727,0 0,219.77 -215.727,0 0,-219.77 z" /><path
         id="path18"
         style="fill:#1582ba;fill-opacity:1;fill-rule:nonzero;stroke:none"
         d="m 221.156,224.504 -215.47631,0 54.49611,43.805 205.6012,0 0,-218.4574 -44.621,-45.00004 0,219.65244" /><path
         id="path20"
         style="fill:none;stroke:#ffffff;stroke-width:4;stroke-linecap:butt;stroke-linejoin:miter;stroke-miterlimit:4;stroke-dasharray:none;stroke-opacity:1"
         d="m 221.156,224.504 -215.47631,0 54.49611,43.805 205.6012,0 0,-218.4574 -44.621,-45.00004 0,219.65244 z" /><path
         id="path22"
         style="fill:#1582ba;fill-opacity:1;fill-rule:nonzero;stroke:none"
         d="m 221.156,224.504 44.621,43.805" /><path
         id="path24"
         style="fill:none;stroke:#ffffff;stroke-width:4;stroke-linecap:butt;stroke-linejoin:miter;stroke-miterlimit:4;stroke-dasharray:none;stroke-opacity:1"
         d="m 221.156,224.504 44.621,43.805" /><path
         id="path26"
         style="fill:#1582ba;fill-opacity:1;fill-rule:nonzero;stroke:none"
         d="m 35.4102,167.723 174.2148,0" /><path
         id="path28"
         style="fill:none;stroke:#ffffff;stroke-width:4;stroke-linecap:butt;stroke-linejoin:miter;stroke-miterlimit:4;stroke-dasharray:none;stroke-opacity:1"
         d="m 35.4102,167.723 174.2148,0" /><path
         id="path30"
         style="fill:#1582ba;fill-opacity:1;fill-rule:nonzero;stroke:none"
         d="m 27.207,114.48 175.367,0" /><path
         id="path32"
         style="fill:none;stroke:#ffffff;stroke-width:4;stroke-linecap:butt;stroke-linejoin:miter;stroke-miterlimit:4;stroke-dasharray:none;stroke-opacity:1"
         d="m 27.207,114.48 175.367,0" /><path
         id="path34"
         style="fill:#1582ba;fill-opacity:1;fill-rule:nonzero;stroke:none"
         d="m 19.4531,63.918 174.2539,0" /><path
         id="path36"
         style="fill:none;stroke:#ffffff;stroke-width:4;stroke-linecap:butt;stroke-linejoin:miter;stroke-miterlimit:4;stroke-dasharray:none;stroke-opacity:1"
         d="m 19.4531,63.918 174.2539,0" /><path
         id="path38"
         style="fill:#1582ba;fill-opacity:1;fill-rule:nonzero;stroke:none"
         d="M 43.3047,34.1406 79.2422,199.719" /><path
         id="path40"
         style="fill:none;stroke:#ffffff;stroke-width:4;stroke-linecap:butt;stroke-linejoin:miter;stroke-miterlimit:4;stroke-dasharray:none;stroke-opacity:1"
         d="M 43.3047,34.1406 79.2422,199.719" /><path
         id="path42"
         style="fill:#1582ba;fill-opacity:1;fill-rule:nonzero;stroke:none"
         d="M 155.113,34.1406 191.051,199.719" /><path
         id="path44"
         style="fill:none;stroke:#ffffff;stroke-width:4;stroke-linecap:butt;stroke-linejoin:miter;stroke-miterlimit:4;stroke-dasharray:none;stroke-opacity:1"
         d="M 155.113,34.1406 191.051,199.719" /><path
         id="path46"
         style="fill:#1582ba;fill-opacity:1;fill-rule:nonzero;stroke:none"
         d="M 99.2109,35.4375 135.141,200.996" /><path
         id="path48"
         style="fill:none;stroke:#ffffff;stroke-width:4;stroke-linecap:butt;stroke-linejoin:miter;stroke-miterlimit:4;stroke-dasharray:none;stroke-opacity:1"
         d="M 99.2109,35.4375 135.141,200.996" /><path
         id="path50"
         style="fill:#ffffff;fill-opacity:1;fill-rule:nonzero;stroke:none"
         d="m 85.7539,168.203 c 0,-5.019 -6.1055,-9.082 -13.6406,-9.082 -7.5352,0 -13.6406,4.063 -13.6406,9.082 0,5.02 6.1054,9.094 13.6406,9.094 7.5351,0 13.6406,-4.074 13.6406,-9.094" /><path
         id="path52"
         style="fill:#ffffff;fill-opacity:1;fill-rule:nonzero;stroke:none"
         d="m 142.242,170.477 c 0,-5.039 -6.094,-9.098 -13.629,-9.098 -7.539,0 -13.636,4.059 -13.636,9.098 0,5.011 6.097,9.082 13.636,9.082 7.535,0 13.629,-4.071 13.629,-9.082" /><path
         id="path54"
         style="fill:#ffffff;fill-opacity:1;fill-rule:nonzero;stroke:none"
         d="m 198.863,166.473 c 0,-5.02 -6.105,-9.09 -13.633,-9.09 -7.539,0 -13.632,4.07 -13.632,9.09 0,5.019 6.093,9.093 13.632,9.093 7.528,0 13.633,-4.074 13.633,-9.093" /><path
         id="path56"
         style="fill:#ffffff;fill-opacity:1;fill-rule:nonzero;stroke:none"
         d="m 72.8945,114.227 c 0,-5.028 -6.1132,-9.098 -13.6406,-9.098 -7.5312,0 -13.6367,4.07 -13.6367,9.098 0,5.023 6.1055,9.082 13.6367,9.082 7.5274,0 13.6406,-4.059 13.6406,-9.082" /><path
         id="path58"
         style="fill:#ffffff;fill-opacity:1;fill-rule:nonzero;stroke:none"
         d="m 129.391,112.488 c 0,-5.015 -6.11,-9.082 -13.637,-9.082 -7.527,0 -13.641,4.067 -13.641,9.082 0,5.024 6.114,9.094 13.641,9.094 7.527,0 13.637,-4.07 13.637,-9.094" /><path
         id="path60"
         style="fill:#ffffff;fill-opacity:1;fill-rule:nonzero;stroke:none"
         d="m 186.012,115.168 c 0,-5.039 -6.114,-9.105 -13.633,-9.105 -7.539,0 -13.652,4.066 -13.652,9.105 0,5 6.113,9.082 13.652,9.082 7.519,0 13.633,-4.082 13.633,-9.082" /><path
         id="path62"
         style="fill:#ffffff;fill-opacity:1;fill-rule:nonzero;stroke:none"
         d="m 61.625,62.9375 c 0,-5.0156 -6.1055,-9.082 -13.6328,-9.082 -7.5313,0 -13.6406,4.0664 -13.6406,9.082 0,5.0234 6.1093,9.1055 13.6406,9.1055 7.5273,0 13.6328,-4.0821 13.6328,-9.1055" /><path
         id="path64"
         style="fill:#ffffff;fill-opacity:1;fill-rule:nonzero;stroke:none"
         d="m 118.121,62.5508 c 0,-5.0235 -6.098,-9.1055 -13.637,-9.1055 -7.5309,0 -13.6402,4.082 -13.6402,9.1055 0,5.0156 6.1093,9.0898 13.6402,9.0898 7.539,0 13.637,-4.0742 13.637,-9.0898" /><path
         id="path66"
         style="fill:#ffffff;fill-opacity:1;fill-rule:nonzero;stroke:none"
         d="m 174.742,62.5508 c 0,-5.0235 -6.113,-9.1055 -13.633,-9.1055 -7.539,0 -13.644,4.082 -13.644,9.1055 0,5.0156 6.105,9.0898 13.644,9.0898 7.52,0 13.633,-4.0742 13.633,-9.0898" /></g></g></svg>