<svg xmlns="http://www.w3.org/2000/svg" viewBox="0 0 45 31.25" height="31.25" width="45"><path d="M.796 29.314h38.291V5.603H.797v23.711z" fill="#087bbb"/><path d="M.796 29.314h38.291V5.603H.797v23.711z" fill="none" stroke="#fff" stroke-width=".575"/><path d="M39.004 5.579H.82L6.816.794H43.95v23.559l-4.892 4.946V5.715l-.054-.136" fill="#087bbb"/><path d="M39.004 5.58H.82L6.816.792H43.95v23.56l-4.892 4.946V5.715l-.054-.136z" fill="none" stroke="#fff" stroke-width=".575"/><path d="M39.047 5.535l4.947-4.81"/><path d="M39.047 5.534L43.994.725" fill="none" stroke="#fff" stroke-width=".575"/><path d="M6.47 27.136h4.463l4.912-5.015h4.731l4.927 4.928h8.516V23.56h-6.504l-5.04-5.034h-6.44l-4.941-4.95-4.703-.006v-.638l-1.913 1.913 1.85 1.85v-.702H10.2l-.034 3.237H6.47v-.64l-1.914 1.914 1.845 1.851v-.704l3.765-.01v3.067H6.47v-.634l-1.914 1.909 1.845 1.85v-.698M33.212 7.464h-4.467l-4.908 5.014h-4.736l-4.926-4.932H5.659v3.487h6.508l5.036 5.038h6.445l4.936 4.947 4.702.004v.64L35.2 19.75l-1.845-1.851v.703h-3.873l.03-3.237h3.7v.64l1.915-1.915-1.85-1.85v.702l-3.766.01V9.885h3.701v.64l1.915-1.914-1.85-1.851v.704" fill="#fff"/></svg>