<?xml version="1.0" encoding="UTF-8" standalone="no"?>
<svg
   xmlns:dc="http://purl.org/dc/elements/1.1/"
   xmlns:cc="http://creativecommons.org/ns#"
   xmlns:rdf="http://www.w3.org/1999/02/22-rdf-syntax-ns#"
   xmlns:svg="http://www.w3.org/2000/svg"
   xmlns="http://www.w3.org/2000/svg"
   viewBox="0 0 33.75 35"
   height="35"
   width="33.75"
   xml:space="preserve"
   version="1.1"
   id="svg2"><metadata
     id="metadata8"><rdf:RDF><cc:Work
         rdf:about=""><dc:format>image/svg+xml</dc:format><dc:type
           rdf:resource="http://purl.org/dc/dcmitype/StillImage" /></cc:Work></rdf:RDF></metadata><defs
     id="defs6" /><g
     transform="matrix(1.25,0,0,-1.25,0,35)"
     id="g10"><g
       transform="scale(0.1,0.1)"
       id="g12"><path
         id="path14"
         style="fill:#5db2e6;fill-opacity:1;fill-rule:nonzero;stroke:none"
         d="m 235.59,247.5 -233.60172,0 28.13282,22.461 233.5899,0 L 235.59,247.5" /><path
         id="path16"
         style="fill:#1d446d;fill-opacity:1;fill-rule:nonzero;stroke:none"
         d="m 263.98,36.4805 -28.781,-22.3789 0,233.5894 28.781,22.387 0,-233.5975" /><path
         id="path18"
         style="fill:none;stroke:#ffffff;stroke-width:4;stroke-linecap:butt;stroke-linejoin:miter;stroke-miterlimit:4;stroke-dasharray:none;stroke-opacity:1"
         d="m 263.98,36.4766 -28.781,-22.3789 0,233.5973 28.781,22.383 0,-233.6014 z" /><path
         id="path20"
         style="fill:#4296d8;fill-opacity:1;fill-rule:nonzero;stroke:none"
         d="m 1.98828,14.1016 233.59,0 0,233.59 -233.59,0 0,-233.59 z" /><path
         id="path22"
         style="fill:none;stroke:#ffffff;stroke-width:4;stroke-linecap:butt;stroke-linejoin:miter;stroke-miterlimit:4;stroke-dasharray:none;stroke-opacity:1"
         d="m 1.98828,14.1055 233.59,0 0,233.59 -233.59,0 0,-233.59 z" /><path
         id="path24"
         style="fill:#100f0d;fill-opacity:1;fill-rule:nonzero;stroke:none"
         d="m 119.449,136.172 c 0,-0.863 -0.738,-1.602 -1.597,-1.602 l -32.852,0 c -0.8594,0 -1.6016,0.739 -1.6016,1.602 l 0,32.848 c 0,0.902 0.7422,1.601 1.6016,1.601 l 32.852,0 c 0.859,0 1.597,-0.699 1.597,-1.601 l 0,-32.848" /><path
         id="path26"
         style="fill:#100f0d;fill-opacity:1;fill-rule:nonzero;stroke:none"
         d="m 161.988,136.398 c 0,-0.66 -0.508,-1.168 -1.168,-1.168 l -23.871,0 c -0.66,0 -1.168,0.508 -1.168,1.168 l 0,23.911 c 0,0.621 0.508,1.171 1.168,1.171 l 23.871,0 c 0.66,0 1.168,-0.55 1.168,-1.171 l 0,-23.911" /><path
         id="path28"
         style="fill:#100f0d;fill-opacity:1;fill-rule:nonzero;stroke:none"
         d="m 111.02,98.2813 c 0,-0.6719 -0.551,-1.1719 -1.18,-1.1719 l -23.8986,0 c -0.6328,0 -1.1719,0.5 -1.1719,1.1719 l 0,23.8987 c 0,0.629 0.5391,1.14 1.1719,1.14 l 23.8986,0 c 0.629,0 1.18,-0.511 1.18,-1.14 l 0,-23.8987" /><path
         id="path30"
         style="fill:#100f0d;fill-opacity:1;fill-rule:nonzero;stroke:none"
         d="m 158.711,92.0703 c 0,-0.7812 -0.66,-1.4101 -1.441,-1.4101 l -29.258,0 c -0.782,0 -1.41,0.6289 -1.41,1.4101 l 0,29.2577 c 0,0.781 0.628,1.442 1.41,1.442 l 29.258,0 c 0.781,0 1.441,-0.661 1.441,-1.442 l 0,-29.2577" /><path
         id="path32"
         style="fill:#100f0d;fill-opacity:1;fill-rule:nonzero;stroke:none"
         d="m 91.25,206.09 -45.8594,0 0,-102.461 21.4102,0 0,81.051 24.4492,0 0,21.41" /><path
         id="path34"
         style="fill:#100f0d;fill-opacity:1;fill-rule:nonzero;stroke:none"
         d="m 121.84,206.09 0,-21.41 56.601,0 0,-61.168 21.399,0 0,82.578 -78,0" /><path
         id="path36"
         style="fill:#100f0d;fill-opacity:1;fill-rule:nonzero;stroke:none"
         d="m 178.441,92.9297 0,-19.8906 -133.0504,0 0,-21.3985 154.4494,0 0,41.2891 -21.399,0" /><path
         id="path38"
         style="fill:#ffffff;fill-opacity:1;fill-rule:nonzero;stroke:none"
         d="m 116.25,139.371 c 0,-0.859 -0.738,-1.601 -1.602,-1.601 l -32.8472,0 c -0.8594,0 -1.6016,0.742 -1.6016,1.601 l 0,32.848 c 0,0.902 0.7422,1.609 1.6016,1.609 l 32.8472,0 c 0.864,0 1.602,-0.707 1.602,-1.609 l 0,-32.848" /><path
         id="path40"
         style="fill:#ffffff;fill-opacity:1;fill-rule:nonzero;stroke:none"
         d="m 158.789,139.609 c 0,-0.668 -0.508,-1.179 -1.129,-1.179 l -23.949,0 c -0.621,0 -1.133,0.511 -1.133,1.179 l 0,23.903 c 0,0.629 0.512,1.136 1.133,1.136 l 23.949,0 c 0.621,0 1.129,-0.507 1.129,-1.136 l 0,-23.903" /><path
         id="path42"
         style="fill:#ffffff;fill-opacity:1;fill-rule:nonzero;stroke:none"
         d="m 107.809,101.441 c 0,-0.621 -0.539,-1.132 -1.168,-1.132 l -23.9105,0 c -0.6602,0 -1.1719,0.511 -1.1719,1.132 l 0,23.911 c 0,0.66 0.5117,1.168 1.1719,1.168 l 23.9105,0 c 0.629,0 1.168,-0.508 1.168,-1.168 l 0,-23.911" /><path
         id="path44"
         style="fill:#ffffff;fill-opacity:1;fill-rule:nonzero;stroke:none"
         d="m 155.512,95.2695 c 0,-0.7812 -0.672,-1.4101 -1.453,-1.4101 l -29.258,0 c -0.781,0 -1.403,0.6289 -1.403,1.4101 l 0,29.2615 c 0,0.778 0.622,1.438 1.403,1.438 l 29.258,0 c 0.781,0 1.453,-0.66 1.453,-1.438 l 0,-29.2615" /><path
         id="path46"
         style="fill:#100f0d;fill-opacity:1;fill-rule:nonzero;stroke:none"
         d="m 143.281,112.539 c 0,-0.98 -0.82,-1.758 -1.801,-1.758 l -36.21,0 c -0.969,0 -1.75,0.778 -1.75,1.758 l 0,36.211 c 0,0.969 0.781,1.762 1.75,1.762 l 36.21,0 c 0.981,0 1.801,-0.793 1.801,-1.762 l 0,-36.211" /><path
         id="path48"
         style="fill:#ffffff;fill-opacity:1;fill-rule:nonzero;stroke:none"
         d="m 140.078,115.738 c 0,-0.976 -0.816,-1.758 -1.797,-1.758 l -36.211,0 c -0.98,0 -1.761,0.782 -1.761,1.758 l 0,36.211 c 0,0.981 0.781,1.762 1.761,1.762 l 36.211,0 c 0.981,0 1.797,-0.781 1.797,-1.762 l 0,-36.211" /><path
         id="path50"
         style="fill:none;stroke:#100f0d;stroke-width:2.5;stroke-linecap:butt;stroke-linejoin:miter;stroke-miterlimit:4;stroke-dasharray:none;stroke-opacity:1"
         d="m 140.078,115.738 c 0,-0.972 -0.816,-1.761 -1.797,-1.761 l -36.211,0 c -0.98,0 -1.761,0.789 -1.761,1.761 l 0,36.207 c 0,0.981 0.781,1.762 1.761,1.762 l 36.211,0 c 0.981,0 1.797,-0.781 1.797,-1.762 l 0,-36.207 z" /><path
         id="path52"
         style="fill:#ffffff;fill-opacity:1;fill-rule:nonzero;stroke:none"
         d="m 88.0508,209.289 -45.8594,0 0,-102.461 21.3984,0 0,81.063 24.461,0 0,21.398" /><path
         id="path54"
         style="fill:#ffffff;fill-opacity:1;fill-rule:nonzero;stroke:none"
         d="m 118.629,209.289 0,-21.398 56.601,0 0,-61.172 21.411,0 0,82.57 -78.012,0" /><path
         id="path56"
         style="fill:#ffffff;fill-opacity:1;fill-rule:nonzero;stroke:none"
         d="m 175.23,96.1289 0,-19.8789 -133.0386,0 0,-21.4102 154.4496,0 0,41.2891 -21.411,0" /></g></g></svg>