<?xml version="1.0" encoding="UTF-8" standalone="no"?>
<svg
   xmlns:dc="http://purl.org/dc/elements/1.1/"
   xmlns:cc="http://creativecommons.org/ns#"
   xmlns:rdf="http://www.w3.org/1999/02/22-rdf-syntax-ns#"
   xmlns:svg="http://www.w3.org/2000/svg"
   xmlns="http://www.w3.org/2000/svg"
   viewBox="0 0 68.75 27.5"
   height="27.5"
   width="68.75"
   xml:space="preserve"
   version="1.1"
   id="svg2"><metadata
     id="metadata8"><rdf:RDF><cc:Work
         rdf:about=""><dc:format>image/svg+xml</dc:format><dc:type
           rdf:resource="http://purl.org/dc/dcmitype/StillImage" /></cc:Work></rdf:RDF></metadata><defs
     id="defs6" /><g
     transform="matrix(1.25,0,0,-1.25,0,27.5)"
     id="g10"><g
       transform="scale(0.1,0.1)"
       id="g12"><path
         id="path14"
         style="fill:#0881c1;fill-opacity:1;fill-rule:nonzero;stroke:none"
         d="m 6.55859,18.4492 417.23,0 0,77.0703 -417.23,0 0,-77.0703 z" /><path
         id="path16"
         style="fill:#0881c1;fill-opacity:1;fill-rule:nonzero;stroke:none"
         d="m 14.8008,22.0117 398.828,0 0,62.8477 -398.828,0 0,-62.8477 z" /><path
         id="path18"
         style="fill:none;stroke:#ffffff;stroke-width:4;stroke-linecap:butt;stroke-linejoin:miter;stroke-miterlimit:4;stroke-dasharray:none;stroke-opacity:1"
         d="m 14.8008,22.0117 398.828,0 0,62.8516 -398.828,0 0,-62.8516 z" /><path
         id="path20"
         style="fill:#0881c1;fill-opacity:1;fill-rule:nonzero;stroke:none"
         d="M 5.62109,94.9414 149.922,211.891 l 393.316,0 -119.797,-116.9496 -417.81991,0" /><path
         id="path22"
         style="fill:none;stroke:#ffffff;stroke-width:4;stroke-linecap:butt;stroke-linejoin:miter;stroke-miterlimit:4;stroke-dasharray:none;stroke-opacity:1"
         d="M 5.62109,94.9414 149.922,211.891 l 393.316,0 -119.797,-116.9496 -417.81991,0 z" /><path
         id="path24"
         style="fill:#0881c1;fill-opacity:1;fill-rule:nonzero;stroke:none"
         d="M 423.59,14.8203 542.891,133.648 542.969,211.66 423.59,95.0898 l 0,-80.2695" /><path
         id="path26"
         style="fill:none;stroke:#ffffff;stroke-width:4;stroke-linecap:butt;stroke-linejoin:miter;stroke-miterlimit:4;stroke-dasharray:none;stroke-opacity:1"
         d="m 423.59,14.8242 119.301,118.8278 0.078,78 -119.379,-116.5582 0,-80.2696 z" /><path
         id="path28"
         style="fill:#ffffff;fill-opacity:1;fill-rule:nonzero;stroke:none"
         d="m 31.8398,44.4688 24.7305,0 0,18.75 -24.7305,0 0,-18.75 z" /><path
         id="path30"
         style="fill:#ffffff;fill-opacity:1;fill-rule:nonzero;stroke:none"
         d="m 191.84,44.4688 24.7305,0 0,18.75 -24.7305,0 0,-18.75 z" /><path
         id="path32"
         style="fill:#ffffff;fill-opacity:1;fill-rule:nonzero;stroke:none"
         d="m 378.52,44.4688 24.6914,0 0,18.75 -24.6914,0 0,-18.75 z" /><path
         id="path34"
         style="fill:#0881c1;fill-opacity:1;fill-rule:nonzero;stroke:none"
         d="m 319.262,85.7617 c 14.797,-6.4531 24.609,-17.582 24.609,-30.2422 0,-19.9179 -24.262,-36.0507 -54.18,-36.0507 -29.89,0 -54.14,16.1328 -54.14,36.0507 0,19.9297 24.25,36.0586 54.14,36.0586 10.899,0 21.047,-2.1484 29.571,-5.8164" /><path
         id="path36"
         style="fill:none;stroke:#ffffff;stroke-width:3.73099995;stroke-linecap:butt;stroke-linejoin:miter;stroke-miterlimit:4;stroke-dasharray:none;stroke-opacity:1"
         d="m 319.262,85.7617 c 14.797,-6.4492 24.609,-17.5781 24.609,-30.2383 0,-19.9218 -24.262,-36.0507 -54.18,-36.0507 -29.89,0 -54.14,16.1289 -54.14,36.0507 0,19.918 24.25,36.0586 54.14,36.0586 10.899,0 21.047,-2.1484 29.571,-5.8203" /><path
         id="path38"
         style="fill:#ffffff;fill-opacity:1;fill-rule:nonzero;stroke:none"
         d="m 330.738,55.7188 c 0,-14.9571 -18.199,-27.0704 -40.617,-27.0704 -22.422,0 -40.633,12.1133 -40.633,27.0704 0,14.9218 18.211,27.0312 40.633,27.0312 22.418,0 40.617,-12.1094 40.617,-27.0312" /><path
         id="path40"
         style="fill:none;stroke:#ffffff;stroke-width:2.7980001;stroke-linecap:butt;stroke-linejoin:miter;stroke-miterlimit:4;stroke-dasharray:none;stroke-opacity:1"
         d="m 330.738,55.7227 c 0,-14.961 -18.199,-27.0704 -40.617,-27.0704 -22.422,0 -40.633,12.1094 -40.633,27.0704 0,14.9179 18.211,27.0312 40.633,27.0312 22.418,0 40.617,-12.1133 40.617,-27.0312 z" /></g></g></svg>