<?xml version="1.0" encoding="UTF-8" standalone="no"?>
<svg
   xmlns:dc="http://purl.org/dc/elements/1.1/"
   xmlns:cc="http://creativecommons.org/ns#"
   xmlns:rdf="http://www.w3.org/1999/02/22-rdf-syntax-ns#"
   xmlns:svg="http://www.w3.org/2000/svg"
   xmlns="http://www.w3.org/2000/svg"
   viewBox="0 0 68.512497 25.799999"
   height="25.799999"
   width="68.512497"
   xml:space="preserve"
   version="1.1"
   id="svg2"><metadata
     id="metadata8"><rdf:RDF><cc:Work
         rdf:about=""><dc:format>image/svg+xml</dc:format><dc:type
           rdf:resource="http://purl.org/dc/dcmitype/StillImage" /></cc:Work></rdf:RDF></metadata><defs
     id="defs6" /><g
     transform="matrix(1.25,0,0,-1.25,0,25.8)"
     id="g10"><g
       transform="scale(0.1,0.1)"
       id="g12"><path
         id="path14"
         style="fill:#0881c1;fill-opacity:1;fill-rule:nonzero;stroke:none"
         d="m 6.57813,8.46875 417.195,0 0,77.0586 -417.195,0 0,-77.0586 z" /><path
         id="path16"
         style="fill:#0881c1;fill-opacity:1;fill-rule:nonzero;stroke:none"
         d="m 14.8086,11.9922 398.809,0 0,62.8789 -398.809,0 0,-62.8789 z" /><path
         id="path18"
         style="fill:none;stroke:#ffffff;stroke-width:4;stroke-linecap:butt;stroke-linejoin:miter;stroke-miterlimit:4;stroke-dasharray:none;stroke-opacity:1"
         d="m 14.8086,11.9922 398.809,0 0,62.8789 -398.809,0 0,-62.8789 z" /><path
         id="path20"
         style="fill:#0881c1;fill-opacity:1;fill-rule:nonzero;stroke:none"
         d="M 5.64453,84.9414 149.934,201.887 l 393.293,0 -119.786,-116.9456 -417.79647,0" /><path
         id="path22"
         style="fill:none;stroke:#ffffff;stroke-width:4;stroke-linecap:butt;stroke-linejoin:miter;stroke-miterlimit:4;stroke-dasharray:none;stroke-opacity:1"
         d="M 5.64453,84.9414 149.934,201.887 l 393.293,0 -119.786,-116.9456 -417.79647,0 z" /><path
         id="path24"
         style="fill:#0881c1;fill-opacity:1;fill-rule:nonzero;stroke:none"
         d="m 423.578,4.81641 119.317,118.82859 0.078,78.027 -119.395,-116.5626 0,-80.29299" /><path
         id="path26"
         style="fill:none;stroke:#ffffff;stroke-width:4;stroke-linecap:butt;stroke-linejoin:miter;stroke-miterlimit:4;stroke-dasharray:none;stroke-opacity:1"
         d="m 423.578,4.81641 119.317,118.82859 0.078,78.027 -119.395,-116.5626 0,-80.29299 z" /><path
         id="path28"
         style="fill:#ffffff;fill-opacity:1;fill-rule:nonzero;stroke:none"
         d="m 31.8516,34.4727 24.6953,0 0,18.75 -24.6953,0 0,-18.75 z" /><path
         id="path30"
         style="fill:#ffffff;fill-opacity:1;fill-rule:nonzero;stroke:none"
         d="m 191.852,34.4727 24.6953,0 0,18.75 -24.6953,0 0,-18.75 z" /><path
         id="path32"
         style="fill:#ffffff;fill-opacity:1;fill-rule:nonzero;stroke:none"
         d="m 378.52,34.4727 24.6875,0 0,18.75 -24.6875,0 0,-18.75 z" /><path
         id="path34"
         style="fill:#0881c1;fill-opacity:1;fill-rule:nonzero;stroke:none"
         d="m 319.242,75.7539 c 14.824,-6.4375 24.629,-17.5703 24.629,-30.2266 0,-19.914 -24.258,-36.04292 -54.168,-36.04292 -29.914,0 -54.172,16.12892 -54.172,36.04292 0,19.9141 24.258,36.043 54.172,36.043 10.899,0 21.043,-2.1367 29.539,-5.8164" /><path
         id="path36"
         style="fill:none;stroke:#ffffff;stroke-width:3.73099995;stroke-linecap:butt;stroke-linejoin:miter;stroke-miterlimit:4;stroke-dasharray:none;stroke-opacity:1"
         d="m 319.242,75.7539 c 14.824,-6.4375 24.629,-17.5703 24.629,-30.2266 0,-19.914 -24.258,-36.04292 -54.168,-36.04292 -29.914,0 -54.172,16.12892 -54.172,36.04292 0,19.9141 24.258,36.043 54.172,36.043 10.899,0 21.043,-2.1367 29.539,-5.8164" /><path
         id="path38"
         style="fill:#ffffff;fill-opacity:1;fill-rule:nonzero;stroke:none"
         d="m 330.746,45.7031 c 0,-14.9297 -18.191,-27.0429 -40.625,-27.0429 -22.441,0 -40.625,12.1132 -40.625,27.0429 0,14.9336 18.184,27.0313 40.625,27.0313 22.434,0 40.625,-12.0977 40.625,-27.0313" /><path
         id="path40"
         style="fill:none;stroke:#ffffff;stroke-width:2.7980001;stroke-linecap:butt;stroke-linejoin:miter;stroke-miterlimit:4;stroke-dasharray:none;stroke-opacity:1"
         d="m 330.746,45.7031 c 0,-14.9297 -18.191,-27.0429 -40.625,-27.0429 -22.441,0 -40.625,12.1132 -40.625,27.0429 0,14.9336 18.184,27.0313 40.625,27.0313 22.434,0 40.625,-12.0977 40.625,-27.0313 z" /></g></g></svg>