<?xml version="1.0" encoding="UTF-8" standalone="no"?>
<svg
   xmlns:dc="http://purl.org/dc/elements/1.1/"
   xmlns:cc="http://creativecommons.org/ns#"
   xmlns:rdf="http://www.w3.org/1999/02/22-rdf-syntax-ns#"
   xmlns:svg="http://www.w3.org/2000/svg"
   xmlns="http://www.w3.org/2000/svg"
   viewBox="0 0 35.362499 35.737499"
   height="35.737499"
   width="35.362499"
   xml:space="preserve"
   version="1.1"
   id="svg2"><metadata
     id="metadata8"><rdf:RDF><cc:Work
         rdf:about=""><dc:format>image/svg+xml</dc:format><dc:type
           rdf:resource="http://purl.org/dc/dcmitype/StillImage" /></cc:Work></rdf:RDF></metadata><defs
     id="defs6"><clipPath
       id="clipPath18"
       clipPathUnits="userSpaceOnUse"><path
         id="path20"
         d="M 0,0 0,286 280,286 280,0 0,0 Z" /></clipPath></defs><g
     transform="matrix(1.25,0,0,-1.25,0,35.7375)"
     id="g10"><g
       transform="scale(0.1,0.1)"
       id="g12"><g
         id="g14"><g
           clip-path="url(#clipPath18)"
           id="g16"><path
             id="path22"
             style="fill:#026c9b;fill-opacity:1;fill-rule:nonzero;stroke:none"
             d="m 5.32813,4.57813 226.801,0 0,230.738 -226.801,0 0,-230.738 z" /><path
             id="path24"
             style="fill:none;stroke:#ffffff;stroke-width:4;stroke-linecap:butt;stroke-linejoin:miter;stroke-miterlimit:4;stroke-dasharray:none;stroke-opacity:1"
             d="m 5.32813,4.57813 226.801,0 0,230.738 -226.801,0 0,-230.738 z" /><path
             id="path26"
             style="fill:#026c9b;fill-opacity:1;fill-rule:nonzero;stroke:none"
             d="m 278.008,281.27 -46.543,-45.875 -226.4025,0 49.0352,45.875 223.9103,0" /><path
             id="path28"
             style="fill:none;stroke:#ffffff;stroke-width:4;stroke-linecap:butt;stroke-linejoin:miter;stroke-miterlimit:4;stroke-dasharray:none;stroke-opacity:1"
             d="m 278.008,281.27 -46.543,-45.875 -226.4025,0 49.0352,45.875 223.9103,0 z" /><path
             id="path30"
             style="fill:#026c9b;fill-opacity:1;fill-rule:nonzero;stroke:none"
             d="m 278.281,60.1758 0,220.9372 -45.937,-45.937 0,-229.68772 45.937,54.68752" /><path
             id="path32"
             style="fill:none;stroke:#ffffff;stroke-width:4;stroke-linecap:butt;stroke-linejoin:miter;stroke-miterlimit:4;stroke-dasharray:none;stroke-opacity:1"
             d="m 278.281,60.1758 0,220.9372 -45.937,-45.937 0,-229.68772 45.937,54.68752 z" /><path
             id="path34"
             style="fill:#ffffff;fill-opacity:1;fill-rule:nonzero;stroke:none"
             d="m 119.234,167.004 c 25.391,0 45.961,-20.582 45.961,-45.965 0,-25.3867 -20.57,-45.9648 -45.961,-45.9648 -25.3824,0 -45.9567,20.5781 -45.9567,45.9648 0,25.383 20.5743,45.965 45.9567,45.965" /><path
             id="path36"
             style="fill:#ffffff;fill-opacity:1;fill-rule:nonzero;stroke:none"
             d="m 119.234,167.004 0,46.535" /><path
             id="path38"
             style="fill:none;stroke:#ffffff;stroke-width:4;stroke-linecap:butt;stroke-linejoin:miter;stroke-miterlimit:4;stroke-dasharray:none;stroke-opacity:1"
             d="m 119.234,167.004 0,46.535" /><path
             id="path40"
             style="fill:#ffffff;fill-opacity:1;fill-rule:nonzero;stroke:none"
             d="m 119.859,224.949 16.629,-33.797 -33.25,0 16.621,33.797" /><path
             id="path42"
             style="fill:none;stroke:#ffffff;stroke-width:4;stroke-linecap:butt;stroke-linejoin:miter;stroke-miterlimit:4;stroke-dasharray:none;stroke-opacity:1"
             d="m 119.859,224.949 16.629,-33.797 -33.25,0 16.621,33.797 z" /><path
             id="path44"
             style="fill:#ffffff;fill-opacity:1;fill-rule:nonzero;stroke:none"
             d="M 86.7344,153.539 53.8242,186.445" /><path
             id="path46"
             style="fill:none;stroke:#ffffff;stroke-width:4;stroke-linecap:butt;stroke-linejoin:miter;stroke-miterlimit:4;stroke-dasharray:none;stroke-opacity:1"
             d="M 86.7344,153.539 53.8242,186.445" /><path
             id="path48"
             style="fill:#ffffff;fill-opacity:1;fill-rule:nonzero;stroke:none"
             d="M 46.207,194.957 81.8516,182.816 58.3438,159.301 46.207,194.957" /><path
             id="path50"
             style="fill:none;stroke:#ffffff;stroke-width:4;stroke-linecap:butt;stroke-linejoin:miter;stroke-miterlimit:4;stroke-dasharray:none;stroke-opacity:1"
             d="M 46.207,194.957 81.8516,182.816 58.3438,159.301 46.207,194.957 Z" /><path
             id="path52"
             style="fill:#ffffff;fill-opacity:1;fill-rule:nonzero;stroke:none"
             d="m 73.2773,121.039 -46.5429,0" /><path
             id="path54"
             style="fill:none;stroke:#ffffff;stroke-width:4;stroke-linecap:butt;stroke-linejoin:miter;stroke-miterlimit:4;stroke-dasharray:none;stroke-opacity:1"
             d="m 73.2773,121.039 -46.5429,0" /><path
             id="path56"
             style="fill:#ffffff;fill-opacity:1;fill-rule:nonzero;stroke:none"
             d="m 15.3281,121.664 33.7969,16.629 0,-33.254 -33.7969,16.625" /><path
             id="path58"
             style="fill:none;stroke:#ffffff;stroke-width:4;stroke-linecap:butt;stroke-linejoin:miter;stroke-miterlimit:4;stroke-dasharray:none;stroke-opacity:1"
             d="m 15.3281,121.664 33.7969,16.629 0,-33.254 -33.7969,16.625 z" /><path
             id="path60"
             style="fill:#ffffff;fill-opacity:1;fill-rule:nonzero;stroke:none"
             d="M 86.7344,88.5391 53.8242,55.6289" /><path
             id="path62"
             style="fill:none;stroke:#ffffff;stroke-width:4;stroke-linecap:butt;stroke-linejoin:miter;stroke-miterlimit:4;stroke-dasharray:none;stroke-opacity:1"
             d="M 86.7344,88.5391 53.8242,55.6289" /><path
             id="path64"
             style="fill:#ffffff;fill-opacity:1;fill-rule:nonzero;stroke:none"
             d="M 45.3164,48.0039 57.457,83.6563 80.9727,60.1445 45.3164,48.0039" /><path
             id="path66"
             style="fill:none;stroke:#ffffff;stroke-width:4;stroke-linecap:butt;stroke-linejoin:miter;stroke-miterlimit:4;stroke-dasharray:none;stroke-opacity:1"
             d="M 45.3164,48.0039 57.457,83.6563 80.9727,60.1445 45.3164,48.0039 Z" /><path
             id="path68"
             style="fill:#ffffff;fill-opacity:1;fill-rule:nonzero;stroke:none"
             d="m 119.234,75.0742 0,-46.5351" /><path
             id="path70"
             style="fill:none;stroke:#ffffff;stroke-width:4;stroke-linecap:butt;stroke-linejoin:miter;stroke-miterlimit:4;stroke-dasharray:none;stroke-opacity:1"
             d="m 119.234,75.0742 0,-46.5351" /><path
             id="path72"
             style="fill:#ffffff;fill-opacity:1;fill-rule:nonzero;stroke:none"
             d="m 118.609,17.125 -16.621,33.7969 33.25,0 -16.629,-33.7969" /><path
             id="path74"
             style="fill:none;stroke:#ffffff;stroke-width:4;stroke-linecap:butt;stroke-linejoin:miter;stroke-miterlimit:4;stroke-dasharray:none;stroke-opacity:1"
             d="m 118.609,17.125 -16.621,33.7969 33.25,0 -16.629,-33.7969 z" /><path
             id="path76"
             style="fill:#ffffff;fill-opacity:1;fill-rule:nonzero;stroke:none"
             d="M 151.734,88.5391 184.648,55.6289" /><path
             id="path78"
             style="fill:none;stroke:#ffffff;stroke-width:4;stroke-linecap:butt;stroke-linejoin:miter;stroke-miterlimit:4;stroke-dasharray:none;stroke-opacity:1"
             d="M 151.734,88.5391 184.648,55.6289" /><path
             id="path80"
             style="fill:#ffffff;fill-opacity:1;fill-rule:nonzero;stroke:none"
             d="m 192.266,47.1172 -35.649,12.1445 23.52,23.5156 12.129,-35.6601" /><path
             id="path82"
             style="fill:none;stroke:#ffffff;stroke-width:4;stroke-linecap:butt;stroke-linejoin:miter;stroke-miterlimit:4;stroke-dasharray:none;stroke-opacity:1"
             d="m 192.266,47.1172 -35.649,12.1445 23.52,23.5156 12.129,-35.6601 z" /><path
             id="path84"
             style="fill:#ffffff;fill-opacity:1;fill-rule:nonzero;stroke:none"
             d="m 165.195,121.039 46.543,0" /><path
             id="path86"
             style="fill:none;stroke:#ffffff;stroke-width:4;stroke-linecap:butt;stroke-linejoin:miter;stroke-miterlimit:4;stroke-dasharray:none;stroke-opacity:1"
             d="m 165.195,121.039 46.543,0" /><path
             id="path88"
             style="fill:#ffffff;fill-opacity:1;fill-rule:nonzero;stroke:none"
             d="m 223.145,120.414 -33.79,-16.625 0,33.254 33.79,-16.629" /><path
             id="path90"
             style="fill:none;stroke:#ffffff;stroke-width:4;stroke-linecap:butt;stroke-linejoin:miter;stroke-miterlimit:4;stroke-dasharray:none;stroke-opacity:1"
             d="m 223.145,120.414 -33.79,-16.625 0,33.254 33.79,-16.629 z" /><path
             id="path92"
             style="fill:#ffffff;fill-opacity:1;fill-rule:nonzero;stroke:none"
             d="m 151.734,153.539 32.914,32.906" /><path
             id="path94"
             style="fill:none;stroke:#ffffff;stroke-width:4;stroke-linecap:butt;stroke-linejoin:miter;stroke-miterlimit:4;stroke-dasharray:none;stroke-opacity:1"
             d="m 151.734,153.539 32.914,32.906" /><path
             id="path96"
             style="fill:#ffffff;fill-opacity:1;fill-rule:nonzero;stroke:none"
             d="m 193.164,194.078 -12.148,-35.66 -23.52,23.512 35.668,12.148" /><path
             id="path98"
             style="fill:none;stroke:#ffffff;stroke-width:4;stroke-linecap:butt;stroke-linejoin:miter;stroke-miterlimit:4;stroke-dasharray:none;stroke-opacity:1"
             d="m 193.164,194.078 -12.148,-35.66 -23.52,23.512 35.668,12.148 z" /><g
             transform="scale(10,10)"
             id="g100"><text
               id="text102"
               style="font-variant:normal;font-weight:normal;font-size:7px;font-family:Helvetica;-inkscape-font-specification:Helvetica;writing-mode:lr-tb;fill:#026c9b;fill-opacity:1;fill-rule:nonzero;stroke:none"
               transform="matrix(1,0,0,-1,8.67344,9.72891)"><tspan
                 id="tspan104"
                 y="0"
                 x="0 4.6690001">Si</tspan></text>
</g></g></g></g></g></svg>