<?xml version="1.0" encoding="UTF-8" standalone="no"?>
<svg
   xmlns:dc="http://purl.org/dc/elements/1.1/"
   xmlns:cc="http://creativecommons.org/ns#"
   xmlns:rdf="http://www.w3.org/1999/02/22-rdf-syntax-ns#"
   xmlns:svg="http://www.w3.org/2000/svg"
   xmlns="http://www.w3.org/2000/svg"
   viewBox="0 0 27.5 43.75"
   height="43.75"
   width="27.5"
   xml:space="preserve"
   version="1.1"
   id="svg2"><metadata
     id="metadata8"><rdf:RDF><cc:Work
         rdf:about=""><dc:format>image/svg+xml</dc:format><dc:type
           rdf:resource="http://purl.org/dc/dcmitype/StillImage" /></cc:Work></rdf:RDF></metadata><defs
     id="defs6" /><g
     transform="matrix(1.25,0,0,-1.25,0,43.75)"
     id="g10"><g
       transform="scale(0.1,0.1)"
       id="g12"><path
         id="path14"
         style="fill:#026c9b;fill-opacity:1;fill-rule:nonzero;stroke:none"
         d="m 4.83984,14.8398 161.051,0 0,281.02 -161.051,0 0,-281.02 z" /><path
         id="path16"
         style="fill:none;stroke:#ffffff;stroke-width:4;stroke-linecap:butt;stroke-linejoin:miter;stroke-miterlimit:4;stroke-dasharray:none;stroke-opacity:1"
         d="m 165.898,295.863 -161.05816,0 0,-281.0232 161.05816,0" /><path
         id="path18"
         style="fill:#026c9b;fill-opacity:1;fill-rule:nonzero;stroke:none"
         d="m 165.898,14.8398 49.141,49.1407 0,281.0195 -161.0585,0 -49.14066,-49.141 161.05816,0 0,-281.0192" /><path
         id="path20"
         style="fill:none;stroke:#ffffff;stroke-width:4;stroke-linecap:butt;stroke-linejoin:miter;stroke-miterlimit:4;stroke-dasharray:none;stroke-opacity:1"
         d="m 165.898,14.8398 49.141,49.1407 0,281.0195 -161.0585,0 -49.14066,-49.137 161.05816,0 0,-281.0232 z" /><path
         id="path22"
         style="fill:#026c9b;fill-opacity:1;fill-rule:nonzero;stroke:none"
         d="M 165.898,295.859 215.039,345" /><path
         id="path24"
         style="fill:none;stroke:#ffffff;stroke-width:4;stroke-linecap:butt;stroke-linejoin:miter;stroke-miterlimit:4;stroke-dasharray:none;stroke-opacity:1"
         d="M 165.898,295.863 215.039,345" /><path
         id="path26"
         style="fill:none;stroke:#ffffff;stroke-width:4;stroke-linecap:butt;stroke-linejoin:miter;stroke-miterlimit:4;stroke-dasharray:none;stroke-opacity:1"
         d="m 7.30078,200.582 157.18722,0" /><path
         id="path28"
         style="fill:none;stroke:#ffffff;stroke-width:4;stroke-linecap:butt;stroke-linejoin:miter;stroke-miterlimit:4;stroke-dasharray:none;stroke-opacity:1"
         d="m 7.30078,51.9531 157.18722,0" /><path
         id="path30"
         style="fill:none;stroke:#ffffff;stroke-width:4;stroke-linecap:butt;stroke-linejoin:miter;stroke-miterlimit:4;stroke-dasharray:none;stroke-opacity:1"
         d="m 49.4883,257.852 43.75,0" /><path
         id="path32"
         style="fill:#026c9b;fill-opacity:1;fill-rule:nonzero;stroke:none"
         d="m 31.9883,242.852 77.5,0 0,31.25 -77.5,0 0,-31.25 z" /><path
         id="path34"
         style="fill:none;stroke:#ffffff;stroke-width:4;stroke-linecap:butt;stroke-linejoin:miter;stroke-miterlimit:4;stroke-dasharray:none;stroke-opacity:1"
         d="m 31.9883,242.852 77.5,0 0,31.25 -77.5,0 0,-31.25 z" /><g
         transform="scale(10,10)"
         id="g36"><text
           id="text38"
           style="font-variant:normal;font-weight:bold;font-size:8px;font-family:Helvetica;-inkscape-font-specification:Helvetica-Bold;writing-mode:lr-tb;fill:#ffffff;fill-opacity:1;fill-rule:nonzero;stroke:none"
           transform="matrix(1,0,0,-1,8.825,7.39688)"><tspan
             id="tspan40"
             y="0"
             x="0 2.224">IP</tspan></text>
</g><path
         id="path42"
         style="fill:#026c9b;fill-opacity:1;fill-rule:nonzero;stroke:none"
         d="m 147.699,169.801 -107.6599,0 c -12.2696,0 -22.2305,-9.961 -22.2305,-22.223 0,-12.269 10.9414,-21.328 23.2109,-21.328 l 18,0 c 12.2696,0 21.25,-11.172 21.25,-23.441 0,-12.2582 -9.9609,-22.1879 -22.1797,-22.1879 l -32.9687,0" /><path
         id="path44"
         style="fill:none;stroke:#ffffff;stroke-width:11.55000019;stroke-linecap:butt;stroke-linejoin:miter;stroke-miterlimit:4;stroke-dasharray:none;stroke-opacity:1"
         d="m 147.699,169.801 -107.6599,0 c -12.2696,0 -22.2305,-9.961 -22.2305,-22.219 0,-12.269 10.9414,-21.332 23.2109,-21.332 l 18,0 c 12.2696,0 21.25,-11.168 21.25,-23.437 0,-12.27 -9.9609,-22.1919 -22.1797,-22.1919 l -32.9687,0" /><path
         id="path46"
         style="fill:#ffffff;fill-opacity:1;fill-rule:nonzero;stroke:none"
         d="m 143.551,183.711 0,-27.891 16.84,13.399 -16.84,14.492" /><path
         id="path48"
         style="fill:none;stroke:#ffffff;stroke-width:1.10599995;stroke-linecap:butt;stroke-linejoin:miter;stroke-miterlimit:4;stroke-dasharray:none;stroke-opacity:1"
         d="m 143.551,183.711 0,-27.891 16.84,13.403 -16.84,14.488 z" /><path
         id="path50"
         style="fill:#ffffff;fill-opacity:1;fill-rule:nonzero;stroke:none"
         d="m 25.7383,66.8398 0,27.8907 L 8.94922,81.3711 25.7383,66.8398" /><path
         id="path52"
         style="fill:none;stroke:#ffffff;stroke-width:1.10599995;stroke-linecap:butt;stroke-linejoin:miter;stroke-miterlimit:4;stroke-dasharray:none;stroke-opacity:1"
         d="m 25.7383,66.832 0,27.8907 L 8.94922,81.3711 25.7383,66.832 Z" /></g></g></svg>