<?xml version="1.0" encoding="UTF-8" standalone="no"?>
<svg
   xmlns:dc="http://purl.org/dc/elements/1.1/"
   xmlns:cc="http://creativecommons.org/ns#"
   xmlns:rdf="http://www.w3.org/1999/02/22-rdf-syntax-ns#"
   xmlns:svg="http://www.w3.org/2000/svg"
   xmlns="http://www.w3.org/2000/svg"
   viewBox="0 0 27.125 42.125"
   height="42.125"
   width="27.125"
   xml:space="preserve"
   version="1.1"
   id="svg2"><metadata
     id="metadata8"><rdf:RDF><cc:Work
         rdf:about=""><dc:format>image/svg+xml</dc:format><dc:type
           rdf:resource="http://purl.org/dc/dcmitype/StillImage" /></cc:Work></rdf:RDF></metadata><defs
     id="defs6" /><g
     transform="matrix(1.25,0,0,-1.25,0,42.125)"
     id="g10"><g
       transform="scale(0.1,0.1)"
       id="g12"><path
         id="path14"
         style="fill:#026c9b;fill-opacity:1;fill-rule:nonzero;stroke:none"
         d="m 4.82813,4.82422 161.055,0 0,281.023 -161.055,0 0,-281.023 z" /><path
         id="path16"
         style="fill:none;stroke:#ffffff;stroke-width:4;stroke-linecap:butt;stroke-linejoin:miter;stroke-miterlimit:4;stroke-dasharray:none;stroke-opacity:1"
         d="m 165.883,285.848 -161.05487,0 0,-281.02378 161.05487,0" /><path
         id="path18"
         style="fill:#026c9b;fill-opacity:1;fill-rule:nonzero;stroke:none"
         d="m 165.883,4.82422 49.152,49.14058 0,281.0232 -161.0662,0 -49.14067,-49.14 161.05487,0 0,-281.02378" /><path
         id="path20"
         style="fill:none;stroke:#ffffff;stroke-width:4;stroke-linecap:butt;stroke-linejoin:miter;stroke-miterlimit:4;stroke-dasharray:none;stroke-opacity:1"
         d="m 165.883,4.82422 49.152,49.14058 0,281.0232 -161.0662,0 -49.14067,-49.14 161.05487,0 0,-281.02378 z" /><path
         id="path22"
         style="fill:#026c9b;fill-opacity:1;fill-rule:nonzero;stroke:none"
         d="m 165.883,285.848 49.152,49.14" /><path
         id="path24"
         style="fill:none;stroke:#ffffff;stroke-width:4;stroke-linecap:butt;stroke-linejoin:miter;stroke-miterlimit:4;stroke-dasharray:none;stroke-opacity:1"
         d="m 165.883,285.848 49.152,49.14" /><path
         id="path26"
         style="fill:#026c9b;fill-opacity:1;fill-rule:nonzero;stroke:none"
         d="m 7.32031,190.586 157.17569,0" /><path
         id="path28"
         style="fill:none;stroke:#ffffff;stroke-width:4;stroke-linecap:butt;stroke-linejoin:miter;stroke-miterlimit:4;stroke-dasharray:none;stroke-opacity:1"
         d="m 7.32031,190.586 157.17569,0" /><path
         id="path30"
         style="fill:#026c9b;fill-opacity:1;fill-rule:nonzero;stroke:none"
         d="m 7.32031,41.9531 157.17569,0" /><path
         id="path32"
         style="fill:none;stroke:#ffffff;stroke-width:4;stroke-linecap:butt;stroke-linejoin:miter;stroke-miterlimit:4;stroke-dasharray:none;stroke-opacity:1"
         d="m 7.32031,41.9531 157.17569,0" /><path
         id="path34"
         style="fill:#026c9b;fill-opacity:1;fill-rule:nonzero;stroke:none"
         d="m 49.4961,247.852 43.75,0" /><path
         id="path36"
         style="fill:none;stroke:#ffffff;stroke-width:4;stroke-linecap:butt;stroke-linejoin:miter;stroke-miterlimit:4;stroke-dasharray:none;stroke-opacity:1"
         d="m 49.4961,247.852 43.75,0" /><path
         id="path38"
         style="fill:#026c9b;fill-opacity:1;fill-rule:nonzero;stroke:none"
         d="m 31.9961,232.852 77.5,0 0,31.2578 -77.5,0 0,-31.2578 z" /><path
         id="path40"
         style="fill:none;stroke:#ffffff;stroke-width:4;stroke-linecap:butt;stroke-linejoin:miter;stroke-miterlimit:4;stroke-dasharray:none;stroke-opacity:1"
         d="m 31.9961,232.852 77.5,0 0,31.2578 -77.5,0 0,-31.2578 z" /><g
         transform="scale(10,10)"
         id="g42"><text
           id="text44"
           style="font-variant:normal;font-weight:bold;font-size:8px;font-family:Helvetica;-inkscape-font-specification:Helvetica-Bold;writing-mode:lr-tb;fill:#ffffff;fill-opacity:1;fill-rule:nonzero;stroke:none"
           transform="matrix(1,0,0,-1,8.825,6.39648)"><tspan
             id="tspan46"
             y="0"
             x="0 2.224">IP</tspan></text>
</g><path
         id="path48"
         style="fill:#026c9b;fill-opacity:1;fill-rule:nonzero;stroke:none"
         d="m 147.699,159.785 -107.6638,0 c -12.2657,0 -22.2071,-9.941 -22.2071,-22.207 0,-12.265 10.918,-21.348 23.1719,-21.348 l 18.0391,0 c 12.2539,0 21.2187,-11.152 21.2187,-23.4175 0,-12.2656 -9.9297,-22.1875 -22.1875,-22.1875 l -32.9375,0" /><path
         id="path50"
         style="fill:none;stroke:#ffffff;stroke-width:11.55000019;stroke-linecap:butt;stroke-linejoin:miter;stroke-miterlimit:4;stroke-dasharray:none;stroke-opacity:1"
         d="m 147.699,159.785 -107.6638,0 c -12.2657,0 -22.2071,-9.941 -22.2071,-22.207 0,-12.265 10.918,-21.348 23.1719,-21.348 l 18.0391,0 c 12.2539,0 21.2187,-11.152 21.2187,-23.4175 0,-12.2656 -9.9297,-22.1875 -22.1875,-22.1875 l -32.9375,0" /><path
         id="path52"
         style="fill:#ffffff;fill-opacity:1;fill-rule:nonzero;stroke:none"
         d="m 143.57,173.711 0,-27.91 16.805,13.398 -16.805,14.512" /><path
         id="path54"
         style="fill:none;stroke:#ffffff;stroke-width:1.10599995;stroke-linecap:butt;stroke-linejoin:miter;stroke-miterlimit:4;stroke-dasharray:none;stroke-opacity:1"
         d="m 143.57,173.711 0,-27.91 16.805,13.398 -16.805,14.512 z" /><path
         id="path56"
         style="fill:#ffffff;fill-opacity:1;fill-rule:nonzero;stroke:none"
         d="m 25.7578,56.8359 0,27.8907 L 8.94922,71.3477 25.7578,56.8359" /><path
         id="path58"
         style="fill:none;stroke:#ffffff;stroke-width:1.10599995;stroke-linecap:butt;stroke-linejoin:miter;stroke-miterlimit:4;stroke-dasharray:none;stroke-opacity:1"
         d="m 25.7578,56.8359 0,27.8907 L 8.94922,71.3477 25.7578,56.8359 Z" /></g></g></svg>