<?xml version="1.0" encoding="UTF-8" standalone="no"?>
<svg
   xmlns:dc="http://purl.org/dc/elements/1.1/"
   xmlns:cc="http://creativecommons.org/ns#"
   xmlns:rdf="http://www.w3.org/1999/02/22-rdf-syntax-ns#"
   xmlns:svg="http://www.w3.org/2000/svg"
   xmlns="http://www.w3.org/2000/svg"
   viewBox="0 0 33.1875 51.474998"
   height="51.474998"
   width="33.1875"
   xml:space="preserve"
   version="1.1"
   id="svg2"><metadata
     id="metadata8"><rdf:RDF><cc:Work
         rdf:about=""><dc:format>image/svg+xml</dc:format><dc:type
           rdf:resource="http://purl.org/dc/dcmitype/StillImage" /></cc:Work></rdf:RDF></metadata><defs
     id="defs6"><clipPath
       id="clipPath18"
       clipPathUnits="userSpaceOnUse"><path
         id="path20"
         d="M 0,1 0,412 266,412 266,1 0,1 Z" /></clipPath></defs><g
     transform="matrix(1.25,0,0,-1.25,0,51.475)"
     id="g10"><g
       transform="scale(0.1,0.1)"
       id="g12"><g
         id="g14"><g
           clip-path="url(#clipPath18)"
           id="g16"><path
             id="path22"
             style="fill:#036998;fill-opacity:1;fill-rule:nonzero;stroke:none"
             d="M 70.918,363.809 3.65234,365.371 0,362.246 l 19.2969,-58.398 71.4336,3.652 3.1367,3.641 -22.9492,52.668" /><path
             id="path24"
             style="fill:#036998;fill-opacity:1;fill-rule:nonzero;stroke:none"
             d="m 159.043,411.777 25.391,-20.839 -3.047,-8.137 2.031,-11.18 4.062,-11.191 24.747,-10.703 6.25,13.035 -6.778,5.215 1.563,11.992 -15.117,29.199 -39.102,2.609" /><path
             id="path26"
             style="fill:#036998;fill-opacity:1;fill-rule:nonzero;stroke:none"
             d="m 161.055,401.102 -8.274,-12.266 -2.09,-12.52 -7.293,17.735 17.657,7.051" /><path
             id="path28"
             style="fill:#036998;fill-opacity:1;fill-rule:nonzero;stroke:none"
             d="m 154.348,394.57 3.132,-4.172 3.641,-0.515 -1.558,3.125 2.078,4.168 2.089,-4.168 2.09,-4.172 4.688,-2.09 0,4.172 2.09,3.652 2.09,-4.172 4.687,-2.605 0.52,3.652 5.73,0.516 -20.852,17.207 -10.945,-0.516 -3.652,-3.652 4.172,-10.43" /><path
             id="path30"
             style="fill:#036998;fill-opacity:1;fill-rule:nonzero;stroke:none"
             d="m 157.48,353.906 13.028,0" /><path
             id="path32"
             style="fill:#036998;fill-opacity:1;fill-rule:nonzero;stroke:none"
             d="m 151.211,378.406 0.527,-5.215 0,-14.597 -7.304,0.515 -3.653,4.18 3.133,5.734 1.047,5.215 4.172,8.867 2.078,-4.699" /><path
             id="path34"
             style="fill:#036998;fill-opacity:1;fill-rule:nonzero;stroke:none"
             d="m 95.4297,305.41 -73.0078,-5.215 -3.125,-4.172 1.0469,-8.339 33.3671,-14.598 73.0001,8.34 1.043,9.383 -32.3243,14.601" /><path
             id="path36"
             style="fill:#036998;fill-opacity:1;fill-rule:nonzero;stroke:none"
             d="m 85,317.402 -57.3633,-3.125 -15.6445,43.797 55.8008,0 L 85,317.402" /><path
             id="path38"
             style="fill:#036998;fill-opacity:1;fill-rule:nonzero;stroke:none"
             d="m 83.957,275.168 -6.7812,11.473 -8.8672,7.293 -0.5156,-3.641 -13.0352,5.73 1.5625,-4.168 -8.3437,3.125 3.125,-5.214 -4.6953,0.527 4.6953,-7.824 5.7343,-5.211 16.6914,-8.352 10.4297,6.262" /><path
             id="path40"
             style="fill:#036998;fill-opacity:1;fill-rule:nonzero;stroke:none"
             d="M 100.293,203.23 71.582,197.723 64.5508,187.344 65.1172,169.465 81.4336,99.3359 81.1445,71.9922 70.5859,55.5742 94.043,55.957 l 11.426,8.5743 5.078,1.5234 0.43,13.9336 -7.95,13.6523 -2.441,11.8944 1.582,32.891 -2.7344,19.621 0.8594,45.183" /><path
             id="path42"
             style="fill:#036998;fill-opacity:1;fill-rule:nonzero;stroke:none"
             d="m 108.906,85.0781 -5.039,-0.4023 -7.4998,-7.5781 -11.0156,-13.0547 -9.543,-1.9336 3.5195,5.4804 -9.2226,-9.2109 -14.7149,-6.7969 1.0157,-2.8242 15.5273,-3.2695 13.3906,-0.4219 8.4844,3.6445 5.9375,11.5313 4.4999,-16.8828 1.672,-0.0508 7.363,20.9766 -0.156,12.8515 -4.219,7.9414" /><path
             id="path44"
             style="fill:#036998;fill-opacity:1;fill-rule:nonzero;stroke:none"
             d="m 137.188,204.871 -34.786,-5.613 -4.8122,-11.004 -2.5117,-8.859 25.7419,-70.129 -0.293,-27.3441 -10.566,-16.4141 23.457,0.3906 11.437,8.5743 5.067,1.5117 0.43,13.9453 -7.942,13.6443 -2.437,11.903 1.59,32.882 -2.747,19.618 -1.628,36.894" /><path
             id="path46"
             style="fill:#036998;fill-opacity:1;fill-rule:nonzero;stroke:none"
             d="m 148.281,95.0195 -5.039,-0.4023 -7.48,-7.5859 -11.016,-13.0469 -9.551,-1.9336 3.516,5.4687 -9.219,-9.1992 -14.7264,-6.7969 1.0352,-2.8242 15.5272,-3.2773 13.379,-0.4219 8.484,3.6406 5.95,11.543 4.492,-16.8828 1.68,-0.0586 7.343,20.9844 -0.156,12.8437 -4.219,7.9492" /><path
             id="path48"
             style="fill:#036998;fill-opacity:1;fill-rule:nonzero;stroke:none"
             d="m 192.402,343.992 -26.062,-8.34 -26.067,-2.089 -20.859,-7.293 -5.215,-8.352 6.25,-33.367 -8.34,-12.508 -6.25,0 -3.132,-5.219 -12.5122,9.387 -10.4296,0 -10.4297,-8.34 4.1718,-14.601 29.1997,-19.813 21.902,-3.137 10.43,8.352 -11.473,-30.246 -23.9962,-6.258 -9.375,-21.895 9.375,-26.074 50.0582,-9.386 29.2,-3.125 25.039,3.125 13.554,10.429 4.161,12.512 1.054,10.43 6.25,7.304 -8.34,23.985 -2.089,25.019 7.304,-1.035 11.465,5.215 11.477,77.168 -7.297,12.508 -23.985,10.429 -25.039,5.215" /><path
             id="path50"
             style="fill:#036998;fill-opacity:1;fill-rule:nonzero;stroke:none"
             d="m 152.988,396.004 11.668,4.172 23.332,-7.5 5,-35 -2.5,-15.832 -27.5,-6.668 -12.5,14.168 -2.5,20.832 5,25.828" /><path
             id="path52"
             style="fill:#036998;fill-opacity:1;fill-rule:nonzero;stroke:none"
             d="m 222.441,176.492 -9.375,5 -9.375,-10 -28.75,-4.375 -28.75,11.25 -22.605,30.059 -23.9962,-6.258 -9.375,-21.895 9.375,-26.074 69.1012,-12.082 35.196,2.696 13.554,10.429 5,21.25" /><path
             id="path54"
             style="fill:#036998;fill-opacity:1;fill-rule:nonzero;stroke:none"
             d="m 151.738,359.637 6.778,-13.555 4.179,-3.652 4.16,-2.09 1.563,-10.43 -9.902,-5.215 -4.168,-1.562 -14.602,-1.563 -7.305,2.61 -3.652,6.777 4.695,-1.047 3.137,2.61 -5.215,2.089 -3.125,3.653 0,4.687 4.16,-2.609 6.27,1.562 -2.617,2.09 -1.035,3.653 6.25,0.519 1.562,4.168 -1.035,3.652 4.687,7.825 5.215,-4.172" /><path
             id="path56"
             style="fill:#036998;fill-opacity:1;fill-rule:nonzero;stroke:none"
             d="m 189.316,358.816 0.52,-4.687 -2.082,-2.606 -3.652,0 2.082,-2.609 3.652,-0.527 -0.52,-3.641 -3.132,-2.09 -4.7,0.516 2.09,-3.641 4.688,-1.574 4.179,2.09 -0.527,-4.695 -2.078,-4.688 -4.699,-1.562 4.179,-2.61 6.25,1.047 -1.562,-4.699 0,-5.215 3.652,1.563 3.653,4.171 2.597,-3.125 5.215,-2.609 7.832,-2.605 8.86,-1.563 6.777,3.652 1.57,4.168 -4.707,-0.515 -4.687,1.562 3.652,1.563 2.605,3.125 2.61,5.73 -3.125,3.653 -1.563,-3.653 -3.132,-2.078 -0.52,4.688 1.035,4.179 -3.652,-1.047 -4.688,1.047 1.563,4.688 2.09,3.652 -0.528,5.215 -2.082,-2.09 -3.133,-1.047 -4.687,1.047 1.562,3.133 0.528,4.687 -2.617,2.09 -1.036,-2.605 -3.125,1.043 0,5.734 -10.429,0 -6.778,-6.262" /><path
             id="path58"
             style="fill:#036998;fill-opacity:1;fill-rule:nonzero;stroke:none"
             d="m 190.566,322.742 -6.875,-8.125 -9.375,9.375 c 0,0 -4.375,-11.875 -7.5,-8.125 l -1.25,7.5 -5.625,-4.375 c 0,0 -13.125,-2.5 -10,0 3.125,2.5 3.125,7.5 3.125,7.5 l 18.75,20 25.625,-1.25 -6.875,-22.5" /><path
             id="path60"
             style="fill:#036998;fill-opacity:1;fill-rule:nonzero;stroke:none"
             d="M 172.051,135.254 170.879,90.2734 109.922,76.5508 c -9.531,2.1797 -12.4025,-9.7149 -12.4025,-9.7149 l -0.332,-8.3984 4.8045,-0.1836 -0.312,-7.793 c 4.465,-8.5859 12.597,-0.5 12.597,-0.5 l 0.371,9.5899 49.082,17.1953 -43.808,-32.2148 C 112.207,31.6328 118.328,19.375 118.328,19.375 111.887,8.22266 122.363,0 122.363,0 c 14.114,-7.75391 14.2,9.64844 14.2,9.64844 2.207,10.12496 -7.989,10.52736 -7.989,10.52736 l -2.761,6.1133 53.328,45.0507 62.109,-41.8867 2.715,-7.3164 c -7.168,-14.12107 4.64,-19.39451 4.64,-19.39451 16.668,-3.660159 10.665,11.59371 10.665,11.59371 0.925,8.3672 -5.665,8.625 -5.665,8.625 l -4.582,5.586 c 0,0 -4.277,-1.6328 0.684,2.3789 4.973,4.0039 1.816,15.539 1.816,15.539 l -57.675,32.6954 41.777,-10.8399 8.184,-5.7226 c -0.547,-13.7891 9.218,-9.9688 9.218,-9.9688 10.188,-0.4023 4.618,10.625 4.618,10.625 -3.485,3.1328 -8.204,5.125 -8.204,5.125 l -4.226,8.625 -23.938,6.8438 -36.043,6.707 1.043,39.9333" /><path
             id="path62"
             style="fill:#036998;fill-opacity:1;fill-rule:nonzero;stroke:none"
             d="m 157.656,123.191 -80.4685,27.571 c -5.3516,5.496 1.5234,15.215 1.5234,15.215 L 158.105,140.82" /><path
             id="path64"
             style="fill:#036998;fill-opacity:1;fill-rule:nonzero;stroke:none"
             d="m 215.293,142.793 -55.801,-21.008 0.606,48.012 c 41.394,106.793 48,106.199 48,106.199 13.797,7.793 17.39,8.399 17.39,8.399 19.805,-1.204 26.856,5.945 26.856,5.945 6.601,5.402 13.203,-2.402 13.203,-2.402 L 215.293,142.793" /></g></g></g></g></svg>