<svg xmlns="http://www.w3.org/2000/svg" viewBox="0 0 33.75 53.75" height="53.75" width="33.75"><defs><clipPath id="a"><path d="M0 10v411h267V10H0z"/></clipPath></defs><g clip-path="url(#a)" fill="#036998" transform="matrix(.13 0 0 -.13 0 53.75)"><path d="M70.941 372.809L3.63 374.367 0 371.246l19.3-58.398 71.438 3.668 3.133 3.64-22.93 52.653M159.059 420.777l25.39-20.82-3.039-8.16 2.031-11.18 4.02-11.172 24.769-10.699 6.25 13.012-6.8 5.23 1.601 11.989-15.121 29.179-39.101 2.621M161.051 410.117l-8.281-12.269-2.071-12.539-7.301 17.738 17.653 7.07"/><path d="M154.34 403.586l3.121-4.18 3.668-.508-1.559 3.129 2.071 4.141 2.07-4.141 2.109-4.179 4.692-2.11v4.18l2.109 3.668 2.07-4.18 4.688-2.609.5 3.672 5.742.508-20.851 17.179-10.942-.5-3.629-3.64 4.141-10.43M151.211 387.418l.508-5.23v-14.571l-7.27.5-3.668 4.18 3.129 5.711 1.051 5.23 4.18 8.867 2.07-4.687M95.43 314.406l-73.008-5.187-3.121-4.184 1.05-8.359 33.36-14.571 73.008 8.321 1.051 9.371-32.34 14.609M85 326.398l-57.379-3.121-15.633 43.789h55.82L85 326.398"/><path d="M83.95 284.176l-6.759 11.48-8.87 7.27-.512-3.629-13.04 5.738 1.56-4.18-8.36 3.122 3.12-5.192-4.679.512 4.68-7.82 5.75-5.231 16.68-8.32 10.43 6.25M100.309 212.227l-28.75-5.508-6.989-10.352.551-17.89 16.328-70.122-.32-27.347-10.54-16.442 23.47.391 11.41 8.59 5.082 1.531.429 13.899-7.968 13.679-2.422 11.871 1.601 32.891-2.742 19.648.86 45.161"/><path d="M108.91 94.098l-5.039-.43-7.5-7.582-11.02-13.04-9.53-1.917 3.519 5.469-9.219-9.22-14.73-6.8 1.02-2.812 15.538-3.278 13.36-.43 8.52 3.669 5.94 11.53 4.493-16.878 1.679-.082 7.34 20.98-.16 12.852-4.211 7.969"/><path d="M137.191 213.867l-34.812-5.59-4.8-11.019-2.5-8.86 25.741-70.121-.308-27.34-10.551-16.41 23.48.391 11.399 8.559 5.082 1.52.43 13.94-7.93 13.641-2.461 11.91 1.598 32.848-2.731 19.652-1.637 36.879"/><path d="M148.281 104.016l-5.043-.387-7.457-7.582-11.051-13.04-9.531-1.96 3.512 5.469-9.223-9.18-14.719-6.79 1.051-2.858 15.508-3.282 13.363-.39 8.508 3.64 5.942 11.52 4.488-16.88 1.68-.038 7.351 20.98-.16 12.848-4.219 7.93M192.379 353.008l-26.051-8.36-26.058-2.07-20.86-7.312-5.23-8.36 6.25-33.359-8.321-12.5h-6.25l-3.129-5.231-12.53 9.411H79.8l-10.421-8.36 4.14-14.609 29.211-19.801 21.918-3.129 10.43 8.36-11.488-30.27-24.02-6.25-9.37-21.91 9.37-26.063 50.078-9.367 29.223-3.133 25.039 3.133 13.512 10.43 4.18 12.5 1.058 10.43 6.25 7.3-8.359 23.989-2.071 25.031 7.301-1.051 11.449 5.231 11.481 77.148-7.262 12.5-24.027 10.43-25.043 5.242"/><path d="M152.969 404.996l11.679 4.18 23.321-7.5 5-35-2.5-15.821-27.5-6.679-12.5 14.179-2.5 20.821 5 25.82M222.422 185.508l-9.371 5-9.379-10-28.75-4.379-28.75 11.25-22.582 30.039-24.02-6.25-9.37-21.91 9.37-26.063 69.102-12.066 35.238 2.699 13.512 10.43 5 21.25"/><path d="M151.719 368.629l6.801-13.551 4.179-3.64 4.141-2.11 1.601-10.43-9.921-5.191-4.18-1.559-14.61-1.57-7.308 2.617-3.633 6.762 4.691-1.059 3.122 2.618-5.192 2.07-3.129 3.672v4.687l4.141-2.617 6.289 1.57-2.621 2.11-1.012 3.629 6.25.551 1.524 4.14-1.012 3.668 4.68 7.813 5.199-4.18M189.301 367.809l.539-4.692-2.07-2.609h-3.668l2.07-2.582 3.668-.547-.539-3.633-3.129-2.07-4.692.512 2.071-3.641 4.73-1.602 4.141 2.114-.512-4.692-2.07-4.679-4.68-1.571 4.141-2.609 6.25 1.051-1.531-4.731v-5.191l3.64 1.558 3.668 4.141 2.582-3.117 5.192-2.582 7.847-2.621 8.871-1.559 6.758 3.629 1.563 4.18-4.692-.508-4.679 1.57 3.671 1.559 2.579 3.121 2.609 5.75-3.117 3.629-1.563-3.629-3.129-2.07-.511 4.679 1.019 4.18-3.629-1.051-4.73 1.051 1.601 4.691 2.071 3.629-.551 5.238-2.07-2.109-3.122-1.058-4.687 1.058 1.559 3.121.55 4.692-2.621 2.109-1.051-2.621-3.128 1.058v5.743h-10.43l-6.789-6.289"/><path d="M190.551 331.758l-6.879-8.129-9.371 9.379s-4.379-11.879-7.5-8.129l-1.25 7.5-5.629-4.371s-13.121-2.5-10 0c3.129 2.5 3.129 7.5 3.129 7.5l18.75 20 25.621-1.25-6.871-22.5M172.07 144.258l-1.172-44.961-60.976-13.75c-9.531 2.18-12.422-9.691-12.422-9.691l-.309-8.399 4.797-.2-.308-7.812c4.449-8.547 12.582-.468 12.582-.468l.386 9.57 49.063 17.191-43.789-32.191c-7.731-12.93-1.602-25.149-1.602-25.149-6.441-11.171 4.02-19.382 4.02-19.382 14.14-7.77 14.219 9.652 14.219 9.652 2.23 10.117-8.008 10.508-8.008 10.508l-2.731 6.133 53.321 45.039 62.109-41.871 2.73-7.348c-7.179-14.102 4.61-19.371 4.61-19.371 16.68-3.68 10.672 11.598 10.672 11.598.937 8.363-5.672 8.59-5.672 8.59l-4.57 5.59s-4.29-1.598.671 2.382c5 4.02 1.829 15.55 1.829 15.55l-57.649 32.688 41.75-10.82 8.207-5.738c-.547-13.79 9.184-9.961 9.184-9.961 10.187-.39 4.648 10.62 4.648 10.62-3.519 3.13-8.211 5.122-8.211 5.122l-4.219 8.629-23.941 6.84-36.059 6.718 1.059 39.922M157.66 132.188l-80.469 27.57c-5.351 5.508 1.52 15.238 1.52 15.238l79.379-25.16"/><path d="M215.309 151.797l-55.821-21.02.633 48.008c41.359 106.793 47.969 106.211 47.969 106.211 13.82 7.813 17.379 8.402 17.379 8.402 19.84-1.21 26.871 5.93 26.871 5.93 6.609 5.43 13.211-2.383 13.211-2.383l-50.242-145.148"/></g></svg>