<?xml version="1.0" encoding="UTF-8" standalone="no"?>
<svg
   xmlns:dc="http://purl.org/dc/elements/1.1/"
   xmlns:cc="http://creativecommons.org/ns#"
   xmlns:rdf="http://www.w3.org/1999/02/22-rdf-syntax-ns#"
   xmlns:svg="http://www.w3.org/2000/svg"
   xmlns="http://www.w3.org/2000/svg"
   viewBox="0 0 33.75 53.75"
   height="53.75"
   width="33.75"
   xml:space="preserve"
   version="1.1"
   id="svg2"><metadata
     id="metadata8"><rdf:RDF><cc:Work
         rdf:about=""><dc:format>image/svg+xml</dc:format><dc:type
           rdf:resource="http://purl.org/dc/dcmitype/StillImage" /></cc:Work></rdf:RDF></metadata><defs
     id="defs6"><clipPath
       id="clipPath18"
       clipPathUnits="userSpaceOnUse"><path
         id="path20"
         d="M 0,10 0,421 267,421 267,10 0,10 Z" /></clipPath></defs><g
     transform="matrix(1.25,0,0,-1.25,0,53.75)"
     id="g10"><g
       transform="scale(0.1,0.1)"
       id="g12"><g
         id="g14"><g
           clip-path="url(#clipPath18)"
           id="g16"><path
             id="path22"
             style="fill:#036998;fill-opacity:1;fill-rule:nonzero;stroke:none"
             d="M 70.9414,372.809 3.62891,374.367 0,371.246 l 19.3008,-58.398 71.4375,3.668 3.1328,3.64 -22.9297,52.653" /><path
             id="path24"
             style="fill:#036998;fill-opacity:1;fill-rule:nonzero;stroke:none"
             d="m 159.059,420.777 25.39,-20.82 -3.039,-8.16 2.031,-11.18 4.02,-11.172 24.769,-10.699 6.25,13.012 -6.8,5.23 1.601,11.989 -15.121,29.179 -39.101,2.621" /><path
             id="path26"
             style="fill:#036998;fill-opacity:1;fill-rule:nonzero;stroke:none"
             d="m 161.051,410.117 -8.281,-12.269 -2.071,-12.539 -7.301,17.738 17.653,7.07" /><path
             id="path28"
             style="fill:#036998;fill-opacity:1;fill-rule:nonzero;stroke:none"
             d="m 154.34,403.586 3.121,-4.18 3.668,-0.508 -1.559,3.129 2.071,4.141 2.07,-4.141 2.109,-4.179 4.692,-2.11 0,4.18 2.109,3.668 2.07,-4.18 4.688,-2.609 0.5,3.672 5.742,0.508 -20.851,17.179 -10.942,-0.5 -3.629,-3.64 4.141,-10.43" /><path
             id="path30"
             style="fill:#036998;fill-opacity:1;fill-rule:nonzero;stroke:none"
             d="m 151.211,387.418 0.508,-5.23 0,-14.571 -7.27,0.5 -3.668,4.18 3.129,5.711 1.051,5.23 4.18,8.867 2.07,-4.687" /><path
             id="path32"
             style="fill:#036998;fill-opacity:1;fill-rule:nonzero;stroke:none"
             d="m 95.4297,314.406 -73.0078,-5.187 -3.1211,-4.184 1.0508,-8.359 33.3593,-14.571 73.0081,8.321 1.051,9.371 -32.3403,14.609" /><path
             id="path34"
             style="fill:#036998;fill-opacity:1;fill-rule:nonzero;stroke:none"
             d="m 85,326.398 -57.3789,-3.121 -15.6328,43.789 55.8203,0 L 85,326.398" /><path
             id="path36"
             style="fill:#036998;fill-opacity:1;fill-rule:nonzero;stroke:none"
             d="m 83.9492,284.176 -6.7578,11.48 -8.8711,7.27 -0.5117,-3.629 -13.0391,5.738 1.5586,-4.18 -8.3593,3.122 3.121,-5.192 -4.6796,0.512 4.6796,-7.82 5.75,-5.231 16.6797,-8.32 10.4297,6.25" /><path
             id="path38"
             style="fill:#036998;fill-opacity:1;fill-rule:nonzero;stroke:none"
             d="m 100.309,212.227 -28.7504,-5.508 -6.9883,-10.352 0.5508,-17.89 16.3281,-70.122 -0.3203,-27.3472 -10.5391,-16.4414 23.4688,0.3906 11.4104,8.5899 5.082,1.5312 0.429,13.8985 -7.968,13.6794 -2.422,11.871 1.601,32.891 -2.7418,19.648 0.8598,45.161" /><path
             id="path40"
             style="fill:#036998;fill-opacity:1;fill-rule:nonzero;stroke:none"
             d="m 108.91,94.0977 -5.039,-0.4297 -7.4999,-7.5821 -11.0195,-13.039 -9.5313,-1.918 3.5195,5.4688 -9.2187,-9.2188 -14.7305,-6.8008 1.0196,-2.8125 15.539,-3.2773 13.3594,-0.4297 8.5195,3.668 5.9414,11.5312 4.4925,-16.8789 1.679,-0.082 7.34,20.9804 -0.16,12.8516 -4.211,7.9688" /><path
             id="path42"
             style="fill:#036998;fill-opacity:1;fill-rule:nonzero;stroke:none"
             d="m 137.191,213.867 -34.812,-5.59 -4.8009,-11.019 -2.5,-8.86 25.7419,-70.121 -0.308,-27.3395 -10.551,-16.4102 23.48,0.3907 11.399,8.5586 5.082,1.5195 0.43,13.9414 -7.93,13.6405 -2.461,11.91 1.598,32.848 -2.731,19.652 -1.637,36.879" /><path
             id="path44"
             style="fill:#036998;fill-opacity:1;fill-rule:nonzero;stroke:none"
             d="m 148.281,104.016 -5.043,-0.387 -7.457,-7.5821 -11.051,-13.0391 -9.531,-1.9609 3.512,5.4687 -9.223,-9.1797 -14.7185,-6.789 1.0508,-2.8594 15.5077,-3.2812 13.363,-0.3907 8.508,3.6407 5.942,11.5195 4.488,-16.8789 1.68,-0.0391 7.351,20.9805 -0.16,12.8476 -4.219,7.9301" /><path
             id="path46"
             style="fill:#036998;fill-opacity:1;fill-rule:nonzero;stroke:none"
             d="m 192.379,353.008 -26.051,-8.36 -26.058,-2.07 -20.86,-7.312 -5.23,-8.36 6.25,-33.359 -8.321,-12.5 -6.25,0 -3.129,-5.231 -12.5308,9.411 -10.3984,0 -10.4219,-8.36 4.1406,-14.609 29.2105,-19.801 21.918,-3.129 10.43,8.36 -11.488,-30.27 -24.0197,-6.25 -9.3711,-21.91 9.3711,-26.063 50.0777,-9.367 29.223,-3.133 25.039,3.133 13.512,10.43 4.18,12.5 1.058,10.43 6.25,7.3 -8.359,23.989 -2.071,25.031 7.301,-1.051 11.449,5.231 11.481,77.148 -7.262,12.5 -24.027,10.43 -25.043,5.242" /><path
             id="path48"
             style="fill:#036998;fill-opacity:1;fill-rule:nonzero;stroke:none"
             d="m 152.969,404.996 11.679,4.18 23.321,-7.5 5,-35 -2.5,-15.821 -27.5,-6.679 -12.5,14.179 -2.5,20.821 5,25.82" /><path
             id="path50"
             style="fill:#036998;fill-opacity:1;fill-rule:nonzero;stroke:none"
             d="m 222.422,185.508 -9.371,5 -9.379,-10 -28.75,-4.379 -28.75,11.25 -22.582,30.039 -24.0197,-6.25 -9.3711,-21.91 9.3711,-26.063 69.1017,-12.066 35.238,2.699 13.512,10.43 5,21.25" /><path
             id="path52"
             style="fill:#036998;fill-opacity:1;fill-rule:nonzero;stroke:none"
             d="m 151.719,368.629 6.801,-13.551 4.179,-3.64 4.141,-2.11 1.601,-10.43 -9.921,-5.191 -4.18,-1.559 -14.61,-1.57 -7.308,2.617 -3.633,6.762 4.691,-1.059 3.122,2.618 -5.192,2.07 -3.129,3.672 0,4.687 4.141,-2.617 6.289,1.57 -2.621,2.11 -1.012,3.629 6.25,0.551 1.524,4.14 -1.012,3.668 4.68,7.813 5.199,-4.18" /><path
             id="path54"
             style="fill:#036998;fill-opacity:1;fill-rule:nonzero;stroke:none"
             d="m 189.301,367.809 0.539,-4.692 -2.07,-2.609 -3.668,0 2.07,-2.582 3.668,-0.547 -0.539,-3.633 -3.129,-2.07 -4.692,0.512 2.071,-3.641 4.73,-1.602 4.141,2.114 -0.512,-4.692 -2.07,-4.679 -4.68,-1.571 4.141,-2.609 6.25,1.051 -1.531,-4.731 0,-5.191 3.64,1.558 3.668,4.141 2.582,-3.117 5.192,-2.582 7.847,-2.621 8.871,-1.559 6.758,3.629 1.563,4.18 -4.692,-0.508 -4.679,1.57 3.671,1.559 2.579,3.121 2.609,5.75 -3.117,3.629 -1.563,-3.629 -3.129,-2.07 -0.511,4.679 1.019,4.18 -3.629,-1.051 -4.73,1.051 1.601,4.691 2.071,3.629 -0.551,5.238 -2.07,-2.109 -3.122,-1.058 -4.687,1.058 1.559,3.121 0.55,4.692 -2.621,2.109 -1.051,-2.621 -3.128,1.058 0,5.743 -10.43,0 -6.789,-6.289" /><path
             id="path56"
             style="fill:#036998;fill-opacity:1;fill-rule:nonzero;stroke:none"
             d="m 190.551,331.758 -6.879,-8.129 -9.371,9.379 c 0,0 -4.379,-11.879 -7.5,-8.129 l -1.25,7.5 -5.629,-4.371 c 0,0 -13.121,-2.5 -10,0 3.129,2.5 3.129,7.5 3.129,7.5 l 18.75,20 25.621,-1.25 -6.871,-22.5" /><path
             id="path58"
             style="fill:#036998;fill-opacity:1;fill-rule:nonzero;stroke:none"
             d="m 172.07,144.258 -1.172,-44.9611 -60.976,-13.75 C 100.391,87.7266 97.5,75.8555 97.5,75.8555 l -0.3086,-8.3985 4.7966,-0.1992 -0.308,-7.8125 c 4.449,-8.5469 12.582,-0.4687 12.582,-0.4687 l 0.386,9.5703 49.063,17.1914 -43.789,-32.1914 c -7.731,-12.9297 -1.602,-25.1485 -1.602,-25.1485 -6.441,-11.1718 4.02,-19.38277 4.02,-19.38277 14.14,-7.76954 14.219,9.65237 14.219,9.65237 2.23,10.1172 -8.008,10.5078 -8.008,10.5078 l -2.731,6.1328 53.321,45.0391 62.109,-41.8711 2.73,-7.3477 c -7.179,-14.1016 4.61,-19.3711 4.61,-19.3711 16.68,-3.67967 10.672,11.5977 10.672,11.5977 0.937,8.3633 -5.672,8.5898 -5.672,8.5898 l -4.57,5.5899 c 0,0 -4.29,-1.5977 0.671,2.3828 5,4.0195 1.829,15.5508 1.829,15.5508 l -57.649,32.6875 41.75,-10.8204 8.207,-5.7382 c -0.547,-13.7891 9.184,-9.961 9.184,-9.961 10.187,-0.3906 4.648,10.6211 4.648,10.6211 -3.519,3.1289 -8.211,5.1211 -8.211,5.1211 l -4.219,8.6289 -23.941,6.8399 -36.059,6.7187 1.059,39.9216" /><path
             id="path60"
             style="fill:#036998;fill-opacity:1;fill-rule:nonzero;stroke:none"
             d="m 157.66,132.188 -80.4686,27.57 c -5.3516,5.508 1.5195,15.238 1.5195,15.238 l 79.3791,-25.16" /><path
             id="path62"
             style="fill:#036998;fill-opacity:1;fill-rule:nonzero;stroke:none"
             d="m 215.309,151.797 -55.821,-21.02 0.633,48.008 c 41.359,106.793 47.969,106.211 47.969,106.211 13.82,7.813 17.379,8.402 17.379,8.402 19.84,-1.21 26.871,5.93 26.871,5.93 6.609,5.43 13.211,-2.383 13.211,-2.383 L 215.309,151.797" /></g></g></g></g></svg>