<?xml version="1.0" encoding="UTF-8" standalone="no"?>
<svg
   xmlns:dc="http://purl.org/dc/elements/1.1/"
   xmlns:cc="http://creativecommons.org/ns#"
   xmlns:rdf="http://www.w3.org/1999/02/22-rdf-syntax-ns#"
   xmlns:svg="http://www.w3.org/2000/svg"
   xmlns="http://www.w3.org/2000/svg"
   viewBox="0 0 53.75 28.75"
   height="28.75"
   width="53.75"
   xml:space="preserve"
   version="1.1"
   id="svg2"><metadata
     id="metadata8"><rdf:RDF><cc:Work
         rdf:about=""><dc:format>image/svg+xml</dc:format><dc:type
           rdf:resource="http://purl.org/dc/dcmitype/StillImage" /></cc:Work></rdf:RDF></metadata><defs
     id="defs6" /><g
     transform="matrix(1.25,0,0,-1.25,0,28.75)"
     id="g10"><g
       transform="scale(0.1,0.1)"
       id="g12"><path
         id="path14"
         style="fill:#026c9b;fill-opacity:1;fill-rule:nonzero;stroke:none"
         d="m 375.82,121.859 49.692,101.871 -344.1018,0 -77.39067,-101.871 371.80047,0" /><path
         id="path16"
         style="fill:none;stroke:#ffffff;stroke-width:4;stroke-linecap:butt;stroke-linejoin:miter;stroke-miterlimit:4;stroke-dasharray:none;stroke-opacity:1"
         d="m 375.82,121.855 49.692,101.879 -344.1018,0 -77.39067,-101.879 371.80047,0 z" /><path
         id="path18"
         style="fill:#026c9b;fill-opacity:1;fill-rule:nonzero;stroke:none"
         d="m 425.512,131.27 0,92.46 -49.692,-101.871 0,-109.8395 49.692,119.2505" /><path
         id="path20"
         style="fill:none;stroke:#ffffff;stroke-width:4;stroke-linecap:butt;stroke-linejoin:miter;stroke-miterlimit:4;stroke-dasharray:none;stroke-opacity:1"
         d="m 425.512,131.277 0,92.457 -49.692,-101.879 0,-109.8394 49.692,119.2614 z" /><path
         id="path22"
         style="fill:#026c9b;fill-opacity:1;fill-rule:nonzero;stroke:none"
         d="m 375.82,12.0195 0,109.8395 -371.83953,0 0.12109,-109.8395 371.71844,0" /><path
         id="path24"
         style="fill:none;stroke:#ffffff;stroke-width:4;stroke-linecap:butt;stroke-linejoin:miter;stroke-miterlimit:4;stroke-dasharray:none;stroke-opacity:1"
         d="m 375.82,12.0156 0,109.8394 -371.83953,0 0.12109,-109.8394 371.71844,0 z" /><path
         id="path26"
         style="fill:#026c9b;fill-opacity:1;fill-rule:nonzero;stroke:none"
         d="m 43.1992,28.9688 22.5,0 0,22.5 -22.5,0 0,-22.5 z" /><path
         id="path28"
         style="fill:none;stroke:#ffffff;stroke-width:4;stroke-linecap:butt;stroke-linejoin:miter;stroke-miterlimit:4;stroke-dasharray:none;stroke-opacity:1"
         d="m 43.1992,28.9648 22.5,0 0,22.5 -22.5,0 0,-22.5 z" /><path
         id="path30"
         style="fill:#026c9b;fill-opacity:1;fill-rule:nonzero;stroke:none"
         d="m 75.6992,28.9688 22.5,0 0,22.5 -22.5,0 0,-22.5 z" /><path
         id="path32"
         style="fill:none;stroke:#ffffff;stroke-width:4;stroke-linecap:butt;stroke-linejoin:miter;stroke-miterlimit:4;stroke-dasharray:none;stroke-opacity:1"
         d="m 75.6992,28.9648 22.5,0 0,22.5 -22.5,0 0,-22.5 z" /><path
         id="path34"
         style="fill:#026c9b;fill-opacity:1;fill-rule:nonzero;stroke:none"
         d="m 108.199,28.9688 22.5,0 0,22.5 -22.5,0 0,-22.5 z" /><path
         id="path36"
         style="fill:none;stroke:#ffffff;stroke-width:4;stroke-linecap:butt;stroke-linejoin:miter;stroke-miterlimit:4;stroke-dasharray:none;stroke-opacity:1"
         d="m 108.199,28.9648 22.5,0 0,22.5 -22.5,0 0,-22.5 z" /><path
         id="path38"
         style="fill:#026c9b;fill-opacity:1;fill-rule:nonzero;stroke:none"
         d="m 140.699,28.9688 22.5,0 0,22.5 -22.5,0 0,-22.5 z" /><path
         id="path40"
         style="fill:none;stroke:#ffffff;stroke-width:4;stroke-linecap:butt;stroke-linejoin:miter;stroke-miterlimit:4;stroke-dasharray:none;stroke-opacity:1"
         d="m 140.699,28.9648 22.5,0 0,22.5 -22.5,0 0,-22.5 z" /><path
         id="path42"
         style="fill:#026c9b;fill-opacity:1;fill-rule:nonzero;stroke:none"
         d="m 173.199,28.9688 22.5,0 0,22.5 -22.5,0 0,-22.5 z" /><path
         id="path44"
         style="fill:none;stroke:#ffffff;stroke-width:4;stroke-linecap:butt;stroke-linejoin:miter;stroke-miterlimit:4;stroke-dasharray:none;stroke-opacity:1"
         d="m 173.199,28.9648 22.5,0 0,22.5 -22.5,0 0,-22.5 z" /><path
         id="path46"
         style="fill:#026c9b;fill-opacity:1;fill-rule:nonzero;stroke:none"
         d="m 205.699,28.9688 22.5,0 0,22.5 -22.5,0 0,-22.5 z" /><path
         id="path48"
         style="fill:none;stroke:#ffffff;stroke-width:4;stroke-linecap:butt;stroke-linejoin:miter;stroke-miterlimit:4;stroke-dasharray:none;stroke-opacity:1"
         d="m 205.699,28.9648 22.5,0 0,22.5 -22.5,0 0,-22.5 z" /><path
         id="path50"
         style="fill:#026c9b;fill-opacity:1;fill-rule:nonzero;stroke:none"
         d="m 238.199,28.9688 22.5,0 0,22.5 -22.5,0 0,-22.5 z" /><path
         id="path52"
         style="fill:none;stroke:#ffffff;stroke-width:4;stroke-linecap:butt;stroke-linejoin:miter;stroke-miterlimit:4;stroke-dasharray:none;stroke-opacity:1"
         d="m 238.199,28.9648 22.5,0 0,22.5 -22.5,0 0,-22.5 z" /><path
         id="path54"
         style="fill:#026c9b;fill-opacity:1;fill-rule:nonzero;stroke:none"
         d="m 270.699,28.9688 22.5,0 0,22.5 -22.5,0 0,-22.5 z" /><path
         id="path56"
         style="fill:none;stroke:#ffffff;stroke-width:4;stroke-linecap:butt;stroke-linejoin:miter;stroke-miterlimit:4;stroke-dasharray:none;stroke-opacity:1"
         d="m 270.699,28.9648 22.5,0 0,22.5 -22.5,0 0,-22.5 z" /><path
         id="path58"
         style="fill:#026c9b;fill-opacity:1;fill-rule:nonzero;stroke:none"
         d="m 303.199,28.9688 22.5,0 0,22.5 -22.5,0 0,-22.5 z" /><path
         id="path60"
         style="fill:none;stroke:#ffffff;stroke-width:4;stroke-linecap:butt;stroke-linejoin:miter;stroke-miterlimit:4;stroke-dasharray:none;stroke-opacity:1"
         d="m 303.199,28.9648 22.5,0 0,22.5 -22.5,0 0,-22.5 z" /><path
         id="path62"
         style="fill:#ffffff;fill-opacity:1;fill-rule:nonzero;stroke:none"
         d="m 316.328,177.371 11.641,13.859 24.801,-15.742 -49.45,-13.789 10.231,11.172 -98.711,0 3.48,4.5 98.008,0" /><path
         id="path64"
         style="fill:#ffffff;fill-opacity:1;fill-rule:nonzero;stroke:none"
         d="m 224.219,177.441 -2.848,-4.57 -98.012,0 -10.39,-10.031 -26.5588,12.73 53.3908,16.801 -13.551,-14.93 97.969,0" /></g></g></svg>