<?xml version="1.0" encoding="UTF-8" standalone="no"?>
<svg
   xmlns:dc="http://purl.org/dc/elements/1.1/"
   xmlns:cc="http://creativecommons.org/ns#"
   xmlns:rdf="http://www.w3.org/1999/02/22-rdf-syntax-ns#"
   xmlns:svg="http://www.w3.org/2000/svg"
   xmlns="http://www.w3.org/2000/svg"
   viewBox="0 0 53.587502 26.9625"
   height="26.9625"
   width="53.587502"
   xml:space="preserve"
   version="1.1"
   id="svg2"><metadata
     id="metadata8"><rdf:RDF><cc:Work
         rdf:about=""><dc:format>image/svg+xml</dc:format><dc:type
           rdf:resource="http://purl.org/dc/dcmitype/StillImage" /></cc:Work></rdf:RDF></metadata><defs
     id="defs6" /><g
     transform="matrix(1.25,0,0,-1.25,0,26.9625)"
     id="g10"><g
       transform="scale(0.1,0.1)"
       id="g12"><path
         id="path14"
         style="fill:#026c9b;fill-opacity:1;fill-rule:nonzero;stroke:none"
         d="m 375.805,111.863 49.699,101.867 -344.1134,0 -77.36326,-101.867 371.77766,0" /><path
         id="path16"
         style="fill:none;stroke:#ffffff;stroke-width:4;stroke-linecap:butt;stroke-linejoin:miter;stroke-miterlimit:4;stroke-dasharray:none;stroke-opacity:1"
         d="m 375.805,111.863 49.699,101.867 -344.1134,0 -77.36326,-101.867 371.77766,0 z" /><path
         id="path18"
         style="fill:#026c9b;fill-opacity:1;fill-rule:nonzero;stroke:none"
         d="m 425.523,121.277 -0.019,92.453 -49.699,-101.867 0,-109.85909 49.718,119.27309" /><path
         id="path20"
         style="fill:none;stroke:#ffffff;stroke-width:4;stroke-linecap:butt;stroke-linejoin:miter;stroke-miterlimit:4;stroke-dasharray:none;stroke-opacity:1"
         d="m 425.523,121.277 -0.019,92.453 -49.699,-101.867 0,-109.85909 49.718,119.27309 z" /><path
         id="path22"
         style="fill:#026c9b;fill-opacity:1;fill-rule:nonzero;stroke:none"
         d="m 375.805,2.00391 0,109.85909 -371.82453,0 0.13672,-109.85909 371.68781,0" /><path
         id="path24"
         style="fill:none;stroke:#ffffff;stroke-width:4;stroke-linecap:butt;stroke-linejoin:miter;stroke-miterlimit:4;stroke-dasharray:none;stroke-opacity:1"
         d="m 375.805,2.00391 0,109.85909 -371.82453,0 0.13672,-109.85909 371.68781,0 z" /><path
         id="path26"
         style="fill:#026c9b;fill-opacity:1;fill-rule:nonzero;stroke:none"
         d="m 43.1875,18.9648 22.5,0 0,22.5 -22.5,0 0,-22.5 z" /><path
         id="path28"
         style="fill:none;stroke:#ffffff;stroke-width:4;stroke-linecap:butt;stroke-linejoin:miter;stroke-miterlimit:4;stroke-dasharray:none;stroke-opacity:1"
         d="m 43.1875,18.9648 22.5,0 0,22.5 -22.5,0 0,-22.5 z" /><path
         id="path30"
         style="fill:#026c9b;fill-opacity:1;fill-rule:nonzero;stroke:none"
         d="m 75.6875,18.9648 22.5,0 0,22.5 -22.5,0 0,-22.5 z" /><path
         id="path32"
         style="fill:none;stroke:#ffffff;stroke-width:4;stroke-linecap:butt;stroke-linejoin:miter;stroke-miterlimit:4;stroke-dasharray:none;stroke-opacity:1"
         d="m 75.6875,18.9648 22.5,0 0,22.5 -22.5,0 0,-22.5 z" /><path
         id="path34"
         style="fill:#026c9b;fill-opacity:1;fill-rule:nonzero;stroke:none"
         d="m 108.188,18.9648 22.5,0 0,22.5 -22.5,0 0,-22.5 z" /><path
         id="path36"
         style="fill:none;stroke:#ffffff;stroke-width:4;stroke-linecap:butt;stroke-linejoin:miter;stroke-miterlimit:4;stroke-dasharray:none;stroke-opacity:1"
         d="m 108.188,18.9648 22.5,0 0,22.5 -22.5,0 0,-22.5 z" /><path
         id="path38"
         style="fill:#026c9b;fill-opacity:1;fill-rule:nonzero;stroke:none"
         d="m 140.688,18.9648 22.5,0 0,22.5 -22.5,0 0,-22.5 z" /><path
         id="path40"
         style="fill:none;stroke:#ffffff;stroke-width:4;stroke-linecap:butt;stroke-linejoin:miter;stroke-miterlimit:4;stroke-dasharray:none;stroke-opacity:1"
         d="m 140.688,18.9648 22.5,0 0,22.5 -22.5,0 0,-22.5 z" /><path
         id="path42"
         style="fill:#026c9b;fill-opacity:1;fill-rule:nonzero;stroke:none"
         d="m 173.188,18.9648 22.5,0 0,22.5 -22.5,0 0,-22.5 z" /><path
         id="path44"
         style="fill:none;stroke:#ffffff;stroke-width:4;stroke-linecap:butt;stroke-linejoin:miter;stroke-miterlimit:4;stroke-dasharray:none;stroke-opacity:1"
         d="m 173.188,18.9648 22.5,0 0,22.5 -22.5,0 0,-22.5 z" /><path
         id="path46"
         style="fill:#026c9b;fill-opacity:1;fill-rule:nonzero;stroke:none"
         d="m 205.688,18.9648 22.5,0 0,22.5 -22.5,0 0,-22.5 z" /><path
         id="path48"
         style="fill:none;stroke:#ffffff;stroke-width:4;stroke-linecap:butt;stroke-linejoin:miter;stroke-miterlimit:4;stroke-dasharray:none;stroke-opacity:1"
         d="m 205.688,18.9648 22.5,0 0,22.5 -22.5,0 0,-22.5 z" /><path
         id="path50"
         style="fill:#026c9b;fill-opacity:1;fill-rule:nonzero;stroke:none"
         d="m 238.188,18.9648 22.5,0 0,22.5 -22.5,0 0,-22.5 z" /><path
         id="path52"
         style="fill:none;stroke:#ffffff;stroke-width:4;stroke-linecap:butt;stroke-linejoin:miter;stroke-miterlimit:4;stroke-dasharray:none;stroke-opacity:1"
         d="m 238.188,18.9648 22.5,0 0,22.5 -22.5,0 0,-22.5 z" /><path
         id="path54"
         style="fill:#026c9b;fill-opacity:1;fill-rule:nonzero;stroke:none"
         d="m 270.688,18.9648 22.5,0 0,22.5 -22.5,0 0,-22.5 z" /><path
         id="path56"
         style="fill:none;stroke:#ffffff;stroke-width:4;stroke-linecap:butt;stroke-linejoin:miter;stroke-miterlimit:4;stroke-dasharray:none;stroke-opacity:1"
         d="m 270.688,18.9648 22.5,0 0,22.5 -22.5,0 0,-22.5 z" /><path
         id="path58"
         style="fill:#026c9b;fill-opacity:1;fill-rule:nonzero;stroke:none"
         d="m 303.188,18.9648 22.5,0 0,22.5 -22.5,0 0,-22.5 z" /><path
         id="path60"
         style="fill:none;stroke:#ffffff;stroke-width:4;stroke-linecap:butt;stroke-linejoin:miter;stroke-miterlimit:4;stroke-dasharray:none;stroke-opacity:1"
         d="m 303.188,18.9648 22.5,0 0,22.5 -22.5,0 0,-22.5 z" /><path
         id="path62"
         style="fill:#ffffff;fill-opacity:1;fill-rule:nonzero;stroke:none"
         d="m 316.332,167.352 11.641,13.867 24.797,-15.731 -49.465,-13.8 10.254,11.191 -98.731,0 3.496,4.473 98.008,0" /><path
         id="path64"
         style="fill:#ffffff;fill-opacity:1;fill-rule:nonzero;stroke:none"
         d="m 224.234,167.43 -2.871,-4.571 -98,0 -10.398,-10.019 -26.5744,12.734 53.4184,16.797 -13.575,-14.941 98,0" /></g></g></svg>