<svg xmlns="http://www.w3.org/2000/svg" viewBox="0 0 53.75 28.75" height="28.75" width="53.75"><path d="M46.977 13.518L53.19.784H10.176L.502 13.518h46.475" fill="#026c9b"/><path d="M46.977 13.518L53.19.783H10.176L.502 13.518h46.475z" fill="none" stroke="#fff" stroke-width=".5"/><path d="M53.189 12.341V.784l-6.212 12.734v13.73L53.19 12.34" fill="#026c9b"/><path d="M53.189 12.34V.783l-6.212 12.735v13.73L53.19 12.34z" fill="none" stroke="#fff" stroke-width=".5"/><path d="M46.977 27.248v-13.73H.498l.016 13.73h46.464" fill="#026c9b"/><path d="M46.977 27.248v-13.73H.498l.016 13.73h46.464z" fill="none" stroke="#fff" stroke-width=".5"/><path d="M5.4 25.129h2.812v-2.813H5.4v2.813z" fill="#026c9b"/><path d="M5.4 25.13h2.812v-2.813H5.4v2.812z" fill="none" stroke="#fff" stroke-width=".5"/><path d="M9.462 25.129h2.813v-2.813H9.462v2.813z" fill="#026c9b"/><path d="M9.462 25.13h2.813v-2.813H9.462v2.812z" fill="none" stroke="#fff" stroke-width=".5"/><path d="M13.525 25.129h2.812v-2.813h-2.812v2.813z" fill="#026c9b"/><path d="M13.525 25.13h2.812v-2.813h-2.812v2.812z" fill="none" stroke="#fff" stroke-width=".5"/><path d="M17.587 25.129H20.4v-2.813h-2.813v2.813z" fill="#026c9b"/><path d="M17.587 25.13H20.4v-2.813h-2.813v2.812z" fill="none" stroke="#fff" stroke-width=".5"/><path d="M21.65 25.129h2.812v-2.813H21.65v2.813z" fill="#026c9b"/><path d="M21.65 25.13h2.812v-2.813H21.65v2.812z" fill="none" stroke="#fff" stroke-width=".5"/><path d="M25.712 25.129h2.813v-2.813h-2.813v2.813z" fill="#026c9b"/><path d="M25.712 25.13h2.813v-2.813h-2.813v2.812z" fill="none" stroke="#fff" stroke-width=".5"/><path d="M29.775 25.129h2.812v-2.813h-2.812v2.813z" fill="#026c9b"/><path d="M29.775 25.13h2.812v-2.813h-2.812v2.812z" fill="none" stroke="#fff" stroke-width=".5"/><path d="M33.837 25.129h2.813v-2.813h-2.813v2.813z" fill="#026c9b"/><path d="M33.837 25.13h2.813v-2.813h-2.813v2.812z" fill="none" stroke="#fff" stroke-width=".5"/><path d="M37.9 25.129h2.812v-2.813H37.9v2.813z" fill="#026c9b"/><path d="M37.9 25.13h2.812v-2.813H37.9v2.812z" fill="none" stroke="#fff" stroke-width=".5"/><path d="M39.541 6.579l1.455-1.733 3.1 1.968-6.181 1.724 1.279-1.397H26.855l.435-.562h12.251" fill="#fff"/><path d="M28.027 6.57l-.356.571H15.42L14.12 8.395l-3.32-1.591 6.674-2.1-1.694 1.866h12.246" fill="#fff"/></svg>