<?xml version="1.0" encoding="UTF-8" standalone="no"?>
<svg
   xmlns:dc="http://purl.org/dc/elements/1.1/"
   xmlns:cc="http://creativecommons.org/ns#"
   xmlns:rdf="http://www.w3.org/1999/02/22-rdf-syntax-ns#"
   xmlns:svg="http://www.w3.org/2000/svg"
   xmlns="http://www.w3.org/2000/svg"
   viewBox="0 0 34.0625 40.174999"
   height="40.174999"
   width="34.0625"
   xml:space="preserve"
   version="1.1"
   id="svg2"><metadata
     id="metadata8"><rdf:RDF><cc:Work
         rdf:about=""><dc:format>image/svg+xml</dc:format><dc:type
           rdf:resource="http://purl.org/dc/dcmitype/StillImage" /></cc:Work></rdf:RDF></metadata><defs
     id="defs6"><clipPath
       id="clipPath18"
       clipPathUnits="userSpaceOnUse"><path
         id="path20"
         d="M 0,1 0,321 270,321 270,1 0,1 Z" /></clipPath></defs><g
     transform="matrix(1.25,0,0,-1.25,0,40.175)"
     id="g10"><g
       transform="scale(0.1,0.1)"
       id="g12"><g
         id="g14"><g
           clip-path="url(#clipPath18)"
           id="g16"><path
             id="path22"
             style="fill:#ffffff;fill-opacity:1;fill-rule:nonzero;stroke:none"
             d="m 50.6641,84.7734 -7.2266,0 C 7.28516,84.7734 2,117.273 2,117.273 L 2,83.5234 c 0,0 5.28516,-32.5 41.4375,-32.5 l 6.6016,0" /><path
             id="path24"
             style="fill:none;stroke:#026c9b;stroke-width:4;stroke-linecap:butt;stroke-linejoin:miter;stroke-miterlimit:4;stroke-dasharray:none;stroke-opacity:1"
             d="m 50.6641,84.7734 -7.2266,0 C 7.28516,84.7734 2,117.273 2,117.273 L 2,83.5234 c 0,0 5.28516,-32.5 41.4375,-32.5 l 6.6016,0" /><path
             id="path26"
             style="fill:#026c9b;fill-opacity:1;fill-rule:nonzero;stroke:none"
             d="m 42.9609,7.63672 161.629,0 0,281.855 -161.629,0 0,-281.855 z" /><path
             id="path28"
             style="fill:#026c9b;fill-opacity:1;fill-rule:nonzero;stroke:none"
             d="m 42.9609,289.492 30.8789,25.098 155.8402,0 -25.09,-25.098 -161.6291,0" /><path
             id="path30"
             style="fill:#026c9b;fill-opacity:1;fill-rule:nonzero;stroke:none"
             d="m 204.59,7.63672 25.09,30.88668 0,276.0666 -25.09,-25.098 0,-281.85528" /><path
             id="path32"
             style="fill:#026c9b;fill-opacity:1;fill-rule:nonzero;stroke:none"
             d="m 42.9609,7.63672 161.629,0 0,281.855 -161.629,0 0,-281.855 z" /><path
             id="path34"
             style="fill:none;stroke:#ffffff;stroke-width:4;stroke-linecap:butt;stroke-linejoin:miter;stroke-miterlimit:4;stroke-dasharray:none;stroke-opacity:1"
             d="m 42.9609,7.63672 161.629,0 0,281.855 -161.629,0 0,-281.855 z" /><path
             id="path36"
             style="fill:#026c9b;fill-opacity:1;fill-rule:nonzero;stroke:none"
             d="m 42.9609,289.492 30.8789,25.098 155.8402,0 -25.09,-25.098 -161.6291,0" /><path
             id="path38"
             style="fill:none;stroke:#ffffff;stroke-width:4;stroke-linecap:butt;stroke-linejoin:miter;stroke-miterlimit:4;stroke-dasharray:none;stroke-opacity:1"
             d="m 42.9609,289.492 30.8789,25.098 155.8402,0 -25.09,-25.098 -161.6291,0 z" /><path
             id="path40"
             style="fill:#026c9b;fill-opacity:1;fill-rule:nonzero;stroke:none"
             d="m 204.59,7.63672 25.09,30.88668 0,276.0666 -25.09,-25.098 0,-281.85528" /><path
             id="path42"
             style="fill:none;stroke:#ffffff;stroke-width:4;stroke-linecap:butt;stroke-linejoin:miter;stroke-miterlimit:4;stroke-dasharray:none;stroke-opacity:1"
             d="m 204.59,7.63672 25.09,30.88668 0,276.0666 -25.09,-25.098 0,-281.85528 z" /><path
             id="path44"
             style="fill:none;stroke:#ffffff;stroke-width:4;stroke-linecap:butt;stroke-linejoin:miter;stroke-miterlimit:4;stroke-dasharray:none;stroke-opacity:1"
             d="m 42.9609,7.63672 161.629,0 0,281.855 -161.629,0 0,-281.855 z" /><path
             id="path46"
             style="fill:none;stroke:#ffffff;stroke-width:4;stroke-linecap:butt;stroke-linejoin:miter;stroke-miterlimit:4;stroke-dasharray:none;stroke-opacity:1"
             d="m 42.9609,289.492 30.8789,25.098 155.8402,0 -25.09,-25.098 -161.6291,0 z" /><path
             id="path48"
             style="fill:none;stroke:#ffffff;stroke-width:4;stroke-linecap:butt;stroke-linejoin:miter;stroke-miterlimit:4;stroke-dasharray:none;stroke-opacity:1"
             d="m 204.59,7.63672 25.09,30.88668 0,276.0666 -25.09,-25.098 0,-281.85528 z" /><path
             id="path50"
             style="fill:#ffffff;fill-opacity:1;fill-rule:nonzero;stroke:none"
             d="m 227.539,51.7383 36.074,0 0,33.8359 -36.074,-0.0859" /><path
             id="path52"
             style="fill:none;stroke:#026c9b;stroke-width:4;stroke-linecap:butt;stroke-linejoin:miter;stroke-miterlimit:4;stroke-dasharray:none;stroke-opacity:1"
             d="m 227.539,51.7383 36.074,0 0,33.8359 -36.074,-0.0859" /><path
             id="path54"
             style="fill:#ffffff;fill-opacity:1;fill-rule:nonzero;stroke:none"
             d="m 49.4141,241.738 -40.9766,0 0,-33.84 36.0664,0.09 4.2852,0" /><path
             id="path56"
             style="fill:none;stroke:#026c9b;stroke-width:4;stroke-linecap:butt;stroke-linejoin:miter;stroke-miterlimit:4;stroke-dasharray:none;stroke-opacity:1"
             d="m 49.4141,241.738 -40.9766,0 0,-33.84 36.0664,0.09 4.2852,0" /><path
             id="path58"
             style="fill:#ffffff;fill-opacity:1;fill-rule:nonzero;stroke:none"
             d="m 223.789,207.988 4.824,0 c 36.133,0 41.895,-32.5 41.895,-32.5 l 0,33.75 c 0,0 -5.742,32.5 -41.895,32.5 l -7.949,0" /><path
             id="path60"
             style="fill:none;stroke:#026c9b;stroke-width:4;stroke-linecap:butt;stroke-linejoin:miter;stroke-miterlimit:4;stroke-dasharray:none;stroke-opacity:1"
             d="m 223.789,207.988 4.824,0 c 36.133,0 41.895,-32.5 41.895,-32.5 l 0,33.75 c 0,0 -5.742,32.5 -41.895,32.5 l -7.949,0" /><path
             id="path62"
             style="fill:#ffffff;fill-opacity:1;fill-rule:nonzero;stroke:none"
             d="m 270.508,211.113 0,-40 c -3.926,-47.5 -88.145,-45 -88.145,-45 l 0,-34.9997 -55,54.9997 55,55 0,-35 c 0,0 85.645,-2.5 88.145,45" /><path
             id="path64"
             style="fill:none;stroke:#026c9b;stroke-width:4;stroke-linecap:butt;stroke-linejoin:miter;stroke-miterlimit:4;stroke-dasharray:none;stroke-opacity:1"
             d="m 270.508,211.113 0,-40 c -3.926,-47.5 -88.145,-45 -88.145,-45 l 0,-34.9997 -55,54.9997 55,55 0,-35 c 0,0 85.645,-2.5 88.145,45" /><path
             id="path66"
             style="fill:#ffffff;fill-opacity:1;fill-rule:nonzero;stroke:none"
             d="m 2.1875,81.6484 0,39.9996 c 2.5,47.5 60,45 60,45 l 0,35 55.0005,-55 -55.0005,-54.9996 0,34.9996 c 0,0 -57.5,2.5 -60,-44.9996" /><path
             id="path68"
             style="fill:none;stroke:#026c9b;stroke-width:4;stroke-linecap:butt;stroke-linejoin:miter;stroke-miterlimit:4;stroke-dasharray:none;stroke-opacity:1"
             d="m 2.1875,81.6484 0,39.9996 c 2.5,47.5 60,45 60,45 l 0,35 55.0005,-55 -55.0005,-54.9996 0,34.9996 c 0,0 -57.5,2.5 -60,-44.9996" /></g></g></g></g></svg>