<?xml version="1.0" encoding="UTF-8" standalone="no"?>
<svg
   xmlns:dc="http://purl.org/dc/elements/1.1/"
   xmlns:cc="http://creativecommons.org/ns#"
   xmlns:rdf="http://www.w3.org/1999/02/22-rdf-syntax-ns#"
   xmlns:svg="http://www.w3.org/2000/svg"
   xmlns="http://www.w3.org/2000/svg"
   viewBox="0 0 39.987499 46.237499"
   height="46.237499"
   width="39.987499"
   xml:space="preserve"
   version="1.1"
   id="svg2"><metadata
     id="metadata8"><rdf:RDF><cc:Work
         rdf:about=""><dc:format>image/svg+xml</dc:format><dc:type
           rdf:resource="http://purl.org/dc/dcmitype/StillImage" /></cc:Work></rdf:RDF></metadata><defs
     id="defs6" /><g
     transform="matrix(1.25,0,0,-1.25,0,46.2375)"
     id="g10"><g
       transform="scale(0.1,0.1)"
       id="g12"><path
         id="path14"
         style="fill:#036998;fill-opacity:1;fill-rule:nonzero;stroke:none"
         d="m 4.82813,4.82422 153.879,0 0,245.125 -153.879,0 0,-245.125 z" /><path
         id="path16"
         style="fill:none;stroke:#ffffff;stroke-width:3.99993992;stroke-linecap:butt;stroke-linejoin:miter;stroke-miterlimit:4;stroke-dasharray:none;stroke-opacity:1"
         d="m 158.707,249.949 -153.87887,0 0,-245.12478 153.87887,0" /><path
         id="path18"
         style="fill:#036998;fill-opacity:1;fill-rule:nonzero;stroke:none"
         d="m 158.707,4.82422 49.148,49.14058 0,245.1372 -153.8862,0 -49.14067,-49.153 153.87887,0 0,-245.12478" /><path
         id="path20"
         style="fill:none;stroke:#ffffff;stroke-width:3.99993992;stroke-linecap:butt;stroke-linejoin:miter;stroke-miterlimit:4;stroke-dasharray:none;stroke-opacity:1"
         d="m 158.707,4.82422 49.148,49.14058 0,245.1372 -153.8862,0 -49.14067,-49.153 153.87887,0 0,-245.12478 z" /><path
         id="path22"
         style="fill:#000000;fill-opacity:1;fill-rule:nonzero;stroke:none"
         d="m 158.707,249.949 49.148,49.153" /><path
         id="path24"
         style="fill:none;stroke:#ffffff;stroke-width:3.99993992;stroke-linecap:butt;stroke-linejoin:miter;stroke-miterlimit:4;stroke-dasharray:none;stroke-opacity:1"
         d="m 158.707,249.949 49.148,49.153" /><path
         id="path26"
         style="fill:#036998;fill-opacity:1;fill-rule:nonzero;stroke:none"
         d="m 7.30859,154.465 150.00041,0" /><path
         id="path28"
         style="fill:none;stroke:#ffffff;stroke-width:3.99993992;stroke-linecap:butt;stroke-linejoin:miter;stroke-miterlimit:4;stroke-dasharray:none;stroke-opacity:1"
         d="m 7.30859,154.465 150.00041,0" /><path
         id="path30"
         style="fill:#036998;fill-opacity:1;fill-rule:nonzero;stroke:none"
         d="m 7.30859,41.9648 150.00041,0" /><path
         id="path32"
         style="fill:none;stroke:#ffffff;stroke-width:3.99993992;stroke-linecap:butt;stroke-linejoin:miter;stroke-miterlimit:4;stroke-dasharray:none;stroke-opacity:1"
         d="m 7.30859,41.9648 150.00041,0" /><path
         id="path34"
         style="fill:#036998;fill-opacity:1;fill-rule:nonzero;stroke:none"
         d="m 42.3086,211.965 43.75,0" /><path
         id="path36"
         style="fill:none;stroke:#ffffff;stroke-width:3.99993992;stroke-linecap:butt;stroke-linejoin:miter;stroke-miterlimit:4;stroke-dasharray:none;stroke-opacity:1"
         d="m 42.3086,211.965 43.75,0" /><path
         id="path38"
         style="fill:#036998;fill-opacity:1;fill-rule:nonzero;stroke:none"
         d="m 24.8086,196.965 77.5,0 0,31.25 -77.5,0 0,-31.25 z" /><path
         id="path40"
         style="fill:none;stroke:#ffffff;stroke-width:3.99993992;stroke-linecap:butt;stroke-linejoin:miter;stroke-miterlimit:4;stroke-dasharray:none;stroke-opacity:1"
         d="m 24.8086,196.965 77.5,0 0,31.25 -77.5,0 0,-31.25 z" /><path
         id="path42"
         style="fill:#036998;fill-opacity:1;fill-rule:nonzero;stroke:none"
         d="m 318.598,368.273 -5.02,-2.96 -194.648,0 4.98,3.078 194.688,-0.118" /><path
         id="path44"
         style="fill:#036998;fill-opacity:1;fill-rule:nonzero;stroke:none"
         d="m 318.637,175.305 -0.039,192.968 -5.02,-3.8 0,-193.809 5.059,4.641" /><path
         id="path46"
         style="fill:#036998;fill-opacity:1;fill-rule:nonzero;stroke:none"
         d="m 127.777,170.664 185.801,0 0,194.649 -194.648,0 0,-185.801 8.847,-8.848" /><path
         id="path48"
         style="fill:none;stroke:#ffffff;stroke-width:3.99993992;stroke-linecap:butt;stroke-linejoin:miter;stroke-miterlimit:4;stroke-dasharray:none;stroke-opacity:1"
         d="m 127.777,170.664 185.801,0 0,194.649 -194.648,0 0,-185.801 8.847,-8.848 z" /><path
         id="path50"
         style="fill:none;stroke:#ffffff;stroke-width:3.99993992;stroke-linecap:butt;stroke-linejoin:miter;stroke-miterlimit:4;stroke-dasharray:none;stroke-opacity:1"
         d="m 298.832,365.313 0,-112.286 c 0,-8.156 -6.641,-6.629 -6.641,-6.629 l -152.617,0 c 0,0 -5.898,-0.742 -5.898,5.899 l 0,113.016" /><path
         id="path52"
         style="fill:none;stroke:#ffffff;stroke-width:3.99993992;stroke-linecap:butt;stroke-linejoin:miter;stroke-miterlimit:4;stroke-dasharray:none;stroke-opacity:1"
         d="m 121.938,345.402 8.84766,0 0,8.84766 -8.84766,0 0,-8.84766 z" /><path
         id="path54"
         style="fill:none;stroke:#ffffff;stroke-width:3.99993992;stroke-linecap:butt;stroke-linejoin:miter;stroke-miterlimit:4;stroke-dasharray:none;stroke-opacity:1"
         d="m 301.84,345.402 8.84766,0 0,8.84766 -8.84766,0 0,-8.84766 z" /><path
         id="path56"
         style="fill:#ffffff;fill-opacity:1;fill-rule:nonzero;stroke:none"
         d="m 267.348,227.434 0,-54.661 -115.762,0 0,55.403 c 0,5.898 6.641,5.152 6.641,5.152 l 103.222,0 c 6.633,0 5.899,-5.894 5.899,-5.894" /><path
         id="path58"
         style="fill:none;stroke:#036998;stroke-width:3.99993992;stroke-linecap:butt;stroke-linejoin:miter;stroke-miterlimit:4;stroke-dasharray:none;stroke-opacity:1"
         d="m 267.348,227.434 0,-54.661 -115.762,0 0,55.403 c 0,5.898 6.641,5.152 6.641,5.152 l 103.222,0 c 6.633,0 5.899,-5.894 5.899,-5.894 z" /><path
         id="path60"
         style="fill:none;stroke:#ffffff;stroke-width:3.99993992;stroke-linecap:butt;stroke-linejoin:miter;stroke-miterlimit:4;stroke-dasharray:none;stroke-opacity:1"
         d="m 298.832,170.664 0,56.77 c 0,0 0.742,5.894 -5.898,5.894 l -134.551,0 c 0,0 -6.641,0.746 -6.641,-5.152 l 0,-53.93" /><path
         id="path62"
         style="fill:#036998;fill-opacity:1;fill-rule:nonzero;stroke:none"
         d="m 173.863,176.563 22.8594,0 0,53.0859 -22.8594,0 0,-53.0859 z" /><path
         id="path64"
         style="fill:none;stroke:#ffffff;stroke-width:3.99993992;stroke-linecap:butt;stroke-linejoin:miter;stroke-miterlimit:4;stroke-dasharray:none;stroke-opacity:1"
         d="m 173.863,176.563 22.8594,0 0,53.0859 -22.8594,0 0,-53.0859 z" /><path
         id="path66"
         style="fill:#ffffff;fill-opacity:1;fill-rule:nonzero;stroke:none"
         d="m 254.34,267.59 c 20.773,20.762 20.773,54.433 0,75.203 -20.762,20.762 -54.434,20.762 -75.195,0 -20.77,-20.77 -20.77,-54.441 0,-75.203 20.761,-20.774 54.433,-20.774 75.195,0" /><path
         id="path68"
         style="fill:none;stroke:#ffffff;stroke-width:3.99993992;stroke-linecap:butt;stroke-linejoin:miter;stroke-miterlimit:4;stroke-dasharray:none;stroke-opacity:1"
         d="m 313.578,364.57 5.156,3.692" /><path
         id="path70"
         style="fill:none;stroke:#036998;stroke-width:5;stroke-linecap:butt;stroke-linejoin:miter;stroke-miterlimit:4;stroke-dasharray:none;stroke-opacity:1"
         d="m 209.926,314.328 -25.43,24.91" /><path
         id="path72"
         style="fill:#036998;fill-opacity:1;fill-rule:nonzero;stroke:none"
         d="m 221.156,284.961 16.035,16.035 -17.363,1.965 1.328,-18" /><path
         id="path74"
         style="fill:#036998;fill-opacity:1;fill-rule:nonzero;stroke:none"
         d="m 196.215,310.488 16.035,16.047 1.965,-17.375 -18,1.328" /><path
         id="path76"
         style="fill:none;stroke:#036998;stroke-width:5;stroke-linecap:butt;stroke-linejoin:miter;stroke-miterlimit:4;stroke-dasharray:none;stroke-opacity:1"
         d="m 250.727,272.129 -24.981,24.98" /><path
         id="path78"
         style="fill:none;stroke:#036998;stroke-width:5;stroke-linecap:butt;stroke-linejoin:miter;stroke-miterlimit:4;stroke-dasharray:none;stroke-opacity:1"
         d="m 221,310.754 18.77,18.172" /><path
         id="path80"
         style="fill:#036998;fill-opacity:1;fill-rule:nonzero;stroke:none"
         d="m 231.684,337.461 16.046,-16.035 1.961,17.363 -18.007,-1.328" /><path
         id="path82"
         style="fill:#036998;fill-opacity:1;fill-rule:nonzero;stroke:none"
         d="m 184.633,290.488 16.035,-16.043 -17.363,-1.953 1.328,17.996" /><path
         id="path84"
         style="fill:none;stroke:#036998;stroke-width:5;stroke-linecap:butt;stroke-linejoin:miter;stroke-miterlimit:4;stroke-dasharray:none;stroke-opacity:1"
         d="m 191.625,280.871 21.074,20.984" /></g></g></svg>