<svg xmlns="http://www.w3.org/2000/svg" viewBox="0 0 33.75 41.25" height="41.25" width="33.75"><defs><clipPath id="a"><path d="M0 8v320h270V8H0z"/></clipPath></defs><g clip-path="url(#a)" transform="matrix(.13 0 0 -.13 0 41.25)"><path d="M50.66 92.766h-7.219c-36.14 0-41.453 32.5-41.453 32.5v-33.75s5.313-32.5 41.453-32.5h6.598" fill="#fff"/><path d="M50.66 92.766h-7.219c-36.14 0-41.453 32.5-41.453 32.5v-33.75s5.313-32.5 41.453-32.5h6.598" fill="none" stroke="#026c9b" stroke-width="4"/><path d="M42.969 15.617h161.64v281.88H42.97V15.616z" fill="#026c9b"/><path d="M42.969 297.496l30.86 25.082H229.69l-25.082-25.082H42.969M204.609 15.617l25.082 30.899v276.062l-25.082-25.082V15.617" fill="#026c9b"/><path d="M42.969 15.617h161.64v281.88H42.97V15.616z" fill="#026c9b"/><path d="M42.969 15.617h161.64v281.88H42.97V15.616z" fill="none" stroke="#fff" stroke-width="4"/><path d="M42.969 297.496l30.86 25.082H229.69l-25.082-25.082H42.969" fill="#026c9b"/><path d="M42.969 297.496l30.86 25.082H229.69l-25.082-25.082H42.969z" fill="none" stroke="#fff" stroke-width="4"/><path d="M204.609 15.617l25.082 30.899v276.062l-25.082-25.082V15.617" fill="#026c9b"/><path d="M204.609 15.617l25.082 30.899v276.062l-25.082-25.082V15.617zM42.969 15.617h161.64v281.88H42.97V15.616z" fill="none" stroke="#fff" stroke-width="4"/><path d="M42.969 297.496l30.86 25.082H229.69l-25.082-25.082H42.969zM204.609 15.617l25.082 30.899v276.062l-25.082-25.082V15.617z" fill="none" stroke="#fff" stroke-width="4"/><path d="M227.539 59.719h36.051v33.867l-36.051-.117" fill="#fff"/><path d="M227.539 59.719h36.051v33.867l-36.051-.117" fill="none" stroke="#026c9b" stroke-width="4"/><path d="M49.41 249.719H8.441v-33.821l36.047.071h4.301" fill="#fff"/><path d="M49.41 249.719H8.441v-33.821l36.047.071h4.301" fill="none" stroke="#026c9b" stroke-width="4"/><path d="M223.789 215.969h4.801c36.14 0 41.922-32.5 41.922-32.5v33.75s-5.742 32.5-41.922 32.5h-7.93" fill="#fff"/><path d="M223.789 215.969h4.801c36.14 0 41.922-32.5 41.922-32.5v33.75s-5.742 32.5-41.922 32.5h-7.93" fill="none" stroke="#026c9b" stroke-width="4"/><path d="M270.512 219.098v-40c-3.953-47.5-88.172-45-88.172-45v-35l-55 55 55 55v-35s85.672-2.5 88.172 45" fill="#fff"/><path d="M270.512 219.098v-40c-3.953-47.5-88.172-45-88.172-45v-35l-55 55 55 55v-35s85.672-2.5 88.172 45" fill="none" stroke="#026c9b" stroke-width="4"/><path d="M2.191 89.648v40c2.5 47.5 60 45 60 45v35l55-55-55-55v35s-57.5 2.5-60-45" fill="#fff"/><path d="M2.191 89.648v40c2.5 47.5 60 45 60 45v35l55-55-55-55v35s-57.5 2.5-60-45" fill="none" stroke="#026c9b" stroke-width="4"/></g></svg>