<?xml version="1.0" encoding="UTF-8" standalone="no"?>
<svg
   xmlns:dc="http://purl.org/dc/elements/1.1/"
   xmlns:cc="http://creativecommons.org/ns#"
   xmlns:rdf="http://www.w3.org/1999/02/22-rdf-syntax-ns#"
   xmlns:svg="http://www.w3.org/2000/svg"
   xmlns="http://www.w3.org/2000/svg"
   viewBox="0 0 36.712502 33.650002"
   height="33.650002"
   width="36.712502"
   xml:space="preserve"
   version="1.1"
   id="svg2"><metadata
     id="metadata8"><rdf:RDF><cc:Work
         rdf:about=""><dc:format>image/svg+xml</dc:format><dc:type
           rdf:resource="http://purl.org/dc/dcmitype/StillImage" /></cc:Work></rdf:RDF></metadata><defs
     id="defs6"><clipPath
       id="clipPath18"
       clipPathUnits="userSpaceOnUse"><path
         id="path20"
         d="M 0,0 0,269 290,269 290,0 0,0 Z" /></clipPath></defs><g
     transform="matrix(1.25,0,0,-1.25,0,33.65)"
     id="g10"><g
       transform="scale(0.1,0.1)"
       id="g12"><g
         id="g14"><g
           clip-path="url(#clipPath18)"
           id="g16"><path
             id="path22"
             style="fill:#036998;fill-opacity:1;fill-rule:nonzero;stroke:none"
             d="m 46.6641,33.4883 209.59,0 0,39.207 -209.59,0 0,-39.207 z" /><path
             id="path24"
             style="fill:none;stroke:#ffffff;stroke-width:3.99993992;stroke-linecap:butt;stroke-linejoin:miter;stroke-miterlimit:4;stroke-dasharray:none;stroke-opacity:1"
             d="m 46.6641,33.4883 209.59,0 0,39.207 -209.59,0 0,-39.207 z" /><path
             id="path26"
             style="fill:#036998;fill-opacity:1;fill-rule:nonzero;stroke:none"
             d="m 291.723,108.438 0,-39.5982 -35.469,-35.7421 0,39.5976 -209.7462,0" /><path
             id="path28"
             style="fill:none;stroke:#ffffff;stroke-width:3.99993992;stroke-linecap:butt;stroke-linejoin:miter;stroke-miterlimit:4;stroke-dasharray:none;stroke-opacity:1"
             d="m 291.723,108.438 0,-39.5982 -35.469,-35.7421 0,39.5976 -209.7462,0" /><path
             id="path30"
             style="fill:#036998;fill-opacity:1;fill-rule:nonzero;stroke:none"
             d="m 48.168,108.438 243.555,0" /><path
             id="path32"
             style="fill:none;stroke:#ffffff;stroke-width:3.99993992;stroke-linecap:butt;stroke-linejoin:miter;stroke-miterlimit:4;stroke-dasharray:none;stroke-opacity:1"
             d="m 48.168,108.438 243.555,0" /><path
             id="path34"
             style="fill:#036998;fill-opacity:1;fill-rule:nonzero;stroke:none"
             d="m 256.254,72.6953 35.469,35.7427" /><path
             id="path36"
             style="fill:none;stroke:#ffffff;stroke-width:3.99993992;stroke-linecap:butt;stroke-linejoin:miter;stroke-miterlimit:4;stroke-dasharray:none;stroke-opacity:1"
             d="m 256.254,72.6953 35.469,35.7427" /><path
             id="path38"
             style="fill:#036998;fill-opacity:1;fill-rule:nonzero;stroke:none"
             d="m 46.5078,73.4961 209.473,0 0,157.941 -209.473,0 0,-157.941 z" /><path
             id="path40"
             style="fill:none;stroke:#ffffff;stroke-width:3.99993992;stroke-linecap:butt;stroke-linejoin:miter;stroke-miterlimit:4;stroke-dasharray:none;stroke-opacity:1"
             d="m 46.5078,73.4961 209.473,0 0,157.941 -209.473,0 0,-157.941 z" /><path
             id="path42"
             style="fill:#036998;fill-opacity:1;fill-rule:nonzero;stroke:none"
             d="m 255.98,73.4961 35.743,35.7419 0,157.942 -209.473,0 -35.7422,-35.742 209.4722,0 0,-157.9419" /><path
             id="path44"
             style="fill:none;stroke:#ffffff;stroke-width:3.99993992;stroke-linecap:butt;stroke-linejoin:miter;stroke-miterlimit:4;stroke-dasharray:none;stroke-opacity:1"
             d="m 255.98,73.4961 35.743,35.7419 0,157.942 -209.473,0 -35.7422,-35.742 209.4722,0 0,-157.9419 z" /><path
             id="path46"
             style="fill:#036998;fill-opacity:1;fill-rule:nonzero;stroke:none"
             d="m 64.7891,91.7852 172.891,0 0,121.359 -172.891,0 0,-121.359 z" /><path
             id="path48"
             style="fill:none;stroke:#ffffff;stroke-width:3.99993992;stroke-linecap:butt;stroke-linejoin:miter;stroke-miterlimit:4;stroke-dasharray:none;stroke-opacity:1"
             d="m 64.7891,91.7852 172.891,0 0,121.359 -172.891,0 0,-121.359 z" /><path
             id="path50"
             style="fill:#036998;fill-opacity:1;fill-rule:nonzero;stroke:none"
             d="m 255.98,231.438 35.743,35.742" /><path
             id="path52"
             style="fill:none;stroke:#ffffff;stroke-width:3.99993992;stroke-linecap:butt;stroke-linejoin:miter;stroke-miterlimit:4;stroke-dasharray:none;stroke-opacity:1"
             d="m 255.98,231.438 35.743,35.742" /><path
             id="path54"
             style="fill:#036998;fill-opacity:1;fill-rule:nonzero;stroke:none"
             d="m 245.902,4.83594 0,23.23046 -241.07387,0 27.44137,27.4297 241.0545,0 0,-23.2305 -27.422,-27.42966" /><path
             id="path56"
             style="fill:none;stroke:#ffffff;stroke-width:3.99993992;stroke-linecap:butt;stroke-linejoin:miter;stroke-miterlimit:4;stroke-dasharray:none;stroke-opacity:1"
             d="m 245.902,4.83594 0,23.23046 -241.07387,0 27.44137,27.4297 241.0545,0 0,-23.2305 -27.422,-27.42966 z" /><path
             id="path58"
             style="fill:#036998;fill-opacity:1;fill-rule:nonzero;stroke:none"
             d="m 4.82813,4.83594 241.074,0 0,23.2305 -241.074,0 0,-23.2305 z" /><path
             id="path60"
             style="fill:none;stroke:#ffffff;stroke-width:3.99993992;stroke-linecap:butt;stroke-linejoin:miter;stroke-miterlimit:4;stroke-dasharray:none;stroke-opacity:1"
             d="m 4.82813,4.83594 241.074,0 0,23.2305 -241.074,0 0,-23.2305 z" /><path
             id="path62"
             style="fill:#036998;fill-opacity:1;fill-rule:nonzero;stroke:none"
             d="m 245.902,28.0664 27.422,27.4297" /><path
             id="path64"
             style="fill:none;stroke:#ffffff;stroke-width:3.99993992;stroke-linecap:butt;stroke-linejoin:miter;stroke-miterlimit:4;stroke-dasharray:none;stroke-opacity:1"
             d="m 245.902,28.0664 27.422,27.4297" /><path
             id="path66"
             style="fill:#036998;fill-opacity:1;fill-rule:nonzero;stroke:none"
             d="m 145.094,176.672 c 0,0 18.875,11.055 32.976,7.598 l 2.942,-9.231 8.828,-16.23 37.305,20.293 -9.543,17.519 -12.676,4.973 c 0,0 -32.84,2.129 -68.301,-15.508 L 130.98,183.02 C 96.9375,162.832 80.9023,134.082 80.9023,134.082 l -2.7343,-13.348 9.5312,-17.519 37.3048,20.293 -8.836,16.23 -6.164,7.481 c 4.785,13.75 24.277,23.574 24.277,23.574 l 10.813,5.879" /><path
             id="path68"
             style="fill:none;stroke:#ffffff;stroke-width:3.99993992;stroke-linecap:butt;stroke-linejoin:miter;stroke-miterlimit:4;stroke-dasharray:none;stroke-opacity:1"
             d="m 145.094,176.672 c 0,0 18.875,11.055 32.976,7.598 l 2.942,-9.231 8.828,-16.23 37.305,20.293 -9.543,17.519 -12.676,4.973 c 0,0 -32.84,2.129 -68.301,-15.508 L 130.98,183.02 C 96.9375,162.832 80.9023,134.082 80.9023,134.082 l -2.7343,-13.348 9.5312,-17.519 37.3048,20.293 -8.836,16.23 -6.164,7.481 c 4.785,13.75 24.277,23.574 24.277,23.574 l 10.813,5.879 z" /><path
             id="path70"
             style="fill:#036998;fill-opacity:1;fill-rule:nonzero;stroke:none"
             d="M 116.781,140.363 77.2109,118.84" /><path
             id="path72"
             style="fill:none;stroke:#ffffff;stroke-width:3.99993992;stroke-linecap:butt;stroke-linejoin:miter;stroke-miterlimit:4;stroke-dasharray:none;stroke-opacity:1"
             d="M 116.781,140.363 77.2109,118.84" /><path
             id="path74"
             style="fill:#036998;fill-opacity:1;fill-rule:nonzero;stroke:none"
             d="M 218.246,195.598 178.695,174.074" /><path
             id="path76"
             style="fill:none;stroke:#ffffff;stroke-width:3.99993992;stroke-linecap:butt;stroke-linejoin:miter;stroke-miterlimit:4;stroke-dasharray:none;stroke-opacity:1"
             d="M 218.246,195.598 178.695,174.074" /></g></g></g></g></svg>