<?xml version="1.0" encoding="UTF-8" standalone="no"?>
<svg
   xmlns:dc="http://purl.org/dc/elements/1.1/"
   xmlns:cc="http://creativecommons.org/ns#"
   xmlns:rdf="http://www.w3.org/1999/02/22-rdf-syntax-ns#"
   xmlns:svg="http://www.w3.org/2000/svg"
   xmlns="http://www.w3.org/2000/svg"
   viewBox="0 0 36.25 35"
   height="35"
   width="36.25"
   xml:space="preserve"
   version="1.1"
   id="svg2"><metadata
     id="metadata8"><rdf:RDF><cc:Work
         rdf:about=""><dc:format>image/svg+xml</dc:format><dc:type
           rdf:resource="http://purl.org/dc/dcmitype/StillImage" /></cc:Work></rdf:RDF></metadata><defs
     id="defs6"><clipPath
       id="clipPath18"
       clipPathUnits="userSpaceOnUse"><path
         id="path20"
         d="M 0,10 0,279 290,279 290,10 0,10 Z" /></clipPath></defs><g
     transform="matrix(1.25,0,0,-1.25,0,35)"
     id="g10"><g
       transform="scale(0.1,0.1)"
       id="g12"><g
         id="g14"><g
           clip-path="url(#clipPath18)"
           id="g16"><path
             id="path22"
             style="fill:#036998;fill-opacity:1;fill-rule:nonzero;stroke:none"
             d="m 46.6797,43.4844 209.57,0 0,39.2188 -209.57,0 0,-39.2188 z" /><path
             id="path24"
             style="fill:none;stroke:#ffffff;stroke-width:3.99993992;stroke-linecap:butt;stroke-linejoin:miter;stroke-miterlimit:4;stroke-dasharray:none;stroke-opacity:1"
             d="m 46.6797,43.4844 209.57,0 0,39.2188 -209.57,0 0,-39.2188 z" /><path
             id="path26"
             style="fill:#036998;fill-opacity:1;fill-rule:nonzero;stroke:none"
             d="m 291.719,118.445 0,-39.613 -35.469,-35.7382 0,39.6093 -209.7305,0" /><path
             id="path28"
             style="fill:none;stroke:#ffffff;stroke-width:3.99993992;stroke-linecap:butt;stroke-linejoin:miter;stroke-miterlimit:4;stroke-dasharray:none;stroke-opacity:1"
             d="m 291.719,118.445 0,-39.613 -35.469,-35.7382 0,39.6093 -209.7305,0" /><path
             id="path30"
             style="fill:none;stroke:#ffffff;stroke-width:3.99993992;stroke-linecap:butt;stroke-linejoin:miter;stroke-miterlimit:4;stroke-dasharray:none;stroke-opacity:1"
             d="m 48.1602,118.445 243.5588,0" /><path
             id="path32"
             style="fill:#036998;fill-opacity:1;fill-rule:nonzero;stroke:none"
             d="m 256.25,82.7031 35.469,35.7419" /><path
             id="path34"
             style="fill:none;stroke:#ffffff;stroke-width:3.99993992;stroke-linecap:butt;stroke-linejoin:miter;stroke-miterlimit:4;stroke-dasharray:none;stroke-opacity:1"
             d="m 256.25,82.7031 35.469,35.7419" /><path
             id="path36"
             style="fill:#036998;fill-opacity:1;fill-rule:nonzero;stroke:none"
             d="m 46.5195,83.4844 209.449,0 0,157.93 -209.449,0 0,-157.93 z" /><path
             id="path38"
             style="fill:none;stroke:#ffffff;stroke-width:3.99993992;stroke-linecap:butt;stroke-linejoin:miter;stroke-miterlimit:4;stroke-dasharray:none;stroke-opacity:1"
             d="m 46.5195,83.4844 209.449,0 0,157.93 -209.449,0 0,-157.93 z" /><path
             id="path40"
             style="fill:#036998;fill-opacity:1;fill-rule:nonzero;stroke:none"
             d="m 255.98,83.4844 35.739,35.7386 0,157.929 -209.4495,0 -35.75,-35.738 209.4605,0 0,-157.9296" /><path
             id="path42"
             style="fill:none;stroke:#ffffff;stroke-width:3.99993992;stroke-linecap:butt;stroke-linejoin:miter;stroke-miterlimit:4;stroke-dasharray:none;stroke-opacity:1"
             d="m 255.98,83.4844 35.739,35.7386 0,157.929 -209.4495,0 -35.75,-35.738 209.4605,0 0,-157.9296 z" /><path
             id="path44"
             style="fill:#036998;fill-opacity:1;fill-rule:nonzero;stroke:none"
             d="m 64.8008,101.762 172.891,0 0,121.371 -172.891,0 0,-121.371 z" /><path
             id="path46"
             style="fill:none;stroke:#ffffff;stroke-width:3.99993992;stroke-linecap:butt;stroke-linejoin:miter;stroke-miterlimit:4;stroke-dasharray:none;stroke-opacity:1"
             d="m 64.8008,101.762 172.891,0 0,121.371 -172.891,0 0,-121.371 z" /><path
             id="path48"
             style="fill:#036998;fill-opacity:1;fill-rule:nonzero;stroke:none"
             d="m 255.98,241.414 35.739,35.738" /><path
             id="path50"
             style="fill:none;stroke:#ffffff;stroke-width:3.99993992;stroke-linecap:butt;stroke-linejoin:miter;stroke-miterlimit:4;stroke-dasharray:none;stroke-opacity:1"
             d="m 255.98,241.414 35.739,35.738" /><path
             id="path52"
             style="fill:#036998;fill-opacity:1;fill-rule:nonzero;stroke:none"
             d="m 245.898,14.8125 0,23.2422 -241.05816,0 27.42966,27.418 241.0505,0 0,-23.1993 -27.422,-27.4609" /><path
             id="path54"
             style="fill:none;stroke:#ffffff;stroke-width:3.99993992;stroke-linecap:butt;stroke-linejoin:miter;stroke-miterlimit:4;stroke-dasharray:none;stroke-opacity:1"
             d="m 245.898,14.8125 0,23.2422 -241.05816,0 27.42966,27.418 241.0505,0 0,-23.1993 -27.422,-27.4609 z" /><path
             id="path56"
             style="fill:#036998;fill-opacity:1;fill-rule:nonzero;stroke:none"
             d="m 4.83984,14.8125 241.051,0 0,23.2422 -241.051,0 0,-23.2422 z" /><path
             id="path58"
             style="fill:none;stroke:#ffffff;stroke-width:3.99993992;stroke-linecap:butt;stroke-linejoin:miter;stroke-miterlimit:4;stroke-dasharray:none;stroke-opacity:1"
             d="m 4.83984,14.8125 241.051,0 0,23.2422 -241.051,0 0,-23.2422 z" /><path
             id="path60"
             style="fill:#036998;fill-opacity:1;fill-rule:nonzero;stroke:none"
             d="m 245.898,38.0547 27.422,27.418" /><path
             id="path62"
             style="fill:none;stroke:#ffffff;stroke-width:3.99993992;stroke-linecap:butt;stroke-linejoin:miter;stroke-miterlimit:4;stroke-dasharray:none;stroke-opacity:1"
             d="m 245.898,38.0547 27.422,27.418" /><path
             id="path64"
             style="fill:#036998;fill-opacity:1;fill-rule:nonzero;stroke:none"
             d="m 145.078,186.652 c 0,0 18.902,11.051 33.012,7.61 l 2.93,-9.219 8.82,-16.25 37.308,20.32 -9.527,17.5 -12.699,4.961 c 0,0 -32.852,2.149 -68.281,-15.511 l -5.661,-3.051 C 96.9492,172.824 80.8984,144.074 80.8984,144.074 l -2.7382,-13.359 9.539,-17.5 37.3008,20.269 -8.828,16.25 -6.172,7.461 c 4.801,13.75 24.301,23.598 24.301,23.598 l 10.777,5.859" /><path
             id="path66"
             style="fill:none;stroke:#ffffff;stroke-width:3.99993992;stroke-linecap:butt;stroke-linejoin:miter;stroke-miterlimit:4;stroke-dasharray:none;stroke-opacity:1"
             d="m 145.078,186.652 c 0,0 18.902,11.051 33.012,7.61 l 2.93,-9.219 8.82,-16.25 37.308,20.32 -9.527,17.5 -12.699,4.961 c 0,0 -32.852,2.149 -68.281,-15.511 l -5.661,-3.051 C 96.9492,172.824 80.8984,144.074 80.8984,144.074 l -2.7382,-13.359 9.539,-17.5 37.3008,20.269 -8.828,16.25 -6.172,7.461 c 4.801,13.75 24.301,23.598 24.301,23.598 l 10.777,5.859 z" /><path
             id="path68"
             style="fill:#036998;fill-opacity:1;fill-rule:nonzero;stroke:none"
             d="M 116.801,150.363 77.2305,128.832" /><path
             id="path70"
             style="fill:none;stroke:#ffffff;stroke-width:3.99993992;stroke-linecap:butt;stroke-linejoin:miter;stroke-miterlimit:4;stroke-dasharray:none;stroke-opacity:1"
             d="M 116.801,150.363 77.2305,128.832" /><path
             id="path72"
             style="fill:#036998;fill-opacity:1;fill-rule:nonzero;stroke:none"
             d="m 218.238,205.594 -39.527,-21.52" /><path
             id="path74"
             style="fill:none;stroke:#ffffff;stroke-width:3.99993992;stroke-linecap:butt;stroke-linejoin:miter;stroke-miterlimit:4;stroke-dasharray:none;stroke-opacity:1"
             d="m 218.238,205.594 -39.527,-21.52" /></g></g></g></g></svg>