<?xml version="1.0" encoding="UTF-8" standalone="no"?>
<svg
   xmlns:dc="http://purl.org/dc/elements/1.1/"
   xmlns:cc="http://creativecommons.org/ns#"
   xmlns:rdf="http://www.w3.org/1999/02/22-rdf-syntax-ns#"
   xmlns:svg="http://www.w3.org/2000/svg"
   xmlns="http://www.w3.org/2000/svg"
   viewBox="0 0 40 47.5"
   height="47.5"
   width="40"
   xml:space="preserve"
   version="1.1"
   id="svg2"><metadata
     id="metadata8"><rdf:RDF><cc:Work
         rdf:about=""><dc:format>image/svg+xml</dc:format><dc:type
           rdf:resource="http://purl.org/dc/dcmitype/StillImage" /></cc:Work></rdf:RDF></metadata><defs
     id="defs6" /><g
     transform="matrix(1.25,0,0,-1.25,0,47.5)"
     id="g10"><g
       transform="scale(0.1,0.1)"
       id="g12"><path
         id="path14"
         style="fill:#036998;fill-opacity:1;fill-rule:nonzero;stroke:none"
         d="m 4.83984,14.8086 153.871,0 0,245.16 -153.871,0 0,-245.16 z" /><path
         id="path16"
         style="fill:none;stroke:#ffffff;stroke-width:3.99993992;stroke-linecap:butt;stroke-linejoin:miter;stroke-miterlimit:4;stroke-dasharray:none;stroke-opacity:1"
         d="m 158.711,259.973 -153.87116,0 0,-245.1605 153.87116,0" /><path
         id="path18"
         style="fill:#036998;fill-opacity:1;fill-rule:nonzero;stroke:none"
         d="m 158.711,14.8086 49.141,49.1406 0,245.1598 -153.8715,0 -49.14066,-49.14 153.87116,0 0,-245.1604" /><path
         id="path20"
         style="fill:none;stroke:#ffffff;stroke-width:3.99993992;stroke-linecap:butt;stroke-linejoin:miter;stroke-miterlimit:4;stroke-dasharray:none;stroke-opacity:1"
         d="m 158.711,14.8125 49.141,49.1406 0,245.1599 -153.8715,0 -49.14066,-49.14 153.87116,0 0,-245.1605 z" /><path
         id="path22"
         style="fill:#000000;fill-opacity:1;fill-rule:nonzero;stroke:none"
         d="m 158.711,259.969 49.141,49.14" /><path
         id="path24"
         style="fill:none;stroke:#ffffff;stroke-width:3.99993992;stroke-linecap:butt;stroke-linejoin:miter;stroke-miterlimit:4;stroke-dasharray:none;stroke-opacity:1"
         d="m 158.711,259.973 49.141,49.14" /><path
         id="path26"
         style="fill:none;stroke:#ffffff;stroke-width:3.99993992;stroke-linecap:butt;stroke-linejoin:miter;stroke-miterlimit:4;stroke-dasharray:none;stroke-opacity:1"
         d="m 7.30078,164.461 150.00022,0" /><path
         id="path28"
         style="fill:none;stroke:#ffffff;stroke-width:3.99993992;stroke-linecap:butt;stroke-linejoin:miter;stroke-miterlimit:4;stroke-dasharray:none;stroke-opacity:1"
         d="m 7.30078,51.9609 150.00022,0" /><path
         id="path30"
         style="fill:none;stroke:#ffffff;stroke-width:3.99993992;stroke-linecap:butt;stroke-linejoin:miter;stroke-miterlimit:4;stroke-dasharray:none;stroke-opacity:1"
         d="m 42.3008,221.961 43.75,0" /><path
         id="path32"
         style="fill:#036998;fill-opacity:1;fill-rule:nonzero;stroke:none"
         d="m 24.8008,206.961 77.5,0 0,31.25 -77.5,0 0,-31.25 z" /><path
         id="path34"
         style="fill:none;stroke:#ffffff;stroke-width:3.99993992;stroke-linecap:butt;stroke-linejoin:miter;stroke-miterlimit:4;stroke-dasharray:none;stroke-opacity:1"
         d="m 24.8008,206.961 77.5,0 0,31.25 -77.5,0 0,-31.25 z" /><path
         id="path36"
         style="fill:#036998;fill-opacity:1;fill-rule:nonzero;stroke:none"
         d="m 318.59,378.289 -5,-2.969 -194.641,0 4.961,3.09 194.68,-0.121" /><path
         id="path38"
         style="fill:#036998;fill-opacity:1;fill-rule:nonzero;stroke:none"
         d="m 318.629,185.32 -0.039,192.969 -5,-3.828 0,-193.789 5.039,4.648" /><path
         id="path40"
         style="fill:#036998;fill-opacity:1;fill-rule:nonzero;stroke:none"
         d="m 127.77,180.672 185.82,0 0,194.648 -194.641,0 0,-185.82 8.821,-8.828" /><path
         id="path42"
         style="fill:none;stroke:#ffffff;stroke-width:3.99993992;stroke-linecap:butt;stroke-linejoin:miter;stroke-miterlimit:4;stroke-dasharray:none;stroke-opacity:1"
         d="m 127.77,180.672 185.82,0 0,194.648 -194.641,0 0,-185.82 8.821,-8.828 z" /><path
         id="path44"
         style="fill:none;stroke:#ffffff;stroke-width:3.99993992;stroke-linecap:butt;stroke-linejoin:miter;stroke-miterlimit:4;stroke-dasharray:none;stroke-opacity:1"
         d="m 298.828,375.32 0,-112.308 c 0,-8.121 -6.637,-6.602 -6.637,-6.602 l -152.621,0 c 0,0 -5.898,-0.738 -5.898,5.903 l 0,113.007" /><path
         id="path46"
         style="fill:none;stroke:#ffffff;stroke-width:3.99993992;stroke-linecap:butt;stroke-linejoin:miter;stroke-miterlimit:4;stroke-dasharray:none;stroke-opacity:1"
         d="m 121.949,355.402 8.83203,0 0,8.87109 -8.83203,0 0,-8.87109 z" /><path
         id="path48"
         style="fill:none;stroke:#ffffff;stroke-width:3.99993992;stroke-linecap:butt;stroke-linejoin:miter;stroke-miterlimit:4;stroke-dasharray:none;stroke-opacity:1"
         d="m 301.84,355.402 8.87109,0 0,8.87109 -8.87109,0 0,-8.87109 z" /><path
         id="path50"
         style="fill:#ffffff;fill-opacity:1;fill-rule:nonzero;stroke:none"
         d="m 267.34,237.43 0,-54.649 -115.738,0 0,55.391 c 0,5.898 6.636,5.156 6.636,5.156 l 103.211,0 c 6.641,0 5.891,-5.898 5.891,-5.898" /><path
         id="path52"
         style="fill:none;stroke:#036998;stroke-width:3.99993992;stroke-linecap:butt;stroke-linejoin:miter;stroke-miterlimit:4;stroke-dasharray:none;stroke-opacity:1"
         d="m 267.34,237.434 0,-54.653 -115.738,0 0,55.391 c 0,5.898 6.636,5.16 6.636,5.16 l 103.211,0 c 6.641,0 5.891,-5.898 5.891,-5.898 z" /><path
         id="path54"
         style="fill:none;stroke:#ffffff;stroke-width:3.99993992;stroke-linecap:butt;stroke-linejoin:miter;stroke-miterlimit:4;stroke-dasharray:none;stroke-opacity:1"
         d="m 298.828,180.672 0,56.762 c 0,0 0.742,5.898 -5.898,5.898 l -134.532,0 c 0,0 -6.636,0.738 -6.636,-5.16 l 0,-53.899" /><path
         id="path56"
         style="fill:#036998;fill-opacity:1;fill-rule:nonzero;stroke:none"
         d="m 173.871,186.57 22.8477,0 0,53.0898 -22.8477,0 0,-53.0898 z" /><path
         id="path58"
         style="fill:none;stroke:#ffffff;stroke-width:3.99993992;stroke-linecap:butt;stroke-linejoin:miter;stroke-miterlimit:4;stroke-dasharray:none;stroke-opacity:1"
         d="m 173.871,186.57 22.8477,0 0,53.0898 -22.8477,0 0,-53.0898 z" /><path
         id="path60"
         style="fill:#ffffff;fill-opacity:1;fill-rule:nonzero;stroke:none"
         d="m 254.34,277.59 c 20.781,20.781 20.781,54.449 0,75.191 -20.75,20.778 -54.418,20.778 -75.199,0 -20.782,-20.742 -20.782,-54.41 0,-75.191 20.781,-20.781 54.449,-20.781 75.199,0" /><path
         id="path62"
         style="fill:none;stroke:#ffffff;stroke-width:3.99993992;stroke-linecap:butt;stroke-linejoin:miter;stroke-miterlimit:4;stroke-dasharray:none;stroke-opacity:1"
         d="m 313.59,374.582 5.16,3.668" /><path
         id="path64"
         style="fill:none;stroke:#036998;stroke-width:5;stroke-linecap:butt;stroke-linejoin:miter;stroke-miterlimit:4;stroke-dasharray:none;stroke-opacity:1"
         d="m 209.922,324.34 -25.434,24.89" /><path
         id="path66"
         style="fill:#036998;fill-opacity:1;fill-rule:nonzero;stroke:none"
         d="m 221.172,294.969 16.019,16.019 -17.351,1.992 1.332,-18.011" /><path
         id="path68"
         style="fill:#036998;fill-opacity:1;fill-rule:nonzero;stroke:none"
         d="m 196.211,320.48 16.059,16.051 1.949,-17.383 -18.008,1.332" /><path
         id="path70"
         style="fill:none;stroke:#036998;stroke-width:5;stroke-linecap:butt;stroke-linejoin:miter;stroke-miterlimit:4;stroke-dasharray:none;stroke-opacity:1"
         d="m 250.738,282.121 -25,25" /><path
         id="path72"
         style="fill:none;stroke:#036998;stroke-width:5;stroke-linecap:butt;stroke-linejoin:miter;stroke-miterlimit:4;stroke-dasharray:none;stroke-opacity:1"
         d="m 221.02,320.75 18.75,18.16" /><path
         id="path74"
         style="fill:#036998;fill-opacity:1;fill-rule:nonzero;stroke:none"
         d="m 231.68,347.469 16.05,-16.047 1.961,17.379 -18.011,-1.332" /><path
         id="path76"
         style="fill:#036998;fill-opacity:1;fill-rule:nonzero;stroke:none"
         d="m 184.648,300.48 16.012,-16.019 -17.34,-1.949 1.328,17.968" /><path
         id="path78"
         style="fill:none;stroke:#036998;stroke-width:5;stroke-linecap:butt;stroke-linejoin:miter;stroke-miterlimit:4;stroke-dasharray:none;stroke-opacity:1"
         d="m 191.641,290.871 21.058,20.969" /></g></g></svg>