<?xml version="1.0" encoding="UTF-8" standalone="no"?>
<svg
   xmlns:dc="http://purl.org/dc/elements/1.1/"
   xmlns:cc="http://creativecommons.org/ns#"
   xmlns:rdf="http://www.w3.org/1999/02/22-rdf-syntax-ns#"
   xmlns:svg="http://www.w3.org/2000/svg"
   xmlns="http://www.w3.org/2000/svg"
   viewBox="0 0 79.737503 41.775002"
   height="41.775002"
   width="79.737503"
   xml:space="preserve"
   version="1.1"
   id="svg2"><metadata
     id="metadata8"><rdf:RDF><cc:Work
         rdf:about=""><dc:format>image/svg+xml</dc:format><dc:type
           rdf:resource="http://purl.org/dc/dcmitype/StillImage" /></cc:Work></rdf:RDF></metadata><defs
     id="defs6" /><g
     transform="matrix(1.25,0,0,-1.25,0,41.775)"
     id="g10"><g
       transform="scale(0.1,0.1)"
       id="g12"><path
         id="path14"
         style="fill:none;stroke:#2b669e;stroke-width:4;stroke-linecap:round;stroke-linejoin:round;stroke-miterlimit:1;stroke-dasharray:none;stroke-opacity:1"
         d="M 441.598,64.3359 C 442.594,48.7617 435.504,31.4141 421.254,18.4883 406.305,4.87109 387.242,-0.421875 371.305,3.02734" /><path
         id="path16"
         style="fill:none;stroke:#2b669e;stroke-width:4;stroke-linecap:round;stroke-linejoin:round;stroke-miterlimit:1;stroke-dasharray:none;stroke-opacity:1"
         d="M 434.926,66.6016 C 435.844,52.1094 429.254,35.9766 416,23.9453 402.094,11.2891 384.352,6.35938 369.535,9.57031" /><path
         id="path18"
         style="fill:none;stroke:#2b669e;stroke-width:4;stroke-linecap:round;stroke-linejoin:round;stroke-miterlimit:1;stroke-dasharray:none;stroke-opacity:1"
         d="M 428.258,68.8672 C 429.105,55.4688 423.004,40.5352 410.746,29.4141 397.875,17.7031 381.469,13.1445 367.758,16.1133" /><path
         id="path20"
         style="fill:none;stroke:#2b669e;stroke-width:4;stroke-linecap:round;stroke-linejoin:round;stroke-miterlimit:1;stroke-dasharray:none;stroke-opacity:1"
         d="m 421.586,71.1328 c 0.773,-12.3125 -4.832,-26.0351 -16.094,-36.2617 -11.824,-10.75 -26.914,-14.9492 -39.5,-12.2148" /><path
         id="path22"
         style="fill:none;stroke:#2b669e;stroke-width:4;stroke-linecap:round;stroke-linejoin:round;stroke-miterlimit:1;stroke-dasharray:none;stroke-opacity:1"
         d="M 414.906,73.4102 C 415.621,62.1797 410.512,49.668 400.238,40.3438 389.449,30.5273 375.699,26.7109 364.215,29.1914" /><path
         id="path24"
         style="fill:none;stroke:#2b669e;stroke-width:4;stroke-linecap:round;stroke-linejoin:round;stroke-miterlimit:1;stroke-dasharray:none;stroke-opacity:1"
         d="M 408.238,75.6758 C 408.871,65.5273 404.262,54.2305 394.984,45.8008 385.238,36.9453 372.809,33.4883 362.445,35.7344" /><path
         id="path26"
         style="fill:none;stroke:#2b669e;stroke-width:4;stroke-linecap:round;stroke-linejoin:round;stroke-miterlimit:1;stroke-dasharray:none;stroke-opacity:1"
         d="M 401.566,77.9414 C 402.133,68.8867 398.012,58.7891 389.73,51.2695 381.02,43.3594 369.926,40.2734 360.668,42.2773" /><path
         id="path28"
         style="fill:none;stroke:#2b669e;stroke-width:4;stroke-linecap:round;stroke-linejoin:round;stroke-miterlimit:1;stroke-dasharray:none;stroke-opacity:1"
         d="m 394.898,80.2031 c 0.489,-7.9648 -3.136,-16.8515 -10.421,-23.4726 -7.664,-6.9532 -17.442,-9.6797 -25.575,-7.9102" /><path
         id="path30"
         style="fill:#2b669e;fill-opacity:1;fill-rule:nonzero;stroke:none"
         d="m 2,137.473 0,13.289 134.238,49.199 61.157,-10.535 36.699,-7.129 25.176,-5.234 0.625,-16.875" /><path
         id="path32"
         style="fill:none;stroke:#ffffff;stroke-width:4;stroke-linecap:butt;stroke-linejoin:miter;stroke-miterlimit:4;stroke-dasharray:none;stroke-opacity:1"
         d="m 2,137.473 0,13.289 134.238,49.199 61.157,-10.535 36.699,-7.129 25.176,-5.234 0.625,-16.875" /><path
         id="path34"
         style="fill:#2b669e;fill-opacity:1;fill-rule:nonzero;stroke:none"
         d="m 315.488,332.18 c -17.043,0 -30.871,-6.047 -30.871,-13.496 0,-7.461 13.828,-13.516 30.871,-13.516 17.047,0 30.875,6.055 30.875,13.516 0,7.449 -13.828,13.496 -30.875,13.496" /><path
         id="path36"
         style="fill:none;stroke:#ffffff;stroke-width:4;stroke-linecap:butt;stroke-linejoin:miter;stroke-miterlimit:4;stroke-dasharray:none;stroke-opacity:1"
         d="m 315.488,332.18 c -17.043,0 -30.871,-6.047 -30.871,-13.496 0,-7.461 13.828,-13.516 30.871,-13.516 17.047,0 30.875,6.055 30.875,13.516 0,7.449 -13.828,13.496 -30.875,13.496 z" /><path
         id="path38"
         style="fill:#2b669e;fill-opacity:1;fill-rule:nonzero;stroke:none"
         d="M 193.66,173.352 135.879,182.57 2,137.473 l 116.977,-18.321 140.918,41.036 -40.52,6.902" /><path
         id="path40"
         style="fill:none;stroke:#ffffff;stroke-width:4;stroke-linecap:butt;stroke-linejoin:miter;stroke-miterlimit:4;stroke-dasharray:none;stroke-opacity:1"
         d="M 193.66,173.352 135.879,182.57 2,137.473 l 116.977,-18.321 140.918,41.036 -40.52,6.902" /><path
         id="path42"
         style="fill:#2b669e;fill-opacity:1;fill-rule:nonzero;stroke:none"
         d="m 203.406,175.742 c -41.582,-10.578 -50.679,-20.871 -50.679,-20.871 14.043,-6.754 64.312,11.449 64.312,11.449 l 8.906,3.067 -22.539,6.355" /><path
         id="path44"
         style="fill:none;stroke:#ffffff;stroke-width:4;stroke-linecap:butt;stroke-linejoin:miter;stroke-miterlimit:4;stroke-dasharray:none;stroke-opacity:1"
         d="m 203.406,175.742 c -41.582,-10.578 -50.679,-20.871 -50.679,-20.871 14.043,-6.754 64.312,11.449 64.312,11.449 l 8.906,3.067 -22.539,6.355 z" /><path
         id="path46"
         style="fill:#2b669e;fill-opacity:1;fill-rule:nonzero;stroke:none"
         d="m 219.375,167.09 40.52,-7.078 L 118.977,119.152 2,137.473 l 133.879,45.097 58.418,-8.984 c -33.469,-8.106 -41.184,-18.715 -41.184,-18.715 14.043,-6.754 57.992,9.477 57.992,9.477 l 0.165,0.269 40.656,12.406 -0.012,22.391 -53.035,-18.035 -0.59,-0.227 c 0,0 -2.461,-5.632 -2.461,-7.547" /><path
         id="path48"
         style="fill:none;stroke:#ffffff;stroke-width:4;stroke-linecap:butt;stroke-linejoin:miter;stroke-miterlimit:4;stroke-dasharray:none;stroke-opacity:1"
         d="m 219.375,167.09 40.52,-7.078 L 118.977,119.152 2,137.473 l 133.879,45.097 58.418,-8.984 c -33.469,-8.106 -41.184,-18.715 -41.184,-18.715 14.043,-6.754 57.992,9.477 57.992,9.477 l 0.165,0.269 40.656,12.406 -0.012,22.391 -53.035,-18.035 -0.59,-0.227 c 0,0 -2.461,-5.632 -2.461,-7.547" /><path
         id="path50"
         style="fill:#2b669e;fill-opacity:1;fill-rule:nonzero;stroke:none"
         d="m 198.738,173.41 c -0.418,0.078 -0.855,-0.39 -0.972,-1.055 -0.121,-0.664 0.132,-1.261 0.554,-1.328 0.418,-0.078 0.852,0.387 0.965,1.051 0.117,0.664 -0.125,1.262 -0.547,1.332" /><path
         id="path52"
         style="fill:none;stroke:#ffffff;stroke-width:4;stroke-linecap:butt;stroke-linejoin:miter;stroke-miterlimit:4;stroke-dasharray:none;stroke-opacity:1"
         d="m 198.738,173.41 c -0.418,0.078 -0.855,-0.39 -0.972,-1.055 -0.121,-0.664 0.132,-1.261 0.554,-1.328 0.418,-0.078 0.852,0.387 0.965,1.051 0.117,0.664 -0.125,1.262 -0.547,1.332 z" /><path
         id="path54"
         style="fill:#2b669e;fill-opacity:1;fill-rule:nonzero;stroke:none"
         d="m 379.469,122.258 0,166.289 c 0,15.41 -28.555,27.91 -63.778,27.91 -35.23,0 -63.789,-12.5 -63.789,-27.91 l 0,-167.707" /><path
         id="path56"
         style="fill:none;stroke:#ffffff;stroke-width:4;stroke-linecap:butt;stroke-linejoin:miter;stroke-miterlimit:4;stroke-dasharray:none;stroke-opacity:1"
         d="m 379.469,122.258 0,166.289 c 0,15.41 -28.555,27.91 -63.778,27.91 -35.23,0 -63.789,-12.5 -63.789,-27.91 l 0,-167.707" /><path
         id="path58"
         style="fill:#2b669e;fill-opacity:1;fill-rule:nonzero;stroke:none"
         d="m 372.145,253.742 0,15.176 140.234,49.629 123.32,-28.535 0.235,-17.949" /><path
         id="path60"
         style="fill:none;stroke:#ffffff;stroke-width:4;stroke-linecap:butt;stroke-linejoin:miter;stroke-miterlimit:4;stroke-dasharray:none;stroke-opacity:1"
         d="m 372.145,253.742 0,15.176 140.234,49.629 123.32,-28.535 0.235,-17.949" /><path
         id="path62"
         style="fill:#2b669e;fill-opacity:1;fill-rule:nonzero;stroke:none"
         d="m 417.262,247.363 -45.117,6.379 140.234,46.504 123.32,-28.535 -146.933,-41.231 -33.75,5.77" /><path
         id="path64"
         style="fill:none;stroke:#ffffff;stroke-width:4;stroke-linecap:butt;stroke-linejoin:miter;stroke-miterlimit:4;stroke-dasharray:none;stroke-opacity:1"
         d="m 417.262,247.363 -45.117,6.379 140.234,46.504 123.32,-28.535 -146.933,-41.231 -33.75,5.77" /><path
         id="path66"
         style="fill:#2b669e;fill-opacity:1;fill-rule:nonzero;stroke:none"
         d="m 455.719,235.93 c 30.996,7.754 42.285,23.25 42.285,23.25 -46.777,1.386 -80.254,-12.059 -80.254,-12.059" /><path
         id="path68"
         style="fill:none;stroke:#ffffff;stroke-width:4;stroke-linecap:butt;stroke-linejoin:miter;stroke-miterlimit:4;stroke-dasharray:none;stroke-opacity:1"
         d="m 455.719,235.93 c 30.996,7.754 42.285,23.25 42.285,23.25 -46.777,1.386 -80.254,-12.059 -80.254,-12.059" /><path
         id="path70"
         style="fill:#2b669e;fill-opacity:1;fill-rule:nonzero;stroke:none"
         d="M 458.18,236.719 354.996,206.652 c -14.805,0.703 -12.891,12.684 -12.891,12.684 -0.703,7.742 11.055,11.113 11.055,11.113 l 67.403,17.539" /><path
         id="path72"
         style="fill:none;stroke:#ffffff;stroke-width:4;stroke-linecap:butt;stroke-linejoin:miter;stroke-miterlimit:4;stroke-dasharray:none;stroke-opacity:1"
         d="M 458.18,236.719 354.996,206.652 c -14.805,0.703 -12.891,12.684 -12.891,12.684 -0.703,7.742 11.055,11.113 11.055,11.113 l 67.403,17.539" /><path
         id="path74"
         style="fill:#2b669e;fill-opacity:1;fill-rule:nonzero;stroke:none"
         d="m 422.164,248.137 c -0.859,0 -1.543,-0.344 -1.543,-0.774 0,-0.418 0.684,-0.769 1.543,-0.769 0.859,0 1.543,0.351 1.543,0.769 0,0.43 -0.684,0.774 -1.543,0.774" /><path
         id="path76"
         style="fill:none;stroke:#ffffff;stroke-width:4;stroke-linecap:butt;stroke-linejoin:miter;stroke-miterlimit:4;stroke-dasharray:none;stroke-opacity:1"
         d="m 422.164,248.137 c -0.859,0 -1.543,-0.344 -1.543,-0.774 0,-0.418 0.684,-0.769 1.543,-0.769 0.859,0 1.543,0.351 1.543,0.769 0,0.43 -0.684,0.774 -1.543,0.774 z" /><path
         id="path78"
         style="fill:#2b669e;fill-opacity:1;fill-rule:nonzero;stroke:none"
         d="m 243.605,76.3984 c 0,15.5938 32.516,28.2426 72.645,28.2426 40.094,0 72.613,-12.6488 72.613,-28.2426 l 0,41.3676 c 0,15.601 -32.519,28.242 -72.613,28.242 -40.129,0 -72.645,-12.641 -72.645,-28.242 l 0,-41.3676" /><path
         id="path80"
         style="fill:none;stroke:#ffffff;stroke-width:4;stroke-linecap:butt;stroke-linejoin:miter;stroke-miterlimit:4;stroke-dasharray:none;stroke-opacity:1"
         d="m 243.605,76.3984 c 0,15.5938 32.516,28.2426 72.645,28.2426 40.094,0 72.613,-12.6488 72.613,-28.2426 l 0,41.3676 c 0,15.601 -32.519,28.242 -72.613,28.242 -40.129,0 -72.645,-12.641 -72.645,-28.242 l 0,-41.3676 z" /><path
         id="path82"
         style="fill:#2b669e;fill-opacity:1;fill-rule:nonzero;stroke:none"
         d="m 316.25,104.641 c -40.129,0 -72.645,-12.6488 -72.645,-28.2426 0,-15.6093 32.516,-28.2421 72.645,-28.2421 40.094,0 72.613,12.6328 72.613,28.2421 0,15.5938 -32.519,28.2426 -72.613,28.2426" /><path
         id="path84"
         style="fill:none;stroke:#ffffff;stroke-width:4;stroke-linecap:butt;stroke-linejoin:miter;stroke-miterlimit:4;stroke-dasharray:none;stroke-opacity:1"
         d="m 316.25,104.641 c -40.129,0 -72.645,-12.6488 -72.645,-28.2426 0,-15.6093 32.516,-28.2421 72.645,-28.2421 40.094,0 72.613,12.6328 72.613,28.2421 0,15.5938 -32.519,28.2426 -72.613,28.2426 z" /><path
         id="path86"
         style="fill:#ffffff;fill-opacity:1;fill-rule:nonzero;stroke:none"
         d="m 332.828,65.3516 -5.992,8.9961 22.672,5.2421 -4.961,-4.1289 35.039,-5.9882 -8.789,-6.5899 -33.809,5.7305 -4.16,-3.2617" /><path
         id="path88"
         style="fill:#ffffff;fill-opacity:1;fill-rule:nonzero;stroke:none"
         d="m 300.93,87.1602 4.082,-9.2696 -20.449,-4.0898 3.55,3.1836 -34.082,5.8203 8.164,6.543 33.891,-6.3672 4.844,4.1797" /><path
         id="path90"
         style="fill:#ffffff;fill-opacity:1;fill-rule:nonzero;stroke:none"
         d="m 312.117,60.4414 -22.929,-6.2695 -0.274,9.8203 5.727,-1.0899 11.187,9.2774 10.676,-1.5625 -11.531,-9.082 7.144,-1.0938" /><path
         id="path92"
         style="fill:#ffffff;fill-opacity:1;fill-rule:nonzero;stroke:none"
         d="m 321.926,95.625 21.801,4.082 0.82,-10.0898 -6.27,1.3711 -12.007,-10.2539 -10.633,1.7969 12.82,11.1679 -6.531,1.9258" /></g></g></svg>