<svg xmlns="http://www.w3.org/2000/svg" viewBox="0 0 80 43.75" height="43.75" width="80"><path d="M55.2 34.458c.122 1.948-.761 4.116-2.544 5.732-1.87 1.7-4.252 2.364-6.245 1.934" fill="none" stroke="#2b669e" stroke-width=".5" stroke-linecap="round" stroke-linejoin="round" stroke-miterlimit="1"/><path d="M54.365 34.175c.117 1.811-.707 3.827-2.363 5.331-1.738 1.583-3.96 2.198-5.81 1.798" fill="none" stroke="#2b669e" stroke-width=".5" stroke-linecap="round" stroke-linejoin="round" stroke-miterlimit="1"/><path d="M53.53 33.891c.108 1.675-.654 3.54-2.188 4.933-1.606 1.464-3.657 2.034-5.37 1.665" fill="none" stroke="#2b669e" stroke-width=".5" stroke-linecap="round" stroke-linejoin="round" stroke-miterlimit="1"/><path d="M52.7 33.608c.092 1.538-.605 3.257-2.011 4.532-1.48 1.347-3.365 1.87-4.941 1.527" fill="none" stroke="#2b669e" stroke-width=".5" stroke-linecap="round" stroke-linejoin="round" stroke-miterlimit="1"/><path d="M51.865 33.325c.088 1.401-.551 2.968-1.836 4.131-1.348 1.23-3.067 1.704-4.502 1.397" fill="none" stroke="#2b669e" stroke-width=".5" stroke-linecap="round" stroke-linejoin="round" stroke-miterlimit="1"/><path d="M51.03 33.042c.079 1.269-.497 2.68-1.655 3.735-1.221 1.104-2.774 1.538-4.067 1.255" fill="none" stroke="#2b669e" stroke-width=".5" stroke-linecap="round" stroke-linejoin="round" stroke-miterlimit="1"/><path d="M50.195 32.759c.074 1.132-.444 2.392-1.479 3.335-1.089.986-2.476 1.372-3.633 1.122" fill="none" stroke="#2b669e" stroke-width=".5" stroke-linecap="round" stroke-linejoin="round" stroke-miterlimit="1"/><path d="M49.36 32.475c.064.996-.39 2.105-1.299 2.935-.96.869-2.182 1.211-3.197.986" fill="none" stroke="#2b669e" stroke-width=".5" stroke-linecap="round" stroke-linejoin="round" stroke-miterlimit="1"/><path d="M.249 25.317v-1.66l16.782-6.152 7.641 1.317 4.59.89 3.146.654.077 2.11" fill="#2b669e"/><path d="M.249 25.317v-1.66l16.782-6.152 7.641 1.319 4.59.888 3.146.654.077 2.11" fill="none" stroke="#fff" stroke-width=".5"/><path d="M39.434.976c-2.129 0-3.858.758-3.858 1.69 0 .933 1.73 1.689 3.858 1.689 2.133 0 3.862-.756 3.862-1.689 0-.932-1.729-1.69-3.862-1.69" fill="#2b669e"/><path d="M39.434.976c-2.129 0-3.858.757-3.858 1.69 0 .933 1.73 1.689 3.858 1.689 2.133 0 3.862-.756 3.862-1.689S41.567.976 39.434.976z" fill="none" stroke="#fff" stroke-width=".5"/><path d="M24.209 20.83l-7.222-1.152L.25 25.318l14.623 2.29 17.613-5.133-5.063-.859" fill="#2b669e"/><path d="M24.209 20.83l-7.222-1.153L.25 25.317l14.623 2.29 17.613-5.132-5.063-.859" fill="none" stroke="#fff" stroke-width=".5"/><path d="M25.425 20.533c-5.195 1.322-6.334 2.607-6.334 2.607 1.754.844 8.038-1.431 8.038-1.431l1.114-.381-2.818-.795" fill="#2b669e"/><path d="M25.425 20.532c-5.195 1.323-6.334 2.608-6.334 2.608 1.754.843 8.038-1.432 8.038-1.432l1.114-.38-2.818-.796z" fill="none" stroke="#fff" stroke-width=".5"/><path d="M27.422 21.616l5.063.884-17.612 5.107-14.624-2.29 16.738-5.64 7.3 1.124c-4.185 1.015-5.147 2.34-5.147 2.34 1.753.843 7.246-1.184 7.246-1.184l.025-.033 5.078-1.553v-2.799l-6.63 2.257-.074.03s-.308.702-.308.942" fill="#2b669e"/><path d="M27.422 21.616l5.063.884-17.612 5.107-14.624-2.29 16.738-5.64 7.3 1.124c-4.185 1.015-5.147 2.339-5.147 2.339 1.753.843 7.246-1.183 7.246-1.183l.025-.033 5.078-1.553v-2.797l-6.63 2.255-.074.03s-.308.702-.308.942" fill="none" stroke="#fff" stroke-width=".5"/><path d="M24.844 20.825c-.054-.01-.108.049-.123.133-.013.082.015.156.069.165.054.01.108-.05.123-.132.013-.083-.02-.156-.07-.166" fill="#2b669e"/><path d="M24.844 20.825c-.054-.01-.108.049-.123.133-.013.082.015.156.069.165.054.01.108-.05.123-.132.013-.082-.02-.156-.07-.166z" fill="none" stroke="#fff" stroke-width=".5"/><path d="M47.431 27.216V6.43c0-1.924-3.569-3.486-7.969-3.486-4.403 0-7.973 1.562-7.973 3.486v20.968" fill="#2b669e"/><path d="M47.431 27.216V6.43c0-1.924-3.569-3.486-7.969-3.486-4.403 0-7.973 1.562-7.973 3.486v20.967" fill="none" stroke="#fff" stroke-width=".5"/><path d="M46.519 10.781V8.886L64.047 2.68l15.415 3.57.03 2.241" fill="#2b669e"/><path d="M46.519 10.781V8.886L64.047 2.68l15.415 3.57.03 2.241" fill="none" stroke="#fff" stroke-width=".5"/><path d="M52.159 11.583l-5.64-.802 17.528-5.81 15.415 3.564-18.368 5.156-4.219-.722" fill="#2b669e"/><path d="M52.159 11.583l-5.64-.802 17.528-5.81 15.415 3.564-18.368 5.156-4.219-.722" fill="none" stroke="#fff" stroke-width=".5"/><path d="M56.962 13.007c3.878-.966 5.29-2.905 5.29-2.905-5.85-.17-10.036 1.51-10.036 1.51" fill="#2b669e"/><path d="M56.962 13.007c3.878-.966 5.29-2.905 5.29-2.905-5.85-.17-10.036 1.51-10.036 1.51" fill="none" stroke="#fff" stroke-width=".5"/><path d="M57.27 12.91l-12.895 3.76c-1.85-.088-1.611-1.588-1.611-1.588-.088-.966 1.381-1.386 1.381-1.386l8.424-2.192" fill="#2b669e"/><path d="M57.27 12.91l-12.895 3.76c-1.85-.088-1.611-1.588-1.611-1.588-.088-.966 1.381-1.386 1.381-1.386l8.424-2.193" fill="none" stroke="#fff" stroke-width=".5"/><path d="M52.769 11.484c-.108 0-.191.045-.191.098 0 .05.083.093.19.093.109 0 .196-.044.196-.093 0-.053-.087-.098-.195-.098" fill="#2b669e"/><path d="M52.769 11.483c-.108 0-.191.046-.191.1 0 .048.083.092.19.092.109 0 .196-.044.196-.092 0-.054-.087-.1-.195-.1z" fill="none" stroke="#fff" stroke-width=".5"/><path d="M30.449 32.949c0-1.948 4.067-3.53 9.082-3.53 5.01 0 9.078 1.582 9.078 3.53v-5.17c0-1.949-4.068-3.532-9.078-3.532-5.015 0-9.082 1.583-9.082 3.532v5.17" fill="#2b669e"/><path d="M30.449 32.949c0-1.948 4.067-3.53 9.082-3.53 5.01 0 9.078 1.582 9.078 3.53v-5.17c0-1.949-4.068-3.532-9.078-3.532-5.015 0-9.082 1.583-9.082 3.532v5.17z" fill="none" stroke="#fff" stroke-width=".5"/><path d="M39.531 29.419c-5.015 0-9.082 1.583-9.082 3.53 0 1.953 4.067 3.53 9.082 3.53 5.01 0 9.078-1.577 9.078-3.53 0-1.947-4.068-3.53-9.078-3.53" fill="#2b669e"/><path d="M39.531 29.419c-5.015 0-9.082 1.582-9.082 3.53 0 1.953 4.067 3.531 9.082 3.531 5.01 0 9.078-1.578 9.078-3.531 0-1.948-4.068-3.53-9.078-3.53z" fill="none" stroke="#fff" stroke-width=".5"/><path d="M41.601 34.331l-.746-1.123 2.831-.654-.62.512 4.38.753-1.098.82-4.224-.713-.523.405M37.618 31.606l.507 1.158-2.554.512.444-.4-4.263-.727 1.022-.816 4.237.796.607-.523M39.014 34.946l-2.867.782-.033-1.227.717.138 1.397-1.163 1.337.195-1.445 1.14.894.135M40.239 30.546l2.725-.507.102 1.26-.78-.172-1.5 1.28-1.333-.224 1.602-1.397-.816-.24" fill="#fff"/></svg>