<?xml version="1.0" encoding="UTF-8" standalone="no"?>
<svg
   xmlns:dc="http://purl.org/dc/elements/1.1/"
   xmlns:cc="http://creativecommons.org/ns#"
   xmlns:rdf="http://www.w3.org/1999/02/22-rdf-syntax-ns#"
   xmlns:svg="http://www.w3.org/2000/svg"
   xmlns="http://www.w3.org/2000/svg"
   viewBox="0 0 80 43.75"
   height="43.75"
   width="80"
   xml:space="preserve"
   version="1.1"
   id="svg2"><metadata
     id="metadata8"><rdf:RDF><cc:Work
         rdf:about=""><dc:format>image/svg+xml</dc:format><dc:type
           rdf:resource="http://purl.org/dc/dcmitype/StillImage" /></cc:Work></rdf:RDF></metadata><defs
     id="defs6" /><g
     transform="matrix(1.25,0,0,-1.25,0,43.75)"
     id="g10"><g
       transform="scale(0.1,0.1)"
       id="g12"><path
         id="path14"
         style="fill:none;stroke:#2b669e;stroke-width:4;stroke-linecap:round;stroke-linejoin:round;stroke-miterlimit:1;stroke-dasharray:none;stroke-opacity:1"
         d="M 441.602,74.3398 C 442.578,58.75 435.512,41.4102 421.25,28.4805 406.289,14.8828 387.23,9.57031 371.289,13.0117" /><path
         id="path16"
         style="fill:none;stroke:#2b669e;stroke-width:4;stroke-linecap:round;stroke-linejoin:round;stroke-miterlimit:1;stroke-dasharray:none;stroke-opacity:1"
         d="M 434.922,76.6016 C 435.859,62.1094 429.262,45.9805 416.02,33.9492 402.109,21.2891 384.34,16.3711 369.531,19.5703" /><path
         id="path18"
         style="fill:none;stroke:#2b669e;stroke-width:4;stroke-linecap:round;stroke-linejoin:round;stroke-miterlimit:1;stroke-dasharray:none;stroke-opacity:1"
         d="M 428.238,78.8711 C 429.102,65.4727 423.012,50.5508 410.738,39.4102 397.891,27.6992 381.48,23.1328 367.77,26.0898" /><path
         id="path20"
         style="fill:none;stroke:#2b669e;stroke-width:4;stroke-linecap:round;stroke-linejoin:round;stroke-miterlimit:1;stroke-dasharray:none;stroke-opacity:1"
         d="M 421.602,81.1328 C 422.34,68.832 416.762,55.082 405.512,44.8828 393.672,34.1016 378.59,29.9219 365.98,32.6602" /><path
         id="path22"
         style="fill:none;stroke:#2b669e;stroke-width:4;stroke-linecap:round;stroke-linejoin:round;stroke-miterlimit:1;stroke-dasharray:none;stroke-opacity:1"
         d="M 414.922,83.4023 C 415.621,72.1914 410.512,59.6523 400.23,50.3516 389.449,40.5117 375.699,36.7227 364.219,39.1797" /><path
         id="path24"
         style="fill:none;stroke:#2b669e;stroke-width:4;stroke-linecap:round;stroke-linejoin:round;stroke-miterlimit:1;stroke-dasharray:none;stroke-opacity:1"
         d="M 408.238,85.6602 C 408.871,75.5117 404.262,64.2227 395,55.7813 385.23,46.9492 372.809,43.4805 362.461,45.7422" /><path
         id="path26"
         style="fill:none;stroke:#2b669e;stroke-width:4;stroke-linecap:round;stroke-linejoin:round;stroke-miterlimit:1;stroke-dasharray:none;stroke-opacity:1"
         d="M 401.559,87.9297 C 402.148,78.8711 398.012,68.7891 389.73,61.25 381.02,53.3594 369.922,50.2695 360.66,52.2695" /><path
         id="path28"
         style="fill:none;stroke:#2b669e;stroke-width:4;stroke-linecap:round;stroke-linejoin:round;stroke-miterlimit:1;stroke-dasharray:none;stroke-opacity:1"
         d="M 394.879,90.1992 C 395.391,82.2305 391.762,73.3594 384.488,66.7227 376.801,59.7695 367.031,57.0313 358.91,58.832" /><path
         id="path30"
         style="fill:#2b669e;fill-opacity:1;fill-rule:nonzero;stroke:none"
         d="m 1.98828,147.461 0,13.277 134.26172,49.223 61.129,-10.539 36.723,-7.113 25.16,-5.239 0.617,-16.871" /><path
         id="path32"
         style="fill:none;stroke:#ffffff;stroke-width:4;stroke-linecap:butt;stroke-linejoin:miter;stroke-miterlimit:4;stroke-dasharray:none;stroke-opacity:1"
         d="m 1.98828,147.461 0,13.281 134.26172,49.219 61.129,-10.551 36.723,-7.109 25.16,-5.231 0.617,-16.871" /><path
         id="path34"
         style="fill:#2b669e;fill-opacity:1;fill-rule:nonzero;stroke:none"
         d="m 315.469,342.191 c -17.028,0 -30.86,-6.062 -30.86,-13.519 0,-7.461 13.832,-13.512 30.86,-13.512 17.07,0 30.902,6.051 30.902,13.512 0,7.457 -13.832,13.519 -30.902,13.519" /><path
         id="path36"
         style="fill:none;stroke:#ffffff;stroke-width:4;stroke-linecap:butt;stroke-linejoin:miter;stroke-miterlimit:4;stroke-dasharray:none;stroke-opacity:1"
         d="m 315.469,342.191 c -17.028,0 -30.86,-6.058 -30.86,-13.519 0,-7.461 13.832,-13.512 30.86,-13.512 17.07,0 30.902,6.051 30.902,13.512 0,7.461 -13.832,13.519 -30.902,13.519 z" /><path
         id="path38"
         style="fill:#2b669e;fill-opacity:1;fill-rule:nonzero;stroke:none"
         d="M 193.672,183.359 135.898,192.578 1.98828,147.461 118.98,129.141 l 140.899,41.058 -40.5,6.871" /><path
         id="path40"
         style="fill:none;stroke:#ffffff;stroke-width:4;stroke-linecap:butt;stroke-linejoin:miter;stroke-miterlimit:4;stroke-dasharray:none;stroke-opacity:1"
         d="M 193.672,183.359 135.898,192.582 1.98828,147.461 118.98,129.141 l 140.899,41.058 -40.5,6.871" /><path
         id="path42"
         style="fill:#2b669e;fill-opacity:1;fill-rule:nonzero;stroke:none"
         d="M 203.398,185.738 C 161.84,175.16 152.73,164.879 152.73,164.879 c 14.032,-6.75 64.301,11.449 64.301,11.449 l 8.91,3.051 -22.543,6.359" /><path
         id="path44"
         style="fill:none;stroke:#ffffff;stroke-width:4;stroke-linecap:butt;stroke-linejoin:miter;stroke-miterlimit:4;stroke-dasharray:none;stroke-opacity:1"
         d="M 203.398,185.742 C 161.84,175.16 152.73,164.883 152.73,164.883 c 14.032,-6.75 64.301,11.449 64.301,11.449 l 8.91,3.051 -22.543,6.359 z" /><path
         id="path46"
         style="fill:#2b669e;fill-opacity:1;fill-rule:nonzero;stroke:none"
         d="M 219.379,177.07 259.879,170 118.98,129.141 1.98828,147.461 135.898,192.578 194.301,183.59 c -33.481,-8.121 -41.18,-18.711 -41.18,-18.711 14.027,-6.75 57.969,9.461 57.969,9.461 l 0.199,0.269 40.621,12.422 0,22.391 -53.039,-18.051 -0.59,-0.242 c 0,0 -2.461,-5.617 -2.461,-7.539" /><path
         id="path48"
         style="fill:none;stroke:#ffffff;stroke-width:4;stroke-linecap:butt;stroke-linejoin:miter;stroke-miterlimit:4;stroke-dasharray:none;stroke-opacity:1"
         d="M 219.379,177.07 259.879,170 118.98,129.141 1.98828,147.461 135.898,192.582 194.301,183.59 c -33.481,-8.117 -41.18,-18.707 -41.18,-18.707 14.027,-6.75 57.969,9.457 57.969,9.457 l 0.199,0.269 40.621,12.422 0,22.379 -53.039,-18.039 -0.59,-0.238 c 0,0 -2.461,-5.621 -2.461,-7.543" /><path
         id="path50"
         style="fill:#2b669e;fill-opacity:1;fill-rule:nonzero;stroke:none"
         d="m 198.75,183.398 c -0.43,0.082 -0.859,-0.386 -0.98,-1.058 -0.11,-0.66 0.121,-1.25 0.55,-1.32 0.43,-0.079 0.86,0.39 0.981,1.05 0.109,0.668 -0.16,1.25 -0.551,1.328" /><path
         id="path52"
         style="fill:none;stroke:#ffffff;stroke-width:4;stroke-linecap:butt;stroke-linejoin:miter;stroke-miterlimit:4;stroke-dasharray:none;stroke-opacity:1"
         d="m 198.75,183.402 c -0.43,0.078 -0.859,-0.39 -0.98,-1.062 -0.11,-0.66 0.121,-1.25 0.55,-1.32 0.43,-0.079 0.86,0.39 0.981,1.05 0.109,0.66 -0.16,1.25 -0.551,1.332 z" /><path
         id="path54"
         style="fill:#2b669e;fill-opacity:1;fill-rule:nonzero;stroke:none"
         d="m 379.449,132.27 0,166.289 c 0,15.39 -28.551,27.89 -63.75,27.89 -35.23,0 -63.789,-12.5 -63.789,-27.89 l 0,-167.739" /><path
         id="path56"
         style="fill:none;stroke:#ffffff;stroke-width:4;stroke-linecap:butt;stroke-linejoin:miter;stroke-miterlimit:4;stroke-dasharray:none;stroke-opacity:1"
         d="m 379.449,132.27 0,166.293 c 0,15.386 -28.551,27.886 -63.75,27.886 -35.23,0 -63.789,-12.5 -63.789,-27.886 l 0,-167.743" /><path
         id="path58"
         style="fill:#2b669e;fill-opacity:1;fill-rule:nonzero;stroke:none"
         d="m 372.148,263.75 0,15.16 140.231,49.649 123.32,-28.559 0.242,-17.93" /><path
         id="path60"
         style="fill:none;stroke:#ffffff;stroke-width:4;stroke-linecap:butt;stroke-linejoin:miter;stroke-miterlimit:4;stroke-dasharray:none;stroke-opacity:1"
         d="m 372.148,263.75 0,15.16 140.231,49.653 123.32,-28.563 0.242,-17.93" /><path
         id="path62"
         style="fill:#2b669e;fill-opacity:1;fill-rule:nonzero;stroke:none"
         d="m 417.27,257.34 -45.122,6.41 140.231,46.488 123.32,-28.519 L 488.75,240.469 455,246.25" /><path
         id="path64"
         style="fill:none;stroke:#ffffff;stroke-width:4;stroke-linecap:butt;stroke-linejoin:miter;stroke-miterlimit:4;stroke-dasharray:none;stroke-opacity:1"
         d="m 417.27,257.34 -45.122,6.41 140.231,46.48 123.32,-28.507 L 488.75,240.473 455,246.25" /><path
         id="path66"
         style="fill:#2b669e;fill-opacity:1;fill-rule:nonzero;stroke:none"
         d="m 455.699,245.941 c 31.02,7.731 42.313,23.239 42.313,23.239 -46.801,1.371 -80.282,-12.071 -80.282,-12.071" /><path
         id="path68"
         style="fill:none;stroke:#ffffff;stroke-width:4;stroke-linecap:butt;stroke-linejoin:miter;stroke-miterlimit:4;stroke-dasharray:none;stroke-opacity:1"
         d="m 455.699,245.941 c 31.02,7.731 42.313,23.239 42.313,23.239 -46.801,1.371 -80.282,-12.071 -80.282,-12.071" /><path
         id="path70"
         style="fill:#2b669e;fill-opacity:1;fill-rule:nonzero;stroke:none"
         d="M 458.16,246.719 355,216.641 c -14.801,0.699 -12.891,12.699 -12.891,12.699 -0.699,7.73 11.051,11.09 11.051,11.09 l 67.391,17.539" /><path
         id="path72"
         style="fill:none;stroke:#ffffff;stroke-width:4;stroke-linecap:butt;stroke-linejoin:miter;stroke-miterlimit:4;stroke-dasharray:none;stroke-opacity:1"
         d="M 458.16,246.723 355,216.641 c -14.801,0.699 -12.891,12.699 -12.891,12.699 -0.699,7.73 11.051,11.09 11.051,11.09 l 67.391,17.543" /><path
         id="path74"
         style="fill:#2b669e;fill-opacity:1;fill-rule:nonzero;stroke:none"
         d="m 422.148,258.129 c -0.859,0 -1.527,-0.359 -1.527,-0.789 0,-0.391 0.668,-0.738 1.527,-0.738 0.864,0 1.563,0.347 1.563,0.738 0,0.43 -0.699,0.789 -1.563,0.789" /><path
         id="path76"
         style="fill:none;stroke:#ffffff;stroke-width:4;stroke-linecap:butt;stroke-linejoin:miter;stroke-miterlimit:4;stroke-dasharray:none;stroke-opacity:1"
         d="m 422.148,258.133 c -0.859,0 -1.527,-0.363 -1.527,-0.793 0,-0.391 0.668,-0.738 1.527,-0.738 0.864,0 1.563,0.347 1.563,0.738 0,0.43 -0.699,0.793 -1.563,0.793 z" /><path
         id="path78"
         style="fill:#2b669e;fill-opacity:1;fill-rule:nonzero;stroke:none"
         d="m 243.59,86.4102 c 0,15.5778 32.539,28.2378 72.66,28.2378 40.078,0 72.621,-12.66 72.621,-28.2378 l 0,41.3598 c 0,15.589 -32.543,28.25 -72.621,28.25 -40.121,0 -72.66,-12.661 -72.66,-28.25 l 0,-41.3598" /><path
         id="path80"
         style="fill:none;stroke:#ffffff;stroke-width:4;stroke-linecap:butt;stroke-linejoin:miter;stroke-miterlimit:4;stroke-dasharray:none;stroke-opacity:1"
         d="m 243.59,86.4102 c 0,15.5818 32.539,28.2418 72.66,28.2418 40.078,0 72.621,-12.66 72.621,-28.2418 l 0,41.3598 c 0,15.589 -32.543,28.25 -72.621,28.25 -40.121,0 -72.66,-12.661 -72.66,-28.25 l 0,-41.3598 z" /><path
         id="path82"
         style="fill:#2b669e;fill-opacity:1;fill-rule:nonzero;stroke:none"
         d="m 316.25,114.648 c -40.121,0 -72.66,-12.66 -72.66,-28.2378 0,-15.6289 32.539,-28.2383 72.66,-28.2383 40.078,0 72.621,12.6094 72.621,28.2383 0,15.5778 -32.543,28.2378 -72.621,28.2378" /><path
         id="path84"
         style="fill:none;stroke:#ffffff;stroke-width:4;stroke-linecap:butt;stroke-linejoin:miter;stroke-miterlimit:4;stroke-dasharray:none;stroke-opacity:1"
         d="m 316.25,114.652 c -40.121,0 -72.66,-12.66 -72.66,-28.2418 0,-15.6289 32.539,-28.25 72.66,-28.25 40.078,0 72.621,12.6211 72.621,28.25 0,15.5818 -32.543,28.2418 -72.621,28.2418 z" /><path
         id="path86"
         style="fill:#ffffff;fill-opacity:1;fill-rule:nonzero;stroke:none"
         d="m 332.809,75.3516 -5.969,8.9882 22.648,5.2305 -4.957,-4.1015 35.039,-6.0196 -8.789,-6.5586 -33.793,5.6992 -4.179,-3.2382" /><path
         id="path88"
         style="fill:#ffffff;fill-opacity:1;fill-rule:nonzero;stroke:none"
         d="m 300.941,97.1484 4.059,-9.2578 -20.43,-4.1015 3.551,3.1992 -34.101,5.8203 8.171,6.5312 33.899,-6.371 4.851,4.1796" /><path
         id="path90"
         style="fill:#ffffff;fill-opacity:1;fill-rule:nonzero;stroke:none"
         d="m 312.109,70.4297 -22.929,-6.25 -0.27,9.8086 5.738,-1.0977 11.172,9.3008 10.7,-1.5625 -11.559,-9.1094 7.148,-1.0898" /><path
         id="path92"
         style="fill:#ffffff;fill-opacity:1;fill-rule:nonzero;stroke:none"
         d="m 321.91,105.629 21.801,4.062 0.82,-10.0816 -6.25,1.3706 -11.992,-10.2417 -10.668,1.8008 12.82,11.1719 -6.531,1.918" /></g></g></svg>