<?xml version="1.0" encoding="UTF-8" standalone="no"?>
<svg
   xmlns:dc="http://purl.org/dc/elements/1.1/"
   xmlns:cc="http://creativecommons.org/ns#"
   xmlns:rdf="http://www.w3.org/1999/02/22-rdf-syntax-ns#"
   xmlns:svg="http://www.w3.org/2000/svg"
   xmlns="http://www.w3.org/2000/svg"
   viewBox="0 0 31.5875 55.799999"
   height="55.799999"
   width="31.5875"
   xml:space="preserve"
   version="1.1"
   id="svg2"><metadata
     id="metadata8"><rdf:RDF><cc:Work
         rdf:about=""><dc:format>image/svg+xml</dc:format><dc:type
           rdf:resource="http://purl.org/dc/dcmitype/StillImage" /></cc:Work></rdf:RDF></metadata><defs
     id="defs6"><clipPath
       id="clipPath18"
       clipPathUnits="userSpaceOnUse"><path
         id="path20"
         d="M 0,0 0,446 250,446 250,0 0,0 Z" /></clipPath></defs><g
     transform="matrix(1.25,0,0,-1.25,0,55.8)"
     id="g10"><g
       transform="scale(0.1,0.1)"
       id="g12"><g
         id="g14"><g
           clip-path="url(#clipPath18)"
           id="g16"><path
             id="path22"
             style="fill:#036998;fill-opacity:1;fill-rule:nonzero;stroke:none"
             d="M 69.3281,262.5 C 48.4063,258.828 1.82422,239.852 1.82422,215.527 c 0,-23.761 49.39458,-45.382 69.14458,-50.254" /><path
             id="path24"
             style="fill:none;stroke:#ffffff;stroke-width:3.99993992;stroke-linecap:butt;stroke-linejoin:miter;stroke-miterlimit:4;stroke-dasharray:none;stroke-opacity:1"
             d="M 69.3281,262.5 C 48.4063,258.828 1.82422,239.852 1.82422,215.527 c 0,-23.761 49.39458,-45.382 69.14458,-50.254" /><path
             id="path26"
             style="fill:#036998;fill-opacity:1;fill-rule:nonzero;stroke:none"
             d="m 178.535,441.309 c -18.269,0 -85.2537,-64.18 -103.5233,-131.922 -9.3164,-34.582 -4.8047,-71.633 -4.8047,-100.012 0,-25.496 -3.75,-54.766 4.6172,-83.176 C 94.043,61.0625 163.926,2.01953 183.137,2.01953" /><path
             id="path28"
             style="fill:none;stroke:#ffffff;stroke-width:3.99993992;stroke-linecap:butt;stroke-linejoin:miter;stroke-miterlimit:4;stroke-dasharray:none;stroke-opacity:1"
             d="m 178.535,441.309 c -18.269,0 -85.2537,-64.18 -103.5233,-131.922 -9.3164,-34.582 -4.8047,-71.633 -4.8047,-100.012 0,-25.496 -3.75,-54.766 4.6172,-83.176 C 94.043,61.0625 163.926,2.01953 183.137,2.01953" /><path
             id="path30"
             style="fill:#036998;fill-opacity:1;fill-rule:nonzero;stroke:none"
             d="m 187.742,1.63281 c 34.797,0 63,99.20719 63,221.57019 0,122.363 -28.203,221.57 -63,221.57 -34.781,0 -62.984,-99.207 -62.984,-221.57 0,-122.363 28.203,-221.57019 62.984,-221.57019" /><path
             id="path32"
             style="fill:none;stroke:#ffffff;stroke-width:3.99993992;stroke-linecap:butt;stroke-linejoin:miter;stroke-miterlimit:4;stroke-dasharray:none;stroke-opacity:1"
             d="m 187.742,1.63281 c 34.797,0 63,99.20719 63,221.57019 0,122.363 -28.203,221.57 -63,221.57 -34.781,0 -62.984,-99.207 -62.984,-221.57 0,-122.363 28.203,-221.57019 62.984,-221.57019 z" /><path
             id="path34"
             style="fill:#036998;fill-opacity:1;fill-rule:nonzero;stroke:none"
             d="m 240.164,252.988 c -0.152,9.16 -11.441,16.356 -25.215,16.082 -13.789,-0.269 -25.113,9.864 -24.871,-5.41 l 1.477,-90.605 c 0.242,-15.274 11.226,-3.465 25,-3.192 13.789,0.274 24.824,7.93 24.683,17.078 l -1.074,66.047" /><path
             id="path36"
             style="fill:none;stroke:#ffffff;stroke-width:3.99993992;stroke-linecap:butt;stroke-linejoin:miter;stroke-miterlimit:4;stroke-dasharray:none;stroke-opacity:1"
             d="m 240.164,252.988 c -0.152,9.16 -11.441,16.356 -25.215,16.082 -13.789,-0.269 -25.113,9.864 -24.871,-5.41 l 1.477,-90.605 c 0.242,-15.274 11.226,-3.465 25,-3.192 13.789,0.274 24.824,7.93 24.683,17.078 l -1.074,66.047 z" /><path
             id="path38"
             style="fill:#036998;fill-opacity:1;fill-rule:nonzero;stroke:none"
             d="m 148.953,64.7734 39.57,68.8866 c 7.793,13.125 12.524,-3.152 25.649,-10.957 13.125,-7.801 19.976,-20.508 15.293,-28.3866 l -33.75,-56.7773 c -4.68,-7.8711 -19.113,-7.9297 -32.246,-0.1289 -3.281,1.9453 -4.231,2.6289 -7.446,3.6836" /><path
             id="path40"
             style="fill:none;stroke:#ffffff;stroke-width:3.99993992;stroke-linecap:butt;stroke-linejoin:miter;stroke-miterlimit:4;stroke-dasharray:none;stroke-opacity:1"
             d="m 148.953,64.7734 39.57,68.8866 c 7.793,13.125 12.524,-3.152 25.649,-10.957 13.125,-7.801 19.976,-20.508 15.293,-28.3866 l -33.75,-56.7773 c -4.68,-7.8711 -19.113,-7.9297 -32.246,-0.1289 -3.281,1.9453 -4.231,2.6289 -7.446,3.6836" /><path
             id="path42"
             style="fill:#036998;fill-opacity:1;fill-rule:nonzero;stroke:none"
             d="m 133.895,128.027 c 4.984,-7.922 7.824,-12.433 13.918,-12.433 19.191,0 34.753,44.75 34.753,99.933 0,55.188 -15.562,99.922 -34.753,99.922 -7.977,0 -12.454,-7.726 -18.309,-20.715" /><path
             id="path44"
             style="fill:none;stroke:#ffffff;stroke-width:3.99993992;stroke-linecap:butt;stroke-linejoin:miter;stroke-miterlimit:4;stroke-dasharray:none;stroke-opacity:1"
             d="m 133.895,128.027 c 4.984,-7.922 7.824,-12.433 13.918,-12.433 19.191,0 34.753,44.75 34.753,99.933 0,55.188 -15.562,99.922 -34.753,99.922 -7.977,0 -12.454,-7.726 -18.309,-20.715" /><path
             id="path46"
             style="fill:#036998;fill-opacity:1;fill-rule:nonzero;stroke:none"
             d="m 129.387,166.367 13.816,0 c 27.149,0 27.649,22.012 27.649,49.16 0,27.137 -0.5,49.149 -27.649,49.149 l -14.015,0" /><path
             id="path48"
             style="fill:none;stroke:#ffffff;stroke-width:3.99993992;stroke-linecap:butt;stroke-linejoin:miter;stroke-miterlimit:4;stroke-dasharray:none;stroke-opacity:1"
             d="m 129.387,166.367 13.816,0 c 27.149,0 27.649,22.012 27.649,49.16 0,27.137 -0.5,49.149 -27.649,49.149 l -14.015,0" /><path
             id="path50"
             style="fill:#036998;fill-opacity:1;fill-rule:nonzero;stroke:none"
             d="m 150.906,387.227 37.617,-63.731 c 7.793,-13.125 12.524,3.152 25.649,10.957 13.125,7.805 19.976,20.508 15.293,28.387 l -33.75,56.777 c -4.68,7.871 -17.524,8.555 -30.649,0.754" /><path
             id="path52"
             style="fill:none;stroke:#ffffff;stroke-width:3.99993992;stroke-linecap:butt;stroke-linejoin:miter;stroke-miterlimit:4;stroke-dasharray:none;stroke-opacity:1"
             d="m 150.906,387.227 37.617,-63.731 c 7.793,-13.125 12.524,3.152 25.649,10.957 13.125,7.805 19.976,20.508 15.293,28.387 l -33.75,56.777 c -4.68,7.871 -17.524,8.555 -30.649,0.754" /></g></g></g></g></svg>