<svg xmlns="http://www.w3.org/2000/svg" viewBox="0 0 31.25 57.5" height="57.5" width="31.25"><defs><clipPath id="a"><path d="M0 9v447h250V9H0z"/></clipPath></defs><g clip-path="url(#a)" transform="matrix(.13 0 0 -.13 0 57.5)"><path d="M69.34 272.48c-20.942-3.671-67.5-22.609-67.5-46.949 0-23.75 49.37-45.39 69.14-50.269" fill="#036998"/><path d="M69.34 272.48c-20.942-3.671-67.5-22.609-67.5-46.949 0-23.75 49.37-45.39 69.14-50.269" fill="none" stroke="#fff" stroke-width="4"/><path d="M178.52 451.309c-18.25 0-85.239-64.18-103.52-131.911-9.3-34.609-4.8-71.636-4.8-100.039 0-25.468-3.75-54.769 4.6-83.16 19.259-65.12 89.149-124.18 108.321-124.18" fill="#036998"/><path d="M178.52 451.309c-18.25 0-85.239-64.18-103.52-131.911-9.3-34.609-4.8-71.636-4.8-100.039 0-25.468-3.75-54.769 4.6-83.16 19.259-65.12 89.149-124.18 108.321-124.18" fill="none" stroke="#fff" stroke-width="4"/><path d="M187.73 11.621c34.809 0 63.008 99.219 63.008 221.57 0 122.379-28.199 221.598-63.008 221.598-34.761 0-62.96-99.219-62.96-221.598 0-122.351 28.199-221.57 62.96-221.57" fill="#036998"/><path d="M187.73 11.621c34.809 0 63.008 99.219 63.008 221.57 0 122.379-28.199 221.598-63.008 221.598-34.761 0-62.96-99.219-62.96-221.598 0-122.351 28.199-221.57 62.96-221.57z" fill="none" stroke="#fff" stroke-width="4"/><path d="M240.16 262.988c-.16 9.141-11.449 16.371-25.199 16.102-13.789-.281-25.121 9.84-24.883-5.43l1.481-90.59c.242-15.269 11.211-3.48 25-3.199 13.793.27 24.812 7.93 24.691 17.07l-1.09 66.047" fill="#036998"/><path d="M240.16 262.988c-.16 9.141-11.449 16.371-25.199 16.102-13.789-.281-25.121 9.84-24.883-5.43l1.481-90.59c.242-15.269 11.211-3.48 25-3.199 13.793.27 24.812 7.93 24.691 17.07l-1.09 66.047z" fill="none" stroke="#fff" stroke-width="4"/><path d="M148.949 74.79l39.571 68.87c7.808 13.121 12.531-3.172 25.66-10.941 13.121-7.809 19.961-20.508 15.269-28.399l-33.75-56.8c-4.679-7.848-19.097-7.93-32.219-.11-3.281 1.95-4.261 2.61-7.46 3.668" fill="#036998"/><path d="M148.949 74.79l39.571 68.87c7.808 13.121 12.531-3.172 25.66-10.941 13.121-7.809 19.961-20.508 15.269-28.399l-33.75-56.8c-4.679-7.848-19.097-7.93-32.219-.11-3.281 1.95-4.261 2.61-7.46 3.668" fill="none" stroke="#fff" stroke-width="4"/><path d="M133.91 138.031c4.961-7.929 7.809-12.422 13.899-12.422 19.179 0 34.769 44.731 34.769 99.922 0 55.199-15.59 99.918-34.769 99.918-7.969 0-12.457-7.73-18.321-20.699" fill="#036998"/><path d="M133.91 138.031c4.961-7.929 7.809-12.422 13.899-12.422 19.179 0 34.769 44.731 34.769 99.922 0 55.199-15.59 99.918-34.769 99.918-7.969 0-12.457-7.73-18.321-20.699" fill="none" stroke="#fff" stroke-width="4"/><path d="M129.379 176.352h13.82c27.153 0 27.66 22.027 27.66 49.179 0 27.149-.507 49.141-27.66 49.141H129.18" fill="#036998"/><path d="M129.379 176.352h13.82c27.153 0 27.66 22.027 27.66 49.179 0 27.149-.507 49.141-27.66 49.141H129.18" fill="none" stroke="#fff" stroke-width="4"/><path d="M150.898 397.211L188.52 333.5c7.808-13.121 12.531 3.16 25.66 10.941 13.121 7.809 19.961 20.508 15.269 28.399l-33.75 56.789c-4.679 7.851-17.5 8.562-30.621.75" fill="#036998"/><path d="M150.898 397.211L188.52 333.5c7.808-13.121 12.531 3.16 25.66 10.941 13.121 7.809 19.961 20.508 15.269 28.399l-33.75 56.789c-4.679 7.851-17.5 8.562-30.621.75" fill="none" stroke="#fff" stroke-width="4"/></g></svg>