<?xml version="1.0" encoding="UTF-8" standalone="no"?>
<svg
   xmlns:dc="http://purl.org/dc/elements/1.1/"
   xmlns:cc="http://creativecommons.org/ns#"
   xmlns:rdf="http://www.w3.org/1999/02/22-rdf-syntax-ns#"
   xmlns:svg="http://www.w3.org/2000/svg"
   xmlns="http://www.w3.org/2000/svg"
   viewBox="0 0 31.25 57.5"
   height="57.5"
   width="31.25"
   xml:space="preserve"
   version="1.1"
   id="svg2"><metadata
     id="metadata8"><rdf:RDF><cc:Work
         rdf:about=""><dc:format>image/svg+xml</dc:format><dc:type
           rdf:resource="http://purl.org/dc/dcmitype/StillImage" /></cc:Work></rdf:RDF></metadata><defs
     id="defs6"><clipPath
       id="clipPath18"
       clipPathUnits="userSpaceOnUse"><path
         id="path20"
         d="M 0,9 0,456 250,456 250,9 0,9 Z" /></clipPath></defs><g
     transform="matrix(1.25,0,0,-1.25,0,57.5)"
     id="g10"><g
       transform="scale(0.1,0.1)"
       id="g12"><g
         id="g14"><g
           clip-path="url(#clipPath18)"
           id="g16"><path
             id="path22"
             style="fill:#036998;fill-opacity:1;fill-rule:nonzero;stroke:none"
             d="M 69.3398,272.48 C 48.3984,268.809 1.83984,249.871 1.83984,225.531 c 0,-23.75 49.37106,-45.39 69.14066,-50.269" /><path
             id="path24"
             style="fill:none;stroke:#ffffff;stroke-width:3.99993992;stroke-linecap:butt;stroke-linejoin:miter;stroke-miterlimit:4;stroke-dasharray:none;stroke-opacity:1"
             d="M 69.3398,272.48 C 48.3984,268.809 1.83984,249.871 1.83984,225.531 c 0,-23.75 49.37106,-45.39 69.14066,-50.269" /><path
             id="path26"
             style="fill:#036998;fill-opacity:1;fill-rule:nonzero;stroke:none"
             d="m 178.52,451.309 c -18.25,0 -85.2387,-64.18 -103.52,-131.911 -9.3008,-34.609 -4.8008,-71.636 -4.8008,-100.039 0,-25.468 -3.75,-54.769 4.6016,-83.16 C 94.0586,71.0781 163.949,12.0195 183.121,12.0195" /><path
             id="path28"
             style="fill:none;stroke:#ffffff;stroke-width:3.99993992;stroke-linecap:butt;stroke-linejoin:miter;stroke-miterlimit:4;stroke-dasharray:none;stroke-opacity:1"
             d="m 178.52,451.309 c -18.25,0 -85.2387,-64.18 -103.52,-131.911 -9.3008,-34.609 -4.8008,-71.636 -4.8008,-100.039 0,-25.468 -3.75,-54.769 4.6016,-83.16 C 94.0586,71.0781 163.949,12.0195 183.121,12.0195" /><path
             id="path30"
             style="fill:#036998;fill-opacity:1;fill-rule:nonzero;stroke:none"
             d="m 187.73,11.6211 c 34.809,0 63.008,99.2189 63.008,221.5699 0,122.379 -28.199,221.598 -63.008,221.598 -34.761,0 -62.96,-99.219 -62.96,-221.598 0,-122.351 28.199,-221.5699 62.96,-221.5699" /><path
             id="path32"
             style="fill:none;stroke:#ffffff;stroke-width:3.99993992;stroke-linecap:butt;stroke-linejoin:miter;stroke-miterlimit:4;stroke-dasharray:none;stroke-opacity:1"
             d="m 187.73,11.6211 c 34.809,0 63.008,99.2189 63.008,221.5699 0,122.379 -28.199,221.598 -63.008,221.598 -34.761,0 -62.96,-99.219 -62.96,-221.598 0,-122.351 28.199,-221.5699 62.96,-221.5699 z" /><path
             id="path34"
             style="fill:#036998;fill-opacity:1;fill-rule:nonzero;stroke:none"
             d="m 240.16,262.988 c -0.16,9.141 -11.449,16.371 -25.199,16.102 -13.789,-0.281 -25.121,9.84 -24.883,-5.43 l 1.481,-90.59 c 0.242,-15.269 11.211,-3.48 25,-3.199 13.793,0.27 24.812,7.93 24.691,17.07 l -1.09,66.047" /><path
             id="path36"
             style="fill:none;stroke:#ffffff;stroke-width:3.99993992;stroke-linecap:butt;stroke-linejoin:miter;stroke-miterlimit:4;stroke-dasharray:none;stroke-opacity:1"
             d="m 240.16,262.988 c -0.16,9.141 -11.449,16.371 -25.199,16.102 -13.789,-0.281 -25.121,9.84 -24.883,-5.43 l 1.481,-90.59 c 0.242,-15.269 11.211,-3.48 25,-3.199 13.793,0.27 24.812,7.93 24.691,17.07 l -1.09,66.047 z" /><path
             id="path38"
             style="fill:#036998;fill-opacity:1;fill-rule:nonzero;stroke:none"
             d="M 148.949,74.7891 188.52,143.66 c 7.808,13.121 12.531,-3.172 25.66,-10.941 13.121,-7.809 19.961,-20.508 15.269,-28.399 l -33.75,-56.8005 c -4.679,-7.8476 -19.097,-7.9297 -32.219,-0.1093 -3.281,1.9492 -4.261,2.6093 -7.46,3.6679" /><path
             id="path40"
             style="fill:none;stroke:#ffffff;stroke-width:3.99993992;stroke-linecap:butt;stroke-linejoin:miter;stroke-miterlimit:4;stroke-dasharray:none;stroke-opacity:1"
             d="M 148.949,74.7891 188.52,143.66 c 7.808,13.121 12.531,-3.172 25.66,-10.941 13.121,-7.809 19.961,-20.508 15.269,-28.399 l -33.75,-56.8005 c -4.679,-7.8476 -19.097,-7.9297 -32.219,-0.1093 -3.281,1.9492 -4.261,2.6093 -7.46,3.6679" /><path
             id="path42"
             style="fill:#036998;fill-opacity:1;fill-rule:nonzero;stroke:none"
             d="m 133.91,138.031 c 4.961,-7.929 7.809,-12.422 13.899,-12.422 19.179,0 34.769,44.731 34.769,99.922 0,55.199 -15.59,99.918 -34.769,99.918 -7.969,0 -12.457,-7.73 -18.321,-20.699" /><path
             id="path44"
             style="fill:none;stroke:#ffffff;stroke-width:3.99993992;stroke-linecap:butt;stroke-linejoin:miter;stroke-miterlimit:4;stroke-dasharray:none;stroke-opacity:1"
             d="m 133.91,138.031 c 4.961,-7.929 7.809,-12.422 13.899,-12.422 19.179,0 34.769,44.731 34.769,99.922 0,55.199 -15.59,99.918 -34.769,99.918 -7.969,0 -12.457,-7.73 -18.321,-20.699" /><path
             id="path46"
             style="fill:#036998;fill-opacity:1;fill-rule:nonzero;stroke:none"
             d="m 129.379,176.352 13.82,0 c 27.153,0 27.66,22.027 27.66,49.179 0,27.149 -0.507,49.141 -27.66,49.141 l -14.019,0" /><path
             id="path48"
             style="fill:none;stroke:#ffffff;stroke-width:3.99993992;stroke-linecap:butt;stroke-linejoin:miter;stroke-miterlimit:4;stroke-dasharray:none;stroke-opacity:1"
             d="m 129.379,176.352 13.82,0 c 27.153,0 27.66,22.027 27.66,49.179 0,27.149 -0.507,49.141 -27.66,49.141 l -14.019,0" /><path
             id="path50"
             style="fill:#036998;fill-opacity:1;fill-rule:nonzero;stroke:none"
             d="M 150.898,397.211 188.52,333.5 c 7.808,-13.121 12.531,3.16 25.66,10.941 13.121,7.809 19.961,20.508 15.269,28.399 l -33.75,56.789 c -4.679,7.851 -17.5,8.562 -30.621,0.75" /><path
             id="path52"
             style="fill:none;stroke:#ffffff;stroke-width:3.99993992;stroke-linecap:butt;stroke-linejoin:miter;stroke-miterlimit:4;stroke-dasharray:none;stroke-opacity:1"
             d="M 150.898,397.211 188.52,333.5 c 7.808,-13.121 12.531,3.16 25.66,10.941 13.121,7.809 19.961,20.508 15.269,28.399 l -33.75,56.789 c -4.679,7.851 -17.5,8.562 -30.621,0.75" /></g></g></g></g></svg>