<?xml version="1.0" encoding="UTF-8" standalone="no"?>
<svg
   xmlns:dc="http://purl.org/dc/elements/1.1/"
   xmlns:cc="http://creativecommons.org/ns#"
   xmlns:rdf="http://www.w3.org/1999/02/22-rdf-syntax-ns#"
   xmlns:svg="http://www.w3.org/2000/svg"
   xmlns="http://www.w3.org/2000/svg"
   viewBox="0 0 56.25 42.5"
   height="42.5"
   width="56.25"
   xml:space="preserve"
   version="1.1"
   id="svg2"><metadata
     id="metadata8"><rdf:RDF><cc:Work
         rdf:about=""><dc:format>image/svg+xml</dc:format><dc:type
           rdf:resource="http://purl.org/dc/dcmitype/StillImage" /></cc:Work></rdf:RDF></metadata><defs
     id="defs6" /><g
     transform="matrix(1.25,0,0,-1.25,0,42.5)"
     id="g10"><g
       transform="scale(0.1,0.1)"
       id="g12"><path
         id="path14"
         style="fill:#1089c2;fill-opacity:1;fill-rule:nonzero;stroke:none"
         d="m 429.262,328.672 10.386,-13.473 -35.668,-179.34 -12.851,7.969 38.133,184.844" /><path
         id="path16"
         style="fill:none;stroke:#ffffff;stroke-width:4;stroke-linecap:butt;stroke-linejoin:miter;stroke-miterlimit:4;stroke-dasharray:none;stroke-opacity:1"
         d="m 429.262,328.672 10.386,-13.473 -35.668,-179.34 -12.851,7.973 38.133,184.84 z" /><path
         id="path18"
         style="fill:#1089c2;fill-opacity:1;fill-rule:nonzero;stroke:none"
         d="m 393.59,131.289 0,-27.269 -7.07,-6.1294 c 0,0 -16.52,-4.8789 -12.848,-14.6914 l -73.793,-68.6289 0,30.0391 93.711,86.6796" /><path
         id="path20"
         style="fill:none;stroke:#ffffff;stroke-width:4;stroke-linecap:butt;stroke-linejoin:miter;stroke-miterlimit:4;stroke-dasharray:none;stroke-opacity:1"
         d="m 393.59,131.289 0,-27.269 -7.07,-6.1294 c 0,0 -16.52,-4.8789 -12.848,-14.6914 l -73.793,-68.6289 0,30.0391 93.711,86.6796 z" /><path
         id="path22"
         style="fill:#1089c2;fill-opacity:1;fill-rule:nonzero;stroke:none"
         d="m 6.17188,14.5703 293.707,0 0,30.0391 -293.707,0 0,-30.0391 z" /><path
         id="path24"
         style="fill:none;stroke:#ffffff;stroke-width:4;stroke-linecap:butt;stroke-linejoin:miter;stroke-miterlimit:4;stroke-dasharray:none;stroke-opacity:1"
         d="m 6.17188,14.5703 293.707,0 0,30.0391 -293.707,0 0,-30.0391 z" /><path
         id="path26"
         style="fill:#1089c2;fill-opacity:1;fill-rule:nonzero;stroke:none"
         d="m 123.48,129.449 270.11,1.84 -93.711,-86.6796 -293.70712,0 L 123.48,129.449" /><path
         id="path28"
         style="fill:none;stroke:#ffffff;stroke-width:4;stroke-linecap:butt;stroke-linejoin:miter;stroke-miterlimit:4;stroke-dasharray:none;stroke-opacity:1"
         d="m 123.48,129.449 270.11,1.84 -93.711,-86.6796 -293.70712,0 L 123.48,129.449 Z" /><path
         id="path30"
         style="fill:#1089c2;fill-opacity:1;fill-rule:nonzero;stroke:none"
         d="m 391.129,143.828 38.133,184.844 -266.453,0 -42.418,-184.844 270.738,0" /><path
         id="path32"
         style="fill:none;stroke:#ffffff;stroke-width:4;stroke-linecap:butt;stroke-linejoin:miter;stroke-miterlimit:4;stroke-dasharray:none;stroke-opacity:1"
         d="m 391.129,143.832 38.133,184.84 -266.453,0 -42.418,-184.84 270.738,0 z" /><path
         id="path34"
         style="fill:#ffffff;fill-opacity:1;fill-rule:nonzero;stroke:none"
         d="m 368.52,161.719 31.089,145.043 -216.64,0 -31.09,-145.043 216.641,0" /><path
         id="path36"
         style="fill:none;stroke:#ffffff;stroke-width:4;stroke-linecap:butt;stroke-linejoin:miter;stroke-miterlimit:4;stroke-dasharray:none;stroke-opacity:1"
         d="m 368.52,161.719 31.089,145.043 -216.64,0 -31.09,-145.043 216.641,0 z" /><path
         id="path38"
         style="fill:none;stroke:#ffffff;stroke-width:1;stroke-linecap:butt;stroke-linejoin:round;stroke-miterlimit:4;stroke-dasharray:none;stroke-opacity:1"
         d="M 129.801,127.539 61.6797,72.5" /><path
         id="path40"
         style="fill:none;stroke:#ffffff;stroke-width:1;stroke-linecap:butt;stroke-linejoin:round;stroke-miterlimit:4;stroke-dasharray:none;stroke-opacity:1"
         d="M 151.68,127.539 83.5508,72.5" /><path
         id="path42"
         style="fill:none;stroke:#ffffff;stroke-width:1;stroke-linecap:butt;stroke-linejoin:round;stroke-miterlimit:4;stroke-dasharray:none;stroke-opacity:1"
         d="M 173.551,127.539 105.43,72.5" /><path
         id="path44"
         style="fill:none;stroke:#ffffff;stroke-width:1;stroke-linecap:butt;stroke-linejoin:round;stroke-miterlimit:4;stroke-dasharray:none;stroke-opacity:1"
         d="M 195.43,127.539 127.301,72.5" /><path
         id="path46"
         style="fill:none;stroke:#ffffff;stroke-width:1;stroke-linecap:butt;stroke-linejoin:round;stroke-miterlimit:4;stroke-dasharray:none;stroke-opacity:1"
         d="M 217.301,127.539 149.18,72.5" /><path
         id="path48"
         style="fill:none;stroke:#ffffff;stroke-width:1;stroke-linecap:butt;stroke-linejoin:round;stroke-miterlimit:4;stroke-dasharray:none;stroke-opacity:1"
         d="M 239.18,127.539 171.051,72.5" /><path
         id="path50"
         style="fill:none;stroke:#ffffff;stroke-width:1;stroke-linecap:butt;stroke-linejoin:round;stroke-miterlimit:4;stroke-dasharray:none;stroke-opacity:1"
         d="M 261.051,127.539 192.93,72.5" /><path
         id="path52"
         style="fill:none;stroke:#ffffff;stroke-width:1;stroke-linecap:butt;stroke-linejoin:round;stroke-miterlimit:4;stroke-dasharray:none;stroke-opacity:1"
         d="M 282.93,127.539 214.801,72.5" /><path
         id="path54"
         style="fill:none;stroke:#ffffff;stroke-width:1;stroke-linecap:butt;stroke-linejoin:round;stroke-miterlimit:4;stroke-dasharray:none;stroke-opacity:1"
         d="M 304.801,127.539 236.68,72.5" /><path
         id="path56"
         style="fill:none;stroke:#ffffff;stroke-width:1;stroke-linecap:butt;stroke-linejoin:round;stroke-miterlimit:4;stroke-dasharray:none;stroke-opacity:1"
         d="M 326.68,127.539 258.551,72.5" /><path
         id="path58"
         style="fill:none;stroke:#ffffff;stroke-width:1;stroke-linecap:butt;stroke-linejoin:round;stroke-miterlimit:4;stroke-dasharray:none;stroke-opacity:1"
         d="M 348.551,127.539 280.43,72.5" /><path
         id="path60"
         style="fill:none;stroke:#ffffff;stroke-width:1;stroke-linecap:butt;stroke-linejoin:round;stroke-miterlimit:4;stroke-dasharray:none;stroke-opacity:1"
         d="M 370.43,127.539 302.301,72.5" /><path
         id="path62"
         style="fill:none;stroke:#ffffff;stroke-width:1;stroke-linecap:butt;stroke-linejoin:round;stroke-miterlimit:4;stroke-dasharray:none;stroke-opacity:1"
         d="m 69.3008,78.3203 242.5392,0" /><path
         id="path64"
         style="fill:none;stroke:#ffffff;stroke-width:1;stroke-linecap:butt;stroke-linejoin:round;stroke-miterlimit:4;stroke-dasharray:none;stroke-opacity:1"
         d="m 85.6211,90.9023 238.7579,0" /><path
         id="path66"
         style="fill:none;stroke:#ffffff;stroke-width:1;stroke-linecap:butt;stroke-linejoin:round;stroke-miterlimit:4;stroke-dasharray:none;stroke-opacity:1"
         d="m 102.539,103.52 238.121,0" /><path
         id="path68"
         style="fill:none;stroke:#ffffff;stroke-width:1;stroke-linecap:butt;stroke-linejoin:round;stroke-miterlimit:4;stroke-dasharray:none;stroke-opacity:1"
         d="m 117.578,116.129 240.043,0" /><g
         transform="scale(10,10)"
         id="g70"><text
           id="text72"
           style="font-variant:normal;font-weight:bold;font-size:6px;font-family:Helvetica;-inkscape-font-specification:Helvetica-Bold;writing-mode:lr-tb;fill:#231f20;fill-opacity:1;fill-rule:nonzero;stroke:none"
           transform="matrix(1,0,0,-1,20.7992,20.6574)"><tspan
             id="tspan74"
             y="0"
             x="0 4.0019999 8.0039997">SSC</tspan></text>
</g></g></g></svg>