<?xml version="1.0" encoding="UTF-8" standalone="no"?>
<svg
   xmlns:dc="http://purl.org/dc/elements/1.1/"
   xmlns:cc="http://creativecommons.org/ns#"
   xmlns:rdf="http://www.w3.org/1999/02/22-rdf-syntax-ns#"
   xmlns:svg="http://www.w3.org/2000/svg"
   xmlns="http://www.w3.org/2000/svg"
   viewBox="0 0 55.224998 40.424999"
   height="40.424999"
   width="55.224998"
   xml:space="preserve"
   version="1.1"
   id="svg2"><metadata
     id="metadata8"><rdf:RDF><cc:Work
         rdf:about=""><dc:format>image/svg+xml</dc:format><dc:type
           rdf:resource="http://purl.org/dc/dcmitype/StillImage" /></cc:Work></rdf:RDF></metadata><defs
     id="defs6" /><g
     transform="matrix(1.25,0,0,-1.25,0,40.425)"
     id="g10"><g
       transform="scale(0.1,0.1)"
       id="g12"><path
         id="path14"
         style="fill:#1089c2;fill-opacity:1;fill-rule:nonzero;stroke:none"
         d="m 429.238,318.691 10.41,-13.476 -35.664,-179.344 -12.871,7.957 38.125,184.863" /><path
         id="path16"
         style="fill:none;stroke:#ffffff;stroke-width:4;stroke-linecap:butt;stroke-linejoin:miter;stroke-miterlimit:4;stroke-dasharray:none;stroke-opacity:1"
         d="m 429.238,318.691 10.41,-13.476 -35.664,-179.344 -12.871,7.957 38.125,184.863 z" /><path
         id="path18"
         style="fill:#1089c2;fill-opacity:1;fill-rule:nonzero;stroke:none"
         d="m 393.574,121.27 0,-27.2466 -7.051,-6.1328 c 0,0 -16.543,-4.8906 -12.871,-14.6875 l -73.789,-68.61326 0,30.01956 93.711,86.6606" /><path
         id="path20"
         style="fill:none;stroke:#ffffff;stroke-width:4;stroke-linecap:butt;stroke-linejoin:miter;stroke-miterlimit:4;stroke-dasharray:none;stroke-opacity:1"
         d="m 393.574,121.27 0,-27.2466 -7.051,-6.1328 c 0,0 -16.543,-4.8906 -12.871,-14.6875 l -73.789,-68.61326 0,30.01956 93.711,86.6606 z" /><path
         id="path22"
         style="fill:#1089c2;fill-opacity:1;fill-rule:nonzero;stroke:none"
         d="m 6.17578,4.58984 293.688,0 0,30.0195 -293.688,0 0,-30.0195 z" /><path
         id="path24"
         style="fill:none;stroke:#ffffff;stroke-width:4;stroke-linecap:butt;stroke-linejoin:miter;stroke-miterlimit:4;stroke-dasharray:none;stroke-opacity:1"
         d="m 6.17578,34.6094 0,-30.01956 293.68722,0 0,30.01956 -293.68722,0" /><path
         id="path26"
         style="fill:#1089c2;fill-opacity:1;fill-rule:nonzero;stroke:none"
         d="m 123.461,119.434 270.113,1.836 -93.711,-86.6606 -293.68722,0 117.28522,84.8246" /><path
         id="path28"
         style="fill:none;stroke:#ffffff;stroke-width:4;stroke-linecap:butt;stroke-linejoin:miter;stroke-miterlimit:4;stroke-dasharray:none;stroke-opacity:1"
         d="m 123.461,119.434 270.113,1.836 -93.711,-86.6606 -293.68722,0 117.28522,84.8246 z" /><path
         id="path30"
         style="fill:#1089c2;fill-opacity:1;fill-rule:nonzero;stroke:none"
         d="m 391.113,133.828 38.125,184.863 -266.422,0 -42.421,-184.863 270.718,0" /><path
         id="path32"
         style="fill:none;stroke:#ffffff;stroke-width:4;stroke-linecap:butt;stroke-linejoin:miter;stroke-miterlimit:4;stroke-dasharray:none;stroke-opacity:1"
         d="m 391.113,133.828 38.125,184.863 -266.422,0 -42.421,-184.863 270.718,0 z" /><path
         id="path34"
         style="fill:#ffffff;fill-opacity:1;fill-rule:nonzero;stroke:none"
         d="m 368.516,151.719 31.074,145.051 -216.641,0 -31.07,-145.051 216.637,0" /><path
         id="path36"
         style="fill:none;stroke:#ffffff;stroke-width:4;stroke-linecap:butt;stroke-linejoin:miter;stroke-miterlimit:4;stroke-dasharray:none;stroke-opacity:1"
         d="m 368.516,151.719 31.074,145.051 -216.641,0 -31.07,-145.051 216.637,0 z" /><path
         id="path38"
         style="fill:none;stroke:#ffffff;stroke-width:1;stroke-linecap:butt;stroke-linejoin:round;stroke-miterlimit:4;stroke-dasharray:none;stroke-opacity:1"
         d="M 129.809,117.52 61.6836,62.5117" /><path
         id="path40"
         style="fill:none;stroke:#ffffff;stroke-width:1;stroke-linecap:butt;stroke-linejoin:round;stroke-miterlimit:4;stroke-dasharray:none;stroke-opacity:1"
         d="M 151.684,117.52 83.5586,62.5117" /><path
         id="path42"
         style="fill:none;stroke:#ffffff;stroke-width:1;stroke-linecap:butt;stroke-linejoin:round;stroke-miterlimit:4;stroke-dasharray:none;stroke-opacity:1"
         d="M 173.555,117.52 105.434,62.5117" /><path
         id="path44"
         style="fill:none;stroke:#ffffff;stroke-width:1;stroke-linecap:butt;stroke-linejoin:round;stroke-miterlimit:4;stroke-dasharray:none;stroke-opacity:1"
         d="M 195.43,117.52 127.309,62.5117" /><path
         id="path46"
         style="fill:none;stroke:#ffffff;stroke-width:1;stroke-linecap:butt;stroke-linejoin:round;stroke-miterlimit:4;stroke-dasharray:none;stroke-opacity:1"
         d="M 217.305,117.52 149.184,62.5117" /><path
         id="path48"
         style="fill:none;stroke:#ffffff;stroke-width:1;stroke-linecap:butt;stroke-linejoin:round;stroke-miterlimit:4;stroke-dasharray:none;stroke-opacity:1"
         d="M 239.18,117.52 171.055,62.5117" /><path
         id="path50"
         style="fill:none;stroke:#ffffff;stroke-width:1;stroke-linecap:butt;stroke-linejoin:round;stroke-miterlimit:4;stroke-dasharray:none;stroke-opacity:1"
         d="M 261.055,117.52 192.93,62.5117" /><path
         id="path52"
         style="fill:none;stroke:#ffffff;stroke-width:1;stroke-linecap:butt;stroke-linejoin:round;stroke-miterlimit:4;stroke-dasharray:none;stroke-opacity:1"
         d="M 282.93,117.52 214.805,62.5117" /><path
         id="path54"
         style="fill:none;stroke:#ffffff;stroke-width:1;stroke-linecap:butt;stroke-linejoin:round;stroke-miterlimit:4;stroke-dasharray:none;stroke-opacity:1"
         d="M 304.805,117.52 236.68,62.5117" /><path
         id="path56"
         style="fill:none;stroke:#ffffff;stroke-width:1;stroke-linecap:butt;stroke-linejoin:round;stroke-miterlimit:4;stroke-dasharray:none;stroke-opacity:1"
         d="M 326.68,117.52 258.555,62.5117" /><path
         id="path58"
         style="fill:none;stroke:#ffffff;stroke-width:1;stroke-linecap:butt;stroke-linejoin:round;stroke-miterlimit:4;stroke-dasharray:none;stroke-opacity:1"
         d="M 348.555,117.52 280.43,62.5117" /><path
         id="path60"
         style="fill:none;stroke:#ffffff;stroke-width:1;stroke-linecap:butt;stroke-linejoin:round;stroke-miterlimit:4;stroke-dasharray:none;stroke-opacity:1"
         d="M 370.43,117.52 302.305,62.5117" /><path
         id="path62"
         style="fill:none;stroke:#ffffff;stroke-width:1;stroke-linecap:butt;stroke-linejoin:round;stroke-miterlimit:4;stroke-dasharray:none;stroke-opacity:1"
         d="m 69.3008,68.3125 242.5152,0" /><path
         id="path64"
         style="fill:none;stroke:#ffffff;stroke-width:1;stroke-linecap:butt;stroke-linejoin:round;stroke-miterlimit:4;stroke-dasharray:none;stroke-opacity:1"
         d="m 85.6094,80.918 238.7656,0" /><path
         id="path66"
         style="fill:none;stroke:#ffffff;stroke-width:1;stroke-linecap:butt;stroke-linejoin:round;stroke-miterlimit:4;stroke-dasharray:none;stroke-opacity:1"
         d="m 102.523,93.5156 238.141,0" /><path
         id="path68"
         style="fill:none;stroke:#ffffff;stroke-width:1;stroke-linecap:butt;stroke-linejoin:round;stroke-miterlimit:4;stroke-dasharray:none;stroke-opacity:1"
         d="m 117.582,106.133 240.016,0" /><g
         transform="scale(10,10)"
         id="g70"><text
           id="text72"
           style="font-variant:normal;font-weight:bold;font-size:6px;font-family:Helvetica;-inkscape-font-specification:Helvetica-Bold;writing-mode:lr-tb;fill:#231f20;fill-opacity:1;fill-rule:nonzero;stroke:none"
           transform="matrix(1,0,0,-1,20.7988,19.6574)"><tspan
             id="tspan74"
             y="0"
             x="0 4.0019999 8.0039997">SSC</tspan></text>
</g></g></g></svg>