<?xml version="1.0" encoding="UTF-8" standalone="no"?>
<svg
   xmlns:dc="http://purl.org/dc/elements/1.1/"
   xmlns:cc="http://creativecommons.org/ns#"
   xmlns:rdf="http://www.w3.org/1999/02/22-rdf-syntax-ns#"
   xmlns:svg="http://www.w3.org/2000/svg"
   xmlns="http://www.w3.org/2000/svg"
   viewBox="0 0 38.75 36.25"
   height="36.25"
   width="38.75"
   xml:space="preserve"
   version="1.1"
   id="svg2"><metadata
     id="metadata8"><rdf:RDF><cc:Work
         rdf:about=""><dc:format>image/svg+xml</dc:format><dc:type
           rdf:resource="http://purl.org/dc/dcmitype/StillImage" /></cc:Work></rdf:RDF></metadata><defs
     id="defs6"><clipPath
       id="clipPath18"
       clipPathUnits="userSpaceOnUse"><path
         id="path20"
         d="m 0,10 310,0 0,280 L 0,290 0,10 Z" /></clipPath></defs><g
     transform="matrix(1.25,0,0,-1.25,0,36.25)"
     id="g10"><g
       transform="scale(0.1,0.1)"
       id="g12"><g
         id="g14"><g
           clip-path="url(#clipPath18)"
           id="g16"><path
             id="path22"
             style="fill:#036998;fill-opacity:1;fill-rule:nonzero;stroke:none"
             d="m 1.98828,8.51953 76.60152,34.80077 229.8902,0 -76.64,-34.80077 -229.85172,0" /><path
             id="path24"
             style="fill:none;stroke:#ffffff;stroke-width:3.99993992;stroke-linecap:butt;stroke-linejoin:miter;stroke-miterlimit:4;stroke-dasharray:none;stroke-opacity:1"
             d="m 1.98828,8.51953 76.60152,34.80077 229.8902,0 -76.64,-34.80077 -229.85172,0 z" /><path
             id="path26"
             style="fill:#036998;fill-opacity:1;fill-rule:nonzero;stroke:none"
             d="m 1.98828,252.109 76.60152,34.801 0,-243.5897 -76.60152,-34.80077 0,243.58947" /><path
             id="path28"
             style="fill:none;stroke:#ffffff;stroke-width:3.99993992;stroke-linecap:butt;stroke-linejoin:miter;stroke-miterlimit:4;stroke-dasharray:none;stroke-opacity:1"
             d="m 1.98828,252.109 76.60152,34.801 0,-243.5897 -76.60152,-34.80077 0,243.58947 z" /><path
             id="path30"
             style="fill:#036998;fill-opacity:1;fill-rule:nonzero;stroke:none"
             d="m 78.5898,43.3203 229.879,0 0,243.59 -229.879,0 0,-243.59 z" /><path
             id="path32"
             style="fill:none;stroke:#ffffff;stroke-width:3.99993992;stroke-linecap:butt;stroke-linejoin:miter;stroke-miterlimit:4;stroke-dasharray:none;stroke-opacity:1"
             d="m 78.5898,43.3203 229.879,0 0,243.59 -229.879,0 0,-243.59 z" /><path
             id="path34"
             style="fill:#036998;fill-opacity:1;fill-rule:nonzero;stroke:none"
             d="m 1.98828,252.109 76.60152,34.801 229.8902,0 -76.64,-34.801 -229.85172,0" /><path
             id="path36"
             style="fill:none;stroke:#ffffff;stroke-width:3.99993992;stroke-linecap:butt;stroke-linejoin:miter;stroke-miterlimit:4;stroke-dasharray:none;stroke-opacity:1"
             d="m 1.98828,252.109 76.60152,34.801 229.8902,0 -76.64,-34.801 -229.85172,0 z" /><path
             id="path38"
             style="fill:none;stroke:#ffffff;stroke-width:3.99993992;stroke-linecap:butt;stroke-linejoin:miter;stroke-miterlimit:4;stroke-dasharray:none;stroke-opacity:1"
             d="m 110.039,215.43 128.789,0" /><path
             id="path40"
             style="fill:none;stroke:#ffffff;stroke-width:3.99993992;stroke-linecap:butt;stroke-linejoin:miter;stroke-miterlimit:4;stroke-dasharray:none;stroke-opacity:1"
             d="m 110.039,60.7773 128.789,0" /><path
             id="path42"
             style="fill:#ffffff;fill-opacity:1;fill-rule:nonzero;stroke:none"
             d="m 172.422,149.34 50.508,15.66 -50.508,14.77 0,-30.43" /><path
             id="path44"
             style="fill:none;stroke:#ffffff;stroke-width:3.99993992;stroke-linecap:butt;stroke-linejoin:miter;stroke-miterlimit:4;stroke-dasharray:none;stroke-opacity:1"
             d="m 172.422,149.34 50.508,15.66 -50.508,14.77 0,-30.43 z" /><path
             id="path46"
             style="fill:#036998;fill-opacity:1;fill-rule:nonzero;stroke:none"
             d="m 231.84,252.109 76.64,34.801 0,-243.5897 -76.64,-34.80077 0,243.58947" /><path
             id="path48"
             style="fill:none;stroke:#ffffff;stroke-width:3.99993992;stroke-linecap:butt;stroke-linejoin:miter;stroke-miterlimit:4;stroke-dasharray:none;stroke-opacity:1"
             d="m 231.84,252.109 76.64,34.801 0,-243.5897 -76.64,-34.80077 0,243.58947 z" /><path
             id="path50"
             style="fill:#036998;fill-opacity:1;fill-rule:nonzero;stroke:none"
             d="m 269.879,213.668 c 7.851,0 24.922,-30.66 24.922,-73.59 0,-40.8592 -17.071,-73.5585 -24.922,-73.5585 -8.707,0 -22.609,32.6993 -22.609,73.5585 0,42.93 13.902,73.59 22.609,73.59" /><path
             id="path52"
             style="fill:none;stroke:#ffffff;stroke-width:3.99993992;stroke-linecap:butt;stroke-linejoin:miter;stroke-miterlimit:4;stroke-dasharray:none;stroke-opacity:1"
             d="m 269.879,213.668 c 7.851,0 24.922,-30.66 24.922,-73.59 0,-40.8592 -17.071,-73.5585 -24.922,-73.5585 -8.707,0 -22.609,32.6993 -22.609,73.5585 0,42.93 13.902,73.59 22.609,73.59" /><path
             id="path54"
             style="fill:#036998;fill-opacity:1;fill-rule:nonzero;stroke:none"
             d="m 110.738,215.199 c 8.211,0 26.172,-32.23 26.172,-77.39 0,-42.9301 -17.961,-77.3012 -26.172,-77.3012 -9.179,0 -26.0896,34.3711 -26.0896,77.3012 0,45.16 16.9106,77.39 26.0896,77.39" /><path
             id="path56"
             style="fill:none;stroke:#ffffff;stroke-width:3.99993992;stroke-linecap:butt;stroke-linejoin:miter;stroke-miterlimit:4;stroke-dasharray:none;stroke-opacity:1"
             d="m 110.738,215.199 c 8.211,0 26.172,-32.23 26.172,-77.39 0,-42.9301 -17.961,-77.3012 -26.172,-77.3012 -9.179,0 -26.0896,34.3711 -26.0896,77.3012 0,45.16 16.9106,77.39 26.0896,77.39" /><path
             id="path58"
             style="fill:none;stroke:#ffffff;stroke-width:10;stroke-linecap:butt;stroke-linejoin:miter;stroke-miterlimit:4;stroke-dasharray:none;stroke-opacity:1"
             d="m 224.84,112.027 -52.141,0" /><path
             id="path60"
             style="fill:none;stroke:#ffffff;stroke-width:10;stroke-linecap:butt;stroke-linejoin:miter;stroke-miterlimit:4;stroke-dasharray:none;stroke-opacity:1"
             d="m 120.469,165.508 52.191,0" /><path
             id="path62"
             style="fill:#ffffff;fill-opacity:1;fill-rule:nonzero;stroke:none"
             d="m 175.941,126.84 -50.511,-15.672 50.511,-14.8008 0,30.4728" /><path
             id="path64"
             style="fill:none;stroke:#ffffff;stroke-width:3.99993992;stroke-linecap:butt;stroke-linejoin:miter;stroke-miterlimit:4;stroke-dasharray:none;stroke-opacity:1"
             d="m 175.941,126.84 -50.511,-15.672 50.511,-14.8008 0,30.4728 z" /></g></g></g></g></svg>