<?xml version="1.0" encoding="UTF-8" standalone="no"?>
<svg
   xmlns:dc="http://purl.org/dc/elements/1.1/"
   xmlns:cc="http://creativecommons.org/ns#"
   xmlns:rdf="http://www.w3.org/1999/02/22-rdf-syntax-ns#"
   xmlns:svg="http://www.w3.org/2000/svg"
   xmlns="http://www.w3.org/2000/svg"
   viewBox="0 0 38.8125 35.575001"
   height="35.575001"
   width="38.8125"
   xml:space="preserve"
   version="1.1"
   id="svg2"><metadata
     id="metadata8"><rdf:RDF><cc:Work
         rdf:about=""><dc:format>image/svg+xml</dc:format><dc:type
           rdf:resource="http://purl.org/dc/dcmitype/StillImage" /></cc:Work></rdf:RDF></metadata><defs
     id="defs6"><clipPath
       id="clipPath18"
       clipPathUnits="userSpaceOnUse"><path
         id="path20"
         d="m 0,4.58984 310,0 0,280 -310,0 0,-280 z" /></clipPath></defs><g
     transform="matrix(1.25,0,0,-1.25,0,35.575)"
     id="g10"><g
       transform="scale(0.1,0.1)"
       id="g12"><g
         id="g14"><g
           clip-path="url(#clipPath18)"
           id="g16"><path
             id="path22"
             style="fill:#036998;fill-opacity:1;fill-rule:nonzero;stroke:none"
             d="m 2,3.10547 76.6133,34.80473 229.8707,0 L 231.848,3.10547 2,3.10547" /><path
             id="path24"
             style="fill:none;stroke:#ffffff;stroke-width:3.99993992;stroke-linecap:butt;stroke-linejoin:miter;stroke-miterlimit:4;stroke-dasharray:none;stroke-opacity:1"
             d="m 2,3.10547 76.6133,34.80473 229.8707,0 L 231.848,3.10547 2,3.10547 Z" /><path
             id="path26"
             style="fill:#036998;fill-opacity:1;fill-rule:nonzero;stroke:none"
             d="m 2,246.699 76.6133,34.785 0,-243.5738 L 2,3.10547 2,246.699" /><path
             id="path28"
             style="fill:none;stroke:#ffffff;stroke-width:3.99993992;stroke-linecap:butt;stroke-linejoin:miter;stroke-miterlimit:4;stroke-dasharray:none;stroke-opacity:1"
             d="m 2,246.699 76.6133,34.785 0,-243.5738 L 2,3.10547 2,246.699 Z" /><path
             id="path30"
             style="fill:#036998;fill-opacity:1;fill-rule:nonzero;stroke:none"
             d="m 78.6133,37.9102 229.871,0 0,243.574 -229.871,0 0,-243.574 z" /><path
             id="path32"
             style="fill:none;stroke:#ffffff;stroke-width:3.99993992;stroke-linecap:butt;stroke-linejoin:miter;stroke-miterlimit:4;stroke-dasharray:none;stroke-opacity:1"
             d="m 78.6133,37.9102 229.871,0 0,243.574 -229.871,0 0,-243.574 z" /><path
             id="path34"
             style="fill:#036998;fill-opacity:1;fill-rule:nonzero;stroke:none"
             d="m 2,246.699 76.6133,34.785 229.8707,0 -76.636,-34.785 -229.848,0" /><path
             id="path36"
             style="fill:none;stroke:#ffffff;stroke-width:3.99993992;stroke-linecap:butt;stroke-linejoin:miter;stroke-miterlimit:4;stroke-dasharray:none;stroke-opacity:1"
             d="m 2,246.699 76.6133,34.785 229.8707,0 -76.636,-34.785 -229.848,0 z" /><path
             id="path38"
             style="fill:#036998;fill-opacity:1;fill-rule:nonzero;stroke:none"
             d="m 110.051,210.031 128.789,0" /><path
             id="path40"
             style="fill:none;stroke:#ffffff;stroke-width:3.99993992;stroke-linecap:butt;stroke-linejoin:miter;stroke-miterlimit:4;stroke-dasharray:none;stroke-opacity:1"
             d="m 110.051,210.031 128.789,0" /><path
             id="path42"
             style="fill:#036998;fill-opacity:1;fill-rule:nonzero;stroke:none"
             d="m 110.051,55.3672 128.789,0" /><path
             id="path44"
             style="fill:none;stroke:#ffffff;stroke-width:3.99993992;stroke-linecap:butt;stroke-linejoin:miter;stroke-miterlimit:4;stroke-dasharray:none;stroke-opacity:1"
             d="m 110.051,55.3672 128.789,0" /><path
             id="path46"
             style="fill:#ffffff;fill-opacity:1;fill-rule:nonzero;stroke:none"
             d="m 172.41,143.926 50.528,15.664 -50.528,14.769 0,-30.433" /><path
             id="path48"
             style="fill:none;stroke:#ffffff;stroke-width:3.99993992;stroke-linecap:butt;stroke-linejoin:miter;stroke-miterlimit:4;stroke-dasharray:none;stroke-opacity:1"
             d="m 172.41,143.926 50.528,15.664 -50.528,14.769 0,-30.433 z" /><path
             id="path50"
             style="fill:#036998;fill-opacity:1;fill-rule:nonzero;stroke:none"
             d="m 231.848,246.699 76.636,34.785 0,-243.5738 -76.636,-34.80473 0,243.59353" /><path
             id="path52"
             style="fill:none;stroke:#ffffff;stroke-width:3.99993992;stroke-linecap:butt;stroke-linejoin:miter;stroke-miterlimit:4;stroke-dasharray:none;stroke-opacity:1"
             d="m 231.848,246.699 76.636,34.785 0,-243.5738 -76.636,-34.80473 0,243.59353 z" /><path
             id="path54"
             style="fill:#036998;fill-opacity:1;fill-rule:nonzero;stroke:none"
             d="m 269.895,208.266 c 7.832,0 24.918,-30.664 24.918,-73.598 0,-40.8672 -17.086,-73.5742 -24.918,-73.5742 -8.711,0 -22.622,32.707 -22.622,73.5742 0,42.934 13.911,73.598 22.622,73.598" /><path
             id="path56"
             style="fill:none;stroke:#ffffff;stroke-width:3.99993992;stroke-linecap:butt;stroke-linejoin:miter;stroke-miterlimit:4;stroke-dasharray:none;stroke-opacity:1"
             d="m 269.895,208.266 c 7.832,0 24.918,-30.664 24.918,-73.598 0,-40.8672 -17.086,-73.5742 -24.918,-73.5742 -8.711,0 -22.622,32.707 -22.622,73.5742 0,42.934 13.911,73.598 22.622,73.598" /><path
             id="path58"
             style="fill:#036998;fill-opacity:1;fill-rule:nonzero;stroke:none"
             d="m 110.723,209.766 c 8.23,0 26.179,-32.227 26.179,-77.356 0,-42.9452 -17.949,-77.3202 -26.179,-77.3202 -9.16,0 -26.0824,34.375 -26.0824,77.3202 0,45.129 16.9224,77.356 26.0824,77.356" /><path
             id="path60"
             style="fill:none;stroke:#ffffff;stroke-width:3.99993992;stroke-linecap:butt;stroke-linejoin:miter;stroke-miterlimit:4;stroke-dasharray:none;stroke-opacity:1"
             d="m 110.723,209.766 c 8.23,0 26.179,-32.227 26.179,-77.356 0,-42.9452 -17.949,-77.3202 -26.179,-77.3202 -9.16,0 -26.0824,34.375 -26.0824,77.3202 0,45.129 16.9224,77.356 26.0824,77.356" /><path
             id="path62"
             style="fill:#036998;fill-opacity:1;fill-rule:nonzero;stroke:none"
             d="m 224.844,106.621 -52.168,0" /><path
             id="path64"
             style="fill:none;stroke:#ffffff;stroke-width:10;stroke-linecap:butt;stroke-linejoin:miter;stroke-miterlimit:4;stroke-dasharray:none;stroke-opacity:1"
             d="m 224.844,106.621 -52.168,0" /><path
             id="path66"
             style="fill:#036998;fill-opacity:1;fill-rule:nonzero;stroke:none"
             d="m 120.48,160.102 52.184,0" /><path
             id="path68"
             style="fill:none;stroke:#ffffff;stroke-width:10;stroke-linecap:butt;stroke-linejoin:miter;stroke-miterlimit:4;stroke-dasharray:none;stroke-opacity:1"
             d="m 120.48,160.102 52.184,0" /><path
             id="path70"
             style="fill:#ffffff;fill-opacity:1;fill-rule:nonzero;stroke:none"
             d="m 175.93,121.414 -50.5,-15.66 50.5,-14.797 0,30.457" /><path
             id="path72"
             style="fill:none;stroke:#ffffff;stroke-width:3.99993992;stroke-linecap:butt;stroke-linejoin:miter;stroke-miterlimit:4;stroke-dasharray:none;stroke-opacity:1"
             d="m 175.93,121.414 -50.5,-15.66 50.5,-14.797 0,30.457 z" /></g></g></g></g></svg>