<svg xmlns="http://www.w3.org/2000/svg" viewBox="0 0 38.75 36.25" height="36.25" width="38.75"><defs><clipPath id="a"><path d="M0 10h310v280H0V10z"/></clipPath></defs><g clip-path="url(#a)" transform="matrix(.13 0 0 -.13 0 36.25)"><path d="M1.988 8.52l76.602 34.8h229.89l-76.64-34.8H1.988" fill="#036998"/><path d="M1.988 8.52l76.602 34.8h229.89l-76.64-34.8H1.988z" fill="none" stroke="#fff" stroke-width="4"/><path d="M1.988 252.109L78.59 286.91V43.32L1.988 8.52v243.589" fill="#036998"/><path d="M1.988 252.109L78.59 286.91V43.32L1.988 8.52v243.589z" fill="none" stroke="#fff" stroke-width="4"/><path d="M78.59 43.32h229.879v243.59H78.589V43.32z" fill="#036998"/><path d="M78.59 43.32h229.879v243.59H78.589V43.32z" fill="none" stroke="#fff" stroke-width="4"/><path d="M1.988 252.109L78.59 286.91h229.89l-76.64-34.801H1.988" fill="#036998"/><path d="M1.988 252.109L78.59 286.91h229.89l-76.64-34.801H1.988zM110.039 215.43h128.789M110.039 60.777h128.789" fill="none" stroke="#fff" stroke-width="4"/><path d="M172.422 149.34L222.93 165l-50.508 14.77v-30.43" fill="#fff"/><path d="M172.422 149.34L222.93 165l-50.508 14.77v-30.43z" fill="none" stroke="#fff" stroke-width="4"/><path d="M231.84 252.109l76.64 34.801V43.32l-76.64-34.8v243.589" fill="#036998"/><path d="M231.84 252.109l76.64 34.801V43.32l-76.64-34.8v243.589z" fill="none" stroke="#fff" stroke-width="4"/><path d="M269.879 213.668c7.851 0 24.922-30.66 24.922-73.59 0-40.86-17.071-73.558-24.922-73.558-8.707 0-22.609 32.699-22.609 73.558 0 42.93 13.902 73.59 22.609 73.59" fill="#036998"/><path d="M269.879 213.668c7.851 0 24.922-30.66 24.922-73.59 0-40.86-17.071-73.558-24.922-73.558-8.707 0-22.609 32.699-22.609 73.558 0 42.93 13.902 73.59 22.609 73.59" fill="none" stroke="#fff" stroke-width="4"/><path d="M110.738 215.199c8.211 0 26.172-32.23 26.172-77.39 0-42.93-17.961-77.301-26.172-77.301-9.179 0-26.09 34.37-26.09 77.301 0 45.16 16.911 77.39 26.09 77.39" fill="#036998"/><path d="M110.738 215.199c8.211 0 26.172-32.23 26.172-77.39 0-42.93-17.961-77.301-26.172-77.301-9.179 0-26.09 34.37-26.09 77.301 0 45.16 16.911 77.39 26.09 77.39" fill="none" stroke="#fff" stroke-width="4"/><path d="M224.84 112.027h-52.141M120.469 165.508h52.191" fill="none" stroke="#fff" stroke-width="10"/><path d="M175.941 126.84l-50.511-15.672 50.511-14.8v30.472" fill="#fff"/><path d="M175.941 126.84l-50.511-15.672 50.511-14.8v30.472z" fill="none" stroke="#fff" stroke-width="4"/></g></svg>