<?xml version="1.0" encoding="UTF-8" standalone="no"?>
<svg
   xmlns:dc="http://purl.org/dc/elements/1.1/"
   xmlns:cc="http://creativecommons.org/ns#"
   xmlns:rdf="http://www.w3.org/1999/02/22-rdf-syntax-ns#"
   xmlns:svg="http://www.w3.org/2000/svg"
   xmlns="http://www.w3.org/2000/svg"
   viewBox="0 0 15 38.75"
   height="38.75"
   width="15"
   xml:space="preserve"
   version="1.1"
   id="svg2"><metadata
     id="metadata8"><rdf:RDF><cc:Work
         rdf:about=""><dc:format>image/svg+xml</dc:format><dc:type
           rdf:resource="http://purl.org/dc/dcmitype/StillImage" /></cc:Work></rdf:RDF></metadata><defs
     id="defs6" /><g
     transform="matrix(1.25,0,0,-1.25,0,38.75)"
     id="g10"><g
       transform="scale(0.1,0.1)"
       id="g12"><path
         id="path14"
         style="fill:#036998;fill-opacity:1;fill-rule:nonzero;stroke:none"
         d="m 1.41016,139.371 24.17964,0 L 0,10 l 34.8008,0 21.0976,94.531 c 0,0 10.9024,-73.9099 15.8633,-93.8318 l 36.9883,0 C 106.602,19.25 87.4219,128.711 86.6797,140.07 c 2.8516,0 18.5193,-1.441 23.4803,-0.699 0,5.66 -4.262,34.809 -4.262,41.91 0,7.11 -6.4097,39.11 -8.5582,46.219 -1.8281,6.172 -14.1796,15.621 -20.5781,17.77 -6.4101,2.109 -19.1836,1.41 -26.2929,1.41 -7.1094,0 -15,-1.801 -22.0274,-3.559 -5.7109,-1.41 -12.1133,-10.66 -14.2226,-16.332 C 12.0703,221.09 9.21875,203.32 7.10938,194.801 4.96094,186.281 4.26172,154.289 2.80859,149.289 1.41016,144.328 1.41016,139.371 1.41016,139.371" /><path
         id="path16"
         style="fill:#ffffff;fill-opacity:1;fill-rule:nonzero;stroke:none"
         d="m 69.4102,246.441 c -2.6094,0.239 -6.8711,0 -10.8907,0.239 -4.0312,0.23 -9.9687,0 -12.7812,-0.239 -2.8477,-0.23 -9.7188,-1.871 -10.4297,-1.871 -0.7383,0 -1.207,0.461 -1.207,0.461 l 17.0703,-60.66 24.6484,60.66 c -0.1601,1.719 -2.0703,0.629 -3.1992,1.289" /><path
         id="path18"
         style="fill:none;stroke:#ffffff;stroke-width:1.89498997;stroke-linecap:butt;stroke-linejoin:miter;stroke-miterlimit:4;stroke-dasharray:none;stroke-opacity:1"
         d="m 69.4102,246.441 c -2.6094,0.231 -6.8711,0 -10.8907,0.231 -4.0312,0.238 -9.9687,0 -12.7812,-0.231 -2.8477,-0.23 -9.7188,-1.878 -10.4297,-1.878 -0.7383,0 -1.207,0.468 -1.207,0.468 l 17.0703,-60.66 24.6484,60.66 c -0.1601,1.719 -2.0703,0.629 -3.1992,1.289" /><path
         id="path20"
         style="fill:#ffffff;fill-opacity:1;fill-rule:nonzero;stroke:none"
         d="m 54.8398,248.121 c 16.211,0 29.379,13.16 29.379,29.41 0,16.25 -13.168,29.418 -29.379,29.418 -16.25,0 -29.4101,-13.168 -29.4101,-29.418 0,-16.25 13.1601,-29.41 29.4101,-29.41" /><path
         id="path22"
         style="fill:none;stroke:#036998;stroke-width:3.99993992;stroke-linecap:butt;stroke-linejoin:miter;stroke-miterlimit:4;stroke-dasharray:none;stroke-opacity:1"
         d="m 54.8398,248.121 c 16.211,0 29.379,13.16 29.379,29.41 0,16.25 -13.168,29.418 -29.379,29.418 -16.25,0 -29.4101,-13.168 -29.4101,-29.418 0,-16.25 13.1601,-29.41 29.4101,-29.41 z" /></g></g></svg>