<?xml version="1.0" encoding="UTF-8" standalone="no"?>
<svg
   xmlns:dc="http://purl.org/dc/elements/1.1/"
   xmlns:cc="http://creativecommons.org/ns#"
   xmlns:rdf="http://www.w3.org/1999/02/22-rdf-syntax-ns#"
   xmlns:svg="http://www.w3.org/2000/svg"
   xmlns="http://www.w3.org/2000/svg"
   viewBox="0 0 13.75 38.75"
   height="38.75"
   width="13.75"
   xml:space="preserve"
   version="1.1"
   id="svg2"><metadata
     id="metadata8"><rdf:RDF><cc:Work
         rdf:about=""><dc:format>image/svg+xml</dc:format><dc:type
           rdf:resource="http://purl.org/dc/dcmitype/StillImage" /></cc:Work></rdf:RDF></metadata><defs
     id="defs6" /><g
     transform="matrix(1.25,0,0,-1.25,0,38.75)"
     id="g10"><g
       transform="scale(0.1,0.1)"
       id="g12"><path
         id="path14"
         style="fill:#087dbd;fill-opacity:1;fill-rule:nonzero;stroke:none"
         d="m 0,146.949 24.1797,0 -18.39845,-68.0896 19.76955,0 L 23.75,10 l 10.1992,0 15.7813,68.9805 8.9804,0 18.168,-68.5899 8.7813,0.1094 -1.8321,68.6797 18.1599,0 -16.7185,68.4683 c 2.8516,0 19.3785,-0.539 24.3395,0.161 l -4.257,34.332 c 0,7.109 -7.2622,38.25 -9.4106,45.359 -1.8398,6.172 -14.1797,15.621 -20.5898,17.77 -6.4024,2.109 -19.2227,1.41 -26.293,1.41 -7.1094,0 -15,-1.801 -22.0703,-3.559 -5.6602,-1.41 -12.0664,-10.66 -14.1797,-16.332 C 10.6602,221.09 7.80859,203.32 5.69922,194.801 L 0,146.949" /><path
         id="path16"
         style="fill:#ffffff;fill-opacity:1;fill-rule:nonzero;stroke:none"
         d="m 68.0117,246.441 c -2.6211,0.239 -6.8828,0 -10.9023,0.239 -4.0196,0.23 -9.961,0 -12.8086,-0.239 -2.8516,-0.23 -9.7305,-1.871 -10.4297,-1.871 -0.7109,0 -1.1719,0.461 -1.1719,0.461 l 20.4219,-36.64 21.2578,36.64 c -0.1172,1.719 -2.0391,0.629 -3.207,1.289" /><path
         id="path18"
         style="fill:none;stroke:#ffffff;stroke-width:1;stroke-linecap:butt;stroke-linejoin:miter;stroke-miterlimit:4;stroke-dasharray:none;stroke-opacity:1"
         d="m 68.0117,246.441 c -2.6211,0.231 -6.8828,0 -10.9023,0.231 -4.0196,0.238 -9.961,0 -12.8086,-0.231 -2.8516,-0.23 -9.7305,-1.878 -10.4297,-1.878 -0.7109,0 -1.1719,0.468 -1.1719,0.468 l 20.4219,-36.64 21.2578,36.64 c -0.1172,1.719 -2.0391,0.629 -3.207,1.289" /><path
         id="path20"
         style="fill:none;stroke:#087dbd;stroke-width:4;stroke-linecap:butt;stroke-linejoin:miter;stroke-miterlimit:4;stroke-dasharray:none;stroke-opacity:1"
         d="m 53.4414,248.121 c 16.207,0 29.3672,13.16 29.3672,29.41 0,16.25 -13.1602,29.418 -29.3672,29.418 -16.25,0 -29.4219,-13.168 -29.4219,-29.418 0,-16.25 13.1719,-29.41 29.4219,-29.41 z" /><path
         id="path22"
         style="fill:#087dbd;fill-opacity:1;fill-rule:nonzero;stroke:none"
         d="m 23.2813,281.559 c 0,0 -6.0899,-20.938 -17.58208,-20.278 0,0 13.94918,-9.57 25.67188,-3.472" /><path
         id="path24"
         style="fill:none;stroke:#087dbd;stroke-width:4;stroke-linecap:round;stroke-linejoin:round;stroke-miterlimit:4;stroke-dasharray:none;stroke-opacity:1"
         d="m 23.2813,281.563 c 0,0 -6.0899,-20.942 -17.58208,-20.282 0,0 13.94918,-9.57 25.67188,-3.468" /><path
         id="path26"
         style="fill:#087dbd;fill-opacity:1;fill-rule:nonzero;stroke:none"
         d="m 83.4805,281.559 c 0,0 6.0898,-20.938 17.5705,-20.278 0,0 -13.9416,-9.57 -25.6604,-3.472" /><path
         id="path28"
         style="fill:none;stroke:#087dbd;stroke-width:4;stroke-linecap:round;stroke-linejoin:round;stroke-miterlimit:4;stroke-dasharray:none;stroke-opacity:1"
         d="m 83.4805,281.563 c 0,0 6.0898,-20.942 17.5705,-20.282 0,0 -13.9416,-9.57 -25.6604,-3.468" /><path
         id="path30"
         style="fill:#087dbd;fill-opacity:1;fill-rule:nonzero;stroke:none"
         d="m 74.4102,297.809 c -4.6797,-5 -12.7696,-8.321 -21.9883,-8.321 -8.5938,0 -16.1328,2.891 -20.9414,7.34" /><path
         id="path32"
         style="fill:none;stroke:#087dbd;stroke-width:4;stroke-linecap:round;stroke-linejoin:round;stroke-miterlimit:4;stroke-dasharray:none;stroke-opacity:1"
         d="m 74.4102,297.813 c -4.6797,-5 -12.7696,-8.321 -21.9883,-8.321 -8.5938,0 -16.1328,2.891 -20.9414,7.34" /><path
         id="path34"
         style="fill:#087dbd;fill-opacity:1;fill-rule:nonzero;stroke:none"
         d="m 74.4102,297.809 c -5.3516,5.511 -12.7696,8.941 -21.0508,8.941 -8.75,0 -16.4805,-3.859 -21.8789,-9.922 4.8086,-4.449 12.3476,-7.34 20.9414,-7.34 9.2187,0 17.3086,3.321 21.9883,8.321" /><path
         id="path36"
         style="fill:none;stroke:#087dbd;stroke-width:4;stroke-linecap:round;stroke-linejoin:round;stroke-miterlimit:4;stroke-dasharray:none;stroke-opacity:1"
         d="m 74.4102,297.813 c -5.3516,5.507 -12.7696,8.937 -21.0508,8.937 -8.75,0 -16.4805,-3.859 -21.8789,-9.918 4.8086,-4.449 12.3476,-7.34 20.9414,-7.34 9.2187,0 17.3086,3.321 21.9883,8.321 z" /></g></g></svg>