<?xml version="1.0" encoding="UTF-8" standalone="no"?>
<svg
   xmlns:dc="http://purl.org/dc/elements/1.1/"
   xmlns:cc="http://creativecommons.org/ns#"
   xmlns:rdf="http://www.w3.org/1999/02/22-rdf-syntax-ns#"
   xmlns:svg="http://www.w3.org/2000/svg"
   xmlns="http://www.w3.org/2000/svg"
   viewBox="0 0 27.5 37.5"
   height="37.5"
   width="27.5"
   xml:space="preserve"
   version="1.1"
   id="svg2"><metadata
     id="metadata8"><rdf:RDF><cc:Work
         rdf:about=""><dc:format>image/svg+xml</dc:format><dc:type
           rdf:resource="http://purl.org/dc/dcmitype/StillImage" /></cc:Work></rdf:RDF></metadata><defs
     id="defs6" /><g
     transform="matrix(1.25,0,0,-1.25,0,37.5)"
     id="g10"><g
       transform="scale(0.1,0.1)"
       id="g12"><path
         id="path14"
         style="fill:#026c9b;fill-opacity:1;fill-rule:nonzero;stroke:none"
         d="m 5.82031,3.82813 158.199,0 0,245.121 -158.199,0 0,-245.121 z" /><path
         id="path16"
         style="fill:none;stroke:#ffffff;stroke-width:4;stroke-linecap:butt;stroke-linejoin:miter;stroke-miterlimit:4;stroke-dasharray:none;stroke-opacity:1"
         d="m 164.02,248.949 -158.19969,0 0,-245.12087 158.19969,0" /><path
         id="path18"
         style="fill:#026c9b;fill-opacity:1;fill-rule:nonzero;stroke:none"
         d="m 164.02,3.82813 49.14,49.14067 0,245.1212 -144.4491,0 -62.89059,-49.141 158.19969,0 0,-245.12087" /><path
         id="path20"
         style="fill:none;stroke:#ffffff;stroke-width:4;stroke-linecap:butt;stroke-linejoin:miter;stroke-miterlimit:4;stroke-dasharray:none;stroke-opacity:1"
         d="m 164.02,3.82813 49.14,49.14067 0,245.1212 -144.4491,0 -62.89059,-49.141 158.19969,0 0,-245.12087 z" /><path
         id="path22"
         style="fill:#026c9b;fill-opacity:1;fill-rule:nonzero;stroke:none"
         d="m 164.02,248.949 49.14,49.141" /><path
         id="path24"
         style="fill:none;stroke:#ffffff;stroke-width:4;stroke-linecap:butt;stroke-linejoin:miter;stroke-miterlimit:4;stroke-dasharray:none;stroke-opacity:1"
         d="m 164.02,248.949 49.14,49.141" /><path
         id="path26"
         style="fill:none;stroke:#ffffff;stroke-width:4;stroke-linecap:butt;stroke-linejoin:miter;stroke-miterlimit:4;stroke-dasharray:none;stroke-opacity:1"
         d="m 84.3398,248.949 0,-245.12087" /><path
         id="path28"
         style="fill:#026c9b;fill-opacity:1;fill-rule:nonzero;stroke:none"
         d="M 86.8398,248.949 140.309,298.09" /><path
         id="path30"
         style="fill:none;stroke:#ffffff;stroke-width:4;stroke-linecap:butt;stroke-linejoin:miter;stroke-miterlimit:4;stroke-dasharray:none;stroke-opacity:1"
         d="M 86.8398,248.949 140.309,298.09" /><path
         id="path32"
         style="fill:#026c9b;fill-opacity:1;fill-rule:nonzero;stroke:none"
         d="m 19.4883,194.059 53.1211,0 0,32.5 -53.1211,0 0,-32.5 z" /><path
         id="path34"
         style="fill:none;stroke:#ffffff;stroke-width:4;stroke-linecap:butt;stroke-linejoin:miter;stroke-miterlimit:4;stroke-dasharray:none;stroke-opacity:1"
         d="m 19.4883,194.059 53.1211,0 0,32.5 -53.1211,0 0,-32.5 z" /><path
         id="path36"
         style="fill:#026c9b;fill-opacity:1;fill-rule:nonzero;stroke:none"
         d="m 95.6992,194.059 53.1211,0 0,32.5 -53.1211,0 0,-32.5 z" /><path
         id="path38"
         style="fill:none;stroke:#ffffff;stroke-width:4;stroke-linecap:butt;stroke-linejoin:miter;stroke-miterlimit:4;stroke-dasharray:none;stroke-opacity:1"
         d="m 95.6992,194.059 53.1211,0 0,32.5 -53.1211,0 0,-32.5 z" /><path
         id="path40"
         style="fill:#026c9b;fill-opacity:1;fill-rule:nonzero;stroke:none"
         d="m 19.4883,74.0586 53.1211,0 0,32.5 -53.1211,0 0,-32.5 z" /><path
         id="path42"
         style="fill:none;stroke:#ffffff;stroke-width:4;stroke-linecap:butt;stroke-linejoin:miter;stroke-miterlimit:4;stroke-dasharray:none;stroke-opacity:1"
         d="m 19.4883,74.0586 53.1211,0 0,32.5 -53.1211,0 0,-32.5 z" /><path
         id="path44"
         style="fill:#026c9b;fill-opacity:1;fill-rule:nonzero;stroke:none"
         d="m 95.6992,74.0586 53.1211,0 0,32.5 -53.1211,0 0,-32.5 z" /><path
         id="path46"
         style="fill:none;stroke:#ffffff;stroke-width:4;stroke-linecap:butt;stroke-linejoin:miter;stroke-miterlimit:4;stroke-dasharray:none;stroke-opacity:1"
         d="m 95.6992,74.0586 53.1211,0 0,32.5 -53.1211,0 0,-32.5 z" /><path
         id="path48"
         style="fill:#026c9b;fill-opacity:1;fill-rule:nonzero;stroke:none"
         d="m 19.4883,21.5586 53.1211,0 0,32.5 -53.1211,0 0,-32.5 z" /><path
         id="path50"
         style="fill:none;stroke:#ffffff;stroke-width:4;stroke-linecap:butt;stroke-linejoin:miter;stroke-miterlimit:4;stroke-dasharray:none;stroke-opacity:1"
         d="m 19.4883,21.5586 53.1211,0 0,32.5 -53.1211,0 0,-32.5 z" /><path
         id="path52"
         style="fill:#026c9b;fill-opacity:1;fill-rule:nonzero;stroke:none"
         d="m 95.6992,21.5586 53.1211,0 0,32.5 -53.1211,0 0,-32.5 z" /><path
         id="path54"
         style="fill:none;stroke:#ffffff;stroke-width:4;stroke-linecap:butt;stroke-linejoin:miter;stroke-miterlimit:4;stroke-dasharray:none;stroke-opacity:1"
         d="m 95.6992,21.5586 53.1211,0 0,32.5 -53.1211,0 0,-32.5 z" /></g></g></svg>