<?xml version="1.0" encoding="UTF-8" standalone="no"?>
<svg
   xmlns:dc="http://purl.org/dc/elements/1.1/"
   xmlns:cc="http://creativecommons.org/ns#"
   xmlns:rdf="http://www.w3.org/1999/02/22-rdf-syntax-ns#"
   xmlns:svg="http://www.w3.org/2000/svg"
   xmlns="http://www.w3.org/2000/svg"
   xmlns:sodipodi="http://sodipodi.sourceforge.net/DTD/sodipodi-0.dtd"
   xmlns:inkscape="http://www.inkscape.org/namespaces/inkscape"
   viewBox="0 0 51.249996 22.5"
   height="22.5"
   width="51.249996"
   xml:space="preserve"
   version="1.1"
   id="svg2"
   inkscape:version="0.91 r13725"
   sodipodi:docname="stb.svg"><sodipodi:namedview
     pagecolor="#ffffff"
     bordercolor="#666666"
     borderopacity="1"
     objecttolerance="10"
     gridtolerance="10"
     guidetolerance="10"
     inkscape:pageopacity="0"
     inkscape:pageshadow="2"
     inkscape:window-width="640"
     inkscape:window-height="480"
     id="namedview25"
     showgrid="false"
     inkscape:zoom="5.9903382"
     inkscape:cx="25.874996"
     inkscape:cy="11.208301"
     inkscape:window-x="0"
     inkscape:window-y="23"
     inkscape:window-maximized="0"
     inkscape:current-layer="svg2" /><metadata
     id="metadata8"><rdf:RDF><cc:Work
         rdf:about=""><dc:format>image/svg+xml</dc:format><dc:type
           rdf:resource="http://purl.org/dc/dcmitype/StillImage" /></cc:Work></rdf:RDF></metadata><defs
     id="defs6"><clipPath
       id="clipPath18"
       clipPathUnits="userSpaceOnUse"><path
         id="path20"
         d="m 0,0.683594 410,0 0,179.999996 -410,0 L 0,0.683594 Z"
         inkscape:connector-curvature="0" /></clipPath></defs><g
     transform="matrix(1.25,0,0,-1.25,-3.7550926e-6,22.585449)"
     id="g10"><g
       transform="scale(0.1,0.1)"
       id="g12"><g
         id="g14"><g
           clip-path="url(#clipPath18)"
           id="g16"><path
             id="path22"
             style="fill:#036998;fill-opacity:1;fill-rule:nonzero;stroke:none"
             d="m 352.004,7.00391 60,83.80859 0,59.0625 c 0,15.898 -12.895,28.809 -28.789,28.809 l -302.4142,0 c -15.9063,0 -22.1289,-11.68 -32.1289,-21.68 L 5.34375,110.344"
             inkscape:connector-curvature="0" /><path
             id="path24"
             style="fill:none;stroke:#ffffff;stroke-width:3.99993992;stroke-linecap:butt;stroke-linejoin:miter;stroke-miterlimit:4;stroke-dasharray:none;stroke-opacity:1"
             d="m 352.004,7.00391 60,83.80859 0,59.0625 c 0,15.898 -12.895,28.809 -28.789,28.809 l -302.4142,0 c -15.9063,0 -22.1289,-11.68 -32.1289,-21.68 L 5.34375,110.344"
             inkscape:connector-curvature="0" /><path
             id="path26"
             style="fill:#036998;fill-opacity:1;fill-rule:nonzero;stroke:none"
             d="m 362.004,30.8125 c 0,-15.918 -12.895,-28.80859 -28.789,-28.80859 l -302.4142,0 C 14.8945,2.00391 2,14.8945 2,30.8125 L 2,89.875 c 0,15.898 12.8945,28.809 28.8008,28.809 l 302.4142,0 c 15.894,0 28.789,-12.911 28.789,-28.809 l 0,-59.0625"
             inkscape:connector-curvature="0" /><path
             id="path28"
             style="fill:none;stroke:#ffffff;stroke-width:3.99993992;stroke-linecap:butt;stroke-linejoin:miter;stroke-miterlimit:4;stroke-dasharray:none;stroke-opacity:1"
             d="m 362.004,30.8125 c 0,-15.918 -12.895,-28.80859 -28.789,-28.80859 l -302.4142,0 C 14.8945,2.00391 2,14.8945 2,30.8125 L 2,89.875 c 0,15.898 12.8945,28.809 28.8008,28.809 l 302.4142,0 c 15.894,0 28.789,-12.911 28.789,-28.809 l 0,-59.0625 z"
             inkscape:connector-curvature="0" /><path
             id="path30"
             style="fill:#036998;fill-opacity:1;fill-rule:nonzero;stroke:none"
             d="m 110.422,60.4961 151.68,0 0,48.0313 -151.68,0 0,-48.0313 z"
             inkscape:connector-curvature="0" /><path
             id="path32"
             style="fill:none;stroke:#ffffff;stroke-width:3.99993992;stroke-linecap:butt;stroke-linejoin:miter;stroke-miterlimit:4;stroke-dasharray:none;stroke-opacity:1"
             d="m 110.422,60.4961 151.68,0 0,48.0313 -151.68,0 0,-48.0313 z"
             inkscape:connector-curvature="0" /><path
             id="path34"
             style="fill:#036998;fill-opacity:1;fill-rule:nonzero;stroke:none"
             d="m 297.371,90.2656 c 0,-5.1562 -4.18,-9.3359 -9.336,-9.3359 -5.152,0 -9.336,4.1797 -9.336,9.3359 0,5.1563 4.184,9.336 9.336,9.336 5.156,0 9.336,-4.1797 9.336,-9.336"
             inkscape:connector-curvature="0" /><path
             id="path36"
             style="fill:none;stroke:#ffffff;stroke-width:3.99993992;stroke-linecap:butt;stroke-linejoin:miter;stroke-miterlimit:4;stroke-dasharray:none;stroke-opacity:1"
             d="m 297.371,90.2656 c 0,-5.1562 -4.18,-9.3359 -9.336,-9.3359 -5.152,0 -9.336,4.1797 -9.336,9.3359 0,5.1563 4.184,9.336 9.336,9.336 5.156,0 9.336,-4.1797 9.336,-9.336 z"
             inkscape:connector-curvature="0" /><path
             id="path38"
             style="fill:#036998;fill-opacity:1;fill-rule:nonzero;stroke:none"
             d="m 297.371,63.6055 c 0,-5.1563 -4.18,-9.336 -9.336,-9.336 -5.152,0 -9.336,4.1797 -9.336,9.336 0,5.1562 4.184,9.3359 9.336,9.3359 5.156,0 9.336,-4.1797 9.336,-9.3359"
             inkscape:connector-curvature="0" /><path
             id="path40"
             style="fill:none;stroke:#ffffff;stroke-width:3.99993992;stroke-linecap:butt;stroke-linejoin:miter;stroke-miterlimit:4;stroke-dasharray:none;stroke-opacity:1"
             d="m 297.371,63.6055 c 0,-5.1563 -4.18,-9.336 -9.336,-9.336 -5.152,0 -9.336,4.1797 -9.336,9.336 0,5.1562 4.184,9.3359 9.336,9.3359 5.156,0 9.336,-4.1797 9.336,-9.3359 z"
             inkscape:connector-curvature="0" /><path
             id="path42"
             style="fill:#036998;fill-opacity:1;fill-rule:nonzero;stroke:none"
             d="m 297.371,36.9453 c 0,-5.1562 -4.18,-9.3359 -9.336,-9.3359 -5.152,0 -9.336,4.1797 -9.336,9.3359 0,5.1563 4.184,9.3164 9.336,9.3164 5.156,0 9.336,-4.1601 9.336,-9.3164"
             inkscape:connector-curvature="0" /><path
             id="path44"
             style="fill:none;stroke:#ffffff;stroke-width:3.99993992;stroke-linecap:butt;stroke-linejoin:miter;stroke-miterlimit:4;stroke-dasharray:none;stroke-opacity:1"
             d="m 297.371,36.9453 c 0,-5.1562 -4.18,-9.3359 -9.336,-9.3359 -5.152,0 -9.336,4.1797 -9.336,9.3359 0,5.1563 4.184,9.3164 9.336,9.3164 5.156,0 9.336,-4.1601 9.336,-9.3164 z"
             inkscape:connector-curvature="0" /><path
             id="path46"
             style="fill:#036998;fill-opacity:1;fill-rule:nonzero;stroke:none"
             d="m 233.953,28.5273 c 0,-7.3632 -19.39,-13.3398 -43.316,-13.3398 -23.907,0 -43.324,5.9766 -43.324,13.3398 0,7.3633 19.417,13.3399 43.324,13.3399 23.926,0 43.316,-5.9766 43.316,-13.3399"
             inkscape:connector-curvature="0" /><path
             id="path48"
             style="fill:none;stroke:#ffffff;stroke-width:3.99993992;stroke-linecap:butt;stroke-linejoin:miter;stroke-miterlimit:4;stroke-dasharray:none;stroke-opacity:1"
             d="m 233.953,28.5273 c 0,-7.3632 -19.39,-13.3398 -43.316,-13.3398 -23.907,0 -43.324,5.9766 -43.324,13.3398 0,7.3633 19.417,13.3399 43.324,13.3399 23.926,0 43.316,-5.9766 43.316,-13.3399 z"
             inkscape:connector-curvature="0" /></g></g></g></g></svg>