<?xml version="1.0" encoding="UTF-8" standalone="no"?>
<svg
   xmlns:dc="http://purl.org/dc/elements/1.1/"
   xmlns:cc="http://creativecommons.org/ns#"
   xmlns:rdf="http://www.w3.org/1999/02/22-rdf-syntax-ns#"
   xmlns:svg="http://www.w3.org/2000/svg"
   xmlns="http://www.w3.org/2000/svg"
   viewBox="0 0 51.25 22.5"
   height="22.5"
   width="51.25"
   xml:space="preserve"
   version="1.1"
   id="svg2"><metadata
     id="metadata8"><rdf:RDF><cc:Work
         rdf:about=""><dc:format>image/svg+xml</dc:format><dc:type
           rdf:resource="http://purl.org/dc/dcmitype/StillImage" /></cc:Work></rdf:RDF></metadata><defs
     id="defs6" /><g
     transform="matrix(1.25,0,0,-1.25,0,22.5)"
     id="g10"><g
       transform="scale(0.1,0.1)"
       id="g12"><path
         id="path14"
         style="fill:#036998;fill-opacity:1;fill-rule:nonzero;stroke:none"
         d="m 351.988,6.32813 60,83.79297 0,59.0589 c 0,15.898 -12.886,28.832 -28.789,28.832 l -302.4177,0 c -15.9024,0 -22.1094,-11.684 -32.1094,-21.684 L 5.35156,109.648" /><path
         id="path16"
         style="fill:none;stroke:#ffffff;stroke-width:3.99993992;stroke-linecap:butt;stroke-linejoin:miter;stroke-miterlimit:4;stroke-dasharray:none;stroke-opacity:1"
         d="m 351.988,6.32813 60,83.79297 0,59.0589 c 0,15.898 -12.886,28.832 -28.789,28.832 l -302.4177,0 c -15.9024,0 -22.1094,-11.684 -32.1094,-21.684 L 5.35156,109.648" /><path
         id="path18"
         style="fill:#036998;fill-opacity:1;fill-rule:nonzero;stroke:none"
         d="m 361.988,30.1211 c 0,-15.9023 -12.886,-28.79297 -28.789,-28.79297 l -302.4177,0 C 14.8789,1.32813 1.98828,14.2188 1.98828,30.1211 l 0,59.0586 c 0,15.8983 12.89062,28.8323 28.79302,28.8323 l 302.4177,0 c 15.903,0 28.789,-12.934 28.789,-28.8323 l 0,-59.0586" /><path
         id="path20"
         style="fill:none;stroke:#ffffff;stroke-width:3.99993992;stroke-linecap:butt;stroke-linejoin:miter;stroke-miterlimit:4;stroke-dasharray:none;stroke-opacity:1"
         d="m 361.988,30.1211 c 0,-15.9023 -12.886,-28.79297 -28.789,-28.79297 l -302.4177,0 C 14.8789,1.32813 1.98828,14.2188 1.98828,30.1211 l 0,59.0586 c 0,15.8983 12.89062,28.8323 28.79302,28.8323 l 302.4177,0 c 15.903,0 28.789,-12.934 28.789,-28.8323 l 0,-59.0586 z" /><path
         id="path22"
         style="fill:#036998;fill-opacity:1;fill-rule:nonzero;stroke:none"
         d="m 110.43,59.8008 151.68,0 0,48.0508 -151.68,0 0,-48.0508 z" /><path
         id="path24"
         style="fill:none;stroke:#ffffff;stroke-width:3.99993992;stroke-linecap:butt;stroke-linejoin:miter;stroke-miterlimit:4;stroke-dasharray:none;stroke-opacity:1"
         d="m 110.43,59.8008 151.68,0 0,48.0508 -151.68,0 0,-48.0508 z" /><path
         id="path26"
         style="fill:#036998;fill-opacity:1;fill-rule:nonzero;stroke:none"
         d="m 297.379,89.5703 c 0,-5.1601 -4.18,-9.3398 -9.328,-9.3398 -5.16,0 -9.34,4.1797 -9.34,9.3398 0,5.1602 4.18,9.3399 9.34,9.3399 5.148,0 9.328,-4.1797 9.328,-9.3399" /><path
         id="path28"
         style="fill:none;stroke:#ffffff;stroke-width:3.99993992;stroke-linecap:butt;stroke-linejoin:miter;stroke-miterlimit:4;stroke-dasharray:none;stroke-opacity:1"
         d="m 297.379,89.5703 c 0,-5.1601 -4.18,-9.3398 -9.328,-9.3398 -5.16,0 -9.34,4.1797 -9.34,9.3398 0,5.1602 4.18,9.3399 9.34,9.3399 5.148,0 9.328,-4.1797 9.328,-9.3399 z" /><path
         id="path30"
         style="fill:#036998;fill-opacity:1;fill-rule:nonzero;stroke:none"
         d="m 297.379,62.9297 c 0,-5.1602 -4.18,-9.3399 -9.328,-9.3399 -5.16,0 -9.34,4.1797 -9.34,9.3399 0,5.1601 4.18,9.3398 9.34,9.3398 5.148,0 9.328,-4.1797 9.328,-9.3398" /><path
         id="path32"
         style="fill:none;stroke:#ffffff;stroke-width:3.99993992;stroke-linecap:butt;stroke-linejoin:miter;stroke-miterlimit:4;stroke-dasharray:none;stroke-opacity:1"
         d="m 297.379,62.9297 c 0,-5.1602 -4.18,-9.3399 -9.328,-9.3399 -5.16,0 -9.34,4.1797 -9.34,9.3399 0,5.1601 4.18,9.3398 9.34,9.3398 5.148,0 9.328,-4.1797 9.328,-9.3398 z" /><path
         id="path34"
         style="fill:#036998;fill-opacity:1;fill-rule:nonzero;stroke:none"
         d="m 297.379,36.25 c 0,-5.1602 -4.18,-9.3398 -9.328,-9.3398 -5.16,0 -9.34,4.1796 -9.34,9.3398 0,5.1602 4.18,9.3398 9.34,9.3398 5.148,0 9.328,-4.1796 9.328,-9.3398" /><path
         id="path36"
         style="fill:none;stroke:#ffffff;stroke-width:3.99993992;stroke-linecap:butt;stroke-linejoin:miter;stroke-miterlimit:4;stroke-dasharray:none;stroke-opacity:1"
         d="m 297.379,36.25 c 0,-5.1602 -4.18,-9.3398 -9.328,-9.3398 -5.16,0 -9.34,4.1796 -9.34,9.3398 0,5.1602 4.18,9.3398 9.34,9.3398 5.148,0 9.328,-4.1796 9.328,-9.3398 z" /><path
         id="path38"
         style="fill:#036998;fill-opacity:1;fill-rule:nonzero;stroke:none"
         d="m 233.949,27.8516 c 0,-7.3828 -19.379,-13.3633 -43.328,-13.3633 -23.902,0 -43.32,5.9805 -43.32,13.3633 0,7.3476 19.418,13.3203 43.32,13.3203 23.949,0 43.328,-5.9727 43.328,-13.3203" /><path
         id="path40"
         style="fill:none;stroke:#ffffff;stroke-width:3.99993992;stroke-linecap:butt;stroke-linejoin:miter;stroke-miterlimit:4;stroke-dasharray:none;stroke-opacity:1"
         d="m 233.949,27.8516 c 0,-7.3828 -19.379,-13.3633 -43.328,-13.3633 -23.902,0 -43.32,5.9805 -43.32,13.3633 0,7.3476 19.418,13.3203 43.32,13.3203 23.949,0 43.328,-5.9727 43.328,-13.3203 z" /></g></g></svg>