<?xml version="1.0" encoding="UTF-8" standalone="no"?>
<svg
   xmlns:dc="http://purl.org/dc/elements/1.1/"
   xmlns:cc="http://creativecommons.org/ns#"
   xmlns:rdf="http://www.w3.org/1999/02/22-rdf-syntax-ns#"
   xmlns:svg="http://www.w3.org/2000/svg"
   xmlns="http://www.w3.org/2000/svg"
   viewBox="0 0 32.8125 49.712502"
   height="49.712502"
   width="32.8125"
   xml:space="preserve"
   version="1.1"
   id="svg2"><metadata
     id="metadata8"><rdf:RDF><cc:Work
         rdf:about=""><dc:format>image/svg+xml</dc:format><dc:type
           rdf:resource="http://purl.org/dc/dcmitype/StillImage" /></cc:Work></rdf:RDF></metadata><defs
     id="defs6"><clipPath
       id="clipPath18"
       clipPathUnits="userSpaceOnUse"><path
         id="path20"
         d="M 0,0 0,398 260,398 260,0 0,0 Z" /></clipPath></defs><g
     transform="matrix(1.25,0,0,-1.25,0,49.7125)"
     id="g10"><g
       transform="scale(0.1,0.1)"
       id="g12"><g
         id="g14"><g
           clip-path="url(#clipPath18)"
           id="g16"><path
             id="path22"
             style="fill:#026c9b;fill-opacity:1;fill-rule:nonzero;stroke:none"
             d="m 57.4531,4.82422 153.875,0 0,341.777 -153.875,0 0,-341.777 z" /><path
             id="path24"
             style="fill:none;stroke:#ffffff;stroke-width:4;stroke-linecap:butt;stroke-linejoin:miter;stroke-miterlimit:4;stroke-dasharray:none;stroke-opacity:1"
             d="m 211.328,346.602 -153.8749,0 0,-341.77778 153.8749,0" /><path
             id="path26"
             style="fill:#026c9b;fill-opacity:1;fill-rule:nonzero;stroke:none"
             d="m 211.328,4.82422 49.152,49.14058 0,341.7772 -153.886,0 -49.1409,-49.14 153.8749,0 0,-341.77778" /><path
             id="path28"
             style="fill:none;stroke:#ffffff;stroke-width:4;stroke-linecap:butt;stroke-linejoin:miter;stroke-miterlimit:4;stroke-dasharray:none;stroke-opacity:1"
             d="m 211.328,4.82422 49.152,49.14058 0,341.7772 -153.886,0 -49.1409,-49.14 153.8749,0 0,-341.77778 z" /><path
             id="path30"
             style="fill:#026c9b;fill-opacity:1;fill-rule:nonzero;stroke:none"
             d="m 211.328,346.602 49.152,49.14" /><path
             id="path32"
             style="fill:none;stroke:#ffffff;stroke-width:4;stroke-linecap:butt;stroke-linejoin:miter;stroke-miterlimit:4;stroke-dasharray:none;stroke-opacity:1"
             d="m 211.328,346.602 49.152,49.14" /><path
             id="path34"
             style="fill:#026c9b;fill-opacity:1;fill-rule:nonzero;stroke:none"
             d="m 70.7813,190.273 77.5,0 0,11.25 -77.5,0 0,-11.25 z" /><path
             id="path36"
             style="fill:none;stroke:#ffffff;stroke-width:4;stroke-linecap:butt;stroke-linejoin:miter;stroke-miterlimit:4;stroke-dasharray:none;stroke-opacity:1"
             d="m 70.7813,190.273 77.5,0 0,11.25 -77.5,0 0,-11.25 z" /><path
             id="path38"
             style="fill:#026c9b;fill-opacity:1;fill-rule:nonzero;stroke:none"
             d="m 70.7813,166.953 77.5,0 0,11.25 -77.5,0 0,-11.25 z" /><path
             id="path40"
             style="fill:none;stroke:#ffffff;stroke-width:4;stroke-linecap:butt;stroke-linejoin:miter;stroke-miterlimit:4;stroke-dasharray:none;stroke-opacity:1"
             d="m 70.7813,166.953 77.5,0 0,11.25 -77.5,0 0,-11.25 z" /><path
             id="path42"
             style="fill:#026c9b;fill-opacity:1;fill-rule:nonzero;stroke:none"
             d="m 70.7813,143.613 77.5,0 0,11.25 -77.5,0 0,-11.25 z" /><path
             id="path44"
             style="fill:none;stroke:#ffffff;stroke-width:4;stroke-linecap:butt;stroke-linejoin:miter;stroke-miterlimit:4;stroke-dasharray:none;stroke-opacity:1"
             d="m 70.7813,143.613 77.5,0 0,11.25 -77.5,0 0,-11.25 z" /><path
             id="path46"
             style="fill:#026c9b;fill-opacity:1;fill-rule:nonzero;stroke:none"
             d="m 70.7813,120.293 77.5,0 0,11.25 -77.5,0 0,-11.25 z" /><path
             id="path48"
             style="fill:none;stroke:#ffffff;stroke-width:4;stroke-linecap:butt;stroke-linejoin:miter;stroke-miterlimit:4;stroke-dasharray:none;stroke-opacity:1"
             d="m 70.7813,120.293 77.5,0 0,11.25 -77.5,0 0,-11.25 z" /><path
             id="path50"
             style="fill:#026c9b;fill-opacity:1;fill-rule:nonzero;stroke:none"
             d="m 70.7813,96.9531 77.5,0 0,11.25 -77.5,0 0,-11.25 z" /><path
             id="path52"
             style="fill:none;stroke:#ffffff;stroke-width:4;stroke-linecap:butt;stroke-linejoin:miter;stroke-miterlimit:4;stroke-dasharray:none;stroke-opacity:1"
             d="m 70.7813,96.9531 77.5,0 0,11.25 -77.5,0 0,-11.25 z" /><path
             id="path54"
             style="fill:#026c9b;fill-opacity:1;fill-rule:nonzero;stroke:none"
             d="m 70.7813,73.6328 77.5,0 0,11.25 -77.5,0 0,-11.25 z" /><path
             id="path56"
             style="fill:none;stroke:#ffffff;stroke-width:4;stroke-linecap:butt;stroke-linejoin:miter;stroke-miterlimit:4;stroke-dasharray:none;stroke-opacity:1"
             d="m 70.7813,73.6328 77.5,0 0,11.25 -77.5,0 0,-11.25 z" /><path
             id="path58"
             style="fill:#026c9b;fill-opacity:1;fill-rule:nonzero;stroke:none"
             d="m 70.7813,50.293 77.5,0 0,11.25 -77.5,0 0,-11.25 z" /><path
             id="path60"
             style="fill:none;stroke:#ffffff;stroke-width:4;stroke-linecap:butt;stroke-linejoin:miter;stroke-miterlimit:4;stroke-dasharray:none;stroke-opacity:1"
             d="m 70.7813,50.293 77.5,0 0,11.25 -77.5,0 0,-11.25 z" /><path
             id="path62"
             style="fill:#026c9b;fill-opacity:1;fill-rule:nonzero;stroke:none"
             d="m 70.7813,26.9727 77.5,0 0,11.25 -77.5,0 0,-11.25 z" /><path
             id="path64"
             style="fill:none;stroke:#ffffff;stroke-width:4;stroke-linecap:butt;stroke-linejoin:miter;stroke-miterlimit:4;stroke-dasharray:none;stroke-opacity:1"
             d="m 70.7813,26.9727 77.5,0 0,11.25 -77.5,0 0,-11.25 z" /><path
             id="path66"
             style="fill:#026c9b;fill-opacity:1;fill-rule:nonzero;stroke:none"
             d="m 157.617,306.816 c 0,-15.918 -34.844,-28.808 -77.8123,-28.808 C 36.8359,278.008 2,290.898 2,306.816 L 2,240.41 c 0,-15.898 34.8359,-28.808 77.8047,-28.808 42.9683,0 77.8123,12.91 77.8123,28.808 l 0,66.406" /><path
             id="path68"
             style="fill:none;stroke:#ffffff;stroke-width:4;stroke-linecap:butt;stroke-linejoin:miter;stroke-miterlimit:4;stroke-dasharray:none;stroke-opacity:1"
             d="m 157.617,306.816 c 0,-15.918 -34.844,-28.808 -77.8123,-28.808 C 36.8359,278.008 2,290.898 2,306.816 L 2,240.41 c 0,-15.898 34.8359,-28.808 77.8047,-28.808 42.9683,0 77.8123,12.91 77.8123,28.808 l 0,66.406 z" /><path
             id="path70"
             style="fill:#026c9b;fill-opacity:1;fill-rule:nonzero;stroke:none"
             d="m 79.8047,278.008 c 42.9683,0 77.8123,12.89 77.8123,28.808 0,15.918 -34.844,28.829 -77.8123,28.829 C 36.8359,335.645 2,322.734 2,306.816 2,290.898 36.8359,278.008 79.8047,278.008" /><path
             id="path72"
             style="fill:none;stroke:#ffffff;stroke-width:4;stroke-linecap:butt;stroke-linejoin:miter;stroke-miterlimit:4;stroke-dasharray:none;stroke-opacity:1"
             d="m 79.8047,278.008 c 42.9683,0 77.8123,12.89 77.8123,28.808 0,15.918 -34.844,28.829 -77.8123,28.829 C 36.8359,335.645 2,322.734 2,306.816 2,290.898 36.8359,278.008 79.8047,278.008 Z" /><path
             id="path74"
             style="fill:#026c9b;fill-opacity:1;fill-rule:nonzero;stroke:none"
             d="m 240.945,246.816 c 0,-15.918 -34.84,-28.808 -77.808,-28.808 -42.973,0 -77.805,12.89 -77.805,28.808 l 0,-66.406 c 0,-15.898 34.832,-28.808 77.805,-28.808 42.968,0 77.808,12.91 77.808,28.808 l 0,66.406" /><path
             id="path76"
             style="fill:none;stroke:#ffffff;stroke-width:4;stroke-linecap:butt;stroke-linejoin:miter;stroke-miterlimit:4;stroke-dasharray:none;stroke-opacity:1"
             d="m 240.945,246.816 c 0,-15.918 -34.84,-28.808 -77.808,-28.808 -42.973,0 -77.805,12.89 -77.805,28.808 l 0,-66.406 c 0,-15.898 34.832,-28.808 77.805,-28.808 42.968,0 77.808,12.91 77.808,28.808 l 0,66.406 z" /><path
             id="path78"
             style="fill:#026c9b;fill-opacity:1;fill-rule:nonzero;stroke:none"
             d="m 163.137,218.008 c 42.968,0 77.808,12.89 77.808,28.808 0,15.918 -34.84,28.829 -77.808,28.829 -42.973,0 -77.805,-12.911 -77.805,-28.829 0,-15.918 34.832,-28.808 77.805,-28.808" /><path
             id="path80"
             style="fill:none;stroke:#ffffff;stroke-width:4;stroke-linecap:butt;stroke-linejoin:miter;stroke-miterlimit:4;stroke-dasharray:none;stroke-opacity:1"
             d="m 163.137,218.008 c 42.968,0 77.808,12.89 77.808,28.808 0,15.918 -34.84,28.829 -77.808,28.829 -42.973,0 -77.805,-12.911 -77.805,-28.829 0,-15.918 34.832,-28.808 77.805,-28.808 z" /></g></g></g></g></svg>