<?xml version="1.0" encoding="UTF-8" standalone="no"?>
<svg
   xmlns:dc="http://purl.org/dc/elements/1.1/"
   xmlns:cc="http://creativecommons.org/ns#"
   xmlns:rdf="http://www.w3.org/1999/02/22-rdf-syntax-ns#"
   xmlns:svg="http://www.w3.org/2000/svg"
   xmlns="http://www.w3.org/2000/svg"
   viewBox="0 0 42.5 33.75"
   height="33.75"
   width="42.5"
   xml:space="preserve"
   version="1.1"
   id="svg2"><metadata
     id="metadata8"><rdf:RDF><cc:Work
         rdf:about=""><dc:format>image/svg+xml</dc:format><dc:type
           rdf:resource="http://purl.org/dc/dcmitype/StillImage" /></cc:Work></rdf:RDF></metadata><defs
     id="defs6" /><g
     transform="matrix(1.25,0,0,-1.25,0,33.75)"
     id="g10"><g
       transform="scale(0.1,0.1)"
       id="g12"><path
         id="path14"
         style="fill:#0d6e9c;fill-opacity:1;fill-rule:nonzero;stroke:none"
         d="m 6.28906,100.84 242.891,0 0,78.832 -242.891,0 0,-78.832 z" /><path
         id="path16"
         style="fill:#0d6e9c;fill-opacity:1;fill-rule:nonzero;stroke:none"
         d="m 5.62109,179.281 98.12891,79.528 226.641,0 -81.442,-79.528 -243.32791,0" /><path
         id="path18"
         style="fill:#0d6e9c;fill-opacity:1;fill-rule:nonzero;stroke:none"
         d="m 249.02,98.3398 81.14,82.7812 0.07,77.539 -81.21,-79.262 0,-81.0582" /><path
         id="path20"
         style="fill:#0d6e9c;fill-opacity:1;fill-rule:nonzero;stroke:none"
         d="m 6.28906,17.3711 242.891,0 0,85.2305 -242.891,0 0,-85.2305 z" /><path
         id="path22"
         style="fill:#0d6e9c;fill-opacity:1;fill-rule:nonzero;stroke:none"
         d="m 249.02,14.9102 81.14,82.7695 0.07,83.9103 -81.21,-79.262 0,-87.4178" /><path
         id="path24"
         style="fill:#0d6e9c;fill-opacity:1;fill-rule:nonzero;stroke:none"
         d="m 6.28906,100.84 242.891,0 0,78.832 -242.891,0 0,-78.832 z" /><path
         id="path26"
         style="fill:none;stroke:#ffffff;stroke-width:4;stroke-linecap:butt;stroke-linejoin:miter;stroke-miterlimit:4;stroke-dasharray:none;stroke-opacity:1"
         d="m 6.28906,100.844 242.891,0 0,78.8281 -242.891,0 0,-78.8281 z" /><path
         id="path28"
         style="fill:#0d6e9c;fill-opacity:1;fill-rule:nonzero;stroke:none"
         d="m 5.62109,179.281 98.12891,79.528 226.641,0 -81.442,-79.528 -243.32791,0" /><path
         id="path30"
         style="fill:none;stroke:#ffffff;stroke-width:4;stroke-linecap:butt;stroke-linejoin:miter;stroke-miterlimit:4;stroke-dasharray:none;stroke-opacity:1"
         d="m 5.62109,179.281 98.12891,79.532 226.641,0 -81.442,-79.532 -243.32791,0 z" /><path
         id="path32"
         style="fill:#0d6e9c;fill-opacity:1;fill-rule:nonzero;stroke:none"
         d="m 249.02,98.3398 81.14,82.7812 0.07,77.539 -81.21,-79.262 0,-81.0582" /><path
         id="path34"
         style="fill:none;stroke:#ffffff;stroke-width:4;stroke-linecap:butt;stroke-linejoin:miter;stroke-miterlimit:4;stroke-dasharray:none;stroke-opacity:1"
         d="m 249.02,98.3438 81.14,82.7772 0.07,77.531 -81.21,-79.25 0,-81.0582 z" /><path
         id="path36"
         style="fill:#0d6e9c;fill-opacity:1;fill-rule:nonzero;stroke:none"
         d="m 6.28906,17.3711 242.891,0 0,85.2305 -242.891,0 0,-85.2305 z" /><path
         id="path38"
         style="fill:none;stroke:#ffffff;stroke-width:4;stroke-linecap:butt;stroke-linejoin:miter;stroke-miterlimit:4;stroke-dasharray:none;stroke-opacity:1"
         d="m 6.28906,17.3711 242.891,0 0,85.2305 -242.891,0 0,-85.2305 z" /><path
         id="path40"
         style="fill:#0d6e9c;fill-opacity:1;fill-rule:nonzero;stroke:none"
         d="m 249.02,14.9102 81.14,82.7695 0.07,83.9103 -81.21,-79.262 0,-87.4178" /><path
         id="path42"
         style="fill:none;stroke:#ffffff;stroke-width:4;stroke-linecap:butt;stroke-linejoin:miter;stroke-miterlimit:4;stroke-dasharray:none;stroke-opacity:1"
         d="m 249.02,14.9023 81.14,82.7813 0.07,83.8984 -81.21,-79.25 0,-87.4297 z" /><path
         id="path44"
         style="fill:none;stroke:#ffffff;stroke-width:4;stroke-linecap:butt;stroke-linejoin:miter;stroke-miterlimit:4;stroke-dasharray:none;stroke-opacity:1"
         d="m 6.28906,100.844 242.891,0 0,78.8281 -242.891,0 0,-78.8281 z" /><path
         id="path46"
         style="fill:none;stroke:#ffffff;stroke-width:4;stroke-linecap:butt;stroke-linejoin:miter;stroke-miterlimit:4;stroke-dasharray:none;stroke-opacity:1"
         d="m 5.62109,179.281 98.12891,79.532 226.641,0 -81.442,-79.532 -243.32791,0 z" /><path
         id="path48"
         style="fill:none;stroke:#ffffff;stroke-width:4;stroke-linecap:butt;stroke-linejoin:miter;stroke-miterlimit:4;stroke-dasharray:none;stroke-opacity:1"
         d="m 249.02,98.3438 81.14,82.7772 0.07,77.531 -81.21,-79.25 0,-81.0582 z" /><path
         id="path50"
         style="fill:none;stroke:#ffffff;stroke-width:4;stroke-linecap:butt;stroke-linejoin:miter;stroke-miterlimit:4;stroke-dasharray:none;stroke-opacity:1"
         d="m 6.28906,17.3711 242.891,0 0,85.2305 -242.891,0 0,-85.2305 z" /><path
         id="path52"
         style="fill:none;stroke:#ffffff;stroke-width:4;stroke-linecap:butt;stroke-linejoin:miter;stroke-miterlimit:4;stroke-dasharray:none;stroke-opacity:1"
         d="m 249.02,14.9023 81.14,82.7813 0.07,83.8984 -81.21,-79.25 0,-87.4297 z" /><path
         id="path54"
         style="fill:#ffffff;fill-opacity:1;fill-rule:nonzero;stroke:none"
         d="m 180.469,225.059 14.961,-3.75 41.172,11.332 14.957,-3.789 -7.457,11.328 -48.672,0 22.461,-3.789 -37.422,-11.332" /><path
         id="path56"
         style="fill:#ffffff;fill-opacity:1;fill-rule:nonzero;stroke:none"
         d="m 94.3789,236.391 14.9611,3.789 41.172,-11.328 14.957,3.789 -7.457,-11.332 -48.672,0 22.461,3.75 -37.4221,11.332" /><path
         id="path58"
         style="fill:#ffffff;fill-opacity:1;fill-rule:nonzero;stroke:none"
         d="m 247.809,198.66 -14.957,-3.75 -37.422,11.328 -18.711,-3.789 7.5,11.321 48.633,0 -18.711,-3.782 33.668,-11.328" /><path
         id="path60"
         style="fill:#ffffff;fill-opacity:1;fill-rule:nonzero;stroke:none"
         d="m 161.762,209.988 -14.961,3.782 -37.461,-11.321 -18.7189,3.789 7.5,-11.488 48.6799,-0.469 -22.461,4.379 37.422,11.328" /><path
         id="path62"
         style="fill:#ffffff;fill-opacity:1;fill-rule:nonzero;stroke:none"
         d="m 128.398,111.82 c 16.372,0 29.653,4.02 29.653,8.989 0,5 -13.281,9.019 -29.653,9.019 -16.41,0 -29.6871,-4.019 -29.6871,-9.019 0,-4.969 13.2771,-8.989 29.6871,-8.989" /><path
         id="path64"
         style="fill:none;stroke:#000000;stroke-width:3;stroke-linecap:round;stroke-linejoin:round;stroke-miterlimit:4;stroke-dasharray:none;stroke-opacity:1"
         d="m 128.398,111.824 c 16.372,0 29.653,4.02 29.653,8.977 0,5 -13.281,9.031 -29.653,9.031 -16.41,0 -29.6871,-4.031 -29.6871,-9.031 0,-4.957 13.2771,-8.977 29.6871,-8.977 z" /><path
         id="path66"
         style="fill:#ffffff;fill-opacity:1;fill-rule:nonzero;stroke:none"
         d="m 158.051,162.449 c 0,-4.961 -13.281,-9.027 -29.653,-9.027 -16.41,0 -29.6871,4.066 -29.6871,9.027 l 0,-37.23 c 0,-4.957 13.2771,-8.981 29.6871,-8.981 16.372,0 29.653,4.024 29.653,8.981 l 0,37.23" /><path
         id="path68"
         style="fill:none;stroke:#000000;stroke-width:3;stroke-linecap:round;stroke-linejoin:round;stroke-miterlimit:4;stroke-dasharray:none;stroke-opacity:1"
         d="m 158.051,162.441 c 0,-4.957 -13.281,-9.019 -29.653,-9.019 -16.41,0 -29.6871,4.062 -29.6871,9.019 l 0,-37.218 c 0,-4.961 13.2771,-8.989 29.6871,-8.989 16.372,0 29.653,4.028 29.653,8.989 l 0,37.218 z" /><path
         id="path70"
         style="fill:#ffffff;fill-opacity:1;fill-rule:nonzero;stroke:none"
         d="m 128.359,153.422 c 16.371,0 29.653,4.066 29.653,9.027 0,4.961 -13.282,8.981 -29.653,8.981 -16.41,0 -29.6871,-4.02 -29.6871,-8.981 0,-4.961 13.2771,-9.027 29.6871,-9.027" /><path
         id="path72"
         style="fill:none;stroke:#000000;stroke-width:3;stroke-linecap:round;stroke-linejoin:round;stroke-miterlimit:4;stroke-dasharray:none;stroke-opacity:1"
         d="m 128.359,153.422 c 16.371,0 29.653,4.062 29.653,9.019 0,4.961 -13.282,8.993 -29.653,8.993 -16.41,0 -29.6871,-4.032 -29.6871,-8.993 0,-4.957 13.2771,-9.019 29.6871,-9.019 z" /><path
         id="path74"
         style="fill:none;stroke:#ffffff;stroke-width:4;stroke-linecap:round;stroke-linejoin:round;stroke-miterlimit:4;stroke-dasharray:none;stroke-opacity:1"
         d="m 6.28906,101.273 242.89094,0" /><path
         id="path76"
         style="fill:#ffffff;fill-opacity:1;fill-rule:nonzero;stroke:none"
         d="m 99.3398,61.4297 -45.4296,0 0,4.1797 -17.1485,-6.1289 17.1485,-6.1407 0,4.1485 45.4296,0 0,3.9414" /><path
         id="path78"
         style="fill:#ffffff;fill-opacity:1;fill-rule:nonzero;stroke:none"
         d="m 125.039,48.3789 0,-16.0898 -11.719,0 17.27,-6.0899 17.34,6.0899 -11.758,0 0,16.0898 -11.133,0" /><path
         id="path80"
         style="fill:#ffffff;fill-opacity:1;fill-rule:nonzero;stroke:none"
         d="m 125.039,70.0586 0,16.1406 -11.719,0 17.27,6.0508 17.34,-6.0508 -11.758,0 0,-16.1406 -11.133,0" /><path
         id="path82"
         style="fill:#ffffff;fill-opacity:1;fill-rule:nonzero;stroke:none"
         d="m 161.879,57.4883 45.422,0 0,-4.1485 17.148,6.1407 -17.148,6.1289 0,-4.1797 -45.422,0 0,-3.9414" /><path
         id="path84"
         style="fill:none;stroke:#ffffff;stroke-width:4;stroke-linecap:butt;stroke-linejoin:miter;stroke-miterlimit:4;stroke-dasharray:none;stroke-opacity:1"
         d="m 203.711,33.582 c -8.512,-3.1679 -47.691,5.5821 -87.5,19.6094 C 76.4102,67.2109 51.0898,81.1523 59.6094,84.3633 68.1602,87.5625 107.34,78.7734 147.148,64.7539 186.91,50.7227 212.27,36.7813 203.711,33.582 Z" /><path
         id="path86"
         style="fill:none;stroke:#ffffff;stroke-width:4;stroke-linecap:butt;stroke-linejoin:miter;stroke-miterlimit:4;stroke-dasharray:none;stroke-opacity:1"
         d="M 201.449,84.5938 C 210.469,81.582 185.699,67.6836 146.172,53.582 106.602,39.4727 67.2695,30.4922 58.2813,33.5039 c -9.0196,3.0391 15.7382,16.9102 55.2697,31.0078 39.539,14.1406 78.91,23.0899 87.898,20.0821 z" /><path
         id="path88"
         style="fill:#86b6cd;fill-opacity:1;fill-rule:nonzero;stroke:none"
         d="m 149.262,50.1016 c 15,3.707 18.629,11.0586 8.117,16.3672 -10.5,5.3125 -31.168,6.6015 -46.168,2.8906 -15.0391,-3.711 -18.6719,-11.0508 -8.16,-16.3711 10.5,-5.3086 31.168,-6.5977 46.211,-2.8867" /><path
         id="path90"
         style="fill:none;stroke:#ffffff;stroke-width:4;stroke-linecap:butt;stroke-linejoin:miter;stroke-miterlimit:4;stroke-dasharray:none;stroke-opacity:1"
         d="m 149.262,50.1016 c 15,3.7109 18.629,11.0507 8.117,16.3711 -10.5,5.3086 -31.168,6.6015 -46.168,2.8906 -15.0391,-3.711 -18.6719,-11.0625 -8.16,-16.3711 10.5,-5.3086 31.168,-6.6016 46.211,-2.8906 z" /></g></g></svg>