<?xml version="1.0" encoding="UTF-8" standalone="no"?>
<svg
   xmlns:dc="http://purl.org/dc/elements/1.1/"
   xmlns:cc="http://creativecommons.org/ns#"
   xmlns:rdf="http://www.w3.org/1999/02/22-rdf-syntax-ns#"
   xmlns:svg="http://www.w3.org/2000/svg"
   xmlns="http://www.w3.org/2000/svg"
   viewBox="0 0 32.5 51.25"
   height="51.25"
   width="32.5"
   xml:space="preserve"
   version="1.1"
   id="svg2"><metadata
     id="metadata8"><rdf:RDF><cc:Work
         rdf:about=""><dc:format>image/svg+xml</dc:format><dc:type
           rdf:resource="http://purl.org/dc/dcmitype/StillImage" /></cc:Work></rdf:RDF></metadata><defs
     id="defs6"><clipPath
       id="clipPath18"
       clipPathUnits="userSpaceOnUse"><path
         id="path20"
         d="M 0,10 0,408 260,408 260,10 0,10 Z" /></clipPath></defs><g
     transform="matrix(1.25,0,0,-1.25,0,51.25)"
     id="g10"><g
       transform="scale(0.1,0.1)"
       id="g12"><g
         id="g14"><g
           clip-path="url(#clipPath18)"
           id="g16"><path
             id="path22"
             style="fill:#026c9b;fill-opacity:1;fill-rule:nonzero;stroke:none"
             d="m 57.4609,14.8125 153.867,0 0,341.801 -153.867,0 0,-341.801 z" /><path
             id="path24"
             style="fill:none;stroke:#ffffff;stroke-width:4;stroke-linecap:butt;stroke-linejoin:miter;stroke-miterlimit:4;stroke-dasharray:none;stroke-opacity:1"
             d="m 211.328,356.613 -153.8671,0 0,-341.8005 153.8671,0" /><path
             id="path26"
             style="fill:#026c9b;fill-opacity:1;fill-rule:nonzero;stroke:none"
             d="m 211.328,14.8125 49.141,49.1406 0,341.8009 -153.867,0 -49.1411,-49.141 153.8671,0 0,-341.8005" /><path
             id="path28"
             style="fill:none;stroke:#ffffff;stroke-width:4;stroke-linecap:butt;stroke-linejoin:miter;stroke-miterlimit:4;stroke-dasharray:none;stroke-opacity:1"
             d="m 211.328,14.8125 49.141,49.1406 0,341.8009 -153.867,0 -49.1411,-49.141 153.8671,0 0,-341.8005 z" /><path
             id="path30"
             style="fill:#026c9b;fill-opacity:1;fill-rule:nonzero;stroke:none"
             d="m 211.328,356.613 49.141,49.141" /><path
             id="path32"
             style="fill:none;stroke:#ffffff;stroke-width:4;stroke-linecap:butt;stroke-linejoin:miter;stroke-miterlimit:4;stroke-dasharray:none;stroke-opacity:1"
             d="m 211.328,356.613 49.141,49.141" /><path
             id="path34"
             style="fill:#026c9b;fill-opacity:1;fill-rule:nonzero;stroke:none"
             d="m 70.7813,200.281 77.5,0 0,11.25 -77.5,0 0,-11.25 z" /><path
             id="path36"
             style="fill:none;stroke:#ffffff;stroke-width:4;stroke-linecap:butt;stroke-linejoin:miter;stroke-miterlimit:4;stroke-dasharray:none;stroke-opacity:1"
             d="m 70.7813,200.281 77.5,0 0,11.25 -77.5,0 0,-11.25 z" /><path
             id="path38"
             style="fill:#026c9b;fill-opacity:1;fill-rule:nonzero;stroke:none"
             d="m 70.7813,176.961 77.5,0 0,11.25 -77.5,0 0,-11.25 z" /><path
             id="path40"
             style="fill:none;stroke:#ffffff;stroke-width:4;stroke-linecap:butt;stroke-linejoin:miter;stroke-miterlimit:4;stroke-dasharray:none;stroke-opacity:1"
             d="m 70.7813,176.961 77.5,0 0,11.25 -77.5,0 0,-11.25 z" /><path
             id="path42"
             style="fill:#026c9b;fill-opacity:1;fill-rule:nonzero;stroke:none"
             d="m 70.7813,153.602 77.5,0 0,11.25 -77.5,0 0,-11.25 z" /><path
             id="path44"
             style="fill:none;stroke:#ffffff;stroke-width:4;stroke-linecap:butt;stroke-linejoin:miter;stroke-miterlimit:4;stroke-dasharray:none;stroke-opacity:1"
             d="m 70.7813,153.602 77.5,0 0,11.25 -77.5,0 0,-11.25 z" /><path
             id="path46"
             style="fill:#026c9b;fill-opacity:1;fill-rule:nonzero;stroke:none"
             d="m 70.7813,130.281 77.5,0 0,11.25 -77.5,0 0,-11.25 z" /><path
             id="path48"
             style="fill:none;stroke:#ffffff;stroke-width:4;stroke-linecap:butt;stroke-linejoin:miter;stroke-miterlimit:4;stroke-dasharray:none;stroke-opacity:1"
             d="m 70.7813,130.281 77.5,0 0,11.25 -77.5,0 0,-11.25 z" /><path
             id="path50"
             style="fill:#026c9b;fill-opacity:1;fill-rule:nonzero;stroke:none"
             d="m 70.7813,106.961 77.5,0 0,11.25 -77.5,0 0,-11.25 z" /><path
             id="path52"
             style="fill:none;stroke:#ffffff;stroke-width:4;stroke-linecap:butt;stroke-linejoin:miter;stroke-miterlimit:4;stroke-dasharray:none;stroke-opacity:1"
             d="m 70.7813,106.961 77.5,0 0,11.25 -77.5,0 0,-11.25 z" /><path
             id="path54"
             style="fill:#026c9b;fill-opacity:1;fill-rule:nonzero;stroke:none"
             d="m 70.7813,83.6406 77.5,0 0,11.25 -77.5,0 0,-11.25 z" /><path
             id="path56"
             style="fill:none;stroke:#ffffff;stroke-width:4;stroke-linecap:butt;stroke-linejoin:miter;stroke-miterlimit:4;stroke-dasharray:none;stroke-opacity:1"
             d="m 70.7813,83.6406 77.5,0 0,11.25 -77.5,0 0,-11.25 z" /><path
             id="path58"
             style="fill:#026c9b;fill-opacity:1;fill-rule:nonzero;stroke:none"
             d="m 70.7813,60.2813 77.5,0 0,11.25 -77.5,0 0,-11.25 z" /><path
             id="path60"
             style="fill:none;stroke:#ffffff;stroke-width:4;stroke-linecap:butt;stroke-linejoin:miter;stroke-miterlimit:4;stroke-dasharray:none;stroke-opacity:1"
             d="m 70.7813,60.2813 77.5,0 0,11.25 -77.5,0 0,-11.25 z" /><path
             id="path62"
             style="fill:#026c9b;fill-opacity:1;fill-rule:nonzero;stroke:none"
             d="m 70.7813,36.9609 77.5,0 0,11.25 -77.5,0 0,-11.25 z" /><path
             id="path64"
             style="fill:none;stroke:#ffffff;stroke-width:4;stroke-linecap:butt;stroke-linejoin:miter;stroke-miterlimit:4;stroke-dasharray:none;stroke-opacity:1"
             d="m 70.7813,36.9609 77.5,0 0,11.25 -77.5,0 0,-11.25 z" /><path
             id="path66"
             style="fill:#026c9b;fill-opacity:1;fill-rule:nonzero;stroke:none"
             d="m 157.621,316.801 c 0,-15.899 -34.851,-28.789 -77.8202,-28.789 -42.961,0 -77.81252,12.89 -77.81252,28.789 l 0,-66.399 c 0,-15.898 34.85152,-28.789 77.81252,-28.789 42.9692,0 77.8202,12.891 77.8202,28.789 l 0,66.399" /><path
             id="path68"
             style="fill:none;stroke:#ffffff;stroke-width:4;stroke-linecap:butt;stroke-linejoin:miter;stroke-miterlimit:4;stroke-dasharray:none;stroke-opacity:1"
             d="m 157.621,316.801 c 0,-15.899 -34.851,-28.789 -77.8202,-28.789 -42.961,0 -77.81252,12.89 -77.81252,28.789 l 0,-66.399 c 0,-15.898 34.85152,-28.789 77.81252,-28.789 42.9692,0 77.8202,12.891 77.8202,28.789 l 0,66.399 z" /><path
             id="path70"
             style="fill:#026c9b;fill-opacity:1;fill-rule:nonzero;stroke:none"
             d="m 79.8008,288.012 c 42.9692,0 77.8202,12.89 77.8202,28.789 0,15.941 -34.851,28.832 -77.8202,28.832 -42.961,0 -77.81252,-12.891 -77.81252,-28.832 0,-15.899 34.85152,-28.789 77.81252,-28.789" /><path
             id="path72"
             style="fill:none;stroke:#ffffff;stroke-width:4;stroke-linecap:butt;stroke-linejoin:miter;stroke-miterlimit:4;stroke-dasharray:none;stroke-opacity:1"
             d="m 79.8008,288.012 c 42.9692,0 77.8202,12.89 77.8202,28.789 0,15.941 -34.851,28.832 -77.8202,28.832 -42.961,0 -77.81252,-12.891 -77.81252,-28.832 0,-15.899 34.85152,-28.789 77.81252,-28.789 z" /><path
             id="path74"
             style="fill:#026c9b;fill-opacity:1;fill-rule:nonzero;stroke:none"
             d="m 240.941,256.801 c 0,-15.899 -34.851,-28.789 -77.82,-28.789 -42.961,0 -77.8124,12.89 -77.8124,28.789 l 0,-66.399 c 0,-15.898 34.8514,-28.789 77.8124,-28.789 42.969,0 77.82,12.891 77.82,28.789 l 0,66.399" /><path
             id="path76"
             style="fill:none;stroke:#ffffff;stroke-width:4;stroke-linecap:butt;stroke-linejoin:miter;stroke-miterlimit:4;stroke-dasharray:none;stroke-opacity:1"
             d="m 240.941,256.801 c 0,-15.899 -34.851,-28.789 -77.82,-28.789 -42.961,0 -77.8124,12.89 -77.8124,28.789 l 0,-66.399 c 0,-15.898 34.8514,-28.789 77.8124,-28.789 42.969,0 77.82,12.891 77.82,28.789 l 0,66.399 z" /><path
             id="path78"
             style="fill:#026c9b;fill-opacity:1;fill-rule:nonzero;stroke:none"
             d="m 163.121,228.012 c 42.969,0 77.82,12.89 77.82,28.789 0,15.941 -34.851,28.832 -77.82,28.832 -42.961,0 -77.8124,-12.891 -77.8124,-28.832 0,-15.899 34.8514,-28.789 77.8124,-28.789" /><path
             id="path80"
             style="fill:none;stroke:#ffffff;stroke-width:4;stroke-linecap:butt;stroke-linejoin:miter;stroke-miterlimit:4;stroke-dasharray:none;stroke-opacity:1"
             d="m 163.121,228.012 c 42.969,0 77.82,12.89 77.82,28.789 0,15.941 -34.851,28.832 -77.82,28.832 -42.961,0 -77.8124,-12.891 -77.8124,-28.832 0,-15.899 34.8514,-28.789 77.8124,-28.789 z" /></g></g></g></g></svg>