<?xml version="1.0" encoding="UTF-8" standalone="no"?>
<svg
   xmlns:dc="http://purl.org/dc/elements/1.1/"
   xmlns:cc="http://creativecommons.org/ns#"
   xmlns:rdf="http://www.w3.org/1999/02/22-rdf-syntax-ns#"
   xmlns:svg="http://www.w3.org/2000/svg"
   xmlns="http://www.w3.org/2000/svg"
   viewBox="0 0 42.412498 32.174999"
   height="32.174999"
   width="42.412498"
   xml:space="preserve"
   version="1.1"
   id="svg2"><metadata
     id="metadata8"><rdf:RDF><cc:Work
         rdf:about=""><dc:format>image/svg+xml</dc:format><dc:type
           rdf:resource="http://purl.org/dc/dcmitype/StillImage" /></cc:Work></rdf:RDF></metadata><defs
     id="defs6" /><g
     transform="matrix(1.25,0,0,-1.25,0,32.175)"
     id="g10"><g
       transform="scale(0.1,0.1)"
       id="g12"><path
         id="path14"
         style="fill:#0d6e9c;fill-opacity:1;fill-rule:nonzero;stroke:none"
         d="m 8.27734,92.8438 242.891,0 0,78.8555 -242.891,0 0,-78.8555 z" /><path
         id="path16"
         style="fill:#0d6e9c;fill-opacity:1;fill-rule:nonzero;stroke:none"
         d="m 7.64453,171.301 98.11347,79.512 226.64,0 -81.457,-79.512 -243.29647,0" /><path
         id="path18"
         style="fill:#0d6e9c;fill-opacity:1;fill-rule:nonzero;stroke:none"
         d="m 251.039,90.3633 81.133,82.7777 0.051,77.539 -81.184,-79.262 0,-81.0547" /><path
         id="path20"
         style="fill:#0d6e9c;fill-opacity:1;fill-rule:nonzero;stroke:none"
         d="m 8.27734,9.39453 242.891,0 0,85.2344 -242.891,0 0,-85.2344 z" /><path
         id="path22"
         style="fill:#0d6e9c;fill-opacity:1;fill-rule:nonzero;stroke:none"
         d="m 251.039,6.90625 81.133,82.78125 0.051,83.9255 -81.184,-79.2653 0,-87.44145" /><path
         id="path24"
         style="fill:#0d6e9c;fill-opacity:1;fill-rule:nonzero;stroke:none"
         d="m 8.27734,92.8438 242.891,0 0,78.8555 -242.891,0 0,-78.8555 z" /><path
         id="path26"
         style="fill:none;stroke:#ffffff;stroke-width:4;stroke-linecap:butt;stroke-linejoin:miter;stroke-miterlimit:4;stroke-dasharray:none;stroke-opacity:1"
         d="m 8.27734,92.8438 242.891,0 0,78.8555 -242.891,0 0,-78.8555 z" /><path
         id="path28"
         style="fill:#0d6e9c;fill-opacity:1;fill-rule:nonzero;stroke:none"
         d="m 7.64453,171.301 98.11347,79.512 226.64,0 -81.457,-79.512 -243.29647,0" /><path
         id="path30"
         style="fill:none;stroke:#ffffff;stroke-width:4;stroke-linecap:butt;stroke-linejoin:miter;stroke-miterlimit:4;stroke-dasharray:none;stroke-opacity:1"
         d="m 7.64453,171.301 98.11347,79.512 226.64,0 -81.457,-79.512 -243.29647,0 z" /><path
         id="path32"
         style="fill:#0d6e9c;fill-opacity:1;fill-rule:nonzero;stroke:none"
         d="m 251.039,90.3633 81.133,82.7777 0.051,77.539 -81.184,-79.262 0,-81.0547" /><path
         id="path34"
         style="fill:none;stroke:#ffffff;stroke-width:4;stroke-linecap:butt;stroke-linejoin:miter;stroke-miterlimit:4;stroke-dasharray:none;stroke-opacity:1"
         d="m 251.039,90.3633 81.133,82.7777 0.051,77.539 -81.184,-79.262 0,-81.0547 z" /><path
         id="path36"
         style="fill:#0d6e9c;fill-opacity:1;fill-rule:nonzero;stroke:none"
         d="m 8.27734,9.39453 242.891,0 0,85.2344 -242.891,0 0,-85.2344 z" /><path
         id="path38"
         style="fill:none;stroke:#ffffff;stroke-width:4;stroke-linecap:butt;stroke-linejoin:miter;stroke-miterlimit:4;stroke-dasharray:none;stroke-opacity:1"
         d="m 8.27734,9.39453 242.891,0 0,85.2344 -242.891,0 0,-85.2344 z" /><path
         id="path40"
         style="fill:#0d6e9c;fill-opacity:1;fill-rule:nonzero;stroke:none"
         d="m 251.039,6.90625 81.133,82.78125 0.051,83.9255 -81.184,-79.2653 0,-87.44145" /><path
         id="path42"
         style="fill:none;stroke:#ffffff;stroke-width:4;stroke-linecap:butt;stroke-linejoin:miter;stroke-miterlimit:4;stroke-dasharray:none;stroke-opacity:1"
         d="m 251.039,6.90625 81.133,82.78125 0.051,83.9255 -81.184,-79.2653 0,-87.44145 z" /><path
         id="path44"
         style="fill:none;stroke:#ffffff;stroke-width:4;stroke-linecap:butt;stroke-linejoin:miter;stroke-miterlimit:4;stroke-dasharray:none;stroke-opacity:1"
         d="m 8.27734,92.8438 242.891,0 0,78.8555 -242.891,0 0,-78.8555 z" /><path
         id="path46"
         style="fill:none;stroke:#ffffff;stroke-width:4;stroke-linecap:butt;stroke-linejoin:miter;stroke-miterlimit:4;stroke-dasharray:none;stroke-opacity:1"
         d="m 7.64453,171.301 98.11347,79.512 226.64,0 -81.457,-79.512 -243.29647,0 z" /><path
         id="path48"
         style="fill:none;stroke:#ffffff;stroke-width:4;stroke-linecap:butt;stroke-linejoin:miter;stroke-miterlimit:4;stroke-dasharray:none;stroke-opacity:1"
         d="m 251.039,90.3633 81.133,82.7777 0.051,77.539 -81.184,-79.262 0,-81.0547 z" /><path
         id="path50"
         style="fill:none;stroke:#ffffff;stroke-width:4;stroke-linecap:butt;stroke-linejoin:miter;stroke-miterlimit:4;stroke-dasharray:none;stroke-opacity:1"
         d="m 8.27734,9.39453 242.891,0 0,85.2344 -242.891,0 0,-85.2344 z" /><path
         id="path52"
         style="fill:none;stroke:#ffffff;stroke-width:4;stroke-linecap:butt;stroke-linejoin:miter;stroke-miterlimit:4;stroke-dasharray:none;stroke-opacity:1"
         d="m 251.039,6.90625 81.133,82.78125 0.051,83.9255 -81.184,-79.2653 0,-87.44145 z" /><path
         id="path54"
         style="fill:#ffffff;fill-opacity:1;fill-rule:nonzero;stroke:none"
         d="m 182.457,217.086 14.981,-3.77 41.171,11.317 14.969,-3.77 -7.488,11.317 -48.652,0 22.46,-3.77 -37.441,-11.324" /><path
         id="path56"
         style="fill:#ffffff;fill-opacity:1;fill-rule:nonzero;stroke:none"
         d="m 96.3828,228.41 14.9652,3.77 41.175,-11.317 14.965,3.77 -7.476,-11.317 -48.664,0 22.465,3.77 -37.4302,11.324" /><path
         id="path58"
         style="fill:#ffffff;fill-opacity:1;fill-rule:nonzero;stroke:none"
         d="m 249.828,190.676 -14.969,-3.77 -37.421,11.321 -18.711,-3.782 7.488,11.321 48.644,0 -18.711,-3.774 33.68,-11.316" /><path
         id="path60"
         style="fill:#ffffff;fill-opacity:1;fill-rule:nonzero;stroke:none"
         d="m 163.754,201.992 -14.965,3.774 -37.441,-11.321 -18.7074,3.782 7.4804,-11.454 48.668,-0.488 -22.465,4.391 37.43,11.316" /><path
         id="path62"
         style="fill:#ffffff;fill-opacity:1;fill-rule:nonzero;stroke:none"
         d="m 130.387,103.82 c 16.386,0 29.672,4.043 29.672,9.012 0,4.973 -13.286,8.996 -29.672,8.996 -16.399,0 -29.688,-4.023 -29.688,-8.996 0,-4.969 13.289,-9.012 29.688,-9.012" /><path
         id="path64"
         style="fill:none;stroke:#000000;stroke-width:3;stroke-linecap:round;stroke-linejoin:round;stroke-miterlimit:4;stroke-dasharray:none;stroke-opacity:1"
         d="m 130.387,103.82 c 16.386,0 29.672,4.043 29.672,9.012 0,4.973 -13.286,8.996 -29.672,8.996 -16.399,0 -29.688,-4.023 -29.688,-8.996 0,-4.969 13.289,-9.012 29.688,-9.012 z" /><path
         id="path66"
         style="fill:#ffffff;fill-opacity:1;fill-rule:nonzero;stroke:none"
         d="m 160.059,154.445 c 0,-4.968 -13.286,-8.996 -29.672,-8.996 -16.399,0 -29.688,4.028 -29.688,8.996 l 0,-37.207 c 0,-4.961 13.289,-8.984 29.688,-8.984 16.386,0 29.672,4.023 29.672,8.984 l 0,37.207" /><path
         id="path68"
         style="fill:none;stroke:#000000;stroke-width:3;stroke-linecap:round;stroke-linejoin:round;stroke-miterlimit:4;stroke-dasharray:none;stroke-opacity:1"
         d="m 160.059,154.445 c 0,-4.968 -13.286,-8.996 -29.672,-8.996 -16.399,0 -29.688,4.028 -29.688,8.996 l 0,-37.207 c 0,-4.961 13.289,-8.984 29.688,-8.984 16.386,0 29.672,4.023 29.672,8.984 l 0,37.207 z" /><path
         id="path70"
         style="fill:#ffffff;fill-opacity:1;fill-rule:nonzero;stroke:none"
         d="m 130.344,145.449 c 16.39,0 29.676,4.028 29.676,8.996 0,4.969 -13.286,8.989 -29.676,8.989 -16.395,0 -29.684,-4.02 -29.684,-8.989 0,-4.968 13.289,-8.996 29.684,-8.996" /><path
         id="path72"
         style="fill:none;stroke:#000000;stroke-width:3;stroke-linecap:round;stroke-linejoin:round;stroke-miterlimit:4;stroke-dasharray:none;stroke-opacity:1"
         d="m 130.344,145.449 c 16.39,0 29.676,4.028 29.676,8.996 0,4.969 -13.286,8.989 -29.676,8.989 -16.395,0 -29.684,-4.02 -29.684,-8.989 0,-4.968 13.289,-8.996 29.684,-8.996 z" /><path
         id="path74"
         style="fill:none;stroke:#ffffff;stroke-width:4;stroke-linecap:round;stroke-linejoin:round;stroke-miterlimit:4;stroke-dasharray:none;stroke-opacity:1"
         d="m 8.27734,93.2734 242.89066,0" /><path
         id="path76"
         style="fill:#ffffff;fill-opacity:1;fill-rule:nonzero;stroke:none"
         d="m 101.355,53.4375 -45.437,0 0,4.1719 -17.1485,-6.1328 17.1485,-6.1328 0,4.1406 45.437,0 0,3.9531" /><path
         id="path78"
         style="fill:#ffffff;fill-opacity:1;fill-rule:nonzero;stroke:none"
         d="m 127.051,40.3906 0,-16.1054 -11.742,0 17.296,-6.0821 17.313,6.0821 -11.73,0 0,16.1054 -11.137,0" /><path
         id="path80"
         style="fill:#ffffff;fill-opacity:1;fill-rule:nonzero;stroke:none"
         d="m 127.051,62.0898 0,16.1055 -11.742,0 17.296,6.082 17.313,-6.082 -11.73,0 0,-16.1055 -11.137,0" /><path
         id="path82"
         style="fill:#ffffff;fill-opacity:1;fill-rule:nonzero;stroke:none"
         d="m 163.871,49.4844 45.442,0 0,-4.1406 17.148,6.1328 -17.148,6.1328 0,-4.1719 -45.442,0 0,-3.9531" /><path
         id="path84"
         style="fill:none;stroke:#ffffff;stroke-width:4;stroke-linecap:butt;stroke-linejoin:miter;stroke-miterlimit:4;stroke-dasharray:none;stroke-opacity:1"
         d="m 205.719,25.6055 c -8.516,-3.1953 -47.715,5.5859 -87.5,19.5976 -39.7971,14.0157 -65.1331,27.9727 -56.5979,31.1641 8.5273,3.1953 47.7189,-5.5781 87.5119,-19.6094 39.789,-14.0156 65.121,-27.957 56.586,-31.1523 z" /><path
         id="path86"
         style="fill:none;stroke:#ffffff;stroke-width:4;stroke-linecap:butt;stroke-linejoin:miter;stroke-miterlimit:4;stroke-dasharray:none;stroke-opacity:1"
         d="M 203.453,76.6133 C 212.457,73.5859 187.699,59.6797 148.168,45.5859 108.621,31.4766 69.2773,22.4922 60.2734,25.5195 c -9.0039,3.0352 15.7422,16.9141 55.2896,31.0235 39.535,14.1133 78.886,23.0859 87.89,20.0703 z" /><path
         id="path88"
         style="fill:#86b6cd;fill-opacity:1;fill-rule:nonzero;stroke:none"
         d="m 151.25,42.1094 c 15.016,3.7187 18.652,11.0547 8.145,16.3789 -10.508,5.3125 -31.18,6.6015 -46.196,2.8789 -15.0115,-3.7188 -18.6521,-11.043 -8.136,-16.3555 10.5,-5.332 31.175,-6.6211 46.187,-2.9023" /><path
         id="path90"
         style="fill:none;stroke:#ffffff;stroke-width:4;stroke-linecap:butt;stroke-linejoin:miter;stroke-miterlimit:4;stroke-dasharray:none;stroke-opacity:1"
         d="m 151.25,42.1094 c 15.016,3.7187 18.652,11.0547 8.145,16.3789 -10.508,5.3125 -31.18,6.6015 -46.196,2.8789 -15.0115,-3.7188 -18.6521,-11.043 -8.136,-16.3555 10.5,-5.332 31.175,-6.6211 46.187,-2.9023 z" /></g></g></svg>