<svg xmlns="http://www.w3.org/2000/svg" viewBox="0 0 42.5 33.75" height="33.75" width="42.5"><path d="M.786 21.145h30.362v-9.854H.786v9.854z" fill="#0d6e9c"/><path d="M.703 11.34l12.266-9.941h28.33l-10.18 9.94H.703" fill="#0d6e9c"/><path d="M31.128 21.458L41.27 11.11l.009-9.692-10.152 9.907v10.133" fill="#0d6e9c"/><path d="M.786 31.579h30.362V20.925H.786v10.654z" fill="#0d6e9c"/><path d="M31.128 31.886L41.27 21.54l.009-10.489-10.152 9.908v10.927" fill="#0d6e9c"/><path d="M.786 21.145h30.362v-9.854H.786v9.854z" fill="#0d6e9c"/><path d="M.786 21.145h30.362V11.29H.786v9.854z" fill="none" stroke="#fff" stroke-width=".5"/><path d="M.703 11.34l12.266-9.941h28.33l-10.18 9.94H.703" fill="#0d6e9c"/><path d="M.703 11.34l12.266-9.942h28.33l-10.18 9.942H.703z" fill="none" stroke="#fff" stroke-width=".5"/><path d="M31.128 21.458L41.27 11.11l.009-9.692-10.152 9.907v10.133" fill="#0d6e9c"/><path d="M31.128 21.457L41.27 11.11l.009-9.691-10.152 9.906v10.132z" fill="none" stroke="#fff" stroke-width=".5"/><path d="M.786 31.579h30.362V20.925H.786v10.654z" fill="#0d6e9c"/><path d="M.786 31.579h30.362V20.925H.786v10.654z" fill="none" stroke="#fff" stroke-width=".5"/><path d="M31.128 31.886L41.27 21.54l.009-10.489-10.152 9.908v10.927" fill="#0d6e9c"/><path d="M31.128 31.887L41.27 21.54l.009-10.488-10.152 9.906v10.93z" fill="none" stroke="#fff" stroke-width=".5"/><path d="M.786 21.145h30.362V11.29H.786v9.854z" fill="none" stroke="#fff" stroke-width=".5"/><path d="M.703 11.34l12.266-9.942h28.33l-10.18 9.942H.703z" fill="none" stroke="#fff" stroke-width=".5"/><path d="M31.128 21.457L41.27 11.11l.009-9.691-10.152 9.906v10.132z" fill="none" stroke="#fff" stroke-width=".5"/><path d="M.786 31.579h30.362V20.925H.786v10.654z" fill="none" stroke="#fff" stroke-width=".5"/><path d="M31.128 31.887L41.27 21.54l.009-10.488-10.152 9.906v10.93z" fill="none" stroke="#fff" stroke-width=".5"/><path d="M22.559 5.618l1.87.468 5.146-1.416 1.87.474-.932-1.416h-6.084l2.807.473-4.677 1.417M11.797 4.201l1.87-.473 5.147 1.416 1.87-.474-.933 1.416h-6.084l2.808-.468L11.797 4.2M30.976 8.918l-1.87.468L24.43 7.97l-2.34.474.938-1.415h6.08l-2.34.473 4.21 1.416M20.22 7.502l-1.87-.473-4.683 1.415-2.34-.474.938 1.436 6.085.059-2.808-.548 4.678-1.416M16.05 19.773c2.046 0 3.706-.503 3.706-1.124 0-.625-1.66-1.128-3.706-1.128-2.052 0-3.711.503-3.711 1.128 0 .621 1.66 1.123 3.71 1.123" fill="#fff"/><path d="M16.05 19.772c2.046 0 3.706-.502 3.706-1.122 0-.625-1.66-1.129-3.706-1.129-2.052 0-3.711.504-3.711 1.129 0 .62 1.66 1.122 3.71 1.122z" fill="none" stroke="#000" stroke-width=".375" stroke-linecap="round" stroke-linejoin="round"/><path d="M19.756 13.444c0 .62-1.66 1.128-3.706 1.128-2.052 0-3.711-.508-3.711-1.128v4.654c0 .62 1.66 1.122 3.71 1.122 2.047 0 3.707-.503 3.707-1.122v-4.654" fill="#fff"/><path d="M19.756 13.445c0 .62-1.66 1.127-3.706 1.127-2.052 0-3.711-.507-3.711-1.127v4.652c0 .62 1.66 1.124 3.71 1.124 2.047 0 3.707-.504 3.707-1.124v-4.652z" fill="none" stroke="#000" stroke-width=".375" stroke-linecap="round" stroke-linejoin="round"/><path d="M16.045 14.572c2.046 0 3.706-.508 3.706-1.128 0-.62-1.66-1.123-3.706-1.123-2.051 0-3.711.503-3.711 1.123s1.66 1.128 3.71 1.128" fill="#fff"/><path d="M16.045 14.572c2.046 0 3.706-.507 3.706-1.127s-1.66-1.124-3.706-1.124c-2.051 0-3.711.504-3.711 1.124 0 .62 1.66 1.127 3.71 1.127z" fill="none" stroke="#000" stroke-width=".375" stroke-linecap="round" stroke-linejoin="round"/><path d="M.786 21.09h30.361" fill="none" stroke="#fff" stroke-width=".5" stroke-linecap="round" stroke-linejoin="round"/><path d="M12.417 26.071H6.74v-.522l-2.144.766 2.144.768v-.519h5.678v-.493M15.63 27.703v2.01h-1.465l2.159.762 2.167-.761h-1.47v-2.011H15.63M15.63 24.993v-2.018h-1.465l2.159-.756 2.167.756h-1.47v2.018H15.63M20.235 26.564h5.678v.519l2.143-.768-2.143-.766v.522h-5.678v.493" fill="#fff"/><path d="M25.464 29.552c-1.064.396-5.961-.698-10.938-2.45-4.975-1.753-8.14-3.496-7.075-3.897 1.069-.4 5.967.698 10.943 2.45 4.97 1.755 8.14 3.497 7.07 3.897z" fill="none" stroke="#fff" stroke-width=".5"/><path d="M25.181 23.176c1.128.376-1.969 2.114-6.91 3.876-4.946 1.764-9.862 2.886-10.986 2.51-1.127-.38 1.967-2.114 6.909-3.876 4.942-1.768 9.864-2.886 10.987-2.51z" fill="none" stroke="#fff" stroke-width=".5"/><path d="M18.658 27.487c1.875-.463 2.328-1.382 1.014-2.046-1.312-.664-3.896-.825-5.77-.36-1.88.463-2.335 1.38-1.02 2.045 1.312.664 3.895.825 5.776.361" fill="#86b6cd"/><path d="M18.658 27.487c1.875-.464 2.328-1.381 1.014-2.046-1.312-.664-3.896-.825-5.77-.361-1.88.463-2.335 1.382-1.02 2.046 1.312.664 3.895.825 5.776.361z" fill="none" stroke="#fff" stroke-width=".5"/></svg>