<svg xmlns="http://www.w3.org/2000/svg" viewBox="0 0 32.5 51.25" height="51.25" width="32.5"><defs><clipPath id="a"><path d="M0 10v398h260V10H0z"/></clipPath></defs><g clip-path="url(#a)" transform="matrix(.13 0 0 -.13 0 51.25)"><path d="M57.46 14.813h153.868v341.8H57.46v-341.8z" fill="#026c9b"/><path d="M211.328 356.613H57.461v-341.8h153.867" fill="none" stroke="#fff" stroke-width="4"/><path d="M211.328 14.813l49.141 49.14v341.801H106.602l-49.141-49.141h153.867v-341.8" fill="#026c9b"/><path d="M211.328 14.813l49.141 49.14v341.801H106.602l-49.141-49.141h153.867v-341.8z" fill="none" stroke="#fff" stroke-width="4"/><path d="M211.328 356.613l49.141 49.141" fill="#026c9b"/><path d="M211.328 356.613l49.141 49.141" fill="none" stroke="#fff" stroke-width="4"/><path d="M70.781 200.281h77.5v11.25h-77.5v-11.25z" fill="#026c9b"/><path d="M70.781 200.281h77.5v11.25h-77.5v-11.25z" fill="none" stroke="#fff" stroke-width="4"/><path d="M70.781 176.961h77.5v11.25h-77.5v-11.25z" fill="#026c9b"/><path d="M70.781 176.961h77.5v11.25h-77.5v-11.25z" fill="none" stroke="#fff" stroke-width="4"/><path d="M70.781 153.602h77.5v11.25h-77.5v-11.25z" fill="#026c9b"/><path d="M70.781 153.602h77.5v11.25h-77.5v-11.25z" fill="none" stroke="#fff" stroke-width="4"/><path d="M70.781 130.281h77.5v11.25h-77.5v-11.25z" fill="#026c9b"/><path d="M70.781 130.281h77.5v11.25h-77.5v-11.25z" fill="none" stroke="#fff" stroke-width="4"/><path d="M70.781 106.961h77.5v11.25h-77.5v-11.25z" fill="#026c9b"/><path d="M70.781 106.961h77.5v11.25h-77.5v-11.25z" fill="none" stroke="#fff" stroke-width="4"/><path d="M70.781 83.64h77.5v11.25h-77.5V83.64z" fill="#026c9b"/><path d="M70.781 83.64h77.5v11.25h-77.5V83.64z" fill="none" stroke="#fff" stroke-width="4"/><path d="M70.781 60.281h77.5v11.25h-77.5v-11.25z" fill="#026c9b"/><path d="M70.781 60.281h77.5v11.25h-77.5v-11.25z" fill="none" stroke="#fff" stroke-width="4"/><path d="M70.781 36.96h77.5v11.25h-77.5V36.96z" fill="#026c9b"/><path d="M70.781 36.96h77.5v11.25h-77.5V36.96z" fill="none" stroke="#fff" stroke-width="4"/><path d="M157.621 316.801c0-15.899-34.851-28.789-77.82-28.789-42.961 0-77.813 12.89-77.813 28.789v-66.399c0-15.898 34.852-28.789 77.813-28.789 42.969 0 77.82 12.891 77.82 28.789v66.399" fill="#026c9b"/><path d="M157.621 316.801c0-15.899-34.851-28.789-77.82-28.789-42.961 0-77.813 12.89-77.813 28.789v-66.399c0-15.898 34.852-28.789 77.813-28.789 42.969 0 77.82 12.891 77.82 28.789v66.399z" fill="none" stroke="#fff" stroke-width="4"/><path d="M79.8 288.012c42.97 0 77.821 12.89 77.821 28.789 0 15.941-34.851 28.832-77.82 28.832-42.961 0-77.813-12.891-77.813-28.832 0-15.899 34.852-28.789 77.813-28.789" fill="#026c9b"/><path d="M79.8 288.012c42.97 0 77.821 12.89 77.821 28.789 0 15.941-34.851 28.832-77.82 28.832-42.961 0-77.813-12.891-77.813-28.832 0-15.899 34.852-28.789 77.813-28.789z" fill="none" stroke="#fff" stroke-width="4"/><path d="M240.941 256.801c0-15.899-34.851-28.789-77.82-28.789-42.961 0-77.812 12.89-77.812 28.789v-66.399c0-15.898 34.851-28.789 77.812-28.789 42.969 0 77.82 12.891 77.82 28.789v66.399" fill="#026c9b"/><path d="M240.941 256.801c0-15.899-34.851-28.789-77.82-28.789-42.961 0-77.812 12.89-77.812 28.789v-66.399c0-15.898 34.851-28.789 77.812-28.789 42.969 0 77.82 12.891 77.82 28.789v66.399z" fill="none" stroke="#fff" stroke-width="4"/><path d="M163.121 228.012c42.969 0 77.82 12.89 77.82 28.789 0 15.941-34.851 28.832-77.82 28.832-42.961 0-77.812-12.891-77.812-28.832 0-15.899 34.851-28.789 77.812-28.789" fill="#026c9b"/><path d="M163.121 228.012c42.969 0 77.82 12.89 77.82 28.789 0 15.941-34.851 28.832-77.82 28.832-42.961 0-77.812-12.891-77.812-28.832 0-15.899 34.851-28.789 77.812-28.789z" fill="none" stroke="#fff" stroke-width="4"/></g></svg>