<?xml version="1.0" encoding="UTF-8" standalone="no"?>
<svg
   xmlns:dc="http://purl.org/dc/elements/1.1/"
   xmlns:cc="http://creativecommons.org/ns#"
   xmlns:rdf="http://www.w3.org/1999/02/22-rdf-syntax-ns#"
   xmlns:svg="http://www.w3.org/2000/svg"
   xmlns="http://www.w3.org/2000/svg"
   viewBox="0 0 35 37.5"
   height="37.5"
   width="35"
   xml:space="preserve"
   version="1.1"
   id="svg2"><metadata
     id="metadata8"><rdf:RDF><cc:Work
         rdf:about=""><dc:format>image/svg+xml</dc:format><dc:type
           rdf:resource="http://purl.org/dc/dcmitype/StillImage" /></cc:Work></rdf:RDF></metadata><defs
     id="defs6"><clipPath
       id="clipPath18"
       clipPathUnits="userSpaceOnUse"><path
         id="path20"
         d="M 0,10 0,296 280,296 280,10 0,10 Z" /></clipPath></defs><g
     transform="matrix(1.25,0,0,-1.25,0,37.5)"
     id="g10"><g
       transform="scale(0.1,0.1)"
       id="g12"><g
         id="g14"><g
           clip-path="url(#clipPath18)"
           id="g16"><path
             id="path22"
             style="fill:#026c9b;fill-opacity:1;fill-rule:nonzero;stroke:none"
             d="m 5.42969,14.5781 226.719,0 0,230.699 -226.719,0 0,-230.699 z" /><path
             id="path24"
             style="fill:none;stroke:#ffffff;stroke-width:4;stroke-linecap:butt;stroke-linejoin:miter;stroke-miterlimit:4;stroke-dasharray:none;stroke-opacity:1"
             d="m 5.42969,14.5781 226.719,0 0,230.699 -226.719,0 0,-230.699 z" /><path
             id="path26"
             style="fill:#026c9b;fill-opacity:1;fill-rule:nonzero;stroke:none"
             d="m 278.09,291.25 -45.942,-45.902 -226.98784,0 49.01954,45.902 223.9103,0" /><path
             id="path28"
             style="fill:none;stroke:#ffffff;stroke-width:4;stroke-linecap:butt;stroke-linejoin:miter;stroke-miterlimit:4;stroke-dasharray:none;stroke-opacity:1"
             d="m 278.09,291.25 -45.942,-45.902 -226.98784,0 49.01954,45.902 223.9103,0 z" /><path
             id="path30"
             style="fill:#026c9b;fill-opacity:1;fill-rule:nonzero;stroke:none"
             d="m 278.359,70.1602 0,220.9378 -46.211,-45.938 0,-229.6912 46.211,54.6914" /><path
             id="path32"
             style="fill:none;stroke:#ffffff;stroke-width:4;stroke-linecap:butt;stroke-linejoin:miter;stroke-miterlimit:4;stroke-dasharray:none;stroke-opacity:1"
             d="m 278.359,70.1602 0,220.9378 -46.211,-45.938 0,-229.6912 46.211,54.6914 z" /><path
             id="path34"
             style="fill:none;stroke:#ffffff;stroke-width:14.25;stroke-linecap:round;stroke-linejoin:miter;stroke-miterlimit:3.8599999;stroke-dasharray:none;stroke-opacity:1"
             d="M 7.10938,18.5586 226.371,237.809" /><g
             transform="scale(10,10)"
             id="g36"><text
               id="text38"
               style="font-variant:normal;font-weight:normal;font-size:6px;font-family:Helvetica;-inkscape-font-specification:Helvetica;writing-mode:lr-tb;fill:#ffffff;fill-opacity:1;fill-rule:nonzero;stroke:none"
               transform="matrix(1,0,0,-1,10.8832,2.93594)"><tspan
                 id="tspan40"
                 y="0"
                 x="0 4.0019999 7.6680002">STP</tspan></text>
</g></g></g></g></g></svg>