<?xml version="1.0" encoding="UTF-8" standalone="no"?>
<svg
   xmlns:dc="http://purl.org/dc/elements/1.1/"
   xmlns:cc="http://creativecommons.org/ns#"
   xmlns:rdf="http://www.w3.org/1999/02/22-rdf-syntax-ns#"
   xmlns:svg="http://www.w3.org/2000/svg"
   xmlns="http://www.w3.org/2000/svg"
   viewBox="0 0 56.25 41.25"
   height="41.25"
   width="56.25"
   xml:space="preserve"
   version="1.1"
   id="svg2"><metadata
     id="metadata8"><rdf:RDF><cc:Work
         rdf:about=""><dc:format>image/svg+xml</dc:format><dc:type
           rdf:resource="http://purl.org/dc/dcmitype/StillImage" /></cc:Work></rdf:RDF></metadata><defs
     id="defs6" /><g
     transform="matrix(1.25,0,0,-1.25,0,41.25)"
     id="g10"><g
       transform="scale(0.1,0.1)"
       id="g12"><path
         id="path14"
         style="fill:#1286be;fill-opacity:1;fill-rule:nonzero;stroke:none"
         d="m 5.66016,14.4883 381.48,0 0,250.621 -381.48,0 0,-250.621 z" /><path
         id="path16"
         style="fill:none;stroke:#ffffff;stroke-width:4;stroke-linecap:butt;stroke-linejoin:miter;stroke-miterlimit:4;stroke-dasharray:none;stroke-opacity:1"
         d="m 5.66016,14.4844 381.48,0 0,250.621 -381.48,0 0,-250.621 z" /><path
         id="path18"
         style="fill:#1286be;fill-opacity:1;fill-rule:nonzero;stroke:none"
         d="m 442.5,64.3203 -55.352,-49.8398 0,250.6285 55.352,53.243 0,-254.0317" /><path
         id="path20"
         style="fill:none;stroke:#ffffff;stroke-width:4;stroke-linecap:butt;stroke-linejoin:miter;stroke-miterlimit:4;stroke-dasharray:none;stroke-opacity:1"
         d="m 442.5,64.3242 -55.352,-49.8398 0,250.6206 55.352,53.239 0,-254.0198 z" /><path
         id="path22"
         style="fill:#1286be;fill-opacity:1;fill-rule:nonzero;stroke:none"
         d="m 71.4805,318.352 371.0195,0 -55.352,-53.243 -381.48784,0 65.82034,53.243" /><path
         id="path24"
         style="fill:none;stroke:#ffffff;stroke-width:4;stroke-linecap:butt;stroke-linejoin:miter;stroke-miterlimit:4;stroke-dasharray:none;stroke-opacity:1"
         d="m 71.4805,318.344 371.0195,0 -55.352,-53.239 -381.48784,0 65.82034,53.239 z" /><path
         id="path26"
         style="fill:#ffffff;fill-opacity:1;fill-rule:nonzero;stroke:none"
         d="M 83.0898,128.23 27.5,128.191 l 0,10.161 55.5898,0.039 0,15.82 36.9882,-20.941 -36.9882,-20.942 0,15.902" /><path
         id="path28"
         style="fill:#ffffff;fill-opacity:1;fill-rule:nonzero;stroke:none"
         d="m 308.09,199.25 -38.871,-0.039 0,10.148 38.871,0.039 0.031,15.864 37,-20.942 -37,-20.929 -0.031,15.859" /><path
         id="path30"
         style="fill:#ffffff;fill-opacity:1;fill-rule:nonzero;stroke:none"
         d="m 338.09,135.93 -68.871,-0.039 0,10.148 68.871,0.039 0.031,15.82 37,-20.937 -37,-20.93 -0.031,15.899" /><path
         id="path32"
         style="fill:#ffffff;fill-opacity:1;fill-rule:nonzero;stroke:none"
         d="m 308.09,72.5703 -38.871,-0.039 0,10.1484 38.871,0.0391 0.031,15.8593 37,-20.9375 -37,-20.9297 -0.031,15.8594" /><path
         id="path34"
         style="fill:#000000;fill-opacity:1;fill-rule:nonzero;stroke:none"
         d="m 142.5,44.2891 96.6406,0 0,188.32 -96.6406,0 0,-188.32 z" /><path
         id="path36"
         style="fill:none;stroke:#ffffff;stroke-width:8;stroke-linecap:butt;stroke-linejoin:miter;stroke-miterlimit:4;stroke-dasharray:none;stroke-opacity:1"
         d="m 142.5,44.2852 96.6406,0 0,188.32 -96.6406,0 0,-188.32 z" /><path
         id="path38"
         style="fill:#000000;fill-opacity:1;fill-rule:nonzero;stroke:none"
         d="m 239.691,245.809 0,-213.0473 -98.281,0.0391 0,213.0512 98.281,-0.043" /><path
         id="path40"
         style="fill:none;stroke:#ffffff;stroke-width:2.94499993;stroke-linecap:butt;stroke-linejoin:miter;stroke-miterlimit:4;stroke-dasharray:none;stroke-opacity:1"
         d="m 239.691,245.805 0,-213.0394 -98.281,0.0391 0,213.0393 98.281,-0.039 z" /><path
         id="path42"
         style="fill:#ffffff;fill-opacity:1;fill-rule:nonzero;stroke:none"
         d="m 210.23,83.2695 0,-28.3203 -42.652,0.0391 0,28.3203 42.652,-0.0391" /><path
         id="path44"
         style="fill:none;stroke:#ffffff;stroke-width:1.11099994;stroke-linecap:butt;stroke-linejoin:miter;stroke-miterlimit:4;stroke-dasharray:none;stroke-opacity:1"
         d="m 210.23,83.2656 0,-28.3203 -42.652,0.0391 0,28.3203 42.652,-0.0391 z" /><path
         id="path46"
         style="fill:#ffffff;fill-opacity:1;fill-rule:nonzero;stroke:none"
         d="m 232.148,54.2109 0,-8.4804 -7.187,-0.0391 0,8.5195 7.187,0" /><path
         id="path48"
         style="fill:none;stroke:#ffffff;stroke-width:0.333;stroke-linecap:butt;stroke-linejoin:miter;stroke-miterlimit:4;stroke-dasharray:none;stroke-opacity:1"
         d="m 232.148,54.2031 0,-8.4687 -7.187,-0.0391 0,8.5078 7.187,0 z" /><path
         id="path50"
         style="fill:#ffffff;fill-opacity:1;fill-rule:nonzero;stroke:none"
         d="m 224.961,63.0313 7.1875,0 0,8.51953 -7.1875,0 0,-8.51953 z" /><path
         id="path52"
         style="fill:none;stroke:#ffffff;stroke-width:0.333;stroke-linecap:butt;stroke-linejoin:miter;stroke-miterlimit:4;stroke-dasharray:none;stroke-opacity:1"
         d="m 224.961,63.0352 7.1875,0 0,8.51953 -7.1875,0 0,-8.51953 z" /><path
         id="path54"
         style="fill:#ffffff;fill-opacity:1;fill-rule:nonzero;stroke:none"
         d="m 224.961,80.3711 7.1875,0 0,8.51953 -7.1875,0 0,-8.51953 z" /><path
         id="path56"
         style="fill:none;stroke:#ffffff;stroke-width:0.333;stroke-linecap:butt;stroke-linejoin:miter;stroke-miterlimit:4;stroke-dasharray:none;stroke-opacity:1"
         d="m 224.961,80.375 7.1875,0 0,8.51953 -7.1875,0 0,-8.51953 z" /><path
         id="path58"
         style="fill:#ffffff;fill-opacity:1;fill-rule:nonzero;stroke:none"
         d="m 224.961,97.7188 7.1875,0 0,8.48047 -7.1875,0 0,-8.48047 z" /><path
         id="path60"
         style="fill:none;stroke:#ffffff;stroke-width:0.333;stroke-linecap:butt;stroke-linejoin:miter;stroke-miterlimit:4;stroke-dasharray:none;stroke-opacity:1"
         d="m 224.961,97.7148 7.1875,0 0,8.48047 -7.1875,0 0,-8.48047 z" /><path
         id="path62"
         style="fill:#ffffff;fill-opacity:1;fill-rule:nonzero;stroke:none"
         d="m 224.961,115.059 7.1875,0 0,8.48047 -7.1875,0 0,-8.48047 z" /><path
         id="path64"
         style="fill:none;stroke:#ffffff;stroke-width:0.333;stroke-linecap:butt;stroke-linejoin:miter;stroke-miterlimit:4;stroke-dasharray:none;stroke-opacity:1"
         d="m 224.961,115.066 7.1875,0 0,8.48047 -7.1875,0 0,-8.48047 z" /><path
         id="path66"
         style="fill:#ffffff;fill-opacity:1;fill-rule:nonzero;stroke:none"
         d="m 232.148,140.891 0,-8.481 -7.187,-0.039 0,8.52 7.187,0" /><path
         id="path68"
         style="fill:none;stroke:#ffffff;stroke-width:0.333;stroke-linecap:butt;stroke-linejoin:miter;stroke-miterlimit:4;stroke-dasharray:none;stroke-opacity:1"
         d="m 232.148,140.887 0,-8.473 -7.187,-0.039 0,8.512 7.187,0 z" /><path
         id="path70"
         style="fill:#ffffff;fill-opacity:1;fill-rule:nonzero;stroke:none"
         d="m 224.961,149.711 7.1875,0 0,8.51953 -7.1875,0 0,-8.51953 z" /><path
         id="path72"
         style="fill:none;stroke:#ffffff;stroke-width:0.333;stroke-linecap:butt;stroke-linejoin:miter;stroke-miterlimit:4;stroke-dasharray:none;stroke-opacity:1"
         d="m 224.961,149.715 7.1875,0 0,8.51953 -7.1875,0 0,-8.51953 z" /><path
         id="path74"
         style="fill:#ffffff;fill-opacity:1;fill-rule:nonzero;stroke:none"
         d="m 224.961,167.051 7.1875,0 0,8.48047 -7.1875,0 0,-8.48047 z" /><path
         id="path76"
         style="fill:none;stroke:#ffffff;stroke-width:0.333;stroke-linecap:butt;stroke-linejoin:miter;stroke-miterlimit:4;stroke-dasharray:none;stroke-opacity:1"
         d="m 224.961,167.055 7.1875,0 0,8.48047 -7.1875,0 0,-8.48047 z" /><path
         id="path78"
         style="fill:#ffffff;fill-opacity:1;fill-rule:nonzero;stroke:none"
         d="m 232.148,192.879 0,-8.481 -7.187,-0.039 0,8.52 7.187,0" /><path
         id="path80"
         style="fill:none;stroke:#ffffff;stroke-width:0.333;stroke-linecap:butt;stroke-linejoin:miter;stroke-miterlimit:4;stroke-dasharray:none;stroke-opacity:1"
         d="m 232.148,192.875 0,-8.469 -7.187,-0.043 0,8.512 7.187,0 z" /><path
         id="path82"
         style="fill:#ffffff;fill-opacity:1;fill-rule:nonzero;stroke:none"
         d="m 232.148,210.219 0,-8.469 -7.187,-0.039 0,8.508 7.187,0" /><path
         id="path84"
         style="fill:none;stroke:#ffffff;stroke-width:0.333;stroke-linecap:butt;stroke-linejoin:miter;stroke-miterlimit:4;stroke-dasharray:none;stroke-opacity:1"
         d="m 232.148,210.227 0,-8.481 -7.187,-0.043 0,8.524 7.187,0 z" /><path
         id="path86"
         style="fill:#ffffff;fill-opacity:1;fill-rule:nonzero;stroke:none"
         d="m 232.148,227.57 0,-8.48 -7.187,-0.039 0,8.519 7.187,0" /><path
         id="path88"
         style="fill:none;stroke:#ffffff;stroke-width:0.333;stroke-linecap:butt;stroke-linejoin:miter;stroke-miterlimit:4;stroke-dasharray:none;stroke-opacity:1"
         d="m 232.148,227.566 0,-8.48 -7.187,-0.031 0,8.511 7.187,0 z" /><path
         id="path90"
         style="fill:#ffffff;fill-opacity:1;fill-rule:nonzero;stroke:none"
         d="m 148.441,46.1602 7.1875,0 0,8.51953 -7.1875,0 0,-8.51953 z" /><path
         id="path92"
         style="fill:none;stroke:#ffffff;stroke-width:0.333;stroke-linecap:butt;stroke-linejoin:miter;stroke-miterlimit:4;stroke-dasharray:none;stroke-opacity:1"
         d="m 148.441,46.1563 7.1875,0 0,8.51953 -7.1875,0 0,-8.51953 z" /><path
         id="path94"
         style="fill:#ffffff;fill-opacity:1;fill-rule:nonzero;stroke:none"
         d="m 148.441,63.5 7.1875,0 0,8.48047 -7.1875,0 0,-8.48047 z" /><path
         id="path96"
         style="fill:none;stroke:#ffffff;stroke-width:0.333;stroke-linecap:butt;stroke-linejoin:miter;stroke-miterlimit:4;stroke-dasharray:none;stroke-opacity:1"
         d="m 148.441,63.5039 7.1875,0 0,8.48047 -7.1875,0 0,-8.48047 z" /><path
         id="path98"
         style="fill:#ffffff;fill-opacity:1;fill-rule:nonzero;stroke:none"
         d="m 155.621,89.3203 0,-8.4687 -7.18,-0.043 0,8.5117 7.18,0" /><path
         id="path100"
         style="fill:none;stroke:#ffffff;stroke-width:0.333;stroke-linecap:butt;stroke-linejoin:miter;stroke-miterlimit:4;stroke-dasharray:none;stroke-opacity:1"
         d="m 155.621,89.3242 0,-8.4804 -7.18,-0.0391 0,8.5195 7.18,0 z" /><path
         id="path102"
         style="fill:#ffffff;fill-opacity:1;fill-rule:nonzero;stroke:none"
         d="m 155.621,106.672 0,-8.4806 -7.18,-0.043 0,8.5236 7.18,0" /><path
         id="path104"
         style="fill:none;stroke:#ffffff;stroke-width:0.333;stroke-linecap:butt;stroke-linejoin:miter;stroke-miterlimit:4;stroke-dasharray:none;stroke-opacity:1"
         d="m 155.621,106.664 0,-8.4687 -7.18,-0.039 0,8.5077 7.18,0 z" /><path
         id="path106"
         style="fill:#ffffff;fill-opacity:1;fill-rule:nonzero;stroke:none"
         d="m 155.621,124.012 0,-8.481 -7.18,-0.031 0,8.512 7.18,0" /><path
         id="path108"
         style="fill:none;stroke:#ffffff;stroke-width:0.333;stroke-linecap:butt;stroke-linejoin:miter;stroke-miterlimit:4;stroke-dasharray:none;stroke-opacity:1"
         d="m 155.621,124.016 0,-8.481 -7.18,-0.039 0,8.52 7.18,0 z" /><path
         id="path110"
         style="fill:#ffffff;fill-opacity:1;fill-rule:nonzero;stroke:none"
         d="m 148.441,132.84 7.1875,0 0,8.51953 -7.1875,0 0,-8.51953 z" /><path
         id="path112"
         style="fill:none;stroke:#ffffff;stroke-width:0.333;stroke-linecap:butt;stroke-linejoin:miter;stroke-miterlimit:4;stroke-dasharray:none;stroke-opacity:1"
         d="m 148.441,132.836 7.1875,0 0,8.51953 -7.1875,0 0,-8.51953 z" /><path
         id="path114"
         style="fill:#ffffff;fill-opacity:1;fill-rule:nonzero;stroke:none"
         d="m 148.441,150.18 7.1875,0 0,8.48047 -7.1875,0 0,-8.48047 z" /><path
         id="path116"
         style="fill:none;stroke:#ffffff;stroke-width:0.333;stroke-linecap:butt;stroke-linejoin:miter;stroke-miterlimit:4;stroke-dasharray:none;stroke-opacity:1"
         d="m 148.441,150.176 7.1875,0 0,8.48047 -7.1875,0 0,-8.48047 z" /><path
         id="path118"
         style="fill:#ffffff;fill-opacity:1;fill-rule:nonzero;stroke:none"
         d="m 155.621,176 0,-8.469 -7.18,-0.043 0,8.512 7.18,0" /><path
         id="path120"
         style="fill:none;stroke:#ffffff;stroke-width:0.333;stroke-linecap:butt;stroke-linejoin:miter;stroke-miterlimit:4;stroke-dasharray:none;stroke-opacity:1"
         d="m 155.621,176.004 0,-8.481 -7.18,-0.039 0,8.52 7.18,0 z" /><path
         id="path122"
         style="fill:#ffffff;fill-opacity:1;fill-rule:nonzero;stroke:none"
         d="m 155.621,193.352 0,-8.481 -7.18,-0.043 0,8.524 7.18,0" /><path
         id="path124"
         style="fill:none;stroke:#ffffff;stroke-width:0.333;stroke-linecap:butt;stroke-linejoin:miter;stroke-miterlimit:4;stroke-dasharray:none;stroke-opacity:1"
         d="m 155.621,193.344 0,-8.469 -7.18,-0.039 0,8.508 7.18,0 z" /><path
         id="path126"
         style="fill:#ffffff;fill-opacity:1;fill-rule:nonzero;stroke:none"
         d="m 148.441,202.172 7.1875,0 0,8.51953 -7.1875,0 0,-8.51953 z" /><path
         id="path128"
         style="fill:none;stroke:#ffffff;stroke-width:0.333;stroke-linecap:butt;stroke-linejoin:miter;stroke-miterlimit:4;stroke-dasharray:none;stroke-opacity:1"
         d="m 148.441,202.176 7.1875,0 0,8.51953 -7.1875,0 0,-8.51953 z" /><path
         id="path130"
         style="fill:#ffffff;fill-opacity:1;fill-rule:nonzero;stroke:none"
         d="m 148.441,219.512 7.1875,0 0,8.51953 -7.1875,0 0,-8.51953 z" /><path
         id="path132"
         style="fill:none;stroke:#ffffff;stroke-width:0.333;stroke-linecap:butt;stroke-linejoin:miter;stroke-miterlimit:4;stroke-dasharray:none;stroke-opacity:1"
         d="m 148.441,219.516 7.1875,0 0,8.51953 -7.1875,0 0,-8.51953 z" /><path
         id="path134"
         style="fill:#ffffff;fill-opacity:1;fill-rule:nonzero;stroke:none"
         d="m 167.578,101.199 42.6602,0 0,28.3203 -42.6602,0 0,-28.3203 z" /><path
         id="path136"
         style="fill:none;stroke:#ffffff;stroke-width:1.11099994;stroke-linecap:butt;stroke-linejoin:miter;stroke-miterlimit:4;stroke-dasharray:none;stroke-opacity:1"
         d="m 167.578,101.195 42.6602,0 0,28.3203 -42.6602,0 0,-28.3203 z" /><path
         id="path138"
         style="fill:#ffffff;fill-opacity:1;fill-rule:nonzero;stroke:none"
         d="m 210.23,175.73 0,-28.32 -42.652,0.039 0,28.321 42.652,-0.04" /><path
         id="path140"
         style="fill:none;stroke:#ffffff;stroke-width:1.11099994;stroke-linecap:butt;stroke-linejoin:miter;stroke-miterlimit:4;stroke-dasharray:none;stroke-opacity:1"
         d="m 210.23,175.734 0,-28.32 -42.652,0.031 0,28.321 42.652,-0.032 z" /><path
         id="path142"
         style="fill:#ffffff;fill-opacity:1;fill-rule:nonzero;stroke:none"
         d="m 210.23,221.941 0,-28.281 -42.652,0 0,28.32 42.652,-0.039" /><path
         id="path144"
         style="fill:none;stroke:#ffffff;stroke-width:1.11099994;stroke-linecap:butt;stroke-linejoin:miter;stroke-miterlimit:4;stroke-dasharray:none;stroke-opacity:1"
         d="m 210.23,221.945 0,-28.289 -42.652,0 0,28.328 42.652,-0.039 z" /></g></g></svg>