<?xml version="1.0" encoding="UTF-8" standalone="no"?>
<svg
   xmlns:dc="http://purl.org/dc/elements/1.1/"
   xmlns:cc="http://creativecommons.org/ns#"
   xmlns:rdf="http://www.w3.org/1999/02/22-rdf-syntax-ns#"
   xmlns:svg="http://www.w3.org/2000/svg"
   xmlns="http://www.w3.org/2000/svg"
   viewBox="0 0 51.25 42.5"
   height="42.5"
   width="51.25"
   xml:space="preserve"
   version="1.1"
   id="svg2"><metadata
     id="metadata8"><rdf:RDF><cc:Work
         rdf:about=""><dc:format>image/svg+xml</dc:format><dc:type
           rdf:resource="http://purl.org/dc/dcmitype/StillImage" /></cc:Work></rdf:RDF></metadata><defs
     id="defs6" /><g
     transform="matrix(1.25,0,0,-1.25,0,42.5)"
     id="g10"><g
       transform="scale(0.1,0.1)"
       id="g12"><path
         id="path14"
         style="fill:#036998;fill-opacity:1;fill-rule:nonzero;stroke:none"
         d="m 50.4688,78.1992 228.711,0 0,42.7695 -228.711,0 0,-42.7695 z" /><path
         id="path16"
         style="fill:none;stroke:#ffffff;stroke-width:3.99993992;stroke-linecap:butt;stroke-linejoin:miter;stroke-miterlimit:4;stroke-dasharray:none;stroke-opacity:1"
         d="m 50.4688,78.1953 228.711,0 0,42.7734 -228.711,0 0,-42.7734 z" /><path
         id="path18"
         style="fill:#036998;fill-opacity:1;fill-rule:nonzero;stroke:none"
         d="m 317.891,159.988 0,-43.238 -38.711,-38.9805 0,43.1995 -228.8714,0" /><path
         id="path20"
         style="fill:none;stroke:#ffffff;stroke-width:3.99993992;stroke-linecap:butt;stroke-linejoin:miter;stroke-miterlimit:4;stroke-dasharray:none;stroke-opacity:1"
         d="m 317.891,159.988 0,-43.242 -38.711,-38.9804 0,43.2034 -228.8714,0" /><path
         id="path22"
         style="fill:none;stroke:#ffffff;stroke-width:3.99993992;stroke-linecap:butt;stroke-linejoin:miter;stroke-miterlimit:4;stroke-dasharray:none;stroke-opacity:1"
         d="m 52.1094,159.988 265.7816,0" /><path
         id="path24"
         style="fill:#036998;fill-opacity:1;fill-rule:nonzero;stroke:none"
         d="m 279.18,120.969 38.711,39.019" /><path
         id="path26"
         style="fill:none;stroke:#ffffff;stroke-width:3.99993992;stroke-linecap:butt;stroke-linejoin:miter;stroke-miterlimit:4;stroke-dasharray:none;stroke-opacity:1"
         d="m 279.18,120.969 38.711,39.019" /><path
         id="path28"
         style="fill:#036998;fill-opacity:1;fill-rule:nonzero;stroke:none"
         d="m 267.852,46.9102 0,25.3515 -263.01216,0 29.92966,29.9573 263.0395,0 0,-25.3479 -29.957,-29.9609" /><path
         id="path30"
         style="fill:none;stroke:#ffffff;stroke-width:3.99993992;stroke-linecap:butt;stroke-linejoin:miter;stroke-miterlimit:4;stroke-dasharray:none;stroke-opacity:1"
         d="m 267.852,46.9063 0,25.3515 -263.01216,0 29.92966,29.9612 263.0395,0 0,-25.3518 -29.957,-29.9609 z" /><path
         id="path32"
         style="fill:#036998;fill-opacity:1;fill-rule:nonzero;stroke:none"
         d="m 4.83984,46.9102 263.012,0 0,25.3516 -263.012,0 0,-25.3516 z" /><path
         id="path34"
         style="fill:none;stroke:#ffffff;stroke-width:3.99993992;stroke-linecap:butt;stroke-linejoin:miter;stroke-miterlimit:4;stroke-dasharray:none;stroke-opacity:1"
         d="m 4.83984,46.9063 263.012,0 0,25.3516 -263.012,0 0,-25.3516 z" /><path
         id="path36"
         style="fill:#036998;fill-opacity:1;fill-rule:nonzero;stroke:none"
         d="m 267.852,72.2617 29.957,29.9573" /><path
         id="path38"
         style="fill:none;stroke:#ffffff;stroke-width:3.99993992;stroke-linecap:butt;stroke-linejoin:miter;stroke-miterlimit:4;stroke-dasharray:none;stroke-opacity:1"
         d="m 267.852,72.2578 29.957,29.9612" /><path
         id="path40"
         style="fill:#036998;fill-opacity:1;fill-rule:nonzero;stroke:none"
         d="m 50.3086,121.828 228.551,0 0,172.344 -228.551,0 0,-172.344 z" /><path
         id="path42"
         style="fill:none;stroke:#ffffff;stroke-width:3.99993992;stroke-linecap:butt;stroke-linejoin:miter;stroke-miterlimit:4;stroke-dasharray:none;stroke-opacity:1"
         d="m 50.3086,121.828 228.551,0 0,172.34 -228.551,0 0,-172.34 z" /><path
         id="path44"
         style="fill:#036998;fill-opacity:1;fill-rule:nonzero;stroke:none"
         d="m 278.871,121.828 39.02,39.024 0,172.339 -228.5902,0 -38.9922,-39.019 228.5624,0 0,-172.344" /><path
         id="path46"
         style="fill:none;stroke:#ffffff;stroke-width:3.99993992;stroke-linecap:butt;stroke-linejoin:miter;stroke-miterlimit:4;stroke-dasharray:none;stroke-opacity:1"
         d="m 278.871,121.828 39.02,39.02 0,172.347 -228.5902,0 -38.9922,-39.027 228.5624,0 0,-172.34 z" /><path
         id="path48"
         style="fill:#036998;fill-opacity:1;fill-rule:nonzero;stroke:none"
         d="m 70.2305,141.789 188.668,0 0,132.422 -188.668,0 0,-132.422 z" /><path
         id="path50"
         style="fill:none;stroke:#ffffff;stroke-width:3.99993992;stroke-linecap:butt;stroke-linejoin:miter;stroke-miterlimit:4;stroke-dasharray:none;stroke-opacity:1"
         d="m 70.2305,141.785 188.668,0 0,132.422 -188.668,0 0,-132.422 z" /><path
         id="path52"
         style="fill:#036998;fill-opacity:1;fill-rule:nonzero;stroke:none"
         d="m 278.871,294.172 39.02,39.019" /><path
         id="path54"
         style="fill:none;stroke:#ffffff;stroke-width:3.99993992;stroke-linecap:butt;stroke-linejoin:miter;stroke-miterlimit:4;stroke-dasharray:none;stroke-opacity:1"
         d="m 278.871,294.168 39.02,39.027" /><path
         id="path56"
         style="fill:#036998;fill-opacity:1;fill-rule:nonzero;stroke:none"
         d="M 402.969,39.7617 363.52,94.5195 326.09,67.5313 365.59,12.8008 402.969,39.7617" /><path
         id="path58"
         style="fill:none;stroke:#ffffff;stroke-width:3.99993992;stroke-linecap:butt;stroke-linejoin:miter;stroke-miterlimit:4;stroke-dasharray:none;stroke-opacity:1"
         d="m 402.969,39.7578 -39.449,54.7695 -37.43,-27 39.5,-54.7187 37.379,26.9492 z" /><path
         id="path60"
         style="fill:none;stroke:#036998;stroke-width:3.99993992;stroke-linecap:butt;stroke-linejoin:miter;stroke-miterlimit:4;stroke-dasharray:none;stroke-opacity:1"
         d="m 345.512,81.707 c -6.723,11.25 -18.871,4.3399 -16.293,23.051 2.621,19.258 -10.309,31.988 -33.75,21.41" /></g></g></svg>