<?xml version="1.0" encoding="UTF-8" standalone="no"?>
<svg
   xmlns:dc="http://purl.org/dc/elements/1.1/"
   xmlns:cc="http://creativecommons.org/ns#"
   xmlns:rdf="http://www.w3.org/1999/02/22-rdf-syntax-ns#"
   xmlns:svg="http://www.w3.org/2000/svg"
   xmlns="http://www.w3.org/2000/svg"
   viewBox="0 0 50 58.75"
   height="58.75"
   width="50"
   xml:space="preserve"
   version="1.1"
   id="svg2"><metadata
     id="metadata8"><rdf:RDF><cc:Work
         rdf:about=""><dc:format>image/svg+xml</dc:format><dc:type
           rdf:resource="http://purl.org/dc/dcmitype/StillImage" /></cc:Work></rdf:RDF></metadata><defs
     id="defs6" /><g
     transform="matrix(1.25,0,0,-1.25,0,58.75)"
     id="g10"><g
       transform="scale(0.1,0.1)"
       id="g12"><path
         id="path14"
         style="fill:#036998;fill-opacity:1;fill-rule:nonzero;stroke:none"
         d="m 198.59,131.641 c 108.09,0 195.711,25.078 195.711,56.019 0,30.93 -87.621,56.051 -195.711,56.051 -108.0783,0 -195.66031,-25.121 -195.66031,-56.051 0,-30.941 87.58201,-56.019 195.66031,-56.019" /><path
         id="path16"
         style="fill:none;stroke:#ffffff;stroke-width:3.99993992;stroke-linecap:butt;stroke-linejoin:miter;stroke-miterlimit:4;stroke-dasharray:none;stroke-opacity:1"
         d="m 198.59,131.641 c 108.09,0 195.711,25.078 195.711,56.019 0,30.93 -87.621,56.051 -195.711,56.051 -108.0783,0 -195.66031,-25.121 -195.66031,-56.051 0,-30.941 87.58201,-56.019 195.66031,-56.019 z" /><path
         id="path18"
         style="fill:#036998;fill-opacity:1;fill-rule:nonzero;stroke:none"
         d="m 195.738,390.391 c 75.043,0 135.903,17.418 135.903,38.91 0,21.48 -60.86,38.898 -135.903,38.898 -75.078,0 -135.8982,-17.418 -135.8982,-38.898 0,-21.492 60.8202,-38.91 135.8982,-38.91" /><path
         id="path20"
         style="fill:none;stroke:#ffffff;stroke-width:3.99993992;stroke-linecap:butt;stroke-linejoin:miter;stroke-miterlimit:4;stroke-dasharray:none;stroke-opacity:1"
         d="m 195.738,390.391 c 75.043,0 135.903,17.418 135.903,38.91 0,21.48 -60.86,38.898 -135.903,38.898 -75.078,0 -135.8982,-17.418 -135.8982,-38.898 0,-21.492 60.8202,-38.91 135.8982,-38.91 z" /><path
         id="path22"
         style="fill:#036998;fill-opacity:1;fill-rule:nonzero;stroke:none"
         d="M 196.09,218.59 195.738,175 C 120.66,175 59.8398,192.422 59.8398,213.91 l 0,215.391 c 0,-21.492 60.8202,-38.91 135.8982,-38.91 75.043,0 135.903,17.418 135.903,38.91 l 0,-215.391 c 0,-13.75 -27.852,-26.488 -65.621,-33.398" /><path
         id="path24"
         style="fill:none;stroke:#ffffff;stroke-width:3.99993992;stroke-linecap:butt;stroke-linejoin:miter;stroke-miterlimit:4;stroke-dasharray:none;stroke-opacity:1"
         d="M 196.09,218.59 195.738,175 C 120.66,175 59.8398,192.422 59.8398,213.91 l 0,215.391 c 0,-21.492 60.8202,-38.91 135.8982,-38.91 75.043,0 135.903,17.418 135.903,38.91 l 0,-215.391 c 0,-13.75 -27.852,-26.488 -65.621,-33.398" /><path
         id="path26"
         style="fill:none;stroke:#ffffff;stroke-width:3.99993992;stroke-linecap:butt;stroke-linejoin:miter;stroke-miterlimit:4;stroke-dasharray:none;stroke-opacity:1"
         d="m 363.59,58.75 0,98.32 -52.141,36.168 0,215.391" /><path
         id="path28"
         style="fill:none;stroke:#ffffff;stroke-width:3.99993992;stroke-linecap:butt;stroke-linejoin:miter;stroke-miterlimit:4;stroke-dasharray:none;stroke-opacity:1"
         d="m 91.8789,40.4688 0,98.3202 30.8201,42.34 0,215.391" /><path
         id="path30"
         style="fill:none;stroke:#ffffff;stroke-width:3.99993992;stroke-linecap:butt;stroke-linejoin:miter;stroke-miterlimit:4;stroke-dasharray:none;stroke-opacity:1"
         d="m 30.4297,59.3789 0,98.2811 49.6094,36.789 0,215.352" /><path
         id="path32"
         style="fill:none;stroke:#ffffff;stroke-width:3.99993992;stroke-linecap:butt;stroke-linejoin:miter;stroke-miterlimit:4;stroke-dasharray:none;stroke-opacity:1"
         d="m 195.738,390.391 0,-215.391" /><path
         id="path34"
         style="fill:none;stroke:#ffffff;stroke-width:3.99993992;stroke-linecap:butt;stroke-linejoin:miter;stroke-miterlimit:4;stroke-dasharray:none;stroke-opacity:1"
         d="m 265.078,180.512 0,215.508" /><path
         id="path36"
         style="fill:#036998;fill-opacity:1;fill-rule:nonzero;stroke:none"
         d="m 394.301,88.3984 c -2.5,-19.7265 -38.68,-37.9687 -92.539,-47.9296 L 301.91,140 c 53.711,10 89.891,27.301 92.391,47.031 l 0,-98.6326" /><path
         id="path38"
         style="fill:none;stroke:#ffffff;stroke-width:3.99993992;stroke-linecap:butt;stroke-linejoin:miter;stroke-miterlimit:4;stroke-dasharray:none;stroke-opacity:1"
         d="m 394.301,88.3984 c -2.5,-19.7265 -38.68,-37.9687 -92.539,-47.9296 L 301.91,140 c 53.711,10 89.891,27.301 92.391,47.031 l 0,-98.6326 z" /><path
         id="path40"
         style="fill:#036998;fill-opacity:1;fill-rule:nonzero;stroke:none"
         d="M 1.67969,89.8789 C 0.429688,56.4492 93.1602,32.0703 201.25,32.0703 l 0,99.8087 C 91.2891,131.289 0.429688,155.66 1.67969,189.102 l 0,-99.2231" /><path
         id="path42"
         style="fill:none;stroke:#ffffff;stroke-width:3.99993992;stroke-linecap:butt;stroke-linejoin:miter;stroke-miterlimit:4;stroke-dasharray:none;stroke-opacity:1"
         d="M 1.67969,89.8789 C 0.429688,56.4492 93.1602,32.0703 201.25,32.0703 l 0,99.8087 C 91.2891,131.289 0.429688,155.66 1.67969,189.102 l 0,-99.2231 z" /><path
         id="path44"
         style="fill:#036998;fill-opacity:1;fill-rule:nonzero;stroke:none"
         d="m 196.09,391.25 -0.621,25.629 c 8.48,0 16.953,0.699 23.48,1.359 l 46.129,-22.218 0,-215.508 36.871,-39.891 0,-100.6991 -84.097,38.0898 c -2.852,0 -16.09,-1.8008 -17.032,-1.8008 l 0,55.5081 -4.73,43.441 0,216.09" /><path
         id="path46"
         style="fill:none;stroke:#ffffff;stroke-width:3.99993992;stroke-linecap:butt;stroke-linejoin:miter;stroke-miterlimit:4;stroke-dasharray:none;stroke-opacity:1"
         d="m 196.09,391.25 -0.621,25.629 c 8.48,0 16.953,0.699 23.48,1.359 l 46.129,-22.218 0,-215.508 36.871,-39.891 0,-100.6991 -84.097,38.0898 c -2.852,0 -16.09,-1.8008 -17.032,-1.8008 l 0,55.5081 -4.73,43.441 0,216.09 z" /><path
         id="path48"
         style="fill:none;stroke:#ffffff;stroke-width:3.99993992;stroke-linecap:butt;stroke-linejoin:miter;stroke-miterlimit:4;stroke-dasharray:none;stroke-opacity:1"
         d="m 217.852,418.051 0,-340.0393" /><path
         id="path50"
         style="fill:#000000;fill-opacity:1;fill-rule:nonzero;stroke:none"
         d="m 3.58984,190.898 54.99996,20" /><path
         id="path52"
         style="fill:none;stroke:#ffffff;stroke-width:3.99993992;stroke-linecap:butt;stroke-linejoin:miter;stroke-miterlimit:4;stroke-dasharray:none;stroke-opacity:1"
         d="m 3.58984,190.898 54.99996,20" /><path
         id="path54"
         style="fill:#000000;fill-opacity:1;fill-rule:nonzero;stroke:none"
         d="m 392.34,193.398 -60,17.5" /><path
         id="path56"
         style="fill:none;stroke:#ffffff;stroke-width:3.99993992;stroke-linecap:butt;stroke-linejoin:bevel;stroke-miterlimit:4;stroke-dasharray:none;stroke-opacity:1"
         d="m 392.34,193.398 -60,17.5" /><path
         id="path58"
         style="fill:#036998;fill-opacity:1;fill-rule:nonzero;stroke:none"
         d="m 229.219,383.32 22.5,3.051 46.871,-20.672 c -17.5,-4.648 -58.75,-9.918 -66.871,-8.469 l -2.5,26.09" /><path
         id="path60"
         style="fill:none;stroke:#ffffff;stroke-width:3.99993992;stroke-linecap:butt;stroke-linejoin:miter;stroke-miterlimit:4;stroke-dasharray:none;stroke-opacity:1"
         d="m 229.219,383.32 22.5,3.051 46.871,-20.672 c -17.5,-4.648 -58.75,-9.918 -66.871,-8.469 l -2.5,26.09 z" /><path
         id="path62"
         style="fill:#036998;fill-opacity:1;fill-rule:nonzero;stroke:none"
         d="m 228.59,383.281 3.129,-26.051 0,-215 5,-43.48 0,-99.371094 -8.129,42.070294 0,341.8318" /><path
         id="path64"
         style="fill:none;stroke:#ffffff;stroke-width:3.99993992;stroke-linecap:butt;stroke-linejoin:miter;stroke-miterlimit:4;stroke-dasharray:none;stroke-opacity:1"
         d="m 228.59,383.281 3.129,-26.051 0,-215 5,-43.48 0,-99.371094 -8.129,42.070294 0,341.8318 z" /><path
         id="path66"
         style="fill:#036998;fill-opacity:1;fill-rule:nonzero;stroke:none"
         d="m 231.719,357.23 c 12.5,-0.628 56.871,4.84 66.871,9.098 l 0,-216.207 c -18.121,-3.48 -51.871,-8.359 -66.871,-7.269 l 0,214.378" /><path
         id="path68"
         style="fill:none;stroke:#ffffff;stroke-width:3.99993992;stroke-linecap:butt;stroke-linejoin:miter;stroke-miterlimit:4;stroke-dasharray:none;stroke-opacity:1"
         d="m 231.719,357.23 c 12.5,-0.628 56.871,4.84 66.871,9.098 l 0,-216.207 c -18.121,-3.48 -51.871,-8.359 -66.871,-7.269 l 0,214.378 z" /><path
         id="path70"
         style="fill:#036998;fill-opacity:1;fill-rule:nonzero;stroke:none"
         d="m 298.59,150.121 37.5,-38.051 c -20,-5.429 -86.871,-12.6911 -99.371,-12.6911 l -5,43.4731 c 7.5,-0.864 63.75,5.82 66.871,7.269" /><path
         id="path72"
         style="fill:none;stroke:#ffffff;stroke-width:3.99993992;stroke-linecap:butt;stroke-linejoin:miter;stroke-miterlimit:4;stroke-dasharray:none;stroke-opacity:1"
         d="m 298.59,150.121 37.5,-38.051 c -20,-5.429 -86.871,-12.6911 -99.371,-12.6911 l -5,43.4731 c 7.5,-0.864 63.75,5.82 66.871,7.269 z" /><path
         id="path74"
         style="fill:#036998;fill-opacity:1;fill-rule:nonzero;stroke:none"
         d="m 335.469,112.66 0,-99.9998 C 322.34,8.82813 252.969,-0.429688 236.719,0 l 0,98.75 c 12.5,0 73.75,7.578 98.75,13.91" /><path
         id="path76"
         style="fill:none;stroke:#ffffff;stroke-width:3.99993992;stroke-linecap:butt;stroke-linejoin:miter;stroke-miterlimit:4;stroke-dasharray:none;stroke-opacity:1"
         d="m 335.469,112.66 0,-99.9998 C 322.34,8.82813 252.969,-0.429688 236.719,0 l 0,98.75 c 12.5,0 73.75,7.578 98.75,13.91 z" /></g></g></svg>