<svg xmlns="http://www.w3.org/2000/svg" viewBox="0 0 50 58.75" height="58.75" width="50"><path d="M24.824 42.295c13.511 0 24.464-3.135 24.464-7.002s-10.953-7.007-24.464-7.007c-13.51 0-24.458 3.14-24.458 7.007 0 3.867 10.948 7.002 24.458 7.002" fill="#036998"/><path d="M24.824 42.295c13.511 0 24.464-3.135 24.464-7.002s-10.953-7.007-24.464-7.007c-13.51 0-24.458 3.14-24.458 7.007 0 3.867 10.948 7.002 24.458 7.002z" fill="none" stroke="#fff" stroke-width=".5"/><path d="M24.467 9.951c9.38 0 16.988-2.177 16.988-4.864 0-2.685-7.607-4.862-16.988-4.862C15.082.225 7.48 2.402 7.48 5.087c0 2.687 7.602 4.864 16.987 4.864" fill="#036998"/><path d="M24.467 9.951c9.38 0 16.988-2.177 16.988-4.864 0-2.685-7.607-4.862-16.988-4.862C15.082.225 7.48 2.402 7.48 5.087c0 2.687 7.602 4.864 16.987 4.864z" fill="none" stroke="#fff" stroke-width=".5"/><path d="M24.511 31.426l-.044 5.449c-9.384 0-16.987-2.178-16.987-4.864V5.087c0 2.687 7.602 4.864 16.987 4.864 9.38 0 16.988-2.177 16.988-4.864v26.924c0 1.719-3.481 3.311-8.203 4.175" fill="#036998"/><path d="M24.511 31.426l-.044 5.449c-9.384 0-16.987-2.178-16.987-4.864V5.087c0 2.687 7.602 4.864 16.987 4.864 9.38 0 16.988-2.177 16.988-4.864v26.924c0 1.719-3.481 3.311-8.203 4.175" fill="none" stroke="#fff" stroke-width=".5"/><path d="M45.449 51.406v-12.29l-6.518-4.52V7.67M11.485 53.691v-12.29l3.852-5.292V9.185M3.804 51.328V39.042l6.2-4.598V7.524M24.467 9.951v26.924M33.135 36.186V9.247" fill="none" stroke="#fff" stroke-width=".5"/><path d="M49.288 47.7c-.313 2.466-4.835 4.746-11.568 5.991l.019-12.441c6.714-1.25 11.236-3.413 11.549-5.879v12.33" fill="#036998"/><path d="M49.288 47.7c-.313 2.466-4.835 4.746-11.568 5.991l.019-12.441c6.714-1.25 11.236-3.413 11.549-5.879v12.33z" fill="none" stroke="#fff" stroke-width=".5"/><path d="M.21 47.515c-.156 4.179 11.435 7.226 24.946 7.226V42.265C11.411 42.34.054 39.293.21 35.112v12.403" fill="#036998"/><path d="M.21 47.515c-.156 4.179 11.435 7.226 24.946 7.226V42.265C11.411 42.34.054 39.293.21 35.112v12.403z" fill="none" stroke="#fff" stroke-width=".5"/><path d="M24.511 9.844l-.077-3.204c1.06 0 2.119-.087 2.935-.17l5.766 2.777v26.939l4.609 4.986V53.76L27.23 48.999c-.356 0-2.01.225-2.129.225v-6.939l-.59-5.43V9.844" fill="#036998"/><path d="M24.511 9.844l-.077-3.204c1.06 0 2.119-.087 2.935-.17l5.766 2.777v26.939l4.609 4.986V53.76L27.23 48.999c-.356 0-2.01.225-2.129.225v-6.939l-.59-5.43V9.844zM27.232 6.494v42.505" fill="none" stroke="#fff" stroke-width=".5"/><path d="M.449 34.888l6.875-2.5"/><path d="M.449 34.888l6.875-2.5" fill="none" stroke="#fff" stroke-width=".5"/><path d="M49.042 34.575l-7.5-2.187"/><path d="M49.042 34.575l-7.5-2.187" fill="none" stroke="#fff" stroke-width=".5" stroke-linejoin="bevel"/><path d="M28.652 10.835l2.813-.381 5.859 2.584c-2.188.58-7.344 1.24-8.36 1.058l-.312-3.261" fill="#036998"/><path d="M28.652 10.835l2.813-.381 5.859 2.584c-2.188.58-7.344 1.24-8.36 1.058l-.312-3.261z" fill="none" stroke="#fff" stroke-width=".5"/><path d="M28.574 10.84l.39 3.256v26.875l.626 5.435v12.422l-1.016-5.26V10.84" fill="#036998"/><path d="M28.574 10.84l.39 3.256v26.875l.626 5.435v12.422l-1.016-5.26V10.84z" fill="none" stroke="#fff" stroke-width=".5"/><path d="M28.965 14.096c1.562.079 7.109-.605 8.359-1.137v27.026c-2.265.435-6.484 1.045-8.36.908V14.096" fill="#036998"/><path d="M28.965 14.096c1.562.079 7.109-.605 8.359-1.137v27.026c-2.265.435-6.484 1.045-8.36.908V14.096z" fill="none" stroke="#fff" stroke-width=".5"/><path d="M37.324 39.985l4.687 4.756c-2.5.679-10.859 1.587-12.421 1.587l-.625-5.435c.937.109 7.969-.727 8.359-.908" fill="#036998"/><path d="M37.324 39.985l4.687 4.756c-2.5.679-10.859 1.587-12.421 1.587l-.625-5.435c.937.109 7.969-.727 8.359-.908z" fill="none" stroke="#fff" stroke-width=".5"/><path d="M41.934 44.668v12.5c-1.642.478-10.313 1.636-12.344 1.582V46.406c1.562 0 9.219-.947 12.344-1.738" fill="#036998"/><path d="M41.934 44.668v12.5c-1.642.478-10.313 1.636-12.344 1.582V46.406c1.562 0 9.219-.947 12.344-1.738z" fill="none" stroke="#fff" stroke-width=".5"/></svg>