<?xml version="1.0" encoding="UTF-8" standalone="no"?>
<svg
   xmlns:dc="http://purl.org/dc/elements/1.1/"
   xmlns:cc="http://creativecommons.org/ns#"
   xmlns:rdf="http://www.w3.org/1999/02/22-rdf-syntax-ns#"
   xmlns:svg="http://www.w3.org/2000/svg"
   xmlns="http://www.w3.org/2000/svg"
   viewBox="0 0 83.75 120"
   height="120"
   width="83.75"
   xml:space="preserve"
   version="1.1"
   id="svg2"><metadata
     id="metadata8"><rdf:RDF><cc:Work
         rdf:about=""><dc:format>image/svg+xml</dc:format><dc:type
           rdf:resource="http://purl.org/dc/dcmitype/StillImage" /></cc:Work></rdf:RDF></metadata><defs
     id="defs6" /><g
     transform="matrix(1.25,0,0,-1.25,0,120)"
     id="g10"><g
       transform="scale(0.1,0.1)"
       id="g12"><g
         transform="scale(10,10)"
         id="g14"><text
           id="text16"
           style="font-variant:normal;font-weight:normal;font-size:9px;font-family:Helvetica;-inkscape-font-specification:Helvetica;writing-mode:lr-tb;fill:#000000;fill-opacity:1;fill-rule:nonzero;stroke:none"
           transform="matrix(1,0,0,-1,23.8871,22.8371)"><tspan
             id="tspan18"
             y="0"
             x="0 6.0029998 12.006">SVX</tspan><tspan
             id="tspan20"
             y="10"
             x="-24.511299 -21.514299 -19.5163 -14.5123 -12.0103 -7.0063 -4.0093002 0.49070001 5.4947 10.4987 15.5027 20.506701 25.5107 30.5147 35.5187 37.516701">(interchangeable</tspan><tspan
             id="tspan22"
             y="20"
             x="-21.757 -15.259 -13.261 -10.759 -5.7550001 -3.253 2.75 7.7540002 12.758 15.26 20.264 22.766001 25.268 27.266001 31.766001 36.77">with End office)</tspan></text>
</g><path
         id="path24"
         style="fill:#036998;fill-opacity:1;fill-rule:nonzero;stroke:none"
         d="m 193.91,687.52 216.02,0 0,219.77 -216.02,0 0,-219.77 z" /><path
         id="path26"
         style="fill:none;stroke:#ffffff;stroke-width:3.99993992;stroke-linecap:butt;stroke-linejoin:miter;stroke-miterlimit:4;stroke-dasharray:none;stroke-opacity:1"
         d="m 193.91,687.523 216.02,0 0,219.773 -216.02,0 0,-219.773 z" /><path
         id="path28"
         style="fill:none;stroke:#ffffff;stroke-width:3.99993992;stroke-linecap:butt;stroke-linejoin:miter;stroke-miterlimit:4;stroke-dasharray:none;stroke-opacity:1"
         d="m 306.91,833.773 66.41,0" /><path
         id="path30"
         style="fill:none;stroke:#ffffff;stroke-width:3.99993992;stroke-linecap:butt;stroke-linejoin:miter;stroke-miterlimit:4;stroke-dasharray:none;stroke-opacity:1"
         d="m 306.91,757.336 66.41,0" /><path
         id="path32"
         style="fill:none;stroke:#ffffff;stroke-width:3.99993992;stroke-linecap:butt;stroke-linejoin:miter;stroke-miterlimit:4;stroke-dasharray:none;stroke-opacity:1"
         d="m 286.52,795.266 0,66.398" /><path
         id="path34"
         style="fill:none;stroke:#ffffff;stroke-width:10;stroke-linecap:butt;stroke-linejoin:miter;stroke-miterlimit:4;stroke-dasharray:none;stroke-opacity:1"
         d="m 345.199,795.766 0,-66.403" /><path
         id="path36"
         style="fill:none;stroke:#ffffff;stroke-width:3.99993992;stroke-linecap:butt;stroke-linejoin:miter;stroke-miterlimit:4;stroke-dasharray:none;stroke-opacity:1"
         d="m 269.488,795.766 0,-66.403" /><path
         id="path38"
         style="fill:none;stroke:#ffffff;stroke-width:3.99993992;stroke-linecap:butt;stroke-linejoin:miter;stroke-miterlimit:4;stroke-dasharray:none;stroke-opacity:1"
         d="m 307.852,833.613 -66.442,0" /><path
         id="path40"
         style="fill:#036998;fill-opacity:1;fill-rule:nonzero;stroke:none"
         d="m 454.141,951.039 0,-218.359 -44.493,-45 0,218.601 44.493,44.758" /><path
         id="path42"
         style="fill:none;stroke:#ffffff;stroke-width:3.99993992;stroke-linecap:butt;stroke-linejoin:miter;stroke-miterlimit:4;stroke-dasharray:none;stroke-opacity:1"
         d="m 454.141,951.047 0,-218.363 -44.493,-45 0,218.589 44.493,44.774 z" /><path
         id="path44"
         style="fill:#036998;fill-opacity:1;fill-rule:nonzero;stroke:none"
         d="m 409.648,906.281 -0.507,1.25 -215,0 54.531,43.508 205.469,0 -44.493,-44.758" /><path
         id="path46"
         style="fill:none;stroke:#ffffff;stroke-width:3.99993992;stroke-linecap:butt;stroke-linejoin:miter;stroke-miterlimit:4;stroke-dasharray:none;stroke-opacity:1"
         d="m 409.648,906.273 -0.507,1.25 -215,0 54.531,43.524 205.469,0 -44.493,-44.774 z" /><path
         id="path48"
         style="fill:none;stroke:#ffffff;stroke-width:10;stroke-linecap:butt;stroke-linejoin:miter;stroke-miterlimit:4;stroke-dasharray:none;stroke-opacity:1"
         d="m 303.871,835.965 70.149,0" /><path
         id="path50"
         style="fill:#ffffff;fill-opacity:1;fill-rule:nonzero;stroke:none"
         d="m 372.73,855.891 0,-38.442 23.211,18.473 -23.211,19.969" /><path
         id="path52"
         style="fill:none;stroke:#ffffff;stroke-width:3.99993992;stroke-linecap:butt;stroke-linejoin:miter;stroke-miterlimit:4;stroke-dasharray:none;stroke-opacity:1"
         d="m 372.73,855.887 0,-38.442 23.211,18.481 -23.211,19.961 z" /><path
         id="path54"
         style="fill:none;stroke:#ffffff;stroke-width:10;stroke-linecap:butt;stroke-linejoin:miter;stroke-miterlimit:4;stroke-dasharray:none;stroke-opacity:1"
         d="m 303.871,759.516 73.899,0" /><path
         id="path56"
         style="fill:#ffffff;fill-opacity:1;fill-rule:nonzero;stroke:none"
         d="m 372.73,779.75 0,-38.469 23.211,18.469 -23.211,20" /><path
         id="path58"
         style="fill:none;stroke:#ffffff;stroke-width:3.99993992;stroke-linecap:butt;stroke-linejoin:miter;stroke-miterlimit:4;stroke-dasharray:none;stroke-opacity:1"
         d="m 372.73,779.754 0,-38.481 23.211,18.481 -23.211,20 z" /><path
         id="path60"
         style="fill:none;stroke:#ffffff;stroke-width:10;stroke-linecap:butt;stroke-linejoin:miter;stroke-miterlimit:4;stroke-dasharray:none;stroke-opacity:1"
         d="m 283.48,797.445 0,62.782" /><path
         id="path62"
         style="fill:none;stroke:#ffffff;stroke-width:10;stroke-linecap:butt;stroke-linejoin:miter;stroke-miterlimit:4;stroke-dasharray:none;stroke-opacity:1"
         d="m 323.32,795.266 0,66.398" /><path
         id="path64"
         style="fill:none;stroke:#ffffff;stroke-width:3.99993992;stroke-linecap:butt;stroke-linejoin:miter;stroke-miterlimit:4;stroke-dasharray:none;stroke-opacity:1"
         d="m 320.309,797.445 0,62.782" /><path
         id="path66"
         style="fill:none;stroke:#ffffff;stroke-width:3.99993992;stroke-linecap:butt;stroke-linejoin:miter;stroke-miterlimit:4;stroke-dasharray:none;stroke-opacity:1"
         d="m 342.191,797.914 0,-71.41" /><path
         id="path68"
         style="fill:#ffffff;fill-opacity:1;fill-rule:nonzero;stroke:none"
         d="m 361.48,729.359 -38.429,0 18.629,-23.16 19.8,23.16" /><path
         id="path70"
         style="fill:none;stroke:#ffffff;stroke-width:3.99993992;stroke-linecap:butt;stroke-linejoin:miter;stroke-miterlimit:4;stroke-dasharray:none;stroke-opacity:1"
         d="m 361.48,729.363 -38.429,0 18.629,-23.168 19.8,23.168 z" /><path
         id="path72"
         style="fill:none;stroke:#ffffff;stroke-width:10;stroke-linecap:butt;stroke-linejoin:miter;stroke-miterlimit:4;stroke-dasharray:none;stroke-opacity:1"
         d="m 266.449,797.914 0,-71.41" /><path
         id="path74"
         style="fill:#ffffff;fill-opacity:1;fill-rule:nonzero;stroke:none"
         d="m 286.172,729.359 -38.473,0 18.672,-23.16 19.801,23.16" /><path
         id="path76"
         style="fill:none;stroke:#ffffff;stroke-width:3.99993992;stroke-linecap:butt;stroke-linejoin:miter;stroke-miterlimit:4;stroke-dasharray:none;stroke-opacity:1"
         d="m 286.172,729.363 -38.473,0 18.672,-23.168 19.801,23.168 z" /><path
         id="path78"
         style="fill:none;stroke:#ffffff;stroke-width:10;stroke-linecap:butt;stroke-linejoin:miter;stroke-miterlimit:4;stroke-dasharray:none;stroke-opacity:1"
         d="m 304.801,759.516 -71.403,0" /><path
         id="path80"
         style="fill:#ffffff;fill-opacity:1;fill-rule:nonzero;stroke:none"
         d="m 235.699,739.32 0,38.442 -23.16,-18.481 23.16,-19.961" /><path
         id="path82"
         style="fill:none;stroke:#ffffff;stroke-width:3.99993992;stroke-linecap:butt;stroke-linejoin:miter;stroke-miterlimit:4;stroke-dasharray:none;stroke-opacity:1"
         d="m 235.699,739.324 0,38.442 -23.16,-18.481 23.16,-19.961 z" /><path
         id="path84"
         style="fill:none;stroke:#ffffff;stroke-width:10;stroke-linecap:butt;stroke-linejoin:miter;stroke-miterlimit:4;stroke-dasharray:none;stroke-opacity:1"
         d="m 304.801,835.766 -71.403,0" /><path
         id="path86"
         style="fill:#ffffff;fill-opacity:1;fill-rule:nonzero;stroke:none"
         d="m 235.699,815.57 0,38.442 -23.16,-18.481 23.16,-19.961" /><path
         id="path88"
         style="fill:none;stroke:#ffffff;stroke-width:3.99993992;stroke-linecap:butt;stroke-linejoin:miter;stroke-miterlimit:4;stroke-dasharray:none;stroke-opacity:1"
         d="m 235.699,815.574 0,38.43 -23.16,-18.469 23.16,-19.961 z" /><path
         id="path90"
         style="fill:#036998;fill-opacity:1;fill-rule:nonzero;stroke:none"
         d="m 303.91,751.391 c 25.352,0 45.891,20.55 45.891,45.898 0,25.352 -20.539,45.902 -45.891,45.902 -25.359,0 -45.859,-20.55 -45.859,-45.902 0,-25.348 20.5,-45.898 45.859,-45.898" /><path
         id="path92"
         style="fill:none;stroke:#ffffff;stroke-width:3.99993992;stroke-linecap:butt;stroke-linejoin:miter;stroke-miterlimit:4;stroke-dasharray:none;stroke-opacity:1"
         d="m 303.91,751.395 c 25.352,0 45.891,20.539 45.891,45.902 0,25.348 -20.539,45.887 -45.891,45.887 -25.359,0 -45.859,-20.539 -45.859,-45.887 0,-25.363 20.5,-45.902 45.859,-45.902 z" /><path
         id="path94"
         style="fill:#ffffff;fill-opacity:1;fill-rule:nonzero;stroke:none"
         d="m 366.449,861.43 c 1.321,0 2.422,1.101 2.422,2.422 l 0,22.968 c 0,1.328 -1.101,2.418 -2.422,2.418 l -122.347,0 c -1.372,0 -2.422,-1.09 -2.422,-2.418 l 0,-22.968 c 0,-1.321 1.05,-2.422 2.422,-2.422 l 22.777,0 0,8.011 72.812,0 0,-8.011 26.758,0" /><path
         id="path96"
         style="fill:none;stroke:#ffffff;stroke-width:3.99993992;stroke-linecap:butt;stroke-linejoin:miter;stroke-miterlimit:4;stroke-dasharray:none;stroke-opacity:1"
         d="m 366.449,861.434 c 1.321,0 2.422,1.089 2.422,2.421 l 0,22.969 c 0,1.332 -1.101,2.422 -2.422,2.422 l -122.347,0 c -1.372,0 -2.422,-1.09 -2.422,-2.422 l 0,-22.969 c 0,-1.332 1.05,-2.421 2.422,-2.421 l 22.777,0 0,8 72.812,0 0,-8 26.758,0 z" /><path
         id="path98"
         style="fill:#000000;fill-opacity:1;fill-rule:nonzero;stroke:none"
         d="m 282.73,813.039 5.62109,0 0,5.62109 -5.62109,0 0,-5.62109 z" /><path
         id="path100"
         style="fill:none;stroke:#ffffff;stroke-width:3.99993992;stroke-linecap:butt;stroke-linejoin:miter;stroke-miterlimit:4;stroke-dasharray:none;stroke-opacity:1"
         d="m 282.73,813.035 5.62109,0 0,5.62109 -5.62109,0 0,-5.62109 z" /><path
         id="path102"
         style="fill:#000000;fill-opacity:1;fill-rule:nonzero;stroke:none"
         d="m 282.73,800.539 5.62109,0 0,5.62109 -5.62109,0 0,-5.62109 z" /><path
         id="path104"
         style="fill:none;stroke:#ffffff;stroke-width:3.99993992;stroke-linecap:butt;stroke-linejoin:miter;stroke-miterlimit:4;stroke-dasharray:none;stroke-opacity:1"
         d="m 282.73,800.535 5.62109,0 0,5.62109 -5.62109,0 0,-5.62109 z" /><path
         id="path106"
         style="fill:#000000;fill-opacity:1;fill-rule:nonzero;stroke:none"
         d="m 282.73,788.039 5.62109,0 0,5.62109 -5.62109,0 0,-5.62109 z" /><path
         id="path108"
         style="fill:none;stroke:#ffffff;stroke-width:3.99993992;stroke-linecap:butt;stroke-linejoin:miter;stroke-miterlimit:4;stroke-dasharray:none;stroke-opacity:1"
         d="m 282.73,788.035 5.62109,0 0,5.62109 -5.62109,0 0,-5.62109 z" /><path
         id="path110"
         style="fill:#000000;fill-opacity:1;fill-rule:nonzero;stroke:none"
         d="m 282.73,775.539 5.62109,0 0,5.62109 -5.62109,0 0,-5.62109 z" /><path
         id="path112"
         style="fill:none;stroke:#ffffff;stroke-width:3.99993992;stroke-linecap:butt;stroke-linejoin:miter;stroke-miterlimit:4;stroke-dasharray:none;stroke-opacity:1"
         d="m 282.73,775.535 5.62109,0 0,5.62109 -5.62109,0 0,-5.62109 z" /><path
         id="path114"
         style="fill:#000000;fill-opacity:1;fill-rule:nonzero;stroke:none"
         d="m 295.23,813.039 5.62109,0 0,5.62109 -5.62109,0 0,-5.62109 z" /><path
         id="path116"
         style="fill:none;stroke:#ffffff;stroke-width:3.99993992;stroke-linecap:butt;stroke-linejoin:miter;stroke-miterlimit:4;stroke-dasharray:none;stroke-opacity:1"
         d="m 295.23,813.035 5.62109,0 0,5.62109 -5.62109,0 0,-5.62109 z" /><path
         id="path118"
         style="fill:#000000;fill-opacity:1;fill-rule:nonzero;stroke:none"
         d="m 295.23,800.539 5.62109,0 0,5.62109 -5.62109,0 0,-5.62109 z" /><path
         id="path120"
         style="fill:none;stroke:#ffffff;stroke-width:3.99993992;stroke-linecap:butt;stroke-linejoin:miter;stroke-miterlimit:4;stroke-dasharray:none;stroke-opacity:1"
         d="m 295.23,800.535 5.62109,0 0,5.62109 -5.62109,0 0,-5.62109 z" /><path
         id="path122"
         style="fill:#000000;fill-opacity:1;fill-rule:nonzero;stroke:none"
         d="m 295.23,788.039 5.62109,0 0,5.62109 -5.62109,0 0,-5.62109 z" /><path
         id="path124"
         style="fill:none;stroke:#ffffff;stroke-width:3.99993992;stroke-linecap:butt;stroke-linejoin:miter;stroke-miterlimit:4;stroke-dasharray:none;stroke-opacity:1"
         d="m 295.23,788.035 5.62109,0 0,5.62109 -5.62109,0 0,-5.62109 z" /><path
         id="path126"
         style="fill:#000000;fill-opacity:1;fill-rule:nonzero;stroke:none"
         d="m 295.23,775.539 5.62109,0 0,5.62109 -5.62109,0 0,-5.62109 z" /><path
         id="path128"
         style="fill:none;stroke:#ffffff;stroke-width:3.99993992;stroke-linecap:butt;stroke-linejoin:miter;stroke-miterlimit:4;stroke-dasharray:none;stroke-opacity:1"
         d="m 295.23,775.535 5.62109,0 0,5.62109 -5.62109,0 0,-5.62109 z" /><path
         id="path130"
         style="fill:#000000;fill-opacity:1;fill-rule:nonzero;stroke:none"
         d="m 307.73,813.039 5.62109,0 0,5.62109 -5.62109,0 0,-5.62109 z" /><path
         id="path132"
         style="fill:none;stroke:#ffffff;stroke-width:3.99993992;stroke-linecap:butt;stroke-linejoin:miter;stroke-miterlimit:4;stroke-dasharray:none;stroke-opacity:1"
         d="m 307.73,813.035 5.62109,0 0,5.62109 -5.62109,0 0,-5.62109 z" /><path
         id="path134"
         style="fill:#000000;fill-opacity:1;fill-rule:nonzero;stroke:none"
         d="m 307.73,800.539 5.62109,0 0,5.62109 -5.62109,0 0,-5.62109 z" /><path
         id="path136"
         style="fill:none;stroke:#ffffff;stroke-width:3.99993992;stroke-linecap:butt;stroke-linejoin:miter;stroke-miterlimit:4;stroke-dasharray:none;stroke-opacity:1"
         d="m 307.73,800.535 5.62109,0 0,5.62109 -5.62109,0 0,-5.62109 z" /><path
         id="path138"
         style="fill:#000000;fill-opacity:1;fill-rule:nonzero;stroke:none"
         d="m 307.73,788.039 5.62109,0 0,5.62109 -5.62109,0 0,-5.62109 z" /><path
         id="path140"
         style="fill:none;stroke:#ffffff;stroke-width:3.99993992;stroke-linecap:butt;stroke-linejoin:miter;stroke-miterlimit:4;stroke-dasharray:none;stroke-opacity:1"
         d="m 307.73,788.035 5.62109,0 0,5.62109 -5.62109,0 0,-5.62109 z" /><path
         id="path142"
         style="fill:#000000;fill-opacity:1;fill-rule:nonzero;stroke:none"
         d="m 307.73,775.539 5.62109,0 0,5.62109 -5.62109,0 0,-5.62109 z" /><path
         id="path144"
         style="fill:none;stroke:#ffffff;stroke-width:3.99993992;stroke-linecap:butt;stroke-linejoin:miter;stroke-miterlimit:4;stroke-dasharray:none;stroke-opacity:1"
         d="m 307.73,775.535 5.62109,0 0,5.62109 -5.62109,0 0,-5.62109 z" /><path
         id="path146"
         style="fill:#000000;fill-opacity:1;fill-rule:nonzero;stroke:none"
         d="m 320.23,813.039 5.62109,0 0,5.62109 -5.62109,0 0,-5.62109 z" /><path
         id="path148"
         style="fill:none;stroke:#ffffff;stroke-width:3.99993992;stroke-linecap:butt;stroke-linejoin:miter;stroke-miterlimit:4;stroke-dasharray:none;stroke-opacity:1"
         d="m 320.23,813.035 5.62109,0 0,5.62109 -5.62109,0 0,-5.62109 z" /><path
         id="path150"
         style="fill:#000000;fill-opacity:1;fill-rule:nonzero;stroke:none"
         d="m 320.23,800.539 5.62109,0 0,5.62109 -5.62109,0 0,-5.62109 z" /><path
         id="path152"
         style="fill:none;stroke:#ffffff;stroke-width:3.99993992;stroke-linecap:butt;stroke-linejoin:miter;stroke-miterlimit:4;stroke-dasharray:none;stroke-opacity:1"
         d="m 320.23,800.535 5.62109,0 0,5.62109 -5.62109,0 0,-5.62109 z" /><path
         id="path154"
         style="fill:#000000;fill-opacity:1;fill-rule:nonzero;stroke:none"
         d="m 320.23,788.039 5.62109,0 0,5.62109 -5.62109,0 0,-5.62109 z" /><path
         id="path156"
         style="fill:none;stroke:#ffffff;stroke-width:3.99993992;stroke-linecap:butt;stroke-linejoin:miter;stroke-miterlimit:4;stroke-dasharray:none;stroke-opacity:1"
         d="m 320.23,788.035 5.62109,0 0,5.62109 -5.62109,0 0,-5.62109 z" /><path
         id="path158"
         style="fill:#000000;fill-opacity:1;fill-rule:nonzero;stroke:none"
         d="m 320.23,775.539 5.62109,0 0,5.62109 -5.62109,0 0,-5.62109 z" /><path
         id="path160"
         style="fill:none;stroke:#ffffff;stroke-width:3.99993992;stroke-linecap:butt;stroke-linejoin:miter;stroke-miterlimit:4;stroke-dasharray:none;stroke-opacity:1"
         d="m 320.23,775.535 5.62109,0 0,5.62109 -5.62109,0 0,-5.62109 z" /></g></g></svg>