<?xml version="1.0" encoding="UTF-8" standalone="no"?>
<svg
   xmlns:dc="http://purl.org/dc/elements/1.1/"
   xmlns:cc="http://creativecommons.org/ns#"
   xmlns:rdf="http://www.w3.org/1999/02/22-rdf-syntax-ns#"
   xmlns:svg="http://www.w3.org/2000/svg"
   xmlns="http://www.w3.org/2000/svg"
   viewBox="0 0 83.787498 118.475"
   height="118.475"
   width="83.787498"
   xml:space="preserve"
   version="1.1"
   id="svg2"><metadata
     id="metadata8"><rdf:RDF><cc:Work
         rdf:about=""><dc:format>image/svg+xml</dc:format><dc:type
           rdf:resource="http://purl.org/dc/dcmitype/StillImage" /></cc:Work></rdf:RDF></metadata><defs
     id="defs6" /><g
     transform="matrix(1.25,0,0,-1.25,0,118.475)"
     id="g10"><g
       transform="scale(0.1,0.1)"
       id="g12"><g
         transform="scale(10,10)"
         id="g14"><text
           id="text16"
           style="font-variant:normal;font-weight:normal;font-size:9px;font-family:Helvetica;-inkscape-font-specification:Helvetica;writing-mode:lr-tb;fill:#000000;fill-opacity:1;fill-rule:nonzero;stroke:none"
           transform="matrix(1,0,0,-1,24.5113,22.0254)"><tspan
             id="tspan18"
             y="0"
             x="0 6.0029998 12.006">SVX</tspan><tspan
             id="tspan20"
             y="10"
             x="-24.511299 -21.514299 -19.5163 -14.5123 -12.0103 -7.0063 -4.0093002 0.49070001 5.4947 10.4987 15.5027 20.506701 25.5107 30.5147 35.5187 37.516701">(interchangeable</tspan><tspan
             id="tspan22"
             y="20"
             x="-21.757389 -15.25939 -13.26139 -10.75939 -5.7553902 -3.2533901 2.7496099 7.7536101 12.75761 15.25961 20.263611 22.76561 25.267611 27.26561 31.76561 36.769611">with End office)</tspan></text>
</g><path
         id="path24"
         style="fill:#036998;fill-opacity:1;fill-rule:nonzero;stroke:none"
         d="m 200.145,679.426 216,0 0,219.746 -216,0 0,-219.746 z" /><path
         id="path26"
         style="fill:none;stroke:#ffffff;stroke-width:3.99993992;stroke-linecap:butt;stroke-linejoin:miter;stroke-miterlimit:4;stroke-dasharray:none;stroke-opacity:1"
         d="m 200.145,679.426 216,0 0,219.746 -216,0 0,-219.746 z" /><path
         id="path28"
         style="fill:#000000;fill-opacity:1;fill-rule:nonzero;stroke:none"
         d="m 313.137,825.664 66.414,0" /><path
         id="path30"
         style="fill:none;stroke:#ffffff;stroke-width:3.99993992;stroke-linecap:butt;stroke-linejoin:miter;stroke-miterlimit:4;stroke-dasharray:none;stroke-opacity:1"
         d="m 313.137,825.664 66.414,0" /><path
         id="path32"
         style="fill:#000000;fill-opacity:1;fill-rule:nonzero;stroke:none"
         d="m 313.137,749.211 66.414,0" /><path
         id="path34"
         style="fill:none;stroke:#ffffff;stroke-width:3.99993992;stroke-linecap:butt;stroke-linejoin:miter;stroke-miterlimit:4;stroke-dasharray:none;stroke-opacity:1"
         d="m 313.137,749.211 66.414,0" /><path
         id="path36"
         style="fill:#000000;fill-opacity:1;fill-rule:nonzero;stroke:none"
         d="m 292.766,787.148 0,66.418" /><path
         id="path38"
         style="fill:none;stroke:#ffffff;stroke-width:3.99993992;stroke-linecap:butt;stroke-linejoin:miter;stroke-miterlimit:4;stroke-dasharray:none;stroke-opacity:1"
         d="m 292.766,787.148 0,66.418" /><path
         id="path40"
         style="fill:none;stroke:#ffffff;stroke-width:10;stroke-linecap:butt;stroke-linejoin:miter;stroke-miterlimit:4;stroke-dasharray:none;stroke-opacity:1"
         d="m 351.453,787.637 0,-66.407" /><path
         id="path42"
         style="fill:#000000;fill-opacity:1;fill-rule:nonzero;stroke:none"
         d="m 275.73,787.637 0,-66.407" /><path
         id="path44"
         style="fill:none;stroke:#ffffff;stroke-width:3.99993992;stroke-linecap:butt;stroke-linejoin:miter;stroke-miterlimit:4;stroke-dasharray:none;stroke-opacity:1"
         d="m 275.73,787.637 0,-66.407" /><path
         id="path46"
         style="fill:#000000;fill-opacity:1;fill-rule:nonzero;stroke:none"
         d="m 314.082,825.488 -66.418,0" /><path
         id="path48"
         style="fill:none;stroke:#ffffff;stroke-width:3.99993992;stroke-linecap:butt;stroke-linejoin:miter;stroke-miterlimit:4;stroke-dasharray:none;stroke-opacity:1"
         d="m 314.082,825.488 -66.418,0" /><path
         id="path50"
         style="fill:#036998;fill-opacity:1;fill-rule:nonzero;stroke:none"
         d="m 460.383,942.922 0,-218.371 -44.492,-45 0,218.625 44.492,44.746" /><path
         id="path52"
         style="fill:none;stroke:#ffffff;stroke-width:3.99993992;stroke-linecap:butt;stroke-linejoin:miter;stroke-miterlimit:4;stroke-dasharray:none;stroke-opacity:1"
         d="m 460.383,942.922 0,-218.371 -44.492,-45 0,218.625 44.492,44.746 z" /><path
         id="path54"
         style="fill:#036998;fill-opacity:1;fill-rule:nonzero;stroke:none"
         d="m 415.891,898.176 -0.508,1.25 -214.992,0 54.504,43.496 205.488,0 -44.492,-44.746" /><path
         id="path56"
         style="fill:none;stroke:#ffffff;stroke-width:3.99993992;stroke-linecap:butt;stroke-linejoin:miter;stroke-miterlimit:4;stroke-dasharray:none;stroke-opacity:1"
         d="m 415.891,898.176 -0.508,1.25 -214.992,0 54.504,43.496 205.488,0 -44.492,-44.746 z" /><path
         id="path58"
         style="fill:none;stroke:#ffffff;stroke-width:10;stroke-linecap:butt;stroke-linejoin:miter;stroke-miterlimit:4;stroke-dasharray:none;stroke-opacity:1"
         d="m 310.105,827.832 70.168,0" /><path
         id="path60"
         style="fill:#ffffff;fill-opacity:1;fill-rule:nonzero;stroke:none"
         d="m 378.992,847.785 0,-38.449 23.176,18.469 -23.176,19.98" /><path
         id="path62"
         style="fill:none;stroke:#ffffff;stroke-width:3.99993992;stroke-linecap:butt;stroke-linejoin:miter;stroke-miterlimit:4;stroke-dasharray:none;stroke-opacity:1"
         d="m 378.992,847.785 0,-38.449 23.176,18.469 -23.176,19.98 z" /><path
         id="path64"
         style="fill:none;stroke:#ffffff;stroke-width:10;stroke-linecap:butt;stroke-linejoin:miter;stroke-miterlimit:4;stroke-dasharray:none;stroke-opacity:1"
         d="m 310.105,751.387 73.918,0" /><path
         id="path66"
         style="fill:#ffffff;fill-opacity:1;fill-rule:nonzero;stroke:none"
         d="m 378.992,771.621 0,-38.457 23.176,18.477 -23.176,19.98" /><path
         id="path68"
         style="fill:none;stroke:#ffffff;stroke-width:3.99993992;stroke-linecap:butt;stroke-linejoin:miter;stroke-miterlimit:4;stroke-dasharray:none;stroke-opacity:1"
         d="m 378.992,771.621 0,-38.457 23.176,18.477 -23.176,19.98 z" /><path
         id="path70"
         style="fill:none;stroke:#ffffff;stroke-width:10;stroke-linecap:butt;stroke-linejoin:miter;stroke-miterlimit:4;stroke-dasharray:none;stroke-opacity:1"
         d="m 289.734,789.328 0,62.762" /><path
         id="path72"
         style="fill:none;stroke:#ffffff;stroke-width:10;stroke-linecap:butt;stroke-linejoin:miter;stroke-miterlimit:4;stroke-dasharray:none;stroke-opacity:1"
         d="m 329.578,787.148 0,66.418" /><path
         id="path74"
         style="fill:#000000;fill-opacity:1;fill-rule:nonzero;stroke:none"
         d="m 326.555,789.328 0,62.762" /><path
         id="path76"
         style="fill:none;stroke:#ffffff;stroke-width:3.99993992;stroke-linecap:butt;stroke-linejoin:miter;stroke-miterlimit:4;stroke-dasharray:none;stroke-opacity:1"
         d="m 326.555,789.328 0,62.762" /><path
         id="path78"
         style="fill:#000000;fill-opacity:1;fill-rule:nonzero;stroke:none"
         d="m 348.43,789.816 0,-71.418" /><path
         id="path80"
         style="fill:none;stroke:#ffffff;stroke-width:3.99993992;stroke-linecap:butt;stroke-linejoin:miter;stroke-miterlimit:4;stroke-dasharray:none;stroke-opacity:1"
         d="m 348.43,789.816 0,-71.418" /><path
         id="path82"
         style="fill:#ffffff;fill-opacity:1;fill-rule:nonzero;stroke:none"
         d="m 367.742,721.242 -38.457,0 18.653,-23.176 19.804,23.176" /><path
         id="path84"
         style="fill:none;stroke:#ffffff;stroke-width:3.99993992;stroke-linecap:butt;stroke-linejoin:miter;stroke-miterlimit:4;stroke-dasharray:none;stroke-opacity:1"
         d="m 367.742,721.242 -38.457,0 18.653,-23.176 19.804,23.176 z" /><path
         id="path86"
         style="fill:none;stroke:#ffffff;stroke-width:10;stroke-linecap:butt;stroke-linejoin:miter;stroke-miterlimit:4;stroke-dasharray:none;stroke-opacity:1"
         d="m 272.703,789.816 0,-71.418" /><path
         id="path88"
         style="fill:#ffffff;fill-opacity:1;fill-rule:nonzero;stroke:none"
         d="m 292.41,721.242 -38.457,0 18.652,-23.176 19.805,23.176" /><path
         id="path90"
         style="fill:none;stroke:#ffffff;stroke-width:3.99993992;stroke-linecap:butt;stroke-linejoin:miter;stroke-miterlimit:4;stroke-dasharray:none;stroke-opacity:1"
         d="m 292.41,721.242 -38.457,0 18.652,-23.176 19.805,23.176 z" /><path
         id="path92"
         style="fill:none;stroke:#ffffff;stroke-width:10;stroke-linecap:butt;stroke-linejoin:miter;stroke-miterlimit:4;stroke-dasharray:none;stroke-opacity:1"
         d="m 311.063,751.406 -71.422,0" /><path
         id="path94"
         style="fill:#ffffff;fill-opacity:1;fill-rule:nonzero;stroke:none"
         d="m 241.941,731.191 0,38.457 -23.164,-18.464 23.164,-19.993" /><path
         id="path96"
         style="fill:none;stroke:#ffffff;stroke-width:3.99993992;stroke-linecap:butt;stroke-linejoin:miter;stroke-miterlimit:4;stroke-dasharray:none;stroke-opacity:1"
         d="m 241.941,731.191 0,38.457 -23.164,-18.464 23.164,-19.993 z" /><path
         id="path98"
         style="fill:none;stroke:#ffffff;stroke-width:10;stroke-linecap:butt;stroke-linejoin:miter;stroke-miterlimit:4;stroke-dasharray:none;stroke-opacity:1"
         d="m 311.063,827.656 -71.422,0" /><path
         id="path100"
         style="fill:#ffffff;fill-opacity:1;fill-rule:nonzero;stroke:none"
         d="m 241.941,807.441 0,38.457 -23.164,-18.464 23.164,-19.993" /><path
         id="path102"
         style="fill:none;stroke:#ffffff;stroke-width:3.99993992;stroke-linecap:butt;stroke-linejoin:miter;stroke-miterlimit:4;stroke-dasharray:none;stroke-opacity:1"
         d="m 241.941,807.441 0,38.457 -23.164,-18.464 23.164,-19.993 z" /><path
         id="path104"
         style="fill:#036998;fill-opacity:1;fill-rule:nonzero;stroke:none"
         d="m 310.145,743.293 c 25.343,0 45.89,20.535 45.89,45.879 0,25.34 -20.547,45.887 -45.89,45.887 -25.332,0 -45.875,-20.547 -45.875,-45.887 0,-25.344 20.543,-45.879 45.875,-45.879" /><path
         id="path106"
         style="fill:none;stroke:#ffffff;stroke-width:3.99993992;stroke-linecap:butt;stroke-linejoin:miter;stroke-miterlimit:4;stroke-dasharray:none;stroke-opacity:1"
         d="m 310.145,743.293 c 25.343,0 45.89,20.535 45.89,45.879 0,25.34 -20.547,45.887 -45.89,45.887 -25.332,0 -45.875,-20.547 -45.875,-45.887 0,-25.344 20.543,-45.879 45.875,-45.879 z" /><path
         id="path108"
         style="fill:#ffffff;fill-opacity:1;fill-rule:nonzero;stroke:none"
         d="m 372.695,853.32 c 1.336,0 2.422,1.094 2.422,2.422 l 0,22.969 c 0,1.328 -1.086,2.414 -2.422,2.414 l -122.363,0 c -1.34,0 -2.422,-1.086 -2.422,-2.414 l 0,-22.969 c 0,-1.328 1.082,-2.422 2.422,-2.422 l 22.781,0 0,8.008 72.805,0 0,-8.008 26.777,0" /><path
         id="path110"
         style="fill:none;stroke:#ffffff;stroke-width:3.99993992;stroke-linecap:butt;stroke-linejoin:miter;stroke-miterlimit:4;stroke-dasharray:none;stroke-opacity:1"
         d="m 372.695,853.32 c 1.336,0 2.422,1.094 2.422,2.422 l 0,22.969 c 0,1.328 -1.086,2.414 -2.422,2.414 l -122.363,0 c -1.34,0 -2.422,-1.086 -2.422,-2.414 l 0,-22.969 c 0,-1.328 1.082,-2.422 2.422,-2.422 l 22.781,0 0,8.008 72.805,0 0,-8.008 26.777,0 z" /><path
         id="path112"
         style="fill:#000000;fill-opacity:1;fill-rule:nonzero;stroke:none"
         d="m 288.984,804.902 5.625,0 0,5.625 -5.625,0 0,-5.625 z" /><path
         id="path114"
         style="fill:none;stroke:#ffffff;stroke-width:3.99993992;stroke-linecap:butt;stroke-linejoin:miter;stroke-miterlimit:4;stroke-dasharray:none;stroke-opacity:1"
         d="m 288.984,804.902 5.625,0 0,5.625 -5.625,0 0,-5.625 z" /><path
         id="path116"
         style="fill:#000000;fill-opacity:1;fill-rule:nonzero;stroke:none"
         d="m 288.984,792.402 5.625,0 0,5.625 -5.625,0 0,-5.625 z" /><path
         id="path118"
         style="fill:none;stroke:#ffffff;stroke-width:3.99993992;stroke-linecap:butt;stroke-linejoin:miter;stroke-miterlimit:4;stroke-dasharray:none;stroke-opacity:1"
         d="m 288.984,792.402 5.625,0 0,5.625 -5.625,0 0,-5.625 z" /><path
         id="path120"
         style="fill:#000000;fill-opacity:1;fill-rule:nonzero;stroke:none"
         d="m 288.984,779.902 5.625,0 0,5.625 -5.625,0 0,-5.625 z" /><path
         id="path122"
         style="fill:none;stroke:#ffffff;stroke-width:3.99993992;stroke-linecap:butt;stroke-linejoin:miter;stroke-miterlimit:4;stroke-dasharray:none;stroke-opacity:1"
         d="m 288.984,779.902 5.625,0 0,5.625 -5.625,0 0,-5.625 z" /><path
         id="path124"
         style="fill:#000000;fill-opacity:1;fill-rule:nonzero;stroke:none"
         d="m 288.984,767.402 5.625,0 0,5.625 -5.625,0 0,-5.625 z" /><path
         id="path126"
         style="fill:none;stroke:#ffffff;stroke-width:3.99993992;stroke-linecap:butt;stroke-linejoin:miter;stroke-miterlimit:4;stroke-dasharray:none;stroke-opacity:1"
         d="m 288.984,767.402 5.625,0 0,5.625 -5.625,0 0,-5.625 z" /><path
         id="path128"
         style="fill:#000000;fill-opacity:1;fill-rule:nonzero;stroke:none"
         d="m 301.484,804.902 5.625,0 0,5.625 -5.625,0 0,-5.625 z" /><path
         id="path130"
         style="fill:none;stroke:#ffffff;stroke-width:3.99993992;stroke-linecap:butt;stroke-linejoin:miter;stroke-miterlimit:4;stroke-dasharray:none;stroke-opacity:1"
         d="m 301.484,804.902 5.625,0 0,5.625 -5.625,0 0,-5.625 z" /><path
         id="path132"
         style="fill:#000000;fill-opacity:1;fill-rule:nonzero;stroke:none"
         d="m 301.484,792.402 5.625,0 0,5.625 -5.625,0 0,-5.625 z" /><path
         id="path134"
         style="fill:none;stroke:#ffffff;stroke-width:3.99993992;stroke-linecap:butt;stroke-linejoin:miter;stroke-miterlimit:4;stroke-dasharray:none;stroke-opacity:1"
         d="m 301.484,792.402 5.625,0 0,5.625 -5.625,0 0,-5.625 z" /><path
         id="path136"
         style="fill:#000000;fill-opacity:1;fill-rule:nonzero;stroke:none"
         d="m 301.484,779.902 5.625,0 0,5.625 -5.625,0 0,-5.625 z" /><path
         id="path138"
         style="fill:none;stroke:#ffffff;stroke-width:3.99993992;stroke-linecap:butt;stroke-linejoin:miter;stroke-miterlimit:4;stroke-dasharray:none;stroke-opacity:1"
         d="m 301.484,779.902 5.625,0 0,5.625 -5.625,0 0,-5.625 z" /><path
         id="path140"
         style="fill:#000000;fill-opacity:1;fill-rule:nonzero;stroke:none"
         d="m 301.484,767.402 5.625,0 0,5.625 -5.625,0 0,-5.625 z" /><path
         id="path142"
         style="fill:none;stroke:#ffffff;stroke-width:3.99993992;stroke-linecap:butt;stroke-linejoin:miter;stroke-miterlimit:4;stroke-dasharray:none;stroke-opacity:1"
         d="m 301.484,767.402 5.625,0 0,5.625 -5.625,0 0,-5.625 z" /><path
         id="path144"
         style="fill:#000000;fill-opacity:1;fill-rule:nonzero;stroke:none"
         d="m 313.984,804.902 5.625,0 0,5.625 -5.625,0 0,-5.625 z" /><path
         id="path146"
         style="fill:none;stroke:#ffffff;stroke-width:3.99993992;stroke-linecap:butt;stroke-linejoin:miter;stroke-miterlimit:4;stroke-dasharray:none;stroke-opacity:1"
         d="m 313.984,804.902 5.625,0 0,5.625 -5.625,0 0,-5.625 z" /><path
         id="path148"
         style="fill:#000000;fill-opacity:1;fill-rule:nonzero;stroke:none"
         d="m 313.984,792.402 5.625,0 0,5.625 -5.625,0 0,-5.625 z" /><path
         id="path150"
         style="fill:none;stroke:#ffffff;stroke-width:3.99993992;stroke-linecap:butt;stroke-linejoin:miter;stroke-miterlimit:4;stroke-dasharray:none;stroke-opacity:1"
         d="m 313.984,792.402 5.625,0 0,5.625 -5.625,0 0,-5.625 z" /><path
         id="path152"
         style="fill:#000000;fill-opacity:1;fill-rule:nonzero;stroke:none"
         d="m 313.984,779.902 5.625,0 0,5.625 -5.625,0 0,-5.625 z" /><path
         id="path154"
         style="fill:none;stroke:#ffffff;stroke-width:3.99993992;stroke-linecap:butt;stroke-linejoin:miter;stroke-miterlimit:4;stroke-dasharray:none;stroke-opacity:1"
         d="m 313.984,779.902 5.625,0 0,5.625 -5.625,0 0,-5.625 z" /><path
         id="path156"
         style="fill:#000000;fill-opacity:1;fill-rule:nonzero;stroke:none"
         d="m 313.984,767.402 5.625,0 0,5.625 -5.625,0 0,-5.625 z" /><path
         id="path158"
         style="fill:none;stroke:#ffffff;stroke-width:3.99993992;stroke-linecap:butt;stroke-linejoin:miter;stroke-miterlimit:4;stroke-dasharray:none;stroke-opacity:1"
         d="m 313.984,767.402 5.625,0 0,5.625 -5.625,0 0,-5.625 z" /><path
         id="path160"
         style="fill:#000000;fill-opacity:1;fill-rule:nonzero;stroke:none"
         d="m 326.484,804.902 5.625,0 0,5.625 -5.625,0 0,-5.625 z" /><path
         id="path162"
         style="fill:none;stroke:#ffffff;stroke-width:3.99993992;stroke-linecap:butt;stroke-linejoin:miter;stroke-miterlimit:4;stroke-dasharray:none;stroke-opacity:1"
         d="m 326.484,804.902 5.625,0 0,5.625 -5.625,0 0,-5.625 z" /><path
         id="path164"
         style="fill:#000000;fill-opacity:1;fill-rule:nonzero;stroke:none"
         d="m 326.484,792.402 5.625,0 0,5.625 -5.625,0 0,-5.625 z" /><path
         id="path166"
         style="fill:none;stroke:#ffffff;stroke-width:3.99993992;stroke-linecap:butt;stroke-linejoin:miter;stroke-miterlimit:4;stroke-dasharray:none;stroke-opacity:1"
         d="m 326.484,792.402 5.625,0 0,5.625 -5.625,0 0,-5.625 z" /><path
         id="path168"
         style="fill:#000000;fill-opacity:1;fill-rule:nonzero;stroke:none"
         d="m 326.484,779.902 5.625,0 0,5.625 -5.625,0 0,-5.625 z" /><path
         id="path170"
         style="fill:none;stroke:#ffffff;stroke-width:3.99993992;stroke-linecap:butt;stroke-linejoin:miter;stroke-miterlimit:4;stroke-dasharray:none;stroke-opacity:1"
         d="m 326.484,779.902 5.625,0 0,5.625 -5.625,0 0,-5.625 z" /><path
         id="path172"
         style="fill:#000000;fill-opacity:1;fill-rule:nonzero;stroke:none"
         d="m 326.484,767.402 5.625,0 0,5.625 -5.625,0 0,-5.625 z" /><path
         id="path174"
         style="fill:none;stroke:#ffffff;stroke-width:3.99993992;stroke-linecap:butt;stroke-linejoin:miter;stroke-miterlimit:4;stroke-dasharray:none;stroke-opacity:1"
         d="m 326.484,767.402 5.625,0 0,5.625 -5.625,0 0,-5.625 z" /></g></g></svg>