<?xml version="1.0" encoding="UTF-8" standalone="no"?>
<svg
   xmlns:dc="http://purl.org/dc/elements/1.1/"
   xmlns:cc="http://creativecommons.org/ns#"
   xmlns:rdf="http://www.w3.org/1999/02/22-rdf-syntax-ns#"
   xmlns:svg="http://www.w3.org/2000/svg"
   xmlns="http://www.w3.org/2000/svg"
   viewBox="0 0 38.75 36.25"
   height="36.25"
   width="38.75"
   xml:space="preserve"
   version="1.1"
   id="svg2"><metadata
     id="metadata8"><rdf:RDF><cc:Work
         rdf:about=""><dc:format>image/svg+xml</dc:format><dc:type
           rdf:resource="http://purl.org/dc/dcmitype/StillImage" /></cc:Work></rdf:RDF></metadata><defs
     id="defs6"><clipPath
       id="clipPath18"
       clipPathUnits="userSpaceOnUse"><path
         id="path20"
         d="M 0,9 0,290 303,290 303,9 0,9 Z" /></clipPath></defs><g
     transform="matrix(1.25,0,0,-1.25,0,36.25)"
     id="g10"><g
       transform="scale(0.1,0.1)"
       id="g12"><g
         id="g14"><g
           clip-path="url(#clipPath18)"
           id="g16"><path
             id="path22"
             style="fill:#026c9b;fill-opacity:1;fill-rule:nonzero;stroke:none"
             d="m 6.48047,13.8359 216.02,0 0,219.773 -216.02,0 0,-219.773 z" /><path
             id="path24"
             style="fill:none;stroke:#ffffff;stroke-width:4;stroke-linecap:butt;stroke-linejoin:miter;stroke-miterlimit:4;stroke-dasharray:none;stroke-opacity:1"
             d="m 6.48047,13.8359 216.02,0 0,219.773 -216.02,0 0,-219.773 z" /><path
             id="path26"
             style="fill:#026c9b;fill-opacity:1;fill-rule:nonzero;stroke:none"
             d="m 222.5,233.848 75,50.968 -216.0195,0 -75.00003,-50.968 216.01953,0" /><path
             id="path28"
             style="fill:none;stroke:#ffffff;stroke-width:4;stroke-linecap:butt;stroke-linejoin:miter;stroke-miterlimit:4;stroke-dasharray:none;stroke-opacity:1"
             d="m 222.5,233.848 75,50.968 -216.0195,0 -75.00003,-50.968 216.01953,0 z" /><path
             id="path30"
             style="fill:#026c9b;fill-opacity:1;fill-rule:nonzero;stroke:none"
             d="m 298.75,66.3477 0,219.7183 -74.77,-52.5 0,-219.7183 74.77,52.5" /><path
             id="path32"
             style="fill:none;stroke:#ffffff;stroke-width:4;stroke-linecap:butt;stroke-linejoin:miter;stroke-miterlimit:4;stroke-dasharray:none;stroke-opacity:1"
             d="m 298.75,66.3477 0,219.7183 -74.77,-52.5 0,-219.7183 74.77,52.5 z" /><path
             id="path34"
             style="fill:none;stroke:#ffffff;stroke-width:15;stroke-linecap:butt;stroke-linejoin:miter;stroke-miterlimit:4;stroke-dasharray:none;stroke-opacity:1"
             d="m 114.488,127.789 c 21.133,0 38.242,17.149 38.242,38.238 0,21.141 -17.109,38.25 -38.242,38.25 -21.1286,0 -38.238,-17.109 -38.238,-38.25 0,-21.089 17.1094,-38.238 38.238,-38.238 z" /><path
             id="path36"
             style="fill:none;stroke:#ffffff;stroke-width:15;stroke-linecap:butt;stroke-linejoin:miter;stroke-miterlimit:4;stroke-dasharray:none;stroke-opacity:1"
             d="m 114.488,114.977 0,-57.6176" /><path
             id="path38"
             style="fill:#ffffff;fill-opacity:1;fill-rule:nonzero;stroke:none"
             d="m 138.91,57.0859 -48.0506,0 23.0896,-28.9492 24.961,28.9492" /><path
             id="path40"
             style="fill:none;stroke:#ffffff;stroke-width:15;stroke-linecap:butt;stroke-linejoin:miter;stroke-miterlimit:4;stroke-dasharray:none;stroke-opacity:1"
             d="M 86.9883,122.668 56.1289,74.0781" /><path
             id="path42"
             style="fill:#ffffff;fill-opacity:1;fill-rule:nonzero;stroke:none"
             d="M 76.6016,60.7188 36.0195,86.457 40,49.668 76.6016,60.7188" /><path
             id="path44"
             style="fill:none;stroke:#ffffff;stroke-width:15;stroke-linecap:butt;stroke-linejoin:miter;stroke-miterlimit:4;stroke-dasharray:none;stroke-opacity:1"
             d="M 141.25,122.668 172.109,74.0781" /><path
             id="path46"
             style="fill:#ffffff;fill-opacity:1;fill-rule:nonzero;stroke:none"
             d="M 151.641,60.7188 192.23,86.457 188.238,49.668 151.641,60.7188" /></g></g></g></g></svg>