<?xml version="1.0" encoding="UTF-8" standalone="no"?>
<svg
   xmlns:dc="http://purl.org/dc/elements/1.1/"
   xmlns:cc="http://creativecommons.org/ns#"
   xmlns:rdf="http://www.w3.org/1999/02/22-rdf-syntax-ns#"
   xmlns:svg="http://www.w3.org/2000/svg"
   xmlns="http://www.w3.org/2000/svg"
   viewBox="0 0 26.25 40"
   height="40"
   width="26.25"
   xml:space="preserve"
   version="1.1"
   id="svg2"><metadata
     id="metadata8"><rdf:RDF><cc:Work
         rdf:about=""><dc:format>image/svg+xml</dc:format><dc:type
           rdf:resource="http://purl.org/dc/dcmitype/StillImage" /></cc:Work></rdf:RDF></metadata><defs
     id="defs6"><clipPath
       id="clipPath18"
       clipPathUnits="userSpaceOnUse"><path
         id="path20"
         d="M 0,8 0,312 209,312 209,8 0,8 Z" /></clipPath></defs><g
     transform="matrix(1.25,0,0,-1.25,0,40)"
     id="g10"><g
       transform="scale(0.1,0.1)"
       id="g12"><g
         id="g14"><g
           clip-path="url(#clipPath18)"
           id="g16"><path
             id="path22"
             style="fill:#026c9b;fill-opacity:1;fill-rule:nonzero;stroke:none"
             d="m 4.83984,14.8438 153.871,0 0,245.121 -153.871,0 0,-245.121 z" /><path
             id="path24"
             style="fill:#026c9b;fill-opacity:1;fill-rule:nonzero;stroke:none"
             d="m 158.711,14.8438 49.141,49.1406 0,245.1206 -153.8715,0 -49.14066,-49.14 153.87116,0 0,-245.1212" /><path
             id="path26"
             style="fill:#026c9b;fill-opacity:1;fill-rule:nonzero;stroke:none"
             d="m 158.711,259.965 49.141,49.14" /><path
             id="path28"
             style="fill:#026c9b;fill-opacity:1;fill-rule:nonzero;stroke:none"
             d="m 4.83984,14.8438 153.871,0 0,245.121 -153.871,0 0,-245.121 z" /><path
             id="path30"
             style="fill:none;stroke:#ffffff;stroke-width:4;stroke-linecap:butt;stroke-linejoin:miter;stroke-miterlimit:4;stroke-dasharray:none;stroke-opacity:1"
             d="m 158.711,259.965 -153.87116,0 0,-245.1212 153.87116,0" /><path
             id="path32"
             style="fill:#026c9b;fill-opacity:1;fill-rule:nonzero;stroke:none"
             d="m 158.711,14.8438 49.141,49.1406 0,245.1206 -153.8715,0 -49.14066,-49.14 153.87116,0 0,-245.1212" /><path
             id="path34"
             style="fill:none;stroke:#ffffff;stroke-width:4;stroke-linecap:butt;stroke-linejoin:miter;stroke-miterlimit:4;stroke-dasharray:none;stroke-opacity:1"
             d="m 158.711,14.8438 49.141,49.1406 0,245.1206 -153.8715,0 -49.14066,-49.14 153.87116,0 0,-245.1212 z" /><path
             id="path36"
             style="fill:#ffffff;fill-opacity:1;fill-rule:nonzero;stroke:none"
             d="m 158.711,259.965 49.141,49.14" /><path
             id="path38"
             style="fill:none;stroke:#ffffff;stroke-width:4;stroke-linecap:butt;stroke-linejoin:miter;stroke-miterlimit:4;stroke-dasharray:none;stroke-opacity:1"
             d="m 158.711,259.965 -153.87116,0 0,-245.1212 153.87116,0" /><path
             id="path40"
             style="fill:none;stroke:#ffffff;stroke-width:4;stroke-linecap:butt;stroke-linejoin:miter;stroke-miterlimit:4;stroke-dasharray:none;stroke-opacity:1"
             d="m 158.711,14.8438 49.141,49.1406 0,245.1206 -153.8715,0 -49.14066,-49.14 153.87116,0 0,-245.1212 z" /><path
             id="path42"
             style="fill:none;stroke:#ffffff;stroke-width:4;stroke-linecap:butt;stroke-linejoin:miter;stroke-miterlimit:4;stroke-dasharray:none;stroke-opacity:1"
             d="m 158.711,259.965 49.141,49.14" /><path
             id="path44"
             style="fill:none;stroke:#ffffff;stroke-width:4;stroke-linecap:round;stroke-linejoin:round;stroke-miterlimit:4;stroke-dasharray:none;stroke-opacity:1"
             d="m 30.9805,187.965 106.559,0 0,42.9688 -106.559,0 0,-42.9688 z" /><path
             id="path46"
             style="fill:#000000;fill-opacity:1;fill-rule:nonzero;stroke:none"
             d="m 69.9219,210.234 c 0,-6.089 -4.961,-11.019 -11.0117,-11.019 -6.1016,0 -11.0196,4.93 -11.0196,11.019 0,6.059 4.918,11.02 11.0196,11.02 6.0507,0 11.0117,-4.961 11.0117,-11.02" /><path
             id="path48"
             style="fill:none;stroke:#ffffff;stroke-width:4;stroke-linecap:round;stroke-linejoin:round;stroke-miterlimit:4;stroke-dasharray:none;stroke-opacity:1"
             d="m 69.9219,210.234 c 0,-6.089 -4.961,-11.019 -11.0117,-11.019 -6.1016,0 -11.0196,4.93 -11.0196,11.019 0,6.059 4.918,11.02 11.0196,11.02 6.0507,0 11.0117,-4.961 11.0117,-11.02 z" /><path
             id="path50"
             style="fill:#000000;fill-opacity:1;fill-rule:nonzero;stroke:none"
             d="m 118.051,210.234 c 0,-6.089 -4.93,-11.019 -10.981,-11.019 -6.09,0 -11.0192,4.93 -11.0192,11.019 0,6.059 4.9292,11.02 11.0192,11.02 6.051,0 10.981,-4.961 10.981,-11.02" /><path
             id="path52"
             style="fill:none;stroke:#ffffff;stroke-width:4;stroke-linecap:round;stroke-linejoin:round;stroke-miterlimit:4;stroke-dasharray:none;stroke-opacity:1"
             d="m 118.051,210.234 c 0,-6.089 -4.93,-11.019 -10.981,-11.019 -6.09,0 -11.0192,4.93 -11.0192,11.019 0,6.059 4.9292,11.02 11.0192,11.02 6.051,0 10.981,-4.961 10.981,-11.02 z" /><path
             id="path54"
             style="fill:none;stroke:#ffffff;stroke-width:4;stroke-linecap:round;stroke-linejoin:round;stroke-miterlimit:4;stroke-dasharray:none;stroke-opacity:1"
             d="m 30.9805,112.922 106.559,0 0,42.9727 -106.559,0 0,-42.9727 z" /><path
             id="path56"
             style="fill:#000000;fill-opacity:1;fill-rule:nonzero;stroke:none"
             d="m 69.9219,135.234 c 0,-6.089 -4.961,-11.019 -11.0117,-11.019 -6.1016,0 -11.0196,4.93 -11.0196,11.019 0,6.09 4.918,10.981 11.0196,10.981 6.0507,0 11.0117,-4.891 11.0117,-10.981" /><path
             id="path58"
             style="fill:none;stroke:#ffffff;stroke-width:4;stroke-linecap:round;stroke-linejoin:round;stroke-miterlimit:4;stroke-dasharray:none;stroke-opacity:1"
             d="m 69.9219,135.234 c 0,-6.089 -4.961,-11.019 -11.0117,-11.019 -6.1016,0 -11.0196,4.93 -11.0196,11.019 0,6.09 4.918,10.981 11.0196,10.981 6.0507,0 11.0117,-4.891 11.0117,-10.981 z" /><path
             id="path60"
             style="fill:#000000;fill-opacity:1;fill-rule:nonzero;stroke:none"
             d="m 118.051,135.234 c 0,-6.089 -4.93,-11.019 -10.981,-11.019 -6.09,0 -11.0192,4.93 -11.0192,11.019 0,6.09 4.9292,10.981 11.0192,10.981 6.051,0 10.981,-4.891 10.981,-10.981" /><path
             id="path62"
             style="fill:none;stroke:#ffffff;stroke-width:4;stroke-linecap:round;stroke-linejoin:round;stroke-miterlimit:4;stroke-dasharray:none;stroke-opacity:1"
             d="m 118.051,135.234 c 0,-6.089 -4.93,-11.019 -10.981,-11.019 -6.09,0 -11.0192,4.93 -11.0192,11.019 0,6.09 4.9292,10.981 11.0192,10.981 6.051,0 10.981,-4.891 10.981,-10.981 z" /><path
             id="path64"
             style="fill:none;stroke:#ffffff;stroke-width:4;stroke-linecap:round;stroke-linejoin:round;stroke-miterlimit:4;stroke-dasharray:none;stroke-opacity:1"
             d="m 30.9805,37.9219 106.559,0 0,42.9727 -106.559,0 0,-42.9727 z" /><path
             id="path66"
             style="fill:#000000;fill-opacity:1;fill-rule:nonzero;stroke:none"
             d="m 69.9219,60.2344 c 0,-6.0899 -4.961,-11.0196 -11.0117,-11.0196 -6.1016,0 -11.0196,4.9297 -11.0196,11.0196 0,6.0898 4.918,10.9804 11.0196,10.9804 6.0507,0 11.0117,-4.8906 11.0117,-10.9804" /><path
             id="path68"
             style="fill:none;stroke:#ffffff;stroke-width:4;stroke-linecap:round;stroke-linejoin:round;stroke-miterlimit:4;stroke-dasharray:none;stroke-opacity:1"
             d="m 69.9219,60.2344 c 0,-6.0899 -4.961,-11.0196 -11.0117,-11.0196 -6.1016,0 -11.0196,4.9297 -11.0196,11.0196 0,6.0898 4.918,10.9804 11.0196,10.9804 6.0507,0 11.0117,-4.8906 11.0117,-10.9804 z" /><path
             id="path70"
             style="fill:#000000;fill-opacity:1;fill-rule:nonzero;stroke:none"
             d="m 118.051,60.2344 c 0,-6.0899 -4.93,-11.0196 -10.981,-11.0196 -6.09,0 -11.0192,4.9297 -11.0192,11.0196 0,6.0898 4.9292,10.9804 11.0192,10.9804 6.051,0 10.981,-4.8906 10.981,-10.9804" /><path
             id="path72"
             style="fill:none;stroke:#ffffff;stroke-width:4;stroke-linecap:round;stroke-linejoin:round;stroke-miterlimit:4;stroke-dasharray:none;stroke-opacity:1"
             d="m 118.051,60.2344 c 0,-6.0899 -4.93,-11.0196 -10.981,-11.0196 -6.09,0 -11.0192,4.9297 -11.0192,11.0196 0,6.0898 4.9292,10.9804 11.0192,10.9804 6.051,0 10.981,-4.8906 10.981,-10.9804 z" /><path
             id="path74"
             style="fill:none;stroke:#ffffff;stroke-width:4;stroke-linecap:round;stroke-linejoin:round;stroke-miterlimit:4;stroke-dasharray:none;stroke-opacity:1"
             d="m 58.9102,221.254 48.1598,0" /><path
             id="path76"
             style="fill:none;stroke:#ffffff;stroke-width:4;stroke-linecap:round;stroke-linejoin:round;stroke-miterlimit:4;stroke-dasharray:none;stroke-opacity:1"
             d="m 58.9102,146.215 48.1598,0" /><path
             id="path78"
             style="fill:none;stroke:#ffffff;stroke-width:4;stroke-linecap:round;stroke-linejoin:round;stroke-miterlimit:4;stroke-dasharray:none;stroke-opacity:1"
             d="m 58.9102,71.2148 48.1598,0" /></g></g></g></g></svg>