<?xml version="1.0" encoding="UTF-8" standalone="no"?>
<svg
   xmlns:dc="http://purl.org/dc/elements/1.1/"
   xmlns:cc="http://creativecommons.org/ns#"
   xmlns:rdf="http://www.w3.org/1999/02/22-rdf-syntax-ns#"
   xmlns:svg="http://www.w3.org/2000/svg"
   xmlns="http://www.w3.org/2000/svg"
   viewBox="0 0 61.887501 52.950001"
   height="52.950001"
   width="61.887501"
   xml:space="preserve"
   version="1.1"
   id="svg2"><metadata
     id="metadata8"><rdf:RDF><cc:Work
         rdf:about=""><dc:format>image/svg+xml</dc:format><dc:type
           rdf:resource="http://purl.org/dc/dcmitype/StillImage" /></cc:Work></rdf:RDF></metadata><defs
     id="defs6"><clipPath
       id="clipPath18"
       clipPathUnits="userSpaceOnUse"><path
         id="path20"
         d="M 0,3 0,424 495,424 495,3 0,3 Z" /></clipPath></defs><g
     transform="matrix(1.25,0,0,-1.25,0,52.95)"
     id="g10"><g
       transform="scale(0.1,0.1)"
       id="g12"><g
         id="g14"><g
           clip-path="url(#clipPath18)"
           id="g16"><path
             id="path22"
             style="fill:#036998;fill-opacity:1;fill-rule:nonzero;stroke:none"
             d="m 206.992,389.902 45,31.465 25,0 -2.5,-23.965 -32.5,-30 -35,22.5" /><path
             id="path24"
             style="fill:none;stroke:#ffffff;stroke-width:3.99993992;stroke-linecap:butt;stroke-linejoin:miter;stroke-miterlimit:4;stroke-dasharray:none;stroke-opacity:1"
             d="m 206.992,389.902 45,31.465 25,0 -2.5,-23.965 -32.5,-30 -35,22.5 z" /><path
             id="path26"
             style="fill:#036998;fill-opacity:1;fill-rule:nonzero;stroke:none"
             d="m 39.4922,4.90234 317.5,0 0,172.5 -317.5,0 0,-172.5 z" /><path
             id="path28"
             style="fill:none;stroke:#ffffff;stroke-width:3.99993992;stroke-linecap:butt;stroke-linejoin:miter;stroke-miterlimit:4;stroke-dasharray:none;stroke-opacity:1"
             d="m 39.4922,4.90234 317.5,0 0,172.5 -317.5,0 0,-172.5 z" /><path
             id="path30"
             style="fill:#036998;fill-opacity:1;fill-rule:nonzero;stroke:none"
             d="m 356.992,177.402 112.5,107.5 0,-165 -112.5,-114.99966 0,172.49966" /><path
             id="path32"
             style="fill:none;stroke:#ffffff;stroke-width:3.99993992;stroke-linecap:butt;stroke-linejoin:miter;stroke-miterlimit:4;stroke-dasharray:none;stroke-opacity:1"
             d="m 356.992,177.402 112.5,107.5 0,-165 -112.5,-114.99966 0,172.49966 z" /><path
             id="path34"
             style="fill:#036998;fill-opacity:1;fill-rule:nonzero;stroke:none"
             d="m 415.742,39.4922 -23.75,0 -1.25,155.4098 18.75,7.5 11.25,-10 2.5,-131.2497 -7.5,-21.6601" /><path
             id="path36"
             style="fill:none;stroke:#ffffff;stroke-width:3.99993992;stroke-linecap:butt;stroke-linejoin:miter;stroke-miterlimit:4;stroke-dasharray:none;stroke-opacity:1"
             d="m 415.742,39.4922 -23.75,0 -1.25,155.4098 18.75,7.5 11.25,-10 2.5,-131.2497 -7.5,-21.6601 z" /><path
             id="path38"
             style="fill:#036998;fill-opacity:1;fill-rule:nonzero;stroke:none"
             d="m 409.492,202.402 6.25,-162.4997 42.5,48.75 -18.75,149.9997 -30,-36.25" /><path
             id="path40"
             style="fill:none;stroke:#ffffff;stroke-width:3.99993992;stroke-linecap:butt;stroke-linejoin:miter;stroke-miterlimit:4;stroke-dasharray:none;stroke-opacity:1"
             d="m 409.492,202.402 6.25,-162.4997 42.5,48.75 -18.75,149.9997 -30,-36.25 z" /><path
             id="path42"
             style="fill:#036998;fill-opacity:1;fill-rule:nonzero;stroke:none"
             d="m 381.992,164.902 -162.5,212.5 56.25,43.75 216.25,-136.25 -110,-120" /><path
             id="path44"
             style="fill:none;stroke:#ffffff;stroke-width:3.99993992;stroke-linecap:butt;stroke-linejoin:miter;stroke-miterlimit:4;stroke-dasharray:none;stroke-opacity:1"
             d="m 381.992,164.902 -162.5,212.5 56.25,43.75 216.25,-136.25 -110,-120 z" /><path
             id="path46"
             style="fill:#036998;fill-opacity:1;fill-rule:nonzero;stroke:none"
             d="m 406.992,254.902 25,25 -12.5,100 -22.5,-10 0,-90 10,-25" /><path
             id="path48"
             style="fill:none;stroke:#ffffff;stroke-width:3.99993992;stroke-linecap:butt;stroke-linejoin:miter;stroke-miterlimit:4;stroke-dasharray:none;stroke-opacity:1"
             d="m 406.992,254.902 25,25 -12.5,100 -22.5,-10 0,-90 10,-25 z" /><path
             id="path50"
             style="fill:#036998;fill-opacity:1;fill-rule:nonzero;stroke:none"
             d="m 369.492,289.902 37.5,-33.75 -2.5,118.75 -20,2.5 -15,-87.5" /><path
             id="path52"
             style="fill:none;stroke:#ffffff;stroke-width:3.99993992;stroke-linecap:butt;stroke-linejoin:miter;stroke-miterlimit:4;stroke-dasharray:none;stroke-opacity:1"
             d="m 369.492,289.902 37.5,-33.75 -2.5,118.75 -20,2.5 -15,-87.5 z" /><path
             id="path54"
             style="fill:#036998;fill-opacity:1;fill-rule:nonzero;stroke:none"
             d="m 384.492,377.402 18.75,-11.25 16.25,13.75 -18.75,6.563 -16.25,-9.063" /><path
             id="path56"
             style="fill:none;stroke:#ffffff;stroke-width:3.99993992;stroke-linecap:butt;stroke-linejoin:miter;stroke-miterlimit:4;stroke-dasharray:none;stroke-opacity:1"
             d="m 384.492,377.402 18.75,-11.25 16.25,13.75 -18.75,6.563 -16.25,-9.063 z" /><path
             id="path58"
             style="fill:#036998;fill-opacity:1;fill-rule:nonzero;stroke:none"
             d="m 234.492,389.902 150,-225 -379.99981,0 202.49981,225 27.5,0" /><path
             id="path60"
             style="fill:none;stroke:#ffffff;stroke-width:3.99993992;stroke-linecap:butt;stroke-linejoin:miter;stroke-miterlimit:4;stroke-dasharray:none;stroke-opacity:1"
             d="m 234.492,389.902 150,-225 -379.99981,0 202.49981,225 27.5,0 z" /><path
             id="path62"
             style="fill:#036998;fill-opacity:1;fill-rule:nonzero;stroke:none"
             d="m 105.898,80.5742 177,0 0,33.2852 -177,0 0,-33.2852 z" /><path
             id="path64"
             style="fill:none;stroke:#ffffff;stroke-width:3.99993992;stroke-linecap:butt;stroke-linejoin:miter;stroke-miterlimit:4;stroke-dasharray:none;stroke-opacity:1"
             d="m 105.898,80.5742 177,0 0,33.2852 -177,0 0,-33.2852 z" /><path
             id="path66"
             style="fill:#036998;fill-opacity:1;fill-rule:nonzero;stroke:none"
             d="m 228.691,95.0508 44.637,0" /><path
             id="path68"
             style="fill:none;stroke:#ffffff;stroke-width:3.99993992;stroke-linecap:butt;stroke-linejoin:miter;stroke-miterlimit:4;stroke-dasharray:none;stroke-opacity:1"
             d="m 228.691,95.0508 44.637,0" /><path
             id="path70"
             style="fill:#036998;fill-opacity:1;fill-rule:nonzero;stroke:none"
             d="m 228.691,96.6523 44.637,0" /><path
             id="path72"
             style="fill:none;stroke:#ffffff;stroke-width:3.99993992;stroke-linecap:butt;stroke-linejoin:miter;stroke-miterlimit:4;stroke-dasharray:none;stroke-opacity:1"
             d="m 228.691,96.6523 44.637,0" /><path
             id="path74"
             style="fill:#036998;fill-opacity:1;fill-rule:nonzero;stroke:none"
             d="m 313.477,112.969 0,29.765 -30.594,-29.004 0,-32.9487 30.594,32.1877" /><path
             id="path76"
             style="fill:none;stroke:#ffffff;stroke-width:3.99993992;stroke-linecap:butt;stroke-linejoin:miter;stroke-miterlimit:4;stroke-dasharray:none;stroke-opacity:1"
             d="m 313.477,112.969 0,29.765 -30.594,-29.004 0,-32.9487 30.594,32.1877 z" /><path
             id="path78"
             style="fill:#036998;fill-opacity:1;fill-rule:nonzero;stroke:none"
             d="m 251.465,53.5742 0,7.461 16.074,22.2461 0,-13.625 -16.074,-16.0821" /><path
             id="path80"
             style="fill:none;stroke:#ffffff;stroke-width:3.99993992;stroke-linecap:butt;stroke-linejoin:miter;stroke-miterlimit:4;stroke-dasharray:none;stroke-opacity:1"
             d="m 251.465,53.5742 0,7.461 16.074,22.2461 0,-13.625 -16.074,-16.0821 z" /><path
             id="path82"
             style="fill:#036998;fill-opacity:1;fill-rule:nonzero;stroke:none"
             d="m 109.668,53.5742 141.797,0 0,7.34375 -141.797,0 0,-7.34375 z" /><path
             id="path84"
             style="fill:none;stroke:#ffffff;stroke-width:3.99993992;stroke-linecap:butt;stroke-linejoin:miter;stroke-miterlimit:4;stroke-dasharray:none;stroke-opacity:1"
             d="m 109.668,53.5742 141.797,0 0,7.34375 -141.797,0 0,-7.34375 z" /><path
             id="path86"
             style="fill:#036998;fill-opacity:1;fill-rule:nonzero;stroke:none"
             d="m 251.465,60.918 -141.348,0 16.082,22.3633 141.34,0 -16.074,-22.3633" /><path
             id="path88"
             style="fill:none;stroke:#ffffff;stroke-width:3.99993992;stroke-linecap:butt;stroke-linejoin:miter;stroke-miterlimit:4;stroke-dasharray:none;stroke-opacity:1"
             d="m 251.465,60.918 -141.348,0 16.082,22.3633 141.34,0 -16.074,-22.3633 z" /><path
             id="path90"
             style="fill:#036998;fill-opacity:1;fill-rule:nonzero;stroke:none"
             d="m 312.559,141.836 -177.012,0 -29.649,-27.977 177,0 29.661,27.977" /><path
             id="path92"
             style="fill:none;stroke:#ffffff;stroke-width:3.99993992;stroke-linecap:butt;stroke-linejoin:miter;stroke-miterlimit:4;stroke-dasharray:none;stroke-opacity:1"
             d="m 312.559,141.836 -177.012,0 -29.649,-27.977 177,0 29.661,27.977 z" /><path
             id="path94"
             style="fill:#036998;fill-opacity:1;fill-rule:nonzero;stroke:none"
             d="m 279.258,141.719 -118.488,0 -19.852,-18.723 118.496,0 19.844,18.723" /><path
             id="path96"
             style="fill:none;stroke:#ffffff;stroke-width:3.99993992;stroke-linecap:butt;stroke-linejoin:miter;stroke-miterlimit:4;stroke-dasharray:none;stroke-opacity:1"
             d="m 279.258,141.719 -118.488,0 -19.852,-18.723 118.496,0 19.844,18.723 z" /><path
             id="path98"
             style="fill:#036998;fill-opacity:1;fill-rule:nonzero;stroke:none"
             d="m 137.559,130.324 122.043,0 0,89.4531 -122.043,0 0,-89.4531 z" /><path
             id="path100"
             style="fill:none;stroke:#ffffff;stroke-width:3.99993992;stroke-linecap:butt;stroke-linejoin:miter;stroke-miterlimit:4;stroke-dasharray:none;stroke-opacity:1"
             d="m 137.559,130.324 122.043,0 0,89.4531 -122.043,0 0,-89.4531 z" /><path
             id="path102"
             style="fill:#036998;fill-opacity:1;fill-rule:nonzero;stroke:none"
             d="m 147.859,200.156 c 0,8.977 9.309,10.305 9.309,10.305 0,0 71.836,0 80.488,0 11.297,0 10.965,-10.637 10.965,-10.637 0,0 0,-43.894 0,-50.215 0,-6.316 -8.641,-8.984 -8.641,-8.984 0,0 -73.496,0 -81.484,0 -7.969,0 -10.637,8.32 -10.637,8.32 l 0,51.211" /><path
             id="path104"
             style="fill:none;stroke:#ffffff;stroke-width:3.99993992;stroke-linecap:butt;stroke-linejoin:miter;stroke-miterlimit:4;stroke-dasharray:none;stroke-opacity:1"
             d="m 147.859,200.156 c 0,8.977 9.309,10.305 9.309,10.305 0,0 71.836,0 80.488,0 11.297,0 10.965,-10.637 10.965,-10.637 0,0 0,-43.894 0,-50.215 0,-6.316 -8.641,-8.984 -8.641,-8.984 0,0 -73.496,0 -81.484,0 -7.969,0 -10.637,8.32 -10.637,8.32 l 0,51.211 z" /><path
             id="path106"
             style="fill:#036998;fill-opacity:1;fill-rule:nonzero;stroke:none"
             d="m 280.051,239.063 -122.043,0 -20.449,-19.286 122.043,0 20.449,19.286" /><path
             id="path108"
             style="fill:none;stroke:#ffffff;stroke-width:3.99993992;stroke-linecap:butt;stroke-linejoin:miter;stroke-miterlimit:4;stroke-dasharray:none;stroke-opacity:1"
             d="m 280.051,239.063 -122.043,0 -20.449,-19.286 122.043,0 20.449,19.286 z" /><path
             id="path110"
             style="fill:#036998;fill-opacity:1;fill-rule:nonzero;stroke:none"
             d="m 280.059,149.324 0,89.778 -20.254,-19.161 0,-89.773 20.254,19.156" /><path
             id="path112"
             style="fill:none;stroke:#ffffff;stroke-width:3.99993992;stroke-linecap:butt;stroke-linejoin:miter;stroke-miterlimit:4;stroke-dasharray:none;stroke-opacity:1"
             d="m 280.059,149.324 0,89.778 -20.254,-19.161 0,-89.773 20.254,19.156 z" /></g></g></g></g></svg>