<?xml version="1.0" encoding="UTF-8" standalone="no"?>
<svg
   xmlns:dc="http://purl.org/dc/elements/1.1/"
   xmlns:cc="http://creativecommons.org/ns#"
   xmlns:rdf="http://www.w3.org/1999/02/22-rdf-syntax-ns#"
   xmlns:svg="http://www.w3.org/2000/svg"
   xmlns="http://www.w3.org/2000/svg"
   viewBox="0 0 62.5 55"
   height="55"
   width="62.5"
   xml:space="preserve"
   version="1.1"
   id="svg2"><metadata
     id="metadata8"><rdf:RDF><cc:Work
         rdf:about=""><dc:format>image/svg+xml</dc:format><dc:type
           rdf:resource="http://purl.org/dc/dcmitype/StillImage" /></cc:Work></rdf:RDF></metadata><defs
     id="defs6"><clipPath
       id="clipPath18"
       clipPathUnits="userSpaceOnUse"><path
         id="path20"
         d="M 0,10 0,431 495,431 495,10 0,10 Z" /></clipPath></defs><g
     transform="matrix(1.25,0,0,-1.25,0,55)"
     id="g10"><g
       transform="scale(0.1,0.1)"
       id="g12"><g
         id="g14"><g
           clip-path="url(#clipPath18)"
           id="g16"><path
             id="path22"
             style="fill:#036998;fill-opacity:1;fill-rule:nonzero;stroke:none"
             d="m 206.988,396.918 45,31.441 25,0 -2.5,-23.941 -32.5,-30 -35,22.5" /><path
             id="path24"
             style="fill:none;stroke:#ffffff;stroke-width:3.99993992;stroke-linecap:butt;stroke-linejoin:miter;stroke-miterlimit:4;stroke-dasharray:none;stroke-opacity:1"
             d="m 206.988,396.918 45,31.441 25,0 -2.5,-23.941 -32.5,-30 -35,22.5 z" /><path
             id="path26"
             style="fill:#036998;fill-opacity:1;fill-rule:nonzero;stroke:none"
             d="m 39.4883,11.918 317.5,0 0,172.5 -317.5,0 0,-172.5 z" /><path
             id="path28"
             style="fill:none;stroke:#ffffff;stroke-width:3.99993992;stroke-linecap:butt;stroke-linejoin:miter;stroke-miterlimit:4;stroke-dasharray:none;stroke-opacity:1"
             d="m 39.4883,11.918 317.5,0 0,172.5 -317.5,0 0,-172.5 z" /><path
             id="path30"
             style="fill:#036998;fill-opacity:1;fill-rule:nonzero;stroke:none"
             d="m 356.988,184.418 112.5,107.5 0,-165 -112.5,-115 0,172.5" /><path
             id="path32"
             style="fill:none;stroke:#ffffff;stroke-width:3.99993992;stroke-linecap:butt;stroke-linejoin:miter;stroke-miterlimit:4;stroke-dasharray:none;stroke-opacity:1"
             d="m 356.988,184.418 112.5,107.5 0,-165 -112.5,-115 0,172.5 z" /><path
             id="path34"
             style="fill:#036998;fill-opacity:1;fill-rule:nonzero;stroke:none"
             d="m 415.738,46.4883 -23.75,0 -1.25,155.4297 18.75,7.5 11.25,-10 2.5,-131.25 -7.5,-21.6797" /><path
             id="path36"
             style="fill:none;stroke:#ffffff;stroke-width:3.99993992;stroke-linecap:butt;stroke-linejoin:miter;stroke-miterlimit:4;stroke-dasharray:none;stroke-opacity:1"
             d="m 415.738,46.4883 -23.75,0 -1.25,155.4297 18.75,7.5 11.25,-10 2.5,-131.25 -7.5,-21.6797 z" /><path
             id="path38"
             style="fill:#036998;fill-opacity:1;fill-rule:nonzero;stroke:none"
             d="m 409.488,209.418 6.25,-162.5 42.5,48.75 -18.75,150 -30,-36.25" /><path
             id="path40"
             style="fill:none;stroke:#ffffff;stroke-width:3.99993992;stroke-linecap:butt;stroke-linejoin:miter;stroke-miterlimit:4;stroke-dasharray:none;stroke-opacity:1"
             d="m 409.488,209.418 6.25,-162.5 42.5,48.75 -18.75,150 -30,-36.25 z" /><path
             id="path42"
             style="fill:#036998;fill-opacity:1;fill-rule:nonzero;stroke:none"
             d="m 381.988,171.918 -162.5,212.5 56.25,43.75 216.25,-136.25 -110,-120" /><path
             id="path44"
             style="fill:none;stroke:#ffffff;stroke-width:3.99993992;stroke-linecap:butt;stroke-linejoin:miter;stroke-miterlimit:4;stroke-dasharray:none;stroke-opacity:1"
             d="m 381.988,171.918 -162.5,212.5 56.25,43.75 216.25,-136.25 -110,-120 z" /><path
             id="path46"
             style="fill:#036998;fill-opacity:1;fill-rule:nonzero;stroke:none"
             d="m 406.988,261.918 25,25 -12.5,100 -22.5,-10 0,-90 10,-25" /><path
             id="path48"
             style="fill:none;stroke:#ffffff;stroke-width:3.99993992;stroke-linecap:butt;stroke-linejoin:miter;stroke-miterlimit:4;stroke-dasharray:none;stroke-opacity:1"
             d="m 406.988,261.918 25,25 -12.5,100 -22.5,-10 0,-90 10,-25 z" /><path
             id="path50"
             style="fill:#036998;fill-opacity:1;fill-rule:nonzero;stroke:none"
             d="m 369.488,296.918 37.5,-33.75 -2.5,118.75 -20,2.5 -15,-87.5" /><path
             id="path52"
             style="fill:none;stroke:#ffffff;stroke-width:3.99993992;stroke-linecap:butt;stroke-linejoin:miter;stroke-miterlimit:4;stroke-dasharray:none;stroke-opacity:1"
             d="m 369.488,296.918 37.5,-33.75 -2.5,118.75 -20,2.5 -15,-87.5 z" /><path
             id="path54"
             style="fill:#036998;fill-opacity:1;fill-rule:nonzero;stroke:none"
             d="m 384.488,384.418 18.75,-11.25 16.25,13.75 -18.75,6.52 -16.25,-9.02" /><path
             id="path56"
             style="fill:none;stroke:#ffffff;stroke-width:3.99993992;stroke-linecap:butt;stroke-linejoin:miter;stroke-miterlimit:4;stroke-dasharray:none;stroke-opacity:1"
             d="m 384.488,384.418 18.75,-11.25 16.25,13.75 -18.75,6.52 -16.25,-9.02 z" /><path
             id="path58"
             style="fill:#036998;fill-opacity:1;fill-rule:nonzero;stroke:none"
             d="m 234.488,396.918 150,-225 -379.99972,0 202.49972,225 27.5,0" /><path
             id="path60"
             style="fill:none;stroke:#ffffff;stroke-width:3.99993992;stroke-linecap:butt;stroke-linejoin:miter;stroke-miterlimit:4;stroke-dasharray:none;stroke-opacity:1"
             d="m 234.488,396.918 150,-225 -379.99972,0 202.49972,225 27.5,0 z" /><path
             id="path62"
             style="fill:#036998;fill-opacity:1;fill-rule:nonzero;stroke:none"
             d="m 305.27,168.68 c 0,-21.723 -45.309,-39.344 -101.168,-39.344 -55.864,0 -101.172,17.621 -101.172,39.344 l 0,-57.621 c 0,-21.7231 45.308,-39.3402 101.172,-39.3402 55.859,0 101.168,17.6171 101.168,39.3402 l 0,57.621" /><path
             id="path64"
             style="fill:none;stroke:#ffffff;stroke-width:3.99993992;stroke-linecap:butt;stroke-linejoin:miter;stroke-miterlimit:4;stroke-dasharray:none;stroke-opacity:1"
             d="m 305.27,168.68 c 0,-21.723 -45.309,-39.344 -101.168,-39.344 -55.864,0 -101.172,17.621 -101.172,39.344 l 0,-57.621 c 0,-21.7231 45.308,-39.3402 101.172,-39.3402 55.859,0 101.168,17.6171 101.168,39.3402 l 0,57.621 z" /><path
             id="path66"
             style="fill:#036998;fill-opacity:1;fill-rule:nonzero;stroke:none"
             d="m 204.102,129.336 c 55.859,0 101.168,17.621 101.168,39.344 0,21.75 -45.309,39.328 -101.168,39.328 -55.864,0 -101.172,-17.578 -101.172,-39.328 0,-21.723 45.308,-39.344 101.172,-39.344" /><path
             id="path68"
             style="fill:none;stroke:#ffffff;stroke-width:3.99993992;stroke-linecap:butt;stroke-linejoin:miter;stroke-miterlimit:4;stroke-dasharray:none;stroke-opacity:1"
             d="m 204.102,129.336 c 55.859,0 101.168,17.621 101.168,39.344 0,21.75 -45.309,39.328 -101.168,39.328 -55.864,0 -101.172,-17.578 -101.172,-39.328 0,-21.723 45.308,-39.344 101.172,-39.344 z" /><path
             id="path70"
             style="fill:#ffffff;fill-opacity:1;fill-rule:nonzero;stroke:none"
             d="m 181.02,184.066 8.359,-12.539 -31.609,-7.308 6.921,5.777 -48.832,8.32 12.262,9.18 47.078,-7.957 5.821,4.527" /><path
             id="path72"
             style="fill:#ffffff;fill-opacity:1;fill-rule:nonzero;stroke:none"
             d="m 225.43,153.68 -5.66,12.929 28.468,5.7 -4.957,-4.45 47.5,-8.089 -11.402,-9.141 -47.188,8.867 -6.761,-5.816" /><path
             id="path74"
             style="fill:#ffffff;fill-opacity:1;fill-rule:nonzero;stroke:none"
             d="m 209.879,190.898 31.922,8.75 0.347,-13.671 -7.968,1.519 -15.59,-12.93 -14.84,2.192 16.051,12.621 -9.922,1.519" /><path
             id="path76"
             style="fill:#ffffff;fill-opacity:1;fill-rule:nonzero;stroke:none"
             d="m 196.211,141.918 -30.391,-5.711 -1.129,14.07 8.707,-1.918 16.723,14.297 14.801,-2.5 -17.852,-15.59 9.141,-2.648" /></g></g></g></g></svg>