<?xml version="1.0" encoding="UTF-8" standalone="no"?>
<svg
   xmlns:dc="http://purl.org/dc/elements/1.1/"
   xmlns:cc="http://creativecommons.org/ns#"
   xmlns:rdf="http://www.w3.org/1999/02/22-rdf-syntax-ns#"
   xmlns:svg="http://www.w3.org/2000/svg"
   xmlns="http://www.w3.org/2000/svg"
   viewBox="0 0 61.887501 52.950001"
   height="52.950001"
   width="61.887501"
   xml:space="preserve"
   version="1.1"
   id="svg2"><metadata
     id="metadata8"><rdf:RDF><cc:Work
         rdf:about=""><dc:format>image/svg+xml</dc:format><dc:type
           rdf:resource="http://purl.org/dc/dcmitype/StillImage" /></cc:Work></rdf:RDF></metadata><defs
     id="defs6"><clipPath
       id="clipPath18"
       clipPathUnits="userSpaceOnUse"><path
         id="path20"
         d="M 0,3 0,424 495,424 495,3 0,3 Z" /></clipPath></defs><g
     transform="matrix(1.25,0,0,-1.25,0,52.95)"
     id="g10"><g
       transform="scale(0.1,0.1)"
       id="g12"><g
         id="g14"><g
           clip-path="url(#clipPath18)"
           id="g16"><path
             id="path22"
             style="fill:#036998;fill-opacity:1;fill-rule:nonzero;stroke:none"
             d="m 206.992,389.898 45,31.454 25,0 -2.5,-23.954 -32.5,-30 -35,22.5" /><path
             id="path24"
             style="fill:none;stroke:#ffffff;stroke-width:3.99993992;stroke-linecap:butt;stroke-linejoin:miter;stroke-miterlimit:4;stroke-dasharray:none;stroke-opacity:1"
             d="m 206.992,389.898 45,31.454 25,0 -2.5,-23.954 -32.5,-30 -35,22.5 z" /><path
             id="path26"
             style="fill:#036998;fill-opacity:1;fill-rule:nonzero;stroke:none"
             d="m 39.4922,4.90234 317.5,0 0,172.496 -317.5,0 0,-172.496 z" /><path
             id="path28"
             style="fill:none;stroke:#ffffff;stroke-width:3.99993992;stroke-linecap:butt;stroke-linejoin:miter;stroke-miterlimit:4;stroke-dasharray:none;stroke-opacity:1"
             d="m 39.4922,4.90234 317.5,0 0,172.496 -317.5,0 0,-172.496 z" /><path
             id="path30"
             style="fill:#036998;fill-opacity:1;fill-rule:nonzero;stroke:none"
             d="m 356.992,177.398 112.5,107.5 0,-164.996 -112.5,-114.99966 0,172.49566" /><path
             id="path32"
             style="fill:none;stroke:#ffffff;stroke-width:3.99993992;stroke-linecap:butt;stroke-linejoin:miter;stroke-miterlimit:4;stroke-dasharray:none;stroke-opacity:1"
             d="m 356.992,177.398 112.5,107.5 0,-164.996 -112.5,-114.99966 0,172.49566 z" /><path
             id="path34"
             style="fill:#036998;fill-opacity:1;fill-rule:nonzero;stroke:none"
             d="m 415.742,39.4727 -23.75,0 -1.25,155.4253 18.75,7.5 11.25,-10 2.5,-131.2457 -7.5,-21.6796" /><path
             id="path36"
             style="fill:none;stroke:#ffffff;stroke-width:3.99993992;stroke-linecap:butt;stroke-linejoin:miter;stroke-miterlimit:4;stroke-dasharray:none;stroke-opacity:1"
             d="m 415.742,39.4727 -23.75,0 -1.25,155.4253 18.75,7.5 11.25,-10 2.5,-131.2457 -7.5,-21.6796 z" /><path
             id="path38"
             style="fill:#036998;fill-opacity:1;fill-rule:nonzero;stroke:none"
             d="m 409.492,202.398 6.25,-162.4957 42.5,48.75 -18.75,149.9957 -30,-36.25" /><path
             id="path40"
             style="fill:none;stroke:#ffffff;stroke-width:3.99993992;stroke-linecap:butt;stroke-linejoin:miter;stroke-miterlimit:4;stroke-dasharray:none;stroke-opacity:1"
             d="m 409.492,202.398 6.25,-162.4957 42.5,48.75 -18.75,149.9957 -30,-36.25 z" /><path
             id="path42"
             style="fill:#036998;fill-opacity:1;fill-rule:nonzero;stroke:none"
             d="m 381.992,164.898 -162.5,212.5 56.25,43.75 216.25,-136.25 -110,-120" /><path
             id="path44"
             style="fill:none;stroke:#ffffff;stroke-width:3.99993992;stroke-linecap:butt;stroke-linejoin:miter;stroke-miterlimit:4;stroke-dasharray:none;stroke-opacity:1"
             d="m 381.992,164.898 -162.5,212.5 56.25,43.75 216.25,-136.25 -110,-120 z" /><path
             id="path46"
             style="fill:#036998;fill-opacity:1;fill-rule:nonzero;stroke:none"
             d="m 406.992,254.898 25,25 -12.5,100 -22.5,-10 0,-90 10,-25" /><path
             id="path48"
             style="fill:none;stroke:#ffffff;stroke-width:3.99993992;stroke-linecap:butt;stroke-linejoin:miter;stroke-miterlimit:4;stroke-dasharray:none;stroke-opacity:1"
             d="m 406.992,254.898 25,25 -12.5,100 -22.5,-10 0,-90 10,-25 z" /><path
             id="path50"
             style="fill:#036998;fill-opacity:1;fill-rule:nonzero;stroke:none"
             d="m 369.492,289.898 37.5,-33.75 -2.5,118.75 -20,2.5 -15,-87.5" /><path
             id="path52"
             style="fill:none;stroke:#ffffff;stroke-width:3.99993992;stroke-linecap:butt;stroke-linejoin:miter;stroke-miterlimit:4;stroke-dasharray:none;stroke-opacity:1"
             d="m 369.492,289.898 37.5,-33.75 -2.5,118.75 -20,2.5 -15,-87.5 z" /><path
             id="path54"
             style="fill:#036998;fill-opacity:1;fill-rule:nonzero;stroke:none"
             d="m 384.492,377.398 18.75,-11.25 16.25,13.75 -18.75,6.559 -16.25,-9.059" /><path
             id="path56"
             style="fill:none;stroke:#ffffff;stroke-width:3.99993992;stroke-linecap:butt;stroke-linejoin:miter;stroke-miterlimit:4;stroke-dasharray:none;stroke-opacity:1"
             d="m 384.492,377.398 18.75,-11.25 16.25,13.75 -18.75,6.559 -16.25,-9.059 z" /><path
             id="path58"
             style="fill:#036998;fill-opacity:1;fill-rule:nonzero;stroke:none"
             d="m 234.492,389.898 150,-225 -379.99981,0 202.49981,225 27.5,0" /><path
             id="path60"
             style="fill:none;stroke:#ffffff;stroke-width:3.99993992;stroke-linecap:butt;stroke-linejoin:miter;stroke-miterlimit:4;stroke-dasharray:none;stroke-opacity:1"
             d="m 234.492,389.898 150,-225 -379.99981,0 202.49981,225 27.5,0 z" /><path
             id="path62"
             style="fill:#036998;fill-opacity:1;fill-rule:nonzero;stroke:none"
             d="m 305.273,161.691 c 0,-21.73 -45.293,-39.347 -101.152,-39.347 -55.879,0 -101.172,17.617 -101.172,39.347 l 0,-57.628 c 0,-21.7192 45.293,-39.3364 101.172,-39.3364 55.859,0 101.152,17.6172 101.152,39.3364 l 0,57.628" /><path
             id="path64"
             style="fill:none;stroke:#ffffff;stroke-width:3.99993992;stroke-linecap:butt;stroke-linejoin:miter;stroke-miterlimit:4;stroke-dasharray:none;stroke-opacity:1"
             d="m 305.273,161.691 c 0,-21.73 -45.293,-39.347 -101.152,-39.347 -55.879,0 -101.172,17.617 -101.172,39.347 l 0,-57.628 c 0,-21.7192 45.293,-39.3364 101.172,-39.3364 55.859,0 101.152,17.6172 101.152,39.3364 l 0,57.628 z" /><path
             id="path66"
             style="fill:#036998;fill-opacity:1;fill-rule:nonzero;stroke:none"
             d="m 204.121,122.344 c 55.859,0 101.152,17.617 101.152,39.347 0,21.723 -45.293,39.336 -101.152,39.336 -55.879,0 -101.172,-17.613 -101.172,-39.336 0,-21.73 45.293,-39.347 101.172,-39.347" /><path
             id="path68"
             style="fill:none;stroke:#ffffff;stroke-width:3.99993992;stroke-linecap:butt;stroke-linejoin:miter;stroke-miterlimit:4;stroke-dasharray:none;stroke-opacity:1"
             d="m 204.121,122.344 c 55.859,0 101.152,17.617 101.152,39.347 0,21.723 -45.293,39.336 -101.152,39.336 -55.879,0 -101.172,-17.613 -101.172,-39.336 0,-21.73 45.293,-39.347 101.172,-39.347 z" /><path
             id="path70"
             style="fill:#ffffff;fill-opacity:1;fill-rule:nonzero;stroke:none"
             d="m 181.016,177.07 8.359,-12.535 -31.594,-7.301 6.907,5.754 -48.809,8.34 12.246,9.18 47.09,-7.981 5.801,4.543" /><path
             id="path72"
             style="fill:#ffffff;fill-opacity:1;fill-rule:nonzero;stroke:none"
             d="m 225.449,146.684 -5.691,12.918 28.484,5.695 -4.941,-4.434 47.48,-8.105 -11.386,-9.113 -47.2,8.859 -6.746,-5.82" /><path
             id="path74"
             style="fill:#ffffff;fill-opacity:1;fill-rule:nonzero;stroke:none"
             d="m 209.883,183.906 31.902,8.742 0.383,-13.679 -7.98,1.519 -15.575,-12.914 -14.851,2.168 16.062,12.637 -9.941,1.527" /><path
             id="path76"
             style="fill:#ffffff;fill-opacity:1;fill-rule:nonzero;stroke:none"
             d="m 196.211,134.902 -30.391,-5.691 -1.14,14.055 8.738,-1.899 16.719,14.281 14.804,-2.507 -17.851,-15.575 9.121,-2.664" /></g></g></g></g></svg>