<svg xmlns="http://www.w3.org/2000/svg" viewBox="0 0 62.5 55" height="55" width="62.5"><defs><clipPath id="a"><path d="M0 10v421h495V10H0z"/></clipPath></defs><g clip-path="url(#a)" transform="matrix(.13 0 0 -.13 0 55)"><path d="M206.988 396.918l45 31.441h25l-2.5-23.941-32.5-30-35 22.5" fill="#036998"/><path d="M206.988 396.918l45 31.441h25l-2.5-23.941-32.5-30-35 22.5z" fill="none" stroke="#fff" stroke-width="4"/><path d="M39.488 11.918h317.5v172.5h-317.5v-172.5z" fill="#036998"/><path d="M39.488 11.918h317.5v172.5h-317.5v-172.5z" fill="none" stroke="#fff" stroke-width="4"/><path d="M356.988 184.418l112.5 107.5v-165l-112.5-115v172.5" fill="#036998"/><path d="M356.988 184.418l112.5 107.5v-165l-112.5-115v172.5z" fill="none" stroke="#fff" stroke-width="4"/><path d="M415.738 46.488h-23.75l-1.25 155.43 18.75 7.5 11.25-10 2.5-131.25-7.5-21.68" fill="#036998"/><path d="M415.738 46.488h-23.75l-1.25 155.43 18.75 7.5 11.25-10 2.5-131.25-7.5-21.68z" fill="none" stroke="#fff" stroke-width="4"/><path d="M409.488 209.418l6.25-162.5 42.5 48.75-18.75 150-30-36.25" fill="#036998"/><path d="M409.488 209.418l6.25-162.5 42.5 48.75-18.75 150-30-36.25z" fill="none" stroke="#fff" stroke-width="4"/><path d="M381.988 171.918l-162.5 212.5 56.25 43.75 216.25-136.25-110-120" fill="#036998"/><path d="M381.988 171.918l-162.5 212.5 56.25 43.75 216.25-136.25-110-120z" fill="none" stroke="#fff" stroke-width="4"/><path d="M406.988 261.918l25 25-12.5 100-22.5-10v-90l10-25" fill="#036998"/><path d="M406.988 261.918l25 25-12.5 100-22.5-10v-90l10-25z" fill="none" stroke="#fff" stroke-width="4"/><path d="M369.488 296.918l37.5-33.75-2.5 118.75-20 2.5-15-87.5" fill="#036998"/><path d="M369.488 296.918l37.5-33.75-2.5 118.75-20 2.5-15-87.5z" fill="none" stroke="#fff" stroke-width="4"/><path d="M384.488 384.418l18.75-11.25 16.25 13.75-18.75 6.52-16.25-9.02" fill="#036998"/><path d="M384.488 384.418l18.75-11.25 16.25 13.75-18.75 6.52-16.25-9.02z" fill="none" stroke="#fff" stroke-width="4"/><path d="M234.488 396.918l150-225h-380l202.5 225h27.5" fill="#036998"/><path d="M234.488 396.918l150-225h-380l202.5 225h27.5z" fill="none" stroke="#fff" stroke-width="4"/><path d="M305.27 168.68c0-21.723-45.309-39.344-101.168-39.344-55.864 0-101.172 17.621-101.172 39.344v-57.621c0-21.723 45.308-39.34 101.172-39.34 55.859 0 101.168 17.617 101.168 39.34v57.621" fill="#036998"/><path d="M305.27 168.68c0-21.723-45.309-39.344-101.168-39.344-55.864 0-101.172 17.621-101.172 39.344v-57.621c0-21.723 45.308-39.34 101.172-39.34 55.859 0 101.168 17.617 101.168 39.34v57.621z" fill="none" stroke="#fff" stroke-width="4"/><path d="M204.102 129.336c55.859 0 101.168 17.621 101.168 39.344 0 21.75-45.309 39.328-101.168 39.328-55.864 0-101.172-17.578-101.172-39.328 0-21.723 45.308-39.344 101.172-39.344" fill="#036998"/><path d="M204.102 129.336c55.859 0 101.168 17.621 101.168 39.344 0 21.75-45.309 39.328-101.168 39.328-55.864 0-101.172-17.578-101.172-39.328 0-21.723 45.308-39.344 101.172-39.344z" fill="none" stroke="#fff" stroke-width="4"/><path d="M181.02 184.066l8.359-12.539-31.609-7.308 6.921 5.777-48.832 8.32 12.262 9.18 47.078-7.957 5.821 4.527M225.43 153.68l-5.66 12.929 28.468 5.7-4.957-4.45 47.5-8.089-11.402-9.141-47.188 8.867-6.761-5.816M209.879 190.898l31.922 8.75.347-13.671-7.968 1.519-15.59-12.93-14.84 2.192 16.051 12.621-9.922 1.519M196.211 141.918l-30.391-5.711-1.129 14.07 8.707-1.918 16.723 14.297 14.801-2.5-17.852-15.59 9.141-2.648" fill="#fff"/></g></svg>