<?xml version="1.0" encoding="UTF-8" standalone="no"?>
<svg
   xmlns:dc="http://purl.org/dc/elements/1.1/"
   xmlns:cc="http://creativecommons.org/ns#"
   xmlns:rdf="http://www.w3.org/1999/02/22-rdf-syntax-ns#"
   xmlns:svg="http://www.w3.org/2000/svg"
   xmlns="http://www.w3.org/2000/svg"
   viewBox="0 0 36.25 32.5"
   height="32.5"
   width="36.25"
   xml:space="preserve"
   version="1.1"
   id="svg2"><metadata
     id="metadata8"><rdf:RDF><cc:Work
         rdf:about=""><dc:format>image/svg+xml</dc:format><dc:type
           rdf:resource="http://purl.org/dc/dcmitype/StillImage" /></cc:Work></rdf:RDF></metadata><defs
     id="defs6"><clipPath
       id="clipPath18"
       clipPathUnits="userSpaceOnUse"><path
         id="path20"
         d="M 0,10 0,260 290,260 290,10 0,10 Z" /></clipPath></defs><g
     transform="matrix(1.25,0,0,-1.25,0,32.5)"
     id="g10"><g
       transform="scale(0.1,0.1)"
       id="g12"><g
         id="g14"><g
           clip-path="url(#clipPath18)"
           id="g16"><path
             id="path22"
             style="fill:#036998;fill-opacity:1;fill-rule:nonzero;stroke:none"
             d="M 159.18,219.727 90,222.148 56.1289,186.059 77.0703,169.027 95.2305,188.746 137.148,187.309 91.3711,127.77 107.73,112.617 81.4492,77.457 38.4414,78.9492 7.07031,64.918 28.7891,19.8789 54.9609,18.9883 54.7305,28.9063 41.3711,29.3398 42.0703,49.1367 106.02,46.918 141.879,90.4688 228.75,9.99609 272.969,59.6875 262.27,69.957 243.52,49.6875 l -70.43,67.0705 29.84,38.551 26.761,-18.391 61.559,-2.148 0.859,24.41 -44.14,1.558 -88.789,58.989" /><path
             id="path24"
             style="fill:#036998;fill-opacity:1;fill-rule:nonzero;stroke:none"
             d="m 188.672,259.648 51.168,-1.761 -1.91,-54.688 -51.168,1.758 1.91,54.691" /><path
             id="path26"
             style="fill:#036998;fill-opacity:1;fill-rule:nonzero;stroke:none"
             d="M 34.0195,194.449 92.4219,145.43 58.3594,104.879 0,153.867 34.0195,194.449" /></g></g></g></g></svg>