<?xml version="1.0" encoding="UTF-8" standalone="no"?>
<svg
   xmlns:dc="http://purl.org/dc/elements/1.1/"
   xmlns:cc="http://creativecommons.org/ns#"
   xmlns:rdf="http://www.w3.org/1999/02/22-rdf-syntax-ns#"
   xmlns:svg="http://www.w3.org/2000/svg"
   xmlns="http://www.w3.org/2000/svg"
   viewBox="0 0 62.5 55"
   height="55"
   width="62.5"
   xml:space="preserve"
   version="1.1"
   id="svg2"><metadata
     id="metadata8"><rdf:RDF><cc:Work
         rdf:about=""><dc:format>image/svg+xml</dc:format><dc:type
           rdf:resource="http://purl.org/dc/dcmitype/StillImage" /></cc:Work></rdf:RDF></metadata><defs
     id="defs6"><clipPath
       id="clipPath18"
       clipPathUnits="userSpaceOnUse"><path
         id="path20"
         d="M 0,10 0,431 495,431 495,10 0,10 Z" /></clipPath></defs><g
     transform="matrix(1.25,0,0,-1.25,0,55)"
     id="g10"><g
       transform="scale(0.1,0.1)"
       id="g12"><g
         id="g14"><g
           clip-path="url(#clipPath18)"
           id="g16"><path
             id="path22"
             style="fill:#036998;fill-opacity:1;fill-rule:nonzero;stroke:none"
             d="m 206.988,396.922 45,31.441 25,0 -2.5,-23.941 -32.5,-30 -35,22.5" /><path
             id="path24"
             style="fill:none;stroke:#ffffff;stroke-width:3.99993992;stroke-linecap:butt;stroke-linejoin:miter;stroke-miterlimit:4;stroke-dasharray:none;stroke-opacity:1"
             d="m 206.988,396.922 45,31.441 25,0 -2.5,-23.941 -32.5,-30 -35,22.5 z" /><path
             id="path26"
             style="fill:#036998;fill-opacity:1;fill-rule:nonzero;stroke:none"
             d="m 39.4883,11.9219 317.5,0 0,172.5 -317.5,0 0,-172.5 z" /><path
             id="path28"
             style="fill:none;stroke:#ffffff;stroke-width:3.99993992;stroke-linecap:butt;stroke-linejoin:miter;stroke-miterlimit:4;stroke-dasharray:none;stroke-opacity:1"
             d="m 39.4883,11.9219 317.5,0 0,172.5 -317.5,0 0,-172.5 z" /><path
             id="path30"
             style="fill:#036998;fill-opacity:1;fill-rule:nonzero;stroke:none"
             d="m 356.988,184.422 112.5,107.5 0,-165 -112.5,-115.0001 0,172.5001" /><path
             id="path32"
             style="fill:none;stroke:#ffffff;stroke-width:3.99993992;stroke-linecap:butt;stroke-linejoin:miter;stroke-miterlimit:4;stroke-dasharray:none;stroke-opacity:1"
             d="m 356.988,184.422 112.5,107.5 0,-165 -112.5,-115.0001 0,172.5001 z" /><path
             id="path34"
             style="fill:#036998;fill-opacity:1;fill-rule:nonzero;stroke:none"
             d="m 415.738,46.4922 -23.75,0 -1.25,155.4298 18.75,7.5 11.25,-10 2.5,-131.2501 -7.5,-21.6797" /><path
             id="path36"
             style="fill:none;stroke:#ffffff;stroke-width:3.99993992;stroke-linecap:butt;stroke-linejoin:miter;stroke-miterlimit:4;stroke-dasharray:none;stroke-opacity:1"
             d="m 415.738,46.4922 -23.75,0 -1.25,155.4298 18.75,7.5 11.25,-10 2.5,-131.2501 -7.5,-21.6797 z" /><path
             id="path38"
             style="fill:#036998;fill-opacity:1;fill-rule:nonzero;stroke:none"
             d="m 409.488,209.422 6.25,-162.5001 42.5,48.75 -18.75,150.0001 -30,-36.25" /><path
             id="path40"
             style="fill:none;stroke:#ffffff;stroke-width:3.99993992;stroke-linecap:butt;stroke-linejoin:miter;stroke-miterlimit:4;stroke-dasharray:none;stroke-opacity:1"
             d="m 409.488,209.422 6.25,-162.5001 42.5,48.75 -18.75,150.0001 -30,-36.25 z" /><path
             id="path42"
             style="fill:#036998;fill-opacity:1;fill-rule:nonzero;stroke:none"
             d="m 381.988,171.922 -162.5,212.5 56.25,43.75 216.25,-136.25 -110,-120" /><path
             id="path44"
             style="fill:none;stroke:#ffffff;stroke-width:3.99993992;stroke-linecap:butt;stroke-linejoin:miter;stroke-miterlimit:4;stroke-dasharray:none;stroke-opacity:1"
             d="m 381.988,171.922 -162.5,212.5 56.25,43.75 216.25,-136.25 -110,-120 z" /><path
             id="path46"
             style="fill:#036998;fill-opacity:1;fill-rule:nonzero;stroke:none"
             d="m 406.988,261.922 25,25 -12.5,100 -22.5,-10 0,-90 10,-25" /><path
             id="path48"
             style="fill:none;stroke:#ffffff;stroke-width:3.99993992;stroke-linecap:butt;stroke-linejoin:miter;stroke-miterlimit:4;stroke-dasharray:none;stroke-opacity:1"
             d="m 406.988,261.922 25,25 -12.5,100 -22.5,-10 0,-90 10,-25 z" /><path
             id="path50"
             style="fill:#036998;fill-opacity:1;fill-rule:nonzero;stroke:none"
             d="m 369.488,296.922 37.5,-33.75 -2.5,118.75 -20,2.5 -15,-87.5" /><path
             id="path52"
             style="fill:none;stroke:#ffffff;stroke-width:3.99993992;stroke-linecap:butt;stroke-linejoin:miter;stroke-miterlimit:4;stroke-dasharray:none;stroke-opacity:1"
             d="m 369.488,296.922 37.5,-33.75 -2.5,118.75 -20,2.5 -15,-87.5 z" /><path
             id="path54"
             style="fill:#036998;fill-opacity:1;fill-rule:nonzero;stroke:none"
             d="m 384.488,384.422 18.75,-11.25 16.25,13.75 -18.75,6.558 -16.25,-9.058" /><path
             id="path56"
             style="fill:none;stroke:#ffffff;stroke-width:3.99993992;stroke-linecap:butt;stroke-linejoin:miter;stroke-miterlimit:4;stroke-dasharray:none;stroke-opacity:1"
             d="m 384.488,384.422 18.75,-11.25 16.25,13.75 -18.75,6.558 -16.25,-9.058 z" /><path
             id="path58"
             style="fill:#036998;fill-opacity:1;fill-rule:nonzero;stroke:none"
             d="m 234.488,396.922 150,-225 -379.99972,0 202.49972,225 27.5,0" /><path
             id="path60"
             style="fill:none;stroke:#ffffff;stroke-width:3.99993992;stroke-linecap:butt;stroke-linejoin:miter;stroke-miterlimit:4;stroke-dasharray:none;stroke-opacity:1"
             d="m 234.488,396.922 150,-225 -379.99972,0 202.49972,225 27.5,0 z" /><path
             id="path62"
             style="fill:#036998;fill-opacity:1;fill-rule:nonzero;stroke:none"
             d="m 105.898,87.582 176.992,0 0,33.2813 -176.992,0 0,-33.2813 z" /><path
             id="path64"
             style="fill:none;stroke:#ffffff;stroke-width:3.99993992;stroke-linecap:butt;stroke-linejoin:miter;stroke-miterlimit:4;stroke-dasharray:none;stroke-opacity:1"
             d="m 105.898,87.582 176.992,0 0,33.2813 -176.992,0 0,-33.2813 z" /><path
             id="path66"
             style="fill:none;stroke:#ffffff;stroke-width:3.99993992;stroke-linecap:butt;stroke-linejoin:miter;stroke-miterlimit:4;stroke-dasharray:none;stroke-opacity:1"
             d="m 228.672,102.043 44.648,0" /><path
             id="path68"
             style="fill:none;stroke:#ffffff;stroke-width:3.99993992;stroke-linecap:butt;stroke-linejoin:miter;stroke-miterlimit:4;stroke-dasharray:none;stroke-opacity:1"
             d="m 228.672,103.641 44.648,0" /><path
             id="path70"
             style="fill:#036998;fill-opacity:1;fill-rule:nonzero;stroke:none"
             d="m 313.48,119.973 0,29.757 -30.589,-28.98 0,-32.9687 30.589,32.1917" /><path
             id="path72"
             style="fill:none;stroke:#ffffff;stroke-width:3.99993992;stroke-linecap:butt;stroke-linejoin:miter;stroke-miterlimit:4;stroke-dasharray:none;stroke-opacity:1"
             d="m 313.48,119.973 0,29.757 -30.589,-28.98 0,-32.9687 30.589,32.1917 z" /><path
             id="path74"
             style="fill:#036998;fill-opacity:1;fill-rule:nonzero;stroke:none"
             d="m 251.449,60.5938 0,7.457 16.09,22.2305 0,-13.6407 -16.09,-16.0468" /><path
             id="path76"
             style="fill:none;stroke:#ffffff;stroke-width:3.99993992;stroke-linecap:butt;stroke-linejoin:miter;stroke-miterlimit:4;stroke-dasharray:none;stroke-opacity:1"
             d="m 251.449,60.5938 0,7.457 16.09,22.2305 0,-13.6407 -16.09,-16.0468 z" /><path
             id="path78"
             style="fill:#036998;fill-opacity:1;fill-rule:nonzero;stroke:none"
             d="m 109.648,60.5938 141.801,0 0,7.33984 -141.801,0 0,-7.33984 z" /><path
             id="path80"
             style="fill:none;stroke:#ffffff;stroke-width:3.99993992;stroke-linecap:butt;stroke-linejoin:miter;stroke-miterlimit:4;stroke-dasharray:none;stroke-opacity:1"
             d="m 109.648,60.5938 141.801,0 0,7.33984 -141.801,0 0,-7.33984 z" /><path
             id="path82"
             style="fill:#036998;fill-opacity:1;fill-rule:nonzero;stroke:none"
             d="m 251.449,67.9336 -141.328,0 16.09,22.3477 141.328,0 -16.09,-22.3477" /><path
             id="path84"
             style="fill:none;stroke:#ffffff;stroke-width:3.99993992;stroke-linecap:butt;stroke-linejoin:miter;stroke-miterlimit:4;stroke-dasharray:none;stroke-opacity:1"
             d="m 251.449,67.9336 -141.328,0 16.09,22.3477 141.328,0 -16.09,-22.3477 z" /><path
             id="path86"
             style="fill:#036998;fill-opacity:1;fill-rule:nonzero;stroke:none"
             d="m 312.539,148.832 -176.988,0 -29.653,-27.969 176.993,0 29.648,27.969" /><path
             id="path88"
             style="fill:none;stroke:#ffffff;stroke-width:3.99993992;stroke-linecap:butt;stroke-linejoin:miter;stroke-miterlimit:4;stroke-dasharray:none;stroke-opacity:1"
             d="m 312.539,148.832 -176.988,0 -29.653,-27.969 176.993,0 29.648,27.969 z" /><path
             id="path90"
             style="fill:#036998;fill-opacity:1;fill-rule:nonzero;stroke:none"
             d="m 279.262,148.711 -118.481,0 -19.883,-18.711 118.512,0 19.852,18.711" /><path
             id="path92"
             style="fill:none;stroke:#ffffff;stroke-width:3.99993992;stroke-linecap:butt;stroke-linejoin:miter;stroke-miterlimit:4;stroke-dasharray:none;stroke-opacity:1"
             d="m 279.262,148.711 -118.481,0 -19.883,-18.711 118.512,0 19.852,18.711 z" /><path
             id="path94"
             style="fill:#036998;fill-opacity:1;fill-rule:nonzero;stroke:none"
             d="m 137.539,137.313 122.07,0 0,89.4492 -122.07,0 0,-89.4492 z" /><path
             id="path96"
             style="fill:none;stroke:#ffffff;stroke-width:3.99993992;stroke-linecap:butt;stroke-linejoin:miter;stroke-miterlimit:4;stroke-dasharray:none;stroke-opacity:1"
             d="m 137.539,137.313 122.07,0 0,89.4492 -122.07,0 0,-89.4492 z" /><path
             id="path98"
             style="fill:#036998;fill-opacity:1;fill-rule:nonzero;stroke:none"
             d="m 147.852,207.152 c 0,8.989 9.296,10.321 9.296,10.321 l 80.512,0 c 11.289,0 10.969,-10.629 10.969,-10.629 l 0,-50.231 c 0,-6.332 -8.668,-8.992 -8.668,-8.992 l -81.481,0 c -7.968,0 -10.628,8.32 -10.628,8.32 l 0,51.211" /><path
             id="path100"
             style="fill:none;stroke:#ffffff;stroke-width:3.99993992;stroke-linecap:butt;stroke-linejoin:miter;stroke-miterlimit:4;stroke-dasharray:none;stroke-opacity:1"
             d="m 147.852,207.152 c 0,8.989 9.296,10.321 9.296,10.321 l 80.512,0 c 11.289,0 10.969,-10.629 10.969,-10.629 l 0,-50.231 c 0,-6.332 -8.668,-8.992 -8.668,-8.992 l -81.481,0 c -7.968,0 -10.628,8.32 -10.628,8.32 l 0,51.211 z" /><path
             id="path102"
             style="fill:#036998;fill-opacity:1;fill-rule:nonzero;stroke:none"
             d="m 280.039,246.063 -122.027,0 -20.473,-19.301 122.07,0 20.43,19.301" /><path
             id="path104"
             style="fill:none;stroke:#ffffff;stroke-width:3.99993992;stroke-linecap:butt;stroke-linejoin:miter;stroke-miterlimit:4;stroke-dasharray:none;stroke-opacity:1"
             d="m 280.039,246.063 -122.027,0 -20.473,-19.301 122.07,0 20.43,19.301 z" /><path
             id="path106"
             style="fill:#036998;fill-opacity:1;fill-rule:nonzero;stroke:none"
             d="m 280.039,156.332 0,89.77 -20.238,-19.141 0,-89.809 20.238,19.18" /><path
             id="path108"
             style="fill:none;stroke:#ffffff;stroke-width:3.99993992;stroke-linecap:butt;stroke-linejoin:miter;stroke-miterlimit:4;stroke-dasharray:none;stroke-opacity:1"
             d="m 280.039,156.332 0,89.77 -20.238,-19.141 0,-89.809 20.238,19.18 z" /></g></g></g></g></svg>