<?xml version="1.0" encoding="UTF-8" standalone="no"?>
<svg
   xmlns:dc="http://purl.org/dc/elements/1.1/"
   xmlns:cc="http://creativecommons.org/ns#"
   xmlns:rdf="http://www.w3.org/1999/02/22-rdf-syntax-ns#"
   xmlns:svg="http://www.w3.org/2000/svg"
   xmlns="http://www.w3.org/2000/svg"
   viewBox="0 0 36.25 35"
   height="35"
   width="36.25"
   xml:space="preserve"
   version="1.1"
   id="svg2"><metadata
     id="metadata8"><rdf:RDF><cc:Work
         rdf:about=""><dc:format>image/svg+xml</dc:format><dc:type
           rdf:resource="http://purl.org/dc/dcmitype/StillImage" /></cc:Work></rdf:RDF></metadata><defs
     id="defs6"><clipPath
       id="clipPath18"
       clipPathUnits="userSpaceOnUse"><path
         id="path20"
         d="M 0,10 0,279 290,279 290,10 0,10 Z" /></clipPath></defs><g
     transform="matrix(1.25,0,0,-1.25,0,35)"
     id="g10"><g
       transform="scale(0.1,0.1)"
       id="g12"><g
         id="g14"><g
           clip-path="url(#clipPath18)"
           id="g16"><path
             id="path22"
             style="fill:#036998;fill-opacity:1;fill-rule:nonzero;stroke:none"
             d="m 46.6797,43.4883 209.57,0 0,39.1836 -209.57,0 0,-39.1836 z" /><path
             id="path24"
             style="fill:none;stroke:#ffffff;stroke-width:3.99993992;stroke-linecap:butt;stroke-linejoin:miter;stroke-miterlimit:4;stroke-dasharray:none;stroke-opacity:1"
             d="m 46.6797,43.4883 209.57,0 0,39.1836 -209.57,0 0,-39.1836 z" /><path
             id="path26"
             style="fill:#036998;fill-opacity:1;fill-rule:nonzero;stroke:none"
             d="m 291.719,118.41 0,-39.5702 -35.469,-35.7382 0,39.5703 -209.7695,0" /><path
             id="path28"
             style="fill:none;stroke:#ffffff;stroke-width:3.99993992;stroke-linecap:butt;stroke-linejoin:miter;stroke-miterlimit:4;stroke-dasharray:none;stroke-opacity:1"
             d="m 291.719,118.41 0,-39.5702 -35.469,-35.7382 0,39.5703 -209.7695,0" /><path
             id="path30"
             style="fill:none;stroke:#ffffff;stroke-width:3.99993992;stroke-linecap:butt;stroke-linejoin:miter;stroke-miterlimit:4;stroke-dasharray:none;stroke-opacity:1"
             d="m 48.1602,118.41 243.5588,0" /><path
             id="path32"
             style="fill:#036998;fill-opacity:1;fill-rule:nonzero;stroke:none"
             d="M 256.25,82.6719 291.719,118.41" /><path
             id="path34"
             style="fill:none;stroke:#ffffff;stroke-width:3.99993992;stroke-linecap:butt;stroke-linejoin:miter;stroke-miterlimit:4;stroke-dasharray:none;stroke-opacity:1"
             d="M 256.25,82.6719 291.719,118.41" /><path
             id="path36"
             style="fill:#036998;fill-opacity:1;fill-rule:nonzero;stroke:none"
             d="m 46.4805,83.4883 209.488,0 0,157.934 -209.488,0 0,-157.934 z" /><path
             id="path38"
             style="fill:none;stroke:#ffffff;stroke-width:3.99993992;stroke-linecap:butt;stroke-linejoin:miter;stroke-miterlimit:4;stroke-dasharray:none;stroke-opacity:1"
             d="m 46.4805,83.4883 209.488,0 0,157.934 -209.488,0 0,-157.934 z" /><path
             id="path40"
             style="fill:#036998;fill-opacity:1;fill-rule:nonzero;stroke:none"
             d="m 255.98,83.4883 35.739,35.7417 0,157.93 -209.4885,0 -35.75,-35.738 209.4995,0 0,-157.9337" /><path
             id="path42"
             style="fill:none;stroke:#ffffff;stroke-width:3.99993992;stroke-linecap:butt;stroke-linejoin:miter;stroke-miterlimit:4;stroke-dasharray:none;stroke-opacity:1"
             d="m 255.98,83.4883 35.739,35.7417 0,157.93 -209.4885,0 -35.75,-35.738 209.4995,0 0,-157.9337 z" /><path
             id="path44"
             style="fill:#036998;fill-opacity:1;fill-rule:nonzero;stroke:none"
             d="m 64.8008,101.77 172.891,0 0,121.371 -172.891,0 0,-121.371 z" /><path
             id="path46"
             style="fill:none;stroke:#ffffff;stroke-width:3.99993992;stroke-linecap:butt;stroke-linejoin:miter;stroke-miterlimit:4;stroke-dasharray:none;stroke-opacity:1"
             d="m 64.8008,101.77 172.891,0 0,121.371 -172.891,0 0,-121.371 z" /><path
             id="path48"
             style="fill:#036998;fill-opacity:1;fill-rule:nonzero;stroke:none"
             d="m 255.98,241.422 35.739,35.738" /><path
             id="path50"
             style="fill:none;stroke:#ffffff;stroke-width:3.99993992;stroke-linecap:butt;stroke-linejoin:miter;stroke-miterlimit:4;stroke-dasharray:none;stroke-opacity:1"
             d="m 255.98,241.422 35.739,35.738" /><path
             id="path52"
             style="fill:#036998;fill-opacity:1;fill-rule:nonzero;stroke:none"
             d="m 245.898,14.8203 0,23.2383 -241.05816,0 27.42966,27.4219 241.0505,0 0,-23.2422 -27.422,-27.418" /><path
             id="path54"
             style="fill:none;stroke:#ffffff;stroke-width:3.99993992;stroke-linecap:butt;stroke-linejoin:miter;stroke-miterlimit:4;stroke-dasharray:none;stroke-opacity:1"
             d="m 245.898,14.8203 0,23.2383 -241.05816,0 27.42966,27.4219 241.0505,0 0,-23.2422 -27.422,-27.418 z" /><path
             id="path56"
             style="fill:#036998;fill-opacity:1;fill-rule:nonzero;stroke:none"
             d="m 4.83984,14.8203 241.051,0 0,23.2383 -241.051,0 0,-23.2383 z" /><path
             id="path58"
             style="fill:none;stroke:#ffffff;stroke-width:3.99993992;stroke-linecap:butt;stroke-linejoin:miter;stroke-miterlimit:4;stroke-dasharray:none;stroke-opacity:1"
             d="m 4.83984,14.8203 241.051,0 0,23.2383 -241.051,0 0,-23.2383 z" /><path
             id="path60"
             style="fill:#036998;fill-opacity:1;fill-rule:nonzero;stroke:none"
             d="M 245.898,38.0586 273.32,65.4805" /><path
             id="path62"
             style="fill:none;stroke:#ffffff;stroke-width:3.99993992;stroke-linecap:butt;stroke-linejoin:miter;stroke-miterlimit:4;stroke-dasharray:none;stroke-opacity:1"
             d="M 245.898,38.0586 273.32,65.4805" /></g></g></g></g></svg>