<?xml version="1.0" encoding="UTF-8" standalone="no"?>
<svg
   xmlns:dc="http://purl.org/dc/elements/1.1/"
   xmlns:cc="http://creativecommons.org/ns#"
   xmlns:rdf="http://www.w3.org/1999/02/22-rdf-syntax-ns#"
   xmlns:svg="http://www.w3.org/2000/svg"
   xmlns="http://www.w3.org/2000/svg"
   viewBox="0 0 43.75 53.75"
   height="53.75"
   width="43.75"
   xml:space="preserve"
   version="1.1"
   id="svg2"><metadata
     id="metadata8"><rdf:RDF><cc:Work
         rdf:about=""><dc:format>image/svg+xml</dc:format><dc:type
           rdf:resource="http://purl.org/dc/dcmitype/StillImage" /></cc:Work></rdf:RDF></metadata><defs
     id="defs6" /><g
     transform="matrix(1.25,0,0,-1.25,0,53.75)"
     id="g10"><g
       transform="scale(0.1,0.1)"
       id="g12"><path
         id="path14"
         style="fill:#ffffff;fill-opacity:1;fill-rule:nonzero;stroke:none"
         d="m 48.3594,324.309 -46.37112,0 0,-38.289 40.82032,0.082 4.8516,0" /><path
         id="path16"
         style="fill:none;stroke:#231f20;stroke-width:4;stroke-linecap:butt;stroke-linejoin:miter;stroke-miterlimit:4;stroke-dasharray:none;stroke-opacity:1"
         d="m 48.3594,324.305 -46.37112,0 0,-38.282 40.82032,0.082 4.8516,0" /><path
         id="path18"
         style="fill:#ffffff;fill-opacity:1;fill-rule:nonzero;stroke:none"
         d="m 288.16,284.621 5.43,0 c 40.898,0 47.43,-36.762 47.43,-36.762 l 0,38.2 c 0,0 -6.532,36.761 -47.43,36.761 l -8.981,0" /><path
         id="path20"
         style="fill:none;stroke:#231f20;stroke-width:4;stroke-linecap:butt;stroke-linejoin:miter;stroke-miterlimit:4;stroke-dasharray:none;stroke-opacity:1"
         d="m 288.16,284.613 5.43,0 c 40.898,0 47.43,-36.75 47.43,-36.75 l 0,38.2 c 0,0 -6.532,36.761 -47.43,36.761 l -8.981,0" /><path
         id="path22"
         style="fill:#0881c1;fill-opacity:1;fill-rule:nonzero;stroke:none"
         d="m 41.9492,15.6289 215.16,0 0,375.121 -215.16,0 0,-375.121 z" /><path
         id="path24"
         style="fill:none;stroke:#ffffff;stroke-width:4;stroke-linecap:butt;stroke-linejoin:miter;stroke-miterlimit:4;stroke-dasharray:none;stroke-opacity:1"
         d="m 41.9492,15.6328 215.16,0 0,375.121 -215.16,0 0,-375.121 z" /><path
         id="path26"
         style="fill:#0881c1;fill-opacity:1;fill-rule:nonzero;stroke:none"
         d="m 41.9492,390.75 41.1406,33.398 207.4222,0 -33.403,-33.398 -215.1598,0" /><path
         id="path28"
         style="fill:none;stroke:#ffffff;stroke-width:4;stroke-linecap:butt;stroke-linejoin:miter;stroke-miterlimit:4;stroke-dasharray:none;stroke-opacity:1"
         d="m 41.9492,390.754 41.1406,33.398 207.4222,0 -33.403,-33.398 -215.1598,0 z" /><path
         id="path30"
         style="fill:#0881c1;fill-opacity:1;fill-rule:nonzero;stroke:none"
         d="m 257.109,15.6289 33.403,41.1016 0,367.4175 -33.403,-33.398 0,-375.1211" /><path
         id="path32"
         style="fill:none;stroke:#ffffff;stroke-width:4;stroke-linecap:butt;stroke-linejoin:miter;stroke-miterlimit:4;stroke-dasharray:none;stroke-opacity:1"
         d="m 257.109,15.6328 33.403,41.0899 0,367.4293 -33.403,-33.398 0,-375.1212 z" /><path
         id="path34"
         style="fill:#ffffff;fill-opacity:1;fill-rule:nonzero;stroke:none"
         d="m 341.02,273.988 0,-45.226 c -4.418,-53.75 -99.692,-50.942 -99.692,-50.942 l 0,-39.57 -62.226,62.23 62.226,62.219 0,-39.597 c 0,0 96.871,-2.864 99.692,50.886" /><path
         id="path36"
         style="fill:none;stroke:#231f20;stroke-width:4;stroke-linecap:butt;stroke-linejoin:miter;stroke-miterlimit:4;stroke-dasharray:none;stroke-opacity:1"
         d="m 341.02,273.992 0,-45.23 c -4.418,-53.75 -99.692,-50.938 -99.692,-50.938 l 0,-39.57 -62.226,62.219 62.226,62.23 0,-39.609 c 0,0 96.871,-2.852 99.692,50.898" /><path
         id="path38"
         style="fill:#ffffff;fill-opacity:1;fill-rule:nonzero;stroke:none"
         d="M 72.9688,329.461 62.5,319.309 l 0.0391,48.043 48.0509,0 -10.6291,-10.903 -2.0312,-2.14 71.5193,-71.368 -23.359,-23.363 -71.4416,71.442 -1.6796,-1.559" /><path
         id="path40"
         style="fill:#ffffff;fill-opacity:1;fill-rule:nonzero;stroke:none"
         d="m 77.3789,76.7695 -10.4687,10.1524 0.039,-48.043 48.0508,0 -10.621,10.8906 -2.039,2.1524 71.531,71.4061 -23.359,23.32 -71.4534,-71.4488 -1.6797,1.5703" /><path
         id="path42"
         style="fill:#ffffff;fill-opacity:1;fill-rule:nonzero;stroke:none"
         d="m 108.789,210.988 0,-48.316 -51.2499,0 0,48.316 c 25.6211,15.352 51.2499,0 51.2499,0" /><path
         id="path44"
         style="fill:#ffffff;fill-opacity:1;fill-rule:nonzero;stroke:none"
         d="m 99.0195,231.961 c 0,-8.473 -6.8711,-15.352 -15.3476,-15.352 -8.5117,0 -15.3906,6.879 -15.3906,15.352 0,8.519 6.8789,15.391 15.3906,15.391 8.4765,0 15.3476,-6.872 15.3476,-15.391" /><path
         id="path46"
         style="fill:#ffffff;fill-opacity:1;fill-rule:nonzero;stroke:none"
         d="m 171.289,210.988 0,-48.316 -51.25,0 0,48.316 c 25.621,15.352 51.25,0 51.25,0" /><path
         id="path48"
         style="fill:#ffffff;fill-opacity:1;fill-rule:nonzero;stroke:none"
         d="m 161.52,231.961 c 0,-8.473 -6.872,-15.352 -15.391,-15.352 -8.469,0 -15.348,6.879 -15.348,15.352 0,8.519 6.879,15.391 15.348,15.391 8.519,0 15.391,-6.872 15.391,-15.391" /></g></g></svg>