<?xml version="1.0" encoding="UTF-8" standalone="no"?>
<svg
   xmlns:dc="http://purl.org/dc/elements/1.1/"
   xmlns:cc="http://creativecommons.org/ns#"
   xmlns:rdf="http://www.w3.org/1999/02/22-rdf-syntax-ns#"
   xmlns:svg="http://www.w3.org/2000/svg"
   xmlns="http://www.w3.org/2000/svg"
   viewBox="0 0 42.875 52.375"
   height="52.375"
   width="42.875"
   xml:space="preserve"
   version="1.1"
   id="svg2"><metadata
     id="metadata8"><rdf:RDF><cc:Work
         rdf:about=""><dc:format>image/svg+xml</dc:format><dc:type
           rdf:resource="http://purl.org/dc/dcmitype/StillImage" /></cc:Work></rdf:RDF></metadata><defs
     id="defs6" /><g
     transform="matrix(1.25,0,0,-1.25,0,52.375)"
     id="g10"><g
       transform="scale(0.1,0.1)"
       id="g12"><path
         id="path14"
         style="fill:#ffffff;fill-opacity:1;fill-rule:nonzero;stroke:none"
         d="m 48.3594,314.309 -46.3594,0 0,-38.286 40.8086,0.098 4.8477,0" /><path
         id="path16"
         style="fill:none;stroke:#231f20;stroke-width:4;stroke-linecap:butt;stroke-linejoin:miter;stroke-miterlimit:4;stroke-dasharray:none;stroke-opacity:1"
         d="m 48.3594,314.309 -46.3594,0 0,-38.286 40.8086,0.098 4.8477,0" /><path
         id="path18"
         style="fill:#ffffff;fill-opacity:1;fill-rule:nonzero;stroke:none"
         d="m 288.148,274.641 5.461,0 c 40.879,0 47.403,-36.758 47.403,-36.758 l 0,38.18 c 0,0 -6.504,36.781 -47.403,36.781 l -8.996,0" /><path
         id="path20"
         style="fill:none;stroke:#231f20;stroke-width:4;stroke-linecap:butt;stroke-linejoin:miter;stroke-miterlimit:4;stroke-dasharray:none;stroke-opacity:1"
         d="m 288.148,274.641 5.461,0 c 40.879,0 47.403,-36.758 47.403,-36.758 l 0,38.18 c 0,0 -6.504,36.781 -47.403,36.781 l -8.996,0" /><path
         id="path22"
         style="fill:#0881c1;fill-opacity:1;fill-rule:nonzero;stroke:none"
         d="m 257.105,5.63672 0,375.13628 -215.1362,0 0,-375.13628 215.1362,0 0,0" /><path
         id="path24"
         style="fill:none;stroke:#ffffff;stroke-width:4;stroke-linecap:butt;stroke-linejoin:miter;stroke-miterlimit:4;stroke-dasharray:none;stroke-opacity:1"
         d="m 257.105,5.63672 0,375.13628 -215.1362,0 0,-375.13628 215.1362,0 0,0 z" /><path
         id="path26"
         style="fill:#0881c1;fill-opacity:1;fill-rule:nonzero;stroke:none"
         d="m 41.9688,380.773 41.1015,33.395 207.4217,0 -33.387,-33.395 -215.1362,0 0,0" /><path
         id="path28"
         style="fill:none;stroke:#ffffff;stroke-width:4;stroke-linecap:butt;stroke-linejoin:miter;stroke-miterlimit:4;stroke-dasharray:none;stroke-opacity:1"
         d="m 41.9688,380.773 41.1015,33.395 207.4217,0 -33.387,-33.395 -215.1362,0 0,0 z" /><path
         id="path30"
         style="fill:#0881c1;fill-opacity:1;fill-rule:nonzero;stroke:none"
         d="m 257.105,5.63672 33.387,41.08988 0,367.4414 -33.387,-33.395 0,-375.13628" /><path
         id="path32"
         style="fill:none;stroke:#ffffff;stroke-width:4;stroke-linecap:butt;stroke-linejoin:miter;stroke-miterlimit:4;stroke-dasharray:none;stroke-opacity:1"
         d="m 257.105,5.63672 33.387,41.08988 0,367.4414 -33.387,-33.395 0,-375.13628 z" /><path
         id="path34"
         style="fill:#ffffff;fill-opacity:1;fill-rule:nonzero;stroke:none"
         d="m 341.031,264.016 0,-45.254 c -4.445,-53.735 -99.718,-50.918 -99.718,-50.918 l 0,-39.59 -62.227,62.223 62.227,62.226 0,-39.605 c 0,0 96.894,-2.832 99.718,50.918" /><path
         id="path36"
         style="fill:none;stroke:#231f20;stroke-width:4;stroke-linecap:butt;stroke-linejoin:miter;stroke-miterlimit:4;stroke-dasharray:none;stroke-opacity:1"
         d="m 341.031,264.016 0,-45.254 c -4.445,-53.735 -99.718,-50.918 -99.718,-50.918 l 0,-39.59 -62.227,62.223 62.227,62.226 0,-39.605 c 0,0 96.894,-2.832 99.718,50.918" /><path
         id="path38"
         style="fill:#ffffff;fill-opacity:1;fill-rule:nonzero;stroke:none"
         d="m 72.9648,319.48 -10.4492,-10.171 0.0078,48.062 48.0586,0 -10.6093,-10.894 -2.0547,-2.172 71.531,-71.367 -23.355,-23.36 -71.4377,71.465 -1.6915,-1.563 0,0" /><path
         id="path40"
         style="fill:#ffffff;fill-opacity:1;fill-rule:nonzero;stroke:none"
         d="m 77.3711,66.7695 -10.4492,10.1719 0.0117,-48.0625 48.0504,0 -10.609,10.8945 -2.047,2.1524 71.524,71.4022 -23.356,23.344 -71.4335,-71.4689 -1.6914,1.5664 0,0" /><path
         id="path42"
         style="fill:#ffffff;fill-opacity:1;fill-rule:nonzero;stroke:none"
         d="m 108.785,200.984 0,-48.296 -51.242,0 0,48.296 c 25.625,15.371 51.242,0 51.242,0 l 0,0" /><path
         id="path44"
         style="fill:#ffffff;fill-opacity:1;fill-rule:nonzero;stroke:none"
         d="m 99.0234,221.98 c 0,-8.496 -6.8789,-15.371 -15.3671,-15.371 -8.4961,0 -15.3711,6.875 -15.3711,15.371 0,8.497 6.875,15.372 15.3711,15.372 8.4882,0 15.3671,-6.875 15.3671,-15.372 l 0,0" /><path
         id="path46"
         style="fill:#ffffff;fill-opacity:1;fill-rule:nonzero;stroke:none"
         d="m 171.273,200.984 0,-48.296 -51.25,0 0,48.296 c 25.622,15.371 51.25,0 51.25,0 l 0,0" /><path
         id="path48"
         style="fill:#ffffff;fill-opacity:1;fill-rule:nonzero;stroke:none"
         d="m 161.508,221.98 c 0,-8.496 -6.879,-15.371 -15.363,-15.371 -8.504,0 -15.383,6.875 -15.383,15.371 0,8.497 6.879,15.372 15.383,15.372 8.484,0 15.363,-6.875 15.363,-15.372 l 0,0" /></g></g></svg>