<svg xmlns="http://www.w3.org/2000/svg" viewBox="0 0 42.5 41.25" height="41.25" width="42.5"><path d="M.703 39.299H38.31V4.064H.703v35.235z" fill="#026c9b"/><path d="M.703 39.298H38.31V4.063H.703v35.235z" fill="none" stroke="#fff" stroke-width=".5"/><path d="M.703 4.064L4.565.929H41.45l-3.14 3.135H.703" fill="#026c9b"/><path d="M.703 4.063L4.565.928H41.45l-3.14 3.135H.703z" fill="none" stroke="#fff" stroke-width=".5"/><path d="M38.31 39.297l3.14-3.862V.93l-3.14 3.135v35.233" fill="#026c9b"/><path d="M38.31 39.298l3.14-3.862V.928l-3.14 3.135v35.235zM38.023 15.987h-7.106c-2.455 0-2.455-2.456-2.455-2.456 3.823-8.466-3.008-7.1-3.008-7.1s-6.826-1.366-3.003 7.1c0 0 0 2.456-2.456 2.456H2.784s-1.368.274-1.915 2.187M.664 27.013h7.1c2.456 0 2.456 2.46 2.456 2.46-3.824 8.467 3.007 7.1 3.007 7.1s6.832 1.367 3.008-7.1c0 0 0-2.46 2.456-2.46h17.213s1.361-.269 1.908-2.183" fill="none" stroke="#fff" stroke-width=".5"/><path d="M9.473 20.152l.947 1.426-3.589.83.787-.654-5.548-.948 1.392-1.045 5.352.909.659-.518M14.521 23.605l-.644-1.465 3.237-.65-.561.503 5.396.923-1.3 1.035-5.361-1.006-.766.66M12.754 19.377l3.624-.992.043 1.552-.903-.176-1.773 1.47-1.689-.244 1.825-1.436-1.127-.174M11.201 24.942l-3.457.65-.126-1.597.99.215 1.9-1.621 1.684.283-2.03 1.768 1.04.302M30.128 21.646l2.372 1.86 1.109-.005v-.487l2.518.894-2.518.893v-.504l-1.437-.005-2.715-2.123-2.713 2.123-1.436.005v.504l-2.52-.893 2.52-.894v.488l1.103.004 2.378-1.86-2.378-1.865-1.103.005v.488l-2.52-.893 2.52-.894v.503l1.436.005 2.713 2.124 2.715-2.124 1.437-.005v-.503l2.518.894-2.518.893v-.488l-1.109-.005-2.373 1.866" fill="#fff"/></svg>