<?xml version="1.0" encoding="UTF-8" standalone="no"?>
<svg
   xmlns:dc="http://purl.org/dc/elements/1.1/"
   xmlns:cc="http://creativecommons.org/ns#"
   xmlns:rdf="http://www.w3.org/1999/02/22-rdf-syntax-ns#"
   xmlns:svg="http://www.w3.org/2000/svg"
   xmlns="http://www.w3.org/2000/svg"
   viewBox="0 0 42.049999 39.674999"
   height="39.674999"
   width="42.049999"
   xml:space="preserve"
   version="1.1"
   id="svg2"><metadata
     id="metadata8"><rdf:RDF><cc:Work
         rdf:about=""><dc:format>image/svg+xml</dc:format><dc:type
           rdf:resource="http://purl.org/dc/dcmitype/StillImage" /></cc:Work></rdf:RDF></metadata><defs
     id="defs6" /><g
     transform="matrix(1.25,0,0,-1.25,0,39.675)"
     id="g10"><g
       transform="scale(0.1,0.1)"
       id="g12"><path
         id="path14"
         style="fill:#026c9b;fill-opacity:1;fill-rule:nonzero;stroke:none"
         d="m 5.62891,5.63672 300.871,0 0,281.852 -300.871,0 0,-281.852 z" /><path
         id="path16"
         style="fill:none;stroke:#ffffff;stroke-width:4;stroke-linecap:butt;stroke-linejoin:miter;stroke-miterlimit:4;stroke-dasharray:none;stroke-opacity:1"
         d="m 5.62891,5.63672 300.871,0 0,281.852 -300.871,0 0,-281.852 z" /><path
         id="path18"
         style="fill:#026c9b;fill-opacity:1;fill-rule:nonzero;stroke:none"
         d="m 5.62891,287.488 30.87889,25.102 295.0902,0 -25.098,-25.102 -300.87109,0" /><path
         id="path20"
         style="fill:none;stroke:#ffffff;stroke-width:4;stroke-linecap:butt;stroke-linejoin:miter;stroke-miterlimit:4;stroke-dasharray:none;stroke-opacity:1"
         d="m 5.62891,287.488 30.87889,25.102 295.0902,0 -25.098,-25.102 -300.87109,0 z" /><path
         id="path22"
         style="fill:#026c9b;fill-opacity:1;fill-rule:nonzero;stroke:none"
         d="m 306.5,5.63672 25.098,30.88668 0,276.0666 -25.098,-25.102 0,-281.85128" /><path
         id="path24"
         style="fill:none;stroke:#ffffff;stroke-width:4;stroke-linecap:butt;stroke-linejoin:miter;stroke-miterlimit:4;stroke-dasharray:none;stroke-opacity:1"
         d="m 306.5,5.63672 25.098,30.88668 0,276.0666 -25.098,-25.102 0,-281.85128 z" /><path
         id="path26"
         style="fill:none;stroke:#ffffff;stroke-width:4;stroke-linecap:butt;stroke-linejoin:miter;stroke-miterlimit:4;stroke-dasharray:none;stroke-opacity:1"
         d="m 304.164,192.09 -56.816,0 c -19.657,0 -19.657,19.668 -19.657,19.668 30.586,67.746 -24.054,56.797 -24.054,56.797 0,0 -54.617,10.949 -24.032,-56.797 0,0 0,-19.668 -19.66,-19.668 l -137.6833,0 c 0,0 -10.9297,-2.18 -15.29295,-17.473" /><path
         id="path28"
         style="fill:none;stroke:#ffffff;stroke-width:4;stroke-linecap:butt;stroke-linejoin:miter;stroke-miterlimit:4;stroke-dasharray:none;stroke-opacity:1"
         d="m 5.30859,103.887 56.81641,0 c 19.6484,0 19.6484,-19.6682 19.6484,-19.6682 -30.5859,-67.7422 24.0626,-56.8086 24.0626,-56.8086 0,0 54.617,-10.9336 24.031,56.8086 0,0 0,19.6682 19.66,19.6682 l 137.684,0 c 0,0 10.93,2.176 15.293,17.468" /><path
         id="path30"
         style="fill:#ffffff;fill-opacity:1;fill-rule:nonzero;stroke:none"
         d="m 75.7773,158.777 7.5977,-11.382 -28.7109,-6.641 6.2695,5.23 -44.3672,7.579 11.125,8.339 42.832,-7.246 5.2539,4.121" /><path
         id="path32"
         style="fill:#ffffff;fill-opacity:1;fill-rule:nonzero;stroke:none"
         d="m 116.188,131.16 -5.176,11.738 25.898,5.176 -4.492,-4.019 43.164,-7.367 -10.371,-8.29 -42.891,8.055 -6.132,-5.293" /><path
         id="path34"
         style="fill:#ffffff;fill-opacity:1;fill-rule:nonzero;stroke:none"
         d="m 102.027,165 29.004,7.938 0.352,-12.43 -7.258,1.387 -14.148,-11.75 -13.5161,1.972 14.6091,11.488 -9.043,1.395" /><path
         id="path36"
         style="fill:#ffffff;fill-opacity:1;fill-rule:nonzero;stroke:none"
         d="m 89.5938,120.461 -27.625,-5.188 -1.0352,12.786 7.9492,-1.731 15.1953,12.981 13.4571,-2.278 -16.2305,-14.16 8.2891,-2.41" /><path
         id="path38"
         style="fill:#ffffff;fill-opacity:1;fill-rule:nonzero;stroke:none"
         d="m 241,146.848 19.004,-14.907 8.848,0.039 0.011,3.918 20.164,-7.136 -20.164,-7.153 -0.011,4.028 -11.473,0.008 -21.719,17.019 -21.719,-17.019 -11.484,-0.008 -0.012,-4.028 -20.156,7.153 20.156,7.136 0.012,-3.918 8.848,-0.039 19.011,14.907 -19.011,14.898 -8.848,-0.016 -0.012,-3.925 -20.156,7.144 20.156,7.153 0.012,-4.028 11.484,-0.015 21.719,-17.012 21.719,17.012 11.473,0.015 0.011,4.028 20.164,-7.153 -20.164,-7.144 -0.011,3.925 -8.848,0.016 L 241,146.848" /></g></g></svg>