<?xml version="1.0" encoding="UTF-8" standalone="no"?>
<svg
   xmlns:dc="http://purl.org/dc/elements/1.1/"
   xmlns:cc="http://creativecommons.org/ns#"
   xmlns:rdf="http://www.w3.org/1999/02/22-rdf-syntax-ns#"
   xmlns:svg="http://www.w3.org/2000/svg"
   xmlns="http://www.w3.org/2000/svg"
   viewBox="0 0 42.5 41.25"
   height="41.25"
   width="42.5"
   xml:space="preserve"
   version="1.1"
   id="svg2"><metadata
     id="metadata8"><rdf:RDF><cc:Work
         rdf:about=""><dc:format>image/svg+xml</dc:format><dc:type
           rdf:resource="http://purl.org/dc/dcmitype/StillImage" /></cc:Work></rdf:RDF></metadata><defs
     id="defs6" /><g
     transform="matrix(1.25,0,0,-1.25,0,41.25)"
     id="g10"><g
       transform="scale(0.1,0.1)"
       id="g12"><path
         id="path14"
         style="fill:#026c9b;fill-opacity:1;fill-rule:nonzero;stroke:none"
         d="m 5.62109,15.6094 300.859,0 0,281.879 -300.859,0 0,-281.879 z" /><path
         id="path16"
         style="fill:none;stroke:#ffffff;stroke-width:4;stroke-linecap:butt;stroke-linejoin:miter;stroke-miterlimit:4;stroke-dasharray:none;stroke-opacity:1"
         d="m 5.62109,15.6133 300.859,0 0,281.883 -300.859,0 0,-281.883 z" /><path
         id="path18"
         style="fill:#026c9b;fill-opacity:1;fill-rule:nonzero;stroke:none"
         d="m 5.62109,297.488 30.89841,25.082 295.0825,0 -25.122,-25.082 -300.85891,0" /><path
         id="path20"
         style="fill:none;stroke:#ffffff;stroke-width:4;stroke-linecap:butt;stroke-linejoin:miter;stroke-miterlimit:4;stroke-dasharray:none;stroke-opacity:1"
         d="m 5.62109,297.496 30.89841,25.078 295.0825,0 -25.122,-25.078 -300.85891,0 z" /><path
         id="path22"
         style="fill:#026c9b;fill-opacity:1;fill-rule:nonzero;stroke:none"
         d="m 306.48,15.6211 25.122,30.8984 0,276.0505 -25.122,-25.082 0,-281.8669" /><path
         id="path24"
         style="fill:none;stroke:#ffffff;stroke-width:4;stroke-linecap:butt;stroke-linejoin:miter;stroke-miterlimit:4;stroke-dasharray:none;stroke-opacity:1"
         d="m 306.48,15.6133 25.122,30.9023 0,276.0584 -25.122,-25.078 0,-281.8827 z" /><path
         id="path26"
         style="fill:none;stroke:#ffffff;stroke-width:4;stroke-linecap:butt;stroke-linejoin:miter;stroke-miterlimit:4;stroke-dasharray:none;stroke-opacity:1"
         d="m 304.18,202.105 -56.84,0 c -19.641,0 -19.641,19.649 -19.641,19.649 30.582,67.73 -24.07,56.793 -24.07,56.793 0,0 -54.609,10.937 -24.02,-56.793 0,0 0,-19.649 -19.648,-19.649 l -137.6915,0 c 0,0 -10.9414,-2.191 -15.32028,-17.5" /><path
         id="path28"
         style="fill:none;stroke:#ffffff;stroke-width:4;stroke-linecap:butt;stroke-linejoin:miter;stroke-miterlimit:4;stroke-dasharray:none;stroke-opacity:1"
         d="m 5.30859,113.895 56.80081,0 c 19.6523,0 19.6523,-19.6802 19.6523,-19.6802 C 51.1719,26.4766 105.82,37.4141 105.82,37.4141 c 0,0 54.649,-10.9375 24.059,56.8007 0,0 0,19.6802 19.652,19.6802 l 137.699,0 c 0,0 10.891,2.152 15.27,17.468" /><path
         id="path30"
         style="fill:#ffffff;fill-opacity:1;fill-rule:nonzero;stroke:none"
         d="m 75.7813,168.781 7.5781,-11.402 -28.711,-6.641 6.293,5.231 -44.3828,7.582 11.1406,8.359 42.8125,-7.269 5.2696,4.14" /><path
         id="path32"
         style="fill:#ffffff;fill-opacity:1;fill-rule:nonzero;stroke:none"
         d="m 116.172,141.16 -5.152,11.719 25.89,5.199 -4.488,-4.019 43.168,-7.387 -10.391,-8.281 -42.898,8.05 -6.129,-5.281" /><path
         id="path34"
         style="fill:#ffffff;fill-opacity:1;fill-rule:nonzero;stroke:none"
         d="m 102.031,174.988 28.989,7.934 0.351,-12.422 -7.23,1.41 -14.18,-11.762 -13.5118,1.954 14.6018,11.488 -9.02,1.398" /><path
         id="path36"
         style="fill:#ffffff;fill-opacity:1;fill-rule:nonzero;stroke:none"
         d="m 89.6094,130.461 -27.6602,-5.191 -1.0078,12.769 7.9297,-1.719 15.1875,12.969 13.4805,-2.269 -16.25,-14.141 8.3203,-2.418" /><path
         id="path38"
         style="fill:#ffffff;fill-opacity:1;fill-rule:nonzero;stroke:none"
         d="m 241.02,156.828 18.98,-14.879 8.871,0.039 0,3.903 20.149,-7.153 -20.149,-7.148 0,4.031 -11.492,0.039 -21.719,16.988 -21.711,-16.988 -11.488,-0.039 0,-4.031 -20.16,7.148 20.16,7.153 0,-3.903 8.828,-0.039 19.02,14.879 -19.02,14.922 -8.828,-0.039 0,-3.902 -20.16,7.14 20.16,7.153 0,-4.024 11.488,-0.039 21.711,-16.988 21.719,16.988 11.492,0.039 0,4.024 20.149,-7.153 -20.149,-7.14 0,3.902 -8.871,0.039 -18.98,-14.922" /></g></g></svg>