<?xml version="1.0" encoding="UTF-8" standalone="no"?>
<svg
   xmlns:dc="http://purl.org/dc/elements/1.1/"
   xmlns:cc="http://creativecommons.org/ns#"
   xmlns:rdf="http://www.w3.org/1999/02/22-rdf-syntax-ns#"
   xmlns:svg="http://www.w3.org/2000/svg"
   xmlns="http://www.w3.org/2000/svg"
   viewBox="0 0 81.849998 32.150002"
   height="32.150002"
   width="81.849998"
   xml:space="preserve"
   version="1.1"
   id="svg2"><metadata
     id="metadata8"><rdf:RDF><cc:Work
         rdf:about=""><dc:format>image/svg+xml</dc:format><dc:type
           rdf:resource="http://purl.org/dc/dcmitype/StillImage" /></cc:Work></rdf:RDF></metadata><defs
     id="defs6"><clipPath
       id="clipPath18"
       clipPathUnits="userSpaceOnUse"><path
         id="path20"
         d="M 0,0 0,257 650,257 650,0 0,0 Z" /></clipPath></defs><g
     transform="matrix(1.25,0,0,-1.25,0,32.15)"
     id="g10"><g
       transform="scale(0.1,0.1)"
       id="g12"><g
         id="g14"><g
           clip-path="url(#clipPath18)"
           id="g16"><path
             id="path22"
             style="fill:#036998;fill-opacity:1;fill-rule:nonzero;stroke:none"
             d="m 403.547,18.4766 0,159.6284 -16.02,-14.062 0,-159.62894 16.02,14.06254" /><path
             id="path24"
             style="fill:none;stroke:#ffffff;stroke-width:3.99993992;stroke-linecap:butt;stroke-linejoin:miter;stroke-miterlimit:4;stroke-dasharray:none;stroke-opacity:1"
             d="m 403.547,18.4766 0,159.6284 -16.02,-14.062 0,-159.62894 16.02,14.06254 z" /><path
             id="path26"
             style="fill:#036998;fill-opacity:1;fill-rule:nonzero;stroke:none"
             d="m 5.33203,4.6875 381.848,0 0,159.063 -381.848,0 0,-159.063 z" /><path
             id="path28"
             style="fill:none;stroke:#ffffff;stroke-width:3.99993992;stroke-linecap:butt;stroke-linejoin:miter;stroke-miterlimit:4;stroke-dasharray:none;stroke-opacity:1"
             d="m 5.33203,4.6875 381.848,0 0,159.063 -381.848,0 0,-159.063 z" /><path
             id="path30"
             style="fill:#036998;fill-opacity:1;fill-rule:nonzero;stroke:none"
             d="m 403.547,178.047 -381.8478,0 -16.36717,-14.297 381.84797,0 16.367,14.297" /><path
             id="path32"
             style="fill:none;stroke:#ffffff;stroke-width:3.99993992;stroke-linecap:butt;stroke-linejoin:miter;stroke-miterlimit:4;stroke-dasharray:none;stroke-opacity:1"
             d="m 403.547,178.047 -381.8478,0 -16.36717,-14.297 381.84797,0 16.367,14.297 z" /><path
             id="path34"
             style="fill:#036998;fill-opacity:1;fill-rule:nonzero;stroke:none"
             d="M 403.547,178.047 387.18,163.75" /><path
             id="path36"
             style="fill:none;stroke:#ffffff;stroke-width:3.99993992;stroke-linecap:butt;stroke-linejoin:miter;stroke-miterlimit:4;stroke-dasharray:none;stroke-opacity:1"
             d="M 403.547,178.047 387.18,163.75" /><path
             id="path38"
             style="fill:#036998;fill-opacity:1;fill-rule:nonzero;stroke:none"
             d="m 84.4727,4.6875 0,159.0625" /><path
             id="path40"
             style="fill:none;stroke:#ffffff;stroke-width:3.99993992;stroke-linecap:butt;stroke-linejoin:miter;stroke-miterlimit:4;stroke-dasharray:none;stroke-opacity:1"
             d="m 84.4727,4.6875 0,159.0625" /><path
             id="path42"
             style="fill:#036998;fill-opacity:1;fill-rule:nonzero;stroke:none"
             d="m 157.871,4.6875 0,159.0625" /><path
             id="path44"
             style="fill:none;stroke:#ffffff;stroke-width:3.99993992;stroke-linecap:butt;stroke-linejoin:miter;stroke-miterlimit:4;stroke-dasharray:none;stroke-opacity:1"
             d="m 157.871,4.6875 0,159.0625" /><path
             id="path46"
             style="fill:#036998;fill-opacity:1;fill-rule:nonzero;stroke:none"
             d="m 231.262,4.6875 0,159.0625" /><path
             id="path48"
             style="fill:none;stroke:#ffffff;stroke-width:3.99993992;stroke-linecap:butt;stroke-linejoin:miter;stroke-miterlimit:4;stroke-dasharray:none;stroke-opacity:1"
             d="m 231.262,4.6875 0,159.0625" /><path
             id="path50"
             style="fill:#036998;fill-opacity:1;fill-rule:nonzero;stroke:none"
             d="m 304.641,4.6875 0,159.0625" /><path
             id="path52"
             style="fill:none;stroke:#ffffff;stroke-width:3.99993992;stroke-linecap:butt;stroke-linejoin:miter;stroke-miterlimit:4;stroke-dasharray:none;stroke-opacity:1"
             d="m 304.641,4.6875 0,159.0625" /><path
             id="path54"
             style="fill:#036998;fill-opacity:1;fill-rule:nonzero;stroke:none"
             d="m 435.281,147.578 15,-22.129 -46.734,-25.6834 0,30.0784 31.734,17.734" /><path
             id="path56"
             style="fill:none;stroke:#ffffff;stroke-width:3.99993992;stroke-linecap:butt;stroke-linejoin:miter;stroke-miterlimit:4;stroke-dasharray:none;stroke-opacity:1"
             d="m 435.281,147.578 15,-22.129 -46.734,-25.6834 0,30.0784 31.734,17.734 z" /><path
             id="path58"
             style="fill:#036998;fill-opacity:1;fill-rule:nonzero;stroke:none"
             d="m 457.395,109.297 13.726,-23.7892 -67.574,-38.2422 0,30.0782 53.848,31.9532" /><path
             id="path60"
             style="fill:none;stroke:#ffffff;stroke-width:3.99993992;stroke-linecap:butt;stroke-linejoin:miter;stroke-miterlimit:4;stroke-dasharray:none;stroke-opacity:1"
             d="m 457.395,109.297 13.726,-23.7892 -67.574,-38.2422 0,30.0782 53.848,31.9532 z" /><path
             id="path62"
             style="fill:#036998;fill-opacity:1;fill-rule:nonzero;stroke:none"
             d="m 606.086,107.441 -79.809,138.262 -6.836,-20.195 79.805,-138.2424 6.84,20.1754" /><path
             id="path64"
             style="fill:none;stroke:#ffffff;stroke-width:3.99993992;stroke-linecap:butt;stroke-linejoin:miter;stroke-miterlimit:4;stroke-dasharray:none;stroke-opacity:1"
             d="m 606.086,107.441 -79.809,138.262 -6.836,-20.195 79.805,-138.2424 6.84,20.1754 z" /><path
             id="path66"
             style="fill:#036998;fill-opacity:1;fill-rule:nonzero;stroke:none"
             d="M 598.801,87.3242 519.285,225.078 422.703,169.336 502.258,31.582 598.801,87.3242" /><path
             id="path68"
             style="fill:none;stroke:#ffffff;stroke-width:3.99993992;stroke-linecap:butt;stroke-linejoin:miter;stroke-miterlimit:4;stroke-dasharray:none;stroke-opacity:1"
             d="M 598.801,87.3242 519.285,225.078 422.703,169.336 502.258,31.582 598.801,87.3242 Z" /><path
             id="path70"
             style="fill:#036998;fill-opacity:1;fill-rule:nonzero;stroke:none"
             d="m 526.301,245.645 -96.567,-55.743 -7.031,-20.566 96.582,55.742 7.016,20.567" /><path
             id="path72"
             style="fill:none;stroke:#ffffff;stroke-width:3.99993992;stroke-linecap:butt;stroke-linejoin:miter;stroke-miterlimit:4;stroke-dasharray:none;stroke-opacity:1"
             d="m 526.301,245.645 -96.567,-55.743 -7.031,-20.566 96.582,55.742 7.016,20.567 z" /><path
             id="path74"
             style="fill:#036998;fill-opacity:1;fill-rule:nonzero;stroke:none"
             d="m 526.301,245.645 -7.016,-20.567" /><path
             id="path76"
             style="fill:none;stroke:#ffffff;stroke-width:3.99993992;stroke-linecap:butt;stroke-linejoin:miter;stroke-miterlimit:4;stroke-dasharray:none;stroke-opacity:1"
             d="m 526.301,245.645 -7.016,-20.567" /><path
             id="path78"
             style="fill:#036998;fill-opacity:1;fill-rule:nonzero;stroke:none"
             d="m 652.629,182.207 -39.199,70.117 -4.785,-14.14 39.199,-70.098 4.785,14.121" /><path
             id="path80"
             style="fill:none;stroke:#ffffff;stroke-width:3.99993992;stroke-linecap:butt;stroke-linejoin:miter;stroke-miterlimit:4;stroke-dasharray:none;stroke-opacity:1"
             d="m 652.629,182.207 -39.199,70.117 -4.785,-14.14 39.199,-70.098 4.785,14.121 z" /><path
             id="path82"
             style="fill:#036998;fill-opacity:1;fill-rule:nonzero;stroke:none"
             d="m 647.527,168.125 -38.992,69.754 -72.605,-24.012 55.679,-96.437 55.918,50.695" /><path
             id="path84"
             style="fill:none;stroke:#ffffff;stroke-width:3.99993992;stroke-linecap:butt;stroke-linejoin:miter;stroke-miterlimit:4;stroke-dasharray:none;stroke-opacity:1"
             d="m 647.527,168.125 -38.992,69.754 -72.605,-24.012 55.679,-96.437 55.918,50.695 z" /><path
             id="path86"
             style="fill:#036998;fill-opacity:1;fill-rule:nonzero;stroke:none"
             d="m 613.445,252.273 -72.593,-24.011 -4.922,-14.395 72.605,24.012 4.91,14.394" /><path
             id="path88"
             style="fill:none;stroke:#ffffff;stroke-width:3.99993992;stroke-linecap:butt;stroke-linejoin:miter;stroke-miterlimit:4;stroke-dasharray:none;stroke-opacity:1"
             d="m 613.445,252.273 -72.593,-24.011 -4.922,-14.395 72.605,24.012 4.91,14.394 z" /><path
             id="path90"
             style="fill:#036998;fill-opacity:1;fill-rule:nonzero;stroke:none"
             d="m 613.445,252.273 -4.91,-14.394" /><path
             id="path92"
             style="fill:none;stroke:#ffffff;stroke-width:3.99993992;stroke-linecap:butt;stroke-linejoin:miter;stroke-miterlimit:4;stroke-dasharray:none;stroke-opacity:1"
             d="m 613.445,252.273 -4.91,-14.394" /></g></g></g></g></svg>