<?xml version="1.0" encoding="UTF-8" standalone="no"?>
<svg
   xmlns:dc="http://purl.org/dc/elements/1.1/"
   xmlns:cc="http://creativecommons.org/ns#"
   xmlns:rdf="http://www.w3.org/1999/02/22-rdf-syntax-ns#"
   xmlns:svg="http://www.w3.org/2000/svg"
   xmlns="http://www.w3.org/2000/svg"
   viewBox="0 0 96.525002 39.3125"
   height="39.3125"
   width="96.525002"
   xml:space="preserve"
   version="1.1"
   id="svg2"><metadata
     id="metadata8"><rdf:RDF><cc:Work
         rdf:about=""><dc:format>image/svg+xml</dc:format><dc:type
           rdf:resource="http://purl.org/dc/dcmitype/StillImage" /></cc:Work></rdf:RDF></metadata><defs
     id="defs6"><clipPath
       id="clipPath18"
       clipPathUnits="userSpaceOnUse"><path
         id="path20"
         d="m 0,4.50391 770,0 0,310 -770,0 0,-310 z" /></clipPath></defs><g
     transform="matrix(1.25,0,0,-1.25,0,39.3125)"
     id="g10"><g
       transform="scale(0.1,0.1)"
       id="g12"><g
         id="g14"><g
           clip-path="url(#clipPath18)"
           id="g16"><path
             id="path22"
             style="fill:#036998;fill-opacity:1;fill-rule:nonzero;stroke:none"
             d="m 687.859,66.6328 c 0,-3.5976 -2.91,-6.4844 -6.48,-6.4844 l -612.836,0 c -3.5742,0 -6.4844,2.8868 -6.4844,6.4844 L 96.1016,271.91 c 0,3.574 2.8906,6.473 6.4644,6.473 l 602.051,0 c 3.574,0 6.488,-2.899 6.488,-6.473 L 687.859,66.6328" /><path
             id="path24"
             style="fill:none;stroke:#ffffff;stroke-width:3.99993992;stroke-linecap:butt;stroke-linejoin:miter;stroke-miterlimit:4;stroke-dasharray:none;stroke-opacity:1"
             d="m 687.859,66.6328 c 0,-3.5976 -2.91,-6.4844 -6.48,-6.4844 l -612.836,0 c -3.5742,0 -6.4844,2.8868 -6.4844,6.4844 L 96.1016,271.91 c 0,3.574 2.8906,6.473 6.4644,6.473 l 602.051,0 c 3.574,0 6.488,-2.899 6.488,-6.473 L 687.859,66.6328 Z" /><path
             id="path26"
             style="fill:#036998;fill-opacity:1;fill-rule:nonzero;stroke:none"
             d="m 770.754,95.8828 c 0,-3.582 -2.895,-6.4726 -6.484,-6.4726 L 679.348,60.1484 c -3.594,0 -6.489,2.8868 -6.489,6.4844 L 696.105,271.91 c 0,3.574 2.887,6.473 6.485,6.473 l 62.027,0 c 3.574,0 6.488,-2.899 6.488,-6.473 L 770.754,95.8828" /><path
             id="path28"
             style="fill:none;stroke:#ffffff;stroke-width:3.99993992;stroke-linecap:butt;stroke-linejoin:miter;stroke-miterlimit:4;stroke-dasharray:none;stroke-opacity:1"
             d="m 770.754,95.8828 c 0,-3.582 -2.895,-6.4726 -6.484,-6.4726 L 679.348,60.1484 c -3.594,0 -6.489,2.8868 -6.489,6.4844 L 696.105,271.91 c 0,3.574 2.887,6.473 6.485,6.473 l 62.027,0 c 3.574,0 6.488,-2.899 6.488,-6.473 L 770.754,95.8828 Z" /><path
             id="path30"
             style="fill:#036998;fill-opacity:1;fill-rule:nonzero;stroke:none"
             d="m 628.605,31.5703 -210.976,0 59.527,77.1247 199.532,0 -48.083,-77.1247" /><path
             id="path32"
             style="fill:none;stroke:#ffffff;stroke-width:3.99993992;stroke-linecap:butt;stroke-linejoin:miter;stroke-miterlimit:4;stroke-dasharray:none;stroke-opacity:1"
             d="m 628.605,31.5703 -210.976,0 59.527,77.1247 199.532,0 -48.083,-77.1247 z" /><path
             id="path34"
             style="fill:#036998;fill-opacity:1;fill-rule:nonzero;stroke:none"
             d="m 628.605,6.57031 -210.976,0 2.383,23.98829 208.593,0 0,-23.98829" /><path
             id="path36"
             style="fill:none;stroke:#ffffff;stroke-width:3.99993992;stroke-linecap:butt;stroke-linejoin:miter;stroke-miterlimit:4;stroke-dasharray:none;stroke-opacity:1"
             d="m 628.605,6.57031 -210.976,0 2.383,23.98829 208.593,0 0,-23.98829 z" /><path
             id="path38"
             style="fill:#036998;fill-opacity:1;fill-rule:nonzero;stroke:none"
             d="m 677.98,108.512 0,-49.2425 -50.722,-54.20309 0,28.30079 50.722,75.1448" /><path
             id="path40"
             style="fill:none;stroke:#ffffff;stroke-width:3.99993992;stroke-linecap:butt;stroke-linejoin:miter;stroke-miterlimit:4;stroke-dasharray:none;stroke-opacity:1"
             d="m 677.98,108.512 0,-49.2425 -50.722,-54.20309 0,28.30079 50.722,75.1448 z" /><path
             id="path42"
             style="fill:#036998;fill-opacity:1;fill-rule:nonzero;stroke:none"
             d="M 277.922,275.199 246.438,60.8906" /><path
             id="path44"
             style="fill:none;stroke:#ffffff;stroke-width:3.99993992;stroke-linecap:butt;stroke-linejoin:miter;stroke-miterlimit:4;stroke-dasharray:none;stroke-opacity:1"
             d="M 277.922,275.199 246.438,60.8906" /><path
             id="path46"
             style="fill:#036998;fill-opacity:1;fill-rule:nonzero;stroke:none"
             d="M 496.785,276.676 475.012,106.539" /><path
             id="path48"
             style="fill:none;stroke:#ffffff;stroke-width:3.99993992;stroke-linecap:butt;stroke-linejoin:miter;stroke-miterlimit:4;stroke-dasharray:none;stroke-opacity:1"
             d="M 496.785,276.676 475.012,106.539" /><path
             id="path50"
             style="fill:#036998;fill-opacity:1;fill-rule:nonzero;stroke:none"
             d="m 678.605,200.883 c 0,-13.809 -11.195,-25 -25,-25 -13.808,0 -25,11.191 -25,25 0,13.808 11.192,25 25,25 13.805,0 25,-11.192 25,-25" /><path
             id="path52"
             style="fill:none;stroke:#ffffff;stroke-width:3.99993992;stroke-linecap:butt;stroke-linejoin:miter;stroke-miterlimit:4;stroke-dasharray:none;stroke-opacity:1"
             d="m 678.605,200.883 c 0,-13.809 -11.195,-25 -25,-25 -13.808,0 -25,11.191 -25,25 0,13.808 11.192,25 25,25 13.805,0 25,-11.192 25,-25 z" /><path
             id="path54"
             style="fill:#036998;fill-opacity:1;fill-rule:nonzero;stroke:none"
             d="m 201.105,230.883 c 0,-13.809 -11.195,-25 -25,-25 -13.808,0 -25,11.191 -25,25 0,13.808 11.192,25 25,25 13.805,0 25,-11.192 25,-25" /><path
             id="path56"
             style="fill:none;stroke:#ffffff;stroke-width:3.99993992;stroke-linecap:butt;stroke-linejoin:miter;stroke-miterlimit:4;stroke-dasharray:none;stroke-opacity:1"
             d="m 201.105,230.883 c 0,-13.809 -11.195,-25 -25,-25 -13.808,0 -25,11.191 -25,25 0,13.808 11.192,25 25,25 13.805,0 25,-11.192 25,-25 z" /><path
             id="path58"
             style="fill:#036998;fill-opacity:1;fill-rule:nonzero;stroke:none"
             d="m 533.469,68.2656 c -5.766,-11.4961 -23.481,-20.0898 -39.59,-19.1718 -16.113,0.9335 -24.516,10.996 -18.75,22.5039 5.738,11.5117 23.457,20.0976 39.566,19.1679 16.118,-0.9258 24.516,-10.9961 18.774,-22.5" /><path
             id="path60"
             style="fill:none;stroke:#ffffff;stroke-width:3.99993992;stroke-linecap:butt;stroke-linejoin:miter;stroke-miterlimit:4;stroke-dasharray:none;stroke-opacity:1"
             d="m 533.469,68.2656 c -5.766,-11.4961 -23.481,-20.0898 -39.59,-19.1718 -16.113,0.9335 -24.516,10.996 -18.75,22.5039 5.738,11.5117 23.457,20.0976 39.566,19.1679 16.118,-0.9258 24.516,-10.9961 18.774,-22.5 z" /><path
             id="path62"
             style="fill:#036998;fill-opacity:1;fill-rule:nonzero;stroke:none"
             d="m 358.254,144.254 c -3.613,-22.57 -21.977,-27.734 -43.613,-27.844 -21.645,-0.105 -38.379,4.875 -34.77,27.434 l 10.649,66.406 c 3.613,22.559 21.968,27.723 43.613,27.832 21.637,0.117 38.379,-4.863 34.762,-27.422 l -10.641,-66.406" /><path
             id="path64"
             style="fill:none;stroke:#ffffff;stroke-width:3.99993992;stroke-linecap:butt;stroke-linejoin:miter;stroke-miterlimit:4;stroke-dasharray:none;stroke-opacity:1"
             d="m 358.254,144.254 c -3.613,-22.57 -21.977,-27.734 -43.613,-27.844 -21.645,-0.105 -38.379,4.875 -34.77,27.434 l 10.649,66.406 c 3.613,22.559 21.968,27.723 43.613,27.832 21.637,0.117 38.379,-4.863 34.762,-27.422 l -10.641,-66.406 z" /><path
             id="path66"
             style="fill:#036998;fill-opacity:1;fill-rule:nonzero;stroke:none"
             d="m 445.754,144.254 c -3.613,-22.57 -21.977,-27.734 -43.613,-27.844 -21.645,-0.105 -38.379,4.875 -34.77,27.434 l 10.649,66.406 c 3.613,22.559 21.968,27.723 43.613,27.832 21.637,0.117 38.379,-4.863 34.762,-27.422 l -10.641,-66.406" /><path
             id="path68"
             style="fill:none;stroke:#ffffff;stroke-width:3.99993992;stroke-linecap:butt;stroke-linejoin:miter;stroke-miterlimit:4;stroke-dasharray:none;stroke-opacity:1"
             d="m 445.754,144.254 c -3.613,-22.57 -21.977,-27.734 -43.613,-27.844 -21.645,-0.105 -38.379,4.875 -34.77,27.434 l 10.649,66.406 c 3.613,22.559 21.968,27.723 43.613,27.832 21.637,0.117 38.379,-4.863 34.762,-27.422 l -10.641,-66.406 z" /><path
             id="path70"
             style="fill:#036998;fill-opacity:1;fill-rule:nonzero;stroke:none"
             d="m 599.387,148.238 c -4.438,-19.179 -26.899,-23.554 -53.379,-23.652 -26.488,-0.098 -46.977,4.141 -42.539,23.32 l 8.687,56.434 c 4.453,19.191 26.914,23.566 53.403,23.664 26.484,0.098 46.968,-4.141 42.539,-23.32 l -8.711,-56.446" /><path
             id="path72"
             style="fill:none;stroke:#ffffff;stroke-width:3.99993992;stroke-linecap:butt;stroke-linejoin:miter;stroke-miterlimit:4;stroke-dasharray:none;stroke-opacity:1"
             d="m 599.387,148.238 c -4.438,-19.179 -26.899,-23.554 -53.379,-23.652 -26.488,-0.098 -46.977,4.141 -42.539,23.32 l 8.687,56.434 c 4.453,19.191 26.914,23.566 53.403,23.664 26.484,0.098 46.968,-4.141 42.539,-23.32 l -8.711,-56.446 z" /><path
             id="path74"
             style="fill:#036998;fill-opacity:1;fill-rule:nonzero;stroke:none"
             d="m 235.652,165.895 -123.339,0 3.339,20 123.325,0 -3.325,-20" /><path
             id="path76"
             style="fill:none;stroke:#ffffff;stroke-width:3.99993992;stroke-linecap:butt;stroke-linejoin:miter;stroke-miterlimit:4;stroke-dasharray:none;stroke-opacity:1"
             d="m 235.652,165.895 -123.339,0 3.339,20 123.325,0 -3.325,-20 z" /><path
             id="path78"
             style="fill:#036998;fill-opacity:1;fill-rule:nonzero;stroke:none"
             d="m 228.977,135.895 -123.325,0 3.34,20 123.321,0 -3.336,-20" /><path
             id="path80"
             style="fill:none;stroke:#ffffff;stroke-width:3.99993992;stroke-linecap:butt;stroke-linejoin:miter;stroke-miterlimit:4;stroke-dasharray:none;stroke-opacity:1"
             d="m 228.977,135.895 -123.325,0 3.34,20 123.321,0 -3.336,-20 z" /><path
             id="path82"
             style="fill:#036998;fill-opacity:1;fill-rule:nonzero;stroke:none"
             d="m 222.313,105.895 -123.3208,0 3.3208,20 123.339,0 -3.339,-20" /><path
             id="path84"
             style="fill:none;stroke:#ffffff;stroke-width:3.99993992;stroke-linecap:butt;stroke-linejoin:miter;stroke-miterlimit:4;stroke-dasharray:none;stroke-opacity:1"
             d="m 222.313,105.895 -123.3208,0 3.3208,20 123.339,0 -3.339,-20 z" /><path
             id="path86"
             style="fill:#036998;fill-opacity:1;fill-rule:nonzero;stroke:none"
             d="m 215.652,75.8945 -123.3356,0 3.3399,20 123.3357,0 -3.34,-20" /><path
             id="path88"
             style="fill:none;stroke:#ffffff;stroke-width:3.99993992;stroke-linecap:butt;stroke-linejoin:miter;stroke-miterlimit:4;stroke-dasharray:none;stroke-opacity:1"
             d="m 215.652,75.8945 -123.3356,0 3.3399,20 123.3357,0 -3.34,-20 z" /><path
             id="path90"
             style="fill:#036998;fill-opacity:1;fill-rule:nonzero;stroke:none"
             d="m 615.652,49.2305 -66.66,0 23.344,33.3242 66.656,0 -23.34,-33.3242" /><path
             id="path92"
             style="fill:none;stroke:#ffffff;stroke-width:3.99993992;stroke-linecap:butt;stroke-linejoin:miter;stroke-miterlimit:4;stroke-dasharray:none;stroke-opacity:1"
             d="m 615.652,49.2305 -66.66,0 23.344,33.3242 66.656,0 -23.34,-33.3242 z" /><path
             id="path94"
             style="fill:#036998;fill-opacity:1;fill-rule:nonzero;stroke:none"
             d="m 185.266,242.555 c 50,70 146.66,53.328 146.66,53.328" /><path
             id="path96"
             style="fill:none;stroke:#ffffff;stroke-width:3.99993992;stroke-linecap:butt;stroke-linejoin:miter;stroke-miterlimit:4;stroke-dasharray:none;stroke-opacity:1"
             d="m 185.266,242.555 c 50,70 146.66,53.328 146.66,53.328" /><path
             id="path98"
             style="fill:#036998;fill-opacity:1;fill-rule:nonzero;stroke:none"
             d="m 355.266,299.215 c 0,-7.363 -10.453,-13.332 -23.34,-13.332 -12.895,0 -23.321,5.969 -23.321,13.332 0,7.363 10.426,13.34 23.321,13.34 12.887,0 23.34,-5.977 23.34,-13.34" /><path
             id="path100"
             style="fill:none;stroke:#ffffff;stroke-width:3.99993992;stroke-linecap:butt;stroke-linejoin:miter;stroke-miterlimit:4;stroke-dasharray:none;stroke-opacity:1"
             d="m 355.266,299.215 c 0,-7.363 -10.453,-13.332 -23.34,-13.332 -12.895,0 -23.321,5.969 -23.321,13.332 0,7.363 10.426,13.34 23.321,13.34 12.887,0 23.34,-5.977 23.34,-13.34 z" /><path
             id="path102"
             style="fill:none;stroke:#036998;stroke-width:8.00002956;stroke-linecap:butt;stroke-linejoin:miter;stroke-miterlimit:4;stroke-dasharray:none;stroke-opacity:1"
             d="M 140.945,195.883 114.285,65.8906" /><path
             id="path104"
             style="fill:none;stroke:#036998;stroke-width:8.00002956;stroke-linecap:butt;stroke-linejoin:miter;stroke-miterlimit:4;stroke-dasharray:none;stroke-opacity:1"
             d="M 219.172,195.883 192.512,65.8906" /><path
             id="path106"
             style="fill:none;stroke:#036998;stroke-width:8.00002956;stroke-linecap:butt;stroke-linejoin:miter;stroke-miterlimit:4;stroke-dasharray:none;stroke-opacity:1"
             d="M 178.605,195.883 151.926,65.8906" /><path
             id="path108"
             style="fill:#036998;fill-opacity:1;fill-rule:nonzero;stroke:none"
             d="m 8.33203,138.551 7.65237,45.703" /><path
             id="path110"
             style="fill:none;stroke:#ffffff;stroke-width:3.99993992;stroke-linecap:butt;stroke-linejoin:miter;stroke-miterlimit:4;stroke-dasharray:none;stroke-opacity:1"
             d="m 8.33203,138.551 7.65237,45.703" /><path
             id="path112"
             style="fill:#036998;fill-opacity:1;fill-rule:nonzero;stroke:none"
             d="M 70.9688,203.883 C 65.7148,187.789 58.7617,169.008 56.8867,150.855 L 62.5898,139.164 55.2656,85.9531 37.4688,120.277 c -5.293,26.094 21.371,129.231 32.3085,141.516 l 17.793,-34.328 -11.25,-34.539 -5.3515,10.957" /><path
             id="path114"
             style="fill:none;stroke:#ffffff;stroke-width:3.99993992;stroke-linecap:butt;stroke-linejoin:miter;stroke-miterlimit:4;stroke-dasharray:none;stroke-opacity:1"
             d="M 70.9688,203.883 C 65.7148,187.789 58.7617,169.008 56.8867,150.855 L 62.5898,139.164 55.2656,85.9531 37.4688,120.277 c -5.293,26.094 21.371,129.231 32.3085,141.516 l 17.793,-34.328 -11.25,-34.539 -5.3515,10.957 z" /><path
             id="path116"
             style="fill:#036998;fill-opacity:1;fill-rule:nonzero;stroke:none"
             d="M 2.72656,119.809 13.7031,85.3945 55.2656,85.9531 37.4688,120.277 2.72656,119.809" /><path
             id="path118"
             style="fill:none;stroke:#ffffff;stroke-width:3.99993992;stroke-linecap:butt;stroke-linejoin:miter;stroke-miterlimit:4;stroke-dasharray:none;stroke-opacity:1"
             d="M 2.72656,119.809 13.7031,85.3945 55.2656,85.9531 37.4688,120.277 2.72656,119.809 Z" /><path
             id="path120"
             style="fill:#036998;fill-opacity:1;fill-rule:nonzero;stroke:none"
             d="M 69.7773,261.793 C 58.8398,249.508 32.1758,146.371 37.4688,120.277 L 2.72656,119.809 c -5.29687,26.086 21.34764,129.23 32.28514,141.515 l 34.7656,0.469" /><path
             id="path122"
             style="fill:none;stroke:#ffffff;stroke-width:3.99993992;stroke-linecap:butt;stroke-linejoin:miter;stroke-miterlimit:4;stroke-dasharray:none;stroke-opacity:1"
             d="M 69.7773,261.793 C 58.8398,249.508 32.1758,146.371 37.4688,120.277 L 2.72656,119.809 c -5.29687,26.086 21.34764,129.23 32.28514,141.515 l 34.7656,0.469 z" /></g></g></g></g></svg>