<?xml version="1.0" encoding="UTF-8" standalone="no"?>
<svg
   xmlns:dc="http://purl.org/dc/elements/1.1/"
   xmlns:cc="http://creativecommons.org/ns#"
   xmlns:rdf="http://www.w3.org/1999/02/22-rdf-syntax-ns#"
   xmlns:svg="http://www.w3.org/2000/svg"
   xmlns="http://www.w3.org/2000/svg"
   viewBox="0 0 96.25 38.75"
   height="38.75"
   width="96.25"
   xml:space="preserve"
   version="1.1"
   id="svg2"><metadata
     id="metadata8"><rdf:RDF><cc:Work
         rdf:about=""><dc:format>image/svg+xml</dc:format><dc:type
           rdf:resource="http://purl.org/dc/dcmitype/StillImage" /></cc:Work></rdf:RDF></metadata><defs
     id="defs6" /><g
     transform="matrix(1.25,0,0,-1.25,0,38.75)"
     id="g10"><g
       transform="scale(0.1,0.1)"
       id="g12"><path
         id="path14"
         style="fill:#036998;fill-opacity:1;fill-rule:nonzero;stroke:none"
         d="m 687.852,62.1094 c 0,-3.5899 -2.891,-6.4883 -6.481,-6.4883 l -612.8202,0 c -3.5899,0 -6.4805,2.8984 -6.4805,6.4883 L 96.0898,267.422 c 0,3.558 2.8907,6.449 6.4882,6.449 l 602.031,0 c 3.59,0 6.481,-2.891 6.481,-6.449 L 687.852,62.1094" /><path
         id="path16"
         style="fill:none;stroke:#ffffff;stroke-width:3.99993992;stroke-linecap:butt;stroke-linejoin:miter;stroke-miterlimit:4;stroke-dasharray:none;stroke-opacity:1"
         d="m 687.852,62.1094 c 0,-3.5899 -2.891,-6.4883 -6.481,-6.4883 l -612.8202,0 c -3.5899,0 -6.4805,2.8984 -6.4805,6.4883 L 96.0898,267.422 c 0,3.558 2.8907,6.449 6.4882,6.449 l 602.031,0 c 3.59,0 6.481,-2.891 6.481,-6.449 L 687.852,62.1094 Z" /><path
         id="path18"
         style="fill:#036998;fill-opacity:1;fill-rule:nonzero;stroke:none"
         d="m 770.738,91.3711 c 0,-3.5625 -2.886,-6.4492 -6.476,-6.4492 L 679.34,55.6211 c -3.602,0 -6.488,2.8984 -6.488,6.4883 L 696.09,267.422 c 0,3.558 2.89,6.449 6.488,6.449 l 62.031,0 c 3.59,0 6.481,-2.891 6.481,-6.449 L 770.738,91.3711" /><path
         id="path20"
         style="fill:none;stroke:#ffffff;stroke-width:3.99993992;stroke-linecap:butt;stroke-linejoin:miter;stroke-miterlimit:4;stroke-dasharray:none;stroke-opacity:1"
         d="m 770.738,91.3711 c 0,-3.5625 -2.886,-6.4492 -6.476,-6.4492 L 679.34,55.6211 c -3.602,0 -6.488,2.8984 -6.488,6.4883 L 696.09,267.422 c 0,3.558 2.89,6.449 6.488,6.449 l 62.031,0 c 3.59,0 6.481,-2.891 6.481,-6.449 L 770.738,91.3711 Z" /><path
         id="path22"
         style="fill:#036998;fill-opacity:1;fill-rule:nonzero;stroke:none"
         d="m 628.59,27.0703 -210.969,0 59.527,77.1097 199.532,0 -48.09,-77.1097" /><path
         id="path24"
         style="fill:none;stroke:#ffffff;stroke-width:3.99993992;stroke-linecap:butt;stroke-linejoin:miter;stroke-miterlimit:4;stroke-dasharray:none;stroke-opacity:1"
         d="m 628.59,27.0703 -210.969,0 59.527,77.1097 199.532,0 -48.09,-77.1097 z" /><path
         id="path26"
         style="fill:#036998;fill-opacity:1;fill-rule:nonzero;stroke:none"
         d="m 628.59,2.07031 -210.969,0 2.379,23.98049 208.59,0 0,-23.98049" /><path
         id="path28"
         style="fill:none;stroke:#ffffff;stroke-width:3.99993992;stroke-linecap:butt;stroke-linejoin:miter;stroke-miterlimit:4;stroke-dasharray:none;stroke-opacity:1"
         d="m 628.59,2.07031 -210.969,0 2.379,23.98049 208.59,0 0,-23.98049 z" /><path
         id="path30"
         style="fill:#036998;fill-opacity:1;fill-rule:nonzero;stroke:none"
         d="m 677.969,104.02 0,-49.2505 -50.699,-54.218719 0,28.320319 50.699,75.1489" /><path
         id="path32"
         style="fill:none;stroke:#ffffff;stroke-width:3.99993992;stroke-linecap:butt;stroke-linejoin:miter;stroke-miterlimit:4;stroke-dasharray:none;stroke-opacity:1"
         d="m 677.969,104.02 0,-49.2505 -50.699,-54.218719 0,28.320319 50.699,75.1489 z" /><path
         id="path34"
         style="fill:#036998;fill-opacity:1;fill-rule:nonzero;stroke:none"
         d="M 277.93,270.699 246.449,56.3711" /><path
         id="path36"
         style="fill:none;stroke:#ffffff;stroke-width:3.99993992;stroke-linecap:butt;stroke-linejoin:miter;stroke-miterlimit:4;stroke-dasharray:none;stroke-opacity:1"
         d="M 277.93,270.699 246.449,56.3711" /><path
         id="path38"
         style="fill:#036998;fill-opacity:1;fill-rule:nonzero;stroke:none"
         d="M 496.801,272.191 475,102.031" /><path
         id="path40"
         style="fill:none;stroke:#ffffff;stroke-width:3.99993992;stroke-linecap:butt;stroke-linejoin:miter;stroke-miterlimit:4;stroke-dasharray:none;stroke-opacity:1"
         d="M 496.801,272.191 475,102.031" /><path
         id="path42"
         style="fill:#036998;fill-opacity:1;fill-rule:nonzero;stroke:none"
         d="m 678.59,196.371 c 0,-13.793 -11.168,-25 -25,-25 -13.789,0 -25,11.207 -25,25 0,13.828 11.211,25 25,25 13.832,0 25,-11.172 25,-25" /><path
         id="path44"
         style="fill:none;stroke:#ffffff;stroke-width:3.99993992;stroke-linecap:butt;stroke-linejoin:miter;stroke-miterlimit:4;stroke-dasharray:none;stroke-opacity:1"
         d="m 678.59,196.371 c 0,-13.793 -11.168,-25 -25,-25 -13.789,0 -25,11.207 -25,25 0,13.828 11.211,25 25,25 13.832,0 25,-11.172 25,-25 z" /><path
         id="path46"
         style="fill:#036998;fill-opacity:1;fill-rule:nonzero;stroke:none"
         d="m 201.09,226.371 c 0,-13.793 -11.168,-25 -25,-25 -13.789,0 -25,11.207 -25,25 0,13.828 11.211,25 25,25 13.832,0 25,-11.172 25,-25" /><path
         id="path48"
         style="fill:none;stroke:#ffffff;stroke-width:3.99993992;stroke-linecap:butt;stroke-linejoin:miter;stroke-miterlimit:4;stroke-dasharray:none;stroke-opacity:1"
         d="m 201.09,226.371 c 0,-13.793 -11.168,-25 -25,-25 -13.789,0 -25,11.207 -25,25 0,13.828 11.211,25 25,25 13.832,0 25,-11.172 25,-25 z" /><path
         id="path50"
         style="fill:#036998;fill-opacity:1;fill-rule:nonzero;stroke:none"
         d="M 533.48,63.75 C 527.699,52.2695 510,43.6719 493.871,44.6094 c -16.101,0.9023 -24.492,10.9804 -18.75,22.5 5.738,11.4804 23.469,20.082 39.57,19.1406 16.129,-0.8984 24.528,-10.9805 18.789,-22.5" /><path
         id="path52"
         style="fill:none;stroke:#ffffff;stroke-width:3.99993992;stroke-linecap:butt;stroke-linejoin:miter;stroke-miterlimit:4;stroke-dasharray:none;stroke-opacity:1"
         d="M 533.48,63.75 C 527.699,52.2695 510,43.6719 493.871,44.6094 c -16.101,0.9023 -24.492,10.9804 -18.75,22.5 5.738,11.4804 23.469,20.082 39.57,19.1406 16.129,-0.8984 24.528,-10.9805 18.789,-22.5 z" /><path
         id="path54"
         style="fill:#036998;fill-opacity:1;fill-rule:nonzero;stroke:none"
         d="m 358.238,139.77 c -3.59,-22.579 -21.949,-27.739 -43.59,-27.86 -21.636,-0.109 -38.398,4.891 -34.769,27.43 l 10.633,66.398 c 3.629,22.582 21.988,27.742 43.629,27.852 21.64,0.121 38.359,-4.879 34.769,-27.418 L 358.238,139.77" /><path
         id="path56"
         style="fill:none;stroke:#ffffff;stroke-width:3.99993992;stroke-linecap:butt;stroke-linejoin:miter;stroke-miterlimit:4;stroke-dasharray:none;stroke-opacity:1"
         d="m 358.238,139.77 c -3.59,-22.579 -21.949,-27.739 -43.59,-27.86 -21.636,-0.109 -38.398,4.891 -34.769,27.43 l 10.633,66.398 c 3.629,22.582 21.988,27.742 43.629,27.852 21.64,0.121 38.359,-4.879 34.769,-27.418 L 358.238,139.77 Z" /><path
         id="path58"
         style="fill:#036998;fill-opacity:1;fill-rule:nonzero;stroke:none"
         d="m 445.738,139.77 c -3.59,-22.579 -21.949,-27.739 -43.59,-27.86 -21.636,-0.109 -38.398,4.891 -34.769,27.43 l 10.633,66.398 c 3.629,22.582 21.988,27.742 43.629,27.852 21.64,0.121 38.359,-4.879 34.769,-27.418 L 445.738,139.77" /><path
         id="path60"
         style="fill:none;stroke:#ffffff;stroke-width:3.99993992;stroke-linecap:butt;stroke-linejoin:miter;stroke-miterlimit:4;stroke-dasharray:none;stroke-opacity:1"
         d="m 445.738,139.77 c -3.59,-22.579 -21.949,-27.739 -43.59,-27.86 -21.636,-0.109 -38.398,4.891 -34.769,27.43 l 10.633,66.398 c 3.629,22.582 21.988,27.742 43.629,27.852 21.64,0.121 38.359,-4.879 34.769,-27.418 L 445.738,139.77 Z" /><path
         id="path62"
         style="fill:#036998;fill-opacity:1;fill-rule:nonzero;stroke:none"
         d="m 599.379,143.75 c -4.418,-19.18 -26.879,-23.551 -53.359,-23.672 -26.489,-0.078 -47,4.141 -42.54,23.32 l 8.668,56.442 c 4.454,19.18 26.911,23.558 53.403,23.68 26.48,0.07 46.988,-4.141 42.539,-23.321 l -8.711,-56.449" /><path
         id="path64"
         style="fill:none;stroke:#ffffff;stroke-width:3.99993992;stroke-linecap:butt;stroke-linejoin:miter;stroke-miterlimit:4;stroke-dasharray:none;stroke-opacity:1"
         d="m 599.379,143.75 c -4.418,-19.18 -26.879,-23.551 -53.359,-23.672 -26.489,-0.078 -47,4.141 -42.54,23.32 l 8.668,56.442 c 4.454,19.18 26.911,23.558 53.403,23.68 26.48,0.07 46.988,-4.141 42.539,-23.321 l -8.711,-56.449 z" /><path
         id="path66"
         style="fill:#036998;fill-opacity:1;fill-rule:nonzero;stroke:none"
         d="m 235.66,161.41 -123.359,0 3.359,20 123.32,0 -3.32,-20" /><path
         id="path68"
         style="fill:none;stroke:#ffffff;stroke-width:3.99993992;stroke-linecap:butt;stroke-linejoin:miter;stroke-miterlimit:4;stroke-dasharray:none;stroke-opacity:1"
         d="m 235.66,161.41 -123.359,0 3.359,20 123.32,0 -3.32,-20 z" /><path
         id="path70"
         style="fill:#036998;fill-opacity:1;fill-rule:nonzero;stroke:none"
         d="m 228.98,131.41 -123.32,0 3.32,20 123.321,0 -3.321,-20" /><path
         id="path72"
         style="fill:none;stroke:#ffffff;stroke-width:3.99993992;stroke-linecap:butt;stroke-linejoin:miter;stroke-miterlimit:4;stroke-dasharray:none;stroke-opacity:1"
         d="m 228.98,131.41 -123.32,0 3.32,20 123.321,0 -3.321,-20 z" /><path
         id="path74"
         style="fill:#036998;fill-opacity:1;fill-rule:nonzero;stroke:none"
         d="m 222.301,101.41 -123.3205,0 3.3205,20 123.359,0 -3.359,-20" /><path
         id="path76"
         style="fill:none;stroke:#ffffff;stroke-width:3.99993992;stroke-linecap:butt;stroke-linejoin:miter;stroke-miterlimit:4;stroke-dasharray:none;stroke-opacity:1"
         d="m 222.301,101.41 -123.3205,0 3.3205,20 123.359,0 -3.359,-20 z" /><path
         id="path78"
         style="fill:#036998;fill-opacity:1;fill-rule:nonzero;stroke:none"
         d="m 215.66,71.4102 -123.3592,0 3.3594,20 123.3198,0 -3.32,-20" /><path
         id="path80"
         style="fill:none;stroke:#ffffff;stroke-width:3.99993992;stroke-linecap:butt;stroke-linejoin:miter;stroke-miterlimit:4;stroke-dasharray:none;stroke-opacity:1"
         d="m 215.66,71.4102 -123.3592,0 3.3594,20 123.3198,0 -3.32,-20 z" /><path
         id="path82"
         style="fill:#036998;fill-opacity:1;fill-rule:nonzero;stroke:none"
         d="m 615.66,44.7305 -66.68,0 23.36,33.3203 66.64,0 -23.32,-33.3203" /><path
         id="path84"
         style="fill:none;stroke:#ffffff;stroke-width:3.99993992;stroke-linecap:butt;stroke-linejoin:miter;stroke-miterlimit:4;stroke-dasharray:none;stroke-opacity:1"
         d="m 615.66,44.7305 -66.68,0 23.36,33.3203 66.64,0 -23.32,-33.3203 z" /><path
         id="path86"
         style="fill:#036998;fill-opacity:1;fill-rule:nonzero;stroke:none"
         d="m 185.27,238.051 c 50,70 146.64,53.32 146.64,53.32" /><path
         id="path88"
         style="fill:none;stroke:#ffffff;stroke-width:3.99993992;stroke-linecap:butt;stroke-linejoin:miter;stroke-miterlimit:4;stroke-dasharray:none;stroke-opacity:1"
         d="m 185.27,238.051 c 50,70 146.64,53.32 146.64,53.32" /><path
         id="path90"
         style="fill:#036998;fill-opacity:1;fill-rule:nonzero;stroke:none"
         d="m 355.27,294.73 c 0,-7.39 -10.469,-13.359 -23.36,-13.359 -12.89,0 -23.32,5.969 -23.32,13.359 0,7.34 10.43,13.321 23.32,13.321 12.891,0 23.36,-5.981 23.36,-13.321" /><path
         id="path92"
         style="fill:none;stroke:#ffffff;stroke-width:3.99993992;stroke-linecap:butt;stroke-linejoin:miter;stroke-miterlimit:4;stroke-dasharray:none;stroke-opacity:1"
         d="m 355.27,294.73 c 0,-7.39 -10.469,-13.359 -23.36,-13.359 -12.89,0 -23.32,5.969 -23.32,13.359 0,7.34 10.43,13.321 23.32,13.321 12.891,0 23.36,-5.981 23.36,-13.321 z" /><path
         id="path94"
         style="fill:none;stroke:#036998;stroke-width:8.00002956;stroke-linecap:butt;stroke-linejoin:miter;stroke-miterlimit:4;stroke-dasharray:none;stroke-opacity:1"
         d="M 140.941,191.371 114.301,61.3711" /><path
         id="path96"
         style="fill:none;stroke:#036998;stroke-width:8.00002956;stroke-linecap:butt;stroke-linejoin:miter;stroke-miterlimit:4;stroke-dasharray:none;stroke-opacity:1"
         d="M 219.18,191.371 192.5,61.3711" /><path
         id="path98"
         style="fill:none;stroke:#036998;stroke-width:8.00002956;stroke-linecap:butt;stroke-linejoin:miter;stroke-miterlimit:4;stroke-dasharray:none;stroke-opacity:1"
         d="M 178.59,191.371 151.91,61.3711" /><path
         id="path100"
         style="fill:#036998;fill-opacity:1;fill-rule:nonzero;stroke:none"
         d="M 8.32031,134.059 15.9805,179.77" /><path
         id="path102"
         style="fill:none;stroke:#ffffff;stroke-width:3.99993992;stroke-linecap:butt;stroke-linejoin:miter;stroke-miterlimit:4;stroke-dasharray:none;stroke-opacity:1"
         d="M 8.32031,134.059 15.9805,179.77" /><path
         id="path104"
         style="fill:#036998;fill-opacity:1;fill-rule:nonzero;stroke:none"
         d="M 70.9805,199.379 C 65.6992,183.281 58.75,164.488 56.8789,146.371 L 62.5781,134.648 55.2695,81.4492 37.4609,115.781 C 32.1914,141.879 58.8281,245 69.7695,257.301 l 17.8086,-34.332 -11.25,-34.528 -5.3476,10.938" /><path
         id="path106"
         style="fill:none;stroke:#ffffff;stroke-width:3.99993992;stroke-linecap:butt;stroke-linejoin:miter;stroke-miterlimit:4;stroke-dasharray:none;stroke-opacity:1"
         d="M 70.9805,199.379 C 65.6992,183.281 58.75,164.488 56.8789,146.371 L 62.5781,134.648 55.2695,81.4492 37.4609,115.781 C 32.1914,141.879 58.8281,245 69.7695,257.301 l 17.8086,-34.332 -11.25,-34.528 -5.3476,10.938 z" /><path
         id="path108"
         style="fill:#036998;fill-opacity:1;fill-rule:nonzero;stroke:none"
         d="M 2.73047,115.309 13.7109,80.8984 55.2695,81.4492 37.4609,115.781 2.73047,115.309" /><path
         id="path110"
         style="fill:none;stroke:#ffffff;stroke-width:3.99993992;stroke-linecap:butt;stroke-linejoin:miter;stroke-miterlimit:4;stroke-dasharray:none;stroke-opacity:1"
         d="M 2.73047,115.309 13.7109,80.8984 55.2695,81.4492 37.4609,115.781 2.73047,115.309 Z" /><path
         id="path112"
         style="fill:#036998;fill-opacity:1;fill-rule:nonzero;stroke:none"
         d="M 69.7695,257.301 C 58.8281,245 32.1914,141.879 37.4609,115.781 L 2.73047,115.309 C -2.57813,141.41 24.0586,244.531 35,256.84 l 34.7695,0.461" /><path
         id="path114"
         style="fill:none;stroke:#ffffff;stroke-width:3.99993992;stroke-linecap:butt;stroke-linejoin:miter;stroke-miterlimit:4;stroke-dasharray:none;stroke-opacity:1"
         d="M 69.7695,257.301 C 58.8281,245 32.1914,141.879 37.4609,115.781 L 2.73047,115.309 C -2.57813,141.41 24.0586,244.531 35,256.84 l 34.7695,0.461 z" /></g></g></svg>