<?xml version="1.0" encoding="UTF-8" standalone="no"?>
<svg
   xmlns:dc="http://purl.org/dc/elements/1.1/"
   xmlns:cc="http://creativecommons.org/ns#"
   xmlns:rdf="http://www.w3.org/1999/02/22-rdf-syntax-ns#"
   xmlns:svg="http://www.w3.org/2000/svg"
   xmlns="http://www.w3.org/2000/svg"
   viewBox="0 0 32.5 33.75"
   height="33.75"
   width="32.5"
   xml:space="preserve"
   version="1.1"
   id="svg2"><metadata
     id="metadata8"><rdf:RDF><cc:Work
         rdf:about=""><dc:format>image/svg+xml</dc:format><dc:type
           rdf:resource="http://purl.org/dc/dcmitype/StillImage" /></cc:Work></rdf:RDF></metadata><defs
     id="defs6"><clipPath
       id="clipPath18"
       clipPathUnits="userSpaceOnUse"><path
         id="path20"
         d="M 0,9 0,269 260,269 260,9 0,9 Z" /></clipPath></defs><g
     transform="matrix(1.25,0,0,-1.25,0,33.75)"
     id="g10"><g
       transform="scale(0.1,0.1)"
       id="g12"><g
         id="g14"><g
           clip-path="url(#clipPath18)"
           id="g16"><path
             id="path22"
             style="fill:#036998;fill-opacity:1;fill-rule:nonzero;stroke:none"
             d="M 258.199,92.7148 232.07,55.457 l -226.76141,0 37.42191,37.2578 215.4685,0" /><path
             id="path24"
             style="fill:none;stroke:#ffffff;stroke-width:3.99993992;stroke-linecap:butt;stroke-linejoin:miter;stroke-miterlimit:4;stroke-dasharray:none;stroke-opacity:1"
             d="M 258.199,92.7148 232.07,55.457 l -226.76141,0 37.42191,37.2578 215.4685,0 z" /><path
             id="path26"
             style="fill:#036998;fill-opacity:1;fill-rule:nonzero;stroke:none"
             d="m 5.30859,14.9063 216.48,0 0,40.5508 -216.48,0 0,-40.5508 z" /><path
             id="path28"
             style="fill:none;stroke:#ffffff;stroke-width:3.99993992;stroke-linecap:butt;stroke-linejoin:miter;stroke-miterlimit:4;stroke-dasharray:none;stroke-opacity:1"
             d="m 5.30859,14.9063 216.48,0 0,40.5508 -216.48,0 0,-40.5508 z" /><path
             id="path30"
             style="fill:#036998;fill-opacity:1;fill-rule:nonzero;stroke:none"
             d="m 5.30859,64.3945 215.043,0 0,162.66 -215.043,0 0,-162.66 z" /><path
             id="path32"
             style="fill:none;stroke:#ffffff;stroke-width:3.99993992;stroke-linecap:butt;stroke-linejoin:miter;stroke-miterlimit:4;stroke-dasharray:none;stroke-opacity:1"
             d="m 5.30859,64.3945 215.043,0 0,162.66 -215.043,0 0,-162.66 z" /><path
             id="path34"
             style="fill:#036998;fill-opacity:1;fill-rule:nonzero;stroke:none"
             d="m 220.352,64.3945 36.796,36.8005 0,162.66 -36.796,-36.8 0,-162.6605" /><path
             id="path36"
             style="fill:none;stroke:#ffffff;stroke-width:3.99993992;stroke-linecap:butt;stroke-linejoin:miter;stroke-miterlimit:4;stroke-dasharray:none;stroke-opacity:1"
             d="m 220.352,64.3945 36.796,36.8005 0,162.66 -36.796,-36.8 0,-162.6605 z" /><path
             id="path38"
             style="fill:#036998;fill-opacity:1;fill-rule:nonzero;stroke:none"
             d="m 221.602,14.8242 0,40.6328 36.597,36.3594 0,-40.4219 -36.597,-36.5703" /><path
             id="path40"
             style="fill:none;stroke:#ffffff;stroke-width:3.99993992;stroke-linecap:butt;stroke-linejoin:miter;stroke-miterlimit:4;stroke-dasharray:none;stroke-opacity:1"
             d="m 221.602,14.8242 0,40.6328 36.597,36.3594 0,-40.4219 -36.597,-36.5703 z" /><path
             id="path42"
             style="fill:#ffffff;fill-opacity:1;fill-rule:nonzero;stroke:none"
             d="m 40.3906,208.305 144.1794,0 c 9.379,0 16.989,-7.578 16.989,-16.989 l 0,-91.101 c 0,-9.3712 -7.61,-16.9494 -16.989,-16.9494 l -144.1794,0 c -9.4101,0 -17.0312,7.5782 -17.0312,16.9494 l 0,91.101 c 0,9.411 7.6211,16.989 17.0312,16.989" /><path
             id="path44"
             style="fill:none;stroke:#ffffff;stroke-width:3.99993992;stroke-linecap:butt;stroke-linejoin:miter;stroke-miterlimit:4;stroke-dasharray:none;stroke-opacity:1"
             d="m 40.3906,208.305 144.1794,0 c 9.379,0 16.989,-7.578 16.989,-16.989 l 0,-91.101 c 0,-9.3712 -7.61,-16.9494 -16.989,-16.9494 l -144.1794,0 c -9.4101,0 -17.0312,7.5782 -17.0312,16.9494 l 0,91.101 c 0,9.411 7.6211,16.989 17.0312,16.989 z" /><path
             id="path46"
             style="fill:#036998;fill-opacity:1;fill-rule:nonzero;stroke:none"
             d="m 257.148,263.855 -209.8785,0 -41.96091,-36.8 215.04341,0 36.796,36.8" /><path
             id="path48"
             style="fill:none;stroke:#ffffff;stroke-width:3.99993992;stroke-linecap:butt;stroke-linejoin:miter;stroke-miterlimit:4;stroke-dasharray:none;stroke-opacity:1"
             d="m 257.148,263.855 -209.8785,0 -41.96091,-36.8 215.04341,0 36.796,36.8 z" /><path
             id="path50"
             style="fill:#036998;fill-opacity:1;fill-rule:nonzero;stroke:none"
             d="m 42.8516,34.6758 c 0,-7.0313 -5.7032,-12.7422 -12.7305,-12.7422 -7.0703,0 -12.7422,5.7109 -12.7422,12.7422 0,7.0703 5.6719,12.7695 12.7422,12.7695 7.0273,0 12.7305,-5.6992 12.7305,-12.7695" /><path
             id="path52"
             style="fill:none;stroke:#ffffff;stroke-width:3.99993992;stroke-linecap:butt;stroke-linejoin:miter;stroke-miterlimit:4;stroke-dasharray:none;stroke-opacity:1"
             d="m 42.8516,34.6758 c 0,-7.0313 -5.7032,-12.7422 -12.7305,-12.7422 -7.0703,0 -12.7422,5.7109 -12.7422,12.7422 0,7.0703 5.6719,12.7695 12.7422,12.7695 7.0273,0 12.7305,-5.6992 12.7305,-12.7695 z" /><path
             id="path54"
             style="fill:#036998;fill-opacity:1;fill-rule:nonzero;stroke:none"
             d="m 211.68,34.6758 c 0,-7.0313 -5.739,-12.7422 -12.77,-12.7422 -7.031,0 -12.781,5.7109 -12.781,12.7422 0,7.0703 5.75,12.7695 12.781,12.7695 7.031,0 12.77,-5.6992 12.77,-12.7695" /><path
             id="path56"
             style="fill:none;stroke:#ffffff;stroke-width:3.99993992;stroke-linecap:butt;stroke-linejoin:miter;stroke-miterlimit:4;stroke-dasharray:none;stroke-opacity:1"
             d="m 211.68,34.6758 c 0,-7.0313 -5.739,-12.7422 -12.77,-12.7422 -7.031,0 -12.781,5.7109 -12.781,12.7422 0,7.0703 5.75,12.7695 12.781,12.7695 7.031,0 12.77,-5.6992 12.77,-12.7695 z" /><path
             id="path58"
             style="fill:#036998;fill-opacity:1;fill-rule:nonzero;stroke:none"
             d="m 91.0508,31.3945 c 0,-3.6406 -2.961,-6.6093 -6.6016,-6.6093 -3.6289,0 -6.5586,2.9687 -6.5586,6.6093 0,3.6289 2.9297,6.5625 6.5586,6.5625 3.6406,0 6.6016,-2.9336 6.6016,-6.5625" /><path
             id="path60"
             style="fill:none;stroke:#ffffff;stroke-width:3.99993992;stroke-linecap:butt;stroke-linejoin:miter;stroke-miterlimit:4;stroke-dasharray:none;stroke-opacity:1"
             d="m 91.0508,31.3945 c 0,-3.6406 -2.961,-6.6093 -6.6016,-6.6093 -3.6289,0 -6.5586,2.9687 -6.5586,6.6093 0,3.6289 2.9297,6.5625 6.5586,6.5625 3.6406,0 6.6016,-2.9336 6.6016,-6.5625 z" /><path
             id="path62"
             style="fill:#036998;fill-opacity:1;fill-rule:nonzero;stroke:none"
             d="m 117.379,31.3945 c 0,-3.6406 -2.93,-6.6093 -6.598,-6.6093 -3.633,0 -6.562,2.9687 -6.562,6.6093 0,3.6289 2.929,6.5625 6.562,6.5625 3.668,0 6.598,-2.9336 6.598,-6.5625" /><path
             id="path64"
             style="fill:none;stroke:#ffffff;stroke-width:3.99993992;stroke-linecap:butt;stroke-linejoin:miter;stroke-miterlimit:4;stroke-dasharray:none;stroke-opacity:1"
             d="m 117.379,31.3945 c 0,-3.6406 -2.93,-6.6093 -6.598,-6.6093 -3.633,0 -6.562,2.9687 -6.562,6.6093 0,3.6289 2.929,6.5625 6.562,6.5625 3.668,0 6.598,-2.9336 6.598,-6.5625 z" /><path
             id="path66"
             style="fill:#036998;fill-opacity:1;fill-rule:nonzero;stroke:none"
             d="m 143.75,31.3945 c 0,-3.6406 -2.969,-6.6093 -6.602,-6.6093 -3.628,0 -6.597,2.9687 -6.597,6.6093 0,3.6289 2.969,6.5625 6.597,6.5625 3.633,0 6.602,-2.9336 6.602,-6.5625" /><path
             id="path68"
             style="fill:none;stroke:#ffffff;stroke-width:3.99993992;stroke-linecap:butt;stroke-linejoin:miter;stroke-miterlimit:4;stroke-dasharray:none;stroke-opacity:1"
             d="m 143.75,31.3945 c 0,-3.6406 -2.969,-6.6093 -6.602,-6.6093 -3.628,0 -6.597,2.9687 -6.597,6.6093 0,3.6289 2.969,6.5625 6.597,6.5625 3.633,0 6.602,-2.9336 6.602,-6.5625 z" /><path
             id="path70"
             style="fill:#fbfbfb;fill-opacity:1;fill-rule:nonzero;stroke:none"
             d="m 70.4688,187.246 19.2226,17.039 14.2576,-6.609 -1.648,-15.352 4.929,-10.969 -5.468,-14.851 -0.391,-3.32 c -1.101,-3.868 -4.9608,-2.188 -4.9608,-2.188 l -6.7188,-26.32 -18.1328,23.629 -2.1797,10.429 -7.6992,21.95" /><path
             id="path72"
             style="fill:#036998;fill-opacity:1;fill-rule:nonzero;stroke:none"
             d="m 78.8711,191.547 c 0.8984,-1.09 1.25,-2.582 1.3594,-3.59 0.5078,-4.73 -1.211,-9.531 -2.8907,-13.953 -0.4609,-1.129 -0.3906,-4.137 -1.7187,-3.238 -1.5625,1.019 -2.8906,3.359 -4.5703,3.949 -2.0703,0.699 -4.25,-1.41 -6.3203,-2.578 3.8203,-5.121 8.5078,-10.391 6.4804,-17.071 -4.8398,7.18 -9.9609,14.25 -13.5507,22.028 -1.961,4.222 -1.211,10.39 1.3593,13.871 3.9493,5.39 9.9297,9.961 16.4922,11.64 8.8672,2.262 17.7266,4.102 26.8283,4.211 -8.2384,-4.14 -16.0119,-8.121 -23.9806,-13.671 -0.4297,-0.309 0.1211,-1.09 0.5117,-1.598" /><path
             id="path74"
             style="fill:#036998;fill-opacity:1;fill-rule:nonzero;stroke:none"
             d="m 110.078,190.887 c -2.109,-4.032 -4.058,-7.973 -6.558,-11.723 0.152,0.582 -0.122,1.012 -0.59,1.133 -1.168,0.199 -2.7,-0.352 -3.3206,0.277 -0.5508,0.582 -0.5508,2.461 0,3.121 0.6996,0.739 2.8516,-0.39 3.0116,-0.199 4.02,6.488 -3.4413,11.758 -6.1405,17.43 5.9805,0.109 10.7895,-3.832 16.4495,-4.692 -1.168,-1.679 -1.91,-3.519 -2.852,-5.347" /><path
             id="path76"
             style="fill:#036998;fill-opacity:1;fill-rule:nonzero;stroke:none"
             d="m 87.6602,179.715 c -0.9805,0.152 -2.5391,-0.121 -2.6211,0.152 -1.7188,5.707 6.1328,3.008 9.6914,4.61 -0.8594,-3.75 -3.0508,-5.512 -7.0703,-4.762" /><path
             id="path78"
             style="fill:#036998;fill-opacity:1;fill-rule:nonzero;stroke:none"
             d="m 98.6289,168.266 -4.1406,0 c 1.6406,1.41 3.3633,2.66 5.3125,3.519 -0.1914,-1.211 0.1601,-2.39 0.5902,-3.519 l -1.7621,0" /><path
             id="path80"
             style="fill:#036998;fill-opacity:1;fill-rule:nonzero;stroke:none"
             d="m 97.4609,161.234 -8.1992,0 c 0.9688,0.942 2.5,1.289 3.5469,1.411 2.6211,0.269 6.0625,2.14 8.1714,-1.411 l -3.5191,0" /><path
             id="path82"
             style="fill:#036998;fill-opacity:1;fill-rule:nonzero;stroke:none"
             d="m 96.8008,158.734 c 1.9883,-0.859 -0.8203,-0.859 -0.5117,-1.64 -1.5196,-0.348 -2.0274,1.09 -2.9688,1.801 1.168,0 2.5,0.269 3.4805,-0.161" /><path
             id="path84"
             style="fill:#036998;fill-opacity:1;fill-rule:nonzero;stroke:none"
             d="m 138.672,101.586 c 0.039,3.789 0.937,7.73 1.84,11.758 0.816,3.441 2.297,7.383 1.129,9.613 -1.563,3.078 -5.7,5.66 -9.411,7.109 -10.468,4.02 -20.75,7.731 -30.902,12.379 l -1.5975,-0.59 1.7495,-25.859 -8.7808,-28.2421" /><path
             id="path86"
             style="fill:#036998;fill-opacity:1;fill-rule:nonzero;stroke:none"
             d="M 92.6992,86.625 73.8711,113.105 65,140.965 c -1.6797,-1.141 -3.4414,-2.11 -5.1992,-2.93 -12.8125,-5.859 -23.3516,-7.66 -35.3516,-15.238 0.0821,-24.7618 10.7813,-15.192 9.3789,-39.84" /><path
             id="path88"
             style="fill:#9ac3d6;fill-opacity:1;fill-rule:nonzero;stroke:none"
             d="m 90.6211,84.0859 10.8589,31.9101 -1.7495,25.859 -3.5586,3.52 -5.8633,-10.859 -19.0977,15.269 c 0,-3.82 -6.25,-7.539 -6.25,-7.539 l 8.9102,-28 18.8281,-26.4921" /><path
             id="path90"
             style="fill:#036998;fill-opacity:1;fill-rule:nonzero;stroke:none"
             d="m 84.1797,88.0742 4.0586,39.0628 -2.2969,2.968 2.2969,3.79 2.3828,-1.45 1.4492,1.762 2.3789,-3.242 -2.9687,-4.11 4.4609,-34.2886" /><path
             id="path92"
             style="fill:#036998;fill-opacity:1;fill-rule:nonzero;stroke:none"
             d="m 119.488,126.547 c -1.828,1.949 -5.308,1.988 -5.269,5.269 2.031,0 4.101,-0.152 5.859,1.18 -3.476,1.289 -5.199,4.41 -5.547,7.649 -0.043,0.429 0.778,2.152 1.41,2.07 1.399,-0.11 1.481,-2.539 3.008,-3.238 0.5,-0.231 0.973,0.117 1.09,0.589 0.43,1.829 -0.238,3.508 -0.551,5.27 1.961,-0.621 5.473,-1.371 5.434,0.59 -0.043,2.89 -4.063,6.09 -1.563,8.429 0.7,0.711 3.551,-2.929 3.832,-0.738 0.231,2.11 -2.812,4.567 -2.621,6.957 0.16,1.672 3.399,2.102 4.02,3.711 1.058,2.649 -1.129,6.051 -0.352,8.551 2.231,7.34 6.563,13.828 10.082,20.699 9.02,0.281 12.418,9.11 26.989,1.41 0.39,-0.23 -1.438,0.078 -1.047,-0.781 0.187,-0.469 0.66,-1.059 1.09,-1.09 2.418,-0.199 5.199,0.231 6.207,-2 0.742,-1.64 -1.68,-3.59 -1.168,-5.078 0.781,-2.223 5.16,-1.211 5.629,-3.16 0.929,-3.789 -3.481,-7.5 -2.899,-10.941 0.32,-1.911 4.649,-2.731 5.981,-5.04 1.519,-2.609 -0.43,-6.398 2.109,-9.179 1.019,1.219 2.23,2.109 3.559,2.929 0.351,-2.3 1.281,-4.41 2.339,-6.441 1.481,1.992 3.282,3.793 4.692,5.859 1.398,-1.168 0.777,-3.359 0.308,-3.789 -2.5,-2.418 -4.918,-5.589 -8.437,-6.519 -0.473,-0.121 -0.742,-0.43 -0.942,-0.86 l -4.14,2.34 c -0.5,-1.019 2.93,-2.5 1.449,-2.929 l 0.582,-2.34 c 2.149,-2.309 4.649,-0.75 7.078,0 1.211,-4.11 -4.301,-4.653 -4.847,-7.742 -0.274,-1.559 2.66,-1.129 4.257,-0.469 -0.55,-2.93 -3.05,-4.41 -4.687,-6.481" /><path
             id="path94"
             style="fill:#036998;fill-opacity:1;fill-rule:nonzero;stroke:none"
             d="m 93.4414,83.4961 c 2.6094,12.8594 1.1289,21.0979 2.5391,33.5979 7.3395,4.492 15.3475,7.383 23.5075,10 l 36.172,7.929 26.762,-3.238 c 5.508,-1.879 11.488,-1.64 17.027,-3.519 4.852,-13.012 -8.668,-28.012 -3.859,-41.1293 l -3.68,-3.3633" /><path
             id="path96"
             style="fill:#ffffff;fill-opacity:1;fill-rule:nonzero;stroke:none"
             d="m 167.73,117.797 c -0.39,0.16 -0.621,0.668 -1.21,0.508 0,0.781 -0.27,1.8 0.16,2.191 0.39,0.43 1.41,0.149 2.191,0.149 -0.16,-0.579 0.188,-0.899 0.617,-1.168 1.293,4.097 0.121,8.277 -0.468,12.269 -0.192,1.559 -3.551,1.481 -4.489,2.688 -1.832,2.382 -2.851,10.902 -0.429,10.742 6.289,-0.461 6.597,11.758 8.437,18.64 0.742,2.77 -0.699,3.75 -1.918,6.789 -0.82,-0.351 -0.351,-1.441 -0.66,-1.601 -1.332,-0.66 -3.359,-1.52 -4.41,-0.539 -0.59,0.582 -0.59,2.57 0,3.121 1.051,0.898 5.66,1.641 5.578,1.519 1.141,3.211 -0.699,5.79 -2.848,8.68 -1.051,-1.64 -2.152,-2.07 -4.101,-1.762 1.25,1.051 1.172,4.532 -0.309,3.672 -2.5,-1.48 -2.191,-6.019 -6.172,-6.019 0.11,1.679 0.11,3.359 -1.179,4.691 -1.25,-1.871 -2.692,-3.941 -4.641,-3.711 -1.289,0.16 -0.859,3.949 -2.699,2.231 -2.149,-1.961 1.601,-4.653 0.781,-7.313 -1.563,-5.269 -1.52,-10.39 -4.449,-15.39 -0.434,-0.739 -0.391,-1.989 0,-2.809 0.578,-1.289 1.789,-2.191 3.398,-1.801 -0.082,-2.301 -2.539,-1.008 -3.441,-2.418 -0.27,-0.429 -0.27,-1.211 0,-1.64 1.09,-1.911 3.203,-2.032 5.191,-1.84 -0.539,-3.551 -4.57,-4.059 -7.07,-2.34 -0.578,-3.629 1.332,-6.762 4.73,-7.621 -1.601,-2.219 -4.101,-0.391 -5.66,-1.52 -2,-1.449 0.5,-4.379 -0.238,-6.718 -0.391,0.82 -1.402,0.738 -1.602,0.468 -1.761,-2.539 0.469,-5.941 1.02,-8.711 0.39,0.821 1.172,0.7 1.75,0.512 1.058,-0.351 0.469,-1.492 0.59,-2.269 -0.59,0 -1.211,0.16 -1.719,-0.082 -1.68,-0.778 0.59,-1.872 -0.039,-2.848 5.59,-3.203 11.918,-5.082 18.168,-4.262 1.64,0.199 3.75,1.18 5.351,2.461 -1.492,1.141 -4.531,0.16 -3.441,2.93 0.512,1.219 2.031,0.789 2.77,0.429 0.902,-0.429 -0.11,-1.789 0.121,-2.73 0.16,-0.469 0.629,-0.898 1.089,-0.551 1.571,1.102 3.321,1.883 3.989,3.563 0.121,0.148 -0.629,0.929 -1.02,0.968 -0.82,0.04 -0.429,-2.07 -1.719,-1.558" /><path
             id="path98"
             style="fill:#036998;fill-opacity:1;fill-rule:nonzero;stroke:none"
             d="m 160.621,168.465 c -0.269,-0.469 -0.781,-1.098 -1.133,-1.059 -2.539,0.348 -5.109,0.16 -6.476,2.77 3.16,0.98 6.398,2.308 9.218,0.32 0.739,-0.551 -1.14,-1.141 -1.609,-2.031" /><path
             id="path100"
             style="fill:#036998;fill-opacity:1;fill-rule:nonzero;stroke:none"
             d="m 168.551,160.145 c -0.66,-1.84 -2.93,-0.239 -4.68,-0.711 1.09,1.839 1.949,2.582 4.141,2.933 0,-1.012 0.738,-1.722 0.539,-2.222" /><path
             id="path102"
             style="fill:#000000;fill-opacity:1;fill-rule:nonzero;stroke:none"
             d="m 166.371,154.395 c -1.961,-0.231 -3.91,-0.778 -5.902,-0.149 3.051,1.871 6.601,0.969 9.84,1.789 -0.387,-0.308 -0.661,-0.66 -0.469,-1.211 -1.129,-0.148 -2.301,-0.308 -3.469,-0.429" /><path
             id="path104"
             style="fill:#000000;fill-opacity:1;fill-rule:nonzero;stroke:none"
             d="m 160.59,113.734 c -1.211,-0.777 -3.399,0.43 -2.781,2.192 0.312,0.82 1.171,1.597 2.23,1.129 1.289,-0.59 1.91,-2.461 0.551,-3.321" /><path
             id="path106"
             style="fill:#000000;fill-opacity:1;fill-rule:nonzero;stroke:none"
             d="m 155.352,114.164 c -0.782,-0.309 -0.973,0.941 -1.762,0.582 0.121,0.828 -0.469,2 0.629,2.27 0.742,0.199 1.871,0.55 2.261,-0.512 0.36,-0.969 -0.07,-1.828 -1.128,-2.34" /><path
             id="path108"
             style="fill:#000000;fill-opacity:1;fill-rule:nonzero;stroke:none"
             d="m 150.66,115.414 c -0.66,-0.117 -1.519,-0.348 -1.68,0.551 -0.109,0.781 -0.539,1.91 0.551,2.219 1.559,0.472 2.93,-0.739 2.231,-2.188 -0.16,-0.312 -0.672,-0.539 -1.102,-0.582" /><path
             id="path110"
             style="fill:#000000;fill-opacity:1;fill-rule:nonzero;stroke:none"
             d="m 147.07,117.797 c -0.511,-0.231 -1.371,-0.352 -1.679,0.508 -0.551,1.64 1.449,2.3 2.187,1.601 0.473,-0.39 0.274,-1.722 -0.508,-2.109" /><path
             id="path112"
             style="fill:#036998;fill-opacity:1;fill-rule:nonzero;stroke:none"
             d="m 166.051,151.895 c -1.172,-0.04 -2.102,0.32 -3.039,0.902 1.949,0.238 3.898,0.469 5.859,0.699 -0.633,-1.09 -1.531,-1.519 -2.82,-1.601" /><path
             id="path114"
             style="fill:#036998;fill-opacity:1;fill-rule:nonzero;stroke:none"
             d="m 36.2891,83.2266 155.621,0 0,8.62891 -155.621,0 0,-8.62891 z" /></g></g></g></g></svg>