<svg xmlns="http://www.w3.org/2000/svg" viewBox="0 0 32.5 33.75" height="33.75" width="32.5"><defs><clipPath id="a"><path d="M0 9v260h260V9H0z"/></clipPath></defs><g clip-path="url(#a)" transform="matrix(.13 0 0 -.13 0 33.75)"><path d="M258.199 92.715L232.07 55.457H5.309L42.73 92.715H258.2" fill="#036998"/><path d="M258.199 92.715L232.07 55.457H5.309L42.73 92.715H258.2z" fill="none" stroke="#fff" stroke-width="4"/><path d="M5.309 14.906h216.48v40.551H5.309v-40.55z" fill="#036998"/><path d="M5.309 14.906h216.48v40.551H5.309v-40.55z" fill="none" stroke="#fff" stroke-width="4"/><path d="M5.309 64.394h215.043v162.66H5.309V64.394z" fill="#036998"/><path d="M5.309 64.394h215.043v162.66H5.309V64.394z" fill="none" stroke="#fff" stroke-width="4"/><path d="M220.352 64.394l36.796 36.801v162.66l-36.796-36.8V64.395" fill="#036998"/><path d="M220.352 64.394l36.796 36.801v162.66l-36.796-36.8V64.395z" fill="none" stroke="#fff" stroke-width="4"/><path d="M221.602 14.824v40.633l36.597 36.36V51.394l-36.597-36.57" fill="#036998"/><path d="M221.602 14.824v40.633l36.597 36.36V51.394l-36.597-36.57z" fill="none" stroke="#fff" stroke-width="4"/><path d="M40.39 208.305h144.18c9.379 0 16.989-7.578 16.989-16.989v-91.101c0-9.371-7.61-16.95-16.989-16.95H40.39c-9.41 0-17.03 7.579-17.03 16.95v91.101c0 9.411 7.62 16.989 17.03 16.989" fill="#fff"/><path d="M40.39 208.305h144.18c9.379 0 16.989-7.578 16.989-16.989v-91.101c0-9.371-7.61-16.95-16.989-16.95H40.39c-9.41 0-17.03 7.579-17.03 16.95v91.101c0 9.411 7.62 16.989 17.03 16.989z" fill="none" stroke="#fff" stroke-width="4"/><path d="M257.148 263.855H47.269l-41.96-36.8h215.043l36.796 36.8" fill="#036998"/><path d="M257.148 263.855H47.269l-41.96-36.8h215.043l36.796 36.8z" fill="none" stroke="#fff" stroke-width="4"/><path d="M42.852 34.676c0-7.031-5.704-12.742-12.73-12.742-7.071 0-12.743 5.71-12.743 12.742 0 7.07 5.672 12.77 12.742 12.77 7.027 0 12.73-5.7 12.73-12.77" fill="#036998"/><path d="M42.852 34.676c0-7.031-5.704-12.742-12.73-12.742-7.071 0-12.743 5.71-12.743 12.742 0 7.07 5.672 12.77 12.742 12.77 7.027 0 12.73-5.7 12.73-12.77z" fill="none" stroke="#fff" stroke-width="4"/><path d="M211.68 34.676c0-7.031-5.739-12.742-12.77-12.742s-12.781 5.71-12.781 12.742c0 7.07 5.75 12.77 12.781 12.77 7.031 0 12.77-5.7 12.77-12.77" fill="#036998"/><path d="M211.68 34.676c0-7.031-5.739-12.742-12.77-12.742s-12.781 5.71-12.781 12.742c0 7.07 5.75 12.77 12.781 12.77 7.031 0 12.77-5.7 12.77-12.77z" fill="none" stroke="#fff" stroke-width="4"/><path d="M91.05 31.395c0-3.641-2.96-6.61-6.6-6.61-3.63 0-6.56 2.969-6.56 6.61a6.553 6.553 0 0 0 6.56 6.562c3.64 0 6.6-2.934 6.6-6.563" fill="#036998"/><path d="M91.05 31.395c0-3.641-2.96-6.61-6.6-6.61-3.63 0-6.56 2.969-6.56 6.61a6.553 6.553 0 0 0 6.56 6.562c3.64 0 6.6-2.934 6.6-6.563z" fill="none" stroke="#fff" stroke-width="4"/><path d="M117.379 31.395c0-3.641-2.93-6.61-6.598-6.61-3.633 0-6.562 2.969-6.562 6.61a6.554 6.554 0 0 0 6.562 6.562c3.668 0 6.598-2.934 6.598-6.563" fill="#036998"/><path d="M117.379 31.395c0-3.641-2.93-6.61-6.598-6.61-3.633 0-6.562 2.969-6.562 6.61a6.554 6.554 0 0 0 6.562 6.562c3.668 0 6.598-2.934 6.598-6.563z" fill="none" stroke="#fff" stroke-width="4"/><path d="M143.75 31.395c0-3.641-2.969-6.61-6.602-6.61-3.628 0-6.597 2.969-6.597 6.61 0 3.628 2.969 6.562 6.597 6.562 3.633 0 6.602-2.934 6.602-6.563" fill="#036998"/><path d="M143.75 31.395c0-3.641-2.969-6.61-6.602-6.61-3.628 0-6.597 2.969-6.597 6.61 0 3.628 2.969 6.562 6.597 6.562 3.633 0 6.602-2.934 6.602-6.563z" fill="none" stroke="#fff" stroke-width="4"/><path d="M70.469 187.246l19.222 17.039 14.258-6.609-1.648-15.352 4.929-10.969-5.468-14.851-.391-3.32c-1.101-3.868-4.96-2.188-4.96-2.188l-6.72-26.32-18.132 23.629-2.18 10.429-7.7 21.95" fill="#fbfbfb"/><path d="M78.871 191.547c.899-1.09 1.25-2.582 1.36-3.59.507-4.73-1.212-9.531-2.891-13.953-.461-1.129-.39-4.137-1.719-3.238-1.562 1.019-2.89 3.359-4.57 3.949-2.07.699-4.25-1.41-6.32-2.578 3.82-5.121 8.507-10.391 6.48-17.071-4.84 7.18-9.961 14.25-13.55 22.028-1.962 4.222-1.212 10.39 1.358 13.871 3.95 5.39 9.93 9.961 16.493 11.64 8.867 2.262 17.726 4.102 26.828 4.211-8.238-4.14-16.012-8.121-23.98-13.671-.43-.309.12-1.09.511-1.598" fill="#036998"/><path d="M110.078 190.887c-2.109-4.032-4.058-7.973-6.558-11.723.152.582-.122 1.012-.59 1.133-1.168.199-2.7-.352-3.32.277-.551.582-.551 2.461 0 3.121.699.739 2.851-.39 3.011-.199 4.02 6.488-3.441 11.758-6.14 17.43 5.98.109 10.789-3.832 16.449-4.692-1.168-1.679-1.91-3.519-2.852-5.347M87.66 179.715c-.98.152-2.539-.121-2.62.152-1.72 5.707 6.132 3.008 9.69 4.61-.859-3.75-3.05-5.512-7.07-4.762M98.629 168.266h-4.14c1.64 1.41 3.363 2.66 5.312 3.519-.192-1.211.16-2.39.59-3.519h-1.762M97.46 161.234h-8.198c.968.942 2.5 1.289 3.547 1.411 2.62.269 6.062 2.14 8.171-1.411h-3.52M96.8 158.734c1.99-.859-.82-.859-.51-1.64-1.52-.348-2.028 1.09-2.97 1.801 1.168 0 2.5.269 3.48-.161M138.672 101.586c.039 3.789.937 7.73 1.84 11.758.816 3.441 2.297 7.383 1.129 9.613-1.563 3.078-5.7 5.66-9.411 7.109-10.468 4.02-20.75 7.731-30.902 12.379l-1.598-.59 1.75-25.859-8.78-28.242M92.7 86.625l-18.829 26.48L65 140.965a37.39 37.39 0 0 0-5.2-2.93c-12.812-5.859-23.35-7.66-35.35-15.238.081-24.762 10.78-15.192 9.378-39.84" fill="#036998"/><path d="M90.621 84.086l10.859 31.91-1.75 25.859-3.558 3.52-5.863-10.859-19.098 15.269c0-3.82-6.25-7.539-6.25-7.539l8.91-28L92.7 87.754" fill="#9ac3d6"/><path d="M84.18 88.074l4.058 39.063-2.297 2.968 2.297 3.79 2.383-1.45 1.45 1.762 2.378-3.242-2.968-4.11 4.46-34.289M119.488 126.547c-1.828 1.949-5.308 1.988-5.269 5.269 2.031 0 4.101-.152 5.859 1.18-3.476 1.289-5.199 4.41-5.547 7.649-.043.429.778 2.152 1.41 2.07 1.399-.11 1.481-2.539 3.008-3.238.5-.231.973.117 1.09.589.43 1.829-.238 3.508-.551 5.27 1.961-.621 5.473-1.371 5.434.59-.043 2.89-4.063 6.09-1.563 8.429.7.711 3.551-2.929 3.832-.738.231 2.11-2.812 4.567-2.621 6.957.16 1.672 3.399 2.102 4.02 3.711 1.058 2.649-1.129 6.051-.352 8.551 2.231 7.34 6.563 13.828 10.082 20.699 9.02.281 12.418 9.11 26.989 1.41.39-.23-1.438.078-1.047-.781.187-.469.66-1.059 1.09-1.09 2.418-.199 5.199.231 6.207-2 .742-1.64-1.68-3.59-1.168-5.078.781-2.223 5.16-1.211 5.629-3.16.929-3.789-3.481-7.5-2.899-10.941.32-1.911 4.649-2.731 5.981-5.04 1.519-2.609-.43-6.398 2.109-9.179 1.019 1.219 2.23 2.109 3.559 2.929.351-2.3 1.281-4.41 2.339-6.441 1.481 1.992 3.282 3.793 4.692 5.859 1.398-1.168.777-3.359.308-3.789-2.5-2.418-4.918-5.589-8.437-6.519-.473-.121-.742-.43-.942-.86l-4.14 2.34c-.5-1.019 2.93-2.5 1.449-2.929l.582-2.34c2.149-2.309 4.649-.75 7.078 0 1.211-4.11-4.301-4.653-4.847-7.742-.274-1.559 2.66-1.129 4.257-.469-.55-2.93-3.05-4.41-4.687-6.481" fill="#036998"/><path d="M93.441 83.496c2.61 12.86 1.13 21.098 2.54 33.598 7.339 4.492 15.347 7.383 23.507 10l36.172 7.929 26.762-3.238c5.508-1.879 11.488-1.64 17.027-3.519 4.852-13.012-8.668-28.012-3.859-41.13l-3.68-3.363" fill="#036998"/><path d="M167.73 117.797c-.39.16-.621.668-1.21.508 0 .781-.27 1.8.16 2.191.39.43 1.41.149 2.191.149-.16-.579.188-.899.617-1.168 1.293 4.097.121 8.277-.468 12.269-.192 1.559-3.551 1.481-4.489 2.688-1.832 2.382-2.851 10.902-.429 10.742 6.289-.461 6.597 11.758 8.437 18.64.742 2.77-.699 3.75-1.918 6.789-.82-.351-.351-1.441-.66-1.601-1.332-.66-3.359-1.52-4.41-.539-.59.582-.59 2.57 0 3.121 1.051.898 5.66 1.641 5.578 1.519 1.141 3.211-.699 5.79-2.848 8.68-1.051-1.64-2.152-2.07-4.101-1.762 1.25 1.051 1.172 4.532-.309 3.672-2.5-1.48-2.191-6.019-6.172-6.019.11 1.679.11 3.359-1.179 4.691-1.25-1.871-2.692-3.941-4.641-3.711-1.289.16-.859 3.949-2.699 2.231-2.149-1.961 1.601-4.653.781-7.313-1.563-5.269-1.52-10.39-4.449-15.39-.434-.739-.391-1.989 0-2.809.578-1.289 1.789-2.191 3.398-1.801-.082-2.301-2.539-1.008-3.441-2.418-.27-.429-.27-1.211 0-1.64 1.09-1.911 3.203-2.032 5.191-1.84-.539-3.551-4.57-4.059-7.07-2.34-.578-3.629 1.332-6.762 4.73-7.621-1.601-2.219-4.101-.391-5.66-1.52-2-1.449.5-4.379-.238-6.718-.391.82-1.402.738-1.602.468-1.761-2.539.469-5.941 1.02-8.711.39.821 1.172.7 1.75.512 1.058-.351.469-1.492.59-2.269-.59 0-1.211.16-1.719-.082-1.68-.778.59-1.872-.039-2.848 5.59-3.203 11.918-5.082 18.168-4.262 1.64.199 3.75 1.18 5.351 2.461-1.492 1.141-4.531.16-3.441 2.93.512 1.219 2.031.789 2.77.429.902-.429-.11-1.789.121-2.73.16-.469.629-.898 1.089-.551 1.571 1.102 3.321 1.883 3.989 3.563.121.148-.629.929-1.02.968-.82.04-.429-2.07-1.719-1.558" fill="#fff"/><path d="M160.621 168.465c-.269-.469-.781-1.098-1.133-1.059-2.539.348-5.109.16-6.476 2.77 3.16.98 6.398 2.308 9.218.32.739-.551-1.14-1.141-1.609-2.031M168.551 160.145c-.66-1.84-2.93-.239-4.68-.711 1.09 1.839 1.949 2.582 4.141 2.933 0-1.012.738-1.722.539-2.222" fill="#036998"/><path d="M166.371 154.395c-1.961-.231-3.91-.778-5.902-.149 3.051 1.871 6.601.969 9.84 1.789-.387-.308-.661-.66-.469-1.211-1.129-.148-2.301-.308-3.469-.429M160.59 113.734c-1.211-.777-3.399.43-2.781 2.192.312.82 1.171 1.597 2.23 1.129 1.289-.59 1.91-2.461.551-3.321M155.352 114.164c-.782-.309-.973.941-1.762.582.121.828-.469 2 .629 2.27.742.199 1.871.55 2.261-.512.36-.969-.07-1.828-1.128-2.34M150.66 115.414c-.66-.117-1.519-.348-1.68.551-.109.781-.539 1.91.551 2.219 1.559.472 2.93-.739 2.231-2.188-.16-.312-.672-.539-1.102-.582M147.07 117.797c-.511-.231-1.371-.352-1.679.508-.551 1.64 1.449 2.3 2.187 1.601.473-.39.274-1.722-.508-2.109"/><path d="M166.051 151.895c-1.172-.04-2.102.32-3.039.902 1.949.238 3.898.469 5.859.699-.633-1.09-1.531-1.519-2.82-1.601M36.29 83.227h155.62v8.629H36.29v-8.63z" fill="#036998"/></g></svg>