<?xml version="1.0" encoding="UTF-8" standalone="no"?>
<svg
   xmlns:dc="http://purl.org/dc/elements/1.1/"
   xmlns:cc="http://creativecommons.org/ns#"
   xmlns:rdf="http://www.w3.org/1999/02/22-rdf-syntax-ns#"
   xmlns:svg="http://www.w3.org/2000/svg"
   xmlns="http://www.w3.org/2000/svg"
   viewBox="0 0 61 30.2875"
   height="30.2875"
   width="61"
   xml:space="preserve"
   version="1.1"
   id="svg2"><metadata
     id="metadata8"><rdf:RDF><cc:Work
         rdf:about=""><dc:format>image/svg+xml</dc:format><dc:type
           rdf:resource="http://purl.org/dc/dcmitype/StillImage" /></cc:Work></rdf:RDF></metadata><defs
     id="defs6"><clipPath
       id="clipPath18"
       clipPathUnits="userSpaceOnUse"><path
         id="path20"
         d="M 0,2 0,242 488,242 488,2 0,2 Z" /></clipPath></defs><g
     transform="matrix(1.25,0,0,-1.25,0,30.2875)"
     id="g10"><g
       transform="scale(0.1,0.1)"
       id="g12"><g
         id="g14"><g
           clip-path="url(#clipPath18)"
           id="g16"><path
             id="path22"
             style="fill:#026c9b;fill-opacity:1;fill-rule:nonzero;stroke:none"
             d="m 5.65625,121.086 144.28475,116.66 333.106,0 -119.402,-116.66 -357.98875,0" /><path
             id="path24"
             style="fill:none;stroke:#ffffff;stroke-width:4;stroke-linecap:butt;stroke-linejoin:miter;stroke-miterlimit:4;stroke-dasharray:none;stroke-opacity:1"
             d="m 5.65625,121.086 144.28475,116.66 333.106,0 -119.402,-116.66 -357.98875,0 z" /><path
             id="path26"
             style="fill:#026c9b;fill-opacity:1;fill-rule:nonzero;stroke:none"
             d="m 363.645,5.10547 119.402,128.92553 0,103.52 -119.402,-116.465 0,-115.98053" /><path
             id="path28"
             style="fill:none;stroke:#ffffff;stroke-width:4;stroke-linecap:butt;stroke-linejoin:miter;stroke-miterlimit:4;stroke-dasharray:none;stroke-opacity:1"
             d="m 363.645,5.10547 119.402,128.92553 0,103.52 -119.402,-116.465 0,-115.98053 z" /><path
             id="path30"
             style="fill:#026c9b;fill-opacity:1;fill-rule:nonzero;stroke:none"
             d="m 6.15234,5.01172 357.492,0 0,116.074 -357.492,0 0,-116.074 z" /><path
             id="path32"
             style="fill:none;stroke:#ffffff;stroke-width:4;stroke-linecap:butt;stroke-linejoin:miter;stroke-miterlimit:4;stroke-dasharray:none;stroke-opacity:1"
             d="m 6.15234,5.01172 357.492,0 0,116.074 -357.492,0 0,-116.074 z" /><path
             id="path34"
             style="fill:#ffffff;fill-opacity:1;fill-rule:nonzero;stroke:none"
             d="m 218.652,73.7227 -0.047,26.5973 -62.113,-35.1559 62.113,-35.1524 0.047,26.6602 0,17.0508" /><path
             id="path36"
             style="fill:none;stroke:#ffffff;stroke-width:3.98300004;stroke-linecap:butt;stroke-linejoin:miter;stroke-miterlimit:4;stroke-dasharray:none;stroke-opacity:1"
             d="m 218.652,73.7227 -0.047,26.5973 -62.113,-35.1559 62.113,-35.1524 0.047,26.6602 0,17.0508 z" /><path
             id="path38"
             style="fill:#ffffff;fill-opacity:1;fill-rule:nonzero;stroke:none"
             d="m 205.371,188.488 19.656,18.633 -86.843,-28.926 34.796,-20.293 19.774,18.653" /><path
             id="path40"
             style="fill:#ffffff;fill-opacity:1;fill-rule:nonzero;stroke:none"
             d="m 301.672,176.613 -122.336,-0.039 12.617,11.934 122.332,0.039 19.746,18.633 34.797,-24.61 -86.855,-24.609 19.699,18.652" /></g></g></g></g></svg>