<svg xmlns="http://www.w3.org/2000/svg" viewBox="0 0 61.25 32.5" height="32.5" width="61.25"><path d="M.708 16.115l18.037-14.58h41.636l-14.927 14.58H.708" fill="#087bbb"/><path d="M.708 16.115l18.037-14.58h41.636l-14.927 14.58H.708z" fill="none" stroke="#fff" stroke-width=".5"/><path d="M45.454 30.612L60.38 14.5V1.554l-14.927 14.56v14.497" fill="#087bbb"/><path d="M45.454 30.613L60.38 14.499V1.555l-14.927 14.56v14.498z" fill="none" stroke="#fff" stroke-width=".5"/><path d="M.766 30.626h44.688v-14.51H.766v14.51z" fill="#087bbb"/><path d="M.766 30.626h44.688v-14.51H.766v14.51z" fill="none" stroke="#fff" stroke-width=".5"/><path d="M23.11 30.626v-14.51" fill="none" stroke="#fff" stroke-width="1.25"/><path d="M31.524 27.785l7.764-4.394-7.764-4.395v8.79" fill="#fff"/><path d="M31.524 27.785l7.764-4.395-7.764-4.393v8.788z" fill="none" stroke="#fff" stroke-width=".497875"/><path d="M17.997 9.181h.005l19.708-.003-2.462 2.328L46.103 8.43l-4.35-3.076-2.465 2.329-19.708.005-1.582 1.493M13.676 20.5H4.121v-1.211h9.555v-1.894l5.538 2.5-5.538 2.495V20.5M13.676 27.283H4.121v-1.207h9.555v-1.895l5.538 2.5-5.538 2.497v-1.895" fill="#fff"/></svg>