<?xml version="1.0" encoding="UTF-8" standalone="no"?>
<svg
   xmlns:dc="http://purl.org/dc/elements/1.1/"
   xmlns:cc="http://creativecommons.org/ns#"
   xmlns:rdf="http://www.w3.org/1999/02/22-rdf-syntax-ns#"
   xmlns:svg="http://www.w3.org/2000/svg"
   xmlns="http://www.w3.org/2000/svg"
   viewBox="0 0 29.975 41.700001"
   height="41.700001"
   width="29.975"
   xml:space="preserve"
   version="1.1"
   id="svg2"><metadata
     id="metadata8"><rdf:RDF><cc:Work
         rdf:about=""><dc:format>image/svg+xml</dc:format><dc:type
           rdf:resource="http://purl.org/dc/dcmitype/StillImage" /></cc:Work></rdf:RDF></metadata><defs
     id="defs6"><clipPath
       id="clipPath18"
       clipPathUnits="userSpaceOnUse"><path
         id="path20"
         d="m 0,3.60547 240,0 0,330 -240,0 0,-330 z" /></clipPath></defs><g
     transform="matrix(1.25,0,0,-1.25,0,41.7)"
     id="g10"><g
       transform="scale(0.1,0.1)"
       id="g12"><g
         id="g14"><g
           clip-path="url(#clipPath18)"
           id="g16"><path
             id="path22"
             style="fill:#026c9b;fill-opacity:1;fill-rule:nonzero;stroke:none"
             d="m 4.82813,4.82422 183.879,0 0,277.637 -183.879,0 0,-277.637 z" /><path
             id="path24"
             style="fill:none;stroke:#ffffff;stroke-width:4;stroke-linecap:butt;stroke-linejoin:miter;stroke-miterlimit:4;stroke-dasharray:none;stroke-opacity:1"
             d="m 188.707,282.461 -183.87887,0 0,-277.63678 183.87887,0" /><path
             id="path26"
             style="fill:#026c9b;fill-opacity:1;fill-rule:nonzero;stroke:none"
             d="m 188.707,4.82422 49.141,49.14058 0,277.6372 -183.8792,0 -49.14067,-49.141 183.87887,0 0,-277.63678" /><path
             id="path28"
             style="fill:none;stroke:#ffffff;stroke-width:4;stroke-linecap:butt;stroke-linejoin:miter;stroke-miterlimit:4;stroke-dasharray:none;stroke-opacity:1"
             d="m 188.707,4.82422 49.141,49.14058 0,277.6372 -183.8792,0 -49.14067,-49.141 183.87887,0 0,-277.63678 z" /><path
             id="path30"
             style="fill:#026c9b;fill-opacity:1;fill-rule:nonzero;stroke:none"
             d="m 188.707,282.461 49.141,49.141" /><path
             id="path32"
             style="fill:none;stroke:#ffffff;stroke-width:4;stroke-linecap:butt;stroke-linejoin:miter;stroke-miterlimit:4;stroke-dasharray:none;stroke-opacity:1"
             d="m 188.707,282.461 49.141,49.141" /><path
             id="path34"
             style="fill:none;stroke:#ffffff;stroke-width:4;stroke-linecap:butt;stroke-linejoin:miter;stroke-miterlimit:4;stroke-dasharray:none;stroke-opacity:1"
             d="m 7.30859,204.465 180.01141,0" /><path
             id="path36"
             style="fill:none;stroke:#ffffff;stroke-width:4;stroke-linecap:butt;stroke-linejoin:miter;stroke-miterlimit:4;stroke-dasharray:none;stroke-opacity:1"
             d="m 7.30859,31.9727 180.01141,0" /><path
             id="path38"
             style="fill:none;stroke:#ffffff;stroke-width:4;stroke-linecap:butt;stroke-linejoin:miter;stroke-miterlimit:4;stroke-dasharray:none;stroke-opacity:1"
             d="m 42.3086,244.465 43.75,0" /><path
             id="path40"
             style="fill:none;stroke:#ffffff;stroke-width:4;stroke-linecap:butt;stroke-linejoin:miter;stroke-miterlimit:4;stroke-dasharray:none;stroke-opacity:1"
             d="m 24.8086,229.465 77.5117,0 0,31.25 -77.5117,0 0,-31.25 z" /><path
             id="path42"
             style="fill:#ffffff;fill-opacity:1;fill-rule:nonzero;stroke:none"
             d="m 109.359,111.164 c 0,-10.578 -6.386,-15.1171 -16.5113,-15.1171 -3.7032,0 -9.1914,0.8867 -12.7735,4.8711 -2.1797,2.461 -3.0195,5.703 -3.1367,9.746 l 0,26.652 8.5742,0 0,-26.093 c 0,-5.598 3.2422,-8.067 7.168,-8.067 5.7617,0 8.1173,2.801 8.1173,7.664 l 0,26.496 8.562,0 0,-26.152" /><path
             id="path44"
             style="fill:none;stroke:#ffffff;stroke-width:7;stroke-linecap:butt;stroke-linejoin:miter;stroke-miterlimit:4;stroke-dasharray:none;stroke-opacity:1"
             d="m 93.3359,88.2617 c 16.9021,0 30.5941,13.6913 30.5941,30.5973 0,16.883 -13.692,30.586 -30.5941,30.586 -16.8867,0 -30.5859,-13.703 -30.5859,-30.586 0,-16.906 13.6992,-30.5973 30.5859,-30.5973 z" /><path
             id="path46"
             style="fill:none;stroke:#ffffff;stroke-width:7;stroke-linecap:butt;stroke-linejoin:miter;stroke-miterlimit:4;stroke-dasharray:none;stroke-opacity:1"
             d="m 93.3359,149.445 53.0861,0" /><path
             id="path48"
             style="fill:#ffffff;fill-opacity:1;fill-rule:nonzero;stroke:none"
             d="m 149.332,165.527 0,-30.761 18.535,14.777 -18.535,15.984" /><path
             id="path50"
             style="fill:none;stroke:#ffffff;stroke-width:1.27999997;stroke-linecap:butt;stroke-linejoin:miter;stroke-miterlimit:4;stroke-dasharray:none;stroke-opacity:1"
             d="m 149.332,165.527 0,-30.761 18.535,14.777 -18.535,15.984 z" /><path
             id="path52"
             style="fill:none;stroke:#ffffff;stroke-width:7;stroke-linecap:butt;stroke-linejoin:miter;stroke-miterlimit:4;stroke-dasharray:none;stroke-opacity:1"
             d="m 62.7891,118.633 0,53.125" /><path
             id="path54"
             style="fill:#ffffff;fill-opacity:1;fill-rule:nonzero;stroke:none"
             d="m 47.0859,174.355 30.7696,0 -14.7852,18.536 -15.9844,-18.536" /><path
             id="path56"
             style="fill:none;stroke:#ffffff;stroke-width:1.27999997;stroke-linecap:butt;stroke-linejoin:miter;stroke-miterlimit:4;stroke-dasharray:none;stroke-opacity:1"
             d="m 47.0859,174.355 30.7696,0 -14.7852,18.536 -15.9844,-18.536 z" /><path
             id="path58"
             style="fill:none;stroke:#ffffff;stroke-width:7;stroke-linecap:butt;stroke-linejoin:miter;stroke-miterlimit:4;stroke-dasharray:none;stroke-opacity:1"
             d="m 124,119.023 0,-53.1246" /><path
             id="path60"
             style="fill:#ffffff;fill-opacity:1;fill-rule:nonzero;stroke:none"
             d="m 139.645,63.457 -30.743,0 14.922,-18.5351 15.821,18.5351" /><path
             id="path62"
             style="fill:none;stroke:#ffffff;stroke-width:1.27999997;stroke-linecap:butt;stroke-linejoin:miter;stroke-miterlimit:4;stroke-dasharray:none;stroke-opacity:1"
             d="m 139.645,63.457 -30.743,0 14.922,-18.5351 15.821,18.5351 z" /><path
             id="path64"
             style="fill:none;stroke:#ffffff;stroke-width:7;stroke-linecap:butt;stroke-linejoin:miter;stroke-miterlimit:4;stroke-dasharray:none;stroke-opacity:1"
             d="m 94.0977,88.3008 -53.1368,0" /><path
             id="path66"
             style="fill:#ffffff;fill-opacity:1;fill-rule:nonzero;stroke:none"
             d="m 40.7188,72.1094 0,30.7616 L 22.1836,88.1055 40.7188,72.1094" /><path
             id="path68"
             style="fill:none;stroke:#ffffff;stroke-width:1.27999997;stroke-linecap:butt;stroke-linejoin:miter;stroke-miterlimit:4;stroke-dasharray:none;stroke-opacity:1"
             d="m 40.7188,72.1094 0,30.7616 L 22.1836,88.1055 40.7188,72.1094 Z" /></g></g></g></g></svg>