<?xml version="1.0" encoding="UTF-8" standalone="no"?>
<svg
   xmlns:dc="http://purl.org/dc/elements/1.1/"
   xmlns:cc="http://creativecommons.org/ns#"
   xmlns:rdf="http://www.w3.org/1999/02/22-rdf-syntax-ns#"
   xmlns:svg="http://www.w3.org/2000/svg"
   xmlns="http://www.w3.org/2000/svg"
   viewBox="0 0 78.599998 31.5"
   height="31.5"
   width="78.599998"
   xml:space="preserve"
   version="1.1"
   id="svg2"><metadata
     id="metadata8"><rdf:RDF><cc:Work
         rdf:about=""><dc:format>image/svg+xml</dc:format><dc:type
           rdf:resource="http://purl.org/dc/dcmitype/StillImage" /></cc:Work></rdf:RDF></metadata><defs
     id="defs6"><clipPath
       id="clipPath18"
       clipPathUnits="userSpaceOnUse"><path
         id="path20"
         d="M 0,2 0,252 629,252 629,2 0,2 Z" /></clipPath></defs><g
     transform="matrix(1.25,0,0,-1.25,0,31.5)"
     id="g10"><g
       transform="scale(0.1,0.1)"
       id="g12"><g
         id="g14"><g
           clip-path="url(#clipPath18)"
           id="g16"><path
             id="path22"
             style="fill:#036998;fill-opacity:1;fill-rule:nonzero;stroke:none"
             d="m 18.4688,17.4219 590.828,0 0,190.938 -590.828,0 0,-190.938 z" /><path
             id="path24"
             style="fill:none;stroke:#ffffff;stroke-width:3.99993992;stroke-linecap:butt;stroke-linejoin:miter;stroke-miterlimit:4;stroke-dasharray:none;stroke-opacity:1"
             d="m 18.4688,17.4219 590.828,0 0,190.938 -590.828,0 0,-190.938 z" /><path
             id="path26"
             style="fill:#036998;fill-opacity:1;fill-rule:nonzero;stroke:none"
             d="m 18.8867,230.379 591.035,0 0,19.6602 -591.035,0 0,-19.6602 z" /><path
             id="path28"
             style="fill:none;stroke:#ffffff;stroke-width:3.99993992;stroke-linecap:butt;stroke-linejoin:miter;stroke-miterlimit:4;stroke-dasharray:none;stroke-opacity:1"
             d="m 18.8867,230.379 591.035,0 0,19.6602 -591.035,0 0,-19.6602 z" /><path
             id="path30"
             style="fill:#036998;fill-opacity:1;fill-rule:nonzero;stroke:none"
             d="m 39.8516,156.34 17.0352,0 0,36.6875 -17.0352,0 0,-36.6875 z" /><path
             id="path32"
             style="fill:none;stroke:#ffffff;stroke-width:3.99993992;stroke-linecap:butt;stroke-linejoin:miter;stroke-miterlimit:4;stroke-dasharray:none;stroke-opacity:1"
             d="m 39.8516,156.34 17.0352,0 0,36.6875 -17.0352,0 0,-36.6875 z" /><path
             id="path34"
             style="fill:#036998;fill-opacity:1;fill-rule:nonzero;stroke:none"
             d="m 39.8516,102.605 17.0352,0 0,36.6914 -17.0352,0 0,-36.6914 z" /><path
             id="path36"
             style="fill:none;stroke:#ffffff;stroke-width:3.99993992;stroke-linecap:butt;stroke-linejoin:miter;stroke-miterlimit:4;stroke-dasharray:none;stroke-opacity:1"
             d="m 39.8516,102.605 17.0352,0 0,36.6914 -17.0352,0 0,-36.6914 z" /><path
             id="path38"
             style="fill:#036998;fill-opacity:1;fill-rule:nonzero;stroke:none"
             d="m 39.8516,48.8789 17.0352,0 0,36.6875 -17.0352,0 0,-36.6875 z" /><path
             id="path40"
             style="fill:none;stroke:#ffffff;stroke-width:3.99993992;stroke-linecap:butt;stroke-linejoin:miter;stroke-miterlimit:4;stroke-dasharray:none;stroke-opacity:1"
             d="m 39.8516,48.8789 17.0352,0 0,36.6875 -17.0352,0 0,-36.6875 z" /><path
             id="path42"
             style="fill:#036998;fill-opacity:1;fill-rule:nonzero;stroke:none"
             d="m 248.445,43.2422 66.6133,0 0,96.3867 -66.6133,0 0,-96.3867 z" /><path
             id="path44"
             style="fill:none;stroke:#ffffff;stroke-width:3.99993992;stroke-linecap:butt;stroke-linejoin:miter;stroke-miterlimit:4;stroke-dasharray:none;stroke-opacity:1"
             d="m 248.445,43.2422 66.6133,0 0,96.3867 -66.6133,0 0,-96.3867 z" /><path
             id="path46"
             style="fill:#036998;fill-opacity:1;fill-rule:nonzero;stroke:none"
             d="m 315.059,43.2422 66.6211,0 0,96.3867 -66.6211,0 0,-96.3867 z" /><path
             id="path48"
             style="fill:none;stroke:#ffffff;stroke-width:3.99993992;stroke-linecap:butt;stroke-linejoin:miter;stroke-miterlimit:4;stroke-dasharray:none;stroke-opacity:1"
             d="m 315.059,43.2422 66.6211,0 0,96.3867 -66.6211,0 0,-96.3867 z" /><path
             id="path50"
             style="fill:#036998;fill-opacity:1;fill-rule:nonzero;stroke:none"
             d="m 615.168,230.379 10.484,-22.274 -622.49575,0 10.48825,22.274 601.5235,0" /><path
             id="path52"
             style="fill:none;stroke:#ffffff;stroke-width:3.99993992;stroke-linecap:butt;stroke-linejoin:miter;stroke-miterlimit:4;stroke-dasharray:none;stroke-opacity:1"
             d="m 615.168,230.379 10.484,-22.274 -622.49575,0 10.48825,22.274 601.5235,0 z" /><path
             id="path54"
             style="fill:#036998;fill-opacity:1;fill-rule:nonzero;stroke:none"
             d="m 231.438,33.1055 167.246,0 0,15.3711 -167.246,0 0,-15.3711 z" /><path
             id="path56"
             style="fill:none;stroke:#ffffff;stroke-width:3.99993992;stroke-linecap:butt;stroke-linejoin:miter;stroke-miterlimit:4;stroke-dasharray:none;stroke-opacity:1"
             d="m 231.438,33.1055 167.246,0 0,15.3711 -167.246,0 0,-15.3711 z" /><path
             id="path58"
             style="fill:#036998;fill-opacity:1;fill-rule:nonzero;stroke:none"
             d="m 222.922,17.4219 184.273,0 0,15.6836 -184.273,0 0,-15.6836 z" /><path
             id="path60"
             style="fill:none;stroke:#ffffff;stroke-width:3.99993992;stroke-linecap:butt;stroke-linejoin:miter;stroke-miterlimit:4;stroke-dasharray:none;stroke-opacity:1"
             d="m 222.922,17.4219 184.273,0 0,15.6836 -184.273,0 0,-15.6836 z" /><path
             id="path62"
             style="fill:#036998;fill-opacity:1;fill-rule:nonzero;stroke:none"
             d="m 94.8945,156.34 17.0391,0 0,36.6875 -17.0391,0 0,-36.6875 z" /><path
             id="path64"
             style="fill:none;stroke:#ffffff;stroke-width:3.99993992;stroke-linecap:butt;stroke-linejoin:miter;stroke-miterlimit:4;stroke-dasharray:none;stroke-opacity:1"
             d="m 94.8945,156.34 17.0391,0 0,36.6875 -17.0391,0 0,-36.6875 z" /><path
             id="path66"
             style="fill:#036998;fill-opacity:1;fill-rule:nonzero;stroke:none"
             d="m 94.8945,102.605 17.0391,0 0,36.6914 -17.0391,0 0,-36.6914 z" /><path
             id="path68"
             style="fill:none;stroke:#ffffff;stroke-width:3.99993992;stroke-linecap:butt;stroke-linejoin:miter;stroke-miterlimit:4;stroke-dasharray:none;stroke-opacity:1"
             d="m 94.8945,102.605 17.0391,0 0,36.6914 -17.0391,0 0,-36.6914 z" /><path
             id="path70"
             style="fill:#036998;fill-opacity:1;fill-rule:nonzero;stroke:none"
             d="m 94.8945,48.8789 17.0391,0 0,36.6875 -17.0391,0 0,-36.6875 z" /><path
             id="path72"
             style="fill:none;stroke:#ffffff;stroke-width:3.99993992;stroke-linecap:butt;stroke-linejoin:miter;stroke-miterlimit:4;stroke-dasharray:none;stroke-opacity:1"
             d="m 94.8945,48.8789 17.0391,0 0,36.6875 -17.0391,0 0,-36.6875 z" /><path
             id="path74"
             style="fill:#036998;fill-opacity:1;fill-rule:nonzero;stroke:none"
             d="m 149.934,156.34 17.0391,0 0,36.6875 -17.0391,0 0,-36.6875 z" /><path
             id="path76"
             style="fill:none;stroke:#ffffff;stroke-width:3.99993992;stroke-linecap:butt;stroke-linejoin:miter;stroke-miterlimit:4;stroke-dasharray:none;stroke-opacity:1"
             d="m 149.934,156.34 17.0391,0 0,36.6875 -17.0391,0 0,-36.6875 z" /><path
             id="path78"
             style="fill:#036998;fill-opacity:1;fill-rule:nonzero;stroke:none"
             d="m 149.934,102.605 17.0391,0 0,36.6914 -17.0391,0 0,-36.6914 z" /><path
             id="path80"
             style="fill:none;stroke:#ffffff;stroke-width:3.99993992;stroke-linecap:butt;stroke-linejoin:miter;stroke-miterlimit:4;stroke-dasharray:none;stroke-opacity:1"
             d="m 149.934,102.605 17.0391,0 0,36.6914 -17.0391,0 0,-36.6914 z" /><path
             id="path82"
             style="fill:#036998;fill-opacity:1;fill-rule:nonzero;stroke:none"
             d="m 149.934,48.8789 17.0391,0 0,36.6875 -17.0391,0 0,-36.6875 z" /><path
             id="path84"
             style="fill:none;stroke:#ffffff;stroke-width:3.99993992;stroke-linecap:butt;stroke-linejoin:miter;stroke-miterlimit:4;stroke-dasharray:none;stroke-opacity:1"
             d="m 149.934,48.8789 17.0391,0 0,36.6875 -17.0391,0 0,-36.6875 z" /><path
             id="path86"
             style="fill:#036998;fill-opacity:1;fill-rule:nonzero;stroke:none"
             d="m 204.973,156.34 17.0391,0 0,36.6875 -17.0391,0 0,-36.6875 z" /><path
             id="path88"
             style="fill:none;stroke:#ffffff;stroke-width:3.99993992;stroke-linecap:butt;stroke-linejoin:miter;stroke-miterlimit:4;stroke-dasharray:none;stroke-opacity:1"
             d="m 204.973,156.34 17.0391,0 0,36.6875 -17.0391,0 0,-36.6875 z" /><path
             id="path90"
             style="fill:#036998;fill-opacity:1;fill-rule:nonzero;stroke:none"
             d="m 204.973,102.605 17.0391,0 0,36.6914 -17.0391,0 0,-36.6914 z" /><path
             id="path92"
             style="fill:none;stroke:#ffffff;stroke-width:3.99993992;stroke-linecap:butt;stroke-linejoin:miter;stroke-miterlimit:4;stroke-dasharray:none;stroke-opacity:1"
             d="m 204.973,102.605 17.0391,0 0,36.6914 -17.0391,0 0,-36.6914 z" /><path
             id="path94"
             style="fill:#036998;fill-opacity:1;fill-rule:nonzero;stroke:none"
             d="m 204.973,48.8789 17.0391,0 0,36.6875 -17.0391,0 0,-36.6875 z" /><path
             id="path96"
             style="fill:none;stroke:#ffffff;stroke-width:3.99993992;stroke-linecap:butt;stroke-linejoin:miter;stroke-miterlimit:4;stroke-dasharray:none;stroke-opacity:1"
             d="m 204.973,48.8789 17.0391,0 0,36.6875 -17.0391,0 0,-36.6875 z" /><path
             id="path98"
             style="fill:#036998;fill-opacity:1;fill-rule:nonzero;stroke:none"
             d="m 573.23,156.34 17.0352,0 0,36.6875 -17.0352,0 0,-36.6875 z" /><path
             id="path100"
             style="fill:none;stroke:#ffffff;stroke-width:3.99993992;stroke-linecap:butt;stroke-linejoin:miter;stroke-miterlimit:4;stroke-dasharray:none;stroke-opacity:1"
             d="m 573.23,156.34 17.0352,0 0,36.6875 -17.0352,0 0,-36.6875 z" /><path
             id="path102"
             style="fill:#036998;fill-opacity:1;fill-rule:nonzero;stroke:none"
             d="m 573.23,102.605 17.0352,0 0,36.6914 -17.0352,0 0,-36.6914 z" /><path
             id="path104"
             style="fill:none;stroke:#ffffff;stroke-width:3.99993992;stroke-linecap:butt;stroke-linejoin:miter;stroke-miterlimit:4;stroke-dasharray:none;stroke-opacity:1"
             d="m 573.23,102.605 17.0352,0 0,36.6914 -17.0352,0 0,-36.6914 z" /><path
             id="path106"
             style="fill:#036998;fill-opacity:1;fill-rule:nonzero;stroke:none"
             d="m 573.23,48.8789 17.0352,0 0,36.6875 -17.0352,0 0,-36.6875 z" /><path
             id="path108"
             style="fill:none;stroke:#ffffff;stroke-width:3.99993992;stroke-linecap:butt;stroke-linejoin:miter;stroke-miterlimit:4;stroke-dasharray:none;stroke-opacity:1"
             d="m 573.23,48.8789 17.0352,0 0,36.6875 -17.0352,0 0,-36.6875 z" /><path
             id="path110"
             style="fill:#036998;fill-opacity:1;fill-rule:nonzero;stroke:none"
             d="m 518.191,156.34 17.0352,0 0,36.6875 -17.0352,0 0,-36.6875 z" /><path
             id="path112"
             style="fill:none;stroke:#ffffff;stroke-width:3.99993992;stroke-linecap:butt;stroke-linejoin:miter;stroke-miterlimit:4;stroke-dasharray:none;stroke-opacity:1"
             d="m 518.191,156.34 17.0352,0 0,36.6875 -17.0352,0 0,-36.6875 z" /><path
             id="path114"
             style="fill:#036998;fill-opacity:1;fill-rule:nonzero;stroke:none"
             d="m 518.191,102.605 17.0352,0 0,36.6914 -17.0352,0 0,-36.6914 z" /><path
             id="path116"
             style="fill:none;stroke:#ffffff;stroke-width:3.99993992;stroke-linecap:butt;stroke-linejoin:miter;stroke-miterlimit:4;stroke-dasharray:none;stroke-opacity:1"
             d="m 518.191,102.605 17.0352,0 0,36.6914 -17.0352,0 0,-36.6914 z" /><path
             id="path118"
             style="fill:#036998;fill-opacity:1;fill-rule:nonzero;stroke:none"
             d="m 518.191,48.8789 17.0352,0 0,36.6875 -17.0352,0 0,-36.6875 z" /><path
             id="path120"
             style="fill:none;stroke:#ffffff;stroke-width:3.99993992;stroke-linecap:butt;stroke-linejoin:miter;stroke-miterlimit:4;stroke-dasharray:none;stroke-opacity:1"
             d="m 518.191,48.8789 17.0352,0 0,36.6875 -17.0352,0 0,-36.6875 z" /><path
             id="path122"
             style="fill:#036998;fill-opacity:1;fill-rule:nonzero;stroke:none"
             d="m 463.145,156.34 17.043,0 0,36.6875 -17.043,0 0,-36.6875 z" /><path
             id="path124"
             style="fill:none;stroke:#ffffff;stroke-width:3.99993992;stroke-linecap:butt;stroke-linejoin:miter;stroke-miterlimit:4;stroke-dasharray:none;stroke-opacity:1"
             d="m 463.145,156.34 17.043,0 0,36.6875 -17.043,0 0,-36.6875 z" /><path
             id="path126"
             style="fill:#036998;fill-opacity:1;fill-rule:nonzero;stroke:none"
             d="m 463.145,102.605 17.043,0 0,36.6914 -17.043,0 0,-36.6914 z" /><path
             id="path128"
             style="fill:none;stroke:#ffffff;stroke-width:3.99993992;stroke-linecap:butt;stroke-linejoin:miter;stroke-miterlimit:4;stroke-dasharray:none;stroke-opacity:1"
             d="m 463.145,102.605 17.043,0 0,36.6914 -17.043,0 0,-36.6914 z" /><path
             id="path130"
             style="fill:#036998;fill-opacity:1;fill-rule:nonzero;stroke:none"
             d="m 463.145,48.8789 17.043,0 0,36.6875 -17.043,0 0,-36.6875 z" /><path
             id="path132"
             style="fill:none;stroke:#ffffff;stroke-width:3.99993992;stroke-linecap:butt;stroke-linejoin:miter;stroke-miterlimit:4;stroke-dasharray:none;stroke-opacity:1"
             d="m 463.145,48.8789 17.043,0 0,36.6875 -17.043,0 0,-36.6875 z" /><path
             id="path134"
             style="fill:#036998;fill-opacity:1;fill-rule:nonzero;stroke:none"
             d="m 408.105,156.34 17.0391,0 0,36.6875 -17.0391,0 0,-36.6875 z" /><path
             id="path136"
             style="fill:none;stroke:#ffffff;stroke-width:3.99993992;stroke-linecap:butt;stroke-linejoin:miter;stroke-miterlimit:4;stroke-dasharray:none;stroke-opacity:1"
             d="m 408.105,156.34 17.0391,0 0,36.6875 -17.0391,0 0,-36.6875 z" /><path
             id="path138"
             style="fill:#036998;fill-opacity:1;fill-rule:nonzero;stroke:none"
             d="m 408.105,102.605 17.0391,0 0,36.6914 -17.0391,0 0,-36.6914 z" /><path
             id="path140"
             style="fill:none;stroke:#ffffff;stroke-width:3.99993992;stroke-linecap:butt;stroke-linejoin:miter;stroke-miterlimit:4;stroke-dasharray:none;stroke-opacity:1"
             d="m 408.105,102.605 17.0391,0 0,36.6914 -17.0391,0 0,-36.6914 z" /><path
             id="path142"
             style="fill:#036998;fill-opacity:1;fill-rule:nonzero;stroke:none"
             d="m 408.105,48.8789 17.0391,0 0,36.6875 -17.0391,0 0,-36.6875 z" /><path
             id="path144"
             style="fill:none;stroke:#ffffff;stroke-width:3.99993992;stroke-linecap:butt;stroke-linejoin:miter;stroke-miterlimit:4;stroke-dasharray:none;stroke-opacity:1"
             d="m 408.105,48.8789 17.0391,0 0,36.6875 -17.0391,0 0,-36.6875 z" /><path
             id="path146"
             style="fill:#036998;fill-opacity:1;fill-rule:nonzero;stroke:none"
             d="m 357.004,156.34 17.0273,0 0,36.6875 -17.0273,0 0,-36.6875 z" /><path
             id="path148"
             style="fill:none;stroke:#ffffff;stroke-width:3.99993992;stroke-linecap:butt;stroke-linejoin:miter;stroke-miterlimit:4;stroke-dasharray:none;stroke-opacity:1"
             d="m 357.004,156.34 17.0273,0 0,36.6875 -17.0273,0 0,-36.6875 z" /><path
             id="path150"
             style="fill:#036998;fill-opacity:1;fill-rule:nonzero;stroke:none"
             d="m 307.195,156.34 17.0352,0 0,36.6875 -17.0352,0 0,-36.6875 z" /><path
             id="path152"
             style="fill:none;stroke:#ffffff;stroke-width:3.99993992;stroke-linecap:butt;stroke-linejoin:miter;stroke-miterlimit:4;stroke-dasharray:none;stroke-opacity:1"
             d="m 307.195,156.34 17.0352,0 0,36.6875 -17.0352,0 0,-36.6875 z" /><path
             id="path154"
             style="fill:#036998;fill-opacity:1;fill-rule:nonzero;stroke:none"
             d="m 257.395,156.34 17.0391,0 0,36.6875 -17.0391,0 0,-36.6875 z" /><path
             id="path156"
             style="fill:none;stroke:#ffffff;stroke-width:3.99993992;stroke-linecap:butt;stroke-linejoin:miter;stroke-miterlimit:4;stroke-dasharray:none;stroke-opacity:1"
             d="m 257.395,156.34 17.0391,0 0,36.6875 -17.0391,0 0,-36.6875 z" /><path
             id="path158"
             style="fill:#036998;fill-opacity:1;fill-rule:nonzero;stroke:none"
             d="m 260.02,98.1445 15.0703,0 0,30.1445 -15.0703,0 0,-30.1445 z" /><path
             id="path160"
             style="fill:none;stroke:#ffffff;stroke-width:3.99993992;stroke-linecap:butt;stroke-linejoin:miter;stroke-miterlimit:4;stroke-dasharray:none;stroke-opacity:1"
             d="m 260.02,98.1445 15.0703,0 0,30.1445 -15.0703,0 0,-30.1445 z" /><path
             id="path162"
             style="fill:#036998;fill-opacity:1;fill-rule:nonzero;stroke:none"
             d="m 286.23,98.1445 15.0703,0 0,30.1445 -15.0703,0 0,-30.1445 z" /><path
             id="path164"
             style="fill:none;stroke:#ffffff;stroke-width:3.99993992;stroke-linecap:butt;stroke-linejoin:miter;stroke-miterlimit:4;stroke-dasharray:none;stroke-opacity:1"
             d="m 286.23,98.1445 15.0703,0 0,30.1445 -15.0703,0 0,-30.1445 z" /><path
             id="path166"
             style="fill:#036998;fill-opacity:1;fill-rule:nonzero;stroke:none"
             d="m 355.027,98.1445 15.0781,0 0,30.1445 -15.0781,0 0,-30.1445 z" /><path
             id="path168"
             style="fill:none;stroke:#ffffff;stroke-width:3.99993992;stroke-linecap:butt;stroke-linejoin:miter;stroke-miterlimit:4;stroke-dasharray:none;stroke-opacity:1"
             d="m 355.027,98.1445 15.0781,0 0,30.1445 -15.0781,0 0,-30.1445 z" /><path
             id="path170"
             style="fill:#036998;fill-opacity:1;fill-rule:nonzero;stroke:none"
             d="m 328.816,98.1445 15.0781,0 0,30.1445 -15.0781,0 0,-30.1445 z" /><path
             id="path172"
             style="fill:none;stroke:#ffffff;stroke-width:3.99993992;stroke-linecap:butt;stroke-linejoin:miter;stroke-miterlimit:4;stroke-dasharray:none;stroke-opacity:1"
             d="m 328.816,98.1445 15.0781,0 0,30.1445 -15.0781,0 0,-30.1445 z" /><path
             id="path174"
             style="fill:#036998;fill-opacity:1;fill-rule:nonzero;stroke:none"
             d="m 215.066,2.00391 199.984,0 0,15.418 -199.984,0 0,-15.418 z" /><path
             id="path176"
             style="fill:none;stroke:#ffffff;stroke-width:3.99993992;stroke-linecap:butt;stroke-linejoin:miter;stroke-miterlimit:4;stroke-dasharray:none;stroke-opacity:1"
             d="m 215.066,2.00391 199.984,0 0,15.418 -199.984,0 0,-15.418 z" /></g></g></g></g></svg>