<?xml version="1.0" encoding="UTF-8" standalone="no"?>
<svg
   xmlns:dc="http://purl.org/dc/elements/1.1/"
   xmlns:cc="http://creativecommons.org/ns#"
   xmlns:rdf="http://www.w3.org/1999/02/22-rdf-syntax-ns#"
   xmlns:svg="http://www.w3.org/2000/svg"
   xmlns="http://www.w3.org/2000/svg"
   viewBox="0 0 33.474998 33.787498"
   height="33.787498"
   width="33.474998"
   xml:space="preserve"
   version="1.1"
   id="svg2"><metadata
     id="metadata8"><rdf:RDF><cc:Work
         rdf:about=""><dc:format>image/svg+xml</dc:format><dc:type
           rdf:resource="http://purl.org/dc/dcmitype/StillImage" /></cc:Work></rdf:RDF></metadata><defs
     id="defs6" /><g
     transform="matrix(1.25,0,0,-1.25,0,33.7875)"
     id="g10"><g
       transform="scale(0.1,0.1)"
       id="g12"><path
         id="path14"
         style="fill:#026c9b;fill-opacity:1;fill-rule:nonzero;stroke:none"
         d="M 221.445,4.87891 221.23,224.527 5.70313,224.684 5.58594,4.82031 221.445,4.87891" /><path
         id="path16"
         style="fill:none;stroke:#ffffff;stroke-width:4;stroke-linecap:butt;stroke-linejoin:miter;stroke-miterlimit:4;stroke-dasharray:none;stroke-opacity:1"
         d="M 221.445,4.87891 221.23,224.527 5.70313,224.684 5.58594,4.82031 221.445,4.87891 Z" /><path
         id="path18"
         style="fill:none;stroke:#ffffff;stroke-width:6;stroke-linecap:butt;stroke-linejoin:miter;stroke-miterlimit:4;stroke-dasharray:none;stroke-opacity:1"
         d="m 113.555,67.5938 c 26.347,0 47.715,21.3671 47.715,47.7152 0,26.367 -21.368,47.714 -47.715,47.714 -26.348,0 -47.7152,-21.347 -47.7152,-47.714 0,-26.3481 21.3672,-47.7152 47.7152,-47.7152 z" /><path
         id="path20"
         style="fill:none;stroke:#ffffff;stroke-width:6;stroke-linecap:butt;stroke-linejoin:miter;stroke-miterlimit:4;stroke-dasharray:none;stroke-opacity:1"
         d="m 113.555,163.023 72.031,0" /><path
         id="path22"
         style="fill:#ffffff;fill-opacity:1;fill-rule:nonzero;stroke:none"
         d="m 186.328,190.035 0,-52.129 31.406,25.039 -31.406,27.09" /><path
         id="path24"
         style="fill:none;stroke:#ffffff;stroke-width:2;stroke-linecap:butt;stroke-linejoin:miter;stroke-miterlimit:4;stroke-dasharray:none;stroke-opacity:1"
         d="m 186.328,190.035 0,-52.129 31.406,25.039 -31.406,27.09 z" /><path
         id="path26"
         style="fill:none;stroke:#ffffff;stroke-width:6;stroke-linecap:butt;stroke-linejoin:miter;stroke-miterlimit:4;stroke-dasharray:none;stroke-opacity:1"
         d="m 65.8398,115.016 0,72.031" /><path
         id="path28"
         style="fill:#ffffff;fill-opacity:1;fill-rule:nonzero;stroke:none"
         d="m 39.3359,187.379 52.1485,0 -25.0391,31.406 -27.1094,-31.406" /><path
         id="path30"
         style="fill:none;stroke:#ffffff;stroke-width:2;stroke-linecap:butt;stroke-linejoin:miter;stroke-miterlimit:4;stroke-dasharray:none;stroke-opacity:1"
         d="m 39.3359,187.379 52.1485,0 -25.0391,31.406 -27.1094,-31.406 z" /><path
         id="path32"
         style="fill:none;stroke:#ffffff;stroke-width:6;stroke-linecap:butt;stroke-linejoin:miter;stroke-miterlimit:4;stroke-dasharray:none;stroke-opacity:1"
         d="m 161.27,115.543 0,-72.0313" /><path
         id="path34"
         style="fill:#ffffff;fill-opacity:1;fill-rule:nonzero;stroke:none"
         d="m 187.734,43.3945 -52.148,0 25.312,-31.4062 26.836,31.4062" /><path
         id="path36"
         style="fill:none;stroke:#ffffff;stroke-width:2;stroke-linecap:butt;stroke-linejoin:miter;stroke-miterlimit:4;stroke-dasharray:none;stroke-opacity:1"
         d="m 187.734,43.3945 -52.148,0 25.312,-31.4062 26.836,31.4062 z" /><path
         id="path38"
         style="fill:none;stroke:#ffffff;stroke-width:6;stroke-linecap:butt;stroke-linejoin:miter;stroke-miterlimit:4;stroke-dasharray:none;stroke-opacity:1"
         d="m 114.57,67.6328 -72.0309,0" /><path
         id="path40"
         style="fill:#ffffff;fill-opacity:1;fill-rule:nonzero;stroke:none"
         d="m 41.5039,40.4844 0,52.1484 L 10.0977,67.5742 41.5039,40.4844" /><path
         id="path42"
         style="fill:none;stroke:#ffffff;stroke-width:2;stroke-linecap:butt;stroke-linejoin:miter;stroke-miterlimit:4;stroke-dasharray:none;stroke-opacity:1"
         d="m 41.5039,40.4844 0,52.1484 L 10.0977,67.5742 41.5039,40.4844 Z" /><path
         id="path44"
         style="fill:#026c9b;fill-opacity:1;fill-rule:nonzero;stroke:none"
         d="m 221.23,224.527 -215.52687,0.157 54.62887,43.632 205.488,0 0,-218.3785 L 221.445,4.87891 221.23,224.527" /><path
         id="path46"
         style="fill:none;stroke:#ffffff;stroke-width:4;stroke-linecap:butt;stroke-linejoin:miter;stroke-miterlimit:4;stroke-dasharray:none;stroke-opacity:1"
         d="m 221.23,224.527 -215.52687,0.157 54.62887,43.632 205.488,0 0,-218.3785 L 221.445,4.87891 221.23,224.527 Z" /><path
         id="path48"
         style="fill:#026c9b;fill-opacity:1;fill-rule:nonzero;stroke:none"
         d="m 221.23,224.527 44.981,44.395" /><path
         id="path50"
         style="fill:none;stroke:#ffffff;stroke-width:4;stroke-linecap:butt;stroke-linejoin:miter;stroke-miterlimit:4;stroke-dasharray:none;stroke-opacity:1"
         d="m 221.23,224.527 44.981,44.395" /><path
         id="path52"
         style="fill:#ffffff;fill-opacity:1;fill-rule:nonzero;stroke:none"
         d="m 139.063,137.887 0,-30.782 c 0,-13.2222 -8.282,-24.3745 -26.016,-24.3745 -17.3634,0 -24.8243,11.1523 -24.8243,23.2225 l 0,31.934 8.7304,0 0,-29.512 c 0,-14.043 8.5349,-17.9102 16.3669,-17.9102 8.008,0 17.012,3.6915 17.012,17.7342 l 0,29.688 8.731,0" /></g></g></svg>