<?xml version="1.0" encoding="UTF-8" standalone="no"?>
<svg
   xmlns:dc="http://purl.org/dc/elements/1.1/"
   xmlns:cc="http://creativecommons.org/ns#"
   xmlns:rdf="http://www.w3.org/1999/02/22-rdf-syntax-ns#"
   xmlns:svg="http://www.w3.org/2000/svg"
   xmlns="http://www.w3.org/2000/svg"
   viewBox="0 0 33.75 36.25"
   height="36.25"
   width="33.75"
   xml:space="preserve"
   version="1.1"
   id="svg2"><metadata
     id="metadata8"><rdf:RDF><cc:Work
         rdf:about=""><dc:format>image/svg+xml</dc:format><dc:type
           rdf:resource="http://purl.org/dc/dcmitype/StillImage" /></cc:Work></rdf:RDF></metadata><defs
     id="defs6" /><g
     transform="matrix(1.25,0,0,-1.25,0,36.25)"
     id="g10"><g
       transform="scale(0.1,0.1)"
       id="g12"><path
         id="path14"
         style="fill:#026c9b;fill-opacity:1;fill-rule:nonzero;stroke:none"
         d="M 221.449,14.8711 221.25,234.52 5.69922,234.68 5.58984,14.8281 221.449,14.8711" /><path
         id="path16"
         style="fill:none;stroke:#ffffff;stroke-width:4;stroke-linecap:butt;stroke-linejoin:miter;stroke-miterlimit:4;stroke-dasharray:none;stroke-opacity:1"
         d="M 221.449,14.8711 221.25,234.523 5.69922,234.684 5.58984,14.832 221.449,14.8711 Z" /><path
         id="path18"
         style="fill:none;stroke:#ffffff;stroke-width:6;stroke-linecap:butt;stroke-linejoin:miter;stroke-miterlimit:4;stroke-dasharray:none;stroke-opacity:1"
         d="m 113.551,77.6133 c 26.371,0 47.738,21.3594 47.738,47.6917 0,26.367 -21.367,47.738 -47.738,47.738 -26.3205,0 -47.6916,-21.371 -47.6916,-47.738 0,-26.3323 21.3711,-47.6917 47.6916,-47.6917 z" /><path
         id="path20"
         style="fill:none;stroke:#ffffff;stroke-width:6;stroke-linecap:butt;stroke-linejoin:miter;stroke-miterlimit:4;stroke-dasharray:none;stroke-opacity:1"
         d="m 113.551,173.043 72.039,0" /><path
         id="path22"
         style="fill:#ffffff;fill-opacity:1;fill-rule:nonzero;stroke:none"
         d="m 186.328,200.031 0,-52.109 31.402,25.039 -31.402,27.07" /><path
         id="path24"
         style="fill:none;stroke:#ffffff;stroke-width:2;stroke-linecap:butt;stroke-linejoin:miter;stroke-miterlimit:4;stroke-dasharray:none;stroke-opacity:1"
         d="m 186.328,200.031 0,-52.109 31.402,25.039 -31.402,27.07 z" /><path
         id="path26"
         style="fill:none;stroke:#ffffff;stroke-width:6;stroke-linecap:butt;stroke-linejoin:miter;stroke-miterlimit:4;stroke-dasharray:none;stroke-opacity:1"
         d="m 65.8594,125.031 0,72.032" /><path
         id="path28"
         style="fill:#ffffff;fill-opacity:1;fill-rule:nonzero;stroke:none"
         d="m 39.3398,197.371 52.1407,0 -25.0313,31.41 -27.1094,-31.41" /><path
         id="path30"
         style="fill:none;stroke:#ffffff;stroke-width:2;stroke-linecap:butt;stroke-linejoin:miter;stroke-miterlimit:4;stroke-dasharray:none;stroke-opacity:1"
         d="m 39.3398,197.371 52.1407,0 -25.0313,31.41 -27.1094,-31.41 z" /><path
         id="path32"
         style="fill:none;stroke:#ffffff;stroke-width:6;stroke-linecap:butt;stroke-linejoin:miter;stroke-miterlimit:4;stroke-dasharray:none;stroke-opacity:1"
         d="m 161.289,125.543 0,-72.0391" /><path
         id="path34"
         style="fill:#ffffff;fill-opacity:1;fill-rule:nonzero;stroke:none"
         d="m 187.73,53.3906 -52.14,0 25.308,-31.4101 26.832,31.4101" /><path
         id="path36"
         style="fill:none;stroke:#ffffff;stroke-width:2;stroke-linecap:butt;stroke-linejoin:miter;stroke-miterlimit:4;stroke-dasharray:none;stroke-opacity:1"
         d="m 187.73,53.3945 -52.14,0 25.308,-31.4101 26.832,31.4101 z" /><path
         id="path38"
         style="fill:none;stroke:#ffffff;stroke-width:6;stroke-linecap:butt;stroke-linejoin:miter;stroke-miterlimit:4;stroke-dasharray:none;stroke-opacity:1"
         d="m 114.57,77.6445 -72.0309,0" /><path
         id="path40"
         style="fill:#ffffff;fill-opacity:1;fill-rule:nonzero;stroke:none"
         d="m 41.5195,50.5 0,52.148 L 10.1211,77.5703 41.5195,50.5" /><path
         id="path42"
         style="fill:none;stroke:#ffffff;stroke-width:2;stroke-linecap:butt;stroke-linejoin:miter;stroke-miterlimit:4;stroke-dasharray:none;stroke-opacity:1"
         d="m 41.5195,50.5039 0,52.1411 L 10.1211,77.5742 41.5195,50.5039 Z" /><path
         id="path44"
         style="fill:#026c9b;fill-opacity:1;fill-rule:nonzero;stroke:none"
         d="m 221.25,234.52 -215.55078,0.16 54.65238,43.629 205.4684,0 0,-218.3598 L 221.449,14.8711 221.25,234.52" /><path
         id="path46"
         style="fill:none;stroke:#ffffff;stroke-width:4;stroke-linecap:butt;stroke-linejoin:miter;stroke-miterlimit:4;stroke-dasharray:none;stroke-opacity:1"
         d="m 221.25,234.523 -215.55078,0.161 54.65238,43.629 205.4684,0 0,-218.3599 -44.371,-45.082 -0.199,219.6519 z" /><path
         id="path48"
         style="fill:#026c9b;fill-opacity:1;fill-rule:nonzero;stroke:none"
         d="m 221.25,234.52 44.961,44.421" /><path
         id="path50"
         style="fill:none;stroke:#ffffff;stroke-width:4;stroke-linecap:butt;stroke-linejoin:miter;stroke-miterlimit:4;stroke-dasharray:none;stroke-opacity:1"
         d="m 221.25,234.523 44.961,44.411" /><path
         id="path52"
         style="fill:#ffffff;fill-opacity:1;fill-rule:nonzero;stroke:none"
         d="m 139.059,147.879 0,-30.777 c 0,-13.204 -8.278,-24.3715 -26.008,-24.3715 -17.3518,0 -24.8127,11.1675 -24.8127,23.2385 l 0,31.91 8.7109,0 0,-29.488 c 0,-14.063 8.5628,-17.93 16.3708,-17.93 8.008,0 17.032,3.711 17.032,17.73 l 0,29.688 8.707,0" /></g></g></svg>