<?xml version="1.0" encoding="UTF-8" standalone="no"?>
<svg
   xmlns:dc="http://purl.org/dc/elements/1.1/"
   xmlns:cc="http://creativecommons.org/ns#"
   xmlns:rdf="http://www.w3.org/1999/02/22-rdf-syntax-ns#"
   xmlns:svg="http://www.w3.org/2000/svg"
   xmlns="http://www.w3.org/2000/svg"
   viewBox="0 0 78.75 31.25"
   height="31.25"
   width="78.75"
   xml:space="preserve"
   version="1.1"
   id="svg2"><metadata
     id="metadata8"><rdf:RDF><cc:Work
         rdf:about=""><dc:format>image/svg+xml</dc:format><dc:type
           rdf:resource="http://purl.org/dc/dcmitype/StillImage" /></cc:Work></rdf:RDF></metadata><defs
     id="defs6" /><g
     transform="matrix(1.25,0,0,-1.25,0,31.25)"
     id="g10"><g
       transform="scale(0.1,0.1)"
       id="g12"><path
         id="path14"
         style="fill:#036998;fill-opacity:1;fill-rule:nonzero;stroke:none"
         d="m 18.4805,15.4297 590.82,0 0,190.941 -590.82,0 0,-190.941 z" /><path
         id="path16"
         style="fill:none;stroke:#ffffff;stroke-width:3.99993992;stroke-linecap:butt;stroke-linejoin:miter;stroke-miterlimit:4;stroke-dasharray:none;stroke-opacity:1"
         d="m 18.4805,15.4297 590.82,0 0,190.941 -590.82,0 0,-190.941 z" /><path
         id="path18"
         style="fill:#036998;fill-opacity:1;fill-rule:nonzero;stroke:none"
         d="m 18.8711,228.398 591.051,0 0,19.6523 -591.051,0 0,-19.6523 z" /><path
         id="path20"
         style="fill:none;stroke:#ffffff;stroke-width:3.99993992;stroke-linecap:butt;stroke-linejoin:miter;stroke-miterlimit:4;stroke-dasharray:none;stroke-opacity:1"
         d="m 18.8711,228.398 591.051,0 0,19.6523 -591.051,0 0,-19.6523 z" /><path
         id="path22"
         style="fill:#036998;fill-opacity:1;fill-rule:nonzero;stroke:none"
         d="m 39.8398,154.34 17.0313,0 0,36.6797 -17.0313,0 0,-36.6797 z" /><path
         id="path24"
         style="fill:none;stroke:#ffffff;stroke-width:3.99993992;stroke-linecap:butt;stroke-linejoin:miter;stroke-miterlimit:4;stroke-dasharray:none;stroke-opacity:1"
         d="m 39.8398,154.34 17.0313,0 0,36.6797 -17.0313,0 0,-36.6797 z" /><path
         id="path26"
         style="fill:#036998;fill-opacity:1;fill-rule:nonzero;stroke:none"
         d="m 39.8398,100.578 17.0313,0 0,36.7227 -17.0313,0 0,-36.7227 z" /><path
         id="path28"
         style="fill:none;stroke:#ffffff;stroke-width:3.99993992;stroke-linecap:butt;stroke-linejoin:miter;stroke-miterlimit:4;stroke-dasharray:none;stroke-opacity:1"
         d="m 39.8398,100.578 17.0313,0 0,36.7227 -17.0313,0 0,-36.7227 z" /><path
         id="path30"
         style="fill:#036998;fill-opacity:1;fill-rule:nonzero;stroke:none"
         d="m 39.8398,46.8711 17.0313,0 0,36.6797 -17.0313,0 0,-36.6797 z" /><path
         id="path32"
         style="fill:none;stroke:#ffffff;stroke-width:3.99993992;stroke-linecap:butt;stroke-linejoin:miter;stroke-miterlimit:4;stroke-dasharray:none;stroke-opacity:1"
         d="m 39.8398,46.8711 17.0313,0 0,36.6797 -17.0313,0 0,-36.6797 z" /><path
         id="path34"
         style="fill:#036998;fill-opacity:1;fill-rule:nonzero;stroke:none"
         d="m 248.441,41.25 66.5977,0 0,96.3711 -66.5977,0 0,-96.3711 z" /><path
         id="path36"
         style="fill:none;stroke:#ffffff;stroke-width:3.99993992;stroke-linecap:butt;stroke-linejoin:miter;stroke-miterlimit:4;stroke-dasharray:none;stroke-opacity:1"
         d="m 248.441,41.25 66.5977,0 0,96.3711 -66.5977,0 0,-96.3711 z" /><path
         id="path38"
         style="fill:#036998;fill-opacity:1;fill-rule:nonzero;stroke:none"
         d="m 315.039,41.25 66.6406,0 0,96.3711 -66.6406,0 0,-96.3711 z" /><path
         id="path40"
         style="fill:none;stroke:#ffffff;stroke-width:3.99993992;stroke-linecap:butt;stroke-linejoin:miter;stroke-miterlimit:4;stroke-dasharray:none;stroke-opacity:1"
         d="m 315.039,41.25 66.6406,0 0,96.3711 -66.6406,0 0,-96.3711 z" /><path
         id="path42"
         style="fill:#036998;fill-opacity:1;fill-rule:nonzero;stroke:none"
         d="m 615.16,228.398 10.5,-22.308 -622.49984,0 10.46874,22.308 601.5311,0" /><path
         id="path44"
         style="fill:none;stroke:#ffffff;stroke-width:3.99993992;stroke-linecap:butt;stroke-linejoin:miter;stroke-miterlimit:4;stroke-dasharray:none;stroke-opacity:1"
         d="m 615.16,228.398 10.5,-22.308 -622.49984,0 10.46874,22.308 601.5311,0 z" /><path
         id="path46"
         style="fill:#036998;fill-opacity:1;fill-rule:nonzero;stroke:none"
         d="m 231.449,31.0898 167.23,0 0,15.3906 -167.23,0 0,-15.3906 z" /><path
         id="path48"
         style="fill:none;stroke:#ffffff;stroke-width:3.99993992;stroke-linecap:butt;stroke-linejoin:miter;stroke-miterlimit:4;stroke-dasharray:none;stroke-opacity:1"
         d="m 231.449,31.0898 167.23,0 0,15.3906 -167.23,0 0,-15.3906 z" /><path
         id="path50"
         style="fill:#036998;fill-opacity:1;fill-rule:nonzero;stroke:none"
         d="m 222.93,15.4297 184.262,0 0,15.6602 -184.262,0 0,-15.6602 z" /><path
         id="path52"
         style="fill:none;stroke:#ffffff;stroke-width:3.99993992;stroke-linecap:butt;stroke-linejoin:miter;stroke-miterlimit:4;stroke-dasharray:none;stroke-opacity:1"
         d="m 222.93,15.4297 184.262,0 0,15.6602 -184.262,0 0,-15.6602 z" /><path
         id="path54"
         style="fill:#036998;fill-opacity:1;fill-rule:nonzero;stroke:none"
         d="m 94.8789,154.34 17.0313,0 0,36.6797 -17.0313,0 0,-36.6797 z" /><path
         id="path56"
         style="fill:none;stroke:#ffffff;stroke-width:3.99993992;stroke-linecap:butt;stroke-linejoin:miter;stroke-miterlimit:4;stroke-dasharray:none;stroke-opacity:1"
         d="m 94.8789,154.34 17.0313,0 0,36.6797 -17.0313,0 0,-36.6797 z" /><path
         id="path58"
         style="fill:#036998;fill-opacity:1;fill-rule:nonzero;stroke:none"
         d="m 94.8789,100.578 17.0313,0 0,36.7227 -17.0313,0 0,-36.7227 z" /><path
         id="path60"
         style="fill:none;stroke:#ffffff;stroke-width:3.99993992;stroke-linecap:butt;stroke-linejoin:miter;stroke-miterlimit:4;stroke-dasharray:none;stroke-opacity:1"
         d="m 94.8789,100.578 17.0313,0 0,36.7227 -17.0313,0 0,-36.7227 z" /><path
         id="path62"
         style="fill:#036998;fill-opacity:1;fill-rule:nonzero;stroke:none"
         d="m 94.8789,46.8711 17.0313,0 0,36.6797 -17.0313,0 0,-36.6797 z" /><path
         id="path64"
         style="fill:none;stroke:#ffffff;stroke-width:3.99993992;stroke-linecap:butt;stroke-linejoin:miter;stroke-miterlimit:4;stroke-dasharray:none;stroke-opacity:1"
         d="m 94.8789,46.8711 17.0313,0 0,36.6797 -17.0313,0 0,-36.6797 z" /><path
         id="path66"
         style="fill:#036998;fill-opacity:1;fill-rule:nonzero;stroke:none"
         d="m 149.922,154.34 17.0273,0 0,36.6797 -17.0273,0 0,-36.6797 z" /><path
         id="path68"
         style="fill:none;stroke:#ffffff;stroke-width:3.99993992;stroke-linecap:butt;stroke-linejoin:miter;stroke-miterlimit:4;stroke-dasharray:none;stroke-opacity:1"
         d="m 149.922,154.34 17.0273,0 0,36.6797 -17.0273,0 0,-36.6797 z" /><path
         id="path70"
         style="fill:#036998;fill-opacity:1;fill-rule:nonzero;stroke:none"
         d="m 149.922,100.578 17.0273,0 0,36.7227 -17.0273,0 0,-36.7227 z" /><path
         id="path72"
         style="fill:none;stroke:#ffffff;stroke-width:3.99993992;stroke-linecap:butt;stroke-linejoin:miter;stroke-miterlimit:4;stroke-dasharray:none;stroke-opacity:1"
         d="m 149.922,100.578 17.0273,0 0,36.7227 -17.0273,0 0,-36.7227 z" /><path
         id="path74"
         style="fill:#036998;fill-opacity:1;fill-rule:nonzero;stroke:none"
         d="m 149.922,46.8711 17.0273,0 0,36.6797 -17.0273,0 0,-36.6797 z" /><path
         id="path76"
         style="fill:none;stroke:#ffffff;stroke-width:3.99993992;stroke-linecap:butt;stroke-linejoin:miter;stroke-miterlimit:4;stroke-dasharray:none;stroke-opacity:1"
         d="m 149.922,46.8711 17.0273,0 0,36.6797 -17.0273,0 0,-36.6797 z" /><path
         id="path78"
         style="fill:#036998;fill-opacity:1;fill-rule:nonzero;stroke:none"
         d="m 204.961,154.34 17.0273,0 0,36.6797 -17.0273,0 0,-36.6797 z" /><path
         id="path80"
         style="fill:none;stroke:#ffffff;stroke-width:3.99993992;stroke-linecap:butt;stroke-linejoin:miter;stroke-miterlimit:4;stroke-dasharray:none;stroke-opacity:1"
         d="m 204.961,154.34 17.0273,0 0,36.6797 -17.0273,0 0,-36.6797 z" /><path
         id="path82"
         style="fill:#036998;fill-opacity:1;fill-rule:nonzero;stroke:none"
         d="m 204.961,100.578 17.0273,0 0,36.7227 -17.0273,0 0,-36.7227 z" /><path
         id="path84"
         style="fill:none;stroke:#ffffff;stroke-width:3.99993992;stroke-linecap:butt;stroke-linejoin:miter;stroke-miterlimit:4;stroke-dasharray:none;stroke-opacity:1"
         d="m 204.961,100.578 17.0273,0 0,36.7227 -17.0273,0 0,-36.7227 z" /><path
         id="path86"
         style="fill:#036998;fill-opacity:1;fill-rule:nonzero;stroke:none"
         d="m 204.961,46.8711 17.0273,0 0,36.6797 -17.0273,0 0,-36.6797 z" /><path
         id="path88"
         style="fill:none;stroke:#ffffff;stroke-width:3.99993992;stroke-linecap:butt;stroke-linejoin:miter;stroke-miterlimit:4;stroke-dasharray:none;stroke-opacity:1"
         d="m 204.961,46.8711 17.0273,0 0,36.6797 -17.0273,0 0,-36.6797 z" /><path
         id="path90"
         style="fill:#036998;fill-opacity:1;fill-rule:nonzero;stroke:none"
         d="m 573.238,154.34 17.0313,0 0,36.6797 -17.0313,0 0,-36.6797 z" /><path
         id="path92"
         style="fill:none;stroke:#ffffff;stroke-width:3.99993992;stroke-linecap:butt;stroke-linejoin:miter;stroke-miterlimit:4;stroke-dasharray:none;stroke-opacity:1"
         d="m 573.238,154.34 17.0313,0 0,36.6797 -17.0313,0 0,-36.6797 z" /><path
         id="path94"
         style="fill:#036998;fill-opacity:1;fill-rule:nonzero;stroke:none"
         d="m 573.238,100.578 17.0313,0 0,36.7227 -17.0313,0 0,-36.7227 z" /><path
         id="path96"
         style="fill:none;stroke:#ffffff;stroke-width:3.99993992;stroke-linecap:butt;stroke-linejoin:miter;stroke-miterlimit:4;stroke-dasharray:none;stroke-opacity:1"
         d="m 573.238,100.578 17.0313,0 0,36.7227 -17.0313,0 0,-36.7227 z" /><path
         id="path98"
         style="fill:#036998;fill-opacity:1;fill-rule:nonzero;stroke:none"
         d="m 573.238,46.8711 17.0313,0 0,36.6797 -17.0313,0 0,-36.6797 z" /><path
         id="path100"
         style="fill:none;stroke:#ffffff;stroke-width:3.99993992;stroke-linecap:butt;stroke-linejoin:miter;stroke-miterlimit:4;stroke-dasharray:none;stroke-opacity:1"
         d="m 573.238,46.8711 17.0313,0 0,36.6797 -17.0313,0 0,-36.6797 z" /><path
         id="path102"
         style="fill:#036998;fill-opacity:1;fill-rule:nonzero;stroke:none"
         d="m 518.199,154.34 17.0313,0 0,36.6797 -17.0313,0 0,-36.6797 z" /><path
         id="path104"
         style="fill:none;stroke:#ffffff;stroke-width:3.99993992;stroke-linecap:butt;stroke-linejoin:miter;stroke-miterlimit:4;stroke-dasharray:none;stroke-opacity:1"
         d="m 518.199,154.34 17.0313,0 0,36.6797 -17.0313,0 0,-36.6797 z" /><path
         id="path106"
         style="fill:#036998;fill-opacity:1;fill-rule:nonzero;stroke:none"
         d="m 518.199,100.578 17.0313,0 0,36.7227 -17.0313,0 0,-36.7227 z" /><path
         id="path108"
         style="fill:none;stroke:#ffffff;stroke-width:3.99993992;stroke-linecap:butt;stroke-linejoin:miter;stroke-miterlimit:4;stroke-dasharray:none;stroke-opacity:1"
         d="m 518.199,100.578 17.0313,0 0,36.7227 -17.0313,0 0,-36.7227 z" /><path
         id="path110"
         style="fill:#036998;fill-opacity:1;fill-rule:nonzero;stroke:none"
         d="m 518.199,46.8711 17.0313,0 0,36.6797 -17.0313,0 0,-36.6797 z" /><path
         id="path112"
         style="fill:none;stroke:#ffffff;stroke-width:3.99993992;stroke-linecap:butt;stroke-linejoin:miter;stroke-miterlimit:4;stroke-dasharray:none;stroke-opacity:1"
         d="m 518.199,46.8711 17.0313,0 0,36.6797 -17.0313,0 0,-36.6797 z" /><path
         id="path114"
         style="fill:#036998;fill-opacity:1;fill-rule:nonzero;stroke:none"
         d="m 463.121,154.34 17.0703,0 0,36.6797 -17.0703,0 0,-36.6797 z" /><path
         id="path116"
         style="fill:none;stroke:#ffffff;stroke-width:3.99993992;stroke-linecap:butt;stroke-linejoin:miter;stroke-miterlimit:4;stroke-dasharray:none;stroke-opacity:1"
         d="m 463.121,154.34 17.0703,0 0,36.6797 -17.0703,0 0,-36.6797 z" /><path
         id="path118"
         style="fill:#036998;fill-opacity:1;fill-rule:nonzero;stroke:none"
         d="m 463.121,100.578 17.0703,0 0,36.7227 -17.0703,0 0,-36.7227 z" /><path
         id="path120"
         style="fill:none;stroke:#ffffff;stroke-width:3.99993992;stroke-linecap:butt;stroke-linejoin:miter;stroke-miterlimit:4;stroke-dasharray:none;stroke-opacity:1"
         d="m 463.121,100.578 17.0703,0 0,36.7227 -17.0703,0 0,-36.7227 z" /><path
         id="path122"
         style="fill:#036998;fill-opacity:1;fill-rule:nonzero;stroke:none"
         d="m 463.121,46.8711 17.0703,0 0,36.6797 -17.0703,0 0,-36.6797 z" /><path
         id="path124"
         style="fill:none;stroke:#ffffff;stroke-width:3.99993992;stroke-linecap:butt;stroke-linejoin:miter;stroke-miterlimit:4;stroke-dasharray:none;stroke-opacity:1"
         d="m 463.121,46.8711 17.0703,0 0,36.6797 -17.0703,0 0,-36.6797 z" /><path
         id="path126"
         style="fill:#036998;fill-opacity:1;fill-rule:nonzero;stroke:none"
         d="m 408.09,154.34 17.0703,0 0,36.6797 -17.0703,0 0,-36.6797 z" /><path
         id="path128"
         style="fill:none;stroke:#ffffff;stroke-width:3.99993992;stroke-linecap:butt;stroke-linejoin:miter;stroke-miterlimit:4;stroke-dasharray:none;stroke-opacity:1"
         d="m 408.09,154.34 17.0703,0 0,36.6797 -17.0703,0 0,-36.6797 z" /><path
         id="path130"
         style="fill:#036998;fill-opacity:1;fill-rule:nonzero;stroke:none"
         d="m 408.09,100.578 17.0703,0 0,36.7227 -17.0703,0 0,-36.7227 z" /><path
         id="path132"
         style="fill:none;stroke:#ffffff;stroke-width:3.99993992;stroke-linecap:butt;stroke-linejoin:miter;stroke-miterlimit:4;stroke-dasharray:none;stroke-opacity:1"
         d="m 408.09,100.578 17.0703,0 0,36.7227 -17.0703,0 0,-36.7227 z" /><path
         id="path134"
         style="fill:#036998;fill-opacity:1;fill-rule:nonzero;stroke:none"
         d="m 408.09,46.8711 17.0703,0 0,36.6797 -17.0703,0 0,-36.6797 z" /><path
         id="path136"
         style="fill:none;stroke:#ffffff;stroke-width:3.99993992;stroke-linecap:butt;stroke-linejoin:miter;stroke-miterlimit:4;stroke-dasharray:none;stroke-opacity:1"
         d="m 408.09,46.8711 17.0703,0 0,36.6797 -17.0703,0 0,-36.6797 z" /><path
         id="path138"
         style="fill:#036998;fill-opacity:1;fill-rule:nonzero;stroke:none"
         d="m 356.988,154.34 17.0313,0 0,36.6797 -17.0313,0 0,-36.6797 z" /><path
         id="path140"
         style="fill:none;stroke:#ffffff;stroke-width:3.99993992;stroke-linecap:butt;stroke-linejoin:miter;stroke-miterlimit:4;stroke-dasharray:none;stroke-opacity:1"
         d="m 356.988,154.34 17.0313,0 0,36.6797 -17.0313,0 0,-36.6797 z" /><path
         id="path142"
         style="fill:#036998;fill-opacity:1;fill-rule:nonzero;stroke:none"
         d="m 307.191,154.34 17.0273,0 0,36.6797 -17.0273,0 0,-36.6797 z" /><path
         id="path144"
         style="fill:none;stroke:#ffffff;stroke-width:3.99993992;stroke-linecap:butt;stroke-linejoin:miter;stroke-miterlimit:4;stroke-dasharray:none;stroke-opacity:1"
         d="m 307.191,154.34 17.0273,0 0,36.6797 -17.0273,0 0,-36.6797 z" /><path
         id="path146"
         style="fill:#036998;fill-opacity:1;fill-rule:nonzero;stroke:none"
         d="m 257.379,154.34 17.0313,0 0,36.6797 -17.0313,0 0,-36.6797 z" /><path
         id="path148"
         style="fill:none;stroke:#ffffff;stroke-width:3.99993992;stroke-linecap:butt;stroke-linejoin:miter;stroke-miterlimit:4;stroke-dasharray:none;stroke-opacity:1"
         d="m 257.379,154.34 17.0313,0 0,36.6797 -17.0313,0 0,-36.6797 z" /><path
         id="path150"
         style="fill:#036998;fill-opacity:1;fill-rule:nonzero;stroke:none"
         d="m 260,96.1289 15.0781,0 0,30.1602 -15.0781,0 0,-30.1602 z" /><path
         id="path152"
         style="fill:none;stroke:#ffffff;stroke-width:3.99993992;stroke-linecap:butt;stroke-linejoin:miter;stroke-miterlimit:4;stroke-dasharray:none;stroke-opacity:1"
         d="m 260,96.1289 15.0781,0 0,30.1602 -15.0781,0 0,-30.1602 z" /><path
         id="path154"
         style="fill:#036998;fill-opacity:1;fill-rule:nonzero;stroke:none"
         d="m 286.211,96.1289 15.0781,0 0,30.1602 -15.0781,0 0,-30.1602 z" /><path
         id="path156"
         style="fill:none;stroke:#ffffff;stroke-width:3.99993992;stroke-linecap:butt;stroke-linejoin:miter;stroke-miterlimit:4;stroke-dasharray:none;stroke-opacity:1"
         d="m 286.211,96.1289 15.0781,0 0,30.1602 -15.0781,0 0,-30.1602 z" /><path
         id="path158"
         style="fill:#036998;fill-opacity:1;fill-rule:nonzero;stroke:none"
         d="m 355.039,96.1289 15.082,0 0,30.1602 -15.082,0 0,-30.1602 z" /><path
         id="path160"
         style="fill:none;stroke:#ffffff;stroke-width:3.99993992;stroke-linecap:butt;stroke-linejoin:miter;stroke-miterlimit:4;stroke-dasharray:none;stroke-opacity:1"
         d="m 355.039,96.1289 15.082,0 0,30.1602 -15.082,0 0,-30.1602 z" /><path
         id="path162"
         style="fill:#036998;fill-opacity:1;fill-rule:nonzero;stroke:none"
         d="m 328.828,96.1289 15.082,0 0,30.1602 -15.082,0 0,-30.1602 z" /><path
         id="path164"
         style="fill:none;stroke:#ffffff;stroke-width:3.99993992;stroke-linecap:butt;stroke-linejoin:miter;stroke-miterlimit:4;stroke-dasharray:none;stroke-opacity:1"
         d="m 328.828,96.1289 15.082,0 0,30.1602 -15.082,0 0,-30.1602 z" /><path
         id="path166"
         style="fill:#036998;fill-opacity:1;fill-rule:nonzero;stroke:none"
         d="m 215.078,0 199.961,0 0,15.4297 -199.961,0 0,-15.4297 z" /><path
         id="path168"
         style="fill:none;stroke:#ffffff;stroke-width:3.99993992;stroke-linecap:butt;stroke-linejoin:miter;stroke-miterlimit:4;stroke-dasharray:none;stroke-opacity:1"
         d="m 215.078,0 199.961,0 0,15.4297 -199.961,0 0,-15.4297 z" /></g></g></svg>