<?xml version="1.0" encoding="UTF-8" standalone="no"?>
<svg
   xmlns:dc="http://purl.org/dc/elements/1.1/"
   xmlns:cc="http://creativecommons.org/ns#"
   xmlns:rdf="http://www.w3.org/1999/02/22-rdf-syntax-ns#"
   xmlns:svg="http://www.w3.org/2000/svg"
   xmlns="http://www.w3.org/2000/svg"
   viewBox="0 0 54.825001 52.162498"
   height="52.162498"
   width="54.825001"
   xml:space="preserve"
   version="1.1"
   id="svg2"><metadata
     id="metadata8"><rdf:RDF><cc:Work
         rdf:about=""><dc:format>image/svg+xml</dc:format><dc:type
           rdf:resource="http://purl.org/dc/dcmitype/StillImage" /></cc:Work></rdf:RDF></metadata><defs
     id="defs6" /><g
     transform="matrix(1.25,0,0,-1.25,0,52.1625)"
     id="g10"><g
       transform="scale(0.1,0.1)"
       id="g12"><path
         id="path14"
         style="fill:#087fbf;fill-opacity:1;fill-rule:nonzero;stroke:none"
         d="m 391.113,133.828 34.942,190.106 -266.422,0 -39.238,-190.106 270.718,0" /><path
         id="path16"
         style="fill:none;stroke:#ffffff;stroke-width:4;stroke-linecap:butt;stroke-linejoin:miter;stroke-miterlimit:4;stroke-dasharray:none;stroke-opacity:1"
         d="m 391.113,133.828 34.942,190.106 -266.422,0 -39.238,-190.106 270.718,0 z" /><path
         id="path18"
         style="fill:#087fbf;fill-opacity:1;fill-rule:nonzero;stroke:none"
         d="m 426.055,323.934 10.41,-13.473 -32.481,-184.59 -12.871,7.957 34.942,190.106" /><path
         id="path20"
         style="fill:none;stroke:#ffffff;stroke-width:4;stroke-linecap:butt;stroke-linejoin:miter;stroke-miterlimit:4;stroke-dasharray:none;stroke-opacity:1"
         d="m 426.055,323.934 10.41,-13.473 -32.481,-184.59 -12.871,7.957 34.942,190.106 z" /><path
         id="path22"
         style="fill:#087fbf;fill-opacity:1;fill-rule:nonzero;stroke:none"
         d="m 120.395,133.828 11.64,-7.957 271.949,0 -12.871,7.957 -270.718,0" /><path
         id="path24"
         style="fill:none;stroke:#ffffff;stroke-width:4;stroke-linecap:butt;stroke-linejoin:miter;stroke-miterlimit:4;stroke-dasharray:none;stroke-opacity:1"
         d="m 120.395,133.828 11.64,-7.957 271.949,0 -12.871,7.957 -270.718,0 z" /><path
         id="path26"
         style="fill:#087fbf;fill-opacity:1;fill-rule:nonzero;stroke:none"
         d="m 393.574,121.27 0,-27.2466 -7.051,-6.1328 c 0,0 -16.543,-4.8906 -12.871,-14.6875 l -73.789,-68.61326 0,30.01956 93.711,86.6606" /><path
         id="path28"
         style="fill:none;stroke:#ffffff;stroke-width:4;stroke-linecap:butt;stroke-linejoin:miter;stroke-miterlimit:4;stroke-dasharray:none;stroke-opacity:1"
         d="m 393.574,121.27 0,-27.2466 -7.051,-6.1328 c 0,0 -16.543,-4.8906 -12.871,-14.6875 l -73.789,-68.61326 0,30.01956 93.711,86.6606 z" /><path
         id="path30"
         style="fill:#087fbf;fill-opacity:1;fill-rule:nonzero;stroke:none"
         d="m 6.17578,4.58984 293.688,0 0,30.0195 -293.688,0 0,-30.0195 z" /><path
         id="path32"
         style="fill:none;stroke:#ffffff;stroke-width:4;stroke-linecap:butt;stroke-linejoin:miter;stroke-miterlimit:4;stroke-dasharray:none;stroke-opacity:1"
         d="m 6.17578,34.6094 0,-30.01956 293.68722,0 0,30.01956 -293.68722,0" /><path
         id="path34"
         style="fill:#087fbf;fill-opacity:1;fill-rule:nonzero;stroke:none"
         d="m 123.461,119.434 270.113,1.836 -93.711,-86.6606 -293.68722,0 117.28522,84.8246" /><path
         id="path36"
         style="fill:none;stroke:#ffffff;stroke-width:4;stroke-linecap:butt;stroke-linejoin:miter;stroke-miterlimit:4;stroke-dasharray:none;stroke-opacity:1"
         d="m 123.461,119.434 270.113,1.836 -93.711,-86.6606 -293.68722,0 117.28522,84.8246 z" /><path
         id="path38"
         style="fill:#087fbf;fill-opacity:1;fill-rule:nonzero;stroke:none"
         d="m 368.516,151.719 27.89,150.293 -216.636,0 -27.891,-150.293 216.637,0" /><path
         id="path40"
         style="fill:none;stroke:#ffffff;stroke-width:4;stroke-linecap:butt;stroke-linejoin:miter;stroke-miterlimit:4;stroke-dasharray:none;stroke-opacity:1"
         d="m 368.516,151.719 27.89,150.293 -216.636,0 -27.891,-150.293 216.637,0 z" /><path
         id="path42"
         style="fill:none;stroke:#ffffff;stroke-width:1;stroke-linecap:butt;stroke-linejoin:round;stroke-miterlimit:4;stroke-dasharray:none;stroke-opacity:1"
         d="M 129.809,117.52 61.6836,62.5078" /><path
         id="path44"
         style="fill:none;stroke:#ffffff;stroke-width:1;stroke-linecap:butt;stroke-linejoin:round;stroke-miterlimit:4;stroke-dasharray:none;stroke-opacity:1"
         d="M 151.684,117.52 83.5586,62.5078" /><path
         id="path46"
         style="fill:none;stroke:#ffffff;stroke-width:1;stroke-linecap:butt;stroke-linejoin:round;stroke-miterlimit:4;stroke-dasharray:none;stroke-opacity:1"
         d="M 173.559,117.52 105.434,62.5078" /><path
         id="path48"
         style="fill:none;stroke:#ffffff;stroke-width:1;stroke-linecap:butt;stroke-linejoin:round;stroke-miterlimit:4;stroke-dasharray:none;stroke-opacity:1"
         d="M 195.434,117.52 127.309,62.5078" /><path
         id="path50"
         style="fill:none;stroke:#ffffff;stroke-width:1;stroke-linecap:butt;stroke-linejoin:round;stroke-miterlimit:4;stroke-dasharray:none;stroke-opacity:1"
         d="M 217.305,117.52 149.184,62.5078" /><path
         id="path52"
         style="fill:none;stroke:#ffffff;stroke-width:1;stroke-linecap:butt;stroke-linejoin:round;stroke-miterlimit:4;stroke-dasharray:none;stroke-opacity:1"
         d="M 239.18,117.52 171.059,62.5078" /><path
         id="path54"
         style="fill:none;stroke:#ffffff;stroke-width:1;stroke-linecap:butt;stroke-linejoin:round;stroke-miterlimit:4;stroke-dasharray:none;stroke-opacity:1"
         d="M 261.055,117.52 192.934,62.5078" /><path
         id="path56"
         style="fill:none;stroke:#ffffff;stroke-width:1;stroke-linecap:butt;stroke-linejoin:round;stroke-miterlimit:4;stroke-dasharray:none;stroke-opacity:1"
         d="M 282.93,117.52 214.805,62.5078" /><path
         id="path58"
         style="fill:none;stroke:#ffffff;stroke-width:1;stroke-linecap:butt;stroke-linejoin:round;stroke-miterlimit:4;stroke-dasharray:none;stroke-opacity:1"
         d="M 304.805,117.52 236.68,62.5078" /><path
         id="path60"
         style="fill:none;stroke:#ffffff;stroke-width:1;stroke-linecap:butt;stroke-linejoin:round;stroke-miterlimit:4;stroke-dasharray:none;stroke-opacity:1"
         d="M 326.68,117.52 258.555,62.5078" /><path
         id="path62"
         style="fill:none;stroke:#ffffff;stroke-width:1;stroke-linecap:butt;stroke-linejoin:round;stroke-miterlimit:4;stroke-dasharray:none;stroke-opacity:1"
         d="M 348.555,117.52 280.43,62.5078" /><path
         id="path64"
         style="fill:none;stroke:#ffffff;stroke-width:1;stroke-linecap:butt;stroke-linejoin:round;stroke-miterlimit:4;stroke-dasharray:none;stroke-opacity:1"
         d="M 370.43,117.52 302.305,62.5078" /><path
         id="path66"
         style="fill:none;stroke:#ffffff;stroke-width:1;stroke-linecap:butt;stroke-linejoin:round;stroke-miterlimit:4;stroke-dasharray:none;stroke-opacity:1"
         d="m 69.3008,68.3086 242.5152,0" /><path
         id="path68"
         style="fill:none;stroke:#ffffff;stroke-width:1;stroke-linecap:butt;stroke-linejoin:round;stroke-miterlimit:4;stroke-dasharray:none;stroke-opacity:1"
         d="m 85.6094,80.918 238.7656,0" /><path
         id="path70"
         style="fill:none;stroke:#ffffff;stroke-width:1;stroke-linecap:butt;stroke-linejoin:round;stroke-miterlimit:4;stroke-dasharray:none;stroke-opacity:1"
         d="m 102.523,93.5156 238.141,0" /><path
         id="path72"
         style="fill:none;stroke:#ffffff;stroke-width:1;stroke-linecap:butt;stroke-linejoin:round;stroke-miterlimit:4;stroke-dasharray:none;stroke-opacity:1"
         d="m 117.582,106.133 240.016,0" /><path
         id="path74"
         style="fill:#087fbf;fill-opacity:1;fill-rule:nonzero;stroke:none"
         d="m 300.527,348.398 c 18.594,0 33.661,15.067 33.661,33.661 0,18.586 -15.067,33.644 -33.661,33.644 -18.586,0 -33.652,-15.058 -33.652,-33.644 0,-18.594 15.066,-33.661 33.652,-33.661" /><path
         id="path76"
         style="fill:none;stroke:#ffffff;stroke-width:3.20000005;stroke-linecap:butt;stroke-linejoin:miter;stroke-miterlimit:4;stroke-dasharray:none;stroke-opacity:1"
         d="m 300.527,348.398 c 18.594,0 33.661,15.067 33.661,33.661 0,18.586 -15.067,33.644 -33.661,33.644 -18.586,0 -33.652,-15.058 -33.652,-33.644 0,-18.594 15.066,-33.661 33.652,-33.661 z" /><path
         id="path78"
         style="fill:#087fbf;fill-opacity:1;fill-rule:nonzero;stroke:none"
         d="m 251.777,330.977 8.711,52.089 c 0,-22.304 18.075,-40.382 40.379,-40.382 22.317,0 40.395,18.078 40.395,40.382 l 8.211,-52.148 -97.696,0.059" /><path
         id="path80"
         style="fill:#ffffff;fill-opacity:1;fill-rule:nonzero;stroke:none"
         d="m 277.473,373.281 45.8945,0 0,15.3047 -45.8945,0 0,-15.3047 z" /><path
         id="path82"
         style="fill:#ffffff;fill-opacity:1;fill-rule:nonzero;stroke:none"
         d="m 271.172,281.172 37.324,0 c -18.66,-4.793 -26.133,-25.594 -26.133,-25.594 l 15.469,-8.535 -33.066,-21.867 -16.536,47.996 13.313,-6.551 c 2.129,8 9.629,14.551 9.629,14.551" /><path
         id="path84"
         style="fill:#ffffff;fill-opacity:1;fill-rule:nonzero;stroke:none"
         d="m 302.102,163.836 c 5.652,18.43 -8.899,33.957 -8.899,33.957 l -15.351,-8.742 -1.407,39.621 49.59,-10.938 -12.539,-7.929 c 13.137,-17.696 9.563,-38.867 9.563,-38.867 -7.09,-9.227 -20.957,-7.102 -20.957,-7.102" /><path
         id="path86"
         style="fill:#ffffff;fill-opacity:1;fill-rule:nonzero;stroke:none"
         d="m 211.73,219.336 c 11.969,-6.348 25.438,-3.457 25.438,-3.457 l 0.43,17.656 34.668,-19.219 -34.942,-36.847 -0.32,14.836 c -10.227,-0.996 -19.234,1.504 -25.93,4.461 l 0.656,22.57" /></g></g></svg>