<?xml version="1.0" encoding="UTF-8" standalone="no"?>
<svg
   xmlns:dc="http://purl.org/dc/elements/1.1/"
   xmlns:cc="http://creativecommons.org/ns#"
   xmlns:rdf="http://www.w3.org/1999/02/22-rdf-syntax-ns#"
   xmlns:svg="http://www.w3.org/2000/svg"
   xmlns="http://www.w3.org/2000/svg"
   viewBox="0 0 55 53.75"
   height="53.75"
   width="55"
   xml:space="preserve"
   version="1.1"
   id="svg2"><metadata
     id="metadata8"><rdf:RDF><cc:Work
         rdf:about=""><dc:format>image/svg+xml</dc:format><dc:type
           rdf:resource="http://purl.org/dc/dcmitype/StillImage" /></cc:Work></rdf:RDF></metadata><defs
     id="defs6" /><g
     transform="matrix(1.25,0,0,-1.25,0,53.75)"
     id="g10"><g
       transform="scale(0.1,0.1)"
       id="g12"><path
         id="path14"
         style="fill:#087fbf;fill-opacity:1;fill-rule:nonzero;stroke:none"
         d="m 391.129,143.828 34.922,190.113 -266.403,0 -39.257,-190.113 270.738,0" /><path
         id="path16"
         style="fill:none;stroke:#ffffff;stroke-width:4;stroke-linecap:butt;stroke-linejoin:miter;stroke-miterlimit:4;stroke-dasharray:none;stroke-opacity:1"
         d="m 391.129,143.824 34.922,190.121 -266.403,0 -39.257,-190.121 270.738,0 z" /><path
         id="path18"
         style="fill:#087fbf;fill-opacity:1;fill-rule:nonzero;stroke:none"
         d="m 426.051,333.941 10.429,-13.472 -32.5,-184.61 -12.851,7.969 34.922,190.113" /><path
         id="path20"
         style="fill:none;stroke:#ffffff;stroke-width:4;stroke-linecap:butt;stroke-linejoin:miter;stroke-miterlimit:4;stroke-dasharray:none;stroke-opacity:1"
         d="m 426.051,333.945 10.429,-13.48 -32.5,-184.61 -12.851,7.969 34.922,190.121 z" /><path
         id="path22"
         style="fill:#087fbf;fill-opacity:1;fill-rule:nonzero;stroke:none"
         d="m 120.391,143.828 11.64,-7.969 271.949,0 -12.851,7.969 -270.738,0" /><path
         id="path24"
         style="fill:none;stroke:#ffffff;stroke-width:4;stroke-linecap:butt;stroke-linejoin:miter;stroke-miterlimit:4;stroke-dasharray:none;stroke-opacity:1"
         d="m 120.391,143.824 11.64,-7.969 271.949,0 -12.851,7.969 -270.738,0 z" /><path
         id="path26"
         style="fill:#087fbf;fill-opacity:1;fill-rule:nonzero;stroke:none"
         d="m 393.59,131.289 0,-27.269 -7.07,-6.1294 c 0,0 -16.52,-4.8789 -12.848,-14.6914 l -73.793,-68.5898 0,30 93.711,86.6796" /><path
         id="path28"
         style="fill:none;stroke:#ffffff;stroke-width:4;stroke-linecap:butt;stroke-linejoin:miter;stroke-miterlimit:4;stroke-dasharray:none;stroke-opacity:1"
         d="m 393.59,131.285 0,-27.262 -7.07,-6.1285 c 0,0 -16.52,-4.8906 -12.848,-14.6914 l -73.793,-68.5976 0,30 93.711,86.6795 z" /><path
         id="path30"
         style="fill:#087fbf;fill-opacity:1;fill-rule:nonzero;stroke:none"
         d="m 6.17188,14.6094 293.707,0 0,30 -293.707,0 0,-30 z" /><path
         id="path32"
         style="fill:none;stroke:#ffffff;stroke-width:4;stroke-linecap:butt;stroke-linejoin:miter;stroke-miterlimit:4;stroke-dasharray:none;stroke-opacity:1"
         d="m 6.17188,14.6055 293.707,0 0,30 -293.707,0 0,-30 z" /><path
         id="path34"
         style="fill:#087fbf;fill-opacity:1;fill-rule:nonzero;stroke:none"
         d="m 123.48,129.449 270.11,1.84 -93.711,-86.6796 -293.70712,0 L 123.48,129.449" /><path
         id="path36"
         style="fill:none;stroke:#ffffff;stroke-width:4;stroke-linecap:butt;stroke-linejoin:miter;stroke-miterlimit:4;stroke-dasharray:none;stroke-opacity:1"
         d="m 123.48,129.453 270.11,1.832 -93.711,-86.6795 -293.70712,0 L 123.48,129.453 Z" /><path
         id="path38"
         style="fill:#087fbf;fill-opacity:1;fill-rule:nonzero;stroke:none"
         d="m 368.52,161.719 27.89,150.312 -216.64,0 -27.891,-150.312 216.641,0" /><path
         id="path40"
         style="fill:none;stroke:#ffffff;stroke-width:4;stroke-linecap:butt;stroke-linejoin:miter;stroke-miterlimit:4;stroke-dasharray:none;stroke-opacity:1"
         d="m 368.52,161.715 27.89,150.32 -216.64,0 -27.891,-150.32 216.641,0 z" /><path
         id="path42"
         style="fill:none;stroke:#ffffff;stroke-width:1;stroke-linecap:butt;stroke-linejoin:round;stroke-miterlimit:4;stroke-dasharray:none;stroke-opacity:1"
         d="M 129.801,127.535 61.6797,72.5039" /><path
         id="path44"
         style="fill:none;stroke:#ffffff;stroke-width:1;stroke-linecap:butt;stroke-linejoin:round;stroke-miterlimit:4;stroke-dasharray:none;stroke-opacity:1"
         d="M 151.68,127.535 83.5508,72.5039" /><path
         id="path46"
         style="fill:none;stroke:#ffffff;stroke-width:1;stroke-linecap:butt;stroke-linejoin:round;stroke-miterlimit:4;stroke-dasharray:none;stroke-opacity:1"
         d="M 173.551,127.535 105.43,72.5039" /><path
         id="path48"
         style="fill:none;stroke:#ffffff;stroke-width:1;stroke-linecap:butt;stroke-linejoin:round;stroke-miterlimit:4;stroke-dasharray:none;stroke-opacity:1"
         d="M 195.43,127.535 127.301,72.5039" /><path
         id="path50"
         style="fill:none;stroke:#ffffff;stroke-width:1;stroke-linecap:butt;stroke-linejoin:round;stroke-miterlimit:4;stroke-dasharray:none;stroke-opacity:1"
         d="M 217.301,127.535 149.18,72.5039" /><path
         id="path52"
         style="fill:none;stroke:#ffffff;stroke-width:1;stroke-linecap:butt;stroke-linejoin:round;stroke-miterlimit:4;stroke-dasharray:none;stroke-opacity:1"
         d="M 239.18,127.535 171.051,72.5039" /><path
         id="path54"
         style="fill:none;stroke:#ffffff;stroke-width:1;stroke-linecap:butt;stroke-linejoin:round;stroke-miterlimit:4;stroke-dasharray:none;stroke-opacity:1"
         d="M 261.051,127.535 192.93,72.5039" /><path
         id="path56"
         style="fill:none;stroke:#ffffff;stroke-width:1;stroke-linecap:butt;stroke-linejoin:round;stroke-miterlimit:4;stroke-dasharray:none;stroke-opacity:1"
         d="M 282.93,127.535 214.801,72.5039" /><path
         id="path58"
         style="fill:none;stroke:#ffffff;stroke-width:1;stroke-linecap:butt;stroke-linejoin:round;stroke-miterlimit:4;stroke-dasharray:none;stroke-opacity:1"
         d="M 304.801,127.535 236.68,72.5039" /><path
         id="path60"
         style="fill:none;stroke:#ffffff;stroke-width:1;stroke-linecap:butt;stroke-linejoin:round;stroke-miterlimit:4;stroke-dasharray:none;stroke-opacity:1"
         d="M 326.68,127.535 258.551,72.5039" /><path
         id="path62"
         style="fill:none;stroke:#ffffff;stroke-width:1;stroke-linecap:butt;stroke-linejoin:round;stroke-miterlimit:4;stroke-dasharray:none;stroke-opacity:1"
         d="M 348.551,127.535 280.43,72.5039" /><path
         id="path64"
         style="fill:none;stroke:#ffffff;stroke-width:1;stroke-linecap:butt;stroke-linejoin:round;stroke-miterlimit:4;stroke-dasharray:none;stroke-opacity:1"
         d="M 370.43,127.535 302.301,72.5039" /><path
         id="path66"
         style="fill:none;stroke:#ffffff;stroke-width:1;stroke-linecap:butt;stroke-linejoin:round;stroke-miterlimit:4;stroke-dasharray:none;stroke-opacity:1"
         d="m 69.3008,78.3242 242.5392,0" /><path
         id="path68"
         style="fill:none;stroke:#ffffff;stroke-width:1;stroke-linecap:butt;stroke-linejoin:round;stroke-miterlimit:4;stroke-dasharray:none;stroke-opacity:1"
         d="m 85.6211,90.9336 238.7579,0" /><path
         id="path70"
         style="fill:none;stroke:#ffffff;stroke-width:1;stroke-linecap:butt;stroke-linejoin:round;stroke-miterlimit:4;stroke-dasharray:none;stroke-opacity:1"
         d="m 102.539,103.516 238.121,0" /><path
         id="path72"
         style="fill:none;stroke:#ffffff;stroke-width:1;stroke-linecap:butt;stroke-linejoin:round;stroke-miterlimit:4;stroke-dasharray:none;stroke-opacity:1"
         d="m 117.578,116.133 240.043,0" /><path
         id="path74"
         style="fill:#087fbf;fill-opacity:1;fill-rule:nonzero;stroke:none"
         d="m 300.551,358.398 c 18.59,0 33.629,15.082 33.629,33.672 0,18.59 -15.039,33.629 -33.629,33.629 -18.602,0 -33.672,-15.039 -33.672,-33.629 0,-18.59 15.07,-33.672 33.672,-33.672" /><path
         id="path76"
         style="fill:none;stroke:#ffffff;stroke-width:3.20000005;stroke-linecap:butt;stroke-linejoin:miter;stroke-miterlimit:4;stroke-dasharray:none;stroke-opacity:1"
         d="m 300.551,358.395 c 18.59,0 33.629,15.078 33.629,33.679 0,18.59 -15.039,33.629 -33.629,33.629 -18.602,0 -33.672,-15.039 -33.672,-33.629 0,-18.601 15.07,-33.679 33.672,-33.679 z" /><path
         id="path78"
         style="fill:#087fbf;fill-opacity:1;fill-rule:nonzero;stroke:none"
         d="m 251.801,340.98 8.711,52.11 c 0,-22.309 18.039,-40.399 40.347,-40.399 22.34,0 40.391,18.09 40.391,40.399 l 8.238,-52.149 -97.687,0.039" /><path
         id="path80"
         style="fill:#ffffff;fill-opacity:1;fill-rule:nonzero;stroke:none"
         d="m 277.461,383.281 45.8984,0 0,15.3086 -45.8984,0 0,-15.3086 z" /><path
         id="path82"
         style="fill:#ffffff;fill-opacity:1;fill-rule:nonzero;stroke:none"
         d="m 271.172,291.172 37.348,0 C 289.84,286.371 282.379,265.59 282.379,265.59 l 15.473,-8.559 -33.082,-21.84 -16.532,47.969 13.321,-6.519 c 2.113,7.968 9.613,14.531 9.613,14.531" /><path
         id="path84"
         style="fill:#ffffff;fill-opacity:1;fill-rule:nonzero;stroke:none"
         d="m 302.109,173.828 c 5.661,18.434 -8.91,33.981 -8.91,33.981 l -15.347,-8.75 -1.403,39.613 49.602,-10.942 -12.531,-7.929 c 13.121,-17.692 9.531,-38.86 9.531,-38.86 -7.071,-9.222 -20.942,-7.113 -20.942,-7.113" /><path
         id="path86"
         style="fill:#ffffff;fill-opacity:1;fill-rule:nonzero;stroke:none"
         d="m 211.719,229.34 c 11.992,-6.328 25.472,-3.442 25.472,-3.442 l 0.43,17.653 34.649,-19.211 -34.93,-36.879 -0.352,14.84 c -10.187,-0.973 -19.218,1.527 -25.898,4.461 l 0.629,22.578" /></g></g></svg>