<?xml version="1.0" encoding="UTF-8" standalone="no"?>
<svg
   xmlns:dc="http://purl.org/dc/elements/1.1/"
   xmlns:cc="http://creativecommons.org/ns#"
   xmlns:rdf="http://www.w3.org/1999/02/22-rdf-syntax-ns#"
   xmlns:svg="http://www.w3.org/2000/svg"
   xmlns="http://www.w3.org/2000/svg"
   viewBox="0 0 47.875 31.862499"
   height="31.862499"
   width="47.875"
   xml:space="preserve"
   version="1.1"
   id="svg2"><metadata
     id="metadata8"><rdf:RDF><cc:Work
         rdf:about=""><dc:format>image/svg+xml</dc:format><dc:type
           rdf:resource="http://purl.org/dc/dcmitype/StillImage" /></cc:Work></rdf:RDF></metadata><defs
     id="defs6"><clipPath
       id="clipPath18"
       clipPathUnits="userSpaceOnUse"><path
         id="path20"
         d="m 0,4.92188 380,0 0,250 -380,0 0,-250 z" /></clipPath></defs><g
     transform="matrix(1.25,0,0,-1.25,0,31.8625)"
     id="g10"><g
       transform="scale(0.1,0.1)"
       id="g12"><g
         id="g14"><g
           clip-path="url(#clipPath18)"
           id="g16"><path
             id="path22"
             style="fill:#036998;fill-opacity:1;fill-rule:nonzero;stroke:none"
             d="m 5.65625,6.46484 333.156,0 0,194.512 -333.156,0 0,-194.512 z" /><path
             id="path24"
             style="fill:none;stroke:#ffffff;stroke-width:3.99993992;stroke-linecap:butt;stroke-linejoin:miter;stroke-miterlimit:4;stroke-dasharray:none;stroke-opacity:1"
             d="m 5.65625,6.46484 333.156,0 0,194.512 -333.156,0 0,-194.512 z" /><path
             id="path26"
             style="fill:#036998;fill-opacity:1;fill-rule:nonzero;stroke:none"
             d="m 378.715,64.8242 -39.902,-58.35936 0,194.51216 39.902,48.378 0,-184.5308" /><path
             id="path28"
             style="fill:none;stroke:#ffffff;stroke-width:3.99993992;stroke-linecap:butt;stroke-linejoin:miter;stroke-miterlimit:4;stroke-dasharray:none;stroke-opacity:1"
             d="m 378.715,64.8242 -39.902,-58.35936 0,194.51216 39.902,48.378 0,-184.5308 z" /><path
             id="path30"
             style="fill:#036998;fill-opacity:1;fill-rule:nonzero;stroke:none"
             d="m 65.5078,249.355 313.2072,0 -39.902,-48.378 -333.15675,0 59.85155,48.378" /><path
             id="path32"
             style="fill:none;stroke:#ffffff;stroke-width:3.99993992;stroke-linecap:butt;stroke-linejoin:miter;stroke-miterlimit:4;stroke-dasharray:none;stroke-opacity:1"
             d="m 65.5078,249.355 313.2072,0 -39.902,-48.378 -333.15675,0 59.85155,48.378 z" /><g
             transform="scale(10,10)"
             id="g34"><text
               id="text36"
               style="font-variant:normal;font-weight:bold;font-size:7px;font-family:Helvetica;-inkscape-font-specification:Helvetica-Bold;writing-mode:lr-tb;fill:#ffffff;fill-opacity:1;fill-rule:nonzero;stroke:none"
               transform="matrix(1,0,0,-1,10.0867,12.4727)"><tspan
                 id="tspan38"
                 y="0"
                 x="0 5.0539999 9.7229996">UPS</tspan></text>
</g><path
             id="path40"
             style="fill:#ffffff;fill-opacity:1;fill-rule:nonzero;stroke:none"
             d="m 170.23,64.707 c 0.04,0.0196 43.243,2.3633 43.243,2.3633 0,0 -53.125,20.2344 -63.145,23.7813 0.664,0.2812 48.418,0.8672 48.418,0.8672 L 54.0078,131.68 149.164,96.7188 c -0.476,-0.2032 -35,-2.5 -35,-2.5 0,0 35.149,-17.1954 44.934,-20.6641 -1.465,-0.6055 -32.02,-9.3359 -32.02,-9.3359 L 298.871,16.4258 170.23,64.707" /></g></g></g></g></svg>