<?xml version="1.0" encoding="UTF-8" standalone="no"?>
<svg
   xmlns:dc="http://purl.org/dc/elements/1.1/"
   xmlns:cc="http://creativecommons.org/ns#"
   xmlns:rdf="http://www.w3.org/1999/02/22-rdf-syntax-ns#"
   xmlns:svg="http://www.w3.org/2000/svg"
   xmlns="http://www.w3.org/2000/svg"
   viewBox="0 0 57.5 41.25"
   height="41.25"
   width="57.5"
   xml:space="preserve"
   version="1.1"
   id="svg2"><metadata
     id="metadata8"><rdf:RDF><cc:Work
         rdf:about=""><dc:format>image/svg+xml</dc:format><dc:type
           rdf:resource="http://purl.org/dc/dcmitype/StillImage" /></cc:Work></rdf:RDF></metadata><defs
     id="defs6" /><g
     transform="matrix(1.25,0,0,-1.25,0,41.25)"
     id="g10"><g
       transform="scale(0.1,0.1)"
       id="g12"><path
         id="path14"
         style="fill:#087bbb;fill-opacity:1;fill-rule:nonzero;stroke:none"
         d="m 11.3281,14.4805 381.48,0 0,250.621 -381.48,0 0,-250.621 z" /><path
         id="path16"
         style="fill:none;stroke:#ffffff;stroke-width:4;stroke-linecap:butt;stroke-linejoin:miter;stroke-miterlimit:4;stroke-dasharray:none;stroke-opacity:1"
         d="m 11.3281,14.4844 381.48,0 0,250.617 -381.48,0 0,-250.617 z" /><path
         id="path18"
         style="fill:#087bbb;fill-opacity:1;fill-rule:nonzero;stroke:none"
         d="m 448.16,64.1992 -55.351,-49.7187 0,250.6215 55.351,53.25 0,-254.1528" /><path
         id="path20"
         style="fill:none;stroke:#ffffff;stroke-width:4;stroke-linecap:butt;stroke-linejoin:miter;stroke-miterlimit:4;stroke-dasharray:none;stroke-opacity:1"
         d="m 448.16,64.2031 -55.351,-49.7187 0,250.6176 55.351,53.242 0,-254.1409 z" /><path
         id="path22"
         style="fill:#087bbb;fill-opacity:1;fill-rule:nonzero;stroke:none"
         d="m 77.1484,318.352 371.0116,0 -55.351,-53.25 -381.4809,0 65.8203,53.25" /><path
         id="path24"
         style="fill:none;stroke:#ffffff;stroke-width:8;stroke-linecap:butt;stroke-linejoin:miter;stroke-miterlimit:4;stroke-dasharray:none;stroke-opacity:1"
         d="m 77.1484,318.344 371.0116,0 -55.351,-53.242 -381.4809,0 65.8203,53.242 z" /><path
         id="path26"
         style="fill:#ffffff;fill-opacity:1;fill-rule:nonzero;stroke:none"
         d="m 342.07,203.621 -33.91,-0.043 0,10.16 33.91,0.032 0,15.859 36.989,-20.93 -36.989,-20.98 0,15.902" /><path
         id="path28"
         style="fill:#ffffff;fill-opacity:1;fill-rule:nonzero;stroke:none"
         d="m 342.07,76.9414 -33.91,-0.043 0,10.1602 33.91,0.043 0,15.8474 36.989,-20.9685 -36.989,-20.9414 0,15.9023" /><path
         id="path30"
         style="fill:#ffffff;fill-opacity:1;fill-rule:nonzero;stroke:none"
         d="m 64.1797,139.629 -37.8906,-0.07 0,10.152 37.8906,0.039 0.0391,15.859 36.9922,-20.937 -36.9922,-20.934 -0.0391,15.891" /><path
         id="path32"
         style="fill:#087bbb;fill-opacity:1;fill-rule:nonzero;stroke:none"
         d="m 285.59,180.102 c 0,-17.813 -38.91,-32.262 -86.961,-32.262 -48.039,0 -86.988,14.449 -86.988,32.262 l 0,-74.293 c 0,-17.7777 38.949,-32.2309 86.988,-32.2309 48.051,0 86.961,14.4532 86.961,32.2309 l 0,74.293" /><path
         id="path34"
         style="fill:none;stroke:#ffffff;stroke-width:4;stroke-linecap:butt;stroke-linejoin:miter;stroke-miterlimit:4;stroke-dasharray:none;stroke-opacity:1"
         d="m 285.59,180.102 c 0,-17.809 -38.91,-32.27 -86.961,-32.27 -48.039,0 -86.988,14.461 -86.988,32.27 l 0,-74.301 c 0,-17.7697 38.949,-32.219 86.988,-32.219 48.051,0 86.961,14.4493 86.961,32.219 l 0,74.301 z" /><path
         id="path36"
         style="fill:#087bbb;fill-opacity:1;fill-rule:nonzero;stroke:none"
         d="m 198.629,147.84 c 48.051,0 86.961,14.449 86.961,32.262 0,17.82 -38.91,32.226 -86.961,32.226 -48.039,0 -86.988,-14.406 -86.988,-32.226 0,-17.813 38.949,-32.262 86.988,-32.262" /><path
         id="path38"
         style="fill:none;stroke:#ffffff;stroke-width:4;stroke-linecap:butt;stroke-linejoin:miter;stroke-miterlimit:4;stroke-dasharray:none;stroke-opacity:1"
         d="m 198.629,147.832 c 48.051,0 86.961,14.461 86.961,32.27 0,17.812 -38.91,32.23 -86.961,32.23 -48.039,0 -86.988,-14.418 -86.988,-32.23 0,-17.809 38.949,-32.27 86.988,-32.27 z" /></g></g></svg>