<?xml version="1.0" encoding="UTF-8" standalone="no"?>
<svg
   xmlns:dc="http://purl.org/dc/elements/1.1/"
   xmlns:cc="http://creativecommons.org/ns#"
   xmlns:rdf="http://www.w3.org/1999/02/22-rdf-syntax-ns#"
   xmlns:svg="http://www.w3.org/2000/svg"
   xmlns="http://www.w3.org/2000/svg"
   viewBox="0 0 57.262501 39.125"
   height="39.125"
   width="57.262501"
   xml:space="preserve"
   version="1.1"
   id="svg2"><metadata
     id="metadata8"><rdf:RDF><cc:Work
         rdf:about=""><dc:format>image/svg+xml</dc:format><dc:type
           rdf:resource="http://purl.org/dc/dcmitype/StillImage" /></cc:Work></rdf:RDF></metadata><defs
     id="defs6" /><g
     transform="matrix(1.25,0,0,-1.25,0,39.125)"
     id="g10"><g
       transform="scale(0.1,0.1)"
       id="g12"><path
         id="path14"
         style="fill:#087bbb;fill-opacity:1;fill-rule:nonzero;stroke:none"
         d="m 11.3125,4.48047 381.484,0 0,250.637 -381.484,0 0,-250.637 z" /><path
         id="path16"
         style="fill:none;stroke:#ffffff;stroke-width:4;stroke-linecap:butt;stroke-linejoin:miter;stroke-miterlimit:4;stroke-dasharray:none;stroke-opacity:1"
         d="m 11.3125,4.48047 381.484,0 0,250.637 -381.484,0 0,-250.637 z" /><path
         id="path18"
         style="fill:#087bbb;fill-opacity:1;fill-rule:nonzero;stroke:none"
         d="m 448.168,54.2188 -55.371,-49.73833 0,250.63653 55.371,53.215 0,-254.1132" /><path
         id="path20"
         style="fill:none;stroke:#ffffff;stroke-width:4;stroke-linecap:butt;stroke-linejoin:miter;stroke-miterlimit:4;stroke-dasharray:none;stroke-opacity:1"
         d="m 448.168,54.2188 -55.371,-49.73833 0,250.63653 55.371,53.215 0,-254.1132 z" /><path
         id="path22"
         style="fill:#087bbb;fill-opacity:1;fill-rule:nonzero;stroke:none"
         d="m 77.1445,308.332 371.0235,0 -55.371,-53.215 -381.4845,0 65.832,53.215" /><path
         id="path24"
         style="fill:none;stroke:#ffffff;stroke-width:8;stroke-linecap:butt;stroke-linejoin:miter;stroke-miterlimit:4;stroke-dasharray:none;stroke-opacity:1"
         d="m 77.1445,308.332 371.0235,0 -55.371,-53.215 -381.4845,0 65.832,53.215 z" /><path
         id="path26"
         style="fill:#ffffff;fill-opacity:1;fill-rule:nonzero;stroke:none"
         d="m 342.055,193.609 -33.887,-0.05 0,10.156 33.887,0.039 0.031,15.859 36.992,-20.937 -36.992,-20.946 -0.031,15.879" /><path
         id="path28"
         style="fill:#ffffff;fill-opacity:1;fill-rule:nonzero;stroke:none"
         d="m 342.055,66.9336 -33.887,-0.0391 0,10.1563 33.887,0.039 0.031,15.8594 36.992,-20.957 -36.992,-20.9375 -0.031,15.8789" /><path
         id="path30"
         style="fill:#ffffff;fill-opacity:1;fill-rule:nonzero;stroke:none"
         d="m 64.1953,129.629 -37.9101,-0.059 0,10.157 37.9101,0.039 0.0195,15.859 37.0122,-20.937 -37.0122,-20.938 -0.0195,15.879" /><path
         id="path32"
         style="fill:#087bbb;fill-opacity:1;fill-rule:nonzero;stroke:none"
         d="m 285.602,170.117 c 0,-17.832 -38.938,-32.265 -86.973,-32.265 -48.039,0 -86.992,14.433 -86.992,32.265 l 0,-74.2967 c 0,-17.793 38.953,-32.2265 86.992,-32.2265 48.035,0 86.973,14.4335 86.973,32.2265 l 0,74.2967" /><path
         id="path34"
         style="fill:none;stroke:#ffffff;stroke-width:4;stroke-linecap:butt;stroke-linejoin:miter;stroke-miterlimit:4;stroke-dasharray:none;stroke-opacity:1"
         d="m 285.602,170.117 c 0,-17.832 -38.938,-32.265 -86.973,-32.265 -48.039,0 -86.992,14.433 -86.992,32.265 l 0,-74.2967 c 0,-17.793 38.953,-32.2265 86.992,-32.2265 48.035,0 86.973,14.4335 86.973,32.2265 l 0,74.2967 z" /><path
         id="path36"
         style="fill:#087bbb;fill-opacity:1;fill-rule:nonzero;stroke:none"
         d="m 198.629,137.852 c 48.035,0 86.973,14.433 86.973,32.265 0,17.789 -38.938,32.223 -86.973,32.223 -48.039,0 -86.992,-14.434 -86.992,-32.223 0,-17.832 38.953,-32.265 86.992,-32.265" /><path
         id="path38"
         style="fill:none;stroke:#ffffff;stroke-width:4;stroke-linecap:butt;stroke-linejoin:miter;stroke-miterlimit:4;stroke-dasharray:none;stroke-opacity:1"
         d="m 198.629,137.852 c 48.035,0 86.973,14.433 86.973,32.265 0,17.789 -38.938,32.223 -86.973,32.223 -48.039,0 -86.992,-14.434 -86.992,-32.223 0,-17.832 38.953,-32.265 86.992,-32.265 z" /></g></g></svg>