<svg xmlns="http://www.w3.org/2000/svg" viewBox="0 0 57.5 41.25" height="41.25" width="57.5"><path d="M1.416 39.44h47.685V8.112H1.416V39.44z" fill="#087bbb"/><path d="M1.416 39.44h47.685V8.111H1.416V39.44z" fill="none" stroke="#fff" stroke-width=".5"/><path d="M56.02 33.225l-6.919 6.215V8.112l6.919-6.656v31.77" fill="#087bbb"/><path d="M56.02 33.225l-6.919 6.214V8.112l6.919-6.655v31.768z" fill="none" stroke="#fff" stroke-width=".5"/><path d="M9.644 1.456H56.02l-6.919 6.656H1.416l8.228-6.656" fill="#087bbb"/><path d="M9.644 1.457H56.02l-6.919 6.655H1.416l8.228-6.655z" fill="none" stroke="#fff" stroke-width="1"/><path d="M42.759 15.797l-4.239.006v-1.27l4.239-.004v-1.983l4.623 2.617-4.623 2.622v-1.988M42.759 31.632l-4.239.006v-1.27l4.239-.006v-1.98l4.623 2.62-4.623 2.618v-1.988M8.022 23.796l-4.736.01v-1.27l4.736-.005.005-1.982 4.624 2.617-4.624 2.617-.005-1.987" fill="#fff"/><path d="M35.699 18.737c0 2.227-4.864 4.033-10.87 4.033-6.005 0-10.874-1.806-10.874-4.033v9.287c0 2.222 4.869 4.029 10.874 4.029 6.006 0 10.87-1.807 10.87-4.03v-9.286" fill="#087bbb"/><path d="M35.699 18.737c0 2.226-4.864 4.034-10.87 4.034-6.005 0-10.874-1.808-10.874-4.034v9.288c0 2.221 4.869 4.027 10.874 4.027 6.006 0 10.87-1.806 10.87-4.027v-9.288z" fill="none" stroke="#fff" stroke-width=".5"/><path d="M24.829 22.77c6.006 0 10.87-1.806 10.87-4.033 0-2.227-4.864-4.028-10.87-4.028-6.005 0-10.874 1.8-10.874 4.028 0 2.227 4.869 4.033 10.874 4.033" fill="#087bbb"/><path d="M24.829 22.771c6.006 0 10.87-1.808 10.87-4.034s-4.864-4.028-10.87-4.028c-6.005 0-10.874 1.802-10.874 4.028 0 2.226 4.869 4.034 10.874 4.034z" fill="none" stroke="#fff" stroke-width=".5"/></svg>