<?xml version="1.0" encoding="UTF-8" standalone="no"?>
<svg
   xmlns:dc="http://purl.org/dc/elements/1.1/"
   xmlns:cc="http://creativecommons.org/ns#"
   xmlns:rdf="http://www.w3.org/1999/02/22-rdf-syntax-ns#"
   xmlns:svg="http://www.w3.org/2000/svg"
   xmlns="http://www.w3.org/2000/svg"
   viewBox="0 0 40.474998 58.075001"
   height="58.075001"
   width="40.474998"
   xml:space="preserve"
   version="1.1"
   id="svg2"><metadata
     id="metadata8"><rdf:RDF><cc:Work
         rdf:about=""><dc:format>image/svg+xml</dc:format><dc:type
           rdf:resource="http://purl.org/dc/dcmitype/StillImage" /></cc:Work></rdf:RDF></metadata><defs
     id="defs6"><clipPath
       id="clipPath18"
       clipPathUnits="userSpaceOnUse"><path
         id="path20"
         d="m 0,4.58594 320,0 0,460 -320,0 0,-460 z" /></clipPath></defs><g
     transform="matrix(1.25,0,0,-1.25,0,58.075)"
     id="g10"><g
       transform="scale(0.1,0.1)"
       id="g12"><g
         id="g14"><g
           clip-path="url(#clipPath18)"
           id="g16"><path
             id="path22"
             style="fill:none;stroke:#036998;stroke-width:10;stroke-linecap:butt;stroke-linejoin:miter;stroke-miterlimit:4;stroke-dasharray:none;stroke-opacity:1"
             d="M 149.719,339.555 149.719,0" /><path
             id="path24"
             style="fill:none;stroke:#036998;stroke-width:10;stroke-linecap:butt;stroke-linejoin:miter;stroke-miterlimit:4;stroke-dasharray:none;stroke-opacity:1"
             d="M 149.719,339.555 294.98,55.0664" /><path
             id="path26"
             style="fill:none;stroke:#036998;stroke-width:10;stroke-linecap:butt;stroke-linejoin:miter;stroke-miterlimit:4;stroke-dasharray:none;stroke-opacity:1"
             d="M 149.719,339.555 4.45313,55.0664" /><path
             id="path28"
             style="fill:#036998;fill-opacity:1;fill-rule:nonzero;stroke:none"
             d="m 106.211,300.348 87.0117,0 0,78.418 -87.0117,0 0,-78.418 z" /><path
             id="path30"
             style="fill:none;stroke:#ffffff;stroke-width:3.99993992;stroke-linecap:butt;stroke-linejoin:miter;stroke-miterlimit:4;stroke-dasharray:none;stroke-opacity:1"
             d="m 106.211,300.348 87.0117,0 0,78.418 -87.0117,0 0,-78.418 z" /><path
             id="path32"
             style="fill:#036998;fill-opacity:1;fill-rule:nonzero;stroke:none"
             d="m 25.0117,381.438 c -4.5703,0 -8.2734,10.847 -8.2734,24.23 0,13.387 3.7031,24.234 8.2734,24.234 l 43.4649,0 c 4.5703,0 8.2695,-10.847 8.2695,-24.234 0,-13.383 -3.6992,-24.23 -8.2695,-24.23 l -43.4649,0" /><path
             id="path34"
             style="fill:none;stroke:#ffffff;stroke-width:3.99993992;stroke-linecap:butt;stroke-linejoin:miter;stroke-miterlimit:4;stroke-dasharray:none;stroke-opacity:1"
             d="m 25.0117,381.438 c -4.5703,0 -8.2734,10.847 -8.2734,24.23 0,13.387 3.7031,24.234 8.2734,24.234 l 43.4649,0 c 4.5703,0 8.2695,-10.847 8.2695,-24.234 0,-13.383 -3.6992,-24.23 -8.2695,-24.23 l -43.4649,0 z" /><path
             id="path36"
             style="fill:#036998;fill-opacity:1;fill-rule:nonzero;stroke:none"
             d="m 56.9453,348.23 185.543,0 0,84.4219 -185.543,0 0,-84.4219 z" /><path
             id="path38"
             style="fill:none;stroke:#ffffff;stroke-width:3.99993992;stroke-linecap:butt;stroke-linejoin:miter;stroke-miterlimit:4;stroke-dasharray:none;stroke-opacity:1"
             d="m 56.9453,348.23 185.543,0 0,84.4219 -185.543,0 0,-84.4219 z" /><path
             id="path40"
             style="fill:#036998;fill-opacity:1;fill-rule:nonzero;stroke:none"
             d="m 242.488,347.965 0,84.687 -185.6521,0 23.9063,23.903 185.4688,0 0,-84.688 -23.723,-23.902" /><path
             id="path42"
             style="fill:none;stroke:#ffffff;stroke-width:3.99993992;stroke-linecap:butt;stroke-linejoin:miter;stroke-miterlimit:4;stroke-dasharray:none;stroke-opacity:1"
             d="m 242.488,347.965 0,84.687 -185.6521,0 23.9063,23.903 185.4688,0 0,-84.688 -23.723,-23.902 z" /><path
             id="path44"
             style="fill:#036998;fill-opacity:1;fill-rule:nonzero;stroke:none"
             d="m 242.488,432.652 23.723,23.903" /><path
             id="path46"
             style="fill:none;stroke:#ffffff;stroke-width:3.99993992;stroke-linecap:butt;stroke-linejoin:miter;stroke-miterlimit:4;stroke-dasharray:none;stroke-opacity:1"
             d="m 242.488,432.652 23.723,23.903" /><path
             id="path48"
             style="fill:#036998;fill-opacity:1;fill-rule:nonzero;stroke:none"
             d="m 242.488,370.605 -185.5427,0" /><path
             id="path50"
             style="fill:none;stroke:#ffffff;stroke-width:3.99993992;stroke-linecap:butt;stroke-linejoin:miter;stroke-miterlimit:4;stroke-dasharray:none;stroke-opacity:1"
             d="m 242.488,370.605 -185.5427,0" /><path
             id="path52"
             style="fill:#036998;fill-opacity:1;fill-rule:nonzero;stroke:none"
             d="M 266.211,394.242 242.488,370.344" /><path
             id="path54"
             style="fill:none;stroke:#ffffff;stroke-width:3.99993992;stroke-linecap:butt;stroke-linejoin:miter;stroke-miterlimit:4;stroke-dasharray:none;stroke-opacity:1"
             d="M 266.211,394.242 242.488,370.344" /><path
             id="path56"
             style="fill:#036998;fill-opacity:1;fill-rule:nonzero;stroke:none"
             d="m 321.094,461.461 -3.653,-18.047 -65.183,-42.387 -3.188,33.7 72.024,26.734" /><path
             id="path58"
             style="fill:none;stroke:#ffffff;stroke-width:3.99993992;stroke-linecap:butt;stroke-linejoin:miter;stroke-miterlimit:4;stroke-dasharray:none;stroke-opacity:1"
             d="m 321.094,461.461 -3.653,-18.047 -65.183,-42.387 -3.188,33.7 72.024,26.734 z" /></g></g></g></g></svg>