<?xml version="1.0" encoding="UTF-8" standalone="no"?>
<svg
   xmlns:dc="http://purl.org/dc/elements/1.1/"
   xmlns:cc="http://creativecommons.org/ns#"
   xmlns:rdf="http://www.w3.org/1999/02/22-rdf-syntax-ns#"
   xmlns:svg="http://www.w3.org/2000/svg"
   xmlns="http://www.w3.org/2000/svg"
   viewBox="0 0 40 57.5"
   height="57.5"
   width="40"
   xml:space="preserve"
   version="1.1"
   id="svg2"><metadata
     id="metadata8"><rdf:RDF><cc:Work
         rdf:about=""><dc:format>image/svg+xml</dc:format><dc:type
           rdf:resource="http://purl.org/dc/dcmitype/StillImage" /></cc:Work></rdf:RDF></metadata><defs
     id="defs6" /><g
     transform="matrix(1.25,0,0,-1.25,0,57.5)"
     id="g10"><g
       transform="scale(0.1,0.1)"
       id="g12"><path
         id="path14"
         style="fill:none;stroke:#036998;stroke-width:10;stroke-linecap:butt;stroke-linejoin:miter;stroke-miterlimit:4;stroke-dasharray:none;stroke-opacity:1"
         d="m 149.73,334.961 0,-339.53131" /><path
         id="path16"
         style="fill:none;stroke:#036998;stroke-width:10;stroke-linecap:butt;stroke-linejoin:miter;stroke-miterlimit:4;stroke-dasharray:none;stroke-opacity:1"
         d="M 149.73,334.961 294.961,50.4688" /><path
         id="path18"
         style="fill:none;stroke:#036998;stroke-width:10;stroke-linecap:butt;stroke-linejoin:miter;stroke-miterlimit:4;stroke-dasharray:none;stroke-opacity:1"
         d="M 149.73,334.961 4.44922,50.4688" /><path
         id="path20"
         style="fill:#036998;fill-opacity:1;fill-rule:nonzero;stroke:none"
         d="m 106.211,295.781 86.9883,0 0,78.3984 -86.9883,0 0,-78.3984 z" /><path
         id="path22"
         style="fill:none;stroke:#ffffff;stroke-width:3.99993992;stroke-linecap:butt;stroke-linejoin:miter;stroke-miterlimit:4;stroke-dasharray:none;stroke-opacity:1"
         d="m 106.211,295.781 86.9883,0 0,78.3984 -86.9883,0 0,-78.3984 z" /><path
         id="path24"
         style="fill:#036998;fill-opacity:1;fill-rule:nonzero;stroke:none"
         d="m 25,376.84 c -4.5703,0 -8.2812,10.859 -8.2812,24.25 0,13.359 3.7109,24.219 8.2812,24.219 l 43.4805,0 c 4.5703,0 8.2812,-10.86 8.2812,-24.219 0,-13.391 -3.7109,-24.25 -8.2812,-24.25 L 25,376.84" /><path
         id="path26"
         style="fill:none;stroke:#ffffff;stroke-width:3.99993992;stroke-linecap:butt;stroke-linejoin:miter;stroke-miterlimit:4;stroke-dasharray:none;stroke-opacity:1"
         d="m 25,376.84 c -4.5703,0 -8.2812,10.859 -8.2812,24.25 0,13.359 3.7109,24.219 8.2812,24.219 l 43.4805,0 c 4.5703,0 8.2812,-10.86 8.2812,-24.219 0,-13.391 -3.7109,-24.25 -8.2812,-24.25 L 25,376.84 Z" /><path
         id="path28"
         style="fill:#036998;fill-opacity:1;fill-rule:nonzero;stroke:none"
         d="m 56.9492,343.641 185.551,0 0,84.4102 -185.551,0 0,-84.4102 z" /><path
         id="path30"
         style="fill:none;stroke:#ffffff;stroke-width:3.99993992;stroke-linecap:butt;stroke-linejoin:miter;stroke-miterlimit:4;stroke-dasharray:none;stroke-opacity:1"
         d="m 56.9492,343.641 185.551,0 0,84.4102 -185.551,0 0,-84.4102 z" /><path
         id="path32"
         style="fill:#036998;fill-opacity:1;fill-rule:nonzero;stroke:none"
         d="m 242.5,343.398 0,84.653 -185.6602,0 23.8985,23.898 185.4727,0 0,-84.679 -23.711,-23.872" /><path
         id="path34"
         style="fill:none;stroke:#ffffff;stroke-width:3.99993992;stroke-linecap:butt;stroke-linejoin:miter;stroke-miterlimit:4;stroke-dasharray:none;stroke-opacity:1"
         d="m 242.5,343.398 0,84.653 -185.6602,0 23.8985,23.898 185.4727,0 0,-84.679 -23.711,-23.872 z" /><path
         id="path36"
         style="fill:#036998;fill-opacity:1;fill-rule:nonzero;stroke:none"
         d="m 242.5,428.051 23.711,23.898" /><path
         id="path38"
         style="fill:none;stroke:#ffffff;stroke-width:3.99993992;stroke-linecap:butt;stroke-linejoin:miter;stroke-miterlimit:4;stroke-dasharray:none;stroke-opacity:1"
         d="m 242.5,428.051 23.711,23.898" /><path
         id="path40"
         style="fill:none;stroke:#ffffff;stroke-width:3.99993992;stroke-linecap:butt;stroke-linejoin:miter;stroke-miterlimit:4;stroke-dasharray:none;stroke-opacity:1"
         d="m 242.5,366.02 -185.5508,0" /><path
         id="path42"
         style="fill:#036998;fill-opacity:1;fill-rule:nonzero;stroke:none"
         d="M 266.211,389.648 242.5,365.738" /><path
         id="path44"
         style="fill:none;stroke:#ffffff;stroke-width:3.99993992;stroke-linecap:butt;stroke-linejoin:miter;stroke-miterlimit:4;stroke-dasharray:none;stroke-opacity:1"
         d="M 266.211,389.648 242.5,365.738" /><path
         id="path46"
         style="fill:#036998;fill-opacity:1;fill-rule:nonzero;stroke:none"
         d="m 321.09,456.879 -3.668,-18.051 -65.152,-42.379 -3.211,33.711 72.031,26.719" /><path
         id="path48"
         style="fill:none;stroke:#ffffff;stroke-width:3.99993992;stroke-linecap:butt;stroke-linejoin:miter;stroke-miterlimit:4;stroke-dasharray:none;stroke-opacity:1"
         d="m 321.09,456.879 -3.668,-18.051 -65.152,-42.379 -3.211,33.711 72.031,26.719 z" /></g></g></svg>