<svg xmlns="http://www.w3.org/2000/svg" viewBox="0 0 40 57.5" height="57.5" width="40"><path d="M18.716 15.63V58.07M18.716 15.63L36.87 51.19M18.716 15.63L.556 51.19" fill="none" stroke="#036998" stroke-width="1.25"/><path d="M13.276 20.527H24.15v-9.8H13.276v9.8z" fill="#036998"/><path d="M13.276 20.527H24.15v-9.8H13.276v9.8z" fill="none" stroke="#fff" stroke-width=".5"/><path d="M3.125 10.395c-.571 0-1.035-1.357-1.035-3.031 0-1.67.464-3.028 1.035-3.028H8.56c.571 0 1.035 1.358 1.035 3.028 0 1.674-.464 3.031-1.035 3.031H3.125" fill="#036998"/><path d="M3.125 10.395c-.571 0-1.035-1.357-1.035-3.031 0-1.67.464-3.028 1.035-3.028H8.56c.571 0 1.035 1.358 1.035 3.028 0 1.674-.464 3.031-1.035 3.031H3.125z" fill="none" stroke="#fff" stroke-width=".5"/><path d="M7.119 14.545h23.194V3.994H7.119v10.55z" fill="#036998"/><path d="M7.119 14.545h23.194V3.994H7.119v10.55z" fill="none" stroke="#fff" stroke-width=".5"/><path d="M30.313 14.575V3.994H7.105l2.987-2.988h23.184v10.585l-2.964 2.984" fill="#036998"/><path d="M30.313 14.575V3.994H7.105l2.987-2.988h23.184v10.585l-2.964 2.984z" fill="none" stroke="#fff" stroke-width=".5"/><path d="M30.313 3.994l2.963-2.988" fill="#036998"/><path d="M30.313 3.994l2.963-2.988M30.313 11.748H7.119" fill="none" stroke="#fff" stroke-width=".5"/><path d="M33.276 8.794l-2.964 2.989" fill="#036998"/><path d="M33.276 8.794l-2.964 2.989" fill="none" stroke="#fff" stroke-width=".5"/><path d="M40.136.39l-.458 2.256-8.144 5.298-.402-4.214L40.136.39" fill="#036998"/><path d="M40.136.39l-.458 2.256-8.144 5.298-.402-4.214L40.136.39z" fill="none" stroke="#fff" stroke-width=".5"/></svg>