<?xml version="1.0" encoding="UTF-8" standalone="no"?>
<svg
   xmlns:dc="http://purl.org/dc/elements/1.1/"
   xmlns:cc="http://creativecommons.org/ns#"
   xmlns:rdf="http://www.w3.org/1999/02/22-rdf-syntax-ns#"
   xmlns:svg="http://www.w3.org/2000/svg"
   xmlns="http://www.w3.org/2000/svg"
   viewBox="0 0 38.912498 51.950001"
   height="51.950001"
   width="38.912498"
   xml:space="preserve"
   version="1.1"
   id="svg2"><metadata
     id="metadata8"><rdf:RDF><cc:Work
         rdf:about=""><dc:format>image/svg+xml</dc:format><dc:type
           rdf:resource="http://purl.org/dc/dcmitype/StillImage" /></cc:Work></rdf:RDF></metadata><defs
     id="defs6"><clipPath
       id="clipPath18"
       clipPathUnits="userSpaceOnUse"><path
         id="path20"
         d="M 0,0 0,416 310,416 310,0 0,0 Z" /></clipPath></defs><g
     transform="matrix(1.25,0,0,-1.25,0,51.95)"
     id="g10"><g
       transform="scale(0.1,0.1)"
       id="g12"><g
         id="g14"><g
           clip-path="url(#clipPath18)"
           id="g16"><path
             id="path22"
             style="fill:#026c9b;fill-opacity:1;fill-rule:nonzero;stroke:none"
             d="m 306.293,53.4063 0,357.4997 -51.336,-48.75 0,-357.49975 51.336,48.75005" /><path
             id="path24"
             style="fill:none;stroke:#ffffff;stroke-width:4;stroke-linecap:butt;stroke-linejoin:miter;stroke-miterlimit:4;stroke-dasharray:none;stroke-opacity:1"
             d="m 306.293,53.4063 0,357.4997 -51.336,-48.75 0,-357.49975 51.336,48.75005 z" /><path
             id="path26"
             style="fill:#026c9b;fill-opacity:1;fill-rule:nonzero;stroke:none"
             d="m 306.293,410.906 -51.336,-48.75 -248.99606,0 64.50386,48.75 235.8282,0" /><path
             id="path28"
             style="fill:none;stroke:#ffffff;stroke-width:4;stroke-linecap:butt;stroke-linejoin:miter;stroke-miterlimit:4;stroke-dasharray:none;stroke-opacity:1"
             d="m 306.293,410.906 -51.336,-48.75 -248.99606,0 64.50386,48.75 235.8282,0 z" /><path
             id="path30"
             style="fill:#026c9b;fill-opacity:1;fill-rule:nonzero;stroke:none"
             d="m 5.96094,115.906 248.996,0 0,246.25 -248.996,0 0,-246.25 z" /><path
             id="path32"
             style="fill:none;stroke:#ffffff;stroke-width:4;stroke-linecap:butt;stroke-linejoin:miter;stroke-miterlimit:4;stroke-dasharray:none;stroke-opacity:1"
             d="m 5.96094,115.906 248.996,0 0,246.25 -248.996,0 0,-246.25 z" /><path
             id="path34"
             style="fill:#026c9b;fill-opacity:1;fill-rule:nonzero;stroke:none"
             d="m 5.96094,4.65625 248.996,0 0,108.75 -248.996,0 0,-108.75 z" /><path
             id="path36"
             style="fill:none;stroke:#ffffff;stroke-width:4;stroke-linecap:butt;stroke-linejoin:miter;stroke-miterlimit:4;stroke-dasharray:none;stroke-opacity:1"
             d="m 5.96094,4.65625 248.996,0 0,108.75 -248.996,0 0,-108.75 z" /><path
             id="path38"
             style="fill:#ffffff;fill-opacity:1;fill-rule:nonzero;stroke:none"
             d="m 108.258,268.23 -37.883,37.883 6.4258,6.426 -23.7891,4.813 4.8164,-23.789 6.4258,6.425 37.8911,-37.871 6.113,6.113" /><path
             id="path40"
             style="fill:#ffffff;fill-opacity:1;fill-rule:nonzero;stroke:none"
             d="m 94.3984,243.426 -53.5742,0 0,9.082 -20.2226,-13.406 20.2226,-13.411 0,9.082 53.5742,0 0,8.653" /><path
             id="path42"
             style="fill:#ffffff;fill-opacity:1;fill-rule:nonzero;stroke:none"
             d="m 102.145,216.094 -37.8911,-37.883 -6.4258,6.426 -4.8164,-23.789 23.7891,4.824 -6.4258,6.426 37.883,37.871 -6.113,6.125" /><path
             id="path44"
             style="fill:#ffffff;fill-opacity:1;fill-rule:nonzero;stroke:none"
             d="m 126.938,202.234 0,-53.574 -9.083,0 13.411,-20.222 13.406,20.222 -9.082,0 0,53.574 -8.652,0" /><path
             id="path46"
             style="fill:#ffffff;fill-opacity:1;fill-rule:nonzero;stroke:none"
             d="m 126.938,274.422 0,53.574 -9.083,0 13.411,20.227 13.406,-20.227 -9.082,0 0,-53.574 -8.652,0" /><path
             id="path48"
             style="fill:#ffffff;fill-opacity:1;fill-rule:nonzero;stroke:none"
             d="m 154.273,209.969 37.879,-37.871 -6.414,-6.426 23.778,-4.824 -4.813,23.789 -6.426,-6.426 -37.89,37.883 -6.114,-6.125" /><path
             id="path50"
             style="fill:#ffffff;fill-opacity:1;fill-rule:nonzero;stroke:none"
             d="m 168.129,234.773 53.574,0 0,-9.082 20.227,13.411 -20.227,13.406 0,-9.082 -53.574,0 0,-8.653" /><path
             id="path52"
             style="fill:#ffffff;fill-opacity:1;fill-rule:nonzero;stroke:none"
             d="m 160.387,262.117 37.89,37.871 6.426,-6.425 4.813,23.789 -23.778,-4.813 6.426,-6.426 -37.891,-37.883 6.114,-6.113" /><path
             id="path54"
             style="fill:#ffffff;fill-opacity:1;fill-rule:nonzero;stroke:none"
             d="m 164.145,193.75 c 25.285,17.703 31.425,52.547 13.722,77.82 -17.695,25.285 -52.539,31.426 -77.824,13.731 C 74.7695,267.598 68.6172,232.742 86.3242,207.469 104.027,182.195 138.871,176.047 164.145,193.75" /><path
             id="path56"
             style="fill:none;stroke:#026c9b;stroke-width:4;stroke-linecap:butt;stroke-linejoin:miter;stroke-miterlimit:4;stroke-dasharray:none;stroke-opacity:1"
             d="m 164.145,193.75 c 25.285,17.703 31.425,52.547 13.722,77.82 -17.695,25.285 -52.539,31.426 -77.824,13.731 C 74.7695,267.598 68.6172,232.742 86.3242,207.469 104.027,182.195 138.871,176.047 164.145,193.75 Z" /><path
             id="path58"
             style="fill:#ffffff;fill-opacity:1;fill-rule:nonzero;stroke:none"
             d="m 135.543,79.2969 9.129,0 -13.406,20.2226 -13.411,-20.2226 9.036,0 0,-42.1875 -9.133,0 13.41,-20.2266 13.406,20.2266 -9.031,0 0,42.1875" /><path
             id="path60"
             style="fill:#ffffff;fill-opacity:1;fill-rule:nonzero;stroke:none"
             d="m 66.2734,79.2969 9.1407,0 -13.418,20.2226 -13.4063,-20.2226 9.043,0 0,-42.1875 -9.1406,0 13.4062,-20.2266 13.418,20.2266 -9.043,0 0,42.1875" /><path
             id="path62"
             style="fill:#ffffff;fill-opacity:1;fill-rule:nonzero;stroke:none"
             d="m 201.742,79.2969 9.141,0 -13.406,20.2226 -13.418,-20.2226 9.043,0 0,-42.1875 -9.141,0 13.406,-20.2266 13.418,20.2266 -9.043,0 0,42.1875" /></g></g></g></g></svg>