<?xml version="1.0" encoding="UTF-8" standalone="no"?>
<svg
   xmlns:dc="http://purl.org/dc/elements/1.1/"
   xmlns:cc="http://creativecommons.org/ns#"
   xmlns:rdf="http://www.w3.org/1999/02/22-rdf-syntax-ns#"
   xmlns:svg="http://www.w3.org/2000/svg"
   xmlns="http://www.w3.org/2000/svg"
   viewBox="0 0 38.75 53.75"
   height="53.75"
   width="38.75"
   xml:space="preserve"
   version="1.1"
   id="svg2"><metadata
     id="metadata8"><rdf:RDF><cc:Work
         rdf:about=""><dc:format>image/svg+xml</dc:format><dc:type
           rdf:resource="http://purl.org/dc/dcmitype/StillImage" /></cc:Work></rdf:RDF></metadata><defs
     id="defs6"><clipPath
       id="clipPath18"
       clipPathUnits="userSpaceOnUse"><path
         id="path20"
         d="M 0,10 0,426 310,426 310,10 0,10 Z" /></clipPath></defs><g
     transform="matrix(1.25,0,0,-1.25,0,53.75)"
     id="g10"><g
       transform="scale(0.1,0.1)"
       id="g12"><g
         id="g14"><g
           clip-path="url(#clipPath18)"
           id="g16"><path
             id="path22"
             style="fill:#026c9b;fill-opacity:1;fill-rule:nonzero;stroke:none"
             d="m 306.289,63.4141 0,357.4999 -51.328,-48.75 0,-357.4999 51.328,48.75" /><path
             id="path24"
             style="fill:none;stroke:#ffffff;stroke-width:4;stroke-linecap:butt;stroke-linejoin:miter;stroke-miterlimit:4;stroke-dasharray:none;stroke-opacity:1"
             d="m 306.289,63.4141 0,357.4999 -51.328,-48.75 0,-357.4999 51.328,48.75 z" /><path
             id="path26"
             style="fill:#026c9b;fill-opacity:1;fill-rule:nonzero;stroke:none"
             d="m 306.289,420.914 -51.328,-48.75 -248.98053,0 64.48833,48.75 235.8202,0" /><path
             id="path28"
             style="fill:none;stroke:#ffffff;stroke-width:4;stroke-linecap:butt;stroke-linejoin:miter;stroke-miterlimit:4;stroke-dasharray:none;stroke-opacity:1"
             d="m 306.289,420.914 -51.328,-48.75 -248.98053,0 64.48833,48.75 235.8202,0 z" /><path
             id="path30"
             style="fill:#026c9b;fill-opacity:1;fill-rule:nonzero;stroke:none"
             d="m 5.98047,125.914 248.98,0 0,246.25 -248.98,0 0,-246.25 z" /><path
             id="path32"
             style="fill:none;stroke:#ffffff;stroke-width:4;stroke-linecap:butt;stroke-linejoin:miter;stroke-miterlimit:4;stroke-dasharray:none;stroke-opacity:1"
             d="m 5.98047,125.914 248.98,0 0,246.25 -248.98,0 0,-246.25 z" /><path
             id="path34"
             style="fill:#026c9b;fill-opacity:1;fill-rule:nonzero;stroke:none"
             d="m 5.98047,14.6641 248.98,0 0,108.75 -248.98,0 0,-108.75 z" /><path
             id="path36"
             style="fill:none;stroke:#ffffff;stroke-width:4;stroke-linecap:butt;stroke-linejoin:miter;stroke-miterlimit:4;stroke-dasharray:none;stroke-opacity:1"
             d="m 5.98047,14.6641 248.98,0 0,108.75 -248.98,0 0,-108.75 z" /><path
             id="path38"
             style="fill:#ffffff;fill-opacity:1;fill-rule:nonzero;stroke:none"
             d="m 108.238,278.223 -37.8474,37.89 6.4102,6.442 -23.7891,4.808 4.7969,-23.789 6.4531,6.399 37.8863,-37.848 6.09,6.098" /><path
             id="path40"
             style="fill:#ffffff;fill-opacity:1;fill-rule:nonzero;stroke:none"
             d="m 94.4102,253.414 -53.5899,0 0,9.098 -20.2305,-13.399 20.2305,-13.429 0,9.101 53.5899,0 0,8.629" /><path
             id="path42"
             style="fill:#ffffff;fill-opacity:1;fill-rule:nonzero;stroke:none"
             d="m 102.148,226.113 -37.8863,-37.89 -6.4531,6.402 -4.7969,-23.793 23.7891,4.852 -6.4102,6.398 37.8474,37.891 -6.09,6.14" /><path
             id="path44"
             style="fill:#ffffff;fill-opacity:1;fill-rule:nonzero;stroke:none"
             d="m 126.949,212.242 0,-53.59 -9.097,0 13.398,-20.199 13.441,20.199 -9.101,0 0,53.59 -8.641,0" /><path
             id="path46"
             style="fill:#ffffff;fill-opacity:1;fill-rule:nonzero;stroke:none"
             d="m 126.949,284.434 0,53.55 -9.097,0 13.398,20.239 13.441,-20.239 -9.101,0 0,-53.55 -8.641,0" /><path
             id="path48"
             style="fill:#ffffff;fill-opacity:1;fill-rule:nonzero;stroke:none"
             d="m 154.262,219.973 37.886,-37.891 -6.41,-6.398 23.793,-4.852 -4.84,23.793 -6.41,-6.402 -37.89,37.89 -6.129,-6.14" /><path
             id="path50"
             style="fill:#ffffff;fill-opacity:1;fill-rule:nonzero;stroke:none"
             d="m 168.121,244.785 53.598,0 0,-9.101 20.191,13.429 -20.191,13.399 0,-9.098 -53.598,0 0,-8.629" /><path
             id="path52"
             style="fill:#ffffff;fill-opacity:1;fill-rule:nonzero;stroke:none"
             d="m 160.391,272.125 37.89,37.848 6.41,-6.399 4.84,23.789 -23.793,-4.808 6.41,-6.442 -37.886,-37.89 6.129,-6.098" /><path
             id="path54"
             style="fill:#ffffff;fill-opacity:1;fill-rule:nonzero;stroke:none"
             d="m 164.141,203.762 c 25.269,17.703 31.449,52.543 13.711,77.82 -17.692,25.27 -52.543,31.402 -77.813,13.711 -25.2695,-17.699 -31.4101,-52.539 -13.7109,-77.82 17.6919,-25.27 52.5429,-31.438 77.8129,-13.711" /><path
             id="path56"
             style="fill:none;stroke:#026c9b;stroke-width:4;stroke-linecap:butt;stroke-linejoin:miter;stroke-miterlimit:4;stroke-dasharray:none;stroke-opacity:1"
             d="m 164.141,203.762 c 25.269,17.703 31.449,52.543 13.711,77.82 -17.692,25.27 -52.543,31.402 -77.813,13.711 -25.2695,-17.699 -31.4101,-52.539 -13.7109,-77.82 17.6919,-25.27 52.5429,-31.438 77.8129,-13.711 z" /><path
             id="path58"
             style="fill:#ffffff;fill-opacity:1;fill-rule:nonzero;stroke:none"
             d="m 135.551,89.3125 9.14,0 -13.441,20.1995 -13.398,-20.1995 9.027,0 0,-42.1875 -9.109,0 13.402,-20.2305 13.398,20.2305 -9.019,0 0,42.1875" /><path
             id="path60"
             style="fill:#ffffff;fill-opacity:1;fill-rule:nonzero;stroke:none"
             d="m 66.2891,89.3125 9.1406,0 -13.4414,20.1995 -13.3985,-20.1995 9.0313,0 0,-42.1875 -9.1406,0 13.4297,-20.2305 13.3984,20.2305 -9.0195,0 0,42.1875" /><path
             id="path62"
             style="fill:#ffffff;fill-opacity:1;fill-rule:nonzero;stroke:none"
             d="m 201.762,89.3125 9.136,0 -13.437,20.1995 -13.402,-20.1995 9.031,0 0,-42.1875 -9.141,0 13.43,-20.2305 13.402,20.2305 -9.019,0 0,42.1875" /></g></g></g></g></svg>