<?xml version="1.0" encoding="UTF-8" standalone="no"?>
<svg
   xmlns:dc="http://purl.org/dc/elements/1.1/"
   xmlns:cc="http://creativecommons.org/ns#"
   xmlns:rdf="http://www.w3.org/1999/02/22-rdf-syntax-ns#"
   xmlns:svg="http://www.w3.org/2000/svg"
   xmlns="http://www.w3.org/2000/svg"
   viewBox="0 0 40 53.75"
   height="53.75"
   width="40"
   xml:space="preserve"
   version="1.1"
   id="svg2"><metadata
     id="metadata8"><rdf:RDF><cc:Work
         rdf:about=""><dc:format>image/svg+xml</dc:format><dc:type
           rdf:resource="http://purl.org/dc/dcmitype/StillImage" /></cc:Work></rdf:RDF></metadata><defs
     id="defs6" /><g
     transform="matrix(1.25,0,0,-1.25,0,53.75)"
     id="g10"><g
       transform="scale(0.1,0.1)"
       id="g12"><path
         id="path14"
         style="fill:#087bbb;fill-opacity:1;fill-rule:nonzero;stroke:none"
         d="m 6.48047,14.7695 268.238,0 0,268.051 -268.238,0 0,-268.051 z" /><path
         id="path16"
         style="fill:none;stroke:#ffffff;stroke-width:4;stroke-linecap:butt;stroke-linejoin:miter;stroke-miterlimit:4;stroke-dasharray:none;stroke-opacity:1"
         d="m 6.48047,14.7734 268.238,0 0,268.051 -268.238,0 0,-268.051 z" /><path
         id="path18"
         style="fill:#087bbb;fill-opacity:1;fill-rule:nonzero;stroke:none"
         d="m 308.629,48.3281 0,268.0509 -33.899,-33.559 0,-268.0387 33.899,33.5468" /><path
         id="path20"
         style="fill:none;stroke:#ffffff;stroke-width:4;stroke-linecap:butt;stroke-linejoin:miter;stroke-miterlimit:4;stroke-dasharray:none;stroke-opacity:1"
         d="m 308.629,48.3359 0,268.0391 -33.899,-33.551 0,-268.0506 33.899,33.5625 z" /><path
         id="path22"
         style="fill:#087bbb;fill-opacity:1;fill-rule:nonzero;stroke:none"
         d="m 55.5117,425.012 -49.03123,-33.551 268.24953,0 33.899,33.551 -253.1173,0" /><path
         id="path24"
         style="fill:none;stroke:#ffffff;stroke-width:4;stroke-linecap:butt;stroke-linejoin:miter;stroke-miterlimit:4;stroke-dasharray:none;stroke-opacity:1"
         d="m 55.5117,425.016 -49.03123,-33.559 268.24953,0 33.899,33.559 -253.1173,0 z" /><path
         id="path26"
         style="fill:#087bbb;fill-opacity:1;fill-rule:nonzero;stroke:none"
         d="m 6.48047,282.828 268.238,0 0,108.633 -268.238,0 0,-108.633 z" /><path
         id="path28"
         style="fill:none;stroke:#ffffff;stroke-width:4;stroke-linecap:butt;stroke-linejoin:miter;stroke-miterlimit:4;stroke-dasharray:none;stroke-opacity:1"
         d="m 6.48047,282.824 268.238,0 0,108.633 -268.238,0 0,-108.633 z" /><path
         id="path30"
         style="fill:#087bbb;fill-opacity:1;fill-rule:nonzero;stroke:none"
         d="m 308.629,316.379 0,108.633 -33.899,-33.551 0,-108.641 33.899,33.559" /><path
         id="path32"
         style="fill:none;stroke:#ffffff;stroke-width:4;stroke-linecap:butt;stroke-linejoin:miter;stroke-miterlimit:4;stroke-dasharray:none;stroke-opacity:1"
         d="m 308.629,316.375 0,108.641 -33.899,-33.559 0,-108.633 33.899,33.551 z" /><path
         id="path34"
         style="fill:none;stroke:#ffffff;stroke-width:4;stroke-linecap:butt;stroke-linejoin:miter;stroke-miterlimit:4;stroke-dasharray:none;stroke-opacity:1"
         d="m 274.73,282.824 -268.24953,0" /><path
         id="path36"
         style="fill:#087bbb;fill-opacity:1;fill-rule:nonzero;stroke:none"
         d="m 274.73,282.82 33.899,33.559" /><path
         id="path38"
         style="fill:none;stroke:#ffffff;stroke-width:4;stroke-linecap:butt;stroke-linejoin:miter;stroke-miterlimit:4;stroke-dasharray:none;stroke-opacity:1"
         d="m 274.73,282.824 33.899,33.551" /><path
         id="path40"
         style="fill:#ffffff;fill-opacity:1;fill-rule:nonzero;stroke:none"
         d="m 50.2305,354.352 43.2813,0 0,22.5391 -43.2813,0 0,-22.5391 z" /><path
         id="path42"
         style="fill:#ffffff;fill-opacity:1;fill-rule:nonzero;stroke:none"
         d="m 192.422,354.352 43.2383,0 0,22.5391 -43.2383,0 0,-22.5391 z" /><path
         id="path44"
         style="fill:#ffffff;fill-opacity:1;fill-rule:nonzero;stroke:none"
         d="m 50.2305,298.059 43.2813,0 0,22.5 -43.2813,0 0,-22.5 z" /><path
         id="path46"
         style="fill:#ffffff;fill-opacity:1;fill-rule:nonzero;stroke:none"
         d="m 192.422,298.059 43.2383,0 0,22.5 -43.2383,0 0,-22.5 z" /><path
         id="path48"
         style="fill:none;stroke:#ffffff;stroke-width:4;stroke-linecap:butt;stroke-linejoin:miter;stroke-miterlimit:4;stroke-dasharray:none;stroke-opacity:1"
         d="m 79.6094,365.594 132.8906,0" /><path
         id="path50"
         style="fill:none;stroke:#ffffff;stroke-width:4;stroke-linecap:butt;stroke-linejoin:miter;stroke-miterlimit:4;stroke-dasharray:none;stroke-opacity:1"
         d="m 79.6094,309.305 132.8906,0" /><path
         id="path52"
         style="fill:#000000;fill-opacity:1;fill-rule:nonzero;stroke:none"
         d="M 71.8789,309.309 212.5,365.602" /><path
         id="path54"
         style="fill:none;stroke:#ffffff;stroke-width:4;stroke-linecap:butt;stroke-linejoin:miter;stroke-miterlimit:4;stroke-dasharray:none;stroke-opacity:1"
         d="M 71.8789,309.305 212.5,365.594" /><path
         id="path56"
         style="fill:#000000;fill-opacity:1;fill-rule:nonzero;stroke:none"
         d="M 71.8789,365.602 212.5,309.309" /><path
         id="path58"
         style="fill:none;stroke:#ffffff;stroke-width:4;stroke-linecap:butt;stroke-linejoin:miter;stroke-miterlimit:4;stroke-dasharray:none;stroke-opacity:1"
         d="M 71.8789,365.594 212.5,309.305" /><path
         id="path60"
         style="fill:#ffffff;fill-opacity:1;fill-rule:nonzero;stroke:none"
         d="m 79.7695,222 0,23.172 3.9414,0 -5.8203,8.789 -5.8203,-8.789 3.9492,0 0,-23.172 3.75,0" /><path
         id="path62"
         style="fill:#ffffff;fill-opacity:1;fill-rule:nonzero;stroke:none"
         d="m 67.9297,218.641 -16.4102,16.41 2.7813,2.769 -10.2813,2.071 2.0703,-10.27 2.7813,2.77 16.3984,-16.403 2.6602,2.653" /><path
         id="path64"
         style="fill:#ffffff;fill-opacity:1;fill-rule:nonzero;stroke:none"
         d="m 61.9102,207.898 -23.1993,0 0,3.954 -8.75,-5.821 8.75,-5.82 0,3.937 23.1993,0 0,3.75" /><path
         id="path66"
         style="fill:#ffffff;fill-opacity:1;fill-rule:nonzero;stroke:none"
         d="m 65.2695,196.07 -16.3984,-16.41 -2.7813,2.77 -2.0703,-10.27 10.2813,2.07 -2.7813,2.77 16.4102,16.41 -2.6602,2.66" /><path
         id="path68"
         style="fill:#ffffff;fill-opacity:1;fill-rule:nonzero;stroke:none"
         d="m 76.0195,190.09 0,-23.199 -3.9492,0 5.8203,-8.75 5.8203,8.75 -3.9414,0 0,23.199 -3.75,0" /><path
         id="path70"
         style="fill:#ffffff;fill-opacity:1;fill-rule:nonzero;stroke:none"
         d="m 93.8711,204.148 23.1599,0 0,-3.937 8.75,5.82 -8.75,5.821 0,-3.954 -23.1599,0 0,-3.75" /><path
         id="path72"
         style="fill:#ffffff;fill-opacity:1;fill-rule:nonzero;stroke:none"
         d="m 90.5117,215.988 16.3983,16.403 2.781,-2.77 2.071,10.27 -10.282,-2.071 2.782,-2.769 -16.4104,-16.41 2.6601,-2.653" /><path
         id="path74"
         style="fill:#ffffff;fill-opacity:1;fill-rule:nonzero;stroke:none"
         d="m 92.0703,186.57 c 10.8597,7.621 13.5197,22.621 5.8985,33.481 -7.6172,10.859 -22.5782,13.48 -33.4375,5.898 -10.8594,-7.621 -13.5118,-22.578 -5.9024,-33.48 7.6211,-10.86 22.582,-13.481 33.4414,-5.899" /><path
         id="path76"
         style="fill:#ffffff;fill-opacity:1;fill-rule:nonzero;stroke:none"
         d="m 79.7695,95.3203 0,23.2107 3.9414,0 -5.8203,8.75 -5.8203,-8.75 3.9492,0 0,-23.2107 3.75,0" /><path
         id="path78"
         style="fill:#ffffff;fill-opacity:1;fill-rule:nonzero;stroke:none"
         d="m 67.9297,91.9609 -16.4102,16.4101 2.7813,2.77 -10.2813,2.109 2.0703,-10.309 2.7813,2.77 16.3984,-16.4024 2.6602,2.6523" /><path
         id="path80"
         style="fill:#ffffff;fill-opacity:1;fill-rule:nonzero;stroke:none"
         d="m 61.9102,81.2188 -23.1993,0 0,3.9531 -8.75,-5.8203 8.75,-5.7813 0,3.8985 23.1993,0 0,3.75" /><path
         id="path82"
         style="fill:#ffffff;fill-opacity:1;fill-rule:nonzero;stroke:none"
         d="m 65.2695,69.3906 -16.3984,-16.4101 -2.7813,2.8086 -2.0703,-10.3086 10.2813,2.0703 -2.7813,2.8086 16.4102,16.4101 -2.6602,2.6211" /><path
         id="path84"
         style="fill:#ffffff;fill-opacity:1;fill-rule:nonzero;stroke:none"
         d="m 76.0195,63.4102 0,-23.1993 -3.9492,0 5.8203,-8.75 5.8203,8.75 -3.9414,0 0,23.1993 -3.75,0" /><path
         id="path86"
         style="fill:#ffffff;fill-opacity:1;fill-rule:nonzero;stroke:none"
         d="M 87.8516,66.7695 104.262,50.3594 101.48,47.5508 111.762,45.4805 109.691,55.7891 106.91,52.9805 90.5117,69.3906 87.8516,66.7695" /><path
         id="path88"
         style="fill:#ffffff;fill-opacity:1;fill-rule:nonzero;stroke:none"
         d="m 93.8711,77.4688 23.1599,0 0,-3.8985 8.75,5.7813 -8.75,5.8203 0,-3.9531 -23.1599,0 0,-3.75" /><path
         id="path90"
         style="fill:#ffffff;fill-opacity:1;fill-rule:nonzero;stroke:none"
         d="M 92.0703,59.9297 C 102.93,67.5508 105.59,82.5117 97.9688,93.3711 90.3516,104.23 75.3906,106.891 64.5313,99.2695 53.6719,91.6484 51.0195,76.6914 58.6289,65.8281 66.25,54.9688 81.2109,52.3203 92.0703,59.9297" /><path
         id="path92"
         style="fill:#ffffff;fill-opacity:1;fill-rule:nonzero;stroke:none"
         d="m 206.449,222 0,23.172 3.903,0 -5.782,8.789 -5.82,-8.789 3.949,0 0,-23.172 3.75,0" /><path
         id="path94"
         style="fill:#ffffff;fill-opacity:1;fill-rule:nonzero;stroke:none"
         d="m 194.609,218.641 -16.41,16.41 2.781,2.769 -10.32,2.071 2.11,-10.27 2.781,2.77 16.398,-16.403 2.66,2.653" /><path
         id="path96"
         style="fill:#ffffff;fill-opacity:1;fill-rule:nonzero;stroke:none"
         d="m 188.59,207.898 -23.199,0 0,3.954 -8.75,-5.821 8.75,-5.82 0,3.937 23.199,0 0,3.75" /><path
         id="path98"
         style="fill:#ffffff;fill-opacity:1;fill-rule:nonzero;stroke:none"
         d="m 202.699,190.09 0,-23.199 -3.949,0 5.82,-8.75 5.782,8.75 -3.903,0 0,23.199 -3.75,0" /><path
         id="path100"
         style="fill:#ffffff;fill-opacity:1;fill-rule:nonzero;stroke:none"
         d="m 214.531,193.41 16.41,-16.41 -2.82,-2.77 10.32,-2.07 -2.07,10.27 -2.82,-2.77 -16.403,16.41 -2.617,-2.66" /><path
         id="path102"
         style="fill:#ffffff;fill-opacity:1;fill-rule:nonzero;stroke:none"
         d="m 220.512,204.148 23.199,0 0,-3.937 8.75,5.82 -8.75,5.821 0,-3.954 -23.199,0 0,-3.75" /><path
         id="path104"
         style="fill:#ffffff;fill-opacity:1;fill-rule:nonzero;stroke:none"
         d="m 217.148,215.988 16.403,16.403 2.82,-2.77 2.07,10.27 -10.32,-2.071 2.82,-2.769 -16.41,-16.41 2.617,-2.653" /><path
         id="path106"
         style="fill:#ffffff;fill-opacity:1;fill-rule:nonzero;stroke:none"
         d="m 218.75,186.57 c 10.859,7.621 13.52,22.621 5.898,33.481 -7.617,10.859 -22.578,13.48 -33.437,5.898 -10.902,-7.621 -13.512,-22.578 -5.902,-33.48 7.582,-10.86 22.582,-13.481 33.441,-5.899" /><path
         id="path108"
         style="fill:#ffffff;fill-opacity:1;fill-rule:nonzero;stroke:none"
         d="m 206.449,95.3203 0,23.2107 3.903,0 -5.782,8.75 -5.82,-8.75 3.949,0 0,-23.2107 3.75,0" /><path
         id="path110"
         style="fill:#ffffff;fill-opacity:1;fill-rule:nonzero;stroke:none"
         d="m 188.59,81.2188 -23.199,0 0,3.9531 -8.75,-5.8203 8.75,-5.7813 0,3.8985 23.199,0 0,3.75" /><path
         id="path112"
         style="fill:#ffffff;fill-opacity:1;fill-rule:nonzero;stroke:none"
         d="m 191.949,69.3906 -16.398,-16.4101 -2.781,2.8086 -2.11,-10.3086 10.32,2.0703 -2.781,2.8086 16.41,16.4101 -2.66,2.6211" /><path
         id="path114"
         style="fill:#ffffff;fill-opacity:1;fill-rule:nonzero;stroke:none"
         d="m 202.699,63.4102 0,-23.1993 -3.949,0 5.82,-8.75 5.782,8.75 -3.903,0 0,23.1993 -3.75,0" /><path
         id="path116"
         style="fill:#ffffff;fill-opacity:1;fill-rule:nonzero;stroke:none"
         d="m 214.531,66.7695 16.41,-16.4101 -2.82,-2.8086 10.32,-2.0703 -2.07,10.3086 -2.82,-2.8086 -16.403,16.4101 -2.617,-2.6211" /><path
         id="path118"
         style="fill:#ffffff;fill-opacity:1;fill-rule:nonzero;stroke:none"
         d="m 220.512,77.4688 23.199,0 0,-3.8985 8.75,5.7813 -8.75,5.8203 0,-3.9531 -23.199,0 0,-3.75" /><path
         id="path120"
         style="fill:#ffffff;fill-opacity:1;fill-rule:nonzero;stroke:none"
         d="m 217.148,89.3086 16.403,16.4024 2.82,-2.77 2.07,10.309 -10.32,-2.109 2.82,-2.77 -16.41,-16.4101 2.617,-2.6523" /><path
         id="path122"
         style="fill:#ffffff;fill-opacity:1;fill-rule:nonzero;stroke:none"
         d="m 218.75,59.9297 c 10.859,7.6211 13.52,22.582 5.898,33.4414 -7.617,10.8589 -22.578,13.5199 -33.437,5.8984 -10.902,-7.6211 -13.512,-22.5781 -5.902,-33.4414 7.582,-10.8593 22.582,-13.5078 33.441,-5.8984" /><path
         id="path124"
         style="fill:none;stroke:#ffffff;stroke-width:10;stroke-linecap:butt;stroke-linejoin:miter;stroke-miterlimit:4;stroke-dasharray:none;stroke-opacity:1"
         d="M 90.2695,193.336 193.629,90.0156" /><path
         id="path126"
         style="fill:none;stroke:#ffffff;stroke-width:10;stroke-linecap:butt;stroke-linejoin:miter;stroke-miterlimit:4;stroke-dasharray:none;stroke-opacity:1"
         d="M 88.3984,90.0156 195.039,196.695" /></g></g></svg>