<?xml version="1.0" encoding="UTF-8" standalone="no"?>
<svg
   xmlns:dc="http://purl.org/dc/elements/1.1/"
   xmlns:cc="http://creativecommons.org/ns#"
   xmlns:rdf="http://www.w3.org/1999/02/22-rdf-syntax-ns#"
   xmlns:svg="http://www.w3.org/2000/svg"
   xmlns="http://www.w3.org/2000/svg"
   viewBox="0 0 28.7125 55.762501"
   height="55.762501"
   width="28.7125"
   xml:space="preserve"
   version="1.1"
   id="svg2"><metadata
     id="metadata8"><rdf:RDF><cc:Work
         rdf:about=""><dc:format>image/svg+xml</dc:format><dc:type
           rdf:resource="http://purl.org/dc/dcmitype/StillImage" /></cc:Work></rdf:RDF></metadata><defs
     id="defs6" /><g
     transform="matrix(1.25,0,0,-1.25,0,55.7625)"
     id="g10"><g
       transform="scale(0.1,0.1)"
       id="g12"><path
         id="path14"
         style="fill:#036998;fill-opacity:1;fill-rule:nonzero;stroke:none"
         d="m 2,2.00391 181.137,0 0,400 -181.137,0 0,-400 z" /><path
         id="path16"
         style="fill:none;stroke:#ffffff;stroke-width:3.99993992;stroke-linecap:butt;stroke-linejoin:miter;stroke-miterlimit:4;stroke-dasharray:none;stroke-opacity:1"
         d="m 2,2.00391 181.137,0 0,400 -181.137,0 0,-400 z" /><path
         id="path18"
         style="fill:#036998;fill-opacity:1;fill-rule:nonzero;stroke:none"
         d="m 2,402.004 41.5547,39.473 181.1403,0 -41.55,-39.473 -181.145,0" /><path
         id="path20"
         style="fill:none;stroke:#ffffff;stroke-width:3.99993992;stroke-linecap:butt;stroke-linejoin:miter;stroke-miterlimit:4;stroke-dasharray:none;stroke-opacity:1"
         d="m 2,402.004 41.5547,39.473 181.1403,0 -41.55,-39.473 -181.145,0" /><path
         id="path22"
         style="fill:#036998;fill-opacity:1;fill-rule:nonzero;stroke:none"
         d="m 183.145,2.00391 41.55,39.46089 0,400.0122 -41.55,-39.473 0,-400.00009" /><path
         id="path24"
         style="fill:none;stroke:#ffffff;stroke-width:3.99993992;stroke-linecap:butt;stroke-linejoin:miter;stroke-miterlimit:4;stroke-dasharray:none;stroke-opacity:1"
         d="m 183.145,2.00391 41.55,39.46089 0,400.0122 -41.55,-39.473 0,-400.00009" /><path
         id="path26"
         style="fill:#ffffff;fill-opacity:1;fill-rule:nonzero;stroke:none"
         d="m 68.5156,116.855 c 0.0117,1.172 0.4766,8.926 8.6836,21.602 1.6992,2.629 3.7969,4.805 5.9141,6.707 L 61.4648,125.613 c -2.121,-1.914 -4.1796,-4.097 -5.9179,-6.715 -8.2696,-12.394 -7.8321,-18.593 -8.3203,-20.5386 l 21.289,18.4956" /><path
         id="path28"
         style="fill:none;stroke:#036998;stroke-width:1.41006005;stroke-linecap:butt;stroke-linejoin:miter;stroke-miterlimit:4;stroke-dasharray:none;stroke-opacity:1"
         d="m 68.5156,116.855 c 0.0117,1.172 0.4766,8.926 8.6836,21.602 1.6992,2.629 3.7969,4.805 5.9141,6.707 L 61.4648,125.613 c -2.121,-1.914 -4.1796,-4.097 -5.9179,-6.715 -8.2696,-12.394 -7.8321,-18.593 -8.3203,-20.5386 l 21.289,18.4956 z" /><path
         id="path30"
         style="fill:#ffffff;fill-opacity:1;fill-rule:nonzero;stroke:none"
         d="m 136.172,129.199 c -9.609,10.852 -22.07,24.27 -50.0704,18.379 -1.0118,-0.742 -2.0196,-1.512 -2.9883,-2.414 L 61.4648,125.613 c 10.254,9.258 36.4532,16.848 56.8552,-12.781 l -13.781,-11.766 32.258,-2.9137 11.348,41.3207 -11.973,-10.274" /><path
         id="path32"
         style="fill:none;stroke:#036998;stroke-width:1.41006005;stroke-linecap:butt;stroke-linejoin:miter;stroke-miterlimit:4;stroke-dasharray:none;stroke-opacity:1"
         d="m 136.172,129.199 c -9.609,10.852 -22.07,24.27 -50.0704,18.379 -1.0118,-0.742 -2.0196,-1.512 -2.9883,-2.414 L 61.4648,125.613 c 10.254,9.258 36.4532,16.848 56.8552,-12.781 l -13.781,-11.766 32.258,-2.9137 11.348,41.3207 -11.973,-10.274 z" /><path
         id="path34"
         style="fill:#ffffff;fill-opacity:1;fill-rule:nonzero;stroke:none"
         d="m 148.328,103.887 -21.64,-19.8557 c -0.387,-1.375 3.808,-14.9493 -6.903,-35.3321 -16.101,-4.7461 -36.453,3.086 -49.1795,35.6094 L 82.9766,95.2734 56.9922,102.852 41.5625,58.3516 54.7578,71.0859 C 59.707,62.1016 65.2422,54.4922 71.1133,48.5547 l -20.9063,0 8.543,7.8711 -48.0859,-14.6406 19.1406,-12.6329 5.0976,5.0586 64.1211,0 -0.0586,0.1524 c 3.7622,-0.0781 7.5122,0.625 11.1992,2.1914 0.227,0.1836 0.488,0.3906 1.887,1.6875 -0.242,-0.2461 -0.481,-0.5156 -0.723,-0.7422 0,0 20.215,14.9492 23.059,17.9414 8.593,8.9609 15.777,21.1289 13.941,48.4456" /><path
         id="path36"
         style="fill:none;stroke:#036998;stroke-width:1.41006005;stroke-linecap:butt;stroke-linejoin:miter;stroke-miterlimit:4;stroke-dasharray:none;stroke-opacity:1"
         d="m 148.328,103.887 -21.64,-19.8557 c -0.387,-1.375 3.808,-14.9493 -6.903,-35.3321 -16.101,-4.7461 -36.453,3.086 -49.1795,35.6094 L 82.9766,95.2734 56.9922,102.852 41.5625,58.3516 54.7578,71.0859 C 59.707,62.1016 65.2422,54.4922 71.1133,48.5547 l -20.9063,0 8.543,7.8711 -48.0859,-14.6406 19.1406,-12.6329 5.0976,5.0586 64.1211,0 -0.0586,0.1524 c 3.7622,-0.0781 7.5122,0.625 11.1992,2.1914 0.227,0.1836 0.488,0.3906 1.887,1.6875 -0.242,-0.2461 -0.481,-0.5156 -0.723,-0.7422 0,0 20.215,14.9492 23.059,17.9414 8.593,8.9609 15.777,21.1289 13.941,48.4456 z" /><path
         id="path38"
         style="fill:#ffffff;fill-opacity:1;fill-rule:nonzero;stroke:none"
         d="M 84.9727,175.363 102.195,190.93 C 85.2148,191.172 76.6094,190.559 65.4414,189.59 60.0469,169.309 55.4492,157.324 50,143.762 l 18.0352,16.289 c 12.8632,-11.926 28.7031,-14.887 42.1288,-8.723 0.395,0.332 0.793,0.637 1.164,0.969 l 21.652,19.558 c -13.832,-12.492 -33.3394,-11.289 -48.0073,3.508" /><path
         id="path40"
         style="fill:none;stroke:#036998;stroke-width:1.41006005;stroke-linecap:butt;stroke-linejoin:miter;stroke-miterlimit:4;stroke-dasharray:none;stroke-opacity:1"
         d="M 84.9727,175.363 102.195,190.93 C 85.2148,191.172 76.6094,190.559 65.4414,189.59 60.0469,169.309 55.4492,157.324 50,143.762 l 18.0352,16.289 c 12.8632,-11.926 28.7031,-14.887 42.1288,-8.723 0.395,0.332 0.793,0.637 1.164,0.969 l 21.652,19.558 c -13.832,-12.492 -33.3394,-11.289 -48.0073,3.508 z" /><path
         id="path42"
         style="fill:#ffffff;fill-opacity:1;fill-rule:nonzero;stroke:none"
         d="m 69.707,203.098 c -4.4648,17.398 -2.1093,36.59 7.4922,50.156 1.8047,2.559 3.7969,4.805 5.9141,6.719 L 61.4648,240.41 c -2.121,-1.922 -4.1015,-4.172 -5.9179,-6.719 -9.5196,-13.449 -11.8946,-32.414 -7.5977,-49.687 l 21.7578,19.094" /><path
         id="path44"
         style="fill:none;stroke:#036998;stroke-width:1.41006005;stroke-linecap:butt;stroke-linejoin:miter;stroke-miterlimit:4;stroke-dasharray:none;stroke-opacity:1"
         d="m 69.707,203.098 c -4.4648,17.398 -2.1093,36.59 7.4922,50.156 1.8047,2.559 3.7969,4.805 5.9141,6.719 L 61.4648,240.41 c -2.121,-1.922 -4.1015,-4.172 -5.9179,-6.719 -9.5196,-13.449 -11.8946,-32.414 -7.5977,-49.687 l 21.7578,19.094 z" /><path
         id="path46"
         style="fill:#ffffff;fill-opacity:1;fill-rule:nonzero;stroke:none"
         d="m 112.422,260.469 c -8.672,4.023 -17.8517,4.679 -26.3204,1.914 -1.0118,-0.742 -2.0196,-1.543 -2.9883,-2.41 L 61.4648,240.41 c 9.9219,8.965 22.7813,10.86 34.668,5.774 l -11.8945,-10.45 36.7697,0.946 6.355,36.886 -14.941,-13.097" /><path
         id="path48"
         style="fill:none;stroke:#036998;stroke-width:1.41006005;stroke-linecap:butt;stroke-linejoin:miter;stroke-miterlimit:4;stroke-dasharray:none;stroke-opacity:1"
         d="m 112.422,260.469 c -8.672,4.023 -17.8517,4.679 -26.3204,1.914 -1.0118,-0.742 -2.0196,-1.543 -2.9883,-2.41 L 61.4648,240.41 c 9.9219,8.965 22.7813,10.86 34.668,5.774 l -11.8945,-10.45 36.7697,0.946 6.355,36.886 -14.941,-13.097 z" /><path
         id="path50"
         style="fill:#ffffff;fill-opacity:1;fill-rule:nonzero;stroke:none"
         d="m 140.051,247.336 c 13.609,-27.316 8.543,-54.555 -1.156,-68.77 -1.817,-2.558 -3.797,-4.789 -5.915,-6.711 l -21.652,-19.558 c 2.129,1.914 4.11,4.156 5.918,6.719 17.637,25.957 7.293,51.836 1.777,68.894 l 21.028,19.426" /><path
         id="path52"
         style="fill:none;stroke:#036998;stroke-width:1.41006005;stroke-linecap:butt;stroke-linejoin:miter;stroke-miterlimit:4;stroke-dasharray:none;stroke-opacity:1"
         d="m 140.051,247.336 c 13.609,-27.316 8.543,-54.555 -1.156,-68.77 -1.817,-2.558 -3.797,-4.789 -5.915,-6.711 l -21.652,-19.558 c 2.129,1.914 4.11,4.156 5.918,6.719 17.637,25.957 7.293,51.836 1.777,68.894 l 21.028,19.426 z" /><path
         id="path54"
         style="fill:#ffffff;fill-opacity:1;fill-rule:nonzero;stroke:none"
         d="m 110.164,267.109 c 0.395,0.325 0.793,0.618 1.164,0.965 l 21.652,19.563 C 118.711,274.758 98.3789,276.406 83.5742,292.551 L 66.582,277.207 c 13.1055,-13.086 29.6407,-16.492 43.582,-10.098" /><path
         id="path56"
         style="fill:none;stroke:#036998;stroke-width:1.41006005;stroke-linecap:butt;stroke-linejoin:miter;stroke-miterlimit:4;stroke-dasharray:none;stroke-opacity:1"
         d="m 110.164,267.109 c 0.395,0.325 0.793,0.618 1.164,0.965 l 21.652,19.563 C 118.711,274.758 98.3789,276.406 83.5742,292.551 L 66.582,277.207 c 13.1055,-13.086 29.6407,-16.492 43.582,-10.098 z" /><path
         id="path58"
         style="fill:#ffffff;fill-opacity:1;fill-rule:nonzero;stroke:none"
         d="M 84.9883,332.629 69.7188,318.828 c -4.4766,17.422 -2.129,36.641 7.4804,50.207 1.8047,2.559 3.7969,4.805 5.9141,6.719 L 61.4648,356.172 c -2.121,-1.902 -4.1015,-4.129 -5.9179,-6.699 C 45.9375,335.898 43.5938,316.691 48.0664,299.27 L 32.793,285.461 c 10.6445,-0.148 20.7422,-0.148 36.6601,1.277 4.1211,15.164 7.8125,26.985 15.5352,45.891" /><path
         id="path60"
         style="fill:none;stroke:#036998;stroke-width:1.41006005;stroke-linecap:butt;stroke-linejoin:miter;stroke-miterlimit:4;stroke-dasharray:none;stroke-opacity:1"
         d="M 84.9883,332.629 69.7188,318.828 c -4.4766,17.422 -2.129,36.641 7.4804,50.207 1.8047,2.559 3.7969,4.805 5.9141,6.719 L 61.4648,356.172 c -2.121,-1.902 -4.1015,-4.129 -5.9179,-6.699 C 45.9375,335.898 43.5938,316.691 48.0664,299.27 L 32.793,285.461 c 10.6445,-0.148 20.7422,-0.148 36.6601,1.277 4.1211,15.164 7.8125,26.985 15.5352,45.891" /><path
         id="path62"
         style="fill:#ffffff;fill-opacity:1;fill-rule:nonzero;stroke:none"
         d="m 161.57,358.664 -15.261,-13.809 c 4.57,-17.492 2.254,-36.847 -7.414,-50.507 -1.817,-2.563 -3.797,-4.805 -5.915,-6.711 l -21.652,-19.563 c 2.129,1.914 4.11,4.164 5.918,6.723 9.668,13.633 11.992,32.984 7.41,50.484 l -15.281,-13.789 c 5.449,13.567 10.051,25.551 15.438,45.832 11.183,0.969 19.789,1.582 36.757,1.34" /><path
         id="path64"
         style="fill:none;stroke:#036998;stroke-width:1.41006005;stroke-linecap:butt;stroke-linejoin:miter;stroke-miterlimit:4;stroke-dasharray:none;stroke-opacity:1"
         d="m 161.57,358.664 -15.261,-13.809 c 4.57,-17.492 2.254,-36.847 -7.414,-50.507 -1.817,-2.563 -3.797,-4.805 -5.915,-6.711 l -21.652,-19.563 c 2.129,1.914 4.11,4.164 5.918,6.723 9.668,13.633 11.992,32.984 7.41,50.484 l -15.281,-13.789 c 5.449,13.567 10.051,25.551 15.438,45.832 11.183,0.969 19.789,1.582 36.757,1.34" /><path
         id="path66"
         style="fill:#ffffff;fill-opacity:1;fill-rule:nonzero;stroke:none"
         d="m 174.355,379.504 -72.734,0 c -5.2421,0.742 -10.5077,0.293 -15.5194,-1.34 -1.0118,-0.742 -2.0196,-1.543 -2.9883,-2.41 L 61.4648,356.172 c 14.3243,12.949 34.7969,11.23 49.6092,-5.137 l 14.746,13.34 32.61,0 15.925,15.129" /><path
         id="path68"
         style="fill:none;stroke:#036998;stroke-width:1.41006005;stroke-linecap:butt;stroke-linejoin:miter;stroke-miterlimit:4;stroke-dasharray:none;stroke-opacity:1"
         d="m 174.355,379.504 -72.734,0 c -5.2421,0.742 -10.5077,0.293 -15.5194,-1.34 -1.0118,-0.742 -2.0196,-1.543 -2.9883,-2.41 L 61.4648,356.172 c 14.3243,12.949 34.7969,11.23 49.6092,-5.137 l 14.746,13.34 32.61,0 15.925,15.129 z" /></g></g></svg>