<?xml version="1.0" encoding="UTF-8" standalone="no"?>
<svg
   xmlns:dc="http://purl.org/dc/elements/1.1/"
   xmlns:cc="http://creativecommons.org/ns#"
   xmlns:rdf="http://www.w3.org/1999/02/22-rdf-syntax-ns#"
   xmlns:svg="http://www.w3.org/2000/svg"
   xmlns="http://www.w3.org/2000/svg"
   viewBox="0 0 28.75 57.5"
   height="57.5"
   width="28.75"
   xml:space="preserve"
   version="1.1"
   id="svg2"><metadata
     id="metadata8"><rdf:RDF><cc:Work
         rdf:about=""><dc:format>image/svg+xml</dc:format><dc:type
           rdf:resource="http://purl.org/dc/dcmitype/StillImage" /></cc:Work></rdf:RDF></metadata><defs
     id="defs6" /><g
     transform="matrix(1.25,0,0,-1.25,0,57.5)"
     id="g10"><g
       transform="scale(0.1,0.1)"
       id="g12"><path
         id="path14"
         style="fill:#036998;fill-opacity:1;fill-rule:nonzero;stroke:none"
         d="m 1.98828,11.9883 181.133,0 0,400 -181.133,0 0,-400 z" /><path
         id="path16"
         style="fill:none;stroke:#ffffff;stroke-width:3.99993992;stroke-linecap:butt;stroke-linejoin:miter;stroke-miterlimit:4;stroke-dasharray:none;stroke-opacity:1"
         d="m 1.98828,11.9922 181.133,0 0,400 -181.133,0 0,-400 z" /><path
         id="path18"
         style="fill:#036998;fill-opacity:1;fill-rule:nonzero;stroke:none"
         d="m 1.98828,411.988 41.56252,39.492 181.1402,0 -41.531,-39.492 -181.17172,0" /><path
         id="path20"
         style="fill:none;stroke:#ffffff;stroke-width:3.99993992;stroke-linecap:butt;stroke-linejoin:miter;stroke-miterlimit:4;stroke-dasharray:none;stroke-opacity:1"
         d="m 1.98828,411.992 41.56252,39.488 181.1402,0 -41.531,-39.488 -181.17172,0" /><path
         id="path22"
         style="fill:#036998;fill-opacity:1;fill-rule:nonzero;stroke:none"
         d="m 183.16,11.9883 41.531,39.4531 0,400.0386 -41.531,-39.492 0,-399.9997" /><path
         id="path24"
         style="fill:none;stroke:#ffffff;stroke-width:3.99993992;stroke-linecap:butt;stroke-linejoin:miter;stroke-miterlimit:4;stroke-dasharray:none;stroke-opacity:1"
         d="m 183.16,11.9922 41.531,39.4492 0,400.0386 -41.531,-39.488 0,-399.9998" /><path
         id="path26"
         style="fill:#ffffff;fill-opacity:1;fill-rule:nonzero;stroke:none"
         d="m 68.5195,126.828 c 0,1.184 0.461,8.953 8.6719,21.613 1.7188,2.649 3.7891,4.797 5.9297,6.719 L 61.4492,135.621 c -2.1094,-1.91 -4.1484,-4.101 -5.8984,-6.711 -8.2813,-12.43 -7.8516,-18.601 -8.3203,-20.551 l 21.289,18.469" /><path
         id="path28"
         style="fill:none;stroke:#036998;stroke-width:1.41006005;stroke-linecap:butt;stroke-linejoin:miter;stroke-miterlimit:4;stroke-dasharray:none;stroke-opacity:1"
         d="m 68.5195,126.832 c 0,1.18 0.461,8.949 8.6719,21.602 1.7188,2.656 3.7891,4.808 5.9297,6.718 L 61.4492,135.621 c -2.1094,-1.91 -4.1484,-4.098 -5.8984,-6.719 -8.2813,-12.422 -7.8516,-18.589 -8.3203,-20.539 l 21.289,18.469 z" /><path
         id="path30"
         style="fill:#ffffff;fill-opacity:1;fill-rule:nonzero;stroke:none"
         d="m 136.172,139.18 c -9.613,10.859 -22.07,24.3 -50.0822,18.398 -1.0117,-0.75 -2.0312,-1.527 -2.9687,-2.418 L 61.4492,135.621 c 10.2696,9.258 36.4805,16.84 56.8708,-12.812 l -13.789,-11.758 32.27,-2.891 11.359,41.289 -11.988,-10.269" /><path
         id="path32"
         style="fill:none;stroke:#036998;stroke-width:1.41006005;stroke-linecap:butt;stroke-linejoin:miter;stroke-miterlimit:4;stroke-dasharray:none;stroke-opacity:1"
         d="m 136.172,139.184 c -9.613,10.859 -22.07,24.289 -50.0822,18.398 -1.0117,-0.75 -2.0312,-1.531 -2.9687,-2.43 L 61.4492,135.621 c 10.2696,9.262 36.4805,16.84 56.8708,-12.808 l -13.789,-11.762 32.27,-2.891 11.359,41.293 -11.988,-10.269 z" /><path
         id="path34"
         style="fill:#ffffff;fill-opacity:1;fill-rule:nonzero;stroke:none"
         d="M 148.32,113.871 126.68,94.0195 c -0.391,-1.3593 3.832,-14.9609 -6.91,-35.3086 -16.098,-4.7695 -36.4497,3.0899 -49.1489,35.5899 L 82.9688,105.27 56.9883,112.852 41.5586,68.3594 54.7695,81.0898 c 4.9219,-8.9804 10.461,-16.6015 16.3203,-22.539 l -20.8906,0 8.5508,7.8594 -48.0898,-14.6094 19.1406,-12.6602 5.0781,5.0782 64.1406,0 -0.0703,0.1523 C 102.73,44.3008 106.48,45 110.16,46.5586 c 0.231,0.1602 0.5,0.3906 1.91,1.6797 -0.269,-0.2266 -0.511,-0.5078 -0.742,-0.7383 0,0 20.231,14.9609 23.051,17.9297 8.59,8.9805 15.781,21.1289 13.941,48.4413" /><path
         id="path36"
         style="fill:none;stroke:#036998;stroke-width:1.41006005;stroke-linecap:butt;stroke-linejoin:miter;stroke-miterlimit:4;stroke-dasharray:none;stroke-opacity:1"
         d="M 148.32,113.863 126.68,94.0234 C 126.289,92.6523 130.512,79.0625 119.77,58.7109 103.672,53.9414 83.3203,61.793 70.6211,94.293 l 12.3477,10.98 -25.9805,7.579 -15.4297,-44.4887 13.2109,12.7265 c 4.9219,-8.9765 10.461,-16.5976 16.3203,-22.539 l -20.8906,0 8.5508,7.8515 -48.0898,-14.6093 19.1406,-12.6524 5.0781,5.0821 64.1406,0 -0.0703,0.1484 C 102.73,44.293 106.48,45 110.16,46.5625 c 0.231,0.1602 0.5,0.3906 1.91,1.6797 -0.269,-0.2305 -0.511,-0.5117 -0.742,-0.7422 0,0 20.231,14.9609 23.051,17.9336 8.59,8.9766 15.781,21.1289 13.941,48.4294 z" /><path
         id="path38"
         style="fill:#ffffff;fill-opacity:1;fill-rule:nonzero;stroke:none"
         d="m 84.9609,185.352 17.2301,15.589 C 85.1992,201.172 76.6016,200.551 65.4297,199.57 60.0391,179.301 55.4297,167.301 50,153.75 l 18.0508,16.289 c 12.8476,-11.918 28.668,-14.879 42.1092,-8.711 0.391,0.313 0.781,0.621 1.168,0.973 l 21.641,19.527 c -13.828,-12.457 -33.3206,-11.277 -48.0081,3.524" /><path
         id="path40"
         style="fill:none;stroke:#036998;stroke-width:1.41006005;stroke-linecap:butt;stroke-linejoin:miter;stroke-miterlimit:4;stroke-dasharray:none;stroke-opacity:1"
         d="m 84.9609,185.352 17.2301,15.582 C 85.1992,201.172 76.6016,200.543 65.4297,199.57 60.0391,179.293 55.4297,167.301 50,153.75 l 18.0508,16.293 c 12.8476,-11.922 28.668,-14.891 42.1092,-8.711 0.391,0.309 0.781,0.621 1.168,0.969 l 21.641,19.531 c -13.828,-12.461 -33.3206,-11.289 -48.0081,3.52 z" /><path
         id="path42"
         style="fill:#ffffff;fill-opacity:1;fill-rule:nonzero;stroke:none"
         d="m 69.6914,213.078 c -4.4609,17.434 -2.0703,36.613 7.5,50.16 1.7891,2.582 3.7891,4.813 5.9297,6.723 L 61.4492,250.391 C 59.3398,248.48 57.3398,246.25 55.5508,243.672 46.0195,230.23 43.6289,211.289 47.9297,193.98 l 21.7617,19.098" /><path
         id="path44"
         style="fill:none;stroke:#036998;stroke-width:1.41006005;stroke-linecap:butt;stroke-linejoin:miter;stroke-miterlimit:4;stroke-dasharray:none;stroke-opacity:1"
         d="m 69.6914,213.082 c -4.4609,17.43 -2.0703,36.602 7.5,50.16 1.7891,2.578 3.7891,4.801 5.9297,6.719 L 61.4492,250.391 C 59.3398,248.473 57.3398,246.25 55.5508,243.672 46.0195,230.23 43.6289,211.293 47.9297,193.98 l 21.7617,19.102 z" /><path
         id="path46"
         style="fill:#ffffff;fill-opacity:1;fill-rule:nonzero;stroke:none"
         d="m 112.422,270.469 c -8.672,4.019 -17.8517,4.691 -26.3322,1.91 -1.0117,-0.738 -2.0312,-1.559 -2.9687,-2.418 l -21.6719,-19.57 c 9.9219,8.98 22.8125,10.859 34.6797,5.781 l -11.9101,-10.434 36.8012,0.942 6.32,36.871 -14.918,-13.082" /><path
         id="path48"
         style="fill:none;stroke:#036998;stroke-width:1.41006005;stroke-linecap:butt;stroke-linejoin:miter;stroke-miterlimit:4;stroke-dasharray:none;stroke-opacity:1"
         d="m 112.422,270.473 c -8.672,4.019 -17.8517,4.679 -26.3322,1.91 -1.0117,-0.742 -2.0312,-1.563 -2.9687,-2.422 l -21.6719,-19.57 c 9.9219,8.98 22.8125,10.859 34.6797,5.781 l -11.9101,-10.43 36.8012,0.942 6.32,36.867 -14.918,-13.078 z" /><path
         id="path50"
         style="fill:#ffffff;fill-opacity:1;fill-rule:nonzero;stroke:none"
         d="m 140.039,257.34 c 13.633,-27.34 8.551,-54.57 -1.129,-68.789 -1.84,-2.539 -3.789,-4.762 -5.941,-6.723 l -21.641,-19.527 c 2.113,1.918 4.102,4.14 5.902,6.719 17.649,25.941 7.301,51.839 1.79,68.871 l 21.019,19.449" /><path
         id="path52"
         style="fill:none;stroke:#036998;stroke-width:1.41006005;stroke-linecap:butt;stroke-linejoin:miter;stroke-miterlimit:4;stroke-dasharray:none;stroke-opacity:1"
         d="m 140.039,257.34 c 13.633,-27.34 8.551,-54.567 -1.129,-68.789 -1.84,-2.539 -3.789,-4.758 -5.941,-6.719 l -21.641,-19.531 c 2.113,1.922 4.102,4.14 5.902,6.722 17.649,25.938 7.301,51.84 1.79,68.868 l 21.019,19.449 z" /><path
         id="path54"
         style="fill:#ffffff;fill-opacity:1;fill-rule:nonzero;stroke:none"
         d="m 110.16,277.109 c 0.391,0.313 0.781,0.621 1.168,0.969 l 21.641,19.543 C 118.711,284.762 98.3594,286.41 83.5508,302.539 L 66.5586,287.191 C 79.6914,274.102 96.2109,270.699 110.16,277.109" /><path
         id="path56"
         style="fill:none;stroke:#036998;stroke-width:1.41006005;stroke-linecap:butt;stroke-linejoin:miter;stroke-miterlimit:4;stroke-dasharray:none;stroke-opacity:1"
         d="m 110.16,277.113 c 0.391,0.309 0.781,0.617 1.168,0.969 l 21.641,19.531 c -14.258,-12.851 -34.6096,-11.211 -49.4182,4.93 L 66.5586,287.184 C 79.6914,274.102 96.2109,270.703 110.16,277.113 Z" /><path
         id="path58"
         style="fill:#ffffff;fill-opacity:1;fill-rule:nonzero;stroke:none"
         d="M 85,342.621 69.7305,328.828 c -4.5,17.422 -2.1524,36.641 7.4609,50.192 1.7891,2.582 3.7891,4.808 5.9297,6.718 L 61.4492,366.172 c -2.1094,-1.91 -4.1094,-4.141 -5.8984,-6.723 -9.6094,-13.551 -11.961,-32.769 -7.5,-50.187 L 32.8086,295.469 c 10.6328,-0.16 20.7422,-0.16 36.6406,1.25 4.1016,15.191 7.8203,26.992 15.5508,45.902" /><path
         id="path60"
         style="fill:none;stroke:#036998;stroke-width:1.41006005;stroke-linecap:butt;stroke-linejoin:miter;stroke-miterlimit:4;stroke-dasharray:none;stroke-opacity:1"
         d="M 85,342.613 69.7305,328.832 c -4.5,17.418 -2.1524,36.641 7.4609,50.191 1.7891,2.579 3.7891,4.809 5.9297,6.719 l -21.6719,-19.57 c -2.1094,-1.922 -4.1094,-4.141 -5.8984,-6.719 -9.6094,-13.551 -11.961,-32.769 -7.5,-50.203 L 32.8086,295.473 c 10.6328,-0.16 20.7422,-0.16 36.6406,1.25 4.1016,15.187 7.8203,26.988 15.5508,45.89" /><path
         id="path62"
         style="fill:#ffffff;fill-opacity:1;fill-rule:nonzero;stroke:none"
         d="M 161.559,368.672 146.328,354.84 c 4.57,-17.5 2.223,-36.828 -7.418,-50.512 -1.84,-2.527 -3.789,-4.797 -5.941,-6.707 l -21.641,-19.543 c 2.113,1.922 4.102,4.152 5.902,6.723 9.68,13.64 11.989,32.969 7.418,50.469 l -15.269,-13.79 c 5.422,13.559 10.031,25.551 15.422,45.821 11.179,0.98 19.808,1.609 36.758,1.371" /><path
         id="path64"
         style="fill:none;stroke:#036998;stroke-width:1.41006005;stroke-linecap:butt;stroke-linejoin:miter;stroke-miterlimit:4;stroke-dasharray:none;stroke-opacity:1"
         d="M 161.559,368.672 146.328,354.84 c 4.57,-17.5 2.223,-36.828 -7.418,-50.508 -1.84,-2.539 -3.789,-4.801 -5.941,-6.719 l -21.641,-19.531 c 2.113,1.918 4.102,4.141 5.902,6.719 9.68,13.633 11.989,32.972 7.418,50.472 L 109.379,321.48 c 5.422,13.563 10.031,25.551 15.422,45.821 11.179,0.98 19.808,1.601 36.758,1.371" /><path
         id="path66"
         style="fill:#ffffff;fill-opacity:1;fill-rule:nonzero;stroke:none"
         d="m 174.34,389.488 -72.738,0 c -5.2309,0.742 -10.5122,0.313 -15.5122,-1.328 -1.0117,-0.738 -2.0312,-1.558 -2.9687,-2.422 L 61.4492,366.172 c 14.3321,12.93 34.8008,11.207 49.6018,-5.16 l 14.769,13.359 32.621,0 15.899,15.117" /><path
         id="path68"
         style="fill:none;stroke:#036998;stroke-width:1.41006005;stroke-linecap:butt;stroke-linejoin:miter;stroke-miterlimit:4;stroke-dasharray:none;stroke-opacity:1"
         d="m 174.34,389.492 -72.738,0 c -5.2309,0.738 -10.5122,0.309 -15.5122,-1.332 -1.0117,-0.738 -2.0312,-1.558 -2.9687,-2.418 l -21.6719,-19.57 c 14.3321,12.93 34.8008,11.211 49.6018,-5.16 l 14.769,13.359 32.621,0 15.899,15.121 z" /></g></g></svg>