<?xml version="1.0" encoding="UTF-8" standalone="no"?>
<svg
   xmlns:dc="http://purl.org/dc/elements/1.1/"
   xmlns:cc="http://creativecommons.org/ns#"
   xmlns:rdf="http://www.w3.org/1999/02/22-rdf-syntax-ns#"
   xmlns:svg="http://www.w3.org/2000/svg"
   xmlns="http://www.w3.org/2000/svg"
   viewBox="0 0 33.462502 33.787498"
   height="33.787498"
   width="33.462502"
   xml:space="preserve"
   version="1.1"
   id="svg2"><metadata
     id="metadata8"><rdf:RDF><cc:Work
         rdf:about=""><dc:format>image/svg+xml</dc:format><dc:type
           rdf:resource="http://purl.org/dc/dcmitype/StillImage" /></cc:Work></rdf:RDF></metadata><defs
     id="defs6" /><g
     transform="matrix(1.25,0,0,-1.25,0,33.7875)"
     id="g10"><g
       transform="scale(0.1,0.1)"
       id="g12"><path
         id="path14"
         style="fill:#036998;fill-opacity:1;fill-rule:nonzero;stroke:none"
         d="m 5.46875,4.75 215.996,0 0,219.746 -215.996,0 0,-219.746 z" /><path
         id="path16"
         style="fill:none;stroke:#ffffff;stroke-width:3.99993992;stroke-linecap:butt;stroke-linejoin:miter;stroke-miterlimit:4;stroke-dasharray:none;stroke-opacity:1"
         d="m 5.46875,4.75 215.996,0 0,219.746 -215.996,0 0,-219.746 z" /><path
         id="path18"
         style="fill:none;stroke:#ffffff;stroke-width:6.99996996;stroke-linecap:butt;stroke-linejoin:miter;stroke-miterlimit:4;stroke-dasharray:none;stroke-opacity:1"
         d="m 113.77,68.3047 c 25.664,0 46.484,20.8125 46.484,46.4843 0,25.664 -20.82,46.465 -46.484,46.465 -25.6645,0 -46.477,-20.801 -46.477,-46.465 0,-25.6718 20.8125,-46.4843 46.477,-46.4843 z" /><path
         id="path20"
         style="fill:none;stroke:#ffffff;stroke-width:6.99996996;stroke-linecap:butt;stroke-linejoin:miter;stroke-miterlimit:4;stroke-dasharray:none;stroke-opacity:1"
         d="m 113.77,161.254 80.722,0" /><path
         id="path22"
         style="fill:#ffffff;fill-opacity:1;fill-rule:nonzero;stroke:none"
         d="m 180.547,185.883 0,-48.067 28.965,23.086 -28.965,24.981" /><path
         id="path24"
         style="fill:none;stroke:#ffffff;stroke-width:1.99996996;stroke-linecap:butt;stroke-linejoin:miter;stroke-miterlimit:4;stroke-dasharray:none;stroke-opacity:1"
         d="m 180.547,185.883 0,-48.067 28.965,23.086 -28.965,24.981 z" /><path
         id="path26"
         style="fill:none;stroke:#ffffff;stroke-width:6.99996996;stroke-linecap:butt;stroke-linejoin:miter;stroke-miterlimit:4;stroke-dasharray:none;stroke-opacity:1"
         d="m 67.3516,114.457 0,80.723" /><path
         id="path28"
         style="fill:#ffffff;fill-opacity:1;fill-rule:nonzero;stroke:none"
         d="m 43.3594,181.676 48.0664,0 -23.086,28.953 -24.9804,-28.953" /><path
         id="path30"
         style="fill:none;stroke:#ffffff;stroke-width:1.99996996;stroke-linecap:butt;stroke-linejoin:miter;stroke-miterlimit:4;stroke-dasharray:none;stroke-opacity:1"
         d="m 43.3594,181.676 48.0664,0 -23.086,28.953 -24.9804,-28.953 z" /><path
         id="path32"
         style="fill:none;stroke:#ffffff;stroke-width:6.99996996;stroke-linecap:butt;stroke-linejoin:miter;stroke-miterlimit:4;stroke-dasharray:none;stroke-opacity:1"
         d="m 160.344,115.043 0,-80.7227" /><path
         id="path34"
         style="fill:#ffffff;fill-opacity:1;fill-rule:nonzero;stroke:none"
         d="m 184.922,48.9492 -48.067,0 23.309,-28.9531 24.758,28.9531" /><path
         id="path36"
         style="fill:none;stroke:#ffffff;stroke-width:1.99996996;stroke-linecap:butt;stroke-linejoin:miter;stroke-miterlimit:4;stroke-dasharray:none;stroke-opacity:1"
         d="m 184.922,48.9492 -48.067,0 23.309,-28.9531 24.758,28.9531 z" /><path
         id="path38"
         style="fill:none;stroke:#ffffff;stroke-width:6.99996996;stroke-linecap:butt;stroke-linejoin:miter;stroke-miterlimit:4;stroke-dasharray:none;stroke-opacity:1"
         d="m 114.922,68.3633 -80.7228,0" /><path
         id="path40"
         style="fill:#ffffff;fill-opacity:1;fill-rule:nonzero;stroke:none"
         d="m 47.0508,44.5156 0,48.0782 L 18.0859,69.4961 47.0508,44.5156" /><path
         id="path42"
         style="fill:none;stroke:#ffffff;stroke-width:1.99996996;stroke-linecap:butt;stroke-linejoin:miter;stroke-miterlimit:4;stroke-dasharray:none;stroke-opacity:1"
         d="m 47.0508,44.5156 0,48.0782 L 18.0859,69.4961 47.0508,44.5156 Z" /><path
         id="path44"
         style="fill:#036998;fill-opacity:1;fill-rule:nonzero;stroke:none"
         d="m 220.715,224.742 -215.00406,0 54.50386,43.496 205.5002,0 0,-218.3708 -44.504,-45.00001 0,218.62481 -0.496,1.25" /><path
         id="path46"
         style="fill:none;stroke:#ffffff;stroke-width:3.99993992;stroke-linecap:butt;stroke-linejoin:miter;stroke-miterlimit:4;stroke-dasharray:none;stroke-opacity:1"
         d="m 220.715,224.742 -215.00406,0 54.50386,43.496 205.5002,0 0,-218.3708 -44.504,-45.00001 0,218.62481 -0.496,1.25 z" /><path
         id="path48"
         style="fill:#036998;fill-opacity:1;fill-rule:nonzero;stroke:none"
         d="m 221.094,225.102 45,43.75" /><path
         id="path50"
         style="fill:none;stroke:#ffffff;stroke-width:3.99993992;stroke-linecap:butt;stroke-linejoin:miter;stroke-miterlimit:4;stroke-dasharray:none;stroke-opacity:1"
         d="m 221.094,225.102 45,43.75" /><g
         transform="scale(10,10)"
         id="g52"><text
           id="text54"
           style="font-variant:normal;font-weight:bold;font-size:9px;font-family:Helvetica;-inkscape-font-specification:Helvetica-Bold;writing-mode:lr-tb;fill:#ffffff;fill-opacity:1;fill-rule:nonzero;stroke:none"
           transform="matrix(1,0,0,-1,8.28516,7.9125)"><tspan
             id="tspan56"
             y="0"
             x="0">V</tspan></text>
</g></g></g></svg>