<svg xmlns="http://www.w3.org/2000/svg" viewBox="0 0 61.25 32.5" height="32.5" width="61.25"><path d="M.82 30.154h44.654V15.66H.82v14.493z" fill="#026c9b"/><path d="M.82 30.154h44.654V15.66H.82v14.493z" fill="none" stroke="#fff" stroke-width=".5"/><path d="M.703 15.734L18.74 1.115h41.665L45.43 15.734H.703" fill="#026c9b"/><path d="M.703 15.734L18.74 1.115h41.665L45.43 15.734H.703z" fill="none" stroke="#fff" stroke-width=".5"/><path d="M45.449 30.612L60.36 14.5l.01-13.354-14.922 14.57v14.897" fill="#026c9b"/><path d="M45.449 30.612L60.36 14.5l.01-13.354-14.922 14.57v14.897z" fill="none" stroke="#fff" stroke-width=".5"/><path d="M26.88 11.93l-.869.714H14.872l-1.107 1.108-3.017-1.313 6.068-1.739-1.073 1.23H26.88M35.63 6.461l-.869.714H23.622l-1.107 1.109-3.018-1.314 6.07-1.738-1.074 1.23H35.63M28.842 9.997l.866-.708h11.137l1.108-1.109 3.022 1.314-6.069 1.733 1.074-1.23H28.842M34.623 4.529l.866-.71h11.138l1.108-1.108 3.021 1.314-6.068 1.734 1.073-1.23H34.624" fill="#fff"/><path d="M17.364 28.576H27.86V18.074H17.364v10.502z"/><path d="M17.364 28.576H27.86V18.074H17.364v10.502z" fill="none" stroke="#fff" stroke-width=".5"/><text style="-inkscape-font-specification:Helvetica-Bold" transform="matrix(1.25 0 0 1.25 18.544 27.855)" font-weight="700" font-size="10" font-family="Helvetica" fill="#fff"><tspan y="0" x="0">V</tspan></text></svg>