<?xml version="1.0" encoding="UTF-8" standalone="no"?>
<svg
   xmlns:dc="http://purl.org/dc/elements/1.1/"
   xmlns:cc="http://creativecommons.org/ns#"
   xmlns:rdf="http://www.w3.org/1999/02/22-rdf-syntax-ns#"
   xmlns:svg="http://www.w3.org/2000/svg"
   xmlns="http://www.w3.org/2000/svg"
   xmlns:sodipodi="http://sodipodi.sourceforge.net/DTD/sodipodi-0.dtd"
   xmlns:inkscape="http://www.inkscape.org/namespaces/inkscape"
   viewBox="0 0 46.25 31.25"
   height="31.25"
   width="46.25"
   xml:space="preserve"
   version="1.1"
   id="svg2"
   inkscape:version="0.91 r13725"
   sodipodi:docname="voicerouter.svg"><sodipodi:namedview
     pagecolor="#ffffff"
     bordercolor="#666666"
     borderopacity="1"
     objecttolerance="10"
     gridtolerance="10"
     guidetolerance="10"
     inkscape:pageopacity="0"
     inkscape:pageshadow="2"
     inkscape:window-width="640"
     inkscape:window-height="480"
     id="namedview24"
     showgrid="false"
     inkscape:zoom="6.6738427"
     inkscape:cx="23.225"
     inkscape:cy="15.315918"
     inkscape:window-x="0"
     inkscape:window-y="23"
     inkscape:window-maximized="0"
     inkscape:current-layer="svg2" /><metadata
     id="metadata8"><rdf:RDF><cc:Work
         rdf:about=""><dc:format>image/svg+xml</dc:format><dc:type
           rdf:resource="http://purl.org/dc/dcmitype/StillImage" /></cc:Work></rdf:RDF></metadata><defs
     id="defs6"><clipPath
       id="clipPath18"
       clipPathUnits="userSpaceOnUse"><path
         id="path20"
         d="m 0,4.97266 370,0 0,250 -370,0 0,-250 z"
         inkscape:connector-curvature="0" /></clipPath></defs><g
     transform="matrix(1.25,0,0,-1.25,0,31.871582)"
     id="g10"><g
       transform="scale(0.1,0.1)"
       id="g12"><g
         id="g14"><g
           clip-path="url(#clipPath18)"
           id="g16"><path
             id="path22"
             style="fill:#026c9b;fill-opacity:1;fill-rule:nonzero;stroke:none"
             d="m 369.855,181.457 c 0,-39.504 -82.343,-71.523 -183.925,-71.523 C 84.3477,109.934 2,141.953 2,181.457 L 2,76.6914 C 2,37.1875 84.3477,5.15625 185.93,5.15625 c 101.582,0 183.925,32.03125 183.925,71.53515 l 0,104.7656"
             inkscape:connector-curvature="0" /><path
             id="path24"
             style="fill:none;stroke:#ffffff;stroke-width:4;stroke-linecap:butt;stroke-linejoin:miter;stroke-miterlimit:4;stroke-dasharray:none;stroke-opacity:1"
             d="m 369.855,181.457 c 0,-39.504 -82.343,-71.523 -183.925,-71.523 C 84.3477,109.934 2,141.953 2,181.457 L 2,76.6914 C 2,37.1875 84.3477,5.15625 185.93,5.15625 c 101.582,0 183.925,32.03125 183.925,71.53515 l 0,104.7656 z"
             inkscape:connector-curvature="0" /><path
             id="path26"
             style="fill:#026c9b;fill-opacity:1;fill-rule:nonzero;stroke:none"
             d="m 185.93,109.934 c 101.582,0 183.925,32.019 183.925,71.523 0,39.5 -82.343,71.523 -183.925,71.523 C 84.3477,252.98 2,220.957 2,181.457 2,141.953 84.3477,109.934 185.93,109.934"
             inkscape:connector-curvature="0" /><path
             id="path28"
             style="fill:none;stroke:#ffffff;stroke-width:4;stroke-linecap:butt;stroke-linejoin:miter;stroke-miterlimit:4;stroke-dasharray:none;stroke-opacity:1"
             d="m 185.93,109.934 c 101.582,0 183.925,32.019 183.925,71.523 0,39.5 -82.343,71.523 -183.925,71.523 C 84.3477,252.98 2,220.957 2,181.457 2,141.953 84.3477,109.934 185.93,109.934 Z"
             inkscape:connector-curvature="0" /><path
             id="path30"
             style="fill:#ffffff;fill-opacity:1;fill-rule:nonzero;stroke:none"
             d="m 143.926,209.426 15.183,-22.785 -57.421,-13.27 12.55,10.449 -88.7497,15.164 22.2656,16.692 85.6371,-14.504 10.535,8.254"
             inkscape:connector-curvature="0" /><path
             id="path32"
             style="fill:#ffffff;fill-opacity:1;fill-rule:nonzero;stroke:none"
             d="m 224.727,154.18 -10.364,23.476 51.797,10.364 -8.98,-8.059 86.328,-14.734 -20.715,-16.575 -85.813,16.114 -12.253,-10.586"
             inkscape:connector-curvature="0" /><path
             id="path34"
             style="fill:#ffffff;fill-opacity:1;fill-rule:nonzero;stroke:none"
             d="m 196.406,221.855 58.02,15.891 0.679,-24.863 -14.5,2.762 -28.308,-23.485 -27.024,3.934 29.231,22.98 -18.098,2.781"
             inkscape:connector-curvature="0" /><path
             id="path36"
             style="fill:#ffffff;fill-opacity:1;fill-rule:nonzero;stroke:none"
             d="m 171.543,132.766 -55.242,-10.356 -2.071,25.551 15.875,-3.449 30.415,25.968 26.914,-4.562 -32.461,-28.309 16.57,-4.843"
             inkscape:connector-curvature="0" /><path
             id="path38"
             style="fill:#000000;fill-opacity:1;fill-rule:nonzero;stroke:none"
             d="m 145.195,17.0508 84.0039,0 0,84.0039 -84.0039,0 0,-84.0039 z"
             inkscape:connector-curvature="0" /><path
             id="path40"
             style="fill:none;stroke:#ffffff;stroke-width:4;stroke-linecap:butt;stroke-linejoin:miter;stroke-miterlimit:4;stroke-dasharray:none;stroke-opacity:1"
             d="m 145.195,17.0508 84.0039,0 0,84.0039 -84.0039,0 0,-84.0039 z"
             inkscape:connector-curvature="0" /><g
             transform="scale(10,10)"
             id="g42"><text
               id="text44"
               style="font-variant:normal;font-weight:bold;font-size:10px;font-family:Helvetica;-inkscape-font-specification:Helvetica-Bold;writing-mode:lr-tb;fill:#ffffff;fill-opacity:1;fill-rule:nonzero;stroke:none"
               transform="matrix(1,0,0,-1,15.4641,2.28047)"><tspan
                 id="tspan46"
                 y="0"
                 x="0">V</tspan></text>
</g></g></g></g></g></svg>