<?xml version="1.0" encoding="UTF-8" standalone="no"?>
<svg
   xmlns:dc="http://purl.org/dc/elements/1.1/"
   xmlns:cc="http://creativecommons.org/ns#"
   xmlns:rdf="http://www.w3.org/1999/02/22-rdf-syntax-ns#"
   xmlns:svg="http://www.w3.org/2000/svg"
   xmlns="http://www.w3.org/2000/svg"
   viewBox="0 0 46.25 31.25"
   height="31.25"
   width="46.25"
   xml:space="preserve"
   version="1.1"
   id="svg2"><metadata
     id="metadata8"><rdf:RDF><cc:Work
         rdf:about=""><dc:format>image/svg+xml</dc:format><dc:type
           rdf:resource="http://purl.org/dc/dcmitype/StillImage" /></cc:Work></rdf:RDF></metadata><defs
     id="defs6" /><g
     transform="matrix(1.25,0,0,-1.25,0,31.25)"
     id="g10"><g
       transform="scale(0.1,0.1)"
       id="g12"><path
         id="path14"
         style="fill:#026c9b;fill-opacity:1;fill-rule:nonzero;stroke:none"
         d="m 369.84,176.48 c 0,-39.492 -82.34,-71.519 -183.899,-71.519 -101.6012,0 -183.95272,32.027 -183.95272,71.519 l 0,-104.7612 C 1.98828,32.2305 84.3398,0.199219 185.941,0.199219 287.5,0.199219 369.84,32.2305 369.84,71.7188 l 0,104.7612" /><path
         id="path16"
         style="fill:none;stroke:#ffffff;stroke-width:4;stroke-linecap:butt;stroke-linejoin:miter;stroke-miterlimit:4;stroke-dasharray:none;stroke-opacity:1"
         d="m 369.84,176.48 c 0,-39.492 -82.34,-71.519 -183.899,-71.519 -101.6012,0 -183.95272,32.027 -183.95272,71.519 l 0,-104.7612 C 1.98828,32.2305 84.3398,0.199219 185.941,0.199219 287.5,0.199219 369.84,32.2305 369.84,71.7188 l 0,104.7612 z" /><path
         id="path18"
         style="fill:#026c9b;fill-opacity:1;fill-rule:nonzero;stroke:none"
         d="m 185.941,104.961 c 101.559,0 183.899,32.027 183.899,71.519 0,39.5 -82.34,71.532 -183.899,71.532 -101.6012,0 -183.95272,-32.032 -183.95272,-71.532 0,-39.492 82.35152,-71.519 183.95272,-71.519" /><path
         id="path20"
         style="fill:none;stroke:#ffffff;stroke-width:4;stroke-linecap:butt;stroke-linejoin:miter;stroke-miterlimit:4;stroke-dasharray:none;stroke-opacity:1"
         d="m 185.941,104.961 c 101.559,0 183.899,32.027 183.899,71.519 0,39.5 -82.34,71.532 -183.899,71.532 -101.6012,0 -183.95272,-32.032 -183.95272,-71.532 0,-39.492 82.35152,-71.519 183.95272,-71.519 z" /><path
         id="path22"
         style="fill:#ffffff;fill-opacity:1;fill-rule:nonzero;stroke:none"
         d="m 143.949,204.449 15.153,-22.769 -57.422,-13.282 12.539,10.43 -88.7073,15.192 22.2188,16.679 85.6675,-14.488 10.551,8.238" /><path
         id="path24"
         style="fill:#ffffff;fill-opacity:1;fill-rule:nonzero;stroke:none"
         d="m 224.73,149.219 -10.351,23.48 51.793,10.352 -8.981,-8.051 86.329,-14.73 -20.711,-16.598 -85.821,16.129 -12.258,-10.582" /><path
         id="path26"
         style="fill:#ffffff;fill-opacity:1;fill-rule:nonzero;stroke:none"
         d="m 196.41,216.879 58,15.891 0.711,-24.84 -14.531,2.73 -28.289,-23.469 -27.031,3.938 29.218,22.973 -18.078,2.777" /><path
         id="path28"
         style="fill:#ffffff;fill-opacity:1;fill-rule:nonzero;stroke:none"
         d="m 171.559,127.809 -55.27,-10.387 -2.07,25.59 15.902,-3.481 30.391,25.981 26.91,-4.571 -32.461,-28.32 16.598,-4.812" /><path
         id="path30"
         style="fill:#000000;fill-opacity:1;fill-rule:nonzero;stroke:none"
         d="m 145.199,12.0703 83.9805,0 0,84.0195 -83.9805,0 0,-84.0195 z" /><path
         id="path32"
         style="fill:none;stroke:#ffffff;stroke-width:4;stroke-linecap:butt;stroke-linejoin:miter;stroke-miterlimit:4;stroke-dasharray:none;stroke-opacity:1"
         d="m 145.199,12.0703 83.9805,0 0,84.0195 -83.9805,0 0,-84.0195 z" /><g
         transform="scale(10,10)"
         id="g34"><text
           id="text36"
           style="font-variant:normal;font-weight:bold;font-size:10px;font-family:Helvetica;-inkscape-font-specification:Helvetica-Bold;writing-mode:lr-tb;fill:#ffffff;fill-opacity:1;fill-rule:nonzero;stroke:none"
           transform="matrix(1,0,0,-1,15.4641,1.7832)"><tspan
             id="tspan38"
             y="0"
             x="0">V</tspan></text>
</g></g></g></svg>