<?xml version="1.0" encoding="UTF-8" standalone="no"?>
<svg
   xmlns:dc="http://purl.org/dc/elements/1.1/"
   xmlns:cc="http://creativecommons.org/ns#"
   xmlns:rdf="http://www.w3.org/1999/02/22-rdf-syntax-ns#"
   xmlns:svg="http://www.w3.org/2000/svg"
   xmlns="http://www.w3.org/2000/svg"
   viewBox="0 0 61.012501 30.700001"
   height="30.700001"
   width="61.012501"
   xml:space="preserve"
   version="1.1"
   id="svg2"><metadata
     id="metadata8"><rdf:RDF><cc:Work
         rdf:about=""><dc:format>image/svg+xml</dc:format><dc:type
           rdf:resource="http://purl.org/dc/dcmitype/StillImage" /></cc:Work></rdf:RDF></metadata><defs
     id="defs6" /><g
     transform="matrix(1.25,0,0,-1.25,0,30.7)"
     id="g10"><g
       transform="scale(0.1,0.1)"
       id="g12"><path
         id="path14"
         style="fill:#026c9b;fill-opacity:1;fill-rule:nonzero;stroke:none"
         d="m 6.57422,8.76953 357.199,0 0,115.945 -357.199,0 0,-115.945 z" /><path
         id="path16"
         style="fill:none;stroke:#ffffff;stroke-width:4;stroke-linecap:butt;stroke-linejoin:miter;stroke-miterlimit:4;stroke-dasharray:none;stroke-opacity:1"
         d="m 6.57422,8.76953 357.199,0 0,115.945 -357.199,0 0,-115.945 z" /><path
         id="path18"
         style="fill:#026c9b;fill-opacity:1;fill-rule:nonzero;stroke:none"
         d="m 5.64453,124.133 144.28947,116.941 333.293,0 -119.786,-116.941 -357.79647,0" /><path
         id="path20"
         style="fill:none;stroke:#ffffff;stroke-width:4;stroke-linecap:butt;stroke-linejoin:miter;stroke-miterlimit:4;stroke-dasharray:none;stroke-opacity:1"
         d="m 5.64453,124.133 144.28947,116.941 333.293,0 -119.786,-116.941 -357.79647,0 z" /><path
         id="path22"
         style="fill:#026c9b;fill-opacity:1;fill-rule:nonzero;stroke:none"
         d="m 363.578,5.10547 119.317,128.91753 0.078,106.836 -119.395,-116.562 0,-119.19153" /><path
         id="path24"
         style="fill:none;stroke:#ffffff;stroke-width:4;stroke-linecap:butt;stroke-linejoin:miter;stroke-miterlimit:4;stroke-dasharray:none;stroke-opacity:1"
         d="m 363.578,5.10547 119.317,128.91753 0.078,106.836 -119.395,-116.562 0,-119.19153 z" /><path
         id="path26"
         style="fill:#ffffff;fill-opacity:1;fill-rule:nonzero;stroke:none"
         d="m 215.02,154.551 -6.922,-5.684 -89.094,0 -8.875,-8.879 -24.1602,10.52 48.5512,13.887 -8.59,-9.844 89.09,0" /><path
         id="path28"
         style="fill:#ffffff;fill-opacity:1;fill-rule:nonzero;stroke:none"
         d="m 285.023,198.301 -6.933,-5.684 -89.086,0 -8.875,-8.879 -24.16,10.52 48.551,13.887 -8.59,-9.844 89.093,0" /><path
         id="path30"
         style="fill:#ffffff;fill-opacity:1;fill-rule:nonzero;stroke:none"
         d="m 230.742,170.02 6.918,5.671 89.102,0 8.867,8.879 24.16,-10.519 -48.555,-13.875 8.594,9.844 -89.086,0" /><path
         id="path32"
         style="fill:#ffffff;fill-opacity:1;fill-rule:nonzero;stroke:none"
         d="m 276.996,213.77 6.914,5.671 89.102,0 8.867,8.879 24.16,-10.519 -48.555,-13.875 8.594,9.844 -89.082,0" /><path
         id="path34"
         style="fill:#000000;fill-opacity:1;fill-rule:nonzero;stroke:none"
         d="m 138.914,21.4063 83.9961,0 0,84.0039 -83.9961,0 0,-84.0039 z" /><path
         id="path36"
         style="fill:none;stroke:#ffffff;stroke-width:4;stroke-linecap:butt;stroke-linejoin:miter;stroke-miterlimit:4;stroke-dasharray:none;stroke-opacity:1"
         d="m 138.914,21.4063 83.9961,0 0,84.0039 -83.9961,0 0,-84.0039 z" /><g
         transform="scale(10,10)"
         id="g38"><text
           id="text40"
           style="font-variant:normal;font-weight:bold;font-size:10px;font-family:Helvetica;-inkscape-font-specification:Helvetica-Bold;writing-mode:lr-tb;fill:#ffffff;fill-opacity:1;fill-rule:nonzero;stroke:none"
           transform="matrix(1,0,0,-1,14.8352,2.71563)"><tspan
             id="tspan42"
             y="0"
             x="0">V</tspan></text>
</g></g></g></svg>