<?xml version="1.0" encoding="UTF-8" standalone="no"?>
<svg
   xmlns:dc="http://purl.org/dc/elements/1.1/"
   xmlns:cc="http://creativecommons.org/ns#"
   xmlns:rdf="http://www.w3.org/1999/02/22-rdf-syntax-ns#"
   xmlns:svg="http://www.w3.org/2000/svg"
   xmlns="http://www.w3.org/2000/svg"
   viewBox="0 0 33.75 36.25"
   height="36.25"
   width="33.75"
   xml:space="preserve"
   version="1.1"
   id="svg2"><metadata
     id="metadata8"><rdf:RDF><cc:Work
         rdf:about=""><dc:format>image/svg+xml</dc:format><dc:type
           rdf:resource="http://purl.org/dc/dcmitype/StillImage" /></cc:Work></rdf:RDF></metadata><defs
     id="defs6" /><g
     transform="matrix(1.25,0,0,-1.25,0,36.25)"
     id="g10"><g
       transform="scale(0.1,0.1)"
       id="g12"><path
         id="path14"
         style="fill:#036998;fill-opacity:1;fill-rule:nonzero;stroke:none"
         d="m 5.46875,14.7305 216.02,0 0,219.77 -216.02,0 0,-219.77 z" /><path
         id="path16"
         style="fill:none;stroke:#ffffff;stroke-width:3.99993992;stroke-linecap:butt;stroke-linejoin:miter;stroke-miterlimit:4;stroke-dasharray:none;stroke-opacity:1"
         d="m 5.46875,14.7344 216.02,0 0,219.77 -216.02,0 0,-219.77 z" /><path
         id="path18"
         style="fill:none;stroke:#ffffff;stroke-width:6.99996996;stroke-linecap:butt;stroke-linejoin:miter;stroke-miterlimit:4;stroke-dasharray:none;stroke-opacity:1"
         d="m 113.789,78.2969 c 25.66,0 46.481,20.8164 46.481,46.4761 0,25.672 -20.821,46.493 -46.481,46.493 -25.6679,0 -46.4882,-20.821 -46.4882,-46.493 0,-25.6597 20.8203,-46.4761 46.4882,-46.4761 z" /><path
         id="path20"
         style="fill:none;stroke:#ffffff;stroke-width:6.99996996;stroke-linecap:butt;stroke-linejoin:miter;stroke-miterlimit:4;stroke-dasharray:none;stroke-opacity:1"
         d="m 113.789,171.266 80.699,0" /><path
         id="path22"
         style="fill:#ffffff;fill-opacity:1;fill-rule:nonzero;stroke:none"
         d="m 180.551,195.871 0,-48.051 28.98,23.09 -28.98,24.961" /><path
         id="path24"
         style="fill:none;stroke:#ffffff;stroke-width:1.99996996;stroke-linecap:butt;stroke-linejoin:miter;stroke-miterlimit:4;stroke-dasharray:none;stroke-opacity:1"
         d="m 180.551,195.875 0,-48.051 28.98,23.082 -28.98,24.969 z" /><path
         id="path26"
         style="fill:none;stroke:#ffffff;stroke-width:6.99996996;stroke-linecap:butt;stroke-linejoin:miter;stroke-miterlimit:4;stroke-dasharray:none;stroke-opacity:1"
         d="m 67.3398,124.465 0,80.699" /><path
         id="path28"
         style="fill:#ffffff;fill-opacity:1;fill-rule:nonzero;stroke:none"
         d="m 43.3594,191.691 48.0898,0 -23.0898,28.95 -25,-28.95" /><path
         id="path30"
         style="fill:none;stroke:#ffffff;stroke-width:1.99996996;stroke-linecap:butt;stroke-linejoin:miter;stroke-miterlimit:4;stroke-dasharray:none;stroke-opacity:1"
         d="m 43.3594,191.695 48.0898,0 -23.0898,28.942 -25,-28.942 z" /><path
         id="path32"
         style="fill:none;stroke:#ffffff;stroke-width:6.99996996;stroke-linecap:butt;stroke-linejoin:miter;stroke-miterlimit:4;stroke-dasharray:none;stroke-opacity:1"
         d="m 160.352,125.055 0,-80.7503" /><path
         id="path34"
         style="fill:#ffffff;fill-opacity:1;fill-rule:nonzero;stroke:none"
         d="m 184.922,58.9609 -48.043,0 23.281,-28.9492 24.762,28.9492" /><path
         id="path36"
         style="fill:none;stroke:#ffffff;stroke-width:1.99996996;stroke-linecap:butt;stroke-linejoin:miter;stroke-miterlimit:4;stroke-dasharray:none;stroke-opacity:1"
         d="m 184.922,58.957 -48.043,0 23.281,-28.9414 24.762,28.9414 z" /><path
         id="path38"
         style="fill:none;stroke:#ffffff;stroke-width:6.99996996;stroke-linecap:butt;stroke-linejoin:miter;stroke-miterlimit:4;stroke-dasharray:none;stroke-opacity:1"
         d="m 114.922,78.375 -80.7032,0" /><path
         id="path40"
         style="fill:#ffffff;fill-opacity:1;fill-rule:nonzero;stroke:none"
         d="m 47.0703,54.5 0,48.09 -28.9805,-23.09 28.9805,-25" /><path
         id="path42"
         style="fill:none;stroke:#ffffff;stroke-width:1.99996996;stroke-linecap:butt;stroke-linejoin:miter;stroke-miterlimit:4;stroke-dasharray:none;stroke-opacity:1"
         d="m 47.0703,54.5039 0,48.0821 -28.9805,-23.0821 28.9805,-25 z" /><path
         id="path44"
         style="fill:#036998;fill-opacity:1;fill-rule:nonzero;stroke:none"
         d="m 220.699,234.738 -214.99978,0 54.53128,43.512 205.4685,0 0,-218.3906 -44.488,-45 0,218.6286 -0.512,1.25" /><path
         id="path46"
         style="fill:none;stroke:#ffffff;stroke-width:3.99993992;stroke-linecap:butt;stroke-linejoin:miter;stroke-miterlimit:4;stroke-dasharray:none;stroke-opacity:1"
         d="m 220.699,234.734 -214.99978,0 54.53128,43.52 205.4685,0 0,-218.3985 -44.488,-45 0,218.6285 -0.512,1.25 z" /><path
         id="path48"
         style="fill:#036998;fill-opacity:1;fill-rule:nonzero;stroke:none"
         d="m 221.09,235.09 45,43.75" /><path
         id="path50"
         style="fill:none;stroke:#ffffff;stroke-width:3.99993992;stroke-linecap:butt;stroke-linejoin:miter;stroke-miterlimit:4;stroke-dasharray:none;stroke-opacity:1"
         d="m 221.09,235.086 45,43.75" /><g
         transform="scale(10,10)"
         id="g52"><text
           id="text54"
           style="font-variant:normal;font-weight:bold;font-size:9px;font-family:Helvetica;-inkscape-font-specification:Helvetica-Bold;writing-mode:lr-tb;fill:#ffffff;fill-opacity:1;fill-rule:nonzero;stroke:none"
           transform="matrix(1,0,0,-1,8.28516,8.9125)"><tspan
             id="tspan56"
             y="0"
             x="0">V</tspan></text>
</g></g></g></svg>