<?xml version="1.0" encoding="UTF-8" standalone="no"?>
<svg
   xmlns:dc="http://purl.org/dc/elements/1.1/"
   xmlns:cc="http://creativecommons.org/ns#"
   xmlns:rdf="http://www.w3.org/1999/02/22-rdf-syntax-ns#"
   xmlns:svg="http://www.w3.org/2000/svg"
   xmlns="http://www.w3.org/2000/svg"
   viewBox="0 0 38.8125 35.575001"
   height="35.575001"
   width="38.8125"
   xml:space="preserve"
   version="1.1"
   id="svg2"><metadata
     id="metadata8"><rdf:RDF><cc:Work
         rdf:about=""><dc:format>image/svg+xml</dc:format><dc:type
           rdf:resource="http://purl.org/dc/dcmitype/StillImage" /></cc:Work></rdf:RDF></metadata><defs
     id="defs6"><clipPath
       id="clipPath18"
       clipPathUnits="userSpaceOnUse"><path
         id="path20"
         d="m 0,4.58984 310,0 0,280 -310,0 0,-280 z" /></clipPath></defs><g
     transform="matrix(1.25,0,0,-1.25,0,35.575)"
     id="g10"><g
       transform="scale(0.1,0.1)"
       id="g12"><g
         id="g14"><g
           clip-path="url(#clipPath18)"
           id="g16"><path
             id="path22"
             style="fill:#036998;fill-opacity:1;fill-rule:nonzero;stroke:none"
             d="m 2,3.10547 76.6211,34.80473 229.8629,0 L 231.855,3.10547 2,3.10547" /><path
             id="path24"
             style="fill:none;stroke:#ffffff;stroke-width:3.99993992;stroke-linecap:butt;stroke-linejoin:miter;stroke-miterlimit:4;stroke-dasharray:none;stroke-opacity:1"
             d="m 2,3.10547 76.6211,34.80473 229.8629,0 L 231.855,3.10547 2,3.10547 Z" /><path
             id="path26"
             style="fill:#036998;fill-opacity:1;fill-rule:nonzero;stroke:none"
             d="m 2,246.699 76.6211,34.785 0,-243.5738 L 2,3.10547 2,246.699" /><path
             id="path28"
             style="fill:none;stroke:#ffffff;stroke-width:3.99993992;stroke-linecap:butt;stroke-linejoin:miter;stroke-miterlimit:4;stroke-dasharray:none;stroke-opacity:1"
             d="m 2,246.699 76.6211,34.785 0,-243.5738 L 2,3.10547 2,246.699 Z" /><path
             id="path30"
             style="fill:#036998;fill-opacity:1;fill-rule:nonzero;stroke:none"
             d="m 78.6211,37.9102 229.863,0 0,243.574 -229.863,0 0,-243.574 z" /><path
             id="path32"
             style="fill:none;stroke:#ffffff;stroke-width:3.99993992;stroke-linecap:butt;stroke-linejoin:miter;stroke-miterlimit:4;stroke-dasharray:none;stroke-opacity:1"
             d="m 78.6211,37.9102 229.863,0 0,243.574 -229.863,0 0,-243.574 z" /><path
             id="path34"
             style="fill:#036998;fill-opacity:1;fill-rule:nonzero;stroke:none"
             d="m 2,246.699 76.6211,34.785 229.8629,0 -76.629,-34.785 -229.855,0" /><path
             id="path36"
             style="fill:none;stroke:#ffffff;stroke-width:3.99993992;stroke-linecap:butt;stroke-linejoin:miter;stroke-miterlimit:4;stroke-dasharray:none;stroke-opacity:1"
             d="m 2,246.699 76.6211,34.785 229.8629,0 -76.629,-34.785 -229.855,0 z" /><path
             id="path38"
             style="fill:#036998;fill-opacity:1;fill-rule:nonzero;stroke:none"
             d="m 43.7969,211.887 c 7.8359,0 13.9258,-13.047 13.9258,-31.321 0,-17.39 -6.0899,-31.308 -13.9258,-31.308 -8.7071,0 -13.9453,13.918 -13.9453,31.308 0,18.274 5.2382,31.321 13.9453,31.321" /><path
             id="path40"
             style="fill:none;stroke:#ffffff;stroke-width:3.99993992;stroke-linecap:butt;stroke-linejoin:miter;stroke-miterlimit:4;stroke-dasharray:none;stroke-opacity:1"
             d="m 43.7969,211.887 c 7.8359,0 13.9258,-13.047 13.9258,-31.321 0,-17.39 -6.0899,-31.308 -13.9258,-31.308 -8.7071,0 -13.9453,13.918 -13.9453,31.308 0,18.274 5.2382,31.321 13.9453,31.321" /><path
             id="path42"
             style="fill:#036998;fill-opacity:1;fill-rule:nonzero;stroke:none"
             d="m 43.7969,149.258 188.059,0 0,62.6289 -188.059,0 0,-62.6289 z" /><path
             id="path44"
             style="fill:none;stroke:#ffffff;stroke-width:3.99993992;stroke-linecap:butt;stroke-linejoin:miter;stroke-miterlimit:4;stroke-dasharray:none;stroke-opacity:1"
             d="m 43.7969,211.887 188.0581,0 0,-62.629 -188.0581,0" /><path
             id="path46"
             style="fill:#036998;fill-opacity:1;fill-rule:nonzero;stroke:none"
             d="m 43.7969,121.426 c 7.8359,0 13.9258,-13.047 13.9258,-31.3283 0,-17.4024 -6.0899,-31.3086 -13.9258,-31.3086 -8.7071,0 -13.9453,13.9062 -13.9453,31.3086 0,18.2813 5.2382,31.3283 13.9453,31.3283" /><path
             id="path48"
             style="fill:none;stroke:#ffffff;stroke-width:3.99993992;stroke-linecap:butt;stroke-linejoin:miter;stroke-miterlimit:4;stroke-dasharray:none;stroke-opacity:1"
             d="m 43.7969,121.426 c 7.8359,0 13.9258,-13.047 13.9258,-31.3283 0,-17.4024 -6.0899,-31.3086 -13.9258,-31.3086 -8.7071,0 -13.9453,13.9062 -13.9453,31.3086 0,18.2813 5.2382,31.3283 13.9453,31.3283" /><path
             id="path50"
             style="fill:#036998;fill-opacity:1;fill-rule:nonzero;stroke:none"
             d="m 43.7969,58.7891 188.059,0 0,62.6367 -188.059,0 0,-62.6367 z" /><path
             id="path52"
             style="fill:none;stroke:#ffffff;stroke-width:3.99993992;stroke-linecap:butt;stroke-linejoin:miter;stroke-miterlimit:4;stroke-dasharray:none;stroke-opacity:1"
             d="m 43.7969,121.426 188.0581,0 0,-62.6369 -188.0581,0" /><path
             id="path54"
             style="fill:#000000;fill-opacity:1;fill-rule:nonzero;stroke:none"
             d="m 43.7969,211.887 195.0431,0" /><path
             id="path56"
             style="fill:none;stroke:#ffffff;stroke-width:3.2000699;stroke-linecap:butt;stroke-linejoin:miter;stroke-miterlimit:1;stroke-dasharray:none;stroke-opacity:1"
             d="m 43.7969,211.887 195.0431,0" /><path
             id="path58"
             style="fill:#000000;fill-opacity:1;fill-rule:nonzero;stroke:none"
             d="m 43.7969,149.258 195.0431,0" /><path
             id="path60"
             style="fill:none;stroke:#ffffff;stroke-width:3.2000699;stroke-linecap:butt;stroke-linejoin:miter;stroke-miterlimit:1;stroke-dasharray:none;stroke-opacity:1"
             d="m 43.7969,149.258 195.0431,0" /><path
             id="path62"
             style="fill:#000000;fill-opacity:1;fill-rule:nonzero;stroke:none"
             d="m 43.7969,121.426 195.0431,0" /><path
             id="path64"
             style="fill:none;stroke:#ffffff;stroke-width:3.2000699;stroke-linecap:butt;stroke-linejoin:miter;stroke-miterlimit:1;stroke-dasharray:none;stroke-opacity:1"
             d="m 43.7969,121.426 195.0431,0" /><path
             id="path66"
             style="fill:#000000;fill-opacity:1;fill-rule:nonzero;stroke:none"
             d="m 43.7969,58.7891 195.0431,0" /><path
             id="path68"
             style="fill:none;stroke:#ffffff;stroke-width:3.2000699;stroke-linecap:butt;stroke-linejoin:miter;stroke-miterlimit:1;stroke-dasharray:none;stroke-opacity:1"
             d="m 43.7969,58.7891 195.0431,0" /><path
             id="path70"
             style="fill:none;stroke:#ffffff;stroke-width:8.00002956;stroke-linecap:butt;stroke-linejoin:miter;stroke-miterlimit:1;stroke-dasharray:none;stroke-opacity:1"
             d="m 55.7539,179.355 118.4181,0" /><path
             id="path72"
             style="fill:#000000;fill-opacity:1;fill-rule:nonzero;stroke:none"
             d="m 172.422,164.043 50.516,15.664 -50.516,14.777 0,-30.441" /><path
             id="path74"
             style="fill:none;stroke:#ffffff;stroke-width:3.2000699;stroke-linecap:butt;stroke-linejoin:miter;stroke-miterlimit:4;stroke-dasharray:none;stroke-opacity:1"
             d="m 172.422,164.043 50.516,15.664 -50.516,14.777 0,-30.441 z" /><path
             id="path76"
             style="fill:#000000;fill-opacity:1;fill-rule:nonzero;stroke:none"
             d="m 54.2383,180.227 118.4257,0" /><path
             id="path78"
             style="fill:none;stroke:#ffffff;stroke-width:3.2000699;stroke-linecap:butt;stroke-linejoin:miter;stroke-miterlimit:1;stroke-dasharray:none;stroke-opacity:1"
             d="m 54.2383,180.227 118.4257,0" /><path
             id="path80"
             style="fill:#ffffff;fill-opacity:1;fill-rule:nonzero;stroke:none"
             d="m 170.906,164.91 50.5,15.656 -50.5,14.786 0,-30.442" /><path
             id="path82"
             style="fill:none;stroke:#ffffff;stroke-width:3.2000699;stroke-linecap:butt;stroke-linejoin:miter;stroke-miterlimit:4;stroke-dasharray:none;stroke-opacity:1"
             d="m 170.906,164.91 50.5,15.656 -50.5,14.786 0,-30.442 z" /><path
             id="path84"
             style="fill:#ffffff;fill-opacity:1;fill-rule:nonzero;stroke:none"
             d="m 221.719,88.5156 -118.418,0" /><path
             id="path86"
             style="fill:none;stroke:#ffffff;stroke-width:8.00002956;stroke-linecap:round;stroke-linejoin:miter;stroke-miterlimit:4;stroke-dasharray:none;stroke-opacity:1"
             d="m 221.719,88.5156 -118.418,0" /><path
             id="path88"
             style="fill:#ffffff;fill-opacity:1;fill-rule:nonzero;stroke:none"
             d="m 105.383,104.285 -50.5002,-15.6639 50.5002,-14.793 0,30.4569" /><path
             id="path90"
             style="fill:none;stroke:#ffffff;stroke-width:3.99993992;stroke-linecap:butt;stroke-linejoin:miter;stroke-miterlimit:4;stroke-dasharray:none;stroke-opacity:1"
             d="m 105.383,104.285 -50.5002,-15.6639 50.5002,-14.793 0,30.4569 z" /><path
             id="path92"
             style="fill:#036998;fill-opacity:1;fill-rule:nonzero;stroke:none"
             d="m 231.855,246.699 76.629,34.785 0,-243.5738 -76.629,-34.80473 0,243.59353" /><path
             id="path94"
             style="fill:none;stroke:#ffffff;stroke-width:3.99993992;stroke-linecap:butt;stroke-linejoin:miter;stroke-miterlimit:4;stroke-dasharray:none;stroke-opacity:1"
             d="m 231.855,246.699 76.629,34.785 0,-243.5738 -76.629,-34.80473 0,243.59353 z" /><path
             id="path96"
             style="fill:#036998;fill-opacity:1;fill-rule:nonzero;stroke:none"
             d="m 273.652,211.887 c 7.84,0 13.938,-13.047 13.938,-31.321 0,-17.39 -6.098,-31.308 -13.938,-31.308 -8.711,0 -13.933,13.918 -13.933,31.308 0,18.274 5.222,31.321 13.933,31.321" /><path
             id="path98"
             style="fill:none;stroke:#ffffff;stroke-width:3.99993992;stroke-linecap:butt;stroke-linejoin:miter;stroke-miterlimit:4;stroke-dasharray:none;stroke-opacity:1"
             d="m 273.652,211.887 c 7.84,0 13.938,-13.047 13.938,-31.321 0,-17.39 -6.098,-31.308 -13.938,-31.308 -8.711,0 -13.933,13.918 -13.933,31.308 0,18.274 5.222,31.321 13.933,31.321" /><path
             id="path100"
             style="fill:#036998;fill-opacity:1;fill-rule:nonzero;stroke:none"
             d="m 273.652,121.426 c 7.84,0 13.938,-13.047 13.938,-31.3283 0,-17.4024 -6.098,-31.3086 -13.938,-31.3086 -8.711,0 -13.933,13.9062 -13.933,31.3086 0,18.2813 5.222,31.3283 13.933,31.3283" /><path
             id="path102"
             style="fill:none;stroke:#ffffff;stroke-width:3.99993992;stroke-linecap:butt;stroke-linejoin:miter;stroke-miterlimit:4;stroke-dasharray:none;stroke-opacity:1"
             d="m 273.652,121.426 c 7.84,0 13.938,-13.047 13.938,-31.3283 0,-17.4024 -6.098,-31.3086 -13.938,-31.3086 -8.711,0 -13.933,13.9062 -13.933,31.3086 0,18.2813 5.222,31.3283 13.933,31.3283" /></g></g></g></g></svg>