<?xml version="1.0" encoding="UTF-8" standalone="no"?>
<svg
   xmlns:dc="http://purl.org/dc/elements/1.1/"
   xmlns:cc="http://creativecommons.org/ns#"
   xmlns:rdf="http://www.w3.org/1999/02/22-rdf-syntax-ns#"
   xmlns:svg="http://www.w3.org/2000/svg"
   xmlns="http://www.w3.org/2000/svg"
   viewBox="0 0 55 31.25"
   height="31.25"
   width="55"
   xml:space="preserve"
   version="1.1"
   id="svg2"><metadata
     id="metadata8"><rdf:RDF><cc:Work
         rdf:about=""><dc:format>image/svg+xml</dc:format><dc:type
           rdf:resource="http://purl.org/dc/dcmitype/StillImage" /></cc:Work></rdf:RDF></metadata><defs
     id="defs6"><clipPath
       id="clipPath18"
       clipPathUnits="userSpaceOnUse"><path
         id="path20"
         d="M 0,10 0,247 440,247 440,10 0,10 Z" /></clipPath></defs><g
     transform="matrix(1.25,0,0,-1.25,0,31.25)"
     id="g10"><g
       transform="scale(0.1,0.1)"
       id="g12"><g
         id="g14"><g
           clip-path="url(#clipPath18)"
           id="g16"><path
             id="path22"
             style="fill:#036998;fill-opacity:1;fill-rule:nonzero;stroke:none"
             d="m 6.08984,15.1992 357.34,0 0,159.34 -357.34,0 0,-159.34 z" /><path
             id="path24"
             style="fill:none;stroke:#ffffff;stroke-width:3.99993992;stroke-linecap:butt;stroke-linejoin:miter;stroke-miterlimit:4;stroke-dasharray:none;stroke-opacity:1"
             d="m 6.08984,15.1992 357.34,0 0,159.34 -357.34,0 0,-159.34 z" /><path
             id="path26"
             style="fill:#036998;fill-opacity:1;fill-rule:nonzero;stroke:none"
             d="m 363.441,174.539 -357.49959,0 88.35939,67.391 343.6682,0.269 -74.528,-67.66" /><path
             id="path28"
             style="fill:none;stroke:#ffffff;stroke-width:3.99993992;stroke-linecap:butt;stroke-linejoin:miter;stroke-miterlimit:4;stroke-dasharray:none;stroke-opacity:1"
             d="m 363.441,174.539 -357.49959,0 88.35939,67.391 343.6682,0.269 -74.528,-67.66 z" /><path
             id="path30"
             style="fill:#036998;fill-opacity:1;fill-rule:nonzero;stroke:none"
             d="m 437.969,242.199 -1.168,-155.0818 -73.36,-72.3399 0,159.7617 74.528,67.66" /><path
             id="path32"
             style="fill:none;stroke:#ffffff;stroke-width:3.99993992;stroke-linecap:butt;stroke-linejoin:miter;stroke-miterlimit:4;stroke-dasharray:none;stroke-opacity:1"
             d="m 437.969,242.199 -1.168,-155.0818 -73.36,-72.3399 0,159.7617 74.528,67.66 z" /><path
             id="path34"
             style="fill:#ffffff;fill-opacity:1;fill-rule:nonzero;stroke:none"
             d="m 194.57,112.859 12.11,0 2.808,-2.812 9.422,0 10.43,7.66 11.281,0 9.649,-10.668 10.671,0.039 11.637,10.699 9.801,0 8.402,-9.14 9.688,0 3.633,6.961 28.238,-17.1917 -19.762,-16.6797 -117.969,-0.1993 0,-3.8203 -18.437,-0.039 c -4.57,-0.0391 -8.551,-2.7383 -10.434,-6.7188 -8.707,-13.75 -23.976,-22.9297 -41.437,-22.9297 -27.1916,-0.082 -49.2229,22.0703 -49.2229,49.4493 0,27.3472 22.0313,49.5702 49.2229,49.6092 17.219,0.039 32.34,-8.871 41.129,-22.301 1.718,-4.3 5.859,-7.308 10.742,-7.308 l 18.398,0.039 0,-4.649" /><path
             id="path36"
             style="fill:none;stroke:#036998;stroke-width:3.50006008;stroke-linecap:butt;stroke-linejoin:miter;stroke-miterlimit:4;stroke-dasharray:none;stroke-opacity:1"
             d="m 194.57,112.859 12.11,0 2.808,-2.812 9.422,0 10.43,7.66 11.281,0 9.649,-10.668 10.671,0.039 11.637,10.699 9.801,0 8.402,-9.14 9.688,0 3.633,6.961 28.238,-17.1917 -19.762,-16.6797 -117.969,-0.1993 0,-3.8203 -18.437,-0.039 c -4.57,-0.0391 -8.551,-2.7383 -10.434,-6.7188 -8.707,-13.75 -23.976,-22.9297 -41.437,-22.9297 -27.1916,-0.082 -49.2229,22.0703 -49.2229,49.4493 0,27.3472 22.0313,49.5702 49.2229,49.6092 17.219,0.039 32.34,-8.871 41.129,-22.301 1.718,-4.3 5.859,-7.308 10.742,-7.308 l 18.398,0.039 0,-4.649" /><path
             id="path38"
             style="fill:none;stroke:#036998;stroke-width:3.50006008;stroke-linecap:butt;stroke-linejoin:round;stroke-miterlimit:4;stroke-dasharray:none;stroke-opacity:1"
             d="M 321.371,89.7383 194.609,89.5391 c -5,0 -11.949,-1.3321 -18.359,-4.0625 6.41,-2.6602 13.359,-3.9493 18.359,-3.9493" /><path
             id="path40"
             style="fill:none;stroke:#036998;stroke-width:3.50006008;stroke-linecap:butt;stroke-linejoin:round;stroke-miterlimit:4;stroke-dasharray:none;stroke-opacity:1"
             d="m 326.84,101.297 -126.762,-0.188 c -5.629,0 -17.418,1.129 -20.078,2.18" /><path
             id="path42"
             style="fill:#ffffff;fill-opacity:1;fill-rule:nonzero;stroke:none"
             d="m 124.301,53.3281 c 24.289,0.0391 43.937,19.8789 43.937,44.3008 0,24.4101 -19.648,44.1801 -43.937,44.1411 -24.262,-0.043 -43.9104,-19.84 -43.9104,-44.3012 0,-24.4102 19.6484,-44.1797 43.9104,-44.1407" /><path
             id="path44"
             style="fill:none;stroke:#036998;stroke-width:3.50006008;stroke-linecap:butt;stroke-linejoin:round;stroke-miterlimit:4;stroke-dasharray:none;stroke-opacity:1"
             d="m 124.301,53.3281 c 24.289,0.0391 43.937,19.8789 43.937,44.3008 0,24.4101 -19.648,44.1801 -43.937,44.1411 -24.262,-0.043 -43.9104,-19.84 -43.9104,-44.3012 0,-24.4102 19.6484,-44.1797 43.9104,-44.1407 z" /><path
             id="path46"
             style="fill:#ffffff;fill-opacity:1;fill-rule:nonzero;stroke:none"
             d="m 99.1406,85.9063 c 6.3714,0 11.5194,5.2031 11.5194,11.6015 0,6.4102 -5.148,11.6012 -11.5194,11.6012 -6.3711,-0.043 -11.5195,-5.23 -11.5195,-11.6402 0,-6.4024 5.1484,-11.5625 11.5195,-11.5625" /><path
             id="path48"
             style="fill:none;stroke:#036998;stroke-width:3.50006008;stroke-linecap:butt;stroke-linejoin:round;stroke-miterlimit:4;stroke-dasharray:none;stroke-opacity:1"
             d="m 99.1406,85.9063 c 6.3714,0 11.5194,5.2031 11.5194,11.6015 0,6.4102 -5.148,11.6012 -11.5194,11.6012 -6.3711,-0.043 -11.5195,-5.23 -11.5195,-11.6402 0,-6.4024 5.1484,-11.5625 11.5195,-11.5625 z" /></g></g></g></g></svg>