<?xml version="1.0" encoding="UTF-8" standalone="no"?>
<svg
   xmlns:dc="http://purl.org/dc/elements/1.1/"
   xmlns:cc="http://creativecommons.org/ns#"
   xmlns:rdf="http://www.w3.org/1999/02/22-rdf-syntax-ns#"
   xmlns:svg="http://www.w3.org/2000/svg"
   xmlns="http://www.w3.org/2000/svg"
   viewBox="0 0 55.387501 29.5875"
   height="29.5875"
   width="55.387501"
   xml:space="preserve"
   version="1.1"
   id="svg2"><metadata
     id="metadata8"><rdf:RDF><cc:Work
         rdf:about=""><dc:format>image/svg+xml</dc:format><dc:type
           rdf:resource="http://purl.org/dc/dcmitype/StillImage" /></cc:Work></rdf:RDF></metadata><defs
     id="defs6"><clipPath
       id="clipPath18"
       clipPathUnits="userSpaceOnUse"><path
         id="path20"
         d="M 0,0 0,237 440,237 440,0 0,0 Z" /></clipPath></defs><g
     transform="matrix(1.25,0,0,-1.25,0,29.5875)"
     id="g10"><g
       transform="scale(0.1,0.1)"
       id="g12"><g
         id="g14"><g
           clip-path="url(#clipPath18)"
           id="g16"><path
             id="path22"
             style="fill:#036998;fill-opacity:1;fill-rule:nonzero;stroke:none"
             d="m 6.09766,5.21094 357.324,0 0,159.336 -357.324,0 0,-159.336 z" /><path
             id="path24"
             style="fill:none;stroke:#ffffff;stroke-width:3.99993992;stroke-linecap:butt;stroke-linejoin:miter;stroke-miterlimit:4;stroke-dasharray:none;stroke-opacity:1"
             d="m 6.09766,5.21094 357.324,0 0,159.336 -357.324,0 0,-159.336 z" /><path
             id="path26"
             style="fill:#036998;fill-opacity:1;fill-rule:nonzero;stroke:none"
             d="m 363.422,164.547 -357.50012,0 88.37892,67.383 343.6522,0.254 -74.531,-67.637" /><path
             id="path28"
             style="fill:none;stroke:#ffffff;stroke-width:3.99993992;stroke-linecap:butt;stroke-linejoin:miter;stroke-miterlimit:4;stroke-dasharray:none;stroke-opacity:1"
             d="m 363.422,164.547 -357.50012,0 88.37892,67.383 343.6522,0.254 -74.531,-67.637 z" /><path
             id="path30"
             style="fill:#036998;fill-opacity:1;fill-rule:nonzero;stroke:none"
             d="m 437.953,232.184 -1.14,-155.0707 -73.391,-72.33205 0,159.76575 74.531,67.637" /><path
             id="path32"
             style="fill:none;stroke:#ffffff;stroke-width:3.99993992;stroke-linecap:butt;stroke-linejoin:miter;stroke-miterlimit:4;stroke-dasharray:none;stroke-opacity:1"
             d="m 437.953,232.184 -1.14,-155.0707 -73.391,-72.33205 0,159.76575 74.531,67.637 z" /><path
             id="path34"
             style="fill:#ffffff;fill-opacity:1;fill-rule:nonzero;stroke:none"
             d="m 194.566,102.855 12.129,0.02 2.813,-2.812 9.394,0 10.43,7.628 11.297,0.028 9.641,-10.6838 10.683,0.0312 11.641,10.7226 9.773,0.008 8.43,-9.1603 9.687,0 3.614,6.9723 28.25,-17.1871 -19.785,-16.6875 -117.95,-0.2149 0,-3.8281 -18.425,-0.0391 c -4.602,-0.0117 -8.575,-2.7343 -10.43,-6.6914 -8.723,-13.7695 -24.016,-22.9375 -41.445,-22.957 -27.188,-0.0508 -49.2192,22.0977 -49.2192,49.4727 0,27.3324 22.0312,49.5504 49.2192,49.6094 17.214,0.039 32.343,-8.859 41.121,-22.316 1.699,-4.278 5.871,-7.293 10.734,-7.293 l 18.398,0.019 0,-4.641" /><path
             id="path36"
             style="fill:none;stroke:#036998;stroke-width:3.50006008;stroke-linecap:butt;stroke-linejoin:miter;stroke-miterlimit:4;stroke-dasharray:none;stroke-opacity:1"
             d="m 194.566,102.855 12.129,0.02 2.813,-2.812 9.394,0 10.43,7.628 11.297,0.028 9.641,-10.6838 10.683,0.0312 11.641,10.7226 9.773,0.008 8.43,-9.1603 9.687,0 3.614,6.9723 28.25,-17.1871 -19.785,-16.6875 -117.95,-0.2149 0,-3.8281 -18.425,-0.0391 c -4.602,-0.0117 -8.575,-2.7343 -10.43,-6.6914 -8.723,-13.7695 -24.016,-22.9375 -41.445,-22.957 -27.188,-0.0508 -49.2192,22.0977 -49.2192,49.4727 0,27.3324 22.0312,49.5504 49.2192,49.6094 17.214,0.039 32.343,-8.859 41.121,-22.316 1.699,-4.278 5.871,-7.293 10.734,-7.293 l 18.398,0.019 0,-4.641" /><path
             id="path38"
             style="fill:none;stroke:#036998;stroke-width:3.50006008;stroke-linecap:butt;stroke-linejoin:round;stroke-miterlimit:4;stroke-dasharray:none;stroke-opacity:1"
             d="M 321.352,79.75 194.613,79.5547 c -4.988,-0.0195 -11.941,-1.3359 -18.367,-4.0625 6.426,-2.6758 13.379,-3.9727 18.367,-3.9727" /><path
             id="path40"
             style="fill:none;stroke:#036998;stroke-width:3.50006008;stroke-linecap:butt;stroke-linejoin:round;stroke-miterlimit:4;stroke-dasharray:none;stroke-opacity:1"
             d="M 326.832,91.3047 200.074,91.1172 c -5.636,-0.0274 -17.402,1.1055 -20.09,2.1875" /><path
             id="path42"
             style="fill:#ffffff;fill-opacity:1;fill-rule:nonzero;stroke:none"
             d="m 124.313,43.3242 c 24.265,0.0313 43.925,19.875 43.925,44.2969 0,24.4339 -19.66,44.1799 -43.925,44.1519 -24.27,-0.058 -43.938,-19.863 -43.938,-44.2886 0,-24.4336 19.668,-44.1992 43.938,-44.1602" /><path
             id="path44"
             style="fill:none;stroke:#036998;stroke-width:3.50006008;stroke-linecap:butt;stroke-linejoin:round;stroke-miterlimit:4;stroke-dasharray:none;stroke-opacity:1"
             d="m 124.313,43.3242 c 24.265,0.0313 43.925,19.875 43.925,44.2969 0,24.4339 -19.66,44.1799 -43.925,44.1519 -24.27,-0.058 -43.938,-19.863 -43.938,-44.2886 0,-24.4336 19.668,-44.1992 43.938,-44.1602 z" /><path
             id="path46"
             style="fill:#ffffff;fill-opacity:1;fill-rule:nonzero;stroke:none"
             d="m 99.1445,75.9023 c 6.3475,0 11.5355,5.1954 11.5355,11.6133 0,6.4063 -5.188,11.5899 -11.5355,11.5899 -6.3867,-0.0196 -11.5312,-5.2227 -11.5312,-11.6211 0,-6.4063 5.1445,-11.5821 11.5312,-11.5821" /><path
             id="path48"
             style="fill:none;stroke:#036998;stroke-width:3.50006008;stroke-linecap:butt;stroke-linejoin:round;stroke-miterlimit:4;stroke-dasharray:none;stroke-opacity:1"
             d="m 99.1445,75.9023 c 6.3475,0 11.5355,5.1954 11.5355,11.6133 0,6.4063 -5.188,11.5899 -11.5355,11.5899 -6.3867,-0.0196 -11.5312,-5.2227 -11.5312,-11.6211 0,-6.4063 5.1445,-11.5821 11.5312,-11.5821 z" /></g></g></g></g></svg>