<?xml version="1.0" encoding="UTF-8" standalone="no"?>
<svg
   xmlns:dc="http://purl.org/dc/elements/1.1/"
   xmlns:cc="http://creativecommons.org/ns#"
   xmlns:rdf="http://www.w3.org/1999/02/22-rdf-syntax-ns#"
   xmlns:svg="http://www.w3.org/2000/svg"
   xmlns="http://www.w3.org/2000/svg"
   viewBox="0 0 50 42.5"
   height="42.5"
   width="50"
   xml:space="preserve"
   version="1.1"
   id="svg2"><metadata
     id="metadata8"><rdf:RDF><cc:Work
         rdf:about=""><dc:format>image/svg+xml</dc:format><dc:type
           rdf:resource="http://purl.org/dc/dcmitype/StillImage" /></cc:Work></rdf:RDF></metadata><defs
     id="defs6" /><g
     transform="matrix(1.25,0,0,-1.25,0,42.5)"
     id="g10"><g
       transform="scale(0.1,0.1)"
       id="g12"><path
         id="path14"
         style="fill:#087dbd;fill-opacity:1;fill-rule:nonzero;stroke:none"
         d="m 5.66016,16.4688 340.16,0 0,254.961 -340.16,0 0,-254.961 z" /><path
         id="path16"
         style="fill:none;stroke:#ffffff;stroke-width:4;stroke-linecap:butt;stroke-linejoin:miter;stroke-miterlimit:4;stroke-dasharray:none;stroke-opacity:1"
         d="m 5.66016,16.4688 340.16,0 0,254.961 -340.16,0 0,-254.961 z" /><path
         id="path18"
         style="fill:#087dbd;fill-opacity:1;fill-rule:nonzero;stroke:none"
         d="m 389.73,80.6484 -43.91,-64.1796 0,254.9612 43.91,53.199 0,-243.9806" /><path
         id="path20"
         style="fill:none;stroke:#ffffff;stroke-width:4;stroke-linecap:butt;stroke-linejoin:miter;stroke-miterlimit:4;stroke-dasharray:none;stroke-opacity:1"
         d="m 389.73,80.6484 -43.91,-64.1796 0,254.9612 43.91,53.199 0,-243.9806 z" /><path
         id="path22"
         style="fill:#087dbd;fill-opacity:1;fill-rule:nonzero;stroke:none"
         d="m 71.4805,324.629 318.2495,0 -43.91,-53.199 -340.15984,0 65.82034,53.199" /><path
         id="path24"
         style="fill:none;stroke:#ffffff;stroke-width:4;stroke-linecap:butt;stroke-linejoin:miter;stroke-miterlimit:4;stroke-dasharray:none;stroke-opacity:1"
         d="m 71.4805,324.629 318.2495,0 -43.91,-53.199 -340.15984,0 65.82034,53.199 z" /><path
         id="path26"
         style="fill:#ffffff;fill-opacity:1;fill-rule:evenodd;stroke:none"
         d="m 326.449,135.379 -287.9295,0 0,-6.328 -20.1992,10.859 20.1992,11.32 0,-6.359 287.7695,0 0.16,-9.492" /><path
         id="path28"
         style="fill:#ffffff;fill-opacity:1;fill-rule:nonzero;stroke:none"
         d="m 72.2305,230.488 207.7305,0 c 8.199,0 14.809,-6.597 14.809,-14.797 l 0,-156.5308 C 294.77,51 288.16,44.3984 279.961,44.3984 l -207.7305,0 c -8.211,0 -14.8086,6.6016 -14.8086,14.7618 l 0,156.5308 c 0,8.2 6.5976,14.797 14.8086,14.797" /><path
         id="path30"
         style="fill:none;stroke:#ffffff;stroke-width:3.20000005;stroke-linecap:butt;stroke-linejoin:miter;stroke-miterlimit:4;stroke-dasharray:none;stroke-opacity:1"
         d="m 72.2305,230.488 207.7305,0 c 8.199,0 14.809,-6.597 14.809,-14.8 l 0,-156.52 c 0,-8.168 -6.61,-14.7696 -14.809,-14.7696 l -207.7305,0 c -8.211,0 -14.8086,6.6016 -14.8086,14.7696 l 0,156.52 c 0,8.203 6.5976,14.8 14.8086,14.8 z" /><path
         id="path32"
         style="fill:#78b4db;fill-opacity:1;fill-rule:nonzero;stroke:none"
         d="m 69.0586,109.441 104.41,0 0,104.41 -104.41,0 0,-104.41 z" /><path
         id="path34"
         style="fill:none;stroke:#ffffff;stroke-width:4.4000001;stroke-linecap:round;stroke-linejoin:round;stroke-miterlimit:4;stroke-dasharray:none;stroke-opacity:1"
         d="m 87.0703,193.93 68.4417,0" /><path
         id="path36"
         style="fill:none;stroke:#ffffff;stroke-width:4.4000001;stroke-linecap:round;stroke-linejoin:round;stroke-miterlimit:4;stroke-dasharray:none;stroke-opacity:1"
         d="m 87.0703,180.379 68.4417,0" /><path
         id="path38"
         style="fill:none;stroke:#ffffff;stroke-width:4.4000001;stroke-linecap:round;stroke-linejoin:round;stroke-miterlimit:4;stroke-dasharray:none;stroke-opacity:1"
         d="m 87.0703,166.82 68.4417,0" /><path
         id="path40"
         style="fill:none;stroke:#ffffff;stroke-width:4.4000001;stroke-linecap:round;stroke-linejoin:round;stroke-miterlimit:4;stroke-dasharray:none;stroke-opacity:1"
         d="m 87.0703,153.309 68.4417,0" /><path
         id="path42"
         style="fill:none;stroke:#ffffff;stroke-width:4.4000001;stroke-linecap:round;stroke-linejoin:round;stroke-miterlimit:4;stroke-dasharray:none;stroke-opacity:1"
         d="m 87.0703,139.75 68.4417,0" /><path
         id="path44"
         style="fill:none;stroke:#ffffff;stroke-width:4.4000001;stroke-linecap:round;stroke-linejoin:round;stroke-miterlimit:4;stroke-dasharray:none;stroke-opacity:1"
         d="m 87.0703,126.199 68.4417,0" /><path
         id="path46"
         style="fill:#78b4db;fill-opacity:1;fill-rule:nonzero;stroke:none"
         d="m 168.441,51.4688 114.84,0 0,114.84 -114.84,0 0,-114.84 z" /><path
         id="path48"
         style="fill:none;stroke:#ffffff;stroke-width:3.29999995;stroke-linecap:round;stroke-linejoin:round;stroke-miterlimit:4;stroke-dasharray:none;stroke-opacity:1"
         d="m 168.441,51.4688 114.84,0 0,114.84 -114.84,0 0,-114.84 z" /><path
         id="path50"
         style="fill:#ffffff;fill-opacity:1;fill-rule:nonzero;stroke:none"
         d="m 232.031,101.781 c 7.348,2.418 12.66,9.18 12.66,17.348 0,10.031 -8.171,18.242 -18.242,18.242 -10.121,0 -18.289,-8.211 -18.289,-18.242 0,-7.899 5,-14.539 11.918,-17.109 -7.808,-0.59 -16.207,-2.7817 -24.687,-7.8911 l 0,-47.3476 60.898,0 0,47.3476 c 0,0 -10,6.0121 -24.258,7.6521" /><path
         id="path52"
         style="fill:#ffffff;fill-opacity:1;fill-rule:evenodd;stroke:none"
         d="m 324.141,99.2813 -7.11,0 0,6.3667 -20.191,-11.3277 20.191,-10.8594 0,6.3282 7.11,0 0,-54.2188 9.531,0 0,63.711 -9.531,0" /><path
         id="path54"
         style="fill:#100f0d;fill-opacity:1;fill-rule:nonzero;stroke:none"
         d="m 212.93,93.9297 c -0.899,-1.1289 -0.739,-2.7695 0.429,-3.7109 1.129,-0.8985 2.77,-0.7383 3.672,0.3906 0.938,1.1289 0.739,2.8125 -0.39,3.7109 -1.129,0.9414 -2.77,0.7383 -3.711,-0.3906" /><path
         id="path56"
         style="fill:none;stroke:#231f20;stroke-width:2;stroke-linecap:butt;stroke-linejoin:round;stroke-miterlimit:4;stroke-dasharray:none;stroke-opacity:1"
         d="m 192.969,106.699 c 2.5,-4.019 8.672,-9.449 14.609,-12.8084 3.902,-2.1914 6.801,-2.9726 8.121,-2.3828" /><path
         id="path58"
         style="fill:#100f0d;fill-opacity:1;fill-rule:nonzero;stroke:none"
         d="m 198.789,113.07 c 0,-3.242 -2.617,-5.859 -5.859,-5.859 -3.239,0 -5.86,2.617 -5.86,5.859 0,3.239 2.621,5.86 5.86,5.86 3.242,0 5.859,-2.621 5.859,-5.86" /><path
         id="path60"
         style="fill:#100f0d;fill-opacity:1;fill-rule:nonzero;stroke:none"
         d="m 252.379,113.07 c 0,-3.242 2.621,-5.859 5.859,-5.859 3.242,0 5.864,2.617 5.864,5.859 0,3.239 -2.622,5.86 -5.864,5.86 -3.238,0 -5.859,-2.621 -5.859,-5.86" /><path
         id="path62"
         style="fill:#231f20;fill-opacity:1;fill-rule:nonzero;stroke:none"
         d="m 225.43,157.41 c 0,0 36.019,-1.019 36.019,-35.898 l 0,-6.172 -3.949,0.539 1.641,5.082 c -0.352,34.219 -33.711,33.32 -33.711,33.32 l 0.269,0 c 0,0 -31.437,1.758 -33.551,-31.992 l 1.524,-6.41 -3.942,-0.539 0,6.172 c 0,34.879 35.969,35.898 35.969,35.898" /><path
         id="path64"
         style="fill:none;stroke:#231f20;stroke-width:0.60000002;stroke-linecap:butt;stroke-linejoin:miter;stroke-miterlimit:4;stroke-dasharray:none;stroke-opacity:1"
         d="m 225.43,157.41 c 0,0 36.019,-1.019 36.019,-35.902 l 0,-6.168 -3.949,0.539 1.641,5.082 c -0.352,34.219 -33.711,33.316 -33.711,33.316 l 0.269,0 c 0,0 -31.437,1.762 -33.551,-31.988 l 1.524,-6.41 -3.942,-0.539 0,6.168 c 0,34.883 35.969,35.902 35.969,35.902" /><path
         id="path66"
         style="fill:#ffffff;fill-opacity:1;fill-rule:nonzero;stroke:none"
         d="m 162.109,128.379 c -1.8,-0.188 -3.437,1.062 -3.629,2.891 -0.199,1.8 1.09,3.402 2.891,3.64 1.789,0.192 3.43,-1.101 3.629,-2.89 0.199,-1.801 -1.09,-3.442 -2.891,-3.641" /><path
         id="path68"
         style="fill:none;stroke:#231f20;stroke-width:2.5;stroke-linecap:butt;stroke-linejoin:miter;stroke-miterlimit:4;stroke-dasharray:none;stroke-opacity:1"
         d="m 162.109,128.379 c -1.8,-0.191 -3.437,1.059 -3.629,2.891 -0.199,1.8 1.09,3.398 2.891,3.64 1.789,0.188 3.43,-1.101 3.629,-2.89 0.199,-1.801 -1.09,-3.442 -2.891,-3.641 z" /><path
         id="path70"
         style="fill:#ffffff;fill-opacity:1;fill-rule:nonzero;stroke:none"
         d="m 164.141,135.449 -5.661,-6.988 -20.121,16.367 5.621,6.992 20.161,-16.371" /><path
         id="path72"
         style="fill:none;stroke:#231f20;stroke-width:2.5;stroke-linecap:butt;stroke-linejoin:miter;stroke-miterlimit:4;stroke-dasharray:none;stroke-opacity:1"
         d="m 164.141,135.449 -5.661,-6.988 -20.121,16.367 5.621,6.992 20.161,-16.371 z" /><path
         id="path74"
         style="fill:#ffffff;fill-opacity:1;fill-rule:nonzero;stroke:none"
         d="m 88.3203,166.781 c 1.6406,14.297 14.6097,24.61 28.9497,22.969 14.289,-1.641 24.609,-14.609 22.96,-28.91 -1.64,-14.328 -14.609,-24.641 -28.941,-23 -14.3007,1.64 -24.6093,14.609 -22.9687,28.941 z m -4.2187,0.469 c -1.9102,-16.641 10.0781,-31.719 26.7184,-33.629 16.641,-1.922 31.758,10.078 33.629,26.719 1.922,16.64 -10.07,31.711 -26.719,33.629 -16.64,1.91 -31.7105,-10.078 -33.6284,-26.719" /><path
         id="path76"
         style="fill:none;stroke:#231f20;stroke-width:2.5;stroke-linecap:butt;stroke-linejoin:miter;stroke-miterlimit:4;stroke-dasharray:none;stroke-opacity:1"
         d="m 88.3203,166.777 c 1.6406,14.301 14.6097,24.614 28.9497,22.973 14.289,-1.641 24.609,-14.609 22.96,-28.91 -1.64,-14.332 -14.609,-24.641 -28.941,-23 -14.3007,1.64 -24.6093,14.609 -22.9687,28.937 z m -4.2187,0.473 c -1.9102,-16.641 10.0781,-31.723 26.7184,-33.633 16.641,-1.918 31.758,10.082 33.629,26.723 1.922,16.64 -10.07,31.719 -26.719,33.629 -16.64,1.91 -31.7105,-10.078 -33.6284,-26.719 z" /><path
         id="path78"
         style="fill:#ffffff;fill-opacity:1;fill-rule:nonzero;stroke:none"
         d="m 91.7617,169.441 c 1.6797,14.329 14.6483,24.649 28.9373,23.008 14.34,-1.648 24.653,-14.648 23.012,-28.949 -1.68,-14.301 -14.652,-24.609 -28.941,-22.969 -14.301,1.641 -24.6098,14.61 -23.0083,28.91 z m -4.1836,0.508 c -1.9179,-16.648 10.0821,-31.758 26.6839,-33.64 16.636,-1.911 31.758,10.082 33.668,26.722 1.871,16.641 -10.078,31.719 -26.758,33.629 -16.602,1.918 -31.7228,-10.07 -33.5939,-26.711" /><path
         id="path80"
         style="fill:none;stroke:#231f20;stroke-width:2.5;stroke-linecap:butt;stroke-linejoin:miter;stroke-miterlimit:4;stroke-dasharray:none;stroke-opacity:1"
         d="m 91.7617,169.438 c 1.6797,14.332 14.6483,24.652 28.9373,23.011 14.34,-1.64 24.653,-14.648 23.012,-28.949 -1.68,-14.301 -14.652,-24.609 -28.941,-22.973 -14.301,1.641 -24.6098,14.614 -23.0083,28.911 z m -4.1836,0.511 c -1.9179,-16.64 10.0821,-31.761 26.6839,-33.64 16.636,-1.911 31.758,10.082 33.668,26.718 1.871,16.641 -10.078,31.723 -26.758,33.641 -16.602,1.91 -31.7228,-10.078 -33.5939,-26.719 z" /><path
         id="path82"
         style="fill:#78b4db;fill-opacity:1;fill-rule:evenodd;stroke:none"
         d="m 114.219,214.012 0,28.16 -6.328,0 10.859,20.199 11.328,-20.199 -6.367,0 0,-27.973 -9.492,-0.187" /></g></g></svg>