<svg xmlns="http://www.w3.org/2000/svg" viewBox="0 0 50 42.5" height="42.5" width="50"><path d="M.708 40.441h42.52V8.571H.708v31.87z" fill="#087dbd"/><path d="M.708 40.441h42.52V8.571H.708v31.87z" fill="none" stroke="#fff" stroke-width=".5"/><path d="M48.716 32.419l-5.488 8.022V8.571l5.488-6.65V32.42" fill="#087dbd"/><path d="M48.716 32.419l-5.488 8.022V8.571l5.488-6.65V32.42z" fill="none" stroke="#fff" stroke-width=".5"/><path d="M8.935 1.921h39.781l-5.488 6.65H.708l8.227-6.65" fill="#087dbd"/><path d="M8.935 1.921h39.781l-5.488 6.65H.708l8.227-6.65z" fill="none" stroke="#fff" stroke-width=".5"/><path d="M40.806 25.578H4.815v.79L2.29 25.012l2.525-1.415v.795h35.971l.02 1.187" fill="#fff" fill-rule="evenodd"/><path d="M9.029 13.689h25.966c1.025 0 1.851.825 1.851 1.85v19.566c0 1.02-.826 1.845-1.85 1.845H9.028a1.845 1.845 0 0 1-1.851-1.845V15.539c0-1.025.824-1.85 1.85-1.85" fill="#fff"/><path d="M9.029 13.689h25.966c1.025 0 1.851.825 1.851 1.85v19.565a1.846 1.846 0 0 1-1.85 1.846H9.028a1.845 1.845 0 0 1-1.851-1.846V15.539c0-1.025.824-1.85 1.85-1.85z" fill="none" stroke="#fff" stroke-width=".4"/><path d="M8.632 28.82h13.052V15.769H8.632v13.05z" fill="#78b4db"/><path d="M10.884 18.259h8.555M10.884 19.953h8.555M10.884 21.648h8.555M10.884 23.336h8.555M10.884 25.031h8.555M10.884 26.725h8.555" fill="none" stroke="#fff" stroke-width=".55" stroke-linecap="round" stroke-linejoin="round"/><path d="M21.055 36.066H35.41V21.711H21.055v14.355z" fill="#78b4db"/><path d="M21.055 36.066H35.41V21.711H21.055v14.355z" fill="none" stroke="#fff" stroke-width=".4125" stroke-linecap="round" stroke-linejoin="round"/><path d="M29.004 29.777a2.28 2.28 0 0 0-.698-4.448 2.285 2.285 0 0 0-2.286 2.28 2.28 2.28 0 0 0 1.49 2.138 6.9 6.9 0 0 0-3.086.987v5.918h7.612v-5.918s-1.25-.752-3.032-.957" fill="#fff"/><path d="M40.518 30.09h-.89v-.796l-2.523 1.416 2.524 1.357v-.79h.889v6.777h1.191V30.09h-1.191" fill="#fff" fill-rule="evenodd"/><path d="M26.616 30.759a.329.329 0 0 0 .054.464.328.328 0 1 0 .41-.513.328.328 0 0 0-.464.049" fill="#100f0d"/><path d="M24.121 29.163c.313.502 1.084 1.18 1.826 1.6.488.275.85.372 1.015.299" fill="none" stroke="#231f20" stroke-width=".25" stroke-linejoin="round"/><path d="M24.849 28.366a.731.731 0 1 1-1.465 0 .732.732 0 1 1 1.465 0M31.547 28.366a.732.732 0 1 0 1.464.002.732.732 0 0 0-1.464-.002" fill="#100f0d"/><path d="M28.179 22.824s4.502.127 4.502 4.487v.771l-.493-.067.205-.635c-.044-4.277-4.214-4.165-4.214-4.165h.033s-3.93-.22-4.193 3.999l.19.801-.493.068v-.772c0-4.36 4.496-4.487 4.496-4.487" fill="#231f20"/><path d="M28.179 22.824s4.502.127 4.502 4.487v.772l-.493-.068.205-.635c-.044-4.277-4.214-4.165-4.214-4.165h.033s-3.93-.22-4.193 3.999l.19.801-.493.068v-.771c0-4.36 4.496-4.488 4.496-4.488" fill="none" stroke="#231f20" stroke-width=".075"/><path d="M20.264 26.453a.408.408 0 0 1-.454-.362.414.414 0 0 1 .361-.455.412.412 0 0 1 .092.816" fill="#fff"/><path d="M20.264 26.453a.408.408 0 0 1-.454-.362.415.415 0 0 1 .361-.455.412.412 0 0 1 .092.816z" fill="none" stroke="#231f20" stroke-width=".3125"/><path d="M20.518 25.569l-.708.873-2.515-2.046.702-.874 2.52 2.047" fill="#fff"/><path d="M20.518 25.569l-.708.873-2.515-2.046.702-.874 2.52 2.047z" fill="none" stroke="#231f20" stroke-width=".3125"/><path d="M11.04 21.652a3.27 3.27 0 0 1 3.619-2.87 3.267 3.267 0 0 1 2.87 3.613 3.27 3.27 0 0 1-3.618 2.875 3.269 3.269 0 0 1-2.871-3.618zm-.527-.058a3.796 3.796 0 1 0 7.543.864 3.796 3.796 0 0 0-7.543-.864" fill="#fff"/><path d="M11.04 21.653a3.27 3.27 0 0 1 3.619-2.872 3.267 3.267 0 0 1 2.87 3.614 3.27 3.27 0 0 1-3.618 2.875 3.269 3.269 0 0 1-2.871-3.617zm-.527-.06a3.797 3.797 0 1 0 4.204-3.34 3.8 3.8 0 0 0-4.204 3.34z" fill="none" stroke="#231f20" stroke-width=".3125"/><path d="M11.47 21.32a3.276 3.276 0 0 1 3.617-2.876 3.273 3.273 0 0 1 2.877 3.618 3.275 3.275 0 0 1-3.618 2.872 3.275 3.275 0 0 1-2.876-3.614zm-.523-.064a3.798 3.798 0 0 0 3.336 4.205 3.805 3.805 0 0 0 4.208-3.34 3.804 3.804 0 0 0-3.344-4.204 3.795 3.795 0 0 0-4.2 3.34" fill="#fff"/><path d="M11.47 21.32a3.276 3.276 0 0 1 3.617-2.876 3.273 3.273 0 0 1 2.877 3.619 3.276 3.276 0 0 1-3.618 2.871 3.275 3.275 0 0 1-2.876-3.614zm-.523-.064a3.799 3.799 0 0 0 3.336 4.205 3.805 3.805 0 0 0 4.208-3.34 3.806 3.806 0 0 0-3.344-4.204 3.796 3.796 0 0 0-4.2 3.34z" fill="none" stroke="#231f20" stroke-width=".3125"/><path d="M14.277 15.748v-3.52h-.79l1.357-2.524 1.416 2.525h-.796v3.496l-1.187.024" fill="#78b4db" fill-rule="evenodd"/></svg>