<?xml version="1.0" encoding="UTF-8" standalone="no"?>
<svg
   xmlns:dc="http://purl.org/dc/elements/1.1/"
   xmlns:cc="http://creativecommons.org/ns#"
   xmlns:rdf="http://www.w3.org/1999/02/22-rdf-syntax-ns#"
   xmlns:svg="http://www.w3.org/2000/svg"
   xmlns="http://www.w3.org/2000/svg"
   viewBox="0 0 49.25 40.025002"
   height="40.025002"
   width="49.25"
   xml:space="preserve"
   version="1.1"
   id="svg2"><metadata
     id="metadata8"><rdf:RDF><cc:Work
         rdf:about=""><dc:format>image/svg+xml</dc:format><dc:type
           rdf:resource="http://purl.org/dc/dcmitype/StillImage" /></cc:Work></rdf:RDF></metadata><defs
     id="defs6" /><g
     transform="matrix(1.25,0,0,-1.25,0,40.025)"
     id="g10"><g
       transform="scale(0.1,0.1)"
       id="g12"><path
         id="path14"
         style="fill:#087dbd;fill-opacity:1;fill-rule:nonzero;stroke:none"
         d="m 5.65625,6.46484 340.172,0 0,254.973 -340.172,0 0,-254.973 z" /><path
         id="path16"
         style="fill:none;stroke:#ffffff;stroke-width:4;stroke-linecap:butt;stroke-linejoin:miter;stroke-miterlimit:4;stroke-dasharray:none;stroke-opacity:1"
         d="m 5.65625,6.46484 340.172,0 0,254.973 -340.172,0 0,-254.973 z" /><path
         id="path18"
         style="fill:#087dbd;fill-opacity:1;fill-rule:nonzero;stroke:none"
         d="m 389.719,70.6523 -43.891,-64.18746 0,254.97316 43.891,53.21 0,-243.9957" /><path
         id="path20"
         style="fill:none;stroke:#ffffff;stroke-width:4;stroke-linecap:butt;stroke-linejoin:miter;stroke-miterlimit:4;stroke-dasharray:none;stroke-opacity:1"
         d="m 389.719,70.6523 -43.891,-64.18746 0,254.97316 43.891,53.21 0,-243.9957 z" /><path
         id="path22"
         style="fill:#087dbd;fill-opacity:1;fill-rule:nonzero;stroke:none"
         d="m 71.4844,314.648 318.2346,0 -43.891,-53.21 -340.17175,0 65.82815,53.21" /><path
         id="path24"
         style="fill:none;stroke:#ffffff;stroke-width:4;stroke-linecap:butt;stroke-linejoin:miter;stroke-miterlimit:4;stroke-dasharray:none;stroke-opacity:1"
         d="m 71.4844,314.648 318.2346,0 -43.891,-53.21 -340.17175,0 65.82815,53.21 z" /><path
         id="path26"
         style="fill:#ffffff;fill-opacity:1;fill-rule:evenodd;stroke:none"
         d="m 326.465,125.359 -287.9572,0 0,-6.316 -20.1758,10.852 20.1758,11.328 0,-6.36 287.7622,0 0.195,-9.504" /><path
         id="path28"
         style="fill:#ffffff;fill-opacity:1;fill-rule:nonzero;stroke:none"
         d="m 72.2188,220.5 207.7542,0 c 8.203,0 14.8,-6.621 14.8,-14.805 l 0,-156.5231 c 0,-8.1641 -6.597,-14.7774 -14.8,-14.7774 l -207.7542,0 c -8.1758,0 -14.7969,6.6133 -14.7969,14.7774 l 0,156.5231 c 0,8.184 6.6211,14.805 14.7969,14.805" /><path
         id="path30"
         style="fill:none;stroke:#ffffff;stroke-width:3.20000005;stroke-linecap:butt;stroke-linejoin:miter;stroke-miterlimit:4;stroke-dasharray:none;stroke-opacity:1"
         d="m 72.2188,220.5 207.7542,0 c 8.203,0 14.8,-6.621 14.8,-14.805 l 0,-156.5231 c 0,-8.1641 -6.597,-14.7774 -14.8,-14.7774 l -207.7542,0 c -8.1758,0 -14.7969,6.6133 -14.7969,14.7774 l 0,156.5231 c 0,8.184 6.6211,14.805 14.7969,14.805 z" /><path
         id="path32"
         style="fill:#78b4db;fill-opacity:1;fill-rule:nonzero;stroke:none"
         d="m 69.0742,99.4336 104.41,0 0,104.414 -104.41,0 0,-104.414 z" /><path
         id="path34"
         style="fill:none;stroke:#ffffff;stroke-width:4.4000001;stroke-linecap:round;stroke-linejoin:round;stroke-miterlimit:4;stroke-dasharray:none;stroke-opacity:1"
         d="m 87.0586,183.914 68.4684,0" /><path
         id="path36"
         style="fill:none;stroke:#ffffff;stroke-width:4.4000001;stroke-linecap:round;stroke-linejoin:round;stroke-miterlimit:4;stroke-dasharray:none;stroke-opacity:1"
         d="m 87.0586,170.371 68.4684,0" /><path
         id="path38"
         style="fill:none;stroke:#ffffff;stroke-width:4.4000001;stroke-linecap:round;stroke-linejoin:round;stroke-miterlimit:4;stroke-dasharray:none;stroke-opacity:1"
         d="m 87.0586,156.824 68.4684,0" /><path
         id="path40"
         style="fill:none;stroke:#ffffff;stroke-width:4.4000001;stroke-linecap:round;stroke-linejoin:round;stroke-miterlimit:4;stroke-dasharray:none;stroke-opacity:1"
         d="m 87.0586,143.289 68.4684,0" /><path
         id="path42"
         style="fill:none;stroke:#ffffff;stroke-width:4.4000001;stroke-linecap:round;stroke-linejoin:round;stroke-miterlimit:4;stroke-dasharray:none;stroke-opacity:1"
         d="m 87.0586,129.746 68.4684,0" /><path
         id="path44"
         style="fill:none;stroke:#ffffff;stroke-width:4.4000001;stroke-linecap:round;stroke-linejoin:round;stroke-miterlimit:4;stroke-dasharray:none;stroke-opacity:1"
         d="m 87.0586,116.199 68.4684,0" /><path
         id="path46"
         style="fill:#78b4db;fill-opacity:1;fill-rule:nonzero;stroke:none"
         d="m 168.43,41.4531 114.84,0 0,114.855 -114.84,0 0,-114.855 z" /><path
         id="path48"
         style="fill:none;stroke:#ffffff;stroke-width:3.29999995;stroke-linecap:round;stroke-linejoin:round;stroke-miterlimit:4;stroke-dasharray:none;stroke-opacity:1"
         d="m 168.43,41.4531 114.84,0 0,114.855 -114.84,0 0,-114.855 z" /><path
         id="path50"
         style="fill:#ffffff;fill-opacity:1;fill-rule:nonzero;stroke:none"
         d="m 232.039,91.7969 c 7.336,2.3945 12.668,9.1801 12.668,17.3121 0,10.051 -8.191,18.254 -18.262,18.254 -10.105,0 -18.281,-8.203 -18.281,-18.254 0,-7.871 5.012,-14.4996 11.934,-17.0856 -7.813,-0.5976 -16.219,-2.7929 -24.688,-7.9023 l 0,-47.3242 60.867,0 0,47.3242 c 0,0 -9.988,6.0078 -24.238,7.6758" /><path
         id="path52"
         style="fill:#ffffff;fill-opacity:1;fill-rule:evenodd;stroke:none"
         d="m 324.16,89.2773 -7.129,0 0,6.3594 -20.176,-11.3281 20.176,-10.8516 0,6.3203 7.129,0 0,-54.2109 9.5,0 0,63.7109 -9.5,0" /><path
         id="path54"
         style="fill:#100f0d;fill-opacity:1;fill-rule:nonzero;stroke:none"
         d="m 212.938,83.9453 c -0.918,-1.1406 -0.731,-2.8008 0.414,-3.7187 1.128,-0.9102 2.793,-0.7344 3.699,0.3984 0.929,1.1328 0.73,2.793 -0.403,3.7109 -1.128,0.918 -2.793,0.7422 -3.71,-0.3906" /><path
         id="path56"
         style="fill:none;stroke:#231f20;stroke-width:2;stroke-linecap:butt;stroke-linejoin:round;stroke-miterlimit:4;stroke-dasharray:none;stroke-opacity:1"
         d="m 192.98,96.6992 c 2.508,-4.0117 8.668,-9.4648 14.586,-12.7929 3.911,-2.1954 6.821,-2.9688 8.125,-2.3829" /><path
         id="path58"
         style="fill:#100f0d;fill-opacity:1;fill-rule:nonzero;stroke:none"
         d="m 198.777,103.066 c 0,-3.2301 -2.617,-5.859 -5.855,-5.859 -3.242,0 -5.859,2.6289 -5.859,5.859 0,3.243 2.617,5.86 5.859,5.86 3.238,0 5.855,-2.617 5.855,-5.86" /><path
         id="path60"
         style="fill:#100f0d;fill-opacity:1;fill-rule:nonzero;stroke:none"
         d="m 252.371,103.066 c 0,-3.2301 2.641,-5.859 5.871,-5.859 3.235,0 5.86,2.6289 5.86,5.859 0,3.243 -2.625,5.86 -5.86,5.86 -3.23,0 -5.871,-2.617 -5.871,-5.86" /><path
         id="path62"
         style="fill:#231f20;fill-opacity:1;fill-rule:nonzero;stroke:none"
         d="m 225.449,147.41 c 0,0 35.989,-1.023 35.989,-35.894 l 0,-6.184 -3.926,0.559 1.621,5.066 c -0.332,34.219 -33.684,33.34 -33.684,33.34 l 0.266,0 c 0,0 -31.438,1.758 -33.547,-31.992 l 1.492,-6.414 -3.941,-0.559 0,6.184 c 0,34.871 35.996,35.894 35.996,35.894" /><path
         id="path64"
         style="fill:none;stroke:#231f20;stroke-width:0.60000002;stroke-linecap:butt;stroke-linejoin:miter;stroke-miterlimit:4;stroke-dasharray:none;stroke-opacity:1"
         d="m 225.449,147.41 c 0,0 35.989,-1.023 35.989,-35.894 l 0,-6.184 -3.926,0.559 1.621,5.066 c -0.332,34.219 -33.684,33.34 -33.684,33.34 l 0.266,0 c 0,0 -31.438,1.758 -33.547,-31.992 l 1.492,-6.414 -3.941,-0.559 0,6.184 c 0,34.871 35.996,35.894 35.996,35.894" /><path
         id="path66"
         style="fill:#ffffff;fill-opacity:1;fill-rule:nonzero;stroke:none"
         d="m 162.117,118.367 c -1.812,-0.191 -3.426,1.086 -3.64,2.895 -0.207,1.804 1.086,3.426 2.89,3.633 1.809,0.214 3.438,-1.086 3.645,-2.891 0.203,-1.789 -1.106,-3.43 -2.895,-3.637" /><path
         id="path68"
         style="fill:none;stroke:#231f20;stroke-width:2.5;stroke-linecap:butt;stroke-linejoin:miter;stroke-miterlimit:4;stroke-dasharray:none;stroke-opacity:1"
         d="m 162.117,118.367 c -1.812,-0.191 -3.426,1.086 -3.64,2.895 -0.207,1.804 1.086,3.426 2.89,3.633 1.809,0.214 3.438,-1.086 3.645,-2.891 0.203,-1.789 -1.106,-3.43 -2.895,-3.637 z" /><path
         id="path70"
         style="fill:#ffffff;fill-opacity:1;fill-rule:nonzero;stroke:none"
         d="m 164.141,125.441 -5.664,-6.972 -20.118,16.375 5.645,6.972 20.137,-16.375" /><path
         id="path72"
         style="fill:none;stroke:#231f20;stroke-width:2.5;stroke-linecap:butt;stroke-linejoin:miter;stroke-miterlimit:4;stroke-dasharray:none;stroke-opacity:1"
         d="m 164.141,125.441 -5.664,-6.972 -20.118,16.375 5.645,6.972 20.137,-16.375 z" /><path
         id="path74"
         style="fill:#ffffff;fill-opacity:1;fill-rule:nonzero;stroke:none"
         d="m 88.332,156.77 c 1.6407,14.324 14.617,24.628 28.926,22.988 14.297,-1.645 24.617,-14.621 22.984,-28.93 -1.629,-14.312 -14.617,-24.617 -28.933,-22.984 -14.3051,1.64 -24.641,14.617 -22.977,28.926 z m -4.2226,0.488 c -1.9102,-16.653 10.0586,-31.731 26.7106,-33.637 16.653,-1.91 31.746,10.09 33.645,26.731 1.89,16.64 -10.078,31.718 -26.731,33.632 -16.64,1.895 -31.7262,-10.086 -33.6246,-26.726" /><path
         id="path76"
         style="fill:none;stroke:#231f20;stroke-width:2.5;stroke-linecap:butt;stroke-linejoin:miter;stroke-miterlimit:4;stroke-dasharray:none;stroke-opacity:1"
         d="m 88.332,156.77 c 1.6407,14.324 14.617,24.628 28.926,22.988 14.297,-1.645 24.617,-14.621 22.984,-28.93 -1.629,-14.312 -14.617,-24.617 -28.933,-22.984 -14.3051,1.64 -24.641,14.617 -22.977,28.926 z m -4.2226,0.488 c -1.9102,-16.653 10.0586,-31.731 26.7106,-33.637 16.653,-1.91 31.746,10.09 33.645,26.731 1.89,16.64 -10.078,31.718 -26.731,33.632 -16.64,1.895 -31.7262,-10.086 -33.6246,-26.726 z" /><path
         id="path78"
         style="fill:#ffffff;fill-opacity:1;fill-rule:nonzero;stroke:none"
         d="m 91.7773,159.453 c 1.6485,14.317 14.6177,24.641 28.9377,22.981 14.312,-1.633 24.629,-14.621 22.984,-28.926 -1.648,-14.297 -14.617,-24.621 -28.933,-22.981 -14.297,1.629 -24.6176,14.61 -22.9887,28.926 z m -4.207,0.488 c -1.9062,-16.652 10.0781,-31.746 26.7067,-33.64 16.641,-1.914 31.739,10.086 33.645,26.734 1.902,16.621 -10.078,31.723 -26.731,33.637 -16.628,1.894 -31.7379,-10.102 -33.6207,-26.731" /><path
         id="path80"
         style="fill:none;stroke:#231f20;stroke-width:2.5;stroke-linecap:butt;stroke-linejoin:miter;stroke-miterlimit:4;stroke-dasharray:none;stroke-opacity:1"
         d="m 91.7773,159.453 c 1.6485,14.317 14.6177,24.641 28.9377,22.981 14.312,-1.633 24.629,-14.621 22.984,-28.926 -1.648,-14.297 -14.617,-24.621 -28.933,-22.981 -14.297,1.629 -24.6176,14.61 -22.9887,28.926 z m -4.207,0.488 c -1.9062,-16.652 10.0781,-31.746 26.7067,-33.64 16.641,-1.914 31.739,10.086 33.645,26.734 1.902,16.621 -10.078,31.723 -26.731,33.637 -16.628,1.894 -31.7379,-10.102 -33.6207,-26.731 z" /><path
         id="path82"
         style="fill:#78b4db;fill-opacity:1;fill-rule:evenodd;stroke:none"
         d="m 114.23,204.023 0,28.165 -6.32,0 10.852,20.175 11.328,-20.175 -6.36,0 0,-27.969 -9.5,-0.196" /></g></g></svg>