<?xml version="1.0" encoding="UTF-8" standalone="no"?>
<svg
   xmlns:dc="http://purl.org/dc/elements/1.1/"
   xmlns:cc="http://creativecommons.org/ns#"
   xmlns:rdf="http://www.w3.org/1999/02/22-rdf-syntax-ns#"
   xmlns:svg="http://www.w3.org/2000/svg"
   xmlns="http://www.w3.org/2000/svg"
   viewBox="0 0 40 53.75"
   height="53.75"
   width="40"
   xml:space="preserve"
   version="1.1"
   id="svg2"><metadata
     id="metadata8"><rdf:RDF><cc:Work
         rdf:about=""><dc:format>image/svg+xml</dc:format><dc:type
           rdf:resource="http://purl.org/dc/dcmitype/StillImage" /></cc:Work></rdf:RDF></metadata><defs
     id="defs6" /><g
     transform="matrix(1.25,0,0,-1.25,0,53.75)"
     id="g10"><g
       transform="scale(0.1,0.1)"
       id="g12"><path
         id="path14"
         style="fill:#087bbb;fill-opacity:1;fill-rule:nonzero;stroke:none"
         d="m 6.48047,14.8086 268.238,0 0,268.012 -268.238,0 0,-268.012 z" /><path
         id="path16"
         style="fill:none;stroke:#ffffff;stroke-width:4;stroke-linecap:butt;stroke-linejoin:miter;stroke-miterlimit:4;stroke-dasharray:none;stroke-opacity:1"
         d="m 6.48047,14.8086 268.238,0 0,268.008 -268.238,0 0,-268.008 z" /><path
         id="path18"
         style="fill:#087bbb;fill-opacity:1;fill-rule:nonzero;stroke:none"
         d="m 308.59,48.3711 0,268.0079 -33.86,-33.559 0,-268.0114 33.86,33.5625" /><path
         id="path20"
         style="fill:none;stroke:#ffffff;stroke-width:4;stroke-linecap:butt;stroke-linejoin:miter;stroke-miterlimit:4;stroke-dasharray:none;stroke-opacity:1"
         d="m 308.59,48.3672 0,268.0118 -33.86,-33.563 0,-268.0074 33.86,33.5586 z" /><path
         id="path22"
         style="fill:#087bbb;fill-opacity:1;fill-rule:nonzero;stroke:none"
         d="m 55.5117,424.77 -49.03123,-33.551 268.24953,0 33.86,33.551 -253.0783,0" /><path
         id="path24"
         style="fill:none;stroke:#ffffff;stroke-width:4;stroke-linecap:butt;stroke-linejoin:miter;stroke-miterlimit:4;stroke-dasharray:none;stroke-opacity:1"
         d="m 55.5117,424.777 -49.03123,-33.558 268.24953,0 33.86,33.558 -253.0783,0 z" /><path
         id="path26"
         style="fill:#087bbb;fill-opacity:1;fill-rule:nonzero;stroke:none"
         d="m 6.48047,282.82 268.238,0 0,108.398 -268.238,0 0,-108.398 z" /><path
         id="path28"
         style="fill:none;stroke:#ffffff;stroke-width:4;stroke-linecap:butt;stroke-linejoin:miter;stroke-miterlimit:4;stroke-dasharray:none;stroke-opacity:1"
         d="m 6.48047,282.816 268.238,0 0,108.402 -268.238,0 0,-108.402 z" /><path
         id="path30"
         style="fill:#087bbb;fill-opacity:1;fill-rule:nonzero;stroke:none"
         d="m 308.59,316.379 0,108.391 -33.86,-33.551 0,-108.399 33.86,33.559" /><path
         id="path32"
         style="fill:none;stroke:#ffffff;stroke-width:4;stroke-linecap:butt;stroke-linejoin:miter;stroke-miterlimit:4;stroke-dasharray:none;stroke-opacity:1"
         d="m 308.59,316.379 0,108.398 -33.86,-33.558 0,-108.403 33.86,33.563 z" /><path
         id="path34"
         style="fill:#087bbb;fill-opacity:1;fill-rule:nonzero;stroke:none"
         d="m 274.73,282.82 33.86,33.559" /><path
         id="path36"
         style="fill:none;stroke:#ffffff;stroke-width:4;stroke-linecap:butt;stroke-linejoin:miter;stroke-miterlimit:4;stroke-dasharray:none;stroke-opacity:1"
         d="m 274.73,282.816 33.86,33.563" /><path
         id="path38"
         style="fill:#ffffff;fill-opacity:1;fill-rule:nonzero;stroke:none"
         d="m 50.2305,354.309 43.2813,0 0,22.3828 -43.2813,0 0,-22.3828 z" /><path
         id="path40"
         style="fill:#ffffff;fill-opacity:1;fill-rule:nonzero;stroke:none"
         d="m 192.379,354.309 43.2813,0 0,22.3828 -43.2813,0 0,-22.3828 z" /><path
         id="path42"
         style="fill:#ffffff;fill-opacity:1;fill-rule:nonzero;stroke:none"
         d="m 50.2305,298.051 43.2813,0 0,22.5 -43.2813,0 0,-22.5 z" /><path
         id="path44"
         style="fill:#ffffff;fill-opacity:1;fill-rule:nonzero;stroke:none"
         d="m 192.379,298.051 43.2813,0 0,22.5 -43.2813,0 0,-22.5 z" /><path
         id="path46"
         style="fill:none;stroke:#ffffff;stroke-width:4;stroke-linecap:butt;stroke-linejoin:miter;stroke-miterlimit:4;stroke-dasharray:none;stroke-opacity:1"
         d="m 79.6094,365.52 132.8516,0" /><path
         id="path48"
         style="fill:none;stroke:#ffffff;stroke-width:4;stroke-linecap:butt;stroke-linejoin:miter;stroke-miterlimit:4;stroke-dasharray:none;stroke-opacity:1"
         d="m 79.6094,309.309 132.8516,0" /><path
         id="path50"
         style="fill:#231f20;fill-opacity:1;fill-rule:nonzero;stroke:none"
         d="M 71.8789,309.301 212.461,365.52" /><path
         id="path52"
         style="fill:none;stroke:#ffffff;stroke-width:4;stroke-linecap:butt;stroke-linejoin:miter;stroke-miterlimit:4;stroke-dasharray:none;stroke-opacity:1"
         d="M 71.8789,309.309 212.461,365.52" /><path
         id="path54"
         style="fill:#231f20;fill-opacity:1;fill-rule:nonzero;stroke:none"
         d="M 71.8789,365.52 212.461,309.301" /><path
         id="path56"
         style="fill:none;stroke:#ffffff;stroke-width:4;stroke-linecap:butt;stroke-linejoin:miter;stroke-miterlimit:4;stroke-dasharray:none;stroke-opacity:1"
         d="M 71.8789,365.52 212.461,309.309" /><path
         id="path58"
         style="fill:#ffffff;fill-opacity:1;fill-rule:nonzero;stroke:none"
         d="m 90.5117,162.199 0,22.571 3.8281,0 -5.6289,8.48 -5.6601,-8.48 3.8281,0 0,-22.571 3.6328,0" /><path
         id="path60"
         style="fill:#ffffff;fill-opacity:1;fill-rule:nonzero;stroke:none"
         d="m 79.0195,158.91 -15.9687,15.942 2.6875,2.738 -10.0391,2.031 2.0313,-10 2.7383,2.688 15.9804,-15.969 2.5703,2.57" /><path
         id="path62"
         style="fill:#ffffff;fill-opacity:1;fill-rule:nonzero;stroke:none"
         d="m 73.1602,148.48 -22.5704,0 0,3.829 -8.5195,-5.661 8.5195,-5.668 0,3.829 22.5704,0 0,3.671" /><path
         id="path64"
         style="fill:#ffffff;fill-opacity:1;fill-rule:nonzero;stroke:none"
         d="m 76.4492,136.922 -15.9804,-15.942 -2.7383,2.7 -2.0313,-10.039 10.0391,2.031 -2.6875,2.738 15.9687,15.93 -2.5703,2.582" /><path
         id="path66"
         style="fill:#ffffff;fill-opacity:1;fill-rule:nonzero;stroke:none"
         d="m 86.8789,131.102 0,-22.582 -3.8281,0 5.6601,-8.508 5.6289,8.508 -3.8281,0 0,22.582 -3.6328,0" /><path
         id="path68"
         style="fill:#ffffff;fill-opacity:1;fill-rule:nonzero;stroke:none"
         d="m 100.98,156.34 15.969,15.969 2.699,-2.688 2.032,10 -10.039,-2.031 2.738,-2.738 -15.9806,-15.942 2.5816,-2.57" /><path
         id="path70"
         style="fill:#ffffff;fill-opacity:1;fill-rule:nonzero;stroke:none"
         d="m 102.5,127.738 c 10.59,7.391 13.16,21.961 5.738,32.543 -7.379,10.59 -21.9489,13.168 -32.5388,5.739 -10.5781,-7.418 -13.1601,-21.989 -5.7383,-32.54 7.3789,-10.582 21.9883,-13.16 32.5391,-5.742" /><path
         id="path72"
         style="fill:#ffffff;fill-opacity:1;fill-rule:nonzero;stroke:none"
         d="m 100.469,134.34 15.98,-15.93 -2.699,-2.738 10,-2.031 -2.031,10.039 -2.699,-2.7 -15.969,15.942 -2.582,-2.582" /><path
         id="path74"
         style="fill:#ffffff;fill-opacity:1;fill-rule:nonzero;stroke:none"
         d="m 190.16,162.199 0,22.571 -3.871,0 5.66,8.48 5.672,-8.48 -3.832,0 0,-22.571 -3.629,0" /><path
         id="path76"
         style="fill:#ffffff;fill-opacity:1;fill-rule:nonzero;stroke:none"
         d="m 201.641,158.91 15.98,15.942 -2.742,2.738 10.043,2.031 -2.031,-10 -2.692,2.688 -15.98,-15.969 -2.578,2.57" /><path
         id="path78"
         style="fill:#ffffff;fill-opacity:1;fill-rule:nonzero;stroke:none"
         d="m 207.461,148.48 22.617,0 0,3.829 8.473,-5.661 -8.473,-5.668 0,3.829 -22.617,0 0,3.671" /><path
         id="path80"
         style="fill:#ffffff;fill-opacity:1;fill-rule:nonzero;stroke:none"
         d="m 204.219,136.922 15.98,-15.942 2.692,2.7 2.031,-10.039 -10.043,2.031 2.742,2.738 -15.98,15.93 2.578,2.582" /><path
         id="path82"
         style="fill:#ffffff;fill-opacity:1;fill-rule:nonzero;stroke:none"
         d="m 193.789,131.102 0,-22.582 3.832,0 -5.672,-8.508 -5.66,8.508 3.871,0 0,22.582 3.629,0" /><path
         id="path84"
         style="fill:#ffffff;fill-opacity:1;fill-rule:nonzero;stroke:none"
         d="m 179.691,156.34 -15.98,15.969 -2.691,-2.688 -2.04,10 10.04,-2.031 -2.731,-2.738 15.981,-15.942 -2.579,-2.57" /><path
         id="path86"
         style="fill:#ffffff;fill-opacity:1;fill-rule:nonzero;stroke:none"
         d="m 178.121,127.738 c -10.582,7.391 -13.16,21.961 -5.742,32.543 7.422,10.59 22,13.168 32.582,5.739 10.59,-7.418 13.129,-21.989 5.738,-32.54 -7.418,-10.582 -22.027,-13.16 -32.578,-5.742" /><path
         id="path88"
         style="fill:#ffffff;fill-opacity:1;fill-rule:nonzero;stroke:none"
         d="m 180.16,134.34 -15.941,-15.93 2.691,-2.738 -10.031,-2.031 2.031,10.039 2.731,-2.7 15.937,15.942 2.582,-2.582" /><path
         id="path90"
         style="fill:none;stroke:#ffffff;stroke-width:9.73400021;stroke-linecap:butt;stroke-linejoin:miter;stroke-miterlimit:4;stroke-dasharray:none;stroke-opacity:1"
         d="m 102.07,146.34 76.481,0" /><path
         id="path92"
         style="fill:none;stroke:#ffffff;stroke-width:4;stroke-linecap:butt;stroke-linejoin:miter;stroke-miterlimit:4;stroke-dasharray:none;stroke-opacity:1"
         d="m 145.859,146.566 c 0,-16.398 -2.808,-29.718 -6.289,-29.718 -3.48,0 -6.332,13.32 -6.332,29.718 0,16.411 2.852,29.692 6.332,29.692 3.481,0 6.289,-13.281 6.289,-29.692 z" /><path
         id="path94"
         style="fill:none;stroke:#ffffff;stroke-width:4;stroke-linecap:butt;stroke-linejoin:miter;stroke-miterlimit:4;stroke-dasharray:18, 18;stroke-dashoffset:0;stroke-opacity:1"
         d="m 32.3398,64.3789 214.84,0 0,168.75 -214.84,0 0,-168.75 z" /></g></g></svg>