<svg xmlns="http://www.w3.org/2000/svg" viewBox="0 0 55 41.25" height="41.25" width="55"><path d="M.708 39.19h47.685V7.862H.708V39.19z" fill="#087bbb"/><path d="M.708 39.19h47.685V7.863H.708V39.19z" fill="none" stroke="#fff" stroke-width=".5"/><path d="M53.877 31.169l-5.484 8.022V7.862l5.484-6.65V31.17" fill="#087bbb"/><path d="M53.877 31.168l-5.484 8.022V7.863l5.484-6.65v29.955z" fill="none" stroke="#fff" stroke-width=".5"/><path d="M8.935 1.212h44.942l-5.484 6.65H.708l8.227-6.65" fill="#087bbb"/><path d="M8.935 1.213h44.942l-5.484 6.65H.708l8.227-6.65z" fill="none" stroke="#fff" stroke-width=".5"/><path d="M39.683 23.151l5.552-.004v1.268l-5.552.005v1.982l-4.63-2.616 4.63-2.617v1.982" fill="#fff"/><path d="M42.998 24.274l-5.547.005v-1.27l5.547-.004.005-1.978 4.625 2.616-4.625 2.618-.005-1.987M33.281 23.707l-13.775-6.303v12.602l13.775-6.299" fill="#fff"/><path d="M33.281 23.708l-13.775-6.304v12.603l13.775-6.299z" fill="none" stroke="#fff" stroke-width=".45"/><path d="M12.739 23.951v1.778l4.14-2.344-4.14-2.344v1.778" fill="#fff"/><path d="M6.181 23.942l7.15.004V22.81l-7.15-.005-.005-1.773-4.14 2.344 4.14 2.344.005-1.777M13.56 17.995l-1.016 1.455 4.736.454-2.045-4.297-1.026 1.456" fill="#fff"/><path d="M8.199 14.225l5.854 4.101.65-.927-5.855-4.107 1.016-1.455-4.737-.453 2.045 4.29L8.2 14.226M13.56 28.942l-1.016-1.455 4.736-.454-2.045 4.292-1.026-1.45" fill="#fff"/><path d="M8.199 32.711l5.854-4.106.65.933-5.855 4.106 1.016 1.455-4.737.455 2.045-4.298L8.2 32.711" fill="#fff"/></svg>