<?xml version="1.0" encoding="UTF-8" standalone="no"?>
<svg
   xmlns:dc="http://purl.org/dc/elements/1.1/"
   xmlns:cc="http://creativecommons.org/ns#"
   xmlns:rdf="http://www.w3.org/1999/02/22-rdf-syntax-ns#"
   xmlns:svg="http://www.w3.org/2000/svg"
   xmlns="http://www.w3.org/2000/svg"
   viewBox="0 0 54.412498 39.487499"
   height="39.487499"
   width="54.412498"
   xml:space="preserve"
   version="1.1"
   id="svg2"><metadata
     id="metadata8"><rdf:RDF><cc:Work
         rdf:about=""><dc:format>image/svg+xml</dc:format><dc:type
           rdf:resource="http://purl.org/dc/dcmitype/StillImage" /></cc:Work></rdf:RDF></metadata><defs
     id="defs6" /><g
     transform="matrix(1.25,0,0,-1.25,0,39.4875)"
     id="g10"><g
       transform="scale(0.1,0.1)"
       id="g12"><path
         id="path14"
         style="fill:#087bbb;fill-opacity:1;fill-rule:nonzero;stroke:none"
         d="m 5.65234,6.46484 381.492,0 0,250.637 -381.492,0 0,-250.637 z" /><path
         id="path16"
         style="fill:none;stroke:#ffffff;stroke-width:4;stroke-linecap:butt;stroke-linejoin:miter;stroke-miterlimit:4;stroke-dasharray:none;stroke-opacity:1"
         d="m 5.65234,6.46484 381.492,0 0,250.637 -381.492,0 0,-250.637 z" /><path
         id="path18"
         style="fill:#087bbb;fill-opacity:1;fill-rule:nonzero;stroke:none"
         d="m 431.031,70.6641 -43.886,-64.19926 0,250.63716 43.886,53.211 0,-239.6489" /><path
         id="path20"
         style="fill:none;stroke:#ffffff;stroke-width:4;stroke-linecap:butt;stroke-linejoin:miter;stroke-miterlimit:4;stroke-dasharray:none;stroke-opacity:1"
         d="m 431.031,70.6641 -43.886,-64.19926 0,250.63716 43.886,53.211 0,-239.6489 z" /><path
         id="path22"
         style="fill:#087bbb;fill-opacity:1;fill-rule:nonzero;stroke:none"
         d="m 71.4883,310.313 359.5427,0 -43.886,-53.211 -381.49266,0 65.83596,53.211" /><path
         id="path24"
         style="fill:none;stroke:#ffffff;stroke-width:4;stroke-linecap:butt;stroke-linejoin:miter;stroke-miterlimit:4;stroke-dasharray:none;stroke-opacity:1"
         d="m 71.4883,310.313 359.5427,0 -43.886,-53.211 -381.49266,0 65.83596,53.211 z" /><path
         id="path26"
         style="fill:#ffffff;fill-opacity:1;fill-rule:nonzero;stroke:none"
         d="m 317.457,134.777 44.414,0.047 0,-10.156 -44.414,-0.039 -0.019,-15.859 -37.012,20.949 37.012,20.945 0.019,-15.887" /><path
         id="path28"
         style="fill:#ffffff;fill-opacity:1;fill-rule:nonzero;stroke:none"
         d="m 344,125.801 -44.414,-0.047 0,10.156 44.414,0.035 0.02,15.852 37.011,-20.938 -37.011,-20.937 -0.02,15.879" /><path
         id="path30"
         style="fill:#ffffff;fill-opacity:1;fill-rule:nonzero;stroke:none"
         d="m 266.254,130.352 -110.219,50.41 0,-100.8089 110.219,50.3989" /><path
         id="path32"
         style="fill:none;stroke:#ffffff;stroke-width:3.5999999;stroke-linecap:butt;stroke-linejoin:miter;stroke-miterlimit:4;stroke-dasharray:none;stroke-opacity:1"
         d="m 266.254,130.352 -110.219,50.41 0,-100.8089 110.219,50.3989 z" /><path
         id="path34"
         style="fill:#ffffff;fill-opacity:1;fill-rule:nonzero;stroke:none"
         d="m 101.891,128.379 0.023,-14.199 33.137,18.75 -33.137,18.75 -0.023,-14.219" /><path
         id="path36"
         style="fill:#ffffff;fill-opacity:1;fill-rule:nonzero;stroke:none"
         d="m 49.4531,128.477 57.1949,-0.039 0,9.093 -57.1949,0.028 -0.0234,14.199 -33.1289,-18.75 33.1289,-18.75 0.0234,14.219" /><path
         id="path38"
         style="fill:#ffffff;fill-opacity:1;fill-rule:nonzero;stroke:none"
         d="m 108.473,176.055 -8.125,-11.641 37.894,-3.641 -16.383,34.364 -8.175,-11.629" /><path
         id="path40"
         style="fill:#ffffff;fill-opacity:1;fill-rule:nonzero;stroke:none"
         d="m 65.5703,206.211 46.8317,-32.832 5.215,7.441 -46.8357,32.832 8.125,11.653 -37.8907,3.64 16.3828,-34.355 8.1719,11.621" /><path
         id="path42"
         style="fill:#ffffff;fill-opacity:1;fill-rule:nonzero;stroke:none"
         d="m 108.473,88.457 -8.125,11.652 37.894,3.641 -16.383,-34.3633 -8.175,11.6289" /><path
         id="path44"
         style="fill:#ffffff;fill-opacity:1;fill-rule:nonzero;stroke:none"
         d="m 65.5703,58.3008 46.8317,32.8437 5.215,-7.4531 -46.8357,-32.832 8.125,-11.6406 -37.8907,-3.6407 16.3828,34.3633 8.1719,-11.6406" /></g></g></svg>