<?xml version="1.0" encoding="UTF-8" standalone="no"?>
<svg
   xmlns:dc="http://purl.org/dc/elements/1.1/"
   xmlns:cc="http://creativecommons.org/ns#"
   xmlns:rdf="http://www.w3.org/1999/02/22-rdf-syntax-ns#"
   xmlns:svg="http://www.w3.org/2000/svg"
   xmlns="http://www.w3.org/2000/svg"
   viewBox="0 0 55 41.25"
   height="41.25"
   width="55"
   xml:space="preserve"
   version="1.1"
   id="svg2"><metadata
     id="metadata8"><rdf:RDF><cc:Work
         rdf:about=""><dc:format>image/svg+xml</dc:format><dc:type
           rdf:resource="http://purl.org/dc/dcmitype/StillImage" /></cc:Work></rdf:RDF></metadata><defs
     id="defs6" /><g
     transform="matrix(1.25,0,0,-1.25,0,41.25)"
     id="g10"><g
       transform="scale(0.1,0.1)"
       id="g12"><path
         id="path14"
         style="fill:#087bbb;fill-opacity:1;fill-rule:nonzero;stroke:none"
         d="m 5.66016,16.4805 381.48,0 0,250.621 -381.48,0 0,-250.621 z" /><path
         id="path16"
         style="fill:none;stroke:#ffffff;stroke-width:4;stroke-linecap:butt;stroke-linejoin:miter;stroke-miterlimit:4;stroke-dasharray:none;stroke-opacity:1"
         d="m 5.66016,16.4766 381.48,0 0,250.621 -381.48,0 0,-250.621 z" /><path
         id="path18"
         style="fill:#087bbb;fill-opacity:1;fill-rule:nonzero;stroke:none"
         d="m 431.02,80.6484 -43.872,-64.1796 0,250.6332 43.872,53.199 0,-239.6526" /><path
         id="path20"
         style="fill:none;stroke:#ffffff;stroke-width:4;stroke-linecap:butt;stroke-linejoin:miter;stroke-miterlimit:4;stroke-dasharray:none;stroke-opacity:1"
         d="m 431.02,80.6563 -43.872,-64.1797 0,250.6214 43.872,53.199 0,-239.6407 z" /><path
         id="path22"
         style="fill:#087bbb;fill-opacity:1;fill-rule:nonzero;stroke:none"
         d="m 71.4805,320.301 359.5395,0 -43.872,-53.199 -381.48784,0 65.82034,53.199" /><path
         id="path24"
         style="fill:none;stroke:#ffffff;stroke-width:4;stroke-linecap:butt;stroke-linejoin:miter;stroke-miterlimit:4;stroke-dasharray:none;stroke-opacity:1"
         d="m 71.4805,320.297 359.5395,0 -43.872,-53.199 -381.48784,0 65.82034,53.199 z" /><path
         id="path26"
         style="fill:#ffffff;fill-opacity:1;fill-rule:nonzero;stroke:none"
         d="m 317.461,144.789 44.418,0.039 0,-10.148 -44.418,-0.039 0,-15.86 -37.031,20.93 37.031,20.937 0,-15.859" /><path
         id="path28"
         style="fill:#ffffff;fill-opacity:1;fill-rule:nonzero;stroke:none"
         d="m 343.98,135.809 -44.371,-0.039 0,10.16 44.371,0.031 0.04,15.82 37,-20.929 -37,-20.942 -0.04,15.899" /><path
         id="path30"
         style="fill:#ffffff;fill-opacity:1;fill-rule:nonzero;stroke:none"
         d="m 266.25,140.34 -110.199,50.43 0,-100.8208 110.199,50.3908" /><path
         id="path32"
         style="fill:none;stroke:#ffffff;stroke-width:3.5999999;stroke-linecap:butt;stroke-linejoin:miter;stroke-miterlimit:4;stroke-dasharray:none;stroke-opacity:1"
         d="m 266.25,140.336 -110.199,50.43 0,-100.8207 110.199,50.3907 z" /><path
         id="path34"
         style="fill:#ffffff;fill-opacity:1;fill-rule:nonzero;stroke:none"
         d="m 101.91,138.391 0,-14.219 33.129,18.75 -33.129,18.75 0,-14.223" /><path
         id="path36"
         style="fill:#ffffff;fill-opacity:1;fill-rule:nonzero;stroke:none"
         d="m 49.4492,138.461 57.1918,-0.031 0,9.101 -57.1918,0.039 -0.039,14.18 -33.1211,-18.75 33.1211,-18.75 0.039,14.211" /><path
         id="path38"
         style="fill:#ffffff;fill-opacity:1;fill-rule:nonzero;stroke:none"
         d="m 108.48,186.039 -8.128,-11.641 37.886,-3.628 -16.359,34.371 -8.207,-11.641" /><path
         id="path40"
         style="fill:#ffffff;fill-opacity:1;fill-rule:nonzero;stroke:none"
         d="m 65.5898,216.199 46.8322,-32.808 5.199,7.418 -46.8397,32.851 8.1289,11.641 -37.8907,3.629 16.3594,-34.328 8.2109,11.597" /><path
         id="path42"
         style="fill:#ffffff;fill-opacity:1;fill-rule:nonzero;stroke:none"
         d="m 108.48,98.4609 -8.128,11.6411 37.886,3.636 L 121.879,79.3984 113.672,91" /><path
         id="path44"
         style="fill:#ffffff;fill-opacity:1;fill-rule:nonzero;stroke:none"
         d="M 65.5898,68.3086 112.422,101.16 117.621,93.6992 70.7813,60.8516 78.9102,49.2109 41.0195,45.5703 57.3789,79.9492 65.5898,68.3086" /></g></g></svg>