<svg xmlns="http://www.w3.org/2000/svg" viewBox="0 0 46.25 31.25" height="31.25" width="46.25"><path d="M45.308 9.154v11.875L34.404 29.75h-22.66L.415 21.029V9.154" fill="#036998"/><path d="M45.308 9.154v11.875l-10.904 8.72h-22.66L.415 21.029V9.154" fill="none" stroke="#fff" stroke-width=".5"/><path d="M34.19.594H11.958L.415 9.154l11.329 8.721h22.66l10.904-8.721L34.19.594" fill="#036998"/><path d="M34.19.594H11.958L.415 9.154l11.329 8.72h22.66l10.904-8.72L34.19.594z" fill="none" stroke="#fff" stroke-width=".5"/><path d="M18.447 5.868l1.73 2.597-6.545 1.509 1.432-1.186-8.37-1.778 2.54-1.904 8.012 1.704 1.201-.942M27.651 12.161l-1.18-2.675 5.902-1.177-1.02.914 8.74 1.498-2.358 1.89-8.688-1.656-1.396 1.206M24.893 3.826l6.61-1.81.08 2.832-1.652-.313-3.227 2.675-3.077-.449 3.33-2.617-2.064-.318M20.86 15.179l-6.295 1.182-.234-2.91 1.807.39 3.467-2.959 3.066.518-3.7 3.228 1.889.55" fill="#fff"/><path d="M11.547 29.613V17.874M34.36 29.613V17.874" fill="none" stroke="#fff" stroke-width=".5"/></svg>