<?xml version="1.0" encoding="UTF-8" standalone="no"?>
<svg
   xmlns:dc="http://purl.org/dc/elements/1.1/"
   xmlns:cc="http://creativecommons.org/ns#"
   xmlns:rdf="http://www.w3.org/1999/02/22-rdf-syntax-ns#"
   xmlns:svg="http://www.w3.org/2000/svg"
   xmlns="http://www.w3.org/2000/svg"
   xmlns:sodipodi="http://sodipodi.sourceforge.net/DTD/sodipodi-0.dtd"
   xmlns:inkscape="http://www.inkscape.org/namespaces/inkscape"
   viewBox="0 0 45.71476 29.654755"
   height="29.654755"
   width="45.71476"
   xml:space="preserve"
   version="1.1"
   id="svg2"
   inkscape:version="0.91 r13725"
   sodipodi:docname="wavelengthrouter.svg"><sodipodi:namedview
     pagecolor="#ffffff"
     bordercolor="#666666"
     borderopacity="1"
     objecttolerance="10"
     gridtolerance="10"
     guidetolerance="10"
     inkscape:pageopacity="0"
     inkscape:pageshadow="2"
     inkscape:window-width="448"
     inkscape:window-height="438"
     id="namedview17"
     showgrid="false"
     inkscape:zoom="6.7815147"
     inkscape:cx="22.85641"
     inkscape:cy="14.824508"
     inkscape:window-x="0"
     inkscape:window-y="23"
     inkscape:window-maximized="0"
     inkscape:current-layer="svg2" /><metadata
     id="metadata8"><rdf:RDF><cc:Work
         rdf:about=""><dc:format>image/svg+xml</dc:format><dc:type
           rdf:resource="http://purl.org/dc/dcmitype/StillImage" /></cc:Work></rdf:RDF></metadata><defs
     id="defs6" /><g
     transform="matrix(1.25,0,0,-1.25,1.5954705e-4,29.655246)"
     id="g10"><g
       transform="scale(0.1,0.1)"
       id="g12"><path
         id="path14"
         style="fill:#036998;fill-opacity:1;fill-rule:nonzero;stroke:none"
         d="m 362.477,166.777 0,-94.9997 -87.247,-69.77339 -181.2691,0 -90.64449,69.77339 0,94.9997"
         inkscape:connector-curvature="0" /><path
         id="path16"
         style="fill:none;stroke:#ffffff;stroke-width:3.99993992;stroke-linecap:butt;stroke-linejoin:miter;stroke-miterlimit:4;stroke-dasharray:none;stroke-opacity:1"
         d="m 362.477,166.777 0,-94.9997 -87.247,-69.77339 -181.2691,0 -90.64449,69.77339 0,94.9997"
         inkscape:connector-curvature="0" /><path
         id="path18"
         style="fill:#036998;fill-opacity:1;fill-rule:nonzero;stroke:none"
         d="m 273.531,235.242 -177.8708,0 -92.34379,-68.465 90.64449,-69.7731 181.2691,0 87.247,69.7731 -88.946,68.465"
         inkscape:connector-curvature="0" /><path
         id="path20"
         style="fill:none;stroke:#ffffff;stroke-width:3.99993992;stroke-linecap:butt;stroke-linejoin:miter;stroke-miterlimit:4;stroke-dasharray:none;stroke-opacity:1"
         d="m 273.531,235.242 -177.8708,0 -92.34379,-68.465 90.64449,-69.7731 181.2691,0 87.247,69.7731 -88.946,68.465 z"
         inkscape:connector-curvature="0" /><path
         id="path22"
         style="fill:#ffffff;fill-opacity:1;fill-rule:nonzero;stroke:none"
         d="m 147.574,193.055 13.848,-20.762 -52.344,-12.098 11.445,9.52 -66.9722,14.211 20.3008,15.215 64.1134,-13.606 9.609,7.52"
         inkscape:connector-curvature="0" /><path
         id="path24"
         style="fill:#ffffff;fill-opacity:1;fill-rule:nonzero;stroke:none"
         d="m 221.227,142.703 -9.454,21.399 47.227,9.441 -8.195,-7.332 69.933,-11.992 -18.867,-15.117 -69.473,13.25 -11.171,-9.649"
         inkscape:connector-curvature="0" /><path
         id="path26"
         style="fill:#ffffff;fill-opacity:1;fill-rule:nonzero;stroke:none"
         d="m 199.156,209.395 52.891,14.48 0.625,-22.664 -13.223,2.519 -25.812,-21.406 -24.629,3.594 26.652,20.926 -16.504,2.551"
         inkscape:connector-curvature="0" /><path
         id="path28"
         style="fill:#ffffff;fill-opacity:1;fill-rule:nonzero;stroke:none"
         d="m 166.879,118.563 -50.359,-9.442 -1.875,23.289 14.472,-3.133 27.715,23.68 24.531,-4.168 -29.59,-25.82 15.106,-4.406"
         inkscape:connector-curvature="0" /><path
         id="path30"
         style="fill:none;stroke:#ffffff;stroke-width:3.99993992;stroke-linecap:butt;stroke-linejoin:miter;stroke-miterlimit:4;stroke-dasharray:none;stroke-opacity:1"
         d="m 92.3789,3.11328 0,93.89062"
         inkscape:connector-curvature="0" /><path
         id="path32"
         style="fill:none;stroke:#ffffff;stroke-width:3.99993992;stroke-linecap:butt;stroke-linejoin:miter;stroke-miterlimit:4;stroke-dasharray:none;stroke-opacity:1"
         d="m 274.879,3.11328 0,93.89062"
         inkscape:connector-curvature="0" /></g></g></svg>