<?xml version="1.0" encoding="UTF-8" standalone="no"?>
<svg
   xmlns:dc="http://purl.org/dc/elements/1.1/"
   xmlns:cc="http://creativecommons.org/ns#"
   xmlns:rdf="http://www.w3.org/1999/02/22-rdf-syntax-ns#"
   xmlns:svg="http://www.w3.org/2000/svg"
   xmlns="http://www.w3.org/2000/svg"
   viewBox="0 0 46.25 31.25"
   height="31.25"
   width="46.25"
   xml:space="preserve"
   version="1.1"
   id="svg2"><metadata
     id="metadata8"><rdf:RDF><cc:Work
         rdf:about=""><dc:format>image/svg+xml</dc:format><dc:type
           rdf:resource="http://purl.org/dc/dcmitype/StillImage" /></cc:Work></rdf:RDF></metadata><defs
     id="defs6" /><g
     transform="matrix(1.25,0,0,-1.25,0,31.25)"
     id="g10"><g
       transform="scale(0.1,0.1)"
       id="g12"><path
         id="path14"
         style="fill:#036998;fill-opacity:1;fill-rule:nonzero;stroke:none"
         d="m 362.461,176.77 0,-95.0005 L 275.23,12 93.9492,12 3.32031,81.7695 l 0,95.0005" /><path
         id="path16"
         style="fill:none;stroke:#ffffff;stroke-width:3.99993992;stroke-linecap:butt;stroke-linejoin:miter;stroke-miterlimit:4;stroke-dasharray:none;stroke-opacity:1"
         d="m 362.461,176.77 0,-95.0005 -87.231,-69.7617 -181.2808,0 -90.62889,69.7617 0,95.0005" /><path
         id="path18"
         style="fill:#036998;fill-opacity:1;fill-rule:nonzero;stroke:none"
         d="m 273.52,245.25 -177.8598,0 L 3.32031,176.77 93.9492,107 l 181.2808,0 87.231,69.77 -88.941,68.48" /><path
         id="path20"
         style="fill:none;stroke:#ffffff;stroke-width:3.99993992;stroke-linecap:butt;stroke-linejoin:miter;stroke-miterlimit:4;stroke-dasharray:none;stroke-opacity:1"
         d="m 273.52,245.246 -177.8598,0 -92.33989,-68.476 90.62889,-69.762 181.2808,0 87.231,69.762 -88.941,68.476 z" /><path
         id="path22"
         style="fill:#ffffff;fill-opacity:1;fill-rule:nonzero;stroke:none"
         d="m 147.578,203.059 13.832,-20.778 -52.351,-12.07 11.453,9.488 -66.9612,14.223 20.3203,15.226 64.0979,-13.628 9.609,7.539" /><path
         id="path24"
         style="fill:#ffffff;fill-opacity:1;fill-rule:nonzero;stroke:none"
         d="m 221.211,152.711 -9.449,21.398 47.218,9.422 -8.16,-7.312 69.918,-11.989 -18.859,-15.121 -69.5,13.25 -11.168,-9.648" /><path
         id="path26"
         style="fill:#ffffff;fill-opacity:1;fill-rule:nonzero;stroke:none"
         d="m 199.141,219.391 52.89,14.488 0.629,-22.66 -13.211,2.5 -25.82,-21.399 -24.609,3.59 26.64,20.942 -16.519,2.539" /><path
         id="path28"
         style="fill:#ffffff;fill-opacity:1;fill-rule:nonzero;stroke:none"
         d="m 166.879,128.57 -50.359,-9.461 -1.872,23.282 14.454,-3.121 27.738,23.671 24.531,-4.14 -29.609,-25.821 15.117,-4.41" /><path
         id="path30"
         style="fill:none;stroke:#ffffff;stroke-width:3.99993992;stroke-linecap:butt;stroke-linejoin:miter;stroke-miterlimit:4;stroke-dasharray:none;stroke-opacity:1"
         d="m 92.3789,13.0977 0,93.9103" /><path
         id="path32"
         style="fill:none;stroke:#ffffff;stroke-width:3.99993992;stroke-linecap:butt;stroke-linejoin:miter;stroke-miterlimit:4;stroke-dasharray:none;stroke-opacity:1"
         d="m 274.879,13.0977 0,93.9103" /></g></g></svg>