<?xml version="1.0" encoding="UTF-8" standalone="no"?>
<svg
   xmlns:dc="http://purl.org/dc/elements/1.1/"
   xmlns:cc="http://creativecommons.org/ns#"
   xmlns:rdf="http://www.w3.org/1999/02/22-rdf-syntax-ns#"
   xmlns:svg="http://www.w3.org/2000/svg"
   xmlns="http://www.w3.org/2000/svg"
   viewBox="0 0 37.862499 39.337502"
   height="39.337502"
   width="37.862499"
   xml:space="preserve"
   version="1.1"
   id="svg2"><metadata
     id="metadata8"><rdf:RDF><cc:Work
         rdf:about=""><dc:format>image/svg+xml</dc:format><dc:type
           rdf:resource="http://purl.org/dc/dcmitype/StillImage" /></cc:Work></rdf:RDF></metadata><defs
     id="defs6"><clipPath
       id="clipPath18"
       clipPathUnits="userSpaceOnUse"><path
         id="path20"
         d="m 0,4.69531 300,0 0,310 -300,0 0,-310 z" /></clipPath></defs><g
     transform="matrix(1.25,0,0,-1.25,0,39.3375)"
     id="g10"><g
       transform="scale(0.1,0.1)"
       id="g12"><g
         id="g14"><g
           clip-path="url(#clipPath18)"
           id="g16"><path
             id="path22"
             style="fill:#036998;fill-opacity:1;fill-rule:nonzero;stroke:none"
             d="m 41.7695,62.1875 3.75,44.8045 219.0975,0 -3.75,-44.8045 -219.0975,0" /><path
             id="path24"
             style="fill:none;stroke:#ffffff;stroke-width:3.99993992;stroke-linecap:butt;stroke-linejoin:miter;stroke-miterlimit:4;stroke-dasharray:none;stroke-opacity:1"
             d="m 41.7695,62.1875 3.75,44.8045 219.0975,0 -3.75,-44.8045 -219.0975,0 z" /><path
             id="path26"
             style="fill:#036998;fill-opacity:1;fill-rule:nonzero;stroke:none"
             d="m 255.813,4.82422 0,13.08598 28.589,39.7265 0,-24.2187 -28.589,-28.59378" /><path
             id="path28"
             style="fill:none;stroke:#ffffff;stroke-width:3.99993992;stroke-linecap:butt;stroke-linejoin:miter;stroke-miterlimit:4;stroke-dasharray:none;stroke-opacity:1"
             d="m 255.813,4.82422 0,13.08598 28.589,39.7265 0,-24.2187 -28.589,-28.59378 z" /><path
             id="path30"
             style="fill:#036998;fill-opacity:1;fill-rule:nonzero;stroke:none"
             d="m 3.94531,4.82422 251.867,0 0,13.0859 -251.867,0 0,-13.0859 z" /><path
             id="path32"
             style="fill:none;stroke:#ffffff;stroke-width:3.99993992;stroke-linecap:butt;stroke-linejoin:miter;stroke-miterlimit:4;stroke-dasharray:none;stroke-opacity:1"
             d="m 3.94531,4.82422 251.867,0 0,13.0859 -251.867,0 0,-13.0859 z" /><path
             id="path34"
             style="fill:#036998;fill-opacity:1;fill-rule:nonzero;stroke:none"
             d="m 43.2148,107.949 217.613,0 0,164.656 -217.613,0 0,-164.656 z" /><path
             id="path36"
             style="fill:none;stroke:#ffffff;stroke-width:3.99993992;stroke-linecap:butt;stroke-linejoin:miter;stroke-miterlimit:4;stroke-dasharray:none;stroke-opacity:1"
             d="m 43.2148,107.949 217.613,0 0,164.656 -217.613,0 0,-164.656 z" /><path
             id="path38"
             style="fill:#036998;fill-opacity:1;fill-rule:nonzero;stroke:none"
             d="m 260.828,107.949 37.27,37.266 0,164.652 -37.27,-37.262 0,-164.656" /><path
             id="path40"
             style="fill:none;stroke:#ffffff;stroke-width:3.99993992;stroke-linecap:butt;stroke-linejoin:miter;stroke-miterlimit:4;stroke-dasharray:none;stroke-opacity:1"
             d="m 260.828,107.949 37.27,37.266 0,164.652 -37.27,-37.262 0,-164.656 z" /><path
             id="path42"
             style="fill:#036998;fill-opacity:1;fill-rule:nonzero;stroke:none"
             d="m 255.813,17.9102 -251.86769,0 29.14059,39.7265 251.3161,0 -28.589,-39.7265" /><path
             id="path44"
             style="fill:none;stroke:#ffffff;stroke-width:3.99993992;stroke-linecap:butt;stroke-linejoin:miter;stroke-miterlimit:4;stroke-dasharray:none;stroke-opacity:1"
             d="m 255.813,17.9102 -251.86769,0 29.14059,39.7265 251.3161,0 -28.589,-39.7265 z" /><path
             id="path46"
             style="fill:#036998;fill-opacity:1;fill-rule:nonzero;stroke:none"
             d="m 262.141,57.3906 0,51.5354 37.019,36.777 0,-51.2889 -37.019,-37.0235" /><path
             id="path48"
             style="fill:none;stroke:#ffffff;stroke-width:3.99993992;stroke-linecap:butt;stroke-linejoin:miter;stroke-miterlimit:4;stroke-dasharray:none;stroke-opacity:1"
             d="m 262.141,57.3906 0,51.5354 37.019,36.777 0,-51.2889 -37.019,-37.0235 z" /><path
             id="path50"
             style="fill:#ffffff;fill-opacity:1;fill-rule:nonzero;stroke:none"
             d="m 78.6914,253.637 145.9496,0 c 9.492,0 17.183,-7.699 17.183,-17.192 l 0,-92.207 c 0,-9.492 -7.691,-17.199 -17.183,-17.199 l -145.9496,0 c -9.5,0 -17.1992,7.707 -17.1992,17.199 l 0,92.207 c 0,9.493 7.6992,17.192 17.1992,17.192" /><path
             id="path52"
             style="fill:#036998;fill-opacity:1;fill-rule:nonzero;stroke:none"
             d="m 298.098,309.867 -212.4261,0 -42.4571,-37.262 217.6132,0 37.27,37.262" /><path
             id="path54"
             style="fill:none;stroke:#ffffff;stroke-width:3.99993992;stroke-linecap:butt;stroke-linejoin:miter;stroke-miterlimit:4;stroke-dasharray:none;stroke-opacity:1"
             d="m 298.098,309.867 -212.4261,0 -42.4571,-37.262 217.6132,0 37.27,37.262 z" /><path
             id="path56"
             style="fill:#036998;fill-opacity:1;fill-rule:nonzero;stroke:none"
             d="m 126.211,224.004 c -26.6797,5.32 -40.7618,-8.34 -38.5469,-20.156 l 0.1875,-0.645 c -20.793,-3.535 -15.3399,-28.066 -5.3633,-28.066 l 0.9805,0.027 c -2.3243,-16.922 22.6762,-26.922 35.3322,-17.402 l 0.879,0.957 c 3.965,-16.102 57.715,-17.352 68.55,-5.301 l 0.981,-0.293 c 23.531,-1.887 34.258,14.375 29.117,26.055 l 1.274,0.351 c 8.015,2.129 8.945,20.653 -4.829,23.399 l 0.266,0.711 c 5.984,12.062 -8.113,23.429 -27.684,21.281 l -1.359,0.711 c -13.992,12.683 -54.308,10.617 -58.976,-1.922 l -0.809,0.293" /><path
             id="path58"
             style="fill:none;stroke:#ffffff;stroke-width:3.99993992;stroke-linecap:butt;stroke-linejoin:miter;stroke-miterlimit:4;stroke-dasharray:none;stroke-opacity:1"
             d="m 126.211,224.004 c -26.6797,5.32 -40.7618,-8.34 -38.5469,-20.156 l 0.1875,-0.645 c -20.793,-3.535 -15.3399,-28.066 -5.3633,-28.066 l 0.9805,0.027 c -2.3243,-16.922 22.6762,-26.922 35.3322,-17.402 l 0.879,0.957 c 3.965,-16.102 57.715,-17.352 68.55,-5.301 l 0.981,-0.293 c 23.531,-1.887 34.258,14.375 29.117,26.055 l 1.274,0.351 c 8.015,2.129 8.945,20.653 -4.829,23.399 l 0.266,0.711 c 5.984,12.062 -8.113,23.429 -27.684,21.281 l -1.359,0.711 c -13.992,12.683 -54.308,10.617 -58.976,-1.922 l -0.809,0.293 z" /></g></g></g></g></svg>