<?xml version="1.0" encoding="UTF-8" standalone="no"?>
<svg
   xmlns:dc="http://purl.org/dc/elements/1.1/"
   xmlns:cc="http://creativecommons.org/ns#"
   xmlns:rdf="http://www.w3.org/1999/02/22-rdf-syntax-ns#"
   xmlns:svg="http://www.w3.org/2000/svg"
   xmlns="http://www.w3.org/2000/svg"
   viewBox="0 0 37.5 40"
   height="40"
   width="37.5"
   xml:space="preserve"
   version="1.1"
   id="svg2"><metadata
     id="metadata8"><rdf:RDF><cc:Work
         rdf:about=""><dc:format>image/svg+xml</dc:format><dc:type
           rdf:resource="http://purl.org/dc/dcmitype/StillImage" /></cc:Work></rdf:RDF></metadata><defs
     id="defs6"><clipPath
       id="clipPath18"
       clipPathUnits="userSpaceOnUse"><path
         id="path20"
         d="m 0,10 300,0 0,310 L 0,320 0,10 Z" /></clipPath></defs><g
     transform="matrix(1.25,0,0,-1.25,0,40)"
     id="g10"><g
       transform="scale(0.1,0.1)"
       id="g12"><g
         id="g14"><g
           clip-path="url(#clipPath18)"
           id="g16"><path
             id="path22"
             style="fill:#036998;fill-opacity:1;fill-rule:nonzero;stroke:none"
             d="m 41.7617,67.5 3.75,44.801 219.0973,0 -3.75,-44.801 -219.0973,0" /><path
             id="path24"
             style="fill:none;stroke:#ffffff;stroke-width:3.99993992;stroke-linecap:butt;stroke-linejoin:miter;stroke-miterlimit:4;stroke-dasharray:none;stroke-opacity:1"
             d="m 41.7617,67.5 3.75,44.801 219.0973,0 -3.75,-44.801 -219.0973,0 z" /><path
             id="path26"
             style="fill:#036998;fill-opacity:1;fill-rule:nonzero;stroke:none"
             d="m 255.82,10.1211 0,13.0781 28.59,39.7305 0,-24.2188 -28.59,-28.5898" /><path
             id="path28"
             style="fill:none;stroke:#ffffff;stroke-width:3.99993992;stroke-linecap:butt;stroke-linejoin:miter;stroke-miterlimit:4;stroke-dasharray:none;stroke-opacity:1"
             d="m 255.82,10.1211 0,13.0781 28.59,39.7305 0,-24.2188 -28.59,-28.5898 z" /><path
             id="path30"
             style="fill:#036998;fill-opacity:1;fill-rule:nonzero;stroke:none"
             d="m 3.94922,10.1094 251.879,0 0,13.0898 -251.879,0 0,-13.0898 z" /><path
             id="path32"
             style="fill:none;stroke:#ffffff;stroke-width:3.99993992;stroke-linecap:butt;stroke-linejoin:miter;stroke-miterlimit:4;stroke-dasharray:none;stroke-opacity:1"
             d="m 3.94922,10.1094 251.879,0 0,13.0898 -251.879,0 0,-13.0898 z" /><path
             id="path34"
             style="fill:#036998;fill-opacity:1;fill-rule:nonzero;stroke:none"
             d="m 43.1992,113.238 217.621,0 0,164.691 -217.621,0 0,-164.691 z" /><path
             id="path36"
             style="fill:none;stroke:#ffffff;stroke-width:3.99993992;stroke-linecap:butt;stroke-linejoin:miter;stroke-miterlimit:4;stroke-dasharray:none;stroke-opacity:1"
             d="m 43.1992,113.238 217.621,0 0,164.691 -217.621,0 0,-164.691 z" /><path
             id="path38"
             style="fill:#036998;fill-opacity:1;fill-rule:nonzero;stroke:none"
             d="m 260.82,113.238 37.27,37.27 0,164.652 -37.27,-37.23 0,-164.692" /><path
             id="path40"
             style="fill:none;stroke:#ffffff;stroke-width:3.99993992;stroke-linecap:butt;stroke-linejoin:miter;stroke-miterlimit:4;stroke-dasharray:none;stroke-opacity:1"
             d="m 260.82,113.238 37.27,37.27 0,164.652 -37.27,-37.23 0,-164.692 z" /><path
             id="path42"
             style="fill:#036998;fill-opacity:1;fill-rule:nonzero;stroke:none"
             d="m 255.82,23.1992 -251.87078,0 29.14058,39.7305 251.3202,0 -28.59,-39.7305" /><path
             id="path44"
             style="fill:none;stroke:#ffffff;stroke-width:3.99993992;stroke-linecap:butt;stroke-linejoin:miter;stroke-miterlimit:4;stroke-dasharray:none;stroke-opacity:1"
             d="m 255.82,23.1992 -251.87078,0 29.14058,39.7305 251.3202,0 -28.59,-39.7305 z" /><path
             id="path46"
             style="fill:#036998;fill-opacity:1;fill-rule:nonzero;stroke:none"
             d="m 262.148,62.6992 0,51.5198 36.993,36.801 0,-51.2895 -36.993,-37.0313" /><path
             id="path48"
             style="fill:none;stroke:#ffffff;stroke-width:3.99993992;stroke-linecap:butt;stroke-linejoin:miter;stroke-miterlimit:4;stroke-dasharray:none;stroke-opacity:1"
             d="m 262.148,62.6992 0,51.5198 36.993,36.801 0,-51.2895 -36.993,-37.0313 z" /><path
             id="path50"
             style="fill:#ffffff;fill-opacity:1;fill-rule:nonzero;stroke:none"
             d="m 78.6719,258.949 145.9761,0 c 9.493,0 17.192,-7.699 17.192,-17.191 l 0,-92.227 c 0,-9.492 -7.699,-17.191 -17.192,-17.191 l -145.9761,0 c -9.4922,0 -17.1914,7.699 -17.1914,17.191 l 0,92.227 c 0,9.492 7.6992,17.191 17.1914,17.191" /><path
             id="path52"
             style="fill:#036998;fill-opacity:1;fill-rule:nonzero;stroke:none"
             d="m 298.09,315.16 -212.4298,0 -42.461,-37.23 217.6208,0 37.27,37.23" /><path
             id="path54"
             style="fill:none;stroke:#ffffff;stroke-width:3.99993992;stroke-linecap:butt;stroke-linejoin:miter;stroke-miterlimit:4;stroke-dasharray:none;stroke-opacity:1"
             d="m 298.09,315.16 -212.4298,0 -42.461,-37.23 217.6208,0 37.27,37.23 z" /><path
             id="path56"
             style="fill:#036998;fill-opacity:1;fill-rule:nonzero;stroke:none"
             d="m 126.211,229.301 c -26.6797,5.347 -40.7813,-8.321 -38.5508,-20.16 l 0.1914,-0.621 C 67.0703,204.961 72.5,180.43 82.5,180.43 l 0.9805,0.039 C 81.1289,163.551 106.129,153.551 118.789,163.09 l 0.902,0.93 c 3.938,-16.09 57.688,-17.34 68.547,-5.309 l 0.981,-0.273 c 23.511,-1.879 34.261,14.371 29.101,26.05 l 1.289,0.352 c 8.012,2.109 8.942,20.668 -4.839,23.398 l 0.269,0.711 c 5.981,12.071 -8.129,23.43 -27.699,21.281 l -1.36,0.708 c -13.992,12.691 -54.3,10.621 -58.949,-1.918 l -0.82,0.281" /><path
             id="path58"
             style="fill:none;stroke:#ffffff;stroke-width:3.99993992;stroke-linecap:butt;stroke-linejoin:miter;stroke-miterlimit:4;stroke-dasharray:none;stroke-opacity:1"
             d="m 126.211,229.301 c -26.6797,5.347 -40.7813,-8.321 -38.5508,-20.16 l 0.1914,-0.621 C 67.0703,204.961 72.5,180.43 82.5,180.43 l 0.9805,0.039 C 81.1289,163.551 106.129,153.551 118.789,163.09 l 0.902,0.93 c 3.938,-16.09 57.688,-17.34 68.547,-5.309 l 0.981,-0.273 c 23.511,-1.879 34.261,14.371 29.101,26.05 l 1.289,0.352 c 8.012,2.109 8.942,20.668 -4.839,23.398 l 0.269,0.711 c 5.981,12.071 -8.129,23.43 -27.699,21.281 l -1.36,0.708 c -13.992,12.691 -54.3,10.621 -58.949,-1.918 l -0.82,0.281 z" /></g></g></g></g></svg>