<?xml version="1.0" encoding="UTF-8" standalone="no"?>
<svg
   xmlns:dc="http://purl.org/dc/elements/1.1/"
   xmlns:cc="http://creativecommons.org/ns#"
   xmlns:rdf="http://www.w3.org/1999/02/22-rdf-syntax-ns#"
   xmlns:svg="http://www.w3.org/2000/svg"
   xmlns="http://www.w3.org/2000/svg"
   viewBox="0 0 102.5 61.25"
   height="61.25"
   width="102.5"
   xml:space="preserve"
   version="1.1"
   id="svg2"><metadata
     id="metadata8"><rdf:RDF><cc:Work
         rdf:about=""><dc:format>image/svg+xml</dc:format><dc:type
           rdf:resource="http://purl.org/dc/dcmitype/StillImage" /></cc:Work></rdf:RDF></metadata><defs
     id="defs6"><clipPath
       id="clipPath18"
       clipPathUnits="userSpaceOnUse"><path
         id="path20"
         d="M 0,10 0,489 820,489 820,10 0,10 Z" /></clipPath></defs><g
     transform="matrix(1.25,0,0,-1.25,0,61.25)"
     id="g10"><g
       transform="scale(0.1,0.1)"
       id="g12"><g
         id="g14"><g
           clip-path="url(#clipPath18)"
           id="g16"><path
             id="path22"
             style="fill:#036998;fill-opacity:1;fill-rule:nonzero;stroke:none"
             d="m 511.371,142.609 -18.519,-26.398 -160.661,0 26.559,26.398 152.621,0" /><path
             id="path24"
             style="fill:none;stroke:#ffffff;stroke-width:3.99993992;stroke-linecap:butt;stroke-linejoin:miter;stroke-miterlimit:4;stroke-dasharray:none;stroke-opacity:1"
             d="m 511.371,142.609 -18.519,-26.398 -160.661,0 26.559,26.398 152.621,0 z" /><path
             id="path26"
             style="fill:#036998;fill-opacity:1;fill-rule:nonzero;stroke:none"
             d="m 332.191,87.5 153.398,0 0,28.7109 -153.398,0 0,-28.7109 z" /><path
             id="path28"
             style="fill:none;stroke:#ffffff;stroke-width:3.99993992;stroke-linecap:butt;stroke-linejoin:miter;stroke-miterlimit:4;stroke-dasharray:none;stroke-opacity:1"
             d="m 332.191,87.5 153.398,0 0,28.7109 -153.398,0 0,-28.7109 z" /><path
             id="path30"
             style="fill:#036998;fill-opacity:1;fill-rule:nonzero;stroke:none"
             d="m 481.02,50.3516 0,9.1797 20.031,27.7695 0,-16.9492 -20.031,-20" /><path
             id="path32"
             style="fill:none;stroke:#ffffff;stroke-width:3.99993992;stroke-linecap:butt;stroke-linejoin:miter;stroke-miterlimit:4;stroke-dasharray:none;stroke-opacity:1"
             d="m 481.02,50.3516 0,9.1797 20.031,27.7695 0,-16.9492 -20.031,-20 z" /><path
             id="path34"
             style="fill:#036998;fill-opacity:1;fill-rule:nonzero;stroke:none"
             d="m 304.73,50.3516 176.289,0 0,9.17969 -176.289,0 0,-9.17969 z" /><path
             id="path36"
             style="fill:none;stroke:#ffffff;stroke-width:3.99993992;stroke-linecap:butt;stroke-linejoin:miter;stroke-miterlimit:4;stroke-dasharray:none;stroke-opacity:1"
             d="m 304.73,50.3516 176.289,0 0,9.17969 -176.289,0 0,-9.17969 z" /><path
             id="path38"
             style="fill:#036998;fill-opacity:1;fill-rule:nonzero;stroke:none"
             d="m 332.191,122.539 152.34,0 0,115.27 -152.34,0 0,-115.27 z" /><path
             id="path40"
             style="fill:none;stroke:#ffffff;stroke-width:3.99993992;stroke-linecap:butt;stroke-linejoin:miter;stroke-miterlimit:4;stroke-dasharray:none;stroke-opacity:1"
             d="m 332.191,122.539 152.34,0 0,115.27 -152.34,0 0,-115.27 z" /><path
             id="path42"
             style="fill:#036998;fill-opacity:1;fill-rule:nonzero;stroke:none"
             d="m 484.531,122.531 26.09,26.098 0,115.23 -26.09,-26.05 0,-115.278" /><path
             id="path44"
             style="fill:none;stroke:#ffffff;stroke-width:3.99993992;stroke-linecap:butt;stroke-linejoin:miter;stroke-miterlimit:4;stroke-dasharray:none;stroke-opacity:1"
             d="m 484.531,122.531 26.09,26.098 0,115.23 -26.09,-26.05 0,-115.278 z" /><path
             id="path46"
             style="fill:#036998;fill-opacity:1;fill-rule:nonzero;stroke:none"
             d="m 481.02,59.5313 -176.29,0 20.391,27.7695 175.93,0 -20.031,-27.7695" /><path
             id="path48"
             style="fill:none;stroke:#ffffff;stroke-width:3.99993992;stroke-linecap:butt;stroke-linejoin:miter;stroke-miterlimit:4;stroke-dasharray:none;stroke-opacity:1"
             d="m 481.02,59.5313 -176.29,0 20.391,27.7695 175.93,0 -20.031,-27.7695 z" /><path
             id="path50"
             style="fill:#036998;fill-opacity:1;fill-rule:nonzero;stroke:none"
             d="m 485.43,87.418 0,28.793 25.941,25.738 0,-28.629 -25.941,-25.902" /><path
             id="path52"
             style="fill:none;stroke:#ffffff;stroke-width:3.99993992;stroke-linecap:butt;stroke-linejoin:miter;stroke-miterlimit:4;stroke-dasharray:none;stroke-opacity:1"
             d="m 485.43,87.418 0,28.793 25.941,25.738 0,-28.629 -25.941,-25.902 z" /><path
             id="path54"
             style="fill:#036998;fill-opacity:1;fill-rule:nonzero;stroke:none"
             d="m 357.031,224.531 102.149,0 c 6.679,0 12.07,-5.39 12.07,-12.031 l 0,-64.57 c 0,-6.649 -5.391,-12.039 -12.07,-12.039 l -102.149,0 c -6.64,0 -12.031,5.39 -12.031,12.039 l 0,64.57 c 0,6.641 5.391,12.031 12.031,12.031" /><path
             id="path56"
             style="fill:none;stroke:#ffffff;stroke-width:3.99993992;stroke-linecap:butt;stroke-linejoin:miter;stroke-miterlimit:4;stroke-dasharray:none;stroke-opacity:1"
             d="m 357.031,224.531 102.149,0 c 6.679,0 12.07,-5.39 12.07,-12.031 l 0,-64.57 c 0,-6.649 -5.391,-12.039 -12.07,-12.039 l -102.149,0 c -6.64,0 -12.031,5.39 -12.031,12.039 l 0,64.57 c 0,6.641 5.391,12.031 12.031,12.031 z" /><path
             id="path58"
             style="fill:#036998;fill-opacity:1;fill-rule:nonzero;stroke:none"
             d="m 510.621,263.859 -148.672,0 -29.758,-26.05 152.34,0 26.09,26.05" /><path
             id="path60"
             style="fill:none;stroke:#ffffff;stroke-width:3.99993992;stroke-linecap:butt;stroke-linejoin:miter;stroke-miterlimit:4;stroke-dasharray:none;stroke-opacity:1"
             d="m 510.621,263.859 -148.672,0 -29.758,-26.05 152.34,0 26.09,26.05 z" /><path
             id="path62"
             style="fill:#ffffff;fill-opacity:1;fill-rule:nonzero;stroke:none"
             d="M 395.309,203.781 C 376.641,207.5 366.762,197.93 368.32,189.68 l 0.121,-0.469 C 353.91,186.75 357.73,169.57 364.691,169.57 l 0.7,0.032 c -1.641,-11.872 15.859,-18.864 24.73,-12.184 l 0.617,0.66 c 2.782,-11.289 40.391,-12.148 47.973,-3.707 l 0.699,-0.191 c 16.488,-1.328 23.988,10.031 20.36,18.199 l 0.89,0.269 c 5.629,1.493 6.289,14.454 -3.359,16.372 l 0.199,0.511 c 4.18,8.43 -5.699,16.399 -19.41,14.879 l -0.942,0.508 c -9.808,8.863 -38.007,7.422 -41.289,-1.367 l -0.55,0.23" /><path
             id="path64"
             style="fill:#036998;fill-opacity:1;fill-rule:nonzero;stroke:none"
             d="m 741.371,272.609 -18.519,-26.398 -160.661,0 26.559,26.398 152.621,0" /><path
             id="path66"
             style="fill:none;stroke:#ffffff;stroke-width:3.99993992;stroke-linecap:butt;stroke-linejoin:miter;stroke-miterlimit:4;stroke-dasharray:none;stroke-opacity:1"
             d="m 741.371,272.609 -18.519,-26.398 -160.661,0 26.559,26.398 152.621,0 z" /><path
             id="path68"
             style="fill:#036998;fill-opacity:1;fill-rule:nonzero;stroke:none"
             d="m 562.191,217.5 153.398,0 0,28.7109 -153.398,0 0,-28.7109 z" /><path
             id="path70"
             style="fill:none;stroke:#ffffff;stroke-width:3.99993992;stroke-linecap:butt;stroke-linejoin:miter;stroke-miterlimit:4;stroke-dasharray:none;stroke-opacity:1"
             d="m 562.191,217.5 153.398,0 0,28.7109 -153.398,0 0,-28.7109 z" /><path
             id="path72"
             style="fill:#036998;fill-opacity:1;fill-rule:nonzero;stroke:none"
             d="m 711.02,180.352 0,9.179 20.031,27.77 0,-16.949 -20.031,-20" /><path
             id="path74"
             style="fill:none;stroke:#ffffff;stroke-width:3.99993992;stroke-linecap:butt;stroke-linejoin:miter;stroke-miterlimit:4;stroke-dasharray:none;stroke-opacity:1"
             d="m 711.02,180.352 0,9.179 20.031,27.77 0,-16.949 -20.031,-20 z" /><path
             id="path76"
             style="fill:#036998;fill-opacity:1;fill-rule:nonzero;stroke:none"
             d="m 534.73,180.352 176.289,0 0,9.17969 -176.289,0 0,-9.17969 z" /><path
             id="path78"
             style="fill:none;stroke:#ffffff;stroke-width:3.99993992;stroke-linecap:butt;stroke-linejoin:miter;stroke-miterlimit:4;stroke-dasharray:none;stroke-opacity:1"
             d="m 534.73,180.352 176.289,0 0,9.17969 -176.289,0 0,-9.17969 z" /><path
             id="path80"
             style="fill:#036998;fill-opacity:1;fill-rule:nonzero;stroke:none"
             d="m 562.191,252.539 152.34,0 0,115.27 -152.34,0 0,-115.27 z" /><path
             id="path82"
             style="fill:none;stroke:#ffffff;stroke-width:3.99993992;stroke-linecap:butt;stroke-linejoin:miter;stroke-miterlimit:4;stroke-dasharray:none;stroke-opacity:1"
             d="m 562.191,252.539 152.34,0 0,115.27 -152.34,0 0,-115.27 z" /><path
             id="path84"
             style="fill:#036998;fill-opacity:1;fill-rule:nonzero;stroke:none"
             d="m 714.531,252.531 26.09,26.098 0,115.23 -26.09,-26.05 0,-115.278" /><path
             id="path86"
             style="fill:none;stroke:#ffffff;stroke-width:3.99993992;stroke-linecap:butt;stroke-linejoin:miter;stroke-miterlimit:4;stroke-dasharray:none;stroke-opacity:1"
             d="m 714.531,252.531 26.09,26.098 0,115.23 -26.09,-26.05 0,-115.278 z" /><path
             id="path88"
             style="fill:#036998;fill-opacity:1;fill-rule:nonzero;stroke:none"
             d="m 711.02,189.531 -176.29,0 20.391,27.77 175.93,0 -20.031,-27.77" /><path
             id="path90"
             style="fill:none;stroke:#ffffff;stroke-width:3.99993992;stroke-linecap:butt;stroke-linejoin:miter;stroke-miterlimit:4;stroke-dasharray:none;stroke-opacity:1"
             d="m 711.02,189.531 -176.29,0 20.391,27.77 175.93,0 -20.031,-27.77 z" /><path
             id="path92"
             style="fill:#036998;fill-opacity:1;fill-rule:nonzero;stroke:none"
             d="m 715.43,217.418 0,28.793 25.941,25.738 0,-28.629 -25.941,-25.902" /><path
             id="path94"
             style="fill:none;stroke:#ffffff;stroke-width:3.99993992;stroke-linecap:butt;stroke-linejoin:miter;stroke-miterlimit:4;stroke-dasharray:none;stroke-opacity:1"
             d="m 715.43,217.418 0,28.793 25.941,25.738 0,-28.629 -25.941,-25.902 z" /><path
             id="path96"
             style="fill:#036998;fill-opacity:1;fill-rule:nonzero;stroke:none"
             d="m 587.031,354.531 102.149,0 c 6.679,0 12.07,-5.39 12.07,-12.031 l 0,-64.57 c 0,-6.649 -5.391,-12.039 -12.07,-12.039 l -102.149,0 c -6.64,0 -12.031,5.39 -12.031,12.039 l 0,64.57 c 0,6.641 5.391,12.031 12.031,12.031" /><path
             id="path98"
             style="fill:none;stroke:#ffffff;stroke-width:3.99993992;stroke-linecap:butt;stroke-linejoin:miter;stroke-miterlimit:4;stroke-dasharray:none;stroke-opacity:1"
             d="m 587.031,354.531 102.149,0 c 6.679,0 12.07,-5.39 12.07,-12.031 l 0,-64.57 c 0,-6.649 -5.391,-12.039 -12.07,-12.039 l -102.149,0 c -6.64,0 -12.031,5.39 -12.031,12.039 l 0,64.57 c 0,6.641 5.391,12.031 12.031,12.031 z" /><path
             id="path100"
             style="fill:#036998;fill-opacity:1;fill-rule:nonzero;stroke:none"
             d="m 740.621,393.859 -148.672,0 -29.758,-26.05 152.34,0 26.09,26.05" /><path
             id="path102"
             style="fill:none;stroke:#ffffff;stroke-width:3.99993992;stroke-linecap:butt;stroke-linejoin:miter;stroke-miterlimit:4;stroke-dasharray:none;stroke-opacity:1"
             d="m 740.621,393.859 -148.672,0 -29.758,-26.05 152.34,0 26.09,26.05 z" /><path
             id="path104"
             style="fill:#ffffff;fill-opacity:1;fill-rule:nonzero;stroke:none"
             d="M 625.309,333.781 C 606.641,337.5 596.762,327.93 598.32,319.68 l 0.121,-0.469 C 583.91,316.75 587.73,299.57 594.691,299.57 l 0.7,0.032 c -1.641,-11.872 15.859,-18.864 24.73,-12.184 l 0.617,0.66 c 2.782,-11.289 40.391,-12.148 47.973,-3.707 l 0.699,-0.191 c 16.488,-1.328 23.988,10.031 20.36,18.199 l 0.89,0.269 c 5.629,1.493 6.289,14.454 -3.359,16.372 l 0.199,0.511 c 4.18,8.43 -5.699,16.399 -19.41,14.879 l -0.942,0.508 c -9.808,8.863 -38.007,7.422 -41.289,-1.367 l -0.55,0.23" /><path
             id="path106"
             style="fill:#036998;fill-opacity:1;fill-rule:nonzero;stroke:none"
             d="m 296.371,282.609 -18.519,-26.398 -160.661,0 26.559,26.398 152.621,0" /><path
             id="path108"
             style="fill:none;stroke:#ffffff;stroke-width:3.99993992;stroke-linecap:butt;stroke-linejoin:miter;stroke-miterlimit:4;stroke-dasharray:none;stroke-opacity:1"
             d="m 296.371,282.609 -18.519,-26.398 -160.661,0 26.559,26.398 152.621,0 z" /><path
             id="path110"
             style="fill:#036998;fill-opacity:1;fill-rule:nonzero;stroke:none"
             d="m 117.191,227.5 153.398,0 0,28.7109 -153.398,0 0,-28.7109 z" /><path
             id="path112"
             style="fill:none;stroke:#ffffff;stroke-width:3.99993992;stroke-linecap:butt;stroke-linejoin:miter;stroke-miterlimit:4;stroke-dasharray:none;stroke-opacity:1"
             d="m 117.191,227.5 153.398,0 0,28.7109 -153.398,0 0,-28.7109 z" /><path
             id="path114"
             style="fill:#036998;fill-opacity:1;fill-rule:nonzero;stroke:none"
             d="m 266.02,190.352 0,9.179 20.031,27.77 0,-16.949 -20.031,-20" /><path
             id="path116"
             style="fill:none;stroke:#ffffff;stroke-width:3.99993992;stroke-linecap:butt;stroke-linejoin:miter;stroke-miterlimit:4;stroke-dasharray:none;stroke-opacity:1"
             d="m 266.02,190.352 0,9.179 20.031,27.77 0,-16.949 -20.031,-20 z" /><path
             id="path118"
             style="fill:#036998;fill-opacity:1;fill-rule:nonzero;stroke:none"
             d="m 89.7305,190.352 176.289,0 0,9.17969 -176.289,0 0,-9.17969 z" /><path
             id="path120"
             style="fill:none;stroke:#ffffff;stroke-width:3.99993992;stroke-linecap:butt;stroke-linejoin:miter;stroke-miterlimit:4;stroke-dasharray:none;stroke-opacity:1"
             d="m 89.7305,190.352 176.289,0 0,9.17969 -176.289,0 0,-9.17969 z" /><path
             id="path122"
             style="fill:#036998;fill-opacity:1;fill-rule:nonzero;stroke:none"
             d="m 117.191,262.539 152.34,0 0,115.27 -152.34,0 0,-115.27 z" /><path
             id="path124"
             style="fill:none;stroke:#ffffff;stroke-width:3.99993992;stroke-linecap:butt;stroke-linejoin:miter;stroke-miterlimit:4;stroke-dasharray:none;stroke-opacity:1"
             d="m 117.191,262.539 152.34,0 0,115.27 -152.34,0 0,-115.27 z" /><path
             id="path126"
             style="fill:#036998;fill-opacity:1;fill-rule:nonzero;stroke:none"
             d="m 269.531,262.531 26.09,26.098 0,115.23 -26.09,-26.05 0,-115.278" /><path
             id="path128"
             style="fill:none;stroke:#ffffff;stroke-width:3.99993992;stroke-linecap:butt;stroke-linejoin:miter;stroke-miterlimit:4;stroke-dasharray:none;stroke-opacity:1"
             d="m 269.531,262.531 26.09,26.098 0,115.23 -26.09,-26.05 0,-115.278 z" /><path
             id="path130"
             style="fill:#036998;fill-opacity:1;fill-rule:nonzero;stroke:none"
             d="m 266.02,199.531 -176.2895,0 20.3905,27.77 175.93,0 -20.031,-27.77" /><path
             id="path132"
             style="fill:none;stroke:#ffffff;stroke-width:3.99993992;stroke-linecap:butt;stroke-linejoin:miter;stroke-miterlimit:4;stroke-dasharray:none;stroke-opacity:1"
             d="m 266.02,199.531 -176.2895,0 20.3905,27.77 175.93,0 -20.031,-27.77 z" /><path
             id="path134"
             style="fill:#036998;fill-opacity:1;fill-rule:nonzero;stroke:none"
             d="m 270.43,227.418 0,28.793 25.941,25.738 0,-28.629 -25.941,-25.902" /><path
             id="path136"
             style="fill:none;stroke:#ffffff;stroke-width:3.99993992;stroke-linecap:butt;stroke-linejoin:miter;stroke-miterlimit:4;stroke-dasharray:none;stroke-opacity:1"
             d="m 270.43,227.418 0,28.793 25.941,25.738 0,-28.629 -25.941,-25.902 z" /><path
             id="path138"
             style="fill:#036998;fill-opacity:1;fill-rule:nonzero;stroke:none"
             d="m 142.031,364.531 102.149,0 c 6.679,0 12.07,-5.39 12.07,-12.031 l 0,-64.57 c 0,-6.649 -5.391,-12.039 -12.07,-12.039 l -102.149,0 c -6.64,0 -12.031,5.39 -12.031,12.039 l 0,64.57 c 0,6.641 5.391,12.031 12.031,12.031" /><path
             id="path140"
             style="fill:none;stroke:#ffffff;stroke-width:3.99993992;stroke-linecap:butt;stroke-linejoin:miter;stroke-miterlimit:4;stroke-dasharray:none;stroke-opacity:1"
             d="m 142.031,364.531 102.149,0 c 6.679,0 12.07,-5.39 12.07,-12.031 l 0,-64.57 c 0,-6.649 -5.391,-12.039 -12.07,-12.039 l -102.149,0 c -6.64,0 -12.031,5.39 -12.031,12.039 l 0,64.57 c 0,6.641 5.391,12.031 12.031,12.031 z" /><path
             id="path142"
             style="fill:#036998;fill-opacity:1;fill-rule:nonzero;stroke:none"
             d="m 295.621,403.859 -148.672,0 -29.758,-26.05 152.34,0 26.09,26.05" /><path
             id="path144"
             style="fill:none;stroke:#ffffff;stroke-width:3.99993992;stroke-linecap:butt;stroke-linejoin:miter;stroke-miterlimit:4;stroke-dasharray:none;stroke-opacity:1"
             d="m 295.621,403.859 -148.672,0 -29.758,-26.05 152.34,0 26.09,26.05 z" /><path
             id="path146"
             style="fill:#ffffff;fill-opacity:1;fill-rule:nonzero;stroke:none"
             d="M 175.309,343.781 C 156.641,347.5 146.762,337.93 148.32,329.68 l 0.121,-0.469 C 133.91,326.75 137.73,309.57 144.691,309.57 l 0.7,0.032 c -1.641,-11.872 15.859,-18.864 24.73,-12.184 l 0.617,0.66 c 2.782,-11.289 40.391,-12.148 47.973,-3.707 l 0.699,-0.191 c 16.488,-1.328 23.988,10.031 20.36,18.199 l 0.89,0.269 c 5.629,1.493 6.289,14.454 -3.359,16.372 l 0.199,0.511 c 4.18,8.43 -5.699,16.399 -19.41,14.879 l -0.942,0.508 c -9.808,8.863 -38.007,7.422 -41.289,-1.367 l -0.55,0.23" /><path
             id="path148"
             style="fill:none;stroke:#036998;stroke-width:3.99993992;stroke-linecap:butt;stroke-linejoin:miter;stroke-miterlimit:4;stroke-dasharray:none;stroke-opacity:1"
             d="m 285.781,431.988 c -144.019,28.75 -220.0427,-45 -208.0115,-108.75 L 78.75,319.762 C -33.4805,300.66 -4.05859,168.238 49.7695,168.238 l 5.3086,0.153 C 41.4805,106.211 172.66,42.8516 245.781,74.4883 l 4.688,5.1523 C 276.52,23.668 369.141,14.3281 460.781,11.9883 540.16,9.96094 586.48,16.25 620.512,51.0508 l 5.269,-1.5625 C 752.809,39.2891 810.699,127.07 782.93,190.07 l 6.84,1.918 c 43.32,11.442 48.32,111.442 -26.02,126.25 l 1.449,3.864 c 32.262,65.078 -43.828,126.41 -149.418,114.886 l -7.34,3.832 c -75.589,68.43 -293.132,57.258 -318.32,-10.39 l -4.34,1.558 z" /><path
             id="path150"
             style="fill:none;stroke:#036998;stroke-width:3.99993992;stroke-linecap:butt;stroke-linejoin:miter;stroke-miterlimit:4;stroke-dasharray:none;stroke-opacity:1"
             d="m 343.121,129.602 -95,63.359" /><path
             id="path152"
             style="fill:none;stroke:#036998;stroke-width:3.99993992;stroke-linecap:butt;stroke-linejoin:miter;stroke-miterlimit:4;stroke-dasharray:none;stroke-opacity:1"
             d="m 496.449,144.602 60,40" /><path
             id="path154"
             style="fill:none;stroke:#036998;stroke-width:3.99993992;stroke-linecap:butt;stroke-linejoin:miter;stroke-miterlimit:4;stroke-dasharray:none;stroke-opacity:1"
             d="m 284.801,339.602 283.32,0" /></g></g></g></g></svg>