<?xml version="1.0" encoding="UTF-8" standalone="no"?>
<svg
   xmlns:dc="http://purl.org/dc/elements/1.1/"
   xmlns:cc="http://creativecommons.org/ns#"
   xmlns:rdf="http://www.w3.org/1999/02/22-rdf-syntax-ns#"
   xmlns:svg="http://www.w3.org/2000/svg"
   xmlns="http://www.w3.org/2000/svg"
   viewBox="0 0 102.85 59.825001"
   height="59.825001"
   width="102.85"
   xml:space="preserve"
   version="1.1"
   id="svg2"><metadata
     id="metadata8"><rdf:RDF><cc:Work
         rdf:about=""><dc:format>image/svg+xml</dc:format><dc:type
           rdf:resource="http://purl.org/dc/dcmitype/StillImage" /></cc:Work></rdf:RDF></metadata><defs
     id="defs6"><clipPath
       id="clipPath18"
       clipPathUnits="userSpaceOnUse"><path
         id="path20"
         d="M 0,0 0,479 820,479 820,0 0,0 Z" /></clipPath></defs><g
     transform="matrix(1.25,0,0,-1.25,0,59.825)"
     id="g10"><g
       transform="scale(0.1,0.1)"
       id="g12"><g
         id="g14"><g
           clip-path="url(#clipPath18)"
           id="g16"><path
             id="path22"
             style="fill:#036998;fill-opacity:1;fill-rule:nonzero;stroke:none"
             d="m 511.367,132.598 -18.496,-26.387 -160.664,0 26.531,26.387 152.629,0" /><path
             id="path24"
             style="fill:none;stroke:#ffffff;stroke-width:3.99993992;stroke-linecap:butt;stroke-linejoin:miter;stroke-miterlimit:4;stroke-dasharray:none;stroke-opacity:1"
             d="m 511.367,132.598 -18.496,-26.387 -160.664,0 26.531,26.387 152.629,0 z" /><path
             id="path26"
             style="fill:#036998;fill-opacity:1;fill-rule:nonzero;stroke:none"
             d="m 332.207,77.4805 153.367,0 0,28.7305 -153.367,0 0,-28.7305 z" /><path
             id="path28"
             style="fill:none;stroke:#ffffff;stroke-width:3.99993992;stroke-linecap:butt;stroke-linejoin:miter;stroke-miterlimit:4;stroke-dasharray:none;stroke-opacity:1"
             d="m 332.207,77.4805 153.367,0 0,28.7305 -153.367,0 0,-28.7305 z" /><path
             id="path30"
             style="fill:#036998;fill-opacity:1;fill-rule:nonzero;stroke:none"
             d="m 481.023,40.3398 0,9.1719 20.024,27.8008 0,-16.9531 -20.024,-20.0196" /><path
             id="path32"
             style="fill:none;stroke:#ffffff;stroke-width:3.99993992;stroke-linecap:butt;stroke-linejoin:miter;stroke-miterlimit:4;stroke-dasharray:none;stroke-opacity:1"
             d="m 481.023,40.3398 0,9.1719 20.024,27.8008 0,-16.9531 -20.024,-20.0196 z" /><path
             id="path34"
             style="fill:#036998;fill-opacity:1;fill-rule:nonzero;stroke:none"
             d="m 304.719,40.3398 176.305,0 0,9.17188 -176.305,0 0,-9.17188 z" /><path
             id="path36"
             style="fill:none;stroke:#ffffff;stroke-width:3.99993992;stroke-linecap:butt;stroke-linejoin:miter;stroke-miterlimit:4;stroke-dasharray:none;stroke-opacity:1"
             d="m 304.719,40.3398 176.305,0 0,9.17188 -176.305,0 0,-9.17188 z" /><path
             id="path38"
             style="fill:#036998;fill-opacity:1;fill-rule:nonzero;stroke:none"
             d="m 332.207,112.527 152.336,0 0,115.266 -152.336,0 0,-115.266 z" /><path
             id="path40"
             style="fill:none;stroke:#ffffff;stroke-width:3.99993992;stroke-linecap:butt;stroke-linejoin:miter;stroke-miterlimit:4;stroke-dasharray:none;stroke-opacity:1"
             d="m 332.207,112.527 152.336,0 0,115.266 -152.336,0 0,-115.266 z" /><path
             id="path42"
             style="fill:#036998;fill-opacity:1;fill-rule:nonzero;stroke:none"
             d="m 484.543,112.527 26.082,26.086 0,115.262 -26.082,-26.082 0,-115.266" /><path
             id="path44"
             style="fill:none;stroke:#ffffff;stroke-width:3.99993992;stroke-linecap:butt;stroke-linejoin:miter;stroke-miterlimit:4;stroke-dasharray:none;stroke-opacity:1"
             d="m 484.543,112.527 26.082,26.086 0,115.262 -26.082,-26.082 0,-115.266 z" /><path
             id="path46"
             style="fill:#036998;fill-opacity:1;fill-rule:nonzero;stroke:none"
             d="m 481.023,49.5117 -176.304,0 20.398,27.8008 175.93,0 -20.024,-27.8008" /><path
             id="path48"
             style="fill:none;stroke:#ffffff;stroke-width:3.99993992;stroke-linecap:butt;stroke-linejoin:miter;stroke-miterlimit:4;stroke-dasharray:none;stroke-opacity:1"
             d="m 481.023,49.5117 -176.304,0 20.398,27.8008 175.93,0 -20.024,-27.8008 z" /><path
             id="path50"
             style="fill:#036998;fill-opacity:1;fill-rule:nonzero;stroke:none"
             d="m 485.449,77.4023 0,28.8087 25.918,25.742 0,-28.633 -25.918,-25.9177" /><path
             id="path52"
             style="fill:none;stroke:#ffffff;stroke-width:3.99993992;stroke-linecap:butt;stroke-linejoin:miter;stroke-miterlimit:4;stroke-dasharray:none;stroke-opacity:1"
             d="m 485.449,77.4023 0,28.8087 25.918,25.742 0,-28.633 -25.918,-25.9177 z" /><path
             id="path54"
             style="fill:#036998;fill-opacity:1;fill-rule:nonzero;stroke:none"
             d="m 357.043,214.512 102.156,0 c 6.653,0 12.039,-5.391 12.039,-12.032 l 0,-64.55 c 0,-6.641 -5.386,-12.032 -12.039,-12.032 l -102.156,0 c -6.652,0 -12.043,5.391 -12.043,12.032 l 0,64.55 c 0,6.641 5.391,12.032 12.043,12.032" /><path
             id="path56"
             style="fill:none;stroke:#ffffff;stroke-width:3.99993992;stroke-linecap:butt;stroke-linejoin:miter;stroke-miterlimit:4;stroke-dasharray:none;stroke-opacity:1"
             d="m 357.043,214.512 102.156,0 c 6.653,0 12.039,-5.391 12.039,-12.032 l 0,-64.55 c 0,-6.641 -5.386,-12.032 -12.039,-12.032 l -102.156,0 c -6.652,0 -12.043,5.391 -12.043,12.032 l 0,64.55 c 0,6.641 5.391,12.032 12.043,12.032 z" /><path
             id="path58"
             style="fill:#036998;fill-opacity:1;fill-rule:nonzero;stroke:none"
             d="m 510.625,253.875 -148.691,0 -29.727,-26.082 152.336,0 26.082,26.082" /><path
             id="path60"
             style="fill:none;stroke:#ffffff;stroke-width:3.99993992;stroke-linecap:butt;stroke-linejoin:miter;stroke-miterlimit:4;stroke-dasharray:none;stroke-opacity:1"
             d="m 510.625,253.875 -148.691,0 -29.727,-26.082 152.336,0 26.082,26.082 z" /><path
             id="path62"
             style="fill:#ffffff;fill-opacity:1;fill-rule:nonzero;stroke:none"
             d="m 395.305,193.77 c -18.672,3.73 -28.535,-5.84 -26.977,-14.102 l 0.117,-0.449 c -14.55,-2.481 -10.73,-19.66 -3.75,-19.66 l 0.688,0.031 c -1.621,-11.856 15.879,-18.848 24.734,-12.188 l 0.613,0.664 c 2.778,-11.269 40.391,-12.14 47.993,-3.711 l 0.679,-0.195 c 16.489,-1.328 23.989,10.059 20.383,18.231 l 0.891,0.246 c 5.613,1.492 6.265,14.461 -3.379,16.386 l 0.191,0.497 c 4.184,8.429 -5.679,16.398 -19.383,14.894 l -0.949,0.496 c -9.801,8.879 -38.023,7.434 -41.289,-1.347 l -0.562,0.207" /><path
             id="path64"
             style="fill:#036998;fill-opacity:1;fill-rule:nonzero;stroke:none"
             d="m 741.367,262.598 -18.496,-26.387 -160.664,0 26.531,26.387 152.629,0" /><path
             id="path66"
             style="fill:none;stroke:#ffffff;stroke-width:3.99993992;stroke-linecap:butt;stroke-linejoin:miter;stroke-miterlimit:4;stroke-dasharray:none;stroke-opacity:1"
             d="m 741.367,262.598 -18.496,-26.387 -160.664,0 26.531,26.387 152.629,0 z" /><path
             id="path68"
             style="fill:#036998;fill-opacity:1;fill-rule:nonzero;stroke:none"
             d="m 562.207,207.48 153.367,0 0,28.7305 -153.367,0 0,-28.7305 z" /><path
             id="path70"
             style="fill:none;stroke:#ffffff;stroke-width:3.99993992;stroke-linecap:butt;stroke-linejoin:miter;stroke-miterlimit:4;stroke-dasharray:none;stroke-opacity:1"
             d="m 562.207,207.48 153.367,0 0,28.7305 -153.367,0 0,-28.7305 z" /><path
             id="path72"
             style="fill:#036998;fill-opacity:1;fill-rule:nonzero;stroke:none"
             d="m 711.023,170.34 0,9.172 20.024,27.801 0,-16.954 -20.024,-20.019" /><path
             id="path74"
             style="fill:none;stroke:#ffffff;stroke-width:3.99993992;stroke-linecap:butt;stroke-linejoin:miter;stroke-miterlimit:4;stroke-dasharray:none;stroke-opacity:1"
             d="m 711.023,170.34 0,9.172 20.024,27.801 0,-16.954 -20.024,-20.019 z" /><path
             id="path76"
             style="fill:#036998;fill-opacity:1;fill-rule:nonzero;stroke:none"
             d="m 534.719,170.34 176.305,0 0,9.17188 -176.305,0 0,-9.17188 z" /><path
             id="path78"
             style="fill:none;stroke:#ffffff;stroke-width:3.99993992;stroke-linecap:butt;stroke-linejoin:miter;stroke-miterlimit:4;stroke-dasharray:none;stroke-opacity:1"
             d="m 534.719,170.34 176.305,0 0,9.17188 -176.305,0 0,-9.17188 z" /><path
             id="path80"
             style="fill:#036998;fill-opacity:1;fill-rule:nonzero;stroke:none"
             d="m 562.207,242.527 152.336,0 0,115.266 -152.336,0 0,-115.266 z" /><path
             id="path82"
             style="fill:none;stroke:#ffffff;stroke-width:3.99993992;stroke-linecap:butt;stroke-linejoin:miter;stroke-miterlimit:4;stroke-dasharray:none;stroke-opacity:1"
             d="m 562.207,242.527 152.336,0 0,115.266 -152.336,0 0,-115.266 z" /><path
             id="path84"
             style="fill:#036998;fill-opacity:1;fill-rule:nonzero;stroke:none"
             d="m 714.543,242.527 26.082,26.09 0,115.258 -26.082,-26.082 0,-115.266" /><path
             id="path86"
             style="fill:none;stroke:#ffffff;stroke-width:3.99993992;stroke-linecap:butt;stroke-linejoin:miter;stroke-miterlimit:4;stroke-dasharray:none;stroke-opacity:1"
             d="m 714.543,242.527 26.082,26.09 0,115.258 -26.082,-26.082 0,-115.266 z" /><path
             id="path88"
             style="fill:#036998;fill-opacity:1;fill-rule:nonzero;stroke:none"
             d="m 711.023,179.512 -176.304,0 20.398,27.801 175.93,0 -20.024,-27.801" /><path
             id="path90"
             style="fill:none;stroke:#ffffff;stroke-width:3.99993992;stroke-linecap:butt;stroke-linejoin:miter;stroke-miterlimit:4;stroke-dasharray:none;stroke-opacity:1"
             d="m 711.023,179.512 -176.304,0 20.398,27.801 175.93,0 -20.024,-27.801 z" /><path
             id="path92"
             style="fill:#036998;fill-opacity:1;fill-rule:nonzero;stroke:none"
             d="m 715.449,207.402 0,28.809 25.918,25.746 0,-28.637 -25.918,-25.918" /><path
             id="path94"
             style="fill:none;stroke:#ffffff;stroke-width:3.99993992;stroke-linecap:butt;stroke-linejoin:miter;stroke-miterlimit:4;stroke-dasharray:none;stroke-opacity:1"
             d="m 715.449,207.402 0,28.809 25.918,25.746 0,-28.637 -25.918,-25.918 z" /><path
             id="path96"
             style="fill:#036998;fill-opacity:1;fill-rule:nonzero;stroke:none"
             d="m 587.043,344.516 102.156,0 c 6.653,0 12.039,-5.391 12.039,-12.039 l 0,-64.543 c 0,-6.645 -5.386,-12.036 -12.039,-12.036 l -102.156,0 c -6.652,0 -12.043,5.391 -12.043,12.036 l 0,64.543 c 0,6.648 5.391,12.039 12.043,12.039" /><path
             id="path98"
             style="fill:none;stroke:#ffffff;stroke-width:3.99993992;stroke-linecap:butt;stroke-linejoin:miter;stroke-miterlimit:4;stroke-dasharray:none;stroke-opacity:1"
             d="m 587.043,344.516 102.156,0 c 6.653,0 12.039,-5.391 12.039,-12.039 l 0,-64.543 c 0,-6.645 -5.386,-12.036 -12.039,-12.036 l -102.156,0 c -6.652,0 -12.043,5.391 -12.043,12.036 l 0,64.543 c 0,6.648 5.391,12.039 12.043,12.039 z" /><path
             id="path100"
             style="fill:#036998;fill-opacity:1;fill-rule:nonzero;stroke:none"
             d="m 740.625,383.875 -148.691,0 -29.727,-26.082 152.336,0 26.082,26.082" /><path
             id="path102"
             style="fill:none;stroke:#ffffff;stroke-width:3.99993992;stroke-linecap:butt;stroke-linejoin:miter;stroke-miterlimit:4;stroke-dasharray:none;stroke-opacity:1"
             d="m 740.625,383.875 -148.691,0 -29.727,-26.082 152.336,0 26.082,26.082 z" /><path
             id="path104"
             style="fill:#ffffff;fill-opacity:1;fill-rule:nonzero;stroke:none"
             d="m 625.305,323.77 c -18.672,3.73 -28.535,-5.836 -26.977,-14.102 l 0.117,-0.453 c -14.55,-2.477 -10.73,-19.656 -3.75,-19.656 l 0.688,0.027 c -1.621,-11.848 15.879,-18.844 24.734,-12.184 l 0.613,0.668 c 2.778,-11.269 40.391,-12.144 47.993,-3.711 l 0.679,-0.199 c 16.489,-1.324 23.989,10.059 20.383,18.231 l 0.891,0.25 c 5.613,1.488 6.265,14.457 -3.379,16.379 l 0.191,0.5 c 4.184,8.433 -5.679,16.394 -19.383,14.898 l -0.949,0.492 c -9.801,8.879 -38.023,7.434 -41.289,-1.347 l -0.562,0.207" /><path
             id="path106"
             style="fill:#036998;fill-opacity:1;fill-rule:nonzero;stroke:none"
             d="m 296.367,272.598 -18.496,-26.387 -160.664,0 26.531,26.387 152.629,0" /><path
             id="path108"
             style="fill:none;stroke:#ffffff;stroke-width:3.99993992;stroke-linecap:butt;stroke-linejoin:miter;stroke-miterlimit:4;stroke-dasharray:none;stroke-opacity:1"
             d="m 296.367,272.598 -18.496,-26.387 -160.664,0 26.531,26.387 152.629,0 z" /><path
             id="path110"
             style="fill:#036998;fill-opacity:1;fill-rule:nonzero;stroke:none"
             d="m 117.207,217.48 153.367,0 0,28.7305 -153.367,0 0,-28.7305 z" /><path
             id="path112"
             style="fill:none;stroke:#ffffff;stroke-width:3.99993992;stroke-linecap:butt;stroke-linejoin:miter;stroke-miterlimit:4;stroke-dasharray:none;stroke-opacity:1"
             d="m 117.207,217.48 153.367,0 0,28.7305 -153.367,0 0,-28.7305 z" /><path
             id="path114"
             style="fill:#036998;fill-opacity:1;fill-rule:nonzero;stroke:none"
             d="m 266.023,180.34 0,9.172 20.024,27.801 0,-16.954 -20.024,-20.019" /><path
             id="path116"
             style="fill:none;stroke:#ffffff;stroke-width:3.99993992;stroke-linecap:butt;stroke-linejoin:miter;stroke-miterlimit:4;stroke-dasharray:none;stroke-opacity:1"
             d="m 266.023,180.34 0,9.172 20.024,27.801 0,-16.954 -20.024,-20.019 z" /><path
             id="path118"
             style="fill:#036998;fill-opacity:1;fill-rule:nonzero;stroke:none"
             d="m 89.7188,180.34 176.305,0 0,9.17188 -176.305,0 0,-9.17188 z" /><path
             id="path120"
             style="fill:none;stroke:#ffffff;stroke-width:3.99993992;stroke-linecap:butt;stroke-linejoin:miter;stroke-miterlimit:4;stroke-dasharray:none;stroke-opacity:1"
             d="m 89.7188,180.34 176.305,0 0,9.17188 -176.305,0 0,-9.17188 z" /><path
             id="path122"
             style="fill:#036998;fill-opacity:1;fill-rule:nonzero;stroke:none"
             d="m 117.207,252.527 152.332,0 0,115.266 -152.332,0 0,-115.266 z" /><path
             id="path124"
             style="fill:none;stroke:#ffffff;stroke-width:3.99993992;stroke-linecap:butt;stroke-linejoin:miter;stroke-miterlimit:4;stroke-dasharray:none;stroke-opacity:1"
             d="m 117.207,252.527 152.332,0 0,115.266 -152.332,0 0,-115.266 z" /><path
             id="path126"
             style="fill:#036998;fill-opacity:1;fill-rule:nonzero;stroke:none"
             d="m 269.539,252.527 26.086,26.09 0,115.258 -26.086,-26.082 0,-115.266" /><path
             id="path128"
             style="fill:none;stroke:#ffffff;stroke-width:3.99993992;stroke-linecap:butt;stroke-linejoin:miter;stroke-miterlimit:4;stroke-dasharray:none;stroke-opacity:1"
             d="m 269.539,252.527 26.086,26.09 0,115.258 -26.086,-26.082 0,-115.266 z" /><path
             id="path130"
             style="fill:#036998;fill-opacity:1;fill-rule:nonzero;stroke:none"
             d="m 266.023,189.512 -176.3042,0 20.3982,27.801 175.93,0 -20.024,-27.801" /><path
             id="path132"
             style="fill:none;stroke:#ffffff;stroke-width:3.99993992;stroke-linecap:butt;stroke-linejoin:miter;stroke-miterlimit:4;stroke-dasharray:none;stroke-opacity:1"
             d="m 266.023,189.512 -176.3042,0 20.3982,27.801 175.93,0 -20.024,-27.801 z" /><path
             id="path134"
             style="fill:#036998;fill-opacity:1;fill-rule:nonzero;stroke:none"
             d="m 270.449,217.402 0,28.809 25.918,25.746 0,-28.637 -25.918,-25.918" /><path
             id="path136"
             style="fill:none;stroke:#ffffff;stroke-width:3.99993992;stroke-linecap:butt;stroke-linejoin:miter;stroke-miterlimit:4;stroke-dasharray:none;stroke-opacity:1"
             d="m 270.449,217.402 0,28.809 25.918,25.746 0,-28.637 -25.918,-25.918 z" /><path
             id="path138"
             style="fill:#036998;fill-opacity:1;fill-rule:nonzero;stroke:none"
             d="m 142.039,354.516 102.16,0 c 6.653,0 12.039,-5.391 12.039,-12.039 l 0,-64.543 c 0,-6.645 -5.386,-12.036 -12.039,-12.036 l -102.16,0 c -6.648,0 -12.039,5.391 -12.039,12.036 l 0,64.543 c 0,6.648 5.391,12.039 12.039,12.039" /><path
             id="path140"
             style="fill:none;stroke:#ffffff;stroke-width:3.99993992;stroke-linecap:butt;stroke-linejoin:miter;stroke-miterlimit:4;stroke-dasharray:none;stroke-opacity:1"
             d="m 142.039,354.516 102.16,0 c 6.653,0 12.039,-5.391 12.039,-12.039 l 0,-64.543 c 0,-6.645 -5.386,-12.036 -12.039,-12.036 l -102.16,0 c -6.648,0 -12.039,5.391 -12.039,12.036 l 0,64.543 c 0,6.648 5.391,12.039 12.039,12.039 z" /><path
             id="path142"
             style="fill:#036998;fill-opacity:1;fill-rule:nonzero;stroke:none"
             d="m 295.625,393.875 -148.691,0 -29.727,-26.082 152.332,0 26.086,26.082" /><path
             id="path144"
             style="fill:none;stroke:#ffffff;stroke-width:3.99993992;stroke-linecap:butt;stroke-linejoin:miter;stroke-miterlimit:4;stroke-dasharray:none;stroke-opacity:1"
             d="m 295.625,393.875 -148.691,0 -29.727,-26.082 152.332,0 26.086,26.082 z" /><path
             id="path146"
             style="fill:#ffffff;fill-opacity:1;fill-rule:nonzero;stroke:none"
             d="m 175.305,333.77 c -18.672,3.73 -28.535,-5.836 -26.977,-14.102 l 0.117,-0.453 c -14.55,-2.477 -10.73,-19.656 -3.75,-19.656 l 0.688,0.027 c -1.621,-11.848 15.879,-18.844 24.734,-12.184 l 0.613,0.668 c 2.778,-11.269 40.391,-12.144 47.993,-3.711 l 0.679,-0.199 c 16.489,-1.324 23.989,10.059 20.383,18.231 l 0.891,0.25 c 5.613,1.488 6.265,14.457 -3.379,16.379 l 0.191,0.5 c 4.184,8.433 -5.679,16.394 -19.383,14.898 l -0.949,0.492 c -9.801,8.879 -38.023,7.434 -41.289,-1.347 l -0.562,0.207" /><path
             id="path148"
             style="fill:none;stroke:#036998;stroke-width:3.99993992;stroke-linecap:butt;stroke-linejoin:miter;stroke-miterlimit:4;stroke-dasharray:none;stroke-opacity:1"
             d="m 285.762,421.992 c -144.004,28.75 -220.0003,-45 -207.9964,-108.75 l 0.9649,-3.476 C -33.4844,290.668 -4.07422,158.242 49.7578,158.242 l 5.3008,0.164 C 41.5039,96.1914 172.637,32.8516 245.762,64.4922 l 4.699,5.1562 C 276.531,13.6719 369.16,4.32422 460.762,1.99219 540.145,-0.0390625 586.477,6.25 620.52,41.0352 l 5.242,-1.543 c 127.07,-10.2149 184.941,77.5588 157.16,140.5738 l 6.836,1.926 c 43.316,11.453 48.316,111.453 -25.996,126.25 l 1.426,3.871 c 32.261,65.055 -43.833,126.403 -149.426,114.879 l -7.317,3.817 c -75.586,68.445 -293.14,57.285 -318.34,-10.403 l -4.343,1.586 z" /><path
             id="path150"
             style="fill:none;stroke:#036998;stroke-width:3.99993992;stroke-linecap:butt;stroke-linejoin:miter;stroke-miterlimit:4;stroke-dasharray:none;stroke-opacity:1"
             d="m 343.137,119.609 -95,63.34" /><path
             id="path152"
             style="fill:none;stroke:#036998;stroke-width:3.99993992;stroke-linecap:butt;stroke-linejoin:miter;stroke-miterlimit:4;stroke-dasharray:none;stroke-opacity:1"
             d="m 496.453,134.609 60,40" /><path
             id="path154"
             style="fill:none;stroke:#036998;stroke-width:3.99993992;stroke-linecap:butt;stroke-linejoin:miter;stroke-miterlimit:4;stroke-dasharray:none;stroke-opacity:1"
             d="m 284.797,329.609 283.34,0" /></g></g></g></g></svg>