<svg xmlns="http://www.w3.org/2000/svg" viewBox="0 0 45 40" height="40" width="45"><path d="M12.681 12.921c-4.502.918-7.73 11.7-7.73 11.7C3.325 29.307.498 33.125.498 33.125h29.82s3.457-4.34 5.957-8.506c0 0 3.251-10.781 7.754-11.699H12.68" fill="#1582ba"/><path d="M12.681 12.92c-4.502.918-7.73 11.7-7.73 11.7C3.325 29.307.498 33.126.498 33.126h29.82s3.457-4.341 5.957-8.506c0 0 3.251-10.782 7.754-11.7H12.68z" fill="none" stroke="#fff" stroke-width=".5"/><path d="M30.268 33.047v5.084l13.218-13.706-.02-11.309c-2.089.425-5.151 4.029-7.524 7.417-1.352 1.933-2.304 3.643-3.26 4.965" fill="#1582ba"/><path d="M30.268 33.047v5.084l13.218-13.706-.02-11.309c-2.089.425-5.151 4.029-7.524 7.418-1.352 1.932-2.304 3.642-3.26 4.964" fill="none" stroke="#fff" stroke-width=".5"/><path d="M21.114 6.685c2.221-2.012 5.238-3.305 8.095-3.242 3.003.068 5.059 1.627 5.62 3.887" fill="none" stroke="#1582ba" stroke-width=".5"/><path d="M19.951 9.766c2.221-2.011 5.239-3.305 8.096-3.241 3.003.067 5.058 1.625 5.62 3.881" fill="none" stroke="#1582ba" stroke-width=".5"/><path d="M18.789 12.847c2.222-2.011 5.24-3.305 8.096-3.242 3.003.068 5.059 1.626 5.625 3.882" fill="none" stroke="#1582ba" stroke-width=".5"/><path d="M17.628 15.929c2.22-2.016 5.238-3.311 8.095-3.243 3.002.069 5.063 1.627 5.625 3.883" fill="#1582ba"/><path d="M17.628 15.929c2.22-2.017 5.238-3.31 8.095-3.243 3.002.069 5.063 1.627 5.625 3.882" fill="none" stroke="#fff" stroke-width=".5"/><path d="M21.114 6.685c2.221-2.012 5.238-3.305 8.095-3.242 3.003.068 5.059 1.627 5.62 3.887" fill="none" stroke="#1582ba" stroke-width=".5"/><path d="M22.261 3.644C24.482 1.632 27.5.333 30.357.4c3.003.064 5.063 1.622 5.625 3.883M19.951 9.766c2.221-2.011 5.239-3.305 8.096-3.241 3.003.067 5.058 1.625 5.62 3.881" fill="none" stroke="#1582ba" stroke-width=".5"/><path d="M18.789 12.847c2.222-2.011 5.24-3.305 8.096-3.242 3.003.068 5.059 1.626 5.625 3.882" fill="none" stroke="#1582ba" stroke-width=".5"/><path d="M17.628 15.929c2.22-2.017 5.238-3.31 8.095-3.243 3.002.069 5.063 1.627 5.625 3.882" fill="none" stroke="#fff" stroke-width=".5"/><path d="M33.789 22.579c.294 3.54-5.708 6.928-13.408 7.568-7.7.64-14.185-1.703-14.477-5.243-.294-3.536 5.707-6.925 13.407-7.569 7.7-.64 14.185 1.709 14.478 5.244" fill="#1582ba"/><path d="M33.789 22.579c.294 3.54-5.708 6.928-13.408 7.568-7.7.64-14.185-1.704-14.477-5.243-.294-3.535 5.707-6.924 13.407-7.569 7.7-.64 14.185 1.708 14.478 5.244z" fill="none" stroke="#fff" stroke-width=".5"/><path d="M32.495 21.729c.269 3.218-5.185 6.3-12.187 6.88-6.998.58-12.89-1.553-13.16-4.765-.268-3.218 5.19-6.3 12.188-6.88 7.001-.586 12.896 1.547 13.16 4.765" fill="#1582ba"/><path d="M32.495 21.73c.269 3.217-5.185 6.299-12.187 6.88-6.998.58-12.89-1.554-13.16-4.766-.268-3.218 5.19-6.3 12.188-6.88 7.001-.586 12.896 1.547 13.16 4.766z" fill="none" stroke="#fff" stroke-width=".5"/><path d="M.479 38.288l29.882-.045v-5.38H.498l-.02 5.425" fill="#1582ba"/><path d="M.479 38.287l29.882-.043v-5.382H.498l-.02 5.425z" fill="none" stroke="#fff" stroke-width=".5"/></svg>