<?xml version="1.0" encoding="UTF-8" standalone="no"?>
<svg
   xmlns:dc="http://purl.org/dc/elements/1.1/"
   xmlns:cc="http://creativecommons.org/ns#"
   xmlns:rdf="http://www.w3.org/1999/02/22-rdf-syntax-ns#"
   xmlns:svg="http://www.w3.org/2000/svg"
   xmlns="http://www.w3.org/2000/svg"
   viewBox="0 0 44.174999 38.599998"
   height="38.599998"
   width="44.174999"
   xml:space="preserve"
   version="1.1"
   id="svg2"><metadata
     id="metadata8"><rdf:RDF><cc:Work
         rdf:about=""><dc:format>image/svg+xml</dc:format><dc:type
           rdf:resource="http://purl.org/dc/dcmitype/StillImage" /></cc:Work></rdf:RDF></metadata><defs
     id="defs6" /><g
     transform="matrix(1.25,0,0,-1.25,0,38.6)"
     id="g10"><g
       transform="scale(0.1,0.1)"
       id="g12"><path
         id="path14"
         style="fill:#1582ba;fill-opacity:1;fill-rule:nonzero;stroke:none"
         d="M 101.449,206.641 C 65.4336,199.297 39.6055,113.047 39.6055,113.047 26.6172,75.5352 3.96875,44.9805 3.96875,44.9805 l 238.58625,0 c 0,0 27.656,34.7383 47.656,68.0665 0,0 25.996,86.25 62.012,93.594 l -250.774,0" /><path
         id="path16"
         style="fill:none;stroke:#ffffff;stroke-width:4;stroke-linecap:butt;stroke-linejoin:miter;stroke-miterlimit:4;stroke-dasharray:none;stroke-opacity:1"
         d="M 101.449,206.641 C 65.4336,199.297 39.6055,113.047 39.6055,113.047 26.6172,75.5352 3.96875,44.9805 3.96875,44.9805 l 238.58625,0 c 0,0 27.656,34.7383 47.656,68.0665 0,0 25.996,86.25 62.012,93.594 l -250.774,0 z" /><path
         id="path18"
         style="fill:#1582ba;fill-opacity:1;fill-rule:nonzero;stroke:none"
         d="m 242.152,45.625 0,-40.67578 105.754,109.65978 -0.176,90.45 c -16.71,-3.411 -41.21,-32.207 -60.195,-59.329 -10.832,-15.457 -18.43,-29.148 -26.105,-39.714" /><path
         id="path20"
         style="fill:none;stroke:#ffffff;stroke-width:4;stroke-linecap:butt;stroke-linejoin:miter;stroke-miterlimit:4;stroke-dasharray:none;stroke-opacity:1"
         d="m 242.152,45.625 0,-40.67578 105.754,109.65978 -0.176,90.45 c -16.71,-3.411 -41.21,-32.207 -60.195,-59.329 -10.832,-15.457 -18.43,-29.148 -26.105,-39.714" /><path
         id="path22"
         style="fill:none;stroke:#1582ba;stroke-width:4;stroke-linecap:butt;stroke-linejoin:miter;stroke-miterlimit:4;stroke-dasharray:none;stroke-opacity:1"
         d="m 168.902,256.492 c 17.774,16.106 41.922,26.457 64.754,25.938 24.024,-0.543 40.5,-12.989 44.992,-31.063" /><path
         id="path24"
         style="fill:none;stroke:#1582ba;stroke-width:4;stroke-linecap:butt;stroke-linejoin:miter;stroke-miterlimit:4;stroke-dasharray:none;stroke-opacity:1"
         d="m 159.613,231.863 c 17.774,16.106 41.926,26.446 64.746,25.93 24.024,-0.547 40.489,-12.988 44.993,-31.066" /><path
         id="path26"
         style="fill:none;stroke:#1582ba;stroke-width:4;stroke-linecap:butt;stroke-linejoin:miter;stroke-miterlimit:4;stroke-dasharray:none;stroke-opacity:1"
         d="m 150.328,207.219 c 17.754,16.101 41.902,26.441 64.735,25.926 24.023,-0.547 40.5,-13 45,-31.047" /><path
         id="path28"
         style="fill:#1582ba;fill-opacity:1;fill-rule:nonzero;stroke:none"
         d="m 141.031,182.578 c 17.754,16.102 41.914,26.453 64.746,25.938 24.024,-0.547 40.496,-13.008 44.989,-31.055" /><path
         id="path30"
         style="fill:none;stroke:#ffffff;stroke-width:4;stroke-linecap:butt;stroke-linejoin:miter;stroke-miterlimit:4;stroke-dasharray:none;stroke-opacity:1"
         d="m 141.031,182.578 c 17.754,16.102 41.914,26.453 64.746,25.938 24.024,-0.547 40.496,-13.008 44.989,-31.055" /><path
         id="path32"
         style="fill:none;stroke:#1582ba;stroke-width:4;stroke-linecap:butt;stroke-linejoin:miter;stroke-miterlimit:4;stroke-dasharray:none;stroke-opacity:1"
         d="m 168.902,256.492 c 17.774,16.106 41.922,26.457 64.754,25.938 24.024,-0.543 40.5,-12.989 44.992,-31.063" /><path
         id="path34"
         style="fill:none;stroke:#1582ba;stroke-width:4;stroke-linecap:butt;stroke-linejoin:miter;stroke-miterlimit:4;stroke-dasharray:none;stroke-opacity:1"
         d="m 178.102,280.859 c 17.753,16.094 41.914,26.454 64.746,25.938 24.023,-0.535 40.496,-12.988 44.988,-31.067" /><path
         id="path36"
         style="fill:none;stroke:#1582ba;stroke-width:4;stroke-linecap:butt;stroke-linejoin:miter;stroke-miterlimit:4;stroke-dasharray:none;stroke-opacity:1"
         d="m 159.613,231.863 c 17.774,16.106 41.926,26.446 64.746,25.93 24.024,-0.547 40.489,-12.988 44.993,-31.066" /><path
         id="path38"
         style="fill:none;stroke:#1582ba;stroke-width:4;stroke-linecap:butt;stroke-linejoin:miter;stroke-miterlimit:4;stroke-dasharray:none;stroke-opacity:1"
         d="m 150.328,207.219 c 17.754,16.101 41.902,26.441 64.735,25.926 24.023,-0.547 40.5,-13 45,-31.047" /><path
         id="path40"
         style="fill:none;stroke:#ffffff;stroke-width:4;stroke-linecap:butt;stroke-linejoin:miter;stroke-miterlimit:4;stroke-dasharray:none;stroke-opacity:1"
         d="m 141.031,182.578 c 17.754,16.102 41.914,26.453 64.746,25.938 24.024,-0.547 40.496,-13.008 44.989,-31.055" /><path
         id="path42"
         style="fill:#1582ba;fill-opacity:1;fill-rule:nonzero;stroke:none"
         d="M 270.309,129.355 C 272.672,101.035 224.645,73.9336 163.031,68.8086 101.449,63.6797 49.5859,82.4492 47.2305,110.762 c -2.3633,28.301 45.6758,55.398 107.2775,60.547 61.59,5.117 113.445,-13.664 115.801,-41.954" /><path
         id="path44"
         style="fill:none;stroke:#ffffff;stroke-width:4;stroke-linecap:butt;stroke-linejoin:miter;stroke-miterlimit:4;stroke-dasharray:none;stroke-opacity:1"
         d="M 270.309,129.355 C 272.672,101.035 224.645,73.9336 163.031,68.8086 101.449,63.6797 49.5859,82.4492 47.2305,110.762 c -2.3633,28.301 45.6758,55.398 107.2775,60.547 61.59,5.117 113.445,-13.664 115.801,-41.954 z" /><path
         id="path46"
         style="fill:#1582ba;fill-opacity:1;fill-rule:nonzero;stroke:none"
         d="m 259.977,136.16 c 2.148,-25.738 -41.516,-50.3787 -97.52,-55.0389 -55.988,-4.668 -103.1367,12.4023 -105.2734,38.1369 -2.1484,25.73 41.5234,50.359 97.5194,55.039 55.996,4.656 103.133,-12.41 105.274,-38.137" /><path
         id="path48"
         style="fill:none;stroke:#ffffff;stroke-width:4;stroke-linecap:butt;stroke-linejoin:miter;stroke-miterlimit:4;stroke-dasharray:none;stroke-opacity:1"
         d="m 259.977,136.16 c 2.148,-25.738 -41.516,-50.3787 -97.52,-55.0389 -55.988,-4.668 -103.1367,12.4023 -105.2734,38.1369 -2.1484,25.73 41.5234,50.359 97.5194,55.039 55.996,4.656 103.133,-12.41 105.274,-38.137 z" /><path
         id="path50"
         style="fill:#1582ba;fill-opacity:1;fill-rule:nonzero;stroke:none"
         d="m 3.83203,3.67969 239.06297,0.35156 0,43.04685 -238.92625,0 L 3.83203,3.67969" /><path
         id="path52"
         style="fill:none;stroke:#ffffff;stroke-width:4;stroke-linecap:butt;stroke-linejoin:miter;stroke-miterlimit:4;stroke-dasharray:none;stroke-opacity:1"
         d="m 3.83203,3.67969 239.06297,0.35156 0,43.04685 -238.92625,0 L 3.83203,3.67969 Z" /></g></g></svg>