<svg xmlns="http://www.w3.org/2000/svg" viewBox="0 0 45 38.75" height="38.75" width="45"><defs><clipPath id="a"><path d="M0 9v297h360V9H0z"/></clipPath></defs><g clip-path="url(#a)" transform="matrix(.13 0 0 -.13 0 38.75)"><path d="M82.809 291.855l-78.79-40.742c192.622-122.34 305.86 7.813 305.86 7.813-114.527-68.981-227.07 32.929-227.07 32.929" fill="#036998"/><path d="M82.809 291.855l-78.79-40.742c192.622-122.34 305.86 7.813 305.86 7.813-114.527-68.981-227.07 32.929-227.07 32.929z" fill="none" stroke="#fff" stroke-width="4"/><path d="M359.34 304.473c-13.012-26.008-50.75-46.828-50.75-46.828V14.242l50.75 41.64v248.591" fill="#036998"/><path d="M359.34 304.473c-13.012-26.008-50.75-46.828-50.75-46.828V14.242l50.75 41.64v248.591z" fill="none" stroke="#fff" stroke-width="4"/><path d="M308.59 257.645S196.641 128.773 4.02 251.113V14.243h304.57v243.402" fill="#036998"/><path d="M308.59 257.645S196.641 128.773 4.02 251.113V14.243h304.57v243.402z" fill="none" stroke="#fff" stroke-width="4"/><path d="M286.949 109.824s-19.57-50.308-43.121.16c-23.476 50.43-43.09.121-43.09.121s-19.566-50.351-43.039.071c-23.519 50.429-43.008-.313-43.008-.313s-19.53-50.347-43.05.121c-23.52 50.43-43.012.121-43.012.121" fill="none" stroke="#000" stroke-width="4.5" stroke-linecap="round" stroke-miterlimit="1"/><path d="M28.629 109.824s19.57-50.308 43.09.16c23.512 50.43 43.121.121 43.121.121s19.539-50.351 43.051.071c23.519 50.429 43.007-.313 43.007-.313s19.532-50.347 43.051.121c23.512 50.43 43 .121 43 .121" fill="none" stroke="#000" stroke-width="9" stroke-linecap="round" stroke-miterlimit="1"/><path d="M282.422 109.824s-19.57-50.308-43.082.16c-23.52 50.43-43.129.121-43.129.121s-19.57-50.351-43.051.071c-23.512 50.429-43-.313-43-.313s-19.539-50.347-43.05.121c-23.52 50.43-43.008.121-43.008.121" fill="none" stroke="#fff" stroke-width="4.5" stroke-linecap="round" stroke-miterlimit="1"/><path d="M24.102 109.824s19.57-50.308 43.09.16c23.507 50.43 43.117.121 43.117.121s19.531-50.351 43.05.071c23.52 50.429 43.012-.313 43.012-.313s19.488-50.347 43.039.121c23.52 50.43 43.012.121 43.012.121" fill="none" stroke="#fff" stroke-width="9" stroke-linecap="round" stroke-miterlimit="1"/></g></svg>