<?xml version="1.0" encoding="UTF-8" standalone="no"?>
<svg
   xmlns:dc="http://purl.org/dc/elements/1.1/"
   xmlns:cc="http://creativecommons.org/ns#"
   xmlns:rdf="http://www.w3.org/1999/02/22-rdf-syntax-ns#"
   xmlns:svg="http://www.w3.org/2000/svg"
   xmlns="http://www.w3.org/2000/svg"
   viewBox="0 0 59.150002 33.412498"
   height="33.412498"
   width="59.150002"
   xml:space="preserve"
   version="1.1"
   id="svg2"><metadata
     id="metadata8"><rdf:RDF><cc:Work
         rdf:about=""><dc:format>image/svg+xml</dc:format><dc:type
           rdf:resource="http://purl.org/dc/dcmitype/StillImage" /></cc:Work></rdf:RDF></metadata><defs
     id="defs6" /><g
     transform="matrix(1.25,0,0,-1.25,0,33.4125)"
     id="g10"><g
       transform="scale(0.1,0.1)"
       id="g12"><path
         id="path14"
         style="fill:#087bbb;fill-opacity:1;fill-rule:nonzero;stroke:none"
         d="m 5.65234,149.18 139.81266,113.066 322.777,0 -115.715,-113.066 -346.87466,0" /><path
         id="path16"
         style="fill:none;stroke:#ffffff;stroke-width:4;stroke-linecap:butt;stroke-linejoin:miter;stroke-miterlimit:4;stroke-dasharray:none;stroke-opacity:1"
         d="m 5.65234,149.18 139.81266,113.066 322.777,0 -115.715,-113.066 -346.87466,0 z" /><path
         id="path18"
         style="fill:#087bbb;fill-opacity:1;fill-rule:nonzero;stroke:none"
         d="m 352.527,4.89063 115.715,117.91037 0,139.23 -115.715,-112.851 0,-144.28937" /><path
         id="path20"
         style="fill:none;stroke:#ffffff;stroke-width:4;stroke-linecap:butt;stroke-linejoin:miter;stroke-miterlimit:4;stroke-dasharray:none;stroke-opacity:1"
         d="m 352.527,4.89063 115.715,117.91037 0,139.23 -115.715,-112.851 0,-144.28937 z" /><path
         id="path22"
         style="fill:#087bbb;fill-opacity:1;fill-rule:nonzero;stroke:none"
         d="m 6.12891,4.77344 346.398,0 0,144.406 -346.398,0 0,-144.406 z" /><path
         id="path24"
         style="fill:none;stroke:#ffffff;stroke-width:4;stroke-linecap:butt;stroke-linejoin:miter;stroke-miterlimit:4;stroke-dasharray:none;stroke-opacity:1"
         d="m 6.12891,4.77344 346.398,0 0,144.406 -346.398,0 0,-144.406 z" /><g
         transform="scale(10,10)"
         id="g26"><text
           id="text28"
           style="font-variant:normal;font-weight:bold;font-size:6.82213593px;font-family:Helvetica;-inkscape-font-specification:Helvetica-Bold;writing-mode:lr-tb;fill:#ffffff;fill-opacity:1;fill-rule:nonzero;stroke:none"
           transform="matrix(0.74518053,0,-0.66686278,-0.57354469,8.47383,19.1328)"><tspan
             id="tspan30"
             y="0"
             x="0">W</tspan></text>
<text
           id="text32"
           style="font-variant:normal;font-weight:bold;font-size:6.8222847px;font-family:Helvetica;-inkscape-font-specification:Helvetica-Bold;writing-mode:lr-tb;fill:#ffffff;fill-opacity:1;fill-rule:nonzero;stroke:none"
           transform="matrix(0.74516371,0,-0.66688158,-0.57356085,32.9461,18.7285)"><tspan
             id="tspan34"
             y="0"
             x="0">E</tspan></text>
<text
           id="text36"
           style="font-variant:normal;font-weight:bold;font-size:6.82213593px;font-family:Helvetica;-inkscape-font-specification:Helvetica-Bold;writing-mode:lr-tb;fill:#ffffff;fill-opacity:1;fill-rule:nonzero;stroke:none"
           transform="matrix(0.74518053,0,-0.66686278,-0.57354469,16.725,15.3137)"><tspan
             id="tspan38"
             y="0"
             x="0">S</tspan><tspan
             id="tspan40"
             y="-13.343537"
             x="-0.38356856">N</tspan></text>
</g><path
         id="path42"
         style="fill:#ffffff;fill-opacity:1;fill-rule:nonzero;stroke:none"
         d="m 259.969,205.684 c -3.535,-3.106 -13.321,-5.606 -21.848,-5.606 -8.523,0 -12.57,2.5 -9.031,5.598 3.539,3.101 13.324,5.601 21.855,5.601 8.52,0 12.559,-2.507 9.024,-5.593" /><path
         id="path44"
         style="fill:#ffffff;fill-opacity:1;fill-rule:nonzero;stroke:none"
         d="m 241.5,208.164 33.137,23.672 -20.633,-23.66" /><path
         id="path46"
         style="fill:#ffffff;fill-opacity:1;fill-rule:nonzero;stroke:none"
         d="m 237.234,204.426 -20.921,-23.656 33.421,23.656" /><path
         id="path48"
         style="fill:#ffffff;fill-opacity:1;fill-rule:nonzero;stroke:none"
         d="m 235.223,203.547 -62.645,2.195 67.836,2.344" /><path
         id="path50"
         style="fill:#ffffff;fill-opacity:1;fill-rule:nonzero;stroke:none"
         d="m 245.516,203.535 67.714,2.219 -62.539,2.332" /><path
         id="path52"
         style="fill:#ffffff;fill-opacity:1;fill-rule:nonzero;stroke:none"
         d="m 240.098,202.391 -33.785,-6.532 28.593,9.746" /><path
         id="path54"
         style="fill:#ffffff;fill-opacity:1;fill-rule:nonzero;stroke:none"
         d="m 250.398,205.039 32.895,10.93 -38.086,-7.727" /><path
         id="path56"
         style="fill:#ffffff;fill-opacity:1;fill-rule:nonzero;stroke:none"
         d="m 253.254,205.41 7.301,-10.488 -19.809,7.285" /><path
         id="path58"
         style="fill:#ffffff;fill-opacity:1;fill-rule:nonzero;stroke:none"
         d="m 248.996,208.055 -20.285,7.422 7.773,-10.625" /><path
         id="path60"
         style="fill:none;stroke:#ffffff;stroke-width:4;stroke-linecap:butt;stroke-linejoin:miter;stroke-miterlimit:1;stroke-dasharray:none;stroke-opacity:1"
         d="m 298.523,213.652 c 3.282,-10.343 -18.863,-22.976 -49.453,-28.254 -30.593,-5.261 -58.035,-1.148 -61.316,9.172 -3.274,10.321 18.867,22.981 49.461,28.243 30.586,5.273 58.039,1.171 61.308,-9.161 z" /></g></g></svg>