<?xml version="1.0" encoding="UTF-8" standalone="no"?>
<svg
   xmlns:dc="http://purl.org/dc/elements/1.1/"
   xmlns:cc="http://creativecommons.org/ns#"
   xmlns:rdf="http://www.w3.org/1999/02/22-rdf-syntax-ns#"
   xmlns:svg="http://www.w3.org/2000/svg"
   xmlns="http://www.w3.org/2000/svg"
   viewBox="0 0 46.487499 46.487499"
   height="46.487499"
   width="46.487499"
   xml:space="preserve"
   version="1.1"
   id="svg2"><metadata
     id="metadata8"><rdf:RDF><cc:Work
         rdf:about=""><dc:format>image/svg+xml</dc:format><dc:type
           rdf:resource="http://purl.org/dc/dcmitype/StillImage" /></cc:Work></rdf:RDF></metadata><defs
     id="defs6" /><g
     transform="matrix(1.25,0,0,-1.25,0,46.4875)"
     id="g10"><g
       transform="scale(0.1,0.1)"
       id="g12"><path
         id="path14"
         style="fill:none;stroke:#1286be;stroke-width:4;stroke-linecap:butt;stroke-linejoin:miter;stroke-miterlimit:4;stroke-dasharray:none;stroke-opacity:1"
         d="m 302.016,199.055 0,163.593" /><path
         id="path16"
         style="fill:none;stroke:#1286be;stroke-width:20;stroke-linecap:butt;stroke-linejoin:miter;stroke-miterlimit:4;stroke-dasharray:none;stroke-opacity:1"
         d="m 302.016,201.691 0,112.227" /><path
         id="path18"
         style="fill:#000000;fill-opacity:1;fill-rule:nonzero;stroke:none"
         d="m 296.762,346.934 10,0 0,20 -10,0 0,-20 z" /><path
         id="path20"
         style="fill:none;stroke:#1286be;stroke-width:10;stroke-linecap:butt;stroke-linejoin:miter;stroke-miterlimit:4;stroke-dasharray:none;stroke-opacity:1"
         d="m 296.762,346.934 10,0 0,20 -10,0 0,-20 z" /><path
         id="path22"
         style="fill:none;stroke:#1286be;stroke-width:4;stroke-linecap:butt;stroke-linejoin:miter;stroke-miterlimit:4;stroke-dasharray:none;stroke-opacity:1"
         d="m 59.5117,199.055 0,163.593" /><path
         id="path24"
         style="fill:none;stroke:#1286be;stroke-width:20;stroke-linecap:butt;stroke-linejoin:miter;stroke-miterlimit:4;stroke-dasharray:none;stroke-opacity:1"
         d="m 59.5117,201.691 0,112.227" /><path
         id="path26"
         style="fill:#000000;fill-opacity:1;fill-rule:nonzero;stroke:none"
         d="m 54.2695,346.934 10,0 0,20 -10,0 0,-20 z" /><path
         id="path28"
         style="fill:none;stroke:#1286be;stroke-width:10;stroke-linecap:butt;stroke-linejoin:miter;stroke-miterlimit:4;stroke-dasharray:none;stroke-opacity:1"
         d="m 54.2695,346.934 10,0 0,20 -10,0 0,-20 z" /><path
         id="path30"
         style="fill:#1286be;fill-opacity:1;fill-rule:nonzero;stroke:none"
         d="m 369.848,178.281 c 0,-39.5 -82.344,-71.523 -183.918,-71.523 -101.5823,0 -183.92609,32.023 -183.92609,71.523 l 0,-104.7654 c 0,-39.5 82.34379,-71.52341 183.92609,-71.52341 101.574,0 183.918,32.02341 183.918,71.52341 l 0,104.7654" /><path
         id="path32"
         style="fill:none;stroke:#ffffff;stroke-width:4;stroke-linecap:butt;stroke-linejoin:miter;stroke-miterlimit:4;stroke-dasharray:none;stroke-opacity:1"
         d="m 369.848,178.281 c 0,-39.5 -82.344,-71.523 -183.918,-71.523 -101.5823,0 -183.92609,32.023 -183.92609,71.523 l 0,-104.7654 c 0,-39.5 82.34379,-71.52341 183.92609,-71.52341 101.574,0 183.918,32.02341 183.918,71.52341 l 0,104.7654 z" /><path
         id="path34"
         style="fill:#1286be;fill-opacity:1;fill-rule:nonzero;stroke:none"
         d="m 185.93,106.758 c 101.574,0 183.918,32.023 183.918,71.523 0,39.512 -82.344,71.524 -183.918,71.524 -101.5823,0 -183.92609,-32.012 -183.92609,-71.524 0,-39.5 82.34379,-71.523 183.92609,-71.523" /><path
         id="path36"
         style="fill:none;stroke:#ffffff;stroke-width:4;stroke-linecap:butt;stroke-linejoin:miter;stroke-miterlimit:4;stroke-dasharray:none;stroke-opacity:1"
         d="m 185.93,106.758 c 101.574,0 183.918,32.023 183.918,71.523 0,39.512 -82.344,71.524 -183.918,71.524 -101.5823,0 -183.92609,-32.012 -183.92609,-71.524 0,-39.5 82.34379,-71.523 183.92609,-71.523 z" /><path
         id="path38"
         style="fill:#ffffff;fill-opacity:1;fill-rule:nonzero;stroke:none"
         d="m 143.926,206.25 15.183,-22.781 -57.418,-13.274 12.547,10.45 -88.7497,15.168 22.2656,16.687 85.6371,-14.5 10.535,8.25" /><path
         id="path40"
         style="fill:#ffffff;fill-opacity:1;fill-rule:nonzero;stroke:none"
         d="m 224.73,151.008 -10.371,23.484 51.797,10.352 -8.984,-8.047 86.328,-14.746 -20.703,-16.571 -85.82,16.114 -12.247,-10.586" /><path
         id="path42"
         style="fill:#ffffff;fill-opacity:1;fill-rule:nonzero;stroke:none"
         d="m 196.41,218.691 58.008,15.879 0.684,-24.863 -14.493,2.766 -28.32,-23.489 -27.016,3.946 29.223,22.968 -18.086,2.793" /><path
         id="path44"
         style="fill:#ffffff;fill-opacity:1;fill-rule:nonzero;stroke:none"
         d="m 171.543,129.59 -55.242,-10.352 -2.071,25.547 15.879,-3.445 30.411,25.965 26.914,-4.551 -32.461,-28.32 16.57,-4.844" /></g></g></svg>