<?xml version="1.0" encoding="UTF-8" standalone="no"?>
<svg
   xmlns:dc="http://purl.org/dc/elements/1.1/"
   xmlns:cc="http://creativecommons.org/ns#"
   xmlns:rdf="http://www.w3.org/1999/02/22-rdf-syntax-ns#"
   xmlns:svg="http://www.w3.org/2000/svg"
   xmlns="http://www.w3.org/2000/svg"
   viewBox="0 0 60 35"
   height="35"
   width="60"
   xml:space="preserve"
   version="1.1"
   id="svg2"><metadata
     id="metadata8"><rdf:RDF><cc:Work
         rdf:about=""><dc:format>image/svg+xml</dc:format><dc:type
           rdf:resource="http://purl.org/dc/dcmitype/StillImage" /></cc:Work></rdf:RDF></metadata><defs
     id="defs6" /><g
     transform="matrix(1.25,0,0,-1.25,0,35)"
     id="g10"><g
       transform="scale(0.1,0.1)"
       id="g12"><path
         id="path14"
         style="fill:#087bbb;fill-opacity:1;fill-rule:nonzero;stroke:none"
         d="M 5.66016,159.199 145.469,272.25 l 322.769,0 -115.699,-113.051 -346.87884,0" /><path
         id="path16"
         style="fill:none;stroke:#ffffff;stroke-width:4;stroke-linecap:butt;stroke-linejoin:miter;stroke-miterlimit:4;stroke-dasharray:none;stroke-opacity:1"
         d="m 5.66016,159.199 139.80884,113.047 322.769,0 -115.699,-113.047 -346.87884,0 z" /><path
         id="path18"
         style="fill:#087bbb;fill-opacity:1;fill-rule:nonzero;stroke:none"
         d="m 352.539,14.8984 115.699,117.8906 0,139.262 -115.699,-112.852 0,-144.3006" /><path
         id="path20"
         style="fill:none;stroke:#ffffff;stroke-width:4;stroke-linecap:butt;stroke-linejoin:miter;stroke-miterlimit:4;stroke-dasharray:none;stroke-opacity:1"
         d="m 352.539,14.8984 115.699,117.8986 0,139.25 -115.699,-112.848 0,-144.3006 z" /><path
         id="path22"
         style="fill:#087bbb;fill-opacity:1;fill-rule:nonzero;stroke:none"
         d="m 6.12891,14.7891 346.41,0 0,144.41 -346.41,0 0,-144.41 z" /><path
         id="path24"
         style="fill:none;stroke:#ffffff;stroke-width:4;stroke-linecap:butt;stroke-linejoin:miter;stroke-miterlimit:4;stroke-dasharray:none;stroke-opacity:1"
         d="m 6.12891,14.7891 346.41,0 0,144.41 -346.41,0 0,-144.41 z" /><g
         transform="scale(10,10)"
         id="g26"><text
           id="text28"
           style="font-variant:normal;font-weight:bold;font-size:6.82213593px;font-family:Helvetica;-inkscape-font-specification:Helvetica-Bold;writing-mode:lr-tb;fill:#ffffff;fill-opacity:1;fill-rule:nonzero;stroke:none"
           transform="matrix(0.74518053,0,-0.66686278,-0.57354469,8.47383,20.1332)"><tspan
             id="tspan30"
             y="0"
             x="0">W</tspan></text>
<text
           id="text32"
           style="font-variant:normal;font-weight:bold;font-size:6.8222847px;font-family:Helvetica;-inkscape-font-specification:Helvetica-Bold;writing-mode:lr-tb;fill:#ffffff;fill-opacity:1;fill-rule:nonzero;stroke:none"
           transform="matrix(0.74516371,0,-0.66688158,-0.57356085,32.9461,19.7289)"><tspan
             id="tspan34"
             y="0"
             x="0">E</tspan></text>
<text
           id="text36"
           style="font-variant:normal;font-weight:bold;font-size:6.82213593px;font-family:Helvetica;-inkscape-font-specification:Helvetica-Bold;writing-mode:lr-tb;fill:#ffffff;fill-opacity:1;fill-rule:nonzero;stroke:none"
           transform="matrix(0.74518053,0,-0.66686278,-0.57354469,16.725,16.3141)"><tspan
             id="tspan38"
             y="0"
             x="0">S</tspan><tspan
             id="tspan40"
             y="-13.343537"
             x="-0.38355833">N</tspan></text>
</g><path
         id="path42"
         style="fill:#ffffff;fill-opacity:1;fill-rule:nonzero;stroke:none"
         d="m 259.961,215.68 c -3.512,-3.078 -13.32,-5.578 -21.84,-5.578 -8.512,0 -12.57,2.5 -9.019,5.578 3.519,3.09 13.32,5.59 21.839,5.59 8.508,0 12.579,-2.5 9.02,-5.59" /><path
         id="path44"
         style="fill:#ffffff;fill-opacity:1;fill-rule:nonzero;stroke:none"
         d="M 241.48,218.18 274.648,241.859 254.02,218.18" /><path
         id="path46"
         style="fill:#ffffff;fill-opacity:1;fill-rule:nonzero;stroke:none"
         d="M 237.23,214.43 216.328,190.762 249.73,214.43" /><path
         id="path48"
         style="fill:#ffffff;fill-opacity:1;fill-rule:nonzero;stroke:none"
         d="m 235.23,213.539 -62.652,2.223 67.852,2.347" /><path
         id="path50"
         style="fill:#ffffff;fill-opacity:1;fill-rule:nonzero;stroke:none"
         d="m 245.512,213.539 67.726,2.223 -62.539,2.347" /><path
         id="path52"
         style="fill:#ffffff;fill-opacity:1;fill-rule:nonzero;stroke:none"
         d="m 240.121,212.398 -33.793,-6.519 28.594,9.73" /><path
         id="path54"
         style="fill:#ffffff;fill-opacity:1;fill-rule:nonzero;stroke:none"
         d="m 250.391,215.059 32.89,10.902 -38.082,-7.699" /><path
         id="path56"
         style="fill:#ffffff;fill-opacity:1;fill-rule:nonzero;stroke:none"
         d="m 253.238,215.41 7.313,-10.469 -19.813,7.27" /><path
         id="path58"
         style="fill:#ffffff;fill-opacity:1;fill-rule:nonzero;stroke:none"
         d="m 248.98,218.07 -20.269,7.418 7.769,-10.629" /><path
         id="path60"
         style="fill:none;stroke:#ffffff;stroke-width:4;stroke-linecap:butt;stroke-linejoin:miter;stroke-miterlimit:1;stroke-dasharray:none;stroke-opacity:1"
         d="m 298.52,223.656 c 3.281,-10.359 -18.872,-22.968 -49.461,-28.25 -30.579,-5.269 -58.008,-1.168 -61.289,9.18 -3.282,10.312 18.871,22.973 49.46,28.242 30.579,5.281 58.04,1.18 61.29,-9.172 z" /></g></g></svg>