<?xml version="1.0" encoding="UTF-8" standalone="no"?>
<svg
   xmlns:dc="http://purl.org/dc/elements/1.1/"
   xmlns:cc="http://creativecommons.org/ns#"
   xmlns:rdf="http://www.w3.org/1999/02/22-rdf-syntax-ns#"
   xmlns:svg="http://www.w3.org/2000/svg"
   xmlns="http://www.w3.org/2000/svg"
   viewBox="0 0 46.25 35"
   height="35"
   width="46.25"
   xml:space="preserve"
   version="1.1"
   id="svg2"><metadata
     id="metadata8"><rdf:RDF><cc:Work
         rdf:about=""><dc:format>image/svg+xml</dc:format><dc:type
           rdf:resource="http://purl.org/dc/dcmitype/StillImage" /></cc:Work></rdf:RDF></metadata><defs
     id="defs6"><clipPath
       id="clipPath18"
       clipPathUnits="userSpaceOnUse"><path
         id="path20"
         d="M 0,10 0,277 370,277 370,10 0,10 Z" /></clipPath></defs><g
     transform="matrix(1.25,0,0,-1.25,0,35)"
     id="g10"><g
       transform="scale(0.1,0.1)"
       id="g12"><g
         id="g14"><g
           clip-path="url(#clipPath18)"
           id="g16"><path
             id="path22"
             style="fill:#036998;fill-opacity:1;fill-rule:nonzero;stroke:none"
             d="m 4.83984,14.8086 336.48,0 0,232.27 -336.48,0 0,-232.27 z" /><path
             id="path24"
             style="fill:none;stroke:#ffffff;stroke-width:3.99993992;stroke-linecap:butt;stroke-linejoin:miter;stroke-miterlimit:4;stroke-dasharray:none;stroke-opacity:1"
             d="m 4.83984,14.8086 336.48,0 0,232.27 -336.48,0 0,-232.27 z" /><path
             id="path26"
             style="fill:#036998;fill-opacity:1;fill-rule:nonzero;stroke:none"
             d="m 4.83984,247.078 25.39066,25.391 336.5315,0 -25.434,-25.391 -336.48816,0" /><path
             id="path28"
             style="fill:none;stroke:#ffffff;stroke-width:3.99993992;stroke-linecap:butt;stroke-linejoin:miter;stroke-miterlimit:4;stroke-dasharray:none;stroke-opacity:1"
             d="m 4.83984,247.078 25.39066,25.391 336.5315,0 -25.434,-25.391 -336.48816,0 z" /><path
             id="path30"
             style="fill:#036998;fill-opacity:1;fill-rule:nonzero;stroke:none"
             d="m 341.328,14.8086 25.434,25.3906 0,232.2698 -25.434,-25.391 0,-232.2694" /><path
             id="path32"
             style="fill:none;stroke:#ffffff;stroke-width:3.99993992;stroke-linecap:butt;stroke-linejoin:miter;stroke-miterlimit:4;stroke-dasharray:none;stroke-opacity:1"
             d="m 341.328,14.8086 25.434,25.3906 0,232.2698 -25.434,-25.391 0,-232.2694 z" /><path
             id="path34"
             style="fill:#ffffff;fill-opacity:1;fill-rule:nonzero;stroke:none"
             d="m 201.52,105.629 c 7.39,7.621 9.851,20.242 9.851,32.851 0,12.661 -2.461,25.282 -9.851,32.899 l 9.851,17.691 c 9.879,-12.66 17.258,-30.351 14.801,-50.59 0,-20.191 -4.922,-37.89 -14.801,-50.4995 l -9.851,17.6485" /><path
             id="path36"
             style="fill:#ffffff;fill-opacity:1;fill-rule:nonzero;stroke:none"
             d="m 258.16,93.0195 c 7.391,10.1095 9.891,25.2695 9.891,42.9605 0,15.161 -2.5,32.86 -9.891,42.969 l 9.891,20.199 c 9.84,-17.699 14.758,-40.429 14.758,-63.168 0,-22.73 -4.918,-45.4995 -14.758,-63.1987 l -9.891,20.2382" /><path
             id="path38"
             style="fill:#ffffff;fill-opacity:1;fill-rule:nonzero;stroke:none"
             d="m 142.422,105.629 c -4.922,7.621 -9.844,20.242 -9.844,32.851 0,12.661 4.922,25.282 9.844,32.899 l -9.844,17.691 c -9.848,-12.66 -14.769,-30.351 -14.769,-50.59 0,-20.191 4.921,-37.89 14.769,-50.4995 l 9.844,17.6485" /><path
             id="path40"
             style="fill:#ffffff;fill-opacity:1;fill-rule:nonzero;stroke:none"
             d="m 93.1602,93.0195 c -4.9219,10.1095 -9.8399,25.2695 -9.8399,42.9605 0,15.161 4.918,32.86 9.8399,42.969 l -9.8399,20.199 C 73.4805,181.449 68.5508,158.719 68.5508,135.98 c 0,-22.73 4.9297,-45.4995 14.7695,-63.1987 l 9.8399,20.2382" /><path
             id="path42"
             style="fill:none;stroke:#ffffff;stroke-width:5;stroke-linecap:butt;stroke-linejoin:miter;stroke-miterlimit:1;stroke-dasharray:none;stroke-opacity:1"
             d="m 170.98,130.91 0,-75.7889" /><path
             id="path44"
             style="fill:#ffffff;fill-opacity:1;fill-rule:nonzero;stroke:none"
             d="m 176.641,138.641 c 0,-3.442 -2.77,-6.25 -6.211,-6.25 -3.442,0 -6.25,2.808 -6.25,6.25 0,3.437 2.808,6.211 6.25,6.211 3.441,0 6.211,-2.774 6.211,-6.211" /></g></g></g></g></svg>