<?xml version="1.0" encoding="UTF-8" standalone="no"?>
<svg
   xmlns:dc="http://purl.org/dc/elements/1.1/"
   xmlns:cc="http://creativecommons.org/ns#"
   xmlns:rdf="http://www.w3.org/1999/02/22-rdf-syntax-ns#"
   xmlns:svg="http://www.w3.org/2000/svg"
   xmlns="http://www.w3.org/2000/svg"
   xmlns:sodipodi="http://sodipodi.sourceforge.net/DTD/sodipodi-0.dtd"
   xmlns:inkscape="http://www.inkscape.org/namespaces/inkscape"
   viewBox="0 0 45 36.921737"
   height="36.921738"
   width="45"
   xml:space="preserve"
   version="1.1"
   id="svg2"
   inkscape:version="0.91 r13725"
   sodipodi:docname="wirelessbridge.svg"><sodipodi:namedview
     pagecolor="#ffffff"
     bordercolor="#666666"
     borderopacity="1"
     objecttolerance="10"
     gridtolerance="10"
     guidetolerance="10"
     inkscape:pageopacity="0"
     inkscape:pageshadow="2"
     inkscape:window-width="448"
     inkscape:window-height="438"
     id="namedview21"
     showgrid="false"
     inkscape:zoom="6.3826913"
     inkscape:cx="22.5875"
     inkscape:cy="18.487501"
     inkscape:window-x="0"
     inkscape:window-y="23"
     inkscape:window-maximized="0"
     inkscape:current-layer="svg2" /><metadata
     id="metadata8"><rdf:RDF><cc:Work
         rdf:about=""><dc:format>image/svg+xml</dc:format><dc:type
           rdf:resource="http://purl.org/dc/dcmitype/StillImage" /></cc:Work></rdf:RDF></metadata><defs
     id="defs6"><clipPath
       id="clipPath18"
       clipPathUnits="userSpaceOnUse"><path
         id="path20"
         d="M 0,0 0,296 360,296 360,0 0,0 Z"
         inkscape:connector-curvature="0" /></clipPath></defs><g
     transform="matrix(1.25,0,0,-1.25,0,36.921736)"
     id="g10"><g
       transform="scale(0.1,0.1)"
       id="g12"><g
         id="g14"><g
           clip-path="url(#clipPath18)"
           id="g16"><path
             id="path22"
             style="fill:#036998;fill-opacity:1;fill-rule:nonzero;stroke:none"
             d="M 82.8281,281.855 4.00781,241.121 C 196.656,118.762 309.879,248.926 309.879,248.926 195.367,179.949 82.8281,281.855 82.8281,281.855"
             inkscape:connector-curvature="0" /><path
             id="path24"
             style="fill:none;stroke:#ffffff;stroke-width:3.99993992;stroke-linecap:butt;stroke-linejoin:miter;stroke-miterlimit:4;stroke-dasharray:none;stroke-opacity:1"
             d="M 82.8281,281.855 4.00781,241.121 C 196.656,118.762 309.879,248.926 309.879,248.926 195.367,179.949 82.8281,281.855 82.8281,281.855 Z"
             inkscape:connector-curvature="0" /><path
             id="path26"
             style="fill:#036998;fill-opacity:1;fill-rule:nonzero;stroke:none"
             d="M 359.352,294.48 C 346.344,268.445 308.59,247.637 308.59,247.637 l 0,-243.41044 50.762,41.65234 0,248.6011"
             inkscape:connector-curvature="0" /><path
             id="path28"
             style="fill:none;stroke:#ffffff;stroke-width:3.99993992;stroke-linecap:butt;stroke-linejoin:miter;stroke-miterlimit:4;stroke-dasharray:none;stroke-opacity:1"
             d="M 359.352,294.48 C 346.344,268.445 308.59,247.637 308.59,247.637 l 0,-243.41044 50.762,41.65234 0,248.6011 z"
             inkscape:connector-curvature="0" /><path
             id="path30"
             style="fill:#036998;fill-opacity:1;fill-rule:nonzero;stroke:none"
             d="m 308.59,247.637 c 0,0 -111.934,-128.875 -304.58219,-6.516 l 0,-236.89444 304.58219,0 0,243.41044"
             inkscape:connector-curvature="0" /><path
             id="path32"
             style="fill:none;stroke:#ffffff;stroke-width:3.99993992;stroke-linecap:butt;stroke-linejoin:miter;stroke-miterlimit:4;stroke-dasharray:none;stroke-opacity:1"
             d="m 308.59,247.637 c 0,0 -111.934,-128.875 -304.58219,-6.516 l 0,-236.89444 304.58219,0 0,243.41044 z"
             inkscape:connector-curvature="0" /><path
             id="path34"
             style="fill:none;stroke:#000000;stroke-width:4.49996996;stroke-linecap:round;stroke-linejoin:miter;stroke-miterlimit:1;stroke-dasharray:none;stroke-opacity:1"
             d="m 286.949,99.8242 c 0,0 -19.57,-50.3047 -43.105,0.1563 -23.496,50.4295 -43.106,0.1095 -43.106,0.1095 0,0 -19.55,-50.3556 -43.058,0.086 -23.504,50.449 -42.996,-0.3127 -42.996,-0.3127 0,0 -19.5121,-50.3438 -43.0473,0.1172 -23.4961,50.4295 -43.0078,0.1365 -43.0078,0.1365"
             inkscape:connector-curvature="0" /><path
             id="path36"
             style="fill:none;stroke:#000000;stroke-width:8.99993992;stroke-linecap:round;stroke-linejoin:miter;stroke-miterlimit:1;stroke-dasharray:none;stroke-opacity:1"
             d="m 28.6289,99.8242 c 0,0 19.5703,-50.3047 43.1055,0.1563 23.4961,50.4295 43.1056,0.1095 43.1056,0.1095 0,0 19.551,-50.3556 43.055,0.086 23.507,50.449 43,-0.3127 43,-0.3127 0,0 19.531,-50.3438 43.046,0.1172 23.516,50.4295 43.008,0.1365 43.008,0.1365"
             inkscape:connector-curvature="0" /><path
             id="path38"
             style="fill:none;stroke:#ffffff;stroke-width:4.49996996;stroke-linecap:round;stroke-linejoin:miter;stroke-miterlimit:1;stroke-dasharray:none;stroke-opacity:1"
             d="m 282.418,99.8242 c 0,0 -19.57,-50.3047 -43.086,0.1563 -23.516,50.4295 -43.125,0.1095 -43.125,0.1095 0,0 -19.551,-50.3556 -43.059,0.086 -23.503,50.449 -42.996,-0.3049 -42.996,-0.3049 0,0 -19.5114,-50.3516 -43.0465,0.1094 -23.4961,50.4295 -43.0078,0.1365 -43.0078,0.1365"
             inkscape:connector-curvature="0" /><path
             id="path40"
             style="fill:none;stroke:#ffffff;stroke-width:8.99993992;stroke-linecap:round;stroke-linejoin:miter;stroke-miterlimit:1;stroke-dasharray:none;stroke-opacity:1"
             d="m 24.0977,99.8242 c 0,0 19.5781,-50.3047 43.1054,0.1563 23.4961,50.4295 43.1059,0.1095 43.1059,0.1095 0,0 19.55,-50.3556 43.054,0.086 23.508,50.449 43,-0.3049 43,-0.3049 0,0 19.512,-50.3516 43.047,0.1094 23.516,50.4295 43.008,0.1365 43.008,0.1365"
             inkscape:connector-curvature="0" /></g></g></g></g></svg>