<?xml version="1.0" encoding="UTF-8" standalone="no"?>
<svg
   xmlns:dc="http://purl.org/dc/elements/1.1/"
   xmlns:cc="http://creativecommons.org/ns#"
   xmlns:rdf="http://www.w3.org/1999/02/22-rdf-syntax-ns#"
   xmlns:svg="http://www.w3.org/2000/svg"
   xmlns="http://www.w3.org/2000/svg"
   viewBox="0 0 47.5 48.75"
   height="48.75"
   width="47.5"
   xml:space="preserve"
   version="1.1"
   id="svg2"><metadata
     id="metadata8"><rdf:RDF><cc:Work
         rdf:about=""><dc:format>image/svg+xml</dc:format><dc:type
           rdf:resource="http://purl.org/dc/dcmitype/StillImage" /></cc:Work></rdf:RDF></metadata><defs
     id="defs6" /><g
     transform="matrix(1.25,0,0,-1.25,0,48.75)"
     id="g10"><g
       transform="scale(0.1,0.1)"
       id="g12"><path
         id="path14"
         style="fill:none;stroke:#1286be;stroke-width:4;stroke-linecap:butt;stroke-linejoin:miter;stroke-miterlimit:4;stroke-dasharray:none;stroke-opacity:1"
         d="m 302.031,209.051 0,163.59" /><path
         id="path16"
         style="fill:none;stroke:#1286be;stroke-width:20;stroke-linecap:butt;stroke-linejoin:miter;stroke-miterlimit:4;stroke-dasharray:none;stroke-opacity:1"
         d="m 302.031,211.711 0,112.223" /><path
         id="path18"
         style="fill:#000000;fill-opacity:1;fill-rule:nonzero;stroke:none"
         d="m 296.762,356.941 10,0 0,20 -10,0 0,-20 z" /><path
         id="path20"
         style="fill:none;stroke:#1286be;stroke-width:10;stroke-linecap:butt;stroke-linejoin:miter;stroke-miterlimit:4;stroke-dasharray:none;stroke-opacity:1"
         d="m 296.762,356.941 10,0 0,20 -10,0 0,-20 z" /><path
         id="path22"
         style="fill:none;stroke:#1286be;stroke-width:4;stroke-linecap:butt;stroke-linejoin:miter;stroke-miterlimit:4;stroke-dasharray:none;stroke-opacity:1"
         d="m 59.4883,209.051 0,163.59" /><path
         id="path24"
         style="fill:none;stroke:#1286be;stroke-width:20;stroke-linecap:butt;stroke-linejoin:miter;stroke-miterlimit:4;stroke-dasharray:none;stroke-opacity:1"
         d="m 59.4883,211.711 0,112.223" /><path
         id="path26"
         style="fill:#000000;fill-opacity:1;fill-rule:nonzero;stroke:none"
         d="m 54.2617,356.941 10,0 0,20 -10,0 0,-20 z" /><path
         id="path28"
         style="fill:none;stroke:#1286be;stroke-width:10;stroke-linecap:butt;stroke-linejoin:miter;stroke-miterlimit:4;stroke-dasharray:none;stroke-opacity:1"
         d="m 54.2617,356.941 10,0 0,20 -10,0 0,-20 z" /><path
         id="path30"
         style="fill:#1286be;fill-opacity:1;fill-rule:nonzero;stroke:none"
         d="m 369.84,188.27 c 0,-39.489 -82.34,-71.52 -183.899,-71.52 -101.6012,0 -183.95272,32.031 -183.95272,71.52 l 0,-104.77 C 1.98828,44.0117 84.3398,11.9805 185.941,11.9805 287.5,11.9805 369.84,44.0117 369.84,83.5 l 0,104.77" /><path
         id="path32"
         style="fill:none;stroke:#ffffff;stroke-width:4;stroke-linecap:butt;stroke-linejoin:miter;stroke-miterlimit:4;stroke-dasharray:none;stroke-opacity:1"
         d="m 369.84,188.273 c 0,-39.492 -82.34,-71.531 -183.899,-71.531 -101.6012,0 -183.95272,32.039 -183.95272,71.531 l 0,-104.773 C 1.98828,44.0117 84.3398,11.9805 185.941,11.9805 287.5,11.9805 369.84,44.0117 369.84,83.5 l 0,104.773 z" /><path
         id="path34"
         style="fill:#1286be;fill-opacity:1;fill-rule:nonzero;stroke:none"
         d="m 185.941,116.75 c 101.559,0 183.899,32.031 183.899,71.52 0,39.531 -82.34,71.519 -183.899,71.519 -101.6012,0 -183.95272,-31.988 -183.95272,-71.519 0,-39.489 82.35152,-71.52 183.95272,-71.52" /><path
         id="path36"
         style="fill:none;stroke:#ffffff;stroke-width:4;stroke-linecap:butt;stroke-linejoin:miter;stroke-miterlimit:4;stroke-dasharray:none;stroke-opacity:1"
         d="m 185.941,116.742 c 101.559,0 183.899,32.039 183.899,71.531 0,39.528 -82.34,71.52 -183.899,71.52 -101.6012,0 -183.95272,-31.992 -183.95272,-71.52 0,-39.492 82.35152,-71.531 183.95272,-71.531 z" /><path
         id="path38"
         style="fill:#ffffff;fill-opacity:1;fill-rule:nonzero;stroke:none"
         d="M 143.91,216.238 159.102,193.469 101.68,180.18 114.219,190.648 25.4688,205.809 47.7305,222.488 133.398,208 143.91,216.238" /><path
         id="path40"
         style="fill:#ffffff;fill-opacity:1;fill-rule:nonzero;stroke:none"
         d="m 224.73,161 -10.39,23.48 51.789,10.348 -8.938,-8.039 86.289,-14.73 L 322.809,155.5 236.988,171.59 224.73,161" /><path
         id="path42"
         style="fill:#ffffff;fill-opacity:1;fill-rule:nonzero;stroke:none"
         d="m 196.41,228.699 58,15.86 0.711,-24.84 -14.531,2.769 -28.32,-23.519 -27,3.953 29.218,22.969 -18.078,2.808" /><path
         id="path44"
         style="fill:#ffffff;fill-opacity:1;fill-rule:nonzero;stroke:none"
         d="m 171.52,139.602 -55.231,-10.352 -2.07,25.539 15.902,-3.43 30.391,25.93 26.91,-4.527 -32.461,-28.321 16.559,-4.839" /></g></g></svg>