<?xml version="1.0" encoding="UTF-8" standalone="no"?>
<svg
   xmlns:dc="http://purl.org/dc/elements/1.1/"
   xmlns:cc="http://creativecommons.org/ns#"
   xmlns:rdf="http://www.w3.org/1999/02/22-rdf-syntax-ns#"
   xmlns:svg="http://www.w3.org/2000/svg"
   xmlns="http://www.w3.org/2000/svg"
   viewBox="0 0 45 38.75"
   height="38.75"
   width="45"
   xml:space="preserve"
   version="1.1"
   id="svg2"><metadata
     id="metadata8"><rdf:RDF><cc:Work
         rdf:about=""><dc:format>image/svg+xml</dc:format><dc:type
           rdf:resource="http://purl.org/dc/dcmitype/StillImage" /></cc:Work></rdf:RDF></metadata><defs
     id="defs6"><clipPath
       id="clipPath18"
       clipPathUnits="userSpaceOnUse"><path
         id="path20"
         d="M 0,9 0,306 360,306 360,9 0,9 Z" /></clipPath></defs><g
     transform="matrix(1.25,0,0,-1.25,0,38.75)"
     id="g10"><g
       transform="scale(0.1,0.1)"
       id="g12"><g
         id="g14"><g
           clip-path="url(#clipPath18)"
           id="g16"><path
             id="path22"
             style="fill:#036998;fill-opacity:1;fill-rule:nonzero;stroke:none"
             d="M 82.8086,291.855 4.01953,251.113 C 196.641,128.773 309.879,258.926 309.879,258.926 195.352,189.945 82.8086,291.855 82.8086,291.855" /><path
             id="path24"
             style="fill:none;stroke:#ffffff;stroke-width:3.99993992;stroke-linecap:butt;stroke-linejoin:miter;stroke-miterlimit:4;stroke-dasharray:none;stroke-opacity:1"
             d="M 82.8086,291.855 4.01953,251.113 C 196.641,128.773 309.879,258.926 309.879,258.926 195.352,189.945 82.8086,291.855 82.8086,291.855 Z" /><path
             id="path26"
             style="fill:#036998;fill-opacity:1;fill-rule:nonzero;stroke:none"
             d="m 359.34,304.473 c -13.012,-26.008 -50.75,-46.828 -50.75,-46.828 l 0,-243.4028 50.75,41.6406 0,248.5902" /><path
             id="path28"
             style="fill:none;stroke:#ffffff;stroke-width:3.99993992;stroke-linecap:butt;stroke-linejoin:miter;stroke-miterlimit:4;stroke-dasharray:none;stroke-opacity:1"
             d="m 359.34,304.473 c -13.012,-26.008 -50.75,-46.828 -50.75,-46.828 l 0,-243.4028 50.75,41.6406 0,248.5902 z" /><path
             id="path30"
             style="fill:#036998;fill-opacity:1;fill-rule:nonzero;stroke:none"
             d="m 308.59,257.645 c 0,0 -111.949,-128.872 -304.57047,-6.532 l 0,-236.8708 304.57047,0 0,243.4028" /><path
             id="path32"
             style="fill:none;stroke:#ffffff;stroke-width:3.99993992;stroke-linecap:butt;stroke-linejoin:miter;stroke-miterlimit:4;stroke-dasharray:none;stroke-opacity:1"
             d="m 308.59,257.645 c 0,0 -111.949,-128.872 -304.57047,-6.532 l 0,-236.8708 304.57047,0 0,243.4028 z" /><path
             id="path34"
             style="fill:none;stroke:#000000;stroke-width:4.49996996;stroke-linecap:round;stroke-linejoin:miter;stroke-miterlimit:1;stroke-dasharray:none;stroke-opacity:1"
             d="m 286.949,109.824 c 0,0 -19.57,-50.3084 -43.121,0.16 -23.476,50.43 -43.09,0.121 -43.09,0.121 0,0 -19.566,-50.3511 -43.039,0.071 -23.519,50.429 -43.008,-0.313 -43.008,-0.313 0,0 -19.5308,-50.3474 -43.0504,0.121 -23.5195,50.43 -43.0117,0.121 -43.0117,0.121" /><path
             id="path36"
             style="fill:none;stroke:#000000;stroke-width:8.99993992;stroke-linecap:round;stroke-linejoin:miter;stroke-miterlimit:1;stroke-dasharray:none;stroke-opacity:1"
             d="m 28.6289,109.824 c 0,0 19.5703,-50.3084 43.0899,0.16 23.5117,50.43 43.1212,0.121 43.1212,0.121 0,0 19.539,-50.3511 43.051,0.071 23.519,50.429 43.007,-0.313 43.007,-0.313 0,0 19.532,-50.3474 43.051,0.121 23.512,50.43 43,0.121 43,0.121" /><path
             id="path38"
             style="fill:none;stroke:#ffffff;stroke-width:4.49996996;stroke-linecap:round;stroke-linejoin:miter;stroke-miterlimit:1;stroke-dasharray:none;stroke-opacity:1"
             d="m 282.422,109.824 c 0,0 -19.57,-50.3084 -43.082,0.16 -23.52,50.43 -43.129,0.121 -43.129,0.121 0,0 -19.57,-50.3511 -43.051,0.071 -23.512,50.429 -43,-0.313 -43,-0.313 0,0 -19.5389,-50.3474 -43.0506,0.121 -23.5196,50.43 -43.0078,0.121 -43.0078,0.121" /><path
             id="path40"
             style="fill:none;stroke:#ffffff;stroke-width:8.99993992;stroke-linecap:round;stroke-linejoin:miter;stroke-miterlimit:1;stroke-dasharray:none;stroke-opacity:1"
             d="m 24.1016,109.824 c 0,0 19.5703,-50.3084 43.0898,0.16 23.5078,50.43 43.1176,0.121 43.1176,0.121 0,0 19.531,-50.3511 43.05,0.071 23.52,50.429 43.012,-0.313 43.012,-0.313 0,0 19.488,-50.3474 43.039,0.121 23.52,50.43 43.012,0.121 43.012,0.121" /></g></g></g></g></svg>