<?xml version="1.0" encoding="UTF-8" standalone="no"?>
<svg
   xmlns:dc="http://purl.org/dc/elements/1.1/"
   xmlns:cc="http://creativecommons.org/ns#"
   xmlns:rdf="http://www.w3.org/1999/02/22-rdf-syntax-ns#"
   xmlns:svg="http://www.w3.org/2000/svg"
   xmlns="http://www.w3.org/2000/svg"
   viewBox="0 0 22.8125 41.025002"
   height="41.025002"
   width="22.8125"
   xml:space="preserve"
   version="1.1"
   id="svg2"><metadata
     id="metadata8"><rdf:RDF><cc:Work
         rdf:about=""><dc:format>image/svg+xml</dc:format><dc:type
           rdf:resource="http://purl.org/dc/dcmitype/StillImage" /></cc:Work></rdf:RDF></metadata><defs
     id="defs6"><clipPath
       id="clipPath18"
       clipPathUnits="userSpaceOnUse"><path
         id="path20"
         d="M 0,0 0,328 180,328 180,0 0,0 Z" /></clipPath></defs><g
     transform="matrix(1.25,0,0,-1.25,0,41.025)"
     id="g10"><g
       transform="scale(0.1,0.1)"
       id="g12"><g
         id="g14"><g
           clip-path="url(#clipPath18)"
           id="g16"><path
             id="path22"
             style="fill:#036998;fill-opacity:1;fill-rule:nonzero;stroke:none"
             d="m 18.4805,322.914 159.6285,0 -14.062,-16.016 -159.62903,0 14.06253,16.016" /><path
             id="path24"
             style="fill:none;stroke:#ffffff;stroke-width:3.99993992;stroke-linecap:butt;stroke-linejoin:miter;stroke-miterlimit:4;stroke-dasharray:none;stroke-opacity:1"
             d="m 18.4805,322.914 159.6285,0 -14.062,-16.016 -159.62903,0 14.06253,16.016 z" /><path
             id="path26"
             style="fill:#036998;fill-opacity:1;fill-rule:nonzero;stroke:none"
             d="m 4.69141,5.33203 159.063,0 0,301.215 -159.063,0 0,-301.215 z" /><path
             id="path28"
             style="fill:none;stroke:#ffffff;stroke-width:3.99993992;stroke-linecap:butt;stroke-linejoin:miter;stroke-miterlimit:4;stroke-dasharray:none;stroke-opacity:1"
             d="m 4.69141,5.33203 159.063,0 0,301.215 -159.063,0 0,-301.215 z" /><path
             id="path30"
             style="fill:#036998;fill-opacity:1;fill-rule:nonzero;stroke:none"
             d="m 128.871,23.6719 c 15.957,0 18.32,16.5625 18.32,16.5625 0,0 0,173.1486 0,188.5196 0,20.098 -18.925,19.512 -18.925,19.512 0,0 -78.0472,0 -89.2777,0 -11.2305,0 -15.957,-15.371 -15.957,-15.371 0,0 0,-176.1177 0,-190.2973 0,-14.1993 14.7656,-18.9258 14.7656,-18.9258 l 91.0741,0" /><path
             id="path32"
             style="fill:none;stroke:#ffffff;stroke-width:3.99993992;stroke-linecap:butt;stroke-linejoin:miter;stroke-miterlimit:4;stroke-dasharray:none;stroke-opacity:1"
             d="m 128.871,23.6719 c 15.957,0 18.32,16.5625 18.32,16.5625 0,0 0,173.1486 0,188.5196 0,20.098 -18.925,19.512 -18.925,19.512 0,0 -78.0472,0 -89.2777,0 -11.2305,0 -15.957,-15.371 -15.957,-15.371 0,0 0,-176.1177 0,-190.2973 0,-14.1993 14.7656,-18.9258 14.7656,-18.9258 l 91.0741,0 z" /><path
             id="path34"
             style="fill:#036998;fill-opacity:1;fill-rule:nonzero;stroke:none"
             d="m 178.051,322.914 0,-301.2148 -14.297,-16.36717 0,301.21497 14.297,16.367" /><path
             id="path36"
             style="fill:none;stroke:#ffffff;stroke-width:3.99993992;stroke-linecap:butt;stroke-linejoin:miter;stroke-miterlimit:4;stroke-dasharray:none;stroke-opacity:1"
             d="m 178.051,322.914 0,-301.2148 -14.297,-16.36717 0,301.21497 14.297,16.367 z" /><path
             id="path38"
             style="fill:#036998;fill-opacity:1;fill-rule:nonzero;stroke:none"
             d="m 130.98,285.258 c -2.539,0 -4.589,-3.731 -4.589,-8.34 0,-4.59 2.05,-8.32 4.589,-8.32 2.52,0 4.571,3.73 4.571,8.32 0,4.609 -2.051,8.34 -4.571,8.34" /><path
             id="path40"
             style="fill:none;stroke:#ffffff;stroke-width:3.99993992;stroke-linecap:butt;stroke-linejoin:miter;stroke-miterlimit:4;stroke-dasharray:none;stroke-opacity:1"
             d="m 130.98,285.258 c -2.539,0 -4.589,-3.731 -4.589,-8.34 0,-4.59 2.05,-8.32 4.589,-8.32 2.52,0 4.571,3.73 4.571,8.32 0,4.609 -2.051,8.34 -4.571,8.34 z" /><path
             id="path42"
             style="fill:#036998;fill-opacity:1;fill-rule:nonzero;stroke:none"
             d="m 97.6406,285.258 c -2.539,0 -4.5898,-3.731 -4.5898,-8.34 0,-4.59 2.0508,-8.32 4.5898,-8.32 2.5394,0 4.5894,3.73 4.5894,8.32 0,4.609 -2.05,8.34 -4.5894,8.34" /><path
             id="path44"
             style="fill:none;stroke:#ffffff;stroke-width:3.99993992;stroke-linecap:butt;stroke-linejoin:miter;stroke-miterlimit:4;stroke-dasharray:none;stroke-opacity:1"
             d="m 97.6406,285.258 c -2.539,0 -4.5898,-3.731 -4.5898,-8.34 0,-4.59 2.0508,-8.32 4.5898,-8.32 2.5394,0 4.5894,3.73 4.5894,8.32 0,4.609 -2.05,8.34 -4.5894,8.34 z" /><path
             id="path46"
             style="fill:#036998;fill-opacity:1;fill-rule:nonzero;stroke:none"
             d="m 64.3203,285.258 c -2.539,0 -4.5898,-3.731 -4.5898,-8.34 0,-4.59 2.0508,-8.32 4.5898,-8.32 2.5195,0 4.5703,3.73 4.5703,8.32 0,4.609 -2.0508,8.34 -4.5703,8.34" /><path
             id="path48"
             style="fill:none;stroke:#ffffff;stroke-width:3.99993992;stroke-linecap:butt;stroke-linejoin:miter;stroke-miterlimit:4;stroke-dasharray:none;stroke-opacity:1"
             d="m 64.3203,285.258 c -2.539,0 -4.5898,-3.731 -4.5898,-8.34 0,-4.59 2.0508,-8.32 4.5898,-8.32 2.5195,0 4.5703,3.73 4.5703,8.32 0,4.609 -2.0508,8.34 -4.5703,8.34 z" /><path
             id="path50"
             style="fill:#036998;fill-opacity:1;fill-rule:nonzero;stroke:none"
             d="m 30.9805,285.258 c -2.5391,0 -4.5899,-3.731 -4.5899,-8.34 0,-4.59 2.0508,-8.32 4.5899,-8.32 2.539,0 4.5898,3.73 4.5898,8.32 0,4.609 -2.0508,8.34 -4.5898,8.34" /><path
             id="path52"
             style="fill:none;stroke:#ffffff;stroke-width:3.99993992;stroke-linecap:butt;stroke-linejoin:miter;stroke-miterlimit:4;stroke-dasharray:none;stroke-opacity:1"
             d="m 30.9805,285.258 c -2.5391,0 -4.5899,-3.731 -4.5899,-8.34 0,-4.59 2.0508,-8.32 4.5899,-8.32 2.539,0 4.5898,3.73 4.5898,8.32 0,4.609 -2.0508,8.34 -4.5898,8.34 z" /></g></g></g></g></svg>