<?xml version="1.0" encoding="UTF-8" standalone="no"?>
<svg
   xmlns:dc="http://purl.org/dc/elements/1.1/"
   xmlns:cc="http://creativecommons.org/ns#"
   xmlns:rdf="http://www.w3.org/1999/02/22-rdf-syntax-ns#"
   xmlns:svg="http://www.w3.org/2000/svg"
   xmlns="http://www.w3.org/2000/svg"
   viewBox="0 0 22.5 42.5"
   height="42.5"
   width="22.5"
   xml:space="preserve"
   version="1.1"
   id="svg2"><metadata
     id="metadata8"><rdf:RDF><cc:Work
         rdf:about=""><dc:format>image/svg+xml</dc:format><dc:type
           rdf:resource="http://purl.org/dc/dcmitype/StillImage" /></cc:Work></rdf:RDF></metadata><defs
     id="defs6"><clipPath
       id="clipPath18"
       clipPathUnits="userSpaceOnUse"><path
         id="path20"
         d="M 0,9 0,338 180,338 180,9 0,9 Z" /></clipPath></defs><g
     transform="matrix(1.25,0,0,-1.25,0,42.5)"
     id="g10"><g
       transform="scale(0.1,0.1)"
       id="g12"><g
         id="g14"><g
           clip-path="url(#clipPath18)"
           id="g16"><path
             id="path22"
             style="fill:#036998;fill-opacity:1;fill-rule:nonzero;stroke:none"
             d="m 18.4805,332.918 159.6405,0 -14.062,-16.012 -159.64884,0 14.07034,16.012" /><path
             id="path24"
             style="fill:none;stroke:#ffffff;stroke-width:3.99993992;stroke-linecap:butt;stroke-linejoin:miter;stroke-miterlimit:4;stroke-dasharray:none;stroke-opacity:1"
             d="m 18.4805,332.918 159.6405,0 -14.062,-16.012 -159.64884,0 14.07034,16.012 z" /><path
             id="path26"
             style="fill:#036998;fill-opacity:1;fill-rule:nonzero;stroke:none"
             d="m 4.69141,15.3359 159.059,0 0,301.211 -159.059,0 0,-301.211 z" /><path
             id="path28"
             style="fill:none;stroke:#ffffff;stroke-width:3.99993992;stroke-linecap:butt;stroke-linejoin:miter;stroke-miterlimit:4;stroke-dasharray:none;stroke-opacity:1"
             d="m 4.69141,15.3359 159.059,0 0,301.211 -159.059,0 0,-301.211 z" /><path
             id="path30"
             style="fill:#036998;fill-opacity:1;fill-rule:nonzero;stroke:none"
             d="m 128.871,33.6563 c 15.969,0 18.32,16.5703 18.32,16.5703 l 0,188.5114 c 0,20.121 -18.91,19.532 -18.91,19.532 l -89.3005,0 c -11.211,0 -15.9297,-15.391 -15.9297,-15.391 l 0,-190.2696 c 0,-14.2227 14.7578,-18.9531 14.7578,-18.9531 l 91.0624,0" /><path
             id="path32"
             style="fill:none;stroke:#ffffff;stroke-width:3.99993992;stroke-linecap:butt;stroke-linejoin:miter;stroke-miterlimit:4;stroke-dasharray:none;stroke-opacity:1"
             d="m 128.871,33.6563 c 15.969,0 18.32,16.5703 18.32,16.5703 l 0,188.5114 c 0,20.121 -18.91,19.532 -18.91,19.532 l -89.3005,0 c -11.211,0 -15.9297,-15.391 -15.9297,-15.391 l 0,-190.2696 c 0,-14.2227 14.7578,-18.9531 14.7578,-18.9531 l 91.0624,0 z" /><path
             id="path34"
             style="fill:#036998;fill-opacity:1;fill-rule:nonzero;stroke:none"
             d="m 178.051,332.918 0,-301.211 -14.301,-16.3711 0,301.2111 14.301,16.371" /><path
             id="path36"
             style="fill:none;stroke:#ffffff;stroke-width:3.99993992;stroke-linecap:butt;stroke-linejoin:miter;stroke-miterlimit:4;stroke-dasharray:none;stroke-opacity:1"
             d="m 178.051,332.918 0,-301.211 -14.301,-16.3711 0,301.2111 14.301,16.371 z" /><path
             id="path38"
             style="fill:#036998;fill-opacity:1;fill-rule:nonzero;stroke:none"
             d="m 130.98,295.27 c -2.539,0 -4.57,-3.75 -4.57,-8.364 0,-4.57 2.031,-8.32 4.57,-8.32 2.54,0 4.571,3.75 4.571,8.32 0,4.614 -2.031,8.364 -4.571,8.364" /><path
             id="path40"
             style="fill:none;stroke:#ffffff;stroke-width:3.99993992;stroke-linecap:butt;stroke-linejoin:miter;stroke-miterlimit:4;stroke-dasharray:none;stroke-opacity:1"
             d="m 130.98,295.27 c -2.539,0 -4.57,-3.75 -4.57,-8.364 0,-4.57 2.031,-8.32 4.57,-8.32 2.54,0 4.571,3.75 4.571,8.32 0,4.614 -2.031,8.364 -4.571,8.364 z" /><path
             id="path42"
             style="fill:#036998;fill-opacity:1;fill-rule:nonzero;stroke:none"
             d="m 97.6602,295.27 c -2.5391,0 -4.6094,-3.75 -4.6094,-8.364 0,-4.57 2.0703,-8.32 4.6094,-8.32 2.5388,0 4.5698,3.75 4.5698,8.32 0,4.614 -2.031,8.364 -4.5698,8.364" /><path
             id="path44"
             style="fill:none;stroke:#ffffff;stroke-width:3.99993992;stroke-linecap:butt;stroke-linejoin:miter;stroke-miterlimit:4;stroke-dasharray:none;stroke-opacity:1"
             d="m 97.6602,295.27 c -2.5391,0 -4.6094,-3.75 -4.6094,-8.364 0,-4.57 2.0703,-8.32 4.6094,-8.32 2.5388,0 4.5698,3.75 4.5698,8.32 0,4.614 -2.031,8.364 -4.5698,8.364 z" /><path
             id="path46"
             style="fill:#036998;fill-opacity:1;fill-rule:nonzero;stroke:none"
             d="m 64.3398,295.27 c -2.539,0 -4.6093,-3.75 -4.6093,-8.364 0,-4.57 2.0703,-8.32 4.6093,-8.32 2.5,0 4.5704,3.75 4.5704,8.32 0,4.614 -2.0704,8.364 -4.5704,8.364" /><path
             id="path48"
             style="fill:none;stroke:#ffffff;stroke-width:3.99993992;stroke-linecap:butt;stroke-linejoin:miter;stroke-miterlimit:4;stroke-dasharray:none;stroke-opacity:1"
             d="m 64.3398,295.27 c -2.539,0 -4.6093,-3.75 -4.6093,-8.364 0,-4.57 2.0703,-8.32 4.6093,-8.32 2.5,0 4.5704,3.75 4.5704,8.32 0,4.614 -2.0704,8.364 -4.5704,8.364 z" /><path
             id="path50"
             style="fill:#036998;fill-opacity:1;fill-rule:nonzero;stroke:none"
             d="m 30.9805,295.27 c -2.5391,0 -4.5703,-3.75 -4.5703,-8.364 0,-4.57 2.0312,-8.32 4.5703,-8.32 2.539,0 4.6093,3.75 4.6093,8.32 0,4.614 -2.0703,8.364 -4.6093,8.364" /><path
             id="path52"
             style="fill:none;stroke:#ffffff;stroke-width:3.99993992;stroke-linecap:butt;stroke-linejoin:miter;stroke-miterlimit:4;stroke-dasharray:none;stroke-opacity:1"
             d="m 30.9805,295.27 c -2.5391,0 -4.5703,-3.75 -4.5703,-8.364 0,-4.57 2.0312,-8.32 4.5703,-8.32 2.539,0 4.6093,3.75 4.6093,8.32 0,4.614 -2.0703,8.364 -4.6093,8.364 z" /></g></g></g></g></svg>