<svg xmlns="http://www.w3.org/2000/svg" viewBox="0 0 46.25 35" height="35" width="46.25"><defs><clipPath id="a"><path d="M0 10v267h370V10H0z"/></clipPath></defs><g clip-path="url(#a)" transform="matrix(.13 0 0 -.13 0 35)"><path d="M4.84 14.809h336.48v232.27H4.84V14.809z" fill="#036998"/><path d="M4.84 14.809h336.48v232.27H4.84V14.809z" fill="none" stroke="#fff" stroke-width="4"/><path d="M4.84 247.078l25.39 25.391h336.532l-25.434-25.391H4.84" fill="#036998"/><path d="M4.84 247.078l25.39 25.391h336.532l-25.434-25.391H4.84z" fill="none" stroke="#fff" stroke-width="4"/><path d="M341.328 14.809l25.434 25.39v232.27l-25.434-25.391V14.808" fill="#036998"/><path d="M341.328 14.809l25.434 25.39v232.27l-25.434-25.391V14.808z" fill="none" stroke="#fff" stroke-width="4"/><path d="M201.52 105.629c7.39 7.621 9.851 20.242 9.851 32.851 0 12.661-2.461 25.282-9.851 32.899l9.851 17.691c9.879-12.66 17.258-30.351 14.801-50.59 0-20.191-4.922-37.89-14.801-50.5l-9.851 17.649M258.16 93.02c7.391 10.109 9.891 25.269 9.891 42.96 0 15.161-2.5 32.86-9.891 42.969l9.891 20.199c9.84-17.699 14.758-40.429 14.758-63.168 0-22.73-4.918-45.5-14.758-63.199L258.16 93.02M142.422 105.629c-4.922 7.621-9.844 20.242-9.844 32.851 0 12.661 4.922 25.282 9.844 32.899l-9.844 17.691c-9.848-12.66-14.769-30.351-14.769-50.59 0-20.191 4.921-37.89 14.769-50.5l9.844 17.649M93.16 93.02c-4.922 10.109-9.84 25.269-9.84 42.96 0 15.161 4.918 32.86 9.84 42.969l-9.84 20.199c-9.84-17.699-14.77-40.429-14.77-63.168 0-22.73 4.93-45.5 14.77-63.199l9.84 20.238" fill="#fff"/><path d="M170.98 130.91V55.121" fill="none" stroke="#fff" stroke-width="5" stroke-miterlimit="1"/><path d="M176.641 138.641c0-3.442-2.77-6.25-6.211-6.25-3.442 0-6.25 2.808-6.25 6.25 0 3.437 2.808 6.211 6.25 6.211a6.2 6.2 0 0 0 6.211-6.211" fill="#fff"/></g></svg>