<svg xmlns="http://www.w3.org/2000/svg" viewBox="0 0 22.5 42.5" height="42.5" width="22.5"><defs><clipPath id="a"><path d="M0 9v329h180V9H0z"/></clipPath></defs><g clip-path="url(#a)" transform="matrix(.13 0 0 -.13 0 42.5)"><path d="M18.48 332.918h159.641l-14.062-16.012H4.41l14.07 16.012" fill="#036998"/><path d="M18.48 332.918h159.641l-14.062-16.012H4.41l14.07 16.012z" fill="none" stroke="#fff" stroke-width="4"/><path d="M4.691 15.336h159.06v301.21H4.69V15.337z" fill="#036998"/><path d="M4.691 15.336h159.06v301.21H4.69V15.337z" fill="none" stroke="#fff" stroke-width="4"/><path d="M128.871 33.656c15.969 0 18.32 16.57 18.32 16.57v188.512c0 20.121-18.91 19.532-18.91 19.532h-89.3c-11.211 0-15.93-15.391-15.93-15.391V52.609c0-14.222 14.758-18.953 14.758-18.953h91.062" fill="#036998"/><path d="M128.871 33.656c15.969 0 18.32 16.57 18.32 16.57v188.512c0 20.121-18.91 19.532-18.91 19.532h-89.3c-11.211 0-15.93-15.391-15.93-15.391V52.609c0-14.222 14.758-18.953 14.758-18.953h91.062z" fill="none" stroke="#fff" stroke-width="4"/><path d="M178.051 332.918V31.707L163.75 15.336v301.211l14.301 16.371" fill="#036998"/><path d="M178.051 332.918V31.707L163.75 15.336v301.211l14.301 16.371z" fill="none" stroke="#fff" stroke-width="4"/><path d="M130.98 295.27c-2.539 0-4.57-3.75-4.57-8.364 0-4.57 2.031-8.32 4.57-8.32 2.54 0 4.571 3.75 4.571 8.32 0 4.614-2.031 8.364-4.571 8.364" fill="#036998"/><path d="M130.98 295.27c-2.539 0-4.57-3.75-4.57-8.364 0-4.57 2.031-8.32 4.57-8.32 2.54 0 4.571 3.75 4.571 8.32 0 4.614-2.031 8.364-4.571 8.364z" fill="none" stroke="#fff" stroke-width="4"/><path d="M97.66 295.27c-2.539 0-4.61-3.75-4.61-8.364 0-4.57 2.071-8.32 4.61-8.32s4.57 3.75 4.57 8.32c0 4.614-2.031 8.364-4.57 8.364" fill="#036998"/><path d="M97.66 295.27c-2.539 0-4.61-3.75-4.61-8.364 0-4.57 2.071-8.32 4.61-8.32s4.57 3.75 4.57 8.32c0 4.614-2.031 8.364-4.57 8.364z" fill="none" stroke="#fff" stroke-width="4"/><path d="M64.34 295.27c-2.54 0-4.61-3.75-4.61-8.364 0-4.57 2.07-8.32 4.61-8.32 2.5 0 4.57 3.75 4.57 8.32 0 4.614-2.07 8.364-4.57 8.364" fill="#036998"/><path d="M64.34 295.27c-2.54 0-4.61-3.75-4.61-8.364 0-4.57 2.07-8.32 4.61-8.32 2.5 0 4.57 3.75 4.57 8.32 0 4.614-2.07 8.364-4.57 8.364z" fill="none" stroke="#fff" stroke-width="4"/><path d="M30.98 295.27c-2.539 0-4.57-3.75-4.57-8.364 0-4.57 2.031-8.32 4.57-8.32 2.54 0 4.61 3.75 4.61 8.32 0 4.614-2.07 8.364-4.61 8.364" fill="#036998"/><path d="M30.98 295.27c-2.539 0-4.57-3.75-4.57-8.364 0-4.57 2.031-8.32 4.57-8.32 2.54 0 4.61 3.75 4.61 8.32 0 4.614-2.07 8.364-4.61 8.364z" fill="none" stroke="#fff" stroke-width="4"/></g></svg>