<?xml version="1.0" encoding="UTF-8" standalone="no"?>
<svg
   xmlns:dc="http://purl.org/dc/elements/1.1/"
   xmlns:cc="http://creativecommons.org/ns#"
   xmlns:rdf="http://www.w3.org/1999/02/22-rdf-syntax-ns#"
   xmlns:svg="http://www.w3.org/2000/svg"
   xmlns="http://www.w3.org/2000/svg"
   viewBox="0 0 50 58.75"
   height="58.75"
   width="50"
   xml:space="preserve"
   version="1.1"
   id="svg2"><metadata
     id="metadata8"><rdf:RDF><cc:Work
         rdf:about=""><dc:format>image/svg+xml</dc:format><dc:type
           rdf:resource="http://purl.org/dc/dcmitype/StillImage" /></cc:Work></rdf:RDF></metadata><defs
     id="defs6" /><g
     transform="matrix(1.25,0,0,-1.25,0,58.75)"
     id="g10"><g
       transform="scale(0.1,0.1)"
       id="g12"><path
         id="path14"
         style="fill:#087bbb;fill-opacity:1;fill-rule:nonzero;stroke:none"
         d="m 6.05078,286.039 76.96092,56.883 304.3673,23.316 -79.258,-80.199 -302.07022,0" /><path
         id="path16"
         style="fill:none;stroke:#ffffff;stroke-width:4;stroke-linecap:butt;stroke-linejoin:miter;stroke-miterlimit:4;stroke-dasharray:none;stroke-opacity:1"
         d="m 6.05078,286.039 76.96092,56.883 304.3673,23.32 -79.258,-80.203 -302.07022,0 z" /><path
         id="path18"
         style="fill:#087bbb;fill-opacity:1;fill-rule:nonzero;stroke:none"
         d="m 308.121,14.8711 79.258,80 0,271.2069 -79.258,-80.039 0,-271.1679" /><path
         id="path20"
         style="fill:none;stroke:#ffffff;stroke-width:4;stroke-linecap:butt;stroke-linejoin:miter;stroke-miterlimit:4;stroke-dasharray:none;stroke-opacity:1"
         d="m 308.121,14.8711 79.258,80 0,271.2109 -79.258,-80.043 0,-271.1679 z" /><path
         id="path22"
         style="fill:#087bbb;fill-opacity:1;fill-rule:nonzero;stroke:none"
         d="m 6.48047,14.75 301.641,0 0,271.289 -301.641,0 0,-271.289 z" /><path
         id="path24"
         style="fill:none;stroke:#ffffff;stroke-width:4;stroke-linecap:butt;stroke-linejoin:miter;stroke-miterlimit:4;stroke-dasharray:none;stroke-opacity:1"
         d="m 6.48047,14.75 301.641,0 0,271.289 -301.641,0 0,-271.289 z" /><path
         id="path26"
         style="fill:#087bbb;fill-opacity:1;fill-rule:nonzero;stroke:none"
         d="m 6.05078,383.699 100.27722,80.192 281.051,0 -79.258,-80.192 -302.07022,0" /><path
         id="path28"
         style="fill:none;stroke:#ffffff;stroke-width:4;stroke-linecap:butt;stroke-linejoin:miter;stroke-miterlimit:4;stroke-dasharray:none;stroke-opacity:1"
         d="m 6.05078,383.699 100.27722,80.192 281.051,0 -79.258,-80.192 -302.07022,0 z" /><path
         id="path30"
         style="fill:#087bbb;fill-opacity:1;fill-rule:nonzero;stroke:none"
         d="m 308.121,285.852 79.258,80 0,97.886 -79.258,-80.039 0,-97.847" /><path
         id="path32"
         style="fill:none;stroke:#ffffff;stroke-width:4;stroke-linecap:butt;stroke-linejoin:miter;stroke-miterlimit:4;stroke-dasharray:none;stroke-opacity:1"
         d="m 308.121,285.852 79.258,80 0,97.89 -79.258,-80.043 0,-97.847 z" /><path
         id="path34"
         style="fill:#087bbb;fill-opacity:1;fill-rule:nonzero;stroke:none"
         d="m 6.48047,285.77 301.641,0 0,97.9297 -301.641,0 0,-97.9297 z" /><path
         id="path36"
         style="fill:none;stroke:#ffffff;stroke-width:4;stroke-linecap:butt;stroke-linejoin:miter;stroke-miterlimit:4;stroke-dasharray:none;stroke-opacity:1"
         d="m 6.48047,285.77 301.641,0 0,97.9297 -301.641,0 0,-97.9297 z" /><path
         id="path38"
         style="fill:none;stroke:#ffffff;stroke-width:4.5;stroke-linecap:round;stroke-linejoin:miter;stroke-miterlimit:1;stroke-dasharray:none;stroke-opacity:1"
         d="m 284.141,333.969 c 0,0 -19.571,-50.309 -43.121,0.16 -23.481,50.43 -43.09,0.113 -43.09,0.113 0,0 -19.571,-50.351 -43.09,0.078 -23.469,50.43 -42.961,-0.308 -42.961,-0.308 0,0 -19.5392,-50.352 -43.0509,0.117 -23.5195,50.43 -43.0078,0.152 -43.0078,0.152" /><path
         id="path40"
         style="fill:none;stroke:#ffffff;stroke-width:9;stroke-linecap:round;stroke-linejoin:miter;stroke-miterlimit:1;stroke-dasharray:none;stroke-opacity:1"
         d="m 25.8203,333.969 c 0,0 19.5703,-50.309 43.0899,0.16 23.5117,50.43 43.1208,0.113 43.1208,0.113 0,0 19.528,-50.351 43.047,0.078 23.512,50.43 43.012,-0.308 43.012,-0.308 0,0 19.531,-50.352 43.039,0.117 23.48,50.43 43.012,0.152 43.012,0.152" /><path
         id="path42"
         style="fill:none;stroke:#231f20;stroke-width:4.5;stroke-linecap:round;stroke-linejoin:miter;stroke-miterlimit:1;stroke-dasharray:none;stroke-opacity:1"
         d="m 288.672,333.969 c 0,0 -19.57,-50.309 -43.121,0.16 -23.481,50.43 -43.09,0.113 -43.09,0.113 0,0 -19.57,-50.351 -43.051,0.078 -23.512,50.43 -43,-0.308 -43,-0.308 0,0 -19.5311,-50.352 -43.0506,0.117 -23.5196,50.43 -43.0078,0.113 -43.0078,0.113" /><path
         id="path44"
         style="fill:none;stroke:#231f20;stroke-width:9;stroke-linecap:round;stroke-linejoin:miter;stroke-miterlimit:1;stroke-dasharray:none;stroke-opacity:1"
         d="m 30.3516,333.969 c 0,0 19.5703,-50.309 43.0898,0.16 23.5078,50.43 43.1176,0.113 43.1176,0.113 0,0 19.531,-50.351 43.05,0.078 23.512,50.43 43.012,-0.308 43.012,-0.308 0,0 19.488,-50.352 43.039,0.117 23.481,50.43 43.012,0.113 43.012,0.113" /><path
         id="path46"
         style="fill:none;stroke:#ffffff;stroke-width:4.5;stroke-linecap:round;stroke-linejoin:miter;stroke-miterlimit:1;stroke-dasharray:none;stroke-opacity:1"
         d="m 284.141,333.969 c 0,0 -19.571,-50.309 -43.121,0.16 -23.481,50.43 -43.09,0.113 -43.09,0.113 0,0 -19.571,-50.351 -43.09,0.078 -23.469,50.43 -42.961,-0.308 -42.961,-0.308 0,0 -19.5392,-50.352 -43.0509,0.117 -23.5195,50.43 -43.0078,0.152 -43.0078,0.152" /><path
         id="path48"
         style="fill:none;stroke:#ffffff;stroke-width:9;stroke-linecap:round;stroke-linejoin:miter;stroke-miterlimit:1;stroke-dasharray:none;stroke-opacity:1"
         d="m 25.8203,333.969 c 0,0 19.5703,-50.309 43.0899,0.16 23.5117,50.43 43.1208,0.113 43.1208,0.113 0,0 19.528,-50.351 43.047,0.078 23.512,50.43 43.012,-0.308 43.012,-0.308 0,0 19.531,-50.352 43.039,0.117 23.48,50.43 43.012,0.152 43.012,0.152" /><path
         id="path50"
         style="fill:none;stroke:#231f20;stroke-width:4.5;stroke-linecap:round;stroke-linejoin:miter;stroke-miterlimit:1;stroke-dasharray:none;stroke-opacity:1"
         d="m 288.672,333.969 c 0,0 -19.57,-50.309 -43.121,0.16 -23.481,50.43 -43.09,0.113 -43.09,0.113 0,0 -19.57,-50.351 -43.051,0.078 -23.512,50.43 -43,-0.308 -43,-0.308 0,0 -19.5311,-50.352 -43.0506,0.117 -23.5196,50.43 -43.0078,0.113 -43.0078,0.113" /><path
         id="path52"
         style="fill:none;stroke:#231f20;stroke-width:9;stroke-linecap:round;stroke-linejoin:miter;stroke-miterlimit:1;stroke-dasharray:none;stroke-opacity:1"
         d="m 30.3516,333.969 c 0,0 19.5703,-50.309 43.0898,0.16 23.5078,50.43 43.1176,0.113 43.1176,0.113 0,0 19.531,-50.351 43.05,0.078 23.512,50.43 43.012,-0.308 43.012,-0.308 0,0 19.488,-50.352 43.039,0.117 23.481,50.43 43.012,0.113 43.012,0.113" /><path
         id="path54"
         style="fill:none;stroke:#ffffff;stroke-width:4.5;stroke-linecap:round;stroke-linejoin:miter;stroke-miterlimit:1;stroke-dasharray:none;stroke-opacity:1"
         d="m 284.141,333.969 c 0,0 -19.571,-50.309 -43.121,0.16 -23.481,50.43 -43.09,0.113 -43.09,0.113 0,0 -19.571,-50.351 -43.09,0.078 -23.469,50.43 -42.961,-0.308 -42.961,-0.308 0,0 -19.5392,-50.352 -43.0509,0.117 -23.5195,50.43 -43.0078,0.152 -43.0078,0.152" /><path
         id="path56"
         style="fill:none;stroke:#ffffff;stroke-width:9;stroke-linecap:round;stroke-linejoin:miter;stroke-miterlimit:1;stroke-dasharray:none;stroke-opacity:1"
         d="m 25.8203,333.969 c 0,0 19.5703,-50.309 43.0899,0.16 23.5117,50.43 43.1208,0.113 43.1208,0.113 0,0 19.528,-50.351 43.047,0.078 23.512,50.43 43.012,-0.308 43.012,-0.308 0,0 19.531,-50.352 43.039,0.117 23.48,50.43 43.012,0.152 43.012,0.152" /><path
         id="path58"
         style="fill:#ffffff;fill-opacity:1;fill-rule:nonzero;stroke:none"
         d="m 165.898,189.32 0,57.7 9.801,0 -14.449,21.789 -14.449,-21.789 9.758,0 0,-57.7 9.339,0" /><path
         id="path60"
         style="fill:#ffffff;fill-opacity:1;fill-rule:nonzero;stroke:none"
         d="m 136.449,180.961 -40.8279,40.82 6.9179,6.918 -25.6288,5.192 5.1992,-25.621 6.9101,6.91 40.8205,-40.821 6.609,6.602" /><path
         id="path62"
         style="fill:#ffffff;fill-opacity:1;fill-rule:nonzero;stroke:none"
         d="m 121.52,154.238 -57.7309,0 0,9.774 -21.8008,-14.453 21.8008,-14.418 0,9.769 57.7309,0 0,9.328" /><path
         id="path64"
         style="fill:#ffffff;fill-opacity:1;fill-rule:nonzero;stroke:none"
         d="m 129.84,124.789 -40.8205,-40.8202 -6.9101,6.9101 -5.1992,-25.6172 25.6288,5.1992 -6.9179,6.9102 40.8279,40.8199 -6.609,6.598" /><path
         id="path66"
         style="fill:#ffffff;fill-opacity:1;fill-rule:nonzero;stroke:none"
         d="m 156.559,109.828 0,-57.6991 -9.758,0 14.449,-21.7891 14.449,21.7891 -9.801,0 0,57.6991 -9.339,0" /><path
         id="path68"
         style="fill:#ffffff;fill-opacity:1;fill-rule:nonzero;stroke:none"
         d="m 186.02,118.191 40.82,-40.8199 -6.918,-6.9102 25.629,-5.1992 -5.199,25.6172 -6.911,-6.9101 -40.82,40.8202 -6.601,-6.598" /><path
         id="path70"
         style="fill:#ffffff;fill-opacity:1;fill-rule:nonzero;stroke:none"
         d="m 200.98,144.91 57.692,0 0,-9.769 21.797,14.418 -21.797,14.453 0,-9.774 -57.692,0 0,-9.328" /><path
         id="path72"
         style="fill:#ffffff;fill-opacity:1;fill-rule:nonzero;stroke:none"
         d="m 192.621,174.359 40.82,40.821 6.911,-6.91 5.199,25.621 -25.629,-5.192 6.918,-6.918 -40.82,-40.82 6.601,-6.602" /><path
         id="path74"
         style="fill:#ffffff;fill-opacity:1;fill-rule:nonzero;stroke:none"
         d="m 196.68,100.691 c 27.23,19.098 33.871,56.637 14.769,83.868 -19.07,27.261 -56.609,33.863 -83.828,14.8 -27.269,-19.097 -33.871,-56.64 -14.812,-83.871 19.101,-27.2185 56.64,-33.8591 83.871,-14.797" /><path
         id="path76"
         style="fill:#231f20;fill-opacity:1;fill-rule:nonzero;stroke:none"
         d="m 118.629,415.648 31.883,2.661 -6.024,-9.028 -8.437,1.598 -34.879,-13.277 -8.4025,2.109 33.6795,12.777 -7.82,3.16" /><path
         id="path78"
         style="fill:#231f20;fill-opacity:1;fill-rule:nonzero;stroke:none"
         d="m 254.57,415.141 -27.691,4.257 3,-10.117 7.23,1.059 25.27,-11.168 8.402,2.137 -24.652,10.632 8.441,3.2" /><path
         id="path80"
         style="fill:#231f20;fill-opacity:1;fill-rule:nonzero;stroke:none"
         d="m 206.449,443.852 -13.828,1.058 45.078,10.121 19.25,-13.832 -14.41,1.051 -3.051,0 -24.019,-15.43 -33.09,0 25.859,17.032 -1.789,0" /><path
         id="path82"
         style="fill:#231f20;fill-opacity:1;fill-rule:nonzero;stroke:none"
         d="m 178.16,407.129 -9.609,0 25.277,13.832 1.762,-13.832 -10.199,0 1.211,0 -12.653,-12.18 -9.027,0 12.656,12.18 0.582,0" /><path
         id="path84"
         style="fill:#ffffff;fill-opacity:1;fill-rule:nonzero;stroke:none"
         d="m 117.422,416.711 31.879,2.687 -6.02,-9.058 -8.441,1.601 -34.84,-13.281 -8.4414,2.11 33.6714,12.769 -7.808,3.172" /><path
         id="path86"
         style="fill:#ffffff;fill-opacity:1;fill-rule:nonzero;stroke:none"
         d="m 253.359,416.199 -27.66,4.262 2.973,-10.121 7.226,1.051 25.274,-11.172 8.398,2.152 -24.648,10.617 8.437,3.211" /><path
         id="path88"
         style="fill:#ffffff;fill-opacity:1;fill-rule:nonzero;stroke:none"
         d="m 205.23,444.91 -13.82,1.051 45.07,10.117 19.258,-13.828 -14.41,1.059 -3.008,0 -24.058,-15.43 -33.09,0 25.859,17.031 -1.801,0" /><path
         id="path90"
         style="fill:#ffffff;fill-opacity:1;fill-rule:nonzero;stroke:none"
         d="m 176.949,408.23 -9.609,0 25.281,13.79 1.789,-13.79 -10.23,0 1.211,0 -12.661,-12.23 -9.019,0 12.66,12.23 0.578,0" /></g></g></svg>