<svg xmlns="http://www.w3.org/2000/svg" viewBox="0 0 50 58.75" height="58.75" width="50"><path d="M.756 22.995l9.62-7.11 38.046-2.915-9.907 10.025H.756" fill="#087bbb"/><path d="M.756 22.995l9.62-7.11 38.046-2.915-9.907 10.025H.756z" fill="none" stroke="#fff" stroke-width=".5"/><path d="M38.515 56.891l9.907-10v-33.9l-9.907 10.004v33.896" fill="#087bbb"/><path d="M38.515 56.891l9.907-10V12.99l-9.907 10.005v33.896z" fill="none" stroke="#fff" stroke-width=".5"/><path d="M.81 56.906h37.705v-33.91H.81v33.91z" fill="#087bbb"/><path d="M.81 56.906h37.705v-33.91H.81v33.91z" fill="none" stroke="#fff" stroke-width=".5"/><path d="M.756 10.788L13.291.764h35.131l-9.907 10.024H.756" fill="#087bbb"/><path d="M.756 10.788L13.291.764h35.131l-9.907 10.024H.756z" fill="none" stroke="#fff" stroke-width=".5"/><path d="M38.515 23.019l9.907-10V.783l-9.907 10.005v12.23" fill="#087bbb"/><path d="M38.515 23.019l9.907-10V.782l-9.907 10.006v12.23z" fill="none" stroke="#fff" stroke-width=".5"/><path d="M.81 23.029h37.705V10.788H.81v12.24z" fill="#087bbb"/><path d="M.81 23.029h37.705V10.788H.81v12.24z" fill="none" stroke="#fff" stroke-width=".5"/><path d="M35.518 17.004s-2.447 6.288-5.39-.02c-2.936-6.304-5.387-.014-5.387-.014s-2.446 6.294-5.386-.01c-2.934-6.304-5.37.038-5.37.038s-2.443 6.294-5.381-.014c-2.94-6.304-5.376-.02-5.376-.02" fill="none" stroke="#fff" stroke-width=".5625" stroke-linecap="round" stroke-miterlimit="1"/><path d="M3.228 17.004s2.446 6.288 5.386-.02c2.939-6.304 5.39-.014 5.39-.014s2.44 6.294 5.38-.01c2.94-6.304 5.377.038 5.377.038s2.442 6.294 5.38-.014c2.935-6.304 5.377-.02 5.377-.02" fill="none" stroke="#fff" stroke-width="1.125" stroke-linecap="round" stroke-miterlimit="1"/><path d="M36.084 17.004s-2.446 6.288-5.39-.02c-2.935-6.304-5.386-.014-5.386-.014s-2.447 6.294-5.382-.01c-2.939-6.304-5.375.038-5.375.038s-2.441 6.294-5.381-.014c-2.94-6.304-5.376-.014-5.376-.014" fill="none" stroke="#231f20" stroke-width=".5625" stroke-linecap="round" stroke-miterlimit="1"/><path d="M3.794 17.004s2.446 6.288 5.386-.02c2.939-6.304 5.39-.014 5.39-.014s2.441 6.294 5.381-.01c2.94-6.304 5.377.038 5.377.038s2.436 6.294 5.38-.014c2.935-6.304 5.376-.014 5.376-.014" fill="none" stroke="#231f20" stroke-width="1.125" stroke-linecap="round" stroke-miterlimit="1"/><path d="M35.518 17.004s-2.447 6.288-5.39-.02c-2.936-6.304-5.387-.014-5.387-.014s-2.446 6.294-5.386-.01c-2.934-6.304-5.37.038-5.37.038s-2.443 6.294-5.381-.014c-2.94-6.304-5.376-.02-5.376-.02" fill="none" stroke="#fff" stroke-width=".5625" stroke-linecap="round" stroke-miterlimit="1"/><path d="M3.228 17.004s2.446 6.288 5.386-.02c2.939-6.304 5.39-.014 5.39-.014s2.44 6.294 5.38-.01c2.94-6.304 5.377.038 5.377.038s2.442 6.294 5.38-.014c2.935-6.304 5.377-.02 5.377-.02" fill="none" stroke="#fff" stroke-width="1.125" stroke-linecap="round" stroke-miterlimit="1"/><path d="M36.084 17.004s-2.446 6.288-5.39-.02c-2.935-6.304-5.386-.014-5.386-.014s-2.447 6.294-5.382-.01c-2.939-6.304-5.375.038-5.375.038s-2.441 6.294-5.381-.014c-2.94-6.304-5.376-.014-5.376-.014" fill="none" stroke="#231f20" stroke-width=".5625" stroke-linecap="round" stroke-miterlimit="1"/><path d="M3.794 17.004s2.446 6.288 5.386-.02c2.939-6.304 5.39-.014 5.39-.014s2.441 6.294 5.381-.01c2.94-6.304 5.377.038 5.377.038s2.436 6.294 5.38-.014c2.935-6.304 5.376-.014 5.376-.014" fill="none" stroke="#231f20" stroke-width="1.125" stroke-linecap="round" stroke-miterlimit="1"/><path d="M35.518 17.004s-2.447 6.288-5.39-.02c-2.936-6.304-5.387-.014-5.387-.014s-2.446 6.294-5.386-.01c-2.934-6.304-5.37.038-5.37.038s-2.443 6.294-5.381-.014c-2.94-6.304-5.376-.02-5.376-.02" fill="none" stroke="#fff" stroke-width=".5625" stroke-linecap="round" stroke-miterlimit="1"/><path d="M3.228 17.004s2.446 6.288 5.386-.02c2.939-6.304 5.39-.014 5.39-.014s2.44 6.294 5.38-.01c2.94-6.304 5.377.038 5.377.038s2.442 6.294 5.38-.014c2.935-6.304 5.377-.02 5.377-.02" fill="none" stroke="#fff" stroke-width="1.125" stroke-linecap="round" stroke-miterlimit="1"/><path d="M20.737 35.085v-7.213h1.225l-1.806-2.723-1.806 2.724h1.22v7.212h1.167M17.056 36.13l-5.103-5.103.864-.864-3.203-.65.65 3.203.863-.864 5.103 5.103.826-.825M15.19 39.47H7.974V38.25l-2.725 1.806 2.725 1.802v-1.22h7.216V39.47M16.23 43.151l-5.103 5.103-.863-.864-.65 3.202 3.203-.65-.864-.863 5.103-5.103-.826-.825M19.57 45.022v7.212h-1.22l1.806 2.724 1.806-2.724h-1.225V45.02H19.57M23.253 43.976l5.102 5.103-.865.863 3.204.65-.65-3.202-.864.864-5.102-5.103-.826.825M25.122 40.636h7.212v1.221l2.725-1.802-2.725-1.806v1.221h-7.212v1.166M24.078 36.955l5.102-5.103.864.864.65-3.202-3.204.649.865.864-5.102 5.103.825.825" fill="#fff"/><path d="M24.585 46.164c3.404-2.388 4.234-7.08 1.846-10.484a7.521 7.521 0 0 0-10.478-1.85A7.528 7.528 0 0 0 14.1 44.314c2.388 3.402 7.08 4.232 10.484 1.85" fill="#fff"/><path d="M14.829 6.794l3.985-.333-.753 1.129-1.055-.2-4.36 1.66-1.05-.264 4.21-1.597-.977-.395M31.821 6.857l-3.461-.532.375 1.265.904-.133 3.158 1.396 1.05-.267-3.08-1.329 1.054-.4M25.806 3.269l-1.728-.133 5.634-1.265 2.407 1.73-1.802-.132h-.381l-3.002 1.929h-4.137l3.233-2.13h-.224M22.27 7.859h-1.201l3.16-1.73.22 1.73h-1.275.151L21.744 9.38h-1.129l1.582-1.522h.073" fill="#231f20"/><path d="M14.678 6.661l3.985-.336-.753 1.132-1.055-.2-4.355 1.66-1.055-.263 4.209-1.596-.976-.397M31.67 6.725l-3.458-.533.372 1.265.903-.13 3.16 1.396 1.05-.27-3.082-1.327 1.055-.4M25.654 3.136l-1.728-.131L29.56 1.74l2.407 1.729-1.801-.133h-.376l-3.007 1.93h-4.137l3.233-2.13h-.225M22.119 7.721h-1.201l3.16-1.724.223 1.724h-1.278.15L21.592 9.25h-1.127l1.582-1.529h.073" fill="#fff"/></svg>