<?xml version="1.0" encoding="UTF-8" standalone="no"?>
<svg
   xmlns:dc="http://purl.org/dc/elements/1.1/"
   xmlns:cc="http://creativecommons.org/ns#"
   xmlns:rdf="http://www.w3.org/1999/02/22-rdf-syntax-ns#"
   xmlns:svg="http://www.w3.org/2000/svg"
   xmlns="http://www.w3.org/2000/svg"
   viewBox="0 0 61 34.375"
   height="34.375"
   width="61"
   xml:space="preserve"
   version="1.1"
   id="svg2"><metadata
     id="metadata8"><rdf:RDF><cc:Work
         rdf:about=""><dc:format>image/svg+xml</dc:format><dc:type
           rdf:resource="http://purl.org/dc/dcmitype/StillImage" /></cc:Work></rdf:RDF></metadata><defs
     id="defs6" /><g
     transform="matrix(1.25,0,0,-1.25,0,34.375)"
     id="g10"><g
       transform="scale(0.1,0.1)"
       id="g12"><path
         id="path14"
         style="fill:#0881c1;fill-opacity:1;fill-rule:nonzero;stroke:none"
         d="m 5.65234,153.809 144.28566,116.679 333.109,0 -119.414,-116.679 -357.98066,0" /><path
         id="path16"
         style="fill:none;stroke:#ffffff;stroke-width:4;stroke-linecap:butt;stroke-linejoin:miter;stroke-miterlimit:4;stroke-dasharray:none;stroke-opacity:1"
         d="m 5.65234,153.809 144.28566,116.679 333.109,0 -119.414,-116.679 -357.98066,0 z" /><path
         id="path18"
         style="fill:#0881c1;fill-opacity:1;fill-rule:nonzero;stroke:none"
         d="m 363.633,4.89063 119.414,121.68337 0,143.699 -119.414,-116.464 0,-148.91837" /><path
         id="path20"
         style="fill:none;stroke:#ffffff;stroke-width:4;stroke-linecap:butt;stroke-linejoin:miter;stroke-miterlimit:4;stroke-dasharray:none;stroke-opacity:1"
         d="m 363.633,4.89063 119.414,121.68337 0,143.699 -119.414,-116.464 0,-148.91837 z" /><path
         id="path22"
         style="fill:#0881c1;fill-opacity:1;fill-rule:nonzero;stroke:none"
         d="m 6.14063,4.78516 357.492,0 0,149.023 -357.492,0 0,-149.023 z" /><path
         id="path24"
         style="fill:none;stroke:#ffffff;stroke-width:4;stroke-linecap:butt;stroke-linejoin:miter;stroke-miterlimit:4;stroke-dasharray:none;stroke-opacity:1"
         d="m 6.14063,4.78516 357.492,0 0,149.023 -357.492,0 0,-149.023 z" /><path
         id="path26"
         style="fill:#ffffff;fill-opacity:1;fill-rule:nonzero;stroke:none"
         d="m 114.16,196.203 44.578,4.348 -6.418,-18.563 -13.558,6.516 -48.8245,-20.941 -11.9297,3.281 47.4262,20.59 -11.274,4.769" /><path
         id="path28"
         style="fill:#ffffff;fill-opacity:1;fill-rule:nonzero;stroke:none"
         d="m 304.785,195.477 -38.801,6.66 1.821,-20.403 12.937,6.274 35.117,-17.735 11.543,3.125 -33.957,17.29 11.34,4.789" /><path
         id="path30"
         style="fill:none;stroke:#ffffff;stroke-width:4.5;stroke-linecap:round;stroke-linejoin:miter;stroke-miterlimit:1;stroke-dasharray:none;stroke-opacity:1"
         d="m 343.477,75.1055 c 0,0 -23.789,-61.1602 -52.383,0.1875 -28.574,61.289 -52.414,0.1054 -52.414,0.1054 0,0 -23.762,-61.1796 -52.336,0.1407 -28.563,61.3129 -52.262,-0.3946 -52.262,-0.3946 0,0 -23.723,-61.1992 -52.3203,0.1485 -28.5625,61.289 -52.2734,0.1679 -52.2734,0.1679" /><path
         id="path32"
         style="fill:none;stroke:#ffffff;stroke-width:9;stroke-linecap:round;stroke-linejoin:miter;stroke-miterlimit:1;stroke-dasharray:none;stroke-opacity:1"
         d="m 29.4883,75.1055 c 0,0 23.793,-61.1602 52.3828,0.1875 28.5669,61.289 52.4059,0.1054 52.4059,0.1054 0,0 23.758,-61.1796 52.332,0.1407 28.571,61.3129 52.262,-0.3946 52.262,-0.3946 0,0 23.727,-61.1992 52.32,0.1485 28.575,61.289 52.286,0.1679 52.286,0.1679" /><path
         id="path34"
         style="fill:none;stroke:#231f20;stroke-width:4.5;stroke-linecap:round;stroke-linejoin:miter;stroke-miterlimit:1;stroke-dasharray:none;stroke-opacity:1"
         d="m 348.984,75.0977 c 0,0 -23.789,-61.1524 -52.382,0.1953 -28.575,61.289 -52.414,0.1054 -52.414,0.1054 0,0 -23.758,-61.1875 -52.333,0.1289 -28.57,61.3247 -52.265,-0.3906 -52.265,-0.3906 0,0 -23.723,-61.1914 -52.3205,0.1563 -28.5625,61.289 -52.2734,0.1367 -52.2734,0.1367" /><path
         id="path36"
         style="fill:none;stroke:#231f20;stroke-width:9;stroke-linecap:round;stroke-linejoin:miter;stroke-miterlimit:1;stroke-dasharray:none;stroke-opacity:1"
         d="m 34.9961,75.0977 c 0,0 23.7891,-61.1524 52.3828,0.1953 28.5741,61.289 52.4021,0.1054 52.4021,0.1054 0,0 23.77,-61.1875 52.336,0.1289 28.571,61.3247 52.258,-0.3906 52.258,-0.3906 0,0 23.73,-61.1914 52.324,0.1563 28.574,61.289 52.285,0.1367 52.285,0.1367" /><path
         id="path38"
         style="fill:none;stroke:#ffffff;stroke-width:4.5;stroke-linecap:round;stroke-linejoin:miter;stroke-miterlimit:1;stroke-dasharray:none;stroke-opacity:1"
         d="m 343.477,75.1055 c 0,0 -23.789,-61.1602 -52.383,0.1875 -28.574,61.289 -52.414,0.1054 -52.414,0.1054 0,0 -23.762,-61.1796 -52.336,0.1407 -28.563,61.3129 -52.262,-0.3946 -52.262,-0.3946 0,0 -23.723,-61.1992 -52.3203,0.1485 -28.5625,61.289 -52.2734,0.1679 -52.2734,0.1679" /><path
         id="path40"
         style="fill:none;stroke:#ffffff;stroke-width:9;stroke-linecap:round;stroke-linejoin:miter;stroke-miterlimit:1;stroke-dasharray:none;stroke-opacity:1"
         d="m 29.4883,75.1055 c 0,0 23.793,-61.1602 52.3828,0.1875 28.5669,61.289 52.4059,0.1054 52.4059,0.1054 0,0 23.758,-61.1796 52.332,0.1407 28.571,61.3129 52.262,-0.3946 52.262,-0.3946 0,0 23.727,-61.1992 52.32,0.1485 28.575,61.289 52.286,0.1679 52.286,0.1679" /><path
         id="path42"
         style="fill:none;stroke:#231f20;stroke-width:4.5;stroke-linecap:round;stroke-linejoin:miter;stroke-miterlimit:1;stroke-dasharray:none;stroke-opacity:1"
         d="m 348.984,75.0977 c 0,0 -23.789,-61.1524 -52.382,0.1953 -28.575,61.289 -52.414,0.1054 -52.414,0.1054 0,0 -23.758,-61.1875 -52.333,0.1289 -28.57,61.3247 -52.265,-0.3906 -52.265,-0.3906 0,0 -23.723,-61.1914 -52.3205,0.1563 -28.5625,61.289 -52.2734,0.1367 -52.2734,0.1367" /><path
         id="path44"
         style="fill:none;stroke:#231f20;stroke-width:9;stroke-linecap:round;stroke-linejoin:miter;stroke-miterlimit:1;stroke-dasharray:none;stroke-opacity:1"
         d="m 34.9961,75.0977 c 0,0 23.7891,-61.1524 52.3828,0.1953 28.5741,61.289 52.4021,0.1054 52.4021,0.1054 0,0 23.77,-61.1875 52.336,0.1289 28.571,61.3247 52.258,-0.3906 52.258,-0.3906 0,0 23.73,-61.1914 52.324,0.1563 28.574,61.289 52.285,0.1367 52.285,0.1367" /><path
         id="path46"
         style="fill:none;stroke:#ffffff;stroke-width:4.5;stroke-linecap:round;stroke-linejoin:miter;stroke-miterlimit:1;stroke-dasharray:none;stroke-opacity:1"
         d="m 343.477,75.1055 c 0,0 -23.789,-61.1602 -52.383,0.1875 -28.574,61.289 -52.414,0.1054 -52.414,0.1054 0,0 -23.762,-61.1796 -52.336,0.1407 -28.563,61.3129 -52.262,-0.3946 -52.262,-0.3946 0,0 -23.723,-61.1992 -52.3203,0.1485 -28.5625,61.289 -52.2734,0.1679 -52.2734,0.1679" /><path
         id="path48"
         style="fill:none;stroke:#ffffff;stroke-width:9;stroke-linecap:round;stroke-linejoin:miter;stroke-miterlimit:1;stroke-dasharray:none;stroke-opacity:1"
         d="m 29.4883,75.1055 c 0,0 23.793,-61.1602 52.3828,0.1875 28.5669,61.289 52.4059,0.1054 52.4059,0.1054 0,0 23.758,-61.1796 52.332,0.1407 28.571,61.3129 52.262,-0.3946 52.262,-0.3946 0,0 23.727,-61.1992 52.32,0.1485 28.575,61.289 52.286,0.1679 52.286,0.1679" /><path
         id="path50"
         style="fill:#ffffff;fill-opacity:1;fill-rule:nonzero;stroke:none"
         d="m 237.184,241.309 -19.329,1.257 63.063,16.184 27.559,-21.527 -20.372,1.086 -4.003,0.183 -33.997,-24.234 -46.179,-0.278 36.269,27.098 -3.011,0.231" /><path
         id="path52"
         style="fill:#ffffff;fill-opacity:1;fill-rule:nonzero;stroke:none"
         d="m 197.871,182.906 -13.367,0.254 35.199,21.899 2.223,-22.141 -14.25,-0.078 2.234,-0.082 -17.867,-19.477 -13.137,0.078 17.953,19.473 1.012,0.074" /></g></g></svg>