<?xml version="1.0" encoding="UTF-8" standalone="no"?>
<svg
   xmlns:dc="http://purl.org/dc/elements/1.1/"
   xmlns:cc="http://creativecommons.org/ns#"
   xmlns:rdf="http://www.w3.org/1999/02/22-rdf-syntax-ns#"
   xmlns:svg="http://www.w3.org/2000/svg"
   xmlns="http://www.w3.org/2000/svg"
   viewBox="0 0 61.25 36.25"
   height="36.25"
   width="61.25"
   xml:space="preserve"
   version="1.1"
   id="svg2"><metadata
     id="metadata8"><rdf:RDF><cc:Work
         rdf:about=""><dc:format>image/svg+xml</dc:format><dc:type
           rdf:resource="http://purl.org/dc/dcmitype/StillImage" /></cc:Work></rdf:RDF></metadata><defs
     id="defs6" /><g
     transform="matrix(1.25,0,0,-1.25,0,36.25)"
     id="g10"><g
       transform="scale(0.1,0.1)"
       id="g12"><path
         id="path14"
         style="fill:#0881c1;fill-opacity:1;fill-rule:nonzero;stroke:none"
         d="m 5.66016,163.809 144.26184,116.679 333.129,0 -119.422,-116.679 -357.96884,0" /><path
         id="path16"
         style="fill:none;stroke:#ffffff;stroke-width:4;stroke-linecap:butt;stroke-linejoin:miter;stroke-miterlimit:4;stroke-dasharray:none;stroke-opacity:1"
         d="m 5.66016,163.809 144.26184,116.679 333.129,0 -119.422,-116.679 -357.96884,0 z" /><path
         id="path18"
         style="fill:#0881c1;fill-opacity:1;fill-rule:nonzero;stroke:none"
         d="m 363.629,14.8984 119.422,121.6796 0,143.711 -119.422,-116.48 0,-148.9106" /><path
         id="path20"
         style="fill:none;stroke:#ffffff;stroke-width:4;stroke-linecap:butt;stroke-linejoin:miter;stroke-miterlimit:4;stroke-dasharray:none;stroke-opacity:1"
         d="m 363.629,14.8984 119.422,121.6836 0,143.707 -119.422,-116.48 0,-148.9106 z" /><path
         id="path22"
         style="fill:#0881c1;fill-opacity:1;fill-rule:nonzero;stroke:none"
         d="m 6.12891,14.7891 357.5,0 0,149.02 -357.5,0 0,-149.02 z" /><path
         id="path24"
         style="fill:none;stroke:#ffffff;stroke-width:4;stroke-linecap:butt;stroke-linejoin:miter;stroke-miterlimit:4;stroke-dasharray:none;stroke-opacity:1"
         d="m 6.12891,14.7891 357.5,0 0,149.02 -357.5,0 0,-149.02 z" /><path
         id="path26"
         style="fill:#ffffff;fill-opacity:1;fill-rule:nonzero;stroke:none"
         d="m 114.18,206.191 44.57,4.379 -6.449,-18.601 -13.551,6.531 -48.8281,-20.941 -11.9102,3.281 47.4183,20.59 -11.25,4.761" /><path
         id="path28"
         style="fill:#ffffff;fill-opacity:1;fill-rule:nonzero;stroke:none"
         d="m 304.801,205.488 -38.821,6.641 1.829,-20.391 12.929,6.293 35.121,-17.742 11.563,3.133 -33.981,17.258 11.36,4.808" /><path
         id="path30"
         style="fill:none;stroke:#ffffff;stroke-width:4.5;stroke-linecap:round;stroke-linejoin:miter;stroke-miterlimit:1;stroke-dasharray:none;stroke-opacity:1"
         d="m 343.48,85.1016 c 0,0 -23.789,-61.1328 -52.39,0.1875 -28.551,61.2929 -52.418,0.1211 -52.418,0.1211 0,0 -23.75,-61.1719 -52.344,0.1211 -28.558,61.3277 -52.226,-0.3907 -52.226,-0.3907 0,0 -23.75,-61.1718 -52.3403,0.1485 -28.5625,61.2929 -52.2734,0.1601 -52.2734,0.1601" /><path
         id="path32"
         style="fill:none;stroke:#ffffff;stroke-width:9;stroke-linecap:round;stroke-linejoin:miter;stroke-miterlimit:1;stroke-dasharray:none;stroke-opacity:1"
         d="m 29.4883,85.1016 c 0,0 23.793,-61.1328 52.3906,0.1875 28.5511,61.2929 52.4221,0.1211 52.4221,0.1211 0,0 23.75,-61.1719 52.301,0.1211 28.597,61.3277 52.269,-0.3907 52.269,-0.3907 0,0 23.75,-61.1718 52.34,0.1485 28.559,61.2929 52.269,0.1601 52.269,0.1601" /><path
         id="path34"
         style="fill:none;stroke:#231f20;stroke-width:4.5;stroke-linecap:round;stroke-linejoin:miter;stroke-miterlimit:1;stroke-dasharray:none;stroke-opacity:1"
         d="m 348.98,85.1016 c 0,0 -23.781,-61.1328 -52.378,0.1875 -28.551,61.2929 -52.422,0.1211 -52.422,0.1211 0,0 -23.75,-61.211 -52.301,0.1211 -28.598,61.3277 -52.27,-0.3907 -52.27,-0.3907 0,0 -23.75,-61.1718 -52.3395,0.1485 C 58.7109,146.582 35,85.4492 35,85.4492" /><path
         id="path36"
         style="fill:none;stroke:#231f20;stroke-width:9;stroke-linecap:round;stroke-linejoin:miter;stroke-miterlimit:1;stroke-dasharray:none;stroke-opacity:1"
         d="m 35,85.1016 c 0,0 23.7891,-61.1328 52.3789,0.1875 28.5621,61.2929 52.3911,0.1211 52.3911,0.1211 0,0 23.781,-61.211 52.339,0.1211 28.59,61.3277 52.27,-0.3907 52.27,-0.3907 0,0 23.742,-61.1718 52.34,0.1485 28.551,61.2929 52.261,0.1601 52.261,0.1601" /><path
         id="path38"
         style="fill:none;stroke:#ffffff;stroke-width:4.5;stroke-linecap:round;stroke-linejoin:miter;stroke-miterlimit:1;stroke-dasharray:none;stroke-opacity:1"
         d="m 343.48,85.1016 c 0,0 -23.789,-61.1328 -52.39,0.1875 -28.551,61.2929 -52.418,0.1211 -52.418,0.1211 0,0 -23.75,-61.1719 -52.344,0.1211 -28.558,61.3277 -52.226,-0.3907 -52.226,-0.3907 0,0 -23.75,-61.1718 -52.3403,0.1485 -28.5625,61.2929 -52.2734,0.1601 -52.2734,0.1601" /><path
         id="path40"
         style="fill:none;stroke:#ffffff;stroke-width:9;stroke-linecap:round;stroke-linejoin:miter;stroke-miterlimit:1;stroke-dasharray:none;stroke-opacity:1"
         d="m 29.4883,85.1016 c 0,0 23.793,-61.1328 52.3906,0.1875 28.5511,61.2929 52.4221,0.1211 52.4221,0.1211 0,0 23.75,-61.1719 52.301,0.1211 28.597,61.3277 52.269,-0.3907 52.269,-0.3907 0,0 23.75,-61.1718 52.34,0.1485 28.559,61.2929 52.269,0.1601 52.269,0.1601" /><path
         id="path42"
         style="fill:none;stroke:#231f20;stroke-width:4.5;stroke-linecap:round;stroke-linejoin:miter;stroke-miterlimit:1;stroke-dasharray:none;stroke-opacity:1"
         d="m 348.98,85.1016 c 0,0 -23.781,-61.1328 -52.378,0.1875 -28.551,61.2929 -52.422,0.1211 -52.422,0.1211 0,0 -23.75,-61.211 -52.301,0.1211 -28.598,61.3277 -52.27,-0.3907 -52.27,-0.3907 0,0 -23.75,-61.1718 -52.3395,0.1485 C 58.7109,146.582 35,85.4492 35,85.4492" /><path
         id="path44"
         style="fill:none;stroke:#231f20;stroke-width:9;stroke-linecap:round;stroke-linejoin:miter;stroke-miterlimit:1;stroke-dasharray:none;stroke-opacity:1"
         d="m 35,85.1016 c 0,0 23.7891,-61.1328 52.3789,0.1875 28.5621,61.2929 52.3911,0.1211 52.3911,0.1211 0,0 23.781,-61.211 52.339,0.1211 28.59,61.3277 52.27,-0.3907 52.27,-0.3907 0,0 23.742,-61.1718 52.34,0.1485 28.551,61.2929 52.261,0.1601 52.261,0.1601" /><path
         id="path46"
         style="fill:none;stroke:#ffffff;stroke-width:4.5;stroke-linecap:round;stroke-linejoin:miter;stroke-miterlimit:1;stroke-dasharray:none;stroke-opacity:1"
         d="m 343.48,85.1016 c 0,0 -23.789,-61.1328 -52.39,0.1875 -28.551,61.2929 -52.418,0.1211 -52.418,0.1211 0,0 -23.75,-61.1719 -52.344,0.1211 -28.558,61.3277 -52.226,-0.3907 -52.226,-0.3907 0,0 -23.75,-61.1718 -52.3403,0.1485 -28.5625,61.2929 -52.2734,0.1601 -52.2734,0.1601" /><path
         id="path48"
         style="fill:none;stroke:#ffffff;stroke-width:9;stroke-linecap:round;stroke-linejoin:miter;stroke-miterlimit:1;stroke-dasharray:none;stroke-opacity:1"
         d="m 29.4883,85.1016 c 0,0 23.793,-61.1328 52.3906,0.1875 28.5511,61.2929 52.4221,0.1211 52.4221,0.1211 0,0 23.75,-61.1719 52.301,0.1211 28.597,61.3277 52.269,-0.3907 52.269,-0.3907 0,0 23.75,-61.1718 52.34,0.1485 28.559,61.2929 52.269,0.1601 52.269,0.1601" /><path
         id="path50"
         style="fill:#ffffff;fill-opacity:1;fill-rule:nonzero;stroke:none"
         d="m 237.191,251.309 -19.339,1.25 63.089,16.211 27.539,-21.559 -20.359,1.09 -4.019,0.199 -33.981,-24.219 -46.172,-0.312 36.25,27.101 -3.008,0.239" /><path
         id="path52"
         style="fill:#ffffff;fill-opacity:1;fill-rule:nonzero;stroke:none"
         d="m 197.891,192.91 -13.403,0.238 35.203,21.911 2.219,-22.149 -14.211,-0.082 2.223,-0.078 -17.891,-19.449 -13.121,0.078 17.969,19.449 1.012,0.082" /></g></g></svg>