<svg xmlns="http://www.w3.org/2000/svg" viewBox="0 0 47.5 42.5" height="42.5" width="47.5"><defs><clipPath id="a"><path d="M0 9v329h380V9H0z"/></clipPath></defs><g clip-path="url(#a)" transform="matrix(.13 0 0 -.13 0 42.5)"><path d="M312.301 151.871l-28.781-38.402H44.879l39.101 39.062 228.321-.66"/><path d="M312.301 151.871l-28.781-38.402H44.879l39.101 39.062 228.321-.66z" fill="none" stroke="#fff" stroke-width="4"/><path d="M44.3 70.262h229.02v42.699H44.3v-42.7z" fill="#036998"/><path d="M44.3 70.262h229.02v42.699H44.3v-42.7z" fill="none" stroke="#fff" stroke-width="4"/><path d="M43.55 122.57h228.2v172.07H43.55V122.57z" fill="#036998"/><path d="M43.55 122.57h228.2v172.07H43.55V122.57z" fill="none" stroke="#fff" stroke-width="4"/><path d="M271.762 122.57l38.937 38.95v172.07l-38.937-38.949V122.57" fill="#036998"/><path d="M271.762 122.57l38.937 38.95v172.07l-38.937-38.949V122.57z" fill="none" stroke="#fff" stroke-width="4"/><path d="M357.969 32.73l17.461 34.918h-39.918l-17.461-34.917h39.918" fill="#036998"/><path d="M357.969 32.73l17.461 34.918h-39.918l-17.461-34.917h39.918z" fill="none" stroke="#fff" stroke-width="4"/><path d="M318.051 21.48h39.918v11.25h-39.918V21.48z" fill="#036998"/><path d="M318.051 21.48h39.918v11.25h-39.918V21.48z" fill="none" stroke="#fff" stroke-width="4"/><path d="M357.66 21.16l.11 11.57 17.46 34.918-.07-24.027-17.5-22.46" fill="#036998"/><path d="M357.66 21.16l.11 11.57 17.46 34.918-.07-24.027-17.5-22.46z" fill="none" stroke="#fff" stroke-width="4"/><path d="M273.121 70.148v42.731l38.68 38.711v-42.731l-38.68-38.71" fill="#036998"/><path d="M273.121 70.148v42.731l38.68 38.711v-42.731l-38.68-38.71z" fill="none" stroke="#fff" stroke-width="4"/><path d="M81.45 274.801h152.499c9.922 0 17.961-8.051 17.961-17.973V160.5c0-9.922-8.039-17.969-17.961-17.969h-152.5c-9.93 0-17.968 8.047-17.968 17.969v96.328c0 9.922 8.039 17.973 17.968 17.973" fill="#036998"/><path d="M81.45 274.801h152.499c9.922 0 17.961-8.051 17.961-17.973V160.5c0-9.922-8.039-17.969-17.961-17.969h-152.5c-9.93 0-17.968 8.047-17.968 17.969v96.328c0 9.922 8.039 17.973 17.968 17.973z" fill="none" stroke="#fff" stroke-width="4"/><path d="M310.699 333.59H88.75l-45.2-38.949h228.212l38.937 38.949" fill="#036998"/><path d="M310.699 333.59H88.75l-45.2-38.949h228.212l38.937 38.949z" fill="none" stroke="#fff" stroke-width="4"/><path d="M266.52 14.84v13.82l29.89 41.371V44.72l-29.89-29.88" fill="#036998"/><path d="M266.52 14.84v13.82l29.89 41.371V44.72l-29.89-29.88z" fill="none" stroke="#fff" stroke-width="4"/><path d="M266.52 28.469H3.91L33.79 70.03h262.62L266.52 28.47" fill="#036998"/><path d="M266.52 28.469H3.91L33.79 70.03h262.62L266.52 28.47z" fill="none" stroke="#fff" stroke-width="4"/><path d="M3.75 14.84h262.77v13.629H3.75v-13.63z" fill="#036998"/><path d="M3.75 14.84h262.77v13.629H3.75v-13.63z" fill="none" stroke="#fff" stroke-width="4"/><path d="M365.469 66.398c31.211 15 6.25 78.633-55.938 46.762" fill="none" stroke="#036998" stroke-width="5"/><path d="M157.109 182.531c32.301 0 58.512 11.918 58.512 26.598 0 14.691-26.211 26.601-58.512 26.601-32.308 0-58.52-11.91-58.52-26.601 0-14.68 26.212-26.598 58.52-26.598z" fill="none" stroke="#fff" stroke-width="5"/><path d="M157.539 173.039c41.52 0 75.16 16.332 75.16 36.52 0 20.16-33.64 36.531-75.16 36.531-41.488 0-75.117-16.371-75.117-36.531 0-20.188 33.629-36.52 75.117-36.52z" fill="none" stroke="#fff" stroke-width="5"/></g></svg>