<?xml version="1.0" encoding="UTF-8" standalone="no"?>
<svg
   xmlns:dc="http://purl.org/dc/elements/1.1/"
   xmlns:cc="http://creativecommons.org/ns#"
   xmlns:rdf="http://www.w3.org/1999/02/22-rdf-syntax-ns#"
   xmlns:svg="http://www.w3.org/2000/svg"
   xmlns="http://www.w3.org/2000/svg"
   viewBox="0 0 61.25 32.5"
   height="32.5"
   width="61.25"
   xml:space="preserve"
   version="1.1"
   id="svg2"><metadata
     id="metadata8"><rdf:RDF><cc:Work
         rdf:about=""><dc:format>image/svg+xml</dc:format><dc:type
           rdf:resource="http://purl.org/dc/dcmitype/StillImage" /></cc:Work></rdf:RDF></metadata><defs
     id="defs6" /><g
     transform="matrix(1.25,0,0,-1.25,0,32.5)"
     id="g10"><g
       transform="scale(0.1,0.1)"
       id="g12"><path
         id="path14"
         style="fill:#036998;fill-opacity:1;fill-rule:nonzero;stroke:none"
         d="m 6.55859,18.7695 357.191,0 0,115.941 -357.191,0 0,-115.941 z" /><path
         id="path16"
         style="fill:none;stroke:#ffffff;stroke-width:3.99993992;stroke-linecap:butt;stroke-linejoin:miter;stroke-miterlimit:4;stroke-dasharray:none;stroke-opacity:1"
         d="m 6.55859,18.7695 357.191,0 0,115.941 -357.191,0 0,-115.941 z" /><path
         id="path18"
         style="fill:#036998;fill-opacity:1;fill-rule:nonzero;stroke:none"
         d="m 5.62109,134.129 144.30091,116.949 333.277,0 -119.758,-116.949 -357.81991,0" /><path
         id="path20"
         style="fill:none;stroke:#ffffff;stroke-width:3.99993992;stroke-linecap:butt;stroke-linejoin:miter;stroke-miterlimit:4;stroke-dasharray:none;stroke-opacity:1"
         d="m 5.62109,134.129 144.30091,116.949 333.277,0 -119.758,-116.949 -357.81991,0 z" /><path
         id="path22"
         style="fill:#036998;fill-opacity:1;fill-rule:nonzero;stroke:none"
         d="m 363.551,15.1016 119.34,128.9104 0.078,106.828 -119.418,-116.559 0,-119.1794" /><path
         id="path24"
         style="fill:none;stroke:#ffffff;stroke-width:3.99993992;stroke-linecap:butt;stroke-linejoin:miter;stroke-miterlimit:4;stroke-dasharray:none;stroke-opacity:1"
         d="m 363.551,15.1016 119.34,128.9064 0.078,106.832 -119.418,-116.559 0,-119.1794 z" /><path
         id="path26"
         style="fill:#ffffff;fill-opacity:1;fill-rule:nonzero;stroke:none"
         d="m 215,164.559 -6.91,-5.707 -89.11,0 -8.859,-8.872 -24.1405,10.508 48.5505,13.91 -8.59,-9.839 89.059,0" /><path
         id="path28"
         style="fill:#ffffff;fill-opacity:1;fill-rule:nonzero;stroke:none"
         d="m 285,208.309 -6.91,-5.707 -89.11,0 -8.859,-8.872 -24.141,10.508 48.551,13.91 -8.59,-9.839 89.059,0" /><path
         id="path30"
         style="fill:#ffffff;fill-opacity:1;fill-rule:nonzero;stroke:none"
         d="m 230.738,180.02 6.922,5.671 89.102,0 8.859,8.868 24.149,-10.508 -48.559,-13.871 8.59,9.84 -89.063,0" /><path
         id="path32"
         style="fill:#ffffff;fill-opacity:1;fill-rule:nonzero;stroke:none"
         d="m 276.988,223.77 6.922,5.671 89.102,0 8.867,8.868 24.141,-10.508 -48.559,-13.871 8.59,9.84 -89.063,0" /></g></g></svg>