<?xml version="1.0" encoding="UTF-8" standalone="no"?>
<svg
   xmlns:dc="http://purl.org/dc/elements/1.1/"
   xmlns:cc="http://creativecommons.org/ns#"
   xmlns:rdf="http://www.w3.org/1999/02/22-rdf-syntax-ns#"
   xmlns:svg="http://www.w3.org/2000/svg"
   xmlns="http://www.w3.org/2000/svg"
   viewBox="0 0 61.012501 30.700001"
   height="30.700001"
   width="61.012501"
   xml:space="preserve"
   version="1.1"
   id="svg2"><metadata
     id="metadata8"><rdf:RDF><cc:Work
         rdf:about=""><dc:format>image/svg+xml</dc:format><dc:type
           rdf:resource="http://purl.org/dc/dcmitype/StillImage" /></cc:Work></rdf:RDF></metadata><defs
     id="defs6" /><g
     transform="matrix(1.25,0,0,-1.25,0,30.7)"
     id="g10"><g
       transform="scale(0.1,0.1)"
       id="g12"><path
         id="path14"
         style="fill:#036998;fill-opacity:1;fill-rule:nonzero;stroke:none"
         d="m 6.58203,8.75781 357.184,0 0,115.957 -357.184,0 0,-115.957 z" /><path
         id="path16"
         style="fill:none;stroke:#ffffff;stroke-width:3.99993992;stroke-linecap:butt;stroke-linejoin:miter;stroke-miterlimit:4;stroke-dasharray:none;stroke-opacity:1"
         d="m 6.58203,8.75781 357.184,0 0,115.957 -357.184,0 0,-115.957 z" /><path
         id="path18"
         style="fill:#036998;fill-opacity:1;fill-rule:nonzero;stroke:none"
         d="m 5.64453,124.133 144.27747,116.93 333.297,0 -119.785,-116.93 -357.78947,0" /><path
         id="path20"
         style="fill:none;stroke:#ffffff;stroke-width:3.99993992;stroke-linecap:butt;stroke-linejoin:miter;stroke-miterlimit:4;stroke-dasharray:none;stroke-opacity:1"
         d="m 5.64453,124.133 144.27747,116.93 333.297,0 -119.785,-116.93 -357.78947,0 z" /><path
         id="path22"
         style="fill:#036998;fill-opacity:1;fill-rule:nonzero;stroke:none"
         d="M 363.57,5.10547 482.887,134.023 482.965,240.859 363.57,124.297 l 0,-119.19153" /><path
         id="path24"
         style="fill:none;stroke:#ffffff;stroke-width:3.99993992;stroke-linecap:butt;stroke-linejoin:miter;stroke-miterlimit:4;stroke-dasharray:none;stroke-opacity:1"
         d="M 363.57,5.10547 482.887,134.023 482.965,240.859 363.57,124.297 l 0,-119.19153 z" /><path
         id="path26"
         style="fill:#ffffff;fill-opacity:1;fill-rule:nonzero;stroke:none"
         d="m 215.016,154.551 -6.934,-5.684 -89.078,0 -8.887,-8.879 -24.1404,10.52 48.5544,13.887 -8.593,-9.844 89.078,0" /><path
         id="path28"
         style="fill:#ffffff;fill-opacity:1;fill-rule:nonzero;stroke:none"
         d="m 285.016,198.301 -6.934,-5.684 -89.078,0 -8.887,-8.879 -24.14,10.52 48.554,13.887 -8.593,-9.844 89.078,0" /><path
         id="path30"
         style="fill:#ffffff;fill-opacity:1;fill-rule:nonzero;stroke:none"
         d="m 230.738,170.008 6.914,5.683 89.102,0 8.887,8.879 24.14,-10.519 -48.554,-13.887 8.593,9.844 -89.082,0" /><path
         id="path32"
         style="fill:#ffffff;fill-opacity:1;fill-rule:nonzero;stroke:none"
         d="m 276.988,213.758 6.914,5.683 89.102,0 8.887,8.879 24.14,-10.519 -48.554,-13.887 8.593,9.844 -89.082,0" /></g></g></svg>