<?xml version="1.0" encoding="UTF-8" standalone="no"?>
<svg
   xmlns:dc="http://purl.org/dc/elements/1.1/"
   xmlns:cc="http://creativecommons.org/ns#"
   xmlns:rdf="http://www.w3.org/1999/02/22-rdf-syntax-ns#"
   xmlns:svg="http://www.w3.org/2000/svg"
   xmlns="http://www.w3.org/2000/svg"
   viewBox="0 0 45 37.5"
   height="37.5"
   width="45"
   xml:space="preserve"
   version="1.1"
   id="svg2"><metadata
     id="metadata8"><rdf:RDF><cc:Work
         rdf:about=""><dc:format>image/svg+xml</dc:format><dc:type
           rdf:resource="http://purl.org/dc/dcmitype/StillImage" /></cc:Work></rdf:RDF></metadata><defs
     id="defs6" /><g
     transform="matrix(1.25,0,0,-1.25,0,37.5)"
     id="g10"><g
       transform="scale(0.1,0.1)"
       id="g12"><path
         id="path14"
         style="fill:none;stroke:#000000;stroke-width:3.99993992;stroke-linecap:round;stroke-linejoin:round;stroke-miterlimit:4;stroke-dasharray:none;stroke-opacity:1"
         d="m 326.25,44.8789 c 4.059,4.8906 -18.16,11.5313 6.871,15.6328 15.981,2.6485 64.379,31.0899 -49.141,32.5781" /><path
         id="path16"
         style="fill:#036998;fill-opacity:1;fill-rule:nonzero;stroke:none"
         d="m 66.5586,53.2109 183.52,0 0,27.7305 -183.52,0 0,-27.7305 z" /><path
         id="path18"
         style="fill:none;stroke:#ffffff;stroke-width:3.99993992;stroke-linecap:butt;stroke-linejoin:miter;stroke-miterlimit:4;stroke-dasharray:none;stroke-opacity:1"
         d="m 66.5586,53.2109 183.52,0 0,27.7305 -183.52,0 0,-27.7305 z" /><path
         id="path20"
         style="fill:#036998;fill-opacity:1;fill-rule:nonzero;stroke:none"
         d="m 249.879,53.1211 0,27.8203 37.031,37.6876 0,-28.5079 -37.031,-37" /><path
         id="path22"
         style="fill:none;stroke:#ffffff;stroke-width:3.99993992;stroke-linecap:butt;stroke-linejoin:miter;stroke-miterlimit:4;stroke-dasharray:none;stroke-opacity:1"
         d="m 249.879,53.1211 0,27.8203 37.031,37.6876 0,-28.5079 -37.031,-37 z" /><path
         id="path24"
         style="fill:#036998;fill-opacity:1;fill-rule:nonzero;stroke:none"
         d="m 66.5586,48.2109 183.52,0 0,32.7305 -183.52,0 0,-32.7305 z" /><path
         id="path26"
         style="fill:none;stroke:#ffffff;stroke-width:3.99993992;stroke-linecap:butt;stroke-linejoin:miter;stroke-miterlimit:4;stroke-dasharray:none;stroke-opacity:1"
         d="m 66.5586,48.2109 183.52,0 0,32.7305 -183.52,0 0,-32.7305 z" /><path
         id="path28"
         style="fill:#036998;fill-opacity:1;fill-rule:nonzero;stroke:none"
         d="m 249.879,48.1211 0,32.8203 37.031,37.6876 0,-33.5079 -37.031,-37" /><path
         id="path30"
         style="fill:none;stroke:#ffffff;stroke-width:3.99993992;stroke-linecap:butt;stroke-linejoin:miter;stroke-miterlimit:4;stroke-dasharray:none;stroke-opacity:1"
         d="m 249.879,48.1211 0,32.8203 37.031,37.6876 0,-33.5079 -37.031,-37 z" /><path
         id="path32"
         style="fill:#036998;fill-opacity:1;fill-rule:nonzero;stroke:none"
         d="m 299.77,123.629 -25.942,-37.6876 -228.3983,0 36.7617,37.6876 217.5786,0" /><path
         id="path34"
         style="fill:none;stroke:#ffffff;stroke-width:3.99993992;stroke-linecap:butt;stroke-linejoin:miter;stroke-miterlimit:4;stroke-dasharray:none;stroke-opacity:1"
         d="m 299.77,123.629 -25.942,-37.6876 -228.3983,0 36.7617,37.6876 217.5786,0 z" /><path
         id="path36"
         style="fill:#036998;fill-opacity:1;fill-rule:nonzero;stroke:none"
         d="m 44.8789,73.2109 218.52,0 0,12.7305 -218.52,0 0,-12.7305 z" /><path
         id="path38"
         style="fill:none;stroke:#ffffff;stroke-width:3.99993992;stroke-linecap:butt;stroke-linejoin:miter;stroke-miterlimit:4;stroke-dasharray:none;stroke-opacity:1"
         d="m 44.8789,73.2109 218.52,0 0,12.7305 -218.52,0 0,-12.7305 z" /><path
         id="path40"
         style="fill:#036998;fill-opacity:1;fill-rule:nonzero;stroke:none"
         d="m 263.199,73.1211 0,12.8203 37.031,37.6876 0,-13.508 -37.031,-36.9999" /><path
         id="path42"
         style="fill:none;stroke:#ffffff;stroke-width:3.99993992;stroke-linecap:butt;stroke-linejoin:miter;stroke-miterlimit:4;stroke-dasharray:none;stroke-opacity:1"
         d="m 263.199,73.1211 0,12.8203 37.031,37.6876 0,-13.508 -37.031,-36.9999 z" /><path
         id="path44"
         style="fill:#036998;fill-opacity:1;fill-rule:nonzero;stroke:none"
         d="m 299.77,123.629 -25.942,-37.6876 -228.3983,0 36.7617,37.6876 217.5786,0" /><path
         id="path46"
         style="fill:none;stroke:#ffffff;stroke-width:3.99993992;stroke-linecap:butt;stroke-linejoin:miter;stroke-miterlimit:4;stroke-dasharray:none;stroke-opacity:1"
         d="m 299.77,123.629 -25.942,-37.6876 -228.3983,0 36.7617,37.6876 217.5786,0 z" /><path
         id="path48"
         style="fill:#036998;fill-opacity:1;fill-rule:nonzero;stroke:none"
         d="m 44.8789,73.2109 218.52,0 0,12.7305 -218.52,0 0,-12.7305 z" /><path
         id="path50"
         style="fill:none;stroke:#ffffff;stroke-width:3.99993992;stroke-linecap:butt;stroke-linejoin:miter;stroke-miterlimit:4;stroke-dasharray:none;stroke-opacity:1"
         d="m 44.8789,73.2109 218.52,0 0,12.7305 -218.52,0 0,-12.7305 z" /><path
         id="path52"
         style="fill:#036998;fill-opacity:1;fill-rule:nonzero;stroke:none"
         d="m 263.199,73.1211 0,12.8203 37.031,37.6876 0,-13.508 -37.031,-36.9999" /><path
         id="path54"
         style="fill:none;stroke:#ffffff;stroke-width:3.99993992;stroke-linecap:butt;stroke-linejoin:miter;stroke-miterlimit:4;stroke-dasharray:none;stroke-opacity:1"
         d="m 263.199,73.1211 0,12.8203 37.031,37.6876 0,-13.508 -37.031,-36.9999 z" /><path
         id="path56"
         style="fill:#036998;fill-opacity:1;fill-rule:nonzero;stroke:none"
         d="m 300.941,296.91 -197.351,0 -57.7306,-13.59 228.5896,0 26.492,13.59" /><path
         id="path58"
         style="fill:none;stroke:#ffffff;stroke-width:3.99993992;stroke-linecap:butt;stroke-linejoin:miter;stroke-miterlimit:4;stroke-dasharray:none;stroke-opacity:1"
         d="m 300.941,296.91 -197.351,0 -57.7306,-13.59 228.5896,0 26.492,13.59 z" /><path
         id="path60"
         style="fill:#036998;fill-opacity:1;fill-rule:nonzero;stroke:none"
         d="m 264.57,101.91 -10.121,8.36 -185.3904,0 9.7695,-8.36 185.7419,0" /><path
         id="path62"
         style="fill:none;stroke:#ffffff;stroke-width:3.99993992;stroke-linecap:butt;stroke-linejoin:miter;stroke-miterlimit:4;stroke-dasharray:none;stroke-opacity:1"
         d="m 264.57,101.91 -10.121,8.36 -185.3904,0 9.7695,-8.36 185.7419,0 z" /><path
         id="path64"
         style="fill:#036998;fill-opacity:1;fill-rule:nonzero;stroke:none"
         d="m 265.699,103.398 -12.769,8.512 47.269,25 -30.429,-30.07 -4.071,-3.442" /><path
         id="path66"
         style="fill:none;stroke:#ffffff;stroke-width:3.99993992;stroke-linecap:butt;stroke-linejoin:miter;stroke-miterlimit:4;stroke-dasharray:none;stroke-opacity:1"
         d="m 265.699,103.398 -12.769,8.512 47.269,25 -30.429,-30.07 -4.071,-3.442 z" /><path
         id="path68"
         style="fill:#036998;fill-opacity:1;fill-rule:nonzero;stroke:none"
         d="m 274.449,283.32 0,-170.468 26.492,24.648 0,159.41 -26.492,-13.59" /><path
         id="path70"
         style="fill:none;stroke:#ffffff;stroke-width:3.99993992;stroke-linecap:butt;stroke-linejoin:miter;stroke-miterlimit:4;stroke-dasharray:none;stroke-opacity:1"
         d="m 274.449,283.32 0,-170.468 26.492,24.648 0,159.41 -26.492,-13.59 z" /><path
         id="path72"
         style="fill:#036998;fill-opacity:1;fill-rule:nonzero;stroke:none"
         d="m 45.8594,110.98 228.59,0 0,172.34 -228.59,0 0,-172.34 z" /><path
         id="path74"
         style="fill:none;stroke:#ffffff;stroke-width:3.99993992;stroke-linecap:butt;stroke-linejoin:miter;stroke-miterlimit:4;stroke-dasharray:none;stroke-opacity:1"
         d="m 45.8594,110.98 228.59,0 0,172.34 -228.59,0 0,-172.34 z" /><path
         id="path76"
         style="fill:#036998;fill-opacity:1;fill-rule:nonzero;stroke:none"
         d="m 255.23,3.48047 0,13.28123 28.598,39.5274 0,-24.2188 L 255.23,3.48047" /><path
         id="path78"
         style="fill:none;stroke:#ffffff;stroke-width:3.99993992;stroke-linecap:butt;stroke-linejoin:miter;stroke-miterlimit:4;stroke-dasharray:none;stroke-opacity:1"
         d="m 255.23,3.48047 0,13.28123 28.598,39.5274 0,-24.2188 L 255.23,3.48047 Z" /><path
         id="path80"
         style="fill:#036998;fill-opacity:1;fill-rule:nonzero;stroke:none"
         d="m 3.08984,3.46875 252.148,0 0,13.0898 -252.148,0 0,-13.0898 z" /><path
         id="path82"
         style="fill:none;stroke:#ffffff;stroke-width:3.99993992;stroke-linecap:butt;stroke-linejoin:miter;stroke-miterlimit:4;stroke-dasharray:none;stroke-opacity:1"
         d="m 3.08984,3.46875 252.148,0 0,13.0898 -252.148,0 0,-13.0898 z" /><path
         id="path84"
         style="fill:#036998;fill-opacity:1;fill-rule:nonzero;stroke:none"
         d="m 326.91,13.9492 16.762,33.4297 -38.242,0 -16.719,-33.4297 38.199,0" /><path
         id="path86"
         style="fill:none;stroke:#ffffff;stroke-width:3.99993992;stroke-linecap:butt;stroke-linejoin:miter;stroke-miterlimit:4;stroke-dasharray:none;stroke-opacity:1"
         d="m 326.91,13.9492 16.762,33.4297 -38.242,0 -16.719,-33.4297 38.199,0 z" /><path
         id="path88"
         style="fill:#036998;fill-opacity:1;fill-rule:nonzero;stroke:none"
         d="m 288.711,3.21094 38.1992,0 0,10.7383 -38.1992,0 0,-10.7383 z" /><path
         id="path90"
         style="fill:none;stroke:#ffffff;stroke-width:3.99993992;stroke-linecap:butt;stroke-linejoin:miter;stroke-miterlimit:4;stroke-dasharray:none;stroke-opacity:1"
         d="m 288.711,3.21094 38.1992,0 0,10.7383 -38.1992,0 0,-10.7383 z" /><path
         id="path92"
         style="fill:#036998;fill-opacity:1;fill-rule:nonzero;stroke:none"
         d="M 326.641,2.89063 326.719,13.9492 343.441,47.3789 343.359,24.4102 326.641,2.89063" /><path
         id="path94"
         style="fill:none;stroke:#ffffff;stroke-width:3.99993992;stroke-linecap:butt;stroke-linejoin:miter;stroke-miterlimit:4;stroke-dasharray:none;stroke-opacity:1"
         d="M 326.641,2.89063 326.719,13.9492 343.441,47.3789 343.359,24.4102 326.641,2.89063 Z" /><path
         id="path96"
         style="fill:#036998;fill-opacity:1;fill-rule:nonzero;stroke:none"
         d="m 255.23,16.5586 -251.31984,0 28.58984,39.7305 251.328,0 -28.598,-39.7305" /><path
         id="path98"
         style="fill:none;stroke:#ffffff;stroke-width:3.99993992;stroke-linecap:butt;stroke-linejoin:miter;stroke-miterlimit:4;stroke-dasharray:none;stroke-opacity:1"
         d="m 255.23,16.5586 -251.31984,0 28.58984,39.7305 251.328,0 -28.598,-39.7305 z" /><path
         id="path100"
         style="fill:#036998;fill-opacity:1;fill-rule:nonzero;stroke:none"
         d="m 79.0586,265.352 160.5504,0 c 10.43,0 18.911,-8.473 18.911,-18.942 l 0,-101.41 c 0,-10.43 -8.481,-18.91 -18.911,-18.91 l -160.5504,0 c -10.4688,0 -18.8984,8.48 -18.8984,18.91 l 0,101.41 c 0,10.469 8.4296,18.942 18.8984,18.942" /><path
         id="path102"
         style="fill:none;stroke:#ffffff;stroke-width:3.99993992;stroke-linecap:butt;stroke-linejoin:miter;stroke-miterlimit:4;stroke-dasharray:none;stroke-opacity:1"
         d="m 79.0586,265.352 160.5504,0 c 10.43,0 18.911,-8.473 18.911,-18.942 l 0,-101.41 c 0,-10.43 -8.481,-18.91 -18.911,-18.91 l -160.5504,0 c -10.4688,0 -18.8984,8.48 -18.8984,18.91 l 0,101.41 c 0,10.469 8.4296,18.942 18.8984,18.942 z" /></g></g></svg>