<?xml version="1.0" encoding="UTF-8" standalone="no"?>
<svg
   xmlns:dc="http://purl.org/dc/elements/1.1/"
   xmlns:cc="http://creativecommons.org/ns#"
   xmlns:rdf="http://www.w3.org/1999/02/22-rdf-syntax-ns#"
   xmlns:svg="http://www.w3.org/2000/svg"
   xmlns="http://www.w3.org/2000/svg"
   viewBox="0 0 44.887501 37.900002"
   height="37.900002"
   width="44.887501"
   xml:space="preserve"
   version="1.1"
   id="svg2"><metadata
     id="metadata8"><rdf:RDF><cc:Work
         rdf:about=""><dc:format>image/svg+xml</dc:format><dc:type
           rdf:resource="http://purl.org/dc/dcmitype/StillImage" /></cc:Work></rdf:RDF></metadata><defs
     id="defs6"><clipPath
       id="clipPath18"
       clipPathUnits="userSpaceOnUse"><path
         id="path20"
         d="M 0,3 0,303 359,303 359,3 0,3 Z" /></clipPath></defs><g
     transform="matrix(1.25,0,0,-1.25,0,37.9)"
     id="g10"><g
       transform="scale(0.1,0.1)"
       id="g12"><g
         id="g14"><g
           clip-path="url(#clipPath18)"
           id="g16"><path
             id="path22"
             style="fill:none;stroke:#000000;stroke-width:3.99993992;stroke-linecap:round;stroke-linejoin:round;stroke-miterlimit:4;stroke-dasharray:none;stroke-opacity:1"
             d="m 326.262,47.8906 c 4.058,4.8828 -18.164,11.5235 6.851,15.625 15.996,2.6367 64.399,31.0821 -49.121,32.5703" /><path
             id="path24"
             style="fill:#036998;fill-opacity:1;fill-rule:nonzero;stroke:none"
             d="m 66.5586,56.2109 183.508,0 0,27.7148 -183.508,0 0,-27.7148 z" /><path
             id="path26"
             style="fill:none;stroke:#ffffff;stroke-width:3.99993992;stroke-linecap:butt;stroke-linejoin:miter;stroke-miterlimit:4;stroke-dasharray:none;stroke-opacity:1"
             d="m 66.5586,56.2109 183.508,0 0,27.7148 -183.508,0 0,-27.7148 z" /><path
             id="path28"
             style="fill:#036998;fill-opacity:1;fill-rule:nonzero;stroke:none"
             d="m 249.895,56.1133 0,27.8125 37.007,37.6952 0,-28.496 -37.007,-37.0117" /><path
             id="path30"
             style="fill:none;stroke:#ffffff;stroke-width:3.99993992;stroke-linecap:butt;stroke-linejoin:miter;stroke-miterlimit:4;stroke-dasharray:none;stroke-opacity:1"
             d="m 249.895,56.1133 0,27.8125 37.007,37.6952 0,-28.496 -37.007,-37.0117 z" /><path
             id="path32"
             style="fill:#036998;fill-opacity:1;fill-rule:nonzero;stroke:none"
             d="m 66.5586,51.2109 183.508,0 0,32.7148 -183.508,0 0,-32.7148 z" /><path
             id="path34"
             style="fill:none;stroke:#ffffff;stroke-width:3.99993992;stroke-linecap:butt;stroke-linejoin:miter;stroke-miterlimit:4;stroke-dasharray:none;stroke-opacity:1"
             d="m 66.5586,51.2109 183.508,0 0,32.7148 -183.508,0 0,-32.7148 z" /><path
             id="path36"
             style="fill:#036998;fill-opacity:1;fill-rule:nonzero;stroke:none"
             d="m 249.895,51.1133 0,32.8125 37.007,37.6952 0,-33.496 -37.007,-37.0117" /><path
             id="path38"
             style="fill:none;stroke:#ffffff;stroke-width:3.99993992;stroke-linecap:butt;stroke-linejoin:miter;stroke-miterlimit:4;stroke-dasharray:none;stroke-opacity:1"
             d="m 249.895,51.1133 0,32.8125 37.007,37.6952 0,-33.496 -37.007,-37.0117 z" /><path
             id="path40"
             style="fill:#036998;fill-opacity:1;fill-rule:nonzero;stroke:none"
             d="m 299.758,126.621 -25.942,-37.6952 -228.3707,0 36.7578,37.6952 217.5549,0" /><path
             id="path42"
             style="fill:none;stroke:#ffffff;stroke-width:3.99993992;stroke-linecap:butt;stroke-linejoin:miter;stroke-miterlimit:4;stroke-dasharray:none;stroke-opacity:1"
             d="m 299.758,126.621 -25.942,-37.6952 -228.3707,0 36.7578,37.6952 217.5549,0 z" /><path
             id="path44"
             style="fill:#036998;fill-opacity:1;fill-rule:nonzero;stroke:none"
             d="m 44.8984,76.2109 218.508,0 0,12.7148 -218.508,0 0,-12.7148 z" /><path
             id="path46"
             style="fill:none;stroke:#ffffff;stroke-width:3.99993992;stroke-linecap:butt;stroke-linejoin:miter;stroke-miterlimit:4;stroke-dasharray:none;stroke-opacity:1"
             d="m 44.8984,76.2109 218.508,0 0,12.7148 -218.508,0 0,-12.7148 z" /><path
             id="path48"
             style="fill:#036998;fill-opacity:1;fill-rule:nonzero;stroke:none"
             d="m 263.215,76.1133 0,12.8125 37.027,37.6952 0,-13.496 -37.027,-37.0117" /><path
             id="path50"
             style="fill:none;stroke:#ffffff;stroke-width:3.99993992;stroke-linecap:butt;stroke-linejoin:miter;stroke-miterlimit:4;stroke-dasharray:none;stroke-opacity:1"
             d="m 263.215,76.1133 0,12.8125 37.027,37.6952 0,-13.496 -37.027,-37.0117 z" /><path
             id="path52"
             style="fill:#036998;fill-opacity:1;fill-rule:nonzero;stroke:none"
             d="m 299.758,126.621 -25.942,-37.6952 -228.3707,0 36.7578,37.6952 217.5549,0" /><path
             id="path54"
             style="fill:none;stroke:#ffffff;stroke-width:3.99993992;stroke-linecap:butt;stroke-linejoin:miter;stroke-miterlimit:4;stroke-dasharray:none;stroke-opacity:1"
             d="m 299.758,126.621 -25.942,-37.6952 -228.3707,0 36.7578,37.6952 217.5549,0 z" /><path
             id="path56"
             style="fill:#036998;fill-opacity:1;fill-rule:nonzero;stroke:none"
             d="m 44.8984,76.2109 218.508,0 0,12.7148 -218.508,0 0,-12.7148 z" /><path
             id="path58"
             style="fill:none;stroke:#ffffff;stroke-width:3.99993992;stroke-linecap:butt;stroke-linejoin:miter;stroke-miterlimit:4;stroke-dasharray:none;stroke-opacity:1"
             d="m 44.8984,76.2109 218.508,0 0,12.7148 -218.508,0 0,-12.7148 z" /><path
             id="path60"
             style="fill:#036998;fill-opacity:1;fill-rule:nonzero;stroke:none"
             d="m 263.215,76.1133 0,12.8125 37.027,37.6952 0,-13.496 -37.027,-37.0117" /><path
             id="path62"
             style="fill:none;stroke:#ffffff;stroke-width:3.99993992;stroke-linecap:butt;stroke-linejoin:miter;stroke-miterlimit:4;stroke-dasharray:none;stroke-opacity:1"
             d="m 263.215,76.1133 0,12.8125 37.027,37.6952 0,-13.496 -37.027,-37.0117 z" /><path
             id="path64"
             style="fill:#036998;fill-opacity:1;fill-rule:nonzero;stroke:none"
             d="m 300.945,299.922 -197.336,0 -57.7535,-13.586 228.5855,0 26.504,13.586" /><path
             id="path66"
             style="fill:none;stroke:#ffffff;stroke-width:3.99993992;stroke-linecap:butt;stroke-linejoin:miter;stroke-miterlimit:4;stroke-dasharray:none;stroke-opacity:1"
             d="m 300.945,299.922 -197.336,0 -57.7535,-13.586 228.5855,0 26.504,13.586 z" /><path
             id="path68"
             style="fill:#036998;fill-opacity:1;fill-rule:nonzero;stroke:none"
             d="m 264.563,104.922 -10.098,8.34 -185.4064,0 9.7852,-8.34 185.7192,0" /><path
             id="path70"
             style="fill:none;stroke:#ffffff;stroke-width:3.99993992;stroke-linecap:butt;stroke-linejoin:miter;stroke-miterlimit:4;stroke-dasharray:none;stroke-opacity:1"
             d="m 264.563,104.922 -10.098,8.34 -185.4064,0 9.7852,-8.34 185.7192,0 z" /><path
             id="path72"
             style="fill:#036998;fill-opacity:1;fill-rule:nonzero;stroke:none"
             d="m 265.691,106.379 -12.769,8.543 47.266,25 -30.43,-30.098 -4.067,-3.445" /><path
             id="path74"
             style="fill:none;stroke:#ffffff;stroke-width:3.99993992;stroke-linecap:butt;stroke-linejoin:miter;stroke-miterlimit:4;stroke-dasharray:none;stroke-opacity:1"
             d="m 265.691,106.379 -12.769,8.543 47.266,25 -30.43,-30.098 -4.067,-3.445 z" /><path
             id="path76"
             style="fill:#036998;fill-opacity:1;fill-rule:nonzero;stroke:none"
             d="m 274.441,286.336 0,-170.469 26.504,24.629 0,159.426 -26.504,-13.586" /><path
             id="path78"
             style="fill:none;stroke:#ffffff;stroke-width:3.99993992;stroke-linecap:butt;stroke-linejoin:miter;stroke-miterlimit:4;stroke-dasharray:none;stroke-opacity:1"
             d="m 274.441,286.336 0,-170.469 26.504,24.629 0,159.426 -26.504,-13.586 z" /><path
             id="path80"
             style="fill:#036998;fill-opacity:1;fill-rule:nonzero;stroke:none"
             d="m 45.8555,113.992 228.586,0 0,172.344 -228.586,0 0,-172.344 z" /><path
             id="path82"
             style="fill:none;stroke:#ffffff;stroke-width:3.99993992;stroke-linecap:butt;stroke-linejoin:miter;stroke-miterlimit:4;stroke-dasharray:none;stroke-opacity:1"
             d="m 45.8555,113.992 228.586,0 0,172.344 -228.586,0 0,-172.344 z" /><path
             id="path84"
             style="fill:#036998;fill-opacity:1;fill-rule:nonzero;stroke:none"
             d="m 255.227,6.48438 0,13.26172 28.613,39.5586 0,-24.2149 -28.613,-28.60542" /><path
             id="path86"
             style="fill:none;stroke:#ffffff;stroke-width:3.99993992;stroke-linecap:butt;stroke-linejoin:miter;stroke-miterlimit:4;stroke-dasharray:none;stroke-opacity:1"
             d="m 255.227,6.48438 0,13.26172 28.613,39.5586 0,-24.2149 -28.613,-28.60542 z" /><path
             id="path88"
             style="fill:#036998;fill-opacity:1;fill-rule:nonzero;stroke:none"
             d="m 3.10156,6.48438 252.125,0 0,13.0664 -252.125,0 0,-13.0664 z" /><path
             id="path90"
             style="fill:none;stroke:#ffffff;stroke-width:3.99993992;stroke-linecap:butt;stroke-linejoin:miter;stroke-miterlimit:4;stroke-dasharray:none;stroke-opacity:1"
             d="m 3.10156,6.48438 252.125,0 0,13.0664 -252.125,0 0,-13.0664 z" /><path
             id="path92"
             style="fill:#036998;fill-opacity:1;fill-rule:nonzero;stroke:none"
             d="m 326.926,16.9414 16.734,33.4492 -38.222,0 -16.715,-33.4492 38.203,0" /><path
             id="path94"
             style="fill:none;stroke:#ffffff;stroke-width:3.99993992;stroke-linecap:butt;stroke-linejoin:miter;stroke-miterlimit:4;stroke-dasharray:none;stroke-opacity:1"
             d="m 326.926,16.9414 16.734,33.4492 -38.222,0 -16.715,-33.4492 38.203,0 z" /><path
             id="path96"
             style="fill:#036998;fill-opacity:1;fill-rule:nonzero;stroke:none"
             d="m 288.723,6.19141 38.2031,0 0,10.75 -38.2031,0 0,-10.75 z" /><path
             id="path98"
             style="fill:none;stroke:#ffffff;stroke-width:3.99993992;stroke-linecap:butt;stroke-linejoin:miter;stroke-miterlimit:4;stroke-dasharray:none;stroke-opacity:1"
             d="m 288.723,6.19141 38.2031,0 0,10.75 -38.2031,0 0,-10.75 z" /><path
             id="path100"
             style="fill:#036998;fill-opacity:1;fill-rule:nonzero;stroke:none"
             d="M 326.633,5.89844 326.73,16.9414 343.445,50.3906 343.352,27.4023 326.633,5.89844" /><path
             id="path102"
             style="fill:none;stroke:#ffffff;stroke-width:3.99993992;stroke-linecap:butt;stroke-linejoin:miter;stroke-miterlimit:4;stroke-dasharray:none;stroke-opacity:1"
             d="M 326.633,5.89844 326.73,16.9414 343.445,50.3906 343.352,27.4023 326.633,5.89844 Z" /><path
             id="path104"
             style="fill:#036998;fill-opacity:1;fill-rule:nonzero;stroke:none"
             d="m 255.227,19.5508 -251.32466,0 28.60156,39.7539 251.3361,0 -28.613,-39.7539" /><path
             id="path106"
             style="fill:none;stroke:#ffffff;stroke-width:3.99993992;stroke-linecap:butt;stroke-linejoin:miter;stroke-miterlimit:4;stroke-dasharray:none;stroke-opacity:1"
             d="m 255.227,19.5508 -251.32466,0 28.60156,39.7539 251.3361,0 -28.613,-39.7539 z" /><path
             id="path108"
             style="fill:#036998;fill-opacity:1;fill-rule:nonzero;stroke:none"
             d="m 79.0586,268.34 160.5434,0 c 10.449,0 18.906,-8.469 18.906,-18.918 l 0,-101.414 c 0,-10.449 -8.457,-18.926 -18.906,-18.926 l -160.5434,0 c -10.4492,0 -18.918,8.477 -18.918,18.926 l 0,101.414 c 0,10.449 8.4688,18.918 18.918,18.918" /><path
             id="path110"
             style="fill:none;stroke:#ffffff;stroke-width:3.99993992;stroke-linecap:butt;stroke-linejoin:miter;stroke-miterlimit:4;stroke-dasharray:none;stroke-opacity:1"
             d="m 79.0586,268.34 160.5434,0 c 10.449,0 18.906,-8.469 18.906,-18.918 l 0,-101.414 c 0,-10.449 -8.457,-18.926 -18.906,-18.926 l -160.5434,0 c -10.4492,0 -18.918,8.477 -18.918,18.926 l 0,101.414 c 0,10.449 8.4688,18.918 18.918,18.918 z" /></g></g></g></g></svg>