<?xml version="1.0" encoding="UTF-8" standalone="no"?>
<svg
   xmlns:dc="http://purl.org/dc/elements/1.1/"
   xmlns:cc="http://creativecommons.org/ns#"
   xmlns:rdf="http://www.w3.org/1999/02/22-rdf-syntax-ns#"
   xmlns:svg="http://www.w3.org/2000/svg"
   xmlns="http://www.w3.org/2000/svg"
   viewBox="0 0 47.625 41.049999"
   height="41.049999"
   width="47.625"
   xml:space="preserve"
   version="1.1"
   id="svg2"><metadata
     id="metadata8"><rdf:RDF><cc:Work
         rdf:about=""><dc:format>image/svg+xml</dc:format><dc:type
           rdf:resource="http://purl.org/dc/dcmitype/StillImage" /></cc:Work></rdf:RDF></metadata><defs
     id="defs6"><clipPath
       id="clipPath18"
       clipPathUnits="userSpaceOnUse"><path
         id="path20"
         d="M 0,0 0,328 380,328 380,0 0,0 Z" /></clipPath></defs><g
     transform="matrix(1.25,0,0,-1.25,0,41.05)"
     id="g10"><g
       transform="scale(0.1,0.1)"
       id="g12"><g
         id="g14"><g
           clip-path="url(#clipPath18)"
           id="g16"><path
             id="path22"
             style="fill:#000000;fill-opacity:1;fill-rule:nonzero;stroke:none"
             d="m 312.309,141.852 -28.797,-38.399 -238.6331,0 39.0899,39.086 228.3402,-0.687" /><path
             id="path24"
             style="fill:none;stroke:#ffffff;stroke-width:3.99993992;stroke-linecap:butt;stroke-linejoin:miter;stroke-miterlimit:4;stroke-dasharray:none;stroke-opacity:1"
             d="m 312.309,141.852 -28.797,-38.399 -238.6331,0 39.0899,39.086 228.3402,-0.687 z" /><path
             id="path26"
             style="fill:#036998;fill-opacity:1;fill-rule:nonzero;stroke:none"
             d="m 44.3008,60.2578 229.004,0 0,42.7148 -229.004,0 0,-42.7148 z" /><path
             id="path28"
             style="fill:none;stroke:#ffffff;stroke-width:3.99993992;stroke-linecap:butt;stroke-linejoin:miter;stroke-miterlimit:4;stroke-dasharray:none;stroke-opacity:1"
             d="m 44.3008,60.2578 229.004,0 0,42.7148 -229.004,0 0,-42.7148 z" /><path
             id="path30"
             style="fill:#036998;fill-opacity:1;fill-rule:nonzero;stroke:none"
             d="m 43.5586,112.582 228.203,0 0,172.055 -228.203,0 0,-172.055 z" /><path
             id="path32"
             style="fill:none;stroke:#ffffff;stroke-width:3.99993992;stroke-linecap:butt;stroke-linejoin:miter;stroke-miterlimit:4;stroke-dasharray:none;stroke-opacity:1"
             d="m 43.5586,112.582 228.203,0 0,172.055 -228.203,0 0,-172.055 z" /><path
             id="path34"
             style="fill:#036998;fill-opacity:1;fill-rule:nonzero;stroke:none"
             d="m 271.762,112.582 38.937,38.938 0,172.054 -38.937,-38.937 0,-172.055" /><path
             id="path36"
             style="fill:none;stroke:#ffffff;stroke-width:3.99993992;stroke-linecap:butt;stroke-linejoin:miter;stroke-miterlimit:4;stroke-dasharray:none;stroke-opacity:1"
             d="m 271.762,112.582 38.937,38.938 0,172.054 -38.937,-38.937 0,-172.055 z" /><path
             id="path38"
             style="fill:#036998;fill-opacity:1;fill-rule:nonzero;stroke:none"
             d="m 357.984,22.7148 17.461,34.9454 -39.933,0 -17.469,-34.9454 39.941,0" /><path
             id="path40"
             style="fill:none;stroke:#ffffff;stroke-width:3.99993992;stroke-linecap:butt;stroke-linejoin:miter;stroke-miterlimit:4;stroke-dasharray:none;stroke-opacity:1"
             d="m 357.984,22.7148 17.461,34.9454 -39.933,0 -17.469,-34.9454 39.941,0 z" /><path
             id="path42"
             style="fill:#036998;fill-opacity:1;fill-rule:nonzero;stroke:none"
             d="m 318.043,11.4844 39.9414,0 0,11.2305 -39.9414,0 0,-11.2305 z" /><path
             id="path44"
             style="fill:none;stroke:#ffffff;stroke-width:3.99993992;stroke-linecap:butt;stroke-linejoin:miter;stroke-miterlimit:4;stroke-dasharray:none;stroke-opacity:1"
             d="m 318.043,11.4844 39.9414,0 0,11.2305 -39.9414,0 0,-11.2305 z" /><path
             id="path46"
             style="fill:#036998;fill-opacity:1;fill-rule:nonzero;stroke:none"
             d="m 357.66,11.1719 0.11,11.5429 17.468,34.9454 -0.097,-24.0235 -17.481,-22.4648" /><path
             id="path48"
             style="fill:none;stroke:#ffffff;stroke-width:3.99993992;stroke-linecap:butt;stroke-linejoin:miter;stroke-miterlimit:4;stroke-dasharray:none;stroke-opacity:1"
             d="m 357.66,11.1719 0.11,11.5429 17.468,34.9454 -0.097,-24.0235 -17.481,-22.4648 z" /><path
             id="path50"
             style="fill:#036998;fill-opacity:1;fill-rule:nonzero;stroke:none"
             d="m 273.121,60.1563 0,42.7387 38.68,38.687 0,-42.7382 -38.68,-38.6875" /><path
             id="path52"
             style="fill:none;stroke:#ffffff;stroke-width:3.99993992;stroke-linecap:butt;stroke-linejoin:miter;stroke-miterlimit:4;stroke-dasharray:none;stroke-opacity:1"
             d="m 273.121,60.1563 0,42.7387 38.68,38.687 0,-42.7382 -38.68,-38.6875 z" /><path
             id="path54"
             style="fill:#036998;fill-opacity:1;fill-rule:nonzero;stroke:none"
             d="m 81.4414,264.813 152.4886,0 c 9.933,0 17.968,-8.047 17.968,-17.969 l 0,-96.34 c 0,-9.922 -8.035,-17.969 -17.968,-17.969 l -152.4886,0 c -9.9336,0 -17.9805,8.047 -17.9805,17.969 l 0,96.34 c 0,9.922 8.0469,17.969 17.9805,17.969" /><path
             id="path56"
             style="fill:none;stroke:#ffffff;stroke-width:3.99993992;stroke-linecap:butt;stroke-linejoin:miter;stroke-miterlimit:4;stroke-dasharray:none;stroke-opacity:1"
             d="m 81.4414,264.813 152.4886,0 c 9.933,0 17.968,-8.047 17.968,-17.969 l 0,-96.34 c 0,-9.922 -8.035,-17.969 -17.968,-17.969 l -152.4886,0 c -9.9336,0 -17.9805,8.047 -17.9805,17.969 l 0,96.34 c 0,9.922 8.0469,17.969 17.9805,17.969 z" /><path
             id="path58"
             style="fill:#036998;fill-opacity:1;fill-rule:nonzero;stroke:none"
             d="m 310.699,323.574 -221.9646,0 -45.1758,-38.937 228.2034,0 38.937,38.937" /><path
             id="path60"
             style="fill:none;stroke:#ffffff;stroke-width:3.99993992;stroke-linecap:butt;stroke-linejoin:miter;stroke-miterlimit:4;stroke-dasharray:none;stroke-opacity:1"
             d="m 310.699,323.574 -221.9646,0 -45.1758,-38.937 228.2034,0 38.937,38.937 z" /><path
             id="path62"
             style="fill:#036998;fill-opacity:1;fill-rule:nonzero;stroke:none"
             d="m 266.508,4.82422 0,13.84768 29.883,41.3437 0,-25.3086 -29.883,-29.88278" /><path
             id="path64"
             style="fill:none;stroke:#ffffff;stroke-width:3.99993992;stroke-linecap:butt;stroke-linejoin:miter;stroke-miterlimit:4;stroke-dasharray:none;stroke-opacity:1"
             d="m 266.508,4.82422 0,13.84768 29.883,41.3437 0,-25.3086 -29.883,-29.88278 z" /><path
             id="path66"
             style="fill:#036998;fill-opacity:1;fill-rule:nonzero;stroke:none"
             d="m 266.508,18.4648 -262.60566,0 29.88286,41.5508 262.6058,0 -29.883,-41.5508" /><path
             id="path68"
             style="fill:none;stroke:#ffffff;stroke-width:3.99993992;stroke-linecap:butt;stroke-linejoin:miter;stroke-miterlimit:4;stroke-dasharray:none;stroke-opacity:1"
             d="m 266.508,18.4648 -262.60566,0 29.88286,41.5508 262.6058,0 -29.883,-41.5508 z" /><path
             id="path70"
             style="fill:#036998;fill-opacity:1;fill-rule:nonzero;stroke:none"
             d="m 3.74609,4.82422 262.762,0 0,13.6406 -262.762,0 0,-13.6406 z" /><path
             id="path72"
             style="fill:none;stroke:#ffffff;stroke-width:3.99993992;stroke-linecap:butt;stroke-linejoin:miter;stroke-miterlimit:4;stroke-dasharray:none;stroke-opacity:1"
             d="m 3.74609,4.82422 262.762,0 0,13.6406 -262.762,0 0,-13.6406 z" /><path
             id="path74"
             style="fill:none;stroke:#036998;stroke-width:5;stroke-linecap:butt;stroke-linejoin:miter;stroke-miterlimit:4;stroke-dasharray:none;stroke-opacity:1"
             d="m 365.465,56.4102 c 31.199,14.9765 6.238,78.6168 -55.93,46.7378" /><path
             id="path76"
             style="fill:none;stroke:#ffffff;stroke-width:5;stroke-linecap:butt;stroke-linejoin:miter;stroke-miterlimit:4;stroke-dasharray:none;stroke-opacity:1"
             d="m 157.113,172.539 c 32.317,0 58.516,11.91 58.516,26.602 0,14.691 -26.199,26.601 -58.516,26.601 -32.324,0 -58.5232,-11.91 -58.5232,-26.601 0,-14.692 26.1992,-26.602 58.5232,-26.602 z" /><path
             id="path78"
             style="fill:none;stroke:#ffffff;stroke-width:5;stroke-linecap:butt;stroke-linejoin:miter;stroke-miterlimit:4;stroke-dasharray:none;stroke-opacity:1"
             d="m 157.555,163.023 c 41.492,0 75.125,16.356 75.125,36.532 0,20.175 -33.633,36.535 -75.125,36.535 -41.485,0 -75.1175,-16.36 -75.1175,-36.535 0,-20.176 33.6325,-36.532 75.1175,-36.532 z" /></g></g></g></g></svg>