<?xml version="1.0" encoding="UTF-8" standalone="no"?>
<svg
   xmlns:dc="http://purl.org/dc/elements/1.1/"
   xmlns:cc="http://creativecommons.org/ns#"
   xmlns:rdf="http://www.w3.org/1999/02/22-rdf-syntax-ns#"
   xmlns:svg="http://www.w3.org/2000/svg"
   xmlns="http://www.w3.org/2000/svg"
   viewBox="0 0 47.5 42.5"
   height="42.5"
   width="47.5"
   xml:space="preserve"
   version="1.1"
   id="svg2"><metadata
     id="metadata8"><rdf:RDF><cc:Work
         rdf:about=""><dc:format>image/svg+xml</dc:format><dc:type
           rdf:resource="http://purl.org/dc/dcmitype/StillImage" /></cc:Work></rdf:RDF></metadata><defs
     id="defs6"><clipPath
       id="clipPath18"
       clipPathUnits="userSpaceOnUse"><path
         id="path20"
         d="M 0,9 0,338 380,338 380,9 0,9 Z" /></clipPath></defs><g
     transform="matrix(1.25,0,0,-1.25,0,42.5)"
     id="g10"><g
       transform="scale(0.1,0.1)"
       id="g12"><g
         id="g14"><g
           clip-path="url(#clipPath18)"
           id="g16"><path
             id="path22"
             style="fill:#000000;fill-opacity:1;fill-rule:nonzero;stroke:none"
             d="m 312.301,151.871 -28.781,-38.402 -238.6411,0 39.1016,39.062 228.3205,-0.66" /><path
             id="path24"
             style="fill:none;stroke:#ffffff;stroke-width:3.99993992;stroke-linecap:butt;stroke-linejoin:miter;stroke-miterlimit:4;stroke-dasharray:none;stroke-opacity:1"
             d="m 312.301,151.871 -28.781,-38.402 -238.6411,0 39.1016,39.062 228.3205,-0.66 z" /><path
             id="path26"
             style="fill:#036998;fill-opacity:1;fill-rule:nonzero;stroke:none"
             d="m 44.3008,70.2617 229.02,0 0,42.6992 -229.02,0 0,-42.6992 z" /><path
             id="path28"
             style="fill:none;stroke:#ffffff;stroke-width:3.99993992;stroke-linecap:butt;stroke-linejoin:miter;stroke-miterlimit:4;stroke-dasharray:none;stroke-opacity:1"
             d="m 44.3008,70.2617 229.02,0 0,42.6992 -229.02,0 0,-42.6992 z" /><path
             id="path30"
             style="fill:#036998;fill-opacity:1;fill-rule:nonzero;stroke:none"
             d="m 43.5508,122.57 228.199,0 0,172.07 -228.199,0 0,-172.07 z" /><path
             id="path32"
             style="fill:none;stroke:#ffffff;stroke-width:3.99993992;stroke-linecap:butt;stroke-linejoin:miter;stroke-miterlimit:4;stroke-dasharray:none;stroke-opacity:1"
             d="m 43.5508,122.57 228.199,0 0,172.07 -228.199,0 0,-172.07 z" /><path
             id="path34"
             style="fill:#036998;fill-opacity:1;fill-rule:nonzero;stroke:none"
             d="m 271.762,122.57 38.937,38.95 0,172.07 -38.937,-38.949 0,-172.071" /><path
             id="path36"
             style="fill:none;stroke:#ffffff;stroke-width:3.99993992;stroke-linecap:butt;stroke-linejoin:miter;stroke-miterlimit:4;stroke-dasharray:none;stroke-opacity:1"
             d="m 271.762,122.57 38.937,38.95 0,172.07 -38.937,-38.949 0,-172.071 z" /><path
             id="path38"
             style="fill:#036998;fill-opacity:1;fill-rule:nonzero;stroke:none"
             d="m 357.969,32.7305 17.461,34.9179 -39.918,0 -17.461,-34.9179 39.918,0" /><path
             id="path40"
             style="fill:none;stroke:#ffffff;stroke-width:3.99993992;stroke-linecap:butt;stroke-linejoin:miter;stroke-miterlimit:4;stroke-dasharray:none;stroke-opacity:1"
             d="m 357.969,32.7305 17.461,34.9179 -39.918,0 -17.461,-34.9179 39.918,0 z" /><path
             id="path42"
             style="fill:#036998;fill-opacity:1;fill-rule:nonzero;stroke:none"
             d="m 318.051,21.4805 39.918,0 0,11.25 -39.918,0 0,-11.25 z" /><path
             id="path44"
             style="fill:none;stroke:#ffffff;stroke-width:3.99993992;stroke-linecap:butt;stroke-linejoin:miter;stroke-miterlimit:4;stroke-dasharray:none;stroke-opacity:1"
             d="m 318.051,21.4805 39.918,0 0,11.25 -39.918,0 0,-11.25 z" /><path
             id="path46"
             style="fill:#036998;fill-opacity:1;fill-rule:nonzero;stroke:none"
             d="m 357.66,21.1602 0.11,11.5703 17.46,34.9179 -0.07,-24.0273 -17.5,-22.4609" /><path
             id="path48"
             style="fill:none;stroke:#ffffff;stroke-width:3.99993992;stroke-linecap:butt;stroke-linejoin:miter;stroke-miterlimit:4;stroke-dasharray:none;stroke-opacity:1"
             d="m 357.66,21.1602 0.11,11.5703 17.46,34.9179 -0.07,-24.0273 -17.5,-22.4609 z" /><path
             id="path50"
             style="fill:#036998;fill-opacity:1;fill-rule:nonzero;stroke:none"
             d="m 273.121,70.1484 0,42.7306 38.68,38.711 0,-42.731 -38.68,-38.7106" /><path
             id="path52"
             style="fill:none;stroke:#ffffff;stroke-width:3.99993992;stroke-linecap:butt;stroke-linejoin:miter;stroke-miterlimit:4;stroke-dasharray:none;stroke-opacity:1"
             d="m 273.121,70.1484 0,42.7306 38.68,38.711 0,-42.731 -38.68,-38.7106 z" /><path
             id="path54"
             style="fill:#036998;fill-opacity:1;fill-rule:nonzero;stroke:none"
             d="m 81.4492,274.801 152.4998,0 c 9.922,0 17.961,-8.051 17.961,-17.973 l 0,-96.328 c 0,-9.922 -8.039,-17.969 -17.961,-17.969 l -152.4998,0 c -9.9297,0 -17.9687,8.047 -17.9687,17.969 l 0,96.328 c 0,9.922 8.039,17.973 17.9687,17.973" /><path
             id="path56"
             style="fill:none;stroke:#ffffff;stroke-width:3.99993992;stroke-linecap:butt;stroke-linejoin:miter;stroke-miterlimit:4;stroke-dasharray:none;stroke-opacity:1"
             d="m 81.4492,274.801 152.4998,0 c 9.922,0 17.961,-8.051 17.961,-17.973 l 0,-96.328 c 0,-9.922 -8.039,-17.969 -17.961,-17.969 l -152.4998,0 c -9.9297,0 -17.9687,8.047 -17.9687,17.969 l 0,96.328 c 0,9.922 8.039,17.973 17.9687,17.973 z" /><path
             id="path58"
             style="fill:#036998;fill-opacity:1;fill-rule:nonzero;stroke:none"
             d="m 310.699,333.59 -221.949,0 -45.1992,-38.949 228.2112,0 38.937,38.949" /><path
             id="path60"
             style="fill:none;stroke:#ffffff;stroke-width:3.99993992;stroke-linecap:butt;stroke-linejoin:miter;stroke-miterlimit:4;stroke-dasharray:none;stroke-opacity:1"
             d="m 310.699,333.59 -221.949,0 -45.1992,-38.949 228.2112,0 38.937,38.949 z" /><path
             id="path62"
             style="fill:#036998;fill-opacity:1;fill-rule:nonzero;stroke:none"
             d="m 266.52,14.8398 0,13.8204 29.89,41.3711 0,-25.3125 -29.89,-29.879" /><path
             id="path64"
             style="fill:none;stroke:#ffffff;stroke-width:3.99993992;stroke-linecap:butt;stroke-linejoin:miter;stroke-miterlimit:4;stroke-dasharray:none;stroke-opacity:1"
             d="m 266.52,14.8398 0,13.8204 29.89,41.3711 0,-25.3125 -29.89,-29.879 z" /><path
             id="path66"
             style="fill:#036998;fill-opacity:1;fill-rule:nonzero;stroke:none"
             d="m 266.52,28.4688 -262.60984,0 29.87894,41.5625 262.6209,0 -29.89,-41.5625" /><path
             id="path68"
             style="fill:none;stroke:#ffffff;stroke-width:3.99993992;stroke-linecap:butt;stroke-linejoin:miter;stroke-miterlimit:4;stroke-dasharray:none;stroke-opacity:1"
             d="m 266.52,28.4688 -262.60984,0 29.87894,41.5625 262.6209,0 -29.89,-41.5625 z" /><path
             id="path70"
             style="fill:#036998;fill-opacity:1;fill-rule:nonzero;stroke:none"
             d="m 3.75,14.8398 262.77,0 0,13.6289 -262.77,0 0,-13.6289 z" /><path
             id="path72"
             style="fill:none;stroke:#ffffff;stroke-width:3.99993992;stroke-linecap:butt;stroke-linejoin:miter;stroke-miterlimit:4;stroke-dasharray:none;stroke-opacity:1"
             d="m 3.75,14.8398 262.77,0 0,13.6289 -262.77,0 0,-13.6289 z" /><path
             id="path74"
             style="fill:none;stroke:#036998;stroke-width:5;stroke-linecap:butt;stroke-linejoin:miter;stroke-miterlimit:4;stroke-dasharray:none;stroke-opacity:1"
             d="m 365.469,66.3984 c 31.211,15 6.25,78.6326 -55.938,46.7616" /><path
             id="path76"
             style="fill:none;stroke:#ffffff;stroke-width:5;stroke-linecap:butt;stroke-linejoin:miter;stroke-miterlimit:4;stroke-dasharray:none;stroke-opacity:1"
             d="m 157.109,182.531 c 32.301,0 58.512,11.918 58.512,26.598 0,14.691 -26.211,26.601 -58.512,26.601 -32.308,0 -58.5192,-11.91 -58.5192,-26.601 0,-14.68 26.2112,-26.598 58.5192,-26.598 z" /><path
             id="path78"
             style="fill:none;stroke:#ffffff;stroke-width:5;stroke-linecap:butt;stroke-linejoin:miter;stroke-miterlimit:4;stroke-dasharray:none;stroke-opacity:1"
             d="m 157.539,173.039 c 41.52,0 75.16,16.332 75.16,36.52 0,20.16 -33.64,36.531 -75.16,36.531 -41.488,0 -75.1171,-16.371 -75.1171,-36.531 0,-20.188 33.6291,-36.52 75.1171,-36.52 z" /></g></g></g></g></svg>