<?xml version="1.0" encoding="UTF-8" standalone="no"?>
<svg
   xmlns:dc="http://purl.org/dc/elements/1.1/"
   xmlns:cc="http://creativecommons.org/ns#"
   xmlns:rdf="http://www.w3.org/1999/02/22-rdf-syntax-ns#"
   xmlns:svg="http://www.w3.org/2000/svg"
   xmlns="http://www.w3.org/2000/svg"
   viewBox="0 0 40 42.5"
   height="42.5"
   width="40"
   xml:space="preserve"
   version="1.1"
   id="svg2"><metadata
     id="metadata8"><rdf:RDF><cc:Work
         rdf:about=""><dc:format>image/svg+xml</dc:format><dc:type
           rdf:resource="http://purl.org/dc/dcmitype/StillImage" /></cc:Work></rdf:RDF></metadata><defs
     id="defs6" /><g
     transform="matrix(1.25,0,0,-1.25,0,42.5)"
     id="g10"><g
       transform="scale(0.1,0.1)"
       id="g12"><path
         id="path14"
         style="fill:#036998;fill-opacity:1;fill-rule:nonzero;stroke:none"
         d="m 312.301,151.84 -28.781,-38.399 -238.6411,0 39.0703,39.11 228.3518,-0.711" /><path
         id="path16"
         style="fill:none;stroke:#ffffff;stroke-width:3.99993992;stroke-linecap:butt;stroke-linejoin:miter;stroke-miterlimit:4;stroke-dasharray:none;stroke-opacity:1"
         d="m 312.301,151.848 -28.781,-38.403 -238.6411,0 39.0703,39.102 228.3518,-0.699 z" /><path
         id="path18"
         style="fill:#036998;fill-opacity:1;fill-rule:nonzero;stroke:none"
         d="m 44.3008,70.2813 228.98,0 0,42.6992 -228.98,0 0,-42.6992 z" /><path
         id="path20"
         style="fill:none;stroke:#ffffff;stroke-width:3.99993992;stroke-linecap:butt;stroke-linejoin:miter;stroke-miterlimit:4;stroke-dasharray:none;stroke-opacity:1"
         d="m 44.3008,70.2773 228.98,0 0,42.6992 -228.98,0 0,-42.6992 z" /><path
         id="path22"
         style="fill:#036998;fill-opacity:1;fill-rule:nonzero;stroke:none"
         d="m 43.5508,122.59 228.199,0 0,172.07 -228.199,0 0,-172.07 z" /><path
         id="path24"
         style="fill:none;stroke:#ffffff;stroke-width:3.99993992;stroke-linecap:butt;stroke-linejoin:miter;stroke-miterlimit:4;stroke-dasharray:none;stroke-opacity:1"
         d="m 43.5508,122.586 228.199,0 0,172.07 -228.199,0 0,-172.07 z" /><path
         id="path26"
         style="fill:#036998;fill-opacity:1;fill-rule:nonzero;stroke:none"
         d="m 271.762,122.59 38.937,38.941 0,172.028 -38.937,-38.899 0,-172.07" /><path
         id="path28"
         style="fill:none;stroke:#ffffff;stroke-width:3.99993992;stroke-linecap:butt;stroke-linejoin:miter;stroke-miterlimit:4;stroke-dasharray:none;stroke-opacity:1"
         d="m 271.762,122.586 38.937,38.941 0,172.039 -38.937,-38.91 0,-172.07 z" /><path
         id="path30"
         style="fill:#036998;fill-opacity:1;fill-rule:nonzero;stroke:none"
         d="m 273.09,70.1602 0,42.7378 38.711,38.672 0,-42.73 -38.711,-38.6798" /><path
         id="path32"
         style="fill:none;stroke:#ffffff;stroke-width:3.99993992;stroke-linecap:butt;stroke-linejoin:miter;stroke-miterlimit:4;stroke-dasharray:none;stroke-opacity:1"
         d="m 273.09,70.1641 0,42.7309 38.711,38.671 0,-42.73 -38.711,-38.6719 z" /><path
         id="path34"
         style="fill:#036998;fill-opacity:1;fill-rule:nonzero;stroke:none"
         d="m 81.4492,274.809 152.4608,0 c 9.918,0 17.969,-8.039 17.969,-17.969 l 0,-96.32 c 0,-9.93 -8.051,-17.969 -17.969,-17.969 l -152.4608,0 c -9.9297,0 -17.9687,8.039 -17.9687,17.969 l 0,96.32 c 0,9.93 8.039,17.969 17.9687,17.969" /><path
         id="path36"
         style="fill:none;stroke:#ffffff;stroke-width:3.99993992;stroke-linecap:butt;stroke-linejoin:miter;stroke-miterlimit:4;stroke-dasharray:none;stroke-opacity:1"
         d="m 81.4492,274.816 152.4608,0 c 9.918,0 17.969,-8.05 17.969,-17.968 l 0,-96.332 c 0,-9.918 -8.051,-17.969 -17.969,-17.969 l -152.4608,0 c -9.9297,0 -17.9687,8.051 -17.9687,17.969 l 0,96.332 c 0,9.918 8.039,17.968 17.9687,17.968 z" /><path
         id="path38"
         style="fill:#036998;fill-opacity:1;fill-rule:nonzero;stroke:none"
         d="m 310.699,333.559 -221.949,0 -45.1992,-38.899 228.2112,0 38.937,38.899" /><path
         id="path40"
         style="fill:none;stroke:#ffffff;stroke-width:3.99993992;stroke-linecap:butt;stroke-linejoin:miter;stroke-miterlimit:4;stroke-dasharray:none;stroke-opacity:1"
         d="m 310.699,333.566 -221.949,0 -45.1992,-38.91 228.2112,0 38.937,38.91 z" /><path
         id="path42"
         style="fill:#036998;fill-opacity:1;fill-rule:nonzero;stroke:none"
         d="m 266.48,14.8086 0,13.8711 29.891,41.332 0,-25.3203 -29.891,-29.8828" /><path
         id="path44"
         style="fill:none;stroke:#ffffff;stroke-width:3.99993992;stroke-linecap:butt;stroke-linejoin:miter;stroke-miterlimit:4;stroke-dasharray:none;stroke-opacity:1"
         d="m 266.48,14.8164 0,13.8594 29.891,41.3281 0,-25.3086 -29.891,-29.8789 z" /><path
         id="path46"
         style="fill:#036998;fill-opacity:1;fill-rule:nonzero;stroke:none"
         d="m 266.48,28.4805 -262.56984,0 29.87894,41.5312 262.5819,0 -29.891,-41.5312" /><path
         id="path48"
         style="fill:none;stroke:#ffffff;stroke-width:3.99993992;stroke-linecap:butt;stroke-linejoin:miter;stroke-miterlimit:4;stroke-dasharray:none;stroke-opacity:1"
         d="m 266.48,28.4844 -262.56984,0 29.87894,41.5195 262.5819,0 -29.891,-41.5195 z" /><path
         id="path50"
         style="fill:#036998;fill-opacity:1;fill-rule:nonzero;stroke:none"
         d="m 3.75,14.8086 262.73,0 0,13.6719 -262.73,0 0,-13.6719 z" /><path
         id="path52"
         style="fill:none;stroke:#ffffff;stroke-width:3.99993992;stroke-linecap:butt;stroke-linejoin:miter;stroke-miterlimit:4;stroke-dasharray:none;stroke-opacity:1"
         d="m 3.75,14.8164 262.73,0 0,13.668 -262.73,0 0,-13.668 z" /><path
         id="path54"
         style="fill:#036998;fill-opacity:1;fill-rule:nonzero;stroke:none"
         d="m 134.102,245.121 c -26.68,5.359 -40.7426,-8.32 -38.5122,-20.109 l 0.1485,-0.672 C 74.9609,220.828 80.4297,196.262 90.3906,196.262 l 0.9805,0.039 C 89.0195,179.379 114.02,169.379 126.719,178.91 l 0.859,0.942 c 3.942,-16.09 57.692,-17.34 68.551,-5.274 l 0.98,-0.308 c 23.551,-1.879 34.262,14.371 29.102,26.05 l 1.289,0.352 c 8.012,2.109 8.949,20.668 -4.801,23.398 l 0.231,0.7 c 5.98,12.07 -8.129,23.441 -27.66,21.289 l -1.36,0.711 c -14.031,12.691 -54.301,10.621 -58.988,-1.918 l -0.82,0.269" /><path
         id="path56"
         style="fill:none;stroke:#ffffff;stroke-width:3.99993992;stroke-linecap:butt;stroke-linejoin:miter;stroke-miterlimit:4;stroke-dasharray:none;stroke-opacity:1"
         d="m 134.102,245.125 c -26.68,5.352 -40.7426,-8.32 -38.5122,-20.121 l 0.1485,-0.656 C 74.9609,220.824 80.4297,196.254 90.3906,196.254 l 0.9805,0.043 c -2.3516,-16.91 22.6489,-26.91 35.3479,-17.383 l 0.859,0.941 c 3.942,-16.101 57.692,-17.351 68.551,-5.281 l 0.98,-0.308 c 23.551,-1.879 34.262,14.371 29.102,26.05 l 1.289,0.36 c 8.012,2.109 8.949,20.66 -4.801,23.39 l 0.231,0.711 c 5.98,12.071 -8.129,23.43 -27.66,21.289 l -1.36,0.7 c -14.031,12.691 -54.301,10.621 -58.988,-1.911 l -0.82,0.27 z" /></g></g></svg>