<?xml version="1.0" encoding="UTF-8" standalone="no"?>
<svg
   xmlns:dc="http://purl.org/dc/elements/1.1/"
   xmlns:cc="http://creativecommons.org/ns#"
   xmlns:rdf="http://www.w3.org/1999/02/22-rdf-syntax-ns#"
   xmlns:svg="http://www.w3.org/2000/svg"
   xmlns="http://www.w3.org/2000/svg"
   viewBox="0 0 39.537498 41.049999"
   height="41.049999"
   width="39.537498"
   xml:space="preserve"
   version="1.1"
   id="svg2"><metadata
     id="metadata8"><rdf:RDF><cc:Work
         rdf:about=""><dc:format>image/svg+xml</dc:format><dc:type
           rdf:resource="http://purl.org/dc/dcmitype/StillImage" /></cc:Work></rdf:RDF></metadata><defs
     id="defs6" /><g
     transform="matrix(1.25,0,0,-1.25,0,41.05)"
     id="g10"><g
       transform="scale(0.1,0.1)"
       id="g12"><path
         id="path14"
         style="fill:#036998;fill-opacity:1;fill-rule:nonzero;stroke:none"
         d="m 312.305,141.855 -28.789,-38.398 -238.6371,0 39.082,39.082 228.3441,-0.684" /><path
         id="path16"
         style="fill:none;stroke:#ffffff;stroke-width:3.99993992;stroke-linecap:butt;stroke-linejoin:miter;stroke-miterlimit:4;stroke-dasharray:none;stroke-opacity:1"
         d="m 312.305,141.855 -28.789,-38.398 -238.6371,0 39.082,39.082 228.3441,-0.684 z" /><path
         id="path18"
         style="fill:#036998;fill-opacity:1;fill-rule:nonzero;stroke:none"
         d="m 44.293,60.2617 229.008,0 0,42.707 -229.008,0 0,-42.707 z" /><path
         id="path20"
         style="fill:none;stroke:#ffffff;stroke-width:3.99993992;stroke-linecap:butt;stroke-linejoin:miter;stroke-miterlimit:4;stroke-dasharray:none;stroke-opacity:1"
         d="m 44.293,60.2617 229.008,0 0,42.707 -229.008,0 0,-42.707 z" /><path
         id="path22"
         style="fill:#036998;fill-opacity:1;fill-rule:nonzero;stroke:none"
         d="m 43.5508,112.578 228.207,0 0,172.059 -228.207,0 0,-172.059 z" /><path
         id="path24"
         style="fill:none;stroke:#ffffff;stroke-width:3.99993992;stroke-linecap:butt;stroke-linejoin:miter;stroke-miterlimit:4;stroke-dasharray:none;stroke-opacity:1"
         d="m 43.5508,112.578 228.207,0 0,172.059 -228.207,0 0,-172.059 z" /><path
         id="path26"
         style="fill:#036998;fill-opacity:1;fill-rule:nonzero;stroke:none"
         d="m 271.758,112.578 38.945,38.945 0,172.051 -38.945,-38.937 0,-172.059" /><path
         id="path28"
         style="fill:none;stroke:#ffffff;stroke-width:3.99993992;stroke-linecap:butt;stroke-linejoin:miter;stroke-miterlimit:4;stroke-dasharray:none;stroke-opacity:1"
         d="m 271.758,112.578 38.945,38.945 0,172.051 -38.945,-38.937 0,-172.059 z" /><path
         id="path30"
         style="fill:#036998;fill-opacity:1;fill-rule:nonzero;stroke:none"
         d="m 273.105,60.1563 0,42.7417 38.692,38.684 0,-42.7343 -38.692,-38.6914" /><path
         id="path32"
         style="fill:none;stroke:#ffffff;stroke-width:3.99993992;stroke-linecap:butt;stroke-linejoin:miter;stroke-miterlimit:4;stroke-dasharray:none;stroke-opacity:1"
         d="m 273.105,60.1563 0,42.7417 38.692,38.684 0,-42.7343 -38.692,-38.6914 z" /><path
         id="path34"
         style="fill:#036998;fill-opacity:1;fill-rule:nonzero;stroke:none"
         d="m 81.4297,264.824 152.4963,0 c 9.922,0 17.969,-8.047 17.969,-17.98 l 0,-96.336 c 0,-9.922 -8.047,-17.969 -17.969,-17.969 l -152.4963,0 c -9.9219,0 -17.9688,8.047 -17.9688,17.969 l 0,96.336 c 0,9.933 8.0469,17.98 17.9688,17.98" /><path
         id="path36"
         style="fill:none;stroke:#ffffff;stroke-width:3.99993992;stroke-linecap:butt;stroke-linejoin:miter;stroke-miterlimit:4;stroke-dasharray:none;stroke-opacity:1"
         d="m 81.4297,264.824 152.4963,0 c 9.922,0 17.969,-8.047 17.969,-17.98 l 0,-96.336 c 0,-9.922 -8.047,-17.969 -17.969,-17.969 l -152.4963,0 c -9.9219,0 -17.9688,8.047 -17.9688,17.969 l 0,96.336 c 0,9.933 8.0469,17.98 17.9688,17.98 z" /><path
         id="path38"
         style="fill:#036998;fill-opacity:1;fill-rule:nonzero;stroke:none"
         d="m 310.703,323.574 -221.9686,0 -45.1836,-38.937 228.2072,0 38.945,38.937" /><path
         id="path40"
         style="fill:none;stroke:#ffffff;stroke-width:3.99993992;stroke-linecap:butt;stroke-linejoin:miter;stroke-miterlimit:4;stroke-dasharray:none;stroke-opacity:1"
         d="m 310.703,323.574 -221.9686,0 -45.1836,-38.937 228.2072,0 38.945,38.937 z" /><path
         id="path42"
         style="fill:#036998;fill-opacity:1;fill-rule:nonzero;stroke:none"
         d="m 266.504,4.82422 0,13.84768 29.883,41.3476 0,-25.3125 -29.883,-29.88278" /><path
         id="path44"
         style="fill:none;stroke:#ffffff;stroke-width:3.99993992;stroke-linecap:butt;stroke-linejoin:miter;stroke-miterlimit:4;stroke-dasharray:none;stroke-opacity:1"
         d="m 266.504,4.82422 0,13.84768 29.883,41.3476 0,-25.3125 -29.883,-29.88278 z" /><path
         id="path46"
         style="fill:#036998;fill-opacity:1;fill-rule:nonzero;stroke:none"
         d="m 266.504,18.4648 -262.60166,0 29.87106,41.5547 262.6136,0 -29.883,-41.5547" /><path
         id="path48"
         style="fill:none;stroke:#ffffff;stroke-width:3.99993992;stroke-linecap:butt;stroke-linejoin:miter;stroke-miterlimit:4;stroke-dasharray:none;stroke-opacity:1"
         d="m 266.504,18.4648 -262.60166,0 29.87106,41.5547 262.6136,0 -29.883,-41.5547 z" /><path
         id="path50"
         style="fill:#036998;fill-opacity:1;fill-rule:nonzero;stroke:none"
         d="m 3.74609,4.82422 262.758,0 0,13.6406 -262.758,0 0,-13.6406 z" /><path
         id="path52"
         style="fill:none;stroke:#ffffff;stroke-width:3.99993992;stroke-linecap:butt;stroke-linejoin:miter;stroke-miterlimit:4;stroke-dasharray:none;stroke-opacity:1"
         d="m 3.74609,4.82422 262.758,0 0,13.6406 -262.758,0 0,-13.6406 z" /><path
         id="path54"
         style="fill:#036998;fill-opacity:1;fill-rule:nonzero;stroke:none"
         d="M 134.117,235.137 C 107.438,240.469 93.3555,226.805 95.582,215 l 0.1758,-0.645 C 74.9766,210.809 80.4258,186.27 90.3945,186.27 l 0.9883,0.039 c -2.3437,-16.914 22.6562,-26.914 35.3322,-17.403 l 0.859,0.957 c 3.965,-16.093 57.719,-17.343 68.578,-5.304 l 0.957,-0.282 c 23.555,-1.894 34.278,14.364 29.121,26.043 l 1.27,0.364 c 8.027,2.109 8.965,20.644 -4.805,23.379 l 0.254,0.722 c 5.977,12.051 -8.125,23.418 -27.676,21.289 l -1.367,0.703 c -14.004,12.676 -54.312,10.614 -58.98,-1.933 l -0.809,0.293" /><path
         id="path56"
         style="fill:none;stroke:#ffffff;stroke-width:3.99993992;stroke-linecap:butt;stroke-linejoin:miter;stroke-miterlimit:4;stroke-dasharray:none;stroke-opacity:1"
         d="M 134.117,235.137 C 107.438,240.469 93.3555,226.805 95.582,215 l 0.1758,-0.645 C 74.9766,210.809 80.4258,186.27 90.3945,186.27 l 0.9883,0.039 c -2.3437,-16.914 22.6562,-26.914 35.3322,-17.403 l 0.859,0.957 c 3.965,-16.093 57.719,-17.343 68.578,-5.304 l 0.957,-0.282 c 23.555,-1.894 34.278,14.364 29.121,26.043 l 1.27,0.364 c 8.027,2.109 8.965,20.644 -4.805,23.379 l 0.254,0.722 c 5.977,12.051 -8.125,23.418 -27.676,21.289 l -1.367,0.703 c -14.004,12.676 -54.312,10.614 -58.98,-1.933 l -0.809,0.293 z" /></g></g></svg>