<svg xmlns="http://www.w3.org/2000/svg" viewBox="0 0 31.25 33.75" height="33.75" width="31.25"><g fill="#2a3282"><path d="M23.901 1.2H4.2C1.899 1.2 0 3.1 0 5.4v22.9c0 2.301 1.9 4.2 4.199 4.2h21.803c2.3 0 4.198-1.899 4.198-4.2V7.402l-6.299-6.2zm3.697 27.1a1.58 1.58 0 0 1-1.596 1.601H4.198A1.585 1.585 0 0 1 2.598 28.3V5.3c0-.902.703-1.6 1.6-1.6h18.4v5.096h5V28.3z"/><path d="M4.6 18.402l5.697 3.697v-2.1l-3.998-2.3 3.998-2.5V13.1L4.6 17.002v1.4zM11.601 24.701h1.7L17.598 10.2H15.8l-4.2 14.502zM18.998 15.101l4.102 2.5-4.102 2.3v2.1l5.705-3.701v-1.401l-5.704-3.897v2.1z"/></g></svg>