<svg xmlns="http://www.w3.org/2000/svg" viewBox="0 0 55 37.5" height="37.5" width="55"><g fill="#2a3282"><path d="M15.297 1.248H1.7A1.69 1.69 0 0 0 0 2.95v33.297h17.003V2.95c0-.902-.802-1.704-1.706-1.704zM13.998 33.25h-11v-2.002h11v2.002zm0-4h-11v-2.001h11v2.001zm0-21h-11V6.248h11V8.25zM34.301 1.15H20.7c-.9 0-1.7.699-1.7 1.699v33.3h17.003V2.85c0-.898-.802-1.7-1.7-1.7zm-1.303 32.002H22.003V31.15h10.995v2.002zm0-4.005H22.003v-1.996h10.995v1.996zm0-20.995H22.003V6.15h10.995v2.002zM53.301 1.248H39.703a1.69 1.69 0 0 0-1.705 1.703v33.297H55V2.95c0-.902-.801-1.703-1.699-1.703zM52.002 33.25h-11v-2.002h11v2.002zm0-4h-11v-2.001h11v2.001zm0-21h-11V6.248h11V8.25z"/></g></svg>