<svg xmlns="http://www.w3.org/2000/svg" viewBox="0 0 56.25 57.5" height="57.5" width="56.25"><g fill="#0078d7"><path d="M33.998.55l-7.7 5.497-6.997 1.403L26.3 6.047l.703 3.604 11.7-2.402c1.698-.4 3.398.8 3.798 2.5l8.998 44.2c.2.8 0 1.801-.4 2.3H13.702l-7.9-39c-.401-1.7.8-3.398 2.5-3.799l11.797-2.403-.698-3.494L14.3.55H0v55.699h55.699V.549h-21.7z"/><path d="M24.301 9.252c0 .55-.448 1-1 1s-1.001-.45-1.001-1c0-.552.448-1.002 1.001-1.002.552 0 1 .45 1 1.002zM25.4.55H20l2.7 3.1 2.7-3.1zM40.2 13.949l-30.698 6.2 5.995 29.702 5.704-1.201-2.802-13.7 5.8-1.201 5.2 4.798 2.9-6.396 5.801-1.2 2.701 13.598L46.1 43.45 40.2 13.95zm-12.203 17.2c-2.997.603-5.995-1.298-6.596-4.397-.6-3.003 1.396-6.002 4.4-6.602 2.998-.601 6 1.299 6.601 4.399.595 3.1-1.4 6-4.405 6.6zM16.801 15.55c.099.497.499.699.9.6l13.5-2.7c.4-.102.6-.497.6-.8v-.097c-.102-.402-.502-.602-.8-.602l-3.204.699.2 1-6.996 1.403-.2-1.002-3.203.697c-.595 0-.797.402-.797.802z"/></g></svg>