<svg xmlns="http://www.w3.org/2000/svg" viewBox="0 0 47.5 48.75" height="48.75" width="47.5"><path d="M38.623 24.063c0-2.5-3.75-2.5-3.75 0s3.75 2.5 3.75 0zm-13.31-12.188c0-2.5-3.75-2.5-3.75 0s3.75 2.5 3.75 0zm0 25.127c0-2.5-3.75-2.5-3.75 0s3.75 2.5 3.75 0zm-12.838-12.94c0-2.51-3.764-2.51-3.764 0s3.764 2.51 3.764 0zM23.438 47.5c1.122 0 2.251-.464 3.1-1.314l19.126-18.935c.835-.84 1.309-1.875 1.309-3.101 0-1.21-.474-2.236-1.31-3.085L26.539 1.939c-.849-.84-1.978-1.314-3.1-1.314-1.123 0-2.252.474-3.087 1.314L1.314 20.976C.474 21.811 0 22.94 0 24.062c0 1.123.474 2.252 1.314 3.1l19.037 19.024a4.358 4.358 0 0 0 3.087 1.314zm5.248-9.936l-1.4.561-.372.85.65 1.112v.2l-.85.836-1.314-.65-.84.377-.459 1.21v.191h-1.224l-.562-1.4-.84-.377-1.124.649-.19.088-.85-.923.664-1.313-.375-.85-1.226-.464h-.185v-1.226l1.411-.561.375-.746-.664-1.227v-.176l.85-.849 1.314.66.84-.372.473-1.225v-.191h1.21l.562 1.416.84.371 1.138-.658h.176l.85.848-.65 1.314.371.834 1.217.475h.184v1.216zm13.404-12.94l-1.504.561-.371.85.658 1.128.09.186-.835.84-1.417-.65-.834.371-.377 1.217-.098.184h-1.216l-.474-1.4-.84-.372-1.22.65h-.19l-.834-.84.648-1.314-.278-.85-1.308-.459h-.191v-1.224l1.499-.562.278-.84-.648-1.314.834-.85 1.41.664.84-.375L36.09 19l.097-.185h1.129l.562 1.411.834.375 1.225-.664h.089l.849.85-.66 1.314.372.84 1.314.473h.19v1.21zM28.686 12.435l-1.4.561-.372.85.65 1.217v.097l-.85.84-1.314-.65-.84.361-.459 1.314v.098h-1.224l-.562-1.412-.84-.36-1.124.65-.19.087-.85-.84.664-1.401-.375-.85-1.226-.37-.185-.09v-1.224l1.411-.464.375-.85-.664-1.225v-.186l.85-.84 1.314.664.84-.288.473-1.314v-.184h1.21l.562 1.41.84.376 1.314-.664.85.84-.65 1.411.371.85 1.217.375.184.089v1.122zM15.84 24.624l-1.504.561-.274.85.65 1.314-.835.84-1.416-.65-.835.371-.376 1.217-.098.184H9.936l-.474-1.4-.84-.372-1.22.65h-.19l-.835-.84.65-1.314-.28-.85-1.307-.459h-.191v-1.224l1.499-.562.278-.84-.649-1.314.835-.85 1.41.664.84-.375L9.84 19l.097-.185h1.216l.474 1.411.835.375 1.225-.664h.191l.835.85-.65 1.314.274.84 1.314.473h.19v1.21z" fill="#0078d7" fill-rule="evenodd"/></svg>