<svg xmlns="http://www.w3.org/2000/svg" viewBox="0 0 27.5 46.25" height="46.25" width="27.5"><g fill="#0078d7"><path d="M24.6.4H2.002C0 .498 0 .898 0 3.3v38.799C0 44.5 0 44.902 2.002 45h22.7c1.997-.098 1.997-.499 1.997-2.901v-38.8C26.6 1 26.6.499 24.6.4zM10.2 1.899h6.298c.103 0 .2.103.2.2a.212.212 0 0 1-.2.2H10.2a.212.212 0 0 1-.2-.2s0-.2.2-.2zm.097 40.801H8.8c-.298 0-.498-.097-.498-.4 0-.299.2-.401.498-.401h1.498c.303 0 .504.102.504.4 0 .304-.2.401-.504.401zm4.103.298h-2.1c-.298 0-.601-.098-.601-.498 0-.299.303-.499.6-.499h2.1c.304 0 .601.098.601.499 0 .303-.297.498-.6.498zm3.397-.298H16.3c-.298 0-.498-.097-.498-.298 0-.303.2-.303.498-.303h1.498c.303 0 .504.102.504.303 0 .2-.2.298-.504.298zm6.906-4.503c0 2.003-.2 2.5-2.105 2.5h-18.6c-1.898 0-2.098-.497-2.098-2.5V6c0-2.099.2-2.099 2.299-2.099h18.203c2.1 0 2.398 0 2.398 2.099l-.097 32.197z"/><path d="M23.399 7.3c0-2.1-.299-2.1-2.3-2.1H5.498c-2.1 0-2.3 0-2.3 2.1v29.599c0 2.1.2 2.402 2.3 2.402h15.6c2.1 0 2.3-.4 2.3-2.402v-29.6zM12.7 29.1L6.3 25.4v-7.402l6.401 3.7v7.403zM6.9 16.9l6.401-3.702 6.402 3.702-6.402 3.798L6.9 16.9zm13.397 8.5l-6.396 3.702V21.7l6.396-3.701V25.4z"/></g></svg>