<svg xmlns="http://www.w3.org/2000/svg" viewBox="0 0 41.25 42.5" height="42.5" width="41.25"><g fill="#3276bc"><path d="M16.601 38.449H2.9V24.85h2.7a7.58 7.58 0 0 1-.502-2.7v-.201H0V41.25h19.4v-11.4H16.6v8.598zM35.699 24.85h2.5V38.45H24.502V29.85H21.7v11.401h19.4V21.95H35c.497.801.699 1.7.699 2.7v.201zM2.9 16.748V3.15H16.6v7.901c.899-.6 1.798-1.098 2.799-1.401V.348H.098V19.65h5.6c.4-1.099 1-1.998 1.802-2.799l-4.6-.102zM24.503 9.449v-6.3h13.696v13.6h-5.9c.201.903.401 1.802.401 2.7v.102H41.1V.25h-19.4v8.901h.703c.698 0 1.397.097 2.1.298z"/><path d="M33.599 24.65c0-1.7-1.396-3.101-2.999-3.101h-.4c.2-.699.297-1.397.297-2.198 0-4.5-3.597-8.202-8.095-8.202-3.603 0-6.6 2.3-7.7 5.6a5.685 5.685 0 0 0-1.802-.298c-3.1 0-5.498 2.5-5.498 5.6 0 3.101 2.5 5.601 5.498 5.601h17.999c1.503-.102 2.7-1.4 2.7-3.002"/></g></svg>