<svg xmlns="http://www.w3.org/2000/svg" viewBox="0 0 43.75 48.75" height="48.75" width="43.75"><g fill="#0078d7" fill-rule="evenodd"><path d="M34.882 22.473H8.442c-1.123 0-2.163.937-2.163 2.34V34.85l3.662 1.025v-9.751h23.34v9.664l3.663-1.04v-9.937c0-1.402-1.035-2.34-2.062-2.34z"/><path d="M19.78 25.852h3.657v-9.751H19.78v9.751z"/><path d="M27.564.725H15.752a2.273 2.273 0 0 0-2.25 2.251v10.961a2.274 2.274 0 0 0 2.25 2.252h11.71a2.275 2.275 0 0 0 2.25-2.252V2.977c.103-1.227-.937-2.252-2.148-2.252zM13.965 32.039H2.25A2.274 2.274 0 0 0 0 34.29v10.961a2.273 2.273 0 0 0 2.251 2.251h11.714c1.22 0 2.246-1.024 2.246-2.25V34.29c0-1.226-1.026-2.251-2.246-2.251zM41.055 32.039H29.346a2.274 2.274 0 0 0-2.25 2.251v10.961a2.273 2.273 0 0 0 2.25 2.251h11.71a2.274 2.274 0 0 0 2.25-2.25V34.29c.103-1.226-.937-2.251-2.25-2.251z"/></g></svg>