<svg xmlns="http://www.w3.org/2000/svg" viewBox="0 0 43.75 40" height="40" width="43.75"><g fill="#0078d7"><path d="M39.395 18.771v-.902l3.203-1.798c-.2-1.104-.4-2.1-.8-3.1l-3.702.098c-.299-.602-.6-1.099-.899-1.598l1.9-3.203c-.698-.8-1.402-1.596-2.202-2.197l-1.9 1.099-.801 1.201-1.699 2.5c2.403 1.899 3.902 4.8 3.902 7.998A10.074 10.074 0 0 1 26.299 28.97c-5.6 0-10.103-4.5-10.103-10.102 0-5 3.599-9.2 8.4-10l.799-3.1-1.796-3.2c-1.104.201-2.1.5-3.102.802l.1 3.696c-.602.303-1.1.6-1.599.904l-3.202-1.9c-.8.699-1.602 1.396-2.197 2.198l1.898 3.1c-.4.499-.6 1.098-.902 1.7L10.9 12.97c-.401 1-.602 1.996-.801 3.1l3.198 1.798v1.8l-3.198 1.802c.2 1.099.498 2.1.8 3.096l3.697-.097c.302.6.6 1.099.902 1.699L13.6 29.368c.698.8 1.396 1.6 2.197 2.304L19 29.768c.499.4 1.099.703 1.597.903l-.098 3.697c1 .4 1.997.6 3.1.8l1.797-3.198c.304 0 .601.097.904.097.297 0 .596 0 .898-.097L29 35.167c1.099-.2 2.1-.497 3.096-.8l-.097-3.696a23.64 23.64 0 0 0 1.6-.903l3.2 1.904c.8-.703 1.6-1.402 2.2-2.304l-1.903-3.199c.303-.498.702-1.1.903-1.699l3.696.097c.401-.996.6-1.997.801-3.096l-3.198-1.801c.098-.302.098-.601.098-.899zM7.002 34.152A2.222 2.222 0 0 1 4.8 31.95a2.222 2.222 0 0 1 2.202-2.202c1.197 0 2.197 1 2.197 2.202 0 1.201-1 2.202-2.197 2.202zM11.3 26.35l-1.797.898L8.4 26.75l-.699-1.9H6.1l-.601 1.9-1.098.498-1.802-.898-1.1 1.099.904 1.801-.502 1.099-1.9.702v1.598l1.9.6.502 1.099L1.5 36.15l1.099 1.098L4.4 36.35l1.098.498.703 1.904h1.596l.602-1.904 1.103-.498 1.797.898 1.103-1.098-.903-1.802.503-1.1 1.9-.697V30.95l-1.9-.6-.503-1.099.903-1.801L11.3 26.35z"/><path d="M28.34.334l-.601 1.9-2.002 6.4-3.1 9.698c-.098.2 0 .303.2.303h2.803c.097 0 .2 0 .2.097.098.103.098.2.098.303l-2.9 7.1c-.098.2 0 .2.102.097l9.199-10.4c.097-.2.097-.298-.103-.298h-3.598c-.2 0-.298-.103-.2-.298l2.9-5.102 3.101-5.6 1.001-1.7c-2.1-1.401-4.502-2.203-7.1-2.5z"/></g></svg>