<svg xmlns="http://www.w3.org/2000/svg" viewBox="0 0 45 46.25" height="46.25" width="45"><path d="M19.449 18.665l-6.436-6.45a1.369 1.369 0 0 0-1.948 0 1.369 1.369 0 0 0 0 1.948l6.45 6.436a5.053 5.053 0 0 0 0 4.941l-6.45 6.45a1.36 1.36 0 0 0 0 1.934c.536.54 1.41.54 1.948 0l6.436-6.45a5.06 5.06 0 0 0 4.941 0l6.45 6.45a1.364 1.364 0 0 0 1.934 0 1.363 1.363 0 0 0 0-1.934l-6.45-6.45a5.06 5.06 0 0 0 0-4.941l6.45-6.436a1.371 1.371 0 0 0 0-1.948 1.362 1.362 0 0 0-1.934 0l-6.45 6.45a5.055 5.055 0 0 0-4.941 0zm21.015 4.409c.146-10.318-8.199-18.76-18.54-18.76S3.243 12.756 3.389 23.074c-.146 10.317 8.194 18.76 18.535 18.76s18.686-8.443 18.54-18.76zM3.975 44.998h35.897a3.972 3.972 0 0 0 3.976-3.976V5.125a3.973 3.973 0 0 0-3.976-3.975H3.975A3.972 3.972 0 0 0 0 5.125v35.897a3.972 3.972 0 0 0 3.975 3.976zm37.29-21.924c.083 10.722-8.604 19.457-19.346 19.457-10.743 0-19.429-8.735-19.345-19.457C2.49 12.356 11.176 3.62 21.919 3.62c10.742 0 19.429 8.735 19.346 19.453zm-11.089 4.413a9.355 9.355 0 0 0 0-8.822l-2.589 2.583a5.973 5.973 0 0 1 0 3.652l2.59 2.587zm-12.66 3.84a9.355 9.355 0 0 0 8.821 0l-2.587-2.59a5.973 5.973 0 0 1-3.652 0l-2.583 2.59zm-3.84-12.662a9.355 9.355 0 0 0 0 8.822l2.59-2.587a5.901 5.901 0 0 1 0-3.653l-2.59-2.582zm3.496-4.175a9.89 9.89 0 0 1 9.503-.015l2.974-2.964a2.713 2.713 0 1 1 3.837 3.838l-2.935 2.94a9.773 9.773 0 0 1 0 9.56l2.935 2.94a2.708 2.708 0 0 1 0 3.847 2.713 2.713 0 0 1-3.837 0l-2.974-2.973a9.89 9.89 0 0 1-9.503-.016l-2.973 2.99a2.718 2.718 0 0 1-3.837-3.848l2.963-2.964a9.757 9.757 0 0 1 0-9.513l-2.964-2.963A2.713 2.713 0 1 1 14.2 11.51l2.973 2.98zm2.926 2.925a5.901 5.901 0 0 1 3.652 0l2.587-2.589a9.355 9.355 0 0 0-8.822 0l2.583 2.589z" fill="#0070c0" fill-rule="evenodd"/></svg>