<svg xmlns="http://www.w3.org/2000/svg" viewBox="0 0 43.75 43.75" height="43.75" width="43.75"><g fill="#0078d7"><path d="M25.284 20.814c0-2.1-1.7-3.799-3.8-3.799a3.8 3.8 0 1 0 0 7.603c2.1 0 3.8-1.704 3.8-3.804z"/><path d="M36.699 14.115c.2-.801.303-1.7.303-2.602 0-5.699-4.502-10.3-10-10.3-4.205 0-7.7 2.598-9.302 6.3-1.299-1.597-3.3-2.598-5.4-2.598-3.901 0-7.1 3.301-7.1 7.3 0 .699.097 1.401.298 1.997C2.3 15.414 0 18.216 0 21.912a8.387 8.387 0 0 0 8.399 8.404h12.099v-3.604c-1.5-.2-2.9-.996-3.8-2.197l-3.196 1.9 1.298 2.201-5.097-1 1.698-5.103 1.3 2.3 3.198-1.797c-.299-.703-.5-1.503-.5-2.3 0-.801.201-1.504.402-2.202L12.5 16.615l-1.299 2.3-1.699-5.104 5.098-.795-1.201 2.1 3.3 1.9c.899-1.202 2.3-2.101 3.901-2.301v-3.701h-2.299L21.5 7.112l3.403 3.902h-2.5v3.7c1.596.201 2.998 1.1 3.897 2.301l3.301-1.9-1.299-2.201 5.098 1.001-2.198 5-.704-2.3-3.294 1.899c.297.698.395 1.401.395 2.202 0 .797-.196 1.499-.395 2.198l3.294 1.899 1.403-2.5 1.499 5.302-5.2 1.196 1.401-2.396-3.301-1.9c-.9 1.201-2.398 2.1-4 2.3v3.599h12.002c4.6 0 8.4-3.702 8.4-8.399-.103-3.799-2.603-6.801-6.002-7.9z"/><path d="M22.28 35.799v-5.4h-1.802V35.9c-1.396.402-2.5 1.7-2.5 3.2a3.372 3.372 0 0 0 3.403 3.398c1.798 0 3.399-1.5 3.399-3.399 0-1.601-1.001-2.9-2.5-3.301z"/></g></svg>