<svg xmlns="http://www.w3.org/2000/svg" viewBox="0 0 63.75 37.5" height="37.5" width="63.75"><path d="M57.9 18.901c.098-.502.098-.903.098-1.303C57.998 10.898 52.9 5.4 46.6 5.4c-1.601 0-3.3.401-4.8 1.099C39.703 2.5 35.801 0 31.601 0c-6.304 0-11.4 5.2-11.801 11.801-.499-.102-1.001-.102-1.499-.102-3.004 0-5.801 1.5-7.5 4.102C4.902 15.4 0 20.4 0 26.601 0 32.598 4.6 37.5 10.2 37.5h44.302l1.397-.297c4.199-1.104 7.098-5.103 7.098-9.605 0-3.697-1.996-6.998-5.097-8.697zM42.002 31.9L35.6 33.7 23.998 29.4 35.6 31.099V15.6l-7.603 1.802V27.9l-3.896 1.5V16.4l11.5-4.3 6.401 1.897V31.9z" fill="#de3c00" fill-rule="evenodd"/></svg>