<svg xmlns="http://www.w3.org/2000/svg" viewBox="0 0 43.75 36.25" height="36.25" width="43.75"><g fill="#0078d7"><path d="M15.899 23.799c1.104 2 2.802 3.3 4.598 3.5v-4.496c-1.596.097-3.197.497-4.598.996zM28.399 9.599c-.801-.698-1.598-1.3-2.5-1.796.702.594 1.201 1.396 1.801 2.3.2-.2.4-.303.699-.504zM15.899 10.697c1.4.602 2.9.904 4.599 1.002V7.2c-1.797.201-3.398 1.5-4.6 3.496zM15.498 11.498c-.698 1.5-1.098 3.203-1.197 5.103h6.196v-3.998c-1.796 0-3.597-.402-5-1.105zM14.301 17.803c.099 1.898.499 3.695 1.196 5.194A16.17 16.17 0 0 1 20.6 21.9v-4.096h-6.299zM13.998 25c.802.697 1.602 1.299 2.5 1.801-.697-.6-1.298-1.401-1.795-2.3-.2.098-.504.299-.704.499zM16.498 7.803c-.898.394-1.795.996-2.5 1.796.2.2.505.401.802.503.497-.903 1.001-1.704 1.698-2.3zM14.301 11c-.4-.2-.702-.4-1-.697a10.359 10.359 0 0 0-2.602 6.396h2.298c.103-2.1.504-4.097 1.304-5.699zM12.998 17.803h-2.3c.103 2.3 1 4.6 2.603 6.396.298-.2.697-.498 1-.699-.8-1.601-1.2-3.598-1.304-5.697zM26.9 22.998c.698-1.5 1.098-3.297 1.2-5.195h-6.299v4.096c1.798 0 3.599.4 5.099 1.099zM28.1 23.5c.401.201.699.401 1.001.699a10.354 10.354 0 0 0 2.598-6.396h-2.3c-.098 2.1-.6 4.096-1.299 5.697zM28.1 11c.801 1.7 1.201 3.599 1.3 5.699h2.299c-.098-2.3-1-4.498-2.598-6.396-.302.194-.702.497-1 .697zM26.401 10.697c-1.104-1.996-2.802-3.295-4.6-3.496V11.7c1.7-.098 3.297-.4 4.6-1.002z"/><path d="M40.899.4h-39C.9.4 0 1.4 0 2.602v30.2C0 34 .801 35 1.9 35H40.8c1 0 1.9-1.001 1.9-2.197V2.5C42.796 1.299 41.9.4 40.898.4zm-11.1 25.497c-2.397 2.403-5.498 3.604-8.598 3.604-3.1 0-6.201-1.201-8.603-3.604-2.398-2.397-3.6-5.497-3.6-8.597 0-3.101 1.202-6.201 3.6-8.599C15 6.3 18.1 5.102 21.2 5.102c3.1 0 6.201 1.197 8.599 3.6 2.403 2.298 3.599 5.4 3.599 8.5-.098 3.1-1.196 6.298-3.6 8.695z"/><path d="M27.997 16.699c-.097-1.9-.497-3.599-1.196-5.098-1.504.699-3.3 1.001-5.102 1.1v3.998h6.298zM26.401 23.799c-1.401-.602-3.002-.9-4.6-.996V27.3c1.798-.201 3.496-1.5 4.6-3.501zM25.801 26.699c.898-.4 1.797-1.002 2.5-1.797-.303-.2-.504-.4-.801-.503a6.57 6.57 0 0 1-1.699 2.3z"/></g></svg>