<svg xmlns="http://www.w3.org/2000/svg" viewBox="0 0 45 38.75" height="38.75" width="45"><g fill="#0078d7"><path d="M25.497 15.8c-.097-1.7-.4-3.302-1.097-4.702-1.403.6-2.999.903-4.6 1V15.8h5.697zM23.998 10.301c-1-1.801-2.5-3.002-4.198-3.202V11.2c1.601 0 2.997-.298 4.198-.899zM25.801 9.301c-.703-.703-1.5-1.2-2.3-1.602.6.6 1.1 1.298 1.597 2.1.302-.2.502-.298.703-.498zM23.998 22.401c-1.2-.502-2.7-.8-4.198-.903V25.6c1.698-.2 3.197-1.401 4.198-3.199zM19.8 20.503c1.698.097 3.3.4 4.6.995.6-1.3 1-2.9 1.098-4.6H19.8v3.605zM26.498 9.998l-.898.602c.699 1.499 1.099 3.3 1.201 5.2h2.1c-.102-2.1-.904-4.2-2.403-5.802zM23.502 24.998c.8-.4 1.596-.898 2.3-1.596-.202-.2-.505-.302-.704-.502-.395.8-.997 1.499-1.596 2.098zM25.497 22.099l.904.6C27.9 21 28.6 18.997 28.8 16.899h-2.1c-.098 1.898-.498 3.701-1.202 5.2zM12.002 22.699l.898-.6c-.697-1.499-1.099-3.302-1.201-5.2H9.6c.2 2.099 1 4.101 2.402 5.8zM12.998 10.6c-.298-.2-.698-.401-.898-.602-1.5 1.7-2.3 3.702-2.397 5.904H11.8c0-2.002.499-3.803 1.197-5.302zM14.4 10.301c1.2.499 2.7.797 4.199.9V7.098c-1.596.2-3.101 1.401-4.2 3.202zM15 7.699c-.801.401-1.601.899-2.3 1.602.2.2.499.298.699.498.4-.802 1-1.5 1.601-2.1z"/><path d="M41.801 5.199H41.5c0-1.3-.899-2.3-1.997-2.3h-.6c0-.698-.303-1.299-.802-1.602h-.103c-.097-.097-.097-.097-.2-.097 0 0-.097 0-.097-.102-.102 0-.102 0-.2-.098H1.699C.8 1 0 1.899 0 3.003V30.6c0 1.099.801 2.001 1.699 2.001h.2v.299c0 1.299.898 2.299 2.002 2.299H4.2c0 1.299.899 2.3 2.002 2.3h35.6c1.099 0 1.998-1.001 1.998-2.3v-27.7c0-1.299-.9-2.3-1.998-2.3zM11.401 8.5c2.198-2.203 5-3.301 7.9-3.301 2.8 0 5.699 1.098 7.902 3.301 2.098 2.1 3.294 5 3.294 7.797 0 2.902-1.097 5.802-3.294 7.902-2.3 2.2-5.103 3.202-8.004 3.202-2.798 0-5.698-1.104-7.9-3.3-2.198-2.202-3.301-5-3.301-7.9C8.1 13.5 9.198 10.6 11.4 8.5zM4.502 34.501h-.6c-.802 0-1.402-.704-1.402-1.7V32.5h34.703c.897 0 1.698-.899 1.698-1.997V3.5h.601c.795 0 1.397.699 1.397 1.699V32.8c0 .9-.602 1.7-1.397 1.7h-35zm38.697.6c0 .899-.601 1.7-1.398 1.7H6.3c-.801 0-1.397-.703-1.397-1.7H39.6c1.099 0 2.001-1 2.001-2.3V5.8h.299c.8 0 1.401.8 1.401 1.699V35.1H43.2z"/><path d="M12.998 16.899c.102 1.699.4 3.3 1.103 4.598 1.396-.595 3-.897 4.698-.994v-3.604h-5.802zM14.4 22.299c1 1.801 2.5 3.002 4.199 3.203V21.4c-1.499.097-2.9.401-4.2.899zM18.701 12.099C17.003 12 15.4 11.699 14 11.098c-.6 1.4-1.002 3.002-1.1 4.702h5.7v-3.701h.102zM12.7 23.402C13.4 24.1 14.2 24.6 15 24.998c-.6-.6-1.099-1.298-1.601-2.098-.299.103-.5.303-.699.502z"/></g></svg>