<svg xmlns="http://www.w3.org/2000/svg" viewBox="0 0 43.75 37.5" height="37.5" width="43.75"><g fill="#0078d7"><path d="M29.683 14.622a2.1 2.1 0 1 1-4.2.001 2.1 2.1 0 0 1 4.2 0zM16.86 19.589c-1.099 0-2.099.897-2.099 2.099 0 1.098.903 2.1 2.099 2.1 1.104 0 2.1-.904 2.1-2.1-.098-1.202-.996-2.1-2.1-2.1z"/><path d="M34.301 15.35l-1.899.6-.502 1.001.698 1.5.102.2-1.001 1L30 18.95l-1.001.4-.497 1.601-.103.201h-1.5l-.6-1.802-1.002-.4-1.498.702-.2.099-1.001-1.002.8-1.7-.4-1-1.3-.498v-1.601l1.5-.601.304-.996-.802-1.504-.102-.2 1-.997 1.7.796 1-.394.503-1.504.099-.099h1.499l.6 1.7 1.001.297 1.499-.796.2-.102 1.001 1-.8 1.701.4 1 1.699.498.302.103v1.5zM10.4 20.95l1.803-.6.395-1.001-.698-1.499-.099-.2.996-1.001 1.706.801.995-.401.504-1.402.097-.097h1.499l.6 1.601 1 .402 1.5-.802.2-.102 1.002 1-.801 1.7.4 1.001 1.4.498.099.102v1.5l-1.597.497-.4 1.002.8 1.498.099.2-1.001 1.002-1.7-.699-1 .401-.499 1.596-.102.2h-1.5l-.698-1.796-1-.4-1.5.698-.2.102L11.7 25.75l.801-1.699-.4-1.001-1.602-.497-.2-.103v-1.5h.102zm27.1-7.5l-.801-.303.2-.795c.201-.8.304-1.602.304-2.402 0-5.299-4.303-9.6-9.605-9.6C23.7.35 20.2 2.65 18.7 6.248l-.6 1.305-.898-1.104c-1.304-1.499-3.102-2.3-5-2.3-3.604 0-6.603 2.9-6.603 6.601 0 .601.099 1.201.201 1.803l.2.795-.8.303C2.001 14.852 0 17.451 0 20.647c0 4.205 3.501 7.5 7.9 7.5h2.002c-.102 0-.102.704-.102 1.104 0 3.896 3.197 6.998 7.001 6.998 2.8 0 5.402-1.7 6.5-4.298l.4-1 .699.8c.897 1.1 2.299 1.7 3.598 1.7 2.602 0 4.8-2.202 4.8-4.8v-.504H35c4.4 0 7.9-3.295 7.9-7.5.098-3.397-2.001-6.098-5.4-7.197z"/></g></svg>