<svg xmlns="http://www.w3.org/2000/svg" viewBox="0 0 43.75 28.75" height="28.75" width="43.75"><g fill="#0078d7"><path d="M21.299 11.498c-1.299 0-2.398 1.105-2.398 2.403 0 1.3 1.099 2.398 2.398 2.398 1.299 0 2.402-1.099 2.402-2.398 0-1.298-1-2.402-2.402-2.402z"/><path d="M21.299 3.998C12.899 3.998 5.297 2.603 0 .4v27.1c5.297-2.3 12.9-3.599 21.299-3.599 8.404 0 16 1.402 21.299 3.599V.4c-5.298 2.202-12.895 3.599-21.3 3.599zM28.9 14.8l-2.1.8L26.3 16.7l.904 1.698.097.202-1.201 1.2-1.998-1-1.201.502-.6 1.998-.097.2h-1.706l-.794-2.1L18.5 18.9l-1.7.899-.2.102-1.304-1.2 1.002-2.003-.498-1.202-1.803-.595-.297-.102v-1.7l2.1-.8.498-1.099-.9-1.7-.102-.302 1.201-1.201 2.003 1 1.202-.498.594-1.899.103-.302h1.7l.8 2.098 1.201.504 1.7-.903.2-.098.698.699c.2.302.303.502.504.8l-.904 1.802.502 1.201 1.798.596.302.102v1.7z"/></g></svg>