<svg xmlns="http://www.w3.org/2000/svg" viewBox="0 0 90 90" height="90" width="90"><path d="M70.986 61.814c-.922 0-1.675.337-2.251 1.035-.571.704-.825 1.626-.825 2.779 0 1.162.289 2.07.825 2.773.576.698 1.28 1.035 2.154 1.035.912 0 1.611-.337 2.197-.986.528-.698.815-1.611.815-2.774 0-1.2-.287-2.187-.815-2.89-.488-.635-1.186-.972-2.1-.972zm14.967-17.636l-.08.21c-.023.072-.072.15-.097.2v.023c-.053.064-.102.113-.136.192 0 0 0 .023-.03.023a.88.88 0 0 1-.17.187l-.03.023c-.049.08-.122.128-.185.2l-.025.025-.225.167-.024.023c-.063.049-.136.123-.239.177l-.025.023c-.102.05-.16.113-.263.161l-.024.025c-.099.05-.186.127-.289.177 0 0-.024 0-.024.024-.127.038-.21.112-.337.16-.728.367-1.611.68-2.636.963-.015 0-.04 0-.04.029-.121.049-.273.074-.41.098-.054.025-.103.025-.151.048-.113.025-.24.079-.362.103-.077.025-.112.025-.19.035l-.36.077c-.075.025-.152.025-.241.05-.121.024-.249.048-.346.073-.088.023-.166.023-.264.054-.112.023-.215.048-.337.072-.103.015-.19.015-.288.039-.128.025-.215.05-.337.05-.103.024-.19.024-.313.048-.126.024-.214.024-.336.05-.103.023-.225.023-.338.053-.126.024-.223.024-.341.049-.123.023-.235.023-.338.049-.12.013-.223.013-.336.038-.122.025-.248.025-.361.05-.128 0-.225.024-.338.024-.126 0-.263.024-.384.024-.128 0-.23.025-.343.025-.121 0-.259.023-.41.023-.126 0-.215.03-.336.03-.152 0-.289.025-.415.025-.099 0-.21 0-.313.024-.147 0-.288.024-.46.024h-.312c-.165 0-.342 0-.503.025h-2.846c-.151 0-.312 0-.464-.025-.112 0-.215 0-.312-.024-.138 0-.289-.024-.415-.024-.113 0-.21-.024-.338-.024-.113 0-.263-.03-.386-.03-.111 0-.214-.024-.336-.024-.113 0-.24-.025-.392-.025-.11 0-.21-.024-.336-.024-.112 0-.235-.025-.361-.049-.113-.025-.24-.025-.338-.05-.112-.013-.215-.013-.336-.039-.112-.023-.24-.023-.337-.048-.088-.024-.215-.024-.313-.054-.112-.024-.239-.024-.336-.049-.102-.024-.191-.024-.289-.048-.126-.024-.239-.05-.366-.05-.097-.024-.185-.024-.259-.048l-.366-.064c-.097-.023-.17-.023-.234-.054l-.36-.072c-.08-.025-.152-.025-.23-.049l-.362-.074c-.074-.028-.113-.028-.185-.038-.128-.025-.264-.08-.391-.103-.05 0-.098-.025-.147-.025a1.827 1.827 0 0 1-.4-.122c-.025 0-.049 0-.049-.024-1.352-.391-2.49-.84-3.34-1.353a2.557 2.557 0 0 0-.289-.186h-.023a5.984 5.984 0 0 0-.264-.2l-.025-.023c-.072-.064-.15-.113-.21-.192l-.023-.024c-.08-.073-.152-.127-.2-.2l-.03-.01a1.51 1.51 0 0 1-.162-.2v-.03a1 1 0 0 0-.15-.185v-.025c-.05-.072-.074-.15-.123-.223l-.063-.216a1.186 1.186 0 0 1-.074-.41c0-2.54 6.924-4.677 15.49-4.677 8.573 0 15.497 2.099 15.497 4.678-.127.2-.152.312-.185.464zm-.23 27.348h-7.047V59.661h2.661v9.663h4.386v2.202zM74.047 73.21l-1.572-1.621c-.39.099-.961.17-1.611.17-1.665 0-3.067-.585-4.15-1.659-1.04-1.114-1.627-2.539-1.627-4.35 0-1.861.538-3.35 1.627-4.513 1.114-1.16 2.485-1.737 4.272-1.737 1.665 0 3.061.576 4.101 1.665 1.035 1.083 1.563 2.534 1.563 4.399 0 1.851-.528 3.35-1.611 4.512l-.24.239 3.013 2.895h-3.765zM63.6 69.788a3.01 3.01 0 0 1-1.035 1.098c-.415.288-.928.464-1.499.592a9.384 9.384 0 0 1-1.793.16c-.625 0-1.275-.05-1.86-.16-.601 0-1.098-.202-1.513-.415V68.4c.449.41.991.698 1.562.923.59.166 1.161.287 1.665.287a3 3 0 0 0 .874-.12c.239-.055.464-.113.625-.241.176-.127.288-.239.337-.415.05-.161.127-.282.127-.449 0-.248-.054-.458-.176-.635-.112-.166-.288-.336-.527-.527-.235-.175-.537-.288-.826-.464-.288-.113-.625-.283-1.035-.459-.913-.4-1.611-.864-2.075-1.377-.464-.575-.698-1.2-.698-2.027 0-.625.121-1.147.337-1.562a3.22 3.22 0 0 1 .986-1.108c.41-.288.922-.537 1.499-.625a8.198 8.198 0 0 1 1.787-.176c.625 0 1.163.05 1.612.123.463.053.927.165 1.337.336v2.49a2.901 2.901 0 0 0-.634-.336 4.477 4.477 0 0 0-.703-.249c-.234-.04-.523-.112-.748-.167-.239-.048-.449-.048-.703-.048-.283 0-.57 0-.81.048-.24.055-.465.127-.625.24-.176.127-.298.248-.41.337-.127.175-.127.287-.127.464 0 .161.049.336.175.522.112.175.235.303.45.464.175.126.41.288.697.415.304.122.592.284.93.41.448.161.912.41 1.273.625.41.239.699.464.986.752.29.283.464.572.625.987.128.336.249.746.249 1.273 0 .625-.121 1.212-.336 1.676zm6.923-32.661c-10.737 0-19.472 3.16-19.472 7.05v37.5c0 3.833 8.589 6.997 19.189 7.047v.028h.283C81.29 88.752 90 85.564 90 81.702V44.177c0-3.942-8.735-7.052-19.477-7.052zM39.247 60.66h8.614V52.04h-8.614v8.622zM27.1 48.978h8.623v-8.614H27.1v8.614zm0 11.683h8.623V52.04H27.1v8.622zm-5.425-23.358h8.613v-8.63h-8.613v8.63zm-6.836 11.675h8.623v-8.614H14.84v8.614zm0 11.683h8.623V52.04H14.84v8.622zM54.913 37.85c1.826-.8 3.998-1.402 6.362-1.835v-11.49h6.352v-5.259L33.935 1.237 0 19.265v5.259h6.924V60.95h5.801V24.524h42.188v13.325z" fill="#0078d7" fill-rule="evenodd"/></svg>