<svg xmlns="http://www.w3.org/2000/svg" viewBox="0 0 162.5 128.75" height="128.75" width="162.5"><path d="M95.449 13.799l-4.673-8.072C88.99 2.651 85.6.712 82.051.712H10.015C4.526.712 0 5.24 0 10.727V15.9h97.226c-.8-.484-1.289-1.299-1.777-2.1zm5.816 55.712l-28.589 40.865c-.312.323-.64.649-1.129.649-.16 0-.482 0-.648-.161-.635-.326-.963-.962-.635-1.617l7.421-24.383H61.05c-.489 0-.963-.328-1.289-.817-.16-.483-.16-.96.165-1.444L87.7 42.226c.323-.327.65-.648 1.137-.648.152 0 .313 0 .636.16.655.322.976.962.655 1.612l-7.115 23.902h17.123c.817 0 1.451.648 1.451 1.46 0 .326-.16.487-.322.8zm53.945-48.447H0v96.42c0 5.49 4.526 10.016 10.015 10.016H151.5c5.489 0 10.015-4.526 10.015-10.015V30.274c0-4.034-2.588-7.598-6.304-9.21z" fill="#0078d7" fill-rule="evenodd"/></svg>