<svg xmlns="http://www.w3.org/2000/svg" viewBox="0 0 50 51.25" height="51.25" width="50"><g fill="#0078d7"><path d="M50 25.1c0-5.6-1.9-11.001-5.4-15.4l-.2-.2c-.099-.099-.099-.201-.201-.299l-1.601-1.699C37.9 2.697 31.698.1 25 .1h-.2C18.199.197 12.1 2.697 7.402 7.4L5.7 9.2c-.099.098-.099.2-.201.299l-.2.103A25.49 25.49 0 0 0 0 25.1c0 5.6 1.9 11.001 5.4 15.4l.2.2c.099.099.099.201.201.299l1.601 1.698C12.1 47.4 18.2 50.002 24.8 50.002h.2c6.601 0 12.9-2.602 17.598-7.305l1.6-1.796c.103-.102.103-.2.202-.303l.2-.2C48.1 36.197 50 30.7 50 25.1zM39.902 8.801c-.102 0-.2.098-.302.098-.2.103-.401.2-.499.2-.4.2-.902.302-1.4.504-.103 0-.201.097-.299.097-.6.2-1.103.303-1.703.497-.099 0-.3.103-.402.103-.897-2.402-1.996-4.501-3.295-6.099 2.9.9 5.596 2.5 7.9 4.6zM24.8 3c2.798 0 5.6 2.901 7.602 7.901-2.304.4-4.804.6-7.402.6s-5.2-.2-7.598-.6C19.302 6 22.1 3.098 24.8 3zm-7.1 1.299c-1.201 1.602-2.3 3.598-3.197 6H14.3c-.6-.199-1.2-.296-1.703-.496-.098 0-.196-.103-.298-.103C11.9 9.5 11.4 9.3 11 9.1c-.2-.098-.302-.098-.503-.2-.098-.098-.2-.098-.4-.2 2.304-1.9 4.804-3.502 7.602-4.4zm-7.602 37.1c.102 0 .2-.098.302-.098.2-.102.299-.102.499-.2.4-.2.902-.302 1.4-.503.103 0 .201-.098.299-.098.6-.2 1.103-.303 1.703-.498h.202c.897 2.3 1.995 4.4 3.197 5.997-2.798-.997-5.4-2.598-7.602-4.6zM24.902 47.2c-2.802-.097-5.6-2.901-7.5-7.799 2.398-.4 5-.6 7.598-.6s5 .2 7.402.6c-1.905 4.898-4.804 7.8-7.5 7.8zm7.1-1.201c1.3-1.598 2.398-3.696 3.295-6.1.103 0 .303.103.402.103.6.195 1.2.298 1.703.498.098 0 .196.098.298.098.499.2.899.303 1.401.503.2.098.299.098.5.2.102 0 .199.098.399.2-2.402 1.998-5.098 3.6-7.998 4.498zm10.098-6.9c-.299 0-.499-.098-.801-.2-.298-.098-.699-.298-1.002-.4-.097 0-.2-.098-.297-.098-1.201-.503-2.5-.8-3.799-1.2.297-1.202.6-2.398.801-3.6h-3.004c-.2 1.1-.4 2.1-.697 2.998C30.7 36.1 27.9 35.9 25 35.9c-2.998 0-5.801.298-8.502.8-.297-1-.497-2-.697-3.1h-3.004c.2 1.299.504 2.5.802 3.702-1.197.297-2.398.697-3.501 1.098-.098.098-.298.098-.395.2-.303.098-.704.298-1.002.4-.2 0-.502.098-.703.2-2.998-3.603-4.697-8.1-5-12.7h2.5v-2.9h-2.5C3.3 19.001 5 14.603 7.9 11.101L7.998 11c.2.102.503.2.703.302.4.2.699.298 1.099.498.102 0 .2.102.298.102 1.103.402 2.304.796 3.603 1.099-.302 1.099-.502 2.197-.703 3.301h3.004c.2-.903.4-1.9.6-2.7 2.7.498 5.6.8 8.496.8 2.9 0 5.703-.302 8.3-.702.2.801.4 1.699.6 2.7h3.005c-.202-1.1-.402-2.198-.704-3.301 1.299-.298 2.5-.698 3.701-1.197.098 0 .297-.102.4-.102.401-.098.699-.297 1.099-.4.2-.098.503-.2.704-.298 2.895 3.6 4.697 7.998 5 12.598h-3.004v2.9h3.004C46.699 31.1 45 35.598 42.1 39.099z"/><path d="M18.701 24.9c0 1.201-.2 2.203-.502 2.998-.3.8-.797 1.503-1.3 2.105-.6.497-1.299.898-2.1 1.196-.8.2-1.801.4-2.998.4h-3.1c-.2 0-.4-.097-.6-.2-.201-.098-.103-.4-.103-.699V19.401c0-.302.102-.502.2-.6.103-.102.303-.2.6-.2H12.1c1.201 0 2.099.098 2.9.4.801.298 1.499.7 2.003 1.196A5.896 5.896 0 0 1 18.3 22.2c.2.8.4 1.699.4 2.7zm-2.7.103c0-.602-.102-1.202-.2-1.704-.102-.5-.401-.996-.703-1.398A2.724 2.724 0 0 0 13.9 21c-.502-.2-1.104-.299-2.001-.299h-1.3v8.8h1.402c.698 0 1.3-.099 1.797-.299.502-.2.904-.502 1.201-.8.297-.401.6-.8.699-1.401.2-.601.302-1.3.302-1.998zM31.498 30.598c0 .2 0 .303-.097.4-.102.103-.102.2-.2.303-.102.098-.2.098-.302.2-.098 0-.2.098-.402.098H29.4c-.201 0-.402 0-.601-.098-.2 0-.298-.102-.498-.302-.102-.098-.303-.298-.401-.499-.103-.2-.302-.503-.4-.8l-3.199-6.001c-.2-.4-.4-.699-.6-1.202-.2-.394-.4-.796-.502-1.195 0 .498 0 1 .102 1.396v8.3c0 .103 0 .103-.102.2 0 .104-.099.104-.202.104-.097 0-.2.097-.4.097h-1.196c-.2 0-.302 0-.4-.098-.102 0-.102-.102-.2-.102V19.603c0-.304.098-.504.298-.704.2-.2.4-.2.702-.2H23.2c.302 0 .502 0 .6.102.2 0 .302.098.502.2.099.098.3.2.402.4.097.202.2.402.395.7l2.5 4.702c.102.297.302.595.4.795.102.303.303.6.4.8.103.303.303.503.4.802.103.303.2.497.4.8v-8.998c0-.103 0-.103.103-.2 0-.103.099-.103.201-.103.098 0 .2-.098.4-.098H31.1c.2 0 .302 0 .4.098.102 0 .102.102.2.102v11.797h-.2zM42.002 27.697c0 .704-.102 1.305-.4 1.803-.303.502-.6.897-1.002 1.299-.4.302-.897.6-1.499.8-.6.2-1.201.302-1.898.302-.402 0-.904 0-1.202-.102-.302-.098-.704-.2-1.001-.298a5.042 5.042 0 0 1-.699-.302c-.2-.098-.302-.2-.4-.298-.102-.102-.102-.2-.2-.401 0-.2-.102-.4-.102-.697v-.504c0-.098 0-.298.102-.298 0-.102.098-.102.098-.2 0 0 .102-.102.2-.102.102 0 .2.102.4.2.201.102.4.2.699.4.302.102.6.303 1 .401.4.103.802.2 1.304.2.298 0 .595 0 .9-.097.297-.103.497-.2.6-.303.2-.099.297-.299.4-.498.098-.2.098-.4.098-.703 0-.299-.099-.5-.201-.796l-.6-.602c-.298-.2-.499-.302-.899-.502A4.703 4.703 0 0 1 36.7 25.9c-.298-.2-.698-.303-1-.503-.3-.2-.601-.395-.9-.698-.297-.299-.498-.601-.6-1.001-.2-.4-.2-.802-.2-1.396 0-.602.102-1.202.302-1.603.202-.503.499-.897.9-1.2.4-.299.8-.498 1.4-.699.5-.2 1.1-.2 1.7-.2.298 0 .6 0 .898.098.304 0 .6.102.899.2.302.102.502.2.703.302.2.098.298.2.4.2.098.099.098.099.098.202 0 0 0 .097.102.2V21.3c0 .098-.102.098-.102.2 0 0-.098.098-.2.098-.097 0-.2 0-.298-.097l-.6-.303c-.201-.098-.498-.2-.801-.298-.299-.102-.601-.102-1.001-.102-.299 0-.5 0-.699.102-.2.098-.4.2-.497.298-.103.102-.2.303-.303.4-.099.2-.099.401-.099.504 0 .297.099.497.202.697l.595.601c.302.2.6.298.904.498.297.103.697.302 1 .502.298.202.698.3.996.499.303.2.6.4.903.698.298.303.499.6.601 1-.102.103 0 .505 0 1.1z"/></g></svg>