<svg xmlns="http://www.w3.org/2000/svg" viewBox="0 0 15 17.5" height="17.5" width="15"><path d="M6.299 11.551h1.103V8.353H6.3v3.198z" fill="#0078d7"/><path d="M6.099.95C2.797.95 0 2.248 0 3.352V13.45c0 1.299 3.501 2.403 6.699 2.403 3.203 0 5.899-1.104 5.899-2.306V3.45c0-1.201-3.198-2.5-6.5-2.5zm.2 1.001c2.3 0 4.199.498 4.199 1.201 0 .698-1.9 1.1-4.2 1.1-2.3 0-4.198-.402-4.198-1.202C2.1 2.249 4 1.95 6.3 1.95z" fill="#0078d7"/><path d="M10.699 10.149c-.402 0-.601.201-.601.801v.899c0 .6-.098.902-.395 1.303-.2.2-.704.298-1.402.298v-.801c.2 0 .4-.098.498-.2a.74.74 0 0 0 .2-.498v-.904c0-.594.2-1.196.601-1.298-.299-.2-.499-.7-.499-1.396V7.35c0-.6-.302-.801-.702-.801v-.8H8.7c.4 0 .801.2 1.099.4.2.2.4.601.4 1.299v.904c0 .497.2.796.601.796l-.102 1zm-6.5 3.204c-.6 0-1.099-.103-1.402-.303-.2-.2-.395-.601-.395-1.201V10.75c0-.499-.2-.801-.6-.801v-.8c.4 0 .6-.299.6-.796v-.904c0-.6.098-.9.395-1.3.303-.199.704-.296 1.402-.296v.796c-.4 0-.6.2-.6.702v.899c0 .697-.2 1.299-.601 1.499.4.2.6.601.6 1.298v.904c0 .298.103.498.2.6.103.098.303.2.503.2l-.102.602z" fill="#fff"/><path d="M14.101 12.953c-.103-.904-.8-1.603-1.699-1.603-.2 0-.4.097-.502.097-.401-.497-.899-.697-1.5-.697-1.099 0-2.001.8-2.099 1.801a1.965 1.965 0 0 0-1.2 1.798c0 1.104.799 1.899 1.8 1.899h4.6C14.4 16.15 15 15.35 15 14.548c0-.6-.297-1.195-.899-1.595z" fill="#fff"/><path d="M13.502 13.152c-.103-.703-.705-1.303-1.402-1.303-.098 0-.299 0-.499.102-.302-.401-.8-.6-1.304-.6-.897 0-1.596.698-1.698 1.5-.601.199-1.001.799-1.001 1.498 0 .902.703 1.601 1.503 1.601h3.896a1.512 1.512 0 0 0 1.304-1.499c0-.504-.303-1-.8-1.299z" fill="#0078d7"/><path d="M12.9 13.748h-.2c.097-.098.097-.298.097-.498 0-.499-.297-.801-.697-.801-.299 0-.499.2-.699.504-.102-.602-.502-1.002-1.104-1.002-.594 0-1.098.498-1.098 1.201 0 .098 0 .2.102.298h-.2c-.502 0-.902.4-.902.899 0 .502.4.902.8.902h3.798c.402 0 .705-.4.705-.8.2-.401-.2-.703-.602-.703z" fill="#fff"/></svg>