<svg xmlns="http://www.w3.org/2000/svg" viewBox="0 0 13.75 16.25" height="16.25" width="13.75"><path d="M12.203 2.402L10.2.4H0V15h12.797V2.998l-.594-.596z" fill="#0078d7"/><path d="M10.2 1H.6v13.399h11.603V2.998H10.2V1z" fill="#fff"/><path d="M10.297 8.397c-.395 0-.594.202-.594.704v.801c0 .498-.103.795-.303.995-.201.202-.699.304-1.201.304v-.6c.2 0 .4-.103.4-.103C8.7 10.4 8.7 10.2 8.7 10v-.801c0-.6.2-1.002.6-1.099-.4-.102-.6-.497-.6-1.201v-.8c0-.402-.2-.7-.6-.7v-.698h.298c.4 0 .702.099.902.299.201.2.3.6.3 1.099v.8c0 .4.199.704.6.704l.096.794zM4.8 11.201c-.499 0-1.001-.102-1.201-.304-.2-.2-.298-.497-.298-.995V9c-.102-.4-.303-.7-.6-.7v-.696c.4 0 .498-.2.498-.704V6.2c0-.504.102-.801.4-1 .2-.401.6-.5 1.104-.5V5.4c-.402.098-.602.297-.602.801V6.9c0 .601-.2 1-.6 1.099.4.102.6.502.6 1.103V9.8c0 .2.098.4.098.503.102.195.2.195.401.195v.6h.2v.103z" fill="#0078d7"/></svg>