<svg xmlns="http://www.w3.org/2000/svg" viewBox="0 0 13.75 17.5" height="17.5" width="13.75"><path d="M7.149 12.301h1.103V9.1H7.15V12.3z" fill="#0078d7"/><path d="M6.949 1.701C3.652 1.701.85 3 .85 4.1V14.2C.85 15.5 4.35 16.6 7.55 16.6c3.203 0 5.904-1.099 5.904-2.3v-10.2C13.453 3 10.15 1.7 6.949 1.7zm.2 1.002c2.3 0 4.199.497 4.199 1.196 0 .702-1.9 1.201-4.2 1.201-2.3 0-4.2-.499-4.2-1.3 0-.8 1.9-1.097 4.2-1.097z" fill="#0078d7"/><path d="M11.547 10.9c-.395 0-.594.2-.594.801v.9c0 .6-.103.897-.402 1.298-.302.2-.8.302-1.401.302V13.4a.77.77 0 0 0 .499-.2.74.74 0 0 0 .2-.497v-.904c0-.602.2-1.196.6-1.299-.4-.2-.6-.601-.6-1.401V8c0-.499-.2-.699-.601-.699V6.4h.303c.4 0 .8.2 1.099.4.2.2.4.6.4 1.304V9c0 .498.2.8.6.8l-.103 1.099zM5.05 14.099c-.6 0-1.099-.098-1.397-.3-.2-.199-.4-.599-.4-1.298V11.4c0-.5-.2-.796-.6-.796v-.704c.4 0 .6-.298.6-.8v-.996c0-.602.098-.904.4-1.202.298-.2.698-.302 1.397-.302v.8c-.4 0-.6.201-.6.704V9c0 .6-.201 1.202-.601 1.401.4.2.6.596.6 1.397v.904c0 .297.103.497.2.594.103.103.303.2.503.2l-.102.602z" fill="#fff"/></svg>