<svg xmlns="http://www.w3.org/2000/svg" viewBox="0 0 15 17.5" height="17.5" width="15"><path d="M13.199 2.651l-1.3-1.303-.6-.498H1.6v13.701H13.8V3.253l-.6-.602z" fill="#0078d7"/><path d="M11.299 1.348H2.203v12.7h10.996V3.254h-1.9V1.348z" fill="#f6f6f6"/><path d="M11.499 4.351L10.2 3.053l-.6-.504H0V16.25h12.1V4.951l-.601-.6z" fill="#0078d7"/><path d="M9.6 3.053H.498v12.7h11V5.048H9.6V3.053z" fill="#fff"/><path d="M9.703 10.049c-.504 0-.704.304-.704.703v.9c0 .497-.098.897-.298 1.098-.2.2-.703.303-1.299.303v-.704c.298 0 .395-.098.498-.098.098-.102.098-.302.098-.502v-.899c0-.699.303-1.099.703-1.201-.4-.098-.703-.498-.703-1.202V7.55c0-.498-.298-.698-.698-.698V6.05h.298c.4 0 .703.097.903.298.298.303.298.703.298 1.2v.9c0 .502.302.703.703.703l.2.898zm-5.2 3.004c-.504 0-1.104-.103-1.304-.303-.3-.299-.3-.499-.3-1.099v-.899c0-.502-.199-.8-.6-.8v-.703c.401 0 .498-.299.498-.802v-.796c0-.502.103-.902.402-1.102.302-.299.702-.402 1.303-.402v.802c-.4-.098-.703.2-.703.702v.796c0 .704-.298 1.104-.699 1.202.401.102.699.502.699 1.201v.801c0 .298.102.498.102.498.098.302.298.302.499.302v.699h.102v-.097z" fill="#0078d7"/></svg>