<svg xmlns="http://www.w3.org/2000/svg" viewBox="0 0 40 42.5" height="42.5" width="40"><g fill="#006fd4"><path d="M24.503 18.851c0 .4-.304.698-.704.698h-5.297a.684.684 0 0 1-.705-.698v-3.9c0-.402.303-.7.705-.7h5.297c.4 0 .704.298.704.7v3.9zM33.998 22.953a.682.682 0 0 1-.697.697h-5.303a.682.682 0 0 1-.698-.697V19.05c0-.401.298-.703.698-.703H33.3c.4 0 .698.302.698.703v3.902zM24.503 26.951c0 .4-.304.699-.704.699h-5.297a.685.685 0 0 1-.705-.699V23.05c0-.4.303-.699.705-.699h5.297c.4 0 .704.299.704.699v3.901zM15 14.748a.684.684 0 0 1-.699.705h-5.4a.688.688 0 0 1-.702-.705v-4.1c0-.395.302-.698.702-.698H14.2c.504 0 .801.303.801.698v4.1z"/><path d="M38.701.55H.7A.68.68 0 0 0 0 1.248v8.1c0 .4.297.705.699.705h4.1c.401 0 .699-.305.699-.704V5.95h28.5V9.35c0 .4.303.704.802.704H38.7c.4 0 .699-.305.699-.704v-8.2c0-.399-.299-.6-.699-.6zM38.701 31.849H34.8c-.4 0-.699.302-.699.704v3.295H5.498V32.45c0-.401-.298-.699-.795-.699H.8c-.401 0-.703.298-.703.802v7.997c0 .4.302.699.703.699H38.8c.4 0 .703-.299.703-.7v-7.996c-.102-.402-.4-.704-.8-.704zM14.902 22.85c0 .4-.302.697-.703.697H8.9a.684.684 0 0 1-.702-.697V18.95c0-.402.302-.699.702-.699H14.2c.401 0 .703.297.703.699v3.901zM14.902 30.95c0 .401-.302.699-.703.699H8.9a.684.684 0 0 1-.702-.699V27.05c0-.4.302-.698.702-.698H14.2c.401 0 .703.298.703.698v3.901z"/></g></svg>