<svg xmlns="http://www.w3.org/2000/svg" viewBox="0 0 51.25 52.5" height="52.5" width="51.25"><path d="M25.098 51.25c-1.197 0-2.398-.498-3.297-1.401l-20.4-20.4C.498 28.549 0 27.45 0 26.148c0-1.197.498-2.398 1.401-3.297l20.4-20.4c.9-.904 1.998-1.401 3.297-1.401 1.2 0 2.402.497 3.3 1.401l20.4 20.4c.905.899 1.402 1.998 1.402 3.297 0 1.303-.497 2.402-1.401 3.3l-20.4 20.4c-.899.904-2.1 1.402-3.301 1.402" fill="#0078d7"/><path d="M45.699 25.953L39.1 19.35v4.696h-7a7.389 7.389 0 0 0-5-5v-6.795h4.598L25.098 5.65 18.5 12.252h4.6v6.698a7.37 7.37 0 0 0-5 5h-7.002v-4.599l-6.597 6.602 6.597 6.596V27.85H18.1a7.387 7.387 0 0 0 5 5v4.6c-1 .699-2.5 2.3-2.5 4 0 2.5 1.998 4.502 4.498 4.502S29.6 43.95 29.6 41.45c0-1.801-1.5-3.3-2.5-3.999V32.75a7.366 7.366 0 0 0 5-5h7.001v4.6l6.598-6.396z" fill="#fff"/><path d="M25.098 20.65c-2.895 0-5.298 2.403-5.298 5.303 0 2.895 2.403 5.297 5.298 5.297 2.9 0 5.302-2.402 5.302-5.297 0-2.9-2.402-5.303-5.302-5.303z" fill="#0078d7"/></svg>