<svg xmlns="http://www.w3.org/2000/svg" viewBox="0 0 52.5 36.25" height="36.25" width="52.5"><path d="M51.9 31.501l-4.697-29.6C47.1.701 46.099.5 45.8.5h-39.2c-.302 0-1.4.098-1.4 1.401L0 31.501v.8c0 2.198 1.801 2.701 2.203 2.701H49.8c.4 0 2.203-.503 2.203-2.7-.103-.303-.103-.6-.103-.8zM35.498 23.9h-5.795a.789.789 0 0 1-.802-.801c0-.498.4-.797.802-.797h2.7l-6.504-6.504v13.004l2-2.002c.3-.298.9-.298 1.202 0 .299.302.299.904 0 1.201l-4.003 3.999-4.096-4.097c-.2-.2-.2-.4-.2-.6 0-.2.097-.4.2-.6.297-.303.898-.303 1.2 0l2.1 2.1V15.796l-6.505 6.504H20.7c.502 0 .8.402.8.797 0 .502-.4.8-.8.8h-5.797v-5.8c0-.498.395-.797.797-.797.502 0 .8.402.8.797v2.9l7.7-7.7v-4c-1-.4-1.797-1.298-1.797-2.5C22.402 5.3 23.6 4.202 25 4.202A2.581 2.581 0 0 1 27.598 6.8c0 1.201-.797 2.1-1.797 2.5v3.998l7.9 7.902v-3.101c0-.498.4-.797.802-.797.497 0 .794.402.794.797v5.8h.2z" fill="#0078d7"/></svg>