<svg xmlns="http://www.w3.org/2000/svg" viewBox="0 0 31.25 32.5" height="32.5" width="31.25"><path d="M18.848 25.098c.005-1.26-1.89-1.26-1.886 0-.004 1.264 1.89 1.264 1.886 0zm-3.335-1.484a1.924 1.924 0 0 0 1.923-1.924c0-.304-.072-.591-.2-.84h4.488l3.926 6.811H4.36l3.941-6.81h5.488a1.86 1.86 0 0 0-.2.839c0 1.059.86 1.924 1.924 1.924zm14.062 4.335L20.04 11.435V4.751h.176a2.063 2.063 0 0 0 0-4.127l-10.4.001a2.056 2.056 0 0 0-2.066 2.06c0 1.139.914 2.066 2.066 2.066h.16v6.684L.45 27.949c-1.05 1.812-.2 3.301 1.9 3.301h25.327c2.085 0 2.949-1.489 1.9-3.301z" fill="#0078d7" fill-rule="evenodd"/></svg>