<svg xmlns="http://www.w3.org/2000/svg" viewBox="0 0 32.5 28.75" height="28.75" width="32.5"><path d="M.469 25.791c0 .68.56 1.24 1.235 1.24H30.17c.674 0 1.235-.56 1.235-1.24V4.571H.47v21.22z" fill="#0078d7" fill-rule="evenodd"/><path d="M.469 25.792c0 .679.56 1.24 1.235 1.24H30.17c.674 0 1.235-.561 1.235-1.24V4.571H.47v21.221z" fill="none" stroke="#fff" stroke-width=".9375" stroke-miterlimit="3"/><path d="M30.171.67H1.704C1.03.67.469 1.158.469 1.759v3.27h30.937V1.76c0-.601-.56-1.09-1.235-1.09z" fill="#0078d7" fill-rule="evenodd"/><path d="M30.171.67H1.704C1.03.67.469 1.157.469 1.757V5.03h30.937V1.76c0-.6-.56-1.09-1.235-1.09z" fill="none" stroke="#fff" stroke-width=".9375" stroke-miterlimit="3"/><path d="M7.895 24.18h23.511V8.091H7.895v16.09z" fill="#0078d7" fill-rule="evenodd"/><path d="M7.895 24.18h23.511V8.09H7.895v16.09z" fill="none" stroke="#fff" stroke-width=".9375" stroke-miterlimit="3"/><path d="M.469 24.18h7.426V8.091H.469v16.09z" fill="#0078d7" fill-rule="evenodd"/><path d="M.469 24.18h7.426V8.09H.469v16.09z" fill="none" stroke="#fff" stroke-width=".9375" stroke-miterlimit="3"/></svg>