<svg xmlns="http://www.w3.org/2000/svg" viewBox="0 0 36.25 41.25" height="41.25" width="36.25"><g fill="#0078d7"><path d="M35.4 10.003L17.7.1 0 10.3v7.999c.098 0 0 0 0 0 2.7 0 3.799.102 4.6-2.1 1.899-5.298 6.601-9.8 12.9-9.8 6.401 0 11.002 4.502 12.9 9.8.801 2.3 1.9 2.1 4.8 2.1v-8.296h.2zM35.4 23.098h-1.898c-1.7.102-2.403.503-2.902 1.705C28.701 30.1 23.998 34 17.7 34c-6.401 0-11.001-3.999-12.997-9.198C4.199 23.499 3.5 23.2 1.8 23.098H.098s.302 0 0 0V30.1L17.9 40.002l17.5-10.2v-6.704z"/><path d="M15.297 26.301V14.803l8.701 5.697-8.7 5.801zM24.101 13.9c-3.603-3.6-9.301-3.6-12.9 0-3.603 3.604-3.603 9.301 0 12.9a9.235 9.235 0 0 0 12.9 0c3.6-3.5 3.6-9.296 0-12.9z"/></g></svg>