<svg xmlns="http://www.w3.org/2000/svg" viewBox="0 0 27.5 45" height="45" width="27.5"><g fill="#0078d7"><path d="M4.902 36.201h5v-5h-5v5zM11.201 36.099h5v-8.697h-5V36.1zM17.402 36.201h5v-12.5h-5v12.5zM18.901 2.203V1.099H25c.497 0 .899.502 1.002 1.001l-7.1.103zm-17.602 0c0-.504.4-1.002.904-1.002H5.8V2.3L1.3 2.203zM2.203 43.7c-.504 0-1.002-.703-1.002-1.401v-2.202h8.502c-.704.4-1.002 1.2-1.002 2.002 0 .6.2 1.601.498 1.601H2.203zm14.496 0c.2 0 .504-.904.504-1.6 0-1.002-.2-1.603-.704-2.003L26.2 40v2.402c0 .596-.6 1.397-1.103 1.397h-8.4V43.7z"/><path d="M11.201 42.5c-.904-.098-1.103.098-1.103-.6 0-.601.502-.899 1.103-1.001h3.897c.6.102.903.4.903 1 0 .601-.102.601-.504.601h-4.296zM2.3 38.701v-35h22.602v35H2.3zM9.4 2.402c-.499 0-1.001 0-1.001-.6s.4-.6 1-.6h7.202c.5 0 .997 0 .997.6s-.498.6-.997.6H9.4zM25 0H2.203C1 0 0 1.099 0 2.402v40C0 43.8 1.001 45 2.203 45h22.7c1.196 0 2.397-1.201 2.397-2.598v-40C27.402 1.1 26.299 0 25 0z"/><path d="M19.703 6.201H7.7c-1.499 0-3.999 1.201-3.999 2.7V18.4c0 1.503 2.5 2.7 4 2.7h2.201v3.7l3.697-3.7H19.6c1.499 0 3.999-1.197 3.999-2.7V8.9c0-1.499-2.398-2.7-3.896-2.7z"/></g></svg>