<svg xmlns="http://www.w3.org/2000/svg" viewBox="0 0 28.75 57.5" height="57.5" width="28.75"><path d="M28.227 51.021l-4.003-24.096c-.2-1.201-1.3-1.803-2.5-1.603L6.225 27.72l-2.7-15.899c-.2-1.298.801-2.396 2.1-2.597l8.998-1.402c1.402-.2 2.603.5 2.803 1.9l1.9 11.402c.098.697.802 1.099 1.402.996.698-.097 1.098-.699.996-1.396L18.725 2.72c-.2-1.299-1.401-2.099-2.797-1.899l-13.804 2.3c-1.299.2-2.3 1.304-2.1 2.603L3.726 27.72c0 .2.099.303.099.504-.596.497-.996 1.2-.797 1.996l4 24.101c.2 1.201 1.4 2.1 2.597 1.9l16.802-2.597c1.3-.2 2.002-1.504 1.801-2.603zm-19.6-46.4l1.9-.3c.4-.097.9.201.9.601.097.4-.202.802-.7.9l-1.903.301c-.396.098-.9-.2-.9-.6-.096-.503.304-.8.703-.903zm3 32.304c-.303-1.705.898-3.403 2.7-3.604 1.8-.298 3.5.903 3.798 2.603.2 1.299-.098 2.397-1.401 3.1l.6 3.798-2.998.5-.699-3.897c-.8-.401-1.8-1.304-2-2.5zm8.7 15.995l-5.102.801c-.401.103-.899-.2-.899-.6-.102-.4.2-.801.699-.898l5.103-.802c.4-.097.897.2.897.601.103.498-.297.8-.697.898z" fill="#0078d7"/></svg>