<svg xmlns="http://www.w3.org/2000/svg" viewBox="0 0 27.5 37.5" height="37.5" width="27.5"><path d="M24.101 23.55c0 1.5-1.503 2.198-3.002 2.3H15.8v-1.899H21.1c.302 0 .4-.704.4-.704l-.899.303H18.6c-1.798 0-2.9-.898-2.999-2.001v-3.302l-1-.595v5.995h-2.7V19.25l-1.5 3.202c-.4.9-1 1.197-1.899 1.197-1.001 0-1.601-.4-2.002-1.197L5 19.151v4.399H2.598v-6.801c0-.802.2-1.299.903-1.597.4-.102.8-.2 1.1-.2.897 0 1.6.498 2 1.298l1.9 4.303 1.997-4.303c.4-.8 1.103-1.299 2.002-1.299.297 0 .699.099 1.099.201.702.2 1.104.795 1.104 1.597v1.001h3.896v3.599c0 .102.102.102.4.102H21.6V17.75h2.7l-.2 5.8zM13.2 2.55c5.2 0 9.399 1.299 9.399 2.9s-4.2 2.9-9.4 2.9-9.4-1.299-9.4-2.9 4.2-2.9 9.4-2.9zm0-1.9C5.899.65 0 3.15 0 5.85v24.6c0 2.7 5.899 5.8 13.199 5.8 7.299 0 13.1-3.002 13.1-5.697V5.947C26.4 3.247 20.498.65 13.199.65z" fill="#0078d7"/></svg>