<svg xmlns="http://www.w3.org/2000/svg" viewBox="0 0 42.5 43.75" height="43.75" width="42.5"><path d="M4.199 25.7h2.803v-2.798H4.2V25.7zm0-8.399h2.803v-2.5C6.002 15.3 5 15.9 4.2 16.6v.702zm4.2 16.798H11.2V31.3H8.4V34.1zm0 8.403H11.2V39.7H8.4v2.803zm0-12.602H11.2V27.1H8.4V29.9zm0 8.397H11.2V35.5H8.4v2.797zm-4.2-4.198h2.803V31.3H4.2V34.1zm0 4.198h2.803V35.5H4.2v2.797zM0 29.9h2.797V27.1H0V29.9zm0 4.199h2.797V31.3H0V34.1zM0 25.7h2.797v-2.798H0V25.7zm.297-4.198h2.5v-2.803H2.1C1.401 19.6.801 20.598.297 21.502zm3.902 18.9C5 41.1 6 41.702 7.002 42.2v-2.5H4.2v.703zm0-18.9h2.803v-2.803H4.2V21.5zM25.2 38.297h.699c.702-.795 1.304-1.796 1.801-2.797h-2.5v2.797zM21.002 34.1h2.797V31.3H21V34.1zm0 8.1c1-.6 1.996-1.099 2.797-1.797V39.7H21v2.5zm0-3.902h2.797V35.5H21v2.797zM8.399 25.7H11.2v-2.798H8.4V25.7zM27.299.5c-8.1 0-14.701 6.601-14.701 14.703V29.9H27.3c8.1 0 14.703-6.603 14.703-14.697C42.003 7.1 35.4.5 27.3.5zm-4.897 21.002H19.6v-8.404h2.802v8.404zm5.595 0H25.2V15.9h2.797v5.602zm5.602 0H30.8V10.3H33.6v11.202zM25.2 34.099h2.797V31.3H25.2V34.1zM8.4 17.3H11.2V14.5H8.4V17.3zM16.8 38.297h2.8V35.5h-2.8v2.797zm-4.203 0H15.4V35.5h-2.802v2.797zm0-4.198H15.4V31.3h-2.802V34.1zm4.203 8.403h2.8V39.7h-2.8v2.803z" fill="#0078d7"/></svg>