<svg xmlns="http://www.w3.org/2000/svg" viewBox="0 0 50 42.5" height="42.5" width="50"><g fill="#0078d7"><path d="M24.902 18.648c-.102 0-.102 0-.2-.103L10 10.049c-.098-.103-.2-.2-.2-.401 0-.2.102-.303.2-.4L24.6.844c.103-.098.302-.098.4 0l14.703 8.501c.097.102.2.2.2.401 0 .2-.103.303-.2.4l-14.605 8.399c0 .102-.098.102-.196.102M22.797 39.345c-.097 0-.2 0-.2-.097L7.9 30.746c-.103-.102-.2-.2-.2-.4V13.344c0-.2.097-.298.2-.4.098-.098.299-.098.401 0l14.696 8.5c.103.103.202.201.202.401v17.003c0 .2-.099.297-.202.4 0 .097-.097.097-.2.097M27.003 39.345c-.103 0-.202 0-.202-.097-.102-.103-.2-.2-.2-.4V22.045c0-.2.098-.298.2-.4L41.5 13.143c.102-.097.302-.097.4 0 .104.103.201.2.201.402v16.899c0 .2-.098.302-.2.4l-14.697 8.501h-.2"/><path d="M27.003 39.345c-.103 0-.202 0-.202-.097-.102-.103-.2-.2-.2-.4V22.045c0-.2.098-.298.2-.4L41.5 13.143c.102-.097.302-.097.4 0 .104.103.201.2.201.402v16.899c0 .2-.098.302-.2.4l-14.697 8.501h-.2M9.502 41.245c-.2 0-.503-.098-.703-.2l-6.797-4C.802 36.348 0 34.946 0 33.647v-25.2c0-1.3.801-2.804 2.002-3.398L8.8 1.045c.703-.402 1.6-.201 2.002.502.4.7.2 1.596-.504 1.998L3.501 7.549c-.2.097-.503.594-.503.898v25.2c0 .298.303.8.503.898l6.796 4c.704.4.904 1.304.504 2.001-.401.401-.801.7-1.299.7z"/><path d="M40.297.844c.2 0 .504.103.705.2l6.795 4.005C49 5.746 49.8 7.147 49.8 8.447v25.2c0 1.3-.801 2.798-2.003 3.398l-6.795 4c-.705.4-1.602.2-2.004-.499-.4-.697-.2-1.601.505-2.001l6.796-4c.2-.098.502-.6.502-.898v-25.2c0-.303-.303-.8-.502-.898l-6.797-4.004c-.703-.401-.903-1.299-.504-1.998.303-.4.802-.703 1.3-.703z"/></g></svg>