<svg xmlns="http://www.w3.org/2000/svg" viewBox="0 0 45 43.75" height="43.75" width="45"><g fill="#0078d7"><path d="M14.14 38.501c-.4-.201-.698-.4-.897-.601l-.402-.4c-.102-.098-.102-.297-.102-.601 0-.298.102-.6.401-.8.302-.2.6-.3 1-.3.601 0 1.099.1 1.5.402v-.904c-.299-.194-.801-.297-1.401-.297-.699 0-1.197.2-1.7.498-.4.4-.6.8-.6 1.4 0 .402.102.802.4 1.1.2.302.703.6 1.201 1 .6.4 1.001.602 1.201.904.2.2.298.498.298.795 0 .704-.498 1.104-1.396 1.104-.303 0-.6-.102-.904-.2a2.233 2.233 0 0 1-.8-.502V42.1c.102.103.4.2.702.302.299.098.602.098.899.098.699 0 1.299-.2 1.801-.499.402-.302.601-.8.601-1.4 0-.4-.102-.801-.4-1.1a5.56 5.56 0 0 0-1.402-1zM19.239 35.2H17.24v7.202h1.9c.8 0 1.402-.2 2.002-.503.596-.298 1.098-.698 1.396-1.299.302-.6.504-1.201.504-1.899.097-2.402-1.202-3.5-3.804-3.5zm2.201 5.6c-.498.499-1.299.801-2.201.801H18.14V35.9h1.099c2.001 0 2.9.902 2.9 2.802.102.9-.2 1.596-.699 2.099zM40.039 4.902c-.298-.302-.6-.302-.8-.102-.099.102-.196.2-.099.4 0 .2.099.297.201.4l.698-.698zM12.641 19.199l4.098 3.998 1.303-1.298-1.7-1.699-.8-.698 4.2-4.102.497.097h.401c.302 0 .503 0 .8-.097l-2.5-2.403-.2-.2c.899-3.094.102-6.596-2.398-8.998C13.842 1.4 10.24.6 7.041 1.4l5.4 5.2-1.401 5.2-5.297 1.396L.34 7.9c-.902 3.101 0 6.499 2.5 8.999 2.701 2.602 6.5 3.398 9.8 2.3zM29.639 13.1c-.098-.103-.2-.103-.298-.2.098.097.098.2.2.297l.698 1.304.801-.702-1.401-.699zM29.239 22.9c-.099.4-.099.801-.099 1.201l.099.5-.397.399-2.802 2.603-1.001.996-2.5-2.398L21.24 27.5l7.9 7.7h-.897l-2.7 3.1-.202.201v-3.398h-.8V42.3h.8V38.7c.099.098.099.2.201.298l2.798 3.3h1.201l-3.3-3.7 2.998-3.399 5.702 5.6c.899.899 1.998 1.3 3.2 1.3 1.2 0 2.299-.401 3.201-1.3a4.237 4.237 0 0 0 0-6.2L29.24 22.9z"/><path d="M22.241 23.998l2.5 2.403 2.798-2.7c-.2-1.299.302-2.7 1.303-3.701.997-1.002 2.5-1.498 3.8-1.299l12.3-11.9-6.9-6.6L25.84 12c.102 1.299-.297 2.702-1.299 3.696a5.067 5.067 0 0 1-3.798 1.305l-2.803 2.7 2.5 2.398L8.243 33.8l-.402-.4L5.542 35.2 1.64 41.201l1.001 1.002 6.201-3.804 1.9-2.3-.4-.402 11.9-11.699zm16.5-19.697c.302-.302.698-.502 1-.4.298 0 .699.2.9.498l.301.304-1.401 1.396c.298.302.698.302 1.002-.097.2-.202.4-.504.497-.802l.502.497c-.102.305-.302.602-.6.904-.4.298-.703.5-1.103.5s-.699-.202-1.099-.5c-.4-.4-.497-.801-.497-1.201.097-.498.2-.8.497-1.099zM36.84 6.3l.4.4c-.2-.4-.102-.697.098-1.002.102-.097.102-.097.2-.097l.601.601c-.097 0-.2.098-.299.2a.739.739 0 0 0-.2.498c0 .201.098.4.299.503l1 .997-.697.6-2.1-2.198.698-.502zm-2.7 2.602l1.2 1.202c.3.297.601.297.802.097.097-.097.2-.2.2-.4s-.103-.298-.2-.401L34.94 8.197l.7-.594L37.738 9.8l-.698.6-.302-.297c.102.395 0 .796-.299.996-.498.502-1 .4-1.601-.2L33.54 9.502l.6-.6zm-1 .899l.301.303.298 2.3 1.001-1.002.498.498-1.9 1.9-.296-.2-.304-2.398-1 .9-.397-.5L33.14 9.8zm-3.902 2.099l4.004 2.002-.704.7-.899-.5-1.097 1.002.4.899-.704.697-1.797-4.096.797-.704z"/></g></svg>