<svg xmlns="http://www.w3.org/2000/svg" viewBox="0 0 45 32.5" height="32.5" width="45"><g fill="#0078d7" fill-rule="evenodd"><path d="M37.797 14.549c.303-.9.402-1.798.402-2.7 0-5.899-4.697-10.7-10.402-10.7-4.295 0-7.997 2.701-9.598 6.602-1.3-1.698-3.297-2.602-5.601-2.602-4 0-7.3 3.404-7.3 7.602 0 .7.102 1.396.302 2.1-3.3 1.202-5.6 4.096-5.6 7.9 0 4.898 3.901 8.497 8.701 8.497H35.4c4.8 0 8.598-3.6 8.598-8.497-.097-4.004-2.597-7.001-6.2-8.202zm-5.794 3.701c-.802 3.1-3.502 5.303-6.706 5.303-.497 0-1.098-.103-1.698-.2-.499-.2-1.099-.402-1.7-.602l-4.799 4.8c-.401.4-.899.601-1.401.601-.499 0-1.099-.2-1.398-.6-.4-.4-.6-.905-.6-1.402 0-.498.2-1.099.6-1.401l4.8-4.8c-.8-1.499-1.103-3.302-.6-4.898.8-3.1 3.501-5.303 6.7-5.303.498 0 1.098.103 1.699.2 1.801.4 3.3 1.602 4.199 3.204a5.844 5.844 0 0 1 .903 5.098z"/><path d="M26.401 12.449c-.4-.098-.702-.098-1.104-.098-1.898 0-3.696 1.299-4.096 3.301-.302 1.098-.102 2.5.6 3.398.3.401.699.801 1.099 1.099.401.302.899.503 1.401.601.402.103.699.103 1.099.103 1.9 0 3.701-1.304 4.102-3.302.298-1.104.098-2.3-.504-3.301-.6-.8-1.596-1.498-2.597-1.801z"/></g></svg>