<svg xmlns="http://www.w3.org/2000/svg" viewBox="0 0 37.5 51.25" height="51.25" width="37.5"><path d="M31.201 6.101c-11-1.201-12.9-6-12.9-6S15.801 6.3 0 6.3v25.6c0 3.102 1.699 5.997 4.101 8.496 5.401 5.704 14.2 9.605 14.2 9.605s18.3-8.002 18.3-18.1v-25.6c-2 0-3.804-.103-5.4-.2z" fill="#0078d7"/><path d="M25.6 24.602h-1.098v-3.604c0-1.7-.6-3.3-1.705-4.4l-.097-.097c-1.099-1.201-2.7-1.899-4.399-1.899-1.7 0-3.301.795-4.4 1.9a6.742 6.742 0 0 0-1.8 4.6V24.7H11c-.4 0-.8.4-.8.8v9.4c0 .4.4.8.8.8h14.496c.402 0 .802-.4.802-.8v-9.4c.102-.6-.298-.897-.699-.897zm-3.999 0h-6.503v-3.604c0-.996.4-1.9 1-2.597.6-.601 1.402-1.001 2.3-1.001.903 0 1.7.4 2.3 1.001.103.2.304.298.4.498.4.601.6 1.298.6 2.1-.097 0-.097 3.604-.097 3.604z" fill="#fff"/></svg>