<svg xmlns="http://www.w3.org/2000/svg" viewBox="0 0 47.5 48.75" height="48.75" width="47.5"><path d="M23.438 25.689a5.1 5.1 0 0 0 3.637-1.514l9.639-9.639v-.512H10.15v.512l9.649 9.639a5.1 5.1 0 0 0 3.638 1.514zm4.55-.602a6.335 6.335 0 0 1-4.55 1.886 6.335 6.335 0 0 1-4.552-1.886l-8.735-8.725v17.74h26.563v-17.74l-8.725 8.725zM.777.625C.312.625 0 .938 0 1.401v9.375c0 .474.313.787.776.787h4.688c.473 0 .786-.313.786-.787V6.875h34.375v3.911c0 .464.313.777.938.777h4.526c.474 0 .786-.313.786-.777V1.411c0-.473-.313-.786-.776-.786H.776zM46.1 47.5c.464 0 .776-.313.776-.776V37.5c0-.464-.313-.776-.776-.776h-4.536c-.464 0-.777.312-.777.776v3.75H6.25v-3.901c0-.474-.313-.786-.938-.786H.777c-.464 0-.776.312-.776.937v9.224c0 .464.313.776.776.776H46.1z" fill="#0072c6" fill-rule="evenodd"/></svg>