<svg xmlns="http://www.w3.org/2000/svg" viewBox="0 0 47.5 41.25" height="41.25" width="47.5"><path d="M26.627 13.561c5.625 0 10.21 4.214 10.873 9.566a11.954 11.954 0 0 1 3.086 3.559c3.661-.938 6.191-4.126 6.191-7.974 0-3.085-1.68-5.527-4.59-6.937v-1.027c0-5.433-4.502-9.936-9.935-9.936-3.287 0-6.29 1.588-8.15 4.127-1.226-.753-2.54-1.129-4.038-1.129-3.942 0-7.124 3.004-7.5 6.754.561-.103 1.225-.103 1.875-.103 2.91 0 6.186.479 8.9 3.379l3.288-.279zm-3.566 4.311v.09-.09zm0 0C20.44 19.563 19.503 22 19.4 24.627h3.285l-4.96 5.898-5.064-5.898h3.364c.098-3.566 1.5-6.94 3.936-9.102a9.981 9.981 0 0 0-5.435-1.588c-5.527 0-10.024 4.4-10.024 9.84v1.034C1.69 26.212 0 28.65 0 31.75c0 4.688 3.75 8.252 8.623 8.252h21.28c4.872 0 8.622-3.652 8.622-8.252 0-2.998-1.499-5.351-4.311-6.747v-.568c0-4.12-3.374-7.5-7.5-7.5-1.314 0-2.524.376-3.653.938z" fill="#0072c6" fill-rule="evenodd"/></svg>