<svg xmlns="http://www.w3.org/2000/svg" viewBox="0 0 30 40" height="40" width="30"><path d="M14.6.45C6.5.45 0 3.15 0 6.15v26.503c0 2.7 5.297 5.596 12.3 6.1h4.702c6.996-.504 12.3-2.902 12.3-5.602V6.25c0-3.004-6.602-5.8-14.702-5.8zm0 2.003c5.8 0 10.4 1.396 10.4 3.094 0 1.704-4.703 3.102-10.4 3.102C8.8 8.649 4.2 7.25 4.2 5.547c0-1.698 4.6-3.094 10.401-3.094zm.302 28.295c-4.502 0-8.3-3.697-8.3-8.295v-.802H2.796l5.303-5.4 4.4 5.4H8.901v.802c0 3.197 2.598 5.897 5.899 5.897 1.099 0 2.1-.303 2.997-.8l1.504 1.899c-1.303.904-2.802 1.299-4.399 1.299zm6.1-2.1l-4.4-5.4h4.097c0-.2.102-.498.102-.698 0-3.199-2.602-5.899-5.899-5.899-1 0-2.002.298-2.802.7l-1.5-1.9c1.3-.802 2.701-1.202 4.302-1.202 4.498 0 8.297 3.701 8.297 8.3v.699h3.3L21 28.648z" fill="#0078d7"/></svg>