<svg xmlns="http://www.w3.org/2000/svg" viewBox="0 0 28.75 40" height="40" width="28.75"><path d="M13.901 2.95c5.499 0 9.898 1.401 9.898 3.1 0 1.7-4.498 3.101-9.898 3.101C8.501 9.151 4 7.75 4 6.05c0-1.802 4.502-3.1 9.902-3.1zM13.6.85C5.899.85 0 3.55 0 6.45v26.603c0 2.997 5.899 5.697 13.599 5.697s13.999-2.7 13.999-5.6V6.65c0-3.003-6.197-5.8-14-5.8zm0 13.199l2.3 6.401h6.898L17.3 24.85 19.3 31.45 13.6 27.35l-5.7 4.101 2.003-6.601L4.4 20.45h6.899l2.3-6.401z" fill="#0078d7" fill-rule="evenodd"/></svg>