<svg xmlns="http://www.w3.org/2000/svg" viewBox="0 0 30 40" height="40" width="30"><g fill="#0078d7"><path d="M15.699 19.351c-.099-.2-.3-.302-.402-.502-.2-.098-.395-.2-.594-.2-.303 0-.504.102-.704.2-.2.102-.298.302-.497.4l-.303.601c-.099.2-.099.498-.099.8 0 .401 0 .699.099.899.102.302.2.502.303.6.097.201.297.304.497.304.2.097.4.097.601.097.2 0 .4 0 .498-.097.2-.103.302-.2.502-.402l.299-.6c.103-.2.103-.502.103-.904 0-.297 0-.497-.103-.795l-.2-.4z"/><path d="M14.4.25C6.4.25 0 2.95 0 5.949V32.95c0 2.999 6.499 5.801 14.4 5.801 8.002 0 14.399-2.7 14.399-5.704V6.051C28.9 3.047 22.402.25 14.399.25zm-4.302 22.598c0 .2-.098.4-.196.6-.102.2-.2.4-.4.503-.2.2-.4.298-.6.4-.2.098-.503.2-.904.299-.298.102-.698.102-1.197.102H6.1c-.2 0-.4 0-.601-.102-.2 0-.4-.099-.498-.099-.2 0-.297-.102-.4-.2v-2.098c.103.097.302.2.498.297.2.102.302.2.502.298.201.102.401.102.601.2.2.102.4.102.6.102.201 0 .3 0 .402-.103.097 0 .2-.097.2-.097.097 0 .097-.102.097-.2v-.2c0-.097 0-.2-.098-.298-.102-.102-.102-.2-.2-.2-.102-.103-.2-.103-.4-.2-.2-.104-.303-.104-.503-.2-.298-.103-.6-.303-.9-.503-.199-.2-.399-.299-.6-.5-.199-.199-.297-.399-.297-.6-.102-.199-.102-.498-.102-.698 0-.4.102-.702.2-1 .2-.304.4-.601.6-.801.298-.2.601-.4 1.001-.499.4-.102.801-.2 1.299-.2h.699c.2 0 .4 0 .6.098.2 0 .302.102.502.102.201 0 .3.099.402.099v2.001c-.103-.102-.2-.102-.402-.2-.102-.102-.302-.102-.502-.2-.2-.102-.298-.102-.498-.102h-.6c-.299 0-.498 0-.6.102-.201.098-.201.2-.201.4 0 .097 0 .2.102.2 0 .098.098.098.2.2.098.099.2.099.298.201.098.098.297.098.498.2.303.098.6.298.903.396.298.2.499.302.7.502.199.201.301.401.497.601.102.2.2.498.2.9a.788.788 0 0 0-.2.497zM16 26.65l-1.7-1.8c-.502 0-1-.201-1.401-.3-.4-.2-.8-.502-1.099-.8a3.611 3.611 0 0 1-.8-1.201c-.2-.499-.302-1.001-.302-1.601 0-.601.102-1.196.302-1.7.2-.497.498-.899.8-1.299.3-.4.797-.6 1.197-.8a4.146 4.146 0 0 1 1.602-.299c.6 0 1.099.098 1.499.299.502.2.903.502 1.2.8.299.298.6.802.801 1.201.201.499.299 1.001.299 1.7 0 .4 0 .898-.2 1.2-.099.402-.3.699-.499.996-.2.303-.4.602-.698.802-.303.2-.504.4-.903.6L18.7 26.65h-2.7zm8.6-2.001h-5v-7.701H21.9v5.899h2.7v1.802zM14.4 8.649C8.7 8.649 4.1 7.253 4.1 5.547c0-1.698 4.6-3.094 10.299-3.094 5.698 0 10.303 1.396 10.303 3.094 0 1.706-4.605 3.102-10.303 3.102z"/></g></svg>