<svg xmlns="http://www.w3.org/2000/svg" viewBox="0 0 38.75 35" height="35" width="38.75"><g fill="#0078d7"><path d="M28.901.35h-19.3L0 17.05l9.6 16.7h19.301l9.6-16.7L28.901.35zM29 24.55c0 1.401-1.202 2.602-2.598 2.602H12.203c-1.402 0-2.603-1.2-2.603-2.602V9.65c0-1.401 1.201-2.602 2.603-2.602H25l3.998 4v13.5z"/><path d="M17.797 19.75c0-.201-.097-.299-.097-.401 0-.098-.102-.2-.2-.298-.098-.102-.098-.102-.2-.102h-.298c-.2 0-.303 0-.4.102-.104.098-.2.2-.303.4-.098.2-.098.402-.098.602v1.898c0 .299.098.5.2.602.097.2.2.297.298.297.102.097.2.097.401.097.103 0 .2 0 .302-.097.098 0 .196-.098.196-.2.102-.097.102-.2.2-.297 0-.103.102-.202.102-.402 0-.102 0-.302.097-.502v-1.3c-.2-.096-.2-.199-.2-.399zM22.3 11.951c0-.2-.097-.302-.097-.4 0-.102-.103-.2-.2-.302-.103-.098-.103-.098-.202-.098H21.5c-.2 0-.298 0-.4.098-.098.102-.2.2-.298.4-.102.2-.102.4-.102.601v1.899c0 .302.102.502.2.601.102.2.2.303.302.303.098.097.2.097.4.097.098 0 .2 0 .299-.097.102 0 .2-.103.2-.2.103-.103.103-.202.2-.304 0-.098.102-.2.102-.4 0-.098 0-.298.098-.498v-1.298c-.098 0-.098-.202-.2-.402z"/><path d="M24.301 8.45H12.203C11.499 8.45 11 8.95 11 9.651V24.55c0 .703.498 1.201 1.202 1.201H26.4c.602 0 1.197-.498 1.197-1.201V11.752H24.4V8.45H24.3zM15.4 11.45v-.2l.097-.098 1.202-.8h1.098v4.799H18.8l.102.103c.097.097 0 .097 0 .097v.498s0 .102-.102.102h-3.302l-.097-.102v-.595s0-.103.097-.103H16.7v-3.701l-.898.502c-.102 0-.102.098-.2.098h-.104s0-.098-.097-.098v-.502zM18.9 22.15c-.102.402-.2.7-.4.899-.2.298-.4.499-.601.601-.302.098-.6.2-1 .2-.401 0-.699-.102-1.001-.2a.923.923 0 0 1-.602-.601c-.097-.298-.297-.6-.297-.899-.098-.4-.098-.8-.098-1.2 0-.504 0-.898.098-1.201.098-.401.2-.699.4-.899.2-.2.401-.503.602-.601.297-.102.6-.2 1-.2s.698.097.996.2a.883.883 0 0 1 .6.601c.103.298.303.6.303.899.098.4.098.8.098 1.2 0 .499 0 .899-.098 1.201zM23.4 23.55v.102s0 .098-.098.098H20l-.098-.098v-.601s0-.103.098-.103h1.201v-3.695l-.904.498c-.097 0-.097.102-.2.102H20s0-.102-.098-.102v-.699L20 18.95l1.201-.802H22.3v4.8H23.3l.098.103v.499zm.102-9.2c-.102.401-.2.704-.4.903-.201.298-.4.498-.601.596-.297.102-.6.2-1.002.2-.4 0-.697-.098-1-.2a.89.89 0 0 1-.596-.596c-.102-.2-.302-.6-.302-.903 0-.298-.098-.8-.098-1.202 0-.497 0-.897.098-1.196.103-.4.2-.702.4-.902.2-.299.4-.5.6-.602.299-.097.601-.194 1.001-.194.402 0 .699.097.997.194a.905.905 0 0 1 .6.602c.103.302.304.6.304.902.097.402.097.802.097 1.197 0 .503-.098.903-.098 1.2z"/></g></svg>