<svg xmlns="http://www.w3.org/2000/svg" viewBox="0 0 38.75 35" height="35" width="38.75"><path d="M28.502.95h-19L0 17.351l9.502 16.397H28.4l9.5-16.397-9.397-16.4zM18.1 9.55h4.4v4.398h-4.4V9.55zm0 5.502h4.4v4.4h-4.4v-4.4zm0 5.499h4.4v4.399h-4.4v-4.4zM12.598 9.549h4.404v4.398h-4.404V9.55zm0 5.502h4.404v4.4h-4.404v-4.4zm0 5.499h4.404v4.399h-4.404v-4.4zM27.9 27.35H10v-17.9h1.201V26.15H27.9v1.201zm.097-2.402H23.6v-4.4h4.398v4.4zm0-5.498H23.6v-4.4h4.398v4.4zm0-5.504H23.6V9.55h4.398v4.398z" fill="#0078d7"/></svg>