<svg xmlns="http://www.w3.org/2000/svg" viewBox="0 0 31.25 40" height="40" width="31.25"><path d="M28.701 9.85L26.5 11.051l-1.001-1.2h-2.7V4.952C22.797 2.15 20.6.25 17.5.25c-.497 0-.899.098-1.299.098.6.302 1.099.8 1.596 1.303C19.703 1.75 21.5 2.75 21.5 4.953v5H18.1V5.45C18.1 2.652 15.9.748 12.797.748 9.703.748 7.5 2.652 7.5 5.45v4.503H1.201L0 36.85l24.703 1.798h.395l1 .102 4.4-3.501L28.7 9.85zm-20-4.4c0-2.3 1.998-3.3 3.897-3.3 1.904 0 3.9 1 3.9 3.3v4.503h-2.997V5.05c0-.601.2-1.201.4-1.601-.6-.202-1.104-.202-1.303-.202H12.5c-.2.602-.4 1.202-.4 1.803v4.903H8.701V5.45z" fill="#0078d7"/></svg>