<svg xmlns="http://www.w3.org/2000/svg" viewBox="0 0 52.5 40" height="40" width="52.5"><g fill="#0078d7"><path d="M25.6 24.55l-.6 2.397c-.098.402.2.704.497.602l2.403-.602c.401-.097.499-.4.2-.697L26.3 24.447c-.298-.297-.699-.297-.699.103zM27.402 21.547L30.9 25.05c.302.302.8.302 1.103 0L48.2 8.75a.778.778 0 0 0 0-1.099L44.703 4.15a.795.795 0 0 0-1.104 0L27.402 20.449c-.2.302-.2.801 0 1.098zM51.002 1.45c-2.004-2.003-4-.497-4-.497-.303.2-.8.697-1.103.994-.299.304-.299.704 0 1.104l3.5 3.496c.304.303.801.303 1 0 .3-.297.7-.796 1.002-1.098.097 0 1.596-1.996-.4-3.999zM15.699 31.45c-.099.2-.099.4-.201.6l-.795 2.397h1.796L15.8 32.05c0-.2-.102-.4-.102-.6zM36.9 33.149c-.299 0-.499.102-.699.304-.2.2-.302.4-.302.697H37.7c0-.697-.298-1.001-.8-1.001z"/><path d="M44.101 27.349H43.4c.4-1.3.502-2.7.502-4.098 0-2.201-.502-4.3-1.303-6.201L33.3 26.352c-.504.498-4.102 2.1-5 2.398l-2.3.697c-.2 0-.4.103-.601.103a2.472 2.472 0 0 1-1.898-.898c-.504-.6-.705-1.4-.504-2.202l.6-2.3c.2-1.001 1.9-4.6 2.404-5.103l9.496-9.497a15.098 15.098 0 0 0-6.996-1.699c-6.803 0-12.603 4.4-14.6 10.5a9.74 9.74 0 0 0-3.404-.602C4.703 17.749 0 22.45 0 28.25 0 34.047 4.703 38.75 10.498 38.75H44.6c2.998-.2 5.302-2.7 5.302-5.801 0-2.998-2.602-5.6-5.8-5.6zM17.402 37.25l-.4-1.602h-2.5L14 37.25h-1.7l2.5-7.002h1.9l2.5 7.002h-1.797zm6.397 0H19.3v-.601l2.5-3.197h-2.298v-1.104H23.7v.8l-2.202 2.9H23.9v1.202H23.8zm5.6 0h-1.5v-.8c-.399.599-.896.898-1.498.898-1.2 0-1.698-.7-1.698-2.1V32.25H26.2v2.798c0 .702.298 1.103.802 1.103.297 0 .497-.102.697-.302.2-.201.298-.499.298-.801v-2.9h1.505v5.102H29.4zM34 33.55c-.2-.097-.4-.2-.6-.2-.299 0-.602.103-.801.4-.196.2-.298.6-.298 1.001v2.398H30.8v-5H32.3v.902c.2-.702.697-1.001 1.299-1.001.2 0 .302 0 .4.099v1.4zm5.2 1.601h-3.3c.102.7.502 1.099 1.4 1.099.498 0 1.002-.098 1.5-.4v1.097c-.498.202-1.099.402-1.796.402-.802 0-1.403-.2-1.905-.7-.395-.399-.698-1.098-.698-1.898 0-.898.303-1.602.8-2.1.499-.4 1.001-.601 1.7-.601.8 0 1.299.201 1.699.699.4.4.502 1.001.502 1.698v.704h.098z"/></g></svg>