<svg xmlns="http://www.w3.org/2000/svg" viewBox="0 0 42.5 38.75" height="38.75" width="42.5"><g fill="#0078d7"><path d="M33.502 24V13.102C33.502 6.5 27.7.9 20.898.9 14.1.9 8.3 6.5 8.3 13.102V24C1.7 26.599 0 30.5 0 30.5l.098.103h41.6l.103-.103c0 .103-1.703-3.799-8.3-6.5zM9.8 23.498V13.101C9.8 7.302 14.902 2.4 20.899 2.4c6 0 11.103 4.902 11.103 10.703v10.395H31.9c-.201-.097-.402-.097-.601-.194H23.9c1.7-.704 4.2-2.203 4.898-5.103 0-.2 0-.4-.2-.499-.2-.102-.4-.102-.499.099 0 0-2.803 2.7-5.103 2.7H22.9c.899-1.603 2.002-3.101 3.101-5.401 2.3-4.497-.903-9.101-5.302-9.2-4.4-.096-7.8 4.4-5.699 9 1.099 2.3 2.1 3.999 2.9 5.601-2.3-.098-5-2.7-5-2.7-.103-.201-.4-.201-.498-.099-.2.099-.302.299-.2.5.795 2.9 3.198 4.398 4.898 5.102h-6.7c-.2.097-.4.097-.6.195zM25.297 14.2c0 .4-2.397 3.3-4.496 3.3-2.202-.102-4.102-2.9-4.102-3.3-.098-.303 8.598-.303 8.598 0zm-3.798-2.1c0-.801 1.001-2.002 1.4-2.002.5 0 1.202 1.298 1.202 2.202 0 .801-.702 1.002-1.201 1.002-.4-.103-1.401-.303-1.401-1.202zm-2.598 1.1c-.502 0-1.104-.201-1.2-1.002 0-.801.698-2.197 1.2-2.197.499 0 1.396 1.195 1.396 1.996 0 1.002-.897 1.202-1.396 1.202zM20.899 37.501c11.503 0 18.002-4.198 18.701-5.702H2.203C2.9 33.303 9.3 37.5 20.899 37.5z"/></g></svg>