<svg xmlns="http://www.w3.org/2000/svg" viewBox="0 0 57.5 52.5" height="52.5" width="57.5"><path d="M1.499 49.749h54.3v-47.9H1.5v47.9z" fill="#0078d7"/><path d="M1.499 49.749h54.3v-47.9H1.5v47.9z" fill="none" stroke="#0078d7" stroke-width="3" stroke-linecap="round" stroke-linejoin="round" stroke-miterlimit="3"/><text style="-inkscape-font-specification:BitstreamVeraSans-Roman" transform="matrix(1.25 0 0 1.25 47.007 47.936)" font-weight="400" font-size="4.8" font-family="Bitstream Vera Sans" fill="#fff"><tspan y="0" x="0 3.2831452">VM</tspan></text><path d="M9.902 41.214H2.1c-.299 0-.499.201-.499.498v5.503c0 .298.2.499.5.499H4.8c.298 1-.097 1.201-1.802 1.201v.498H8.9v-.498c-1.698 0-1.899-.103-1.601-1.201h2.798c.302 0 .502-.201.502-.5v-5.502c-.2-.297-.502-.498-.698-.498zm-.2.699v5.102h-7.5v-5.102h7.5z" fill="#fff"/><path d="M7.27 43.529l-1.401-.801-1.402.8 1.402.802 1.401-.801zM5.981 44.535v1.596l1.401-.796v-1.601l-1.4.801zM5.728 44.535l-1.402-.801v1.601l1.402.796v-1.596z" fill="#fff"/></svg>