<svg xmlns="http://www.w3.org/2000/svg" viewBox="0 0 35 45" height="45" width="35"><g fill="#00188f"><path d="M16.002 39.15H4.198v-1.801h11.9V33.75h-11.9v-1.801h11.7l-4-4.2L18.1 21.25h3.301v-1.801h-4.3c-1.002 0-1.9-.499-2.301-1.197-.499-.8-.4-1.802.102-2.7L21.3 3.849C21 2.95 20.098 2.252 19.1 2.252H2.402C1.1 2.252 0 3.35 0 4.649V43.75h21.299v-4.703H16v.103zM4.198 7.65h13.004V9.45H4.199V7.65z"/><path d="M18.301 26.65l3.5-3.5h-2.9l-4.6 4.701 4.6 4.698h2.9l-3.5-3.502h10.8V26.65h-10.8zM27.797 31.45H24.8l3.501 3.501H17.797v2.398h10.504L24.8 40.85h2.997l4.503-4.703-4.503-4.697zM26.299.953c-.4-.705-1.002-.705-1.397 0l-8.5 15.594c-.4.704-.103 1.201.698 1.201h17.001c.801 0 1.1-.497.699-1.2L26.299.952zM25.6 5.049c.898 0 1.7.801 1.7 1.7 0 .902-.802 1.704-1.7 1.704-.897 0-1.699-.802-1.699-1.705 0-.996.802-1.7 1.7-1.7zm3.501 7.202c-.4.098-.702.2-.902.4l-2.1-3.901c.302-.102.6-.2.8-.497l2.202 3.999zm-5-3.9c.2.199.5.399.801.497l-2.105 3.9c-.2-.2-.497-.4-.897-.4L24.1 8.35zm-2.5 7.699c-.902 0-1.699-.802-1.699-1.699 0-.898.797-1.7 1.7-1.7.898 0 1.7.802 1.7 1.7-.103 1-.802 1.699-1.7 1.699zm5.801-1.201h-3.7c.097-.2.097-.298.097-.498 0-.201 0-.304-.098-.503h3.701c-.102.2-.102.302-.102.503 0 .2 0 .4.102.498zm2.1 1.2c-.903 0-1.705-.8-1.705-1.698 0-.898.802-1.7 1.705-1.7.898 0 1.7.802 1.7 1.7-.103 1-.802 1.699-1.7 1.699z"/></g></svg>