<svg xmlns="http://www.w3.org/2000/svg" viewBox="0 0 27.5 47.5" height="47.5" width="27.5"><g fill="#00188f"><path d="M7.9 26.79a1 1 0 0 1-2.001 0v-5.103c0-.498.4-1.001 1-1.001.601 0 1 .503 1 1.002v5.102zM21.601 26.79a1 1 0 0 1-2 0v-5.103c0-.498.399-1.001 1-1.001.6 0 1 .503 1 1.002v5.102zM8.848 20.701v7.5c0 .898.6 1.5 1.4 1.5h.602v2.596c0 .503.4 1.002.898 1.002.503 0 .903-.5.903-1.002V29.7h1.998v2.597c0 .503.4 1.002.902 1.002.499 0 .9-.5.9-1.002V29.7h.898c.8 0 1.104-.704 1.104-1.499v-7.5H8.848zM16.699 15.451l.801-1.401c.098-.103 0-.303-.098-.4-.102-.097-.302 0-.302.097l-.801 1.504c-.699-.4-1.596-.6-2.5-.6-.9 0-1.797.2-2.5.6l-.801-1.504c-.098-.097-.2-.194-.298-.097-.102.098-.2.2-.102.4l.8 1.401c-1.396.9-2.397 2.3-2.397 4v.2h10.6v-.2c0-1.7-.902-3.203-2.402-4zm-5.4 2.198c-.298 0-.498-.2-.498-.498 0-.302.2-.503.498-.503.302 0 .502.2.502.503 0 .298-.2.498-.502.498zm4.902 0c-.302 0-.502-.2-.502-.498 0-.302.2-.503.502-.503.298 0 .498.2.498.503 0 .298-.2.498-.498.498z"/><path d="M26.201 1.15H1.3C.6 1.15 0 1.648 0 2.35v42.5c0 .699.6 1.397 1.299 1.397H26.2c.699 0 1.299-.698 1.299-1.397V2.45c-.098-.699-.699-1.3-1.299-1.3zm-15.2 1.801H16.9v.996H11v-.996zM13.8 45.35a2.002 2.002 0 0 1-1.998-1.996c0-1.104.9-2.003 1.998-2.003 1.103 0 2.002.899 2.002 2.003a2.003 2.003 0 0 1-2.002 1.996zm10.704-4.898H2.9V6.15h21.603V40.45z"/></g></svg>