<svg xmlns="http://www.w3.org/2000/svg" viewBox="0 0 403.75 413.75" height="413.75" width="403.75"><g fill="#2a3282"><path d="M26.601 301.699C12.9 301.699 0 314.599 0 327.5v85h403.399v-85c0-12.901-13.696-25.801-26.598-25.801h-350.2zm342.5 47.202c-7.7 0-13.701-6.001-13.701-12.901 0-6.899 6.001-12.9 13.701-12.9s13.696 6.001 13.696 12.9c0 6.9-5.996 12.901-13.696 12.901zM180.298 145.498L120.2 85.4v49.8l81.499 80.698L283.3 135.2V85.4L223.2 145.497V.4h-42.901v145.097z"/><path d="M326.201 206.401H236.1L213.7 227.9 201.7 239.902 189.702 227.9l-22.3-21.499H77.3l-56.7 77.3h363.101l-57.5-77.3z"/></g></svg>