<svg xmlns="http://www.w3.org/2000/svg" viewBox="0 0 532.5 440" height="440" width="532.5"><g fill="#2a3282"><path d="M282.798 318.353l51.503 51.596V326.95L265.6 258.25l-68.799 68.701v42.998l51.598-51.596v120.395h34.399V318.353z"/><path d="M487.402 160.149c.9-5.2 1.7-10.298 1.7-16.299 0-54.199-41.304-97.1-92.002-97.1-15.499 0-31.001 4.303-44.697 12.901C336.9 24.451 303.399 1.15 267.3 1.15c-52.398 0-95.4 45.6-95.4 101.401v3.399c-6.9-2.597-13.8-3.399-20.601-3.399-24.898 0-48.1 13.799-61.002 36.099-3.397-.899-5.996-.899-9.496-.899C36.1 137.751 0 176.448 0 223.748c0 47.305 36.099 86 80.801 86h107.5L264.8 233.25l76.499 76.499H465l11.201-2.598c32.7-8.598 55.899-39.502 55.899-75.703 0-31.7-18.101-59.2-44.698-71.3z"/></g></svg>