<svg xmlns="http://www.w3.org/2000/svg" viewBox="0 0 412.5 336.25" height="336.25" width="412.5"><g fill="#2a3282"><path d="M0 .2V335h412.002V.2H0zm394.8 317.597H17.203v-257.5h377.7v257.5h-.103z"/><path d="M34.301 300.6h42.9v-42.9h-42.9v42.9zM34.301 240.498h42.9v-42.895h-42.9v42.894zM34.301 180.498h42.9v-42.895h-42.9v42.894zM94.4 300.6h42.9v-42.9H94.4v42.9zM94.4 240.498h42.9v-42.895H94.4v42.894zM94.4 180.498h42.9v-42.895H94.4v42.894zM94.4 120.4h42.9V77.5H94.4v42.9zM154.502 300.6h42.9v-42.9h-42.9v42.9zM154.502 240.498h42.9v-42.895h-42.9v42.894zM154.502 180.498h42.9v-42.895h-42.9v42.894zM154.502 120.4h42.9V77.5h-42.9v42.9zM214.6 300.6h42.9v-42.9h-42.9v42.9zM214.6 240.498h42.9v-42.895h-42.9v42.894zM214.6 180.498h42.9v-42.895h-42.9v42.894zM214.6 120.4h42.9V77.5h-42.9v42.9zM274.702 300.6h42.895v-42.9h-42.895v42.9zM274.702 240.498h42.895v-42.895h-42.895v42.894zM274.702 180.498h42.895v-42.895h-42.895v42.894zM274.702 120.4h42.895V77.5h-42.895v42.9zM334.702 240.498h42.895v-42.895h-42.895v42.894zM334.702 180.498h42.895v-42.895h-42.895v42.894zM334.702 120.4h42.895V77.5h-42.895v42.9z"/></g></svg>