<svg xmlns="http://www.w3.org/2000/svg" viewBox="0 0 438.75 373.75" height="373.75" width="438.75"><g fill="#2a3282"><path d="M182.5 232.171H34.199c-7.7 0-13.702-6.001-13.702-13.701V65.071h42.804V23.07H338.4c7.7 0 13.701 6.001 13.701 13.701v1.699c6.899 1.7 14.599 5.097 21.401 7.7V35.867C373.501 16.971 358.1.77 338.4.77H51.4L0 53.07v165.4c0 18.901 15.4 35.097 35.098 35.097H196.2c-6.001-6.796-10.302-13.598-13.701-21.396zM368.271 269.701l51.401 77.099-47.997-12.9-13.701 38.599-51.401-68.6-38.6 68.6-17.998-41.1-48.002 12.9 47.1-81.4s12.9 22.3 59.1 22.3c47.198-.098 60.098-15.498 60.098-15.498z"/><path d="M312.134 255.457c-45.4 0-82.3-36.8-82.3-81.4 0-44.6 36.802-81.402 82.3-81.402 45.497 0 82.3 36.801 82.3 81.401-.801 44.6-36.803 81.401-82.3 81.401zm0-144.8c-35.103 0-64.301 28.297-64.301 63.4 0 35.097 29.1 63.398 64.3 63.398 35.2 0 64.302-28.301 64.302-63.399 0-35.102-29.101-63.399-64.301-63.399z"/><path d="M311.788 298.71c-69.4 0-126.002-55.699-126.002-124.297 0-68.604 56.602-124.302 126.002-124.302 69.398 0 126 55.698 126 124.301 0 67.7-56.602 124.298-126 124.298zm0-230.499c-59.103 0-108.004 47.999-108.004 106.299 0 58.301 48.004 106.299 108.004 106.299 60 0 107.997-47.998 107.997-106.299 0-59.199-47.998-106.299-107.998-106.299z"/></g></svg>