<svg xmlns="http://www.w3.org/2000/svg" viewBox="0 0 542.5 345" height="345" width="542.5"><g fill="#2a3282"><path d="M120.225 43.348v206h308.999v-206H120.225zm85.8 188.803h-68.701V103.45h68.701v128.701zm205.996 0H223.222V103.45h188.8v128.701z"/><path d="M274.721 137.752h94.404V120.55h-94.404v17.203zM274.721 163.549h94.404V146.35h-94.404v17.198zM274.721 189.251h94.404V172.05h-94.404v17.202zM274.721 215.053h94.404V197.85h-94.404v17.203z"/><path d="M497.822 269.051V31.25c0-11.197-5.097-30.899-17.998-30.899H69.52c-12.894 0-25.697 19.702-25.697 30.899V269.05c-46.3 49.8-43.8 49.8-43.8 49.8 0 13.702 6.9 24.898 26.602 24.898h489.199c15.4 0 25.699-11.196 25.699-24.898l-43.702-49.8zm-184.497 54.096h-85c-4.301 0-8.604-1.698-8.604-4.296l9.405-15.4c0-1.7 3.399-2.603 6.899-2.603h68.696c3.404 0 6.905.903 6.905 2.602l10.298 16.3c0 1.699-4.301 3.397-8.599 3.397zm167.3-57.5c-60.103.904-420.6.904-420.6.904V34.853c0-6.002 5.098-17.203 11.997-17.203h398.3c6.9 0 11.202 7.7 11.202 12.9v235.097h-.899z"/></g></svg>