<svg xmlns="http://www.w3.org/2000/svg" viewBox="0 0 413.75 371.25" height="371.25" width="413.75"><g fill="#2a3282"><path d="M290.869 364.799l-29.204-49.8c-1.699-2.598-5.2-5.2-8.599-5.2h-214.6c-3.397 0-7.7 2.602-8.597 5.2l-29.2 49.8c-1.704 2.602 0 5.2 3.398 5.2H287.37c3.5-.098 4.296-2.598 3.5-5.2zm-220.6-11.201L81.464 335.6h124.501l11.201 17.998H70.268zM233.369 146.801H59.966c-13.7 0-24.897 11.202-24.897 23.999v97.9c0 13.701 11.196 24 24.897 24H233.37c13.696 0 24.897-11.202 24.897-24v-97.9c0-12.9-11.201-23.999-24.897-23.999zm-.903 120.098h-171.7v-94.4h171.7v94.4z"/><path d="M412.769 18.002c0-9.405-7.7-17.202-17.203-17.202h-137.3c-9.399 0-17.197 7.7-17.197 17.202v112.5c19.697 3.398 34.297 20.595 34.297 40.298v96.099H378.37V284.1H275.366v17.196H378.37V318.5h-95.303l19.703 34.303h108.999v-334.8h1zm-34.4 51.5H275.366V52.298H378.37V69.5zM192.969 201.699h-28.301l11.997-11.998h38.604V228.3l-12.003 12.002v-29.205L168.965 244.6l-9.4-9.399 33.404-33.501z"/></g></svg>