<svg xmlns="http://www.w3.org/2000/svg" viewBox="0 0 291.25 303.75" height="303.75" width="291.25"><g fill="#2a3282"><path d="M76.752 122.075h134.8V97.177h-134.8v24.898zM76.752 170.064h134.8V145.16h-134.8v24.903zM76.752 217.152h134.8V192.25h-134.8v24.902z"/><path d="M230 .4H40.297C17.997.4 0 18.397 0 40.697v221.504c0 22.3 17.997 40.299 40.297 40.299H250.6c22.3 0 40.299-17.998 40.299-40.299V60.497L230 .4zm20.6 278.1H40.297c-8.598 0-15.497-6.899-15.497-16.299V40.697A15.447 15.447 0 0 1 40.297 25.2H217.1V75h48.901v187.998c0 8.603-6.802 15.502-15.401 15.502z"/></g></svg>