<svg xmlns="http://www.w3.org/2000/svg" viewBox="0 0 343.75 302.5" height="302.5" width="343.75"><g fill="#2a3282"><path d="M0 69.551h85.801V.851H0v68.7zM95.297 69.551h152.7V.851h-152.7v68.7zM257.5 69.551h85.801V.851H257.5v68.7zM0 146.749h162.202V78.053H0v68.696zM171.601 146.749H343.3V78.053H171.601v68.696zM0 224.049h85.801v-68.696H0v68.696zM95.297 224.049h152.7v-68.696h-152.7v68.696zM257.5 224.049h85.801v-68.696H257.5v68.696zM0 301.25h162.202v-68.701H0v68.701zM171.601 301.25H343.3v-68.701H171.601v68.701z"/></g></svg>