<svg xmlns="http://www.w3.org/2000/svg" viewBox="0 0 260 271.25" height="271.25" width="260"><g fill="#2a3282"><path d="M205.2 1.2H36.099C16.4 1.2 0 17.499 0 37.299v196.6C0 253.603 16.299 270 36.099 270h187.1c19.701 0 36.102-16.299 36.102-36.1V54.4L205.2 1.2zm31.803 232.597c0 7.7-6.002 13.701-13.702 13.701H36.1c-7.7 0-13.697-6-13.697-13.7V36.4c0-7.7 5.997-13.701 13.697-13.701h157.9V66.4H236.9v167.397h.102z"/><path d="M78.199 93.9v17.999C78.199 122.2 73.9 127.4 66.2 127.4V142.9c8.599 0 11.998 5.201 11.998 14.6V177.2c0 10.298 2.602 17.198 6.899 21.5 5.2 5.199 13.7 7.699 26.6 7.699v-15.498c-4.296 0-7.7-.903-10.297-3.403-1.698-1.7-2.602-6.001-2.602-11.202V160c0-12.9-4.297-21.499-11.998-24.898C95.4 131.697 98.8 123.9 98.8 111.102V93.9c0-9.399 4.301-13.701 12.9-13.701V64.7c-12.9 0-21.499 2.598-26.601 7.7-4.297 3.501-6.9 11.201-6.9 21.499zM172.597 111.899V93c0-10.302-2.597-17.201-6.898-22.299-5.202-5.2-13.697-7.7-26.598-7.7v15.4c8.599 0 12.901 4.297 12.901 13.697v16.303c0 13.697 4.297 21.5 11.997 24.898-8.599 3.397-11.996 11.201-11.996 23.999v17.203c0 5.2-.904 8.598-2.603 11.2-1.7 2.598-5.201 3.398-10.299 3.398V204.6c12.901 0 21.499-2.597 26.598-7.7 4.301-4.298 6.898-11.998 6.898-22.3v-18.896c0-10.304 4.303-15.504 12.003-15.504V125.6c-7.7 1.801-12.002-3.399-12.002-13.701z"/></g></svg>