<svg xmlns="http://www.w3.org/2000/svg" viewBox="0 0 41.25 36.25" height="36.25" width="41.25"><path d="M37.339 3.203c-4-4.406-12.3-2.5-17.1 4.295-6.099-7.3-13.3-8.7-17.3-4.295C-8.26 15.399 15.84 33 20.142 34.999 24.44 33 48.54 15.399 37.34 3.203zM28.94 11.4l-9.599 12.3-6.098-6.601-.504-.602c-.098-.2-.098-.395 0-.497l1.602-1.499c.098-.102.2-.102.298-.102.102 0 .2 0 .302.102l4.298 4.696 7.5-9.598c.102-.098.2-.098.302-.098.098 0 .2 0 .2.098l1.699 1.303c.098.098.098.2.098.298 0 0-.098.097-.098.2z" fill="#00188f"/></svg>