<svg xmlns="http://www.w3.org/2000/svg" viewBox="0 0 41.25 36.25" height="36.25" width="41.25"><path d="M37.388 3.203c-4.004-4.406-12.3-2.5-17.1 4.295-6.103-7.3-13.3-8.7-17.3-4.295C-8.314 15.399 15.787 33 20.186 34.999c4.4-1.998 28.501-19.6 17.203-31.796zM28.985 11.4l-9.6 12.3-6.099-6.601-.498-.602c-.103-.2-.103-.395 0-.497l1.597-1.499c.102-.102.2-.102.302-.102.098 0 .2 0 .298.102l4.303 4.696 7.5-9.598c.097-.098.2-.098.297-.098.102 0 .2 0 .2.098l1.7 1.303c.102.098.102.2.102.298 0 0 0 .097-.102.2z" fill="#0078d7"/></svg>