<svg xmlns="http://www.w3.org/2000/svg" viewBox="0 0 65 41.25" height="41.25" width="65"><path d="M55.6 39.501H10.098c-5.298 0-9.6-4.8-9.6-10.601 0-5.8 4.302-10.6 9.6-10.6.4 0 .703 0 1.103.102 1.596-2.802 4.296-4.502 7.3-4.502.8 0 1.597.098 2.398.401V13.9c0-6.898 5-12.402 11.201-12.402 4.301 0 8.3 2.803 10.103 7.202C43.799 7.7 45.6 7.1 47.5 7.1c6.002 0 10.801 5.4 10.801 12.001 0 .699-.102 1.3-.2 1.998C61.298 22.6 63.398 26 63.398 29.9c0 4.498-2.799 8.302-6.598 9.298l-1.2.302z" fill="none" stroke="#00188f" stroke-width="1" stroke-miterlimit="10"/></svg>