<svg xmlns="http://www.w3.org/2000/svg" viewBox="0 0 28.75 45" height="45" width="28.75"><g fill="#00188f"><path d="M21.401 25.297c-1.499-.795-2.3-1.996-2.3-3.696 0-1.4.602-2.602 1.7-3.402h.098c-.699-.9-1.7-1.798-3.199-1.798-1.099 0-1.899 1.099-3.399 1.099-1.2 0-1.6-1.002-2.9-1.002-2.602 0-5.2 2.3-5.2 5.402 0 1.602.498 4.102 1.699 6.299.899 1.6 1.9 2.602 3.101 2.602.899 0 1.899-.899 3.1-.899 1.1 0 1.998.797 3 .797 2.299 0 4.398-2.999 4.398-5v-.402H21.4z"/><path d="M24.902 0H2.7C1.201 0 0 1.299 0 2.797v39.406C0 43.7 1.601 45 3.1 45h21.5c1.499 0 3.1-1.001 3.1-2.797V2.797C27.598 1.3 26.401 0 24.902 0zm-13.7 3.1h5.097v1.001H11.2v-1zm2.597 39.898a1.785 1.785 0 0 1-1.797-1.797c0-1 .795-1.801 1.797-1.801 1 0 1.801.8 1.801 1.801 0 1.002-.8 1.797-1.801 1.797zm10.704-5.2H2.998v-32.7h21.505v32.7z"/><path d="M17.525 11.47c-1.7.503-3.301 1.801-3.301 3.999 0 .2.102.4.102.703v.098c1.699-.498 3.199-1.797 3.199-4.098v-.702z"/></g></svg>