<svg xmlns="http://www.w3.org/2000/svg" viewBox="0 0 162.5 311.25" height="311.25" width="162.5"><path d="M141.699 1H20.497C9.4 1 0 10.4 0 21.498V106c0 11.099 9.4 19.6 21.299 19.6H45.2v151.099c0 19.598 12.003 33.3 28.999 33.3 15.401 0 27.3-11.997 29-28.198 4.301-.899 7.7-.899 7.7-.899s.902-15.4 0-20.502c-.899-5.099 9.398-11.099 9.398-11.099s.904-8.501 0-9.4c-9.398-4.3-14.496-8.501-17.098-12.001v-10.201c2.602-3.398 6-6 7.7-7.7 3.402-4.296 11.103-16.202 11.103-16.202s-8.5-11.996-11.103-14.496c-4.298-5.102-6.798-10.201-7.7-14.502v-7.7c2.602-17.1 22.201-31.596 22.201-31.596h-22.201H142.5c10.2 0 19.6-8.502 19.6-19.6V21.4C161.299 10.301 152.797 1 141.699 1zm-70 280c0 5.098-.898 11.099-6.797 11.099-6 0-6.802-6.001-6.802-11.099V141c0-5.098 1.7-11.099 6.802-11.099 5.098 0 6.797 6.001 6.797 11.099v140zm9.4-228.799c-10.2 0-18.8-8.501-18.8-18.799 0-10.2 8.502-18.803 18.8-18.803 10.2 0 18.803 8.501 18.803 18.803 0 10.195-8.603 18.8-18.803 18.8z" fill="#2a3282"/></svg>