<svg xmlns="http://www.w3.org/2000/svg" viewBox="0 0 248.75 335" height="335" width="248.75"><path d="M232.597 140.653H216.3V96.849C216.299 33.347 176 .75 128.7.75h-7.7C72.9.75 33.4 32.551 33.4 96.849v2.602H64.3V96.85c0-40.298 21.5-67.798 57.5-67.798h7.701c36.9 0 57.5 27.5 57.5 67.798v42.9H16.3c-6.9 0-16.299 9.4-16.299 16.299v161.4c0 6.9 9.4 16.3 16.299 16.3h215.4c6.9 0 16.299-9.4 16.299-16.3V156.15c0-6.899-9.4-15.498-15.4-15.498zm-96.196 94.398v66.998h-23.999V235.05c-9.404-4.301-16.303-13.7-16.303-24.901 0-15.499 12.9-28.301 28.3-28.301 15.503 0 28.301 12.9 28.301 28.3.098 11.201-6.801 20.699-16.299 24.902z" fill="#2a3282"/></svg>