<svg xmlns="http://www.w3.org/2000/svg" viewBox="0 0 248.75 322.5" height="322.5" width="248.75"><path d="M231.801 127.249h-16.303v-30c0-63.501-40.298-96.099-87.598-96.099h-7.7c-48.1 0-87.602 31.801-87.602 96.099v30h-16.3C9.4 127.249 0 136.648 0 143.553v161.396c0 6.9 9.4 16.299 16.299 16.299h215.4c6.9 0 16.299-9.4 16.299-16.3V143.554c-.795-6.905-10.2-16.304-16.197-16.304zM135.6 222.55v66.998h-23.999V222.55c-9.398-4.301-16.304-13.7-16.304-24.902 0-15.498 12.902-28.3 28.302-28.3 15.502 0 28.301 12.9 28.301 28.3 0 10.302-6.803 19.702-16.3 24.902zm49.8-95.302H62.7v-30C62.7 56.95 84.2 29.45 120.2 29.45h7.7c36.9 0 57.5 27.5 57.5 67.798v30z" fill="#2a3282"/></svg>