<svg xmlns="http://www.w3.org/2000/svg" viewBox="0 0 395 267.5" height="267.5" width="395"><g fill="#2a3282"><path d="M0 .15v266.099h394.8V.15H0zm377.7 248.901H17.203V60.15H377.7v188.901z"/><path d="M60.098 223.25H120.2v-60.102H60.098v60.102zM124.502 150.35h-68.7V81.65h68.7v68.701zM64.4 141.751h51.499V90.247h-51.5v51.504zM227.5 227.553h-68.701V158.85H227.5v68.702zm-60.097-8.604H218.9V167.45h-51.499v51.499zM163.1 146.049h60.097V85.95H163.1v60.098zM266.099 223.25H326.2v-60.102H266.1v60.102zM330.498 150.35H261.8V81.65h68.697v68.701zm-60.098-8.599h51.5V90.247h-51.5v51.504z"/></g></svg>