<svg xmlns="http://www.w3.org/2000/svg" viewBox="0 0 62.5 51.25" height="51.25" width="62.5"><g fill="#2a3282"><path d="M23.95 10.049c-8.799 0-15.899 7.1-15.899 15.904 0 8.799 7.1 15.898 15.9 15.898 8.797 0 15.898-7.1 15.898-15.898 0-8.804-7.1-15.904-15.899-15.904zm0 28.799c-7.1 0-12.798-5.795-12.798-12.998 0-7.1 5.797-12.9 12.895-12.9 7.105 0 12.902 5.8 12.902 12.9-.099 7.203-5.9 12.998-12.999 12.998z" fill-rule="evenodd"/><path d="M60.049 1.05H17.45c-.904.098-1.6.801-1.6 1.801v7.198a27.538 27.538 0 0 1 3.998-1.5v-3.5H57.85v25H41.348c-.298 1.401-.797 2.7-1.5 3.998h20.2c1.002 0 1.802-.794 1.802-1.795v-29.4c0-1-.8-1.802-1.801-1.802zM13.35 36.547c-.601-.594-1.5-.594-2.1 0l-1.099 1.104c-.8-.102-1.499.097-2.1.7L.752 45.65a2.532 2.532 0 0 0 0 3.599c.996 1 2.598 1 3.598 0l7.3-7.3a2.458 2.458 0 0 0 .699-2.1l1.104-1.099c.497-.6.497-1.601-.103-2.203z" fill-rule="evenodd"/><path d="M53.15 19.15l-2.599-5.302-4.7 4.702-4.801-9.6-3.901 5.899c.4.4.702.903 1.104 1.298l2.597-3.896 4.599 9.097 4.702-4.698 2.1 4.102h2.9V19.15H53.15zM33.051 18.848l-5.902 9.405-6.396-8.804-4.8 7.3H12.45c0 1 .4 1.899.699 2.802h4.199l3.501-5.302 6.299 9.004 7.402-11.706c-.303-.897-.801-1.898-1.5-2.7z"/></g></svg>