<svg xmlns="http://www.w3.org/2000/svg" viewBox="0 0 26.25 43.75" height="43.75" width="26.25"><g fill="#2a3282"><path d="M13.301 4.9a2.9 2.9 0 0 1 2.9 2.9v5.8a2.9 2.9 0 0 1-2.9 2.902v4.096h11.797V13.6C25.098 7.2 22.203.598 13.3.598V4.9z"/><path d="M10.297 7.8v5.8c0 .801.704 1.403 1.504 1.403h1.5c.8 0 1.499-.704 1.499-1.403V7.8c0-.801-.699-1.401-1.499-1.401h-1.5c-.8-.098-1.504.6-1.504 1.4zM0 22.503V30.9c0 6.5 4.4 11.602 11.801 11.602h1.5c7.398 0 11.797-5.102 11.797-11.602v-8.397H0z"/><path d="M11.801 20.5v-4.101a2.9 2.9 0 0 1-2.9-2.902V7.704a2.9 2.9 0 0 1 2.9-2.902V.5C2.998.5 0 6.999 0 13.497V20.5h11.801z"/></g></svg>