<svg xmlns="http://www.w3.org/2000/svg" viewBox="0 0 81.25 73.75" height="73.75" width="81.25"><path d="M49.873 51.623c-2.75 2.125-5.995 3.126-9.248 3.126-3.502 0-6.875-1.25-9.752-3.502-.12-1.62 0-4.247 1.002-6.874.752 0 1.377 0 2.252-.37.375.37.745.746 1.37.995 1.506 1.129 3.126 2.13 4.376 2.876-.121.752.127 1.498.625 2.123 1 1.378 3.004 1.627 4.254.505.248-.25.496-.505.624-.754a28.14 28.14 0 0 0 5.874.626c-.497.503-.752.873-1.377 1.25zM28.125 30.878c-.377 1.498-.497 3.622.625 6.122-1.377 1.627-1.377 3.877 0 5.497l.377.377c-.504 1.874-.753 3.75-.874 5.248-3.878-5.248-3.63-12.123-.128-17.244zm3.252-3.38c.747-.626 1.62-1.123 2.5-1.62a31.116 31.116 0 0 0 4.12 5.12 34.625 34.625 0 0 0-4.247 3.63c-.128.248-.377.37-.497.624-.88-.127-1.627-.127-2.5.121-1.378-2.875-1.378-5.248-1.13-6.625.625-.37 1.002-.746 1.754-1.25zm19.12.375c-2.372-.497-5.994-.376-10.12 1.875-1.379-1.498-2.75-3.125-4.255-4.623a15.21 15.21 0 0 1 4.752-.752c3.252 0 6.626 1.25 9.623 3.5zm-4.745 19.752c-.127-.376-.255-.873-.504-1.25-1-1.25-2.748-1.498-3.998-.752a25.766 25.766 0 0 1-4.127-2.75c-.248-.248-.496-.496-.873-.745.874-1.378 1.002-3.125.128-4.63l.497-.498c1.377-1.377 2.748-2.373 3.998-3.252 1.876 1.754 4 3.38 5.875 4.879A3.309 3.309 0 0 0 47.123 42c1.128 1.498 3.124 1.748 4.751.625.128 0 .128-.128.248-.128 1.379 1.002 2.5 1.755 3.126 2.13-.377 1.123-1.002 2.246-1.748 3.375-1.25.376-3.877.746-7.748-.377zm9.624-4.126c-.624-.497-1.498-1.122-2.627-1.996.376-1.001.248-2.251-.498-3.125-1.001-1.378-3.003-1.626-4.253-.88-1.5-1.371-3.246-3.125-5-4.873 5.255-2.877 9.254-2.627 9.63-2.627 0 .127.12.127.249.254 2.876 3.871 3.622 8.871 2.5 13.246zm-.873-14.496c-3.38-4.503-8.75-6.875-13.878-6.875-3.877 0-7.5 1.122-10.625 3.622-7.628 5.874-9.248 16.875-3.252 24.503 3.5 4.496 8.75 6.875 13.877 6.875 3.877 0 7.5-1.13 10.625-3.63 7.627-5.873 9.127-16.995 3.252-24.495zm-43.75 27.62l5.37 3.254V53.25l-5.37-3.125v6.499zm51.874-3.373v6.627l5.37-3.253v-6.499l-5.37 3.125zM39.376 6.375L33.75 9.252l5.625 3.5L45 9.253l-5.625-2.877zM59.087 50.14l2.788 1.733 5.625-3.495-5.625-2.755-1.011.504a21.492 21.492 0 0 1-1.777 4.013zm-3.335 4.409v2.075l5.37 3.252V53.25l-2.91-1.699a21.348 21.348 0 0 1-2.46 2.998zM45 60.422v3.204c0 1.123.874 1.997 1.875 1.997H57.5c1.25 4.126-.377 4.75-7.252 4.75v2.125h23.254v-2.246c-6.755 0-7.5-.625-6.379-4.63h10.753c1.122 0 2.124-.995 2.124-1.996V41.873c.128-.995-1.002-1.996-2.002-1.996H61.874c-.01.96-.083 1.923-.225 2.875h15.723v20.25H47.748v-3.35c-.898.317-1.815.575-2.748.77zm-22.661-9.984L17.5 53.25v6.627l5.377-3.254v-5.312a18.777 18.777 0 0 1-.538-.874zm-1.401-2.828l-4.063-1.987-5.752 2.755 5.752 3.495 4.663-2.9a21.437 21.437 0 0 1-.6-1.363zm-1.563-7.733h-17.5C.874 39.877 0 40.75 0 41.871v21.754c0 1.123.874 1.997 1.875 1.997H12.5c1.25 4.126-.376 4.75-7.251 4.75v2.125H28.5v-2.246c-6.754 0-7.5-.625-6.378-4.63h10.753C34 65.623 35 64.628 35 63.627V60.11a20.768 20.768 0 0 1-2.627-.898v3.79H2.749v-20.25H19.6a20.866 20.866 0 0 1-.225-2.876zm19.247-21.402v-4.473l-5.37-3.125v6.62l2.485 1.452a21.276 21.276 0 0 1 2.886-.474zm4.903.103l1.852-1.08v-6.5L40 14.003v4.383c1.176-.033 2.359.03 3.525.192zm13.199 7.172c.464-.386.776-.938.776-1.498V2.497C57.628 1.623 56.498.75 55.498.75H24.375c-1.002 0-1.875.873-1.875 2.002V24.5c0 .962.64 1.739 1.45 1.949a21.51 21.51 0 0 1 2.549-2.702h-1.25V3.5h29.623v20.249h-.12a21.324 21.324 0 0 1 1.972 2.002z" fill="#00188f" fill-rule="evenodd"/></svg>