<svg xmlns="http://www.w3.org/2000/svg" viewBox="0 0 28.75 43.75" height="43.75" width="28.75"><path d="M25.297.4H2.7C1.201.4 0 1.699 0 3.3v36.299C0 41.2 1.201 42.5 2.7 42.5h22.597c1.504 0 2.7-1.299 2.7-2.901v-36.3c0-1.6-1.196-2.9-2.7-2.9zM9.8 2.3H18.3c.698 0 1.202.102 1.202.6 0 .6-.505.6-1.202.6H9.8c-.699 0-1.201 0-1.201-.6 0-.498.6-.6 1.2-.6zm6.698 37.099h-4.8c-.497 0-.897-.4-.897-1.002 0-.497.4-.995.898-.995h4.8c.504 0 .903.498.903.995 0 .504-.4 1.002-.904 1.002zm8.502-4H2.998v-30H25v30z" fill="#2a3282"/></svg>