<svg xmlns="http://www.w3.org/2000/svg" viewBox="0 0 31.25 33.75" height="33.75" width="31.25"><g fill="#2a3282"><path d="M23.901 1.2H4.2C1.899 1.2 0 3.1 0 5.4v22.9c0 2.301 1.9 4.2 4.199 4.2h21.803c2.3 0 4.198-1.899 4.198-4.2V7.402l-6.299-6.2zm3.697 27.1a1.58 1.58 0 0 1-1.596 1.601H4.198A1.585 1.585 0 0 1 2.598 28.3V5.399c0-.898.703-1.602 1.6-1.602h18.4V8.9h5v19.4z"/><path d="M21.9 23.9v.098c-.099.6-.801 1.2-1.402 1.2h-5.2c-.595 0-.997-.6-.898-1.2V23.9c.2-.6.8-1.099 1.401-1.099h5.2c.698-.102 1.1.402.899 1.099zM7.998 24.7c-.4-.504-.2-1.201.4-1.6l9.2-6.404-5.9-6.498c-.4-.4-.2-1.099.402-1.597h.103c.297-.2.897-.302 1.299.195l5.697 6.402L20 16c.4.4.497 1.299.098 1.699l-.997.703L9.902 24.8c-.703.4-1.503.4-1.904-.098z" fill-rule="evenodd"/></g></svg>