<svg xmlns="http://www.w3.org/2000/svg" viewBox="0 0 51.25 35" height="35" width="51.25"><g fill="#2a3282"><path d="M49.199 0H1.8C.801 0 0 .699 0 1.498V7.5c0 .801.801 1.498 1.801 1.498h18.297l3.9-4.295 1.5-1.706 1.504 1.706L30.9 8.998h18.3C50.2 8.998 51 8.302 51 7.5V1.498c0-.8-.8-1.498-1.802-1.498z"/><path d="M49.199 12.997H27.002v-1.996H30l-4.503-5-4.496 5h2.997v1.996H1.801c-1 0-1.801.704-1.801 1.506v5.995c0 .8.801 1.505 1.801 1.505h18.297l3.9-4.303 1.5-1.698 1.504 1.698 3.897 4.303h18.3c1.001 0 1.802-.704 1.802-1.505v-5.995c0-.802-.8-1.505-1.802-1.505z"/><path d="M49.199 26.001H27.002V24H30l-4.503-5-4.496 5h2.997V26H1.801C.801 26.001 0 26.7 0 27.5v6.001C0 34.301.801 35 1.801 35H49.2C50.2 35 51 34.301 51 33.501V27.5c0-.801-.8-1.499-1.802-1.499z"/></g></svg>