<svg xmlns="http://www.w3.org/2000/svg" viewBox="0 0 32.5 43.75" height="43.75" width="32.5"><g fill="#2a3282"><path d="M8.999 37.502H2.998V35.5h10v-2.002h-10V31.5h10V24.3c0-.801.8-1.596 1.504-1.596h.4V21.3C14.902 17 17.3 14.9 20 14.5V2.502A2.005 2.005 0 0 0 17.997.5H2.002A2.006 2.006 0 0 0 0 2.502v39h8.999v-4zm-6.001-31h14.005v1.996H2.997V6.502z"/><path d="M27.1 23.6H26.3v-1.699c0-3.604-2.1-5.4-4.6-5.4h-.4c-2.5 0-4.6 1.796-4.6 5.4v1.7h-.8c-.299 0-.801.498-.801.898V33.6c0 .401.703.899 1 .899H27.1c.302 0 1-.498 1-.899V24.5c-.103-.4-.6-.899-1-.899zm-5 5.401V32.8h-1.299v-3.798c-.504-.303-.899-.802-.899-1.402 0-.899.698-1.603 1.5-1.603.8 0 1.498.704 1.498 1.603.097.6-.302 1.099-.8 1.401zm2.603-5.4H18.3v-1.7c0-2.3 1.099-3.803 2.998-3.803h.4c1.9 0 3.004 1.6 3.004 3.803v1.7z" fill-rule="evenodd"/><path d="M24.8 38.498c0-.498-.298-.996-.802-.996H22.9l-.103-4.004H21.9v4.004h-1.001v-4.004h-.997v4.004h-1.2c-.4 0-.802.498-.802.996V41.5c0 .498.299 1.001.801 1.001h5.297c.402 0 .802-.503.802-1v-3.004zm-.802 3.003h-5v-3.003h5V41.5z" fill-rule="evenodd"/><path d="M11.001 41.5H19v-3.002H11V41.5zM23.998 41.5h8.003v-3.002H24V41.5z" fill-rule="evenodd"/></g></svg>