<svg xmlns="http://www.w3.org/2000/svg" viewBox="0 0 53.75 42.5" height="42.5" width="53.75"><g fill="#2a3282"><path d="M44.101 19.248h-35.2c-1.001 0-1.899.602-1.899 1.402v7.1c0 .801.795 1.401 1.9 1.401h35.2c.996 0 1.9-.6 1.9-1.401v-7.1c0-.697-.904-1.401-1.9-1.401zm-31.103 7.003A2.007 2.007 0 0 1 11 24.248c0-1.098.899-1.996 1.997-1.996 1.103 0 2.002.898 2.002 1.997 0 1.099-.899 2.003-2.002 2.003zm9.005 0A2.009 2.009 0 0 1 20 24.248c0-1.098.899-1.996 2.003-1.996 1.097 0 1.996.898 1.996 1.997 0 1.099-.899 2.003-1.996 2.003zm8.999 0c-1.1 0-2.003-.903-2.003-2.003 0-1.098.903-1.996 2.003-1.996a2 2 0 0 1 1.996 1.997c0 1.099-.898 2.003-1.996 2.003zm8.998 0a2.012 2.012 0 0 1-2.002-2.003c0-1.098.903-1.996 2.002-1.996 1.099 0 2.003.898 2.003 1.997 0 1.099-.904 2.003-2.003 2.003zM38.799 9.248h-24.6l-7.197 7.004h39l-7.203-7.003z" fill-rule="evenodd"/><path d="M51.201 3.449v5.6l1.796-1.699V.25H45.9L44.1 2.051H49.8l-6.001 5.996L45.2 9.45l6.001-6zM51.201 38.047v-5.594l1.796 1.698v7.1H45.9L44.1 39.45H49.8l-6.001-6L45.2 32.05l6.001 5.996zM2.797 3.449v5.6L1.001 7.35V.25h7.1L9.8 2.051H4.199L10.2 8.047 8.8 9.45l-6.002-6zM1.801 38.047v-5.594L0 34.15v7.1h7.1L8.8 39.45h-5.6l6-6-1.402-1.398-5.996 5.996z"/></g></svg>