<svg xmlns="http://www.w3.org/2000/svg" viewBox="0 0 46.25 37.5" height="37.5" width="46.25"><g fill="#2a3282"><path d="M24.4 10.652l-5.898-3.404-5.802 3.404v.098l5.802 3.397L24.4 10.75v-.098zM19.101 15.451v6.7L25 18.748v-6.7l-5.899 3.403zM17.997 15.451L12.1 12.05v6.699l5.897 3.403v-6.7z" fill-rule="evenodd"/><path d="M43.701 19.949c-4.6 2.1-5.502-2.1-7.5-2.1-2.002 0-2.9 4.2-7.5 2.1-1-.498-1.699.4-1.699 1.298 0 12.5 9.2 15 9.2 15s9.198-2.5 9.198-15c0-.898-.6-1.898-1.699-1.298z"/><path d="M29.4 33.947c-5.801-.097-6.603-.697-5.499-4.8H26.5c-.4-.897-.698-1.898-.899-2.997H2.9l.098-22.1L35 4.148v11.905c.4-.103.699-.2 1.201-.2.699 0 1.299.2 1.796.497V3.152c0-1.103-1.196-2.002-2.298-2.002H2.1c-1.099 0-2.1.899-2.1 2.1v23.799c0 1.103.899 2.201 2.1 2.201H13.6c1.2 4.4.702 4.8-6.597 4.8v2.198h24v-.698c-.504-.499-1.1-1.001-1.602-1.603z" fill-rule="evenodd"/></g></svg>