<svg xmlns="http://www.w3.org/2000/svg" viewBox="0 0 32.5 42.5" height="42.5" width="32.5"><g fill="#2a3282"><path d="M17.997.25H2.002A2.006 2.006 0 0 0 0 2.252v39h11.001v-4H2.998V35.25H11v-2.002H2.998V31.25H11V25.25h1.001v-1.001H20V2.253A2.005 2.005 0 0 0 17.998.25zm-.995 7.997H2.998V6.251h14.004v1.996z"/><path d="M18.502 29.151c.697 0 1.298.602 1.298 1.197 0 .703-.601 1.2-1.299 1.2-.704 0-1.298-.6-1.298-1.2.097-.698.594-1.197 1.299-1.197zM20.801 33.449c-.2-.996-.303-1.099-1.298-1.3h-.304c-.098.304-.6 1-.698 1.201-.2-.303-.704-1-.8-1.299h-.299c-1 .201-1.103.3-1.303 1.3v.4c0 .4 1.104.6 2.3.6 1.304 0 2.3-.302 2.3-.6.2 0 .2-.102.102-.302zM26.401 29.049c.7 0 1.3.502 1.3 1.201 0 .699-.6 1.201-1.3 1.201-.702 0-1.303-.502-1.303-1.201.102-.6.6-1.201 1.303-1.201zM28.799 33.449c-.2-.996-.298-1.099-1.299-1.3h-.297c-.103.304-.602 1-.802 1.201-.102-.303-.702-1-.8-1.299h-.304c-.996.201-1.098.3-1.299 1.3v.298c0 .4 1.1.6 2.403.6 1.3 0 2.3-.298 2.398-.6v-.2zM23.998 37.053h5V36.05h-5v1.002zM23.998 39.049h5v-1.002h-5v1.002zM16.002 37.053h5V36.05h-5v1.002zM16.002 39.049h5v-1.002h-5v1.002z" fill-rule="evenodd"/><path d="M32.002 30.25v-2.998h-1v-1h-4.8c-1.202 0-2.5.4-3.502.898h-.4c-1.099-.499-2.3-.898-3.501-.898h-4.8v1h-1.002v14h18.404v-2.203H30.9v-.801h1V35.25h-1v-1.001h1v-2.9h-1V30.25h1.103zm-13.004 9.902h-4.295V26.95h4.296c1.099 0 2.3.401 3.3.899v13.1c-1.098-.498-2.201-.796-3.3-.796zm11.202 0H25.9c-1.1 0-2.3.196-3.301.698V27.848c1-.498 2.105-.9 3.3-.9H30.2v13.204z" fill-rule="evenodd"/></g></svg>