<svg xmlns="http://www.w3.org/2000/svg" viewBox="0 0 27.5 30" height="30" width="27.5"><g fill="#0078d7"><path d="M14.004 18.941l-.4-1.5-1.396.098c-.103-.2-.304-.395-.504-.595l.504-1.201-1.402-.802-.801 1.001c-.297-.102-.601-.102-.899-.102l-.502-1.196-1.499.395.2 1.303c-.2.1-.401.3-.601.402l-1.197-.504-.8 1.401 1 .801c-.102.298-.102.602-.102.802l-1.099.497.402 1.5 1.298-.098c.098.298.298.498.498.698l-.498 1.099 1.401.8.797-1c.302.102.502.102.8.102l.504 1.1 1.498-.402-.102-1.299c.2-.2.502-.297.702-.497l1.201.497.797-1.299-.996-.8c.097-.303.097-.498.097-.8l1.099-.4zm-3.799 2.401c-1.099.602-2.397.1-2.997-1-.602-1.098-.103-2.402 1-3.003a2.306 2.306 0 0 1 2.998 1c.498 1.105.098 2.5-1 3.003zM18.31 11.201c-.303-.097-.6-.097-.897-.097l-.504-1.202-1.499.4.2 1.3c-.2.102-.4.303-.6.4l-1.201-.498-.802 1.4 1.002.797c-.098.303-.098.602-.098.801l-1.099.503.395 1.499 1.304-.103c.099.303.299.504.499.704l-.499 1.099 1.398.8.8-1c.302.102.503.102.8.102l.498 1.098 1.504-.4-.102-1.3a3.11 3.11 0 0 0 .703-.501l1.197.502.8-1.304-1-.796c.102-.302.102-.503.102-.8l1.202-.504-.402-1.498-1.401.102c-.103-.2-.298-.4-.498-.6l.498-1.201-1.401-.801-.899 1.098zm.099 5.4c-1.099.602-2.398.103-2.999-.994-.6-1.104-.098-2.403 1.001-3.004 1.099-.6 2.398-.098 2.998 1 .504 1.1.102 2.5-1 2.998z"/><path d="M21.099 1.05h-17.5A3.586 3.586 0 0 0 0 4.649V25.15a3.586 3.586 0 0 0 3.599 3.599h19.398a3.587 3.587 0 0 0 3.604-3.599V6.547L21.1 1.05zm3.604 24.101c0 .899-.704 1.598-1.603 1.598H3.701a1.577 1.577 0 0 1-1.6-1.598V4.65c0-.899.696-1.596 1.6-1.596h16.596v4.496h4.406V25.15z"/></g></svg>