<svg xmlns="http://www.w3.org/2000/svg" viewBox="0 0 13.75 16.25" height="16.25" width="13.75"><path d="M2.5 1.801l-.6-.6C1.4.9.899.697.899.697L.2.497C.098.698 0 .8 0 1.1c0 .903.297 1.104.297 1.104H2.7c-.102-.103-.102-.201-.2-.402z" fill="#0078d7"/><path d="M2.9 14.199c.2-.2.299-.498.299-.9v-.502H11V12.3c0-2.597 2.3-6.401 2.3-9.4 0-2.403-2.3-2.7-2.3-2.7h-10S2.797.6 3.2 2.203c.102.2.102.4.102.697 0 2.999-2.3 6.803-2.3 9.4 0 .303 0 .698.098 1 .102.299.2.499.4.699.102.102.2.2.4.302.103.098.201.2.4.2.201 0 .401-.102.6-.302z" fill="#0078d7"/><path d="M3.701 13.399c0 .502-.2 1-.4 1.201-.303.302-.899.4-.899.4H12.5c.297 0 .6-.2.801-.499.2-.302.298-.702.298-1.201h-2.5l-7.398.099z" fill="#0078d7"/><path d="M9.8 3.901l-2.3 2.1h2.002L5.6 9.601l1.603-3H5.4L7.402 3.6H9.8V3.9z" fill="#fff"/></svg>