<svg xmlns="http://www.w3.org/2000/svg" viewBox="0 0 146.25 153.75" height="153.75" width="146.25"><g fill="#00188f"><path d="M70.909 1.48C49.506 6.577 37.006 30.181 43.007 54.277c6.002 24 27.902 38.604 49.303 33.502 21.396-5.098 33.896-28.701 27.9-52.797C114.209 11.376 91.909-3.623 70.909 1.48zM116.699 94.2c-3.902-.401-8.599 7.3-14.599 10.297-6.001 2.603-12.397 8.102-29.6 0-17.203-8.095-19.703-15-34.301-15C23.599 89.498.498 115.202 0 152.5h145.801c-.401 0-1.7-25.697-9.902-39.502C126.2 94.6 120.6 94.2 116.699 94.2z"/></g></svg>