<svg xmlns="http://www.w3.org/2000/svg" viewBox="0 0 300 278.75" height="278.75" width="300"><g fill="#00188f"><path d="M281.099 1.1h-264.6C7.796 1.1 0 8.2 0 17.599v187.5c0 8.7 7.1 17.3 16.498 17.3H107.1c9.501 34.702 5.498 37.802-52.002 37.802v17.3H244.1v-17.3c-57.5 0-65.4-3.203-55.902-37.802h92.9c8.701 0 18.1-7.9 18.1-15.801v-189C299.3 8.2 289.8 1.1 281.099 1.1zM275.6 198H22.002L23.6 23.898l252.001.8V198z"/><path d="M192.1 76.799L145.699 50 100 76.8v.702l45.699 26.798L192.1 77.5V76.8zM149.6 114.601v52.7l47.3-26.699V87.8L149.6 114.6zM141.699 114.601L94.502 87.8v52.803l47.197 26.7v-52.7z"/></g></svg>