<svg xmlns="http://www.w3.org/2000/svg" viewBox="0 0 52.5 58.75" height="58.75" width="52.5"><path d="M0 37.227h43.502V.03H0v37.197z" fill="#fff" fill-rule="evenodd"/><path d="M1.26 35.967H42.24V1.29H1.26v34.677z" fill="#7f7f7f" fill-rule="evenodd"/><path d="M2.52 34.703h38.462V9.487H2.52v25.216z" fill="#fff" fill-rule="evenodd"/><path d="M17.021 18.941H27.11v-6.934H17.02v6.934zM6.934 32.183h7.568v-5.674H6.934v5.674zM18.281 32.183h7.57v-5.674h-7.57v5.674zM29.634 32.183h7.563v-5.674h-7.563v5.674z" fill="#7f7f7f" fill-rule="evenodd"/><path d="M21.435 27.139h1.26V17.68h-1.26v9.458zM10.087 26.509h1.26v-3.784h-1.26v3.784z" fill="#7f7f7f" fill-rule="evenodd"/><path d="M10.087 23.355h23.956v-1.26H10.087v1.26z" fill="#7f7f7f" fill-rule="evenodd"/><path d="M32.784 26.509h1.26v-3.784h-1.26v3.784z" fill="#7f7f7f" fill-rule="evenodd"/><path d="M51.699 31.236c0 7.836-6.353 14.184-14.19 14.184-7.831 0-14.184-6.348-14.184-14.184 0-7.832 6.353-14.185 14.185-14.185 7.836 0 14.189 6.353 14.189 14.185z" fill="#fff" fill-rule="evenodd"/><path d="M37.554 18.384c-7.114 0-12.887 5.79-12.887 12.89 0 7.11 5.773 12.886 12.887 12.886 7.1 0 12.886-5.776 12.886-12.885 0-7.1-5.786-12.891-12.886-12.891zm0 24.54c-1.435 0-2.964-2.138-3.838-5.59a26.035 26.035 0 0 1 7.661 0c-.86 3.452-2.397 5.59-3.823 5.59zm0-7.113c-1.378 0-2.774.113-4.101.313-.25-1.314-.402-2.974-.426-4.575h9.053c-.024 1.586-.176 3.25-.425 4.575a27.94 27.94 0 0 0-4.101-.313zm0-16.177c1.377 0 2.85 1.993 3.74 5.23a24.944 24.944 0 0 1-7.475 0c.873-3.237 2.348-5.23 3.735-5.23zm0 6.754c1.377 0 2.725-.113 4.024-.313.277 1.323.453 2.597.487 4.214h-9.038c.054-1.617.225-2.891.503-4.214 1.285.2 2.646.313 4.024.313zm-5.762 3.9h-5.937c.151-2.25 1.035-4.116 2.285-5.84 1.201.6 2.613 1.075 4.165 1.402a25.029 25.029 0 0 0-.512 4.439zm0 1.26c.024 1.641.16 3.388.44 4.8-1.651.337-3.154.816-4.35 1.41-1.163-1.732-1.867-3.983-1.954-6.21h5.864zm11.523 0h5.85c-.087 2.212-.771 4.463-1.933 6.2-1.202-.6-2.7-1.073-4.35-1.41.258-1.416.409-3.149.433-4.79zm-.009-1.26a24.31 24.31 0 0 0-.503-4.438c1.538-.327 2.95-.801 4.15-1.401 1.264 1.723 2.05 3.589 2.202 5.84h-5.849zm2.846-6.84c-1.06.502-2.284.903-3.637 1.186-.513-1.948-1.25-3.55-2.134-4.634a11.652 11.652 0 0 1 5.771 3.447zM34.732 20c-.904 1.084-1.627 2.686-2.154 4.634-1.338-.283-2.573-.684-3.623-1.187A11.601 11.601 0 0 1 34.732 20zm-6.08 18.76c1.08-.497 2.388-.912 3.838-1.211.512 2.115 1.289 3.848 2.241 5.015a11.663 11.663 0 0 1-6.079-3.804zm11.73 3.804c.946-1.167 1.723-2.9 2.236-5.015 1.45.299 2.763.714 3.847 1.21a11.8 11.8 0 0 1-6.084 3.805z" fill="#7f7f7f" fill-rule="evenodd"/><text style="-inkscape-font-specification:BitstreamVeraSans-Roman" transform="matrix(1.25 0 0 1.25 2.6 55.16)" font-weight="400" font-size="9" font-family="Bitstream Vera Sans" fill="#7f7f7f"><tspan y="0" x="0 7.362 12.897 18.612 23.301001 25.802999 29.330999 -2.2226601 1.28734 7.0023398 12.53734 18.24334 23.778339 27.477341 29.97934 34.902191">website(generic)</tspan></text></svg>