<svg xmlns="http://www.w3.org/2000/svg" viewBox="0 0 252.5 326.25" height="326.25" width="252.5"><g fill="#00188f"><path d="M71.001 244.599V165l86.596-13.399v-135.4C157.597 7.5 150.498.4 141.802.4h-126C7.101.4 0 7.5 0 16.201v307.196h130.699L70.8 314.701V291.9h-47.3v-15.8h47.3v-15.796h-47.3v-15.801l47.5.097zM23.701 47.7H134v15.8H23.7V47.7zM157.597 236h94.605v-80.4l-94.605 12.598V236z"/><path d="M149.8 236v-67.001L86.801 177.7V236H149.8zM149.8 244.599H86.801v56.7l62.999 9.5v-66.2zM157.597 244.599V311.6L252.202 325v-80.401h-94.605z"/></g></svg>