<svg xmlns="http://www.w3.org/2000/svg" viewBox="0 0 262.5 341.25" height="341.25" width="262.5"><g fill="#00188f"><path d="M95.297 169.901c0 20.499-8.696 39.4-22.098 53.599L96.8 247.099c19.697-19.698 31.5-46.499 31.5-76.401 0-29.898-11.803-56.7-31.5-75.596L73.2 118.7c13.402 11.802 22.098 30.699 22.098 51.201z"/><path d="M161.499 169.901c0 38.599-15.8 74-41.7 100l23.6 23.599c31.504-31.498 51.201-74.8 51.201-122.9 0-48.1-19-91.299-50.499-122.797L120.498 71.4c25.2 24.496 41 59.898 41 98.5z"/><path d="M228.399 169.901c0 57.5-23.599 109.498-60.601 146.5L191.4 340c43.301-43.301 70.098-104 70.098-170.099 0-66.102-26.797-126-70.098-169.301l-23.604 23.599C205.6 61.2 228.4 113.197 228.4 169.9zM62.998 170.697c0 17.305-14.2 31.504-31.5 31.504S0 188.003 0 170.697c0-17.3 14.199-31.498 31.498-31.498 17.3 0 31.5 14.198 31.5 31.498z"/></g></svg>