<?xml version="1.0" encoding="UTF-8" standalone="no"?>
<svg
   xmlns:dc="http://purl.org/dc/elements/1.1/"
   xmlns:cc="http://creativecommons.org/ns#"
   xmlns:rdf="http://www.w3.org/1999/02/22-rdf-syntax-ns#"
   xmlns:svg="http://www.w3.org/2000/svg"
   xmlns="http://www.w3.org/2000/svg"
   viewBox="0 0 56.25 57.5"
   height="57.5"
   width="56.25"
   xml:space="preserve"
   version="1.1"
   id="svg2"><metadata
     id="metadata8"><rdf:RDF><cc:Work
         rdf:about=""><dc:format>image/svg+xml</dc:format><dc:type
           rdf:resource="http://purl.org/dc/dcmitype/StillImage" /></cc:Work></rdf:RDF></metadata><defs
     id="defs6" /><g
     transform="matrix(1.25,0,0,-1.25,0,57.5)"
     id="g10"><g
       transform="scale(0.1,0.1)"
       id="g12"><path
         id="path14"
         style="fill:#0078d7;fill-opacity:1;fill-rule:nonzero;stroke:none"
         d="m 0,455.602 0,-445.5903 76.8008,0 0,206.3673 87.1792,0 60,-83.981 60,83.981 87.231,0 0,-206.3673 74.379,0 0,445.5903 -445.59,0 z M 223.98,244.391 c -45.582,0 -82.378,36.8 -82.378,81.597 0,44.813 36.796,81.602 82.378,81.602 45.629,0 82.43,-36.789 82.43,-81.602 0,-44.797 -36.801,-81.597 -82.43,-81.597 z" /></g></g></svg>