<?xml version="1.0" encoding="UTF-8" standalone="no"?>
<svg
   xmlns:dc="http://purl.org/dc/elements/1.1/"
   xmlns:cc="http://creativecommons.org/ns#"
   xmlns:rdf="http://www.w3.org/1999/02/22-rdf-syntax-ns#"
   xmlns:svg="http://www.w3.org/2000/svg"
   xmlns="http://www.w3.org/2000/svg"
   viewBox="0 0 56.25 57.5"
   height="57.5"
   width="56.25"
   xml:space="preserve"
   version="1.1"
   id="svg2"><metadata
     id="metadata8"><rdf:RDF><cc:Work
         rdf:about=""><dc:format>image/svg+xml</dc:format><dc:type
           rdf:resource="http://purl.org/dc/dcmitype/StillImage" /></cc:Work></rdf:RDF></metadata><defs
     id="defs6" /><g
     transform="matrix(1.25,0,0,-1.25,0,57.5)"
     id="g10"><g
       transform="scale(0.1,0.1)"
       id="g12"><path
         id="path14"
         style="fill:#0078d7;fill-opacity:1;fill-rule:nonzero;stroke:none"
         d="m 271.988,455.602 -61.597,-43.981 -55.981,-11.223 55.981,11.223 5.629,-28.832 93.589,19.223 c 13.59,3.199 27.192,-6.41 30.391,-20 L 411.988,28.4102 c 1.602,-6.3985 0,-14.4102 -3.199,-18.3985 l -299.18,0 -63.1988,312.0003 c -3.211,13.59 6.3984,27.179 20,30.386 l 94.3708,19.223 -5.582,27.957 -40.789,56.024 -114.41,0 0,-445.5903 445.59,0 0,445.5903 -173.602,0 z" /><path
         id="path16"
         style="fill:#0078d7;fill-opacity:1;fill-rule:nonzero;stroke:none"
         d="m 194.41,385.988 c 0,-4.41 -3.59,-8.008 -8,-8.008 -4.422,0 -8.012,3.598 -8.012,8.008 0,4.41 3.59,8.012 8.012,8.012 4.41,0 8,-3.602 8,-8.012 z" /><path
         id="path18"
         style="fill:#0078d7;fill-opacity:1;fill-rule:nonzero;stroke:none"
         d="m 203.199,455.602 -43.199,0 21.602,-24.801 21.597,24.801 z" /><path
         id="path20"
         style="fill:#0078d7;fill-opacity:1;fill-rule:nonzero;stroke:none"
         d="M 321.602,348.41 76.0195,298.801 123.98,61.1914 l 45.629,9.6094 -22.418,109.5972 46.399,9.614 41.609,-38.391 23.199,51.168 46.403,9.609 21.609,-108.789 42.379,8.789 -47.187,236.012 z M 223.98,210.801 c -23.98,-4.813 -47.96,10.39 -52.769,35.187 -4.801,24.024 11.168,48.012 35.199,52.813 23.981,4.808 48,-10.391 52.809,-35.192 4.761,-24.808 -11.207,-48.007 -35.239,-52.808 z" /><path
         id="path22"
         style="fill:#0078d7;fill-opacity:1;fill-rule:nonzero;stroke:none"
         d="m 134.41,335.602 c 0.789,-3.981 3.988,-5.59 7.192,-4.801 l 108.007,21.597 c 3.2,0.821 4.801,3.981 4.801,6.403 l 0,0.777 c -0.82,3.211 -4.019,4.813 -6.398,4.813 l -25.633,-5.59 1.601,-8 -55.968,-11.223 -1.602,8.012 -25.629,-5.578 c -4.761,0 -6.371,-3.211 -6.371,-6.41 z" /></g></g></svg>