<?xml version="1.0" encoding="UTF-8" standalone="no"?>
<svg
   xmlns:dc="http://purl.org/dc/elements/1.1/"
   xmlns:cc="http://creativecommons.org/ns#"
   xmlns:rdf="http://www.w3.org/1999/02/22-rdf-syntax-ns#"
   xmlns:svg="http://www.w3.org/2000/svg"
   xmlns="http://www.w3.org/2000/svg"
   viewBox="0 0 41.25 42.5"
   height="42.5"
   width="41.25"
   xml:space="preserve"
   version="1.1"
   id="svg2"><metadata
     id="metadata8"><rdf:RDF><cc:Work
         rdf:about=""><dc:format>image/svg+xml</dc:format><dc:type
           rdf:resource="http://purl.org/dc/dcmitype/StillImage" /></cc:Work></rdf:RDF></metadata><defs
     id="defs6" /><g
     transform="matrix(1.25,0,0,-1.25,0,42.5)"
     id="g10"><g
       transform="scale(0.1,0.1)"
       id="g12"><path
         id="path14"
         style="fill:#0078d7;fill-opacity:1;fill-rule:nonzero;stroke:none"
         d="M 322.379,140.391 161.602,333.199 0,141.211 160.781,10 322.379,140.391 Z m -181.598,-66.4105 0,81.5975 c -15.191,8.012 -24.761,24.031 -24.761,43.211 0,26.402 20,48 44.761,48 24.809,0 44.809,-21.598 44.809,-48 0,-18.398 -10.391,-35.199 -24.809,-42.391 l 0,-16.007 -0.781,-0.782 -15.199,-16.019 15.98,-16.801 0,-0.777 L 166.41,90 180,74.8008 160,53.9805 l -19.219,20 z" /><path
         id="path16"
         style="fill:#0078d7;fill-opacity:1;fill-rule:nonzero;stroke:none"
         d="m 177.699,211.719 c 0,8 -9.609,14.371 -16.801,14.371 -8.007,0 -16.019,-5.59 -16.019,-13.59 0,-8.012 8.012,-16.801 16.019,-16.801 7.192,-0.777 16.801,7.231 16.801,16.02 z" /></g></g></svg>