<?xml version="1.0" encoding="UTF-8" standalone="no"?>
<svg
   xmlns:dc="http://purl.org/dc/elements/1.1/"
   xmlns:cc="http://creativecommons.org/ns#"
   xmlns:rdf="http://www.w3.org/1999/02/22-rdf-syntax-ns#"
   xmlns:svg="http://www.w3.org/2000/svg"
   xmlns="http://www.w3.org/2000/svg"
   viewBox="0 0 41.25 42.5"
   height="42.5"
   width="41.25"
   xml:space="preserve"
   version="1.1"
   id="svg2"><metadata
     id="metadata8"><rdf:RDF><cc:Work
         rdf:about=""><dc:format>image/svg+xml</dc:format><dc:type
           rdf:resource="http://purl.org/dc/dcmitype/StillImage" /></cc:Work></rdf:RDF></metadata><defs
     id="defs6" /><g
     transform="matrix(1.25,0,0,-1.25,0,42.5)"
     id="g10"><g
       transform="scale(0.1,0.1)"
       id="g12"><path
         id="path14"
         style="fill:#0078d7;fill-opacity:1;fill-rule:nonzero;stroke:none"
         d="M 149.922,209.762 96.3281,160.191 c 2.3828,-4.019 3.9809,-8.832 3.9809,-12.812 0,-2.418 0,-4.809 -0.7777,-7.188 l 55.1987,-33.632 0,96.839 c -0.82,0 -4.031,5.582 -4.808,6.364 z" /><path
         id="path16"
         style="fill:#0078d7;fill-opacity:1;fill-rule:nonzero;stroke:none"
         d="m 177.5,210.539 c -0.82,-0.777 -9.609,-7.18 -10.391,-8 l 0,-95.98 55.192,35.191 c -0.821,2.391 -1.602,3.988 -1.602,5.59 0,3.199 0.781,6.41 1.602,9.609 l -44.801,53.59 z" /><path
         id="path18"
         style="fill:#0078d7;fill-opacity:1;fill-rule:nonzero;stroke:none"
         d="M 161.602,333.199 0,141.211 160.781,10 322.379,140.391 161.602,333.199 Z m 85.589,-211.988 c -7.191,0 -13.601,3.199 -18.402,8.008 L 184.801,98 c 3.211,-4.0195 3.988,-8.7812 3.988,-14.4102 C 188.789,69.2188 176.801,58 163.199,58 c -14.41,0 -25.578,11.2188 -25.578,25.5898 0,6.4102 2.379,11.9883 6.359,16.8012 l -51.1714,27.218 c -4.7969,-4.8 -11.207,-7.218 -17.6094,-7.218 -14.4179,0 -25.5898,11.211 -25.5898,25.621 0,14.379 11.9922,25.59 25.5898,25.59 4.0196,0 8,-0.782 11.9922,-3.204 L 140.781,218 c -3.98,4.809 -5.582,11.219 -5.582,16.801 0,16.019 12.813,28.008 28.781,28.008 16.02,0 28.829,-12.809 28.829,-28.008 0,-5.582 -1.598,-10.391 -4.797,-15.192 l 45.578,-53.597 c 4.031,3.207 9.609,4.808 15.199,4.808 14.41,0 25.621,-11.211 25.621,-25.629 -1.601,-11.992 -13.629,-23.98 -27.219,-23.98 z" /></g></g></svg>