<?xml version="1.0" encoding="UTF-8" standalone="no"?>
<svg
   xmlns:dc="http://purl.org/dc/elements/1.1/"
   xmlns:cc="http://creativecommons.org/ns#"
   xmlns:rdf="http://www.w3.org/1999/02/22-rdf-syntax-ns#"
   xmlns:svg="http://www.w3.org/2000/svg"
   xmlns="http://www.w3.org/2000/svg"
   viewBox="0 0 82.5 82.5"
   height="82.5"
   width="82.5"
   xml:space="preserve"
   version="1.1"
   id="svg2"><metadata
     id="metadata8"><rdf:RDF><cc:Work
         rdf:about=""><dc:format>image/svg+xml</dc:format><dc:type
           rdf:resource="http://purl.org/dc/dcmitype/StillImage" /></cc:Work></rdf:RDF></metadata><defs
     id="defs6" /><g
     transform="matrix(1.25,0,0,-1.25,0,82.5)"
     id="g10"><g
       transform="scale(0.1,0.1)"
       id="g12"><path
         id="path14"
         style="fill:#0079d6;fill-opacity:1;fill-rule:nonzero;stroke:none"
         d="m 301.602,452.398 c -3.204,-1.609 -5.582,-1.609 -10.391,-3.207 l 0,-180 c 5.59,-1.601 11.988,-5.582 17.578,-10.39 l 80.82,64.808 c -1.597,3.2 -1.597,10.391 -1.597,15.969 0,5.633 1.597,14.422 3.199,19.223 l -89.609,93.597 z" /><path
         id="path16"
         style="fill:#0079d6;fill-opacity:1;fill-rule:nonzero;stroke:none"
         d="m 168.012,357.98 c 3.199,-5.582 5.578,-14.371 5.578,-20.781 0,-5.59 -1.602,-11.988 -3.199,-17.621 l 80.82,-64.758 c 3.199,3.16 10.391,7.18 15.98,10.391 l 0,183.98 c -3.211,1.598 -5.589,1.598 -7.191,3.207 L 168.012,357.98 Z" /><path
         id="path18"
         style="fill:#0079d6;fill-opacity:1;fill-rule:nonzero;stroke:none"
         d="m 320,201.18 c -7.191,-13.59 -22.379,-23.2 -40,-23.2 -26.41,0 -45.59,19.219 -45.59,45.629 0,3.2 0,7.18 1.61,10.391 l -85.629,66.398 c -7.192,-5.578 -15.981,-7.179 -24.801,-7.179 -24.809,0 -45.59,19.179 -45.59,45.582 0,24.808 19.2188,45.59 45.59,45.59 7.219,0 14.41,-1.602 20.82,-5.59 l 90.391,98.398 c -1.602,5.59 -3.211,11.992 -3.211,19.223 0,24.758 19.219,45.578 45.629,45.578 26.371,0 45.582,-19.211 45.582,-45.578 0,-7.231 -1.602,-16.024 -5.582,-20.82 l 87.191,-98.403 c 7.18,3.199 15.969,5.59 22.379,5.59 24.801,0 45.621,-19.18 45.621,-45.59 0.789,-16.801 -7.219,-30.39 -18.39,-38.398 14.371,-5.582 28.781,-13.59 41.601,-24.801 L 560,324.391 280,657.199 0,324.391 280,96.4219 336.02,142 c -10.43,20.789 -15.239,40 -16.02,59.18 z" /><path
         id="path20"
         style="fill:#0079d6;fill-opacity:1;fill-rule:nonzero;stroke:none"
         d="m 324.801,234 c 0,0.82 0.789,1.602 0.789,2.422 l -0.789,-0.82 c -0.821,-0.782 -0.821,-0.782 0,-1.602 z" /><path
         id="path22"
         style="fill:#0079d6;fill-opacity:1;fill-rule:nonzero;stroke:none"
         d="M 636.02,254.82 C 604.801,288.41 542.379,274 504.801,222 458.398,277.98 402.379,288.41 371.988,254.82 340,220.398 348.012,179.578 368.012,145.988 l 32.769,0.821 31.207,0.781 24.032,62.422 c 0.781,3.988 7.96,11.168 11.992,10.386 3.976,0 12.769,-8 13.59,-11.988 l 0,-104.801 16.796,35.192 c 0.821,3.199 3.981,4.808 8.012,4.808 l 100,0 c 4.801,0 8.789,-4.808 8.789,-8.789 0,-4.808 -3.988,-10.429 -8.008,-10.429 l -91.171,0 -32.821,-63.9926 c -0.82,-3.1992 -8,-4.7968 -11.211,-4.7968 l -0.777,0 c -4.02,0.8203 -7.231,3.1992 -7.231,7.1875 l -0.781,96.7889 -9.609,-26.359 c -0.781,-3.207 -3.981,-8.008 -7.18,-8.828 l -69.609,0 C 416.02,66.8086 483.199,18.8008 503.199,10.7891 l 0,-0.7774 0,0.7774 c 38.403,15.1992 220,150.3909 132.821,244.0309 z" /></g></g></svg>