<?xml version="1.0" encoding="UTF-8" standalone="no"?>
<svg
   xmlns:dc="http://purl.org/dc/elements/1.1/"
   xmlns:cc="http://creativecommons.org/ns#"
   xmlns:rdf="http://www.w3.org/1999/02/22-rdf-syntax-ns#"
   xmlns:svg="http://www.w3.org/2000/svg"
   xmlns="http://www.w3.org/2000/svg"
   viewBox="0 0 38.75 35"
   height="35"
   width="38.75"
   xml:space="preserve"
   version="1.1"
   id="svg2"><metadata
     id="metadata8"><rdf:RDF><cc:Work
         rdf:about=""><dc:format>image/svg+xml</dc:format><dc:type
           rdf:resource="http://purl.org/dc/dcmitype/StillImage" /></cc:Work></rdf:RDF></metadata><defs
     id="defs6" /><g
     transform="matrix(1.25,0,0,-1.25,0,35)"
     id="g10"><g
       transform="scale(0.1,0.1)"
       id="g12"><path
         id="path14"
         style="fill:#0078d7;fill-opacity:1;fill-rule:nonzero;stroke:none"
         d="M 304.73,44.3789 239.961,150.012 174.34,261.18 c -10.391,17.621 -30.391,17.621 -40.789,0.82 L 68.75,156.422 3.94922,44.3789 C -6.44922,26.8086 4.73047,10.0117 25.5508,10.0117 l 257.5702,0 c 21.609,0.7774 32.039,17.5781 21.609,34.3672 z m -132.781,155.2421 -4.801,-93.633 -24.808,0 -4.801,93.633 34.41,0 z M 154.34,48.4102 c -12,0 -20,8.789 -20,20 0,11.9882 8,20 20,20 11.988,0 19.211,-8.0118 20,-20 0,-11.211 -8.012,-20 -20,-20 z" /></g></g></svg>