<?xml version="1.0" encoding="UTF-8" standalone="no"?>
<svg
   xmlns:dc="http://purl.org/dc/elements/1.1/"
   xmlns:cc="http://creativecommons.org/ns#"
   xmlns:rdf="http://www.w3.org/1999/02/22-rdf-syntax-ns#"
   xmlns:svg="http://www.w3.org/2000/svg"
   xmlns="http://www.w3.org/2000/svg"
   viewBox="0 0 48.75 43.75"
   height="43.75"
   width="48.75"
   xml:space="preserve"
   version="1.1"
   id="svg2"><metadata
     id="metadata8"><rdf:RDF><cc:Work
         rdf:about=""><dc:format>image/svg+xml</dc:format><dc:type
           rdf:resource="http://purl.org/dc/dcmitype/StillImage" /></cc:Work></rdf:RDF></metadata><defs
     id="defs6" /><g
     transform="matrix(1.25,0,0,-1.25,0,43.75)"
     id="g10"><g
       transform="scale(0.1,0.1)"
       id="g12"><path
         id="path14"
         style="fill:#0078d7;fill-opacity:1;fill-rule:nonzero;stroke:none"
         d="m 342.379,198.809 c 0.82,5.589 0.82,13.601 0.82,19.179 0,68.012 -56.008,126.41 -123.98,126.41 l -0.821,0 c -48.789,0 -92.808,-31.207 -112.808,-75.199 -5.59,0.789 -11.1798,0 -16.8009,0 C 39.2188,269.199 0,228.379 0,179.602 0,130.809 40,90.8086 89.6094,90.8086 l 45.5896,0 c 1.602,-6.4102 5.582,-12 10.391,-16.7969 16.012,-16.0234 42.422,-16.0234 58.39,0 16.02,15.9766 16.02,41.5973 0,57.5783 -15.968,16.012 -41.601,16.012 -58.39,0 -3.988,-3.988 -7.192,-7.192 -8.789,-12.781 l -46.4104,1.613 c -34.3711,0 -61.6015,25.578 -62.3789,60 0,34.367 28.0078,61.598 62.3789,61.598 6.4102,0 13.5894,-1.598 20.0004,-4.032 l 12.808,-4.797 3.992,12.809 c 12.809,40 50.43,66.41 92.028,66.41 53.59,0 96.801,-43.211 96.801,-96.801 0,-8.828 -0.821,-17.621 -3.211,-25.621 l -5.618,-19.179 20,2.382 3.2,0 c 15.199,0 28.007,-12.769 28.007,-28.011 0,-14.371 -10.386,-26.371 -24.808,-27.969 0,0 -66.399,-0.82 -70.391,-0.82 C 260,134.789 251.211,152.41 237.621,166 c -16.84,17.621 -40,27.191 -64.812,27.191 -16.789,0 -32.809,-4.812 -47.219,-12.769 L 140,157.211 c 9.609,6.41 21.602,9.57 33.59,9.57 16.801,0 33.601,-6.359 45.629,-19.179 11.992,-11.993 19.179,-28 19.179,-45.582 0,-16.8403 -6.41,-33.6411 -19.179,-45.6294 -12.028,-11.9922 -28.008,-19.1797 -45.629,-19.1797 -11.988,0 -23.981,3.211 -33.59,9.5704 L 125.59,23.6211 c 14.41,-8.832 31.211,-13.63282 48,-13.63282 24.808,0 47.191,9.61332 64.808,27.22262 14.411,14.3789 23.204,32.7774 25.582,51.9883 3.211,0 70.43,0.7891 70.43,0.7891 l 0.789,0 c 28.781,2.4219 50.391,26.4027 50.391,55.1917 0.82,26.41 -17.578,48.832 -43.211,53.629 z" /></g></g></svg>