<?xml version="1.0" encoding="UTF-8" standalone="no"?>
<svg
   xmlns:dc="http://purl.org/dc/elements/1.1/"
   xmlns:cc="http://creativecommons.org/ns#"
   xmlns:rdf="http://www.w3.org/1999/02/22-rdf-syntax-ns#"
   xmlns:svg="http://www.w3.org/2000/svg"
   xmlns="http://www.w3.org/2000/svg"
   viewBox="0 0 35 53.75"
   height="53.75"
   width="35"
   xml:space="preserve"
   version="1.1"
   id="svg2"><metadata
     id="metadata8"><rdf:RDF><cc:Work
         rdf:about=""><dc:format>image/svg+xml</dc:format><dc:type
           rdf:resource="http://purl.org/dc/dcmitype/StillImage" /></cc:Work></rdf:RDF></metadata><defs
     id="defs6" /><g
     transform="matrix(1.25,0,0,-1.25,0,53.75)"
     id="g10"><g
       transform="scale(0.1,0.1)"
       id="g12"><path
         id="path14"
         style="fill:#0078d7;fill-opacity:1;fill-rule:nonzero;stroke:none"
         d="m 92.3008,69.9805 87.9688,0 0,28.0078 -87.9688,0 0,-28.0078 z" /><path
         id="path16"
         style="fill:#0078d7;fill-opacity:1;fill-rule:nonzero;stroke:none"
         d="m 119.488,9.98047 32.813,0 27.187,29.60933 -87.1872,0 27.1872,-29.60933 z" /><path
         id="path18"
         style="fill:#0078d7;fill-opacity:1;fill-rule:nonzero;stroke:none"
         d="m 96.2891,282.012 c -7.1875,0 -14.4102,-6.403 -14.4102,-14.41 0,-7.192 6.4024,-14.422 14.4102,-14.422 l 14.4099,0 0,14.422 c -1.597,8.007 -7.219,14.41 -14.4099,14.41 z" /><path
         id="path20"
         style="fill:#0078d7;fill-opacity:1;fill-rule:nonzero;stroke:none"
         d="m 171.48,282.012 c -7.179,0 -14.371,-6.403 -14.371,-14.41 l 0,-14.422 14.371,0 c 7.192,0 14.418,6.41 14.418,14.422 0,7.187 -5.628,14.41 -14.418,14.41 z" /><path
         id="path22"
         style="fill:#0078d7;fill-opacity:1;fill-rule:nonzero;stroke:none"
         d="m 269.879,302.789 0,2.43 c 0,63.98 -54.367,115.972 -121.598,117.57 -1.601,2.43 -40,-0.777 -40,-0.777 C 47.5,414.789 0.269531,364.398 0.269531,306 c 0,-1.602 -6.359371,-48.012 40.820269,-87.191 21.6094,-19.219 43.9883,-70.387 47.1915,-84.797 l 2.4179,-4.813 87.9728,0 2.418,4.813 c 3.211,15.187 26.41,66.398 47.191,84.797 47.231,38.402 41.598,82.382 41.598,83.98 z m -97.578,-65.578 -14.41,0 0,-104.813 -16.012,0 0,104.813 -15.199,0 0,-104.031 -15.981,0 0,104.031 -14.4099,0 c -16.0196,0 -30.3907,14.367 -30.3907,30.391 0,16.007 13.5899,30.386 30.3907,30.386 16.8009,0 30.3909,-14.379 30.3909,-30.386 l 0,-14.422 14.41,0 0,14.422 c 0,16.007 14.422,30.386 30.39,30.386 16.02,0 30.399,-14.379 30.399,-30.386 0.82,-16.801 -13.598,-30.391 -29.578,-30.391 z" /></g></g></svg>