<?xml version="1.0" encoding="UTF-8" standalone="no"?>
<svg
   xmlns:dc="http://purl.org/dc/elements/1.1/"
   xmlns:cc="http://creativecommons.org/ns#"
   xmlns:rdf="http://www.w3.org/1999/02/22-rdf-syntax-ns#"
   xmlns:svg="http://www.w3.org/2000/svg"
   xmlns="http://www.w3.org/2000/svg"
   viewBox="0 0 197.5 198.75"
   height="198.75"
   width="197.5"
   xml:space="preserve"
   version="1.1"
   id="svg2"><metadata
     id="metadata8"><rdf:RDF><cc:Work
         rdf:about=""><dc:format>image/svg+xml</dc:format><dc:type
           rdf:resource="http://purl.org/dc/dcmitype/StillImage" /></cc:Work></rdf:RDF></metadata><defs
     id="defs6" /><g
     transform="matrix(1.25,0,0,-1.25,0,198.75)"
     id="g10"><g
       transform="scale(0.1,0.1)"
       id="g12"><path
         id="path14"
         style="fill:#0078d7;fill-opacity:1;fill-rule:nonzero;stroke:none"
         d="M 1204.69,251.59 C 1079.88,155.609 933.48,109.988 787.891,109.988 c -208.012,0 -408.012,92.032 -545.59,271.211 -228.8205,300 -171.2112,728.791 128.789,958.401 124.808,96.01 271.211,141.6 416.801,141.6 208.007,0 408.009,-92 545.589,-271.21 229.61,-300.002 171.21,-729.568 -128.79,-958.4 z m 208.79,1024.8 c -154.38,204.03 -392,308.01 -624.769,308.01 -166.41,0 -337.621,-54.41 -479.223,-162.38 C -36.0898,1155.61 -103.32,663.621 163.91,317.988 318.281,114.012 551.09,9.98828 788.711,9.98828 c 166.367,0 337.579,54.41012 479.179,162.42172 345.59,262.379 411.99,758.399 145.59,1103.98 z" /><path
         id="path16"
         style="fill:#0078d7;fill-opacity:1;fill-rule:nonzero;stroke:none"
         d="m 431.41,649.75 c -45.629,45.59 -83.211,87.191 -112.82,128.789 -66.399,-133.59 -87.18,-271.211 -96.012,-383.199 8.012,-8.012 8.012,-16.801 12.813,-24.809 33.589,-41.601 75.199,-83.203 112.808,-112.812 0,92.031 8.012,242.422 83.211,392.031 z" /><path
         id="path18"
         style="fill:#0078d7;fill-opacity:1;fill-rule:nonzero;stroke:none"
         d="m 673.828,1178.81 c -62.379,-41.6 -124.808,-96.01 -191.988,-166.4 -33.602,-37.621 -66.41,-75.199 -92,-112.808 28.789,-45.59 62.39,-92 107.969,-137.582 33.64,45.582 75.242,95.968 124.812,141.601 62.418,58.399 120.82,107.969 179.219,145.579 -40.82,41.61 -86.41,88.01 -128.012,129.61 z" /><path
         id="path20"
         style="fill:#0078d7;fill-opacity:1;fill-rule:nonzero;stroke:none"
         d="m 1327.03,1219.05 c -28.79,37.62 -58.4,70.43 -95.98,100 -104.02,16.83 -276.011,13.63 -463.198,-86.37 41.597,-45.62 87.187,-92.03 128.789,-128.83 249.609,136.8 430.389,115.2 430.389,115.2 z" /><path
         id="path22"
         style="fill:#0078d7;fill-opacity:1;fill-rule:nonzero;stroke:none"
         d="m 321.48,784.238 c 20.821,37.621 41.61,75.203 66.411,116.801 -108.012,171.211 -103.981,312.811 -91.993,379.221 -24.808,-28.83 -54.418,-58.4 -75.199,-87.23 -20,-96.79 -20,-238.401 100.781,-408.792 z" /><path
         id="path24"
         style="fill:#0078d7;fill-opacity:1;fill-rule:nonzero;stroke:none"
         d="m 629.301,640.809 c -50.43,41.601 -92,79.222 -128.832,116.793 C 475.699,720.031 454.879,686.43 434.102,649.629 467.699,616 509.301,578.422 554.879,545.609 834.102,324.828 1113.28,304.012 1271.68,304.012 c 8.01,0 58.4,66.41 87.19,108.008 -71.99,-16.801 -371.991,-54.418 -729.569,228.789 z" /><path
         id="path26"
         style="fill:#0078d7;fill-opacity:1;fill-rule:nonzero;stroke:none"
         d="m 320.551,783.379 c 28.789,-41.598 66.398,-87.219 112.808,-128.82 16.801,37.613 37.582,71.211 66.411,108 -45.629,45.632 -79.219,92 -108.008,137.621 -28.793,-41.602 -50.391,-79.219 -71.211,-116.801 z" /><path
         id="path28"
         style="fill:#0078d7;fill-opacity:1;fill-rule:nonzero;stroke:none"
         d="M 801.602,1048.66 C 1060,811.039 1360,611.039 1439.18,556.672 c 8.01,20.777 12.81,37.566 16.8,58.387 -83.17,62.39 -300,228.793 -562.39,492.001 -25.578,-16.8 -59.18,-28.01 -91.988,-58.4 z" /><path
         id="path30"
         style="fill:#0078d7;fill-opacity:1;fill-rule:nonzero;stroke:none"
         d="m 772.07,1234.48 c -62.379,66.4 -128.789,140.78 -195.98,216.01 -28.82,-8 -62.418,-20.82 -92.031,-37.61 45.632,-79.22 116.8,-160.82 187.23,-236.02 38.402,20.82 68.012,40.82 100.781,57.62 z" /><path
         id="path32"
         style="fill:#0078d7;fill-opacity:1;fill-rule:nonzero;stroke:none"
         d="m 771.949,1234.71 c -33.59,-16.83 -71.988,-32.81 -100.82,-57.61 41.601,-41.61 84.812,-86.41 130.43,-128.01 33.601,20.82 61.562,37.61 95.203,54.41 -41.602,40.78 -79.223,84.81 -124.813,131.21 z" /><path
         id="path34"
         style="fill:#0078d7;fill-opacity:1;fill-rule:nonzero;stroke:none"
         d="m 1105.66,881.309 c -62.38,-50.43 -75.19,-141.598 -28.78,-204.02 50.39,-66.41 141.6,-75.187 208,-28.789 62.39,50.391 75.2,141.602 28.79,208.012 -49.61,62.379 -140.78,74.367 -208.01,24.797 z" /><path
         id="path36"
         style="fill:#0078d7;fill-opacity:1;fill-rule:nonzero;stroke:none"
         d="M 801.719,512.059 C 743.32,466.43 730.512,378.422 776.91,320.031 c 45.59,-58.402 133.602,-71.179 192,-24.769 58.39,45.59 71.21,128.789 24.801,191.988 -45.59,62.379 -129.609,70.391 -191.992,24.809 z" /><path
         id="path38"
         style="fill:#0078d7;fill-opacity:1;fill-rule:nonzero;stroke:none"
         d="m 291.762,945.77 c -92.032,-71.211 -108.012,-200 -37.621,-292.032 71.211,-92 200,-107.968 291.988,-37.578 92.031,70.391 108.012,200 37.621,291.988 -71.211,91.992 -204.801,108.792 -291.988,37.622 z" /></g></g></svg>