<?xml version="1.0" encoding="UTF-8" standalone="no"?>
<svg
   xmlns:dc="http://purl.org/dc/elements/1.1/"
   xmlns:cc="http://creativecommons.org/ns#"
   xmlns:rdf="http://www.w3.org/1999/02/22-rdf-syntax-ns#"
   xmlns:svg="http://www.w3.org/2000/svg"
   xmlns="http://www.w3.org/2000/svg"
   viewBox="0 0 42.5 43.75"
   height="43.75"
   width="42.5"
   xml:space="preserve"
   version="1.1"
   id="svg2"><metadata
     id="metadata8"><rdf:RDF><cc:Work
         rdf:about=""><dc:format>image/svg+xml</dc:format><dc:type
           rdf:resource="http://purl.org/dc/dcmitype/StillImage" /></cc:Work></rdf:RDF></metadata><defs
     id="defs6" /><g
     transform="matrix(1.25,0,0,-1.25,0,43.75)"
     id="g10"><g
       transform="scale(0.1,0.1)"
       id="g12"><path
         id="path14"
         style="fill:#0078d7;fill-opacity:1;fill-rule:nonzero;stroke:none"
         d="M 60,10.0117 119.219,33.2109 140,12.3906 l 98.398,0 0,137.6214 7.192,5.59 c 55.191,47.179 85.621,108 85.621,172.808 l 0,11.988 -11.992,0 c -65.629,0 -126.41,-30.386 -172.809,-85.589 l -7.191,-8 -136.01978,0 0,-98.399 L 23.9805,127.59 0,68.4102 60,10.0117 Z M 29.6094,73.2109 43.1992,108.41 100.781,50.7891 65.5898,37.1992 29.6094,73.2109 Z M 214.41,35.6016 l -65.621,0 -11.988,11.9882 77.609,78.3982 0,-90.3864 z m 57.578,181.5974 -62.379,62.422 c 28.789,22.379 63.2,35.188 98.403,37.578 -2.422,-36.019 -15.203,-69.609 -36.024,-100 z m -107.187,22.422 c 8.008,9.57 16.801,18.399 25.59,27.188 L 256.02,201.18 c -8.008,-9.571 -17.622,-18.399 -27.231,-27.192 L 120,63.6016 54.4102,129.191 164.801,239.621 Z m -138.3908,-16.84 91.2108,0 -78.4022,-77.582 -12.0274,12 c -0.7812,0.821 -0.7812,65.582 -0.7812,65.582 z" /><path
         id="path16"
         style="fill:#0078d7;fill-opacity:1;fill-rule:nonzero;stroke:none"
         d="m 202.379,188.41 c 0,-12.808 -10.348,-23.211 -23.16,-23.211 -12.809,0 -23.199,10.403 -23.199,23.211 0,12.809 10.39,23.199 23.199,23.199 12.812,0 23.16,-10.39 23.16,-23.199 z" /></g></g></svg>