<?xml version="1.0" encoding="UTF-8" standalone="no"?>
<svg
   xmlns:dc="http://purl.org/dc/elements/1.1/"
   xmlns:cc="http://creativecommons.org/ns#"
   xmlns:rdf="http://www.w3.org/1999/02/22-rdf-syntax-ns#"
   xmlns:svg="http://www.w3.org/2000/svg"
   xmlns="http://www.w3.org/2000/svg"
   viewBox="0 0 41.25 42.5"
   height="42.5"
   width="41.25"
   xml:space="preserve"
   version="1.1"
   id="svg2"><metadata
     id="metadata8"><rdf:RDF><cc:Work
         rdf:about=""><dc:format>image/svg+xml</dc:format><dc:type
           rdf:resource="http://purl.org/dc/dcmitype/StillImage" /></cc:Work></rdf:RDF></metadata><defs
     id="defs6" /><g
     transform="matrix(1.25,0,0,-1.25,0,42.5)"
     id="g10"><g
       transform="scale(0.1,0.1)"
       id="g12"><path
         id="path14"
         style="fill:#3276bc;fill-opacity:1;fill-rule:nonzero;stroke:none"
         d="m 132.809,32.4102 -109.6098,0 0,108.7888 21.6016,0 c -2.4219,6.41 -4.0195,13.602 -4.0195,21.602 l 0,1.609 L 0,164.41 0,9.98828 l 155.199,0 0,91.21072 -22.39,0 0,-68.7888 z" /><path
         id="path16"
         style="fill:#3276bc;fill-opacity:1;fill-rule:nonzero;stroke:none"
         d="m 285.59,141.199 20,0 0,-108.7888 -109.57,0 0,68.7888 -22.43,0 0,-91.21072 155.199,0 0,154.42172 -48.789,0 c 3.98,-6.41 5.59,-13.601 5.59,-21.609 l 0,-1.602 z" /><path
         id="path18"
         style="fill:#3276bc;fill-opacity:1;fill-rule:nonzero;stroke:none"
         d="m 23.1992,206.012 0,108.789 109.6098,0 0,-63.211 c 7.191,4.808 14.382,8.789 22.39,11.211 l 0,74.418 -154.41775,0 0,-154.418 44.80855,0 c 3.1993,8.789 8,15.98 14.4102,22.39 l -36.8008,0.821 z" /><path
         id="path20"
         style="fill:#3276bc;fill-opacity:1;fill-rule:nonzero;stroke:none"
         d="m 196.02,264.41 0,50.391 109.57,0 0,-108.789 -47.192,0 c 1.602,-7.231 3.204,-14.422 3.204,-21.602 l 0,-0.82 67.187,0 0,154.41 -155.199,0 0,-71.211 5.629,0 c 5.582,0 11.172,-0.777 16.801,-2.379 z" /><path
         id="path22"
         style="fill:#3276bc;fill-opacity:1;fill-rule:nonzero;stroke:none"
         d="m 268.789,142.801 c 0,13.597 -11.168,24.808 -23.988,24.808 l -3.199,0 c 1.597,5.59 2.378,11.172 2.378,17.582 0,36.008 -28.781,65.618 -64.761,65.618 -28.828,0 -52.809,-18.399 -61.598,-44.797 -4.812,1.597 -9.609,2.379 -14.422,2.379 -24.8006,0 -43.9802,-20 -43.9802,-44.801 0,-24.809 20,-44.809 43.9802,-44.809 l 143.992,0 c 12.028,0.821 21.598,11.207 21.598,24.02" /></g></g></svg>