<?xml version="1.0" encoding="UTF-8" standalone="no"?>
<svg
   xmlns:dc="http://purl.org/dc/elements/1.1/"
   xmlns:cc="http://creativecommons.org/ns#"
   xmlns:rdf="http://www.w3.org/1999/02/22-rdf-syntax-ns#"
   xmlns:svg="http://www.w3.org/2000/svg"
   xmlns="http://www.w3.org/2000/svg"
   viewBox="0 0 47.5 48.75"
   height="48.75"
   width="47.5"
   xml:space="preserve"
   version="1.1"
   id="svg2"><metadata
     id="metadata8"><rdf:RDF><cc:Work
         rdf:about=""><dc:format>image/svg+xml</dc:format><dc:type
           rdf:resource="http://purl.org/dc/dcmitype/StillImage" /></cc:Work></rdf:RDF></metadata><defs
     id="defs6" /><g
     transform="matrix(1.25,0,0,-1.25,0,48.75)"
     id="g10"><g
       transform="scale(0.1,0.1)"
       id="g12"><path
         id="path14"
         style="fill:#0078d7;fill-opacity:1;fill-rule:evenodd;stroke:none"
         d="m 308.98,197.5 c 0,20 -30,20 -30,0 0,-20 30,-20 30,0 z M 202.5,295 c 0,20 -30,20 -30,0 0,-20 30,-20 30,0 z m 0,-201.0195 c 0,19.9995 -30,19.9995 -30,0 0,-20 30,-20 30,0 z M 99.8008,197.5 c 0,20.078 -30.1094,20.078 -30.1094,0 0,-20.078 30.1094,-20.078 30.1094,0 z M 187.5,10 c 8.98,0 18.012,3.7109 24.801,10.5117 L 365.309,171.988 c 6.679,6.723 10.472,15 10.472,24.813 0,9.679 -3.793,17.89 -10.472,24.679 L 212.301,374.488 C 205.512,381.211 196.48,385 187.5,385 c -8.98,0 -18.012,-3.789 -24.691,-10.512 L 10.5117,222.191 C 3.78906,215.512 0,206.48 0,197.5 0,188.52 3.78906,179.488 10.5117,172.699 L 162.809,20.5117 C 169.488,13.7109 178.52,10 187.5,10 Z M 229.488,89.4883 218.281,85 l -2.972,-6.8008 5.203,-8.8984 0,-1.6016 -6.801,-6.6797 -10.512,5.1914 -6.719,-3.0117 -3.671,-9.6797 0,-1.5312 -9.797,0 -4.492,11.2109 -6.719,3.0117 -8.992,-5.1914 -1.52,-0.7109 -6.801,7.3906 5.313,10.5 -3,6.8008 -9.813,3.7109 -1.476,0 0,9.8086 11.289,4.4925 3,5.968 -5.313,9.809 0,1.41 6.801,6.789 10.512,-5.269 6.719,2.972 3.781,9.797 0,1.532 9.687,0 4.492,-11.329 6.719,-2.972 9.102,5.269 1.41,0 6.801,-6.789 -5.203,-10.508 2.972,-6.679 9.731,-3.7932 1.476,0 0,-9.7305 z m 107.231,103.5237 -12.028,-4.492 -2.972,-6.801 5.269,-9.02 0.711,-1.488 -6.679,-6.723 -11.329,5.203 -6.679,-2.972 -3.012,-9.731 -0.781,-1.476 -9.731,0 -3.789,11.207 -6.719,2.972 -9.761,-5.203 -1.52,0 -6.679,6.723 5.191,10.508 -2.231,6.801 -10.46,3.671 -1.532,0 0,9.797 11.992,4.492 2.231,6.719 -5.191,10.512 6.679,6.801 11.281,-5.313 6.719,3 3.012,9.813 0.777,1.476 9.032,0 4.492,-11.289 6.679,-3 9.797,5.313 0.711,0 6.789,-6.801 -5.269,-10.512 2.972,-6.719 10.508,-3.781 1.52,0 0,-9.687 z m -107.231,97.5 -11.207,-4.492 -2.972,-6.801 5.203,-9.731 0,-0.777 -6.801,-6.723 -10.512,5.203 -6.719,-2.89 -3.671,-10.512 0,-0.777 -9.797,0 -4.492,11.289 -6.719,2.89 -8.992,-5.203 -1.52,-0.699 -6.801,6.723 5.313,11.207 -3,6.801 -9.813,2.96 -1.476,0.711 0,9.797 11.289,3.711 3,6.801 -5.313,9.801 0,1.488 6.801,6.723 10.512,-5.313 6.719,2.301 3.781,10.512 0,1.476 9.687,0 4.492,-11.289 6.719,-3 10.512,5.313 6.801,-6.723 -5.203,-11.289 2.972,-6.801 9.731,-3 1.476,-0.711 0,-8.976 z m -102.769,-97.5 -12.028,-4.492 -2.191,-6.801 5.199,-10.508 -6.679,-6.723 -11.3286,5.203 -6.6797,-2.972 -3.0117,-9.731 -0.7812,-1.476 -9.7305,0 -3.7891,11.207 -6.7187,2.972 -9.7617,-5.203 -1.5196,0 -6.6797,6.723 5.1914,10.508 -2.2304,6.801 -10.461,3.671 -1.5312,0 0,9.797 11.9922,4.492 2.2304,6.719 -5.1914,10.512 6.6797,6.801 11.2813,-5.313 6.7187,3 3.0117,9.813 0.7774,1.476 9.7305,0 3.7929,-11.289 6.6797,-3 9.7966,5.313 1.532,0 6.679,-6.801 -5.199,-10.512 2.191,-6.719 10.508,-3.781 1.52,0 0,-9.687 z" /></g></g></svg>