<?xml version="1.0" encoding="UTF-8" standalone="no"?>
<svg
   xmlns:dc="http://purl.org/dc/elements/1.1/"
   xmlns:cc="http://creativecommons.org/ns#"
   xmlns:rdf="http://www.w3.org/1999/02/22-rdf-syntax-ns#"
   xmlns:svg="http://www.w3.org/2000/svg"
   xmlns="http://www.w3.org/2000/svg"
   viewBox="0 0 27.5 46.25"
   height="46.25"
   width="27.5"
   xml:space="preserve"
   version="1.1"
   id="svg2"><metadata
     id="metadata8"><rdf:RDF><cc:Work
         rdf:about=""><dc:format>image/svg+xml</dc:format><dc:type
           rdf:resource="http://purl.org/dc/dcmitype/StillImage" /></cc:Work></rdf:RDF></metadata><defs
     id="defs6" /><g
     transform="matrix(1.25,0,0,-1.25,0,46.25)"
     id="g10"><g
       transform="scale(0.1,0.1)"
       id="g12"><path
         id="path14"
         style="fill:#0078d7;fill-opacity:1;fill-rule:nonzero;stroke:none"
         d="m 196.801,366.801 -180.7815,0 C 0,366.02 0,362.82 0,343.602 L 0,33.2109 C 0,13.9883 0,10.7813 16.0195,10 l 181.6015,0 c 15.969,0.7813 15.969,3.9883 15.969,23.2109 l 0,310.3911 c -0.781,18.398 -0.781,22.418 -16.789,23.199 z m -115.1994,-11.992 50.3864,0 c 0.821,0 1.602,-0.821 1.602,-1.598 0,-0.82 -0.781,-1.609 -1.602,-1.609 l -50.3864,0 c -0.8203,0 -1.6016,0.789 -1.6016,1.609 0,0 0,1.598 1.6016,1.598 z m 0.7773,-326.4106 -11.9883,0 c -2.3789,0 -3.9804,0.7813 -3.9804,3.2032 0,2.3867 1.6015,3.207 3.9804,3.207 l 11.9883,0 c 2.4219,0 4.0313,-0.8203 4.0313,-3.207 0,-2.4219 -1.6094,-3.2032 -4.0313,-3.2032 z m 32.8201,-2.3789 -16.8006,0 c -2.3789,0 -4.8086,0.7813 -4.8086,3.9805 0,2.3906 2.4297,3.9883 4.8086,3.9883 l 16.8006,0 c 2.422,0 4.801,-0.7774 4.801,-3.9883 0,-2.4219 -2.379,-3.9805 -4.801,-3.9805 z m 27.18,2.3789 -11.988,0 c -2.379,0 -3.981,0.7813 -3.981,2.3829 0,2.4296 1.602,2.4296 3.981,2.4296 l 11.988,0 c 2.422,0 4.031,-0.8203 4.031,-2.4296 0,-1.6016 -1.609,-2.3829 -4.031,-2.3829 z m 55.242,36.0235 c 0,-16.0235 -1.601,-20 -16.84,-20 l -148.7927,0 c -15.1875,0 -16.7891,3.9765 -16.7891,20 l 0,257.5781 c 0,16.789 1.6016,16.789 18.3906,16.789 l 145.6292,0 c 16.801,0 19.179,0 19.179,-16.789 L 197.621,64.4219 Z" /><path
         id="path16"
         style="fill:#0078d7;fill-opacity:1;fill-rule:nonzero;stroke:none"
         d="m 187.191,311.602 c 0,16.796 -2.39,16.796 -18.402,16.796 l -124.8085,0 c -16.7891,0 -18.3907,0 -18.3907,-16.796 l 0,-236.7934 c 0,-16.7969 1.6016,-19.2188 18.3907,-19.2188 l 124.8085,0 c 16.801,0 18.402,3.1993 18.402,19.2188 l 0,236.7934 z m -85.589,-174.411 -51.2114,29.61 0,59.219 51.2114,-29.61 0,-59.219 z m -46.4028,97.618 51.2108,29.613 51.211,-29.613 -51.211,-30.387 -51.2108,30.387 z m 107.1798,-68.008 -51.168,-29.61 0,59.219 51.168,29.61 0,-59.219 z" /></g></g></svg>