<?xml version="1.0" encoding="UTF-8" standalone="no"?>
<svg
   xmlns:dc="http://purl.org/dc/elements/1.1/"
   xmlns:cc="http://creativecommons.org/ns#"
   xmlns:rdf="http://www.w3.org/1999/02/22-rdf-syntax-ns#"
   xmlns:svg="http://www.w3.org/2000/svg"
   xmlns="http://www.w3.org/2000/svg"
   viewBox="0 0 43.75 40"
   height="40"
   width="43.75"
   xml:space="preserve"
   version="1.1"
   id="svg2"><metadata
     id="metadata8"><rdf:RDF><cc:Work
         rdf:about=""><dc:format>image/svg+xml</dc:format><dc:type
           rdf:resource="http://purl.org/dc/dcmitype/StillImage" /></cc:Work></rdf:RDF></metadata><defs
     id="defs6" /><g
     transform="matrix(1.25,0,0,-1.25,0,40)"
     id="g10"><g
       transform="scale(0.1,0.1)"
       id="g12"><path
         id="path14"
         style="fill:#0078d7;fill-opacity:1;fill-rule:nonzero;stroke:none"
         d="m 315.16,169.828 0,7.223 25.621,14.379 c -1.601,8.832 -3.203,16.8 -6.402,24.8 l -29.609,-0.781 c -2.391,4.813 -4.809,8.789 -7.192,12.781 l 15.192,25.622 c -5.579,6.41 -11.211,12.769 -17.61,17.578 l -15.199,-8.789 -6.41,-9.61 -13.59,-20 c 19.219,-15.191 31.211,-38.402 31.211,-63.98 0,-44.813 -36.012,-80.8205 -80.781,-80.8205 -44.801,0 -80.821,36.0075 -80.821,80.8205 0,40 28.789,73.59 67.192,80 l 6.398,24.801 -14.371,25.589 c -8.828,-1.601 -16.801,-3.992 -24.809,-6.41 l 0.79,-29.57 c -4.809,-2.422 -8.79,-4.801 -12.782,-7.231 l -25.617,15.2 c -6.41,-5.59 -12.82,-11.168 -17.582,-17.578 l 15.191,-24.801 c -3.199,-3.992 -4.8,-8.789 -7.218,-13.602 l -29.5706,0.781 c -3.2109,-8 -4.8125,-15.968 -6.4101,-24.8 l 25.5897,-14.379 0,-14.41 -25.5897,-14.411 c 1.5976,-8.789 3.9882,-16.8 6.4101,-24.769 l 29.5706,0.777 c 2.418,-4.797 4.797,-8.789 7.218,-13.59 L 108.789,85.0586 c 5.59,-6.3984 11.172,-12.8086 17.582,-18.4375 l 25.617,15.2383 c 3.992,-3.1992 8.793,-5.6289 12.782,-7.2305 l -0.79,-29.5703 c 8.008,-3.1992 15.981,-4.7969 24.809,-6.3984 l 14.371,25.5781 c 2.43,0 4.809,-0.7774 7.231,-0.7774 2.379,0 4.769,0 7.187,0.7774 l 14.41,-25.5781 c 8.793,1.6015 16.801,3.9804 24.774,6.3984 l -0.782,29.5703 c 4.801,2.4219 8.79,4.8125 12.809,7.2305 l 25.59,-15.2383 c 6.402,5.6289 12.812,11.2187 17.609,18.4375 l -15.226,25.5894 c 2.418,3.981 5.617,8.793 7.218,13.59 l 29.571,-0.777 c 3.211,7.969 4.808,15.98 6.41,24.769 l -25.582,14.411 c 0.781,2.418 0.781,4.808 0.781,7.187 z" /><path
         id="path16"
         style="fill:#0078d7;fill-opacity:1;fill-rule:nonzero;stroke:none"
         d="m 56.0195,46.7813 c -9.6093,0 -17.6211,8.0078 -17.6211,17.6171 0,9.6133 8.0118,17.6211 17.6211,17.6211 9.5703,0 17.5703,-8.0078 17.5703,-17.6211 0,-9.6093 -8,-17.6171 -17.5703,-17.6171 z m 34.3711,62.4177 -14.3711,-7.179 -8.8281,3.98 -5.5898,15.199 -12.8125,0 L 43.9805,106 35.1992,102.02 20.7813,109.199 11.9883,100.41 19.2188,86 15.1992,77.2109 0,71.5898 0,58.8086 l 15.1992,-4.7969 4.0196,-8.7929 -7.2305,-14.418 8.793,-8.7813 14.4179,7.1797 8.7813,-3.9804 5.6289,-15.23833 12.7695,0 4.8125,15.23833 8.8281,3.9804 14.3711,-7.1797 8.8282,8.7813 -7.2305,14.418 4.0312,8.7929 15.1915,5.5781 0,12.8204 -15.1915,4.8007 -4.0312,8.7891 7.2305,14.41 -8.8282,8.789 z" /><path
         id="path18"
         style="fill:#0078d7;fill-opacity:1;fill-rule:nonzero;stroke:none"
         d="M 226.719,317.328 221.91,302.129 205.898,250.922 181.09,173.34 c -0.781,-1.602 0,-2.418 1.609,-2.418 l 22.422,0 c 0.777,0 1.598,0 1.598,-0.781 0.781,-0.821 0.781,-1.602 0.781,-2.422 l -23.199,-56.797 c -0.781,-1.602 0,-1.602 0.82,-0.781 l 73.59,83.199 c 0.777,1.609 0.777,2.39 -0.82,2.39 l -28.789,0 c -1.602,0 -2.383,0.821 -1.602,2.379 l 23.199,40.821 24.813,44.8 8.008,13.598 c -16.801,11.211 -36.02,17.621 -56.801,20 z" /></g></g></svg>