<?xml version="1.0" encoding="UTF-8" standalone="no"?>
<svg
   xmlns:dc="http://purl.org/dc/elements/1.1/"
   xmlns:cc="http://creativecommons.org/ns#"
   xmlns:rdf="http://www.w3.org/1999/02/22-rdf-syntax-ns#"
   xmlns:svg="http://www.w3.org/2000/svg"
   xmlns="http://www.w3.org/2000/svg"
   viewBox="0 0 47.5 41.25"
   height="41.25"
   width="47.5"
   xml:space="preserve"
   version="1.1"
   id="svg2"><metadata
     id="metadata8"><rdf:RDF><cc:Work
         rdf:about=""><dc:format>image/svg+xml</dc:format><dc:type
           rdf:resource="http://purl.org/dc/dcmitype/StillImage" /></cc:Work></rdf:RDF></metadata><defs
     id="defs6" /><g
     transform="matrix(1.25,0,0,-1.25,0,41.25)"
     id="g10"><g
       transform="scale(0.1,0.1)"
       id="g12"><path
         id="path14"
         style="fill:#0072c6;fill-opacity:1;fill-rule:evenodd;stroke:none"
         d="m 338.121,235.219 c 0.199,2.691 0.399,5.39 0.399,8.203 0,43.59 -35.899,79.098 -79.891,79.098 -26.09,0 -50.109,-12.5 -64.918,-33.008 -9.492,5.898 -20.473,9.097 -31.992,9.097 -31.289,0 -57.188,-23.898 -60.078,-54.179 4.879,0.59 9.769,1.101 14.769,1.101 23.121,0 45.309,-7.5 63.512,-20.82 13.598,31.398 48.199,51.519 86.598,52.687 l 0,26.84 46.8,-40.117 -46.8,-39.883 0,26.293 c -21.989,-0.902 -43.399,-9.101 -55.782,-29.101 l 2.5,0.191 c 44.774,0 81.801,-33.512 86.992,-76.402 10.59,-8.008 18.989,-17.578 25,-28.598 28.989,7.809 49.809,32.809 49.809,63.399 0,24.609 -13.32,44.218 -36.918,55.199 z" /><path
         id="path16"
         style="fill:#0072c6;fill-opacity:1;fill-rule:evenodd;stroke:none"
         d="m 36.9102,131.309 c -0.3086,2.691 -0.4297,5.511 -0.4297,8.203 0,43.597 35.8984,78.988 79.9295,78.988 26.09,0 50.07,-12.5 64.879,-32.891 9.492,5.891 20.43,8.981 31.992,8.981 33.199,0 60.309,-26.801 60.309,-59.801 l -0.07,-4.809 C 296.02,118.609 308.09,99.7891 308.09,76.1094 308.09,39 277.891,9.98047 239.301,9.98047 l -170.3908,0 C 30.1992,9.98047 0,39 0,76.1094 0,100.609 13.2813,120.289 36.9102,131.309 Z" /></g></g></svg>