<?xml version="1.0" encoding="UTF-8" standalone="no"?>
<svg
   xmlns:dc="http://purl.org/dc/elements/1.1/"
   xmlns:cc="http://creativecommons.org/ns#"
   xmlns:rdf="http://www.w3.org/1999/02/22-rdf-syntax-ns#"
   xmlns:svg="http://www.w3.org/2000/svg"
   xmlns="http://www.w3.org/2000/svg"
   viewBox="0 0 45 46.25"
   height="46.25"
   width="45"
   xml:space="preserve"
   version="1.1"
   id="svg2"><metadata
     id="metadata8"><rdf:RDF><cc:Work
         rdf:about=""><dc:format>image/svg+xml</dc:format><dc:type
           rdf:resource="http://purl.org/dc/dcmitype/StillImage" /></cc:Work></rdf:RDF></metadata><defs
     id="defs6" /><g
     transform="matrix(1.25,0,0,-1.25,0,46.25)"
     id="g10"><g
       transform="scale(0.1,0.1)"
       id="g12"><path
         id="path14"
         style="fill:#0070c0;fill-opacity:1;fill-rule:evenodd;stroke:none"
         d="m 155.59,220.68 -51.488,51.601 c -4.3012,4.34 -11.2934,4.34 -15.5825,0 -4.3398,-4.293 -4.3398,-11.281 0,-15.582 l 51.6015,-51.488 c -6.883,-12.262 -6.883,-27.223 0,-39.531 L 88.5195,114.078 c -4.3007,-4.258 -4.3007,-11.207 0,-15.4686 4.2891,-4.3281 11.2813,-4.3281 15.5825,0 l 51.488,51.6016 c 12.262,-6.871 27.219,-6.871 39.531,0 l 51.598,-51.6016 c 4.261,-4.2891 11.211,-4.2891 15.472,0 4.289,4.2616 4.289,11.2106 0,15.4686 L 210.59,165.68 c 6.871,12.308 6.871,27.269 0,39.531 l 51.601,51.488 c 4.329,4.301 4.329,11.289 0,15.582 -4.261,4.297 -11.211,4.297 -15.472,0 L 195.121,220.68 c -12.312,6.879 -27.269,6.879 -39.531,0 z m 168.121,-35.27 c 1.168,82.539 -65.59,150.078 -148.32,150.078 C 92.6602,335.488 25.9414,267.949 27.1094,185.41 25.9414,102.871 92.6602,35.3281 175.391,35.3281 c 82.73,0 149.488,67.5429 148.32,150.0819 z M 31.8008,10.0195 l 287.1792,0 c 17.579,0 31.801,14.2188 31.801,31.8008 l 0,287.1797 c 0,17.578 -14.222,31.801 -31.801,31.801 l -287.1792,0 C 14.2188,360.801 0,346.578 0,329 L 0,41.8203 C 0,24.2383 14.2188,10.0195 31.8008,10.0195 Z M 330.121,185.41 C 330.781,99.6289 261.289,29.75 175.352,29.75 89.4102,29.75 19.9219,99.6289 20.5898,185.41 c -0.6679,85.738 68.8204,155.621 154.7622,155.621 85.937,0 155.429,-69.883 154.769,-155.621 z M 241.41,150.102 c 11.789,22.07 11.789,48.546 0,70.578 l -20.711,-20.66 c 3.051,-9.489 3.051,-19.731 0,-29.219 L 241.41,150.102 Z M 140.121,119.391 c 22.027,-11.789 48.508,-11.789 70.578,0 L 190,140.102 c -9.488,-3.051 -19.73,-3.051 -29.219,0 l -20.66,-20.711 z M 109.41,220.68 c -11.7889,-22.032 -11.7889,-48.508 0,-70.578 l 20.711,20.699 c -3.09,9.488 -3.09,19.73 0,29.219 l -20.711,20.66 z m 27.969,33.398 c 23.672,13.012 52.351,13.051 76.019,0.121 l 23.793,23.711 c 8.469,8.481 22.219,8.481 30.7,0 8.48,-8.48 8.48,-22.23 0,-30.699 l -23.481,-23.52 c 13.32,-23.75 13.32,-52.73 0,-76.48 l 23.481,-23.52 c 8.558,-8.48 8.558,-22.3 0,-30.7808 -8.481,-8.4805 -22.231,-8.4805 -30.7,0 L 213.398,116.699 C 189.73,103.77 161.051,103.809 137.379,116.82 L 113.59,92.9102 c -8.469,-8.4805 -22.2189,-8.4805 -30.6994,0 -8.5117,8.4808 -8.5117,22.3008 0,30.7808 l 23.7114,23.707 c -13.2036,23.672 -13.2036,52.422 0,76.102 l -23.7114,23.711 c -8.4804,8.469 -8.4804,22.219 0,30.699 8.4805,8.481 22.2304,8.481 30.6994,0 l 23.789,-23.832 z m 23.402,-23.398 c 9.489,3.09 19.731,3.09 29.219,0 l 20.699,20.711 c -22.07,11.789 -48.551,11.789 -70.578,0 l 20.66,-20.711 z" /></g></g></svg>