<?xml version="1.0" encoding="UTF-8" standalone="no"?>
<svg
   xmlns:dc="http://purl.org/dc/elements/1.1/"
   xmlns:cc="http://creativecommons.org/ns#"
   xmlns:rdf="http://www.w3.org/1999/02/22-rdf-syntax-ns#"
   xmlns:svg="http://www.w3.org/2000/svg"
   xmlns="http://www.w3.org/2000/svg"
   viewBox="0 0 42.5 42.5"
   height="42.5"
   width="42.5"
   xml:space="preserve"
   version="1.1"
   id="svg2"><metadata
     id="metadata8"><rdf:RDF><cc:Work
         rdf:about=""><dc:format>image/svg+xml</dc:format><dc:type
           rdf:resource="http://purl.org/dc/dcmitype/StillImage" /></cc:Work></rdf:RDF></metadata><defs
     id="defs6" /><g
     transform="matrix(1.25,0,0,-1.25,0,42.5)"
     id="g10"><g
       transform="scale(0.1,0.1)"
       id="g12"><path
         id="path14"
         style="fill:#006fd4;fill-opacity:1;fill-rule:nonzero;stroke:none"
         d="m 33.5898,260.398 113.59,0 0,22.3828 -113.59,0 0,-22.3828 z" /><path
         id="path16"
         style="fill:#006fd4;fill-opacity:1;fill-rule:nonzero;stroke:none"
         d="m 33.5898,225.988 113.59,0 0,22.4219 -113.59,0 0,-22.4219 z" /><path
         id="path18"
         style="fill:#006fd4;fill-opacity:1;fill-rule:nonzero;stroke:none"
         d="m 33.5898,192.398 113.59,0 0,22.4219 -113.59,0 0,-22.4219 z" /><path
         id="path20"
         style="fill:#006fd4;fill-opacity:1;fill-rule:nonzero;stroke:none"
         d="m 181.602,325.211 c 0,5.578 -8.012,13.59 -13.59,13.59 l -159.22294,0 C 3.19922,338.801 0,330.789 0,325.211 L 0,166.809 C 0,162 3.19922,158.02 8.78906,158.02 l 159.99994,0 c 5.621,0 12.813,4.761 12.813,8.789 l 0,158.402 z m -23.204,-144.813 -136.0191,0 0,113.602 136.0191,0 0,-113.602 z" /><path
         id="path22"
         style="fill:#006fd4;fill-opacity:1;fill-rule:nonzero;stroke:none"
         d="m 294.41,142 c 0,2.391 -2.422,4.809 -4.801,4.809 l -80,0 c -2.418,0 -4.808,-2.418 -4.808,-4.809 l 0,-80.8203 c 0,-2.3789 2.39,-4.7578 4.808,-4.7578 l 80.782,0 c 2.418,0 4.808,2.3789 4.808,4.7578 L 294.41,142 Z m -11.211,-75.1914 -68,0 0,56.7934 68,0 0,-56.7934 z" /><path
         id="path24"
         style="fill:#006fd4;fill-opacity:1;fill-rule:nonzero;stroke:none"
         d="m 226.41,101.18 45.5898,0 0,11.2109 -45.5898,0 0,-11.2109 z" /><path
         id="path26"
         style="fill:#006fd4;fill-opacity:1;fill-rule:nonzero;stroke:none"
         d="m 263.98,202.781 c 0,0 8.008,61.61 -48.781,73.641 l -12.82,0 c -7.18,0 -10.391,-2.422 -10.391,-2.422 l 0,-24.809 c 0,0 2.422,2.418 11.211,2.418 5.59,0 10.391,0 11.211,-0.82 13.602,-4.801 26.371,-13.59 23.988,-48.008 l -23.988,0 38.399,-47.961 37.582,47.961 -26.411,0 z" /><path
         id="path28"
         style="fill:#006fd4;fill-opacity:1;fill-rule:nonzero;stroke:none"
         d="m 312.809,123.602 -7.219,0 0,-79.2114 -79.18,0 0,-7.1914 c 0,-2.3789 2.379,-4.8086 4.801,-4.8086 l 80.777,0 c 2.422,0 4.813,2.4297 4.813,4.8086 l 0,80.8208 c 0.82,3.16 -1.602,5.582 -3.992,5.582 z" /><path
         id="path30"
         style="fill:#006fd4;fill-opacity:1;fill-rule:nonzero;stroke:none"
         d="m 335.199,101.18 -7.187,0 0,-79.18 -78.403,0 0,-7.1797 c 0,-2.4297 2.379,-4.8086 4.801,-4.8086 l 80.789,0 c 2.422,0 4.801,2.3789 4.801,4.8086 l 0,80.7813 c 0,3.1992 -2.379,5.5784 -4.801,5.5784 z" /></g></g></svg>