<?xml version="1.0" encoding="UTF-8" standalone="no"?>
<svg
   xmlns:dc="http://purl.org/dc/elements/1.1/"
   xmlns:cc="http://creativecommons.org/ns#"
   xmlns:rdf="http://www.w3.org/1999/02/22-rdf-syntax-ns#"
   xmlns:svg="http://www.w3.org/2000/svg"
   xmlns="http://www.w3.org/2000/svg"
   viewBox="0 0 38.75 27.5"
   height="27.5"
   width="38.75"
   xml:space="preserve"
   version="1.1"
   id="svg2"><metadata
     id="metadata8"><rdf:RDF><cc:Work
         rdf:about=""><dc:format>image/svg+xml</dc:format><dc:type
           rdf:resource="http://purl.org/dc/dcmitype/StillImage" /></cc:Work></rdf:RDF></metadata><defs
     id="defs6" /><g
     transform="matrix(1.25,0,0,-1.25,0,27.5)"
     id="g10"><g
       transform="scale(0.1,0.1)"
       id="g12"><path
         id="path14"
         style="fill:#0078d7;fill-opacity:1;fill-rule:nonzero;stroke:none"
         d="m 223.98,109.219 c 0,10.39 8.008,18.39 17.622,19.179 l 47.187,0 c 10.43,0 19.223,-8.789 19.223,-19.179 C 308.012,98.7891 299.219,90 288.789,90 l -47.187,0 c -9.614,0.8203 -17.622,8.7891 -17.622,19.219 z" /><path
         id="path16"
         style="fill:#0078d7;fill-opacity:1;fill-rule:nonzero;stroke:none"
         d="m 129.609,110.82 c 0,21.602 17.582,38.399 38.403,38.399 21.597,0 38.398,-17.617 38.398,-38.399 C 206.41,90 188.789,72.4219 168.012,72.4219 147.191,71.6016 129.609,89.2188 129.609,110.82 Z M 18.3984,90 64.8008,90 c 1.6094,0 3.2109,0 3.9883,0.8203 C 78.3984,44.4102 119.219,10 168.012,10 c 27.187,0 51.207,10.3906 69.609,28 3.16,3.2109 5.578,8.0117 5.578,13.6016 0,10.3867 -8.789,19.2187 -19.219,19.2187 -3.199,0 -6.359,-0.8203 -8.781,-2.4219 -2.39,-2.3867 -4.808,-4.8086 -7.187,-6.4101 -11.211,-8.7891 -24.813,-14.3789 -40,-14.3789 -35.203,0 -64.032,28.789 -64.032,63.9926 0,35.187 28.829,63.976 64.032,63.976 17.578,0 33.59,-7.18 44.797,-18.398 l 3.992,-3.981 c 3.199,-2.379 7.179,-3.98 11.988,-3.98 10.43,0 19.223,8.781 19.223,19.179 0,3.204 -0.821,6.403 -2.422,8.782 -2.391,2.429 -3.988,4.808 -6.371,7.23 -18.438,17.578 -43.199,28.789 -71.207,28.789 -50.391,0 -91.9925,-36.801 -100.0003,-84.801 l -50.3906,0 C 8.01172,127.609 0,119.609 0,109.219 0.78125,98.7891 8.78906,90.8203 18.3984,90 Z" /></g></g></svg>