<?xml version="1.0" encoding="UTF-8" standalone="no"?>
<svg
   xmlns:dc="http://purl.org/dc/elements/1.1/"
   xmlns:cc="http://creativecommons.org/ns#"
   xmlns:rdf="http://www.w3.org/1999/02/22-rdf-syntax-ns#"
   xmlns:svg="http://www.w3.org/2000/svg"
   xmlns="http://www.w3.org/2000/svg"
   viewBox="0 0 47.5 51.25"
   height="51.25"
   width="47.5"
   xml:space="preserve"
   version="1.1"
   id="svg2"><metadata
     id="metadata8"><rdf:RDF><cc:Work
         rdf:about=""><dc:format>image/svg+xml</dc:format><dc:type
           rdf:resource="http://purl.org/dc/dcmitype/StillImage" /></cc:Work></rdf:RDF></metadata><defs
     id="defs6" /><g
     transform="matrix(1.25,0,0,-1.25,0,51.25)"
     id="g10"><g
       transform="scale(0.1,0.1)"
       id="g12"><path
         id="path14"
         style="fill:#0078d7;fill-opacity:1;fill-rule:nonzero;stroke:none"
         d="M 216.02,314.809 C 216.02,296.691 201.68,282 183.98,282 c -17.652,0 -31.992,14.691 -31.992,32.809 0,18.089 14.34,32.781 31.992,32.781 17.7,0 32.04,-14.692 32.04,-32.781 z" /><path
         id="path16"
         style="fill:#0078d7;fill-opacity:1;fill-rule:nonzero;stroke:none"
         d="m 373.59,251.609 0,-102.418 c 0,-17.582 -7.18,-34.382 -21.602,-47.191 -13.59,-11.9883 -31.207,-19.2187 -50.386,-19.2187 l -48.012,0 c -7.18,0 -12.809,5.6289 -12.809,12.8085 0,7.1912 5.629,12.8202 12.809,12.8202 l 48.012,0 c 12.808,0 23.988,3.981 32.808,11.988 7.969,7.192 12.781,17.622 12.781,28.012 l 0,103.199 c 0,25.59 -17.582,46.411 -40,46.411 l -40,0 C 263.98,281.219 256.02,265.98 243.98,253.988 228.012,238.02 206.41,228.41 183.199,228.41 c -23.199,0 -44.801,8.789 -60.82,25.578 -4.758,4.813 -4.758,13.602 0,18.403 4.812,4.808 13.641,4.808 18.402,0 11.207,-11.172 26.41,-17.582 42.418,-17.582 16.02,0 31.211,6.41 42.391,17.582 10.43,10.39 16.012,24.019 17.609,38.398 l 0,4.801 c 0,16.019 -6.398,31.211 -17.609,42.43 -11.18,11.171 -26.371,17.57 -42.391,17.57 -16.008,0 -31.211,-6.399 -42.418,-17.57 -4.761,-4.809 -13.59,-4.809 -18.402,0 -4.758,4.761 -4.758,13.589 0,18.39 16.019,15.981 37.621,25.59 60.82,25.59 23.211,0 44.813,-8.789 60.781,-25.59 14.418,-14.41 22.43,-32.808 24.809,-52.031 l 38.402,0 c 37.61,-0.777 66.399,-32.77 66.399,-72.77 z" /><path
         id="path18"
         style="fill:#0078d7;fill-opacity:1;fill-rule:nonzero;stroke:none"
         d="m 221.602,96.4102 c 0,-18.1211 -14.332,-32.8086 -31.993,-32.8086 -17.699,0 -31.988,14.6875 -31.988,32.8086 0,18.0898 14.289,32.7808 31.988,32.7808 17.661,0 31.993,-14.691 31.993,-32.7808 z" /><path
         id="path20"
         style="fill:#0078d7;fill-opacity:1;fill-rule:nonzero;stroke:none"
         d="M 0,159.621 0,262 c 0,17.621 7.19141,34.41 21.6016,47.191 13.5976,12.028 31.207,19.219 50.3867,19.219 l 48.0117,0 c 7.191,0 12.809,-5.629 12.809,-12.82 0,-7.18 -5.618,-12.809 -12.809,-12.809 l -48.0117,0 c -12.7695,0 -23.9766,-3.98 -32.7695,-11.992 -8.0079,-7.187 -12.8086,-17.578 -12.8086,-28.008 l 0,-102.383 c 0,-25.589 17.5703,-46.41 40,-46.41 l 39.9998,0 c 3.199,16.801 11.211,31.992 23.199,44.032 15.981,15.968 37.582,25.582 60.782,25.582 23.199,0 44.808,-8.793 60.82,-25.582 4.809,-4.809 4.809,-13.641 0,-18.399 -4.801,-4.812 -13.59,-4.812 -18.402,0 -11.207,11.168 -26.399,17.578 -42.418,17.578 -15.981,0 -31.172,-6.41 -42.379,-17.578 -10.391,-10.43 -16.024,-24.031 -17.621,-38.402 l 0,-4.8088 c 0,-16.0118 6.41,-31.211 17.621,-42.4219 11.207,-11.207 26.398,-17.5781 42.379,-17.5781 16.019,0 31.211,6.3711 42.418,17.5781 4.812,4.8125 13.601,4.8125 18.402,0 4.809,-4.7969 4.809,-13.5899 0,-18.3985 -16.012,-15.9687 -37.621,-25.5781 -60.82,-25.5781 -23.2,0 -44.801,8.7891 -60.782,25.5781 -14.41,14.4219 -22.418,32.8204 -24.808,52 l -39.2112,0 C 29.6094,87.5898 0,119.621 0,159.621 Z" /></g></g></svg>