<?xml version="1.0" encoding="UTF-8" standalone="no"?>
<svg
   xmlns:dc="http://purl.org/dc/elements/1.1/"
   xmlns:cc="http://creativecommons.org/ns#"
   xmlns:rdf="http://www.w3.org/1999/02/22-rdf-syntax-ns#"
   xmlns:svg="http://www.w3.org/2000/svg"
   xmlns="http://www.w3.org/2000/svg"
   viewBox="0 0 43.75 43.75"
   height="43.75"
   width="43.75"
   xml:space="preserve"
   version="1.1"
   id="svg2"><metadata
     id="metadata8"><rdf:RDF><cc:Work
         rdf:about=""><dc:format>image/svg+xml</dc:format><dc:type
           rdf:resource="http://purl.org/dc/dcmitype/StillImage" /></cc:Work></rdf:RDF></metadata><defs
     id="defs6" /><g
     transform="matrix(1.25,0,0,-1.25,0,43.75)"
     id="g10"><g
       transform="scale(0.1,0.1)"
       id="g12"><path
         id="path14"
         style="fill:#0078d7;fill-opacity:1;fill-rule:nonzero;stroke:none"
         d="m 202.27,183.488 c 0,16.801 -13.598,30.391 -30.391,30.391 -16.801,0 -30.43,-13.59 -30.43,-30.391 0,-16.797 13.629,-30.429 30.43,-30.429 16.793,0 30.391,13.632 30.391,30.429 z" /><path
         id="path16"
         style="fill:#0078d7;fill-opacity:1;fill-rule:nonzero;stroke:none"
         d="m 293.59,237.078 c 1.609,6.41 2.43,13.602 2.43,20.82 0,45.59 -36.02,82.391 -80,82.391 -33.641,0 -61.61,-20.777 -74.418,-50.391 -10.391,12.774 -26.403,20.782 -43.2036,20.782 -31.207,0 -56.7968,-26.41 -56.7968,-58.399 0,-5.59 0.7773,-11.211 2.3789,-15.98 C 18.3984,226.691 0,204.27 0,174.699 c 0,-37.621 30.3906,-67.23 67.1914,-67.23 l 96.7886,0 0,28.832 c -11.992,1.597 -23.199,7.969 -30.39,17.578 l -25.578,-15.199 10.386,-17.61 -40.7769,8.008 13.5898,40.82 10.3911,-18.398 25.589,14.371 c -2.39,5.629 -3.992,12.027 -3.992,18.399 0,6.41 1.602,12.031 3.211,17.621 L 100,217.078 89.6094,198.68 l -13.5899,40.832 40.7815,6.359 -9.61,-16.793 26.399,-15.199 c 7.191,9.609 18.398,16.801 31.211,18.402 l 0,29.61 -18.391,0 25.578,31.211 27.231,-31.211 -20,0 0,-29.61 c 12.769,-1.601 23.98,-8.793 31.172,-18.402 l 26.41,15.199 -10.391,17.613 40.781,-8.011 -17.582,-40 -5.629,18.398 -26.359,-15.187 c 2.379,-5.59 3.16,-11.211 3.16,-17.621 0,-6.372 -1.562,-11.989 -3.16,-17.579 l 26.359,-15.191 11.219,20 11.992,-42.422 -41.601,-9.566 11.211,19.168 -26.41,15.199 c -7.192,-9.609 -19.18,-16.801 -31.993,-18.399 l 0,-28.789 96.012,0 c 36.801,0 67.192,29.61 67.192,67.188 -0.821,30.391 -20.821,54.41 -48.012,63.199 z" /><path
         id="path18"
         style="fill:#0078d7;fill-opacity:1;fill-rule:nonzero;stroke:none"
         d="m 178.238,63.6094 0,43.1996 -14.41,0 0,-44.0199 c -11.168,-3.211 -20,-13.5977 -20,-25.5899 0,-15.1875 11.992,-27.1875 27.223,-27.1875 14.379,0 27.187,12 27.187,27.1875 0,12.8125 -8.008,23.1992 -20,26.4102 z" /></g></g></svg>