<?xml version="1.0" encoding="UTF-8" standalone="no"?>
<svg
   xmlns:dc="http://purl.org/dc/elements/1.1/"
   xmlns:cc="http://creativecommons.org/ns#"
   xmlns:rdf="http://www.w3.org/1999/02/22-rdf-syntax-ns#"
   xmlns:svg="http://www.w3.org/2000/svg"
   xmlns="http://www.w3.org/2000/svg"
   viewBox="0 0 37.5 42.5"
   height="42.5"
   width="37.5"
   xml:space="preserve"
   version="1.1"
   id="svg2"><metadata
     id="metadata8"><rdf:RDF><cc:Work
         rdf:about=""><dc:format>image/svg+xml</dc:format><dc:type
           rdf:resource="http://purl.org/dc/dcmitype/StillImage" /></cc:Work></rdf:RDF></metadata><defs
     id="defs6" /><g
     transform="matrix(1.25,0,0,-1.25,0,42.5)"
     id="g10"><g
       transform="scale(0.1,0.1)"
       id="g12"><path
         id="path14"
         style="fill:#0078d7;fill-opacity:1;fill-rule:nonzero;stroke:none"
         d="m 39.2188,299.441 c 0,11.207 35.9804,20 80.7812,20 44.801,0 80.781,-8.793 80.781,-20 0,-11.179 -35.98,-20 -80.781,-20 -44.8008,0 -80.7812,8.821 -80.7812,20 z m 71.9922,-269.5699 0,193.5899 c 0,23.98 37.578,35.199 92.769,35.199 12.821,0 24.809,-0.82 36.02,-2.39 l 0,43.171 c 0,20.821 -53.59,37.61 -120,37.61 -66.4102,0 -120,-16.789 -120,-37.61 L 0,49.8711 C 0,29.0508 53.5898,12.25 120,12.25 l 8.012,0 c -10.391,5.5898 -16.801,11.2109 -16.801,17.6211 z" /><path
         id="path16"
         style="fill:#0078d7;fill-opacity:1;fill-rule:nonzero;stroke:none"
         d="m 207.539,197.211 c -31.988,0 -58.398,6.41 -58.398,14.379 0,8 26.41,14.41 58.398,14.41 32.031,0 58.402,-6.41 58.402,-14.41 0,-7.969 -25.589,-14.379 -58.402,-14.379 z m 51.211,-80.82 -106.41,-88.0121 40.82,68.0117 -36.012,0 106.403,88.0074 -40.821,-68.007 36.02,0 z m -51.211,127.23 c -47.187,0 -83.199,-12.031 -83.199,-26.41 l 0,-179.2227 c 0,-15.1875 35.23,-28.00783 83.199,-28.00783 47.231,0 86.41,12.03123 86.41,27.23043 l 0,179.1801 c 0,15.199 -38.398,27.23 -86.41,27.23 z" /></g></g></svg>