<?xml version="1.0" encoding="UTF-8" standalone="no"?>
<svg
   xmlns:dc="http://purl.org/dc/elements/1.1/"
   xmlns:cc="http://creativecommons.org/ns#"
   xmlns:rdf="http://www.w3.org/1999/02/22-rdf-syntax-ns#"
   xmlns:svg="http://www.w3.org/2000/svg"
   xmlns="http://www.w3.org/2000/svg"
   viewBox="0 0 45 38.75"
   height="38.75"
   width="45"
   xml:space="preserve"
   version="1.1"
   id="svg2"><metadata
     id="metadata8"><rdf:RDF><cc:Work
         rdf:about=""><dc:format>image/svg+xml</dc:format><dc:type
           rdf:resource="http://purl.org/dc/dcmitype/StillImage" /></cc:Work></rdf:RDF></metadata><defs
     id="defs6" /><g
     transform="matrix(1.25,0,0,-1.25,0,38.75)"
     id="g10"><g
       transform="scale(0.1,0.1)"
       id="g12"><path
         id="path14"
         style="fill:#0078d7;fill-opacity:1;fill-rule:nonzero;stroke:none"
         d="m 174.02,148.25 c 18.402,9.57 26.371,32.77 16.8,51.172 -9.609,18.398 -32.808,25.629 -51.211,16.797 -18.398,-9.571 -26.41,-32.77 -16.8,-51.168 9.613,-19.223 32.812,-26.41 51.211,-16.801 z M 150,193.84 c 7.191,3.199 15.199,0.781 19.219,-6.41 3.203,-7.192 0.781,-15.2 -6.41,-18.399 -7.188,-3.203 -15.188,-0.781 -18.399,6.41 -4.019,6.399 -0.82,15.188 5.59,18.399 z" /><path
         id="path16"
         style="fill:#0078d7;fill-opacity:1;fill-rule:nonzero;stroke:none"
         d="m 335.199,267.59 -2.39,0 c 0,10.43 -7.219,18.39 -16.008,18.39 l -4.813,0 c 0,8.829 -6.398,16.02 -13.59,16.02 L 13.5898,302 C 6.41016,302 0,294.809 0,285.98 L 0,65.1992 C 0,56.4102 6.41016,49.1914 13.5898,49.1914 l 2.4297,0 0,-2.3906 c 0,-10.3906 7.1797,-18.3906 15.9688,-18.3906 l 2.4219,0 c 0,-10.3907 7.1914,-18.3985 15.9804,-18.3985 l 284.8084,0 c 8.781,0 16.012,8.0078 16.012,18.3985 l 0,220.7808 c 0.777,10.43 -7.231,18.399 -16.012,18.399 z M 79.2188,210.789 93.5898,233.988 113.59,225.98 c 3.211,2.43 6.41,5.629 9.609,7.231 L 120,255.59 l 26.41,7.191 8.789,-20 c 4.801,0 10.391,-0.781 15.192,-1.562 l 14.41,17.582 23.211,-14.422 -8.793,-20.777 c 3.16,-3.204 5.582,-6.403 7.972,-10.391 l 23.2,2.379 6.41,-26.399 -20.781,-8.793 c 0,-4.808 -0.821,-8.789 -1.61,-13.597 l 17.578,-14.41 -14.367,-23.2 -20,8.008 c -3.211,-3.211 -7.23,-6.41 -11.211,-8.789 l 2.379,-22.43 -26.41,-6.3589 -7.969,19.9999 c -4.801,0 -9.609,0.777 -14.41,1.598 l -13.59,-17.617 -23.211,14.418 8.012,19.179 c -3.199,3.199 -6.41,7.18 -8.832,11.992 l -21.5977,-2.39 -6.3711,26.41 19.1796,8.008 c 0,4.761 0.8204,9.57 2.4297,14.371 l -16.8007,15.199 z m -42.418,-177.5781 -4.8125,0 c -6.3985,0 -11.207,5.5899 -11.207,13.5899 l 0,2.3906 277.6167,0 c 7.192,0 13.59,7.2188 13.59,16.0078 l 0,216.0198 4.813,0 c 6.398,0 11.211,-5.629 11.211,-13.629 l 0,-220.7892 c 0,-7.1797 -4.813,-13.5899 -11.211,-13.5899 l -280.0002,0 z M 346.41,28.4102 c 0,-7.1914 -4.808,-13.6016 -11.211,-13.6016 l -284.8084,0 c -6.4101,0 -11.1718,5.5898 -11.1718,13.6016 l 277.5822,0 c 8.789,0 16.008,8 16.008,18.3906 l 0,215.9802 2.39,0 c 6.403,0 11.211,-6.371 11.211,-13.59 l 0,-220.7808 z" /></g></g></svg>