<?xml version="1.0" encoding="UTF-8" standalone="no"?>
<svg
   xmlns:dc="http://purl.org/dc/elements/1.1/"
   xmlns:cc="http://creativecommons.org/ns#"
   xmlns:rdf="http://www.w3.org/1999/02/22-rdf-syntax-ns#"
   xmlns:svg="http://www.w3.org/2000/svg"
   xmlns="http://www.w3.org/2000/svg"
   viewBox="0 0 45 38.75"
   height="38.75"
   width="45"
   xml:space="preserve"
   version="1.1"
   id="svg2"><metadata
     id="metadata8"><rdf:RDF><cc:Work
         rdf:about=""><dc:format>image/svg+xml</dc:format><dc:type
           rdf:resource="http://purl.org/dc/dcmitype/StillImage" /></cc:Work></rdf:RDF></metadata><defs
     id="defs6" /><g
     transform="matrix(1.25,0,0,-1.25,0,38.75)"
     id="g10"><g
       transform="scale(0.1,0.1)"
       id="g12"><path
         id="path14"
         style="fill:#0078d7;fill-opacity:1;fill-rule:nonzero;stroke:none"
         d="m 203.98,183.602 c -0.781,13.597 -3.199,26.41 -8.781,37.617 -11.219,-4.809 -23.988,-7.231 -36.801,-8.008 l 0,-29.609 45.582,0 z" /><path
         id="path16"
         style="fill:#0078d7;fill-opacity:1;fill-rule:nonzero;stroke:none"
         d="m 191.988,227.59 c -8.008,14.41 -20,24.019 -33.59,25.621 l 0,-32.813 c 12.813,0 23.981,2.383 33.59,7.192 z" /><path
         id="path18"
         style="fill:#0078d7;fill-opacity:1;fill-rule:nonzero;stroke:none"
         d="m 206.41,235.59 c -5.629,5.629 -12,9.609 -18.398,12.82 4.797,-4.808 8.789,-10.39 12.769,-16.801 2.418,1.602 4.02,2.379 5.629,3.981 z" /><path
         id="path20"
         style="fill:#0078d7;fill-opacity:1;fill-rule:nonzero;stroke:none"
         d="m 191.988,130.789 c -9.609,4.02 -21.597,6.41 -33.59,7.231 l 0,-32.821 c 13.59,1.602 25.582,11.211 33.59,25.59 z" /><path
         id="path22"
         style="fill:#0078d7;fill-opacity:1;fill-rule:nonzero;stroke:none"
         d="m 158.398,145.98 c 13.59,-0.781 26.403,-3.199 36.801,-7.96 4.801,10.39 8,23.199 8.781,36.789 l -45.582,0 0,-28.829 z" /><path
         id="path24"
         style="fill:#0078d7;fill-opacity:1;fill-rule:nonzero;stroke:none"
         d="m 211.988,230.012 -7.187,-4.813 c 5.59,-11.988 8.789,-26.398 9.609,-41.597 l 16.801,0 c -0.82,16.796 -7.231,33.597 -19.223,46.41 z" /><path
         id="path26"
         style="fill:#0078d7;fill-opacity:1;fill-rule:nonzero;stroke:none"
         d="m 188.012,110.012 c 6.398,3.199 12.769,7.187 18.398,12.769 -1.609,1.598 -4.031,2.418 -5.629,4.02 -3.16,-6.403 -7.972,-11.992 -12.769,-16.789 z" /><path
         id="path28"
         style="fill:#0078d7;fill-opacity:1;fill-rule:nonzero;stroke:none"
         d="m 203.98,133.211 7.231,-4.801 c 11.988,13.59 17.578,29.61 19.18,46.399 l -16.801,0 c -0.781,-15.188 -3.981,-29.61 -9.61,-41.598 z" /><path
         id="path30"
         style="fill:#0078d7;fill-opacity:1;fill-rule:nonzero;stroke:none"
         d="m 96.0195,128.41 7.1795,4.801 c -5.5779,11.988 -8.7888,26.41 -9.6092,41.598 l -16.789,0 c 1.5976,-16.789 8,-32.809 19.2187,-46.399 z" /><path
         id="path32"
         style="fill:#0078d7;fill-opacity:1;fill-rule:nonzero;stroke:none"
         d="m 103.98,225.199 c -2.378,1.602 -5.5816,3.211 -7.1792,4.813 -12,-13.602 -18.4024,-29.614 -19.1797,-47.231 l 16.7891,0 c 0,16.02 3.9882,30.43 9.5698,42.418 z" /><path
         id="path34"
         style="fill:#0078d7;fill-opacity:1;fill-rule:nonzero;stroke:none"
         d="m 115.199,227.59 c 9.602,-3.988 21.602,-6.371 33.59,-7.192 l 0,32.813 C 136.02,251.609 123.98,242 115.199,227.59 Z" /><path
         id="path36"
         style="fill:#0078d7;fill-opacity:1;fill-rule:nonzero;stroke:none"
         d="m 120,248.41 c -6.41,-3.211 -12.809,-7.191 -18.398,-12.82 1.597,-1.602 3.988,-2.379 5.589,-3.981 3.2,6.411 8.008,11.993 12.809,16.801 z" /><path
         id="path38"
         style="fill:#0078d7;fill-opacity:1;fill-rule:nonzero;stroke:none"
         d="m 334.41,268.41 -2.422,0 c 0,10.391 -7.187,18.391 -15.968,18.391 l -4.809,0 c 0,5.59 -2.422,10.398 -6.41,12.82 l -0.821,0 c -0.781,0.777 -0.781,0.777 -1.601,0.777 0,0 -0.777,0 -0.777,0.821 -0.821,0 -0.821,0 -1.602,0.781 L 13.5898,302 C 6.41016,302 0,294.809 0,285.98 L 0,65.1992 C 0,56.4102 6.41016,49.1914 13.5898,49.1914 l 1.6094,0 0,-2.3906 c 0,-10.3906 7.1797,-18.3906 16.0117,-18.3906 l 2.3789,0 c 0,-10.3907 7.1915,-18.3985 16.0196,-18.3985 l 284.8006,0 c 8.789,0 15.981,8.0078 15.981,18.3985 l 0,221.6018 c 0,10.386 -7.192,18.398 -15.981,18.398 z M 91.2109,242 c 17.5781,17.621 40.0001,26.41 63.1991,26.41 22.391,0 45.59,-8.789 63.211,-26.41 16.789,-16.801 26.359,-40 26.359,-62.379 0,-23.211 -8.781,-46.41 -26.359,-63.211 -18.402,-17.6092 -40.82,-25.6209 -64.031,-25.6209 -22.379,0 -45.578,8.832 -63.1994,26.4099 -17.582,17.61 -26.4101,40 -26.4101,63.199 C 64.8008,202 73.5898,225.199 91.2109,242 Z M 36.0195,33.9883 l -4.8086,0 C 24.8008,33.9883 20,39.6211 20,47.5898 l 0,2.4219 277.621,0 c 7.18,0 13.59,7.1875 13.59,15.9688 l 0,216.0195 4.809,0 c 6.359,0 11.171,-5.59 11.171,-13.59 l 0,-220.8202 c 0,-7.1914 -4.812,-13.6015 -11.171,-13.6015 l -280.0005,0 z M 345.59,29.1914 C 345.59,22 340.781,15.5898 334.41,15.5898 l -284.0194,0 c -6.4101,0 -11.1718,5.629 -11.1718,13.6016 l 277.5822,0 c 8.789,0 16.008,8.0078 16.008,18.3984 l 0,216.0122 2.39,0 c 6.403,0 11.211,-6.403 11.211,-13.59 l 0,-220.8206 -0.82,0 z" /><path
         id="path40"
         style="fill:#0078d7;fill-opacity:1;fill-rule:nonzero;stroke:none"
         d="m 103.98,174.809 c 0.821,-13.59 3.211,-26.399 8.829,-36.789 11.171,4.761 23.992,7.179 37.582,7.96 l 0,28.829 -46.411,0 z" /><path
         id="path42"
         style="fill:#0078d7;fill-opacity:1;fill-rule:nonzero;stroke:none"
         d="m 115.199,131.609 c 8,-14.41 20,-24.019 33.59,-25.629 l 0,32.821 c -11.988,-0.781 -23.199,-3.211 -33.59,-7.192 z" /><path
         id="path44"
         style="fill:#0078d7;fill-opacity:1;fill-rule:nonzero;stroke:none"
         d="m 149.609,213.211 c -13.589,0.777 -26.41,3.199 -37.621,8.008 -4.797,-11.207 -8.008,-24.02 -8.789,-37.617 l 45.59,0 0,29.609 0.82,0 z" /><path
         id="path46"
         style="fill:#0078d7;fill-opacity:1;fill-rule:nonzero;stroke:none"
         d="m 101.602,122.781 c 5.589,-5.582 11.988,-9.57 18.398,-12.769 -4.801,4.797 -8.789,10.386 -12.809,16.789 -2.39,-0.821 -3.992,-2.422 -5.589,-4.02 z" /></g></g></svg>