<?xml version="1.0" encoding="UTF-8" standalone="no"?>
<svg
   xmlns:dc="http://purl.org/dc/elements/1.1/"
   xmlns:cc="http://creativecommons.org/ns#"
   xmlns:rdf="http://www.w3.org/1999/02/22-rdf-syntax-ns#"
   xmlns:svg="http://www.w3.org/2000/svg"
   xmlns="http://www.w3.org/2000/svg"
   viewBox="0 0 63.75 37.5"
   height="37.5"
   width="63.75"
   xml:space="preserve"
   version="1.1"
   id="svg2"><metadata
     id="metadata8"><rdf:RDF><cc:Work
         rdf:about=""><dc:format>image/svg+xml</dc:format><dc:type
           rdf:resource="http://purl.org/dc/dcmitype/StillImage" /></cc:Work></rdf:RDF></metadata><defs
     id="defs6" /><g
     transform="matrix(1.25,0,0,-1.25,0,37.5)"
     id="g10"><g
       transform="scale(0.1,0.1)"
       id="g12"><path
         id="path14"
         style="fill:#de3c00;fill-opacity:1;fill-rule:evenodd;stroke:none"
         d="m 463.199,148.789 c 0.781,4.02 0.781,7.231 0.781,10.43 0,53.59 -40.781,97.582 -91.171,97.582 -12.809,0 -26.399,-3.211 -38.399,-8.789 C 317.621,280 286.41,300 252.809,300 c -50.43,0 -91.207,-41.602 -94.411,-94.41 -3.988,0.82 -8.007,0.82 -11.988,0.82 -24.031,0 -46.41,-12 -59.9998,-32.82 C 39.2188,176.801 0,136.801 0,87.1914 0,39.2188 36.8008,0 81.6016,0 L 436.02,0 447.191,2.37891 c 33.59,8.83199 56.789,40.82029 56.789,76.83989 0,29.5702 -15.968,55.9802 -40.781,69.5702 z M 336.02,44.8008 284.801,30.3906 l -92.813,34.4102 92.813,-13.5899 0,123.9881 -60.821,-14.418 0,-83.9802 -31.171,-12 0,103.9882 91.992,34.41 51.219,-15.187 0,-143.2112 z" /></g></g></svg>