<?xml version="1.0" encoding="UTF-8" standalone="no"?>
<svg
   xmlns:dc="http://purl.org/dc/elements/1.1/"
   xmlns:cc="http://creativecommons.org/ns#"
   xmlns:rdf="http://www.w3.org/1999/02/22-rdf-syntax-ns#"
   xmlns:svg="http://www.w3.org/2000/svg"
   xmlns="http://www.w3.org/2000/svg"
   viewBox="0 0 40 33.75"
   height="33.75"
   width="40"
   xml:space="preserve"
   version="1.1"
   id="svg2"><metadata
     id="metadata8"><rdf:RDF><cc:Work
         rdf:about=""><dc:format>image/svg+xml</dc:format><dc:type
           rdf:resource="http://purl.org/dc/dcmitype/StillImage" /></cc:Work></rdf:RDF></metadata><defs
     id="defs6" /><g
     transform="matrix(1.25,0,0,-1.25,0,33.75)"
     id="g10"><g
       transform="scale(0.1,0.1)"
       id="g12"><path
         id="path14"
         style="fill:#0078d7;fill-opacity:1;fill-rule:nonzero;stroke:none"
         d="m 138.48,170.34 c -18.402,-9.61 -26.41,-32.809 -16.8,-51.211 9.609,-18.399 32.769,-25.5899 51.172,-16.801 18.437,9.613 26.41,32.813 16.839,51.211 -9.613,19.223 -32.812,26.41 -51.211,16.801 z m 23.981,-46.41 c -7.191,-3.2 -15.191,-0.782 -18.402,6.41 -3.2,7.191 -0.778,15.191 5.632,18.398 7.188,3.203 15.188,0.821 19.18,-6.41 3.199,-6.398 0,-14.367 -6.41,-18.398 z" /><path
         id="path16"
         style="fill:#0078d7;fill-opacity:1;fill-rule:nonzero;stroke:none"
         d="m 298.398,262.801 -284.8082,0 C 6.41016,262.801 0,255.609 0,246.781 L 0,26 C 0,17.2109 6.41016,9.98828 13.5898,9.98828 l 284.8082,0 c 7.192,0 13.59,7.22262 13.59,16.01172 l 0,220.781 c 0,8.828 -6.398,16.02 -13.59,16.02 z m -65.589,-155.199 -14.411,-23.2036 -20,8.0118 C 195.199,89.2109 191.211,86 187.191,83.5781 l 2.418,-22.3789 -26.41,-6.4101 -8,20 c -4.808,0 -9.609,0.8203 -14.418,1.6015 l -13.59,-17.5703 -23.211,14.3711 8.008,19.2188 c -3.199,3.1992 -6.398,7.1914 -8.789,11.9878 l -21.5974,-2.378 -6.4024,26.371 19.211,8 c 0,4.808 0.789,9.609 2.3906,14.418 l -17.582,13.589 14.371,23.204 20.0002,-8 c 3.211,3.199 6.41,5.578 9.609,8 l -3.199,22.386 26.41,7.223 8.789,-20 c 5.582,0 10.391,-0.82 15.192,-2.422 l 14.41,17.621 23.211,-14.41 -8.793,-20.789 c 3.16,-3.199 5.582,-7.223 7.972,-11.211 l 23.2,2.391 6.41,-26.371 -20.781,-8.829 c 0,-4.8 -0.821,-8.793 -1.61,-13.589 l 18.399,-12 z" /></g></g></svg>