<?xml version="1.0" encoding="UTF-8" standalone="no"?>
<svg
   xmlns:dc="http://purl.org/dc/elements/1.1/"
   xmlns:cc="http://creativecommons.org/ns#"
   xmlns:rdf="http://www.w3.org/1999/02/22-rdf-syntax-ns#"
   xmlns:svg="http://www.w3.org/2000/svg"
   xmlns="http://www.w3.org/2000/svg"
   viewBox="0 0 43.75 36.25"
   height="36.25"
   width="43.75"
   xml:space="preserve"
   version="1.1"
   id="svg2"><metadata
     id="metadata8"><rdf:RDF><cc:Work
         rdf:about=""><dc:format>image/svg+xml</dc:format><dc:type
           rdf:resource="http://purl.org/dc/dcmitype/StillImage" /></cc:Work></rdf:RDF></metadata><defs
     id="defs6" /><g
     transform="matrix(1.25,0,0,-1.25,0,36.25)"
     id="g10"><g
       transform="scale(0.1,0.1)"
       id="g12"><path
         id="path14"
         style="fill:#0078d7;fill-opacity:1;fill-rule:nonzero;stroke:none"
         d="M 127.191,99.6094 C 136.02,83.6016 149.609,73.2109 163.98,71.6016 l 0,35.9764 c -12.769,-0.777 -25.582,-3.976 -36.789,-7.9686 z" /><path
         id="path16"
         style="fill:#0078d7;fill-opacity:1;fill-rule:nonzero;stroke:none"
         d="m 227.191,213.211 c -6.41,5.578 -12.781,10.391 -20,14.367 5.618,-4.758 9.61,-11.168 14.411,-18.398 1.597,1.601 3.199,2.422 5.589,4.031 z" /><path
         id="path18"
         style="fill:#0078d7;fill-opacity:1;fill-rule:nonzero;stroke:none"
         d="m 127.191,204.422 c 11.207,-4.813 23.2,-7.231 36.789,-8.012 l 0,35.981 c -14.371,-1.61 -27.179,-12 -36.789,-27.969 z" /><path
         id="path20"
         style="fill:#0078d7;fill-opacity:1;fill-rule:nonzero;stroke:none"
         d="m 123.98,198.012 c -5.582,-11.992 -8.781,-25.621 -9.57,-40.821 l 49.57,0 0,31.989 c -14.371,0 -28.781,3.211 -40,8.832 z" /><path
         id="path22"
         style="fill:#0078d7;fill-opacity:1;fill-rule:nonzero;stroke:none"
         d="m 114.41,147.578 c 0.789,-15.187 3.988,-29.566 9.57,-41.558 12.04,4.761 25.629,7.968 40.821,8.789 l 0,32.769 -50.391,0 z" /><path
         id="path24"
         style="fill:#0078d7;fill-opacity:1;fill-rule:nonzero;stroke:none"
         d="m 111.988,90 c 6.41,-5.5781 12.813,-10.3906 20,-14.4102 -5.578,4.8008 -10.386,11.211 -14.367,18.3985 C 116.02,93.2109 113.59,91.6016 111.988,90 Z" /><path
         id="path26"
         style="fill:#0078d7;fill-opacity:1;fill-rule:nonzero;stroke:none"
         d="m 131.988,227.578 c -7.187,-3.156 -14.367,-7.969 -20,-14.367 1.602,-1.609 4.032,-3.211 6.41,-4.031 3.981,7.23 8.012,13.64 13.59,18.398 z" /><path
         id="path28"
         style="fill:#0078d7;fill-opacity:1;fill-rule:nonzero;stroke:none"
         d="m 114.41,202 c -3.199,1.602 -5.621,3.199 -8,5.578 C 93.5898,193.211 86.4102,174.809 85.5898,156.41 l 18.3902,0 c 0.821,16.801 4.032,32.77 10.43,45.59 z" /><path
         id="path30"
         style="fill:#0078d7;fill-opacity:1;fill-rule:nonzero;stroke:none"
         d="m 103.98,147.578 -18.3902,0 c 0.8204,-18.398 8,-36.797 20.8202,-51.1678 2.379,1.6015 5.578,3.9808 8,5.5898 -6.398,12.809 -9.609,28.781 -10.43,45.578 z" /><path
         id="path32"
         style="fill:#0078d7;fill-opacity:1;fill-rule:nonzero;stroke:none"
         d="m 215.199,106.02 c 5.582,11.992 8.781,26.371 9.602,41.558 l -50.391,0 0,-32.769 c 14.379,0 28.789,-3.207 40.789,-8.789 z" /><path
         id="path34"
         style="fill:#0078d7;fill-opacity:1;fill-rule:nonzero;stroke:none"
         d="m 224.801,102 c 3.211,-1.609 5.59,-3.2109 8.008,-5.5898 12.781,14.3708 20,32.7698 20.781,51.1678 l -18.391,0 C 234.41,130.781 230.391,114.809 224.801,102 Z" /><path
         id="path36"
         style="fill:#0078d7;fill-opacity:1;fill-rule:nonzero;stroke:none"
         d="m 224.801,202 c 6.41,-13.602 9.609,-28.789 10.398,-45.59 l 18.391,0 c -0.781,18.399 -8,35.981 -20.781,51.168 -2.418,-1.558 -5.618,-3.976 -8.008,-5.578 z" /><path
         id="path38"
         style="fill:#0078d7;fill-opacity:1;fill-rule:nonzero;stroke:none"
         d="m 211.211,204.422 c -8.832,15.969 -22.422,26.359 -36.801,27.969 l 0,-35.981 c 13.602,0.781 26.371,3.199 36.801,8.012 z" /><path
         id="path40"
         style="fill:#0078d7;fill-opacity:1;fill-rule:nonzero;stroke:none"
         d="m 327.191,286.801 -311.9918,0 C 7.19141,286.801 0,278.789 0,269.18 L 0,27.5781 C 0,18.0117 6.41016,10 15.1992,10 L 326.41,10 c 8,0 15.192,8.0117 15.192,17.5781 l 0,242.4219 c 0.777,9.609 -6.403,16.801 -14.411,16.801 z M 238.398,82.8203 C 219.219,63.6016 194.41,53.9883 169.609,53.9883 144.801,53.9883 120,63.6016 100.781,82.8203 81.6016,102 71.9883,126.801 71.9883,151.602 c 0,24.808 9.6133,49.609 28.7927,68.789 19.219,19.218 44.02,28.789 68.828,28.789 24.801,0 49.61,-9.571 68.789,-28.789 19.223,-18.391 28.793,-43.2 28.793,-68 C 266.41,127.578 257.621,102 238.398,82.8203 Z" /><path
         id="path42"
         style="fill:#0078d7;fill-opacity:1;fill-rule:nonzero;stroke:none"
         d="m 223.98,156.41 c -0.781,15.192 -3.98,28.789 -9.57,40.781 -12.031,-5.589 -26.398,-8.011 -40.82,-8.793 l 0,-31.988 50.39,0 z" /><path
         id="path44"
         style="fill:#0078d7;fill-opacity:1;fill-rule:nonzero;stroke:none"
         d="M 211.211,99.6094 C 200,104.422 187.191,106.801 174.41,107.578 l 0,-35.9764 c 14.379,1.6093 27.969,12 36.801,28.0078 z" /><path
         id="path46"
         style="fill:#0078d7;fill-opacity:1;fill-rule:nonzero;stroke:none"
         d="m 206.41,76.4102 c 7.18,3.1992 14.371,8.0117 20,14.3711 -2.43,1.6093 -4.031,3.207 -6.41,4.0273 -3.199,-7.2305 -8.012,-13.5977 -13.59,-18.3984 z" /></g></g></svg>