<?xml version="1.0" encoding="UTF-8" standalone="no"?>
<svg
   xmlns:dc="http://purl.org/dc/elements/1.1/"
   xmlns:cc="http://creativecommons.org/ns#"
   xmlns:rdf="http://www.w3.org/1999/02/22-rdf-syntax-ns#"
   xmlns:svg="http://www.w3.org/2000/svg"
   xmlns="http://www.w3.org/2000/svg"
   viewBox="0 0 43.75 37.5"
   height="37.5"
   width="43.75"
   xml:space="preserve"
   version="1.1"
   id="svg2"><metadata
     id="metadata8"><rdf:RDF><cc:Work
         rdf:about=""><dc:format>image/svg+xml</dc:format><dc:type
           rdf:resource="http://purl.org/dc/dcmitype/StillImage" /></cc:Work></rdf:RDF></metadata><defs
     id="defs6" /><g
     transform="matrix(1.25,0,0,-1.25,0,37.5)"
     id="g10"><g
       transform="scale(0.1,0.1)"
       id="g12"><path
         id="path14"
         style="fill:#0078d7;fill-opacity:1;fill-rule:nonzero;stroke:none"
         d="m 237.461,183.02 c 0,-9.301 -7.539,-16.801 -16.801,-16.801 -9.289,0 -16.789,7.5 -16.789,16.801 0,9.261 7.5,16.8 16.789,16.8 9.262,0 16.801,-7.539 16.801,-16.8 z" /><path
         id="path16"
         style="fill:#0078d7;fill-opacity:1;fill-rule:nonzero;stroke:none"
         d="m 134.879,143.289 c -8.789,0 -16.789,-7.18 -16.789,-16.789 0,-8.789 7.219,-16.801 16.789,-16.801 8.832,0 16.801,7.231 16.801,16.801 -0.782,9.609 -7.969,16.789 -16.801,16.789 z" /><path
         id="path18"
         style="fill:#0078d7;fill-opacity:1;fill-rule:nonzero;stroke:none"
         d="m 274.41,177.199 -15.191,-4.801 -4.02,-8.007 5.582,-11.993 0.821,-1.609 -8.012,-8 -13.59,5.621 -8.012,-3.199 -3.976,-12.813 -0.821,-1.609 -11.992,0 -4.808,14.422 -8.012,3.199 -11.988,-5.621 -1.602,-0.789 -8.008,8.012 6.41,13.597 -3.211,8 -10.39,3.993 0,12.808 12,4.809 2.422,7.961 -6.41,12.039 -0.821,1.601 8.008,7.969 13.59,-6.367 8.012,3.156 4.019,12.031 0.789,0.789 11.992,0 4.797,-13.597 8.012,-2.379 11.988,6.367 1.602,0.82 8.012,-8.007 -6.403,-13.602 3.199,-8 13.59,-3.988 2.422,-0.821 0,-11.992 z m -191.2108,-44.801 14.4219,4.801 3.1599,8.012 -5.5818,11.988 -0.789,1.602 7.9688,8.008 13.641,-6.411 7.96,3.211 4.032,11.211 0.777,0.782 11.992,0 4.809,-12.813 8,-3.211 12,6.41 1.601,0.821 8.008,-8.008 -6.41,-13.59 3.199,-8.012 11.211,-3.98 0.781,-0.821 0,-12 -12.769,-3.976 -3.199,-8.012 6.398,-11.9881 0.789,-1.6016 -8.008,-8.0117 -13.601,5.5898 -8,-3.207 -3.988,-12.7695 -0.821,-1.6016 -11.992,0 -5.59,14.3711 -8,3.207 -12,-5.5898 -1.597,-0.8203 L 93.5898,94 100,107.59 l -3.1992,8.012 -12.8203,3.976 -1.6016,0.82 0,12 0.8203,0 z m 216.8008,60 -6.41,2.422 1.609,6.36 c 1.602,6.41 2.422,12.82 2.422,19.218 0,42.391 -34.422,76.801 -76.84,76.801 -31.172,0 -59.179,-18.398 -71.172,-47.187 l -4.808,-10.434 -7.18,8.832 c -10.43,11.988 -24.812,18.399 -39.9999,18.399 -28.832,0 -52.8203,-23.2 -52.8203,-52.809 0,-4.809 0.789,-9.609 1.6094,-14.422 l 1.6015,-6.359 -6.4101,-2.43 C 16.0195,181.18 0,160.398 0,134.82 0,101.18 28.0117,74.8203 63.1992,74.8203 l 16.0196,0 c -0.8204,0 -0.8204,-5.6289 -0.8204,-8.832 0,-31.168 25.5816,-55.9766 56.0116,-55.9766 22.391,0 43.211,13.5977 52,34.3789 l 3.199,8.0078 5.59,-6.4101 c 7.18,-8.7891 18.391,-13.5899 28.781,-13.5899 20.821,0 38.399,17.6133 38.399,38.3907 l 0,4.0312 17.621,0 c 35.199,0 63.199,26.3597 63.199,59.9997 C 343.98,162 327.191,183.609 300,192.398 Z" /></g></g></svg>