<?xml version="1.0" encoding="UTF-8" standalone="no"?>
<svg
   xmlns:dc="http://purl.org/dc/elements/1.1/"
   xmlns:cc="http://creativecommons.org/ns#"
   xmlns:rdf="http://www.w3.org/1999/02/22-rdf-syntax-ns#"
   xmlns:svg="http://www.w3.org/2000/svg"
   xmlns="http://www.w3.org/2000/svg"
   viewBox="0 0 51.25 31.25"
   height="31.25"
   width="51.25"
   xml:space="preserve"
   version="1.1"
   id="svg2"><metadata
     id="metadata8"><rdf:RDF><cc:Work
         rdf:about=""><dc:format>image/svg+xml</dc:format><dc:type
           rdf:resource="http://purl.org/dc/dcmitype/StillImage" /></cc:Work></rdf:RDF></metadata><defs
     id="defs6" /><g
     transform="matrix(1.25,0,0,-1.25,0,31.25)"
     id="g10"><g
       transform="scale(0.1,0.1)"
       id="g12"><path
         id="path14"
         style="fill:#0078d7;fill-opacity:1;fill-rule:nonzero;stroke:none"
         d="m 396.211,129.18 c -7.231,16.84 -22.422,32.031 -41.602,40.82 -8.828,30.391 -34.41,60 -71.211,60 l -3.988,0 c -15.191,11.211 -30.43,16.801 -46.398,16.801 -9.614,0 -19.223,-2.379 -28.012,-6.41 -7.191,4.031 -15.199,5.629 -23.98,5.629 -19.219,0 -37.622,-8.829 -48.829,-19.219 -3.211,0.777 -7.191,1.597 -11.171,1.597 -28.8286,0 -56.8012,-23.199 -64.8091,-51.988 C 31.4102,167.578 13.7891,151.602 5,130 -3.01172,109.18 -1.41016,86.8008 9.80078,67.5781 21.0195,48.3984 41.0195,36.4102 62.6211,36.4102 c 7.9687,0 15.9687,1.6015 23.9805,4.8007 C 99.4102,29.1797 116.988,22 133.012,22 c 5.578,0 11.207,0.8203 15.968,2.4219 C 161.801,13.9883 181.801,10 197.809,10 c 19.179,0 35.98,4.8086 46.41,13.6016 7.191,-3.211 15.191,-4.8125 23.16,-4.8125 20.82,0 41.601,11.2109 53.641,26.4101 6.359,-2.3789 13.589,-3.9883 20,-3.9883 22.378,0 43.199,14.3789 52.769,37.5782 8.832,16.8007 8.832,34.4219 2.422,50.3909 z" /><path
         id="path16"
         style="fill:#ffffff;fill-opacity:1;fill-rule:nonzero;stroke:none"
         d="m 129.801,22 0,70.3906 c 0,8.8204 -7.18,16.0074 -16.012,16.0074 l -26.4101,0 0,-11.2066 26.4101,0 c 2.422,0 4.801,-2.3828 4.801,-4.8008 l 0,-68.789 c 3.211,0 7.191,-0.7813 11.211,-1.6016 z" /><path
         id="path18"
         style="fill:#ffffff;fill-opacity:1;fill-rule:nonzero;stroke:none"
         d="m 178.59,142.82 -35.192,0 c -2.378,0 -4.808,2.379 -4.808,4.758 l 0,84.024 c -2.379,-1.602 -3.981,-3.204 -5.578,-4.801 -1.602,0.777 -4.032,0.777 -5.633,0.777 l 0,-80.777 c 0,-8.789 7.23,-16.02 16.019,-16.02 l 35.192,0 c 2.43,0 4.808,-2.383 4.808,-4.761 l 0,-26.4106 11.211,0 0,26.4106 c -0.82,9.57 -8.007,16.8 -16.019,16.8 z" /><path
         id="path20"
         style="fill:#ffffff;fill-opacity:1;fill-rule:nonzero;stroke:none"
         d="m 327.379,98.0117 0,10.3863 -11.168,0 0,-10.3863 c 0,-2.4219 -2.422,-4.8008 -4.801,-4.8008 l -44.808,0 0,80.0001 c 0,8.789 -7.192,15.969 -16.012,15.969 l -30.391,0 0,-11.168 30.391,0 c 2.422,0 4.801,-2.422 4.801,-4.801 l 0,-153.6016 c 4.019,-0.8203 7.23,-1.5977 11.211,-1.5977 l 0,63.1992 44.808,0 c 8.789,0.7891 15.969,7.9688 15.969,16.8008 z" /><path
         id="path22"
         style="fill:#ffffff;fill-opacity:1;fill-rule:nonzero;stroke:none"
         d="m 188.199,53.9883 c -13.59,0 -24.801,11.2109 -24.801,24.8008 0,13.6015 11.211,24.8129 24.801,24.8129 13.602,0 24.813,-11.2114 24.813,-24.8129 0.777,-13.5899 -10.391,-24.8008 -24.813,-24.8008 z m 0,40 c -8,0 -14.41,-6.4102 -14.41,-14.3789 0,-8.0078 6.41,-14.4102 14.41,-14.4102 8.012,0 14.422,6.4024 14.422,14.4102 0.777,7.9687 -6.41,14.3789 -14.422,14.3789 z" /><path
         id="path24"
         style="fill:#ffffff;fill-opacity:1;fill-rule:nonzero;stroke:none"
         d="m 68.9805,78.0117 c -13.5899,0 -24.7617,11.168 -24.7617,24.8083 0,13.59 11.1718,24.758 24.7617,24.758 13.6406,0 24.8086,-11.168 24.8086,-24.758 0,-13.6403 -11.168,-24.8083 -24.8086,-24.8083 z m 0,40.0003 c -7.961,0 -14.3711,-6.41 -14.3711,-14.41 0,-8.0122 6.4101,-14.4223 14.3711,-14.4223 8.0078,0 14.4179,6.4101 14.4179,14.4223 0.8204,7.179 -6.4101,14.41 -14.4179,14.41 z" /><path
         id="path26"
         style="fill:#ffffff;fill-opacity:1;fill-rule:nonzero;stroke:none"
         d="m 321.801,102 c -13.602,0 -24.813,11.211 -24.813,24.801 0,13.59 11.211,24.801 24.813,24.801 13.59,0 24.801,-11.211 24.801,-24.801 0,-13.59 -11.211,-24.801 -24.801,-24.801 z m 0,39.211 c -8.012,0 -14.422,-6.402 -14.422,-14.41 0,-8.012 6.41,-14.41 14.422,-14.41 8,0 14.41,6.398 14.41,14.41 0,8.008 -6.41,14.41 -14.41,14.41 z" /><path
         id="path28"
         style="fill:#ffffff;fill-opacity:1;fill-rule:nonzero;stroke:none"
         d="m 201.801,158.789 c -13.602,0 -24.813,11.211 -24.813,24.813 0,13.589 11.211,24.796 24.813,24.796 13.59,0 24.801,-11.207 24.801,-24.796 0.777,-13.602 -10.391,-24.813 -24.801,-24.813 z m 0,40 c -8.012,0 -14.422,-6.398 -14.422,-14.367 0,-8.012 6.41,-14.422 14.422,-14.422 8,0 14.41,6.41 14.41,14.422 0.777,7.969 -5.621,14.367 -14.41,14.367 z" /></g></g></svg>