<?xml version="1.0" encoding="UTF-8" standalone="no"?>
<svg
   xmlns:dc="http://purl.org/dc/elements/1.1/"
   xmlns:cc="http://creativecommons.org/ns#"
   xmlns:rdf="http://www.w3.org/1999/02/22-rdf-syntax-ns#"
   xmlns:svg="http://www.w3.org/2000/svg"
   xmlns="http://www.w3.org/2000/svg"
   viewBox="0 0 43.75 28.75"
   height="28.75"
   width="43.75"
   xml:space="preserve"
   version="1.1"
   id="svg2"><metadata
     id="metadata8"><rdf:RDF><cc:Work
         rdf:about=""><dc:format>image/svg+xml</dc:format><dc:type
           rdf:resource="http://purl.org/dc/dcmitype/StillImage" /></cc:Work></rdf:RDF></metadata><defs
     id="defs6" /><g
     transform="matrix(1.25,0,0,-1.25,0,28.75)"
     id="g10"><g
       transform="scale(0.1,0.1)"
       id="g12"><path
         id="path14"
         style="fill:#0078d7;fill-opacity:1;fill-rule:nonzero;stroke:none"
         d="m 170.391,138.012 c -10.391,0 -19.18,-8.832 -19.18,-19.223 0,-10.391 8.789,-19.1796 19.18,-19.1796 10.39,0 19.218,8.7886 19.218,19.1796 0,10.391 -8.007,19.223 -19.218,19.223 z" /><path
         id="path16"
         style="fill:#0078d7;fill-opacity:1;fill-rule:nonzero;stroke:none"
         d="M 170.391,198.012 C 103.199,198.012 42.3789,209.18 0,226.801 L 0,10 c 42.3789,18.3984 103.199,28.7891 170.391,28.7891 67.23,0 128.007,-11.211 170.39,-28.7891 l 0,216.801 C 298.398,209.18 237.621,198.012 170.391,198.012 Z m 60.82,-86.41 -16.801,-6.403 -4.019,-8.7888 7.23,-13.5899 0.777,-1.6094 -9.609,-9.6093 -15.98,8.0078 -9.61,-4.0196 -4.801,-15.9804 -0.777,-1.5977 -13.641,0 -6.359,16.7969 -9.609,3.9805 -13.602,-7.1875 -1.601,-0.8203 -10.43,9.6093 8.012,16.0196 -3.981,9.6098 -14.422,4.761 -2.379,0.821 0,13.597 16.801,6.403 3.981,8.789 -7.192,13.597 -0.82,2.422 9.609,9.61 16.024,-8.008 9.609,3.988 4.758,15.191 0.82,2.418 13.602,0 6.398,-16.789 9.61,-4.031 13.601,7.231 1.602,0.781 5.578,-5.59 c 1.609,-2.422 2.43,-4.02 4.031,-6.402 l -7.23,-14.418 4.019,-9.61 14.379,-4.761 2.422,-0.821 0,-13.597 z" /></g></g></svg>