<?xml version="1.0" encoding="UTF-8" standalone="no"?>
<svg
   xmlns:dc="http://purl.org/dc/elements/1.1/"
   xmlns:cc="http://creativecommons.org/ns#"
   xmlns:rdf="http://www.w3.org/1999/02/22-rdf-syntax-ns#"
   xmlns:svg="http://www.w3.org/2000/svg"
   xmlns="http://www.w3.org/2000/svg"
   viewBox="0 0 41.25 32.5"
   height="32.5"
   width="41.25"
   xml:space="preserve"
   version="1.1"
   id="svg2"><metadata
     id="metadata8"><rdf:RDF><cc:Work
         rdf:about=""><dc:format>image/svg+xml</dc:format><dc:type
           rdf:resource="http://purl.org/dc/dcmitype/StillImage" /></cc:Work></rdf:RDF></metadata><defs
     id="defs6" /><g
     transform="matrix(1.25,0,0,-1.25,0,32.5)"
     id="g10"><g
       transform="scale(0.1,0.1)"
       id="g12"><path
         id="path14"
         style="fill:#0078d7;fill-opacity:1;fill-rule:evenodd;stroke:none"
         d="m 279.691,172.91 0,-81.2108 50.11,19.2108 0,44.18 -50.11,17.82 z m -20.472,-69.93 -3.321,1.329 0,55.98 3.321,0.699 3.281,1.293 3.98,1.328 0,-62.621 -3.98,1.293 -3.281,0.699 z m -11.918,3.911 -2.61,0.699 0,49.422 7.93,1.988 0,-54.102 -2.621,0.704 -2.699,1.289 z m -9.801,3.32 -1.988,0.699 0,44.18 5.898,1.922 0,-48.133 -3.91,1.332 z m -3.98,49.488 0,-53.398 37.57,-14.6018 0,81.2108 -37.57,-13.211 z M 218.281,254 l 0,-81.801 50.821,19.813 0,44.179 L 218.281,254 Z m 0,-162.3008 0,-81.6797 50.821,19.6797 0,44.1797 -50.821,17.8203 z m -19.761,92.4218 -3.321,1.289 0,56.09 3.321,0.59 3.281,1.32 3.98,1.371 0,-62.691 -3.98,1.32 -3.281,0.711 z m -11.801,3.859 -2.739,0.711 0,49.528 7.93,1.871 0,-53.981 -2.609,0.59 -2.582,1.281 z m -9.918,2.739 -2,0.582 0,44.179 5.898,2.04 0,-48.129 -3.898,1.328 z m -3.992,49.371 0,-53.391 37.582,-14.5 0,81.102 -37.582,-13.211 z m 25.711,-218.2814 -3.321,1.293 0,56.0976 3.321,0.6992 3.281,1.293 3.98,1.3281 0,-62.7382 -3.98,1.4101 -3.281,0.6172 z m -11.801,3.9922 -2.739,0.5781 0,49.5313 7.93,2 0,-54.1094 -2.609,0.7109 -2.582,1.2891 z m -9.918,2.6094 -2,0.7109 0,44.1797 5.898,1.9101 0,-48.1211 -3.898,1.3204 z m -3.992,49.5 0,-53.3985 37.582,-14.4922 0,81.0899 -37.582,-13.1992 z m -9.219,94.9998 0,-81.2108 50.121,19.2108 0,44.18 -50.121,17.82 z m -20.5,-69.93 -3.289,1.329 0,55.98 3.289,0.699 3.32,1.293 3.981,1.328 0,-62.621 -3.981,1.293 -3.32,0.699 z m -11.801,3.911 -2.699,0.699 0,49.422 7.89,1.988 0,-54.102 -2.57,0.704 -2.621,1.289 z m -9.879,3.32 -2,0.699 0,44.18 5.899,1.922 0,-48.133 -3.899,1.332 z m -4.031,49.488 0,-53.398 L 155,91.6992 155,172.91 117.379,159.699 Z m -17.07,94.301 0,-81.801 50.711,19.813 0,44.179 L 100.309,254 Z m 0,-162.3008 0,-81.6797 50.711,19.6797 0,44.1797 -50.711,17.8203 z m -19.7973,92.4218 -3.3203,1.289 0,56.09 3.3203,0.59 3.2774,1.32 3.9101,1.371 0,-62.691 -3.9101,1.32 -3.2774,0.711 z m -11.9219,3.859 -2.5703,0.711 0,49.528 7.8907,1.871 0,-53.981 -2.6993,0.59 -2.6211,1.281 z m -9.8789,2.739 -1.9921,0.582 0,44.179 5.9804,2.04 0,-48.129 -3.9883,1.328 z m -4.0195,49.371 0,-53.391 37.6094,-14.5 0,81.102 -37.6094,-13.211 z m 25.8203,-218.2814 -3.3203,1.293 0,56.0976 3.3203,0.6992 3.2774,1.293 3.9101,1.3281 0,-62.7382 -3.9101,1.4101 -3.2774,0.6172 z m -11.9219,3.9922 -2.5703,0.5781 0,49.5313 7.8907,2 0,-54.1094 -2.6993,0.7109 -2.6211,1.2891 z m -9.8789,2.6094 -1.9921,0.7109 0,44.1797 5.9804,1.9101 0,-48.1211 -3.9883,1.3204 z m -4.0195,49.5 0,-53.3985 37.6094,-14.4922 0,81.0899 -37.6094,-13.1992 z m -8.4805,94.9998 0,-81.2108 50.0782,19.2108 0,44.18 -50.0782,17.82 z m -20.5117,-69.93 -3.3203,1.329 0,55.98 3.3203,0.699 3.2813,1.293 4.0312,1.328 0,-62.621 -4.0312,1.293 -3.2813,0.699 z m -11.789,3.911 -2.6993,0.699 0,49.422 7.8907,1.988 0,-54.102 -2.6211,0.704 -2.5703,1.289 z m -9.92973,3.32 -1.99219,0.699 0,44.18 5.90235,1.922 0,-48.133 -3.91016,1.332 z M 0,159.699 0,106.301 37.6211,91.6992 l 0,81.2108 L 0,159.699 Z" /></g></g></svg>