<?xml version="1.0" encoding="UTF-8" standalone="no"?>
<svg
   xmlns:dc="http://purl.org/dc/elements/1.1/"
   xmlns:cc="http://creativecommons.org/ns#"
   xmlns:rdf="http://www.w3.org/1999/02/22-rdf-syntax-ns#"
   xmlns:svg="http://www.w3.org/2000/svg"
   xmlns="http://www.w3.org/2000/svg"
   viewBox="0 0 30 16.25"
   height="16.25"
   width="30"
   xml:space="preserve"
   version="1.1"
   id="svg2"><metadata
     id="metadata8"><rdf:RDF><cc:Work
         rdf:about=""><dc:format>image/svg+xml</dc:format><dc:type
           rdf:resource="http://purl.org/dc/dcmitype/StillImage" /></cc:Work></rdf:RDF></metadata><defs
     id="defs6" /><g
     transform="matrix(1.25,0,0,-1.25,0,16.25)"
     id="g10"><g
       transform="scale(0.1,0.1)"
       id="g12"><path
         id="path14"
         style="fill:#0078d7;fill-opacity:1;fill-rule:evenodd;stroke:none"
         d="m 240,30.8984 c 0,11.293 -8.98,21.0235 -20.309,21.0235 l -2.972,0 c 0.781,4.4883 2.261,9.0586 2.261,14.2969 0,30 -24.761,53.9802 -53.98,53.9802 -23.281,0 -43.52,-15.777 -51.02,-36.7185 -3.781,0.6992 -7.5,2.2304 -11.992,2.2304 -20.9685,0 -36.7888,-16.5312 -36.7888,-37.5 0,-21.0195 16.5196,-37.5 36.7888,-37.5 l 118.524,0 C 231.801,11.4883 240,19.6914 240,30.8984 Z M 9.80078,67.6992 C 4.48828,67.6992 0,63.2109 0,58.0117 0,52.6992 4.48828,48.2109 9.80078,48.2109 l 46.41012,0 c 0,6.7891 1.5977,13.4688 4.5704,19.4883 l -50.98052,0 z M 60,29.5 l -36.7187,0 c -5.2696,0 -9.7618,-4.6094 -9.7618,-9.8086 C 13.5195,14.5 18.0117,10 23.2813,10 l 51.0195,0 C 68.2813,15.1992 63.0117,21.2188 60,29.5 Z m 48.789,64.4883 C 111.801,100 115.512,105.199 120,109.691 l -80.3086,0 C 34.4883,109.691 30,105.199 30,100 c 0,-5.3086 4.4883,-9.8008 9.6914,-9.8008 l 43.5078,0 c 6.0196,3.0117 12.1094,4.4922 23.7108,4.4102 -2.691,-0.6211 -0.43,-0.6211 1.879,-0.6211 z" /></g></g></svg>