<?xml version="1.0" encoding="UTF-8" standalone="no"?>
<svg
   xmlns:dc="http://purl.org/dc/elements/1.1/"
   xmlns:cc="http://creativecommons.org/ns#"
   xmlns:rdf="http://www.w3.org/1999/02/22-rdf-syntax-ns#"
   xmlns:svg="http://www.w3.org/2000/svg"
   xmlns="http://www.w3.org/2000/svg"
   viewBox="0 0 37.5 51.25"
   height="51.25"
   width="37.5"
   xml:space="preserve"
   version="1.1"
   id="svg2"><metadata
     id="metadata8"><rdf:RDF><cc:Work
         rdf:about=""><dc:format>image/svg+xml</dc:format><dc:type
           rdf:resource="http://purl.org/dc/dcmitype/StillImage" /></cc:Work></rdf:RDF></metadata><defs
     id="defs6" /><g
     transform="matrix(1.25,0,0,-1.25,0,51.25)"
     id="g10"><g
       transform="scale(0.1,0.1)"
       id="g12"><path
         id="path14"
         style="fill:#3999c6;fill-opacity:1;fill-rule:nonzero;stroke:none"
         d="M 0,353.211 0,64.3008 C 0,34.3008 67.1484,10 149.961,10 l 0,343.211 -149.961,0 z" /><path
         id="path16"
         style="fill:#59b4d9;fill-opacity:1;fill-rule:nonzero;stroke:none"
         d="m 147.891,10 2.07,0 c 82.769,0 149.918,24.3008 149.918,54.3008 l 0,288.9102 -151.988,0 0,-343.211 z" /><path
         id="path18"
         style="fill:#ffffff;fill-opacity:1;fill-rule:nonzero;stroke:none"
         d="m 299.879,353.211 c 0,-30 -67.149,-54.301 -149.918,-54.301 C 67.1484,298.91 0,323.211 0,353.211 c 0,30 67.1484,54.289 149.961,54.289 82.769,0 149.918,-24.289 149.918,-54.289" /><path
         id="path20"
         style="fill:#7fba00;fill-opacity:1;fill-rule:nonzero;stroke:none"
         d="m 269.219,356.328 c 0,-19.797 -53.399,-35.816 -119.258,-35.816 -65.9024,0 -119.3008,16.019 -119.3008,35.816 0,19.813 53.3984,35.82 119.3008,35.82 65.859,0 119.258,-16.007 119.258,-35.82" /><path
         id="path22"
         style="fill:#b8d432;fill-opacity:1;fill-rule:nonzero;stroke:none"
         d="m 244.262,334.422 c 15.578,6.047 25,13.668 25,21.867 0,19.813 -53.442,35.859 -119.301,35.859 -65.9024,0 -119.3008,-16.046 -119.3008,-35.859 0,-8.199 9.3789,-15.82 25,-21.867 21.8007,8.469 55.8988,13.937 94.3008,13.937 38.398,0 72.461,-5.468 94.301,-13.937" /><path
         id="path24"
         style="fill:#3999c6;fill-opacity:1;fill-rule:nonzero;stroke:none"
         d="m 82.1914,209.379 -13.6406,0 0,-78.008 13.789,0 c 12.1094,0 21.4882,3.789 28.4412,11.059 6.68,7.261 10.039,16.949 10.039,29.211 0,11.531 -3.359,20.589 -9.879,27.308 -6.839,6.949 -16.3707,10.43 -28.7496,10.43" /><path
         id="path26"
         style="fill:#59b4d9;fill-opacity:1;fill-rule:nonzero;stroke:none"
         d="m 219.879,186.488 c 3.32,2.891 5,6.684 5,11.371 0,9.141 -6.68,13.672 -20.149,13.672 l -10.429,0 0,-29.14 12.258,0 c 5.632,0 10.16,1.398 13.32,4.097" /><path
         id="path28"
         style="fill:#59b4d9;fill-opacity:1;fill-rule:nonzero;stroke:none"
         d="m 224.41,157.578 c -3.629,2.703 -8.59,4.223 -15,4.223 l -15.148,0 0,-32.379 15,0 c 6.398,0 11.519,1.476 15.308,4.527 3.481,3.051 5.309,6.949 5.309,12.11 0,4.839 -1.789,8.793 -5.469,11.519" /><path
         id="path30"
         style="fill:#ffffff;fill-opacity:1;fill-rule:nonzero;stroke:none"
         d="m 136.68,243.012 c 5.468,-5.821 9.648,-11.641 12.422,-17.5 2.027,-4.024 5.347,-14.614 9.918,-31.801 l 14.808,22.23 c 3.942,5.348 8.711,10.508 14.293,15.387 5.629,4.883 10.551,8.211 14.809,10 2.691,1.133 5.66,1.684 8.949,1.684 4.801,0 8.633,-1.293 11.48,-3.871 2.891,-2.571 4.301,-5.743 4.301,-9.411 0,-4.3 -0.82,-7.191 -2.5,-8.75 -3.172,-2.808 -6.762,-4.218 -10.781,-4.218 -2.348,0 -4.891,0.508 -7.578,1.527 -5.281,1.789 -8.789,2.652 -10.59,2.652 -2.691,0 -5.902,-1.562 -9.57,-4.691 -6.95,-5.82 -15.27,-17.109 -24.922,-33.82 l 13.832,-57.86 c 2.109,-8.859 3.898,-14.14 5.347,-15.89 1.481,-1.758 2.93,-2.621 4.372,-2.621 2.39,0 5.121,1.293 8.25,3.871 6.171,5.191 11.441,11.91 15.82,20.191 l 5.89,-3.012 c -7.07,-13.238 -16.011,-24.218 -26.91,-32.9684 -6.172,-4.9609 -11.371,-7.4218 -15.621,-7.4218 -6.289,0 -11.289,3.5625 -15,10.5898 -2.347,4.4104 -7.23,23.2424 -14.609,56.5194 -17.5,-30.387 -31.531,-49.957 -42.07,-58.6678 -6.8403,-5.6211 -13.4419,-8.4414 -19.8481,-8.4414 -4.4922,0 -8.5938,1.6406 -12.2617,4.8906 -2.6993,2.4609 -4.0704,5.7812 -4.0704,9.9216 0,3.707 1.25,6.789 3.711,9.258 2.4687,2.461 5.5078,3.711 9.1094,3.711 3.5898,0 7.3789,-1.801 11.3984,-5.391 2.9297,-2.578 5.2031,-3.871 6.7617,-3.871 1.3281,0 3.0899,0.903 5.1997,2.692 5.269,4.261 12.46,13.441 21.519,27.582 9.102,14.136 15.039,24.34 17.852,30.629 -6.95,27.218 -10.7,41.64 -11.289,43.238 -2.582,7.262 -5.942,12.422 -10.082,15.473 -4.141,3.007 -10.27,4.527 -18.321,4.527 -2.5779,0 -5.5779,-0.117 -8.9373,-0.348 l 0,6.047 44.9183,7.934 z" /></g></g></svg>