<?xml version="1.0" encoding="UTF-8" standalone="no"?>
<svg
   xmlns:dc="http://purl.org/dc/elements/1.1/"
   xmlns:cc="http://creativecommons.org/ns#"
   xmlns:rdf="http://www.w3.org/1999/02/22-rdf-syntax-ns#"
   xmlns:svg="http://www.w3.org/2000/svg"
   xmlns="http://www.w3.org/2000/svg"
   viewBox="0 0 81.25 82.5"
   height="82.5"
   width="81.25"
   xml:space="preserve"
   version="1.1"
   id="svg2"><metadata
     id="metadata8"><rdf:RDF><cc:Work
         rdf:about=""><dc:format>image/svg+xml</dc:format><dc:type
           rdf:resource="http://purl.org/dc/dcmitype/StillImage" /></cc:Work></rdf:RDF></metadata><defs
     id="defs6" /><g
     transform="matrix(1.25,0,0,-1.25,0,82.5)"
     id="g10"><g
       transform="scale(0.1,0.1)"
       id="g12"><path
         id="path14"
         style="fill:#0078d7;fill-opacity:1;fill-rule:evenodd;stroke:none"
         d="m 265.512,650.52 c -14.223,6.359 -31.024,7.691 -45.903,1.871 -14.918,-5.192 -27.23,-16.211 -33.629,-30.969 l -8.402,-17.5 -66.598,0 c -32.2691,0 -58.7886,-26.531 -58.7886,-58.832 l 0,-214.102 L 5.69922,231.609 C -0.820313,217.391 -2.10938,200.59 3.71094,185.789 8.91016,170.91 19.8789,158.602 34.6914,152.199 l 17.5,-8.519 0,-21.871 c 0,-32.309 26.5195,-58.7895 58.7886,-58.7895 l 212.731,0 100.777,-47.2304 c 7.703,-3.9102 16.801,-5.7774 25.203,-5.7774 7.11,0 13.59,1.2891 20.7,3.7891 14.808,5.1875 27.109,16.2109 33.589,31.0898 l 8.719,18.1289 21.602,0 c 32.379,0 58.898,26.4805 58.898,58.7895 l 0,167.5 47.11,100.703 c 7.191,14.879 7.781,30.976 1.992,46.476 -5.192,14.934 -16.211,27.192 -31.012,33.602 l -18.09,8.832 0,66.168 c 0,32.301 -26.519,58.832 -58.898,58.832 l -169.5,0 -99.289,46.598 z m 150.578,-276.719 -82.11,0 34.219,114.41 c 0.711,3.277 -0.621,6.488 -3.199,7.777 -0.59,0.621 -1.91,0.621 -2.621,0.621 -1.867,0 -3.899,-1.211 -5.078,-2.5 l -132.5,-193.32 c -1.321,-1.867 -1.321,-4.488 -0.699,-6.48 1.289,-1.918 3.199,-3.207 5.777,-3.207 l 79.531,0 -35.5,-116.293 c -0.711,-3.321 0.578,-6.52 3.199,-7.809 0.7,-0.578 1.993,-0.578 2.582,-0.578 1.911,0 3.899,1.277 5.188,2.566 l 136.332,195.121 c 0.699,1.289 1.289,2.582 1.289,3.911 0,3.281 -3.199,5.781 -6.41,5.781 z m -305.11,191.398 423.321,0 c 10.39,0 19.41,-8.39 19.41,-19.41 l 0,-423.398 c 0,-10.27 -8.402,-19.371 -19.41,-19.371 l -423.321,0 c -10.281,0 -19.3784,8.402 -19.3784,19.371 l 0,423.398 c 0,10.313 8.3984,19.41 19.3784,19.41 z" /></g></g></svg>