<?xml version="1.0" encoding="UTF-8" standalone="no"?>
<svg
   xmlns:dc="http://purl.org/dc/elements/1.1/"
   xmlns:cc="http://creativecommons.org/ns#"
   xmlns:rdf="http://www.w3.org/1999/02/22-rdf-syntax-ns#"
   xmlns:svg="http://www.w3.org/2000/svg"
   xmlns="http://www.w3.org/2000/svg"
   viewBox="0 0 41.25 48.75"
   height="48.75"
   width="41.25"
   xml:space="preserve"
   version="1.1"
   id="svg2"><metadata
     id="metadata8"><rdf:RDF><cc:Work
         rdf:about=""><dc:format>image/svg+xml</dc:format><dc:type
           rdf:resource="http://purl.org/dc/dcmitype/StillImage" /></cc:Work></rdf:RDF></metadata><defs
     id="defs6" /><g
     transform="matrix(1.25,0,0,-1.25,0,48.75)"
     id="g10"><g
       transform="scale(0.1,0.1)"
       id="g12"><path
         id="path14"
         style="fill:#0078d7;fill-opacity:1;fill-rule:evenodd;stroke:none"
         d="m 260.23,380.512 c -2.96,3.707 -8.199,4.488 -8.199,4.488 l -200.2693,0 c -30,0 -30,-24.691 -30,-24.691 l 0,-35.309 23.2774,0 c 11.9922,0 22.5,-9.691 22.5,-22.5 0,-11.988 -9.8086,-22.5 -22.5,-22.5 l -23.2774,0 0,-32.301 23.2774,0 c 11.9922,0 22.5,-9.687 22.5,-22.39 0,-12.028 -9.8086,-22.61 -22.5,-22.61 l -23.2774,0 0,-32.187 23.2774,0 c 11.9922,0 22.5,-9.731 22.5,-22.5 0,-11.992 -9.8086,-22.5 -22.5,-22.5 l -23.2774,0 0,-25.512 c 0,-6.0195 4.4883,-10.5117 10.5078,-10.5117 l 92.2615,0 0,126.0237 c 0,32.187 44.219,54.797 107.231,54.797 l 0,78.671 c 0,6.02 0,6.801 -6.024,6.801 l -183.0075,0 c -0.6992,12.028 11.3281,15 11.3281,15 l 182.9724,0 c 11.207,0 11.207,-9.761 11.207,-9.761 l 0,-90.711 c 4.492,0 8.321,-0.821 11.992,-0.821 l 1.532,0 0,105.821 c 0,1.492 -0.711,3.671 -1.532,5.203 z" /><path
         id="path16"
         style="fill:#0078d7;fill-opacity:1;fill-rule:evenodd;stroke:none"
         d="m 233.98,251.48 c -53.281,0 -90,-17.179 -90,-35.968 l 0,-170.2034 C 146.988,27.3008 184.488,10 235.512,10 c 52.5,0 86.289,16.4805 86.988,35.3086 l 0,168.6714 c 0,18.829 -35.309,37.5 -88.52,37.5 z m 1.532,-52.5 c -38.321,0 -69.032,9.032 -69.032,19.54 0,11.281 30.711,19.492 69.032,19.492 38.277,0 63.707,-9.032 63.707,-20.203 0,-10.508 -26.207,-18.829 -63.707,-18.829 z" /><path
         id="path18"
         style="fill:#0078d7;fill-opacity:1;fill-rule:evenodd;stroke:none"
         d="M 55.5117,226.02 C 55.5117,220 51.0195,215.512 45,215.512 l -34.4883,0 C 4.48828,215.512 0,220 0,226.02 c 0,5.968 4.48828,10.46 10.5117,10.46 l 34.4883,0 c 6.0195,0.711 10.5117,-4.492 10.5117,-10.46 z" /><path
         id="path20"
         style="fill:#0078d7;fill-opacity:1;fill-rule:evenodd;stroke:none"
         d="M 55.5117,303.238 C 55.5117,297.27 51.0195,292.73 45,292.73 l -34.4883,0 C 4.48828,292.73 0,297.27 0,303.238 c 0,6.024 4.48828,10.512 10.5117,10.512 l 34.4883,0 c 6.0195,0 10.5117,-5.199 10.5117,-10.512 z" /><path
         id="path22"
         style="fill:#0078d7;fill-opacity:1;fill-rule:evenodd;stroke:none"
         d="M 55.5117,149.488 C 55.5117,143.52 51.0195,138.98 45,138.98 l -34.4883,0 C 4.48828,138.98 0,143.52 0,149.488 0,155.512 4.48828,160 10.5117,160 L 45,160 c 6.0195,0 10.5117,-4.488 10.5117,-10.512 z" /></g></g></svg>