<?xml version="1.0" encoding="UTF-8" standalone="no"?>
<svg
   xmlns:dc="http://purl.org/dc/elements/1.1/"
   xmlns:cc="http://creativecommons.org/ns#"
   xmlns:rdf="http://www.w3.org/1999/02/22-rdf-syntax-ns#"
   xmlns:svg="http://www.w3.org/2000/svg"
   xmlns="http://www.w3.org/2000/svg"
   viewBox="0 0 162.5 128.75"
   height="128.75"
   width="162.5"
   xml:space="preserve"
   version="1.1"
   id="svg2"><metadata
     id="metadata8"><rdf:RDF><cc:Work
         rdf:about=""><dc:format>image/svg+xml</dc:format><dc:type
           rdf:resource="http://purl.org/dc/dcmitype/StillImage" /></cc:Work></rdf:RDF></metadata><defs
     id="defs6" /><g
     transform="matrix(1.25,0,0,-1.25,0,128.75)"
     id="g10"><g
       transform="scale(0.1,0.1)"
       id="g12"><path
         id="path14"
         style="fill:#0078d7;fill-opacity:1;fill-rule:evenodd;stroke:none"
         d="m 763.59,919.609 -37.379,64.571 c -14.301,24.61 -41.41,40.12 -69.801,40.12 l -576.2889,0 C 36.2109,1024.3 0,988.09 0,944.18 l 0,-41.371 777.809,0 c -6.399,3.871 -10.309,10.39 -14.219,16.8 z M 810.121,473.91 581.41,146.988 c -2.5,-2.578 -5.121,-5.187 -9.031,-5.187 -1.289,0 -3.859,0 -5.188,1.289 -5.082,2.609 -7.703,7.691 -5.082,12.93 l 59.371,195.07 -133.082,0 c -3.91,0 -7.699,2.621 -10.308,6.531 -1.289,3.867 -1.289,7.688 1.32,11.559 l 222.192,323.011 c 2.578,2.618 5.199,5.188 9.097,5.188 1.211,0 2.5,0 5.082,-1.289 5.239,-2.57 7.809,-7.692 5.239,-12.891 l -56.918,-191.211 136.988,0 c 6.531,0 11.609,-5.187 11.609,-11.679 0,-2.61 -1.289,-3.899 -2.578,-6.399 z M 1241.68,861.488 0,861.488 0,90.1211 C 0,46.2109 36.2109,10 80.1211,10 L 1211.99,10 c 43.91,0 80.12,36.2109 80.12,80.1211 l 0,697.6879 c 0,32.269 -20.7,60.781 -50.43,73.679 z" /></g></g></svg>