<?xml version="1.0" encoding="UTF-8" standalone="no"?>
<svg
   xmlns:dc="http://purl.org/dc/elements/1.1/"
   xmlns:cc="http://creativecommons.org/ns#"
   xmlns:rdf="http://www.w3.org/1999/02/22-rdf-syntax-ns#"
   xmlns:svg="http://www.w3.org/2000/svg"
   xmlns="http://www.w3.org/2000/svg"
   viewBox="0 0 51.25 86.25"
   height="86.25"
   width="51.25"
   xml:space="preserve"
   version="1.1"
   id="svg2"><metadata
     id="metadata8"><rdf:RDF><cc:Work
         rdf:about=""><dc:format>image/svg+xml</dc:format><dc:type
           rdf:resource="http://purl.org/dc/dcmitype/StillImage" /></cc:Work></rdf:RDF></metadata><defs
     id="defs6" /><g
     transform="matrix(1.25,0,0,-1.25,0,86.25)"
     id="g10"><g
       transform="scale(0.1,0.1)"
       id="g12"><path
         id="path14"
         style="fill:#0078d7;fill-opacity:1;fill-rule:evenodd;stroke:none"
         d="m 392.461,433.191 -167.5,0 69.879,233.399 c 1.332,6.601 -1.289,13.129 -6.602,15.82 -1.289,1.289 -3.898,1.289 -5.269,1.289 -3.91,0 -7.93,-2.621 -10.508,-5.308 L 2.14844,284.211 C -0.429688,280.301 -0.429688,274.988 0.859375,271 3.55078,267.102 7.46094,264.48 12.7695,264.48 l 162.0705,0 -72.5,-237.2612 c -1.289,-6.6094 1.41,-13.2071 6.609,-15.8985 1.281,-1.33202 4.02,-1.33202 5.313,-1.33202 3.976,0 7.886,2.62112 10.508,5.31252 L 402.969,413.391 c 1.293,2.687 2.691,5.308 2.691,7.929 0,6.602 -6.601,11.871 -13.199,11.871 z" /></g></g></svg>