<?xml version="1.0" encoding="UTF-8" standalone="no"?>
<svg
   xmlns:dc="http://purl.org/dc/elements/1.1/"
   xmlns:cc="http://creativecommons.org/ns#"
   xmlns:rdf="http://www.w3.org/1999/02/22-rdf-syntax-ns#"
   xmlns:svg="http://www.w3.org/2000/svg"
   xmlns="http://www.w3.org/2000/svg"
   viewBox="0 0 50 51.25"
   height="51.25"
   width="50"
   xml:space="preserve"
   version="1.1"
   id="svg2"><metadata
     id="metadata8"><rdf:RDF><cc:Work
         rdf:about=""><dc:format>image/svg+xml</dc:format><dc:type
           rdf:resource="http://purl.org/dc/dcmitype/StillImage" /></cc:Work></rdf:RDF></metadata><defs
     id="defs6" /><g
     transform="matrix(1.25,0,0,-1.25,0,51.25)"
     id="g10"><g
       transform="scale(0.1,0.1)"
       id="g12"><path
         id="path14"
         style="fill:#0078d7;fill-opacity:1;fill-rule:nonzero;stroke:none"
         d="M 400,209.199 C 400,254 384.801,297.211 356.801,332.398 L 355.199,334 c -0.789,0.789 -0.789,1.609 -1.609,2.391 L 340.781,349.98 C 303.199,388.422 253.59,409.199 200,409.199 l -1.602,0 C 145.59,408.422 96.8008,388.422 59.2188,350.801 l -13.629,-14.41 c -0.789,-0.782 -0.789,-1.602 -1.6093,-2.391 l -1.6016,-0.82 C 15.1992,297.988 0,254 0,209.199 0,164.398 15.1992,121.191 43.1992,86 l 1.6016,-1.6016 c 0.789,-0.789 0.789,-1.6093 1.6094,-2.3867 L 59.2188,68.4219 C 96.8008,30.8008 145.59,9.98047 198.398,9.98047 l 1.602,0 c 52.809,0 103.199,20.82033 140.781,58.44143 l 12.809,14.3672 c 0.82,0.8203 0.82,1.6093 1.609,2.4297 l 1.602,1.6015 C 384.801,120.41 400,164.398 400,209.199 Z M 319.219,339.59 c -0.821,0 -1.598,-0.781 -2.418,-0.781 -1.602,-0.821 -3.211,-1.598 -3.992,-1.598 -3.2,-1.602 -7.219,-2.422 -11.207,-4.031 -0.821,0 -1.602,-0.782 -2.383,-0.782 -4.809,-1.597 -8.828,-2.418 -13.629,-3.976 -0.789,0 -2.391,-0.82 -3.211,-0.82 -7.18,19.218 -15.969,36.007 -26.359,48.789 23.199,-7.192 44.761,-20 63.199,-36.801 z M 198.398,386 c 22.383,0 44.801,-23.211 60.821,-63.211 -18.438,-3.199 -38.438,-4.801 -59.219,-4.801 -20.781,0 -41.602,1.602 -60.781,4.801 15.191,39.223 37.582,62.43 59.179,63.211 z m -56.796,-10.391 c -9.614,-12.82 -18.403,-28.789 -25.582,-48.007 l -1.61,0 c -4.801,1.597 -9.609,2.378 -13.629,3.976 -0.781,0 -1.5622,0.82 -2.3826,0.82 -3.1992,1.602 -7.1875,3.211 -10.3867,4.813 -1.6015,0.777 -2.4219,0.777 -4.0312,1.598 -0.7813,0.781 -1.6016,0.781 -3.1992,1.601 18.4375,15.199 38.4377,28.012 60.8207,35.199 z M 80.7813,78.8086 c 0.8203,0 1.5976,0.7812 2.4179,0.7812 1.6016,0.8204 2.3906,0.8204 3.9922,1.6016 3.1992,1.5977 7.2188,2.418 11.207,4.0274 0.8204,0 1.6016,0.7812 2.3826,0.7812 4.809,1.6016 8.828,2.4219 13.629,3.9805 l 1.61,0 C 123.199,71.5781 131.988,54.7891 141.602,42.0117 119.219,49.9805 98.3984,62.7891 80.7813,78.8086 Z M 199.219,32.3984 c -22.418,0.7813 -44.809,23.211 -60,62.3907 19.179,3.1992 40,4.8007 60.781,4.8007 20.781,0 40,-1.6015 59.219,-4.8007 -15.239,-39.1797 -38.438,-62.3907 -60,-62.3907 z m 56.801,9.6133 c 10.39,12.7774 19.179,29.5664 26.359,48.7891 0.82,0 2.422,-0.8203 3.211,-0.8203 4.801,-1.5586 9.609,-2.3789 13.629,-3.9805 0.781,0 1.562,-0.7812 2.383,-0.7812 3.988,-1.6094 7.187,-2.4297 11.207,-4.0274 1.601,-0.7812 2.39,-0.7812 3.992,-1.6016 0.82,0 1.597,-0.7812 3.199,-1.6015 C 300.781,62.0117 279.219,49.1992 256.02,42.0117 Z m 80.781,55.1992 c -2.391,0 -3.992,0.7774 -6.41,1.5977 -2.379,0.7812 -5.59,2.3824 -8.012,3.2034 -0.777,0 -1.598,0.777 -2.379,0.777 -9.609,4.031 -20,6.41 -30.391,9.609 2.379,9.614 4.801,19.18 6.411,28.793 l -24.032,0 c -1.597,-8.793 -3.199,-16.793 -5.578,-23.98 -20.82,3.98 -43.211,5.578 -66.41,5.578 -23.98,0 -46.41,-2.379 -68.012,-6.398 -2.379,8.007 -3.976,16.007 -5.578,24.8 l -24.031,0 c 1.601,-10.39 4.031,-20 6.41,-29.613 C 99.2188,109.199 89.6094,106 80.7813,102.789 80,102.012 78.3984,102.012 77.6211,101.191 c -2.4219,-0.781 -5.6328,-2.3824 -8.0117,-3.2027 -1.5977,0 -4.0196,-0.7774 -5.6289,-1.5977 C 40,125.219 26.4102,161.191 23.9805,197.988 l 20,0 0,23.203 -20,0 c 2.4297,36.797 16.0195,71.989 39.2187,100 l 0.7813,0.821 c 1.6093,-0.821 4.0312,-1.602 5.6289,-2.422 3.1992,-1.602 5.5898,-2.379 8.789,-3.981 0.8204,0 1.6016,-0.82 2.3829,-0.82 8.8281,-3.211 18.4375,-6.367 28.8277,-8.789 -2.418,-8.789 -4.019,-17.578 -5.629,-26.41 l 24.032,0 c 1.597,7.23 3.199,15.199 4.797,21.601 21.601,-3.98 44.812,-6.402 67.972,-6.402 23.199,0 45.629,2.422 66.41,5.621 1.598,-6.41 3.2,-13.59 4.797,-21.601 l 24.032,0 c -1.61,8.793 -3.211,17.582 -5.629,26.41 10.39,2.383 20,5.582 29.609,9.57 0.781,0 2.379,0.82 3.199,0.82 3.211,0.782 5.59,2.379 8.789,3.2 1.602,0.781 4.032,1.601 5.633,2.382 23.16,-28.793 37.578,-63.98 40,-100.781 l -24.031,0 0,-23.199 24.031,0 C 373.59,161.191 360,125.219 336.801,97.2109 Z" /><path
         id="path16"
         style="fill:#0078d7;fill-opacity:1;fill-rule:nonzero;stroke:none"
         d="m 149.609,210.801 c 0,-9.61 -1.597,-17.621 -4.019,-23.981 -2.391,-6.41 -6.371,-12.031 -10.391,-16.84 -4.808,-3.98 -10.398,-7.191 -16.801,-9.57 -6.41,-1.601 -14.418,-3.199 -23.9878,-3.199 l -24.8008,0 c -1.5977,0 -3.1992,0.777 -4.8086,1.598 -1.6016,0.781 -0.8203,3.203 -0.8203,5.589 l 0,90.391 c 0,2.422 0.8203,4.02 1.6093,4.801 0.8204,0.82 2.4219,1.601 4.8008,1.601 l 26.4102,0 c 9.6092,0 16.7892,-0.781 23.1992,-3.203 6.41,-2.379 11.988,-5.59 16.02,-9.566 3.98,-4.024 7.96,-9.613 10.39,-16.024 1.602,-6.398 3.199,-13.589 3.199,-21.597 z m -21.597,-0.821 c 0,4.809 -0.821,9.61 -1.602,13.629 -0.82,3.993 -3.211,7.969 -5.629,11.18 -2.383,3.199 -5.582,5.621 -9.57,7.223 -4.02,1.597 -8.832,2.386 -16.0118,2.386 l -10.3984,0 0,-70.398 11.2187,0 c 5.5825,0 10.3905,0.789 14.3715,2.391 4.019,1.597 7.23,4.019 9.609,6.398 2.379,3.211 4.801,6.41 5.59,11.211 1.601,4.809 2.422,10.398 2.422,15.98 z" /><path
         id="path18"
         style="fill:#0078d7;fill-opacity:1;fill-rule:nonzero;stroke:none"
         d="m 251.988,165.219 c 0,-1.61 0,-2.43 -0.777,-3.207 -0.82,-0.821 -0.82,-1.602 -1.602,-2.422 -0.82,-0.781 -1.597,-0.781 -2.418,-1.602 -0.781,0 -1.601,-0.777 -3.211,-0.777 l -8.781,0 c -1.609,0 -3.211,0 -4.808,0.777 -1.602,0 -2.379,0.821 -3.981,2.422 -0.82,0.781 -2.43,2.379 -3.211,3.988 -0.82,1.602 -2.418,4.024 -3.199,6.403 l -25.59,48.008 c -1.601,3.203 -3.199,5.589 -4.801,9.613 -1.597,3.156 -3.199,6.367 -4.019,9.566 0,-3.988 0,-8.008 0.82,-11.168 l 0,-66.41 c 0,-0.82 0,-0.82 -0.82,-1.601 0,-0.821 -0.789,-0.821 -1.61,-0.821 -0.781,0 -1.601,-0.777 -3.199,-0.777 l -9.57,0 c -1.602,0 -2.422,0 -3.199,0.777 -0.821,0 -0.821,0.821 -1.602,0.821 l 0,94.371 c 0,2.429 0.781,4.031 2.379,5.629 1.602,1.601 3.199,1.601 5.621,1.601 l 11.18,0 c 2.422,0 4.019,0 4.801,-0.82 1.597,0 2.418,-0.781 4.019,-1.602 0.789,-0.777 2.391,-1.597 3.211,-3.199 0.777,-1.609 1.598,-3.211 3.16,-5.59 l 20,-37.621 c 0.821,-2.379 2.418,-4.758 3.199,-6.359 0.821,-2.43 2.43,-4.809 3.211,-6.41 0.821,-2.418 2.418,-4.02 3.2,-6.411 0.82,-2.418 1.597,-3.976 3.199,-6.398 l 0,71.988 c 0,0.821 0,0.821 0.82,1.602 0,0.82 0.789,0.82 1.61,0.82 0.781,0 1.601,0.781 3.199,0.781 l 9.57,0 c 1.602,0 2.422,0 3.199,-0.781 0.821,0 0.821,-0.82 1.602,-0.82 l 0,-94.371 -1.602,0 z" /><path
         id="path20"
         style="fill:#0078d7;fill-opacity:1;fill-rule:nonzero;stroke:none"
         d="m 336.02,188.422 c 0,-5.633 -0.821,-10.434 -3.211,-14.422 -2.418,-4.02 -4.797,-7.18 -8.008,-10.391 -3.199,-2.418 -7.18,-4.8 -11.992,-6.398 -4.797,-1.602 -9.61,-2.422 -15.188,-2.422 -3.211,0 -7.23,0 -9.609,0.82 -2.422,0.782 -5.633,1.602 -8.012,2.379 -2.379,0.821 -3.98,1.602 -5.59,2.422 -1.601,0.781 -2.422,1.602 -3.199,2.379 -0.82,0.82 -0.82,1.609 -1.602,3.211 0,1.602 -0.82,3.199 -0.82,5.578 l 0,4.031 c 0,0.782 0,2.379 0.82,2.379 0,0.821 0.782,0.821 0.782,1.602 0,0 0.82,0.82 1.597,0.82 0.821,0 1.602,-0.82 3.211,-1.601 1.602,-0.821 3.199,-1.598 5.582,-3.2 2.418,-0.82 4.809,-2.429 8.008,-3.211 3.199,-0.82 6.41,-1.597 10.43,-1.597 2.383,0 4.761,0 7.191,0.777 2.379,0.82 3.981,1.602 4.801,2.422 1.598,0.789 2.379,2.391 3.199,3.988 0.789,1.602 0.789,3.203 0.789,5.621 0,2.391 -0.789,3.993 -1.609,6.371 l -4.801,4.809 c -2.379,1.602 -3.988,2.422 -7.187,4.02 -2.383,0.781 -5.582,2.382 -8.012,3.98 -2.379,1.609 -5.578,2.43 -8,4.031 -2.391,1.602 -4.809,3.16 -7.192,5.578 -2.378,2.391 -3.988,4.813 -4.808,8.012 -1.602,3.199 -1.602,6.41 -1.602,11.168 0,4.813 0.821,9.613 2.422,12.82 1.61,4.024 3.988,7.18 7.192,9.602 3.199,2.391 6.41,3.988 11.207,5.59 3.992,1.601 8.793,1.601 13.601,1.601 2.379,0 4.801,0 7.18,-0.781 2.43,0 4.808,-0.82 7.191,-1.601 2.418,-0.821 4.02,-1.598 5.629,-2.418 1.602,-0.782 2.379,-1.602 3.199,-1.602 0.782,-0.789 0.782,-0.789 0.782,-1.609 0,0 0,-0.782 0.82,-1.602 l 0,-11.988 c 0,-0.781 -0.82,-0.781 -0.82,-1.602 0,0 -0.782,-0.777 -1.602,-0.777 -0.777,0 -1.598,0 -2.379,0.777 l -4.808,2.422 c -1.602,0.781 -3.981,1.602 -6.403,2.379 -2.39,0.82 -4.808,0.82 -8.008,0.82 -2.39,0 -3.992,0 -5.589,-0.82 -1.602,-0.777 -3.204,-1.598 -3.981,-2.379 -0.82,-0.82 -1.601,-2.422 -2.422,-3.199 -0.789,-1.602 -0.789,-3.211 -0.789,-4.031 0,-2.379 0.789,-3.981 1.61,-5.578 l 4.761,-4.813 c 2.418,-1.598 4.809,-2.379 7.231,-3.98 2.379,-0.821 5.578,-2.418 8.008,-4.02 2.378,-1.609 5.582,-2.391 7.96,-3.988 2.43,-1.602 4.809,-3.199 7.231,-5.582 2.379,-2.43 3.988,-4.809 4.809,-8.008 -0.821,-0.82 0,-4.031 0,-8.789 z" /></g></g></svg>