<?xml version="1.0" encoding="UTF-8" standalone="no"?>
<svg
   xmlns:dc="http://purl.org/dc/elements/1.1/"
   xmlns:cc="http://creativecommons.org/ns#"
   xmlns:rdf="http://www.w3.org/1999/02/22-rdf-syntax-ns#"
   xmlns:svg="http://www.w3.org/2000/svg"
   xmlns="http://www.w3.org/2000/svg"
   viewBox="0 0 15 17.5"
   height="17.5"
   width="15"
   xml:space="preserve"
   version="1.1"
   id="svg2"><metadata
     id="metadata8"><rdf:RDF><cc:Work
         rdf:about=""><dc:format>image/svg+xml</dc:format><dc:type
           rdf:resource="http://purl.org/dc/dcmitype/StillImage" /></cc:Work></rdf:RDF></metadata><defs
     id="defs6" /><g
     transform="matrix(1.25,0,0,-1.25,0,17.5)"
     id="g10"><g
       transform="scale(0.1,0.1)"
       id="g12"><path
         id="path14"
         style="fill:#0078d7;fill-opacity:1;fill-rule:nonzero;stroke:none"
         d="m 105.59,118.789 -10.3908,10.43 -4.8086,3.98 -77.582,0 0,-109.6092 97.5824,0 0,90.3902 -4.801,4.809 z" /><path
         id="path16"
         style="fill:#f6f6f6;fill-opacity:1;fill-rule:nonzero;stroke:none"
         d="m 90.3906,129.219 -72.7695,0 0,-101.6096 87.9689,0 0,86.3706 -15.1994,0 0,15.239 z" /><path
         id="path18"
         style="fill:#0078d7;fill-opacity:1;fill-rule:nonzero;stroke:none"
         d="M 91.9883,105.191 81.6016,115.578 76.8008,119.609 0,119.609 0,10 l 96.8008,0 0,90.391 -4.8125,4.8 z" /><path
         id="path20"
         style="fill:#ffffff;fill-opacity:1;fill-rule:nonzero;stroke:none"
         d="m 76.8008,115.578 -72.82033,0 0,-101.5975 88.00783,0 0,85.6289 -15.1875,0 0,15.9686 z" /><path
         id="path22"
         style="fill:#0078d7;fill-opacity:1;fill-rule:nonzero;stroke:none"
         d="m 77.6211,59.6094 c -4.0313,0 -5.6328,-2.4297 -5.6328,-5.6289 l 0,-7.1914 c 0,-3.9805 -0.7774,-7.1797 -2.3789,-8.7891 -1.5977,-1.6016 -5.6289,-2.4219 -10.3906,-2.4219 l 0,5.6328 c 2.3828,0 3.1601,0.7774 3.9804,0.7774 0.7813,0.8203 0.7813,2.4219 0.7813,4.0234 l 0,7.1875 c 0,5.5899 2.4297,8.7891 5.6289,9.6094 -3.1992,0.7812 -5.6289,3.9805 -5.6289,9.6133 l 0,7.1875 c 0,3.9804 -2.3789,5.582 -5.5821,5.582 l 0,6.4102 2.3829,0 c 3.1992,0 5.6289,-0.7813 7.2304,-2.3828 2.3789,-2.4297 2.3789,-5.629 2.3789,-9.6094 l 0,-7.1875 c 0,-4.0235 2.418,-5.6328 5.6289,-5.6328 l 1.6016,-7.1797 z M 36.0195,35.5781 c -4.0312,0 -8.8281,0.8203 -10.4297,2.4219 -2.3906,2.3906 -2.3906,3.9883 -2.3906,8.7891 l 0,7.1914 c 0,4.0195 -1.5976,6.4101 -4.8008,6.4101 l 0,5.6211 c 3.2032,0 3.9805,2.3867 3.9805,6.4102 l 0,6.3672 c 0,4.0195 0.8203,7.2226 3.2109,8.8203 2.4219,2.3906 5.6211,3.2109 10.4297,3.2109 l 0,-6.4101 c -3.2109,0.7812 -5.6289,-1.6016 -5.6289,-5.6211 l 0,-6.3672 c 0,-5.6328 -2.3789,-8.8321 -5.5898,-9.6133 3.2109,-0.8203 5.5898,-4.0195 5.5898,-9.6094 l 0,-6.4101 c 0,-2.3789 0.8203,-3.9805 0.8203,-3.9805 0.7774,-2.418 2.3789,-2.418 3.9883,-2.418 l 0,-5.5898 0.8203,0 0,0.7773 z" /></g></g></svg>