<?xml version="1.0" encoding="UTF-8" standalone="no"?>
<svg
   xmlns:dc="http://purl.org/dc/elements/1.1/"
   xmlns:cc="http://creativecommons.org/ns#"
   xmlns:rdf="http://www.w3.org/1999/02/22-rdf-syntax-ns#"
   xmlns:svg="http://www.w3.org/2000/svg"
   xmlns="http://www.w3.org/2000/svg"
   viewBox="0 0 27.5 37.5"
   height="37.5"
   width="27.5"
   xml:space="preserve"
   version="1.1"
   id="svg2"><metadata
     id="metadata8"><rdf:RDF><cc:Work
         rdf:about=""><dc:format>image/svg+xml</dc:format><dc:type
           rdf:resource="http://purl.org/dc/dcmitype/StillImage" /></cc:Work></rdf:RDF></metadata><defs
     id="defs6" /><g
     transform="matrix(1.25,0,0,-1.25,0,37.5)"
     id="g10"><g
       transform="scale(0.1,0.1)"
       id="g12"><path
         id="path14"
         style="fill:#0078d7;fill-opacity:1;fill-rule:nonzero;stroke:none"
         d="M 108.012,290.801 C 48.0117,290.801 0,270.801 0,249.199 L 0,52.3984 C 0,30.8008 48.7891,10.0195 108.012,10.0195 c 60,0 108.008,19.1797 108.008,41.5586 l 0,196.8439 c 0,21.598 -48.008,42.379 -108.008,42.379 z M 2.37891,44.3906 l 0,2.4297 0,-2.4297 z M 76.8008,166.82 c -7.1914,0 -10.3906,2.379 -10.3906,-5.629 l 0,-15.191 c 0,-11.219 -1.6094,-18.398 -9.6094,-20.789 l 0,-0.82 c 8,-3.2 9.6094,-11.993 9.6094,-25.5824 l 0,-17.6172 c 0,-5.5898 0.7812,-5.5898 2.3789,-8.0117 1.6015,-2.3789 4.0195,-2.3789 8.0117,-2.3789 l 0,-15.1992 c -11.211,0 -19.1797,2.3867 -23.9922,6.4101 C 48.0117,66 45.5898,74 45.5898,85.2109 l 0,19.1801 c 0,10.39 -3.9882,10.39 -10.3906,10.39 l 0,20 c 7.1797,0 10.3906,0 10.3906,8.828 l 0,15.2 c 0,9.613 2.4219,15.972 7.2188,19.179 4.8125,4.024 12.7812,5.621 23.9922,5.621 l 0,-16.789 z m 106.3982,-36.8 0,-16.02 c -7.179,0 -10.39,0 -10.39,-10.391 l 0,-18.3981 C 172.809,74 170.391,66 165.59,61.1914 160.781,57.2109 152.809,54.7813 140.781,54.7813 l 0,15.2382 c 3.199,0 6.41,0.7813 8.008,2.3789 1.602,2.3829 2.422,2.3829 2.422,8.0118 l 0,17.5781 c 0,13.5897 2.379,21.6017 10.391,25.6207 l 0,0.782 C 153.59,126.82 151.211,134 151.211,146 l 0,14.41 c 0,8.012 -4.02,5.59 -10.43,5.59 l 0,16.789 c 11.207,0 19.219,-2.379 24.02,-5.578 4.808,-4.031 8.008,-10.391 8.008,-19.223 l 0,-15.199 c 0,-8.789 3.211,-8.008 10.39,-8.008 l 0,-4.761 z m -75.187,100 c -42.4222,0 -76.8011,10.39 -76.8011,23.16 0,12.82 34.3789,23.211 76.8011,23.211 42.379,0 76.789,-10.391 76.789,-23.211 0,-12.77 -34.41,-23.16 -76.789,-23.16 z" /></g></g></svg>