<?xml version="1.0" encoding="UTF-8" standalone="no"?>
<svg
   xmlns:dc="http://purl.org/dc/elements/1.1/"
   xmlns:cc="http://creativecommons.org/ns#"
   xmlns:rdf="http://www.w3.org/1999/02/22-rdf-syntax-ns#"
   xmlns:svg="http://www.w3.org/2000/svg"
   xmlns="http://www.w3.org/2000/svg"
   viewBox="0 0 15 17.5"
   height="17.5"
   width="15"
   xml:space="preserve"
   version="1.1"
   id="svg2"><metadata
     id="metadata8"><rdf:RDF><cc:Work
         rdf:about=""><dc:format>image/svg+xml</dc:format><dc:type
           rdf:resource="http://purl.org/dc/dcmitype/StillImage" /></cc:Work></rdf:RDF></metadata><defs
     id="defs6" /><g
     transform="matrix(1.25,0,0,-1.25,0,17.5)"
     id="g10"><g
       transform="scale(0.1,0.1)"
       id="g12"><path
         id="path14"
         style="fill:#0078d7;fill-opacity:1;fill-rule:nonzero;stroke:none"
         d="m 50.3906,47.5898 8.82813,0 0,25.5898 -8.82813,0 0,-25.5898 z" /><path
         id="path16"
         style="fill:#0078d7;fill-opacity:1;fill-rule:nonzero;stroke:none"
         d="M 48.7891,132.398 C 22.3789,132.398 0,122.012 0,113.18 L 0,32.3984 C 0,22.0117 28.0117,13.1797 53.5898,13.1797 c 25.629,0 47.1912,8.832 47.1912,18.4414 l 0,80.7769 c 0,9.614 -25.5818,20 -51.9919,20 z m 1.6015,-8.007 c 18.3985,0 33.5899,-3.981 33.5899,-9.61 0,-5.582 -15.1914,-8.793 -33.5899,-8.793 -18.4023,0 -33.5898,3.211 -33.5898,9.614 0,6.41 15.1875,8.789 33.5898,8.789 z" /><path
         id="path18"
         style="fill:#ffffff;fill-opacity:1;fill-rule:nonzero;stroke:none"
         d="m 85.5898,58.8086 c -3.2109,0 -4.8085,-1.6094 -4.8085,-6.4102 l 0,-7.1875 C 80.7813,40.4102 80,37.9883 77.6211,34.7813 76.0195,33.1797 71.9883,32.3984 66.4102,32.3984 l 0,6.4102 c 1.6015,0 3.1992,0.7812 3.9804,1.6016 0.8203,0.7812 1.5977,2.3789 1.5977,3.9804 l 0,7.2305 c 0,4.7578 1.6015,9.5703 4.8125,10.3906 -2.3906,1.5977 -3.9922,5.5899 -3.9922,11.168 l 0,8.0117 c 0,4.7969 -2.418,6.4102 -5.6172,6.4102 l 0,6.3984 2.418,0 c 3.1992,0 6.4101,-1.6016 8.789,-3.1992 C 80,89.1992 81.6016,85.9883 81.6016,80.4102 l 0,-7.2305 c 0,-3.9805 1.5976,-6.3711 4.8086,-6.3711 l -0.8204,-8 z m -52,-25.6289 c -4.8007,0 -8.789,0.8203 -11.2109,2.4219 -1.5976,1.5976 -3.1601,4.8086 -3.1601,9.6093 l 0,8.7891 c 0,3.9883 -1.5977,6.4102 -4.8086,6.4102 l 0,6.3984 c 3.2109,0 4.8086,2.3906 4.8086,6.3711 l 0,7.2305 c 0,4.8007 0.7812,7.1914 3.1601,10.3906 2.4219,1.5976 5.6328,2.3789 11.2109,2.3789 l 0,-6.3711 c -3.1992,0 -4.8007,-1.5977 -4.8007,-5.6172 l 0,-7.1914 c 0,-5.5781 -1.5977,-10.3906 -4.8086,-11.9883 3.2109,-1.6015 4.8086,-4.8125 4.8086,-10.3906 l 0,-7.2305 c 0,-2.3789 0.8203,-3.9804 1.6015,-4.8008 0.8203,-0.7812 2.418,-1.6015 4.0196,-1.6015 l -0.8204,-4.8086 z" /><path
         id="path20"
         style="fill:#ffffff;fill-opacity:1;fill-rule:nonzero;stroke:none"
         d="m 112.809,36.3789 c -0.821,7.2305 -6.399,12.8203 -13.5902,12.8203 -1.5977,0 -3.1993,-0.7773 -4.0196,-0.7773 -3.2109,3.9765 -7.1875,5.5781 -12,5.5781 -8.789,0 -16.0078,-6.3984 -16.789,-14.4102 -5.6289,-2.3906 -9.6094,-7.9687 -9.6094,-14.3789 0,-8.832 6.3984,-15.1914 14.4101,-15.1914 l 36.8011,0 c 7.187,0.7813 11.988,7.1797 11.988,13.5899 0,4.8125 -2.379,9.5703 -7.191,12.7695 z" /><path
         id="path22"
         style="fill:#0078d7;fill-opacity:1;fill-rule:nonzero;stroke:none"
         d="m 108.012,34.7813 c -0.821,5.6289 -5.633,10.4296 -11.2112,10.4296 -0.7813,0 -2.3906,0 -3.9922,-0.8203 -2.418,3.211 -6.3984,4.8086 -10.4297,4.8086 -7.1797,0 -12.7695,-5.5898 -13.5898,-12 -4.8086,-1.5976 -8.0078,-6.3984 -8.0078,-11.9883 0,-7.2226 5.6289,-12.8125 12.0273,-12.8125 l 31.1714,0 c 5.629,0.7813 10.43,5.5899 10.43,11.9922 0,4.0313 -2.422,8.0078 -6.398,10.3907 z" /><path
         id="path24"
         style="fill:#ffffff;fill-opacity:1;fill-rule:nonzero;stroke:none"
         d="m 103.199,30.0195 -1.597,0 c 0.777,0.7813 0.777,2.3789 0.777,3.9805 0,3.9883 -2.379,6.4102 -5.5782,6.4102 -2.3906,0 -3.9922,-1.6016 -5.5899,-4.0313 -0.8203,4.8125 -4.0195,8.0117 -8.832,8.0117 -4.7578,0 -8.7891,-3.9804 -8.7891,-9.6093 0,-0.7813 0,-1.6016 0.8204,-2.3829 l -1.6016,0 c -4.0195,0 -7.2188,-3.1992 -7.2188,-7.1875 0,-4.0195 3.1993,-7.2226 6.3985,-7.2226 l 30.3907,0 c 3.211,0 5.633,3.2031 5.633,6.4023 1.597,3.211 -1.602,5.6289 -4.813,5.6289 z" /></g></g></svg>