<?xml version="1.0" encoding="UTF-8" standalone="no"?>
<svg
   xmlns:dc="http://purl.org/dc/elements/1.1/"
   xmlns:cc="http://creativecommons.org/ns#"
   xmlns:rdf="http://www.w3.org/1999/02/22-rdf-syntax-ns#"
   xmlns:svg="http://www.w3.org/2000/svg"
   xmlns="http://www.w3.org/2000/svg"
   viewBox="0 0 13.75 16.25"
   height="16.25"
   width="13.75"
   xml:space="preserve"
   version="1.1"
   id="svg2"><metadata
     id="metadata8"><rdf:RDF><cc:Work
         rdf:about=""><dc:format>image/svg+xml</dc:format><dc:type
           rdf:resource="http://purl.org/dc/dcmitype/StillImage" /></cc:Work></rdf:RDF></metadata><defs
     id="defs6" /><g
     transform="matrix(1.25,0,0,-1.25,0,16.25)"
     id="g10"><g
       transform="scale(0.1,0.1)"
       id="g12"><path
         id="path14"
         style="fill:#0078d7;fill-opacity:1;fill-rule:nonzero;stroke:none"
         d="M 97.6211,110.781 81.6016,126.801 0,126.801 0,10 l 102.379,0 0,96.02 -4.7579,4.761 z" /><path
         id="path16"
         style="fill:#ffffff;fill-opacity:1;fill-rule:nonzero;stroke:none"
         d="m 81.6016,122 -76.80082,0 0,-107.1914 92.82032,0 0,91.2114 -16.0195,0 0,15.98 z" /><path
         id="path18"
         style="fill:#0078d7;fill-opacity:1;fill-rule:nonzero;stroke:none"
         d="m 82.3789,62.8203 c -3.1601,0 -4.7578,-1.6094 -4.7578,-5.6289 l 0,-6.4101 c 0,-3.9805 -0.8203,-6.3594 -2.4219,-7.961 -1.6094,-1.6094 -5.5898,-2.4297 -9.6094,-2.4297 l 0,4.8086 c 1.6016,0 3.1993,0.8203 3.1993,0.8203 0.8203,0.7813 0.8203,2.3789 0.8203,3.9805 l 0,6.4102 c 0,4.8007 1.6015,8.0117 4.8008,8.789 -3.1993,0.8203 -4.8008,3.9805 -4.8008,9.6094 l 0,6.4023 c 0,3.211 -1.5977,5.5899 -4.8086,5.5899 l 0,5.5898 2.3906,0 c 3.1992,0 5.6172,-0.789 7.2188,-2.3906 1.6093,-1.6016 2.3906,-4.8008 2.3906,-8.7891 l 0,-6.4023 c 0,-3.207 1.5976,-5.6289 4.8008,-5.6289 l 0.7773,-6.3594 z M 38.3984,40.3906 c -3.9882,0 -8.0078,0.8203 -9.6093,2.4297 -1.5977,1.6016 -2.3789,3.9805 -2.3789,7.961 l 0,7.2304 c -0.8204,3.1992 -2.4297,5.5899 -4.8086,5.5899 l 0,5.5781 c 3.1992,0 3.9882,1.6016 3.9882,5.6289 l 0,5.582 c 0,4.0313 0.8204,6.4102 3.1993,8.0078 1.6015,3.2032 4.8007,3.9922 8.832,3.9922 l 0,-5.5898 c -3.2109,-0.7813 -4.8125,-2.3789 -4.8125,-6.4102 l 0,-5.582 C 32.8086,70 31.2109,66.8008 28.0117,66.0195 31.2109,65.1992 32.8086,62 32.8086,57.1914 l 0,-5.5898 c 0,-1.6016 0.7812,-3.2032 0.7812,-4.0235 0.8204,-1.5586 1.6094,-1.5586 3.211,-1.5586 l 0,-4.8086 1.5976,0 0,-0.8203 z" /></g></g></svg>