<?xml version="1.0" encoding="UTF-8" standalone="no"?>
<svg
   xmlns:dc="http://purl.org/dc/elements/1.1/"
   xmlns:cc="http://creativecommons.org/ns#"
   xmlns:rdf="http://www.w3.org/1999/02/22-rdf-syntax-ns#"
   xmlns:svg="http://www.w3.org/2000/svg"
   xmlns="http://www.w3.org/2000/svg"
   viewBox="0 0 13.75 17.5"
   height="17.5"
   width="13.75"
   xml:space="preserve"
   version="1.1"
   id="svg2"><metadata
     id="metadata8"><rdf:RDF><cc:Work
         rdf:about=""><dc:format>image/svg+xml</dc:format><dc:type
           rdf:resource="http://purl.org/dc/dcmitype/StillImage" /></cc:Work></rdf:RDF></metadata><defs
     id="defs6" /><g
     transform="matrix(1.25,0,0,-1.25,0,17.5)"
     id="g10"><g
       transform="scale(0.1,0.1)"
       id="g12"><path
         id="path14"
         style="fill:#0078d7;fill-opacity:1;fill-rule:nonzero;stroke:none"
         d="m 57.1914,41.5898 8.82813,0 0,25.6211 -8.82813,0 0,-25.6211 z" /><path
         id="path16"
         style="fill:#0078d7;fill-opacity:1;fill-rule:nonzero;stroke:none"
         d="M 55.5898,126.391 C 29.2188,126.391 6.80078,116 6.80078,107.211 l 0,-80.8204 C 6.80078,16 34.8008,7.21094 60.3906,7.21094 86.0195,7.21094 107.621,16 107.621,25.6094 l 0,81.6016 c 0,8.789 -26.4101,19.18 -52.0312,19.18 z m 1.6016,-8.012 c 18.3984,0 33.5899,-3.981 33.5899,-9.57 0,-5.618 -15.1915,-9.6098 -33.5899,-9.6098 -18.4023,0 -33.6016,3.9918 -33.6016,10.4028 0,6.398 15.1993,8.777 33.6016,8.777 z" /><path
         id="path18"
         style="fill:#ffffff;fill-opacity:1;fill-rule:nonzero;stroke:none"
         d="m 92.3789,52.8008 c -3.1601,0 -4.7578,-1.6016 -4.7578,-6.4102 l 0,-7.1914 c 0,-4.8008 -0.8203,-7.1797 -3.2109,-10.3906 -2.4219,-1.5977 -6.3985,-2.418 -11.211,-2.418 l 0,6.4102 c 1.6016,0 3.211,0.8203 3.9922,1.5976 0.8203,0.7813 1.5977,2.3829 1.5977,3.9805 l 0,7.2305 c 0,4.8125 1.6015,9.5703 4.8007,10.3906 -3.1992,1.6016 -4.8007,4.8086 -4.8007,11.2109 l 0,8.7891 c 0,3.9883 -1.5977,5.5898 -4.8086,5.5898 l 0,7.2188 2.4297,0 c 3.1992,0 6.3984,-1.5977 8.789,-3.1992 1.6016,-1.5977 3.1992,-4.8008 3.1992,-10.4297 l 0,-7.1914 c 0,-3.9766 1.6016,-6.3985 4.8008,-6.3985 l -0.8203,-8.789 z M 40.3906,27.2109 c -4.8008,0 -8.789,0.7774 -11.1718,2.3907 -1.5977,1.5976 -3.1993,4.7968 -3.1993,10.3867 l 0,8.8203 c 0,3.9922 -1.6093,6.3711 -4.8086,6.3711 l 0,5.6289 c 3.1993,0 4.8086,2.3828 4.8086,6.4023 l 0,7.9688 c 0,4.8086 0.7813,7.2305 3.1993,9.6094 2.3828,1.6015 5.582,2.4218 11.1718,2.4218 l 0,-6.4023 c -3.1992,0 -4.8008,-1.6094 -4.8008,-5.6289 l 0,-7.1914 c 0,-4.7969 -1.6093,-9.6094 -4.8085,-11.207 3.1992,-1.6016 4.8085,-4.7618 4.8085,-11.1719 l 0,-7.2305 c 0,-2.3789 0.8204,-3.9805 1.6016,-4.7578 0.8203,-0.8203 2.418,-1.6016 4.0195,-1.6016 l -0.8203,-4.8086 z" /></g></g></svg>