<?xml version="1.0" encoding="UTF-8" standalone="no"?>
<svg
   xmlns:dc="http://purl.org/dc/elements/1.1/"
   xmlns:cc="http://creativecommons.org/ns#"
   xmlns:rdf="http://www.w3.org/1999/02/22-rdf-syntax-ns#"
   xmlns:svg="http://www.w3.org/2000/svg"
   xmlns="http://www.w3.org/2000/svg"
   viewBox="0 0 40 42.5"
   height="42.5"
   width="40"
   xml:space="preserve"
   version="1.1"
   id="svg2"><metadata
     id="metadata8"><rdf:RDF><cc:Work
         rdf:about=""><dc:format>image/svg+xml</dc:format><dc:type
           rdf:resource="http://purl.org/dc/dcmitype/StillImage" /></cc:Work></rdf:RDF></metadata><defs
     id="defs6" /><g
     transform="matrix(1.25,0,0,-1.25,0,42.5)"
     id="g10"><g
       transform="scale(0.1,0.1)"
       id="g12"><path
         id="path14"
         style="fill:#006fd4;fill-opacity:1;fill-rule:nonzero;stroke:none"
         d="m 196.02,189.191 c 0,-3.203 -2.43,-5.582 -5.629,-5.582 l -42.379,0 c -3.211,0 -5.633,2.379 -5.633,5.582 l 0,31.207 c 0,3.211 2.422,5.59 5.633,5.59 l 42.379,0 c 3.199,0 5.629,-2.379 5.629,-5.59 l 0,-31.207 z" /><path
         id="path16"
         style="fill:#006fd4;fill-opacity:1;fill-rule:nonzero;stroke:none"
         d="m 271.988,156.379 c 0,-3.16 -2.379,-5.578 -5.578,-5.578 l -42.43,0 c -3.199,0 -5.582,2.418 -5.582,5.578 l 0,31.211 c 0,3.211 2.383,5.629 5.582,5.629 l 42.43,0 c 3.199,0 5.578,-2.418 5.578,-5.629 l 0,-31.211 z" /><path
         id="path18"
         style="fill:#006fd4;fill-opacity:1;fill-rule:nonzero;stroke:none"
         d="m 196.02,124.391 c 0,-3.2 -2.43,-5.59 -5.629,-5.59 l -42.379,0 c -3.211,0 -5.633,2.39 -5.633,5.59 l 0,31.211 c 0,3.199 2.422,5.589 5.633,5.589 l 42.379,0 c 3.199,0 5.629,-2.39 5.629,-5.589 l 0,-31.211 z" /><path
         id="path20"
         style="fill:#006fd4;fill-opacity:1;fill-rule:nonzero;stroke:none"
         d="m 120,222.012 c 0,-3.211 -2.379,-5.633 -5.59,-5.633 l -43.1991,0 c -3.1992,0 -5.6211,2.422 -5.6211,5.633 l 0,32.808 c 0,3.16 2.4219,5.578 5.6211,5.578 l 42.3791,0 c 4.031,0 6.41,-2.418 6.41,-5.578 l 0,-32.808 z" /><path
         id="path22"
         style="fill:#006fd4;fill-opacity:1;fill-rule:nonzero;stroke:none"
         d="m 309.609,335.602 -304.01916,0 C 2.37891,335.602 0,333.219 0,330.012 l 0,-64.801 c 0,-3.199 2.37891,-5.633 5.58984,-5.633 l 32.80856,0 c 3.2032,0 5.5821,2.434 5.5821,5.633 l 0,27.187 228.0075,0 0,-27.187 c 0,-3.199 2.422,-5.633 6.41,-5.633 l 31.211,0 c 3.2,0 5.59,2.434 5.59,5.633 l 0,65.59 c 0,3.199 -2.39,4.801 -5.59,4.801 z" /><path
         id="path24"
         style="fill:#006fd4;fill-opacity:1;fill-rule:nonzero;stroke:none"
         d="m 309.609,85.2109 -31.211,0 c -3.199,0 -5.589,-2.4218 -5.589,-5.6328 l 0,-26.3593 -228.8285,0 0,27.1796 c 0,3.211 -2.3789,5.5899 -6.3594,5.5899 l -31.21094,0 c -3.21094,0 -5.62891,-2.3789 -5.62891,-6.4102 l 0,-63.9765 c 0,-3.2032 2.41797,-5.5899 5.62891,-5.5899 l 303.98084,0 c 3.199,0 5.629,2.3867 5.629,5.5899 l 0,63.9765 c -0.821,3.211 -3.211,5.6328 -6.411,5.6328 z" /><path
         id="path26"
         style="fill:#006fd4;fill-opacity:1;fill-rule:nonzero;stroke:none"
         d="m 119.219,157.199 c 0,-3.199 -2.418,-5.578 -5.629,-5.578 l -42.3791,0 c -3.1992,0 -5.6211,2.379 -5.6211,5.578 l 0,31.211 c 0,3.211 2.4219,5.59 5.6211,5.59 l 42.3791,0 c 3.211,0 5.629,-2.379 5.629,-5.59 l 0,-31.211 z" /><path
         id="path28"
         style="fill:#006fd4;fill-opacity:1;fill-rule:nonzero;stroke:none"
         d="m 119.219,92.3984 c 0,-3.207 -2.418,-5.5898 -5.629,-5.5898 l -42.3791,0 c -3.1992,0 -5.6211,2.3828 -5.6211,5.5898 l 0,31.2106 c 0,3.2 2.4219,5.582 5.6211,5.582 l 42.3791,0 c 3.211,0 5.629,-2.382 5.629,-5.582 l 0,-31.2106 z" /></g></g></svg>