<?xml version="1.0" encoding="UTF-8" standalone="no"?>
<svg
   xmlns:dc="http://purl.org/dc/elements/1.1/"
   xmlns:cc="http://creativecommons.org/ns#"
   xmlns:rdf="http://www.w3.org/1999/02/22-rdf-syntax-ns#"
   xmlns:svg="http://www.w3.org/2000/svg"
   xmlns="http://www.w3.org/2000/svg"
   viewBox="0 0 51.25 33.75"
   height="33.75"
   width="51.25"
   xml:space="preserve"
   version="1.1"
   id="svg2"><metadata
     id="metadata8"><rdf:RDF><cc:Work
         rdf:about=""><dc:format>image/svg+xml</dc:format><dc:type
           rdf:resource="http://purl.org/dc/dcmitype/StillImage" /></cc:Work></rdf:RDF></metadata><defs
     id="defs6" /><g
     transform="matrix(1.25,0,0,-1.25,0,33.75)"
     id="g10"><g
       transform="scale(0.1,0.1)"
       id="g12"><path
         id="path14"
         style="fill:#0078d7;fill-opacity:1;fill-rule:nonzero;stroke:none"
         d="m 361.602,102 c -7.192,0 -13.59,-1.602 -19.223,-3.9805 l -97.578,97.5825 c 2.39,5.578 3.988,11.988 3.988,19.207 0,25.589 -20.777,45.589 -45.59,45.589 -24.801,0 -45.578,-20.777 -45.578,-45.589 0,-7.219 1.598,-13.629 3.981,-19.207 L 64.8008,97.1992 C 59.2188,99.6211 52.8086,101.18 45.5898,101.18 20,101.18 0,80.3984 0,55.6016 0,30.7891 20.7813,10.0117 45.5898,10.0117 c 20,0 36.0118,12.7696 42.4219,29.6094 l 230.3863,0 c 6.403,-16.8398 23.204,-29.6094 42.383,-29.6094 25.629,0 45.629,20.7774 45.629,45.5899 0,24.7968 -20,46.3984 -44.808,46.3984 z M 44.8008,41.1797 c -8,0 -15.1914,6.4101 -15.1914,15.2422 0,7.957 6.4101,15.1875 15.1914,15.1875 C 52.8086,71.6094 60,65.1992 60,56.4219 60,47.5898 53.5898,41.1797 44.8008,41.1797 Z M 203.199,229.191 c 8.012,0 15.199,-6.41 15.199,-15.203 0,-8 -6.41,-15.187 -15.199,-15.187 -8,0 -15.187,6.398 -15.187,15.187 0.777,8.793 7.187,15.203 15.187,15.203 z m 115.199,-157.5816 -230.3863,0 c -0.8203,1.6015 -0.8203,2.3789 -1.6015,3.1992 L 183.98,173.211 c 5.629,-2.422 12.04,-4.02 19.219,-4.02 7.192,0 13.602,1.598 19.18,4.02 L 320,75.6016 c -0.781,-0.793 -1.602,-2.3907 -1.602,-3.9922 z M 361.602,42 c -8.012,0 -15.192,6.4102 -15.192,15.1992 0,8 6.399,15.1914 15.192,15.1914 8.007,0 15.199,-6.4023 15.199,-15.1914 C 376.02,48.4102 369.609,42 361.602,42 Z" /></g></g></svg>