<?xml version="1.0" encoding="UTF-8" standalone="no"?>
<svg
   xmlns:dc="http://purl.org/dc/elements/1.1/"
   xmlns:cc="http://creativecommons.org/ns#"
   xmlns:rdf="http://www.w3.org/1999/02/22-rdf-syntax-ns#"
   xmlns:svg="http://www.w3.org/2000/svg"
   xmlns="http://www.w3.org/2000/svg"
   viewBox="0 0 65 61.25"
   height="61.25"
   width="65"
   xml:space="preserve"
   version="1.1"
   id="svg2"><metadata
     id="metadata8"><rdf:RDF><cc:Work
         rdf:about=""><dc:format>image/svg+xml</dc:format><dc:type
           rdf:resource="http://purl.org/dc/dcmitype/StillImage" /></cc:Work></rdf:RDF></metadata><defs
     id="defs6" /><g
     transform="matrix(1.25,0,0,-1.25,0,61.25)"
     id="g10"><g
       transform="scale(0.1,0.1)"
       id="g12"><path
         id="path14"
         style="fill:#0078d7;fill-opacity:1;fill-rule:nonzero;stroke:none"
         d="M 508.91,261.219 484.102,285.98 373.711,393.211 c -4.801,4.809 -11.992,4.809 -17.621,0 -4.801,-4.801 -6.399,-13.59 0,-18.402 l 116.019,-113.59 c 4.801,-4.809 4.801,-13.629 0,-18.438 L 353.711,125.199 c -4.801,-4.801 -4.801,-13.59 0,-18.398 4.809,-4.801 13.59,-4.02 17.578,0 l 109.609,108.789 0.821,0.82 27.191,26.371 c 4.801,4.809 3.981,13.629 0,18.438 z" /><path
         id="path16"
         style="fill:#0078d7;fill-opacity:1;fill-rule:nonzero;stroke:none"
         d="m 42.5,242.781 c -4.8008,4.809 -4.8008,13.629 0,18.438 l 113.59,113.59 c 6.41,4.812 4.808,13.601 0,18.402 -5.578,4.809 -12.77,4.809 -17.57,0 L 28.1211,285.98 3.32031,261.219 c -4.019529,-4.809 -4.80078,-13.629 0,-18.438 L 28.1211,214.809 28.9102,213.988 140.898,106.801 c 4.024,-4.02 12.813,-4.801 17.622,0 4.8,4.808 4.8,13.597 0,18.398 L 42.5,242.781 Z" /><path
         id="path18"
         style="fill:#0078d7;fill-opacity:1;fill-rule:nonzero;stroke:none"
         d="m 384.102,322.781 -107.192,0 L 380.898,482 224.922,482 140.898,245.199 243.32,244.379 163.32,10.0117 384.102,322.781 Z" /></g></g></svg>