<?xml version="1.0" encoding="UTF-8" standalone="no"?>
<svg
   xmlns:dc="http://purl.org/dc/elements/1.1/"
   xmlns:cc="http://creativecommons.org/ns#"
   xmlns:rdf="http://www.w3.org/1999/02/22-rdf-syntax-ns#"
   xmlns:svg="http://www.w3.org/2000/svg"
   xmlns="http://www.w3.org/2000/svg"
   viewBox="0 0 60 45"
   height="45"
   width="60"
   xml:space="preserve"
   version="1.1"
   id="svg2"><metadata
     id="metadata8"><rdf:RDF><cc:Work
         rdf:about=""><dc:format>image/svg+xml</dc:format><dc:type
           rdf:resource="http://purl.org/dc/dcmitype/StillImage" /></cc:Work></rdf:RDF></metadata><defs
     id="defs6" /><g
     transform="matrix(1.25,0,0,-1.25,0,45)"
     id="g10"><g
       transform="scale(0.1,0.1)"
       id="g12"><path
         id="path14"
         style="fill:#0078d7;fill-opacity:1;fill-rule:nonzero;stroke:none"
         d="m 299.219,73.4102 c -2.379,7.1796 -10.391,20.8203 -10.391,20.8203 0,0 -1.598,-20 -15.199,-40 -13.59,-20 -22.418,-23.211 -22.418,-23.211 0,0 -0.781,-6.3984 6.41,-7.2187 l 37.609,0 c 5.59,0 9.571,4.8008 9.571,10.4297 0,5.5781 -4.762,11.9883 -4.762,11.9883 0,0 1.563,20 -0.82,27.1914 z" /><path
         id="path16"
         style="fill:#0078d7;fill-opacity:1;fill-rule:nonzero;stroke:none"
         d="m 31.2109,119.809 c 0,0 -11.1718,-12.809 -18.4023,-22.3793 -7.18751,-9.6094 -2.3789,-16.0195 -2.3789,-16.0195 0,0 20,-32.8086 36.8008,-28 5.5781,1.6015 10.3906,10.3906 10.3906,10.3906 0,0 -7.1914,9.6094 -12.8203,21.5976 -7.1797,12.8125 -12.7695,31.2106 -13.5899,34.4106 z" /><path
         id="path18"
         style="fill:#0078d7;fill-opacity:1;fill-rule:nonzero;stroke:none"
         d="m 475.23,263.012 c -2.421,63.207 -20,80 -24.8,80 -6.41,-0.821 -8.828,-11.211 -16.02,-16.012 -9.609,-7.191 -15.969,-5.59 -21.601,-11.172 -5.579,-5.629 5.632,-20 4.031,-57.617 -1.61,-34.41 -24.031,-47.191 -24.031,-47.191 0,0 10.39,15.199 11.992,25.589 1.609,8.012 -3.199,9.61 -6.36,11.993 -6.41,5.628 -19.222,-8.793 -22.421,-11.993 5.582,6.403 14.41,13.59 11.21,20 -6.41,10.391 -20,3.2 -23.21,2.422 3.21,1.559 9.609,3.981 8.011,10.391 -2.422,11.168 -13.59,8.789 -15.191,8.008 4.762,2.379 7.18,4.761 20,3.98 7.18,0 5.582,7.192 0.781,12.82 -7.191,8.782 -12,11.989 -17.582,13.59 -6.41,2.379 -19.219,0.782 -19.219,0.782 0,0 8.789,5.628 13.59,4.808 -6.398,8.781 -27.18,40.82 -63.199,42.418 -65.59,3.203 -84.801,-39.219 -84.801,-39.219 l 32.031,1.602 c 0,0 -9.613,-3.981 -28.832,-7.191 -15.199,-2.418 -14.379,-2.418 -19.179,-3.2 -7.231,-1.601 -25.629,-24.019 -42.418,-43.199 -17.582,-18.402 -34.383,-43.211 -34.383,-52.82 0,-9.61 9.57,-15.973 15.199,-23.981 5.582,-8.011 5.582,-13.59 5.582,-13.59 l 23.211,27.18 -27.191,-56.012 c 0,0 12.769,-16.796 26.41,-15.199 10.39,1.602 33.59,20 47.961,22.422 15.238,3.207 21.609,0.789 21.609,0.789 0,0 10.43,27.18 5.621,46.399 -8.832,34.421 -2.422,52.812 4.809,63.992 -5.629,-45.59 9.57,-48.789 8.781,-78.403 -0.82,-22.386 -8,-46.367 -8,-46.367 0,0 -21.601,7.188 -38.402,-1.601 -16.797,-8.828 -31.207,-20.821 -47.188,-20.821 -16.801,0 -39.222,28.789 -39.222,28.789 l 11.992,17.614 c 0,0 -1.602,5.59 -6.36,11.218 -7.23,8.782 -19.2222,21.598 -19.9996,31.989 -0.8203,17.582 16.7886,36.793 23.1606,43.98 6.41,8.012 25.628,28.832 25.628,28.832 0,0 -56.0191,-8.011 -79.2183,-35.23 -27.9726,-33.602 -31.9922,-43.211 -42.3906,-44.77 -10.3906,-1.601 -14.4102,9.571 -14.4102,9.571 0,0 8.0079,0.82 7.2305,10.429 -1.6016,15.199 2.3789,23.981 2.3789,23.981 0,0 -16.80077,-10.391 -19.999987,-20.821 -3.199223,-11.171 3.980467,-13.589 3.980467,-13.589 0,0 0,-19.18 11.21872,-23.204 11.211,-4.808 20,-0.777 20,-0.777 0,0 -7.1914,-35.199 2.4219,-60.82 9.5703,-25.5901 28.7891,-53.6018 28.7891,-53.6018 0,0 -1.6094,-19.1797 -4.0313,-23.9804 -1.5976,-4.8086 -8.789,-16.0196 2.4219,-24.0274 11.2187,-7.9609 39.1799,-11.1719 45.5899,-7.1797 6.41,4.0196 4.809,15.1875 5.629,19.2188 0.781,3.9804 9.57,20 11.172,23.9804 0.816,4.8008 0.816,28.7891 -0.782,36.8008 1.598,-3.9922 8.79,-22.3906 35.192,-23.2109 23.988,-0.7813 31.988,12 31.988,20.8203 0,-4.0195 1.61,-21.6016 -0.781,-24.8008 -2.418,-3.1992 -9.609,-5.6289 -16.789,-9.6094 -7.231,-4.8007 -16.801,-9.6093 -0.82,-28.789 C 193.629,7 196.84,5.39844 212.031,17.4297 c 15.199,11.9922 31.168,23.1601 42.379,37.582 11.211,14.4102 31.211,67.1793 31.211,67.1793 0,0 -11.992,8.008 -20,18.399 -5.582,8.012 -7.18,12.82 -7.18,12.82 0,0 15.969,-15.98 32.77,-20 6.41,-7.191 16.801,-17.582 25.629,-20.789 32.769,-13.5897 43.199,27.188 43.199,27.188 l -1.598,1.601 c 0,0 -8.832,-20.82 -23.211,-19.219 -28.82,3.207 -20,62.43 -20,62.43 0,0 28.79,-41.609 87.192,-40 35.199,0 76.019,42.379 72.808,118.391 z m -203.199,3.207 c 0,0 2.379,27.191 8.008,31.211 7.191,4.761 26.371,-1.602 26.371,-1.602 0,0 -12,0 -19.18,-6.406 -6.41,-5.621 -15.199,-23.203 -15.199,-23.203 z m 47.188,-24.028 c -8.789,-7.179 -16.797,-15.972 -16.797,-15.972 0,0 1.598,3.98 3.199,6.402 1.609,2.391 3.988,6.41 3.988,6.41 0,0 -3.199,0.778 -7.187,4.77 -2.383,2.418 -3.203,4.801 -3.981,6.398 0,0 -1.601,-0.777 -4.031,-3.199 -2.379,-1.602 -5.582,-5.59 -5.582,-5.59 0,0 8.012,15.199 19.184,23.211 12.027,8 24.019,8 24.019,8 0,0 -1.601,0 -5.621,-2.422 -3.988,-1.597 -3.988,-2.379 -3.988,-2.379 0,0 3.988,-1.601 7.187,-4.808 3.2,-3.981 4.02,-8.782 4.02,-8.782 0,0 0.781,0 4.812,1.598 3.981,1.602 7.969,1.602 7.969,1.602 0,0 -15.199,-5.629 -27.191,-15.239 z m 120.82,71.219 c -9.609,-7.191 -20,-8.012 -20.82,-4.808 -1.598,3.199 0.82,3.199 0.82,3.199 0,0 10.391,4.027 15.981,8.008 7.179,5.589 13.589,18.402 16.011,15.203 1.598,-3.211 -4.801,-15.981 -11.992,-21.602 z" /></g></g></svg>