<?xml version="1.0" encoding="UTF-8" standalone="no"?>
<svg
   xmlns:dc="http://purl.org/dc/elements/1.1/"
   xmlns:cc="http://creativecommons.org/ns#"
   xmlns:rdf="http://www.w3.org/1999/02/22-rdf-syntax-ns#"
   xmlns:svg="http://www.w3.org/2000/svg"
   xmlns="http://www.w3.org/2000/svg"
   viewBox="0 0 47.5 28.75"
   height="28.75"
   width="47.5"
   xml:space="preserve"
   version="1.1"
   id="svg2"><metadata
     id="metadata8"><rdf:RDF><cc:Work
         rdf:about=""><dc:format>image/svg+xml</dc:format><dc:type
           rdf:resource="http://purl.org/dc/dcmitype/StillImage" /></cc:Work></rdf:RDF></metadata><defs
     id="defs6" /><g
     transform="matrix(1.25,0,0,-1.25,0,28.75)"
     id="g10"><g
       transform="scale(0.1,0.1)"
       id="g12"><path
         id="path14"
         style="fill:#0078d7;fill-opacity:1;fill-rule:evenodd;stroke:none"
         d="M 340.512,71.2813 C 314.691,53 263.711,37.3008 187.5,37.3008 111.289,37.3008 60.3086,52.8906 34.4883,71.2813 33.2813,72.1797 31.7188,71.3984 31.4805,70 31.2891,69.2109 31.2891,68.3203 31.2891,67.4219 31.2891,43.0781 83.2813,10 187.5,10 c 104.219,0 156.289,33.0781 156.289,57.4219 0,0.8984 -0.078,1.789 -0.199,2.5781 -0.192,1.5195 -1.871,2.1797 -3.078,1.2813 z M 187.5,84.2109 c -84.488,0 -140.3906,18.7891 -167.8086,40.5901 -0.9805,0.777 -2.3906,0.508 -2.8906,-0.59 -1.4102,-2.691 -2.1914,-5.621 -2.1914,-8.633 0,-26.8671 57.6914,-62.6874 172.8906,-62.6874 115.199,0 172.891,35.8203 172.891,62.6874 0,3.012 -0.782,5.942 -2.192,8.633 -0.5,1.098 -1.91,1.367 -2.89,0.59 C 327.891,103 271.988,84.2109 187.5,84.2109 Z m 0,54.6871 c -88.5195,0 -132.8086,22.622 -132.8086,38.012 0,15.512 44.2891,24.488 132.8086,24.488 88.52,0 132.809,-8.976 132.809,-24.488 0,-15.39 -44.289,-38.012 -132.809,-38.012 z m 0,85.903 C 62.5,224.801 0,203.078 0,172.102 0,141.09 62.5,99.8008 187.5,99.8008 c 125,0 187.5,41.2892 187.5,72.3012 0,30.976 -62.5,52.699 -187.5,52.699 z" /></g></g></svg>