<?xml version="1.0" encoding="UTF-8" standalone="no"?>
<svg
   xmlns:dc="http://purl.org/dc/elements/1.1/"
   xmlns:cc="http://creativecommons.org/ns#"
   xmlns:rdf="http://www.w3.org/1999/02/22-rdf-syntax-ns#"
   xmlns:svg="http://www.w3.org/2000/svg"
   xmlns="http://www.w3.org/2000/svg"
   viewBox="0 0 32.5 33.75"
   height="33.75"
   width="32.5"
   xml:space="preserve"
   version="1.1"
   id="svg2"><metadata
     id="metadata8"><rdf:RDF><cc:Work
         rdf:about=""><dc:format>image/svg+xml</dc:format><dc:type
           rdf:resource="http://purl.org/dc/dcmitype/StillImage" /></cc:Work></rdf:RDF></metadata><defs
     id="defs6" /><g
     transform="matrix(1.25,0,0,-1.25,0,33.75)"
     id="g10"><g
       transform="scale(0.1,0.1)"
       id="g12"><path
         id="path14"
         style="fill:#006dd6;fill-opacity:1;fill-rule:nonzero;stroke:none"
         d="m 131.988,225.98 c 0,-13.671 -11.09,-24.761 -24.797,-24.761 -13.6715,0 -24.8121,11.09 -24.8121,24.761 0,13.711 11.1406,24.809 24.8121,24.809 13.707,0 24.797,-11.098 24.797,-24.809 z" /><path
         id="path16"
         style="fill:#006dd6;fill-opacity:1;fill-rule:nonzero;stroke:none"
         d="m 193.59,145.98 c 0,-16.332 -13.238,-29.57 -29.61,-29.57 -16.32,0 -29.57,13.238 -29.57,29.57 0,16.372 13.25,29.61 29.57,29.61 16.372,0 29.61,-13.238 29.61,-29.61 z" /><path
         id="path18"
         style="fill:#006dd6;fill-opacity:1;fill-rule:nonzero;stroke:none"
         d="m 236.801,58.0117 c 0,-12.8125 -10.391,-23.2031 -23.211,-23.2031 -12.809,0 -23.199,10.3906 -23.199,23.2031 0,12.8164 10.39,23.2071 23.199,23.2071 12.82,0 23.211,-10.3907 23.211,-23.2071 z" /><path
         id="path20"
         style="fill:#006dd6;fill-opacity:1;fill-rule:nonzero;stroke:none"
         d="m 141.602,73.9883 c 0,-11.0195 -8.942,-20 -20,-20 -11.051,0 -20,8.9805 -20,20 0,11.0508 8.949,20 20,20 11.058,0 20,-8.9492 20,-20 z" /><path
         id="path22"
         style="fill:#006dd6;fill-opacity:1;fill-rule:nonzero;stroke:none"
         d="m 60.7813,134.809 c 0,-11.059 -8.9415,-20 -20,-20 -11.0118,0 -20,8.941 -20,20 0,11.05 8.9882,20 20,20 11.0585,0 20,-8.95 20,-20 z" /><path
         id="path24"
         style="fill:#006dd6;fill-opacity:1;fill-rule:nonzero;stroke:none"
         d="m 111.52,230.75 56.601,-80.512 -10.461,-7.34 -56.609,80.5 10.469,7.352 z" /><path
         id="path26"
         style="fill:#006dd6;fill-opacity:1;fill-rule:nonzero;stroke:none"
         d="m 168.949,150.238 50.071,-87.4997 -11.129,-6.3672 -50.082,87.4999 11.14,6.367 z" /><path
         id="path28"
         style="fill:#006dd6;fill-opacity:1;fill-rule:nonzero;stroke:none"
         d="M 162.148,152.898 163.199,140.121 41.2109,130 l -1.0507,12.738 121.9878,10.16 z" /><path
         id="path30"
         style="fill:#006dd6;fill-opacity:1;fill-rule:nonzero;stroke:none"
         d="m 157.699,149.691 10.93,-6.601 -42.93,-71.2892 -10.969,6.5976 42.969,71.2926 z" /><path
         id="path32"
         style="fill:#006dd6;fill-opacity:1;fill-rule:nonzero;stroke:none"
         d="m 251.988,265.199 -64.797,0 c -2.39,0 -3.992,-1.597 -3.992,-4.801 l 0,-23.207 c 0,-2.382 1.602,-3.98 3.992,-3.98 l 36.789,0 0,-36.02 c 0,-2.382 1.61,-3.98 4.809,-3.98 l 23.199,0 c 2.422,0 4.032,1.598 4.032,3.98 l 0,64.028 c 0,2.383 -1.61,3.98 -4.032,3.98 z" /><path
         id="path34"
         style="fill:#006dd6;fill-opacity:1;fill-rule:nonzero;stroke:none"
         d="m 3.98047,10 64.80863,0 c 2.4218,0 4.0195,1.6094 4.0195,4.8086 l 0,23.2031 C 72.8086,40.3984 71.2109,42 68.7891,42 l -36.8008,0 0,36.0117 C 31.9883,80.3984 30.3906,82 27.1914,82 L 3.98047,82 C 1.60156,82 0,80.3984 0,78.0117 L 0,13.9883 C 0,11.6094 1.60156,10 3.98047,10 Z" /></g></g></svg>