<?xml version="1.0" encoding="UTF-8" standalone="no"?>
<svg
   xmlns:dc="http://purl.org/dc/elements/1.1/"
   xmlns:cc="http://creativecommons.org/ns#"
   xmlns:rdf="http://www.w3.org/1999/02/22-rdf-syntax-ns#"
   xmlns:svg="http://www.w3.org/2000/svg"
   xmlns="http://www.w3.org/2000/svg"
   viewBox="0 0 45 51.25"
   height="51.25"
   width="45"
   xml:space="preserve"
   version="1.1"
   id="svg2"><metadata
     id="metadata8"><rdf:RDF><cc:Work
         rdf:about=""><dc:format>image/svg+xml</dc:format><dc:type
           rdf:resource="http://purl.org/dc/dcmitype/StillImage" /></cc:Work></rdf:RDF></metadata><defs
     id="defs6" /><g
     transform="matrix(1.25,0,0,-1.25,0,51.25)"
     id="g10"><g
       transform="scale(0.1,0.1)"
       id="g12"><path
         id="path14"
         style="fill:#0078d7;fill-opacity:1;fill-rule:nonzero;stroke:none"
         d="m 358.398,188.422 c 0,58.398 -28.007,109.566 -70.386,142.379 l 0,-5.582 c 0,-17.617 -4.813,-34.418 -11.992,-48.828 20.781,-23.211 33.589,-53.602 33.589,-87.192 0,-71.988 -58.398,-130.3904 -130.39,-130.3904 -72.028,0 -130.4299,58.4024 -130.4299,130.3904 0,36.02 14.4101,68.012 37.6211,91.992 C 80,294.789 76.0195,309.98 76.0195,326 c 0,3.199 0,7.18 0.7813,10.391 C 30.3906,304.398 0,249.98 0,189.199 0,89.9805 80,9.98047 179.219,9.98047 c 99.179,0 179.179,79.21873 179.179,178.44153 z" /><path
         id="path16"
         style="fill:#0078d7;fill-opacity:1;fill-rule:nonzero;stroke:none"
         d="m 181.602,409.199 c -45.582,0 -82.3832,-36.801 -82.3832,-82.379 0,-37.621 24.7612,-68.832 59.1792,-79.218 l 0,-81.602 -38.398,0 0,-41.602 38.398,0 0,-30.398 45.582,0 0,153.602 c 34.418,9.609 59.219,41.597 59.219,79.218 0.781,45.578 -36.008,82.379 -81.597,82.379 z m 0,-43.199 c 21.597,0 39.179,-17.578 39.179,-39.18 0,-21.601 -17.582,-39.218 -39.179,-39.218 -21.602,0 -39.223,17.617 -39.223,39.218 0,21.602 17.621,39.18 39.223,39.18 z" /></g></g></svg>