<?xml version="1.0" encoding="UTF-8" standalone="no"?>
<svg
   xmlns:dc="http://purl.org/dc/elements/1.1/"
   xmlns:cc="http://creativecommons.org/ns#"
   xmlns:rdf="http://www.w3.org/1999/02/22-rdf-syntax-ns#"
   xmlns:svg="http://www.w3.org/2000/svg"
   xmlns="http://www.w3.org/2000/svg"
   viewBox="0 0 51.25 52.5"
   height="52.5"
   width="51.25"
   xml:space="preserve"
   version="1.1"
   id="svg2"><metadata
     id="metadata8"><rdf:RDF><cc:Work
         rdf:about=""><dc:format>image/svg+xml</dc:format><dc:type
           rdf:resource="http://purl.org/dc/dcmitype/StillImage" /></cc:Work></rdf:RDF></metadata><defs
     id="defs6" /><g
     transform="matrix(1.25,0,0,-1.25,0,52.5)"
     id="g10"><g
       transform="scale(0.1,0.1)"
       id="g12"><path
         id="path14"
         style="fill:#0078d7;fill-opacity:1;fill-rule:nonzero;stroke:none"
         d="m 200.781,10 c -9.57,0 -19.179,3.9805 -26.371,11.2109 L 11.2109,184.41 C 3.98047,191.602 0,200.391 0,210.82 0,220.391 3.98047,230 11.2109,237.191 l 163.1991,163.2 c 7.192,7.23 15.981,11.211 26.371,11.211 9.61,0 19.219,-3.981 26.41,-11.211 l 163.2,-163.2 c 7.23,-7.191 11.211,-15.98 11.211,-26.371 0,-10.429 -3.981,-19.218 -11.211,-26.41 L 227.191,21.2109 C 220,13.9805 210.391,10 200.781,10" /><path
         id="path16"
         style="fill:#ffffff;fill-opacity:1;fill-rule:nonzero;stroke:none"
         d="m 365.59,212.379 -52.781,52.812 0,-37.57 -56.008,0 c -5.59,19.18 -20.781,34.367 -40,40 l 0,54.367 36.789,0 -52.809,52.813 -52.769,-52.813 36.789,0 0,-53.59 c -19.211,-5.589 -34.41,-20.777 -40,-40 l -56.0119,0 0,36.793 -52.7696,-52.812 52.7696,-52.77 0,37.582 56.0119,0 c 5.59,-19.179 20.789,-34.382 40,-40 l 0,-36.8 c -8,-5.59 -20,-18.403 -20,-31.9926 0,-20 15.98,-36.0195 35.98,-36.0195 20,0 36.02,16.0195 36.02,36.0195 0,14.4106 -12,26.4026 -20,31.9926 l 0,37.621 c 19.219,5.578 34.41,20.777 40,40 l 56.008,0 0,-36.801 52.781,51.168 z" /><path
         id="path18"
         style="fill:#0078d7;fill-opacity:1;fill-rule:nonzero;stroke:none"
         d="m 200.781,254.801 c -23.16,0 -42.383,-19.223 -42.383,-42.422 0,-23.16 19.223,-42.379 42.383,-42.379 23.199,0 42.418,19.219 42.418,42.379 0,23.199 -19.219,42.422 -42.418,42.422 z" /></g></g></svg>