<?xml version="1.0" encoding="UTF-8" standalone="no"?>
<svg
   xmlns:dc="http://purl.org/dc/elements/1.1/"
   xmlns:cc="http://creativecommons.org/ns#"
   xmlns:rdf="http://www.w3.org/1999/02/22-rdf-syntax-ns#"
   xmlns:svg="http://www.w3.org/2000/svg"
   xmlns="http://www.w3.org/2000/svg"
   viewBox="0 0 52.5 36.25"
   height="36.25"
   width="52.5"
   xml:space="preserve"
   version="1.1"
   id="svg2"><metadata
     id="metadata8"><rdf:RDF><cc:Work
         rdf:about=""><dc:format>image/svg+xml</dc:format><dc:type
           rdf:resource="http://purl.org/dc/dcmitype/StillImage" /></cc:Work></rdf:RDF></metadata><defs
     id="defs6" /><g
     transform="matrix(1.25,0,0,-1.25,0,36.25)"
     id="g10"><g
       transform="scale(0.1,0.1)"
       id="g12"><path
         id="path14"
         style="fill:#0078d7;fill-opacity:1;fill-rule:nonzero;stroke:none"
         d="M 415.199,37.9883 377.621,274.789 C 376.801,284.398 368.789,286 366.41,286 l -313.6014,0 c -2.418,0 -11.207,-0.781 -11.207,-11.211 L 0,37.9883 0,31.5898 C 0,14.0117 14.4102,9.98047 17.6211,9.98047 l 380.7769,0 c 3.204,0 17.622,4.03123 17.622,21.60933 -0.821,2.4219 -0.821,4.8008 -0.821,6.3985 z m -131.219,60.8203 -46.359,0 c -4.031,0 -6.41,3.2114 -6.41,6.4104 0,3.98 3.199,6.371 6.41,6.371 l 21.598,0 -52.028,52.031 0,-104.0312 16.008,16.0196 c 2.391,2.3789 7.192,2.3789 9.61,0 2.39,-2.418 2.39,-7.2305 0,-9.6094 L 200.781,34.0117 168.012,66.7813 c -1.602,1.5976 -1.602,3.1992 -1.602,4.8085 0,1.6016 0.781,3.1993 1.602,4.8008 2.379,2.418 7.187,2.418 9.609,0 l 16.789,-16.8008 0,104.0312 -52.031,-52.031 23.211,0 c 4.019,0 6.398,-3.211 6.398,-6.371 0,-4.02 -3.199,-6.4104 -6.398,-6.4104 l -46.371,0 0,46.4104 c 0,3.98 3.16,6.371 6.371,6.371 4.019,0 6.398,-3.211 6.398,-6.371 l 0,-23.199 61.602,61.601 0,31.988 c -8,3.2 -14.371,10.391 -14.371,20 0,11.993 9.57,20.782 20.781,20.782 11.988,0 20.781,-9.61 20.781,-20.782 0,-9.609 -6.371,-16.8 -14.371,-20 l 0,-31.988 63.199,-63.211 0,24.809 c 0,3.98 3.2,6.371 6.411,6.371 3.98,0 6.359,-3.211 6.359,-6.371 l 0,-46.4104 1.601,0 z" /></g></g></svg>