<?xml version="1.0" encoding="UTF-8" standalone="no"?>
<svg
   xmlns:dc="http://purl.org/dc/elements/1.1/"
   xmlns:cc="http://creativecommons.org/ns#"
   xmlns:rdf="http://www.w3.org/1999/02/22-rdf-syntax-ns#"
   xmlns:svg="http://www.w3.org/2000/svg"
   xmlns="http://www.w3.org/2000/svg"
   viewBox="0 0 32.5 28.75"
   height="28.75"
   width="32.5"
   xml:space="preserve"
   version="1.1"
   id="svg2"><metadata
     id="metadata8"><rdf:RDF><cc:Work
         rdf:about=""><dc:format>image/svg+xml</dc:format><dc:type
           rdf:resource="http://purl.org/dc/dcmitype/StillImage" /></cc:Work></rdf:RDF></metadata><defs
     id="defs6" /><g
     transform="matrix(1.25,0,0,-1.25,0,28.75)"
     id="g10"><g
       transform="scale(0.1,0.1)"
       id="g12"><path
         id="path14"
         style="fill:#0078d7;fill-opacity:1;fill-rule:evenodd;stroke:none"
         d="m 3.75,23.6719 c 0,-5.4336 4.48828,-9.9219 9.8789,-9.9219 l 227.7421,0 c 5.391,0 9.879,4.4883 9.879,9.9219 l 0,169.7581 -247.5,0 0,-169.7581 z" /><path
         id="path16"
         style="fill:none;stroke:#ffffff;stroke-width:7.49997997;stroke-linecap:butt;stroke-linejoin:miter;stroke-miterlimit:3;stroke-dasharray:none;stroke-opacity:1"
         d="m 3.75,23.6641 c 0,-5.4297 4.48828,-9.918 9.8789,-9.918 l 227.7421,0 c 5.391,0 9.879,4.4883 9.879,9.918 l 0,169.7699 -247.5,0 0,-169.7699 z" /><path
         id="path18"
         style="fill:#0078d7;fill-opacity:1;fill-rule:evenodd;stroke:none"
         d="m 241.371,224.641 -227.7421,0 c -5.39062,0 -9.8789,-3.903 -9.8789,-8.711 l 0,-26.168 247.5,0 0,26.168 c 0,4.808 -4.488,8.711 -9.879,8.711 z" /><path
         id="path20"
         style="fill:none;stroke:#ffffff;stroke-width:7.49997997;stroke-linecap:butt;stroke-linejoin:miter;stroke-miterlimit:3;stroke-dasharray:none;stroke-opacity:1"
         d="m 241.371,224.645 -227.7421,0 c -5.39062,0 -9.8789,-3.911 -9.8789,-8.711 l 0,-26.168 247.5,0 0,26.168 c 0,4.8 -4.488,8.711 -9.879,8.711 z" /><path
         id="path22"
         style="fill:#0078d7;fill-opacity:1;fill-rule:evenodd;stroke:none"
         d="m 63.1602,36.5586 188.09,0 0,128.711 -188.09,0 0,-128.711 z" /><path
         id="path24"
         style="fill:none;stroke:#ffffff;stroke-width:7.49997997;stroke-linecap:butt;stroke-linejoin:miter;stroke-miterlimit:3;stroke-dasharray:none;stroke-opacity:1"
         d="m 63.1602,36.5664 188.09,0 0,128.707 -188.09,0 0,-128.707 z" /><path
         id="path26"
         style="fill:#0078d7;fill-opacity:1;fill-rule:evenodd;stroke:none"
         d="m 3.75,36.5586 59.4102,0 0,128.711 -59.4102,0 0,-128.711 z" /><path
         id="path28"
         style="fill:none;stroke:#ffffff;stroke-width:7.49997997;stroke-linecap:butt;stroke-linejoin:miter;stroke-miterlimit:3;stroke-dasharray:none;stroke-opacity:1"
         d="m 3.75,36.5664 59.4102,0 0,128.707 -59.4102,0 0,-128.707 z" /></g></g></svg>