<?xml version="1.0" encoding="UTF-8" standalone="no"?>
<svg
   xmlns:dc="http://purl.org/dc/elements/1.1/"
   xmlns:cc="http://creativecommons.org/ns#"
   xmlns:rdf="http://www.w3.org/1999/02/22-rdf-syntax-ns#"
   xmlns:svg="http://www.w3.org/2000/svg"
   xmlns="http://www.w3.org/2000/svg"
   viewBox="0 0 36.25 41.25"
   height="41.25"
   width="36.25"
   xml:space="preserve"
   version="1.1"
   id="svg2"><metadata
     id="metadata8"><rdf:RDF><cc:Work
         rdf:about=""><dc:format>image/svg+xml</dc:format><dc:type
           rdf:resource="http://purl.org/dc/dcmitype/StillImage" /></cc:Work></rdf:RDF></metadata><defs
     id="defs6" /><g
     transform="matrix(1.25,0,0,-1.25,0,41.25)"
     id="g10"><g
       transform="scale(0.1,0.1)"
       id="g12"><path
         id="path14"
         style="fill:#0078d7;fill-opacity:1;fill-rule:nonzero;stroke:none"
         d="M 283.199,249.98 141.602,329.199 0,247.602 0,183.609 c 0.78125,0 0,0 0,0 21.6016,0 30.3906,-0.82 36.8008,16.801 15.1875,42.379 52.8086,78.399 103.1992,78.399 51.211,0 88.012,-36.02 103.199,-78.399 6.41,-18.398 15.199,-16.801 38.403,-16.801 l 0,66.371 1.597,0 z" /><path
         id="path16"
         style="fill:#0078d7;fill-opacity:1;fill-rule:nonzero;stroke:none"
         d="m 283.199,145.219 -15.187,0 C 254.41,144.398 248.789,141.191 244.801,131.578 229.609,89.1992 191.988,57.9883 141.602,57.9883 c -51.2114,0 -88.0122,31.9922 -103.9809,73.5897 -4.0313,10.434 -9.6094,12.82 -23.2109,13.641 l -13.62895,0 c 0,0 2.41797,0 0,0 l 0,-56.0198 142.41775,-79.21873 140,81.59763 0,53.6409 z" /><path
         id="path18"
         style="fill:#0078d7;fill-opacity:1;fill-rule:nonzero;stroke:none"
         d="m 122.379,119.59 0,91.988 L 191.988,166 122.379,119.59 Z m 70.43,99.219 c -28.829,28.793 -74.411,28.793 -103.1996,0 -28.8281,-28.829 -28.8281,-74.411 0,-103.2 28.7886,-28.0074 74.3706,-28.0074 103.1996,0 28.793,28 28.793,74.371 0,103.2 z" /></g></g></svg>