<?xml version="1.0" encoding="UTF-8" standalone="no"?>
<svg
   xmlns:dc="http://purl.org/dc/elements/1.1/"
   xmlns:cc="http://creativecommons.org/ns#"
   xmlns:rdf="http://www.w3.org/1999/02/22-rdf-syntax-ns#"
   xmlns:svg="http://www.w3.org/2000/svg"
   xmlns="http://www.w3.org/2000/svg"
   viewBox="0 0 77.5 52.5"
   height="52.5"
   width="77.5"
   xml:space="preserve"
   version="1.1"
   id="svg2"><metadata
     id="metadata8"><rdf:RDF><cc:Work
         rdf:about=""><dc:format>image/svg+xml</dc:format><dc:type
           rdf:resource="http://purl.org/dc/dcmitype/StillImage" /></cc:Work></rdf:RDF></metadata><defs
     id="defs6" /><g
     transform="matrix(1.25,0,0,-1.25,0,52.5)"
     id="g10"><g
       transform="scale(0.1,0.1)"
       id="g12"><path
         id="path14"
         style="fill:#0078d7;fill-opacity:1;fill-rule:nonzero;stroke:none"
         d="m 366.41,184.391 c -16.019,0 -29.609,-9.61 -36.019,-23.2 l -228.789,0 c -38.4028,0 -70.3911,31.207 -70.3911,70.387 0,39.223 31.168,70.434 70.3911,70.434 l 31.988,0 c 1.609,8.008 4.031,15.976 7.191,23.199 1.598,2.391 2.418,5.59 4.02,7.969 15.98,28.011 46.41,46.41 80.789,46.41 31.211,0 58.39,-15.199 75.191,-37.578 9.61,4.808 20,8.008 30.43,10.386 -22.422,35.204 -60.82,58.403 -105.621,58.403 -52,0 -96.801,-31.992 -115.199,-77.621 l 0,-0.782 0,0.782 -8.789,0 C 45.5898,332.398 0,286.82 0,230.801 0,174.781 45.5898,129.199 101.602,129.199 l 229.609,0 c 6.41,-13.597 20,-23.199 35.98,-23.199 21.598,0 39.219,17.609 39.219,39.211 -0.82,21.609 -18.398,39.18 -40,39.18 z" /><path
         id="path16"
         style="fill:#0078d7;fill-opacity:1;fill-rule:nonzero;stroke:none"
         d="m 488.012,10.0195 c 68.789,0 128.008,58.4024 128.008,127.1915 0,68.789 -55.239,123.98 -124.032,124.801 -23.199,46.41 -70.386,77.578 -125.578,77.578 -67.191,0 -123.211,-47.192 -136.801,-109.57 -32.808,-3.2 -60.82,-20.821 -78.398,-45.629 l 167.187,0 c 11.211,14.418 28.793,23.211 48.793,23.211 34.411,0 62.418,-28.012 62.418,-62.391 0,-34.41 -28.007,-62.4219 -62.418,-62.4219 -20,0 -36.8,8.789 -48.793,23.2109 l -186.41,0 c 7.231,-52.8203 49.614,-95.9805 104.813,-95.9805 l 251.211,0 z" /></g></g></svg>