<?xml version="1.0" encoding="UTF-8" standalone="no"?>
<svg
   xmlns:dc="http://purl.org/dc/elements/1.1/"
   xmlns:cc="http://creativecommons.org/ns#"
   xmlns:rdf="http://www.w3.org/1999/02/22-rdf-syntax-ns#"
   xmlns:svg="http://www.w3.org/2000/svg"
   xmlns="http://www.w3.org/2000/svg"
   viewBox="0 0 27.5 45"
   height="45"
   width="27.5"
   xml:space="preserve"
   version="1.1"
   id="svg2"><metadata
     id="metadata8"><rdf:RDF><cc:Work
         rdf:about=""><dc:format>image/svg+xml</dc:format><dc:type
           rdf:resource="http://purl.org/dc/dcmitype/StillImage" /></cc:Work></rdf:RDF></metadata><defs
     id="defs6" /><g
     transform="matrix(1.25,0,0,-1.25,0,45)"
     id="g10"><g
       transform="scale(0.1,0.1)"
       id="g12"><path
         id="path14"
         style="fill:#0078d7;fill-opacity:1;fill-rule:nonzero;stroke:none"
         d="m 39.2188,70.3906 40,0 0,40 -40,0 0,-40 z" /><path
         id="path16"
         style="fill:#0078d7;fill-opacity:1;fill-rule:nonzero;stroke:none"
         d="m 89.6094,71.2109 40,0 0,69.5703 -40,0 0,-69.5703 z" /><path
         id="path18"
         style="fill:#0078d7;fill-opacity:1;fill-rule:nonzero;stroke:none"
         d="m 139.219,70.3906 40,0 0,100 -40,0 0,-100 z" /><path
         id="path20"
         style="fill:#0078d7;fill-opacity:1;fill-rule:nonzero;stroke:none"
         d="m 151.211,342.379 0,8.832 48.789,0 c 3.98,0 7.191,-4.02 8.012,-8.012 l -56.801,-0.82 z m -140.8204,0 c 0,4.031 3.1992,8.012 7.2305,8.012 l 28.7891,0 0,-8.789 -36.0196,0.777 z M 17.6211,10.3906 c -4.0313,0 -8.01172,5.6289 -8.01172,11.211 l 0,17.6172 68.01172,0 c -5.6328,-3.1993 -8.0117,-9.6094 -8.0117,-16.0196 0,-4.8008 1.6015,-12.8086 3.9804,-12.8086 l -55.9687,0 z m 115.9689,0 c 1.609,0 4.031,7.2305 4.031,12.8086 0,8.0117 -1.601,12.8203 -5.633,16.0196 L 209.609,40 l 0,-19.2187 c 0,-4.7618 -4.808,-11.17192 -8.828,-11.17192 l -67.191,0 0,0.78122 z" /><path
         id="path22"
         style="fill:#0078d7;fill-opacity:1;fill-rule:nonzero;stroke:none"
         d="m 89.6094,20 c -7.2305,0.7813 -8.8281,-0.7812 -8.8281,4.8008 0,4.8086 4.0195,7.1875 8.8281,8.0078 l 31.1716,0 c 4.809,-0.8203 7.231,-3.1992 7.231,-8.0078 C 128.012,20 127.191,20 123.98,20 l -34.3706,0 z m -71.211,30.3906 0,280.0004 180.8206,0 0,-280.0004 -180.8206,0 z M 75.1992,340.781 c -3.9883,0 -8.0078,0 -8.0078,4.809 0,4.801 3.1992,4.801 8.0078,4.801 l 57.6098,0 c 3.992,0 7.972,0 7.972,-4.801 0,-4.809 -3.98,-4.809 -7.972,-4.809 l -57.6098,0 z M 200,360 17.6211,360 C 8.01172,360 0,351.211 0,340.781 L 0,20.7813 C 0,9.60938 8.01172,0 17.6211,0 L 199.219,0 c 9.57,0 19.179,9.60938 19.179,20.7813 l 0,319.9997 C 219.219,351.211 210.391,360 200,360 Z" /><path
         id="path24"
         style="fill:#0078d7;fill-opacity:1;fill-rule:nonzero;stroke:none"
         d="m 157.621,310.391 -96.0194,0 c -11.9922,0 -31.9922,-9.61 -31.9922,-21.602 l 0,-75.98 c 0,-12.028 20,-21.598 31.9922,-21.598 l 17.6172,0 0,-29.609 29.5702,29.609 48.012,0 c 11.988,0 31.988,9.57 31.988,21.598 l 0,75.98 c 0,11.992 -19.18,21.602 -31.168,21.602 z" /></g></g></svg>