<?xml version="1.0" encoding="UTF-8" standalone="no"?>
<svg
   xmlns:dc="http://purl.org/dc/elements/1.1/"
   xmlns:cc="http://creativecommons.org/ns#"
   xmlns:rdf="http://www.w3.org/1999/02/22-rdf-syntax-ns#"
   xmlns:svg="http://www.w3.org/2000/svg"
   xmlns="http://www.w3.org/2000/svg"
   viewBox="0 0 28.75 57.5"
   height="57.5"
   width="28.75"
   xml:space="preserve"
   version="1.1"
   id="svg2"><metadata
     id="metadata8"><rdf:RDF><cc:Work
         rdf:about=""><dc:format>image/svg+xml</dc:format><dc:type
           rdf:resource="http://purl.org/dc/dcmitype/StillImage" /></cc:Work></rdf:RDF></metadata><defs
     id="defs6" /><g
     transform="matrix(1.25,0,0,-1.25,0,57.5)"
     id="g10"><g
       transform="scale(0.1,0.1)"
       id="g12"><path
         id="path14"
         style="fill:#0078d7;fill-opacity:1;fill-rule:nonzero;stroke:none"
         d="M 225.82,51.8281 193.789,244.602 c -1.598,9.609 -10.391,14.418 -20,12.82 L 49.8008,238.238 28.1992,365.43 C 26.6016,375.82 34.6094,384.602 45,386.211 l 71.988,11.211 c 11.211,1.598 20.821,-3.992 22.422,-15.203 l 15.199,-91.207 c 0.782,-5.582 6.411,-8.793 11.211,-7.973 5.59,0.781 8.789,5.59 7.969,11.172 l -23.988,144.027 c -1.602,10.391 -11.211,16.793 -22.379,15.192 L 16.9883,435.031 C 6.60156,433.43 -1.41016,424.602 0.199219,414.211 L 29.8008,238.238 c 0,-1.597 0.789,-2.418 0.789,-4.027 -4.7695,-3.981 -7.9687,-9.609 -6.371,-15.973 L 56.2109,25.4297 C 57.8086,15.8203 67.4219,8.62891 76.9883,10.2305 L 211.41,31.0117 c 10.391,1.5977 16.012,12.0274 14.41,20.8164 z M 69.0195,423.039 84.2188,425.43 c 3.2031,0.781 7.1914,-1.61 7.1914,-4.809 0.7812,-3.199 -1.6094,-6.41 -5.5899,-7.191 l -15.2305,-2.418 c -3.1679,-0.782 -7.1914,1.597 -7.1914,4.808 -0.7773,4.02 2.4219,6.399 5.6211,7.219 z M 93.0117,164.602 c -2.4219,13.636 7.1873,27.226 21.5973,28.828 14.411,2.39 28.012,-7.219 30.391,-20.821 1.602,-10.39 -0.781,-19.179 -11.211,-24.8 l 4.801,-30.387 -23.981,-3.992 -5.589,31.172 c -6.399,3.207 -14.4106,10.429 -16.0083,20 z M 162.621,36.6406 121.801,30.2305 c -3.211,-0.8203 -7.192,1.5976 -7.192,4.8008 -0.82,3.207 1.602,6.4101 5.59,7.1875 l 40.821,6.4101 c 3.199,0.7813 7.179,-1.5976 7.179,-4.8086 0.821,-3.9805 -2.379,-6.3984 -5.578,-7.1797 z" /></g></g></svg>