<?xml version="1.0" encoding="UTF-8" standalone="no"?>
<svg
   xmlns:dc="http://purl.org/dc/elements/1.1/"
   xmlns:cc="http://creativecommons.org/ns#"
   xmlns:rdf="http://www.w3.org/1999/02/22-rdf-syntax-ns#"
   xmlns:svg="http://www.w3.org/2000/svg"
   xmlns="http://www.w3.org/2000/svg"
   viewBox="0 0 27.5 37.5"
   height="37.5"
   width="27.5"
   xml:space="preserve"
   version="1.1"
   id="svg2"><metadata
     id="metadata8"><rdf:RDF><cc:Work
         rdf:about=""><dc:format>image/svg+xml</dc:format><dc:type
           rdf:resource="http://purl.org/dc/dcmitype/StillImage" /></cc:Work></rdf:RDF></metadata><defs
     id="defs6" /><g
     transform="matrix(1.25,0,0,-1.25,0,37.5)"
     id="g10"><g
       transform="scale(0.1,0.1)"
       id="g12"><path
         id="path14"
         style="fill:#0078d7;fill-opacity:1;fill-rule:nonzero;stroke:none"
         d="m 192.809,111.602 c 0,-12.0004 -12.028,-17.5825 -24.02,-18.4028 l -42.379,0 0,15.1918 42.379,0 c 2.422,0 3.199,5.629 3.199,5.629 l -7.187,-2.418 -16.012,0 c -14.379,0 -23.199,7.179 -23.988,16.007 l 0,26.411 -8,4.761 0,-47.961 -21.6018,0 0,35.192 -12,-25.621 c -3.1992,-7.192 -8,-9.571 -15.1875,-9.571 -8.0117,0 -12.8125,3.2 -16.0234,9.571 L 40,146.789 l 0,-35.187 -19.2187,0 0,54.41 c 0,6.41 1.5976,10.386 7.2304,12.769 3.1992,0.821 6.3985,1.61 8.7891,1.61 7.1797,0 12.8086,-3.993 16.0078,-10.391 L 68.0117,135.578 83.9805,170 c 3.2109,6.398 8.8281,10.391 16.0195,10.391 2.379,0 5.59,-0.789 8.789,-1.61 5.621,-1.601 8.832,-6.359 8.832,-12.769 l 0,-8.012 31.168,0 0,-28.789 c 0,-0.82 0.82,-0.82 3.199,-0.82 l 20.821,0 0,29.609 21.601,0 -1.601,-46.398 z m -87.219,168 c 41.601,0 75.191,-10.391 75.191,-23.204 0,-12.808 -33.59,-23.199 -75.191,-23.199 -41.6095,0 -75.1994,10.391 -75.1994,23.199 0,12.813 33.5899,23.204 75.1994,23.204 z m 0,15.199 C 47.1914,294.801 0,274.801 0,253.199 L 0,56.3984 C 0,34.8008 47.1914,10 105.59,10 c 58.39,0 104.801,24.0195 104.801,45.5781 l 0,196.8439 c 0.82,21.598 -46.411,42.379 -104.801,42.379 z" /></g></g></svg>