<?xml version="1.0" encoding="UTF-8" standalone="no"?>
<svg
   xmlns:dc="http://purl.org/dc/elements/1.1/"
   xmlns:cc="http://creativecommons.org/ns#"
   xmlns:rdf="http://www.w3.org/1999/02/22-rdf-syntax-ns#"
   xmlns:svg="http://www.w3.org/2000/svg"
   xmlns="http://www.w3.org/2000/svg"
   viewBox="0 0 37.5 37.5"
   height="37.5"
   width="37.5"
   xml:space="preserve"
   version="1.1"
   id="svg2"><metadata
     id="metadata8"><rdf:RDF><cc:Work
         rdf:about=""><dc:format>image/svg+xml</dc:format><dc:type
           rdf:resource="http://purl.org/dc/dcmitype/StillImage" /></cc:Work></rdf:RDF></metadata><defs
     id="defs6" /><g
     transform="matrix(1.25,0,0,-1.25,0,37.5)"
     id="g10"><g
       transform="scale(0.1,0.1)"
       id="g12"><path
         id="path14"
         style="fill:#0078d7;fill-opacity:1;fill-rule:nonzero;stroke:none"
         d="m 23.1992,192.422 265.5898,0 -67.187,69.566 0,-38.398 -191.9926,0 0,32.031 c 0,12.77 3.1992,15.981 15.9804,15.981 l 196.7892,0 c 12.82,0 27.23,-3.211 27.23,-15.981 l 0,-11.211 23.981,-20 0,31.988 c 0,25.59 -25.578,40 -50.391,40 l -197.6092,0 c -25.5898,0 -39.99996,-14.41 -39.99996,-40 l 0,-63.976 17.60936,0 z" /><path
         id="path16"
         style="fill:#0078d7;fill-opacity:1;fill-rule:nonzero;stroke:none"
         d="m 264.801,176.398 -264.801,0 69.6094,-55.199 0,31.223 199.9996,0 0,-24.813 c 0,-12.808 -14.41,-31.2106 -27.23,-31.2106 l -196.7892,0 c -12.7812,0 -15.9804,18.4026 -15.9804,31.2106 l 0,11.172 -24.01956,20 0,-31.992 C 5.58984,101.199 20,79.6016 45.5898,79.6016 l 43.1993,0 97.6209,-69.61332 -7.191,69.61332 63.98,0 c 25.59,0 50.391,21.5974 50.391,47.1874 l 0,48.832 -28.789,0 0,0.777 z" /></g></g></svg>