<?xml version="1.0" encoding="UTF-8" standalone="no"?>
<svg
   xmlns:dc="http://purl.org/dc/elements/1.1/"
   xmlns:cc="http://creativecommons.org/ns#"
   xmlns:rdf="http://www.w3.org/1999/02/22-rdf-syntax-ns#"
   xmlns:svg="http://www.w3.org/2000/svg"
   xmlns="http://www.w3.org/2000/svg"
   viewBox="0 0 61.25 43.75"
   height="43.75"
   width="61.25"
   xml:space="preserve"
   version="1.1"
   id="svg2"><metadata
     id="metadata8"><rdf:RDF><cc:Work
         rdf:about=""><dc:format>image/svg+xml</dc:format><dc:type
           rdf:resource="http://purl.org/dc/dcmitype/StillImage" /></cc:Work></rdf:RDF></metadata><defs
     id="defs6" /><g
     transform="matrix(1.25,0,0,-1.25,0,43.75)"
     id="g10"><g
       transform="scale(0.1,0.1)"
       id="g12"><path
         id="path14"
         style="fill:#dc3c00;fill-opacity:1;fill-rule:nonzero;stroke:none"
         d="m 208.871,110.199 -5.633,-22.3787 c -0.777,-4.0312 1.602,-6.4101 5.633,-5.6289 l 22.379,5.6289 c 4.02,0.7813 4.801,3.9805 1.602,7.1797 l -17.582,17.621 c -2.418,2.379 -5.622,1.598 -6.399,-2.422 z" /><path
         id="path16"
         style="fill:#dc3c00;fill-opacity:1;fill-rule:nonzero;stroke:none"
         d="m 439.262,284.422 c 2.379,-2.391 7.187,-2.391 10.386,0 2.383,2.418 7.192,8.008 9.614,10.387 0,0 14.367,19.222 -4.813,38.402 -19.219,19.219 -38.398,4.019 -38.398,4.019 -3.199,-2.421 -8,-6.41 -10.43,-9.609 -3.199,-2.383 -2.383,-7.191 0,-10.391 l 33.641,-32.808 z" /><path
         id="path18"
         style="fill:#dc3c00;fill-opacity:1;fill-rule:nonzero;stroke:none"
         d="m 227.031,140.039 33.59,-33.59 c 3.207,-2.418 7.188,-2.418 10.399,0 L 427.809,263.25 c 2.39,2.379 2.39,7.18 0,10.391 l -33.59,33.589 c -3.199,3.2 -7.188,3.2 -10.391,0 L 227.031,149.648 c -2.422,-2.418 -2.422,-7.187 0,-9.609 z" /><path
         id="path20"
         style="fill:#dc3c00;fill-opacity:1;fill-rule:nonzero;stroke:none"
         d="m 481.602,66.8008 c 0,31.2109 -24.801,56.0192 -55.192,56.0192 -2.43,0 -4.808,0 -7.191,-0.82 3.16,12.809 5.582,25.578 5.582,39.211 0,20.789 -4.02,40 -11.211,57.578 L 285.59,91.6094 C 280.781,86.8008 276.801,84.4219 270.391,84.4219 260,78.0117 243.199,70.7813 236.801,69.1797 L 212.809,62.8203 C 210.391,62 208.789,62 206.41,62 c -7.191,0 -14.422,3.1992 -19.219,8.7813 -4.812,5.6289 -6.41,13.6406 -4.812,21.6093 l 5.633,22.4184 c 1.597,7.191 9.609,28.793 17.578,39.179 1.601,4.024 3.199,7.223 6.398,9.614 l 130.391,129.609 c -20,10.391 -42.379,15.969 -66.359,15.969 -60,0 -117.622,-39.18 -136.801,-87.969 l 0,-68.82 -56.8401,-15.2 -67.9687,26.411 C 10.3906,157.191 8.01172,152.391 8.01172,152.391 7.19141,154.809 0,134.809 0,112.391 0,56.4102 45.5898,10.7813 101.602,10.7813 L 429.609,10 c 28.789,3.2109 51.993,27.1914 51.993,56.8008 z" /><path
         id="path22"
         style="fill:#dc3c00;fill-opacity:1;fill-rule:nonzero;stroke:none"
         d="m 127.5,164.961 0,126.41 -45.5898,12.809 -81.601606,-30.391 0,-91.211 28.011706,11.211 0,74.383 53.5899,12.808 0,-109.609 L 0.308594,182.578 81.9102,152.191 127.5,164.961 Z" /></g></g></svg>