<?xml version="1.0" encoding="UTF-8" standalone="no"?>
<svg
   xmlns:dc="http://purl.org/dc/elements/1.1/"
   xmlns:cc="http://creativecommons.org/ns#"
   xmlns:rdf="http://www.w3.org/1999/02/22-rdf-syntax-ns#"
   xmlns:svg="http://www.w3.org/2000/svg"
   xmlns="http://www.w3.org/2000/svg"
   viewBox="0 0 47.5 48.75"
   height="48.75"
   width="47.5"
   xml:space="preserve"
   version="1.1"
   id="svg2"><metadata
     id="metadata8"><rdf:RDF><cc:Work
         rdf:about=""><dc:format>image/svg+xml</dc:format><dc:type
           rdf:resource="http://purl.org/dc/dcmitype/StillImage" /></cc:Work></rdf:RDF></metadata><defs
     id="defs6" /><g
     transform="matrix(1.25,0,0,-1.25,0,48.75)"
     id="g10"><g
       transform="scale(0.1,0.1)"
       id="g12"><path
         id="path14"
         style="fill:#0078d7;fill-opacity:1;fill-rule:evenodd;stroke:none"
         d="m 96.8008,106.691 0,126.411 C 41.7188,225.789 0,178.801 0,121.691 0,59.5781 49.6094,10.0117 111.801,10.0117 c 56.988,0 103.98,41.6797 111.289,96.6793 l -126.2892,0 z m -60,45 30,0 0,-30 -30,0 0,30 z m 60,-119.9996 -30,0 0,30 30,0 0,-30 z m 90.0002,30 -30,0 0,30 30,0 0,-30 z" /><path
         id="path16"
         style="fill:#0078d7;fill-opacity:1;fill-rule:evenodd;stroke:none"
         d="m 243.051,383.449 c -73.52,0 -131.289,-56.988 -131.289,-130.508 l 0,-131.211 131.289,0 c 73.398,0 130.5,57.809 130.5,131.211 0,73.52 -57.102,130.508 -130.5,130.508 z m -48.789,-198.008 -26.211,0 0,86.289 26.211,0 0,-86.289 z m 56.289,0 -26.289,0 0,60 26.289,0 0,-60 z m 56.211,0 -26.211,0 0,116.289 26.211,0 0,-116.289 z" /></g></g></svg>