<?xml version="1.0" encoding="UTF-8" standalone="no"?>
<svg
   xmlns:dc="http://purl.org/dc/elements/1.1/"
   xmlns:cc="http://creativecommons.org/ns#"
   xmlns:rdf="http://www.w3.org/1999/02/22-rdf-syntax-ns#"
   xmlns:svg="http://www.w3.org/2000/svg"
   xmlns="http://www.w3.org/2000/svg"
   viewBox="0 0 42.5 43.75"
   height="43.75"
   width="42.5"
   xml:space="preserve"
   version="1.1"
   id="svg2"><metadata
     id="metadata8"><rdf:RDF><cc:Work
         rdf:about=""><dc:format>image/svg+xml</dc:format><dc:type
           rdf:resource="http://purl.org/dc/dcmitype/StillImage" /></cc:Work></rdf:RDF></metadata><defs
     id="defs6" /><g
     transform="matrix(1.25,0,0,-1.25,0,43.75)"
     id="g10"><g
       transform="scale(0.1,0.1)"
       id="g12"><path
         id="path14"
         style="fill:#0078d7;fill-opacity:1;fill-rule:nonzero;stroke:none"
         d="m 33.5898,144.398 22.4297,0 0,22.383 -22.4297,0 0,-22.383 z m 0,67.192 22.4297,0 0,20 C 48.0117,227.602 40,222.801 33.5898,217.211 l 0,-5.621 z m 33.6016,-134.3791 22.418,0 0,22.3789 -22.418,0 0,-22.3789 z m 0,-67.23043 22.418,0 0,22.42973 -22.418,0 0,-22.42973 z m 0,100.82053 22.418,0 0,22.39 -22.418,0 0,-22.39 z m 0,-67.1799 22.418,0 0,22.3789 -22.418,0 0,-22.3789 z m -33.6016,33.5898 22.4297,0 0,22.3789 -22.4297,0 0,-22.3789 z m 0,-33.5898 22.4297,0 0,22.3789 -22.4297,0 0,-22.3789 z M 0,110.801 l 22.3789,0 0,22.39 -22.3789,0 0,-22.39 z m 0,-33.5901 22.3789,0 0,22.3789 -22.3789,0 0,-22.3789 z m 0,67.1871 22.3789,0 0,22.383 -22.3789,0 0,-22.383 z m 2.37891,33.59 19.99999,0 0,22.422 -5.5781,0 C 11.2109,193.191 6.41016,185.219 2.37891,177.988 Z M 33.5898,26.7813 C 40,21.1992 48.0117,16.3906 56.0195,12.4102 l 0,20 -22.4297,0 0,-5.6289 z m 0,151.2067 22.4297,0 0,22.422 -22.4297,0 0,-22.422 z M 201.602,43.6211 l 5.589,0 c 5.618,6.3594 10.43,14.3672 14.411,22.3789 l -20,0 0,-22.3789 z m -33.59,33.5898 22.379,0 0,22.3789 -22.379,0 0,-22.3789 z m 0,-64.8007 c 8.008,4.8007 15.968,8.789 22.379,14.3711 l 0,5.6289 -22.379,0 0,-20 z m 0,31.2109 22.379,0 0,22.3789 -22.379,0 0,-22.3789 z M 67.1914,144.398 l 22.418,0 0,22.383 -22.418,0 0,-22.383 z M 218.398,346 C 153.59,346 100.781,293.191 100.781,228.379 l 0,-117.578 117.617,0 c 64.801,0 117.622,52.82 117.622,117.578 C 336.02,293.191 283.199,346 218.398,346 Z m -39.179,-168.012 -22.418,0 0,67.231 22.418,0 0,-67.231 z m 44.761,0 -22.378,0 0,44.813 22.378,0 0,-44.813 z m 44.809,0 -22.379,0 0,89.614 22.379,0 0,-89.614 z m -67.187,-100.7771 22.378,0 0,22.3789 -22.378,0 0,-22.3789 z M 67.1914,211.59 l 22.418,0 0,22.422 -22.418,0 0,-22.422 z M 134.41,43.6211 l 22.391,0 0,22.3789 -22.391,0 0,-22.3789 z m -33.629,0 22.418,0 0,22.3789 -22.418,0 0,-22.3789 z m 0,33.5898 22.418,0 0,22.3789 -22.418,0 0,-22.3789 z m 33.629,-67.23043 22.391,0 0,22.42973 -22.391,0 0,-22.42973 z" /></g></g></svg>