<?xml version="1.0" encoding="UTF-8" standalone="no"?>
<svg
   xmlns:dc="http://purl.org/dc/elements/1.1/"
   xmlns:cc="http://creativecommons.org/ns#"
   xmlns:rdf="http://www.w3.org/1999/02/22-rdf-syntax-ns#"
   xmlns:svg="http://www.w3.org/2000/svg"
   xmlns="http://www.w3.org/2000/svg"
   viewBox="0 0 36.25 37.5"
   height="37.5"
   width="36.25"
   xml:space="preserve"
   version="1.1"
   id="svg2"><metadata
     id="metadata8"><rdf:RDF><cc:Work
         rdf:about=""><dc:format>image/svg+xml</dc:format><dc:type
           rdf:resource="http://purl.org/dc/dcmitype/StillImage" /></cc:Work></rdf:RDF></metadata><defs
     id="defs6" /><g
     transform="matrix(1.25,0,0,-1.25,0,37.5)"
     id="g10"><g
       transform="scale(0.1,0.1)"
       id="g12"><path
         id="path14"
         style="fill:#0078d7;fill-opacity:1;fill-rule:nonzero;stroke:none"
         d="m 217.422,106.641 c 1.598,0 2.379,0.781 3.199,1.597 0.789,0.782 1.609,2.383 1.609,3.981 0,1.609 -0.82,2.39 -1.609,3.211 -1.601,1.601 -4.801,1.601 -7.18,0 -1.601,-1.602 -1.601,-4.809 0,-7.192 0.778,-0.816 2.379,-1.597 3.981,-1.597 z" /><path
         id="path16"
         style="fill:#0078d7;fill-opacity:1;fill-rule:nonzero;stroke:none"
         d="m 178.871,80.8594 c -1.601,-1.5977 -1.601,-4.8086 0,-7.2305 0.777,-0.7773 2.379,-1.5586 3.16,-1.5586 1.598,0 2.418,0.7813 3.199,1.5586 0.821,0.8203 1.61,2.4219 1.61,3.1992 0,1.6133 -0.789,2.4336 -1.61,3.211 -0.781,2.4218 -3.98,2.4218 -6.359,0.8203 z" /><path
         id="path18"
         style="fill:#0078d7;fill-opacity:1;fill-rule:nonzero;stroke:none"
         d="m 262.379,50 c -1.598,3.1992 -4.758,5.5781 -8.789,5.5781 -2.379,0 -4.801,-0.7773 -7.18,-1.5976 C 243.199,53.1992 141.602,15.5781 131.211,11.6016 l -0.82,0 c -23.981,20 -39.1801,49.6093 -39.1801,83.1992 0,60.0002 48.7891,108.0082 108.0081,108.0082 32.769,0 61.562,-14.411 81.562,-37.618 l 0,126.411 -280.781,0 0,-280.7817 148.012,0 c 30.386,11.168 97.578,35.9805 100,36.8008 2.379,0.7773 3.976,0.7773 4.797,0.7773 0.781,0 1.601,0 2.39,-1.5976 0.821,-2.3906 -0.789,-3.9922 -3.211,-6.4102 C 246.41,34.8008 233.59,23.5898 219.219,10 l 10.39,0 c 13.59,11.9883 23.981,22.3789 27.192,25.5781 3.199,1.6133 8.789,7.2305 5.578,14.4219 z" /><path
         id="path20"
         style="fill:#0078d7;fill-opacity:1;fill-rule:nonzero;stroke:none"
         d="m 180.309,94.1406 c 0,-2.6601 -2.149,-4.8125 -4.797,-4.8125 -2.66,0 -4.813,2.1524 -4.813,4.8125 0,2.6602 2.153,4.8008 4.813,4.8008 2.648,0 4.797,-2.1406 4.797,-4.8008 z" /><path
         id="path22"
         style="fill:#0078d7;fill-opacity:1;fill-rule:nonzero;stroke:none"
         d="m 182.852,106.641 c 1.597,0 2.378,0.781 3.199,1.597 0.789,0.782 1.609,2.383 1.609,3.981 0,1.609 -0.82,2.39 -1.609,3.211 -1.602,1.601 -4.801,1.601 -7.18,0 -1.601,-1.602 -1.601,-4.809 0,-7.192 0.777,-0.816 2.379,-1.597 3.981,-1.597 z" /><path
         id="path24"
         style="fill:#0078d7;fill-opacity:1;fill-rule:nonzero;stroke:none"
         d="m 204.531,118.398 c 0,-2.66 -2.152,-4.808 -4.761,-4.808 -2.661,0 -4.809,2.148 -4.809,4.808 0,2.653 2.148,4.801 4.809,4.801 2.609,0 4.761,-2.148 4.761,-4.801 z" /><path
         id="path26"
         style="fill:#0078d7;fill-opacity:1;fill-rule:nonzero;stroke:none"
         d="m 204.531,69.8789 c 0,-2.6601 -2.152,-4.8008 -4.761,-4.8008 -2.661,0 -4.809,2.1407 -4.809,4.8008 0,2.6602 2.148,4.8125 4.809,4.8125 2.609,0 4.761,-2.1523 4.761,-4.8125 z" /><path
         id="path28"
         style="fill:#0078d7;fill-opacity:1;fill-rule:nonzero;stroke:none"
         d="m 200.199,137.809 c -24.027,0 -43.211,-19.18 -43.211,-43.1996 0,-23.9883 19.184,-43.211 43.211,-43.211 23.981,0 43.199,19.2227 43.199,43.211 0,24.0196 -19.218,43.1996 -43.199,43.1996 z m 0,-79.1801 c -20,0 -36.019,15.9805 -36.019,35.9805 0,19.9996 16.019,36.0116 36.019,36.0116 20,0 35.973,-16.012 35.973,-36.0116 0,-20 -16.793,-35.9805 -35.973,-35.9805 z" /><path
         id="path30"
         style="fill:#0078d7;fill-opacity:1;fill-rule:nonzero;stroke:none"
         d="m 214.262,94.3008 c 0,-7.9297 -6.453,-14.4219 -14.383,-14.4219 -7.969,0 -14.41,6.4922 -14.41,14.4219 0,7.9612 6.441,14.4102 14.41,14.4102 7.93,0 14.383,-6.449 14.383,-14.4102 z" /><path
         id="path32"
         style="fill:#0078d7;fill-opacity:1;fill-rule:nonzero;stroke:none"
         d="m 228.789,94.1406 c 0,-2.6601 -2.148,-4.8125 -4.809,-4.8125 -2.652,0 -4.8,2.1524 -4.8,4.8125 0,2.6602 2.148,4.8008 4.8,4.8008 2.661,0 4.809,-2.1406 4.809,-4.8008 z" /><path
         id="path34"
         style="fill:#0078d7;fill-opacity:1;fill-rule:nonzero;stroke:none"
         d="m 213.398,80.8594 c -1.597,-1.5977 -1.597,-4.8086 0,-7.2305 0.821,-0.7773 2.422,-1.5586 3.204,-1.5586 1.597,0 2.418,0.7813 3.199,1.5586 0.82,0.8203 1.609,2.4219 1.609,3.1992 0,1.6133 -0.789,2.4336 -1.609,3.211 -0.781,2.4218 -3.981,2.4218 -6.403,0.8203 z" /></g></g></svg>