<?xml version="1.0" encoding="UTF-8" standalone="no"?>
<svg
   xmlns:dc="http://purl.org/dc/elements/1.1/"
   xmlns:cc="http://creativecommons.org/ns#"
   xmlns:rdf="http://www.w3.org/1999/02/22-rdf-syntax-ns#"
   xmlns:svg="http://www.w3.org/2000/svg"
   xmlns="http://www.w3.org/2000/svg"
   viewBox="0 0 66.25 71.25"
   height="71.25"
   width="66.25"
   xml:space="preserve"
   version="1.1"
   id="svg2"><metadata
     id="metadata8"><rdf:RDF><cc:Work
         rdf:about=""><dc:format>image/svg+xml</dc:format><dc:type
           rdf:resource="http://purl.org/dc/dcmitype/StillImage" /></cc:Work></rdf:RDF></metadata><defs
     id="defs6" /><g
     transform="matrix(1.25,0,0,-1.25,0,71.25)"
     id="g10"><g
       transform="scale(0.1,0.1)"
       id="g12"><path
         id="path14"
         style="fill:#000000;fill-opacity:1;fill-rule:evenodd;stroke:none"
         d="m 165.309,118.441 c 0,-18.9801 -14.797,-33.7105 -33.707,-33.7105 -18.981,0 -33.6723,14.7304 -33.6723,33.7105 l 0,146.289 c 0,19.02 14.6913,33.711 33.6723,33.711 18.91,0 33.707,-14.691 33.707,-33.711 l 0,-146.289 z" /><path
         id="path16"
         style="fill:#000000;fill-opacity:1;fill-rule:evenodd;stroke:none"
         d="m 264.262,78.4414 c 0,-18.9805 -14.774,-33.7109 -33.672,-33.7109 -19.031,0 -33.711,14.7304 -33.711,33.7109 l 0,224.2186 c 0,18.988 14.68,33.668 33.711,33.668 18.898,0 33.672,-14.68 33.672,-33.668 l 0,-224.2186 z" /><path
         id="path18"
         style="fill:#000000;fill-opacity:1;fill-rule:evenodd;stroke:none"
         d="m 67.3789,151.102 c 0,-19.024 -14.7578,-33.711 -33.668,-33.711 C 14.6914,117.391 0,132.078 0,151.102 L 0,230 c 0,18.988 14.6914,33.68 33.7109,33.68 18.9102,0 33.668,-14.692 33.668,-33.68 l 0,-78.898 z" /><path
         id="path20"
         style="fill:#000000;fill-opacity:1;fill-rule:evenodd;stroke:none"
         d="M 363.238,43.7188 C 363.238,24.6914 348.441,10 329.531,10 c -18.98,0 -33.672,14.6914 -33.672,33.7188 l 0,296.8712 c 0,18.91 14.692,33.59 33.672,33.59 18.91,0 33.707,-14.68 33.707,-33.59 l 0,-296.8712 z" /><path
         id="path22"
         style="fill:#000000;fill-opacity:1;fill-rule:evenodd;stroke:none"
         d="m 470.59,58.4414 c -5.199,0 -11.61,0.9805 -16.801,3.0899 l -42.109,13.707 c -7.379,2.1133 -10.59,9.4922 -8.481,16.8711 2.071,7.3125 9.5,10.5116 16.879,8.4026 l 42.113,-13.6722 c 8.399,-3.1992 17.887,-1.0898 25.309,4.1797 7.301,5.3086 11.48,13.7105 11.48,23.1995 l 0,272.621 c 0,12.699 -8.39,24.301 -20,27.379 L 80,535.32 c -8.3984,3.2 -17.8906,1.008 -25.1992,-4.179 C 47.3789,525.828 43.1992,517.43 43.1992,507.93 l 0,-187.418 c 0,-7.383 -6.3203,-13.672 -13.7109,-13.672 -7.3789,0 -13.707,6.289 -13.707,13.672 l 0,187.418 c 0,17.898 8.3984,33.718 22.1093,45.32 14.6875,10.469 32.6211,13.672 49.4883,8.398 L 486.41,440.512 c 23.199,-7.262 40,-28.403 40,-53.672 l 0,-272.621 c 0,-17.8909 -8.398,-34.7971 -23.129,-45.3088 -10.582,-7.3789 -21.09,-10.4688 -32.691,-10.4688 z" /></g></g></svg>