<?xml version="1.0" encoding="UTF-8" standalone="no"?>
<svg
   xmlns:dc="http://purl.org/dc/elements/1.1/"
   xmlns:cc="http://creativecommons.org/ns#"
   xmlns:rdf="http://www.w3.org/1999/02/22-rdf-syntax-ns#"
   xmlns:svg="http://www.w3.org/2000/svg"
   xmlns="http://www.w3.org/2000/svg"
   viewBox="0 0 50 42.5"
   height="42.5"
   width="50"
   xml:space="preserve"
   version="1.1"
   id="svg2"><metadata
     id="metadata8"><rdf:RDF><cc:Work
         rdf:about=""><dc:format>image/svg+xml</dc:format><dc:type
           rdf:resource="http://purl.org/dc/dcmitype/StillImage" /></cc:Work></rdf:RDF></metadata><defs
     id="defs6" /><g
     transform="matrix(1.25,0,0,-1.25,0,42.5)"
     id="g10"><g
       transform="scale(0.1,0.1)"
       id="g12"><path
         id="path14"
         style="fill:#0078d7;fill-opacity:1;fill-rule:nonzero;stroke:none"
         d="m 199.219,190.82 c -0.821,0 -0.821,0 -1.598,0.821 L 80,259.609 c -0.7812,0.821 -1.6016,1.602 -1.6016,3.211 0,1.602 0.8204,2.418 1.6016,3.2 l 116.801,67.23 c 0.82,0.781 2.418,0.781 3.199,0 l 117.621,-68.012 c 0.777,-0.816 1.598,-1.597 1.598,-3.207 0,-1.601 -0.821,-2.422 -1.598,-3.203 l -116.84,-67.187 c 0,-0.821 -0.781,-0.821 -1.562,-0.821" /><path
         id="path16"
         style="fill:#0078d7;fill-opacity:1;fill-rule:nonzero;stroke:none"
         d="m 182.379,25.2383 c -0.777,0 -1.598,0 -1.598,0.7812 L 63.1992,94.0313 c -0.8203,0.8203 -1.5976,1.5976 -1.5976,3.1992 l 0,136.0195 c 0,1.602 0.7773,2.379 1.5976,3.199 0.7813,0.781 2.3906,0.781 3.211,0 L 183.98,168.441 c 0.821,-0.82 1.61,-1.601 1.61,-3.203 l 0,-136.0192 c 0,-1.5977 -0.789,-2.379 -1.61,-3.1993 0,-0.7812 -0.781,-0.7812 -1.601,-0.7812" /><path
         id="path18"
         style="fill:#0078d7;fill-opacity:1;fill-rule:nonzero;stroke:none"
         d="m 216.02,25.2383 c -0.821,0 -1.61,0 -1.61,0.7812 -0.82,0.8203 -1.601,1.6016 -1.601,3.1993 l 0,134.4222 c 0,1.597 0.781,2.379 1.601,3.199 l 117.578,68.012 c 0.821,0.777 2.422,0.777 3.211,0 0.821,-0.821 1.602,-1.602 1.602,-3.211 l 0,-135.1918 c 0,-1.5976 -0.781,-2.4179 -1.602,-3.1992 l -117.578,-68.0117 -1.601,0" /><path
         id="path20"
         style="fill:#0078d7;fill-opacity:1;fill-rule:nonzero;stroke:none"
         d="m 216.02,25.2383 c -0.821,0 -1.61,0 -1.61,0.7812 -0.82,0.8203 -1.601,1.6016 -1.601,3.1993 l 0,134.4222 c 0,1.597 0.781,2.379 1.601,3.199 l 117.578,68.012 c 0.821,0.777 2.422,0.777 3.211,0 0.821,-0.821 1.602,-1.602 1.602,-3.211 l 0,-135.1918 c 0,-1.5976 -0.781,-2.4179 -1.602,-3.1992 l -117.578,-68.0117 -1.601,0" /><path
         id="path22"
         style="fill:#0078d7;fill-opacity:1;fill-rule:nonzero;stroke:none"
         d="m 76.0195,10.0391 c -1.6093,0 -4.0312,0.7812 -5.6289,1.6015 l -54.3711,32 C 6.41016,49.2188 0,60.4297 0,70.8203 L 0,272.422 c 0,10.398 6.41016,22.43 16.0195,27.187 l 54.3711,32.032 c 5.6289,3.211 12.8086,1.609 16.0196,-4.02 3.1992,-5.59 1.6015,-12.769 -4.0313,-15.98 L 28.0117,279.609 c -1.6015,-0.781 -4.0312,-4.757 -4.0312,-7.187 l 0,-201.6017 c 0,-2.3789 2.4297,-6.3984 4.0312,-7.1797 l 54.3672,-32 C 88.0117,28.4414 89.6094,21.2109 86.4102,15.6289 83.1992,12.4219 80,10.0391 76.0195,10.0391 Z" /><path
         id="path24"
         style="fill:#0078d7;fill-opacity:1;fill-rule:nonzero;stroke:none"
         d="m 322.379,333.25 c 1.601,0 4.031,-0.828 5.633,-1.609 l 54.367,-32.032 c 9.609,-5.578 16.019,-16.789 16.019,-27.187 l 0,-201.6017 c 0,-10.3906 -6.41,-22.3789 -16.019,-27.1797 l -54.367,-32 c -5.633,-3.19919 -12.813,-1.6015 -16.024,3.9883 -3.199,5.582 -1.597,12.8125 4.032,16.0117 l 54.371,32 c 1.597,0.7813 4.019,4.8008 4.019,7.1797 l 0,201.6017 c 0,2.43 -2.422,6.406 -4.019,7.187 l -54.371,32.032 c -5.629,3.211 -7.231,10.39 -4.032,15.98 2.422,3.199 6.41,5.629 10.391,5.629 z" /></g></g></svg>