<?xml version="1.0" encoding="UTF-8" standalone="no"?>
<svg
   xmlns:dc="http://purl.org/dc/elements/1.1/"
   xmlns:cc="http://creativecommons.org/ns#"
   xmlns:rdf="http://www.w3.org/1999/02/22-rdf-syntax-ns#"
   xmlns:svg="http://www.w3.org/2000/svg"
   xmlns="http://www.w3.org/2000/svg"
   viewBox="0 0 36.25 46.25"
   height="46.25"
   width="36.25"
   xml:space="preserve"
   version="1.1"
   id="svg2"><metadata
     id="metadata8"><rdf:RDF><cc:Work
         rdf:about=""><dc:format>image/svg+xml</dc:format><dc:type
           rdf:resource="http://purl.org/dc/dcmitype/StillImage" /></cc:Work></rdf:RDF></metadata><defs
     id="defs6" /><g
     transform="matrix(1.25,0,0,-1.25,0,46.25)"
     id="g10"><g
       transform="scale(0.1,0.1)"
       id="g12"><path
         id="path14"
         style="fill:#0078d7;fill-opacity:1;fill-rule:evenodd;stroke:none"
         d="m 280.039,218.801 -19.219,0 0,24.019 c 0,32.77 -11.992,63.16 -31.211,84.758 -20,22.434 -55.199,36.024 -85.589,36.024 -30.391,0 -66.3989,-14.411 -85.5786,-36.024 -20,-21.598 -32.0312,-51.988 -32.0312,-84.758 l 0,-24.019 -19.17973,0 c -8.01172,0 -7.1914075,-6.41 -7.1914075,-15.199 l 0,-178.4028 c 0,-8.0078 6.3710975,-15.1875 14.3711375,-15.1875 l 258.3988,0 c 8.011,0 14.421,6.3985 14.421,15.1875 l 0,179.1798 c -0.82,8.012 0,14.422 -7.191,14.422 z M 172.809,87.5781 c 4.031,2.4336 8.011,4.0313 12.812,4.0313 12,0 21.609,-9.6094 21.609,-21.5977 0,-12 -9.609,-21.6133 -21.609,-21.6133 -11.992,0 -21.601,9.6133 -21.601,21.6133 l 0,1.5977 -56.008,28.7886 c -3.992,-3.9878 -8.7932,-5.5894 -15.2034,-5.5894 -11.9883,0 -21.5977,9.5704 -21.5977,21.6014 0,11.988 9.6094,21.602 21.5977,21.602 5.6328,0 11.2114,-2.422 14.4214,-5.621 l 55.969,28.828 0,0.781 c 0,11.988 9.61,21.602 21.602,21.602 12.039,0 21.609,-9.614 21.609,-21.602 0,-11.988 -9.57,-21.602 -21.609,-21.602 -4.762,0 -9.571,1.602 -13.59,4.801 L 115.23,116.41 172.809,87.5781 Z m 36.019,131.2229 -131.9882,0 0,28.777 c 0,19.223 6.3594,31.223 17.5704,43.211 11.2108,12.031 32.8198,18.402 48.7888,18.402 16.02,0 36.84,-6.371 48.012,-18.402 10.43,-11.988 17.617,-28.789 17.617,-47.969 l 0,-24.019 z" /></g></g></svg>