<?xml version="1.0" encoding="UTF-8" standalone="no"?>
<svg
   xmlns:dc="http://purl.org/dc/elements/1.1/"
   xmlns:cc="http://creativecommons.org/ns#"
   xmlns:rdf="http://www.w3.org/1999/02/22-rdf-syntax-ns#"
   xmlns:svg="http://www.w3.org/2000/svg"
   xmlns="http://www.w3.org/2000/svg"
   viewBox="0 0 33.75 43.75"
   height="43.75"
   width="33.75"
   xml:space="preserve"
   version="1.1"
   id="svg2"><metadata
     id="metadata8"><rdf:RDF><cc:Work
         rdf:about=""><dc:format>image/svg+xml</dc:format><dc:type
           rdf:resource="http://purl.org/dc/dcmitype/StillImage" /></cc:Work></rdf:RDF></metadata><defs
     id="defs6" /><g
     transform="matrix(1.25,0,0,-1.25,0,43.75)"
     id="g10"><g
       transform="scale(0.1,0.1)"
       id="g12"><path
         id="path14"
         style="fill:#0078d7;fill-opacity:1;fill-rule:nonzero;stroke:none"
         d="m 143.281,111.59 0,-31.1681 c -2.422,0 -11.992,1.5976 -13.59,2.3789 -6.41,1.5976 -12.812,3.1992 -19.222,5.5898 -2.379,0.8203 -3.989,1.5977 -5.59,2.418 l -3.199,0.7812 -3.1995,1.6016 -2.4297,1.5977 -3.1602,1.6015 c -1.6015,0.8203 -4.0195,2.418 -5.6211,3.211 -7.1914,4.7964 -14.3789,10.3864 -20.789,16.7894 -6.4024,6.41 -12.0313,13.597 -16.7891,21.597 -4.8125,8.012 -8.832,16.024 -12.8125,24.813 -6.4101,17.621 -9.6094,36.008 -8.0078,54.41 1.5977,18.398 6.3984,36.801 15.1875,52 8.832,15.969 20,29.598 33.6016,40 6.3984,5.578 13.6289,9.598 20.8203,13.59 7.1795,3.98 14.4105,6.41 20.7815,8.789 14.41,4.801 28.008,7.219 40,7.219 12.027,0.793 23.199,-0.821 32.027,-2.418 8.789,-1.602 15.191,-3.981 20,-5.582 2.383,-0.821 3.981,-1.598 5.59,-1.598 l 1.601,-0.82 c 0.782,0 1.598,0 2.379,0.82 0.821,0.777 0,1.598 -0.781,2.379 l -1.598,0.82 c -0.82,0.781 -3.21,1.602 -4.808,2.379 -4.801,2.422 -11.211,5.633 -20,8.012 -8.793,3.199 -20,5.59 -33.594,6.41 -12.808,0.777 -28.008,0 -44.808,-4.031 C 99.2617,341.199 82.4609,334.012 66.4805,323.621 50.4688,313.191 36.0508,297.988 24.8789,280.422 13.6719,262.801 5.66016,242.02 1.67969,219.602 0.078125,208.391 -0.738281,197.211 0.859375,185.18 1.67969,174.012 4.05859,162.02 7.26953,151.59 10.4688,140.422 15.2695,129.988 21.6797,119.602 27.2695,109.988 34.4492,100.422 42.4609,91.5898 50.4688,83.6211 59.2617,75.6094 68.8711,69.9883 l 7.1797,-4.8086 4.0273,-2.3789 3.9805,-2.3789 3.2109,-1.6133 4.0196,-1.5977 c 2.3828,-0.8203 4.7617,-2.4218 7.1914,-3.1992 10.3905,-4.0234 21.5975,-7.2304 31.9885,-8.832 3.98,-0.7813 9.609,-0.7813 13.59,-1.5586 l 0,-33.63282 47.23,49.61332 -48.008,51.9884 z" /><path
         id="path16"
         style="fill:#0078d7;fill-opacity:1;fill-rule:nonzero;stroke:none"
         d="m 157.66,317.211 c -58.3983,0 -103.2108,-47.223 -103.2108,-105.621 0,-48.789 32.0313,-89.57 76.8398,-101.602 l 0,8.821 c 0,3.992 3.16,7.972 7.191,9.582 1.598,0.82 -1.601,0 0,0 2.379,0 5.579,0 7.18,-2.391 l 20,-20 c 55.199,3.988 98.399,49.609 98.399,105.59 0,58.398 -48.008,105.621 -106.399,105.621 z M 79.2617,202.801 c -4.8125,0 -9.5703,3.98 -9.5703,9.609 0,4.801 3.9805,9.61 9.5703,9.61 4.7969,0 9.6094,-4.032 9.6094,-9.61 -0.7813,-5.629 -4.8125,-9.609 -9.6094,-9.609 z M 157.66,305.18 c 4.801,0 9.61,-3.981 9.61,-9.571 0,-4.8 -3.989,-9.609 -9.61,-9.609 -4.769,0 -9.57,3.988 -9.57,9.609 0.781,4.813 4.801,9.571 9.57,9.571 z m 55.231,-147.192 -0.821,-0.777 c -6.41,-6.402 -17.621,-6.402 -23.98,0 l -43.211,43.211 c -4.02,3.976 -1.598,8.789 -1.598,13.59 l 0,40 c 0,9.609 8.008,16.797 16.797,16.797 l 3.203,0 c 9.61,0 16.797,-8.008 16.797,-16.797 l 0,-34.41 37.582,-37.582 c 7.219,-6.411 2.418,-17.622 -4.769,-24.032 z m 28.789,44.813 c -4.801,0 -9.61,3.98 -9.61,9.609 0,4.801 3.981,9.61 9.61,9.61 4.8,0 9.609,-4.032 9.609,-9.61 0,-5.629 -4.019,-9.609 -9.609,-9.609 z" /></g></g></svg>