<?xml version="1.0" encoding="UTF-8" standalone="no"?>
<svg
   xmlns:dc="http://purl.org/dc/elements/1.1/"
   xmlns:cc="http://creativecommons.org/ns#"
   xmlns:rdf="http://www.w3.org/1999/02/22-rdf-syntax-ns#"
   xmlns:svg="http://www.w3.org/2000/svg"
   xmlns="http://www.w3.org/2000/svg"
   viewBox="0 0 45 43.75"
   height="43.75"
   width="45"
   xml:space="preserve"
   version="1.1"
   id="svg2"><metadata
     id="metadata8"><rdf:RDF><cc:Work
         rdf:about=""><dc:format>image/svg+xml</dc:format><dc:type
           rdf:resource="http://purl.org/dc/dcmitype/StillImage" /></cc:Work></rdf:RDF></metadata><defs
     id="defs6" /><g
     transform="matrix(1.25,0,0,-1.25,0,43.75)"
     id="g10"><g
       transform="scale(0.1,0.1)"
       id="g12"><path
         id="path14"
         style="fill:#0078d7;fill-opacity:1;fill-rule:nonzero;stroke:none"
         d="m 113.121,41.9883 c -3.199,1.6133 -5.582,3.2109 -7.18,4.8125 L 102.73,50 c -0.82,0.7813 -0.82,2.3789 -0.82,4.8086 0,2.3828 0.82,4.8008 3.211,6.4023 2.418,1.5977 4.801,2.3907 8,2.3907 4.809,0 8.789,-0.793 12,-3.211 l 0,7.2305 C 122.73,69.1797 118.711,70 113.91,70 c -5.59,0 -9.57,-1.6016 -13.601,-3.9805 -3.1996,-3.2109 -4.7973,-6.4101 -4.7973,-11.2109 0,-3.207 0.8164,-6.4102 3.1992,-8.7891 1.5981,-2.4179 5.6291,-4.8086 9.6091,-8.0078 4.801,-3.2031 8.008,-4.8125 9.61,-7.2304 1.601,-1.6016 2.379,-3.9805 2.379,-6.3594 0,-5.6328 -3.981,-8.8321 -11.168,-8.8321 -2.422,0 -4.801,0.8204 -7.231,1.6016 -2.3787,0.8203 -4.8006,2.418 -6.3983,4.0195 l 0,-8.0117 c 0.8164,-0.8203 3.1992,-1.5976 5.6173,-2.4179 C 103.52,10 105.941,10 108.32,10 c 5.59,0 10.391,1.6016 14.41,3.9883 3.211,2.4219 4.809,6.4023 4.809,11.2109 0,3.1992 -0.82,6.4024 -3.199,8.7891 -2.43,2.4219 -6.41,5.6211 -11.219,8 z" /><path
         id="path16"
         style="fill:#0078d7;fill-opacity:1;fill-rule:nonzero;stroke:none"
         d="m 153.91,68.3984 -15.98,0 0,-57.6171 15.191,0 c 6.41,0 11.219,1.5976 16.02,4.0273 4.769,2.3828 8.789,5.582 11.168,10.3906 2.421,4.8008 4.031,9.6094 4.031,15.1914 0.781,19.2188 -9.61,28.0078 -30.43,28.0078 z m 17.61,-44.7968 c -3.981,-3.9922 -10.391,-6.4102 -17.61,-6.4102 l -8.789,0 0,45.6172 8.789,0 c 16.012,0 23.199,-7.2188 23.199,-22.418 0.821,-7.1914 -1.597,-12.7695 -5.589,-16.789 z" /><path
         id="path18"
         style="fill:#0078d7;fill-opacity:1;fill-rule:nonzero;stroke:none"
         d="m 320.309,310.781 c -2.379,2.418 -4.797,2.418 -6.399,0.821 -0.789,-0.821 -1.57,-1.602 -0.789,-3.204 0,-1.597 0.789,-2.378 1.609,-3.199 l 5.579,5.582 z" /><path
         id="path20"
         style="fill:#0078d7;fill-opacity:1;fill-rule:nonzero;stroke:none"
         d="m 101.129,196.41 32.781,-31.988 10.43,10.387 -13.602,13.589 -6.398,5.59 33.59,32.813 3.98,-0.781 3.211,0 c 2.418,0 4.02,0 6.399,0.781 l -20,19.219 -1.598,1.601 c 7.187,24.758 0.816,52.77 -19.184,71.988 -20,19.18 -48.8278,25.59 -74.4099,19.18 L 99.5313,297.191 88.3203,255.59 45.9414,244.422 2.73047,286.801 c -7.21875,-24.813 0,-51.992 20.00003,-71.992 21.6093,-20.821 52,-27.188 78.3985,-18.399 z" /><path
         id="path22"
         style="fill:#0078d7;fill-opacity:1;fill-rule:nonzero;stroke:none"
         d="m 237.109,245.199 c -0.781,0.821 -1.597,0.821 -2.379,1.602 0.782,-0.781 0.782,-1.602 1.598,-2.379 l 5.582,-10.434 6.41,5.621 -11.211,5.59 z" /><path
         id="path24"
         style="fill:#0078d7;fill-opacity:1;fill-rule:nonzero;stroke:none"
         d="m 233.91,166.801 c -0.789,-3.199 -0.789,-6.41 -0.789,-9.61 l 0.789,-3.992 -3.172,-3.199 -22.418,-20.82 -8.011,-7.969 -20,19.18 -10.387,-10.391 63.199,-61.6016 -7.18,0 -21.601,-24.7968 -1.61,-1.6133 0,27.1914 -6.402,0 0,-57.5781 6.402,0 0,28.789 c 0.79,-0.7812 0.79,-1.6015 1.61,-2.3789 l 22.379,-26.4101 9.609,0 -26.406,29.6093 23.988,27.1875 45.621,-44.7968 c 7.188,-7.1914 15.981,-10.4024 25.59,-10.4024 9.609,0 18.399,3.211 25.617,10.4024 14.383,13.5898 14.383,36.0078 0,49.5976 L 233.91,166.801 Z" /><path
         id="path26"
         style="fill:#0078d7;fill-opacity:1;fill-rule:nonzero;stroke:none"
         d="m 177.93,158.012 20,-19.223 22.379,21.602 c -1.598,10.39 2.421,21.597 10.429,29.609 7.973,8.012 20,11.988 30.391,10.391 l 98.402,95.199 -55.191,52.808 -97.621,-94.41 c 0.82,-10.386 -2.379,-21.609 -10.391,-29.566 -8.789,-8.012 -20,-11.223 -30.387,-10.434 l -22.421,-21.609 20,-19.18 L 65.9414,79.6094 62.7305,82.8086 44.3398,68.3984 13.1211,20.3906 21.1289,12.3789 70.7383,42.8086 85.9414,61.2109 82.7305,64.4219 177.93,158.012 Z M 309.922,315.59 c 2.418,2.422 5.59,4.019 8.008,3.199 2.379,0 5.59,-1.598 7.191,-3.98 l 2.418,-2.43 -11.211,-11.168 c 2.383,-2.422 5.582,-2.422 8.012,0.777 1.601,1.614 3.199,4.032 3.98,6.41 l 4.02,-3.976 c -0.82,-2.434 -2.418,-4.813 -4.801,-7.231 -3.199,-2.382 -5.629,-3.992 -8.828,-3.992 -3.199,0 -5.59,1.61 -8.789,3.992 -3.203,3.2 -3.981,6.411 -3.981,9.61 0.778,3.98 1.598,6.398 3.981,8.789 z m -15.192,-15.981 3.2,-3.199 c -1.602,3.199 -0.821,5.578 0.781,8.012 0.82,0.777 0.82,0.777 1.598,0.777 l 4.812,-4.808 c -0.781,0 -1.601,-0.782 -2.391,-1.602 -0.82,-0.777 -1.601,-2.379 -1.601,-3.98 0,-1.61 0.781,-3.207 2.391,-4.028 l 8,-7.972 -5.579,-4.797 -16.8,17.578 5.589,4.019 z m -21.609,-20.82 9.609,-9.609 c 2.391,-2.379 4.809,-2.379 6.411,-0.782 0.781,0.782 1.597,1.602 1.597,3.204 0,1.597 -0.816,2.386 -1.597,3.207 l -9.61,9.613 5.59,4.758 16.789,-17.578 -5.582,-4.801 -2.418,2.379 c 0.82,-3.16 0,-6.371 -2.39,-7.969 -3.981,-4.02 -8,-3.199 -12.809,1.598 l -10.391,11.179 4.801,4.801 z m -8,-7.187 2.418,-2.422 2.383,-18.399 8.008,8.008 3.98,-3.98 -15.191,-15.2 -2.379,1.602 -2.43,19.18 -8,-7.192 -3.172,3.992 14.383,14.411 z m -31.211,-16.793 32.031,-16.02 -5.632,-5.59 -7.188,3.992 -8.781,-8.011 3.199,-7.192 -5.629,-5.578 -14.371,32.77 6.371,5.629 z" /></g></g></svg>