<?xml version="1.0" encoding="UTF-8" standalone="no"?>
<svg
   xmlns:dc="http://purl.org/dc/elements/1.1/"
   xmlns:cc="http://creativecommons.org/ns#"
   xmlns:rdf="http://www.w3.org/1999/02/22-rdf-syntax-ns#"
   xmlns:svg="http://www.w3.org/2000/svg"
   xmlns="http://www.w3.org/2000/svg"
   viewBox="0 0 45 32.5"
   height="32.5"
   width="45"
   xml:space="preserve"
   version="1.1"
   id="svg2"><metadata
     id="metadata8"><rdf:RDF><cc:Work
         rdf:about=""><dc:format>image/svg+xml</dc:format><dc:type
           rdf:resource="http://purl.org/dc/dcmitype/StillImage" /></cc:Work></rdf:RDF></metadata><defs
     id="defs6" /><g
     transform="matrix(1.25,0,0,-1.25,0,32.5)"
     id="g10"><g
       transform="scale(0.1,0.1)"
       id="g12"><path
         id="path14"
         style="fill:#0078d7;fill-opacity:1;fill-rule:evenodd;stroke:none"
         d="m 302.379,143.609 c 2.422,7.192 3.211,14.379 3.211,21.602 0,47.187 -37.578,85.59 -83.211,85.59 -34.367,0 -63.981,-21.602 -76.789,-52.813 -10.391,13.59 -26.371,20.821 -44.809,20.821 -31.9919,0 -58.4021,-27.231 -58.4021,-60.821 0,-5.59 0.8203,-11.168 2.4219,-16.797 C 18.3984,131.578 0,108.422 0,77.9883 0,38.8086 31.2109,10.0195 69.6094,10.0195 l 213.5896,0 c 38.403,0 68.789,28.7891 68.789,67.9688 C 351.211,110.02 331.211,134 302.379,143.609 Z M 256.02,114 c -6.411,-24.8008 -28.008,-42.4219 -53.641,-42.4219 -3.981,0 -8.789,0.8203 -13.59,1.6016 -3.988,1.6016 -8.789,3.2109 -13.59,4.8086 L 136.801,39.5898 c -3.211,-3.1992 -7.192,-4.8085 -11.211,-4.8085 -3.988,0 -8.789,1.6093 -11.18,4.8085 -3.199,3.1993 -4.801,7.2305 -4.801,11.211 0,3.9805 1.602,8.789 4.801,11.2109 l 38.399,38.3983 c -6.399,11.988 -8.829,26.41 -4.797,39.18 6.398,24.801 28.008,42.422 53.59,42.422 3.988,0 8.789,-0.821 13.597,-1.602 14.41,-3.199 26.403,-12.808 33.59,-25.629 C 257.621,142.789 260,127.602 256.02,114 Z" /><path
         id="path16"
         style="fill:#0078d7;fill-opacity:1;fill-rule:evenodd;stroke:none"
         d="m 211.211,160.41 c -3.199,0.781 -5.621,0.781 -8.832,0.781 -15.188,0 -29.57,-10.39 -32.77,-26.41 -2.418,-8.781 -0.82,-20 4.801,-27.179 2.391,-3.211 5.59,-6.411 8.789,-8.7934 3.211,-2.418 7.192,-4.0273 11.211,-4.8086 3.211,-0.8203 5.59,-0.8203 8.789,-0.8203 15.199,0 29.61,10.4293 32.821,26.4103 2.378,8.832 0.781,18.398 -4.032,26.41 -4.797,6.398 -12.769,11.988 -20.777,14.41 z" /></g></g></svg>