<?xml version="1.0" encoding="UTF-8" standalone="no"?>
<svg
   xmlns:dc="http://purl.org/dc/elements/1.1/"
   xmlns:cc="http://creativecommons.org/ns#"
   xmlns:rdf="http://www.w3.org/1999/02/22-rdf-syntax-ns#"
   xmlns:svg="http://www.w3.org/2000/svg"
   xmlns="http://www.w3.org/2000/svg"
   viewBox="0 0 47.5 48.75"
   height="48.75"
   width="47.5"
   xml:space="preserve"
   version="1.1"
   id="svg2"><metadata
     id="metadata8"><rdf:RDF><cc:Work
         rdf:about=""><dc:format>image/svg+xml</dc:format><dc:type
           rdf:resource="http://purl.org/dc/dcmitype/StillImage" /></cc:Work></rdf:RDF></metadata><defs
     id="defs6" /><g
     transform="matrix(1.25,0,0,-1.25,0,48.75)"
     id="g10"><g
       transform="scale(0.1,0.1)"
       id="g12"><path
         id="path14"
         style="fill:#0072c6;fill-opacity:1;fill-rule:evenodd;stroke:none"
         d="m 306.211,189.102 c 7.07,0 13.789,2.808 18.789,7.808 l 50,50 0,2.578 -137.699,0 0,-2.578 50,-50 c 5.078,-5 11.679,-7.808 18.91,-7.808 z m 23.59,3.089 c -6.281,-6.293 -14.68,-9.812 -23.59,-9.812 -8.91,0 -17.301,3.519 -23.59,9.812 l -45.32,45.188 0,-91.867 137.699,0 0,91.867 -45.199,-45.188 z m -136.211,-3.793 23.129,0 0,18.321 -23.129,0 0,-18.321 z m -35.781,0 24.492,0 0,18.321 -24.492,0 0,-18.321 z M 6.21094,385 C 2.5,385 0,382.5 0,378.789 l 0,-75 C 0,300 2.5,297.5 6.21094,297.5 l 37.49996,0 C 47.5,297.5 50,300 50,303.789 l 0,31.211 275,0 0,-31.289 c 0,-3.711 2.5,-6.211 7.5,-6.211 l 36.211,0 c 3.789,0 6.289,2.5 6.289,6.211 l 0,75 C 375,382.5 372.5,385 368.789,385 L 6.21094,385 Z M 68.7891,189.102 c 7.2304,0 13.832,2.808 18.9101,7.808 l 49.9998,50 0,2.578 -137.699,0 0,-2.578 50,-50 c 5,-5 11.7188,-7.808 18.7891,-7.808 z m 23.5898,3.089 c -6.2891,-6.293 -14.6797,-9.812 -23.5898,-9.812 -8.9102,0 -17.3086,3.519 -23.5899,9.812 L 0,237.379 l 0,-91.867 137.699,0 0,91.867 -45.3201,-45.188 z M 368.789,10 C 372.5,10 375,12.5 375,16.2109 L 375,90 c 0,3.7109 -2.5,6.2109 -6.211,6.2109 l -36.289,0 c -3.711,0 -6.211,-2.5 -6.211,-6.2109 l 0,-30 L 50,60 50,91.2109 C 50,95 47.5,97.5 42.5,97.5 l -36.28906,0 C 2.5,97.5 0,95 0,90 L 0,16.2109 C 0,12.5 2.5,10 6.21094,10 L 368.789,10 Z" /></g></g></svg>