<?xml version="1.0" encoding="UTF-8" standalone="no"?>
<svg
   xmlns:dc="http://purl.org/dc/elements/1.1/"
   xmlns:cc="http://creativecommons.org/ns#"
   xmlns:rdf="http://www.w3.org/1999/02/22-rdf-syntax-ns#"
   xmlns:svg="http://www.w3.org/2000/svg"
   xmlns="http://www.w3.org/2000/svg"
   viewBox="0 0 47.5 48.75"
   height="48.75"
   width="47.5"
   xml:space="preserve"
   version="1.1"
   id="svg2"><metadata
     id="metadata8"><rdf:RDF><cc:Work
         rdf:about=""><dc:format>image/svg+xml</dc:format><dc:type
           rdf:resource="http://purl.org/dc/dcmitype/StillImage" /></cc:Work></rdf:RDF></metadata><defs
     id="defs6" /><g
     transform="matrix(1.25,0,0,-1.25,0,48.75)"
     id="g10"><g
       transform="scale(0.1,0.1)"
       id="g12"><path
         id="path14"
         style="fill:#0072c6;fill-opacity:1;fill-rule:evenodd;stroke:none"
         d="m 271.02,270.59 c -4.032,-3.871 -9.219,-6.102 -14.809,-6.102 -5.621,0 -10.902,2.231 -14.801,6.102 l -28.398,28.39 0,-33.39 -11.602,11.519 -16.101,-16.019 11.992,-11.871 15.711,15.582 0,-23.512 86.398,0 0,57.691 -28.39,-28.39 z m 0,-147.891 c -4.032,-3.91 -9.219,-6.097 -14.809,-6.097 -5.621,0 -10.902,2.187 -14.801,6.097 l -28.398,28.391 0,-15.891 -15.711,15.699 -11.992,-11.988 16.101,-16.019 11.602,11.597 0,-41.0896 86.398,0 0,57.6916 -28.39,-28.391 z m -14.809,146.012 c 4.379,0 8.59,1.801 11.801,4.879 l 31.398,31.41 0,1.602 -86.398,0 0,-1.602 31.398,-31.41 c 3.09,-3.078 7.309,-4.879 11.801,-4.879 z m 0,-147.93 c 4.379,0 8.59,1.719 11.801,4.918 l 31.398,31.41 0,1.602 -86.398,0 0,-1.602 31.398,-31.41 c 3.09,-3.199 7.309,-4.918 11.801,-4.918 z m -78.121,25.508 12.031,11.91 -16.211,16.211 -12,-11.91 16.18,-16.211 z m -4.301,79.301 16.211,16.211 -11.988,11.988 -16.211,-16.168 11.988,-12.031 z m -19.18,-55.899 11.871,12.028 -16.089,16.172 -11.993,-11.993 16.211,-16.207 z m -4.218,32.5 16.089,16.207 -11.871,11.911 -16.211,-16.09 11.993,-12.028 z M 6.21094,385 C 2.5,385 0,382.5 0,378.789 l 0,-75 C 0,300 2.5,297.5 6.21094,297.5 l 37.49996,0 C 47.5,297.5 50,300 50,303.789 l 0,31.211 275,0 0,-31.289 c 0,-3.711 2.5,-6.211 7.5,-6.211 l 36.211,0 c 3.789,0 6.289,2.5 6.289,6.211 l 0,75 C 375,382.5 372.5,385 368.789,385 L 6.21094,385 Z M 68.7891,191.602 c 7.2304,0 13.832,2.808 18.9101,7.808 l 49.9998,50 0,2.699 -137.699,0 0,-2.699 50,-50 c 5,-5 11.7188,-7.808 18.7891,-7.808 z m 23.5898,3.089 c -6.2891,-6.293 -14.6797,-9.812 -23.5898,-9.812 -8.9102,0 -17.3086,3.519 -23.5899,9.812 L 0,239.879 l 0,-91.867 137.699,0 0,91.867 -45.3201,-45.188 z M 368.789,10 C 372.5,10 375,12.5 375,16.2109 L 375,90 c 0,3.7109 -2.5,6.2109 -6.211,6.2109 l -36.289,0 c -3.711,0 -6.211,-2.5 -6.211,-6.2109 l 0,-30 L 50,60 50,91.2109 C 50,95 47.5,97.5 42.5,97.5 l -36.28906,0 C 2.5,97.5 0,95 0,90 L 0,16.2109 C 0,12.5 2.5,10 6.21094,10 L 368.789,10 Z" /></g></g></svg>