<?xml version="1.0" encoding="UTF-8" standalone="no"?>
<svg
   xmlns:dc="http://purl.org/dc/elements/1.1/"
   xmlns:cc="http://creativecommons.org/ns#"
   xmlns:rdf="http://www.w3.org/1999/02/22-rdf-syntax-ns#"
   xmlns:svg="http://www.w3.org/2000/svg"
   xmlns="http://www.w3.org/2000/svg"
   viewBox="0 0 47.5 48.75"
   height="48.75"
   width="47.5"
   xml:space="preserve"
   version="1.1"
   id="svg2"><metadata
     id="metadata8"><rdf:RDF><cc:Work
         rdf:about=""><dc:format>image/svg+xml</dc:format><dc:type
           rdf:resource="http://purl.org/dc/dcmitype/StillImage" /></cc:Work></rdf:RDF></metadata><defs
     id="defs6" /><g
     transform="matrix(1.25,0,0,-1.25,0,48.75)"
     id="g10"><g
       transform="scale(0.1,0.1)"
       id="g12"><path
         id="path14"
         style="fill:#0072c6;fill-opacity:1;fill-rule:evenodd;stroke:none"
         d="m 200.898,221.48 36.012,-57.57 c -34.058,-34.031 9.031,-88.2811 49.852,-63.129 40.859,25.199 11.758,88.047 -33.953,72.93 l -36.09,57.891 c 25.121,26.097 5.98,69.527 -30.239,68.597 -36.25,-0.98 -53.082,-45.359 -26.601,-70.078 l -35.66,-57.109 C 79.3398,190.352 47.1484,129.141 86.5586,101.91 126.02,74.6914 171.84,126.52 139.691,162.301 l 36.598,58.48 c 8.09,-2.301 16.68,-2.07 24.609,0.699 z M 368.98,10 c 3.719,0 6.02,2.3008 6.02,6.0195 l 0,73.4688 c 0,3.793 -2.301,6.0234 -6.02,6.0234 l -35.968,0 c -3.793,0 -6.024,-2.2304 -6.024,-6.0234 l 0,-30 -276.7888,0 0,31.5312 c 0,3.7813 -2.1875,5.9688 -7.5,5.9688 l -36.67967,0 C 2.19141,96.9883 0,94.8008 0,89.4883 L 0,16.0195 C 0,12.3008 2.19141,10 6.01953,10 L 368.98,10 Z M 6.01953,385 C 2.19141,385 0,382.809 0,378.98 l 0,-75 c 0,-3.671 2.19141,-5.968 6.01953,-5.968 l 37.49997,0 c 3.6719,0 5.9688,2.297 5.9688,5.968 l 0,30.821 275.3127,0 0,-31.52 c 0,-3.793 2.187,-5.98 7.5,-5.98 l 35.98,0 c 3.707,0 5.938,2.187 5.938,5.98 l 0,75 C 375,382.809 372.699,385 368.98,385 L 6.01953,385 Z" /></g></g></svg>