<?xml version="1.0" encoding="UTF-8" standalone="no"?>
<svg
   xmlns:dc="http://purl.org/dc/elements/1.1/"
   xmlns:cc="http://creativecommons.org/ns#"
   xmlns:rdf="http://www.w3.org/1999/02/22-rdf-syntax-ns#"
   xmlns:svg="http://www.w3.org/2000/svg"
   xmlns="http://www.w3.org/2000/svg"
   viewBox="0 0 37.5 38.75"
   height="38.75"
   width="37.5"
   xml:space="preserve"
   version="1.1"
   id="svg2"><metadata
     id="metadata8"><rdf:RDF><cc:Work
         rdf:about=""><dc:format>image/svg+xml</dc:format><dc:type
           rdf:resource="http://purl.org/dc/dcmitype/StillImage" /></cc:Work></rdf:RDF></metadata><defs
     id="defs6" /><g
     transform="matrix(1.25,0,0,-1.25,0,38.75)"
     id="g10"><g
       transform="scale(0.1,0.1)"
       id="g12"><path
         id="path14"
         style="fill:#0078d7;fill-opacity:1;fill-rule:evenodd;stroke:none"
         d="m 299.301,183.012 c 0,25.898 -21.02,46.797 -46.801,46.797 -9.488,0 -18.398,-2.887 -25.781,-7.809 l -32.418,26.789 c 1.398,4.422 2.109,9.031 2.109,13.711 0,25.898 -20.898,46.801 -46.801,46.801 -25.82,0 -46.718,-20.903 -46.718,-46.801 0,-4.68 0.699,-9.289 1.988,-13.59 L 70.1211,220 c -6.8398,3.281 -14.8125,5.078 -23.3203,5.078 C 20.8984,225.078 0,208.91 0,183.012 0,160 16.6016,140.898 38.5195,137.109 L 51.0898,92 C 41.2891,83.3984 35,70.8984 35,56.8008 35,31.0195 56.0195,10 81.8008,10 101.91,10 118.91,22.6992 125.59,40.5117 l 48.121,0 C 180.309,22.6992 197.379,10 217.379,10 c 25.902,0 46.84,21.0195 46.84,46.8008 0,14.6094 -6.719,27.6992 -17.231,36.2109 l 12.891,43.9103 c 22.312,3.59 39.422,22.769 39.422,46.09 z M 217.379,103.52 c -22.578,0 -41.359,-16.02 -45.777,-37.3091 l -43.981,0 C 123.199,87.5 104.41,103.52 81.8008,103.52 c -2.3906,0 -4.8125,-0.239 -7.1094,-0.508 l -10.2031,36.797 c 16.9922,6.992 29.0312,23.711 29.0312,43.203 0,7.187 -1.6093,13.59 -4.539,19.179 l 30.1215,25 c 8.199,-7.113 18.789,-11.41 30.507,-11.41 11.68,0 22.379,4.297 30.59,11.41 L 210,202.391 c -2.699,-5.903 -4.219,-12.391 -4.219,-19.301 0,-19.301 11.598,-35.781 28.199,-43.012 l -10.89,-36.867 c -1.801,0.187 -3.68,0.309 -5.711,0.309 z" /></g></g></svg>