<?xml version="1.0" encoding="UTF-8" standalone="no"?>
<svg
   xmlns:dc="http://purl.org/dc/elements/1.1/"
   xmlns:cc="http://creativecommons.org/ns#"
   xmlns:rdf="http://www.w3.org/1999/02/22-rdf-syntax-ns#"
   xmlns:svg="http://www.w3.org/2000/svg"
   xmlns="http://www.w3.org/2000/svg"
   viewBox="0 0 47.5 41.25"
   height="41.25"
   width="47.5"
   xml:space="preserve"
   version="1.1"
   id="svg2"><metadata
     id="metadata8"><rdf:RDF><cc:Work
         rdf:about=""><dc:format>image/svg+xml</dc:format><dc:type
           rdf:resource="http://purl.org/dc/dcmitype/StillImage" /></cc:Work></rdf:RDF></metadata><defs
     id="defs6" /><g
     transform="matrix(1.25,0,0,-1.25,0,41.25)"
     id="g10"><g
       transform="scale(0.1,0.1)"
       id="g12"><path
         id="path14"
         style="fill:#0072c6;fill-opacity:1;fill-rule:evenodd;stroke:none"
         d="m 213.012,221.512 c 45,0 81.679,-33.711 86.988,-76.532 10.512,-8.199 18.789,-17.96 24.691,-28.468 29.289,7.5 49.528,33.008 49.528,63.789 0,24.679 -13.438,44.219 -36.719,55.5 l 0,8.211 c 0,43.468 -36.02,79.488 -79.488,79.488 -26.293,0 -50.313,-12.699 -65.203,-33.012 -9.797,6.024 -20.309,9.032 -32.297,9.032 -31.532,0 -56.992,-24.032 -60,-54.032 4.488,0.821 9.797,0.821 15,0.821 23.277,0 49.488,-3.829 71.207,-27.028 l 26.293,2.231 z m -28.524,-34.492 0,-0.711 0,0.711 z m 0,0 C 163.52,173.5 156.02,154.012 155.199,132.988 l 26.281,0 -39.679,-47.1872 -40.512,47.1872 26.91,0 c 0.781,28.524 12,55.512 31.492,72.813 -12.703,8.211 -27.703,12.699 -43.48,12.699 -44.2227,0 -80.1915,-35.199 -80.1915,-78.711 l 0,-8.277 C 13.5195,120.301 0,100.801 0,76 0,38.5 30,9.98047 68.9805,9.98047 l 170.2385,0 c 38.98,0 68.98,29.21873 68.98,66.01953 0,23.9805 -11.988,42.809 -34.488,53.98 l 0,4.54 c 0,32.96 -26.992,60 -60,60 -10.512,0 -20.191,-3.008 -29.223,-7.5 z" /></g></g></svg>