<?xml version="1.0" encoding="UTF-8" standalone="no"?>
<svg
   xmlns:dc="http://purl.org/dc/elements/1.1/"
   xmlns:cc="http://creativecommons.org/ns#"
   xmlns:rdf="http://www.w3.org/1999/02/22-rdf-syntax-ns#"
   xmlns:svg="http://www.w3.org/2000/svg"
   xmlns="http://www.w3.org/2000/svg"
   viewBox="0 0 30 40"
   height="40"
   width="30"
   xml:space="preserve"
   version="1.1"
   id="svg2"><metadata
     id="metadata8"><rdf:RDF><cc:Work
         rdf:about=""><dc:format>image/svg+xml</dc:format><dc:type
           rdf:resource="http://purl.org/dc/dcmitype/StillImage" /></cc:Work></rdf:RDF></metadata><defs
     id="defs6" /><g
     transform="matrix(1.25,0,0,-1.25,0,40)"
     id="g10"><g
       transform="scale(0.1,0.1)"
       id="g12"><path
         id="path14"
         style="fill:#0078d7;fill-opacity:1;fill-rule:nonzero;stroke:none"
         d="m 125.59,165.191 c -0.789,1.598 -2.391,2.418 -3.211,4.02 -1.598,0.777 -3.16,1.598 -4.758,1.598 -2.422,0 -4.031,-0.821 -5.633,-1.598 -1.597,-0.82 -2.379,-2.422 -3.976,-3.199 l -2.422,-4.813 c -0.789,-1.597 -0.789,-3.98 -0.789,-6.398 0,-3.211 0,-5.59 0.789,-7.192 0.82,-2.418 1.601,-4.019 2.422,-4.808 0.777,-1.602 2.379,-2.422 3.976,-2.422 1.602,-0.777 3.211,-0.777 4.813,-0.777 1.597,0 3.199,0 3.98,0.777 1.598,0.82 2.418,1.601 4.02,3.211 l 2.39,4.801 c 0.821,1.597 0.821,4.019 0.821,7.23 0,2.379 0,3.981 -0.821,6.359 l -1.601,3.211 z" /><path
         id="path16"
         style="fill:#0078d7;fill-opacity:1;fill-rule:nonzero;stroke:none"
         d="M 115.199,318 C 51.2109,318 0,296.398 0,272.41 L 0,56.3984 C 0,32.4102 51.9883,9.98828 115.199,9.98828 c 64.02,0 115.192,21.60152 115.192,45.63282 l 0,215.9689 C 231.211,295.621 179.219,318 115.199,318 Z M 80.7813,137.219 c 0,-1.598 -0.7813,-3.199 -1.5625,-4.809 -0.8204,-1.601 -1.5977,-3.199 -3.1993,-4.019 -1.6093,-1.602 -3.2109,-2.379 -4.8086,-3.2 -1.6015,-0.781 -4.0195,-1.601 -7.2304,-2.39 -2.3789,-0.821 -5.5821,-0.821 -9.5703,-0.821 l -5.6211,0 c -1.5977,0 -3.1993,0 -4.8086,0.821 -1.6016,0 -3.1992,0.789 -3.9805,0.789 -1.6016,0 -2.3789,0.82 -3.1992,1.601 l 0,16.789 c 0.8203,-0.781 2.418,-1.601 3.9805,-2.378 1.5976,-0.821 2.4179,-1.602 4.0195,-2.383 1.6094,-0.821 3.2109,-0.821 4.8086,-1.598 1.6015,-0.82 3.1992,-0.82 4.8008,-0.82 1.6093,0 2.3906,0 3.2109,0.82 0.7773,0 1.5977,0.777 1.5977,0.777 C 60,136.398 60,137.219 60,138 l 0,1.602 c 0,0.777 0,1.597 -0.7812,2.378 -0.8204,0.821 -0.8204,1.61 -1.5977,1.61 -0.8203,0.82 -1.6016,0.82 -3.2109,1.601 -1.6016,0.821 -2.4219,0.821 -4.0196,1.598 -2.3789,0.82 -4.8008,2.422 -7.1914,4.02 -1.5976,1.601 -3.1992,2.39 -4.8008,3.992 -1.5976,1.597 -2.3789,3.199 -2.3789,4.801 -0.8203,1.597 -0.8203,3.988 -0.8203,5.589 0,3.2 0.8203,5.618 1.6016,8.008 1.5976,2.422 3.1992,4.801 4.8008,6.403 2.3789,1.597 4.8086,3.199 8.0078,3.988 3.1992,0.82 6.4101,1.601 10.3906,1.601 l 5.5898,0 c 1.6016,0 3.1993,0 4.8008,-0.781 1.5977,0 2.418,-0.82 4.0196,-0.82 1.6093,0 2.3906,-0.789 3.2109,-0.789 l 0,-16.012 c -0.8203,0.82 -1.6016,0.82 -3.2109,1.602 -0.8204,0.82 -2.4219,0.82 -4.0196,1.597 -1.6015,0.821 -2.3789,0.821 -3.9804,0.821 l -4.8086,0 c -2.3828,0 -3.9805,0 -4.8008,-0.821 -1.6016,-0.777 -1.6016,-1.597 -1.6016,-3.199 0,-0.777 0,-1.598 0.8203,-1.598 0,-0.781 0.7813,-0.781 1.6016,-1.601 0.7773,-0.789 1.5977,-0.789 2.3789,-1.61 0.7813,-0.781 2.3789,-0.781 3.9805,-1.601 2.4297,-0.777 4.8086,-2.379 7.2304,-3.16 2.3789,-1.598 3.9883,-2.418 5.5899,-4.02 1.5976,-1.609 2.418,-3.211 3.9805,-4.808 0.8203,-1.602 1.5976,-3.981 1.5976,-7.192 -0.7773,-0.82 -1.5976,-2.418 -1.5976,-3.98 z m 47.2307,-30.43 -13.602,14.41 c -4.019,0 -8,1.602 -11.211,2.391 -3.199,1.601 -6.3982,4.019 -8.7888,6.398 -2.4219,2.422 -4.8008,5.633 -6.3985,9.614 -1.6015,3.988 -2.4219,8.007 -2.4219,12.808 0,4.809 0.8204,9.57 2.4219,13.602 1.5977,3.976 3.9766,7.187 6.3985,10.386 2.3906,3.204 6.3708,4.801 9.5698,6.403 4.032,1.609 8.008,2.39 12.821,2.39 4.801,0 8.789,-0.781 11.988,-2.39 4.02,-1.602 7.231,-4.02 9.609,-6.403 2.383,-2.378 4.801,-6.41 6.403,-9.609 1.609,-3.988 2.39,-8.008 2.39,-13.59 0,-3.211 0,-7.187 -1.601,-9.609 -0.789,-3.211 -2.391,-5.59 -3.988,-7.969 -1.602,-2.422 -3.204,-4.812 -5.582,-6.41 -2.43,-1.602 -4.032,-3.199 -7.231,-4.801 l 20.82,-17.621 -21.597,0 z m 68.789,16.012 -40,0 0,61.609 18.398,0 0,-47.191 21.602,0 0,-14.418 z m -81.602,128.008 c -45.5896,0 -82.3904,11.171 -82.3904,24.812 0,13.59 36.8008,24.758 82.3904,24.758 45.582,0 82.422,-11.168 82.422,-24.758 0,-13.641 -36.84,-24.812 -82.422,-24.812 z" /></g></g></svg>