<?xml version="1.0" encoding="UTF-8" standalone="no"?>
<svg
   xmlns:dc="http://purl.org/dc/elements/1.1/"
   xmlns:cc="http://creativecommons.org/ns#"
   xmlns:rdf="http://www.w3.org/1999/02/22-rdf-syntax-ns#"
   xmlns:svg="http://www.w3.org/2000/svg"
   xmlns="http://www.w3.org/2000/svg"
   viewBox="0 0 28.75 40"
   height="40"
   width="28.75"
   xml:space="preserve"
   version="1.1"
   id="svg2"><metadata
     id="metadata8"><rdf:RDF><cc:Work
         rdf:about=""><dc:format>image/svg+xml</dc:format><dc:type
           rdf:resource="http://purl.org/dc/dcmitype/StillImage" /></cc:Work></rdf:RDF></metadata><defs
     id="defs6" /><g
     transform="matrix(1.25,0,0,-1.25,0,40)"
     id="g10"><g
       transform="scale(0.1,0.1)"
       id="g12"><path
         id="path14"
         style="fill:#0078d7;fill-opacity:1;fill-rule:evenodd;stroke:none"
         d="m 111.211,296.398 c 43.988,0 79.18,-11.207 79.18,-24.796 0,-13.602 -35.981,-24.813 -79.18,-24.813 -43.1993,0 -79.2227,11.211 -79.2227,24.813 0,14.41 36.0234,24.796 79.2227,24.796 z m -2.422,16.801 C 47.1914,313.199 0,291.602 0,268.398 L 0,55.5781 C 0,31.6016 47.1914,10 108.789,10 c 61.602,0 111.992,21.6016 111.992,44.8008 l 0,211.9882 c 0,24.031 -49.57,46.41 -111.992,46.41 z m 0,-105.59 18.402,-51.211 55.188,0 -43.981,-35.187 16.012,-52.8126 -45.621,32.8126 -45.5898,-32.8126 16.0196,52.8126 -44.0196,35.187 55.1914,0 18.3984,51.211 z" /></g></g></svg>