<?xml version="1.0" encoding="UTF-8" standalone="no"?>
<svg
   xmlns:dc="http://purl.org/dc/elements/1.1/"
   xmlns:cc="http://creativecommons.org/ns#"
   xmlns:rdf="http://www.w3.org/1999/02/22-rdf-syntax-ns#"
   xmlns:svg="http://www.w3.org/2000/svg"
   xmlns="http://www.w3.org/2000/svg"
   viewBox="0 0 90 90"
   height="90"
   width="90"
   xml:space="preserve"
   version="1.1"
   id="svg2"><metadata
     id="metadata8"><rdf:RDF><cc:Work
         rdf:about=""><dc:format>image/svg+xml</dc:format><dc:type
           rdf:resource="http://purl.org/dc/dcmitype/StillImage" /></cc:Work></rdf:RDF></metadata><defs
     id="defs6" /><g
     transform="matrix(1.25,0,0,-1.25,0,90)"
     id="g10"><g
       transform="scale(0.1,0.1)"
       id="g12"><path
         id="path14"
         style="fill:#0078d7;fill-opacity:1;fill-rule:evenodd;stroke:none"
         d="m 567.891,225.488 c -7.379,0 -13.403,-2.699 -18.012,-8.277 -4.57,-5.633 -6.598,-13.012 -6.598,-22.231 0,-9.3 2.309,-16.558 6.598,-22.191 4.609,-5.578 10.242,-8.277 17.23,-8.277 7.301,0 12.891,2.699 17.582,7.886 4.219,5.59 6.52,12.891 6.52,22.192 0,9.609 -2.301,17.5 -6.52,23.121 -3.91,5.078 -9.492,7.777 -16.8,7.777 z m 119.73,141.09 -0.633,-1.68 c -0.187,-0.578 -0.578,-1.207 -0.777,-1.597 l 0,-0.192 c -0.43,-0.507 -0.82,-0.898 -1.09,-1.531 0,0 0,-0.187 -0.242,-0.187 -0.391,-0.59 -0.777,-0.981 -1.359,-1.493 l -0.239,-0.187 c -0.39,-0.633 -0.98,-1.02 -1.48,-1.602 l -0.199,-0.199 c -0.582,-0.43 -1.211,-0.898 -1.801,-1.332 l -0.192,-0.187 c -0.507,-0.391 -1.089,-0.981 -1.91,-1.411 l -0.199,-0.191 c -0.82,-0.398 -1.289,-0.898 -2.109,-1.289 l -0.192,-0.199 c -0.789,-0.391 -1.488,-1.012 -2.308,-1.41 0,0 -0.192,0 -0.192,-0.192 -1.019,-0.308 -1.679,-0.898 -2.699,-1.289 -5.82,-2.93 -12.891,-5.43 -21.09,-7.699 -0.121,0 -0.32,0 -0.32,-0.231 -0.969,-0.39 -2.18,-0.589 -3.281,-0.781 -0.43,-0.199 -0.821,-0.199 -1.207,-0.39 -0.903,-0.2 -1.911,-0.629 -2.891,-0.821 -0.621,-0.199 -0.902,-0.199 -1.52,-0.277 l -2.89,-0.621 c -0.59,-0.199 -1.211,-0.199 -1.922,-0.391 -0.969,-0.199 -1.988,-0.39 -2.77,-0.59 -0.699,-0.187 -1.328,-0.187 -2.109,-0.429 -0.898,-0.192 -1.719,-0.391 -2.699,-0.578 -0.821,-0.122 -1.52,-0.122 -2.301,-0.313 -1.02,-0.199 -1.719,-0.398 -2.699,-0.398 -0.821,-0.192 -1.52,-0.192 -2.5,-0.391 -1.012,-0.191 -1.711,-0.191 -2.692,-0.391 -0.82,-0.187 -1.8,-0.187 -2.699,-0.429 -1.012,-0.192 -1.789,-0.192 -2.73,-0.391 -0.981,-0.187 -1.879,-0.187 -2.7,-0.391 -0.968,-0.109 -1.789,-0.109 -2.691,-0.308 -0.98,-0.199 -1.988,-0.199 -2.891,-0.391 -1.019,0 -1.796,-0.199 -2.699,-0.199 -1.008,0 -2.109,-0.191 -3.078,-0.191 -1.019,0 -1.84,-0.2 -2.742,-0.2 -0.969,0 -2.07,-0.187 -3.277,-0.187 -1.012,0 -1.723,-0.242 -2.692,-0.242 -1.211,0 -2.308,-0.192 -3.32,-0.192 -0.789,0 -1.68,0 -2.5,-0.199 -1.18,0 -2.309,-0.187 -3.68,-0.187 l -2.5,0 c -1.32,0 -2.73,0 -4.019,-0.204 l -22.77,0 c -1.211,0 -2.5,0 -3.711,0.204 -0.898,0 -1.719,0 -2.5,0.187 -1.101,0 -2.308,0.199 -3.32,0.199 -0.899,0 -1.68,0.192 -2.699,0.192 -0.903,0 -2.11,0.242 -3.09,0.242 -0.891,0 -1.711,0.187 -2.692,0.187 -0.898,0 -1.91,0.2 -3.129,0.2 -0.89,0 -1.679,0.191 -2.691,0.191 -0.898,0 -1.879,0.199 -2.891,0.391 -0.898,0.199 -1.918,0.199 -2.699,0.398 -0.898,0.109 -1.719,0.109 -2.687,0.313 -0.903,0.187 -1.922,0.187 -2.703,0.386 -0.7,0.192 -1.719,0.192 -2.5,0.434 -0.899,0.187 -1.911,0.187 -2.688,0.387 -0.82,0.191 -1.531,0.191 -2.312,0.39 -1.008,0.192 -1.911,0.391 -2.93,0.391 -0.777,0.199 -1.481,0.199 -2.07,0.39 l -2.93,0.508 c -0.777,0.192 -1.359,0.192 -1.867,0.434 L 495.121,339 c -0.633,0.199 -1.211,0.199 -1.84,0.391 l -2.89,0.589 c -0.59,0.231 -0.903,0.231 -1.481,0.309 -1.019,0.199 -2.109,0.633 -3.129,0.82 -0.39,0 -0.781,0.2 -1.172,0.2 -1.089,0.191 -2.308,0.582 -3.199,0.98 -0.199,0 -0.39,0 -0.39,0.191 -10.821,3.129 -19.93,6.719 -26.719,10.821 -0.781,0.59 -1.492,1.019 -2.313,1.488 l -0.187,0 c -0.781,0.621 -1.289,1.012 -2.11,1.602 l -0.203,0.187 c -0.578,0.512 -1.207,0.902 -1.679,1.531 l -0.188,0.192 c -0.633,0.59 -1.211,1.019 -1.601,1.597 l -0.239,0.082 c -0.582,0.629 -0.902,1.02 -1.293,1.598 l 0,0.242 c -0.386,0.578 -0.777,1.09 -1.207,1.481 l 0,0.199 c -0.39,0.578 -0.582,1.211 -0.98,1.789 l -0.5,1.723 c -0.391,1.168 -0.59,2.066 -0.59,3.277 0,20.32 55.391,37.422 123.91,37.422 68.59,0 123.981,-16.789 123.981,-37.422 -1.012,-1.598 -1.211,-2.5 -1.481,-3.711 z m -1.84,-218.789 -56.371,0 0,94.922 21.289,0 0,-77.301 35.082,0 0,-17.621 z m -93.402,-13.469 -12.578,12.969 c -3.121,-0.789 -7.692,-1.367 -12.891,-1.367 -13.32,0 -24.531,4.687 -33.199,13.277 -8.32,8.91 -13.012,20.313 -13.012,34.801 0,14.891 4.301,26.801 13.012,36.102 8.91,9.289 19.879,13.898 34.18,13.898 13.32,0 24.488,-4.609 32.808,-13.32 8.281,-8.668 12.5,-20.27 12.5,-35.192 0,-14.808 -4.219,-26.797 -12.89,-36.097 l -1.911,-1.911 24.102,-23.16 -30.121,0 z m -83.59,27.379 c -1.988,-3.59 -4.687,-6.488 -8.277,-8.789 -3.321,-2.301 -7.422,-3.711 -11.992,-4.73 -4.61,-0.891 -9.34,-1.289 -14.34,-1.289 -5,0 -10.2,0.398 -14.879,1.289 -4.813,0 -8.789,1.609 -12.11,3.32 l 0,21.289 c 3.59,-3.277 7.93,-5.578 12.5,-7.379 4.719,-1.332 9.289,-2.301 13.321,-2.301 2.769,0 5.078,0.391 6.988,0.969 1.91,0.434 3.711,0.902 5,1.922 1.41,1.012 2.301,1.91 2.699,3.32 0.391,1.289 1.012,2.258 1.012,3.59 0,1.988 -0.43,3.668 -1.41,5.078 -0.891,1.332 -2.301,2.692 -4.211,4.223 -1.879,1.398 -4.301,2.301 -6.61,3.711 -2.3,0.898 -5,2.258 -8.281,3.668 -7.301,3.199 -12.89,6.91 -16.597,11.019 -3.711,4.602 -5.582,9.602 -5.582,16.211 0,5 0.968,9.18 2.691,12.5 1.988,3.668 4.687,6.602 7.891,8.86 3.277,2.308 7.378,4.3 11.988,5 4.609,1.019 9.301,1.41 14.301,1.41 5,0 9.3,-0.391 12.89,-0.981 3.707,-0.429 7.418,-1.32 10.699,-2.687 l 0,-19.922 c -1.359,1.012 -3.281,1.988 -5.07,2.691 -1.719,0.821 -3.601,1.411 -5.629,1.989 -1.871,0.32 -4.179,0.898 -5.98,1.332 -1.91,0.386 -3.59,0.386 -5.621,0.386 -2.27,0 -4.571,0 -6.481,-0.386 -1.918,-0.434 -3.719,-1.012 -5,-1.91 -1.41,-1.024 -2.39,-1.993 -3.289,-2.704 -1.012,-1.398 -1.012,-2.296 -1.012,-3.707 0,-1.293 0.391,-2.691 1.403,-4.179 0.898,-1.403 1.879,-2.422 3.597,-3.711 1.403,-1.012 3.282,-2.301 5.582,-3.321 2.43,-0.98 4.731,-2.269 7.43,-3.281 3.59,-1.289 7.301,-3.277 10.192,-5 3.277,-1.91 5.589,-3.711 7.886,-6.019 2.313,-2.258 3.711,-4.571 5,-7.891 1.024,-2.687 1.992,-5.969 1.992,-10.187 0,-5 -0.968,-9.692 -2.691,-13.403 z m 55.391,261.289 c -85.899,0 -155.782,-25.277 -155.782,-56.41 l 0,-299.9999 c 0,-30.6562 68.711,-55.9687 153.512,-56.3672 l 0,-0.23043 2.27,0 C 650.309,9.98047 720,35.4883 720,66.3906 l 0,300.1874 c 0,31.531 -69.879,56.41 -155.82,56.41 z m -250.2,-188.277 68.911,0 0,68.98 -68.911,0 0,-68.98 z m -97.179,93.469 68.98,0 0,68.91 -68.98,0 0,-68.91 z m 0,-93.469 68.98,0 0,68.98 -68.98,0 0,-68.98 z m -43.403,186.867 68.903,0 0,69.031 -68.903,0 0,-69.031 z m -54.687,-93.398 68.988,0 0,68.91 -68.988,0 0,-68.91 z m 0,-93.469 68.988,0 0,68.98 -68.988,0 0,-68.98 z m 320.59,182.5 c 14.609,6.398 31.988,11.211 50.898,14.68 l 0,91.918 50.821,0 0,42.07 L 271.48,710.102 0,565.879 l 0,-42.07 55.3906,0 0,-291.411 46.4104,0 0,291.411 337.5,0 0,-106.598 z" /></g></g></svg>