<?xml version="1.0" encoding="UTF-8" standalone="no"?>
<svg
   xmlns:dc="http://purl.org/dc/elements/1.1/"
   xmlns:cc="http://creativecommons.org/ns#"
   xmlns:rdf="http://www.w3.org/1999/02/22-rdf-syntax-ns#"
   xmlns:svg="http://www.w3.org/2000/svg"
   xmlns="http://www.w3.org/2000/svg"
   viewBox="0 0 30 40"
   height="40"
   width="30"
   xml:space="preserve"
   version="1.1"
   id="svg2"><metadata
     id="metadata8"><rdf:RDF><cc:Work
         rdf:about=""><dc:format>image/svg+xml</dc:format><dc:type
           rdf:resource="http://purl.org/dc/dcmitype/StillImage" /></cc:Work></rdf:RDF></metadata><defs
     id="defs6" /><g
     transform="matrix(1.25,0,0,-1.25,0,40)"
     id="g10"><g
       transform="scale(0.1,0.1)"
       id="g12"><path
         id="path14"
         style="fill:#0078d7;fill-opacity:1;fill-rule:nonzero;stroke:none"
         d="M 116.801,316.398 C 51.9883,316.398 0,294.801 0,270.809 L 0,58.7813 C 0,37.1797 42.3789,14.0195 98.3984,9.98828 l 37.6216,0 c 55.968,4.03122 98.39,23.21092 98.39,44.81252 l 0,215.1872 c 0,24.032 -52.808,46.41 -117.609,46.41 z m 0,-16.019 c 46.398,0 83.199,-11.168 83.199,-24.758 0,-13.633 -37.621,-24.812 -83.199,-24.812 -46.4104,0 -83.2112,11.179 -83.2112,24.812 0,13.59 36.8008,24.758 83.2112,24.758 z m 2.418,-226.3595 c -36.0198,0 -66.4104,29.5705 -66.4104,66.3595 l 0,6.41 -30.4297,0 42.4219,43.199 35.1992,-43.199 -28.7891,0 0,-6.41 c 0,-25.578 20.7774,-47.1798 47.1871,-47.1798 8.793,0 16.801,2.4219 23.981,6.4024 L 154.41,84.4102 C 143.98,77.1797 131.988,74.0195 119.219,74.0195 Z m 48.793,16.7891 -35.203,43.2114 32.781,0 c 0,1.601 0.82,3.98 0.82,5.582 0,25.589 -20.82,47.187 -47.191,47.187 -8.008,0 -16.02,-2.379 -22.4182,-5.59 l -12,15.199 c 10.3984,6.411 21.6092,9.614 34.4182,9.614 35.98,0 66.371,-29.614 66.371,-66.41 l 0,-5.582 26.398,0 -43.976,-43.2114 z" /></g></g></svg>