<?xml version="1.0" encoding="UTF-8" standalone="no"?>
<svg
   xmlns:dc="http://purl.org/dc/elements/1.1/"
   xmlns:cc="http://creativecommons.org/ns#"
   xmlns:rdf="http://www.w3.org/1999/02/22-rdf-syntax-ns#"
   xmlns:svg="http://www.w3.org/2000/svg"
   xmlns="http://www.w3.org/2000/svg"
   viewBox="0 0 42.5 45"
   height="45"
   width="42.5"
   xml:space="preserve"
   version="1.1"
   id="svg2"><metadata
     id="metadata8"><rdf:RDF><cc:Work
         rdf:about=""><dc:format>image/svg+xml</dc:format><dc:type
           rdf:resource="http://purl.org/dc/dcmitype/StillImage" /></cc:Work></rdf:RDF></metadata><defs
     id="defs6" /><g
     transform="matrix(1.25,0,0,-1.25,0,45)"
     id="g10"><g
       transform="scale(0.1,0.1)"
       id="g12"><path
         id="path14"
         style="fill:#0078d7;fill-opacity:1;fill-rule:nonzero;stroke:none"
         d="m 108.012,181.18 c 0.777,-1.602 2.379,-2.379 3.976,-2.379 1.602,-0.781 3.211,-0.781 4.813,-0.781 1.597,0 3.199,0 3.98,0.781 1.598,0.777 2.418,1.597 4.02,3.199 l 2.39,4.809 c 0.821,1.601 0.821,3.98 0.821,7.191 0,2.422 0,4.02 -0.821,6.398 -0.781,2.383 -0.781,3.993 -2.39,5.59 -0.821,1.602 -2.422,2.422 -3.199,4.024 -1.602,0.777 -3.204,1.597 -4.801,1.597 -2.391,0 -3.992,-0.82 -5.59,-1.597 -1.602,-0.821 -2.422,-2.422 -4.02,-3.203 L 104.801,202 c -0.821,-1.602 -0.821,-3.98 -0.821,-6.398 0,-3.211 0,-5.59 0.821,-7.192 1.609,-4.019 2.39,-5.629 3.211,-7.23 z" /><path
         id="path16"
         style="fill:#0078d7;fill-opacity:1;fill-rule:nonzero;stroke:none"
         d="m 154.41,118.801 c 2.391,0 5.59,0 7.969,-0.781 12.82,25.582 38.402,42.378 68.012,43.98 l 0,149.609 c 0,23.993 -51.993,47.192 -115.192,47.192 C 51.2109,358.801 0,337.199 0,313.211 L 0,97.1992 C 0,75.6016 42.3789,54.8203 97.6211,51.6094 c -0.8203,3.2109 -0.8203,6.4101 -0.8203,9.5703 0,31.2109 25.5782,57.6213 57.6092,57.6213 z m 41.61,43.98 -40,0 0,61.61 18.39,0 0,-47.192 21.61,0 0,-14.418 z M 115.199,342 c 45.582,0 82.422,-11.211 82.422,-24.801 0,-13.597 -36.84,-24.808 -82.422,-24.808 -45.5896,0 -82.3904,11.211 -82.3904,24.808 0,13.59 36.8008,24.801 82.3904,24.801 z M 80.7813,177.199 c 0,-1.597 -0.7813,-3.199 -1.5625,-4.808 -0.8204,-1.602 -1.5977,-3.2 -3.1993,-3.981 -1.6093,-1.601 -3.2109,-2.422 -4.8086,-3.199 -1.6015,-0.82 -4.0195,-1.609 -7.2304,-2.43 C 61.6016,162 58.3984,162 54.4102,162 l -5.6211,0 c -1.5977,0 -3.1993,0 -4.8086,0.781 -1.6016,0 -3.1992,0.821 -3.9805,0.821 -1.6016,0 -2.3789,0.789 -3.1992,1.609 l 0,16.789 c 0.8203,-0.82 2.418,-1.602 3.9805,-2.422 1.5976,-0.777 2.4179,-1.558 4.0195,-2.379 1.6094,-0.777 3.2109,-0.777 4.8086,-1.597 1.6015,-0.782 3.1992,-0.782 4.8008,-0.782 1.6093,0 2.3906,0 3.2109,0.782 0.7773,0 1.5977,0.82 1.5977,0.82 C 60,176.422 60,177.199 60,178.02 l 0,1.558 c 0,0.82 0,1.602 -0.7812,2.422 -0.8204,0.781 -0.8204,1.602 -1.5977,1.602 -0.8203,0.789 -1.6016,0.789 -3.2109,1.609 -1.6016,0.777 -2.4219,0.777 -4.0196,1.598 -2.3789,0.781 -4.8008,2.382 -7.1914,3.98 -1.5976,1.602 -3.1992,2.422 -4.8008,4.031 -1.5976,1.602 -2.3789,3.2 -2.3789,4.758 -0.8203,1.602 -0.8203,4.024 -0.8203,5.633 0,3.199 0.8203,5.578 1.6016,8 1.5976,2.391 3.1992,4.809 4.8008,6.367 2.3789,1.602 4.8086,3.203 8.0078,4.024 3.1992,0.789 6.4101,1.609 10.3906,1.609 l 5.5898,0 c 1.6016,0 3.1993,0 4.8008,-0.82 1.5977,0 2.418,-0.789 4.0196,-0.789 0.789,0 2.3906,-0.821 3.2109,-0.821 l 0,-15.972 c -0.8203,0.781 -1.6016,0.781 -3.2109,1.601 -0.8204,0.781 -2.4219,0.781 -4.0196,1.602 -1.6015,0.777 -2.3789,0.777 -3.9804,0.777 l -4.8086,0 c -2.3828,0 -3.9805,0 -4.8008,-0.777 -1.6016,-0.821 -1.6016,-1.602 -1.6016,-3.203 0,-0.821 0,-1.598 0.8203,-1.598 0,-0.82 0.7813,-0.82 1.6016,-1.609 0.7773,-0.821 1.5977,-0.821 2.3789,-1.602 0.7813,-0.82 2.3789,-0.82 3.9805,-1.602 2.4297,-0.82 4.8086,-2.378 7.2304,-3.199 2.3789,-1.597 3.9883,-2.379 5.5899,-3.988 1.5976,-1.602 2.418,-3.199 3.9805,-4.801 0.8203,-1.601 1.5976,-4.019 1.5976,-7.23 -1.5976,-0.782 -1.5976,-2.379 -1.5976,-3.981 z m 6.4101,3.199 c -1.6016,3.993 -2.3906,8.012 -2.3906,12.813 0,4.809 0.789,9.57 2.3906,13.598 1.5977,3.98 4.0195,7.191 6.3984,10.39 2.4297,3.199 6.4102,4.801 9.6092,6.403 3.992,1.609 8.012,2.386 12.821,2.386 4.761,0 8.781,-0.777 11.992,-2.386 3.976,-1.602 7.187,-4.024 9.609,-6.403 2.379,-2.379 4.758,-6.41 6.359,-9.609 1.61,-3.988 2.43,-8.012 2.43,-13.59 0,-3.211 0,-7.191 -1.609,-9.609 -0.821,-3.211 -2.422,-5.59 -4.02,-7.969 -1.562,-2.422 -3.16,-4.813 -5.582,-6.41 -2.39,-1.602 -3.988,-3.203 -7.187,-4.801 l 20.777,-17.621 -23.988,0 -13.59,14.41 c -4.02,0 -8.012,1.602 -11.211,2.391 -3.1992,1.597 -6.4102,4.019 -8.7891,6.398 0,2.422 -2.4218,5.633 -4.0195,9.609 z" /><path
         id="path18"
         style="fill:#0078d7;fill-opacity:1;fill-rule:nonzero;stroke:none"
         d="m 331.211,39.5781 c 0,15.2422 -11.992,28.0117 -27.231,29.6133 0.821,4.8086 1.61,8.8281 1.61,13.5899 0,39.2187 -32,71.2187 -71.18,71.2187 -29.609,0 -56.012,-17.578 -66.398,-44.809 -4.032,0.821 -8.012,1.598 -12.813,1.598 -28.008,0 -50.398,-22.3788 -50.398,-50.3906 0,-27.1875 21.609,-49.6093 49.609,-50.3867 l 155.981,0 0,0.7774 c 11.988,3.2109 20.82,15.1992 20.82,28.789 z m -27.231,-21.5586 -148.781,0 c -23.211,0 -42.39,19.1797 -42.39,42.3789 0,23.2032 19.179,42.3826 42.39,42.3826 4.801,0 9.602,-0.781 13.59,-2.383 l 4.02,-1.5972 1.601,3.9802 c 8.789,25.629 32.781,43.207 60,43.207 35.199,0 63.211,-28.789 63.211,-63.2067 0,-5.5821 -0.82,-11.1719 -2.422,-16.793 l -1.609,-6.4102 5.629,0.8203 2.383,0 c 11.988,0 21.597,-9.6093 21.597,-21.5976 0,-10.3906 -8,-20 -19.219,-20.7813 z" /></g></g></svg>