<?xml version="1.0" encoding="UTF-8" standalone="no"?>
<svg
   xmlns:dc="http://purl.org/dc/elements/1.1/"
   xmlns:cc="http://creativecommons.org/ns#"
   xmlns:rdf="http://www.w3.org/1999/02/22-rdf-syntax-ns#"
   xmlns:svg="http://www.w3.org/2000/svg"
   xmlns="http://www.w3.org/2000/svg"
   viewBox="0 0 96.25 67.5"
   height="67.5"
   width="96.25"
   xml:space="preserve"
   version="1.1"
   id="svg2"><metadata
     id="metadata8"><rdf:RDF><cc:Work
         rdf:about=""><dc:format>image/svg+xml</dc:format><dc:type
           rdf:resource="http://purl.org/dc/dcmitype/StillImage" /></cc:Work></rdf:RDF></metadata><defs
     id="defs6" /><g
     transform="matrix(1.25,0,0,-1.25,0,67.5)"
     id="g10"><g
       transform="scale(0.1,0.1)"
       id="g12"><path
         id="path14"
         style="fill:#0078d7;fill-opacity:1;fill-rule:evenodd;stroke:none"
         d="m 715.512,173.789 c 0,0 64.797,77.93 15.269,158.902 -59.691,97.809 -162.261,43.911 -162.261,43.911 0,0 -21.719,204.41 -257.93,155.117 -60.59,-12.739 -99.18,-42.11 -123.481,-76.61 35.903,-1.91 69.18,-7.808 95.7,-17.418 34.382,-12.5 51.601,-27.5 56.8,-40.703 l 0,-127.379 102.891,0 0,75.313 21.02,-16.332 124.761,-96.68 13.129,-10.121 -12.89,-10.5 -124.809,-99.891 -21.211,-17.1089 0,79.2229 -102.891,0 0,-104.2229 c 0,-6.8672 -1.91,-14.8789 -8.129,-23.1993 l 340.122,0 c 0,0 83.398,1.211 91.988,54.4102 11.019,67.391 -48.078,73.289 -48.078,73.289 z M 272.809,427.422 c -2.5,0.777 -5.11,1.558 -7.809,2.379 -1.211,0.308 -2.301,0.699 -3.398,1.019 l 1.796,-0.629 C 235.781,438 201.211,442.609 163.59,442.691 74.1016,442.691 0.699219,416.602 0,384.102 L 0,69.4883 C 0,37.1094 71.8008,10.6992 161.602,10.3906 l 0,-0.3906 0.386,0 c 0.313,0 1.293,0.3906 1.293,0.3906 l 0,-0.3906 0.309,0 c 90,0 163.012,26.7891 163.012,59.2891 l 0,117.1909 128.91,0 0,-65 124.797,100.309 -124.797,96.723 0,-61.793 -128.91,0 0,127.383 c -0.313,12.886 -11.993,24.796 -31.723,34.488 -6.481,3.199 -13.859,6.09 -22.07,8.832 z M 33.9805,386.988 c 0,21.602 58.1289,39.102 129.6095,39.102 71.531,-0.199 129.609,-17.699 129.609,-39.102 0,-0.898 -0.109,-1.879 -0.308,-2.886 -2.301,-9.493 -15.7,-17.813 -36.211,-24.301 -0.2,0 -0.391,-0.192 -0.469,-0.192 -1.211,-0.32 -2.301,-0.629 -3.59,-1.019 -0.32,-0.078 -0.711,-0.078 -0.82,-0.27 l -3.52,-1.019 c -0.39,-0.121 -0.781,-0.121 -1.293,-0.313 -1.09,-0.269 -2.109,-0.508 -3.199,-0.777 -0.508,-0.199 -0.98,-0.199 -1.488,-0.391 -1.012,-0.121 -2.102,-0.429 -3.321,-0.629 -0.582,-0.191 -1.089,-0.269 -1.789,-0.269 -0.902,-0.242 -2.07,-0.512 -3.089,-0.703 -0.582,-0.117 -1.293,-0.321 -1.911,-0.321 -0.98,-0.187 -2.07,-0.308 -3.089,-0.507 -0.821,-0.192 -1.481,-0.313 -2.301,-0.313 -1.02,-0.187 -2,-0.387 -3.09,-0.469 -0.82,-0.187 -1.602,-0.308 -2.5,-0.308 l -2.93,-0.512 c -0.781,-0.187 -1.801,-0.187 -2.582,-0.391 -1.008,-0.109 -1.988,-0.308 -2.89,-0.308 -1.008,-0.078 -1.789,-0.078 -2.809,-0.27 -1.02,-0.242 -1.988,-0.242 -3.012,-0.32 -0.898,-0.191 -1.867,-0.191 -2.886,-0.391 -1.012,-0.109 -1.993,-0.109 -2.891,-0.308 -1.012,-0.192 -2.231,-0.192 -3.121,-0.313 -0.981,0 -2,-0.199 -2.969,-0.199 -1.141,0 -2.109,-0.07 -3.211,-0.07 -1.012,0 -2.031,-0.239 -3,-0.239 -1.101,0 -2.308,-0.191 -3.398,-0.191 -1.024,0 -1.801,-0.078 -2.813,-0.078 -1.289,0 -2.39,-0.199 -3.719,-0.199 -0.89,0 -1.679,0 -2.691,-0.192 -1.41,0 -2.699,0 -4.18,-0.121 l -21.597,0 c -1.102,0 -2.114,0 -3.211,0.121 -1.012,0 -2.102,0 -3.082,0.192 -1.207,0 -2.11,0.199 -3.321,0.199 -1.019,0 -1.988,0.078 -2.886,0.078 -1.211,0 -2.231,0.191 -3.321,0.191 -0.98,0 -1.992,0.239 -2.89,0.239 -1.211,0 -2.192,0.07 -3.281,0.269 -1.02,0 -1.801,0.121 -2.821,0.121 -1.09,0.192 -2.109,0.192 -3.078,0.391 -1.019,0.109 -1.84,0.109 -2.82,0.309 -0.891,0.191 -1.91,0.191 -2.891,0.269 l -0.191,0 c -0.821,0.242 -1.598,0.242 -2.617,0.434 -0.821,0.078 -1.801,0.078 -2.622,0.277 l -0.582,0 c -0.898,0.109 -1.679,0.109 -2.5,0.313 -0.777,0.187 -1.488,0.187 -2.308,0.308 -0.309,0 -0.578,0.199 -0.891,0.199 -0.711,0.192 -1.488,0.192 -2.187,0.313 -0.633,0.187 -1.293,0.187 -1.922,0.269 -0.5,0 -0.969,0.2 -1.2892,0.2 -0.6992,0.187 -1.2813,0.187 -1.9922,0.308 -0.5078,0.192 -1.0898,0.192 -1.5977,0.391 -0.5117,0.121 -1.2109,0.121 -1.7226,0.308 -0.5781,0.204 -1.0899,0.204 -1.7891,0.321 -0.3984,0.191 -0.8984,0.191 -1.4101,0.269 -0.6993,0.192 -1.2891,0.434 -1.9883,0.434 -0.5117,0.078 -1.0195,0.078 -1.4922,0.269 -0.4297,0.2 -0.8203,0.2 -1.3281,0.309 -0.5821,0.199 -1.3594,0.32 -2.0703,0.512 -0.3086,0.199 -0.8204,0.199 -1.1289,0.277 -0.4727,0.191 -0.7813,0.191 -1.293,0.43 -0.8985,0.07 -1.6797,0.269 -2.2969,0.461 -0.2031,0 -0.4726,0.121 -0.7109,0.121 -0.461,0.199 -0.9688,0.308 -1.3594,0.308 -0.9023,0.2 -1.7227,0.469 -2.5,0.711 -0.6328,0.192 -1.1406,0.27 -1.8398,0.469 -0.7813,0.191 -1.5625,0.5 -2.3829,0.621 -0.5078,0.199 -1.207,0.391 -1.6796,0.512 -0.8204,0.387 -1.5977,0.469 -2.418,0.777 l -1.4922,0.512 c -0.8203,0.391 -1.5977,0.508 -2.2969,0.898 l -1.4101,0.391 c -0.9024,0.391 -1.4805,0.699 -2.3008,0.891 -0.5117,0.121 -0.7813,0.32 -1.2891,0.398 -0.7109,0.43 -1.5312,0.699 -2.2304,1.012 -0.2696,0.199 -0.7813,0.39 -1.0899,0.508 l -1.9922,0.98 c -0.3203,0.191 -0.5898,0.313 -1.0976,0.5 l -2.8907,1.531 c -0.6992,0.27 -1.2109,0.578 -1.8007,0.899 -0.4297,0.191 -0.6993,0.39 -0.8907,0.461 -0.4297,0.429 -1.1406,0.711 -1.6093,1.211 -0.3086,0.121 -0.5,0.32 -0.8204,0.589 -0.5,0.309 -0.9687,0.7 -1.4804,1.211 -0.3086,0.118 -0.5078,0.309 -0.6289,0.629 -0.461,0.27 -0.7813,0.782 -1.2813,1.168 l -1.8008,1.801 c -0.1992,0.109 -0.3867,0.313 -0.5078,0.621 -0.2695,0.27 -0.6992,0.781 -0.9804,1.168 -0.1914,0.121 -0.3086,0.434 -0.5,0.633 -0.3204,0.269 -0.5118,0.777 -0.8204,1.211 -0.1992,0.078 -0.1992,0.387 -0.2812,0.578 -0.1875,0.32 -0.5078,0.789 -0.6992,1.102 -0.1211,0.187 -0.1211,0.507 -0.1211,0.699 l -0.5078,1.488 c 0.1211,1.32 0,2.301 0,3.199 z" /></g></g></svg>