<?xml version="1.0" encoding="UTF-8" standalone="no"?>
<svg
   xmlns:dc="http://purl.org/dc/elements/1.1/"
   xmlns:cc="http://creativecommons.org/ns#"
   xmlns:rdf="http://www.w3.org/1999/02/22-rdf-syntax-ns#"
   xmlns:svg="http://www.w3.org/2000/svg"
   xmlns="http://www.w3.org/2000/svg"
   viewBox="0 0 51.25 45"
   height="45"
   width="51.25"
   xml:space="preserve"
   version="1.1"
   id="svg2"><metadata
     id="metadata8"><rdf:RDF><cc:Work
         rdf:about=""><dc:format>image/svg+xml</dc:format><dc:type
           rdf:resource="http://purl.org/dc/dcmitype/StillImage" /></cc:Work></rdf:RDF></metadata><defs
     id="defs6" /><g
     transform="matrix(1.25,0,0,-1.25,0,45)"
     id="g10"><g
       transform="scale(0.1,0.1)"
       id="g12"><path
         id="path14"
         style="fill:#0078d7;fill-opacity:1;fill-rule:nonzero;stroke:none"
         d="m 342.379,219.602 -26.359,0 0,123.207 c 0,6.402 -5.629,11.992 -12.04,11.992 l -291.9917,0 C 5.58984,354.801 0,349.211 0,342.809 L 0,97.1797 C 0,90.8203 5.58984,85.1914 11.9883,85.1914 l 165.6327,0 43.16,-75.1914 120.821,0 60,104.801 -59.223,104.801 z m -107.969,64.808 58.399,0 0,-35.199 -58.399,0 0,35.199 z m 58.399,-47.23 0,-17.578 -58.399,0 0,17.578 58.399,0 z m -128.829,47.23 58.399,0 0,-35.199 -58.399,0 0,35.199 z m 0,-47.23 58.399,0 0,-17.578 -1.598,0 -10.39,-17.614 -47.192,0 0,35.192 0.781,0 z m 0,-46.36 40,0 -20,-35.242 -20,0 0,35.242 z m 13.641,-46.41 -13.641,-23.199 0,23.199 13.641,0 z m -95.2421,-35.199 -58.3984,0 0,35.199 58.3984,0 0,-35.199 z m 0,46.367 -58.3984,0 0,35.242 58.3984,0 0,-35.242 z m 0,47.231 -58.3984,0 0,35.191 58.3984,0 0,-35.191 z m 0,46.402 -58.3984,0 0,35.199 58.3984,0 0,-35.199 z m 70.4301,-140 -58.3988,0 0,35.199 58.3988,0 0,-35.199 z m 0,46.367 -58.3988,0 0,35.242 58.3988,0 0,-35.242 z m 0,47.231 -58.3988,0 0,35.191 58.3988,0 0,-35.191 z m 0,46.402 -58.3988,0 0,35.199 58.3988,0 0,-35.199 z m 11.171,-140 0,0.789 0,-0.789 z" /></g></g></svg>