<?xml version="1.0" encoding="UTF-8" standalone="no"?>
<svg
   xmlns:dc="http://purl.org/dc/elements/1.1/"
   xmlns:cc="http://creativecommons.org/ns#"
   xmlns:rdf="http://www.w3.org/1999/02/22-rdf-syntax-ns#"
   xmlns:svg="http://www.w3.org/2000/svg"
   xmlns="http://www.w3.org/2000/svg"
   viewBox="0 0 38.75 35"
   height="35"
   width="38.75"
   xml:space="preserve"
   version="1.1"
   id="svg2"><metadata
     id="metadata8"><rdf:RDF><cc:Work
         rdf:about=""><dc:format>image/svg+xml</dc:format><dc:type
           rdf:resource="http://purl.org/dc/dcmitype/StillImage" /></cc:Work></rdf:RDF></metadata><defs
     id="defs6" /><g
     transform="matrix(1.25,0,0,-1.25,0,35)"
     id="g10"><g
       transform="scale(0.1,0.1)"
       id="g12"><path
         id="path14"
         style="fill:#0078d7;fill-opacity:1;fill-rule:nonzero;stroke:none"
         d="m 231.211,277.199 -154.4102,0 L 0,143.609 76.8008,10.0117 l 154.4102,0 76.801,133.5973 -76.801,133.59 z m 0.777,-193.5896 c 0,-11.211 -9.609,-20.8203 -20.777,-20.8203 l -113.5899,0 c -11.2109,0 -20.8203,9.6093 -20.8203,20.8203 l 0,119.1796 c 0,11.211 9.6094,20.82 20.8203,20.82 l 102.3789,0 31.988,-32 0,-107.9996 z" /><path
         id="path16"
         style="fill:#0078d7;fill-opacity:1;fill-rule:nonzero;stroke:none"
         d="m 142.379,122 c 0,1.609 -0.777,2.391 -0.777,3.211 0,0.777 -0.821,1.598 -1.602,2.379 -0.781,0.82 -0.781,0.82 -1.602,0.82 l -2.378,0 c -1.61,0 -2.43,0 -3.211,-0.82 -0.821,-0.781 -1.598,-1.602 -2.418,-3.199 -0.782,-1.602 -0.782,-3.211 -0.782,-4.813 l 0,-15.187 c 0,-2.391 0.782,-3.993 1.602,-4.8129 0.777,-1.5976 1.598,-2.3789 2.379,-2.3789 0.82,-0.7773 1.609,-0.7773 3.211,-0.7773 0.82,0 1.597,0 2.418,0.7773 0.781,0 1.562,0.7813 1.562,1.6016 0.821,0.7773 0.821,1.5972 1.598,2.3792 0,0.82 0.82,1.609 0.82,3.211 0,0.82 0,2.418 0.781,4.019 l 0,10.391 c -1.601,0.777 -1.601,1.597 -1.601,3.199 z" /><path
         id="path18"
         style="fill:#0078d7;fill-opacity:1;fill-rule:nonzero;stroke:none"
         d="m 178.398,184.391 c 0,1.597 -0.777,2.418 -0.777,3.199 0,0.82 -0.82,1.601 -1.601,2.422 -0.821,0.777 -0.821,0.777 -1.61,0.777 l -2.422,0 c -1.597,0 -2.379,0 -3.199,-0.777 -0.777,-0.821 -1.598,-1.602 -2.379,-3.203 -0.82,-1.598 -0.82,-3.2 -0.82,-4.809 l 0,-15.191 c 0,-2.418 0.82,-4.02 1.601,-4.809 0.821,-1.602 1.598,-2.422 2.418,-2.422 0.782,-0.777 1.602,-0.777 3.2,-0.777 0.781,0 1.601,0 2.39,0.777 0.821,0 1.602,0.82 1.602,1.602 0.82,0.82 0.82,1.609 1.597,2.429 0,0.782 0.821,1.602 0.821,3.2 0,0.781 0,2.382 0.781,3.98 l 0,10.391 c -0.781,0 -0.781,1.609 -1.602,3.211 z" /><path
         id="path20"
         style="fill:#0078d7;fill-opacity:1;fill-rule:nonzero;stroke:none"
         d="m 194.41,212.398 -96.7889,0 c -5.6328,0 -9.6094,-3.988 -9.6094,-9.609 l 0,-119.1796 C 88.0117,77.9805 91.9883,74 97.6211,74 l 113.5899,0 c 4.809,0 9.57,3.9805 9.57,9.6094 l 0,102.3786 -25.582,0 0,26.41 -0.789,0 z m -71.211,-23.988 0,1.602 0.781,0.777 9.61,6.41 8.789,0 0,-38.398 8.012,0 0.82,-0.821 c 0.777,-0.781 0,-0.781 0,-0.781 l 0,-3.98 c 0,0 0,-0.821 -0.82,-0.821 l -26.411,0 -0.781,0.821 0,4.761 c 0,0 0,0.821 0.781,0.821 l 9.61,0 0,29.609 -7.18,-4.019 c -0.82,0 -0.82,-0.782 -1.609,-0.782 l -0.821,0 c 0,0 0,0.782 -0.781,0.782 l 0,4.019 z m 28.012,-85.621 c -0.82,-3.2109 -1.602,-5.5898 -3.199,-7.1874 -1.602,-2.3828 -3.211,-3.9922 -4.813,-4.8125 -2.418,-0.7774 -4.801,-1.5977 -8,-1.5977 -3.211,0 -5.59,0.8203 -8.008,1.5977 -2.39,0.8203 -3.992,2.4297 -4.812,4.8125 -0.777,2.3789 -2.379,4.7964 -2.379,7.1874 -0.781,3.199 -0.781,6.402 -0.781,9.609 0,4.024 0,7.18 0.781,9.602 0.781,3.211 1.602,5.59 3.199,7.191 1.602,1.598 3.211,4.028 4.813,4.809 2.379,0.82 4.797,1.602 8.008,1.602 3.199,0 5.582,-0.782 7.96,-1.602 2.43,-0.781 4.032,-2.391 4.809,-4.809 0.82,-2.382 2.422,-4.8 2.422,-7.191 0.777,-3.199 0.777,-6.398 0.777,-9.602 0,-3.988 0,-7.187 -0.777,-9.609 z m 35.98,-11.1796 0,-0.8203 c 0,0 0,-0.7774 -0.781,-0.7774 l -26.41,0 -0.781,0.7774 0,4.8125 c 0,0 0,0.8203 0.781,0.8203 l 9.609,0 0,29.5661 -7.23,-3.988 c -0.777,0 -0.777,-0.82 -1.598,-0.82 l -0.781,0 c 0,0 0,0.82 -0.781,0.82 l 0,5.59 0.781,0.82 9.609,6.41 8.789,0 0,-38.3981 8.012,0 0.781,-0.8203 0,-3.9922 z m 0.821,73.6016 c -0.821,-3.211 -1.602,-5.633 -3.211,-7.231 -1.602,-2.378 -3.199,-3.98 -4.801,-4.761 -2.379,-0.821 -4.801,-1.61 -8.012,-1.61 -3.199,0 -5.578,0.789 -8.008,1.61 -2.378,0.781 -3.98,2.383 -4.761,4.761 -0.821,1.598 -2.418,4.809 -2.418,7.231 0,2.379 -0.781,6.398 -0.781,9.609 0,3.981 0,7.18 0.781,9.571 0.82,3.199 1.597,5.621 3.199,7.218 1.602,2.391 3.199,3.993 4.801,4.813 2.39,0.777 4.808,1.558 8.008,1.558 3.211,0 5.589,-0.781 7.972,-1.558 2.418,-0.82 4.02,-2.422 4.809,-4.813 0.82,-2.418 2.422,-4.8 2.422,-7.218 0.777,-3.211 0.777,-6.411 0.777,-9.571 0,-4.031 -0.777,-7.23 -0.777,-9.609 z" /></g></g></svg>