<?xml version="1.0" encoding="UTF-8" standalone="no"?>
<svg
   xmlns:dc="http://purl.org/dc/elements/1.1/"
   xmlns:cc="http://creativecommons.org/ns#"
   xmlns:rdf="http://www.w3.org/1999/02/22-rdf-syntax-ns#"
   xmlns:svg="http://www.w3.org/2000/svg"
   xmlns="http://www.w3.org/2000/svg"
   viewBox="0 0 38.75 35"
   height="35"
   width="38.75"
   xml:space="preserve"
   version="1.1"
   id="svg2"><metadata
     id="metadata8"><rdf:RDF><cc:Work
         rdf:about=""><dc:format>image/svg+xml</dc:format><dc:type
           rdf:resource="http://purl.org/dc/dcmitype/StillImage" /></cc:Work></rdf:RDF></metadata><defs
     id="defs6" /><g
     transform="matrix(1.25,0,0,-1.25,0,35)"
     id="g10"><g
       transform="scale(0.1,0.1)"
       id="g12"><path
         id="path14"
         style="fill:#0078d7;fill-opacity:1;fill-rule:nonzero;stroke:none"
         d="m 228.012,272.398 -151.9925,0 L 0,141.191 76.0195,10.0195 l 151.1715,0 76.008,131.1715 -75.187,131.207 z m -83.211,-68.789 35.199,0 0,-35.187 -35.199,0 0,35.187 z m 0,-44.019 35.199,0 0,-35.199 -35.199,0 0,35.199 z m 0,-43.988 35.199,0 0,-35.1918 -35.199,0 0,35.1918 z m -44.02,88.007 35.239,0 0,-35.187 -35.239,0 0,35.187 z m 0,-44.019 35.239,0 0,-35.199 -35.239,0 0,35.199 z m 0,-43.988 35.239,0 0,-35.1918 -35.239,0 0,35.1918 z m 122.418,-54.4106 -143.199,0 0,143.1996 9.6094,0 0,-133.5902 133.5896,0 0,-9.6094 z m 0.781,19.2188 -35.191,0 0,35.1918 35.191,0 0,-35.1918 z m 0,43.9808 -35.191,0 0,35.199 35.191,0 0,-35.199 z m 0,44.031 -35.191,0 0,35.187 35.191,0 0,-35.187 z" /></g></g></svg>