<?xml version="1.0" encoding="UTF-8" standalone="no"?>
<svg
   xmlns:dc="http://purl.org/dc/elements/1.1/"
   xmlns:cc="http://creativecommons.org/ns#"
   xmlns:rdf="http://www.w3.org/1999/02/22-rdf-syntax-ns#"
   xmlns:svg="http://www.w3.org/2000/svg"
   xmlns="http://www.w3.org/2000/svg"
   viewBox="0 0 43.75 40"
   height="40"
   width="43.75"
   xml:space="preserve"
   version="1.1"
   id="svg2"><metadata
     id="metadata8"><rdf:RDF><cc:Work
         rdf:about=""><dc:format>image/svg+xml</dc:format><dc:type
           rdf:resource="http://purl.org/dc/dcmitype/StillImage" /></cc:Work></rdf:RDF></metadata><defs
     id="defs6" /><g
     transform="matrix(1.25,0,0,-1.25,0,40)"
     id="g10"><g
       transform="scale(0.1,0.1)"
       id="g12"><path
         id="path14"
         style="fill:#0078d7;fill-opacity:1;fill-rule:nonzero;stroke:none"
         d="m 177.621,10 77.5781,0 0,21.6016 -77.5781,0 0,-21.6016 z" /><path
         id="path16"
         style="fill:#0078d7;fill-opacity:1;fill-rule:nonzero;stroke:none"
         d="m 177.621,44.4102 77.5781,0 0,21.6016 -77.5781,0 0,-21.6016 z" /><path
         id="path18"
         style="fill:#0078d7;fill-opacity:1;fill-rule:nonzero;stroke:none"
         d="m 73.5898,97.1797 -5.5781,0 33.5903,0 0,19.2183 74.418,0 0,-38.398 77.57,0 0,19.1797 50.39,0 c 23.211,0 39.219,19.2183 39.219,40.0003 0,22.429 -18.398,40.82 -40,40.82 l -4.801,0 c 2.383,8.789 3.981,18.398 3.981,28.789 0.82,58.402 -42.379,106.41 -102.379,106.41 -47.191,0 -88.012,-30.39 -102.3789,-73.59 -7.2305,2.379 -15.2422,3.981 -24.0313,3.981 C 32.8086,243.59 0,209.219 0,170 0.78125,128.398 32.8086,97.1797 73.5898,97.1797 Z m 28.7892,87.2303 75.242,0 0,-21.601 -75.242,0 0,21.601 z m 0,-56.012 0,21.602 74.422,0 0,-21.602 -74.422,0 z" /></g></g></svg>