<?xml version="1.0" encoding="UTF-8" standalone="no"?>
<svg
   xmlns:dc="http://purl.org/dc/elements/1.1/"
   xmlns:cc="http://creativecommons.org/ns#"
   xmlns:rdf="http://www.w3.org/1999/02/22-rdf-syntax-ns#"
   xmlns:svg="http://www.w3.org/2000/svg"
   xmlns="http://www.w3.org/2000/svg"
   viewBox="0 0 202.5 176.25"
   height="176.25"
   width="202.5"
   xml:space="preserve"
   version="1.1"
   id="svg2"><metadata
     id="metadata8"><rdf:RDF><cc:Work
         rdf:about=""><dc:format>image/svg+xml</dc:format><dc:type
           rdf:resource="http://purl.org/dc/dcmitype/StillImage" /></cc:Work></rdf:RDF></metadata><defs
     id="defs6" /><g
     transform="matrix(1.25,0,0,-1.25,0,176.25)"
     id="g10"><g
       transform="scale(0.1,0.1)"
       id="g12"><path
         id="path14"
         style="fill:#0078d7;fill-opacity:1;fill-rule:nonzero;stroke:none"
         d="m 1009.61,1066.02 -502.419,0 c -25.589,0 -42.39,-21.6 -42.39,-42.42 l 0,-625.588 c 0,-25.621 21.609,-47.231 42.39,-47.231 l 592.029,0 c 25.58,0 42.38,21.61 42.38,47.231 l 0,528.008 -136.01,0 0,140.78 4.02,-0.78 z m -16.801,-540.821 -379.219,0 0,71.992 379.219,0 0,-71.992 z m 0,131.992 -379.219,0 0,71.989 379.219,0 0,-71.989 z m 0,136.02 -379.219,0 0,71.988 379.219,0 0,-71.988 z" /><path
         id="path16"
         style="fill:#0078d7;fill-opacity:1;fill-rule:nonzero;stroke:none"
         d="m 1209.61,1406.8 -804.809,0 L 0,708.398 404.801,10 l 804.809,0 404.8,698.398 -404.8,698.402 z M 1103.2,282.82 l -591.989,0 c -64.02,0 -115.191,51.168 -115.191,115.192 l 0,625.588 c 0,63.98 51.171,115.19 115.191,115.19 l 536.799,0 170.39,-170.392 0,-570.386 c 0,-64.024 -51.21,-115.192 -115.2,-115.192 z" /></g></g></svg>