<?xml version="1.0" encoding="UTF-8" standalone="no"?>
<svg
   xmlns:dc="http://purl.org/dc/elements/1.1/"
   xmlns:cc="http://creativecommons.org/ns#"
   xmlns:rdf="http://www.w3.org/1999/02/22-rdf-syntax-ns#"
   xmlns:svg="http://www.w3.org/2000/svg"
   xmlns="http://www.w3.org/2000/svg"
   viewBox="0 0 53.75 42.5"
   height="42.5"
   width="53.75"
   xml:space="preserve"
   version="1.1"
   id="svg2"><metadata
     id="metadata8"><rdf:RDF><cc:Work
         rdf:about=""><dc:format>image/svg+xml</dc:format><dc:type
           rdf:resource="http://purl.org/dc/dcmitype/StillImage" /></cc:Work></rdf:RDF></metadata><defs
     id="defs6" /><g
     transform="matrix(1.25,0,0,-1.25,0,42.5)"
     id="g10"><g
       transform="scale(0.1,0.1)"
       id="g12"><path
         id="path14"
         style="fill:#006fd4;fill-opacity:1;fill-rule:nonzero;stroke:none"
         d="m 363.98,114.02 11.219,25.582 45.582,15.976 0,36.844 -4.761,1.598 -40,13.589 -11.219,25.59 20.789,43.199 -25.59,25.59 -5.59,-3.207 -37.609,-19.179 -25.59,11.218 -16.801,43.981 -37.609,0 -1.602,-4.801 -13.597,-39.18 -25.582,-11.218 -44.032,19.179 -25.578,-25.582 2.379,-4.808 11.992,-22.379 c 20.821,11.988 43.199,16.797 67.231,16.797 32.769,-1.598 63.199,-13.598 86.398,-35.2 4.809,-4.019 11.18,-7.218 15.981,-13.589 2.418,-2.418 4.808,-6.411 6.41,-9.61 16.008,-28.012 9.609,-63.199 -16.801,-84.019 -19.219,-15.981 -46.41,-18.403 -67.191,-9.571 -2.418,1.602 -4.02,1.602 -4.797,2.379 -4.813,2.379 -10.391,6.403 -14.422,10.391 -1.602,0 -2.379,1.601 -4.801,1.601 -4.809,0 -11.168,-2.382 -14.379,-6.41 l -1.601,-1.601 C 176.801,101.211 158.398,89.2109 139.219,82.8086 L 126.41,69.2109 152.809,42.8086 157.621,45.1914 195.199,64.4102 220.781,54.0195 235.199,10 l 37.61,0 1.601,4.8008 13.602,39.2187 25.578,11.1719 44.031,-19.1797 25.578,25.5899 0,5.5781 -19.219,36.8403 z" /><path
         id="path16"
         style="fill:#006fd4;fill-opacity:1;fill-rule:nonzero;stroke:none"
         d="m 138.398,178.781 c -28.789,-30.39 -74.4175,-30.39 -102.3785,1.61 -2.4297,4.019 -9.6093,4.019 -12.039,0 -1.6016,-1.61 -2.3789,-3.993 -2.3789,-6.371 0,-2.418 1.5976,-4.809 2.3789,-6.411 C 58.3984,130 114.41,128.391 149.609,165.191 l 0,1.598 c 28.789,28.789 73.59,28.789 100.782,-2.379 4.019,-4.019 9.609,-4.019 11.988,0 1.601,1.602 2.422,3.981 2.422,6.41 0,2.379 -1.602,4.758 -2.422,6.36 -32.77,37.621 -88.789,38.398 -123.981,1.601 z" /><path
         id="path18"
         style="fill:#006fd4;fill-opacity:1;fill-rule:nonzero;stroke:none"
         d="m 200.781,163.59 c -15.98,0 -28.793,-4.809 -40,-16.801 l -1.562,-1.598 -1.598,-1.601 c -19.223,-20.781 -46.41,-31.988 -73.6405,-30.391 -27.961,0 -52.7696,13.59 -71.9922,34.41 -3.97658,3.993 -9.60939,3.993 -11.9883,0 l 0,-6.398 c 0,-2.43 1.60156,-4.813 2.37891,-6.41 C 24.8008,110 54.4102,95.5781 86.4102,95.5781 118.398,94.0195 147.191,107.609 171.988,132.422 l 1.602,1.598 1.609,1.558 c 7.18,7.231 16.789,12.031 28,12.031 11.211,0 19.18,-4.8 28.012,-13.589 3.988,-4.02 9.57,-4.02 11.988,0 1.602,1.558 2.391,3.98 2.391,6.371 0,2.418 -1.61,4.8 -2.391,6.398 -11.988,10.391 -26.398,16.801 -42.418,16.801 z" /><path
         id="path20"
         style="fill:#006fd4;fill-opacity:1;fill-rule:nonzero;stroke:none"
         d="m 286.41,208.391 c -22.43,24.808 -52.82,39.218 -84.031,39.218 -31.168,0 -60.777,-12.031 -85.578,-36.789 l -3.211,-3.211 c -7.18,-7.218 -16.7892,-12.031 -28.0002,-12.031 -11.1796,0 -18.3984,5.633 -27.1914,13.633 -3.9882,3.988 -9.6093,3.988 -11.9882,0 -1.6094,-1.602 -2.4297,-4.02 -2.4297,-6.402 0,-2.418 1.6093,-4.809 2.4297,-6.411 C 57.6211,184.41 71.2109,178 85.5898,178 c 16.0122,0 28.8202,4.809 40.0002,16.801 l 1.601,1.597 c 0,0 1.598,0 1.598,1.602 19.223,20.781 46.41,32 73.59,32 28.012,0 52.82,-13.602 70.43,-34.422 3.992,-3.976 9.57,-3.976 11.992,0 1.609,1.602 2.39,4.024 2.39,6.41 1.598,2.422 0,4.801 -0.781,6.403 z" /></g></g></svg>