<?xml version="1.0" encoding="UTF-8" standalone="no"?>
<svg
   xmlns:dc="http://purl.org/dc/elements/1.1/"
   xmlns:cc="http://creativecommons.org/ns#"
   xmlns:rdf="http://www.w3.org/1999/02/22-rdf-syntax-ns#"
   xmlns:svg="http://www.w3.org/2000/svg"
   xmlns="http://www.w3.org/2000/svg"
   viewBox="0 0 52.5 40"
   height="40"
   width="52.5"
   xml:space="preserve"
   version="1.1"
   id="svg2"><metadata
     id="metadata8"><rdf:RDF><cc:Work
         rdf:about=""><dc:format>image/svg+xml</dc:format><dc:type
           rdf:resource="http://purl.org/dc/dcmitype/StillImage" /></cc:Work></rdf:RDF></metadata><defs
     id="defs6" /><g
     transform="matrix(1.25,0,0,-1.25,0,40)"
     id="g10"><g
       transform="scale(0.1,0.1)"
       id="g12"><path
         id="path14"
         style="fill:#0078d7;fill-opacity:1;fill-rule:nonzero;stroke:none"
         d="M 204.801,123.602 200,104.422 c -0.781,-3.211 1.602,-5.6329 3.98,-4.8126 l 19.219,4.8126 c 3.211,0.777 3.992,3.199 1.602,5.578 l -14.41,14.422 c -2.379,2.379 -5.59,2.379 -5.59,-0.82 z" /><path
         id="path16"
         style="fill:#0078d7;fill-opacity:1;fill-rule:nonzero;stroke:none"
         d="m 219.219,147.621 27.972,-28.012 c 2.418,-2.418 6.399,-2.418 8.829,0 L 385.59,250 c 2.422,2.379 2.422,6.41 0,8.789 l -27.969,28.012 c -2.422,2.379 -6.41,2.379 -8.832,0 L 219.219,156.41 c -1.598,-2.422 -1.598,-6.41 0,-8.789 z" /><path
         id="path18"
         style="fill:#0078d7;fill-opacity:1;fill-rule:nonzero;stroke:none"
         d="m 408.012,308.398 c -16.024,16.024 -31.992,3.981 -31.992,3.981 -2.43,-1.598 -6.411,-5.578 -8.829,-7.957 -2.39,-2.434 -2.39,-5.633 0,-8.832 l 28.008,-27.969 c 2.422,-2.422 6.403,-2.422 8,0 2.391,2.379 5.59,6.367 8.012,8.789 0.777,0 12.769,15.969 -3.199,31.988 z" /><path
         id="path20"
         style="fill:#0078d7;fill-opacity:1;fill-rule:nonzero;stroke:none"
         d="m 125.59,68.3984 c -0.789,-1.5976 -0.789,-3.1992 -1.61,-4.7968 l -6.359,-19.1797 14.367,0 -5.578,19.1797 c 0,1.5976 -0.82,3.1992 -0.82,4.7968 z" /><path
         id="path22"
         style="fill:#0078d7;fill-opacity:1;fill-rule:nonzero;stroke:none"
         d="m 295.199,54.8086 c -2.39,0 -3.988,-0.8203 -5.59,-2.4297 -1.597,-1.5976 -2.418,-3.1992 -2.418,-5.5781 l 14.411,0 c 0,5.5781 -2.383,8.0078 -6.403,8.0078 z" /><path
         id="path24"
         style="fill:#0078d7;fill-opacity:1;fill-rule:nonzero;stroke:none"
         d="m 352.809,101.211 -5.618,0 c 3.2,10.391 4.02,21.598 4.02,32.777 0,17.614 -4.02,34.41 -10.43,49.614 L 266.41,109.18 c -4.031,-3.981 -32.82,-16.8011 -40,-19.18 l -18.398,-5.5781 c -1.602,0 -3.211,-0.8203 -4.813,-0.8203 -5.578,0 -11.211,2.4179 -15.187,7.1797 -4.032,4.8085 -5.633,11.2067 -4.032,17.6167 l 4.809,18.403 c 1.602,8.008 15.191,36.801 19.223,40.82 l 75.968,75.981 c -16.789,8.777 -35.968,13.589 -55.968,13.589 -54.422,0 -100.821,-35.203 -116.801,-83.992 -8.832,3.211 -17.6212,4.813 -27.2305,4.813 C 37.6211,178.012 0,140.391 0,93.9883 0,47.6211 37.6211,10 83.9805,10 l 272.8205,0 c 23.98,1.6016 42.418,21.6016 42.418,46.4102 0,23.9804 -20.821,44.8008 -46.41,44.8008 z m -213.59,-79.2227 -3.199,12.8203 -20,0 -4.032,-12.8203 -13.5896,0 19.9996,56.0234 15.192,0 20,-56.0234 -14.371,0 z m 51.172,0 -35.981,0 0,4.8125 20,25.5781 -18.39,0 0,8.832 33.589,0 0,-6.4023 -17.621,-23.207 19.223,0 0,-9.6133 -0.82,0 z m 44.808,0 -12,0 0,6.4101 C 220,23.6016 216.02,21.2109 211.211,21.2109 c -9.609,0 -13.59,5.5899 -13.59,16.8008 l 0,23.9766 11.988,0 0,-22.3789 c 0,-5.6211 2.379,-8.8281 6.411,-8.8281 2.378,0 3.98,0.8203 5.582,2.4179 1.597,1.6094 2.378,3.9922 2.378,6.4102 l 0,23.1992 12.04,0 0,-40.8203 -0.821,0 z m 36.789,29.6133 c -1.597,0.7773 -3.199,1.5976 -4.797,1.5976 -2.39,0 -4.812,-0.8203 -6.41,-3.1992 -1.562,-1.6016 -2.383,-4.8008 -2.383,-8.0117 l 0,-19.1797 -11.988,0 0,40 11.988,0 0,-7.2188 c 1.602,5.6211 5.582,8.0118 10.391,8.0118 1.602,0 2.422,0 3.199,-0.793 l 0,-11.207 z m 41.602,-12.8125 -26.399,0 C 288.012,33.1992 291.211,30 298.398,30 c 3.981,0 8.012,0.7813 11.993,3.1992 l 0,-8.7773 c -3.981,-1.6133 -8.789,-3.211 -14.371,-3.211 -6.411,0 -11.219,1.5977 -15.239,5.5899 -3.16,3.1992 -5.582,8.789 -5.582,15.1875 0,7.1914 2.422,12.8203 6.403,16.8008 3.988,3.1992 8.007,4.8125 13.597,4.8125 6.403,0 10.391,-1.6133 13.59,-5.5899 3.199,-3.2031 4.02,-8.0117 4.02,-13.5898 l 0,-5.6328 0.781,0 z" /></g></g></svg>