<?xml version="1.0" encoding="UTF-8" standalone="no"?>
<svg
   xmlns:dc="http://purl.org/dc/elements/1.1/"
   xmlns:cc="http://creativecommons.org/ns#"
   xmlns:rdf="http://www.w3.org/1999/02/22-rdf-syntax-ns#"
   xmlns:svg="http://www.w3.org/2000/svg"
   xmlns="http://www.w3.org/2000/svg"
   viewBox="0 0 38.75 41.25"
   height="41.25"
   width="38.75"
   xml:space="preserve"
   version="1.1"
   id="svg2"><metadata
     id="metadata8"><rdf:RDF><cc:Work
         rdf:about=""><dc:format>image/svg+xml</dc:format><dc:type
           rdf:resource="http://purl.org/dc/dcmitype/StillImage" /></cc:Work></rdf:RDF></metadata><defs
     id="defs6" /><g
     transform="matrix(1.25,0,0,-1.25,0,41.25)"
     id="g10"><g
       transform="scale(0.1,0.1)"
       id="g12"><path
         id="path14"
         style="fill:#0078d7;fill-opacity:1;fill-rule:nonzero;stroke:none"
         d="M 218.398,141.199 196.02,118 l 0,67.18 67.96,0 -24.761,-23.16 63.16,-60.821 0,130.391 -88.789,91.211 -124.8009,0 -22.3789,-23.199 71.2108,-75.204 31.168,32.813 0,-100 -96.8007,0 30.3907,32.777 L 31.9883,262.02 0,229.211 0,101.199 88.7891,9.98828 l 109.6089,0 -84.808,85.62112 -15.9689,-18.3985 0,52.7771 49.5699,0 -14.382,-16.797 90.39,-94.3707 55.199,56.7891 -60,65.5896 z" /></g></g></svg>