<?xml version="1.0" encoding="UTF-8" standalone="no"?>
<svg
   xmlns:dc="http://purl.org/dc/elements/1.1/"
   xmlns:cc="http://creativecommons.org/ns#"
   xmlns:rdf="http://www.w3.org/1999/02/22-rdf-syntax-ns#"
   xmlns:svg="http://www.w3.org/2000/svg"
   xmlns="http://www.w3.org/2000/svg"
   viewBox="0 0 42.5 38.75"
   height="38.75"
   width="42.5"
   xml:space="preserve"
   version="1.1"
   id="svg2"><metadata
     id="metadata8"><rdf:RDF><cc:Work
         rdf:about=""><dc:format>image/svg+xml</dc:format><dc:type
           rdf:resource="http://purl.org/dc/dcmitype/StillImage" /></cc:Work></rdf:RDF></metadata><defs
     id="defs6" /><g
     transform="matrix(1.25,0,0,-1.25,0,38.75)"
     id="g10"><g
       transform="scale(0.1,0.1)"
       id="g12"><path
         id="path14"
         style="fill:#0078d7;fill-opacity:1;fill-rule:nonzero;stroke:none"
         d="m 268.012,118 0,87.18 c 0,52.82 -46.41,97.621 -100.821,97.621 C 112.809,302.801 66.4102,258 66.4102,205.18 l 0,-87.18 C 13.5898,97.2109 0,66 0,66 l 0.78125,-0.8203 332.80875,0 0.82,0.8203 c 0,-0.8203 -13.629,30.3906 -66.398,52 z m -189.6136,4.02 0,83.16 c 0,46.41 40.8206,85.629 88.7926,85.629 48.008,0 88.829,-39.219 88.829,-85.629 l 0,-83.16 -0.821,0 c -1.609,0.781 -3.211,0.781 -4.808,1.558 l -59.18,0 c 13.59,5.633 33.59,17.621 39.18,40.82 0,1.602 0,3.204 -1.602,3.993 -1.598,0.82 -3.199,0.82 -3.988,-0.789 0,0 -22.422,-21.602 -40.821,-21.602 l -0.781,0 c 7.192,12.82 16.02,24.809 24.813,43.211 18.398,35.969 -7.231,72.809 -42.422,73.59 -35.199,0.777 -62.391,-35.199 -45.59,-71.992 8.789,-18.399 16.801,-31.989 23.199,-44.809 -18.398,0.781 -40,21.602 -40,21.602 -0.82,1.609 -3.199,1.609 -3.9802,0.789 -1.5977,-0.789 -2.418,-2.391 -1.5977,-3.993 6.3589,-23.199 25.5779,-35.187 39.1799,-40.82 l -53.6018,0 C 81.6016,122.801 80,122.801 78.3984,122.02 Z m 123.9806,74.371 c 0,-3.2 -19.18,-26.403 -35.969,-26.403 -17.621,0.821 -32.82,23.203 -32.82,26.403 -0.781,2.429 68.789,2.429 68.789,0 z m -30.391,16.8 c 0,6.411 8.012,16.02 11.211,16.02 3.992,0 9.61,-10.391 9.61,-17.621 0,-6.41 -5.618,-8.012 -9.61,-8.012 -3.199,0.82 -11.211,2.422 -11.211,9.613 z m -20.777,-8.793 c -4.02,0 -8.832,1.602 -9.609,8.012 0,6.41 5.589,17.578 9.609,17.578 3.988,0 11.168,-9.566 11.168,-15.976 0,-8.012 -7.18,-9.614 -11.168,-9.614 z" /><path
         id="path16"
         style="fill:#0078d7;fill-opacity:1;fill-rule:nonzero;stroke:none"
         d="m 167.191,9.98828 c 92.028,0 144.02,33.58982 149.61,45.62112 l -299.1799,0 C 23.1992,43.5781 74.4102,9.98828 167.191,9.98828 Z" /></g></g></svg>