<?xml version="1.0" encoding="UTF-8" standalone="no"?>
<svg
   xmlns:dc="http://purl.org/dc/elements/1.1/"
   xmlns:cc="http://creativecommons.org/ns#"
   xmlns:rdf="http://www.w3.org/1999/02/22-rdf-syntax-ns#"
   xmlns:svg="http://www.w3.org/2000/svg"
   xmlns="http://www.w3.org/2000/svg"
   viewBox="0 0 30 38.75"
   height="38.75"
   width="30"
   xml:space="preserve"
   version="1.1"
   id="svg2"><metadata
     id="metadata8"><rdf:RDF><cc:Work
         rdf:about=""><dc:format>image/svg+xml</dc:format><dc:type
           rdf:resource="http://purl.org/dc/dcmitype/StillImage" /></cc:Work></rdf:RDF></metadata><defs
     id="defs6" /><g
     transform="matrix(1.25,0,0,-1.25,0,38.75)"
     id="g10"><g
       transform="scale(0.1,0.1)"
       id="g12"><path
         id="path14"
         style="fill:#0078d7;fill-opacity:1;fill-rule:nonzero;stroke:none"
         d="m 130.391,183.641 c 0,-7.539 -6.09,-13.641 -13.59,-13.641 -7.5,0 -13.602,6.102 -13.602,13.641 0,7.5 6.102,13.589 13.602,13.589 7.5,0 13.59,-6.089 13.59,-13.589 z" /><path
         id="path16"
         style="fill:#0078d7;fill-opacity:1;fill-rule:nonzero;stroke:none"
         d="m 121.211,159.57 c 0,-2.648 -2.152,-4.8 -4.801,-4.8 -2.66,0 -4.808,2.152 -4.808,4.8 0,2.66 2.148,4.809 4.808,4.809 2.649,0 4.801,-2.149 4.801,-4.809 z" /><path
         id="path18"
         style="fill:#0078d7;fill-opacity:1;fill-rule:nonzero;stroke:none"
         d="m 97.7305,183.281 c 0,-2.652 -2.1407,-4.801 -4.8008,-4.801 -2.6602,0 -4.8086,2.149 -4.8086,4.801 0,2.66 2.1484,4.809 4.8086,4.809 2.6601,0 4.8008,-2.149 4.8008,-4.809 z" /><path
         id="path20"
         style="fill:#0078d7;fill-opacity:1;fill-rule:nonzero;stroke:none"
         d="m 96.0508,170.391 c -1.6016,-1.602 -1.6016,-4.801 0,-7.219 0.789,-0.781 2.3906,-1.602 3.2109,-1.602 0.7773,0 2.3793,0.821 3.1993,1.602 0.777,0.816 1.598,2.418 1.598,3.199 0,1.598 -0.821,2.418 -1.598,3.199 -0.82,2.43 -4.0196,2.43 -6.4102,0.821 z" /><path
         id="path22"
         style="fill:#0078d7;fill-opacity:1;fill-rule:nonzero;stroke:none"
         d="m 100.078,195.32 c 1.563,0 2.383,0.782 3.16,1.602 0.821,0.777 1.602,2.379 1.602,3.199 0,1.598 -0.781,2.379 -1.602,3.199 -1.597,1.571 -4.7575,1.571 -7.1872,0 -1.6016,-1.601 -1.6016,-4.8 0,-7.218 1.6094,0 2.4297,-0.782 4.0272,-0.782 z" /><path
         id="path24"
         style="fill:#0078d7;fill-opacity:1;fill-rule:nonzero;stroke:none"
         d="m 52.2305,51.1406 c 0,-6.6093 -5.3907,-12 -12,-12 -6.6407,0 -12.0313,5.3907 -12.0313,12 0,6.6407 5.3906,11.9883 12.0313,11.9883 6.6093,0 12,-5.3476 12,-11.9883 z" /><path
         id="path26"
         style="fill:#0078d7;fill-opacity:1;fill-rule:nonzero;stroke:none"
         d="m 133.52,195.32 c 1.601,0 2.421,0.782 3.199,1.602 0.82,0.777 1.601,2.379 1.601,3.199 0,1.598 -0.781,2.379 -1.601,3.199 -1.598,1.571 -4.809,1.571 -7.188,0 -1.601,-1.601 -1.601,-4.8 0,-7.218 1.598,0 2.379,-0.782 3.989,-0.782 z" /><path
         id="path28"
         style="fill:#0078d7;fill-opacity:1;fill-rule:nonzero;stroke:none"
         d="m 121.211,207.699 c 0,-2.66 -2.152,-4.808 -4.801,-4.808 -2.66,0 -4.808,2.148 -4.808,4.808 0,2.653 2.148,4.801 4.808,4.801 2.649,0 4.801,-2.148 4.801,-4.801 z" /><path
         id="path30"
         style="fill:#0078d7;fill-opacity:1;fill-rule:nonzero;stroke:none"
         d="m 226.41,306.801 -219.21859,0 C 3.19922,306.801 0,303.602 0,298.789 L 0,18.0117 C 0,13.9883 3.19922,10 7.19141,10 L 226.41,10 c 3.981,0 8,3.2109 8,8.0117 l 0,280.7773 c -0.82,4.031 -4.019,8.012 -8,8.012 z M 8.78906,292.391 c 0,4.019 3.19924,6.398 6.41014,6.398 3.1992,0 6.4024,-3.199 6.4024,-6.398 0,-3.993 -3.2032,-6.371 -6.4024,-6.371 -3.2109,0 -6.41014,3.16 -6.41014,6.371 z M 63.1992,38.7891 C 58.3984,30 49.6094,24.4219 40,24.4219 c -14.4102,0 -26.4102,11.9883 -26.4102,27.1797 0,7.1875 3.211,14.4179 8.0118,19.1797 l 56.7968,57.6167 c 2.3829,2.383 5.5821,3.993 9.6133,3.993 7.1875,0 13.5903,-6.371 13.5903,-13.602 0,-2.379 -0.821,-3.98 -1.602,-6.398 L 63.1992,38.7891 c 0.7813,0 0.7813,0 0,0 z M 116.02,90 c -5.629,0 -11.219,0.7813 -16.8012,1.6016 l 8.7932,16.7964 c 0,0.782 0,0.782 0.777,1.602 1.602,3.211 1.602,5.59 1.602,8.789 0,11.992 -9.61,22.422 -21.6019,22.422 -5.5899,0 -11.168,-2.422 -15.9805,-6.402 L 53.5898,115.59 c -18.3906,16.801 -30.3906,41.601 -30.3906,68.832 0,51.988 41.6016,93.59 92.8208,93.59 51.171,0 92.769,-41.602 92.769,-93.59 C 208.789,131.602 167.191,90 116.02,90 Z M 216.801,19.6094 c -3.992,0 -6.41,3.2109 -6.41,6.4101 0,3.9805 3.199,6.3711 6.41,6.3711 3.98,0 6.398,-3.2109 6.398,-6.3711 0,-3.1992 -2.418,-6.4101 -6.398,-6.4101 z m 0,266.4106 c -3.992,0 -6.41,3.16 -6.41,6.371 0,4.019 3.199,6.398 6.41,6.398 3.98,0 6.398,-3.199 6.398,-6.398 0,-3.211 -2.418,-6.371 -6.398,-6.371 z" /><path
         id="path32"
         style="fill:#0078d7;fill-opacity:1;fill-rule:nonzero;stroke:none"
         d="m 129.531,170.391 c -1.601,-1.602 -1.601,-4.801 0,-7.219 0.778,-0.781 2.379,-1.602 3.199,-1.602 0.79,0 2.391,0.821 3.211,1.602 0.778,0.816 1.598,2.418 1.598,3.199 0,1.598 -0.82,2.418 -1.598,3.199 -0.82,2.43 -4.031,2.43 -6.41,0.821 z" /><path
         id="path34"
         style="fill:#0078d7;fill-opacity:1;fill-rule:nonzero;stroke:none"
         d="m 116.289,227.352 c -23.9882,0 -43.1992,-20 -43.1992,-43.993 0,-24.019 19.211,-44.019 43.1992,-44.019 24.02,0 44.02,20 44.02,44.019 -0.821,24.77 -20,43.993 -44.02,43.993 z m 0,-79.223 c -19.1796,0 -35.1992,16.012 -35.1992,35.23 0,19.18 15.1993,35.2 35.1992,35.2 19.223,0 35.191,-16.02 35.191,-35.2 0,-19.218 -15.968,-35.23 -35.191,-35.23 z" /><path
         id="path36"
         style="fill:#0078d7;fill-opacity:1;fill-rule:nonzero;stroke:none"
         d="m 144.648,183.25 c 0,-2.66 -2.148,-4.809 -4.769,-4.809 -2.649,0 -4.801,2.149 -4.801,4.809 0,2.648 2.152,4.801 4.801,4.801 2.621,0 4.769,-2.153 4.769,-4.801 z" /></g></g></svg>