<?xml version="1.0" encoding="UTF-8" standalone="no"?>
<svg
   xmlns:dc="http://purl.org/dc/elements/1.1/"
   xmlns:cc="http://creativecommons.org/ns#"
   xmlns:rdf="http://www.w3.org/1999/02/22-rdf-syntax-ns#"
   xmlns:svg="http://www.w3.org/2000/svg"
   xmlns="http://www.w3.org/2000/svg"
   viewBox="0 0 30 42.5"
   height="42.5"
   width="30"
   xml:space="preserve"
   version="1.1"
   id="svg2"><metadata
     id="metadata8"><rdf:RDF><cc:Work
         rdf:about=""><dc:format>image/svg+xml</dc:format><dc:type
           rdf:resource="http://purl.org/dc/dcmitype/StillImage" /></cc:Work></rdf:RDF></metadata><defs
     id="defs6" /><g
     transform="matrix(1.25,0,0,-1.25,0,42.5)"
     id="g10"><g
       transform="scale(0.1,0.1)"
       id="g12"><path
         id="path14"
         style="fill:#0078d7;fill-opacity:1;fill-rule:nonzero;stroke:none"
         d="m 130.391,209.441 c 0,-7.5 -6.09,-13.589 -13.59,-13.589 -7.5,0 -13.602,6.089 -13.602,13.589 0,7.5 6.102,13.59 13.602,13.59 7.5,0 13.59,-6.09 13.59,-13.59 z" /><path
         id="path16"
         style="fill:#0078d7;fill-opacity:1;fill-rule:nonzero;stroke:none"
         d="m 121.602,185.449 c 0,-2.648 -2.153,-4.801 -4.801,-4.801 -2.66,0 -4.813,2.153 -4.813,4.801 0,2.66 2.153,4.813 4.813,4.813 2.648,0 4.801,-2.153 4.801,-4.813 z" /><path
         id="path18"
         style="fill:#0078d7;fill-opacity:1;fill-rule:nonzero;stroke:none"
         d="m 97.6211,209.441 c 0,-2.66 -2.1523,-4.812 -4.8125,-4.812 -2.6484,0 -4.7969,2.152 -4.7969,4.812 0,2.661 2.1485,4.797 4.7969,4.797 2.6602,0 4.8125,-2.136 4.8125,-4.797 z" /><path
         id="path20"
         style="fill:#0078d7;fill-opacity:1;fill-rule:nonzero;stroke:none"
         d="m 96.8008,195.852 c -1.6016,-1.614 -1.6016,-4.813 0,-7.192 0.8203,-0.82 2.418,-1.601 3.1992,-1.601 1.602,0 2.379,0.781 3.199,1.601 0.781,0.781 1.602,2.379 1.602,3.199 0,1.563 -0.821,2.379 -1.602,3.161 -1.597,2.429 -4.8006,2.429 -6.3982,0.832 z" /><path
         id="path22"
         style="fill:#0078d7;fill-opacity:1;fill-rule:nonzero;stroke:none"
         d="m 100,221.43 c 1.602,0 2.379,0.82 3.199,1.601 0.781,0.821 1.602,2.418 1.602,3.207 0,1.602 -0.821,2.422 -1.602,3.203 -1.597,1.598 -4.8006,1.598 -7.1795,0 -1.6093,-1.601 -1.6093,-4.812 0,-7.191 1.6016,-0.82 2.3789,-0.82 3.9805,-0.82 z" /><path
         id="path24"
         style="fill:#0078d7;fill-opacity:1;fill-rule:nonzero;stroke:none"
         d="m 52.8086,77.4492 c 0,-6.6406 -5.3867,-12 -12.0273,-12 -6.6016,0 -11.9922,5.3594 -11.9922,12 0,6.6406 5.3906,11.9922 11.9922,11.9922 6.6406,0 12.0273,-5.3516 12.0273,-11.9922 z" /><path
         id="path26"
         style="fill:#0078d7;fill-opacity:1;fill-rule:nonzero;stroke:none"
         d="m 133.59,221.43 c 1.609,0 2.43,0.82 3.211,1.601 0.82,0.821 1.597,2.418 1.597,3.207 0,1.602 -0.777,2.422 -1.597,3.203 -1.602,1.598 -4.813,1.598 -7.192,0 -1.597,-1.601 -1.597,-4.812 0,-7.191 1.602,-0.82 2.379,-0.82 3.981,-0.82 z" /><path
         id="path28"
         style="fill:#0078d7;fill-opacity:1;fill-rule:nonzero;stroke:none"
         d="m 121.602,233.422 c 0,-2.613 -2.153,-4.762 -4.801,-4.762 -2.66,0 -4.813,2.149 -4.813,4.762 0,2.656 2.153,4.808 4.813,4.808 2.648,0 4.801,-2.152 4.801,-4.808 z" /><path
         id="path30"
         style="fill:#0078d7;fill-opacity:1;fill-rule:nonzero;stroke:none"
         d="m 126.41,116.629 c -3.211,0 -7.191,-0.777 -10.39,-0.777 -5.629,0 -11.219,0.777 -16.8012,1.597 l 8.7932,16.789 c 0,0.782 0,0.782 0.777,1.614 1.602,2.378 1.602,5.578 1.602,8.777 0,12 -9.61,22.43 -21.6019,22.43 -5.5899,0 -11.168,-2.43 -15.9805,-6.411 L 53.5898,141.43 c -18.3906,16.8 -30.3906,41.601 -30.3906,68.832 0,51.988 41.6016,93.59 92.8208,93.59 51.171,0 92.769,-41.602 92.769,-93.59 0,-24.024 -8.789,-45.633 -23.988,-62.422 l 0.789,0 c 17.609,0 36.012,-3.988 47.219,-11.988 l 0,188.777 c 0,4.031 -3.2,8.012 -8.008,8.012 l -217.60959,0 C 3.19922,332.641 0,329.441 0,324.629 L 0,43.8516 c 0,-4.0235 3.19922,-8 7.19141,-8 l 119.21859,0 0,80.7774 z m 90.391,208 c 3.98,0 6.398,-3.199 6.398,-6.399 0,-3.992 -3.199,-6.371 -6.398,-6.371 -3.992,0 -6.41,3.161 -6.41,6.371 0,4.02 3.199,6.399 6.41,6.399 z M 8.78906,318.23 c 0,4.02 3.19924,6.399 6.41014,6.399 3.1992,0 6.4024,-3.199 6.4024,-6.399 0,-3.992 -3.2032,-6.371 -6.4024,-6.371 -3.2109,0 -6.41014,2.379 -6.41014,6.371 z M 63.9805,63.8516 c -4.7617,-8 -13.5899,-14.4102 -23.1992,-14.4102 -14.3711,0 -26.3711,11.9883 -26.3711,27.1875 0,7.2227 3.2109,14.4102 7.9687,19.2227 l 56.8399,57.5704 c 2.3828,2.43 5.582,4.027 9.5703,4.027 7.2304,0 13.5899,-6.41 13.5899,-13.597 0,-2.422 -0.777,-4.024 -1.598,-6.403 L 63.9805,63.8516 c 0,0.7773 0,0.7773 0,0 z" /><path
         id="path32"
         style="fill:#0078d7;fill-opacity:1;fill-rule:nonzero;stroke:none"
         d="m 129.609,195.852 c -1.597,-1.614 -1.597,-4.813 0,-7.192 0.782,-0.82 2.379,-1.601 3.2,-1.601 1.601,0 2.39,0.781 3.211,1.601 0.781,0.781 1.601,2.379 1.601,3.199 0,1.563 -0.82,2.379 -1.601,3.161 -0.821,2.429 -4.032,2.429 -6.411,0.832 z" /><path
         id="path34"
         style="fill:#0078d7;fill-opacity:1;fill-rule:nonzero;stroke:none"
         d="m 116.02,253.422 c -24.0317,0 -43.2114,-20 -43.2114,-43.981 0,-23.992 19.1797,-43.992 43.2114,-43.992 23.98,0 43.98,20 43.98,43.992 0,23.981 -20,43.981 -43.98,43.981 z m 0.781,-79.184 c -19.1799,0 -35.1994,16.024 -35.1994,35.203 0,19.219 15.1992,35.188 35.1994,35.188 19.219,0 35.187,-15.969 35.187,-35.188 0,-20 -15.968,-35.203 -35.187,-35.203 z" /><path
         id="path36"
         style="fill:#0078d7;fill-opacity:1;fill-rule:nonzero;stroke:none"
         d="m 144.801,209.441 c 0,-2.66 -2.141,-4.812 -4.801,-4.812 -2.66,0 -4.801,2.152 -4.801,4.812 0,2.661 2.141,4.797 4.801,4.797 2.66,0 4.801,-2.136 4.801,-4.797 z" /><path
         id="path38"
         style="fill:#0078d7;fill-opacity:1;fill-rule:nonzero;stroke:none"
         d="m 186.559,133.191 c -25.579,0 -46.399,-8.793 -46.399,-18.402 l 0,-86.4101 c 0,-9.5703 20.82,-18.39062 46.399,-18.39062 25.632,0 46.41,8.82032 46.41,18.39062 l 0,86.4101 c 0,8.832 -20.778,18.402 -46.41,18.402 z m 0,-27.191 c -18.399,0 -32.77,4.809 -32.77,10.391 0,5.629 14.371,10.39 32.77,10.39 18.402,0 32.82,-4.761 32.82,-10.39 0,-5.582 -14.418,-10.391 -32.82,-10.391 z" /></g></g></svg>