<?xml version="1.0" encoding="UTF-8" standalone="no"?>
<svg
   xmlns:dc="http://purl.org/dc/elements/1.1/"
   xmlns:cc="http://creativecommons.org/ns#"
   xmlns:rdf="http://www.w3.org/1999/02/22-rdf-syntax-ns#"
   xmlns:svg="http://www.w3.org/2000/svg"
   xmlns="http://www.w3.org/2000/svg"
   viewBox="0 0 40 23.75"
   height="23.75"
   width="40"
   xml:space="preserve"
   version="1.1"
   id="svg2"><metadata
     id="metadata8"><rdf:RDF><cc:Work
         rdf:about=""><dc:format>image/svg+xml</dc:format><dc:type
           rdf:resource="http://purl.org/dc/dcmitype/StillImage" /></cc:Work></rdf:RDF></metadata><defs
     id="defs6" /><g
     transform="matrix(1.25,0,0,-1.25,0,23.75)"
     id="g10"><g
       transform="scale(0.1,0.1)"
       id="g12"><path
         id="path14"
         style="fill:#0078d7;fill-opacity:1;fill-rule:nonzero;stroke:none"
         d="m 316.02,95.3789 -85.399,85.3911 -11.172,-11.168 75,-74.2231 -75,-74.2187 11.172,-11.17192 85.399,85.39062 z" /><path
         id="path16"
         style="fill:#0078d7;fill-opacity:1;fill-rule:nonzero;stroke:none"
         d="m 0,95.3789 19.9609,19.1411 65.4297,66.25 11.168,-11.168 -75,-74.2231 75,-74.2187 L 85.3906,9.98828 19.9609,76.2383 0,95.3789 Z" /><path
         id="path18"
         style="fill:#0078d7;fill-opacity:1;fill-rule:nonzero;stroke:none"
         d="m 119.691,95.3789 c 0,-10.3476 -8.75,-19.1406 -19.14,-19.1406 -11.1721,0 -19.1408,8.793 -19.1408,19.1406 0,10.3911 8.75,19.1411 19.1408,19.1411 11.168,0 19.14,-8.75 19.14,-19.1411 z" /><path
         id="path20"
         style="fill:#0078d7;fill-opacity:1;fill-rule:nonzero;stroke:none"
         d="m 158.012,114.52 c 10.347,0 19.136,-8.75 19.136,-19.1411 0,-10.3476 -8.789,-19.1406 -19.136,-19.1406 -10.391,0 -19.141,8.793 -19.141,19.1406 0,10.3911 8.75,19.1411 19.141,19.1411 z" /><path
         id="path22"
         style="fill:#0078d7;fill-opacity:1;fill-rule:nonzero;stroke:none"
         d="m 215.469,114.52 c 10.351,0 19.14,-8.75 19.14,-19.1411 0,-10.3476 -8.789,-19.1406 -19.14,-19.1406 -11.168,0 -19.18,8.793 -19.18,19.1406 0,10.3911 8.012,19.1411 19.18,19.1411 z" /></g></g></svg>