<?xml version="1.0" encoding="UTF-8" standalone="no"?>
<svg
   xmlns:dc="http://purl.org/dc/elements/1.1/"
   xmlns:cc="http://creativecommons.org/ns#"
   xmlns:rdf="http://www.w3.org/1999/02/22-rdf-syntax-ns#"
   xmlns:svg="http://www.w3.org/2000/svg"
   xmlns="http://www.w3.org/2000/svg"
   viewBox="0 0 43.75 36.25"
   height="36.25"
   width="43.75"
   xml:space="preserve"
   version="1.1"
   id="svg2"><metadata
     id="metadata8"><rdf:RDF><cc:Work
         rdf:about=""><dc:format>image/svg+xml</dc:format><dc:type
           rdf:resource="http://purl.org/dc/dcmitype/StillImage" /></cc:Work></rdf:RDF></metadata><defs
     id="defs6" /><g
     transform="matrix(1.25,0,0,-1.25,0,36.25)"
     id="g10"><g
       transform="scale(0.1,0.1)"
       id="g12"><path
         id="path14"
         style="fill:#0078d7;fill-opacity:1;fill-rule:nonzero;stroke:none"
         d="m 114.41,134.809 131.18,0 0,88 -131.18,0 0,-88 z m 94.379,25.582 -24.809,-14.371 0,28.789 24.809,14.371 0,-28.789 z m -27.187,47.23 24.808,-14.422 -24.808,-14.41 -24.801,14.41 24.801,14.422 z M 155.199,189.18 180,174.809 l 0,-28.789 -24.801,14.371 0,28.789 z" /><path
         id="path16"
         style="fill:#0078d7;fill-opacity:1;fill-rule:nonzero;stroke:none"
         d="m 332.809,288.398 -317.6098,0 C 6.41016,288.398 0,281.211 0,273.199 L 0,25.1992 C 0,16.4102 7.19141,10 15.1992,10 l 317.6098,0 c 8.793,0 15.203,7.1914 15.203,15.1992 l 0,247.9998 c 0,8.012 -6.41,15.199 -15.203,15.199 z m -160,-230.3863 -9.61,-28.832 0,-0.7813 -0.82,-0.7773 -8.789,0 0,0.7773 -9.61,28.793 0,2.418 6.411,0 0,-0.8203 8.007,-24.8008 8.012,24.8008 0,0.8203 0.781,0.7812 4.797,0 0,-0.7812 c 1.602,-0.8203 1.602,-1.5977 0.821,-1.5977 z m 42.39,-29.6133 c -0.789,-0.7773 -1.609,-0.7773 -1.609,-0.7773 l -4.801,0 0,27.1875 -8.789,-26.4102 0,-0.7773 -6.41,0 0,0.7773 -9.61,26.4102 0,-27.1875 -6.359,0 0,29.5703 c 0,0.8203 0,1.5977 0.777,1.5977 0.821,0.8203 0.821,0.8203 1.602,0.8203 l 5.59,0 c 0.82,0 0.82,0 1.601,-0.8203 l 0.821,-0.7774 c 0,-0.8203 0.777,-0.8203 0.777,-1.6015 l 7.231,-19.2188 7.179,19.2188 c 0,0.7812 0.781,1.6015 0.781,1.6015 0,0.7774 0.821,0.7774 0.821,0.7774 0,0 0.789,0.8203 1.609,0.8203 l 7.18,0 c 0,0 0.82,0 0.82,-0.8203 0,0 0,-0.7774 0.789,-0.7774 l 0,-29.6133 z M 256.02,132.379 c 0,-4.758 -4.032,-7.957 -8.008,-7.957 l -48.012,0 c -4.801,-18.402 -2.379,-20.82 29.609,-20.82 l 0,-8.0122 -100,0 0,8.0122 c 28.789,0 33.59,2.418 29.61,20.82 l -47.231,0 c -4.797,0 -8.008,3.976 -8.008,7.957 l 0,92.82 c 0,4.801 4.032,8.789 8.008,8.789 l 136.024,0 c 4.797,0 8.008,-3.988 8.008,-8.789 l 0,-92.82 z" /></g></g></svg>