<?xml version="1.0" encoding="UTF-8" standalone="no"?>
<svg
   xmlns:dc="http://purl.org/dc/elements/1.1/"
   xmlns:cc="http://creativecommons.org/ns#"
   xmlns:rdf="http://www.w3.org/1999/02/22-rdf-syntax-ns#"
   xmlns:svg="http://www.w3.org/2000/svg"
   xmlns="http://www.w3.org/2000/svg"
   viewBox="0 0 47.5 48.75"
   height="48.75"
   width="47.5"
   xml:space="preserve"
   version="1.1"
   id="svg2"><metadata
     id="metadata8"><rdf:RDF><cc:Work
         rdf:about=""><dc:format>image/svg+xml</dc:format><dc:type
           rdf:resource="http://purl.org/dc/dcmitype/StillImage" /></cc:Work></rdf:RDF></metadata><defs
     id="defs6" /><g
     transform="matrix(1.25,0,0,-1.25,0,48.75)"
     id="g10"><g
       transform="scale(0.1,0.1)"
       id="g12"><path
         id="path14"
         style="fill:#0078d7;fill-opacity:1;fill-rule:evenodd;stroke:none"
         d="m 276.289,89.3008 c -41.41,0 -45.508,3.5078 -38.48,28.3982 l 66.992,0 c 6.41,0 13.008,5.699 13.008,12.18 l 0,133.012 c 0,6.519 -6.598,12.308 -13.008,12.308 l -25.5,0 0,30.11 c 0,6.41 -6.602,12.191 -13.012,12.191 l -190.7773,0 c -6.6015,0 -11.7226,-5.781 -11.7226,-12.191 l 0,-133.118 c 0,-6.41 5.1211,-12.191 11.7226,-12.191 l 26.6793,0 0,-30.121 c 0,-6.481 5.188,-12.18 11.719,-12.18 l 65.391,0 c 6.988,-24.8904 -2.5,-28.3982 -43.91,-28.3982 l 0,-13.0117 140.898,0 0,13.0117 z m -96.168,185.8982 -10.711,6.09 -10.699,-6.09 -44.801,0 c -6.531,0 -11.719,-5.789 -11.719,-12.308 l 0,-86.289 -21.8824,0 0,124.296 182.9724,0.313 -0.582,-0.313 0,-25.699 -82.578,0 z m 24.367,-80.98 -33.468,19.301 0,-38.129 33.468,-19.301 0,38.129 z m 6.801,0 0,-38.129 33.512,19.301 0,38.129 -33.512,-19.301 z m 30,25.472 -33.398,19.289 -33.403,-19.289 0,-0.472 33.403,-19.34 33.398,19.34 0,0.472 z m 59.922,38.899 0,-124.289 -182.422,0 0,124.289 182.93,0.32 -0.508,-0.32 z M 37.5,347.5 l 25,0 0,37.5 -37.5,0 C 11.2109,385 0,373.789 0,360 l 0,-37.5 37.5,0 0,25 z m 50,0 50,0 0,37.5 -50,0 0,-37.5 z m 75,0 50,0 0,37.5 -50,0 0,-37.5 z m 75,0 50,0 0,37.5 -50,0 0,-37.5 z m 100,0 0,-25 37.5,0 0,37.5 c 0,13.789 -11.211,25 -25,25 l -37.5,0 0,-37.5 25,0 z M 0,97.5 l 37.5,0 0,50 -37.5,0 0,-50 z m 0,75 37.5,0 0,50 -37.5,0 0,-50 z m 0,75 37.5,0 0,50 -37.5,0 0,-50 z M 87.5,10 l 50,0 0,37.5 -50,0 0,-37.5 z m 75,0 50,0 0,37.5 -50,0 0,-37.5 z m 75,0 50,0 0,37.5 -50,0 0,-37.5 z m 100,87.5 37.5,0 0,50 -37.5,0 0,-50 z m 0,75 37.5,0 0,50 -37.5,0 0,-50 z m 0,75 37.5,0 0,50 -37.5,0 0,-50 z m 0,-200 -25,0 0,-37.5 37.5,0 c 13.789,0 25,11.2109 25,25 l 0,37.5 -37.5,0 0,-25 z m -300,0 0,25 L 0,72.5 0,35 C 0,21.2109 11.2109,10 25,10 l 37.5,0 0,37.5 -25,0 z" /></g></g></svg>