<?xml version="1.0" encoding="UTF-8" standalone="no"?>
<svg
   xmlns:dc="http://purl.org/dc/elements/1.1/"
   xmlns:cc="http://creativecommons.org/ns#"
   xmlns:rdf="http://www.w3.org/1999/02/22-rdf-syntax-ns#"
   xmlns:svg="http://www.w3.org/2000/svg"
   xmlns="http://www.w3.org/2000/svg"
   viewBox="0 0 32.5 37.5"
   height="37.5"
   width="32.5"
   xml:space="preserve"
   version="1.1"
   id="svg2"><metadata
     id="metadata8"><rdf:RDF><cc:Work
         rdf:about=""><dc:format>image/svg+xml</dc:format><dc:type
           rdf:resource="http://purl.org/dc/dcmitype/StillImage" /></cc:Work></rdf:RDF></metadata><defs
     id="defs6" /><g
     transform="matrix(1.25,0,0,-1.25,0,37.5)"
     id="g10"><g
       transform="scale(0.1,0.1)"
       id="g12"><path
         id="path14"
         style="fill:#0078d7;fill-opacity:1;fill-rule:nonzero;stroke:none"
         d="m 145.16,157.672 c 0,-11.051 -8.988,-20 -20,-20 -11.058,0 -20,8.949 -20,20 0,11.047 8.942,20 20,20 11.012,0 20,-8.953 20,-20 z" /><path
         id="path16"
         style="fill:#0078d7;fill-opacity:1;fill-rule:nonzero;stroke:none"
         d="M 124.801,297.078 C 56.0195,297.078 0,278.691 0,256.301 L 20.7813,133.879 c 0,-23.981 46.4101,-43.9806 104.8087,-43.9806 57.609,0 104.801,19.1796 104.801,43.9806 l 20.82,122.422 c -1.602,22.39 -57.621,40.777 -126.41,40.777 z m 0,-179.207 c -22.422,0 -40.0002,17.609 -40.0002,40 0,22.418 17.5782,40 40.0002,40 22.39,0 40,-17.582 40,-40 0,-22.391 -17.61,-40 -40,-40 z m 0,124.801 c -44.0197,0 -80.0002,8.008 -80.0002,16.797 0,9.609 35.9805,17.609 80.0002,17.609 43.988,0 80,-8 80,-17.609 0,-9.571 -36.012,-16.797 -80,-16.797 z" /><path
         id="path18"
         style="fill:#0078d7;fill-opacity:1;fill-rule:nonzero;stroke:none"
         d="m 40.7383,90.7891 c -1.5977,1.6093 -3.1992,2.4297 -3.9766,4.0312 l -1.6015,0 c -2.4297,0 -4.8086,-1.6015 -5.5899,-4.0312 l 0.7813,-4.8008 8.789,-41.5977 c 0,-16.8008 38.3985,-34.3789 85.6294,-34.3789 47.179,0 85.582,16.7969 85.582,34.3789 l 8.789,41.5977 0.82,4.8008 c -0.82,2.4297 -3.199,4.0312 -5.621,4.0312 l -1.61,0 -3.98,-4.0312 C 192.73,78.8008 161.559,70.0117 124.77,70.0117 c -36.8012,0 -68.0083,7.9688 -84.0317,20.7774 z" /></g></g></svg>