<?xml version="1.0" encoding="UTF-8" standalone="no"?>
<svg
   xmlns:dc="http://purl.org/dc/elements/1.1/"
   xmlns:cc="http://creativecommons.org/ns#"
   xmlns:rdf="http://www.w3.org/1999/02/22-rdf-syntax-ns#"
   xmlns:svg="http://www.w3.org/2000/svg"
   xmlns="http://www.w3.org/2000/svg"
   viewBox="0 0 38.75 30"
   height="30"
   width="38.75"
   xml:space="preserve"
   version="1.1"
   id="svg2"><metadata
     id="metadata8"><rdf:RDF><cc:Work
         rdf:about=""><dc:format>image/svg+xml</dc:format><dc:type
           rdf:resource="http://purl.org/dc/dcmitype/StillImage" /></cc:Work></rdf:RDF></metadata><defs
     id="defs6" /><g
     transform="matrix(1.25,0,0,-1.25,0,30)"
     id="g10"><g
       transform="scale(0.1,0.1)"
       id="g12"><path
         id="path14"
         style="fill:#0078d7;fill-opacity:1;fill-rule:nonzero;stroke:none"
         d="m 302.969,10.0117 -131.989,0 75.969,75.1992 0,76.7891 -75.969,76.02 131.989,0 0,-228.0083 z" /><path
         id="path16"
         style="fill:#0078d7;fill-opacity:1;fill-rule:nonzero;stroke:none"
         d="m 113.59,85.9883 c -20.7814,0 -38.3908,16.7927 -38.3908,38.4027 l 0,0.82 c 0,20.777 16.7891,38.391 38.3908,38.391 l 38.398,0 0,75.199 -39.179,0 C 50.3906,238.801 0,188.41 0,125.988 l 0,-3.207 C 0,60.3984 50.3906,10.0117 112.809,10.0117 l 39.179,0 0,75.1992 -38.398,0 0,0.7774 z" /></g></g></svg>