<?xml version="1.0" encoding="UTF-8" standalone="no"?>
<svg
   xmlns:dc="http://purl.org/dc/elements/1.1/"
   xmlns:cc="http://creativecommons.org/ns#"
   xmlns:rdf="http://www.w3.org/1999/02/22-rdf-syntax-ns#"
   xmlns:svg="http://www.w3.org/2000/svg"
   xmlns="http://www.w3.org/2000/svg"
   viewBox="0 0 38.75 40"
   height="40"
   width="38.75"
   xml:space="preserve"
   version="1.1"
   id="svg2"><metadata
     id="metadata8"><rdf:RDF><cc:Work
         rdf:about=""><dc:format>image/svg+xml</dc:format><dc:type
           rdf:resource="http://purl.org/dc/dcmitype/StillImage" /></cc:Work></rdf:RDF></metadata><defs
     id="defs6" /><g
     transform="matrix(1.25,0,0,-1.25,0,40)"
     id="g10"><g
       transform="scale(0.1,0.1)"
       id="g12"><path
         id="path14"
         style="fill:#0078d7;fill-opacity:1;fill-rule:nonzero;stroke:none"
         d="M 151.988,314 C 68.0117,314 0,245.988 0,162.012 0,77.9805 68.0117,10.0195 151.988,10.0195 236.02,10.0195 303.98,77.9805 303.98,162.012 303.98,245.988 236.02,314 151.988,314 Z m 40,-283.9805 0,25.5821 c 0,10.3867 -5.578,19.1797 -13.59,24.8086 l 1.602,0 c 14.41,1.6015 27.191,6.3984 27.191,6.3984 0,0 18.399,5.5898 28.829,17.5824 10.39,12.808 13.589,31.211 13.589,31.211 0,0 3.2,20 0,36.019 -3.199,15.188 -15.199,26.359 -15.199,26.359 0,0 3.988,10.43 3.211,20.821 0,10.398 -4.812,20.789 -4.812,20.789 0,0 -8.829,0.82 -18.399,-3.211 -11.211,-4.758 -24.019,-13.59 -24.019,-13.59 0,0 -8.789,3.199 -19.18,4.02 -9.609,1.601 -20.82,1.601 -20.82,1.601 0,0 -11.172,0 -20.782,-1.601 -10.39,-1.598 -19.218,-4.02 -19.218,-4.02 0,0 -12.7699,8.832 -23.9808,13.59 -9.6094,4.031 -18.3985,3.211 -18.3985,3.211 0,0 -4.8125,-10.391 -4.8125,-20.789 0,-10.391 3.211,-20.821 3.211,-20.821 0,0 -11.211,-10.39 -15.1993,-26.359 -4.0195,-16.019 0,-36.019 0,-36.019 0,0 2.3789,-18.403 13.5899,-31.211 10.3984,-11.9926 28.789,-17.5824 28.789,-17.5824 0,0 12.8202,-4.7969 27.1912,-6.3984 l 2.418,0 C 117.621,74.7813 111.988,65.9883 111.988,55.6016 l 0,-25.5821 C 55.1992,46.8086 14.4102,99.5898 14.4102,162.012 c 0,75.968 61.6093,137.578 137.5778,137.578 76.024,0 138.403,-61.61 138.403,-137.578 0,-62.4222 -41.602,-115.2034 -98.403,-131.9925 z" /></g></g></svg>