<?xml version="1.0" encoding="UTF-8" standalone="no"?>
<svg
   xmlns:dc="http://purl.org/dc/elements/1.1/"
   xmlns:cc="http://creativecommons.org/ns#"
   xmlns:rdf="http://www.w3.org/1999/02/22-rdf-syntax-ns#"
   xmlns:svg="http://www.w3.org/2000/svg"
   xmlns="http://www.w3.org/2000/svg"
   viewBox="0 0 41.25 42.5"
   height="42.5"
   width="41.25"
   xml:space="preserve"
   version="1.1"
   id="svg2"><metadata
     id="metadata8"><rdf:RDF><cc:Work
         rdf:about=""><dc:format>image/svg+xml</dc:format><dc:type
           rdf:resource="http://purl.org/dc/dcmitype/StillImage" /></cc:Work></rdf:RDF></metadata><defs
     id="defs6" /><g
     transform="matrix(1.25,0,0,-1.25,0,42.5)"
     id="g10"><g
       transform="scale(0.1,0.1)"
       id="g12"><path
         id="path14"
         style="fill:#0078d7;fill-opacity:1;fill-rule:nonzero;stroke:none"
         d="M 318.012,185.602 176.41,327.98 c -8.012,8.008 -20.82,8.008 -28.012,0 l -31.207,-30.39 36.789,-36.789 c 2.43,0.82 5.629,1.597 8.829,1.597 13.601,0 24.812,-11.207 24.812,-24.808 0,-3.199 -0.82,-6.399 -1.601,-8.789 l 35.968,-36.012 c 2.422,0.82 5.633,1.602 8.793,1.602 13.629,0 24.809,-11.172 24.809,-24.801 0,-13.602 -11.18,-24.809 -24.809,-24.809 -13.59,0 -24.761,11.207 -24.761,24.809 0,3.199 0.781,6.398 1.601,8.82 l -33.641,33.602 0,-88.012 c 8.008,-3.98 13.641,-12.809 13.641,-21.602 0,-13.5972 -11.211,-24.8082 -24.812,-24.8082 -13.59,0 -24.797,11.211 -24.797,24.8082 0,10.391 6.398,19.223 15.968,23.204 l 0,89.609 c -9.57,3.199 -15.968,12.769 -15.968,23.199 0,3.211 0.777,6.371 1.597,8.789 L 102.809,284 6.01953,185.602 c -8.00781,-8.012 -8.00781,-20.821 0,-28.012 L 147.621,15.9883 c 7.969,-8.00783 20.777,-8.00783 27.969,0 L 317.191,157.59 c 8.829,8.012 8.829,20.82 0.821,28.012 z" /></g></g></svg>