<?xml version="1.0" encoding="UTF-8" standalone="no"?>
<svg
   xmlns:dc="http://purl.org/dc/elements/1.1/"
   xmlns:cc="http://creativecommons.org/ns#"
   xmlns:rdf="http://www.w3.org/1999/02/22-rdf-syntax-ns#"
   xmlns:svg="http://www.w3.org/2000/svg"
   xmlns="http://www.w3.org/2000/svg"
   viewBox="0 0 57.5 52.5"
   height="52.5"
   width="57.5"
   xml:space="preserve"
   version="1.1"
   id="svg2"><metadata
     id="metadata8"><rdf:RDF><cc:Work
         rdf:about=""><dc:format>image/svg+xml</dc:format><dc:type
           rdf:resource="http://purl.org/dc/dcmitype/StillImage" /></cc:Work></rdf:RDF></metadata><defs
     id="defs6" /><g
     transform="matrix(1.25,0,0,-1.25,0,52.5)"
     id="g10"><g
       transform="scale(0.1,0.1)"
       id="g12"><path
         id="path14"
         style="fill:#0078d7;fill-opacity:1;fill-rule:nonzero;stroke:none"
         d="m 11.9883,22.0117 434.41,0 0,383.199 -434.41,0 0,-383.199 z" /><path
         id="path16"
         style="fill:none;stroke:#0078d7;stroke-width:24;stroke-linecap:round;stroke-linejoin:round;stroke-miterlimit:3;stroke-dasharray:none;stroke-opacity:1"
         d="m 11.9883,22.0117 434.41,0 0,383.199 -434.41,0 0,-383.199 z" /><g
         transform="scale(10,10)"
         id="g18"><text
           id="text20"
           style="font-variant:normal;font-weight:normal;font-size:4.79992008px;font-family:'Bitstream Vera Sans';-inkscape-font-specification:BitstreamVeraSans-Roman;writing-mode:lr-tb;fill:#ffffff;fill-opacity:1;fill-rule:nonzero;stroke:none"
           transform="matrix(1,0,0,-1,37.6055,3.65117)"><tspan
             id="tspan22"
             y="0"
             x="0 3.2831452">VM</tspan></text>
</g><path
         id="path24"
         style="fill:#ffffff;fill-opacity:1;fill-rule:nonzero;stroke:none"
         d="m 79.2188,90.2891 -62.418,0 c -2.3906,0 -3.9922,-1.6094 -3.9922,-3.9883 l 0,-44.0195 c 0,-2.3829 1.6016,-3.9922 3.9922,-3.9922 l 21.5976,0 c 2.3829,-8 -0.7773,-9.6094 -14.4179,-9.6094 l 0,-3.9805 47.2304,0 0,3.9805 c -13.5898,0 -15.1914,0.8203 -12.8125,9.6094 l 22.3829,0 c 2.4179,0 4.0195,1.6093 4.0195,3.9922 l 0,44.0195 c -1.6016,2.3789 -4.0195,3.9883 -5.582,3.9883 z m -1.5977,-5.5899 0,-40.8203 -60,0 0,40.8203 60,0 z" /><path
         id="path26"
         style="fill:#ffffff;fill-opacity:1;fill-rule:nonzero;stroke:none"
         d="m 58.1602,71.7695 -11.211,6.4102 -11.2109,-6.4102 11.2109,-6.4101 11.211,6.4101 z" /><path
         id="path28"
         style="fill:#ffffff;fill-opacity:1;fill-rule:nonzero;stroke:none"
         d="m 47.8516,63.7188 0,-12.7696 11.207,6.3711 0,12.8086 -11.207,-6.4101 z" /><path
         id="path30"
         style="fill:#ffffff;fill-opacity:1;fill-rule:nonzero;stroke:none"
         d="m 45.8203,63.7188 -11.2109,6.4101 0,-12.8086 11.2109,-6.3711 0,12.7696 z" /></g></g></svg>