<?xml version="1.0" encoding="UTF-8" standalone="no"?>
<svg
   xmlns:dc="http://purl.org/dc/elements/1.1/"
   xmlns:cc="http://creativecommons.org/ns#"
   xmlns:rdf="http://www.w3.org/1999/02/22-rdf-syntax-ns#"
   xmlns:svg="http://www.w3.org/2000/svg"
   xmlns="http://www.w3.org/2000/svg"
   viewBox="0 0 47.5 48.75"
   height="48.75"
   width="47.5"
   xml:space="preserve"
   version="1.1"
   id="svg2"><metadata
     id="metadata8"><rdf:RDF><cc:Work
         rdf:about=""><dc:format>image/svg+xml</dc:format><dc:type
           rdf:resource="http://purl.org/dc/dcmitype/StillImage" /></cc:Work></rdf:RDF></metadata><defs
     id="defs6" /><g
     transform="matrix(1.25,0,0,-1.25,0,48.75)"
     id="g10"><g
       transform="scale(0.1,0.1)"
       id="g12"><path
         id="path14"
         style="fill:#0078d7;fill-opacity:1;fill-rule:evenodd;stroke:none"
         d="m 235.699,173.789 c 0.321,0 0.512,0.121 0.711,0.199 l 49.879,28.832 c 0.512,0.192 0.82,0.66 0.82,1.289 0,0.5 -0.308,0.969 -0.82,1.282 l -50.199,28.91 c -0.5,0.308 -0.969,0.308 -1.481,0 L 184.691,205.59 c -0.472,-0.27 -0.711,-0.781 -0.711,-1.289 0,-0.582 0.239,-1.09 0.711,-1.289 l 50.188,-29.024 c 0.32,-0.078 0.512,-0.199 0.82,-0.199 z M 228.52,103.48 c 0.191,0 0.46,0 0.699,0.122 0.472,0.308 0.781,0.82 0.781,1.398 l 0,57.891 c 0,0.507 -0.309,1.019 -0.781,1.289 l -50,28.832 c -0.508,0.277 -1.129,0.277 -1.598,0 -0.43,-0.192 -0.711,-0.703 -0.711,-1.332 l 0,-57.891 c 0,-0.5 0.281,-0.969 0.711,-1.289 l 50.078,-28.781 c 0.192,-0.239 0.5,-0.239 0.821,-0.239 z m 14.101,0 c 0.27,0 0.578,0 0.777,0.122 l 50,28.898 c 0.512,0.32 0.821,0.789 0.821,1.289 l 0,57.5 c 0,0.633 -0.309,1.102 -0.821,1.41 -0.507,0.192 -1.019,0.192 -1.488,0 l -50,-28.91 c -0.5,-0.309 -0.82,-0.777 -0.82,-1.289 l 0,-57.5 c 0,-0.578 0.32,-1.09 0.82,-1.281 0.199,-0.239 0.469,-0.239 0.711,-0.239 z m -21.019,169.411 -30.704,17.699 c -0.507,0.308 -1.097,0.308 -1.488,0 l -30.82,-17.699 -55.391,0 c -8.5076,0 -15.3904,-7.692 -15.3904,-16.211 l 0,-113.789 -21.3984,0 0,164.3 241.7888,0.309 0,-34.609 -86.597,0 z m 51.097,-208.0824 83,0 c 8.52,0 17.192,7.582 17.192,16.0898 l 0,175.7816 c 0,8.519 -8.672,16.211 -17.192,16.211 l -25.82,0 0,40 c 0,8.597 -8.668,16.218 -17.18,16.218 l -27.578,0 0,39.879 c 0.078,8.59 -8.641,16.211 -17.23,16.211 l -252.3793,0 C 6.91016,385.199 0,377.5 0,368.988 L 0,193.211 c 0,-8.52 6.91016,-16.102 15.5117,-16.102 l 29.2891,0 0,-40 c 0,-8.507 6.918,-16.129 15.5078,-16.129 l 27.5,0 0,-40.0816 c 0,-8.5078 6.8828,-16.0898 15.3904,-16.0898 l 91.922,0 C 204.41,31.9219 191.91,27.1914 137.109,27.1914 l 0,-17.1914 186.411,0 0,17.1914 c -54.809,0 -60.239,4.7305 -50.821,37.6172 z m 80.821,21.8711 -241.918,0 0,164.2183 241.918,0.391 0,-164.6093 z M 176.602,329.109 146.09,346.68 c -0.5,0.242 -0.969,0.242 -1.481,0 l -30.507,-17.571 -53.7934,0 c -8.5898,0 -15.5078,-7.621 -15.5078,-16.218 l 0,-113.903 -23.1992,0 0,164.301 241.9184,0.313 0,-34.493 -86.918,0 z" /></g></g></svg>