<?xml version="1.0" encoding="UTF-8" standalone="no"?>
<svg
   xmlns:dc="http://purl.org/dc/elements/1.1/"
   xmlns:cc="http://creativecommons.org/ns#"
   xmlns:rdf="http://www.w3.org/1999/02/22-rdf-syntax-ns#"
   xmlns:svg="http://www.w3.org/2000/svg"
   xmlns="http://www.w3.org/2000/svg"
   viewBox="0 0 37.5 36.25"
   height="36.25"
   width="37.5"
   xml:space="preserve"
   version="1.1"
   id="svg2"><metadata
     id="metadata8"><rdf:RDF><cc:Work
         rdf:about=""><dc:format>image/svg+xml</dc:format><dc:type
           rdf:resource="http://purl.org/dc/dcmitype/StillImage" /></cc:Work></rdf:RDF></metadata><defs
     id="defs6" /><g
     transform="matrix(1.25,0,0,-1.25,0,36.25)"
     id="g10"><g
       transform="scale(0.1,0.1)"
       id="g12"><path
         id="path14"
         style="fill:#0078d7;fill-opacity:1;fill-rule:nonzero;stroke:none"
         d="M 280.781,286 16.0195,286 C 7.19141,286 0,277.988 0,269.199 L 0,84.3984 C 0,75.6094 7.19141,67.6016 16.0195,67.6016 l 90.3905,0 C 116.02,33.1914 103.199,28.3789 45.5898,28.3789 l 0,-18.39843 195.1912,0 0,18.39843 c -57.582,0 -63.16,4.8125 -53.59,39.2227 l 93.59,0 c 8.828,0 18.438,8.0078 18.438,16.7968 l 0,184.8006 c 0,8.789 -9.61,16.801 -18.438,16.801 z m -4.761,-22.379 0,-172.8202 -253.6411,0 0,172.8202 253.6411,0 z" /><path
         id="path16"
         style="fill:#0078d7;fill-opacity:1;fill-rule:nonzero;stroke:none"
         d="m 192.621,209.051 -46.41,26.398 -46.3712,-26.398 0,-0.781 46.3712,-26.411 46.41,27.192 z" /><path
         id="path18"
         style="fill:#0078d7;fill-opacity:1;fill-rule:nonzero;stroke:none"
         d="m 151.211,174.238 0,-52.808 46.41,26.41 0,52.808 -46.41,-26.41 z" /><path
         id="path20"
         style="fill:#0078d7;fill-opacity:1;fill-rule:nonzero;stroke:none"
         d="m 141.68,174.238 -46.4105,26.41 0,-52.808 46.4105,-26.41 0,52.808 z" /></g></g></svg>