<?xml version="1.0" encoding="UTF-8" standalone="no"?>
<svg
   xmlns:dc="http://purl.org/dc/elements/1.1/"
   xmlns:cc="http://creativecommons.org/ns#"
   xmlns:rdf="http://www.w3.org/1999/02/22-rdf-syntax-ns#"
   xmlns:svg="http://www.w3.org/2000/svg"
   xmlns="http://www.w3.org/2000/svg"
   viewBox="0 0 45 50"
   height="50"
   width="45"
   xml:space="preserve"
   version="1.1"
   id="svg2"><metadata
     id="metadata8"><rdf:RDF><cc:Work
         rdf:about=""><dc:format>image/svg+xml</dc:format><dc:type
           rdf:resource="http://purl.org/dc/dcmitype/StillImage" /></cc:Work></rdf:RDF></metadata><defs
     id="defs6" /><g
     transform="matrix(1.25,0,0,-1.25,0,50)"
     id="g10"><g
       transform="scale(0.1,0.1)"
       id="g12"><path
         id="path14"
         style="fill:#0078d7;fill-opacity:1;fill-rule:nonzero;stroke:none"
         d="m 316.02,251.988 0,17.621 c 0,35.192 -12.821,68.012 -35.239,91.172 C 260,384.801 213.59,400 179.219,400 144.801,400 98.3984,384.801 77.6211,360.781 56.0195,337.621 42.3789,304.801 42.3789,269.609 l 0,-17.621 C 11.2109,251.988 0,233.59 0,209.609 L 0,42.3789 C 0,21.6016 12.8086,0 36.8008,0 L 321.602,0 c 27.187,0 36.796,21.6016 36.796,42.3789 l 0,167.2301 c 0,21.602 -8.789,42.379 -42.378,42.379 z m -210.43,8.793 c 0,20.821 7.219,47.231 19.211,60.821 12,13.597 37.578,20 54.418,20.777 16.801,0 42.383,-7.18 54.371,-20.777 12,-13.59 19.219,-31.211 19.219,-51.211 l 0,-17.582 -147.219,0 0,7.972 z m 25.621,-77.582 46.41,46.41 46.359,-46.41 -32.769,0 0,-33.59 -28.012,0 0,33.59 -31.988,0 z m -85.6212,-70.39 0,27.191 48,0 0,31.988 44.8082,-44.797 -44.8082,-44.8121 0,31.2111 -48,-0.781 z m 132.0312,-90.4301 -47.23,47.2305 32.808,0 0,32.7696 28.012,0 0,-32.7696 33.59,0 -47.18,-47.2305 z m 131.988,90.4301 -48.007,0 0,-32.0277 -45.582,45.6287 45.582,45.578 0,-31.988 48.007,0 0,-27.191 z" /></g></g></svg>