<?xml version="1.0" encoding="UTF-8" standalone="no"?>
<svg
   xmlns:dc="http://purl.org/dc/elements/1.1/"
   xmlns:cc="http://creativecommons.org/ns#"
   xmlns:rdf="http://www.w3.org/1999/02/22-rdf-syntax-ns#"
   xmlns:svg="http://www.w3.org/2000/svg"
   xmlns="http://www.w3.org/2000/svg"
   viewBox="0 0 38.75 42.5"
   height="42.5"
   width="38.75"
   xml:space="preserve"
   version="1.1"
   id="svg2"><metadata
     id="metadata8"><rdf:RDF><cc:Work
         rdf:about=""><dc:format>image/svg+xml</dc:format><dc:type
           rdf:resource="http://purl.org/dc/dcmitype/StillImage" /></cc:Work></rdf:RDF></metadata><defs
     id="defs6" /><g
     transform="matrix(1.25,0,0,-1.25,0,42.5)"
     id="g10"><g
       transform="scale(0.1,0.1)"
       id="g12"><path
         id="path14"
         style="fill:#006fd4;fill-opacity:1;fill-rule:nonzero;stroke:none"
         d="m 154.609,77.9805 c -0.781,0.8203 -1.597,0.8203 -2.379,0.8203 l 0,10.3906 c 0,1.5977 -1.609,3.207 -4.031,4.0274 -2.379,0 -3.98,-1.6094 -3.98,-4.0274 l 0,-15.1914 c 0,-0.7812 0,-0.7812 0.82,-0.7812 0,-0.8204 0.781,-1.6094 1.563,-2.4297 L 161.84,57.1992 c 1.601,-1.5976 4.762,-1.5976 6.359,0 l 0.821,0.7813 c 1.601,1.5976 1.601,4.8086 0,6.4101 l -14.411,13.5899 z" /><path
         id="path16"
         style="fill:#006fd4;fill-opacity:1;fill-rule:nonzero;stroke:none"
         d="m 117.809,75.6016 c -0.778,0 -1.598,-0.7813 -1.598,-1.6016 0,-0.7812 0.82,-1.6016 1.598,-1.6016 0.82,0 1.601,0.8204 1.601,1.6016 0.82,0.8203 0,2.4219 -1.601,1.6016 z" /><path
         id="path18"
         style="fill:#006fd4;fill-opacity:1;fill-rule:nonzero;stroke:none"
         d="m 149.02,102.789 c 0.781,0 1.601,0.82 1.601,1.602 0,0.82 -0.82,1.597 -1.601,1.597 -0.821,0 -1.598,-0.777 -1.598,-1.597 0,-0.782 0.777,-1.602 1.598,-1.602 z" /><path
         id="path20"
         style="fill:#006fd4;fill-opacity:1;fill-rule:nonzero;stroke:none"
         d="m 180.23,75.6016 c 0,-0.7813 0.79,-1.6016 1.61,-1.6016 0.781,0 1.601,0.8203 1.601,1.6016 0,0.8203 -0.82,1.5976 -1.601,1.5976 -0.82,0.7813 -1.61,-0.7773 -1.61,-1.5976 z" /><path
         id="path22"
         style="fill:#006fd4;fill-opacity:1;fill-rule:nonzero;stroke:none"
         d="m 147.422,42.7891 c -0.82,0 -1.602,-0.7891 -1.602,-1.6094 0,-0.7813 0.782,-1.6016 1.602,-1.6016 0.777,0 1.598,0.8203 1.598,1.6016 0,0.8203 -0.821,1.6094 -1.598,1.6094 z" /><path
         id="path24"
         style="fill:#006fd4;fill-opacity:1;fill-rule:nonzero;stroke:none"
         d="m 200.23,74.8203 0,3.9805 12,7.1875 c -0.82,4.0234 -1.609,8.0117 -3.21,11.9922 l -13.59,-0.7813 c -0.821,1.6016 -1.602,3.1988 -3.2,4.8008 l -0.82,0.789 7.219,12.031 -3.199,3.16 c -1.602,1.598 -4.02,3.2 -5.629,4.809 l -11.992,-6.367 c -2.379,1.558 -3.981,2.379 -6.399,3.156 l 0,13.641 c -3.988,1.601 -7.969,2.383 -12,3.203 l -6.398,-12.031 -7.192,0 -7.191,12.031 c -4.02,-0.82 -8.008,-1.602 -12.027,-3.203 l 0.82,-13.641 c -2.383,-0.777 -3.981,-2.379 -6.402,-3.976 l -12,7.187 c -1.598,-1.609 -3.981,-3.211 -5.579,-5.59 L 100.23,114 l 3.989,-7.191 3.203,-4.809 c -1.602,-2.4219 -2.383,-4.0195 -3.203,-6.3984 l -14.4182,0 C 88.1992,91.6094 87.4219,87.5898 86.6016,83.6094 l 12.8086,-6.4102 0,-8.0078 L 87.4219,62 c 0.7773,-4.0195 1.5976,-8 3.1992,-11.9883 l 13.5979,0 c 0.82,-2.4219 2.383,-4.0234 3.98,-6.4023 l -7.179,-12 c 2.421,-2.418 4.019,-4.8008 6.402,-6.3985 0.777,-0.8203 1.598,-0.8203 2.379,-1.6015 l 7.23,3.9804 4.809,3.1993 c 2.379,-1.5977 3.98,-2.3789 6.359,-3.1993 l 0,-14.371 c 4.031,-1.6094 8.012,-2.4297 12.031,-3.2071 L 146.602,22 l 8.007,0 3.2,-4.8008 4.031,-7.1875 c 3.98,0.7774 7.961,1.5977 11.988,3.2071 l 0,13.5898 c 1.602,0.7812 3.981,1.6016 5.582,3.2031 l 0.82,0 12,-7.2226 c 1.598,0.8203 2.379,2.4218 3.981,4.0195 l 4.809,4.8008 -7.192,12 0,0.7812 c 0.781,1.5977 2.383,4.0196 3.203,5.6211 l 13.59,0 C 212.23,54 213.012,57.9805 213.828,62 l -12.808,6.4102 c -0.79,3.9882 -0.79,5.5898 -0.79,6.4101 z M 157.031,36.4219 c -2.422,-0.8203 -4.019,-0.8203 -6.41,-0.8203 -8.781,0 -17.609,2.3789 -24.019,8.0078 C 117.031,50.7891 111.41,62 111.41,74 c 0,8.7891 3.199,17.6094 8,23.9805 7.192,9.6095 17.621,15.2385 30.391,15.2385 14.418,0 26.41,-7.231 33.64,-18.3987 3.981,-5.6289 5.579,-12.8203 5.579,-20 0,-19.2187 -13.59,-35.2422 -31.989,-38.3984 z" /><path
         id="path26"
         style="fill:#006fd4;fill-opacity:1;fill-rule:nonzero;stroke:none"
         d="m 287.422,90.7891 -8.793,5.6328 -0.82,7.1871 8.011,9.61 -4.8,8.781 -1.61,0 -11.211,-3.199 -5.578,3.988 -0.781,12.031 -9.61,3.16 -0.82,-1.558 -5.59,-8.832 -7.191,-0.781 -9.609,8.011 -8,-4.808 0,-1.602 2.421,-10.43 -4.031,-5.582 -11.988,-0.789 -3.203,-9.609 1.601,-0.82 8.789,-5.5784 0.821,-7.1914 -7.231,-8.8321 c 0.821,-1.5976 0.821,-3.1562 1.602,-4.7578 l 2.429,-4.8086 1.598,0 10.391,2.3867 5.582,-3.9882 0.82,-11.9883 9.609,-2.4219 0.79,1.6016 5.582,8.789 7.226,0.8203 9.613,-8.0117 7.969,4.8008 0,1.6094 -2.39,10.3906 3.992,5.5781 12.808,0.8203 2.379,9.6133 -0.777,0.7774 z m -28.012,1.6093 c -1.601,-7.1875 -9.609,-11.2187 -16.789,-9.6093 -7.191,1.6015 -11.211,9.6093 -9.609,16.789 1.597,7.2309 9.609,12.0309 16.789,9.6129 7.23,-2.382 11.219,-9.6129 9.609,-16.7926 z" /><path
         id="path28"
         style="fill:#006fd4;fill-opacity:1;fill-rule:nonzero;stroke:none"
         d="m 282.621,124.391 4.801,-7.969 c 10.387,21.558 10.387,32.769 11.988,38.398 8.789,41.602 0,87.18 -28,123.16 -29.57,39.219 -75.199,59.219 -120,59.219 -32,0 -64.8084,-10.39 -91.9998,-31.211 C -6.98828,254.82 -19.7695,160.398 31.4102,94 46.6016,74 66.6016,58.8008 89.0195,48.4102 l -4.8007,15.9804 8.0117,4.0196 c -8.0117,3.9882 -16.0196,9.5703 -24.0313,15.1992 -0.7773,14.3711 0,35.9686 8.8321,59.9996 6.4101,-0.82 11.9882,0.782 18.3984,3.2 3.1992,-3.2 7.1913,-6.411 10.3903,-8.829 3.2,-2.378 12.809,-8.789 19.219,-12.769 l 0,10.391 18.402,5.578 c -11.211,7.23 -21.601,14.422 -23.211,15.242 -2.421,1.558 -4.8,3.976 -7.218,5.578 7.218,12 8.008,27.191 1.597,40 l 4.801,4.809 c 12,11.171 23.211,20.781 34.418,28.011 l 50.391,-42.422 c -3.989,-9.609 -3.989,-20.789 3.203,-28.789 9.609,-12.82 27.187,-14.418 40,-5.629 l 1.598,1.598 c 10.39,-7.18 20.781,-14.367 26.41,-18.398 l -6.41,-18.391 2.39,-1.609 M 43.4414,110.789 C 11.4102,156.422 12.2305,216.422 42.6211,260.398 39.4102,247.59 38.6289,229.191 48.1992,207.59 37.8086,194 37.0313,174 48.1992,159.578 c 0.8203,-0.777 1.6016,-2.379 3.211,-3.156 -4.8086,-16.024 -7.1914,-32.031 -7.9688,-45.633 z M 129.02,259.578 C 117.031,251.609 105.039,241.18 92.2305,227.59 l -4.8086,-4.801 c -7.1914,1.602 -14.4102,0.82 -21.6016,-1.609 -11.9922,25.629 -11.2109,45.629 -9.6094,56.8 4.8086,4.809 8.8282,8.829 14.4102,12.809 7.1875,5.633 14.418,9.609 22.3906,13.602 C 102.621,289.191 115.43,274 129.02,259.578 Z m 18.402,11.211 c -11.992,12.82 -23.981,25.633 -36.801,40 12.82,4.031 26.41,6.41 40,6.41 30.399,0 60,-10.39 83.988,-30.39 -19.179,3.98 -51.168,3.203 -87.187,-16.02 z M 278.629,152.398 c -5.617,4.024 -12.809,9.602 -22.418,17.614 3.199,8.789 2.418,19.179 -3.981,27.187 -8.789,11.211 -24.031,14.41 -36.8,7.192 -13.59,12.031 -28.008,25.621 -44.02,41.597 46.399,24.801 79.211,22.422 82.418,22.422 0.781,-0.82 0.781,-1.601 1.602,-1.601 26.41,-34.411 33.59,-76.02 23.199,-114.411 z" /></g></g></svg>