<?xml version="1.0" encoding="UTF-8" standalone="no"?>
<svg
   xmlns:dc="http://purl.org/dc/elements/1.1/"
   xmlns:cc="http://creativecommons.org/ns#"
   xmlns:rdf="http://www.w3.org/1999/02/22-rdf-syntax-ns#"
   xmlns:svg="http://www.w3.org/2000/svg"
   xmlns="http://www.w3.org/2000/svg"
   viewBox="0 0 33.75 33.75"
   height="33.75"
   width="33.75"
   xml:space="preserve"
   version="1.1"
   id="svg2"><metadata
     id="metadata8"><rdf:RDF><cc:Work
         rdf:about=""><dc:format>image/svg+xml</dc:format><dc:type
           rdf:resource="http://purl.org/dc/dcmitype/StillImage" /></cc:Work></rdf:RDF></metadata><defs
     id="defs6" /><g
     transform="matrix(1.25,0,0,-1.25,0,33.75)"
     id="g10"><g
       transform="scale(0.1,0.1)"
       id="g12"><path
         id="path14"
         style="fill:#0078d7;fill-opacity:1;fill-rule:evenodd;stroke:none"
         d="m 177.461,64.2305 c 2.109,-2.7813 3.789,-5.4688 5.898,-7.7813 10.192,-10.8984 27.621,-11.5195 38.52,-1.3281 11.402,10.6289 11.871,28.3203 1.172,39.3398 -10.473,10.7771 -28.481,11.8011 -38.281,0.3907 -5.899,-6.9102 -12,-7.8125 -19.809,-7.6211 -20.191,0.3203 -40.391,0.1211 -60.512,0.1211 C 105.781,58.9492 95.0781,41.3398 73.75,37.1602 52.9688,33.0508 33.8711,43.6406 27.0703,63.0508 c -7.6914,22 1.8008,39.5702 29.1797,53.5972 -2.0703,7.383 -4.1016,15 -6.1719,22.5 C 20.1602,132.621 -2.14844,103.641 0.160156,71.0586 2.14844,42.2305 25.3516,16.7305 53.75,12.1602 c 15.4297,-2.50004 29.9219,0.0703 43.3203,7.6914 17.3087,9.8086 27.3087,25.2695 31.9887,44.3789 l 48.402,0 z m -18.91,114.0975 c 1.219,3.121 2.429,5.621 3.328,8.203 3.082,9.41 1.172,17.93 -4.809,25.508 -7.3,9.301 -20.191,12.691 -31.09,8.512 -11.019,-4.211 -18.128,-15.11 -17.621,-26.992 0.512,-12.219 8.59,-23.008 21.211,-25.231 7.5,-1.289 11.211,-4.769 14.61,-10.976 9.879,-18.321 20.269,-36.293 30.59,-54.493 24.679,16.371 45.07,15.903 60.308,-1.211 13.281,-14.9175 13.473,-37.4996 0.703,-52.6988 C 220.66,31.1406 200.352,30.4414 177.148,45.4414 170.781,40.1211 164.77,35.0508 158.75,30.0508 182.27,6.64844 215.781,3.55859 242.27,21.7305 c 25.89,17.8086 34.8,51.9101 21.679,80.6995 -10.898,23.91 -41.179,46.211 -81.488,33.711 -7.891,13.98 -16.012,28.199 -23.91,42.187 z m -32.102,-22.387 c -26.097,13.207 -35.6677,30.59 -29.3787,51.918 5.5897,18.789 24.3787,30.981 43.4807,28.2 9.609,-1.52 17.929,-5.43 24.527,-12.809 9.883,-11.289 12.07,-24.488 9.102,-39.219 7.968,-2.191 15.269,-4.179 22.582,-6.09 9.609,26.399 -1.684,57.18 -26.293,73 -25.699,16.489 -58.91,13.09 -80.6995,-8.39 -11.4101,-11.211 -17.6211,-24.93 -19.1093,-40.821 -1.9883,-22.269 7.1914,-40.39 22.8203,-55.902 -8.6407,-14.379 -16.8008,-28.09 -24.8086,-41.367 -2.2227,-0.231 -3.5938,-0.231 -5,-0.43 -16.211,-2.301 -27.6914,-16.8005 -25,-31.4802 3.0898,-16.7227 18.2773,-26.9219 33.789,-22.8203 16.4883,4.3008 25.3086,20.1992 19.0977,36.6093 -2.2969,5.8907 -0.8984,9.7188 1.9922,14.2892 10.8982,18.211 21.7192,36.531 32.8982,55.312 z" /></g></g></svg>