<svg xmlns="http://www.w3.org/2000/svg" viewBox="0 0 197.5 198.75" height="198.75" width="197.5"><g fill="#0078d7"><path d="M150.586 167.301c-15.601 11.998-33.901 17.7-52.1 17.7-26.001 0-51.001-11.503-68.198-33.9C1.685 113.6 8.886 60 46.386 31.3c15.601-12.001 33.902-17.7 52.1-17.7 26.001 0 51.001 11.5 68.199 33.901 28.701 37.5 21.401 91.196-16.099 119.8zm26.099-128.1C157.388 13.698 127.685.7 98.589.7 77.788.7 56.386 7.501 38.686 20.998c-43.197 33.3-51.601 94.8-18.197 138.004 19.296 25.497 48.397 38.5 78.1 38.5 20.796 0 42.197-6.802 59.897-20.303 43.199-32.798 51.499-94.8 18.199-137.998z"/><path d="M53.926 117.531c-5.703-5.699-10.401-10.899-14.102-16.098-8.3 16.698-10.898 33.901-12.002 47.9 1.002 1.001 1.002 2.1 1.602 3.1 4.199 5.2 9.4 10.401 14.1 14.102 0-11.504 1.002-30.303 10.402-49.004zM84.228 51.399c-7.797 5.2-15.6 12.001-23.998 20.8-4.2 4.702-8.301 9.4-11.5 14.1 3.599 5.7 7.799 11.5 13.496 17.198 4.205-5.697 9.405-11.995 15.602-17.7 7.802-7.3 15.102-13.496 22.402-18.197-5.103-5.201-10.801-11.001-16.002-16.201zM165.879 46.369c-3.599-4.703-7.3-8.804-11.998-12.5-13.002-2.104-34.501-1.704-57.9 10.796 5.2 5.703 10.899 11.504 16.1 16.104 31.2-17.1 53.798-14.4 53.798-14.4zM40.185 100.72c2.603-4.702 5.201-9.4 8.301-14.6C34.985 64.72 35.49 47.02 36.987 38.717c-3.1 3.604-6.802 7.3-9.4 10.904-2.5 12.099-2.5 29.8 12.598 51.1zM78.663 118.649c-6.304-5.2-11.5-9.903-16.104-14.6-3.097 4.697-5.7 8.897-8.296 13.497 4.2 4.204 9.4 8.901 15.097 13.003 34.903 27.598 69.8 30.2 89.6 30.2 1.001 0 7.3-8.302 10.899-13.501-8.999 2.1-46.5 6.802-91.196-28.6z"/><path d="M40.069 100.828c3.598 5.2 8.3 10.902 14.1 16.102 2.101-4.702 4.699-8.901 8.302-13.5-5.703-5.704-9.902-11.5-13.5-17.203-3.6 5.2-6.3 9.903-8.902 14.6zM100.2 67.667c32.3 29.703 69.8 54.703 79.698 61.499 1-2.597 1.6-4.696 2.1-7.298-10.397-7.8-37.5-28.6-70.3-61.5-3.196 2.1-7.397 3.5-11.498 7.3zM96.509 44.44C88.71 36.14 80.41 26.842 72.01 17.439c-3.602 1-7.802 2.602-11.504 4.701 5.704 9.902 14.6 20.102 23.404 29.503 4.8-2.603 8.502-5.103 12.598-7.203z"/><path d="M96.494 44.411c-4.2 2.104-8.999 4.101-12.603 7.201 5.2 5.202 10.602 10.802 16.304 16.002 4.2-2.603 7.695-4.702 11.9-6.802-5.2-5.097-9.903-10.6-15.601-16.4zM138.208 88.586c-7.798 6.304-9.4 17.7-3.598 25.503 6.299 8.301 17.7 9.398 26 3.599 7.799-6.3 9.4-17.7 3.599-26.002-6.201-7.797-17.598-9.296-26.001-3.1zM100.215 134.743c-7.3 5.703-8.901 16.704-3.101 24.003 5.698 7.3 16.7 8.897 24 3.096 7.298-5.699 8.901-16.098 3.1-23.998-5.699-7.798-16.201-8.8-24-3.101zM36.47 80.529c-11.504 8.901-13.501 25-4.702 36.504 8.901 11.5 25 13.496 36.498 4.697 11.504-8.799 13.502-25 4.703-36.499-8.902-11.499-25.6-13.599-36.499-4.702z"/></g></svg>