<svg xmlns="http://www.w3.org/2000/svg" viewBox="0 0 42.5 42.5" height="42.5" width="42.5"><g fill="#006fd4"><path d="M4.199 9.95h14.198V7.152H4.2V9.95zM4.199 14.252h14.198v-2.803H4.2v2.803zM4.199 18.45h14.198v-2.802H4.2v2.802z"/><path d="M22.7 1.849c0-.698-1.001-1.7-1.698-1.7H1.099C.399.15 0 1.152 0 1.85v19.8c0 .601.4 1.098 1.099 1.098h20c.702 0 1.601-.595 1.601-1.098v-19.8zM19.8 19.95H2.797V5.75H19.8v14.2zM36.801 24.75c0-.299-.302-.601-.6-.601h-10c-.302 0-.6.302-.6.601v10.103c0 .297.298.594.6.594H36.3c.302 0 .6-.297.6-.594l-.098-10.103zM35.4 34.149h-8.5v-7.1h8.5v7.1z"/><path d="M28.301 29.852H34v-1.4h-5.699v1.4zM32.998 17.152s1-7.7-6.098-9.205h-1.603C24.4 7.947 24 8.25 24 8.25v3.101s.302-.302 1.4-.302c.7 0 1.3 0 1.402.102 1.7.6 3.297 1.7 2.999 6.001H26.8l4.8 5.995 4.698-5.995h-3.301zM39.101 27.05H38.2v9.901H28.3v.9c0 .296.298.6.6.6H39c.302 0 .601-.304.601-.6V27.746a.544.544 0 0 0-.499-.697z"/><path d="M41.9 29.852h-.898v9.898h-9.8v.897c0 .304.296.602.6.602H41.9c.303 0 .6-.298.6-.602V30.55c0-.4-.297-.697-.6-.697z"/></g></svg>