<svg xmlns="http://www.w3.org/2000/svg" viewBox="0 0 51.25 86.25" height="86.25" width="51.25"><path d="M49.058 32.101H28.12l8.735-29.175c.167-.825-.161-1.64-.825-1.977-.161-.161-.487-.161-.659-.161-.489 0-.991.327-1.313.663L.268 50.724c-.322.488-.322 1.153-.16 1.651.336.487.825.815 1.488.815h20.259l-9.063 29.658c-.16.826.177 1.65.827 1.987.16.166.502.166.664.166.497 0 .986-.327 1.313-.664l34.775-49.76c.162-.337.336-.664.336-.992 0-.825-.825-1.484-1.65-1.484z" fill="#0078d7" fill-rule="evenodd"/></svg>