<svg xmlns="http://www.w3.org/2000/svg" viewBox="0 0 67.5 67.5" height="67.5" width="67.5"><g fill="#2072b8"><path d="M13.901 41.752h11.402l3.798-6.5V28.45c-2-1.098-3.398-3.198-3.398-5.6 0-3.501 2.9-6.401 6.397-6.401h15.902c3.496 0 6.398 2.9 6.398 6.401 0 2.402-1.398 4.6-3.399 5.6v6.802l3.799 6.5h4.399c3.901-.303 7.1-3.605 7.1-7.7 0-4.302-3.4-7.7-7.696-7.7-.302 0-.6 0-.903.097.503-1.699.704-3.599.704-5.499 0-11.401-9.205-20.6-20.402-20.6C28.998.35 21.3 6.25 18.603 14.451c-1.4-.502-3.003-.8-4.605-.8-7.7 0-13.998 6.3-13.998 14.102-.098 7.694 6.104 13.999 13.901 13.999zM45.801 56.849a1.398 1.398 0 1 1-2.798 0 1.4 1.4 0 0 1 1.397-1.402c.776 0 1.401.63 1.401 1.402z"/><path d="M62.203 61.249L47.7 36.049V25.848h.302c1.7 0 3.101-1.397 3.101-3.096 0-1.703-1.4-3.1-3.1-3.1H32.1a3.115 3.115 0 0 0-3.102 3.1c0 1.7 1.402 3.096 3.102 3.096h.302v10.2l-14.6 25.2c-1.6 2.803-.302 5 2.9 5h38.6c3.198 0 4.497-2.3 2.9-5zM23.7 60.75l6.002-10.4H38.1c-.2.4-.297.801-.297 1.299a2.9 2.9 0 0 0 5.8 0c0-.498-.101-.899-.302-1.299h6.802l6 10.4H23.701z"/></g></svg>