<svg xmlns="http://www.w3.org/2000/svg" viewBox="0 0 65 61.25" height="61.25" width="65"><g fill="#0078d7"><path d="M63.614 28.598l-3.101-3.096-13.8-13.403c-.6-.602-1.498-.602-2.202 0-.6.6-.8 1.698 0 2.3l14.503 14.199c.6.6.6 1.703 0 2.304L44.214 45.6c-.6.6-.6 1.699 0 2.3.601.6 1.699.502 2.197 0L60.112 34.3l.103-.102 3.399-3.297c.6-.6.497-1.703 0-2.304zM5.313 30.902c-.6-.6-.6-1.703 0-2.304l14.198-14.2c.802-.6.601-1.7 0-2.3-.697-.6-1.596-.6-2.196 0l-13.8 13.404-3.1 3.096c-.502.6-.6 1.703 0 2.304l3.1 3.497.099.102L17.612 47.9c.503.502 1.602.6 2.203 0 .6-.601.6-1.7 0-2.3L5.312 30.902z"/><path d="M48.013 20.902h-13.4L47.614 1H28.114L17.612 30.6l12.803.103-10 29.296 27.598-39.097z"/></g></svg>