<svg xmlns="http://www.w3.org/2000/svg" viewBox="0 0 66.25 71.25" height="71.25" width="66.25"><g fill-rule="evenodd"><path d="M20.664 56.445c0 2.372-1.85 4.214-4.214 4.214-2.372 0-4.209-1.842-4.209-4.214V38.159c0-2.378 1.837-4.214 4.21-4.214 2.363 0 4.213 1.836 4.213 4.214v18.286zM33.033 61.445c0 2.372-1.847 4.214-4.21 4.214-2.378 0-4.213-1.842-4.213-4.214V33.418c0-2.374 1.835-4.209 4.214-4.209 2.362 0 4.209 1.835 4.209 4.209v28.027zM8.422 52.362c0 2.378-1.844 4.214-4.208 4.214C1.836 56.576 0 54.74 0 52.362V42.5c0-2.373 1.836-4.21 4.214-4.21 2.364 0 4.208 1.837 4.208 4.21v9.862zM45.405 65.785c0 2.379-1.85 4.215-4.214 4.215-2.372 0-4.209-1.836-4.209-4.215V28.676c0-2.363 1.837-4.198 4.21-4.198 2.363 0 4.213 1.835 4.213 4.198v37.11z"/><path d="M58.824 63.945c-.65 0-1.452-.123-2.1-.386l-5.264-1.714c-.922-.264-1.324-1.186-1.06-2.109.259-.914 1.187-1.314 2.11-1.05l5.264 1.709c1.05.4 2.236.136 3.164-.522.912-.664 1.435-1.714 1.435-2.9V22.895c0-1.587-1.05-3.038-2.5-3.422L10 4.335c-1.05-.4-2.236-.126-3.15.522-.928.665-1.45 1.714-1.45 2.902v23.427c0 .923-.79 1.709-1.714 1.709-.922 0-1.713-.786-1.713-1.709V7.759c0-2.237 1.05-4.215 2.763-5.665C6.572.785 8.814.384 10.922 1.044l49.88 15.142c2.9.908 5 3.55 5 6.709v34.078c0 2.236-1.05 4.35-2.892 5.663-1.323.923-2.636 1.309-4.086 1.309z"/></g></svg>