<svg xmlns="http://www.w3.org/2000/svg" viewBox="0 0 33.75 43.75" height="43.75" width="33.75"><g fill="#0078d7"><path d="M17.91 29.801v3.896c-.303 0-1.499-.2-1.699-.297-.8-.2-1.601-.4-2.402-.699a4.973 4.973 0 0 1-.7-.302l-.399-.098-.4-.2-.304-.2-.395-.2c-.2-.102-.502-.302-.702-.401A17.13 17.13 0 0 1 8.31 29.2c-.8-.801-1.504-1.7-2.099-2.7A29.678 29.678 0 0 1 4.61 23.4c-.801-2.203-1.201-4.501-1.001-6.801.2-2.3.8-4.6 1.898-6.5 1.104-1.997 2.5-3.7 4.2-5 .8-.698 1.704-1.2 2.603-1.7.897-.497 1.801-.8 2.598-1.098 1.801-.6 3.5-.902 5-.902 1.503-.1 2.9.102 4.003.302 1.099.2 1.899.498 2.5.698.298.102.498.2.699.2l.2.102c.098 0 .2 0 .297-.102.103-.098 0-.2-.097-.298l-.2-.102c-.103-.098-.401-.2-.601-.298-.6-.302-1.401-.704-2.5-1.001-1.1-.4-2.5-.699-4.2-.801-1.6-.098-3.5 0-5.6.503-2.001.498-4.101 1.396-6.099 2.695-2.001 1.304-3.804 3.204-5.2 5.4C1.709 10.9.708 13.497.21 16.3c-.2 1.401-.302 2.799-.103 4.302.103 1.396.4 2.895.802 4.2.4 1.395 1 2.7 1.801 3.998C3.409 30 4.306 31.197 5.308 32.3c1 .996 2.1 1.998 3.3 2.7l.898.602.504.297.497.297.402.202.502.2c.298.102.595.302.9.4 1.298.502 2.699.903 3.998 1.104.497.097 1.2.097 1.698.194v4.204l5.904-6.201-6-6.499z"/><path d="M19.707 4.099c-7.3 0-12.9 5.902-12.9 13.202 0 6.099 4.003 11.196 9.604 12.7V28.9c0-.5.395-.997.899-1.198.2-.102-.2 0 0 0 .297 0 .697 0 .897.299l2.5 2.5c6.9-.499 12.3-6.201 12.3-13.199 0-7.3-6-13.202-13.3-13.202zm-9.8 14.3c-.6 0-1.196-.497-1.196-1.2 0-.6.498-1.202 1.197-1.202.6 0 1.2.505 1.2 1.202-.097.703-.6 1.2-1.2 1.2zm9.8-12.797c.6 0 1.202.498 1.202 1.197 0 .6-.499 1.201-1.202 1.201-.596 0-1.196-.499-1.196-1.201.098-.602.6-1.197 1.196-1.197zm6.904 18.4l-.102.097c-.802.8-2.203.8-2.998 0l-5.401-5.402c-.503-.497-.2-1.098-.2-1.699v-5c0-1.2 1.001-2.1 2.1-2.1h.4c1.201 0 2.1 1.002 2.1 2.1V16.3l4.697 4.697c.903.802.303 2.203-.596 3.004zM30.21 18.4c-.6 0-1.201-.498-1.201-1.201 0-.6.497-1.202 1.201-1.202.6 0 1.201.505 1.201 1.202 0 .703-.502 1.2-1.201 1.2z"/></g></svg>