<svg xmlns="http://www.w3.org/2000/svg" viewBox="0 0 37.5 38.75" height="38.75" width="37.5"><path d="M37.413 15.873a5.851 5.851 0 0 0-5.85-5.85c-1.186 0-2.3.362-3.223.977l-4.052-3.349a5.676 5.676 0 0 0 .263-1.714 5.842 5.842 0 0 0-5.85-5.85 5.84 5.84 0 0 0-5.84 5.85c0 .585.088 1.162.249 1.7L8.765 11.25c-.855-.41-1.851-.635-2.915-.635-3.238 0-5.85 2.021-5.85 5.258a5.816 5.816 0 0 0 4.815 5.738l1.571 5.639c-1.225 1.075-2.011 2.638-2.011 4.4a5.86 5.86 0 0 0 5.85 5.85c2.514 0 4.639-1.587 5.474-3.814h6.015c.825 2.227 2.958 3.814 5.458 3.814a5.855 5.855 0 0 0 5.855-5.85c0-1.826-.84-3.462-2.154-4.526l1.612-5.49c2.789-.448 4.928-2.845 4.928-5.76zm-10.24 9.937c-2.823 0-5.17 2.003-5.723 4.664h-5.497a5.853 5.853 0 0 0-5.728-4.664c-.299 0-.601.03-.889.064l-1.275-4.6c2.124-.874 3.629-2.964 3.629-5.4 0-.899-.201-1.7-.567-2.398l3.765-3.125a5.782 5.782 0 0 0 3.813 1.426c1.46 0 2.798-.537 3.824-1.426l3.725 3.1a5.768 5.768 0 0 0-.527 2.413 5.856 5.856 0 0 0 3.525 5.376l-1.362 4.609a6.843 6.843 0 0 0-.714-.039z" fill="#0078d7" fill-rule="evenodd"/></svg>