<svg xmlns="http://www.w3.org/2000/svg" viewBox="0 0 38.75 35" height="35" width="38.75"><g fill="#0078d7"><path d="M29.503 15.149h-8.204l4.1 3.204 4.104-3.204zM12.9 19.451c-.103 0-.2 0-.302-.102l-3.8-2.999v4.897H17.5v-5l-4.101 3.102c-.2.102-.401.102-.5.102z"/><path d="M25.4 19.451c-.103 0-.302 0-.302-.102L21.2 16.35v4.897h8.701v-5l-4.1 3.102c-.202.102-.305.102-.402.102z"/><path d="M28.502.95h-19L0 17.351l9.502 16.397H28.4l9.5-16.397-9.397-16.4zm3.3 23.399H5.898c-.801 0-1.397-.7-1.397-1.499v-9.897c0-.802.596-1.506 1.397-1.506H31.8c.3 0 .797 0 4.2 6.403l.098.302-.097.298c-3.404 5.899-3.902 5.899-4.2 5.899z"/><path d="M17.003 15.149H8.7l4.096 3.204 4.205-3.204z"/><path d="M5.899 12.551c-.2 0-.401.2-.401.402v9.897c0 .2.2.503.4.503h25.703c.5-.503 1.998-2.9 3.301-5.2-1.303-2.5-2.9-5.103-3.3-5.602H5.898zm12.602 9.2c0 .298-.302.6-.704.6h-9.8c-.297 0-.4-.302-.4-.6v-7.3c0-.302.103-.401.4-.401h9.8c.303 0 .704.099.704.401v7.3zm12.3 0c0 .298-.2.6-.504.6H20.6c-.303 0-.502-.302-.502-.6v-7.3c0-.302.2-.401.502-.401h9.697c.303 0 .504.099.504.401v7.3z"/></g></svg>