<svg xmlns="http://www.w3.org/2000/svg" viewBox="0 0 30 42.5" height="42.5" width="30"><g fill="#0078d7"><path d="M16.299 16.32a1.7 1.7 0 1 1-3.4-.002 1.7 1.7 0 0 1 3.4.002zM15.2 19.319A.6.6 0 1 1 14 19.318a.6.6 0 0 1 1.201 0zM12.203 16.32a.601.601 0 1 1-1.203 0 .601.601 0 0 1 1.203 0zM12.1 18.018c-.2.202-.2.602 0 .9.103.102.302.2.4.2.2 0 .297-.098.4-.2.097-.098.2-.298.2-.4 0-.196-.102-.298-.2-.396a.527.527 0 0 0-.8-.104zM12.5 14.821c.2 0 .297-.102.4-.2.097-.103.2-.302.2-.4 0-.201-.102-.304-.2-.401-.2-.2-.6-.2-.898 0-.2.2-.2.601 0 .899.2.102.298.102.498.102zM6.601 32.819a1.5 1.5 0 0 1-3.002 0 1.5 1.5 0 0 1 1.499-1.5 1.5 1.5 0 0 1 1.503 1.5zM16.699 14.821c.2 0 .303-.102.401-.2.103-.103.2-.302.2-.4 0-.201-.097-.304-.2-.401-.2-.2-.601-.2-.899 0-.2.2-.2.601 0 .899.2.102.298.102.498.102zM15.2 13.322a.6.6 0 0 1-.6.596.6.6 0 0 1-.601-.596.601.601 0 0 1 1.201 0z"/><path d="M15.801 27.921c-.401 0-.899.097-1.299.097-.703 0-1.402-.097-2.1-.2l1.1-2.098c0-.098 0-.098.097-.202.2-.297.2-.697.2-1.097 0-1.5-1.201-2.803-2.7-2.803-.7 0-1.396.303-1.998.801L6.7 24.821a11.702 11.702 0 0 1-3.8-8.604C2.9 9.72 8.1 4.518 14.504 4.518c6.396 0 11.596 5.2 11.596 11.7 0 3.002-1.099 5.703-2.999 7.802h.099c2.2 0 4.501.498 5.902 1.498V1.921c0-.504-.4-1.001-1-1.001H.898C.399.92 0 1.32 0 1.92V37.02c0 .502.4 1 .899 1H15.8V27.92zm11.3-26c.497 0 .799.4.799.8 0 .5-.4.797-.8.797a.787.787 0 0 1-.801-.797c0-.502.4-.8.801-.8zm-26.002.8c0-.502.4-.8.8-.8s.801.4.801.8c0 .5-.4.797-.8.797-.401 0-.801-.298-.801-.797zM7.998 34.52c-.596 1-1.7 1.8-2.9 1.8-1.797 0-3.297-1.498-3.297-3.398 0-.902.402-1.8.996-2.402l7.105-7.197a1.634 1.634 0 0 1 1.197-.503c.903 0 1.698.801 1.698 1.7 0 .302-.097.503-.2.8l-4.6 9.2c0-.098 0-.098 0 0z"/><path d="M16.201 18.018c-.2.202-.2.602 0 .9.098.102.298.2.4.2.2 0 .299-.098.402-.2.097-.098.2-.298.2-.4 0-.196-.103-.298-.2-.396-.103-.303-.504-.303-.802-.104z"/><path d="M14.502 10.822c-3.003 0-5.4 2.5-5.4 5.498 0 2.999 2.397 5.499 5.4 5.499 2.998 0 5.498-2.5 5.498-5.5 0-2.997-2.5-5.497-5.497-5.497zm.098 9.898c-2.397 0-4.4-2.003-4.4-4.4 0-2.403 1.9-4.399 4.4-4.399 2.403 0 4.399 1.996 4.399 4.399 0 2.5-1.996 4.4-4.399 4.4z"/><path d="M18.1 16.32a.6.6 0 1 1-1.2.003.6.6 0 0 1 1.2-.003zM23.32 25.851c-3.198 0-5.8 1.1-5.8 2.3v10.802c0 1.196 2.603 2.298 5.8 2.298 3.204 0 5.801-1.102 5.801-2.298V28.15c0-1.104-2.597-2.3-5.801-2.3zm0 3.399c-2.3 0-4.096-.601-4.096-1.299 0-.703 1.796-1.299 4.096-1.299s4.102.595 4.102 1.3c0 .697-1.802 1.298-4.102 1.298z"/></g></svg>