<svg xmlns="http://www.w3.org/2000/svg" viewBox="0 0 43.75 36.25" height="36.25" width="43.75"><g fill="#0078d7"><path d="M14.301 19.399H30.7v-11H14.3v11zM26.1 16.2l-3.102 1.797v-3.6l3.102-1.795V16.2zM22.7 10.297l3.101 1.803-3.1 1.801-3.1-1.8 3.1-1.804zm-3.3 2.305l3.1 1.797v3.599L19.4 16.2v-3.598z"/><path d="M41.601.2H1.9C.8.2 0 1.1 0 2.1v31C0 34.2.899 35 1.9 35H41.6c1.1 0 1.9-.899 1.9-1.9v-31c0-1.001-.8-1.9-1.9-1.9zM21.601 29L20.4 32.603v.097l-.103.097H19.2V32.7l-1.201-3.599V28.8h.8v.102l1.002 3.1 1.001-3.1V28.8l.098-.098h.6v.098c.2.102.2.2.102.2zM26.9 32.7c-.099.097-.201.097-.201.097h-.6V29.4L25 32.7v.097h-.801V32.7L22.998 29.4v3.398h-.795v-3.696c0-.102 0-.2.097-.2.102-.102.102-.102.2-.102h.699c.102 0 .102 0 .2.102L23.5 29c0 .102.098.102.098.2l.903 2.402.898-2.402c0-.098.097-.2.097-.2 0-.098.103-.098.103-.098s.099-.102.201-.102h.898s.102 0 .102.102c0 0 0 .098.099.098V32.7zm5.102-12.997c0 .594-.504.994-1 .994H25c-.6 2.3-.297 2.603 3.701 2.603V24.3h-12.5V23.3c3.599 0 4.199-.303 3.701-2.603h-5.904a1 1 0 0 1-1-.994V8.1c0-.6.504-1.099 1-1.099h17.004c.6 0 1 .499 1 1.1v11.602z"/></g></svg>