<svg xmlns="http://www.w3.org/2000/svg" viewBox="0 0 47.5 48.75" height="48.75" width="47.5"><path d="M34.536 37.587c-5.176 0-5.688-.438-4.81-3.55H38.1c.801 0 1.626-.712 1.626-1.522V15.89c0-.815-.825-1.539-1.626-1.539h-3.187v-3.764c0-.8-.826-1.523-1.627-1.523H9.44c-.825 0-1.465.722-1.465 1.523v16.64c0 .801.64 1.524 1.465 1.524h3.335v3.765c0 .81.648 1.523 1.465 1.523h8.174c.873 3.11-.313 3.55-5.49 3.55v1.626h17.613v-1.627zM22.516 14.35l-1.34-.761-1.337.761h-5.6c-.817 0-1.465.724-1.465 1.539v10.786h-2.735V11.138l22.871-.04-.073.04v3.212H22.515zm3.045 10.123l-4.184-2.413v4.766l4.184 2.413v-4.766zm.85 0v4.766l4.19-2.413V22.06l-4.19 2.413zm3.75-3.184l-4.175-2.412-4.175 2.412v.059l4.175 2.417 4.175-2.417v-.06zm7.49-4.863v15.536H14.85V16.426l22.866-.04-.064.04zM4.687 5.313h3.125V.625H3.125A3.128 3.128 0 0 0 0 3.75v4.688h4.688V5.313zm6.25 0h6.25V.625h-6.25v4.688zm9.376 0h6.25V.625h-6.25v4.688zm9.375 0h6.25V.625h-6.25v4.688zm12.5 0v3.125h4.687V3.75A3.128 3.128 0 0 0 43.75.625h-4.688v4.688h3.126zM0 36.563h4.688v-6.25H0v6.25zm0-9.376h4.688v-6.25H0v6.25zm0-9.375h4.688v-6.25H0v6.25zM10.938 47.5h6.25v-4.688h-6.25V47.5zm9.374 0h6.25v-4.688h-6.25V47.5zm9.375 0h6.25v-4.688h-6.25V47.5zm12.5-10.938h4.688v-6.25h-4.688v6.25zm0-9.374h4.688v-6.25h-4.688v6.25zm0-9.375h4.688v-6.25h-4.688v6.25zm0 25h-3.124V47.5h4.687a3.128 3.128 0 0 0 3.125-3.125v-4.688h-4.688v3.126zm-37.5 0v-3.126H0v4.688A3.128 3.128 0 0 0 3.125 47.5h4.688v-4.688H4.688z" fill="#0078d7" fill-rule="evenodd"/></svg>