<svg xmlns="http://www.w3.org/2000/svg" viewBox="0 0 82.5 82.5" height="82.5" width="82.5"><g fill="#0079d6"><path d="M37.7 25.95c-.4.201-.698.201-1.299.401v22.5c.7.2 1.499.698 2.198 1.299L48.7 42.049c-.2-.4-.2-1.299-.2-1.996 0-.704.2-1.803.4-2.403l-11.2-11.7zM21.002 37.752c.4.698.697 1.797.697 2.598 0 .699-.2 1.499-.4 2.203L31.4 50.647c.4-.395 1.3-.897 1.998-1.298V26.35c-.402-.2-.699-.2-.899-.4L21.002 37.751z"/><path d="M40 57.352c-.899 1.7-2.797 2.9-5 2.9-3.301 0-5.699-2.402-5.699-5.703 0-.4 0-.898.202-1.299l-10.704-8.3c-.9.697-1.998.898-3.1.898-3.101 0-5.699-2.398-5.699-5.698 0-3.101 2.402-5.699 5.699-5.699.902 0 1.801.2 2.602.699l11.3-12.3c-.201-.699-.402-1.499-.402-2.403 0-3.095 2.402-5.697 5.703-5.697 3.297 0 5.698 2.401 5.698 5.697 0 .904-.2 2.003-.698 2.603l10.9 12.3c.897-.4 1.995-.699 2.797-.699 3.1 0 5.702 2.398 5.702 5.7.099 2.1-.902 3.798-2.298 4.799 1.796.698 3.597 1.699 5.2 3.1L70 41.951 35 .351 0 41.95l35 28.496 7.002-5.697c-1.303-2.599-1.904-5-2.002-7.397z"/><path d="M40.6 53.25c0-.102.099-.2.099-.303l-.099.103c-.103.097-.103.097 0 .2zM79.502 50.648C75.6 46.447 67.797 48.25 63.1 54.75c-5.8-6.998-12.803-8.301-16.602-4.102-3.998 4.302-2.996 9.405-.496 13.603l4.096-.102 3.9-.098 3.005-7.803c.097-.498.994-1.396 1.498-1.298.498 0 1.597 1 1.7 1.499v13.1l2.099-4.4c.102-.399.497-.6 1.001-.6h12.5c.6 0 1.099.6 1.099 1.098 0 .601-.499 1.304-1.001 1.304H64.502l-4.102 8c-.103.4-1 .599-1.402.599h-.097c-.502-.103-.904-.4-.904-.899L57.9 62.553l-1.201 3.295c-.098.4-.498 1-.898 1.103h-8.7C52.001 74.15 60.4 80.15 62.9 81.151v.098-.098c4.8-1.9 27.5-18.799 16.603-30.504z"/></g></svg>