<svg xmlns="http://www.w3.org/2000/svg" viewBox="0 0 41.25 42.5" height="42.5" width="41.25"><g fill="#0078d7"><path d="M18.74 16.28l-6.699 6.196c.298.503.498 1.104.498 1.602 0 .302 0 .6-.098.898l6.9 4.204V17.075c-.102 0-.504-.697-.6-.795zM22.188 16.183c-.103.097-1.202.897-1.3 1V29.18l6.9-4.399c-.103-.299-.2-.498-.2-.698 0-.4.097-.802.2-1.202l-5.6-6.698z"/><path d="M20.2.85L0 24.85 20.098 41.25l20.2-16.299L20.2.851zM30.9 27.35c-.899 0-1.7-.4-2.3-1.001L23.1 30.25c.401.502.499 1.098.499 1.801 0 1.797-1.499 3.199-3.2 3.199-1.8 0-3.196-1.402-3.196-3.199 0-.801.297-1.498.795-2.1L11.6 26.55c-.6.6-1.4.902-2.201.902-1.802 0-3.199-1.401-3.199-3.203 0-1.797 1.5-3.198 3.199-3.198.502 0 1 .097 1.499.4l6.699-6.2c-.498-.601-.698-1.402-.698-2.1 0-2.003 1.602-3.501 3.598-3.501 2.002 0 3.603 1.601 3.603 3.5 0 .699-.2 1.3-.6 1.9l5.698 6.7c.504-.401 1.2-.602 1.9-.602 1.8 0 3.202 1.402 3.202 3.204-.2 1.5-1.703 2.998-3.402 2.998z"/></g></svg>