<svg xmlns="http://www.w3.org/2000/svg" viewBox="0 0 51.25 43.75" height="43.75" width="51.25"><path d="M20.497 29.301h-8.896c-4.398 0-8.002-3.598-8.002-8.1s3.403-8.1 8.002-8.1c.801 0 1.7.199 2.7.296l1.7.503.497-1.699c1.602-5.2 6.602-8.404 12.3-8.404 6.9 0 12.203 5.304 12.203 12.203 0 1.099-.2 2.203-.504 3.301l-.697 2.5 2.7-.303h.497c2.003 0 3.604 1.705 3.604 3.603 0 1.9-1.4 3.296-3.1 3.6h-8.9c-.3-2.5-1.604-4.703-3.302-6.402-2.198-2.198-5.2-3.502-8.302-3.502-2.196 0-4.398.602-6.097 1.705l1.899 2.998c1.401-.8 2.802-1.099 4.4-1.099 2.2 0 4.399.802 5.8 2.5 1.601 1.598 2.5 3.599 2.5 5.802 0 2.197-.8 4.398-2.5 5.796-1.597 1.704-3.6 2.5-5.8 2.5-1.598 0-3.101-.499-4.4-1.398l-1.9 3c1.9 1.098 4.103 1.898 6.099 1.898 3.1 0 6.103-1.1 8.3-3.398 1.9-1.9 3.003-4.4 3.302-7.002h9.301c3.599-.298 6.3-3.399 6.3-7.198 0-3.002-2.799-5.8-6.1-6.401.2-.6.2-.899.2-1.899C44.301 7.803 38.101.8 28.2.8c-6.3 0-11.9 3.599-14.2 9.4-.8 0-1.401-.299-2.3-.299C5.2 9.8 0 14.8 0 21.201c0 6.297 5.2 11.298 11.401 11.298h9.8l-.704-3.198z" fill="#59b4d9"/><path d="M28.399 30.6a5.6 5.6 0 0 1-11.196 0 5.6 5.6 0 0 1 5.594-5.602A5.601 5.601 0 0 1 28.4 30.6z" fill="#68217a"/></svg>