<svg xmlns="http://www.w3.org/2000/svg" viewBox="0 0 48.75 43.75" height="43.75" width="48.75"><path d="M42.797 18.899c.103-.699.103-1.7.103-2.398C42.9 8 35.899.701 27.402.701H27.3C21.2.7 15.699 4.6 13.199 10.1c-.699-.1-1.398 0-2.1 0C4.902 10.1 0 15.202 0 21.3c0 6.099 5 11.099 11.201 11.099H16.9c.2.801.698 1.5 1.299 2.1 2.001 2.002 5.302 2.002 7.298 0a5.062 5.062 0 0 0 0-7.198c-1.996-2.001-5.2-2.001-7.298 0-.499.499-.9.9-1.099 1.598l-5.801-.202c-4.297 0-7.7-3.197-7.798-7.5 0-4.296 3.501-7.7 7.798-7.7.801 0 1.698.2 2.5.505l1.6.6.5-1.602c1.601-5 6.304-8.301 11.503-8.301a12.08 12.08 0 0 1 12.1 12.1c0 1.103-.102 2.203-.4 3.203l-.703 2.397 2.5-.298h.4c1.9 0 3.5 1.596 3.5 3.502 0 1.796-1.298 3.296-3.1 3.496 0 0-8.3.102-8.8.102-.399-2.3-1.498-4.502-3.196-6.201-2.105-2.203-5-3.399-8.102-3.399-2.098 0-4.101.602-5.902 1.596L17.5 24.1c1.201-.802 2.7-1.197 4.199-1.197 2.1 0 4.2.795 5.703 2.398 1.5 1.499 2.398 3.5 2.398 5.697 0 2.106-.802 4.206-2.398 5.704-1.503 1.5-3.5 2.398-5.703 2.398-1.499 0-2.998-.402-4.199-1.197l-1.801 2.895a11.557 11.557 0 0 0 6 1.704c3.1 0 5.899-1.201 8.1-3.402a11.12 11.12 0 0 0 3.199-6.499c.4 0 8.803-.099 8.803-.099h.099c3.598-.302 6.299-3.3 6.299-6.898a6.586 6.586 0 0 0-5.402-6.704z" fill="#0078d7"/></svg>