<svg xmlns="http://www.w3.org/2000/svg" viewBox="0 0 35 35" height="35" width="35"><path d="M26.949 22.55h-6.197l2.197-2.202-4.199-4.2v10.103h3.1l-4.399 4.399-4.4-4.399h3.101v-10l-4.203 4.2 2.2 2.201h-6.2v-6.2l2.202 2.197 5.298-5.299c-.8-.303-1.402-.897-1.996-1.602-1.705-2.3-1.304-5.497.996-7.197.902-.702 2.001-1.102 3.1-1.102 1.498 0 3.1.702 4.1 2.001 1.701 2.3 1.3 5.499-1 7.202a2.622 2.622 0 0 1-1 .595l5.302 5.304 2.198-2.202v6.2h-.2zM17.45 33.55c.802 0 1.596-.303 2.198-.899l13.603-13.5c.596-.6.898-1.402.898-2.203 0-.898-.302-1.601-.898-2.197L19.65 1.15A3.09 3.09 0 0 0 17.45.25c-.801 0-1.6.297-2.202.899l-13.501 13.5a3.123 3.123 0 0 0-.898 2.202c0 .801.302 1.598.898 2.198l13.5 13.5c.602.6 1.402 1.002 2.203 1.002zM14.65 11.95c.8.703 1.801 1.001 2.802 1.001a4.6 4.6 0 0 0 2.7-.899c.098-.102.298-.2.4-.303-.4 0-1 0-1.703-.2-.098.103-.098.2-.196.2-.4.303-.903.2-1.303-.2-.097-.2-.2-.4-.2-.6a9.314 9.314 0 0 1-1.299-.796c-.097-.102-.299-.2-.401-.302-.2.103-.4.103-.6.103-.2.794-.298 1.498-.2 1.996zm0 0c-.098 0-.098 0 0 0-.098 0-.098 0 0 0zm-.899-.898c.098.098.098 0 0 0zm0 0c0-.504.098-1.001.297-1.5l-.097-.102c-.4-.498-.4-1.202 0-1.601-.298-.698-.298-1.397-.2-1.797-1.002 1.402-1.099 3.398 0 5zm.497-5.703c-.097.4-.097 1.103.304 1.904a.828.828 0 0 1 .698 0l.2-.2c.401-.4.801-.8 1.2-1.103a7.974 7.974 0 0 1-1.2-1.5c-.298.102-.498.303-.697.504-.2.097-.402.297-.504.395zm1.202-.9c.6-.2.6-.2.6-.297l-.6.298zm.6-.2c.401.504.801.904 1.203 1.402 1.2-.6 2.3-.697 2.997-.6-.8-.699-1.796-1.001-2.798-1.001-.502 0-.904.102-1.401.2zm4.2.802l.704.697a2.347 2.347 0 0 0-.704-.697zm.704.697c-.103 0-1.201-.097-2.803.802.502.502 1 1 1.499 1.401.4-.2.902-.102 1.201.297.2.304.302.602.103.904.395.298.594.499.794.601.304-1.402.103-2.803-.794-4.005zm.795 3.903c0 .102 0 0 0 0zm0 .2c0 .103 0 .103-.098.2 0-.097 0-.2.098-.2zm-.098.2c-.2-.097-.498-.298-.897-.601h-.103c-.401.303-1.001.2-1.3-.2-.2-.298-.303-.698-.102-1.002-.596-.4-1.098-.897-1.7-1.396l-1.2.899-.196.2c.196.4.196.899-.102 1.298.102.103.2.103.298.2.4.304.8.602 1.2.802.4-.297.905-.2 1.202.2.098.097.098.2.2.4 1.099.299 1.9.201 2.202.099.196-.3.395-.601.498-.9zm0-.097c0 .097 0 .097 0 0 0 .097 0 .097 0 0zm-.498.996s0 .102-.102.102c0 0 .102 0 .102-.102zM17.55 6.85s-.098 0 0 0c-.098 0 0 0 0 0z" fill="#0078d7"/></svg>