<svg xmlns="http://www.w3.org/2000/svg" viewBox="0 0 46.25 51.25" height="51.25" width="46.25"><g fill-rule="evenodd"><path d="M37.203 23.299H8.999c-1.202 0-2.3 1-2.3 2.5V36.5l3.901 1.1V27.2h24.898v10.301L39.4 36.4v-10.6c0-1.5-1.099-2.5-2.197-2.5z" fill="#7a7a7a"/><path d="M21.099 26.901H25v-10.4h-3.901v10.4z" fill="#7a7a7a"/><path d="M29.4.1H16.8C15.498.1 14.4 1.2 14.4 2.502v11.7c0 1.298 1.098 2.397 2.401 2.397h12.5c1.3 0 2.398-1.099 2.398-2.398V2.502C31.8 1.2 30.699.1 29.399.1zM14.902 33.498h-12.5C1.1 33.498 0 34.603 0 35.901v11.7c0 1.298 1.099 2.401 2.402 2.401h12.5c1.3 0 2.398-1.103 2.398-2.402V35.901c0-1.299-1.099-2.403-2.398-2.403zM43.799 33.498h-12.5c-1.299 0-2.398 1.105-2.398 2.403v11.7c0 1.298 1.099 2.401 2.398 2.401h12.5c1.299 0 2.402-1.103 2.402-2.402V35.901c.098-1.299-1-2.403-2.402-2.403z" fill="#59b4d9"/></g></svg>