<svg xmlns="http://www.w3.org/2000/svg" viewBox="0 0 47.5 41.25" height="41.25" width="47.5"><g fill="#0072c6" fill-rule="evenodd"><path d="M42.265 11.848c.025-.337.05-.674.05-1.026 0-5.448-4.487-9.887-9.986-9.887a9.995 9.995 0 0 0-8.115 4.126 7.547 7.547 0 0 0-4-1.137c-3.91 0-7.148 2.987-7.509 6.772.61-.073 1.221-.137 1.846-.137 2.89 0 5.664.937 7.94 2.602 1.699-3.925 6.024-6.44 10.824-6.586V3.22l5.85 5.015-5.85 4.985V9.934c-2.749.112-5.425 1.137-6.973 3.637l.313-.024c5.596 0 10.225 4.19 10.874 9.55 1.323 1.002 2.373 2.198 3.125 3.575 3.623-.976 6.226-4.1 6.226-7.924 0-3.077-1.665-5.528-4.615-6.9z"/><path d="M4.614 24.836a9.128 9.128 0 0 1-.054-1.025c0-5.45 4.487-9.873 9.991-9.873 3.262 0 6.259 1.562 8.11 4.11a7.529 7.529 0 0 1 4-1.122c4.149 0 7.538 3.35 7.538 7.475l-.009.602c2.813 1.42 4.321 3.773 4.321 6.733 0 4.639-3.775 8.266-8.598 8.266h-21.3C3.776 40.002 0 36.375 0 31.736c0-3.062 1.66-5.522 4.614-6.9z"/></g></svg>