<svg xmlns="http://www.w3.org/2000/svg" viewBox="0 0 47.5 51.25" height="51.25" width="47.5"><g fill="#0078d7"><path d="M27.003 11.899c0 2.265-1.793 4.101-4.006 4.101-2.206 0-3.999-1.836-3.999-4.101 0-2.261 1.793-4.098 4-4.098 2.212 0 4.004 1.837 4.004 4.098z"/><path d="M46.699 19.799V32.6c0 2.198-.898 4.298-2.7 5.899-1.7 1.499-3.901 2.402-6.299 2.402H31.7a1.584 1.584 0 0 1-1.601-1.6c0-.9.703-1.603 1.6-1.603H37.7c1.601 0 2.999-.498 4.101-1.499.996-.899 1.598-2.202 1.598-3.501v-12.9c0-3.199-2.198-5.801-5-5.801h-5a10.505 10.505 0 0 1-2.902 5.504c-1.995 1.995-4.696 3.197-7.597 3.197-2.9 0-5.6-1.099-7.603-3.198-.594-.601-.594-1.7 0-2.3.602-.6 1.706-.6 2.3 0A7.51 7.51 0 0 0 22.9 19.4a7.494 7.494 0 0 0 5.299-2.198c1.303-1.299 2.001-3.002 2.2-4.8v-.6c0-2.002-.799-3.901-2.2-5.303a7.493 7.493 0 0 0-10.601 0c-.595.6-1.7.6-2.3 0-.595-.596-.595-1.7 0-2.3C17.3 2.202 20 1 22.9 1c2.901 0 5.602 1.099 7.598 3.199 1.802 1.801 2.803 4.1 3.1 6.504h4.8c4.702.097 8.3 4.096 8.3 9.096zM27.7 39.199c0 2.265-1.791 4.1-3.999 4.1-2.212 0-3.998-1.835-3.998-4.1 0-2.262 1.786-4.098 3.998-4.098 2.208 0 4 1.836 4 4.098z"/><path d="M0 31.297V18.5c0-2.203.899-4.301 2.7-5.899A9.47 9.47 0 0 1 9 10.2H15c.899 0 1.601.703 1.601 1.602 0 .898-.702 1.601-1.601 1.601H8.999c-1.597 0-2.998.498-4.097 1.5-1 .898-1.6 2.197-1.6 3.5V31.2c0 3.199 2.196 5.801 5 5.801h5a10.56 10.56 0 0 1 2.9-5.504c1.997-1.996 4.697-3.197 7.597-3.197 2.9 0 5.6 1.099 7.602 3.197.602.602.602 1.706 0 2.3-.6.602-1.698.602-2.3 0A7.51 7.51 0 0 0 23.8 31.6a7.506 7.506 0 0 0-5.297 2.197c-1.3 1.304-2.003 3.004-2.203 4.8v.602c0 2.001.801 3.901 2.203 5.302a7.489 7.489 0 0 0 10.6 0c.6-.601 1.7-.601 2.3 0 .6.6.6 1.7 0 2.3C29.4 48.797 26.698 50 23.798 50c-2.9 0-5.6-1.1-7.598-3.198-1.801-1.802-2.802-4.102-3.1-6.5H8.198C3.7 40.301 0 36.297 0 31.297z"/></g></svg>