<svg xmlns="http://www.w3.org/2000/svg" viewBox="0 0 50 50" height="50" width="50"><path d="M29.6 23.549c0-2.5-2.002-4.498-4.502-4.498A4.477 4.477 0 0 0 20.6 23.55c0 2.5 1.998 4.5 4.498 4.5s4.502-2 4.502-4.5z" fill="#b8d432"/><path d="M43.1 15.648c.299-.997.401-1.997.401-3.095C43.502 5.848 38.2.35 31.7.35c-4.898 0-9.101 3.1-10.898 7.5-1.5-1.9-3.798-2.997-6.401-2.997-4.6 0-8.301 3.896-8.301 8.597 0 .802.102 1.603.302 2.398C2.701 17.25 0 20.55 0 24.95c0 5.6 4.4 9.8 9.902 9.8h14.2v-4.103c-1.802-.297-3.403-1.196-4.4-2.597L15.9 30.053l1.304 2.997L11.4 31.55 13.4 25.55l1.503 2.798L18.6 26.15a8.297 8.297 0 0 1-.499-2.803c0-.898.201-1.797.499-2.598l-3.896-2.3-1.504 2.701-1.9-6.001 5.904-1.001-1.402 2.5 3.902 2.3a7.283 7.283 0 0 1 4.598-2.7v-4.4h-2.803l3.8-4.599 4.003 4.599H26.3v4.4c1.9.302 3.5 1.304 4.6 2.7l3.9-2.3-1.498-2.598 5.898 1.202-1.9 5.898-1.498-2.602-3.901 2.299c.303.8.502 1.705.502 2.602 0 .899-.2 1.803-.502 2.599l3.901 2.299 1.699-2.9 1.801 6.2-6.304 1.402 1.603-2.9-3.901-2.3c-1.099 1.499-2.8 2.5-4.6 2.7v4.2H40.2c5.499 0 9.8-4.2 9.8-9.8 0-4.503-2.9-7.999-6.9-9.302z" fill="#59b4d9"/><path d="M23.502 41.752h2.997V34.75H23.5v7.002z" fill="#3999c6"/><path d="M28.998 44.75A3.997 3.997 0 0 1 25 48.749a3.997 3.997 0 0 1-3.998-3.999 4 4 0 0 1 3.998-4 4 4 0 0 1 3.998 4z" fill="#0072c6"/></svg>