<svg xmlns="http://www.w3.org/2000/svg" viewBox="0 0 38.75 27.5" height="27.5" width="38.75"><g fill="#0078d7"><path d="M27.997 13.848A2.4 2.4 0 0 1 30.2 11.45H36.1c1.303 0 2.403 1.099 2.403 2.398 0 1.303-1.1 2.402-2.403 2.402H30.2a2.404 2.404 0 0 1-2.203-2.402z"/><path d="M16.201 13.648c0-2.7 2.198-4.8 4.8-4.8 2.7 0 4.8 2.202 4.8 4.8 0 2.602-2.202 4.8-4.8 4.8-2.602.102-4.8-2.1-4.8-4.8zM2.3 16.25h5.8c.201 0 .401 0 .499-.103C9.799 21.95 14.902 26.25 21 26.25c3.399 0 6.401-1.299 8.702-3.5a2.437 2.437 0 0 0 .697-1.7c0-1.299-1.099-2.403-2.403-2.403-.4 0-.794.103-1.097.303-.299.299-.601.601-.899.801-1.4 1.1-3.101 1.798-5 1.798-4.4 0-8.004-3.599-8.004-8 0-4.398 3.604-7.996 8.004-7.996 2.198 0 4.2.897 5.6 2.3l.5.497c.399.297.896.498 1.498.498C29.902 8.848 31 7.75 31 6.45c0-.4-.102-.8-.302-1.098-.3-.303-.499-.6-.797-.903-2.304-2.198-5.4-3.599-8.9-3.599-6.3 0-11.5 4.6-12.5 10.6h-6.3A2.4 2.4 0 0 0 0 13.848c.098 1.303 1.099 2.3 2.3 2.402z"/></g></svg>