<svg xmlns="http://www.w3.org/2000/svg" viewBox="0 0 47.5 50" height="50" width="47.5"><path d="M26.801 11.099a3.999 3.999 0 0 1-4.004 3.999 3.998 3.998 0 1 1 0-7.998 4.001 4.001 0 0 1 4.004 3.999zM27.1 38.901a4 4 0 0 1-4 3.999 3.997 3.997 0 0 1-3.999-3.999 3.995 3.995 0 0 1 4-3.999c2.207 0 4 1.788 4 4z" fill="#7fba00"/><path d="M12.998 40.899h-1.9C5 40.899 0 35.899 0 29.799v-9.701C.098 14.3 5 9.3 11.001 8.998H14c1.001 0 1.802.802 1.802 1.803 0 1-.801 1.797-1.803 1.797h-2.9c-3.998.2-7.397 3.5-7.397 7.402v9.703A7.384 7.384 0 0 0 11.1 37.1h1.898c1.001 0 1.803.8 1.803 1.801 0 1.197-.802 1.998-1.803 1.998z" fill="#59b4d9"/><path d="M35.899 40.899h-3.897A1.794 1.794 0 0 1 30.2 39.1c0-1 .801-1.801 1.802-1.801H35.9a7.385 7.385 0 0 0 7.402-7.398V20.2a7.386 7.386 0 0 0-7.402-7.403h-2.902a1.788 1.788 0 0 1-1.796-1.795c0-1.002.801-1.803 1.796-1.803H35.9c6.103 0 11.103 5 11.103 11.098V30c0 6.002-5 10.899-11.103 10.899z" fill="#804998"/><path d="M22.598 22.203c-2.798 0-5.698-1.104-7.798-3.204-.699-.698-.699-1.899 0-2.598.697-.702 1.899-.702 2.602 0 2.895 2.9 7.598 2.9 10.395 0 2.902-2.9 2.902-7.602 0-10.4-1.396-1.4-3.295-2.202-5.2-2.202-1.997 0-3.798.801-5.195 2.203-.703.697-1.905.697-2.602 0-.699-.705-.699-1.9 0-2.603C16.9 1.2 19.703 0 22.598 0 25.6 0 28.3 1.201 30.4 3.199 34.703 7.5 34.703 14.6 30.4 18.9c-2.099 2.198-4.902 3.302-7.802 3.302z" fill="#68217a"/><path d="M22.997 50C20 50 17.3 48.799 15.2 46.801 10.9 42.5 10.9 35.4 15.2 31.1c2.1-2.1 4.898-3.2 7.798-3.2 3.004 0 5.703 1.202 7.803 3.2.698.702.698 1.898 0 2.602-.703.699-1.9.699-2.602 0-1.398-1.401-3.297-2.203-5.201-2.203-1.996 0-3.8.802-5.2 2.203-2.896 2.9-2.896 7.598 0 10.4 1.4 1.397 3.204 2.198 5.2 2.198 2.002 0 3.803-.801 5.2-2.198.703-.702 1.9-.702 2.603 0 .698.699.698 1.9 0 2.598-2.002 2.1-4.8 3.301-7.803 3.301z" fill="#0072c6"/></svg>