<svg xmlns="http://www.w3.org/2000/svg" viewBox="0 0 50 43.75" height="43.75" width="50"><path d="M43.34 14.724c.195-.908.287-1.778.287-2.642 0-6.626-5.395-12.016-12.03-12.016a11.991 11.991 0 0 0-10.81 6.738 8.66 8.66 0 0 0-6.115-2.524c-4.764 0-8.637 3.872-8.637 8.637 0 .645.069 1.3.215 1.968C2.329 16.482 0 19.797 0 23.83c0 5.434 4.444 9.691 10.112 9.691h.644c.113 4.972 4.185 8.976 9.166 8.976a9.137 9.137 0 0 0 7.998-4.678 6.65 6.65 0 0 0 4.36 1.626c3.419 0 6.25-2.589 6.651-5.924h.957C45.56 33.522 50 29.265 50 23.831c0-4.2-2.544-7.656-6.66-9.107" fill="#3e3e3e"/><path d="M39.439 19.26l.732-1.742-.21-.187-1.606-1.396.005-1.411 1.811-1.622-.714-1.752-.277.02-2.124.151-.991-1.006.136-2.426-1.744-.738-.185.215-1.396 1.607-1.411-.01-1.621-1.807-1.753.708.019.284.151 2.124-1.005.99-2.427-.137-.738 1.744.215.185 1.607 1.397-.01 1.411-1.807 1.62.71 1.754.281-.02 2.125-.151.99 1.006-.136 2.427 1.744.732.185-.21 1.396-1.611 1.412.015 1.62 1.81 1.753-.711-.018-.284-.152-2.124 1.005-.991 2.428.136zm-8.81-.503a3.868 3.868 0 0 1-2.064-5.068 3.875 3.875 0 0 1 5.073-2.066 3.87 3.87 0 0 1 2.06 5.073 3.862 3.862 0 0 1-5.068 2.061M28.36 28.015v-1.894l-.269-.088-2.026-.66-.538-1.303 1.04-2.202-1.337-1.333-.25.126-1.899.963-1.304-.543-.82-2.29h-1.89l-.087.269-.665 2.021-1.304.538-2.196-1.035-1.339 1.332.127.254.962 1.9-.536 1.304-2.29.815v1.895l.263.087 2.027.66.536 1.308-1.04 2.192 1.339 1.344.248-.133 1.904-.96 1.299.54.821 2.29h1.889l.089-.268.663-2.021 1.304-.542 2.198 1.04 1.337-1.333-.127-.254-.962-1.9.542-1.303 2.29-.816zm-8.316 2.959a3.87 3.87 0 0 1-3.868-3.872 3.87 3.87 0 0 1 3.873-3.872 3.877 3.877 0 0 1 3.872 3.877 3.878 3.878 0 0 1-3.877 3.867" fill="#fff"/><path d="M34.449 16.17a2.508 2.508 0 0 1-3.291 1.337 2.515 2.515 0 0 1 1.952-4.634 2.515 2.515 0 0 1 1.339 3.297M22.559 27.102a2.513 2.513 0 1 1-2.51-2.515 2.51 2.51 0 0 1 2.51 2.515" fill="#b8d432"/></svg>