<svg xmlns="http://www.w3.org/2000/svg" viewBox="0 0 50 50" height="50" width="50"><path d="M0 50h50V0H0v50z" fill="#009480"/><path d="M37.49 21.045c0-6.255-5.072-11.348-11.352-11.348A11.332 11.332 0 0 0 14.79 21.045c0 4.654 2.793 8.627 6.768 10.395-.372.63-1.28 1.49-2.188 2.051-1.742 1.114-3.814 1.694-5.718 2.534-.327.138-.815.348-.84.582-.14 1.07-.14 2.163-.21 3.232.235.069.352.136.47.136 5.39 1.001 10.278-.278 14.697-3.09 4.604-2.93 9.721-7.7 9.721-15.84z" fill="#fff"/><path d="M26.328 13.466c-4.14-.024-7.54 3.278-7.583 7.369-.049 4.19 3.281 7.607 7.418 7.631 4.165.02 7.582-3.33 7.582-7.464 0-4.117-3.325-7.49-7.417-7.536z" fill="#414141"/><path d="M24.859 25c-.558 0-.953-.118-1.207-.346-.258-.235-.396-.63-.396-1.168v-1.279c0-.557-.233-.86-.697-.86v-.697c.464 0 .697-.304.697-.904v-1.21c0-.538.143-.908.396-1.163.254-.26.674-.37 1.207-.37v.717c-.489 0-.719.278-.719.84v1.205c0 .655-.234 1.07-.674 1.237v.023c.44.138.674.533.674 1.207v1.21c0 .303.045.513.161.65.118.142.304.21.558.21V25zM27.628 24.301c.258 0 .443-.067.556-.21.117-.136.166-.346.166-.649v-1.21c0-.65.234-1.046.674-1.207V21c-.445-.166-.674-.581-.674-1.236V18.56c0-.563-.235-.84-.722-.84v-.717c.536 0 .95.11 1.21.37.253.255.396.65.396 1.162v1.23c0 .606.228.909.697.909v.699c-.469 0-.697.277-.697.859v1.28c0 .535-.143.907-.397 1.16-.258.236-.673.353-1.21.353V24.3z" fill="#fff"/></svg>