<svg xmlns="http://www.w3.org/2000/svg" viewBox="0 0 51.25 31.25" height="31.25" width="51.25"><path d="M49.526 15.102c-.904-2.105-2.802-4.003-5.2-5.102-1.103-3.799-4.301-7.5-8.901-7.5h-.499c-1.899-1.401-3.803-2.1-5.8-2.1-1.201 0-2.402.297-3.501.801-.899-.504-1.9-.703-2.997-.703-2.403 0-4.703 1.103-6.104 2.402-.401-.097-.899-.2-1.396-.2-3.604 0-7.1 2.9-8.102 6.499-3.1 1.104-5.302 3.1-6.401 5.801-1.001 2.602-.801 5.4.6 7.803 1.402 2.397 3.902 3.896 6.603 3.896.996 0 1.996-.2 2.997-.6 1.601 1.504 3.799 2.401 5.802 2.401.697 0 1.4-.103 1.996-.303C20.224 29.501 22.724 30 24.725 30c2.398 0 4.498-.601 5.801-1.7a7.138 7.138 0 0 0 2.895.601c2.603 0 5.2-1.401 6.706-3.3.794.296 1.698.498 2.5.498 2.797 0 5.4-1.798 6.596-4.698 1.104-2.1 1.104-4.302.302-6.298z" fill="#0078d7"/><path d="M16.225 28.5v-8.799c0-1.102-.897-2-2.001-2h-3.302v1.4h3.302c.302 0 .6.298.6.6V28.3c.401 0 .899.097 1.401.2zM22.324 13.398h-4.4c-.296 0-.6-.298-.6-.595V2.3c-.298.2-.498.4-.698.6-.2-.097-.504-.097-.704-.097V12.9c0 1.099.904 2.002 2.003 2.002h4.399c.303 0 .6.298.6.596v3.3h1.402v-3.3c-.102-1.197-1-2.1-2.002-2.1zM40.922 18.999V17.7h-1.396V19c0 .302-.302.6-.6.6h-5.6v-10a2.003 2.003 0 0 0-2.002-1.997h-3.8v1.396h3.8c.303 0 .6.303.6.6v19.2c.502.103.904.2 1.401.2v-7.9h5.601c1.099-.098 1.996-.995 1.996-2.1z" fill="#fff"/><path d="M23.525 24.501a3.117 3.117 0 0 1-3.1-3.1c0-1.7 1.401-3.101 3.1-3.101 1.7 0 3.102 1.401 3.102 3.101.097 1.7-1.3 3.1-3.102 3.1zm0-5c-1 0-1.801.802-1.801 1.798 0 1 .8 1.801 1.8 1.801 1.002 0 1.804-.8 1.804-1.801.097-.996-.802-1.798-1.803-1.798zM8.623 21.499a3.11 3.11 0 0 1-3.096-3.102 3.109 3.109 0 0 1 3.096-3.094 3.11 3.11 0 0 1 3.1 3.094 3.11 3.11 0 0 1-3.1 3.102zm0-5c-.996 0-1.797.8-1.797 1.8 0 1.002.801 1.804 1.797 1.804a1.795 1.795 0 0 0 1.802-1.803c.102-.898-.801-1.802-1.802-1.802zM40.225 18.5a3.118 3.118 0 0 1-3.102-3.1c0-1.699 1.402-3.1 3.102-3.1 1.699 0 3.1 1.401 3.1 3.1s-1.401 3.1-3.1 3.1zm0-4.901c-1.001 0-1.803.8-1.803 1.8 0 1.002.802 1.802 1.803 1.802 1 0 1.801-.8 1.801-1.801a1.794 1.794 0 0 0-1.8-1.801zM25.225 11.401A3.118 3.118 0 0 1 22.123 8.3c0-1.699 1.402-3.1 3.102-3.1 1.699 0 3.1 1.401 3.1 3.1.097 1.7-1.299 3.101-3.1 3.101zm0-5c-1.001 0-1.803.8-1.803 1.796 0 1.002.802 1.803 1.803 1.803 1 0 1.801-.801 1.801-1.803.097-.996-.702-1.796-1.8-1.796z" fill="#fff"/></svg>