<svg xmlns="http://www.w3.org/2000/svg" viewBox="0 0 50 50" height="50" width="50"><path d="M0 50h50V0H0v50z" fill="#009480"/><path d="M21.909 9.672h6.147v3.37l3.297 1.377 2.202-2.373 4.452 4.453-2.377 2.241 1.337 3.204h3.36v6.137h-3.365l-1.376 3.296 2.363 2.212-4.414 4.429-2.187-2.388-3.32 1.386v3.312h-6.114v-3.322l-3.266-1.361-2.227 2.373-4.497-4.488 2.436-2.139-1.396-3.34H9.667v-6.098h3.322l1.361-3.267-2.363-2.21 4.458-4.465 2.213 2.38 3.246-1.358V9.667l.005.005z" fill="#fff"/><path d="M37.705 25c0 7.016-5.689 12.705-12.705 12.705S12.295 32.016 12.295 25 17.984 12.295 25 12.295 37.705 17.984 37.705 25z" fill="#fff"/><path d="M25.098 17.026c-4.395 0-8.008 3.481-8.062 7.838-.059 4.35 3.482 8.076 7.886 8.11 4.404.039 8.052-3.53 8.062-7.94.01-4.414-3.527-7.978-7.886-8.008z" fill="#414142"/><path d="M29.741 23.872a.377.377 0 0 0-.092-.147.55.55 0 0 0-.162-.098.873.873 0 0 0-.273-.038h-3.13c.059-.2.127-.4.205-.595l.107-.26c.035-.093.08-.18.122-.263l.127-.245c.04-.072.083-.141.127-.205l.22-.297c.083-.118.151-.24.205-.367a2.85 2.85 0 0 0 .152-.458c.039-.196.059-.397.059-.596a.792.792 0 0 0-.044-.259.599.599 0 0 0-.269-.337.417.417 0 0 0-.205-.048.497.497 0 0 0-.205.044.657.657 0 0 0-.2.136 1.223 1.223 0 0 0-.206.239 2.032 2.032 0 0 0-.175.352 2.711 2.711 0 0 1-.351.659c-.148.2-.313.381-.494.551a5.654 5.654 0 0 1-.596.465c-.214.141-.434.283-.664.42a4.81 4.81 0 0 0-.796.556 2.791 2.791 0 0 0-.488.551c-.112.162-.2.343-.254.533-.03.118-.048.244-.059.366h-2.138v4.888h2.114v-.669a.257.257 0 0 0 .127.141c.118.064.244.118.372.151.18.05.366.09.55.118l.656.097.707.07.699.048h1.083c.176.02.357.01.528-.039.136-.048.264-.117.38-.2.112-.083.21-.171.304-.268.097-.118.195-.24.282-.367a.522.522 0 0 0 .108-.235c.005-.082.02-.17.043-.253a.84.84 0 0 0 .044-.274c.02-.103.049-.2.099-.293a.649.649 0 0 1 .136-.205l.18-.205c.07-.074.133-.156.186-.239a.806.806 0 0 0 .137-.299 1.5 1.5 0 0 0 0-.22v-.594a1.44 1.44 0 0 1 0-.206c.059-.073.122-.14.191-.2l.121-.224.128-.21.092-.161a.99.99 0 0 0 .098-.152c.03-.054.054-.107.079-.166.018-.059.038-.118.053-.18a1.264 1.264 0 0 0-.02-.313z" fill="#fff"/></svg>