<svg xmlns="http://www.w3.org/2000/svg" viewBox="0 0 50 50" height="50" width="50"><path d="M0 50h50V0H0v50z" fill="#009480"/><path d="M37.49 21.045c0-6.255-5.072-11.348-11.352-11.348A11.332 11.332 0 0 0 14.79 21.045c0 4.654 2.793 8.627 6.768 10.395-.372.63-1.28 1.49-2.188 2.051-1.742 1.114-3.814 1.694-5.718 2.534-.327.138-.815.348-.84.582-.14 1.07-.14 2.163-.21 3.232.235.069.352.136.47.136 5.39 1.001 10.278-.278 14.697-3.09 4.604-2.93 9.721-7.7 9.721-15.84z" fill="#fff"/><path d="M26.186 13.466c-4.14-.024-7.534 3.278-7.582 7.369-.044 4.19 3.28 7.607 7.42 7.631 4.161.02 7.58-3.33 7.58-7.464.024-4.117-3.325-7.49-7.418-7.536z" fill="#414141"/><path d="M21.069 21.558v-.674l3.98-2.98v1.236l-2.862 2.071v.024l2.862 1.856v1.235l-3.98-2.768zM27.163 24.301v-1.23l2.862-1.836v-.024l-2.862-2.07v-1.236l3.975 3.004v.649L27.163 24.3z" fill="#fff"/></svg>