<svg xmlns="http://www.w3.org/2000/svg" viewBox="0 0 50 31.25" height="31.25" width="50"><path d="M49.385 15.065c-.909-2.154-2.784-3.97-5.215-5.083-1.119-3.765-4.253-7.53-8.926-7.53-.152 0-.298 0-.454.01-1.949-1.401-3.843-2.08-5.772-2.08-1.157 0-2.348.26-3.54.762C24.6.685 23.588.44 22.505.44c-2.393 0-4.664 1.109-6.06 2.402a6.121 6.121 0 0 0-1.376-.156c-3.565 0-7.105 2.95-8.058 6.524-3.076 1.114-5.321 3.14-6.376 5.781-1.025 2.559-.801 5.42.615 7.846 1.406 2.413 3.868 3.853 6.583 3.853 1.04 0 2.04-.209 2.958-.62 1.65 1.5 3.769 2.397 5.781 2.397.703 0 1.372-.102 2.007-.307 1.631 1.339 4.126 1.841 6.147 1.841 2.393 0 4.468-.63 5.845-1.733.889.41 1.875.625 2.895.625h.005c2.564 0 5.21-1.363 6.657-3.262.81.328 1.66.498 2.513.498h.006c2.797 0 5.4-1.826 6.626-4.658.932-2.159.97-4.375.112-6.406z" fill="#009580"/><path d="M16.074 28.449V19.64a1.985 1.985 0 0 0-1.983-1.977h-3.3v1.396h3.3c.318 0 .581.263.581.581v8.569c.464.127.933.205 1.402.24zM22.159 13.385H17.73a.579.579 0 0 1-.581-.581V2.266a7.972 7.972 0 0 0-.704.576 6.364 6.364 0 0 0-.698-.12v10.082c0 1.094.89 1.982 1.983 1.982h4.429a.58.58 0 0 1 .58.582v3.28h1.401v-3.28a1.983 1.983 0 0 0-1.981-1.983zM40.806 18.985v-1.259h-1.402v1.259a.582.582 0 0 1-.58.581h-5.612V9.522a1.983 1.983 0 0 0-1.982-1.977h-3.817V8.94h3.817c.323 0 .581.264.581.581v19.175c.454.108.924.172 1.401.19v-7.92h5.612a1.987 1.987 0 0 0 1.982-1.982z" fill="#fff"/><path d="M23.442 24.44a3.123 3.123 0 0 1-3.12-3.12 3.122 3.122 0 0 1 3.12-3.12c1.72 0 3.12 1.401 3.12 3.12a3.126 3.126 0 0 1-3.12 3.12zm0-4.946a1.83 1.83 0 0 0-1.826 1.826 1.83 1.83 0 0 0 1.826 1.826 1.826 1.826 0 0 0 0-3.652zM8.525 21.471a3.126 3.126 0 0 1-3.12-3.12 3.12 3.12 0 1 1 3.12 3.12zm0-4.946a1.827 1.827 0 0 0 0 3.653 1.83 1.83 0 0 0 1.826-1.827 1.823 1.823 0 0 0-1.826-1.826zM40.118 18.493a3.12 3.12 0 1 1-.002-6.242 3.12 3.12 0 0 1 .002 6.242zm0-4.947a1.83 1.83 0 0 0-1.827 1.827 1.83 1.83 0 0 0 1.827 1.826 1.831 1.831 0 0 0 1.826-1.827 1.83 1.83 0 0 0-1.826-1.826zM25.151 11.349a3.12 3.12 0 1 1 0-6.24 3.12 3.12 0 0 1 3.115 3.12 3.114 3.114 0 0 1-3.115 3.12zm0-4.941a1.823 1.823 0 1 0 1.821 1.82 1.82 1.82 0 0 0-1.82-1.82z" fill="#fff"/></svg>