<svg xmlns="http://www.w3.org/2000/svg" viewBox="0 0 50 50" height="50" width="50"><path d="M0 50h50V0H0v50z" fill="#009480"/><path d="M31.514 15.63c-2.93-1.396-6.025-2.003-9.258-1.26-6.328 1.445-10.65 5.655-14.556 10.605 2.93 3.931 6.298 7.164 10.601 9.302 4.19 2.07 8.467 2.28 12.768.328 4.469-2.022 7.93-5.21 10.86-9.049.14-.185.258-.395.395-.605-2.954-3.906-6.371-7.207-10.81-9.321z" fill="#fff"/><path d="M25.069 17.651c-4.116-.023-7.51 3.277-7.56 7.374-.043 4.184 3.282 7.603 7.422 7.626 4.16.025 7.579-3.325 7.579-7.466 0-4.14-3.325-7.509-7.441-7.534zm-.997 11.163h-2.724v-2.72h2.724v2.72zm0-4.605h-2.724v-2.72h2.724v2.72zm4.6 4.605h-2.72v-2.72h2.72v2.72zm0-4.605h-2.72v-2.744h2.72v2.744z" fill="#414141"/></svg>