<svg xmlns="http://www.w3.org/2000/svg" viewBox="0 0 50 50" height="50" width="50"><path d="M0 50h50V0H0v50z" fill="#009480"/><path d="M31.465 15.581c-2.954-1.396-6.045-1.977-9.258-1.21C15.884 15.86 11.583 20.091 7.7 25.068c2.95 3.906 6.347 7.143 10.673 9.232 4.21 2.047 8.463 2.237 12.765.259 4.443-2.05 7.886-5.259 10.815-9.116.142-.185.254-.395.37-.605-2.973-3.886-6.414-7.163-10.858-9.258z" fill="#fff"/><path d="M25 17.651c-4.14 0-7.49 3.35-7.49 7.51 0 4.14 3.35 7.515 7.49 7.515 4.14 0 7.49-3.35 7.49-7.515 0-4.16-3.35-7.51-7.49-7.51zM25 30.7c-1.094 0-2.07-1.07-2.07-2.3 0-1.001.907-1.816 2.045-1.816 1.144 0 2.071.815 2.071 1.79C27.07 29.63 26.12 30.7 25 30.7z" fill="#414141"/><path d="M27.997 24.605a1.187 1.187 0 0 1-1.18-1.188 1.181 1.181 0 0 1 1.18-1.16 1.19 1.19 0 0 1 1.188 1.185c0 .65-.533 1.163-1.188 1.163zM22.046 24.605c-.65 0-1.186-.533-1.186-1.188a1.188 1.188 0 0 1 1.186-1.16 1.19 1.19 0 0 1 1.186 1.185 1.17 1.17 0 0 1-1.186 1.163z" fill="#fff"/></svg>