<svg xmlns="http://www.w3.org/2000/svg" viewBox="0 0 30 16.25" height="16.25" width="30"><path d="M30 12.388c0-1.412-1.123-2.628-2.539-2.628h-.371c.097-.561.282-1.133.282-1.787 0-3.75-3.095-6.748-6.747-6.748-2.91 0-5.44 1.972-6.378 4.59-.472-.087-.937-.279-1.499-.279-2.62 0-4.598 2.067-4.598 4.688 0 2.627 2.065 4.687 4.598 4.687h14.816C28.975 14.814 30 13.79 30 12.388zm-28.775-4.6C.561 7.788 0 8.348 0 8.998c0 .665.561 1.226 1.225 1.226h5.801c0-.849.2-1.684.572-2.436H1.225zM7.5 12.562H2.91c-.659 0-1.22.577-1.22 1.227 0 .649.561 1.211 1.22 1.211h6.378c-.753-.65-1.412-1.402-1.788-2.438zm6.099-8.06A7.489 7.489 0 0 1 15 2.538H4.961c-.65 0-1.211.561-1.211 1.211 0 .664.561 1.225 1.211 1.225H10.4c.752-.376 1.514-.561 2.964-.551-.337.077-.054.077.235.077z" fill="#0078d7" fill-rule="evenodd"/></svg>