<svg xmlns="http://www.w3.org/2000/svg" viewBox="0 0 41.25 32.5" height="32.5" width="41.25"><path d="M34.961 10.886v10.152l6.264-2.402v-5.522l-6.264-2.228zm-2.559 8.742l-.415-.167v-6.997l.415-.087.41-.162.498-.166v7.828l-.497-.162-.41-.088zm-1.49-.49l-.326-.087v-6.177l.992-.249v6.763l-.328-.088-.337-.161zm-1.225-.414l-.248-.088v-5.522l.737-.24v6.016l-.488-.166zm-.497-6.186v6.674l4.696 1.826V10.886l-4.696 1.652zM27.285.75v10.225L33.638 8.5V2.976L27.285.75zm0 20.288v10.21l6.353-2.46v-5.523l-6.353-2.227zm-2.47-11.553l-.415-.161V2.313l.415-.074.41-.165.498-.172V9.74l-.498-.165-.41-.09zm-1.475-.482l-.342-.09v-6.19l.99-.234v6.747l-.325-.073-.323-.16zM22.1 8.66l-.25-.073V3.065l.737-.255v6.016L22.1 8.66zm-.499-6.171v6.674l4.698 1.812V.837L21.6 2.49zm3.214 27.285l-.415-.162V22.6l.415-.087.41-.162.498-.166v7.842l-.498-.176-.41-.077zm-1.475-.5l-.342-.071V23.01l.99-.25v6.764l-.325-.089-.323-.161zm-1.24-.325l-.25-.09v-5.522l.737-.238v6.015l-.487-.165zm-.499-6.188v6.675l4.698 1.812V21.11l-4.698 1.65zM20.45 10.886v10.152l6.265-2.402v-5.522l-6.265-2.228zm-2.563 8.742l-.41-.167v-6.997l.41-.087.415-.162.498-.166v7.828l-.498-.162-.415-.088zm-1.475-.49l-.337-.087v-6.177l.986-.249v6.763l-.321-.088-.328-.161zm-1.235-.414l-.25-.088v-5.522l.738-.24v6.016l-.488-.166zm-.504-6.186v6.674l4.703 1.826V10.886l-4.703 1.652zM12.54.75v10.225L18.878 8.5V2.976L12.538.75zm0 20.288v10.21l6.339-2.46v-5.523l-6.34-2.227zM10.064 9.485l-.415-.161V2.313l.415-.074.41-.165.488-.172V9.74l-.488-.165-.41-.09zm-1.49-.482l-.322-.09v-6.19l.987-.234v6.747L8.9 9.163l-.327-.16zM7.339 8.66l-.25-.073V3.065l.748-.255v6.016L7.34 8.66zM6.836 2.49v6.674l4.702 1.812V.837L6.836 2.49zm3.228 27.285l-.415-.162V22.6l.415-.087.41-.162.488-.166v7.842l-.488-.176-.41-.077zm-1.49-.5l-.322-.071V23.01l.987-.25v6.764l-.338-.089-.327-.161zm-1.235-.325l-.25-.09v-5.522l.748-.238v6.015l-.498-.165zm-.503-6.188v6.675l4.702 1.812V21.11l-4.702 1.65zm-1.06-11.875v10.152l6.26-2.402v-5.522l-6.26-2.228zm-2.564 8.742l-.415-.167v-6.997l.415-.087.41-.162.504-.166v7.828l-.503-.162-.41-.087zm-1.473-.49l-.338-.087v-6.177l.987-.249v6.763L2.06 19.3l-.321-.161zm-1.241-.414l-.25-.088v-5.522l.738-.24v6.016l-.488-.166zM0 12.538v6.674l4.703 1.826V10.886L0 12.538z" fill="#0078d7" fill-rule="evenodd"/></svg>