<svg xmlns="http://www.w3.org/2000/svg" viewBox="0 0 100 80" height="80" width="100"><path d="M59.101 8.35l-2.9-5c-1.103-1.899-3.203-3.1-5.4-3.1h-44.6C2.797.25 0 3.047 0 6.451V9.65h60.2c-.497-.299-.8-.801-1.099-1.3z" fill="#3999c6"/><path d="M96.099 12.848H0V72.55c0 3.399 2.797 6.201 6.201 6.201H93.8c3.404 0 6.201-2.802 6.201-6.201V18.55c0-2.5-1.601-4.702-3.901-5.703zm-33.399 30L45 68.15c-.2.2-.4.401-.699.401-.102 0-.302 0-.4-.102-.4-.201-.6-.601-.4-.996l4.6-15.103H37.796c-.297 0-.594-.2-.794-.499-.103-.302-.103-.6.097-.902l17.201-25c.202-.201.402-.402.699-.402.098 0 .2 0 .4.103.401.2.602.602.401 1.001l-4.4 14.8h10.602c.497 0 .897.4.897.9 0 .199-.103.301-.2.497z" fill="#59b4d9"/></svg>