<svg xmlns="http://www.w3.org/2000/svg" viewBox="0 0 37.5 51.25" height="51.25" width="37.5"><path d="M0 7.099v36.113C0 46.962 8.394 50 18.745 50V7.099H0z" fill="#3999c6"/><path d="M18.486 50h.26c10.345 0 18.739-3.038 18.739-6.788V7.1H18.486V50z" fill="#59b4d9"/><path d="M37.485 7.099c0 3.75-8.394 6.787-18.74 6.787C8.394 13.886 0 10.85 0 7.1S8.394.312 18.745.312c10.346 0 18.74 3.037 18.74 6.787" fill="#fff"/><path d="M33.652 6.709c0 2.475-6.675 4.477-14.907 4.477-8.238 0-14.912-2.002-14.912-4.477 0-2.477 6.674-4.477 14.912-4.477 8.232 0 14.907 2 14.907 4.477" fill="#7fba00"/><path d="M30.533 9.447c1.947-.756 3.125-1.708 3.125-2.733 0-2.477-6.68-4.483-14.913-4.483-8.238 0-14.912 2.006-14.912 4.483 0 1.025 1.172 1.977 3.125 2.733 2.725-1.058 6.987-1.742 11.787-1.742 4.8 0 9.058.684 11.788 1.742" fill="#b8d432"/><path d="M10.274 25.078H8.569v9.75h1.723c1.514 0 2.687-.473 3.556-1.382.835-.907 1.254-2.118 1.254-3.651 0-1.442-.42-2.574-1.234-3.414-.855-.868-2.047-1.303-3.594-1.303" fill="#3999c6"/><path d="M27.485 27.939c.415-.361.625-.836.625-1.421 0-1.143-.835-1.71-2.519-1.71h-1.303v3.643h1.532c.704 0 1.27-.175 1.665-.512M28.051 31.553c-.453-.338-1.073-.528-1.875-.528h-1.893v4.047h1.875c.8 0 1.44-.184 1.913-.566.435-.381.664-.868.664-1.513 0-.605-.224-1.1-.684-1.44" fill="#59b4d9"/><path d="M17.085 20.873c.683.728 1.206 1.456 1.553 2.188.253.503.668 1.827 1.24 3.975l1.85-2.779a12.11 12.11 0 0 1 1.787-1.923c.704-.61 1.319-1.026 1.851-1.25.337-.142.708-.21 1.119-.21.6 0 1.079.161 1.435.483.361.322.537.718.537 1.177 0 .537-.102.899-.312 1.094a1.978 1.978 0 0 1-1.348.527c-.293 0-.611-.064-.947-.191-.66-.224-1.099-.332-1.324-.332-.336 0-.737.196-1.196.587-.869.727-1.909 2.138-3.115 4.227l1.729 7.233c.263 1.107.487 1.767.668 1.986.185.22.367.328.547.328.298 0 .64-.162 1.031-.484.771-.65 1.43-1.489 1.977-2.524l.737.376c-.884 1.655-2.002 3.028-3.364 4.121-.772.62-1.421.928-1.953.928-.786 0-1.41-.445-1.875-1.324-.293-.55-.903-2.905-1.826-7.064-2.187 3.798-3.941 6.244-5.259 7.333-.855.703-1.68 1.055-2.48 1.055-.562 0-1.075-.205-1.533-.611-.338-.308-.509-.723-.509-1.24 0-.464.156-.849.464-1.158a1.553 1.553 0 0 1 1.139-.464c.448 0 .922.226 1.424.674.367.323.65.484.846.484.166 0 .386-.113.65-.336.658-.533 1.557-1.68 2.69-3.448 1.137-1.767 1.88-3.042 2.23-3.829-.868-3.402-1.337-5.205-1.41-5.404-.323-.908-.743-1.553-1.26-1.934-.518-.376-1.284-.566-2.29-.566-.323 0-.698.014-1.118.043v-.756l5.615-.991z" fill="#fff"/></svg>