<svg xmlns="http://www.w3.org/2000/svg" viewBox="0 0 37.5 51.25" height="51.25" width="37.5"><path d="M0 7.099v36.113C0 46.962 8.394 50 18.745 50V7.099H0z" fill="#3999c6"/><path d="M18.486 50h.26c10.345 0 18.739-3.038 18.739-6.788V7.1H18.486V50z" fill="#59b4d9"/><path d="M37.485 7.099c0 3.75-8.394 6.787-18.74 6.787C8.394 13.886 0 10.85 0 7.1S8.394.312 18.745.312c10.346 0 18.74 3.037 18.74 6.787" fill="#fff"/><path d="M33.652 6.709c0 2.475-6.675 4.477-14.907 4.477-8.238 0-14.912-2.002-14.912-4.477 0-2.477 6.674-4.477 14.912-4.477 8.232 0 14.907 2 14.907 4.477" fill="#7fba00"/><path d="M30.533 9.447c1.947-.756 3.125-1.708 3.125-2.733 0-2.477-6.68-4.483-14.913-4.483-8.238 0-14.912 2.006-14.912 4.483 0 1.025 1.172 1.977 3.125 2.733 2.725-1.058 6.987-1.742 11.787-1.742 4.8 0 9.058.684 11.788 1.742" fill="#b8d432"/><path d="M30.86 36.381c-1.007.835-2.364 1.255-4.132 1.255H20.84V22.275h5.586c1.758 0 3.105.317 4.033.986.869.62 1.304 1.494 1.304 2.608 0 .894-.318 1.645-.962 2.314-.553.547-1.216.928-2.031 1.152v.035c1.094.136 1.986.551 2.656 1.255.62.664.943 1.478.943 2.421.003 1.407-.51 2.505-1.51 3.335m-14.355-.907c-1.475 1.445-3.466 2.162-5.948 2.162H5.118V22.275h5.438c5.455 0 8.184 2.48 8.184 7.48 0 2.388-.742 4.298-2.236 5.719" fill="#fff"/><path d="M10.274 25.078H8.569v9.75h1.723c1.514 0 2.687-.473 3.556-1.382.835-.907 1.254-2.118 1.254-3.651 0-1.442-.42-2.574-1.234-3.414-.855-.868-2.047-1.303-3.594-1.303" fill="#3999c6"/><path d="M27.485 27.939c.415-.361.625-.836.625-1.421 0-1.143-.835-1.71-2.519-1.71h-1.303v3.643h1.532c.704 0 1.27-.175 1.665-.512M28.051 31.553c-.453-.338-1.073-.528-1.875-.528h-1.893v4.047h1.875c.8 0 1.44-.184 1.913-.566.435-.381.664-.868.664-1.513 0-.605-.224-1.1-.684-1.44" fill="#59b4d9"/></svg>