<svg xmlns="http://www.w3.org/2000/svg" viewBox="0 0 50 51.25" height="51.25" width="50"><path d="M49.902 29.5V17.4l-13.7 11.899h-.303v-11.9L22.203 29.3V4.4c0-2.098-4.703-4.204-10.904-4.204S0 2.2 0 4.401v45.601h50L49.902 29.5zM11.3 6.399c-4.498 0-8.1-1.1-8.1-2.3 0-1.202 3.602-2.3 8.1-2.3 4.502 0 8.1 1 8.1 2.3-.098 1.2-3.7 2.3-8.1 2.3zM34.902 41.9H29.4V36.4h5.502V41.9zm-9.702 0h-5.497V36.4H25.2V41.9zm13.999 0V36.4h5.504V41.9h-5.504z" fill="#59b4d9"/><path d="M0 50.002h11.099V4.1H0v45.903z" fill="#3999c6"/><path d="M22.1 4.099c0 2.202-5 3.999-11.099 3.999S0 6.3 0 4.098C0 1.902 5 .1 11.099.1 17.203.1 22.1 1.8 22.1 4.1" fill="#fff"/><path d="M19.902 3.801c0 1.499-3.9 2.598-8.803 2.598-4.898 0-8.8-1.1-8.8-2.598C2.3 2.303 6.202 1.2 11.1 1.2c4.902 0 8.803 1.2 8.803 2.602" fill="#7fba00"/><path d="M17.997 5.398C19.2 5.003 19.8 4.4 19.8 3.8 19.8 2.303 15.899 1.2 11 1.2c-4.902 0-8.798 1.2-8.798 2.602.097.6.795 1.202 1.898 1.597C5.7 4.803 8.2 4.4 11.1 4.4c2.802 0 5.302.402 6.898.997" fill="#b8d432"/></svg>