<svg xmlns="http://www.w3.org/2000/svg" viewBox="0 0 38.75 50" height="50" width="38.75"><path d="M0 6.801v36.3c0 3.799 8.399 6.801 18.901 6.801v-43.1H0z" fill="#3999c6"/><path d="M18.599 50h.302c10.4 0 18.896-3.1 18.896-6.801V6.8H18.6V50z" fill="#59b4d9"/><path d="M37.797 6.801c0 3.8-8.397 6.798-18.896 6.798C8.4 13.599 0 10.6 0 6.8 0 3.101 8.501 0 18.901 0s18.896 3.1 18.896 6.801" fill="#fff"/><path d="M33.901 6.401c0 2.5-6.698 4.498-15 4.498-8.3 0-15-1.998-15-4.498s6.7-4.501 15-4.501c8.302 0 15 2.001 15 4.501" fill="#7fba00"/><path d="M30.801 9.199c1.996-.8 3.1-1.699 3.1-2.798 0-2.5-6.698-4.501-15-4.501-8.3 0-15 2.001-15 4.501 0 1.001 1.197 1.998 3.101 2.798C9.702 8.1 14 7.402 18.902 7.402c4.8 0 9.096.698 11.9 1.797" fill="#b8d432"/><path d="M13.502 41.801c-1.5 0-2.7-.2-3.502-.502-.899-.298-1.499-.801-1.9-1.397-.4-.703-.6-1.703-.6-3.002v-2.197c0-1.402-.6-2.203-1.801-2.203v-2.7c1.2 0 1.801-.699 1.801-2.202V25.6c0-1.401.2-2.5.6-3.1.401-.699 1.001-1.099 1.802-1.498.9-.303 1.998-.504 3.497-.504v2.7c-.699 0-1.1.103-1.5.4-.298.303-.498.802-.498 1.5V26.8c0 1.099-.102 1.998-.4 2.702a2.786 2.786 0 0 1-1.499 1.499c.698.297 1.197.8 1.5 1.596.297.703.497 1.703.497 2.802v1.5c0 .698.102 1.2.4 1.499.304.302.801.502 1.5.502v2.9h.102zM30.497 32.5c-1.196 0-1.796.699-1.796 2.203v1.996c0 1.401-.2 2.5-.6 3.1-.4.699-1 1.1-1.802 1.5-.9.302-1.998.502-3.502.502v-2.7c.704 0 1.201-.102 1.504-.4.3-.302.499-.801.499-1.498v-1.706c0-1.097.102-1.996.4-2.7A2.768 2.768 0 0 1 26.7 31.3c-.698-.298-1.202-.9-1.499-1.596-.298-.705-.497-1.706-.497-2.803v-1.5c0-.697-.103-1.201-.402-1.499-.302-.302-.8-.502-1.504-.502v-2.7c1.504 0 2.7.2 3.502.502.904.297 1.498.801 1.9 1.397.4.703.6 1.703.6 3.002v2.197c0 1.402.6 2.203 1.801 2.203v2.5h-.103z" fill="#fff"/></svg>