<svg xmlns="http://www.w3.org/2000/svg" viewBox="0 0 27.5 37.5" height="37.5" width="27.5"><path d="M13.502 1.15C6.002 1.15 0 3.65 0 6.35v24.6c0 2.7 6.099 5.298 13.502 5.298 7.5 0 13.5-2.398 13.5-5.195V6.447c0-2.7-6-5.297-13.5-5.297zM.296 31.95v-.304.304zM9.6 16.648c-.899 0-1.299-.298-1.299.703v1.899c0 1.402-.2 2.3-1.2 2.599v.102c1 .4 1.2 1.5 1.2 3.198v2.202c0 .699.098.699.298 1.002.2.297.502.297 1.001.297v1.9c-1.401 0-2.397-.299-2.999-.801-.6-.499-.902-1.499-.902-2.9V24.45c0-1.299-.499-1.299-1.3-1.299v-2.5c.898 0 1.3 0 1.3-1.103v-1.9c0-1.202.302-1.997.902-2.398.602-.503 1.598-.702 3-.702v2.098zm13.3 4.6v2.002c-.897 0-1.299 0-1.299 1.299v2.3c0 1.401-.302 2.401-.902 3.002-.601.498-1.598.801-3.101.801v-1.904c.4 0 .8-.098 1-.298.2-.298.303-.298.303-1.001V25.25c0-1.698.298-2.7 1.3-3.202v-.098c-1.002-.303-1.3-1.201-1.3-2.701v-1.801c0-1.002-.502-.699-1.303-.699v-2.099c1.4 0 2.402.298 3.002.698.601.503 1.001 1.298 1.001 2.402v1.9c0 1.099.402 1.001 1.299 1.001v.596zm-9.398-12.5c-5.303 0-9.6-1.3-9.6-2.895 0-1.603 4.297-2.902 9.6-2.902 5.297 0 9.598 1.299 9.598 2.902 0 1.596-4.301 2.895-9.598 2.895z" fill="#0078d7"/></svg>