<svg xmlns="http://www.w3.org/2000/svg" viewBox="0 0 30 30" height="30" width="30"><path d="M17.997 13.502c0 .297-.2.496-.497.496h-3.901c-.298 0-.499-.2-.499-.496V10.6c0-.303.201-.502.499-.502H17.5c.297 0 .497.2.497.502v2.902zM25 16.498c0 .303-.2.504-.497.504H20.6c-.303 0-.502-.2-.502-.503v-2.9c0-.298.2-.499.502-.499h3.903c.297 0 .497.201.497.499v2.9zM17.997 19.502c0 .298-.2.498-.497.498h-3.901c-.298 0-.499-.2-.499-.498v-2.9c0-.303.201-.503.499-.503H17.5c.297 0 .497.2.497.502v2.901zM11.001 10.497c0 .304-.2.504-.503.504h-4c-.297 0-.497-.2-.497-.504V7.5c0-.297.2-.498.498-.498h3.9c.402 0 .602.2.602.498v2.997z" fill="#b8d432"/><path d="M28.502 0H.497C.2 0 0 .2 0 .497v6.001c0 .303.2.504.498.504H3.5c.298 0 .498-.2.498-.504v-2.5H25v2.5c0 .303.2.504.6.504h2.901c.298 0 .497-.2.497-.504v-6c0-.298-.2-.498-.497-.498zM28.502 23.1H25.6c-.303 0-.502.201-.502.499V26h-21.1v-2.5c0-.302-.2-.503-.6-.503h-2.9c-.298 0-.498.2-.498.6v5.904C0 29.8.2 30 .498 30H28.5c.298 0 .497-.2.497-.498V23.6c0-.298-.2-.499-.497-.499z" fill="#0072c6"/><path d="M11.001 16.498c0 .303-.2.504-.503.504h-4c-.297 0-.497-.2-.497-.503v-2.997c0-.303.2-.505.498-.505h3.9c.402 0 .602.202.602.505v2.996zM11.001 22.5c0 .297-.2.498-.503.498h-4c-.297 0-.497-.2-.497-.498v-2.998c0-.303.2-.503.498-.503h3.9c.402 0 .602.2.602.503V22.5z" fill="#b8d432"/></svg>