<svg xmlns="http://www.w3.org/2000/svg" viewBox="0 0 51.25 33.75" height="33.75" width="51.25"><path d="M45.2 21c-.899 0-1.699.2-2.403.498L30.6 9.3a6.049 6.049 0 0 0 .499-2.401c0-3.199-2.598-5.699-5.7-5.699-3.1 0-5.696 2.597-5.696 5.699 0 .902.2 1.704.497 2.4L8.1 21.6a5.985 5.985 0 0 0-2.401-.498C2.5 21.102 0 23.7 0 26.8c0 3.101 2.598 5.699 5.699 5.699 2.5 0 4.501-1.597 5.302-3.702H39.8c.8 2.105 2.9 3.702 5.298 3.702a5.696 5.696 0 0 0 5.703-5.7c0-3.099-2.5-5.799-5.6-5.799zM5.6 28.603a1.901 1.901 0 1 1 0-3.804c1.001 0 1.9.801 1.9 1.898 0 1.104-.801 1.906-1.9 1.906zM25.4 5.1c1.001 0 1.9.801 1.9 1.9 0 1-.801 1.899-1.9 1.899-1 0-1.898-.8-1.898-1.899.097-1.099.898-1.9 1.898-1.9zM39.8 24.8H11c-.102-.2-.102-.298-.2-.4l12.196-12.3a5.976 5.976 0 0 0 4.8 0L40 24.299c-.098.1-.2.3-.2.5zm5.4 3.701a1.898 1.898 0 0 1-1.899-1.9c0-1 .8-1.899 1.9-1.899 1 0 1.9.8 1.9 1.9-.099 1.098-.9 1.899-1.9 1.899z" fill="#0078d7"/></svg>