<svg xmlns="http://www.w3.org/2000/svg" viewBox="0 0 50 32.5" height="32.5" width="50"><path d="M9.8 27.549H40.8V23.75H9.8v3.799z" fill="#68217a"/><path d="M6.119 22.402l14.99-14.99 2.69 2.687-14.99 14.99-2.69-2.687zM28.98 7.438l14.99 14.99-2.686 2.684-14.99-14.99 2.686-2.684z" fill="#68217a"/><path d="M25 .65c-3.1 0-5.6 2.5-5.6 5.6 0 3.101 2.5 5.601 5.6 5.601 3.1 0 5.6-2.5 5.6-5.601 0-3.1-2.5-5.6-5.6-5.6zm0 7.403a1.794 1.794 0 0 1-1.801-1.803c0-1 .8-1.801 1.801-1.801 1.002 0 1.801.801 1.801 1.801 0 1.002-.8 1.803-1.801 1.803zM5.6 20.05c-3.1 0-5.6 2.5-5.6 5.6 0 3.1 2.5 5.6 5.6 5.6 3.101 0 5.601-2.5 5.601-5.6 0-3.1-2.5-5.6-5.6-5.6zm0 7.401c-1 0-1.801-.8-1.801-1.801S4.6 23.849 5.6 23.849c1.001 0 1.802.8 1.802 1.8A1.794 1.794 0 0 1 5.6 27.452zM44.4 20.05a5.591 5.591 0 0 0-5.601 5.6c0 3.1 2.5 5.6 5.6 5.6 3.101 0 5.601-2.5 5.601-5.6 0-3.1-2.5-5.6-5.6-5.6zm0 7.401c-1.001 0-1.802-.8-1.802-1.801s.8-1.801 1.802-1.801c1 0 1.801.8 1.801 1.8a1.794 1.794 0 0 1-1.801 1.802z" fill="#7fba00"/></svg>