<svg xmlns="http://www.w3.org/2000/svg" viewBox="0 0 51.25 41.25" height="41.25" width="51.25"><path d="M17.203 9.735l-3.502.6-3.1 1.401-2.701 1.7-2.603 3.1-1.396 1.5-1.401.503-.4-.904.697-.899.103-1.299h.499l.4.402-.098-1.304-.502-.396v-.503l-1.197.699-1.2 1.303L.6 16.835l.499 1 .4 1.602.903.4H3.4l.902-.6-.6 3.1.6 3.4-.702 1.6-2.1 2.3.302 1.5 1.099 1.6 1.9 1.3 1.099.2h1.103L6.3 37.234 8.9 38.339l3.302.4 1.098-.802.098-1.898 1.304-2.1.097-1.704 2.997.303 2.803-.303-2.803 1.704.504 1.997L20 38.739l1.801.698 1.3-.498.6-1.202 2.9-2.202.602.504 4.496.2.899-.801.102-1.3-.298-.502-.2-3.501-1.503-2.997.2-1.402.902.503 2.599 2.397 1.2.103 1.402-.601 1.397-1 .702-2.3 4 .297 2.5-.996 1.997-1.802 1.4-2.7.402-3.198-.299-3.604-.8-3.3-.801-1.099-1.099-.298-1.899 2.1-1.705.6-1.498-2.5-1.5-1.4-.898-.499L35.7 3.636l-2.702-1.401-2.597-.2-3.1.503-2.7 1-1.803 1.5L21.3 6.835l-1.5.4-2.596 2.5z" fill="#fcd116" fill-rule="evenodd"/><path d="M3.701 16.536l.4.5.098-.597H3.9l-.2.097z" fill="#1e1e1e"/><path d="M49.703 12.635c-.2-1.499-.602-2.997-1.202-3.999-.102-.097-.2-.297-.302-.4-.3-.298-.699-.499-1.099-.698a1.48 1.48 0 0 0-1.299 0c-.102.097-.2.097-.304.2-.2.2-.4.498-.595.8-.2.298-.502.698-.703.9-.298.297-.698.4-1.099.6-.2-.4-.303-.802-.6-1.099-.297-.4-.498-.801-.899-1.202l-.8-.8-.899-.6c-.904-.6-1.6-1.202-2.402-1.9-.297-.298-.699-.6-1.002-.898-1.795-1.504-3.5-2.203-5.297-2.3-1.801-.103-3.701.4-6 1.299-1.1.497-1.9 1-2.603 1.6-.698.597-1.197 1.3-1.9 2.198-.4 0-.698.103-.995.2-.402.103-.704.402-1.201.801-.303.298-.602.6-.904.8l-.797.802c-2.098.297-3.7.699-5.2 1.298A15.07 15.07 0 0 0 7.3 12.835c-.601.504-1.099 1.001-1.499 1.602-.401.6-.801 1.098-1.098 1.7l-.904.898c-.298.302-.6.503-1.002.6-.2.102-.297.102-.297.102v-.102c.498-.497.6-1.196.6-1.899.099.103.099.2.201.303.098.097.098.2.2.297l.2-.2.298.103c.102-.503.2-1.002.102-1.601-.102-.303-.2-.602-.502-.802 0-.097.102-.097.102-.2.098-.2.2-.4.2-.699l-.2-.102.2.102.298-.2-.4.098c-.6.102-1.797.801-2.7 1.7a4.566 4.566 0 0 0-.802 1.103C0 16.136 0 16.536 0 16.938c.098.4.297.697.6 1.097.099.304.099.504.201.704.098.2.2.4.2.596.298.502.698.902 1.1 1 .399.102.799.102 1.2 0-.102.504-.102 1.001-.2 1.5 0 .703 0 1.504.098 2.401 0 .201 0 .402.102.601 0 .2.098.4.098.6-.098.2-.2.402-.2.602-.099.297-.201.697-.402.996l-.795.8-.903.904c-.499.497-.601.596-.499 1.396.099.503.299 1.001.499 1.601.2.499.6.899 1.001 1.402a10.598 10.598 0 0 0 2.5 1.597c.498.2 1.099.303 1.601.2 0 .103 0 .2-.102.2-.098.2-.2.4-.298.704-.6 1.396 0 2.098 1 2.5.499.2 1.099.4 1.598.497.102 0 .2.103.4.103.6.2 1.801.498 2.802.596 1.1.103 2.1-.2 2.397-1.196.103-.402.2-.704.2-1.002v-.898c.304-.703.505-.904.704-1.202 0-.102.098-.102.098-.2.2-.4.4-.6.4-.898v-1.202c.601.098 1.299.098 1.9.098H18.3c-.102 0-.2.103-.303.103 0 0-.098 0-.098.098-.897.4-.897 1.3-.6 2.099.2.801.697 1.602 1.099 2.002.702 1.002 1.304 1.9 2 2.3.802.498 1.701.498 2.902-.102.6-.299.8-.699 1-1.099.099-.097.202-.298.3-.4.199-.201.799-.699 1.498-1.201.2-.196.4-.299.702-.499.202.103.3.2.601.303.298.097.698.097 1.1.097h2.597c.702 0 1.303 0 1.698-.297.504-.303.705-.703.802-1.504v-.796c0-.2-.097-.4-.298-.703v-2.197c0-.4-.102-.802-.2-1.201-.103-.4-.201-.703-.4-1.099-.103-.303-.201-.503-.299-.801l-.2.098.2-.098c-.102-.4-.302-.8-.502-1.2v-.3l.4.397.6.6c.401.4.801.801 1.299 1.104.504.297 1.001.497 1.7.4.702 0 1.503-.303 2.201-.8.601-.504 1.099-1.104 1.403-1.803.097-.2.097-.4.2-.6 0-.2.097-.298.097-.499 1.001.2 2.203.2 3.198.098 1-.098 2.1-.4 2.9-.8 1.305-.699 2.202-1.7 2.9-2.9.802-1.3 1.202-2.896 1.402-4.498-.102-1.2-.2-3.002-.497-4.702zm-15 12.1c-.303 1.001-.802 2.7.594 3.002.504.098.802.098 1.504-.302-.6.103-.902.103-1.304 0-.4-.098-.595-.297-.697-.6.102.102.298.102.697.2 1.001.2 2.003-.2 2.203-.996.097-.401.097-.602.297-1.202.202.098.402.098.704.2-.102.4-.302.802-.4 1.3-.304 1.098-1.602 2.002-2.804 1.9-1.097 0-1.698-.7-2.5-1.3-.497-.4-.995-.898-1.499-1.3-1.298-.4-2.397-.902-3.598-1.8.899 1 1.5 1.6 2.7 2.099-.2 1.801-.8 3.1-1.299 4.8-.2.8-2.098 3.902-2.7 4.2-.4.199-2.7 2.202-3.202 2.5-.299.399-.602 1-1.1 1.303-1.498.796-2.5-.704-3.3-2.003-.4-.6-1.401-2.298-.498-2.797.8-.4 1.299-.801 2.198-1.304.102.2.302.503.502.704 0-.304-.102-.504-.102-.801a2.931 2.931 0 0 1 0-1.3c0-.4.102-.903.102-1.303-.102.502-.4.904-.502 1.401-.099.2-.099.303-.099.499-1.899.4-3.901.4-5.8.102-.097-.698-.298-1.5-.4-2.002v3.203c0 .698 0 1-.402 1.597-.297.6-.496.703-1 1.704 0 .596 0 .996-.098 1.596-.302 1.001-2.998.201-3.701 0-.898-.2-2.7-.6-2.3-1.796.4-1.002.699-2.1.898-3.604-1.596-2.3-3.094-5.497-3.397-8.399-.201-2.2-.099-3.598.4-4.901.8-2.1 1.801-4 3.501-5.499 2.3-2.001 4.4-2.797 7.798-3.3-.802.903-1.597 1.899-2.5 2.9-.899 1.002-1.396 2.1-1.998 3.203-.8 1.597-.8 2.197.299 3.496.897 1.201 1.401 1.7 1.699 2.9-.298.704-.4 1.201-.499 2.1 1.099 1.201 1.9 2.003 2.901 2.202 1.001.2 1.899.2 2.798-.302 2.002-.996 3.901-2.397 6.201-2.5 1.099-2.597 1.002-4.8.4-7.397a44.33 44.33 0 0 1-.6-5.103c-.4 1.801-.499 3.403-.2 5.2.4 2.203.697 4.6-.401 6.504-2.099.2-3.902 1.396-5.8 2.397-.801.4-1.5.4-2.398.2-.601-.097-1.099-.6-2.003-1.601 0-.996.2-1.396.602-2.3.697-1.396 1.499-2.7 2.403-4.096-1.001 1.299-2.003 2.397-2.804 3.599-.298-.9-.8-1.403-1.499-2.403-.698-.996-.8-1.397-.298-2.597.596-1.202.997-2.203 1.998-3.2 1.601-1.8 3.1-3.7 4.901-5.502.996-.899 1.398-.899 2.599-1.098 1.2-.2 2.299-.402 3.5-.699-1.201.2-2.3.297-3.397.297 1.097-1.401 1.698-2.2 3.495-2.997 4.404-1.904 7.202-2.1 10.6.796.904.8 1.7 1.504 2.603 2.104-.302 0-.6.097-1 .196.498-.099 1 0 1.498.102.102.098.303.2.401.298.6.4 1 .6 1.401 1.201.498.6.8 1.299 1.202 2.001-.2-.102-.402-.102-.602-.2-.103-.102-.302-.102-.4-.102-.302 0-.502 0-.801.2-.4.2-.898.401-1.299.401.2.103.602.103.801 0H40c-.098.103-.098.303-.2.503 0 .2 0 .497.102.698 0 .098.098.098.098.2-.2.098-.297.098-.497.2a9.384 9.384 0 0 1 2.397 0c.103.298.103.498.2.8h-.299c-.4-.302-.8-.302-1.401-.102-1.699.401-1.299 1.402-2.099 2.901.8-1.001.8-2.1 2.099-2.397.299-.103.499-.2.699-.103-.4.2-.7.503-.899.899-.4 1.103-.102 1.904-.6 2.9.498-.899.498-1.7 1-2.7.201-.299.801-.899 1.099-.899h.303c.098.6.098 1.201.098 1.601a38.914 38.914 0 0 1-.401 2.7c.504-.6.703-1.8.899-2.7.2-.902.2-2 0-3.002-.298-1.396 1.103-1.099 1.904-1.797.596-.503.995-1.202 1.5-1.7.496-.502 1.4.201 1.596.797.903 2.201 1.303 5.702 1.103 8.003-.302 2.5-1.498 5.297-3.701 6.498-2.797 1.602-6.201.602-8.999-.297-.601-.2-1.001-.503-1.499-.802.298.499.4 1.202.2 1.798zm-2.5 10.102c-.103 1.002-.402 1.099-1.402 1.099-.401 0-2.1 0-2.5-.097-.6-.103-.899-.103-1.098-.201.897-.703 2.5-3.5 2.797-4.502.297-1.001.699-1.9.899-2.9.102.4.2.8.4 1.202.302.697.4 1.097.502 1.898 0 .802 0 1.602.099 2.403.303.497.303.596.303 1.098zm-29.205-20.8c-.2.298-.298.6-.298.8-.298 1.099.097 2.1-.899 2.9.499.9.402 1.3 1.5.9.4-.201.8-.4 1.099-.7-.099.402-.299.802-.401 1.202 0 .097 0 .097-.098.196-.8.303-1.8.502-2.202-.299-.2-.4-.298-.8-.4-1.299-1.299-1.298.6-3.1 1.699-3.7zm.102 1.2c0-.102 0-.302.099-.4 0-.102 0-.102.102-.2.298.2.298.4.4.8-.2-.2-.4-.302-.6-.2zm1.001 11.7c.602 2.002 1.598 4.102 2.7 5.8-.102.298-.2.602-.302.802-.8 1.099-2.798-.504-3.399-1.104-.698-.699-1.098-1.499-1.2-2.198-.099-.502 0-.502.4-.902l1.499-1.5.302-.898zm38.102-16.5c0 .098.097.2.097.3l-.097.102c-.103-.103-.2-.304-.303-.402h.303z" fill="#1e1e1e"/><path d="M44.703 11.639c1.396-.503 2.098-1.601 2.397-3.003-.602 1.099-1.401 2.1-2.598 2.603-.6.297-1 .2-1.705.097.704.303 1.201.499 1.906.303zM36.699 13.035c-.4 0-.898.103-1.499.201 0-.2-.102-.298-.102-.499-.196-.4-.498-.702-.9-.8.304-.2.704-.4 1.002-.6-.8.4-1.699.302-2.403.698-.594.4-1.396 1.704-1.996 2.201.4-.2.8-.497 1.201-.8 0 .2.098.503.2.703.2.299.396.596.698.698-.2.298-.4.6-.498 1.002 1.1-1.304 2.696-2.403 4.297-2.804zM29.503 11.536c.297-1.201.697-2.3 2.5-3.1-2.403.6-2.804 1.602-2.5 3.1zM33.399 22.938c-.098.298-.098.8-.2 1.098.102-.4.302-.898.502-1.201.2-.4.297-.4.699-.6.303-.097.8-.4 1-.499-.302 0-.8.201-1.099.201-.702.098-.8.298-.902 1zM20.6 9.438c-.897.897-1.699 3.798-2.001 5 .4-1.002 1.499-3.702 2.3-4.4.2-.2.4-.303.6-.4-.6 1-.498 1.2-.298 2.5.2-1.3.6-1.9 1.397-2.902.8-.2 1.6-.497 2.5-.8-.997.103-1.9.2-2.895.303-.904.2-1.104.2-1.603.698z" fill="#1e1e1e"/><path d="M32.5 14.535c-.2-.299 0-.699.297-.899.303-.2.705 0 .904.303v.097c-.302.2-.6.5-.904.801-.097 0-.297-.102-.297-.302M39.902 11.639c0-.303.298-.503.498-.503.299 0 .499.303.499.503v.196c-.299 0-.5.102-.801.2-.098 0-.196-.2-.196-.396" fill="#fffacb" fill-rule="evenodd"/></svg>