<svg xmlns="http://www.w3.org/2000/svg" viewBox="0 0 60 45" height="45" width="60"><g fill="#0078d7"><path d="M37.402 35.824c-.297-.898-1.299-2.603-1.299-2.603s-.2 2.5-1.9 5c-1.698 2.5-2.802 2.902-2.802 2.902s-.097.8.802.902h4.7c.7 0 1.197-.6 1.197-1.304 0-.697-.595-1.498-.595-1.498s.195-2.5-.103-3.4zM3.901 30.024s-1.396 1.601-2.3 2.797c-.898 1.201-.297 2.003-.297 2.003s2.5 4.1 4.6 3.5c.697-.2 1.299-1.3 1.299-1.3s-.9-1.2-1.603-2.699c-.897-1.601-1.596-3.901-1.699-4.301z"/><path d="M59.404 12.123c-.303-7.9-2.5-10-3.1-10-.802.103-1.104 1.402-2.003 2.002-1.2.899-1.996.699-2.7 1.397-.697.703.704 2.5.504 7.202-.201 4.3-3.004 5.898-3.004 5.898s1.299-1.9 1.5-3.198c.2-1.002-.4-1.201-.796-1.5-.801-.703-2.403 1.1-2.802 1.5.697-.8 1.8-1.699 1.4-2.5-.8-1.299-2.5-.4-2.9-.303.4-.195 1.2-.498 1-1.299-.302-1.396-1.698-1.098-1.898-1 .595-.298.898-.596 2.5-.498.898 0 .698-.9.098-1.603-.9-1.098-1.5-1.498-2.198-1.699-.801-.297-2.402-.097-2.402-.097S43.7 5.72 44.3 5.824c-.8-1.098-3.397-5.103-7.9-5.303-8.198-.4-10.6 4.903-10.6 4.903l4.004-.2s-1.201.497-3.604.898c-1.9.303-1.797.303-2.397.4-.904.2-3.204 3.003-5.302 5.4-2.198 2.3-4.298 5.402-4.298 6.603 0 1.201 1.196 1.996 1.9 2.997.697 1.002.697 1.7.697 1.7l2.902-3.398-3.4 7.001s1.597 2.1 3.302 1.9c1.299-.2 4.199-2.5 5.995-2.803 1.905-.4 2.701-.098 2.701-.098s1.304-3.398.703-5.8c-1.104-4.303-.303-6.602.601-8-.704 5.7 1.196 6.1 1.098 9.801-.103 2.799-1 5.796-1 5.796s-2.7-.898-4.8.2c-2.1 1.104-3.901 2.603-5.9 2.603-2.1 0-4.902-3.599-4.902-3.599l1.5-2.201s-.201-.7-.796-1.403c-.904-1.097-2.403-2.7-2.5-3.998-.102-2.198 2.099-4.6 2.895-5.498.802-1.001 3.204-3.604 3.204-3.604S11.4 11.123 8.5 14.525c-3.496 4.2-3.999 5.401-5.298 5.596-1.3.2-1.802-1.196-1.802-1.196s1.001-.103.904-1.304c-.2-1.9.298-2.997.298-2.997s-2.1 1.298-2.5 2.602c-.4 1.397.497 1.699.497 1.699s0 2.397 1.402 2.9c1.402.601 2.5.097 2.5.097s-.898 4.4.303 7.603c1.196 3.199 3.599 6.7 3.599 6.7s-.201 2.398-.504 2.998c-.2.6-1.099 2.002.303 3.003 1.402.995 4.897 1.397 5.698.898.802-.503.602-1.899.704-2.403.098-.497 1.196-2.5 1.397-2.997.102-.6.102-3.599-.098-4.6.2.499 1.099 2.798 4.399 2.9 2.998.099 3.998-1.5 3.998-2.602 0 .503.202 2.7-.097 3.1-.303.4-1.201.704-2.099 1.202-.904.6-2.1 1.2-.102 3.598 2.2 2.803 2.602 3.003 4.5 1.5 1.9-1.5 3.897-2.896 5.298-4.698 1.402-1.802 3.902-8.398 3.902-8.398s-1.5-1-2.5-2.3c-.698-1.001-.898-1.602-.898-1.602s1.996 1.997 4.096 2.5c.802.899 2.1 2.197 3.204 2.598 4.096 1.7 5.4-3.398 5.4-3.398l-.2-.2s-1.104 2.602-2.901 2.402c-3.603-.4-2.5-7.804-2.5-7.804s3.598 5.201 10.899 5c4.4 0 9.502-5.297 9.1-14.799zm-25.4-.4s.297-3.4 1-3.902c.9-.595 3.297.2 3.297.2s-1.5 0-2.397.801c-.802.703-1.9 2.9-1.9 2.9zm5.898 3.003a22.726 22.726 0 0 0-2.1 1.997s.2-.498.4-.8c.202-.3.5-.802.5-.802s-.4-.097-.9-.596c-.297-.302-.4-.6-.497-.8 0 0-.2.097-.504.4-.297.2-.698.699-.698.699s1.002-1.9 2.398-2.902c1.504-1 3.003-1 3.003-1s-.2 0-.703.303c-.498.2-.498.298-.498.298s.498.2.898.6c.4.498.503 1.098.503 1.098s.097 0 .601-.2c.498-.2.996-.2.996-.2s-1.9.704-3.399 1.905zm15.103-8.902c-1.201.899-2.5 1.001-2.603.6-.2-.4.103-.4.103-.4s1.299-.502 1.997-1c.898-.699 1.7-2.3 2.002-1.9.2.4-.6 1.997-1.5 2.7z"/></g></svg>