<svg xmlns="http://www.w3.org/2000/svg" viewBox="0 0 50 30" height="30" width="50"><g fill="#009ee1"><path d="M45.405 20.563a.264.264 0 0 1 .41.176c.015.117.025.235.025.35 0 3.239-6.944 7.662-20.835 7.662-13.891 0-20.84-4.423-20.84-7.661 0-.116.01-.234.029-.346.03-.19.25-.289.406-.177 3.442 2.452 10.244 4.537 20.4 4.537 10.166 0 16.962-2.09 20.405-4.541z"/><path d="M25 18.854c-11.265 0-18.721-2.515-22.373-5.42-.127-.098-.317-.064-.39.079-.19.37-.284.756-.284 1.152 0 3.584 7.68 8.354 23.047 8.354 15.366 0 23.047-4.77 23.047-8.354 0-.396-.093-.781-.283-1.152-.074-.143-.264-.177-.392-.08-3.65 2.906-11.107 5.42-22.372 5.42z"/><path d="M25 .104c-16.665 0-25 2.9-25 7.03 0 4.132 8.335 9.634 25 9.634 16.67 0 25-5.502 25-9.633 0-4.13-8.335-7.031-25-7.031zm0 11.46c-11.806 0-17.71-3.013-17.71-5.078C7.29 4.42 13.194 3.23 25 3.23c11.806 0 17.71 1.19 17.71 3.257 0 2.065-5.904 5.078-17.71 5.078z"/></g></svg>