<svg xmlns="http://www.w3.org/2000/svg" viewBox="0 0 47.5 28.75" height="28.75" width="47.5"><path d="M42.564 19.84c-3.228 2.285-9.6 4.247-19.127 4.247-9.526 0-15.898-1.948-19.126-4.247-.15-.112-.346-.015-.376.16-.024.099-.024.21-.024.322 0 3.043 6.5 7.178 19.527 7.178 13.027 0 19.536-4.135 19.536-7.178 0-.112-.01-.223-.025-.322a.238.238 0 0 0-.385-.16zm-19.127-1.616c-10.56 0-17.548-2.349-20.976-5.074-.122-.097-.298-.064-.36.074a2.32 2.32 0 0 0-.275 1.079c0 3.358 7.212 7.836 21.611 7.836 14.4 0 21.612-4.478 21.612-7.836a2.32 2.32 0 0 0-.274-1.08c-.063-.137-.239-.17-.361-.073-3.428 2.725-10.416 5.074-20.977 5.074zm0-6.836c-11.064 0-16.6-2.828-16.6-4.752 0-1.939 5.536-3.06 16.6-3.06 11.065 0 16.602 1.121 16.602 3.06 0 1.924-5.537 4.752-16.602 4.752zm0-10.738C7.813.65 0 3.365 0 7.237c0 3.877 7.813 9.038 23.438 9.038s23.437-5.161 23.437-9.038c0-3.872-7.813-6.587-23.438-6.587z" fill="#0078d7" fill-rule="evenodd"/></svg>