<svg xmlns="http://www.w3.org/2000/svg" viewBox="0 0 32.5 33.75" height="33.75" width="32.5"><g fill="#006dd6"><path d="M16.498 5.503a3.101 3.101 0 0 1-6.201 0A3.103 3.103 0 0 1 13.4 2.4c1.713 0 3.1 1.388 3.1 3.102zM24.199 15.503a3.697 3.697 0 0 1-3.702 3.696 3.698 3.698 0 1 1 3.701-3.696zM29.6 26.499a2.901 2.901 0 1 1-5.802-.002 2.901 2.901 0 0 1 5.802.002zM17.7 24.501a2.501 2.501 0 1 1-5.002-.002 2.501 2.501 0 0 1 5.002.002zM7.598 16.899c0 1.382-1.118 2.5-2.5 2.5a2.502 2.502 0 0 1-2.5-2.5c0-1.381 1.123-2.5 2.5-2.5 1.382 0 2.5 1.119 2.5 2.5z"/><path d="M13.94 4.906l7.075 10.064-1.308.918-7.076-10.063 1.309-.919z"/><path d="M21.119 14.97l6.259 10.938-1.392.796-6.26-10.938 1.393-.796z"/><path d="M20.268 14.638l.132 1.597L5.15 17.5l-.131-1.592 15.248-1.27z"/><path d="M19.712 15.039l1.367.825-5.367 8.91-1.37-.824 5.37-8.911zM31.498.6h-8.1c-.298 0-.498.2-.498.6v2.901c0 .298.2.498.499.498h4.598V9.1c0 .298.202.498.602.498h2.9c.302 0 .504-.2.504-.498V1.098C32.003.8 31.8.6 31.499.6zM.498 32.5h8.1c.303 0 .503-.201.503-.601v-2.9c0-.299-.2-.499-.502-.499h-4.6v-4.501c0-.299-.2-.499-.6-.499H.498c-.298 0-.498.2-.498.499V32c0 .298.2.499.498.499z"/></g></svg>