<svg xmlns="http://www.w3.org/2000/svg" viewBox="0 0 45 50" height="50" width="45"><path d="M44.8 27.598c0-7.3-3.501-13.697-8.798-17.798v.697c0 2.203-.602 4.303-1.5 6.104 2.598 2.902 4.2 6.7 4.2 10.899 0 8.998-7.3 16.299-16.3 16.299C13.4 43.799 6.1 36.499 6.1 27.5c0-4.503 1.8-8.502 4.702-11.498-.801-1.7-1.299-3.6-1.299-5.602 0-.4 0-.898.098-1.299C3.8 13.101 0 19.902 0 27.5 0 40 10 50 22.402 50 34.8 50 44.8 40 44.8 27.598z" fill="#7fba00"/><path d="M22.7 0c-5.697 0-10.298 4.6-10.298 10.297 0 4.703 3.096 8.604 7.398 9.903v10.2H15v5.2h4.8v3.8h5.697V20.098C29.8 18.9 32.9 14.902 32.9 10.2 32.998 4.6 28.399 0 22.7 0zm0 5.4c2.7 0 4.898 2.198 4.898 4.897 0 2.7-2.198 4.903-4.898 4.903a4.913 4.913 0 0 1-4.903-4.903C17.797 7.597 20 5.4 22.7 5.4z" fill="#fcd116"/></svg>