<svg xmlns="http://www.w3.org/2000/svg" viewBox="0 0 37.5 37.5" height="37.5" width="37.5"><g fill="#0078d7"><path d="M2.9 13.447h33.199L27.7 4.752v4.8H3.701V5.546c0-1.596.4-1.997 1.998-1.997h24.598c1.603 0 3.404.401 3.404 1.997V6.95l2.998 2.5V5.45c0-3.198-3.197-5-6.3-5H5.7c-3.199 0-5 1.802-5 5v7.997h2.2zM33.1 15.45H0l8.701 6.9v-3.903h25v3.102c0 1.6-1.801 3.901-3.404 3.901H5.7C4.1 25.45 3.7 23.15 3.7 21.55v-1.397L.7 17.652v4c0 3.198 1.801 5.898 5 5.898h5.4L23.3 36.25l-.899-8.701H30.4c3.199 0 6.299-2.7 6.299-5.899v-6.104H33.1v-.097z"/></g></svg>