<svg xmlns="http://www.w3.org/2000/svg" viewBox="0 0 48.75 50" height="50" width="48.75"><path d="M4.902 24.55h3.2V21.35h-3.2v3.199zM4.902 29.35h3.2v-3.199h-3.2v3.2zM4.902 19.75H8.1v-2.901c-1.2.601-2.201 1.299-3.198 2.1v.801zM9.703 39.05H12.9v-3.202H9.703v3.202zM9.703 43.85H12.9v-3.203H9.703v3.203zM9.703 48.749H12.9v-3.2H9.703v3.2zM9.703 34.252H12.9v-3.203H9.703v3.202zM0 29.35h3.199v-3.199H0v3.2zM4.902 43.85h3.2v-3.203h-3.2v3.203zM0 39.05h3.199v-3.202H0v3.202zM0 34.252h3.199v-3.203H0v3.202zM4.902 46.249c.997.8 2.1 1.503 3.198 2.099v-2.9H4.902v.8zM.4 24.549H3.3V21.35H2.5C1.601 22.353.899 23.348.4 24.55zM4.902 39.05h3.2v-3.202h-3.2v3.202zM28.998 43.851h.802c.8-1 1.499-2.1 2.1-3.204h-2.902v3.204zM9.703 29.35H12.9v-3.199H9.703v3.2zM24.199 43.85H27.4v-3.203H24.2v3.203z" fill="#59b4d9" fill-rule="evenodd"/><path d="M31.498.35C22.203.35 14.6 7.947 14.6 17.25v16.899h16.898c9.303 0 16.9-7.598 16.9-16.899 0-9.303-7.597-16.9-16.9-16.9z" fill="#7fba00"/><path d="M22.598 24.55H25.8v-9.698h-3.202v9.698zM28.998 24.549h3.203v-6.5H29v6.5zM35.498 24.549H38.7v-12.9h-3.202v12.9z" fill="#68217a"/><path d="M24.199 48.348c1.2-.596 2.202-1.3 3.203-2.1v-.8H24.2v2.9zM28.998 39.05h3.203v-3.202H29v3.202zM24.199 39.05H27.4v-3.202H24.2v3.202zM14.502 43.85h3.2v-3.203h-3.2v3.203zM9.703 19.75H12.9v-3.301H9.703v3.301zM19.4 43.85h3.199v-3.203h-3.2v3.203zM19.4 48.749h3.199v-3.2h-3.2v3.2zM14.502 39.05h3.2v-3.202h-3.2v3.202z" fill="#59b4d9" fill-rule="evenodd"/></svg>