<svg xmlns="http://www.w3.org/2000/svg" viewBox="0 0 36.25 37.5" height="37.5" width="36.25"><g fill="#0078d7"><path d="M27.178 24.17c.2 0 .297-.098.4-.2a.76.76 0 0 0 .2-.497c0-.202-.102-.3-.2-.402-.2-.2-.6-.2-.898 0-.2.2-.2.601 0 .9.097.101.298.199.498.199zM22.359 27.393c-.2.2-.2.6 0 .903.097.098.297.195.395.195.2 0 .302-.097.4-.195.102-.102.201-.302.201-.4 0-.201-.099-.304-.201-.4-.098-.304-.498-.304-.795-.103z"/><path d="M32.797 31.25c-.2-.4-.594-.697-1.098-.697-.298 0-.6.097-.898.2-.401.097-13.1 4.8-14.4 5.297H16.3c-2.998-2.5-4.898-6.201-4.898-10.4 0-7.5 6.099-13.501 13.501-13.501 4.096 0 7.696 1.801 10.196 4.702V1.05H0v35.097h18.502c3.798-1.396 12.197-4.497 12.5-4.6.297-.097.497-.097.6-.097.097 0 .2 0 .298.2.102.299-.099.499-.402.801-.697.699-2.3 2.1-4.096 3.799h1.3c1.698-1.499 2.997-2.797 3.398-3.197.4-.202 1.099-.904.697-1.803z"/><path d="M22.539 25.732a.6.6 0 1 1-1.201.003.6.6 0 0 1 1.2-.003zM22.857 24.17c.2 0 .297-.098.4-.2a.76.76 0 0 0 .2-.497c0-.202-.102-.3-.2-.402-.2-.2-.6-.2-.898 0-.2.2-.2.601 0 .9a.74.74 0 0 0 .497.199zM25.566 22.7a.6.6 0 1 1-.595-.6.6.6 0 0 1 .595.6zM25.566 28.765a.599.599 0 1 1-1.196 0 .6.6 0 0 1 .601-.601.6.6 0 0 1 .595.601z"/><path d="M25.025 20.274a5.375 5.375 0 0 0-5.401 5.4 5.379 5.379 0 0 0 5.4 5.401c2.999 0 5.4-2.403 5.4-5.401 0-3.003-2.401-5.4-5.4-5.4zm0 9.897a4.481 4.481 0 0 1-4.502-4.497c0-2.5 2.002-4.502 4.502-4.502a4.48 4.48 0 0 1 4.497 4.502c0 2.5-2.1 4.497-4.497 4.497z"/><path d="M26.783 25.712c0 .992-.807 1.803-1.798 1.803a1.804 1.804 0 0 1-1.801-1.803 1.8 1.8 0 1 1 3.599 0zM28.599 25.732a.6.6 0 1 1-1.202.002.6.6 0 0 1 1.202-.002zM26.675 27.393c-.2.2-.2.6 0 .903.102.098.302.195.4.195.2 0 .303-.097.4-.195.103-.102.201-.302.201-.4 0-.201-.098-.304-.2-.4-.098-.304-.498-.304-.801-.103z"/></g></svg>