<svg xmlns="http://www.w3.org/2000/svg" viewBox="0 0 50 50" height="50" width="50"><path d="M37.797 13.1l-3.294-3.3-10.704 10.8 10.704 10.801 3.294-3.1-7.3-7.402 7.3-7.799zM12.203 22.203l7.3 7.3-7.3 7.397 3.295 3.3L26.2 29.4 15.497 18.599l-3.294 3.604z" fill="#b8d432"/><path d="M25 0C11.099 0 0 11.401 0 25c0 13.901 11.401 25 25 25s25-11.401 25-25S38.901 0 25 0zm0 3.301c12.002 0 21.699 9.696 21.699 21.699 0 12.002-9.8 21.699-21.699 21.699-11.9 0-21.699-9.8-21.699-21.699C3.301 13.1 12.998 3.301 25 3.301z" fill="#59b4d9"/></svg>