<svg xmlns="http://www.w3.org/2000/svg" viewBox="0 0 36.25 46.25" height="46.25" width="36.25"><path d="M35.005 18.9h-2.403v-3.002c0-4.097-1.498-7.895-3.9-10.595-2.5-2.804-6.9-4.503-10.7-4.503-3.798 0-8.3 1.801-10.697 4.503-2.5 2.7-4.004 6.498-4.004 10.595V18.9H.904c-1.002 0-.9.801-.9 1.9v22.3C.005 44.101.802 45 1.802 45h32.3c1.001 0 1.803-.8 1.803-1.899V20.703c-.103-1.002 0-1.803-.9-1.803zM21.6 35.303c.504-.304 1.002-.504 1.602-.504a2.69 2.69 0 0 1 2.7 2.7c0 1.5-1.2 2.701-2.7 2.701a2.69 2.69 0 0 1-2.7-2.701v-.2L13.502 33.7c-.5.499-1.1.699-1.9.699a2.687 2.687 0 0 1-2.7-2.7 2.69 2.69 0 0 1 2.7-2.7c.703 0 1.4.302 1.802.702l6.996-3.603V26a2.69 2.69 0 0 1 2.7-2.7 2.688 2.688 0 0 1 2.701 2.7c0 1.499-1.196 2.7-2.7 2.7-.596 0-1.197-.2-1.7-.6L14.404 31.7l7.197 3.604zM26.104 18.9H9.605v-3.597c0-2.403.795-3.903 2.196-5.402 1.402-1.504 4.103-2.3 6.099-2.3 2.002 0 4.605.796 6.001 2.3 1.304 1.499 2.203 3.599 2.203 5.996V18.9z" fill="#0078d7" fill-rule="evenodd"/></svg>