<svg xmlns="http://www.w3.org/2000/svg" viewBox="0 0 50 50" height="50" width="50"><g fill="#59b4d9"><path d="M30.899 46.699l-1.9-3.1 1.802-3.2h5.2c-1.099-1.898-3.204-3.196-5.503-3.196a6.466 6.466 0 0 0-5.596 3.197H11.1a6.469 6.469 0 0 0-5.601-3.197C3.1 37.203 1.098 38.5 0 40.4h5.098l1.904 3.199L5.2 46.8H0C1.099 48.701 3.199 50 5.498 50c2.5 0 4.6-1.401 5.703-3.501h13.502C25.8 48.599 27.9 50 30.4 50c2.397 0 4.4-1.299 5.499-3.199l-5-.102zM29.703 18.399c-1.304 0-2.403.8-2.902 1.898H8.2C5.098 20.297 2.5 17.7 2.5 14.6c0-3.102 2.598-5.699 5.699-5.699h2.7C11 8.2 11.2 7.598 11.4 7.002c.098-.2.2-.4.298-.703C12.998 3.999 15.498 2.5 18.3 2.5c2.5 0 4.697 1.201 6.099 3.1.8-.4 1.602-.6 2.5-.8C25.2 1.9 22.003 0 18.399 0c-4.298 0-7.901 2.598-9.4 6.401h-.8A8.172 8.172 0 0 0 0 14.601c0 4.5 3.701 8.196 8.199 8.196H26.8c.499 1.104 1.598 1.906 2.902 1.906 1.698 0 3.197-1.402 3.197-3.205 0-1.795-1.402-3.1-3.197-3.1z"/><path d="M40 12.1c-1.9-3.799-5.699-6.299-10.2-6.299-5.4 0-10 3.8-11.099 8.902C16.1 15 13.8 16.4 12.3 18.399h13.599c.902-1.196 2.402-1.9 3.9-1.9 2.799 0 5.103 2.3 5.103 5.102 0 2.799-2.304 5.098-5.102 5.098-1.601 0-2.999-.698-3.901-1.9h-15.2c.6 4.302 4.301 7.603 8.804 7.603H39.8c5.6 0 10.102-4.502 10.102-10.102C50 16.6 45.498 12.1 40 12.1zM50 44.4v-1.402l-.2-.098-1.499-.498-.401-1 .801-1.7-1-1-.201.097-1.498.801L45 39.2l-.6-1.699h-1.402l-.098.2-.498 1.499-1 .401-1.7-.801-1 1 .097.201.704 1.401-.402 1.001-1.699.596V44.4l.196.102L39.1 45l.402 1.001-.802 1.7 1.002 1 .2-.102 1.396-.7 1 .402.6 1.699h1.402l.099-.2.502-1.499.997-.401 1.699.801 1-1-.096-.201-.602-1.499L48.3 45 50 44.4zm-6.201 1.299A2.004 2.004 0 0 1 41.8 43.7c0-1.103.9-2.002 1.998-2.002 1.103 0 2.002.899 2.002 2.002C45.7 44.8 44.8 45.7 43.8 45.7"/></g></svg>