<svg xmlns="http://www.w3.org/2000/svg" viewBox="0 0 50 50" height="50" width="50"><path d="M.801 0C.297 0 0 .297 0 .801v10c0 .498.297.8.801.8h5c.498 0 .8-.302.8-.8V6.7h36.7v4.2c0 .502.298.8 1 .8h4.8c.5 0 .801-.298.801-.8v-10C50 .297 49.702 0 49.2 0H.8zM49.199 50c.504 0 .801-.297.801-.801v-9.8c0-.498-.297-.8-.801-.8h-4.8c-.498 0-.8.302-.8.8v4h-36.9v-4.2c0-.498-.298-.8-1-.8H.8c-.504 0-.801.302-.801 1v9.8c0 .504.297.801.801.801H49.2zM23.989 17.329l2.12-1.323L36.553 32.71l-2.124 1.328-10.44-16.71z" fill="#0072c6"/><path d="M13.799 32.695l10.44-16.704 2.118 1.324-10.44 16.709-2.118-1.33z" fill="#0072c6"/><path d="M30.4 16.699A5.4 5.4 0 0 1 25 22.1a5.4 5.4 0 0 1-5.4-5.401c0-2.983 2.416-5.4 5.4-5.4 2.984 0 5.4 2.417 5.4 5.4z" fill="#b8d432"/><path d="M20 33.301a5.4 5.4 0 0 1-5.4 5.4 5.4 5.4 0 1 1 0-10.801A5.4 5.4 0 0 1 20 33.3zM40.801 33.301a5.4 5.4 0 0 1-5.401 5.4 5.4 5.4 0 0 1-5.4-5.4 5.4 5.4 0 1 1 10.801 0z" fill="#59b4d9"/></svg>