<svg xmlns="http://www.w3.org/2000/svg" viewBox="0 0 50 50" height="50" width="50"><path d="M.835 0C.333 0 0 .333 0 .835v10c0 .497.333.83.835.83h5c.498 0 .83-.332.83-.83v-4.17h36.67v4.17c0 .497.332.83.996.83h4.834c.502 0 .835-.332.835-.83v-10C50 .333 49.667 0 49.165 0H.835zM49.165 50c.502 0 .835-.333.835-.835v-9.829c0-.503-.333-.835-.835-.835h-4.829c-.504 0-.835.332-.835.835v3.999H6.666v-4.17c0-.498-.332-.83-.996-.83H.835c-.502 0-.835.332-.835 1.001v9.829c0 .502.333.835.835.835h48.33z" fill="#0072c6"/><path d="M12.324 25.712a4.415 4.415 0 0 1-3.15 1.3 4.418 4.418 0 0 1-3.144-1.3L0 19.682V31.94h18.355V19.683l-6.031 6.03z" fill="#59b4d9"/><path d="M9.175 26.119c.952 0 1.845-.371 2.515-1.041l6.665-6.665v-.352H0v.357l6.665 6.66a3.508 3.508 0 0 0 2.51 1.04zM43.97 25.712a4.418 4.418 0 0 1-3.145 1.3 4.415 4.415 0 0 1-3.149-1.3l-6.031-6.03V31.94H50V19.683l-6.03 6.03z" fill="#59b4d9"/><path d="M40.825 26.119c.947 0 1.841-.371 2.51-1.041L50 18.413v-.352H31.645v.357l6.665 6.66a3.513 3.513 0 0 0 2.515 1.04z" fill="#59b4d9"/><path d="M25.815 26.21h3.082v-2.431h-3.082v2.431zM21.04 26.21h3.261v-2.431H21.04v2.431z" fill="#b8d432"/></svg>