<svg xmlns="http://www.w3.org/2000/svg" viewBox="0 0 47.5 48.75" height="48.75" width="47.5"><path d="M33.877 14.926a2.66 2.66 0 0 1-1.85.763 2.62 2.62 0 0 1-1.85-.763l-3.55-3.548v4.173l-1.45-1.44-2.013 2.003 1.499 1.484 1.963-1.948v2.939h10.8v-7.211l-3.549 3.548zm0 18.487a2.638 2.638 0 0 1-1.85.762 2.6 2.6 0 0 1-1.85-.762l-3.55-3.55v1.987l-1.964-1.962-1.5 1.498 2.013 2.003 1.45-1.45v5.136h10.8v-7.211l-3.549 3.549zm-1.85-18.252c.547 0 1.073-.225 1.474-.61l3.925-3.926v-.2h-10.8v.2l3.925 3.926c.386.385.914.61 1.475.61zm0 18.491c.547 0 1.073-.214 1.474-.614l3.925-3.927v-.2h-10.8v.2l3.925 3.927c.386.4.914.614 1.475.614zm-9.766-3.188l1.504-1.489-2.026-2.026-1.5 1.489 2.022 2.026zm-.537-9.913l2.026-2.026-1.498-1.499-2.027 2.021 1.499 1.504zm-2.398 6.988l1.484-1.504-2.011-2.021-1.5 1.499 2.027 2.026zm-.527-4.063l2.011-2.026-1.484-1.489-2.026 2.012 1.499 1.503zM.776.625C.312.625 0 .938 0 1.401v9.375c0 .474.313.787.776.787h4.688c.473 0 .786-.313.786-.787V6.875h34.375v3.911c0 .464.313.777.938.777h4.526c.474 0 .786-.313.786-.777V1.411c0-.473-.313-.786-.776-.786H.776zM8.6 24.8c.903 0 1.729-.351 2.363-.976l6.25-6.25v-.338H0v.338l6.25 6.25a3.314 3.314 0 0 0 2.349.976zm2.948-.386A4.15 4.15 0 0 1 8.6 25.64a4.148 4.148 0 0 1-2.95-1.226L0 18.765V30.25h17.212V18.765l-5.665 5.649zM46.1 47.5c.464 0 .776-.312.776-.776V37.5c0-.464-.313-.776-.776-.776h-4.536c-.464 0-.777.312-.777.776v3.75H6.25v-3.901c0-.474-.313-.786-.938-.786H.777c-.464 0-.776.312-.776.937v9.224c0 .464.313.776.776.776H46.1z" fill="#0072c6" fill-rule="evenodd"/></svg>