<svg xmlns="http://www.w3.org/2000/svg" viewBox="0 0 50 50" height="50" width="50"><path d="M.835 0C.333 0 0 .333 0 .835v10c0 .497.333.83.835.83h5c.498 0 .83-.332.83-.83v-4.17h36.67v4.17c0 .497.332.83.996.83h4.834c.502 0 .835-.332.835-.83v-10C50 .333 49.667 0 49.165 0H.835zM49.165 50c.502 0 .835-.333.835-.835v-9.829c0-.503-.333-.835-.835-.835h-4.829c-.504 0-.835.332-.835.835v3.999H6.666v-4.17c0-.498-.332-.83-.996-.83H.835c-.502 0-.835.332-.835 1.001v9.829c0 .502.333.835.835.835h48.33z" fill="#0072c6"/><path d="M29.859 26.099A6.841 6.841 0 0 1 25 28.109a6.821 6.821 0 0 1-4.859-2.01l-9.306-9.311v18.924h28.33V16.788l-9.306 9.31z" fill="#59b4d9"/><path d="M25 26.729c1.465 0 2.841-.571 3.881-1.606l10.284-10.289v-.542h-28.33v.542l10.284 10.288A5.466 5.466 0 0 0 25 26.729z" fill="#59b4d9"/></svg>