<svg xmlns="http://www.w3.org/2000/svg" viewBox="0 0 96.25 67.5" height="67.5" width="96.25"><path d="M89.439 45.776s8.1-9.74 1.909-19.862c-7.462-12.226-20.283-5.49-20.283-5.49S68.35-5.125 38.824 1.036C31.25 2.628 26.426 6.3 23.389 10.611c4.487.24 8.647.976 11.962 2.178 4.298 1.562 6.45 3.437 7.1 5.088v15.922h12.861v-9.414l2.628 2.041 15.595 12.085 1.641 1.265-1.611 1.313-15.601 12.486-2.651 2.139V45.81H42.45v13.028c0 .858-.239 1.86-1.016 2.9H83.95s10.425-.152 11.499-6.801c1.377-8.424-6.01-9.162-6.01-9.162zM34.101 14.072c-.312-.097-.639-.195-.976-.297-.151-.039-.288-.088-.425-.128l.225.08c-3.452-.977-7.774-1.553-12.476-1.563C9.263 12.164.087 15.424 0 19.487v39.327c0 4.047 8.975 7.349 20.2 7.387v.049h.049c.039 0 .161-.049.161-.049v.049h.039c11.25 0 20.376-3.349 20.376-7.411V44.19H56.94v8.125l15.6-12.539-15.6-12.09v7.724H40.825V19.487c-.039-1.61-1.499-3.1-3.965-4.31-.81-.4-1.733-.762-2.759-1.105zM4.248 19.127c0-2.7 7.266-4.888 16.2-4.888 8.942.025 16.202 2.212 16.202 4.887 0 .113-.014.235-.039.361-.287 1.187-1.962 2.227-4.526 3.038-.025 0-.049.024-.059.024a12.6 12.6 0 0 0-.448.127c-.04.01-.09.01-.103.034l-.44.127c-.049.016-.097.016-.161.04l-.4.097c-.064.024-.123.024-.186.048-.127.016-.263.054-.416.08a.665.665 0 0 1-.223.033c-.113.03-.259.064-.386.088-.073.014-.162.04-.24.04-.122.023-.258.038-.385.063-.103.024-.185.04-.288.04-.127.023-.25.048-.386.058-.103.023-.2.038-.313.038l-.366.064c-.097.024-.225.024-.323.05-.126.013-.248.038-.36.038-.127.01-.224.01-.352.033-.127.03-.248.03-.376.04-.113.024-.234.024-.361.05-.127.013-.25.013-.362.038-.126.024-.278.024-.39.039-.122 0-.25.025-.37.025-.143 0-.264.009-.402.009-.127 0-.254.03-.375.03-.138 0-.289.023-.425.023-.128 0-.225.01-.352.01-.16 0-.298.025-.464.025-.112 0-.21 0-.337.024-.176 0-.337 0-.522.015h-2.7c-.138 0-.264 0-.401-.015-.127 0-.263 0-.386-.024-.15 0-.263-.025-.415-.025-.127 0-.248-.01-.36-.01-.152 0-.28-.024-.416-.024-.122 0-.249-.03-.36-.03-.152 0-.275-.008-.411-.033-.127 0-.225-.015-.353-.015-.136-.024-.263-.024-.384-.049-.128-.014-.23-.014-.353-.039-.111-.024-.239-.024-.361-.033h-.024c-.103-.03-.2-.03-.327-.055-.103-.01-.225-.01-.328-.034h-.073c-.112-.014-.21-.014-.312-.04-.097-.023-.186-.023-.289-.038-.038 0-.072-.025-.111-.025-.089-.024-.186-.024-.273-.039-.08-.023-.162-.023-.24-.033-.063 0-.122-.025-.162-.025-.087-.024-.16-.024-.249-.039-.063-.024-.136-.024-.2-.049-.064-.015-.151-.015-.215-.038-.072-.026-.136-.026-.224-.04-.05-.024-.112-.024-.176-.034-.087-.024-.161-.054-.248-.054-.064-.01-.128-.01-.187-.034-.054-.025-.102-.025-.166-.039-.073-.024-.17-.04-.259-.064-.038-.024-.102-.024-.14-.034-.06-.024-.098-.024-.162-.054a1.303 1.303 0 0 1-.288-.058c-.025 0-.059-.015-.088-.015a.456.456 0 0 0-.17-.038c-.113-.025-.216-.059-.313-.089-.079-.024-.142-.034-.23-.059-.097-.024-.195-.062-.298-.077a1.997 1.997 0 0 0-.21-.064c-.102-.049-.2-.059-.302-.097l-.186-.064c-.103-.05-.2-.064-.288-.113l-.176-.049c-.113-.048-.185-.087-.287-.11-.064-.016-.098-.04-.162-.05-.088-.054-.19-.088-.278-.127-.034-.025-.098-.049-.137-.064l-.249-.122a.739.739 0 0 0-.137-.063l-.361-.191c-.088-.034-.151-.072-.225-.112-.054-.024-.088-.05-.112-.058-.053-.054-.142-.089-.2-.151-.04-.016-.063-.04-.103-.074a1.024 1.024 0 0 1-.185-.151.126.126 0 0 1-.079-.079c-.058-.034-.098-.098-.16-.146l-.225-.225a.147.147 0 0 1-.064-.078 1.46 1.46 0 0 1-.122-.146c-.024-.015-.039-.054-.063-.079-.04-.034-.064-.097-.102-.151-.025-.01-.025-.049-.035-.073-.024-.04-.064-.098-.088-.137-.015-.024-.015-.064-.015-.088l-.063-.186c.015-.165 0-.287 0-.4z" fill="#0078d7" fill-rule="evenodd"/></svg>