<svg xmlns="http://www.w3.org/2000/svg" viewBox="0 0 43.75 40" height="40" width="43.75"><g fill="#0078d7"><path d="M22.203 38.75H31.9v-2.7h-9.697v2.7zM22.203 34.449H31.9v-2.7h-9.697v2.7zM9.199 27.853H8.5h4.2V25.45h9.301v4.8H31.7v-2.397h6.298c2.902 0 4.903-2.403 4.903-5 0-2.804-2.3-5.103-5-5.103h-.6c.298-1.099.497-2.3.497-3.599C37.9 6.851 32.5.851 25 .851c-5.899 0-11.002 3.798-12.797 9.198a9.552 9.552 0 0 0-3.004-.498C4.1 9.551 0 13.848 0 18.75c.098 5.2 4.101 9.103 9.199 9.103zm3.598-10.904h9.406v2.7h-9.406v-2.7zm0 7.001v-2.7H22.1v2.7h-9.303z"/></g></svg>