<svg xmlns="http://www.w3.org/2000/svg" viewBox="0 0 53.75 42.5" height="42.5" width="53.75"><g fill="#006fd4"><path d="M45.498 28.248L46.9 25.05l5.698-1.997v-4.606l-.595-.2-5-1.698L45.6 13.35l2.599-5.4L45 4.752l-.699.4-4.7 2.398-3.2-1.402-2.1-5.498h-4.7l-.201.6-1.7 4.898-3.197 1.402-5.504-2.398L15.8 8.35l.298.601 1.499 2.798c2.602-1.499 5.4-2.1 8.404-2.1 4.096.2 7.9 1.7 10.8 4.4.6.502 1.397.902 1.997 1.699.302.302.6.8.801 1.2 2.001 3.502 1.201 7.9-2.1 10.503-2.402 1.998-5.801 2.3-8.399 1.197-.302-.2-.502-.2-.6-.298a7.51 7.51 0 0 1-1.802-1.299c-.2 0-.298-.2-.6-.2-.601 0-1.396.298-1.798.801l-.2.2c-2 1.997-4.301 3.497-6.699 4.297l-1.6 1.7 3.3 3.3.6-.298L24.4 34.45l3.198 1.299L29.4 41.25H34.1l.2-.6 1.7-4.902L39.2 34.35l5.504 2.398 3.197-3.2v-.696l-2.403-4.605z"/><path d="M17.3 20.152c-3.599 3.8-9.302 3.8-12.798-.2-.303-.503-1.2-.503-1.504 0-.2.2-.298.498-.298.795 0 .303.2.602.298.802C7.3 26.25 14.3 26.45 18.7 21.85v-.2c3.599-3.598 9.199-3.598 12.598.298.502.502 1.201.502 1.498 0 .2-.2.303-.498.303-.802 0-.297-.2-.594-.303-.795-4.096-4.702-11.098-4.8-15.497-.2z"/><path d="M25.098 22.051c-1.998 0-3.6.601-5 2.1l-.196.2-.2.2c-2.402 2.598-5.8 3.999-9.204 3.8-3.496 0-6.597-1.7-9-4.302-.497-.5-1.2-.5-1.498 0v.8c0 .303.2.601.297.8 2.803 3.101 6.504 4.904 10.504 4.904 3.999.195 7.598-1.504 10.697-4.606l.2-.2.202-.194c.897-.904 2.099-1.504 3.5-1.504 1.401 0 2.397.6 3.501 1.698.499.503 1.197.503 1.499 0 .2-.194.299-.497.299-.796 0-.302-.202-.6-.3-.8-1.498-1.299-3.299-2.1-5.301-2.1zM35.801 16.451c-2.803-3.1-6.602-4.902-10.504-4.902-3.896 0-7.597 1.504-10.697 4.599l-.401.4c-.898.903-2.099 1.505-3.5 1.505-1.398 0-2.3-.704-3.4-1.704-.498-.499-1.2-.499-1.498 0-.2.2-.303.502-.303.8 0 .302.2.601.303.801 1.402 1.499 3.1 2.3 4.898 2.3 2.001 0 3.602-.601 5-2.1l.2-.2s.2 0 .2-.2c2.403-2.598 5.8-4 9.198-4 3.502 0 6.603 1.7 8.804 4.303.5.497 1.196.497 1.5 0 .2-.2.298-.503.298-.802.2-.302 0-.6-.098-.8z"/></g></svg>