<svg xmlns="http://www.w3.org/2000/svg" viewBox="0 0 50 47.5" height="47.5" width="50"><path d="M47.002.15H2.7C1.201.15 0 1.449 0 2.947v30.904c0 1.5 1.201 2.798 2.7 2.798H18.8c1.6 5.801-.6 6.601-10.2 6.601v2.999H41.2V43.25c-9.6 0-10.6-.8-8.901-6.601h14.703c1.499 0 2.997-1.299 2.997-2.798V2.947C50 1.45 48.502.15 47.003.15z" fill="#59b4d9"/><path d="M3.799 32.85h42.3V3.95h-42.3V32.85z" fill="#fff"/><path d="M25.497 17.553H25.4L16.6 12.45c-.103 0-.103-.097-.103-.2 0-.098.103-.2.103-.2l8.799-5h.299l8.803 5.102c.098 0 .098.098.098.2 0 .098 0 .2-.098.2l-8.7 5h-.305M24.301 29.852H24.2l-8.8-5.102c-.102 0-.102-.098-.102-.2V14.349c0-.098.103-.2.103-.2h.299l8.804 5.103c.097 0 .097.097.097.2v10.2c0 .098-.097.2-.097.2H24.3M26.801 29.852H26.7c-.098 0-.098-.102-.098-.2V19.55c0-.099.098-.201.098-.201l8.798-5.098h.304c.098 0 .098.098.098.2V24.55c0 .102-.098.2-.098.2l-8.798 5.102H26.8" fill="#0072c6"/></svg>