<svg xmlns="http://www.w3.org/2000/svg" viewBox="0 0 30 31.25" height="31.25" width="30"><path d="M29.424 13.775L16.225.578c-.698-.704-1.899-.704-2.603 0l-2.797 2.797 3.399 3.399c.302-.098.502-.2.8-.2 1.3 0 2.3 1.001 2.3 2.3 0 .302 0 .6-.098.8l3.301 3.301c.298-.097.498-.2.797-.2 1.303 0 2.298 1 2.298 2.3 0 1.299-.994 2.299-2.298 2.299-1.3 0-2.3-1-2.3-2.299 0-.299.103-.601.2-.801l-3.101-3.102v8.204c.8.4 1.303 1.202 1.303 1.998 0 1.304-1 2.298-2.298 2.298-1.304 0-2.3-.994-2.3-2.298 0-.997.594-1.798 1.498-2.1v-8.199c-.904-.302-1.498-1.201-1.498-2.099 0-.304.097-.601.2-.801L9.525 4.776.527 13.775c-.703.699-.703 1.9 0 2.599l13.096 13.1c.703.704 1.904.704 2.602 0l13.101-13.1a1.78 1.78 0 0 0 .098-2.6z" fill="#dd5900"/></svg>