<svg xmlns="http://www.w3.org/2000/svg" viewBox="0 0 30 30" height="30" width="30"><path d="M15 0C6.719 0 0 6.719 0 15c0 8.291 6.719 15 15 15 8.281 0 15-6.709 15-15 0-8.281-6.719-15-15-15zm3.965 28.022V25.46c0-.986-.537-1.865-1.373-2.417.06-.01.128-.02.196-.02 1.426-.18 2.714-.63 2.714-.63s1.857-.57 2.858-1.742c1.054-1.236 1.323-3.067 1.323-3.067s.35-1.997 0-3.55c-.347-1.518-1.46-2.573-1.46-2.573s.386-.991.35-2.021c-.033-.992-.497-2.021-.497-2.021s-.873-.084-1.806.277c-1.139.44-2.374 1.329-2.374 1.329s-.863-.284-1.875-.415C16.09 8.47 15 8.462 15 8.462s-1.089.01-2.022.147a11.5 11.5 0 0 0-1.874.415s-1.227-.89-2.374-1.33c-.922-.355-1.811-.276-1.811-.276s-.449 1.03-.48 2.021c-.033 1.035.349 2.021.349 2.021s-1.124 1.055-1.46 2.574c-.362 1.552 0 3.549 0 3.549s.268 1.83 1.312 3.07c1.001 1.168 2.866 1.74 2.866 1.74s1.28.448 2.706.63c.068 0 .137.01.205.024-.834.547-1.382 1.426-1.382 2.412v2.563C5.45 26.328 1.391 21.132 1.391 15 1.391 7.485 7.485 1.391 15 1.391S28.619 7.485 28.619 15c0 6.132-4.068 11.328-9.654 13.022z" fill="#1e1e1e"/></svg>