<svg xmlns="http://www.w3.org/2000/svg" viewBox="0 0 32.5 37.5" height="37.5" width="32.5"><g fill="#0078d7"><path d="M18.145 17.791c0 1.381-1.123 2.5-2.5 2.5a2.499 2.499 0 0 1-2.5-2.5 2.499 2.499 0 1 1 5 0z"/><path d="M15.6.365C7.002.365 0 2.664 0 5.462l2.598 15.303c0 2.998 5.8 5.498 13.1 5.498 7.202 0 13.1-2.398 13.1-5.498l2.603-15.303c-.2-2.798-7.202-5.097-15.8-5.097zm0 22.401c-2.803 0-5-2.201-5-5 0-2.802 2.197-5 5-5 2.799 0 5 2.198 5 5 0 2.799-2.201 5-5 5zm0-15.6c-5.502 0-10-1.001-10-2.1 0-1.2 4.498-2.2 10-2.2 5.499 0 10 1 10 2.2 0 1.197-4.501 2.1-10 2.1z"/><path d="M5.092 26.151c-.2-.2-.4-.303-.497-.504h-.2c-.304 0-.601.2-.699.504l.098.6 1.099 5.2c0 2.1 4.8 4.298 10.703 4.298 5.898 0 10.698-2.1 10.698-4.298l1.099-5.2.102-.6a.754.754 0 0 0-.703-.504h-.2l-.498.504c-2.003 1.499-5.9 2.598-10.498 2.598-4.6 0-8.5-.997-10.504-2.598z"/></g></svg>