<svg xmlns="http://www.w3.org/2000/svg" viewBox="0 0 37.5 36.25" height="36.25" width="37.5"><g fill="#0078d7"><path d="M35.098.5H2.002C.9.5 0 1.502 0 2.6v23.1c0 1.099.899 2.1 2.002 2.1h11.3c1.2 4.301-.402 4.903-7.603 4.903v2.3h24.399v-2.3c-7.198 0-7.895-.602-6.7-4.903h11.7c1.103 0 2.304-1.001 2.304-2.1V2.6c0-1.099-1.2-2.1-2.304-2.1zm-.595 2.797V24.9H2.796V3.297h31.705z"/><path d="M24.078 10.119l-5.802-3.3-5.796 3.3v.097l5.796 3.302 5.802-3.4zM18.901 14.47v6.601l5.802-3.301v-6.601L18.9 14.47zM17.71 14.47l-5.801-3.301v6.601l5.801 3.301v-6.6z"/></g></svg>