<svg xmlns="http://www.w3.org/2000/svg" viewBox="0 0 256.25 238.75" height="238.75" width="256.25"><path d="M119.541 99.57c-10.61 17.838-20.776 35.108-31.152 52.251-2.666 4.4-3.985 7.984-1.855 13.579 5.874 15.454-2.418 30.494-17.999 34.575-14.698 3.853-29.019-5.81-31.934-21.542-2.582-13.927 8.223-27.58 23.58-29.757 1.29-.185 2.603-.205 4.76-.37 7.525-12.617 15.235-25.537 23.36-39.166-14.692-14.609-23.432-31.684-21.5-52.841C68.17 41.338 74.053 28.413 84.8 17.818c20.59-20.29 52.001-23.57 76.25-8 23.281 14.957 33.945 44.093 24.854 69.03-6.851-1.855-13.755-3.73-21.344-5.792 2.857-13.862.748-26.313-8.602-36.977-6.183-7.041-14.108-10.733-23.125-12.095-18.072-2.729-35.811 8.882-41.08 26.616-5.972 20.133 3.07 36.578 27.788 48.97z" fill="#c73a63"/><path d="M149.839 78.476c7.476 13.189 15.064 26.573 22.587 39.839 38.023-11.762 66.685 9.283 76.974 31.816 12.416 27.218 3.925 59.459-20.469 76.25-25.04 17.237-56.705 14.293-78.892-7.851 5.655-4.736 11.339-9.487 17.407-14.565 21.914 14.189 41.079 13.52 55.308-3.281 12.129-14.342 11.87-35.718-.615-49.751-14.409-16.197-33.707-16.696-57.037-1.143-9.677-17.168-19.52-34.199-28.89-51.494-3.16-5.826-6.652-9.21-13.77-10.44-11.895-2.065-19.576-12.275-20.034-23.721-.455-11.313 6.21-21.543 16.635-25.526 10.317-3.952 22.432-.763 29.374 8.012 5.674 7.173 7.477 15.239 4.493 24.081-.83 2.467-1.904 4.854-3.071 7.774z" fill="#4b4b4b"/><path d="M167.705 186.279h-45.771c-4.385 18.042-13.863 32.607-30.19 41.875-12.691 7.197-26.373 9.638-40.934 7.29-26.806-4.326-48.725-28.457-50.654-55.63-2.187-30.785 18.975-58.149 47.178-64.291 1.949 7.07 3.911 14.209 5.86 21.26-25.875 13.202-34.83 29.838-27.589 50.638 6.377 18.302 24.482 28.335 44.146 24.454 20.083-3.96 30.205-20.65 28.97-47.431 19.033 0 38.085-.196 57.124.097 7.436.117 13.174-.655 18.774-7.207 9.219-10.781 26.191-9.81 36.124.376 10.146 10.405 9.657 27.152-1.08 37.124-10.362 9.619-26.728 9.106-36.426-1.26-1.992-2.134-3.56-4.673-5.532-7.295z" fill="#4a4a4a"/></svg>